<?xml version="1.0" encoding="utf-8"?>
<svg xmlns="http://www.w3.org/2000/svg" xmlns:xlink="http://www.w3.org/1999/xlink" width="600" height="400" viewBox="0 0 2400 1600">
<defs>
  <clipPath id="clip300">
    <rect x="0" y="0" width="2400" height="1600"/>
  </clipPath>
</defs>
<path clip-path="url(#clip300)" d="M0 1600 L2400 1600 L2400 8.88178e-14 L0 8.88178e-14  Z" fill="#ffffff" fill-rule="evenodd" fill-opacity="1"/>
<defs>
  <clipPath id="clip301">
    <rect x="480" y="0" width="1681" height="1600"/>
  </clipPath>
</defs>
<path clip-path="url(#clip300)" d="M323.98 1349.74 L2352.76 1349.74 L2352.76 47.2441 L323.98 47.2441  Z" fill="#ffffff" fill-rule="evenodd" fill-opacity="1"/>
<defs>
  <clipPath id="clip302">
    <rect x="323" y="47" width="2030" height="1303"/>
  </clipPath>
</defs>
<polyline clip-path="url(#clip300)" style="stroke:#000000; stroke-linecap:round; stroke-linejoin:round; stroke-width:4; stroke-opacity:1; fill:none" points="323.98,1349.74 2352.76,1349.74 "/>
<polyline clip-path="url(#clip300)" style="stroke:#000000; stroke-linecap:round; stroke-linejoin:round; stroke-width:2; stroke-opacity:0.5; fill:none" points="323.98,47.2441 2352.76,47.2441 "/>
<polyline clip-path="url(#clip300)" style="stroke:#000000; stroke-linecap:round; stroke-linejoin:round; stroke-width:4; stroke-opacity:1; fill:none" points="751.09,1349.74 751.09,1330.84 "/>
<polyline clip-path="url(#clip300)" style="stroke:#000000; stroke-linecap:round; stroke-linejoin:round; stroke-width:4; stroke-opacity:1; fill:none" points="1284.98,1349.74 1284.98,1330.84 "/>
<polyline clip-path="url(#clip300)" style="stroke:#000000; stroke-linecap:round; stroke-linejoin:round; stroke-width:4; stroke-opacity:1; fill:none" points="1818.87,1349.74 1818.87,1330.84 "/>
<polyline clip-path="url(#clip300)" style="stroke:#000000; stroke-linecap:round; stroke-linejoin:round; stroke-width:4; stroke-opacity:1; fill:none" points="2352.76,1349.74 2352.76,1330.84 "/>
<path clip-path="url(#clip300)" d="M725.312 1445.77 L735.337 1444.92 Q736.451 1452.24 740.482 1455.96 Q744.566 1459.62 750.295 1459.62 Q757.19 1459.62 761.964 1454.42 Q766.738 1449.22 766.738 1440.63 Q766.738 1432.46 762.123 1427.74 Q757.562 1423.02 750.136 1423.02 Q745.521 1423.02 741.808 1425.14 Q738.095 1427.21 735.973 1430.55 L727.009 1429.38 L734.541 1389.44 L773.209 1389.44 L773.209 1398.56 L742.179 1398.56 L737.989 1419.46 Q744.991 1414.58 752.682 1414.58 Q762.866 1414.58 769.867 1421.64 Q776.869 1428.69 776.869 1439.78 Q776.869 1450.33 770.716 1458.02 Q763.237 1467.47 750.295 1467.47 Q739.686 1467.47 732.95 1461.53 Q726.267 1455.58 725.312 1445.77 Z" fill="#000000" fill-rule="nonzero" fill-opacity="1" /><path clip-path="url(#clip300)" d="M1261.72 1466.14 L1252.17 1466.14 L1252.17 1405.3 Q1248.72 1408.59 1243.1 1411.88 Q1237.53 1415.17 1233.08 1416.81 L1233.08 1407.58 Q1241.09 1403.82 1247.08 1398.46 Q1253.07 1393.1 1255.57 1388.06 L1261.72 1388.06 L1261.72 1466.14 Z" fill="#000000" fill-rule="nonzero" fill-opacity="1" /><path clip-path="url(#clip300)" d="M1286.17 1427.79 Q1286.17 1414 1288.98 1405.62 Q1291.85 1397.18 1297.42 1392.62 Q1303.04 1388.06 1311.53 1388.06 Q1317.79 1388.06 1322.51 1390.61 Q1327.23 1393.1 1330.3 1397.87 Q1333.38 1402.6 1335.13 1409.44 Q1336.88 1416.23 1336.88 1427.79 Q1336.88 1441.48 1334.07 1449.91 Q1331.26 1458.29 1325.64 1462.9 Q1320.07 1467.47 1311.53 1467.47 Q1300.28 1467.47 1293.86 1459.4 Q1286.17 1449.7 1286.17 1427.79 M1295.99 1427.79 Q1295.99 1446.94 1300.44 1453.3 Q1304.95 1459.62 1311.53 1459.62 Q1318.1 1459.62 1322.56 1453.25 Q1327.07 1446.89 1327.07 1427.79 Q1327.07 1408.59 1322.56 1402.28 Q1318.1 1395.96 1311.42 1395.96 Q1304.84 1395.96 1300.92 1401.53 Q1295.99 1408.64 1295.99 1427.79 Z" fill="#000000" fill-rule="nonzero" fill-opacity="1" /><path clip-path="url(#clip300)" d="M1795.18 1466.14 L1785.64 1466.14 L1785.64 1405.3 Q1782.19 1408.59 1776.57 1411.88 Q1771 1415.17 1766.54 1416.81 L1766.54 1407.58 Q1774.55 1403.82 1780.54 1398.46 Q1786.54 1393.1 1789.03 1388.06 L1795.18 1388.06 L1795.18 1466.14 Z" fill="#000000" fill-rule="nonzero" fill-opacity="1" /><path clip-path="url(#clip300)" d="M1819.64 1445.77 L1829.66 1444.92 Q1830.78 1452.24 1834.81 1455.96 Q1838.89 1459.62 1844.62 1459.62 Q1851.51 1459.62 1856.29 1454.42 Q1861.06 1449.22 1861.06 1440.63 Q1861.06 1432.46 1856.45 1427.74 Q1851.89 1423.02 1844.46 1423.02 Q1839.85 1423.02 1836.13 1425.14 Q1832.42 1427.21 1830.3 1430.55 L1821.33 1429.38 L1828.87 1389.44 L1867.53 1389.44 L1867.53 1398.56 L1836.5 1398.56 L1832.31 1419.46 Q1839.32 1414.58 1847.01 1414.58 Q1857.19 1414.58 1864.19 1421.64 Q1871.19 1428.69 1871.19 1439.78 Q1871.19 1450.33 1865.04 1458.02 Q1857.56 1467.47 1844.62 1467.47 Q1834.01 1467.47 1827.27 1461.53 Q1820.59 1455.58 1819.64 1445.77 Z" fill="#000000" fill-rule="nonzero" fill-opacity="1" /><path clip-path="url(#clip300)" d="M2348.04 1456.96 L2348.04 1466.14 L2296.64 1466.14 Q2296.53 1462.69 2297.75 1459.51 Q2299.71 1454.26 2304.01 1449.17 Q2308.36 1444.07 2316.53 1437.39 Q2329.21 1426.99 2333.66 1420.95 Q2338.12 1414.85 2338.12 1409.44 Q2338.12 1403.76 2334.03 1399.89 Q2330 1395.96 2323.48 1395.96 Q2316.58 1395.96 2312.44 1400.1 Q2308.31 1404.24 2308.25 1411.56 L2298.44 1410.55 Q2299.45 1399.57 2306.03 1393.84 Q2312.6 1388.06 2323.69 1388.06 Q2334.88 1388.06 2341.4 1394.27 Q2347.93 1400.47 2347.93 1409.65 Q2347.93 1414.32 2346.02 1418.83 Q2344.11 1423.33 2339.65 1428.32 Q2335.25 1433.31 2324.96 1442.01 Q2316.37 1449.22 2313.93 1451.82 Q2311.49 1454.36 2309.9 1456.96 L2348.04 1456.96 Z" fill="#000000" fill-rule="nonzero" fill-opacity="1" /><path clip-path="url(#clip300)" d="M2358.27 1427.79 Q2358.27 1414 2361.08 1405.62 Q2363.95 1397.18 2369.52 1392.62 Q2375.14 1388.06 2383.63 1388.06 Q2389.89 1388.06 2394.61 1390.61 Q2399.33 1393.1 2402.4 1397.87 Q2405.48 1402.6 2407.23 1409.44 Q2408.98 1416.23 2408.98 1427.79 Q2408.98 1441.48 2406.17 1449.91 Q2403.36 1458.29 2397.74 1462.9 Q2392.17 1467.47 2383.63 1467.47 Q2372.38 1467.47 2365.96 1459.4 Q2358.27 1449.7 2358.27 1427.79 M2368.09 1427.79 Q2368.09 1446.94 2372.54 1453.3 Q2377.05 1459.62 2383.63 1459.62 Q2390.2 1459.62 2394.66 1453.25 Q2399.17 1446.89 2399.17 1427.79 Q2399.17 1408.59 2394.66 1402.28 Q2390.2 1395.96 2383.52 1395.96 Q2376.94 1395.96 2373.02 1401.53 Q2368.09 1408.64 2368.09 1427.79 Z" fill="#000000" fill-rule="nonzero" fill-opacity="1" /><path clip-path="url(#clip300)" d="M1237.8 1577.55 L1247.67 1578.77 Q1245.33 1587.42 1239.02 1592.19 Q1232.71 1596.96 1222.89 1596.96 Q1210.54 1596.96 1203.27 1589.38 Q1196.06 1581.74 1196.06 1568 Q1196.06 1553.79 1203.38 1545.94 Q1210.69 1538.09 1222.36 1538.09 Q1233.66 1538.09 1240.82 1545.78 Q1247.98 1553.47 1247.98 1567.42 Q1247.98 1568.27 1247.93 1569.97 L1205.92 1569.97 Q1206.45 1579.25 1211.17 1584.18 Q1215.89 1589.11 1222.95 1589.11 Q1228.2 1589.11 1231.91 1586.36 Q1235.62 1583.6 1237.8 1577.55 M1206.45 1562.12 L1237.91 1562.12 Q1237.27 1555.01 1234.3 1551.45 Q1229.74 1545.94 1222.47 1545.94 Q1215.89 1545.94 1211.38 1550.34 Q1206.93 1554.74 1206.45 1562.12 Z" fill="#000000" fill-rule="nonzero" fill-opacity="1" /><path clip-path="url(#clip300)" d="M1259.65 1617.28 L1259.65 1539.36 L1268.35 1539.36 L1268.35 1546.68 Q1271.43 1542.38 1275.3 1540.26 Q1279.17 1538.09 1284.69 1538.09 Q1291.9 1538.09 1297.42 1541.8 Q1302.94 1545.51 1305.75 1552.3 Q1308.56 1559.04 1308.56 1567.1 Q1308.56 1575.75 1305.43 1582.7 Q1302.35 1589.59 1296.41 1593.3 Q1290.52 1596.96 1284 1596.96 Q1279.23 1596.96 1275.41 1594.95 Q1271.64 1592.93 1269.2 1589.86 L1269.2 1617.28 L1259.65 1617.28 M1268.3 1567.84 Q1268.3 1578.72 1272.7 1583.92 Q1277.1 1589.11 1283.36 1589.11 Q1289.73 1589.11 1294.24 1583.76 Q1298.8 1578.35 1298.8 1567.05 Q1298.8 1556.28 1294.34 1550.92 Q1289.94 1545.57 1283.79 1545.57 Q1277.69 1545.57 1272.97 1551.3 Q1268.3 1556.97 1268.3 1567.84 Z" fill="#000000" fill-rule="nonzero" fill-opacity="1" /><path clip-path="url(#clip300)" d="M1316.51 1567.53 Q1316.51 1551.88 1325.21 1544.35 Q1332.48 1538.09 1342.93 1538.09 Q1354.55 1538.09 1361.92 1545.73 Q1369.29 1553.31 1369.29 1566.73 Q1369.29 1577.6 1366 1583.86 Q1362.77 1590.07 1356.51 1593.52 Q1350.3 1596.96 1342.93 1596.96 Q1331.1 1596.96 1323.78 1589.38 Q1316.51 1581.79 1316.51 1567.53 M1326.33 1567.53 Q1326.33 1578.35 1331.05 1583.76 Q1335.77 1589.11 1342.93 1589.11 Q1350.04 1589.11 1354.76 1583.7 Q1359.48 1578.29 1359.48 1567.21 Q1359.48 1556.76 1354.7 1551.4 Q1349.98 1545.99 1342.93 1545.99 Q1335.77 1545.99 1331.05 1551.35 Q1326.33 1556.71 1326.33 1567.53 Z" fill="#000000" fill-rule="nonzero" fill-opacity="1" /><path clip-path="url(#clip300)" d="M1417.24 1575.06 L1426.63 1576.28 Q1425.09 1585.99 1418.73 1591.5 Q1412.41 1596.96 1403.19 1596.96 Q1391.62 1596.96 1384.57 1589.43 Q1377.57 1581.85 1377.57 1567.74 Q1377.57 1558.62 1380.59 1551.77 Q1383.61 1544.93 1389.77 1541.54 Q1395.97 1538.09 1403.24 1538.09 Q1412.41 1538.09 1418.25 1542.76 Q1424.08 1547.37 1425.73 1555.91 L1416.45 1557.34 Q1415.12 1551.67 1411.73 1548.8 Q1408.38 1545.94 1403.61 1545.94 Q1396.4 1545.94 1391.89 1551.14 Q1387.38 1556.28 1387.38 1567.47 Q1387.38 1578.82 1391.73 1583.97 Q1396.08 1589.11 1403.08 1589.11 Q1408.7 1589.11 1412.47 1585.67 Q1416.23 1582.22 1417.24 1575.06 Z" fill="#000000" fill-rule="nonzero" fill-opacity="1" /><path clip-path="url(#clip300)" d="M1434.8 1595.69 L1434.8 1517.93 L1444.35 1517.93 L1444.35 1545.83 Q1451.03 1538.09 1461.21 1538.09 Q1467.47 1538.09 1472.09 1540.58 Q1476.7 1543.02 1478.66 1547.37 Q1480.68 1551.72 1480.68 1559.99 L1480.68 1595.69 L1471.13 1595.69 L1471.13 1559.99 Q1471.13 1552.83 1468 1549.6 Q1464.93 1546.31 1459.25 1546.31 Q1455.01 1546.31 1451.24 1548.54 Q1447.53 1550.71 1445.94 1554.48 Q1444.35 1558.24 1444.35 1564.87 L1444.35 1595.69 L1434.8 1595.69 Z" fill="#000000" fill-rule="nonzero" fill-opacity="1" /><polyline clip-path="url(#clip300)" style="stroke:#000000; stroke-linecap:round; stroke-linejoin:round; stroke-width:4; stroke-opacity:1; fill:none" points="323.98,1349.74 323.98,47.2441 "/>
<polyline clip-path="url(#clip300)" style="stroke:#000000; stroke-linecap:round; stroke-linejoin:round; stroke-width:2; stroke-opacity:0.5; fill:none" points="2352.76,1349.74 2352.76,47.2441 "/>
<polyline clip-path="url(#clip300)" style="stroke:#000000; stroke-linecap:round; stroke-linejoin:round; stroke-width:4; stroke-opacity:1; fill:none" points="323.98,1197.5 342.877,1197.5 "/>
<polyline clip-path="url(#clip300)" style="stroke:#000000; stroke-linecap:round; stroke-linejoin:round; stroke-width:4; stroke-opacity:1; fill:none" points="323.98,887.273 342.877,887.273 "/>
<polyline clip-path="url(#clip300)" style="stroke:#000000; stroke-linecap:round; stroke-linejoin:round; stroke-width:4; stroke-opacity:1; fill:none" points="323.98,577.046 342.877,577.046 "/>
<polyline clip-path="url(#clip300)" style="stroke:#000000; stroke-linecap:round; stroke-linejoin:round; stroke-width:4; stroke-opacity:1; fill:none" points="323.98,266.82 342.877,266.82 "/>
<path clip-path="url(#clip300)" d="M182.638 1236.38 L173.09 1236.38 L173.09 1175.54 Q169.642 1178.83 164.02 1182.12 Q158.45 1185.41 153.995 1187.05 L153.995 1177.82 Q162.004 1174.05 167.998 1168.7 Q173.992 1163.34 176.485 1158.3 L182.638 1158.3 L182.638 1236.38 Z" fill="#000000" fill-rule="nonzero" fill-opacity="1" /><path clip-path="url(#clip300)" d="M212.447 1236.38 L212.447 1225.51 L223.321 1225.51 L223.321 1236.38 L212.447 1236.38 Z" fill="#000000" fill-rule="nonzero" fill-opacity="1" /><path clip-path="url(#clip300)" d="M237.271 1198.03 Q237.271 1184.24 240.082 1175.86 Q242.947 1167.42 248.516 1162.86 Q254.139 1158.3 262.625 1158.3 Q268.884 1158.3 273.605 1160.85 Q278.326 1163.34 281.402 1168.11 Q284.479 1172.83 286.229 1179.68 Q287.98 1186.47 287.98 1198.03 Q287.98 1211.71 285.168 1220.15 Q282.357 1228.53 276.735 1233.14 Q271.165 1237.71 262.625 1237.71 Q251.38 1237.71 244.962 1229.64 Q237.271 1219.94 237.271 1198.03 M247.084 1198.03 Q247.084 1217.18 251.54 1223.54 Q256.048 1229.86 262.625 1229.86 Q269.203 1229.86 273.658 1223.49 Q278.167 1217.12 278.167 1198.03 Q278.167 1178.83 273.658 1172.52 Q269.203 1166.2 262.519 1166.2 Q255.942 1166.2 252.017 1171.77 Q247.084 1178.88 247.084 1198.03 Z" fill="#000000" fill-rule="nonzero" fill-opacity="1" /><path clip-path="url(#clip300)" d="M181.789 926.153 L172.241 926.153 L172.241 865.313 Q168.794 868.602 163.171 871.89 Q157.602 875.179 153.146 876.823 L153.146 867.594 Q161.155 863.828 167.149 858.471 Q173.143 853.113 175.636 848.074 L181.789 848.074 L181.789 926.153 Z" fill="#000000" fill-rule="nonzero" fill-opacity="1" /><path clip-path="url(#clip300)" d="M211.599 926.153 L211.599 915.279 L222.472 915.279 L222.472 926.153 L211.599 926.153 Z" fill="#000000" fill-rule="nonzero" fill-opacity="1" /><path clip-path="url(#clip300)" d="M236.422 905.784 L246.447 904.936 Q247.561 912.256 251.593 915.969 Q255.677 919.628 261.405 919.628 Q268.301 919.628 273.075 914.43 Q277.848 909.232 277.848 900.639 Q277.848 892.471 273.234 887.75 Q268.672 883.029 261.246 883.029 Q256.632 883.029 252.919 885.151 Q249.206 887.22 247.084 890.561 L238.12 889.394 L245.652 849.454 L284.32 849.454 L284.32 858.577 L253.29 858.577 L249.1 879.475 Q256.101 874.596 263.792 874.596 Q273.976 874.596 280.978 881.65 Q287.98 888.705 287.98 899.791 Q287.98 910.346 281.827 918.037 Q274.348 927.479 261.405 927.479 Q250.797 927.479 244.061 921.538 Q237.377 915.597 236.422 905.784 Z" fill="#000000" fill-rule="nonzero" fill-opacity="1" /><path clip-path="url(#clip300)" d="M196.853 606.75 L196.853 615.926 L145.455 615.926 Q145.349 612.478 146.569 609.296 Q148.531 604.045 152.828 598.953 Q157.177 593.861 165.346 587.177 Q178.023 576.781 182.478 570.734 Q186.934 564.634 186.934 559.224 Q186.934 553.548 182.85 549.676 Q178.819 545.751 172.294 545.751 Q165.399 545.751 161.262 549.888 Q157.124 554.026 157.071 561.346 L147.258 560.338 Q148.266 549.358 154.843 543.629 Q161.421 537.848 172.506 537.848 Q183.698 537.848 190.223 544.054 Q196.747 550.26 196.747 559.436 Q196.747 564.104 194.837 568.612 Q192.928 573.121 188.472 578.107 Q184.07 583.093 173.78 591.792 Q165.187 599.006 162.747 601.605 Q160.307 604.151 158.715 606.75 L196.853 606.75 Z" fill="#000000" fill-rule="nonzero" fill-opacity="1" /><path clip-path="url(#clip300)" d="M212.447 615.926 L212.447 605.052 L223.321 605.052 L223.321 615.926 L212.447 615.926 Z" fill="#000000" fill-rule="nonzero" fill-opacity="1" /><path clip-path="url(#clip300)" d="M237.271 577.577 Q237.271 563.786 240.082 555.405 Q242.947 546.971 248.516 542.409 Q254.139 537.848 262.625 537.848 Q268.884 537.848 273.605 540.394 Q278.326 542.887 281.402 547.661 Q284.479 552.381 286.229 559.224 Q287.98 566.013 287.98 577.577 Q287.98 591.261 285.168 599.695 Q282.357 608.076 276.735 612.691 Q271.165 617.252 262.625 617.252 Q251.38 617.252 244.962 609.19 Q237.271 599.483 237.271 577.577 M247.084 577.577 Q247.084 596.725 251.54 603.09 Q256.048 609.402 262.625 609.402 Q269.203 609.402 273.658 603.037 Q278.167 596.672 278.167 577.577 Q278.167 558.375 273.658 552.063 Q269.203 545.751 262.519 545.751 Q255.942 545.751 252.017 551.321 Q247.084 558.428 247.084 577.577 Z" fill="#000000" fill-rule="nonzero" fill-opacity="1" /><path clip-path="url(#clip300)" d="M196.004 296.523 L196.004 305.7 L144.606 305.7 Q144.5 302.252 145.72 299.069 Q147.683 293.818 151.979 288.726 Q156.329 283.634 164.497 276.951 Q177.174 266.554 181.63 260.507 Q186.085 254.408 186.085 248.997 Q186.085 243.322 182.001 239.45 Q177.97 235.525 171.446 235.525 Q164.55 235.525 160.413 239.662 Q156.276 243.799 156.223 251.119 L146.41 250.111 Q147.417 239.131 153.995 233.403 Q160.572 227.621 171.658 227.621 Q182.85 227.621 189.374 233.827 Q195.898 240.033 195.898 249.209 Q195.898 253.877 193.989 258.386 Q192.079 262.894 187.624 267.88 Q183.221 272.866 172.931 281.565 Q164.338 288.779 161.898 291.378 Q159.458 293.924 157.867 296.523 L196.004 296.523 Z" fill="#000000" fill-rule="nonzero" fill-opacity="1" /><path clip-path="url(#clip300)" d="M211.599 305.7 L211.599 294.826 L222.472 294.826 L222.472 305.7 L211.599 305.7 Z" fill="#000000" fill-rule="nonzero" fill-opacity="1" /><path clip-path="url(#clip300)" d="M236.422 285.331 L246.447 284.483 Q247.561 291.802 251.593 295.515 Q255.677 299.175 261.405 299.175 Q268.301 299.175 273.075 293.977 Q277.848 288.779 277.848 280.186 Q277.848 272.018 273.234 267.297 Q268.672 262.576 261.246 262.576 Q256.632 262.576 252.919 264.698 Q249.206 266.766 247.084 270.108 L238.12 268.941 L245.652 229 L284.32 229 L284.32 238.124 L253.29 238.124 L249.1 259.022 Q256.101 254.142 263.792 254.142 Q273.976 254.142 280.978 261.197 Q287.98 268.252 287.98 279.337 Q287.98 289.893 281.827 297.584 Q274.348 307.026 261.405 307.026 Q250.797 307.026 244.061 301.085 Q237.377 295.144 236.422 285.331 Z" fill="#000000" fill-rule="nonzero" fill-opacity="1" /><path clip-path="url(#clip300)" d="M85.1722 789.513 L7.41216 789.513 L7.41216 779.965 L85.1722 779.965 L85.1722 789.513 Z" fill="#000000" fill-rule="nonzero" fill-opacity="1" /><path clip-path="url(#clip300)" d="M57.0067 768.72 Q41.3592 768.72 33.8272 760.021 Q27.5682 752.754 27.5682 742.305 Q27.5682 730.689 35.2063 723.316 Q42.7914 715.943 56.2111 715.943 Q67.0847 715.943 73.3437 719.232 Q79.5497 722.467 82.9974 728.726 Q86.4452 734.932 86.4452 742.305 Q86.4452 754.133 78.8601 761.453 Q71.2751 768.72 57.0067 768.72 M57.0067 758.907 Q67.8273 758.907 73.2376 754.186 Q78.5949 749.466 78.5949 742.305 Q78.5949 735.197 73.1846 730.476 Q67.7743 725.756 56.6884 725.756 Q46.2391 725.756 40.8818 730.53 Q35.4715 735.25 35.4715 742.305 Q35.4715 749.466 40.8288 754.186 Q46.1861 758.907 57.0067 758.907 Z" fill="#000000" fill-rule="nonzero" fill-opacity="1" /><path clip-path="url(#clip300)" d="M68.3578 708.57 L66.8726 699.128 Q72.5481 698.333 75.5715 694.726 Q78.5949 691.066 78.5949 684.542 Q78.5949 677.965 75.9428 674.782 Q73.2376 671.6 69.6308 671.6 Q66.3952 671.6 64.5387 674.411 Q63.2657 676.373 61.3031 684.171 Q58.651 694.673 56.7415 698.757 Q54.7789 702.788 51.3842 704.91 Q47.9365 706.979 43.7992 706.979 Q40.0332 706.979 36.8506 705.281 Q33.615 703.531 31.4934 700.561 Q29.849 698.333 28.7352 694.514 Q27.5682 690.642 27.5682 686.239 Q27.5682 679.609 29.4778 674.623 Q31.3873 669.584 34.6759 667.197 Q37.9115 664.81 43.3748 663.908 L44.6478 673.244 Q40.2984 673.88 37.8584 676.957 Q35.4185 679.98 35.4185 685.55 Q35.4185 692.127 37.5932 694.938 Q39.768 697.749 42.6853 697.749 Q44.5418 697.749 46.0269 696.582 Q47.5652 695.416 48.573 692.923 Q49.1034 691.49 51.0129 684.489 Q53.7181 674.358 55.4685 670.38 Q57.1658 666.348 60.4544 664.068 Q63.7431 661.787 68.623 661.787 Q73.3968 661.787 77.6402 664.598 Q81.8305 667.356 84.1644 672.607 Q86.4452 677.859 86.4452 684.489 Q86.4452 695.469 81.8835 701.25 Q77.3219 706.979 68.3578 708.57 Z" fill="#000000" fill-rule="nonzero" fill-opacity="1" /><path clip-path="url(#clip300)" d="M68.3578 654.255 L66.8726 644.813 Q72.5481 644.018 75.5715 640.411 Q78.5949 636.751 78.5949 630.227 Q78.5949 623.649 75.9428 620.467 Q73.2376 617.284 69.6308 617.284 Q66.3952 617.284 64.5387 620.095 Q63.2657 622.058 61.3031 629.855 Q58.651 640.358 56.7415 644.442 Q54.7789 648.473 51.3842 650.595 Q47.9365 652.663 43.7992 652.663 Q40.0332 652.663 36.8506 650.966 Q33.615 649.216 31.4934 646.245 Q29.849 644.018 28.7352 640.198 Q27.5682 636.326 27.5682 631.924 Q27.5682 625.294 29.4778 620.308 Q31.3873 615.269 34.6759 612.882 Q37.9115 610.495 43.3748 609.593 L44.6478 618.929 Q40.2984 619.565 37.8584 622.641 Q35.4185 625.665 35.4185 631.234 Q35.4185 637.812 37.5932 640.623 Q39.768 643.434 42.6853 643.434 Q44.5418 643.434 46.0269 642.267 Q47.5652 641.1 48.573 638.607 Q49.1034 637.175 51.0129 630.173 Q53.7181 620.042 55.4685 616.064 Q57.1658 612.033 60.4544 609.752 Q63.7431 607.471 68.623 607.471 Q73.3968 607.471 77.6402 610.283 Q81.8305 613.041 84.1644 618.292 Q86.4452 623.543 86.4452 630.173 Q86.4452 641.153 81.8835 646.935 Q77.3219 652.663 68.3578 654.255 Z" fill="#000000" fill-rule="nonzero" fill-opacity="1" /><polyline clip-path="url(#clip302)" style="stroke:#009af9; stroke-linecap:round; stroke-linejoin:round; stroke-width:8; stroke-opacity:1; fill:none" points="323.98,47.2441 430.757,292.486 537.535,491.739 644.313,653.717 751.09,785.482 857.868,892.754 964.646,980.17 1071.42,1051.48 1178.2,1109.74 1284.98,1157.41 1391.76,1196.48 1498.53,1228.58 1605.31,1255.01 1712.09,1276.85 1818.87,1294.95 1925.65,1310.02 2032.42,1322.61 2139.2,1333.19 2245.98,1342.14 2352.76,1349.74 "/>
<circle clip-path="url(#clip302)" cx="323.98" cy="47.2441" r="3.6" fill="#009af9" fill-rule="evenodd" fill-opacity="1" stroke="#000000" stroke-opacity="1" stroke-width="3.2"/>
<circle clip-path="url(#clip302)" cx="430.757" cy="292.486" r="3.6" fill="#009af9" fill-rule="evenodd" fill-opacity="1" stroke="#000000" stroke-opacity="1" stroke-width="3.2"/>
<circle clip-path="url(#clip302)" cx="537.535" cy="491.739" r="3.6" fill="#009af9" fill-rule="evenodd" fill-opacity="1" stroke="#000000" stroke-opacity="1" stroke-width="3.2"/>
<circle clip-path="url(#clip302)" cx="644.313" cy="653.717" r="3.6" fill="#009af9" fill-rule="evenodd" fill-opacity="1" stroke="#000000" stroke-opacity="1" stroke-width="3.2"/>
<circle clip-path="url(#clip302)" cx="751.09" cy="785.482" r="3.6" fill="#009af9" fill-rule="evenodd" fill-opacity="1" stroke="#000000" stroke-opacity="1" stroke-width="3.2"/>
<circle clip-path="url(#clip302)" cx="857.868" cy="892.754" r="3.6" fill="#009af9" fill-rule="evenodd" fill-opacity="1" stroke="#000000" stroke-opacity="1" stroke-width="3.2"/>
<circle clip-path="url(#clip302)" cx="964.646" cy="980.17" r="3.6" fill="#009af9" fill-rule="evenodd" fill-opacity="1" stroke="#000000" stroke-opacity="1" stroke-width="3.2"/>
<circle clip-path="url(#clip302)" cx="1071.42" cy="1051.48" r="3.6" fill="#009af9" fill-rule="evenodd" fill-opacity="1" stroke="#000000" stroke-opacity="1" stroke-width="3.2"/>
<circle clip-path="url(#clip302)" cx="1178.2" cy="1109.74" r="3.6" fill="#009af9" fill-rule="evenodd" fill-opacity="1" stroke="#000000" stroke-opacity="1" stroke-width="3.2"/>
<circle clip-path="url(#clip302)" cx="1284.98" cy="1157.41" r="3.6" fill="#009af9" fill-rule="evenodd" fill-opacity="1" stroke="#000000" stroke-opacity="1" stroke-width="3.2"/>
<circle clip-path="url(#clip302)" cx="1391.76" cy="1196.48" r="3.6" fill="#009af9" fill-rule="evenodd" fill-opacity="1" stroke="#000000" stroke-opacity="1" stroke-width="3.2"/>
<circle clip-path="url(#clip302)" cx="1498.53" cy="1228.58" r="3.6" fill="#009af9" fill-rule="evenodd" fill-opacity="1" stroke="#000000" stroke-opacity="1" stroke-width="3.2"/>
<circle clip-path="url(#clip302)" cx="1605.31" cy="1255.01" r="3.6" fill="#009af9" fill-rule="evenodd" fill-opacity="1" stroke="#000000" stroke-opacity="1" stroke-width="3.2"/>
<circle clip-path="url(#clip302)" cx="1712.09" cy="1276.85" r="3.6" fill="#009af9" fill-rule="evenodd" fill-opacity="1" stroke="#000000" stroke-opacity="1" stroke-width="3.2"/>
<circle clip-path="url(#clip302)" cx="1818.87" cy="1294.95" r="3.6" fill="#009af9" fill-rule="evenodd" fill-opacity="1" stroke="#000000" stroke-opacity="1" stroke-width="3.2"/>
<circle clip-path="url(#clip302)" cx="1925.65" cy="1310.02" r="3.6" fill="#009af9" fill-rule="evenodd" fill-opacity="1" stroke="#000000" stroke-opacity="1" stroke-width="3.2"/>
<circle clip-path="url(#clip302)" cx="2032.42" cy="1322.61" r="3.6" fill="#009af9" fill-rule="evenodd" fill-opacity="1" stroke="#000000" stroke-opacity="1" stroke-width="3.2"/>
<circle clip-path="url(#clip302)" cx="2139.2" cy="1333.19" r="3.6" fill="#009af9" fill-rule="evenodd" fill-opacity="1" stroke="#000000" stroke-opacity="1" stroke-width="3.2"/>
<circle clip-path="url(#clip302)" cx="2245.98" cy="1342.14" r="3.6" fill="#009af9" fill-rule="evenodd" fill-opacity="1" stroke="#000000" stroke-opacity="1" stroke-width="3.2"/>
<circle clip-path="url(#clip302)" cx="2352.76" cy="1349.74" r="3.6" fill="#009af9" fill-rule="evenodd" fill-opacity="1" stroke="#000000" stroke-opacity="1" stroke-width="3.2"/>
<polyline clip-path="url(#clip302)" style="stroke:#e26f46; stroke-linecap:round; stroke-linejoin:round; stroke-width:8; stroke-opacity:1; fill:none" points="323.98,138.416 430.757,332.185 537.535,491.713 644.313,623.293 751.09,732.041 857.868,822.119 964.646,896.915 1071.42,959.189 1178.2,1011.19 1284.98,1054.75 1391.76,1091.36 1498.53,1122.25 1605.31,1148.41 1712.09,1170.66 1818.87,1189.67 1925.65,1205.98 2032.42,1220.05 2139.2,1232.25 2245.98,1242.88 2352.76,1252.19 "/>
<circle clip-path="url(#clip302)" cx="323.98" cy="138.416" r="3.6" fill="#e26f46" fill-rule="evenodd" fill-opacity="1" stroke="#000000" stroke-opacity="1" stroke-width="3.2"/>
<circle clip-path="url(#clip302)" cx="430.757" cy="332.185" r="3.6" fill="#e26f46" fill-rule="evenodd" fill-opacity="1" stroke="#000000" stroke-opacity="1" stroke-width="3.2"/>
<circle clip-path="url(#clip302)" cx="537.535" cy="491.713" r="3.6" fill="#e26f46" fill-rule="evenodd" fill-opacity="1" stroke="#000000" stroke-opacity="1" stroke-width="3.2"/>
<circle clip-path="url(#clip302)" cx="644.313" cy="623.293" r="3.6" fill="#e26f46" fill-rule="evenodd" fill-opacity="1" stroke="#000000" stroke-opacity="1" stroke-width="3.2"/>
<circle clip-path="url(#clip302)" cx="751.09" cy="732.041" r="3.6" fill="#e26f46" fill-rule="evenodd" fill-opacity="1" stroke="#000000" stroke-opacity="1" stroke-width="3.2"/>
<circle clip-path="url(#clip302)" cx="857.868" cy="822.119" r="3.6" fill="#e26f46" fill-rule="evenodd" fill-opacity="1" stroke="#000000" stroke-opacity="1" stroke-width="3.2"/>
<circle clip-path="url(#clip302)" cx="964.646" cy="896.915" r="3.6" fill="#e26f46" fill-rule="evenodd" fill-opacity="1" stroke="#000000" stroke-opacity="1" stroke-width="3.2"/>
<circle clip-path="url(#clip302)" cx="1071.42" cy="959.189" r="3.6" fill="#e26f46" fill-rule="evenodd" fill-opacity="1" stroke="#000000" stroke-opacity="1" stroke-width="3.2"/>
<circle clip-path="url(#clip302)" cx="1178.2" cy="1011.19" r="3.6" fill="#e26f46" fill-rule="evenodd" fill-opacity="1" stroke="#000000" stroke-opacity="1" stroke-width="3.2"/>
<circle clip-path="url(#clip302)" cx="1284.98" cy="1054.75" r="3.6" fill="#e26f46" fill-rule="evenodd" fill-opacity="1" stroke="#000000" stroke-opacity="1" stroke-width="3.2"/>
<circle clip-path="url(#clip302)" cx="1391.76" cy="1091.36" r="3.6" fill="#e26f46" fill-rule="evenodd" fill-opacity="1" stroke="#000000" stroke-opacity="1" stroke-width="3.2"/>
<circle clip-path="url(#clip302)" cx="1498.53" cy="1122.25" r="3.6" fill="#e26f46" fill-rule="evenodd" fill-opacity="1" stroke="#000000" stroke-opacity="1" stroke-width="3.2"/>
<circle clip-path="url(#clip302)" cx="1605.31" cy="1148.41" r="3.6" fill="#e26f46" fill-rule="evenodd" fill-opacity="1" stroke="#000000" stroke-opacity="1" stroke-width="3.2"/>
<circle clip-path="url(#clip302)" cx="1712.09" cy="1170.66" r="3.6" fill="#e26f46" fill-rule="evenodd" fill-opacity="1" stroke="#000000" stroke-opacity="1" stroke-width="3.2"/>
<circle clip-path="url(#clip302)" cx="1818.87" cy="1189.67" r="3.6" fill="#e26f46" fill-rule="evenodd" fill-opacity="1" stroke="#000000" stroke-opacity="1" stroke-width="3.2"/>
<circle clip-path="url(#clip302)" cx="1925.65" cy="1205.98" r="3.6" fill="#e26f46" fill-rule="evenodd" fill-opacity="1" stroke="#000000" stroke-opacity="1" stroke-width="3.2"/>
<circle clip-path="url(#clip302)" cx="2032.42" cy="1220.05" r="3.6" fill="#e26f46" fill-rule="evenodd" fill-opacity="1" stroke="#000000" stroke-opacity="1" stroke-width="3.2"/>
<circle clip-path="url(#clip302)" cx="2139.2" cy="1232.25" r="3.6" fill="#e26f46" fill-rule="evenodd" fill-opacity="1" stroke="#000000" stroke-opacity="1" stroke-width="3.2"/>
<circle clip-path="url(#clip302)" cx="2245.98" cy="1242.88" r="3.6" fill="#e26f46" fill-rule="evenodd" fill-opacity="1" stroke="#000000" stroke-opacity="1" stroke-width="3.2"/>
<circle clip-path="url(#clip302)" cx="2352.76" cy="1252.19" r="3.6" fill="#e26f46" fill-rule="evenodd" fill-opacity="1" stroke="#000000" stroke-opacity="1" stroke-width="3.2"/>
<path clip-path="url(#clip300)" d="M1623.44 440.581 L2285.13 440.581 L2285.13 90.6606 L1623.44 90.6606  Z" fill="#ffffff" fill-rule="evenodd" fill-opacity="1"/>
<polyline clip-path="url(#clip300)" style="stroke:#000000; stroke-linecap:round; stroke-linejoin:round; stroke-width:4; stroke-opacity:1; fill:none" points="1623.44,440.581 2285.13,440.581 2285.13,90.6606 1623.44,90.6606 1623.44,440.581 "/>
<polyline clip-path="url(#clip300)" style="stroke:#009af9; stroke-linecap:round; stroke-linejoin:round; stroke-width:18; stroke-opacity:1; fill:none" points="1645.98,207.301 1781.23,207.301 "/>
<circle clip-path="url(#clip300)" cx="1713.6" cy="207.301" r="8.34887" fill="#009af9" fill-rule="evenodd" fill-opacity="1" stroke="#000000" stroke-opacity="1" stroke-width="7.42122"/>
<path clip-path="url(#clip300)" d="M1829.87 237.641 L1831.25 246.075 Q1827.22 246.923 1824.03 246.923 Q1818.84 246.923 1815.97 245.279 Q1813.11 243.635 1811.94 240.982 Q1810.77 238.277 1810.77 229.684 L1810.77 197.276 L1803.77 197.276 L1803.77 189.85 L1810.77 189.85 L1810.77 175.9 L1820.27 170.171 L1820.27 189.85 L1829.87 189.85 L1829.87 197.276 L1820.27 197.276 L1820.27 230.215 Q1820.27 234.299 1820.75 235.466 Q1821.28 236.633 1822.39 237.323 Q1823.56 238.012 1825.68 238.012 Q1827.27 238.012 1829.87 237.641 Z" fill="#000000" fill-rule="nonzero" fill-opacity="1" /><path clip-path="url(#clip300)" d="M1839.1 246.181 L1839.1 189.85 L1847.69 189.85 L1847.69 198.39 Q1850.98 192.396 1853.74 190.486 Q1856.55 188.577 1859.89 188.577 Q1864.72 188.577 1869.7 191.653 L1866.42 200.511 Q1862.91 198.443 1859.41 198.443 Q1856.28 198.443 1853.79 200.352 Q1851.3 202.209 1850.24 205.55 Q1848.65 210.642 1848.65 216.689 L1848.65 246.181 L1839.1 246.181 Z" fill="#000000" fill-rule="nonzero" fill-opacity="1" /><path clip-path="url(#clip300)" d="M1912.14 239.232 Q1906.83 243.741 1901.9 245.597 Q1897.02 247.454 1891.4 247.454 Q1882.12 247.454 1877.13 242.945 Q1872.14 238.383 1872.14 231.329 Q1872.14 227.191 1874 223.797 Q1875.91 220.349 1878.93 218.28 Q1882.01 216.212 1885.83 215.151 Q1888.64 214.408 1894.32 213.719 Q1905.88 212.34 1911.34 210.43 Q1911.4 208.468 1911.4 207.937 Q1911.4 202.102 1908.69 199.716 Q1905.03 196.48 1897.82 196.48 Q1891.08 196.48 1887.84 198.867 Q1884.66 201.201 1883.12 207.195 L1873.79 205.922 Q1875.06 199.928 1877.98 196.268 Q1880.9 192.555 1886.41 190.592 Q1891.93 188.577 1899.2 188.577 Q1906.41 188.577 1910.92 190.274 Q1915.43 191.971 1917.55 194.57 Q1919.67 197.116 1920.52 201.042 Q1921 203.482 1921 209.847 L1921 222.577 Q1921 235.89 1921.58 239.444 Q1922.22 242.945 1924.02 246.181 L1914.05 246.181 Q1912.56 243.21 1912.14 239.232 M1911.34 217.909 Q1906.14 220.031 1895.75 221.516 Q1889.86 222.365 1887.42 223.425 Q1884.98 224.486 1883.65 226.555 Q1882.33 228.571 1882.33 231.064 Q1882.33 234.883 1885.19 237.429 Q1888.11 239.975 1893.68 239.975 Q1899.2 239.975 1903.49 237.588 Q1907.79 235.148 1909.8 230.957 Q1911.34 227.722 1911.34 221.41 L1911.34 217.909 Z" fill="#000000" fill-rule="nonzero" fill-opacity="1" /><path clip-path="url(#clip300)" d="M1935.85 179.4 L1935.85 168.421 L1945.4 168.421 L1945.4 179.4 L1935.85 179.4 M1935.85 246.181 L1935.85 189.85 L1945.4 189.85 L1945.4 246.181 L1935.85 246.181 Z" fill="#000000" fill-rule="nonzero" fill-opacity="1" /><path clip-path="url(#clip300)" d="M1959.93 246.181 L1959.93 189.85 L1968.52 189.85 L1968.52 197.859 Q1974.73 188.577 1986.45 188.577 Q1991.54 188.577 1995.79 190.433 Q2000.08 192.237 2002.2 195.207 Q2004.33 198.177 2005.17 202.262 Q2005.7 204.914 2005.7 211.544 L2005.7 246.181 L1996.16 246.181 L1996.16 211.915 Q1996.16 206.081 1995.04 203.216 Q1993.93 200.299 1991.06 198.602 Q1988.25 196.851 1984.43 196.851 Q1978.33 196.851 1973.88 200.723 Q1969.48 204.595 1969.48 215.416 L1969.48 246.181 L1959.93 246.181 Z" fill="#000000" fill-rule="nonzero" fill-opacity="1" /><path clip-path="url(#clip300)" d="M2011.54 267.769 L2011.54 260.873 L2074.82 260.873 L2074.82 267.769 L2011.54 267.769 Z" fill="#000000" fill-rule="nonzero" fill-opacity="1" /><path clip-path="url(#clip300)" d="M2080.55 246.181 L2080.55 168.421 L2090.09 168.421 L2090.09 246.181 L2080.55 246.181 Z" fill="#000000" fill-rule="nonzero" fill-opacity="1" /><path clip-path="url(#clip300)" d="M2101.34 218.015 Q2101.34 202.368 2110.04 194.836 Q2117.31 188.577 2127.75 188.577 Q2139.37 188.577 2146.74 196.215 Q2154.12 203.8 2154.12 217.22 Q2154.12 228.093 2150.83 234.352 Q2147.59 240.558 2141.33 244.006 Q2135.13 247.454 2127.75 247.454 Q2115.93 247.454 2108.61 239.869 Q2101.34 232.284 2101.34 218.015 M2111.15 218.015 Q2111.15 228.836 2115.87 234.246 Q2120.59 239.603 2127.75 239.603 Q2134.86 239.603 2139.58 234.193 Q2144.3 228.783 2144.3 217.697 Q2144.3 207.248 2139.53 201.89 Q2134.81 196.48 2127.75 196.48 Q2120.59 196.48 2115.87 201.837 Q2111.15 207.195 2111.15 218.015 Z" fill="#000000" fill-rule="nonzero" fill-opacity="1" /><path clip-path="url(#clip300)" d="M2161.49 229.366 L2170.93 227.881 Q2171.73 233.557 2175.33 236.58 Q2178.99 239.603 2185.52 239.603 Q2192.09 239.603 2195.28 236.951 Q2198.46 234.246 2198.46 230.639 Q2198.46 227.404 2195.65 225.547 Q2193.69 224.274 2185.89 222.312 Q2175.39 219.659 2171.3 217.75 Q2167.27 215.787 2165.15 212.393 Q2163.08 208.945 2163.08 204.808 Q2163.08 201.042 2164.78 197.859 Q2166.53 194.624 2169.5 192.502 Q2171.73 190.858 2175.55 189.744 Q2179.42 188.577 2183.82 188.577 Q2190.45 188.577 2195.44 190.486 Q2200.48 192.396 2202.86 195.684 Q2205.25 198.92 2206.15 204.383 L2196.82 205.656 Q2196.18 201.307 2193.1 198.867 Q2190.08 196.427 2184.51 196.427 Q2177.93 196.427 2175.12 198.602 Q2172.31 200.776 2172.31 203.694 Q2172.31 205.55 2173.48 207.035 Q2174.64 208.574 2177.14 209.581 Q2178.57 210.112 2185.57 212.021 Q2195.7 214.727 2199.68 216.477 Q2203.71 218.174 2205.99 221.463 Q2208.27 224.752 2208.27 229.631 Q2208.27 234.405 2205.46 238.649 Q2202.7 242.839 2197.45 245.173 Q2192.2 247.454 2185.57 247.454 Q2174.59 247.454 2168.81 242.892 Q2163.08 238.33 2161.49 229.366 Z" fill="#000000" fill-rule="nonzero" fill-opacity="1" /><path clip-path="url(#clip300)" d="M2215.8 229.366 L2225.25 227.881 Q2226.04 233.557 2229.65 236.58 Q2233.31 239.603 2239.83 239.603 Q2246.41 239.603 2249.59 236.951 Q2252.78 234.246 2252.78 230.639 Q2252.78 227.404 2249.96 225.547 Q2248 224.274 2240.2 222.312 Q2229.7 219.659 2225.62 217.75 Q2221.59 215.787 2219.46 212.393 Q2217.4 208.945 2217.4 204.808 Q2217.4 201.042 2219.09 197.859 Q2220.84 194.624 2223.81 192.502 Q2226.04 190.858 2229.86 189.744 Q2233.73 188.577 2238.14 188.577 Q2244.77 188.577 2249.75 190.486 Q2254.79 192.396 2257.18 195.684 Q2259.56 198.92 2260.47 204.383 L2251.13 205.656 Q2250.49 201.307 2247.42 198.867 Q2244.39 196.427 2238.83 196.427 Q2232.25 196.427 2229.44 198.602 Q2226.63 200.776 2226.63 203.694 Q2226.63 205.55 2227.79 207.035 Q2228.96 208.574 2231.45 209.581 Q2232.88 210.112 2239.89 212.021 Q2250.02 214.727 2254 216.477 Q2258.03 218.174 2260.31 221.463 Q2262.59 224.752 2262.59 229.631 Q2262.59 234.405 2259.78 238.649 Q2257.02 242.839 2251.77 245.173 Q2246.52 247.454 2239.89 247.454 Q2228.91 247.454 2223.12 242.892 Q2217.4 238.33 2215.8 229.366 Z" fill="#000000" fill-rule="nonzero" fill-opacity="1" /><polyline clip-path="url(#clip300)" style="stroke:#e26f46; stroke-linecap:round; stroke-linejoin:round; stroke-width:18; stroke-opacity:1; fill:none" points="1645.98,323.941 1781.23,323.941 "/>
<circle clip-path="url(#clip300)" cx="1713.6" cy="323.941" r="8.34887" fill="#e26f46" fill-rule="evenodd" fill-opacity="1" stroke="#000000" stroke-opacity="1" stroke-width="7.42122"/>
<path clip-path="url(#clip300)" d="M1825.2 362.821 L1803.77 306.49 L1813.85 306.49 L1825.94 340.225 Q1827.91 345.688 1829.55 351.576 Q1830.82 347.12 1833.1 340.861 L1845.62 306.49 L1855.44 306.49 L1834.11 362.821 L1825.2 362.821 Z" fill="#000000" fill-rule="nonzero" fill-opacity="1" /><path clip-path="url(#clip300)" d="M1900.63 355.872 Q1895.32 360.381 1890.39 362.237 Q1885.51 364.094 1879.89 364.094 Q1870.61 364.094 1865.62 359.585 Q1860.63 355.023 1860.63 347.969 Q1860.63 343.831 1862.49 340.437 Q1864.4 336.989 1867.42 334.92 Q1870.5 332.852 1874.32 331.791 Q1877.13 331.048 1882.81 330.359 Q1894.37 328.98 1899.83 327.07 Q1899.88 325.108 1899.88 324.577 Q1899.88 318.742 1897.18 316.356 Q1893.52 313.12 1886.31 313.12 Q1879.57 313.12 1876.33 315.507 Q1873.15 317.841 1871.61 323.835 L1862.28 322.562 Q1863.55 316.568 1866.47 312.908 Q1869.39 309.195 1874.9 307.232 Q1880.42 305.217 1887.69 305.217 Q1894.9 305.217 1899.41 306.914 Q1903.92 308.611 1906.04 311.21 Q1908.16 313.756 1909.01 317.682 Q1909.49 320.122 1909.49 326.487 L1909.49 339.217 Q1909.49 352.53 1910.07 356.084 Q1910.71 359.585 1912.51 362.821 L1902.54 362.821 Q1901.05 359.85 1900.63 355.872 M1899.83 334.549 Q1894.63 336.671 1884.24 338.156 Q1878.35 339.005 1875.91 340.065 Q1873.47 341.126 1872.14 343.195 Q1870.82 345.211 1870.82 347.704 Q1870.82 351.523 1873.68 354.069 Q1876.6 356.615 1882.17 356.615 Q1887.69 356.615 1891.98 354.228 Q1896.28 351.788 1898.29 347.597 Q1899.83 344.362 1899.83 338.05 L1899.83 334.549 Z" fill="#000000" fill-rule="nonzero" fill-opacity="1" /><path clip-path="url(#clip300)" d="M1924.07 362.821 L1924.07 285.061 L1933.62 285.061 L1933.62 362.821 L1924.07 362.821 Z" fill="#000000" fill-rule="nonzero" fill-opacity="1" /><path clip-path="url(#clip300)" d="M1939.61 384.409 L1939.61 377.513 L2002.89 377.513 L2002.89 384.409 L1939.61 384.409 Z" fill="#000000" fill-rule="nonzero" fill-opacity="1" /><path clip-path="url(#clip300)" d="M2008.62 362.821 L2008.62 285.061 L2018.17 285.061 L2018.17 362.821 L2008.62 362.821 Z" fill="#000000" fill-rule="nonzero" fill-opacity="1" /><path clip-path="url(#clip300)" d="M2029.41 334.655 Q2029.41 319.008 2038.11 311.476 Q2045.38 305.217 2055.83 305.217 Q2067.45 305.217 2074.82 312.855 Q2082.19 320.44 2082.19 333.86 Q2082.19 344.733 2078.9 350.992 Q2075.67 357.198 2069.41 360.646 Q2063.2 364.094 2055.83 364.094 Q2044 364.094 2036.68 356.509 Q2029.41 348.924 2029.41 334.655 M2039.23 334.655 Q2039.23 345.476 2043.95 350.886 Q2048.67 356.243 2055.83 356.243 Q2062.94 356.243 2067.66 350.833 Q2072.38 345.423 2072.38 334.337 Q2072.38 323.888 2067.6 318.53 Q2062.88 313.12 2055.83 313.12 Q2048.67 313.12 2043.95 318.477 Q2039.23 323.835 2039.23 334.655 Z" fill="#000000" fill-rule="nonzero" fill-opacity="1" /><path clip-path="url(#clip300)" d="M2089.56 346.006 L2099.01 344.521 Q2099.8 350.197 2103.41 353.22 Q2107.07 356.243 2113.59 356.243 Q2120.17 356.243 2123.35 353.591 Q2126.53 350.886 2126.53 347.279 Q2126.53 344.044 2123.72 342.187 Q2121.76 340.914 2113.96 338.952 Q2103.46 336.299 2099.38 334.39 Q2095.35 332.427 2093.22 329.033 Q2091.16 325.585 2091.16 321.448 Q2091.16 317.682 2092.85 314.499 Q2094.6 311.264 2097.57 309.142 Q2099.8 307.498 2103.62 306.384 Q2107.49 305.217 2111.89 305.217 Q2118.53 305.217 2123.51 307.126 Q2128.55 309.036 2130.94 312.324 Q2133.32 315.56 2134.23 321.023 L2124.89 322.296 Q2124.25 317.947 2121.18 315.507 Q2118.15 313.067 2112.58 313.067 Q2106.01 313.067 2103.2 315.242 Q2100.38 317.416 2100.38 320.334 Q2100.38 322.19 2101.55 323.675 Q2102.72 325.214 2105.21 326.221 Q2106.64 326.752 2113.65 328.661 Q2123.78 331.367 2127.75 333.117 Q2131.79 334.814 2134.07 338.103 Q2136.35 341.392 2136.35 346.271 Q2136.35 351.045 2133.54 355.289 Q2130.78 359.479 2125.53 361.813 Q2120.28 364.094 2113.65 364.094 Q2102.67 364.094 2096.88 359.532 Q2091.16 354.97 2089.56 346.006 Z" fill="#000000" fill-rule="nonzero" fill-opacity="1" /><path clip-path="url(#clip300)" d="M2143.88 346.006 L2153.32 344.521 Q2154.12 350.197 2157.72 353.22 Q2161.38 356.243 2167.91 356.243 Q2174.48 356.243 2177.67 353.591 Q2180.85 350.886 2180.85 347.279 Q2180.85 344.044 2178.04 342.187 Q2176.08 340.914 2168.28 338.952 Q2157.78 336.299 2153.69 334.39 Q2149.66 332.427 2147.54 329.033 Q2145.47 325.585 2145.47 321.448 Q2145.47 317.682 2147.17 314.499 Q2148.92 311.264 2151.89 309.142 Q2154.12 307.498 2157.94 306.384 Q2161.81 305.217 2166.21 305.217 Q2172.84 305.217 2177.83 307.126 Q2182.87 309.036 2185.25 312.324 Q2187.64 315.56 2188.54 321.023 L2179.21 322.296 Q2178.57 317.947 2175.49 315.507 Q2172.47 313.067 2166.9 313.067 Q2160.32 313.067 2157.51 315.242 Q2154.7 317.416 2154.7 320.334 Q2154.7 322.19 2155.87 323.675 Q2157.03 325.214 2159.53 326.221 Q2160.96 326.752 2167.96 328.661 Q2178.09 331.367 2182.07 333.117 Q2186.1 334.814 2188.38 338.103 Q2190.66 341.392 2190.66 346.271 Q2190.66 351.045 2187.85 355.289 Q2185.09 359.479 2179.84 361.813 Q2174.59 364.094 2167.96 364.094 Q2156.98 364.094 2151.2 359.532 Q2145.47 354.97 2143.88 346.006 Z" fill="#000000" fill-rule="nonzero" fill-opacity="1" /></svg>
