<?xml version="1.0" encoding="utf-8"?>
<svg xmlns="http://www.w3.org/2000/svg" xmlns:xlink="http://www.w3.org/1999/xlink" width="600" height="450" viewBox="0 0 2400 1800">
<defs>
  <clipPath id="clip100">
    <rect x="0" y="0" width="2400" height="1800"/>
  </clipPath>
</defs>
<path clip-path="url(#clip100)" d="M0 1800 L2400 1800 L2400 0 L0 0  Z" fill="#ffffff" fill-rule="evenodd" fill-opacity="1"/>
<defs>
  <clipPath id="clip101">
    <rect x="480" y="0" width="1681" height="1681"/>
  </clipPath>
</defs>
<defs>
  <clipPath id="clip102">
    <rect x="214" y="47" width="2139" height="1564"/>
  </clipPath>
</defs>
<path clip-path="url(#clip102)" d="M1332.41 837.069 L1332.41 691.576 L1410.52 618.83 L1545.82 660.83 L1545.82 806.323 L1467.7 879.07 L1332.41 837.069  Z" fill="#ffffff" fill-rule="evenodd" fill-opacity="1"/>
<polyline clip-path="url(#clip100)" style="stroke:#000000; stroke-linecap:round; stroke-linejoin:round; stroke-width:4; stroke-opacity:1; fill:none" points="667.487,1301.67 1448.74,1527.2 "/>
<polyline clip-path="url(#clip100)" style="stroke:#000000; stroke-linecap:round; stroke-linejoin:round; stroke-width:2; stroke-opacity:0.5; fill:none" points="1118.54,129.793 1899.8,355.322 "/>
<polyline clip-path="url(#clip100)" style="stroke:#000000; stroke-linecap:round; stroke-linejoin:round; stroke-width:4; stroke-opacity:1; fill:none" points="776.68,1333.2 782.092,1328.51 "/>
<polyline clip-path="url(#clip100)" style="stroke:#000000; stroke-linecap:round; stroke-linejoin:round; stroke-width:4; stroke-opacity:1; fill:none" points="945.799,1382.02 951.212,1377.33 "/>
<polyline clip-path="url(#clip100)" style="stroke:#000000; stroke-linecap:round; stroke-linejoin:round; stroke-width:4; stroke-opacity:1; fill:none" points="1114.92,1430.84 1120.33,1426.15 "/>
<polyline clip-path="url(#clip100)" style="stroke:#000000; stroke-linecap:round; stroke-linejoin:round; stroke-width:4; stroke-opacity:1; fill:none" points="1284.04,1479.66 1289.45,1474.97 "/>
<path clip-path="url(#clip100)" d="M633.155 1365.13 L587.515 1365.13 L587.515 1357.21 L633.155 1357.21 L633.155 1365.13 Z" fill="#000000" fill-rule="nonzero" fill-opacity="1" /><path clip-path="url(#clip100)" d="M642.537 1377.16 L651.448 1376.4 Q652.438 1382.91 656.022 1386.21 Q659.652 1389.46 664.744 1389.46 Q670.873 1389.46 675.117 1384.84 Q679.36 1380.22 679.36 1372.58 Q679.36 1365.32 675.258 1361.12 Q671.204 1356.93 664.603 1356.93 Q660.501 1356.93 657.2 1358.81 Q653.9 1360.65 652.014 1363.62 L644.046 1362.59 L650.741 1327.08 L685.112 1327.08 L685.112 1335.19 L657.53 1335.19 L653.806 1353.77 Q660.029 1349.43 666.866 1349.43 Q675.918 1349.43 682.142 1355.7 Q688.366 1361.97 688.366 1371.83 Q688.366 1381.21 682.896 1388.05 Q676.248 1396.44 664.744 1396.44 Q655.314 1396.44 649.327 1391.16 Q643.386 1385.88 642.537 1377.16 Z" fill="#000000" fill-rule="nonzero" fill-opacity="1" /><path clip-path="url(#clip100)" d="M701.001 1395.26 L701.001 1385.59 L710.667 1385.59 L710.667 1395.26 L701.001 1395.26 Z" fill="#000000" fill-rule="nonzero" fill-opacity="1" /><path clip-path="url(#clip100)" d="M723.067 1361.17 Q723.067 1348.91 725.566 1341.46 Q728.112 1333.97 733.063 1329.91 Q738.06 1325.86 745.604 1325.86 Q751.168 1325.86 755.364 1328.12 Q759.56 1330.34 762.295 1334.58 Q765.029 1338.78 766.585 1344.86 Q768.141 1350.89 768.141 1361.17 Q768.141 1373.34 765.642 1380.83 Q763.143 1388.28 758.146 1392.38 Q753.195 1396.44 745.604 1396.44 Q735.609 1396.44 729.904 1389.27 Q723.067 1380.64 723.067 1361.17 M731.79 1361.17 Q731.79 1378.19 735.75 1383.85 Q739.758 1389.46 745.604 1389.46 Q751.451 1389.46 755.411 1383.8 Q759.419 1378.15 759.419 1361.17 Q759.419 1344.1 755.411 1338.49 Q751.451 1332.88 745.51 1332.88 Q739.663 1332.88 736.174 1337.83 Q731.79 1344.15 731.79 1361.17 Z" fill="#000000" fill-rule="nonzero" fill-opacity="1" /><path clip-path="url(#clip100)" d="M801.52 1413.95 L755.88 1413.95 L755.88 1406.03 L801.52 1406.03 L801.52 1413.95 Z" fill="#000000" fill-rule="nonzero" fill-opacity="1" /><path clip-path="url(#clip100)" d="M855.505 1435.92 L855.505 1444.08 L809.818 1444.08 Q809.723 1441.02 810.808 1438.19 Q812.552 1433.52 816.371 1428.99 Q820.238 1424.47 827.498 1418.53 Q838.767 1409.29 842.727 1403.91 Q846.688 1398.49 846.688 1393.68 Q846.688 1388.63 843.058 1385.19 Q839.474 1381.7 833.675 1381.7 Q827.546 1381.7 823.868 1385.38 Q820.19 1389.06 820.143 1395.56 L811.421 1394.67 Q812.317 1384.91 818.163 1379.82 Q824.009 1374.68 833.864 1374.68 Q843.812 1374.68 849.611 1380.19 Q855.41 1385.71 855.41 1393.87 Q855.41 1398.02 853.713 1402.02 Q852.016 1406.03 848.055 1410.46 Q844.142 1414.9 834.995 1422.63 Q827.357 1429.04 825.188 1431.35 Q823.019 1433.61 821.605 1435.92 L855.505 1435.92 Z" fill="#000000" fill-rule="nonzero" fill-opacity="1" /><path clip-path="url(#clip100)" d="M869.366 1444.08 L869.366 1434.42 L879.032 1434.42 L879.032 1444.08 L869.366 1444.08 Z" fill="#000000" fill-rule="nonzero" fill-opacity="1" /><path clip-path="url(#clip100)" d="M891.432 1425.98 L900.343 1425.22 Q901.333 1431.73 904.917 1435.03 Q908.547 1438.28 913.639 1438.28 Q919.768 1438.28 924.012 1433.66 Q928.255 1429.04 928.255 1421.4 Q928.255 1414.14 924.153 1409.95 Q920.098 1405.75 913.498 1405.75 Q909.396 1405.75 906.095 1407.64 Q902.795 1409.47 900.909 1412.44 L892.941 1411.41 L899.636 1375.9 L934.007 1375.9 L934.007 1384.01 L906.425 1384.01 L902.701 1402.59 Q908.924 1398.25 915.761 1398.25 Q924.813 1398.25 931.037 1404.52 Q937.261 1410.79 937.261 1420.65 Q937.261 1430.03 931.791 1436.87 Q925.143 1445.26 913.639 1445.26 Q904.209 1445.26 898.222 1439.98 Q892.281 1434.7 891.432 1425.98 Z" fill="#000000" fill-rule="nonzero" fill-opacity="1" /><path clip-path="url(#clip100)" d="M980.776 1458.81 Q980.776 1446.55 983.275 1439.1 Q985.821 1431.61 990.771 1427.55 Q995.769 1423.5 1003.31 1423.5 Q1008.88 1423.5 1013.07 1425.76 Q1017.27 1427.98 1020 1432.22 Q1022.74 1436.42 1024.29 1442.5 Q1025.85 1448.53 1025.85 1458.81 Q1025.85 1470.98 1023.35 1478.47 Q1020.85 1485.92 1015.85 1490.03 Q1010.9 1494.08 1003.31 1494.08 Q993.317 1494.08 987.612 1486.91 Q980.776 1478.29 980.776 1458.81 M989.498 1458.81 Q989.498 1475.83 993.459 1481.49 Q997.467 1487.1 1003.31 1487.1 Q1009.16 1487.1 1013.12 1481.44 Q1017.13 1475.79 1017.13 1458.81 Q1017.13 1441.75 1013.12 1436.13 Q1009.16 1430.52 1003.22 1430.52 Q997.372 1430.52 993.883 1435.47 Q989.498 1441.79 989.498 1458.81 Z" fill="#000000" fill-rule="nonzero" fill-opacity="1" /><path clip-path="url(#clip100)" d="M1039.24 1492.9 L1039.24 1483.24 L1048.91 1483.24 L1048.91 1492.9 L1039.24 1492.9 Z" fill="#000000" fill-rule="nonzero" fill-opacity="1" /><path clip-path="url(#clip100)" d="M1061.31 1458.81 Q1061.31 1446.55 1063.8 1439.1 Q1066.35 1431.61 1071.3 1427.55 Q1076.3 1423.5 1083.84 1423.5 Q1089.41 1423.5 1093.6 1425.76 Q1097.8 1427.98 1100.53 1432.22 Q1103.27 1436.42 1104.82 1442.5 Q1106.38 1448.53 1106.38 1458.81 Q1106.38 1470.98 1103.88 1478.47 Q1101.38 1485.92 1096.38 1490.03 Q1091.43 1494.08 1083.84 1494.08 Q1073.85 1494.08 1068.14 1486.91 Q1061.31 1478.29 1061.31 1458.81 M1070.03 1458.81 Q1070.03 1475.83 1073.99 1481.49 Q1078 1487.1 1083.84 1487.1 Q1089.69 1487.1 1093.65 1481.44 Q1097.66 1475.79 1097.66 1458.81 Q1097.66 1441.75 1093.65 1436.13 Q1089.69 1430.52 1083.75 1430.52 Q1077.9 1430.52 1074.41 1435.47 Q1070.03 1441.79 1070.03 1458.81 Z" fill="#000000" fill-rule="nonzero" fill-opacity="1" /><path clip-path="url(#clip100)" d="M1193.74 1533.57 L1193.74 1541.72 L1148.06 1541.72 Q1147.96 1538.66 1149.05 1535.83 Q1150.79 1531.16 1154.61 1526.63 Q1158.48 1522.11 1165.74 1516.17 Q1177.01 1506.93 1180.97 1501.55 Q1184.93 1496.13 1184.93 1491.32 Q1184.93 1486.28 1181.3 1482.83 Q1177.71 1479.34 1171.91 1479.34 Q1165.78 1479.34 1162.11 1483.02 Q1158.43 1486.7 1158.38 1493.21 L1149.66 1492.31 Q1150.56 1482.55 1156.4 1477.46 Q1162.25 1472.32 1172.1 1472.32 Q1182.05 1472.32 1187.85 1477.84 Q1193.65 1483.35 1193.65 1491.51 Q1193.65 1495.66 1191.95 1499.67 Q1190.25 1503.67 1186.29 1508.11 Q1182.38 1512.54 1173.23 1520.27 Q1165.6 1526.68 1163.43 1528.99 Q1161.26 1531.26 1159.84 1533.57 L1193.74 1533.57 Z" fill="#000000" fill-rule="nonzero" fill-opacity="1" /><path clip-path="url(#clip100)" d="M1207.61 1541.72 L1207.61 1532.06 L1217.27 1532.06 L1217.27 1541.72 L1207.61 1541.72 Z" fill="#000000" fill-rule="nonzero" fill-opacity="1" /><path clip-path="url(#clip100)" d="M1229.67 1523.62 L1238.58 1522.86 Q1239.57 1529.37 1243.16 1532.67 Q1246.79 1535.92 1251.88 1535.92 Q1258.01 1535.92 1262.25 1531.3 Q1266.49 1526.68 1266.49 1519.04 Q1266.49 1511.78 1262.39 1507.59 Q1258.34 1503.39 1251.74 1503.39 Q1247.63 1503.39 1244.33 1505.28 Q1241.03 1507.11 1239.15 1510.09 L1231.18 1509.05 L1237.87 1473.55 L1272.25 1473.55 L1272.25 1481.65 L1244.66 1481.65 L1240.94 1500.23 Q1247.16 1495.89 1254 1495.89 Q1263.05 1495.89 1269.28 1502.16 Q1275.5 1508.44 1275.5 1518.29 Q1275.5 1527.67 1270.03 1534.51 Q1263.38 1542.9 1251.88 1542.9 Q1242.45 1542.9 1236.46 1537.62 Q1230.52 1532.34 1229.67 1523.62 Z" fill="#000000" fill-rule="nonzero" fill-opacity="1" /><polyline clip-path="url(#clip100)" style="stroke:#000000; stroke-linecap:round; stroke-linejoin:round; stroke-width:4; stroke-opacity:1; fill:none" points="1448.74,1527.2 1899.8,1136.58 "/>
<polyline clip-path="url(#clip100)" style="stroke:#000000; stroke-linecap:round; stroke-linejoin:round; stroke-width:2; stroke-opacity:0.5; fill:none" points="667.487,520.42 1118.54,129.793 "/>
<polyline clip-path="url(#clip100)" style="stroke:#000000; stroke-linecap:round; stroke-linejoin:round; stroke-width:4; stroke-opacity:1; fill:none" points="1529.23,1457.5 1519.86,1454.79 "/>
<polyline clip-path="url(#clip100)" style="stroke:#000000; stroke-linecap:round; stroke-linejoin:round; stroke-width:4; stroke-opacity:1; fill:none" points="1613.23,1384.75 1603.86,1382.04 "/>
<polyline clip-path="url(#clip100)" style="stroke:#000000; stroke-linecap:round; stroke-linejoin:round; stroke-width:4; stroke-opacity:1; fill:none" points="1697.23,1312 1687.86,1309.3 "/>
<polyline clip-path="url(#clip100)" style="stroke:#000000; stroke-linecap:round; stroke-linejoin:round; stroke-width:4; stroke-opacity:1; fill:none" points="1781.23,1239.26 1771.86,1236.55 "/>
<polyline clip-path="url(#clip100)" style="stroke:#000000; stroke-linecap:round; stroke-linejoin:round; stroke-width:4; stroke-opacity:1; fill:none" points="1865.23,1166.51 1855.86,1163.8 "/>
<path clip-path="url(#clip100)" d="M1594.5 1483 L1548.86 1483 L1548.86 1475.08 L1594.5 1475.08 L1594.5 1483 Z" fill="#000000" fill-rule="nonzero" fill-opacity="1" /><path clip-path="url(#clip100)" d="M1631.09 1513.13 L1631.09 1496.58 L1601.1 1496.58 L1601.1 1488.8 L1632.64 1444.01 L1639.57 1444.01 L1639.57 1488.8 L1648.91 1488.8 L1648.91 1496.58 L1639.57 1496.58 L1639.57 1513.13 L1631.09 1513.13 M1631.09 1488.8 L1631.09 1457.64 L1609.45 1488.8 L1631.09 1488.8 Z" fill="#000000" fill-rule="nonzero" fill-opacity="1" /><path clip-path="url(#clip100)" d="M1678.5 1410.26 L1632.86 1410.26 L1632.86 1402.34 L1678.5 1402.34 L1678.5 1410.26 Z" fill="#000000" fill-rule="nonzero" fill-opacity="1" /><path clip-path="url(#clip100)" d="M1732.49 1432.23 L1732.49 1440.38 L1686.8 1440.38 Q1686.7 1437.32 1687.79 1434.49 Q1689.53 1429.82 1693.35 1425.3 Q1697.22 1420.77 1704.48 1414.83 Q1715.75 1405.59 1719.71 1400.21 Q1723.67 1394.79 1723.67 1389.98 Q1723.67 1384.94 1720.04 1381.5 Q1716.46 1378.01 1710.66 1378.01 Q1704.53 1378.01 1700.85 1381.68 Q1697.17 1385.36 1697.12 1391.87 L1688.4 1390.97 Q1689.3 1381.21 1695.14 1376.12 Q1700.99 1370.98 1710.84 1370.98 Q1720.79 1370.98 1726.59 1376.5 Q1732.39 1382.01 1732.39 1390.17 Q1732.39 1394.32 1730.69 1398.33 Q1729 1402.34 1725.04 1406.77 Q1721.12 1411.2 1711.98 1418.93 Q1704.34 1425.34 1702.17 1427.65 Q1700 1429.92 1698.59 1432.23 L1732.49 1432.23 Z" fill="#000000" fill-rule="nonzero" fill-opacity="1" /><path clip-path="url(#clip100)" d="M1716.86 1333.55 Q1716.86 1321.29 1719.36 1313.84 Q1721.91 1306.34 1726.86 1302.29 Q1731.85 1298.23 1739.4 1298.23 Q1744.96 1298.23 1749.16 1300.5 Q1753.35 1302.71 1756.09 1306.96 Q1758.82 1311.15 1760.38 1317.24 Q1761.94 1323.27 1761.94 1333.55 Q1761.94 1345.71 1759.44 1353.21 Q1756.94 1360.66 1751.94 1364.76 Q1746.99 1368.82 1739.4 1368.82 Q1729.4 1368.82 1723.7 1361.65 Q1716.86 1353.02 1716.86 1333.55 M1725.58 1333.55 Q1725.58 1350.57 1729.54 1356.23 Q1733.55 1361.84 1739.4 1361.84 Q1745.24 1361.84 1749.21 1356.18 Q1753.21 1350.52 1753.21 1333.55 Q1753.21 1316.48 1749.21 1310.87 Q1745.24 1305.26 1739.3 1305.26 Q1733.46 1305.26 1729.97 1310.21 Q1725.58 1316.53 1725.58 1333.55 Z" fill="#000000" fill-rule="nonzero" fill-opacity="1" /><path clip-path="url(#clip100)" d="M1846.64 1286.73 L1846.64 1294.89 L1800.96 1294.89 Q1800.86 1291.83 1801.95 1289 Q1803.69 1284.33 1807.51 1279.8 Q1811.38 1275.28 1818.64 1269.34 Q1829.91 1260.1 1833.87 1254.72 Q1837.83 1249.3 1837.83 1244.49 Q1837.83 1239.44 1834.2 1236 Q1830.61 1232.51 1824.81 1232.51 Q1818.68 1232.51 1815.01 1236.19 Q1811.33 1239.87 1811.28 1246.38 L1802.56 1245.48 Q1803.45 1235.72 1809.3 1230.63 Q1815.15 1225.49 1825 1225.49 Q1834.95 1225.49 1840.75 1231 Q1846.55 1236.52 1846.55 1244.68 Q1846.55 1248.83 1844.85 1252.83 Q1843.15 1256.84 1839.19 1261.27 Q1835.28 1265.71 1826.13 1273.44 Q1818.5 1279.85 1816.33 1282.16 Q1814.16 1284.42 1812.74 1286.73 L1846.64 1286.73 Z" fill="#000000" fill-rule="nonzero" fill-opacity="1" /><path clip-path="url(#clip100)" d="M1914.85 1222.14 L1914.85 1205.6 L1884.86 1205.6 L1884.86 1197.82 L1916.4 1153.02 L1923.34 1153.02 L1923.34 1197.82 L1932.67 1197.82 L1932.67 1205.6 L1923.34 1205.6 L1923.34 1222.14 L1914.85 1222.14 M1914.85 1197.82 L1914.85 1166.65 L1893.21 1197.82 L1914.85 1197.82 Z" fill="#000000" fill-rule="nonzero" fill-opacity="1" /><polyline clip-path="url(#clip100)" style="stroke:#000000; stroke-linecap:round; stroke-linejoin:round; stroke-width:4; stroke-opacity:1; fill:none" points="667.487,1301.67 667.487,520.42 "/>
<polyline clip-path="url(#clip100)" style="stroke:#000000; stroke-linecap:round; stroke-linejoin:round; stroke-width:2; stroke-opacity:0.5; fill:none" points="1899.8,1136.58 1899.8,355.322 "/>
<polyline clip-path="url(#clip100)" style="stroke:#000000; stroke-linecap:round; stroke-linejoin:round; stroke-width:4; stroke-opacity:1; fill:none" points="667.487,1251.88 672.9,1247.19 "/>
<polyline clip-path="url(#clip100)" style="stroke:#000000; stroke-linecap:round; stroke-linejoin:round; stroke-width:4; stroke-opacity:1; fill:none" points="667.487,1113.68 672.9,1108.99 "/>
<polyline clip-path="url(#clip100)" style="stroke:#000000; stroke-linecap:round; stroke-linejoin:round; stroke-width:4; stroke-opacity:1; fill:none" points="667.487,975.485 672.9,970.798 "/>
<polyline clip-path="url(#clip100)" style="stroke:#000000; stroke-linecap:round; stroke-linejoin:round; stroke-width:4; stroke-opacity:1; fill:none" points="667.487,837.288 672.9,832.601 "/>
<polyline clip-path="url(#clip100)" style="stroke:#000000; stroke-linecap:round; stroke-linejoin:round; stroke-width:4; stroke-opacity:1; fill:none" points="667.487,699.091 672.9,694.404 "/>
<polyline clip-path="url(#clip100)" style="stroke:#000000; stroke-linecap:round; stroke-linejoin:round; stroke-width:4; stroke-opacity:1; fill:none" points="667.487,560.894 672.9,556.207 "/>
<path clip-path="url(#clip100)" d="M570.793 1278.28 L570.793 1286.44 L525.106 1286.44 Q525.012 1283.37 526.096 1280.55 Q527.841 1275.88 531.66 1271.35 Q535.526 1266.83 542.787 1260.88 Q554.055 1251.64 558.016 1246.27 Q561.976 1240.85 561.976 1236.04 Q561.976 1230.99 558.346 1227.55 Q554.762 1224.06 548.963 1224.06 Q542.834 1224.06 539.156 1227.74 Q535.479 1231.42 535.431 1237.92 L526.709 1237.03 Q527.605 1227.27 533.451 1222.18 Q539.298 1217.04 549.152 1217.04 Q559.1 1217.04 564.899 1222.55 Q570.699 1228.07 570.699 1236.23 Q570.699 1240.37 569.001 1244.38 Q567.304 1248.39 563.344 1252.82 Q559.43 1257.25 550.283 1264.99 Q542.645 1271.4 540.476 1273.71 Q538.308 1275.97 536.893 1278.28 L570.793 1278.28 Z" fill="#000000" fill-rule="nonzero" fill-opacity="1" /><path clip-path="url(#clip100)" d="M584.655 1286.44 L584.655 1276.77 L594.32 1276.77 L594.32 1286.44 L584.655 1286.44 Z" fill="#000000" fill-rule="nonzero" fill-opacity="1" /><path clip-path="url(#clip100)" d="M638.687 1286.44 L630.2 1286.44 L630.2 1232.36 Q627.136 1235.28 622.138 1238.21 Q617.187 1241.13 613.227 1242.59 L613.227 1234.39 Q620.346 1231.04 625.674 1226.28 Q631.002 1221.52 633.218 1217.04 L638.687 1217.04 L638.687 1286.44 Z" fill="#000000" fill-rule="nonzero" fill-opacity="1" /><path clip-path="url(#clip100)" d="M558.157 1140.09 L558.157 1148.24 L512.47 1148.24 Q512.376 1145.18 513.46 1142.35 Q515.205 1137.68 519.024 1133.15 Q522.89 1128.63 530.151 1122.69 Q541.419 1113.45 545.38 1108.07 Q549.34 1102.65 549.34 1097.84 Q549.34 1092.8 545.71 1089.35 Q542.127 1085.86 536.327 1085.86 Q530.198 1085.86 526.52 1089.54 Q522.843 1093.22 522.796 1099.73 L514.073 1098.83 Q514.969 1089.07 520.815 1083.98 Q526.662 1078.84 536.516 1078.84 Q546.464 1078.84 552.264 1084.36 Q558.063 1089.87 558.063 1098.03 Q558.063 1102.18 556.366 1106.19 Q554.668 1110.19 550.708 1114.63 Q546.794 1119.06 537.647 1126.79 Q530.009 1133.2 527.841 1135.51 Q525.672 1137.78 524.257 1140.09 L558.157 1140.09 Z" fill="#000000" fill-rule="nonzero" fill-opacity="1" /><path clip-path="url(#clip100)" d="M572.019 1148.24 L572.019 1138.58 L581.684 1138.58 L581.684 1148.24 L572.019 1148.24 Z" fill="#000000" fill-rule="nonzero" fill-opacity="1" /><path clip-path="url(#clip100)" d="M638.687 1140.09 L638.687 1148.24 L593 1148.24 Q592.906 1145.18 593.99 1142.35 Q595.735 1137.68 599.554 1133.15 Q603.42 1128.63 610.681 1122.69 Q621.949 1113.45 625.91 1108.07 Q629.87 1102.65 629.87 1097.84 Q629.87 1092.8 626.24 1089.35 Q622.657 1085.86 616.857 1085.86 Q610.728 1085.86 607.05 1089.54 Q603.373 1093.22 603.326 1099.73 L594.603 1098.83 Q595.499 1089.07 601.345 1083.98 Q607.192 1078.84 617.046 1078.84 Q626.994 1078.84 632.794 1084.36 Q638.593 1089.87 638.593 1098.03 Q638.593 1102.18 636.895 1106.19 Q635.198 1110.19 631.238 1114.63 Q627.324 1119.06 618.177 1126.79 Q610.539 1133.2 608.371 1135.51 Q606.202 1137.78 604.787 1140.09 L638.687 1140.09 Z" fill="#000000" fill-rule="nonzero" fill-opacity="1" /><path clip-path="url(#clip100)" d="M557.45 1001.89 L557.45 1010.05 L511.763 1010.05 Q511.669 1006.98 512.753 1004.15 Q514.497 999.484 518.317 994.958 Q522.183 990.431 529.444 984.491 Q540.712 975.249 544.673 969.874 Q548.633 964.452 548.633 959.643 Q548.633 954.598 545.003 951.156 Q541.419 947.667 535.62 947.667 Q529.491 947.667 525.813 951.345 Q522.136 955.023 522.088 961.529 L513.366 960.633 Q514.262 950.874 520.108 945.781 Q525.955 940.642 535.809 940.642 Q545.757 940.642 551.556 946.159 Q557.356 951.675 557.356 959.832 Q557.356 963.981 555.658 967.989 Q553.961 971.996 550 976.428 Q546.087 980.86 536.94 988.592 Q529.302 995.005 527.133 997.315 Q524.964 999.578 523.55 1001.89 L557.45 1001.89 Z" fill="#000000" fill-rule="nonzero" fill-opacity="1" /><path clip-path="url(#clip100)" d="M571.312 1010.05 L571.312 1000.38 L580.977 1000.38 L580.977 1010.05 L571.312 1010.05 Z" fill="#000000" fill-rule="nonzero" fill-opacity="1" /><path clip-path="url(#clip100)" d="M593.424 991.799 L601.911 990.667 Q603.373 997.881 606.862 1001.09 Q610.398 1004.25 615.443 1004.25 Q621.431 1004.25 625.533 1000.1 Q629.682 995.948 629.682 989.818 Q629.682 983.972 625.863 980.2 Q622.044 976.381 616.15 976.381 Q613.745 976.381 610.162 977.324 L611.105 969.874 Q611.954 969.969 612.472 969.969 Q617.895 969.969 622.232 967.14 Q626.57 964.311 626.57 958.417 Q626.57 953.75 623.411 950.685 Q620.252 947.62 615.254 947.62 Q610.304 947.62 607.003 950.732 Q603.703 953.844 602.76 960.068 L594.273 958.559 Q595.829 950.025 601.345 945.357 Q606.862 940.642 615.066 940.642 Q620.723 940.642 625.486 943.094 Q630.248 945.499 632.746 949.695 Q635.292 953.891 635.292 958.606 Q635.292 963.085 632.888 966.763 Q630.483 970.44 625.768 972.609 Q631.898 974.024 635.292 978.503 Q638.687 982.935 638.687 989.63 Q638.687 998.682 632.086 1005 Q625.486 1011.27 615.396 1011.27 Q606.296 1011.27 600.261 1005.85 Q594.273 1000.43 593.424 991.799 Z" fill="#000000" fill-rule="nonzero" fill-opacity="1" /><path clip-path="url(#clip100)" d="M557.733 863.691 L557.733 871.848 L512.046 871.848 Q511.951 868.783 513.036 865.955 Q514.78 861.287 518.599 856.761 Q522.466 852.234 529.726 846.294 Q540.995 837.052 544.956 831.677 Q548.916 826.255 548.916 821.446 Q548.916 816.401 545.286 812.959 Q541.702 809.47 535.903 809.47 Q529.774 809.47 526.096 813.148 Q522.418 816.826 522.371 823.332 L513.649 822.436 Q514.545 812.676 520.391 807.584 Q526.237 802.445 536.092 802.445 Q546.04 802.445 551.839 807.962 Q557.639 813.478 557.639 821.635 Q557.639 825.784 555.941 829.791 Q554.244 833.799 550.283 838.231 Q546.37 842.663 537.223 850.395 Q529.585 856.808 527.416 859.118 Q525.247 861.381 523.833 863.691 L557.733 863.691 Z" fill="#000000" fill-rule="nonzero" fill-opacity="1" /><path clip-path="url(#clip100)" d="M571.595 871.848 L571.595 862.183 L581.26 862.183 L581.26 871.848 L571.595 871.848 Z" fill="#000000" fill-rule="nonzero" fill-opacity="1" /><path clip-path="url(#clip100)" d="M620.865 871.848 L620.865 855.299 L590.878 855.299 L590.878 847.519 L622.421 802.728 L629.352 802.728 L629.352 847.519 L638.687 847.519 L638.687 855.299 L629.352 855.299 L629.352 871.848 L620.865 871.848 M620.865 847.519 L620.865 816.354 L599.224 847.519 L620.865 847.519 Z" fill="#000000" fill-rule="nonzero" fill-opacity="1" /><path clip-path="url(#clip100)" d="M556.931 725.494 L556.931 733.651 L511.244 733.651 Q511.15 730.586 512.234 727.757 Q513.979 723.09 517.798 718.563 Q521.664 714.037 528.925 708.096 Q540.194 698.855 544.154 693.48 Q548.114 688.058 548.114 683.249 Q548.114 678.204 544.484 674.762 Q540.901 671.273 535.101 671.273 Q528.972 671.273 525.295 674.951 Q521.617 678.629 521.57 685.135 L512.847 684.239 Q513.743 674.479 519.59 669.387 Q525.436 664.248 535.29 664.248 Q545.238 664.248 551.038 669.765 Q556.837 675.281 556.837 683.438 Q556.837 687.587 555.14 691.594 Q553.442 695.602 549.482 700.034 Q545.568 704.466 536.422 712.198 Q528.784 718.611 526.615 720.921 Q524.446 723.184 523.031 725.494 L556.931 725.494 Z" fill="#000000" fill-rule="nonzero" fill-opacity="1" /><path clip-path="url(#clip100)" d="M570.793 733.651 L570.793 723.986 L580.458 723.986 L580.458 733.651 L570.793 733.651 Z" fill="#000000" fill-rule="nonzero" fill-opacity="1" /><path clip-path="url(#clip100)" d="M592.859 715.546 L601.77 714.792 Q602.76 721.298 606.343 724.599 Q609.974 727.852 615.066 727.852 Q621.195 727.852 625.438 723.231 Q629.682 718.611 629.682 710.973 Q629.682 703.712 625.58 699.515 Q621.525 695.319 614.924 695.319 Q610.822 695.319 607.522 697.205 Q604.221 699.044 602.335 702.014 L594.367 700.977 L601.062 665.474 L635.434 665.474 L635.434 673.584 L607.852 673.584 L604.127 692.16 Q610.351 687.823 617.187 687.823 Q626.24 687.823 632.464 694.093 Q638.687 700.364 638.687 710.218 Q638.687 719.601 633.218 726.437 Q626.57 734.83 615.066 734.83 Q605.636 734.83 599.648 729.549 Q593.707 724.268 592.859 715.546 Z" fill="#000000" fill-rule="nonzero" fill-opacity="1" /><path clip-path="url(#clip100)" d="M557.497 587.297 L557.497 595.454 L511.81 595.454 Q511.716 592.389 512.8 589.56 Q514.545 584.893 518.364 580.366 Q522.23 575.84 529.491 569.899 Q540.759 560.658 544.72 555.283 Q548.68 549.861 548.68 545.052 Q548.68 540.007 545.05 536.565 Q541.467 533.076 535.667 533.076 Q529.538 533.076 525.86 536.754 Q522.183 540.432 522.136 546.938 L513.413 546.042 Q514.309 536.282 520.155 531.19 Q526.002 526.051 535.856 526.051 Q545.804 526.051 551.603 531.568 Q557.403 537.084 557.403 545.241 Q557.403 549.39 555.705 553.397 Q554.008 557.405 550.048 561.837 Q546.134 566.269 536.987 574.001 Q529.349 580.414 527.18 582.724 Q525.012 584.987 523.597 587.297 L557.497 587.297 Z" fill="#000000" fill-rule="nonzero" fill-opacity="1" /><path clip-path="url(#clip100)" d="M571.359 595.454 L571.359 585.789 L581.024 585.789 L581.024 595.454 L571.359 595.454 Z" fill="#000000" fill-rule="nonzero" fill-opacity="1" /><path clip-path="url(#clip100)" d="M637.461 543.26 L629.022 543.921 Q627.89 538.923 625.816 536.66 Q622.374 533.029 617.329 533.029 Q613.274 533.029 610.209 535.292 Q606.202 538.216 603.891 543.826 Q601.581 549.437 601.487 559.81 Q604.551 555.142 608.983 552.879 Q613.415 550.616 618.272 550.616 Q626.759 550.616 632.699 556.886 Q638.687 563.11 638.687 573.011 Q638.687 579.518 635.858 585.128 Q633.076 590.692 628.173 593.662 Q623.27 596.633 617.046 596.633 Q606.437 596.633 599.742 588.853 Q593.047 581.027 593.047 563.11 Q593.047 543.072 600.45 533.972 Q606.909 526.051 617.847 526.051 Q626.004 526.051 631.191 530.625 Q636.424 535.198 637.461 543.26 M602.807 573.058 Q602.807 577.443 604.646 581.451 Q606.532 585.459 609.879 587.58 Q613.227 589.655 616.904 589.655 Q622.279 589.655 626.146 585.317 Q630.012 580.979 630.012 573.53 Q630.012 566.363 626.193 562.261 Q622.374 558.112 616.574 558.112 Q610.822 558.112 606.815 562.261 Q602.807 566.363 602.807 573.058 Z" fill="#000000" fill-rule="nonzero" fill-opacity="1" /><circle clip-path="url(#clip102)" cx="1191.86" cy="585.915" r="14.4" fill="#4477aa" fill-rule="evenodd" fill-opacity="1" stroke="#000000" stroke-opacity="1" stroke-width="3.6"/>
<circle clip-path="url(#clip102)" cx="1282.05" cy="952.27" r="14.4" fill="#4477aa" fill-rule="evenodd" fill-opacity="1" stroke="#000000" stroke-opacity="1" stroke-width="3.6"/>
<circle clip-path="url(#clip102)" cx="1238.34" cy="852.079" r="14.4" fill="#4477aa" fill-rule="evenodd" fill-opacity="1" stroke="#000000" stroke-opacity="1" stroke-width="3.6"/>
<circle clip-path="url(#clip102)" cx="1280.53" cy="1014.85" r="14.4" fill="#4477aa" fill-rule="evenodd" fill-opacity="1" stroke="#000000" stroke-opacity="1" stroke-width="3.6"/>
<circle clip-path="url(#clip102)" cx="1249.65" cy="935.796" r="14.4" fill="#4477aa" fill-rule="evenodd" fill-opacity="1" stroke="#000000" stroke-opacity="1" stroke-width="3.6"/>
<path clip-path="url(#clip102)" d="M1294.63 1220.91 L1294.63 1252.91 L1326.63 1252.91 L1326.63 1220.91 L1294.63 1220.91 Z" fill="#4477aa" fill-rule="evenodd" fill-opacity="1" stroke="#000000" stroke-opacity="1" stroke-width="3.6"/>
<circle clip-path="url(#clip102)" cx="1198.24" cy="643.585" r="14.4" fill="#4477aa" fill-rule="evenodd" fill-opacity="1" stroke="#000000" stroke-opacity="1" stroke-width="3.6"/>
<path clip-path="url(#clip102)" d="M1311.11 1199.9 L1311.11 1231.9 L1343.11 1231.9 L1343.11 1199.9 L1311.11 1199.9 Z" fill="#4477aa" fill-rule="evenodd" fill-opacity="1" stroke="#000000" stroke-opacity="1" stroke-width="3.6"/>
<circle clip-path="url(#clip102)" cx="1232.01" cy="801.119" r="14.4" fill="#4477aa" fill-rule="evenodd" fill-opacity="1" stroke="#000000" stroke-opacity="1" stroke-width="3.6"/>
<circle clip-path="url(#clip102)" cx="1239.11" cy="917.673" r="14.4" fill="#4477aa" fill-rule="evenodd" fill-opacity="1" stroke="#000000" stroke-opacity="1" stroke-width="3.6"/>
<circle clip-path="url(#clip102)" cx="1244.03" cy="803.416" r="14.4" fill="#4477aa" fill-rule="evenodd" fill-opacity="1" stroke="#000000" stroke-opacity="1" stroke-width="3.6"/>
<circle clip-path="url(#clip102)" cx="1203.63" cy="608.461" r="14.4" fill="#4477aa" fill-rule="evenodd" fill-opacity="1" stroke="#000000" stroke-opacity="1" stroke-width="3.6"/>
<circle clip-path="url(#clip102)" cx="1208.96" cy="737.918" r="14.4" fill="#4477aa" fill-rule="evenodd" fill-opacity="1" stroke="#000000" stroke-opacity="1" stroke-width="3.6"/>
<circle clip-path="url(#clip102)" cx="1300.29" cy="1051.02" r="14.4" fill="#4477aa" fill-rule="evenodd" fill-opacity="1" stroke="#000000" stroke-opacity="1" stroke-width="3.6"/>
<path clip-path="url(#clip102)" d="M1178.56 701.911 L1178.56 733.911 L1210.56 733.911 L1210.56 701.911 L1178.56 701.911 Z" fill="#4477aa" fill-rule="evenodd" fill-opacity="1" stroke="#000000" stroke-opacity="1" stroke-width="3.6"/>
<circle clip-path="url(#clip102)" cx="1260.43" cy="930.735" r="14.4" fill="#4477aa" fill-rule="evenodd" fill-opacity="1" stroke="#000000" stroke-opacity="1" stroke-width="3.6"/>
<circle clip-path="url(#clip102)" cx="1209.29" cy="765.04" r="14.4" fill="#4477aa" fill-rule="evenodd" fill-opacity="1" stroke="#000000" stroke-opacity="1" stroke-width="3.6"/>
<path clip-path="url(#clip102)" d="M1239.47 1037.36 L1239.47 1069.36 L1271.47 1069.36 L1271.47 1037.36 L1239.47 1037.36 Z" fill="#4477aa" fill-rule="evenodd" fill-opacity="1" stroke="#000000" stroke-opacity="1" stroke-width="3.6"/>
<circle clip-path="url(#clip102)" cx="1282.35" cy="867.309" r="14.4" fill="#4477aa" fill-rule="evenodd" fill-opacity="1" stroke="#000000" stroke-opacity="1" stroke-width="3.6"/>
<circle clip-path="url(#clip102)" cx="1270.86" cy="956.608" r="14.4" fill="#4477aa" fill-rule="evenodd" fill-opacity="1" stroke="#000000" stroke-opacity="1" stroke-width="3.6"/>
<circle clip-path="url(#clip102)" cx="1207.46" cy="735.321" r="14.4" fill="#4477aa" fill-rule="evenodd" fill-opacity="1" stroke="#000000" stroke-opacity="1" stroke-width="3.6"/>
<path clip-path="url(#clip102)" d="M1317.83 1180.75 L1317.83 1212.75 L1349.83 1212.75 L1349.83 1180.75 L1317.83 1180.75 Z" fill="#4477aa" fill-rule="evenodd" fill-opacity="1" stroke="#000000" stroke-opacity="1" stroke-width="3.6"/>
<circle clip-path="url(#clip102)" cx="1274.85" cy="850.34" r="14.4" fill="#4477aa" fill-rule="evenodd" fill-opacity="1" stroke="#000000" stroke-opacity="1" stroke-width="3.6"/>
<path clip-path="url(#clip102)" d="M1298.84 1186.23 L1298.84 1218.23 L1330.84 1218.23 L1330.84 1186.23 L1298.84 1186.23 Z" fill="#4477aa" fill-rule="evenodd" fill-opacity="1" stroke="#000000" stroke-opacity="1" stroke-width="3.6"/>
<circle clip-path="url(#clip102)" cx="1213.56" cy="604.477" r="14.4" fill="#4477aa" fill-rule="evenodd" fill-opacity="1" stroke="#000000" stroke-opacity="1" stroke-width="3.6"/>
<circle clip-path="url(#clip102)" cx="1225.14" cy="778.493" r="14.4" fill="#4477aa" fill-rule="evenodd" fill-opacity="1" stroke="#000000" stroke-opacity="1" stroke-width="3.6"/>
<path clip-path="url(#clip102)" d="M1182.33 822.348 L1182.33 854.348 L1214.33 854.348 L1214.33 822.348 L1182.33 822.348 Z" fill="#4477aa" fill-rule="evenodd" fill-opacity="1" stroke="#000000" stroke-opacity="1" stroke-width="3.6"/>
<circle clip-path="url(#clip102)" cx="1242.67" cy="902.369" r="14.4" fill="#4477aa" fill-rule="evenodd" fill-opacity="1" stroke="#000000" stroke-opacity="1" stroke-width="3.6"/>
<circle clip-path="url(#clip102)" cx="1202.74" cy="670.633" r="14.4" fill="#4477aa" fill-rule="evenodd" fill-opacity="1" stroke="#000000" stroke-opacity="1" stroke-width="3.6"/>
<circle clip-path="url(#clip102)" cx="1274.86" cy="850.614" r="14.4" fill="#4477aa" fill-rule="evenodd" fill-opacity="1" stroke="#000000" stroke-opacity="1" stroke-width="3.6"/>
<circle clip-path="url(#clip102)" cx="1293.46" cy="1059.55" r="14.4" fill="#4477aa" fill-rule="evenodd" fill-opacity="1" stroke="#000000" stroke-opacity="1" stroke-width="3.6"/>
<path clip-path="url(#clip102)" d="M1327.24 1256.8 L1327.24 1288.8 L1359.24 1288.8 L1359.24 1256.8 L1327.24 1256.8 Z" fill="#4477aa" fill-rule="evenodd" fill-opacity="1" stroke="#000000" stroke-opacity="1" stroke-width="3.6"/>
<circle clip-path="url(#clip102)" cx="1214.6" cy="733.624" r="14.4" fill="#4477aa" fill-rule="evenodd" fill-opacity="1" stroke="#000000" stroke-opacity="1" stroke-width="3.6"/>
<path clip-path="url(#clip102)" d="M1180.22 830.345 L1180.22 862.345 L1212.22 862.345 L1212.22 830.345 L1180.22 830.345 Z" fill="#4477aa" fill-rule="evenodd" fill-opacity="1" stroke="#000000" stroke-opacity="1" stroke-width="3.6"/>
<circle clip-path="url(#clip102)" cx="1211.41" cy="602.398" r="14.4" fill="#4477aa" fill-rule="evenodd" fill-opacity="1" stroke="#000000" stroke-opacity="1" stroke-width="3.6"/>
<path clip-path="url(#clip102)" d="M1221.23 977.475 L1221.23 1009.48 L1253.23 1009.48 L1253.23 977.475 L1221.23 977.475 Z" fill="#4477aa" fill-rule="evenodd" fill-opacity="1" stroke="#000000" stroke-opacity="1" stroke-width="3.6"/>
<path clip-path="url(#clip102)" d="M1141.82 490.586 L1141.82 522.586 L1173.82 522.586 L1173.82 490.586 L1141.82 490.586 Z" fill="#4477aa" fill-rule="evenodd" fill-opacity="1" stroke="#000000" stroke-opacity="1" stroke-width="3.6"/>
<circle clip-path="url(#clip102)" cx="1264.96" cy="897.262" r="14.4" fill="#4477aa" fill-rule="evenodd" fill-opacity="1" stroke="#000000" stroke-opacity="1" stroke-width="3.6"/>
<circle clip-path="url(#clip102)" cx="1271.22" cy="837.221" r="14.4" fill="#4477aa" fill-rule="evenodd" fill-opacity="1" stroke="#000000" stroke-opacity="1" stroke-width="3.6"/>
<circle clip-path="url(#clip102)" cx="1258.82" cy="962.768" r="14.4" fill="#4477aa" fill-rule="evenodd" fill-opacity="1" stroke="#000000" stroke-opacity="1" stroke-width="3.6"/>
<circle clip-path="url(#clip102)" cx="1259.07" cy="897.123" r="14.4" fill="#4477aa" fill-rule="evenodd" fill-opacity="1" stroke="#000000" stroke-opacity="1" stroke-width="3.6"/>
<circle clip-path="url(#clip102)" cx="1230.17" cy="718.592" r="14.4" fill="#4477aa" fill-rule="evenodd" fill-opacity="1" stroke="#000000" stroke-opacity="1" stroke-width="3.6"/>
<circle clip-path="url(#clip102)" cx="1287.38" cy="1025.23" r="14.4" fill="#4477aa" fill-rule="evenodd" fill-opacity="1" stroke="#000000" stroke-opacity="1" stroke-width="3.6"/>
<circle clip-path="url(#clip102)" cx="1228.09" cy="753.062" r="14.4" fill="#4477aa" fill-rule="evenodd" fill-opacity="1" stroke="#000000" stroke-opacity="1" stroke-width="3.6"/>
<path clip-path="url(#clip102)" d="M1347.54 1323.87 L1347.54 1355.87 L1379.54 1355.87 L1379.54 1323.87 L1347.54 1323.87 Z" fill="#4477aa" fill-rule="evenodd" fill-opacity="1" stroke="#000000" stroke-opacity="1" stroke-width="3.6"/>
<path clip-path="url(#clip102)" d="M1217.83 963.246 L1217.83 995.246 L1249.83 995.246 L1249.83 963.246 L1217.83 963.246 Z" fill="#4477aa" fill-rule="evenodd" fill-opacity="1" stroke="#000000" stroke-opacity="1" stroke-width="3.6"/>
<path clip-path="url(#clip102)" d="M1215.1 980.835 L1215.1 1012.83 L1247.1 1012.83 L1247.1 980.835 L1215.1 980.835 Z" fill="#4477aa" fill-rule="evenodd" fill-opacity="1" stroke="#000000" stroke-opacity="1" stroke-width="3.6"/>
<circle clip-path="url(#clip102)" cx="1249.47" cy="947.458" r="14.4" fill="#4477aa" fill-rule="evenodd" fill-opacity="1" stroke="#000000" stroke-opacity="1" stroke-width="3.6"/>
<circle clip-path="url(#clip102)" cx="1263.52" cy="847.468" r="14.4" fill="#4477aa" fill-rule="evenodd" fill-opacity="1" stroke="#000000" stroke-opacity="1" stroke-width="3.6"/>
<circle clip-path="url(#clip102)" cx="1203.52" cy="685.167" r="14.4" fill="#4477aa" fill-rule="evenodd" fill-opacity="1" stroke="#000000" stroke-opacity="1" stroke-width="3.6"/>
<path clip-path="url(#clip102)" d="M1299.05 1204.12 L1299.05 1236.12 L1331.05 1236.12 L1331.05 1204.12 L1299.05 1204.12 Z" fill="#4477aa" fill-rule="evenodd" fill-opacity="1" stroke="#000000" stroke-opacity="1" stroke-width="3.6"/>
<circle clip-path="url(#clip102)" cx="1295.68" cy="1058.21" r="14.4" fill="#4477aa" fill-rule="evenodd" fill-opacity="1" stroke="#000000" stroke-opacity="1" stroke-width="3.6"/>
<circle clip-path="url(#clip102)" cx="1198.46" cy="619.881" r="14.4" fill="#4477aa" fill-rule="evenodd" fill-opacity="1" stroke="#000000" stroke-opacity="1" stroke-width="3.6"/>
<circle clip-path="url(#clip102)" cx="1311.55" cy="1018.83" r="14.4" fill="#4477aa" fill-rule="evenodd" fill-opacity="1" stroke="#000000" stroke-opacity="1" stroke-width="3.6"/>
<circle clip-path="url(#clip102)" cx="1251.01" cy="880.163" r="14.4" fill="#4477aa" fill-rule="evenodd" fill-opacity="1" stroke="#000000" stroke-opacity="1" stroke-width="3.6"/>
<circle clip-path="url(#clip102)" cx="1264.65" cy="913.855" r="14.4" fill="#4477aa" fill-rule="evenodd" fill-opacity="1" stroke="#000000" stroke-opacity="1" stroke-width="3.6"/>
<circle clip-path="url(#clip102)" cx="1309.9" cy="1056.62" r="14.4" fill="#4477aa" fill-rule="evenodd" fill-opacity="1" stroke="#000000" stroke-opacity="1" stroke-width="3.6"/>
<circle clip-path="url(#clip102)" cx="1254.74" cy="909.888" r="14.4" fill="#4477aa" fill-rule="evenodd" fill-opacity="1" stroke="#000000" stroke-opacity="1" stroke-width="3.6"/>
<circle clip-path="url(#clip102)" cx="1192.87" cy="579.081" r="14.4" fill="#4477aa" fill-rule="evenodd" fill-opacity="1" stroke="#000000" stroke-opacity="1" stroke-width="3.6"/>
<path clip-path="url(#clip102)" d="M1173.38 717.636 L1173.38 749.636 L1205.38 749.636 L1205.38 717.636 L1173.38 717.636 Z" fill="#4477aa" fill-rule="evenodd" fill-opacity="1" stroke="#000000" stroke-opacity="1" stroke-width="3.6"/>
<circle clip-path="url(#clip102)" cx="1264.66" cy="898.772" r="14.4" fill="#4477aa" fill-rule="evenodd" fill-opacity="1" stroke="#000000" stroke-opacity="1" stroke-width="3.6"/>
<circle clip-path="url(#clip102)" cx="1267.88" cy="941.141" r="14.4" fill="#4477aa" fill-rule="evenodd" fill-opacity="1" stroke="#000000" stroke-opacity="1" stroke-width="3.6"/>
<circle clip-path="url(#clip102)" cx="1258.74" cy="882.447" r="14.4" fill="#4477aa" fill-rule="evenodd" fill-opacity="1" stroke="#000000" stroke-opacity="1" stroke-width="3.6"/>
<path clip-path="url(#clip102)" d="M1415.05 1459.07 L1415.05 1491.07 L1447.05 1491.07 L1447.05 1459.07 L1415.05 1459.07 Z" fill="#ee6677" fill-rule="evenodd" fill-opacity="1" stroke="#000000" stroke-opacity="1" stroke-width="3.6"/>
<path clip-path="url(#clip102)" d="M1137.43 238.86 L1137.43 270.86 L1169.43 270.86 L1169.43 238.86 L1137.43 238.86 Z" fill="#ee6677" fill-rule="evenodd" fill-opacity="1" stroke="#000000" stroke-opacity="1" stroke-width="3.6"/>
<path clip-path="url(#clip102)" d="M1355.15 1326.44 L1355.15 1358.44 L1387.15 1358.44 L1387.15 1326.44 L1355.15 1326.44 Z" fill="#ee6677" fill-rule="evenodd" fill-opacity="1" stroke="#000000" stroke-opacity="1" stroke-width="3.6"/>
<path clip-path="url(#clip102)" d="M1172.15 348.719 L1172.15 380.719 L1204.15 380.719 L1204.15 348.719 L1172.15 348.719 Z" fill="#ee6677" fill-rule="evenodd" fill-opacity="1" stroke="#000000" stroke-opacity="1" stroke-width="3.6"/>
<path clip-path="url(#clip102)" d="M1204.51 492.61 L1204.51 524.61 L1236.51 524.61 L1236.51 492.61 L1204.51 492.61 Z" fill="#ee6677" fill-rule="evenodd" fill-opacity="1" stroke="#000000" stroke-opacity="1" stroke-width="3.6"/>
<path clip-path="url(#clip102)" d="M1149.41 392.512 L1149.41 424.512 L1181.41 424.512 L1181.41 392.512 L1149.41 392.512 Z" fill="#ee6677" fill-rule="evenodd" fill-opacity="1" stroke="#000000" stroke-opacity="1" stroke-width="3.6"/>
<path clip-path="url(#clip102)" d="M1394.19 1372.2 L1394.19 1404.2 L1426.19 1404.2 L1426.19 1372.2 L1394.19 1372.2 Z" fill="#ee6677" fill-rule="evenodd" fill-opacity="1" stroke="#000000" stroke-opacity="1" stroke-width="3.6"/>
<path clip-path="url(#clip102)" d="M1111.89 206.325 L1111.89 238.325 L1143.89 238.325 L1143.89 206.325 L1111.89 206.325 Z" fill="#ee6677" fill-rule="evenodd" fill-opacity="1" stroke="#000000" stroke-opacity="1" stroke-width="3.6"/>
<path clip-path="url(#clip102)" d="M1364.13 1366.02 L1364.13 1398.02 L1396.13 1398.02 L1396.13 1366.02 L1364.13 1366.02 Z" fill="#ee6677" fill-rule="evenodd" fill-opacity="1" stroke="#000000" stroke-opacity="1" stroke-width="3.6"/>
<path clip-path="url(#clip102)" d="M1212.73 571.839 L1212.73 603.839 L1244.73 603.839 L1244.73 571.839 L1212.73 571.839 Z" fill="#ee6677" fill-rule="evenodd" fill-opacity="1" stroke="#000000" stroke-opacity="1" stroke-width="3.6"/>
<path clip-path="url(#clip102)" d="M1411.87 1246.11 L1411.87 1278.11 L1443.87 1278.11 L1443.87 1246.11 L1411.87 1246.11 Z" fill="#ee6677" fill-rule="evenodd" fill-opacity="1" stroke="#000000" stroke-opacity="1" stroke-width="3.6"/>
<path clip-path="url(#clip102)" d="M1127.55 338.625 L1127.55 370.625 L1159.55 370.625 L1159.55 338.625 L1127.55 338.625 Z" fill="#ee6677" fill-rule="evenodd" fill-opacity="1" stroke="#000000" stroke-opacity="1" stroke-width="3.6"/>
<path clip-path="url(#clip102)" d="M1415.7 1318.67 L1415.7 1350.67 L1447.7 1350.67 L1447.7 1318.67 L1415.7 1318.67 Z" fill="#ee6677" fill-rule="evenodd" fill-opacity="1" stroke="#000000" stroke-opacity="1" stroke-width="3.6"/>
<circle clip-path="url(#clip102)" cx="1315.19" cy="997.866" r="14.4" fill="#ee6677" fill-rule="evenodd" fill-opacity="1" stroke="#000000" stroke-opacity="1" stroke-width="3.6"/>
<path clip-path="url(#clip102)" d="M1333.39 1017.64 L1333.39 1049.64 L1365.39 1049.64 L1365.39 1017.64 L1333.39 1017.64 Z" fill="#ee6677" fill-rule="evenodd" fill-opacity="1" stroke="#000000" stroke-opacity="1" stroke-width="3.6"/>
<path clip-path="url(#clip102)" d="M1361.25 1161.84 L1361.25 1193.84 L1393.25 1193.84 L1393.25 1161.84 L1361.25 1161.84 Z" fill="#ee6677" fill-rule="evenodd" fill-opacity="1" stroke="#000000" stroke-opacity="1" stroke-width="3.6"/>
<circle clip-path="url(#clip102)" cx="1197.95" cy="550.543" r="14.4" fill="#ee6677" fill-rule="evenodd" fill-opacity="1" stroke="#000000" stroke-opacity="1" stroke-width="3.6"/>
<path clip-path="url(#clip102)" d="M1127.03 209.759 L1127.03 241.759 L1159.03 241.759 L1159.03 209.759 L1127.03 209.759 Z" fill="#ee6677" fill-rule="evenodd" fill-opacity="1" stroke="#000000" stroke-opacity="1" stroke-width="3.6"/>
<path clip-path="url(#clip102)" d="M1396.12 1191.32 L1396.12 1223.32 L1428.12 1223.32 L1428.12 1191.32 L1396.12 1191.32 Z" fill="#ee6677" fill-rule="evenodd" fill-opacity="1" stroke="#000000" stroke-opacity="1" stroke-width="3.6"/>
<path clip-path="url(#clip102)" d="M1125.85 195.04 L1125.85 227.04 L1157.85 227.04 L1157.85 195.04 L1125.85 195.04 Z" fill="#ee6677" fill-rule="evenodd" fill-opacity="1" stroke="#000000" stroke-opacity="1" stroke-width="3.6"/>
<path clip-path="url(#clip102)" d="M1349.26 1282.97 L1349.26 1314.97 L1381.26 1314.97 L1381.26 1282.97 L1349.26 1282.97 Z" fill="#ee6677" fill-rule="evenodd" fill-opacity="1" stroke="#000000" stroke-opacity="1" stroke-width="3.6"/>
<path clip-path="url(#clip102)" d="M1381.99 1395.54 L1381.99 1427.54 L1413.99 1427.54 L1413.99 1395.54 L1381.99 1395.54 Z" fill="#ee6677" fill-rule="evenodd" fill-opacity="1" stroke="#000000" stroke-opacity="1" stroke-width="3.6"/>
<path clip-path="url(#clip102)" d="M1152.6 272.564 L1152.6 304.564 L1184.6 304.564 L1184.6 272.564 L1152.6 272.564 Z" fill="#ee6677" fill-rule="evenodd" fill-opacity="1" stroke="#000000" stroke-opacity="1" stroke-width="3.6"/>
<path clip-path="url(#clip102)" d="M1144.4 425.207 L1144.4 457.207 L1176.4 457.207 L1176.4 425.207 L1144.4 425.207 Z" fill="#ee6677" fill-rule="evenodd" fill-opacity="1" stroke="#000000" stroke-opacity="1" stroke-width="3.6"/>
<path clip-path="url(#clip102)" d="M1167.8 323.484 L1167.8 355.484 L1199.8 355.484 L1199.8 323.484 L1167.8 323.484 Z" fill="#ee6677" fill-rule="evenodd" fill-opacity="1" stroke="#000000" stroke-opacity="1" stroke-width="3.6"/>
<circle clip-path="url(#clip102)" cx="1190.47" cy="539.058" r="14.4" fill="#ee6677" fill-rule="evenodd" fill-opacity="1" stroke="#000000" stroke-opacity="1" stroke-width="3.6"/>
<path clip-path="url(#clip102)" d="M1130.76 230.271 L1130.76 262.271 L1162.76 262.271 L1162.76 230.271 L1130.76 230.271 Z" fill="#ee6677" fill-rule="evenodd" fill-opacity="1" stroke="#000000" stroke-opacity="1" stroke-width="3.6"/>
<path clip-path="url(#clip102)" d="M1405.22 1458.33 L1405.22 1490.33 L1437.22 1490.33 L1437.22 1458.33 L1405.22 1458.33 Z" fill="#ee6677" fill-rule="evenodd" fill-opacity="1" stroke="#000000" stroke-opacity="1" stroke-width="3.6"/>
<path clip-path="url(#clip102)" d="M1278.51 750.32 L1278.51 782.32 L1310.51 782.32 L1310.51 750.32 L1278.51 750.32 Z" fill="#ee6677" fill-rule="evenodd" fill-opacity="1" stroke="#000000" stroke-opacity="1" stroke-width="3.6"/>
<path clip-path="url(#clip102)" d="M1423.4 1392.15 L1423.4 1424.15 L1455.4 1424.15 L1455.4 1392.15 L1423.4 1392.15 Z" fill="#ee6677" fill-rule="evenodd" fill-opacity="1" stroke="#000000" stroke-opacity="1" stroke-width="3.6"/>
<path clip-path="url(#clip102)" d="M1196.15 501.709 L1196.15 533.709 L1228.15 533.709 L1228.15 501.709 L1196.15 501.709 Z" fill="#ee6677" fill-rule="evenodd" fill-opacity="1" stroke="#000000" stroke-opacity="1" stroke-width="3.6"/>
<path clip-path="url(#clip102)" d="M1154.14 232.742 L1154.14 264.742 L1186.14 264.742 L1186.14 232.742 L1154.14 232.742 Z" fill="#ee6677" fill-rule="evenodd" fill-opacity="1" stroke="#000000" stroke-opacity="1" stroke-width="3.6"/>
<path clip-path="url(#clip102)" d="M1374.31 1151.29 L1374.31 1183.29 L1406.31 1183.29 L1406.31 1151.29 L1374.31 1151.29 Z" fill="#ee6677" fill-rule="evenodd" fill-opacity="1" stroke="#000000" stroke-opacity="1" stroke-width="3.6"/>
<path clip-path="url(#clip102)" d="M1353.19 1010.49 L1353.19 1042.49 L1385.19 1042.49 L1385.19 1010.49 L1353.19 1010.49 Z" fill="#ee6677" fill-rule="evenodd" fill-opacity="1" stroke="#000000" stroke-opacity="1" stroke-width="3.6"/>
<circle clip-path="url(#clip102)" cx="1313.69" cy="993.988" r="14.4" fill="#ee6677" fill-rule="evenodd" fill-opacity="1" stroke="#000000" stroke-opacity="1" stroke-width="3.6"/>
<path clip-path="url(#clip102)" d="M1136.22 461.584 L1136.22 493.584 L1168.22 493.584 L1168.22 461.584 L1136.22 461.584 Z" fill="#ee6677" fill-rule="evenodd" fill-opacity="1" stroke="#000000" stroke-opacity="1" stroke-width="3.6"/>
<path clip-path="url(#clip102)" d="M1135.92 391.506 L1135.92 423.506 L1167.92 423.506 L1167.92 391.506 L1135.92 391.506 Z" fill="#ee6677" fill-rule="evenodd" fill-opacity="1" stroke="#000000" stroke-opacity="1" stroke-width="3.6"/>
<path clip-path="url(#clip102)" d="M1398.37 1340.34 L1398.37 1372.34 L1430.37 1372.34 L1430.37 1340.34 L1398.37 1340.34 Z" fill="#ee6677" fill-rule="evenodd" fill-opacity="1" stroke="#000000" stroke-opacity="1" stroke-width="3.6"/>
<path clip-path="url(#clip100)" d="M1926.35 449.248 L2281.48 449.248 L2281.48 99.3277 L1926.35 99.3277  Z" fill="#ffffff" fill-rule="evenodd" fill-opacity="1"/>
<polyline clip-path="url(#clip100)" style="stroke:#000000; stroke-linecap:round; stroke-linejoin:round; stroke-width:4; stroke-opacity:1; fill:none" points="1926.35,449.248 2281.48,449.248 2281.48,99.3277 1926.35,99.3277 1926.35,449.248 "/>
<circle clip-path="url(#clip100)" cx="2021.39" cy="215.968" r="46.08" fill="#4477aa" fill-rule="evenodd" fill-opacity="1" stroke="#000000" stroke-opacity="1" stroke-width="11.52"/>
<path clip-path="url(#clip100)" d="M2116.42 216.498 Q2116.42 202.707 2119.23 194.326 Q2122.09 185.893 2127.66 181.331 Q2133.29 176.769 2141.77 176.769 Q2148.03 176.769 2152.75 179.315 Q2157.47 181.808 2160.55 186.582 Q2163.63 191.303 2165.38 198.145 Q2167.13 204.935 2167.13 216.498 Q2167.13 230.183 2164.32 238.617 Q2161.5 246.997 2155.88 251.612 Q2150.31 256.174 2141.77 256.174 Q2130.53 256.174 2124.11 248.111 Q2116.42 238.405 2116.42 216.498 M2126.23 216.498 Q2126.23 235.646 2130.69 242.011 Q2135.2 248.323 2141.77 248.323 Q2148.35 248.323 2152.81 241.958 Q2157.31 235.593 2157.31 216.498 Q2157.31 197.297 2152.81 190.985 Q2148.35 184.673 2141.67 184.673 Q2135.09 184.673 2131.16 190.242 Q2126.23 197.35 2126.23 216.498 Z" fill="#000000" fill-rule="nonzero" fill-opacity="1" /><path clip-path="url(#clip100)" d="M2182.19 254.848 L2182.19 243.974 L2193.07 243.974 L2193.07 254.848 L2182.19 254.848 Z" fill="#000000" fill-rule="nonzero" fill-opacity="1" /><path clip-path="url(#clip100)" d="M2207.02 216.498 Q2207.02 202.707 2209.83 194.326 Q2212.69 185.893 2218.26 181.331 Q2223.88 176.769 2232.37 176.769 Q2238.63 176.769 2243.35 179.315 Q2248.07 181.808 2251.15 186.582 Q2254.22 191.303 2255.97 198.145 Q2257.72 204.935 2257.72 216.498 Q2257.72 230.183 2254.91 238.617 Q2252.1 246.997 2246.48 251.612 Q2240.91 256.174 2232.37 256.174 Q2221.12 256.174 2214.71 248.111 Q2207.02 238.405 2207.02 216.498 M2216.83 216.498 Q2216.83 235.646 2221.28 242.011 Q2225.79 248.323 2232.37 248.323 Q2238.95 248.323 2243.4 241.958 Q2247.91 235.593 2247.91 216.498 Q2247.91 197.297 2243.4 190.985 Q2238.95 184.673 2232.26 184.673 Q2225.69 184.673 2221.76 190.242 Q2216.83 197.35 2216.83 216.498 Z" fill="#000000" fill-rule="nonzero" fill-opacity="1" /><path clip-path="url(#clip100)" d="M1970.19 281.408 L1970.19 383.808 L2072.59 383.808 L2072.59 281.408 L1970.19 281.408 Z" fill="#ee6677" fill-rule="evenodd" fill-opacity="1" stroke="#000000" stroke-opacity="1" stroke-width="11.52"/>
<path clip-path="url(#clip100)" d="M2145.06 371.488 L2135.51 371.488 L2135.51 310.648 Q2132.07 313.937 2126.44 317.225 Q2120.87 320.514 2116.42 322.158 L2116.42 312.929 Q2124.43 309.163 2130.42 303.806 Q2136.42 298.448 2138.91 293.409 L2145.06 293.409 L2145.06 371.488 Z" fill="#000000" fill-rule="nonzero" fill-opacity="1" /><path clip-path="url(#clip100)" d="M2174.87 371.488 L2174.87 360.614 L2185.75 360.614 L2185.75 371.488 L2174.87 371.488 Z" fill="#000000" fill-rule="nonzero" fill-opacity="1" /><path clip-path="url(#clip100)" d="M2199.7 333.138 Q2199.7 319.347 2202.51 310.966 Q2205.37 302.533 2210.94 297.971 Q2216.56 293.409 2225.05 293.409 Q2231.31 293.409 2236.03 295.955 Q2240.75 298.448 2243.83 303.222 Q2246.9 307.943 2248.65 314.785 Q2250.4 321.575 2250.4 333.138 Q2250.4 346.823 2247.59 355.257 Q2244.78 363.637 2239.16 368.252 Q2233.59 372.814 2225.05 372.814 Q2213.8 372.814 2207.39 364.751 Q2199.7 355.045 2199.7 333.138 M2209.51 333.138 Q2209.51 352.286 2213.96 358.651 Q2218.47 364.963 2225.05 364.963 Q2231.63 364.963 2236.08 358.598 Q2240.59 352.233 2240.59 333.138 Q2240.59 313.937 2236.08 307.625 Q2231.63 301.313 2224.94 301.313 Q2218.37 301.313 2214.44 306.882 Q2209.51 313.99 2209.51 333.138 Z" fill="#000000" fill-rule="nonzero" fill-opacity="1" /></svg>
