<?xml version="1.0" encoding="utf-8"?>
<svg xmlns="http://www.w3.org/2000/svg" xmlns:xlink="http://www.w3.org/1999/xlink" width="600" height="450" viewBox="0 0 2400 1800">
<defs>
  <clipPath id="clip100">
    <rect x="0" y="0" width="2400" height="1800"/>
  </clipPath>
</defs>
<path clip-path="url(#clip100)" d="M0 1800 L2400 1800 L2400 0 L0 0  Z" fill="#ffffff" fill-rule="evenodd" fill-opacity="1"/>
<defs>
  <clipPath id="clip101">
    <rect x="480" y="0" width="1681" height="1681"/>
  </clipPath>
</defs>
<defs>
  <clipPath id="clip102">
    <rect x="267" y="47" width="2087" height="1564"/>
  </clipPath>
</defs>
<path clip-path="url(#clip102)" d="M653.092 1267.37 L653.092 493.449 L1104.42 106.49 L1886.14 329.901 L1886.14 1103.82 L1434.81 1490.78 L653.092 1267.37  Z" fill="#ffffff" fill-rule="evenodd" fill-opacity="1"/>
<polyline clip-path="url(#clip100)" style="stroke:#000000; stroke-linecap:round; stroke-linejoin:round; stroke-width:4; stroke-opacity:1; fill:none" points="693.749,1301.67 1475,1527.2 "/>
<polyline clip-path="url(#clip100)" style="stroke:#000000; stroke-linecap:round; stroke-linejoin:round; stroke-width:2; stroke-opacity:0.5; fill:none" points="1144.81,129.793 1926.06,355.322 "/>
<polyline clip-path="url(#clip100)" style="stroke:#000000; stroke-linecap:round; stroke-linejoin:round; stroke-width:4; stroke-opacity:1; fill:none" points="873.855,1353.67 879.267,1348.98 "/>
<polyline clip-path="url(#clip100)" style="stroke:#000000; stroke-linecap:round; stroke-linejoin:round; stroke-width:4; stroke-opacity:1; fill:none" points="1069.29,1410.08 1074.7,1405.39 "/>
<polyline clip-path="url(#clip100)" style="stroke:#000000; stroke-linecap:round; stroke-linejoin:round; stroke-width:4; stroke-opacity:1; fill:none" points="1264.72,1466.5 1270.13,1461.81 "/>
<polyline clip-path="url(#clip100)" style="stroke:#000000; stroke-linecap:round; stroke-linejoin:round; stroke-width:4; stroke-opacity:1; fill:none" points="1460.15,1522.91 1465.56,1518.23 "/>
<path clip-path="url(#clip100)" d="M730.2 1385.79 L684.56 1385.79 L684.56 1377.87 L730.2 1377.87 L730.2 1385.79 Z" fill="#000000" fill-rule="nonzero" fill-opacity="1" /><path clip-path="url(#clip100)" d="M739.582 1381.83 Q739.582 1369.57 742.081 1362.12 Q744.627 1354.62 749.578 1350.57 Q754.576 1346.51 762.119 1346.51 Q767.683 1346.51 771.879 1348.78 Q776.075 1350.99 778.81 1355.24 Q781.545 1359.43 783.1 1365.52 Q784.656 1371.55 784.656 1381.83 Q784.656 1393.99 782.157 1401.49 Q779.659 1408.94 774.661 1413.04 Q769.71 1417.1 762.119 1417.1 Q752.124 1417.1 746.419 1409.93 Q739.582 1401.3 739.582 1381.83 M748.305 1381.83 Q748.305 1398.85 752.265 1404.51 Q756.273 1410.12 762.119 1410.12 Q767.966 1410.12 771.926 1404.46 Q775.934 1398.8 775.934 1381.83 Q775.934 1364.76 771.926 1359.15 Q767.966 1353.54 762.025 1353.54 Q756.179 1353.54 752.69 1358.49 Q748.305 1364.81 748.305 1381.83 Z" fill="#000000" fill-rule="nonzero" fill-opacity="1" /><path clip-path="url(#clip100)" d="M798.047 1415.92 L798.047 1406.25 L807.712 1406.25 L807.712 1415.92 L798.047 1415.92 Z" fill="#000000" fill-rule="nonzero" fill-opacity="1" /><path clip-path="url(#clip100)" d="M820.112 1397.81 L829.023 1397.06 Q830.013 1403.56 833.597 1406.86 Q837.227 1410.12 842.319 1410.12 Q848.449 1410.12 852.692 1405.5 Q856.935 1400.88 856.935 1393.24 Q856.935 1385.98 852.833 1381.78 Q848.779 1377.59 842.178 1377.59 Q838.076 1377.59 834.775 1379.47 Q831.475 1381.31 829.589 1384.28 L821.621 1383.24 L828.316 1347.74 L862.687 1347.74 L862.687 1355.85 L835.105 1355.85 L831.381 1374.43 Q837.604 1370.09 844.441 1370.09 Q853.493 1370.09 859.717 1376.36 Q865.941 1382.63 865.941 1392.48 Q865.941 1401.87 860.471 1408.7 Q853.824 1417.1 842.319 1417.1 Q832.89 1417.1 826.902 1411.82 Q820.961 1406.53 820.112 1397.81 Z" fill="#000000" fill-rule="nonzero" fill-opacity="1" /><path clip-path="url(#clip100)" d="M935.767 1438.24 Q935.767 1425.99 938.266 1418.54 Q940.812 1411.04 945.763 1406.99 Q950.76 1402.93 958.304 1402.93 Q963.868 1402.93 968.064 1405.19 Q972.26 1407.41 974.995 1411.65 Q977.729 1415.85 979.285 1421.93 Q980.841 1427.97 980.841 1438.24 Q980.841 1450.41 978.342 1457.91 Q975.843 1465.36 970.846 1469.46 Q965.895 1473.51 958.304 1473.51 Q948.309 1473.51 942.604 1466.35 Q935.767 1457.72 935.767 1438.24 M944.49 1438.24 Q944.49 1455.27 948.45 1460.92 Q952.458 1466.53 958.304 1466.53 Q964.151 1466.53 968.111 1460.88 Q972.119 1455.22 972.119 1438.24 Q972.119 1421.18 968.111 1415.57 Q964.151 1409.96 958.21 1409.96 Q952.363 1409.96 948.874 1414.91 Q944.49 1421.22 944.49 1438.24 Z" fill="#000000" fill-rule="nonzero" fill-opacity="1" /><path clip-path="url(#clip100)" d="M994.231 1472.33 L994.231 1462.67 L1003.9 1462.67 L1003.9 1472.33 L994.231 1472.33 Z" fill="#000000" fill-rule="nonzero" fill-opacity="1" /><path clip-path="url(#clip100)" d="M1016.3 1438.24 Q1016.3 1425.99 1018.8 1418.54 Q1021.34 1411.04 1026.29 1406.99 Q1031.29 1402.93 1038.83 1402.93 Q1044.4 1402.93 1048.59 1405.19 Q1052.79 1407.41 1055.52 1411.65 Q1058.26 1415.85 1059.82 1421.93 Q1061.37 1427.97 1061.37 1438.24 Q1061.37 1450.41 1058.87 1457.91 Q1056.37 1465.36 1051.38 1469.46 Q1046.43 1473.51 1038.83 1473.51 Q1028.84 1473.51 1023.13 1466.35 Q1016.3 1457.72 1016.3 1438.24 M1025.02 1438.24 Q1025.02 1455.27 1028.98 1460.92 Q1032.99 1466.53 1038.83 1466.53 Q1044.68 1466.53 1048.64 1460.88 Q1052.65 1455.22 1052.65 1438.24 Q1052.65 1421.18 1048.64 1415.57 Q1044.68 1409.96 1038.74 1409.96 Q1032.89 1409.96 1029.4 1414.91 Q1025.02 1421.22 1025.02 1438.24 Z" fill="#000000" fill-rule="nonzero" fill-opacity="1" /><path clip-path="url(#clip100)" d="M1130.44 1494.66 Q1130.44 1482.4 1132.94 1474.95 Q1135.49 1467.46 1140.44 1463.4 Q1145.44 1459.35 1152.98 1459.35 Q1158.54 1459.35 1162.74 1461.61 Q1166.94 1463.83 1169.67 1468.07 Q1172.41 1472.27 1173.96 1478.35 Q1175.52 1484.38 1175.52 1494.66 Q1175.52 1506.83 1173.02 1514.32 Q1170.52 1521.77 1165.52 1525.87 Q1160.57 1529.93 1152.98 1529.93 Q1142.98 1529.93 1137.28 1522.76 Q1130.44 1514.13 1130.44 1494.66 M1139.17 1494.66 Q1139.17 1511.68 1143.13 1517.34 Q1147.13 1522.95 1152.98 1522.95 Q1158.83 1522.95 1162.79 1517.29 Q1166.79 1511.63 1166.79 1494.66 Q1166.79 1477.59 1162.79 1471.98 Q1158.83 1466.37 1152.89 1466.37 Q1147.04 1466.37 1143.55 1471.32 Q1139.17 1477.64 1139.17 1494.66 Z" fill="#000000" fill-rule="nonzero" fill-opacity="1" /><path clip-path="url(#clip100)" d="M1188.91 1528.75 L1188.91 1519.08 L1198.57 1519.08 L1198.57 1528.75 L1188.91 1528.75 Z" fill="#000000" fill-rule="nonzero" fill-opacity="1" /><path clip-path="url(#clip100)" d="M1210.97 1510.64 L1219.88 1509.89 Q1220.87 1516.4 1224.46 1519.7 Q1228.09 1522.95 1233.18 1522.95 Q1239.31 1522.95 1243.55 1518.33 Q1247.8 1513.71 1247.8 1506.07 Q1247.8 1498.81 1243.69 1494.61 Q1239.64 1490.42 1233.04 1490.42 Q1228.94 1490.42 1225.64 1492.3 Q1222.34 1494.14 1220.45 1497.11 L1212.48 1496.08 L1219.18 1460.57 L1253.55 1460.57 L1253.55 1468.68 L1225.97 1468.68 L1222.24 1487.26 Q1228.47 1482.92 1235.3 1482.92 Q1244.35 1482.92 1250.58 1489.19 Q1256.8 1495.46 1256.8 1505.32 Q1256.8 1514.7 1251.33 1521.54 Q1244.68 1529.93 1233.18 1529.93 Q1223.75 1529.93 1217.76 1524.65 Q1211.82 1519.37 1210.97 1510.64 Z" fill="#000000" fill-rule="nonzero" fill-opacity="1" /><path clip-path="url(#clip100)" d="M1358.59 1585.17 L1350.11 1585.17 L1350.11 1531.09 Q1347.04 1534.01 1342.05 1536.93 Q1337.09 1539.86 1333.13 1541.32 L1333.13 1533.11 Q1340.25 1529.77 1345.58 1525 Q1350.91 1520.24 1353.13 1515.76 L1358.59 1515.76 L1358.59 1585.17 Z" fill="#000000" fill-rule="nonzero" fill-opacity="1" /><path clip-path="url(#clip100)" d="M1385.09 1585.17 L1385.09 1575.5 L1394.76 1575.5 L1394.76 1585.17 L1385.09 1585.17 Z" fill="#000000" fill-rule="nonzero" fill-opacity="1" /><path clip-path="url(#clip100)" d="M1407.16 1551.08 Q1407.16 1538.82 1409.66 1531.37 Q1412.2 1523.87 1417.15 1519.82 Q1422.15 1515.76 1429.7 1515.76 Q1435.26 1515.76 1439.45 1518.03 Q1443.65 1520.24 1446.39 1524.48 Q1449.12 1528.68 1450.68 1534.76 Q1452.23 1540.8 1452.23 1551.08 Q1452.23 1563.24 1449.73 1570.74 Q1447.23 1578.19 1442.24 1582.29 Q1437.29 1586.34 1429.7 1586.34 Q1419.7 1586.34 1413.99 1579.18 Q1407.16 1570.55 1407.16 1551.08 M1415.88 1551.08 Q1415.88 1568.1 1419.84 1573.76 Q1423.85 1579.37 1429.7 1579.37 Q1435.54 1579.37 1439.5 1573.71 Q1443.51 1568.05 1443.51 1551.08 Q1443.51 1534.01 1439.5 1528.4 Q1435.54 1522.79 1429.6 1522.79 Q1423.75 1522.79 1420.27 1527.74 Q1415.88 1534.06 1415.88 1551.08 Z" fill="#000000" fill-rule="nonzero" fill-opacity="1" /><polyline clip-path="url(#clip100)" style="stroke:#000000; stroke-linecap:round; stroke-linejoin:round; stroke-width:4; stroke-opacity:1; fill:none" points="1475,1527.2 1926.06,1136.58 "/>
<polyline clip-path="url(#clip100)" style="stroke:#000000; stroke-linecap:round; stroke-linejoin:round; stroke-width:2; stroke-opacity:0.5; fill:none" points="693.749,520.42 1144.81,129.793 "/>
<polyline clip-path="url(#clip100)" style="stroke:#000000; stroke-linecap:round; stroke-linejoin:round; stroke-width:4; stroke-opacity:1; fill:none" points="1485.74,1517.9 1476.37,1515.2 "/>
<polyline clip-path="url(#clip100)" style="stroke:#000000; stroke-linecap:round; stroke-linejoin:round; stroke-width:4; stroke-opacity:1; fill:none" points="1597.45,1421.16 1588.07,1418.46 "/>
<polyline clip-path="url(#clip100)" style="stroke:#000000; stroke-linecap:round; stroke-linejoin:round; stroke-width:4; stroke-opacity:1; fill:none" points="1709.15,1324.42 1699.78,1321.72 "/>
<polyline clip-path="url(#clip100)" style="stroke:#000000; stroke-linecap:round; stroke-linejoin:round; stroke-width:4; stroke-opacity:1; fill:none" points="1820.86,1227.68 1811.48,1224.98 "/>
<path clip-path="url(#clip100)" d="M1550.13 1544.2 L1504.49 1544.2 L1504.49 1536.28 L1550.13 1536.28 L1550.13 1544.2 Z" fill="#000000" fill-rule="nonzero" fill-opacity="1" /><path clip-path="url(#clip100)" d="M1591.48 1574.33 L1582.99 1574.33 L1582.99 1520.25 Q1579.93 1523.17 1574.93 1526.09 Q1569.98 1529.02 1566.02 1530.48 L1566.02 1522.27 Q1573.14 1518.93 1578.46 1514.16 Q1583.79 1509.4 1586.01 1504.92 L1591.48 1504.92 L1591.48 1574.33 Z" fill="#000000" fill-rule="nonzero" fill-opacity="1" /><path clip-path="url(#clip100)" d="M1617.97 1574.33 L1617.97 1564.66 L1627.64 1564.66 L1627.64 1574.33 L1617.97 1574.33 Z" fill="#000000" fill-rule="nonzero" fill-opacity="1" /><path clip-path="url(#clip100)" d="M1640.04 1540.24 Q1640.04 1527.98 1642.54 1520.53 Q1645.09 1513.03 1650.04 1508.98 Q1655.03 1504.92 1662.58 1504.92 Q1668.14 1504.92 1672.34 1507.19 Q1676.53 1509.4 1679.27 1513.65 Q1682 1517.84 1683.56 1523.92 Q1685.11 1529.96 1685.11 1540.24 Q1685.11 1552.4 1682.62 1559.9 Q1680.12 1567.35 1675.12 1571.45 Q1670.17 1575.51 1662.58 1575.51 Q1652.58 1575.51 1646.88 1568.34 Q1640.04 1559.71 1640.04 1540.24 M1648.76 1540.24 Q1648.76 1557.26 1652.72 1562.92 Q1656.73 1568.53 1662.58 1568.53 Q1668.42 1568.53 1672.38 1562.87 Q1676.39 1557.21 1676.39 1540.24 Q1676.39 1523.17 1672.38 1517.56 Q1668.42 1511.95 1662.48 1511.95 Q1656.64 1511.95 1653.15 1516.9 Q1648.76 1523.22 1648.76 1540.24 Z" fill="#000000" fill-rule="nonzero" fill-opacity="1" /><path clip-path="url(#clip100)" d="M1661.83 1447.46 L1616.19 1447.46 L1616.19 1439.54 L1661.83 1439.54 L1661.83 1447.46 Z" fill="#000000" fill-rule="nonzero" fill-opacity="1" /><path clip-path="url(#clip100)" d="M1671.22 1443.5 Q1671.22 1431.24 1673.71 1423.79 Q1676.26 1416.29 1681.21 1412.24 Q1686.21 1408.18 1693.75 1408.18 Q1699.32 1408.18 1703.51 1410.45 Q1707.71 1412.66 1710.44 1416.91 Q1713.18 1421.1 1714.73 1427.18 Q1716.29 1433.22 1716.29 1443.5 Q1716.29 1455.66 1713.79 1463.16 Q1711.29 1470.61 1706.29 1474.71 Q1701.34 1478.77 1693.75 1478.77 Q1683.76 1478.77 1678.05 1471.6 Q1671.22 1462.97 1671.22 1443.5 M1679.94 1443.5 Q1679.94 1460.52 1683.9 1466.18 Q1687.91 1471.79 1693.75 1471.79 Q1699.6 1471.79 1703.56 1466.13 Q1707.57 1460.47 1707.57 1443.5 Q1707.57 1426.43 1703.56 1420.82 Q1699.6 1415.21 1693.66 1415.21 Q1687.81 1415.21 1684.32 1420.16 Q1679.94 1426.48 1679.94 1443.5 Z" fill="#000000" fill-rule="nonzero" fill-opacity="1" /><path clip-path="url(#clip100)" d="M1729.68 1477.59 L1729.68 1467.92 L1739.35 1467.92 L1739.35 1477.59 L1729.68 1477.59 Z" fill="#000000" fill-rule="nonzero" fill-opacity="1" /><path clip-path="url(#clip100)" d="M1751.75 1459.48 L1760.66 1458.73 Q1761.65 1465.23 1765.23 1468.53 Q1768.86 1471.79 1773.95 1471.79 Q1780.08 1471.79 1784.33 1467.17 Q1788.57 1462.55 1788.57 1454.91 Q1788.57 1447.65 1784.47 1443.45 Q1780.41 1439.25 1773.81 1439.25 Q1769.71 1439.25 1766.41 1441.14 Q1763.11 1442.98 1761.22 1445.95 L1753.25 1444.91 L1759.95 1409.41 L1794.32 1409.41 L1794.32 1417.52 L1766.74 1417.52 L1763.01 1436.1 Q1769.24 1431.76 1776.07 1431.76 Q1785.13 1431.76 1791.35 1438.03 Q1797.57 1444.3 1797.57 1454.15 Q1797.57 1463.54 1792.1 1470.37 Q1785.46 1478.77 1773.95 1478.77 Q1764.52 1478.77 1758.53 1473.48 Q1752.59 1468.2 1751.75 1459.48 Z" fill="#000000" fill-rule="nonzero" fill-opacity="1" /><path clip-path="url(#clip100)" d="M1727.9 1346.76 Q1727.9 1334.5 1730.4 1327.05 Q1732.94 1319.55 1737.89 1315.5 Q1742.89 1311.44 1750.44 1311.44 Q1756 1311.44 1760.2 1313.71 Q1764.39 1315.92 1767.13 1320.17 Q1769.86 1324.36 1771.42 1330.45 Q1772.97 1336.48 1772.97 1346.76 Q1772.97 1358.92 1770.47 1366.42 Q1767.97 1373.87 1762.98 1377.97 Q1758.03 1382.03 1750.44 1382.03 Q1740.44 1382.03 1734.73 1374.86 Q1727.9 1366.23 1727.9 1346.76 M1736.62 1346.76 Q1736.62 1363.78 1740.58 1369.44 Q1744.59 1375.05 1750.44 1375.05 Q1756.28 1375.05 1760.24 1369.39 Q1764.25 1363.73 1764.25 1346.76 Q1764.25 1329.69 1760.24 1324.08 Q1756.28 1318.47 1750.34 1318.47 Q1744.49 1318.47 1741.01 1323.42 Q1736.62 1329.74 1736.62 1346.76 Z" fill="#000000" fill-rule="nonzero" fill-opacity="1" /><path clip-path="url(#clip100)" d="M1786.36 1380.85 L1786.36 1371.18 L1796.03 1371.18 L1796.03 1380.85 L1786.36 1380.85 Z" fill="#000000" fill-rule="nonzero" fill-opacity="1" /><path clip-path="url(#clip100)" d="M1808.43 1346.76 Q1808.43 1334.5 1810.93 1327.05 Q1813.47 1319.55 1818.42 1315.5 Q1823.42 1311.44 1830.97 1311.44 Q1836.53 1311.44 1840.73 1313.71 Q1844.92 1315.92 1847.66 1320.17 Q1850.39 1324.36 1851.95 1330.45 Q1853.5 1336.48 1853.5 1346.76 Q1853.5 1358.92 1851 1366.42 Q1848.5 1373.87 1843.51 1377.97 Q1838.56 1382.03 1830.97 1382.03 Q1820.97 1382.03 1815.26 1374.86 Q1808.43 1366.23 1808.43 1346.76 M1817.15 1346.76 Q1817.15 1363.78 1821.11 1369.44 Q1825.12 1375.05 1830.97 1375.05 Q1836.81 1375.05 1840.77 1369.39 Q1844.78 1363.73 1844.78 1346.76 Q1844.78 1329.69 1840.77 1324.08 Q1836.81 1318.47 1830.87 1318.47 Q1825.02 1318.47 1821.54 1323.42 Q1817.15 1329.74 1817.15 1346.76 Z" fill="#000000" fill-rule="nonzero" fill-opacity="1" /><path clip-path="url(#clip100)" d="M1839.6 1250.02 Q1839.6 1237.76 1842.1 1230.31 Q1844.65 1222.81 1849.6 1218.76 Q1854.6 1214.7 1862.14 1214.7 Q1867.7 1214.7 1871.9 1216.97 Q1876.1 1219.18 1878.83 1223.43 Q1881.57 1227.62 1883.12 1233.71 Q1884.68 1239.74 1884.68 1250.02 Q1884.68 1262.18 1882.18 1269.68 Q1879.68 1277.13 1874.68 1281.23 Q1869.73 1285.29 1862.14 1285.29 Q1852.15 1285.29 1846.44 1278.12 Q1839.6 1269.49 1839.6 1250.02 M1848.33 1250.02 Q1848.33 1267.04 1852.29 1272.7 Q1856.29 1278.31 1862.14 1278.31 Q1867.99 1278.31 1871.95 1272.65 Q1875.96 1266.99 1875.96 1250.02 Q1875.96 1232.95 1871.95 1227.34 Q1867.99 1221.73 1862.05 1221.73 Q1856.2 1221.73 1852.71 1226.68 Q1848.33 1233 1848.33 1250.02 Z" fill="#000000" fill-rule="nonzero" fill-opacity="1" /><path clip-path="url(#clip100)" d="M1898.07 1284.11 L1898.07 1274.44 L1907.73 1274.44 L1907.73 1284.11 L1898.07 1284.11 Z" fill="#000000" fill-rule="nonzero" fill-opacity="1" /><path clip-path="url(#clip100)" d="M1920.13 1266 L1929.04 1265.25 Q1930.03 1271.75 1933.62 1275.05 Q1937.25 1278.31 1942.34 1278.31 Q1948.47 1278.31 1952.71 1273.69 Q1956.96 1269.07 1956.96 1261.43 Q1956.96 1254.17 1952.85 1249.97 Q1948.8 1245.78 1942.2 1245.78 Q1938.1 1245.78 1934.8 1247.66 Q1931.5 1249.5 1929.61 1252.47 L1921.64 1251.43 L1928.34 1215.93 L1962.71 1215.93 L1962.71 1224.04 L1935.13 1224.04 L1931.4 1242.62 Q1937.63 1238.28 1944.46 1238.28 Q1953.51 1238.28 1959.74 1244.55 Q1965.96 1250.82 1965.96 1260.67 Q1965.96 1270.06 1960.49 1276.89 Q1953.84 1285.29 1942.34 1285.29 Q1932.91 1285.29 1926.92 1280.01 Q1920.98 1274.72 1920.13 1266 Z" fill="#000000" fill-rule="nonzero" fill-opacity="1" /><polyline clip-path="url(#clip100)" style="stroke:#000000; stroke-linecap:round; stroke-linejoin:round; stroke-width:4; stroke-opacity:1; fill:none" points="693.749,1301.67 693.749,520.42 "/>
<polyline clip-path="url(#clip100)" style="stroke:#000000; stroke-linecap:round; stroke-linejoin:round; stroke-width:2; stroke-opacity:0.5; fill:none" points="1926.06,1136.58 1926.06,355.322 "/>
<polyline clip-path="url(#clip100)" style="stroke:#000000; stroke-linecap:round; stroke-linejoin:round; stroke-width:4; stroke-opacity:1; fill:none" points="693.749,1242.71 699.162,1238.02 "/>
<polyline clip-path="url(#clip100)" style="stroke:#000000; stroke-linecap:round; stroke-linejoin:round; stroke-width:4; stroke-opacity:1; fill:none" points="693.749,1058.45 699.162,1053.77 "/>
<polyline clip-path="url(#clip100)" style="stroke:#000000; stroke-linecap:round; stroke-linejoin:round; stroke-width:4; stroke-opacity:1; fill:none" points="693.749,874.196 699.162,869.508 "/>
<polyline clip-path="url(#clip100)" style="stroke:#000000; stroke-linecap:round; stroke-linejoin:round; stroke-width:4; stroke-opacity:1; fill:none" points="693.749,689.938 699.162,685.25 "/>
<path clip-path="url(#clip100)" d="M484.888 1243.18 Q484.888 1230.92 487.387 1223.47 Q489.933 1215.98 494.884 1211.92 Q499.881 1207.87 507.425 1207.87 Q512.989 1207.87 517.185 1210.13 Q521.381 1212.35 524.116 1216.59 Q526.85 1220.79 528.406 1226.87 Q529.962 1232.9 529.962 1243.18 Q529.962 1255.35 527.463 1262.84 Q524.964 1270.29 519.967 1274.4 Q515.016 1278.45 507.425 1278.45 Q497.43 1278.45 491.725 1271.28 Q484.888 1262.66 484.888 1243.18 M493.611 1243.18 Q493.611 1260.2 497.571 1265.86 Q501.579 1271.47 507.425 1271.47 Q513.272 1271.47 517.232 1265.81 Q521.24 1260.16 521.24 1243.18 Q521.24 1226.12 517.232 1220.5 Q513.272 1214.89 507.331 1214.89 Q501.484 1214.89 497.995 1219.84 Q493.611 1226.16 493.611 1243.18 Z" fill="#000000" fill-rule="nonzero" fill-opacity="1" /><path clip-path="url(#clip100)" d="M543.352 1277.27 L543.352 1267.61 L553.018 1267.61 L553.018 1277.27 L543.352 1277.27 Z" fill="#000000" fill-rule="nonzero" fill-opacity="1" /><path clip-path="url(#clip100)" d="M610.021 1269.11 L610.021 1277.27 L564.334 1277.27 Q564.239 1274.21 565.324 1271.38 Q567.068 1266.71 570.887 1262.18 Q574.754 1257.66 582.014 1251.72 Q593.283 1242.48 597.243 1237.1 Q601.204 1231.68 601.204 1226.87 Q601.204 1221.82 597.573 1218.38 Q593.99 1214.89 588.191 1214.89 Q582.062 1214.89 578.384 1218.57 Q574.706 1222.25 574.659 1228.76 L565.937 1227.86 Q566.833 1218.1 572.679 1213.01 Q578.525 1207.87 588.379 1207.87 Q598.328 1207.87 604.127 1213.39 Q609.926 1218.9 609.926 1227.06 Q609.926 1231.21 608.229 1235.21 Q606.532 1239.22 602.571 1243.65 Q598.658 1248.09 589.511 1255.82 Q581.873 1262.23 579.704 1264.54 Q577.535 1266.8 576.121 1269.11 L610.021 1269.11 Z" fill="#000000" fill-rule="nonzero" fill-opacity="1" /><path clip-path="url(#clip100)" d="M619.12 1259.17 L628.032 1258.41 Q629.022 1264.92 632.605 1268.22 Q636.235 1271.47 641.327 1271.47 Q647.457 1271.47 651.7 1266.85 Q655.944 1262.23 655.944 1254.59 Q655.944 1247.33 651.842 1243.14 Q647.787 1238.94 641.186 1238.94 Q637.084 1238.94 633.784 1240.83 Q630.483 1242.66 628.597 1245.63 L620.629 1244.6 L627.324 1209.09 L661.696 1209.09 L661.696 1217.2 L634.114 1217.2 L630.389 1235.78 Q636.613 1231.44 643.449 1231.44 Q652.502 1231.44 658.725 1237.71 Q664.949 1243.98 664.949 1253.84 Q664.949 1263.22 659.48 1270.06 Q652.832 1278.45 641.327 1278.45 Q631.898 1278.45 625.91 1273.17 Q619.969 1267.89 619.12 1259.17 Z" fill="#000000" fill-rule="nonzero" fill-opacity="1" /><path clip-path="url(#clip100)" d="M485.642 1058.93 Q485.642 1046.67 488.141 1039.22 Q490.687 1031.72 495.638 1027.67 Q500.636 1023.61 508.18 1023.61 Q513.743 1023.61 517.939 1025.87 Q522.136 1028.09 524.87 1032.33 Q527.605 1036.53 529.161 1042.61 Q530.717 1048.65 530.717 1058.93 Q530.717 1071.09 528.218 1078.59 Q525.719 1086.04 520.721 1090.14 Q515.77 1094.19 508.18 1094.19 Q498.184 1094.19 492.479 1087.03 Q485.642 1078.4 485.642 1058.93 M494.365 1058.93 Q494.365 1075.95 498.325 1081.6 Q502.333 1087.21 508.18 1087.21 Q514.026 1087.21 517.986 1081.56 Q521.994 1075.9 521.994 1058.93 Q521.994 1041.86 517.986 1036.25 Q514.026 1030.64 508.085 1030.64 Q502.239 1030.64 498.75 1035.59 Q494.365 1041.9 494.365 1058.93 Z" fill="#000000" fill-rule="nonzero" fill-opacity="1" /><path clip-path="url(#clip100)" d="M544.107 1093.01 L544.107 1083.35 L553.772 1083.35 L553.772 1093.01 L544.107 1093.01 Z" fill="#000000" fill-rule="nonzero" fill-opacity="1" /><path clip-path="url(#clip100)" d="M566.172 1074.91 L575.084 1074.15 Q576.074 1080.66 579.657 1083.96 Q583.287 1087.21 588.379 1087.21 Q594.509 1087.21 598.752 1082.59 Q602.996 1077.97 602.996 1070.33 Q602.996 1063.07 598.894 1058.88 Q594.839 1054.68 588.238 1054.68 Q584.136 1054.68 580.836 1056.57 Q577.535 1058.41 575.649 1061.38 L567.681 1060.34 L574.376 1024.84 L608.748 1024.84 L608.748 1032.95 L581.166 1032.95 L577.441 1051.52 Q583.665 1047.18 590.501 1047.18 Q599.554 1047.18 605.777 1053.46 Q612.001 1059.73 612.001 1069.58 Q612.001 1078.96 606.532 1085.8 Q599.884 1094.19 588.379 1094.19 Q578.95 1094.19 572.962 1088.91 Q567.021 1083.63 566.172 1074.91 Z" fill="#000000" fill-rule="nonzero" fill-opacity="1" /><path clip-path="url(#clip100)" d="M619.875 1058.93 Q619.875 1046.67 622.374 1039.22 Q624.92 1031.72 629.87 1027.67 Q634.868 1023.61 642.412 1023.61 Q647.975 1023.61 652.172 1025.87 Q656.368 1028.09 659.103 1032.33 Q661.837 1036.53 663.393 1042.61 Q664.949 1048.65 664.949 1058.93 Q664.949 1071.09 662.45 1078.59 Q659.951 1086.04 654.953 1090.14 Q650.003 1094.19 642.412 1094.19 Q632.416 1094.19 626.711 1087.03 Q619.875 1078.4 619.875 1058.93 M628.597 1058.93 Q628.597 1075.95 632.558 1081.6 Q636.565 1087.21 642.412 1087.21 Q648.258 1087.21 652.219 1081.56 Q656.226 1075.9 656.226 1058.93 Q656.226 1041.86 652.219 1036.25 Q648.258 1030.64 642.318 1030.64 Q636.471 1030.64 632.982 1035.59 Q628.597 1041.9 628.597 1058.93 Z" fill="#000000" fill-rule="nonzero" fill-opacity="1" /><path clip-path="url(#clip100)" d="M484.888 874.667 Q484.888 862.408 487.387 854.959 Q489.933 847.462 494.884 843.407 Q499.881 839.353 507.425 839.353 Q512.989 839.353 517.185 841.616 Q521.381 843.832 524.116 848.075 Q526.85 852.271 528.406 858.354 Q529.962 864.389 529.962 874.667 Q529.962 886.831 527.463 894.328 Q524.964 901.778 519.967 905.879 Q515.016 909.934 507.425 909.934 Q497.43 909.934 491.725 902.768 Q484.888 894.139 484.888 874.667 M493.611 874.667 Q493.611 891.688 497.571 897.346 Q501.579 902.956 507.425 902.956 Q513.272 902.956 517.232 897.298 Q521.24 891.641 521.24 874.667 Q521.24 857.599 517.232 851.988 Q513.272 846.378 507.331 846.378 Q501.484 846.378 497.995 851.328 Q493.611 857.646 493.611 874.667 Z" fill="#000000" fill-rule="nonzero" fill-opacity="1" /><path clip-path="url(#clip100)" d="M543.352 908.756 L543.352 899.09 L553.018 899.09 L553.018 908.756 L543.352 908.756 Z" fill="#000000" fill-rule="nonzero" fill-opacity="1" /><path clip-path="url(#clip100)" d="M565.984 848.688 L565.984 840.531 L610.728 840.531 L610.728 847.132 Q604.127 854.157 597.621 865.803 Q591.161 877.449 587.625 889.755 Q585.079 898.43 584.372 908.756 L575.649 908.756 Q575.791 900.599 578.855 889.047 Q581.92 877.496 587.625 866.793 Q593.377 856.043 599.837 848.688 L565.984 848.688 Z" fill="#000000" fill-rule="nonzero" fill-opacity="1" /><path clip-path="url(#clip100)" d="M619.12 890.65 L628.032 889.896 Q629.022 896.403 632.605 899.703 Q636.235 902.956 641.327 902.956 Q647.457 902.956 651.7 898.336 Q655.944 893.715 655.944 886.077 Q655.944 878.816 651.842 874.62 Q647.787 870.424 641.186 870.424 Q637.084 870.424 633.784 872.31 Q630.483 874.148 628.597 877.119 L620.629 876.081 L627.324 840.579 L661.696 840.579 L661.696 848.688 L634.114 848.688 L630.389 867.265 Q636.613 862.927 643.449 862.927 Q652.502 862.927 658.725 869.198 Q664.949 875.469 664.949 885.323 Q664.949 894.705 659.48 901.542 Q652.832 909.934 641.327 909.934 Q631.898 909.934 625.91 904.654 Q619.969 899.373 619.12 890.65 Z" fill="#000000" fill-rule="nonzero" fill-opacity="1" /><path clip-path="url(#clip100)" d="M517.609 724.498 L509.123 724.498 L509.123 670.418 Q506.058 673.341 501.06 676.264 Q496.109 679.188 492.149 680.649 L492.149 672.445 Q499.268 669.098 504.596 664.336 Q509.924 659.574 512.14 655.095 L517.609 655.095 L517.609 724.498 Z" fill="#000000" fill-rule="nonzero" fill-opacity="1" /><path clip-path="url(#clip100)" d="M544.107 724.498 L544.107 714.832 L553.772 714.832 L553.772 724.498 L544.107 724.498 Z" fill="#000000" fill-rule="nonzero" fill-opacity="1" /><path clip-path="url(#clip100)" d="M566.172 690.409 Q566.172 678.15 568.671 670.701 Q571.217 663.204 576.168 659.149 Q581.166 655.095 588.71 655.095 Q594.273 655.095 598.469 657.358 Q602.666 659.574 605.4 663.817 Q608.135 668.013 609.691 674.096 Q611.247 680.131 611.247 690.409 Q611.247 702.573 608.748 710.07 Q606.249 717.52 601.251 721.621 Q596.3 725.676 588.71 725.676 Q578.714 725.676 573.009 718.51 Q566.172 709.881 566.172 690.409 M574.895 690.409 Q574.895 707.43 578.855 713.088 Q582.863 718.698 588.71 718.698 Q594.556 718.698 598.516 713.04 Q602.524 707.383 602.524 690.409 Q602.524 673.341 598.516 667.731 Q594.556 662.12 588.615 662.12 Q582.769 662.12 579.28 667.07 Q574.895 673.388 574.895 690.409 Z" fill="#000000" fill-rule="nonzero" fill-opacity="1" /><path clip-path="url(#clip100)" d="M619.875 690.409 Q619.875 678.15 622.374 670.701 Q624.92 663.204 629.87 659.149 Q634.868 655.095 642.412 655.095 Q647.975 655.095 652.172 657.358 Q656.368 659.574 659.103 663.817 Q661.837 668.013 663.393 674.096 Q664.949 680.131 664.949 690.409 Q664.949 702.573 662.45 710.07 Q659.951 717.52 654.953 721.621 Q650.003 725.676 642.412 725.676 Q632.416 725.676 626.711 718.51 Q619.875 709.881 619.875 690.409 M628.597 690.409 Q628.597 707.43 632.558 713.088 Q636.565 718.698 642.412 718.698 Q648.258 718.698 652.219 713.04 Q656.226 707.383 656.226 690.409 Q656.226 673.341 652.219 667.731 Q648.258 662.12 642.318 662.12 Q636.471 662.12 632.982 667.07 Q628.597 673.388 628.597 690.409 Z" fill="#000000" fill-rule="nonzero" fill-opacity="1" /><circle clip-path="url(#clip102)" cx="1428.39" cy="1131.2" r="14.4" fill="#4477aa" fill-rule="evenodd" fill-opacity="1" stroke="#000000" stroke-opacity="1" stroke-width="3.6"/>
<circle clip-path="url(#clip102)" cx="1227.87" cy="1207.66" r="14.4" fill="#4477aa" fill-rule="evenodd" fill-opacity="1" stroke="#000000" stroke-opacity="1" stroke-width="3.6"/>
<circle clip-path="url(#clip102)" cx="1272.92" cy="1162.9" r="14.4" fill="#4477aa" fill-rule="evenodd" fill-opacity="1" stroke="#000000" stroke-opacity="1" stroke-width="3.6"/>
<circle clip-path="url(#clip102)" cx="1167.23" cy="1155.29" r="14.4" fill="#4477aa" fill-rule="evenodd" fill-opacity="1" stroke="#000000" stroke-opacity="1" stroke-width="3.6"/>
<circle clip-path="url(#clip102)" cx="1208.8" cy="1134.67" r="14.4" fill="#4477aa" fill-rule="evenodd" fill-opacity="1" stroke="#000000" stroke-opacity="1" stroke-width="3.6"/>
<circle clip-path="url(#clip102)" cx="1387.83" cy="1123.87" r="14.4" fill="#4477aa" fill-rule="evenodd" fill-opacity="1" stroke="#000000" stroke-opacity="1" stroke-width="3.6"/>
<circle clip-path="url(#clip102)" cx="1310.92" cy="1178.11" r="14.4" fill="#4477aa" fill-rule="evenodd" fill-opacity="1" stroke="#000000" stroke-opacity="1" stroke-width="3.6"/>
<circle clip-path="url(#clip102)" cx="1212.22" cy="1114.99" r="14.4" fill="#4477aa" fill-rule="evenodd" fill-opacity="1" stroke="#000000" stroke-opacity="1" stroke-width="3.6"/>
<circle clip-path="url(#clip102)" cx="1325.94" cy="1217.53" r="14.4" fill="#4477aa" fill-rule="evenodd" fill-opacity="1" stroke="#000000" stroke-opacity="1" stroke-width="3.6"/>
<circle clip-path="url(#clip102)" cx="1431.2" cy="1176.81" r="14.4" fill="#4477aa" fill-rule="evenodd" fill-opacity="1" stroke="#000000" stroke-opacity="1" stroke-width="3.6"/>
<circle clip-path="url(#clip102)" cx="1324.41" cy="1115.35" r="14.4" fill="#4477aa" fill-rule="evenodd" fill-opacity="1" stroke="#000000" stroke-opacity="1" stroke-width="3.6"/>
<circle clip-path="url(#clip102)" cx="1151.39" cy="1175.12" r="14.4" fill="#4477aa" fill-rule="evenodd" fill-opacity="1" stroke="#000000" stroke-opacity="1" stroke-width="3.6"/>
<circle clip-path="url(#clip102)" cx="1226.37" cy="1169.77" r="14.4" fill="#4477aa" fill-rule="evenodd" fill-opacity="1" stroke="#000000" stroke-opacity="1" stroke-width="3.6"/>
<circle clip-path="url(#clip102)" cx="1300.51" cy="1098.34" r="14.4" fill="#4477aa" fill-rule="evenodd" fill-opacity="1" stroke="#000000" stroke-opacity="1" stroke-width="3.6"/>
<circle clip-path="url(#clip102)" cx="1308.88" cy="1274.27" r="14.4" fill="#4477aa" fill-rule="evenodd" fill-opacity="1" stroke="#000000" stroke-opacity="1" stroke-width="3.6"/>
<circle clip-path="url(#clip102)" cx="1216.66" cy="1254.73" r="14.4" fill="#4477aa" fill-rule="evenodd" fill-opacity="1" stroke="#000000" stroke-opacity="1" stroke-width="3.6"/>
<circle clip-path="url(#clip102)" cx="1212.77" cy="1176.75" r="14.4" fill="#4477aa" fill-rule="evenodd" fill-opacity="1" stroke="#000000" stroke-opacity="1" stroke-width="3.6"/>
<circle clip-path="url(#clip102)" cx="1323.67" cy="1109.15" r="14.4" fill="#4477aa" fill-rule="evenodd" fill-opacity="1" stroke="#000000" stroke-opacity="1" stroke-width="3.6"/>
<circle clip-path="url(#clip102)" cx="1317.79" cy="1268.83" r="14.4" fill="#4477aa" fill-rule="evenodd" fill-opacity="1" stroke="#000000" stroke-opacity="1" stroke-width="3.6"/>
<circle clip-path="url(#clip102)" cx="1455.35" cy="1230.15" r="14.4" fill="#4477aa" fill-rule="evenodd" fill-opacity="1" stroke="#000000" stroke-opacity="1" stroke-width="3.6"/>
<circle clip-path="url(#clip102)" cx="1320.34" cy="1166.74" r="14.4" fill="#4477aa" fill-rule="evenodd" fill-opacity="1" stroke="#000000" stroke-opacity="1" stroke-width="3.6"/>
<circle clip-path="url(#clip102)" cx="1231.45" cy="1138.72" r="14.4" fill="#4477aa" fill-rule="evenodd" fill-opacity="1" stroke="#000000" stroke-opacity="1" stroke-width="3.6"/>
<circle clip-path="url(#clip102)" cx="1473.48" cy="1188.59" r="14.4" fill="#4477aa" fill-rule="evenodd" fill-opacity="1" stroke="#000000" stroke-opacity="1" stroke-width="3.6"/>
<circle clip-path="url(#clip102)" cx="1372.55" cy="1128.9" r="14.4" fill="#4477aa" fill-rule="evenodd" fill-opacity="1" stroke="#000000" stroke-opacity="1" stroke-width="3.6"/>
<circle clip-path="url(#clip102)" cx="1317.55" cy="1268.65" r="14.4" fill="#4477aa" fill-rule="evenodd" fill-opacity="1" stroke="#000000" stroke-opacity="1" stroke-width="3.6"/>
<circle clip-path="url(#clip102)" cx="1137.01" cy="1151.74" r="14.4" fill="#4477aa" fill-rule="evenodd" fill-opacity="1" stroke="#000000" stroke-opacity="1" stroke-width="3.6"/>
<circle clip-path="url(#clip102)" cx="1340.28" cy="1147.87" r="14.4" fill="#4477aa" fill-rule="evenodd" fill-opacity="1" stroke="#000000" stroke-opacity="1" stroke-width="3.6"/>
<circle clip-path="url(#clip102)" cx="1452.77" cy="1220.82" r="14.4" fill="#4477aa" fill-rule="evenodd" fill-opacity="1" stroke="#000000" stroke-opacity="1" stroke-width="3.6"/>
<circle clip-path="url(#clip102)" cx="1263.15" cy="1207.77" r="14.4" fill="#4477aa" fill-rule="evenodd" fill-opacity="1" stroke="#000000" stroke-opacity="1" stroke-width="3.6"/>
<circle clip-path="url(#clip102)" cx="1326.27" cy="1269.47" r="14.4" fill="#4477aa" fill-rule="evenodd" fill-opacity="1" stroke="#000000" stroke-opacity="1" stroke-width="3.6"/>
<circle clip-path="url(#clip102)" cx="1194.1" cy="1140.16" r="14.4" fill="#4477aa" fill-rule="evenodd" fill-opacity="1" stroke="#000000" stroke-opacity="1" stroke-width="3.6"/>
<circle clip-path="url(#clip102)" cx="1256.55" cy="1191.9" r="14.4" fill="#4477aa" fill-rule="evenodd" fill-opacity="1" stroke="#000000" stroke-opacity="1" stroke-width="3.6"/>
<circle clip-path="url(#clip102)" cx="1383.7" cy="1228.97" r="14.4" fill="#4477aa" fill-rule="evenodd" fill-opacity="1" stroke="#000000" stroke-opacity="1" stroke-width="3.6"/>
<circle clip-path="url(#clip102)" cx="1163.71" cy="1163.7" r="14.4" fill="#4477aa" fill-rule="evenodd" fill-opacity="1" stroke="#000000" stroke-opacity="1" stroke-width="3.6"/>
<circle clip-path="url(#clip102)" cx="1348.67" cy="1196.9" r="14.4" fill="#4477aa" fill-rule="evenodd" fill-opacity="1" stroke="#000000" stroke-opacity="1" stroke-width="3.6"/>
<circle clip-path="url(#clip102)" cx="1469.56" cy="1157.96" r="14.4" fill="#4477aa" fill-rule="evenodd" fill-opacity="1" stroke="#000000" stroke-opacity="1" stroke-width="3.6"/>
<circle clip-path="url(#clip102)" cx="1197.68" cy="1125.07" r="14.4" fill="#4477aa" fill-rule="evenodd" fill-opacity="1" stroke="#000000" stroke-opacity="1" stroke-width="3.6"/>
<circle clip-path="url(#clip102)" cx="1308.25" cy="1241.43" r="14.4" fill="#4477aa" fill-rule="evenodd" fill-opacity="1" stroke="#000000" stroke-opacity="1" stroke-width="3.6"/>
<circle clip-path="url(#clip102)" cx="1360.7" cy="1122.82" r="14.4" fill="#4477aa" fill-rule="evenodd" fill-opacity="1" stroke="#000000" stroke-opacity="1" stroke-width="3.6"/>
<circle clip-path="url(#clip102)" cx="1140.35" cy="1158.22" r="14.4" fill="#4477aa" fill-rule="evenodd" fill-opacity="1" stroke="#000000" stroke-opacity="1" stroke-width="3.6"/>
<circle clip-path="url(#clip102)" cx="1410.04" cy="1141.77" r="14.4" fill="#4477aa" fill-rule="evenodd" fill-opacity="1" stroke="#000000" stroke-opacity="1" stroke-width="3.6"/>
<circle clip-path="url(#clip102)" cx="1193.03" cy="1228.84" r="14.4" fill="#4477aa" fill-rule="evenodd" fill-opacity="1" stroke="#000000" stroke-opacity="1" stroke-width="3.6"/>
<circle clip-path="url(#clip102)" cx="1263.11" cy="1181.96" r="14.4" fill="#4477aa" fill-rule="evenodd" fill-opacity="1" stroke="#000000" stroke-opacity="1" stroke-width="3.6"/>
<circle clip-path="url(#clip102)" cx="1219.02" cy="1254" r="14.4" fill="#4477aa" fill-rule="evenodd" fill-opacity="1" stroke="#000000" stroke-opacity="1" stroke-width="3.6"/>
<circle clip-path="url(#clip102)" cx="1247.13" cy="1194.18" r="14.4" fill="#4477aa" fill-rule="evenodd" fill-opacity="1" stroke="#000000" stroke-opacity="1" stroke-width="3.6"/>
<circle clip-path="url(#clip102)" cx="1155.26" cy="1194.82" r="14.4" fill="#4477aa" fill-rule="evenodd" fill-opacity="1" stroke="#000000" stroke-opacity="1" stroke-width="3.6"/>
<circle clip-path="url(#clip102)" cx="1239.8" cy="1170.23" r="14.4" fill="#4477aa" fill-rule="evenodd" fill-opacity="1" stroke="#000000" stroke-opacity="1" stroke-width="3.6"/>
<circle clip-path="url(#clip102)" cx="1436.73" cy="1141.45" r="14.4" fill="#4477aa" fill-rule="evenodd" fill-opacity="1" stroke="#000000" stroke-opacity="1" stroke-width="3.6"/>
<circle clip-path="url(#clip102)" cx="1261.4" cy="1205.81" r="14.4" fill="#4477aa" fill-rule="evenodd" fill-opacity="1" stroke="#000000" stroke-opacity="1" stroke-width="3.6"/>
<circle clip-path="url(#clip102)" cx="1224.27" cy="1181.12" r="14.4" fill="#4477aa" fill-rule="evenodd" fill-opacity="1" stroke="#000000" stroke-opacity="1" stroke-width="3.6"/>
<circle clip-path="url(#clip102)" cx="1269.89" cy="1202.12" r="14.4" fill="#4477aa" fill-rule="evenodd" fill-opacity="1" stroke="#000000" stroke-opacity="1" stroke-width="3.6"/>
<circle clip-path="url(#clip102)" cx="866.848" cy="1205.95" r="14.4" fill="#ee6677" fill-rule="evenodd" fill-opacity="1" stroke="#000000" stroke-opacity="1" stroke-width="3.6"/>
<circle clip-path="url(#clip102)" cx="1676.43" cy="1180.33" r="14.4" fill="#ee6677" fill-rule="evenodd" fill-opacity="1" stroke="#000000" stroke-opacity="1" stroke-width="3.6"/>
<circle clip-path="url(#clip102)" cx="984.145" cy="1053.6" r="14.4" fill="#ee6677" fill-rule="evenodd" fill-opacity="1" stroke="#000000" stroke-opacity="1" stroke-width="3.6"/>
<circle clip-path="url(#clip102)" cx="939.173" cy="1130.64" r="14.4" fill="#ee6677" fill-rule="evenodd" fill-opacity="1" stroke="#000000" stroke-opacity="1" stroke-width="3.6"/>
<circle clip-path="url(#clip102)" cx="1019.55" cy="1112.68" r="14.4" fill="#ee6677" fill-rule="evenodd" fill-opacity="1" stroke="#000000" stroke-opacity="1" stroke-width="3.6"/>
<circle clip-path="url(#clip102)" cx="1631.09" cy="1276.35" r="14.4" fill="#ee6677" fill-rule="evenodd" fill-opacity="1" stroke="#000000" stroke-opacity="1" stroke-width="3.6"/>
<circle clip-path="url(#clip102)" cx="1557.58" cy="1330.06" r="14.4" fill="#ee6677" fill-rule="evenodd" fill-opacity="1" stroke="#000000" stroke-opacity="1" stroke-width="3.6"/>
<circle clip-path="url(#clip102)" cx="1311.91" cy="1050.91" r="14.4" fill="#ee6677" fill-rule="evenodd" fill-opacity="1" stroke="#000000" stroke-opacity="1" stroke-width="3.6"/>
<circle clip-path="url(#clip102)" cx="1547.2" cy="1122.83" r="14.4" fill="#ee6677" fill-rule="evenodd" fill-opacity="1" stroke="#000000" stroke-opacity="1" stroke-width="3.6"/>
<circle clip-path="url(#clip102)" cx="931.52" cy="1210.56" r="14.4" fill="#ee6677" fill-rule="evenodd" fill-opacity="1" stroke="#000000" stroke-opacity="1" stroke-width="3.6"/>
<circle clip-path="url(#clip102)" cx="1666.08" cy="1063.56" r="14.4" fill="#ee6677" fill-rule="evenodd" fill-opacity="1" stroke="#000000" stroke-opacity="1" stroke-width="3.6"/>
<circle clip-path="url(#clip102)" cx="909.564" cy="1124.46" r="14.4" fill="#ee6677" fill-rule="evenodd" fill-opacity="1" stroke="#000000" stroke-opacity="1" stroke-width="3.6"/>
<circle clip-path="url(#clip102)" cx="1500.53" cy="1312.59" r="14.4" fill="#ee6677" fill-rule="evenodd" fill-opacity="1" stroke="#000000" stroke-opacity="1" stroke-width="3.6"/>
<circle clip-path="url(#clip102)" cx="1071.01" cy="1373.73" r="14.4" fill="#ee6677" fill-rule="evenodd" fill-opacity="1" stroke="#000000" stroke-opacity="1" stroke-width="3.6"/>
<circle clip-path="url(#clip102)" cx="1560.77" cy="1043.32" r="14.4" fill="#ee6677" fill-rule="evenodd" fill-opacity="1" stroke="#000000" stroke-opacity="1" stroke-width="3.6"/>
<circle clip-path="url(#clip102)" cx="1003.61" cy="1325.37" r="14.4" fill="#ee6677" fill-rule="evenodd" fill-opacity="1" stroke="#000000" stroke-opacity="1" stroke-width="3.6"/>
<circle clip-path="url(#clip102)" cx="1104.15" cy="1058.59" r="14.4" fill="#ee6677" fill-rule="evenodd" fill-opacity="1" stroke="#000000" stroke-opacity="1" stroke-width="3.6"/>
<circle clip-path="url(#clip102)" cx="1215.89" cy="1318.76" r="14.4" fill="#ee6677" fill-rule="evenodd" fill-opacity="1" stroke="#000000" stroke-opacity="1" stroke-width="3.6"/>
<circle clip-path="url(#clip102)" cx="1044.08" cy="1145.54" r="14.4" fill="#ee6677" fill-rule="evenodd" fill-opacity="1" stroke="#000000" stroke-opacity="1" stroke-width="3.6"/>
<circle clip-path="url(#clip102)" cx="1020.95" cy="1091.88" r="14.4" fill="#ee6677" fill-rule="evenodd" fill-opacity="1" stroke="#000000" stroke-opacity="1" stroke-width="3.6"/>
<circle clip-path="url(#clip102)" cx="1103.29" cy="1281.84" r="14.4" fill="#ee6677" fill-rule="evenodd" fill-opacity="1" stroke="#000000" stroke-opacity="1" stroke-width="3.6"/>
<circle clip-path="url(#clip102)" cx="1209.92" cy="986.315" r="14.4" fill="#ee6677" fill-rule="evenodd" fill-opacity="1" stroke="#000000" stroke-opacity="1" stroke-width="3.6"/>
<circle clip-path="url(#clip102)" cx="1687.56" cy="1146.74" r="14.4" fill="#ee6677" fill-rule="evenodd" fill-opacity="1" stroke="#000000" stroke-opacity="1" stroke-width="3.6"/>
<circle clip-path="url(#clip102)" cx="980.042" cy="1109.62" r="14.4" fill="#ee6677" fill-rule="evenodd" fill-opacity="1" stroke="#000000" stroke-opacity="1" stroke-width="3.6"/>
<circle clip-path="url(#clip102)" cx="1197.97" cy="968.52" r="14.4" fill="#ee6677" fill-rule="evenodd" fill-opacity="1" stroke="#000000" stroke-opacity="1" stroke-width="3.6"/>
<circle clip-path="url(#clip102)" cx="1109.1" cy="1367" r="14.4" fill="#ee6677" fill-rule="evenodd" fill-opacity="1" stroke="#000000" stroke-opacity="1" stroke-width="3.6"/>
<circle clip-path="url(#clip102)" cx="1138.33" cy="1049.45" r="14.4" fill="#ee6677" fill-rule="evenodd" fill-opacity="1" stroke="#000000" stroke-opacity="1" stroke-width="3.6"/>
<circle clip-path="url(#clip102)" cx="1438.25" cy="1003.07" r="14.4" fill="#ee6677" fill-rule="evenodd" fill-opacity="1" stroke="#000000" stroke-opacity="1" stroke-width="3.6"/>
<circle clip-path="url(#clip102)" cx="1700.52" cy="1152.9" r="14.4" fill="#ee6677" fill-rule="evenodd" fill-opacity="1" stroke="#000000" stroke-opacity="1" stroke-width="3.6"/>
<circle clip-path="url(#clip102)" cx="975.489" cy="1149.2" r="14.4" fill="#ee6677" fill-rule="evenodd" fill-opacity="1" stroke="#000000" stroke-opacity="1" stroke-width="3.6"/>
<circle clip-path="url(#clip102)" cx="897.554" cy="1153.34" r="14.4" fill="#ee6677" fill-rule="evenodd" fill-opacity="1" stroke="#000000" stroke-opacity="1" stroke-width="3.6"/>
<circle clip-path="url(#clip102)" cx="934.636" cy="1111.22" r="14.4" fill="#ee6677" fill-rule="evenodd" fill-opacity="1" stroke="#000000" stroke-opacity="1" stroke-width="3.6"/>
<circle clip-path="url(#clip102)" cx="1669.71" cy="1234.57" r="14.4" fill="#ee6677" fill-rule="evenodd" fill-opacity="1" stroke="#000000" stroke-opacity="1" stroke-width="3.6"/>
<circle clip-path="url(#clip102)" cx="1506.21" cy="1069.37" r="14.4" fill="#ee6677" fill-rule="evenodd" fill-opacity="1" stroke="#000000" stroke-opacity="1" stroke-width="3.6"/>
<circle clip-path="url(#clip102)" cx="1647.52" cy="1273.62" r="14.4" fill="#ee6677" fill-rule="evenodd" fill-opacity="1" stroke="#000000" stroke-opacity="1" stroke-width="3.6"/>
<circle clip-path="url(#clip102)" cx="1146.94" cy="1048.71" r="14.4" fill="#ee6677" fill-rule="evenodd" fill-opacity="1" stroke="#000000" stroke-opacity="1" stroke-width="3.6"/>
<circle clip-path="url(#clip102)" cx="1673.46" cy="1150.48" r="14.4" fill="#ee6677" fill-rule="evenodd" fill-opacity="1" stroke="#000000" stroke-opacity="1" stroke-width="3.6"/>
<circle clip-path="url(#clip102)" cx="1126.43" cy="1025.03" r="14.4" fill="#ee6677" fill-rule="evenodd" fill-opacity="1" stroke="#000000" stroke-opacity="1" stroke-width="3.6"/>
<circle clip-path="url(#clip102)" cx="1004.2" cy="1078.23" r="14.4" fill="#ee6677" fill-rule="evenodd" fill-opacity="1" stroke="#000000" stroke-opacity="1" stroke-width="3.6"/>
<circle clip-path="url(#clip102)" cx="858.502" cy="1174.42" r="14.4" fill="#ee6677" fill-rule="evenodd" fill-opacity="1" stroke="#000000" stroke-opacity="1" stroke-width="3.6"/>
<circle clip-path="url(#clip102)" cx="1418.37" cy="1385.46" r="14.4" fill="#ee6677" fill-rule="evenodd" fill-opacity="1" stroke="#000000" stroke-opacity="1" stroke-width="3.6"/>
<circle clip-path="url(#clip102)" cx="939.675" cy="1290.29" r="14.4" fill="#ee6677" fill-rule="evenodd" fill-opacity="1" stroke="#000000" stroke-opacity="1" stroke-width="3.6"/>
<circle clip-path="url(#clip102)" cx="1532.6" cy="1283.63" r="14.4" fill="#ee6677" fill-rule="evenodd" fill-opacity="1" stroke="#000000" stroke-opacity="1" stroke-width="3.6"/>
<circle clip-path="url(#clip102)" cx="1711.71" cy="1274.57" r="14.4" fill="#ee6677" fill-rule="evenodd" fill-opacity="1" stroke="#000000" stroke-opacity="1" stroke-width="3.6"/>
<circle clip-path="url(#clip102)" cx="1126.41" cy="1330.31" r="14.4" fill="#ee6677" fill-rule="evenodd" fill-opacity="1" stroke="#000000" stroke-opacity="1" stroke-width="3.6"/>
<circle clip-path="url(#clip102)" cx="1242.99" cy="1382.99" r="14.4" fill="#ee6677" fill-rule="evenodd" fill-opacity="1" stroke="#000000" stroke-opacity="1" stroke-width="3.6"/>
<circle clip-path="url(#clip102)" cx="1455.7" cy="993.425" r="14.4" fill="#ee6677" fill-rule="evenodd" fill-opacity="1" stroke="#000000" stroke-opacity="1" stroke-width="3.6"/>
<circle clip-path="url(#clip102)" cx="1286.23" cy="1010.26" r="14.4" fill="#ee6677" fill-rule="evenodd" fill-opacity="1" stroke="#000000" stroke-opacity="1" stroke-width="3.6"/>
<circle clip-path="url(#clip102)" cx="1523.65" cy="1048.32" r="14.4" fill="#ee6677" fill-rule="evenodd" fill-opacity="1" stroke="#000000" stroke-opacity="1" stroke-width="3.6"/>
<circle clip-path="url(#clip102)" cx="966.093" cy="1249.99" r="14.4" fill="#ee6677" fill-rule="evenodd" fill-opacity="1" stroke="#000000" stroke-opacity="1" stroke-width="3.6"/>
<path clip-path="url(#clip100)" d="M1933.36 449.248 L2283.23 449.248 L2283.23 99.3277 L1933.36 99.3277  Z" fill="#ffffff" fill-rule="evenodd" fill-opacity="1"/>
<polyline clip-path="url(#clip100)" style="stroke:#000000; stroke-linecap:round; stroke-linejoin:round; stroke-width:4; stroke-opacity:1; fill:none" points="1933.36,449.248 2283.23,449.248 2283.23,99.3277 1933.36,99.3277 1933.36,449.248 "/>
<circle clip-path="url(#clip100)" cx="2026.06" cy="215.968" r="46.08" fill="#4477aa" fill-rule="evenodd" fill-opacity="1" stroke="#000000" stroke-opacity="1" stroke-width="11.52"/>
<path clip-path="url(#clip100)" d="M2118.75 216.498 Q2118.75 202.707 2121.56 194.326 Q2124.43 185.893 2130 181.331 Q2135.62 176.769 2144.11 176.769 Q2150.37 176.769 2155.09 179.315 Q2159.81 181.808 2162.88 186.582 Q2165.96 191.303 2167.71 198.145 Q2169.46 204.935 2169.46 216.498 Q2169.46 230.183 2166.65 238.617 Q2163.84 246.997 2158.22 251.612 Q2152.65 256.174 2144.11 256.174 Q2132.86 256.174 2126.44 248.111 Q2118.75 238.405 2118.75 216.498 M2128.57 216.498 Q2128.57 235.646 2133.02 242.011 Q2137.53 248.323 2144.11 248.323 Q2150.68 248.323 2155.14 241.958 Q2159.65 235.593 2159.65 216.498 Q2159.65 197.297 2155.14 190.985 Q2150.68 184.673 2144 184.673 Q2137.42 184.673 2133.5 190.242 Q2128.57 197.35 2128.57 216.498 Z" fill="#000000" fill-rule="nonzero" fill-opacity="1" /><path clip-path="url(#clip100)" d="M2184.53 254.848 L2184.53 243.974 L2195.4 243.974 L2195.4 254.848 L2184.53 254.848 Z" fill="#000000" fill-rule="nonzero" fill-opacity="1" /><path clip-path="url(#clip100)" d="M2209.35 216.498 Q2209.35 202.707 2212.16 194.326 Q2215.03 185.893 2220.59 181.331 Q2226.22 176.769 2234.7 176.769 Q2240.96 176.769 2245.68 179.315 Q2250.4 181.808 2253.48 186.582 Q2256.56 191.303 2258.31 198.145 Q2260.06 204.935 2260.06 216.498 Q2260.06 230.183 2257.25 238.617 Q2254.44 246.997 2248.81 251.612 Q2243.24 256.174 2234.7 256.174 Q2223.46 256.174 2217.04 248.111 Q2209.35 238.405 2209.35 216.498 M2219.16 216.498 Q2219.16 235.646 2223.62 242.011 Q2228.13 248.323 2234.7 248.323 Q2241.28 248.323 2245.74 241.958 Q2250.25 235.593 2250.25 216.498 Q2250.25 197.297 2245.74 190.985 Q2241.28 184.673 2234.6 184.673 Q2228.02 184.673 2224.1 190.242 Q2219.16 197.35 2219.16 216.498 Z" fill="#000000" fill-rule="nonzero" fill-opacity="1" /><circle clip-path="url(#clip100)" cx="2026.06" cy="332.608" r="46.08" fill="#ee6677" fill-rule="evenodd" fill-opacity="1" stroke="#000000" stroke-opacity="1" stroke-width="11.52"/>
<path clip-path="url(#clip100)" d="M2147.4 371.488 L2137.85 371.488 L2137.85 310.648 Q2134.4 313.937 2128.78 317.225 Q2123.21 320.514 2118.75 322.158 L2118.75 312.929 Q2126.76 309.163 2132.76 303.806 Q2138.75 298.448 2141.24 293.409 L2147.4 293.409 L2147.4 371.488 Z" fill="#000000" fill-rule="nonzero" fill-opacity="1" /><path clip-path="url(#clip100)" d="M2177.21 371.488 L2177.21 360.614 L2188.08 360.614 L2188.08 371.488 L2177.21 371.488 Z" fill="#000000" fill-rule="nonzero" fill-opacity="1" /><path clip-path="url(#clip100)" d="M2202.03 333.138 Q2202.03 319.347 2204.84 310.966 Q2207.71 302.533 2213.27 297.971 Q2218.9 293.409 2227.38 293.409 Q2233.64 293.409 2238.36 295.955 Q2243.08 298.448 2246.16 303.222 Q2249.24 307.943 2250.99 314.785 Q2252.74 321.575 2252.74 333.138 Q2252.74 346.823 2249.93 355.257 Q2247.12 363.637 2241.49 368.252 Q2235.92 372.814 2227.38 372.814 Q2216.14 372.814 2209.72 364.751 Q2202.03 355.045 2202.03 333.138 M2211.84 333.138 Q2211.84 352.286 2216.3 358.651 Q2220.81 364.963 2227.38 364.963 Q2233.96 364.963 2238.42 358.598 Q2242.93 352.233 2242.93 333.138 Q2242.93 313.937 2238.42 307.625 Q2233.96 301.313 2227.28 301.313 Q2220.7 301.313 2216.78 306.882 Q2211.84 313.99 2211.84 333.138 Z" fill="#000000" fill-rule="nonzero" fill-opacity="1" /></svg>
