<?xml version="1.0" encoding="utf-8"?>
<svg xmlns="http://www.w3.org/2000/svg" xmlns:xlink="http://www.w3.org/1999/xlink" width="600" height="450" viewBox="0 0 2400 1800">
<defs>
  <clipPath id="clip990">
    <rect x="0" y="0" width="2400" height="1800"/>
  </clipPath>
</defs>
<path clip-path="url(#clip990)" d="M0 1800 L2400 1800 L2400 0 L0 0  Z" fill="#ffffff" fill-rule="evenodd" fill-opacity="1"/>
<defs>
  <clipPath id="clip991">
    <rect x="480" y="0" width="1681" height="1681"/>
  </clipPath>
</defs>
<path clip-path="url(#clip990)" d="M423.983 1506.52 L2352.76 1506.52 L2352.76 47.2441 L423.983 47.2441  Z" fill="#ffffff" fill-rule="evenodd" fill-opacity="1"/>
<defs>
  <clipPath id="clip992">
    <rect x="423" y="47" width="1930" height="1460"/>
  </clipPath>
</defs>
<polyline clip-path="url(#clip992)" style="stroke:#000000; stroke-linecap:round; stroke-linejoin:round; stroke-width:2; stroke-opacity:0.1; fill:none" points="426.583,1506.52 426.583,47.2441 "/>
<polyline clip-path="url(#clip992)" style="stroke:#000000; stroke-linecap:round; stroke-linejoin:round; stroke-width:2; stroke-opacity:0.1; fill:none" points="946.468,1506.52 946.468,47.2441 "/>
<polyline clip-path="url(#clip992)" style="stroke:#000000; stroke-linecap:round; stroke-linejoin:round; stroke-width:2; stroke-opacity:0.1; fill:none" points="1466.35,1506.52 1466.35,47.2441 "/>
<polyline clip-path="url(#clip992)" style="stroke:#000000; stroke-linecap:round; stroke-linejoin:round; stroke-width:2; stroke-opacity:0.1; fill:none" points="1986.24,1506.52 1986.24,47.2441 "/>
<polyline clip-path="url(#clip992)" style="stroke:#000000; stroke-linecap:round; stroke-linejoin:round; stroke-width:2; stroke-opacity:0.1; fill:none" points="423.983,1305.61 2352.76,1305.61 "/>
<polyline clip-path="url(#clip992)" style="stroke:#000000; stroke-linecap:round; stroke-linejoin:round; stroke-width:2; stroke-opacity:0.1; fill:none" points="423.983,1087.97 2352.76,1087.97 "/>
<polyline clip-path="url(#clip992)" style="stroke:#000000; stroke-linecap:round; stroke-linejoin:round; stroke-width:2; stroke-opacity:0.1; fill:none" points="423.983,870.335 2352.76,870.335 "/>
<polyline clip-path="url(#clip992)" style="stroke:#000000; stroke-linecap:round; stroke-linejoin:round; stroke-width:2; stroke-opacity:0.1; fill:none" points="423.983,652.7 2352.76,652.7 "/>
<polyline clip-path="url(#clip992)" style="stroke:#000000; stroke-linecap:round; stroke-linejoin:round; stroke-width:2; stroke-opacity:0.1; fill:none" points="423.983,435.065 2352.76,435.065 "/>
<polyline clip-path="url(#clip992)" style="stroke:#000000; stroke-linecap:round; stroke-linejoin:round; stroke-width:2; stroke-opacity:0.1; fill:none" points="423.983,217.429 2352.76,217.429 "/>
<polyline clip-path="url(#clip990)" style="stroke:#000000; stroke-linecap:round; stroke-linejoin:round; stroke-width:4; stroke-opacity:1; fill:none" points="423.983,1506.52 2352.76,1506.52 "/>
<polyline clip-path="url(#clip990)" style="stroke:#000000; stroke-linecap:round; stroke-linejoin:round; stroke-width:2; stroke-opacity:0.5; fill:none" points="423.983,47.2441 2352.76,47.2441 "/>
<polyline clip-path="url(#clip990)" style="stroke:#000000; stroke-linecap:round; stroke-linejoin:round; stroke-width:4; stroke-opacity:1; fill:none" points="426.583,1506.52 426.583,1487.63 "/>
<polyline clip-path="url(#clip990)" style="stroke:#000000; stroke-linecap:round; stroke-linejoin:round; stroke-width:4; stroke-opacity:1; fill:none" points="946.468,1506.52 946.468,1487.63 "/>
<polyline clip-path="url(#clip990)" style="stroke:#000000; stroke-linecap:round; stroke-linejoin:round; stroke-width:4; stroke-opacity:1; fill:none" points="1466.35,1506.52 1466.35,1487.63 "/>
<polyline clip-path="url(#clip990)" style="stroke:#000000; stroke-linecap:round; stroke-linejoin:round; stroke-width:4; stroke-opacity:1; fill:none" points="1986.24,1506.52 1986.24,1487.63 "/>
<path clip-path="url(#clip990)" d="M404.046 1578.04 Q404.046 1565.78 406.545 1558.33 Q409.091 1550.83 414.041 1546.78 Q419.039 1542.72 426.583 1542.72 Q432.146 1542.72 436.343 1544.98 Q440.539 1547.2 443.273 1551.44 Q446.008 1555.64 447.564 1561.72 Q449.12 1567.76 449.12 1578.04 Q449.12 1590.2 446.621 1597.7 Q444.122 1605.15 439.124 1609.25 Q434.174 1613.3 426.583 1613.3 Q416.587 1613.3 410.882 1606.14 Q404.046 1597.51 404.046 1578.04 M412.768 1578.04 Q412.768 1595.06 416.729 1600.71 Q420.736 1606.32 426.583 1606.32 Q432.429 1606.32 436.39 1600.67 Q440.397 1595.01 440.397 1578.04 Q440.397 1560.97 436.39 1555.36 Q432.429 1549.75 426.489 1549.75 Q420.642 1549.75 417.153 1554.7 Q412.768 1561.01 412.768 1578.04 Z" fill="#000000" fill-rule="nonzero" fill-opacity="1" /><path clip-path="url(#clip990)" d="M925.793 1612.12 L917.306 1612.12 L917.306 1558.04 Q914.241 1560.97 909.244 1563.89 Q904.293 1566.81 900.333 1568.28 L900.333 1560.07 Q907.452 1556.72 912.78 1551.96 Q918.108 1547.2 920.324 1542.72 L925.793 1542.72 L925.793 1612.12 Z" fill="#000000" fill-rule="nonzero" fill-opacity="1" /><path clip-path="url(#clip990)" d="M947.528 1578.04 Q947.528 1565.78 950.027 1558.33 Q952.573 1550.83 957.524 1546.78 Q962.522 1542.72 970.066 1542.72 Q975.629 1542.72 979.825 1544.98 Q984.022 1547.2 986.756 1551.44 Q989.491 1555.64 991.047 1561.72 Q992.603 1567.76 992.603 1578.04 Q992.603 1590.2 990.104 1597.7 Q987.605 1605.15 982.607 1609.25 Q977.656 1613.3 970.066 1613.3 Q960.07 1613.3 954.365 1606.14 Q947.528 1597.51 947.528 1578.04 M956.251 1578.04 Q956.251 1595.06 960.211 1600.71 Q964.219 1606.32 970.066 1606.32 Q975.912 1606.32 979.872 1600.67 Q983.88 1595.01 983.88 1578.04 Q983.88 1560.97 979.872 1555.36 Q975.912 1549.75 969.971 1549.75 Q964.125 1549.75 960.636 1554.7 Q956.251 1561.01 956.251 1578.04 Z" fill="#000000" fill-rule="nonzero" fill-opacity="1" /><path clip-path="url(#clip990)" d="M1462.16 1603.97 L1462.16 1612.12 L1416.47 1612.12 Q1416.37 1609.06 1417.46 1606.23 Q1419.2 1601.56 1423.02 1597.04 Q1426.89 1592.51 1434.15 1586.57 Q1445.42 1577.33 1449.38 1571.95 Q1453.34 1566.53 1453.34 1561.72 Q1453.34 1556.68 1449.71 1553.24 Q1446.13 1549.75 1440.33 1549.75 Q1434.2 1549.75 1430.52 1553.42 Q1426.84 1557.1 1426.79 1563.61 L1418.07 1562.71 Q1418.97 1552.95 1424.81 1547.86 Q1430.66 1542.72 1440.51 1542.72 Q1450.46 1542.72 1456.26 1548.24 Q1462.06 1553.75 1462.06 1561.91 Q1462.06 1566.06 1460.36 1570.07 Q1458.67 1574.07 1454.71 1578.51 Q1450.79 1582.94 1441.65 1590.67 Q1434.01 1597.08 1431.84 1599.39 Q1429.67 1601.66 1428.26 1603.97 L1462.16 1603.97 Z" fill="#000000" fill-rule="nonzero" fill-opacity="1" /><path clip-path="url(#clip990)" d="M1471.26 1578.04 Q1471.26 1565.78 1473.75 1558.33 Q1476.3 1550.83 1481.25 1546.78 Q1486.25 1542.72 1493.79 1542.72 Q1499.36 1542.72 1503.55 1544.98 Q1507.75 1547.2 1510.48 1551.44 Q1513.22 1555.64 1514.77 1561.72 Q1516.33 1567.76 1516.33 1578.04 Q1516.33 1590.2 1513.83 1597.7 Q1511.33 1605.15 1506.33 1609.25 Q1501.38 1613.3 1493.79 1613.3 Q1483.8 1613.3 1478.09 1606.14 Q1471.26 1597.51 1471.26 1578.04 M1479.98 1578.04 Q1479.98 1595.06 1483.94 1600.71 Q1487.95 1606.32 1493.79 1606.32 Q1499.64 1606.32 1503.6 1600.67 Q1507.61 1595.01 1507.61 1578.04 Q1507.61 1560.97 1503.6 1555.36 Q1499.64 1549.75 1493.7 1549.75 Q1487.85 1549.75 1484.36 1554.7 Q1479.98 1561.01 1479.98 1578.04 Z" fill="#000000" fill-rule="nonzero" fill-opacity="1" /><path clip-path="url(#clip990)" d="M1936.87 1593.88 L1945.36 1592.75 Q1946.82 1599.96 1950.31 1603.17 Q1953.85 1606.32 1958.89 1606.32 Q1964.88 1606.32 1968.98 1602.18 Q1973.13 1598.03 1973.13 1591.9 Q1973.13 1586.05 1969.31 1582.28 Q1965.49 1578.46 1959.6 1578.46 Q1957.19 1578.46 1953.61 1579.4 L1954.55 1571.95 Q1955.4 1572.05 1955.92 1572.05 Q1961.34 1572.05 1965.68 1569.22 Q1970.02 1566.39 1970.02 1560.5 Q1970.02 1555.83 1966.86 1552.76 Q1963.7 1549.7 1958.7 1549.7 Q1953.75 1549.7 1950.45 1552.81 Q1947.15 1555.92 1946.21 1562.15 L1937.72 1560.64 Q1939.28 1552.1 1944.79 1547.44 Q1950.31 1542.72 1958.51 1542.72 Q1964.17 1542.72 1968.93 1545.17 Q1973.7 1547.58 1976.19 1551.77 Q1978.74 1555.97 1978.74 1560.68 Q1978.74 1565.16 1976.34 1568.84 Q1973.93 1572.52 1969.22 1574.69 Q1975.35 1576.1 1978.74 1580.58 Q1982.14 1585.01 1982.14 1591.71 Q1982.14 1600.76 1975.53 1607.08 Q1968.93 1613.35 1958.84 1613.35 Q1949.74 1613.35 1943.71 1607.93 Q1937.72 1602.51 1936.87 1593.88 Z" fill="#000000" fill-rule="nonzero" fill-opacity="1" /><path clip-path="url(#clip990)" d="M1990.53 1578.04 Q1990.53 1565.78 1993.03 1558.33 Q1995.57 1550.83 2000.52 1546.78 Q2005.52 1542.72 2013.06 1542.72 Q2018.63 1542.72 2022.82 1544.98 Q2027.02 1547.2 2029.76 1551.44 Q2032.49 1555.64 2034.05 1561.72 Q2035.6 1567.76 2035.6 1578.04 Q2035.6 1590.2 2033.1 1597.7 Q2030.6 1605.15 2025.61 1609.25 Q2020.66 1613.3 2013.06 1613.3 Q2003.07 1613.3 1997.36 1606.14 Q1990.53 1597.51 1990.53 1578.04 M1999.25 1578.04 Q1999.25 1595.06 2003.21 1600.71 Q2007.22 1606.32 2013.06 1606.32 Q2018.91 1606.32 2022.87 1600.67 Q2026.88 1595.01 2026.88 1578.04 Q2026.88 1560.97 2022.87 1555.36 Q2018.91 1549.75 2012.97 1549.75 Q2007.12 1549.75 2003.64 1554.7 Q1999.25 1561.01 1999.25 1578.04 Z" fill="#000000" fill-rule="nonzero" fill-opacity="1" /><path clip-path="url(#clip990)" d="M1287.8 1721.38 L1297.67 1722.6 Q1295.33 1731.24 1289.02 1736.01 Q1282.71 1740.79 1272.9 1740.79 Q1260.54 1740.79 1253.27 1733.2 Q1246.06 1725.57 1246.06 1711.83 Q1246.06 1697.61 1253.38 1689.76 Q1260.7 1681.91 1272.37 1681.91 Q1283.66 1681.91 1290.82 1689.6 Q1297.99 1697.29 1297.99 1711.24 Q1297.99 1712.09 1297.93 1713.79 L1255.92 1713.79 Q1256.45 1723.07 1261.17 1728.01 Q1265.9 1732.94 1272.95 1732.94 Q1278.2 1732.94 1281.91 1730.18 Q1285.63 1727.42 1287.8 1721.38 M1256.45 1705.94 L1287.91 1705.94 Q1287.27 1698.83 1284.3 1695.28 Q1279.74 1689.76 1272.47 1689.76 Q1265.9 1689.76 1261.39 1694.16 Q1256.93 1698.57 1256.45 1705.94 Z" fill="#000000" fill-rule="nonzero" fill-opacity="1" /><path clip-path="url(#clip990)" d="M1309.65 1761.1 L1309.65 1683.18 L1318.35 1683.18 L1318.35 1690.5 Q1321.43 1686.21 1325.3 1684.09 Q1329.17 1681.91 1334.69 1681.91 Q1341.9 1681.91 1347.42 1685.62 Q1352.94 1689.34 1355.75 1696.13 Q1358.56 1702.86 1358.56 1710.93 Q1358.56 1719.57 1355.43 1726.52 Q1352.35 1733.42 1346.41 1737.13 Q1340.53 1740.79 1334 1740.79 Q1329.23 1740.79 1325.41 1738.77 Q1321.64 1736.76 1319.2 1733.68 L1319.2 1761.1 L1309.65 1761.1 M1318.3 1711.67 Q1318.3 1722.54 1322.7 1727.74 Q1327.11 1732.94 1333.36 1732.94 Q1339.73 1732.94 1344.24 1727.58 Q1348.8 1722.17 1348.8 1710.87 Q1348.8 1700.11 1344.34 1694.75 Q1339.94 1689.39 1333.79 1689.39 Q1327.69 1689.39 1322.97 1695.12 Q1318.3 1700.79 1318.3 1711.67 Z" fill="#000000" fill-rule="nonzero" fill-opacity="1" /><path clip-path="url(#clip990)" d="M1366.52 1711.35 Q1366.52 1695.7 1375.22 1688.17 Q1382.48 1681.91 1392.93 1681.91 Q1404.55 1681.91 1411.92 1689.55 Q1419.29 1697.13 1419.29 1710.55 Q1419.29 1721.43 1416 1727.69 Q1412.77 1733.89 1406.51 1737.34 Q1400.3 1740.79 1392.93 1740.79 Q1381.1 1740.79 1373.78 1733.2 Q1366.52 1725.62 1366.52 1711.35 M1376.33 1711.35 Q1376.33 1722.17 1381.05 1727.58 Q1385.77 1732.94 1392.93 1732.94 Q1400.04 1732.94 1404.76 1727.53 Q1409.48 1722.12 1409.48 1711.03 Q1409.48 1700.58 1404.71 1695.23 Q1399.99 1689.82 1392.93 1689.82 Q1385.77 1689.82 1381.05 1695.17 Q1376.33 1700.53 1376.33 1711.35 Z" fill="#000000" fill-rule="nonzero" fill-opacity="1" /><path clip-path="url(#clip990)" d="M1467.24 1718.88 L1476.63 1720.1 Q1475.09 1729.81 1468.73 1735.33 Q1462.42 1740.79 1453.19 1740.79 Q1441.62 1740.79 1434.57 1733.26 Q1427.57 1725.67 1427.57 1711.56 Q1427.57 1702.44 1430.59 1695.6 Q1433.61 1688.75 1439.77 1685.36 Q1445.97 1681.91 1453.24 1681.91 Q1462.42 1681.91 1468.25 1686.58 Q1474.09 1691.19 1475.73 1699.73 L1466.45 1701.17 Q1465.12 1695.49 1461.73 1692.63 Q1458.39 1689.76 1453.61 1689.76 Q1446.4 1689.76 1441.89 1694.96 Q1437.38 1700.11 1437.38 1711.3 Q1437.38 1722.65 1441.73 1727.79 Q1446.08 1732.94 1453.08 1732.94 Q1458.7 1732.94 1462.47 1729.49 Q1466.24 1726.04 1467.24 1718.88 Z" fill="#000000" fill-rule="nonzero" fill-opacity="1" /><path clip-path="url(#clip990)" d="M1484.8 1739.52 L1484.8 1661.76 L1494.35 1661.76 L1494.35 1689.66 Q1501.03 1681.91 1511.22 1681.91 Q1517.47 1681.91 1522.09 1684.4 Q1526.7 1686.84 1528.67 1691.19 Q1530.68 1695.54 1530.68 1703.82 L1530.68 1739.52 L1521.13 1739.52 L1521.13 1703.82 Q1521.13 1696.66 1518.01 1693.42 Q1514.93 1690.13 1509.25 1690.13 Q1505.01 1690.13 1501.24 1692.36 Q1497.53 1694.54 1495.94 1698.3 Q1494.35 1702.07 1494.35 1708.7 L1494.35 1739.52 L1484.8 1739.52 Z" fill="#000000" fill-rule="nonzero" fill-opacity="1" /><polyline clip-path="url(#clip990)" style="stroke:#000000; stroke-linecap:round; stroke-linejoin:round; stroke-width:4; stroke-opacity:1; fill:none" points="423.983,1506.52 423.983,47.2441 "/>
<polyline clip-path="url(#clip990)" style="stroke:#000000; stroke-linecap:round; stroke-linejoin:round; stroke-width:2; stroke-opacity:0.5; fill:none" points="2352.76,1506.52 2352.76,47.2441 "/>
<polyline clip-path="url(#clip990)" style="stroke:#000000; stroke-linecap:round; stroke-linejoin:round; stroke-width:4; stroke-opacity:1; fill:none" points="423.983,1305.61 442.881,1305.61 "/>
<polyline clip-path="url(#clip990)" style="stroke:#000000; stroke-linecap:round; stroke-linejoin:round; stroke-width:4; stroke-opacity:1; fill:none" points="423.983,1087.97 442.881,1087.97 "/>
<polyline clip-path="url(#clip990)" style="stroke:#000000; stroke-linecap:round; stroke-linejoin:round; stroke-width:4; stroke-opacity:1; fill:none" points="423.983,870.335 442.881,870.335 "/>
<polyline clip-path="url(#clip990)" style="stroke:#000000; stroke-linecap:round; stroke-linejoin:round; stroke-width:4; stroke-opacity:1; fill:none" points="423.983,652.7 442.881,652.7 "/>
<polyline clip-path="url(#clip990)" style="stroke:#000000; stroke-linecap:round; stroke-linejoin:round; stroke-width:4; stroke-opacity:1; fill:none" points="423.983,435.065 442.881,435.065 "/>
<polyline clip-path="url(#clip990)" style="stroke:#000000; stroke-linecap:round; stroke-linejoin:round; stroke-width:4; stroke-opacity:1; fill:none" points="423.983,217.429 442.881,217.429 "/>
<path clip-path="url(#clip990)" d="M154.975 1306.08 Q154.975 1293.82 157.473 1286.37 Q160.019 1278.87 164.97 1274.82 Q169.968 1270.76 177.512 1270.76 Q183.075 1270.76 187.271 1273.03 Q191.468 1275.24 194.202 1279.49 Q196.937 1283.68 198.493 1289.76 Q200.049 1295.8 200.049 1306.08 Q200.049 1318.24 197.55 1325.74 Q195.051 1333.19 190.053 1337.29 Q185.103 1341.34 177.512 1341.34 Q167.516 1341.34 161.811 1334.18 Q154.975 1325.55 154.975 1306.08 M163.697 1306.08 Q163.697 1323.1 167.658 1328.76 Q171.665 1334.37 177.512 1334.37 Q183.358 1334.37 187.319 1328.71 Q191.326 1323.05 191.326 1306.08 Q191.326 1289.01 187.319 1283.4 Q183.358 1277.79 177.417 1277.79 Q171.571 1277.79 168.082 1282.74 Q163.697 1289.06 163.697 1306.08 Z" fill="#000000" fill-rule="nonzero" fill-opacity="1" /><path clip-path="url(#clip990)" d="M213.439 1340.17 L213.439 1330.5 L223.104 1330.5 L223.104 1340.17 L213.439 1340.17 Z" fill="#000000" fill-rule="nonzero" fill-opacity="1" /><path clip-path="url(#clip990)" d="M267.471 1340.17 L258.985 1340.17 L258.985 1286.09 Q255.92 1289.01 250.922 1291.93 Q245.972 1294.86 242.011 1296.32 L242.011 1288.11 Q249.13 1284.77 254.458 1280 Q259.786 1275.24 262.002 1270.76 L267.471 1270.76 L267.471 1340.17 Z" fill="#000000" fill-rule="nonzero" fill-opacity="1" /><path clip-path="url(#clip990)" d="M289.207 1306.08 Q289.207 1293.82 291.706 1286.37 Q294.252 1278.87 299.202 1274.82 Q304.2 1270.76 311.744 1270.76 Q317.308 1270.76 321.504 1273.03 Q325.7 1275.24 328.435 1279.49 Q331.169 1283.68 332.725 1289.76 Q334.281 1295.8 334.281 1306.08 Q334.281 1318.24 331.782 1325.74 Q329.283 1333.19 324.286 1337.29 Q319.335 1341.34 311.744 1341.34 Q301.748 1341.34 296.043 1334.18 Q289.207 1325.55 289.207 1306.08 M297.929 1306.08 Q297.929 1323.1 301.89 1328.76 Q305.898 1334.37 311.744 1334.37 Q317.59 1334.37 321.551 1328.71 Q325.559 1323.05 325.559 1306.08 Q325.559 1289.01 321.551 1283.4 Q317.59 1277.79 311.65 1277.79 Q305.803 1277.79 302.314 1282.74 Q297.929 1289.06 297.929 1306.08 Z" fill="#000000" fill-rule="nonzero" fill-opacity="1" /><path clip-path="url(#clip990)" d="M342.909 1306.08 Q342.909 1293.82 345.408 1286.37 Q347.954 1278.87 352.905 1274.82 Q357.903 1270.76 365.446 1270.76 Q371.01 1270.76 375.206 1273.03 Q379.402 1275.24 382.137 1279.49 Q384.872 1283.68 386.428 1289.76 Q387.983 1295.8 387.983 1306.08 Q387.983 1318.24 385.485 1325.74 Q382.986 1333.19 377.988 1337.29 Q373.037 1341.34 365.446 1341.34 Q355.451 1341.34 349.746 1334.18 Q342.909 1325.55 342.909 1306.08 M351.632 1306.08 Q351.632 1323.1 355.592 1328.76 Q359.6 1334.37 365.446 1334.37 Q371.293 1334.37 375.253 1328.71 Q379.261 1323.05 379.261 1306.08 Q379.261 1289.01 375.253 1283.4 Q371.293 1277.79 365.352 1277.79 Q359.506 1277.79 356.017 1282.74 Q351.632 1289.06 351.632 1306.08 Z" fill="#000000" fill-rule="nonzero" fill-opacity="1" /><path clip-path="url(#clip990)" d="M154.22 1088.44 Q154.22 1076.18 156.719 1068.73 Q159.265 1061.24 164.216 1057.18 Q169.213 1053.13 176.757 1053.13 Q182.321 1053.13 186.517 1055.39 Q190.713 1057.61 193.448 1061.85 Q196.183 1066.05 197.738 1072.13 Q199.294 1078.16 199.294 1088.44 Q199.294 1100.61 196.795 1108.1 Q194.297 1115.55 189.299 1119.65 Q184.348 1123.71 176.757 1123.71 Q166.762 1123.71 161.057 1116.54 Q154.22 1107.91 154.22 1088.44 M162.943 1088.44 Q162.943 1105.46 166.903 1111.12 Q170.911 1116.73 176.757 1116.73 Q182.604 1116.73 186.564 1111.07 Q190.572 1105.42 190.572 1088.44 Q190.572 1071.37 186.564 1065.76 Q182.604 1060.15 176.663 1060.15 Q170.817 1060.15 167.327 1065.1 Q162.943 1071.42 162.943 1088.44 Z" fill="#000000" fill-rule="nonzero" fill-opacity="1" /><path clip-path="url(#clip990)" d="M212.685 1122.53 L212.685 1112.86 L222.35 1112.86 L222.35 1122.53 L212.685 1122.53 Z" fill="#000000" fill-rule="nonzero" fill-opacity="1" /><path clip-path="url(#clip990)" d="M266.717 1122.53 L258.23 1122.53 L258.23 1068.45 Q255.166 1071.37 250.168 1074.3 Q245.217 1077.22 241.257 1078.68 L241.257 1070.48 Q248.376 1067.13 253.704 1062.37 Q259.032 1057.61 261.248 1053.13 L266.717 1053.13 L266.717 1122.53 Z" fill="#000000" fill-rule="nonzero" fill-opacity="1" /><path clip-path="url(#clip990)" d="M333.055 1114.37 L333.055 1122.53 L287.368 1122.53 Q287.274 1119.47 288.358 1116.64 Q290.103 1111.97 293.922 1107.44 Q297.788 1102.92 305.049 1096.98 Q316.317 1087.73 320.278 1082.36 Q324.238 1076.94 324.238 1072.13 Q324.238 1067.08 320.608 1063.64 Q317.025 1060.15 311.225 1060.15 Q305.096 1060.15 301.418 1063.83 Q297.741 1067.51 297.694 1074.01 L288.971 1073.12 Q289.867 1063.36 295.713 1058.27 Q301.56 1053.13 311.414 1053.13 Q321.362 1053.13 327.162 1058.64 Q332.961 1064.16 332.961 1072.32 Q332.961 1076.47 331.264 1080.47 Q329.566 1084.48 325.606 1088.91 Q321.692 1093.35 312.546 1101.08 Q304.907 1107.49 302.739 1109.8 Q300.57 1112.06 299.155 1114.37 L333.055 1114.37 Z" fill="#000000" fill-rule="nonzero" fill-opacity="1" /><path clip-path="url(#clip990)" d="M342.155 1104.43 L351.066 1103.67 Q352.056 1110.18 355.639 1113.48 Q359.27 1116.73 364.362 1116.73 Q370.491 1116.73 374.735 1112.11 Q378.978 1107.49 378.978 1099.85 Q378.978 1092.59 374.876 1088.39 Q370.821 1084.2 364.22 1084.2 Q360.119 1084.2 356.818 1086.08 Q353.518 1087.92 351.632 1090.89 L343.664 1089.86 L350.359 1054.35 L384.73 1054.35 L384.73 1062.46 L357.148 1062.46 L353.423 1081.04 Q359.647 1076.7 366.484 1076.7 Q375.536 1076.7 381.76 1082.97 Q387.983 1089.24 387.983 1099.1 Q387.983 1108.48 382.514 1115.32 Q375.866 1123.71 364.362 1123.71 Q354.932 1123.71 348.944 1118.43 Q343.004 1113.15 342.155 1104.43 Z" fill="#000000" fill-rule="nonzero" fill-opacity="1" /><path clip-path="url(#clip990)" d="M154.975 870.807 Q154.975 858.548 157.473 851.098 Q160.019 843.602 164.97 839.547 Q169.968 835.492 177.512 835.492 Q183.075 835.492 187.271 837.755 Q191.468 839.971 194.202 844.215 Q196.937 848.411 198.493 854.493 Q200.049 860.528 200.049 870.807 Q200.049 882.971 197.55 890.468 Q195.051 897.917 190.053 902.019 Q185.103 906.074 177.512 906.074 Q167.516 906.074 161.811 898.907 Q154.975 890.279 154.975 870.807 M163.697 870.807 Q163.697 887.827 167.658 893.485 Q171.665 899.096 177.512 899.096 Q183.358 899.096 187.319 893.438 Q191.326 887.78 191.326 870.807 Q191.326 853.739 187.319 848.128 Q183.358 842.517 177.417 842.517 Q171.571 842.517 168.082 847.468 Q163.697 853.786 163.697 870.807 Z" fill="#000000" fill-rule="nonzero" fill-opacity="1" /><path clip-path="url(#clip990)" d="M213.439 904.895 L213.439 895.23 L223.104 895.23 L223.104 904.895 L213.439 904.895 Z" fill="#000000" fill-rule="nonzero" fill-opacity="1" /><path clip-path="url(#clip990)" d="M267.471 904.895 L258.985 904.895 L258.985 850.816 Q255.92 853.739 250.922 856.662 Q245.972 859.585 242.011 861.047 L242.011 852.843 Q249.13 849.495 254.458 844.733 Q259.786 839.971 262.002 835.492 L267.471 835.492 L267.471 904.895 Z" fill="#000000" fill-rule="nonzero" fill-opacity="1" /><path clip-path="url(#clip990)" d="M289.207 886.79 L298.118 886.036 Q299.108 892.542 302.691 895.843 Q306.322 899.096 311.414 899.096 Q317.543 899.096 321.787 894.475 Q326.03 889.855 326.03 882.217 Q326.03 874.956 321.928 870.759 Q317.873 866.563 311.272 866.563 Q307.171 866.563 303.87 868.449 Q300.57 870.288 298.684 873.258 L290.716 872.221 L297.411 836.718 L331.782 836.718 L331.782 844.828 L304.2 844.828 L300.475 863.404 Q306.699 859.067 313.536 859.067 Q322.588 859.067 328.812 865.337 Q335.035 871.608 335.035 881.462 Q335.035 890.845 329.566 897.681 Q322.918 906.074 311.414 906.074 Q301.984 906.074 295.996 900.793 Q290.056 895.512 289.207 886.79 Z" fill="#000000" fill-rule="nonzero" fill-opacity="1" /><path clip-path="url(#clip990)" d="M342.909 870.807 Q342.909 858.548 345.408 851.098 Q347.954 843.602 352.905 839.547 Q357.903 835.492 365.446 835.492 Q371.01 835.492 375.206 837.755 Q379.402 839.971 382.137 844.215 Q384.872 848.411 386.428 854.493 Q387.983 860.528 387.983 870.807 Q387.983 882.971 385.485 890.468 Q382.986 897.917 377.988 902.019 Q373.037 906.074 365.446 906.074 Q355.451 906.074 349.746 898.907 Q342.909 890.279 342.909 870.807 M351.632 870.807 Q351.632 887.827 355.592 893.485 Q359.6 899.096 365.446 899.096 Q371.293 899.096 375.253 893.438 Q379.261 887.78 379.261 870.807 Q379.261 853.739 375.253 848.128 Q371.293 842.517 365.352 842.517 Q359.506 842.517 356.017 847.468 Q351.632 853.786 351.632 870.807 Z" fill="#000000" fill-rule="nonzero" fill-opacity="1" /><path clip-path="url(#clip990)" d="M154.22 653.171 Q154.22 640.913 156.719 633.463 Q159.265 625.966 164.216 621.912 Q169.213 617.857 176.757 617.857 Q182.321 617.857 186.517 620.12 Q190.713 622.336 193.448 626.579 Q196.183 630.776 197.738 636.858 Q199.294 642.893 199.294 653.171 Q199.294 665.336 196.795 672.832 Q194.297 680.282 189.299 684.384 Q184.348 688.439 176.757 688.439 Q166.762 688.439 161.057 681.272 Q154.22 672.644 154.22 653.171 M162.943 653.171 Q162.943 670.192 166.903 675.85 Q170.911 681.461 176.757 681.461 Q182.604 681.461 186.564 675.803 Q190.572 670.145 190.572 653.171 Q190.572 636.103 186.564 630.493 Q182.604 624.882 176.663 624.882 Q170.817 624.882 167.327 629.833 Q162.943 636.151 162.943 653.171 Z" fill="#000000" fill-rule="nonzero" fill-opacity="1" /><path clip-path="url(#clip990)" d="M212.685 687.26 L212.685 677.594 L222.35 677.594 L222.35 687.26 L212.685 687.26 Z" fill="#000000" fill-rule="nonzero" fill-opacity="1" /><path clip-path="url(#clip990)" d="M266.717 687.26 L258.23 687.26 L258.23 633.18 Q255.166 636.103 250.168 639.027 Q245.217 641.95 241.257 643.412 L241.257 635.208 Q248.376 631.86 253.704 627.098 Q259.032 622.336 261.248 617.857 L266.717 617.857 L266.717 687.26 Z" fill="#000000" fill-rule="nonzero" fill-opacity="1" /><path clip-path="url(#clip990)" d="M289.018 627.192 L289.018 619.036 L333.762 619.036 L333.762 625.636 Q327.162 632.662 320.655 644.307 Q314.196 655.953 310.66 668.259 Q308.114 676.934 307.406 687.26 L298.684 687.26 Q298.825 679.103 301.89 667.552 Q304.955 656 310.66 645.297 Q316.412 634.548 322.871 627.192 L289.018 627.192 Z" fill="#000000" fill-rule="nonzero" fill-opacity="1" /><path clip-path="url(#clip990)" d="M342.155 669.155 L351.066 668.4 Q352.056 674.907 355.639 678.207 Q359.27 681.461 364.362 681.461 Q370.491 681.461 374.735 676.84 Q378.978 672.219 378.978 664.581 Q378.978 657.32 374.876 653.124 Q370.821 648.928 364.22 648.928 Q360.119 648.928 356.818 650.814 Q353.518 652.653 351.632 655.623 L343.664 654.586 L350.359 619.083 L384.73 619.083 L384.73 627.192 L357.148 627.192 L353.423 645.769 Q359.647 641.431 366.484 641.431 Q375.536 641.431 381.76 647.702 Q387.983 653.973 387.983 663.827 Q387.983 673.21 382.514 680.046 Q375.866 688.439 364.362 688.439 Q354.932 688.439 348.944 683.158 Q343.004 677.877 342.155 669.155 Z" fill="#000000" fill-rule="nonzero" fill-opacity="1" /><path clip-path="url(#clip990)" d="M154.975 435.536 Q154.975 423.277 157.473 415.828 Q160.019 408.331 164.97 404.276 Q169.968 400.222 177.512 400.222 Q183.075 400.222 187.271 402.485 Q191.468 404.701 194.202 408.944 Q196.937 413.14 198.493 419.223 Q200.049 425.258 200.049 435.536 Q200.049 447.7 197.55 455.197 Q195.051 462.647 190.053 466.748 Q185.103 470.803 177.512 470.803 Q167.516 470.803 161.811 463.637 Q154.975 455.008 154.975 435.536 M163.697 435.536 Q163.697 452.557 167.658 458.215 Q171.665 463.825 177.512 463.825 Q183.358 463.825 187.319 458.167 Q191.326 452.51 191.326 435.536 Q191.326 418.468 187.319 412.858 Q183.358 407.247 177.417 407.247 Q171.571 407.247 168.082 412.197 Q163.697 418.515 163.697 435.536 Z" fill="#000000" fill-rule="nonzero" fill-opacity="1" /><path clip-path="url(#clip990)" d="M213.439 469.625 L213.439 459.959 L223.104 459.959 L223.104 469.625 L213.439 469.625 Z" fill="#000000" fill-rule="nonzero" fill-opacity="1" /><path clip-path="url(#clip990)" d="M280.107 461.468 L280.107 469.625 L234.42 469.625 Q234.326 466.56 235.41 463.731 Q237.155 459.063 240.974 454.537 Q244.84 450.011 252.101 444.07 Q263.369 434.829 267.33 429.454 Q271.29 424.032 271.29 419.223 Q271.29 414.178 267.66 410.736 Q264.077 407.247 258.277 407.247 Q252.148 407.247 248.47 410.924 Q244.793 414.602 244.746 421.109 L236.023 420.213 Q236.919 410.453 242.765 405.361 Q248.612 400.222 258.466 400.222 Q268.414 400.222 274.214 405.738 Q280.013 411.254 280.013 419.411 Q280.013 423.56 278.316 427.568 Q276.618 431.576 272.658 436.008 Q268.744 440.439 259.598 448.172 Q251.959 454.584 249.791 456.894 Q247.622 459.158 246.207 461.468 L280.107 461.468 Z" fill="#000000" fill-rule="nonzero" fill-opacity="1" /><path clip-path="url(#clip990)" d="M289.207 435.536 Q289.207 423.277 291.706 415.828 Q294.252 408.331 299.202 404.276 Q304.2 400.222 311.744 400.222 Q317.308 400.222 321.504 402.485 Q325.7 404.701 328.435 408.944 Q331.169 413.14 332.725 419.223 Q334.281 425.258 334.281 435.536 Q334.281 447.7 331.782 455.197 Q329.283 462.647 324.286 466.748 Q319.335 470.803 311.744 470.803 Q301.748 470.803 296.043 463.637 Q289.207 455.008 289.207 435.536 M297.929 435.536 Q297.929 452.557 301.89 458.215 Q305.898 463.825 311.744 463.825 Q317.59 463.825 321.551 458.167 Q325.559 452.51 325.559 435.536 Q325.559 418.468 321.551 412.858 Q317.59 407.247 311.65 407.247 Q305.803 407.247 302.314 412.197 Q297.929 418.515 297.929 435.536 Z" fill="#000000" fill-rule="nonzero" fill-opacity="1" /><path clip-path="url(#clip990)" d="M342.909 435.536 Q342.909 423.277 345.408 415.828 Q347.954 408.331 352.905 404.276 Q357.903 400.222 365.446 400.222 Q371.01 400.222 375.206 402.485 Q379.402 404.701 382.137 408.944 Q384.872 413.14 386.428 419.223 Q387.983 425.258 387.983 435.536 Q387.983 447.7 385.485 455.197 Q382.986 462.647 377.988 466.748 Q373.037 470.803 365.446 470.803 Q355.451 470.803 349.746 463.637 Q342.909 455.008 342.909 435.536 M351.632 435.536 Q351.632 452.557 355.592 458.215 Q359.6 463.825 365.446 463.825 Q371.293 463.825 375.253 458.167 Q379.261 452.51 379.261 435.536 Q379.261 418.468 375.253 412.858 Q371.293 407.247 365.352 407.247 Q359.506 407.247 356.017 412.197 Q351.632 418.515 351.632 435.536 Z" fill="#000000" fill-rule="nonzero" fill-opacity="1" /><path clip-path="url(#clip990)" d="M154.22 217.901 Q154.22 205.642 156.719 198.193 Q159.265 190.696 164.216 186.641 Q169.213 182.586 176.757 182.586 Q182.321 182.586 186.517 184.85 Q190.713 187.066 193.448 191.309 Q196.183 195.505 197.738 201.587 Q199.294 207.622 199.294 217.901 Q199.294 230.065 196.795 237.562 Q194.297 245.011 189.299 249.113 Q184.348 253.168 176.757 253.168 Q166.762 253.168 161.057 246.001 Q154.22 237.373 154.22 217.901 M162.943 217.901 Q162.943 234.921 166.903 240.579 Q170.911 246.19 176.757 246.19 Q182.604 246.19 186.564 240.532 Q190.572 234.874 190.572 217.901 Q190.572 200.833 186.564 195.222 Q182.604 189.612 176.663 189.612 Q170.817 189.612 167.327 194.562 Q162.943 200.88 162.943 217.901 Z" fill="#000000" fill-rule="nonzero" fill-opacity="1" /><path clip-path="url(#clip990)" d="M212.685 251.989 L212.685 242.324 L222.35 242.324 L222.35 251.989 L212.685 251.989 Z" fill="#000000" fill-rule="nonzero" fill-opacity="1" /><path clip-path="url(#clip990)" d="M279.353 243.833 L279.353 251.989 L233.666 251.989 Q233.571 248.925 234.656 246.096 Q236.4 241.428 240.219 236.902 Q244.086 232.375 251.346 226.435 Q262.615 217.194 266.576 211.819 Q270.536 206.396 270.536 201.587 Q270.536 196.542 266.906 193.101 Q263.322 189.612 257.523 189.612 Q251.394 189.612 247.716 193.289 Q244.038 196.967 243.991 203.473 L235.269 202.577 Q236.165 192.818 242.011 187.726 Q247.857 182.586 257.712 182.586 Q267.66 182.586 273.459 188.103 Q279.259 193.619 279.259 201.776 Q279.259 205.925 277.561 209.933 Q275.864 213.94 271.903 218.372 Q267.99 222.804 258.843 230.537 Q251.205 236.949 249.036 239.259 Q246.867 241.522 245.453 243.833 L279.353 243.833 Z" fill="#000000" fill-rule="nonzero" fill-opacity="1" /><path clip-path="url(#clip990)" d="M333.055 243.833 L333.055 251.989 L287.368 251.989 Q287.274 248.925 288.358 246.096 Q290.103 241.428 293.922 236.902 Q297.788 232.375 305.049 226.435 Q316.317 217.194 320.278 211.819 Q324.238 206.396 324.238 201.587 Q324.238 196.542 320.608 193.101 Q317.025 189.612 311.225 189.612 Q305.096 189.612 301.418 193.289 Q297.741 196.967 297.694 203.473 L288.971 202.577 Q289.867 192.818 295.713 187.726 Q301.56 182.586 311.414 182.586 Q321.362 182.586 327.162 188.103 Q332.961 193.619 332.961 201.776 Q332.961 205.925 331.264 209.933 Q329.566 213.94 325.606 218.372 Q321.692 222.804 312.546 230.537 Q304.907 236.949 302.739 239.259 Q300.57 241.522 299.155 243.833 L333.055 243.833 Z" fill="#000000" fill-rule="nonzero" fill-opacity="1" /><path clip-path="url(#clip990)" d="M342.155 233.884 L351.066 233.13 Q352.056 239.636 355.639 242.937 Q359.27 246.19 364.362 246.19 Q370.491 246.19 374.735 241.569 Q378.978 236.949 378.978 229.311 Q378.978 222.05 374.876 217.854 Q370.821 213.657 364.22 213.657 Q360.119 213.657 356.818 215.543 Q353.518 217.382 351.632 220.352 L343.664 219.315 L350.359 183.812 L384.73 183.812 L384.73 191.922 L357.148 191.922 L353.423 210.498 Q359.647 206.161 366.484 206.161 Q375.536 206.161 381.76 212.432 Q387.983 218.702 387.983 228.556 Q387.983 237.939 382.514 244.776 Q375.866 253.168 364.362 253.168 Q354.932 253.168 348.944 247.887 Q343.004 242.607 342.155 233.884 Z" fill="#000000" fill-rule="nonzero" fill-opacity="1" /><path clip-path="url(#clip990)" d="M94.8922 867.905 L17.1322 867.905 L17.1322 858.357 L94.8922 858.357 L94.8922 867.905 Z" fill="#000000" fill-rule="nonzero" fill-opacity="1" /><path clip-path="url(#clip990)" d="M66.7267 847.112 Q51.0792 847.112 43.5472 838.413 Q37.2882 831.146 37.2882 820.697 Q37.2882 809.081 44.9263 801.708 Q52.5114 794.335 65.9311 794.335 Q76.8047 794.335 83.0637 797.623 Q89.2697 800.859 92.7174 807.118 Q96.1652 813.324 96.1652 820.697 Q96.1652 832.525 88.5801 839.845 Q80.9951 847.112 66.7267 847.112 M66.7267 837.299 Q77.5473 837.299 82.9576 832.578 Q88.3149 827.858 88.3149 820.697 Q88.3149 813.589 82.9046 808.868 Q77.4943 804.148 66.4084 804.148 Q55.9591 804.148 50.6018 808.921 Q45.1915 813.642 45.1915 820.697 Q45.1915 827.858 50.5488 832.578 Q55.9061 837.299 66.7267 837.299 Z" fill="#000000" fill-rule="nonzero" fill-opacity="1" /><path clip-path="url(#clip990)" d="M78.0778 786.962 L76.5926 777.52 Q82.2681 776.725 85.2915 773.118 Q88.3149 769.458 88.3149 762.934 Q88.3149 756.357 85.6628 753.174 Q82.9576 749.991 79.3508 749.991 Q76.1152 749.991 74.2587 752.803 Q72.9857 754.765 71.0231 762.563 Q68.371 773.065 66.4615 777.149 Q64.4989 781.18 61.1042 783.302 Q57.6565 785.371 53.5192 785.371 Q49.7532 785.371 46.5706 783.673 Q43.335 781.923 41.2134 778.953 Q39.569 776.725 38.4552 772.906 Q37.2882 769.034 37.2882 764.631 Q37.2882 758.001 39.1978 753.015 Q41.1073 747.976 44.3959 745.589 Q47.6315 743.202 53.0948 742.3 L54.3678 751.636 Q50.0184 752.272 47.5784 755.349 Q45.1385 758.372 45.1385 763.942 Q45.1385 770.519 47.3132 773.33 Q49.488 776.141 52.4053 776.141 Q54.2618 776.141 55.7469 774.974 Q57.2852 773.807 58.293 771.314 Q58.8234 769.882 60.7329 762.881 Q63.4381 752.75 65.1885 748.772 Q66.8858 744.74 70.1744 742.459 Q73.4631 740.179 78.343 740.179 Q83.1168 740.179 87.3602 742.99 Q91.5505 745.748 93.8844 750.999 Q96.1652 756.25 96.1652 762.881 Q96.1652 773.861 91.6035 779.642 Q87.0419 785.371 78.0778 786.962 Z" fill="#000000" fill-rule="nonzero" fill-opacity="1" /><path clip-path="url(#clip990)" d="M78.0778 732.647 L76.5926 723.205 Q82.2681 722.41 85.2915 718.803 Q88.3149 715.143 88.3149 708.619 Q88.3149 702.041 85.6628 698.859 Q82.9576 695.676 79.3508 695.676 Q76.1152 695.676 74.2587 698.487 Q72.9857 700.45 71.0231 708.247 Q68.371 718.75 66.4615 722.834 Q64.4989 726.865 61.1042 728.987 Q57.6565 731.055 53.5192 731.055 Q49.7532 731.055 46.5706 729.358 Q43.335 727.608 41.2134 724.637 Q39.569 722.41 38.4552 718.59 Q37.2882 714.718 37.2882 710.316 Q37.2882 703.686 39.1978 698.7 Q41.1073 693.661 44.3959 691.274 Q47.6315 688.887 53.0948 687.985 L54.3678 697.32 Q50.0184 697.957 47.5784 701.033 Q45.1385 704.057 45.1385 709.626 Q45.1385 716.204 47.3132 719.015 Q49.488 721.826 52.4053 721.826 Q54.2618 721.826 55.7469 720.659 Q57.2852 719.492 58.293 716.999 Q58.8234 715.567 60.7329 708.565 Q63.4381 698.434 65.1885 694.456 Q66.8858 690.425 70.1744 688.144 Q73.4631 685.863 78.343 685.863 Q83.1168 685.863 87.3602 688.675 Q91.5505 691.433 93.8844 696.684 Q96.1652 701.935 96.1652 708.565 Q96.1652 719.545 91.6035 725.327 Q87.0419 731.055 78.0778 732.647 Z" fill="#000000" fill-rule="nonzero" fill-opacity="1" /><polyline clip-path="url(#clip992)" style="stroke:#4477aa; stroke-linecap:round; stroke-linejoin:round; stroke-width:8; stroke-opacity:1; fill:none" points="478.571,88.5445 530.56,238.123 582.548,273.705 634.537,312.045 686.525,352.867 738.514,396.834 790.502,444.073 842.491,494.884 894.479,550.405 946.468,614.161 998.456,683.319 1050.44,748.729 1102.43,809.187 1154.42,864.838 1206.41,916.667 1258.4,964.924 1310.39,1010.08 1362.38,1052.22 1414.36,1091.95 1466.35,1129.21 1518.34,1164.33 1570.33,1197.19 1622.32,1228.03 1674.31,1256.75 1726.29,1283.3 1778.28,1307.8 1830.27,1330.4 1882.26,1351.17 1934.25,1370.13 1986.24,1387.48 2038.23,1403.44 2090.21,1417.98 2142.2,1431.45 2194.19,1443.74 2246.18,1454.94 2298.17,1465.22 "/>
<circle clip-path="url(#clip992)" cx="478.571" cy="88.5445" r="14.4" fill="#4477aa" fill-rule="evenodd" fill-opacity="1" stroke="#000000" stroke-opacity="1" stroke-width="3.6"/>
<circle clip-path="url(#clip992)" cx="530.56" cy="238.123" r="14.4" fill="#4477aa" fill-rule="evenodd" fill-opacity="1" stroke="#000000" stroke-opacity="1" stroke-width="3.6"/>
<circle clip-path="url(#clip992)" cx="582.548" cy="273.705" r="14.4" fill="#4477aa" fill-rule="evenodd" fill-opacity="1" stroke="#000000" stroke-opacity="1" stroke-width="3.6"/>
<circle clip-path="url(#clip992)" cx="634.537" cy="312.045" r="14.4" fill="#4477aa" fill-rule="evenodd" fill-opacity="1" stroke="#000000" stroke-opacity="1" stroke-width="3.6"/>
<circle clip-path="url(#clip992)" cx="686.525" cy="352.867" r="14.4" fill="#4477aa" fill-rule="evenodd" fill-opacity="1" stroke="#000000" stroke-opacity="1" stroke-width="3.6"/>
<circle clip-path="url(#clip992)" cx="738.514" cy="396.834" r="14.4" fill="#4477aa" fill-rule="evenodd" fill-opacity="1" stroke="#000000" stroke-opacity="1" stroke-width="3.6"/>
<circle clip-path="url(#clip992)" cx="790.502" cy="444.073" r="14.4" fill="#4477aa" fill-rule="evenodd" fill-opacity="1" stroke="#000000" stroke-opacity="1" stroke-width="3.6"/>
<circle clip-path="url(#clip992)" cx="842.491" cy="494.884" r="14.4" fill="#4477aa" fill-rule="evenodd" fill-opacity="1" stroke="#000000" stroke-opacity="1" stroke-width="3.6"/>
<circle clip-path="url(#clip992)" cx="894.479" cy="550.405" r="14.4" fill="#4477aa" fill-rule="evenodd" fill-opacity="1" stroke="#000000" stroke-opacity="1" stroke-width="3.6"/>
<circle clip-path="url(#clip992)" cx="946.468" cy="614.161" r="14.4" fill="#4477aa" fill-rule="evenodd" fill-opacity="1" stroke="#000000" stroke-opacity="1" stroke-width="3.6"/>
<circle clip-path="url(#clip992)" cx="998.456" cy="683.319" r="14.4" fill="#4477aa" fill-rule="evenodd" fill-opacity="1" stroke="#000000" stroke-opacity="1" stroke-width="3.6"/>
<circle clip-path="url(#clip992)" cx="1050.44" cy="748.729" r="14.4" fill="#4477aa" fill-rule="evenodd" fill-opacity="1" stroke="#000000" stroke-opacity="1" stroke-width="3.6"/>
<circle clip-path="url(#clip992)" cx="1102.43" cy="809.187" r="14.4" fill="#4477aa" fill-rule="evenodd" fill-opacity="1" stroke="#000000" stroke-opacity="1" stroke-width="3.6"/>
<circle clip-path="url(#clip992)" cx="1154.42" cy="864.838" r="14.4" fill="#4477aa" fill-rule="evenodd" fill-opacity="1" stroke="#000000" stroke-opacity="1" stroke-width="3.6"/>
<circle clip-path="url(#clip992)" cx="1206.41" cy="916.667" r="14.4" fill="#4477aa" fill-rule="evenodd" fill-opacity="1" stroke="#000000" stroke-opacity="1" stroke-width="3.6"/>
<circle clip-path="url(#clip992)" cx="1258.4" cy="964.924" r="14.4" fill="#4477aa" fill-rule="evenodd" fill-opacity="1" stroke="#000000" stroke-opacity="1" stroke-width="3.6"/>
<circle clip-path="url(#clip992)" cx="1310.39" cy="1010.08" r="14.4" fill="#4477aa" fill-rule="evenodd" fill-opacity="1" stroke="#000000" stroke-opacity="1" stroke-width="3.6"/>
<circle clip-path="url(#clip992)" cx="1362.38" cy="1052.22" r="14.4" fill="#4477aa" fill-rule="evenodd" fill-opacity="1" stroke="#000000" stroke-opacity="1" stroke-width="3.6"/>
<circle clip-path="url(#clip992)" cx="1414.36" cy="1091.95" r="14.4" fill="#4477aa" fill-rule="evenodd" fill-opacity="1" stroke="#000000" stroke-opacity="1" stroke-width="3.6"/>
<circle clip-path="url(#clip992)" cx="1466.35" cy="1129.21" r="14.4" fill="#4477aa" fill-rule="evenodd" fill-opacity="1" stroke="#000000" stroke-opacity="1" stroke-width="3.6"/>
<circle clip-path="url(#clip992)" cx="1518.34" cy="1164.33" r="14.4" fill="#4477aa" fill-rule="evenodd" fill-opacity="1" stroke="#000000" stroke-opacity="1" stroke-width="3.6"/>
<circle clip-path="url(#clip992)" cx="1570.33" cy="1197.19" r="14.4" fill="#4477aa" fill-rule="evenodd" fill-opacity="1" stroke="#000000" stroke-opacity="1" stroke-width="3.6"/>
<circle clip-path="url(#clip992)" cx="1622.32" cy="1228.03" r="14.4" fill="#4477aa" fill-rule="evenodd" fill-opacity="1" stroke="#000000" stroke-opacity="1" stroke-width="3.6"/>
<circle clip-path="url(#clip992)" cx="1674.31" cy="1256.75" r="14.4" fill="#4477aa" fill-rule="evenodd" fill-opacity="1" stroke="#000000" stroke-opacity="1" stroke-width="3.6"/>
<circle clip-path="url(#clip992)" cx="1726.29" cy="1283.3" r="14.4" fill="#4477aa" fill-rule="evenodd" fill-opacity="1" stroke="#000000" stroke-opacity="1" stroke-width="3.6"/>
<circle clip-path="url(#clip992)" cx="1778.28" cy="1307.8" r="14.4" fill="#4477aa" fill-rule="evenodd" fill-opacity="1" stroke="#000000" stroke-opacity="1" stroke-width="3.6"/>
<circle clip-path="url(#clip992)" cx="1830.27" cy="1330.4" r="14.4" fill="#4477aa" fill-rule="evenodd" fill-opacity="1" stroke="#000000" stroke-opacity="1" stroke-width="3.6"/>
<circle clip-path="url(#clip992)" cx="1882.26" cy="1351.17" r="14.4" fill="#4477aa" fill-rule="evenodd" fill-opacity="1" stroke="#000000" stroke-opacity="1" stroke-width="3.6"/>
<circle clip-path="url(#clip992)" cx="1934.25" cy="1370.13" r="14.4" fill="#4477aa" fill-rule="evenodd" fill-opacity="1" stroke="#000000" stroke-opacity="1" stroke-width="3.6"/>
<circle clip-path="url(#clip992)" cx="1986.24" cy="1387.48" r="14.4" fill="#4477aa" fill-rule="evenodd" fill-opacity="1" stroke="#000000" stroke-opacity="1" stroke-width="3.6"/>
<circle clip-path="url(#clip992)" cx="2038.23" cy="1403.44" r="14.4" fill="#4477aa" fill-rule="evenodd" fill-opacity="1" stroke="#000000" stroke-opacity="1" stroke-width="3.6"/>
<circle clip-path="url(#clip992)" cx="2090.21" cy="1417.98" r="14.4" fill="#4477aa" fill-rule="evenodd" fill-opacity="1" stroke="#000000" stroke-opacity="1" stroke-width="3.6"/>
<circle clip-path="url(#clip992)" cx="2142.2" cy="1431.45" r="14.4" fill="#4477aa" fill-rule="evenodd" fill-opacity="1" stroke="#000000" stroke-opacity="1" stroke-width="3.6"/>
<circle clip-path="url(#clip992)" cx="2194.19" cy="1443.74" r="14.4" fill="#4477aa" fill-rule="evenodd" fill-opacity="1" stroke="#000000" stroke-opacity="1" stroke-width="3.6"/>
<circle clip-path="url(#clip992)" cx="2246.18" cy="1454.94" r="14.4" fill="#4477aa" fill-rule="evenodd" fill-opacity="1" stroke="#000000" stroke-opacity="1" stroke-width="3.6"/>
<circle clip-path="url(#clip992)" cx="2298.17" cy="1465.22" r="14.4" fill="#4477aa" fill-rule="evenodd" fill-opacity="1" stroke="#000000" stroke-opacity="1" stroke-width="3.6"/>
<polyline clip-path="url(#clip992)" style="stroke:#ee6677; stroke-linecap:round; stroke-linejoin:round; stroke-width:8; stroke-opacity:1; fill:none" points="478.571,389.427 530.56,423.223 582.548,453.745 634.537,484.919 686.525,523.049 738.514,570.018 790.502,630.218 842.491,705.399 894.479,789.571 946.468,864.701 998.456,919.333 1050.44,961.459 1102.43,996.896 1154.42,1027.79 1206.41,1055.28 1258.4,1080.37 1310.39,1103.47 1362.38,1125.35 1414.36,1145.84 1466.35,1164.72 1518.34,1182.12 1570.33,1198.51 1622.32,1213.59 1674.31,1227.86 1726.29,1240.86 1778.28,1253.05 1830.27,1264.1 1882.26,1274.33 1934.25,1284.13 1986.24,1292.68 2038.23,1300.84 2090.21,1308.4 2142.2,1315.36 2194.19,1321.74 2246.18,1327.73 2298.17,1333.02 "/>
<circle clip-path="url(#clip992)" cx="478.571" cy="389.427" r="14.4" fill="#ee6677" fill-rule="evenodd" fill-opacity="1" stroke="#000000" stroke-opacity="1" stroke-width="3.6"/>
<circle clip-path="url(#clip992)" cx="530.56" cy="423.223" r="14.4" fill="#ee6677" fill-rule="evenodd" fill-opacity="1" stroke="#000000" stroke-opacity="1" stroke-width="3.6"/>
<circle clip-path="url(#clip992)" cx="582.548" cy="453.745" r="14.4" fill="#ee6677" fill-rule="evenodd" fill-opacity="1" stroke="#000000" stroke-opacity="1" stroke-width="3.6"/>
<circle clip-path="url(#clip992)" cx="634.537" cy="484.919" r="14.4" fill="#ee6677" fill-rule="evenodd" fill-opacity="1" stroke="#000000" stroke-opacity="1" stroke-width="3.6"/>
<circle clip-path="url(#clip992)" cx="686.525" cy="523.049" r="14.4" fill="#ee6677" fill-rule="evenodd" fill-opacity="1" stroke="#000000" stroke-opacity="1" stroke-width="3.6"/>
<circle clip-path="url(#clip992)" cx="738.514" cy="570.018" r="14.4" fill="#ee6677" fill-rule="evenodd" fill-opacity="1" stroke="#000000" stroke-opacity="1" stroke-width="3.6"/>
<circle clip-path="url(#clip992)" cx="790.502" cy="630.218" r="14.4" fill="#ee6677" fill-rule="evenodd" fill-opacity="1" stroke="#000000" stroke-opacity="1" stroke-width="3.6"/>
<circle clip-path="url(#clip992)" cx="842.491" cy="705.399" r="14.4" fill="#ee6677" fill-rule="evenodd" fill-opacity="1" stroke="#000000" stroke-opacity="1" stroke-width="3.6"/>
<circle clip-path="url(#clip992)" cx="894.479" cy="789.571" r="14.4" fill="#ee6677" fill-rule="evenodd" fill-opacity="1" stroke="#000000" stroke-opacity="1" stroke-width="3.6"/>
<circle clip-path="url(#clip992)" cx="946.468" cy="864.701" r="14.4" fill="#ee6677" fill-rule="evenodd" fill-opacity="1" stroke="#000000" stroke-opacity="1" stroke-width="3.6"/>
<circle clip-path="url(#clip992)" cx="998.456" cy="919.333" r="14.4" fill="#ee6677" fill-rule="evenodd" fill-opacity="1" stroke="#000000" stroke-opacity="1" stroke-width="3.6"/>
<circle clip-path="url(#clip992)" cx="1050.44" cy="961.459" r="14.4" fill="#ee6677" fill-rule="evenodd" fill-opacity="1" stroke="#000000" stroke-opacity="1" stroke-width="3.6"/>
<circle clip-path="url(#clip992)" cx="1102.43" cy="996.896" r="14.4" fill="#ee6677" fill-rule="evenodd" fill-opacity="1" stroke="#000000" stroke-opacity="1" stroke-width="3.6"/>
<circle clip-path="url(#clip992)" cx="1154.42" cy="1027.79" r="14.4" fill="#ee6677" fill-rule="evenodd" fill-opacity="1" stroke="#000000" stroke-opacity="1" stroke-width="3.6"/>
<circle clip-path="url(#clip992)" cx="1206.41" cy="1055.28" r="14.4" fill="#ee6677" fill-rule="evenodd" fill-opacity="1" stroke="#000000" stroke-opacity="1" stroke-width="3.6"/>
<circle clip-path="url(#clip992)" cx="1258.4" cy="1080.37" r="14.4" fill="#ee6677" fill-rule="evenodd" fill-opacity="1" stroke="#000000" stroke-opacity="1" stroke-width="3.6"/>
<circle clip-path="url(#clip992)" cx="1310.39" cy="1103.47" r="14.4" fill="#ee6677" fill-rule="evenodd" fill-opacity="1" stroke="#000000" stroke-opacity="1" stroke-width="3.6"/>
<circle clip-path="url(#clip992)" cx="1362.38" cy="1125.35" r="14.4" fill="#ee6677" fill-rule="evenodd" fill-opacity="1" stroke="#000000" stroke-opacity="1" stroke-width="3.6"/>
<circle clip-path="url(#clip992)" cx="1414.36" cy="1145.84" r="14.4" fill="#ee6677" fill-rule="evenodd" fill-opacity="1" stroke="#000000" stroke-opacity="1" stroke-width="3.6"/>
<circle clip-path="url(#clip992)" cx="1466.35" cy="1164.72" r="14.4" fill="#ee6677" fill-rule="evenodd" fill-opacity="1" stroke="#000000" stroke-opacity="1" stroke-width="3.6"/>
<circle clip-path="url(#clip992)" cx="1518.34" cy="1182.12" r="14.4" fill="#ee6677" fill-rule="evenodd" fill-opacity="1" stroke="#000000" stroke-opacity="1" stroke-width="3.6"/>
<circle clip-path="url(#clip992)" cx="1570.33" cy="1198.51" r="14.4" fill="#ee6677" fill-rule="evenodd" fill-opacity="1" stroke="#000000" stroke-opacity="1" stroke-width="3.6"/>
<circle clip-path="url(#clip992)" cx="1622.32" cy="1213.59" r="14.4" fill="#ee6677" fill-rule="evenodd" fill-opacity="1" stroke="#000000" stroke-opacity="1" stroke-width="3.6"/>
<circle clip-path="url(#clip992)" cx="1674.31" cy="1227.86" r="14.4" fill="#ee6677" fill-rule="evenodd" fill-opacity="1" stroke="#000000" stroke-opacity="1" stroke-width="3.6"/>
<circle clip-path="url(#clip992)" cx="1726.29" cy="1240.86" r="14.4" fill="#ee6677" fill-rule="evenodd" fill-opacity="1" stroke="#000000" stroke-opacity="1" stroke-width="3.6"/>
<circle clip-path="url(#clip992)" cx="1778.28" cy="1253.05" r="14.4" fill="#ee6677" fill-rule="evenodd" fill-opacity="1" stroke="#000000" stroke-opacity="1" stroke-width="3.6"/>
<circle clip-path="url(#clip992)" cx="1830.27" cy="1264.1" r="14.4" fill="#ee6677" fill-rule="evenodd" fill-opacity="1" stroke="#000000" stroke-opacity="1" stroke-width="3.6"/>
<circle clip-path="url(#clip992)" cx="1882.26" cy="1274.33" r="14.4" fill="#ee6677" fill-rule="evenodd" fill-opacity="1" stroke="#000000" stroke-opacity="1" stroke-width="3.6"/>
<circle clip-path="url(#clip992)" cx="1934.25" cy="1284.13" r="14.4" fill="#ee6677" fill-rule="evenodd" fill-opacity="1" stroke="#000000" stroke-opacity="1" stroke-width="3.6"/>
<circle clip-path="url(#clip992)" cx="1986.24" cy="1292.68" r="14.4" fill="#ee6677" fill-rule="evenodd" fill-opacity="1" stroke="#000000" stroke-opacity="1" stroke-width="3.6"/>
<circle clip-path="url(#clip992)" cx="2038.23" cy="1300.84" r="14.4" fill="#ee6677" fill-rule="evenodd" fill-opacity="1" stroke="#000000" stroke-opacity="1" stroke-width="3.6"/>
<circle clip-path="url(#clip992)" cx="2090.21" cy="1308.4" r="14.4" fill="#ee6677" fill-rule="evenodd" fill-opacity="1" stroke="#000000" stroke-opacity="1" stroke-width="3.6"/>
<circle clip-path="url(#clip992)" cx="2142.2" cy="1315.36" r="14.4" fill="#ee6677" fill-rule="evenodd" fill-opacity="1" stroke="#000000" stroke-opacity="1" stroke-width="3.6"/>
<circle clip-path="url(#clip992)" cx="2194.19" cy="1321.74" r="14.4" fill="#ee6677" fill-rule="evenodd" fill-opacity="1" stroke="#000000" stroke-opacity="1" stroke-width="3.6"/>
<circle clip-path="url(#clip992)" cx="2246.18" cy="1327.73" r="14.4" fill="#ee6677" fill-rule="evenodd" fill-opacity="1" stroke="#000000" stroke-opacity="1" stroke-width="3.6"/>
<circle clip-path="url(#clip992)" cx="2298.17" cy="1333.02" r="14.4" fill="#ee6677" fill-rule="evenodd" fill-opacity="1" stroke="#000000" stroke-opacity="1" stroke-width="3.6"/>
<path clip-path="url(#clip990)" d="M1636.77 445.807 L2288.46 445.807 L2288.46 95.8868 L1636.77 95.8868  Z" fill="#ffffff" fill-rule="evenodd" fill-opacity="1"/>
<polyline clip-path="url(#clip990)" style="stroke:#000000; stroke-linecap:round; stroke-linejoin:round; stroke-width:4; stroke-opacity:1; fill:none" points="1636.77,445.807 2288.46,445.807 2288.46,95.8868 1636.77,95.8868 1636.77,445.807 "/>
<polyline clip-path="url(#clip990)" style="stroke:#4477aa; stroke-linecap:round; stroke-linejoin:round; stroke-width:18; stroke-opacity:1; fill:none" points="1658.2,212.527 1786.79,212.527 "/>
<circle clip-path="url(#clip990)" cx="1722.49" cy="212.527" r="7.93734" fill="#4477aa" fill-rule="evenodd" fill-opacity="1" stroke="#000000" stroke-opacity="1" stroke-width="7.93734"/>
<path clip-path="url(#clip990)" d="M1834.31 242.867 L1835.69 251.301 Q1831.66 252.149 1828.48 252.149 Q1823.28 252.149 1820.42 250.505 Q1817.55 248.861 1816.39 246.209 Q1815.22 243.503 1815.22 234.911 L1815.22 202.502 L1808.22 202.502 L1808.22 195.076 L1815.22 195.076 L1815.22 181.126 L1824.71 175.397 L1824.71 195.076 L1834.31 195.076 L1834.31 202.502 L1824.71 202.502 L1824.71 235.441 Q1824.71 239.525 1825.19 240.692 Q1825.72 241.859 1826.83 242.549 Q1828 243.238 1830.12 243.238 Q1831.71 243.238 1834.31 242.867 Z" fill="#000000" fill-rule="nonzero" fill-opacity="1" /><path clip-path="url(#clip990)" d="M1843.54 251.407 L1843.54 195.076 L1852.14 195.076 L1852.14 203.616 Q1855.42 197.622 1858.18 195.712 Q1860.99 193.803 1864.34 193.803 Q1869.16 193.803 1874.15 196.879 L1870.86 205.737 Q1867.36 203.669 1863.86 203.669 Q1860.73 203.669 1858.24 205.578 Q1855.74 207.435 1854.68 210.776 Q1853.09 215.868 1853.09 221.915 L1853.09 251.407 L1843.54 251.407 Z" fill="#000000" fill-rule="nonzero" fill-opacity="1" /><path clip-path="url(#clip990)" d="M1916.58 244.458 Q1911.28 248.967 1906.35 250.823 Q1901.47 252.68 1895.84 252.68 Q1886.56 252.68 1881.57 248.171 Q1876.59 243.61 1876.59 236.555 Q1876.59 232.418 1878.44 229.023 Q1880.35 225.575 1883.38 223.507 Q1886.45 221.438 1890.27 220.377 Q1893.08 219.634 1898.76 218.945 Q1910.32 217.566 1915.79 215.656 Q1915.84 213.694 1915.84 213.163 Q1915.84 207.329 1913.13 204.942 Q1909.47 201.706 1902.26 201.706 Q1895.52 201.706 1892.29 204.093 Q1889.11 206.427 1887.57 212.421 L1878.23 211.148 Q1879.51 205.154 1882.42 201.494 Q1885.34 197.781 1890.86 195.818 Q1896.37 193.803 1903.64 193.803 Q1910.85 193.803 1915.36 195.5 Q1919.87 197.198 1921.99 199.797 Q1924.11 202.343 1924.96 206.268 Q1925.44 208.708 1925.44 215.073 L1925.44 227.803 Q1925.44 241.117 1926.02 244.67 Q1926.66 248.171 1928.46 251.407 L1918.49 251.407 Q1917.01 248.436 1916.58 244.458 M1915.79 223.135 Q1910.59 225.257 1900.19 226.742 Q1894.3 227.591 1891.86 228.652 Q1889.42 229.712 1888.1 231.781 Q1886.77 233.797 1886.77 236.29 Q1886.77 240.109 1889.64 242.655 Q1892.55 245.201 1898.12 245.201 Q1903.64 245.201 1907.94 242.814 Q1912.23 240.374 1914.25 236.184 Q1915.79 232.948 1915.79 226.636 L1915.79 223.135 Z" fill="#000000" fill-rule="nonzero" fill-opacity="1" /><path clip-path="url(#clip990)" d="M1940.29 184.627 L1940.29 173.647 L1949.84 173.647 L1949.84 184.627 L1940.29 184.627 M1940.29 251.407 L1940.29 195.076 L1949.84 195.076 L1949.84 251.407 L1940.29 251.407 Z" fill="#000000" fill-rule="nonzero" fill-opacity="1" /><path clip-path="url(#clip990)" d="M1964.37 251.407 L1964.37 195.076 L1972.97 195.076 L1972.97 203.085 Q1979.17 193.803 1990.89 193.803 Q1995.99 193.803 2000.23 195.659 Q2004.53 197.463 2006.65 200.433 Q2008.77 203.403 2009.62 207.488 Q2010.15 210.14 2010.15 216.77 L2010.15 251.407 L2000.6 251.407 L2000.6 217.141 Q2000.6 211.307 1999.49 208.442 Q1998.37 205.525 1995.51 203.828 Q1992.7 202.077 1988.88 202.077 Q1982.78 202.077 1978.32 205.95 Q1973.92 209.822 1973.92 220.642 L1973.92 251.407 L1964.37 251.407 Z" fill="#000000" fill-rule="nonzero" fill-opacity="1" /><path clip-path="url(#clip990)" d="M2015.98 272.995 L2015.98 266.099 L2079.26 266.099 L2079.26 272.995 L2015.98 272.995 Z" fill="#000000" fill-rule="nonzero" fill-opacity="1" /><path clip-path="url(#clip990)" d="M2084.99 251.407 L2084.99 173.647 L2094.54 173.647 L2094.54 251.407 L2084.99 251.407 Z" fill="#000000" fill-rule="nonzero" fill-opacity="1" /><path clip-path="url(#clip990)" d="M2105.78 223.241 Q2105.78 207.594 2114.48 200.062 Q2121.75 193.803 2132.2 193.803 Q2143.82 193.803 2151.19 201.441 Q2158.56 209.026 2158.56 222.446 Q2158.56 233.319 2155.27 239.578 Q2152.04 245.784 2145.78 249.232 Q2139.57 252.68 2132.2 252.68 Q2120.37 252.68 2113.05 245.095 Q2105.78 237.51 2105.78 223.241 M2115.6 223.241 Q2115.6 234.062 2120.32 239.472 Q2125.04 244.83 2132.2 244.83 Q2139.31 244.83 2144.03 239.419 Q2148.75 234.009 2148.75 222.923 Q2148.75 212.474 2143.97 207.116 Q2139.25 201.706 2132.2 201.706 Q2125.04 201.706 2120.32 207.063 Q2115.6 212.421 2115.6 223.241 Z" fill="#000000" fill-rule="nonzero" fill-opacity="1" /><path clip-path="url(#clip990)" d="M2165.93 234.592 L2175.38 233.107 Q2176.17 238.783 2179.78 241.806 Q2183.44 244.83 2189.96 244.83 Q2196.54 244.83 2199.72 242.177 Q2202.9 239.472 2202.9 235.865 Q2202.9 232.63 2200.09 230.773 Q2198.13 229.5 2190.33 227.538 Q2179.83 224.886 2175.75 222.976 Q2171.72 221.014 2169.59 217.619 Q2167.53 214.171 2167.53 210.034 Q2167.53 206.268 2169.22 203.085 Q2170.97 199.85 2173.94 197.728 Q2176.17 196.084 2179.99 194.97 Q2183.86 193.803 2188.26 193.803 Q2194.9 193.803 2199.88 195.712 Q2204.92 197.622 2207.31 200.91 Q2209.69 204.146 2210.6 209.609 L2201.26 210.882 Q2200.62 206.533 2197.55 204.093 Q2194.52 201.653 2188.95 201.653 Q2182.38 201.653 2179.57 203.828 Q2176.75 206.003 2176.75 208.92 Q2176.75 210.776 2177.92 212.262 Q2179.09 213.8 2181.58 214.808 Q2183.01 215.338 2190.02 217.248 Q2200.15 219.953 2204.12 221.703 Q2208.16 223.4 2210.44 226.689 Q2212.72 229.978 2212.72 234.858 Q2212.72 239.631 2209.91 243.875 Q2207.15 248.065 2201.9 250.399 Q2196.65 252.68 2190.02 252.68 Q2179.04 252.68 2173.25 248.118 Q2167.53 243.556 2165.93 234.592 Z" fill="#000000" fill-rule="nonzero" fill-opacity="1" /><path clip-path="url(#clip990)" d="M2220.25 234.592 L2229.69 233.107 Q2230.49 238.783 2234.09 241.806 Q2237.75 244.83 2244.28 244.83 Q2250.85 244.83 2254.04 242.177 Q2257.22 239.472 2257.22 235.865 Q2257.22 232.63 2254.41 230.773 Q2252.45 229.5 2244.65 227.538 Q2234.15 224.886 2230.06 222.976 Q2226.03 221.014 2223.91 217.619 Q2221.84 214.171 2221.84 210.034 Q2221.84 206.268 2223.54 203.085 Q2225.29 199.85 2228.26 197.728 Q2230.49 196.084 2234.31 194.97 Q2238.18 193.803 2242.58 193.803 Q2249.21 193.803 2254.2 195.712 Q2259.24 197.622 2261.62 200.91 Q2264.01 204.146 2264.91 209.609 L2255.58 210.882 Q2254.94 206.533 2251.86 204.093 Q2248.84 201.653 2243.27 201.653 Q2236.69 201.653 2233.88 203.828 Q2231.07 206.003 2231.07 208.92 Q2231.07 210.776 2232.24 212.262 Q2233.4 213.8 2235.9 214.808 Q2237.33 215.338 2244.33 217.248 Q2254.46 219.953 2258.44 221.703 Q2262.47 223.4 2264.75 226.689 Q2267.03 229.978 2267.03 234.858 Q2267.03 239.631 2264.22 243.875 Q2261.46 248.065 2256.21 250.399 Q2250.96 252.68 2244.33 252.68 Q2233.35 252.68 2227.57 248.118 Q2221.84 243.556 2220.25 234.592 Z" fill="#000000" fill-rule="nonzero" fill-opacity="1" /><polyline clip-path="url(#clip990)" style="stroke:#ee6677; stroke-linecap:round; stroke-linejoin:round; stroke-width:18; stroke-opacity:1; fill:none" points="1658.2,329.167 1786.79,329.167 "/>
<circle clip-path="url(#clip990)" cx="1722.49" cy="329.167" r="7.93734" fill="#ee6677" fill-rule="evenodd" fill-opacity="1" stroke="#000000" stroke-opacity="1" stroke-width="7.93734"/>
<path clip-path="url(#clip990)" d="M1829.65 368.047 L1808.22 311.716 L1818.29 311.716 L1830.39 345.451 Q1832.35 350.914 1834 356.802 Q1835.27 352.346 1837.55 346.087 L1850.07 311.716 L1859.88 311.716 L1838.56 368.047 L1829.65 368.047 Z" fill="#000000" fill-rule="nonzero" fill-opacity="1" /><path clip-path="url(#clip990)" d="M1905.07 361.098 Q1899.77 365.607 1894.83 367.463 Q1889.96 369.32 1884.33 369.32 Q1875.05 369.32 1870.06 364.811 Q1865.08 360.25 1865.08 353.195 Q1865.08 349.058 1866.93 345.663 Q1868.84 342.215 1871.87 340.147 Q1874.94 338.078 1878.76 337.017 Q1881.57 336.274 1887.25 335.585 Q1898.81 334.206 1904.28 332.296 Q1904.33 330.334 1904.33 329.803 Q1904.33 323.969 1901.62 321.582 Q1897.96 318.346 1890.75 318.346 Q1884.01 318.346 1880.78 320.733 Q1877.6 323.067 1876.06 329.061 L1866.72 327.788 Q1868 321.794 1870.91 318.134 Q1873.83 314.421 1879.35 312.458 Q1884.86 310.443 1892.13 310.443 Q1899.34 310.443 1903.85 312.14 Q1908.36 313.838 1910.48 316.437 Q1912.6 318.983 1913.45 322.908 Q1913.93 325.348 1913.93 331.713 L1913.93 344.443 Q1913.93 357.757 1914.51 361.31 Q1915.15 364.811 1916.95 368.047 L1906.98 368.047 Q1905.5 365.076 1905.07 361.098 M1904.28 339.775 Q1899.08 341.897 1888.68 343.382 Q1882.79 344.231 1880.35 345.292 Q1877.91 346.352 1876.59 348.421 Q1875.26 350.437 1875.26 352.93 Q1875.26 356.749 1878.13 359.295 Q1881.04 361.841 1886.61 361.841 Q1892.13 361.841 1896.43 359.454 Q1900.72 357.014 1902.74 352.824 Q1904.28 349.588 1904.28 343.276 L1904.28 339.775 Z" fill="#000000" fill-rule="nonzero" fill-opacity="1" /><path clip-path="url(#clip990)" d="M1928.52 368.047 L1928.52 290.287 L1938.06 290.287 L1938.06 368.047 L1928.52 368.047 Z" fill="#000000" fill-rule="nonzero" fill-opacity="1" /><path clip-path="url(#clip990)" d="M1944.06 389.635 L1944.06 382.739 L2007.34 382.739 L2007.34 389.635 L1944.06 389.635 Z" fill="#000000" fill-rule="nonzero" fill-opacity="1" /><path clip-path="url(#clip990)" d="M2013.07 368.047 L2013.07 290.287 L2022.61 290.287 L2022.61 368.047 L2013.07 368.047 Z" fill="#000000" fill-rule="nonzero" fill-opacity="1" /><path clip-path="url(#clip990)" d="M2033.86 339.881 Q2033.86 324.234 2042.56 316.702 Q2049.82 310.443 2060.27 310.443 Q2071.89 310.443 2079.26 318.081 Q2086.64 325.666 2086.64 339.086 Q2086.64 349.959 2083.35 356.218 Q2080.11 362.424 2073.85 365.872 Q2067.65 369.32 2060.27 369.32 Q2048.45 369.32 2041.13 361.735 Q2033.86 354.15 2033.86 339.881 M2043.67 339.881 Q2043.67 350.702 2048.39 356.112 Q2053.11 361.47 2060.27 361.47 Q2067.38 361.47 2072.1 356.059 Q2076.82 350.649 2076.82 339.563 Q2076.82 329.114 2072.05 323.756 Q2067.33 318.346 2060.27 318.346 Q2053.11 318.346 2048.39 323.703 Q2043.67 329.061 2043.67 339.881 Z" fill="#000000" fill-rule="nonzero" fill-opacity="1" /><path clip-path="url(#clip990)" d="M2094.01 351.232 L2103.45 349.747 Q2104.25 355.423 2107.85 358.446 Q2111.51 361.47 2118.04 361.47 Q2124.61 361.47 2127.8 358.817 Q2130.98 356.112 2130.98 352.505 Q2130.98 349.27 2128.17 347.413 Q2126.21 346.14 2118.41 344.178 Q2107.91 341.526 2103.82 339.616 Q2099.79 337.654 2097.67 334.259 Q2095.6 330.811 2095.6 326.674 Q2095.6 322.908 2097.3 319.725 Q2099.05 316.49 2102.02 314.368 Q2104.25 312.724 2108.06 311.61 Q2111.94 310.443 2116.34 310.443 Q2122.97 310.443 2127.96 312.352 Q2132.99 314.262 2135.38 317.55 Q2137.77 320.786 2138.67 326.249 L2129.33 327.522 Q2128.7 323.173 2125.62 320.733 Q2122.6 318.293 2117.03 318.293 Q2110.45 318.293 2107.64 320.468 Q2104.83 322.643 2104.83 325.56 Q2104.83 327.416 2106 328.902 Q2107.16 330.44 2109.66 331.448 Q2111.09 331.978 2118.09 333.888 Q2128.22 336.593 2132.2 338.343 Q2136.23 340.04 2138.51 343.329 Q2140.79 346.618 2140.79 351.498 Q2140.79 356.271 2137.98 360.515 Q2135.22 364.705 2129.97 367.039 Q2124.72 369.32 2118.09 369.32 Q2107.11 369.32 2101.33 364.758 Q2095.6 360.196 2094.01 351.232 Z" fill="#000000" fill-rule="nonzero" fill-opacity="1" /><path clip-path="url(#clip990)" d="M2148.32 351.232 L2157.77 349.747 Q2158.56 355.423 2162.17 358.446 Q2165.83 361.47 2172.35 361.47 Q2178.93 361.47 2182.11 358.817 Q2185.29 356.112 2185.29 352.505 Q2185.29 349.27 2182.48 347.413 Q2180.52 346.14 2172.72 344.178 Q2162.22 341.526 2158.14 339.616 Q2154.11 337.654 2151.98 334.259 Q2149.92 330.811 2149.92 326.674 Q2149.92 322.908 2151.61 319.725 Q2153.36 316.49 2156.33 314.368 Q2158.56 312.724 2162.38 311.61 Q2166.25 310.443 2170.65 310.443 Q2177.29 310.443 2182.27 312.352 Q2187.31 314.262 2189.7 317.55 Q2192.08 320.786 2192.99 326.249 L2183.65 327.522 Q2183.01 323.173 2179.94 320.733 Q2176.91 318.293 2171.34 318.293 Q2164.77 318.293 2161.96 320.468 Q2159.14 322.643 2159.14 325.56 Q2159.14 327.416 2160.31 328.902 Q2161.48 330.44 2163.97 331.448 Q2165.4 331.978 2172.41 333.888 Q2182.54 336.593 2186.51 338.343 Q2190.55 340.04 2192.83 343.329 Q2195.11 346.618 2195.11 351.498 Q2195.11 356.271 2192.3 360.515 Q2189.54 364.705 2184.29 367.039 Q2179.04 369.32 2172.41 369.32 Q2161.43 369.32 2155.64 364.758 Q2149.92 360.196 2148.32 351.232 Z" fill="#000000" fill-rule="nonzero" fill-opacity="1" /></svg>
