<?xml version="1.0" encoding="utf-8"?>
<svg xmlns="http://www.w3.org/2000/svg" xmlns:xlink="http://www.w3.org/1999/xlink" width="600" height="450" viewBox="0 0 2400 1800">
<defs>
  <clipPath id="clip150">
    <rect x="0" y="0" width="2400" height="1800"/>
  </clipPath>
</defs>
<path clip-path="url(#clip150)" d="M0 1800 L2400 1800 L2400 0 L0 0  Z" fill="#ffffff" fill-rule="evenodd" fill-opacity="1"/>
<defs>
  <clipPath id="clip151">
    <rect x="480" y="0" width="1681" height="1681"/>
  </clipPath>
</defs>
<defs>
  <clipPath id="clip152">
    <rect x="268" y="47" width="2085" height="1564"/>
  </clipPath>
</defs>
<path clip-path="url(#clip152)" d="M629.617 1196.86 L629.617 511.593 L1287.3 168.961 L2426.44 366.779 L2426.44 1052.04 L1768.76 1394.68 L629.617 1196.86  Z" fill="#ffffff" fill-rule="evenodd" fill-opacity="1"/>
<polyline clip-path="url(#clip150)" style="stroke:#000000; stroke-linecap:round; stroke-linejoin:round; stroke-width:4; stroke-opacity:1; fill:none" points="694.409,1301.67 1475.66,1527.2 "/>
<polyline clip-path="url(#clip150)" style="stroke:#000000; stroke-linecap:round; stroke-linejoin:round; stroke-width:2; stroke-opacity:0.5; fill:none" points="1145.47,129.793 1926.72,355.322 "/>
<polyline clip-path="url(#clip150)" style="stroke:#000000; stroke-linecap:round; stroke-linejoin:round; stroke-width:4; stroke-opacity:1; fill:none" points="824.802,1339.32 830.215,1334.63 "/>
<polyline clip-path="url(#clip150)" style="stroke:#000000; stroke-linecap:round; stroke-linejoin:round; stroke-width:4; stroke-opacity:1; fill:none" points="995.674,1388.64 1001.09,1383.95 "/>
<polyline clip-path="url(#clip150)" style="stroke:#000000; stroke-linecap:round; stroke-linejoin:round; stroke-width:4; stroke-opacity:1; fill:none" points="1166.55,1437.97 1171.96,1433.28 "/>
<polyline clip-path="url(#clip150)" style="stroke:#000000; stroke-linecap:round; stroke-linejoin:round; stroke-width:4; stroke-opacity:1; fill:none" points="1337.42,1487.29 1342.83,1482.61 "/>
<path clip-path="url(#clip150)" d="M684.699 1372.12 L639.059 1372.12 L639.059 1364.2 L684.699 1364.2 L684.699 1372.12 Z" fill="#000000" fill-rule="nonzero" fill-opacity="1" /><path clip-path="url(#clip150)" d="M694.082 1368.16 Q694.082 1355.9 696.581 1348.45 Q699.127 1340.96 704.077 1336.9 Q709.075 1332.85 716.619 1332.85 Q722.182 1332.85 726.379 1335.11 Q730.575 1337.33 733.31 1341.57 Q736.044 1345.77 737.6 1351.85 Q739.156 1357.88 739.156 1368.16 Q739.156 1380.33 736.657 1387.82 Q734.158 1395.27 729.16 1399.37 Q724.21 1403.43 716.619 1403.43 Q706.623 1403.43 700.918 1396.26 Q694.082 1387.63 694.082 1368.16 M702.804 1368.16 Q702.804 1385.18 706.765 1390.84 Q710.772 1396.45 716.619 1396.45 Q722.465 1396.45 726.426 1390.79 Q730.434 1385.14 730.434 1368.16 Q730.434 1351.09 726.426 1345.48 Q722.465 1339.87 716.525 1339.87 Q710.678 1339.87 707.189 1344.82 Q702.804 1351.14 702.804 1368.16 Z" fill="#000000" fill-rule="nonzero" fill-opacity="1" /><path clip-path="url(#clip150)" d="M752.546 1402.25 L752.546 1392.59 L762.212 1392.59 L762.212 1402.25 L752.546 1402.25 Z" fill="#000000" fill-rule="nonzero" fill-opacity="1" /><path clip-path="url(#clip150)" d="M818.649 1350.06 L810.209 1350.72 Q809.078 1345.72 807.003 1343.46 Q803.561 1339.83 798.516 1339.83 Q794.461 1339.83 791.397 1342.09 Q787.389 1345.01 785.079 1350.62 Q782.769 1356.23 782.674 1366.61 Q785.739 1361.94 790.171 1359.68 Q794.603 1357.41 799.459 1357.41 Q807.946 1357.41 813.887 1363.68 Q819.875 1369.91 819.875 1379.81 Q819.875 1386.31 817.046 1391.93 Q814.264 1397.49 809.36 1400.46 Q804.457 1403.43 798.233 1403.43 Q787.625 1403.43 780.93 1395.65 Q774.235 1387.82 774.235 1369.91 Q774.235 1349.87 781.637 1340.77 Q788.096 1332.85 799.035 1332.85 Q807.192 1332.85 812.378 1337.42 Q817.611 1341.99 818.649 1350.06 M783.994 1379.85 Q783.994 1384.24 785.833 1388.25 Q787.719 1392.26 791.067 1394.38 Q794.414 1396.45 798.092 1396.45 Q803.467 1396.45 807.333 1392.11 Q811.199 1387.78 811.199 1380.33 Q811.199 1373.16 807.38 1369.06 Q803.561 1364.91 797.762 1364.91 Q792.01 1364.91 788.002 1369.06 Q783.994 1373.16 783.994 1379.85 Z" fill="#000000" fill-rule="nonzero" fill-opacity="1" /><path clip-path="url(#clip150)" d="M855.524 1421.45 L809.884 1421.45 L809.884 1413.53 L855.524 1413.53 L855.524 1421.45 Z" fill="#000000" fill-rule="nonzero" fill-opacity="1" /><path clip-path="url(#clip150)" d="M864.906 1417.49 Q864.906 1405.23 867.405 1397.78 Q869.951 1390.28 874.902 1386.23 Q879.9 1382.17 887.443 1382.17 Q893.007 1382.17 897.203 1384.44 Q901.399 1386.65 904.134 1390.9 Q906.869 1395.09 908.424 1401.18 Q909.98 1407.21 909.98 1417.49 Q909.98 1429.65 907.482 1437.15 Q904.983 1444.6 899.985 1448.7 Q895.034 1452.76 887.443 1452.76 Q877.448 1452.76 871.743 1445.59 Q864.906 1436.96 864.906 1417.49 M873.629 1417.49 Q873.629 1434.51 877.589 1440.17 Q881.597 1445.78 887.443 1445.78 Q893.29 1445.78 897.25 1440.12 Q901.258 1434.46 901.258 1417.49 Q901.258 1400.42 897.25 1394.81 Q893.29 1389.2 887.349 1389.2 Q881.503 1389.2 878.014 1394.15 Q873.629 1400.47 873.629 1417.49 Z" fill="#000000" fill-rule="nonzero" fill-opacity="1" /><path clip-path="url(#clip150)" d="M923.371 1451.58 L923.371 1441.91 L933.036 1441.91 L933.036 1451.58 L923.371 1451.58 Z" fill="#000000" fill-rule="nonzero" fill-opacity="1" /><path clip-path="url(#clip150)" d="M945.483 1433.33 L953.97 1432.2 Q955.432 1439.41 958.921 1442.62 Q962.457 1445.78 967.502 1445.78 Q973.49 1445.78 977.592 1441.63 Q981.741 1437.48 981.741 1431.35 Q981.741 1425.5 977.922 1421.73 Q974.103 1417.91 968.209 1417.91 Q965.804 1417.91 962.221 1418.86 L963.164 1411.41 Q964.013 1411.5 964.531 1411.5 Q969.954 1411.5 974.291 1408.67 Q978.629 1405.84 978.629 1399.95 Q978.629 1395.28 975.47 1392.22 Q972.311 1389.15 967.313 1389.15 Q962.363 1389.15 959.062 1392.26 Q955.762 1395.38 954.819 1401.6 L946.332 1400.09 Q947.888 1391.56 953.404 1386.89 Q958.921 1382.17 967.125 1382.17 Q972.782 1382.17 977.544 1384.63 Q982.306 1387.03 984.805 1391.23 Q987.351 1395.42 987.351 1400.14 Q987.351 1404.62 984.947 1408.29 Q982.542 1411.97 977.827 1414.14 Q983.957 1415.56 987.351 1420.03 Q990.746 1424.47 990.746 1431.16 Q990.746 1440.21 984.145 1446.53 Q977.544 1452.8 967.455 1452.8 Q958.355 1452.8 952.32 1447.38 Q946.332 1441.96 945.483 1433.33 Z" fill="#000000" fill-rule="nonzero" fill-opacity="1" /><path clip-path="url(#clip150)" d="M1036.01 1466.81 Q1036.01 1454.56 1038.51 1447.11 Q1041.06 1439.61 1046.01 1435.56 Q1051.01 1431.5 1058.55 1431.5 Q1064.11 1431.5 1068.31 1433.76 Q1072.51 1435.98 1075.24 1440.22 Q1077.98 1444.42 1079.53 1450.5 Q1081.09 1456.54 1081.09 1466.81 Q1081.09 1478.98 1078.59 1486.48 Q1076.09 1493.93 1071.09 1498.03 Q1066.14 1502.08 1058.55 1502.08 Q1048.56 1502.08 1042.85 1494.92 Q1036.01 1486.29 1036.01 1466.81 M1044.74 1466.81 Q1044.74 1483.84 1048.7 1489.49 Q1052.7 1495.1 1058.55 1495.1 Q1064.4 1495.1 1068.36 1489.45 Q1072.37 1483.79 1072.37 1466.81 Q1072.37 1449.75 1068.36 1444.14 Q1064.4 1438.53 1058.46 1438.53 Q1052.61 1438.53 1049.12 1443.48 Q1044.74 1449.79 1044.74 1466.81 Z" fill="#000000" fill-rule="nonzero" fill-opacity="1" /><path clip-path="url(#clip150)" d="M1094.48 1500.9 L1094.48 1491.24 L1104.14 1491.24 L1104.14 1500.9 L1094.48 1500.9 Z" fill="#000000" fill-rule="nonzero" fill-opacity="1" /><path clip-path="url(#clip150)" d="M1116.54 1466.81 Q1116.54 1454.56 1119.04 1447.11 Q1121.59 1439.61 1126.54 1435.56 Q1131.54 1431.5 1139.08 1431.5 Q1144.64 1431.5 1148.84 1433.76 Q1153.04 1435.98 1155.77 1440.22 Q1158.51 1444.42 1160.06 1450.5 Q1161.62 1456.54 1161.62 1466.81 Q1161.62 1478.98 1159.12 1486.48 Q1156.62 1493.93 1151.62 1498.03 Q1146.67 1502.08 1139.08 1502.08 Q1129.09 1502.08 1123.38 1494.92 Q1116.54 1486.29 1116.54 1466.81 M1125.27 1466.81 Q1125.27 1483.84 1129.23 1489.49 Q1133.23 1495.1 1139.08 1495.1 Q1144.93 1495.1 1148.89 1489.45 Q1152.9 1483.79 1152.9 1466.81 Q1152.9 1449.75 1148.89 1444.14 Q1144.93 1438.53 1138.99 1438.53 Q1133.14 1438.53 1129.65 1443.48 Q1125.27 1449.79 1125.27 1466.81 Z" fill="#000000" fill-rule="nonzero" fill-opacity="1" /><path clip-path="url(#clip150)" d="M1206.65 1516.14 Q1206.65 1503.88 1209.15 1496.43 Q1211.69 1488.94 1216.64 1484.88 Q1221.64 1480.83 1229.19 1480.83 Q1234.75 1480.83 1238.95 1483.09 Q1243.14 1485.31 1245.88 1489.55 Q1248.61 1493.75 1250.17 1499.83 Q1251.72 1505.86 1251.72 1516.14 Q1251.72 1528.31 1249.22 1535.8 Q1246.73 1543.25 1241.73 1547.35 Q1236.78 1551.41 1229.19 1551.41 Q1219.19 1551.41 1213.49 1544.24 Q1206.65 1535.61 1206.65 1516.14 M1215.37 1516.14 Q1215.37 1533.16 1219.33 1538.82 Q1223.34 1544.43 1229.19 1544.43 Q1235.03 1544.43 1238.99 1538.77 Q1243 1533.11 1243 1516.14 Q1243 1499.07 1238.99 1493.46 Q1235.03 1487.85 1229.09 1487.85 Q1223.25 1487.85 1219.76 1492.8 Q1215.37 1499.12 1215.37 1516.14 Z" fill="#000000" fill-rule="nonzero" fill-opacity="1" /><path clip-path="url(#clip150)" d="M1265.11 1550.23 L1265.11 1540.56 L1274.78 1540.56 L1274.78 1550.23 L1265.11 1550.23 Z" fill="#000000" fill-rule="nonzero" fill-opacity="1" /><path clip-path="url(#clip150)" d="M1287.23 1531.98 L1295.71 1530.85 Q1297.17 1538.07 1300.66 1541.27 Q1304.2 1544.43 1309.24 1544.43 Q1315.23 1544.43 1319.33 1540.28 Q1323.48 1536.13 1323.48 1530 Q1323.48 1524.16 1319.66 1520.38 Q1315.85 1516.57 1309.95 1516.57 Q1307.55 1516.57 1303.96 1517.51 L1304.91 1510.06 Q1305.76 1510.15 1306.27 1510.15 Q1311.7 1510.15 1316.03 1507.32 Q1320.37 1504.5 1320.37 1498.6 Q1320.37 1493.93 1317.21 1490.87 Q1314.05 1487.8 1309.06 1487.8 Q1304.11 1487.8 1300.81 1490.92 Q1297.5 1494.03 1296.56 1500.25 L1288.08 1498.74 Q1289.63 1490.21 1295.15 1485.54 Q1300.66 1480.83 1308.87 1480.83 Q1314.53 1480.83 1319.29 1483.28 Q1324.05 1485.68 1326.55 1489.88 Q1329.09 1494.08 1329.09 1498.79 Q1329.09 1503.27 1326.69 1506.95 Q1324.29 1510.62 1319.57 1512.79 Q1325.7 1514.21 1329.09 1518.69 Q1332.49 1523.12 1332.49 1529.81 Q1332.49 1538.87 1325.89 1545.18 Q1319.29 1551.46 1309.2 1551.46 Q1300.1 1551.46 1294.06 1546.03 Q1288.08 1540.61 1287.23 1531.98 Z" fill="#000000" fill-rule="nonzero" fill-opacity="1" /><polyline clip-path="url(#clip150)" style="stroke:#000000; stroke-linecap:round; stroke-linejoin:round; stroke-width:4; stroke-opacity:1; fill:none" points="1475.66,1527.2 1926.72,1136.58 "/>
<polyline clip-path="url(#clip150)" style="stroke:#000000; stroke-linecap:round; stroke-linejoin:round; stroke-width:2; stroke-opacity:0.5; fill:none" points="694.409,520.42 1145.47,129.793 "/>
<polyline clip-path="url(#clip150)" style="stroke:#000000; stroke-linecap:round; stroke-linejoin:round; stroke-width:4; stroke-opacity:1; fill:none" points="1516.85,1491.54 1507.47,1488.83 "/>
<polyline clip-path="url(#clip150)" style="stroke:#000000; stroke-linecap:round; stroke-linejoin:round; stroke-width:4; stroke-opacity:1; fill:none" points="1615.76,1405.88 1606.38,1403.17 "/>
<polyline clip-path="url(#clip150)" style="stroke:#000000; stroke-linecap:round; stroke-linejoin:round; stroke-width:4; stroke-opacity:1; fill:none" points="1714.67,1320.22 1705.29,1317.51 "/>
<polyline clip-path="url(#clip150)" style="stroke:#000000; stroke-linecap:round; stroke-linejoin:round; stroke-width:4; stroke-opacity:1; fill:none" points="1813.58,1234.56 1804.2,1231.85 "/>
<polyline clip-path="url(#clip150)" style="stroke:#000000; stroke-linecap:round; stroke-linejoin:round; stroke-width:4; stroke-opacity:1; fill:none" points="1912.49,1148.9 1903.11,1146.2 "/>
<path clip-path="url(#clip150)" d="M1575.79 1521.51 L1530.15 1521.51 L1530.15 1513.59 L1575.79 1513.59 L1575.79 1521.51 Z" fill="#000000" fill-rule="nonzero" fill-opacity="1" /><path clip-path="url(#clip150)" d="M1617.14 1551.64 L1608.66 1551.64 L1608.66 1497.56 Q1605.59 1500.48 1600.59 1503.4 Q1595.64 1506.33 1591.68 1507.79 L1591.68 1499.58 Q1598.8 1496.24 1604.13 1491.48 Q1609.46 1486.71 1611.67 1482.23 L1617.14 1482.23 L1617.14 1551.64 Z" fill="#000000" fill-rule="nonzero" fill-opacity="1" /><path clip-path="url(#clip150)" d="M1643.64 1551.64 L1643.64 1541.97 L1653.31 1541.97 L1653.31 1551.64 L1643.64 1551.64 Z" fill="#000000" fill-rule="nonzero" fill-opacity="1" /><path clip-path="url(#clip150)" d="M1665.71 1517.55 Q1665.71 1505.29 1668.21 1497.84 Q1670.75 1490.34 1675.7 1486.29 Q1680.7 1482.23 1688.24 1482.23 Q1693.81 1482.23 1698 1484.5 Q1702.2 1486.71 1704.93 1490.96 Q1707.67 1495.15 1709.23 1501.23 Q1710.78 1507.27 1710.78 1517.55 Q1710.78 1529.71 1708.28 1537.21 Q1705.78 1544.66 1700.79 1548.76 Q1695.84 1552.82 1688.24 1552.82 Q1678.25 1552.82 1672.54 1545.65 Q1665.71 1537.02 1665.71 1517.55 M1674.43 1517.55 Q1674.43 1534.57 1678.39 1540.23 Q1682.4 1545.84 1688.24 1545.84 Q1694.09 1545.84 1698.05 1540.18 Q1702.06 1534.52 1702.06 1517.55 Q1702.06 1500.48 1698.05 1494.87 Q1694.09 1489.26 1688.15 1489.26 Q1682.3 1489.26 1678.81 1494.21 Q1674.43 1500.53 1674.43 1517.55 Z" fill="#000000" fill-rule="nonzero" fill-opacity="1" /><path clip-path="url(#clip150)" d="M1674.7 1435.85 L1629.06 1435.85 L1629.06 1427.93 L1674.7 1427.93 L1674.7 1435.85 Z" fill="#000000" fill-rule="nonzero" fill-opacity="1" /><path clip-path="url(#clip150)" d="M1684.09 1431.89 Q1684.09 1419.63 1686.59 1412.18 Q1689.13 1404.69 1694.08 1400.63 Q1699.08 1396.58 1706.62 1396.58 Q1712.19 1396.58 1716.38 1398.84 Q1720.58 1401.06 1723.31 1405.3 Q1726.05 1409.49 1727.6 1415.58 Q1729.16 1421.61 1729.16 1431.89 Q1729.16 1444.05 1726.66 1451.55 Q1724.16 1459 1719.17 1463.1 Q1714.21 1467.16 1706.62 1467.16 Q1696.63 1467.16 1690.92 1459.99 Q1684.09 1451.36 1684.09 1431.89 M1692.81 1431.89 Q1692.81 1448.91 1696.77 1454.57 Q1700.78 1460.18 1706.62 1460.18 Q1712.47 1460.18 1716.43 1454.52 Q1720.44 1448.86 1720.44 1431.89 Q1720.44 1414.82 1716.43 1409.21 Q1712.47 1403.6 1706.53 1403.6 Q1700.68 1403.6 1697.19 1408.55 Q1692.81 1414.87 1692.81 1431.89 Z" fill="#000000" fill-rule="nonzero" fill-opacity="1" /><path clip-path="url(#clip150)" d="M1742.55 1465.98 L1742.55 1456.31 L1752.22 1456.31 L1752.22 1465.98 L1742.55 1465.98 Z" fill="#000000" fill-rule="nonzero" fill-opacity="1" /><path clip-path="url(#clip150)" d="M1764.62 1447.87 L1773.53 1447.12 Q1774.52 1453.63 1778.1 1456.93 Q1781.73 1460.18 1786.82 1460.18 Q1792.95 1460.18 1797.2 1455.56 Q1801.44 1450.94 1801.44 1443.3 Q1801.44 1436.04 1797.34 1431.84 Q1793.28 1427.65 1786.68 1427.65 Q1782.58 1427.65 1779.28 1429.53 Q1775.98 1431.37 1774.09 1434.34 L1766.13 1433.3 L1772.82 1397.8 L1807.19 1397.8 L1807.19 1405.91 L1779.61 1405.91 L1775.88 1424.49 Q1782.11 1420.15 1788.95 1420.15 Q1798 1420.15 1804.22 1426.42 Q1810.44 1432.69 1810.44 1442.55 Q1810.44 1451.93 1804.98 1458.77 Q1798.33 1467.16 1786.82 1467.16 Q1777.39 1467.16 1771.41 1461.88 Q1765.47 1456.6 1764.62 1447.87 Z" fill="#000000" fill-rule="nonzero" fill-opacity="1" /><path clip-path="url(#clip150)" d="M1727.97 1346.23 Q1727.97 1333.97 1730.47 1326.52 Q1733.02 1319.03 1737.97 1314.97 Q1742.97 1310.92 1750.51 1310.92 Q1756.07 1310.92 1760.27 1313.18 Q1764.47 1315.4 1767.2 1319.64 Q1769.94 1323.84 1771.49 1329.92 Q1773.05 1335.95 1773.05 1346.23 Q1773.05 1358.4 1770.55 1365.89 Q1768.05 1373.34 1763.05 1377.44 Q1758.1 1381.5 1750.51 1381.5 Q1740.51 1381.5 1734.81 1374.33 Q1727.97 1365.7 1727.97 1346.23 M1736.7 1346.23 Q1736.7 1363.25 1740.66 1368.91 Q1744.66 1374.52 1750.51 1374.52 Q1756.36 1374.52 1760.32 1368.86 Q1764.32 1363.21 1764.32 1346.23 Q1764.32 1329.16 1760.32 1323.55 Q1756.36 1317.94 1750.42 1317.94 Q1744.57 1317.94 1741.08 1322.89 Q1736.7 1329.21 1736.7 1346.23 Z" fill="#000000" fill-rule="nonzero" fill-opacity="1" /><path clip-path="url(#clip150)" d="M1786.44 1380.32 L1786.44 1370.66 L1796.1 1370.66 L1796.1 1380.32 L1786.44 1380.32 Z" fill="#000000" fill-rule="nonzero" fill-opacity="1" /><path clip-path="url(#clip150)" d="M1808.5 1346.23 Q1808.5 1333.97 1811 1326.52 Q1813.55 1319.03 1818.5 1314.97 Q1823.5 1310.92 1831.04 1310.92 Q1836.6 1310.92 1840.8 1313.18 Q1845 1315.4 1847.73 1319.64 Q1850.47 1323.84 1852.02 1329.92 Q1853.58 1335.95 1853.58 1346.23 Q1853.58 1358.4 1851.08 1365.89 Q1848.58 1373.34 1843.58 1377.44 Q1838.63 1381.5 1831.04 1381.5 Q1821.04 1381.5 1815.34 1374.33 Q1808.5 1365.7 1808.5 1346.23 M1817.23 1346.23 Q1817.23 1363.25 1821.19 1368.91 Q1825.19 1374.52 1831.04 1374.52 Q1836.89 1374.52 1840.85 1368.86 Q1844.85 1363.21 1844.85 1346.23 Q1844.85 1329.16 1840.85 1323.55 Q1836.89 1317.94 1830.95 1317.94 Q1825.1 1317.94 1821.61 1322.89 Q1817.23 1329.21 1817.23 1346.23 Z" fill="#000000" fill-rule="nonzero" fill-opacity="1" /><path clip-path="url(#clip150)" d="M1826.88 1260.57 Q1826.88 1248.32 1829.38 1240.87 Q1831.93 1233.37 1836.88 1229.31 Q1841.88 1225.26 1849.42 1225.26 Q1854.98 1225.26 1859.18 1227.52 Q1863.38 1229.74 1866.11 1233.98 Q1868.84 1238.18 1870.4 1244.26 Q1871.96 1250.3 1871.96 1260.57 Q1871.96 1272.74 1869.46 1280.24 Q1866.96 1287.68 1861.96 1291.79 Q1857.01 1295.84 1849.42 1295.84 Q1839.42 1295.84 1833.72 1288.68 Q1826.88 1280.05 1826.88 1260.57 M1835.61 1260.57 Q1835.61 1277.6 1839.57 1283.25 Q1843.57 1288.86 1849.42 1288.86 Q1855.27 1288.86 1859.23 1283.21 Q1863.23 1277.55 1863.23 1260.57 Q1863.23 1243.51 1859.23 1237.9 Q1855.27 1232.29 1849.33 1232.29 Q1843.48 1232.29 1839.99 1237.24 Q1835.61 1243.55 1835.61 1260.57 Z" fill="#000000" fill-rule="nonzero" fill-opacity="1" /><path clip-path="url(#clip150)" d="M1885.35 1294.66 L1885.35 1285 L1895.01 1285 L1895.01 1294.66 L1885.35 1294.66 Z" fill="#000000" fill-rule="nonzero" fill-opacity="1" /><path clip-path="url(#clip150)" d="M1907.41 1276.56 L1916.32 1275.8 Q1917.31 1282.31 1920.9 1285.61 Q1924.53 1288.86 1929.62 1288.86 Q1935.75 1288.86 1939.99 1284.24 Q1944.24 1279.62 1944.24 1271.98 Q1944.24 1264.72 1940.13 1260.53 Q1936.08 1256.33 1929.48 1256.33 Q1925.38 1256.33 1922.08 1258.22 Q1918.78 1260.06 1916.89 1263.03 L1908.92 1261.99 L1915.62 1226.49 L1949.99 1226.49 L1949.99 1234.6 L1922.41 1234.6 L1918.68 1253.17 Q1924.9 1248.83 1931.74 1248.83 Q1940.79 1248.83 1947.02 1255.11 Q1953.24 1261.38 1953.24 1271.23 Q1953.24 1280.61 1947.77 1287.45 Q1941.12 1295.84 1929.62 1295.84 Q1920.19 1295.84 1914.2 1290.56 Q1908.26 1285.28 1907.41 1276.56 Z" fill="#000000" fill-rule="nonzero" fill-opacity="1" /><path clip-path="url(#clip150)" d="M1951.25 1209 L1942.77 1209 L1942.77 1154.93 Q1939.7 1157.85 1934.7 1160.77 Q1929.75 1163.7 1925.79 1165.16 L1925.79 1156.95 Q1932.91 1153.61 1938.24 1148.84 Q1943.57 1144.08 1945.78 1139.6 L1951.25 1139.6 L1951.25 1209 Z" fill="#000000" fill-rule="nonzero" fill-opacity="1" /><path clip-path="url(#clip150)" d="M1977.75 1209 L1977.75 1199.34 L1987.42 1199.34 L1987.42 1209 L1977.75 1209 Z" fill="#000000" fill-rule="nonzero" fill-opacity="1" /><path clip-path="url(#clip150)" d="M1999.82 1174.92 Q1999.82 1162.66 2002.31 1155.21 Q2004.86 1147.71 2009.81 1143.66 Q2014.81 1139.6 2022.35 1139.6 Q2027.92 1139.6 2032.11 1141.87 Q2036.31 1144.08 2039.04 1148.32 Q2041.78 1152.52 2043.33 1158.6 Q2044.89 1164.64 2044.89 1174.92 Q2044.89 1187.08 2042.39 1194.58 Q2039.89 1202.03 2034.89 1206.13 Q2029.94 1210.18 2022.35 1210.18 Q2012.36 1210.18 2006.65 1203.02 Q1999.82 1194.39 1999.82 1174.92 M2008.54 1174.92 Q2008.54 1191.94 2012.5 1197.59 Q2016.51 1203.21 2022.35 1203.21 Q2028.2 1203.21 2032.16 1197.55 Q2036.17 1191.89 2036.17 1174.92 Q2036.17 1157.85 2032.16 1152.24 Q2028.2 1146.63 2022.26 1146.63 Q2016.41 1146.63 2012.92 1151.58 Q2008.54 1157.9 2008.54 1174.92 Z" fill="#000000" fill-rule="nonzero" fill-opacity="1" /><polyline clip-path="url(#clip150)" style="stroke:#000000; stroke-linecap:round; stroke-linejoin:round; stroke-width:4; stroke-opacity:1; fill:none" points="694.409,1301.67 694.409,520.42 "/>
<polyline clip-path="url(#clip150)" style="stroke:#000000; stroke-linecap:round; stroke-linejoin:round; stroke-width:2; stroke-opacity:0.5; fill:none" points="1926.72,1136.58 1926.72,355.322 "/>
<polyline clip-path="url(#clip150)" style="stroke:#000000; stroke-linecap:round; stroke-linejoin:round; stroke-width:4; stroke-opacity:1; fill:none" points="694.409,1276.8 699.822,1272.11 "/>
<polyline clip-path="url(#clip150)" style="stroke:#000000; stroke-linecap:round; stroke-linejoin:round; stroke-width:4; stroke-opacity:1; fill:none" points="694.409,1107.37 699.822,1102.68 "/>
<polyline clip-path="url(#clip150)" style="stroke:#000000; stroke-linecap:round; stroke-linejoin:round; stroke-width:4; stroke-opacity:1; fill:none" points="694.409,937.934 699.822,933.247 "/>
<polyline clip-path="url(#clip150)" style="stroke:#000000; stroke-linecap:round; stroke-linejoin:round; stroke-width:4; stroke-opacity:1; fill:none" points="694.409,768.504 699.822,763.816 "/>
<polyline clip-path="url(#clip150)" style="stroke:#000000; stroke-linecap:round; stroke-linejoin:round; stroke-width:4; stroke-opacity:1; fill:none" points="694.409,599.073 699.822,594.385 "/>
<path clip-path="url(#clip150)" d="M530.622 1281.23 L484.982 1281.23 L484.982 1273.31 L530.622 1273.31 L530.622 1281.23 Z" fill="#000000" fill-rule="nonzero" fill-opacity="1" /><path clip-path="url(#clip150)" d="M571.972 1311.36 L563.485 1311.36 L563.485 1257.28 Q560.42 1260.2 555.423 1263.12 Q550.472 1266.05 546.511 1267.51 L546.511 1259.3 Q553.631 1255.96 558.959 1251.19 Q564.286 1246.43 566.502 1241.95 L571.972 1241.95 L571.972 1311.36 Z" fill="#000000" fill-rule="nonzero" fill-opacity="1" /><path clip-path="url(#clip150)" d="M598.469 1311.36 L598.469 1301.69 L608.135 1301.69 L608.135 1311.36 L598.469 1311.36 Z" fill="#000000" fill-rule="nonzero" fill-opacity="1" /><path clip-path="url(#clip150)" d="M620.535 1277.27 Q620.535 1265.01 623.034 1257.56 Q625.58 1250.06 630.53 1246.01 Q635.528 1241.95 643.072 1241.95 Q648.636 1241.95 652.832 1244.22 Q657.028 1246.43 659.763 1250.68 Q662.497 1254.87 664.053 1260.95 Q665.609 1266.99 665.609 1277.27 Q665.609 1289.43 663.11 1296.93 Q660.611 1304.38 655.614 1308.48 Q650.663 1312.54 643.072 1312.54 Q633.076 1312.54 627.371 1305.37 Q620.535 1296.74 620.535 1277.27 M629.257 1277.27 Q629.257 1294.29 633.218 1299.95 Q637.226 1305.56 643.072 1305.56 Q648.918 1305.56 652.879 1299.9 Q656.887 1294.24 656.887 1277.27 Q656.887 1260.2 652.879 1254.59 Q648.918 1248.98 642.978 1248.98 Q637.131 1248.98 633.642 1253.93 Q629.257 1260.25 629.257 1277.27 Z" fill="#000000" fill-rule="nonzero" fill-opacity="1" /><path clip-path="url(#clip150)" d="M529.868 1111.8 L484.228 1111.8 L484.228 1103.88 L529.868 1103.88 L529.868 1111.8 Z" fill="#000000" fill-rule="nonzero" fill-opacity="1" /><path clip-path="url(#clip150)" d="M539.251 1107.84 Q539.251 1095.58 541.749 1088.13 Q544.295 1080.63 549.246 1076.58 Q554.244 1072.52 561.788 1072.52 Q567.351 1072.52 571.547 1074.79 Q575.744 1077 578.478 1081.25 Q581.213 1085.44 582.769 1091.52 Q584.325 1097.56 584.325 1107.84 Q584.325 1120 581.826 1127.5 Q579.327 1134.95 574.329 1139.05 Q569.379 1143.1 561.788 1143.1 Q551.792 1143.1 546.087 1135.94 Q539.251 1127.31 539.251 1107.84 M547.973 1107.84 Q547.973 1124.86 551.934 1130.52 Q555.941 1136.13 561.788 1136.13 Q567.634 1136.13 571.595 1130.47 Q575.602 1124.81 575.602 1107.84 Q575.602 1090.77 571.595 1085.16 Q567.634 1079.55 561.693 1079.55 Q555.847 1079.55 552.358 1084.5 Q547.973 1090.82 547.973 1107.84 Z" fill="#000000" fill-rule="nonzero" fill-opacity="1" /><path clip-path="url(#clip150)" d="M597.715 1141.93 L597.715 1132.26 L607.38 1132.26 L607.38 1141.93 L597.715 1141.93 Z" fill="#000000" fill-rule="nonzero" fill-opacity="1" /><path clip-path="url(#clip150)" d="M619.781 1123.82 L628.692 1123.07 Q629.682 1129.57 633.265 1132.87 Q636.895 1136.13 641.988 1136.13 Q648.117 1136.13 652.36 1131.51 Q656.604 1126.88 656.604 1119.25 Q656.604 1111.99 652.502 1107.79 Q648.447 1103.59 641.846 1103.59 Q637.744 1103.59 634.444 1105.48 Q631.143 1107.32 629.257 1110.29 L621.289 1109.25 L627.984 1073.75 L662.356 1073.75 L662.356 1081.86 L634.774 1081.86 L631.049 1100.43 Q637.273 1096.1 644.109 1096.1 Q653.162 1096.1 659.385 1102.37 Q665.609 1108.64 665.609 1118.49 Q665.609 1127.88 660.14 1134.71 Q653.492 1143.1 641.988 1143.1 Q632.558 1143.1 626.57 1137.82 Q620.629 1132.54 619.781 1123.82 Z" fill="#000000" fill-rule="nonzero" fill-opacity="1" /><path clip-path="url(#clip150)" d="M540.005 938.406 Q540.005 926.147 542.504 918.698 Q545.05 911.201 550 907.146 Q554.998 903.092 562.542 903.092 Q568.106 903.092 572.302 905.355 Q576.498 907.571 579.233 911.814 Q581.967 916.01 583.523 922.092 Q585.079 928.128 585.079 938.406 Q585.079 950.57 582.58 958.067 Q580.081 965.516 575.084 969.618 Q570.133 973.673 562.542 973.673 Q552.546 973.673 546.841 966.507 Q540.005 957.878 540.005 938.406 M548.727 938.406 Q548.727 955.427 552.688 961.084 Q556.696 966.695 562.542 966.695 Q568.388 966.695 572.349 961.037 Q576.357 955.379 576.357 938.406 Q576.357 921.338 572.349 915.727 Q568.388 910.117 562.448 910.117 Q556.601 910.117 553.112 915.067 Q548.727 921.385 548.727 938.406 Z" fill="#000000" fill-rule="nonzero" fill-opacity="1" /><path clip-path="url(#clip150)" d="M598.469 972.494 L598.469 962.829 L608.135 962.829 L608.135 972.494 L598.469 972.494 Z" fill="#000000" fill-rule="nonzero" fill-opacity="1" /><path clip-path="url(#clip150)" d="M620.535 938.406 Q620.535 926.147 623.034 918.698 Q625.58 911.201 630.53 907.146 Q635.528 903.092 643.072 903.092 Q648.636 903.092 652.832 905.355 Q657.028 907.571 659.763 911.814 Q662.497 916.01 664.053 922.092 Q665.609 928.128 665.609 938.406 Q665.609 950.57 663.11 958.067 Q660.611 965.516 655.614 969.618 Q650.663 973.673 643.072 973.673 Q633.076 973.673 627.371 966.507 Q620.535 957.878 620.535 938.406 M629.257 938.406 Q629.257 955.427 633.218 961.084 Q637.226 966.695 643.072 966.695 Q648.918 966.695 652.879 961.037 Q656.887 955.379 656.887 938.406 Q656.887 921.338 652.879 915.727 Q648.918 910.117 642.978 910.117 Q637.131 910.117 633.642 915.067 Q629.257 921.385 629.257 938.406 Z" fill="#000000" fill-rule="nonzero" fill-opacity="1" /><path clip-path="url(#clip150)" d="M539.251 768.975 Q539.251 756.716 541.749 749.267 Q544.295 741.77 549.246 737.715 Q554.244 733.661 561.788 733.661 Q567.351 733.661 571.547 735.924 Q575.744 738.14 578.478 742.383 Q581.213 746.579 582.769 752.662 Q584.325 758.697 584.325 768.975 Q584.325 781.139 581.826 788.636 Q579.327 796.085 574.329 800.187 Q569.379 804.242 561.788 804.242 Q551.792 804.242 546.087 797.076 Q539.251 788.447 539.251 768.975 M547.973 768.975 Q547.973 785.996 551.934 791.654 Q555.941 797.264 561.788 797.264 Q567.634 797.264 571.595 791.606 Q575.602 785.949 575.602 768.975 Q575.602 751.907 571.595 746.296 Q567.634 740.686 561.693 740.686 Q555.847 740.686 552.358 745.636 Q547.973 751.954 547.973 768.975 Z" fill="#000000" fill-rule="nonzero" fill-opacity="1" /><path clip-path="url(#clip150)" d="M597.715 803.064 L597.715 793.398 L607.38 793.398 L607.38 803.064 L597.715 803.064 Z" fill="#000000" fill-rule="nonzero" fill-opacity="1" /><path clip-path="url(#clip150)" d="M619.781 784.958 L628.692 784.204 Q629.682 790.711 633.265 794.011 Q636.895 797.264 641.988 797.264 Q648.117 797.264 652.36 792.644 Q656.604 788.023 656.604 780.385 Q656.604 773.124 652.502 768.928 Q648.447 764.732 641.846 764.732 Q637.744 764.732 634.444 766.618 Q631.143 768.456 629.257 771.427 L621.289 770.389 L627.984 734.886 L662.356 734.886 L662.356 742.996 L634.774 742.996 L631.049 761.573 Q637.273 757.235 644.109 757.235 Q653.162 757.235 659.385 763.506 Q665.609 769.777 665.609 779.631 Q665.609 789.013 660.14 795.85 Q653.492 804.242 641.988 804.242 Q632.558 804.242 626.57 798.962 Q620.629 793.681 619.781 784.958 Z" fill="#000000" fill-rule="nonzero" fill-opacity="1" /><path clip-path="url(#clip150)" d="M571.972 633.633 L563.485 633.633 L563.485 579.553 Q560.42 582.476 555.423 585.399 Q550.472 588.323 546.511 589.784 L546.511 581.58 Q553.631 578.233 558.959 573.471 Q564.286 568.709 566.502 564.23 L571.972 564.23 L571.972 633.633 Z" fill="#000000" fill-rule="nonzero" fill-opacity="1" /><path clip-path="url(#clip150)" d="M598.469 633.633 L598.469 623.967 L608.135 623.967 L608.135 633.633 L598.469 633.633 Z" fill="#000000" fill-rule="nonzero" fill-opacity="1" /><path clip-path="url(#clip150)" d="M620.535 599.544 Q620.535 587.285 623.034 579.836 Q625.58 572.339 630.53 568.284 Q635.528 564.23 643.072 564.23 Q648.636 564.23 652.832 566.493 Q657.028 568.709 659.763 572.952 Q662.497 577.148 664.053 583.231 Q665.609 589.266 665.609 599.544 Q665.609 611.708 663.11 619.205 Q660.611 626.655 655.614 630.756 Q650.663 634.811 643.072 634.811 Q633.076 634.811 627.371 627.645 Q620.535 619.016 620.535 599.544 M629.257 599.544 Q629.257 616.565 633.218 622.223 Q637.226 627.833 643.072 627.833 Q648.918 627.833 652.879 622.175 Q656.887 616.518 656.887 599.544 Q656.887 582.476 652.879 576.866 Q648.918 571.255 642.978 571.255 Q637.131 571.255 633.642 576.205 Q629.257 582.523 629.257 599.544 Z" fill="#000000" fill-rule="nonzero" fill-opacity="1" /><circle clip-path="url(#clip152)" cx="1201.97" cy="894.727" r="14.4" fill="#4477aa" fill-rule="evenodd" fill-opacity="1" stroke="#000000" stroke-opacity="1" stroke-width="3.6"/>
<circle clip-path="url(#clip152)" cx="1263.08" cy="794.304" r="14.4" fill="#4477aa" fill-rule="evenodd" fill-opacity="1" stroke="#000000" stroke-opacity="1" stroke-width="3.6"/>
<circle clip-path="url(#clip152)" cx="1166.08" cy="863.474" r="14.4" fill="#4477aa" fill-rule="evenodd" fill-opacity="1" stroke="#000000" stroke-opacity="1" stroke-width="3.6"/>
<circle clip-path="url(#clip152)" cx="1213.67" cy="801.16" r="14.4" fill="#4477aa" fill-rule="evenodd" fill-opacity="1" stroke="#000000" stroke-opacity="1" stroke-width="3.6"/>
<path clip-path="url(#clip152)" d="M874.197 1144.46 L874.197 1176.46 L906.197 1176.46 L906.197 1144.46 L874.197 1144.46 Z" fill="#4477aa" fill-rule="evenodd" fill-opacity="1" stroke="#000000" stroke-opacity="1" stroke-width="3.6"/>
<path clip-path="url(#clip152)" d="M1052.63 845.246 L1052.63 877.246 L1084.63 877.246 L1084.63 845.246 L1052.63 845.246 Z" fill="#4477aa" fill-rule="evenodd" fill-opacity="1" stroke="#000000" stroke-opacity="1" stroke-width="3.6"/>
<path clip-path="url(#clip152)" d="M971.533 987.818 L971.533 1019.82 L1003.53 1019.82 L1003.53 987.818 L971.533 987.818 Z" fill="#4477aa" fill-rule="evenodd" fill-opacity="1" stroke="#000000" stroke-opacity="1" stroke-width="3.6"/>
<path clip-path="url(#clip152)" d="M1044.22 900.075 L1044.22 932.075 L1076.22 932.075 L1076.22 900.075 L1044.22 900.075 Z" fill="#4477aa" fill-rule="evenodd" fill-opacity="1" stroke="#000000" stroke-opacity="1" stroke-width="3.6"/>
<circle clip-path="url(#clip152)" cx="1294.14" cy="788.435" r="14.4" fill="#4477aa" fill-rule="evenodd" fill-opacity="1" stroke="#000000" stroke-opacity="1" stroke-width="3.6"/>
<circle clip-path="url(#clip152)" cx="1225.23" cy="769.678" r="14.4" fill="#4477aa" fill-rule="evenodd" fill-opacity="1" stroke="#000000" stroke-opacity="1" stroke-width="3.6"/>
<circle clip-path="url(#clip152)" cx="1293.91" cy="835.862" r="14.4" fill="#4477aa" fill-rule="evenodd" fill-opacity="1" stroke="#000000" stroke-opacity="1" stroke-width="3.6"/>
<circle clip-path="url(#clip152)" cx="1331.03" cy="685.67" r="14.4" fill="#4477aa" fill-rule="evenodd" fill-opacity="1" stroke="#000000" stroke-opacity="1" stroke-width="3.6"/>
<path clip-path="url(#clip152)" d="M1447.78 809.318 L1447.78 841.318 L1479.78 841.318 L1479.78 809.318 L1447.78 809.318 Z" fill="#4477aa" fill-rule="evenodd" fill-opacity="1" stroke="#000000" stroke-opacity="1" stroke-width="3.6"/>
<circle clip-path="url(#clip152)" cx="1142.71" cy="904.832" r="14.4" fill="#4477aa" fill-rule="evenodd" fill-opacity="1" stroke="#000000" stroke-opacity="1" stroke-width="3.6"/>
<circle clip-path="url(#clip152)" cx="1215.5" cy="839.77" r="14.4" fill="#4477aa" fill-rule="evenodd" fill-opacity="1" stroke="#000000" stroke-opacity="1" stroke-width="3.6"/>
<path clip-path="url(#clip152)" d="M921.12 1103.98 L921.12 1135.98 L953.12 1135.98 L953.12 1103.98 L921.12 1103.98 Z" fill="#4477aa" fill-rule="evenodd" fill-opacity="1" stroke="#000000" stroke-opacity="1" stroke-width="3.6"/>
<path clip-path="url(#clip152)" d="M953.814 1001.91 L953.814 1033.91 L985.814 1033.91 L985.814 1001.91 L953.814 1001.91 Z" fill="#4477aa" fill-rule="evenodd" fill-opacity="1" stroke="#000000" stroke-opacity="1" stroke-width="3.6"/>
<path clip-path="url(#clip152)" d="M1406.79 827.24 L1406.79 859.24 L1438.79 859.24 L1438.79 827.24 L1406.79 827.24 Z" fill="#4477aa" fill-rule="evenodd" fill-opacity="1" stroke="#000000" stroke-opacity="1" stroke-width="3.6"/>
<path clip-path="url(#clip152)" d="M1004.55 1211.01 L1004.55 1243.01 L1036.55 1243.01 L1036.55 1211.01 L1004.55 1211.01 Z" fill="#4477aa" fill-rule="evenodd" fill-opacity="1" stroke="#000000" stroke-opacity="1" stroke-width="3.6"/>
<path clip-path="url(#clip152)" d="M947.033 1199.82 L947.033 1231.82 L979.033 1231.82 L979.033 1199.82 L947.033 1199.82 Z" fill="#4477aa" fill-rule="evenodd" fill-opacity="1" stroke="#000000" stroke-opacity="1" stroke-width="3.6"/>
<circle clip-path="url(#clip152)" cx="1314.25" cy="678.856" r="14.4" fill="#4477aa" fill-rule="evenodd" fill-opacity="1" stroke="#000000" stroke-opacity="1" stroke-width="3.6"/>
<path clip-path="url(#clip152)" d="M1141.06 757.239 L1141.06 789.239 L1173.06 789.239 L1173.06 757.239 L1141.06 757.239 Z" fill="#4477aa" fill-rule="evenodd" fill-opacity="1" stroke="#000000" stroke-opacity="1" stroke-width="3.6"/>
<circle clip-path="url(#clip152)" cx="1258.34" cy="930.62" r="14.4" fill="#4477aa" fill-rule="evenodd" fill-opacity="1" stroke="#000000" stroke-opacity="1" stroke-width="3.6"/>
<circle clip-path="url(#clip152)" cx="1175.07" cy="971.194" r="14.4" fill="#4477aa" fill-rule="evenodd" fill-opacity="1" stroke="#000000" stroke-opacity="1" stroke-width="3.6"/>
<path clip-path="url(#clip152)" d="M1143.31 1042.93 L1143.31 1074.93 L1175.31 1074.93 L1175.31 1042.93 L1143.31 1042.93 Z" fill="#4477aa" fill-rule="evenodd" fill-opacity="1" stroke="#000000" stroke-opacity="1" stroke-width="3.6"/>
<circle clip-path="url(#clip152)" cx="1199.66" cy="860.449" r="14.4" fill="#4477aa" fill-rule="evenodd" fill-opacity="1" stroke="#000000" stroke-opacity="1" stroke-width="3.6"/>
<circle clip-path="url(#clip152)" cx="1332.52" cy="677.248" r="14.4" fill="#4477aa" fill-rule="evenodd" fill-opacity="1" stroke="#000000" stroke-opacity="1" stroke-width="3.6"/>
<path clip-path="url(#clip152)" d="M1046.11 928.207 L1046.11 960.207 L1078.11 960.207 L1078.11 928.207 L1046.11 928.207 Z" fill="#4477aa" fill-rule="evenodd" fill-opacity="1" stroke="#000000" stroke-opacity="1" stroke-width="3.6"/>
<circle clip-path="url(#clip152)" cx="1268.54" cy="916.355" r="14.4" fill="#4477aa" fill-rule="evenodd" fill-opacity="1" stroke="#000000" stroke-opacity="1" stroke-width="3.6"/>
<path clip-path="url(#clip152)" d="M1057.32 869.392 L1057.32 901.392 L1089.32 901.392 L1089.32 869.392 L1057.32 869.392 Z" fill="#4477aa" fill-rule="evenodd" fill-opacity="1" stroke="#000000" stroke-opacity="1" stroke-width="3.6"/>
<circle clip-path="url(#clip152)" cx="1414.34" cy="759.258" r="14.4" fill="#4477aa" fill-rule="evenodd" fill-opacity="1" stroke="#000000" stroke-opacity="1" stroke-width="3.6"/>
<path clip-path="url(#clip152)" d="M1044.71 1075.39 L1044.71 1107.39 L1076.71 1107.39 L1076.71 1075.39 L1044.71 1075.39 Z" fill="#4477aa" fill-rule="evenodd" fill-opacity="1" stroke="#000000" stroke-opacity="1" stroke-width="3.6"/>
<circle clip-path="url(#clip152)" cx="1307.75" cy="764.463" r="14.4" fill="#4477aa" fill-rule="evenodd" fill-opacity="1" stroke="#000000" stroke-opacity="1" stroke-width="3.6"/>
<path clip-path="url(#clip152)" d="M1254.07 580.662 L1254.07 612.662 L1286.07 612.662 L1286.07 580.662 L1254.07 580.662 Z" fill="#4477aa" fill-rule="evenodd" fill-opacity="1" stroke="#000000" stroke-opacity="1" stroke-width="3.6"/>
<circle clip-path="url(#clip152)" cx="1233.22" cy="789.842" r="14.4" fill="#4477aa" fill-rule="evenodd" fill-opacity="1" stroke="#000000" stroke-opacity="1" stroke-width="3.6"/>
<circle clip-path="url(#clip152)" cx="1372.88" cy="670.057" r="14.4" fill="#4477aa" fill-rule="evenodd" fill-opacity="1" stroke="#000000" stroke-opacity="1" stroke-width="3.6"/>
<circle clip-path="url(#clip152)" cx="1268.36" cy="916.283" r="14.4" fill="#4477aa" fill-rule="evenodd" fill-opacity="1" stroke="#000000" stroke-opacity="1" stroke-width="3.6"/>
<circle clip-path="url(#clip152)" cx="1140.08" cy="881.486" r="14.4" fill="#4477aa" fill-rule="evenodd" fill-opacity="1" stroke="#000000" stroke-opacity="1" stroke-width="3.6"/>
<path clip-path="url(#clip152)" d="M1015.29 926.57 L1015.29 958.57 L1047.29 958.57 L1047.29 926.57 L1015.29 926.57 Z" fill="#4477aa" fill-rule="evenodd" fill-opacity="1" stroke="#000000" stroke-opacity="1" stroke-width="3.6"/>
<circle clip-path="url(#clip152)" cx="1334.46" cy="721.629" r="14.4" fill="#4477aa" fill-rule="evenodd" fill-opacity="1" stroke="#000000" stroke-opacity="1" stroke-width="3.6"/>
<path clip-path="url(#clip152)" d="M1249.55 568.163 L1249.55 600.163 L1281.55 600.163 L1281.55 568.163 L1249.55 568.163 Z" fill="#4477aa" fill-rule="evenodd" fill-opacity="1" stroke="#000000" stroke-opacity="1" stroke-width="3.6"/>
<path clip-path="url(#clip152)" d="M1039.36 1177.54 L1039.36 1209.54 L1071.36 1209.54 L1071.36 1177.54 L1039.36 1177.54 Z" fill="#4477aa" fill-rule="evenodd" fill-opacity="1" stroke="#000000" stroke-opacity="1" stroke-width="3.6"/>
<circle clip-path="url(#clip152)" cx="1415.69" cy="747.43" r="14.4" fill="#4477aa" fill-rule="evenodd" fill-opacity="1" stroke="#000000" stroke-opacity="1" stroke-width="3.6"/>
<path clip-path="url(#clip152)" d="M1173.09 717.913 L1173.09 749.913 L1205.09 749.913 L1205.09 717.913 L1173.09 717.913 Z" fill="#4477aa" fill-rule="evenodd" fill-opacity="1" stroke="#000000" stroke-opacity="1" stroke-width="3.6"/>
<circle clip-path="url(#clip152)" cx="1236.14" cy="868.359" r="14.4" fill="#4477aa" fill-rule="evenodd" fill-opacity="1" stroke="#000000" stroke-opacity="1" stroke-width="3.6"/>
<circle clip-path="url(#clip152)" cx="1276.51" cy="911.005" r="14.4" fill="#4477aa" fill-rule="evenodd" fill-opacity="1" stroke="#000000" stroke-opacity="1" stroke-width="3.6"/>
<circle clip-path="url(#clip152)" cx="1197.62" cy="820.523" r="14.4" fill="#4477aa" fill-rule="evenodd" fill-opacity="1" stroke="#000000" stroke-opacity="1" stroke-width="3.6"/>
<path clip-path="url(#clip152)" d="M988.309 986.175 L988.309 1018.17 L1020.31 1018.17 L1020.31 986.175 L988.309 986.175 Z" fill="#4477aa" fill-rule="evenodd" fill-opacity="1" stroke="#000000" stroke-opacity="1" stroke-width="3.6"/>
<circle clip-path="url(#clip152)" cx="1235.76" cy="849.807" r="14.4" fill="#4477aa" fill-rule="evenodd" fill-opacity="1" stroke="#000000" stroke-opacity="1" stroke-width="3.6"/>
<circle clip-path="url(#clip152)" cx="1345.99" cy="809.955" r="14.4" fill="#4477aa" fill-rule="evenodd" fill-opacity="1" stroke="#000000" stroke-opacity="1" stroke-width="3.6"/>
<circle clip-path="url(#clip152)" cx="1159.1" cy="878.588" r="14.4" fill="#4477aa" fill-rule="evenodd" fill-opacity="1" stroke="#000000" stroke-opacity="1" stroke-width="3.6"/>
<path clip-path="url(#clip152)" d="M926.763 1051.06 L926.763 1083.06 L958.763 1083.06 L958.763 1051.06 L926.763 1051.06 Z" fill="#4477aa" fill-rule="evenodd" fill-opacity="1" stroke="#000000" stroke-opacity="1" stroke-width="3.6"/>
<circle clip-path="url(#clip152)" cx="1323.95" cy="788.348" r="14.4" fill="#4477aa" fill-rule="evenodd" fill-opacity="1" stroke="#000000" stroke-opacity="1" stroke-width="3.6"/>
<path clip-path="url(#clip152)" d="M980.495 964.09 L980.495 996.09 L1012.49 996.09 L1012.49 964.09 L980.495 964.09 Z" fill="#4477aa" fill-rule="evenodd" fill-opacity="1" stroke="#000000" stroke-opacity="1" stroke-width="3.6"/>
<path clip-path="url(#clip152)" d="M1180.5 710.196 L1180.5 742.196 L1212.5 742.196 L1212.5 710.196 L1180.5 710.196 Z" fill="#4477aa" fill-rule="evenodd" fill-opacity="1" stroke="#000000" stroke-opacity="1" stroke-width="3.6"/>
<path clip-path="url(#clip152)" d="M1174.14 694.392 L1174.14 726.392 L1206.14 726.392 L1206.14 694.392 L1174.14 694.392 Z" fill="#4477aa" fill-rule="evenodd" fill-opacity="1" stroke="#000000" stroke-opacity="1" stroke-width="3.6"/>
<circle clip-path="url(#clip152)" cx="1207.52" cy="795.566" r="14.4" fill="#4477aa" fill-rule="evenodd" fill-opacity="1" stroke="#000000" stroke-opacity="1" stroke-width="3.6"/>
<circle clip-path="url(#clip152)" cx="1268.15" cy="884.066" r="14.4" fill="#4477aa" fill-rule="evenodd" fill-opacity="1" stroke="#000000" stroke-opacity="1" stroke-width="3.6"/>
<circle clip-path="url(#clip152)" cx="1363.49" cy="669.844" r="14.4" fill="#4477aa" fill-rule="evenodd" fill-opacity="1" stroke="#000000" stroke-opacity="1" stroke-width="3.6"/>
<path clip-path="url(#clip152)" d="M1052.51 863.4 L1052.51 895.4 L1084.51 895.4 L1084.51 863.4 L1052.51 863.4 Z" fill="#4477aa" fill-rule="evenodd" fill-opacity="1" stroke="#000000" stroke-opacity="1" stroke-width="3.6"/>
<path clip-path="url(#clip152)" d="M885.863 1108.66 L885.863 1140.66 L917.863 1140.66 L917.863 1108.66 L885.863 1108.66 Z" fill="#4477aa" fill-rule="evenodd" fill-opacity="1" stroke="#000000" stroke-opacity="1" stroke-width="3.6"/>
<path clip-path="url(#clip152)" d="M1315.97 980.088 L1315.97 1012.09 L1347.97 1012.09 L1347.97 980.088 L1315.97 980.088 Z" fill="#4477aa" fill-rule="evenodd" fill-opacity="1" stroke="#000000" stroke-opacity="1" stroke-width="3.6"/>
<circle clip-path="url(#clip152)" cx="1140.13" cy="888.444" r="14.4" fill="#4477aa" fill-rule="evenodd" fill-opacity="1" stroke="#000000" stroke-opacity="1" stroke-width="3.6"/>
<circle clip-path="url(#clip152)" cx="1160.81" cy="951.772" r="14.4" fill="#4477aa" fill-rule="evenodd" fill-opacity="1" stroke="#000000" stroke-opacity="1" stroke-width="3.6"/>
<path clip-path="url(#clip152)" d="M898.883 1200.76 L898.883 1232.76 L930.883 1232.76 L930.883 1200.76 L898.883 1200.76 Z" fill="#4477aa" fill-rule="evenodd" fill-opacity="1" stroke="#000000" stroke-opacity="1" stroke-width="3.6"/>
<path clip-path="url(#clip152)" d="M1446.47 764.174 L1446.47 796.174 L1478.47 796.174 L1478.47 764.174 L1446.47 764.174 Z" fill="#4477aa" fill-rule="evenodd" fill-opacity="1" stroke="#000000" stroke-opacity="1" stroke-width="3.6"/>
<circle clip-path="url(#clip152)" cx="1246.01" cy="830.091" r="14.4" fill="#4477aa" fill-rule="evenodd" fill-opacity="1" stroke="#000000" stroke-opacity="1" stroke-width="3.6"/>
<path clip-path="url(#clip152)" d="M1057.72 1121.36 L1057.72 1153.36 L1089.72 1153.36 L1089.72 1121.36 L1057.72 1121.36 Z" fill="#4477aa" fill-rule="evenodd" fill-opacity="1" stroke="#000000" stroke-opacity="1" stroke-width="3.6"/>
<path clip-path="url(#clip152)" d="M1162.02 1103.2 L1162.02 1135.2 L1194.02 1135.2 L1194.02 1103.2 L1162.02 1103.2 Z" fill="#4477aa" fill-rule="evenodd" fill-opacity="1" stroke="#000000" stroke-opacity="1" stroke-width="3.6"/>
<circle clip-path="url(#clip152)" cx="1177.57" cy="968.421" r="14.4" fill="#4477aa" fill-rule="evenodd" fill-opacity="1" stroke="#000000" stroke-opacity="1" stroke-width="3.6"/>
<circle clip-path="url(#clip152)" cx="1225.75" cy="860.292" r="14.4" fill="#4477aa" fill-rule="evenodd" fill-opacity="1" stroke="#000000" stroke-opacity="1" stroke-width="3.6"/>
<circle clip-path="url(#clip152)" cx="1137.98" cy="930.776" r="14.4" fill="#4477aa" fill-rule="evenodd" fill-opacity="1" stroke="#000000" stroke-opacity="1" stroke-width="3.6"/>
<circle clip-path="url(#clip152)" cx="1228.18" cy="830.259" r="14.4" fill="#4477aa" fill-rule="evenodd" fill-opacity="1" stroke="#000000" stroke-opacity="1" stroke-width="3.6"/>
<circle clip-path="url(#clip152)" cx="1235.16" cy="866.78" r="14.4" fill="#4477aa" fill-rule="evenodd" fill-opacity="1" stroke="#000000" stroke-opacity="1" stroke-width="3.6"/>
<circle clip-path="url(#clip152)" cx="1208.87" cy="858.206" r="14.4" fill="#4477aa" fill-rule="evenodd" fill-opacity="1" stroke="#000000" stroke-opacity="1" stroke-width="3.6"/>
<circle clip-path="url(#clip152)" cx="1244.82" cy="854.945" r="14.4" fill="#4477aa" fill-rule="evenodd" fill-opacity="1" stroke="#000000" stroke-opacity="1" stroke-width="3.6"/>
<path clip-path="url(#clip152)" d="M932.86 1131.48 L932.86 1163.48 L964.86 1163.48 L964.86 1131.48 L932.86 1131.48 Z" fill="#4477aa" fill-rule="evenodd" fill-opacity="1" stroke="#000000" stroke-opacity="1" stroke-width="3.6"/>
<circle clip-path="url(#clip152)" cx="1426.52" cy="633.229" r="14.4" fill="#ee6677" fill-rule="evenodd" fill-opacity="1" stroke="#000000" stroke-opacity="1" stroke-width="3.6"/>
<path clip-path="url(#clip152)" d="M1621.11 518.626 L1621.11 550.626 L1653.11 550.626 L1653.11 518.626 L1621.11 518.626 Z" fill="#ee6677" fill-rule="evenodd" fill-opacity="1" stroke="#000000" stroke-opacity="1" stroke-width="3.6"/>
<circle clip-path="url(#clip152)" cx="1389.52" cy="651.662" r="14.4" fill="#ee6677" fill-rule="evenodd" fill-opacity="1" stroke="#000000" stroke-opacity="1" stroke-width="3.6"/>
<circle clip-path="url(#clip152)" cx="1412.43" cy="698.077" r="14.4" fill="#ee6677" fill-rule="evenodd" fill-opacity="1" stroke="#000000" stroke-opacity="1" stroke-width="3.6"/>
<path clip-path="url(#clip152)" d="M1533.21 684.011 L1533.21 716.011 L1565.21 716.011 L1565.21 684.011 L1533.21 684.011 Z" fill="#ee6677" fill-rule="evenodd" fill-opacity="1" stroke="#000000" stroke-opacity="1" stroke-width="3.6"/>
<path clip-path="url(#clip152)" d="M1324.06 588.285 L1324.06 620.285 L1356.06 620.285 L1356.06 588.285 L1324.06 588.285 Z" fill="#ee6677" fill-rule="evenodd" fill-opacity="1" stroke="#000000" stroke-opacity="1" stroke-width="3.6"/>
<path clip-path="url(#clip152)" d="M1527.49 523.471 L1527.49 555.471 L1559.49 555.471 L1559.49 523.471 L1527.49 523.471 Z" fill="#ee6677" fill-rule="evenodd" fill-opacity="1" stroke="#000000" stroke-opacity="1" stroke-width="3.6"/>
<path clip-path="url(#clip152)" d="M1652.39 371.059 L1652.39 403.059 L1684.39 403.059 L1684.39 371.059 L1652.39 371.059 Z" fill="#ee6677" fill-rule="evenodd" fill-opacity="1" stroke="#000000" stroke-opacity="1" stroke-width="3.6"/>
<path clip-path="url(#clip152)" d="M1559.15 409.482 L1559.15 441.482 L1591.15 441.482 L1591.15 409.482 L1559.15 409.482 Z" fill="#ee6677" fill-rule="evenodd" fill-opacity="1" stroke="#000000" stroke-opacity="1" stroke-width="3.6"/>
<circle clip-path="url(#clip152)" cx="1448.64" cy="685.098" r="14.4" fill="#ee6677" fill-rule="evenodd" fill-opacity="1" stroke="#000000" stroke-opacity="1" stroke-width="3.6"/>
<path clip-path="url(#clip152)" d="M1645.72 465.585 L1645.72 497.585 L1677.72 497.585 L1677.72 465.585 L1645.72 465.585 Z" fill="#ee6677" fill-rule="evenodd" fill-opacity="1" stroke="#000000" stroke-opacity="1" stroke-width="3.6"/>
<path clip-path="url(#clip152)" d="M1449.45 438.36 L1449.45 470.36 L1481.45 470.36 L1481.45 438.36 L1449.45 438.36 Z" fill="#ee6677" fill-rule="evenodd" fill-opacity="1" stroke="#000000" stroke-opacity="1" stroke-width="3.6"/>
<path clip-path="url(#clip152)" d="M1654.14 465.754 L1654.14 497.754 L1686.14 497.754 L1686.14 465.754 L1654.14 465.754 Z" fill="#ee6677" fill-rule="evenodd" fill-opacity="1" stroke="#000000" stroke-opacity="1" stroke-width="3.6"/>
<path clip-path="url(#clip152)" d="M1587.4 598.937 L1587.4 630.937 L1619.4 630.937 L1619.4 598.937 L1587.4 598.937 Z" fill="#ee6677" fill-rule="evenodd" fill-opacity="1" stroke="#000000" stroke-opacity="1" stroke-width="3.6"/>
<path clip-path="url(#clip152)" d="M1503.08 477.885 L1503.08 509.885 L1535.08 509.885 L1535.08 477.885 L1503.08 477.885 Z" fill="#ee6677" fill-rule="evenodd" fill-opacity="1" stroke="#000000" stroke-opacity="1" stroke-width="3.6"/>
<path clip-path="url(#clip152)" d="M1547.98 668.758 L1547.98 700.758 L1579.98 700.758 L1579.98 668.758 L1547.98 668.758 Z" fill="#ee6677" fill-rule="evenodd" fill-opacity="1" stroke="#000000" stroke-opacity="1" stroke-width="3.6"/>
<circle clip-path="url(#clip152)" cx="1456.85" cy="642.985" r="14.4" fill="#ee6677" fill-rule="evenodd" fill-opacity="1" stroke="#000000" stroke-opacity="1" stroke-width="3.6"/>
<path clip-path="url(#clip152)" d="M1632 479.546 L1632 511.546 L1664 511.546 L1664 479.546 L1632 479.546 Z" fill="#ee6677" fill-rule="evenodd" fill-opacity="1" stroke="#000000" stroke-opacity="1" stroke-width="3.6"/>
<circle clip-path="url(#clip152)" cx="1404.91" cy="661.745" r="14.4" fill="#ee6677" fill-rule="evenodd" fill-opacity="1" stroke="#000000" stroke-opacity="1" stroke-width="3.6"/>
<path clip-path="url(#clip152)" d="M1597.58 625.933 L1597.58 657.933 L1629.58 657.933 L1629.58 625.933 L1597.58 625.933 Z" fill="#ee6677" fill-rule="evenodd" fill-opacity="1" stroke="#000000" stroke-opacity="1" stroke-width="3.6"/>
<path clip-path="url(#clip152)" d="M1466.31 415.284 L1466.31 447.284 L1498.31 447.284 L1498.31 415.284 L1466.31 415.284 Z" fill="#ee6677" fill-rule="evenodd" fill-opacity="1" stroke="#000000" stroke-opacity="1" stroke-width="3.6"/>
<circle clip-path="url(#clip152)" cx="1431.05" cy="642.188" r="14.4" fill="#ee6677" fill-rule="evenodd" fill-opacity="1" stroke="#000000" stroke-opacity="1" stroke-width="3.6"/>
<path clip-path="url(#clip152)" d="M1311.67 553.751 L1311.67 585.751 L1343.67 585.751 L1343.67 553.751 L1311.67 553.751 Z" fill="#ee6677" fill-rule="evenodd" fill-opacity="1" stroke="#000000" stroke-opacity="1" stroke-width="3.6"/>
<path clip-path="url(#clip152)" d="M1523.55 439.191 L1523.55 471.191 L1555.55 471.191 L1555.55 439.191 L1523.55 439.191 Z" fill="#ee6677" fill-rule="evenodd" fill-opacity="1" stroke="#000000" stroke-opacity="1" stroke-width="3.6"/>
<path clip-path="url(#clip150)" d="M1933.53 449.248 L2283.28 449.248 L2283.28 99.3277 L1933.53 99.3277  Z" fill="#ffffff" fill-rule="evenodd" fill-opacity="1"/>
<polyline clip-path="url(#clip150)" style="stroke:#000000; stroke-linecap:round; stroke-linejoin:round; stroke-width:4; stroke-opacity:1; fill:none" points="1933.53,449.248 2283.28,449.248 2283.28,99.3277 1933.53,99.3277 1933.53,449.248 "/>
<circle clip-path="url(#clip150)" cx="2026.17" cy="215.968" r="46.08" fill="#4477aa" fill-rule="evenodd" fill-opacity="1" stroke="#000000" stroke-opacity="1" stroke-width="11.52"/>
<path clip-path="url(#clip150)" d="M2118.81 216.498 Q2118.81 202.707 2121.62 194.326 Q2124.49 185.893 2130.06 181.331 Q2135.68 176.769 2144.17 176.769 Q2150.43 176.769 2155.15 179.315 Q2159.87 181.808 2162.94 186.582 Q2166.02 191.303 2167.77 198.145 Q2169.52 204.935 2169.52 216.498 Q2169.52 230.183 2166.71 238.617 Q2163.9 246.997 2158.28 251.612 Q2152.71 256.174 2144.17 256.174 Q2132.92 256.174 2126.5 248.111 Q2118.81 238.405 2118.81 216.498 M2128.62 216.498 Q2128.62 235.646 2133.08 242.011 Q2137.59 248.323 2144.17 248.323 Q2150.74 248.323 2155.2 241.958 Q2159.71 235.593 2159.71 216.498 Q2159.71 197.297 2155.2 190.985 Q2150.74 184.673 2144.06 184.673 Q2137.48 184.673 2133.56 190.242 Q2128.62 197.35 2128.62 216.498 Z" fill="#000000" fill-rule="nonzero" fill-opacity="1" /><path clip-path="url(#clip150)" d="M2184.58 254.848 L2184.58 243.974 L2195.46 243.974 L2195.46 254.848 L2184.58 254.848 Z" fill="#000000" fill-rule="nonzero" fill-opacity="1" /><path clip-path="url(#clip150)" d="M2209.41 216.498 Q2209.41 202.707 2212.22 194.326 Q2215.08 185.893 2220.65 181.331 Q2226.28 176.769 2234.76 176.769 Q2241.02 176.769 2245.74 179.315 Q2250.46 181.808 2253.54 186.582 Q2256.62 191.303 2258.37 198.145 Q2260.12 204.935 2260.12 216.498 Q2260.12 230.183 2257.31 238.617 Q2254.49 246.997 2248.87 251.612 Q2243.3 256.174 2234.76 256.174 Q2223.52 256.174 2217.1 248.111 Q2209.41 238.405 2209.41 216.498 M2219.22 216.498 Q2219.22 235.646 2223.68 242.011 Q2228.19 248.323 2234.76 248.323 Q2241.34 248.323 2245.8 241.958 Q2250.3 235.593 2250.3 216.498 Q2250.3 197.297 2245.8 190.985 Q2241.34 184.673 2234.66 184.673 Q2228.08 184.673 2224.15 190.242 Q2219.22 197.35 2219.22 216.498 Z" fill="#000000" fill-rule="nonzero" fill-opacity="1" /><circle clip-path="url(#clip150)" cx="2026.17" cy="332.608" r="46.08" fill="#ee6677" fill-rule="evenodd" fill-opacity="1" stroke="#000000" stroke-opacity="1" stroke-width="11.52"/>
<path clip-path="url(#clip150)" d="M2147.45 371.488 L2137.91 371.488 L2137.91 310.648 Q2134.46 313.937 2128.84 317.225 Q2123.27 320.514 2118.81 322.158 L2118.81 312.929 Q2126.82 309.163 2132.82 303.806 Q2138.81 298.448 2141.3 293.409 L2147.45 293.409 L2147.45 371.488 Z" fill="#000000" fill-rule="nonzero" fill-opacity="1" /><path clip-path="url(#clip150)" d="M2177.26 371.488 L2177.26 360.614 L2188.14 360.614 L2188.14 371.488 L2177.26 371.488 Z" fill="#000000" fill-rule="nonzero" fill-opacity="1" /><path clip-path="url(#clip150)" d="M2202.09 333.138 Q2202.09 319.347 2204.9 310.966 Q2207.76 302.533 2213.33 297.971 Q2218.96 293.409 2227.44 293.409 Q2233.7 293.409 2238.42 295.955 Q2243.14 298.448 2246.22 303.222 Q2249.3 307.943 2251.05 314.785 Q2252.8 321.575 2252.8 333.138 Q2252.8 346.823 2249.99 355.257 Q2247.17 363.637 2241.55 368.252 Q2235.98 372.814 2227.44 372.814 Q2216.2 372.814 2209.78 364.751 Q2202.09 355.045 2202.09 333.138 M2211.9 333.138 Q2211.9 352.286 2216.36 358.651 Q2220.87 364.963 2227.44 364.963 Q2234.02 364.963 2238.48 358.598 Q2242.98 352.233 2242.98 333.138 Q2242.98 313.937 2238.48 307.625 Q2234.02 301.313 2227.34 301.313 Q2220.76 301.313 2216.83 306.882 Q2211.9 313.99 2211.9 333.138 Z" fill="#000000" fill-rule="nonzero" fill-opacity="1" /></svg>
