<?xml version="1.0" encoding="utf-8"?>
<svg xmlns="http://www.w3.org/2000/svg" xmlns:xlink="http://www.w3.org/1999/xlink" width="600" height="450" viewBox="0 0 2400 1800">
<defs>
  <clipPath id="clip040">
    <rect x="0" y="0" width="2400" height="1800"/>
  </clipPath>
</defs>
<path clip-path="url(#clip040)" d="M0 1800 L2400 1800 L2400 0 L0 0  Z" fill="#ffffff" fill-rule="evenodd" fill-opacity="1"/>
<defs>
  <clipPath id="clip041">
    <rect x="480" y="0" width="1681" height="1681"/>
  </clipPath>
</defs>
<path clip-path="url(#clip040)" d="M423.983 1506.52 L2352.76 1506.52 L2352.76 47.2441 L423.983 47.2441  Z" fill="#ffffff" fill-rule="evenodd" fill-opacity="1"/>
<defs>
  <clipPath id="clip042">
    <rect x="423" y="47" width="1930" height="1460"/>
  </clipPath>
</defs>
<polyline clip-path="url(#clip042)" style="stroke:#000000; stroke-linecap:round; stroke-linejoin:round; stroke-width:2; stroke-opacity:0.1; fill:none" points="435.248,1506.52 435.248,47.2441 "/>
<polyline clip-path="url(#clip042)" style="stroke:#000000; stroke-linecap:round; stroke-linejoin:round; stroke-width:2; stroke-opacity:0.1; fill:none" points="868.485,1506.52 868.485,47.2441 "/>
<polyline clip-path="url(#clip042)" style="stroke:#000000; stroke-linecap:round; stroke-linejoin:round; stroke-width:2; stroke-opacity:0.1; fill:none" points="1301.72,1506.52 1301.72,47.2441 "/>
<polyline clip-path="url(#clip042)" style="stroke:#000000; stroke-linecap:round; stroke-linejoin:round; stroke-width:2; stroke-opacity:0.1; fill:none" points="1734.96,1506.52 1734.96,47.2441 "/>
<polyline clip-path="url(#clip042)" style="stroke:#000000; stroke-linecap:round; stroke-linejoin:round; stroke-width:2; stroke-opacity:0.1; fill:none" points="2168.2,1506.52 2168.2,47.2441 "/>
<polyline clip-path="url(#clip042)" style="stroke:#000000; stroke-linecap:round; stroke-linejoin:round; stroke-width:2; stroke-opacity:0.1; fill:none" points="423.983,1399.54 2352.76,1399.54 "/>
<polyline clip-path="url(#clip042)" style="stroke:#000000; stroke-linecap:round; stroke-linejoin:round; stroke-width:2; stroke-opacity:0.1; fill:none" points="423.983,1151.23 2352.76,1151.23 "/>
<polyline clip-path="url(#clip042)" style="stroke:#000000; stroke-linecap:round; stroke-linejoin:round; stroke-width:2; stroke-opacity:0.1; fill:none" points="423.983,902.924 2352.76,902.924 "/>
<polyline clip-path="url(#clip042)" style="stroke:#000000; stroke-linecap:round; stroke-linejoin:round; stroke-width:2; stroke-opacity:0.1; fill:none" points="423.983,654.619 2352.76,654.619 "/>
<polyline clip-path="url(#clip042)" style="stroke:#000000; stroke-linecap:round; stroke-linejoin:round; stroke-width:2; stroke-opacity:0.1; fill:none" points="423.983,406.314 2352.76,406.314 "/>
<polyline clip-path="url(#clip042)" style="stroke:#000000; stroke-linecap:round; stroke-linejoin:round; stroke-width:2; stroke-opacity:0.1; fill:none" points="423.983,158.008 2352.76,158.008 "/>
<polyline clip-path="url(#clip040)" style="stroke:#000000; stroke-linecap:round; stroke-linejoin:round; stroke-width:4; stroke-opacity:1; fill:none" points="423.983,1506.52 2352.76,1506.52 "/>
<polyline clip-path="url(#clip040)" style="stroke:#000000; stroke-linecap:round; stroke-linejoin:round; stroke-width:2; stroke-opacity:0.5; fill:none" points="423.983,47.2441 2352.76,47.2441 "/>
<polyline clip-path="url(#clip040)" style="stroke:#000000; stroke-linecap:round; stroke-linejoin:round; stroke-width:4; stroke-opacity:1; fill:none" points="435.248,1506.52 435.248,1487.63 "/>
<polyline clip-path="url(#clip040)" style="stroke:#000000; stroke-linecap:round; stroke-linejoin:round; stroke-width:4; stroke-opacity:1; fill:none" points="868.485,1506.52 868.485,1487.63 "/>
<polyline clip-path="url(#clip040)" style="stroke:#000000; stroke-linecap:round; stroke-linejoin:round; stroke-width:4; stroke-opacity:1; fill:none" points="1301.72,1506.52 1301.72,1487.63 "/>
<polyline clip-path="url(#clip040)" style="stroke:#000000; stroke-linecap:round; stroke-linejoin:round; stroke-width:4; stroke-opacity:1; fill:none" points="1734.96,1506.52 1734.96,1487.63 "/>
<polyline clip-path="url(#clip040)" style="stroke:#000000; stroke-linecap:round; stroke-linejoin:round; stroke-width:4; stroke-opacity:1; fill:none" points="2168.2,1506.52 2168.2,1487.63 "/>
<path clip-path="url(#clip040)" d="M412.711 1578.04 Q412.711 1565.78 415.209 1558.33 Q417.755 1550.83 422.706 1546.78 Q427.704 1542.72 435.248 1542.72 Q440.811 1542.72 445.007 1544.98 Q449.204 1547.2 451.938 1551.44 Q454.673 1555.64 456.229 1561.72 Q457.785 1567.76 457.785 1578.04 Q457.785 1590.2 455.286 1597.7 Q452.787 1605.15 447.789 1609.25 Q442.839 1613.3 435.248 1613.3 Q425.252 1613.3 419.547 1606.14 Q412.711 1597.51 412.711 1578.04 M421.433 1578.04 Q421.433 1595.06 425.394 1600.71 Q429.401 1606.32 435.248 1606.32 Q441.094 1606.32 445.055 1600.67 Q449.062 1595.01 449.062 1578.04 Q449.062 1560.97 445.055 1555.36 Q441.094 1549.75 435.153 1549.75 Q429.307 1549.75 425.818 1554.7 Q421.433 1561.01 421.433 1578.04 Z" fill="#000000" fill-rule="nonzero" fill-opacity="1" /><path clip-path="url(#clip040)" d="M847.81 1612.12 L839.323 1612.12 L839.323 1558.04 Q836.259 1560.97 831.261 1563.89 Q826.31 1566.81 822.35 1568.28 L822.35 1560.07 Q829.469 1556.72 834.797 1551.96 Q840.125 1547.2 842.341 1542.72 L847.81 1542.72 L847.81 1612.12 Z" fill="#000000" fill-rule="nonzero" fill-opacity="1" /><path clip-path="url(#clip040)" d="M869.546 1578.04 Q869.546 1565.78 872.045 1558.33 Q874.591 1550.83 879.541 1546.78 Q884.539 1542.72 892.083 1542.72 Q897.646 1542.72 901.843 1544.98 Q906.039 1547.2 908.773 1551.44 Q911.508 1555.64 913.064 1561.72 Q914.62 1567.76 914.62 1578.04 Q914.62 1590.2 912.121 1597.7 Q909.622 1605.15 904.624 1609.25 Q899.674 1613.3 892.083 1613.3 Q882.087 1613.3 876.382 1606.14 Q869.546 1597.51 869.546 1578.04 M878.268 1578.04 Q878.268 1595.06 882.229 1600.71 Q886.236 1606.32 892.083 1606.32 Q897.929 1606.32 901.89 1600.67 Q905.897 1595.01 905.897 1578.04 Q905.897 1560.97 901.89 1555.36 Q897.929 1549.75 891.989 1549.75 Q886.142 1549.75 882.653 1554.7 Q878.268 1561.01 878.268 1578.04 Z" fill="#000000" fill-rule="nonzero" fill-opacity="1" /><path clip-path="url(#clip040)" d="M1297.53 1603.97 L1297.53 1612.12 L1251.84 1612.12 Q1251.74 1609.06 1252.83 1606.23 Q1254.57 1601.56 1258.39 1597.04 Q1262.26 1592.51 1269.52 1586.57 Q1280.79 1577.33 1284.75 1571.95 Q1288.71 1566.53 1288.71 1561.72 Q1288.71 1556.68 1285.08 1553.24 Q1281.5 1549.75 1275.7 1549.75 Q1269.57 1549.75 1265.89 1553.42 Q1262.21 1557.1 1262.16 1563.61 L1253.44 1562.71 Q1254.34 1552.95 1260.18 1547.86 Q1266.03 1542.72 1275.88 1542.72 Q1285.83 1542.72 1291.63 1548.24 Q1297.43 1553.75 1297.43 1561.91 Q1297.43 1566.06 1295.73 1570.07 Q1294.04 1574.07 1290.08 1578.51 Q1286.16 1582.94 1277.02 1590.67 Q1269.38 1597.08 1267.21 1599.39 Q1265.04 1601.66 1263.63 1603.97 L1297.53 1603.97 Z" fill="#000000" fill-rule="nonzero" fill-opacity="1" /><path clip-path="url(#clip040)" d="M1306.63 1578.04 Q1306.63 1565.78 1309.12 1558.33 Q1311.67 1550.83 1316.62 1546.78 Q1321.62 1542.72 1329.16 1542.72 Q1334.73 1542.72 1338.92 1544.98 Q1343.12 1547.2 1345.85 1551.44 Q1348.59 1555.64 1350.14 1561.72 Q1351.7 1567.76 1351.7 1578.04 Q1351.7 1590.2 1349.2 1597.7 Q1346.7 1605.15 1341.7 1609.25 Q1336.75 1613.3 1329.16 1613.3 Q1319.17 1613.3 1313.46 1606.14 Q1306.63 1597.51 1306.63 1578.04 M1315.35 1578.04 Q1315.35 1595.06 1319.31 1600.71 Q1323.32 1606.32 1329.16 1606.32 Q1335.01 1606.32 1338.97 1600.67 Q1342.98 1595.01 1342.98 1578.04 Q1342.98 1560.97 1338.97 1555.36 Q1335.01 1549.75 1329.07 1549.75 Q1323.22 1549.75 1319.73 1554.7 Q1315.35 1561.01 1315.35 1578.04 Z" fill="#000000" fill-rule="nonzero" fill-opacity="1" /><path clip-path="url(#clip040)" d="M1685.59 1593.88 L1694.08 1592.75 Q1695.54 1599.96 1699.03 1603.17 Q1702.57 1606.32 1707.61 1606.32 Q1713.6 1606.32 1717.7 1602.18 Q1721.85 1598.03 1721.85 1591.9 Q1721.85 1586.05 1718.03 1582.28 Q1714.21 1578.46 1708.32 1578.46 Q1705.92 1578.46 1702.33 1579.4 L1703.28 1571.95 Q1704.12 1572.05 1704.64 1572.05 Q1710.06 1572.05 1714.4 1569.22 Q1718.74 1566.39 1718.74 1560.5 Q1718.74 1555.83 1715.58 1552.76 Q1712.42 1549.7 1707.42 1549.7 Q1702.47 1549.7 1699.17 1552.81 Q1695.87 1555.92 1694.93 1562.15 L1686.44 1560.64 Q1688 1552.1 1693.52 1547.44 Q1699.03 1542.72 1707.24 1542.72 Q1712.89 1542.72 1717.66 1545.17 Q1722.42 1547.58 1724.92 1551.77 Q1727.46 1555.97 1727.46 1560.68 Q1727.46 1565.16 1725.06 1568.84 Q1722.65 1572.52 1717.94 1574.69 Q1724.07 1576.1 1727.46 1580.58 Q1730.86 1585.01 1730.86 1591.71 Q1730.86 1600.76 1724.26 1607.08 Q1717.66 1613.35 1707.57 1613.35 Q1698.47 1613.35 1692.43 1607.93 Q1686.44 1602.51 1685.59 1593.88 Z" fill="#000000" fill-rule="nonzero" fill-opacity="1" /><path clip-path="url(#clip040)" d="M1739.25 1578.04 Q1739.25 1565.78 1741.75 1558.33 Q1744.29 1550.83 1749.25 1546.78 Q1754.24 1542.72 1761.79 1542.72 Q1767.35 1542.72 1771.55 1544.98 Q1775.74 1547.2 1778.48 1551.44 Q1781.21 1555.64 1782.77 1561.72 Q1784.32 1567.76 1784.32 1578.04 Q1784.32 1590.2 1781.83 1597.7 Q1779.33 1605.15 1774.33 1609.25 Q1769.38 1613.3 1761.79 1613.3 Q1751.79 1613.3 1746.09 1606.14 Q1739.25 1597.51 1739.25 1578.04 M1747.97 1578.04 Q1747.97 1595.06 1751.93 1600.71 Q1755.94 1606.32 1761.79 1606.32 Q1767.63 1606.32 1771.59 1600.67 Q1775.6 1595.01 1775.6 1578.04 Q1775.6 1560.97 1771.59 1555.36 Q1767.63 1549.75 1761.69 1549.75 Q1755.85 1549.75 1752.36 1554.7 Q1747.97 1561.01 1747.97 1578.04 Z" fill="#000000" fill-rule="nonzero" fill-opacity="1" /><path clip-path="url(#clip040)" d="M2147.4 1612.12 L2147.4 1595.57 L2117.42 1595.57 L2117.42 1587.8 L2148.96 1543 L2155.89 1543 L2155.89 1587.8 L2165.23 1587.8 L2165.23 1595.57 L2155.89 1595.57 L2155.89 1612.12 L2147.4 1612.12 M2147.4 1587.8 L2147.4 1556.63 L2125.76 1587.8 L2147.4 1587.8 Z" fill="#000000" fill-rule="nonzero" fill-opacity="1" /><path clip-path="url(#clip040)" d="M2173.9 1578.04 Q2173.9 1565.78 2176.4 1558.33 Q2178.95 1550.83 2183.9 1546.78 Q2188.9 1542.72 2196.44 1542.72 Q2202 1542.72 2206.2 1544.98 Q2210.39 1547.2 2213.13 1551.44 Q2215.86 1555.64 2217.42 1561.72 Q2218.98 1567.76 2218.98 1578.04 Q2218.98 1590.2 2216.48 1597.7 Q2213.98 1605.15 2208.98 1609.25 Q2204.03 1613.3 2196.44 1613.3 Q2186.44 1613.3 2180.74 1606.14 Q2173.9 1597.51 2173.9 1578.04 M2182.62 1578.04 Q2182.62 1595.06 2186.58 1600.71 Q2190.59 1606.32 2196.44 1606.32 Q2202.29 1606.32 2206.25 1600.67 Q2210.25 1595.01 2210.25 1578.04 Q2210.25 1560.97 2206.25 1555.36 Q2202.29 1549.75 2196.34 1549.75 Q2190.5 1549.75 2187.01 1554.7 Q2182.62 1561.01 2182.62 1578.04 Z" fill="#000000" fill-rule="nonzero" fill-opacity="1" /><path clip-path="url(#clip040)" d="M1287.8 1721.38 L1297.67 1722.6 Q1295.33 1731.24 1289.02 1736.01 Q1282.71 1740.79 1272.9 1740.79 Q1260.54 1740.79 1253.27 1733.2 Q1246.06 1725.57 1246.06 1711.83 Q1246.06 1697.61 1253.38 1689.76 Q1260.7 1681.91 1272.37 1681.91 Q1283.66 1681.91 1290.82 1689.6 Q1297.99 1697.29 1297.99 1711.24 Q1297.99 1712.09 1297.93 1713.79 L1255.92 1713.79 Q1256.45 1723.07 1261.17 1728.01 Q1265.9 1732.94 1272.95 1732.94 Q1278.2 1732.94 1281.91 1730.18 Q1285.63 1727.42 1287.8 1721.38 M1256.45 1705.94 L1287.91 1705.94 Q1287.27 1698.83 1284.3 1695.28 Q1279.74 1689.76 1272.47 1689.76 Q1265.9 1689.76 1261.39 1694.16 Q1256.93 1698.57 1256.45 1705.94 Z" fill="#000000" fill-rule="nonzero" fill-opacity="1" /><path clip-path="url(#clip040)" d="M1309.65 1761.1 L1309.65 1683.18 L1318.35 1683.18 L1318.35 1690.5 Q1321.43 1686.21 1325.3 1684.09 Q1329.17 1681.91 1334.69 1681.91 Q1341.9 1681.91 1347.42 1685.62 Q1352.94 1689.34 1355.75 1696.13 Q1358.56 1702.86 1358.56 1710.93 Q1358.56 1719.57 1355.43 1726.52 Q1352.35 1733.42 1346.41 1737.13 Q1340.53 1740.79 1334 1740.79 Q1329.23 1740.79 1325.41 1738.77 Q1321.64 1736.76 1319.2 1733.68 L1319.2 1761.1 L1309.65 1761.1 M1318.3 1711.67 Q1318.3 1722.54 1322.7 1727.74 Q1327.11 1732.94 1333.36 1732.94 Q1339.73 1732.94 1344.24 1727.58 Q1348.8 1722.17 1348.8 1710.87 Q1348.8 1700.11 1344.34 1694.75 Q1339.94 1689.39 1333.79 1689.39 Q1327.69 1689.39 1322.97 1695.12 Q1318.3 1700.79 1318.3 1711.67 Z" fill="#000000" fill-rule="nonzero" fill-opacity="1" /><path clip-path="url(#clip040)" d="M1366.52 1711.35 Q1366.52 1695.7 1375.22 1688.17 Q1382.48 1681.91 1392.93 1681.91 Q1404.55 1681.91 1411.92 1689.55 Q1419.29 1697.13 1419.29 1710.55 Q1419.29 1721.43 1416 1727.69 Q1412.77 1733.89 1406.51 1737.34 Q1400.3 1740.79 1392.93 1740.79 Q1381.1 1740.79 1373.78 1733.2 Q1366.52 1725.62 1366.52 1711.35 M1376.33 1711.35 Q1376.33 1722.17 1381.05 1727.58 Q1385.77 1732.94 1392.93 1732.94 Q1400.04 1732.94 1404.76 1727.53 Q1409.48 1722.12 1409.48 1711.03 Q1409.48 1700.58 1404.71 1695.23 Q1399.99 1689.82 1392.93 1689.82 Q1385.77 1689.82 1381.05 1695.17 Q1376.33 1700.53 1376.33 1711.35 Z" fill="#000000" fill-rule="nonzero" fill-opacity="1" /><path clip-path="url(#clip040)" d="M1467.24 1718.88 L1476.63 1720.1 Q1475.09 1729.81 1468.73 1735.33 Q1462.42 1740.79 1453.19 1740.79 Q1441.62 1740.79 1434.57 1733.26 Q1427.57 1725.67 1427.57 1711.56 Q1427.57 1702.44 1430.59 1695.6 Q1433.61 1688.75 1439.77 1685.36 Q1445.97 1681.91 1453.24 1681.91 Q1462.42 1681.91 1468.25 1686.58 Q1474.09 1691.19 1475.73 1699.73 L1466.45 1701.17 Q1465.12 1695.49 1461.73 1692.63 Q1458.39 1689.76 1453.61 1689.76 Q1446.4 1689.76 1441.89 1694.96 Q1437.38 1700.11 1437.38 1711.3 Q1437.38 1722.65 1441.73 1727.79 Q1446.08 1732.94 1453.08 1732.94 Q1458.7 1732.94 1462.47 1729.49 Q1466.24 1726.04 1467.24 1718.88 Z" fill="#000000" fill-rule="nonzero" fill-opacity="1" /><path clip-path="url(#clip040)" d="M1484.8 1739.52 L1484.8 1661.76 L1494.35 1661.76 L1494.35 1689.66 Q1501.03 1681.91 1511.22 1681.91 Q1517.47 1681.91 1522.09 1684.4 Q1526.7 1686.84 1528.67 1691.19 Q1530.68 1695.54 1530.68 1703.82 L1530.68 1739.52 L1521.13 1739.52 L1521.13 1703.82 Q1521.13 1696.66 1518.01 1693.42 Q1514.93 1690.13 1509.25 1690.13 Q1505.01 1690.13 1501.24 1692.36 Q1497.53 1694.54 1495.94 1698.3 Q1494.35 1702.07 1494.35 1708.7 L1494.35 1739.52 L1484.8 1739.52 Z" fill="#000000" fill-rule="nonzero" fill-opacity="1" /><polyline clip-path="url(#clip040)" style="stroke:#000000; stroke-linecap:round; stroke-linejoin:round; stroke-width:4; stroke-opacity:1; fill:none" points="423.983,1506.52 423.983,47.2441 "/>
<polyline clip-path="url(#clip040)" style="stroke:#000000; stroke-linecap:round; stroke-linejoin:round; stroke-width:2; stroke-opacity:0.5; fill:none" points="2352.76,1506.52 2352.76,47.2441 "/>
<polyline clip-path="url(#clip040)" style="stroke:#000000; stroke-linecap:round; stroke-linejoin:round; stroke-width:4; stroke-opacity:1; fill:none" points="423.983,1399.54 442.881,1399.54 "/>
<polyline clip-path="url(#clip040)" style="stroke:#000000; stroke-linecap:round; stroke-linejoin:round; stroke-width:4; stroke-opacity:1; fill:none" points="423.983,1151.23 442.881,1151.23 "/>
<polyline clip-path="url(#clip040)" style="stroke:#000000; stroke-linecap:round; stroke-linejoin:round; stroke-width:4; stroke-opacity:1; fill:none" points="423.983,902.924 442.881,902.924 "/>
<polyline clip-path="url(#clip040)" style="stroke:#000000; stroke-linecap:round; stroke-linejoin:round; stroke-width:4; stroke-opacity:1; fill:none" points="423.983,654.619 442.881,654.619 "/>
<polyline clip-path="url(#clip040)" style="stroke:#000000; stroke-linecap:round; stroke-linejoin:round; stroke-width:4; stroke-opacity:1; fill:none" points="423.983,406.314 442.881,406.314 "/>
<polyline clip-path="url(#clip040)" style="stroke:#000000; stroke-linecap:round; stroke-linejoin:round; stroke-width:4; stroke-opacity:1; fill:none" points="423.983,158.008 442.881,158.008 "/>
<path clip-path="url(#clip040)" d="M154.22 1400.01 Q154.22 1387.75 156.719 1380.3 Q159.265 1372.8 164.216 1368.75 Q169.213 1364.69 176.757 1364.69 Q182.321 1364.69 186.517 1366.96 Q190.713 1369.17 193.448 1373.41 Q196.183 1377.61 197.738 1383.69 Q199.294 1389.73 199.294 1400.01 Q199.294 1412.17 196.795 1419.67 Q194.297 1427.12 189.299 1431.22 Q184.348 1435.27 176.757 1435.27 Q166.762 1435.27 161.057 1428.11 Q154.22 1419.48 154.22 1400.01 M162.943 1400.01 Q162.943 1417.03 166.903 1422.69 Q170.911 1428.3 176.757 1428.3 Q182.604 1428.3 186.564 1422.64 Q190.572 1416.98 190.572 1400.01 Q190.572 1382.94 186.564 1377.33 Q182.604 1371.72 176.663 1371.72 Q170.817 1371.72 167.327 1376.67 Q162.943 1382.99 162.943 1400.01 Z" fill="#000000" fill-rule="nonzero" fill-opacity="1" /><path clip-path="url(#clip040)" d="M212.685 1434.1 L212.685 1424.43 L222.35 1424.43 L222.35 1434.1 L212.685 1434.1 Z" fill="#000000" fill-rule="nonzero" fill-opacity="1" /><path clip-path="url(#clip040)" d="M236.023 1418.11 L244.18 1417.36 Q245.217 1423.11 248.14 1425.7 Q251.064 1428.3 255.637 1428.3 Q259.55 1428.3 262.474 1426.5 Q265.444 1424.71 267.33 1421.74 Q269.216 1418.72 270.489 1413.63 Q271.762 1408.54 271.762 1403.26 Q271.762 1402.69 271.715 1401.56 Q269.169 1405.62 264.737 1408.16 Q260.352 1410.66 255.213 1410.66 Q246.632 1410.66 240.691 1404.44 Q234.75 1398.22 234.75 1388.03 Q234.75 1377.52 240.927 1371.1 Q247.15 1364.69 256.486 1364.69 Q263.228 1364.69 268.792 1368.32 Q274.402 1371.95 277.278 1378.7 Q280.201 1385.39 280.201 1398.12 Q280.201 1411.37 277.325 1419.24 Q274.449 1427.07 268.744 1431.17 Q263.087 1435.27 255.448 1435.27 Q247.339 1435.27 242.2 1430.79 Q237.06 1426.27 236.023 1418.11 M270.772 1387.61 Q270.772 1380.3 266.858 1376.01 Q262.992 1371.72 257.523 1371.72 Q251.865 1371.72 247.669 1376.34 Q243.473 1380.96 243.473 1388.31 Q243.473 1394.91 247.433 1399.06 Q251.441 1403.17 257.287 1403.17 Q263.181 1403.17 266.953 1399.06 Q270.772 1394.91 270.772 1387.61 Z" fill="#000000" fill-rule="nonzero" fill-opacity="1" /><path clip-path="url(#clip040)" d="M333.055 1425.94 L333.055 1434.1 L287.368 1434.1 Q287.274 1431.03 288.358 1428.2 Q290.103 1423.53 293.922 1419.01 Q297.788 1414.48 305.049 1408.54 Q316.317 1399.3 320.278 1393.92 Q324.238 1388.5 324.238 1383.69 Q324.238 1378.65 320.608 1375.21 Q317.025 1371.72 311.225 1371.72 Q305.096 1371.72 301.418 1375.4 Q297.741 1379.07 297.694 1385.58 L288.971 1384.68 Q289.867 1374.92 295.713 1369.83 Q301.56 1364.69 311.414 1364.69 Q321.362 1364.69 327.162 1370.21 Q332.961 1375.73 332.961 1383.88 Q332.961 1388.03 331.264 1392.04 Q329.566 1396.05 325.606 1400.48 Q321.692 1404.91 312.546 1412.64 Q304.907 1419.05 302.739 1421.37 Q300.57 1423.63 299.155 1425.94 L333.055 1425.94 Z" fill="#000000" fill-rule="nonzero" fill-opacity="1" /><path clip-path="url(#clip040)" d="M342.155 1415.99 L351.066 1415.24 Q352.056 1421.74 355.639 1425.04 Q359.27 1428.3 364.362 1428.3 Q370.491 1428.3 374.735 1423.68 Q378.978 1419.05 378.978 1411.42 Q378.978 1404.16 374.876 1399.96 Q370.821 1395.76 364.22 1395.76 Q360.119 1395.76 356.818 1397.65 Q353.518 1399.49 351.632 1402.46 L343.664 1401.42 L350.359 1365.92 L384.73 1365.92 L384.73 1374.03 L357.148 1374.03 L353.423 1392.6 Q359.647 1388.27 366.484 1388.27 Q375.536 1388.27 381.76 1394.54 Q387.983 1400.81 387.983 1410.66 Q387.983 1420.04 382.514 1426.88 Q375.866 1435.27 364.362 1435.27 Q354.932 1435.27 348.944 1429.99 Q343.004 1424.71 342.155 1415.99 Z" fill="#000000" fill-rule="nonzero" fill-opacity="1" /><path clip-path="url(#clip040)" d="M154.975 1151.7 Q154.975 1139.44 157.473 1131.99 Q160.019 1124.5 164.97 1120.44 Q169.968 1116.39 177.512 1116.39 Q183.075 1116.39 187.271 1118.65 Q191.468 1120.87 194.202 1125.11 Q196.937 1129.31 198.493 1135.39 Q200.049 1141.42 200.049 1151.7 Q200.049 1163.87 197.55 1171.36 Q195.051 1178.81 190.053 1182.91 Q185.103 1186.97 177.512 1186.97 Q167.516 1186.97 161.811 1179.8 Q154.975 1171.17 154.975 1151.7 M163.697 1151.7 Q163.697 1168.72 167.658 1174.38 Q171.665 1179.99 177.512 1179.99 Q183.358 1179.99 187.319 1174.33 Q191.326 1168.67 191.326 1151.7 Q191.326 1134.63 187.319 1129.02 Q183.358 1123.41 177.417 1123.41 Q171.571 1123.41 168.082 1128.36 Q163.697 1134.68 163.697 1151.7 Z" fill="#000000" fill-rule="nonzero" fill-opacity="1" /><path clip-path="url(#clip040)" d="M213.439 1185.79 L213.439 1176.12 L223.104 1176.12 L223.104 1185.79 L213.439 1185.79 Z" fill="#000000" fill-rule="nonzero" fill-opacity="1" /><path clip-path="url(#clip040)" d="M236.778 1169.81 L244.934 1169.05 Q245.972 1174.8 248.895 1177.4 Q251.818 1179.99 256.391 1179.99 Q260.305 1179.99 263.228 1178.2 Q266.198 1176.41 268.084 1173.44 Q269.97 1170.42 271.243 1165.33 Q272.516 1160.24 272.516 1154.95 Q272.516 1154.39 272.469 1153.26 Q269.923 1157.31 265.491 1159.86 Q261.106 1162.36 255.967 1162.36 Q247.386 1162.36 241.445 1156.13 Q235.505 1149.91 235.505 1139.73 Q235.505 1129.21 241.681 1122.8 Q247.905 1116.39 257.24 1116.39 Q263.982 1116.39 269.546 1120.02 Q275.157 1123.65 278.033 1130.39 Q280.956 1137.09 280.956 1149.82 Q280.956 1163.06 278.08 1170.94 Q275.204 1178.76 269.499 1182.87 Q263.841 1186.97 256.203 1186.97 Q248.093 1186.97 242.954 1182.49 Q237.815 1177.96 236.778 1169.81 M271.526 1139.3 Q271.526 1131.99 267.613 1127.7 Q263.747 1123.41 258.277 1123.41 Q252.62 1123.41 248.423 1128.03 Q244.227 1132.65 244.227 1140.01 Q244.227 1146.61 248.188 1150.76 Q252.195 1154.86 258.042 1154.86 Q263.935 1154.86 267.707 1150.76 Q271.526 1146.61 271.526 1139.3 Z" fill="#000000" fill-rule="nonzero" fill-opacity="1" /><path clip-path="url(#clip040)" d="M289.207 1167.68 L298.118 1166.93 Q299.108 1173.44 302.691 1176.74 Q306.322 1179.99 311.414 1179.99 Q317.543 1179.99 321.787 1175.37 Q326.03 1170.75 326.03 1163.11 Q326.03 1155.85 321.928 1151.65 Q317.873 1147.46 311.272 1147.46 Q307.171 1147.46 303.87 1149.34 Q300.57 1151.18 298.684 1154.15 L290.716 1153.12 L297.411 1117.61 L331.782 1117.61 L331.782 1125.72 L304.2 1125.72 L300.475 1144.3 Q306.699 1139.96 313.536 1139.96 Q322.588 1139.96 328.812 1146.23 Q335.035 1152.5 335.035 1162.36 Q335.035 1171.74 329.566 1178.58 Q322.918 1186.97 311.414 1186.97 Q301.984 1186.97 295.996 1181.69 Q290.056 1176.41 289.207 1167.68 Z" fill="#000000" fill-rule="nonzero" fill-opacity="1" /><path clip-path="url(#clip040)" d="M342.909 1151.7 Q342.909 1139.44 345.408 1131.99 Q347.954 1124.5 352.905 1120.44 Q357.903 1116.39 365.446 1116.39 Q371.01 1116.39 375.206 1118.65 Q379.402 1120.87 382.137 1125.11 Q384.872 1129.31 386.428 1135.39 Q387.983 1141.42 387.983 1151.7 Q387.983 1163.87 385.485 1171.36 Q382.986 1178.81 377.988 1182.91 Q373.037 1186.97 365.446 1186.97 Q355.451 1186.97 349.746 1179.8 Q342.909 1171.17 342.909 1151.7 M351.632 1151.7 Q351.632 1168.72 355.592 1174.38 Q359.6 1179.99 365.446 1179.99 Q371.293 1179.99 375.253 1174.33 Q379.261 1168.67 379.261 1151.7 Q379.261 1134.63 375.253 1129.02 Q371.293 1123.41 365.352 1123.41 Q359.506 1123.41 356.017 1128.36 Q351.632 1134.68 351.632 1151.7 Z" fill="#000000" fill-rule="nonzero" fill-opacity="1" /><path clip-path="url(#clip040)" d="M154.22 903.396 Q154.22 891.137 156.719 883.688 Q159.265 876.191 164.216 872.136 Q169.213 868.082 176.757 868.082 Q182.321 868.082 186.517 870.345 Q190.713 872.561 193.448 876.804 Q196.183 881 197.738 887.082 Q199.294 893.117 199.294 903.396 Q199.294 915.56 196.795 923.057 Q194.297 930.506 189.299 934.608 Q184.348 938.663 176.757 938.663 Q166.762 938.663 161.057 931.497 Q154.22 922.868 154.22 903.396 M162.943 903.396 Q162.943 920.417 166.903 926.074 Q170.911 931.685 176.757 931.685 Q182.604 931.685 186.564 926.027 Q190.572 920.369 190.572 903.396 Q190.572 886.328 186.564 880.717 Q182.604 875.107 176.663 875.107 Q170.817 875.107 167.327 880.057 Q162.943 886.375 162.943 903.396 Z" fill="#000000" fill-rule="nonzero" fill-opacity="1" /><path clip-path="url(#clip040)" d="M212.685 937.484 L212.685 927.819 L222.35 927.819 L222.35 937.484 L212.685 937.484 Z" fill="#000000" fill-rule="nonzero" fill-opacity="1" /><path clip-path="url(#clip040)" d="M236.023 921.501 L244.18 920.747 Q245.217 926.499 248.14 929.092 Q251.064 931.685 255.637 931.685 Q259.55 931.685 262.474 929.893 Q265.444 928.102 267.33 925.131 Q269.216 922.114 270.489 917.022 Q271.762 911.93 271.762 906.649 Q271.762 906.083 271.715 904.952 Q269.169 909.007 264.737 911.553 Q260.352 914.052 255.213 914.052 Q246.632 914.052 240.691 907.828 Q234.75 901.604 234.75 891.42 Q234.75 880.906 240.927 874.494 Q247.15 868.082 256.486 868.082 Q263.228 868.082 268.792 871.712 Q274.402 875.342 277.278 882.085 Q280.201 888.78 280.201 901.51 Q280.201 914.759 277.325 922.633 Q274.449 930.459 268.744 934.561 Q263.087 938.663 255.448 938.663 Q247.339 938.663 242.2 934.184 Q237.06 929.658 236.023 921.501 M270.772 890.996 Q270.772 883.688 266.858 879.397 Q262.992 875.107 257.523 875.107 Q251.865 875.107 247.669 879.727 Q243.473 884.348 243.473 891.703 Q243.473 898.304 247.433 902.453 Q251.441 906.555 257.287 906.555 Q263.181 906.555 266.953 902.453 Q270.772 898.304 270.772 890.996 Z" fill="#000000" fill-rule="nonzero" fill-opacity="1" /><path clip-path="url(#clip040)" d="M289.018 877.417 L289.018 869.26 L333.762 869.26 L333.762 875.861 Q327.162 882.886 320.655 894.532 Q314.196 906.178 310.66 918.484 Q308.114 927.159 307.406 937.484 L298.684 937.484 Q298.825 929.328 301.89 917.776 Q304.955 906.225 310.66 895.522 Q316.412 884.772 322.871 877.417 L289.018 877.417 Z" fill="#000000" fill-rule="nonzero" fill-opacity="1" /><path clip-path="url(#clip040)" d="M342.155 919.379 L351.066 918.625 Q352.056 925.131 355.639 928.432 Q359.27 931.685 364.362 931.685 Q370.491 931.685 374.735 927.065 Q378.978 922.444 378.978 914.806 Q378.978 907.545 374.876 903.349 Q370.821 899.153 364.22 899.153 Q360.119 899.153 356.818 901.038 Q353.518 902.877 351.632 905.848 L343.664 904.81 L350.359 869.307 L384.73 869.307 L384.73 877.417 L357.148 877.417 L353.423 895.994 Q359.647 891.656 366.484 891.656 Q375.536 891.656 381.76 897.927 Q387.983 904.197 387.983 914.052 Q387.983 923.434 382.514 930.271 Q375.866 938.663 364.362 938.663 Q354.932 938.663 348.944 933.382 Q343.004 928.102 342.155 919.379 Z" fill="#000000" fill-rule="nonzero" fill-opacity="1" /><path clip-path="url(#clip040)" d="M186.941 689.179 L178.455 689.179 L178.455 635.099 Q175.39 638.023 170.392 640.946 Q165.442 643.869 161.481 645.331 L161.481 637.127 Q168.601 633.779 173.928 629.017 Q179.256 624.255 181.472 619.776 L186.941 619.776 L186.941 689.179 Z" fill="#000000" fill-rule="nonzero" fill-opacity="1" /><path clip-path="url(#clip040)" d="M213.439 689.179 L213.439 679.514 L223.104 679.514 L223.104 689.179 L213.439 689.179 Z" fill="#000000" fill-rule="nonzero" fill-opacity="1" /><path clip-path="url(#clip040)" d="M235.505 655.09 Q235.505 642.832 238.003 635.382 Q240.549 627.886 245.5 623.831 Q250.498 619.776 258.042 619.776 Q263.605 619.776 267.801 622.039 Q271.998 624.255 274.732 628.499 Q277.467 632.695 279.023 638.777 Q280.579 644.812 280.579 655.09 Q280.579 667.255 278.08 674.751 Q275.581 682.201 270.583 686.303 Q265.633 690.358 258.042 690.358 Q248.046 690.358 242.341 683.191 Q235.505 674.563 235.505 655.09 M244.227 655.09 Q244.227 672.111 248.188 677.769 Q252.195 683.38 258.042 683.38 Q263.888 683.38 267.849 677.722 Q271.856 672.064 271.856 655.09 Q271.856 638.023 267.849 632.412 Q263.888 626.801 257.947 626.801 Q252.101 626.801 248.612 631.752 Q244.227 638.07 244.227 655.09 Z" fill="#000000" fill-rule="nonzero" fill-opacity="1" /><path clip-path="url(#clip040)" d="M289.207 655.09 Q289.207 642.832 291.706 635.382 Q294.252 627.886 299.202 623.831 Q304.2 619.776 311.744 619.776 Q317.308 619.776 321.504 622.039 Q325.7 624.255 328.435 628.499 Q331.169 632.695 332.725 638.777 Q334.281 644.812 334.281 655.09 Q334.281 667.255 331.782 674.751 Q329.283 682.201 324.286 686.303 Q319.335 690.358 311.744 690.358 Q301.748 690.358 296.043 683.191 Q289.207 674.563 289.207 655.09 M297.929 655.09 Q297.929 672.111 301.89 677.769 Q305.898 683.38 311.744 683.38 Q317.59 683.38 321.551 677.722 Q325.559 672.064 325.559 655.09 Q325.559 638.023 321.551 632.412 Q317.59 626.801 311.65 626.801 Q305.803 626.801 302.314 631.752 Q297.929 638.07 297.929 655.09 Z" fill="#000000" fill-rule="nonzero" fill-opacity="1" /><path clip-path="url(#clip040)" d="M342.909 655.09 Q342.909 642.832 345.408 635.382 Q347.954 627.886 352.905 623.831 Q357.903 619.776 365.446 619.776 Q371.01 619.776 375.206 622.039 Q379.402 624.255 382.137 628.499 Q384.872 632.695 386.428 638.777 Q387.983 644.812 387.983 655.09 Q387.983 667.255 385.485 674.751 Q382.986 682.201 377.988 686.303 Q373.037 690.358 365.446 690.358 Q355.451 690.358 349.746 683.191 Q342.909 674.563 342.909 655.09 M351.632 655.09 Q351.632 672.111 355.592 677.769 Q359.6 683.38 365.446 683.38 Q371.293 683.38 375.253 677.722 Q379.261 672.064 379.261 655.09 Q379.261 638.023 375.253 632.412 Q371.293 626.801 365.352 626.801 Q359.506 626.801 356.017 631.752 Q351.632 638.07 351.632 655.09 Z" fill="#000000" fill-rule="nonzero" fill-opacity="1" /><path clip-path="url(#clip040)" d="M186.187 440.874 L177.7 440.874 L177.7 386.794 Q174.636 389.717 169.638 392.64 Q164.687 395.564 160.727 397.025 L160.727 388.821 Q167.846 385.474 173.174 380.712 Q178.502 375.95 180.718 371.471 L186.187 371.471 L186.187 440.874 Z" fill="#000000" fill-rule="nonzero" fill-opacity="1" /><path clip-path="url(#clip040)" d="M212.685 440.874 L212.685 431.208 L222.35 431.208 L222.35 440.874 L212.685 440.874 Z" fill="#000000" fill-rule="nonzero" fill-opacity="1" /><path clip-path="url(#clip040)" d="M234.75 406.785 Q234.75 394.526 237.249 387.077 Q239.795 379.58 244.746 375.525 Q249.743 371.471 257.287 371.471 Q262.851 371.471 267.047 373.734 Q271.243 375.95 273.978 380.193 Q276.712 384.389 278.268 390.472 Q279.824 396.507 279.824 406.785 Q279.824 418.949 277.325 426.446 Q274.827 433.896 269.829 437.998 Q264.878 442.052 257.287 442.052 Q247.292 442.052 241.587 434.886 Q234.75 426.257 234.75 406.785 M243.473 406.785 Q243.473 423.806 247.433 429.464 Q251.441 435.074 257.287 435.074 Q263.134 435.074 267.094 429.416 Q271.102 423.759 271.102 406.785 Q271.102 389.717 267.094 384.107 Q263.134 378.496 257.193 378.496 Q251.346 378.496 247.857 383.446 Q243.473 389.764 243.473 406.785 Z" fill="#000000" fill-rule="nonzero" fill-opacity="1" /><path clip-path="url(#clip040)" d="M333.055 432.717 L333.055 440.874 L287.368 440.874 Q287.274 437.809 288.358 434.98 Q290.103 430.312 293.922 425.786 Q297.788 421.26 305.049 415.319 Q316.317 406.078 320.278 400.703 Q324.238 395.281 324.238 390.472 Q324.238 385.427 320.608 381.985 Q317.025 378.496 311.225 378.496 Q305.096 378.496 301.418 382.173 Q297.741 385.851 297.694 392.358 L288.971 391.462 Q289.867 381.702 295.713 376.61 Q301.56 371.471 311.414 371.471 Q321.362 371.471 327.162 376.987 Q332.961 382.503 332.961 390.66 Q332.961 394.809 331.264 398.817 Q329.566 402.825 325.606 407.257 Q321.692 411.689 312.546 419.421 Q304.907 425.833 302.739 428.143 Q300.57 430.407 299.155 432.717 L333.055 432.717 Z" fill="#000000" fill-rule="nonzero" fill-opacity="1" /><path clip-path="url(#clip040)" d="M342.155 422.768 L351.066 422.014 Q352.056 428.521 355.639 431.821 Q359.27 435.074 364.362 435.074 Q370.491 435.074 374.735 430.454 Q378.978 425.833 378.978 418.195 Q378.978 410.934 374.876 406.738 Q370.821 402.542 364.22 402.542 Q360.119 402.542 356.818 404.428 Q353.518 406.266 351.632 409.237 L343.664 408.2 L350.359 372.697 L384.73 372.697 L384.73 380.806 L357.148 380.806 L353.423 399.383 Q359.647 395.045 366.484 395.045 Q375.536 395.045 381.76 401.316 Q387.983 407.587 387.983 417.441 Q387.983 426.823 382.514 433.66 Q375.866 442.052 364.362 442.052 Q354.932 442.052 348.944 436.772 Q343.004 431.491 342.155 422.768 Z" fill="#000000" fill-rule="nonzero" fill-opacity="1" /><path clip-path="url(#clip040)" d="M186.941 192.568 L178.455 192.568 L178.455 138.489 Q175.39 141.412 170.392 144.335 Q165.442 147.258 161.481 148.72 L161.481 140.516 Q168.601 137.168 173.928 132.406 Q179.256 127.644 181.472 123.165 L186.941 123.165 L186.941 192.568 Z" fill="#000000" fill-rule="nonzero" fill-opacity="1" /><path clip-path="url(#clip040)" d="M213.439 192.568 L213.439 182.903 L223.104 182.903 L223.104 192.568 L213.439 192.568 Z" fill="#000000" fill-rule="nonzero" fill-opacity="1" /><path clip-path="url(#clip040)" d="M235.505 158.48 Q235.505 146.221 238.003 138.771 Q240.549 131.275 245.5 127.22 Q250.498 123.165 258.042 123.165 Q263.605 123.165 267.801 125.428 Q271.998 127.644 274.732 131.888 Q277.467 136.084 279.023 142.166 Q280.579 148.201 280.579 158.48 Q280.579 170.644 278.08 178.141 Q275.581 185.59 270.583 189.692 Q265.633 193.747 258.042 193.747 Q248.046 193.747 242.341 186.58 Q235.505 177.952 235.505 158.48 M244.227 158.48 Q244.227 175.5 248.188 181.158 Q252.195 186.769 258.042 186.769 Q263.888 186.769 267.849 181.111 Q271.856 175.453 271.856 158.48 Q271.856 141.412 267.849 135.801 Q263.888 130.19 257.947 130.19 Q252.101 130.19 248.612 135.141 Q244.227 141.459 244.227 158.48 Z" fill="#000000" fill-rule="nonzero" fill-opacity="1" /><path clip-path="url(#clip040)" d="M289.207 174.463 L298.118 173.709 Q299.108 180.215 302.691 183.516 Q306.322 186.769 311.414 186.769 Q317.543 186.769 321.787 182.148 Q326.03 177.528 326.03 169.89 Q326.03 162.629 321.928 158.432 Q317.873 154.236 311.272 154.236 Q307.171 154.236 303.87 156.122 Q300.57 157.961 298.684 160.931 L290.716 159.894 L297.411 124.391 L331.782 124.391 L331.782 132.501 L304.2 132.501 L300.475 151.077 Q306.699 146.74 313.536 146.74 Q322.588 146.74 328.812 153.01 Q335.035 159.281 335.035 169.135 Q335.035 178.518 329.566 185.354 Q322.918 193.747 311.414 193.747 Q301.984 193.747 295.996 188.466 Q290.056 183.186 289.207 174.463 Z" fill="#000000" fill-rule="nonzero" fill-opacity="1" /><path clip-path="url(#clip040)" d="M342.909 158.48 Q342.909 146.221 345.408 138.771 Q347.954 131.275 352.905 127.22 Q357.903 123.165 365.446 123.165 Q371.01 123.165 375.206 125.428 Q379.402 127.644 382.137 131.888 Q384.872 136.084 386.428 142.166 Q387.983 148.201 387.983 158.48 Q387.983 170.644 385.485 178.141 Q382.986 185.59 377.988 189.692 Q373.037 193.747 365.446 193.747 Q355.451 193.747 349.746 186.58 Q342.909 177.952 342.909 158.48 M351.632 158.48 Q351.632 175.5 355.592 181.158 Q359.6 186.769 365.446 186.769 Q371.293 186.769 375.253 181.111 Q379.261 175.453 379.261 158.48 Q379.261 141.412 375.253 135.801 Q371.293 130.19 365.352 130.19 Q359.506 130.19 356.017 135.141 Q351.632 141.459 351.632 158.48 Z" fill="#000000" fill-rule="nonzero" fill-opacity="1" /><path clip-path="url(#clip040)" d="M94.8922 867.905 L17.1322 867.905 L17.1322 858.357 L94.8922 858.357 L94.8922 867.905 Z" fill="#000000" fill-rule="nonzero" fill-opacity="1" /><path clip-path="url(#clip040)" d="M66.7267 847.112 Q51.0792 847.112 43.5472 838.413 Q37.2882 831.146 37.2882 820.697 Q37.2882 809.081 44.9263 801.708 Q52.5114 794.335 65.9311 794.335 Q76.8047 794.335 83.0637 797.623 Q89.2697 800.859 92.7174 807.118 Q96.1652 813.324 96.1652 820.697 Q96.1652 832.525 88.5801 839.845 Q80.9951 847.112 66.7267 847.112 M66.7267 837.299 Q77.5473 837.299 82.9576 832.578 Q88.3149 827.858 88.3149 820.697 Q88.3149 813.589 82.9046 808.868 Q77.4943 804.148 66.4084 804.148 Q55.9591 804.148 50.6018 808.921 Q45.1915 813.642 45.1915 820.697 Q45.1915 827.858 50.5488 832.578 Q55.9061 837.299 66.7267 837.299 Z" fill="#000000" fill-rule="nonzero" fill-opacity="1" /><path clip-path="url(#clip040)" d="M78.0778 786.962 L76.5926 777.52 Q82.2681 776.725 85.2915 773.118 Q88.3149 769.458 88.3149 762.934 Q88.3149 756.357 85.6628 753.174 Q82.9576 749.991 79.3508 749.991 Q76.1152 749.991 74.2587 752.803 Q72.9857 754.765 71.0231 762.563 Q68.371 773.065 66.4615 777.149 Q64.4989 781.18 61.1042 783.302 Q57.6565 785.371 53.5192 785.371 Q49.7532 785.371 46.5706 783.673 Q43.335 781.923 41.2134 778.953 Q39.569 776.725 38.4552 772.906 Q37.2882 769.034 37.2882 764.631 Q37.2882 758.001 39.1978 753.015 Q41.1073 747.976 44.3959 745.589 Q47.6315 743.202 53.0948 742.3 L54.3678 751.636 Q50.0184 752.272 47.5784 755.349 Q45.1385 758.372 45.1385 763.942 Q45.1385 770.519 47.3132 773.33 Q49.488 776.141 52.4053 776.141 Q54.2618 776.141 55.7469 774.974 Q57.2852 773.807 58.293 771.314 Q58.8234 769.882 60.7329 762.881 Q63.4381 752.75 65.1885 748.772 Q66.8858 744.74 70.1744 742.459 Q73.4631 740.179 78.343 740.179 Q83.1168 740.179 87.3602 742.99 Q91.5505 745.748 93.8844 750.999 Q96.1652 756.25 96.1652 762.881 Q96.1652 773.861 91.6035 779.642 Q87.0419 785.371 78.0778 786.962 Z" fill="#000000" fill-rule="nonzero" fill-opacity="1" /><path clip-path="url(#clip040)" d="M78.0778 732.647 L76.5926 723.205 Q82.2681 722.41 85.2915 718.803 Q88.3149 715.143 88.3149 708.619 Q88.3149 702.041 85.6628 698.859 Q82.9576 695.676 79.3508 695.676 Q76.1152 695.676 74.2587 698.487 Q72.9857 700.45 71.0231 708.247 Q68.371 718.75 66.4615 722.834 Q64.4989 726.865 61.1042 728.987 Q57.6565 731.055 53.5192 731.055 Q49.7532 731.055 46.5706 729.358 Q43.335 727.608 41.2134 724.637 Q39.569 722.41 38.4552 718.59 Q37.2882 714.718 37.2882 710.316 Q37.2882 703.686 39.1978 698.7 Q41.1073 693.661 44.3959 691.274 Q47.6315 688.887 53.0948 687.985 L54.3678 697.32 Q50.0184 697.957 47.5784 701.033 Q45.1385 704.057 45.1385 709.626 Q45.1385 716.204 47.3132 719.015 Q49.488 721.826 52.4053 721.826 Q54.2618 721.826 55.7469 720.659 Q57.2852 719.492 58.293 716.999 Q58.8234 715.567 60.7329 708.565 Q63.4381 698.434 65.1885 694.456 Q66.8858 690.425 70.1744 688.144 Q73.4631 685.863 78.343 685.863 Q83.1168 685.863 87.3602 688.675 Q91.5505 691.433 93.8844 696.684 Q96.1652 701.935 96.1652 708.565 Q96.1652 719.545 91.6035 725.327 Q87.0419 731.055 78.0778 732.647 Z" fill="#000000" fill-rule="nonzero" fill-opacity="1" /><polyline clip-path="url(#clip042)" style="stroke:#4477aa; stroke-linecap:round; stroke-linejoin:round; stroke-width:8; stroke-opacity:1; fill:none" points="478.571,498.521 521.895,88.5445 565.219,88.588 608.543,88.588 651.866,88.588 695.19,88.588 738.514,88.588 781.837,88.588 825.161,88.588 868.485,88.588 911.809,88.588 955.132,88.588 998.456,88.588 1041.78,88.588 1085.1,88.588 1128.43,88.588 1171.75,88.588 1215.07,88.588 1258.4,88.588 1301.72,88.588 1345.05,88.588 1388.37,88.588 1431.69,88.588 1475.02,88.588 1518.34,88.588 1561.66,88.588 1604.99,88.588 1648.31,88.588 1691.64,88.588 1734.96,88.588 1778.28,88.588 1821.61,88.588 1864.93,88.588 1908.25,88.588 1951.58,88.588 1994.9,88.588 2038.23,88.588 2081.55,88.588 2124.87,88.588 2168.2,88.588 2211.52,88.588 2254.84,88.588 2298.17,88.588 "/>
<circle clip-path="url(#clip042)" cx="478.571" cy="498.521" r="14.4" fill="#4477aa" fill-rule="evenodd" fill-opacity="1" stroke="#000000" stroke-opacity="1" stroke-width="3.6"/>
<circle clip-path="url(#clip042)" cx="521.895" cy="88.5445" r="14.4" fill="#4477aa" fill-rule="evenodd" fill-opacity="1" stroke="#000000" stroke-opacity="1" stroke-width="3.6"/>
<circle clip-path="url(#clip042)" cx="565.219" cy="88.588" r="14.4" fill="#4477aa" fill-rule="evenodd" fill-opacity="1" stroke="#000000" stroke-opacity="1" stroke-width="3.6"/>
<circle clip-path="url(#clip042)" cx="608.543" cy="88.588" r="14.4" fill="#4477aa" fill-rule="evenodd" fill-opacity="1" stroke="#000000" stroke-opacity="1" stroke-width="3.6"/>
<circle clip-path="url(#clip042)" cx="651.866" cy="88.588" r="14.4" fill="#4477aa" fill-rule="evenodd" fill-opacity="1" stroke="#000000" stroke-opacity="1" stroke-width="3.6"/>
<circle clip-path="url(#clip042)" cx="695.19" cy="88.588" r="14.4" fill="#4477aa" fill-rule="evenodd" fill-opacity="1" stroke="#000000" stroke-opacity="1" stroke-width="3.6"/>
<circle clip-path="url(#clip042)" cx="738.514" cy="88.588" r="14.4" fill="#4477aa" fill-rule="evenodd" fill-opacity="1" stroke="#000000" stroke-opacity="1" stroke-width="3.6"/>
<circle clip-path="url(#clip042)" cx="781.837" cy="88.588" r="14.4" fill="#4477aa" fill-rule="evenodd" fill-opacity="1" stroke="#000000" stroke-opacity="1" stroke-width="3.6"/>
<circle clip-path="url(#clip042)" cx="825.161" cy="88.588" r="14.4" fill="#4477aa" fill-rule="evenodd" fill-opacity="1" stroke="#000000" stroke-opacity="1" stroke-width="3.6"/>
<circle clip-path="url(#clip042)" cx="868.485" cy="88.588" r="14.4" fill="#4477aa" fill-rule="evenodd" fill-opacity="1" stroke="#000000" stroke-opacity="1" stroke-width="3.6"/>
<circle clip-path="url(#clip042)" cx="911.809" cy="88.588" r="14.4" fill="#4477aa" fill-rule="evenodd" fill-opacity="1" stroke="#000000" stroke-opacity="1" stroke-width="3.6"/>
<circle clip-path="url(#clip042)" cx="955.132" cy="88.588" r="14.4" fill="#4477aa" fill-rule="evenodd" fill-opacity="1" stroke="#000000" stroke-opacity="1" stroke-width="3.6"/>
<circle clip-path="url(#clip042)" cx="998.456" cy="88.588" r="14.4" fill="#4477aa" fill-rule="evenodd" fill-opacity="1" stroke="#000000" stroke-opacity="1" stroke-width="3.6"/>
<circle clip-path="url(#clip042)" cx="1041.78" cy="88.588" r="14.4" fill="#4477aa" fill-rule="evenodd" fill-opacity="1" stroke="#000000" stroke-opacity="1" stroke-width="3.6"/>
<circle clip-path="url(#clip042)" cx="1085.1" cy="88.588" r="14.4" fill="#4477aa" fill-rule="evenodd" fill-opacity="1" stroke="#000000" stroke-opacity="1" stroke-width="3.6"/>
<circle clip-path="url(#clip042)" cx="1128.43" cy="88.588" r="14.4" fill="#4477aa" fill-rule="evenodd" fill-opacity="1" stroke="#000000" stroke-opacity="1" stroke-width="3.6"/>
<circle clip-path="url(#clip042)" cx="1171.75" cy="88.588" r="14.4" fill="#4477aa" fill-rule="evenodd" fill-opacity="1" stroke="#000000" stroke-opacity="1" stroke-width="3.6"/>
<circle clip-path="url(#clip042)" cx="1215.07" cy="88.588" r="14.4" fill="#4477aa" fill-rule="evenodd" fill-opacity="1" stroke="#000000" stroke-opacity="1" stroke-width="3.6"/>
<circle clip-path="url(#clip042)" cx="1258.4" cy="88.588" r="14.4" fill="#4477aa" fill-rule="evenodd" fill-opacity="1" stroke="#000000" stroke-opacity="1" stroke-width="3.6"/>
<circle clip-path="url(#clip042)" cx="1301.72" cy="88.588" r="14.4" fill="#4477aa" fill-rule="evenodd" fill-opacity="1" stroke="#000000" stroke-opacity="1" stroke-width="3.6"/>
<circle clip-path="url(#clip042)" cx="1345.05" cy="88.588" r="14.4" fill="#4477aa" fill-rule="evenodd" fill-opacity="1" stroke="#000000" stroke-opacity="1" stroke-width="3.6"/>
<circle clip-path="url(#clip042)" cx="1388.37" cy="88.588" r="14.4" fill="#4477aa" fill-rule="evenodd" fill-opacity="1" stroke="#000000" stroke-opacity="1" stroke-width="3.6"/>
<circle clip-path="url(#clip042)" cx="1431.69" cy="88.588" r="14.4" fill="#4477aa" fill-rule="evenodd" fill-opacity="1" stroke="#000000" stroke-opacity="1" stroke-width="3.6"/>
<circle clip-path="url(#clip042)" cx="1475.02" cy="88.588" r="14.4" fill="#4477aa" fill-rule="evenodd" fill-opacity="1" stroke="#000000" stroke-opacity="1" stroke-width="3.6"/>
<circle clip-path="url(#clip042)" cx="1518.34" cy="88.588" r="14.4" fill="#4477aa" fill-rule="evenodd" fill-opacity="1" stroke="#000000" stroke-opacity="1" stroke-width="3.6"/>
<circle clip-path="url(#clip042)" cx="1561.66" cy="88.588" r="14.4" fill="#4477aa" fill-rule="evenodd" fill-opacity="1" stroke="#000000" stroke-opacity="1" stroke-width="3.6"/>
<circle clip-path="url(#clip042)" cx="1604.99" cy="88.588" r="14.4" fill="#4477aa" fill-rule="evenodd" fill-opacity="1" stroke="#000000" stroke-opacity="1" stroke-width="3.6"/>
<circle clip-path="url(#clip042)" cx="1648.31" cy="88.588" r="14.4" fill="#4477aa" fill-rule="evenodd" fill-opacity="1" stroke="#000000" stroke-opacity="1" stroke-width="3.6"/>
<circle clip-path="url(#clip042)" cx="1691.64" cy="88.588" r="14.4" fill="#4477aa" fill-rule="evenodd" fill-opacity="1" stroke="#000000" stroke-opacity="1" stroke-width="3.6"/>
<circle clip-path="url(#clip042)" cx="1734.96" cy="88.588" r="14.4" fill="#4477aa" fill-rule="evenodd" fill-opacity="1" stroke="#000000" stroke-opacity="1" stroke-width="3.6"/>
<circle clip-path="url(#clip042)" cx="1778.28" cy="88.588" r="14.4" fill="#4477aa" fill-rule="evenodd" fill-opacity="1" stroke="#000000" stroke-opacity="1" stroke-width="3.6"/>
<circle clip-path="url(#clip042)" cx="1821.61" cy="88.588" r="14.4" fill="#4477aa" fill-rule="evenodd" fill-opacity="1" stroke="#000000" stroke-opacity="1" stroke-width="3.6"/>
<circle clip-path="url(#clip042)" cx="1864.93" cy="88.588" r="14.4" fill="#4477aa" fill-rule="evenodd" fill-opacity="1" stroke="#000000" stroke-opacity="1" stroke-width="3.6"/>
<circle clip-path="url(#clip042)" cx="1908.25" cy="88.588" r="14.4" fill="#4477aa" fill-rule="evenodd" fill-opacity="1" stroke="#000000" stroke-opacity="1" stroke-width="3.6"/>
<circle clip-path="url(#clip042)" cx="1951.58" cy="88.588" r="14.4" fill="#4477aa" fill-rule="evenodd" fill-opacity="1" stroke="#000000" stroke-opacity="1" stroke-width="3.6"/>
<circle clip-path="url(#clip042)" cx="1994.9" cy="88.588" r="14.4" fill="#4477aa" fill-rule="evenodd" fill-opacity="1" stroke="#000000" stroke-opacity="1" stroke-width="3.6"/>
<circle clip-path="url(#clip042)" cx="2038.23" cy="88.588" r="14.4" fill="#4477aa" fill-rule="evenodd" fill-opacity="1" stroke="#000000" stroke-opacity="1" stroke-width="3.6"/>
<circle clip-path="url(#clip042)" cx="2081.55" cy="88.588" r="14.4" fill="#4477aa" fill-rule="evenodd" fill-opacity="1" stroke="#000000" stroke-opacity="1" stroke-width="3.6"/>
<circle clip-path="url(#clip042)" cx="2124.87" cy="88.588" r="14.4" fill="#4477aa" fill-rule="evenodd" fill-opacity="1" stroke="#000000" stroke-opacity="1" stroke-width="3.6"/>
<circle clip-path="url(#clip042)" cx="2168.2" cy="88.588" r="14.4" fill="#4477aa" fill-rule="evenodd" fill-opacity="1" stroke="#000000" stroke-opacity="1" stroke-width="3.6"/>
<circle clip-path="url(#clip042)" cx="2211.52" cy="88.588" r="14.4" fill="#4477aa" fill-rule="evenodd" fill-opacity="1" stroke="#000000" stroke-opacity="1" stroke-width="3.6"/>
<circle clip-path="url(#clip042)" cx="2254.84" cy="88.588" r="14.4" fill="#4477aa" fill-rule="evenodd" fill-opacity="1" stroke="#000000" stroke-opacity="1" stroke-width="3.6"/>
<circle clip-path="url(#clip042)" cx="2298.17" cy="88.588" r="14.4" fill="#4477aa" fill-rule="evenodd" fill-opacity="1" stroke="#000000" stroke-opacity="1" stroke-width="3.6"/>
<polyline clip-path="url(#clip042)" style="stroke:#ee6677; stroke-linecap:round; stroke-linejoin:round; stroke-width:8; stroke-opacity:1; fill:none" points="478.571,1463.47 521.895,1465.22 565.219,1465.22 608.543,1465.22 651.866,1465.22 695.19,1465.22 738.514,1465.22 781.837,1465.22 825.161,1465.22 868.485,1465.22 911.809,1465.22 955.132,1465.22 998.456,1465.22 1041.78,1465.22 1085.1,1465.22 1128.43,1465.22 1171.75,1465.22 1215.07,1465.22 1258.4,1465.22 1301.72,1465.22 1345.05,1465.22 1388.37,1465.22 1431.69,1465.22 1475.02,1465.22 1518.34,1465.22 1561.66,1465.22 1604.99,1465.22 1648.31,1465.22 1691.64,1465.22 1734.96,1465.22 1778.28,1465.22 1821.61,1465.22 1864.93,1465.22 1908.25,1465.22 1951.58,1465.22 1994.9,1465.22 2038.23,1465.22 2081.55,1465.22 2124.87,1465.22 2168.2,1465.22 2211.52,1465.22 2254.84,1465.22 2298.17,1465.22 "/>
<circle clip-path="url(#clip042)" cx="478.571" cy="1463.47" r="14.4" fill="#ee6677" fill-rule="evenodd" fill-opacity="1" stroke="#000000" stroke-opacity="1" stroke-width="3.6"/>
<circle clip-path="url(#clip042)" cx="521.895" cy="1465.22" r="14.4" fill="#ee6677" fill-rule="evenodd" fill-opacity="1" stroke="#000000" stroke-opacity="1" stroke-width="3.6"/>
<circle clip-path="url(#clip042)" cx="565.219" cy="1465.22" r="14.4" fill="#ee6677" fill-rule="evenodd" fill-opacity="1" stroke="#000000" stroke-opacity="1" stroke-width="3.6"/>
<circle clip-path="url(#clip042)" cx="608.543" cy="1465.22" r="14.4" fill="#ee6677" fill-rule="evenodd" fill-opacity="1" stroke="#000000" stroke-opacity="1" stroke-width="3.6"/>
<circle clip-path="url(#clip042)" cx="651.866" cy="1465.22" r="14.4" fill="#ee6677" fill-rule="evenodd" fill-opacity="1" stroke="#000000" stroke-opacity="1" stroke-width="3.6"/>
<circle clip-path="url(#clip042)" cx="695.19" cy="1465.22" r="14.4" fill="#ee6677" fill-rule="evenodd" fill-opacity="1" stroke="#000000" stroke-opacity="1" stroke-width="3.6"/>
<circle clip-path="url(#clip042)" cx="738.514" cy="1465.22" r="14.4" fill="#ee6677" fill-rule="evenodd" fill-opacity="1" stroke="#000000" stroke-opacity="1" stroke-width="3.6"/>
<circle clip-path="url(#clip042)" cx="781.837" cy="1465.22" r="14.4" fill="#ee6677" fill-rule="evenodd" fill-opacity="1" stroke="#000000" stroke-opacity="1" stroke-width="3.6"/>
<circle clip-path="url(#clip042)" cx="825.161" cy="1465.22" r="14.4" fill="#ee6677" fill-rule="evenodd" fill-opacity="1" stroke="#000000" stroke-opacity="1" stroke-width="3.6"/>
<circle clip-path="url(#clip042)" cx="868.485" cy="1465.22" r="14.4" fill="#ee6677" fill-rule="evenodd" fill-opacity="1" stroke="#000000" stroke-opacity="1" stroke-width="3.6"/>
<circle clip-path="url(#clip042)" cx="911.809" cy="1465.22" r="14.4" fill="#ee6677" fill-rule="evenodd" fill-opacity="1" stroke="#000000" stroke-opacity="1" stroke-width="3.6"/>
<circle clip-path="url(#clip042)" cx="955.132" cy="1465.22" r="14.4" fill="#ee6677" fill-rule="evenodd" fill-opacity="1" stroke="#000000" stroke-opacity="1" stroke-width="3.6"/>
<circle clip-path="url(#clip042)" cx="998.456" cy="1465.22" r="14.4" fill="#ee6677" fill-rule="evenodd" fill-opacity="1" stroke="#000000" stroke-opacity="1" stroke-width="3.6"/>
<circle clip-path="url(#clip042)" cx="1041.78" cy="1465.22" r="14.4" fill="#ee6677" fill-rule="evenodd" fill-opacity="1" stroke="#000000" stroke-opacity="1" stroke-width="3.6"/>
<circle clip-path="url(#clip042)" cx="1085.1" cy="1465.22" r="14.4" fill="#ee6677" fill-rule="evenodd" fill-opacity="1" stroke="#000000" stroke-opacity="1" stroke-width="3.6"/>
<circle clip-path="url(#clip042)" cx="1128.43" cy="1465.22" r="14.4" fill="#ee6677" fill-rule="evenodd" fill-opacity="1" stroke="#000000" stroke-opacity="1" stroke-width="3.6"/>
<circle clip-path="url(#clip042)" cx="1171.75" cy="1465.22" r="14.4" fill="#ee6677" fill-rule="evenodd" fill-opacity="1" stroke="#000000" stroke-opacity="1" stroke-width="3.6"/>
<circle clip-path="url(#clip042)" cx="1215.07" cy="1465.22" r="14.4" fill="#ee6677" fill-rule="evenodd" fill-opacity="1" stroke="#000000" stroke-opacity="1" stroke-width="3.6"/>
<circle clip-path="url(#clip042)" cx="1258.4" cy="1465.22" r="14.4" fill="#ee6677" fill-rule="evenodd" fill-opacity="1" stroke="#000000" stroke-opacity="1" stroke-width="3.6"/>
<circle clip-path="url(#clip042)" cx="1301.72" cy="1465.22" r="14.4" fill="#ee6677" fill-rule="evenodd" fill-opacity="1" stroke="#000000" stroke-opacity="1" stroke-width="3.6"/>
<circle clip-path="url(#clip042)" cx="1345.05" cy="1465.22" r="14.4" fill="#ee6677" fill-rule="evenodd" fill-opacity="1" stroke="#000000" stroke-opacity="1" stroke-width="3.6"/>
<circle clip-path="url(#clip042)" cx="1388.37" cy="1465.22" r="14.4" fill="#ee6677" fill-rule="evenodd" fill-opacity="1" stroke="#000000" stroke-opacity="1" stroke-width="3.6"/>
<circle clip-path="url(#clip042)" cx="1431.69" cy="1465.22" r="14.4" fill="#ee6677" fill-rule="evenodd" fill-opacity="1" stroke="#000000" stroke-opacity="1" stroke-width="3.6"/>
<circle clip-path="url(#clip042)" cx="1475.02" cy="1465.22" r="14.4" fill="#ee6677" fill-rule="evenodd" fill-opacity="1" stroke="#000000" stroke-opacity="1" stroke-width="3.6"/>
<circle clip-path="url(#clip042)" cx="1518.34" cy="1465.22" r="14.4" fill="#ee6677" fill-rule="evenodd" fill-opacity="1" stroke="#000000" stroke-opacity="1" stroke-width="3.6"/>
<circle clip-path="url(#clip042)" cx="1561.66" cy="1465.22" r="14.4" fill="#ee6677" fill-rule="evenodd" fill-opacity="1" stroke="#000000" stroke-opacity="1" stroke-width="3.6"/>
<circle clip-path="url(#clip042)" cx="1604.99" cy="1465.22" r="14.4" fill="#ee6677" fill-rule="evenodd" fill-opacity="1" stroke="#000000" stroke-opacity="1" stroke-width="3.6"/>
<circle clip-path="url(#clip042)" cx="1648.31" cy="1465.22" r="14.4" fill="#ee6677" fill-rule="evenodd" fill-opacity="1" stroke="#000000" stroke-opacity="1" stroke-width="3.6"/>
<circle clip-path="url(#clip042)" cx="1691.64" cy="1465.22" r="14.4" fill="#ee6677" fill-rule="evenodd" fill-opacity="1" stroke="#000000" stroke-opacity="1" stroke-width="3.6"/>
<circle clip-path="url(#clip042)" cx="1734.96" cy="1465.22" r="14.4" fill="#ee6677" fill-rule="evenodd" fill-opacity="1" stroke="#000000" stroke-opacity="1" stroke-width="3.6"/>
<circle clip-path="url(#clip042)" cx="1778.28" cy="1465.22" r="14.4" fill="#ee6677" fill-rule="evenodd" fill-opacity="1" stroke="#000000" stroke-opacity="1" stroke-width="3.6"/>
<circle clip-path="url(#clip042)" cx="1821.61" cy="1465.22" r="14.4" fill="#ee6677" fill-rule="evenodd" fill-opacity="1" stroke="#000000" stroke-opacity="1" stroke-width="3.6"/>
<circle clip-path="url(#clip042)" cx="1864.93" cy="1465.22" r="14.4" fill="#ee6677" fill-rule="evenodd" fill-opacity="1" stroke="#000000" stroke-opacity="1" stroke-width="3.6"/>
<circle clip-path="url(#clip042)" cx="1908.25" cy="1465.22" r="14.4" fill="#ee6677" fill-rule="evenodd" fill-opacity="1" stroke="#000000" stroke-opacity="1" stroke-width="3.6"/>
<circle clip-path="url(#clip042)" cx="1951.58" cy="1465.22" r="14.4" fill="#ee6677" fill-rule="evenodd" fill-opacity="1" stroke="#000000" stroke-opacity="1" stroke-width="3.6"/>
<circle clip-path="url(#clip042)" cx="1994.9" cy="1465.22" r="14.4" fill="#ee6677" fill-rule="evenodd" fill-opacity="1" stroke="#000000" stroke-opacity="1" stroke-width="3.6"/>
<circle clip-path="url(#clip042)" cx="2038.23" cy="1465.22" r="14.4" fill="#ee6677" fill-rule="evenodd" fill-opacity="1" stroke="#000000" stroke-opacity="1" stroke-width="3.6"/>
<circle clip-path="url(#clip042)" cx="2081.55" cy="1465.22" r="14.4" fill="#ee6677" fill-rule="evenodd" fill-opacity="1" stroke="#000000" stroke-opacity="1" stroke-width="3.6"/>
<circle clip-path="url(#clip042)" cx="2124.87" cy="1465.22" r="14.4" fill="#ee6677" fill-rule="evenodd" fill-opacity="1" stroke="#000000" stroke-opacity="1" stroke-width="3.6"/>
<circle clip-path="url(#clip042)" cx="2168.2" cy="1465.22" r="14.4" fill="#ee6677" fill-rule="evenodd" fill-opacity="1" stroke="#000000" stroke-opacity="1" stroke-width="3.6"/>
<circle clip-path="url(#clip042)" cx="2211.52" cy="1465.22" r="14.4" fill="#ee6677" fill-rule="evenodd" fill-opacity="1" stroke="#000000" stroke-opacity="1" stroke-width="3.6"/>
<circle clip-path="url(#clip042)" cx="2254.84" cy="1465.22" r="14.4" fill="#ee6677" fill-rule="evenodd" fill-opacity="1" stroke="#000000" stroke-opacity="1" stroke-width="3.6"/>
<circle clip-path="url(#clip042)" cx="2298.17" cy="1465.22" r="14.4" fill="#ee6677" fill-rule="evenodd" fill-opacity="1" stroke="#000000" stroke-opacity="1" stroke-width="3.6"/>
<path clip-path="url(#clip040)" d="M488.276 445.807 L1139.97 445.807 L1139.97 95.8868 L488.276 95.8868  Z" fill="#ffffff" fill-rule="evenodd" fill-opacity="1"/>
<polyline clip-path="url(#clip040)" style="stroke:#000000; stroke-linecap:round; stroke-linejoin:round; stroke-width:4; stroke-opacity:1; fill:none" points="488.276,445.807 1139.97,445.807 1139.97,95.8868 488.276,95.8868 488.276,445.807 "/>
<polyline clip-path="url(#clip040)" style="stroke:#4477aa; stroke-linecap:round; stroke-linejoin:round; stroke-width:18; stroke-opacity:1; fill:none" points="509.707,212.527 638.291,212.527 "/>
<circle clip-path="url(#clip040)" cx="573.999" cy="212.527" r="7.93734" fill="#4477aa" fill-rule="evenodd" fill-opacity="1" stroke="#000000" stroke-opacity="1" stroke-width="7.93734"/>
<path clip-path="url(#clip040)" d="M685.819 242.867 L687.198 251.301 Q683.167 252.149 679.984 252.149 Q674.786 252.149 671.922 250.505 Q669.058 248.861 667.891 246.209 Q666.724 243.503 666.724 234.911 L666.724 202.502 L659.722 202.502 L659.722 195.076 L666.724 195.076 L666.724 181.126 L676.218 175.397 L676.218 195.076 L685.819 195.076 L685.819 202.502 L676.218 202.502 L676.218 235.441 Q676.218 239.525 676.696 240.692 Q677.226 241.859 678.34 242.549 Q679.507 243.238 681.629 243.238 Q683.22 243.238 685.819 242.867 Z" fill="#000000" fill-rule="nonzero" fill-opacity="1" /><path clip-path="url(#clip040)" d="M695.048 251.407 L695.048 195.076 L703.641 195.076 L703.641 203.616 Q706.93 197.622 709.688 195.712 Q712.499 193.803 715.841 193.803 Q720.668 193.803 725.654 196.879 L722.365 205.737 Q718.864 203.669 715.364 203.669 Q712.234 203.669 709.741 205.578 Q707.248 207.435 706.187 210.776 Q704.596 215.868 704.596 221.915 L704.596 251.407 L695.048 251.407 Z" fill="#000000" fill-rule="nonzero" fill-opacity="1" /><path clip-path="url(#clip040)" d="M768.088 244.458 Q762.783 248.967 757.851 250.823 Q752.971 252.68 747.348 252.68 Q738.066 252.68 733.08 248.171 Q728.094 243.61 728.094 236.555 Q728.094 232.418 729.95 229.023 Q731.86 225.575 734.883 223.507 Q737.96 221.438 741.779 220.377 Q744.59 219.634 750.265 218.945 Q761.829 217.566 767.292 215.656 Q767.345 213.694 767.345 213.163 Q767.345 207.329 764.64 204.942 Q760.98 201.706 753.766 201.706 Q747.03 201.706 743.794 204.093 Q740.612 206.427 739.074 212.421 L729.738 211.148 Q731.011 205.154 733.928 201.494 Q736.846 197.781 742.362 195.818 Q747.879 193.803 755.145 193.803 Q762.359 193.803 766.868 195.5 Q771.376 197.198 773.498 199.797 Q775.62 202.343 776.468 206.268 Q776.946 208.708 776.946 215.073 L776.946 227.803 Q776.946 241.117 777.529 244.67 Q778.166 248.171 779.969 251.407 L769.997 251.407 Q768.512 248.436 768.088 244.458 M767.292 223.135 Q762.094 225.257 751.698 226.742 Q745.81 227.591 743.37 228.652 Q740.93 229.712 739.604 231.781 Q738.278 233.797 738.278 236.29 Q738.278 240.109 741.142 242.655 Q744.06 245.201 749.629 245.201 Q755.145 245.201 759.442 242.814 Q763.738 240.374 765.754 236.184 Q767.292 232.948 767.292 226.636 L767.292 223.135 Z" fill="#000000" fill-rule="nonzero" fill-opacity="1" /><path clip-path="url(#clip040)" d="M791.798 184.627 L791.798 173.647 L801.345 173.647 L801.345 184.627 L791.798 184.627 M791.798 251.407 L791.798 195.076 L801.345 195.076 L801.345 251.407 L791.798 251.407 Z" fill="#000000" fill-rule="nonzero" fill-opacity="1" /><path clip-path="url(#clip040)" d="M815.879 251.407 L815.879 195.076 L824.472 195.076 L824.472 203.085 Q830.678 193.803 842.4 193.803 Q847.492 193.803 851.735 195.659 Q856.032 197.463 858.154 200.433 Q860.275 203.403 861.124 207.488 Q861.654 210.14 861.654 216.77 L861.654 251.407 L852.107 251.407 L852.107 217.141 Q852.107 211.307 850.993 208.442 Q849.879 205.525 847.015 203.828 Q844.203 202.077 840.384 202.077 Q834.284 202.077 829.829 205.95 Q825.426 209.822 825.426 220.642 L825.426 251.407 L815.879 251.407 Z" fill="#000000" fill-rule="nonzero" fill-opacity="1" /><path clip-path="url(#clip040)" d="M867.489 272.995 L867.489 266.099 L930.768 266.099 L930.768 272.995 L867.489 272.995 Z" fill="#000000" fill-rule="nonzero" fill-opacity="1" /><path clip-path="url(#clip040)" d="M936.497 251.407 L936.497 173.647 L946.045 173.647 L946.045 251.407 L936.497 251.407 Z" fill="#000000" fill-rule="nonzero" fill-opacity="1" /><path clip-path="url(#clip040)" d="M957.29 223.241 Q957.29 207.594 965.988 200.062 Q973.255 193.803 983.705 193.803 Q995.321 193.803 1002.69 201.441 Q1010.07 209.026 1010.07 222.446 Q1010.07 233.319 1006.78 239.578 Q1003.54 245.784 997.283 249.232 Q991.077 252.68 983.705 252.68 Q971.876 252.68 964.556 245.095 Q957.29 237.51 957.29 223.241 M967.102 223.241 Q967.102 234.062 971.823 239.472 Q976.544 244.83 983.705 244.83 Q990.812 244.83 995.533 239.419 Q1000.25 234.009 1000.25 222.923 Q1000.25 212.474 995.48 207.116 Q990.759 201.706 983.705 201.706 Q976.544 201.706 971.823 207.063 Q967.102 212.421 967.102 223.241 Z" fill="#000000" fill-rule="nonzero" fill-opacity="1" /><path clip-path="url(#clip040)" d="M1017.44 234.592 L1026.88 233.107 Q1027.68 238.783 1031.28 241.806 Q1034.94 244.83 1041.47 244.83 Q1048.04 244.83 1051.23 242.177 Q1054.41 239.472 1054.41 235.865 Q1054.41 232.63 1051.6 230.773 Q1049.64 229.5 1041.84 227.538 Q1031.34 224.886 1027.25 222.976 Q1023.22 221.014 1021.1 217.619 Q1019.03 214.171 1019.03 210.034 Q1019.03 206.268 1020.73 203.085 Q1022.48 199.85 1025.45 197.728 Q1027.68 196.084 1031.5 194.97 Q1035.37 193.803 1039.77 193.803 Q1046.4 193.803 1051.39 195.712 Q1056.43 197.622 1058.81 200.91 Q1061.2 204.146 1062.1 209.609 L1052.77 210.882 Q1052.13 206.533 1049.05 204.093 Q1046.03 201.653 1040.46 201.653 Q1033.88 201.653 1031.07 203.828 Q1028.26 206.003 1028.26 208.92 Q1028.26 210.776 1029.43 212.262 Q1030.59 213.8 1033.09 214.808 Q1034.52 215.338 1041.52 217.248 Q1051.65 219.953 1055.63 221.703 Q1059.66 223.4 1061.94 226.689 Q1064.22 229.978 1064.22 234.858 Q1064.22 239.631 1061.41 243.875 Q1058.65 248.065 1053.4 250.399 Q1048.15 252.68 1041.52 252.68 Q1030.54 252.68 1024.76 248.118 Q1019.03 243.556 1017.44 234.592 Z" fill="#000000" fill-rule="nonzero" fill-opacity="1" /><path clip-path="url(#clip040)" d="M1071.75 234.592 L1081.2 233.107 Q1081.99 238.783 1085.6 241.806 Q1089.26 244.83 1095.78 244.83 Q1102.36 244.83 1105.54 242.177 Q1108.73 239.472 1108.73 235.865 Q1108.73 232.63 1105.91 230.773 Q1103.95 229.5 1096.15 227.538 Q1085.65 224.886 1081.57 222.976 Q1077.54 221.014 1075.41 217.619 Q1073.35 214.171 1073.35 210.034 Q1073.35 206.268 1075.04 203.085 Q1076.79 199.85 1079.76 197.728 Q1081.99 196.084 1085.81 194.97 Q1089.68 193.803 1094.09 193.803 Q1100.72 193.803 1105.7 195.712 Q1110.74 197.622 1113.13 200.91 Q1115.51 204.146 1116.42 209.609 L1107.08 210.882 Q1106.44 206.533 1103.37 204.093 Q1100.34 201.653 1094.78 201.653 Q1088.2 201.653 1085.39 203.828 Q1082.58 206.003 1082.58 208.92 Q1082.58 210.776 1083.74 212.262 Q1084.91 213.8 1087.4 214.808 Q1088.83 215.338 1095.84 217.248 Q1105.97 219.953 1109.95 221.703 Q1113.98 223.4 1116.26 226.689 Q1118.54 229.978 1118.54 234.858 Q1118.54 239.631 1115.73 243.875 Q1112.97 248.065 1107.72 250.399 Q1102.47 252.68 1095.84 252.68 Q1084.86 252.68 1079.07 248.118 Q1073.35 243.556 1071.75 234.592 Z" fill="#000000" fill-rule="nonzero" fill-opacity="1" /><polyline clip-path="url(#clip040)" style="stroke:#ee6677; stroke-linecap:round; stroke-linejoin:round; stroke-width:18; stroke-opacity:1; fill:none" points="509.707,329.167 638.291,329.167 "/>
<circle clip-path="url(#clip040)" cx="573.999" cy="329.167" r="7.93734" fill="#ee6677" fill-rule="evenodd" fill-opacity="1" stroke="#000000" stroke-opacity="1" stroke-width="7.93734"/>
<path clip-path="url(#clip040)" d="M681.151 368.047 L659.722 311.716 L669.8 311.716 L681.894 345.451 Q683.857 350.914 685.501 356.802 Q686.774 352.346 689.055 346.087 L701.573 311.716 L711.385 311.716 L690.062 368.047 L681.151 368.047 Z" fill="#000000" fill-rule="nonzero" fill-opacity="1" /><path clip-path="url(#clip040)" d="M756.578 361.098 Q751.273 365.607 746.34 367.463 Q741.46 369.32 735.838 369.32 Q726.556 369.32 721.57 364.811 Q716.584 360.25 716.584 353.195 Q716.584 349.058 718.44 345.663 Q720.35 342.215 723.373 340.147 Q726.449 338.078 730.269 337.017 Q733.08 336.274 738.755 335.585 Q750.319 334.206 755.782 332.296 Q755.835 330.334 755.835 329.803 Q755.835 323.969 753.13 321.582 Q749.47 318.346 742.256 318.346 Q735.52 318.346 732.284 320.733 Q729.102 323.067 727.563 329.061 L718.228 327.788 Q719.501 321.794 722.418 318.134 Q725.336 314.421 730.852 312.458 Q736.368 310.443 743.635 310.443 Q750.849 310.443 755.358 312.14 Q759.866 313.838 761.988 316.437 Q764.11 318.983 764.958 322.908 Q765.436 325.348 765.436 331.713 L765.436 344.443 Q765.436 357.757 766.019 361.31 Q766.656 364.811 768.459 368.047 L758.487 368.047 Q757.002 365.076 756.578 361.098 M755.782 339.775 Q750.584 341.897 740.187 343.382 Q734.3 344.231 731.86 345.292 Q729.42 346.352 728.094 348.421 Q726.768 350.437 726.768 352.93 Q726.768 356.749 729.632 359.295 Q732.549 361.841 738.119 361.841 Q743.635 361.841 747.932 359.454 Q752.228 357.014 754.244 352.824 Q755.782 349.588 755.782 343.276 L755.782 339.775 Z" fill="#000000" fill-rule="nonzero" fill-opacity="1" /><path clip-path="url(#clip040)" d="M780.022 368.047 L780.022 290.287 L789.57 290.287 L789.57 368.047 L780.022 368.047 Z" fill="#000000" fill-rule="nonzero" fill-opacity="1" /><path clip-path="url(#clip040)" d="M795.564 389.635 L795.564 382.739 L858.843 382.739 L858.843 389.635 L795.564 389.635 Z" fill="#000000" fill-rule="nonzero" fill-opacity="1" /><path clip-path="url(#clip040)" d="M864.572 368.047 L864.572 290.287 L874.119 290.287 L874.119 368.047 L864.572 368.047 Z" fill="#000000" fill-rule="nonzero" fill-opacity="1" /><path clip-path="url(#clip040)" d="M885.364 339.881 Q885.364 324.234 894.063 316.702 Q901.33 310.443 911.779 310.443 Q923.396 310.443 930.768 318.081 Q938.141 325.666 938.141 339.086 Q938.141 349.959 934.853 356.218 Q931.617 362.424 925.358 365.872 Q919.152 369.32 911.779 369.32 Q899.951 369.32 892.631 361.735 Q885.364 354.15 885.364 339.881 M895.177 339.881 Q895.177 350.702 899.898 356.112 Q904.619 361.47 911.779 361.47 Q918.887 361.47 923.608 356.059 Q928.328 350.649 928.328 339.563 Q928.328 329.114 923.555 323.756 Q918.834 318.346 911.779 318.346 Q904.619 318.346 899.898 323.703 Q895.177 329.061 895.177 339.881 Z" fill="#000000" fill-rule="nonzero" fill-opacity="1" /><path clip-path="url(#clip040)" d="M945.514 351.232 L954.956 349.747 Q955.751 355.423 959.358 358.446 Q963.018 361.47 969.542 361.47 Q976.12 361.47 979.302 358.817 Q982.485 356.112 982.485 352.505 Q982.485 349.27 979.673 347.413 Q977.711 346.14 969.914 344.178 Q959.411 341.526 955.327 339.616 Q951.296 337.654 949.174 334.259 Q947.105 330.811 947.105 326.674 Q947.105 322.908 948.803 319.725 Q950.553 316.49 953.524 314.368 Q955.751 312.724 959.57 311.61 Q963.442 310.443 967.845 310.443 Q974.475 310.443 979.461 312.352 Q984.5 314.262 986.887 317.55 Q989.274 320.786 990.176 326.249 L980.84 327.522 Q980.204 323.173 977.127 320.733 Q974.104 318.293 968.535 318.293 Q961.957 318.293 959.146 320.468 Q956.335 322.643 956.335 325.56 Q956.335 327.416 957.502 328.902 Q958.669 330.44 961.162 331.448 Q962.594 331.978 969.595 333.888 Q979.726 336.593 983.705 338.343 Q987.736 340.04 990.017 343.329 Q992.297 346.618 992.297 351.498 Q992.297 356.271 989.486 360.515 Q986.728 364.705 981.477 367.039 Q976.226 369.32 969.595 369.32 Q958.616 369.32 952.834 364.758 Q947.105 360.196 945.514 351.232 Z" fill="#000000" fill-rule="nonzero" fill-opacity="1" /><path clip-path="url(#clip040)" d="M999.829 351.232 L1009.27 349.747 Q1010.07 355.423 1013.67 358.446 Q1017.33 361.47 1023.86 361.47 Q1030.43 361.47 1033.62 358.817 Q1036.8 356.112 1036.8 352.505 Q1036.8 349.27 1033.99 347.413 Q1032.03 346.14 1024.23 344.178 Q1013.73 341.526 1009.64 339.616 Q1005.61 337.654 1003.49 334.259 Q1001.42 330.811 1001.42 326.674 Q1001.42 322.908 1003.12 319.725 Q1004.87 316.49 1007.84 314.368 Q1010.07 312.724 1013.89 311.61 Q1017.76 310.443 1022.16 310.443 Q1028.79 310.443 1033.78 312.352 Q1038.82 314.262 1041.2 317.55 Q1043.59 320.786 1044.49 326.249 L1035.16 327.522 Q1034.52 323.173 1031.44 320.733 Q1028.42 318.293 1022.85 318.293 Q1016.27 318.293 1013.46 320.468 Q1010.65 322.643 1010.65 325.56 Q1010.65 327.416 1011.82 328.902 Q1012.98 330.44 1015.48 331.448 Q1016.91 331.978 1023.91 333.888 Q1034.04 336.593 1038.02 338.343 Q1042.05 340.04 1044.33 343.329 Q1046.61 346.618 1046.61 351.498 Q1046.61 356.271 1043.8 360.515 Q1041.04 364.705 1035.79 367.039 Q1030.54 369.32 1023.91 369.32 Q1012.93 369.32 1007.15 364.758 Q1001.42 360.196 999.829 351.232 Z" fill="#000000" fill-rule="nonzero" fill-opacity="1" /></svg>
