<?xml version="1.0" encoding="utf-8"?>
<svg xmlns="http://www.w3.org/2000/svg" xmlns:xlink="http://www.w3.org/1999/xlink" width="600" height="450" viewBox="0 0 2400 1800">
<defs>
  <clipPath id="clip020">
    <rect x="0" y="0" width="2400" height="1800"/>
  </clipPath>
</defs>
<path clip-path="url(#clip020)" d="M0 1800 L2400 1800 L2400 0 L0 0  Z" fill="#ffffff" fill-rule="evenodd" fill-opacity="1"/>
<defs>
  <clipPath id="clip021">
    <rect x="480" y="0" width="1681" height="1681"/>
  </clipPath>
</defs>
<path clip-path="url(#clip020)" d="M425.304 1506.52 L2352.76 1506.52 L2352.76 47.2441 L425.304 47.2441  Z" fill="#ffffff" fill-rule="evenodd" fill-opacity="1"/>
<defs>
  <clipPath id="clip022">
    <rect x="425" y="47" width="1928" height="1460"/>
  </clipPath>
</defs>
<polyline clip-path="url(#clip022)" style="stroke:#000000; stroke-linecap:round; stroke-linejoin:round; stroke-width:2; stroke-opacity:0.1; fill:none" points="882.873,1506.52 882.873,47.2441 "/>
<polyline clip-path="url(#clip022)" style="stroke:#000000; stroke-linecap:round; stroke-linejoin:round; stroke-width:2; stroke-opacity:0.1; fill:none" points="1371.69,1506.52 1371.69,47.2441 "/>
<polyline clip-path="url(#clip022)" style="stroke:#000000; stroke-linecap:round; stroke-linejoin:round; stroke-width:2; stroke-opacity:0.1; fill:none" points="1860.51,1506.52 1860.51,47.2441 "/>
<polyline clip-path="url(#clip022)" style="stroke:#000000; stroke-linecap:round; stroke-linejoin:round; stroke-width:2; stroke-opacity:0.1; fill:none" points="2349.32,1506.52 2349.32,47.2441 "/>
<polyline clip-path="url(#clip022)" style="stroke:#000000; stroke-linecap:round; stroke-linejoin:round; stroke-width:2; stroke-opacity:0.1; fill:none" points="425.304,1331.83 2352.76,1331.83 "/>
<polyline clip-path="url(#clip022)" style="stroke:#000000; stroke-linecap:round; stroke-linejoin:round; stroke-width:2; stroke-opacity:0.1; fill:none" points="425.304,1147.13 2352.76,1147.13 "/>
<polyline clip-path="url(#clip022)" style="stroke:#000000; stroke-linecap:round; stroke-linejoin:round; stroke-width:2; stroke-opacity:0.1; fill:none" points="425.304,962.432 2352.76,962.432 "/>
<polyline clip-path="url(#clip022)" style="stroke:#000000; stroke-linecap:round; stroke-linejoin:round; stroke-width:2; stroke-opacity:0.1; fill:none" points="425.304,777.733 2352.76,777.733 "/>
<polyline clip-path="url(#clip022)" style="stroke:#000000; stroke-linecap:round; stroke-linejoin:round; stroke-width:2; stroke-opacity:0.1; fill:none" points="425.304,593.033 2352.76,593.033 "/>
<polyline clip-path="url(#clip022)" style="stroke:#000000; stroke-linecap:round; stroke-linejoin:round; stroke-width:2; stroke-opacity:0.1; fill:none" points="425.304,408.334 2352.76,408.334 "/>
<polyline clip-path="url(#clip022)" style="stroke:#000000; stroke-linecap:round; stroke-linejoin:round; stroke-width:2; stroke-opacity:0.1; fill:none" points="425.304,223.634 2352.76,223.634 "/>
<polyline clip-path="url(#clip020)" style="stroke:#000000; stroke-linecap:round; stroke-linejoin:round; stroke-width:4; stroke-opacity:1; fill:none" points="425.304,1506.52 2352.76,1506.52 "/>
<polyline clip-path="url(#clip020)" style="stroke:#000000; stroke-linecap:round; stroke-linejoin:round; stroke-width:2; stroke-opacity:0.5; fill:none" points="425.304,47.2441 2352.76,47.2441 "/>
<polyline clip-path="url(#clip020)" style="stroke:#000000; stroke-linecap:round; stroke-linejoin:round; stroke-width:4; stroke-opacity:1; fill:none" points="882.873,1506.52 882.873,1487.63 "/>
<polyline clip-path="url(#clip020)" style="stroke:#000000; stroke-linecap:round; stroke-linejoin:round; stroke-width:4; stroke-opacity:1; fill:none" points="1371.69,1506.52 1371.69,1487.63 "/>
<polyline clip-path="url(#clip020)" style="stroke:#000000; stroke-linecap:round; stroke-linejoin:round; stroke-width:4; stroke-opacity:1; fill:none" points="1860.51,1506.52 1860.51,1487.63 "/>
<polyline clip-path="url(#clip020)" style="stroke:#000000; stroke-linecap:round; stroke-linejoin:round; stroke-width:4; stroke-opacity:1; fill:none" points="2349.32,1506.52 2349.32,1487.63 "/>
<path clip-path="url(#clip020)" d="M837.822 1582 L792.182 1582 L792.182 1574.07 L837.822 1574.07 L837.822 1582 Z" fill="#000000" fill-rule="nonzero" fill-opacity="1" /><path clip-path="url(#clip020)" d="M847.205 1578.04 Q847.205 1565.78 849.704 1558.33 Q852.25 1550.83 857.2 1546.78 Q862.198 1542.72 869.742 1542.72 Q875.306 1542.72 879.502 1544.98 Q883.698 1547.2 886.433 1551.44 Q889.167 1555.64 890.723 1561.72 Q892.279 1567.76 892.279 1578.04 Q892.279 1590.2 889.78 1597.7 Q887.281 1605.15 882.284 1609.25 Q877.333 1613.3 869.742 1613.3 Q859.747 1613.3 854.042 1606.14 Q847.205 1597.51 847.205 1578.04 M855.927 1578.04 Q855.927 1595.06 859.888 1600.71 Q863.896 1606.32 869.742 1606.32 Q875.588 1606.32 879.549 1600.67 Q883.557 1595.01 883.557 1578.04 Q883.557 1560.97 879.549 1555.36 Q875.588 1549.75 869.648 1549.75 Q863.801 1549.75 860.312 1554.7 Q855.927 1561.01 855.927 1578.04 Z" fill="#000000" fill-rule="nonzero" fill-opacity="1" /><path clip-path="url(#clip020)" d="M905.669 1612.12 L905.669 1602.46 L915.335 1602.46 L915.335 1612.12 L905.669 1612.12 Z" fill="#000000" fill-rule="nonzero" fill-opacity="1" /><path clip-path="url(#clip020)" d="M927.735 1594.02 L936.646 1593.26 Q937.636 1599.77 941.219 1603.07 Q944.85 1606.32 949.942 1606.32 Q956.071 1606.32 960.315 1601.7 Q964.558 1597.08 964.558 1589.45 Q964.558 1582.18 960.456 1577.99 Q956.401 1573.79 949.801 1573.79 Q945.699 1573.79 942.398 1575.68 Q939.098 1577.52 937.212 1580.49 L929.244 1579.45 L935.939 1543.95 L970.31 1543.95 L970.31 1552.06 L942.728 1552.06 L939.003 1570.63 Q945.227 1566.3 952.064 1566.3 Q961.116 1566.3 967.34 1572.57 Q973.563 1578.84 973.563 1588.69 Q973.563 1598.07 968.094 1604.91 Q961.446 1613.3 949.942 1613.3 Q940.512 1613.3 934.524 1608.02 Q928.584 1602.74 927.735 1594.02 Z" fill="#000000" fill-rule="nonzero" fill-opacity="1" /><path clip-path="url(#clip020)" d="M1308.89 1578.04 Q1308.89 1565.78 1311.39 1558.33 Q1313.93 1550.83 1318.88 1546.78 Q1323.88 1542.72 1331.42 1542.72 Q1336.99 1542.72 1341.18 1544.98 Q1345.38 1547.2 1348.12 1551.44 Q1350.85 1555.64 1352.41 1561.72 Q1353.96 1567.76 1353.96 1578.04 Q1353.96 1590.2 1351.46 1597.7 Q1348.96 1605.15 1343.97 1609.25 Q1339.02 1613.3 1331.42 1613.3 Q1321.43 1613.3 1315.72 1606.14 Q1308.89 1597.51 1308.89 1578.04 M1317.61 1578.04 Q1317.61 1595.06 1321.57 1600.71 Q1325.58 1606.32 1331.42 1606.32 Q1337.27 1606.32 1341.23 1600.67 Q1345.24 1595.01 1345.24 1578.04 Q1345.24 1560.97 1341.23 1555.36 Q1337.27 1549.75 1331.33 1549.75 Q1325.48 1549.75 1321.99 1554.7 Q1317.61 1561.01 1317.61 1578.04 Z" fill="#000000" fill-rule="nonzero" fill-opacity="1" /><path clip-path="url(#clip020)" d="M1367.35 1612.12 L1367.35 1602.46 L1377.02 1602.46 L1377.02 1612.12 L1367.35 1612.12 Z" fill="#000000" fill-rule="nonzero" fill-opacity="1" /><path clip-path="url(#clip020)" d="M1389.42 1578.04 Q1389.42 1565.78 1391.92 1558.33 Q1394.46 1550.83 1399.41 1546.78 Q1404.41 1542.72 1411.95 1542.72 Q1417.52 1542.72 1421.71 1544.98 Q1425.91 1547.2 1428.65 1551.44 Q1431.38 1555.64 1432.94 1561.72 Q1434.49 1567.76 1434.49 1578.04 Q1434.49 1590.2 1431.99 1597.7 Q1429.49 1605.15 1424.5 1609.25 Q1419.55 1613.3 1411.95 1613.3 Q1401.96 1613.3 1396.25 1606.14 Q1389.42 1597.51 1389.42 1578.04 M1398.14 1578.04 Q1398.14 1595.06 1402.1 1600.71 Q1406.11 1606.32 1411.95 1606.32 Q1417.8 1606.32 1421.76 1600.67 Q1425.77 1595.01 1425.77 1578.04 Q1425.77 1560.97 1421.76 1555.36 Q1417.8 1549.75 1411.86 1549.75 Q1406.01 1549.75 1402.52 1554.7 Q1398.14 1561.01 1398.14 1578.04 Z" fill="#000000" fill-rule="nonzero" fill-opacity="1" /><path clip-path="url(#clip020)" d="M1797.33 1578.04 Q1797.33 1565.78 1799.83 1558.33 Q1802.37 1550.83 1807.32 1546.78 Q1812.32 1542.72 1819.86 1542.72 Q1825.43 1542.72 1829.62 1544.98 Q1833.82 1547.2 1836.55 1551.44 Q1839.29 1555.64 1840.84 1561.72 Q1842.4 1567.76 1842.4 1578.04 Q1842.4 1590.2 1839.9 1597.7 Q1837.4 1605.15 1832.41 1609.25 Q1827.45 1613.3 1819.86 1613.3 Q1809.87 1613.3 1804.16 1606.14 Q1797.33 1597.51 1797.33 1578.04 M1806.05 1578.04 Q1806.05 1595.06 1810.01 1600.71 Q1814.02 1606.32 1819.86 1606.32 Q1825.71 1606.32 1829.67 1600.67 Q1833.68 1595.01 1833.68 1578.04 Q1833.68 1560.97 1829.67 1555.36 Q1825.71 1549.75 1819.77 1549.75 Q1813.92 1549.75 1810.43 1554.7 Q1806.05 1561.01 1806.05 1578.04 Z" fill="#000000" fill-rule="nonzero" fill-opacity="1" /><path clip-path="url(#clip020)" d="M1855.79 1612.12 L1855.79 1602.46 L1865.46 1602.46 L1865.46 1612.12 L1855.79 1612.12 Z" fill="#000000" fill-rule="nonzero" fill-opacity="1" /><path clip-path="url(#clip020)" d="M1877.86 1594.02 L1886.77 1593.26 Q1887.76 1599.77 1891.34 1603.07 Q1894.97 1606.32 1900.06 1606.32 Q1906.19 1606.32 1910.44 1601.7 Q1914.68 1597.08 1914.68 1589.45 Q1914.68 1582.18 1910.58 1577.99 Q1906.52 1573.79 1899.92 1573.79 Q1895.82 1573.79 1892.52 1575.68 Q1889.22 1577.52 1887.33 1580.49 L1879.37 1579.45 L1886.06 1543.95 L1920.43 1543.95 L1920.43 1552.06 L1892.85 1552.06 L1889.13 1570.63 Q1895.35 1566.3 1902.19 1566.3 Q1911.24 1566.3 1917.46 1572.57 Q1923.69 1578.84 1923.69 1588.69 Q1923.69 1598.07 1918.22 1604.91 Q1911.57 1613.3 1900.06 1613.3 Q1890.63 1613.3 1884.65 1608.02 Q1878.71 1602.74 1877.86 1594.02 Z" fill="#000000" fill-rule="nonzero" fill-opacity="1" /><path clip-path="url(#clip020)" d="M2315.23 1612.12 L2306.75 1612.12 L2306.75 1558.04 Q2303.68 1560.97 2298.68 1563.89 Q2293.73 1566.81 2289.77 1568.28 L2289.77 1560.07 Q2296.89 1556.72 2302.22 1551.96 Q2307.55 1547.2 2309.76 1542.72 L2315.23 1542.72 L2315.23 1612.12 Z" fill="#000000" fill-rule="nonzero" fill-opacity="1" /><path clip-path="url(#clip020)" d="M2341.73 1612.12 L2341.73 1602.46 L2351.4 1602.46 L2351.4 1612.12 L2341.73 1612.12 Z" fill="#000000" fill-rule="nonzero" fill-opacity="1" /><path clip-path="url(#clip020)" d="M2363.8 1578.04 Q2363.8 1565.78 2366.3 1558.33 Q2368.84 1550.83 2373.79 1546.78 Q2378.79 1542.72 2386.33 1542.72 Q2391.9 1542.72 2396.09 1544.98 Q2400.29 1547.2 2403.02 1551.44 Q2405.76 1555.64 2407.32 1561.72 Q2408.87 1567.76 2408.87 1578.04 Q2408.87 1590.2 2406.37 1597.7 Q2403.87 1605.15 2398.88 1609.25 Q2393.93 1613.3 2386.33 1613.3 Q2376.34 1613.3 2370.63 1606.14 Q2363.8 1597.51 2363.8 1578.04 M2372.52 1578.04 Q2372.52 1595.06 2376.48 1600.71 Q2380.49 1606.32 2386.33 1606.32 Q2392.18 1606.32 2396.14 1600.67 Q2400.15 1595.01 2400.15 1578.04 Q2400.15 1560.97 2396.14 1555.36 Q2392.18 1549.75 2386.24 1549.75 Q2380.39 1549.75 2376.9 1554.7 Q2372.52 1561.01 2372.52 1578.04 Z" fill="#000000" fill-rule="nonzero" fill-opacity="1" /><path clip-path="url(#clip020)" d="M1338.23 1700.96 L1338.23 1697.64 Q1346.66 1697.64 1352.04 1691.15 Q1352.04 1691.15 1362.16 1678.3 L1351.46 1664.38 Q1347.67 1659.53 1345.98 1658.69 Q1344.34 1657.8 1338.76 1657.8 L1338.76 1654.42 Q1343.19 1654.74 1348.98 1654.74 Q1352.2 1654.74 1360.68 1654.42 L1360.68 1657.8 Q1356.89 1658.01 1356.89 1660.48 Q1356.89 1661.33 1357.84 1662.43 L1366.27 1673.34 L1372.96 1664.91 Q1374.59 1662.96 1374.59 1661.12 Q1374.59 1658.11 1371.43 1657.8 L1371.43 1654.42 Q1375.65 1654.74 1381.81 1654.74 Q1386.45 1654.74 1390.67 1654.42 L1390.67 1657.8 Q1382.45 1658.01 1377.81 1663.38 Q1375.75 1665.65 1367.9 1675.61 L1382.34 1694.26 Q1384.08 1696.53 1386.03 1697.11 Q1387.98 1697.64 1392.62 1697.64 L1392.62 1700.96 Q1387.77 1700.64 1382.24 1700.64 Q1380.29 1700.64 1370.59 1700.96 L1370.59 1697.64 Q1372.54 1697.53 1373.49 1696.69 Q1374.49 1695.79 1374.49 1694.9 Q1374.49 1694.48 1372.22 1691.37 L1364 1680.56 Q1355.78 1690.26 1354.73 1692.53 Q1354.31 1693.47 1354.31 1694.26 Q1354.31 1697.16 1357.41 1697.64 L1357.41 1700.96 Q1349.67 1700.64 1347.19 1700.64 Q1342.45 1700.64 1338.23 1700.96 Z" fill="#000000" fill-rule="nonzero" fill-opacity="1" /><path clip-path="url(#clip020)" d="M1403.61 1687.73 L1403.61 1685.37 Q1412.69 1685.37 1417.37 1680.54 Q1418.66 1680.54 1418.88 1680.83 Q1419.1 1681.13 1419.1 1682.49 L1419.1 1724.88 Q1419.1 1727.13 1420.21 1727.83 Q1421.32 1728.53 1426.15 1728.53 L1428.55 1728.53 L1428.55 1730.86 Q1425.89 1730.63 1416.3 1730.63 Q1406.71 1730.63 1404.09 1730.86 L1404.09 1728.53 L1406.49 1728.53 Q1411.25 1728.53 1412.39 1727.87 Q1413.53 1727.17 1413.53 1724.88 L1413.53 1685.74 Q1409.59 1687.73 1403.61 1687.73 Z" fill="#000000" fill-rule="nonzero" fill-opacity="1" /><polyline clip-path="url(#clip020)" style="stroke:#000000; stroke-linecap:round; stroke-linejoin:round; stroke-width:4; stroke-opacity:1; fill:none" points="425.304,1506.52 425.304,47.2441 "/>
<polyline clip-path="url(#clip020)" style="stroke:#000000; stroke-linecap:round; stroke-linejoin:round; stroke-width:2; stroke-opacity:0.5; fill:none" points="2352.76,1506.52 2352.76,47.2441 "/>
<polyline clip-path="url(#clip020)" style="stroke:#000000; stroke-linecap:round; stroke-linejoin:round; stroke-width:4; stroke-opacity:1; fill:none" points="425.304,1331.83 444.201,1331.83 "/>
<polyline clip-path="url(#clip020)" style="stroke:#000000; stroke-linecap:round; stroke-linejoin:round; stroke-width:4; stroke-opacity:1; fill:none" points="425.304,1147.13 444.201,1147.13 "/>
<polyline clip-path="url(#clip020)" style="stroke:#000000; stroke-linecap:round; stroke-linejoin:round; stroke-width:4; stroke-opacity:1; fill:none" points="425.304,962.432 444.201,962.432 "/>
<polyline clip-path="url(#clip020)" style="stroke:#000000; stroke-linecap:round; stroke-linejoin:round; stroke-width:4; stroke-opacity:1; fill:none" points="425.304,777.733 444.201,777.733 "/>
<polyline clip-path="url(#clip020)" style="stroke:#000000; stroke-linecap:round; stroke-linejoin:round; stroke-width:4; stroke-opacity:1; fill:none" points="425.304,593.033 444.201,593.033 "/>
<polyline clip-path="url(#clip020)" style="stroke:#000000; stroke-linecap:round; stroke-linejoin:round; stroke-width:4; stroke-opacity:1; fill:none" points="425.304,408.334 444.201,408.334 "/>
<polyline clip-path="url(#clip020)" style="stroke:#000000; stroke-linecap:round; stroke-linejoin:round; stroke-width:4; stroke-opacity:1; fill:none" points="425.304,223.634 444.201,223.634 "/>
<path clip-path="url(#clip020)" d="M199.86 1336.26 L154.22 1336.26 L154.22 1328.34 L199.86 1328.34 L199.86 1336.26 Z" fill="#000000" fill-rule="nonzero" fill-opacity="1" /><path clip-path="url(#clip020)" d="M209.243 1332.3 Q209.243 1320.04 211.742 1312.59 Q214.288 1305.1 219.238 1301.04 Q224.236 1296.99 231.78 1296.99 Q237.343 1296.99 241.54 1299.25 Q245.736 1301.47 248.47 1305.71 Q251.205 1309.91 252.761 1315.99 Q254.317 1322.02 254.317 1332.3 Q254.317 1344.47 251.818 1351.96 Q249.319 1359.41 244.321 1363.52 Q239.371 1367.57 231.78 1367.57 Q221.784 1367.57 216.079 1360.4 Q209.243 1351.78 209.243 1332.3 M217.965 1332.3 Q217.965 1349.32 221.926 1354.98 Q225.933 1360.59 231.78 1360.59 Q237.626 1360.59 241.587 1354.93 Q245.594 1349.28 245.594 1332.3 Q245.594 1315.24 241.587 1309.62 Q237.626 1304.01 231.685 1304.01 Q225.839 1304.01 222.35 1308.96 Q217.965 1315.28 217.965 1332.3 Z" fill="#000000" fill-rule="nonzero" fill-opacity="1" /><path clip-path="url(#clip020)" d="M267.707 1366.39 L267.707 1356.73 L277.373 1356.73 L277.373 1366.39 L267.707 1366.39 Z" fill="#000000" fill-rule="nonzero" fill-opacity="1" /><path clip-path="url(#clip020)" d="M290.338 1306.32 L290.338 1298.17 L335.083 1298.17 L335.083 1304.77 Q328.482 1311.79 321.975 1323.44 Q315.516 1335.08 311.98 1347.39 Q309.434 1356.07 308.726 1366.39 L300.004 1366.39 Q300.145 1358.23 303.21 1346.68 Q306.275 1335.13 311.98 1324.43 Q317.732 1313.68 324.191 1306.32 L290.338 1306.32 Z" fill="#000000" fill-rule="nonzero" fill-opacity="1" /><path clip-path="url(#clip020)" d="M343.475 1348.29 L352.386 1347.53 Q353.376 1354.04 356.96 1357.34 Q360.59 1360.59 365.682 1360.59 Q371.811 1360.59 376.055 1355.97 Q380.298 1351.35 380.298 1343.71 Q380.298 1336.45 376.196 1332.26 Q372.141 1328.06 365.541 1328.06 Q361.439 1328.06 358.138 1329.95 Q354.838 1331.78 352.952 1334.75 L344.984 1333.72 L351.679 1298.21 L386.05 1298.21 L386.05 1306.32 L358.468 1306.32 L354.744 1324.9 Q360.967 1320.56 367.804 1320.56 Q376.856 1320.56 383.08 1326.83 Q389.304 1333.1 389.304 1342.96 Q389.304 1352.34 383.834 1359.18 Q377.186 1367.57 365.682 1367.57 Q356.252 1367.57 350.264 1362.29 Q344.324 1357.01 343.475 1348.29 Z" fill="#000000" fill-rule="nonzero" fill-opacity="1" /><path clip-path="url(#clip020)" d="M200.614 1151.56 L154.975 1151.56 L154.975 1143.64 L200.614 1143.64 L200.614 1151.56 Z" fill="#000000" fill-rule="nonzero" fill-opacity="1" /><path clip-path="url(#clip020)" d="M209.997 1147.6 Q209.997 1135.34 212.496 1127.9 Q215.042 1120.4 219.993 1116.34 Q224.99 1112.29 232.534 1112.29 Q238.098 1112.29 242.294 1114.55 Q246.49 1116.77 249.225 1121.01 Q251.959 1125.21 253.515 1131.29 Q255.071 1137.32 255.071 1147.6 Q255.071 1159.77 252.572 1167.26 Q250.073 1174.71 245.076 1178.82 Q240.125 1182.87 232.534 1182.87 Q222.539 1182.87 216.834 1175.7 Q209.997 1167.08 209.997 1147.6 M218.72 1147.6 Q218.72 1164.62 222.68 1170.28 Q226.688 1175.89 232.534 1175.89 Q238.381 1175.89 242.341 1170.23 Q246.349 1164.58 246.349 1147.6 Q246.349 1130.54 242.341 1124.92 Q238.381 1119.31 232.44 1119.31 Q226.593 1119.31 223.104 1124.26 Q218.72 1130.58 218.72 1147.6 Z" fill="#000000" fill-rule="nonzero" fill-opacity="1" /><path clip-path="url(#clip020)" d="M268.461 1181.69 L268.461 1172.03 L278.127 1172.03 L278.127 1181.69 L268.461 1181.69 Z" fill="#000000" fill-rule="nonzero" fill-opacity="1" /><path clip-path="url(#clip020)" d="M290.527 1163.59 L299.438 1162.83 Q300.428 1169.34 304.012 1172.64 Q307.642 1175.89 312.734 1175.89 Q318.863 1175.89 323.107 1171.27 Q327.35 1166.65 327.35 1159.01 Q327.35 1151.75 323.248 1147.56 Q319.193 1143.36 312.593 1143.36 Q308.491 1143.36 305.19 1145.25 Q301.89 1147.08 300.004 1150.06 L292.036 1149.02 L298.731 1113.51 L333.102 1113.51 L333.102 1121.62 L305.52 1121.62 L301.796 1140.2 Q308.019 1135.86 314.856 1135.86 Q323.908 1135.86 330.132 1142.13 Q336.356 1148.4 336.356 1158.26 Q336.356 1167.64 330.886 1174.48 Q324.238 1182.87 312.734 1182.87 Q303.304 1182.87 297.316 1177.59 Q291.376 1172.31 290.527 1163.59 Z" fill="#000000" fill-rule="nonzero" fill-opacity="1" /><path clip-path="url(#clip020)" d="M344.229 1147.6 Q344.229 1135.34 346.728 1127.9 Q349.274 1120.4 354.225 1116.34 Q359.223 1112.29 366.767 1112.29 Q372.33 1112.29 376.526 1114.55 Q380.723 1116.77 383.457 1121.01 Q386.192 1125.21 387.748 1131.29 Q389.304 1137.32 389.304 1147.6 Q389.304 1159.77 386.805 1167.26 Q384.306 1174.71 379.308 1178.82 Q374.357 1182.87 366.767 1182.87 Q356.771 1182.87 351.066 1175.7 Q344.229 1167.08 344.229 1147.6 M352.952 1147.6 Q352.952 1164.62 356.912 1170.28 Q360.92 1175.89 366.767 1175.89 Q372.613 1175.89 376.573 1170.23 Q380.581 1164.58 380.581 1147.6 Q380.581 1130.54 376.573 1124.92 Q372.613 1119.31 366.672 1119.31 Q360.826 1119.31 357.337 1124.26 Q352.952 1130.58 352.952 1147.6 Z" fill="#000000" fill-rule="nonzero" fill-opacity="1" /><path clip-path="url(#clip020)" d="M199.86 966.864 L154.22 966.864 L154.22 958.943 L199.86 958.943 L199.86 966.864 Z" fill="#000000" fill-rule="nonzero" fill-opacity="1" /><path clip-path="url(#clip020)" d="M209.243 962.904 Q209.243 950.645 211.742 943.196 Q214.288 935.699 219.238 931.644 Q224.236 927.589 231.78 927.589 Q237.343 927.589 241.54 929.853 Q245.736 932.069 248.47 936.312 Q251.205 940.508 252.761 946.59 Q254.317 952.625 254.317 962.904 Q254.317 975.068 251.818 982.565 Q249.319 990.014 244.321 994.116 Q239.371 998.171 231.78 998.171 Q221.784 998.171 216.079 991.004 Q209.243 982.376 209.243 962.904 M217.965 962.904 Q217.965 979.924 221.926 985.582 Q225.933 991.193 231.78 991.193 Q237.626 991.193 241.587 985.535 Q245.594 979.877 245.594 962.904 Q245.594 945.836 241.587 940.225 Q237.626 934.615 231.685 934.615 Q225.839 934.615 222.35 939.565 Q217.965 945.883 217.965 962.904 Z" fill="#000000" fill-rule="nonzero" fill-opacity="1" /><path clip-path="url(#clip020)" d="M267.707 996.992 L267.707 987.327 L277.373 987.327 L277.373 996.992 L267.707 996.992 Z" fill="#000000" fill-rule="nonzero" fill-opacity="1" /><path clip-path="url(#clip020)" d="M334.375 988.836 L334.375 996.992 L288.688 996.992 Q288.594 993.928 289.678 991.099 Q291.423 986.431 295.242 981.905 Q299.108 977.378 306.369 971.438 Q317.638 962.197 321.598 956.822 Q325.559 951.4 325.559 946.59 Q325.559 941.545 321.928 938.104 Q318.345 934.615 312.546 934.615 Q306.416 934.615 302.739 938.292 Q299.061 941.97 299.014 948.476 L290.291 947.58 Q291.187 937.821 297.034 932.729 Q302.88 927.589 312.734 927.589 Q322.682 927.589 328.482 933.106 Q334.281 938.622 334.281 946.779 Q334.281 950.928 332.584 954.936 Q330.886 958.943 326.926 963.375 Q323.013 967.807 313.866 975.54 Q306.228 981.952 304.059 984.262 Q301.89 986.525 300.475 988.836 L334.375 988.836 Z" fill="#000000" fill-rule="nonzero" fill-opacity="1" /><path clip-path="url(#clip020)" d="M343.475 978.887 L352.386 978.133 Q353.376 984.639 356.96 987.94 Q360.59 991.193 365.682 991.193 Q371.811 991.193 376.055 986.572 Q380.298 981.952 380.298 974.314 Q380.298 967.053 376.196 962.857 Q372.141 958.66 365.541 958.66 Q361.439 958.66 358.138 960.546 Q354.838 962.385 352.952 965.356 L344.984 964.318 L351.679 928.815 L386.05 928.815 L386.05 936.925 L358.468 936.925 L354.744 955.501 Q360.967 951.164 367.804 951.164 Q376.856 951.164 383.08 957.435 Q389.304 963.705 389.304 973.559 Q389.304 982.942 383.834 989.779 Q377.186 998.171 365.682 998.171 Q356.252 998.171 350.264 992.89 Q344.324 987.61 343.475 978.887 Z" fill="#000000" fill-rule="nonzero" fill-opacity="1" /><path clip-path="url(#clip020)" d="M209.997 778.204 Q209.997 765.946 212.496 758.496 Q215.042 750.999 219.993 746.945 Q224.99 742.89 232.534 742.89 Q238.098 742.89 242.294 745.153 Q246.49 747.369 249.225 751.612 Q251.959 755.809 253.515 761.891 Q255.071 767.926 255.071 778.204 Q255.071 790.369 252.572 797.865 Q250.073 805.315 245.076 809.417 Q240.125 813.472 232.534 813.472 Q222.539 813.472 216.834 806.305 Q209.997 797.677 209.997 778.204 M218.72 778.204 Q218.72 795.225 222.68 800.883 Q226.688 806.494 232.534 806.494 Q238.381 806.494 242.341 800.836 Q246.349 795.178 246.349 778.204 Q246.349 761.136 242.341 755.526 Q238.381 749.915 232.44 749.915 Q226.593 749.915 223.104 754.866 Q218.72 761.184 218.72 778.204 Z" fill="#000000" fill-rule="nonzero" fill-opacity="1" /><path clip-path="url(#clip020)" d="M268.461 812.293 L268.461 802.627 L278.127 802.627 L278.127 812.293 L268.461 812.293 Z" fill="#000000" fill-rule="nonzero" fill-opacity="1" /><path clip-path="url(#clip020)" d="M290.527 778.204 Q290.527 765.946 293.026 758.496 Q295.572 750.999 300.523 746.945 Q305.52 742.89 313.064 742.89 Q318.628 742.89 322.824 745.153 Q327.02 747.369 329.755 751.612 Q332.489 755.809 334.045 761.891 Q335.601 767.926 335.601 778.204 Q335.601 790.369 333.102 797.865 Q330.603 805.315 325.606 809.417 Q320.655 813.472 313.064 813.472 Q303.069 813.472 297.364 806.305 Q290.527 797.677 290.527 778.204 M299.25 778.204 Q299.25 795.225 303.21 800.883 Q307.218 806.494 313.064 806.494 Q318.911 806.494 322.871 800.836 Q326.879 795.178 326.879 778.204 Q326.879 761.136 322.871 755.526 Q318.911 749.915 312.97 749.915 Q307.123 749.915 303.634 754.866 Q299.25 761.184 299.25 778.204 Z" fill="#000000" fill-rule="nonzero" fill-opacity="1" /><path clip-path="url(#clip020)" d="M344.229 778.204 Q344.229 765.946 346.728 758.496 Q349.274 750.999 354.225 746.945 Q359.223 742.89 366.767 742.89 Q372.33 742.89 376.526 745.153 Q380.723 747.369 383.457 751.612 Q386.192 755.809 387.748 761.891 Q389.304 767.926 389.304 778.204 Q389.304 790.369 386.805 797.865 Q384.306 805.315 379.308 809.417 Q374.357 813.472 366.767 813.472 Q356.771 813.472 351.066 806.305 Q344.229 797.677 344.229 778.204 M352.952 778.204 Q352.952 795.225 356.912 800.883 Q360.92 806.494 366.767 806.494 Q372.613 806.494 376.573 800.836 Q380.581 795.178 380.581 778.204 Q380.581 761.136 376.573 755.526 Q372.613 749.915 366.672 749.915 Q360.826 749.915 357.337 754.866 Q352.952 761.184 352.952 778.204 Z" fill="#000000" fill-rule="nonzero" fill-opacity="1" /><path clip-path="url(#clip020)" d="M209.243 593.505 Q209.243 581.246 211.742 573.797 Q214.288 566.3 219.238 562.245 Q224.236 558.19 231.78 558.19 Q237.343 558.19 241.54 560.454 Q245.736 562.67 248.47 566.913 Q251.205 571.109 252.761 577.191 Q254.317 583.226 254.317 593.505 Q254.317 605.669 251.818 613.166 Q249.319 620.615 244.321 624.717 Q239.371 628.772 231.78 628.772 Q221.784 628.772 216.079 621.605 Q209.243 612.977 209.243 593.505 M217.965 593.505 Q217.965 610.525 221.926 616.183 Q225.933 621.794 231.78 621.794 Q237.626 621.794 241.587 616.136 Q245.594 610.478 245.594 593.505 Q245.594 576.437 241.587 570.826 Q237.626 565.216 231.685 565.216 Q225.839 565.216 222.35 570.166 Q217.965 576.484 217.965 593.505 Z" fill="#000000" fill-rule="nonzero" fill-opacity="1" /><path clip-path="url(#clip020)" d="M267.707 627.593 L267.707 617.928 L277.373 617.928 L277.373 627.593 L267.707 627.593 Z" fill="#000000" fill-rule="nonzero" fill-opacity="1" /><path clip-path="url(#clip020)" d="M334.375 619.437 L334.375 627.593 L288.688 627.593 Q288.594 624.529 289.678 621.7 Q291.423 617.032 295.242 612.506 Q299.108 607.979 306.369 602.039 Q317.638 592.798 321.598 587.423 Q325.559 582 325.559 577.191 Q325.559 572.146 321.928 568.705 Q318.345 565.216 312.546 565.216 Q306.416 565.216 302.739 568.893 Q299.061 572.571 299.014 579.077 L290.291 578.181 Q291.187 568.422 297.034 563.33 Q302.88 558.19 312.734 558.19 Q322.682 558.19 328.482 563.707 Q334.281 569.223 334.281 577.38 Q334.281 581.529 332.584 585.537 Q330.886 589.544 326.926 593.976 Q323.013 598.408 313.866 606.141 Q306.228 612.553 304.059 614.863 Q301.89 617.126 300.475 619.437 L334.375 619.437 Z" fill="#000000" fill-rule="nonzero" fill-opacity="1" /><path clip-path="url(#clip020)" d="M343.475 609.488 L352.386 608.734 Q353.376 615.24 356.96 618.541 Q360.59 621.794 365.682 621.794 Q371.811 621.794 376.055 617.173 Q380.298 612.553 380.298 604.915 Q380.298 597.654 376.196 593.458 Q372.141 589.261 365.541 589.261 Q361.439 589.261 358.138 591.147 Q354.838 592.986 352.952 595.956 L344.984 594.919 L351.679 559.416 L386.05 559.416 L386.05 567.526 L358.468 567.526 L354.744 586.102 Q360.967 581.765 367.804 581.765 Q376.856 581.765 383.08 588.036 Q389.304 594.306 389.304 604.16 Q389.304 613.543 383.834 620.38 Q377.186 628.772 365.682 628.772 Q356.252 628.772 350.264 623.491 Q344.324 618.211 343.475 609.488 Z" fill="#000000" fill-rule="nonzero" fill-opacity="1" /><path clip-path="url(#clip020)" d="M209.997 408.805 Q209.997 396.547 212.496 389.097 Q215.042 381.6 219.993 377.546 Q224.99 373.491 232.534 373.491 Q238.098 373.491 242.294 375.754 Q246.49 377.97 249.225 382.213 Q251.959 386.41 253.515 392.492 Q255.071 398.527 255.071 408.805 Q255.071 420.97 252.572 428.466 Q250.073 435.916 245.076 440.018 Q240.125 444.072 232.534 444.072 Q222.539 444.072 216.834 436.906 Q209.997 428.278 209.997 408.805 M218.72 408.805 Q218.72 425.826 222.68 431.484 Q226.688 437.094 232.534 437.094 Q238.381 437.094 242.341 431.437 Q246.349 425.779 246.349 408.805 Q246.349 391.737 242.341 386.127 Q238.381 380.516 232.44 380.516 Q226.593 380.516 223.104 385.467 Q218.72 391.785 218.72 408.805 Z" fill="#000000" fill-rule="nonzero" fill-opacity="1" /><path clip-path="url(#clip020)" d="M268.461 442.894 L268.461 433.228 L278.127 433.228 L278.127 442.894 L268.461 442.894 Z" fill="#000000" fill-rule="nonzero" fill-opacity="1" /><path clip-path="url(#clip020)" d="M290.527 424.789 L299.438 424.034 Q300.428 430.541 304.012 433.841 Q307.642 437.094 312.734 437.094 Q318.863 437.094 323.107 432.474 Q327.35 427.853 327.35 420.215 Q327.35 412.954 323.248 408.758 Q319.193 404.562 312.593 404.562 Q308.491 404.562 305.19 406.448 Q301.89 408.287 300.004 411.257 L292.036 410.22 L298.731 374.717 L333.102 374.717 L333.102 382.826 L305.52 382.826 L301.796 401.403 Q308.019 397.065 314.856 397.065 Q323.908 397.065 330.132 403.336 Q336.356 409.607 336.356 419.461 Q336.356 428.843 330.886 435.68 Q324.238 444.072 312.734 444.072 Q303.304 444.072 297.316 438.792 Q291.376 433.511 290.527 424.789 Z" fill="#000000" fill-rule="nonzero" fill-opacity="1" /><path clip-path="url(#clip020)" d="M344.229 408.805 Q344.229 396.547 346.728 389.097 Q349.274 381.6 354.225 377.546 Q359.223 373.491 366.767 373.491 Q372.33 373.491 376.526 375.754 Q380.723 377.97 383.457 382.213 Q386.192 386.41 387.748 392.492 Q389.304 398.527 389.304 408.805 Q389.304 420.97 386.805 428.466 Q384.306 435.916 379.308 440.018 Q374.357 444.072 366.767 444.072 Q356.771 444.072 351.066 436.906 Q344.229 428.278 344.229 408.805 M352.952 408.805 Q352.952 425.826 356.912 431.484 Q360.92 437.094 366.767 437.094 Q372.613 437.094 376.573 431.437 Q380.581 425.779 380.581 408.805 Q380.581 391.737 376.573 386.127 Q372.613 380.516 366.672 380.516 Q360.826 380.516 357.337 385.467 Q352.952 391.785 352.952 408.805 Z" fill="#000000" fill-rule="nonzero" fill-opacity="1" /><path clip-path="url(#clip020)" d="M209.243 224.106 Q209.243 211.847 211.742 204.398 Q214.288 196.901 219.238 192.846 Q224.236 188.791 231.78 188.791 Q237.343 188.791 241.54 191.054 Q245.736 193.27 248.47 197.514 Q251.205 201.71 252.761 207.792 Q254.317 213.827 254.317 224.106 Q254.317 236.27 251.818 243.767 Q249.319 251.216 244.321 255.318 Q239.371 259.373 231.78 259.373 Q221.784 259.373 216.079 252.206 Q209.243 243.578 209.243 224.106 M217.965 224.106 Q217.965 241.126 221.926 246.784 Q225.933 252.395 231.78 252.395 Q237.626 252.395 241.587 246.737 Q245.594 241.079 245.594 224.106 Q245.594 207.038 241.587 201.427 Q237.626 195.816 231.685 195.816 Q225.839 195.816 222.35 200.767 Q217.965 207.085 217.965 224.106 Z" fill="#000000" fill-rule="nonzero" fill-opacity="1" /><path clip-path="url(#clip020)" d="M267.707 258.194 L267.707 248.529 L277.373 248.529 L277.373 258.194 L267.707 258.194 Z" fill="#000000" fill-rule="nonzero" fill-opacity="1" /><path clip-path="url(#clip020)" d="M290.338 198.127 L290.338 189.97 L335.083 189.97 L335.083 196.571 Q328.482 203.596 321.975 215.242 Q315.516 226.887 311.98 239.193 Q309.434 247.869 308.726 258.194 L300.004 258.194 Q300.145 250.037 303.21 238.486 Q306.275 226.935 311.98 216.232 Q317.732 205.482 324.191 198.127 L290.338 198.127 Z" fill="#000000" fill-rule="nonzero" fill-opacity="1" /><path clip-path="url(#clip020)" d="M343.475 240.089 L352.386 239.335 Q353.376 245.841 356.96 249.142 Q360.59 252.395 365.682 252.395 Q371.811 252.395 376.055 247.774 Q380.298 243.154 380.298 235.516 Q380.298 228.255 376.196 224.059 Q372.141 219.862 365.541 219.862 Q361.439 219.862 358.138 221.748 Q354.838 223.587 352.952 226.557 L344.984 225.52 L351.679 190.017 L386.05 190.017 L386.05 198.127 L358.468 198.127 L354.744 216.703 Q360.967 212.366 367.804 212.366 Q376.856 212.366 383.08 218.636 Q389.304 224.907 389.304 234.761 Q389.304 244.144 383.834 250.98 Q377.186 259.373 365.682 259.373 Q356.252 259.373 350.264 254.092 Q344.324 248.812 343.475 240.089 Z" fill="#000000" fill-rule="nonzero" fill-opacity="1" /><path clip-path="url(#clip020)" d="M79.6617 830.274 L76.3415 830.274 Q76.3415 821.842 69.8594 816.467 Q69.8594 816.467 57.0004 806.348 L43.0875 817.046 Q38.2391 820.841 37.3959 822.527 Q36.4999 824.161 36.4999 829.747 L33.1271 829.747 Q33.4433 825.32 33.4433 819.523 Q33.4433 816.309 33.1271 807.824 L36.4999 807.824 Q36.7107 811.618 39.1877 811.618 Q40.0309 811.618 41.1376 810.67 L52.0466 802.238 L43.6145 795.545 Q41.6646 793.911 39.8201 793.911 Q36.8162 793.911 36.4999 797.073 L33.1271 797.073 Q33.4433 792.857 33.4433 786.691 Q33.4433 782.053 33.1271 777.837 L36.4999 777.837 Q36.7107 786.059 42.0862 790.696 Q44.3523 792.751 54.3127 800.604 L72.9687 786.164 Q75.2348 784.425 75.8145 782.475 Q76.3415 780.525 76.3415 775.887 L79.6617 775.887 Q79.3455 780.736 79.3455 786.269 Q79.3455 788.219 79.6617 797.916 L76.3415 797.916 Q76.2361 795.966 75.3929 795.018 Q74.497 794.016 73.6011 794.016 Q73.1795 794.016 70.0702 796.282 L59.2666 804.504 Q68.9635 812.725 71.2296 813.779 Q72.1782 814.201 72.9687 814.201 Q75.8672 814.201 76.3415 811.091 L79.6617 811.091 Q79.3455 818.838 79.3455 821.315 Q79.3455 826.058 79.6617 830.274 Z" fill="#000000" fill-rule="nonzero" fill-opacity="1" /><path clip-path="url(#clip020)" d="M109.56 764.895 Q108.195 764.895 107.79 764.784 Q107.384 764.637 106.757 764.046 L90.5988 749.548 Q81.6713 741.617 73.8874 741.617 Q68.8335 741.617 65.2182 744.273 Q61.603 746.892 61.603 751.725 Q61.603 755.045 63.6319 757.849 Q65.6609 760.652 69.2761 761.944 Q69.2024 761.722 69.2024 760.948 Q69.2024 759.066 70.3829 758.033 Q71.5633 756.963 73.1496 756.963 Q75.1786 756.963 76.1746 758.292 Q77.1338 759.583 77.1338 760.874 Q77.1338 761.39 77.0231 762.091 Q76.9124 762.755 75.8795 763.825 Q74.8097 764.895 72.9283 764.895 Q67.653 764.895 63.4475 760.911 Q59.242 756.89 59.242 750.766 Q59.242 743.83 63.3737 739.293 Q67.4685 734.719 73.8874 734.719 Q76.1378 734.719 78.2036 735.419 Q80.2326 736.084 81.8189 737.006 Q83.4051 737.891 85.9506 740.326 Q88.496 742.761 90.3036 744.716 Q92.1113 746.671 95.9479 751.061 L103.732 759.066 L103.732 745.454 Q103.732 738.813 103.141 738.297 Q102.072 737.559 96.4274 736.637 L96.4274 734.719 L109.56 736.858 L109.56 764.895 Z" fill="#000000" fill-rule="nonzero" fill-opacity="1" /><circle clip-path="url(#clip022)" cx="1295.36" cy="736.644" r="14.4" fill="#4477aa" fill-rule="evenodd" fill-opacity="1" stroke="#000000" stroke-opacity="1" stroke-width="3.6"/>
<circle clip-path="url(#clip022)" cx="1019.02" cy="683.661" r="14.4" fill="#4477aa" fill-rule="evenodd" fill-opacity="1" stroke="#000000" stroke-opacity="1" stroke-width="3.6"/>
<circle clip-path="url(#clip022)" cx="1408.44" cy="936.926" r="14.4" fill="#4477aa" fill-rule="evenodd" fill-opacity="1" stroke="#000000" stroke-opacity="1" stroke-width="3.6"/>
<circle clip-path="url(#clip022)" cx="1160.61" cy="618.873" r="14.4" fill="#4477aa" fill-rule="evenodd" fill-opacity="1" stroke="#000000" stroke-opacity="1" stroke-width="3.6"/>
<circle clip-path="url(#clip022)" cx="1306.08" cy="503.965" r="14.4" fill="#4477aa" fill-rule="evenodd" fill-opacity="1" stroke="#000000" stroke-opacity="1" stroke-width="3.6"/>
<circle clip-path="url(#clip022)" cx="1692.09" cy="799.062" r="14.4" fill="#4477aa" fill-rule="evenodd" fill-opacity="1" stroke="#000000" stroke-opacity="1" stroke-width="3.6"/>
<circle clip-path="url(#clip022)" cx="1424.96" cy="832.832" r="14.4" fill="#4477aa" fill-rule="evenodd" fill-opacity="1" stroke="#000000" stroke-opacity="1" stroke-width="3.6"/>
<circle clip-path="url(#clip022)" cx="1650.31" cy="806.768" r="14.4" fill="#4477aa" fill-rule="evenodd" fill-opacity="1" stroke="#000000" stroke-opacity="1" stroke-width="3.6"/>
<circle clip-path="url(#clip022)" cx="1708.42" cy="723.694" r="14.4" fill="#4477aa" fill-rule="evenodd" fill-opacity="1" stroke="#000000" stroke-opacity="1" stroke-width="3.6"/>
<circle clip-path="url(#clip022)" cx="1503.67" cy="948.769" r="14.4" fill="#4477aa" fill-rule="evenodd" fill-opacity="1" stroke="#000000" stroke-opacity="1" stroke-width="3.6"/>
<circle clip-path="url(#clip022)" cx="1601.17" cy="759.403" r="14.4" fill="#4477aa" fill-rule="evenodd" fill-opacity="1" stroke="#000000" stroke-opacity="1" stroke-width="3.6"/>
<circle clip-path="url(#clip022)" cx="1122.2" cy="817.796" r="14.4" fill="#4477aa" fill-rule="evenodd" fill-opacity="1" stroke="#000000" stroke-opacity="1" stroke-width="3.6"/>
<circle clip-path="url(#clip022)" cx="1291.69" cy="861.116" r="14.4" fill="#4477aa" fill-rule="evenodd" fill-opacity="1" stroke="#000000" stroke-opacity="1" stroke-width="3.6"/>
<circle clip-path="url(#clip022)" cx="1044.65" cy="633.461" r="14.4" fill="#4477aa" fill-rule="evenodd" fill-opacity="1" stroke="#000000" stroke-opacity="1" stroke-width="3.6"/>
<circle clip-path="url(#clip022)" cx="1348.78" cy="648.147" r="14.4" fill="#4477aa" fill-rule="evenodd" fill-opacity="1" stroke="#000000" stroke-opacity="1" stroke-width="3.6"/>
<circle clip-path="url(#clip022)" cx="1553.25" cy="803.561" r="14.4" fill="#4477aa" fill-rule="evenodd" fill-opacity="1" stroke="#000000" stroke-opacity="1" stroke-width="3.6"/>
<circle clip-path="url(#clip022)" cx="1524.93" cy="655.822" r="14.4" fill="#4477aa" fill-rule="evenodd" fill-opacity="1" stroke="#000000" stroke-opacity="1" stroke-width="3.6"/>
<circle clip-path="url(#clip022)" cx="1182.8" cy="821.142" r="14.4" fill="#4477aa" fill-rule="evenodd" fill-opacity="1" stroke="#000000" stroke-opacity="1" stroke-width="3.6"/>
<circle clip-path="url(#clip022)" cx="1691.88" cy="789.468" r="14.4" fill="#4477aa" fill-rule="evenodd" fill-opacity="1" stroke="#000000" stroke-opacity="1" stroke-width="3.6"/>
<circle clip-path="url(#clip022)" cx="990.887" cy="788.776" r="14.4" fill="#4477aa" fill-rule="evenodd" fill-opacity="1" stroke="#000000" stroke-opacity="1" stroke-width="3.6"/>
<circle clip-path="url(#clip022)" cx="1555.09" cy="1015.83" r="14.4" fill="#4477aa" fill-rule="evenodd" fill-opacity="1" stroke="#000000" stroke-opacity="1" stroke-width="3.6"/>
<circle clip-path="url(#clip022)" cx="1246.34" cy="709.847" r="14.4" fill="#4477aa" fill-rule="evenodd" fill-opacity="1" stroke="#000000" stroke-opacity="1" stroke-width="3.6"/>
<circle clip-path="url(#clip022)" cx="1357.52" cy="968.558" r="14.4" fill="#4477aa" fill-rule="evenodd" fill-opacity="1" stroke="#000000" stroke-opacity="1" stroke-width="3.6"/>
<circle clip-path="url(#clip022)" cx="1507.27" cy="542.33" r="14.4" fill="#4477aa" fill-rule="evenodd" fill-opacity="1" stroke="#000000" stroke-opacity="1" stroke-width="3.6"/>
<circle clip-path="url(#clip022)" cx="1357.08" cy="534.368" r="14.4" fill="#4477aa" fill-rule="evenodd" fill-opacity="1" stroke="#000000" stroke-opacity="1" stroke-width="3.6"/>
<circle clip-path="url(#clip022)" cx="1253.59" cy="644.488" r="14.4" fill="#4477aa" fill-rule="evenodd" fill-opacity="1" stroke="#000000" stroke-opacity="1" stroke-width="3.6"/>
<circle clip-path="url(#clip022)" cx="1405.03" cy="832.781" r="14.4" fill="#4477aa" fill-rule="evenodd" fill-opacity="1" stroke="#000000" stroke-opacity="1" stroke-width="3.6"/>
<circle clip-path="url(#clip022)" cx="1691.57" cy="664.038" r="14.4" fill="#4477aa" fill-rule="evenodd" fill-opacity="1" stroke="#000000" stroke-opacity="1" stroke-width="3.6"/>
<circle clip-path="url(#clip022)" cx="1216.85" cy="727.314" r="14.4" fill="#4477aa" fill-rule="evenodd" fill-opacity="1" stroke="#000000" stroke-opacity="1" stroke-width="3.6"/>
<circle clip-path="url(#clip022)" cx="1211.57" cy="604.968" r="14.4" fill="#4477aa" fill-rule="evenodd" fill-opacity="1" stroke="#000000" stroke-opacity="1" stroke-width="3.6"/>
<circle clip-path="url(#clip022)" cx="1234.22" cy="619.042" r="14.4" fill="#4477aa" fill-rule="evenodd" fill-opacity="1" stroke="#000000" stroke-opacity="1" stroke-width="3.6"/>
<circle clip-path="url(#clip022)" cx="1131.84" cy="828.192" r="14.4" fill="#4477aa" fill-rule="evenodd" fill-opacity="1" stroke="#000000" stroke-opacity="1" stroke-width="3.6"/>
<circle clip-path="url(#clip022)" cx="1466.32" cy="600.655" r="14.4" fill="#4477aa" fill-rule="evenodd" fill-opacity="1" stroke="#000000" stroke-opacity="1" stroke-width="3.6"/>
<circle clip-path="url(#clip022)" cx="1184.96" cy="581.28" r="14.4" fill="#4477aa" fill-rule="evenodd" fill-opacity="1" stroke="#000000" stroke-opacity="1" stroke-width="3.6"/>
<circle clip-path="url(#clip022)" cx="1165.31" cy="913.361" r="14.4" fill="#4477aa" fill-rule="evenodd" fill-opacity="1" stroke="#000000" stroke-opacity="1" stroke-width="3.6"/>
<circle clip-path="url(#clip022)" cx="1394.68" cy="1004.14" r="14.4" fill="#4477aa" fill-rule="evenodd" fill-opacity="1" stroke="#000000" stroke-opacity="1" stroke-width="3.6"/>
<circle clip-path="url(#clip022)" cx="1620.12" cy="851.03" r="14.4" fill="#4477aa" fill-rule="evenodd" fill-opacity="1" stroke="#000000" stroke-opacity="1" stroke-width="3.6"/>
<circle clip-path="url(#clip022)" cx="1451.28" cy="846.475" r="14.4" fill="#4477aa" fill-rule="evenodd" fill-opacity="1" stroke="#000000" stroke-opacity="1" stroke-width="3.6"/>
<circle clip-path="url(#clip022)" cx="1535.48" cy="976.531" r="14.4" fill="#4477aa" fill-rule="evenodd" fill-opacity="1" stroke="#000000" stroke-opacity="1" stroke-width="3.6"/>
<circle clip-path="url(#clip022)" cx="1471.72" cy="905.117" r="14.4" fill="#4477aa" fill-rule="evenodd" fill-opacity="1" stroke="#000000" stroke-opacity="1" stroke-width="3.6"/>
<circle clip-path="url(#clip022)" cx="1096.84" cy="687.745" r="14.4" fill="#4477aa" fill-rule="evenodd" fill-opacity="1" stroke="#000000" stroke-opacity="1" stroke-width="3.6"/>
<circle clip-path="url(#clip022)" cx="1617.32" cy="584.255" r="14.4" fill="#4477aa" fill-rule="evenodd" fill-opacity="1" stroke="#000000" stroke-opacity="1" stroke-width="3.6"/>
<circle clip-path="url(#clip022)" cx="1550.14" cy="882.339" r="14.4" fill="#4477aa" fill-rule="evenodd" fill-opacity="1" stroke="#000000" stroke-opacity="1" stroke-width="3.6"/>
<circle clip-path="url(#clip022)" cx="1327.36" cy="928.023" r="14.4" fill="#4477aa" fill-rule="evenodd" fill-opacity="1" stroke="#000000" stroke-opacity="1" stroke-width="3.6"/>
<circle clip-path="url(#clip022)" cx="1222.29" cy="800.337" r="14.4" fill="#4477aa" fill-rule="evenodd" fill-opacity="1" stroke="#000000" stroke-opacity="1" stroke-width="3.6"/>
<circle clip-path="url(#clip022)" cx="1315.94" cy="808.077" r="14.4" fill="#4477aa" fill-rule="evenodd" fill-opacity="1" stroke="#000000" stroke-opacity="1" stroke-width="3.6"/>
<circle clip-path="url(#clip022)" cx="1462.75" cy="869.756" r="14.4" fill="#4477aa" fill-rule="evenodd" fill-opacity="1" stroke="#000000" stroke-opacity="1" stroke-width="3.6"/>
<circle clip-path="url(#clip022)" cx="1266.6" cy="730.685" r="14.4" fill="#4477aa" fill-rule="evenodd" fill-opacity="1" stroke="#000000" stroke-opacity="1" stroke-width="3.6"/>
<circle clip-path="url(#clip022)" cx="1595.76" cy="751.325" r="14.4" fill="#4477aa" fill-rule="evenodd" fill-opacity="1" stroke="#000000" stroke-opacity="1" stroke-width="3.6"/>
<circle clip-path="url(#clip022)" cx="1420.34" cy="651.959" r="14.4" fill="#4477aa" fill-rule="evenodd" fill-opacity="1" stroke="#000000" stroke-opacity="1" stroke-width="3.6"/>
<circle clip-path="url(#clip022)" cx="1624.59" cy="851.112" r="14.4" fill="#4477aa" fill-rule="evenodd" fill-opacity="1" stroke="#000000" stroke-opacity="1" stroke-width="3.6"/>
<circle clip-path="url(#clip022)" cx="1337.94" cy="1242.04" r="14.4" fill="#ee6677" fill-rule="evenodd" fill-opacity="1" stroke="#000000" stroke-opacity="1" stroke-width="3.6"/>
<circle clip-path="url(#clip022)" cx="999.296" cy="1198.97" r="14.4" fill="#ee6677" fill-rule="evenodd" fill-opacity="1" stroke="#000000" stroke-opacity="1" stroke-width="3.6"/>
<circle clip-path="url(#clip022)" cx="1271.1" cy="230.171" r="14.4" fill="#ee6677" fill-rule="evenodd" fill-opacity="1" stroke="#000000" stroke-opacity="1" stroke-width="3.6"/>
<circle clip-path="url(#clip022)" cx="1159.59" cy="1328.55" r="14.4" fill="#ee6677" fill-rule="evenodd" fill-opacity="1" stroke="#000000" stroke-opacity="1" stroke-width="3.6"/>
<circle clip-path="url(#clip022)" cx="1393.99" cy="1275.92" r="14.4" fill="#ee6677" fill-rule="evenodd" fill-opacity="1" stroke="#000000" stroke-opacity="1" stroke-width="3.6"/>
<circle clip-path="url(#clip022)" cx="2178.69" cy="557.878" r="14.4" fill="#ee6677" fill-rule="evenodd" fill-opacity="1" stroke="#000000" stroke-opacity="1" stroke-width="3.6"/>
<circle clip-path="url(#clip022)" cx="1491.77" cy="218.601" r="14.4" fill="#ee6677" fill-rule="evenodd" fill-opacity="1" stroke="#000000" stroke-opacity="1" stroke-width="3.6"/>
<circle clip-path="url(#clip022)" cx="695.139" cy="271.099" r="14.4" fill="#ee6677" fill-rule="evenodd" fill-opacity="1" stroke="#000000" stroke-opacity="1" stroke-width="3.6"/>
<circle clip-path="url(#clip022)" cx="2248.78" cy="707.397" r="14.4" fill="#ee6677" fill-rule="evenodd" fill-opacity="1" stroke="#000000" stroke-opacity="1" stroke-width="3.6"/>
<circle clip-path="url(#clip022)" cx="1819.24" cy="476.156" r="14.4" fill="#ee6677" fill-rule="evenodd" fill-opacity="1" stroke="#000000" stroke-opacity="1" stroke-width="3.6"/>
<circle clip-path="url(#clip022)" cx="1752.98" cy="435.327" r="14.4" fill="#ee6677" fill-rule="evenodd" fill-opacity="1" stroke="#000000" stroke-opacity="1" stroke-width="3.6"/>
<circle clip-path="url(#clip022)" cx="1779.74" cy="1266.56" r="14.4" fill="#ee6677" fill-rule="evenodd" fill-opacity="1" stroke="#000000" stroke-opacity="1" stroke-width="3.6"/>
<circle clip-path="url(#clip022)" cx="735.427" cy="261.789" r="14.4" fill="#ee6677" fill-rule="evenodd" fill-opacity="1" stroke="#000000" stroke-opacity="1" stroke-width="3.6"/>
<circle clip-path="url(#clip022)" cx="1839.78" cy="283.247" r="14.4" fill="#ee6677" fill-rule="evenodd" fill-opacity="1" stroke="#000000" stroke-opacity="1" stroke-width="3.6"/>
<circle clip-path="url(#clip022)" cx="1397.31" cy="1387.15" r="14.4" fill="#ee6677" fill-rule="evenodd" fill-opacity="1" stroke="#000000" stroke-opacity="1" stroke-width="3.6"/>
<circle clip-path="url(#clip022)" cx="2252.53" cy="1067.28" r="14.4" fill="#ee6677" fill-rule="evenodd" fill-opacity="1" stroke="#000000" stroke-opacity="1" stroke-width="3.6"/>
<circle clip-path="url(#clip022)" cx="479.854" cy="596.405" r="14.4" fill="#ee6677" fill-rule="evenodd" fill-opacity="1" stroke="#000000" stroke-opacity="1" stroke-width="3.6"/>
<circle clip-path="url(#clip022)" cx="1930.89" cy="923.221" r="14.4" fill="#ee6677" fill-rule="evenodd" fill-opacity="1" stroke="#000000" stroke-opacity="1" stroke-width="3.6"/>
<circle clip-path="url(#clip022)" cx="1173.24" cy="1465.22" r="14.4" fill="#ee6677" fill-rule="evenodd" fill-opacity="1" stroke="#000000" stroke-opacity="1" stroke-width="3.6"/>
<circle clip-path="url(#clip022)" cx="1387.74" cy="133.2" r="14.4" fill="#ee6677" fill-rule="evenodd" fill-opacity="1" stroke="#000000" stroke-opacity="1" stroke-width="3.6"/>
<circle clip-path="url(#clip022)" cx="1450.81" cy="1323.21" r="14.4" fill="#ee6677" fill-rule="evenodd" fill-opacity="1" stroke="#000000" stroke-opacity="1" stroke-width="3.6"/>
<circle clip-path="url(#clip022)" cx="1833.57" cy="1188.17" r="14.4" fill="#ee6677" fill-rule="evenodd" fill-opacity="1" stroke="#000000" stroke-opacity="1" stroke-width="3.6"/>
<circle clip-path="url(#clip022)" cx="692.932" cy="749.969" r="14.4" fill="#ee6677" fill-rule="evenodd" fill-opacity="1" stroke="#000000" stroke-opacity="1" stroke-width="3.6"/>
<circle clip-path="url(#clip022)" cx="876.467" cy="456.894" r="14.4" fill="#ee6677" fill-rule="evenodd" fill-opacity="1" stroke="#000000" stroke-opacity="1" stroke-width="3.6"/>
<circle clip-path="url(#clip022)" cx="841.989" cy="187.516" r="14.4" fill="#ee6677" fill-rule="evenodd" fill-opacity="1" stroke="#000000" stroke-opacity="1" stroke-width="3.6"/>
<circle clip-path="url(#clip022)" cx="1230.51" cy="120.766" r="14.4" fill="#ee6677" fill-rule="evenodd" fill-opacity="1" stroke="#000000" stroke-opacity="1" stroke-width="3.6"/>
<circle clip-path="url(#clip022)" cx="2291.77" cy="665.355" r="14.4" fill="#ee6677" fill-rule="evenodd" fill-opacity="1" stroke="#000000" stroke-opacity="1" stroke-width="3.6"/>
<circle clip-path="url(#clip022)" cx="956.699" cy="1321.22" r="14.4" fill="#ee6677" fill-rule="evenodd" fill-opacity="1" stroke="#000000" stroke-opacity="1" stroke-width="3.6"/>
<circle clip-path="url(#clip022)" cx="841.797" cy="305.449" r="14.4" fill="#ee6677" fill-rule="evenodd" fill-opacity="1" stroke="#000000" stroke-opacity="1" stroke-width="3.6"/>
<circle clip-path="url(#clip022)" cx="608.394" cy="840.744" r="14.4" fill="#ee6677" fill-rule="evenodd" fill-opacity="1" stroke="#000000" stroke-opacity="1" stroke-width="3.6"/>
<circle clip-path="url(#clip022)" cx="601.122" cy="700.479" r="14.4" fill="#ee6677" fill-rule="evenodd" fill-opacity="1" stroke="#000000" stroke-opacity="1" stroke-width="3.6"/>
<circle clip-path="url(#clip022)" cx="2141.16" cy="985.434" r="14.4" fill="#ee6677" fill-rule="evenodd" fill-opacity="1" stroke="#000000" stroke-opacity="1" stroke-width="3.6"/>
<circle clip-path="url(#clip022)" cx="1525.16" cy="343.327" r="14.4" fill="#ee6677" fill-rule="evenodd" fill-opacity="1" stroke="#000000" stroke-opacity="1" stroke-width="3.6"/>
<circle clip-path="url(#clip022)" cx="1370.98" cy="1344.79" r="14.4" fill="#ee6677" fill-rule="evenodd" fill-opacity="1" stroke="#000000" stroke-opacity="1" stroke-width="3.6"/>
<circle clip-path="url(#clip022)" cx="734.905" cy="835.245" r="14.4" fill="#ee6677" fill-rule="evenodd" fill-opacity="1" stroke="#000000" stroke-opacity="1" stroke-width="3.6"/>
<circle clip-path="url(#clip022)" cx="715.906" cy="803.892" r="14.4" fill="#ee6677" fill-rule="evenodd" fill-opacity="1" stroke="#000000" stroke-opacity="1" stroke-width="3.6"/>
<circle clip-path="url(#clip022)" cx="1783.42" cy="1311.53" r="14.4" fill="#ee6677" fill-rule="evenodd" fill-opacity="1" stroke="#000000" stroke-opacity="1" stroke-width="3.6"/>
<circle clip-path="url(#clip022)" cx="558.49" cy="881.822" r="14.4" fill="#ee6677" fill-rule="evenodd" fill-opacity="1" stroke="#000000" stroke-opacity="1" stroke-width="3.6"/>
<circle clip-path="url(#clip022)" cx="591.246" cy="1119.93" r="14.4" fill="#ee6677" fill-rule="evenodd" fill-opacity="1" stroke="#000000" stroke-opacity="1" stroke-width="3.6"/>
<circle clip-path="url(#clip022)" cx="943.959" cy="160.632" r="14.4" fill="#ee6677" fill-rule="evenodd" fill-opacity="1" stroke="#000000" stroke-opacity="1" stroke-width="3.6"/>
<circle clip-path="url(#clip022)" cx="1792.24" cy="1390.95" r="14.4" fill="#ee6677" fill-rule="evenodd" fill-opacity="1" stroke="#000000" stroke-opacity="1" stroke-width="3.6"/>
<circle clip-path="url(#clip022)" cx="2298.21" cy="804.943" r="14.4" fill="#ee6677" fill-rule="evenodd" fill-opacity="1" stroke="#000000" stroke-opacity="1" stroke-width="3.6"/>
<circle clip-path="url(#clip022)" cx="570.019" cy="1091.43" r="14.4" fill="#ee6677" fill-rule="evenodd" fill-opacity="1" stroke="#000000" stroke-opacity="1" stroke-width="3.6"/>
<circle clip-path="url(#clip022)" cx="1478.44" cy="88.5445" r="14.4" fill="#ee6677" fill-rule="evenodd" fill-opacity="1" stroke="#000000" stroke-opacity="1" stroke-width="3.6"/>
<circle clip-path="url(#clip022)" cx="1153.25" cy="1448.9" r="14.4" fill="#ee6677" fill-rule="evenodd" fill-opacity="1" stroke="#000000" stroke-opacity="1" stroke-width="3.6"/>
<circle clip-path="url(#clip022)" cx="1626.28" cy="1449.81" r="14.4" fill="#ee6677" fill-rule="evenodd" fill-opacity="1" stroke="#000000" stroke-opacity="1" stroke-width="3.6"/>
<circle clip-path="url(#clip022)" cx="2246.59" cy="720.077" r="14.4" fill="#ee6677" fill-rule="evenodd" fill-opacity="1" stroke="#000000" stroke-opacity="1" stroke-width="3.6"/>
<circle clip-path="url(#clip022)" cx="1998.92" cy="1261.06" r="14.4" fill="#ee6677" fill-rule="evenodd" fill-opacity="1" stroke="#000000" stroke-opacity="1" stroke-width="3.6"/>
<circle clip-path="url(#clip022)" cx="1981.32" cy="319.952" r="14.4" fill="#ee6677" fill-rule="evenodd" fill-opacity="1" stroke="#000000" stroke-opacity="1" stroke-width="3.6"/>
<circle clip-path="url(#clip022)" cx="855.739" cy="1328.52" r="14.4" fill="#ee6677" fill-rule="evenodd" fill-opacity="1" stroke="#000000" stroke-opacity="1" stroke-width="3.6"/>
<path clip-path="url(#clip020)" d="M1954.46 445.807 L2288.51 445.807 L2288.51 95.8868 L1954.46 95.8868  Z" fill="#ffffff" fill-rule="evenodd" fill-opacity="1"/>
<polyline clip-path="url(#clip020)" style="stroke:#000000; stroke-linecap:round; stroke-linejoin:round; stroke-width:4; stroke-opacity:1; fill:none" points="1954.46,445.807 2288.51,445.807 2288.51,95.8868 1954.46,95.8868 1954.46,445.807 "/>
<circle clip-path="url(#clip020)" cx="2040.12" cy="212.527" r="46.08" fill="#4477aa" fill-rule="evenodd" fill-opacity="1" stroke="#000000" stroke-opacity="1" stroke-width="11.52"/>
<path clip-path="url(#clip020)" d="M2125.79 213.057 Q2125.79 199.266 2128.6 190.885 Q2131.46 182.452 2137.03 177.89 Q2142.65 173.328 2151.14 173.328 Q2157.4 173.328 2162.12 175.875 Q2166.84 178.368 2169.92 183.141 Q2172.99 187.862 2174.74 194.705 Q2176.5 201.494 2176.5 213.057 Q2176.5 226.742 2173.68 235.176 Q2170.87 243.556 2165.25 248.171 Q2159.68 252.733 2151.14 252.733 Q2139.9 252.733 2133.48 244.67 Q2125.79 234.964 2125.79 213.057 M2135.6 213.057 Q2135.6 232.205 2140.06 238.571 Q2144.56 244.883 2151.14 244.883 Q2157.72 244.883 2162.17 238.517 Q2166.68 232.152 2166.68 213.057 Q2166.68 193.856 2162.17 187.544 Q2157.72 181.232 2151.03 181.232 Q2144.46 181.232 2140.53 186.801 Q2135.6 193.909 2135.6 213.057 Z" fill="#000000" fill-rule="nonzero" fill-opacity="1" /><path clip-path="url(#clip020)" d="M2191.56 251.407 L2191.56 240.533 L2202.43 240.533 L2202.43 251.407 L2191.56 251.407 Z" fill="#000000" fill-rule="nonzero" fill-opacity="1" /><path clip-path="url(#clip020)" d="M2216.38 213.057 Q2216.38 199.266 2219.19 190.885 Q2222.06 182.452 2227.63 177.89 Q2233.25 173.328 2241.74 173.328 Q2248 173.328 2252.72 175.875 Q2257.44 178.368 2260.51 183.141 Q2263.59 187.862 2265.34 194.705 Q2267.09 201.494 2267.09 213.057 Q2267.09 226.742 2264.28 235.176 Q2261.47 243.556 2255.85 248.171 Q2250.28 252.733 2241.74 252.733 Q2230.49 252.733 2224.07 244.67 Q2216.38 234.964 2216.38 213.057 M2226.2 213.057 Q2226.2 232.205 2230.65 238.571 Q2235.16 244.883 2241.74 244.883 Q2248.31 244.883 2252.77 238.517 Q2257.28 232.152 2257.28 213.057 Q2257.28 193.856 2252.77 187.544 Q2248.31 181.232 2241.63 181.232 Q2235.05 181.232 2231.13 186.801 Q2226.2 193.909 2226.2 213.057 Z" fill="#000000" fill-rule="nonzero" fill-opacity="1" /><circle clip-path="url(#clip020)" cx="2040.12" cy="329.167" r="46.08" fill="#ee6677" fill-rule="evenodd" fill-opacity="1" stroke="#000000" stroke-opacity="1" stroke-width="11.52"/>
<path clip-path="url(#clip020)" d="M2154.43 368.047 L2144.88 368.047 L2144.88 307.207 Q2141.43 310.496 2135.81 313.784 Q2130.24 317.073 2125.79 318.717 L2125.79 309.488 Q2133.8 305.722 2139.79 300.365 Q2145.78 295.008 2148.28 289.968 L2154.43 289.968 L2154.43 368.047 Z" fill="#000000" fill-rule="nonzero" fill-opacity="1" /><path clip-path="url(#clip020)" d="M2184.24 368.047 L2184.24 357.173 L2195.11 357.173 L2195.11 368.047 L2184.24 368.047 Z" fill="#000000" fill-rule="nonzero" fill-opacity="1" /><path clip-path="url(#clip020)" d="M2209.06 329.697 Q2209.06 315.906 2211.87 307.525 Q2214.74 299.092 2220.31 294.53 Q2225.93 289.968 2234.42 289.968 Q2240.68 289.968 2245.4 292.515 Q2250.12 295.008 2253.19 299.781 Q2256.27 304.502 2258.02 311.345 Q2259.77 318.134 2259.77 329.697 Q2259.77 343.382 2256.96 351.816 Q2254.15 360.196 2248.53 364.811 Q2242.96 369.373 2234.42 369.373 Q2223.17 369.373 2216.75 361.31 Q2209.06 351.604 2209.06 329.697 M2218.88 329.697 Q2218.88 348.845 2223.33 355.211 Q2227.84 361.523 2234.42 361.523 Q2240.99 361.523 2245.45 355.157 Q2249.96 348.792 2249.96 329.697 Q2249.96 310.496 2245.45 304.184 Q2240.99 297.872 2234.31 297.872 Q2227.73 297.872 2223.81 303.441 Q2218.88 310.549 2218.88 329.697 Z" fill="#000000" fill-rule="nonzero" fill-opacity="1" /></svg>
