<?xml version="1.0" encoding="utf-8"?>
<svg xmlns="http://www.w3.org/2000/svg" xmlns:xlink="http://www.w3.org/1999/xlink" width="600" height="450" viewBox="0 0 2400 1800">
<defs>
  <clipPath id="clip140">
    <rect x="0" y="0" width="2400" height="1800"/>
  </clipPath>
</defs>
<path clip-path="url(#clip140)" d="M0 1800 L2400 1800 L2400 0 L0 0  Z" fill="#ffffff" fill-rule="evenodd" fill-opacity="1"/>
<defs>
  <clipPath id="clip141">
    <rect x="480" y="0" width="1681" height="1681"/>
  </clipPath>
</defs>
<path clip-path="url(#clip140)" d="M423.983 1506.52 L2352.76 1506.52 L2352.76 47.2441 L423.983 47.2441  Z" fill="#ffffff" fill-rule="evenodd" fill-opacity="1"/>
<defs>
  <clipPath id="clip142">
    <rect x="423" y="47" width="1930" height="1460"/>
  </clipPath>
</defs>
<polyline clip-path="url(#clip142)" style="stroke:#000000; stroke-linecap:round; stroke-linejoin:round; stroke-width:2; stroke-opacity:0.1; fill:none" points="478.571,1506.52 478.571,47.2441 "/>
<polyline clip-path="url(#clip142)" style="stroke:#000000; stroke-linecap:round; stroke-linejoin:round; stroke-width:2; stroke-opacity:0.1; fill:none" points="933.471,1506.52 933.471,47.2441 "/>
<polyline clip-path="url(#clip142)" style="stroke:#000000; stroke-linecap:round; stroke-linejoin:round; stroke-width:2; stroke-opacity:0.1; fill:none" points="1388.37,1506.52 1388.37,47.2441 "/>
<polyline clip-path="url(#clip142)" style="stroke:#000000; stroke-linecap:round; stroke-linejoin:round; stroke-width:2; stroke-opacity:0.1; fill:none" points="1843.27,1506.52 1843.27,47.2441 "/>
<polyline clip-path="url(#clip142)" style="stroke:#000000; stroke-linecap:round; stroke-linejoin:round; stroke-width:2; stroke-opacity:0.1; fill:none" points="2298.17,1506.52 2298.17,47.2441 "/>
<polyline clip-path="url(#clip142)" style="stroke:#000000; stroke-linecap:round; stroke-linejoin:round; stroke-width:2; stroke-opacity:0.1; fill:none" points="423.983,1414.67 2352.76,1414.67 "/>
<polyline clip-path="url(#clip142)" style="stroke:#000000; stroke-linecap:round; stroke-linejoin:round; stroke-width:2; stroke-opacity:0.1; fill:none" points="423.983,1147.16 2352.76,1147.16 "/>
<polyline clip-path="url(#clip142)" style="stroke:#000000; stroke-linecap:round; stroke-linejoin:round; stroke-width:2; stroke-opacity:0.1; fill:none" points="423.983,879.652 2352.76,879.652 "/>
<polyline clip-path="url(#clip142)" style="stroke:#000000; stroke-linecap:round; stroke-linejoin:round; stroke-width:2; stroke-opacity:0.1; fill:none" points="423.983,612.142 2352.76,612.142 "/>
<polyline clip-path="url(#clip142)" style="stroke:#000000; stroke-linecap:round; stroke-linejoin:round; stroke-width:2; stroke-opacity:0.1; fill:none" points="423.983,344.631 2352.76,344.631 "/>
<polyline clip-path="url(#clip142)" style="stroke:#000000; stroke-linecap:round; stroke-linejoin:round; stroke-width:2; stroke-opacity:0.1; fill:none" points="423.983,77.121 2352.76,77.121 "/>
<polyline clip-path="url(#clip140)" style="stroke:#000000; stroke-linecap:round; stroke-linejoin:round; stroke-width:4; stroke-opacity:1; fill:none" points="423.983,1506.52 2352.76,1506.52 "/>
<polyline clip-path="url(#clip140)" style="stroke:#000000; stroke-linecap:round; stroke-linejoin:round; stroke-width:2; stroke-opacity:0.5; fill:none" points="423.983,47.2441 2352.76,47.2441 "/>
<polyline clip-path="url(#clip140)" style="stroke:#000000; stroke-linecap:round; stroke-linejoin:round; stroke-width:4; stroke-opacity:1; fill:none" points="478.571,1506.52 478.571,1487.63 "/>
<polyline clip-path="url(#clip140)" style="stroke:#000000; stroke-linecap:round; stroke-linejoin:round; stroke-width:4; stroke-opacity:1; fill:none" points="933.471,1506.52 933.471,1487.63 "/>
<polyline clip-path="url(#clip140)" style="stroke:#000000; stroke-linecap:round; stroke-linejoin:round; stroke-width:4; stroke-opacity:1; fill:none" points="1388.37,1506.52 1388.37,1487.63 "/>
<polyline clip-path="url(#clip140)" style="stroke:#000000; stroke-linecap:round; stroke-linejoin:round; stroke-width:4; stroke-opacity:1; fill:none" points="1843.27,1506.52 1843.27,1487.63 "/>
<polyline clip-path="url(#clip140)" style="stroke:#000000; stroke-linecap:round; stroke-linejoin:round; stroke-width:4; stroke-opacity:1; fill:none" points="2298.17,1506.52 2298.17,1487.63 "/>
<path clip-path="url(#clip140)" d="M417.632 1612.12 L409.145 1612.12 L409.145 1558.04 Q406.08 1560.97 401.082 1563.89 Q396.132 1566.81 392.171 1568.28 L392.171 1560.07 Q399.291 1556.72 404.619 1551.96 Q409.946 1547.2 412.162 1542.72 L417.632 1542.72 L417.632 1612.12 Z" fill="#000000" fill-rule="nonzero" fill-opacity="1" /><path clip-path="url(#clip140)" d="M444.129 1612.12 L444.129 1602.46 L453.795 1602.46 L453.795 1612.12 L444.129 1612.12 Z" fill="#000000" fill-rule="nonzero" fill-opacity="1" /><path clip-path="url(#clip140)" d="M466.195 1578.04 Q466.195 1565.78 468.694 1558.33 Q471.24 1550.83 476.19 1546.78 Q481.188 1542.72 488.732 1542.72 Q494.295 1542.72 498.492 1544.98 Q502.688 1547.2 505.423 1551.44 Q508.157 1555.64 509.713 1561.72 Q511.269 1567.76 511.269 1578.04 Q511.269 1590.2 508.77 1597.7 Q506.271 1605.15 501.273 1609.25 Q496.323 1613.3 488.732 1613.3 Q478.736 1613.3 473.031 1606.14 Q466.195 1597.51 466.195 1578.04 M474.917 1578.04 Q474.917 1595.06 478.878 1600.71 Q482.885 1606.32 488.732 1606.32 Q494.578 1606.32 498.539 1600.67 Q502.546 1595.01 502.546 1578.04 Q502.546 1560.97 498.539 1555.36 Q494.578 1549.75 488.638 1549.75 Q482.791 1549.75 479.302 1554.7 Q474.917 1561.01 474.917 1578.04 Z" fill="#000000" fill-rule="nonzero" fill-opacity="1" /><path clip-path="url(#clip140)" d="M519.897 1578.04 Q519.897 1565.78 522.396 1558.33 Q524.942 1550.83 529.893 1546.78 Q534.89 1542.72 542.434 1542.72 Q547.998 1542.72 552.194 1544.98 Q556.39 1547.2 559.125 1551.44 Q561.86 1555.64 563.415 1561.72 Q564.971 1567.76 564.971 1578.04 Q564.971 1590.2 562.472 1597.7 Q559.974 1605.15 554.976 1609.25 Q550.025 1613.3 542.434 1613.3 Q532.439 1613.3 526.734 1606.14 Q519.897 1597.51 519.897 1578.04 M528.62 1578.04 Q528.62 1595.06 532.58 1600.71 Q536.588 1606.32 542.434 1606.32 Q548.281 1606.32 552.241 1600.67 Q556.249 1595.01 556.249 1578.04 Q556.249 1560.97 552.241 1555.36 Q548.281 1549.75 542.34 1549.75 Q536.494 1549.75 533.005 1554.7 Q528.62 1561.01 528.62 1578.04 Z" fill="#000000" fill-rule="nonzero" fill-opacity="1" /><path clip-path="url(#clip140)" d="M872.154 1612.12 L863.667 1612.12 L863.667 1558.04 Q860.602 1560.97 855.604 1563.89 Q850.654 1566.81 846.693 1568.28 L846.693 1560.07 Q853.813 1556.72 859.141 1551.96 Q864.468 1547.2 866.684 1542.72 L872.154 1542.72 L872.154 1612.12 Z" fill="#000000" fill-rule="nonzero" fill-opacity="1" /><path clip-path="url(#clip140)" d="M898.651 1612.12 L898.651 1602.46 L908.317 1602.46 L908.317 1612.12 L898.651 1612.12 Z" fill="#000000" fill-rule="nonzero" fill-opacity="1" /><path clip-path="url(#clip140)" d="M965.319 1603.97 L965.319 1612.12 L919.632 1612.12 Q919.538 1609.06 920.622 1606.23 Q922.367 1601.56 926.186 1597.04 Q930.052 1592.51 937.313 1586.57 Q948.582 1577.33 952.542 1571.95 Q956.503 1566.53 956.503 1561.72 Q956.503 1556.68 952.872 1553.24 Q949.289 1549.75 943.49 1549.75 Q937.36 1549.75 933.683 1553.42 Q930.005 1557.1 929.958 1563.61 L921.235 1562.71 Q922.131 1552.95 927.978 1547.86 Q933.824 1542.72 943.678 1542.72 Q953.627 1542.72 959.426 1548.24 Q965.225 1553.75 965.225 1561.91 Q965.225 1566.06 963.528 1570.07 Q961.83 1574.07 957.87 1578.51 Q953.957 1582.94 944.81 1590.67 Q937.172 1597.08 935.003 1599.39 Q932.834 1601.66 931.42 1603.97 L965.319 1603.97 Z" fill="#000000" fill-rule="nonzero" fill-opacity="1" /><path clip-path="url(#clip140)" d="M974.419 1594.02 L983.33 1593.26 Q984.32 1599.77 987.904 1603.07 Q991.534 1606.32 996.626 1606.32 Q1002.76 1606.32 1007 1601.7 Q1011.24 1597.08 1011.24 1589.45 Q1011.24 1582.18 1007.14 1577.99 Q1003.09 1573.79 996.485 1573.79 Q992.383 1573.79 989.082 1575.68 Q985.782 1577.52 983.896 1580.49 L975.928 1579.45 L982.623 1543.95 L1016.99 1543.95 L1016.99 1552.06 L989.412 1552.06 L985.688 1570.63 Q991.911 1566.3 998.748 1566.3 Q1007.8 1566.3 1014.02 1572.57 Q1020.25 1578.84 1020.25 1588.69 Q1020.25 1598.07 1014.78 1604.91 Q1008.13 1613.3 996.626 1613.3 Q987.196 1613.3 981.209 1608.02 Q975.268 1602.74 974.419 1594.02 Z" fill="#000000" fill-rule="nonzero" fill-opacity="1" /><path clip-path="url(#clip140)" d="M1327.43 1612.12 L1318.94 1612.12 L1318.94 1558.04 Q1315.88 1560.97 1310.88 1563.89 Q1305.93 1566.81 1301.97 1568.28 L1301.97 1560.07 Q1309.09 1556.72 1314.42 1551.96 Q1319.74 1547.2 1321.96 1542.72 L1327.43 1542.72 L1327.43 1612.12 Z" fill="#000000" fill-rule="nonzero" fill-opacity="1" /><path clip-path="url(#clip140)" d="M1353.93 1612.12 L1353.93 1602.46 L1363.59 1602.46 L1363.59 1612.12 L1353.93 1612.12 Z" fill="#000000" fill-rule="nonzero" fill-opacity="1" /><path clip-path="url(#clip140)" d="M1375.99 1594.02 L1384.9 1593.26 Q1385.89 1599.77 1389.48 1603.07 Q1393.11 1606.32 1398.2 1606.32 Q1404.33 1606.32 1408.57 1601.7 Q1412.82 1597.08 1412.82 1589.45 Q1412.82 1582.18 1408.71 1577.99 Q1404.66 1573.79 1398.06 1573.79 Q1393.96 1573.79 1390.66 1575.68 Q1387.36 1577.52 1385.47 1580.49 L1377.5 1579.45 L1384.2 1543.95 L1418.57 1543.95 L1418.57 1552.06 L1390.99 1552.06 L1387.26 1570.63 Q1393.49 1566.3 1400.32 1566.3 Q1409.37 1566.3 1415.6 1572.57 Q1421.82 1578.84 1421.82 1588.69 Q1421.82 1598.07 1416.35 1604.91 Q1409.7 1613.3 1398.2 1613.3 Q1388.77 1613.3 1382.78 1608.02 Q1376.84 1602.74 1375.99 1594.02 Z" fill="#000000" fill-rule="nonzero" fill-opacity="1" /><path clip-path="url(#clip140)" d="M1429.7 1578.04 Q1429.7 1565.78 1432.19 1558.33 Q1434.74 1550.83 1439.69 1546.78 Q1444.69 1542.72 1452.23 1542.72 Q1457.8 1542.72 1461.99 1544.98 Q1466.19 1547.2 1468.92 1551.44 Q1471.66 1555.64 1473.21 1561.72 Q1474.77 1567.76 1474.77 1578.04 Q1474.77 1590.2 1472.27 1597.7 Q1469.77 1605.15 1464.77 1609.25 Q1459.82 1613.3 1452.23 1613.3 Q1442.24 1613.3 1436.53 1606.14 Q1429.7 1597.51 1429.7 1578.04 M1438.42 1578.04 Q1438.42 1595.06 1442.38 1600.71 Q1446.39 1606.32 1452.23 1606.32 Q1458.08 1606.32 1462.04 1600.67 Q1466.05 1595.01 1466.05 1578.04 Q1466.05 1560.97 1462.04 1555.36 Q1458.08 1549.75 1452.14 1549.75 Q1446.29 1549.75 1442.8 1554.7 Q1438.42 1561.01 1438.42 1578.04 Z" fill="#000000" fill-rule="nonzero" fill-opacity="1" /><path clip-path="url(#clip140)" d="M1781.95 1612.12 L1773.47 1612.12 L1773.47 1558.04 Q1770.4 1560.97 1765.4 1563.89 Q1760.45 1566.81 1756.49 1568.28 L1756.49 1560.07 Q1763.61 1556.72 1768.94 1551.96 Q1774.27 1547.2 1776.48 1542.72 L1781.95 1542.72 L1781.95 1612.12 Z" fill="#000000" fill-rule="nonzero" fill-opacity="1" /><path clip-path="url(#clip140)" d="M1808.45 1612.12 L1808.45 1602.46 L1818.12 1602.46 L1818.12 1612.12 L1808.45 1612.12 Z" fill="#000000" fill-rule="nonzero" fill-opacity="1" /><path clip-path="url(#clip140)" d="M1831.08 1552.06 L1831.08 1543.9 L1875.83 1543.9 L1875.83 1550.5 Q1869.22 1557.53 1862.72 1569.17 Q1856.26 1580.82 1852.72 1593.12 Q1850.18 1601.8 1849.47 1612.12 L1840.75 1612.12 Q1840.89 1603.97 1843.95 1592.42 Q1847.02 1580.86 1852.72 1570.16 Q1858.47 1559.41 1864.93 1552.06 L1831.08 1552.06 Z" fill="#000000" fill-rule="nonzero" fill-opacity="1" /><path clip-path="url(#clip140)" d="M1884.22 1594.02 L1893.13 1593.26 Q1894.12 1599.77 1897.7 1603.07 Q1901.33 1606.32 1906.42 1606.32 Q1912.55 1606.32 1916.8 1601.7 Q1921.04 1597.08 1921.04 1589.45 Q1921.04 1582.18 1916.94 1577.99 Q1912.88 1573.79 1906.28 1573.79 Q1902.18 1573.79 1898.88 1575.68 Q1895.58 1577.52 1893.69 1580.49 L1885.73 1579.45 L1892.42 1543.95 L1926.79 1543.95 L1926.79 1552.06 L1899.21 1552.06 L1895.49 1570.63 Q1901.71 1566.3 1908.55 1566.3 Q1917.6 1566.3 1923.82 1572.57 Q1930.05 1578.84 1930.05 1588.69 Q1930.05 1598.07 1924.58 1604.91 Q1917.93 1613.3 1906.42 1613.3 Q1896.99 1613.3 1891.01 1608.02 Q1885.07 1602.74 1884.22 1594.02 Z" fill="#000000" fill-rule="nonzero" fill-opacity="1" /><path clip-path="url(#clip140)" d="M2253.71 1603.97 L2253.71 1612.12 L2208.02 1612.12 Q2207.93 1609.06 2209.01 1606.23 Q2210.75 1601.56 2214.57 1597.04 Q2218.44 1592.51 2225.7 1586.57 Q2236.97 1577.33 2240.93 1571.95 Q2244.89 1566.53 2244.89 1561.72 Q2244.89 1556.68 2241.26 1553.24 Q2237.68 1549.75 2231.88 1549.75 Q2225.75 1549.75 2222.07 1553.42 Q2218.39 1557.1 2218.35 1563.61 L2209.62 1562.71 Q2210.52 1552.95 2216.37 1547.86 Q2222.21 1542.72 2232.07 1542.72 Q2242.01 1542.72 2247.81 1548.24 Q2253.61 1553.75 2253.61 1561.91 Q2253.61 1566.06 2251.92 1570.07 Q2250.22 1574.07 2246.26 1578.51 Q2242.34 1582.94 2233.2 1590.67 Q2225.56 1597.08 2223.39 1599.39 Q2221.22 1601.66 2219.81 1603.97 L2253.71 1603.97 Z" fill="#000000" fill-rule="nonzero" fill-opacity="1" /><path clip-path="url(#clip140)" d="M2267.57 1612.12 L2267.57 1602.46 L2277.23 1602.46 L2277.23 1612.12 L2267.57 1612.12 Z" fill="#000000" fill-rule="nonzero" fill-opacity="1" /><path clip-path="url(#clip140)" d="M2289.63 1578.04 Q2289.63 1565.78 2292.13 1558.33 Q2294.68 1550.83 2299.63 1546.78 Q2304.63 1542.72 2312.17 1542.72 Q2317.73 1542.72 2321.93 1544.98 Q2326.13 1547.2 2328.86 1551.44 Q2331.6 1555.64 2333.15 1561.72 Q2334.71 1567.76 2334.71 1578.04 Q2334.71 1590.2 2332.21 1597.7 Q2329.71 1605.15 2324.71 1609.25 Q2319.76 1613.3 2312.17 1613.3 Q2302.18 1613.3 2296.47 1606.14 Q2289.63 1597.51 2289.63 1578.04 M2298.36 1578.04 Q2298.36 1595.06 2302.32 1600.71 Q2306.32 1606.32 2312.17 1606.32 Q2318.02 1606.32 2321.98 1600.67 Q2325.99 1595.01 2325.99 1578.04 Q2325.99 1560.97 2321.98 1555.36 Q2318.02 1549.75 2312.08 1549.75 Q2306.23 1549.75 2302.74 1554.7 Q2298.36 1561.01 2298.36 1578.04 Z" fill="#000000" fill-rule="nonzero" fill-opacity="1" /><path clip-path="url(#clip140)" d="M2343.34 1578.04 Q2343.34 1565.78 2345.84 1558.33 Q2348.38 1550.83 2353.33 1546.78 Q2358.33 1542.72 2365.87 1542.72 Q2371.44 1542.72 2375.63 1544.98 Q2379.83 1547.2 2382.56 1551.44 Q2385.3 1555.64 2386.85 1561.72 Q2388.41 1567.76 2388.41 1578.04 Q2388.41 1590.2 2385.91 1597.7 Q2383.41 1605.15 2378.42 1609.25 Q2373.46 1613.3 2365.87 1613.3 Q2355.88 1613.3 2350.17 1606.14 Q2343.34 1597.51 2343.34 1578.04 M2352.06 1578.04 Q2352.06 1595.06 2356.02 1600.71 Q2360.03 1606.32 2365.87 1606.32 Q2371.72 1606.32 2375.68 1600.67 Q2379.69 1595.01 2379.69 1578.04 Q2379.69 1560.97 2375.68 1555.36 Q2371.72 1549.75 2365.78 1549.75 Q2359.93 1549.75 2356.44 1554.7 Q2352.06 1561.01 2352.06 1578.04 Z" fill="#000000" fill-rule="nonzero" fill-opacity="1" /><path clip-path="url(#clip140)" d="M1287.8 1721.38 L1297.67 1722.6 Q1295.33 1731.24 1289.02 1736.01 Q1282.71 1740.79 1272.9 1740.79 Q1260.54 1740.79 1253.27 1733.2 Q1246.06 1725.57 1246.06 1711.83 Q1246.06 1697.61 1253.38 1689.76 Q1260.7 1681.91 1272.37 1681.91 Q1283.66 1681.91 1290.82 1689.6 Q1297.99 1697.29 1297.99 1711.24 Q1297.99 1712.09 1297.93 1713.79 L1255.92 1713.79 Q1256.45 1723.07 1261.17 1728.01 Q1265.9 1732.94 1272.95 1732.94 Q1278.2 1732.94 1281.91 1730.18 Q1285.63 1727.42 1287.8 1721.38 M1256.45 1705.94 L1287.91 1705.94 Q1287.27 1698.83 1284.3 1695.28 Q1279.74 1689.76 1272.47 1689.76 Q1265.9 1689.76 1261.39 1694.16 Q1256.93 1698.57 1256.45 1705.94 Z" fill="#000000" fill-rule="nonzero" fill-opacity="1" /><path clip-path="url(#clip140)" d="M1309.65 1761.1 L1309.65 1683.18 L1318.35 1683.18 L1318.35 1690.5 Q1321.43 1686.21 1325.3 1684.09 Q1329.17 1681.91 1334.69 1681.91 Q1341.9 1681.91 1347.42 1685.62 Q1352.94 1689.34 1355.75 1696.13 Q1358.56 1702.86 1358.56 1710.93 Q1358.56 1719.57 1355.43 1726.52 Q1352.35 1733.42 1346.41 1737.13 Q1340.53 1740.79 1334 1740.79 Q1329.23 1740.79 1325.41 1738.77 Q1321.64 1736.76 1319.2 1733.68 L1319.2 1761.1 L1309.65 1761.1 M1318.3 1711.67 Q1318.3 1722.54 1322.7 1727.74 Q1327.11 1732.94 1333.36 1732.94 Q1339.73 1732.94 1344.24 1727.58 Q1348.8 1722.17 1348.8 1710.87 Q1348.8 1700.11 1344.34 1694.75 Q1339.94 1689.39 1333.79 1689.39 Q1327.69 1689.39 1322.97 1695.12 Q1318.3 1700.79 1318.3 1711.67 Z" fill="#000000" fill-rule="nonzero" fill-opacity="1" /><path clip-path="url(#clip140)" d="M1366.52 1711.35 Q1366.52 1695.7 1375.22 1688.17 Q1382.48 1681.91 1392.93 1681.91 Q1404.55 1681.91 1411.92 1689.55 Q1419.29 1697.13 1419.29 1710.55 Q1419.29 1721.43 1416 1727.69 Q1412.77 1733.89 1406.51 1737.34 Q1400.3 1740.79 1392.93 1740.79 Q1381.1 1740.79 1373.78 1733.2 Q1366.52 1725.62 1366.52 1711.35 M1376.33 1711.35 Q1376.33 1722.17 1381.05 1727.58 Q1385.77 1732.94 1392.93 1732.94 Q1400.04 1732.94 1404.76 1727.53 Q1409.48 1722.12 1409.48 1711.03 Q1409.48 1700.58 1404.71 1695.23 Q1399.99 1689.82 1392.93 1689.82 Q1385.77 1689.82 1381.05 1695.17 Q1376.33 1700.53 1376.33 1711.35 Z" fill="#000000" fill-rule="nonzero" fill-opacity="1" /><path clip-path="url(#clip140)" d="M1467.24 1718.88 L1476.63 1720.1 Q1475.09 1729.81 1468.73 1735.33 Q1462.42 1740.79 1453.19 1740.79 Q1441.62 1740.79 1434.57 1733.26 Q1427.57 1725.67 1427.57 1711.56 Q1427.57 1702.44 1430.59 1695.6 Q1433.61 1688.75 1439.77 1685.36 Q1445.97 1681.91 1453.24 1681.91 Q1462.42 1681.91 1468.25 1686.58 Q1474.09 1691.19 1475.73 1699.73 L1466.45 1701.17 Q1465.12 1695.49 1461.73 1692.63 Q1458.39 1689.76 1453.61 1689.76 Q1446.4 1689.76 1441.89 1694.96 Q1437.38 1700.11 1437.38 1711.3 Q1437.38 1722.65 1441.73 1727.79 Q1446.08 1732.94 1453.08 1732.94 Q1458.7 1732.94 1462.47 1729.49 Q1466.24 1726.04 1467.24 1718.88 Z" fill="#000000" fill-rule="nonzero" fill-opacity="1" /><path clip-path="url(#clip140)" d="M1484.8 1739.52 L1484.8 1661.76 L1494.35 1661.76 L1494.35 1689.66 Q1501.03 1681.91 1511.22 1681.91 Q1517.47 1681.91 1522.09 1684.4 Q1526.7 1686.84 1528.67 1691.19 Q1530.68 1695.54 1530.68 1703.82 L1530.68 1739.52 L1521.13 1739.52 L1521.13 1703.82 Q1521.13 1696.66 1518.01 1693.42 Q1514.93 1690.13 1509.25 1690.13 Q1505.01 1690.13 1501.24 1692.36 Q1497.53 1694.54 1495.94 1698.3 Q1494.35 1702.07 1494.35 1708.7 L1494.35 1739.52 L1484.8 1739.52 Z" fill="#000000" fill-rule="nonzero" fill-opacity="1" /><polyline clip-path="url(#clip140)" style="stroke:#000000; stroke-linecap:round; stroke-linejoin:round; stroke-width:4; stroke-opacity:1; fill:none" points="423.983,1506.52 423.983,47.2441 "/>
<polyline clip-path="url(#clip140)" style="stroke:#000000; stroke-linecap:round; stroke-linejoin:round; stroke-width:2; stroke-opacity:0.5; fill:none" points="2352.76,1506.52 2352.76,47.2441 "/>
<polyline clip-path="url(#clip140)" style="stroke:#000000; stroke-linecap:round; stroke-linejoin:round; stroke-width:4; stroke-opacity:1; fill:none" points="423.983,1414.67 442.881,1414.67 "/>
<polyline clip-path="url(#clip140)" style="stroke:#000000; stroke-linecap:round; stroke-linejoin:round; stroke-width:4; stroke-opacity:1; fill:none" points="423.983,1147.16 442.881,1147.16 "/>
<polyline clip-path="url(#clip140)" style="stroke:#000000; stroke-linecap:round; stroke-linejoin:round; stroke-width:4; stroke-opacity:1; fill:none" points="423.983,879.652 442.881,879.652 "/>
<polyline clip-path="url(#clip140)" style="stroke:#000000; stroke-linecap:round; stroke-linejoin:round; stroke-width:4; stroke-opacity:1; fill:none" points="423.983,612.142 442.881,612.142 "/>
<polyline clip-path="url(#clip140)" style="stroke:#000000; stroke-linecap:round; stroke-linejoin:round; stroke-width:4; stroke-opacity:1; fill:none" points="423.983,344.631 442.881,344.631 "/>
<polyline clip-path="url(#clip140)" style="stroke:#000000; stroke-linecap:round; stroke-linejoin:round; stroke-width:4; stroke-opacity:1; fill:none" points="423.983,77.121 442.881,77.121 "/>
<path clip-path="url(#clip140)" d="M154.22 1415.14 Q154.22 1402.89 156.719 1395.44 Q159.265 1387.94 164.216 1383.88 Q169.213 1379.83 176.757 1379.83 Q182.321 1379.83 186.517 1382.09 Q190.713 1384.31 193.448 1388.55 Q196.183 1392.75 197.738 1398.83 Q199.294 1404.87 199.294 1415.14 Q199.294 1427.31 196.795 1434.81 Q194.297 1442.25 189.299 1446.36 Q184.348 1450.41 176.757 1450.41 Q166.762 1450.41 161.057 1443.24 Q154.22 1434.62 154.22 1415.14 M162.943 1415.14 Q162.943 1432.16 166.903 1437.82 Q170.911 1443.43 176.757 1443.43 Q182.604 1443.43 186.564 1437.78 Q190.572 1432.12 190.572 1415.14 Q190.572 1398.08 186.564 1392.47 Q182.604 1386.85 176.663 1386.85 Q170.817 1386.85 167.327 1391.81 Q162.943 1398.12 162.943 1415.14 Z" fill="#000000" fill-rule="nonzero" fill-opacity="1" /><path clip-path="url(#clip140)" d="M212.685 1449.23 L212.685 1439.57 L222.35 1439.57 L222.35 1449.23 L212.685 1449.23 Z" fill="#000000" fill-rule="nonzero" fill-opacity="1" /><path clip-path="url(#clip140)" d="M234.75 1415.14 Q234.75 1402.89 237.249 1395.44 Q239.795 1387.94 244.746 1383.88 Q249.743 1379.83 257.287 1379.83 Q262.851 1379.83 267.047 1382.09 Q271.243 1384.31 273.978 1388.55 Q276.712 1392.75 278.268 1398.83 Q279.824 1404.87 279.824 1415.14 Q279.824 1427.31 277.325 1434.81 Q274.827 1442.25 269.829 1446.36 Q264.878 1450.41 257.287 1450.41 Q247.292 1450.41 241.587 1443.24 Q234.75 1434.62 234.75 1415.14 M243.473 1415.14 Q243.473 1432.16 247.433 1437.82 Q251.441 1443.43 257.287 1443.43 Q263.134 1443.43 267.094 1437.78 Q271.102 1432.12 271.102 1415.14 Q271.102 1398.08 267.094 1392.47 Q263.134 1386.85 257.193 1386.85 Q251.346 1386.85 247.857 1391.81 Q243.473 1398.12 243.473 1415.14 Z" fill="#000000" fill-rule="nonzero" fill-opacity="1" /><path clip-path="url(#clip140)" d="M288.453 1431.13 L297.364 1430.37 Q298.354 1436.88 301.937 1440.18 Q305.567 1443.43 310.66 1443.43 Q316.789 1443.43 321.032 1438.81 Q325.276 1434.19 325.276 1426.55 Q325.276 1419.29 321.174 1415.1 Q317.119 1410.9 310.518 1410.9 Q306.416 1410.9 303.116 1412.79 Q299.815 1414.63 297.929 1417.6 L289.961 1416.56 L296.656 1381.06 L331.028 1381.06 L331.028 1389.17 L303.446 1389.17 L299.721 1407.74 Q305.945 1403.4 312.781 1403.4 Q321.834 1403.4 328.057 1409.67 Q334.281 1415.95 334.281 1425.8 Q334.281 1435.18 328.812 1442.02 Q322.164 1450.41 310.66 1450.41 Q301.23 1450.41 295.242 1445.13 Q289.301 1439.85 288.453 1431.13 Z" fill="#000000" fill-rule="nonzero" fill-opacity="1" /><path clip-path="url(#clip140)" d="M342.155 1431.13 L351.066 1430.37 Q352.056 1436.88 355.639 1440.18 Q359.27 1443.43 364.362 1443.43 Q370.491 1443.43 374.735 1438.81 Q378.978 1434.19 378.978 1426.55 Q378.978 1419.29 374.876 1415.1 Q370.821 1410.9 364.22 1410.9 Q360.119 1410.9 356.818 1412.79 Q353.518 1414.63 351.632 1417.6 L343.664 1416.56 L350.359 1381.06 L384.73 1381.06 L384.73 1389.17 L357.148 1389.17 L353.423 1407.74 Q359.647 1403.4 366.484 1403.4 Q375.536 1403.4 381.76 1409.67 Q387.983 1415.95 387.983 1425.8 Q387.983 1435.18 382.514 1442.02 Q375.866 1450.41 364.362 1450.41 Q354.932 1450.41 348.944 1445.13 Q343.004 1439.85 342.155 1431.13 Z" fill="#000000" fill-rule="nonzero" fill-opacity="1" /><path clip-path="url(#clip140)" d="M154.975 1147.63 Q154.975 1135.38 157.473 1127.93 Q160.019 1120.43 164.97 1116.37 Q169.968 1112.32 177.512 1112.32 Q183.075 1112.32 187.271 1114.58 Q191.468 1116.8 194.202 1121.04 Q196.937 1125.24 198.493 1131.32 Q200.049 1137.36 200.049 1147.63 Q200.049 1159.8 197.55 1167.29 Q195.051 1174.74 190.053 1178.85 Q185.103 1182.9 177.512 1182.9 Q167.516 1182.9 161.811 1175.73 Q154.975 1167.11 154.975 1147.63 M163.697 1147.63 Q163.697 1164.65 167.658 1170.31 Q171.665 1175.92 177.512 1175.92 Q183.358 1175.92 187.319 1170.27 Q191.326 1164.61 191.326 1147.63 Q191.326 1130.57 187.319 1124.96 Q183.358 1119.34 177.417 1119.34 Q171.571 1119.34 168.082 1124.3 Q163.697 1130.61 163.697 1147.63 Z" fill="#000000" fill-rule="nonzero" fill-opacity="1" /><path clip-path="url(#clip140)" d="M213.439 1181.72 L213.439 1172.06 L223.104 1172.06 L223.104 1181.72 L213.439 1181.72 Z" fill="#000000" fill-rule="nonzero" fill-opacity="1" /><path clip-path="url(#clip140)" d="M235.505 1147.63 Q235.505 1135.38 238.003 1127.93 Q240.549 1120.43 245.5 1116.37 Q250.498 1112.32 258.042 1112.32 Q263.605 1112.32 267.801 1114.58 Q271.998 1116.8 274.732 1121.04 Q277.467 1125.24 279.023 1131.32 Q280.579 1137.36 280.579 1147.63 Q280.579 1159.8 278.08 1167.29 Q275.581 1174.74 270.583 1178.85 Q265.633 1182.9 258.042 1182.9 Q248.046 1182.9 242.341 1175.73 Q235.505 1167.11 235.505 1147.63 M244.227 1147.63 Q244.227 1164.65 248.188 1170.31 Q252.195 1175.92 258.042 1175.92 Q263.888 1175.92 267.849 1170.27 Q271.856 1164.61 271.856 1147.63 Q271.856 1130.57 267.849 1124.96 Q263.888 1119.34 257.947 1119.34 Q252.101 1119.34 248.612 1124.3 Q244.227 1130.61 244.227 1147.63 Z" fill="#000000" fill-rule="nonzero" fill-opacity="1" /><path clip-path="url(#clip140)" d="M333.244 1129.53 L324.804 1130.19 Q323.673 1125.19 321.598 1122.93 Q318.156 1119.3 313.111 1119.3 Q309.057 1119.3 305.992 1121.56 Q301.984 1124.48 299.674 1130.09 Q297.364 1135.71 297.269 1146.08 Q300.334 1141.41 304.766 1139.15 Q309.198 1136.88 314.054 1136.88 Q322.541 1136.88 328.482 1143.15 Q334.47 1149.38 334.47 1159.28 Q334.47 1165.79 331.641 1171.4 Q328.859 1176.96 323.955 1179.93 Q319.052 1182.9 312.828 1182.9 Q302.22 1182.9 295.525 1175.12 Q288.83 1167.29 288.83 1149.38 Q288.83 1129.34 296.232 1120.24 Q302.691 1112.32 313.63 1112.32 Q321.787 1112.32 326.973 1116.89 Q332.207 1121.47 333.244 1129.53 M298.589 1159.33 Q298.589 1163.71 300.428 1167.72 Q302.314 1171.73 305.662 1173.85 Q309.009 1175.92 312.687 1175.92 Q318.062 1175.92 321.928 1171.59 Q325.794 1167.25 325.794 1159.8 Q325.794 1152.63 321.975 1148.53 Q318.156 1144.38 312.357 1144.38 Q306.605 1144.38 302.597 1148.53 Q298.589 1152.63 298.589 1159.33 Z" fill="#000000" fill-rule="nonzero" fill-opacity="1" /><path clip-path="url(#clip140)" d="M342.909 1147.63 Q342.909 1135.38 345.408 1127.93 Q347.954 1120.43 352.905 1116.37 Q357.903 1112.32 365.446 1112.32 Q371.01 1112.32 375.206 1114.58 Q379.402 1116.8 382.137 1121.04 Q384.872 1125.24 386.428 1131.32 Q387.983 1137.36 387.983 1147.63 Q387.983 1159.8 385.485 1167.29 Q382.986 1174.74 377.988 1178.85 Q373.037 1182.9 365.446 1182.9 Q355.451 1182.9 349.746 1175.73 Q342.909 1167.11 342.909 1147.63 M351.632 1147.63 Q351.632 1164.65 355.592 1170.31 Q359.6 1175.92 365.446 1175.92 Q371.293 1175.92 375.253 1170.27 Q379.261 1164.61 379.261 1147.63 Q379.261 1130.57 375.253 1124.96 Q371.293 1119.34 365.352 1119.34 Q359.506 1119.34 356.017 1124.3 Q351.632 1130.61 351.632 1147.63 Z" fill="#000000" fill-rule="nonzero" fill-opacity="1" /><path clip-path="url(#clip140)" d="M154.22 880.123 Q154.22 867.865 156.719 860.415 Q159.265 852.919 164.216 848.864 Q169.213 844.809 176.757 844.809 Q182.321 844.809 186.517 847.072 Q190.713 849.288 193.448 853.532 Q196.183 857.728 197.738 863.81 Q199.294 869.845 199.294 880.123 Q199.294 892.288 196.795 899.784 Q194.297 907.234 189.299 911.336 Q184.348 915.391 176.757 915.391 Q166.762 915.391 161.057 908.224 Q154.22 899.596 154.22 880.123 M162.943 880.123 Q162.943 897.144 166.903 902.802 Q170.911 908.413 176.757 908.413 Q182.604 908.413 186.564 902.755 Q190.572 897.097 190.572 880.123 Q190.572 863.056 186.564 857.445 Q182.604 851.834 176.663 851.834 Q170.817 851.834 167.327 856.785 Q162.943 863.103 162.943 880.123 Z" fill="#000000" fill-rule="nonzero" fill-opacity="1" /><path clip-path="url(#clip140)" d="M212.685 914.212 L212.685 904.546 L222.35 904.546 L222.35 914.212 L212.685 914.212 Z" fill="#000000" fill-rule="nonzero" fill-opacity="1" /><path clip-path="url(#clip140)" d="M234.75 880.123 Q234.75 867.865 237.249 860.415 Q239.795 852.919 244.746 848.864 Q249.743 844.809 257.287 844.809 Q262.851 844.809 267.047 847.072 Q271.243 849.288 273.978 853.532 Q276.712 857.728 278.268 863.81 Q279.824 869.845 279.824 880.123 Q279.824 892.288 277.325 899.784 Q274.827 907.234 269.829 911.336 Q264.878 915.391 257.287 915.391 Q247.292 915.391 241.587 908.224 Q234.75 899.596 234.75 880.123 M243.473 880.123 Q243.473 897.144 247.433 902.802 Q251.441 908.413 257.287 908.413 Q263.134 908.413 267.094 902.755 Q271.102 897.097 271.102 880.123 Q271.102 863.056 267.094 857.445 Q263.134 851.834 257.193 851.834 Q251.346 851.834 247.857 856.785 Q243.473 863.103 243.473 880.123 Z" fill="#000000" fill-rule="nonzero" fill-opacity="1" /><path clip-path="url(#clip140)" d="M332.489 862.018 L324.05 862.678 Q322.918 857.681 320.844 855.417 Q317.402 851.787 312.357 851.787 Q308.302 851.787 305.237 854.05 Q301.23 856.973 298.92 862.584 Q296.609 868.195 296.515 878.567 Q299.58 873.9 304.012 871.637 Q308.444 869.373 313.3 869.373 Q321.787 869.373 327.727 875.644 Q333.715 881.868 333.715 891.769 Q333.715 898.276 330.886 903.886 Q328.105 909.45 323.201 912.42 Q318.298 915.391 312.074 915.391 Q301.466 915.391 294.77 907.611 Q288.075 899.784 288.075 881.868 Q288.075 861.83 295.478 852.73 Q301.937 844.809 312.876 844.809 Q321.032 844.809 326.219 849.382 Q331.452 853.956 332.489 862.018 M297.835 891.816 Q297.835 896.201 299.674 900.209 Q301.56 904.216 304.907 906.338 Q308.255 908.413 311.933 908.413 Q317.308 908.413 321.174 904.075 Q325.04 899.737 325.04 892.288 Q325.04 885.121 321.221 881.019 Q317.402 876.87 311.603 876.87 Q305.85 876.87 301.843 881.019 Q297.835 885.121 297.835 891.816 Z" fill="#000000" fill-rule="nonzero" fill-opacity="1" /><path clip-path="url(#clip140)" d="M342.155 896.107 L351.066 895.352 Q352.056 901.859 355.639 905.159 Q359.27 908.413 364.362 908.413 Q370.491 908.413 374.735 903.792 Q378.978 899.171 378.978 891.533 Q378.978 884.272 374.876 880.076 Q370.821 875.88 364.22 875.88 Q360.119 875.88 356.818 877.766 Q353.518 879.605 351.632 882.575 L343.664 881.538 L350.359 846.035 L384.73 846.035 L384.73 854.144 L357.148 854.144 L353.423 872.721 Q359.647 868.383 366.484 868.383 Q375.536 868.383 381.76 874.654 Q387.983 880.925 387.983 890.779 Q387.983 900.162 382.514 906.998 Q375.866 915.391 364.362 915.391 Q354.932 915.391 348.944 910.11 Q343.004 904.829 342.155 896.107 Z" fill="#000000" fill-rule="nonzero" fill-opacity="1" /><path clip-path="url(#clip140)" d="M154.975 612.613 Q154.975 600.354 157.473 592.905 Q160.019 585.408 164.97 581.354 Q169.968 577.299 177.512 577.299 Q183.075 577.299 187.271 579.562 Q191.468 581.778 194.202 586.021 Q196.937 590.217 198.493 596.3 Q200.049 602.335 200.049 612.613 Q200.049 624.777 197.55 632.274 Q195.051 639.724 190.053 643.826 Q185.103 647.88 177.512 647.88 Q167.516 647.88 161.811 640.714 Q154.975 632.086 154.975 612.613 M163.697 612.613 Q163.697 629.634 167.658 635.292 Q171.665 640.902 177.512 640.902 Q183.358 640.902 187.319 635.244 Q191.326 629.587 191.326 612.613 Q191.326 595.545 187.319 589.935 Q183.358 584.324 177.417 584.324 Q171.571 584.324 168.082 589.274 Q163.697 595.592 163.697 612.613 Z" fill="#000000" fill-rule="nonzero" fill-opacity="1" /><path clip-path="url(#clip140)" d="M213.439 646.702 L213.439 637.036 L223.104 637.036 L223.104 646.702 L213.439 646.702 Z" fill="#000000" fill-rule="nonzero" fill-opacity="1" /><path clip-path="url(#clip140)" d="M235.505 612.613 Q235.505 600.354 238.003 592.905 Q240.549 585.408 245.5 581.354 Q250.498 577.299 258.042 577.299 Q263.605 577.299 267.801 579.562 Q271.998 581.778 274.732 586.021 Q277.467 590.217 279.023 596.3 Q280.579 602.335 280.579 612.613 Q280.579 624.777 278.08 632.274 Q275.581 639.724 270.583 643.826 Q265.633 647.88 258.042 647.88 Q248.046 647.88 242.341 640.714 Q235.505 632.086 235.505 612.613 M244.227 612.613 Q244.227 629.634 248.188 635.292 Q252.195 640.902 258.042 640.902 Q263.888 640.902 267.849 635.244 Q271.856 629.587 271.856 612.613 Q271.856 595.545 267.849 589.935 Q263.888 584.324 257.947 584.324 Q252.101 584.324 248.612 589.274 Q244.227 595.592 244.227 612.613 Z" fill="#000000" fill-rule="nonzero" fill-opacity="1" /><path clip-path="url(#clip140)" d="M289.773 586.634 L289.773 578.477 L334.517 578.477 L334.517 585.078 Q327.916 592.103 321.409 603.749 Q314.95 615.395 311.414 627.701 Q308.868 636.376 308.161 646.702 L299.438 646.702 Q299.58 638.545 302.644 626.993 Q305.709 615.442 311.414 604.739 Q317.166 593.989 323.625 586.634 L289.773 586.634 Z" fill="#000000" fill-rule="nonzero" fill-opacity="1" /><path clip-path="url(#clip140)" d="M342.909 612.613 Q342.909 600.354 345.408 592.905 Q347.954 585.408 352.905 581.354 Q357.903 577.299 365.446 577.299 Q371.01 577.299 375.206 579.562 Q379.402 581.778 382.137 586.021 Q384.872 590.217 386.428 596.3 Q387.983 602.335 387.983 612.613 Q387.983 624.777 385.485 632.274 Q382.986 639.724 377.988 643.826 Q373.037 647.88 365.446 647.88 Q355.451 647.88 349.746 640.714 Q342.909 632.086 342.909 612.613 M351.632 612.613 Q351.632 629.634 355.592 635.292 Q359.6 640.902 365.446 640.902 Q371.293 640.902 375.253 635.244 Q379.261 629.587 379.261 612.613 Q379.261 595.545 375.253 589.935 Q371.293 584.324 365.352 584.324 Q359.506 584.324 356.017 589.274 Q351.632 595.592 351.632 612.613 Z" fill="#000000" fill-rule="nonzero" fill-opacity="1" /><path clip-path="url(#clip140)" d="M154.22 345.103 Q154.22 332.844 156.719 325.395 Q159.265 317.898 164.216 313.843 Q169.213 309.788 176.757 309.788 Q182.321 309.788 186.517 312.052 Q190.713 314.268 193.448 318.511 Q196.183 322.707 197.738 328.789 Q199.294 334.824 199.294 345.103 Q199.294 357.267 196.795 364.764 Q194.297 372.213 189.299 376.315 Q184.348 380.37 176.757 380.37 Q166.762 380.37 161.057 373.203 Q154.22 364.575 154.22 345.103 M162.943 345.103 Q162.943 362.123 166.903 367.781 Q170.911 373.392 176.757 373.392 Q182.604 373.392 186.564 367.734 Q190.572 362.076 190.572 345.103 Q190.572 328.035 186.564 322.424 Q182.604 316.814 176.663 316.814 Q170.817 316.814 167.327 321.764 Q162.943 328.082 162.943 345.103 Z" fill="#000000" fill-rule="nonzero" fill-opacity="1" /><path clip-path="url(#clip140)" d="M212.685 379.191 L212.685 369.526 L222.35 369.526 L222.35 379.191 L212.685 379.191 Z" fill="#000000" fill-rule="nonzero" fill-opacity="1" /><path clip-path="url(#clip140)" d="M234.75 345.103 Q234.75 332.844 237.249 325.395 Q239.795 317.898 244.746 313.843 Q249.743 309.788 257.287 309.788 Q262.851 309.788 267.047 312.052 Q271.243 314.268 273.978 318.511 Q276.712 322.707 278.268 328.789 Q279.824 334.824 279.824 345.103 Q279.824 357.267 277.325 364.764 Q274.827 372.213 269.829 376.315 Q264.878 380.37 257.287 380.37 Q247.292 380.37 241.587 373.203 Q234.75 364.575 234.75 345.103 M243.473 345.103 Q243.473 362.123 247.433 367.781 Q251.441 373.392 257.287 373.392 Q263.134 373.392 267.094 367.734 Q271.102 362.076 271.102 345.103 Q271.102 328.035 267.094 322.424 Q263.134 316.814 257.193 316.814 Q251.346 316.814 247.857 321.764 Q243.473 328.082 243.473 345.103 Z" fill="#000000" fill-rule="nonzero" fill-opacity="1" /><path clip-path="url(#clip140)" d="M289.018 319.124 L289.018 310.967 L333.762 310.967 L333.762 317.568 Q327.162 324.593 320.655 336.239 Q314.196 347.885 310.66 360.19 Q308.114 368.866 307.406 379.191 L298.684 379.191 Q298.825 371.035 301.89 359.483 Q304.955 347.932 310.66 337.229 Q316.412 326.479 322.871 319.124 L289.018 319.124 Z" fill="#000000" fill-rule="nonzero" fill-opacity="1" /><path clip-path="url(#clip140)" d="M342.155 361.086 L351.066 360.332 Q352.056 366.838 355.639 370.139 Q359.27 373.392 364.362 373.392 Q370.491 373.392 374.735 368.771 Q378.978 364.151 378.978 356.513 Q378.978 349.252 374.876 345.056 Q370.821 340.859 364.22 340.859 Q360.119 340.859 356.818 342.745 Q353.518 344.584 351.632 347.555 L343.664 346.517 L350.359 311.014 L384.73 311.014 L384.73 319.124 L357.148 319.124 L353.423 337.7 Q359.647 333.363 366.484 333.363 Q375.536 333.363 381.76 339.634 Q387.983 345.904 387.983 355.758 Q387.983 365.141 382.514 371.978 Q375.866 380.37 364.362 380.37 Q354.932 380.37 348.944 375.089 Q343.004 369.809 342.155 361.086 Z" fill="#000000" fill-rule="nonzero" fill-opacity="1" /><path clip-path="url(#clip140)" d="M154.975 77.5925 Q154.975 65.3338 157.473 57.8843 Q160.019 50.3877 164.97 46.3329 Q169.968 42.2781 177.512 42.2781 Q183.075 42.2781 187.271 44.5413 Q191.468 46.7573 194.202 51.0006 Q196.937 55.1969 198.493 61.2791 Q200.049 67.3141 200.049 77.5925 Q200.049 89.7569 197.55 97.2535 Q195.051 104.703 190.053 108.805 Q185.103 112.86 177.512 112.86 Q167.516 112.86 161.811 105.693 Q154.975 97.0649 154.975 77.5925 M163.697 77.5925 Q163.697 94.6132 167.658 100.271 Q171.665 105.882 177.512 105.882 Q183.358 105.882 187.319 100.224 Q191.326 94.566 191.326 77.5925 Q191.326 60.5247 187.319 54.914 Q183.358 49.3033 177.417 49.3033 Q171.571 49.3033 168.082 54.2539 Q163.697 60.5718 163.697 77.5925 Z" fill="#000000" fill-rule="nonzero" fill-opacity="1" /><path clip-path="url(#clip140)" d="M213.439 111.681 L213.439 102.016 L223.104 102.016 L223.104 111.681 L213.439 111.681 Z" fill="#000000" fill-rule="nonzero" fill-opacity="1" /><path clip-path="url(#clip140)" d="M235.505 77.5925 Q235.505 65.3338 238.003 57.8843 Q240.549 50.3877 245.5 46.3329 Q250.498 42.2781 258.042 42.2781 Q263.605 42.2781 267.801 44.5413 Q271.998 46.7573 274.732 51.0006 Q277.467 55.1969 279.023 61.2791 Q280.579 67.3141 280.579 77.5925 Q280.579 89.7569 278.08 97.2535 Q275.581 104.703 270.583 108.805 Q265.633 112.86 258.042 112.86 Q248.046 112.86 242.341 105.693 Q235.505 97.0649 235.505 77.5925 M244.227 77.5925 Q244.227 94.6132 248.188 100.271 Q252.195 105.882 258.042 105.882 Q263.888 105.882 267.849 100.224 Q271.856 94.566 271.856 77.5925 Q271.856 60.5247 267.849 54.914 Q263.888 49.3033 257.947 49.3033 Q252.101 49.3033 248.612 54.2539 Q244.227 60.5718 244.227 77.5925 Z" fill="#000000" fill-rule="nonzero" fill-opacity="1" /><path clip-path="url(#clip140)" d="M302.267 74.1978 Q296.986 72.2647 294.44 68.6814 Q291.894 65.0981 291.894 60.1003 Q291.894 52.5565 297.316 47.4173 Q302.739 42.2781 311.744 42.2781 Q320.797 42.2781 326.313 47.5588 Q331.829 52.7923 331.829 60.3361 Q331.829 65.1452 329.283 68.7285 Q326.784 72.2647 321.645 74.1978 Q328.01 76.2723 331.311 80.8929 Q334.658 85.5135 334.658 91.9257 Q334.658 100.79 328.387 106.825 Q322.117 112.86 311.885 112.86 Q301.654 112.86 295.383 106.825 Q289.113 100.743 289.113 91.69 Q289.113 84.9477 292.507 80.4214 Q295.949 75.848 302.267 74.1978 M300.57 59.8174 Q300.57 64.7209 303.729 67.8327 Q306.888 70.9445 311.933 70.9445 Q316.836 70.9445 319.948 67.8799 Q323.107 64.7681 323.107 60.2889 Q323.107 55.6212 319.854 52.4622 Q316.647 49.2561 311.838 49.2561 Q306.982 49.2561 303.776 52.3679 Q300.57 55.4798 300.57 59.8174 M297.835 91.7371 Q297.835 95.3676 299.532 98.7623 Q301.277 102.157 304.672 104.043 Q308.066 105.882 311.98 105.882 Q318.062 105.882 322.022 101.968 Q325.983 98.055 325.983 92.02 Q325.983 85.8907 321.881 81.883 Q317.826 77.8754 311.697 77.8754 Q305.709 77.8754 301.748 81.8359 Q297.835 85.7964 297.835 91.7371 Z" fill="#000000" fill-rule="nonzero" fill-opacity="1" /><path clip-path="url(#clip140)" d="M342.909 77.5925 Q342.909 65.3338 345.408 57.8843 Q347.954 50.3877 352.905 46.3329 Q357.903 42.2781 365.446 42.2781 Q371.01 42.2781 375.206 44.5413 Q379.402 46.7573 382.137 51.0006 Q384.872 55.1969 386.428 61.2791 Q387.983 67.3141 387.983 77.5925 Q387.983 89.7569 385.485 97.2535 Q382.986 104.703 377.988 108.805 Q373.037 112.86 365.446 112.86 Q355.451 112.86 349.746 105.693 Q342.909 97.0649 342.909 77.5925 M351.632 77.5925 Q351.632 94.6132 355.592 100.271 Q359.6 105.882 365.446 105.882 Q371.293 105.882 375.253 100.224 Q379.261 94.566 379.261 77.5925 Q379.261 60.5247 375.253 54.914 Q371.293 49.3033 365.352 49.3033 Q359.506 49.3033 356.017 54.2539 Q351.632 60.5718 351.632 77.5925 Z" fill="#000000" fill-rule="nonzero" fill-opacity="1" /><path clip-path="url(#clip140)" d="M94.8922 867.905 L17.1322 867.905 L17.1322 858.357 L94.8922 858.357 L94.8922 867.905 Z" fill="#000000" fill-rule="nonzero" fill-opacity="1" /><path clip-path="url(#clip140)" d="M66.7267 847.112 Q51.0792 847.112 43.5472 838.413 Q37.2882 831.146 37.2882 820.697 Q37.2882 809.081 44.9263 801.708 Q52.5114 794.335 65.9311 794.335 Q76.8047 794.335 83.0637 797.623 Q89.2697 800.859 92.7174 807.118 Q96.1652 813.324 96.1652 820.697 Q96.1652 832.525 88.5801 839.845 Q80.9951 847.112 66.7267 847.112 M66.7267 837.299 Q77.5473 837.299 82.9576 832.578 Q88.3149 827.858 88.3149 820.697 Q88.3149 813.589 82.9046 808.868 Q77.4943 804.148 66.4084 804.148 Q55.9591 804.148 50.6018 808.921 Q45.1915 813.642 45.1915 820.697 Q45.1915 827.858 50.5488 832.578 Q55.9061 837.299 66.7267 837.299 Z" fill="#000000" fill-rule="nonzero" fill-opacity="1" /><path clip-path="url(#clip140)" d="M78.0778 786.962 L76.5926 777.52 Q82.2681 776.725 85.2915 773.118 Q88.3149 769.458 88.3149 762.934 Q88.3149 756.357 85.6628 753.174 Q82.9576 749.991 79.3508 749.991 Q76.1152 749.991 74.2587 752.803 Q72.9857 754.765 71.0231 762.563 Q68.371 773.065 66.4615 777.149 Q64.4989 781.18 61.1042 783.302 Q57.6565 785.371 53.5192 785.371 Q49.7532 785.371 46.5706 783.673 Q43.335 781.923 41.2134 778.953 Q39.569 776.725 38.4552 772.906 Q37.2882 769.034 37.2882 764.631 Q37.2882 758.001 39.1978 753.015 Q41.1073 747.976 44.3959 745.589 Q47.6315 743.202 53.0948 742.3 L54.3678 751.636 Q50.0184 752.272 47.5784 755.349 Q45.1385 758.372 45.1385 763.942 Q45.1385 770.519 47.3132 773.33 Q49.488 776.141 52.4053 776.141 Q54.2618 776.141 55.7469 774.974 Q57.2852 773.807 58.293 771.314 Q58.8234 769.882 60.7329 762.881 Q63.4381 752.75 65.1885 748.772 Q66.8858 744.74 70.1744 742.459 Q73.4631 740.179 78.343 740.179 Q83.1168 740.179 87.3602 742.99 Q91.5505 745.748 93.8844 750.999 Q96.1652 756.25 96.1652 762.881 Q96.1652 773.861 91.6035 779.642 Q87.0419 785.371 78.0778 786.962 Z" fill="#000000" fill-rule="nonzero" fill-opacity="1" /><path clip-path="url(#clip140)" d="M78.0778 732.647 L76.5926 723.205 Q82.2681 722.41 85.2915 718.803 Q88.3149 715.143 88.3149 708.619 Q88.3149 702.041 85.6628 698.859 Q82.9576 695.676 79.3508 695.676 Q76.1152 695.676 74.2587 698.487 Q72.9857 700.45 71.0231 708.247 Q68.371 718.75 66.4615 722.834 Q64.4989 726.865 61.1042 728.987 Q57.6565 731.055 53.5192 731.055 Q49.7532 731.055 46.5706 729.358 Q43.335 727.608 41.2134 724.637 Q39.569 722.41 38.4552 718.59 Q37.2882 714.718 37.2882 710.316 Q37.2882 703.686 39.1978 698.7 Q41.1073 693.661 44.3959 691.274 Q47.6315 688.887 53.0948 687.985 L54.3678 697.32 Q50.0184 697.957 47.5784 701.033 Q45.1385 704.057 45.1385 709.626 Q45.1385 716.204 47.3132 719.015 Q49.488 721.826 52.4053 721.826 Q54.2618 721.826 55.7469 720.659 Q57.2852 719.492 58.293 716.999 Q58.8234 715.567 60.7329 708.565 Q63.4381 698.434 65.1885 694.456 Q66.8858 690.425 70.1744 688.144 Q73.4631 685.863 78.343 685.863 Q83.1168 685.863 87.3602 688.675 Q91.5505 691.433 93.8844 696.684 Q96.1652 701.935 96.1652 708.565 Q96.1652 719.545 91.6035 725.327 Q87.0419 731.055 78.0778 732.647 Z" fill="#000000" fill-rule="nonzero" fill-opacity="1" /><circle clip-path="url(#clip142)" cx="478.571" cy="88.5445" r="14.4" fill="#4477aa" fill-rule="evenodd" fill-opacity="1" stroke="#000000" stroke-opacity="1" stroke-width="3.6"/>
<circle clip-path="url(#clip142)" cx="478.571" cy="1465.22" r="14.4" fill="#ee6677" fill-rule="evenodd" fill-opacity="1" stroke="#000000" stroke-opacity="1" stroke-width="3.6"/>
<path clip-path="url(#clip140)" d="M1636.77 445.807 L2288.46 445.807 L2288.46 95.8868 L1636.77 95.8868  Z" fill="#ffffff" fill-rule="evenodd" fill-opacity="1"/>
<polyline clip-path="url(#clip140)" style="stroke:#000000; stroke-linecap:round; stroke-linejoin:round; stroke-width:4; stroke-opacity:1; fill:none" points="1636.77,445.807 2288.46,445.807 2288.46,95.8868 1636.77,95.8868 1636.77,445.807 "/>
<polyline clip-path="url(#clip140)" style="stroke:#4477aa; stroke-linecap:round; stroke-linejoin:round; stroke-width:18; stroke-opacity:1; fill:none" points="1658.2,212.527 1786.79,212.527 "/>
<circle clip-path="url(#clip140)" cx="1722.49" cy="212.527" r="7.93734" fill="#4477aa" fill-rule="evenodd" fill-opacity="1" stroke="#000000" stroke-opacity="1" stroke-width="7.93734"/>
<path clip-path="url(#clip140)" d="M1834.31 242.867 L1835.69 251.301 Q1831.66 252.149 1828.48 252.149 Q1823.28 252.149 1820.42 250.505 Q1817.55 248.861 1816.39 246.209 Q1815.22 243.503 1815.22 234.911 L1815.22 202.502 L1808.22 202.502 L1808.22 195.076 L1815.22 195.076 L1815.22 181.126 L1824.71 175.397 L1824.71 195.076 L1834.31 195.076 L1834.31 202.502 L1824.71 202.502 L1824.71 235.441 Q1824.71 239.525 1825.19 240.692 Q1825.72 241.859 1826.83 242.549 Q1828 243.238 1830.12 243.238 Q1831.71 243.238 1834.31 242.867 Z" fill="#000000" fill-rule="nonzero" fill-opacity="1" /><path clip-path="url(#clip140)" d="M1843.54 251.407 L1843.54 195.076 L1852.14 195.076 L1852.14 203.616 Q1855.42 197.622 1858.18 195.712 Q1860.99 193.803 1864.34 193.803 Q1869.16 193.803 1874.15 196.879 L1870.86 205.737 Q1867.36 203.669 1863.86 203.669 Q1860.73 203.669 1858.24 205.578 Q1855.74 207.435 1854.68 210.776 Q1853.09 215.868 1853.09 221.915 L1853.09 251.407 L1843.54 251.407 Z" fill="#000000" fill-rule="nonzero" fill-opacity="1" /><path clip-path="url(#clip140)" d="M1916.58 244.458 Q1911.28 248.967 1906.35 250.823 Q1901.47 252.68 1895.84 252.68 Q1886.56 252.68 1881.57 248.171 Q1876.59 243.61 1876.59 236.555 Q1876.59 232.418 1878.44 229.023 Q1880.35 225.575 1883.38 223.507 Q1886.45 221.438 1890.27 220.377 Q1893.08 219.634 1898.76 218.945 Q1910.32 217.566 1915.79 215.656 Q1915.84 213.694 1915.84 213.163 Q1915.84 207.329 1913.13 204.942 Q1909.47 201.706 1902.26 201.706 Q1895.52 201.706 1892.29 204.093 Q1889.11 206.427 1887.57 212.421 L1878.23 211.148 Q1879.51 205.154 1882.42 201.494 Q1885.34 197.781 1890.86 195.818 Q1896.37 193.803 1903.64 193.803 Q1910.85 193.803 1915.36 195.5 Q1919.87 197.198 1921.99 199.797 Q1924.11 202.343 1924.96 206.268 Q1925.44 208.708 1925.44 215.073 L1925.44 227.803 Q1925.44 241.117 1926.02 244.67 Q1926.66 248.171 1928.46 251.407 L1918.49 251.407 Q1917.01 248.436 1916.58 244.458 M1915.79 223.135 Q1910.59 225.257 1900.19 226.742 Q1894.3 227.591 1891.86 228.652 Q1889.42 229.712 1888.1 231.781 Q1886.77 233.797 1886.77 236.29 Q1886.77 240.109 1889.64 242.655 Q1892.55 245.201 1898.12 245.201 Q1903.64 245.201 1907.94 242.814 Q1912.23 240.374 1914.25 236.184 Q1915.79 232.948 1915.79 226.636 L1915.79 223.135 Z" fill="#000000" fill-rule="nonzero" fill-opacity="1" /><path clip-path="url(#clip140)" d="M1940.29 184.627 L1940.29 173.647 L1949.84 173.647 L1949.84 184.627 L1940.29 184.627 M1940.29 251.407 L1940.29 195.076 L1949.84 195.076 L1949.84 251.407 L1940.29 251.407 Z" fill="#000000" fill-rule="nonzero" fill-opacity="1" /><path clip-path="url(#clip140)" d="M1964.37 251.407 L1964.37 195.076 L1972.97 195.076 L1972.97 203.085 Q1979.17 193.803 1990.89 193.803 Q1995.99 193.803 2000.23 195.659 Q2004.53 197.463 2006.65 200.433 Q2008.77 203.403 2009.62 207.488 Q2010.15 210.14 2010.15 216.77 L2010.15 251.407 L2000.6 251.407 L2000.6 217.141 Q2000.6 211.307 1999.49 208.442 Q1998.37 205.525 1995.51 203.828 Q1992.7 202.077 1988.88 202.077 Q1982.78 202.077 1978.32 205.95 Q1973.92 209.822 1973.92 220.642 L1973.92 251.407 L1964.37 251.407 Z" fill="#000000" fill-rule="nonzero" fill-opacity="1" /><path clip-path="url(#clip140)" d="M2015.98 272.995 L2015.98 266.099 L2079.26 266.099 L2079.26 272.995 L2015.98 272.995 Z" fill="#000000" fill-rule="nonzero" fill-opacity="1" /><path clip-path="url(#clip140)" d="M2084.99 251.407 L2084.99 173.647 L2094.54 173.647 L2094.54 251.407 L2084.99 251.407 Z" fill="#000000" fill-rule="nonzero" fill-opacity="1" /><path clip-path="url(#clip140)" d="M2105.78 223.241 Q2105.78 207.594 2114.48 200.062 Q2121.75 193.803 2132.2 193.803 Q2143.82 193.803 2151.19 201.441 Q2158.56 209.026 2158.56 222.446 Q2158.56 233.319 2155.27 239.578 Q2152.04 245.784 2145.78 249.232 Q2139.57 252.68 2132.2 252.68 Q2120.37 252.68 2113.05 245.095 Q2105.78 237.51 2105.78 223.241 M2115.6 223.241 Q2115.6 234.062 2120.32 239.472 Q2125.04 244.83 2132.2 244.83 Q2139.31 244.83 2144.03 239.419 Q2148.75 234.009 2148.75 222.923 Q2148.75 212.474 2143.97 207.116 Q2139.25 201.706 2132.2 201.706 Q2125.04 201.706 2120.32 207.063 Q2115.6 212.421 2115.6 223.241 Z" fill="#000000" fill-rule="nonzero" fill-opacity="1" /><path clip-path="url(#clip140)" d="M2165.93 234.592 L2175.38 233.107 Q2176.17 238.783 2179.78 241.806 Q2183.44 244.83 2189.96 244.83 Q2196.54 244.83 2199.72 242.177 Q2202.9 239.472 2202.9 235.865 Q2202.9 232.63 2200.09 230.773 Q2198.13 229.5 2190.33 227.538 Q2179.83 224.886 2175.75 222.976 Q2171.72 221.014 2169.59 217.619 Q2167.53 214.171 2167.53 210.034 Q2167.53 206.268 2169.22 203.085 Q2170.97 199.85 2173.94 197.728 Q2176.17 196.084 2179.99 194.97 Q2183.86 193.803 2188.26 193.803 Q2194.9 193.803 2199.88 195.712 Q2204.92 197.622 2207.31 200.91 Q2209.69 204.146 2210.6 209.609 L2201.26 210.882 Q2200.62 206.533 2197.55 204.093 Q2194.52 201.653 2188.95 201.653 Q2182.38 201.653 2179.57 203.828 Q2176.75 206.003 2176.75 208.92 Q2176.75 210.776 2177.92 212.262 Q2179.09 213.8 2181.58 214.808 Q2183.01 215.338 2190.02 217.248 Q2200.15 219.953 2204.12 221.703 Q2208.16 223.4 2210.44 226.689 Q2212.72 229.978 2212.72 234.858 Q2212.72 239.631 2209.91 243.875 Q2207.15 248.065 2201.9 250.399 Q2196.65 252.68 2190.02 252.68 Q2179.04 252.68 2173.25 248.118 Q2167.53 243.556 2165.93 234.592 Z" fill="#000000" fill-rule="nonzero" fill-opacity="1" /><path clip-path="url(#clip140)" d="M2220.25 234.592 L2229.69 233.107 Q2230.49 238.783 2234.09 241.806 Q2237.75 244.83 2244.28 244.83 Q2250.85 244.83 2254.04 242.177 Q2257.22 239.472 2257.22 235.865 Q2257.22 232.63 2254.41 230.773 Q2252.45 229.5 2244.65 227.538 Q2234.15 224.886 2230.06 222.976 Q2226.03 221.014 2223.91 217.619 Q2221.84 214.171 2221.84 210.034 Q2221.84 206.268 2223.54 203.085 Q2225.29 199.85 2228.26 197.728 Q2230.49 196.084 2234.31 194.97 Q2238.18 193.803 2242.58 193.803 Q2249.21 193.803 2254.2 195.712 Q2259.24 197.622 2261.62 200.91 Q2264.01 204.146 2264.91 209.609 L2255.58 210.882 Q2254.94 206.533 2251.86 204.093 Q2248.84 201.653 2243.27 201.653 Q2236.69 201.653 2233.88 203.828 Q2231.07 206.003 2231.07 208.92 Q2231.07 210.776 2232.24 212.262 Q2233.4 213.8 2235.9 214.808 Q2237.33 215.338 2244.33 217.248 Q2254.46 219.953 2258.44 221.703 Q2262.47 223.4 2264.75 226.689 Q2267.03 229.978 2267.03 234.858 Q2267.03 239.631 2264.22 243.875 Q2261.46 248.065 2256.21 250.399 Q2250.96 252.68 2244.33 252.68 Q2233.35 252.68 2227.57 248.118 Q2221.84 243.556 2220.25 234.592 Z" fill="#000000" fill-rule="nonzero" fill-opacity="1" /><polyline clip-path="url(#clip140)" style="stroke:#ee6677; stroke-linecap:round; stroke-linejoin:round; stroke-width:18; stroke-opacity:1; fill:none" points="1658.2,329.167 1786.79,329.167 "/>
<circle clip-path="url(#clip140)" cx="1722.49" cy="329.167" r="7.93734" fill="#ee6677" fill-rule="evenodd" fill-opacity="1" stroke="#000000" stroke-opacity="1" stroke-width="7.93734"/>
<path clip-path="url(#clip140)" d="M1829.65 368.047 L1808.22 311.716 L1818.29 311.716 L1830.39 345.451 Q1832.35 350.914 1834 356.802 Q1835.27 352.346 1837.55 346.087 L1850.07 311.716 L1859.88 311.716 L1838.56 368.047 L1829.65 368.047 Z" fill="#000000" fill-rule="nonzero" fill-opacity="1" /><path clip-path="url(#clip140)" d="M1905.07 361.098 Q1899.77 365.607 1894.83 367.463 Q1889.96 369.32 1884.33 369.32 Q1875.05 369.32 1870.06 364.811 Q1865.08 360.25 1865.08 353.195 Q1865.08 349.058 1866.93 345.663 Q1868.84 342.215 1871.87 340.147 Q1874.94 338.078 1878.76 337.017 Q1881.57 336.274 1887.25 335.585 Q1898.81 334.206 1904.28 332.296 Q1904.33 330.334 1904.33 329.803 Q1904.33 323.969 1901.62 321.582 Q1897.96 318.346 1890.75 318.346 Q1884.01 318.346 1880.78 320.733 Q1877.6 323.067 1876.06 329.061 L1866.72 327.788 Q1868 321.794 1870.91 318.134 Q1873.83 314.421 1879.35 312.458 Q1884.86 310.443 1892.13 310.443 Q1899.34 310.443 1903.85 312.14 Q1908.36 313.838 1910.48 316.437 Q1912.6 318.983 1913.45 322.908 Q1913.93 325.348 1913.93 331.713 L1913.93 344.443 Q1913.93 357.757 1914.51 361.31 Q1915.15 364.811 1916.95 368.047 L1906.98 368.047 Q1905.5 365.076 1905.07 361.098 M1904.28 339.775 Q1899.08 341.897 1888.68 343.382 Q1882.79 344.231 1880.35 345.292 Q1877.91 346.352 1876.59 348.421 Q1875.26 350.437 1875.26 352.93 Q1875.26 356.749 1878.13 359.295 Q1881.04 361.841 1886.61 361.841 Q1892.13 361.841 1896.43 359.454 Q1900.72 357.014 1902.74 352.824 Q1904.28 349.588 1904.28 343.276 L1904.28 339.775 Z" fill="#000000" fill-rule="nonzero" fill-opacity="1" /><path clip-path="url(#clip140)" d="M1928.52 368.047 L1928.52 290.287 L1938.06 290.287 L1938.06 368.047 L1928.52 368.047 Z" fill="#000000" fill-rule="nonzero" fill-opacity="1" /><path clip-path="url(#clip140)" d="M1944.06 389.635 L1944.06 382.739 L2007.34 382.739 L2007.34 389.635 L1944.06 389.635 Z" fill="#000000" fill-rule="nonzero" fill-opacity="1" /><path clip-path="url(#clip140)" d="M2013.07 368.047 L2013.07 290.287 L2022.61 290.287 L2022.61 368.047 L2013.07 368.047 Z" fill="#000000" fill-rule="nonzero" fill-opacity="1" /><path clip-path="url(#clip140)" d="M2033.86 339.881 Q2033.86 324.234 2042.56 316.702 Q2049.82 310.443 2060.27 310.443 Q2071.89 310.443 2079.26 318.081 Q2086.64 325.666 2086.64 339.086 Q2086.64 349.959 2083.35 356.218 Q2080.11 362.424 2073.85 365.872 Q2067.65 369.32 2060.27 369.32 Q2048.45 369.32 2041.13 361.735 Q2033.86 354.15 2033.86 339.881 M2043.67 339.881 Q2043.67 350.702 2048.39 356.112 Q2053.11 361.47 2060.27 361.47 Q2067.38 361.47 2072.1 356.059 Q2076.82 350.649 2076.82 339.563 Q2076.82 329.114 2072.05 323.756 Q2067.33 318.346 2060.27 318.346 Q2053.11 318.346 2048.39 323.703 Q2043.67 329.061 2043.67 339.881 Z" fill="#000000" fill-rule="nonzero" fill-opacity="1" /><path clip-path="url(#clip140)" d="M2094.01 351.232 L2103.45 349.747 Q2104.25 355.423 2107.85 358.446 Q2111.51 361.47 2118.04 361.47 Q2124.61 361.47 2127.8 358.817 Q2130.98 356.112 2130.98 352.505 Q2130.98 349.27 2128.17 347.413 Q2126.21 346.14 2118.41 344.178 Q2107.91 341.526 2103.82 339.616 Q2099.79 337.654 2097.67 334.259 Q2095.6 330.811 2095.6 326.674 Q2095.6 322.908 2097.3 319.725 Q2099.05 316.49 2102.02 314.368 Q2104.25 312.724 2108.06 311.61 Q2111.94 310.443 2116.34 310.443 Q2122.97 310.443 2127.96 312.352 Q2132.99 314.262 2135.38 317.55 Q2137.77 320.786 2138.67 326.249 L2129.33 327.522 Q2128.7 323.173 2125.62 320.733 Q2122.6 318.293 2117.03 318.293 Q2110.45 318.293 2107.64 320.468 Q2104.83 322.643 2104.83 325.56 Q2104.83 327.416 2106 328.902 Q2107.16 330.44 2109.66 331.448 Q2111.09 331.978 2118.09 333.888 Q2128.22 336.593 2132.2 338.343 Q2136.23 340.04 2138.51 343.329 Q2140.79 346.618 2140.79 351.498 Q2140.79 356.271 2137.98 360.515 Q2135.22 364.705 2129.97 367.039 Q2124.72 369.32 2118.09 369.32 Q2107.11 369.32 2101.33 364.758 Q2095.6 360.196 2094.01 351.232 Z" fill="#000000" fill-rule="nonzero" fill-opacity="1" /><path clip-path="url(#clip140)" d="M2148.32 351.232 L2157.77 349.747 Q2158.56 355.423 2162.17 358.446 Q2165.83 361.47 2172.35 361.47 Q2178.93 361.47 2182.11 358.817 Q2185.29 356.112 2185.29 352.505 Q2185.29 349.27 2182.48 347.413 Q2180.52 346.14 2172.72 344.178 Q2162.22 341.526 2158.14 339.616 Q2154.11 337.654 2151.98 334.259 Q2149.92 330.811 2149.92 326.674 Q2149.92 322.908 2151.61 319.725 Q2153.36 316.49 2156.33 314.368 Q2158.56 312.724 2162.38 311.61 Q2166.25 310.443 2170.65 310.443 Q2177.29 310.443 2182.27 312.352 Q2187.31 314.262 2189.7 317.55 Q2192.08 320.786 2192.99 326.249 L2183.65 327.522 Q2183.01 323.173 2179.94 320.733 Q2176.91 318.293 2171.34 318.293 Q2164.77 318.293 2161.96 320.468 Q2159.14 322.643 2159.14 325.56 Q2159.14 327.416 2160.31 328.902 Q2161.48 330.44 2163.97 331.448 Q2165.4 331.978 2172.41 333.888 Q2182.54 336.593 2186.51 338.343 Q2190.55 340.04 2192.83 343.329 Q2195.11 346.618 2195.11 351.498 Q2195.11 356.271 2192.3 360.515 Q2189.54 364.705 2184.29 367.039 Q2179.04 369.32 2172.41 369.32 Q2161.43 369.32 2155.64 364.758 Q2149.92 360.196 2148.32 351.232 Z" fill="#000000" fill-rule="nonzero" fill-opacity="1" /></svg>
