<?xml version="1.0" encoding="utf-8"?>
<svg xmlns="http://www.w3.org/2000/svg" xmlns:xlink="http://www.w3.org/1999/xlink" width="600" height="450" viewBox="0 0 2400 1800">
<defs>
  <clipPath id="clip290">
    <rect x="0" y="0" width="2400" height="1800"/>
  </clipPath>
</defs>
<path clip-path="url(#clip290)" d="M0 1800 L2400 1800 L2400 0 L0 0  Z" fill="#ffffff" fill-rule="evenodd" fill-opacity="1"/>
<defs>
  <clipPath id="clip291">
    <rect x="480" y="0" width="1681" height="1681"/>
  </clipPath>
</defs>
<path clip-path="url(#clip290)" d="M267.053 1609.75 L2352.76 1609.75 L2352.76 47.2441 L267.053 47.2441  Z" fill="#ffffff" fill-rule="evenodd" fill-opacity="1"/>
<defs>
  <clipPath id="clip292">
    <rect x="267" y="47" width="2087" height="1564"/>
  </clipPath>
</defs>
<polyline clip-path="url(#clip292)" style="stroke:#000000; stroke-linecap:round; stroke-linejoin:round; stroke-width:2; stroke-opacity:0.1; fill:none" points="531.991,1609.75 531.991,47.2441 "/>
<polyline clip-path="url(#clip292)" style="stroke:#000000; stroke-linecap:round; stroke-linejoin:round; stroke-width:2; stroke-opacity:0.1; fill:none" points="977.576,1609.75 977.576,47.2441 "/>
<polyline clip-path="url(#clip292)" style="stroke:#000000; stroke-linecap:round; stroke-linejoin:round; stroke-width:2; stroke-opacity:0.1; fill:none" points="1423.16,1609.75 1423.16,47.2441 "/>
<polyline clip-path="url(#clip292)" style="stroke:#000000; stroke-linecap:round; stroke-linejoin:round; stroke-width:2; stroke-opacity:0.1; fill:none" points="1868.74,1609.75 1868.74,47.2441 "/>
<polyline clip-path="url(#clip292)" style="stroke:#000000; stroke-linecap:round; stroke-linejoin:round; stroke-width:2; stroke-opacity:0.1; fill:none" points="2314.33,1609.75 2314.33,47.2441 "/>
<polyline clip-path="url(#clip292)" style="stroke:#000000; stroke-linecap:round; stroke-linejoin:round; stroke-width:2; stroke-opacity:0.1; fill:none" points="267.053,1584.56 2352.76,1584.56 "/>
<polyline clip-path="url(#clip292)" style="stroke:#000000; stroke-linecap:round; stroke-linejoin:round; stroke-width:2; stroke-opacity:0.1; fill:none" points="267.053,1204.29 2352.76,1204.29 "/>
<polyline clip-path="url(#clip292)" style="stroke:#000000; stroke-linecap:round; stroke-linejoin:round; stroke-width:2; stroke-opacity:0.1; fill:none" points="267.053,824.019 2352.76,824.019 "/>
<polyline clip-path="url(#clip292)" style="stroke:#000000; stroke-linecap:round; stroke-linejoin:round; stroke-width:2; stroke-opacity:0.1; fill:none" points="267.053,443.746 2352.76,443.746 "/>
<polyline clip-path="url(#clip292)" style="stroke:#000000; stroke-linecap:round; stroke-linejoin:round; stroke-width:2; stroke-opacity:0.1; fill:none" points="267.053,63.4732 2352.76,63.4732 "/>
<polyline clip-path="url(#clip290)" style="stroke:#000000; stroke-linecap:round; stroke-linejoin:round; stroke-width:4; stroke-opacity:1; fill:none" points="267.053,1609.75 2352.76,1609.75 "/>
<polyline clip-path="url(#clip290)" style="stroke:#000000; stroke-linecap:round; stroke-linejoin:round; stroke-width:2; stroke-opacity:0.5; fill:none" points="267.053,47.2441 2352.76,47.2441 "/>
<polyline clip-path="url(#clip290)" style="stroke:#000000; stroke-linecap:round; stroke-linejoin:round; stroke-width:4; stroke-opacity:1; fill:none" points="531.991,1609.75 531.991,1590.85 "/>
<polyline clip-path="url(#clip290)" style="stroke:#000000; stroke-linecap:round; stroke-linejoin:round; stroke-width:4; stroke-opacity:1; fill:none" points="977.576,1609.75 977.576,1590.85 "/>
<polyline clip-path="url(#clip290)" style="stroke:#000000; stroke-linecap:round; stroke-linejoin:round; stroke-width:4; stroke-opacity:1; fill:none" points="1423.16,1609.75 1423.16,1590.85 "/>
<polyline clip-path="url(#clip290)" style="stroke:#000000; stroke-linecap:round; stroke-linejoin:round; stroke-width:4; stroke-opacity:1; fill:none" points="1868.74,1609.75 1868.74,1590.85 "/>
<polyline clip-path="url(#clip290)" style="stroke:#000000; stroke-linecap:round; stroke-linejoin:round; stroke-width:4; stroke-opacity:1; fill:none" points="2314.33,1609.75 2314.33,1590.85 "/>
<path clip-path="url(#clip290)" d="M469.425 1681.26 Q469.425 1669 471.924 1661.56 Q474.47 1654.06 479.42 1650 Q484.418 1645.95 491.962 1645.95 Q497.526 1645.95 501.722 1648.21 Q505.918 1650.43 508.653 1654.67 Q511.387 1658.87 512.943 1664.95 Q514.499 1670.98 514.499 1681.26 Q514.499 1693.43 512 1700.92 Q509.501 1708.37 504.504 1712.48 Q499.553 1716.53 491.962 1716.53 Q481.966 1716.53 476.261 1709.36 Q469.425 1700.74 469.425 1681.26 M478.147 1681.26 Q478.147 1698.28 482.108 1703.94 Q486.116 1709.55 491.962 1709.55 Q497.808 1709.55 501.769 1703.89 Q505.777 1698.24 505.777 1681.26 Q505.777 1664.2 501.769 1658.58 Q497.808 1652.97 491.868 1652.97 Q486.021 1652.97 482.532 1657.92 Q478.147 1664.24 478.147 1681.26 Z" fill="#000000" fill-rule="nonzero" fill-opacity="1" /><path clip-path="url(#clip290)" d="M527.889 1715.35 L527.889 1705.69 L537.555 1705.69 L537.555 1715.35 L527.889 1715.35 Z" fill="#000000" fill-rule="nonzero" fill-opacity="1" /><path clip-path="url(#clip290)" d="M594.558 1707.2 L594.558 1715.35 L548.87 1715.35 Q548.776 1712.29 549.861 1709.46 Q551.605 1704.79 555.424 1700.26 Q559.29 1695.74 566.551 1689.8 Q577.82 1680.56 581.78 1675.18 Q585.741 1669.76 585.741 1664.95 Q585.741 1659.9 582.11 1656.46 Q578.527 1652.97 572.728 1652.97 Q566.598 1652.97 562.921 1656.65 Q559.243 1660.33 559.196 1666.84 L550.474 1665.94 Q551.369 1656.18 557.216 1651.09 Q563.062 1645.95 572.916 1645.95 Q582.865 1645.95 588.664 1651.47 Q594.463 1656.98 594.463 1665.14 Q594.463 1669.29 592.766 1673.3 Q591.069 1677.3 587.108 1681.73 Q583.195 1686.17 574.048 1693.9 Q566.41 1700.31 564.241 1702.62 Q562.072 1704.88 560.658 1707.2 L594.558 1707.2 Z" fill="#000000" fill-rule="nonzero" fill-opacity="1" /><path clip-path="url(#clip290)" d="M914.797 1681.26 Q914.797 1669 917.296 1661.56 Q919.842 1654.06 924.793 1650 Q929.791 1645.95 937.334 1645.95 Q942.898 1645.95 947.094 1648.21 Q951.29 1650.43 954.025 1654.67 Q956.76 1658.87 958.316 1664.95 Q959.871 1670.98 959.871 1681.26 Q959.871 1693.43 957.373 1700.92 Q954.874 1708.37 949.876 1712.48 Q944.925 1716.53 937.334 1716.53 Q927.339 1716.53 921.634 1709.36 Q914.797 1700.74 914.797 1681.26 M923.52 1681.26 Q923.52 1698.28 927.48 1703.94 Q931.488 1709.55 937.334 1709.55 Q943.181 1709.55 947.141 1703.89 Q951.149 1698.24 951.149 1681.26 Q951.149 1664.2 947.141 1658.58 Q943.181 1652.97 937.24 1652.97 Q931.394 1652.97 927.905 1657.92 Q923.52 1664.24 923.52 1681.26 Z" fill="#000000" fill-rule="nonzero" fill-opacity="1" /><path clip-path="url(#clip290)" d="M973.262 1715.35 L973.262 1705.69 L982.927 1705.69 L982.927 1715.35 L973.262 1715.35 Z" fill="#000000" fill-rule="nonzero" fill-opacity="1" /><path clip-path="url(#clip290)" d="M1022.53 1715.35 L1022.53 1698.8 L992.545 1698.8 L992.545 1691.02 L1024.09 1646.23 L1031.02 1646.23 L1031.02 1691.02 L1040.35 1691.02 L1040.35 1698.8 L1031.02 1698.8 L1031.02 1715.35 L1022.53 1715.35 M1022.53 1691.02 L1022.53 1659.86 L1000.89 1691.02 L1022.53 1691.02 Z" fill="#000000" fill-rule="nonzero" fill-opacity="1" /><path clip-path="url(#clip290)" d="M1360.26 1681.26 Q1360.26 1669 1362.76 1661.56 Q1365.31 1654.06 1370.26 1650 Q1375.26 1645.95 1382.8 1645.95 Q1388.36 1645.95 1392.56 1648.21 Q1396.76 1650.43 1399.49 1654.67 Q1402.23 1658.87 1403.78 1664.95 Q1405.34 1670.98 1405.34 1681.26 Q1405.34 1693.43 1402.84 1700.92 Q1400.34 1708.37 1395.34 1712.48 Q1390.39 1716.53 1382.8 1716.53 Q1372.81 1716.53 1367.1 1709.36 Q1360.26 1700.74 1360.26 1681.26 M1368.99 1681.26 Q1368.99 1698.28 1372.95 1703.94 Q1376.95 1709.55 1382.8 1709.55 Q1388.65 1709.55 1392.61 1703.89 Q1396.62 1698.24 1396.62 1681.26 Q1396.62 1664.2 1392.61 1658.58 Q1388.65 1652.97 1382.71 1652.97 Q1376.86 1652.97 1373.37 1657.92 Q1368.99 1664.24 1368.99 1681.26 Z" fill="#000000" fill-rule="nonzero" fill-opacity="1" /><path clip-path="url(#clip290)" d="M1418.73 1715.35 L1418.73 1705.69 L1428.39 1705.69 L1428.39 1715.35 L1418.73 1715.35 Z" fill="#000000" fill-rule="nonzero" fill-opacity="1" /><path clip-path="url(#clip290)" d="M1484.83 1663.16 L1476.39 1663.82 Q1475.26 1658.82 1473.19 1656.56 Q1469.74 1652.93 1464.7 1652.93 Q1460.64 1652.93 1457.58 1655.19 Q1453.57 1658.11 1451.26 1663.72 Q1448.95 1669.33 1448.86 1679.71 Q1451.92 1675.04 1456.35 1672.78 Q1460.78 1670.51 1465.64 1670.51 Q1474.13 1670.51 1480.07 1676.78 Q1486.06 1683.01 1486.06 1692.91 Q1486.06 1699.42 1483.23 1705.03 Q1480.45 1710.59 1475.54 1713.56 Q1470.64 1716.53 1464.42 1716.53 Q1453.81 1716.53 1447.11 1708.75 Q1440.42 1700.92 1440.42 1683.01 Q1440.42 1662.97 1447.82 1653.87 Q1454.28 1645.95 1465.22 1645.95 Q1473.37 1645.95 1478.56 1650.52 Q1483.79 1655.1 1484.83 1663.16 M1450.18 1692.96 Q1450.18 1697.34 1452.02 1701.35 Q1453.9 1705.36 1457.25 1707.48 Q1460.6 1709.55 1464.27 1709.55 Q1469.65 1709.55 1473.52 1705.21 Q1477.38 1700.88 1477.38 1693.43 Q1477.38 1686.26 1473.56 1682.16 Q1469.74 1678.01 1463.94 1678.01 Q1458.19 1678.01 1454.18 1682.16 Q1450.18 1686.26 1450.18 1692.96 Z" fill="#000000" fill-rule="nonzero" fill-opacity="1" /><path clip-path="url(#clip290)" d="M1805.75 1681.26 Q1805.75 1669 1808.25 1661.56 Q1810.8 1654.06 1815.75 1650 Q1820.75 1645.95 1828.29 1645.95 Q1833.85 1645.95 1838.05 1648.21 Q1842.25 1650.43 1844.98 1654.67 Q1847.72 1658.87 1849.27 1664.95 Q1850.83 1670.98 1850.83 1681.26 Q1850.83 1693.43 1848.33 1700.92 Q1845.83 1708.37 1840.83 1712.48 Q1835.88 1716.53 1828.29 1716.53 Q1818.3 1716.53 1812.59 1709.36 Q1805.75 1700.74 1805.75 1681.26 M1814.48 1681.26 Q1814.48 1698.28 1818.44 1703.94 Q1822.44 1709.55 1828.29 1709.55 Q1834.14 1709.55 1838.1 1703.89 Q1842.11 1698.24 1842.11 1681.26 Q1842.11 1664.2 1838.1 1658.58 Q1834.14 1652.97 1828.2 1652.97 Q1822.35 1652.97 1818.86 1657.92 Q1814.48 1664.24 1814.48 1681.26 Z" fill="#000000" fill-rule="nonzero" fill-opacity="1" /><path clip-path="url(#clip290)" d="M1864.22 1715.35 L1864.22 1705.69 L1873.88 1705.69 L1873.88 1715.35 L1864.22 1715.35 Z" fill="#000000" fill-rule="nonzero" fill-opacity="1" /><path clip-path="url(#clip290)" d="M1899.34 1677.87 Q1894.06 1675.94 1891.52 1672.35 Q1888.97 1668.77 1888.97 1663.77 Q1888.97 1656.23 1894.39 1651.09 Q1899.82 1645.95 1908.82 1645.95 Q1917.87 1645.95 1923.39 1651.23 Q1928.91 1656.46 1928.91 1664.01 Q1928.91 1668.82 1926.36 1672.4 Q1923.86 1675.94 1918.72 1677.87 Q1925.09 1679.94 1928.39 1684.56 Q1931.74 1689.18 1931.74 1695.6 Q1931.74 1704.46 1925.46 1710.5 Q1919.19 1716.53 1908.96 1716.53 Q1898.73 1716.53 1892.46 1710.5 Q1886.19 1704.41 1886.19 1695.36 Q1886.19 1688.62 1889.58 1684.09 Q1893.03 1679.52 1899.34 1677.87 M1897.65 1663.49 Q1897.65 1668.39 1900.81 1671.5 Q1903.96 1674.62 1909.01 1674.62 Q1913.91 1674.62 1917.03 1671.55 Q1920.18 1668.44 1920.18 1663.96 Q1920.18 1659.29 1916.93 1656.13 Q1913.72 1652.93 1908.92 1652.93 Q1904.06 1652.93 1900.85 1656.04 Q1897.65 1659.15 1897.65 1663.49 M1894.91 1695.41 Q1894.91 1699.04 1896.61 1702.43 Q1898.35 1705.83 1901.75 1707.71 Q1905.14 1709.55 1909.06 1709.55 Q1915.14 1709.55 1919.1 1705.64 Q1923.06 1701.73 1923.06 1695.69 Q1923.06 1689.56 1918.96 1685.55 Q1914.9 1681.55 1908.77 1681.55 Q1902.79 1681.55 1898.83 1685.51 Q1894.91 1689.47 1894.91 1695.41 Z" fill="#000000" fill-rule="nonzero" fill-opacity="1" /><path clip-path="url(#clip290)" d="M2280.24 1715.35 L2271.75 1715.35 L2271.75 1661.27 Q2268.69 1664.2 2263.69 1667.12 Q2258.74 1670.04 2254.78 1671.5 L2254.78 1663.3 Q2261.9 1659.95 2267.23 1655.19 Q2272.56 1650.43 2274.77 1645.95 L2280.24 1645.95 L2280.24 1715.35 Z" fill="#000000" fill-rule="nonzero" fill-opacity="1" /><path clip-path="url(#clip290)" d="M2306.74 1715.35 L2306.74 1705.69 L2316.4 1705.69 L2316.4 1715.35 L2306.74 1715.35 Z" fill="#000000" fill-rule="nonzero" fill-opacity="1" /><path clip-path="url(#clip290)" d="M2328.8 1681.26 Q2328.8 1669 2331.3 1661.56 Q2333.85 1654.06 2338.8 1650 Q2343.8 1645.95 2351.34 1645.95 Q2356.9 1645.95 2361.1 1648.21 Q2365.3 1650.43 2368.03 1654.67 Q2370.77 1658.87 2372.32 1664.95 Q2373.88 1670.98 2373.88 1681.26 Q2373.88 1693.43 2371.38 1700.92 Q2368.88 1708.37 2363.88 1712.48 Q2358.93 1716.53 2351.34 1716.53 Q2341.35 1716.53 2335.64 1709.36 Q2328.8 1700.74 2328.8 1681.26 M2337.53 1681.26 Q2337.53 1698.28 2341.49 1703.94 Q2345.49 1709.55 2351.34 1709.55 Q2357.19 1709.55 2361.15 1703.89 Q2365.16 1698.24 2365.16 1681.26 Q2365.16 1664.2 2361.15 1658.58 Q2357.19 1652.97 2351.25 1652.97 Q2345.4 1652.97 2341.91 1657.92 Q2337.53 1664.24 2337.53 1681.26 Z" fill="#000000" fill-rule="nonzero" fill-opacity="1" /><polyline clip-path="url(#clip290)" style="stroke:#000000; stroke-linecap:round; stroke-linejoin:round; stroke-width:4; stroke-opacity:1; fill:none" points="267.053,1609.75 267.053,47.2441 "/>
<polyline clip-path="url(#clip290)" style="stroke:#000000; stroke-linecap:round; stroke-linejoin:round; stroke-width:2; stroke-opacity:0.5; fill:none" points="2352.76,1609.75 2352.76,47.2441 "/>
<polyline clip-path="url(#clip290)" style="stroke:#000000; stroke-linecap:round; stroke-linejoin:round; stroke-width:4; stroke-opacity:1; fill:none" points="267.053,1584.56 285.951,1584.56 "/>
<polyline clip-path="url(#clip290)" style="stroke:#000000; stroke-linecap:round; stroke-linejoin:round; stroke-width:4; stroke-opacity:1; fill:none" points="267.053,1204.29 285.951,1204.29 "/>
<polyline clip-path="url(#clip290)" style="stroke:#000000; stroke-linecap:round; stroke-linejoin:round; stroke-width:4; stroke-opacity:1; fill:none" points="267.053,824.019 285.951,824.019 "/>
<polyline clip-path="url(#clip290)" style="stroke:#000000; stroke-linecap:round; stroke-linejoin:round; stroke-width:4; stroke-opacity:1; fill:none" points="267.053,443.746 285.951,443.746 "/>
<polyline clip-path="url(#clip290)" style="stroke:#000000; stroke-linecap:round; stroke-linejoin:round; stroke-width:4; stroke-opacity:1; fill:none" points="267.053,63.4732 285.951,63.4732 "/>
<path clip-path="url(#clip290)" d="M51.7465 1585.04 Q51.7465 1572.78 54.2454 1565.33 Q56.7914 1557.83 61.742 1553.78 Q66.7398 1549.72 74.2836 1549.72 Q79.8471 1549.72 84.0434 1551.99 Q88.2396 1554.2 90.9742 1558.44 Q93.7089 1562.64 95.2648 1568.72 Q96.8207 1574.76 96.8207 1585.04 Q96.8207 1597.2 94.3218 1604.7 Q91.8229 1612.15 86.8251 1616.25 Q81.8745 1620.3 74.2836 1620.3 Q64.2881 1620.3 58.5831 1613.14 Q51.7465 1604.51 51.7465 1585.04 M60.469 1585.04 Q60.469 1602.06 64.4295 1607.71 Q68.4371 1613.33 74.2836 1613.33 Q80.13 1613.33 84.0905 1607.67 Q88.0982 1602.01 88.0982 1585.04 Q88.0982 1567.97 84.0905 1562.36 Q80.13 1556.75 74.1893 1556.75 Q68.3428 1556.75 64.8538 1561.7 Q60.469 1568.02 60.469 1585.04 Z" fill="#000000" fill-rule="nonzero" fill-opacity="1" /><path clip-path="url(#clip290)" d="M110.211 1619.12 L110.211 1609.46 L119.876 1609.46 L119.876 1619.12 L110.211 1619.12 Z" fill="#000000" fill-rule="nonzero" fill-opacity="1" /><path clip-path="url(#clip290)" d="M132.276 1585.04 Q132.276 1572.78 134.775 1565.33 Q137.321 1557.83 142.272 1553.78 Q147.27 1549.72 154.814 1549.72 Q160.377 1549.72 164.573 1551.99 Q168.77 1554.2 171.504 1558.44 Q174.239 1562.64 175.795 1568.72 Q177.351 1574.76 177.351 1585.04 Q177.351 1597.2 174.852 1604.7 Q172.353 1612.15 167.355 1616.25 Q162.405 1620.3 154.814 1620.3 Q144.818 1620.3 139.113 1613.14 Q132.276 1604.51 132.276 1585.04 M140.999 1585.04 Q140.999 1602.06 144.959 1607.71 Q148.967 1613.33 154.814 1613.33 Q160.66 1613.33 164.621 1607.67 Q168.628 1602.01 168.628 1585.04 Q168.628 1567.97 164.621 1562.36 Q160.66 1556.75 154.719 1556.75 Q148.873 1556.75 145.384 1561.7 Q140.999 1568.02 140.999 1585.04 Z" fill="#000000" fill-rule="nonzero" fill-opacity="1" /><path clip-path="url(#clip290)" d="M185.979 1585.04 Q185.979 1572.78 188.478 1565.33 Q191.024 1557.83 195.974 1553.78 Q200.972 1549.72 208.516 1549.72 Q214.079 1549.72 218.276 1551.99 Q222.472 1554.2 225.207 1558.44 Q227.941 1562.64 229.497 1568.72 Q231.053 1574.76 231.053 1585.04 Q231.053 1597.2 228.554 1604.7 Q226.055 1612.15 221.058 1616.25 Q216.107 1620.3 208.516 1620.3 Q198.52 1620.3 192.815 1613.14 Q185.979 1604.51 185.979 1585.04 M194.701 1585.04 Q194.701 1602.06 198.662 1607.71 Q202.67 1613.33 208.516 1613.33 Q214.362 1613.33 218.323 1607.67 Q222.331 1602.01 222.331 1585.04 Q222.331 1567.97 218.323 1562.36 Q214.362 1556.75 208.422 1556.75 Q202.575 1556.75 199.086 1561.7 Q194.701 1568.02 194.701 1585.04 Z" fill="#000000" fill-rule="nonzero" fill-opacity="1" /><path clip-path="url(#clip290)" d="M50.9921 1204.76 Q50.9921 1192.5 53.491 1185.06 Q56.037 1177.56 60.9877 1173.5 Q65.9854 1169.45 73.5292 1169.45 Q79.0928 1169.45 83.289 1171.71 Q87.4852 1173.93 90.2198 1178.17 Q92.9545 1182.37 94.5104 1188.45 Q96.0663 1194.49 96.0663 1204.76 Q96.0663 1216.93 93.5674 1224.42 Q91.0685 1231.87 86.0708 1235.98 Q81.1201 1240.03 73.5292 1240.03 Q63.5337 1240.03 57.8287 1232.86 Q50.9921 1224.24 50.9921 1204.76 M59.7146 1204.76 Q59.7146 1221.78 63.6751 1227.44 Q67.6828 1233.05 73.5292 1233.05 Q79.3756 1233.05 83.3361 1227.39 Q87.3438 1221.74 87.3438 1204.76 Q87.3438 1187.7 83.3361 1182.08 Q79.3756 1176.47 73.4349 1176.47 Q67.5885 1176.47 64.0995 1181.42 Q59.7146 1187.74 59.7146 1204.76 Z" fill="#000000" fill-rule="nonzero" fill-opacity="1" /><path clip-path="url(#clip290)" d="M109.457 1238.85 L109.457 1229.19 L119.122 1229.19 L119.122 1238.85 L109.457 1238.85 Z" fill="#000000" fill-rule="nonzero" fill-opacity="1" /><path clip-path="url(#clip290)" d="M176.125 1230.7 L176.125 1238.85 L130.438 1238.85 Q130.343 1235.79 131.428 1232.96 Q133.172 1228.29 136.991 1223.76 Q140.858 1219.24 148.118 1213.3 Q159.387 1204.06 163.347 1198.68 Q167.308 1193.26 167.308 1188.45 Q167.308 1183.41 163.678 1179.96 Q160.094 1176.47 154.295 1176.47 Q148.166 1176.47 144.488 1180.15 Q140.81 1183.83 140.763 1190.34 L132.041 1189.44 Q132.937 1179.68 138.783 1174.59 Q144.629 1169.45 154.484 1169.45 Q164.432 1169.45 170.231 1174.97 Q176.03 1180.48 176.03 1188.64 Q176.03 1192.79 174.333 1196.8 Q172.636 1200.8 168.675 1205.23 Q164.762 1209.67 155.615 1217.4 Q147.977 1223.81 145.808 1226.12 Q143.639 1228.39 142.225 1230.7 L176.125 1230.7 Z" fill="#000000" fill-rule="nonzero" fill-opacity="1" /><path clip-path="url(#clip290)" d="M185.224 1220.75 L194.136 1219.99 Q195.126 1226.5 198.709 1229.8 Q202.339 1233.05 207.432 1233.05 Q213.561 1233.05 217.804 1228.43 Q222.048 1223.81 222.048 1216.17 Q222.048 1208.91 217.946 1204.72 Q213.891 1200.52 207.29 1200.52 Q203.188 1200.52 199.888 1202.41 Q196.587 1204.24 194.701 1207.22 L186.733 1206.18 L193.428 1170.67 L227.8 1170.67 L227.8 1178.78 L200.218 1178.78 L196.493 1197.36 Q202.717 1193.02 209.553 1193.02 Q218.606 1193.02 224.829 1199.29 Q231.053 1205.57 231.053 1215.42 Q231.053 1224.8 225.584 1231.64 Q218.936 1240.03 207.432 1240.03 Q198.002 1240.03 192.014 1234.75 Q186.073 1229.47 185.224 1220.75 Z" fill="#000000" fill-rule="nonzero" fill-opacity="1" /><path clip-path="url(#clip290)" d="M51.7465 824.491 Q51.7465 812.232 54.2454 804.782 Q56.7914 797.286 61.742 793.231 Q66.7398 789.176 74.2836 789.176 Q79.8471 789.176 84.0434 791.439 Q88.2396 793.655 90.9742 797.899 Q93.7089 802.095 95.2648 808.177 Q96.8207 814.212 96.8207 824.491 Q96.8207 836.655 94.3218 844.152 Q91.8229 851.601 86.8251 855.703 Q81.8745 859.758 74.2836 859.758 Q64.2881 859.758 58.5831 852.591 Q51.7465 843.963 51.7465 824.491 M60.469 824.491 Q60.469 841.511 64.4295 847.169 Q68.4371 852.78 74.2836 852.78 Q80.13 852.78 84.0905 847.122 Q88.0982 841.464 88.0982 824.491 Q88.0982 807.423 84.0905 801.812 Q80.13 796.201 74.1893 796.201 Q68.3428 796.201 64.8538 801.152 Q60.469 807.47 60.469 824.491 Z" fill="#000000" fill-rule="nonzero" fill-opacity="1" /><path clip-path="url(#clip290)" d="M110.211 858.579 L110.211 848.914 L119.876 848.914 L119.876 858.579 L110.211 858.579 Z" fill="#000000" fill-rule="nonzero" fill-opacity="1" /><path clip-path="url(#clip290)" d="M132.276 840.474 L141.188 839.72 Q142.178 846.226 145.761 849.527 Q149.391 852.78 154.484 852.78 Q160.613 852.78 164.856 848.159 Q169.1 843.539 169.1 835.901 Q169.1 828.64 164.998 824.443 Q160.943 820.247 154.342 820.247 Q150.24 820.247 146.94 822.133 Q143.639 823.972 141.753 826.942 L133.785 825.905 L140.48 790.402 L174.852 790.402 L174.852 798.512 L147.27 798.512 L143.545 817.088 Q149.769 812.751 156.605 812.751 Q165.658 812.751 171.881 819.021 Q178.105 825.292 178.105 835.146 Q178.105 844.529 172.636 851.365 Q165.988 859.758 154.484 859.758 Q145.054 859.758 139.066 854.477 Q133.125 849.196 132.276 840.474 Z" fill="#000000" fill-rule="nonzero" fill-opacity="1" /><path clip-path="url(#clip290)" d="M185.979 824.491 Q185.979 812.232 188.478 804.782 Q191.024 797.286 195.974 793.231 Q200.972 789.176 208.516 789.176 Q214.079 789.176 218.276 791.439 Q222.472 793.655 225.207 797.899 Q227.941 802.095 229.497 808.177 Q231.053 814.212 231.053 824.491 Q231.053 836.655 228.554 844.152 Q226.055 851.601 221.058 855.703 Q216.107 859.758 208.516 859.758 Q198.52 859.758 192.815 852.591 Q185.979 843.963 185.979 824.491 M194.701 824.491 Q194.701 841.511 198.662 847.169 Q202.67 852.78 208.516 852.78 Q214.362 852.78 218.323 847.122 Q222.331 841.464 222.331 824.491 Q222.331 807.423 218.323 801.812 Q214.362 796.201 208.422 796.201 Q202.575 796.201 199.086 801.152 Q194.701 807.47 194.701 824.491 Z" fill="#000000" fill-rule="nonzero" fill-opacity="1" /><path clip-path="url(#clip290)" d="M50.9921 444.218 Q50.9921 431.959 53.491 424.509 Q56.037 417.013 60.9877 412.958 Q65.9854 408.903 73.5292 408.903 Q79.0928 408.903 83.289 411.166 Q87.4852 413.382 90.2198 417.626 Q92.9545 421.822 94.5104 427.904 Q96.0663 433.939 96.0663 444.218 Q96.0663 456.382 93.5674 463.879 Q91.0685 471.328 86.0708 475.43 Q81.1201 479.485 73.5292 479.485 Q63.5337 479.485 57.8287 472.318 Q50.9921 463.69 50.9921 444.218 M59.7146 444.218 Q59.7146 461.238 63.6751 466.896 Q67.6828 472.507 73.5292 472.507 Q79.3756 472.507 83.3361 466.849 Q87.3438 461.191 87.3438 444.218 Q87.3438 427.15 83.3361 421.539 Q79.3756 415.928 73.4349 415.928 Q67.5885 415.928 64.0995 420.879 Q59.7146 427.197 59.7146 444.218 Z" fill="#000000" fill-rule="nonzero" fill-opacity="1" /><path clip-path="url(#clip290)" d="M109.457 478.306 L109.457 468.641 L119.122 468.641 L119.122 478.306 L109.457 478.306 Z" fill="#000000" fill-rule="nonzero" fill-opacity="1" /><path clip-path="url(#clip290)" d="M132.088 418.239 L132.088 410.082 L176.832 410.082 L176.832 416.683 Q170.231 423.708 163.725 435.354 Q157.265 446.999 153.729 459.305 Q151.183 467.981 150.476 478.306 L141.753 478.306 Q141.895 470.149 144.959 458.598 Q148.024 447.047 153.729 436.344 Q159.481 425.594 165.941 418.239 L132.088 418.239 Z" fill="#000000" fill-rule="nonzero" fill-opacity="1" /><path clip-path="url(#clip290)" d="M185.224 460.201 L194.136 459.447 Q195.126 465.953 198.709 469.254 Q202.339 472.507 207.432 472.507 Q213.561 472.507 217.804 467.886 Q222.048 463.266 222.048 455.628 Q222.048 448.367 217.946 444.17 Q213.891 439.974 207.29 439.974 Q203.188 439.974 199.888 441.86 Q196.587 443.699 194.701 446.669 L186.733 445.632 L193.428 410.129 L227.8 410.129 L227.8 418.239 L200.218 418.239 L196.493 436.815 Q202.717 432.478 209.553 432.478 Q218.606 432.478 224.829 438.748 Q231.053 445.019 231.053 454.873 Q231.053 464.256 225.584 471.092 Q218.936 479.485 207.432 479.485 Q198.002 479.485 192.014 474.204 Q186.073 468.924 185.224 460.201 Z" fill="#000000" fill-rule="nonzero" fill-opacity="1" /><path clip-path="url(#clip290)" d="M83.7133 98.0332 L75.2266 98.0332 L75.2266 43.9536 Q72.1619 46.8768 67.1641 49.8001 Q62.2135 52.7233 58.253 54.1849 L58.253 45.981 Q65.3725 42.6335 70.7003 37.8714 Q76.0281 33.1094 78.2441 28.6303 L83.7133 28.6303 L83.7133 98.0332 Z" fill="#000000" fill-rule="nonzero" fill-opacity="1" /><path clip-path="url(#clip290)" d="M110.211 98.0332 L110.211 88.3677 L119.876 88.3677 L119.876 98.0332 L110.211 98.0332 Z" fill="#000000" fill-rule="nonzero" fill-opacity="1" /><path clip-path="url(#clip290)" d="M132.276 63.9447 Q132.276 51.686 134.775 44.2365 Q137.321 36.7399 142.272 32.6851 Q147.27 28.6303 154.814 28.6303 Q160.377 28.6303 164.573 30.8934 Q168.77 33.1094 171.504 37.3528 Q174.239 41.549 175.795 47.6312 Q177.351 53.6663 177.351 63.9447 Q177.351 76.109 174.852 83.6057 Q172.353 91.0552 167.355 95.1571 Q162.405 99.2119 154.814 99.2119 Q144.818 99.2119 139.113 92.0453 Q132.276 83.4171 132.276 63.9447 M140.999 63.9447 Q140.999 80.9654 144.959 86.6232 Q148.967 92.2339 154.814 92.2339 Q160.66 92.2339 164.621 86.5761 Q168.628 80.9182 168.628 63.9447 Q168.628 46.8768 164.621 41.2661 Q160.66 35.6555 154.719 35.6555 Q148.873 35.6555 145.384 40.6061 Q140.999 46.924 140.999 63.9447 Z" fill="#000000" fill-rule="nonzero" fill-opacity="1" /><path clip-path="url(#clip290)" d="M185.979 63.9447 Q185.979 51.686 188.478 44.2365 Q191.024 36.7399 195.974 32.6851 Q200.972 28.6303 208.516 28.6303 Q214.079 28.6303 218.276 30.8934 Q222.472 33.1094 225.207 37.3528 Q227.941 41.549 229.497 47.6312 Q231.053 53.6663 231.053 63.9447 Q231.053 76.109 228.554 83.6057 Q226.055 91.0552 221.058 95.1571 Q216.107 99.2119 208.516 99.2119 Q198.52 99.2119 192.815 92.0453 Q185.979 83.4171 185.979 63.9447 M194.701 63.9447 Q194.701 80.9654 198.662 86.6232 Q202.67 92.2339 208.516 92.2339 Q214.362 92.2339 218.323 86.5761 Q222.331 80.9182 222.331 63.9447 Q222.331 46.8768 218.323 41.2661 Q214.362 35.6555 208.422 35.6555 Q202.575 35.6555 199.086 40.6061 Q194.701 46.924 194.701 63.9447 Z" fill="#000000" fill-rule="nonzero" fill-opacity="1" /><circle clip-path="url(#clip292)" cx="418.146" cy="1332.43" r="14.4" fill="#4477aa" fill-rule="evenodd" fill-opacity="1" stroke="#000000" stroke-opacity="1" stroke-width="3.6"/>
<circle clip-path="url(#clip292)" cx="326.082" cy="1473.19" r="14.4" fill="#4477aa" fill-rule="evenodd" fill-opacity="1" stroke="#000000" stroke-opacity="1" stroke-width="3.6"/>
<circle clip-path="url(#clip292)" cx="2293.73" cy="487.607" r="14.4" fill="#ee6677" fill-rule="evenodd" fill-opacity="1" stroke="#000000" stroke-opacity="1" stroke-width="3.6"/>
<circle clip-path="url(#clip292)" cx="2097.27" cy="1565.53" r="14.4" fill="#ee6677" fill-rule="evenodd" fill-opacity="1" stroke="#000000" stroke-opacity="1" stroke-width="3.6"/>
<circle clip-path="url(#clip292)" cx="1945.87" cy="1489.75" r="14.4" fill="#ee6677" fill-rule="evenodd" fill-opacity="1" stroke="#000000" stroke-opacity="1" stroke-width="3.6"/>
<circle clip-path="url(#clip292)" cx="1103.6" cy="905.233" r="14.4" fill="#ee6677" fill-rule="evenodd" fill-opacity="1" stroke="#000000" stroke-opacity="1" stroke-width="3.6"/>
<circle clip-path="url(#clip292)" cx="1978.25" cy="97.9952" r="14.4" fill="#ee6677" fill-rule="evenodd" fill-opacity="1" stroke="#000000" stroke-opacity="1" stroke-width="3.6"/>
<circle clip-path="url(#clip292)" cx="805.597" cy="405.375" r="14.4" fill="#ee6677" fill-rule="evenodd" fill-opacity="1" stroke="#000000" stroke-opacity="1" stroke-width="3.6"/>
<circle clip-path="url(#clip292)" cx="1817.63" cy="1442.59" r="14.4" fill="#ee6677" fill-rule="evenodd" fill-opacity="1" stroke="#000000" stroke-opacity="1" stroke-width="3.6"/>
<circle clip-path="url(#clip292)" cx="1683.01" cy="91.466" r="14.4" fill="#ee6677" fill-rule="evenodd" fill-opacity="1" stroke="#000000" stroke-opacity="1" stroke-width="3.6"/>
<circle clip-path="url(#clip292)" cx="2267.3" cy="1071.65" r="14.4" fill="#ee6677" fill-rule="evenodd" fill-opacity="1" stroke="#000000" stroke-opacity="1" stroke-width="3.6"/>
<path clip-path="url(#clip290)" d="M336.576 449.248 L686.451 449.248 L686.451 99.3277 L336.576 99.3277  Z" fill="#ffffff" fill-rule="evenodd" fill-opacity="1"/>
<polyline clip-path="url(#clip290)" style="stroke:#000000; stroke-linecap:round; stroke-linejoin:round; stroke-width:4; stroke-opacity:1; fill:none" points="336.576,449.248 686.451,449.248 686.451,99.3277 336.576,99.3277 336.576,449.248 "/>
<circle clip-path="url(#clip290)" cx="429.274" cy="215.968" r="46.08" fill="#4477aa" fill-rule="evenodd" fill-opacity="1" stroke="#000000" stroke-opacity="1" stroke-width="11.52"/>
<path clip-path="url(#clip290)" d="M521.972 216.498 Q521.972 202.707 524.784 194.326 Q527.648 185.893 533.217 181.331 Q538.84 176.769 547.326 176.769 Q553.585 176.769 558.306 179.315 Q563.027 181.808 566.103 186.582 Q569.18 191.303 570.93 198.145 Q572.681 204.935 572.681 216.498 Q572.681 230.183 569.869 238.617 Q567.058 246.997 561.436 251.612 Q555.866 256.174 547.326 256.174 Q536.082 256.174 529.663 248.111 Q521.972 238.405 521.972 216.498 M531.785 216.498 Q531.785 235.646 536.241 242.011 Q540.749 248.323 547.326 248.323 Q553.904 248.323 558.359 241.958 Q562.868 235.593 562.868 216.498 Q562.868 197.297 558.359 190.985 Q553.904 184.673 547.22 184.673 Q540.643 184.673 536.718 190.242 Q531.785 197.35 531.785 216.498 Z" fill="#000000" fill-rule="nonzero" fill-opacity="1" /><path clip-path="url(#clip290)" d="M587.745 254.848 L587.745 243.974 L598.618 243.974 L598.618 254.848 L587.745 254.848 Z" fill="#000000" fill-rule="nonzero" fill-opacity="1" /><path clip-path="url(#clip290)" d="M612.569 216.498 Q612.569 202.707 615.38 194.326 Q618.244 185.893 623.813 181.331 Q629.436 176.769 637.923 176.769 Q644.182 176.769 648.902 179.315 Q653.623 181.808 656.7 186.582 Q659.776 191.303 661.527 198.145 Q663.277 204.935 663.277 216.498 Q663.277 230.183 660.466 238.617 Q657.654 246.997 652.032 251.612 Q646.463 256.174 637.923 256.174 Q626.678 256.174 620.26 248.111 Q612.569 238.405 612.569 216.498 M622.381 216.498 Q622.381 235.646 626.837 242.011 Q631.345 248.323 637.923 248.323 Q644.5 248.323 648.956 241.958 Q653.464 235.593 653.464 216.498 Q653.464 197.297 648.956 190.985 Q644.5 184.673 637.817 184.673 Q631.239 184.673 627.314 190.242 Q622.381 197.35 622.381 216.498 Z" fill="#000000" fill-rule="nonzero" fill-opacity="1" /><circle clip-path="url(#clip290)" cx="429.274" cy="332.608" r="46.08" fill="#ee6677" fill-rule="evenodd" fill-opacity="1" stroke="#000000" stroke-opacity="1" stroke-width="11.52"/>
<path clip-path="url(#clip290)" d="M550.615 371.488 L541.067 371.488 L541.067 310.648 Q537.62 313.937 531.997 317.225 Q526.428 320.514 521.972 322.158 L521.972 312.929 Q529.982 309.163 535.975 303.806 Q541.969 298.448 544.462 293.409 L550.615 293.409 L550.615 371.488 Z" fill="#000000" fill-rule="nonzero" fill-opacity="1" /><path clip-path="url(#clip290)" d="M580.425 371.488 L580.425 360.614 L591.299 360.614 L591.299 371.488 L580.425 371.488 Z" fill="#000000" fill-rule="nonzero" fill-opacity="1" /><path clip-path="url(#clip290)" d="M605.249 333.138 Q605.249 319.347 608.06 310.966 Q610.924 302.533 616.494 297.971 Q622.116 293.409 630.603 293.409 Q636.862 293.409 641.583 295.955 Q646.303 298.448 649.38 303.222 Q652.456 307.943 654.207 314.785 Q655.957 321.575 655.957 333.138 Q655.957 346.823 653.146 355.257 Q650.335 363.637 644.712 368.252 Q639.143 372.814 630.603 372.814 Q619.358 372.814 612.94 364.751 Q605.249 355.045 605.249 333.138 M615.061 333.138 Q615.061 352.286 619.517 358.651 Q624.026 364.963 630.603 364.963 Q637.18 364.963 641.636 358.598 Q646.144 352.233 646.144 333.138 Q646.144 313.937 641.636 307.625 Q637.18 301.313 630.497 301.313 Q623.92 301.313 619.994 306.882 Q615.061 313.99 615.061 333.138 Z" fill="#000000" fill-rule="nonzero" fill-opacity="1" /></svg>
