<?xml version="1.0" encoding="utf-8"?>
<svg xmlns="http://www.w3.org/2000/svg" xmlns:xlink="http://www.w3.org/1999/xlink" width="600" height="450" viewBox="0 0 2400 1800">
<defs>
  <clipPath id="clip240">
    <rect x="0" y="0" width="2400" height="1800"/>
  </clipPath>
</defs>
<path clip-path="url(#clip240)" d="M0 1800 L2400 1800 L2400 0 L0 0  Z" fill="#ffffff" fill-rule="evenodd" fill-opacity="1"/>
<defs>
  <clipPath id="clip241">
    <rect x="480" y="0" width="1681" height="1681"/>
  </clipPath>
</defs>
<defs>
  <clipPath id="clip242">
    <rect x="267" y="47" width="2086" height="1564"/>
  </clipPath>
</defs>
<path clip-path="url(#clip242)" d="M-555.579 4647.69 L-555.579 229.721 L380.25 -1979.26 L2001.15 -703.905 L2001.15 3714.06 L1065.32 5923.04 L-555.579 4647.69  Z" fill="#ffffff" fill-rule="evenodd" fill-opacity="1"/>
<polyline clip-path="url(#clip240)" style="stroke:#000000; stroke-linecap:round; stroke-linejoin:round; stroke-width:4; stroke-opacity:1; fill:none" points="694.008,1301.67 1475.26,1527.2 "/>
<polyline clip-path="url(#clip240)" style="stroke:#000000; stroke-linecap:round; stroke-linejoin:round; stroke-width:2; stroke-opacity:0.5; fill:none" points="1145.07,129.793 1926.32,355.322 "/>
<polyline clip-path="url(#clip240)" style="stroke:#000000; stroke-linecap:round; stroke-linejoin:round; stroke-width:4; stroke-opacity:1; fill:none" points="702.473,1304.12 707.886,1299.43 "/>
<polyline clip-path="url(#clip240)" style="stroke:#000000; stroke-linecap:round; stroke-linejoin:round; stroke-width:4; stroke-opacity:1; fill:none" points="864.564,1350.91 869.976,1346.22 "/>
<polyline clip-path="url(#clip240)" style="stroke:#000000; stroke-linecap:round; stroke-linejoin:round; stroke-width:4; stroke-opacity:1; fill:none" points="1026.65,1397.7 1032.07,1393.01 "/>
<polyline clip-path="url(#clip240)" style="stroke:#000000; stroke-linecap:round; stroke-linejoin:round; stroke-width:4; stroke-opacity:1; fill:none" points="1188.74,1444.49 1194.16,1439.8 "/>
<polyline clip-path="url(#clip240)" style="stroke:#000000; stroke-linecap:round; stroke-linejoin:round; stroke-width:4; stroke-opacity:1; fill:none" points="1350.83,1491.28 1356.25,1486.6 "/>
<path clip-path="url(#clip240)" d="M550.149 1331.18 L504.509 1331.18 L504.509 1323.26 L550.149 1323.26 L550.149 1331.18 Z" fill="#000000" fill-rule="nonzero" fill-opacity="1" /><path clip-path="url(#clip240)" d="M559.532 1327.22 Q559.532 1314.96 562.031 1307.51 Q564.577 1300.02 569.527 1295.96 Q574.525 1291.91 582.069 1291.91 Q587.632 1291.91 591.829 1294.17 Q596.025 1296.39 598.76 1300.63 Q601.494 1304.83 603.05 1310.91 Q604.606 1316.94 604.606 1327.22 Q604.606 1339.39 602.107 1346.88 Q599.608 1354.33 594.61 1358.44 Q589.66 1362.49 582.069 1362.49 Q572.073 1362.49 566.368 1355.32 Q559.532 1346.7 559.532 1327.22 M568.254 1327.22 Q568.254 1344.24 572.215 1349.9 Q576.222 1355.51 582.069 1355.51 Q587.915 1355.51 591.876 1349.85 Q595.883 1344.2 595.883 1327.22 Q595.883 1310.16 591.876 1304.54 Q587.915 1298.93 581.975 1298.93 Q576.128 1298.93 572.639 1303.88 Q568.254 1310.2 568.254 1327.22 Z" fill="#000000" fill-rule="nonzero" fill-opacity="1" /><path clip-path="url(#clip240)" d="M617.996 1361.31 L617.996 1351.65 L627.662 1351.65 L627.662 1361.31 L617.996 1361.31 Z" fill="#000000" fill-rule="nonzero" fill-opacity="1" /><path clip-path="url(#clip240)" d="M684.664 1353.15 L684.664 1361.31 L638.977 1361.31 Q638.883 1358.25 639.967 1355.42 Q641.712 1350.75 645.531 1346.22 Q649.397 1341.7 656.658 1335.76 Q667.927 1326.52 671.887 1321.14 Q675.848 1315.72 675.848 1310.91 Q675.848 1305.86 672.217 1302.42 Q668.634 1298.93 662.835 1298.93 Q656.705 1298.93 653.028 1302.61 Q649.35 1306.29 649.303 1312.8 L640.58 1311.9 Q641.476 1302.14 647.323 1297.05 Q653.169 1291.91 663.023 1291.91 Q672.972 1291.91 678.771 1297.42 Q684.57 1302.94 684.57 1311.1 Q684.57 1315.25 682.873 1319.25 Q681.175 1323.26 677.215 1327.69 Q673.302 1332.13 664.155 1339.86 Q656.517 1346.27 654.348 1348.58 Q652.179 1350.84 650.765 1353.15 L684.664 1353.15 Z" fill="#000000" fill-rule="nonzero" fill-opacity="1" /><path clip-path="url(#clip240)" d="M721.151 1374.01 Q721.151 1361.76 723.65 1354.31 Q726.196 1346.81 731.146 1342.75 Q736.144 1338.7 743.688 1338.7 Q749.251 1338.7 753.448 1340.96 Q757.644 1343.18 760.378 1347.42 Q763.113 1351.62 764.669 1357.7 Q766.225 1363.74 766.225 1374.01 Q766.225 1386.18 763.726 1393.68 Q761.227 1401.12 756.229 1405.23 Q751.279 1409.28 743.688 1409.28 Q733.692 1409.28 727.987 1402.12 Q721.151 1393.49 721.151 1374.01 M729.873 1374.01 Q729.873 1391.04 733.834 1396.69 Q737.841 1402.3 743.688 1402.3 Q749.534 1402.3 753.495 1396.65 Q757.502 1390.99 757.502 1374.01 Q757.502 1356.95 753.495 1351.34 Q749.534 1345.73 743.593 1345.73 Q737.747 1345.73 734.258 1350.68 Q729.873 1356.99 729.873 1374.01 Z" fill="#000000" fill-rule="nonzero" fill-opacity="1" /><path clip-path="url(#clip240)" d="M779.615 1408.1 L779.615 1398.44 L789.281 1398.44 L789.281 1408.1 L779.615 1408.1 Z" fill="#000000" fill-rule="nonzero" fill-opacity="1" /><path clip-path="url(#clip240)" d="M801.681 1374.01 Q801.681 1361.76 804.18 1354.31 Q806.726 1346.81 811.676 1342.75 Q816.674 1338.7 824.218 1338.7 Q829.781 1338.7 833.978 1340.96 Q838.174 1343.18 840.908 1347.42 Q843.643 1351.62 845.199 1357.7 Q846.755 1363.74 846.755 1374.01 Q846.755 1386.18 844.256 1393.68 Q841.757 1401.12 836.759 1405.23 Q831.809 1409.28 824.218 1409.28 Q814.222 1409.28 808.517 1402.12 Q801.681 1393.49 801.681 1374.01 M810.403 1374.01 Q810.403 1391.04 814.364 1396.69 Q818.371 1402.3 824.218 1402.3 Q830.064 1402.3 834.025 1396.65 Q838.032 1390.99 838.032 1374.01 Q838.032 1356.95 834.025 1351.34 Q830.064 1345.73 824.123 1345.73 Q818.277 1345.73 814.788 1350.68 Q810.403 1356.99 810.403 1374.01 Z" fill="#000000" fill-rule="nonzero" fill-opacity="1" /><path clip-path="url(#clip240)" d="M883.713 1420.81 Q883.713 1408.55 886.211 1401.1 Q888.757 1393.6 893.708 1389.55 Q898.706 1385.49 906.25 1385.49 Q911.813 1385.49 916.009 1387.75 Q920.206 1389.97 922.94 1394.21 Q925.675 1398.41 927.231 1404.49 Q928.787 1410.53 928.787 1420.81 Q928.787 1432.97 926.288 1440.47 Q923.789 1447.92 918.791 1452.02 Q913.841 1456.07 906.25 1456.07 Q896.254 1456.07 890.549 1448.91 Q883.713 1440.28 883.713 1420.81 M892.435 1420.81 Q892.435 1437.83 896.396 1443.48 Q900.403 1449.1 906.25 1449.1 Q912.096 1449.1 916.057 1443.44 Q920.064 1437.78 920.064 1420.81 Q920.064 1403.74 916.057 1398.13 Q912.096 1392.52 906.155 1392.52 Q900.309 1392.52 896.82 1397.47 Q892.435 1403.79 892.435 1420.81 Z" fill="#000000" fill-rule="nonzero" fill-opacity="1" /><path clip-path="url(#clip240)" d="M942.177 1454.89 L942.177 1445.23 L951.842 1445.23 L951.842 1454.89 L942.177 1454.89 Z" fill="#000000" fill-rule="nonzero" fill-opacity="1" /><path clip-path="url(#clip240)" d="M1008.85 1446.74 L1008.85 1454.89 L963.158 1454.89 Q963.064 1451.83 964.148 1449 Q965.893 1444.33 969.712 1439.81 Q973.578 1435.28 980.839 1429.34 Q992.107 1420.1 996.068 1414.72 Q1000.03 1409.3 1000.03 1404.49 Q1000.03 1399.45 996.398 1396.01 Q992.815 1392.52 987.015 1392.52 Q980.886 1392.52 977.208 1396.19 Q973.531 1399.87 973.484 1406.38 L964.761 1405.48 Q965.657 1395.72 971.503 1390.63 Q977.35 1385.49 987.204 1385.49 Q997.152 1385.49 1002.95 1391.01 Q1008.75 1396.52 1008.75 1404.68 Q1008.75 1408.83 1007.05 1412.84 Q1005.36 1416.85 1001.4 1421.28 Q997.482 1425.71 988.335 1433.44 Q980.697 1439.85 978.529 1442.16 Q976.36 1444.43 974.945 1446.74 L1008.85 1446.74 Z" fill="#000000" fill-rule="nonzero" fill-opacity="1" /><path clip-path="url(#clip240)" d="M1045.38 1467.6 Q1045.38 1455.34 1047.88 1447.89 Q1050.42 1440.39 1055.37 1436.34 Q1060.37 1432.28 1067.92 1432.28 Q1073.48 1432.28 1077.68 1434.55 Q1081.87 1436.76 1084.61 1441.01 Q1087.34 1445.2 1088.9 1451.28 Q1090.45 1457.32 1090.45 1467.6 Q1090.45 1479.76 1087.95 1487.26 Q1085.45 1494.71 1080.46 1498.81 Q1075.51 1502.86 1067.92 1502.86 Q1057.92 1502.86 1052.22 1495.7 Q1045.38 1487.07 1045.38 1467.6 M1054.1 1467.6 Q1054.1 1484.62 1058.06 1490.28 Q1062.07 1495.89 1067.92 1495.89 Q1073.76 1495.89 1077.72 1490.23 Q1081.73 1484.57 1081.73 1467.6 Q1081.73 1450.53 1077.72 1444.92 Q1073.76 1439.31 1067.82 1439.31 Q1061.97 1439.31 1058.49 1444.26 Q1054.1 1450.58 1054.1 1467.6 Z" fill="#000000" fill-rule="nonzero" fill-opacity="1" /><path clip-path="url(#clip240)" d="M1103.84 1501.69 L1103.84 1492.02 L1113.51 1492.02 L1113.51 1501.69 L1103.84 1501.69 Z" fill="#000000" fill-rule="nonzero" fill-opacity="1" /><path clip-path="url(#clip240)" d="M1153.11 1501.69 L1153.11 1485.14 L1123.13 1485.14 L1123.13 1477.36 L1154.67 1432.57 L1161.6 1432.57 L1161.6 1477.36 L1170.94 1477.36 L1170.94 1485.14 L1161.6 1485.14 L1161.6 1501.69 L1153.11 1501.69 M1153.11 1477.36 L1153.11 1446.19 L1131.47 1477.36 L1153.11 1477.36 Z" fill="#000000" fill-rule="nonzero" fill-opacity="1" /><path clip-path="url(#clip240)" d="M1207.23 1514.39 Q1207.23 1502.13 1209.73 1494.68 Q1212.28 1487.18 1217.23 1483.13 Q1222.23 1479.07 1229.77 1479.07 Q1235.33 1479.07 1239.53 1481.34 Q1243.73 1483.55 1246.46 1487.8 Q1249.2 1491.99 1250.75 1498.08 Q1252.31 1504.11 1252.31 1514.39 Q1252.31 1526.55 1249.81 1534.05 Q1247.31 1541.5 1242.31 1545.6 Q1237.36 1549.66 1229.77 1549.66 Q1219.77 1549.66 1214.07 1542.49 Q1207.23 1533.86 1207.23 1514.39 M1215.96 1514.39 Q1215.96 1531.41 1219.92 1537.07 Q1223.92 1542.68 1229.77 1542.68 Q1235.62 1542.68 1239.58 1537.02 Q1243.58 1531.36 1243.58 1514.39 Q1243.58 1497.32 1239.58 1491.71 Q1235.62 1486.1 1229.68 1486.1 Q1223.83 1486.1 1220.34 1491.05 Q1215.96 1497.37 1215.96 1514.39 Z" fill="#000000" fill-rule="nonzero" fill-opacity="1" /><path clip-path="url(#clip240)" d="M1265.7 1548.48 L1265.7 1538.81 L1275.36 1538.81 L1275.36 1548.48 L1265.7 1548.48 Z" fill="#000000" fill-rule="nonzero" fill-opacity="1" /><path clip-path="url(#clip240)" d="M1331.8 1496.28 L1323.36 1496.94 Q1322.23 1491.95 1320.15 1489.68 Q1316.71 1486.05 1311.67 1486.05 Q1307.61 1486.05 1304.55 1488.32 Q1300.54 1491.24 1298.23 1496.85 Q1295.92 1502.46 1295.83 1512.83 Q1298.89 1508.17 1303.32 1505.9 Q1307.75 1503.64 1312.61 1503.64 Q1321.1 1503.64 1327.04 1509.91 Q1333.03 1516.13 1333.03 1526.03 Q1333.03 1532.54 1330.2 1538.15 Q1327.42 1543.72 1322.51 1546.69 Q1317.61 1549.66 1311.38 1549.66 Q1300.78 1549.66 1294.08 1541.88 Q1287.39 1534.05 1287.39 1516.13 Q1287.39 1496.1 1294.79 1487 Q1301.25 1479.07 1312.19 1479.07 Q1320.34 1479.07 1325.53 1483.65 Q1330.76 1488.22 1331.8 1496.28 M1297.15 1526.08 Q1297.15 1530.47 1298.98 1534.47 Q1300.87 1538.48 1304.22 1540.6 Q1307.57 1542.68 1311.24 1542.68 Q1316.62 1542.68 1320.48 1538.34 Q1324.35 1534 1324.35 1526.55 Q1324.35 1519.39 1320.53 1515.28 Q1316.71 1511.14 1310.91 1511.14 Q1305.16 1511.14 1301.15 1515.28 Q1297.15 1519.39 1297.15 1526.08 Z" fill="#000000" fill-rule="nonzero" fill-opacity="1" /><polyline clip-path="url(#clip240)" style="stroke:#000000; stroke-linecap:round; stroke-linejoin:round; stroke-width:4; stroke-opacity:1; fill:none" points="1475.26,1527.2 1926.32,1136.58 "/>
<polyline clip-path="url(#clip240)" style="stroke:#000000; stroke-linecap:round; stroke-linejoin:round; stroke-width:2; stroke-opacity:0.5; fill:none" points="694.008,520.42 1145.07,129.793 "/>
<polyline clip-path="url(#clip240)" style="stroke:#000000; stroke-linecap:round; stroke-linejoin:round; stroke-width:4; stroke-opacity:1; fill:none" points="1498.26,1507.29 1488.88,1504.58 "/>
<polyline clip-path="url(#clip240)" style="stroke:#000000; stroke-linecap:round; stroke-linejoin:round; stroke-width:4; stroke-opacity:1; fill:none" points="1625.79,1396.84 1616.42,1394.13 "/>
<polyline clip-path="url(#clip240)" style="stroke:#000000; stroke-linecap:round; stroke-linejoin:round; stroke-width:4; stroke-opacity:1; fill:none" points="1753.33,1286.39 1743.95,1283.68 "/>
<polyline clip-path="url(#clip240)" style="stroke:#000000; stroke-linecap:round; stroke-linejoin:round; stroke-width:4; stroke-opacity:1; fill:none" points="1880.86,1175.94 1871.49,1173.23 "/>
<path clip-path="url(#clip240)" d="M1524.78 1518.99 Q1524.78 1506.74 1527.27 1499.29 Q1529.82 1491.79 1534.77 1487.73 Q1539.77 1483.68 1547.31 1483.68 Q1552.88 1483.68 1557.07 1485.94 Q1561.27 1488.16 1564 1492.4 Q1566.74 1496.6 1568.29 1502.68 Q1569.85 1508.72 1569.85 1518.99 Q1569.85 1531.16 1567.35 1538.66 Q1564.85 1546.1 1559.85 1550.21 Q1554.9 1554.26 1547.31 1554.26 Q1537.32 1554.26 1531.61 1547.09 Q1524.78 1538.47 1524.78 1518.99 M1533.5 1518.99 Q1533.5 1536.01 1537.46 1541.67 Q1541.47 1547.28 1547.31 1547.28 Q1553.16 1547.28 1557.12 1541.63 Q1561.13 1535.97 1561.13 1518.99 Q1561.13 1501.93 1557.12 1496.32 Q1553.16 1490.7 1547.22 1490.7 Q1541.37 1490.7 1537.88 1495.66 Q1533.5 1501.97 1533.5 1518.99 Z" fill="#000000" fill-rule="nonzero" fill-opacity="1" /><path clip-path="url(#clip240)" d="M1583.24 1553.08 L1583.24 1543.42 L1592.91 1543.42 L1592.91 1553.08 L1583.24 1553.08 Z" fill="#000000" fill-rule="nonzero" fill-opacity="1" /><path clip-path="url(#clip240)" d="M1637.27 1553.08 L1628.79 1553.08 L1628.79 1499 Q1625.72 1501.93 1620.72 1504.85 Q1615.77 1507.77 1611.81 1509.23 L1611.81 1501.03 Q1618.93 1497.68 1624.26 1492.92 Q1629.59 1488.16 1631.8 1483.68 L1637.27 1483.68 L1637.27 1553.08 Z" fill="#000000" fill-rule="nonzero" fill-opacity="1" /><path clip-path="url(#clip240)" d="M1652.31 1408.55 Q1652.31 1396.29 1654.81 1388.84 Q1657.36 1381.34 1662.31 1377.29 Q1667.3 1373.23 1674.85 1373.23 Q1680.41 1373.23 1684.61 1375.49 Q1688.8 1377.71 1691.54 1381.95 Q1694.27 1386.15 1695.83 1392.23 Q1697.39 1398.27 1697.39 1408.55 Q1697.39 1420.71 1694.89 1428.21 Q1692.39 1435.66 1687.39 1439.76 Q1682.44 1443.81 1674.85 1443.81 Q1664.85 1443.81 1659.15 1436.65 Q1652.31 1428.02 1652.31 1408.55 M1661.03 1408.55 Q1661.03 1425.57 1664.99 1431.22 Q1669 1436.83 1674.85 1436.83 Q1680.69 1436.83 1684.66 1431.18 Q1688.66 1425.52 1688.66 1408.55 Q1688.66 1391.48 1684.66 1385.87 Q1680.69 1380.26 1674.75 1380.26 Q1668.91 1380.26 1665.42 1385.21 Q1661.03 1391.52 1661.03 1408.55 Z" fill="#000000" fill-rule="nonzero" fill-opacity="1" /><path clip-path="url(#clip240)" d="M1710.78 1442.63 L1710.78 1432.97 L1720.44 1432.97 L1720.44 1442.63 L1710.78 1442.63 Z" fill="#000000" fill-rule="nonzero" fill-opacity="1" /><path clip-path="url(#clip240)" d="M1777.44 1434.48 L1777.44 1442.63 L1731.76 1442.63 Q1731.66 1439.57 1732.75 1436.74 Q1734.49 1432.07 1738.31 1427.55 Q1742.18 1423.02 1749.44 1417.08 Q1760.71 1407.84 1764.67 1402.46 Q1768.63 1397.04 1768.63 1392.23 Q1768.63 1387.19 1765 1383.74 Q1761.41 1380.26 1755.61 1380.26 Q1749.48 1380.26 1745.81 1383.93 Q1742.13 1387.61 1742.08 1394.12 L1733.36 1393.22 Q1734.26 1383.46 1740.1 1378.37 Q1745.95 1373.23 1755.8 1373.23 Q1765.75 1373.23 1771.55 1378.75 Q1777.35 1384.26 1777.35 1392.42 Q1777.35 1396.57 1775.65 1400.58 Q1773.96 1404.58 1769.99 1409.02 Q1766.08 1413.45 1756.93 1421.18 Q1749.3 1427.59 1747.13 1429.9 Q1744.96 1432.17 1743.54 1434.48 L1777.44 1434.48 Z" fill="#000000" fill-rule="nonzero" fill-opacity="1" /><path clip-path="url(#clip240)" d="M1779.85 1298.1 Q1779.85 1285.84 1782.35 1278.39 Q1784.89 1270.89 1789.84 1266.84 Q1794.84 1262.78 1802.38 1262.78 Q1807.95 1262.78 1812.14 1265.04 Q1816.34 1267.26 1819.07 1271.5 Q1821.81 1275.7 1823.37 1281.78 Q1824.92 1287.82 1824.92 1298.1 Q1824.92 1310.26 1822.42 1317.76 Q1819.92 1325.21 1814.93 1329.31 Q1809.98 1333.36 1802.38 1333.36 Q1792.39 1333.36 1786.68 1326.2 Q1779.85 1317.57 1779.85 1298.1 M1788.57 1298.1 Q1788.57 1315.12 1792.53 1320.77 Q1796.54 1326.39 1802.38 1326.39 Q1808.23 1326.39 1812.19 1320.73 Q1816.2 1315.07 1816.2 1298.1 Q1816.2 1281.03 1812.19 1275.42 Q1808.23 1269.81 1802.29 1269.81 Q1796.44 1269.81 1792.95 1274.76 Q1788.57 1281.08 1788.57 1298.1 Z" fill="#000000" fill-rule="nonzero" fill-opacity="1" /><path clip-path="url(#clip240)" d="M1838.31 1332.18 L1838.31 1322.52 L1847.98 1322.52 L1847.98 1332.18 L1838.31 1332.18 Z" fill="#000000" fill-rule="nonzero" fill-opacity="1" /><path clip-path="url(#clip240)" d="M1860.42 1313.94 L1868.91 1312.81 Q1870.37 1320.02 1873.86 1323.23 Q1877.4 1326.39 1882.44 1326.39 Q1888.43 1326.39 1892.53 1322.24 Q1896.68 1318.09 1896.68 1311.96 Q1896.68 1306.11 1892.86 1302.34 Q1889.04 1298.52 1883.15 1298.52 Q1880.75 1298.52 1877.16 1299.46 L1878.1 1292.01 Q1878.95 1292.11 1879.47 1292.11 Q1884.89 1292.11 1889.23 1289.28 Q1893.57 1286.45 1893.57 1280.56 Q1893.57 1275.89 1890.41 1272.82 Q1887.25 1269.76 1882.25 1269.76 Q1877.3 1269.76 1874 1272.87 Q1870.7 1275.98 1869.76 1282.21 L1861.27 1280.7 Q1862.83 1272.16 1868.35 1267.5 Q1873.86 1262.78 1882.07 1262.78 Q1887.72 1262.78 1892.49 1265.23 Q1897.25 1267.64 1899.75 1271.83 Q1902.29 1276.03 1902.29 1280.75 Q1902.29 1285.22 1899.89 1288.9 Q1897.48 1292.58 1892.77 1294.75 Q1898.9 1296.16 1902.29 1300.64 Q1905.69 1305.07 1905.69 1311.77 Q1905.69 1320.82 1899.09 1327.14 Q1892.49 1333.41 1882.4 1333.41 Q1873.3 1333.41 1867.26 1327.99 Q1861.27 1322.57 1860.42 1313.94 Z" fill="#000000" fill-rule="nonzero" fill-opacity="1" /><path clip-path="url(#clip240)" d="M1907.38 1187.65 Q1907.38 1175.39 1909.88 1167.94 Q1912.43 1160.44 1917.38 1156.39 Q1922.38 1152.33 1929.92 1152.33 Q1935.48 1152.33 1939.68 1154.6 Q1943.88 1156.81 1946.61 1161.05 Q1949.35 1165.25 1950.9 1171.33 Q1952.46 1177.37 1952.46 1187.65 Q1952.46 1199.81 1949.96 1207.31 Q1947.46 1214.76 1942.46 1218.86 Q1937.51 1222.91 1929.92 1222.91 Q1919.92 1222.91 1914.22 1215.75 Q1907.38 1207.12 1907.38 1187.65 M1916.11 1187.65 Q1916.11 1204.67 1920.07 1210.33 Q1924.07 1215.94 1929.92 1215.94 Q1935.77 1215.94 1939.73 1210.28 Q1943.73 1204.62 1943.73 1187.65 Q1943.73 1170.58 1939.73 1164.97 Q1935.77 1159.36 1929.83 1159.36 Q1923.98 1159.36 1920.49 1164.31 Q1916.11 1170.63 1916.11 1187.65 Z" fill="#000000" fill-rule="nonzero" fill-opacity="1" /><path clip-path="url(#clip240)" d="M1965.85 1221.74 L1965.85 1212.07 L1975.51 1212.07 L1975.51 1221.74 L1965.85 1221.74 Z" fill="#000000" fill-rule="nonzero" fill-opacity="1" /><path clip-path="url(#clip240)" d="M2015.12 1221.74 L2015.12 1205.19 L1985.13 1205.19 L1985.13 1197.41 L2016.67 1152.62 L2023.6 1152.62 L2023.6 1197.41 L2032.94 1197.41 L2032.94 1205.19 L2023.6 1205.19 L2023.6 1221.74 L2015.12 1221.74 M2015.12 1197.41 L2015.12 1166.24 L1993.48 1197.41 L2015.12 1197.41 Z" fill="#000000" fill-rule="nonzero" fill-opacity="1" /><polyline clip-path="url(#clip240)" style="stroke:#000000; stroke-linecap:round; stroke-linejoin:round; stroke-width:4; stroke-opacity:1; fill:none" points="694.008,1301.67 694.008,520.42 "/>
<polyline clip-path="url(#clip240)" style="stroke:#000000; stroke-linecap:round; stroke-linejoin:round; stroke-width:2; stroke-opacity:0.5; fill:none" points="1926.32,1136.58 1926.32,355.322 "/>
<polyline clip-path="url(#clip240)" style="stroke:#000000; stroke-linecap:round; stroke-linejoin:round; stroke-width:4; stroke-opacity:1; fill:none" points="694.008,1284.52 699.421,1279.83 "/>
<polyline clip-path="url(#clip240)" style="stroke:#000000; stroke-linecap:round; stroke-linejoin:round; stroke-width:4; stroke-opacity:1; fill:none" points="694.008,1127.4 699.421,1122.71 "/>
<polyline clip-path="url(#clip240)" style="stroke:#000000; stroke-linecap:round; stroke-linejoin:round; stroke-width:4; stroke-opacity:1; fill:none" points="694.008,970.278 699.421,965.59 "/>
<polyline clip-path="url(#clip240)" style="stroke:#000000; stroke-linecap:round; stroke-linejoin:round; stroke-width:4; stroke-opacity:1; fill:none" points="694.008,813.157 699.421,808.469 "/>
<polyline clip-path="url(#clip240)" style="stroke:#000000; stroke-linecap:round; stroke-linejoin:round; stroke-width:4; stroke-opacity:1; fill:none" points="694.008,656.036 699.421,651.348 "/>
<path clip-path="url(#clip240)" d="M530.269 1288.95 L484.629 1288.95 L484.629 1281.03 L530.269 1281.03 L530.269 1288.95 Z" fill="#000000" fill-rule="nonzero" fill-opacity="1" /><path clip-path="url(#clip240)" d="M539.651 1284.99 Q539.651 1272.73 542.15 1265.28 Q544.696 1257.79 549.647 1253.73 Q554.645 1249.68 562.188 1249.68 Q567.752 1249.68 571.948 1251.94 Q576.144 1254.16 578.879 1258.4 Q581.614 1262.6 583.17 1268.68 Q584.725 1274.71 584.725 1284.99 Q584.725 1297.16 582.227 1304.65 Q579.728 1312.1 574.73 1316.2 Q569.779 1320.26 562.188 1320.26 Q552.193 1320.26 546.488 1313.09 Q539.651 1304.46 539.651 1284.99 M548.374 1284.99 Q548.374 1302.01 552.334 1307.67 Q556.342 1313.28 562.188 1313.28 Q568.035 1313.28 571.995 1307.62 Q576.003 1301.96 576.003 1284.99 Q576.003 1267.92 571.995 1262.31 Q568.035 1256.7 562.094 1256.7 Q556.248 1256.7 552.759 1261.65 Q548.374 1267.97 548.374 1284.99 Z" fill="#000000" fill-rule="nonzero" fill-opacity="1" /><path clip-path="url(#clip240)" d="M598.116 1319.08 L598.116 1309.41 L607.781 1309.41 L607.781 1319.08 L598.116 1319.08 Z" fill="#000000" fill-rule="nonzero" fill-opacity="1" /><path clip-path="url(#clip240)" d="M647.386 1319.08 L647.386 1302.53 L617.4 1302.53 L617.4 1294.75 L648.942 1249.96 L655.873 1249.96 L655.873 1294.75 L665.208 1294.75 L665.208 1302.53 L655.873 1302.53 L655.873 1319.08 L647.386 1319.08 M647.386 1294.75 L647.386 1263.59 L625.745 1294.75 L647.386 1294.75 Z" fill="#000000" fill-rule="nonzero" fill-opacity="1" /><path clip-path="url(#clip240)" d="M530.693 1131.83 L485.053 1131.83 L485.053 1123.91 L530.693 1123.91 L530.693 1131.83 Z" fill="#000000" fill-rule="nonzero" fill-opacity="1" /><path clip-path="url(#clip240)" d="M540.076 1127.87 Q540.076 1115.61 542.575 1108.16 Q545.121 1100.67 550.071 1096.61 Q555.069 1092.56 562.613 1092.56 Q568.176 1092.56 572.372 1094.82 Q576.569 1097.04 579.303 1101.28 Q582.038 1105.47 583.594 1111.56 Q585.15 1117.59 585.15 1127.87 Q585.15 1140.03 582.651 1147.53 Q580.152 1154.98 575.154 1159.08 Q570.204 1163.14 562.613 1163.14 Q552.617 1163.14 546.912 1155.97 Q540.076 1147.34 540.076 1127.87 M548.798 1127.87 Q548.798 1144.89 552.759 1150.55 Q556.766 1156.16 562.613 1156.16 Q568.459 1156.16 572.42 1150.5 Q576.427 1144.84 576.427 1127.87 Q576.427 1110.8 572.42 1105.19 Q568.459 1099.58 562.518 1099.58 Q556.672 1099.58 553.183 1104.53 Q548.798 1110.85 548.798 1127.87 Z" fill="#000000" fill-rule="nonzero" fill-opacity="1" /><path clip-path="url(#clip240)" d="M598.54 1161.96 L598.54 1152.29 L608.206 1152.29 L608.206 1161.96 L598.54 1161.96 Z" fill="#000000" fill-rule="nonzero" fill-opacity="1" /><path clip-path="url(#clip240)" d="M665.208 1153.8 L665.208 1161.96 L619.521 1161.96 Q619.427 1158.89 620.511 1156.07 Q622.256 1151.4 626.075 1146.87 Q629.941 1142.34 637.202 1136.4 Q648.471 1127.16 652.431 1121.79 Q656.391 1116.37 656.391 1111.56 Q656.391 1106.51 652.761 1103.07 Q649.178 1099.58 643.378 1099.58 Q637.249 1099.58 633.572 1103.26 Q629.894 1106.94 629.847 1113.44 L621.124 1112.55 Q622.02 1102.79 627.867 1097.7 Q633.713 1092.56 643.567 1092.56 Q653.515 1092.56 659.315 1098.07 Q665.114 1103.59 665.114 1111.75 Q665.114 1115.89 663.417 1119.9 Q661.719 1123.91 657.759 1128.34 Q653.845 1132.77 644.699 1140.51 Q637.061 1146.92 634.892 1149.23 Q632.723 1151.49 631.308 1153.8 L665.208 1153.8 Z" fill="#000000" fill-rule="nonzero" fill-opacity="1" /><path clip-path="url(#clip240)" d="M539.604 970.749 Q539.604 958.491 542.103 951.041 Q544.649 943.545 549.6 939.49 Q554.597 935.435 562.141 935.435 Q567.705 935.435 571.901 937.698 Q576.097 939.914 578.832 944.157 Q581.566 948.354 583.122 954.436 Q584.678 960.471 584.678 970.749 Q584.678 982.914 582.179 990.41 Q579.681 997.86 574.683 1001.96 Q569.732 1006.02 562.141 1006.02 Q552.146 1006.02 546.441 998.85 Q539.604 990.222 539.604 970.749 M548.327 970.749 Q548.327 987.77 552.287 993.428 Q556.295 999.039 562.141 999.039 Q567.988 999.039 571.948 993.381 Q575.956 987.723 575.956 970.749 Q575.956 953.682 571.948 948.071 Q567.988 942.46 562.047 942.46 Q556.2 942.46 552.711 947.411 Q548.327 953.729 548.327 970.749 Z" fill="#000000" fill-rule="nonzero" fill-opacity="1" /><path clip-path="url(#clip240)" d="M598.069 1004.84 L598.069 995.172 L607.734 995.172 L607.734 1004.84 L598.069 1004.84 Z" fill="#000000" fill-rule="nonzero" fill-opacity="1" /><path clip-path="url(#clip240)" d="M620.134 970.749 Q620.134 958.491 622.633 951.041 Q625.179 943.545 630.13 939.49 Q635.127 935.435 642.671 935.435 Q648.235 935.435 652.431 937.698 Q656.627 939.914 659.362 944.157 Q662.096 948.354 663.652 954.436 Q665.208 960.471 665.208 970.749 Q665.208 982.914 662.709 990.41 Q660.211 997.86 655.213 1001.96 Q650.262 1006.02 642.671 1006.02 Q632.676 1006.02 626.971 998.85 Q620.134 990.222 620.134 970.749 M628.857 970.749 Q628.857 987.77 632.817 993.428 Q636.825 999.039 642.671 999.039 Q648.518 999.039 652.478 993.381 Q656.486 987.723 656.486 970.749 Q656.486 953.682 652.478 948.071 Q648.518 942.46 642.577 942.46 Q636.73 942.46 633.241 947.411 Q628.857 953.729 628.857 970.749 Z" fill="#000000" fill-rule="nonzero" fill-opacity="1" /><path clip-path="url(#clip240)" d="M540.076 813.628 Q540.076 801.37 542.575 793.92 Q545.121 786.424 550.071 782.369 Q555.069 778.314 562.613 778.314 Q568.176 778.314 572.372 780.577 Q576.569 782.793 579.303 787.037 Q582.038 791.233 583.594 797.315 Q585.15 803.35 585.15 813.628 Q585.15 825.793 582.651 833.289 Q580.152 840.739 575.154 844.841 Q570.204 848.896 562.613 848.896 Q552.617 848.896 546.912 841.729 Q540.076 833.101 540.076 813.628 M548.798 813.628 Q548.798 830.649 552.759 836.307 Q556.766 841.918 562.613 841.918 Q568.459 841.918 572.42 836.26 Q576.427 830.602 576.427 813.628 Q576.427 796.561 572.42 790.95 Q568.459 785.339 562.518 785.339 Q556.672 785.339 553.183 790.29 Q548.798 796.608 548.798 813.628 Z" fill="#000000" fill-rule="nonzero" fill-opacity="1" /><path clip-path="url(#clip240)" d="M598.54 847.717 L598.54 838.051 L608.206 838.051 L608.206 847.717 L598.54 847.717 Z" fill="#000000" fill-rule="nonzero" fill-opacity="1" /><path clip-path="url(#clip240)" d="M665.208 839.56 L665.208 847.717 L619.521 847.717 Q619.427 844.652 620.511 841.823 Q622.256 837.156 626.075 832.629 Q629.941 828.103 637.202 822.162 Q648.471 812.921 652.431 807.546 Q656.391 802.124 656.391 797.315 Q656.391 792.27 652.761 788.828 Q649.178 785.339 643.378 785.339 Q637.249 785.339 633.572 789.017 Q629.894 792.694 629.847 799.201 L621.124 798.305 Q622.02 788.545 627.867 783.453 Q633.713 778.314 643.567 778.314 Q653.515 778.314 659.315 783.83 Q665.114 789.347 665.114 797.504 Q665.114 801.653 663.417 805.66 Q661.719 809.668 657.759 814.1 Q653.845 818.532 644.699 826.264 Q637.061 832.676 634.892 834.987 Q632.723 837.25 631.308 839.56 L665.208 839.56 Z" fill="#000000" fill-rule="nonzero" fill-opacity="1" /><path clip-path="url(#clip240)" d="M539.651 656.507 Q539.651 644.249 542.15 636.799 Q544.696 629.303 549.647 625.248 Q554.645 621.193 562.188 621.193 Q567.752 621.193 571.948 623.456 Q576.144 625.672 578.879 629.916 Q581.614 634.112 583.17 640.194 Q584.725 646.229 584.725 656.507 Q584.725 668.672 582.227 676.168 Q579.728 683.618 574.73 687.72 Q569.779 691.775 562.188 691.775 Q552.193 691.775 546.488 684.608 Q539.651 675.98 539.651 656.507 M548.374 656.507 Q548.374 673.528 552.334 679.186 Q556.342 684.797 562.188 684.797 Q568.035 684.797 571.995 679.139 Q576.003 673.481 576.003 656.507 Q576.003 639.44 571.995 633.829 Q568.035 628.218 562.094 628.218 Q556.248 628.218 552.759 633.169 Q548.374 639.487 548.374 656.507 Z" fill="#000000" fill-rule="nonzero" fill-opacity="1" /><path clip-path="url(#clip240)" d="M598.116 690.596 L598.116 680.93 L607.781 680.93 L607.781 690.596 L598.116 690.596 Z" fill="#000000" fill-rule="nonzero" fill-opacity="1" /><path clip-path="url(#clip240)" d="M647.386 690.596 L647.386 674.047 L617.4 674.047 L617.4 666.267 L648.942 621.476 L655.873 621.476 L655.873 666.267 L665.208 666.267 L665.208 674.047 L655.873 674.047 L655.873 690.596 L647.386 690.596 M647.386 666.267 L647.386 635.102 L625.745 666.267 L647.386 666.267 Z" fill="#000000" fill-rule="nonzero" fill-opacity="1" /><circle clip-path="url(#clip242)" cx="861.895" cy="824.432" r="14.4" fill="#4477aa" fill-rule="evenodd" fill-opacity="1" stroke="#000000" stroke-opacity="1" stroke-width="3.6"/>
<circle clip-path="url(#clip242)" cx="819.418" cy="901.265" r="14.4" fill="#4477aa" fill-rule="evenodd" fill-opacity="1" stroke="#000000" stroke-opacity="1" stroke-width="3.6"/>
<path clip-path="url(#clip242)" d="M1658.18 665.805 L1658.18 697.805 L1690.18 697.805 L1690.18 665.805 L1658.18 665.805 Z" fill="#ee6677" fill-rule="evenodd" fill-opacity="1" stroke="#000000" stroke-opacity="1" stroke-width="3.6"/>
<path clip-path="url(#clip242)" d="M1602.27 1339.71 L1602.27 1371.71 L1634.27 1371.71 L1634.27 1339.71 L1602.27 1339.71 Z" fill="#ee6677" fill-rule="evenodd" fill-opacity="1" stroke="#000000" stroke-opacity="1" stroke-width="3.6"/>
<path clip-path="url(#clip242)" d="M1542.98 1256.8 L1542.98 1288.8 L1574.98 1288.8 L1574.98 1256.8 L1542.98 1256.8 Z" fill="#ee6677" fill-rule="evenodd" fill-opacity="1" stroke="#000000" stroke-opacity="1" stroke-width="3.6"/>
<circle clip-path="url(#clip242)" cx="1177.84" cy="689.889" r="14.4" fill="#ee6677" fill-rule="evenodd" fill-opacity="1" stroke="#000000" stroke-opacity="1" stroke-width="3.6"/>
<path clip-path="url(#clip242)" d="M1488.73 363.849 L1488.73 395.849 L1520.73 395.849 L1520.73 363.849 L1488.73 363.849 Z" fill="#ee6677" fill-rule="evenodd" fill-opacity="1" stroke="#000000" stroke-opacity="1" stroke-width="3.6"/>
<path clip-path="url(#clip242)" d="M986.214 285.149 L986.214 317.149 L1018.21 317.149 L1018.21 285.149 L986.214 285.149 Z" fill="#ee6677" fill-rule="evenodd" fill-opacity="1" stroke="#000000" stroke-opacity="1" stroke-width="3.6"/>
<path clip-path="url(#clip242)" d="M1490.63 1197.6 L1490.63 1229.6 L1522.63 1229.6 L1522.63 1197.6 L1490.63 1197.6 Z" fill="#ee6677" fill-rule="evenodd" fill-opacity="1" stroke="#000000" stroke-opacity="1" stroke-width="3.6"/>
<path clip-path="url(#clip242)" d="M1358.7 295.134 L1358.7 327.134 L1390.7 327.134 L1390.7 295.134 L1358.7 295.134 Z" fill="#ee6677" fill-rule="evenodd" fill-opacity="1" stroke="#000000" stroke-opacity="1" stroke-width="3.6"/>
<path clip-path="url(#clip242)" d="M1670.88 1038.66 L1670.88 1070.66 L1702.88 1070.66 L1702.88 1038.66 L1670.88 1038.66 Z" fill="#ee6677" fill-rule="evenodd" fill-opacity="1" stroke="#000000" stroke-opacity="1" stroke-width="3.6"/>
<path clip-path="url(#clip240)" d="M1933.43 449.248 L2283.25 449.248 L2283.25 99.3277 L1933.43 99.3277  Z" fill="#ffffff" fill-rule="evenodd" fill-opacity="1"/>
<polyline clip-path="url(#clip240)" style="stroke:#000000; stroke-linecap:round; stroke-linejoin:round; stroke-width:4; stroke-opacity:1; fill:none" points="1933.43,449.248 2283.25,449.248 2283.25,99.3277 1933.43,99.3277 1933.43,449.248 "/>
<circle clip-path="url(#clip240)" cx="2026.1" cy="215.968" r="46.08" fill="#4477aa" fill-rule="evenodd" fill-opacity="1" stroke="#000000" stroke-opacity="1" stroke-width="11.52"/>
<path clip-path="url(#clip240)" d="M2118.78 216.498 Q2118.78 202.707 2121.59 194.326 Q2124.45 185.893 2130.02 181.331 Q2135.64 176.769 2144.13 176.769 Q2150.39 176.769 2155.11 179.315 Q2159.83 181.808 2162.91 186.582 Q2165.98 191.303 2167.73 198.145 Q2169.48 204.935 2169.48 216.498 Q2169.48 230.183 2166.67 238.617 Q2163.86 246.997 2158.24 251.612 Q2152.67 256.174 2144.13 256.174 Q2132.89 256.174 2126.47 248.111 Q2118.78 238.405 2118.78 216.498 M2128.59 216.498 Q2128.59 235.646 2133.04 242.011 Q2137.55 248.323 2144.13 248.323 Q2150.71 248.323 2155.16 241.958 Q2159.67 235.593 2159.67 216.498 Q2159.67 197.297 2155.16 190.985 Q2150.71 184.673 2144.02 184.673 Q2137.45 184.673 2133.52 190.242 Q2128.59 197.35 2128.59 216.498 Z" fill="#000000" fill-rule="nonzero" fill-opacity="1" /><path clip-path="url(#clip240)" d="M2184.55 254.848 L2184.55 243.974 L2195.42 243.974 L2195.42 254.848 L2184.55 254.848 Z" fill="#000000" fill-rule="nonzero" fill-opacity="1" /><path clip-path="url(#clip240)" d="M2209.37 216.498 Q2209.37 202.707 2212.18 194.326 Q2215.05 185.893 2220.62 181.331 Q2226.24 176.769 2234.73 176.769 Q2240.99 176.769 2245.71 179.315 Q2250.43 181.808 2253.5 186.582 Q2256.58 191.303 2258.33 198.145 Q2260.08 204.935 2260.08 216.498 Q2260.08 230.183 2257.27 238.617 Q2254.46 246.997 2248.84 251.612 Q2243.27 256.174 2234.73 256.174 Q2223.48 256.174 2217.06 248.111 Q2209.37 238.405 2209.37 216.498 M2219.19 216.498 Q2219.19 235.646 2223.64 242.011 Q2228.15 248.323 2234.73 248.323 Q2241.3 248.323 2245.76 241.958 Q2250.27 235.593 2250.27 216.498 Q2250.27 197.297 2245.76 190.985 Q2241.3 184.673 2234.62 184.673 Q2228.04 184.673 2224.12 190.242 Q2219.19 197.35 2219.19 216.498 Z" fill="#000000" fill-rule="nonzero" fill-opacity="1" /><path clip-path="url(#clip240)" d="M1974.9 281.408 L1974.9 383.808 L2077.3 383.808 L2077.3 281.408 L1974.9 281.408 Z" fill="#ee6677" fill-rule="evenodd" fill-opacity="1" stroke="#000000" stroke-opacity="1" stroke-width="11.52"/>
<path clip-path="url(#clip240)" d="M2147.42 371.488 L2137.87 371.488 L2137.87 310.648 Q2134.42 313.937 2128.8 317.225 Q2123.23 320.514 2118.78 322.158 L2118.78 312.929 Q2126.79 309.163 2132.78 303.806 Q2138.77 298.448 2141.27 293.409 L2147.42 293.409 L2147.42 371.488 Z" fill="#000000" fill-rule="nonzero" fill-opacity="1" /><path clip-path="url(#clip240)" d="M2177.23 371.488 L2177.23 360.614 L2188.1 360.614 L2188.1 371.488 L2177.23 371.488 Z" fill="#000000" fill-rule="nonzero" fill-opacity="1" /><path clip-path="url(#clip240)" d="M2202.05 333.138 Q2202.05 319.347 2204.86 310.966 Q2207.73 302.533 2213.3 297.971 Q2218.92 293.409 2227.41 293.409 Q2233.67 293.409 2238.39 295.955 Q2243.11 298.448 2246.18 303.222 Q2249.26 307.943 2251.01 314.785 Q2252.76 321.575 2252.76 333.138 Q2252.76 346.823 2249.95 355.257 Q2247.14 363.637 2241.52 368.252 Q2235.95 372.814 2227.41 372.814 Q2216.16 372.814 2209.74 364.751 Q2202.05 355.045 2202.05 333.138 M2211.87 333.138 Q2211.87 352.286 2216.32 358.651 Q2220.83 364.963 2227.41 364.963 Q2233.98 364.963 2238.44 358.598 Q2242.95 352.233 2242.95 333.138 Q2242.95 313.937 2238.44 307.625 Q2233.98 301.313 2227.3 301.313 Q2220.72 301.313 2216.8 306.882 Q2211.87 313.99 2211.87 333.138 Z" fill="#000000" fill-rule="nonzero" fill-opacity="1" /></svg>
