<?xml version="1.0" encoding="utf-8"?>
<svg xmlns="http://www.w3.org/2000/svg" xmlns:xlink="http://www.w3.org/1999/xlink" width="600" height="450" viewBox="0 0 2400 1800">
<defs>
  <clipPath id="clip090">
    <rect x="0" y="0" width="2400" height="1800"/>
  </clipPath>
</defs>
<path clip-path="url(#clip090)" d="M0 1800 L2400 1800 L2400 0 L0 0  Z" fill="#ffffff" fill-rule="evenodd" fill-opacity="1"/>
<defs>
  <clipPath id="clip091">
    <rect x="480" y="0" width="1681" height="1681"/>
  </clipPath>
</defs>
<path clip-path="url(#clip090)" d="M370.281 1506.52 L2352.76 1506.52 L2352.76 47.2441 L370.281 47.2441  Z" fill="#ffffff" fill-rule="evenodd" fill-opacity="1"/>
<defs>
  <clipPath id="clip092">
    <rect x="370" y="47" width="1983" height="1460"/>
  </clipPath>
</defs>
<polyline clip-path="url(#clip092)" style="stroke:#000000; stroke-linecap:round; stroke-linejoin:round; stroke-width:2; stroke-opacity:0.1; fill:none" points="413.027,1506.52 413.027,47.2441 "/>
<polyline clip-path="url(#clip092)" style="stroke:#000000; stroke-linecap:round; stroke-linejoin:round; stroke-width:2; stroke-opacity:0.1; fill:none" points="886.912,1506.52 886.912,47.2441 "/>
<polyline clip-path="url(#clip092)" style="stroke:#000000; stroke-linecap:round; stroke-linejoin:round; stroke-width:2; stroke-opacity:0.1; fill:none" points="1360.8,1506.52 1360.8,47.2441 "/>
<polyline clip-path="url(#clip092)" style="stroke:#000000; stroke-linecap:round; stroke-linejoin:round; stroke-width:2; stroke-opacity:0.1; fill:none" points="1834.68,1506.52 1834.68,47.2441 "/>
<polyline clip-path="url(#clip092)" style="stroke:#000000; stroke-linecap:round; stroke-linejoin:round; stroke-width:2; stroke-opacity:0.1; fill:none" points="2308.57,1506.52 2308.57,47.2441 "/>
<polyline clip-path="url(#clip092)" style="stroke:#000000; stroke-linecap:round; stroke-linejoin:round; stroke-width:2; stroke-opacity:0.1; fill:none" points="370.281,1466.29 2352.76,1466.29 "/>
<polyline clip-path="url(#clip092)" style="stroke:#000000; stroke-linecap:round; stroke-linejoin:round; stroke-width:2; stroke-opacity:0.1; fill:none" points="370.281,1119.74 2352.76,1119.74 "/>
<polyline clip-path="url(#clip092)" style="stroke:#000000; stroke-linecap:round; stroke-linejoin:round; stroke-width:2; stroke-opacity:0.1; fill:none" points="370.281,773.188 2352.76,773.188 "/>
<polyline clip-path="url(#clip092)" style="stroke:#000000; stroke-linecap:round; stroke-linejoin:round; stroke-width:2; stroke-opacity:0.1; fill:none" points="370.281,426.635 2352.76,426.635 "/>
<polyline clip-path="url(#clip092)" style="stroke:#000000; stroke-linecap:round; stroke-linejoin:round; stroke-width:2; stroke-opacity:0.1; fill:none" points="370.281,80.0817 2352.76,80.0817 "/>
<polyline clip-path="url(#clip090)" style="stroke:#000000; stroke-linecap:round; stroke-linejoin:round; stroke-width:4; stroke-opacity:1; fill:none" points="370.281,1506.52 2352.76,1506.52 "/>
<polyline clip-path="url(#clip090)" style="stroke:#000000; stroke-linecap:round; stroke-linejoin:round; stroke-width:2; stroke-opacity:0.5; fill:none" points="370.281,47.2441 2352.76,47.2441 "/>
<polyline clip-path="url(#clip090)" style="stroke:#000000; stroke-linecap:round; stroke-linejoin:round; stroke-width:4; stroke-opacity:1; fill:none" points="413.027,1506.52 413.027,1487.63 "/>
<polyline clip-path="url(#clip090)" style="stroke:#000000; stroke-linecap:round; stroke-linejoin:round; stroke-width:4; stroke-opacity:1; fill:none" points="886.912,1506.52 886.912,1487.63 "/>
<polyline clip-path="url(#clip090)" style="stroke:#000000; stroke-linecap:round; stroke-linejoin:round; stroke-width:4; stroke-opacity:1; fill:none" points="1360.8,1506.52 1360.8,1487.63 "/>
<polyline clip-path="url(#clip090)" style="stroke:#000000; stroke-linecap:round; stroke-linejoin:round; stroke-width:4; stroke-opacity:1; fill:none" points="1834.68,1506.52 1834.68,1487.63 "/>
<polyline clip-path="url(#clip090)" style="stroke:#000000; stroke-linecap:round; stroke-linejoin:round; stroke-width:4; stroke-opacity:1; fill:none" points="2308.57,1506.52 2308.57,1487.63 "/>
<path clip-path="url(#clip090)" d="M323.374 1578.04 Q323.374 1565.78 325.873 1558.33 Q328.419 1550.83 333.369 1546.78 Q338.367 1542.72 345.911 1542.72 Q351.474 1542.72 355.671 1544.98 Q359.867 1547.2 362.602 1551.44 Q365.336 1555.64 366.892 1561.72 Q368.448 1567.76 368.448 1578.04 Q368.448 1590.2 365.949 1597.7 Q363.45 1605.15 358.452 1609.25 Q353.502 1613.3 345.911 1613.3 Q335.915 1613.3 330.21 1606.14 Q323.374 1597.51 323.374 1578.04 M332.096 1578.04 Q332.096 1595.06 336.057 1600.71 Q340.064 1606.32 345.911 1606.32 Q351.757 1606.32 355.718 1600.67 Q359.725 1595.01 359.725 1578.04 Q359.725 1560.97 355.718 1555.36 Q351.757 1549.75 345.817 1549.75 Q339.97 1549.75 336.481 1554.7 Q332.096 1561.01 332.096 1578.04 Z" fill="#000000" fill-rule="nonzero" fill-opacity="1" /><path clip-path="url(#clip090)" d="M381.838 1612.12 L381.838 1602.46 L391.504 1602.46 L391.504 1612.12 L381.838 1612.12 Z" fill="#000000" fill-rule="nonzero" fill-opacity="1" /><path clip-path="url(#clip090)" d="M403.904 1578.04 Q403.904 1565.78 406.403 1558.33 Q408.949 1550.83 413.899 1546.78 Q418.897 1542.72 426.441 1542.72 Q432.004 1542.72 436.201 1544.98 Q440.397 1547.2 443.132 1551.44 Q445.866 1555.64 447.422 1561.72 Q448.978 1567.76 448.978 1578.04 Q448.978 1590.2 446.479 1597.7 Q443.98 1605.15 438.982 1609.25 Q434.032 1613.3 426.441 1613.3 Q416.445 1613.3 410.74 1606.14 Q403.904 1597.51 403.904 1578.04 M412.626 1578.04 Q412.626 1595.06 416.587 1600.71 Q420.594 1606.32 426.441 1606.32 Q432.287 1606.32 436.248 1600.67 Q440.255 1595.01 440.255 1578.04 Q440.255 1560.97 436.248 1555.36 Q432.287 1549.75 426.347 1549.75 Q420.5 1549.75 417.011 1554.7 Q412.626 1561.01 412.626 1578.04 Z" fill="#000000" fill-rule="nonzero" fill-opacity="1" /><path clip-path="url(#clip090)" d="M457.606 1578.04 Q457.606 1565.78 460.105 1558.33 Q462.651 1550.83 467.602 1546.78 Q472.599 1542.72 480.143 1542.72 Q485.707 1542.72 489.903 1544.98 Q494.099 1547.2 496.834 1551.44 Q499.569 1555.64 501.124 1561.72 Q502.68 1567.76 502.68 1578.04 Q502.68 1590.2 500.181 1597.7 Q497.683 1605.15 492.685 1609.25 Q487.734 1613.3 480.143 1613.3 Q470.148 1613.3 464.443 1606.14 Q457.606 1597.51 457.606 1578.04 M466.329 1578.04 Q466.329 1595.06 470.289 1600.71 Q474.297 1606.32 480.143 1606.32 Q485.99 1606.32 489.95 1600.67 Q493.958 1595.01 493.958 1578.04 Q493.958 1560.97 489.95 1555.36 Q485.99 1549.75 480.049 1549.75 Q474.203 1549.75 470.714 1554.7 Q466.329 1561.01 466.329 1578.04 Z" fill="#000000" fill-rule="nonzero" fill-opacity="1" /><path clip-path="url(#clip090)" d="M796.882 1578.04 Q796.882 1565.78 799.381 1558.33 Q801.927 1550.83 806.878 1546.78 Q811.875 1542.72 819.419 1542.72 Q824.983 1542.72 829.179 1544.98 Q833.375 1547.2 836.11 1551.44 Q838.844 1555.64 840.4 1561.72 Q841.956 1567.76 841.956 1578.04 Q841.956 1590.2 839.457 1597.7 Q836.958 1605.15 831.961 1609.25 Q827.01 1613.3 819.419 1613.3 Q809.424 1613.3 803.719 1606.14 Q796.882 1597.51 796.882 1578.04 M805.605 1578.04 Q805.605 1595.06 809.565 1600.71 Q813.573 1606.32 819.419 1606.32 Q825.266 1606.32 829.226 1600.67 Q833.234 1595.01 833.234 1578.04 Q833.234 1560.97 829.226 1555.36 Q825.266 1549.75 819.325 1549.75 Q813.478 1549.75 809.989 1554.7 Q805.605 1561.01 805.605 1578.04 Z" fill="#000000" fill-rule="nonzero" fill-opacity="1" /><path clip-path="url(#clip090)" d="M855.346 1612.12 L855.346 1602.46 L865.012 1602.46 L865.012 1612.12 L855.346 1612.12 Z" fill="#000000" fill-rule="nonzero" fill-opacity="1" /><path clip-path="url(#clip090)" d="M922.015 1603.97 L922.015 1612.12 L876.328 1612.12 Q876.233 1609.06 877.318 1606.23 Q879.062 1601.56 882.881 1597.04 Q886.747 1592.51 894.008 1586.57 Q905.277 1577.33 909.237 1571.95 Q913.198 1566.53 913.198 1561.72 Q913.198 1556.68 909.567 1553.24 Q905.984 1549.75 900.185 1549.75 Q894.056 1549.75 890.378 1553.42 Q886.7 1557.1 886.653 1563.61 L877.931 1562.71 Q878.826 1552.95 884.673 1547.86 Q890.519 1542.72 900.373 1542.72 Q910.322 1542.72 916.121 1548.24 Q921.92 1553.75 921.92 1561.91 Q921.92 1566.06 920.223 1570.07 Q918.526 1574.07 914.565 1578.51 Q910.652 1582.94 901.505 1590.67 Q893.867 1597.08 891.698 1599.39 Q889.529 1601.66 888.115 1603.97 L922.015 1603.97 Z" fill="#000000" fill-rule="nonzero" fill-opacity="1" /><path clip-path="url(#clip090)" d="M931.114 1594.02 L940.025 1593.26 Q941.016 1599.77 944.599 1603.07 Q948.229 1606.32 953.321 1606.32 Q959.451 1606.32 963.694 1601.7 Q967.938 1597.08 967.938 1589.45 Q967.938 1582.18 963.836 1577.99 Q959.781 1573.79 953.18 1573.79 Q949.078 1573.79 945.778 1575.68 Q942.477 1577.52 940.591 1580.49 L932.623 1579.45 L939.318 1543.95 L973.69 1543.95 L973.69 1552.06 L946.108 1552.06 L942.383 1570.63 Q948.607 1566.3 955.443 1566.3 Q964.496 1566.3 970.719 1572.57 Q976.943 1578.84 976.943 1588.69 Q976.943 1598.07 971.474 1604.91 Q964.826 1613.3 953.321 1613.3 Q943.892 1613.3 937.904 1608.02 Q931.963 1602.74 931.114 1594.02 Z" fill="#000000" fill-rule="nonzero" fill-opacity="1" /><path clip-path="url(#clip090)" d="M1271.14 1578.04 Q1271.14 1565.78 1273.64 1558.33 Q1276.19 1550.83 1281.14 1546.78 Q1286.14 1542.72 1293.68 1542.72 Q1299.25 1542.72 1303.44 1544.98 Q1307.64 1547.2 1310.37 1551.44 Q1313.11 1555.64 1314.66 1561.72 Q1316.22 1567.76 1316.22 1578.04 Q1316.22 1590.2 1313.72 1597.7 Q1311.22 1605.15 1306.22 1609.25 Q1301.27 1613.3 1293.68 1613.3 Q1283.69 1613.3 1277.98 1606.14 Q1271.14 1597.51 1271.14 1578.04 M1279.87 1578.04 Q1279.87 1595.06 1283.83 1600.71 Q1287.84 1606.32 1293.68 1606.32 Q1299.53 1606.32 1303.49 1600.67 Q1307.5 1595.01 1307.5 1578.04 Q1307.5 1560.97 1303.49 1555.36 Q1299.53 1549.75 1293.59 1549.75 Q1287.74 1549.75 1284.25 1554.7 Q1279.87 1561.01 1279.87 1578.04 Z" fill="#000000" fill-rule="nonzero" fill-opacity="1" /><path clip-path="url(#clip090)" d="M1329.61 1612.12 L1329.61 1602.46 L1339.27 1602.46 L1339.27 1612.12 L1329.61 1612.12 Z" fill="#000000" fill-rule="nonzero" fill-opacity="1" /><path clip-path="url(#clip090)" d="M1351.67 1594.02 L1360.59 1593.26 Q1361.58 1599.77 1365.16 1603.07 Q1368.79 1606.32 1373.88 1606.32 Q1380.01 1606.32 1384.25 1601.7 Q1388.5 1597.08 1388.5 1589.45 Q1388.5 1582.18 1384.4 1577.99 Q1380.34 1573.79 1373.74 1573.79 Q1369.64 1573.79 1366.34 1575.68 Q1363.04 1577.52 1361.15 1580.49 L1353.18 1579.45 L1359.88 1543.95 L1394.25 1543.95 L1394.25 1552.06 L1366.67 1552.06 L1362.94 1570.63 Q1369.17 1566.3 1376 1566.3 Q1385.06 1566.3 1391.28 1572.57 Q1397.5 1578.84 1397.5 1588.69 Q1397.5 1598.07 1392.03 1604.91 Q1385.39 1613.3 1373.88 1613.3 Q1364.45 1613.3 1358.46 1608.02 Q1352.52 1602.74 1351.67 1594.02 Z" fill="#000000" fill-rule="nonzero" fill-opacity="1" /><path clip-path="url(#clip090)" d="M1405.38 1578.04 Q1405.38 1565.78 1407.88 1558.33 Q1410.42 1550.83 1415.37 1546.78 Q1420.37 1542.72 1427.91 1542.72 Q1433.48 1542.72 1437.67 1544.98 Q1441.87 1547.2 1444.6 1551.44 Q1447.34 1555.64 1448.9 1561.72 Q1450.45 1567.76 1450.45 1578.04 Q1450.45 1590.2 1447.95 1597.7 Q1445.45 1605.15 1440.46 1609.25 Q1435.5 1613.3 1427.91 1613.3 Q1417.92 1613.3 1412.21 1606.14 Q1405.38 1597.51 1405.38 1578.04 M1414.1 1578.04 Q1414.1 1595.06 1418.06 1600.71 Q1422.07 1606.32 1427.91 1606.32 Q1433.76 1606.32 1437.72 1600.67 Q1441.73 1595.01 1441.73 1578.04 Q1441.73 1560.97 1437.72 1555.36 Q1433.76 1549.75 1427.82 1549.75 Q1421.97 1549.75 1418.48 1554.7 Q1414.1 1561.01 1414.1 1578.04 Z" fill="#000000" fill-rule="nonzero" fill-opacity="1" /><path clip-path="url(#clip090)" d="M1744.65 1578.04 Q1744.65 1565.78 1747.15 1558.33 Q1749.7 1550.83 1754.65 1546.78 Q1759.65 1542.72 1767.19 1542.72 Q1772.75 1542.72 1776.95 1544.98 Q1781.15 1547.2 1783.88 1551.44 Q1786.62 1555.64 1788.17 1561.72 Q1789.73 1567.76 1789.73 1578.04 Q1789.73 1590.2 1787.23 1597.7 Q1784.73 1605.15 1779.73 1609.25 Q1774.78 1613.3 1767.19 1613.3 Q1757.19 1613.3 1751.49 1606.14 Q1744.65 1597.51 1744.65 1578.04 M1753.38 1578.04 Q1753.38 1595.06 1757.34 1600.71 Q1761.34 1606.32 1767.19 1606.32 Q1773.04 1606.32 1777 1600.67 Q1781 1595.01 1781 1578.04 Q1781 1560.97 1777 1555.36 Q1773.04 1549.75 1767.1 1549.75 Q1761.25 1549.75 1757.76 1554.7 Q1753.38 1561.01 1753.38 1578.04 Z" fill="#000000" fill-rule="nonzero" fill-opacity="1" /><path clip-path="url(#clip090)" d="M1803.12 1612.12 L1803.12 1602.46 L1812.78 1602.46 L1812.78 1612.12 L1803.12 1612.12 Z" fill="#000000" fill-rule="nonzero" fill-opacity="1" /><path clip-path="url(#clip090)" d="M1825.75 1552.06 L1825.75 1543.9 L1870.49 1543.9 L1870.49 1550.5 Q1863.89 1557.53 1857.39 1569.17 Q1850.93 1580.82 1847.39 1593.12 Q1844.84 1601.8 1844.14 1612.12 L1835.41 1612.12 Q1835.56 1603.97 1838.62 1592.42 Q1841.68 1580.86 1847.39 1570.16 Q1853.14 1559.41 1859.6 1552.06 L1825.75 1552.06 Z" fill="#000000" fill-rule="nonzero" fill-opacity="1" /><path clip-path="url(#clip090)" d="M1878.89 1594.02 L1887.8 1593.26 Q1888.79 1599.77 1892.37 1603.07 Q1896 1606.32 1901.09 1606.32 Q1907.22 1606.32 1911.46 1601.7 Q1915.71 1597.08 1915.71 1589.45 Q1915.71 1582.18 1911.61 1577.99 Q1907.55 1573.79 1900.95 1573.79 Q1896.85 1573.79 1893.55 1575.68 Q1890.25 1577.52 1888.36 1580.49 L1880.39 1579.45 L1887.09 1543.95 L1921.46 1543.95 L1921.46 1552.06 L1893.88 1552.06 L1890.15 1570.63 Q1896.38 1566.3 1903.21 1566.3 Q1912.27 1566.3 1918.49 1572.57 Q1924.71 1578.84 1924.71 1588.69 Q1924.71 1598.07 1919.24 1604.91 Q1912.6 1613.3 1901.09 1613.3 Q1891.66 1613.3 1885.67 1608.02 Q1879.73 1602.74 1878.89 1594.02 Z" fill="#000000" fill-rule="nonzero" fill-opacity="1" /><path clip-path="url(#clip090)" d="M2247.63 1612.12 L2239.14 1612.12 L2239.14 1558.04 Q2236.08 1560.97 2231.08 1563.89 Q2226.13 1566.81 2222.17 1568.28 L2222.17 1560.07 Q2229.29 1556.72 2234.62 1551.96 Q2239.94 1547.2 2242.16 1542.72 L2247.63 1542.72 L2247.63 1612.12 Z" fill="#000000" fill-rule="nonzero" fill-opacity="1" /><path clip-path="url(#clip090)" d="M2274.13 1612.12 L2274.13 1602.46 L2283.79 1602.46 L2283.79 1612.12 L2274.13 1612.12 Z" fill="#000000" fill-rule="nonzero" fill-opacity="1" /><path clip-path="url(#clip090)" d="M2296.19 1578.04 Q2296.19 1565.78 2298.69 1558.33 Q2301.24 1550.83 2306.19 1546.78 Q2311.19 1542.72 2318.73 1542.72 Q2324.29 1542.72 2328.49 1544.98 Q2332.69 1547.2 2335.42 1551.44 Q2338.15 1555.64 2339.71 1561.72 Q2341.27 1567.76 2341.27 1578.04 Q2341.27 1590.2 2338.77 1597.7 Q2336.27 1605.15 2331.27 1609.25 Q2326.32 1613.3 2318.73 1613.3 Q2308.73 1613.3 2303.03 1606.14 Q2296.19 1597.51 2296.19 1578.04 M2304.91 1578.04 Q2304.91 1595.06 2308.88 1600.71 Q2312.88 1606.32 2318.73 1606.32 Q2324.58 1606.32 2328.54 1600.67 Q2332.54 1595.01 2332.54 1578.04 Q2332.54 1560.97 2328.54 1555.36 Q2324.58 1549.75 2318.63 1549.75 Q2312.79 1549.75 2309.3 1554.7 Q2304.91 1561.01 2304.91 1578.04 Z" fill="#000000" fill-rule="nonzero" fill-opacity="1" /><path clip-path="url(#clip090)" d="M2349.89 1578.04 Q2349.89 1565.78 2352.39 1558.33 Q2354.94 1550.83 2359.89 1546.78 Q2364.89 1542.72 2372.43 1542.72 Q2378 1542.72 2382.19 1544.98 Q2386.39 1547.2 2389.12 1551.44 Q2391.86 1555.64 2393.41 1561.72 Q2394.97 1567.76 2394.97 1578.04 Q2394.97 1590.2 2392.47 1597.7 Q2389.97 1605.15 2384.97 1609.25 Q2380.02 1613.3 2372.43 1613.3 Q2362.44 1613.3 2356.73 1606.14 Q2349.89 1597.51 2349.89 1578.04 M2358.62 1578.04 Q2358.62 1595.06 2362.58 1600.71 Q2366.59 1606.32 2372.43 1606.32 Q2378.28 1606.32 2382.24 1600.67 Q2386.25 1595.01 2386.25 1578.04 Q2386.25 1560.97 2382.24 1555.36 Q2378.28 1549.75 2372.34 1549.75 Q2366.49 1549.75 2363 1554.7 Q2358.62 1561.01 2358.62 1578.04 Z" fill="#000000" fill-rule="nonzero" fill-opacity="1" /><path clip-path="url(#clip090)" d="M1310.72 1700.96 L1310.72 1697.64 Q1319.15 1697.64 1324.53 1691.15 Q1324.53 1691.15 1334.65 1678.3 L1323.95 1664.38 Q1320.15 1659.53 1318.47 1658.69 Q1316.83 1657.8 1311.25 1657.8 L1311.25 1654.42 Q1315.67 1654.74 1321.47 1654.74 Q1324.69 1654.74 1333.17 1654.42 L1333.17 1657.8 Q1329.38 1658.01 1329.38 1660.48 Q1329.38 1661.33 1330.32 1662.43 L1338.76 1673.34 L1345.45 1664.91 Q1347.08 1662.96 1347.08 1661.12 Q1347.08 1658.11 1343.92 1657.8 L1343.92 1654.42 Q1348.14 1654.74 1354.3 1654.74 Q1358.94 1654.74 1363.16 1654.42 L1363.16 1657.8 Q1354.94 1658.01 1350.3 1663.38 Q1348.24 1665.65 1340.39 1675.61 L1354.83 1694.26 Q1356.57 1696.53 1358.52 1697.11 Q1360.47 1697.64 1365.11 1697.64 L1365.11 1700.96 Q1360.26 1700.64 1354.73 1700.64 Q1352.78 1700.64 1343.08 1700.96 L1343.08 1697.64 Q1345.03 1697.53 1345.98 1696.69 Q1346.98 1695.79 1346.98 1694.9 Q1346.98 1694.48 1344.71 1691.37 L1336.49 1680.56 Q1328.27 1690.26 1327.22 1692.53 Q1326.79 1693.47 1326.79 1694.26 Q1326.79 1697.16 1329.9 1697.64 L1329.9 1700.96 Q1322.16 1700.64 1319.68 1700.64 Q1314.94 1700.64 1310.72 1700.96 Z" fill="#000000" fill-rule="nonzero" fill-opacity="1" /><path clip-path="url(#clip090)" d="M1376.1 1687.73 L1376.1 1685.37 Q1385.17 1685.37 1389.86 1680.54 Q1391.15 1680.54 1391.37 1680.83 Q1391.59 1681.13 1391.59 1682.49 L1391.59 1724.88 Q1391.59 1727.13 1392.7 1727.83 Q1393.81 1728.53 1398.64 1728.53 L1401.04 1728.53 L1401.04 1730.86 Q1398.38 1730.63 1388.79 1730.63 Q1379.2 1730.63 1376.58 1730.86 L1376.58 1728.53 L1378.98 1728.53 Q1383.74 1728.53 1384.88 1727.87 Q1386.02 1727.17 1386.02 1724.88 L1386.02 1685.74 Q1382.08 1687.73 1376.1 1687.73 Z" fill="#000000" fill-rule="nonzero" fill-opacity="1" /><polyline clip-path="url(#clip090)" style="stroke:#000000; stroke-linecap:round; stroke-linejoin:round; stroke-width:4; stroke-opacity:1; fill:none" points="370.281,1506.52 370.281,47.2441 "/>
<polyline clip-path="url(#clip090)" style="stroke:#000000; stroke-linecap:round; stroke-linejoin:round; stroke-width:2; stroke-opacity:0.5; fill:none" points="2352.76,1506.52 2352.76,47.2441 "/>
<polyline clip-path="url(#clip090)" style="stroke:#000000; stroke-linecap:round; stroke-linejoin:round; stroke-width:4; stroke-opacity:1; fill:none" points="370.281,1466.29 389.179,1466.29 "/>
<polyline clip-path="url(#clip090)" style="stroke:#000000; stroke-linecap:round; stroke-linejoin:round; stroke-width:4; stroke-opacity:1; fill:none" points="370.281,1119.74 389.179,1119.74 "/>
<polyline clip-path="url(#clip090)" style="stroke:#000000; stroke-linecap:round; stroke-linejoin:round; stroke-width:4; stroke-opacity:1; fill:none" points="370.281,773.188 389.179,773.188 "/>
<polyline clip-path="url(#clip090)" style="stroke:#000000; stroke-linecap:round; stroke-linejoin:round; stroke-width:4; stroke-opacity:1; fill:none" points="370.281,426.635 389.179,426.635 "/>
<polyline clip-path="url(#clip090)" style="stroke:#000000; stroke-linecap:round; stroke-linejoin:round; stroke-width:4; stroke-opacity:1; fill:none" points="370.281,80.0817 389.179,80.0817 "/>
<path clip-path="url(#clip090)" d="M154.975 1466.77 Q154.975 1454.51 157.473 1447.06 Q160.019 1439.56 164.97 1435.51 Q169.968 1431.45 177.512 1431.45 Q183.075 1431.45 187.271 1433.71 Q191.468 1435.93 194.202 1440.17 Q196.937 1444.37 198.493 1450.45 Q200.049 1456.49 200.049 1466.77 Q200.049 1478.93 197.55 1486.43 Q195.051 1493.88 190.053 1497.98 Q185.103 1502.03 177.512 1502.03 Q167.516 1502.03 161.811 1494.87 Q154.975 1486.24 154.975 1466.77 M163.697 1466.77 Q163.697 1483.79 167.658 1489.44 Q171.665 1495.05 177.512 1495.05 Q183.358 1495.05 187.319 1489.4 Q191.326 1483.74 191.326 1466.77 Q191.326 1449.7 187.319 1444.09 Q183.358 1438.48 177.417 1438.48 Q171.571 1438.48 168.082 1443.43 Q163.697 1449.74 163.697 1466.77 Z" fill="#000000" fill-rule="nonzero" fill-opacity="1" /><path clip-path="url(#clip090)" d="M213.439 1500.85 L213.439 1491.19 L223.104 1491.19 L223.104 1500.85 L213.439 1500.85 Z" fill="#000000" fill-rule="nonzero" fill-opacity="1" /><path clip-path="url(#clip090)" d="M235.505 1466.77 Q235.505 1454.51 238.003 1447.06 Q240.549 1439.56 245.5 1435.51 Q250.498 1431.45 258.042 1431.45 Q263.605 1431.45 267.801 1433.71 Q271.998 1435.93 274.732 1440.17 Q277.467 1444.37 279.023 1450.45 Q280.579 1456.49 280.579 1466.77 Q280.579 1478.93 278.08 1486.43 Q275.581 1493.88 270.583 1497.98 Q265.633 1502.03 258.042 1502.03 Q248.046 1502.03 242.341 1494.87 Q235.505 1486.24 235.505 1466.77 M244.227 1466.77 Q244.227 1483.79 248.188 1489.44 Q252.195 1495.05 258.042 1495.05 Q263.888 1495.05 267.849 1489.4 Q271.856 1483.74 271.856 1466.77 Q271.856 1449.7 267.849 1444.09 Q263.888 1438.48 257.947 1438.48 Q252.101 1438.48 248.612 1443.43 Q244.227 1449.74 244.227 1466.77 Z" fill="#000000" fill-rule="nonzero" fill-opacity="1" /><path clip-path="url(#clip090)" d="M289.207 1466.77 Q289.207 1454.51 291.706 1447.06 Q294.252 1439.56 299.202 1435.51 Q304.2 1431.45 311.744 1431.45 Q317.308 1431.45 321.504 1433.71 Q325.7 1435.93 328.435 1440.17 Q331.169 1444.37 332.725 1450.45 Q334.281 1456.49 334.281 1466.77 Q334.281 1478.93 331.782 1486.43 Q329.283 1493.88 324.286 1497.98 Q319.335 1502.03 311.744 1502.03 Q301.748 1502.03 296.043 1494.87 Q289.207 1486.24 289.207 1466.77 M297.929 1466.77 Q297.929 1483.79 301.89 1489.44 Q305.898 1495.05 311.744 1495.05 Q317.59 1495.05 321.551 1489.4 Q325.559 1483.74 325.559 1466.77 Q325.559 1449.7 321.551 1444.09 Q317.59 1438.48 311.65 1438.48 Q305.803 1438.48 302.314 1443.43 Q297.929 1449.74 297.929 1466.77 Z" fill="#000000" fill-rule="nonzero" fill-opacity="1" /><path clip-path="url(#clip090)" d="M154.22 1120.21 Q154.22 1107.95 156.719 1100.5 Q159.265 1093.01 164.216 1088.95 Q169.213 1084.9 176.757 1084.9 Q182.321 1084.9 186.517 1087.16 Q190.713 1089.38 193.448 1093.62 Q196.183 1097.82 197.738 1103.9 Q199.294 1109.93 199.294 1120.21 Q199.294 1132.38 196.795 1139.87 Q194.297 1147.32 189.299 1151.42 Q184.348 1155.48 176.757 1155.48 Q166.762 1155.48 161.057 1148.31 Q154.22 1139.68 154.22 1120.21 M162.943 1120.21 Q162.943 1137.23 166.903 1142.89 Q170.911 1148.5 176.757 1148.5 Q182.604 1148.5 186.564 1142.84 Q190.572 1137.19 190.572 1120.21 Q190.572 1103.14 186.564 1097.53 Q182.604 1091.92 176.663 1091.92 Q170.817 1091.92 167.327 1096.87 Q162.943 1103.19 162.943 1120.21 Z" fill="#000000" fill-rule="nonzero" fill-opacity="1" /><path clip-path="url(#clip090)" d="M212.685 1154.3 L212.685 1144.64 L222.35 1144.64 L222.35 1154.3 L212.685 1154.3 Z" fill="#000000" fill-rule="nonzero" fill-opacity="1" /><path clip-path="url(#clip090)" d="M279.353 1146.14 L279.353 1154.3 L233.666 1154.3 Q233.571 1151.24 234.656 1148.41 Q236.4 1143.74 240.219 1139.21 Q244.086 1134.69 251.346 1128.75 Q262.615 1119.51 266.576 1114.13 Q270.536 1108.71 270.536 1103.9 Q270.536 1098.85 266.906 1095.41 Q263.322 1091.92 257.523 1091.92 Q251.394 1091.92 247.716 1095.6 Q244.038 1099.28 243.991 1105.78 L235.269 1104.89 Q236.165 1095.13 242.011 1090.04 Q247.857 1084.9 257.712 1084.9 Q267.66 1084.9 273.459 1090.41 Q279.259 1095.93 279.259 1104.09 Q279.259 1108.24 277.561 1112.24 Q275.864 1116.25 271.903 1120.68 Q267.99 1125.12 258.843 1132.85 Q251.205 1139.26 249.036 1141.57 Q246.867 1143.83 245.453 1146.14 L279.353 1146.14 Z" fill="#000000" fill-rule="nonzero" fill-opacity="1" /><path clip-path="url(#clip090)" d="M288.453 1136.2 L297.364 1135.44 Q298.354 1141.95 301.937 1145.25 Q305.567 1148.5 310.66 1148.5 Q316.789 1148.5 321.032 1143.88 Q325.276 1139.26 325.276 1131.62 Q325.276 1124.36 321.174 1120.17 Q317.119 1115.97 310.518 1115.97 Q306.416 1115.97 303.116 1117.85 Q299.815 1119.69 297.929 1122.66 L289.961 1121.63 L296.656 1086.12 L331.028 1086.12 L331.028 1094.23 L303.446 1094.23 L299.721 1112.81 Q305.945 1108.47 312.781 1108.47 Q321.834 1108.47 328.057 1114.74 Q334.281 1121.01 334.281 1130.87 Q334.281 1140.25 328.812 1147.09 Q322.164 1155.48 310.66 1155.48 Q301.23 1155.48 295.242 1150.2 Q289.301 1144.92 288.453 1136.2 Z" fill="#000000" fill-rule="nonzero" fill-opacity="1" /><path clip-path="url(#clip090)" d="M154.975 773.659 Q154.975 761.401 157.473 753.951 Q160.019 746.455 164.97 742.4 Q169.968 738.345 177.512 738.345 Q183.075 738.345 187.271 740.608 Q191.468 742.824 194.202 747.067 Q196.937 751.264 198.493 757.346 Q200.049 763.381 200.049 773.659 Q200.049 785.824 197.55 793.32 Q195.051 800.77 190.053 804.872 Q185.103 808.927 177.512 808.927 Q167.516 808.927 161.811 801.76 Q154.975 793.132 154.975 773.659 M163.697 773.659 Q163.697 790.68 167.658 796.338 Q171.665 801.949 177.512 801.949 Q183.358 801.949 187.319 796.291 Q191.326 790.633 191.326 773.659 Q191.326 756.591 187.319 750.981 Q183.358 745.37 177.417 745.37 Q171.571 745.37 168.082 750.321 Q163.697 756.639 163.697 773.659 Z" fill="#000000" fill-rule="nonzero" fill-opacity="1" /><path clip-path="url(#clip090)" d="M213.439 807.748 L213.439 798.082 L223.104 798.082 L223.104 807.748 L213.439 807.748 Z" fill="#000000" fill-rule="nonzero" fill-opacity="1" /><path clip-path="url(#clip090)" d="M235.505 789.643 L244.416 788.888 Q245.406 795.395 248.989 798.695 Q252.62 801.949 257.712 801.949 Q263.841 801.949 268.084 797.328 Q272.328 792.707 272.328 785.069 Q272.328 777.808 268.226 773.612 Q264.171 769.416 257.57 769.416 Q253.468 769.416 250.168 771.302 Q246.867 773.141 244.981 776.111 L237.013 775.074 L243.708 739.571 L278.08 739.571 L278.08 747.68 L250.498 747.68 L246.773 766.257 Q252.997 761.919 259.833 761.919 Q268.886 761.919 275.109 768.19 Q281.333 774.461 281.333 784.315 Q281.333 793.698 275.864 800.534 Q269.216 808.927 257.712 808.927 Q248.282 808.927 242.294 803.646 Q236.353 798.365 235.505 789.643 Z" fill="#000000" fill-rule="nonzero" fill-opacity="1" /><path clip-path="url(#clip090)" d="M289.207 773.659 Q289.207 761.401 291.706 753.951 Q294.252 746.455 299.202 742.4 Q304.2 738.345 311.744 738.345 Q317.308 738.345 321.504 740.608 Q325.7 742.824 328.435 747.067 Q331.169 751.264 332.725 757.346 Q334.281 763.381 334.281 773.659 Q334.281 785.824 331.782 793.32 Q329.283 800.77 324.286 804.872 Q319.335 808.927 311.744 808.927 Q301.748 808.927 296.043 801.76 Q289.207 793.132 289.207 773.659 M297.929 773.659 Q297.929 790.68 301.89 796.338 Q305.898 801.949 311.744 801.949 Q317.59 801.949 321.551 796.291 Q325.559 790.633 325.559 773.659 Q325.559 756.591 321.551 750.981 Q317.59 745.37 311.65 745.37 Q305.803 745.37 302.314 750.321 Q297.929 756.639 297.929 773.659 Z" fill="#000000" fill-rule="nonzero" fill-opacity="1" /><path clip-path="url(#clip090)" d="M154.22 427.106 Q154.22 414.848 156.719 407.398 Q159.265 399.901 164.216 395.847 Q169.213 391.792 176.757 391.792 Q182.321 391.792 186.517 394.055 Q190.713 396.271 193.448 400.514 Q196.183 404.711 197.738 410.793 Q199.294 416.828 199.294 427.106 Q199.294 439.271 196.795 446.767 Q194.297 454.217 189.299 458.319 Q184.348 462.373 176.757 462.373 Q166.762 462.373 161.057 455.207 Q154.22 446.579 154.22 427.106 M162.943 427.106 Q162.943 444.127 166.903 449.785 Q170.911 455.395 176.757 455.395 Q182.604 455.395 186.564 449.738 Q190.572 444.08 190.572 427.106 Q190.572 410.038 186.564 404.428 Q182.604 398.817 176.663 398.817 Q170.817 398.817 167.327 403.768 Q162.943 410.086 162.943 427.106 Z" fill="#000000" fill-rule="nonzero" fill-opacity="1" /><path clip-path="url(#clip090)" d="M212.685 461.195 L212.685 451.529 L222.35 451.529 L222.35 461.195 L212.685 461.195 Z" fill="#000000" fill-rule="nonzero" fill-opacity="1" /><path clip-path="url(#clip090)" d="M235.316 401.127 L235.316 392.971 L280.06 392.971 L280.06 399.571 Q273.459 406.597 266.953 418.242 Q260.493 429.888 256.957 442.194 Q254.411 450.869 253.704 461.195 L244.981 461.195 Q245.123 453.038 248.188 441.487 Q251.252 429.935 256.957 419.232 Q262.709 408.483 269.169 401.127 L235.316 401.127 Z" fill="#000000" fill-rule="nonzero" fill-opacity="1" /><path clip-path="url(#clip090)" d="M288.453 443.09 L297.364 442.335 Q298.354 448.842 301.937 452.142 Q305.567 455.395 310.66 455.395 Q316.789 455.395 321.032 450.775 Q325.276 446.154 325.276 438.516 Q325.276 431.255 321.174 427.059 Q317.119 422.863 310.518 422.863 Q306.416 422.863 303.116 424.749 Q299.815 426.588 297.929 429.558 L289.961 428.521 L296.656 393.018 L331.028 393.018 L331.028 401.127 L303.446 401.127 L299.721 419.704 Q305.945 415.366 312.781 415.366 Q321.834 415.366 328.057 421.637 Q334.281 427.908 334.281 437.762 Q334.281 447.144 328.812 453.981 Q322.164 462.373 310.66 462.373 Q301.23 462.373 295.242 457.093 Q289.301 451.812 288.453 443.09 Z" fill="#000000" fill-rule="nonzero" fill-opacity="1" /><path clip-path="url(#clip090)" d="M186.941 114.642 L178.455 114.642 L178.455 60.5621 Q175.39 63.4854 170.392 66.4086 Q165.442 69.3318 161.481 70.7934 L161.481 62.5895 Q168.601 59.242 173.928 54.48 Q179.256 49.7179 181.472 45.2388 L186.941 45.2388 L186.941 114.642 Z" fill="#000000" fill-rule="nonzero" fill-opacity="1" /><path clip-path="url(#clip090)" d="M213.439 114.642 L213.439 104.976 L223.104 104.976 L223.104 114.642 L213.439 114.642 Z" fill="#000000" fill-rule="nonzero" fill-opacity="1" /><path clip-path="url(#clip090)" d="M235.505 80.5532 Q235.505 68.2945 238.003 60.845 Q240.549 53.3484 245.5 49.2936 Q250.498 45.2388 258.042 45.2388 Q263.605 45.2388 267.801 47.502 Q271.998 49.7179 274.732 53.9613 Q277.467 58.1576 279.023 64.2397 Q280.579 70.2748 280.579 80.5532 Q280.579 92.7176 278.08 100.214 Q275.581 107.664 270.583 111.766 Q265.633 115.82 258.042 115.82 Q248.046 115.82 242.341 108.654 Q235.505 100.026 235.505 80.5532 M244.227 80.5532 Q244.227 97.5739 248.188 103.232 Q252.195 108.842 258.042 108.842 Q263.888 108.842 267.849 103.185 Q271.856 97.5267 271.856 80.5532 Q271.856 63.4854 267.849 57.8747 Q263.888 52.264 257.947 52.264 Q252.101 52.264 248.612 57.2146 Q244.227 63.5325 244.227 80.5532 Z" fill="#000000" fill-rule="nonzero" fill-opacity="1" /><path clip-path="url(#clip090)" d="M289.207 80.5532 Q289.207 68.2945 291.706 60.845 Q294.252 53.3484 299.202 49.2936 Q304.2 45.2388 311.744 45.2388 Q317.308 45.2388 321.504 47.502 Q325.7 49.7179 328.435 53.9613 Q331.169 58.1576 332.725 64.2397 Q334.281 70.2748 334.281 80.5532 Q334.281 92.7176 331.782 100.214 Q329.283 107.664 324.286 111.766 Q319.335 115.82 311.744 115.82 Q301.748 115.82 296.043 108.654 Q289.207 100.026 289.207 80.5532 M297.929 80.5532 Q297.929 97.5739 301.89 103.232 Q305.898 108.842 311.744 108.842 Q317.59 108.842 321.551 103.185 Q325.559 97.5267 325.559 80.5532 Q325.559 63.4854 321.551 57.8747 Q317.59 52.264 311.65 52.264 Q305.803 52.264 302.314 57.2146 Q297.929 63.5325 297.929 80.5532 Z" fill="#000000" fill-rule="nonzero" fill-opacity="1" /><path clip-path="url(#clip090)" d="M79.6617 830.274 L76.3415 830.274 Q76.3415 821.842 69.8594 816.467 Q69.8594 816.467 57.0004 806.348 L43.0875 817.046 Q38.2391 820.841 37.3959 822.527 Q36.4999 824.161 36.4999 829.747 L33.1271 829.747 Q33.4433 825.32 33.4433 819.523 Q33.4433 816.309 33.1271 807.824 L36.4999 807.824 Q36.7107 811.618 39.1877 811.618 Q40.0309 811.618 41.1376 810.67 L52.0466 802.238 L43.6145 795.545 Q41.6646 793.911 39.8201 793.911 Q36.8162 793.911 36.4999 797.073 L33.1271 797.073 Q33.4433 792.857 33.4433 786.691 Q33.4433 782.053 33.1271 777.837 L36.4999 777.837 Q36.7107 786.059 42.0862 790.696 Q44.3523 792.751 54.3127 800.604 L72.9687 786.164 Q75.2348 784.425 75.8145 782.475 Q76.3415 780.525 76.3415 775.887 L79.6617 775.887 Q79.3455 780.736 79.3455 786.269 Q79.3455 788.219 79.6617 797.916 L76.3415 797.916 Q76.2361 795.966 75.3929 795.018 Q74.497 794.016 73.6011 794.016 Q73.1795 794.016 70.0702 796.282 L59.2666 804.504 Q68.9635 812.725 71.2296 813.779 Q72.1782 814.201 72.9687 814.201 Q75.8672 814.201 76.3415 811.091 L79.6617 811.091 Q79.3455 818.838 79.3455 821.315 Q79.3455 826.058 79.6617 830.274 Z" fill="#000000" fill-rule="nonzero" fill-opacity="1" /><path clip-path="url(#clip090)" d="M109.56 764.895 Q108.195 764.895 107.79 764.784 Q107.384 764.637 106.757 764.046 L90.5988 749.548 Q81.6713 741.617 73.8874 741.617 Q68.8335 741.617 65.2182 744.273 Q61.603 746.892 61.603 751.725 Q61.603 755.045 63.6319 757.849 Q65.6609 760.652 69.2761 761.944 Q69.2024 761.722 69.2024 760.948 Q69.2024 759.066 70.3829 758.033 Q71.5633 756.963 73.1496 756.963 Q75.1786 756.963 76.1746 758.292 Q77.1338 759.583 77.1338 760.874 Q77.1338 761.39 77.0231 762.091 Q76.9124 762.755 75.8795 763.825 Q74.8097 764.895 72.9283 764.895 Q67.653 764.895 63.4475 760.911 Q59.242 756.89 59.242 750.766 Q59.242 743.83 63.3737 739.293 Q67.4685 734.719 73.8874 734.719 Q76.1378 734.719 78.2036 735.419 Q80.2326 736.084 81.8189 737.006 Q83.4051 737.891 85.9506 740.326 Q88.496 742.761 90.3036 744.716 Q92.1113 746.671 95.9479 751.061 L103.732 759.066 L103.732 745.454 Q103.732 738.813 103.141 738.297 Q102.072 737.559 96.4274 736.637 L96.4274 734.719 L109.56 736.858 L109.56 764.895 Z" fill="#000000" fill-rule="nonzero" fill-opacity="1" /><circle clip-path="url(#clip092)" cx="1293.94" cy="1048.71" r="14.4" fill="#4477aa" fill-rule="evenodd" fill-opacity="1" stroke="#000000" stroke-opacity="1" stroke-width="3.6"/>
<circle clip-path="url(#clip092)" cx="1288.42" cy="847.901" r="14.4" fill="#4477aa" fill-rule="evenodd" fill-opacity="1" stroke="#000000" stroke-opacity="1" stroke-width="3.6"/>
<circle clip-path="url(#clip092)" cx="426.389" cy="1234.28" r="14.4" fill="#4477aa" fill-rule="evenodd" fill-opacity="1" stroke="#000000" stroke-opacity="1" stroke-width="3.6"/>
<circle clip-path="url(#clip092)" cx="881.618" cy="1173.83" r="14.4" fill="#4477aa" fill-rule="evenodd" fill-opacity="1" stroke="#000000" stroke-opacity="1" stroke-width="3.6"/>
<circle clip-path="url(#clip092)" cx="758.894" cy="1193.16" r="14.4" fill="#4477aa" fill-rule="evenodd" fill-opacity="1" stroke="#000000" stroke-opacity="1" stroke-width="3.6"/>
<circle clip-path="url(#clip092)" cx="562.325" cy="773.9" r="14.4" fill="#4477aa" fill-rule="evenodd" fill-opacity="1" stroke="#000000" stroke-opacity="1" stroke-width="3.6"/>
<circle clip-path="url(#clip092)" cx="1101.18" cy="801.832" r="14.4" fill="#4477aa" fill-rule="evenodd" fill-opacity="1" stroke="#000000" stroke-opacity="1" stroke-width="3.6"/>
<circle clip-path="url(#clip092)" cx="614.225" cy="1182.86" r="14.4" fill="#4477aa" fill-rule="evenodd" fill-opacity="1" stroke="#000000" stroke-opacity="1" stroke-width="3.6"/>
<circle clip-path="url(#clip092)" cx="755.168" cy="1416.13" r="14.4" fill="#4477aa" fill-rule="evenodd" fill-opacity="1" stroke="#000000" stroke-opacity="1" stroke-width="3.6"/>
<circle clip-path="url(#clip092)" cx="549.25" cy="994.243" r="14.4" fill="#4477aa" fill-rule="evenodd" fill-opacity="1" stroke="#000000" stroke-opacity="1" stroke-width="3.6"/>
<circle clip-path="url(#clip092)" cx="1186.74" cy="1266.59" r="14.4" fill="#4477aa" fill-rule="evenodd" fill-opacity="1" stroke="#000000" stroke-opacity="1" stroke-width="3.6"/>
<circle clip-path="url(#clip092)" cx="971.169" cy="1117.17" r="14.4" fill="#4477aa" fill-rule="evenodd" fill-opacity="1" stroke="#000000" stroke-opacity="1" stroke-width="3.6"/>
<circle clip-path="url(#clip092)" cx="1277.75" cy="1258.58" r="14.4" fill="#4477aa" fill-rule="evenodd" fill-opacity="1" stroke="#000000" stroke-opacity="1" stroke-width="3.6"/>
<circle clip-path="url(#clip092)" cx="529.819" cy="893.134" r="14.4" fill="#4477aa" fill-rule="evenodd" fill-opacity="1" stroke="#000000" stroke-opacity="1" stroke-width="3.6"/>
<circle clip-path="url(#clip092)" cx="762.319" cy="1179.19" r="14.4" fill="#4477aa" fill-rule="evenodd" fill-opacity="1" stroke="#000000" stroke-opacity="1" stroke-width="3.6"/>
<circle clip-path="url(#clip092)" cx="1266.94" cy="1166.97" r="14.4" fill="#4477aa" fill-rule="evenodd" fill-opacity="1" stroke="#000000" stroke-opacity="1" stroke-width="3.6"/>
<circle clip-path="url(#clip092)" cx="702.104" cy="1028.35" r="14.4" fill="#4477aa" fill-rule="evenodd" fill-opacity="1" stroke="#000000" stroke-opacity="1" stroke-width="3.6"/>
<circle clip-path="url(#clip092)" cx="986.921" cy="1465.22" r="14.4" fill="#4477aa" fill-rule="evenodd" fill-opacity="1" stroke="#000000" stroke-opacity="1" stroke-width="3.6"/>
<circle clip-path="url(#clip092)" cx="502.425" cy="1089.06" r="14.4" fill="#4477aa" fill-rule="evenodd" fill-opacity="1" stroke="#000000" stroke-opacity="1" stroke-width="3.6"/>
<circle clip-path="url(#clip092)" cx="470.916" cy="1181.42" r="14.4" fill="#4477aa" fill-rule="evenodd" fill-opacity="1" stroke="#000000" stroke-opacity="1" stroke-width="3.6"/>
<circle clip-path="url(#clip092)" cx="1221.88" cy="959.616" r="14.4" fill="#4477aa" fill-rule="evenodd" fill-opacity="1" stroke="#000000" stroke-opacity="1" stroke-width="3.6"/>
<circle clip-path="url(#clip092)" cx="628.32" cy="886.908" r="14.4" fill="#4477aa" fill-rule="evenodd" fill-opacity="1" stroke="#000000" stroke-opacity="1" stroke-width="3.6"/>
<circle clip-path="url(#clip092)" cx="1130.35" cy="1129.01" r="14.4" fill="#4477aa" fill-rule="evenodd" fill-opacity="1" stroke="#000000" stroke-opacity="1" stroke-width="3.6"/>
<circle clip-path="url(#clip092)" cx="1076.49" cy="1282.2" r="14.4" fill="#4477aa" fill-rule="evenodd" fill-opacity="1" stroke="#000000" stroke-opacity="1" stroke-width="3.6"/>
<circle clip-path="url(#clip092)" cx="735.552" cy="1063.27" r="14.4" fill="#4477aa" fill-rule="evenodd" fill-opacity="1" stroke="#000000" stroke-opacity="1" stroke-width="3.6"/>
<circle clip-path="url(#clip092)" cx="1315.83" cy="774.82" r="14.4" fill="#4477aa" fill-rule="evenodd" fill-opacity="1" stroke="#000000" stroke-opacity="1" stroke-width="3.6"/>
<circle clip-path="url(#clip092)" cx="1271.32" cy="913.528" r="14.4" fill="#4477aa" fill-rule="evenodd" fill-opacity="1" stroke="#000000" stroke-opacity="1" stroke-width="3.6"/>
<circle clip-path="url(#clip092)" cx="1161.67" cy="777.733" r="14.4" fill="#4477aa" fill-rule="evenodd" fill-opacity="1" stroke="#000000" stroke-opacity="1" stroke-width="3.6"/>
<circle clip-path="url(#clip092)" cx="879.708" cy="959.985" r="14.4" fill="#4477aa" fill-rule="evenodd" fill-opacity="1" stroke="#000000" stroke-opacity="1" stroke-width="3.6"/>
<circle clip-path="url(#clip092)" cx="727.943" cy="1020.24" r="14.4" fill="#4477aa" fill-rule="evenodd" fill-opacity="1" stroke="#000000" stroke-opacity="1" stroke-width="3.6"/>
<circle clip-path="url(#clip092)" cx="798.23" cy="1430.74" r="14.4" fill="#4477aa" fill-rule="evenodd" fill-opacity="1" stroke="#000000" stroke-opacity="1" stroke-width="3.6"/>
<circle clip-path="url(#clip092)" cx="1308.6" cy="948.49" r="14.4" fill="#4477aa" fill-rule="evenodd" fill-opacity="1" stroke="#000000" stroke-opacity="1" stroke-width="3.6"/>
<circle clip-path="url(#clip092)" cx="1332.55" cy="1097.52" r="14.4" fill="#4477aa" fill-rule="evenodd" fill-opacity="1" stroke="#000000" stroke-opacity="1" stroke-width="3.6"/>
<circle clip-path="url(#clip092)" cx="651.962" cy="903.654" r="14.4" fill="#4477aa" fill-rule="evenodd" fill-opacity="1" stroke="#000000" stroke-opacity="1" stroke-width="3.6"/>
<circle clip-path="url(#clip092)" cx="952.713" cy="832.409" r="14.4" fill="#4477aa" fill-rule="evenodd" fill-opacity="1" stroke="#000000" stroke-opacity="1" stroke-width="3.6"/>
<circle clip-path="url(#clip092)" cx="449.779" cy="1360.75" r="14.4" fill="#4477aa" fill-rule="evenodd" fill-opacity="1" stroke="#000000" stroke-opacity="1" stroke-width="3.6"/>
<circle clip-path="url(#clip092)" cx="938.323" cy="1356.12" r="14.4" fill="#4477aa" fill-rule="evenodd" fill-opacity="1" stroke="#000000" stroke-opacity="1" stroke-width="3.6"/>
<circle clip-path="url(#clip092)" cx="1266.74" cy="1080.4" r="14.4" fill="#4477aa" fill-rule="evenodd" fill-opacity="1" stroke="#000000" stroke-opacity="1" stroke-width="3.6"/>
<circle clip-path="url(#clip092)" cx="1326.28" cy="1043.77" r="14.4" fill="#4477aa" fill-rule="evenodd" fill-opacity="1" stroke="#000000" stroke-opacity="1" stroke-width="3.6"/>
<circle clip-path="url(#clip092)" cx="662.142" cy="1352.14" r="14.4" fill="#4477aa" fill-rule="evenodd" fill-opacity="1" stroke="#000000" stroke-opacity="1" stroke-width="3.6"/>
<circle clip-path="url(#clip092)" cx="872.844" cy="1146.68" r="14.4" fill="#4477aa" fill-rule="evenodd" fill-opacity="1" stroke="#000000" stroke-opacity="1" stroke-width="3.6"/>
<circle clip-path="url(#clip092)" cx="836.149" cy="912.838" r="14.4" fill="#4477aa" fill-rule="evenodd" fill-opacity="1" stroke="#000000" stroke-opacity="1" stroke-width="3.6"/>
<circle clip-path="url(#clip092)" cx="1332.31" cy="1280.72" r="14.4" fill="#4477aa" fill-rule="evenodd" fill-opacity="1" stroke="#000000" stroke-opacity="1" stroke-width="3.6"/>
<circle clip-path="url(#clip092)" cx="794.777" cy="1399.01" r="14.4" fill="#4477aa" fill-rule="evenodd" fill-opacity="1" stroke="#000000" stroke-opacity="1" stroke-width="3.6"/>
<circle clip-path="url(#clip092)" cx="673.333" cy="1143.78" r="14.4" fill="#4477aa" fill-rule="evenodd" fill-opacity="1" stroke="#000000" stroke-opacity="1" stroke-width="3.6"/>
<circle clip-path="url(#clip092)" cx="1311.9" cy="1318.09" r="14.4" fill="#4477aa" fill-rule="evenodd" fill-opacity="1" stroke="#000000" stroke-opacity="1" stroke-width="3.6"/>
<circle clip-path="url(#clip092)" cx="843.126" cy="1010.27" r="14.4" fill="#4477aa" fill-rule="evenodd" fill-opacity="1" stroke="#000000" stroke-opacity="1" stroke-width="3.6"/>
<circle clip-path="url(#clip092)" cx="1028.54" cy="1342.45" r="14.4" fill="#4477aa" fill-rule="evenodd" fill-opacity="1" stroke="#000000" stroke-opacity="1" stroke-width="3.6"/>
<circle clip-path="url(#clip092)" cx="1215.98" cy="1359.99" r="14.4" fill="#4477aa" fill-rule="evenodd" fill-opacity="1" stroke="#000000" stroke-opacity="1" stroke-width="3.6"/>
<circle clip-path="url(#clip092)" cx="1076.91" cy="1276.74" r="14.4" fill="#4477aa" fill-rule="evenodd" fill-opacity="1" stroke="#000000" stroke-opacity="1" stroke-width="3.6"/>
<circle clip-path="url(#clip092)" cx="665.212" cy="1207.38" r="14.4" fill="#4477aa" fill-rule="evenodd" fill-opacity="1" stroke="#000000" stroke-opacity="1" stroke-width="3.6"/>
<circle clip-path="url(#clip092)" cx="1747.27" cy="844.049" r="14.4" fill="#ee6677" fill-rule="evenodd" fill-opacity="1" stroke="#000000" stroke-opacity="1" stroke-width="3.6"/>
<circle clip-path="url(#clip092)" cx="1776.94" cy="1071.65" r="14.4" fill="#ee6677" fill-rule="evenodd" fill-opacity="1" stroke="#000000" stroke-opacity="1" stroke-width="3.6"/>
<circle clip-path="url(#clip092)" cx="902.831" cy="502.294" r="14.4" fill="#ee6677" fill-rule="evenodd" fill-opacity="1" stroke="#000000" stroke-opacity="1" stroke-width="3.6"/>
<circle clip-path="url(#clip092)" cx="1693" cy="676.957" r="14.4" fill="#ee6677" fill-rule="evenodd" fill-opacity="1" stroke="#000000" stroke-opacity="1" stroke-width="3.6"/>
<circle clip-path="url(#clip092)" cx="2179.91" cy="1436.87" r="14.4" fill="#ee6677" fill-rule="evenodd" fill-opacity="1" stroke="#000000" stroke-opacity="1" stroke-width="3.6"/>
<circle clip-path="url(#clip092)" cx="2212.43" cy="867.031" r="14.4" fill="#ee6677" fill-rule="evenodd" fill-opacity="1" stroke="#000000" stroke-opacity="1" stroke-width="3.6"/>
<circle clip-path="url(#clip092)" cx="943.647" cy="489.169" r="14.4" fill="#ee6677" fill-rule="evenodd" fill-opacity="1" stroke="#000000" stroke-opacity="1" stroke-width="3.6"/>
<circle clip-path="url(#clip092)" cx="2089.33" cy="1084.49" r="14.4" fill="#ee6677" fill-rule="evenodd" fill-opacity="1" stroke="#000000" stroke-opacity="1" stroke-width="3.6"/>
<circle clip-path="url(#clip092)" cx="1818.53" cy="150.298" r="14.4" fill="#ee6677" fill-rule="evenodd" fill-opacity="1" stroke="#000000" stroke-opacity="1" stroke-width="3.6"/>
<circle clip-path="url(#clip092)" cx="2176.86" cy="867.067" r="14.4" fill="#ee6677" fill-rule="evenodd" fill-opacity="1" stroke="#000000" stroke-opacity="1" stroke-width="3.6"/>
<circle clip-path="url(#clip092)" cx="1548" cy="615.474" r="14.4" fill="#ee6677" fill-rule="evenodd" fill-opacity="1" stroke="#000000" stroke-opacity="1" stroke-width="3.6"/>
<circle clip-path="url(#clip092)" cx="2166.23" cy="338.168" r="14.4" fill="#ee6677" fill-rule="evenodd" fill-opacity="1" stroke="#000000" stroke-opacity="1" stroke-width="3.6"/>
<circle clip-path="url(#clip092)" cx="1395.68" cy="382.21" r="14.4" fill="#ee6677" fill-rule="evenodd" fill-opacity="1" stroke="#000000" stroke-opacity="1" stroke-width="3.6"/>
<circle clip-path="url(#clip092)" cx="972.771" cy="141.426" r="14.4" fill="#ee6677" fill-rule="evenodd" fill-opacity="1" stroke="#000000" stroke-opacity="1" stroke-width="3.6"/>
<circle clip-path="url(#clip092)" cx="1506.68" cy="891.155" r="14.4" fill="#ee6677" fill-rule="evenodd" fill-opacity="1" stroke="#000000" stroke-opacity="1" stroke-width="3.6"/>
<circle clip-path="url(#clip092)" cx="1212.52" cy="537.927" r="14.4" fill="#ee6677" fill-rule="evenodd" fill-opacity="1" stroke="#000000" stroke-opacity="1" stroke-width="3.6"/>
<circle clip-path="url(#clip092)" cx="1966.55" cy="1462.5" r="14.4" fill="#ee6677" fill-rule="evenodd" fill-opacity="1" stroke="#000000" stroke-opacity="1" stroke-width="3.6"/>
<circle clip-path="url(#clip092)" cx="1702.62" cy="100.902" r="14.4" fill="#ee6677" fill-rule="evenodd" fill-opacity="1" stroke="#000000" stroke-opacity="1" stroke-width="3.6"/>
<circle clip-path="url(#clip092)" cx="1448.55" cy="107.715" r="14.4" fill="#ee6677" fill-rule="evenodd" fill-opacity="1" stroke="#000000" stroke-opacity="1" stroke-width="3.6"/>
<circle clip-path="url(#clip092)" cx="1866.89" cy="359.708" r="14.4" fill="#ee6677" fill-rule="evenodd" fill-opacity="1" stroke="#000000" stroke-opacity="1" stroke-width="3.6"/>
<circle clip-path="url(#clip092)" cx="1264.87" cy="120.383" r="14.4" fill="#ee6677" fill-rule="evenodd" fill-opacity="1" stroke="#000000" stroke-opacity="1" stroke-width="3.6"/>
<circle clip-path="url(#clip092)" cx="2104.07" cy="975.507" r="14.4" fill="#ee6677" fill-rule="evenodd" fill-opacity="1" stroke="#000000" stroke-opacity="1" stroke-width="3.6"/>
<circle clip-path="url(#clip092)" cx="1270.97" cy="128.997" r="14.4" fill="#ee6677" fill-rule="evenodd" fill-opacity="1" stroke="#000000" stroke-opacity="1" stroke-width="3.6"/>
<circle clip-path="url(#clip092)" cx="1657.71" cy="120.214" r="14.4" fill="#ee6677" fill-rule="evenodd" fill-opacity="1" stroke="#000000" stroke-opacity="1" stroke-width="3.6"/>
<circle clip-path="url(#clip092)" cx="2101.38" cy="912.23" r="14.4" fill="#ee6677" fill-rule="evenodd" fill-opacity="1" stroke="#000000" stroke-opacity="1" stroke-width="3.6"/>
<circle clip-path="url(#clip092)" cx="1264.01" cy="153.965" r="14.4" fill="#ee6677" fill-rule="evenodd" fill-opacity="1" stroke="#000000" stroke-opacity="1" stroke-width="3.6"/>
<circle clip-path="url(#clip092)" cx="2205.08" cy="337.615" r="14.4" fill="#ee6677" fill-rule="evenodd" fill-opacity="1" stroke="#000000" stroke-opacity="1" stroke-width="3.6"/>
<circle clip-path="url(#clip092)" cx="1385.33" cy="1318.62" r="14.4" fill="#ee6677" fill-rule="evenodd" fill-opacity="1" stroke="#000000" stroke-opacity="1" stroke-width="3.6"/>
<circle clip-path="url(#clip092)" cx="1199.66" cy="279.709" r="14.4" fill="#ee6677" fill-rule="evenodd" fill-opacity="1" stroke="#000000" stroke-opacity="1" stroke-width="3.6"/>
<circle clip-path="url(#clip092)" cx="1644.97" cy="259.987" r="14.4" fill="#ee6677" fill-rule="evenodd" fill-opacity="1" stroke="#000000" stroke-opacity="1" stroke-width="3.6"/>
<circle clip-path="url(#clip092)" cx="1828.12" cy="449.688" r="14.4" fill="#ee6677" fill-rule="evenodd" fill-opacity="1" stroke="#000000" stroke-opacity="1" stroke-width="3.6"/>
<circle clip-path="url(#clip092)" cx="1562.03" cy="1044.76" r="14.4" fill="#ee6677" fill-rule="evenodd" fill-opacity="1" stroke="#000000" stroke-opacity="1" stroke-width="3.6"/>
<circle clip-path="url(#clip092)" cx="1381.99" cy="953.157" r="14.4" fill="#ee6677" fill-rule="evenodd" fill-opacity="1" stroke="#000000" stroke-opacity="1" stroke-width="3.6"/>
<circle clip-path="url(#clip092)" cx="2054.3" cy="388.632" r="14.4" fill="#ee6677" fill-rule="evenodd" fill-opacity="1" stroke="#000000" stroke-opacity="1" stroke-width="3.6"/>
<circle clip-path="url(#clip092)" cx="2216.31" cy="680.39" r="14.4" fill="#ee6677" fill-rule="evenodd" fill-opacity="1" stroke="#000000" stroke-opacity="1" stroke-width="3.6"/>
<circle clip-path="url(#clip092)" cx="865.948" cy="670.623" r="14.4" fill="#ee6677" fill-rule="evenodd" fill-opacity="1" stroke="#000000" stroke-opacity="1" stroke-width="3.6"/>
<circle clip-path="url(#clip092)" cx="2222.64" cy="725.032" r="14.4" fill="#ee6677" fill-rule="evenodd" fill-opacity="1" stroke="#000000" stroke-opacity="1" stroke-width="3.6"/>
<circle clip-path="url(#clip092)" cx="2296.65" cy="832.758" r="14.4" fill="#ee6677" fill-rule="evenodd" fill-opacity="1" stroke="#000000" stroke-opacity="1" stroke-width="3.6"/>
<circle clip-path="url(#clip092)" cx="2114.56" cy="991.503" r="14.4" fill="#ee6677" fill-rule="evenodd" fill-opacity="1" stroke="#000000" stroke-opacity="1" stroke-width="3.6"/>
<circle clip-path="url(#clip092)" cx="1816.46" cy="274.658" r="14.4" fill="#ee6677" fill-rule="evenodd" fill-opacity="1" stroke="#000000" stroke-opacity="1" stroke-width="3.6"/>
<circle clip-path="url(#clip092)" cx="774.869" cy="352.794" r="14.4" fill="#ee6677" fill-rule="evenodd" fill-opacity="1" stroke="#000000" stroke-opacity="1" stroke-width="3.6"/>
<circle clip-path="url(#clip092)" cx="969.171" cy="598.786" r="14.4" fill="#ee6677" fill-rule="evenodd" fill-opacity="1" stroke="#000000" stroke-opacity="1" stroke-width="3.6"/>
<circle clip-path="url(#clip092)" cx="1703.16" cy="573.585" r="14.4" fill="#ee6677" fill-rule="evenodd" fill-opacity="1" stroke="#000000" stroke-opacity="1" stroke-width="3.6"/>
<circle clip-path="url(#clip092)" cx="1905.6" cy="950.656" r="14.4" fill="#ee6677" fill-rule="evenodd" fill-opacity="1" stroke="#000000" stroke-opacity="1" stroke-width="3.6"/>
<circle clip-path="url(#clip092)" cx="2286.4" cy="726.391" r="14.4" fill="#ee6677" fill-rule="evenodd" fill-opacity="1" stroke="#000000" stroke-opacity="1" stroke-width="3.6"/>
<circle clip-path="url(#clip092)" cx="441.226" cy="234.173" r="14.4" fill="#ee6677" fill-rule="evenodd" fill-opacity="1" stroke="#000000" stroke-opacity="1" stroke-width="3.6"/>
<circle clip-path="url(#clip092)" cx="1599.9" cy="104.101" r="14.4" fill="#ee6677" fill-rule="evenodd" fill-opacity="1" stroke="#000000" stroke-opacity="1" stroke-width="3.6"/>
<circle clip-path="url(#clip092)" cx="2031.04" cy="573.36" r="14.4" fill="#ee6677" fill-rule="evenodd" fill-opacity="1" stroke="#000000" stroke-opacity="1" stroke-width="3.6"/>
<circle clip-path="url(#clip092)" cx="1417.77" cy="1441.19" r="14.4" fill="#ee6677" fill-rule="evenodd" fill-opacity="1" stroke="#000000" stroke-opacity="1" stroke-width="3.6"/>
<circle clip-path="url(#clip092)" cx="1723.87" cy="1417.02" r="14.4" fill="#ee6677" fill-rule="evenodd" fill-opacity="1" stroke="#000000" stroke-opacity="1" stroke-width="3.6"/>
<circle clip-path="url(#clip092)" cx="1508.27" cy="679.823" r="14.4" fill="#ee6677" fill-rule="evenodd" fill-opacity="1" stroke="#000000" stroke-opacity="1" stroke-width="3.6"/>
<circle clip-path="url(#clip092)" cx="1544.9" cy="305.718" r="14.4" fill="#ee6677" fill-rule="evenodd" fill-opacity="1" stroke="#000000" stroke-opacity="1" stroke-width="3.6"/>
<circle clip-path="url(#clip092)" cx="878.039" cy="627.662" r="14.4" fill="#ee6677" fill-rule="evenodd" fill-opacity="1" stroke="#000000" stroke-opacity="1" stroke-width="3.6"/>
<circle clip-path="url(#clip092)" cx="1480.21" cy="1111.27" r="14.4" fill="#ee6677" fill-rule="evenodd" fill-opacity="1" stroke="#000000" stroke-opacity="1" stroke-width="3.6"/>
<circle clip-path="url(#clip092)" cx="1869.68" cy="1148.22" r="14.4" fill="#ee6677" fill-rule="evenodd" fill-opacity="1" stroke="#000000" stroke-opacity="1" stroke-width="3.6"/>
<circle clip-path="url(#clip092)" cx="1740.29" cy="898.433" r="14.4" fill="#ee6677" fill-rule="evenodd" fill-opacity="1" stroke="#000000" stroke-opacity="1" stroke-width="3.6"/>
<circle clip-path="url(#clip092)" cx="1756.05" cy="99.4308" r="14.4" fill="#ee6677" fill-rule="evenodd" fill-opacity="1" stroke="#000000" stroke-opacity="1" stroke-width="3.6"/>
<circle clip-path="url(#clip092)" cx="1809.69" cy="310.971" r="14.4" fill="#ee6677" fill-rule="evenodd" fill-opacity="1" stroke="#000000" stroke-opacity="1" stroke-width="3.6"/>
<circle clip-path="url(#clip092)" cx="1707.94" cy="1313.76" r="14.4" fill="#ee6677" fill-rule="evenodd" fill-opacity="1" stroke="#000000" stroke-opacity="1" stroke-width="3.6"/>
<circle clip-path="url(#clip092)" cx="982.814" cy="702.654" r="14.4" fill="#ee6677" fill-rule="evenodd" fill-opacity="1" stroke="#000000" stroke-opacity="1" stroke-width="3.6"/>
<circle clip-path="url(#clip092)" cx="1663.84" cy="348.32" r="14.4" fill="#ee6677" fill-rule="evenodd" fill-opacity="1" stroke="#000000" stroke-opacity="1" stroke-width="3.6"/>
<circle clip-path="url(#clip092)" cx="2213.83" cy="1099.12" r="14.4" fill="#ee6677" fill-rule="evenodd" fill-opacity="1" stroke="#000000" stroke-opacity="1" stroke-width="3.6"/>
<circle clip-path="url(#clip092)" cx="2289.23" cy="298.099" r="14.4" fill="#ee6677" fill-rule="evenodd" fill-opacity="1" stroke="#000000" stroke-opacity="1" stroke-width="3.6"/>
<circle clip-path="url(#clip092)" cx="2075.31" cy="853.742" r="14.4" fill="#ee6677" fill-rule="evenodd" fill-opacity="1" stroke="#000000" stroke-opacity="1" stroke-width="3.6"/>
<circle clip-path="url(#clip092)" cx="2105.53" cy="886.608" r="14.4" fill="#ee6677" fill-rule="evenodd" fill-opacity="1" stroke="#000000" stroke-opacity="1" stroke-width="3.6"/>
<circle clip-path="url(#clip092)" cx="2229.29" cy="1105.18" r="14.4" fill="#ee6677" fill-rule="evenodd" fill-opacity="1" stroke="#000000" stroke-opacity="1" stroke-width="3.6"/>
<circle clip-path="url(#clip092)" cx="1716.66" cy="264.858" r="14.4" fill="#ee6677" fill-rule="evenodd" fill-opacity="1" stroke="#000000" stroke-opacity="1" stroke-width="3.6"/>
<circle clip-path="url(#clip092)" cx="2003.94" cy="1395.87" r="14.4" fill="#ee6677" fill-rule="evenodd" fill-opacity="1" stroke="#000000" stroke-opacity="1" stroke-width="3.6"/>
<circle clip-path="url(#clip092)" cx="1540.6" cy="603.778" r="14.4" fill="#ee6677" fill-rule="evenodd" fill-opacity="1" stroke="#000000" stroke-opacity="1" stroke-width="3.6"/>
<circle clip-path="url(#clip092)" cx="487.345" cy="358.118" r="14.4" fill="#ee6677" fill-rule="evenodd" fill-opacity="1" stroke="#000000" stroke-opacity="1" stroke-width="3.6"/>
<circle clip-path="url(#clip092)" cx="1582.06" cy="1327.28" r="14.4" fill="#ee6677" fill-rule="evenodd" fill-opacity="1" stroke="#000000" stroke-opacity="1" stroke-width="3.6"/>
<circle clip-path="url(#clip092)" cx="1614.57" cy="1053.06" r="14.4" fill="#ee6677" fill-rule="evenodd" fill-opacity="1" stroke="#000000" stroke-opacity="1" stroke-width="3.6"/>
<circle clip-path="url(#clip092)" cx="1163.89" cy="446.701" r="14.4" fill="#ee6677" fill-rule="evenodd" fill-opacity="1" stroke="#000000" stroke-opacity="1" stroke-width="3.6"/>
<circle clip-path="url(#clip092)" cx="953.199" cy="135.521" r="14.4" fill="#ee6677" fill-rule="evenodd" fill-opacity="1" stroke="#000000" stroke-opacity="1" stroke-width="3.6"/>
<circle clip-path="url(#clip092)" cx="909.1" cy="667.621" r="14.4" fill="#ee6677" fill-rule="evenodd" fill-opacity="1" stroke="#000000" stroke-opacity="1" stroke-width="3.6"/>
<circle clip-path="url(#clip092)" cx="1475.68" cy="1228.55" r="14.4" fill="#ee6677" fill-rule="evenodd" fill-opacity="1" stroke="#000000" stroke-opacity="1" stroke-width="3.6"/>
<circle clip-path="url(#clip092)" cx="1668.33" cy="499.33" r="14.4" fill="#ee6677" fill-rule="evenodd" fill-opacity="1" stroke="#000000" stroke-opacity="1" stroke-width="3.6"/>
<circle clip-path="url(#clip092)" cx="1948.08" cy="1069.91" r="14.4" fill="#ee6677" fill-rule="evenodd" fill-opacity="1" stroke="#000000" stroke-opacity="1" stroke-width="3.6"/>
<circle clip-path="url(#clip092)" cx="1849.27" cy="564.872" r="14.4" fill="#ee6677" fill-rule="evenodd" fill-opacity="1" stroke="#000000" stroke-opacity="1" stroke-width="3.6"/>
<circle clip-path="url(#clip092)" cx="2220.59" cy="167.203" r="14.4" fill="#ee6677" fill-rule="evenodd" fill-opacity="1" stroke="#000000" stroke-opacity="1" stroke-width="3.6"/>
<circle clip-path="url(#clip092)" cx="1664.42" cy="763.967" r="14.4" fill="#ee6677" fill-rule="evenodd" fill-opacity="1" stroke="#000000" stroke-opacity="1" stroke-width="3.6"/>
<circle clip-path="url(#clip092)" cx="1718.56" cy="169.743" r="14.4" fill="#ee6677" fill-rule="evenodd" fill-opacity="1" stroke="#000000" stroke-opacity="1" stroke-width="3.6"/>
<circle clip-path="url(#clip092)" cx="2159.32" cy="1390.44" r="14.4" fill="#ee6677" fill-rule="evenodd" fill-opacity="1" stroke="#000000" stroke-opacity="1" stroke-width="3.6"/>
<circle clip-path="url(#clip092)" cx="1382.81" cy="1373.16" r="14.4" fill="#ee6677" fill-rule="evenodd" fill-opacity="1" stroke="#000000" stroke-opacity="1" stroke-width="3.6"/>
<circle clip-path="url(#clip092)" cx="1853.01" cy="982.846" r="14.4" fill="#ee6677" fill-rule="evenodd" fill-opacity="1" stroke="#000000" stroke-opacity="1" stroke-width="3.6"/>
<circle clip-path="url(#clip092)" cx="1681.56" cy="978.46" r="14.4" fill="#ee6677" fill-rule="evenodd" fill-opacity="1" stroke="#000000" stroke-opacity="1" stroke-width="3.6"/>
<circle clip-path="url(#clip092)" cx="2220.12" cy="1342.63" r="14.4" fill="#ee6677" fill-rule="evenodd" fill-opacity="1" stroke="#000000" stroke-opacity="1" stroke-width="3.6"/>
<circle clip-path="url(#clip092)" cx="1900.9" cy="463.417" r="14.4" fill="#ee6677" fill-rule="evenodd" fill-opacity="1" stroke="#000000" stroke-opacity="1" stroke-width="3.6"/>
<circle clip-path="url(#clip092)" cx="1589.59" cy="1428.52" r="14.4" fill="#ee6677" fill-rule="evenodd" fill-opacity="1" stroke="#000000" stroke-opacity="1" stroke-width="3.6"/>
<circle clip-path="url(#clip092)" cx="1637.71" cy="497.186" r="14.4" fill="#ee6677" fill-rule="evenodd" fill-opacity="1" stroke="#000000" stroke-opacity="1" stroke-width="3.6"/>
<circle clip-path="url(#clip092)" cx="2002.96" cy="245.704" r="14.4" fill="#ee6677" fill-rule="evenodd" fill-opacity="1" stroke="#000000" stroke-opacity="1" stroke-width="3.6"/>
<circle clip-path="url(#clip092)" cx="821.502" cy="559.086" r="14.4" fill="#ee6677" fill-rule="evenodd" fill-opacity="1" stroke="#000000" stroke-opacity="1" stroke-width="3.6"/>
<circle clip-path="url(#clip092)" cx="919.989" cy="108.381" r="14.4" fill="#ee6677" fill-rule="evenodd" fill-opacity="1" stroke="#000000" stroke-opacity="1" stroke-width="3.6"/>
<circle clip-path="url(#clip092)" cx="1622.89" cy="520.406" r="14.4" fill="#ee6677" fill-rule="evenodd" fill-opacity="1" stroke="#000000" stroke-opacity="1" stroke-width="3.6"/>
<circle clip-path="url(#clip092)" cx="1343.1" cy="546.731" r="14.4" fill="#ee6677" fill-rule="evenodd" fill-opacity="1" stroke="#000000" stroke-opacity="1" stroke-width="3.6"/>
<circle clip-path="url(#clip092)" cx="1951.52" cy="710.984" r="14.4" fill="#ee6677" fill-rule="evenodd" fill-opacity="1" stroke="#000000" stroke-opacity="1" stroke-width="3.6"/>
<circle clip-path="url(#clip092)" cx="2001.78" cy="826.243" r="14.4" fill="#ee6677" fill-rule="evenodd" fill-opacity="1" stroke="#000000" stroke-opacity="1" stroke-width="3.6"/>
<circle clip-path="url(#clip092)" cx="2267.59" cy="929.788" r="14.4" fill="#ee6677" fill-rule="evenodd" fill-opacity="1" stroke="#000000" stroke-opacity="1" stroke-width="3.6"/>
<circle clip-path="url(#clip092)" cx="1754.3" cy="1303.89" r="14.4" fill="#ee6677" fill-rule="evenodd" fill-opacity="1" stroke="#000000" stroke-opacity="1" stroke-width="3.6"/>
<circle clip-path="url(#clip092)" cx="1497.7" cy="348.776" r="14.4" fill="#ee6677" fill-rule="evenodd" fill-opacity="1" stroke="#000000" stroke-opacity="1" stroke-width="3.6"/>
<circle clip-path="url(#clip092)" cx="1999.29" cy="434.202" r="14.4" fill="#ee6677" fill-rule="evenodd" fill-opacity="1" stroke="#000000" stroke-opacity="1" stroke-width="3.6"/>
<circle clip-path="url(#clip092)" cx="1974.34" cy="480.392" r="14.4" fill="#ee6677" fill-rule="evenodd" fill-opacity="1" stroke="#000000" stroke-opacity="1" stroke-width="3.6"/>
<circle clip-path="url(#clip092)" cx="1572.25" cy="1093.61" r="14.4" fill="#ee6677" fill-rule="evenodd" fill-opacity="1" stroke="#000000" stroke-opacity="1" stroke-width="3.6"/>
<circle clip-path="url(#clip092)" cx="1360.04" cy="531.927" r="14.4" fill="#ee6677" fill-rule="evenodd" fill-opacity="1" stroke="#000000" stroke-opacity="1" stroke-width="3.6"/>
<circle clip-path="url(#clip092)" cx="523.384" cy="541.93" r="14.4" fill="#ee6677" fill-rule="evenodd" fill-opacity="1" stroke="#000000" stroke-opacity="1" stroke-width="3.6"/>
<circle clip-path="url(#clip092)" cx="763.451" cy="684.669" r="14.4" fill="#ee6677" fill-rule="evenodd" fill-opacity="1" stroke="#000000" stroke-opacity="1" stroke-width="3.6"/>
<circle clip-path="url(#clip092)" cx="1998.19" cy="425.126" r="14.4" fill="#ee6677" fill-rule="evenodd" fill-opacity="1" stroke="#000000" stroke-opacity="1" stroke-width="3.6"/>
<circle clip-path="url(#clip092)" cx="471.141" cy="693.126" r="14.4" fill="#ee6677" fill-rule="evenodd" fill-opacity="1" stroke="#000000" stroke-opacity="1" stroke-width="3.6"/>
<circle clip-path="url(#clip092)" cx="1334.81" cy="709.05" r="14.4" fill="#ee6677" fill-rule="evenodd" fill-opacity="1" stroke="#000000" stroke-opacity="1" stroke-width="3.6"/>
<circle clip-path="url(#clip092)" cx="568.026" cy="706.546" r="14.4" fill="#ee6677" fill-rule="evenodd" fill-opacity="1" stroke="#000000" stroke-opacity="1" stroke-width="3.6"/>
<circle clip-path="url(#clip092)" cx="1710.89" cy="589.215" r="14.4" fill="#ee6677" fill-rule="evenodd" fill-opacity="1" stroke="#000000" stroke-opacity="1" stroke-width="3.6"/>
<circle clip-path="url(#clip092)" cx="1894.25" cy="1234.96" r="14.4" fill="#ee6677" fill-rule="evenodd" fill-opacity="1" stroke="#000000" stroke-opacity="1" stroke-width="3.6"/>
<circle clip-path="url(#clip092)" cx="1532.38" cy="719.597" r="14.4" fill="#ee6677" fill-rule="evenodd" fill-opacity="1" stroke="#000000" stroke-opacity="1" stroke-width="3.6"/>
<circle clip-path="url(#clip092)" cx="1500.91" cy="720.999" r="14.4" fill="#ee6677" fill-rule="evenodd" fill-opacity="1" stroke="#000000" stroke-opacity="1" stroke-width="3.6"/>
<circle clip-path="url(#clip092)" cx="2217.33" cy="165.025" r="14.4" fill="#ee6677" fill-rule="evenodd" fill-opacity="1" stroke="#000000" stroke-opacity="1" stroke-width="3.6"/>
<circle clip-path="url(#clip092)" cx="1096.29" cy="610.787" r="14.4" fill="#ee6677" fill-rule="evenodd" fill-opacity="1" stroke="#000000" stroke-opacity="1" stroke-width="3.6"/>
<circle clip-path="url(#clip092)" cx="1398.43" cy="213.912" r="14.4" fill="#ee6677" fill-rule="evenodd" fill-opacity="1" stroke="#000000" stroke-opacity="1" stroke-width="3.6"/>
<circle clip-path="url(#clip092)" cx="2233.09" cy="123.162" r="14.4" fill="#ee6677" fill-rule="evenodd" fill-opacity="1" stroke="#000000" stroke-opacity="1" stroke-width="3.6"/>
<circle clip-path="url(#clip092)" cx="1203.21" cy="114.962" r="14.4" fill="#ee6677" fill-rule="evenodd" fill-opacity="1" stroke="#000000" stroke-opacity="1" stroke-width="3.6"/>
<circle clip-path="url(#clip092)" cx="1704.02" cy="1422.98" r="14.4" fill="#ee6677" fill-rule="evenodd" fill-opacity="1" stroke="#000000" stroke-opacity="1" stroke-width="3.6"/>
<circle clip-path="url(#clip092)" cx="782.35" cy="701.761" r="14.4" fill="#ee6677" fill-rule="evenodd" fill-opacity="1" stroke="#000000" stroke-opacity="1" stroke-width="3.6"/>
<circle clip-path="url(#clip092)" cx="1218.71" cy="498.465" r="14.4" fill="#ee6677" fill-rule="evenodd" fill-opacity="1" stroke="#000000" stroke-opacity="1" stroke-width="3.6"/>
<circle clip-path="url(#clip092)" cx="535.812" cy="125.886" r="14.4" fill="#ee6677" fill-rule="evenodd" fill-opacity="1" stroke="#000000" stroke-opacity="1" stroke-width="3.6"/>
<circle clip-path="url(#clip092)" cx="635.135" cy="757.102" r="14.4" fill="#ee6677" fill-rule="evenodd" fill-opacity="1" stroke="#000000" stroke-opacity="1" stroke-width="3.6"/>
<circle clip-path="url(#clip092)" cx="1723.52" cy="88.5445" r="14.4" fill="#ee6677" fill-rule="evenodd" fill-opacity="1" stroke="#000000" stroke-opacity="1" stroke-width="3.6"/>
<circle clip-path="url(#clip092)" cx="2109.34" cy="1029.44" r="14.4" fill="#ee6677" fill-rule="evenodd" fill-opacity="1" stroke="#000000" stroke-opacity="1" stroke-width="3.6"/>
<circle clip-path="url(#clip092)" cx="572.245" cy="289.473" r="14.4" fill="#ee6677" fill-rule="evenodd" fill-opacity="1" stroke="#000000" stroke-opacity="1" stroke-width="3.6"/>
<circle clip-path="url(#clip092)" cx="1603.66" cy="1181.79" r="14.4" fill="#ee6677" fill-rule="evenodd" fill-opacity="1" stroke="#000000" stroke-opacity="1" stroke-width="3.6"/>
<circle clip-path="url(#clip092)" cx="2183.42" cy="1233.25" r="14.4" fill="#ee6677" fill-rule="evenodd" fill-opacity="1" stroke="#000000" stroke-opacity="1" stroke-width="3.6"/>
<circle clip-path="url(#clip092)" cx="965.986" cy="659.605" r="14.4" fill="#ee6677" fill-rule="evenodd" fill-opacity="1" stroke="#000000" stroke-opacity="1" stroke-width="3.6"/>
<circle clip-path="url(#clip092)" cx="1076.5" cy="547.459" r="14.4" fill="#ee6677" fill-rule="evenodd" fill-opacity="1" stroke="#000000" stroke-opacity="1" stroke-width="3.6"/>
<circle clip-path="url(#clip092)" cx="2171.05" cy="1116.58" r="14.4" fill="#ee6677" fill-rule="evenodd" fill-opacity="1" stroke="#000000" stroke-opacity="1" stroke-width="3.6"/>
<circle clip-path="url(#clip092)" cx="2249.47" cy="1463.1" r="14.4" fill="#ee6677" fill-rule="evenodd" fill-opacity="1" stroke="#000000" stroke-opacity="1" stroke-width="3.6"/>
<circle clip-path="url(#clip092)" cx="550.505" cy="216.623" r="14.4" fill="#ee6677" fill-rule="evenodd" fill-opacity="1" stroke="#000000" stroke-opacity="1" stroke-width="3.6"/>
<circle clip-path="url(#clip092)" cx="689.237" cy="562.051" r="14.4" fill="#ee6677" fill-rule="evenodd" fill-opacity="1" stroke="#000000" stroke-opacity="1" stroke-width="3.6"/>
<circle clip-path="url(#clip092)" cx="2244.16" cy="585.792" r="14.4" fill="#ee6677" fill-rule="evenodd" fill-opacity="1" stroke="#000000" stroke-opacity="1" stroke-width="3.6"/>
<circle clip-path="url(#clip092)" cx="1534.92" cy="1247.47" r="14.4" fill="#ee6677" fill-rule="evenodd" fill-opacity="1" stroke="#000000" stroke-opacity="1" stroke-width="3.6"/>
<circle clip-path="url(#clip092)" cx="2069.95" cy="878.872" r="14.4" fill="#ee6677" fill-rule="evenodd" fill-opacity="1" stroke="#000000" stroke-opacity="1" stroke-width="3.6"/>
<circle clip-path="url(#clip092)" cx="1565.1" cy="106.66" r="14.4" fill="#ee6677" fill-rule="evenodd" fill-opacity="1" stroke="#000000" stroke-opacity="1" stroke-width="3.6"/>
<circle clip-path="url(#clip092)" cx="1704.48" cy="238.944" r="14.4" fill="#ee6677" fill-rule="evenodd" fill-opacity="1" stroke="#000000" stroke-opacity="1" stroke-width="3.6"/>
<circle clip-path="url(#clip092)" cx="2272.11" cy="306.186" r="14.4" fill="#ee6677" fill-rule="evenodd" fill-opacity="1" stroke="#000000" stroke-opacity="1" stroke-width="3.6"/>
<circle clip-path="url(#clip092)" cx="1594.03" cy="415.207" r="14.4" fill="#ee6677" fill-rule="evenodd" fill-opacity="1" stroke="#000000" stroke-opacity="1" stroke-width="3.6"/>
<circle clip-path="url(#clip092)" cx="1419.83" cy="437.689" r="14.4" fill="#ee6677" fill-rule="evenodd" fill-opacity="1" stroke="#000000" stroke-opacity="1" stroke-width="3.6"/>
<circle clip-path="url(#clip092)" cx="1721.9" cy="1145.63" r="14.4" fill="#ee6677" fill-rule="evenodd" fill-opacity="1" stroke="#000000" stroke-opacity="1" stroke-width="3.6"/>
<circle clip-path="url(#clip092)" cx="1934.58" cy="966.463" r="14.4" fill="#ee6677" fill-rule="evenodd" fill-opacity="1" stroke="#000000" stroke-opacity="1" stroke-width="3.6"/>
<circle clip-path="url(#clip092)" cx="1362.14" cy="1154.87" r="14.4" fill="#ee6677" fill-rule="evenodd" fill-opacity="1" stroke="#000000" stroke-opacity="1" stroke-width="3.6"/>
<circle clip-path="url(#clip092)" cx="2046.06" cy="1433.92" r="14.4" fill="#ee6677" fill-rule="evenodd" fill-opacity="1" stroke="#000000" stroke-opacity="1" stroke-width="3.6"/>
<circle clip-path="url(#clip092)" cx="1577.16" cy="705.181" r="14.4" fill="#ee6677" fill-rule="evenodd" fill-opacity="1" stroke="#000000" stroke-opacity="1" stroke-width="3.6"/>
<circle clip-path="url(#clip092)" cx="971.073" cy="435.183" r="14.4" fill="#ee6677" fill-rule="evenodd" fill-opacity="1" stroke="#000000" stroke-opacity="1" stroke-width="3.6"/>
<circle clip-path="url(#clip092)" cx="1886.85" cy="496.561" r="14.4" fill="#ee6677" fill-rule="evenodd" fill-opacity="1" stroke="#000000" stroke-opacity="1" stroke-width="3.6"/>
<path clip-path="url(#clip090)" d="M436.364 445.807 L775.916 445.807 L775.916 95.8868 L436.364 95.8868  Z" fill="#ffffff" fill-rule="evenodd" fill-opacity="1"/>
<polyline clip-path="url(#clip090)" style="stroke:#000000; stroke-linecap:round; stroke-linejoin:round; stroke-width:4; stroke-opacity:1; fill:none" points="436.364,445.807 775.916,445.807 775.916,95.8868 436.364,95.8868 436.364,445.807 "/>
<circle clip-path="url(#clip090)" cx="524.474" cy="212.527" r="46.08" fill="#4477aa" fill-rule="evenodd" fill-opacity="1" stroke="#000000" stroke-opacity="1" stroke-width="11.52"/>
<path clip-path="url(#clip090)" d="M612.584 213.057 Q612.584 199.266 615.395 190.885 Q618.259 182.452 623.829 177.89 Q629.451 173.328 637.938 173.328 Q644.197 173.328 648.918 175.875 Q653.638 178.368 656.715 183.141 Q659.791 187.862 661.542 194.705 Q663.292 201.494 663.292 213.057 Q663.292 226.742 660.481 235.176 Q657.669 243.556 652.047 248.171 Q646.478 252.733 637.938 252.733 Q626.693 252.733 620.275 244.67 Q612.584 234.964 612.584 213.057 M622.396 213.057 Q622.396 232.205 626.852 238.571 Q631.361 244.883 637.938 244.883 Q644.515 244.883 648.971 238.517 Q653.479 232.152 653.479 213.057 Q653.479 193.856 648.971 187.544 Q644.515 181.232 637.832 181.232 Q631.254 181.232 627.329 186.801 Q622.396 193.909 622.396 213.057 Z" fill="#000000" fill-rule="nonzero" fill-opacity="1" /><path clip-path="url(#clip090)" d="M678.356 251.407 L678.356 240.533 L689.23 240.533 L689.23 251.407 L678.356 251.407 Z" fill="#000000" fill-rule="nonzero" fill-opacity="1" /><path clip-path="url(#clip090)" d="M703.18 213.057 Q703.18 199.266 705.991 190.885 Q708.855 182.452 714.425 177.89 Q720.047 173.328 728.534 173.328 Q734.793 173.328 739.514 175.875 Q744.235 178.368 747.311 183.141 Q750.387 187.862 752.138 194.705 Q753.888 201.494 753.888 213.057 Q753.888 226.742 751.077 235.176 Q748.266 243.556 742.643 248.171 Q737.074 252.733 728.534 252.733 Q717.289 252.733 710.871 244.67 Q703.18 234.964 703.18 213.057 M712.993 213.057 Q712.993 232.205 717.448 238.571 Q721.957 244.883 728.534 244.883 Q735.111 244.883 739.567 238.517 Q744.075 232.152 744.075 213.057 Q744.075 193.856 739.567 187.544 Q735.111 181.232 728.428 181.232 Q721.851 181.232 717.926 186.801 Q712.993 193.909 712.993 213.057 Z" fill="#000000" fill-rule="nonzero" fill-opacity="1" /><circle clip-path="url(#clip090)" cx="524.474" cy="329.167" r="46.08" fill="#ee6677" fill-rule="evenodd" fill-opacity="1" stroke="#000000" stroke-opacity="1" stroke-width="11.52"/>
<path clip-path="url(#clip090)" d="M641.226 368.047 L631.679 368.047 L631.679 307.207 Q628.231 310.496 622.609 313.784 Q617.039 317.073 612.584 318.717 L612.584 309.488 Q620.593 305.722 626.587 300.365 Q632.58 295.008 635.073 289.968 L641.226 289.968 L641.226 368.047 Z" fill="#000000" fill-rule="nonzero" fill-opacity="1" /><path clip-path="url(#clip090)" d="M671.036 368.047 L671.036 357.173 L681.91 357.173 L681.91 368.047 L671.036 368.047 Z" fill="#000000" fill-rule="nonzero" fill-opacity="1" /><path clip-path="url(#clip090)" d="M695.86 329.697 Q695.86 315.906 698.671 307.525 Q701.535 299.092 707.105 294.53 Q712.727 289.968 721.214 289.968 Q727.473 289.968 732.194 292.515 Q736.915 295.008 739.991 299.781 Q743.068 304.502 744.818 311.345 Q746.568 318.134 746.568 329.697 Q746.568 343.382 743.757 351.816 Q740.946 360.196 735.323 364.811 Q729.754 369.373 721.214 369.373 Q709.969 369.373 703.551 361.31 Q695.86 351.604 695.86 329.697 M705.673 329.697 Q705.673 348.845 710.128 355.211 Q714.637 361.523 721.214 361.523 Q727.791 361.523 732.247 355.157 Q736.756 348.792 736.756 329.697 Q736.756 310.496 732.247 304.184 Q727.791 297.872 721.108 297.872 Q714.531 297.872 710.606 303.441 Q705.673 310.549 705.673 329.697 Z" fill="#000000" fill-rule="nonzero" fill-opacity="1" /></svg>
