<?xml version="1.0" encoding="utf-8"?>
<svg xmlns="http://www.w3.org/2000/svg" xmlns:xlink="http://www.w3.org/1999/xlink" width="600" height="450" viewBox="0 0 2400 1800">
<defs>
  <clipPath id="clip340">
    <rect x="0" y="0" width="2400" height="1800"/>
  </clipPath>
</defs>
<path clip-path="url(#clip340)" d="M0 1800 L2400 1800 L2400 0 L0 0  Z" fill="#ffffff" fill-rule="evenodd" fill-opacity="1"/>
<defs>
  <clipPath id="clip341">
    <rect x="480" y="0" width="1681" height="1681"/>
  </clipPath>
</defs>
<path clip-path="url(#clip340)" d="M363.775 1506.52 L2352.76 1506.52 L2352.76 47.2441 L363.775 47.2441  Z" fill="#ffffff" fill-rule="evenodd" fill-opacity="1"/>
<defs>
  <clipPath id="clip342">
    <rect x="363" y="47" width="1990" height="1460"/>
  </clipPath>
</defs>
<polyline clip-path="url(#clip342)" style="stroke:#000000; stroke-linecap:round; stroke-linejoin:round; stroke-width:2; stroke-opacity:0.1; fill:none" points="371.954,1506.52 371.954,47.2441 "/>
<polyline clip-path="url(#clip342)" style="stroke:#000000; stroke-linecap:round; stroke-linejoin:round; stroke-width:2; stroke-opacity:0.1; fill:none" points="853.081,1506.52 853.081,47.2441 "/>
<polyline clip-path="url(#clip342)" style="stroke:#000000; stroke-linecap:round; stroke-linejoin:round; stroke-width:2; stroke-opacity:0.1; fill:none" points="1334.21,1506.52 1334.21,47.2441 "/>
<polyline clip-path="url(#clip342)" style="stroke:#000000; stroke-linecap:round; stroke-linejoin:round; stroke-width:2; stroke-opacity:0.1; fill:none" points="1815.34,1506.52 1815.34,47.2441 "/>
<polyline clip-path="url(#clip342)" style="stroke:#000000; stroke-linecap:round; stroke-linejoin:round; stroke-width:2; stroke-opacity:0.1; fill:none" points="2296.46,1506.52 2296.46,47.2441 "/>
<polyline clip-path="url(#clip342)" style="stroke:#000000; stroke-linecap:round; stroke-linejoin:round; stroke-width:2; stroke-opacity:0.1; fill:none" points="363.775,1287.13 2352.76,1287.13 "/>
<polyline clip-path="url(#clip342)" style="stroke:#000000; stroke-linecap:round; stroke-linejoin:round; stroke-width:2; stroke-opacity:0.1; fill:none" points="363.775,1038.67 2352.76,1038.67 "/>
<polyline clip-path="url(#clip342)" style="stroke:#000000; stroke-linecap:round; stroke-linejoin:round; stroke-width:2; stroke-opacity:0.1; fill:none" points="363.775,790.203 2352.76,790.203 "/>
<polyline clip-path="url(#clip342)" style="stroke:#000000; stroke-linecap:round; stroke-linejoin:round; stroke-width:2; stroke-opacity:0.1; fill:none" points="363.775,541.739 2352.76,541.739 "/>
<polyline clip-path="url(#clip342)" style="stroke:#000000; stroke-linecap:round; stroke-linejoin:round; stroke-width:2; stroke-opacity:0.1; fill:none" points="363.775,293.276 2352.76,293.276 "/>
<polyline clip-path="url(#clip340)" style="stroke:#000000; stroke-linecap:round; stroke-linejoin:round; stroke-width:4; stroke-opacity:1; fill:none" points="363.775,1506.52 2352.76,1506.52 "/>
<polyline clip-path="url(#clip340)" style="stroke:#000000; stroke-linecap:round; stroke-linejoin:round; stroke-width:2; stroke-opacity:0.5; fill:none" points="363.775,47.2441 2352.76,47.2441 "/>
<polyline clip-path="url(#clip340)" style="stroke:#000000; stroke-linecap:round; stroke-linejoin:round; stroke-width:4; stroke-opacity:1; fill:none" points="371.954,1506.52 371.954,1487.63 "/>
<polyline clip-path="url(#clip340)" style="stroke:#000000; stroke-linecap:round; stroke-linejoin:round; stroke-width:4; stroke-opacity:1; fill:none" points="853.081,1506.52 853.081,1487.63 "/>
<polyline clip-path="url(#clip340)" style="stroke:#000000; stroke-linecap:round; stroke-linejoin:round; stroke-width:4; stroke-opacity:1; fill:none" points="1334.21,1506.52 1334.21,1487.63 "/>
<polyline clip-path="url(#clip340)" style="stroke:#000000; stroke-linecap:round; stroke-linejoin:round; stroke-width:4; stroke-opacity:1; fill:none" points="1815.34,1506.52 1815.34,1487.63 "/>
<polyline clip-path="url(#clip340)" style="stroke:#000000; stroke-linecap:round; stroke-linejoin:round; stroke-width:4; stroke-opacity:1; fill:none" points="2296.46,1506.52 2296.46,1487.63 "/>
<path clip-path="url(#clip340)" d="M349.417 1578.04 Q349.417 1565.78 351.916 1558.33 Q354.462 1550.83 359.412 1546.78 Q364.41 1542.72 371.954 1542.72 Q377.517 1542.72 381.713 1544.98 Q385.91 1547.2 388.644 1551.44 Q391.379 1555.64 392.935 1561.72 Q394.491 1567.76 394.491 1578.04 Q394.491 1590.2 391.992 1597.7 Q389.493 1605.15 384.495 1609.25 Q379.545 1613.3 371.954 1613.3 Q361.958 1613.3 356.253 1606.14 Q349.417 1597.51 349.417 1578.04 M358.139 1578.04 Q358.139 1595.06 362.1 1600.71 Q366.107 1606.32 371.954 1606.32 Q377.8 1606.32 381.761 1600.67 Q385.768 1595.01 385.768 1578.04 Q385.768 1560.97 381.761 1555.36 Q377.8 1549.75 371.859 1549.75 Q366.013 1549.75 362.524 1554.7 Q358.139 1561.01 358.139 1578.04 Z" fill="#000000" fill-rule="nonzero" fill-opacity="1" /><path clip-path="url(#clip340)" d="M832.407 1612.12 L823.92 1612.12 L823.92 1558.04 Q820.855 1560.97 815.857 1563.89 Q810.907 1566.81 806.946 1568.28 L806.946 1560.07 Q814.066 1556.72 819.394 1551.96 Q824.721 1547.2 826.937 1542.72 L832.407 1542.72 L832.407 1612.12 Z" fill="#000000" fill-rule="nonzero" fill-opacity="1" /><path clip-path="url(#clip340)" d="M854.142 1578.04 Q854.142 1565.78 856.641 1558.33 Q859.187 1550.83 864.138 1546.78 Q869.135 1542.72 876.679 1542.72 Q882.243 1542.72 886.439 1544.98 Q890.635 1547.2 893.37 1551.44 Q896.104 1555.64 897.66 1561.72 Q899.216 1567.76 899.216 1578.04 Q899.216 1590.2 896.717 1597.7 Q894.219 1605.15 889.221 1609.25 Q884.27 1613.3 876.679 1613.3 Q866.684 1613.3 860.979 1606.14 Q854.142 1597.51 854.142 1578.04 M862.865 1578.04 Q862.865 1595.06 866.825 1600.71 Q870.833 1606.32 876.679 1606.32 Q882.526 1606.32 886.486 1600.67 Q890.494 1595.01 890.494 1578.04 Q890.494 1560.97 886.486 1555.36 Q882.526 1549.75 876.585 1549.75 Q870.738 1549.75 867.249 1554.7 Q862.865 1561.01 862.865 1578.04 Z" fill="#000000" fill-rule="nonzero" fill-opacity="1" /><path clip-path="url(#clip340)" d="M1330.01 1603.97 L1330.01 1612.12 L1284.33 1612.12 Q1284.23 1609.06 1285.32 1606.23 Q1287.06 1601.56 1290.88 1597.04 Q1294.75 1592.51 1302.01 1586.57 Q1313.27 1577.33 1317.24 1571.95 Q1321.2 1566.53 1321.2 1561.72 Q1321.2 1556.68 1317.57 1553.24 Q1313.98 1549.75 1308.18 1549.75 Q1302.05 1549.75 1298.38 1553.42 Q1294.7 1557.1 1294.65 1563.61 L1285.93 1562.71 Q1286.82 1552.95 1292.67 1547.86 Q1298.52 1542.72 1308.37 1542.72 Q1318.32 1542.72 1324.12 1548.24 Q1329.92 1553.75 1329.92 1561.91 Q1329.92 1566.06 1328.22 1570.07 Q1326.52 1574.07 1322.56 1578.51 Q1318.65 1582.94 1309.5 1590.67 Q1301.86 1597.08 1299.7 1599.39 Q1297.53 1601.66 1296.11 1603.97 L1330.01 1603.97 Z" fill="#000000" fill-rule="nonzero" fill-opacity="1" /><path clip-path="url(#clip340)" d="M1339.11 1578.04 Q1339.11 1565.78 1341.61 1558.33 Q1344.16 1550.83 1349.11 1546.78 Q1354.11 1542.72 1361.65 1542.72 Q1367.21 1542.72 1371.41 1544.98 Q1375.61 1547.2 1378.34 1551.44 Q1381.07 1555.64 1382.63 1561.72 Q1384.19 1567.76 1384.19 1578.04 Q1384.19 1590.2 1381.69 1597.7 Q1379.19 1605.15 1374.19 1609.25 Q1369.24 1613.3 1361.65 1613.3 Q1351.65 1613.3 1345.95 1606.14 Q1339.11 1597.51 1339.11 1578.04 M1347.83 1578.04 Q1347.83 1595.06 1351.8 1600.71 Q1355.8 1606.32 1361.65 1606.32 Q1367.5 1606.32 1371.46 1600.67 Q1375.46 1595.01 1375.46 1578.04 Q1375.46 1560.97 1371.46 1555.36 Q1367.5 1549.75 1361.56 1549.75 Q1355.71 1549.75 1352.22 1554.7 Q1347.83 1561.01 1347.83 1578.04 Z" fill="#000000" fill-rule="nonzero" fill-opacity="1" /><path clip-path="url(#clip340)" d="M1765.97 1593.88 L1774.46 1592.75 Q1775.92 1599.96 1779.41 1603.17 Q1782.95 1606.32 1787.99 1606.32 Q1793.98 1606.32 1798.08 1602.18 Q1802.23 1598.03 1802.23 1591.9 Q1802.23 1586.05 1798.41 1582.28 Q1794.59 1578.46 1788.7 1578.46 Q1786.29 1578.46 1782.71 1579.4 L1783.65 1571.95 Q1784.5 1572.05 1785.02 1572.05 Q1790.44 1572.05 1794.78 1569.22 Q1799.12 1566.39 1799.12 1560.5 Q1799.12 1555.83 1795.96 1552.76 Q1792.8 1549.7 1787.8 1549.7 Q1782.85 1549.7 1779.55 1552.81 Q1776.25 1555.92 1775.31 1562.15 L1766.82 1560.64 Q1768.38 1552.1 1773.89 1547.44 Q1779.41 1542.72 1787.61 1542.72 Q1793.27 1542.72 1798.03 1545.17 Q1802.79 1547.58 1805.29 1551.77 Q1807.84 1555.97 1807.84 1560.68 Q1807.84 1565.16 1805.44 1568.84 Q1803.03 1572.52 1798.32 1574.69 Q1804.45 1576.1 1807.84 1580.58 Q1811.23 1585.01 1811.23 1591.71 Q1811.23 1600.76 1804.63 1607.08 Q1798.03 1613.35 1787.94 1613.35 Q1778.84 1613.35 1772.81 1607.93 Q1766.82 1602.51 1765.97 1593.88 Z" fill="#000000" fill-rule="nonzero" fill-opacity="1" /><path clip-path="url(#clip340)" d="M1819.63 1578.04 Q1819.63 1565.78 1822.13 1558.33 Q1824.67 1550.83 1829.62 1546.78 Q1834.62 1542.72 1842.16 1542.72 Q1847.73 1542.72 1851.92 1544.98 Q1856.12 1547.2 1858.85 1551.44 Q1861.59 1555.64 1863.15 1561.72 Q1864.7 1567.76 1864.7 1578.04 Q1864.7 1590.2 1862.2 1597.7 Q1859.7 1605.15 1854.71 1609.25 Q1849.75 1613.3 1842.16 1613.3 Q1832.17 1613.3 1826.46 1606.14 Q1819.63 1597.51 1819.63 1578.04 M1828.35 1578.04 Q1828.35 1595.06 1832.31 1600.71 Q1836.32 1606.32 1842.16 1606.32 Q1848.01 1606.32 1851.97 1600.67 Q1855.98 1595.01 1855.98 1578.04 Q1855.98 1560.97 1851.97 1555.36 Q1848.01 1549.75 1842.07 1549.75 Q1836.22 1549.75 1832.73 1554.7 Q1828.35 1561.01 1828.35 1578.04 Z" fill="#000000" fill-rule="nonzero" fill-opacity="1" /><path clip-path="url(#clip340)" d="M2275.67 1612.12 L2275.67 1595.57 L2245.68 1595.57 L2245.68 1587.8 L2277.23 1543 L2284.16 1543 L2284.16 1587.8 L2293.49 1587.8 L2293.49 1595.57 L2284.16 1595.57 L2284.16 1612.12 L2275.67 1612.12 M2275.67 1587.8 L2275.67 1556.63 L2254.03 1587.8 L2275.67 1587.8 Z" fill="#000000" fill-rule="nonzero" fill-opacity="1" /><path clip-path="url(#clip340)" d="M2302.17 1578.04 Q2302.17 1565.78 2304.67 1558.33 Q2307.21 1550.83 2312.16 1546.78 Q2317.16 1542.72 2324.71 1542.72 Q2330.27 1542.72 2334.47 1544.98 Q2338.66 1547.2 2341.4 1551.44 Q2344.13 1555.64 2345.69 1561.72 Q2347.24 1567.76 2347.24 1578.04 Q2347.24 1590.2 2344.74 1597.7 Q2342.25 1605.15 2337.25 1609.25 Q2332.3 1613.3 2324.71 1613.3 Q2314.71 1613.3 2309.01 1606.14 Q2302.17 1597.51 2302.17 1578.04 M2310.89 1578.04 Q2310.89 1595.06 2314.85 1600.71 Q2318.86 1606.32 2324.71 1606.32 Q2330.55 1606.32 2334.51 1600.67 Q2338.52 1595.01 2338.52 1578.04 Q2338.52 1560.97 2334.51 1555.36 Q2330.55 1549.75 2324.61 1549.75 Q2318.77 1549.75 2315.28 1554.7 Q2310.89 1561.01 2310.89 1578.04 Z" fill="#000000" fill-rule="nonzero" fill-opacity="1" /><path clip-path="url(#clip340)" d="M1257.7 1721.38 L1267.56 1722.6 Q1265.23 1731.24 1258.92 1736.01 Q1252.6 1740.79 1242.79 1740.79 Q1230.43 1740.79 1223.17 1733.2 Q1215.95 1725.57 1215.95 1711.83 Q1215.95 1697.61 1223.27 1689.76 Q1230.59 1681.91 1242.26 1681.91 Q1253.56 1681.91 1260.72 1689.6 Q1267.88 1697.29 1267.88 1711.24 Q1267.88 1712.09 1267.83 1713.79 L1225.82 1713.79 Q1226.35 1723.07 1231.07 1728.01 Q1235.79 1732.94 1242.85 1732.94 Q1248.1 1732.94 1251.81 1730.18 Q1255.52 1727.42 1257.7 1721.38 M1226.35 1705.94 L1257.8 1705.94 Q1257.17 1698.83 1254.2 1695.28 Q1249.63 1689.76 1242.37 1689.76 Q1235.79 1689.76 1231.28 1694.16 Q1226.83 1698.57 1226.35 1705.94 Z" fill="#000000" fill-rule="nonzero" fill-opacity="1" /><path clip-path="url(#clip340)" d="M1279.55 1761.1 L1279.55 1683.18 L1288.25 1683.18 L1288.25 1690.5 Q1291.33 1686.21 1295.2 1684.09 Q1299.07 1681.91 1304.59 1681.91 Q1311.8 1681.91 1317.32 1685.62 Q1322.83 1689.34 1325.64 1696.13 Q1328.46 1702.86 1328.46 1710.93 Q1328.46 1719.57 1325.33 1726.52 Q1322.25 1733.42 1316.31 1737.13 Q1310.42 1740.79 1303.9 1740.79 Q1299.12 1740.79 1295.3 1738.77 Q1291.54 1736.76 1289.1 1733.68 L1289.1 1761.1 L1279.55 1761.1 M1288.2 1711.67 Q1288.2 1722.54 1292.6 1727.74 Q1297 1732.94 1303.26 1732.94 Q1309.63 1732.94 1314.13 1727.58 Q1318.7 1722.17 1318.7 1710.87 Q1318.7 1700.11 1314.24 1694.75 Q1309.84 1689.39 1303.68 1689.39 Q1297.58 1689.39 1292.86 1695.12 Q1288.2 1700.79 1288.2 1711.67 Z" fill="#000000" fill-rule="nonzero" fill-opacity="1" /><path clip-path="url(#clip340)" d="M1336.41 1711.35 Q1336.41 1695.7 1345.11 1688.17 Q1352.38 1681.91 1362.83 1681.91 Q1374.44 1681.91 1381.82 1689.55 Q1389.19 1697.13 1389.19 1710.55 Q1389.19 1721.43 1385.9 1727.69 Q1382.66 1733.89 1376.41 1737.34 Q1370.2 1740.79 1362.83 1740.79 Q1351 1740.79 1343.68 1733.2 Q1336.41 1725.62 1336.41 1711.35 M1346.22 1711.35 Q1346.22 1722.17 1350.95 1727.58 Q1355.67 1732.94 1362.83 1732.94 Q1369.93 1732.94 1374.66 1727.53 Q1379.38 1722.12 1379.38 1711.03 Q1379.38 1700.58 1374.6 1695.23 Q1369.88 1689.82 1362.83 1689.82 Q1355.67 1689.82 1350.95 1695.17 Q1346.22 1700.53 1346.22 1711.35 Z" fill="#000000" fill-rule="nonzero" fill-opacity="1" /><path clip-path="url(#clip340)" d="M1437.14 1718.88 L1446.53 1720.1 Q1444.99 1729.81 1438.62 1735.33 Q1432.31 1740.79 1423.08 1740.79 Q1411.52 1740.79 1404.47 1733.26 Q1397.46 1725.67 1397.46 1711.56 Q1397.46 1702.44 1400.49 1695.6 Q1403.51 1688.75 1409.66 1685.36 Q1415.87 1681.91 1423.14 1681.91 Q1432.31 1681.91 1438.15 1686.58 Q1443.98 1691.19 1445.63 1699.73 L1436.34 1701.17 Q1435.02 1695.49 1431.62 1692.63 Q1428.28 1689.76 1423.51 1689.76 Q1416.29 1689.76 1411.78 1694.96 Q1407.28 1700.11 1407.28 1711.3 Q1407.28 1722.65 1411.63 1727.79 Q1415.98 1732.94 1422.98 1732.94 Q1428.6 1732.94 1432.37 1729.49 Q1436.13 1726.04 1437.14 1718.88 Z" fill="#000000" fill-rule="nonzero" fill-opacity="1" /><path clip-path="url(#clip340)" d="M1454.7 1739.52 L1454.7 1661.76 L1464.24 1661.76 L1464.24 1689.66 Q1470.93 1681.91 1481.11 1681.91 Q1487.37 1681.91 1491.98 1684.4 Q1496.6 1686.84 1498.56 1691.19 Q1500.58 1695.54 1500.58 1703.82 L1500.58 1739.52 L1491.03 1739.52 L1491.03 1703.82 Q1491.03 1696.66 1487.9 1693.42 Q1484.82 1690.13 1479.15 1690.13 Q1474.91 1690.13 1471.14 1692.36 Q1467.43 1694.54 1465.83 1698.3 Q1464.24 1702.07 1464.24 1708.7 L1464.24 1739.52 L1454.7 1739.52 Z" fill="#000000" fill-rule="nonzero" fill-opacity="1" /><polyline clip-path="url(#clip340)" style="stroke:#000000; stroke-linecap:round; stroke-linejoin:round; stroke-width:4; stroke-opacity:1; fill:none" points="363.775,1506.52 363.775,47.2441 "/>
<polyline clip-path="url(#clip340)" style="stroke:#000000; stroke-linecap:round; stroke-linejoin:round; stroke-width:2; stroke-opacity:0.5; fill:none" points="2352.76,1506.52 2352.76,47.2441 "/>
<polyline clip-path="url(#clip340)" style="stroke:#000000; stroke-linecap:round; stroke-linejoin:round; stroke-width:4; stroke-opacity:1; fill:none" points="363.775,1287.13 382.672,1287.13 "/>
<polyline clip-path="url(#clip340)" style="stroke:#000000; stroke-linecap:round; stroke-linejoin:round; stroke-width:4; stroke-opacity:1; fill:none" points="363.775,1038.67 382.672,1038.67 "/>
<polyline clip-path="url(#clip340)" style="stroke:#000000; stroke-linecap:round; stroke-linejoin:round; stroke-width:4; stroke-opacity:1; fill:none" points="363.775,790.203 382.672,790.203 "/>
<polyline clip-path="url(#clip340)" style="stroke:#000000; stroke-linecap:round; stroke-linejoin:round; stroke-width:4; stroke-opacity:1; fill:none" points="363.775,541.739 382.672,541.739 "/>
<polyline clip-path="url(#clip340)" style="stroke:#000000; stroke-linecap:round; stroke-linejoin:round; stroke-width:4; stroke-opacity:1; fill:none" points="363.775,293.276 382.672,293.276 "/>
<path clip-path="url(#clip340)" d="M246.019 1313.53 L246.019 1321.69 L200.332 1321.69 Q200.237 1318.63 201.322 1315.8 Q203.066 1311.13 206.885 1306.6 Q210.751 1302.08 218.012 1296.14 Q229.281 1286.89 233.241 1281.52 Q237.202 1276.1 237.202 1271.29 Q237.202 1266.24 233.571 1262.8 Q229.988 1259.31 224.189 1259.31 Q218.06 1259.31 214.382 1262.99 Q210.704 1266.67 210.657 1273.17 L201.935 1272.28 Q202.83 1262.52 208.677 1257.43 Q214.523 1252.29 224.377 1252.29 Q234.326 1252.29 240.125 1257.8 Q245.924 1263.32 245.924 1271.48 Q245.924 1275.63 244.227 1279.63 Q242.53 1283.64 238.569 1288.07 Q234.656 1292.51 225.509 1300.24 Q217.871 1306.65 215.702 1308.96 Q213.533 1311.22 212.119 1313.53 L246.019 1313.53 Z" fill="#000000" fill-rule="nonzero" fill-opacity="1" /><path clip-path="url(#clip340)" d="M259.88 1321.69 L259.88 1312.03 L269.546 1312.03 L269.546 1321.69 L259.88 1321.69 Z" fill="#000000" fill-rule="nonzero" fill-opacity="1" /><path clip-path="url(#clip340)" d="M281.946 1303.59 L290.857 1302.83 Q291.847 1309.34 295.431 1312.64 Q299.061 1315.89 304.153 1315.89 Q310.282 1315.89 314.526 1311.27 Q318.769 1306.65 318.769 1299.01 Q318.769 1291.75 314.667 1287.55 Q310.612 1283.36 304.012 1283.36 Q299.91 1283.36 296.609 1285.24 Q293.309 1287.08 291.423 1290.05 L283.455 1289.02 L290.15 1253.51 L324.521 1253.51 L324.521 1261.62 L296.939 1261.62 L293.215 1280.2 Q299.438 1275.86 306.275 1275.86 Q315.327 1275.86 321.551 1282.13 Q327.775 1288.4 327.775 1298.26 Q327.775 1307.64 322.305 1314.48 Q315.657 1322.87 304.153 1322.87 Q294.723 1322.87 288.735 1317.59 Q282.795 1312.31 281.946 1303.59 Z" fill="#000000" fill-rule="nonzero" fill-opacity="1" /><path clip-path="url(#clip340)" d="M202.17 1055.12 L211.081 1054.37 Q212.072 1060.87 215.655 1064.17 Q219.285 1067.43 224.377 1067.43 Q230.507 1067.43 234.75 1062.81 Q238.994 1058.19 238.994 1050.55 Q238.994 1043.29 234.892 1039.09 Q230.837 1034.89 224.236 1034.89 Q220.134 1034.89 216.834 1036.78 Q213.533 1038.62 211.647 1041.59 L203.679 1040.55 L210.374 1005.05 L244.746 1005.05 L244.746 1013.16 L217.164 1013.16 L213.439 1031.74 Q219.663 1027.4 226.499 1027.4 Q235.552 1027.4 241.775 1033.67 Q247.999 1039.94 247.999 1049.79 Q247.999 1059.18 242.53 1066.01 Q235.882 1074.41 224.377 1074.41 Q214.948 1074.41 208.96 1069.12 Q203.019 1063.84 202.17 1055.12 Z" fill="#000000" fill-rule="nonzero" fill-opacity="1" /><path clip-path="url(#clip340)" d="M260.635 1073.23 L260.635 1063.56 L270.3 1063.56 L270.3 1073.23 L260.635 1073.23 Z" fill="#000000" fill-rule="nonzero" fill-opacity="1" /><path clip-path="url(#clip340)" d="M282.7 1039.14 Q282.7 1026.88 285.199 1019.43 Q287.745 1011.93 292.696 1007.88 Q297.694 1003.82 305.237 1003.82 Q310.801 1003.82 314.997 1006.09 Q319.193 1008.3 321.928 1012.55 Q324.663 1016.74 326.219 1022.82 Q327.775 1028.86 327.775 1039.14 Q327.775 1051.3 325.276 1058.8 Q322.777 1066.25 317.779 1070.35 Q312.828 1074.41 305.237 1074.41 Q295.242 1074.41 289.537 1067.24 Q282.7 1058.61 282.7 1039.14 M291.423 1039.14 Q291.423 1056.16 295.383 1061.82 Q299.391 1067.43 305.237 1067.43 Q311.084 1067.43 315.044 1061.77 Q319.052 1056.11 319.052 1039.14 Q319.052 1022.07 315.044 1016.46 Q311.084 1010.85 305.143 1010.85 Q299.297 1010.85 295.808 1015.8 Q291.423 1022.12 291.423 1039.14 Z" fill="#000000" fill-rule="nonzero" fill-opacity="1" /><path clip-path="url(#clip340)" d="M201.982 764.696 L201.982 756.539 L246.726 756.539 L246.726 763.14 Q240.125 770.165 233.619 781.811 Q227.159 793.456 223.623 805.762 Q221.077 814.438 220.37 824.763 L211.647 824.763 Q211.789 816.606 214.853 805.055 Q217.918 793.503 223.623 782.801 Q229.375 772.051 235.835 764.696 L201.982 764.696 Z" fill="#000000" fill-rule="nonzero" fill-opacity="1" /><path clip-path="url(#clip340)" d="M259.88 824.763 L259.88 815.098 L269.546 815.098 L269.546 824.763 L259.88 824.763 Z" fill="#000000" fill-rule="nonzero" fill-opacity="1" /><path clip-path="url(#clip340)" d="M281.946 806.658 L290.857 805.904 Q291.847 812.41 295.431 815.711 Q299.061 818.964 304.153 818.964 Q310.282 818.964 314.526 814.343 Q318.769 809.723 318.769 802.085 Q318.769 794.824 314.667 790.627 Q310.612 786.431 304.012 786.431 Q299.91 786.431 296.609 788.317 Q293.309 790.156 291.423 793.126 L283.455 792.089 L290.15 756.586 L324.521 756.586 L324.521 764.696 L296.939 764.696 L293.215 783.272 Q299.438 778.935 306.275 778.935 Q315.327 778.935 321.551 785.205 Q327.775 791.476 327.775 801.33 Q327.775 810.713 322.305 817.549 Q315.657 825.942 304.153 825.942 Q294.723 825.942 288.735 820.661 Q282.795 815.38 281.946 806.658 Z" fill="#000000" fill-rule="nonzero" fill-opacity="1" /><path clip-path="url(#clip340)" d="M180.435 576.299 L171.948 576.299 L171.948 522.22 Q168.883 525.143 163.886 528.066 Q158.935 530.989 154.975 532.451 L154.975 524.247 Q162.094 520.9 167.422 516.138 Q172.75 511.376 174.966 506.896 L180.435 506.896 L180.435 576.299 Z" fill="#000000" fill-rule="nonzero" fill-opacity="1" /><path clip-path="url(#clip340)" d="M202.17 542.211 Q202.17 529.952 204.669 522.503 Q207.215 515.006 212.166 510.951 Q217.164 506.896 224.707 506.896 Q230.271 506.896 234.467 509.16 Q238.663 511.376 241.398 515.619 Q244.133 519.815 245.689 525.897 Q247.245 531.932 247.245 542.211 Q247.245 554.375 244.746 561.872 Q242.247 569.321 237.249 573.423 Q232.298 577.478 224.707 577.478 Q214.712 577.478 209.007 570.311 Q202.17 561.683 202.17 542.211 M210.893 542.211 Q210.893 559.232 214.853 564.889 Q218.861 570.5 224.707 570.5 Q230.554 570.5 234.514 564.842 Q238.522 559.184 238.522 542.211 Q238.522 525.143 234.514 519.532 Q230.554 513.922 224.613 513.922 Q218.767 513.922 215.278 518.872 Q210.893 525.19 210.893 542.211 Z" fill="#000000" fill-rule="nonzero" fill-opacity="1" /><path clip-path="url(#clip340)" d="M260.635 576.299 L260.635 566.634 L270.3 566.634 L270.3 576.299 L260.635 576.299 Z" fill="#000000" fill-rule="nonzero" fill-opacity="1" /><path clip-path="url(#clip340)" d="M282.7 542.211 Q282.7 529.952 285.199 522.503 Q287.745 515.006 292.696 510.951 Q297.694 506.896 305.237 506.896 Q310.801 506.896 314.997 509.16 Q319.193 511.376 321.928 515.619 Q324.663 519.815 326.219 525.897 Q327.775 531.932 327.775 542.211 Q327.775 554.375 325.276 561.872 Q322.777 569.321 317.779 573.423 Q312.828 577.478 305.237 577.478 Q295.242 577.478 289.537 570.311 Q282.7 561.683 282.7 542.211 M291.423 542.211 Q291.423 559.232 295.383 564.889 Q299.391 570.5 305.237 570.5 Q311.084 570.5 315.044 564.842 Q319.052 559.184 319.052 542.211 Q319.052 525.143 315.044 519.532 Q311.084 513.922 305.143 513.922 Q299.297 513.922 295.808 518.872 Q291.423 525.19 291.423 542.211 Z" fill="#000000" fill-rule="nonzero" fill-opacity="1" /><path clip-path="url(#clip340)" d="M179.68 327.836 L171.194 327.836 L171.194 273.756 Q168.129 276.679 163.131 279.603 Q158.181 282.526 154.22 283.987 L154.22 275.783 Q161.34 272.436 166.667 267.674 Q171.995 262.912 174.211 258.433 L179.68 258.433 L179.68 327.836 Z" fill="#000000" fill-rule="nonzero" fill-opacity="1" /><path clip-path="url(#clip340)" d="M246.019 319.679 L246.019 327.836 L200.332 327.836 Q200.237 324.771 201.322 321.942 Q203.066 317.274 206.885 312.748 Q210.751 308.222 218.012 302.281 Q229.281 293.04 233.241 287.665 Q237.202 282.243 237.202 277.434 Q237.202 272.389 233.571 268.947 Q229.988 265.458 224.189 265.458 Q218.06 265.458 214.382 269.135 Q210.704 272.813 210.657 279.32 L201.935 278.424 Q202.83 268.664 208.677 263.572 Q214.523 258.433 224.377 258.433 Q234.326 258.433 240.125 263.949 Q245.924 269.466 245.924 277.622 Q245.924 281.771 244.227 285.779 Q242.53 289.787 238.569 294.219 Q234.656 298.651 225.509 306.383 Q217.871 312.795 215.702 315.105 Q213.533 317.369 212.119 319.679 L246.019 319.679 Z" fill="#000000" fill-rule="nonzero" fill-opacity="1" /><path clip-path="url(#clip340)" d="M259.88 327.836 L259.88 318.17 L269.546 318.17 L269.546 327.836 L259.88 327.836 Z" fill="#000000" fill-rule="nonzero" fill-opacity="1" /><path clip-path="url(#clip340)" d="M281.946 309.731 L290.857 308.976 Q291.847 315.483 295.431 318.783 Q299.061 322.036 304.153 322.036 Q310.282 322.036 314.526 317.416 Q318.769 312.795 318.769 305.157 Q318.769 297.896 314.667 293.7 Q310.612 289.504 304.012 289.504 Q299.91 289.504 296.609 291.39 Q293.309 293.228 291.423 296.199 L283.455 295.162 L290.15 259.659 L324.521 259.659 L324.521 267.768 L296.939 267.768 L293.215 286.345 Q299.438 282.007 306.275 282.007 Q315.327 282.007 321.551 288.278 Q327.775 294.549 327.775 304.403 Q327.775 313.785 322.305 320.622 Q315.657 329.014 304.153 329.014 Q294.723 329.014 288.735 323.734 Q282.795 318.453 281.946 309.731 Z" fill="#000000" fill-rule="nonzero" fill-opacity="1" /><path clip-path="url(#clip340)" d="M94.8922 867.905 L17.1322 867.905 L17.1322 858.357 L94.8922 858.357 L94.8922 867.905 Z" fill="#000000" fill-rule="nonzero" fill-opacity="1" /><path clip-path="url(#clip340)" d="M66.7267 847.112 Q51.0792 847.112 43.5472 838.413 Q37.2882 831.146 37.2882 820.697 Q37.2882 809.081 44.9263 801.708 Q52.5114 794.335 65.9311 794.335 Q76.8047 794.335 83.0637 797.623 Q89.2697 800.859 92.7174 807.118 Q96.1652 813.324 96.1652 820.697 Q96.1652 832.525 88.5801 839.845 Q80.9951 847.112 66.7267 847.112 M66.7267 837.299 Q77.5473 837.299 82.9576 832.578 Q88.3149 827.858 88.3149 820.697 Q88.3149 813.589 82.9046 808.868 Q77.4943 804.148 66.4084 804.148 Q55.9591 804.148 50.6018 808.921 Q45.1915 813.642 45.1915 820.697 Q45.1915 827.858 50.5488 832.578 Q55.9061 837.299 66.7267 837.299 Z" fill="#000000" fill-rule="nonzero" fill-opacity="1" /><path clip-path="url(#clip340)" d="M78.0778 786.962 L76.5926 777.52 Q82.2681 776.725 85.2915 773.118 Q88.3149 769.458 88.3149 762.934 Q88.3149 756.357 85.6628 753.174 Q82.9576 749.991 79.3508 749.991 Q76.1152 749.991 74.2587 752.803 Q72.9857 754.765 71.0231 762.563 Q68.371 773.065 66.4615 777.149 Q64.4989 781.18 61.1042 783.302 Q57.6565 785.371 53.5192 785.371 Q49.7532 785.371 46.5706 783.673 Q43.335 781.923 41.2134 778.953 Q39.569 776.725 38.4552 772.906 Q37.2882 769.034 37.2882 764.631 Q37.2882 758.001 39.1978 753.015 Q41.1073 747.976 44.3959 745.589 Q47.6315 743.202 53.0948 742.3 L54.3678 751.636 Q50.0184 752.272 47.5784 755.349 Q45.1385 758.372 45.1385 763.942 Q45.1385 770.519 47.3132 773.33 Q49.488 776.141 52.4053 776.141 Q54.2618 776.141 55.7469 774.974 Q57.2852 773.807 58.293 771.314 Q58.8234 769.882 60.7329 762.881 Q63.4381 752.75 65.1885 748.772 Q66.8858 744.74 70.1744 742.459 Q73.4631 740.179 78.343 740.179 Q83.1168 740.179 87.3602 742.99 Q91.5505 745.748 93.8844 750.999 Q96.1652 756.25 96.1652 762.881 Q96.1652 773.861 91.6035 779.642 Q87.0419 785.371 78.0778 786.962 Z" fill="#000000" fill-rule="nonzero" fill-opacity="1" /><path clip-path="url(#clip340)" d="M78.0778 732.647 L76.5926 723.205 Q82.2681 722.41 85.2915 718.803 Q88.3149 715.143 88.3149 708.619 Q88.3149 702.041 85.6628 698.859 Q82.9576 695.676 79.3508 695.676 Q76.1152 695.676 74.2587 698.487 Q72.9857 700.45 71.0231 708.247 Q68.371 718.75 66.4615 722.834 Q64.4989 726.865 61.1042 728.987 Q57.6565 731.055 53.5192 731.055 Q49.7532 731.055 46.5706 729.358 Q43.335 727.608 41.2134 724.637 Q39.569 722.41 38.4552 718.59 Q37.2882 714.718 37.2882 710.316 Q37.2882 703.686 39.1978 698.7 Q41.1073 693.661 44.3959 691.274 Q47.6315 688.887 53.0948 687.985 L54.3678 697.32 Q50.0184 697.957 47.5784 701.033 Q45.1385 704.057 45.1385 709.626 Q45.1385 716.204 47.3132 719.015 Q49.488 721.826 52.4053 721.826 Q54.2618 721.826 55.7469 720.659 Q57.2852 719.492 58.293 716.999 Q58.8234 715.567 60.7329 708.565 Q63.4381 698.434 65.1885 694.456 Q66.8858 690.425 70.1744 688.144 Q73.4631 685.863 78.343 685.863 Q83.1168 685.863 87.3602 688.675 Q91.5505 691.433 93.8844 696.684 Q96.1652 701.935 96.1652 708.565 Q96.1652 719.545 91.6035 725.327 Q87.0419 731.055 78.0778 732.647 Z" fill="#000000" fill-rule="nonzero" fill-opacity="1" /><polyline clip-path="url(#clip342)" style="stroke:#4477aa; stroke-linecap:round; stroke-linejoin:round; stroke-width:8; stroke-opacity:1; fill:none" points="420.066,1138.85 468.179,1225.85 516.292,1269.93 564.405,1303.25 612.517,1327.01 660.63,1344.71 708.743,1358.59 756.856,1369.77 804.969,1379.09 853.081,1387.06 901.194,1393.86 949.307,1400 997.42,1405.56 1045.53,1410.49 1093.65,1414.79 1141.76,1418.75 1189.87,1422.53 1237.98,1425.98 1286.1,1429.13 1334.21,1432.06 1382.32,1434.85 1430.43,1437.36 1478.55,1439.77 1526.66,1442 1574.77,1444.11 1622.89,1446.11 1671,1447.98 1719.11,1449.76 1767.22,1451.44 1815.34,1453.01 1863.45,1454.52 1911.56,1455.94 1959.67,1457.31 2007.79,1458.6 2055.9,1459.84 2104.01,1461.03 2152.13,1462.11 2200.24,1463.22 2248.35,1464.25 2296.46,1465.22 "/>
<circle clip-path="url(#clip342)" cx="420.066" cy="1138.85" r="14.4" fill="#4477aa" fill-rule="evenodd" fill-opacity="1" stroke="#000000" stroke-opacity="1" stroke-width="3.6"/>
<circle clip-path="url(#clip342)" cx="468.179" cy="1225.85" r="14.4" fill="#4477aa" fill-rule="evenodd" fill-opacity="1" stroke="#000000" stroke-opacity="1" stroke-width="3.6"/>
<circle clip-path="url(#clip342)" cx="516.292" cy="1269.93" r="14.4" fill="#4477aa" fill-rule="evenodd" fill-opacity="1" stroke="#000000" stroke-opacity="1" stroke-width="3.6"/>
<circle clip-path="url(#clip342)" cx="564.405" cy="1303.25" r="14.4" fill="#4477aa" fill-rule="evenodd" fill-opacity="1" stroke="#000000" stroke-opacity="1" stroke-width="3.6"/>
<circle clip-path="url(#clip342)" cx="612.517" cy="1327.01" r="14.4" fill="#4477aa" fill-rule="evenodd" fill-opacity="1" stroke="#000000" stroke-opacity="1" stroke-width="3.6"/>
<circle clip-path="url(#clip342)" cx="660.63" cy="1344.71" r="14.4" fill="#4477aa" fill-rule="evenodd" fill-opacity="1" stroke="#000000" stroke-opacity="1" stroke-width="3.6"/>
<circle clip-path="url(#clip342)" cx="708.743" cy="1358.59" r="14.4" fill="#4477aa" fill-rule="evenodd" fill-opacity="1" stroke="#000000" stroke-opacity="1" stroke-width="3.6"/>
<circle clip-path="url(#clip342)" cx="756.856" cy="1369.77" r="14.4" fill="#4477aa" fill-rule="evenodd" fill-opacity="1" stroke="#000000" stroke-opacity="1" stroke-width="3.6"/>
<circle clip-path="url(#clip342)" cx="804.969" cy="1379.09" r="14.4" fill="#4477aa" fill-rule="evenodd" fill-opacity="1" stroke="#000000" stroke-opacity="1" stroke-width="3.6"/>
<circle clip-path="url(#clip342)" cx="853.081" cy="1387.06" r="14.4" fill="#4477aa" fill-rule="evenodd" fill-opacity="1" stroke="#000000" stroke-opacity="1" stroke-width="3.6"/>
<circle clip-path="url(#clip342)" cx="901.194" cy="1393.86" r="14.4" fill="#4477aa" fill-rule="evenodd" fill-opacity="1" stroke="#000000" stroke-opacity="1" stroke-width="3.6"/>
<circle clip-path="url(#clip342)" cx="949.307" cy="1400" r="14.4" fill="#4477aa" fill-rule="evenodd" fill-opacity="1" stroke="#000000" stroke-opacity="1" stroke-width="3.6"/>
<circle clip-path="url(#clip342)" cx="997.42" cy="1405.56" r="14.4" fill="#4477aa" fill-rule="evenodd" fill-opacity="1" stroke="#000000" stroke-opacity="1" stroke-width="3.6"/>
<circle clip-path="url(#clip342)" cx="1045.53" cy="1410.49" r="14.4" fill="#4477aa" fill-rule="evenodd" fill-opacity="1" stroke="#000000" stroke-opacity="1" stroke-width="3.6"/>
<circle clip-path="url(#clip342)" cx="1093.65" cy="1414.79" r="14.4" fill="#4477aa" fill-rule="evenodd" fill-opacity="1" stroke="#000000" stroke-opacity="1" stroke-width="3.6"/>
<circle clip-path="url(#clip342)" cx="1141.76" cy="1418.75" r="14.4" fill="#4477aa" fill-rule="evenodd" fill-opacity="1" stroke="#000000" stroke-opacity="1" stroke-width="3.6"/>
<circle clip-path="url(#clip342)" cx="1189.87" cy="1422.53" r="14.4" fill="#4477aa" fill-rule="evenodd" fill-opacity="1" stroke="#000000" stroke-opacity="1" stroke-width="3.6"/>
<circle clip-path="url(#clip342)" cx="1237.98" cy="1425.98" r="14.4" fill="#4477aa" fill-rule="evenodd" fill-opacity="1" stroke="#000000" stroke-opacity="1" stroke-width="3.6"/>
<circle clip-path="url(#clip342)" cx="1286.1" cy="1429.13" r="14.4" fill="#4477aa" fill-rule="evenodd" fill-opacity="1" stroke="#000000" stroke-opacity="1" stroke-width="3.6"/>
<circle clip-path="url(#clip342)" cx="1334.21" cy="1432.06" r="14.4" fill="#4477aa" fill-rule="evenodd" fill-opacity="1" stroke="#000000" stroke-opacity="1" stroke-width="3.6"/>
<circle clip-path="url(#clip342)" cx="1382.32" cy="1434.85" r="14.4" fill="#4477aa" fill-rule="evenodd" fill-opacity="1" stroke="#000000" stroke-opacity="1" stroke-width="3.6"/>
<circle clip-path="url(#clip342)" cx="1430.43" cy="1437.36" r="14.4" fill="#4477aa" fill-rule="evenodd" fill-opacity="1" stroke="#000000" stroke-opacity="1" stroke-width="3.6"/>
<circle clip-path="url(#clip342)" cx="1478.55" cy="1439.77" r="14.4" fill="#4477aa" fill-rule="evenodd" fill-opacity="1" stroke="#000000" stroke-opacity="1" stroke-width="3.6"/>
<circle clip-path="url(#clip342)" cx="1526.66" cy="1442" r="14.4" fill="#4477aa" fill-rule="evenodd" fill-opacity="1" stroke="#000000" stroke-opacity="1" stroke-width="3.6"/>
<circle clip-path="url(#clip342)" cx="1574.77" cy="1444.11" r="14.4" fill="#4477aa" fill-rule="evenodd" fill-opacity="1" stroke="#000000" stroke-opacity="1" stroke-width="3.6"/>
<circle clip-path="url(#clip342)" cx="1622.89" cy="1446.11" r="14.4" fill="#4477aa" fill-rule="evenodd" fill-opacity="1" stroke="#000000" stroke-opacity="1" stroke-width="3.6"/>
<circle clip-path="url(#clip342)" cx="1671" cy="1447.98" r="14.4" fill="#4477aa" fill-rule="evenodd" fill-opacity="1" stroke="#000000" stroke-opacity="1" stroke-width="3.6"/>
<circle clip-path="url(#clip342)" cx="1719.11" cy="1449.76" r="14.4" fill="#4477aa" fill-rule="evenodd" fill-opacity="1" stroke="#000000" stroke-opacity="1" stroke-width="3.6"/>
<circle clip-path="url(#clip342)" cx="1767.22" cy="1451.44" r="14.4" fill="#4477aa" fill-rule="evenodd" fill-opacity="1" stroke="#000000" stroke-opacity="1" stroke-width="3.6"/>
<circle clip-path="url(#clip342)" cx="1815.34" cy="1453.01" r="14.4" fill="#4477aa" fill-rule="evenodd" fill-opacity="1" stroke="#000000" stroke-opacity="1" stroke-width="3.6"/>
<circle clip-path="url(#clip342)" cx="1863.45" cy="1454.52" r="14.4" fill="#4477aa" fill-rule="evenodd" fill-opacity="1" stroke="#000000" stroke-opacity="1" stroke-width="3.6"/>
<circle clip-path="url(#clip342)" cx="1911.56" cy="1455.94" r="14.4" fill="#4477aa" fill-rule="evenodd" fill-opacity="1" stroke="#000000" stroke-opacity="1" stroke-width="3.6"/>
<circle clip-path="url(#clip342)" cx="1959.67" cy="1457.31" r="14.4" fill="#4477aa" fill-rule="evenodd" fill-opacity="1" stroke="#000000" stroke-opacity="1" stroke-width="3.6"/>
<circle clip-path="url(#clip342)" cx="2007.79" cy="1458.6" r="14.4" fill="#4477aa" fill-rule="evenodd" fill-opacity="1" stroke="#000000" stroke-opacity="1" stroke-width="3.6"/>
<circle clip-path="url(#clip342)" cx="2055.9" cy="1459.84" r="14.4" fill="#4477aa" fill-rule="evenodd" fill-opacity="1" stroke="#000000" stroke-opacity="1" stroke-width="3.6"/>
<circle clip-path="url(#clip342)" cx="2104.01" cy="1461.03" r="14.4" fill="#4477aa" fill-rule="evenodd" fill-opacity="1" stroke="#000000" stroke-opacity="1" stroke-width="3.6"/>
<circle clip-path="url(#clip342)" cx="2152.13" cy="1462.11" r="14.4" fill="#4477aa" fill-rule="evenodd" fill-opacity="1" stroke="#000000" stroke-opacity="1" stroke-width="3.6"/>
<circle clip-path="url(#clip342)" cx="2200.24" cy="1463.22" r="14.4" fill="#4477aa" fill-rule="evenodd" fill-opacity="1" stroke="#000000" stroke-opacity="1" stroke-width="3.6"/>
<circle clip-path="url(#clip342)" cx="2248.35" cy="1464.25" r="14.4" fill="#4477aa" fill-rule="evenodd" fill-opacity="1" stroke="#000000" stroke-opacity="1" stroke-width="3.6"/>
<circle clip-path="url(#clip342)" cx="2296.46" cy="1465.22" r="14.4" fill="#4477aa" fill-rule="evenodd" fill-opacity="1" stroke="#000000" stroke-opacity="1" stroke-width="3.6"/>
<polyline clip-path="url(#clip342)" style="stroke:#ee6677; stroke-linecap:round; stroke-linejoin:round; stroke-width:8; stroke-opacity:1; fill:none" points="420.066,88.5445 468.179,1044.2 516.292,1101.79 564.405,1155.06 612.517,1195.05 660.63,1225.12 708.743,1248.63 756.856,1267.57 804.969,1283.16 853.081,1296.62 901.194,1308.23 949.307,1318.39 997.42,1327.38 1045.53,1336 1093.65,1342.95 1141.76,1349.33 1189.87,1356.09 1237.98,1361.71 1286.1,1367.04 1334.21,1371.92 1382.32,1376.69 1430.43,1380.91 1478.55,1384.93 1526.66,1388.75 1574.77,1392.35 1622.89,1395.76 1671,1398.93 1719.11,1402 1767.22,1404.87 1815.34,1407.6 1863.45,1410.15 1911.56,1412.62 1959.67,1414.97 2007.79,1417.26 2055.9,1419.4 2104.01,1421.48 2152.13,1423.42 2200.24,1425.3 2248.35,1427.05 2296.46,1428.84 "/>
<circle clip-path="url(#clip342)" cx="420.066" cy="88.5445" r="14.4" fill="#ee6677" fill-rule="evenodd" fill-opacity="1" stroke="#000000" stroke-opacity="1" stroke-width="3.6"/>
<circle clip-path="url(#clip342)" cx="468.179" cy="1044.2" r="14.4" fill="#ee6677" fill-rule="evenodd" fill-opacity="1" stroke="#000000" stroke-opacity="1" stroke-width="3.6"/>
<circle clip-path="url(#clip342)" cx="516.292" cy="1101.79" r="14.4" fill="#ee6677" fill-rule="evenodd" fill-opacity="1" stroke="#000000" stroke-opacity="1" stroke-width="3.6"/>
<circle clip-path="url(#clip342)" cx="564.405" cy="1155.06" r="14.4" fill="#ee6677" fill-rule="evenodd" fill-opacity="1" stroke="#000000" stroke-opacity="1" stroke-width="3.6"/>
<circle clip-path="url(#clip342)" cx="612.517" cy="1195.05" r="14.4" fill="#ee6677" fill-rule="evenodd" fill-opacity="1" stroke="#000000" stroke-opacity="1" stroke-width="3.6"/>
<circle clip-path="url(#clip342)" cx="660.63" cy="1225.12" r="14.4" fill="#ee6677" fill-rule="evenodd" fill-opacity="1" stroke="#000000" stroke-opacity="1" stroke-width="3.6"/>
<circle clip-path="url(#clip342)" cx="708.743" cy="1248.63" r="14.4" fill="#ee6677" fill-rule="evenodd" fill-opacity="1" stroke="#000000" stroke-opacity="1" stroke-width="3.6"/>
<circle clip-path="url(#clip342)" cx="756.856" cy="1267.57" r="14.4" fill="#ee6677" fill-rule="evenodd" fill-opacity="1" stroke="#000000" stroke-opacity="1" stroke-width="3.6"/>
<circle clip-path="url(#clip342)" cx="804.969" cy="1283.16" r="14.4" fill="#ee6677" fill-rule="evenodd" fill-opacity="1" stroke="#000000" stroke-opacity="1" stroke-width="3.6"/>
<circle clip-path="url(#clip342)" cx="853.081" cy="1296.62" r="14.4" fill="#ee6677" fill-rule="evenodd" fill-opacity="1" stroke="#000000" stroke-opacity="1" stroke-width="3.6"/>
<circle clip-path="url(#clip342)" cx="901.194" cy="1308.23" r="14.4" fill="#ee6677" fill-rule="evenodd" fill-opacity="1" stroke="#000000" stroke-opacity="1" stroke-width="3.6"/>
<circle clip-path="url(#clip342)" cx="949.307" cy="1318.39" r="14.4" fill="#ee6677" fill-rule="evenodd" fill-opacity="1" stroke="#000000" stroke-opacity="1" stroke-width="3.6"/>
<circle clip-path="url(#clip342)" cx="997.42" cy="1327.38" r="14.4" fill="#ee6677" fill-rule="evenodd" fill-opacity="1" stroke="#000000" stroke-opacity="1" stroke-width="3.6"/>
<circle clip-path="url(#clip342)" cx="1045.53" cy="1336" r="14.4" fill="#ee6677" fill-rule="evenodd" fill-opacity="1" stroke="#000000" stroke-opacity="1" stroke-width="3.6"/>
<circle clip-path="url(#clip342)" cx="1093.65" cy="1342.95" r="14.4" fill="#ee6677" fill-rule="evenodd" fill-opacity="1" stroke="#000000" stroke-opacity="1" stroke-width="3.6"/>
<circle clip-path="url(#clip342)" cx="1141.76" cy="1349.33" r="14.4" fill="#ee6677" fill-rule="evenodd" fill-opacity="1" stroke="#000000" stroke-opacity="1" stroke-width="3.6"/>
<circle clip-path="url(#clip342)" cx="1189.87" cy="1356.09" r="14.4" fill="#ee6677" fill-rule="evenodd" fill-opacity="1" stroke="#000000" stroke-opacity="1" stroke-width="3.6"/>
<circle clip-path="url(#clip342)" cx="1237.98" cy="1361.71" r="14.4" fill="#ee6677" fill-rule="evenodd" fill-opacity="1" stroke="#000000" stroke-opacity="1" stroke-width="3.6"/>
<circle clip-path="url(#clip342)" cx="1286.1" cy="1367.04" r="14.4" fill="#ee6677" fill-rule="evenodd" fill-opacity="1" stroke="#000000" stroke-opacity="1" stroke-width="3.6"/>
<circle clip-path="url(#clip342)" cx="1334.21" cy="1371.92" r="14.4" fill="#ee6677" fill-rule="evenodd" fill-opacity="1" stroke="#000000" stroke-opacity="1" stroke-width="3.6"/>
<circle clip-path="url(#clip342)" cx="1382.32" cy="1376.69" r="14.4" fill="#ee6677" fill-rule="evenodd" fill-opacity="1" stroke="#000000" stroke-opacity="1" stroke-width="3.6"/>
<circle clip-path="url(#clip342)" cx="1430.43" cy="1380.91" r="14.4" fill="#ee6677" fill-rule="evenodd" fill-opacity="1" stroke="#000000" stroke-opacity="1" stroke-width="3.6"/>
<circle clip-path="url(#clip342)" cx="1478.55" cy="1384.93" r="14.4" fill="#ee6677" fill-rule="evenodd" fill-opacity="1" stroke="#000000" stroke-opacity="1" stroke-width="3.6"/>
<circle clip-path="url(#clip342)" cx="1526.66" cy="1388.75" r="14.4" fill="#ee6677" fill-rule="evenodd" fill-opacity="1" stroke="#000000" stroke-opacity="1" stroke-width="3.6"/>
<circle clip-path="url(#clip342)" cx="1574.77" cy="1392.35" r="14.4" fill="#ee6677" fill-rule="evenodd" fill-opacity="1" stroke="#000000" stroke-opacity="1" stroke-width="3.6"/>
<circle clip-path="url(#clip342)" cx="1622.89" cy="1395.76" r="14.4" fill="#ee6677" fill-rule="evenodd" fill-opacity="1" stroke="#000000" stroke-opacity="1" stroke-width="3.6"/>
<circle clip-path="url(#clip342)" cx="1671" cy="1398.93" r="14.4" fill="#ee6677" fill-rule="evenodd" fill-opacity="1" stroke="#000000" stroke-opacity="1" stroke-width="3.6"/>
<circle clip-path="url(#clip342)" cx="1719.11" cy="1402" r="14.4" fill="#ee6677" fill-rule="evenodd" fill-opacity="1" stroke="#000000" stroke-opacity="1" stroke-width="3.6"/>
<circle clip-path="url(#clip342)" cx="1767.22" cy="1404.87" r="14.4" fill="#ee6677" fill-rule="evenodd" fill-opacity="1" stroke="#000000" stroke-opacity="1" stroke-width="3.6"/>
<circle clip-path="url(#clip342)" cx="1815.34" cy="1407.6" r="14.4" fill="#ee6677" fill-rule="evenodd" fill-opacity="1" stroke="#000000" stroke-opacity="1" stroke-width="3.6"/>
<circle clip-path="url(#clip342)" cx="1863.45" cy="1410.15" r="14.4" fill="#ee6677" fill-rule="evenodd" fill-opacity="1" stroke="#000000" stroke-opacity="1" stroke-width="3.6"/>
<circle clip-path="url(#clip342)" cx="1911.56" cy="1412.62" r="14.4" fill="#ee6677" fill-rule="evenodd" fill-opacity="1" stroke="#000000" stroke-opacity="1" stroke-width="3.6"/>
<circle clip-path="url(#clip342)" cx="1959.67" cy="1414.97" r="14.4" fill="#ee6677" fill-rule="evenodd" fill-opacity="1" stroke="#000000" stroke-opacity="1" stroke-width="3.6"/>
<circle clip-path="url(#clip342)" cx="2007.79" cy="1417.26" r="14.4" fill="#ee6677" fill-rule="evenodd" fill-opacity="1" stroke="#000000" stroke-opacity="1" stroke-width="3.6"/>
<circle clip-path="url(#clip342)" cx="2055.9" cy="1419.4" r="14.4" fill="#ee6677" fill-rule="evenodd" fill-opacity="1" stroke="#000000" stroke-opacity="1" stroke-width="3.6"/>
<circle clip-path="url(#clip342)" cx="2104.01" cy="1421.48" r="14.4" fill="#ee6677" fill-rule="evenodd" fill-opacity="1" stroke="#000000" stroke-opacity="1" stroke-width="3.6"/>
<circle clip-path="url(#clip342)" cx="2152.13" cy="1423.42" r="14.4" fill="#ee6677" fill-rule="evenodd" fill-opacity="1" stroke="#000000" stroke-opacity="1" stroke-width="3.6"/>
<circle clip-path="url(#clip342)" cx="2200.24" cy="1425.3" r="14.4" fill="#ee6677" fill-rule="evenodd" fill-opacity="1" stroke="#000000" stroke-opacity="1" stroke-width="3.6"/>
<circle clip-path="url(#clip342)" cx="2248.35" cy="1427.05" r="14.4" fill="#ee6677" fill-rule="evenodd" fill-opacity="1" stroke="#000000" stroke-opacity="1" stroke-width="3.6"/>
<circle clip-path="url(#clip342)" cx="2296.46" cy="1428.84" r="14.4" fill="#ee6677" fill-rule="evenodd" fill-opacity="1" stroke="#000000" stroke-opacity="1" stroke-width="3.6"/>
<path clip-path="url(#clip340)" d="M1628.74 445.807 L2286.46 445.807 L2286.46 95.8868 L1628.74 95.8868  Z" fill="#ffffff" fill-rule="evenodd" fill-opacity="1"/>
<polyline clip-path="url(#clip340)" style="stroke:#000000; stroke-linecap:round; stroke-linejoin:round; stroke-width:4; stroke-opacity:1; fill:none" points="1628.74,445.807 2286.46,445.807 2286.46,95.8868 1628.74,95.8868 1628.74,445.807 "/>
<polyline clip-path="url(#clip340)" style="stroke:#4477aa; stroke-linecap:round; stroke-linejoin:round; stroke-width:18; stroke-opacity:1; fill:none" points="1650.84,212.527 1783.44,212.527 "/>
<circle clip-path="url(#clip340)" cx="1717.14" cy="212.527" r="8.18511" fill="#4477aa" fill-rule="evenodd" fill-opacity="1" stroke="#000000" stroke-opacity="1" stroke-width="8.18511"/>
<path clip-path="url(#clip340)" d="M1831.64 242.867 L1833.02 251.301 Q1828.99 252.149 1825.8 252.149 Q1820.6 252.149 1817.74 250.505 Q1814.88 248.861 1813.71 246.209 Q1812.54 243.503 1812.54 234.911 L1812.54 202.502 L1805.54 202.502 L1805.54 195.076 L1812.54 195.076 L1812.54 181.126 L1822.04 175.397 L1822.04 195.076 L1831.64 195.076 L1831.64 202.502 L1822.04 202.502 L1822.04 235.441 Q1822.04 239.525 1822.51 240.692 Q1823.04 241.859 1824.16 242.549 Q1825.33 243.238 1827.45 243.238 Q1829.04 243.238 1831.64 242.867 Z" fill="#000000" fill-rule="nonzero" fill-opacity="1" /><path clip-path="url(#clip340)" d="M1840.87 251.407 L1840.87 195.076 L1849.46 195.076 L1849.46 203.616 Q1852.75 197.622 1855.51 195.712 Q1858.32 193.803 1861.66 193.803 Q1866.49 193.803 1871.47 196.879 L1868.18 205.737 Q1864.68 203.669 1861.18 203.669 Q1858.05 203.669 1855.56 205.578 Q1853.07 207.435 1852.01 210.776 Q1850.41 215.868 1850.41 221.915 L1850.41 251.407 L1840.87 251.407 Z" fill="#000000" fill-rule="nonzero" fill-opacity="1" /><path clip-path="url(#clip340)" d="M1913.91 244.458 Q1908.6 248.967 1903.67 250.823 Q1898.79 252.68 1893.17 252.68 Q1883.88 252.68 1878.9 248.171 Q1873.91 243.61 1873.91 236.555 Q1873.91 232.418 1875.77 229.023 Q1877.68 225.575 1880.7 223.507 Q1883.78 221.438 1887.6 220.377 Q1890.41 219.634 1896.08 218.945 Q1907.65 217.566 1913.11 215.656 Q1913.16 213.694 1913.16 213.163 Q1913.16 207.329 1910.46 204.942 Q1906.8 201.706 1899.58 201.706 Q1892.85 201.706 1889.61 204.093 Q1886.43 206.427 1884.89 212.421 L1875.56 211.148 Q1876.83 205.154 1879.75 201.494 Q1882.66 197.781 1888.18 195.818 Q1893.7 193.803 1900.96 193.803 Q1908.18 193.803 1912.69 195.5 Q1917.19 197.198 1919.32 199.797 Q1921.44 202.343 1922.29 206.268 Q1922.76 208.708 1922.76 215.073 L1922.76 227.803 Q1922.76 241.117 1923.35 244.67 Q1923.98 248.171 1925.79 251.407 L1915.82 251.407 Q1914.33 248.436 1913.91 244.458 M1913.11 223.135 Q1907.91 225.257 1897.52 226.742 Q1891.63 227.591 1889.19 228.652 Q1886.75 229.712 1885.42 231.781 Q1884.1 233.797 1884.1 236.29 Q1884.1 240.109 1886.96 242.655 Q1889.88 245.201 1895.45 245.201 Q1900.96 245.201 1905.26 242.814 Q1909.56 240.374 1911.57 236.184 Q1913.11 232.948 1913.11 226.636 L1913.11 223.135 Z" fill="#000000" fill-rule="nonzero" fill-opacity="1" /><path clip-path="url(#clip340)" d="M1937.62 184.627 L1937.62 173.647 L1947.16 173.647 L1947.16 184.627 L1937.62 184.627 M1937.62 251.407 L1937.62 195.076 L1947.16 195.076 L1947.16 251.407 L1937.62 251.407 Z" fill="#000000" fill-rule="nonzero" fill-opacity="1" /><path clip-path="url(#clip340)" d="M1961.7 251.407 L1961.7 195.076 L1970.29 195.076 L1970.29 203.085 Q1976.5 193.803 1988.22 193.803 Q1993.31 193.803 1997.55 195.659 Q2001.85 197.463 2003.97 200.433 Q2006.09 203.403 2006.94 207.488 Q2007.47 210.14 2007.47 216.77 L2007.47 251.407 L1997.93 251.407 L1997.93 217.141 Q1997.93 211.307 1996.81 208.442 Q1995.7 205.525 1992.83 203.828 Q1990.02 202.077 1986.2 202.077 Q1980.1 202.077 1975.65 205.95 Q1971.25 209.822 1971.25 220.642 L1971.25 251.407 L1961.7 251.407 Z" fill="#000000" fill-rule="nonzero" fill-opacity="1" /><path clip-path="url(#clip340)" d="M2013.31 272.995 L2013.31 266.099 L2076.59 266.099 L2076.59 272.995 L2013.31 272.995 Z" fill="#000000" fill-rule="nonzero" fill-opacity="1" /><path clip-path="url(#clip340)" d="M2082.32 251.407 L2082.32 173.647 L2091.86 173.647 L2091.86 251.407 L2082.32 251.407 Z" fill="#000000" fill-rule="nonzero" fill-opacity="1" /><path clip-path="url(#clip340)" d="M2103.11 223.241 Q2103.11 207.594 2111.81 200.062 Q2119.07 193.803 2129.52 193.803 Q2141.14 193.803 2148.51 201.441 Q2155.89 209.026 2155.89 222.446 Q2155.89 233.319 2152.6 239.578 Q2149.36 245.784 2143.1 249.232 Q2136.9 252.68 2129.52 252.68 Q2117.69 252.68 2110.37 245.095 Q2103.11 237.51 2103.11 223.241 M2112.92 223.241 Q2112.92 234.062 2117.64 239.472 Q2122.36 244.83 2129.52 244.83 Q2136.63 244.83 2141.35 239.419 Q2146.07 234.009 2146.07 222.923 Q2146.07 212.474 2141.3 207.116 Q2136.58 201.706 2129.52 201.706 Q2122.36 201.706 2117.64 207.063 Q2112.92 212.421 2112.92 223.241 Z" fill="#000000" fill-rule="nonzero" fill-opacity="1" /><path clip-path="url(#clip340)" d="M2163.26 234.592 L2172.7 233.107 Q2173.5 238.783 2177.1 241.806 Q2180.76 244.83 2187.29 244.83 Q2193.86 244.83 2197.05 242.177 Q2200.23 239.472 2200.23 235.865 Q2200.23 232.63 2197.42 230.773 Q2195.45 229.5 2187.66 227.538 Q2177.16 224.886 2173.07 222.976 Q2169.04 221.014 2166.92 217.619 Q2164.85 214.171 2164.85 210.034 Q2164.85 206.268 2166.55 203.085 Q2168.3 199.85 2171.27 197.728 Q2173.5 196.084 2177.31 194.97 Q2181.19 193.803 2185.59 193.803 Q2192.22 193.803 2197.21 195.712 Q2202.24 197.622 2204.63 200.91 Q2207.02 204.146 2207.92 209.609 L2198.58 210.882 Q2197.95 206.533 2194.87 204.093 Q2191.85 201.653 2186.28 201.653 Q2179.7 201.653 2176.89 203.828 Q2174.08 206.003 2174.08 208.92 Q2174.08 210.776 2175.25 212.262 Q2176.41 213.8 2178.91 214.808 Q2180.34 215.338 2187.34 217.248 Q2197.47 219.953 2201.45 221.703 Q2205.48 223.4 2207.76 226.689 Q2210.04 229.978 2210.04 234.858 Q2210.04 239.631 2207.23 243.875 Q2204.47 248.065 2199.22 250.399 Q2193.97 252.68 2187.34 252.68 Q2176.36 252.68 2170.58 248.118 Q2164.85 243.556 2163.26 234.592 Z" fill="#000000" fill-rule="nonzero" fill-opacity="1" /><path clip-path="url(#clip340)" d="M2217.57 234.592 L2227.01 233.107 Q2227.81 238.783 2231.42 241.806 Q2235.08 244.83 2241.6 244.83 Q2248.18 244.83 2251.36 242.177 Q2254.54 239.472 2254.54 235.865 Q2254.54 232.63 2251.73 230.773 Q2249.77 229.5 2241.97 227.538 Q2231.47 224.886 2227.39 222.976 Q2223.36 221.014 2221.23 217.619 Q2219.16 214.171 2219.16 210.034 Q2219.16 206.268 2220.86 203.085 Q2222.61 199.85 2225.58 197.728 Q2227.81 196.084 2231.63 194.97 Q2235.5 193.803 2239.9 193.803 Q2246.53 193.803 2251.52 195.712 Q2256.56 197.622 2258.95 200.91 Q2261.33 204.146 2262.24 209.609 L2252.9 210.882 Q2252.26 206.533 2249.19 204.093 Q2246.16 201.653 2240.59 201.653 Q2234.02 201.653 2231.21 203.828 Q2228.39 206.003 2228.39 208.92 Q2228.39 210.776 2229.56 212.262 Q2230.73 213.8 2233.22 214.808 Q2234.65 215.338 2241.65 217.248 Q2251.79 219.953 2255.76 221.703 Q2259.8 223.4 2262.08 226.689 Q2264.36 229.978 2264.36 234.858 Q2264.36 239.631 2261.55 243.875 Q2258.79 248.065 2253.54 250.399 Q2248.28 252.68 2241.65 252.68 Q2230.67 252.68 2224.89 248.118 Q2219.16 243.556 2217.57 234.592 Z" fill="#000000" fill-rule="nonzero" fill-opacity="1" /><polyline clip-path="url(#clip340)" style="stroke:#ee6677; stroke-linecap:round; stroke-linejoin:round; stroke-width:18; stroke-opacity:1; fill:none" points="1650.84,329.167 1783.44,329.167 "/>
<circle clip-path="url(#clip340)" cx="1717.14" cy="329.167" r="8.18511" fill="#ee6677" fill-rule="evenodd" fill-opacity="1" stroke="#000000" stroke-opacity="1" stroke-width="8.18511"/>
<path clip-path="url(#clip340)" d="M1826.97 368.047 L1805.54 311.716 L1815.62 311.716 L1827.71 345.451 Q1829.68 350.914 1831.32 356.802 Q1832.59 352.346 1834.87 346.087 L1847.39 311.716 L1857.2 311.716 L1835.88 368.047 L1826.97 368.047 Z" fill="#000000" fill-rule="nonzero" fill-opacity="1" /><path clip-path="url(#clip340)" d="M1902.4 361.098 Q1897.09 365.607 1892.16 367.463 Q1887.28 369.32 1881.66 369.32 Q1872.37 369.32 1867.39 364.811 Q1862.4 360.25 1862.4 353.195 Q1862.4 349.058 1864.26 345.663 Q1866.17 342.215 1869.19 340.147 Q1872.27 338.078 1876.09 337.017 Q1878.9 336.274 1884.57 335.585 Q1896.14 334.206 1901.6 332.296 Q1901.65 330.334 1901.65 329.803 Q1901.65 323.969 1898.95 321.582 Q1895.29 318.346 1888.07 318.346 Q1881.34 318.346 1878.1 320.733 Q1874.92 323.067 1873.38 329.061 L1864.05 327.788 Q1865.32 321.794 1868.24 318.134 Q1871.15 314.421 1876.67 312.458 Q1882.19 310.443 1889.45 310.443 Q1896.67 310.443 1901.18 312.14 Q1905.68 313.838 1907.81 316.437 Q1909.93 318.983 1910.78 322.908 Q1911.25 325.348 1911.25 331.713 L1911.25 344.443 Q1911.25 357.757 1911.84 361.31 Q1912.47 364.811 1914.28 368.047 L1904.31 368.047 Q1902.82 365.076 1902.4 361.098 M1901.6 339.775 Q1896.4 341.897 1886.01 343.382 Q1880.12 344.231 1877.68 345.292 Q1875.24 346.352 1873.91 348.421 Q1872.59 350.437 1872.59 352.93 Q1872.59 356.749 1875.45 359.295 Q1878.37 361.841 1883.94 361.841 Q1889.45 361.841 1893.75 359.454 Q1898.05 357.014 1900.06 352.824 Q1901.6 349.588 1901.6 343.276 L1901.6 339.775 Z" fill="#000000" fill-rule="nonzero" fill-opacity="1" /><path clip-path="url(#clip340)" d="M1925.84 368.047 L1925.84 290.287 L1935.39 290.287 L1935.39 368.047 L1925.84 368.047 Z" fill="#000000" fill-rule="nonzero" fill-opacity="1" /><path clip-path="url(#clip340)" d="M1941.38 389.635 L1941.38 382.739 L2004.66 382.739 L2004.66 389.635 L1941.38 389.635 Z" fill="#000000" fill-rule="nonzero" fill-opacity="1" /><path clip-path="url(#clip340)" d="M2010.39 368.047 L2010.39 290.287 L2019.94 290.287 L2019.94 368.047 L2010.39 368.047 Z" fill="#000000" fill-rule="nonzero" fill-opacity="1" /><path clip-path="url(#clip340)" d="M2031.18 339.881 Q2031.18 324.234 2039.88 316.702 Q2047.15 310.443 2057.6 310.443 Q2069.21 310.443 2076.59 318.081 Q2083.96 325.666 2083.96 339.086 Q2083.96 349.959 2080.67 356.218 Q2077.44 362.424 2071.18 365.872 Q2064.97 369.32 2057.6 369.32 Q2045.77 369.32 2038.45 361.735 Q2031.18 354.15 2031.18 339.881 M2041 339.881 Q2041 350.702 2045.72 356.112 Q2050.44 361.47 2057.6 361.47 Q2064.71 361.47 2069.43 356.059 Q2074.15 350.649 2074.15 339.563 Q2074.15 329.114 2069.37 323.756 Q2064.65 318.346 2057.6 318.346 Q2050.44 318.346 2045.72 323.703 Q2041 329.061 2041 339.881 Z" fill="#000000" fill-rule="nonzero" fill-opacity="1" /><path clip-path="url(#clip340)" d="M2091.33 351.232 L2100.77 349.747 Q2101.57 355.423 2105.18 358.446 Q2108.84 361.47 2115.36 361.47 Q2121.94 361.47 2125.12 358.817 Q2128.3 356.112 2128.3 352.505 Q2128.3 349.27 2125.49 347.413 Q2123.53 346.14 2115.73 344.178 Q2105.23 341.526 2101.15 339.616 Q2097.11 337.654 2094.99 334.259 Q2092.92 330.811 2092.92 326.674 Q2092.92 322.908 2094.62 319.725 Q2096.37 316.49 2099.34 314.368 Q2101.57 312.724 2105.39 311.61 Q2109.26 310.443 2113.66 310.443 Q2120.29 310.443 2125.28 312.352 Q2130.32 314.262 2132.71 317.55 Q2135.09 320.786 2135.99 326.249 L2126.66 327.522 Q2126.02 323.173 2122.95 320.733 Q2119.92 318.293 2114.35 318.293 Q2107.78 318.293 2104.96 320.468 Q2102.15 322.643 2102.15 325.56 Q2102.15 327.416 2103.32 328.902 Q2104.49 330.44 2106.98 331.448 Q2108.41 331.978 2115.41 333.888 Q2125.55 336.593 2129.52 338.343 Q2133.55 340.04 2135.84 343.329 Q2138.12 346.618 2138.12 351.498 Q2138.12 356.271 2135.3 360.515 Q2132.55 364.705 2127.3 367.039 Q2122.04 369.32 2115.41 369.32 Q2104.43 369.32 2098.65 364.758 Q2092.92 360.196 2091.33 351.232 Z" fill="#000000" fill-rule="nonzero" fill-opacity="1" /><path clip-path="url(#clip340)" d="M2145.65 351.232 L2155.09 349.747 Q2155.89 355.423 2159.49 358.446 Q2163.15 361.47 2169.68 361.47 Q2176.25 361.47 2179.44 358.817 Q2182.62 356.112 2182.62 352.505 Q2182.62 349.27 2179.81 347.413 Q2177.84 346.14 2170.05 344.178 Q2159.55 341.526 2155.46 339.616 Q2151.43 337.654 2149.31 334.259 Q2147.24 330.811 2147.24 326.674 Q2147.24 322.908 2148.94 319.725 Q2150.69 316.49 2153.66 314.368 Q2155.89 312.724 2159.7 311.61 Q2163.58 310.443 2167.98 310.443 Q2174.61 310.443 2179.6 312.352 Q2184.63 314.262 2187.02 317.55 Q2189.41 320.786 2190.31 326.249 L2180.97 327.522 Q2180.34 323.173 2177.26 320.733 Q2174.24 318.293 2168.67 318.293 Q2162.09 318.293 2159.28 320.468 Q2156.47 322.643 2156.47 325.56 Q2156.47 327.416 2157.64 328.902 Q2158.8 330.44 2161.3 331.448 Q2162.73 331.978 2169.73 333.888 Q2179.86 336.593 2183.84 338.343 Q2187.87 340.04 2190.15 343.329 Q2192.43 346.618 2192.43 351.498 Q2192.43 356.271 2189.62 360.515 Q2186.86 364.705 2181.61 367.039 Q2176.36 369.32 2169.73 369.32 Q2158.75 369.32 2152.97 364.758 Q2147.24 360.196 2145.65 351.232 Z" fill="#000000" fill-rule="nonzero" fill-opacity="1" /></svg>
