<?xml version="1.0" encoding="utf-8"?>
<svg xmlns="http://www.w3.org/2000/svg" xmlns:xlink="http://www.w3.org/1999/xlink" width="600" height="400" viewBox="0 0 2400 1600">
<defs>
  <clipPath id="clip620">
    <rect x="0" y="0" width="2400" height="1600"/>
  </clipPath>
</defs>
<path clip-path="url(#clip620)" d="M0 1600 L2400 1600 L2400 8.88178e-14 L0 8.88178e-14  Z" fill="#ffffff" fill-rule="evenodd" fill-opacity="1"/>
<defs>
  <clipPath id="clip621">
    <rect x="480" y="0" width="1681" height="1600"/>
  </clipPath>
</defs>
<path clip-path="url(#clip620)" d="M112.177 1486.45 L2352.76 1486.45 L2352.76 47.2441 L112.177 47.2441  Z" fill="#ffffff" fill-rule="evenodd" fill-opacity="1"/>
<defs>
  <clipPath id="clip622">
    <rect x="112" y="47" width="2242" height="1440"/>
  </clipPath>
</defs>
<polyline clip-path="url(#clip622)" style="stroke:#222255; stroke-linecap:round; stroke-linejoin:round; stroke-width:2; stroke-opacity:0.1; fill:none" points="175.59,1486.45 175.59,47.2441 "/>
<polyline clip-path="url(#clip622)" style="stroke:#222255; stroke-linecap:round; stroke-linejoin:round; stroke-width:2; stroke-opacity:0.1; fill:none" points="704.028,1486.45 704.028,47.2441 "/>
<polyline clip-path="url(#clip622)" style="stroke:#222255; stroke-linecap:round; stroke-linejoin:round; stroke-width:2; stroke-opacity:0.1; fill:none" points="1232.47,1486.45 1232.47,47.2441 "/>
<polyline clip-path="url(#clip622)" style="stroke:#222255; stroke-linecap:round; stroke-linejoin:round; stroke-width:2; stroke-opacity:0.1; fill:none" points="1760.9,1486.45 1760.9,47.2441 "/>
<polyline clip-path="url(#clip622)" style="stroke:#222255; stroke-linecap:round; stroke-linejoin:round; stroke-width:2; stroke-opacity:0.1; fill:none" points="2289.34,1486.45 2289.34,47.2441 "/>
<polyline clip-path="url(#clip622)" style="stroke:#222255; stroke-linecap:round; stroke-linejoin:round; stroke-width:2; stroke-opacity:0.05; fill:none" points="281.277,1486.45 281.277,47.2441 "/>
<polyline clip-path="url(#clip622)" style="stroke:#222255; stroke-linecap:round; stroke-linejoin:round; stroke-width:2; stroke-opacity:0.05; fill:none" points="386.965,1486.45 386.965,47.2441 "/>
<polyline clip-path="url(#clip622)" style="stroke:#222255; stroke-linecap:round; stroke-linejoin:round; stroke-width:2; stroke-opacity:0.05; fill:none" points="492.653,1486.45 492.653,47.2441 "/>
<polyline clip-path="url(#clip622)" style="stroke:#222255; stroke-linecap:round; stroke-linejoin:round; stroke-width:2; stroke-opacity:0.05; fill:none" points="598.34,1486.45 598.34,47.2441 "/>
<polyline clip-path="url(#clip622)" style="stroke:#222255; stroke-linecap:round; stroke-linejoin:round; stroke-width:2; stroke-opacity:0.05; fill:none" points="809.716,1486.45 809.716,47.2441 "/>
<polyline clip-path="url(#clip622)" style="stroke:#222255; stroke-linecap:round; stroke-linejoin:round; stroke-width:2; stroke-opacity:0.05; fill:none" points="915.404,1486.45 915.404,47.2441 "/>
<polyline clip-path="url(#clip622)" style="stroke:#222255; stroke-linecap:round; stroke-linejoin:round; stroke-width:2; stroke-opacity:0.05; fill:none" points="1021.09,1486.45 1021.09,47.2441 "/>
<polyline clip-path="url(#clip622)" style="stroke:#222255; stroke-linecap:round; stroke-linejoin:round; stroke-width:2; stroke-opacity:0.05; fill:none" points="1126.78,1486.45 1126.78,47.2441 "/>
<polyline clip-path="url(#clip622)" style="stroke:#222255; stroke-linecap:round; stroke-linejoin:round; stroke-width:2; stroke-opacity:0.05; fill:none" points="1338.15,1486.45 1338.15,47.2441 "/>
<polyline clip-path="url(#clip622)" style="stroke:#222255; stroke-linecap:round; stroke-linejoin:round; stroke-width:2; stroke-opacity:0.05; fill:none" points="1443.84,1486.45 1443.84,47.2441 "/>
<polyline clip-path="url(#clip622)" style="stroke:#222255; stroke-linecap:round; stroke-linejoin:round; stroke-width:2; stroke-opacity:0.05; fill:none" points="1549.53,1486.45 1549.53,47.2441 "/>
<polyline clip-path="url(#clip622)" style="stroke:#222255; stroke-linecap:round; stroke-linejoin:round; stroke-width:2; stroke-opacity:0.05; fill:none" points="1655.22,1486.45 1655.22,47.2441 "/>
<polyline clip-path="url(#clip622)" style="stroke:#222255; stroke-linecap:round; stroke-linejoin:round; stroke-width:2; stroke-opacity:0.05; fill:none" points="1866.59,1486.45 1866.59,47.2441 "/>
<polyline clip-path="url(#clip622)" style="stroke:#222255; stroke-linecap:round; stroke-linejoin:round; stroke-width:2; stroke-opacity:0.05; fill:none" points="1972.28,1486.45 1972.28,47.2441 "/>
<polyline clip-path="url(#clip622)" style="stroke:#222255; stroke-linecap:round; stroke-linejoin:round; stroke-width:2; stroke-opacity:0.05; fill:none" points="2077.97,1486.45 2077.97,47.2441 "/>
<polyline clip-path="url(#clip622)" style="stroke:#222255; stroke-linecap:round; stroke-linejoin:round; stroke-width:2; stroke-opacity:0.05; fill:none" points="2183.66,1486.45 2183.66,47.2441 "/>
<polyline clip-path="url(#clip620)" style="stroke:#222255; stroke-linecap:round; stroke-linejoin:round; stroke-width:4; stroke-opacity:0; fill:none" points="175.59,1486.45 175.59,1467.55 "/>
<polyline clip-path="url(#clip620)" style="stroke:#222255; stroke-linecap:round; stroke-linejoin:round; stroke-width:4; stroke-opacity:0; fill:none" points="704.028,1486.45 704.028,1467.55 "/>
<polyline clip-path="url(#clip620)" style="stroke:#222255; stroke-linecap:round; stroke-linejoin:round; stroke-width:4; stroke-opacity:0; fill:none" points="1232.47,1486.45 1232.47,1467.55 "/>
<polyline clip-path="url(#clip620)" style="stroke:#222255; stroke-linecap:round; stroke-linejoin:round; stroke-width:4; stroke-opacity:0; fill:none" points="1760.9,1486.45 1760.9,1467.55 "/>
<polyline clip-path="url(#clip620)" style="stroke:#222255; stroke-linecap:round; stroke-linejoin:round; stroke-width:4; stroke-opacity:0; fill:none" points="2289.34,1486.45 2289.34,1467.55 "/>
<polyline clip-path="url(#clip620)" style="stroke:#222255; stroke-linecap:round; stroke-linejoin:round; stroke-width:4; stroke-opacity:0; fill:none" points="281.277,1486.45 281.277,1477 "/>
<polyline clip-path="url(#clip620)" style="stroke:#222255; stroke-linecap:round; stroke-linejoin:round; stroke-width:4; stroke-opacity:0; fill:none" points="386.965,1486.45 386.965,1477 "/>
<polyline clip-path="url(#clip620)" style="stroke:#222255; stroke-linecap:round; stroke-linejoin:round; stroke-width:4; stroke-opacity:0; fill:none" points="492.653,1486.45 492.653,1477 "/>
<polyline clip-path="url(#clip620)" style="stroke:#222255; stroke-linecap:round; stroke-linejoin:round; stroke-width:4; stroke-opacity:0; fill:none" points="598.34,1486.45 598.34,1477 "/>
<polyline clip-path="url(#clip620)" style="stroke:#222255; stroke-linecap:round; stroke-linejoin:round; stroke-width:4; stroke-opacity:0; fill:none" points="809.716,1486.45 809.716,1477 "/>
<polyline clip-path="url(#clip620)" style="stroke:#222255; stroke-linecap:round; stroke-linejoin:round; stroke-width:4; stroke-opacity:0; fill:none" points="915.404,1486.45 915.404,1477 "/>
<polyline clip-path="url(#clip620)" style="stroke:#222255; stroke-linecap:round; stroke-linejoin:round; stroke-width:4; stroke-opacity:0; fill:none" points="1021.09,1486.45 1021.09,1477 "/>
<polyline clip-path="url(#clip620)" style="stroke:#222255; stroke-linecap:round; stroke-linejoin:round; stroke-width:4; stroke-opacity:0; fill:none" points="1126.78,1486.45 1126.78,1477 "/>
<polyline clip-path="url(#clip620)" style="stroke:#222255; stroke-linecap:round; stroke-linejoin:round; stroke-width:4; stroke-opacity:0; fill:none" points="1338.15,1486.45 1338.15,1477 "/>
<polyline clip-path="url(#clip620)" style="stroke:#222255; stroke-linecap:round; stroke-linejoin:round; stroke-width:4; stroke-opacity:0; fill:none" points="1443.84,1486.45 1443.84,1477 "/>
<polyline clip-path="url(#clip620)" style="stroke:#222255; stroke-linecap:round; stroke-linejoin:round; stroke-width:4; stroke-opacity:0; fill:none" points="1549.53,1486.45 1549.53,1477 "/>
<polyline clip-path="url(#clip620)" style="stroke:#222255; stroke-linecap:round; stroke-linejoin:round; stroke-width:4; stroke-opacity:0; fill:none" points="1655.22,1486.45 1655.22,1477 "/>
<polyline clip-path="url(#clip620)" style="stroke:#222255; stroke-linecap:round; stroke-linejoin:round; stroke-width:4; stroke-opacity:0; fill:none" points="1866.59,1486.45 1866.59,1477 "/>
<polyline clip-path="url(#clip620)" style="stroke:#222255; stroke-linecap:round; stroke-linejoin:round; stroke-width:4; stroke-opacity:0; fill:none" points="1972.28,1486.45 1972.28,1477 "/>
<polyline clip-path="url(#clip620)" style="stroke:#222255; stroke-linecap:round; stroke-linejoin:round; stroke-width:4; stroke-opacity:0; fill:none" points="2077.97,1486.45 2077.97,1477 "/>
<polyline clip-path="url(#clip620)" style="stroke:#222255; stroke-linecap:round; stroke-linejoin:round; stroke-width:4; stroke-opacity:0; fill:none" points="2183.66,1486.45 2183.66,1477 "/>
<path clip-path="url(#clip620)" d="M142.743 1544.91 L150.382 1544.91 L150.382 1518.55 L142.071 1520.21 L142.071 1515.95 L150.335 1514.29 L155.011 1514.29 L155.011 1544.91 L162.65 1544.91 L162.65 1548.85 L142.743 1548.85 L142.743 1544.91 Z" fill="#000000" fill-rule="nonzero" fill-opacity="1" /><path clip-path="url(#clip620)" d="M172.094 1542.97 L176.979 1542.97 L176.979 1548.85 L172.094 1548.85 L172.094 1542.97 Z" fill="#000000" fill-rule="nonzero" fill-opacity="1" /><path clip-path="url(#clip620)" d="M197.164 1517.37 Q193.553 1517.37 191.724 1520.93 Q189.918 1524.47 189.918 1531.6 Q189.918 1538.71 191.724 1542.27 Q193.553 1545.82 197.164 1545.82 Q200.798 1545.82 202.604 1542.27 Q204.432 1538.71 204.432 1531.6 Q204.432 1524.47 202.604 1520.93 Q200.798 1517.37 197.164 1517.37 M197.164 1513.66 Q202.974 1513.66 206.029 1518.27 Q209.108 1522.85 209.108 1531.6 Q209.108 1540.33 206.029 1544.94 Q202.974 1549.52 197.164 1549.52 Q191.354 1549.52 188.275 1544.94 Q185.219 1540.33 185.219 1531.6 Q185.219 1522.85 188.275 1518.27 Q191.354 1513.66 197.164 1513.66 Z" fill="#000000" fill-rule="nonzero" fill-opacity="1" /><path clip-path="url(#clip620)" d="M671.679 1544.91 L679.318 1544.91 L679.318 1518.55 L671.008 1520.21 L671.008 1515.95 L679.271 1514.29 L683.947 1514.29 L683.947 1544.91 L691.586 1544.91 L691.586 1548.85 L671.679 1548.85 L671.679 1544.91 Z" fill="#000000" fill-rule="nonzero" fill-opacity="1" /><path clip-path="url(#clip620)" d="M701.03 1542.97 L705.915 1542.97 L705.915 1548.85 L701.03 1548.85 L701.03 1542.97 Z" fill="#000000" fill-rule="nonzero" fill-opacity="1" /><path clip-path="url(#clip620)" d="M716.146 1514.29 L734.503 1514.29 L734.503 1518.22 L720.429 1518.22 L720.429 1526.7 Q721.447 1526.35 722.466 1526.19 Q723.484 1526 724.503 1526 Q730.29 1526 733.669 1529.17 Q737.049 1532.34 737.049 1537.76 Q737.049 1543.34 733.577 1546.44 Q730.104 1549.52 723.785 1549.52 Q721.609 1549.52 719.341 1549.15 Q717.095 1548.78 714.688 1548.04 L714.688 1543.34 Q716.771 1544.47 718.993 1545.03 Q721.216 1545.58 723.692 1545.58 Q727.697 1545.58 730.035 1543.48 Q732.373 1541.37 732.373 1537.76 Q732.373 1534.15 730.035 1532.04 Q727.697 1529.94 723.692 1529.94 Q721.817 1529.94 719.942 1530.35 Q718.091 1530.77 716.146 1531.65 L716.146 1514.29 Z" fill="#000000" fill-rule="nonzero" fill-opacity="1" /><path clip-path="url(#clip620)" d="M1203.71 1544.91 L1220.02 1544.91 L1220.02 1548.85 L1198.08 1548.85 L1198.08 1544.91 Q1200.74 1542.16 1205.33 1537.53 Q1209.93 1532.88 1211.11 1531.53 Q1213.36 1529.01 1214.24 1527.27 Q1215.14 1525.51 1215.14 1523.82 Q1215.14 1521.07 1213.2 1519.33 Q1211.27 1517.6 1208.17 1517.6 Q1205.97 1517.6 1203.52 1518.36 Q1201.09 1519.13 1198.31 1520.68 L1198.31 1515.95 Q1201.14 1514.82 1203.59 1514.24 Q1206.04 1513.66 1208.08 1513.66 Q1213.45 1513.66 1216.64 1516.35 Q1219.84 1519.03 1219.84 1523.52 Q1219.84 1525.65 1219.03 1527.57 Q1218.24 1529.47 1216.14 1532.07 Q1215.56 1532.74 1212.46 1535.95 Q1209.35 1539.15 1203.71 1544.91 Z" fill="#000000" fill-rule="nonzero" fill-opacity="1" /><path clip-path="url(#clip620)" d="M1229.84 1542.97 L1234.72 1542.97 L1234.72 1548.85 L1229.84 1548.85 L1229.84 1542.97 Z" fill="#000000" fill-rule="nonzero" fill-opacity="1" /><path clip-path="url(#clip620)" d="M1254.91 1517.37 Q1251.3 1517.37 1249.47 1520.93 Q1247.66 1524.47 1247.66 1531.6 Q1247.66 1538.71 1249.47 1542.27 Q1251.3 1545.82 1254.91 1545.82 Q1258.54 1545.82 1260.35 1542.27 Q1262.18 1538.71 1262.18 1531.6 Q1262.18 1524.47 1260.35 1520.93 Q1258.54 1517.37 1254.91 1517.37 M1254.91 1513.66 Q1260.72 1513.66 1263.77 1518.27 Q1266.85 1522.85 1266.85 1531.6 Q1266.85 1540.33 1263.77 1544.94 Q1260.72 1549.52 1254.91 1549.52 Q1249.1 1549.52 1246.02 1544.94 Q1242.96 1540.33 1242.96 1531.6 Q1242.96 1522.85 1246.02 1518.27 Q1249.1 1513.66 1254.91 1513.66 Z" fill="#000000" fill-rule="nonzero" fill-opacity="1" /><path clip-path="url(#clip620)" d="M1732.64 1544.91 L1748.96 1544.91 L1748.96 1548.85 L1727.02 1548.85 L1727.02 1544.91 Q1729.68 1542.16 1734.26 1537.53 Q1738.87 1532.88 1740.05 1531.53 Q1742.29 1529.01 1743.17 1527.27 Q1744.08 1525.51 1744.08 1523.82 Q1744.08 1521.07 1742.13 1519.33 Q1740.21 1517.6 1737.11 1517.6 Q1734.91 1517.6 1732.46 1518.36 Q1730.03 1519.13 1727.25 1520.68 L1727.25 1515.95 Q1730.07 1514.82 1732.53 1514.24 Q1734.98 1513.66 1737.02 1513.66 Q1742.39 1513.66 1745.58 1516.35 Q1748.78 1519.03 1748.78 1523.52 Q1748.78 1525.65 1747.97 1527.57 Q1747.18 1529.47 1745.07 1532.07 Q1744.49 1532.74 1741.39 1535.95 Q1738.29 1539.15 1732.64 1544.91 Z" fill="#000000" fill-rule="nonzero" fill-opacity="1" /><path clip-path="url(#clip620)" d="M1758.78 1542.97 L1763.66 1542.97 L1763.66 1548.85 L1758.78 1548.85 L1758.78 1542.97 Z" fill="#000000" fill-rule="nonzero" fill-opacity="1" /><path clip-path="url(#clip620)" d="M1773.89 1514.29 L1792.25 1514.29 L1792.25 1518.22 L1778.17 1518.22 L1778.17 1526.7 Q1779.19 1526.35 1780.21 1526.19 Q1781.23 1526 1782.25 1526 Q1788.03 1526 1791.41 1529.17 Q1794.79 1532.34 1794.79 1537.76 Q1794.79 1543.34 1791.32 1546.44 Q1787.85 1549.52 1781.53 1549.52 Q1779.35 1549.52 1777.09 1549.15 Q1774.84 1548.78 1772.43 1548.04 L1772.43 1543.34 Q1774.52 1544.47 1776.74 1545.03 Q1778.96 1545.58 1781.44 1545.58 Q1785.44 1545.58 1787.78 1543.48 Q1790.12 1541.37 1790.12 1537.76 Q1790.12 1534.15 1787.78 1532.04 Q1785.44 1529.94 1781.44 1529.94 Q1779.56 1529.94 1777.69 1530.35 Q1775.84 1530.77 1773.89 1531.65 L1773.89 1514.29 Z" fill="#000000" fill-rule="nonzero" fill-opacity="1" /><path clip-path="url(#clip620)" d="M2270.65 1530.21 Q2274.01 1530.93 2275.88 1533.2 Q2277.78 1535.47 2277.78 1538.8 Q2277.78 1543.92 2274.26 1546.72 Q2270.74 1549.52 2264.26 1549.52 Q2262.09 1549.52 2259.77 1549.08 Q2257.48 1548.66 2255.03 1547.81 L2255.03 1543.29 Q2256.97 1544.43 2259.29 1545.01 Q2261.6 1545.58 2264.12 1545.58 Q2268.52 1545.58 2270.81 1543.85 Q2273.13 1542.11 2273.13 1538.8 Q2273.13 1535.75 2270.98 1534.03 Q2268.85 1532.3 2265.03 1532.3 L2261 1532.3 L2261 1528.45 L2265.21 1528.45 Q2268.66 1528.45 2270.49 1527.09 Q2272.32 1525.7 2272.32 1523.11 Q2272.32 1520.45 2270.42 1519.03 Q2268.54 1517.6 2265.03 1517.6 Q2263.11 1517.6 2260.91 1518.01 Q2258.71 1518.43 2256.07 1519.31 L2256.07 1515.14 Q2258.73 1514.4 2261.04 1514.03 Q2263.38 1513.66 2265.44 1513.66 Q2270.77 1513.66 2273.87 1516.09 Q2276.97 1518.5 2276.97 1522.62 Q2276.97 1525.49 2275.33 1527.48 Q2273.68 1529.45 2270.65 1530.21 Z" fill="#000000" fill-rule="nonzero" fill-opacity="1" /><path clip-path="url(#clip620)" d="M2286.65 1542.97 L2291.53 1542.97 L2291.53 1548.85 L2286.65 1548.85 L2286.65 1542.97 Z" fill="#000000" fill-rule="nonzero" fill-opacity="1" /><path clip-path="url(#clip620)" d="M2311.72 1517.37 Q2308.1 1517.37 2306.28 1520.93 Q2304.47 1524.47 2304.47 1531.6 Q2304.47 1538.71 2306.28 1542.27 Q2308.1 1545.82 2311.72 1545.82 Q2315.35 1545.82 2317.16 1542.27 Q2318.98 1538.71 2318.98 1531.6 Q2318.98 1524.47 2317.16 1520.93 Q2315.35 1517.37 2311.72 1517.37 M2311.72 1513.66 Q2317.53 1513.66 2320.58 1518.27 Q2323.66 1522.85 2323.66 1531.6 Q2323.66 1540.33 2320.58 1544.94 Q2317.53 1549.52 2311.72 1549.52 Q2305.91 1549.52 2302.83 1544.94 Q2299.77 1540.33 2299.77 1531.6 Q2299.77 1522.85 2302.83 1518.27 Q2305.91 1513.66 2311.72 1513.66 Z" fill="#000000" fill-rule="nonzero" fill-opacity="1" /><polyline clip-path="url(#clip622)" style="stroke:#222255; stroke-linecap:round; stroke-linejoin:round; stroke-width:2; stroke-opacity:0.1; fill:none" points="112.177,1282.79 2352.76,1282.79 "/>
<polyline clip-path="url(#clip622)" style="stroke:#222255; stroke-linecap:round; stroke-linejoin:round; stroke-width:2; stroke-opacity:0.1; fill:none" points="112.177,956.933 2352.76,956.933 "/>
<polyline clip-path="url(#clip622)" style="stroke:#222255; stroke-linecap:round; stroke-linejoin:round; stroke-width:2; stroke-opacity:0.1; fill:none" points="112.177,631.079 2352.76,631.079 "/>
<polyline clip-path="url(#clip622)" style="stroke:#222255; stroke-linecap:round; stroke-linejoin:round; stroke-width:2; stroke-opacity:0.1; fill:none" points="112.177,305.224 2352.76,305.224 "/>
<polyline clip-path="url(#clip622)" style="stroke:#222255; stroke-linecap:round; stroke-linejoin:round; stroke-width:2; stroke-opacity:0.05; fill:none" points="112.177,1478.3 2352.76,1478.3 "/>
<polyline clip-path="url(#clip622)" style="stroke:#222255; stroke-linecap:round; stroke-linejoin:round; stroke-width:2; stroke-opacity:0.05; fill:none" points="112.177,1413.13 2352.76,1413.13 "/>
<polyline clip-path="url(#clip622)" style="stroke:#222255; stroke-linecap:round; stroke-linejoin:round; stroke-width:2; stroke-opacity:0.05; fill:none" points="112.177,1347.96 2352.76,1347.96 "/>
<polyline clip-path="url(#clip622)" style="stroke:#222255; stroke-linecap:round; stroke-linejoin:round; stroke-width:2; stroke-opacity:0.05; fill:none" points="112.177,1217.62 2352.76,1217.62 "/>
<polyline clip-path="url(#clip622)" style="stroke:#222255; stroke-linecap:round; stroke-linejoin:round; stroke-width:2; stroke-opacity:0.05; fill:none" points="112.177,1152.45 2352.76,1152.45 "/>
<polyline clip-path="url(#clip622)" style="stroke:#222255; stroke-linecap:round; stroke-linejoin:round; stroke-width:2; stroke-opacity:0.05; fill:none" points="112.177,1087.28 2352.76,1087.28 "/>
<polyline clip-path="url(#clip622)" style="stroke:#222255; stroke-linecap:round; stroke-linejoin:round; stroke-width:2; stroke-opacity:0.05; fill:none" points="112.177,1022.1 2352.76,1022.1 "/>
<polyline clip-path="url(#clip622)" style="stroke:#222255; stroke-linecap:round; stroke-linejoin:round; stroke-width:2; stroke-opacity:0.05; fill:none" points="112.177,891.762 2352.76,891.762 "/>
<polyline clip-path="url(#clip622)" style="stroke:#222255; stroke-linecap:round; stroke-linejoin:round; stroke-width:2; stroke-opacity:0.05; fill:none" points="112.177,826.591 2352.76,826.591 "/>
<polyline clip-path="url(#clip622)" style="stroke:#222255; stroke-linecap:round; stroke-linejoin:round; stroke-width:2; stroke-opacity:0.05; fill:none" points="112.177,761.421 2352.76,761.421 "/>
<polyline clip-path="url(#clip622)" style="stroke:#222255; stroke-linecap:round; stroke-linejoin:round; stroke-width:2; stroke-opacity:0.05; fill:none" points="112.177,696.25 2352.76,696.25 "/>
<polyline clip-path="url(#clip622)" style="stroke:#222255; stroke-linecap:round; stroke-linejoin:round; stroke-width:2; stroke-opacity:0.05; fill:none" points="112.177,565.908 2352.76,565.908 "/>
<polyline clip-path="url(#clip622)" style="stroke:#222255; stroke-linecap:round; stroke-linejoin:round; stroke-width:2; stroke-opacity:0.05; fill:none" points="112.177,500.737 2352.76,500.737 "/>
<polyline clip-path="url(#clip622)" style="stroke:#222255; stroke-linecap:round; stroke-linejoin:round; stroke-width:2; stroke-opacity:0.05; fill:none" points="112.177,435.566 2352.76,435.566 "/>
<polyline clip-path="url(#clip622)" style="stroke:#222255; stroke-linecap:round; stroke-linejoin:round; stroke-width:2; stroke-opacity:0.05; fill:none" points="112.177,370.395 2352.76,370.395 "/>
<polyline clip-path="url(#clip622)" style="stroke:#222255; stroke-linecap:round; stroke-linejoin:round; stroke-width:2; stroke-opacity:0.05; fill:none" points="112.177,240.053 2352.76,240.053 "/>
<polyline clip-path="url(#clip622)" style="stroke:#222255; stroke-linecap:round; stroke-linejoin:round; stroke-width:2; stroke-opacity:0.05; fill:none" points="112.177,174.882 2352.76,174.882 "/>
<polyline clip-path="url(#clip622)" style="stroke:#222255; stroke-linecap:round; stroke-linejoin:round; stroke-width:2; stroke-opacity:0.05; fill:none" points="112.177,109.711 2352.76,109.711 "/>
<polyline clip-path="url(#clip620)" style="stroke:#222255; stroke-linecap:round; stroke-linejoin:round; stroke-width:4; stroke-opacity:0; fill:none" points="112.177,1282.79 131.075,1282.79 "/>
<polyline clip-path="url(#clip620)" style="stroke:#222255; stroke-linecap:round; stroke-linejoin:round; stroke-width:4; stroke-opacity:0; fill:none" points="112.177,956.933 131.075,956.933 "/>
<polyline clip-path="url(#clip620)" style="stroke:#222255; stroke-linecap:round; stroke-linejoin:round; stroke-width:4; stroke-opacity:0; fill:none" points="112.177,631.079 131.075,631.079 "/>
<polyline clip-path="url(#clip620)" style="stroke:#222255; stroke-linecap:round; stroke-linejoin:round; stroke-width:4; stroke-opacity:0; fill:none" points="112.177,305.224 131.075,305.224 "/>
<polyline clip-path="url(#clip620)" style="stroke:#222255; stroke-linecap:round; stroke-linejoin:round; stroke-width:4; stroke-opacity:0; fill:none" points="112.177,1478.3 121.626,1478.3 "/>
<polyline clip-path="url(#clip620)" style="stroke:#222255; stroke-linecap:round; stroke-linejoin:round; stroke-width:4; stroke-opacity:0; fill:none" points="112.177,1413.13 121.626,1413.13 "/>
<polyline clip-path="url(#clip620)" style="stroke:#222255; stroke-linecap:round; stroke-linejoin:round; stroke-width:4; stroke-opacity:0; fill:none" points="112.177,1347.96 121.626,1347.96 "/>
<polyline clip-path="url(#clip620)" style="stroke:#222255; stroke-linecap:round; stroke-linejoin:round; stroke-width:4; stroke-opacity:0; fill:none" points="112.177,1217.62 121.626,1217.62 "/>
<polyline clip-path="url(#clip620)" style="stroke:#222255; stroke-linecap:round; stroke-linejoin:round; stroke-width:4; stroke-opacity:0; fill:none" points="112.177,1152.45 121.626,1152.45 "/>
<polyline clip-path="url(#clip620)" style="stroke:#222255; stroke-linecap:round; stroke-linejoin:round; stroke-width:4; stroke-opacity:0; fill:none" points="112.177,1087.28 121.626,1087.28 "/>
<polyline clip-path="url(#clip620)" style="stroke:#222255; stroke-linecap:round; stroke-linejoin:round; stroke-width:4; stroke-opacity:0; fill:none" points="112.177,1022.1 121.626,1022.1 "/>
<polyline clip-path="url(#clip620)" style="stroke:#222255; stroke-linecap:round; stroke-linejoin:round; stroke-width:4; stroke-opacity:0; fill:none" points="112.177,891.762 121.626,891.762 "/>
<polyline clip-path="url(#clip620)" style="stroke:#222255; stroke-linecap:round; stroke-linejoin:round; stroke-width:4; stroke-opacity:0; fill:none" points="112.177,826.591 121.626,826.591 "/>
<polyline clip-path="url(#clip620)" style="stroke:#222255; stroke-linecap:round; stroke-linejoin:round; stroke-width:4; stroke-opacity:0; fill:none" points="112.177,761.421 121.626,761.421 "/>
<polyline clip-path="url(#clip620)" style="stroke:#222255; stroke-linecap:round; stroke-linejoin:round; stroke-width:4; stroke-opacity:0; fill:none" points="112.177,696.25 121.626,696.25 "/>
<polyline clip-path="url(#clip620)" style="stroke:#222255; stroke-linecap:round; stroke-linejoin:round; stroke-width:4; stroke-opacity:0; fill:none" points="112.177,565.908 121.626,565.908 "/>
<polyline clip-path="url(#clip620)" style="stroke:#222255; stroke-linecap:round; stroke-linejoin:round; stroke-width:4; stroke-opacity:0; fill:none" points="112.177,500.737 121.626,500.737 "/>
<polyline clip-path="url(#clip620)" style="stroke:#222255; stroke-linecap:round; stroke-linejoin:round; stroke-width:4; stroke-opacity:0; fill:none" points="112.177,435.566 121.626,435.566 "/>
<polyline clip-path="url(#clip620)" style="stroke:#222255; stroke-linecap:round; stroke-linejoin:round; stroke-width:4; stroke-opacity:0; fill:none" points="112.177,370.395 121.626,370.395 "/>
<polyline clip-path="url(#clip620)" style="stroke:#222255; stroke-linecap:round; stroke-linejoin:round; stroke-width:4; stroke-opacity:0; fill:none" points="112.177,240.053 121.626,240.053 "/>
<polyline clip-path="url(#clip620)" style="stroke:#222255; stroke-linecap:round; stroke-linejoin:round; stroke-width:4; stroke-opacity:0; fill:none" points="112.177,174.882 121.626,174.882 "/>
<polyline clip-path="url(#clip620)" style="stroke:#222255; stroke-linecap:round; stroke-linejoin:round; stroke-width:4; stroke-opacity:0; fill:none" points="112.177,109.711 121.626,109.711 "/>
<path clip-path="url(#clip620)" d="M69.0476 1281.43 Q72.404 1282.15 74.279 1284.42 Q76.1772 1286.69 76.1772 1290.02 Q76.1772 1295.14 72.6587 1297.94 Q69.1402 1300.74 62.6587 1300.74 Q60.4828 1300.74 58.168 1300.3 Q55.8764 1299.88 53.4227 1299.03 L53.4227 1294.51 Q55.3671 1295.65 57.6819 1296.23 Q59.9967 1296.8 62.5198 1296.8 Q66.918 1296.8 69.2096 1295.07 Q71.5244 1293.33 71.5244 1290.02 Q71.5244 1286.97 69.3717 1285.25 Q67.242 1283.52 63.4226 1283.52 L59.3949 1283.52 L59.3949 1279.67 L63.6078 1279.67 Q67.0569 1279.67 68.8855 1278.31 Q70.7142 1276.92 70.7142 1274.33 Q70.7142 1271.67 68.8161 1270.25 Q66.9411 1268.82 63.4226 1268.82 Q61.5013 1268.82 59.3023 1269.24 Q57.1032 1269.65 54.4643 1270.53 L54.4643 1266.36 Q57.1264 1265.62 59.4412 1265.25 Q61.7791 1264.88 63.8393 1264.88 Q69.1633 1264.88 72.2652 1267.31 Q75.367 1269.72 75.367 1273.84 Q75.367 1276.71 73.7235 1278.7 Q72.08 1280.67 69.0476 1281.43 Z" fill="#000000" fill-rule="nonzero" fill-opacity="1" /><path clip-path="url(#clip620)" d="M66.5939 943.727 L54.7884 962.176 L66.5939 962.176 L66.5939 943.727 M65.367 939.653 L71.2466 939.653 L71.2466 962.176 L76.1772 962.176 L76.1772 966.065 L71.2466 966.065 L71.2466 974.213 L66.5939 974.213 L66.5939 966.065 L50.9921 966.065 L50.9921 961.551 L65.367 939.653 Z" fill="#000000" fill-rule="nonzero" fill-opacity="1" /><path clip-path="url(#clip620)" d="M55.2745 613.799 L73.6309 613.799 L73.6309 617.734 L59.5569 617.734 L59.5569 626.206 Q60.5754 625.859 61.5939 625.697 Q62.6124 625.511 63.6309 625.511 Q69.418 625.511 72.7976 628.683 Q76.1772 631.854 76.1772 637.271 Q76.1772 642.849 72.705 645.951 Q69.2328 649.03 62.9134 649.03 Q60.7374 649.03 58.4689 648.659 Q56.2236 648.289 53.8162 647.548 L53.8162 642.849 Q55.8995 643.984 58.1217 644.539 Q60.3439 645.095 62.8208 645.095 Q66.8254 645.095 69.1633 642.988 Q71.5013 640.882 71.5013 637.271 Q71.5013 633.66 69.1633 631.553 Q66.8254 629.447 62.8208 629.447 Q60.9458 629.447 59.0708 629.863 Q57.2189 630.28 55.2745 631.16 L55.2745 613.799 Z" fill="#000000" fill-rule="nonzero" fill-opacity="1" /><path clip-path="url(#clip620)" d="M64.6495 303.36 Q61.5013 303.36 59.6495 305.513 Q57.8208 307.666 57.8208 311.416 Q57.8208 315.143 59.6495 317.319 Q61.5013 319.471 64.6495 319.471 Q67.7976 319.471 69.6263 317.319 Q71.4781 315.143 71.4781 311.416 Q71.4781 307.666 69.6263 305.513 Q67.7976 303.36 64.6495 303.36 M73.9318 288.708 L73.9318 292.967 Q72.1726 292.133 70.367 291.694 Q68.5846 291.254 66.8254 291.254 Q62.1958 291.254 59.7421 294.379 Q57.3115 297.504 56.9643 303.823 Q58.33 301.809 60.3902 300.745 Q62.4504 299.657 64.9272 299.657 Q70.1355 299.657 73.1448 302.828 Q76.1772 305.976 76.1772 311.416 Q76.1772 316.74 73.029 319.957 Q69.8809 323.175 64.6495 323.175 Q58.6541 323.175 55.4828 318.592 Q52.3116 313.985 52.3116 305.258 Q52.3116 297.064 56.2004 292.203 Q60.0893 287.319 66.6402 287.319 Q68.3994 287.319 70.1818 287.666 Q71.9874 288.013 73.9318 288.708 Z" fill="#000000" fill-rule="nonzero" fill-opacity="1" /><polyline clip-path="url(#clip622)" style="stroke:#ee7733; stroke-linecap:round; stroke-linejoin:round; stroke-width:8; stroke-opacity:1; fill:none" points="175.59,1445.72 1232.47,87.9763 2289.34,1119.86 "/>
<circle clip-path="url(#clip622)" cx="175.59" cy="1445.72" r="21.6" fill="#ee7733" fill-rule="evenodd" fill-opacity="1" stroke="none"/>
<circle clip-path="url(#clip622)" cx="1232.47" cy="87.9763" r="21.6" fill="#ee7733" fill-rule="evenodd" fill-opacity="1" stroke="none"/>
<circle clip-path="url(#clip622)" cx="2289.34" cy="1119.86" r="21.6" fill="#ee7733" fill-rule="evenodd" fill-opacity="1" stroke="none"/>
<path clip-path="url(#clip620)" d="M2001.58 198.898 L2278.07 198.898 L2278.07 95.2176 L2001.58 95.2176  Z" fill="#ffffff" fill-rule="evenodd" fill-opacity="0.9"/>
<polyline clip-path="url(#clip620)" style="stroke:#222255; stroke-linecap:round; stroke-linejoin:round; stroke-width:4; stroke-opacity:0.1; fill:none" points="2001.58,198.898 2278.07,198.898 2278.07,95.2176 2001.58,95.2176 2001.58,198.898 "/>
<polyline clip-path="url(#clip620)" style="stroke:#ee7733; stroke-linecap:round; stroke-linejoin:round; stroke-width:8; stroke-opacity:1; fill:none" points="2026.48,147.058 2175.85,147.058 "/>
<circle clip-path="url(#clip620)" cx="2101.16" cy="147.058" r="20.7461" fill="#ee7733" fill-rule="evenodd" fill-opacity="1" stroke="none"/>
<path clip-path="url(#clip620)" d="M2214.59 166.745 Q2212.78 171.375 2211.07 172.787 Q2209.36 174.199 2206.49 174.199 L2203.08 174.199 L2203.08 170.634 L2205.58 170.634 Q2207.34 170.634 2208.31 169.8 Q2209.29 168.967 2210.47 165.865 L2211.23 163.921 L2200.74 138.412 L2205.26 138.412 L2213.36 158.689 L2221.46 138.412 L2225.98 138.412 L2214.59 166.745 Z" fill="#000000" fill-rule="nonzero" fill-opacity="1" /><path clip-path="url(#clip620)" d="M2233.27 160.402 L2240.91 160.402 L2240.91 134.037 L2232.6 135.703 L2232.6 131.444 L2240.86 129.778 L2245.54 129.778 L2245.54 160.402 L2253.17 160.402 L2253.17 164.338 L2233.27 164.338 L2233.27 160.402 Z" fill="#000000" fill-rule="nonzero" fill-opacity="1" /></svg>
