<?xml version="1.0" encoding="utf-8"?>
<svg xmlns="http://www.w3.org/2000/svg" xmlns:xlink="http://www.w3.org/1999/xlink" width="600" height="400" viewBox="0 0 2400 1600">
<defs>
  <clipPath id="clip040">
    <rect x="0" y="0" width="2400" height="1600"/>
  </clipPath>
</defs>
<path clip-path="url(#clip040)" d="M0 1600 L2400 1600 L2400 8.88178e-14 L0 8.88178e-14  Z" fill="#ffffff" fill-rule="evenodd" fill-opacity="1"/>
<defs>
  <clipPath id="clip041">
    <rect x="480" y="0" width="1681" height="1600"/>
  </clipPath>
</defs>
<defs>
  <clipPath id="clip042">
    <rect x="150" y="47" width="1847" height="1423"/>
  </clipPath>
</defs>
<path clip-path="url(#clip042)" d="M-481.705 2105.09 L-481.705 1049.37 L19.022 521.505 L886.307 826.266 L886.307 1881.99 L385.58 2409.85 L-481.705 2105.09  Z" fill="#ffffff" fill-rule="evenodd" fill-opacity="1"/>
<polyline clip-path="url(#clip040)" style="stroke:#000000; stroke-linecap:round; stroke-linejoin:round; stroke-width:4; stroke-opacity:1; fill:none" points="512.626,1188.81 1223.59,1394.05 "/>
<polyline clip-path="url(#clip040)" style="stroke:#000000; stroke-linecap:round; stroke-linejoin:round; stroke-width:2; stroke-opacity:0.5; fill:none" points="923.1,122.366 1634.06,327.603 "/>
<polyline clip-path="url(#clip040)" style="stroke:#000000; stroke-linecap:round; stroke-linejoin:round; stroke-width:4; stroke-opacity:1; fill:none" points="532.622,1194.58 537.548,1190.32 "/>
<polyline clip-path="url(#clip040)" style="stroke:#000000; stroke-linecap:round; stroke-linejoin:round; stroke-width:4; stroke-opacity:1; fill:none" points="749.443,1257.17 754.369,1252.91 "/>
<polyline clip-path="url(#clip040)" style="stroke:#000000; stroke-linecap:round; stroke-linejoin:round; stroke-width:4; stroke-opacity:1; fill:none" points="966.264,1319.76 971.19,1315.5 "/>
<polyline clip-path="url(#clip040)" style="stroke:#000000; stroke-linecap:round; stroke-linejoin:round; stroke-width:4; stroke-opacity:1; fill:none" points="1183.09,1382.35 1188.01,1378.09 "/>
<path clip-path="url(#clip040)" d="M428.871 1222.11 Q428.871 1212.91 430.745 1207.33 Q432.655 1201.7 436.368 1198.66 Q440.116 1195.62 445.774 1195.62 Q449.946 1195.62 453.094 1197.32 Q456.241 1198.98 458.292 1202.16 Q460.343 1205.31 461.51 1209.87 Q462.677 1214.4 462.677 1222.11 Q462.677 1231.23 460.802 1236.85 Q458.928 1242.44 455.18 1245.52 Q451.467 1248.56 445.774 1248.56 Q438.277 1248.56 433.998 1243.18 Q428.871 1236.71 428.871 1222.11 M435.413 1222.11 Q435.413 1234.87 438.383 1239.12 Q441.389 1243.32 445.774 1243.32 Q450.159 1243.32 453.129 1239.08 Q456.135 1234.84 456.135 1222.11 Q456.135 1209.31 453.129 1205.1 Q450.159 1200.89 445.703 1200.89 Q441.318 1200.89 438.701 1204.6 Q435.413 1209.34 435.413 1222.11 Z" fill="#000000" fill-rule="nonzero" fill-opacity="1" /><path clip-path="url(#clip040)" d="M472.719 1247.67 L472.719 1240.42 L479.968 1240.42 L479.968 1247.67 L472.719 1247.67 Z" fill="#000000" fill-rule="nonzero" fill-opacity="1" /><path clip-path="url(#clip040)" d="M489.268 1222.11 Q489.268 1212.91 491.143 1207.33 Q493.052 1201.7 496.765 1198.66 Q500.513 1195.62 506.171 1195.62 Q510.344 1195.62 513.491 1197.32 Q516.638 1198.98 518.689 1202.16 Q520.74 1205.31 521.907 1209.87 Q523.074 1214.4 523.074 1222.11 Q523.074 1231.23 521.2 1236.85 Q519.326 1242.44 515.577 1245.52 Q511.864 1248.56 506.171 1248.56 Q498.675 1248.56 494.396 1243.18 Q489.268 1236.71 489.268 1222.11 M495.81 1222.11 Q495.81 1234.87 498.781 1239.12 Q501.786 1243.32 506.171 1243.32 Q510.556 1243.32 513.526 1239.08 Q516.532 1234.84 516.532 1222.11 Q516.532 1209.31 513.526 1205.1 Q510.556 1200.89 506.101 1200.89 Q501.716 1200.89 499.099 1204.6 Q495.81 1209.34 495.81 1222.11 Z" fill="#000000" fill-rule="nonzero" fill-opacity="1" /><path clip-path="url(#clip040)" d="M645.126 1284.7 Q645.126 1275.5 647 1269.92 Q648.91 1264.29 652.623 1261.25 Q656.371 1258.21 662.029 1258.21 Q666.202 1258.21 669.349 1259.91 Q672.496 1261.57 674.547 1264.75 Q676.598 1267.9 677.765 1272.46 Q678.932 1276.99 678.932 1284.7 Q678.932 1293.82 677.058 1299.44 Q675.184 1305.03 671.435 1308.11 Q667.722 1311.15 662.029 1311.15 Q654.532 1311.15 650.254 1305.77 Q645.126 1299.3 645.126 1284.7 M651.668 1284.7 Q651.668 1297.46 654.639 1301.71 Q657.644 1305.91 662.029 1305.91 Q666.414 1305.91 669.384 1301.67 Q672.39 1297.43 672.39 1284.7 Q672.39 1271.9 669.384 1267.69 Q666.414 1263.48 661.958 1263.48 Q657.574 1263.48 654.957 1267.19 Q651.668 1271.93 651.668 1284.7 Z" fill="#000000" fill-rule="nonzero" fill-opacity="1" /><path clip-path="url(#clip040)" d="M688.975 1310.26 L688.975 1303.01 L696.224 1303.01 L696.224 1310.26 L688.975 1310.26 Z" fill="#000000" fill-rule="nonzero" fill-opacity="1" /><path clip-path="url(#clip040)" d="M705.524 1296.68 L712.207 1296.12 Q712.95 1301 715.637 1303.47 Q718.36 1305.91 722.179 1305.91 Q726.776 1305.91 729.959 1302.45 Q733.141 1298.98 733.141 1293.25 Q733.141 1287.81 730.065 1284.66 Q727.024 1281.51 722.073 1281.51 Q718.997 1281.51 716.521 1282.93 Q714.046 1284.31 712.631 1286.54 L706.655 1285.76 L711.677 1259.13 L737.455 1259.13 L737.455 1265.21 L716.769 1265.21 L713.975 1279.15 Q718.643 1275.89 723.77 1275.89 Q730.56 1275.89 735.228 1280.6 Q739.895 1285.3 739.895 1292.69 Q739.895 1299.73 735.793 1304.85 Q730.807 1311.15 722.179 1311.15 Q715.107 1311.15 710.616 1307.19 Q706.16 1303.23 705.524 1296.68 Z" fill="#000000" fill-rule="nonzero" fill-opacity="1" /><path clip-path="url(#clip040)" d="M886.488 1372.85 L880.123 1372.85 L880.123 1332.29 Q877.825 1334.49 874.076 1336.68 Q870.364 1338.87 867.393 1339.97 L867.393 1333.82 Q872.733 1331.3 876.729 1327.73 Q880.724 1324.16 882.386 1320.8 L886.488 1320.8 L886.488 1372.85 Z" fill="#000000" fill-rule="nonzero" fill-opacity="1" /><path clip-path="url(#clip040)" d="M906.362 1372.85 L906.362 1365.61 L913.611 1365.61 L913.611 1372.85 L906.362 1372.85 Z" fill="#000000" fill-rule="nonzero" fill-opacity="1" /><path clip-path="url(#clip040)" d="M922.911 1347.29 Q922.911 1338.09 924.785 1332.51 Q926.694 1326.88 930.407 1323.84 Q934.156 1320.8 939.814 1320.8 Q943.986 1320.8 947.133 1322.5 Q950.281 1324.16 952.332 1327.34 Q954.382 1330.49 955.549 1335.05 Q956.716 1339.58 956.716 1347.29 Q956.716 1356.41 954.842 1362.03 Q952.968 1367.62 949.22 1370.7 Q945.507 1373.74 939.814 1373.74 Q932.317 1373.74 928.038 1368.36 Q922.911 1361.89 922.911 1347.29 M929.453 1347.29 Q929.453 1360.05 932.423 1364.3 Q935.429 1368.5 939.814 1368.5 Q944.198 1368.5 947.169 1364.26 Q950.174 1360.02 950.174 1347.29 Q950.174 1334.49 947.169 1330.28 Q944.198 1326.07 939.743 1326.07 Q935.358 1326.07 932.741 1329.78 Q929.453 1334.52 929.453 1347.29 Z" fill="#000000" fill-rule="nonzero" fill-opacity="1" /><path clip-path="url(#clip040)" d="M1102.74 1435.45 L1096.38 1435.45 L1096.38 1394.89 Q1094.08 1397.08 1090.33 1399.27 Q1086.62 1401.46 1083.65 1402.56 L1083.65 1396.41 Q1088.99 1393.9 1092.98 1390.32 Q1096.98 1386.75 1098.64 1383.39 L1102.74 1383.39 L1102.74 1435.45 Z" fill="#000000" fill-rule="nonzero" fill-opacity="1" /><path clip-path="url(#clip040)" d="M1122.62 1435.45 L1122.62 1428.2 L1129.87 1428.2 L1129.87 1435.45 L1122.62 1435.45 Z" fill="#000000" fill-rule="nonzero" fill-opacity="1" /><path clip-path="url(#clip040)" d="M1139.17 1421.87 L1145.85 1421.3 Q1146.59 1426.18 1149.28 1428.66 Q1152 1431.1 1155.82 1431.1 Q1160.42 1431.1 1163.6 1427.63 Q1166.78 1424.16 1166.78 1418.44 Q1166.78 1412.99 1163.71 1409.84 Q1160.67 1406.7 1155.72 1406.7 Q1152.64 1406.7 1150.16 1408.11 Q1147.69 1409.49 1146.27 1411.72 L1140.3 1410.94 L1145.32 1384.31 L1171.1 1384.31 L1171.1 1390.39 L1150.41 1390.39 L1147.62 1404.33 Q1152.29 1401.07 1157.41 1401.07 Q1164.2 1401.07 1168.87 1405.78 Q1173.54 1410.48 1173.54 1417.87 Q1173.54 1424.91 1169.44 1430.03 Q1164.45 1436.33 1155.82 1436.33 Q1148.75 1436.33 1144.26 1432.37 Q1139.8 1428.41 1139.17 1421.87 Z" fill="#000000" fill-rule="nonzero" fill-opacity="1" /><polyline clip-path="url(#clip040)" style="stroke:#000000; stroke-linecap:round; stroke-linejoin:round; stroke-width:4; stroke-opacity:1; fill:none" points="1223.59,1394.05 1634.06,1038.56 "/>
<polyline clip-path="url(#clip040)" style="stroke:#000000; stroke-linecap:round; stroke-linejoin:round; stroke-width:2; stroke-opacity:0.5; fill:none" points="512.626,477.847 923.1,122.366 "/>
<polyline clip-path="url(#clip040)" style="stroke:#000000; stroke-linecap:round; stroke-linejoin:round; stroke-width:4; stroke-opacity:1; fill:none" points="1224.6,1393.17 1216.06,1390.71 "/>
<polyline clip-path="url(#clip040)" style="stroke:#000000; stroke-linecap:round; stroke-linejoin:round; stroke-width:4; stroke-opacity:1; fill:none" points="1285.55,1340.39 1277.02,1337.92 "/>
<polyline clip-path="url(#clip040)" style="stroke:#000000; stroke-linecap:round; stroke-linejoin:round; stroke-width:4; stroke-opacity:1; fill:none" points="1346.5,1287.6 1337.97,1285.14 "/>
<polyline clip-path="url(#clip040)" style="stroke:#000000; stroke-linecap:round; stroke-linejoin:round; stroke-width:4; stroke-opacity:1; fill:none" points="1407.45,1234.82 1398.92,1232.35 "/>
<polyline clip-path="url(#clip040)" style="stroke:#000000; stroke-linecap:round; stroke-linejoin:round; stroke-width:4; stroke-opacity:1; fill:none" points="1468.4,1182.03 1459.87,1179.57 "/>
<polyline clip-path="url(#clip040)" style="stroke:#000000; stroke-linecap:round; stroke-linejoin:round; stroke-width:4; stroke-opacity:1; fill:none" points="1529.36,1129.24 1520.82,1126.78 "/>
<polyline clip-path="url(#clip040)" style="stroke:#000000; stroke-linecap:round; stroke-linejoin:round; stroke-width:4; stroke-opacity:1; fill:none" points="1590.31,1076.46 1581.78,1073.99 "/>
<path clip-path="url(#clip040)" d="M1245.49 1413.35 Q1245.49 1404.15 1247.36 1398.57 Q1249.27 1392.94 1252.99 1389.9 Q1256.73 1386.86 1262.39 1386.86 Q1266.57 1386.86 1269.71 1388.56 Q1272.86 1390.22 1274.91 1393.4 Q1276.96 1396.55 1278.13 1401.11 Q1279.3 1405.64 1279.3 1413.35 Q1279.3 1422.47 1277.42 1428.09 Q1275.55 1433.68 1271.8 1436.76 Q1268.09 1439.8 1262.39 1439.8 Q1254.9 1439.8 1250.62 1434.42 Q1245.49 1427.95 1245.49 1413.35 M1252.03 1413.35 Q1252.03 1426.11 1255 1430.36 Q1258.01 1434.56 1262.39 1434.56 Q1266.78 1434.56 1269.75 1430.32 Q1272.75 1426.08 1272.75 1413.35 Q1272.75 1400.55 1269.75 1396.34 Q1266.78 1392.13 1262.32 1392.13 Q1257.94 1392.13 1255.32 1395.84 Q1252.03 1400.58 1252.03 1413.35 Z" fill="#000000" fill-rule="nonzero" fill-opacity="1" /><path clip-path="url(#clip040)" d="M1289.34 1438.91 L1289.34 1431.67 L1296.59 1431.67 L1296.59 1438.91 L1289.34 1438.91 Z" fill="#000000" fill-rule="nonzero" fill-opacity="1" /><path clip-path="url(#clip040)" d="M1305.89 1413.35 Q1305.89 1404.15 1307.76 1398.57 Q1309.67 1392.94 1313.38 1389.9 Q1317.13 1386.86 1322.79 1386.86 Q1326.96 1386.86 1330.11 1388.56 Q1333.26 1390.22 1335.31 1393.4 Q1337.36 1396.55 1338.53 1401.11 Q1339.69 1405.64 1339.69 1413.35 Q1339.69 1422.47 1337.82 1428.09 Q1335.94 1433.68 1332.2 1436.76 Q1328.48 1439.8 1322.79 1439.8 Q1315.29 1439.8 1311.01 1434.42 Q1305.89 1427.95 1305.89 1413.35 M1312.43 1413.35 Q1312.43 1426.11 1315.4 1430.36 Q1318.41 1434.56 1322.79 1434.56 Q1327.17 1434.56 1330.15 1430.32 Q1333.15 1426.08 1333.15 1413.35 Q1333.15 1400.55 1330.15 1396.34 Q1327.17 1392.13 1322.72 1392.13 Q1318.33 1392.13 1315.72 1395.84 Q1312.43 1400.58 1312.43 1413.35 Z" fill="#000000" fill-rule="nonzero" fill-opacity="1" /><path clip-path="url(#clip040)" d="M1306.44 1360.56 Q1306.44 1351.37 1308.32 1345.78 Q1310.23 1340.16 1313.94 1337.12 Q1317.69 1334.08 1323.34 1334.08 Q1327.52 1334.08 1330.66 1335.77 Q1333.81 1337.44 1335.86 1340.62 Q1337.91 1343.76 1339.08 1348.33 Q1340.25 1352.85 1340.25 1360.56 Q1340.25 1369.68 1338.37 1375.31 Q1336.5 1380.89 1332.75 1383.97 Q1329.04 1387.01 1323.34 1387.01 Q1315.85 1387.01 1311.57 1381.64 Q1306.44 1375.17 1306.44 1360.56 M1312.98 1360.56 Q1312.98 1373.33 1315.95 1377.57 Q1318.96 1381.78 1323.34 1381.78 Q1327.73 1381.78 1330.7 1377.54 Q1333.71 1373.29 1333.71 1360.56 Q1333.71 1347.76 1330.7 1343.55 Q1327.73 1339.34 1323.27 1339.34 Q1318.89 1339.34 1316.27 1343.06 Q1312.98 1347.8 1312.98 1360.56 Z" fill="#000000" fill-rule="nonzero" fill-opacity="1" /><path clip-path="url(#clip040)" d="M1350.29 1386.13 L1350.29 1378.88 L1357.54 1378.88 L1357.54 1386.13 L1350.29 1386.13 Z" fill="#000000" fill-rule="nonzero" fill-opacity="1" /><path clip-path="url(#clip040)" d="M1400.29 1380.01 L1400.29 1386.13 L1366.03 1386.13 Q1365.96 1383.83 1366.77 1381.71 Q1368.08 1378.21 1370.94 1374.81 Q1373.84 1371.42 1379.29 1366.96 Q1387.74 1360.03 1390.71 1356 Q1393.68 1351.93 1393.68 1348.33 Q1393.68 1344.54 1390.96 1341.96 Q1388.27 1339.34 1383.92 1339.34 Q1379.32 1339.34 1376.56 1342.1 Q1373.81 1344.86 1373.77 1349.74 L1367.23 1349.07 Q1367.9 1341.75 1372.29 1337.93 Q1376.67 1334.08 1384.06 1334.08 Q1391.52 1334.08 1395.87 1338.21 Q1400.22 1342.35 1400.22 1348.47 Q1400.22 1351.58 1398.95 1354.59 Q1397.67 1357.59 1394.7 1360.92 Q1391.77 1364.24 1384.91 1370.04 Q1379.18 1374.85 1377.55 1376.58 Q1375.93 1378.28 1374.87 1380.01 L1400.29 1380.01 Z" fill="#000000" fill-rule="nonzero" fill-opacity="1" /><path clip-path="url(#clip040)" d="M1367.39 1307.78 Q1367.39 1298.58 1369.27 1292.99 Q1371.18 1287.37 1374.89 1284.33 Q1378.64 1281.29 1384.3 1281.29 Q1388.47 1281.29 1391.62 1282.99 Q1394.76 1284.65 1396.81 1287.83 Q1398.87 1290.98 1400.03 1295.54 Q1401.2 1300.07 1401.2 1307.78 Q1401.2 1316.9 1399.33 1322.52 Q1397.45 1328.11 1393.7 1331.18 Q1389.99 1334.23 1384.3 1334.23 Q1376.8 1334.23 1372.52 1328.85 Q1367.39 1322.38 1367.39 1307.78 M1373.94 1307.78 Q1373.94 1320.54 1376.91 1324.78 Q1379.91 1328.99 1384.3 1328.99 Q1388.68 1328.99 1391.65 1324.75 Q1394.66 1320.51 1394.66 1307.78 Q1394.66 1294.97 1391.65 1290.77 Q1388.68 1286.56 1384.23 1286.56 Q1379.84 1286.56 1377.22 1290.27 Q1373.94 1295.01 1373.94 1307.78 Z" fill="#000000" fill-rule="nonzero" fill-opacity="1" /><path clip-path="url(#clip040)" d="M1411.24 1333.34 L1411.24 1326.09 L1418.49 1326.09 L1418.49 1333.34 L1411.24 1333.34 Z" fill="#000000" fill-rule="nonzero" fill-opacity="1" /><path clip-path="url(#clip040)" d="M1448.2 1333.34 L1448.2 1320.93 L1425.71 1320.93 L1425.71 1315.1 L1449.36 1281.5 L1454.56 1281.5 L1454.56 1315.1 L1461.56 1315.1 L1461.56 1320.93 L1454.56 1320.93 L1454.56 1333.34 L1448.2 1333.34 M1448.2 1315.1 L1448.2 1291.72 L1431.96 1315.1 L1448.2 1315.1 Z" fill="#000000" fill-rule="nonzero" fill-opacity="1" /><path clip-path="url(#clip040)" d="M1428.35 1254.99 Q1428.35 1245.8 1430.22 1240.21 Q1432.13 1234.59 1435.84 1231.54 Q1439.59 1228.5 1445.25 1228.5 Q1449.42 1228.5 1452.57 1230.2 Q1455.72 1231.86 1457.77 1235.05 Q1459.82 1238.19 1460.99 1242.75 Q1462.15 1247.28 1462.15 1254.99 Q1462.15 1264.11 1460.28 1269.73 Q1458.4 1275.32 1454.66 1278.4 Q1450.94 1281.44 1445.25 1281.44 Q1437.75 1281.44 1433.47 1276.06 Q1428.35 1269.59 1428.35 1254.99 M1434.89 1254.99 Q1434.89 1267.75 1437.86 1272 Q1440.86 1276.21 1445.25 1276.21 Q1449.63 1276.21 1452.6 1271.96 Q1455.61 1267.72 1455.61 1254.99 Q1455.61 1242.19 1452.6 1237.98 Q1449.63 1233.77 1445.18 1233.77 Q1440.79 1233.77 1438.18 1237.49 Q1434.89 1242.22 1434.89 1254.99 Z" fill="#000000" fill-rule="nonzero" fill-opacity="1" /><path clip-path="url(#clip040)" d="M1472.19 1280.56 L1472.19 1273.31 L1479.44 1273.31 L1479.44 1280.56 L1472.19 1280.56 Z" fill="#000000" fill-rule="nonzero" fill-opacity="1" /><path clip-path="url(#clip040)" d="M1521.77 1241.41 L1515.44 1241.91 Q1514.59 1238.16 1513.04 1236.46 Q1510.46 1233.74 1506.67 1233.74 Q1503.63 1233.74 1501.33 1235.43 Q1498.33 1237.63 1496.59 1241.83 Q1494.86 1246.04 1494.79 1253.82 Q1497.09 1250.32 1500.41 1248.62 Q1503.74 1246.93 1507.38 1246.93 Q1513.74 1246.93 1518.2 1251.63 Q1522.69 1256.3 1522.69 1263.72 Q1522.69 1268.6 1520.57 1272.81 Q1518.48 1276.98 1514.81 1279.21 Q1511.13 1281.44 1506.46 1281.44 Q1498.5 1281.44 1493.48 1275.6 Q1488.46 1269.73 1488.46 1256.3 Q1488.46 1241.27 1494.01 1234.44 Q1498.86 1228.5 1507.06 1228.5 Q1513.18 1228.5 1517.07 1231.93 Q1520.99 1235.36 1521.77 1241.41 M1495.78 1263.76 Q1495.78 1267.05 1497.16 1270.05 Q1498.57 1273.06 1501.09 1274.65 Q1503.6 1276.21 1506.35 1276.21 Q1510.39 1276.21 1513.28 1272.95 Q1516.18 1269.7 1516.18 1264.11 Q1516.18 1258.74 1513.32 1255.66 Q1510.46 1252.55 1506.11 1252.55 Q1501.79 1252.55 1498.79 1255.66 Q1495.78 1258.74 1495.78 1263.76 Z" fill="#000000" fill-rule="nonzero" fill-opacity="1" /><path clip-path="url(#clip040)" d="M1489.3 1202.2 Q1489.3 1193.01 1491.17 1187.42 Q1493.08 1181.8 1496.8 1178.76 Q1500.54 1175.72 1506.2 1175.72 Q1510.37 1175.72 1513.52 1177.41 Q1516.67 1179.08 1518.72 1182.26 Q1520.77 1185.41 1521.94 1189.97 Q1523.1 1194.49 1523.1 1202.2 Q1523.1 1211.33 1521.23 1216.95 Q1519.36 1222.54 1515.61 1225.61 Q1511.89 1228.65 1506.2 1228.65 Q1498.7 1228.65 1494.43 1223.28 Q1489.3 1216.81 1489.3 1202.2 M1495.84 1202.2 Q1495.84 1214.97 1498.81 1219.21 Q1501.82 1223.42 1506.2 1223.42 Q1510.59 1223.42 1513.56 1219.18 Q1516.56 1214.93 1516.56 1202.2 Q1516.56 1189.4 1513.56 1185.19 Q1510.59 1180.99 1506.13 1180.99 Q1501.75 1180.99 1499.13 1184.7 Q1495.84 1189.44 1495.84 1202.2 Z" fill="#000000" fill-rule="nonzero" fill-opacity="1" /><path clip-path="url(#clip040)" d="M1533.15 1227.77 L1533.15 1220.52 L1540.4 1220.52 L1540.4 1227.77 L1533.15 1227.77 Z" fill="#000000" fill-rule="nonzero" fill-opacity="1" /><path clip-path="url(#clip040)" d="M1559.49 1199.66 Q1555.53 1198.21 1553.62 1195.52 Q1551.71 1192.83 1551.71 1189.08 Q1551.71 1183.43 1555.78 1179.57 Q1559.84 1175.72 1566.6 1175.72 Q1573.39 1175.72 1577.53 1179.68 Q1581.66 1183.6 1581.66 1189.26 Q1581.66 1192.87 1579.75 1195.56 Q1577.88 1198.21 1574.02 1199.66 Q1578.8 1201.21 1581.27 1204.68 Q1583.78 1208.14 1583.78 1212.95 Q1583.78 1219.6 1579.08 1224.13 Q1574.38 1228.65 1566.71 1228.65 Q1559.03 1228.65 1554.33 1224.13 Q1549.63 1219.57 1549.63 1212.78 Q1549.63 1207.72 1552.17 1204.32 Q1554.75 1200.89 1559.49 1199.66 M1558.22 1188.87 Q1558.22 1192.55 1560.59 1194.88 Q1562.96 1197.22 1566.74 1197.22 Q1570.42 1197.22 1572.75 1194.92 Q1575.12 1192.58 1575.12 1189.23 Q1575.12 1185.72 1572.68 1183.36 Q1570.28 1180.95 1566.67 1180.95 Q1563.03 1180.95 1560.62 1183.28 Q1558.22 1185.62 1558.22 1188.87 M1556.17 1212.81 Q1556.17 1215.53 1557.44 1218.08 Q1558.75 1220.63 1561.29 1222.04 Q1563.84 1223.42 1566.78 1223.42 Q1571.34 1223.42 1574.31 1220.48 Q1577.28 1217.55 1577.28 1213.02 Q1577.28 1208.43 1574.2 1205.42 Q1571.16 1202.42 1566.56 1202.42 Q1562.07 1202.42 1559.1 1205.39 Q1556.17 1208.36 1556.17 1212.81 Z" fill="#000000" fill-rule="nonzero" fill-opacity="1" /><path clip-path="url(#clip040)" d="M1569.35 1174.98 L1562.98 1174.98 L1562.98 1134.42 Q1560.68 1136.62 1556.93 1138.81 Q1553.22 1141 1550.25 1142.1 L1550.25 1135.94 Q1555.59 1133.43 1559.59 1129.86 Q1563.58 1126.29 1565.24 1122.93 L1569.35 1122.93 L1569.35 1174.98 Z" fill="#000000" fill-rule="nonzero" fill-opacity="1" /><path clip-path="url(#clip040)" d="M1589.22 1174.98 L1589.22 1167.73 L1596.47 1167.73 L1596.47 1174.98 L1589.22 1174.98 Z" fill="#000000" fill-rule="nonzero" fill-opacity="1" /><path clip-path="url(#clip040)" d="M1605.77 1149.42 Q1605.77 1140.22 1607.64 1134.64 Q1609.55 1129.01 1613.27 1125.97 Q1617.01 1122.93 1622.67 1122.93 Q1626.84 1122.93 1629.99 1124.63 Q1633.14 1126.29 1635.19 1129.47 Q1637.24 1132.62 1638.41 1137.18 Q1639.57 1141.71 1639.57 1149.42 Q1639.57 1158.54 1637.7 1164.16 Q1635.83 1169.75 1632.08 1172.83 Q1628.36 1175.87 1622.67 1175.87 Q1615.17 1175.87 1610.9 1170.49 Q1605.77 1164.02 1605.77 1149.42 M1612.31 1149.42 Q1612.31 1162.18 1615.28 1166.43 Q1618.29 1170.63 1622.67 1170.63 Q1627.06 1170.63 1630.03 1166.39 Q1633.03 1162.15 1633.03 1149.42 Q1633.03 1136.62 1630.03 1132.41 Q1627.06 1128.2 1622.6 1128.2 Q1618.22 1128.2 1615.6 1131.91 Q1612.31 1136.65 1612.31 1149.42 Z" fill="#000000" fill-rule="nonzero" fill-opacity="1" /><path clip-path="url(#clip040)" d="M1630.3 1122.2 L1623.93 1122.2 L1623.93 1081.64 Q1621.63 1083.83 1617.89 1086.02 Q1614.17 1088.21 1611.2 1089.31 L1611.2 1083.16 Q1616.54 1080.65 1620.54 1077.08 Q1624.53 1073.5 1626.2 1070.14 L1630.3 1070.14 L1630.3 1122.2 Z" fill="#000000" fill-rule="nonzero" fill-opacity="1" /><path clip-path="url(#clip040)" d="M1650.17 1122.2 L1650.17 1114.95 L1657.42 1114.95 L1657.42 1122.2 L1650.17 1122.2 Z" fill="#000000" fill-rule="nonzero" fill-opacity="1" /><path clip-path="url(#clip040)" d="M1700.17 1116.08 L1700.17 1122.2 L1665.91 1122.2 Q1665.84 1119.9 1666.65 1117.78 Q1667.96 1114.28 1670.82 1110.88 Q1673.72 1107.49 1679.17 1103.03 Q1687.62 1096.1 1690.59 1092.07 Q1693.56 1088 1693.56 1084.4 Q1693.56 1080.61 1690.84 1078.03 Q1688.15 1075.41 1683.8 1075.41 Q1679.2 1075.41 1676.45 1078.17 Q1673.69 1080.93 1673.65 1085.81 L1667.11 1085.14 Q1667.78 1077.82 1672.17 1074 Q1676.55 1070.14 1683.94 1070.14 Q1691.4 1070.14 1695.75 1074.28 Q1700.1 1078.42 1700.1 1084.54 Q1700.1 1087.65 1698.83 1090.65 Q1697.56 1093.66 1694.59 1096.98 Q1691.65 1100.31 1684.79 1106.11 Q1679.06 1110.92 1677.44 1112.65 Q1675.81 1114.35 1674.75 1116.08 L1700.17 1116.08 Z" fill="#000000" fill-rule="nonzero" fill-opacity="1" /><polyline clip-path="url(#clip040)" style="stroke:#000000; stroke-linecap:round; stroke-linejoin:round; stroke-width:4; stroke-opacity:1; fill:none" points="512.626,1188.81 512.626,477.847 "/>
<polyline clip-path="url(#clip040)" style="stroke:#000000; stroke-linecap:round; stroke-linejoin:round; stroke-width:2; stroke-opacity:0.5; fill:none" points="1634.06,1038.56 1634.06,327.603 "/>
<polyline clip-path="url(#clip040)" style="stroke:#000000; stroke-linecap:round; stroke-linejoin:round; stroke-width:4; stroke-opacity:1; fill:none" points="512.626,1031.61 517.552,1027.34 "/>
<polyline clip-path="url(#clip040)" style="stroke:#000000; stroke-linecap:round; stroke-linejoin:round; stroke-width:4; stroke-opacity:1; fill:none" points="512.626,863.474 517.552,859.208 "/>
<polyline clip-path="url(#clip040)" style="stroke:#000000; stroke-linecap:round; stroke-linejoin:round; stroke-width:4; stroke-opacity:1; fill:none" points="512.626,695.337 517.552,691.072 "/>
<polyline clip-path="url(#clip040)" style="stroke:#000000; stroke-linecap:round; stroke-linejoin:round; stroke-width:4; stroke-opacity:1; fill:none" points="512.626,527.201 517.552,522.935 "/>
<path clip-path="url(#clip040)" d="M420.647 1031.85 Q420.647 1025.72 421.896 1021.99 Q423.169 1018.24 425.644 1016.22 Q428.143 1014.19 431.915 1014.19 Q434.697 1014.19 436.795 1015.32 Q438.893 1016.43 440.261 1018.55 Q441.628 1020.65 442.406 1023.69 Q443.184 1026.71 443.184 1031.85 Q443.184 1037.93 441.934 1041.68 Q440.685 1045.4 438.186 1047.45 Q435.711 1049.48 431.915 1049.48 Q426.917 1049.48 424.065 1045.9 Q420.647 1041.58 420.647 1031.85 M425.008 1031.85 Q425.008 1040.36 426.988 1043.19 Q428.992 1045.99 431.915 1045.99 Q434.838 1045.99 436.819 1043.16 Q438.822 1040.33 438.822 1031.85 Q438.822 1023.31 436.819 1020.51 Q434.838 1017.7 431.868 1017.7 Q428.945 1017.7 427.2 1020.18 Q425.008 1023.34 425.008 1031.85 Z" fill="#000000" fill-rule="nonzero" fill-opacity="1" /><path clip-path="url(#clip040)" d="M449.879 1048.89 L449.879 1044.06 L454.712 1044.06 L454.712 1048.89 L449.879 1048.89 Z" fill="#000000" fill-rule="nonzero" fill-opacity="1" /><path clip-path="url(#clip040)" d="M460.912 1039.84 L465.367 1039.46 Q465.862 1042.71 467.654 1044.36 Q469.469 1045.99 472.015 1045.99 Q475.08 1045.99 477.202 1043.68 Q479.323 1041.37 479.323 1037.55 Q479.323 1033.92 477.272 1031.82 Q475.245 1029.72 471.944 1029.72 Q469.893 1029.72 468.243 1030.67 Q466.593 1031.59 465.65 1033.07 L461.666 1032.55 L465.014 1014.8 L482.199 1014.8 L482.199 1018.86 L468.408 1018.86 L466.546 1028.14 Q469.658 1025.98 473.076 1025.98 Q477.602 1025.98 480.714 1029.11 Q483.826 1032.25 483.826 1037.17 Q483.826 1041.86 481.091 1045.28 Q477.767 1049.48 472.015 1049.48 Q467.3 1049.48 464.306 1046.84 Q461.336 1044.2 460.912 1039.84 Z" fill="#000000" fill-rule="nonzero" fill-opacity="1" /><path clip-path="url(#clip040)" d="M437.007 880.754 L432.764 880.754 L432.764 853.714 Q431.232 855.176 428.733 856.637 Q426.257 858.099 424.277 858.83 L424.277 854.728 Q427.837 853.054 430.501 850.673 Q433.165 848.292 434.273 846.052 L437.007 846.052 L437.007 880.754 Z" fill="#000000" fill-rule="nonzero" fill-opacity="1" /><path clip-path="url(#clip040)" d="M450.256 880.754 L450.256 875.921 L455.089 875.921 L455.089 880.754 L450.256 880.754 Z" fill="#000000" fill-rule="nonzero" fill-opacity="1" /><path clip-path="url(#clip040)" d="M461.289 863.71 Q461.289 857.58 462.538 853.855 Q463.811 850.107 466.287 848.08 Q468.785 846.052 472.557 846.052 Q475.339 846.052 477.437 847.184 Q479.535 848.292 480.903 850.414 Q482.27 852.512 483.048 855.553 Q483.826 858.57 483.826 863.71 Q483.826 869.792 482.576 873.54 Q481.327 877.265 478.828 879.316 Q476.353 881.343 472.557 881.343 Q467.56 881.343 464.707 877.76 Q461.289 873.446 461.289 863.71 M465.65 863.71 Q465.65 872.22 467.63 875.049 Q469.634 877.854 472.557 877.854 Q475.481 877.854 477.461 875.025 Q479.465 872.196 479.465 863.71 Q479.465 855.176 477.461 852.37 Q475.481 849.565 472.51 849.565 Q469.587 849.565 467.842 852.04 Q465.65 855.199 465.65 863.71 Z" fill="#000000" fill-rule="nonzero" fill-opacity="1" /><path clip-path="url(#clip040)" d="M436.63 712.617 L432.387 712.617 L432.387 685.578 Q430.854 687.039 428.355 688.501 Q425.88 689.962 423.9 690.693 L423.9 686.591 Q427.46 684.918 430.124 682.537 Q432.787 680.156 433.895 677.916 L436.63 677.916 L436.63 712.617 Z" fill="#000000" fill-rule="nonzero" fill-opacity="1" /><path clip-path="url(#clip040)" d="M449.879 712.617 L449.879 707.785 L454.712 707.785 L454.712 712.617 L449.879 712.617 Z" fill="#000000" fill-rule="nonzero" fill-opacity="1" /><path clip-path="url(#clip040)" d="M460.912 703.565 L465.367 703.188 Q465.862 706.441 467.654 708.091 Q469.469 709.718 472.015 709.718 Q475.08 709.718 477.202 707.407 Q479.323 705.097 479.323 701.278 Q479.323 697.648 477.272 695.55 Q475.245 693.451 471.944 693.451 Q469.893 693.451 468.243 694.394 Q466.593 695.314 465.65 696.799 L461.666 696.28 L465.014 678.529 L482.199 678.529 L482.199 682.584 L468.408 682.584 L466.546 691.872 Q469.658 689.703 473.076 689.703 Q477.602 689.703 480.714 692.839 Q483.826 695.974 483.826 700.901 Q483.826 705.592 481.091 709.011 Q477.767 713.207 472.015 713.207 Q467.3 713.207 464.306 710.566 Q461.336 707.926 460.912 703.565 Z" fill="#000000" fill-rule="nonzero" fill-opacity="1" /><path clip-path="url(#clip040)" d="M443.325 540.403 L443.325 544.481 L420.482 544.481 Q420.434 542.949 420.977 541.534 Q421.849 539.2 423.758 536.937 Q425.692 534.674 429.322 531.704 Q434.956 527.083 436.937 524.396 Q438.917 521.685 438.917 519.28 Q438.917 516.758 437.102 515.037 Q435.31 513.292 432.41 513.292 Q429.346 513.292 427.507 515.131 Q425.668 516.97 425.644 520.223 L421.283 519.775 Q421.731 514.895 424.654 512.349 Q427.578 509.78 432.505 509.78 Q437.479 509.78 440.378 512.538 Q443.278 515.296 443.278 519.374 Q443.278 521.449 442.429 523.453 Q441.581 525.457 439.6 527.673 Q437.644 529.889 433.07 533.755 Q429.251 536.961 428.167 538.116 Q427.082 539.248 426.375 540.403 L443.325 540.403 Z" fill="#000000" fill-rule="nonzero" fill-opacity="1" /><path clip-path="url(#clip040)" d="M450.256 544.481 L450.256 539.648 L455.089 539.648 L455.089 544.481 L450.256 544.481 Z" fill="#000000" fill-rule="nonzero" fill-opacity="1" /><path clip-path="url(#clip040)" d="M461.289 527.437 Q461.289 521.307 462.538 517.583 Q463.811 513.834 466.287 511.807 Q468.785 509.78 472.557 509.78 Q475.339 509.78 477.437 510.911 Q479.535 512.019 480.903 514.141 Q482.27 516.239 483.048 519.28 Q483.826 522.298 483.826 527.437 Q483.826 533.519 482.576 537.267 Q481.327 540.992 478.828 543.043 Q476.353 545.07 472.557 545.07 Q467.56 545.07 464.707 541.487 Q461.289 537.173 461.289 527.437 M465.65 527.437 Q465.65 535.947 467.63 538.776 Q469.634 541.581 472.557 541.581 Q475.481 541.581 477.461 538.752 Q479.465 535.924 479.465 527.437 Q479.465 518.903 477.461 516.098 Q475.481 513.292 472.51 513.292 Q469.587 513.292 467.842 515.767 Q465.65 518.926 465.65 527.437 Z" fill="#000000" fill-rule="nonzero" fill-opacity="1" /><circle clip-path="url(#clip042)" cx="607.666" cy="1161.4" r="14.4" fill="#009af9" fill-rule="evenodd" fill-opacity="1" stroke="#000000" stroke-opacity="1" stroke-width="3.2"/>
<circle clip-path="url(#clip042)" cx="619.905" cy="1142.15" r="14.4" fill="#009af9" fill-rule="evenodd" fill-opacity="1" stroke="#000000" stroke-opacity="1" stroke-width="3.2"/>
<circle clip-path="url(#clip042)" cx="666.483" cy="1182.35" r="14.4" fill="#009af9" fill-rule="evenodd" fill-opacity="1" stroke="#000000" stroke-opacity="1" stroke-width="3.2"/>
<circle clip-path="url(#clip042)" cx="641.174" cy="1181.36" r="14.4" fill="#009af9" fill-rule="evenodd" fill-opacity="1" stroke="#000000" stroke-opacity="1" stroke-width="3.2"/>
<circle clip-path="url(#clip042)" cx="685.376" cy="1135.98" r="14.4" fill="#009af9" fill-rule="evenodd" fill-opacity="1" stroke="#000000" stroke-opacity="1" stroke-width="3.2"/>
<circle clip-path="url(#clip042)" cx="681.849" cy="1106.97" r="14.4" fill="#009af9" fill-rule="evenodd" fill-opacity="1" stroke="#000000" stroke-opacity="1" stroke-width="3.2"/>
<circle clip-path="url(#clip042)" cx="584.496" cy="1134.28" r="14.4" fill="#009af9" fill-rule="evenodd" fill-opacity="1" stroke="#000000" stroke-opacity="1" stroke-width="3.2"/>
<circle clip-path="url(#clip042)" cx="658.703" cy="1085.22" r="14.4" fill="#009af9" fill-rule="evenodd" fill-opacity="1" stroke="#000000" stroke-opacity="1" stroke-width="3.2"/>
<circle clip-path="url(#clip042)" cx="583.902" cy="1127.26" r="14.4" fill="#009af9" fill-rule="evenodd" fill-opacity="1" stroke="#000000" stroke-opacity="1" stroke-width="3.2"/>
<circle clip-path="url(#clip042)" cx="635.652" cy="1108.21" r="14.4" fill="#009af9" fill-rule="evenodd" fill-opacity="1" stroke="#000000" stroke-opacity="1" stroke-width="3.2"/>
<circle clip-path="url(#clip042)" cx="569.312" cy="1117.44" r="14.4" fill="#009af9" fill-rule="evenodd" fill-opacity="1" stroke="#000000" stroke-opacity="1" stroke-width="3.2"/>
<circle clip-path="url(#clip042)" cx="605.267" cy="1100.88" r="14.4" fill="#009af9" fill-rule="evenodd" fill-opacity="1" stroke="#000000" stroke-opacity="1" stroke-width="3.2"/>
<circle clip-path="url(#clip042)" cx="672.693" cy="1190.71" r="14.4" fill="#009af9" fill-rule="evenodd" fill-opacity="1" stroke="#000000" stroke-opacity="1" stroke-width="3.2"/>
<circle clip-path="url(#clip042)" cx="651.007" cy="1100.51" r="14.4" fill="#009af9" fill-rule="evenodd" fill-opacity="1" stroke="#000000" stroke-opacity="1" stroke-width="3.2"/>
<circle clip-path="url(#clip042)" cx="596.24" cy="1143.19" r="14.4" fill="#009af9" fill-rule="evenodd" fill-opacity="1" stroke="#000000" stroke-opacity="1" stroke-width="3.2"/>
<circle clip-path="url(#clip042)" cx="588.667" cy="1143.54" r="14.4" fill="#009af9" fill-rule="evenodd" fill-opacity="1" stroke="#000000" stroke-opacity="1" stroke-width="3.2"/>
<circle clip-path="url(#clip042)" cx="642.311" cy="1143.46" r="14.4" fill="#009af9" fill-rule="evenodd" fill-opacity="1" stroke="#000000" stroke-opacity="1" stroke-width="3.2"/>
<circle clip-path="url(#clip042)" cx="588.309" cy="1105.04" r="14.4" fill="#009af9" fill-rule="evenodd" fill-opacity="1" stroke="#000000" stroke-opacity="1" stroke-width="3.2"/>
<circle clip-path="url(#clip042)" cx="684.406" cy="1171.34" r="14.4" fill="#009af9" fill-rule="evenodd" fill-opacity="1" stroke="#000000" stroke-opacity="1" stroke-width="3.2"/>
<circle clip-path="url(#clip042)" cx="561.146" cy="1101.43" r="14.4" fill="#009af9" fill-rule="evenodd" fill-opacity="1" stroke="#000000" stroke-opacity="1" stroke-width="3.2"/>
<circle clip-path="url(#clip042)" cx="640.491" cy="1179.34" r="14.4" fill="#009af9" fill-rule="evenodd" fill-opacity="1" stroke="#000000" stroke-opacity="1" stroke-width="3.2"/>
<circle clip-path="url(#clip042)" cx="645.664" cy="1184.34" r="14.4" fill="#009af9" fill-rule="evenodd" fill-opacity="1" stroke="#000000" stroke-opacity="1" stroke-width="3.2"/>
<circle clip-path="url(#clip042)" cx="580.026" cy="1132.7" r="14.4" fill="#009af9" fill-rule="evenodd" fill-opacity="1" stroke="#000000" stroke-opacity="1" stroke-width="3.2"/>
<circle clip-path="url(#clip042)" cx="608.847" cy="1086.2" r="14.4" fill="#009af9" fill-rule="evenodd" fill-opacity="1" stroke="#000000" stroke-opacity="1" stroke-width="3.2"/>
<circle clip-path="url(#clip042)" cx="612.443" cy="1158.53" r="14.4" fill="#009af9" fill-rule="evenodd" fill-opacity="1" stroke="#000000" stroke-opacity="1" stroke-width="3.2"/>
<circle clip-path="url(#clip042)" cx="563.627" cy="1098.27" r="14.4" fill="#009af9" fill-rule="evenodd" fill-opacity="1" stroke="#000000" stroke-opacity="1" stroke-width="3.2"/>
<circle clip-path="url(#clip042)" cx="632.492" cy="1152.3" r="14.4" fill="#009af9" fill-rule="evenodd" fill-opacity="1" stroke="#000000" stroke-opacity="1" stroke-width="3.2"/>
<circle clip-path="url(#clip042)" cx="591.782" cy="1134.83" r="14.4" fill="#009af9" fill-rule="evenodd" fill-opacity="1" stroke="#000000" stroke-opacity="1" stroke-width="3.2"/>
<circle clip-path="url(#clip042)" cx="602.104" cy="1156.98" r="14.4" fill="#009af9" fill-rule="evenodd" fill-opacity="1" stroke="#000000" stroke-opacity="1" stroke-width="3.2"/>
<circle clip-path="url(#clip042)" cx="584.316" cy="1124.22" r="14.4" fill="#009af9" fill-rule="evenodd" fill-opacity="1" stroke="#000000" stroke-opacity="1" stroke-width="3.2"/>
<circle clip-path="url(#clip042)" cx="636.365" cy="1130.57" r="14.4" fill="#009af9" fill-rule="evenodd" fill-opacity="1" stroke="#000000" stroke-opacity="1" stroke-width="3.2"/>
<circle clip-path="url(#clip042)" cx="642.004" cy="1105.74" r="14.4" fill="#009af9" fill-rule="evenodd" fill-opacity="1" stroke="#000000" stroke-opacity="1" stroke-width="3.2"/>
<circle clip-path="url(#clip042)" cx="597.84" cy="1148.43" r="14.4" fill="#009af9" fill-rule="evenodd" fill-opacity="1" stroke="#000000" stroke-opacity="1" stroke-width="3.2"/>
<circle clip-path="url(#clip042)" cx="652.998" cy="1106.51" r="14.4" fill="#009af9" fill-rule="evenodd" fill-opacity="1" stroke="#000000" stroke-opacity="1" stroke-width="3.2"/>
<circle clip-path="url(#clip042)" cx="603.069" cy="1150.88" r="14.4" fill="#009af9" fill-rule="evenodd" fill-opacity="1" stroke="#000000" stroke-opacity="1" stroke-width="3.2"/>
<circle clip-path="url(#clip042)" cx="593.87" cy="1143.67" r="14.4" fill="#009af9" fill-rule="evenodd" fill-opacity="1" stroke="#000000" stroke-opacity="1" stroke-width="3.2"/>
<path clip-path="url(#clip042)" d="M523.588 1002.6 L523.588 1034.6 L555.588 1034.6 L555.588 1002.6 L523.588 1002.6 Z" fill="#009af9" fill-rule="evenodd" fill-opacity="1" stroke="#000000" stroke-opacity="1" stroke-width="3.2"/>
<circle clip-path="url(#clip042)" cx="603.203" cy="1155.9" r="14.4" fill="#009af9" fill-rule="evenodd" fill-opacity="1" stroke="#000000" stroke-opacity="1" stroke-width="3.2"/>
<path clip-path="url(#clip042)" d="M594.408 1090.46 L594.408 1122.46 L626.408 1122.46 L626.408 1090.46 L594.408 1090.46 Z" fill="#009af9" fill-rule="evenodd" fill-opacity="1" stroke="#000000" stroke-opacity="1" stroke-width="3.2"/>
<circle clip-path="url(#clip042)" cx="633.839" cy="1174.98" r="14.4" fill="#009af9" fill-rule="evenodd" fill-opacity="1" stroke="#000000" stroke-opacity="1" stroke-width="3.2"/>
<circle clip-path="url(#clip042)" cx="691.554" cy="1171.91" r="14.4" fill="#009af9" fill-rule="evenodd" fill-opacity="1" stroke="#000000" stroke-opacity="1" stroke-width="3.2"/>
<circle clip-path="url(#clip042)" cx="600.954" cy="1133.31" r="14.4" fill="#009af9" fill-rule="evenodd" fill-opacity="1" stroke="#000000" stroke-opacity="1" stroke-width="3.2"/>
<circle clip-path="url(#clip042)" cx="626.63" cy="1168.43" r="14.4" fill="#009af9" fill-rule="evenodd" fill-opacity="1" stroke="#000000" stroke-opacity="1" stroke-width="3.2"/>
<circle clip-path="url(#clip042)" cx="592.924" cy="1148.77" r="14.4" fill="#009af9" fill-rule="evenodd" fill-opacity="1" stroke="#000000" stroke-opacity="1" stroke-width="3.2"/>
<circle clip-path="url(#clip042)" cx="694.082" cy="1204.03" r="14.4" fill="#009af9" fill-rule="evenodd" fill-opacity="1" stroke="#000000" stroke-opacity="1" stroke-width="3.2"/>
<circle clip-path="url(#clip042)" cx="638.089" cy="1145.05" r="14.4" fill="#009af9" fill-rule="evenodd" fill-opacity="1" stroke="#000000" stroke-opacity="1" stroke-width="3.2"/>
<circle clip-path="url(#clip042)" cx="671.665" cy="1108.64" r="14.4" fill="#009af9" fill-rule="evenodd" fill-opacity="1" stroke="#000000" stroke-opacity="1" stroke-width="3.2"/>
<circle clip-path="url(#clip042)" cx="619.84" cy="1132.38" r="14.4" fill="#009af9" fill-rule="evenodd" fill-opacity="1" stroke="#000000" stroke-opacity="1" stroke-width="3.2"/>
<path clip-path="url(#clip042)" d="M527.142 1007.53 L527.142 1039.53 L559.142 1039.53 L559.142 1007.53 L527.142 1007.53 Z" fill="#009af9" fill-rule="evenodd" fill-opacity="1" stroke="#000000" stroke-opacity="1" stroke-width="3.2"/>
<circle clip-path="url(#clip042)" cx="625.742" cy="1151.19" r="14.4" fill="#009af9" fill-rule="evenodd" fill-opacity="1" stroke="#000000" stroke-opacity="1" stroke-width="3.2"/>
<circle clip-path="url(#clip042)" cx="579.835" cy="1114.77" r="14.4" fill="#009af9" fill-rule="evenodd" fill-opacity="1" stroke="#000000" stroke-opacity="1" stroke-width="3.2"/>
<circle clip-path="url(#clip042)" cx="645.843" cy="1154.06" r="14.4" fill="#009af9" fill-rule="evenodd" fill-opacity="1" stroke="#000000" stroke-opacity="1" stroke-width="3.2"/>
<circle clip-path="url(#clip042)" cx="589.682" cy="1138.47" r="14.4" fill="#009af9" fill-rule="evenodd" fill-opacity="1" stroke="#000000" stroke-opacity="1" stroke-width="3.2"/>
<circle clip-path="url(#clip042)" cx="685.861" cy="1184.35" r="14.4" fill="#009af9" fill-rule="evenodd" fill-opacity="1" stroke="#000000" stroke-opacity="1" stroke-width="3.2"/>
<circle clip-path="url(#clip042)" cx="675.474" cy="1187.46" r="14.4" fill="#009af9" fill-rule="evenodd" fill-opacity="1" stroke="#000000" stroke-opacity="1" stroke-width="3.2"/>
<circle clip-path="url(#clip042)" cx="585.006" cy="1133.34" r="14.4" fill="#009af9" fill-rule="evenodd" fill-opacity="1" stroke="#000000" stroke-opacity="1" stroke-width="3.2"/>
<circle clip-path="url(#clip042)" cx="663.195" cy="1159.17" r="14.4" fill="#009af9" fill-rule="evenodd" fill-opacity="1" stroke="#000000" stroke-opacity="1" stroke-width="3.2"/>
<circle clip-path="url(#clip042)" cx="570.756" cy="1072.67" r="14.4" fill="#009af9" fill-rule="evenodd" fill-opacity="1" stroke="#000000" stroke-opacity="1" stroke-width="3.2"/>
<circle clip-path="url(#clip042)" cx="645.88" cy="1174.26" r="14.4" fill="#009af9" fill-rule="evenodd" fill-opacity="1" stroke="#000000" stroke-opacity="1" stroke-width="3.2"/>
<circle clip-path="url(#clip042)" cx="617.647" cy="1142.48" r="14.4" fill="#009af9" fill-rule="evenodd" fill-opacity="1" stroke="#000000" stroke-opacity="1" stroke-width="3.2"/>
<circle clip-path="url(#clip042)" cx="592.582" cy="1136.75" r="14.4" fill="#009af9" fill-rule="evenodd" fill-opacity="1" stroke="#000000" stroke-opacity="1" stroke-width="3.2"/>
<circle clip-path="url(#clip042)" cx="617.642" cy="1083.57" r="14.4" fill="#009af9" fill-rule="evenodd" fill-opacity="1" stroke="#000000" stroke-opacity="1" stroke-width="3.2"/>
<circle clip-path="url(#clip042)" cx="582.26" cy="1137.55" r="14.4" fill="#009af9" fill-rule="evenodd" fill-opacity="1" stroke="#000000" stroke-opacity="1" stroke-width="3.2"/>
<circle clip-path="url(#clip042)" cx="628.47" cy="1172.9" r="14.4" fill="#009af9" fill-rule="evenodd" fill-opacity="1" stroke="#000000" stroke-opacity="1" stroke-width="3.2"/>
<circle clip-path="url(#clip042)" cx="659.475" cy="1133.25" r="14.4" fill="#009af9" fill-rule="evenodd" fill-opacity="1" stroke="#000000" stroke-opacity="1" stroke-width="3.2"/>
<circle clip-path="url(#clip042)" cx="574.926" cy="1127.65" r="14.4" fill="#009af9" fill-rule="evenodd" fill-opacity="1" stroke="#000000" stroke-opacity="1" stroke-width="3.2"/>
<circle clip-path="url(#clip042)" cx="582.948" cy="1136.84" r="14.4" fill="#009af9" fill-rule="evenodd" fill-opacity="1" stroke="#000000" stroke-opacity="1" stroke-width="3.2"/>
<circle clip-path="url(#clip042)" cx="595.812" cy="1151.38" r="14.4" fill="#009af9" fill-rule="evenodd" fill-opacity="1" stroke="#000000" stroke-opacity="1" stroke-width="3.2"/>
<path clip-path="url(#clip042)" d="M566.476 1070.16 L566.476 1102.16 L598.476 1102.16 L598.476 1070.16 L566.476 1070.16 Z" fill="#009af9" fill-rule="evenodd" fill-opacity="1" stroke="#000000" stroke-opacity="1" stroke-width="3.2"/>
<path clip-path="url(#clip042)" d="M606.409 1132.32 L606.409 1164.32 L638.409 1164.32 L638.409 1132.32 L606.409 1132.32 Z" fill="#009af9" fill-rule="evenodd" fill-opacity="1" stroke="#000000" stroke-opacity="1" stroke-width="3.2"/>
<circle clip-path="url(#clip042)" cx="649.877" cy="1082.27" r="14.4" fill="#009af9" fill-rule="evenodd" fill-opacity="1" stroke="#000000" stroke-opacity="1" stroke-width="3.2"/>
<circle clip-path="url(#clip042)" cx="606.283" cy="1104.54" r="14.4" fill="#009af9" fill-rule="evenodd" fill-opacity="1" stroke="#000000" stroke-opacity="1" stroke-width="3.2"/>
<circle clip-path="url(#clip042)" cx="628.367" cy="1172.48" r="14.4" fill="#009af9" fill-rule="evenodd" fill-opacity="1" stroke="#000000" stroke-opacity="1" stroke-width="3.2"/>
<path clip-path="url(#clip042)" d="M560.18 1046.36 L560.18 1078.36 L592.18 1078.36 L592.18 1046.36 L560.18 1046.36 Z" fill="#009af9" fill-rule="evenodd" fill-opacity="1" stroke="#000000" stroke-opacity="1" stroke-width="3.2"/>
<circle clip-path="url(#clip042)" cx="682.159" cy="1193.5" r="14.4" fill="#009af9" fill-rule="evenodd" fill-opacity="1" stroke="#000000" stroke-opacity="1" stroke-width="3.2"/>
<circle clip-path="url(#clip042)" cx="699.826" cy="1188.54" r="14.4" fill="#009af9" fill-rule="evenodd" fill-opacity="1" stroke="#000000" stroke-opacity="1" stroke-width="3.2"/>
<circle clip-path="url(#clip042)" cx="687.708" cy="1203.67" r="14.4" fill="#009af9" fill-rule="evenodd" fill-opacity="1" stroke="#000000" stroke-opacity="1" stroke-width="3.2"/>
<circle clip-path="url(#clip042)" cx="582.788" cy="1093.87" r="14.4" fill="#009af9" fill-rule="evenodd" fill-opacity="1" stroke="#000000" stroke-opacity="1" stroke-width="3.2"/>
<circle clip-path="url(#clip042)" cx="611.977" cy="1154.37" r="14.4" fill="#009af9" fill-rule="evenodd" fill-opacity="1" stroke="#000000" stroke-opacity="1" stroke-width="3.2"/>
<circle clip-path="url(#clip042)" cx="624.96" cy="1142.83" r="14.4" fill="#009af9" fill-rule="evenodd" fill-opacity="1" stroke="#000000" stroke-opacity="1" stroke-width="3.2"/>
<circle clip-path="url(#clip042)" cx="599.739" cy="1077.85" r="14.4" fill="#009af9" fill-rule="evenodd" fill-opacity="1" stroke="#000000" stroke-opacity="1" stroke-width="3.2"/>
<circle clip-path="url(#clip042)" cx="642.524" cy="1180.92" r="14.4" fill="#009af9" fill-rule="evenodd" fill-opacity="1" stroke="#000000" stroke-opacity="1" stroke-width="3.2"/>
<circle clip-path="url(#clip042)" cx="574.192" cy="1124.16" r="14.4" fill="#009af9" fill-rule="evenodd" fill-opacity="1" stroke="#000000" stroke-opacity="1" stroke-width="3.2"/>
<circle clip-path="url(#clip042)" cx="599.32" cy="1144.74" r="14.4" fill="#009af9" fill-rule="evenodd" fill-opacity="1" stroke="#000000" stroke-opacity="1" stroke-width="3.2"/>
<path clip-path="url(#clip042)" d="M613.484 1134.88 L613.484 1166.88 L645.484 1166.88 L645.484 1134.88 L613.484 1134.88 Z" fill="#009af9" fill-rule="evenodd" fill-opacity="1" stroke="#000000" stroke-opacity="1" stroke-width="3.2"/>
<circle clip-path="url(#clip042)" cx="637.093" cy="1156.38" r="14.4" fill="#009af9" fill-rule="evenodd" fill-opacity="1" stroke="#000000" stroke-opacity="1" stroke-width="3.2"/>
<circle clip-path="url(#clip042)" cx="622.773" cy="1167.41" r="14.4" fill="#009af9" fill-rule="evenodd" fill-opacity="1" stroke="#000000" stroke-opacity="1" stroke-width="3.2"/>
<circle clip-path="url(#clip042)" cx="668.841" cy="1193.35" r="14.4" fill="#009af9" fill-rule="evenodd" fill-opacity="1" stroke="#000000" stroke-opacity="1" stroke-width="3.2"/>
<circle clip-path="url(#clip042)" cx="621.308" cy="1134.81" r="14.4" fill="#009af9" fill-rule="evenodd" fill-opacity="1" stroke="#000000" stroke-opacity="1" stroke-width="3.2"/>
<path clip-path="url(#clip042)" d="M570.294 1099.29 L570.294 1131.29 L602.294 1131.29 L602.294 1099.29 L570.294 1099.29 Z" fill="#009af9" fill-rule="evenodd" fill-opacity="1" stroke="#000000" stroke-opacity="1" stroke-width="3.2"/>
<circle clip-path="url(#clip042)" cx="593.989" cy="1141.94" r="14.4" fill="#009af9" fill-rule="evenodd" fill-opacity="1" stroke="#000000" stroke-opacity="1" stroke-width="3.2"/>
<circle clip-path="url(#clip042)" cx="686.679" cy="1108.17" r="14.4" fill="#009af9" fill-rule="evenodd" fill-opacity="1" stroke="#000000" stroke-opacity="1" stroke-width="3.2"/>
<circle clip-path="url(#clip042)" cx="641.227" cy="1142.53" r="14.4" fill="#009af9" fill-rule="evenodd" fill-opacity="1" stroke="#000000" stroke-opacity="1" stroke-width="3.2"/>
<circle clip-path="url(#clip042)" cx="616.018" cy="1103.65" r="14.4" fill="#009af9" fill-rule="evenodd" fill-opacity="1" stroke="#000000" stroke-opacity="1" stroke-width="3.2"/>
<circle clip-path="url(#clip042)" cx="560.392" cy="1078.78" r="14.4" fill="#009af9" fill-rule="evenodd" fill-opacity="1" stroke="#000000" stroke-opacity="1" stroke-width="3.2"/>
<circle clip-path="url(#clip042)" cx="663.62" cy="1111.13" r="14.4" fill="#009af9" fill-rule="evenodd" fill-opacity="1" stroke="#000000" stroke-opacity="1" stroke-width="3.2"/>
<circle clip-path="url(#clip042)" cx="667.496" cy="1145.92" r="14.4" fill="#009af9" fill-rule="evenodd" fill-opacity="1" stroke="#000000" stroke-opacity="1" stroke-width="3.2"/>
<circle clip-path="url(#clip042)" cx="574.564" cy="1126.81" r="14.4" fill="#009af9" fill-rule="evenodd" fill-opacity="1" stroke="#000000" stroke-opacity="1" stroke-width="3.2"/>
<circle clip-path="url(#clip042)" cx="620.917" cy="1169.27" r="14.4" fill="#009af9" fill-rule="evenodd" fill-opacity="1" stroke="#000000" stroke-opacity="1" stroke-width="3.2"/>
<circle clip-path="url(#clip042)" cx="578.927" cy="1130.32" r="14.4" fill="#009af9" fill-rule="evenodd" fill-opacity="1" stroke="#000000" stroke-opacity="1" stroke-width="3.2"/>
<circle clip-path="url(#clip042)" cx="677.52" cy="1116.81" r="14.4" fill="#009af9" fill-rule="evenodd" fill-opacity="1" stroke="#000000" stroke-opacity="1" stroke-width="3.2"/>
<circle clip-path="url(#clip042)" cx="603.663" cy="1125.43" r="14.4" fill="#009af9" fill-rule="evenodd" fill-opacity="1" stroke="#000000" stroke-opacity="1" stroke-width="3.2"/>
<circle clip-path="url(#clip042)" cx="604.468" cy="1109.89" r="14.4" fill="#009af9" fill-rule="evenodd" fill-opacity="1" stroke="#000000" stroke-opacity="1" stroke-width="3.2"/>
<circle clip-path="url(#clip042)" cx="641.127" cy="1168.47" r="14.4" fill="#009af9" fill-rule="evenodd" fill-opacity="1" stroke="#000000" stroke-opacity="1" stroke-width="3.2"/>
<circle clip-path="url(#clip042)" cx="683.277" cy="1106.6" r="14.4" fill="#009af9" fill-rule="evenodd" fill-opacity="1" stroke="#000000" stroke-opacity="1" stroke-width="3.2"/>
<circle clip-path="url(#clip042)" cx="621.193" cy="1094.56" r="14.4" fill="#009af9" fill-rule="evenodd" fill-opacity="1" stroke="#000000" stroke-opacity="1" stroke-width="3.2"/>
<circle clip-path="url(#clip042)" cx="634.382" cy="1174.36" r="14.4" fill="#009af9" fill-rule="evenodd" fill-opacity="1" stroke="#000000" stroke-opacity="1" stroke-width="3.2"/>
<circle clip-path="url(#clip042)" cx="655.013" cy="1104.73" r="14.4" fill="#009af9" fill-rule="evenodd" fill-opacity="1" stroke="#000000" stroke-opacity="1" stroke-width="3.2"/>
<circle clip-path="url(#clip042)" cx="683.166" cy="1129.42" r="14.4" fill="#009af9" fill-rule="evenodd" fill-opacity="1" stroke="#000000" stroke-opacity="1" stroke-width="3.2"/>
<circle clip-path="url(#clip042)" cx="644.13" cy="1151.84" r="14.4" fill="#009af9" fill-rule="evenodd" fill-opacity="1" stroke="#000000" stroke-opacity="1" stroke-width="3.2"/>
<circle clip-path="url(#clip042)" cx="570.2" cy="1108.85" r="14.4" fill="#009af9" fill-rule="evenodd" fill-opacity="1" stroke="#000000" stroke-opacity="1" stroke-width="3.2"/>
<circle clip-path="url(#clip042)" cx="632.848" cy="1153.87" r="14.4" fill="#009af9" fill-rule="evenodd" fill-opacity="1" stroke="#000000" stroke-opacity="1" stroke-width="3.2"/>
<path clip-path="url(#clip042)" d="M640.565 1151.21 L640.565 1183.21 L672.565 1183.21 L672.565 1151.21 L640.565 1151.21 Z" fill="#009af9" fill-rule="evenodd" fill-opacity="1" stroke="#000000" stroke-opacity="1" stroke-width="3.2"/>
<circle clip-path="url(#clip042)" cx="567.48" cy="1097.23" r="14.4" fill="#009af9" fill-rule="evenodd" fill-opacity="1" stroke="#000000" stroke-opacity="1" stroke-width="3.2"/>
<circle clip-path="url(#clip042)" cx="589.836" cy="1139.71" r="14.4" fill="#009af9" fill-rule="evenodd" fill-opacity="1" stroke="#000000" stroke-opacity="1" stroke-width="3.2"/>
<circle clip-path="url(#clip042)" cx="612.843" cy="1154.08" r="14.4" fill="#009af9" fill-rule="evenodd" fill-opacity="1" stroke="#000000" stroke-opacity="1" stroke-width="3.2"/>
<circle clip-path="url(#clip042)" cx="664.35" cy="1188.09" r="14.4" fill="#009af9" fill-rule="evenodd" fill-opacity="1" stroke="#000000" stroke-opacity="1" stroke-width="3.2"/>
<circle clip-path="url(#clip042)" cx="607.202" cy="1133.76" r="14.4" fill="#009af9" fill-rule="evenodd" fill-opacity="1" stroke="#000000" stroke-opacity="1" stroke-width="3.2"/>
<circle clip-path="url(#clip042)" cx="586.507" cy="1124.74" r="14.4" fill="#009af9" fill-rule="evenodd" fill-opacity="1" stroke="#000000" stroke-opacity="1" stroke-width="3.2"/>
<circle clip-path="url(#clip042)" cx="660.296" cy="1082.39" r="14.4" fill="#009af9" fill-rule="evenodd" fill-opacity="1" stroke="#000000" stroke-opacity="1" stroke-width="3.2"/>
<circle clip-path="url(#clip042)" cx="674.441" cy="1193.68" r="14.4" fill="#009af9" fill-rule="evenodd" fill-opacity="1" stroke="#000000" stroke-opacity="1" stroke-width="3.2"/>
<circle clip-path="url(#clip042)" cx="659.6" cy="1102.23" r="14.4" fill="#009af9" fill-rule="evenodd" fill-opacity="1" stroke="#000000" stroke-opacity="1" stroke-width="3.2"/>
<circle clip-path="url(#clip042)" cx="602.857" cy="1133.49" r="14.4" fill="#009af9" fill-rule="evenodd" fill-opacity="1" stroke="#000000" stroke-opacity="1" stroke-width="3.2"/>
<circle clip-path="url(#clip042)" cx="569.212" cy="1077.35" r="14.4" fill="#009af9" fill-rule="evenodd" fill-opacity="1" stroke="#000000" stroke-opacity="1" stroke-width="3.2"/>
<circle clip-path="url(#clip042)" cx="610.911" cy="1159.56" r="14.4" fill="#009af9" fill-rule="evenodd" fill-opacity="1" stroke="#000000" stroke-opacity="1" stroke-width="3.2"/>
<circle clip-path="url(#clip042)" cx="654.857" cy="1147.23" r="14.4" fill="#009af9" fill-rule="evenodd" fill-opacity="1" stroke="#000000" stroke-opacity="1" stroke-width="3.2"/>
<circle clip-path="url(#clip042)" cx="600.528" cy="1148.21" r="14.4" fill="#009af9" fill-rule="evenodd" fill-opacity="1" stroke="#000000" stroke-opacity="1" stroke-width="3.2"/>
<circle clip-path="url(#clip042)" cx="652.072" cy="1161.42" r="14.4" fill="#009af9" fill-rule="evenodd" fill-opacity="1" stroke="#000000" stroke-opacity="1" stroke-width="3.2"/>
<circle clip-path="url(#clip042)" cx="616.051" cy="1163.74" r="14.4" fill="#009af9" fill-rule="evenodd" fill-opacity="1" stroke="#000000" stroke-opacity="1" stroke-width="3.2"/>
<circle clip-path="url(#clip042)" cx="630.924" cy="1163.87" r="14.4" fill="#009af9" fill-rule="evenodd" fill-opacity="1" stroke="#000000" stroke-opacity="1" stroke-width="3.2"/>
<circle clip-path="url(#clip042)" cx="584.792" cy="1105.87" r="14.4" fill="#009af9" fill-rule="evenodd" fill-opacity="1" stroke="#000000" stroke-opacity="1" stroke-width="3.2"/>
<circle clip-path="url(#clip042)" cx="625.468" cy="1160.54" r="14.4" fill="#009af9" fill-rule="evenodd" fill-opacity="1" stroke="#000000" stroke-opacity="1" stroke-width="3.2"/>
<circle clip-path="url(#clip042)" cx="655.05" cy="1090.66" r="14.4" fill="#009af9" fill-rule="evenodd" fill-opacity="1" stroke="#000000" stroke-opacity="1" stroke-width="3.2"/>
<circle clip-path="url(#clip042)" cx="660.07" cy="1128.35" r="14.4" fill="#009af9" fill-rule="evenodd" fill-opacity="1" stroke="#000000" stroke-opacity="1" stroke-width="3.2"/>
<circle clip-path="url(#clip042)" cx="568.94" cy="1074.38" r="14.4" fill="#009af9" fill-rule="evenodd" fill-opacity="1" stroke="#000000" stroke-opacity="1" stroke-width="3.2"/>
<circle clip-path="url(#clip042)" cx="561.379" cy="1102.02" r="14.4" fill="#009af9" fill-rule="evenodd" fill-opacity="1" stroke="#000000" stroke-opacity="1" stroke-width="3.2"/>
<circle clip-path="url(#clip042)" cx="621.45" cy="1081.98" r="14.4" fill="#009af9" fill-rule="evenodd" fill-opacity="1" stroke="#000000" stroke-opacity="1" stroke-width="3.2"/>
<circle clip-path="url(#clip042)" cx="613.723" cy="1079.45" r="14.4" fill="#009af9" fill-rule="evenodd" fill-opacity="1" stroke="#000000" stroke-opacity="1" stroke-width="3.2"/>
<circle clip-path="url(#clip042)" cx="588.915" cy="1144.12" r="14.4" fill="#009af9" fill-rule="evenodd" fill-opacity="1" stroke="#000000" stroke-opacity="1" stroke-width="3.2"/>
<circle clip-path="url(#clip042)" cx="609.656" cy="1146.31" r="14.4" fill="#009af9" fill-rule="evenodd" fill-opacity="1" stroke="#000000" stroke-opacity="1" stroke-width="3.2"/>
<circle clip-path="url(#clip042)" cx="609.614" cy="1117.66" r="14.4" fill="#009af9" fill-rule="evenodd" fill-opacity="1" stroke="#000000" stroke-opacity="1" stroke-width="3.2"/>
<circle clip-path="url(#clip042)" cx="616.325" cy="1166.56" r="14.4" fill="#009af9" fill-rule="evenodd" fill-opacity="1" stroke="#000000" stroke-opacity="1" stroke-width="3.2"/>
<circle clip-path="url(#clip042)" cx="686.128" cy="1128.25" r="14.4" fill="#009af9" fill-rule="evenodd" fill-opacity="1" stroke="#000000" stroke-opacity="1" stroke-width="3.2"/>
<circle clip-path="url(#clip042)" cx="584.616" cy="1140.12" r="14.4" fill="#009af9" fill-rule="evenodd" fill-opacity="1" stroke="#000000" stroke-opacity="1" stroke-width="3.2"/>
<circle clip-path="url(#clip042)" cx="687.358" cy="1169.68" r="14.4" fill="#009af9" fill-rule="evenodd" fill-opacity="1" stroke="#000000" stroke-opacity="1" stroke-width="3.2"/>
<circle clip-path="url(#clip042)" cx="689.972" cy="1187.28" r="14.4" fill="#009af9" fill-rule="evenodd" fill-opacity="1" stroke="#000000" stroke-opacity="1" stroke-width="3.2"/>
<circle clip-path="url(#clip042)" cx="681.933" cy="1154.22" r="14.4" fill="#009af9" fill-rule="evenodd" fill-opacity="1" stroke="#000000" stroke-opacity="1" stroke-width="3.2"/>
<circle clip-path="url(#clip042)" cx="560.154" cy="1098.96" r="14.4" fill="#009af9" fill-rule="evenodd" fill-opacity="1" stroke="#000000" stroke-opacity="1" stroke-width="3.2"/>
<circle clip-path="url(#clip042)" cx="593.046" cy="1131.58" r="14.4" fill="#009af9" fill-rule="evenodd" fill-opacity="1" stroke="#000000" stroke-opacity="1" stroke-width="3.2"/>
<circle clip-path="url(#clip042)" cx="608.319" cy="1161.56" r="14.4" fill="#009af9" fill-rule="evenodd" fill-opacity="1" stroke="#000000" stroke-opacity="1" stroke-width="3.2"/>
<circle clip-path="url(#clip042)" cx="583.388" cy="1136.98" r="14.4" fill="#009af9" fill-rule="evenodd" fill-opacity="1" stroke="#000000" stroke-opacity="1" stroke-width="3.2"/>
<circle clip-path="url(#clip042)" cx="672.897" cy="1169.51" r="14.4" fill="#009af9" fill-rule="evenodd" fill-opacity="1" stroke="#000000" stroke-opacity="1" stroke-width="3.2"/>
<circle clip-path="url(#clip042)" cx="592.881" cy="1148.44" r="14.4" fill="#009af9" fill-rule="evenodd" fill-opacity="1" stroke="#000000" stroke-opacity="1" stroke-width="3.2"/>
<circle clip-path="url(#clip042)" cx="686.087" cy="1156.23" r="14.4" fill="#009af9" fill-rule="evenodd" fill-opacity="1" stroke="#000000" stroke-opacity="1" stroke-width="3.2"/>
<circle clip-path="url(#clip042)" cx="625.151" cy="1090.98" r="14.4" fill="#009af9" fill-rule="evenodd" fill-opacity="1" stroke="#000000" stroke-opacity="1" stroke-width="3.2"/>
<circle clip-path="url(#clip042)" cx="684.778" cy="1116.33" r="14.4" fill="#009af9" fill-rule="evenodd" fill-opacity="1" stroke="#000000" stroke-opacity="1" stroke-width="3.2"/>
<circle clip-path="url(#clip042)" cx="666.826" cy="1089.58" r="14.4" fill="#009af9" fill-rule="evenodd" fill-opacity="1" stroke="#000000" stroke-opacity="1" stroke-width="3.2"/>
<circle clip-path="url(#clip042)" cx="655.292" cy="1145.65" r="14.4" fill="#009af9" fill-rule="evenodd" fill-opacity="1" stroke="#000000" stroke-opacity="1" stroke-width="3.2"/>
<circle clip-path="url(#clip042)" cx="573.149" cy="1076.85" r="14.4" fill="#009af9" fill-rule="evenodd" fill-opacity="1" stroke="#000000" stroke-opacity="1" stroke-width="3.2"/>
<circle clip-path="url(#clip042)" cx="660.924" cy="1145.43" r="14.4" fill="#009af9" fill-rule="evenodd" fill-opacity="1" stroke="#000000" stroke-opacity="1" stroke-width="3.2"/>
<path clip-path="url(#clip042)" d="M731.047 1162.63 L731.047 1194.63 L763.047 1194.63 L763.047 1162.63 L731.047 1162.63 Z" fill="#e26f46" fill-rule="evenodd" fill-opacity="1" stroke="#000000" stroke-opacity="1" stroke-width="3.2"/>
<path clip-path="url(#clip042)" d="M896.466 1242.69 L896.466 1274.69 L928.466 1274.69 L928.466 1242.69 L896.466 1242.69 Z" fill="#e26f46" fill-rule="evenodd" fill-opacity="1" stroke="#000000" stroke-opacity="1" stroke-width="3.2"/>
<path clip-path="url(#clip042)" d="M1217.57 1364.61 L1217.57 1396.61 L1249.57 1396.61 L1249.57 1364.61 L1217.57 1364.61 Z" fill="#e26f46" fill-rule="evenodd" fill-opacity="1" stroke="#000000" stroke-opacity="1" stroke-width="3.2"/>
<path clip-path="url(#clip042)" d="M740.288 1058.92 L740.288 1090.92 L772.288 1090.92 L772.288 1058.92 L740.288 1058.92 Z" fill="#e26f46" fill-rule="evenodd" fill-opacity="1" stroke="#000000" stroke-opacity="1" stroke-width="3.2"/>
<path clip-path="url(#clip042)" d="M1147.57 1343.24 L1147.57 1375.24 L1179.57 1375.24 L1179.57 1343.24 L1147.57 1343.24 Z" fill="#e26f46" fill-rule="evenodd" fill-opacity="1" stroke="#000000" stroke-opacity="1" stroke-width="3.2"/>
<path clip-path="url(#clip042)" d="M522.324 695.149 L522.324 727.149 L554.324 727.149 L554.324 695.149 L522.324 695.149 Z" fill="#e26f46" fill-rule="evenodd" fill-opacity="1" stroke="#000000" stroke-opacity="1" stroke-width="3.2"/>
<path clip-path="url(#clip042)" d="M773.038 1223.43 L773.038 1255.43 L805.038 1255.43 L805.038 1223.43 L773.038 1223.43 Z" fill="#e26f46" fill-rule="evenodd" fill-opacity="1" stroke="#000000" stroke-opacity="1" stroke-width="3.2"/>
<path clip-path="url(#clip042)" d="M897.363 882.38 L897.363 914.38 L929.363 914.38 L929.363 882.38 L897.363 882.38 Z" fill="#e26f46" fill-rule="evenodd" fill-opacity="1" stroke="#000000" stroke-opacity="1" stroke-width="3.2"/>
<path clip-path="url(#clip042)" d="M514.373 725.313 L514.373 757.313 L546.373 757.313 L546.373 725.313 L514.373 725.313 Z" fill="#e26f46" fill-rule="evenodd" fill-opacity="1" stroke="#000000" stroke-opacity="1" stroke-width="3.2"/>
<path clip-path="url(#clip042)" d="M690.579 1002.99 L690.579 1034.99 L722.579 1034.99 L722.579 1002.99 L690.579 1002.99 Z" fill="#e26f46" fill-rule="evenodd" fill-opacity="1" stroke="#000000" stroke-opacity="1" stroke-width="3.2"/>
<path clip-path="url(#clip042)" d="M1163.86 1342.49 L1163.86 1374.49 L1195.86 1374.49 L1195.86 1342.49 L1163.86 1342.49 Z" fill="#e26f46" fill-rule="evenodd" fill-opacity="1" stroke="#000000" stroke-opacity="1" stroke-width="3.2"/>
<path clip-path="url(#clip042)" d="M806.239 983.879 L806.239 1015.88 L838.239 1015.88 L838.239 983.879 L806.239 983.879 Z" fill="#e26f46" fill-rule="evenodd" fill-opacity="1" stroke="#000000" stroke-opacity="1" stroke-width="3.2"/>
<path clip-path="url(#clip042)" d="M797.227 1139.87 L797.227 1171.87 L829.227 1171.87 L829.227 1139.87 L797.227 1139.87 Z" fill="#e26f46" fill-rule="evenodd" fill-opacity="1" stroke="#000000" stroke-opacity="1" stroke-width="3.2"/>
<path clip-path="url(#clip042)" d="M808.121 965.706 L808.121 997.706 L840.121 997.706 L840.121 965.706 L808.121 965.706 Z" fill="#e26f46" fill-rule="evenodd" fill-opacity="1" stroke="#000000" stroke-opacity="1" stroke-width="3.2"/>
<path clip-path="url(#clip042)" d="M538.024 961.829 L538.024 993.829 L570.024 993.829 L570.024 961.829 L538.024 961.829 Z" fill="#e26f46" fill-rule="evenodd" fill-opacity="1" stroke="#000000" stroke-opacity="1" stroke-width="3.2"/>
<path clip-path="url(#clip042)" d="M777.489 934.826 L777.489 966.826 L809.489 966.826 L809.489 934.826 L777.489 934.826 Z" fill="#e26f46" fill-rule="evenodd" fill-opacity="1" stroke="#000000" stroke-opacity="1" stroke-width="3.2"/>
<path clip-path="url(#clip042)" d="M972.579 1265.76 L972.579 1297.76 L1004.58 1297.76 L1004.58 1265.76 L972.579 1265.76 Z" fill="#e26f46" fill-rule="evenodd" fill-opacity="1" stroke="#000000" stroke-opacity="1" stroke-width="3.2"/>
<path clip-path="url(#clip042)" d="M537.482 848.896 L537.482 880.896 L569.482 880.896 L569.482 848.896 L537.482 848.896 Z" fill="#e26f46" fill-rule="evenodd" fill-opacity="1" stroke="#000000" stroke-opacity="1" stroke-width="3.2"/>
<path clip-path="url(#clip042)" d="M662.924 920.857 L662.924 952.857 L694.924 952.857 L694.924 920.857 L662.924 920.857 Z" fill="#e26f46" fill-rule="evenodd" fill-opacity="1" stroke="#000000" stroke-opacity="1" stroke-width="3.2"/>
<path clip-path="url(#clip042)" d="M733.867 915.679 L733.867 947.679 L765.867 947.679 L765.867 915.679 L733.867 915.679 Z" fill="#e26f46" fill-rule="evenodd" fill-opacity="1" stroke="#000000" stroke-opacity="1" stroke-width="3.2"/>
<path clip-path="url(#clip042)" d="M926.73 864.213 L926.73 896.213 L958.73 896.213 L958.73 864.213 L926.73 864.213 Z" fill="#e26f46" fill-rule="evenodd" fill-opacity="1" stroke="#000000" stroke-opacity="1" stroke-width="3.2"/>
<path clip-path="url(#clip042)" d="M972.881 1286.81 L972.881 1318.81 L1004.88 1318.81 L1004.88 1286.81 L972.881 1286.81 Z" fill="#e26f46" fill-rule="evenodd" fill-opacity="1" stroke="#000000" stroke-opacity="1" stroke-width="3.2"/>
<path clip-path="url(#clip042)" d="M948.964 825.017 L948.964 857.017 L980.964 857.017 L980.964 825.017 L948.964 825.017 Z" fill="#e26f46" fill-rule="evenodd" fill-opacity="1" stroke="#000000" stroke-opacity="1" stroke-width="3.2"/>
<path clip-path="url(#clip042)" d="M975.708 1290.36 L975.708 1322.36 L1007.71 1322.36 L1007.71 1290.36 L975.708 1290.36 Z" fill="#e26f46" fill-rule="evenodd" fill-opacity="1" stroke="#000000" stroke-opacity="1" stroke-width="3.2"/>
<path clip-path="url(#clip042)" d="M765.932 1219.18 L765.932 1251.18 L797.932 1251.18 L797.932 1219.18 L765.932 1219.18 Z" fill="#e26f46" fill-rule="evenodd" fill-opacity="1" stroke="#000000" stroke-opacity="1" stroke-width="3.2"/>
<path clip-path="url(#clip042)" d="M519.409 925.947 L519.409 957.947 L551.409 957.947 L551.409 925.947 L519.409 925.947 Z" fill="#e26f46" fill-rule="evenodd" fill-opacity="1" stroke="#000000" stroke-opacity="1" stroke-width="3.2"/>
<path clip-path="url(#clip042)" d="M744.688 1082.69 L744.688 1114.69 L776.688 1114.69 L776.688 1082.69 L744.688 1082.69 Z" fill="#e26f46" fill-rule="evenodd" fill-opacity="1" stroke="#000000" stroke-opacity="1" stroke-width="3.2"/>
<path clip-path="url(#clip042)" d="M826.773 1243.55 L826.773 1275.55 L858.773 1275.55 L858.773 1243.55 L826.773 1243.55 Z" fill="#e26f46" fill-rule="evenodd" fill-opacity="1" stroke="#000000" stroke-opacity="1" stroke-width="3.2"/>
<path clip-path="url(#clip042)" d="M769.265 1086.37 L769.265 1118.37 L801.265 1118.37 L801.265 1086.37 L769.265 1086.37 Z" fill="#e26f46" fill-rule="evenodd" fill-opacity="1" stroke="#000000" stroke-opacity="1" stroke-width="3.2"/>
<path clip-path="url(#clip042)" d="M506.576 464.719 L506.576 496.719 L538.576 496.719 L538.576 464.719 L506.576 464.719 Z" fill="#e26f46" fill-rule="evenodd" fill-opacity="1" stroke="#000000" stroke-opacity="1" stroke-width="3.2"/>
<path clip-path="url(#clip042)" d="M513.384 734.566 L513.384 766.566 L545.384 766.566 L545.384 734.566 L513.384 734.566 Z" fill="#e26f46" fill-rule="evenodd" fill-opacity="1" stroke="#000000" stroke-opacity="1" stroke-width="3.2"/>
<path clip-path="url(#clip042)" d="M581.147 799.675 L581.147 831.675 L613.147 831.675 L613.147 799.675 L581.147 799.675 Z" fill="#e26f46" fill-rule="evenodd" fill-opacity="1" stroke="#000000" stroke-opacity="1" stroke-width="3.2"/>
<path clip-path="url(#clip042)" d="M857.518 1211.82 L857.518 1243.82 L889.518 1243.82 L889.518 1211.82 L857.518 1211.82 Z" fill="#e26f46" fill-rule="evenodd" fill-opacity="1" stroke="#000000" stroke-opacity="1" stroke-width="3.2"/>
<path clip-path="url(#clip042)" d="M738.079 856.505 L738.079 888.505 L770.079 888.505 L770.079 856.505 L738.079 856.505 Z" fill="#e26f46" fill-rule="evenodd" fill-opacity="1" stroke="#000000" stroke-opacity="1" stroke-width="3.2"/>
<path clip-path="url(#clip042)" d="M1025.26 1306.38 L1025.26 1338.38 L1057.26 1338.38 L1057.26 1306.38 L1025.26 1306.38 Z" fill="#e26f46" fill-rule="evenodd" fill-opacity="1" stroke="#000000" stroke-opacity="1" stroke-width="3.2"/>
<path clip-path="url(#clip042)" d="M819.723 1145.15 L819.723 1177.15 L851.723 1177.15 L851.723 1145.15 L819.723 1145.15 Z" fill="#e26f46" fill-rule="evenodd" fill-opacity="1" stroke="#000000" stroke-opacity="1" stroke-width="3.2"/>
<path clip-path="url(#clip042)" d="M941.676 1252.26 L941.676 1284.26 L973.676 1284.26 L973.676 1252.26 L941.676 1252.26 Z" fill="#e26f46" fill-rule="evenodd" fill-opacity="1" stroke="#000000" stroke-opacity="1" stroke-width="3.2"/>
<path clip-path="url(#clip042)" d="M891.006 1202.81 L891.006 1234.81 L923.006 1234.81 L923.006 1202.81 L891.006 1202.81 Z" fill="#e26f46" fill-rule="evenodd" fill-opacity="1" stroke="#000000" stroke-opacity="1" stroke-width="3.2"/>
<path clip-path="url(#clip042)" d="M755.994 853.104 L755.994 885.104 L787.994 885.104 L787.994 853.104 L755.994 853.104 Z" fill="#e26f46" fill-rule="evenodd" fill-opacity="1" stroke="#000000" stroke-opacity="1" stroke-width="3.2"/>
<path clip-path="url(#clip042)" d="M809.524 894.532 L809.524 926.532 L841.524 926.532 L841.524 894.532 L809.524 894.532 Z" fill="#e26f46" fill-rule="evenodd" fill-opacity="1" stroke="#000000" stroke-opacity="1" stroke-width="3.2"/>
<path clip-path="url(#clip042)" d="M948.335 825.568 L948.335 857.568 L980.335 857.568 L980.335 825.568 L948.335 825.568 Z" fill="#e26f46" fill-rule="evenodd" fill-opacity="1" stroke="#000000" stroke-opacity="1" stroke-width="3.2"/>
<path clip-path="url(#clip042)" d="M598.069 776.072 L598.069 808.072 L630.069 808.072 L630.069 776.072 L598.069 776.072 Z" fill="#e26f46" fill-rule="evenodd" fill-opacity="1" stroke="#000000" stroke-opacity="1" stroke-width="3.2"/>
<path clip-path="url(#clip042)" d="M506.81 865.307 L506.81 897.307 L538.81 897.307 L538.81 865.307 L506.81 865.307 Z" fill="#e26f46" fill-rule="evenodd" fill-opacity="1" stroke="#000000" stroke-opacity="1" stroke-width="3.2"/>
<path clip-path="url(#clip042)" d="M513.32 921.717 L513.32 953.717 L545.32 953.717 L545.32 921.717 L513.32 921.717 Z" fill="#e26f46" fill-rule="evenodd" fill-opacity="1" stroke="#000000" stroke-opacity="1" stroke-width="3.2"/>
<path clip-path="url(#clip042)" d="M671.673 977.21 L671.673 1009.21 L703.673 1009.21 L703.673 977.21 L671.673 977.21 Z" fill="#e26f46" fill-rule="evenodd" fill-opacity="1" stroke="#000000" stroke-opacity="1" stroke-width="3.2"/>
<path clip-path="url(#clip042)" d="M523.487 887.18 L523.487 919.18 L555.487 919.18 L555.487 887.18 L523.487 887.18 Z" fill="#e26f46" fill-rule="evenodd" fill-opacity="1" stroke="#000000" stroke-opacity="1" stroke-width="3.2"/>
<path clip-path="url(#clip042)" d="M777.701 850.215 L777.701 882.215 L809.701 882.215 L809.701 850.215 L777.701 850.215 Z" fill="#e26f46" fill-rule="evenodd" fill-opacity="1" stroke="#000000" stroke-opacity="1" stroke-width="3.2"/>
<path clip-path="url(#clip042)" d="M507.924 889.147 L507.924 921.147 L539.924 921.147 L539.924 889.147 L507.924 889.147 Z" fill="#e26f46" fill-rule="evenodd" fill-opacity="1" stroke="#000000" stroke-opacity="1" stroke-width="3.2"/>
<path clip-path="url(#clip042)" d="M532.431 642.003 L532.431 674.003 L564.431 674.003 L564.431 642.003 L532.431 642.003 Z" fill="#e26f46" fill-rule="evenodd" fill-opacity="1" stroke="#000000" stroke-opacity="1" stroke-width="3.2"/>
<path clip-path="url(#clip042)" d="M900.253 1267.5 L900.253 1299.5 L932.253 1299.5 L932.253 1267.5 L900.253 1267.5 Z" fill="#e26f46" fill-rule="evenodd" fill-opacity="1" stroke="#000000" stroke-opacity="1" stroke-width="3.2"/>
<path clip-path="url(#clip042)" d="M825.182 1096.8 L825.182 1128.8 L857.182 1128.8 L857.182 1096.8 L825.182 1096.8 Z" fill="#e26f46" fill-rule="evenodd" fill-opacity="1" stroke="#000000" stroke-opacity="1" stroke-width="3.2"/>
<path clip-path="url(#clip042)" d="M789.339 1127.6 L789.339 1159.6 L821.339 1159.6 L821.339 1127.6 L789.339 1127.6 Z" fill="#e26f46" fill-rule="evenodd" fill-opacity="1" stroke="#000000" stroke-opacity="1" stroke-width="3.2"/>
<path clip-path="url(#clip042)" d="M670.719 1001.76 L670.719 1033.76 L702.719 1033.76 L702.719 1001.76 L670.719 1001.76 Z" fill="#e26f46" fill-rule="evenodd" fill-opacity="1" stroke="#000000" stroke-opacity="1" stroke-width="3.2"/>
<path clip-path="url(#clip042)" d="M582.357 839.546 L582.357 871.546 L614.357 871.546 L614.357 839.546 L582.357 839.546 Z" fill="#e26f46" fill-rule="evenodd" fill-opacity="1" stroke="#000000" stroke-opacity="1" stroke-width="3.2"/>
<path clip-path="url(#clip042)" d="M901.381 926.579 L901.381 958.579 L933.381 958.579 L933.381 926.579 L901.381 926.579 Z" fill="#e26f46" fill-rule="evenodd" fill-opacity="1" stroke="#000000" stroke-opacity="1" stroke-width="3.2"/>
<path clip-path="url(#clip042)" d="M771.863 1110.23 L771.863 1142.23 L803.863 1142.23 L803.863 1110.23 L771.863 1110.23 Z" fill="#e26f46" fill-rule="evenodd" fill-opacity="1" stroke="#000000" stroke-opacity="1" stroke-width="3.2"/>
<path clip-path="url(#clip042)" d="M525.19 852.806 L525.19 884.806 L557.19 884.806 L557.19 852.806 L525.19 852.806 Z" fill="#e26f46" fill-rule="evenodd" fill-opacity="1" stroke="#000000" stroke-opacity="1" stroke-width="3.2"/>
<path clip-path="url(#clip042)" d="M850.469 1192.1 L850.469 1224.1 L882.469 1224.1 L882.469 1192.1 L850.469 1192.1 Z" fill="#e26f46" fill-rule="evenodd" fill-opacity="1" stroke="#000000" stroke-opacity="1" stroke-width="3.2"/>
<path clip-path="url(#clip042)" d="M498.085 702.545 L498.085 734.545 L530.085 734.545 L530.085 702.545 L498.085 702.545 Z" fill="#e26f46" fill-rule="evenodd" fill-opacity="1" stroke="#000000" stroke-opacity="1" stroke-width="3.2"/>
<path clip-path="url(#clip042)" d="M840.119 907.368 L840.119 939.368 L872.119 939.368 L872.119 907.368 L840.119 907.368 Z" fill="#e26f46" fill-rule="evenodd" fill-opacity="1" stroke="#000000" stroke-opacity="1" stroke-width="3.2"/>
<path clip-path="url(#clip042)" d="M1009.32 1298.87 L1009.32 1330.87 L1041.32 1330.87 L1041.32 1298.87 L1009.32 1298.87 Z" fill="#e26f46" fill-rule="evenodd" fill-opacity="1" stroke="#000000" stroke-opacity="1" stroke-width="3.2"/>
<path clip-path="url(#clip042)" d="M823.572 861.551 L823.572 893.551 L855.572 893.551 L855.572 861.551 L823.572 861.551 Z" fill="#e26f46" fill-rule="evenodd" fill-opacity="1" stroke="#000000" stroke-opacity="1" stroke-width="3.2"/>
<path clip-path="url(#clip042)" d="M865.129 978.992 L865.129 1010.99 L897.129 1010.99 L897.129 978.992 L865.129 978.992 Z" fill="#e26f46" fill-rule="evenodd" fill-opacity="1" stroke="#000000" stroke-opacity="1" stroke-width="3.2"/>
<path clip-path="url(#clip042)" d="M720.402 970.742 L720.402 1002.74 L752.402 1002.74 L752.402 970.742 L720.402 970.742 Z" fill="#e26f46" fill-rule="evenodd" fill-opacity="1" stroke="#000000" stroke-opacity="1" stroke-width="3.2"/>
<path clip-path="url(#clip042)" d="M531.124 858.505 L531.124 890.505 L563.124 890.505 L563.124 858.505 L531.124 858.505 Z" fill="#e26f46" fill-rule="evenodd" fill-opacity="1" stroke="#000000" stroke-opacity="1" stroke-width="3.2"/>
<path clip-path="url(#clip042)" d="M769.528 881.215 L769.528 913.215 L801.528 913.215 L801.528 881.215 L769.528 881.215 Z" fill="#e26f46" fill-rule="evenodd" fill-opacity="1" stroke="#000000" stroke-opacity="1" stroke-width="3.2"/>
<path clip-path="url(#clip042)" d="M795.411 1226.97 L795.411 1258.97 L827.411 1258.97 L827.411 1226.97 L795.411 1226.97 Z" fill="#e26f46" fill-rule="evenodd" fill-opacity="1" stroke="#000000" stroke-opacity="1" stroke-width="3.2"/>
<path clip-path="url(#clip042)" d="M521.927 839.787 L521.927 871.787 L553.927 871.787 L553.927 839.787 L521.927 839.787 Z" fill="#e26f46" fill-rule="evenodd" fill-opacity="1" stroke="#000000" stroke-opacity="1" stroke-width="3.2"/>
<path clip-path="url(#clip042)" d="M566.09 832.285 L566.09 864.285 L598.09 864.285 L598.09 832.285 L566.09 832.285 Z" fill="#e26f46" fill-rule="evenodd" fill-opacity="1" stroke="#000000" stroke-opacity="1" stroke-width="3.2"/>
<path clip-path="url(#clip042)" d="M772.857 1186.85 L772.857 1218.85 L804.857 1218.85 L804.857 1186.85 L772.857 1186.85 Z" fill="#e26f46" fill-rule="evenodd" fill-opacity="1" stroke="#000000" stroke-opacity="1" stroke-width="3.2"/>
<path clip-path="url(#clip042)" d="M1040.93 1311.2 L1040.93 1343.2 L1072.93 1343.2 L1072.93 1311.2 L1040.93 1311.2 Z" fill="#e26f46" fill-rule="evenodd" fill-opacity="1" stroke="#000000" stroke-opacity="1" stroke-width="3.2"/>
<path clip-path="url(#clip042)" d="M849.984 1178.31 L849.984 1210.31 L881.984 1210.31 L881.984 1178.31 L849.984 1178.31 Z" fill="#e26f46" fill-rule="evenodd" fill-opacity="1" stroke="#000000" stroke-opacity="1" stroke-width="3.2"/>
<path clip-path="url(#clip042)" d="M893.008 878.491 L893.008 910.491 L925.008 910.491 L925.008 878.491 L893.008 878.491 Z" fill="#e26f46" fill-rule="evenodd" fill-opacity="1" stroke="#000000" stroke-opacity="1" stroke-width="3.2"/>
<path clip-path="url(#clip042)" d="M826.705 1147.33 L826.705 1179.33 L858.705 1179.33 L858.705 1147.33 L826.705 1147.33 Z" fill="#e26f46" fill-rule="evenodd" fill-opacity="1" stroke="#000000" stroke-opacity="1" stroke-width="3.2"/>
<path clip-path="url(#clip042)" d="M520.654 973.79 L520.654 1005.79 L552.654 1005.79 L552.654 973.79 L520.654 973.79 Z" fill="#e26f46" fill-rule="evenodd" fill-opacity="1" stroke="#000000" stroke-opacity="1" stroke-width="3.2"/>
<path clip-path="url(#clip042)" d="M1103.66 1324.57 L1103.66 1356.57 L1135.66 1356.57 L1135.66 1324.57 L1103.66 1324.57 Z" fill="#e26f46" fill-rule="evenodd" fill-opacity="1" stroke="#000000" stroke-opacity="1" stroke-width="3.2"/>
<path clip-path="url(#clip042)" d="M521.391 679.405 L521.391 711.405 L553.391 711.405 L553.391 679.405 L521.391 679.405 Z" fill="#e26f46" fill-rule="evenodd" fill-opacity="1" stroke="#000000" stroke-opacity="1" stroke-width="3.2"/>
<path clip-path="url(#clip042)" d="M778.469 970.581 L778.469 1002.58 L810.469 1002.58 L810.469 970.581 L778.469 970.581 Z" fill="#e26f46" fill-rule="evenodd" fill-opacity="1" stroke="#000000" stroke-opacity="1" stroke-width="3.2"/>
<path clip-path="url(#clip042)" d="M735.426 984.282 L735.426 1016.28 L767.426 1016.28 L767.426 984.282 L735.426 984.282 Z" fill="#e26f46" fill-rule="evenodd" fill-opacity="1" stroke="#000000" stroke-opacity="1" stroke-width="3.2"/>
<path clip-path="url(#clip042)" d="M725.135 877.528 L725.135 909.528 L757.135 909.528 L757.135 877.528 L725.135 877.528 Z" fill="#e26f46" fill-rule="evenodd" fill-opacity="1" stroke="#000000" stroke-opacity="1" stroke-width="3.2"/>
<path clip-path="url(#clip042)" d="M539.526 829.395 L539.526 861.395 L571.526 861.395 L571.526 829.395 L539.526 829.395 Z" fill="#e26f46" fill-rule="evenodd" fill-opacity="1" stroke="#000000" stroke-opacity="1" stroke-width="3.2"/>
<path clip-path="url(#clip042)" d="M1016.77 1291.66 L1016.77 1323.66 L1048.77 1323.66 L1048.77 1291.66 L1016.77 1291.66 Z" fill="#e26f46" fill-rule="evenodd" fill-opacity="1" stroke="#000000" stroke-opacity="1" stroke-width="3.2"/>
<path clip-path="url(#clip042)" d="M802.811 1233.4 L802.811 1265.4 L834.811 1265.4 L834.811 1233.4 L802.811 1233.4 Z" fill="#e26f46" fill-rule="evenodd" fill-opacity="1" stroke="#000000" stroke-opacity="1" stroke-width="3.2"/>
<path clip-path="url(#clip042)" d="M645.516 888.977 L645.516 920.977 L677.516 920.977 L677.516 888.977 L645.516 888.977 Z" fill="#e26f46" fill-rule="evenodd" fill-opacity="1" stroke="#000000" stroke-opacity="1" stroke-width="3.2"/>
<path clip-path="url(#clip042)" d="M850.029 1241.82 L850.029 1273.82 L882.029 1273.82 L882.029 1241.82 L850.029 1241.82 Z" fill="#e26f46" fill-rule="evenodd" fill-opacity="1" stroke="#000000" stroke-opacity="1" stroke-width="3.2"/>
<path clip-path="url(#clip042)" d="M754.106 1178.13 L754.106 1210.13 L786.106 1210.13 L786.106 1178.13 L754.106 1178.13 Z" fill="#e26f46" fill-rule="evenodd" fill-opacity="1" stroke="#000000" stroke-opacity="1" stroke-width="3.2"/>
<path clip-path="url(#clip042)" d="M744.285 1031.3 L744.285 1063.3 L776.285 1063.3 L776.285 1031.3 L744.285 1031.3 Z" fill="#e26f46" fill-rule="evenodd" fill-opacity="1" stroke="#000000" stroke-opacity="1" stroke-width="3.2"/>
<path clip-path="url(#clip042)" d="M896.18 911.41 L896.18 943.41 L928.18 943.41 L928.18 911.41 L896.18 911.41 Z" fill="#e26f46" fill-rule="evenodd" fill-opacity="1" stroke="#000000" stroke-opacity="1" stroke-width="3.2"/>
<path clip-path="url(#clip042)" d="M499.148 691.775 L499.148 723.775 L531.148 723.775 L531.148 691.775 L499.148 691.775 Z" fill="#e26f46" fill-rule="evenodd" fill-opacity="1" stroke="#000000" stroke-opacity="1" stroke-width="3.2"/>
<path clip-path="url(#clip042)" d="M649.443 1110.26 L649.443 1142.26 L681.443 1142.26 L681.443 1110.26 L649.443 1110.26 Z" fill="#e26f46" fill-rule="evenodd" fill-opacity="1" stroke="#000000" stroke-opacity="1" stroke-width="3.2"/>
<path clip-path="url(#clip042)" d="M496.767 578.069 L496.767 610.069 L528.767 610.069 L528.767 578.069 L496.767 578.069 Z" fill="#e26f46" fill-rule="evenodd" fill-opacity="1" stroke="#000000" stroke-opacity="1" stroke-width="3.2"/>
<path clip-path="url(#clip042)" d="M514.889 942.765 L514.889 974.765 L546.889 974.765 L546.889 942.765 L514.889 942.765 Z" fill="#e26f46" fill-rule="evenodd" fill-opacity="1" stroke="#000000" stroke-opacity="1" stroke-width="3.2"/>
<path clip-path="url(#clip042)" d="M538.572 996.367 L538.572 1028.37 L570.572 1028.37 L570.572 996.367 L538.572 996.367 Z" fill="#e26f46" fill-rule="evenodd" fill-opacity="1" stroke="#000000" stroke-opacity="1" stroke-width="3.2"/>
<path clip-path="url(#clip042)" d="M520.356 953.291 L520.356 985.291 L552.356 985.291 L552.356 953.291 L520.356 953.291 Z" fill="#e26f46" fill-rule="evenodd" fill-opacity="1" stroke="#000000" stroke-opacity="1" stroke-width="3.2"/>
<path clip-path="url(#clip042)" d="M531.618 889.996 L531.618 921.996 L563.618 921.996 L563.618 889.996 L531.618 889.996 Z" fill="#e26f46" fill-rule="evenodd" fill-opacity="1" stroke="#000000" stroke-opacity="1" stroke-width="3.2"/>
<path clip-path="url(#clip042)" d="M518.659 972.035 L518.659 1004.03 L550.659 1004.03 L550.659 972.035 L518.659 972.035 Z" fill="#e26f46" fill-rule="evenodd" fill-opacity="1" stroke="#000000" stroke-opacity="1" stroke-width="3.2"/>
<path clip-path="url(#clip042)" d="M583.324 879.775 L583.324 911.775 L615.324 911.775 L615.324 879.775 L583.324 879.775 Z" fill="#e26f46" fill-rule="evenodd" fill-opacity="1" stroke="#000000" stroke-opacity="1" stroke-width="3.2"/>
<path clip-path="url(#clip042)" d="M989.082 1294.49 L989.082 1326.49 L1021.08 1326.49 L1021.08 1294.49 L989.082 1294.49 Z" fill="#e26f46" fill-rule="evenodd" fill-opacity="1" stroke="#000000" stroke-opacity="1" stroke-width="3.2"/>
<path clip-path="url(#clip042)" d="M836.396 947.871 L836.396 979.871 L868.396 979.871 L868.396 947.871 L836.396 947.871 Z" fill="#e26f46" fill-rule="evenodd" fill-opacity="1" stroke="#000000" stroke-opacity="1" stroke-width="3.2"/>
<path clip-path="url(#clip042)" d="M851.17 1247.15 L851.17 1279.15 L883.17 1279.15 L883.17 1247.15 L851.17 1247.15 Z" fill="#e26f46" fill-rule="evenodd" fill-opacity="1" stroke="#000000" stroke-opacity="1" stroke-width="3.2"/>
<path clip-path="url(#clip042)" d="M872.098 1197.78 L872.098 1229.78 L904.098 1229.78 L904.098 1197.78 L872.098 1197.78 Z" fill="#e26f46" fill-rule="evenodd" fill-opacity="1" stroke="#000000" stroke-opacity="1" stroke-width="3.2"/>
<path clip-path="url(#clip042)" d="M836.658 874.938 L836.658 906.938 L868.658 906.938 L868.658 874.938 L836.658 874.938 Z" fill="#e26f46" fill-rule="evenodd" fill-opacity="1" stroke="#000000" stroke-opacity="1" stroke-width="3.2"/>
<path clip-path="url(#clip042)" d="M816.888 1186.95 L816.888 1218.95 L848.888 1218.95 L848.888 1186.95 L816.888 1186.95 Z" fill="#e26f46" fill-rule="evenodd" fill-opacity="1" stroke="#000000" stroke-opacity="1" stroke-width="3.2"/>
<path clip-path="url(#clip042)" d="M983.975 1292.29 L983.975 1324.29 L1015.98 1324.29 L1015.98 1292.29 L983.975 1292.29 Z" fill="#e26f46" fill-rule="evenodd" fill-opacity="1" stroke="#000000" stroke-opacity="1" stroke-width="3.2"/>
<path clip-path="url(#clip042)" d="M896.887 820.264 L896.887 852.264 L928.887 852.264 L928.887 820.264 L896.887 820.264 Z" fill="#e26f46" fill-rule="evenodd" fill-opacity="1" stroke="#000000" stroke-opacity="1" stroke-width="3.2"/>
<path clip-path="url(#clip042)" d="M640.74 865.132 L640.74 897.132 L672.74 897.132 L672.74 865.132 L640.74 865.132 Z" fill="#e26f46" fill-rule="evenodd" fill-opacity="1" stroke="#000000" stroke-opacity="1" stroke-width="3.2"/>
<path clip-path="url(#clip042)" d="M933.214 1267.09 L933.214 1299.09 L965.214 1299.09 L965.214 1267.09 L933.214 1267.09 Z" fill="#e26f46" fill-rule="evenodd" fill-opacity="1" stroke="#000000" stroke-opacity="1" stroke-width="3.2"/>
<path clip-path="url(#clip042)" d="M517.985 622.635 L517.985 654.635 L549.985 654.635 L549.985 622.635 L517.985 622.635 Z" fill="#e26f46" fill-rule="evenodd" fill-opacity="1" stroke="#000000" stroke-opacity="1" stroke-width="3.2"/>
<path clip-path="url(#clip042)" d="M507.156 711.635 L507.156 743.635 L539.156 743.635 L539.156 711.635 L507.156 711.635 Z" fill="#e26f46" fill-rule="evenodd" fill-opacity="1" stroke="#000000" stroke-opacity="1" stroke-width="3.2"/>
<path clip-path="url(#clip042)" d="M538.918 904.6 L538.918 936.6 L570.918 936.6 L570.918 904.6 L538.918 904.6 Z" fill="#e26f46" fill-rule="evenodd" fill-opacity="1" stroke="#000000" stroke-opacity="1" stroke-width="3.2"/>
<path clip-path="url(#clip042)" d="M499.286 817.104 L499.286 849.104 L531.286 849.104 L531.286 817.104 L499.286 817.104 Z" fill="#e26f46" fill-rule="evenodd" fill-opacity="1" stroke="#000000" stroke-opacity="1" stroke-width="3.2"/>
<path clip-path="url(#clip042)" d="M695.169 902.646 L695.169 934.646 L727.169 934.646 L727.169 902.646 L695.169 902.646 Z" fill="#e26f46" fill-rule="evenodd" fill-opacity="1" stroke="#000000" stroke-opacity="1" stroke-width="3.2"/>
<path clip-path="url(#clip042)" d="M753.931 991.955 L753.931 1023.96 L785.931 1023.96 L785.931 991.955 L753.931 991.955 Z" fill="#e26f46" fill-rule="evenodd" fill-opacity="1" stroke="#000000" stroke-opacity="1" stroke-width="3.2"/>
<path clip-path="url(#clip042)" d="M1063.03 1311.53 L1063.03 1343.53 L1095.03 1343.53 L1095.03 1311.53 L1063.03 1311.53 Z" fill="#e26f46" fill-rule="evenodd" fill-opacity="1" stroke="#000000" stroke-opacity="1" stroke-width="3.2"/>
<path clip-path="url(#clip042)" d="M786.081 860.259 L786.081 892.259 L818.081 892.259 L818.081 860.259 L786.081 860.259 Z" fill="#e26f46" fill-rule="evenodd" fill-opacity="1" stroke="#000000" stroke-opacity="1" stroke-width="3.2"/>
<path clip-path="url(#clip042)" d="M1050.19 1298.51 L1050.19 1330.51 L1082.19 1330.51 L1082.19 1298.51 L1050.19 1298.51 Z" fill="#e26f46" fill-rule="evenodd" fill-opacity="1" stroke="#000000" stroke-opacity="1" stroke-width="3.2"/>
<path clip-path="url(#clip042)" d="M1160.4 1346.15 L1160.4 1378.15 L1192.4 1378.15 L1192.4 1346.15 L1160.4 1346.15 Z" fill="#e26f46" fill-rule="evenodd" fill-opacity="1" stroke="#000000" stroke-opacity="1" stroke-width="3.2"/>
<path clip-path="url(#clip042)" d="M752.627 1116.39 L752.627 1148.39 L784.627 1148.39 L784.627 1116.39 L752.627 1116.39 Z" fill="#e26f46" fill-rule="evenodd" fill-opacity="1" stroke="#000000" stroke-opacity="1" stroke-width="3.2"/>
<path clip-path="url(#clip042)" d="M889.898 1245.56 L889.898 1277.56 L921.898 1277.56 L921.898 1245.56 L889.898 1245.56 Z" fill="#e26f46" fill-rule="evenodd" fill-opacity="1" stroke="#000000" stroke-opacity="1" stroke-width="3.2"/>
<path clip-path="url(#clip042)" d="M723.888 959.577 L723.888 991.577 L755.888 991.577 L755.888 959.577 L723.888 959.577 Z" fill="#e26f46" fill-rule="evenodd" fill-opacity="1" stroke="#000000" stroke-opacity="1" stroke-width="3.2"/>
<path clip-path="url(#clip042)" d="M723.495 966.653 L723.495 998.653 L755.495 998.653 L755.495 966.653 L723.495 966.653 Z" fill="#e26f46" fill-rule="evenodd" fill-opacity="1" stroke="#000000" stroke-opacity="1" stroke-width="3.2"/>
<path clip-path="url(#clip042)" d="M517.82 770.556 L517.82 802.556 L549.82 802.556 L549.82 770.556 L517.82 770.556 Z" fill="#e26f46" fill-rule="evenodd" fill-opacity="1" stroke="#000000" stroke-opacity="1" stroke-width="3.2"/>
<path clip-path="url(#clip042)" d="M681.002 852.468 L681.002 884.468 L713.002 884.468 L713.002 852.468 L681.002 852.468 Z" fill="#e26f46" fill-rule="evenodd" fill-opacity="1" stroke="#000000" stroke-opacity="1" stroke-width="3.2"/>
<path clip-path="url(#clip042)" d="M841.519 967.266 L841.519 999.266 L873.519 999.266 L873.519 967.266 L841.519 967.266 Z" fill="#e26f46" fill-rule="evenodd" fill-opacity="1" stroke="#000000" stroke-opacity="1" stroke-width="3.2"/>
<path clip-path="url(#clip042)" d="M826.039 931.8 L826.039 963.8 L858.039 963.8 L858.039 931.8 L826.039 931.8 Z" fill="#e26f46" fill-rule="evenodd" fill-opacity="1" stroke="#000000" stroke-opacity="1" stroke-width="3.2"/>
<path clip-path="url(#clip042)" d="M852.579 944.376 L852.579 976.376 L884.579 976.376 L884.579 944.376 L852.579 944.376 Z" fill="#e26f46" fill-rule="evenodd" fill-opacity="1" stroke="#000000" stroke-opacity="1" stroke-width="3.2"/>
<path clip-path="url(#clip042)" d="M725.755 1166.6 L725.755 1198.6 L757.755 1198.6 L757.755 1166.6 L725.755 1166.6 Z" fill="#e26f46" fill-rule="evenodd" fill-opacity="1" stroke="#000000" stroke-opacity="1" stroke-width="3.2"/>
<path clip-path="url(#clip042)" d="M499.58 680.556 L499.58 712.556 L531.58 712.556 L531.58 680.556 L499.58 680.556 Z" fill="#e26f46" fill-rule="evenodd" fill-opacity="1" stroke="#000000" stroke-opacity="1" stroke-width="3.2"/>
<path clip-path="url(#clip042)" d="M799.432 1223.21 L799.432 1255.21 L831.432 1255.21 L831.432 1223.21 L799.432 1223.21 Z" fill="#e26f46" fill-rule="evenodd" fill-opacity="1" stroke="#000000" stroke-opacity="1" stroke-width="3.2"/>
<path clip-path="url(#clip042)" d="M522.949 898.784 L522.949 930.784 L554.949 930.784 L554.949 898.784 L522.949 898.784 Z" fill="#e26f46" fill-rule="evenodd" fill-opacity="1" stroke="#000000" stroke-opacity="1" stroke-width="3.2"/>
<path clip-path="url(#clip042)" d="M1141.12 1341.12 L1141.12 1373.12 L1173.12 1373.12 L1173.12 1341.12 L1141.12 1341.12 Z" fill="#e26f46" fill-rule="evenodd" fill-opacity="1" stroke="#000000" stroke-opacity="1" stroke-width="3.2"/>
<path clip-path="url(#clip042)" d="M509.35 808.502 L509.35 840.502 L541.35 840.502 L541.35 808.502 L509.35 808.502 Z" fill="#e26f46" fill-rule="evenodd" fill-opacity="1" stroke="#000000" stroke-opacity="1" stroke-width="3.2"/>
<path clip-path="url(#clip042)" d="M948.174 816.049 L948.174 848.049 L980.174 848.049 L980.174 816.049 L948.174 816.049 Z" fill="#e26f46" fill-rule="evenodd" fill-opacity="1" stroke="#000000" stroke-opacity="1" stroke-width="3.2"/>
<path clip-path="url(#clip042)" d="M521.388 933.205 L521.388 965.205 L553.388 965.205 L553.388 933.205 L521.388 933.205 Z" fill="#e26f46" fill-rule="evenodd" fill-opacity="1" stroke="#000000" stroke-opacity="1" stroke-width="3.2"/>
<path clip-path="url(#clip042)" d="M747.363 1029.36 L747.363 1061.36 L779.363 1061.36 L779.363 1029.36 L747.363 1029.36 Z" fill="#e26f46" fill-rule="evenodd" fill-opacity="1" stroke="#000000" stroke-opacity="1" stroke-width="3.2"/>
<path clip-path="url(#clip042)" d="M746.746 1102.69 L746.746 1134.69 L778.746 1134.69 L778.746 1102.69 L746.746 1102.69 Z" fill="#e26f46" fill-rule="evenodd" fill-opacity="1" stroke="#000000" stroke-opacity="1" stroke-width="3.2"/>
<path clip-path="url(#clip042)" d="M825.4 945.549 L825.4 977.549 L857.4 977.549 L857.4 945.549 L825.4 945.549 Z" fill="#e26f46" fill-rule="evenodd" fill-opacity="1" stroke="#000000" stroke-opacity="1" stroke-width="3.2"/>
<path clip-path="url(#clip042)" d="M502.241 699.865 L502.241 731.865 L534.241 731.865 L534.241 699.865 L502.241 699.865 Z" fill="#e26f46" fill-rule="evenodd" fill-opacity="1" stroke="#000000" stroke-opacity="1" stroke-width="3.2"/>
<path clip-path="url(#clip042)" d="M1001.1 1292.08 L1001.1 1324.08 L1033.1 1324.08 L1033.1 1292.08 L1001.1 1292.08 Z" fill="#e26f46" fill-rule="evenodd" fill-opacity="1" stroke="#000000" stroke-opacity="1" stroke-width="3.2"/>
<path clip-path="url(#clip042)" d="M812.238 897.271 L812.238 929.271 L844.238 929.271 L844.238 897.271 L812.238 897.271 Z" fill="#e26f46" fill-rule="evenodd" fill-opacity="1" stroke="#000000" stroke-opacity="1" stroke-width="3.2"/>
<path clip-path="url(#clip042)" d="M530.773 884.875 L530.773 916.875 L562.773 916.875 L562.773 884.875 L530.773 884.875 Z" fill="#e26f46" fill-rule="evenodd" fill-opacity="1" stroke="#000000" stroke-opacity="1" stroke-width="3.2"/>
<path clip-path="url(#clip040)" d="M2069.72 250.162 L2352.76 250.162 L2352.76 94.6416 L2069.72 94.6416  Z" fill="#ffffff" fill-rule="evenodd" fill-opacity="1"/>
<polyline clip-path="url(#clip040)" style="stroke:#000000; stroke-linecap:round; stroke-linejoin:round; stroke-width:4; stroke-opacity:1; fill:none" points="2069.72,250.162 2352.76,250.162 2352.76,94.6416 2069.72,94.6416 2069.72,250.162 "/>
<circle clip-path="url(#clip040)" cx="2167.6" cy="146.482" r="20.48" fill="#009af9" fill-rule="evenodd" fill-opacity="1" stroke="#000000" stroke-opacity="1" stroke-width="4.55111"/>
<path clip-path="url(#clip040)" d="M2265.48 146.717 Q2265.48 140.588 2266.73 136.863 Q2268.01 133.115 2270.48 131.088 Q2272.98 129.06 2276.75 129.06 Q2279.53 129.06 2281.63 130.192 Q2283.73 131.3 2285.1 133.421 Q2286.46 135.519 2287.24 138.561 Q2288.02 141.578 2288.02 146.717 Q2288.02 152.799 2286.77 156.548 Q2285.52 160.273 2283.02 162.324 Q2280.55 164.351 2276.75 164.351 Q2271.75 164.351 2268.9 160.768 Q2265.48 156.454 2265.48 146.717 M2269.84 146.717 Q2269.84 155.228 2271.82 158.057 Q2273.83 160.862 2276.75 160.862 Q2279.67 160.862 2281.66 158.033 Q2283.66 155.204 2283.66 146.717 Q2283.66 138.183 2281.66 135.378 Q2279.67 132.573 2276.7 132.573 Q2273.78 132.573 2272.04 135.048 Q2269.84 138.207 2269.84 146.717 Z" fill="#000000" fill-rule="nonzero" fill-opacity="1" /><path clip-path="url(#clip040)" d="M2294.72 163.762 L2294.72 158.929 L2299.55 158.929 L2299.55 163.762 L2294.72 163.762 Z" fill="#000000" fill-rule="nonzero" fill-opacity="1" /><path clip-path="url(#clip040)" d="M2305.75 146.717 Q2305.75 140.588 2307 136.863 Q2308.27 133.115 2310.75 131.088 Q2313.24 129.06 2317.02 129.06 Q2319.8 129.06 2321.9 130.192 Q2323.99 131.3 2325.36 133.421 Q2326.73 135.519 2327.51 138.561 Q2328.29 141.578 2328.29 146.717 Q2328.29 152.799 2327.04 156.548 Q2325.79 160.273 2323.29 162.324 Q2320.81 164.351 2317.02 164.351 Q2312.02 164.351 2309.17 160.768 Q2305.75 156.454 2305.75 146.717 M2310.11 146.717 Q2310.11 155.228 2312.09 158.057 Q2314.09 160.862 2317.02 160.862 Q2319.94 160.862 2321.92 158.033 Q2323.92 155.204 2323.92 146.717 Q2323.92 138.183 2321.92 135.378 Q2319.94 132.573 2316.97 132.573 Q2314.05 132.573 2312.3 135.048 Q2310.11 138.207 2310.11 146.717 Z" fill="#000000" fill-rule="nonzero" fill-opacity="1" /><path clip-path="url(#clip040)" d="M2144.84 175.566 L2144.84 221.077 L2190.36 221.077 L2190.36 175.566 L2144.84 175.566 Z" fill="#e26f46" fill-rule="evenodd" fill-opacity="1" stroke="#000000" stroke-opacity="1" stroke-width="4.55111"/>
<path clip-path="url(#clip040)" d="M2278.21 215.602 L2273.97 215.602 L2273.97 188.562 Q2272.44 190.023 2269.94 191.485 Q2267.46 192.947 2265.48 193.677 L2265.48 189.575 Q2269.04 187.902 2271.71 185.521 Q2274.37 183.14 2275.48 180.9 L2278.21 180.9 L2278.21 215.602 Z" fill="#000000" fill-rule="nonzero" fill-opacity="1" /><path clip-path="url(#clip040)" d="M2291.46 215.602 L2291.46 210.769 L2296.29 210.769 L2296.29 215.602 L2291.46 215.602 Z" fill="#000000" fill-rule="nonzero" fill-opacity="1" /><path clip-path="url(#clip040)" d="M2302.49 198.557 Q2302.49 192.428 2303.74 188.703 Q2305.02 184.955 2307.49 182.928 Q2309.99 180.9 2313.76 180.9 Q2316.55 180.9 2318.64 182.032 Q2320.74 183.14 2322.11 185.261 Q2323.48 187.359 2324.25 190.401 Q2325.03 193.418 2325.03 198.557 Q2325.03 204.639 2323.78 208.388 Q2322.53 212.113 2320.03 214.164 Q2317.56 216.191 2313.76 216.191 Q2308.77 216.191 2305.91 212.608 Q2302.49 208.294 2302.49 198.557 M2306.86 198.557 Q2306.86 207.068 2308.84 209.897 Q2310.84 212.702 2313.76 212.702 Q2316.69 212.702 2318.67 209.873 Q2320.67 207.044 2320.67 198.557 Q2320.67 190.023 2318.67 187.218 Q2316.69 184.413 2313.72 184.413 Q2310.79 184.413 2309.05 186.888 Q2306.86 190.047 2306.86 198.557 Z" fill="#000000" fill-rule="nonzero" fill-opacity="1" /></svg>
