<?xml version="1.0" encoding="utf-8"?>
<svg xmlns="http://www.w3.org/2000/svg" xmlns:xlink="http://www.w3.org/1999/xlink" width="600" height="400" viewBox="0 0 2400 1600">
<defs>
  <clipPath id="clip310">
    <rect x="0" y="0" width="2400" height="1600"/>
  </clipPath>
</defs>
<path clip-path="url(#clip310)" d="M0 1600 L2400 1600 L2400 8.88178e-14 L0 8.88178e-14  Z" fill="#ffffff" fill-rule="evenodd" fill-opacity="1"/>
<defs>
  <clipPath id="clip311">
    <rect x="480" y="0" width="1681" height="1600"/>
  </clipPath>
</defs>
<path clip-path="url(#clip310)" d="M383.069 1349.74 L2352.76 1349.74 L2352.76 47.2441 L383.069 47.2441  Z" fill="#ffffff" fill-rule="evenodd" fill-opacity="1"/>
<defs>
  <clipPath id="clip312">
    <rect x="383" y="47" width="1971" height="1303"/>
  </clipPath>
</defs>
<polyline clip-path="url(#clip310)" style="stroke:#000000; stroke-linecap:round; stroke-linejoin:round; stroke-width:4; stroke-opacity:1; fill:none" points="383.069,1349.74 2352.76,1349.74 "/>
<polyline clip-path="url(#clip310)" style="stroke:#000000; stroke-linecap:round; stroke-linejoin:round; stroke-width:2; stroke-opacity:0.5; fill:none" points="383.069,47.2441 2352.76,47.2441 "/>
<polyline clip-path="url(#clip310)" style="stroke:#000000; stroke-linecap:round; stroke-linejoin:round; stroke-width:4; stroke-opacity:1; fill:none" points="568.252,1349.74 568.252,1330.84 "/>
<polyline clip-path="url(#clip310)" style="stroke:#000000; stroke-linecap:round; stroke-linejoin:round; stroke-width:4; stroke-opacity:1; fill:none" points="823.784,1349.74 823.784,1330.84 "/>
<polyline clip-path="url(#clip310)" style="stroke:#000000; stroke-linecap:round; stroke-linejoin:round; stroke-width:4; stroke-opacity:1; fill:none" points="1079.32,1349.74 1079.32,1330.84 "/>
<polyline clip-path="url(#clip310)" style="stroke:#000000; stroke-linecap:round; stroke-linejoin:round; stroke-width:4; stroke-opacity:1; fill:none" points="1334.85,1349.74 1334.85,1330.84 "/>
<polyline clip-path="url(#clip310)" style="stroke:#000000; stroke-linecap:round; stroke-linejoin:round; stroke-width:4; stroke-opacity:1; fill:none" points="1590.38,1349.74 1590.38,1330.84 "/>
<polyline clip-path="url(#clip310)" style="stroke:#000000; stroke-linecap:round; stroke-linejoin:round; stroke-width:4; stroke-opacity:1; fill:none" points="1845.92,1349.74 1845.92,1330.84 "/>
<polyline clip-path="url(#clip310)" style="stroke:#000000; stroke-linecap:round; stroke-linejoin:round; stroke-width:4; stroke-opacity:1; fill:none" points="2101.45,1349.74 2101.45,1330.84 "/>
<path clip-path="url(#clip310)" d="M466.967 1427.79 Q466.967 1414 469.779 1405.62 Q472.643 1397.18 478.212 1392.62 Q483.835 1388.06 492.322 1388.06 Q498.581 1388.06 503.301 1390.61 Q508.022 1393.1 511.098 1397.87 Q514.175 1402.6 515.925 1409.44 Q517.676 1416.23 517.676 1427.79 Q517.676 1441.48 514.864 1449.91 Q512.053 1458.29 506.431 1462.9 Q500.861 1467.47 492.322 1467.47 Q481.077 1467.47 474.658 1459.4 Q466.967 1449.7 466.967 1427.79 M476.78 1427.79 Q476.78 1446.94 481.236 1453.3 Q485.744 1459.62 492.322 1459.62 Q498.899 1459.62 503.354 1453.25 Q507.863 1446.89 507.863 1427.79 Q507.863 1408.59 503.354 1402.28 Q498.899 1395.96 492.215 1395.96 Q485.638 1395.96 481.713 1401.53 Q476.78 1408.64 476.78 1427.79 Z" fill="#000000" fill-rule="nonzero" fill-opacity="1" /><path clip-path="url(#clip310)" d="M532.74 1466.14 L532.74 1455.27 L543.613 1455.27 L543.613 1466.14 L532.74 1466.14 Z" fill="#000000" fill-rule="nonzero" fill-opacity="1" /><path clip-path="url(#clip310)" d="M607.742 1456.96 L607.742 1466.14 L556.344 1466.14 Q556.237 1462.69 557.457 1459.51 Q559.42 1454.26 563.716 1449.17 Q568.066 1444.07 576.234 1437.39 Q588.912 1426.99 593.367 1420.95 Q597.823 1414.85 597.823 1409.44 Q597.823 1403.76 593.738 1399.89 Q589.707 1395.96 583.183 1395.96 Q576.287 1395.96 572.15 1400.1 Q568.013 1404.24 567.96 1411.56 L558.147 1410.55 Q559.155 1399.57 565.732 1393.84 Q572.309 1388.06 583.395 1388.06 Q594.587 1388.06 601.111 1394.27 Q607.635 1400.47 607.635 1409.65 Q607.635 1414.32 605.726 1418.83 Q603.816 1423.33 599.361 1428.32 Q594.958 1433.31 584.668 1442.01 Q576.075 1449.22 573.635 1451.82 Q571.195 1454.36 569.604 1456.96 L607.742 1456.96 Z" fill="#000000" fill-rule="nonzero" fill-opacity="1" /><path clip-path="url(#clip310)" d="M617.979 1445.77 L628.004 1444.92 Q629.118 1452.24 633.149 1455.96 Q637.233 1459.62 642.962 1459.62 Q649.857 1459.62 654.631 1454.42 Q659.405 1449.22 659.405 1440.63 Q659.405 1432.46 654.79 1427.74 Q650.228 1423.02 642.802 1423.02 Q638.188 1423.02 634.475 1425.14 Q630.762 1427.21 628.64 1430.55 L619.676 1429.38 L627.208 1389.44 L665.876 1389.44 L665.876 1398.56 L634.846 1398.56 L630.656 1419.46 Q637.657 1414.58 645.349 1414.58 Q655.533 1414.58 662.534 1421.64 Q669.536 1428.69 669.536 1439.78 Q669.536 1450.33 663.383 1458.02 Q655.904 1467.47 642.962 1467.47 Q632.353 1467.47 625.617 1461.53 Q618.933 1455.58 617.979 1445.77 Z" fill="#000000" fill-rule="nonzero" fill-opacity="1" /><path clip-path="url(#clip310)" d="M722.925 1427.79 Q722.925 1414 725.736 1405.62 Q728.6 1397.18 734.17 1392.62 Q739.792 1388.06 748.279 1388.06 Q754.538 1388.06 759.259 1390.61 Q763.979 1393.1 767.056 1397.87 Q770.132 1402.6 771.883 1409.44 Q773.633 1416.23 773.633 1427.79 Q773.633 1441.48 770.822 1449.91 Q768.011 1458.29 762.388 1462.9 Q756.819 1467.47 748.279 1467.47 Q737.034 1467.47 730.616 1459.4 Q722.925 1449.7 722.925 1427.79 M732.737 1427.79 Q732.737 1446.94 737.193 1453.3 Q741.702 1459.62 748.279 1459.62 Q754.856 1459.62 759.312 1453.25 Q763.82 1446.89 763.82 1427.79 Q763.82 1408.59 759.312 1402.28 Q754.856 1395.96 748.173 1395.96 Q741.595 1395.96 737.67 1401.53 Q732.737 1408.64 732.737 1427.79 Z" fill="#000000" fill-rule="nonzero" fill-opacity="1" /><path clip-path="url(#clip310)" d="M788.697 1466.14 L788.697 1455.27 L799.571 1455.27 L799.571 1466.14 L788.697 1466.14 Z" fill="#000000" fill-rule="nonzero" fill-opacity="1" /><path clip-path="url(#clip310)" d="M813.521 1445.77 L823.546 1444.92 Q824.66 1452.24 828.691 1455.96 Q832.775 1459.62 838.504 1459.62 Q845.399 1459.62 850.173 1454.42 Q854.947 1449.22 854.947 1440.63 Q854.947 1432.46 850.332 1427.74 Q845.771 1423.02 838.345 1423.02 Q833.73 1423.02 830.017 1425.14 Q826.304 1427.21 824.182 1430.55 L815.218 1429.38 L822.75 1389.44 L861.418 1389.44 L861.418 1398.56 L830.388 1398.56 L826.198 1419.46 Q833.199 1414.58 840.891 1414.58 Q851.075 1414.58 858.076 1421.64 Q865.078 1428.69 865.078 1439.78 Q865.078 1450.33 858.925 1458.02 Q851.446 1467.47 838.504 1467.47 Q827.895 1467.47 821.159 1461.53 Q814.476 1455.58 813.521 1445.77 Z" fill="#000000" fill-rule="nonzero" fill-opacity="1" /><path clip-path="url(#clip310)" d="M873.936 1427.79 Q873.936 1414 876.747 1405.62 Q879.611 1397.18 885.181 1392.62 Q890.803 1388.06 899.29 1388.06 Q905.549 1388.06 910.27 1390.61 Q914.991 1393.1 918.067 1397.87 Q921.144 1402.6 922.894 1409.44 Q924.644 1416.23 924.644 1427.79 Q924.644 1441.48 921.833 1449.91 Q919.022 1458.29 913.399 1462.9 Q907.83 1467.47 899.29 1467.47 Q888.045 1467.47 881.627 1459.4 Q873.936 1449.7 873.936 1427.79 M883.749 1427.79 Q883.749 1446.94 888.204 1453.3 Q892.713 1459.62 899.29 1459.62 Q905.867 1459.62 910.323 1453.25 Q914.832 1446.89 914.832 1427.79 Q914.832 1408.59 910.323 1402.28 Q905.867 1395.96 899.184 1395.96 Q892.607 1395.96 888.682 1401.53 Q883.749 1408.64 883.749 1427.79 Z" fill="#000000" fill-rule="nonzero" fill-opacity="1" /><path clip-path="url(#clip310)" d="M978.033 1427.79 Q978.033 1414 980.844 1405.62 Q983.709 1397.18 989.278 1392.62 Q994.901 1388.06 1003.39 1388.06 Q1009.65 1388.06 1014.37 1390.61 Q1019.09 1393.1 1022.16 1397.87 Q1025.24 1402.6 1026.99 1409.44 Q1028.74 1416.23 1028.74 1427.79 Q1028.74 1441.48 1025.93 1449.91 Q1023.12 1458.29 1017.5 1462.9 Q1011.93 1467.47 1003.39 1467.47 Q992.142 1467.47 985.724 1459.4 Q978.033 1449.7 978.033 1427.79 M987.846 1427.79 Q987.846 1446.94 992.302 1453.3 Q996.81 1459.62 1003.39 1459.62 Q1009.96 1459.62 1014.42 1453.25 Q1018.93 1446.89 1018.93 1427.79 Q1018.93 1408.59 1014.42 1402.28 Q1009.96 1395.96 1003.28 1395.96 Q996.704 1395.96 992.779 1401.53 Q987.846 1408.64 987.846 1427.79 Z" fill="#000000" fill-rule="nonzero" fill-opacity="1" /><path clip-path="url(#clip310)" d="M1043.81 1466.14 L1043.81 1455.27 L1054.68 1455.27 L1054.68 1466.14 L1043.81 1466.14 Z" fill="#000000" fill-rule="nonzero" fill-opacity="1" /><path clip-path="url(#clip310)" d="M1069.27 1398.56 L1069.27 1389.39 L1119.6 1389.39 L1119.6 1396.81 Q1112.18 1404.72 1104.86 1417.82 Q1097.59 1430.92 1093.61 1444.76 Q1090.75 1454.52 1089.95 1466.14 L1080.14 1466.14 Q1080.3 1456.96 1083.75 1443.97 Q1087.19 1430.97 1093.61 1418.93 Q1100.08 1406.84 1107.35 1398.56 L1069.27 1398.56 Z" fill="#000000" fill-rule="nonzero" fill-opacity="1" /><path clip-path="url(#clip310)" d="M1129.04 1445.77 L1139.07 1444.92 Q1140.18 1452.24 1144.21 1455.96 Q1148.3 1459.62 1154.03 1459.62 Q1160.92 1459.62 1165.7 1454.42 Q1170.47 1449.22 1170.47 1440.63 Q1170.47 1432.46 1165.86 1427.74 Q1161.29 1423.02 1153.87 1423.02 Q1149.25 1423.02 1145.54 1425.14 Q1141.83 1427.21 1139.71 1430.55 L1130.74 1429.38 L1138.27 1389.44 L1176.94 1389.44 L1176.94 1398.56 L1145.91 1398.56 L1141.72 1419.46 Q1148.72 1414.58 1156.41 1414.58 Q1166.6 1414.58 1173.6 1421.64 Q1180.6 1428.69 1180.6 1439.78 Q1180.6 1450.33 1174.45 1458.02 Q1166.97 1467.47 1154.03 1467.47 Q1143.42 1467.47 1136.68 1461.53 Q1130 1455.58 1129.04 1445.77 Z" fill="#000000" fill-rule="nonzero" fill-opacity="1" /><path clip-path="url(#clip310)" d="M1266.29 1466.14 L1256.75 1466.14 L1256.75 1405.3 Q1253.3 1408.59 1247.68 1411.88 Q1242.11 1415.17 1237.65 1416.81 L1237.65 1407.58 Q1245.66 1403.82 1251.65 1398.46 Q1257.65 1393.1 1260.14 1388.06 L1266.29 1388.06 L1266.29 1466.14 Z" fill="#000000" fill-rule="nonzero" fill-opacity="1" /><path clip-path="url(#clip310)" d="M1296.1 1466.14 L1296.1 1455.27 L1306.98 1455.27 L1306.98 1466.14 L1296.1 1466.14 Z" fill="#000000" fill-rule="nonzero" fill-opacity="1" /><path clip-path="url(#clip310)" d="M1320.93 1427.79 Q1320.93 1414 1323.74 1405.62 Q1326.6 1397.18 1332.17 1392.62 Q1337.79 1388.06 1346.28 1388.06 Q1352.54 1388.06 1357.26 1390.61 Q1361.98 1393.1 1365.06 1397.87 Q1368.13 1402.6 1369.88 1409.44 Q1371.64 1416.23 1371.64 1427.79 Q1371.64 1441.48 1368.82 1449.91 Q1366.01 1458.29 1360.39 1462.9 Q1354.82 1467.47 1346.28 1467.47 Q1335.04 1467.47 1328.62 1459.4 Q1320.93 1449.7 1320.93 1427.79 M1330.74 1427.79 Q1330.74 1446.94 1335.2 1453.3 Q1339.7 1459.62 1346.28 1459.62 Q1352.86 1459.62 1357.31 1453.25 Q1361.82 1446.89 1361.82 1427.79 Q1361.82 1408.59 1357.31 1402.28 Q1352.86 1395.96 1346.17 1395.96 Q1339.6 1395.96 1335.67 1401.53 Q1330.74 1408.64 1330.74 1427.79 Z" fill="#000000" fill-rule="nonzero" fill-opacity="1" /><path clip-path="url(#clip310)" d="M1381.34 1427.79 Q1381.34 1414 1384.15 1405.62 Q1387.02 1397.18 1392.59 1392.62 Q1398.21 1388.06 1406.7 1388.06 Q1412.96 1388.06 1417.68 1390.61 Q1422.4 1393.1 1425.47 1397.87 Q1428.55 1402.6 1430.3 1409.44 Q1432.05 1416.23 1432.05 1427.79 Q1432.05 1441.48 1429.24 1449.91 Q1426.43 1458.29 1420.81 1462.9 Q1415.24 1467.47 1406.7 1467.47 Q1395.45 1467.47 1389.03 1459.4 Q1381.34 1449.7 1381.34 1427.79 M1391.15 1427.79 Q1391.15 1446.94 1395.61 1453.3 Q1400.12 1459.62 1406.7 1459.62 Q1413.27 1459.62 1417.73 1453.25 Q1422.24 1446.89 1422.24 1427.79 Q1422.24 1408.59 1417.73 1402.28 Q1413.27 1395.96 1406.59 1395.96 Q1400.01 1395.96 1396.09 1401.53 Q1391.15 1408.64 1391.15 1427.79 Z" fill="#000000" fill-rule="nonzero" fill-opacity="1" /><path clip-path="url(#clip310)" d="M1521.4 1466.14 L1511.85 1466.14 L1511.85 1405.3 Q1508.41 1408.59 1502.78 1411.88 Q1497.21 1415.17 1492.76 1416.81 L1492.76 1407.58 Q1500.77 1403.82 1506.76 1398.46 Q1512.76 1393.1 1515.25 1388.06 L1521.4 1388.06 L1521.4 1466.14 Z" fill="#000000" fill-rule="nonzero" fill-opacity="1" /><path clip-path="url(#clip310)" d="M1551.21 1466.14 L1551.21 1455.27 L1562.09 1455.27 L1562.09 1466.14 L1551.21 1466.14 Z" fill="#000000" fill-rule="nonzero" fill-opacity="1" /><path clip-path="url(#clip310)" d="M1626.21 1456.96 L1626.21 1466.14 L1574.82 1466.14 Q1574.71 1462.69 1575.93 1459.51 Q1577.89 1454.26 1582.19 1449.17 Q1586.54 1444.07 1594.71 1437.39 Q1607.38 1426.99 1611.84 1420.95 Q1616.29 1414.85 1616.29 1409.44 Q1616.29 1403.76 1612.21 1399.89 Q1608.18 1395.96 1601.65 1395.96 Q1594.76 1395.96 1590.62 1400.1 Q1586.48 1404.24 1586.43 1411.56 L1576.62 1410.55 Q1577.63 1399.57 1584.2 1393.84 Q1590.78 1388.06 1601.87 1388.06 Q1613.06 1388.06 1619.58 1394.27 Q1626.11 1400.47 1626.11 1409.65 Q1626.11 1414.32 1624.2 1418.83 Q1622.29 1423.33 1617.83 1428.32 Q1613.43 1433.31 1603.14 1442.01 Q1594.55 1449.22 1592.11 1451.82 Q1589.67 1454.36 1588.08 1456.96 L1626.21 1456.96 Z" fill="#000000" fill-rule="nonzero" fill-opacity="1" /><path clip-path="url(#clip310)" d="M1636.45 1445.77 L1646.48 1444.92 Q1647.59 1452.24 1651.62 1455.96 Q1655.7 1459.62 1661.43 1459.62 Q1668.33 1459.62 1673.1 1454.42 Q1677.88 1449.22 1677.88 1440.63 Q1677.88 1432.46 1673.26 1427.74 Q1668.7 1423.02 1661.27 1423.02 Q1656.66 1423.02 1652.95 1425.14 Q1649.23 1427.21 1647.11 1430.55 L1638.15 1429.38 L1645.68 1389.44 L1684.35 1389.44 L1684.35 1398.56 L1653.32 1398.56 L1649.13 1419.46 Q1656.13 1414.58 1663.82 1414.58 Q1674 1414.58 1681.01 1421.64 Q1688.01 1428.69 1688.01 1439.78 Q1688.01 1450.33 1681.85 1458.02 Q1674.38 1467.47 1661.43 1467.47 Q1650.82 1467.47 1644.09 1461.53 Q1637.41 1455.58 1636.45 1445.77 Z" fill="#000000" fill-rule="nonzero" fill-opacity="1" /><path clip-path="url(#clip310)" d="M1777.36 1466.14 L1767.81 1466.14 L1767.81 1405.3 Q1764.36 1408.59 1758.74 1411.88 Q1753.17 1415.17 1748.72 1416.81 L1748.72 1407.58 Q1756.73 1403.82 1762.72 1398.46 Q1768.71 1393.1 1771.21 1388.06 L1777.36 1388.06 L1777.36 1466.14 Z" fill="#000000" fill-rule="nonzero" fill-opacity="1" /><path clip-path="url(#clip310)" d="M1807.17 1466.14 L1807.17 1455.27 L1818.04 1455.27 L1818.04 1466.14 L1807.17 1466.14 Z" fill="#000000" fill-rule="nonzero" fill-opacity="1" /><path clip-path="url(#clip310)" d="M1831.99 1445.77 L1842.02 1444.92 Q1843.13 1452.24 1847.16 1455.96 Q1851.25 1459.62 1856.98 1459.62 Q1863.87 1459.62 1868.64 1454.42 Q1873.42 1449.22 1873.42 1440.63 Q1873.42 1432.46 1868.8 1427.74 Q1864.24 1423.02 1856.82 1423.02 Q1852.2 1423.02 1848.49 1425.14 Q1844.78 1427.21 1842.65 1430.55 L1833.69 1429.38 L1841.22 1389.44 L1879.89 1389.44 L1879.89 1398.56 L1848.86 1398.56 L1844.67 1419.46 Q1851.67 1414.58 1859.36 1414.58 Q1869.55 1414.58 1876.55 1421.64 Q1883.55 1428.69 1883.55 1439.78 Q1883.55 1450.33 1877.4 1458.02 Q1869.92 1467.47 1856.98 1467.47 Q1846.37 1467.47 1839.63 1461.53 Q1832.95 1455.58 1831.99 1445.77 Z" fill="#000000" fill-rule="nonzero" fill-opacity="1" /><path clip-path="url(#clip310)" d="M1892.41 1427.79 Q1892.41 1414 1895.22 1405.62 Q1898.08 1397.18 1903.65 1392.62 Q1909.28 1388.06 1917.76 1388.06 Q1924.02 1388.06 1928.74 1390.61 Q1933.46 1393.1 1936.54 1397.87 Q1939.62 1402.6 1941.37 1409.44 Q1943.12 1416.23 1943.12 1427.79 Q1943.12 1441.48 1940.3 1449.91 Q1937.49 1458.29 1931.87 1462.9 Q1926.3 1467.47 1917.76 1467.47 Q1906.52 1467.47 1900.1 1459.4 Q1892.41 1449.7 1892.41 1427.79 M1902.22 1427.79 Q1902.22 1446.94 1906.68 1453.3 Q1911.18 1459.62 1917.76 1459.62 Q1924.34 1459.62 1928.79 1453.25 Q1933.3 1446.89 1933.3 1427.79 Q1933.3 1408.59 1928.79 1402.28 Q1924.34 1395.96 1917.66 1395.96 Q1911.08 1395.96 1907.15 1401.53 Q1902.22 1408.64 1902.22 1427.79 Z" fill="#000000" fill-rule="nonzero" fill-opacity="1" /><path clip-path="url(#clip310)" d="M2032.47 1466.14 L2022.92 1466.14 L2022.92 1405.3 Q2019.47 1408.59 2013.85 1411.88 Q2008.28 1415.17 2003.82 1416.81 L2003.82 1407.58 Q2011.83 1403.82 2017.83 1398.46 Q2023.82 1393.1 2026.31 1388.06 L2032.47 1388.06 L2032.47 1466.14 Z" fill="#000000" fill-rule="nonzero" fill-opacity="1" /><path clip-path="url(#clip310)" d="M2062.28 1466.14 L2062.28 1455.27 L2073.15 1455.27 L2073.15 1466.14 L2062.28 1466.14 Z" fill="#000000" fill-rule="nonzero" fill-opacity="1" /><path clip-path="url(#clip310)" d="M2087.74 1398.56 L2087.74 1389.39 L2138.07 1389.39 L2138.07 1396.81 Q2130.65 1404.72 2123.33 1417.82 Q2116.06 1430.92 2112.08 1444.76 Q2109.22 1454.52 2108.42 1466.14 L2098.61 1466.14 Q2098.77 1456.96 2102.22 1443.97 Q2105.67 1430.97 2112.08 1418.93 Q2118.56 1406.84 2125.82 1398.56 L2087.74 1398.56 Z" fill="#000000" fill-rule="nonzero" fill-opacity="1" /><path clip-path="url(#clip310)" d="M2147.52 1445.77 L2157.54 1444.92 Q2158.66 1452.24 2162.69 1455.96 Q2166.77 1459.62 2172.5 1459.62 Q2179.39 1459.62 2184.17 1454.42 Q2188.94 1449.22 2188.94 1440.63 Q2188.94 1432.46 2184.33 1427.74 Q2179.77 1423.02 2172.34 1423.02 Q2167.73 1423.02 2164.01 1425.14 Q2160.3 1427.21 2158.18 1430.55 L2149.21 1429.38 L2156.75 1389.44 L2195.41 1389.44 L2195.41 1398.56 L2164.38 1398.56 L2160.19 1419.46 Q2167.2 1414.58 2174.89 1414.58 Q2185.07 1414.58 2192.07 1421.64 Q2199.07 1428.69 2199.07 1439.78 Q2199.07 1450.33 2192.92 1458.02 Q2185.44 1467.47 2172.5 1467.47 Q2161.89 1467.47 2155.15 1461.53 Q2148.47 1455.58 2147.52 1445.77 Z" fill="#000000" fill-rule="nonzero" fill-opacity="1" /><path clip-path="url(#clip310)" d="M1317.11 1557.13 L1317.11 1553.81 Q1325.55 1553.81 1330.92 1547.33 Q1330.92 1547.33 1341.04 1534.47 L1330.34 1520.56 Q1326.55 1515.71 1324.86 1514.87 Q1323.23 1513.97 1317.64 1513.97 L1317.64 1510.6 Q1322.07 1510.92 1327.87 1510.92 Q1331.08 1510.92 1339.56 1510.6 L1339.56 1513.97 Q1335.77 1514.18 1335.77 1516.66 Q1335.77 1517.5 1336.72 1518.61 L1345.15 1529.52 L1351.84 1521.09 Q1353.48 1519.14 1353.48 1517.29 Q1353.48 1514.29 1350.32 1513.97 L1350.32 1510.6 Q1354.53 1510.92 1360.7 1510.92 Q1365.34 1510.92 1369.55 1510.6 L1369.55 1513.97 Q1361.33 1514.18 1356.69 1519.56 Q1354.64 1521.82 1346.78 1531.78 L1361.22 1550.44 Q1362.96 1552.71 1364.91 1553.29 Q1366.86 1553.81 1371.5 1553.81 L1371.5 1557.13 Q1366.65 1556.82 1361.12 1556.82 Q1359.17 1556.82 1349.47 1557.13 L1349.47 1553.81 Q1351.42 1553.71 1352.37 1552.86 Q1353.37 1551.97 1353.37 1551.07 Q1353.37 1550.65 1351.11 1547.54 L1342.88 1536.74 Q1334.66 1546.44 1333.61 1548.7 Q1333.19 1549.65 1333.19 1550.44 Q1333.19 1553.34 1336.3 1553.81 L1336.3 1557.13 Q1328.55 1556.82 1326.07 1556.82 Q1321.33 1556.82 1317.11 1557.13 Z" fill="#000000" fill-rule="nonzero" fill-opacity="1" /><path clip-path="url(#clip310)" d="M1382.49 1543.91 L1382.49 1541.55 Q1391.57 1541.55 1396.25 1536.71 Q1397.54 1536.71 1397.77 1537.01 Q1397.99 1537.3 1397.99 1538.67 L1397.99 1581.06 Q1397.99 1583.31 1399.09 1584.01 Q1400.2 1584.71 1405.03 1584.71 L1407.43 1584.71 L1407.43 1587.03 Q1404.78 1586.81 1395.18 1586.81 Q1385.59 1586.81 1382.97 1587.03 L1382.97 1584.71 L1385.37 1584.71 Q1390.13 1584.71 1391.27 1584.04 Q1392.42 1583.34 1392.42 1581.06 L1392.42 1541.92 Q1388.47 1543.91 1382.49 1543.91 Z" fill="#000000" fill-rule="nonzero" fill-opacity="1" /><polyline clip-path="url(#clip310)" style="stroke:#000000; stroke-linecap:round; stroke-linejoin:round; stroke-width:4; stroke-opacity:1; fill:none" points="383.069,1349.74 383.069,47.2441 "/>
<polyline clip-path="url(#clip310)" style="stroke:#000000; stroke-linecap:round; stroke-linejoin:round; stroke-width:2; stroke-opacity:0.5; fill:none" points="2352.76,1349.74 2352.76,47.2441 "/>
<polyline clip-path="url(#clip310)" style="stroke:#000000; stroke-linecap:round; stroke-linejoin:round; stroke-width:4; stroke-opacity:1; fill:none" points="383.069,1210.05 401.966,1210.05 "/>
<polyline clip-path="url(#clip310)" style="stroke:#000000; stroke-linecap:round; stroke-linejoin:round; stroke-width:4; stroke-opacity:1; fill:none" points="383.069,1043.22 401.966,1043.22 "/>
<polyline clip-path="url(#clip310)" style="stroke:#000000; stroke-linecap:round; stroke-linejoin:round; stroke-width:4; stroke-opacity:1; fill:none" points="383.069,876.387 401.966,876.387 "/>
<polyline clip-path="url(#clip310)" style="stroke:#000000; stroke-linecap:round; stroke-linejoin:round; stroke-width:4; stroke-opacity:1; fill:none" points="383.069,709.554 401.966,709.554 "/>
<polyline clip-path="url(#clip310)" style="stroke:#000000; stroke-linecap:round; stroke-linejoin:round; stroke-width:4; stroke-opacity:1; fill:none" points="383.069,542.72 401.966,542.72 "/>
<polyline clip-path="url(#clip310)" style="stroke:#000000; stroke-linecap:round; stroke-linejoin:round; stroke-width:4; stroke-opacity:1; fill:none" points="383.069,375.887 401.966,375.887 "/>
<polyline clip-path="url(#clip310)" style="stroke:#000000; stroke-linecap:round; stroke-linejoin:round; stroke-width:4; stroke-opacity:1; fill:none" points="383.069,209.054 401.966,209.054 "/>
<path clip-path="url(#clip310)" d="M144.5 1210.58 Q144.5 1196.79 147.311 1188.41 Q150.176 1179.98 155.745 1175.42 Q161.368 1170.86 169.854 1170.86 Q176.113 1170.86 180.834 1173.4 Q185.555 1175.89 188.631 1180.67 Q191.708 1185.39 193.458 1192.23 Q195.209 1199.02 195.209 1210.58 Q195.209 1224.27 192.397 1232.7 Q189.586 1241.08 183.964 1245.7 Q178.394 1250.26 169.854 1250.26 Q158.609 1250.26 152.191 1242.2 Q144.5 1232.49 144.5 1210.58 M154.313 1210.58 Q154.313 1229.73 158.769 1236.1 Q163.277 1242.41 169.854 1242.41 Q176.432 1242.41 180.887 1236.04 Q185.396 1229.68 185.396 1210.58 Q185.396 1191.38 180.887 1185.07 Q176.432 1178.76 169.748 1178.76 Q163.171 1178.76 159.246 1184.33 Q154.313 1191.44 154.313 1210.58 Z" fill="#000000" fill-rule="nonzero" fill-opacity="1" /><path clip-path="url(#clip310)" d="M210.273 1248.93 L210.273 1238.06 L221.146 1238.06 L221.146 1248.93 L210.273 1248.93 Z" fill="#000000" fill-rule="nonzero" fill-opacity="1" /><path clip-path="url(#clip310)" d="M285.274 1239.76 L285.274 1248.93 L233.876 1248.93 Q233.77 1245.49 234.99 1242.3 Q236.953 1237.05 241.249 1231.96 Q245.599 1226.87 253.767 1220.18 Q266.444 1209.79 270.9 1203.74 Q275.355 1197.64 275.355 1192.23 Q275.355 1186.56 271.271 1182.68 Q267.24 1178.76 260.716 1178.76 Q253.82 1178.76 249.683 1182.9 Q245.546 1187.03 245.493 1194.35 L235.68 1193.35 Q236.688 1182.37 243.265 1176.64 Q249.842 1170.86 260.928 1170.86 Q272.12 1170.86 278.644 1177.06 Q285.168 1183.27 285.168 1192.44 Q285.168 1197.11 283.259 1201.62 Q281.349 1206.13 276.894 1211.11 Q272.491 1216.1 262.201 1224.8 Q253.608 1232.01 251.168 1234.61 Q248.728 1237.16 247.137 1239.76 L285.274 1239.76 Z" fill="#000000" fill-rule="nonzero" fill-opacity="1" /><path clip-path="url(#clip310)" d="M295.512 1228.57 L305.537 1227.72 Q306.65 1235.04 310.682 1238.75 Q314.766 1242.41 320.494 1242.41 Q327.39 1242.41 332.164 1237.21 Q336.938 1232.01 336.938 1223.42 Q336.938 1215.25 332.323 1210.53 Q327.761 1205.81 320.335 1205.81 Q315.721 1205.81 312.008 1207.93 Q308.295 1210 306.173 1213.34 L297.209 1212.18 L304.741 1172.23 L343.409 1172.23 L343.409 1181.36 L312.379 1181.36 L308.189 1202.26 Q315.19 1197.38 322.881 1197.38 Q333.066 1197.38 340.067 1204.43 Q347.069 1211.49 347.069 1222.57 Q347.069 1233.13 340.916 1240.82 Q333.437 1250.26 320.494 1250.26 Q309.886 1250.26 303.15 1244.32 Q296.466 1238.38 295.512 1228.57 Z" fill="#000000" fill-rule="nonzero" fill-opacity="1" /><path clip-path="url(#clip310)" d="M145.349 1043.75 Q145.349 1029.96 148.16 1021.58 Q151.024 1013.15 156.594 1008.58 Q162.216 1004.02 170.703 1004.02 Q176.962 1004.02 181.683 1006.57 Q186.404 1009.06 189.48 1013.83 Q192.556 1018.56 194.307 1025.4 Q196.057 1032.19 196.057 1043.75 Q196.057 1057.44 193.246 1065.87 Q190.435 1074.25 184.812 1078.86 Q179.243 1083.43 170.703 1083.43 Q159.458 1083.43 153.04 1075.36 Q145.349 1065.66 145.349 1043.75 M155.162 1043.75 Q155.162 1062.9 159.617 1069.26 Q164.126 1075.58 170.703 1075.58 Q177.28 1075.58 181.736 1069.21 Q186.244 1062.85 186.244 1043.75 Q186.244 1024.55 181.736 1018.24 Q177.28 1011.93 170.597 1011.93 Q164.02 1011.93 160.095 1017.49 Q155.162 1024.6 155.162 1043.75 Z" fill="#000000" fill-rule="nonzero" fill-opacity="1" /><path clip-path="url(#clip310)" d="M211.121 1082.1 L211.121 1071.23 L221.995 1071.23 L221.995 1082.1 L211.121 1082.1 Z" fill="#000000" fill-rule="nonzero" fill-opacity="1" /><path clip-path="url(#clip310)" d="M235.945 1061.73 L245.97 1060.88 Q247.084 1068.2 251.115 1071.92 Q255.199 1075.58 260.928 1075.58 Q267.823 1075.58 272.597 1070.38 Q277.371 1065.18 277.371 1056.59 Q277.371 1048.42 272.756 1043.7 Q268.195 1038.98 260.769 1038.98 Q256.154 1038.98 252.441 1041.1 Q248.728 1043.17 246.607 1046.51 L237.642 1045.34 L245.174 1005.4 L283.842 1005.4 L283.842 1014.52 L252.813 1014.52 L248.622 1035.42 Q255.624 1030.54 263.315 1030.54 Q273.499 1030.54 280.501 1037.6 Q287.502 1044.65 287.502 1055.74 Q287.502 1066.29 281.349 1073.98 Q273.87 1083.43 260.928 1083.43 Q250.32 1083.43 243.583 1077.49 Q236.9 1071.54 235.945 1061.73 Z" fill="#000000" fill-rule="nonzero" fill-opacity="1" /><path clip-path="url(#clip310)" d="M296.36 1043.75 Q296.36 1029.96 299.171 1021.58 Q302.036 1013.15 307.605 1008.58 Q313.228 1004.02 321.714 1004.02 Q327.973 1004.02 332.694 1006.57 Q337.415 1009.06 340.491 1013.83 Q343.568 1018.56 345.318 1025.4 Q347.069 1032.19 347.069 1043.75 Q347.069 1057.44 344.257 1065.87 Q341.446 1074.25 335.824 1078.86 Q330.254 1083.43 321.714 1083.43 Q310.469 1083.43 304.051 1075.36 Q296.36 1065.66 296.36 1043.75 M306.173 1043.75 Q306.173 1062.9 310.629 1069.26 Q315.137 1075.58 321.714 1075.58 Q328.292 1075.58 332.747 1069.21 Q337.256 1062.85 337.256 1043.75 Q337.256 1024.55 332.747 1018.24 Q328.292 1011.93 321.608 1011.93 Q315.031 1011.93 311.106 1017.49 Q306.173 1024.6 306.173 1043.75 Z" fill="#000000" fill-rule="nonzero" fill-opacity="1" /><path clip-path="url(#clip310)" d="M144.5 876.917 Q144.5 863.126 147.311 854.746 Q150.176 846.312 155.745 841.75 Q161.368 837.189 169.854 837.189 Q176.113 837.189 180.834 839.735 Q185.555 842.228 188.631 847.002 Q191.708 851.722 193.458 858.565 Q195.209 865.354 195.209 876.917 Q195.209 890.602 192.397 899.036 Q189.586 907.417 183.964 912.031 Q178.394 916.593 169.854 916.593 Q158.609 916.593 152.191 908.531 Q144.5 898.824 144.5 876.917 M154.313 876.917 Q154.313 896.066 158.769 902.431 Q163.277 908.743 169.854 908.743 Q176.432 908.743 180.887 902.378 Q185.396 896.013 185.396 876.917 Q185.396 857.716 180.887 851.404 Q176.432 845.092 169.748 845.092 Q163.171 845.092 159.246 850.661 Q154.313 857.769 154.313 876.917 Z" fill="#000000" fill-rule="nonzero" fill-opacity="1" /><path clip-path="url(#clip310)" d="M210.273 915.267 L210.273 904.393 L221.146 904.393 L221.146 915.267 L210.273 915.267 Z" fill="#000000" fill-rule="nonzero" fill-opacity="1" /><path clip-path="url(#clip310)" d="M235.733 847.691 L235.733 838.515 L286.07 838.515 L286.07 845.941 Q278.644 853.844 271.324 866.945 Q264.057 880.047 260.079 893.891 Q257.215 903.651 256.419 915.267 L246.607 915.267 Q246.766 906.091 250.213 893.095 Q253.661 880.1 260.079 868.059 Q266.55 855.966 273.817 847.691 L235.733 847.691 Z" fill="#000000" fill-rule="nonzero" fill-opacity="1" /><path clip-path="url(#clip310)" d="M295.512 894.899 L305.537 894.05 Q306.65 901.37 310.682 905.083 Q314.766 908.743 320.494 908.743 Q327.39 908.743 332.164 903.545 Q336.938 898.346 336.938 889.754 Q336.938 881.585 332.323 876.864 Q327.761 872.144 320.335 872.144 Q315.721 872.144 312.008 874.265 Q308.295 876.334 306.173 879.676 L297.209 878.509 L304.741 838.568 L343.409 838.568 L343.409 847.691 L312.379 847.691 L308.189 868.59 Q315.19 863.71 322.881 863.71 Q333.066 863.71 340.067 870.764 Q347.069 877.819 347.069 888.905 Q347.069 899.46 340.916 907.151 Q333.437 916.593 320.494 916.593 Q309.886 916.593 303.15 910.652 Q296.466 904.712 295.512 894.899 Z" fill="#000000" fill-rule="nonzero" fill-opacity="1" /><path clip-path="url(#clip310)" d="M181.312 748.434 L171.764 748.434 L171.764 687.594 Q168.316 690.883 162.694 694.171 Q157.124 697.46 152.669 699.104 L152.669 689.875 Q160.678 686.109 166.672 680.752 Q172.666 675.394 175.159 670.355 L181.312 670.355 L181.312 748.434 Z" fill="#000000" fill-rule="nonzero" fill-opacity="1" /><path clip-path="url(#clip310)" d="M211.121 748.434 L211.121 737.56 L221.995 737.56 L221.995 748.434 L211.121 748.434 Z" fill="#000000" fill-rule="nonzero" fill-opacity="1" /><path clip-path="url(#clip310)" d="M235.945 710.084 Q235.945 696.293 238.756 687.912 Q241.621 679.479 247.19 674.917 Q252.813 670.355 261.299 670.355 Q267.558 670.355 272.279 672.901 Q277 675.394 280.076 680.168 Q283.153 684.889 284.903 691.731 Q286.653 698.521 286.653 710.084 Q286.653 723.769 283.842 732.203 Q281.031 740.583 275.409 745.198 Q269.839 749.76 261.299 749.76 Q250.054 749.76 243.636 741.697 Q235.945 731.991 235.945 710.084 M245.758 710.084 Q245.758 729.232 250.213 735.597 Q254.722 741.909 261.299 741.909 Q267.877 741.909 272.332 735.544 Q276.841 729.179 276.841 710.084 Q276.841 690.883 272.332 684.571 Q267.877 678.259 261.193 678.259 Q254.616 678.259 250.691 683.828 Q245.758 690.936 245.758 710.084 Z" fill="#000000" fill-rule="nonzero" fill-opacity="1" /><path clip-path="url(#clip310)" d="M296.36 710.084 Q296.36 696.293 299.171 687.912 Q302.036 679.479 307.605 674.917 Q313.228 670.355 321.714 670.355 Q327.973 670.355 332.694 672.901 Q337.415 675.394 340.491 680.168 Q343.568 684.889 345.318 691.731 Q347.069 698.521 347.069 710.084 Q347.069 723.769 344.257 732.203 Q341.446 740.583 335.824 745.198 Q330.254 749.76 321.714 749.76 Q310.469 749.76 304.051 741.697 Q296.36 731.991 296.36 710.084 M306.173 710.084 Q306.173 729.232 310.629 735.597 Q315.137 741.909 321.714 741.909 Q328.292 741.909 332.747 735.544 Q337.256 729.179 337.256 710.084 Q337.256 690.883 332.747 684.571 Q328.292 678.259 321.608 678.259 Q315.031 678.259 311.106 683.828 Q306.173 690.936 306.173 710.084 Z" fill="#000000" fill-rule="nonzero" fill-opacity="1" /><path clip-path="url(#clip310)" d="M180.463 581.6 L170.915 581.6 L170.915 520.761 Q167.467 524.05 161.845 527.338 Q156.276 530.627 151.82 532.271 L151.82 523.042 Q159.829 519.276 165.823 513.918 Q171.817 508.561 174.31 503.522 L180.463 503.522 L180.463 581.6 Z" fill="#000000" fill-rule="nonzero" fill-opacity="1" /><path clip-path="url(#clip310)" d="M210.273 581.6 L210.273 570.727 L221.146 570.727 L221.146 581.6 L210.273 581.6 Z" fill="#000000" fill-rule="nonzero" fill-opacity="1" /><path clip-path="url(#clip310)" d="M285.274 572.424 L285.274 581.6 L233.876 581.6 Q233.77 578.153 234.99 574.97 Q236.953 569.719 241.249 564.627 Q245.599 559.535 253.767 552.852 Q266.444 542.455 270.9 536.408 Q275.355 530.309 275.355 524.898 Q275.355 519.223 271.271 515.351 Q267.24 511.425 260.716 511.425 Q253.82 511.425 249.683 515.563 Q245.546 519.7 245.493 527.02 L235.68 526.012 Q236.688 515.032 243.265 509.304 Q249.842 503.522 260.928 503.522 Q272.12 503.522 278.644 509.728 Q285.168 515.934 285.168 525.11 Q285.168 529.778 283.259 534.287 Q281.349 538.795 276.894 543.781 Q272.491 548.767 262.201 557.466 Q253.608 564.68 251.168 567.279 Q248.728 569.825 247.137 572.424 L285.274 572.424 Z" fill="#000000" fill-rule="nonzero" fill-opacity="1" /><path clip-path="url(#clip310)" d="M295.512 561.232 L305.537 560.384 Q306.65 567.703 310.682 571.416 Q314.766 575.076 320.494 575.076 Q327.39 575.076 332.164 569.878 Q336.938 564.68 336.938 556.087 Q336.938 547.919 332.323 543.198 Q327.761 538.477 320.335 538.477 Q315.721 538.477 312.008 540.599 Q308.295 542.667 306.173 546.009 L297.209 544.842 L304.741 504.901 L343.409 504.901 L343.409 514.025 L312.379 514.025 L308.189 534.923 Q315.19 530.043 322.881 530.043 Q333.066 530.043 340.067 537.098 Q347.069 544.153 347.069 555.238 Q347.069 565.794 340.916 573.485 Q333.437 582.926 320.494 582.926 Q309.886 582.926 303.15 576.986 Q296.466 571.045 295.512 561.232 Z" fill="#000000" fill-rule="nonzero" fill-opacity="1" /><path clip-path="url(#clip310)" d="M181.312 414.767 L171.764 414.767 L171.764 353.928 Q168.316 357.216 162.694 360.505 Q157.124 363.794 152.669 365.438 L152.669 356.208 Q160.678 352.442 166.672 347.085 Q172.666 341.728 175.159 336.689 L181.312 336.689 L181.312 414.767 Z" fill="#000000" fill-rule="nonzero" fill-opacity="1" /><path clip-path="url(#clip310)" d="M211.121 414.767 L211.121 403.893 L221.995 403.893 L221.995 414.767 L211.121 414.767 Z" fill="#000000" fill-rule="nonzero" fill-opacity="1" /><path clip-path="url(#clip310)" d="M235.945 394.399 L245.97 393.55 Q247.084 400.87 251.115 404.583 Q255.199 408.243 260.928 408.243 Q267.823 408.243 272.597 403.045 Q277.371 397.847 277.371 389.254 Q277.371 381.085 272.756 376.365 Q268.195 371.644 260.769 371.644 Q256.154 371.644 252.441 373.765 Q248.728 375.834 246.607 379.176 L237.642 378.009 L245.174 338.068 L283.842 338.068 L283.842 347.191 L252.813 347.191 L248.622 368.09 Q255.624 363.21 263.315 363.21 Q273.499 363.21 280.501 370.265 Q287.502 377.319 287.502 388.405 Q287.502 398.961 281.349 406.652 Q273.87 416.093 260.928 416.093 Q250.32 416.093 243.583 410.152 Q236.9 404.212 235.945 394.399 Z" fill="#000000" fill-rule="nonzero" fill-opacity="1" /><path clip-path="url(#clip310)" d="M296.36 376.418 Q296.36 362.627 299.171 354.246 Q302.036 345.812 307.605 341.251 Q313.228 336.689 321.714 336.689 Q327.973 336.689 332.694 339.235 Q337.415 341.728 340.491 346.502 Q343.568 351.222 345.318 358.065 Q347.069 364.854 347.069 376.418 Q347.069 390.102 344.257 398.536 Q341.446 406.917 335.824 411.532 Q330.254 416.093 321.714 416.093 Q310.469 416.093 304.051 408.031 Q296.36 398.324 296.36 376.418 M306.173 376.418 Q306.173 395.566 310.629 401.931 Q315.137 408.243 321.714 408.243 Q328.292 408.243 332.747 401.878 Q337.256 395.513 337.256 376.418 Q337.256 357.216 332.747 350.904 Q328.292 344.592 321.608 344.592 Q315.031 344.592 311.106 350.162 Q306.173 357.269 306.173 376.418 Z" fill="#000000" fill-rule="nonzero" fill-opacity="1" /><path clip-path="url(#clip310)" d="M180.463 247.934 L170.915 247.934 L170.915 187.094 Q167.467 190.383 161.845 193.672 Q156.276 196.96 151.82 198.605 L151.82 189.375 Q159.829 185.609 165.823 180.252 Q171.817 174.895 174.31 169.856 L180.463 169.856 L180.463 247.934 Z" fill="#000000" fill-rule="nonzero" fill-opacity="1" /><path clip-path="url(#clip310)" d="M210.273 247.934 L210.273 237.06 L221.146 237.06 L221.146 247.934 L210.273 247.934 Z" fill="#000000" fill-rule="nonzero" fill-opacity="1" /><path clip-path="url(#clip310)" d="M235.733 180.358 L235.733 171.182 L286.07 171.182 L286.07 178.608 Q278.644 186.511 271.324 199.612 Q264.057 212.714 260.079 226.558 Q257.215 236.318 256.419 247.934 L246.607 247.934 Q246.766 238.758 250.213 225.762 Q253.661 212.767 260.079 200.726 Q266.55 188.633 273.817 180.358 L235.733 180.358 Z" fill="#000000" fill-rule="nonzero" fill-opacity="1" /><path clip-path="url(#clip310)" d="M295.512 227.566 L305.537 226.717 Q306.65 234.037 310.682 237.75 Q314.766 241.41 320.494 241.41 Q327.39 241.41 332.164 236.212 Q336.938 231.013 336.938 222.421 Q336.938 214.252 332.323 209.531 Q327.761 204.81 320.335 204.81 Q315.721 204.81 312.008 206.932 Q308.295 209.001 306.173 212.343 L297.209 211.176 L304.741 171.235 L343.409 171.235 L343.409 180.358 L312.379 180.358 L308.189 201.257 Q315.19 196.377 322.881 196.377 Q333.066 196.377 340.067 203.431 Q347.069 210.486 347.069 221.572 Q347.069 232.127 340.916 239.818 Q333.437 249.26 320.494 249.26 Q309.886 249.26 303.15 243.319 Q296.466 237.378 295.512 227.566 Z" fill="#000000" fill-rule="nonzero" fill-opacity="1" /><path clip-path="url(#clip310)" d="M69.9417 751.882 L66.6215 751.882 Q66.6215 743.45 60.1394 738.075 Q60.1394 738.075 47.2804 727.956 L33.3675 738.654 Q28.5191 742.449 27.6759 744.135 Q26.7799 745.769 26.7799 751.355 L23.4071 751.355 Q23.7233 746.928 23.7233 741.131 Q23.7233 737.917 23.4071 729.432 L26.7799 729.432 Q26.9907 733.226 29.4677 733.226 Q30.3109 733.226 31.4176 732.278 L42.3266 723.846 L33.8945 717.153 Q31.9446 715.519 30.1001 715.519 Q27.0962 715.519 26.7799 718.681 L23.4071 718.681 Q23.7233 714.465 23.7233 708.299 Q23.7233 703.661 23.4071 699.445 L26.7799 699.445 Q26.9907 707.667 32.3662 712.304 Q34.6323 714.36 44.5927 722.212 L63.2487 707.772 Q65.5148 706.033 66.0945 704.083 Q66.6215 702.133 66.6215 697.495 L69.9417 697.495 Q69.6255 702.344 69.6255 707.877 Q69.6255 709.827 69.9417 719.524 L66.6215 719.524 Q66.5161 717.574 65.6729 716.626 Q64.777 715.624 63.8811 715.624 Q63.4595 715.624 60.3502 717.89 L49.5466 726.112 Q59.2435 734.333 61.5096 735.387 Q62.4582 735.809 63.2487 735.809 Q66.1472 735.809 66.6215 732.699 L69.9417 732.699 Q69.6255 740.446 69.6255 742.923 Q69.6255 747.666 69.9417 751.882 Z" fill="#000000" fill-rule="nonzero" fill-opacity="1" /><path clip-path="url(#clip310)" d="M99.8404 686.503 Q98.4755 686.503 98.0697 686.392 Q97.6639 686.245 97.0367 685.654 L80.8788 671.157 Q71.9513 663.225 64.1674 663.225 Q59.1135 663.225 55.4982 665.881 Q51.883 668.5 51.883 673.333 Q51.883 676.653 53.9119 679.457 Q55.9409 682.261 59.5561 683.552 Q59.4824 683.33 59.4824 682.556 Q59.4824 680.674 60.6629 679.641 Q61.8433 678.571 63.4296 678.571 Q65.4586 678.571 66.4546 679.9 Q67.4138 681.191 67.4138 682.482 Q67.4138 682.998 67.3031 683.699 Q67.1924 684.363 66.1595 685.433 Q65.0897 686.503 63.2083 686.503 Q57.933 686.503 53.7275 682.519 Q49.522 678.498 49.522 672.374 Q49.522 665.439 53.6537 660.901 Q57.7485 656.327 64.1674 656.327 Q66.4178 656.327 68.4836 657.028 Q70.5126 657.692 72.0989 658.614 Q73.6851 659.499 76.2306 661.934 Q78.776 664.369 80.5836 666.324 Q82.3913 668.279 86.2279 672.669 L94.0117 680.674 L94.0117 667.062 Q94.0117 660.421 93.4215 659.905 Q92.3517 659.167 86.7074 658.245 L86.7074 656.327 L99.8404 658.466 L99.8404 686.503 Z" fill="#000000" fill-rule="nonzero" fill-opacity="1" /><circle clip-path="url(#clip312)" cx="1894.18" cy="756.135" r="14.4" fill="#009af9" fill-rule="evenodd" fill-opacity="1" stroke="#000000" stroke-opacity="1" stroke-width="3.2"/>
<circle clip-path="url(#clip312)" cx="846.591" cy="658.091" r="14.4" fill="#009af9" fill-rule="evenodd" fill-opacity="1" stroke="#000000" stroke-opacity="1" stroke-width="3.2"/>
<circle clip-path="url(#clip312)" cx="383.069" cy="1127.71" r="14.4" fill="#009af9" fill-rule="evenodd" fill-opacity="1" stroke="#000000" stroke-opacity="1" stroke-width="3.2"/>
<circle clip-path="url(#clip312)" cx="2225.85" cy="1290.12" r="14.4" fill="#009af9" fill-rule="evenodd" fill-opacity="1" stroke="#000000" stroke-opacity="1" stroke-width="3.2"/>
<circle clip-path="url(#clip312)" cx="827.998" cy="729.059" r="14.4" fill="#009af9" fill-rule="evenodd" fill-opacity="1" stroke="#000000" stroke-opacity="1" stroke-width="3.2"/>
<circle clip-path="url(#clip312)" cx="2217.57" cy="965.356" r="14.4" fill="#009af9" fill-rule="evenodd" fill-opacity="1" stroke="#000000" stroke-opacity="1" stroke-width="3.2"/>
<circle clip-path="url(#clip312)" cx="915.977" cy="714.14" r="14.4" fill="#009af9" fill-rule="evenodd" fill-opacity="1" stroke="#000000" stroke-opacity="1" stroke-width="3.2"/>
<circle clip-path="url(#clip312)" cx="1290.03" cy="690.645" r="14.4" fill="#009af9" fill-rule="evenodd" fill-opacity="1" stroke="#000000" stroke-opacity="1" stroke-width="3.2"/>
<circle clip-path="url(#clip312)" cx="1185.84" cy="1242.27" r="14.4" fill="#009af9" fill-rule="evenodd" fill-opacity="1" stroke="#000000" stroke-opacity="1" stroke-width="3.2"/>
<circle clip-path="url(#clip312)" cx="814.861" cy="679.519" r="14.4" fill="#009af9" fill-rule="evenodd" fill-opacity="1" stroke="#000000" stroke-opacity="1" stroke-width="3.2"/>
<circle clip-path="url(#clip312)" cx="648.102" cy="615.134" r="14.4" fill="#009af9" fill-rule="evenodd" fill-opacity="1" stroke="#000000" stroke-opacity="1" stroke-width="3.2"/>
<circle clip-path="url(#clip312)" cx="1426.33" cy="1004.07" r="14.4" fill="#009af9" fill-rule="evenodd" fill-opacity="1" stroke="#000000" stroke-opacity="1" stroke-width="3.2"/>
<circle clip-path="url(#clip312)" cx="1119.13" cy="955.426" r="14.4" fill="#009af9" fill-rule="evenodd" fill-opacity="1" stroke="#000000" stroke-opacity="1" stroke-width="3.2"/>
<circle clip-path="url(#clip312)" cx="696.577" cy="840.205" r="14.4" fill="#009af9" fill-rule="evenodd" fill-opacity="1" stroke="#000000" stroke-opacity="1" stroke-width="3.2"/>
<circle clip-path="url(#clip312)" cx="866.087" cy="1270.67" r="14.4" fill="#009af9" fill-rule="evenodd" fill-opacity="1" stroke="#000000" stroke-opacity="1" stroke-width="3.2"/>
<circle clip-path="url(#clip312)" cx="2212.58" cy="888.811" r="14.4" fill="#009af9" fill-rule="evenodd" fill-opacity="1" stroke="#000000" stroke-opacity="1" stroke-width="3.2"/>
<circle clip-path="url(#clip312)" cx="1878.36" cy="1305.98" r="14.4" fill="#009af9" fill-rule="evenodd" fill-opacity="1" stroke="#000000" stroke-opacity="1" stroke-width="3.2"/>
<circle clip-path="url(#clip312)" cx="548.264" cy="693.522" r="14.4" fill="#009af9" fill-rule="evenodd" fill-opacity="1" stroke="#000000" stroke-opacity="1" stroke-width="3.2"/>
<circle clip-path="url(#clip312)" cx="911.314" cy="595.839" r="14.4" fill="#009af9" fill-rule="evenodd" fill-opacity="1" stroke="#000000" stroke-opacity="1" stroke-width="3.2"/>
<circle clip-path="url(#clip312)" cx="472.365" cy="1283.82" r="14.4" fill="#009af9" fill-rule="evenodd" fill-opacity="1" stroke="#000000" stroke-opacity="1" stroke-width="3.2"/>
<circle clip-path="url(#clip312)" cx="1290.92" cy="894.715" r="14.4" fill="#009af9" fill-rule="evenodd" fill-opacity="1" stroke="#000000" stroke-opacity="1" stroke-width="3.2"/>
<circle clip-path="url(#clip312)" cx="1618.85" cy="848.736" r="14.4" fill="#009af9" fill-rule="evenodd" fill-opacity="1" stroke="#000000" stroke-opacity="1" stroke-width="3.2"/>
<circle clip-path="url(#clip312)" cx="1428.61" cy="1323.13" r="14.4" fill="#009af9" fill-rule="evenodd" fill-opacity="1" stroke="#000000" stroke-opacity="1" stroke-width="3.2"/>
<circle clip-path="url(#clip312)" cx="1043.13" cy="1176.16" r="14.4" fill="#009af9" fill-rule="evenodd" fill-opacity="1" stroke="#000000" stroke-opacity="1" stroke-width="3.2"/>
<circle clip-path="url(#clip312)" cx="1067.94" cy="704.999" r="14.4" fill="#009af9" fill-rule="evenodd" fill-opacity="1" stroke="#000000" stroke-opacity="1" stroke-width="3.2"/>
<circle clip-path="url(#clip312)" cx="701.576" cy="1040.88" r="14.4" fill="#009af9" fill-rule="evenodd" fill-opacity="1" stroke="#000000" stroke-opacity="1" stroke-width="3.2"/>
<circle clip-path="url(#clip312)" cx="1443.33" cy="1078.7" r="14.4" fill="#009af9" fill-rule="evenodd" fill-opacity="1" stroke="#000000" stroke-opacity="1" stroke-width="3.2"/>
<circle clip-path="url(#clip312)" cx="1970.89" cy="856.469" r="14.4" fill="#009af9" fill-rule="evenodd" fill-opacity="1" stroke="#000000" stroke-opacity="1" stroke-width="3.2"/>
<circle clip-path="url(#clip312)" cx="1314.03" cy="1349.74" r="14.4" fill="#009af9" fill-rule="evenodd" fill-opacity="1" stroke="#000000" stroke-opacity="1" stroke-width="3.2"/>
<circle clip-path="url(#clip312)" cx="1183.75" cy="1151.23" r="14.4" fill="#009af9" fill-rule="evenodd" fill-opacity="1" stroke="#000000" stroke-opacity="1" stroke-width="3.2"/>
<circle clip-path="url(#clip312)" cx="1837.3" cy="1214.13" r="14.4" fill="#009af9" fill-rule="evenodd" fill-opacity="1" stroke="#000000" stroke-opacity="1" stroke-width="3.2"/>
<circle clip-path="url(#clip312)" cx="392.174" cy="1287.99" r="14.4" fill="#009af9" fill-rule="evenodd" fill-opacity="1" stroke="#000000" stroke-opacity="1" stroke-width="3.2"/>
<circle clip-path="url(#clip312)" cx="1029.77" cy="1137.39" r="14.4" fill="#009af9" fill-rule="evenodd" fill-opacity="1" stroke="#000000" stroke-opacity="1" stroke-width="3.2"/>
<circle clip-path="url(#clip312)" cx="392.5" cy="1203.76" r="14.4" fill="#009af9" fill-rule="evenodd" fill-opacity="1" stroke="#000000" stroke-opacity="1" stroke-width="3.2"/>
<circle clip-path="url(#clip312)" cx="709.684" cy="706.522" r="14.4" fill="#009af9" fill-rule="evenodd" fill-opacity="1" stroke="#000000" stroke-opacity="1" stroke-width="3.2"/>
<circle clip-path="url(#clip312)" cx="1090.73" cy="1175.41" r="14.4" fill="#009af9" fill-rule="evenodd" fill-opacity="1" stroke="#000000" stroke-opacity="1" stroke-width="3.2"/>
<circle clip-path="url(#clip312)" cx="766.408" cy="1283.01" r="14.4" fill="#009af9" fill-rule="evenodd" fill-opacity="1" stroke="#000000" stroke-opacity="1" stroke-width="3.2"/>
<circle clip-path="url(#clip312)" cx="2092.05" cy="1071.11" r="14.4" fill="#009af9" fill-rule="evenodd" fill-opacity="1" stroke="#000000" stroke-opacity="1" stroke-width="3.2"/>
<circle clip-path="url(#clip312)" cx="2000.49" cy="1087.97" r="14.4" fill="#009af9" fill-rule="evenodd" fill-opacity="1" stroke="#000000" stroke-opacity="1" stroke-width="3.2"/>
<circle clip-path="url(#clip312)" cx="928.955" cy="1115.02" r="14.4" fill="#009af9" fill-rule="evenodd" fill-opacity="1" stroke="#000000" stroke-opacity="1" stroke-width="3.2"/>
<circle clip-path="url(#clip312)" cx="1161.71" cy="643.69" r="14.4" fill="#009af9" fill-rule="evenodd" fill-opacity="1" stroke="#000000" stroke-opacity="1" stroke-width="3.2"/>
<circle clip-path="url(#clip312)" cx="581.448" cy="543.368" r="14.4" fill="#009af9" fill-rule="evenodd" fill-opacity="1" stroke="#000000" stroke-opacity="1" stroke-width="3.2"/>
<circle clip-path="url(#clip312)" cx="1630.98" cy="1264.52" r="14.4" fill="#009af9" fill-rule="evenodd" fill-opacity="1" stroke="#000000" stroke-opacity="1" stroke-width="3.2"/>
<circle clip-path="url(#clip312)" cx="1376.3" cy="930.232" r="14.4" fill="#009af9" fill-rule="evenodd" fill-opacity="1" stroke="#000000" stroke-opacity="1" stroke-width="3.2"/>
<circle clip-path="url(#clip312)" cx="668.199" cy="468.991" r="14.4" fill="#009af9" fill-rule="evenodd" fill-opacity="1" stroke="#000000" stroke-opacity="1" stroke-width="3.2"/>
<circle clip-path="url(#clip312)" cx="925.947" cy="936.455" r="14.4" fill="#009af9" fill-rule="evenodd" fill-opacity="1" stroke="#000000" stroke-opacity="1" stroke-width="3.2"/>
<circle clip-path="url(#clip312)" cx="2336.83" cy="936.547" r="14.4" fill="#009af9" fill-rule="evenodd" fill-opacity="1" stroke="#000000" stroke-opacity="1" stroke-width="3.2"/>
<circle clip-path="url(#clip312)" cx="1883.81" cy="917.994" r="14.4" fill="#009af9" fill-rule="evenodd" fill-opacity="1" stroke="#000000" stroke-opacity="1" stroke-width="3.2"/>
<circle clip-path="url(#clip312)" cx="2084.69" cy="1344.62" r="14.4" fill="#009af9" fill-rule="evenodd" fill-opacity="1" stroke="#000000" stroke-opacity="1" stroke-width="3.2"/>
<circle clip-path="url(#clip312)" cx="1294.8" cy="735.327" r="14.4" fill="#009af9" fill-rule="evenodd" fill-opacity="1" stroke="#000000" stroke-opacity="1" stroke-width="3.2"/>
<circle clip-path="url(#clip312)" cx="1810.94" cy="615.939" r="14.4" fill="#e26f46" fill-rule="evenodd" fill-opacity="1" stroke="#000000" stroke-opacity="1" stroke-width="3.2"/>
<circle clip-path="url(#clip312)" cx="2171.77" cy="783.14" r="14.4" fill="#e26f46" fill-rule="evenodd" fill-opacity="1" stroke="#000000" stroke-opacity="1" stroke-width="3.2"/>
<circle clip-path="url(#clip312)" cx="1873.69" cy="267.537" r="14.4" fill="#e26f46" fill-rule="evenodd" fill-opacity="1" stroke="#000000" stroke-opacity="1" stroke-width="3.2"/>
<circle clip-path="url(#clip312)" cx="1778.59" cy="106.128" r="14.4" fill="#e26f46" fill-rule="evenodd" fill-opacity="1" stroke="#000000" stroke-opacity="1" stroke-width="3.2"/>
<circle clip-path="url(#clip312)" cx="603.058" cy="166.215" r="14.4" fill="#e26f46" fill-rule="evenodd" fill-opacity="1" stroke="#000000" stroke-opacity="1" stroke-width="3.2"/>
<circle clip-path="url(#clip312)" cx="1147.66" cy="172.647" r="14.4" fill="#e26f46" fill-rule="evenodd" fill-opacity="1" stroke="#000000" stroke-opacity="1" stroke-width="3.2"/>
<circle clip-path="url(#clip312)" cx="1265" cy="392.474" r="14.4" fill="#e26f46" fill-rule="evenodd" fill-opacity="1" stroke="#000000" stroke-opacity="1" stroke-width="3.2"/>
<circle clip-path="url(#clip312)" cx="2173.5" cy="681.019" r="14.4" fill="#e26f46" fill-rule="evenodd" fill-opacity="1" stroke="#000000" stroke-opacity="1" stroke-width="3.2"/>
<circle clip-path="url(#clip312)" cx="2016.57" cy="719.876" r="14.4" fill="#e26f46" fill-rule="evenodd" fill-opacity="1" stroke="#000000" stroke-opacity="1" stroke-width="3.2"/>
<circle clip-path="url(#clip312)" cx="1606.51" cy="394.591" r="14.4" fill="#e26f46" fill-rule="evenodd" fill-opacity="1" stroke="#000000" stroke-opacity="1" stroke-width="3.2"/>
<circle clip-path="url(#clip312)" cx="1350.88" cy="125.715" r="14.4" fill="#e26f46" fill-rule="evenodd" fill-opacity="1" stroke="#000000" stroke-opacity="1" stroke-width="3.2"/>
<circle clip-path="url(#clip312)" cx="581.562" cy="206.349" r="14.4" fill="#e26f46" fill-rule="evenodd" fill-opacity="1" stroke="#000000" stroke-opacity="1" stroke-width="3.2"/>
<circle clip-path="url(#clip312)" cx="1138.22" cy="179.524" r="14.4" fill="#e26f46" fill-rule="evenodd" fill-opacity="1" stroke="#000000" stroke-opacity="1" stroke-width="3.2"/>
<circle clip-path="url(#clip312)" cx="2338.27" cy="269.8" r="14.4" fill="#e26f46" fill-rule="evenodd" fill-opacity="1" stroke="#000000" stroke-opacity="1" stroke-width="3.2"/>
<circle clip-path="url(#clip312)" cx="2305.44" cy="331.987" r="14.4" fill="#e26f46" fill-rule="evenodd" fill-opacity="1" stroke="#000000" stroke-opacity="1" stroke-width="3.2"/>
<circle clip-path="url(#clip312)" cx="2139.56" cy="529.427" r="14.4" fill="#e26f46" fill-rule="evenodd" fill-opacity="1" stroke="#000000" stroke-opacity="1" stroke-width="3.2"/>
<circle clip-path="url(#clip312)" cx="1644.77" cy="143.363" r="14.4" fill="#e26f46" fill-rule="evenodd" fill-opacity="1" stroke="#000000" stroke-opacity="1" stroke-width="3.2"/>
<circle clip-path="url(#clip312)" cx="680.389" cy="372.476" r="14.4" fill="#e26f46" fill-rule="evenodd" fill-opacity="1" stroke="#000000" stroke-opacity="1" stroke-width="3.2"/>
<circle clip-path="url(#clip312)" cx="2118.71" cy="703.307" r="14.4" fill="#e26f46" fill-rule="evenodd" fill-opacity="1" stroke="#000000" stroke-opacity="1" stroke-width="3.2"/>
<circle clip-path="url(#clip312)" cx="1212.89" cy="302.503" r="14.4" fill="#e26f46" fill-rule="evenodd" fill-opacity="1" stroke="#000000" stroke-opacity="1" stroke-width="3.2"/>
<circle clip-path="url(#clip312)" cx="1659.62" cy="607.387" r="14.4" fill="#e26f46" fill-rule="evenodd" fill-opacity="1" stroke="#000000" stroke-opacity="1" stroke-width="3.2"/>
<circle clip-path="url(#clip312)" cx="1563.54" cy="340.393" r="14.4" fill="#e26f46" fill-rule="evenodd" fill-opacity="1" stroke="#000000" stroke-opacity="1" stroke-width="3.2"/>
<circle clip-path="url(#clip312)" cx="1211.98" cy="415.104" r="14.4" fill="#e26f46" fill-rule="evenodd" fill-opacity="1" stroke="#000000" stroke-opacity="1" stroke-width="3.2"/>
<circle clip-path="url(#clip312)" cx="2286.32" cy="263.861" r="14.4" fill="#e26f46" fill-rule="evenodd" fill-opacity="1" stroke="#000000" stroke-opacity="1" stroke-width="3.2"/>
<circle clip-path="url(#clip312)" cx="1018.61" cy="304.685" r="14.4" fill="#e26f46" fill-rule="evenodd" fill-opacity="1" stroke="#000000" stroke-opacity="1" stroke-width="3.2"/>
<circle clip-path="url(#clip312)" cx="893.029" cy="134.002" r="14.4" fill="#e26f46" fill-rule="evenodd" fill-opacity="1" stroke="#000000" stroke-opacity="1" stroke-width="3.2"/>
<circle clip-path="url(#clip312)" cx="2117.12" cy="99.8753" r="14.4" fill="#e26f46" fill-rule="evenodd" fill-opacity="1" stroke="#000000" stroke-opacity="1" stroke-width="3.2"/>
<circle clip-path="url(#clip312)" cx="799.789" cy="376.483" r="14.4" fill="#e26f46" fill-rule="evenodd" fill-opacity="1" stroke="#000000" stroke-opacity="1" stroke-width="3.2"/>
<circle clip-path="url(#clip312)" cx="1209.06" cy="85.2216" r="14.4" fill="#e26f46" fill-rule="evenodd" fill-opacity="1" stroke="#000000" stroke-opacity="1" stroke-width="3.2"/>
<circle clip-path="url(#clip312)" cx="686.093" cy="402.937" r="14.4" fill="#e26f46" fill-rule="evenodd" fill-opacity="1" stroke="#000000" stroke-opacity="1" stroke-width="3.2"/>
<circle clip-path="url(#clip312)" cx="1398.35" cy="215.153" r="14.4" fill="#e26f46" fill-rule="evenodd" fill-opacity="1" stroke="#000000" stroke-opacity="1" stroke-width="3.2"/>
<circle clip-path="url(#clip312)" cx="1089.77" cy="193.926" r="14.4" fill="#e26f46" fill-rule="evenodd" fill-opacity="1" stroke="#000000" stroke-opacity="1" stroke-width="3.2"/>
<circle clip-path="url(#clip312)" cx="2200.14" cy="643.077" r="14.4" fill="#e26f46" fill-rule="evenodd" fill-opacity="1" stroke="#000000" stroke-opacity="1" stroke-width="3.2"/>
<circle clip-path="url(#clip312)" cx="963.481" cy="441.165" r="14.4" fill="#e26f46" fill-rule="evenodd" fill-opacity="1" stroke="#000000" stroke-opacity="1" stroke-width="3.2"/>
<circle clip-path="url(#clip312)" cx="751.582" cy="47.2441" r="14.4" fill="#e26f46" fill-rule="evenodd" fill-opacity="1" stroke="#000000" stroke-opacity="1" stroke-width="3.2"/>
<circle clip-path="url(#clip312)" cx="2302.34" cy="848.812" r="14.4" fill="#e26f46" fill-rule="evenodd" fill-opacity="1" stroke="#000000" stroke-opacity="1" stroke-width="3.2"/>
<circle clip-path="url(#clip312)" cx="1935.58" cy="110.153" r="14.4" fill="#e26f46" fill-rule="evenodd" fill-opacity="1" stroke="#000000" stroke-opacity="1" stroke-width="3.2"/>
<circle clip-path="url(#clip312)" cx="1354.58" cy="350.444" r="14.4" fill="#e26f46" fill-rule="evenodd" fill-opacity="1" stroke="#000000" stroke-opacity="1" stroke-width="3.2"/>
<circle clip-path="url(#clip312)" cx="1920.26" cy="486.068" r="14.4" fill="#e26f46" fill-rule="evenodd" fill-opacity="1" stroke="#000000" stroke-opacity="1" stroke-width="3.2"/>
<circle clip-path="url(#clip312)" cx="2273.62" cy="785.945" r="14.4" fill="#e26f46" fill-rule="evenodd" fill-opacity="1" stroke="#000000" stroke-opacity="1" stroke-width="3.2"/>
<circle clip-path="url(#clip312)" cx="800.608" cy="423.53" r="14.4" fill="#e26f46" fill-rule="evenodd" fill-opacity="1" stroke="#000000" stroke-opacity="1" stroke-width="3.2"/>
<circle clip-path="url(#clip312)" cx="2265.09" cy="348.809" r="14.4" fill="#e26f46" fill-rule="evenodd" fill-opacity="1" stroke="#000000" stroke-opacity="1" stroke-width="3.2"/>
<circle clip-path="url(#clip312)" cx="1588.4" cy="613.087" r="14.4" fill="#e26f46" fill-rule="evenodd" fill-opacity="1" stroke="#000000" stroke-opacity="1" stroke-width="3.2"/>
<circle clip-path="url(#clip312)" cx="1613.57" cy="261.564" r="14.4" fill="#e26f46" fill-rule="evenodd" fill-opacity="1" stroke="#000000" stroke-opacity="1" stroke-width="3.2"/>
<circle clip-path="url(#clip312)" cx="2352.76" cy="555.114" r="14.4" fill="#e26f46" fill-rule="evenodd" fill-opacity="1" stroke="#000000" stroke-opacity="1" stroke-width="3.2"/>
<circle clip-path="url(#clip312)" cx="715.016" cy="405.1" r="14.4" fill="#e26f46" fill-rule="evenodd" fill-opacity="1" stroke="#000000" stroke-opacity="1" stroke-width="3.2"/>
<circle clip-path="url(#clip312)" cx="1420.84" cy="465.03" r="14.4" fill="#e26f46" fill-rule="evenodd" fill-opacity="1" stroke="#000000" stroke-opacity="1" stroke-width="3.2"/>
<circle clip-path="url(#clip312)" cx="2216.52" cy="511.652" r="14.4" fill="#e26f46" fill-rule="evenodd" fill-opacity="1" stroke="#000000" stroke-opacity="1" stroke-width="3.2"/>
<circle clip-path="url(#clip312)" cx="1249.97" cy="402.686" r="14.4" fill="#e26f46" fill-rule="evenodd" fill-opacity="1" stroke="#000000" stroke-opacity="1" stroke-width="3.2"/>
<circle clip-path="url(#clip312)" cx="503.214" cy="216.705" r="14.4" fill="#e26f46" fill-rule="evenodd" fill-opacity="1" stroke="#000000" stroke-opacity="1" stroke-width="3.2"/>
<circle clip-path="url(#clip312)" cx="1818.96" cy="54.5712" r="14.4" fill="#e26f46" fill-rule="evenodd" fill-opacity="1" stroke="#000000" stroke-opacity="1" stroke-width="3.2"/>
<path clip-path="url(#clip310)" d="M1945.7 440.581 L2287.1 440.581 L2287.1 90.6606 L1945.7 90.6606  Z" fill="#ffffff" fill-rule="evenodd" fill-opacity="1"/>
<polyline clip-path="url(#clip310)" style="stroke:#000000; stroke-linecap:round; stroke-linejoin:round; stroke-width:4; stroke-opacity:1; fill:none" points="1945.7,440.581 2287.1,440.581 2287.1,90.6606 1945.7,90.6606 1945.7,440.581 "/>
<circle clip-path="url(#clip310)" cx="2033.24" cy="207.301" r="46.08" fill="#009af9" fill-rule="evenodd" fill-opacity="1" stroke="#000000" stroke-opacity="1" stroke-width="10.24"/>
<path clip-path="url(#clip310)" d="M2120.78 207.831 Q2120.78 194.04 2123.59 185.659 Q2126.46 177.226 2132.03 172.664 Q2137.65 168.102 2146.13 168.102 Q2152.39 168.102 2157.11 170.648 Q2161.83 173.141 2164.91 177.915 Q2167.99 182.636 2169.74 189.478 Q2171.49 196.268 2171.49 207.831 Q2171.49 221.516 2168.68 229.95 Q2165.87 238.33 2160.24 242.945 Q2154.67 247.507 2146.13 247.507 Q2134.89 247.507 2128.47 239.444 Q2120.78 229.738 2120.78 207.831 M2130.59 207.831 Q2130.59 226.979 2135.05 233.344 Q2139.56 239.656 2146.13 239.656 Q2152.71 239.656 2157.17 233.291 Q2161.68 226.926 2161.68 207.831 Q2161.68 188.63 2157.17 182.318 Q2152.71 176.006 2146.03 176.006 Q2139.45 176.006 2135.53 181.575 Q2130.59 188.683 2130.59 207.831 Z" fill="#000000" fill-rule="nonzero" fill-opacity="1" /><path clip-path="url(#clip310)" d="M2186.55 246.181 L2186.55 235.307 L2197.43 235.307 L2197.43 246.181 L2186.55 246.181 Z" fill="#000000" fill-rule="nonzero" fill-opacity="1" /><path clip-path="url(#clip310)" d="M2211.38 207.831 Q2211.38 194.04 2214.19 185.659 Q2217.05 177.226 2222.62 172.664 Q2228.24 168.102 2236.73 168.102 Q2242.99 168.102 2247.71 170.648 Q2252.43 173.141 2255.51 177.915 Q2258.58 182.636 2260.33 189.478 Q2262.08 196.268 2262.08 207.831 Q2262.08 221.516 2259.27 229.95 Q2256.46 238.33 2250.84 242.945 Q2245.27 247.507 2236.73 247.507 Q2225.49 247.507 2219.07 239.444 Q2211.38 229.738 2211.38 207.831 M2221.19 207.831 Q2221.19 226.979 2225.64 233.344 Q2230.15 239.656 2236.73 239.656 Q2243.31 239.656 2247.76 233.291 Q2252.27 226.926 2252.27 207.831 Q2252.27 188.63 2247.76 182.318 Q2243.31 176.006 2236.62 176.006 Q2230.05 176.006 2226.12 181.575 Q2221.19 188.683 2221.19 207.831 Z" fill="#000000" fill-rule="nonzero" fill-opacity="1" /><circle clip-path="url(#clip310)" cx="2033.24" cy="323.941" r="46.08" fill="#e26f46" fill-rule="evenodd" fill-opacity="1" stroke="#000000" stroke-opacity="1" stroke-width="10.24"/>
<path clip-path="url(#clip310)" d="M2154.51 362.821 L2154.51 344.203 L2120.78 344.203 L2120.78 335.451 L2156.27 285.061 L2164.06 285.061 L2164.06 335.451 L2174.56 335.451 L2174.56 344.203 L2164.06 344.203 L2164.06 362.821 L2154.51 362.821 M2154.51 335.451 L2154.51 300.39 L2130.17 335.451 L2154.51 335.451 Z" fill="#000000" fill-rule="nonzero" fill-opacity="1" /><path clip-path="url(#clip310)" d="M2189.68 362.821 L2189.68 351.947 L2200.56 351.947 L2200.56 362.821 L2189.68 362.821 Z" fill="#000000" fill-rule="nonzero" fill-opacity="1" /><path clip-path="url(#clip310)" d="M2214.51 324.471 Q2214.51 310.68 2217.32 302.299 Q2220.18 293.866 2225.75 289.304 Q2231.37 284.742 2239.86 284.742 Q2246.12 284.742 2250.84 287.288 Q2255.56 289.781 2258.64 294.555 Q2261.71 299.276 2263.46 306.118 Q2265.21 312.908 2265.21 324.471 Q2265.21 338.156 2262.4 346.59 Q2259.59 354.97 2253.97 359.585 Q2248.4 364.147 2239.86 364.147 Q2228.62 364.147 2222.2 356.084 Q2214.51 346.378 2214.51 324.471 M2224.32 324.471 Q2224.32 343.619 2228.77 349.984 Q2233.28 356.296 2239.86 356.296 Q2246.44 356.296 2250.89 349.931 Q2255.4 343.566 2255.4 324.471 Q2255.4 305.27 2250.89 298.958 Q2246.44 292.646 2239.75 292.646 Q2233.18 292.646 2229.25 298.215 Q2224.32 305.323 2224.32 324.471 Z" fill="#000000" fill-rule="nonzero" fill-opacity="1" /></svg>
