<?xml version="1.0" encoding="utf-8"?>
<svg xmlns="http://www.w3.org/2000/svg" xmlns:xlink="http://www.w3.org/1999/xlink" width="600" height="400" viewBox="0 0 2400 1600">
<defs>
  <clipPath id="clip060">
    <rect x="0" y="0" width="2400" height="1600"/>
  </clipPath>
</defs>
<path clip-path="url(#clip060)" d="M0 1600 L2400 1600 L2400 8.88178e-14 L0 8.88178e-14  Z" fill="#ffffff" fill-rule="evenodd" fill-opacity="1"/>
<defs>
  <clipPath id="clip061">
    <rect x="480" y="0" width="1681" height="1600"/>
  </clipPath>
</defs>
<path clip-path="url(#clip060)" d="M315.334 1349.74 L2352.76 1349.74 L2352.76 47.2441 L315.334 47.2441  Z" fill="#ffffff" fill-rule="evenodd" fill-opacity="1"/>
<defs>
  <clipPath id="clip062">
    <rect x="315" y="47" width="2038" height="1303"/>
  </clipPath>
</defs>
<polyline clip-path="url(#clip060)" style="stroke:#000000; stroke-linecap:round; stroke-linejoin:round; stroke-width:4; stroke-opacity:1; fill:none" points="315.334,1349.74 2352.76,1349.74 "/>
<polyline clip-path="url(#clip060)" style="stroke:#000000; stroke-linecap:round; stroke-linejoin:round; stroke-width:2; stroke-opacity:0.5; fill:none" points="315.334,47.2441 2352.76,47.2441 "/>
<polyline clip-path="url(#clip060)" style="stroke:#000000; stroke-linecap:round; stroke-linejoin:round; stroke-width:4; stroke-opacity:1; fill:none" points="785.508,1349.74 785.508,1330.84 "/>
<polyline clip-path="url(#clip060)" style="stroke:#000000; stroke-linecap:round; stroke-linejoin:round; stroke-width:4; stroke-opacity:1; fill:none" points="1307.92,1349.74 1307.92,1330.84 "/>
<polyline clip-path="url(#clip060)" style="stroke:#000000; stroke-linecap:round; stroke-linejoin:round; stroke-width:4; stroke-opacity:1; fill:none" points="1830.34,1349.74 1830.34,1330.84 "/>
<polyline clip-path="url(#clip060)" style="stroke:#000000; stroke-linecap:round; stroke-linejoin:round; stroke-width:4; stroke-opacity:1; fill:none" points="2352.76,1349.74 2352.76,1330.84 "/>
<path clip-path="url(#clip060)" d="M762.249 1466.14 L752.701 1466.14 L752.701 1405.3 Q749.254 1408.59 743.631 1411.88 Q738.062 1415.17 733.606 1416.81 L733.606 1407.58 Q741.616 1403.82 747.609 1398.46 Q753.603 1393.1 756.096 1388.06 L762.249 1388.06 L762.249 1466.14 Z" fill="#000000" fill-rule="nonzero" fill-opacity="1" /><path clip-path="url(#clip060)" d="M786.701 1427.79 Q786.701 1414 789.513 1405.62 Q792.377 1397.18 797.946 1392.62 Q803.569 1388.06 812.056 1388.06 Q818.315 1388.06 823.035 1390.61 Q827.756 1393.1 830.833 1397.87 Q833.909 1402.6 835.66 1409.44 Q837.41 1416.23 837.41 1427.79 Q837.41 1441.48 834.599 1449.91 Q831.787 1458.29 826.165 1462.9 Q820.596 1467.47 812.056 1467.47 Q800.811 1467.47 794.393 1459.4 Q786.701 1449.7 786.701 1427.79 M796.514 1427.79 Q796.514 1446.94 800.97 1453.3 Q805.478 1459.62 812.056 1459.62 Q818.633 1459.62 823.088 1453.25 Q827.597 1446.89 827.597 1427.79 Q827.597 1408.59 823.088 1402.28 Q818.633 1395.96 811.95 1395.96 Q805.372 1395.96 801.447 1401.53 Q796.514 1408.64 796.514 1427.79 Z" fill="#000000" fill-rule="nonzero" fill-opacity="1" /><path clip-path="url(#clip060)" d="M1303.2 1456.96 L1303.2 1466.14 L1251.81 1466.14 Q1251.7 1462.69 1252.92 1459.51 Q1254.88 1454.26 1259.18 1449.17 Q1263.53 1444.07 1271.7 1437.39 Q1284.37 1426.99 1288.83 1420.95 Q1293.28 1414.85 1293.28 1409.44 Q1293.28 1403.76 1289.2 1399.89 Q1285.17 1395.96 1278.64 1395.96 Q1271.75 1395.96 1267.61 1400.1 Q1263.47 1404.24 1263.42 1411.56 L1253.61 1410.55 Q1254.62 1399.57 1261.19 1393.84 Q1267.77 1388.06 1278.86 1388.06 Q1290.05 1388.06 1296.57 1394.27 Q1303.1 1400.47 1303.1 1409.65 Q1303.1 1414.32 1301.19 1418.83 Q1299.28 1423.33 1294.82 1428.32 Q1290.42 1433.31 1280.13 1442.01 Q1271.54 1449.22 1269.1 1451.82 Q1266.66 1454.36 1265.07 1456.96 L1303.2 1456.96 Z" fill="#000000" fill-rule="nonzero" fill-opacity="1" /><path clip-path="url(#clip060)" d="M1313.44 1427.79 Q1313.44 1414 1316.25 1405.62 Q1319.12 1397.18 1324.69 1392.62 Q1330.31 1388.06 1338.79 1388.06 Q1345.05 1388.06 1349.77 1390.61 Q1354.5 1393.1 1357.57 1397.87 Q1360.65 1402.6 1362.4 1409.44 Q1364.15 1416.23 1364.15 1427.79 Q1364.15 1441.48 1361.34 1449.91 Q1358.53 1458.29 1352.9 1462.9 Q1347.33 1467.47 1338.79 1467.47 Q1327.55 1467.47 1321.13 1459.4 Q1313.44 1449.7 1313.44 1427.79 M1323.25 1427.79 Q1323.25 1446.94 1327.71 1453.3 Q1332.22 1459.62 1338.79 1459.62 Q1345.37 1459.62 1349.83 1453.25 Q1354.34 1446.89 1354.34 1427.79 Q1354.34 1408.59 1349.83 1402.28 Q1345.37 1395.96 1338.69 1395.96 Q1332.11 1395.96 1328.19 1401.53 Q1323.25 1408.64 1323.25 1427.79 Z" fill="#000000" fill-rule="nonzero" fill-opacity="1" /><path clip-path="url(#clip060)" d="M1774.8 1445.61 L1784.35 1444.34 Q1786 1452.45 1789.92 1456.06 Q1793.9 1459.62 1799.58 1459.62 Q1806.31 1459.62 1810.93 1454.95 Q1815.59 1450.28 1815.59 1443.38 Q1815.59 1436.81 1811.3 1432.56 Q1807 1428.27 1800.37 1428.27 Q1797.67 1428.27 1793.63 1429.33 L1794.7 1420.95 Q1795.65 1421.05 1796.23 1421.05 Q1802.33 1421.05 1807.21 1417.87 Q1812.09 1414.69 1812.09 1408.06 Q1812.09 1402.81 1808.54 1399.36 Q1804.99 1395.91 1799.36 1395.91 Q1793.79 1395.91 1790.08 1399.41 Q1786.37 1402.91 1785.31 1409.92 L1775.76 1408.22 Q1777.51 1398.62 1783.72 1393.37 Q1789.92 1388.06 1799.15 1388.06 Q1805.52 1388.06 1810.87 1390.82 Q1816.23 1393.52 1819.04 1398.25 Q1821.91 1402.97 1821.91 1408.27 Q1821.91 1413.31 1819.2 1417.45 Q1816.5 1421.58 1811.19 1424.02 Q1818.09 1425.62 1821.91 1430.65 Q1825.73 1435.64 1825.73 1443.17 Q1825.73 1453.36 1818.3 1460.46 Q1810.87 1467.52 1799.52 1467.52 Q1789.29 1467.52 1782.5 1461.42 Q1775.76 1455.32 1774.8 1445.61 Z" fill="#000000" fill-rule="nonzero" fill-opacity="1" /><path clip-path="url(#clip060)" d="M1835.17 1427.79 Q1835.17 1414 1837.98 1405.62 Q1840.84 1397.18 1846.41 1392.62 Q1852.03 1388.06 1860.52 1388.06 Q1866.78 1388.06 1871.5 1390.61 Q1876.22 1393.1 1879.3 1397.87 Q1882.37 1402.6 1884.12 1409.44 Q1885.88 1416.23 1885.88 1427.79 Q1885.88 1441.48 1883.06 1449.91 Q1880.25 1458.29 1874.63 1462.9 Q1869.06 1467.47 1860.52 1467.47 Q1849.28 1467.47 1842.86 1459.4 Q1835.17 1449.7 1835.17 1427.79 M1844.98 1427.79 Q1844.98 1446.94 1849.44 1453.3 Q1853.94 1459.62 1860.52 1459.62 Q1867.1 1459.62 1871.55 1453.25 Q1876.06 1446.89 1876.06 1427.79 Q1876.06 1408.59 1871.55 1402.28 Q1867.1 1395.96 1860.41 1395.96 Q1853.84 1395.96 1849.91 1401.53 Q1844.98 1408.64 1844.98 1427.79 Z" fill="#000000" fill-rule="nonzero" fill-opacity="1" /><path clip-path="url(#clip060)" d="M2329.36 1466.14 L2329.36 1447.52 L2295.63 1447.52 L2295.63 1438.77 L2331.11 1388.38 L2338.91 1388.38 L2338.91 1438.77 L2349.41 1438.77 L2349.41 1447.52 L2338.91 1447.52 L2338.91 1466.14 L2329.36 1466.14 M2329.36 1438.77 L2329.36 1403.71 L2305.02 1438.77 L2329.36 1438.77 Z" fill="#000000" fill-rule="nonzero" fill-opacity="1" /><path clip-path="url(#clip060)" d="M2359.17 1427.79 Q2359.17 1414 2361.99 1405.62 Q2364.85 1397.18 2370.42 1392.62 Q2376.04 1388.06 2384.53 1388.06 Q2390.79 1388.06 2395.51 1390.61 Q2400.23 1393.1 2403.31 1397.87 Q2406.38 1402.6 2408.13 1409.44 Q2409.88 1416.23 2409.88 1427.79 Q2409.88 1441.48 2407.07 1449.91 Q2404.26 1458.29 2398.64 1462.9 Q2393.07 1467.47 2384.53 1467.47 Q2373.28 1467.47 2366.87 1459.4 Q2359.17 1449.7 2359.17 1427.79 M2368.99 1427.79 Q2368.99 1446.94 2373.44 1453.3 Q2377.95 1459.62 2384.53 1459.62 Q2391.11 1459.62 2395.56 1453.25 Q2400.07 1446.89 2400.07 1427.79 Q2400.07 1408.59 2395.56 1402.28 Q2391.11 1395.96 2384.42 1395.96 Q2377.84 1395.96 2373.92 1401.53 Q2368.99 1408.64 2368.99 1427.79 Z" fill="#000000" fill-rule="nonzero" fill-opacity="1" /><path clip-path="url(#clip060)" d="M1233.48 1577.55 L1243.34 1578.77 Q1241.01 1587.42 1234.7 1592.19 Q1228.38 1596.96 1218.57 1596.96 Q1206.21 1596.96 1198.95 1589.38 Q1191.73 1581.74 1191.73 1568 Q1191.73 1553.79 1199.05 1545.94 Q1206.37 1538.09 1218.04 1538.09 Q1229.34 1538.09 1236.5 1545.78 Q1243.66 1553.47 1243.66 1567.42 Q1243.66 1568.27 1243.61 1569.97 L1201.6 1569.97 Q1202.13 1579.25 1206.85 1584.18 Q1211.57 1589.11 1218.62 1589.11 Q1223.88 1589.11 1227.59 1586.36 Q1231.3 1583.6 1233.48 1577.55 M1202.13 1562.12 L1233.58 1562.12 Q1232.95 1555.01 1229.98 1551.45 Q1225.41 1545.94 1218.15 1545.94 Q1211.57 1545.94 1207.06 1550.34 Q1202.61 1554.74 1202.13 1562.12 Z" fill="#000000" fill-rule="nonzero" fill-opacity="1" /><path clip-path="url(#clip060)" d="M1255.33 1617.28 L1255.33 1539.36 L1264.03 1539.36 L1264.03 1546.68 Q1267.11 1542.38 1270.98 1540.26 Q1274.85 1538.09 1280.37 1538.09 Q1287.58 1538.09 1293.1 1541.8 Q1298.61 1545.51 1301.42 1552.3 Q1304.24 1559.04 1304.24 1567.1 Q1304.24 1575.75 1301.11 1582.7 Q1298.03 1589.59 1292.09 1593.3 Q1286.2 1596.96 1279.68 1596.96 Q1274.9 1596.96 1271.08 1594.95 Q1267.32 1592.93 1264.88 1589.86 L1264.88 1617.28 L1255.33 1617.28 M1263.98 1567.84 Q1263.98 1578.72 1268.38 1583.92 Q1272.78 1589.11 1279.04 1589.11 Q1285.41 1589.11 1289.91 1583.76 Q1294.48 1578.35 1294.48 1567.05 Q1294.48 1556.28 1290.02 1550.92 Q1285.62 1545.57 1279.46 1545.57 Q1273.36 1545.57 1268.64 1551.3 Q1263.98 1556.97 1263.98 1567.84 Z" fill="#000000" fill-rule="nonzero" fill-opacity="1" /><path clip-path="url(#clip060)" d="M1312.19 1567.53 Q1312.19 1551.88 1320.89 1544.35 Q1328.16 1538.09 1338.61 1538.09 Q1350.22 1538.09 1357.6 1545.73 Q1364.97 1553.31 1364.97 1566.73 Q1364.97 1577.6 1361.68 1583.86 Q1358.44 1590.07 1352.19 1593.52 Q1345.98 1596.96 1338.61 1596.96 Q1326.78 1596.96 1319.46 1589.38 Q1312.19 1581.79 1312.19 1567.53 M1322 1567.53 Q1322 1578.35 1326.72 1583.76 Q1331.45 1589.11 1338.61 1589.11 Q1345.71 1589.11 1350.43 1583.7 Q1355.16 1578.29 1355.16 1567.21 Q1355.16 1556.76 1350.38 1551.4 Q1345.66 1545.99 1338.61 1545.99 Q1331.45 1545.99 1326.72 1551.35 Q1322 1556.71 1322 1567.53 Z" fill="#000000" fill-rule="nonzero" fill-opacity="1" /><path clip-path="url(#clip060)" d="M1412.92 1575.06 L1422.31 1576.28 Q1420.77 1585.99 1414.4 1591.5 Q1408.09 1596.96 1398.86 1596.96 Q1387.3 1596.96 1380.24 1589.43 Q1373.24 1581.85 1373.24 1567.74 Q1373.24 1558.62 1376.27 1551.77 Q1379.29 1544.93 1385.44 1541.54 Q1391.65 1538.09 1398.92 1538.09 Q1408.09 1538.09 1413.93 1542.76 Q1419.76 1547.37 1421.41 1555.91 L1412.12 1557.34 Q1410.8 1551.67 1407.4 1548.8 Q1404.06 1545.94 1399.29 1545.94 Q1392.07 1545.94 1387.56 1551.14 Q1383.06 1556.28 1383.06 1567.47 Q1383.06 1578.82 1387.41 1583.97 Q1391.75 1589.11 1398.76 1589.11 Q1404.38 1589.11 1408.14 1585.67 Q1411.91 1582.22 1412.92 1575.06 Z" fill="#000000" fill-rule="nonzero" fill-opacity="1" /><path clip-path="url(#clip060)" d="M1430.48 1595.69 L1430.48 1517.93 L1440.02 1517.93 L1440.02 1545.83 Q1446.71 1538.09 1456.89 1538.09 Q1463.15 1538.09 1467.76 1540.58 Q1472.38 1543.02 1474.34 1547.37 Q1476.36 1551.72 1476.36 1559.99 L1476.36 1595.69 L1466.81 1595.69 L1466.81 1559.99 Q1466.81 1552.83 1463.68 1549.6 Q1460.6 1546.31 1454.93 1546.31 Q1450.68 1546.31 1446.92 1548.54 Q1443.21 1550.71 1441.61 1554.48 Q1440.02 1558.24 1440.02 1564.87 L1440.02 1595.69 L1430.48 1595.69 Z" fill="#000000" fill-rule="nonzero" fill-opacity="1" /><polyline clip-path="url(#clip060)" style="stroke:#000000; stroke-linecap:round; stroke-linejoin:round; stroke-width:4; stroke-opacity:1; fill:none" points="315.334,1349.74 315.334,47.2441 "/>
<polyline clip-path="url(#clip060)" style="stroke:#000000; stroke-linecap:round; stroke-linejoin:round; stroke-width:2; stroke-opacity:0.5; fill:none" points="2352.76,1349.74 2352.76,47.2441 "/>
<polyline clip-path="url(#clip060)" style="stroke:#000000; stroke-linecap:round; stroke-linejoin:round; stroke-width:4; stroke-opacity:1; fill:none" points="315.334,1322.12 334.231,1322.12 "/>
<polyline clip-path="url(#clip060)" style="stroke:#000000; stroke-linecap:round; stroke-linejoin:round; stroke-width:4; stroke-opacity:1; fill:none" points="315.334,993.732 334.231,993.732 "/>
<polyline clip-path="url(#clip060)" style="stroke:#000000; stroke-linecap:round; stroke-linejoin:round; stroke-width:4; stroke-opacity:1; fill:none" points="315.334,665.34 334.231,665.34 "/>
<polyline clip-path="url(#clip060)" style="stroke:#000000; stroke-linecap:round; stroke-linejoin:round; stroke-width:4; stroke-opacity:1; fill:none" points="315.334,336.948 334.231,336.948 "/>
<path clip-path="url(#clip060)" d="M174.045 1361 L164.497 1361 L164.497 1300.16 Q161.049 1303.45 155.427 1306.74 Q149.857 1310.03 145.402 1311.68 L145.402 1302.45 Q153.411 1298.68 159.405 1293.32 Q165.399 1287.97 167.892 1282.93 L174.045 1282.93 L174.045 1361 Z" fill="#000000" fill-rule="nonzero" fill-opacity="1" /><path clip-path="url(#clip060)" d="M203.854 1361 L203.854 1350.13 L214.728 1350.13 L214.728 1361 L203.854 1361 Z" fill="#000000" fill-rule="nonzero" fill-opacity="1" /><path clip-path="url(#clip060)" d="M259.284 1361 L259.284 1342.39 L225.549 1342.39 L225.549 1333.63 L261.034 1283.24 L268.831 1283.24 L268.831 1333.63 L279.334 1333.63 L279.334 1342.39 L268.831 1342.39 L268.831 1361 L259.284 1361 M259.284 1333.63 L259.284 1298.57 L234.937 1333.63 L259.284 1333.63 Z" fill="#000000" fill-rule="nonzero" fill-opacity="1" /><path clip-path="url(#clip060)" d="M173.143 1032.61 L163.595 1032.61 L163.595 971.773 Q160.148 975.061 154.525 978.35 Q148.956 981.639 144.5 983.283 L144.5 974.054 Q152.51 970.288 158.503 964.93 Q164.497 959.573 166.99 954.534 L173.143 954.534 L173.143 1032.61 Z" fill="#000000" fill-rule="nonzero" fill-opacity="1" /><path clip-path="url(#clip060)" d="M202.953 1032.61 L202.953 1021.74 L213.826 1021.74 L213.826 1032.61 L202.953 1032.61 Z" fill="#000000" fill-rule="nonzero" fill-opacity="1" /><path clip-path="url(#clip060)" d="M227.777 1012.24 L237.802 1011.4 Q238.915 1018.72 242.947 1022.43 Q247.031 1026.09 252.759 1026.09 Q259.655 1026.09 264.429 1020.89 Q269.203 1015.69 269.203 1007.1 Q269.203 998.93 264.588 994.21 Q260.026 989.489 252.6 989.489 Q247.986 989.489 244.273 991.611 Q240.56 993.679 238.438 997.021 L229.474 995.854 L237.006 955.913 L275.674 955.913 L275.674 965.036 L244.644 965.036 L240.454 985.935 Q247.455 981.055 255.146 981.055 Q265.33 981.055 272.332 988.11 Q279.334 995.164 279.334 1006.25 Q279.334 1016.81 273.181 1024.5 Q265.702 1033.94 252.759 1033.94 Q242.151 1033.94 235.415 1028 Q228.731 1022.06 227.777 1012.24 Z" fill="#000000" fill-rule="nonzero" fill-opacity="1" /><path clip-path="url(#clip060)" d="M173.78 704.22 L164.232 704.22 L164.232 643.381 Q160.784 646.669 155.162 649.958 Q149.592 653.247 145.137 654.891 L145.137 645.661 Q153.146 641.895 159.14 636.538 Q165.134 631.181 167.627 626.142 L173.78 626.142 L173.78 704.22 Z" fill="#000000" fill-rule="nonzero" fill-opacity="1" /><path clip-path="url(#clip060)" d="M203.589 704.22 L203.589 693.346 L214.463 693.346 L214.463 704.22 L203.589 704.22 Z" fill="#000000" fill-rule="nonzero" fill-opacity="1" /><path clip-path="url(#clip060)" d="M277.955 645.502 L268.46 646.245 Q267.187 640.622 264.853 638.076 Q260.981 633.992 255.306 633.992 Q250.744 633.992 247.296 636.538 Q242.788 639.827 240.188 646.139 Q237.589 652.451 237.483 664.12 Q240.931 658.869 245.917 656.323 Q250.903 653.777 256.366 653.777 Q265.914 653.777 272.597 660.832 Q279.334 667.833 279.334 678.972 Q279.334 686.292 276.151 692.604 Q273.022 698.863 267.505 702.205 Q261.989 705.546 254.987 705.546 Q243.053 705.546 235.521 696.794 Q227.989 687.989 227.989 667.833 Q227.989 645.29 236.316 635.053 Q243.583 626.142 255.889 626.142 Q265.065 626.142 270.9 631.287 Q276.788 636.432 277.955 645.502 M238.968 679.025 Q238.968 683.958 241.037 688.467 Q243.159 692.975 246.925 695.362 Q250.691 697.696 254.828 697.696 Q260.875 697.696 265.224 692.816 Q269.574 687.936 269.574 679.556 Q269.574 671.493 265.277 666.878 Q260.981 662.211 254.457 662.211 Q247.986 662.211 243.477 666.878 Q238.968 671.493 238.968 679.025 Z" fill="#000000" fill-rule="nonzero" fill-opacity="1" /><path clip-path="url(#clip060)" d="M173.726 375.828 L164.179 375.828 L164.179 314.989 Q160.731 318.277 155.109 321.566 Q149.539 324.854 145.084 326.499 L145.084 317.269 Q153.093 313.503 159.087 308.146 Q165.081 302.789 167.574 297.75 L173.726 297.75 L173.726 375.828 Z" fill="#000000" fill-rule="nonzero" fill-opacity="1" /><path clip-path="url(#clip060)" d="M203.536 375.828 L203.536 364.954 L214.41 364.954 L214.41 375.828 L203.536 375.828 Z" fill="#000000" fill-rule="nonzero" fill-opacity="1" /><path clip-path="url(#clip060)" d="M228.997 308.252 L228.997 299.076 L279.334 299.076 L279.334 306.502 Q271.908 314.405 264.588 327.507 Q257.321 340.608 253.343 354.452 Q250.479 364.212 249.683 375.828 L239.87 375.828 Q240.029 366.652 243.477 353.656 Q246.925 340.661 253.343 328.62 Q259.814 316.527 267.081 308.252 L228.997 308.252 Z" fill="#000000" fill-rule="nonzero" fill-opacity="1" /><path clip-path="url(#clip060)" d="M85.1722 789.513 L7.41216 789.513 L7.41216 779.965 L85.1722 779.965 L85.1722 789.513 Z" fill="#000000" fill-rule="nonzero" fill-opacity="1" /><path clip-path="url(#clip060)" d="M57.0067 768.72 Q41.3592 768.72 33.8272 760.021 Q27.5682 752.754 27.5682 742.305 Q27.5682 730.689 35.2063 723.316 Q42.7914 715.943 56.2111 715.943 Q67.0847 715.943 73.3437 719.232 Q79.5497 722.467 82.9974 728.726 Q86.4452 734.932 86.4452 742.305 Q86.4452 754.133 78.8601 761.453 Q71.2751 768.72 57.0067 768.72 M57.0067 758.907 Q67.8273 758.907 73.2376 754.186 Q78.5949 749.466 78.5949 742.305 Q78.5949 735.197 73.1846 730.476 Q67.7743 725.756 56.6884 725.756 Q46.2391 725.756 40.8818 730.53 Q35.4715 735.25 35.4715 742.305 Q35.4715 749.466 40.8288 754.186 Q46.1861 758.907 57.0067 758.907 Z" fill="#000000" fill-rule="nonzero" fill-opacity="1" /><path clip-path="url(#clip060)" d="M68.3578 708.57 L66.8726 699.128 Q72.5481 698.333 75.5715 694.726 Q78.5949 691.066 78.5949 684.542 Q78.5949 677.965 75.9428 674.782 Q73.2376 671.6 69.6308 671.6 Q66.3952 671.6 64.5387 674.411 Q63.2657 676.373 61.3031 684.171 Q58.651 694.673 56.7415 698.757 Q54.7789 702.788 51.3842 704.91 Q47.9365 706.979 43.7992 706.979 Q40.0332 706.979 36.8506 705.281 Q33.615 703.531 31.4934 700.561 Q29.849 698.333 28.7352 694.514 Q27.5682 690.642 27.5682 686.239 Q27.5682 679.609 29.4778 674.623 Q31.3873 669.584 34.6759 667.197 Q37.9115 664.81 43.3748 663.908 L44.6478 673.244 Q40.2984 673.88 37.8584 676.957 Q35.4185 679.98 35.4185 685.55 Q35.4185 692.127 37.5932 694.938 Q39.768 697.749 42.6853 697.749 Q44.5418 697.749 46.0269 696.582 Q47.5652 695.416 48.573 692.923 Q49.1034 691.49 51.0129 684.489 Q53.7181 674.358 55.4685 670.38 Q57.1658 666.348 60.4544 664.068 Q63.7431 661.787 68.623 661.787 Q73.3968 661.787 77.6402 664.598 Q81.8305 667.356 84.1644 672.607 Q86.4452 677.859 86.4452 684.489 Q86.4452 695.469 81.8835 701.25 Q77.3219 706.979 68.3578 708.57 Z" fill="#000000" fill-rule="nonzero" fill-opacity="1" /><path clip-path="url(#clip060)" d="M68.3578 654.255 L66.8726 644.813 Q72.5481 644.018 75.5715 640.411 Q78.5949 636.751 78.5949 630.227 Q78.5949 623.649 75.9428 620.467 Q73.2376 617.284 69.6308 617.284 Q66.3952 617.284 64.5387 620.095 Q63.2657 622.058 61.3031 629.855 Q58.651 640.358 56.7415 644.442 Q54.7789 648.473 51.3842 650.595 Q47.9365 652.663 43.7992 652.663 Q40.0332 652.663 36.8506 650.966 Q33.615 649.216 31.4934 646.245 Q29.849 644.018 28.7352 640.198 Q27.5682 636.326 27.5682 631.924 Q27.5682 625.294 29.4778 620.308 Q31.3873 615.269 34.6759 612.882 Q37.9115 610.495 43.3748 609.593 L44.6478 618.929 Q40.2984 619.565 37.8584 622.641 Q35.4185 625.665 35.4185 631.234 Q35.4185 637.812 37.5932 640.623 Q39.768 643.434 42.6853 643.434 Q44.5418 643.434 46.0269 642.267 Q47.5652 641.1 48.573 638.607 Q49.1034 637.175 51.0129 630.173 Q53.7181 620.042 55.4685 616.064 Q57.1658 612.033 60.4544 609.752 Q63.7431 607.471 68.623 607.471 Q73.3968 607.471 77.6402 610.283 Q81.8305 613.041 84.1644 618.292 Q86.4452 623.543 86.4452 630.173 Q86.4452 641.153 81.8835 646.935 Q77.3219 652.663 68.3578 654.255 Z" fill="#000000" fill-rule="nonzero" fill-opacity="1" /><polyline clip-path="url(#clip062)" style="stroke:#009af9; stroke-linecap:round; stroke-linejoin:round; stroke-width:8; stroke-opacity:1; fill:none" points="315.334,47.2441 367.575,79.0082 419.817,110.772 472.058,142.536 524.3,174.301 576.542,206.065 628.783,237.829 681.025,269.593 733.266,301.357 785.508,333.121 837.75,364.885 889.991,396.649 942.233,428.413 994.474,460.178 1046.72,491.942 1098.96,523.706 1151.2,555.47 1203.44,587.234 1255.68,618.998 1307.92,650.762 1360.17,682.526 1412.41,714.29 1464.65,746.055 1516.89,777.819 1569.13,809.583 1621.37,841.347 1673.62,873.111 1725.86,904.875 1778.1,936.639 1830.34,968.403 1882.58,1000.17 1934.82,1031.93 1987.06,1063.7 2039.31,1095.46 2091.55,1127.22 2143.79,1158.99 2196.03,1190.75 2248.27,1222.52 2300.51,1254.28 2352.76,1286.04 "/>
<circle clip-path="url(#clip062)" cx="367.575" cy="79.0082" r="3.6" fill="#009af9" fill-rule="evenodd" fill-opacity="1" stroke="#000000" stroke-opacity="1" stroke-width="3.2"/>
<circle clip-path="url(#clip062)" cx="419.817" cy="110.772" r="3.6" fill="#009af9" fill-rule="evenodd" fill-opacity="1" stroke="#000000" stroke-opacity="1" stroke-width="3.2"/>
<circle clip-path="url(#clip062)" cx="472.058" cy="142.536" r="3.6" fill="#009af9" fill-rule="evenodd" fill-opacity="1" stroke="#000000" stroke-opacity="1" stroke-width="3.2"/>
<circle clip-path="url(#clip062)" cx="524.3" cy="174.301" r="3.6" fill="#009af9" fill-rule="evenodd" fill-opacity="1" stroke="#000000" stroke-opacity="1" stroke-width="3.2"/>
<circle clip-path="url(#clip062)" cx="576.542" cy="206.065" r="3.6" fill="#009af9" fill-rule="evenodd" fill-opacity="1" stroke="#000000" stroke-opacity="1" stroke-width="3.2"/>
<circle clip-path="url(#clip062)" cx="628.783" cy="237.829" r="3.6" fill="#009af9" fill-rule="evenodd" fill-opacity="1" stroke="#000000" stroke-opacity="1" stroke-width="3.2"/>
<circle clip-path="url(#clip062)" cx="681.025" cy="269.593" r="3.6" fill="#009af9" fill-rule="evenodd" fill-opacity="1" stroke="#000000" stroke-opacity="1" stroke-width="3.2"/>
<circle clip-path="url(#clip062)" cx="733.266" cy="301.357" r="3.6" fill="#009af9" fill-rule="evenodd" fill-opacity="1" stroke="#000000" stroke-opacity="1" stroke-width="3.2"/>
<circle clip-path="url(#clip062)" cx="785.508" cy="333.121" r="3.6" fill="#009af9" fill-rule="evenodd" fill-opacity="1" stroke="#000000" stroke-opacity="1" stroke-width="3.2"/>
<circle clip-path="url(#clip062)" cx="837.75" cy="364.885" r="3.6" fill="#009af9" fill-rule="evenodd" fill-opacity="1" stroke="#000000" stroke-opacity="1" stroke-width="3.2"/>
<circle clip-path="url(#clip062)" cx="889.991" cy="396.649" r="3.6" fill="#009af9" fill-rule="evenodd" fill-opacity="1" stroke="#000000" stroke-opacity="1" stroke-width="3.2"/>
<circle clip-path="url(#clip062)" cx="942.233" cy="428.413" r="3.6" fill="#009af9" fill-rule="evenodd" fill-opacity="1" stroke="#000000" stroke-opacity="1" stroke-width="3.2"/>
<circle clip-path="url(#clip062)" cx="994.474" cy="460.178" r="3.6" fill="#009af9" fill-rule="evenodd" fill-opacity="1" stroke="#000000" stroke-opacity="1" stroke-width="3.2"/>
<circle clip-path="url(#clip062)" cx="1046.72" cy="491.942" r="3.6" fill="#009af9" fill-rule="evenodd" fill-opacity="1" stroke="#000000" stroke-opacity="1" stroke-width="3.2"/>
<circle clip-path="url(#clip062)" cx="1098.96" cy="523.706" r="3.6" fill="#009af9" fill-rule="evenodd" fill-opacity="1" stroke="#000000" stroke-opacity="1" stroke-width="3.2"/>
<circle clip-path="url(#clip062)" cx="1151.2" cy="555.47" r="3.6" fill="#009af9" fill-rule="evenodd" fill-opacity="1" stroke="#000000" stroke-opacity="1" stroke-width="3.2"/>
<circle clip-path="url(#clip062)" cx="1203.44" cy="587.234" r="3.6" fill="#009af9" fill-rule="evenodd" fill-opacity="1" stroke="#000000" stroke-opacity="1" stroke-width="3.2"/>
<circle clip-path="url(#clip062)" cx="1255.68" cy="618.998" r="3.6" fill="#009af9" fill-rule="evenodd" fill-opacity="1" stroke="#000000" stroke-opacity="1" stroke-width="3.2"/>
<circle clip-path="url(#clip062)" cx="1307.92" cy="650.762" r="3.6" fill="#009af9" fill-rule="evenodd" fill-opacity="1" stroke="#000000" stroke-opacity="1" stroke-width="3.2"/>
<circle clip-path="url(#clip062)" cx="1360.17" cy="682.526" r="3.6" fill="#009af9" fill-rule="evenodd" fill-opacity="1" stroke="#000000" stroke-opacity="1" stroke-width="3.2"/>
<circle clip-path="url(#clip062)" cx="1412.41" cy="714.29" r="3.6" fill="#009af9" fill-rule="evenodd" fill-opacity="1" stroke="#000000" stroke-opacity="1" stroke-width="3.2"/>
<circle clip-path="url(#clip062)" cx="1464.65" cy="746.055" r="3.6" fill="#009af9" fill-rule="evenodd" fill-opacity="1" stroke="#000000" stroke-opacity="1" stroke-width="3.2"/>
<circle clip-path="url(#clip062)" cx="1516.89" cy="777.819" r="3.6" fill="#009af9" fill-rule="evenodd" fill-opacity="1" stroke="#000000" stroke-opacity="1" stroke-width="3.2"/>
<circle clip-path="url(#clip062)" cx="1569.13" cy="809.583" r="3.6" fill="#009af9" fill-rule="evenodd" fill-opacity="1" stroke="#000000" stroke-opacity="1" stroke-width="3.2"/>
<circle clip-path="url(#clip062)" cx="1621.37" cy="841.347" r="3.6" fill="#009af9" fill-rule="evenodd" fill-opacity="1" stroke="#000000" stroke-opacity="1" stroke-width="3.2"/>
<circle clip-path="url(#clip062)" cx="1673.62" cy="873.111" r="3.6" fill="#009af9" fill-rule="evenodd" fill-opacity="1" stroke="#000000" stroke-opacity="1" stroke-width="3.2"/>
<circle clip-path="url(#clip062)" cx="1725.86" cy="904.875" r="3.6" fill="#009af9" fill-rule="evenodd" fill-opacity="1" stroke="#000000" stroke-opacity="1" stroke-width="3.2"/>
<circle clip-path="url(#clip062)" cx="1778.1" cy="936.639" r="3.6" fill="#009af9" fill-rule="evenodd" fill-opacity="1" stroke="#000000" stroke-opacity="1" stroke-width="3.2"/>
<circle clip-path="url(#clip062)" cx="1830.34" cy="968.403" r="3.6" fill="#009af9" fill-rule="evenodd" fill-opacity="1" stroke="#000000" stroke-opacity="1" stroke-width="3.2"/>
<circle clip-path="url(#clip062)" cx="1882.58" cy="1000.17" r="3.6" fill="#009af9" fill-rule="evenodd" fill-opacity="1" stroke="#000000" stroke-opacity="1" stroke-width="3.2"/>
<circle clip-path="url(#clip062)" cx="1934.82" cy="1031.93" r="3.6" fill="#009af9" fill-rule="evenodd" fill-opacity="1" stroke="#000000" stroke-opacity="1" stroke-width="3.2"/>
<circle clip-path="url(#clip062)" cx="1987.06" cy="1063.7" r="3.6" fill="#009af9" fill-rule="evenodd" fill-opacity="1" stroke="#000000" stroke-opacity="1" stroke-width="3.2"/>
<circle clip-path="url(#clip062)" cx="2039.31" cy="1095.46" r="3.6" fill="#009af9" fill-rule="evenodd" fill-opacity="1" stroke="#000000" stroke-opacity="1" stroke-width="3.2"/>
<circle clip-path="url(#clip062)" cx="2091.55" cy="1127.22" r="3.6" fill="#009af9" fill-rule="evenodd" fill-opacity="1" stroke="#000000" stroke-opacity="1" stroke-width="3.2"/>
<circle clip-path="url(#clip062)" cx="2143.79" cy="1158.99" r="3.6" fill="#009af9" fill-rule="evenodd" fill-opacity="1" stroke="#000000" stroke-opacity="1" stroke-width="3.2"/>
<circle clip-path="url(#clip062)" cx="2196.03" cy="1190.75" r="3.6" fill="#009af9" fill-rule="evenodd" fill-opacity="1" stroke="#000000" stroke-opacity="1" stroke-width="3.2"/>
<circle clip-path="url(#clip062)" cx="2248.27" cy="1222.52" r="3.6" fill="#009af9" fill-rule="evenodd" fill-opacity="1" stroke="#000000" stroke-opacity="1" stroke-width="3.2"/>
<circle clip-path="url(#clip062)" cx="2300.51" cy="1254.28" r="3.6" fill="#009af9" fill-rule="evenodd" fill-opacity="1" stroke="#000000" stroke-opacity="1" stroke-width="3.2"/>
<circle clip-path="url(#clip062)" cx="2352.76" cy="1286.04" r="3.6" fill="#009af9" fill-rule="evenodd" fill-opacity="1" stroke="#000000" stroke-opacity="1" stroke-width="3.2"/>
<polyline clip-path="url(#clip062)" style="stroke:#e26f46; stroke-linecap:round; stroke-linejoin:round; stroke-width:8; stroke-opacity:1; fill:none" points="315.334,67.7251 367.575,100.597 419.817,133.469 472.058,166.342 524.3,199.214 576.542,232.086 628.783,264.958 681.025,297.83 733.266,330.702 785.508,363.575 837.75,396.447 889.991,429.319 942.233,462.191 994.474,495.063 1046.72,527.936 1098.96,560.808 1151.2,593.68 1203.44,626.552 1255.68,659.424 1307.92,692.296 1360.17,725.169 1412.41,758.041 1464.65,790.913 1516.89,823.785 1569.13,856.657 1621.37,889.529 1673.62,922.402 1725.86,955.274 1778.1,988.146 1830.34,1021.02 1882.58,1053.89 1934.82,1086.76 1987.06,1119.63 2039.31,1152.51 2091.55,1185.38 2143.79,1218.25 2196.03,1251.12 2248.27,1284 2300.51,1316.87 2352.76,1349.74 "/>
<circle clip-path="url(#clip062)" cx="315.334" cy="67.7251" r="3.6" fill="#e26f46" fill-rule="evenodd" fill-opacity="1" stroke="#000000" stroke-opacity="1" stroke-width="3.2"/>
<circle clip-path="url(#clip062)" cx="367.575" cy="100.597" r="3.6" fill="#e26f46" fill-rule="evenodd" fill-opacity="1" stroke="#000000" stroke-opacity="1" stroke-width="3.2"/>
<circle clip-path="url(#clip062)" cx="419.817" cy="133.469" r="3.6" fill="#e26f46" fill-rule="evenodd" fill-opacity="1" stroke="#000000" stroke-opacity="1" stroke-width="3.2"/>
<circle clip-path="url(#clip062)" cx="472.058" cy="166.342" r="3.6" fill="#e26f46" fill-rule="evenodd" fill-opacity="1" stroke="#000000" stroke-opacity="1" stroke-width="3.2"/>
<circle clip-path="url(#clip062)" cx="524.3" cy="199.214" r="3.6" fill="#e26f46" fill-rule="evenodd" fill-opacity="1" stroke="#000000" stroke-opacity="1" stroke-width="3.2"/>
<circle clip-path="url(#clip062)" cx="576.542" cy="232.086" r="3.6" fill="#e26f46" fill-rule="evenodd" fill-opacity="1" stroke="#000000" stroke-opacity="1" stroke-width="3.2"/>
<circle clip-path="url(#clip062)" cx="628.783" cy="264.958" r="3.6" fill="#e26f46" fill-rule="evenodd" fill-opacity="1" stroke="#000000" stroke-opacity="1" stroke-width="3.2"/>
<circle clip-path="url(#clip062)" cx="681.025" cy="297.83" r="3.6" fill="#e26f46" fill-rule="evenodd" fill-opacity="1" stroke="#000000" stroke-opacity="1" stroke-width="3.2"/>
<circle clip-path="url(#clip062)" cx="733.266" cy="330.702" r="3.6" fill="#e26f46" fill-rule="evenodd" fill-opacity="1" stroke="#000000" stroke-opacity="1" stroke-width="3.2"/>
<circle clip-path="url(#clip062)" cx="785.508" cy="363.575" r="3.6" fill="#e26f46" fill-rule="evenodd" fill-opacity="1" stroke="#000000" stroke-opacity="1" stroke-width="3.2"/>
<circle clip-path="url(#clip062)" cx="837.75" cy="396.447" r="3.6" fill="#e26f46" fill-rule="evenodd" fill-opacity="1" stroke="#000000" stroke-opacity="1" stroke-width="3.2"/>
<circle clip-path="url(#clip062)" cx="889.991" cy="429.319" r="3.6" fill="#e26f46" fill-rule="evenodd" fill-opacity="1" stroke="#000000" stroke-opacity="1" stroke-width="3.2"/>
<circle clip-path="url(#clip062)" cx="942.233" cy="462.191" r="3.6" fill="#e26f46" fill-rule="evenodd" fill-opacity="1" stroke="#000000" stroke-opacity="1" stroke-width="3.2"/>
<circle clip-path="url(#clip062)" cx="994.474" cy="495.063" r="3.6" fill="#e26f46" fill-rule="evenodd" fill-opacity="1" stroke="#000000" stroke-opacity="1" stroke-width="3.2"/>
<circle clip-path="url(#clip062)" cx="1046.72" cy="527.936" r="3.6" fill="#e26f46" fill-rule="evenodd" fill-opacity="1" stroke="#000000" stroke-opacity="1" stroke-width="3.2"/>
<circle clip-path="url(#clip062)" cx="1098.96" cy="560.808" r="3.6" fill="#e26f46" fill-rule="evenodd" fill-opacity="1" stroke="#000000" stroke-opacity="1" stroke-width="3.2"/>
<circle clip-path="url(#clip062)" cx="1151.2" cy="593.68" r="3.6" fill="#e26f46" fill-rule="evenodd" fill-opacity="1" stroke="#000000" stroke-opacity="1" stroke-width="3.2"/>
<circle clip-path="url(#clip062)" cx="1203.44" cy="626.552" r="3.6" fill="#e26f46" fill-rule="evenodd" fill-opacity="1" stroke="#000000" stroke-opacity="1" stroke-width="3.2"/>
<circle clip-path="url(#clip062)" cx="1255.68" cy="659.424" r="3.6" fill="#e26f46" fill-rule="evenodd" fill-opacity="1" stroke="#000000" stroke-opacity="1" stroke-width="3.2"/>
<circle clip-path="url(#clip062)" cx="1307.92" cy="692.296" r="3.6" fill="#e26f46" fill-rule="evenodd" fill-opacity="1" stroke="#000000" stroke-opacity="1" stroke-width="3.2"/>
<circle clip-path="url(#clip062)" cx="1360.17" cy="725.169" r="3.6" fill="#e26f46" fill-rule="evenodd" fill-opacity="1" stroke="#000000" stroke-opacity="1" stroke-width="3.2"/>
<circle clip-path="url(#clip062)" cx="1412.41" cy="758.041" r="3.6" fill="#e26f46" fill-rule="evenodd" fill-opacity="1" stroke="#000000" stroke-opacity="1" stroke-width="3.2"/>
<circle clip-path="url(#clip062)" cx="1464.65" cy="790.913" r="3.6" fill="#e26f46" fill-rule="evenodd" fill-opacity="1" stroke="#000000" stroke-opacity="1" stroke-width="3.2"/>
<circle clip-path="url(#clip062)" cx="1516.89" cy="823.785" r="3.6" fill="#e26f46" fill-rule="evenodd" fill-opacity="1" stroke="#000000" stroke-opacity="1" stroke-width="3.2"/>
<circle clip-path="url(#clip062)" cx="1569.13" cy="856.657" r="3.6" fill="#e26f46" fill-rule="evenodd" fill-opacity="1" stroke="#000000" stroke-opacity="1" stroke-width="3.2"/>
<circle clip-path="url(#clip062)" cx="1621.37" cy="889.529" r="3.6" fill="#e26f46" fill-rule="evenodd" fill-opacity="1" stroke="#000000" stroke-opacity="1" stroke-width="3.2"/>
<circle clip-path="url(#clip062)" cx="1673.62" cy="922.402" r="3.6" fill="#e26f46" fill-rule="evenodd" fill-opacity="1" stroke="#000000" stroke-opacity="1" stroke-width="3.2"/>
<circle clip-path="url(#clip062)" cx="1725.86" cy="955.274" r="3.6" fill="#e26f46" fill-rule="evenodd" fill-opacity="1" stroke="#000000" stroke-opacity="1" stroke-width="3.2"/>
<circle clip-path="url(#clip062)" cx="1778.1" cy="988.146" r="3.6" fill="#e26f46" fill-rule="evenodd" fill-opacity="1" stroke="#000000" stroke-opacity="1" stroke-width="3.2"/>
<circle clip-path="url(#clip062)" cx="1830.34" cy="1021.02" r="3.6" fill="#e26f46" fill-rule="evenodd" fill-opacity="1" stroke="#000000" stroke-opacity="1" stroke-width="3.2"/>
<circle clip-path="url(#clip062)" cx="1882.58" cy="1053.89" r="3.6" fill="#e26f46" fill-rule="evenodd" fill-opacity="1" stroke="#000000" stroke-opacity="1" stroke-width="3.2"/>
<circle clip-path="url(#clip062)" cx="1934.82" cy="1086.76" r="3.6" fill="#e26f46" fill-rule="evenodd" fill-opacity="1" stroke="#000000" stroke-opacity="1" stroke-width="3.2"/>
<circle clip-path="url(#clip062)" cx="1987.06" cy="1119.63" r="3.6" fill="#e26f46" fill-rule="evenodd" fill-opacity="1" stroke="#000000" stroke-opacity="1" stroke-width="3.2"/>
<circle clip-path="url(#clip062)" cx="2039.31" cy="1152.51" r="3.6" fill="#e26f46" fill-rule="evenodd" fill-opacity="1" stroke="#000000" stroke-opacity="1" stroke-width="3.2"/>
<circle clip-path="url(#clip062)" cx="2091.55" cy="1185.38" r="3.6" fill="#e26f46" fill-rule="evenodd" fill-opacity="1" stroke="#000000" stroke-opacity="1" stroke-width="3.2"/>
<circle clip-path="url(#clip062)" cx="2143.79" cy="1218.25" r="3.6" fill="#e26f46" fill-rule="evenodd" fill-opacity="1" stroke="#000000" stroke-opacity="1" stroke-width="3.2"/>
<circle clip-path="url(#clip062)" cx="2196.03" cy="1251.12" r="3.6" fill="#e26f46" fill-rule="evenodd" fill-opacity="1" stroke="#000000" stroke-opacity="1" stroke-width="3.2"/>
<circle clip-path="url(#clip062)" cx="2248.27" cy="1284" r="3.6" fill="#e26f46" fill-rule="evenodd" fill-opacity="1" stroke="#000000" stroke-opacity="1" stroke-width="3.2"/>
<circle clip-path="url(#clip062)" cx="2300.51" cy="1316.87" r="3.6" fill="#e26f46" fill-rule="evenodd" fill-opacity="1" stroke="#000000" stroke-opacity="1" stroke-width="3.2"/>
<circle clip-path="url(#clip062)" cx="2352.76" cy="1349.74" r="3.6" fill="#e26f46" fill-rule="evenodd" fill-opacity="1" stroke="#000000" stroke-opacity="1" stroke-width="3.2"/>
<path clip-path="url(#clip060)" d="M1622.28 440.581 L2284.84 440.581 L2284.84 90.6606 L1622.28 90.6606  Z" fill="#ffffff" fill-rule="evenodd" fill-opacity="1"/>
<polyline clip-path="url(#clip060)" style="stroke:#000000; stroke-linecap:round; stroke-linejoin:round; stroke-width:4; stroke-opacity:1; fill:none" points="1622.28,440.581 2284.84,440.581 2284.84,90.6606 1622.28,90.6606 1622.28,440.581 "/>
<polyline clip-path="url(#clip060)" style="stroke:#009af9; stroke-linecap:round; stroke-linejoin:round; stroke-width:18; stroke-opacity:1; fill:none" points="1644.92,207.301 1780.75,207.301 "/>
<circle clip-path="url(#clip060)" cx="1712.84" cy="207.301" r="8.38445" fill="#009af9" fill-rule="evenodd" fill-opacity="1" stroke="#000000" stroke-opacity="1" stroke-width="7.45285"/>
<path clip-path="url(#clip060)" d="M1829.48 237.641 L1830.86 246.075 Q1826.83 246.923 1823.65 246.923 Q1818.45 246.923 1815.59 245.279 Q1812.72 243.635 1811.56 240.982 Q1810.39 238.277 1810.39 229.684 L1810.39 197.276 L1803.39 197.276 L1803.39 189.85 L1810.39 189.85 L1810.39 175.9 L1819.88 170.171 L1819.88 189.85 L1829.48 189.85 L1829.48 197.276 L1819.88 197.276 L1819.88 230.215 Q1819.88 234.299 1820.36 235.466 Q1820.89 236.633 1822.01 237.323 Q1823.17 238.012 1825.29 238.012 Q1826.89 238.012 1829.48 237.641 Z" fill="#000000" fill-rule="nonzero" fill-opacity="1" /><path clip-path="url(#clip060)" d="M1838.71 246.181 L1838.71 189.85 L1847.31 189.85 L1847.31 198.39 Q1850.6 192.396 1853.35 190.486 Q1856.17 188.577 1859.51 188.577 Q1864.33 188.577 1869.32 191.653 L1866.03 200.511 Q1862.53 198.443 1859.03 198.443 Q1855.9 198.443 1853.41 200.352 Q1850.91 202.209 1849.85 205.55 Q1848.26 210.642 1848.26 216.689 L1848.26 246.181 L1838.71 246.181 Z" fill="#000000" fill-rule="nonzero" fill-opacity="1" /><path clip-path="url(#clip060)" d="M1911.75 239.232 Q1906.45 243.741 1901.52 245.597 Q1896.64 247.454 1891.01 247.454 Q1881.73 247.454 1876.75 242.945 Q1871.76 238.383 1871.76 231.329 Q1871.76 227.191 1873.62 223.797 Q1875.53 220.349 1878.55 218.28 Q1881.63 216.212 1885.44 215.151 Q1888.26 214.408 1893.93 213.719 Q1905.49 212.34 1910.96 210.43 Q1911.01 208.468 1911.01 207.937 Q1911.01 202.102 1908.31 199.716 Q1904.65 196.48 1897.43 196.48 Q1890.7 196.48 1887.46 198.867 Q1884.28 201.201 1882.74 207.195 L1873.4 205.922 Q1874.68 199.928 1877.59 196.268 Q1880.51 192.555 1886.03 190.592 Q1891.54 188.577 1898.81 188.577 Q1906.02 188.577 1910.53 190.274 Q1915.04 191.971 1917.16 194.57 Q1919.29 197.116 1920.13 201.042 Q1920.61 203.482 1920.61 209.847 L1920.61 222.577 Q1920.61 235.89 1921.19 239.444 Q1921.83 242.945 1923.63 246.181 L1913.66 246.181 Q1912.18 243.21 1911.75 239.232 M1910.96 217.909 Q1905.76 220.031 1895.36 221.516 Q1889.48 222.365 1887.04 223.425 Q1884.6 224.486 1883.27 226.555 Q1881.94 228.571 1881.94 231.064 Q1881.94 234.883 1884.81 237.429 Q1887.73 239.975 1893.29 239.975 Q1898.81 239.975 1903.11 237.588 Q1907.4 235.148 1909.42 230.957 Q1910.96 227.722 1910.96 221.41 L1910.96 217.909 Z" fill="#000000" fill-rule="nonzero" fill-opacity="1" /><path clip-path="url(#clip060)" d="M1935.46 179.4 L1935.46 168.421 L1945.01 168.421 L1945.01 179.4 L1935.46 179.4 M1935.46 246.181 L1935.46 189.85 L1945.01 189.85 L1945.01 246.181 L1935.46 246.181 Z" fill="#000000" fill-rule="nonzero" fill-opacity="1" /><path clip-path="url(#clip060)" d="M1959.54 246.181 L1959.54 189.85 L1968.14 189.85 L1968.14 197.859 Q1974.34 188.577 1986.07 188.577 Q1991.16 188.577 1995.4 190.433 Q1999.7 192.237 2001.82 195.207 Q2003.94 198.177 2004.79 202.262 Q2005.32 204.914 2005.32 211.544 L2005.32 246.181 L1995.77 246.181 L1995.77 211.915 Q1995.77 206.081 1994.66 203.216 Q1993.54 200.299 1990.68 198.602 Q1987.87 196.851 1984.05 196.851 Q1977.95 196.851 1973.49 200.723 Q1969.09 204.595 1969.09 215.416 L1969.09 246.181 L1959.54 246.181 Z" fill="#000000" fill-rule="nonzero" fill-opacity="1" /><path clip-path="url(#clip060)" d="M2011.15 267.769 L2011.15 260.873 L2074.43 260.873 L2074.43 267.769 L2011.15 267.769 Z" fill="#000000" fill-rule="nonzero" fill-opacity="1" /><path clip-path="url(#clip060)" d="M2080.16 246.181 L2080.16 168.421 L2089.71 168.421 L2089.71 246.181 L2080.16 246.181 Z" fill="#000000" fill-rule="nonzero" fill-opacity="1" /><path clip-path="url(#clip060)" d="M2100.96 218.015 Q2100.96 202.368 2109.65 194.836 Q2116.92 188.577 2127.37 188.577 Q2138.99 188.577 2146.36 196.215 Q2153.73 203.8 2153.73 217.22 Q2153.73 228.093 2150.44 234.352 Q2147.21 240.558 2140.95 244.006 Q2134.74 247.454 2127.37 247.454 Q2115.54 247.454 2108.22 239.869 Q2100.96 232.284 2100.96 218.015 M2110.77 218.015 Q2110.77 228.836 2115.49 234.246 Q2120.21 239.603 2127.37 239.603 Q2134.48 239.603 2139.2 234.193 Q2143.92 228.783 2143.92 217.697 Q2143.92 207.248 2139.15 201.89 Q2134.42 196.48 2127.37 196.48 Q2120.21 196.48 2115.49 201.837 Q2110.77 207.195 2110.77 218.015 Z" fill="#000000" fill-rule="nonzero" fill-opacity="1" /><path clip-path="url(#clip060)" d="M2161.11 229.366 L2170.55 227.881 Q2171.34 233.557 2174.95 236.58 Q2178.61 239.603 2185.13 239.603 Q2191.71 239.603 2194.89 236.951 Q2198.08 234.246 2198.08 230.639 Q2198.08 227.404 2195.26 225.547 Q2193.3 224.274 2185.5 222.312 Q2175 219.659 2170.92 217.75 Q2166.89 215.787 2164.77 212.393 Q2162.7 208.945 2162.7 204.808 Q2162.7 201.042 2164.39 197.859 Q2166.14 194.624 2169.11 192.502 Q2171.34 190.858 2175.16 189.744 Q2179.03 188.577 2183.44 188.577 Q2190.07 188.577 2195.05 190.486 Q2200.09 192.396 2202.48 195.684 Q2204.87 198.92 2205.77 204.383 L2196.43 205.656 Q2195.79 201.307 2192.72 198.867 Q2189.69 196.427 2184.13 196.427 Q2177.55 196.427 2174.74 198.602 Q2171.93 200.776 2171.93 203.694 Q2171.93 205.55 2173.09 207.035 Q2174.26 208.574 2176.75 209.581 Q2178.18 210.112 2185.19 212.021 Q2195.32 214.727 2199.3 216.477 Q2203.33 218.174 2205.61 221.463 Q2207.89 224.752 2207.89 229.631 Q2207.89 234.405 2205.08 238.649 Q2202.32 242.839 2197.07 245.173 Q2191.82 247.454 2185.19 247.454 Q2174.21 247.454 2168.43 242.892 Q2162.7 238.33 2161.11 229.366 Z" fill="#000000" fill-rule="nonzero" fill-opacity="1" /><path clip-path="url(#clip060)" d="M2215.42 229.366 L2224.86 227.881 Q2225.66 233.557 2229.26 236.58 Q2232.92 239.603 2239.45 239.603 Q2246.03 239.603 2249.21 236.951 Q2252.39 234.246 2252.39 230.639 Q2252.39 227.404 2249.58 225.547 Q2247.62 224.274 2239.82 222.312 Q2229.32 219.659 2225.23 217.75 Q2221.2 215.787 2219.08 212.393 Q2217.01 208.945 2217.01 204.808 Q2217.01 201.042 2218.71 197.859 Q2220.46 194.624 2223.43 192.502 Q2225.66 190.858 2229.48 189.744 Q2233.35 188.577 2237.75 188.577 Q2244.38 188.577 2249.37 190.486 Q2254.41 192.396 2256.79 195.684 Q2259.18 198.92 2260.08 204.383 L2250.75 205.656 Q2250.11 201.307 2247.03 198.867 Q2244.01 196.427 2238.44 196.427 Q2231.86 196.427 2229.05 198.602 Q2226.24 200.776 2226.24 203.694 Q2226.24 205.55 2227.41 207.035 Q2228.57 208.574 2231.07 209.581 Q2232.5 210.112 2239.5 212.021 Q2249.63 214.727 2253.61 216.477 Q2257.64 218.174 2259.92 221.463 Q2262.2 224.752 2262.2 229.631 Q2262.2 234.405 2259.39 238.649 Q2256.63 242.839 2251.38 245.173 Q2246.13 247.454 2239.5 247.454 Q2228.52 247.454 2222.74 242.892 Q2217.01 238.33 2215.42 229.366 Z" fill="#000000" fill-rule="nonzero" fill-opacity="1" /><polyline clip-path="url(#clip060)" style="stroke:#e26f46; stroke-linecap:round; stroke-linejoin:round; stroke-width:18; stroke-opacity:1; fill:none" points="1644.92,323.941 1780.75,323.941 "/>
<circle clip-path="url(#clip060)" cx="1712.84" cy="323.941" r="8.38445" fill="#e26f46" fill-rule="evenodd" fill-opacity="1" stroke="#000000" stroke-opacity="1" stroke-width="7.45285"/>
<path clip-path="url(#clip060)" d="M1824.82 362.821 L1803.39 306.49 L1813.47 306.49 L1825.56 340.225 Q1827.52 345.688 1829.17 351.576 Q1830.44 347.12 1832.72 340.861 L1845.24 306.49 L1855.05 306.49 L1833.73 362.821 L1824.82 362.821 Z" fill="#000000" fill-rule="nonzero" fill-opacity="1" /><path clip-path="url(#clip060)" d="M1900.24 355.872 Q1894.94 360.381 1890.01 362.237 Q1885.13 364.094 1879.5 364.094 Q1870.22 364.094 1865.24 359.585 Q1860.25 355.023 1860.25 347.969 Q1860.25 343.831 1862.11 340.437 Q1864.02 336.989 1867.04 334.92 Q1870.12 332.852 1873.93 331.791 Q1876.75 331.048 1882.42 330.359 Q1893.98 328.98 1899.45 327.07 Q1899.5 325.108 1899.5 324.577 Q1899.5 318.742 1896.8 316.356 Q1893.14 313.12 1885.92 313.12 Q1879.19 313.12 1875.95 315.507 Q1872.77 317.841 1871.23 323.835 L1861.89 322.562 Q1863.17 316.568 1866.08 312.908 Q1869 309.195 1874.52 307.232 Q1880.03 305.217 1887.3 305.217 Q1894.51 305.217 1899.02 306.914 Q1903.53 308.611 1905.65 311.21 Q1907.78 313.756 1908.62 317.682 Q1909.1 320.122 1909.1 326.487 L1909.1 339.217 Q1909.1 352.53 1909.68 356.084 Q1910.32 359.585 1912.12 362.821 L1902.15 362.821 Q1900.67 359.85 1900.24 355.872 M1899.45 334.549 Q1894.25 336.671 1883.85 338.156 Q1877.97 339.005 1875.53 340.065 Q1873.09 341.126 1871.76 343.195 Q1870.43 345.211 1870.43 347.704 Q1870.43 351.523 1873.3 354.069 Q1876.22 356.615 1881.78 356.615 Q1887.3 356.615 1891.6 354.228 Q1895.89 351.788 1897.91 347.597 Q1899.45 344.362 1899.45 338.05 L1899.45 334.549 Z" fill="#000000" fill-rule="nonzero" fill-opacity="1" /><path clip-path="url(#clip060)" d="M1923.69 362.821 L1923.69 285.061 L1933.24 285.061 L1933.24 362.821 L1923.69 362.821 Z" fill="#000000" fill-rule="nonzero" fill-opacity="1" /><path clip-path="url(#clip060)" d="M1939.23 384.409 L1939.23 377.513 L2002.51 377.513 L2002.51 384.409 L1939.23 384.409 Z" fill="#000000" fill-rule="nonzero" fill-opacity="1" /><path clip-path="url(#clip060)" d="M2008.24 362.821 L2008.24 285.061 L2017.78 285.061 L2017.78 362.821 L2008.24 362.821 Z" fill="#000000" fill-rule="nonzero" fill-opacity="1" /><path clip-path="url(#clip060)" d="M2029.03 334.655 Q2029.03 319.008 2037.73 311.476 Q2045 305.217 2055.44 305.217 Q2067.06 305.217 2074.43 312.855 Q2081.81 320.44 2081.81 333.86 Q2081.81 344.733 2078.52 350.992 Q2075.28 357.198 2069.02 360.646 Q2062.82 364.094 2055.44 364.094 Q2043.62 364.094 2036.3 356.509 Q2029.03 348.924 2029.03 334.655 M2038.84 334.655 Q2038.84 345.476 2043.56 350.886 Q2048.28 356.243 2055.44 356.243 Q2062.55 356.243 2067.27 350.833 Q2071.99 345.423 2071.99 334.337 Q2071.99 323.888 2067.22 318.53 Q2062.5 313.12 2055.44 313.12 Q2048.28 313.12 2043.56 318.477 Q2038.84 323.835 2038.84 334.655 Z" fill="#000000" fill-rule="nonzero" fill-opacity="1" /><path clip-path="url(#clip060)" d="M2089.18 346.006 L2098.62 344.521 Q2099.42 350.197 2103.02 353.22 Q2106.68 356.243 2113.21 356.243 Q2119.79 356.243 2122.97 353.591 Q2126.15 350.886 2126.15 347.279 Q2126.15 344.044 2123.34 342.187 Q2121.38 340.914 2113.58 338.952 Q2103.08 336.299 2098.99 334.39 Q2094.96 332.427 2092.84 329.033 Q2090.77 325.585 2090.77 321.448 Q2090.77 317.682 2092.47 314.499 Q2094.22 311.264 2097.19 309.142 Q2099.42 307.498 2103.24 306.384 Q2107.11 305.217 2111.51 305.217 Q2118.14 305.217 2123.13 307.126 Q2128.17 309.036 2130.55 312.324 Q2132.94 315.56 2133.84 321.023 L2124.51 322.296 Q2123.87 317.947 2120.79 315.507 Q2117.77 313.067 2112.2 313.067 Q2105.62 313.067 2102.81 315.242 Q2100 317.416 2100 320.334 Q2100 322.19 2101.17 323.675 Q2102.33 325.214 2104.83 326.221 Q2106.26 326.752 2113.26 328.661 Q2123.39 331.367 2127.37 333.117 Q2131.4 334.814 2133.68 338.103 Q2135.96 341.392 2135.96 346.271 Q2135.96 351.045 2133.15 355.289 Q2130.39 359.479 2125.14 361.813 Q2119.89 364.094 2113.26 364.094 Q2102.28 364.094 2096.5 359.532 Q2090.77 354.97 2089.18 346.006 Z" fill="#000000" fill-rule="nonzero" fill-opacity="1" /><path clip-path="url(#clip060)" d="M2143.5 346.006 L2152.94 344.521 Q2153.73 350.197 2157.34 353.22 Q2161 356.243 2167.52 356.243 Q2174.1 356.243 2177.28 353.591 Q2180.47 350.886 2180.47 347.279 Q2180.47 344.044 2177.65 342.187 Q2175.69 340.914 2167.89 338.952 Q2157.39 336.299 2153.31 334.39 Q2149.28 332.427 2147.16 329.033 Q2145.09 325.585 2145.09 321.448 Q2145.09 317.682 2146.78 314.499 Q2148.53 311.264 2151.5 309.142 Q2153.73 307.498 2157.55 306.384 Q2161.42 305.217 2165.83 305.217 Q2172.46 305.217 2177.44 307.126 Q2182.48 309.036 2184.87 312.324 Q2187.26 315.56 2188.16 321.023 L2178.82 322.296 Q2178.18 317.947 2175.11 315.507 Q2172.08 313.067 2166.52 313.067 Q2159.94 313.067 2157.13 315.242 Q2154.32 317.416 2154.32 320.334 Q2154.32 322.19 2155.48 323.675 Q2156.65 325.214 2159.14 326.221 Q2160.57 326.752 2167.58 328.661 Q2177.71 331.367 2181.69 333.117 Q2185.72 334.814 2188 338.103 Q2190.28 341.392 2190.28 346.271 Q2190.28 351.045 2187.47 355.289 Q2184.71 359.479 2179.46 361.813 Q2174.21 364.094 2167.58 364.094 Q2156.6 364.094 2150.81 359.532 Q2145.09 354.97 2143.5 346.006 Z" fill="#000000" fill-rule="nonzero" fill-opacity="1" /></svg>
