<?xml version="1.0" encoding="utf-8"?>
<svg xmlns="http://www.w3.org/2000/svg" xmlns:xlink="http://www.w3.org/1999/xlink" width="600" height="400" viewBox="0 0 2400 1600">
<defs>
  <clipPath id="clip100">
    <rect x="0" y="0" width="2400" height="1600"/>
  </clipPath>
</defs>
<path clip-path="url(#clip100)" d="M0 1600 L2400 1600 L2400 8.88178e-14 L0 8.88178e-14  Z" fill="#ffffff" fill-rule="evenodd" fill-opacity="1"/>
<defs>
  <clipPath id="clip101">
    <rect x="480" y="0" width="1681" height="1600"/>
  </clipPath>
</defs>
<path clip-path="url(#clip100)" d="M383.97 1349.74 L2352.76 1349.74 L2352.76 47.2441 L383.97 47.2441  Z" fill="#ffffff" fill-rule="evenodd" fill-opacity="1"/>
<defs>
  <clipPath id="clip102">
    <rect x="383" y="47" width="1970" height="1303"/>
  </clipPath>
</defs>
<polyline clip-path="url(#clip100)" style="stroke:#000000; stroke-linecap:round; stroke-linejoin:round; stroke-width:4; stroke-opacity:1; fill:none" points="383.97,1349.74 2352.76,1349.74 "/>
<polyline clip-path="url(#clip100)" style="stroke:#000000; stroke-linecap:round; stroke-linejoin:round; stroke-width:2; stroke-opacity:0.5; fill:none" points="383.97,47.2441 2352.76,47.2441 "/>
<polyline clip-path="url(#clip100)" style="stroke:#000000; stroke-linecap:round; stroke-linejoin:round; stroke-width:4; stroke-opacity:1; fill:none" points="863.923,1349.74 863.923,1330.84 "/>
<polyline clip-path="url(#clip100)" style="stroke:#000000; stroke-linecap:round; stroke-linejoin:round; stroke-width:4; stroke-opacity:1; fill:none" points="1353.67,1349.74 1353.67,1330.84 "/>
<polyline clip-path="url(#clip100)" style="stroke:#000000; stroke-linecap:round; stroke-linejoin:round; stroke-width:4; stroke-opacity:1; fill:none" points="1843.42,1349.74 1843.42,1330.84 "/>
<polyline clip-path="url(#clip100)" style="stroke:#000000; stroke-linecap:round; stroke-linejoin:round; stroke-width:4; stroke-opacity:1; fill:none" points="2333.17,1349.74 2333.17,1330.84 "/>
<path clip-path="url(#clip100)" d="M808.361 1445.77 L818.386 1444.92 Q819.5 1452.24 823.531 1455.96 Q827.616 1459.62 833.344 1459.62 Q840.24 1459.62 845.014 1454.42 Q849.787 1449.22 849.787 1440.63 Q849.787 1432.46 845.173 1427.74 Q840.611 1423.02 833.185 1423.02 Q828.57 1423.02 824.857 1425.14 Q821.144 1427.21 819.023 1430.55 L810.059 1429.38 L817.591 1389.44 L856.258 1389.44 L856.258 1398.56 L825.229 1398.56 L821.038 1419.46 Q828.04 1414.58 835.731 1414.58 Q845.915 1414.58 852.917 1421.64 Q859.918 1428.69 859.918 1439.78 Q859.918 1450.33 853.765 1458.02 Q846.287 1467.47 833.344 1467.47 Q822.736 1467.47 815.999 1461.53 Q809.316 1455.58 808.361 1445.77 Z" fill="#000000" fill-rule="nonzero" fill-opacity="1" /><path clip-path="url(#clip100)" d="M868.776 1427.79 Q868.776 1414 871.588 1405.62 Q874.452 1397.18 880.021 1392.62 Q885.644 1388.06 894.131 1388.06 Q900.39 1388.06 905.11 1390.61 Q909.831 1393.1 912.908 1397.87 Q915.984 1402.6 917.734 1409.44 Q919.485 1416.23 919.485 1427.79 Q919.485 1441.48 916.674 1449.91 Q913.862 1458.29 908.24 1462.9 Q902.67 1467.47 894.131 1467.47 Q882.886 1467.47 876.468 1459.4 Q868.776 1449.7 868.776 1427.79 M878.589 1427.79 Q878.589 1446.94 883.045 1453.3 Q887.553 1459.62 894.131 1459.62 Q900.708 1459.62 905.163 1453.25 Q909.672 1446.89 909.672 1427.79 Q909.672 1408.59 905.163 1402.28 Q900.708 1395.96 894.025 1395.96 Q887.447 1395.96 883.522 1401.53 Q878.589 1408.64 878.589 1427.79 Z" fill="#000000" fill-rule="nonzero" fill-opacity="1" /><path clip-path="url(#clip100)" d="M1300.2 1466.14 L1290.66 1466.14 L1290.66 1405.3 Q1287.21 1408.59 1281.59 1411.88 Q1276.02 1415.17 1271.56 1416.81 L1271.56 1407.58 Q1279.57 1403.82 1285.56 1398.46 Q1291.56 1393.1 1294.05 1388.06 L1300.2 1388.06 L1300.2 1466.14 Z" fill="#000000" fill-rule="nonzero" fill-opacity="1" /><path clip-path="url(#clip100)" d="M1324.66 1427.79 Q1324.66 1414 1327.47 1405.62 Q1330.33 1397.18 1335.9 1392.62 Q1341.52 1388.06 1350.01 1388.06 Q1356.27 1388.06 1360.99 1390.61 Q1365.71 1393.1 1368.79 1397.87 Q1371.86 1402.6 1373.61 1409.44 Q1375.37 1416.23 1375.37 1427.79 Q1375.37 1441.48 1372.55 1449.91 Q1369.74 1458.29 1364.12 1462.9 Q1358.55 1467.47 1350.01 1467.47 Q1338.77 1467.47 1332.35 1459.4 Q1324.66 1449.7 1324.66 1427.79 M1334.47 1427.79 Q1334.47 1446.94 1338.92 1453.3 Q1343.43 1459.62 1350.01 1459.62 Q1356.59 1459.62 1361.04 1453.25 Q1365.55 1446.89 1365.55 1427.79 Q1365.55 1408.59 1361.04 1402.28 Q1356.59 1395.96 1349.9 1395.96 Q1343.33 1395.96 1339.4 1401.53 Q1334.47 1408.64 1334.47 1427.79 Z" fill="#000000" fill-rule="nonzero" fill-opacity="1" /><path clip-path="url(#clip100)" d="M1385.07 1427.79 Q1385.07 1414 1387.88 1405.62 Q1390.75 1397.18 1396.32 1392.62 Q1401.94 1388.06 1410.43 1388.06 Q1416.68 1388.06 1421.41 1390.61 Q1426.13 1393.1 1429.2 1397.87 Q1432.28 1402.6 1434.03 1409.44 Q1435.78 1416.23 1435.78 1427.79 Q1435.78 1441.48 1432.97 1449.91 Q1430.16 1458.29 1424.54 1462.9 Q1418.97 1467.47 1410.43 1467.47 Q1399.18 1467.47 1392.76 1459.4 Q1385.07 1449.7 1385.07 1427.79 M1394.88 1427.79 Q1394.88 1446.94 1399.34 1453.3 Q1403.85 1459.62 1410.43 1459.62 Q1417 1459.62 1421.46 1453.25 Q1425.97 1446.89 1425.97 1427.79 Q1425.97 1408.59 1421.46 1402.28 Q1417 1395.96 1410.32 1395.96 Q1403.74 1395.96 1399.82 1401.53 Q1394.88 1408.64 1394.88 1427.79 Z" fill="#000000" fill-rule="nonzero" fill-opacity="1" /><path clip-path="url(#clip100)" d="M1789.95 1466.14 L1780.4 1466.14 L1780.4 1405.3 Q1776.96 1408.59 1771.33 1411.88 Q1765.76 1415.17 1761.31 1416.81 L1761.31 1407.58 Q1769.32 1403.82 1775.31 1398.46 Q1781.31 1393.1 1783.8 1388.06 L1789.95 1388.06 L1789.95 1466.14 Z" fill="#000000" fill-rule="nonzero" fill-opacity="1" /><path clip-path="url(#clip100)" d="M1814.4 1445.77 L1824.43 1444.92 Q1825.54 1452.24 1829.57 1455.96 Q1833.66 1459.62 1839.39 1459.62 Q1846.28 1459.62 1851.06 1454.42 Q1855.83 1449.22 1855.83 1440.63 Q1855.83 1432.46 1851.22 1427.74 Q1846.65 1423.02 1839.23 1423.02 Q1834.61 1423.02 1830.9 1425.14 Q1827.19 1427.21 1825.07 1430.55 L1816.1 1429.38 L1823.63 1389.44 L1862.3 1389.44 L1862.3 1398.56 L1831.27 1398.56 L1827.08 1419.46 Q1834.08 1414.58 1841.77 1414.58 Q1851.96 1414.58 1858.96 1421.64 Q1865.96 1428.69 1865.96 1439.78 Q1865.96 1450.33 1859.81 1458.02 Q1852.33 1467.47 1839.39 1467.47 Q1828.78 1467.47 1822.04 1461.53 Q1815.36 1455.58 1814.4 1445.77 Z" fill="#000000" fill-rule="nonzero" fill-opacity="1" /><path clip-path="url(#clip100)" d="M1874.82 1427.79 Q1874.82 1414 1877.63 1405.62 Q1880.49 1397.18 1886.06 1392.62 Q1891.69 1388.06 1900.17 1388.06 Q1906.43 1388.06 1911.15 1390.61 Q1915.87 1393.1 1918.95 1397.87 Q1922.03 1402.6 1923.78 1409.44 Q1925.53 1416.23 1925.53 1427.79 Q1925.53 1441.48 1922.72 1449.91 Q1919.91 1458.29 1914.28 1462.9 Q1908.71 1467.47 1900.17 1467.47 Q1888.93 1467.47 1882.51 1459.4 Q1874.82 1449.7 1874.82 1427.79 M1884.63 1427.79 Q1884.63 1446.94 1889.09 1453.3 Q1893.6 1459.62 1900.17 1459.62 Q1906.75 1459.62 1911.21 1453.25 Q1915.72 1446.89 1915.72 1427.79 Q1915.72 1408.59 1911.21 1402.28 Q1906.75 1395.96 1900.07 1395.96 Q1893.49 1395.96 1889.57 1401.53 Q1884.63 1408.64 1884.63 1427.79 Z" fill="#000000" fill-rule="nonzero" fill-opacity="1" /><path clip-path="url(#clip100)" d="M2298.24 1456.96 L2298.24 1466.14 L2246.84 1466.14 Q2246.73 1462.69 2247.95 1459.51 Q2249.92 1454.26 2254.21 1449.17 Q2258.56 1444.07 2266.73 1437.39 Q2279.41 1426.99 2283.86 1420.95 Q2288.32 1414.85 2288.32 1409.44 Q2288.32 1403.76 2284.23 1399.89 Q2280.2 1395.96 2273.68 1395.96 Q2266.78 1395.96 2262.65 1400.1 Q2258.51 1404.24 2258.46 1411.56 L2248.64 1410.55 Q2249.65 1399.57 2256.23 1393.84 Q2262.81 1388.06 2273.89 1388.06 Q2285.08 1388.06 2291.61 1394.27 Q2298.13 1400.47 2298.13 1409.65 Q2298.13 1414.32 2296.22 1418.83 Q2294.31 1423.33 2289.86 1428.32 Q2285.45 1433.31 2275.16 1442.01 Q2266.57 1449.22 2264.13 1451.82 Q2261.69 1454.36 2260.1 1456.96 L2298.24 1456.96 Z" fill="#000000" fill-rule="nonzero" fill-opacity="1" /><path clip-path="url(#clip100)" d="M2308.47 1427.79 Q2308.47 1414 2311.29 1405.62 Q2314.15 1397.18 2319.72 1392.62 Q2325.34 1388.06 2333.83 1388.06 Q2340.09 1388.06 2344.81 1390.61 Q2349.53 1393.1 2352.61 1397.87 Q2355.68 1402.6 2357.43 1409.44 Q2359.18 1416.23 2359.18 1427.79 Q2359.18 1441.48 2356.37 1449.91 Q2353.56 1458.29 2347.94 1462.9 Q2342.37 1467.47 2333.83 1467.47 Q2322.58 1467.47 2316.17 1459.4 Q2308.47 1449.7 2308.47 1427.79 M2318.29 1427.79 Q2318.29 1446.94 2322.74 1453.3 Q2327.25 1459.62 2333.83 1459.62 Q2340.41 1459.62 2344.86 1453.25 Q2349.37 1446.89 2349.37 1427.79 Q2349.37 1408.59 2344.86 1402.28 Q2340.41 1395.96 2333.72 1395.96 Q2327.15 1395.96 2323.22 1401.53 Q2318.29 1408.64 2318.29 1427.79 Z" fill="#000000" fill-rule="nonzero" fill-opacity="1" /><path clip-path="url(#clip100)" d="M2368.89 1427.79 Q2368.89 1414 2371.7 1405.62 Q2374.57 1397.18 2380.13 1392.62 Q2385.76 1388.06 2394.24 1388.06 Q2400.5 1388.06 2405.22 1390.61 Q2409.94 1393.1 2413.02 1397.87 Q2416.1 1402.6 2417.85 1409.44 Q2419.6 1416.23 2419.6 1427.79 Q2419.6 1441.48 2416.79 1449.91 Q2413.98 1458.29 2408.35 1462.9 Q2402.78 1467.47 2394.24 1467.47 Q2383 1467.47 2376.58 1459.4 Q2368.89 1449.7 2368.89 1427.79 M2378.7 1427.79 Q2378.7 1446.94 2383.16 1453.3 Q2387.67 1459.62 2394.24 1459.62 Q2400.82 1459.62 2405.28 1453.25 Q2409.79 1446.89 2409.79 1427.79 Q2409.79 1408.59 2405.28 1402.28 Q2400.82 1395.96 2394.14 1395.96 Q2387.56 1395.96 2383.64 1401.53 Q2378.7 1408.64 2378.7 1427.79 Z" fill="#000000" fill-rule="nonzero" fill-opacity="1" /><path clip-path="url(#clip100)" d="M1267.79 1577.55 L1277.66 1578.77 Q1275.33 1587.42 1269.01 1592.19 Q1262.7 1596.96 1252.89 1596.96 Q1240.53 1596.96 1233.26 1589.38 Q1226.05 1581.74 1226.05 1568 Q1226.05 1553.79 1233.37 1545.94 Q1240.69 1538.09 1252.36 1538.09 Q1263.66 1538.09 1270.82 1545.78 Q1277.98 1553.47 1277.98 1567.42 Q1277.98 1568.27 1277.93 1569.97 L1235.92 1569.97 Q1236.45 1579.25 1241.17 1584.18 Q1245.89 1589.11 1252.94 1589.11 Q1258.19 1589.11 1261.91 1586.36 Q1265.62 1583.6 1267.79 1577.55 M1236.45 1562.12 L1267.9 1562.12 Q1267.26 1555.01 1264.29 1551.45 Q1259.73 1545.94 1252.47 1545.94 Q1245.89 1545.94 1241.38 1550.34 Q1236.92 1554.74 1236.45 1562.12 Z" fill="#000000" fill-rule="nonzero" fill-opacity="1" /><path clip-path="url(#clip100)" d="M1289.65 1617.28 L1289.65 1539.36 L1298.35 1539.36 L1298.35 1546.68 Q1301.42 1542.38 1305.3 1540.26 Q1309.17 1538.09 1314.68 1538.09 Q1321.9 1538.09 1327.41 1541.8 Q1332.93 1545.51 1335.74 1552.3 Q1338.55 1559.04 1338.55 1567.1 Q1338.55 1575.75 1335.42 1582.7 Q1332.35 1589.59 1326.41 1593.3 Q1320.52 1596.96 1313.99 1596.96 Q1309.22 1596.96 1305.4 1594.95 Q1301.64 1592.93 1299.2 1589.86 L1299.2 1617.28 L1289.65 1617.28 M1298.29 1567.84 Q1298.29 1578.72 1302.7 1583.92 Q1307.1 1589.11 1313.36 1589.11 Q1319.72 1589.11 1324.23 1583.76 Q1328.79 1578.35 1328.79 1567.05 Q1328.79 1556.28 1324.34 1550.92 Q1319.94 1545.57 1313.78 1545.57 Q1307.68 1545.57 1302.96 1551.3 Q1298.29 1556.97 1298.29 1567.84 Z" fill="#000000" fill-rule="nonzero" fill-opacity="1" /><path clip-path="url(#clip100)" d="M1346.51 1567.53 Q1346.51 1551.88 1355.21 1544.35 Q1362.48 1538.09 1372.92 1538.09 Q1384.54 1538.09 1391.91 1545.73 Q1399.29 1553.31 1399.29 1566.73 Q1399.29 1577.6 1396 1583.86 Q1392.76 1590.07 1386.5 1593.52 Q1380.3 1596.96 1372.92 1596.96 Q1361.1 1596.96 1353.78 1589.38 Q1346.51 1581.79 1346.51 1567.53 M1356.32 1567.53 Q1356.32 1578.35 1361.04 1583.76 Q1365.76 1589.11 1372.92 1589.11 Q1380.03 1589.11 1384.75 1583.7 Q1389.47 1578.29 1389.47 1567.21 Q1389.47 1556.76 1384.7 1551.4 Q1379.98 1545.99 1372.92 1545.99 Q1365.76 1545.99 1361.04 1551.35 Q1356.32 1556.71 1356.32 1567.53 Z" fill="#000000" fill-rule="nonzero" fill-opacity="1" /><path clip-path="url(#clip100)" d="M1447.24 1575.06 L1456.63 1576.28 Q1455.09 1585.99 1448.72 1591.5 Q1442.41 1596.96 1433.18 1596.96 Q1421.62 1596.96 1414.56 1589.43 Q1407.56 1581.85 1407.56 1567.74 Q1407.56 1558.62 1410.58 1551.77 Q1413.61 1544.93 1419.76 1541.54 Q1425.97 1538.09 1433.23 1538.09 Q1442.41 1538.09 1448.24 1542.76 Q1454.08 1547.37 1455.72 1555.91 L1446.44 1557.34 Q1445.12 1551.67 1441.72 1548.8 Q1438.38 1545.94 1433.61 1545.94 Q1426.39 1545.94 1421.88 1551.14 Q1417.37 1556.28 1417.37 1567.47 Q1417.37 1578.82 1421.72 1583.97 Q1426.07 1589.11 1433.07 1589.11 Q1438.7 1589.11 1442.46 1585.67 Q1446.23 1582.22 1447.24 1575.06 Z" fill="#000000" fill-rule="nonzero" fill-opacity="1" /><path clip-path="url(#clip100)" d="M1464.79 1595.69 L1464.79 1517.93 L1474.34 1517.93 L1474.34 1545.83 Q1481.02 1538.09 1491.21 1538.09 Q1497.47 1538.09 1502.08 1540.58 Q1506.7 1543.02 1508.66 1547.37 Q1510.68 1551.72 1510.68 1559.99 L1510.68 1595.69 L1501.13 1595.69 L1501.13 1559.99 Q1501.13 1552.83 1498 1549.6 Q1494.92 1546.31 1489.25 1546.31 Q1485 1546.31 1481.24 1548.54 Q1477.52 1550.71 1475.93 1554.48 Q1474.34 1558.24 1474.34 1564.87 L1474.34 1595.69 L1464.79 1595.69 Z" fill="#000000" fill-rule="nonzero" fill-opacity="1" /><polyline clip-path="url(#clip100)" style="stroke:#000000; stroke-linecap:round; stroke-linejoin:round; stroke-width:4; stroke-opacity:1; fill:none" points="383.97,1349.74 383.97,47.2441 "/>
<polyline clip-path="url(#clip100)" style="stroke:#000000; stroke-linecap:round; stroke-linejoin:round; stroke-width:2; stroke-opacity:0.5; fill:none" points="2352.76,1349.74 2352.76,47.2441 "/>
<polyline clip-path="url(#clip100)" style="stroke:#000000; stroke-linecap:round; stroke-linejoin:round; stroke-width:4; stroke-opacity:1; fill:none" points="383.97,1156.86 402.868,1156.86 "/>
<polyline clip-path="url(#clip100)" style="stroke:#000000; stroke-linecap:round; stroke-linejoin:round; stroke-width:4; stroke-opacity:1; fill:none" points="383.97,917.64 402.868,917.64 "/>
<polyline clip-path="url(#clip100)" style="stroke:#000000; stroke-linecap:round; stroke-linejoin:round; stroke-width:4; stroke-opacity:1; fill:none" points="383.97,678.419 402.868,678.419 "/>
<polyline clip-path="url(#clip100)" style="stroke:#000000; stroke-linecap:round; stroke-linejoin:round; stroke-width:4; stroke-opacity:1; fill:none" points="383.97,439.198 402.868,439.198 "/>
<polyline clip-path="url(#clip100)" style="stroke:#000000; stroke-linecap:round; stroke-linejoin:round; stroke-width:4; stroke-opacity:1; fill:none" points="383.97,199.978 402.868,199.978 "/>
<path clip-path="url(#clip100)" d="M195.845 1161.85 L144.5 1161.85 L144.5 1152.94 L195.845 1152.94 L195.845 1161.85 Z" fill="#000000" fill-rule="nonzero" fill-opacity="1" /><path clip-path="url(#clip100)" d="M206.401 1157.39 Q206.401 1143.6 209.212 1135.22 Q212.076 1126.79 217.645 1122.22 Q223.268 1117.66 231.755 1117.66 Q238.014 1117.66 242.734 1120.21 Q247.455 1122.7 250.532 1127.47 Q253.608 1132.2 255.359 1139.04 Q257.109 1145.83 257.109 1157.39 Q257.109 1171.08 254.298 1179.51 Q251.486 1187.89 245.864 1192.5 Q240.295 1197.07 231.755 1197.07 Q220.51 1197.07 214.092 1189 Q206.401 1179.3 206.401 1157.39 M216.213 1157.39 Q216.213 1176.54 220.669 1182.9 Q225.177 1189.22 231.755 1189.22 Q238.332 1189.22 242.788 1182.85 Q247.296 1176.49 247.296 1157.39 Q247.296 1138.19 242.788 1131.88 Q238.332 1125.57 231.649 1125.57 Q225.071 1125.57 221.146 1131.13 Q216.213 1138.24 216.213 1157.39 Z" fill="#000000" fill-rule="nonzero" fill-opacity="1" /><path clip-path="url(#clip100)" d="M272.173 1195.74 L272.173 1184.87 L283.047 1184.87 L283.047 1195.74 L272.173 1195.74 Z" fill="#000000" fill-rule="nonzero" fill-opacity="1" /><path clip-path="url(#clip100)" d="M297.05 1175.21 L306.597 1173.94 Q308.242 1182.06 312.167 1185.66 Q316.145 1189.22 321.821 1189.22 Q328.557 1189.22 333.172 1184.55 Q337.839 1179.88 337.839 1172.99 Q337.839 1166.41 333.543 1162.16 Q329.246 1157.87 322.616 1157.87 Q319.911 1157.87 315.88 1158.93 L316.941 1150.55 Q317.895 1150.65 318.479 1150.65 Q324.579 1150.65 329.459 1147.47 Q334.339 1144.29 334.339 1137.66 Q334.339 1132.41 330.785 1128.96 Q327.231 1125.51 321.608 1125.51 Q316.039 1125.51 312.326 1129.01 Q308.613 1132.51 307.552 1139.52 L298.005 1137.82 Q299.755 1128.22 305.961 1122.97 Q312.167 1117.66 321.396 1117.66 Q327.761 1117.66 333.119 1120.42 Q338.476 1123.13 341.287 1127.85 Q344.151 1132.57 344.151 1137.87 Q344.151 1142.91 341.446 1147.05 Q338.741 1151.18 333.437 1153.62 Q340.332 1155.22 344.151 1160.25 Q347.97 1165.24 347.97 1172.77 Q347.97 1182.96 340.544 1190.06 Q333.119 1197.12 321.767 1197.12 Q311.53 1197.12 304.741 1191.02 Q298.005 1184.92 297.05 1175.21 Z" fill="#000000" fill-rule="nonzero" fill-opacity="1" /><path clip-path="url(#clip100)" d="M196.641 922.626 L145.296 922.626 L145.296 913.714 L196.641 913.714 L196.641 922.626 Z" fill="#000000" fill-rule="nonzero" fill-opacity="1" /><path clip-path="url(#clip100)" d="M207.196 918.17 Q207.196 904.379 210.007 895.998 Q212.872 887.565 218.441 883.003 Q224.064 878.441 232.55 878.441 Q238.809 878.441 243.53 880.987 Q248.251 883.48 251.327 888.254 Q254.404 892.975 256.154 899.817 Q257.905 906.607 257.905 918.17 Q257.905 931.855 255.093 940.289 Q252.282 948.669 246.66 953.284 Q241.09 957.846 232.55 957.846 Q221.305 957.846 214.887 949.783 Q207.196 940.076 207.196 918.17 M217.009 918.17 Q217.009 937.318 221.465 943.683 Q225.973 949.995 232.55 949.995 Q239.128 949.995 243.583 943.63 Q248.092 937.265 248.092 918.17 Q248.092 898.969 243.583 892.657 Q239.128 886.345 232.444 886.345 Q225.867 886.345 221.942 891.914 Q217.009 899.022 217.009 918.17 Z" fill="#000000" fill-rule="nonzero" fill-opacity="1" /><path clip-path="url(#clip100)" d="M272.969 956.52 L272.969 945.646 L283.842 945.646 L283.842 956.52 L272.969 956.52 Z" fill="#000000" fill-rule="nonzero" fill-opacity="1" /><path clip-path="url(#clip100)" d="M347.97 947.343 L347.97 956.52 L296.572 956.52 Q296.466 953.072 297.686 949.889 Q299.649 944.638 303.945 939.546 Q308.295 934.454 316.463 927.771 Q329.14 917.374 333.596 911.328 Q338.051 905.228 338.051 899.817 Q338.051 894.142 333.967 890.27 Q329.936 886.345 323.412 886.345 Q316.516 886.345 312.379 890.482 Q308.242 894.619 308.189 901.939 L298.376 900.931 Q299.384 889.952 305.961 884.223 Q312.538 878.441 323.624 878.441 Q334.816 878.441 341.34 884.647 Q347.864 890.853 347.864 900.03 Q347.864 904.697 345.955 909.206 Q344.045 913.714 339.59 918.7 Q335.187 923.686 324.897 932.385 Q316.304 939.599 313.864 942.198 Q311.424 944.744 309.833 947.343 L347.97 947.343 Z" fill="#000000" fill-rule="nonzero" fill-opacity="1" /><path clip-path="url(#clip100)" d="M210.856 683.405 L159.511 683.405 L159.511 674.494 L210.856 674.494 L210.856 683.405 Z" fill="#000000" fill-rule="nonzero" fill-opacity="1" /><path clip-path="url(#clip100)" d="M221.411 678.949 Q221.411 665.158 224.223 656.778 Q227.087 648.344 232.656 643.782 Q238.279 639.221 246.766 639.221 Q253.025 639.221 257.745 641.767 Q262.466 644.26 265.543 649.033 Q268.619 653.754 270.37 660.597 Q272.12 667.386 272.12 678.949 Q272.12 692.634 269.309 701.068 Q266.497 709.449 260.875 714.063 Q255.306 718.625 246.766 718.625 Q235.521 718.625 229.103 710.563 Q221.411 700.856 221.411 678.949 M231.224 678.949 Q231.224 698.098 235.68 704.463 Q240.188 710.775 246.766 710.775 Q253.343 710.775 257.798 704.41 Q262.307 698.045 262.307 678.949 Q262.307 659.748 257.798 653.436 Q253.343 647.124 246.66 647.124 Q240.082 647.124 236.157 652.693 Q231.224 659.801 231.224 678.949 Z" fill="#000000" fill-rule="nonzero" fill-opacity="1" /><path clip-path="url(#clip100)" d="M287.184 717.299 L287.184 706.425 L298.058 706.425 L298.058 717.299 L287.184 717.299 Z" fill="#000000" fill-rule="nonzero" fill-opacity="1" /><path clip-path="url(#clip100)" d="M347.97 717.299 L338.423 717.299 L338.423 656.459 Q334.975 659.748 329.353 663.037 Q323.783 666.325 319.328 667.97 L319.328 658.74 Q327.337 654.974 333.331 649.617 Q339.324 644.26 341.817 639.221 L347.97 639.221 L347.97 717.299 Z" fill="#000000" fill-rule="nonzero" fill-opacity="1" /><path clip-path="url(#clip100)" d="M206.666 439.729 Q206.666 425.938 209.477 417.557 Q212.341 409.123 217.911 404.562 Q223.533 400 232.02 400 Q238.279 400 243 402.546 Q247.72 405.039 250.797 409.813 Q253.873 414.534 255.624 421.376 Q257.374 428.165 257.374 439.729 Q257.374 453.414 254.563 461.847 Q251.752 470.228 246.129 474.843 Q240.56 479.404 232.02 479.404 Q220.775 479.404 214.357 471.342 Q206.666 461.635 206.666 439.729 M216.479 439.729 Q216.479 458.877 220.934 465.242 Q225.443 471.554 232.02 471.554 Q238.597 471.554 243.053 465.189 Q247.561 458.824 247.561 439.729 Q247.561 420.527 243.053 414.215 Q238.597 407.903 231.914 407.903 Q225.337 407.903 221.411 413.473 Q216.479 420.58 216.479 439.729 Z" fill="#000000" fill-rule="nonzero" fill-opacity="1" /><path clip-path="url(#clip100)" d="M272.438 478.078 L272.438 467.205 L283.312 467.205 L283.312 478.078 L272.438 478.078 Z" fill="#000000" fill-rule="nonzero" fill-opacity="1" /><path clip-path="url(#clip100)" d="M297.262 439.729 Q297.262 425.938 300.073 417.557 Q302.937 409.123 308.507 404.562 Q314.129 400 322.616 400 Q328.875 400 333.596 402.546 Q338.317 405.039 341.393 409.813 Q344.47 414.534 346.22 421.376 Q347.97 428.165 347.97 439.729 Q347.97 453.414 345.159 461.847 Q342.348 470.228 336.725 474.843 Q331.156 479.404 322.616 479.404 Q311.371 479.404 304.953 471.342 Q297.262 461.635 297.262 439.729 M307.075 439.729 Q307.075 458.877 311.53 465.242 Q316.039 471.554 322.616 471.554 Q329.193 471.554 333.649 465.189 Q338.158 458.824 338.158 439.729 Q338.158 420.527 333.649 414.215 Q329.193 407.903 322.51 407.903 Q315.933 407.903 312.008 413.473 Q307.075 420.58 307.075 439.729 Z" fill="#000000" fill-rule="nonzero" fill-opacity="1" /><path clip-path="url(#clip100)" d="M221.411 200.508 Q221.411 186.717 224.223 178.336 Q227.087 169.903 232.656 165.341 Q238.279 160.779 246.766 160.779 Q253.025 160.779 257.745 163.325 Q262.466 165.818 265.543 170.592 Q268.619 175.313 270.37 182.155 Q272.12 188.945 272.12 200.508 Q272.12 214.193 269.309 222.627 Q266.497 231.007 260.875 235.622 Q255.306 240.184 246.766 240.184 Q235.521 240.184 229.103 232.121 Q221.411 222.414 221.411 200.508 M231.224 200.508 Q231.224 219.656 235.68 226.021 Q240.188 232.333 246.766 232.333 Q253.343 232.333 257.798 225.968 Q262.307 219.603 262.307 200.508 Q262.307 181.307 257.798 174.995 Q253.343 168.683 246.66 168.683 Q240.082 168.683 236.157 174.252 Q231.224 181.36 231.224 200.508 Z" fill="#000000" fill-rule="nonzero" fill-opacity="1" /><path clip-path="url(#clip100)" d="M287.184 238.858 L287.184 227.984 L298.058 227.984 L298.058 238.858 L287.184 238.858 Z" fill="#000000" fill-rule="nonzero" fill-opacity="1" /><path clip-path="url(#clip100)" d="M347.97 238.858 L338.423 238.858 L338.423 178.018 Q334.975 181.307 329.353 184.595 Q323.783 187.884 319.328 189.528 L319.328 180.299 Q327.337 176.533 333.331 171.176 Q339.324 165.818 341.817 160.779 L347.97 160.779 L347.97 238.858 Z" fill="#000000" fill-rule="nonzero" fill-opacity="1" /><path clip-path="url(#clip100)" d="M54.6728 756.812 L45.5496 756.812 L45.4965 723.873 L74.3515 723.873 Q80.3984 731.458 83.4748 739.52 Q86.4982 747.583 86.4982 756.069 Q86.4982 767.527 81.6183 776.915 Q76.6854 786.25 67.403 791.024 Q58.1206 795.798 46.6635 795.798 Q35.3124 795.798 25.4996 791.077 Q15.6337 786.303 10.8599 777.392 Q6.0861 768.481 6.0861 756.865 Q6.0861 748.431 8.8443 741.642 Q11.5495 734.799 16.4293 730.927 Q21.3092 727.055 29.1595 725.04 L31.7055 734.322 Q25.7648 736.072 22.3701 738.672 Q18.9754 741.271 16.9598 746.097 Q14.8911 750.924 14.8911 756.812 Q14.8911 763.867 17.0659 769.012 Q19.1875 774.157 22.6883 777.339 Q26.1891 780.469 30.3795 782.219 Q37.5932 785.19 46.0269 785.19 Q56.4232 785.19 63.4248 781.636 Q70.4264 778.029 73.8211 771.186 Q77.2158 764.344 77.2158 756.653 Q77.2158 749.97 74.6698 743.604 Q72.0707 737.239 69.1534 733.951 L54.6728 733.951 L54.6728 756.812 Z" fill="#000000" fill-rule="nonzero" fill-opacity="1" /><path clip-path="url(#clip100)" d="M85.1722 676.612 L85.1722 686.16 L24.3326 686.16 Q27.6213 689.607 30.9099 695.23 Q34.1985 700.799 35.8428 705.255 L26.6135 705.255 Q22.8475 697.245 17.4902 691.252 Q12.1329 685.258 7.0939 682.765 L7.0939 676.612 L85.1722 676.612 Z" fill="#000000" fill-rule="nonzero" fill-opacity="1" /><path clip-path="url(#clip100)" d="M64.6448 652.106 L63.3718 642.559 Q71.4872 640.915 75.0941 636.989 Q78.648 633.011 78.648 627.336 Q78.648 620.599 73.9802 615.985 Q69.3125 611.317 62.417 611.317 Q55.8398 611.317 51.5964 615.613 Q47.3 619.91 47.3 626.54 Q47.3 629.245 48.3608 633.276 L39.9801 632.216 Q40.0862 631.261 40.0862 630.677 Q40.0862 624.578 36.9037 619.698 Q33.7211 614.818 27.0908 614.818 Q21.8397 614.818 18.3919 618.372 Q14.9442 621.925 14.9442 627.548 Q14.9442 633.117 18.445 636.83 Q21.9457 640.543 28.9473 641.604 L27.25 651.152 Q17.6493 649.401 12.3981 643.195 Q7.0939 636.989 7.0939 627.76 Q7.0939 621.395 9.8521 616.038 Q12.5573 610.68 17.278 607.869 Q21.9988 605.005 27.303 605.005 Q32.342 605.005 36.4793 607.71 Q40.6166 610.415 43.0566 615.719 Q44.6478 608.824 49.6869 605.005 Q54.6728 601.186 62.2048 601.186 Q72.389 601.186 79.4966 608.612 Q86.5513 616.038 86.5513 627.389 Q86.5513 637.626 80.4514 644.415 Q74.3515 651.152 64.6448 652.106 Z" fill="#000000" fill-rule="nonzero" fill-opacity="1" /><polyline clip-path="url(#clip102)" style="stroke:#009af9; stroke-linecap:round; stroke-linejoin:round; stroke-width:8; stroke-opacity:1; fill:none" points="383.97,176.398 393.765,1296.99 403.56,47.2441 413.355,1349.74 423.15,360.205 432.945,1142.67 442.74,191.291 452.535,102.131 462.33,301.143 472.125,174.907 481.92,120.093 491.715,107.428 501.51,210.318 511.305,136.997 521.1,192.159 530.895,60.6771 540.69,125.947 550.485,107.28 560.28,196.677 570.074,164.674 579.869,308.206 589.664,148.672 599.459,125.059 609.254,190.484 619.049,452.053 628.844,207.655 638.639,661.083 648.434,148.985 658.229,467.948 668.024,613.734 677.819,471.948 687.614,593.541 697.409,186.544 707.204,719.034 716.999,169.117 726.794,176.602 736.589,557.3 746.384,646.111 756.179,531.055 765.974,624.923 775.769,164.786 785.563,635.907 795.358,183.214 805.153,553.892 814.948,558.308 824.743,618.985 834.538,175.323 844.333,161.43 854.128,193.274 863.923,194.686 873.718,592.043 883.513,215.897 893.308,561.866 903.103,524.03 912.898,660.389 922.693,511.738 932.488,595.77 942.283,236.368 952.078,447.099 961.873,214.431 971.668,160.965 981.463,196.52 991.257,706.882 1001.05,203.816 1010.85,196.366 1020.64,207.364 1030.44,227.602 1040.23,570.749 1050.03,496.116 1059.82,673.414 1069.62,264.172 1079.41,279.795 1089.21,393.013 1099,701.381 1108.8,512.038 1118.59,466.269 1128.39,237.075 1138.18,847.546 1147.98,721.886 1157.77,576.88 1167.57,608.081 1177.36,469.118 1187.16,213.065 1196.95,230.013 1206.75,438.396 1216.54,182.88 1226.34,711.005 1236.13,723.072 1245.93,195.955 1255.72,557.722 1265.52,200.026 1275.31,191.14 1285.11,228.887 1294.9,215.589 1304.7,237.762 1314.49,220.379 1324.29,608.593 1334.08,256.832 1343.88,202.018 1353.67,252.275 1363.47,578.243 1373.26,284.942 1383.06,475.861 1392.85,235.517 1402.65,456.971 1412.44,751.965 1422.24,710.89 1432.03,303.193 1441.83,613.029 1451.62,557.062 1461.42,325.758 1471.21,333.624 1481.01,277.563 1490.8,355.754 1500.6,297.155 1510.39,321.347 1520.18,200.451 1529.98,347.038 1539.77,250.543 1549.57,507.707 1559.36,316.485 1569.16,387.25 1578.95,263.587 1588.75,222.332 1598.54,300.829 1608.34,508.737 1618.13,299.823 1627.93,957.551 1637.72,284.402 1647.52,584.179 1657.31,717.748 1667.11,457.058 1676.9,754.948 1686.7,290.227 1696.49,948.976 1706.29,248.213 1716.08,247.965 1725.88,628.428 1735.67,761.842 1745.47,649.773 1755.26,654.87 1765.06,226.832 1774.85,730.19 1784.65,252.77 1794.44,624.686 1804.24,599.026 1814.03,756.118 1823.83,219.88 1833.62,201.543 1843.42,218.289 1853.21,248.739 1863.01,670.099 1872.8,258.362 1882.6,635.601 1892.39,559.2 1902.19,716.125 1911.98,563.609 1921.78,629.776 1931.57,275.254 1941.37,462.341 1951.16,240.204 1960.96,186.978 1970.75,212.598 1980.55,758.703 1990.34,239.48 2000.14,221.629 2009.93,244.531 2019.73,251.581 2029.52,597.267 2039.32,505.653 2049.11,728.505 2058.91,287.396 2068.7,301.175 2078.5,418.846 2088.29,742.229 2098.09,529.751 2107.88,471.407 2117.68,258.662 2127.47,898.466 2137.27,755.773 2147.06,581.15 2156.86,637.964 2166.65,474.407 2176.45,231.499 2186.24,246.468 2196.04,444.554 2205.83,194.772 2215.63,721.303 2225.42,754.449 2235.22,205.559 2245.01,565.2 2254.81,209.506 2264.6,197.622 2274.4,241.703 2284.19,222.882 2293.99,247.823 2303.78,225.75 2313.58,608.187 2323.37,263.722 2333.17,208.569 2342.96,264.534 2352.76,574.068 "/>
<circle clip-path="url(#clip102)" cx="383.97" cy="176.398" r="3.6" fill="#009af9" fill-rule="evenodd" fill-opacity="1" stroke="#000000" stroke-opacity="1" stroke-width="3.2"/>
<circle clip-path="url(#clip102)" cx="393.765" cy="1296.99" r="3.6" fill="#009af9" fill-rule="evenodd" fill-opacity="1" stroke="#000000" stroke-opacity="1" stroke-width="3.2"/>
<circle clip-path="url(#clip102)" cx="403.56" cy="47.2441" r="3.6" fill="#009af9" fill-rule="evenodd" fill-opacity="1" stroke="#000000" stroke-opacity="1" stroke-width="3.2"/>
<circle clip-path="url(#clip102)" cx="413.355" cy="1349.74" r="3.6" fill="#009af9" fill-rule="evenodd" fill-opacity="1" stroke="#000000" stroke-opacity="1" stroke-width="3.2"/>
<circle clip-path="url(#clip102)" cx="423.15" cy="360.205" r="3.6" fill="#009af9" fill-rule="evenodd" fill-opacity="1" stroke="#000000" stroke-opacity="1" stroke-width="3.2"/>
<circle clip-path="url(#clip102)" cx="432.945" cy="1142.67" r="3.6" fill="#009af9" fill-rule="evenodd" fill-opacity="1" stroke="#000000" stroke-opacity="1" stroke-width="3.2"/>
<circle clip-path="url(#clip102)" cx="442.74" cy="191.291" r="3.6" fill="#009af9" fill-rule="evenodd" fill-opacity="1" stroke="#000000" stroke-opacity="1" stroke-width="3.2"/>
<circle clip-path="url(#clip102)" cx="452.535" cy="102.131" r="3.6" fill="#009af9" fill-rule="evenodd" fill-opacity="1" stroke="#000000" stroke-opacity="1" stroke-width="3.2"/>
<circle clip-path="url(#clip102)" cx="462.33" cy="301.143" r="3.6" fill="#009af9" fill-rule="evenodd" fill-opacity="1" stroke="#000000" stroke-opacity="1" stroke-width="3.2"/>
<circle clip-path="url(#clip102)" cx="472.125" cy="174.907" r="3.6" fill="#009af9" fill-rule="evenodd" fill-opacity="1" stroke="#000000" stroke-opacity="1" stroke-width="3.2"/>
<circle clip-path="url(#clip102)" cx="481.92" cy="120.093" r="3.6" fill="#009af9" fill-rule="evenodd" fill-opacity="1" stroke="#000000" stroke-opacity="1" stroke-width="3.2"/>
<circle clip-path="url(#clip102)" cx="491.715" cy="107.428" r="3.6" fill="#009af9" fill-rule="evenodd" fill-opacity="1" stroke="#000000" stroke-opacity="1" stroke-width="3.2"/>
<circle clip-path="url(#clip102)" cx="501.51" cy="210.318" r="3.6" fill="#009af9" fill-rule="evenodd" fill-opacity="1" stroke="#000000" stroke-opacity="1" stroke-width="3.2"/>
<circle clip-path="url(#clip102)" cx="511.305" cy="136.997" r="3.6" fill="#009af9" fill-rule="evenodd" fill-opacity="1" stroke="#000000" stroke-opacity="1" stroke-width="3.2"/>
<circle clip-path="url(#clip102)" cx="521.1" cy="192.159" r="3.6" fill="#009af9" fill-rule="evenodd" fill-opacity="1" stroke="#000000" stroke-opacity="1" stroke-width="3.2"/>
<circle clip-path="url(#clip102)" cx="530.895" cy="60.6771" r="3.6" fill="#009af9" fill-rule="evenodd" fill-opacity="1" stroke="#000000" stroke-opacity="1" stroke-width="3.2"/>
<circle clip-path="url(#clip102)" cx="540.69" cy="125.947" r="3.6" fill="#009af9" fill-rule="evenodd" fill-opacity="1" stroke="#000000" stroke-opacity="1" stroke-width="3.2"/>
<circle clip-path="url(#clip102)" cx="550.485" cy="107.28" r="3.6" fill="#009af9" fill-rule="evenodd" fill-opacity="1" stroke="#000000" stroke-opacity="1" stroke-width="3.2"/>
<circle clip-path="url(#clip102)" cx="560.28" cy="196.677" r="3.6" fill="#009af9" fill-rule="evenodd" fill-opacity="1" stroke="#000000" stroke-opacity="1" stroke-width="3.2"/>
<circle clip-path="url(#clip102)" cx="570.074" cy="164.674" r="3.6" fill="#009af9" fill-rule="evenodd" fill-opacity="1" stroke="#000000" stroke-opacity="1" stroke-width="3.2"/>
<circle clip-path="url(#clip102)" cx="579.869" cy="308.206" r="3.6" fill="#009af9" fill-rule="evenodd" fill-opacity="1" stroke="#000000" stroke-opacity="1" stroke-width="3.2"/>
<circle clip-path="url(#clip102)" cx="589.664" cy="148.672" r="3.6" fill="#009af9" fill-rule="evenodd" fill-opacity="1" stroke="#000000" stroke-opacity="1" stroke-width="3.2"/>
<circle clip-path="url(#clip102)" cx="599.459" cy="125.059" r="3.6" fill="#009af9" fill-rule="evenodd" fill-opacity="1" stroke="#000000" stroke-opacity="1" stroke-width="3.2"/>
<circle clip-path="url(#clip102)" cx="609.254" cy="190.484" r="3.6" fill="#009af9" fill-rule="evenodd" fill-opacity="1" stroke="#000000" stroke-opacity="1" stroke-width="3.2"/>
<circle clip-path="url(#clip102)" cx="619.049" cy="452.053" r="3.6" fill="#009af9" fill-rule="evenodd" fill-opacity="1" stroke="#000000" stroke-opacity="1" stroke-width="3.2"/>
<circle clip-path="url(#clip102)" cx="628.844" cy="207.655" r="3.6" fill="#009af9" fill-rule="evenodd" fill-opacity="1" stroke="#000000" stroke-opacity="1" stroke-width="3.2"/>
<circle clip-path="url(#clip102)" cx="638.639" cy="661.083" r="3.6" fill="#009af9" fill-rule="evenodd" fill-opacity="1" stroke="#000000" stroke-opacity="1" stroke-width="3.2"/>
<circle clip-path="url(#clip102)" cx="648.434" cy="148.985" r="3.6" fill="#009af9" fill-rule="evenodd" fill-opacity="1" stroke="#000000" stroke-opacity="1" stroke-width="3.2"/>
<circle clip-path="url(#clip102)" cx="658.229" cy="467.948" r="3.6" fill="#009af9" fill-rule="evenodd" fill-opacity="1" stroke="#000000" stroke-opacity="1" stroke-width="3.2"/>
<circle clip-path="url(#clip102)" cx="668.024" cy="613.734" r="3.6" fill="#009af9" fill-rule="evenodd" fill-opacity="1" stroke="#000000" stroke-opacity="1" stroke-width="3.2"/>
<circle clip-path="url(#clip102)" cx="677.819" cy="471.948" r="3.6" fill="#009af9" fill-rule="evenodd" fill-opacity="1" stroke="#000000" stroke-opacity="1" stroke-width="3.2"/>
<circle clip-path="url(#clip102)" cx="687.614" cy="593.541" r="3.6" fill="#009af9" fill-rule="evenodd" fill-opacity="1" stroke="#000000" stroke-opacity="1" stroke-width="3.2"/>
<circle clip-path="url(#clip102)" cx="697.409" cy="186.544" r="3.6" fill="#009af9" fill-rule="evenodd" fill-opacity="1" stroke="#000000" stroke-opacity="1" stroke-width="3.2"/>
<circle clip-path="url(#clip102)" cx="707.204" cy="719.034" r="3.6" fill="#009af9" fill-rule="evenodd" fill-opacity="1" stroke="#000000" stroke-opacity="1" stroke-width="3.2"/>
<circle clip-path="url(#clip102)" cx="716.999" cy="169.117" r="3.6" fill="#009af9" fill-rule="evenodd" fill-opacity="1" stroke="#000000" stroke-opacity="1" stroke-width="3.2"/>
<circle clip-path="url(#clip102)" cx="726.794" cy="176.602" r="3.6" fill="#009af9" fill-rule="evenodd" fill-opacity="1" stroke="#000000" stroke-opacity="1" stroke-width="3.2"/>
<circle clip-path="url(#clip102)" cx="736.589" cy="557.3" r="3.6" fill="#009af9" fill-rule="evenodd" fill-opacity="1" stroke="#000000" stroke-opacity="1" stroke-width="3.2"/>
<circle clip-path="url(#clip102)" cx="746.384" cy="646.111" r="3.6" fill="#009af9" fill-rule="evenodd" fill-opacity="1" stroke="#000000" stroke-opacity="1" stroke-width="3.2"/>
<circle clip-path="url(#clip102)" cx="756.179" cy="531.055" r="3.6" fill="#009af9" fill-rule="evenodd" fill-opacity="1" stroke="#000000" stroke-opacity="1" stroke-width="3.2"/>
<circle clip-path="url(#clip102)" cx="765.974" cy="624.923" r="3.6" fill="#009af9" fill-rule="evenodd" fill-opacity="1" stroke="#000000" stroke-opacity="1" stroke-width="3.2"/>
<circle clip-path="url(#clip102)" cx="775.769" cy="164.786" r="3.6" fill="#009af9" fill-rule="evenodd" fill-opacity="1" stroke="#000000" stroke-opacity="1" stroke-width="3.2"/>
<circle clip-path="url(#clip102)" cx="785.563" cy="635.907" r="3.6" fill="#009af9" fill-rule="evenodd" fill-opacity="1" stroke="#000000" stroke-opacity="1" stroke-width="3.2"/>
<circle clip-path="url(#clip102)" cx="795.358" cy="183.214" r="3.6" fill="#009af9" fill-rule="evenodd" fill-opacity="1" stroke="#000000" stroke-opacity="1" stroke-width="3.2"/>
<circle clip-path="url(#clip102)" cx="805.153" cy="553.892" r="3.6" fill="#009af9" fill-rule="evenodd" fill-opacity="1" stroke="#000000" stroke-opacity="1" stroke-width="3.2"/>
<circle clip-path="url(#clip102)" cx="814.948" cy="558.308" r="3.6" fill="#009af9" fill-rule="evenodd" fill-opacity="1" stroke="#000000" stroke-opacity="1" stroke-width="3.2"/>
<circle clip-path="url(#clip102)" cx="824.743" cy="618.985" r="3.6" fill="#009af9" fill-rule="evenodd" fill-opacity="1" stroke="#000000" stroke-opacity="1" stroke-width="3.2"/>
<circle clip-path="url(#clip102)" cx="834.538" cy="175.323" r="3.6" fill="#009af9" fill-rule="evenodd" fill-opacity="1" stroke="#000000" stroke-opacity="1" stroke-width="3.2"/>
<circle clip-path="url(#clip102)" cx="844.333" cy="161.43" r="3.6" fill="#009af9" fill-rule="evenodd" fill-opacity="1" stroke="#000000" stroke-opacity="1" stroke-width="3.2"/>
<circle clip-path="url(#clip102)" cx="854.128" cy="193.274" r="3.6" fill="#009af9" fill-rule="evenodd" fill-opacity="1" stroke="#000000" stroke-opacity="1" stroke-width="3.2"/>
<circle clip-path="url(#clip102)" cx="863.923" cy="194.686" r="3.6" fill="#009af9" fill-rule="evenodd" fill-opacity="1" stroke="#000000" stroke-opacity="1" stroke-width="3.2"/>
<circle clip-path="url(#clip102)" cx="873.718" cy="592.043" r="3.6" fill="#009af9" fill-rule="evenodd" fill-opacity="1" stroke="#000000" stroke-opacity="1" stroke-width="3.2"/>
<circle clip-path="url(#clip102)" cx="883.513" cy="215.897" r="3.6" fill="#009af9" fill-rule="evenodd" fill-opacity="1" stroke="#000000" stroke-opacity="1" stroke-width="3.2"/>
<circle clip-path="url(#clip102)" cx="893.308" cy="561.866" r="3.6" fill="#009af9" fill-rule="evenodd" fill-opacity="1" stroke="#000000" stroke-opacity="1" stroke-width="3.2"/>
<circle clip-path="url(#clip102)" cx="903.103" cy="524.03" r="3.6" fill="#009af9" fill-rule="evenodd" fill-opacity="1" stroke="#000000" stroke-opacity="1" stroke-width="3.2"/>
<circle clip-path="url(#clip102)" cx="912.898" cy="660.389" r="3.6" fill="#009af9" fill-rule="evenodd" fill-opacity="1" stroke="#000000" stroke-opacity="1" stroke-width="3.2"/>
<circle clip-path="url(#clip102)" cx="922.693" cy="511.738" r="3.6" fill="#009af9" fill-rule="evenodd" fill-opacity="1" stroke="#000000" stroke-opacity="1" stroke-width="3.2"/>
<circle clip-path="url(#clip102)" cx="932.488" cy="595.77" r="3.6" fill="#009af9" fill-rule="evenodd" fill-opacity="1" stroke="#000000" stroke-opacity="1" stroke-width="3.2"/>
<circle clip-path="url(#clip102)" cx="942.283" cy="236.368" r="3.6" fill="#009af9" fill-rule="evenodd" fill-opacity="1" stroke="#000000" stroke-opacity="1" stroke-width="3.2"/>
<circle clip-path="url(#clip102)" cx="952.078" cy="447.099" r="3.6" fill="#009af9" fill-rule="evenodd" fill-opacity="1" stroke="#000000" stroke-opacity="1" stroke-width="3.2"/>
<circle clip-path="url(#clip102)" cx="961.873" cy="214.431" r="3.6" fill="#009af9" fill-rule="evenodd" fill-opacity="1" stroke="#000000" stroke-opacity="1" stroke-width="3.2"/>
<circle clip-path="url(#clip102)" cx="971.668" cy="160.965" r="3.6" fill="#009af9" fill-rule="evenodd" fill-opacity="1" stroke="#000000" stroke-opacity="1" stroke-width="3.2"/>
<circle clip-path="url(#clip102)" cx="981.463" cy="196.52" r="3.6" fill="#009af9" fill-rule="evenodd" fill-opacity="1" stroke="#000000" stroke-opacity="1" stroke-width="3.2"/>
<circle clip-path="url(#clip102)" cx="991.257" cy="706.882" r="3.6" fill="#009af9" fill-rule="evenodd" fill-opacity="1" stroke="#000000" stroke-opacity="1" stroke-width="3.2"/>
<circle clip-path="url(#clip102)" cx="1001.05" cy="203.816" r="3.6" fill="#009af9" fill-rule="evenodd" fill-opacity="1" stroke="#000000" stroke-opacity="1" stroke-width="3.2"/>
<circle clip-path="url(#clip102)" cx="1010.85" cy="196.366" r="3.6" fill="#009af9" fill-rule="evenodd" fill-opacity="1" stroke="#000000" stroke-opacity="1" stroke-width="3.2"/>
<circle clip-path="url(#clip102)" cx="1020.64" cy="207.364" r="3.6" fill="#009af9" fill-rule="evenodd" fill-opacity="1" stroke="#000000" stroke-opacity="1" stroke-width="3.2"/>
<circle clip-path="url(#clip102)" cx="1030.44" cy="227.602" r="3.6" fill="#009af9" fill-rule="evenodd" fill-opacity="1" stroke="#000000" stroke-opacity="1" stroke-width="3.2"/>
<circle clip-path="url(#clip102)" cx="1040.23" cy="570.749" r="3.6" fill="#009af9" fill-rule="evenodd" fill-opacity="1" stroke="#000000" stroke-opacity="1" stroke-width="3.2"/>
<circle clip-path="url(#clip102)" cx="1050.03" cy="496.116" r="3.6" fill="#009af9" fill-rule="evenodd" fill-opacity="1" stroke="#000000" stroke-opacity="1" stroke-width="3.2"/>
<circle clip-path="url(#clip102)" cx="1059.82" cy="673.414" r="3.6" fill="#009af9" fill-rule="evenodd" fill-opacity="1" stroke="#000000" stroke-opacity="1" stroke-width="3.2"/>
<circle clip-path="url(#clip102)" cx="1069.62" cy="264.172" r="3.6" fill="#009af9" fill-rule="evenodd" fill-opacity="1" stroke="#000000" stroke-opacity="1" stroke-width="3.2"/>
<circle clip-path="url(#clip102)" cx="1079.41" cy="279.795" r="3.6" fill="#009af9" fill-rule="evenodd" fill-opacity="1" stroke="#000000" stroke-opacity="1" stroke-width="3.2"/>
<circle clip-path="url(#clip102)" cx="1089.21" cy="393.013" r="3.6" fill="#009af9" fill-rule="evenodd" fill-opacity="1" stroke="#000000" stroke-opacity="1" stroke-width="3.2"/>
<circle clip-path="url(#clip102)" cx="1099" cy="701.381" r="3.6" fill="#009af9" fill-rule="evenodd" fill-opacity="1" stroke="#000000" stroke-opacity="1" stroke-width="3.2"/>
<circle clip-path="url(#clip102)" cx="1108.8" cy="512.038" r="3.6" fill="#009af9" fill-rule="evenodd" fill-opacity="1" stroke="#000000" stroke-opacity="1" stroke-width="3.2"/>
<circle clip-path="url(#clip102)" cx="1118.59" cy="466.269" r="3.6" fill="#009af9" fill-rule="evenodd" fill-opacity="1" stroke="#000000" stroke-opacity="1" stroke-width="3.2"/>
<circle clip-path="url(#clip102)" cx="1128.39" cy="237.075" r="3.6" fill="#009af9" fill-rule="evenodd" fill-opacity="1" stroke="#000000" stroke-opacity="1" stroke-width="3.2"/>
<circle clip-path="url(#clip102)" cx="1138.18" cy="847.546" r="3.6" fill="#009af9" fill-rule="evenodd" fill-opacity="1" stroke="#000000" stroke-opacity="1" stroke-width="3.2"/>
<circle clip-path="url(#clip102)" cx="1147.98" cy="721.886" r="3.6" fill="#009af9" fill-rule="evenodd" fill-opacity="1" stroke="#000000" stroke-opacity="1" stroke-width="3.2"/>
<circle clip-path="url(#clip102)" cx="1157.77" cy="576.88" r="3.6" fill="#009af9" fill-rule="evenodd" fill-opacity="1" stroke="#000000" stroke-opacity="1" stroke-width="3.2"/>
<circle clip-path="url(#clip102)" cx="1167.57" cy="608.081" r="3.6" fill="#009af9" fill-rule="evenodd" fill-opacity="1" stroke="#000000" stroke-opacity="1" stroke-width="3.2"/>
<circle clip-path="url(#clip102)" cx="1177.36" cy="469.118" r="3.6" fill="#009af9" fill-rule="evenodd" fill-opacity="1" stroke="#000000" stroke-opacity="1" stroke-width="3.2"/>
<circle clip-path="url(#clip102)" cx="1187.16" cy="213.065" r="3.6" fill="#009af9" fill-rule="evenodd" fill-opacity="1" stroke="#000000" stroke-opacity="1" stroke-width="3.2"/>
<circle clip-path="url(#clip102)" cx="1196.95" cy="230.013" r="3.6" fill="#009af9" fill-rule="evenodd" fill-opacity="1" stroke="#000000" stroke-opacity="1" stroke-width="3.2"/>
<circle clip-path="url(#clip102)" cx="1206.75" cy="438.396" r="3.6" fill="#009af9" fill-rule="evenodd" fill-opacity="1" stroke="#000000" stroke-opacity="1" stroke-width="3.2"/>
<circle clip-path="url(#clip102)" cx="1216.54" cy="182.88" r="3.6" fill="#009af9" fill-rule="evenodd" fill-opacity="1" stroke="#000000" stroke-opacity="1" stroke-width="3.2"/>
<circle clip-path="url(#clip102)" cx="1226.34" cy="711.005" r="3.6" fill="#009af9" fill-rule="evenodd" fill-opacity="1" stroke="#000000" stroke-opacity="1" stroke-width="3.2"/>
<circle clip-path="url(#clip102)" cx="1236.13" cy="723.072" r="3.6" fill="#009af9" fill-rule="evenodd" fill-opacity="1" stroke="#000000" stroke-opacity="1" stroke-width="3.2"/>
<circle clip-path="url(#clip102)" cx="1245.93" cy="195.955" r="3.6" fill="#009af9" fill-rule="evenodd" fill-opacity="1" stroke="#000000" stroke-opacity="1" stroke-width="3.2"/>
<circle clip-path="url(#clip102)" cx="1255.72" cy="557.722" r="3.6" fill="#009af9" fill-rule="evenodd" fill-opacity="1" stroke="#000000" stroke-opacity="1" stroke-width="3.2"/>
<circle clip-path="url(#clip102)" cx="1265.52" cy="200.026" r="3.6" fill="#009af9" fill-rule="evenodd" fill-opacity="1" stroke="#000000" stroke-opacity="1" stroke-width="3.2"/>
<circle clip-path="url(#clip102)" cx="1275.31" cy="191.14" r="3.6" fill="#009af9" fill-rule="evenodd" fill-opacity="1" stroke="#000000" stroke-opacity="1" stroke-width="3.2"/>
<circle clip-path="url(#clip102)" cx="1285.11" cy="228.887" r="3.6" fill="#009af9" fill-rule="evenodd" fill-opacity="1" stroke="#000000" stroke-opacity="1" stroke-width="3.2"/>
<circle clip-path="url(#clip102)" cx="1294.9" cy="215.589" r="3.6" fill="#009af9" fill-rule="evenodd" fill-opacity="1" stroke="#000000" stroke-opacity="1" stroke-width="3.2"/>
<circle clip-path="url(#clip102)" cx="1304.7" cy="237.762" r="3.6" fill="#009af9" fill-rule="evenodd" fill-opacity="1" stroke="#000000" stroke-opacity="1" stroke-width="3.2"/>
<circle clip-path="url(#clip102)" cx="1314.49" cy="220.379" r="3.6" fill="#009af9" fill-rule="evenodd" fill-opacity="1" stroke="#000000" stroke-opacity="1" stroke-width="3.2"/>
<circle clip-path="url(#clip102)" cx="1324.29" cy="608.593" r="3.6" fill="#009af9" fill-rule="evenodd" fill-opacity="1" stroke="#000000" stroke-opacity="1" stroke-width="3.2"/>
<circle clip-path="url(#clip102)" cx="1334.08" cy="256.832" r="3.6" fill="#009af9" fill-rule="evenodd" fill-opacity="1" stroke="#000000" stroke-opacity="1" stroke-width="3.2"/>
<circle clip-path="url(#clip102)" cx="1343.88" cy="202.018" r="3.6" fill="#009af9" fill-rule="evenodd" fill-opacity="1" stroke="#000000" stroke-opacity="1" stroke-width="3.2"/>
<circle clip-path="url(#clip102)" cx="1353.67" cy="252.275" r="3.6" fill="#009af9" fill-rule="evenodd" fill-opacity="1" stroke="#000000" stroke-opacity="1" stroke-width="3.2"/>
<circle clip-path="url(#clip102)" cx="1363.47" cy="578.243" r="3.6" fill="#009af9" fill-rule="evenodd" fill-opacity="1" stroke="#000000" stroke-opacity="1" stroke-width="3.2"/>
<circle clip-path="url(#clip102)" cx="1373.26" cy="284.942" r="3.6" fill="#009af9" fill-rule="evenodd" fill-opacity="1" stroke="#000000" stroke-opacity="1" stroke-width="3.2"/>
<circle clip-path="url(#clip102)" cx="1383.06" cy="475.861" r="3.6" fill="#009af9" fill-rule="evenodd" fill-opacity="1" stroke="#000000" stroke-opacity="1" stroke-width="3.2"/>
<circle clip-path="url(#clip102)" cx="1392.85" cy="235.517" r="3.6" fill="#009af9" fill-rule="evenodd" fill-opacity="1" stroke="#000000" stroke-opacity="1" stroke-width="3.2"/>
<circle clip-path="url(#clip102)" cx="1402.65" cy="456.971" r="3.6" fill="#009af9" fill-rule="evenodd" fill-opacity="1" stroke="#000000" stroke-opacity="1" stroke-width="3.2"/>
<circle clip-path="url(#clip102)" cx="1412.44" cy="751.965" r="3.6" fill="#009af9" fill-rule="evenodd" fill-opacity="1" stroke="#000000" stroke-opacity="1" stroke-width="3.2"/>
<circle clip-path="url(#clip102)" cx="1422.24" cy="710.89" r="3.6" fill="#009af9" fill-rule="evenodd" fill-opacity="1" stroke="#000000" stroke-opacity="1" stroke-width="3.2"/>
<circle clip-path="url(#clip102)" cx="1432.03" cy="303.193" r="3.6" fill="#009af9" fill-rule="evenodd" fill-opacity="1" stroke="#000000" stroke-opacity="1" stroke-width="3.2"/>
<circle clip-path="url(#clip102)" cx="1441.83" cy="613.029" r="3.6" fill="#009af9" fill-rule="evenodd" fill-opacity="1" stroke="#000000" stroke-opacity="1" stroke-width="3.2"/>
<circle clip-path="url(#clip102)" cx="1451.62" cy="557.062" r="3.6" fill="#009af9" fill-rule="evenodd" fill-opacity="1" stroke="#000000" stroke-opacity="1" stroke-width="3.2"/>
<circle clip-path="url(#clip102)" cx="1461.42" cy="325.758" r="3.6" fill="#009af9" fill-rule="evenodd" fill-opacity="1" stroke="#000000" stroke-opacity="1" stroke-width="3.2"/>
<circle clip-path="url(#clip102)" cx="1471.21" cy="333.624" r="3.6" fill="#009af9" fill-rule="evenodd" fill-opacity="1" stroke="#000000" stroke-opacity="1" stroke-width="3.2"/>
<circle clip-path="url(#clip102)" cx="1481.01" cy="277.563" r="3.6" fill="#009af9" fill-rule="evenodd" fill-opacity="1" stroke="#000000" stroke-opacity="1" stroke-width="3.2"/>
<circle clip-path="url(#clip102)" cx="1490.8" cy="355.754" r="3.6" fill="#009af9" fill-rule="evenodd" fill-opacity="1" stroke="#000000" stroke-opacity="1" stroke-width="3.2"/>
<circle clip-path="url(#clip102)" cx="1500.6" cy="297.155" r="3.6" fill="#009af9" fill-rule="evenodd" fill-opacity="1" stroke="#000000" stroke-opacity="1" stroke-width="3.2"/>
<circle clip-path="url(#clip102)" cx="1510.39" cy="321.347" r="3.6" fill="#009af9" fill-rule="evenodd" fill-opacity="1" stroke="#000000" stroke-opacity="1" stroke-width="3.2"/>
<circle clip-path="url(#clip102)" cx="1520.18" cy="200.451" r="3.6" fill="#009af9" fill-rule="evenodd" fill-opacity="1" stroke="#000000" stroke-opacity="1" stroke-width="3.2"/>
<circle clip-path="url(#clip102)" cx="1529.98" cy="347.038" r="3.6" fill="#009af9" fill-rule="evenodd" fill-opacity="1" stroke="#000000" stroke-opacity="1" stroke-width="3.2"/>
<circle clip-path="url(#clip102)" cx="1539.77" cy="250.543" r="3.6" fill="#009af9" fill-rule="evenodd" fill-opacity="1" stroke="#000000" stroke-opacity="1" stroke-width="3.2"/>
<circle clip-path="url(#clip102)" cx="1549.57" cy="507.707" r="3.6" fill="#009af9" fill-rule="evenodd" fill-opacity="1" stroke="#000000" stroke-opacity="1" stroke-width="3.2"/>
<circle clip-path="url(#clip102)" cx="1559.36" cy="316.485" r="3.6" fill="#009af9" fill-rule="evenodd" fill-opacity="1" stroke="#000000" stroke-opacity="1" stroke-width="3.2"/>
<circle clip-path="url(#clip102)" cx="1569.16" cy="387.25" r="3.6" fill="#009af9" fill-rule="evenodd" fill-opacity="1" stroke="#000000" stroke-opacity="1" stroke-width="3.2"/>
<circle clip-path="url(#clip102)" cx="1578.95" cy="263.587" r="3.6" fill="#009af9" fill-rule="evenodd" fill-opacity="1" stroke="#000000" stroke-opacity="1" stroke-width="3.2"/>
<circle clip-path="url(#clip102)" cx="1588.75" cy="222.332" r="3.6" fill="#009af9" fill-rule="evenodd" fill-opacity="1" stroke="#000000" stroke-opacity="1" stroke-width="3.2"/>
<circle clip-path="url(#clip102)" cx="1598.54" cy="300.829" r="3.6" fill="#009af9" fill-rule="evenodd" fill-opacity="1" stroke="#000000" stroke-opacity="1" stroke-width="3.2"/>
<circle clip-path="url(#clip102)" cx="1608.34" cy="508.737" r="3.6" fill="#009af9" fill-rule="evenodd" fill-opacity="1" stroke="#000000" stroke-opacity="1" stroke-width="3.2"/>
<circle clip-path="url(#clip102)" cx="1618.13" cy="299.823" r="3.6" fill="#009af9" fill-rule="evenodd" fill-opacity="1" stroke="#000000" stroke-opacity="1" stroke-width="3.2"/>
<circle clip-path="url(#clip102)" cx="1627.93" cy="957.551" r="3.6" fill="#009af9" fill-rule="evenodd" fill-opacity="1" stroke="#000000" stroke-opacity="1" stroke-width="3.2"/>
<circle clip-path="url(#clip102)" cx="1637.72" cy="284.402" r="3.6" fill="#009af9" fill-rule="evenodd" fill-opacity="1" stroke="#000000" stroke-opacity="1" stroke-width="3.2"/>
<circle clip-path="url(#clip102)" cx="1647.52" cy="584.179" r="3.6" fill="#009af9" fill-rule="evenodd" fill-opacity="1" stroke="#000000" stroke-opacity="1" stroke-width="3.2"/>
<circle clip-path="url(#clip102)" cx="1657.31" cy="717.748" r="3.6" fill="#009af9" fill-rule="evenodd" fill-opacity="1" stroke="#000000" stroke-opacity="1" stroke-width="3.2"/>
<circle clip-path="url(#clip102)" cx="1667.11" cy="457.058" r="3.6" fill="#009af9" fill-rule="evenodd" fill-opacity="1" stroke="#000000" stroke-opacity="1" stroke-width="3.2"/>
<circle clip-path="url(#clip102)" cx="1676.9" cy="754.948" r="3.6" fill="#009af9" fill-rule="evenodd" fill-opacity="1" stroke="#000000" stroke-opacity="1" stroke-width="3.2"/>
<circle clip-path="url(#clip102)" cx="1686.7" cy="290.227" r="3.6" fill="#009af9" fill-rule="evenodd" fill-opacity="1" stroke="#000000" stroke-opacity="1" stroke-width="3.2"/>
<circle clip-path="url(#clip102)" cx="1696.49" cy="948.976" r="3.6" fill="#009af9" fill-rule="evenodd" fill-opacity="1" stroke="#000000" stroke-opacity="1" stroke-width="3.2"/>
<circle clip-path="url(#clip102)" cx="1706.29" cy="248.213" r="3.6" fill="#009af9" fill-rule="evenodd" fill-opacity="1" stroke="#000000" stroke-opacity="1" stroke-width="3.2"/>
<circle clip-path="url(#clip102)" cx="1716.08" cy="247.965" r="3.6" fill="#009af9" fill-rule="evenodd" fill-opacity="1" stroke="#000000" stroke-opacity="1" stroke-width="3.2"/>
<circle clip-path="url(#clip102)" cx="1725.88" cy="628.428" r="3.6" fill="#009af9" fill-rule="evenodd" fill-opacity="1" stroke="#000000" stroke-opacity="1" stroke-width="3.2"/>
<circle clip-path="url(#clip102)" cx="1735.67" cy="761.842" r="3.6" fill="#009af9" fill-rule="evenodd" fill-opacity="1" stroke="#000000" stroke-opacity="1" stroke-width="3.2"/>
<circle clip-path="url(#clip102)" cx="1745.47" cy="649.773" r="3.6" fill="#009af9" fill-rule="evenodd" fill-opacity="1" stroke="#000000" stroke-opacity="1" stroke-width="3.2"/>
<circle clip-path="url(#clip102)" cx="1755.26" cy="654.87" r="3.6" fill="#009af9" fill-rule="evenodd" fill-opacity="1" stroke="#000000" stroke-opacity="1" stroke-width="3.2"/>
<circle clip-path="url(#clip102)" cx="1765.06" cy="226.832" r="3.6" fill="#009af9" fill-rule="evenodd" fill-opacity="1" stroke="#000000" stroke-opacity="1" stroke-width="3.2"/>
<circle clip-path="url(#clip102)" cx="1774.85" cy="730.19" r="3.6" fill="#009af9" fill-rule="evenodd" fill-opacity="1" stroke="#000000" stroke-opacity="1" stroke-width="3.2"/>
<circle clip-path="url(#clip102)" cx="1784.65" cy="252.77" r="3.6" fill="#009af9" fill-rule="evenodd" fill-opacity="1" stroke="#000000" stroke-opacity="1" stroke-width="3.2"/>
<circle clip-path="url(#clip102)" cx="1794.44" cy="624.686" r="3.6" fill="#009af9" fill-rule="evenodd" fill-opacity="1" stroke="#000000" stroke-opacity="1" stroke-width="3.2"/>
<circle clip-path="url(#clip102)" cx="1804.24" cy="599.026" r="3.6" fill="#009af9" fill-rule="evenodd" fill-opacity="1" stroke="#000000" stroke-opacity="1" stroke-width="3.2"/>
<circle clip-path="url(#clip102)" cx="1814.03" cy="756.118" r="3.6" fill="#009af9" fill-rule="evenodd" fill-opacity="1" stroke="#000000" stroke-opacity="1" stroke-width="3.2"/>
<circle clip-path="url(#clip102)" cx="1823.83" cy="219.88" r="3.6" fill="#009af9" fill-rule="evenodd" fill-opacity="1" stroke="#000000" stroke-opacity="1" stroke-width="3.2"/>
<circle clip-path="url(#clip102)" cx="1833.62" cy="201.543" r="3.6" fill="#009af9" fill-rule="evenodd" fill-opacity="1" stroke="#000000" stroke-opacity="1" stroke-width="3.2"/>
<circle clip-path="url(#clip102)" cx="1843.42" cy="218.289" r="3.6" fill="#009af9" fill-rule="evenodd" fill-opacity="1" stroke="#000000" stroke-opacity="1" stroke-width="3.2"/>
<circle clip-path="url(#clip102)" cx="1853.21" cy="248.739" r="3.6" fill="#009af9" fill-rule="evenodd" fill-opacity="1" stroke="#000000" stroke-opacity="1" stroke-width="3.2"/>
<circle clip-path="url(#clip102)" cx="1863.01" cy="670.099" r="3.6" fill="#009af9" fill-rule="evenodd" fill-opacity="1" stroke="#000000" stroke-opacity="1" stroke-width="3.2"/>
<circle clip-path="url(#clip102)" cx="1872.8" cy="258.362" r="3.6" fill="#009af9" fill-rule="evenodd" fill-opacity="1" stroke="#000000" stroke-opacity="1" stroke-width="3.2"/>
<circle clip-path="url(#clip102)" cx="1882.6" cy="635.601" r="3.6" fill="#009af9" fill-rule="evenodd" fill-opacity="1" stroke="#000000" stroke-opacity="1" stroke-width="3.2"/>
<circle clip-path="url(#clip102)" cx="1892.39" cy="559.2" r="3.6" fill="#009af9" fill-rule="evenodd" fill-opacity="1" stroke="#000000" stroke-opacity="1" stroke-width="3.2"/>
<circle clip-path="url(#clip102)" cx="1902.19" cy="716.125" r="3.6" fill="#009af9" fill-rule="evenodd" fill-opacity="1" stroke="#000000" stroke-opacity="1" stroke-width="3.2"/>
<circle clip-path="url(#clip102)" cx="1911.98" cy="563.609" r="3.6" fill="#009af9" fill-rule="evenodd" fill-opacity="1" stroke="#000000" stroke-opacity="1" stroke-width="3.2"/>
<circle clip-path="url(#clip102)" cx="1921.78" cy="629.776" r="3.6" fill="#009af9" fill-rule="evenodd" fill-opacity="1" stroke="#000000" stroke-opacity="1" stroke-width="3.2"/>
<circle clip-path="url(#clip102)" cx="1931.57" cy="275.254" r="3.6" fill="#009af9" fill-rule="evenodd" fill-opacity="1" stroke="#000000" stroke-opacity="1" stroke-width="3.2"/>
<circle clip-path="url(#clip102)" cx="1941.37" cy="462.341" r="3.6" fill="#009af9" fill-rule="evenodd" fill-opacity="1" stroke="#000000" stroke-opacity="1" stroke-width="3.2"/>
<circle clip-path="url(#clip102)" cx="1951.16" cy="240.204" r="3.6" fill="#009af9" fill-rule="evenodd" fill-opacity="1" stroke="#000000" stroke-opacity="1" stroke-width="3.2"/>
<circle clip-path="url(#clip102)" cx="1960.96" cy="186.978" r="3.6" fill="#009af9" fill-rule="evenodd" fill-opacity="1" stroke="#000000" stroke-opacity="1" stroke-width="3.2"/>
<circle clip-path="url(#clip102)" cx="1970.75" cy="212.598" r="3.6" fill="#009af9" fill-rule="evenodd" fill-opacity="1" stroke="#000000" stroke-opacity="1" stroke-width="3.2"/>
<circle clip-path="url(#clip102)" cx="1980.55" cy="758.703" r="3.6" fill="#009af9" fill-rule="evenodd" fill-opacity="1" stroke="#000000" stroke-opacity="1" stroke-width="3.2"/>
<circle clip-path="url(#clip102)" cx="1990.34" cy="239.48" r="3.6" fill="#009af9" fill-rule="evenodd" fill-opacity="1" stroke="#000000" stroke-opacity="1" stroke-width="3.2"/>
<circle clip-path="url(#clip102)" cx="2000.14" cy="221.629" r="3.6" fill="#009af9" fill-rule="evenodd" fill-opacity="1" stroke="#000000" stroke-opacity="1" stroke-width="3.2"/>
<circle clip-path="url(#clip102)" cx="2009.93" cy="244.531" r="3.6" fill="#009af9" fill-rule="evenodd" fill-opacity="1" stroke="#000000" stroke-opacity="1" stroke-width="3.2"/>
<circle clip-path="url(#clip102)" cx="2019.73" cy="251.581" r="3.6" fill="#009af9" fill-rule="evenodd" fill-opacity="1" stroke="#000000" stroke-opacity="1" stroke-width="3.2"/>
<circle clip-path="url(#clip102)" cx="2029.52" cy="597.267" r="3.6" fill="#009af9" fill-rule="evenodd" fill-opacity="1" stroke="#000000" stroke-opacity="1" stroke-width="3.2"/>
<circle clip-path="url(#clip102)" cx="2039.32" cy="505.653" r="3.6" fill="#009af9" fill-rule="evenodd" fill-opacity="1" stroke="#000000" stroke-opacity="1" stroke-width="3.2"/>
<circle clip-path="url(#clip102)" cx="2049.11" cy="728.505" r="3.6" fill="#009af9" fill-rule="evenodd" fill-opacity="1" stroke="#000000" stroke-opacity="1" stroke-width="3.2"/>
<circle clip-path="url(#clip102)" cx="2058.91" cy="287.396" r="3.6" fill="#009af9" fill-rule="evenodd" fill-opacity="1" stroke="#000000" stroke-opacity="1" stroke-width="3.2"/>
<circle clip-path="url(#clip102)" cx="2068.7" cy="301.175" r="3.6" fill="#009af9" fill-rule="evenodd" fill-opacity="1" stroke="#000000" stroke-opacity="1" stroke-width="3.2"/>
<circle clip-path="url(#clip102)" cx="2078.5" cy="418.846" r="3.6" fill="#009af9" fill-rule="evenodd" fill-opacity="1" stroke="#000000" stroke-opacity="1" stroke-width="3.2"/>
<circle clip-path="url(#clip102)" cx="2088.29" cy="742.229" r="3.6" fill="#009af9" fill-rule="evenodd" fill-opacity="1" stroke="#000000" stroke-opacity="1" stroke-width="3.2"/>
<circle clip-path="url(#clip102)" cx="2098.09" cy="529.751" r="3.6" fill="#009af9" fill-rule="evenodd" fill-opacity="1" stroke="#000000" stroke-opacity="1" stroke-width="3.2"/>
<circle clip-path="url(#clip102)" cx="2107.88" cy="471.407" r="3.6" fill="#009af9" fill-rule="evenodd" fill-opacity="1" stroke="#000000" stroke-opacity="1" stroke-width="3.2"/>
<circle clip-path="url(#clip102)" cx="2117.68" cy="258.662" r="3.6" fill="#009af9" fill-rule="evenodd" fill-opacity="1" stroke="#000000" stroke-opacity="1" stroke-width="3.2"/>
<circle clip-path="url(#clip102)" cx="2127.47" cy="898.466" r="3.6" fill="#009af9" fill-rule="evenodd" fill-opacity="1" stroke="#000000" stroke-opacity="1" stroke-width="3.2"/>
<circle clip-path="url(#clip102)" cx="2137.27" cy="755.773" r="3.6" fill="#009af9" fill-rule="evenodd" fill-opacity="1" stroke="#000000" stroke-opacity="1" stroke-width="3.2"/>
<circle clip-path="url(#clip102)" cx="2147.06" cy="581.15" r="3.6" fill="#009af9" fill-rule="evenodd" fill-opacity="1" stroke="#000000" stroke-opacity="1" stroke-width="3.2"/>
<circle clip-path="url(#clip102)" cx="2156.86" cy="637.964" r="3.6" fill="#009af9" fill-rule="evenodd" fill-opacity="1" stroke="#000000" stroke-opacity="1" stroke-width="3.2"/>
<circle clip-path="url(#clip102)" cx="2166.65" cy="474.407" r="3.6" fill="#009af9" fill-rule="evenodd" fill-opacity="1" stroke="#000000" stroke-opacity="1" stroke-width="3.2"/>
<circle clip-path="url(#clip102)" cx="2176.45" cy="231.499" r="3.6" fill="#009af9" fill-rule="evenodd" fill-opacity="1" stroke="#000000" stroke-opacity="1" stroke-width="3.2"/>
<circle clip-path="url(#clip102)" cx="2186.24" cy="246.468" r="3.6" fill="#009af9" fill-rule="evenodd" fill-opacity="1" stroke="#000000" stroke-opacity="1" stroke-width="3.2"/>
<circle clip-path="url(#clip102)" cx="2196.04" cy="444.554" r="3.6" fill="#009af9" fill-rule="evenodd" fill-opacity="1" stroke="#000000" stroke-opacity="1" stroke-width="3.2"/>
<circle clip-path="url(#clip102)" cx="2205.83" cy="194.772" r="3.6" fill="#009af9" fill-rule="evenodd" fill-opacity="1" stroke="#000000" stroke-opacity="1" stroke-width="3.2"/>
<circle clip-path="url(#clip102)" cx="2215.63" cy="721.303" r="3.6" fill="#009af9" fill-rule="evenodd" fill-opacity="1" stroke="#000000" stroke-opacity="1" stroke-width="3.2"/>
<circle clip-path="url(#clip102)" cx="2225.42" cy="754.449" r="3.6" fill="#009af9" fill-rule="evenodd" fill-opacity="1" stroke="#000000" stroke-opacity="1" stroke-width="3.2"/>
<circle clip-path="url(#clip102)" cx="2235.22" cy="205.559" r="3.6" fill="#009af9" fill-rule="evenodd" fill-opacity="1" stroke="#000000" stroke-opacity="1" stroke-width="3.2"/>
<circle clip-path="url(#clip102)" cx="2245.01" cy="565.2" r="3.6" fill="#009af9" fill-rule="evenodd" fill-opacity="1" stroke="#000000" stroke-opacity="1" stroke-width="3.2"/>
<circle clip-path="url(#clip102)" cx="2254.81" cy="209.506" r="3.6" fill="#009af9" fill-rule="evenodd" fill-opacity="1" stroke="#000000" stroke-opacity="1" stroke-width="3.2"/>
<circle clip-path="url(#clip102)" cx="2264.6" cy="197.622" r="3.6" fill="#009af9" fill-rule="evenodd" fill-opacity="1" stroke="#000000" stroke-opacity="1" stroke-width="3.2"/>
<circle clip-path="url(#clip102)" cx="2274.4" cy="241.703" r="3.6" fill="#009af9" fill-rule="evenodd" fill-opacity="1" stroke="#000000" stroke-opacity="1" stroke-width="3.2"/>
<circle clip-path="url(#clip102)" cx="2284.19" cy="222.882" r="3.6" fill="#009af9" fill-rule="evenodd" fill-opacity="1" stroke="#000000" stroke-opacity="1" stroke-width="3.2"/>
<circle clip-path="url(#clip102)" cx="2293.99" cy="247.823" r="3.6" fill="#009af9" fill-rule="evenodd" fill-opacity="1" stroke="#000000" stroke-opacity="1" stroke-width="3.2"/>
<circle clip-path="url(#clip102)" cx="2303.78" cy="225.75" r="3.6" fill="#009af9" fill-rule="evenodd" fill-opacity="1" stroke="#000000" stroke-opacity="1" stroke-width="3.2"/>
<circle clip-path="url(#clip102)" cx="2313.58" cy="608.187" r="3.6" fill="#009af9" fill-rule="evenodd" fill-opacity="1" stroke="#000000" stroke-opacity="1" stroke-width="3.2"/>
<circle clip-path="url(#clip102)" cx="2323.37" cy="263.722" r="3.6" fill="#009af9" fill-rule="evenodd" fill-opacity="1" stroke="#000000" stroke-opacity="1" stroke-width="3.2"/>
<circle clip-path="url(#clip102)" cx="2333.17" cy="208.569" r="3.6" fill="#009af9" fill-rule="evenodd" fill-opacity="1" stroke="#000000" stroke-opacity="1" stroke-width="3.2"/>
<circle clip-path="url(#clip102)" cx="2342.96" cy="264.534" r="3.6" fill="#009af9" fill-rule="evenodd" fill-opacity="1" stroke="#000000" stroke-opacity="1" stroke-width="3.2"/>
<circle clip-path="url(#clip102)" cx="2352.76" cy="574.068" r="3.6" fill="#009af9" fill-rule="evenodd" fill-opacity="1" stroke="#000000" stroke-opacity="1" stroke-width="3.2"/>
<path clip-path="url(#clip100)" d="M1895.64 323.941 L2287.13 323.941 L2287.13 90.6606 L1895.64 90.6606  Z" fill="#ffffff" fill-rule="evenodd" fill-opacity="1"/>
<polyline clip-path="url(#clip100)" style="stroke:#000000; stroke-linecap:round; stroke-linejoin:round; stroke-width:4; stroke-opacity:1; fill:none" points="1895.64,323.941 2287.13,323.941 2287.13,90.6606 1895.64,90.6606 1895.64,323.941 "/>
<polyline clip-path="url(#clip100)" style="stroke:#009af9; stroke-linecap:round; stroke-linejoin:round; stroke-width:18; stroke-opacity:1; fill:none" points="1917.51,207.301 2048.77,207.301 "/>
<circle clip-path="url(#clip100)" cx="1983.14" cy="207.301" r="8.102" fill="#009af9" fill-rule="evenodd" fill-opacity="1" stroke="#000000" stroke-opacity="1" stroke-width="7.20178"/>
<path clip-path="url(#clip100)" d="M2109.63 215.681 L2109.63 206.558 L2142.57 206.505 L2142.57 235.36 Q2134.98 241.407 2126.92 244.483 Q2118.86 247.507 2110.37 247.507 Q2098.91 247.507 2089.53 242.627 Q2080.19 237.694 2075.42 228.411 Q2070.64 219.129 2070.64 207.672 Q2070.64 196.321 2075.36 186.508 Q2080.14 176.642 2089.05 171.868 Q2097.96 167.095 2109.58 167.095 Q2118.01 167.095 2124.8 169.853 Q2131.64 172.558 2135.51 177.438 Q2139.38 182.318 2141.4 190.168 L2132.12 192.714 Q2130.37 186.773 2127.77 183.379 Q2125.17 179.984 2120.34 177.968 Q2115.52 175.9 2109.63 175.9 Q2102.57 175.9 2097.43 178.074 Q2092.28 180.196 2089.1 183.697 Q2085.97 187.198 2084.22 191.388 Q2081.25 198.602 2081.25 207.035 Q2081.25 217.432 2084.8 224.433 Q2088.41 231.435 2095.25 234.83 Q2102.1 238.224 2109.79 238.224 Q2116.47 238.224 2122.84 235.678 Q2129.2 233.079 2132.49 230.162 L2132.49 215.681 L2109.63 215.681 Z" fill="#000000" fill-rule="nonzero" fill-opacity="1" /><path clip-path="url(#clip100)" d="M2189.83 246.181 L2180.28 246.181 L2180.28 185.341 Q2176.83 188.63 2171.21 191.918 Q2165.64 195.207 2161.19 196.851 L2161.19 187.622 Q2169.19 183.856 2175.19 178.499 Q2181.18 173.141 2183.68 168.102 L2189.83 168.102 L2189.83 246.181 Z" fill="#000000" fill-rule="nonzero" fill-opacity="1" /><path clip-path="url(#clip100)" d="M2214.33 225.653 L2223.88 224.38 Q2225.53 232.496 2229.45 236.103 Q2233.43 239.656 2239.1 239.656 Q2245.84 239.656 2250.46 234.989 Q2255.12 230.321 2255.12 223.425 Q2255.12 216.848 2250.83 212.605 Q2246.53 208.308 2239.9 208.308 Q2237.19 208.308 2233.16 209.369 L2234.22 200.989 Q2235.18 201.095 2235.76 201.095 Q2241.86 201.095 2246.74 197.912 Q2251.62 194.73 2251.62 188.099 Q2251.62 182.848 2248.07 179.4 Q2244.51 175.953 2238.89 175.953 Q2233.32 175.953 2229.61 179.453 Q2225.9 182.954 2224.84 189.956 L2215.29 188.258 Q2217.04 178.658 2223.24 173.407 Q2229.45 168.102 2238.68 168.102 Q2245.05 168.102 2250.4 170.861 Q2255.76 173.566 2258.57 178.286 Q2261.44 183.007 2261.44 188.311 Q2261.44 193.35 2258.73 197.488 Q2256.02 201.625 2250.72 204.065 Q2257.62 205.656 2261.44 210.695 Q2265.25 215.681 2265.25 223.213 Q2265.25 233.397 2257.83 240.505 Q2250.4 247.56 2239.05 247.56 Q2228.81 247.56 2222.02 241.46 Q2215.29 235.36 2214.33 225.653 Z" fill="#000000" fill-rule="nonzero" fill-opacity="1" /></svg>
