<?xml version="1.0" encoding="utf-8"?>
<svg xmlns="http://www.w3.org/2000/svg" xmlns:xlink="http://www.w3.org/1999/xlink" width="600" height="400" viewBox="0 0 2400 1600">
<defs>
  <clipPath id="clip150">
    <rect x="0" y="0" width="2400" height="1600"/>
  </clipPath>
</defs>
<path clip-path="url(#clip150)" d="M0 1600 L2400 1600 L2400 8.88178e-14 L0 8.88178e-14  Z" fill="#ffffff" fill-rule="evenodd" fill-opacity="1"/>
<defs>
  <clipPath id="clip151">
    <rect x="480" y="0" width="1681" height="1600"/>
  </clipPath>
</defs>
<path clip-path="url(#clip150)" d="M384.554 1349.74 L2352.76 1349.74 L2352.76 47.2441 L384.554 47.2441  Z" fill="#ffffff" fill-rule="evenodd" fill-opacity="1"/>
<defs>
  <clipPath id="clip152">
    <rect x="384" y="47" width="1969" height="1303"/>
  </clipPath>
</defs>
<polyline clip-path="url(#clip150)" style="stroke:#000000; stroke-linecap:round; stroke-linejoin:round; stroke-width:4; stroke-opacity:1; fill:none" points="384.554,1349.74 2352.76,1349.74 "/>
<polyline clip-path="url(#clip150)" style="stroke:#000000; stroke-linecap:round; stroke-linejoin:round; stroke-width:2; stroke-opacity:0.5; fill:none" points="384.554,47.2441 2352.76,47.2441 "/>
<polyline clip-path="url(#clip150)" style="stroke:#000000; stroke-linecap:round; stroke-linejoin:round; stroke-width:4; stroke-opacity:1; fill:none" points="864.364,1349.74 864.364,1330.84 "/>
<polyline clip-path="url(#clip150)" style="stroke:#000000; stroke-linecap:round; stroke-linejoin:round; stroke-width:4; stroke-opacity:1; fill:none" points="1353.97,1349.74 1353.97,1330.84 "/>
<polyline clip-path="url(#clip150)" style="stroke:#000000; stroke-linecap:round; stroke-linejoin:round; stroke-width:4; stroke-opacity:1; fill:none" points="1843.57,1349.74 1843.57,1330.84 "/>
<polyline clip-path="url(#clip150)" style="stroke:#000000; stroke-linecap:round; stroke-linejoin:round; stroke-width:4; stroke-opacity:1; fill:none" points="2333.17,1349.74 2333.17,1330.84 "/>
<path clip-path="url(#clip150)" d="M808.803 1445.77 L818.827 1444.92 Q819.941 1452.24 823.973 1455.96 Q828.057 1459.62 833.785 1459.62 Q840.681 1459.62 845.455 1454.42 Q850.229 1449.22 850.229 1440.63 Q850.229 1432.46 845.614 1427.74 Q841.052 1423.02 833.626 1423.02 Q829.012 1423.02 825.299 1425.14 Q821.586 1427.21 819.464 1430.55 L810.5 1429.38 L818.032 1389.44 L856.7 1389.44 L856.7 1398.56 L825.67 1398.56 L821.48 1419.46 Q828.481 1414.58 836.172 1414.58 Q846.356 1414.58 853.358 1421.64 Q860.36 1428.69 860.36 1439.78 Q860.36 1450.33 854.207 1458.02 Q846.728 1467.47 833.785 1467.47 Q823.177 1467.47 816.441 1461.53 Q809.757 1455.58 808.803 1445.77 Z" fill="#000000" fill-rule="nonzero" fill-opacity="1" /><path clip-path="url(#clip150)" d="M869.218 1427.79 Q869.218 1414 872.029 1405.62 Q874.893 1397.18 880.463 1392.62 Q886.085 1388.06 894.572 1388.06 Q900.831 1388.06 905.552 1390.61 Q910.272 1393.1 913.349 1397.87 Q916.425 1402.6 918.176 1409.44 Q919.926 1416.23 919.926 1427.79 Q919.926 1441.48 917.115 1449.91 Q914.304 1458.29 908.681 1462.9 Q903.112 1467.47 894.572 1467.47 Q883.327 1467.47 876.909 1459.4 Q869.218 1449.7 869.218 1427.79 M879.03 1427.79 Q879.03 1446.94 883.486 1453.3 Q887.995 1459.62 894.572 1459.62 Q901.149 1459.62 905.605 1453.25 Q910.113 1446.89 910.113 1427.79 Q910.113 1408.59 905.605 1402.28 Q901.149 1395.96 894.466 1395.96 Q887.889 1395.96 883.963 1401.53 Q879.03 1408.64 879.03 1427.79 Z" fill="#000000" fill-rule="nonzero" fill-opacity="1" /><path clip-path="url(#clip150)" d="M1300.5 1466.14 L1290.95 1466.14 L1290.95 1405.3 Q1287.5 1408.59 1281.88 1411.88 Q1276.31 1415.17 1271.86 1416.81 L1271.86 1407.58 Q1279.87 1403.82 1285.86 1398.46 Q1291.85 1393.1 1294.35 1388.06 L1300.5 1388.06 L1300.5 1466.14 Z" fill="#000000" fill-rule="nonzero" fill-opacity="1" /><path clip-path="url(#clip150)" d="M1324.95 1427.79 Q1324.95 1414 1327.76 1405.62 Q1330.63 1397.18 1336.2 1392.62 Q1341.82 1388.06 1350.31 1388.06 Q1356.57 1388.06 1361.29 1390.61 Q1366.01 1393.1 1369.08 1397.87 Q1372.16 1402.6 1373.91 1409.44 Q1375.66 1416.23 1375.66 1427.79 Q1375.66 1441.48 1372.85 1449.91 Q1370.04 1458.29 1364.42 1462.9 Q1358.85 1467.47 1350.31 1467.47 Q1339.06 1467.47 1332.64 1459.4 Q1324.95 1449.7 1324.95 1427.79 M1334.77 1427.79 Q1334.77 1446.94 1339.22 1453.3 Q1343.73 1459.62 1350.31 1459.62 Q1356.88 1459.62 1361.34 1453.25 Q1365.85 1446.89 1365.85 1427.79 Q1365.85 1408.59 1361.34 1402.28 Q1356.88 1395.96 1350.2 1395.96 Q1343.62 1395.96 1339.7 1401.53 Q1334.77 1408.64 1334.77 1427.79 Z" fill="#000000" fill-rule="nonzero" fill-opacity="1" /><path clip-path="url(#clip150)" d="M1385.37 1427.79 Q1385.37 1414 1388.18 1405.62 Q1391.04 1397.18 1396.61 1392.62 Q1402.24 1388.06 1410.72 1388.06 Q1416.98 1388.06 1421.7 1390.61 Q1426.42 1393.1 1429.5 1397.87 Q1432.58 1402.6 1434.33 1409.44 Q1436.08 1416.23 1436.08 1427.79 Q1436.08 1441.48 1433.27 1449.91 Q1430.45 1458.29 1424.83 1462.9 Q1419.26 1467.47 1410.72 1467.47 Q1399.48 1467.47 1393.06 1459.4 Q1385.37 1449.7 1385.37 1427.79 M1395.18 1427.79 Q1395.18 1446.94 1399.64 1453.3 Q1404.14 1459.62 1410.72 1459.62 Q1417.3 1459.62 1421.75 1453.25 Q1426.26 1446.89 1426.26 1427.79 Q1426.26 1408.59 1421.75 1402.28 Q1417.3 1395.96 1410.62 1395.96 Q1404.04 1395.96 1400.11 1401.53 Q1395.18 1408.64 1395.18 1427.79 Z" fill="#000000" fill-rule="nonzero" fill-opacity="1" /><path clip-path="url(#clip150)" d="M1790.1 1466.14 L1780.56 1466.14 L1780.56 1405.3 Q1777.11 1408.59 1771.48 1411.88 Q1765.92 1415.17 1761.46 1416.81 L1761.46 1407.58 Q1769.47 1403.82 1775.46 1398.46 Q1781.46 1393.1 1783.95 1388.06 L1790.1 1388.06 L1790.1 1466.14 Z" fill="#000000" fill-rule="nonzero" fill-opacity="1" /><path clip-path="url(#clip150)" d="M1814.56 1445.77 L1824.58 1444.92 Q1825.69 1452.24 1829.73 1455.96 Q1833.81 1459.62 1839.54 1459.62 Q1846.43 1459.62 1851.21 1454.42 Q1855.98 1449.22 1855.98 1440.63 Q1855.98 1432.46 1851.37 1427.74 Q1846.8 1423.02 1839.38 1423.02 Q1834.76 1423.02 1831.05 1425.14 Q1827.34 1427.21 1825.22 1430.55 L1816.25 1429.38 L1823.78 1389.44 L1862.45 1389.44 L1862.45 1398.56 L1831.42 1398.56 L1827.23 1419.46 Q1834.23 1414.58 1841.92 1414.58 Q1852.11 1414.58 1859.11 1421.64 Q1866.11 1428.69 1866.11 1439.78 Q1866.11 1450.33 1859.96 1458.02 Q1852.48 1467.47 1839.54 1467.47 Q1828.93 1467.47 1822.19 1461.53 Q1815.51 1455.58 1814.56 1445.77 Z" fill="#000000" fill-rule="nonzero" fill-opacity="1" /><path clip-path="url(#clip150)" d="M1874.97 1427.79 Q1874.97 1414 1877.78 1405.62 Q1880.65 1397.18 1886.22 1392.62 Q1891.84 1388.06 1900.32 1388.06 Q1906.58 1388.06 1911.3 1390.61 Q1916.03 1393.1 1919.1 1397.87 Q1922.18 1402.6 1923.93 1409.44 Q1925.68 1416.23 1925.68 1427.79 Q1925.68 1441.48 1922.87 1449.91 Q1920.06 1458.29 1914.43 1462.9 Q1908.86 1467.47 1900.32 1467.47 Q1889.08 1467.47 1882.66 1459.4 Q1874.97 1449.7 1874.97 1427.79 M1884.78 1427.79 Q1884.78 1446.94 1889.24 1453.3 Q1893.75 1459.62 1900.32 1459.62 Q1906.9 1459.62 1911.36 1453.25 Q1915.87 1446.89 1915.87 1427.79 Q1915.87 1408.59 1911.36 1402.28 Q1906.9 1395.96 1900.22 1395.96 Q1893.64 1395.96 1889.72 1401.53 Q1884.78 1408.64 1884.78 1427.79 Z" fill="#000000" fill-rule="nonzero" fill-opacity="1" /><path clip-path="url(#clip150)" d="M2298.24 1456.96 L2298.24 1466.14 L2246.85 1466.14 Q2246.74 1462.69 2247.96 1459.51 Q2249.92 1454.26 2254.22 1449.17 Q2258.57 1444.07 2266.74 1437.39 Q2279.41 1426.99 2283.87 1420.95 Q2288.32 1414.85 2288.32 1409.44 Q2288.32 1403.76 2284.24 1399.89 Q2280.21 1395.96 2273.68 1395.96 Q2266.79 1395.96 2262.65 1400.1 Q2258.51 1404.24 2258.46 1411.56 L2248.65 1410.55 Q2249.66 1399.57 2256.23 1393.84 Q2262.81 1388.06 2273.9 1388.06 Q2285.09 1388.06 2291.61 1394.27 Q2298.14 1400.47 2298.14 1409.65 Q2298.14 1414.32 2296.23 1418.83 Q2294.32 1423.33 2289.86 1428.32 Q2285.46 1433.31 2275.17 1442.01 Q2266.58 1449.22 2264.14 1451.82 Q2261.7 1454.36 2260.11 1456.96 L2298.24 1456.96 Z" fill="#000000" fill-rule="nonzero" fill-opacity="1" /><path clip-path="url(#clip150)" d="M2308.48 1427.79 Q2308.48 1414 2311.29 1405.62 Q2314.16 1397.18 2319.73 1392.62 Q2325.35 1388.06 2333.83 1388.06 Q2340.09 1388.06 2344.81 1390.61 Q2349.54 1393.1 2352.61 1397.87 Q2355.69 1402.6 2357.44 1409.44 Q2359.19 1416.23 2359.19 1427.79 Q2359.19 1441.48 2356.38 1449.91 Q2353.57 1458.29 2347.94 1462.9 Q2342.37 1467.47 2333.83 1467.47 Q2322.59 1467.47 2316.17 1459.4 Q2308.48 1449.7 2308.48 1427.79 M2318.29 1427.79 Q2318.29 1446.94 2322.75 1453.3 Q2327.26 1459.62 2333.83 1459.62 Q2340.41 1459.62 2344.87 1453.25 Q2349.38 1446.89 2349.38 1427.79 Q2349.38 1408.59 2344.87 1402.28 Q2340.41 1395.96 2333.73 1395.96 Q2327.15 1395.96 2323.23 1401.53 Q2318.29 1408.64 2318.29 1427.79 Z" fill="#000000" fill-rule="nonzero" fill-opacity="1" /><path clip-path="url(#clip150)" d="M2368.9 1427.79 Q2368.9 1414 2371.71 1405.62 Q2374.57 1397.18 2380.14 1392.62 Q2385.76 1388.06 2394.25 1388.06 Q2400.51 1388.06 2405.23 1390.61 Q2409.95 1393.1 2413.03 1397.87 Q2416.1 1402.6 2417.85 1409.44 Q2419.6 1416.23 2419.6 1427.79 Q2419.6 1441.48 2416.79 1449.91 Q2413.98 1458.29 2408.36 1462.9 Q2402.79 1467.47 2394.25 1467.47 Q2383.01 1467.47 2376.59 1459.4 Q2368.9 1449.7 2368.9 1427.79 M2378.71 1427.79 Q2378.71 1446.94 2383.16 1453.3 Q2387.67 1459.62 2394.25 1459.62 Q2400.83 1459.62 2405.28 1453.25 Q2409.79 1446.89 2409.79 1427.79 Q2409.79 1408.59 2405.28 1402.28 Q2400.83 1395.96 2394.14 1395.96 Q2387.57 1395.96 2383.64 1401.53 Q2378.71 1408.64 2378.71 1427.79 Z" fill="#000000" fill-rule="nonzero" fill-opacity="1" /><path clip-path="url(#clip150)" d="M1268.09 1577.55 L1277.95 1578.77 Q1275.62 1587.42 1269.31 1592.19 Q1262.99 1596.96 1253.18 1596.96 Q1240.82 1596.96 1233.56 1589.38 Q1226.34 1581.74 1226.34 1568 Q1226.34 1553.79 1233.66 1545.94 Q1240.98 1538.09 1252.65 1538.09 Q1263.95 1538.09 1271.11 1545.78 Q1278.27 1553.47 1278.27 1567.42 Q1278.27 1568.27 1278.22 1569.97 L1236.21 1569.97 Q1236.74 1579.25 1241.46 1584.18 Q1246.18 1589.11 1253.23 1589.11 Q1258.49 1589.11 1262.2 1586.36 Q1265.91 1583.6 1268.09 1577.55 M1236.74 1562.12 L1268.19 1562.12 Q1267.56 1555.01 1264.59 1551.45 Q1260.02 1545.94 1252.76 1545.94 Q1246.18 1545.94 1241.67 1550.34 Q1237.22 1554.74 1236.74 1562.12 Z" fill="#000000" fill-rule="nonzero" fill-opacity="1" /><path clip-path="url(#clip150)" d="M1289.94 1617.28 L1289.94 1539.36 L1298.64 1539.36 L1298.64 1546.68 Q1301.72 1542.38 1305.59 1540.26 Q1309.46 1538.09 1314.98 1538.09 Q1322.19 1538.09 1327.71 1541.8 Q1333.22 1545.51 1336.03 1552.3 Q1338.85 1559.04 1338.85 1567.1 Q1338.85 1575.75 1335.72 1582.7 Q1332.64 1589.59 1326.7 1593.3 Q1320.81 1596.96 1314.29 1596.96 Q1309.51 1596.96 1305.69 1594.95 Q1301.93 1592.93 1299.49 1589.86 L1299.49 1617.28 L1289.94 1617.28 M1298.59 1567.84 Q1298.59 1578.72 1302.99 1583.92 Q1307.39 1589.11 1313.65 1589.11 Q1320.02 1589.11 1324.52 1583.76 Q1329.09 1578.35 1329.09 1567.05 Q1329.09 1556.28 1324.63 1550.92 Q1320.23 1545.57 1314.07 1545.57 Q1307.97 1545.57 1303.25 1551.3 Q1298.59 1556.97 1298.59 1567.84 Z" fill="#000000" fill-rule="nonzero" fill-opacity="1" /><path clip-path="url(#clip150)" d="M1346.8 1567.53 Q1346.8 1551.88 1355.5 1544.35 Q1362.77 1538.09 1373.22 1538.09 Q1384.83 1538.09 1392.21 1545.73 Q1399.58 1553.31 1399.58 1566.73 Q1399.58 1577.6 1396.29 1583.86 Q1393.05 1590.07 1386.8 1593.52 Q1380.59 1596.96 1373.22 1596.96 Q1361.39 1596.96 1354.07 1589.38 Q1346.8 1581.79 1346.8 1567.53 M1356.61 1567.53 Q1356.61 1578.35 1361.34 1583.76 Q1366.06 1589.11 1373.22 1589.11 Q1380.32 1589.11 1385.04 1583.7 Q1389.77 1578.29 1389.77 1567.21 Q1389.77 1556.76 1384.99 1551.4 Q1380.27 1545.99 1373.22 1545.99 Q1366.06 1545.99 1361.34 1551.35 Q1356.61 1556.71 1356.61 1567.53 Z" fill="#000000" fill-rule="nonzero" fill-opacity="1" /><path clip-path="url(#clip150)" d="M1447.53 1575.06 L1456.92 1576.28 Q1455.38 1585.99 1449.01 1591.5 Q1442.7 1596.96 1433.47 1596.96 Q1421.91 1596.96 1414.85 1589.43 Q1407.85 1581.85 1407.85 1567.74 Q1407.85 1558.62 1410.88 1551.77 Q1413.9 1544.93 1420.05 1541.54 Q1426.26 1538.09 1433.53 1538.09 Q1442.7 1538.09 1448.54 1542.76 Q1454.37 1547.37 1456.02 1555.91 L1446.73 1557.34 Q1445.41 1551.67 1442.01 1548.8 Q1438.67 1545.94 1433.9 1545.94 Q1426.68 1545.94 1422.17 1551.14 Q1417.67 1556.28 1417.67 1567.47 Q1417.67 1578.82 1422.02 1583.97 Q1426.36 1589.11 1433.37 1589.11 Q1438.99 1589.11 1442.75 1585.67 Q1446.52 1582.22 1447.53 1575.06 Z" fill="#000000" fill-rule="nonzero" fill-opacity="1" /><path clip-path="url(#clip150)" d="M1465.09 1595.69 L1465.09 1517.93 L1474.63 1517.93 L1474.63 1545.83 Q1481.32 1538.09 1491.5 1538.09 Q1497.76 1538.09 1502.37 1540.58 Q1506.99 1543.02 1508.95 1547.37 Q1510.97 1551.72 1510.97 1559.99 L1510.97 1595.69 L1501.42 1595.69 L1501.42 1559.99 Q1501.42 1552.83 1498.29 1549.6 Q1495.21 1546.31 1489.54 1546.31 Q1485.29 1546.31 1481.53 1548.54 Q1477.82 1550.71 1476.22 1554.48 Q1474.63 1558.24 1474.63 1564.87 L1474.63 1595.69 L1465.09 1595.69 Z" fill="#000000" fill-rule="nonzero" fill-opacity="1" /><polyline clip-path="url(#clip150)" style="stroke:#000000; stroke-linecap:round; stroke-linejoin:round; stroke-width:4; stroke-opacity:1; fill:none" points="384.554,1349.74 384.554,47.2441 "/>
<polyline clip-path="url(#clip150)" style="stroke:#000000; stroke-linecap:round; stroke-linejoin:round; stroke-width:2; stroke-opacity:0.5; fill:none" points="2352.76,1349.74 2352.76,47.2441 "/>
<polyline clip-path="url(#clip150)" style="stroke:#000000; stroke-linecap:round; stroke-linejoin:round; stroke-width:4; stroke-opacity:1; fill:none" points="384.554,1262.77 403.451,1262.77 "/>
<polyline clip-path="url(#clip150)" style="stroke:#000000; stroke-linecap:round; stroke-linejoin:round; stroke-width:4; stroke-opacity:1; fill:none" points="384.554,890.221 403.451,890.221 "/>
<polyline clip-path="url(#clip150)" style="stroke:#000000; stroke-linecap:round; stroke-linejoin:round; stroke-width:4; stroke-opacity:1; fill:none" points="384.554,517.668 403.451,517.668 "/>
<polyline clip-path="url(#clip150)" style="stroke:#000000; stroke-linecap:round; stroke-linejoin:round; stroke-width:4; stroke-opacity:1; fill:none" points="384.554,145.114 403.451,145.114 "/>
<path clip-path="url(#clip150)" d="M195.845 1267.76 L144.5 1267.76 L144.5 1258.85 L195.845 1258.85 L195.845 1267.76 Z" fill="#000000" fill-rule="nonzero" fill-opacity="1" /><path clip-path="url(#clip150)" d="M206.401 1263.31 Q206.401 1249.51 209.212 1241.13 Q212.076 1232.7 217.645 1228.14 Q223.268 1223.58 231.755 1223.58 Q238.014 1223.58 242.734 1226.12 Q247.455 1228.62 250.532 1233.39 Q253.608 1238.11 255.359 1244.95 Q257.109 1251.74 257.109 1263.31 Q257.109 1276.99 254.298 1285.42 Q251.486 1293.8 245.864 1298.42 Q240.295 1302.98 231.755 1302.98 Q220.51 1302.98 214.092 1294.92 Q206.401 1285.21 206.401 1263.31 M216.213 1263.31 Q216.213 1282.45 220.669 1288.82 Q225.177 1295.13 231.755 1295.13 Q238.332 1295.13 242.788 1288.77 Q247.296 1282.4 247.296 1263.31 Q247.296 1244.1 242.788 1237.79 Q238.332 1231.48 231.649 1231.48 Q225.071 1231.48 221.146 1237.05 Q216.213 1244.16 216.213 1263.31 Z" fill="#000000" fill-rule="nonzero" fill-opacity="1" /><path clip-path="url(#clip150)" d="M272.173 1301.65 L272.173 1290.78 L283.047 1290.78 L283.047 1301.65 L272.173 1301.65 Z" fill="#000000" fill-rule="nonzero" fill-opacity="1" /><path clip-path="url(#clip150)" d="M296.997 1281.29 L307.022 1280.44 Q308.136 1287.76 312.167 1291.47 Q316.251 1295.13 321.98 1295.13 Q328.875 1295.13 333.649 1289.93 Q338.423 1284.73 338.423 1276.14 Q338.423 1267.97 333.808 1263.25 Q329.246 1258.53 321.821 1258.53 Q317.206 1258.53 313.493 1260.65 Q309.78 1262.72 307.658 1266.06 L298.694 1264.9 L306.226 1224.96 L344.894 1224.96 L344.894 1234.08 L313.864 1234.08 L309.674 1254.98 Q316.675 1250.1 324.367 1250.1 Q334.551 1250.1 341.552 1257.15 Q348.554 1264.21 348.554 1275.29 Q348.554 1285.85 342.401 1293.54 Q334.922 1302.98 321.98 1302.98 Q311.371 1302.98 304.635 1297.04 Q297.952 1291.1 296.997 1281.29 Z" fill="#000000" fill-rule="nonzero" fill-opacity="1" /><path clip-path="url(#clip150)" d="M207.249 890.752 Q207.249 876.961 210.06 868.58 Q212.925 860.146 218.494 855.585 Q224.117 851.023 232.603 851.023 Q238.862 851.023 243.583 853.569 Q248.304 856.062 251.38 860.836 Q254.457 865.556 256.207 872.399 Q257.958 879.188 257.958 890.752 Q257.958 904.436 255.146 912.87 Q252.335 921.251 246.713 925.866 Q241.143 930.427 232.603 930.427 Q221.358 930.427 214.94 922.365 Q207.249 912.658 207.249 890.752 M217.062 890.752 Q217.062 909.9 221.518 916.265 Q226.026 922.577 232.603 922.577 Q239.181 922.577 243.636 916.212 Q248.145 909.847 248.145 890.752 Q248.145 871.55 243.636 865.238 Q239.181 858.926 232.497 858.926 Q225.92 858.926 221.995 864.496 Q217.062 871.603 217.062 890.752 Z" fill="#000000" fill-rule="nonzero" fill-opacity="1" /><path clip-path="url(#clip150)" d="M273.022 929.101 L273.022 918.227 L283.895 918.227 L283.895 929.101 L273.022 929.101 Z" fill="#000000" fill-rule="nonzero" fill-opacity="1" /><path clip-path="url(#clip150)" d="M297.845 890.752 Q297.845 876.961 300.657 868.58 Q303.521 860.146 309.09 855.585 Q314.713 851.023 323.2 851.023 Q329.459 851.023 334.179 853.569 Q338.9 856.062 341.977 860.836 Q345.053 865.556 346.803 872.399 Q348.554 879.188 348.554 890.752 Q348.554 904.436 345.743 912.87 Q342.931 921.251 337.309 925.866 Q331.739 930.427 323.2 930.427 Q311.955 930.427 305.537 922.365 Q297.845 912.658 297.845 890.752 M307.658 890.752 Q307.658 909.9 312.114 916.265 Q316.622 922.577 323.2 922.577 Q329.777 922.577 334.232 916.212 Q338.741 909.847 338.741 890.752 Q338.741 871.55 334.232 865.238 Q329.777 858.926 323.094 858.926 Q316.516 858.926 312.591 864.496 Q307.658 871.603 307.658 890.752 Z" fill="#000000" fill-rule="nonzero" fill-opacity="1" /><path clip-path="url(#clip150)" d="M206.401 518.198 Q206.401 504.407 209.212 496.026 Q212.076 487.593 217.645 483.031 Q223.268 478.469 231.755 478.469 Q238.014 478.469 242.734 481.015 Q247.455 483.508 250.532 488.282 Q253.608 493.003 255.359 499.845 Q257.109 506.635 257.109 518.198 Q257.109 531.883 254.298 540.317 Q251.486 548.697 245.864 553.312 Q240.295 557.874 231.755 557.874 Q220.51 557.874 214.092 549.811 Q206.401 540.104 206.401 518.198 M216.213 518.198 Q216.213 537.346 220.669 543.711 Q225.177 550.023 231.755 550.023 Q238.332 550.023 242.788 543.658 Q247.296 537.293 247.296 518.198 Q247.296 498.997 242.788 492.685 Q238.332 486.373 231.649 486.373 Q225.071 486.373 221.146 491.942 Q216.213 499.05 216.213 518.198 Z" fill="#000000" fill-rule="nonzero" fill-opacity="1" /><path clip-path="url(#clip150)" d="M272.173 556.548 L272.173 545.674 L283.047 545.674 L283.047 556.548 L272.173 556.548 Z" fill="#000000" fill-rule="nonzero" fill-opacity="1" /><path clip-path="url(#clip150)" d="M296.997 536.179 L307.022 535.331 Q308.136 542.651 312.167 546.363 Q316.251 550.023 321.98 550.023 Q328.875 550.023 333.649 544.825 Q338.423 539.627 338.423 531.034 Q338.423 522.866 333.808 518.145 Q329.246 513.424 321.821 513.424 Q317.206 513.424 313.493 515.546 Q309.78 517.615 307.658 520.956 L298.694 519.789 L306.226 479.848 L344.894 479.848 L344.894 488.972 L313.864 488.972 L309.674 509.87 Q316.675 504.99 324.367 504.99 Q334.551 504.99 341.552 512.045 Q348.554 519.1 348.554 530.186 Q348.554 540.741 342.401 548.432 Q334.922 557.874 321.98 557.874 Q311.371 557.874 304.635 551.933 Q297.952 545.992 296.997 536.179 Z" fill="#000000" fill-rule="nonzero" fill-opacity="1" /><path clip-path="url(#clip150)" d="M243.212 183.994 L233.664 183.994 L233.664 123.155 Q230.217 126.443 224.594 129.732 Q219.025 133.02 214.569 134.665 L214.569 125.435 Q222.578 121.669 228.572 116.312 Q234.566 110.955 237.059 105.916 L243.212 105.916 L243.212 183.994 Z" fill="#000000" fill-rule="nonzero" fill-opacity="1" /><path clip-path="url(#clip150)" d="M273.022 183.994 L273.022 173.12 L283.895 173.12 L283.895 183.994 L273.022 183.994 Z" fill="#000000" fill-rule="nonzero" fill-opacity="1" /><path clip-path="url(#clip150)" d="M297.845 145.644 Q297.845 131.853 300.657 123.473 Q303.521 115.039 309.09 110.477 Q314.713 105.916 323.2 105.916 Q329.459 105.916 334.179 108.462 Q338.9 110.955 341.977 115.729 Q345.053 120.449 346.803 127.292 Q348.554 134.081 348.554 145.644 Q348.554 159.329 345.743 167.763 Q342.931 176.144 337.309 180.758 Q331.739 185.32 323.2 185.32 Q311.955 185.32 305.537 177.258 Q297.845 167.551 297.845 145.644 M307.658 145.644 Q307.658 164.793 312.114 171.158 Q316.622 177.47 323.2 177.47 Q329.777 177.47 334.232 171.105 Q338.741 164.74 338.741 145.644 Q338.741 126.443 334.232 120.131 Q329.777 113.819 323.094 113.819 Q316.516 113.819 312.591 119.389 Q307.658 126.496 307.658 145.644 Z" fill="#000000" fill-rule="nonzero" fill-opacity="1" /><path clip-path="url(#clip150)" d="M54.6728 749.306 L45.5496 749.306 L45.4965 716.367 L74.3515 716.367 Q80.3984 723.952 83.4748 732.015 Q86.4982 740.077 86.4982 748.564 Q86.4982 760.021 81.6183 769.41 Q76.6854 778.745 67.403 783.519 Q58.1206 788.293 46.6635 788.293 Q35.3124 788.293 25.4996 783.572 Q15.6337 778.798 10.8599 769.887 Q6.0861 760.976 6.0861 749.36 Q6.0861 740.926 8.8443 734.136 Q11.5495 727.294 16.4293 723.422 Q21.3092 719.55 29.1595 717.534 L31.7055 726.817 Q25.7648 728.567 22.3701 731.166 Q18.9754 733.765 16.9598 738.592 Q14.8911 743.419 14.8911 749.306 Q14.8911 756.361 17.0659 761.506 Q19.1875 766.651 22.6883 769.834 Q26.1891 772.963 30.3795 774.714 Q37.5932 777.684 46.0269 777.684 Q56.4232 777.684 63.4248 774.13 Q70.4264 770.523 73.8211 763.681 Q77.2158 756.838 77.2158 749.147 Q77.2158 742.464 74.6698 736.099 Q72.0707 729.734 69.1534 726.445 L54.6728 726.445 L54.6728 749.306 Z" fill="#000000" fill-rule="nonzero" fill-opacity="1" /><path clip-path="url(#clip150)" d="M75.9958 654.891 L85.1722 654.891 L85.1722 706.289 Q81.7244 706.395 78.5419 705.175 Q73.2907 703.213 68.1986 698.916 Q63.1066 694.567 56.4232 686.398 Q46.0269 673.721 39.9801 669.266 Q33.8803 664.81 28.4699 664.81 Q22.7944 664.81 18.9223 668.894 Q14.9972 672.926 14.9972 679.45 Q14.9972 686.345 19.1345 690.483 Q23.2718 694.62 30.5916 694.673 L29.5838 704.486 Q18.6041 703.478 12.8755 696.901 Q7.0939 690.323 7.0939 679.238 Q7.0939 668.046 13.2999 661.521 Q19.5058 654.997 28.6821 654.997 Q33.3498 654.997 37.8584 656.907 Q42.367 658.816 47.353 663.272 Q52.339 667.674 61.0379 677.965 Q68.2517 686.557 70.8507 688.997 Q73.3968 691.437 75.9958 693.029 L75.9958 654.891 Z" fill="#000000" fill-rule="nonzero" fill-opacity="1" /><path clip-path="url(#clip150)" d="M85.1722 608.691 L85.1722 618.239 L24.3326 618.239 Q27.6213 621.687 30.9099 627.309 Q34.1985 632.879 35.8428 637.334 L26.6135 637.334 Q22.8475 629.325 17.4902 623.331 Q12.1329 617.337 7.0939 614.844 L7.0939 608.691 L85.1722 608.691 Z" fill="#000000" fill-rule="nonzero" fill-opacity="1" /><polyline clip-path="url(#clip152)" style="stroke:#009af9; stroke-linecap:round; stroke-linejoin:round; stroke-width:8; stroke-opacity:1; fill:none" points="384.554,998.302 394.346,1006.25 404.138,840.497 413.93,589.41 423.722,871.632 433.514,47.2441 443.306,914.697 453.098,460.178 462.89,681.496 472.682,896.076 482.474,1057.55 492.266,929.239 502.058,945.114 511.851,938.904 521.643,898.876 531.435,695.406 541.227,550.879 551.019,862.161 560.811,1091.13 570.603,942.598 580.395,884.48 590.187,805.896 599.979,897.398 609.771,756.463 619.563,881.583 629.355,770.365 639.147,895.46 648.939,996.824 658.731,863.229 668.523,1139.95 678.315,913.923 688.107,1000.3 697.899,942.419 707.692,553.192 717.484,924.131 727.276,974.814 737.068,865.909 746.86,878.625 756.652,975.776 766.444,661.927 776.236,1022.89 786.028,861.24 795.82,796.758 805.612,958.087 815.404,777.538 825.196,1162.36 834.988,870.403 844.78,815.754 854.572,766.017 864.364,933.913 874.156,781.818 883.948,825.879 893.74,817.254 903.533,860.716 913.325,1044.48 923.117,819.754 932.909,1005.25 942.701,847.926 952.493,890.515 962.285,789.719 972.077,909.838 981.869,816.992 991.661,1143.45 1001.45,944.424 1011.25,854.787 1021.04,954.874 1030.83,877.729 1040.62,914.038 1050.41,899.384 1060.21,624.96 1070,818.762 1079.79,826.298 1089.58,949.1 1099.37,1262.07 1109.17,824.66 1118.96,869.67 1128.75,949.052 1138.54,1069.13 1148.33,677.108 1158.13,734.769 1167.92,1138.12 1177.71,871.527 1187.5,1020.59 1197.29,845.661 1207.09,889.197 1216.88,971.692 1226.67,616.953 1236.46,1088.71 1246.25,854.965 1256.05,982.089 1265.84,877.648 1275.63,802.324 1285.42,940.029 1295.21,854.45 1305.01,907.717 1314.8,806.426 1324.59,890.024 1334.38,846.661 1344.17,881.463 1353.97,961.786 1363.76,841.085 1373.55,954.118 1383.34,895.023 1393.14,864.537 1402.93,884.496 1412.72,963.515 1422.51,562.92 1432.3,903.716 1442.1,1111.12 1451.89,1066.05 1461.68,892.742 1471.47,946.042 1481.26,909.222 1491.06,910.36 1500.85,913.123 1510.64,894.358 1520.43,768.311 1530.22,792.91 1540.02,874.363 1549.81,834.276 1559.6,913.71 1569.39,888.016 1579.18,839.636 1588.98,895.121 1598.77,816.387 1608.56,844.293 1618.35,818.856 1628.14,902.617 1637.94,947.264 1647.73,748.47 1657.52,1280.7 1667.31,903.268 1677.1,1105.65 1686.9,921.314 1696.69,262.301 1706.48,914.116 1716.27,951.706 1726.06,850.024 1735.86,872.667 1745.65,1081.52 1755.44,622.933 1765.23,994.777 1775.02,846.187 1784.82,822.656 1794.61,1000.41 1804.4,736.029 1814.19,1349.74 1823.99,873.683 1833.78,827.66 1843.57,779.162 1853.36,924.608 1863.15,720.804 1872.95,838.799 1882.74,774.988 1892.53,849.583 1902.32,1083.46 1912.11,766.653 1921.91,1022.94 1931.7,855.806 1941.49,891.058 1951.28,802.24 1961.07,907.867 1970.87,823.253 1980.66,1193.45 1990.45,936.372 2000.24,858.297 2010.03,945.408 2019.83,879.274 2029.62,919.48 2039.41,901.216 2049.2,554.511 2058.99,829.084 2068.79,835.622 2078.58,917.227 2088.37,1309.39 2098.16,804.805 2107.95,864.763 2117.75,942.965 2127.54,1081.65 2137.33,640.805 2147.12,725.292 2156.91,1176.41 2166.71,867.412 2176.5,1011.29 2186.29,849.686 2196.08,896.984 2205.88,968.968 2215.67,599.968 2225.46,1102.03 2235.25,856.596 2245.04,984.787 2254.84,878.19 2264.63,805.036 2274.42,937.304 2284.21,855.928 2294,906.844 2303.8,808.357 2313.59,890.03 2323.38,848.268 2333.17,881.798 2342.96,957.442 2352.76,843.658 "/>
<circle clip-path="url(#clip152)" cx="384.554" cy="998.302" r="3.6" fill="#009af9" fill-rule="evenodd" fill-opacity="1" stroke="#000000" stroke-opacity="1" stroke-width="3.2"/>
<circle clip-path="url(#clip152)" cx="394.346" cy="1006.25" r="3.6" fill="#009af9" fill-rule="evenodd" fill-opacity="1" stroke="#000000" stroke-opacity="1" stroke-width="3.2"/>
<circle clip-path="url(#clip152)" cx="404.138" cy="840.497" r="3.6" fill="#009af9" fill-rule="evenodd" fill-opacity="1" stroke="#000000" stroke-opacity="1" stroke-width="3.2"/>
<circle clip-path="url(#clip152)" cx="413.93" cy="589.41" r="3.6" fill="#009af9" fill-rule="evenodd" fill-opacity="1" stroke="#000000" stroke-opacity="1" stroke-width="3.2"/>
<circle clip-path="url(#clip152)" cx="423.722" cy="871.632" r="3.6" fill="#009af9" fill-rule="evenodd" fill-opacity="1" stroke="#000000" stroke-opacity="1" stroke-width="3.2"/>
<circle clip-path="url(#clip152)" cx="433.514" cy="47.2441" r="3.6" fill="#009af9" fill-rule="evenodd" fill-opacity="1" stroke="#000000" stroke-opacity="1" stroke-width="3.2"/>
<circle clip-path="url(#clip152)" cx="443.306" cy="914.697" r="3.6" fill="#009af9" fill-rule="evenodd" fill-opacity="1" stroke="#000000" stroke-opacity="1" stroke-width="3.2"/>
<circle clip-path="url(#clip152)" cx="453.098" cy="460.178" r="3.6" fill="#009af9" fill-rule="evenodd" fill-opacity="1" stroke="#000000" stroke-opacity="1" stroke-width="3.2"/>
<circle clip-path="url(#clip152)" cx="462.89" cy="681.496" r="3.6" fill="#009af9" fill-rule="evenodd" fill-opacity="1" stroke="#000000" stroke-opacity="1" stroke-width="3.2"/>
<circle clip-path="url(#clip152)" cx="472.682" cy="896.076" r="3.6" fill="#009af9" fill-rule="evenodd" fill-opacity="1" stroke="#000000" stroke-opacity="1" stroke-width="3.2"/>
<circle clip-path="url(#clip152)" cx="482.474" cy="1057.55" r="3.6" fill="#009af9" fill-rule="evenodd" fill-opacity="1" stroke="#000000" stroke-opacity="1" stroke-width="3.2"/>
<circle clip-path="url(#clip152)" cx="492.266" cy="929.239" r="3.6" fill="#009af9" fill-rule="evenodd" fill-opacity="1" stroke="#000000" stroke-opacity="1" stroke-width="3.2"/>
<circle clip-path="url(#clip152)" cx="502.058" cy="945.114" r="3.6" fill="#009af9" fill-rule="evenodd" fill-opacity="1" stroke="#000000" stroke-opacity="1" stroke-width="3.2"/>
<circle clip-path="url(#clip152)" cx="511.851" cy="938.904" r="3.6" fill="#009af9" fill-rule="evenodd" fill-opacity="1" stroke="#000000" stroke-opacity="1" stroke-width="3.2"/>
<circle clip-path="url(#clip152)" cx="521.643" cy="898.876" r="3.6" fill="#009af9" fill-rule="evenodd" fill-opacity="1" stroke="#000000" stroke-opacity="1" stroke-width="3.2"/>
<circle clip-path="url(#clip152)" cx="531.435" cy="695.406" r="3.6" fill="#009af9" fill-rule="evenodd" fill-opacity="1" stroke="#000000" stroke-opacity="1" stroke-width="3.2"/>
<circle clip-path="url(#clip152)" cx="541.227" cy="550.879" r="3.6" fill="#009af9" fill-rule="evenodd" fill-opacity="1" stroke="#000000" stroke-opacity="1" stroke-width="3.2"/>
<circle clip-path="url(#clip152)" cx="551.019" cy="862.161" r="3.6" fill="#009af9" fill-rule="evenodd" fill-opacity="1" stroke="#000000" stroke-opacity="1" stroke-width="3.2"/>
<circle clip-path="url(#clip152)" cx="560.811" cy="1091.13" r="3.6" fill="#009af9" fill-rule="evenodd" fill-opacity="1" stroke="#000000" stroke-opacity="1" stroke-width="3.2"/>
<circle clip-path="url(#clip152)" cx="570.603" cy="942.598" r="3.6" fill="#009af9" fill-rule="evenodd" fill-opacity="1" stroke="#000000" stroke-opacity="1" stroke-width="3.2"/>
<circle clip-path="url(#clip152)" cx="580.395" cy="884.48" r="3.6" fill="#009af9" fill-rule="evenodd" fill-opacity="1" stroke="#000000" stroke-opacity="1" stroke-width="3.2"/>
<circle clip-path="url(#clip152)" cx="590.187" cy="805.896" r="3.6" fill="#009af9" fill-rule="evenodd" fill-opacity="1" stroke="#000000" stroke-opacity="1" stroke-width="3.2"/>
<circle clip-path="url(#clip152)" cx="599.979" cy="897.398" r="3.6" fill="#009af9" fill-rule="evenodd" fill-opacity="1" stroke="#000000" stroke-opacity="1" stroke-width="3.2"/>
<circle clip-path="url(#clip152)" cx="609.771" cy="756.463" r="3.6" fill="#009af9" fill-rule="evenodd" fill-opacity="1" stroke="#000000" stroke-opacity="1" stroke-width="3.2"/>
<circle clip-path="url(#clip152)" cx="619.563" cy="881.583" r="3.6" fill="#009af9" fill-rule="evenodd" fill-opacity="1" stroke="#000000" stroke-opacity="1" stroke-width="3.2"/>
<circle clip-path="url(#clip152)" cx="629.355" cy="770.365" r="3.6" fill="#009af9" fill-rule="evenodd" fill-opacity="1" stroke="#000000" stroke-opacity="1" stroke-width="3.2"/>
<circle clip-path="url(#clip152)" cx="639.147" cy="895.46" r="3.6" fill="#009af9" fill-rule="evenodd" fill-opacity="1" stroke="#000000" stroke-opacity="1" stroke-width="3.2"/>
<circle clip-path="url(#clip152)" cx="648.939" cy="996.824" r="3.6" fill="#009af9" fill-rule="evenodd" fill-opacity="1" stroke="#000000" stroke-opacity="1" stroke-width="3.2"/>
<circle clip-path="url(#clip152)" cx="658.731" cy="863.229" r="3.6" fill="#009af9" fill-rule="evenodd" fill-opacity="1" stroke="#000000" stroke-opacity="1" stroke-width="3.2"/>
<circle clip-path="url(#clip152)" cx="668.523" cy="1139.95" r="3.6" fill="#009af9" fill-rule="evenodd" fill-opacity="1" stroke="#000000" stroke-opacity="1" stroke-width="3.2"/>
<circle clip-path="url(#clip152)" cx="678.315" cy="913.923" r="3.6" fill="#009af9" fill-rule="evenodd" fill-opacity="1" stroke="#000000" stroke-opacity="1" stroke-width="3.2"/>
<circle clip-path="url(#clip152)" cx="688.107" cy="1000.3" r="3.6" fill="#009af9" fill-rule="evenodd" fill-opacity="1" stroke="#000000" stroke-opacity="1" stroke-width="3.2"/>
<circle clip-path="url(#clip152)" cx="697.899" cy="942.419" r="3.6" fill="#009af9" fill-rule="evenodd" fill-opacity="1" stroke="#000000" stroke-opacity="1" stroke-width="3.2"/>
<circle clip-path="url(#clip152)" cx="707.692" cy="553.192" r="3.6" fill="#009af9" fill-rule="evenodd" fill-opacity="1" stroke="#000000" stroke-opacity="1" stroke-width="3.2"/>
<circle clip-path="url(#clip152)" cx="717.484" cy="924.131" r="3.6" fill="#009af9" fill-rule="evenodd" fill-opacity="1" stroke="#000000" stroke-opacity="1" stroke-width="3.2"/>
<circle clip-path="url(#clip152)" cx="727.276" cy="974.814" r="3.6" fill="#009af9" fill-rule="evenodd" fill-opacity="1" stroke="#000000" stroke-opacity="1" stroke-width="3.2"/>
<circle clip-path="url(#clip152)" cx="737.068" cy="865.909" r="3.6" fill="#009af9" fill-rule="evenodd" fill-opacity="1" stroke="#000000" stroke-opacity="1" stroke-width="3.2"/>
<circle clip-path="url(#clip152)" cx="746.86" cy="878.625" r="3.6" fill="#009af9" fill-rule="evenodd" fill-opacity="1" stroke="#000000" stroke-opacity="1" stroke-width="3.2"/>
<circle clip-path="url(#clip152)" cx="756.652" cy="975.776" r="3.6" fill="#009af9" fill-rule="evenodd" fill-opacity="1" stroke="#000000" stroke-opacity="1" stroke-width="3.2"/>
<circle clip-path="url(#clip152)" cx="766.444" cy="661.927" r="3.6" fill="#009af9" fill-rule="evenodd" fill-opacity="1" stroke="#000000" stroke-opacity="1" stroke-width="3.2"/>
<circle clip-path="url(#clip152)" cx="776.236" cy="1022.89" r="3.6" fill="#009af9" fill-rule="evenodd" fill-opacity="1" stroke="#000000" stroke-opacity="1" stroke-width="3.2"/>
<circle clip-path="url(#clip152)" cx="786.028" cy="861.24" r="3.6" fill="#009af9" fill-rule="evenodd" fill-opacity="1" stroke="#000000" stroke-opacity="1" stroke-width="3.2"/>
<circle clip-path="url(#clip152)" cx="795.82" cy="796.758" r="3.6" fill="#009af9" fill-rule="evenodd" fill-opacity="1" stroke="#000000" stroke-opacity="1" stroke-width="3.2"/>
<circle clip-path="url(#clip152)" cx="805.612" cy="958.087" r="3.6" fill="#009af9" fill-rule="evenodd" fill-opacity="1" stroke="#000000" stroke-opacity="1" stroke-width="3.2"/>
<circle clip-path="url(#clip152)" cx="815.404" cy="777.538" r="3.6" fill="#009af9" fill-rule="evenodd" fill-opacity="1" stroke="#000000" stroke-opacity="1" stroke-width="3.2"/>
<circle clip-path="url(#clip152)" cx="825.196" cy="1162.36" r="3.6" fill="#009af9" fill-rule="evenodd" fill-opacity="1" stroke="#000000" stroke-opacity="1" stroke-width="3.2"/>
<circle clip-path="url(#clip152)" cx="834.988" cy="870.403" r="3.6" fill="#009af9" fill-rule="evenodd" fill-opacity="1" stroke="#000000" stroke-opacity="1" stroke-width="3.2"/>
<circle clip-path="url(#clip152)" cx="844.78" cy="815.754" r="3.6" fill="#009af9" fill-rule="evenodd" fill-opacity="1" stroke="#000000" stroke-opacity="1" stroke-width="3.2"/>
<circle clip-path="url(#clip152)" cx="854.572" cy="766.017" r="3.6" fill="#009af9" fill-rule="evenodd" fill-opacity="1" stroke="#000000" stroke-opacity="1" stroke-width="3.2"/>
<circle clip-path="url(#clip152)" cx="864.364" cy="933.913" r="3.6" fill="#009af9" fill-rule="evenodd" fill-opacity="1" stroke="#000000" stroke-opacity="1" stroke-width="3.2"/>
<circle clip-path="url(#clip152)" cx="874.156" cy="781.818" r="3.6" fill="#009af9" fill-rule="evenodd" fill-opacity="1" stroke="#000000" stroke-opacity="1" stroke-width="3.2"/>
<circle clip-path="url(#clip152)" cx="883.948" cy="825.879" r="3.6" fill="#009af9" fill-rule="evenodd" fill-opacity="1" stroke="#000000" stroke-opacity="1" stroke-width="3.2"/>
<circle clip-path="url(#clip152)" cx="893.74" cy="817.254" r="3.6" fill="#009af9" fill-rule="evenodd" fill-opacity="1" stroke="#000000" stroke-opacity="1" stroke-width="3.2"/>
<circle clip-path="url(#clip152)" cx="903.533" cy="860.716" r="3.6" fill="#009af9" fill-rule="evenodd" fill-opacity="1" stroke="#000000" stroke-opacity="1" stroke-width="3.2"/>
<circle clip-path="url(#clip152)" cx="913.325" cy="1044.48" r="3.6" fill="#009af9" fill-rule="evenodd" fill-opacity="1" stroke="#000000" stroke-opacity="1" stroke-width="3.2"/>
<circle clip-path="url(#clip152)" cx="923.117" cy="819.754" r="3.6" fill="#009af9" fill-rule="evenodd" fill-opacity="1" stroke="#000000" stroke-opacity="1" stroke-width="3.2"/>
<circle clip-path="url(#clip152)" cx="932.909" cy="1005.25" r="3.6" fill="#009af9" fill-rule="evenodd" fill-opacity="1" stroke="#000000" stroke-opacity="1" stroke-width="3.2"/>
<circle clip-path="url(#clip152)" cx="942.701" cy="847.926" r="3.6" fill="#009af9" fill-rule="evenodd" fill-opacity="1" stroke="#000000" stroke-opacity="1" stroke-width="3.2"/>
<circle clip-path="url(#clip152)" cx="952.493" cy="890.515" r="3.6" fill="#009af9" fill-rule="evenodd" fill-opacity="1" stroke="#000000" stroke-opacity="1" stroke-width="3.2"/>
<circle clip-path="url(#clip152)" cx="962.285" cy="789.719" r="3.6" fill="#009af9" fill-rule="evenodd" fill-opacity="1" stroke="#000000" stroke-opacity="1" stroke-width="3.2"/>
<circle clip-path="url(#clip152)" cx="972.077" cy="909.838" r="3.6" fill="#009af9" fill-rule="evenodd" fill-opacity="1" stroke="#000000" stroke-opacity="1" stroke-width="3.2"/>
<circle clip-path="url(#clip152)" cx="981.869" cy="816.992" r="3.6" fill="#009af9" fill-rule="evenodd" fill-opacity="1" stroke="#000000" stroke-opacity="1" stroke-width="3.2"/>
<circle clip-path="url(#clip152)" cx="991.661" cy="1143.45" r="3.6" fill="#009af9" fill-rule="evenodd" fill-opacity="1" stroke="#000000" stroke-opacity="1" stroke-width="3.2"/>
<circle clip-path="url(#clip152)" cx="1001.45" cy="944.424" r="3.6" fill="#009af9" fill-rule="evenodd" fill-opacity="1" stroke="#000000" stroke-opacity="1" stroke-width="3.2"/>
<circle clip-path="url(#clip152)" cx="1011.25" cy="854.787" r="3.6" fill="#009af9" fill-rule="evenodd" fill-opacity="1" stroke="#000000" stroke-opacity="1" stroke-width="3.2"/>
<circle clip-path="url(#clip152)" cx="1021.04" cy="954.874" r="3.6" fill="#009af9" fill-rule="evenodd" fill-opacity="1" stroke="#000000" stroke-opacity="1" stroke-width="3.2"/>
<circle clip-path="url(#clip152)" cx="1030.83" cy="877.729" r="3.6" fill="#009af9" fill-rule="evenodd" fill-opacity="1" stroke="#000000" stroke-opacity="1" stroke-width="3.2"/>
<circle clip-path="url(#clip152)" cx="1040.62" cy="914.038" r="3.6" fill="#009af9" fill-rule="evenodd" fill-opacity="1" stroke="#000000" stroke-opacity="1" stroke-width="3.2"/>
<circle clip-path="url(#clip152)" cx="1050.41" cy="899.384" r="3.6" fill="#009af9" fill-rule="evenodd" fill-opacity="1" stroke="#000000" stroke-opacity="1" stroke-width="3.2"/>
<circle clip-path="url(#clip152)" cx="1060.21" cy="624.96" r="3.6" fill="#009af9" fill-rule="evenodd" fill-opacity="1" stroke="#000000" stroke-opacity="1" stroke-width="3.2"/>
<circle clip-path="url(#clip152)" cx="1070" cy="818.762" r="3.6" fill="#009af9" fill-rule="evenodd" fill-opacity="1" stroke="#000000" stroke-opacity="1" stroke-width="3.2"/>
<circle clip-path="url(#clip152)" cx="1079.79" cy="826.298" r="3.6" fill="#009af9" fill-rule="evenodd" fill-opacity="1" stroke="#000000" stroke-opacity="1" stroke-width="3.2"/>
<circle clip-path="url(#clip152)" cx="1089.58" cy="949.1" r="3.6" fill="#009af9" fill-rule="evenodd" fill-opacity="1" stroke="#000000" stroke-opacity="1" stroke-width="3.2"/>
<circle clip-path="url(#clip152)" cx="1099.37" cy="1262.07" r="3.6" fill="#009af9" fill-rule="evenodd" fill-opacity="1" stroke="#000000" stroke-opacity="1" stroke-width="3.2"/>
<circle clip-path="url(#clip152)" cx="1109.17" cy="824.66" r="3.6" fill="#009af9" fill-rule="evenodd" fill-opacity="1" stroke="#000000" stroke-opacity="1" stroke-width="3.2"/>
<circle clip-path="url(#clip152)" cx="1118.96" cy="869.67" r="3.6" fill="#009af9" fill-rule="evenodd" fill-opacity="1" stroke="#000000" stroke-opacity="1" stroke-width="3.2"/>
<circle clip-path="url(#clip152)" cx="1128.75" cy="949.052" r="3.6" fill="#009af9" fill-rule="evenodd" fill-opacity="1" stroke="#000000" stroke-opacity="1" stroke-width="3.2"/>
<circle clip-path="url(#clip152)" cx="1138.54" cy="1069.13" r="3.6" fill="#009af9" fill-rule="evenodd" fill-opacity="1" stroke="#000000" stroke-opacity="1" stroke-width="3.2"/>
<circle clip-path="url(#clip152)" cx="1148.33" cy="677.108" r="3.6" fill="#009af9" fill-rule="evenodd" fill-opacity="1" stroke="#000000" stroke-opacity="1" stroke-width="3.2"/>
<circle clip-path="url(#clip152)" cx="1158.13" cy="734.769" r="3.6" fill="#009af9" fill-rule="evenodd" fill-opacity="1" stroke="#000000" stroke-opacity="1" stroke-width="3.2"/>
<circle clip-path="url(#clip152)" cx="1167.92" cy="1138.12" r="3.6" fill="#009af9" fill-rule="evenodd" fill-opacity="1" stroke="#000000" stroke-opacity="1" stroke-width="3.2"/>
<circle clip-path="url(#clip152)" cx="1177.71" cy="871.527" r="3.6" fill="#009af9" fill-rule="evenodd" fill-opacity="1" stroke="#000000" stroke-opacity="1" stroke-width="3.2"/>
<circle clip-path="url(#clip152)" cx="1187.5" cy="1020.59" r="3.6" fill="#009af9" fill-rule="evenodd" fill-opacity="1" stroke="#000000" stroke-opacity="1" stroke-width="3.2"/>
<circle clip-path="url(#clip152)" cx="1197.29" cy="845.661" r="3.6" fill="#009af9" fill-rule="evenodd" fill-opacity="1" stroke="#000000" stroke-opacity="1" stroke-width="3.2"/>
<circle clip-path="url(#clip152)" cx="1207.09" cy="889.197" r="3.6" fill="#009af9" fill-rule="evenodd" fill-opacity="1" stroke="#000000" stroke-opacity="1" stroke-width="3.2"/>
<circle clip-path="url(#clip152)" cx="1216.88" cy="971.692" r="3.6" fill="#009af9" fill-rule="evenodd" fill-opacity="1" stroke="#000000" stroke-opacity="1" stroke-width="3.2"/>
<circle clip-path="url(#clip152)" cx="1226.67" cy="616.953" r="3.6" fill="#009af9" fill-rule="evenodd" fill-opacity="1" stroke="#000000" stroke-opacity="1" stroke-width="3.2"/>
<circle clip-path="url(#clip152)" cx="1236.46" cy="1088.71" r="3.6" fill="#009af9" fill-rule="evenodd" fill-opacity="1" stroke="#000000" stroke-opacity="1" stroke-width="3.2"/>
<circle clip-path="url(#clip152)" cx="1246.25" cy="854.965" r="3.6" fill="#009af9" fill-rule="evenodd" fill-opacity="1" stroke="#000000" stroke-opacity="1" stroke-width="3.2"/>
<circle clip-path="url(#clip152)" cx="1256.05" cy="982.089" r="3.6" fill="#009af9" fill-rule="evenodd" fill-opacity="1" stroke="#000000" stroke-opacity="1" stroke-width="3.2"/>
<circle clip-path="url(#clip152)" cx="1265.84" cy="877.648" r="3.6" fill="#009af9" fill-rule="evenodd" fill-opacity="1" stroke="#000000" stroke-opacity="1" stroke-width="3.2"/>
<circle clip-path="url(#clip152)" cx="1275.63" cy="802.324" r="3.6" fill="#009af9" fill-rule="evenodd" fill-opacity="1" stroke="#000000" stroke-opacity="1" stroke-width="3.2"/>
<circle clip-path="url(#clip152)" cx="1285.42" cy="940.029" r="3.6" fill="#009af9" fill-rule="evenodd" fill-opacity="1" stroke="#000000" stroke-opacity="1" stroke-width="3.2"/>
<circle clip-path="url(#clip152)" cx="1295.21" cy="854.45" r="3.6" fill="#009af9" fill-rule="evenodd" fill-opacity="1" stroke="#000000" stroke-opacity="1" stroke-width="3.2"/>
<circle clip-path="url(#clip152)" cx="1305.01" cy="907.717" r="3.6" fill="#009af9" fill-rule="evenodd" fill-opacity="1" stroke="#000000" stroke-opacity="1" stroke-width="3.2"/>
<circle clip-path="url(#clip152)" cx="1314.8" cy="806.426" r="3.6" fill="#009af9" fill-rule="evenodd" fill-opacity="1" stroke="#000000" stroke-opacity="1" stroke-width="3.2"/>
<circle clip-path="url(#clip152)" cx="1324.59" cy="890.024" r="3.6" fill="#009af9" fill-rule="evenodd" fill-opacity="1" stroke="#000000" stroke-opacity="1" stroke-width="3.2"/>
<circle clip-path="url(#clip152)" cx="1334.38" cy="846.661" r="3.6" fill="#009af9" fill-rule="evenodd" fill-opacity="1" stroke="#000000" stroke-opacity="1" stroke-width="3.2"/>
<circle clip-path="url(#clip152)" cx="1344.17" cy="881.463" r="3.6" fill="#009af9" fill-rule="evenodd" fill-opacity="1" stroke="#000000" stroke-opacity="1" stroke-width="3.2"/>
<circle clip-path="url(#clip152)" cx="1353.97" cy="961.786" r="3.6" fill="#009af9" fill-rule="evenodd" fill-opacity="1" stroke="#000000" stroke-opacity="1" stroke-width="3.2"/>
<circle clip-path="url(#clip152)" cx="1363.76" cy="841.085" r="3.6" fill="#009af9" fill-rule="evenodd" fill-opacity="1" stroke="#000000" stroke-opacity="1" stroke-width="3.2"/>
<circle clip-path="url(#clip152)" cx="1373.55" cy="954.118" r="3.6" fill="#009af9" fill-rule="evenodd" fill-opacity="1" stroke="#000000" stroke-opacity="1" stroke-width="3.2"/>
<circle clip-path="url(#clip152)" cx="1383.34" cy="895.023" r="3.6" fill="#009af9" fill-rule="evenodd" fill-opacity="1" stroke="#000000" stroke-opacity="1" stroke-width="3.2"/>
<circle clip-path="url(#clip152)" cx="1393.14" cy="864.537" r="3.6" fill="#009af9" fill-rule="evenodd" fill-opacity="1" stroke="#000000" stroke-opacity="1" stroke-width="3.2"/>
<circle clip-path="url(#clip152)" cx="1402.93" cy="884.496" r="3.6" fill="#009af9" fill-rule="evenodd" fill-opacity="1" stroke="#000000" stroke-opacity="1" stroke-width="3.2"/>
<circle clip-path="url(#clip152)" cx="1412.72" cy="963.515" r="3.6" fill="#009af9" fill-rule="evenodd" fill-opacity="1" stroke="#000000" stroke-opacity="1" stroke-width="3.2"/>
<circle clip-path="url(#clip152)" cx="1422.51" cy="562.92" r="3.6" fill="#009af9" fill-rule="evenodd" fill-opacity="1" stroke="#000000" stroke-opacity="1" stroke-width="3.2"/>
<circle clip-path="url(#clip152)" cx="1432.3" cy="903.716" r="3.6" fill="#009af9" fill-rule="evenodd" fill-opacity="1" stroke="#000000" stroke-opacity="1" stroke-width="3.2"/>
<circle clip-path="url(#clip152)" cx="1442.1" cy="1111.12" r="3.6" fill="#009af9" fill-rule="evenodd" fill-opacity="1" stroke="#000000" stroke-opacity="1" stroke-width="3.2"/>
<circle clip-path="url(#clip152)" cx="1451.89" cy="1066.05" r="3.6" fill="#009af9" fill-rule="evenodd" fill-opacity="1" stroke="#000000" stroke-opacity="1" stroke-width="3.2"/>
<circle clip-path="url(#clip152)" cx="1461.68" cy="892.742" r="3.6" fill="#009af9" fill-rule="evenodd" fill-opacity="1" stroke="#000000" stroke-opacity="1" stroke-width="3.2"/>
<circle clip-path="url(#clip152)" cx="1471.47" cy="946.042" r="3.6" fill="#009af9" fill-rule="evenodd" fill-opacity="1" stroke="#000000" stroke-opacity="1" stroke-width="3.2"/>
<circle clip-path="url(#clip152)" cx="1481.26" cy="909.222" r="3.6" fill="#009af9" fill-rule="evenodd" fill-opacity="1" stroke="#000000" stroke-opacity="1" stroke-width="3.2"/>
<circle clip-path="url(#clip152)" cx="1491.06" cy="910.36" r="3.6" fill="#009af9" fill-rule="evenodd" fill-opacity="1" stroke="#000000" stroke-opacity="1" stroke-width="3.2"/>
<circle clip-path="url(#clip152)" cx="1500.85" cy="913.123" r="3.6" fill="#009af9" fill-rule="evenodd" fill-opacity="1" stroke="#000000" stroke-opacity="1" stroke-width="3.2"/>
<circle clip-path="url(#clip152)" cx="1510.64" cy="894.358" r="3.6" fill="#009af9" fill-rule="evenodd" fill-opacity="1" stroke="#000000" stroke-opacity="1" stroke-width="3.2"/>
<circle clip-path="url(#clip152)" cx="1520.43" cy="768.311" r="3.6" fill="#009af9" fill-rule="evenodd" fill-opacity="1" stroke="#000000" stroke-opacity="1" stroke-width="3.2"/>
<circle clip-path="url(#clip152)" cx="1530.22" cy="792.91" r="3.6" fill="#009af9" fill-rule="evenodd" fill-opacity="1" stroke="#000000" stroke-opacity="1" stroke-width="3.2"/>
<circle clip-path="url(#clip152)" cx="1540.02" cy="874.363" r="3.6" fill="#009af9" fill-rule="evenodd" fill-opacity="1" stroke="#000000" stroke-opacity="1" stroke-width="3.2"/>
<circle clip-path="url(#clip152)" cx="1549.81" cy="834.276" r="3.6" fill="#009af9" fill-rule="evenodd" fill-opacity="1" stroke="#000000" stroke-opacity="1" stroke-width="3.2"/>
<circle clip-path="url(#clip152)" cx="1559.6" cy="913.71" r="3.6" fill="#009af9" fill-rule="evenodd" fill-opacity="1" stroke="#000000" stroke-opacity="1" stroke-width="3.2"/>
<circle clip-path="url(#clip152)" cx="1569.39" cy="888.016" r="3.6" fill="#009af9" fill-rule="evenodd" fill-opacity="1" stroke="#000000" stroke-opacity="1" stroke-width="3.2"/>
<circle clip-path="url(#clip152)" cx="1579.18" cy="839.636" r="3.6" fill="#009af9" fill-rule="evenodd" fill-opacity="1" stroke="#000000" stroke-opacity="1" stroke-width="3.2"/>
<circle clip-path="url(#clip152)" cx="1588.98" cy="895.121" r="3.6" fill="#009af9" fill-rule="evenodd" fill-opacity="1" stroke="#000000" stroke-opacity="1" stroke-width="3.2"/>
<circle clip-path="url(#clip152)" cx="1598.77" cy="816.387" r="3.6" fill="#009af9" fill-rule="evenodd" fill-opacity="1" stroke="#000000" stroke-opacity="1" stroke-width="3.2"/>
<circle clip-path="url(#clip152)" cx="1608.56" cy="844.293" r="3.6" fill="#009af9" fill-rule="evenodd" fill-opacity="1" stroke="#000000" stroke-opacity="1" stroke-width="3.2"/>
<circle clip-path="url(#clip152)" cx="1618.35" cy="818.856" r="3.6" fill="#009af9" fill-rule="evenodd" fill-opacity="1" stroke="#000000" stroke-opacity="1" stroke-width="3.2"/>
<circle clip-path="url(#clip152)" cx="1628.14" cy="902.617" r="3.6" fill="#009af9" fill-rule="evenodd" fill-opacity="1" stroke="#000000" stroke-opacity="1" stroke-width="3.2"/>
<circle clip-path="url(#clip152)" cx="1637.94" cy="947.264" r="3.6" fill="#009af9" fill-rule="evenodd" fill-opacity="1" stroke="#000000" stroke-opacity="1" stroke-width="3.2"/>
<circle clip-path="url(#clip152)" cx="1647.73" cy="748.47" r="3.6" fill="#009af9" fill-rule="evenodd" fill-opacity="1" stroke="#000000" stroke-opacity="1" stroke-width="3.2"/>
<circle clip-path="url(#clip152)" cx="1657.52" cy="1280.7" r="3.6" fill="#009af9" fill-rule="evenodd" fill-opacity="1" stroke="#000000" stroke-opacity="1" stroke-width="3.2"/>
<circle clip-path="url(#clip152)" cx="1667.31" cy="903.268" r="3.6" fill="#009af9" fill-rule="evenodd" fill-opacity="1" stroke="#000000" stroke-opacity="1" stroke-width="3.2"/>
<circle clip-path="url(#clip152)" cx="1677.1" cy="1105.65" r="3.6" fill="#009af9" fill-rule="evenodd" fill-opacity="1" stroke="#000000" stroke-opacity="1" stroke-width="3.2"/>
<circle clip-path="url(#clip152)" cx="1686.9" cy="921.314" r="3.6" fill="#009af9" fill-rule="evenodd" fill-opacity="1" stroke="#000000" stroke-opacity="1" stroke-width="3.2"/>
<circle clip-path="url(#clip152)" cx="1696.69" cy="262.301" r="3.6" fill="#009af9" fill-rule="evenodd" fill-opacity="1" stroke="#000000" stroke-opacity="1" stroke-width="3.2"/>
<circle clip-path="url(#clip152)" cx="1706.48" cy="914.116" r="3.6" fill="#009af9" fill-rule="evenodd" fill-opacity="1" stroke="#000000" stroke-opacity="1" stroke-width="3.2"/>
<circle clip-path="url(#clip152)" cx="1716.27" cy="951.706" r="3.6" fill="#009af9" fill-rule="evenodd" fill-opacity="1" stroke="#000000" stroke-opacity="1" stroke-width="3.2"/>
<circle clip-path="url(#clip152)" cx="1726.06" cy="850.024" r="3.6" fill="#009af9" fill-rule="evenodd" fill-opacity="1" stroke="#000000" stroke-opacity="1" stroke-width="3.2"/>
<circle clip-path="url(#clip152)" cx="1735.86" cy="872.667" r="3.6" fill="#009af9" fill-rule="evenodd" fill-opacity="1" stroke="#000000" stroke-opacity="1" stroke-width="3.2"/>
<circle clip-path="url(#clip152)" cx="1745.65" cy="1081.52" r="3.6" fill="#009af9" fill-rule="evenodd" fill-opacity="1" stroke="#000000" stroke-opacity="1" stroke-width="3.2"/>
<circle clip-path="url(#clip152)" cx="1755.44" cy="622.933" r="3.6" fill="#009af9" fill-rule="evenodd" fill-opacity="1" stroke="#000000" stroke-opacity="1" stroke-width="3.2"/>
<circle clip-path="url(#clip152)" cx="1765.23" cy="994.777" r="3.6" fill="#009af9" fill-rule="evenodd" fill-opacity="1" stroke="#000000" stroke-opacity="1" stroke-width="3.2"/>
<circle clip-path="url(#clip152)" cx="1775.02" cy="846.187" r="3.6" fill="#009af9" fill-rule="evenodd" fill-opacity="1" stroke="#000000" stroke-opacity="1" stroke-width="3.2"/>
<circle clip-path="url(#clip152)" cx="1784.82" cy="822.656" r="3.6" fill="#009af9" fill-rule="evenodd" fill-opacity="1" stroke="#000000" stroke-opacity="1" stroke-width="3.2"/>
<circle clip-path="url(#clip152)" cx="1794.61" cy="1000.41" r="3.6" fill="#009af9" fill-rule="evenodd" fill-opacity="1" stroke="#000000" stroke-opacity="1" stroke-width="3.2"/>
<circle clip-path="url(#clip152)" cx="1804.4" cy="736.029" r="3.6" fill="#009af9" fill-rule="evenodd" fill-opacity="1" stroke="#000000" stroke-opacity="1" stroke-width="3.2"/>
<circle clip-path="url(#clip152)" cx="1814.19" cy="1349.74" r="3.6" fill="#009af9" fill-rule="evenodd" fill-opacity="1" stroke="#000000" stroke-opacity="1" stroke-width="3.2"/>
<circle clip-path="url(#clip152)" cx="1823.99" cy="873.683" r="3.6" fill="#009af9" fill-rule="evenodd" fill-opacity="1" stroke="#000000" stroke-opacity="1" stroke-width="3.2"/>
<circle clip-path="url(#clip152)" cx="1833.78" cy="827.66" r="3.6" fill="#009af9" fill-rule="evenodd" fill-opacity="1" stroke="#000000" stroke-opacity="1" stroke-width="3.2"/>
<circle clip-path="url(#clip152)" cx="1843.57" cy="779.162" r="3.6" fill="#009af9" fill-rule="evenodd" fill-opacity="1" stroke="#000000" stroke-opacity="1" stroke-width="3.2"/>
<circle clip-path="url(#clip152)" cx="1853.36" cy="924.608" r="3.6" fill="#009af9" fill-rule="evenodd" fill-opacity="1" stroke="#000000" stroke-opacity="1" stroke-width="3.2"/>
<circle clip-path="url(#clip152)" cx="1863.15" cy="720.804" r="3.6" fill="#009af9" fill-rule="evenodd" fill-opacity="1" stroke="#000000" stroke-opacity="1" stroke-width="3.2"/>
<circle clip-path="url(#clip152)" cx="1872.95" cy="838.799" r="3.6" fill="#009af9" fill-rule="evenodd" fill-opacity="1" stroke="#000000" stroke-opacity="1" stroke-width="3.2"/>
<circle clip-path="url(#clip152)" cx="1882.74" cy="774.988" r="3.6" fill="#009af9" fill-rule="evenodd" fill-opacity="1" stroke="#000000" stroke-opacity="1" stroke-width="3.2"/>
<circle clip-path="url(#clip152)" cx="1892.53" cy="849.583" r="3.6" fill="#009af9" fill-rule="evenodd" fill-opacity="1" stroke="#000000" stroke-opacity="1" stroke-width="3.2"/>
<circle clip-path="url(#clip152)" cx="1902.32" cy="1083.46" r="3.6" fill="#009af9" fill-rule="evenodd" fill-opacity="1" stroke="#000000" stroke-opacity="1" stroke-width="3.2"/>
<circle clip-path="url(#clip152)" cx="1912.11" cy="766.653" r="3.6" fill="#009af9" fill-rule="evenodd" fill-opacity="1" stroke="#000000" stroke-opacity="1" stroke-width="3.2"/>
<circle clip-path="url(#clip152)" cx="1921.91" cy="1022.94" r="3.6" fill="#009af9" fill-rule="evenodd" fill-opacity="1" stroke="#000000" stroke-opacity="1" stroke-width="3.2"/>
<circle clip-path="url(#clip152)" cx="1931.7" cy="855.806" r="3.6" fill="#009af9" fill-rule="evenodd" fill-opacity="1" stroke="#000000" stroke-opacity="1" stroke-width="3.2"/>
<circle clip-path="url(#clip152)" cx="1941.49" cy="891.058" r="3.6" fill="#009af9" fill-rule="evenodd" fill-opacity="1" stroke="#000000" stroke-opacity="1" stroke-width="3.2"/>
<circle clip-path="url(#clip152)" cx="1951.28" cy="802.24" r="3.6" fill="#009af9" fill-rule="evenodd" fill-opacity="1" stroke="#000000" stroke-opacity="1" stroke-width="3.2"/>
<circle clip-path="url(#clip152)" cx="1961.07" cy="907.867" r="3.6" fill="#009af9" fill-rule="evenodd" fill-opacity="1" stroke="#000000" stroke-opacity="1" stroke-width="3.2"/>
<circle clip-path="url(#clip152)" cx="1970.87" cy="823.253" r="3.6" fill="#009af9" fill-rule="evenodd" fill-opacity="1" stroke="#000000" stroke-opacity="1" stroke-width="3.2"/>
<circle clip-path="url(#clip152)" cx="1980.66" cy="1193.45" r="3.6" fill="#009af9" fill-rule="evenodd" fill-opacity="1" stroke="#000000" stroke-opacity="1" stroke-width="3.2"/>
<circle clip-path="url(#clip152)" cx="1990.45" cy="936.372" r="3.6" fill="#009af9" fill-rule="evenodd" fill-opacity="1" stroke="#000000" stroke-opacity="1" stroke-width="3.2"/>
<circle clip-path="url(#clip152)" cx="2000.24" cy="858.297" r="3.6" fill="#009af9" fill-rule="evenodd" fill-opacity="1" stroke="#000000" stroke-opacity="1" stroke-width="3.2"/>
<circle clip-path="url(#clip152)" cx="2010.03" cy="945.408" r="3.6" fill="#009af9" fill-rule="evenodd" fill-opacity="1" stroke="#000000" stroke-opacity="1" stroke-width="3.2"/>
<circle clip-path="url(#clip152)" cx="2019.83" cy="879.274" r="3.6" fill="#009af9" fill-rule="evenodd" fill-opacity="1" stroke="#000000" stroke-opacity="1" stroke-width="3.2"/>
<circle clip-path="url(#clip152)" cx="2029.62" cy="919.48" r="3.6" fill="#009af9" fill-rule="evenodd" fill-opacity="1" stroke="#000000" stroke-opacity="1" stroke-width="3.2"/>
<circle clip-path="url(#clip152)" cx="2039.41" cy="901.216" r="3.6" fill="#009af9" fill-rule="evenodd" fill-opacity="1" stroke="#000000" stroke-opacity="1" stroke-width="3.2"/>
<circle clip-path="url(#clip152)" cx="2049.2" cy="554.511" r="3.6" fill="#009af9" fill-rule="evenodd" fill-opacity="1" stroke="#000000" stroke-opacity="1" stroke-width="3.2"/>
<circle clip-path="url(#clip152)" cx="2058.99" cy="829.084" r="3.6" fill="#009af9" fill-rule="evenodd" fill-opacity="1" stroke="#000000" stroke-opacity="1" stroke-width="3.2"/>
<circle clip-path="url(#clip152)" cx="2068.79" cy="835.622" r="3.6" fill="#009af9" fill-rule="evenodd" fill-opacity="1" stroke="#000000" stroke-opacity="1" stroke-width="3.2"/>
<circle clip-path="url(#clip152)" cx="2078.58" cy="917.227" r="3.6" fill="#009af9" fill-rule="evenodd" fill-opacity="1" stroke="#000000" stroke-opacity="1" stroke-width="3.2"/>
<circle clip-path="url(#clip152)" cx="2088.37" cy="1309.39" r="3.6" fill="#009af9" fill-rule="evenodd" fill-opacity="1" stroke="#000000" stroke-opacity="1" stroke-width="3.2"/>
<circle clip-path="url(#clip152)" cx="2098.16" cy="804.805" r="3.6" fill="#009af9" fill-rule="evenodd" fill-opacity="1" stroke="#000000" stroke-opacity="1" stroke-width="3.2"/>
<circle clip-path="url(#clip152)" cx="2107.95" cy="864.763" r="3.6" fill="#009af9" fill-rule="evenodd" fill-opacity="1" stroke="#000000" stroke-opacity="1" stroke-width="3.2"/>
<circle clip-path="url(#clip152)" cx="2117.75" cy="942.965" r="3.6" fill="#009af9" fill-rule="evenodd" fill-opacity="1" stroke="#000000" stroke-opacity="1" stroke-width="3.2"/>
<circle clip-path="url(#clip152)" cx="2127.54" cy="1081.65" r="3.6" fill="#009af9" fill-rule="evenodd" fill-opacity="1" stroke="#000000" stroke-opacity="1" stroke-width="3.2"/>
<circle clip-path="url(#clip152)" cx="2137.33" cy="640.805" r="3.6" fill="#009af9" fill-rule="evenodd" fill-opacity="1" stroke="#000000" stroke-opacity="1" stroke-width="3.2"/>
<circle clip-path="url(#clip152)" cx="2147.12" cy="725.292" r="3.6" fill="#009af9" fill-rule="evenodd" fill-opacity="1" stroke="#000000" stroke-opacity="1" stroke-width="3.2"/>
<circle clip-path="url(#clip152)" cx="2156.91" cy="1176.41" r="3.6" fill="#009af9" fill-rule="evenodd" fill-opacity="1" stroke="#000000" stroke-opacity="1" stroke-width="3.2"/>
<circle clip-path="url(#clip152)" cx="2166.71" cy="867.412" r="3.6" fill="#009af9" fill-rule="evenodd" fill-opacity="1" stroke="#000000" stroke-opacity="1" stroke-width="3.2"/>
<circle clip-path="url(#clip152)" cx="2176.5" cy="1011.29" r="3.6" fill="#009af9" fill-rule="evenodd" fill-opacity="1" stroke="#000000" stroke-opacity="1" stroke-width="3.2"/>
<circle clip-path="url(#clip152)" cx="2186.29" cy="849.686" r="3.6" fill="#009af9" fill-rule="evenodd" fill-opacity="1" stroke="#000000" stroke-opacity="1" stroke-width="3.2"/>
<circle clip-path="url(#clip152)" cx="2196.08" cy="896.984" r="3.6" fill="#009af9" fill-rule="evenodd" fill-opacity="1" stroke="#000000" stroke-opacity="1" stroke-width="3.2"/>
<circle clip-path="url(#clip152)" cx="2205.88" cy="968.968" r="3.6" fill="#009af9" fill-rule="evenodd" fill-opacity="1" stroke="#000000" stroke-opacity="1" stroke-width="3.2"/>
<circle clip-path="url(#clip152)" cx="2215.67" cy="599.968" r="3.6" fill="#009af9" fill-rule="evenodd" fill-opacity="1" stroke="#000000" stroke-opacity="1" stroke-width="3.2"/>
<circle clip-path="url(#clip152)" cx="2225.46" cy="1102.03" r="3.6" fill="#009af9" fill-rule="evenodd" fill-opacity="1" stroke="#000000" stroke-opacity="1" stroke-width="3.2"/>
<circle clip-path="url(#clip152)" cx="2235.25" cy="856.596" r="3.6" fill="#009af9" fill-rule="evenodd" fill-opacity="1" stroke="#000000" stroke-opacity="1" stroke-width="3.2"/>
<circle clip-path="url(#clip152)" cx="2245.04" cy="984.787" r="3.6" fill="#009af9" fill-rule="evenodd" fill-opacity="1" stroke="#000000" stroke-opacity="1" stroke-width="3.2"/>
<circle clip-path="url(#clip152)" cx="2254.84" cy="878.19" r="3.6" fill="#009af9" fill-rule="evenodd" fill-opacity="1" stroke="#000000" stroke-opacity="1" stroke-width="3.2"/>
<circle clip-path="url(#clip152)" cx="2264.63" cy="805.036" r="3.6" fill="#009af9" fill-rule="evenodd" fill-opacity="1" stroke="#000000" stroke-opacity="1" stroke-width="3.2"/>
<circle clip-path="url(#clip152)" cx="2274.42" cy="937.304" r="3.6" fill="#009af9" fill-rule="evenodd" fill-opacity="1" stroke="#000000" stroke-opacity="1" stroke-width="3.2"/>
<circle clip-path="url(#clip152)" cx="2284.21" cy="855.928" r="3.6" fill="#009af9" fill-rule="evenodd" fill-opacity="1" stroke="#000000" stroke-opacity="1" stroke-width="3.2"/>
<circle clip-path="url(#clip152)" cx="2294" cy="906.844" r="3.6" fill="#009af9" fill-rule="evenodd" fill-opacity="1" stroke="#000000" stroke-opacity="1" stroke-width="3.2"/>
<circle clip-path="url(#clip152)" cx="2303.8" cy="808.357" r="3.6" fill="#009af9" fill-rule="evenodd" fill-opacity="1" stroke="#000000" stroke-opacity="1" stroke-width="3.2"/>
<circle clip-path="url(#clip152)" cx="2313.59" cy="890.03" r="3.6" fill="#009af9" fill-rule="evenodd" fill-opacity="1" stroke="#000000" stroke-opacity="1" stroke-width="3.2"/>
<circle clip-path="url(#clip152)" cx="2323.38" cy="848.268" r="3.6" fill="#009af9" fill-rule="evenodd" fill-opacity="1" stroke="#000000" stroke-opacity="1" stroke-width="3.2"/>
<circle clip-path="url(#clip152)" cx="2333.17" cy="881.798" r="3.6" fill="#009af9" fill-rule="evenodd" fill-opacity="1" stroke="#000000" stroke-opacity="1" stroke-width="3.2"/>
<circle clip-path="url(#clip152)" cx="2342.96" cy="957.442" r="3.6" fill="#009af9" fill-rule="evenodd" fill-opacity="1" stroke="#000000" stroke-opacity="1" stroke-width="3.2"/>
<path clip-path="url(#clip150)" d="M1910.73 323.941 L2287.15 323.941 L2287.15 90.6606 L1910.73 90.6606  Z" fill="#ffffff" fill-rule="evenodd" fill-opacity="1"/>
<polyline clip-path="url(#clip150)" style="stroke:#000000; stroke-linecap:round; stroke-linejoin:round; stroke-width:4; stroke-opacity:1; fill:none" points="1910.73,323.941 2287.15,323.941 2287.15,90.6606 1910.73,90.6606 1910.73,323.941 "/>
<polyline clip-path="url(#clip150)" style="stroke:#009af9; stroke-linecap:round; stroke-linejoin:round; stroke-width:18; stroke-opacity:1; fill:none" points="1932.6,207.301 2063.81,207.301 "/>
<circle clip-path="url(#clip150)" cx="1998.2" cy="207.301" r="8.0996" fill="#009af9" fill-rule="evenodd" fill-opacity="1" stroke="#000000" stroke-opacity="1" stroke-width="7.19964"/>
<path clip-path="url(#clip150)" d="M2124.67 215.681 L2124.67 206.558 L2157.6 206.505 L2157.6 235.36 Q2150.02 241.407 2141.96 244.483 Q2133.89 247.507 2125.41 247.507 Q2113.95 247.507 2104.56 242.627 Q2095.23 237.694 2090.45 228.411 Q2085.68 219.129 2085.68 207.672 Q2085.68 196.321 2090.4 186.508 Q2095.17 176.642 2104.08 171.868 Q2113 167.095 2124.61 167.095 Q2133.05 167.095 2139.84 169.853 Q2146.68 172.558 2150.55 177.438 Q2154.42 182.318 2156.44 190.168 L2147.16 192.714 Q2145.4 186.773 2142.81 183.379 Q2140.21 179.984 2135.38 177.968 Q2130.55 175.9 2124.67 175.9 Q2117.61 175.9 2112.47 178.074 Q2107.32 180.196 2104.14 183.697 Q2101.01 187.198 2099.26 191.388 Q2096.29 198.602 2096.29 207.035 Q2096.29 217.432 2099.84 224.433 Q2103.45 231.435 2110.29 234.83 Q2117.13 238.224 2124.82 238.224 Q2131.51 238.224 2137.87 235.678 Q2144.24 233.079 2147.53 230.162 L2147.53 215.681 L2124.67 215.681 Z" fill="#000000" fill-rule="nonzero" fill-opacity="1" /><path clip-path="url(#clip150)" d="M2219.08 237.004 L2219.08 246.181 L2167.68 246.181 Q2167.58 242.733 2168.8 239.55 Q2170.76 234.299 2175.06 229.207 Q2179.4 224.115 2187.57 217.432 Q2200.25 207.035 2204.71 200.989 Q2209.16 194.889 2209.16 189.478 Q2209.16 183.803 2205.08 179.931 Q2201.05 176.006 2194.52 176.006 Q2187.63 176.006 2183.49 180.143 Q2179.35 184.28 2179.3 191.6 L2169.49 190.592 Q2170.49 179.613 2177.07 173.884 Q2183.65 168.102 2194.73 168.102 Q2205.93 168.102 2212.45 174.308 Q2218.97 180.514 2218.97 189.691 Q2218.97 194.358 2217.06 198.867 Q2215.16 203.375 2210.7 208.361 Q2206.3 213.347 2196.01 222.046 Q2187.41 229.26 2184.97 231.859 Q2182.53 234.405 2180.94 237.004 L2219.08 237.004 Z" fill="#000000" fill-rule="nonzero" fill-opacity="1" /><path clip-path="url(#clip150)" d="M2265.28 246.181 L2255.73 246.181 L2255.73 185.341 Q2252.28 188.63 2246.66 191.918 Q2241.09 195.207 2236.64 196.851 L2236.64 187.622 Q2244.65 183.856 2250.64 178.499 Q2256.63 173.141 2259.13 168.102 L2265.28 168.102 L2265.28 246.181 Z" fill="#000000" fill-rule="nonzero" fill-opacity="1" /></svg>
