<?xml version="1.0" encoding="utf-8"?>
<svg xmlns="http://www.w3.org/2000/svg" xmlns:xlink="http://www.w3.org/1999/xlink" width="600" height="400" viewBox="0 0 2400 1600">
<defs>
  <clipPath id="clip600">
    <rect x="0" y="0" width="2400" height="1600"/>
  </clipPath>
</defs>
<path clip-path="url(#clip600)" d="M0 1600 L2400 1600 L2400 8.88178e-14 L0 8.88178e-14  Z" fill="#ffffff" fill-rule="evenodd" fill-opacity="1"/>
<defs>
  <clipPath id="clip601">
    <rect x="480" y="0" width="1681" height="1600"/>
  </clipPath>
</defs>
<path clip-path="url(#clip600)" d="M323.131 1349.74 L2352.76 1349.74 L2352.76 47.2441 L323.131 47.2441  Z" fill="#ffffff" fill-rule="evenodd" fill-opacity="1"/>
<defs>
  <clipPath id="clip602">
    <rect x="323" y="47" width="2031" height="1303"/>
  </clipPath>
</defs>
<polyline clip-path="url(#clip600)" style="stroke:#000000; stroke-linecap:round; stroke-linejoin:round; stroke-width:4; stroke-opacity:1; fill:none" points="323.131,1349.74 2352.76,1349.74 "/>
<polyline clip-path="url(#clip600)" style="stroke:#000000; stroke-linecap:round; stroke-linejoin:round; stroke-width:2; stroke-opacity:0.5; fill:none" points="323.131,47.2441 2352.76,47.2441 "/>
<polyline clip-path="url(#clip600)" style="stroke:#000000; stroke-linecap:round; stroke-linejoin:round; stroke-width:4; stroke-opacity:1; fill:none" points="817.915,1349.74 817.915,1330.84 "/>
<polyline clip-path="url(#clip600)" style="stroke:#000000; stroke-linecap:round; stroke-linejoin:round; stroke-width:4; stroke-opacity:1; fill:none" points="1322.8,1349.74 1322.8,1330.84 "/>
<polyline clip-path="url(#clip600)" style="stroke:#000000; stroke-linecap:round; stroke-linejoin:round; stroke-width:4; stroke-opacity:1; fill:none" points="1827.68,1349.74 1827.68,1330.84 "/>
<polyline clip-path="url(#clip600)" style="stroke:#000000; stroke-linecap:round; stroke-linejoin:round; stroke-width:4; stroke-opacity:1; fill:none" points="2332.56,1349.74 2332.56,1330.84 "/>
<path clip-path="url(#clip600)" d="M762.353 1445.77 L772.378 1444.92 Q773.492 1452.24 777.523 1455.96 Q781.608 1459.62 787.336 1459.62 Q794.232 1459.62 799.006 1454.42 Q803.779 1449.22 803.779 1440.63 Q803.779 1432.46 799.165 1427.74 Q794.603 1423.02 787.177 1423.02 Q782.562 1423.02 778.849 1425.14 Q775.136 1427.21 773.015 1430.55 L764.051 1429.38 L771.583 1389.44 L810.25 1389.44 L810.25 1398.56 L779.221 1398.56 L775.03 1419.46 Q782.032 1414.58 789.723 1414.58 Q799.907 1414.58 806.909 1421.64 Q813.91 1428.69 813.91 1439.78 Q813.91 1450.33 807.757 1458.02 Q800.279 1467.47 787.336 1467.47 Q776.728 1467.47 769.991 1461.53 Q763.308 1455.58 762.353 1445.77 Z" fill="#000000" fill-rule="nonzero" fill-opacity="1" /><path clip-path="url(#clip600)" d="M822.768 1427.79 Q822.768 1414 825.58 1405.62 Q828.444 1397.18 834.013 1392.62 Q839.636 1388.06 848.123 1388.06 Q854.382 1388.06 859.102 1390.61 Q863.823 1393.1 866.9 1397.87 Q869.976 1402.6 871.726 1409.44 Q873.477 1416.23 873.477 1427.79 Q873.477 1441.48 870.666 1449.91 Q867.854 1458.29 862.232 1462.9 Q856.662 1467.47 848.123 1467.47 Q836.878 1467.47 830.46 1459.4 Q822.768 1449.7 822.768 1427.79 M832.581 1427.79 Q832.581 1446.94 837.037 1453.3 Q841.545 1459.62 848.123 1459.62 Q854.7 1459.62 859.155 1453.25 Q863.664 1446.89 863.664 1427.79 Q863.664 1408.59 859.155 1402.28 Q854.7 1395.96 848.017 1395.96 Q841.439 1395.96 837.514 1401.53 Q832.581 1408.64 832.581 1427.79 Z" fill="#000000" fill-rule="nonzero" fill-opacity="1" /><path clip-path="url(#clip600)" d="M1269.33 1466.14 L1259.78 1466.14 L1259.78 1405.3 Q1256.33 1408.59 1250.71 1411.88 Q1245.14 1415.17 1240.69 1416.81 L1240.69 1407.58 Q1248.7 1403.82 1254.69 1398.46 Q1260.68 1393.1 1263.18 1388.06 L1269.33 1388.06 L1269.33 1466.14 Z" fill="#000000" fill-rule="nonzero" fill-opacity="1" /><path clip-path="url(#clip600)" d="M1293.78 1427.79 Q1293.78 1414 1296.59 1405.62 Q1299.46 1397.18 1305.03 1392.62 Q1310.65 1388.06 1319.14 1388.06 Q1325.4 1388.06 1330.12 1390.61 Q1334.84 1393.1 1337.91 1397.87 Q1340.99 1402.6 1342.74 1409.44 Q1344.49 1416.23 1344.49 1427.79 Q1344.49 1441.48 1341.68 1449.91 Q1338.87 1458.29 1333.25 1462.9 Q1327.68 1467.47 1319.14 1467.47 Q1307.89 1467.47 1301.47 1459.4 Q1293.78 1449.7 1293.78 1427.79 M1303.6 1427.79 Q1303.6 1446.94 1308.05 1453.3 Q1312.56 1459.62 1319.14 1459.62 Q1325.71 1459.62 1330.17 1453.25 Q1334.68 1446.89 1334.68 1427.79 Q1334.68 1408.59 1330.17 1402.28 Q1325.71 1395.96 1319.03 1395.96 Q1312.45 1395.96 1308.53 1401.53 Q1303.6 1408.64 1303.6 1427.79 Z" fill="#000000" fill-rule="nonzero" fill-opacity="1" /><path clip-path="url(#clip600)" d="M1354.2 1427.79 Q1354.2 1414 1357.01 1405.62 Q1359.87 1397.18 1365.44 1392.62 Q1371.07 1388.06 1379.55 1388.06 Q1385.81 1388.06 1390.53 1390.61 Q1395.25 1393.1 1398.33 1397.87 Q1401.41 1402.6 1403.16 1409.44 Q1404.91 1416.23 1404.91 1427.79 Q1404.91 1441.48 1402.1 1449.91 Q1399.28 1458.29 1393.66 1462.9 Q1388.09 1467.47 1379.55 1467.47 Q1368.31 1467.47 1361.89 1459.4 Q1354.2 1449.7 1354.2 1427.79 M1364.01 1427.79 Q1364.01 1446.94 1368.47 1453.3 Q1372.97 1459.62 1379.55 1459.62 Q1386.13 1459.62 1390.58 1453.25 Q1395.09 1446.89 1395.09 1427.79 Q1395.09 1408.59 1390.58 1402.28 Q1386.13 1395.96 1379.45 1395.96 Q1372.87 1395.96 1368.94 1401.53 Q1364.01 1408.64 1364.01 1427.79 Z" fill="#000000" fill-rule="nonzero" fill-opacity="1" /><path clip-path="url(#clip600)" d="M1774.21 1466.14 L1764.66 1466.14 L1764.66 1405.3 Q1761.22 1408.59 1755.59 1411.88 Q1750.02 1415.17 1745.57 1416.81 L1745.57 1407.58 Q1753.58 1403.82 1759.57 1398.46 Q1765.57 1393.1 1768.06 1388.06 L1774.21 1388.06 L1774.21 1466.14 Z" fill="#000000" fill-rule="nonzero" fill-opacity="1" /><path clip-path="url(#clip600)" d="M1798.66 1445.77 L1808.69 1444.92 Q1809.8 1452.24 1813.83 1455.96 Q1817.92 1459.62 1823.65 1459.62 Q1830.54 1459.62 1835.32 1454.42 Q1840.09 1449.22 1840.09 1440.63 Q1840.09 1432.46 1835.48 1427.74 Q1830.91 1423.02 1823.49 1423.02 Q1818.87 1423.02 1815.16 1425.14 Q1811.45 1427.21 1809.33 1430.55 L1800.36 1429.38 L1807.89 1389.44 L1846.56 1389.44 L1846.56 1398.56 L1815.53 1398.56 L1811.34 1419.46 Q1818.34 1414.58 1826.03 1414.58 Q1836.22 1414.58 1843.22 1421.64 Q1850.22 1428.69 1850.22 1439.78 Q1850.22 1450.33 1844.07 1458.02 Q1836.59 1467.47 1823.65 1467.47 Q1813.04 1467.47 1806.3 1461.53 Q1799.62 1455.58 1798.66 1445.77 Z" fill="#000000" fill-rule="nonzero" fill-opacity="1" /><path clip-path="url(#clip600)" d="M1859.08 1427.79 Q1859.08 1414 1861.89 1405.62 Q1864.76 1397.18 1870.32 1392.62 Q1875.95 1388.06 1884.43 1388.06 Q1890.69 1388.06 1895.41 1390.61 Q1900.13 1393.1 1903.21 1397.87 Q1906.29 1402.6 1908.04 1409.44 Q1909.79 1416.23 1909.79 1427.79 Q1909.79 1441.48 1906.98 1449.91 Q1904.17 1458.29 1898.54 1462.9 Q1892.97 1467.47 1884.43 1467.47 Q1873.19 1467.47 1866.77 1459.4 Q1859.08 1449.7 1859.08 1427.79 M1868.89 1427.79 Q1868.89 1446.94 1873.35 1453.3 Q1877.86 1459.62 1884.43 1459.62 Q1891.01 1459.62 1895.47 1453.25 Q1899.98 1446.89 1899.98 1427.79 Q1899.98 1408.59 1895.47 1402.28 Q1891.01 1395.96 1884.33 1395.96 Q1877.75 1395.96 1873.83 1401.53 Q1868.89 1408.64 1868.89 1427.79 Z" fill="#000000" fill-rule="nonzero" fill-opacity="1" /><path clip-path="url(#clip600)" d="M2297.63 1456.96 L2297.63 1466.14 L2246.23 1466.14 Q2246.13 1462.69 2247.35 1459.51 Q2249.31 1454.26 2253.61 1449.17 Q2257.96 1444.07 2266.13 1437.39 Q2278.8 1426.99 2283.26 1420.95 Q2287.71 1414.85 2287.71 1409.44 Q2287.71 1403.76 2283.63 1399.89 Q2279.6 1395.96 2273.07 1395.96 Q2266.18 1395.96 2262.04 1400.1 Q2257.9 1404.24 2257.85 1411.56 L2248.04 1410.55 Q2249.05 1399.57 2255.62 1393.84 Q2262.2 1388.06 2273.29 1388.06 Q2284.48 1388.06 2291 1394.27 Q2297.53 1400.47 2297.53 1409.65 Q2297.53 1414.32 2295.62 1418.83 Q2293.71 1423.33 2289.25 1428.32 Q2284.85 1433.31 2274.56 1442.01 Q2265.97 1449.22 2263.53 1451.82 Q2261.09 1454.36 2259.49 1456.96 L2297.63 1456.96 Z" fill="#000000" fill-rule="nonzero" fill-opacity="1" /><path clip-path="url(#clip600)" d="M2307.87 1427.79 Q2307.87 1414 2310.68 1405.62 Q2313.54 1397.18 2319.11 1392.62 Q2324.74 1388.06 2333.22 1388.06 Q2339.48 1388.06 2344.2 1390.61 Q2348.92 1393.1 2352 1397.87 Q2355.08 1402.6 2356.83 1409.44 Q2358.58 1416.23 2358.58 1427.79 Q2358.58 1441.48 2355.77 1449.91 Q2352.96 1458.29 2347.33 1462.9 Q2341.76 1467.47 2333.22 1467.47 Q2321.98 1467.47 2315.56 1459.4 Q2307.87 1449.7 2307.87 1427.79 M2317.68 1427.79 Q2317.68 1446.94 2322.14 1453.3 Q2326.65 1459.62 2333.22 1459.62 Q2339.8 1459.62 2344.26 1453.25 Q2348.77 1446.89 2348.77 1427.79 Q2348.77 1408.59 2344.26 1402.28 Q2339.8 1395.96 2333.12 1395.96 Q2326.54 1395.96 2322.62 1401.53 Q2317.68 1408.64 2317.68 1427.79 Z" fill="#000000" fill-rule="nonzero" fill-opacity="1" /><path clip-path="url(#clip600)" d="M2368.28 1427.79 Q2368.28 1414 2371.1 1405.62 Q2373.96 1397.18 2379.53 1392.62 Q2385.15 1388.06 2393.64 1388.06 Q2399.9 1388.06 2404.62 1390.61 Q2409.34 1393.1 2412.42 1397.87 Q2415.49 1402.6 2417.24 1409.44 Q2418.99 1416.23 2418.99 1427.79 Q2418.99 1441.48 2416.18 1449.91 Q2413.37 1458.29 2407.75 1462.9 Q2402.18 1467.47 2393.64 1467.47 Q2382.39 1467.47 2375.98 1459.4 Q2368.28 1449.7 2368.28 1427.79 M2378.1 1427.79 Q2378.1 1446.94 2382.55 1453.3 Q2387.06 1459.62 2393.64 1459.62 Q2400.22 1459.62 2404.67 1453.25 Q2409.18 1446.89 2409.18 1427.79 Q2409.18 1408.59 2404.67 1402.28 Q2400.22 1395.96 2393.53 1395.96 Q2386.96 1395.96 2383.03 1401.53 Q2378.1 1408.64 2378.1 1427.79 Z" fill="#000000" fill-rule="nonzero" fill-opacity="1" /><path clip-path="url(#clip600)" d="M1237.38 1577.55 L1247.24 1578.77 Q1244.91 1587.42 1238.6 1592.19 Q1232.28 1596.96 1222.47 1596.96 Q1210.11 1596.96 1202.84 1589.38 Q1195.63 1581.74 1195.63 1568 Q1195.63 1553.79 1202.95 1545.94 Q1210.27 1538.09 1221.94 1538.09 Q1233.24 1538.09 1240.4 1545.78 Q1247.56 1553.47 1247.56 1567.42 Q1247.56 1568.27 1247.51 1569.97 L1205.5 1569.97 Q1206.03 1579.25 1210.75 1584.18 Q1215.47 1589.11 1222.52 1589.11 Q1227.77 1589.11 1231.49 1586.36 Q1235.2 1583.6 1237.38 1577.55 M1206.03 1562.12 L1237.48 1562.12 Q1236.84 1555.01 1233.87 1551.45 Q1229.31 1545.94 1222.05 1545.94 Q1215.47 1545.94 1210.96 1550.34 Q1206.5 1554.74 1206.03 1562.12 Z" fill="#000000" fill-rule="nonzero" fill-opacity="1" /><path clip-path="url(#clip600)" d="M1259.23 1617.28 L1259.23 1539.36 L1267.93 1539.36 L1267.93 1546.68 Q1271 1542.38 1274.88 1540.26 Q1278.75 1538.09 1284.26 1538.09 Q1291.48 1538.09 1296.99 1541.8 Q1302.51 1545.51 1305.32 1552.3 Q1308.13 1559.04 1308.13 1567.1 Q1308.13 1575.75 1305 1582.7 Q1301.93 1589.59 1295.99 1593.3 Q1290.1 1596.96 1283.58 1596.96 Q1278.8 1596.96 1274.98 1594.95 Q1271.22 1592.93 1268.78 1589.86 L1268.78 1617.28 L1259.23 1617.28 M1267.87 1567.84 Q1267.87 1578.72 1272.28 1583.92 Q1276.68 1589.11 1282.94 1589.11 Q1289.3 1589.11 1293.81 1583.76 Q1298.37 1578.35 1298.37 1567.05 Q1298.37 1556.28 1293.92 1550.92 Q1289.52 1545.57 1283.36 1545.57 Q1277.26 1545.57 1272.54 1551.3 Q1267.87 1556.97 1267.87 1567.84 Z" fill="#000000" fill-rule="nonzero" fill-opacity="1" /><path clip-path="url(#clip600)" d="M1316.09 1567.53 Q1316.09 1551.88 1324.79 1544.35 Q1332.06 1538.09 1342.51 1538.09 Q1354.12 1538.09 1361.49 1545.73 Q1368.87 1553.31 1368.87 1566.73 Q1368.87 1577.6 1365.58 1583.86 Q1362.34 1590.07 1356.08 1593.52 Q1349.88 1596.96 1342.51 1596.96 Q1330.68 1596.96 1323.36 1589.38 Q1316.09 1581.79 1316.09 1567.53 M1325.9 1567.53 Q1325.9 1578.35 1330.62 1583.76 Q1335.34 1589.11 1342.51 1589.11 Q1349.61 1589.11 1354.33 1583.7 Q1359.05 1578.29 1359.05 1567.21 Q1359.05 1556.76 1354.28 1551.4 Q1349.56 1545.99 1342.51 1545.99 Q1335.34 1545.99 1330.62 1551.35 Q1325.9 1556.71 1325.9 1567.53 Z" fill="#000000" fill-rule="nonzero" fill-opacity="1" /><path clip-path="url(#clip600)" d="M1416.82 1575.06 L1426.21 1576.28 Q1424.67 1585.99 1418.3 1591.5 Q1411.99 1596.96 1402.76 1596.96 Q1391.2 1596.96 1384.14 1589.43 Q1377.14 1581.85 1377.14 1567.74 Q1377.14 1558.62 1380.17 1551.77 Q1383.19 1544.93 1389.34 1541.54 Q1395.55 1538.09 1402.81 1538.09 Q1411.99 1538.09 1417.83 1542.76 Q1423.66 1547.37 1425.3 1555.91 L1416.02 1557.34 Q1414.7 1551.67 1411.3 1548.8 Q1407.96 1545.94 1403.19 1545.94 Q1395.97 1545.94 1391.46 1551.14 Q1386.95 1556.28 1386.95 1567.47 Q1386.95 1578.82 1391.3 1583.97 Q1395.65 1589.11 1402.65 1589.11 Q1408.28 1589.11 1412.04 1585.67 Q1415.81 1582.22 1416.82 1575.06 Z" fill="#000000" fill-rule="nonzero" fill-opacity="1" /><path clip-path="url(#clip600)" d="M1434.37 1595.69 L1434.37 1517.93 L1443.92 1517.93 L1443.92 1545.83 Q1450.61 1538.09 1460.79 1538.09 Q1467.05 1538.09 1471.66 1540.58 Q1476.28 1543.02 1478.24 1547.37 Q1480.26 1551.72 1480.26 1559.99 L1480.26 1595.69 L1470.71 1595.69 L1470.71 1559.99 Q1470.71 1552.83 1467.58 1549.6 Q1464.5 1546.31 1458.83 1546.31 Q1454.58 1546.31 1450.82 1548.54 Q1447.1 1550.71 1445.51 1554.48 Q1443.92 1558.24 1443.92 1564.87 L1443.92 1595.69 L1434.37 1595.69 Z" fill="#000000" fill-rule="nonzero" fill-opacity="1" /><polyline clip-path="url(#clip600)" style="stroke:#000000; stroke-linecap:round; stroke-linejoin:round; stroke-width:4; stroke-opacity:1; fill:none" points="323.131,1349.74 323.131,47.2441 "/>
<polyline clip-path="url(#clip600)" style="stroke:#000000; stroke-linecap:round; stroke-linejoin:round; stroke-width:2; stroke-opacity:0.5; fill:none" points="2352.76,1349.74 2352.76,47.2441 "/>
<polyline clip-path="url(#clip600)" style="stroke:#000000; stroke-linecap:round; stroke-linejoin:round; stroke-width:4; stroke-opacity:1; fill:none" points="323.131,1196.84 342.029,1196.84 "/>
<polyline clip-path="url(#clip600)" style="stroke:#000000; stroke-linecap:round; stroke-linejoin:round; stroke-width:4; stroke-opacity:1; fill:none" points="323.131,840.38 342.029,840.38 "/>
<polyline clip-path="url(#clip600)" style="stroke:#000000; stroke-linecap:round; stroke-linejoin:round; stroke-width:4; stroke-opacity:1; fill:none" points="323.131,483.926 342.029,483.926 "/>
<polyline clip-path="url(#clip600)" style="stroke:#000000; stroke-linecap:round; stroke-linejoin:round; stroke-width:4; stroke-opacity:1; fill:none" points="323.131,127.471 342.029,127.471 "/>
<path clip-path="url(#clip600)" d="M144.978 1197.37 Q144.978 1183.57 147.789 1175.19 Q150.653 1166.76 156.223 1162.2 Q161.845 1157.64 170.332 1157.64 Q176.591 1157.64 181.312 1160.18 Q186.032 1162.68 189.109 1167.45 Q192.185 1172.17 193.936 1179.01 Q195.686 1185.8 195.686 1197.37 Q195.686 1211.05 192.875 1219.48 Q190.063 1227.86 184.441 1232.48 Q178.872 1237.04 170.332 1237.04 Q159.087 1237.04 152.669 1228.98 Q144.978 1219.27 144.978 1197.37 M154.79 1197.37 Q154.79 1216.51 159.246 1222.88 Q163.755 1229.19 170.332 1229.19 Q176.909 1229.19 181.365 1222.83 Q185.873 1216.46 185.873 1197.37 Q185.873 1178.16 181.365 1171.85 Q176.909 1165.54 170.226 1165.54 Q163.648 1165.54 159.723 1171.11 Q154.79 1178.22 154.79 1197.37 Z" fill="#000000" fill-rule="nonzero" fill-opacity="1" /><path clip-path="url(#clip600)" d="M210.75 1235.72 L210.75 1224.84 L221.624 1224.84 L221.624 1235.72 L210.75 1235.72 Z" fill="#000000" fill-rule="nonzero" fill-opacity="1" /><path clip-path="url(#clip600)" d="M235.574 1215.35 L245.599 1214.5 Q246.713 1221.82 250.744 1225.53 Q254.828 1229.19 260.557 1229.19 Q267.452 1229.19 272.226 1223.99 Q277 1218.79 277 1210.2 Q277 1202.03 272.385 1197.31 Q267.823 1192.59 260.398 1192.59 Q255.783 1192.59 252.07 1194.71 Q248.357 1196.78 246.235 1200.12 L237.271 1198.96 L244.803 1159.02 L283.471 1159.02 L283.471 1168.14 L252.441 1168.14 L248.251 1189.04 Q255.252 1184.16 262.944 1184.16 Q273.128 1184.16 280.129 1191.21 Q287.131 1198.27 287.131 1209.35 Q287.131 1219.91 280.978 1227.6 Q273.499 1237.04 260.557 1237.04 Q249.948 1237.04 243.212 1231.1 Q236.529 1225.16 235.574 1215.35 Z" fill="#000000" fill-rule="nonzero" fill-opacity="1" /><path clip-path="url(#clip600)" d="M181.789 879.26 L172.241 879.26 L172.241 818.421 Q168.794 821.71 163.171 824.998 Q157.602 828.287 153.146 829.931 L153.146 820.702 Q161.155 816.936 167.149 811.578 Q173.143 806.221 175.636 801.182 L181.789 801.182 L181.789 879.26 Z" fill="#000000" fill-rule="nonzero" fill-opacity="1" /><path clip-path="url(#clip600)" d="M211.599 879.26 L211.599 868.387 L222.472 868.387 L222.472 879.26 L211.599 879.26 Z" fill="#000000" fill-rule="nonzero" fill-opacity="1" /><path clip-path="url(#clip600)" d="M236.422 840.911 Q236.422 827.12 239.234 818.739 Q242.098 810.305 247.667 805.744 Q253.29 801.182 261.777 801.182 Q268.036 801.182 272.756 803.728 Q277.477 806.221 280.554 810.995 Q283.63 815.716 285.38 822.558 Q287.131 829.348 287.131 840.911 Q287.131 854.596 284.32 863.029 Q281.508 871.41 275.886 876.025 Q270.316 880.586 261.777 880.586 Q250.532 880.586 244.114 872.524 Q236.422 862.817 236.422 840.911 M246.235 840.911 Q246.235 860.059 250.691 866.424 Q255.199 872.736 261.777 872.736 Q268.354 872.736 272.809 866.371 Q277.318 860.006 277.318 840.911 Q277.318 821.71 272.809 815.397 Q268.354 809.085 261.671 809.085 Q255.093 809.085 251.168 814.655 Q246.235 821.763 246.235 840.911 Z" fill="#000000" fill-rule="nonzero" fill-opacity="1" /><path clip-path="url(#clip600)" d="M180.94 522.806 L171.393 522.806 L171.393 461.966 Q167.945 465.255 162.322 468.543 Q156.753 471.832 152.297 473.476 L152.297 464.247 Q160.307 460.481 166.301 455.124 Q172.294 449.766 174.787 444.727 L180.94 444.727 L180.94 522.806 Z" fill="#000000" fill-rule="nonzero" fill-opacity="1" /><path clip-path="url(#clip600)" d="M210.75 522.806 L210.75 511.932 L221.624 511.932 L221.624 522.806 L210.75 522.806 Z" fill="#000000" fill-rule="nonzero" fill-opacity="1" /><path clip-path="url(#clip600)" d="M235.574 502.437 L245.599 501.589 Q246.713 508.909 250.744 512.621 Q254.828 516.281 260.557 516.281 Q267.452 516.281 272.226 511.083 Q277 505.885 277 497.292 Q277 489.124 272.385 484.403 Q267.823 479.682 260.398 479.682 Q255.783 479.682 252.07 481.804 Q248.357 483.873 246.235 487.214 L237.271 486.047 L244.803 446.106 L283.471 446.106 L283.471 455.23 L252.441 455.23 L248.251 476.128 Q255.252 471.248 262.944 471.248 Q273.128 471.248 280.129 478.303 Q287.131 485.358 287.131 496.444 Q287.131 506.999 280.978 514.69 Q273.499 524.132 260.557 524.132 Q249.948 524.132 243.212 518.191 Q236.529 512.25 235.574 502.437 Z" fill="#000000" fill-rule="nonzero" fill-opacity="1" /><path clip-path="url(#clip600)" d="M196.004 157.174 L196.004 166.351 L144.606 166.351 Q144.5 162.903 145.72 159.72 Q147.683 154.469 151.979 149.377 Q156.329 144.285 164.497 137.602 Q177.174 127.206 181.63 121.159 Q186.085 115.059 186.085 109.649 Q186.085 103.973 182.001 100.101 Q177.97 96.1758 171.446 96.1758 Q164.55 96.1758 160.413 100.313 Q156.276 104.45 156.223 111.77 L146.41 110.762 Q147.417 99.7827 153.995 94.0541 Q160.572 88.2725 171.658 88.2725 Q182.85 88.2725 189.374 94.4784 Q195.898 100.684 195.898 109.861 Q195.898 114.528 193.989 119.037 Q192.079 123.546 187.624 128.532 Q183.221 133.518 172.931 142.217 Q164.338 149.43 161.898 152.029 Q159.458 154.575 157.867 157.174 L196.004 157.174 Z" fill="#000000" fill-rule="nonzero" fill-opacity="1" /><path clip-path="url(#clip600)" d="M211.599 166.351 L211.599 155.477 L222.472 155.477 L222.472 166.351 L211.599 166.351 Z" fill="#000000" fill-rule="nonzero" fill-opacity="1" /><path clip-path="url(#clip600)" d="M236.422 128.001 Q236.422 114.21 239.234 105.83 Q242.098 97.3958 247.667 92.8341 Q253.29 88.2725 261.777 88.2725 Q268.036 88.2725 272.756 90.8185 Q277.477 93.3115 280.554 98.0853 Q283.63 102.806 285.38 109.649 Q287.131 116.438 287.131 128.001 Q287.131 141.686 284.32 150.12 Q281.508 158.5 275.886 163.115 Q270.316 167.677 261.777 167.677 Q250.532 167.677 244.114 159.614 Q236.422 149.908 236.422 128.001 M246.235 128.001 Q246.235 147.149 250.691 153.515 Q255.199 159.827 261.777 159.827 Q268.354 159.827 272.809 153.461 Q277.318 147.096 277.318 128.001 Q277.318 108.8 272.809 102.488 Q268.354 96.1758 261.671 96.1758 Q255.093 96.1758 251.168 101.745 Q246.235 108.853 246.235 128.001 Z" fill="#000000" fill-rule="nonzero" fill-opacity="1" /><path clip-path="url(#clip600)" d="M85.1722 788.478 L7.41216 788.478 L7.41216 759.146 Q7.41216 751.402 8.15475 747.317 Q9.10951 741.589 11.8147 737.717 Q14.4668 733.845 19.2936 731.511 Q24.1205 729.124 29.9021 729.124 Q39.821 729.124 46.7165 735.436 Q53.559 741.748 53.559 758.244 L53.559 778.188 L85.1722 778.188 L85.1722 788.478 M44.3826 778.188 L44.3826 758.085 Q44.3826 748.113 40.6697 743.923 Q36.9567 739.732 30.2203 739.732 Q25.3405 739.732 21.8927 742.225 Q18.3919 744.665 17.278 748.696 Q16.5885 751.296 16.5885 758.297 L16.5885 778.188 L44.3826 778.188 Z" fill="#000000" fill-rule="nonzero" fill-opacity="1" /><path clip-path="url(#clip600)" d="M75.9958 669.717 L85.1722 669.717 L85.1722 721.115 Q81.7244 721.221 78.5419 720.001 Q73.2907 718.038 68.1986 713.742 Q63.1066 709.392 56.4232 701.224 Q46.0269 688.547 39.9801 684.091 Q33.8803 679.635 28.4699 679.635 Q22.7944 679.635 18.9223 683.72 Q14.9972 687.751 14.9972 694.275 Q14.9972 701.171 19.1345 705.308 Q23.2718 709.445 30.5916 709.498 L29.5838 719.311 Q18.6041 718.303 12.8755 711.726 Q7.0939 705.149 7.0939 694.063 Q7.0939 682.871 13.2999 676.347 Q19.5058 669.823 28.6821 669.823 Q33.3498 669.823 37.8584 671.732 Q42.367 673.642 47.353 678.097 Q52.339 682.5 61.0379 692.79 Q68.2517 701.383 70.8507 703.823 Q73.3968 706.263 75.9958 707.854 L75.9958 669.717 Z" fill="#000000" fill-rule="nonzero" fill-opacity="1" /><path clip-path="url(#clip600)" d="M64.6448 659.426 L63.3718 649.879 Q71.4872 648.234 75.0941 644.309 Q78.648 640.331 78.648 634.656 Q78.648 627.919 73.9802 623.305 Q69.3125 618.637 62.417 618.637 Q55.8398 618.637 51.5964 622.933 Q47.3 627.23 47.3 633.86 Q47.3 636.565 48.3608 640.596 L39.9801 639.535 Q40.0862 638.581 40.0862 637.997 Q40.0862 631.897 36.9037 627.017 Q33.7211 622.138 27.0908 622.138 Q21.8397 622.138 18.3919 625.691 Q14.9442 629.245 14.9442 634.868 Q14.9442 640.437 18.445 644.15 Q21.9457 647.863 28.9473 648.924 L27.25 658.472 Q17.6493 656.721 12.3981 650.515 Q7.0939 644.309 7.0939 635.08 Q7.0939 628.715 9.8521 623.358 Q12.5573 618 17.278 615.189 Q21.9988 612.325 27.303 612.325 Q32.342 612.325 36.4793 615.03 Q40.6166 617.735 43.0566 623.039 Q44.6478 616.144 49.6869 612.325 Q54.6728 608.506 62.2048 608.506 Q72.389 608.506 79.4966 615.932 Q86.5513 623.358 86.5513 634.709 Q86.5513 644.946 80.4514 651.735 Q74.3515 658.472 64.6448 659.426 Z" fill="#000000" fill-rule="nonzero" fill-opacity="1" /><polyline clip-path="url(#clip602)" style="stroke:#009af9; stroke-linecap:round; stroke-linejoin:round; stroke-width:8; stroke-opacity:1; fill:none" points="323.131,357.468 333.229,220.296 343.326,278.735 353.424,136.948 363.521,148.278 373.619,47.2441 383.717,82.1414 393.814,134.419 403.912,155.491 414.01,192.983 424.107,237.364 434.205,285.177 444.303,317.244 454.4,360.576 464.498,395.918 474.595,452.83 484.693,503.436 494.791,552.705 504.888,589.127 514.986,628.213 525.084,649.176 535.181,692.619 545.279,740.007 555.377,777.163 565.474,775.216 575.572,810.208 585.669,779.666 595.767,821.24 605.865,817.508 615.962,790.875 626.06,786.139 636.158,760.906 646.255,796.424 656.353,757.657 666.451,797.307 676.548,835.649 686.646,819.541 696.743,787.397 706.841,773.086 716.939,746.448 727.036,784.395 737.134,757.445 747.232,795.542 757.329,778.893 767.427,762.341 777.525,733.442 787.622,771.543 797.72,814.069 807.817,850.388 817.915,884.995 828.013,864.519 838.11,898.247 848.208,879.919 858.306,866.906 868.403,834.667 878.501,824.616 888.599,799.031 898.696,828.21 908.794,826.976 918.891,860.716 928.989,902.11 939.087,939.458 949.184,900.604 959.282,934.54 969.38,969.564 979.477,1001.95 989.575,1033.75 999.673,1015.2 1009.77,1007.17 1019.87,974.66 1029.97,1001.09 1040.06,1025.16 1050.16,1031.33 1060.26,991.578 1070.36,981.939 1080.45,978.312 1090.55,1007.44 1100.65,941.713 1110.75,904.08 1120.84,885.21 1130.94,860.008 1141.04,855.92 1151.14,887.944 1161.23,919.525 1171.33,919.644 1181.43,955.747 1191.53,918.088 1201.63,872.993 1211.72,909.208 1221.82,890.603 1231.92,925.879 1242.02,962.572 1252.11,992.662 1262.21,1026.11 1272.31,1055.47 1282.41,1087.38 1292.5,1061.34 1302.6,1087.93 1312.7,1123.57 1322.8,1150.4 1332.89,1129.36 1342.99,1151.11 1353.09,1145.43 1363.19,1175.62 1373.29,1172.92 1383.38,1128.25 1393.48,1089.02 1403.58,1108.26 1413.68,1081.41 1423.77,1063.65 1433.87,1079.8 1443.97,1094.6 1454.07,1117.89 1464.16,1129.65 1474.26,1150.04 1484.36,1166.93 1494.46,1202.55 1504.55,1217.06 1514.65,1244.9 1524.75,1234.76 1534.85,1252.29 1544.94,1260.34 1555.04,1286.4 1565.14,1318.75 1575.24,1339.26 1585.34,1328.91 1595.43,1349.74 1605.53,1277.48 1615.63,1299.73 1625.73,1280.13 1635.82,1238.49 1645.92,1235.88 1656.02,1186.5 1666.12,1207.65 1676.21,1135.43 1686.31,1163.37 1696.41,1191.23 1706.51,1164.6 1716.6,1115.94 1726.7,1083.94 1736.8,1052.76 1746.9,1082.66 1757,1041.71 1767.09,1069.25 1777.19,1042.22 1787.29,1019.57 1797.39,970.776 1807.48,1002.57 1817.58,1038.3 1827.68,1070.77 1837.78,1098.01 1847.87,1066.01 1857.97,1092.97 1868.07,1064.02 1878.17,1046.1 1888.26,1005.71 1898.36,988.086 1908.46,958.566 1918.56,982.31 1928.66,978.8 1938.75,1008.34 1948.85,1045.57 1958.95,1079.73 1969.05,1033.2 1979.14,1062.1 1989.24,1093.65 1999.34,1121.3 2009.44,1149.16 2019.53,1126.37 2029.63,1116.74 2039.73,1075.6 2049.83,1098.21 2059.92,1118.77 2070.02,1121.6 2080.12,1076.78 2090.22,1064.23 2100.31,1059.73 2110.41,1085.85 2120.51,1015.52 2130.61,971.475 2140.71,951.454 2150.8,922.36 2160.9,917.371 2171,947.11 2181.1,975.838 2191.19,975.054 2201.29,1009.95 2211.39,969.951 2221.49,921.83 2231.58,956.37 2241.68,937.218 2251.78,970.973 2261.88,1006.53 2271.97,1034.98 2282.07,1067.04 2292.17,1094.93 2302.27,1126.11 2312.37,1100.82 2322.46,1126.42 2332.56,1160.7 2342.66,1185.9 2352.76,1165.96 "/>
<circle clip-path="url(#clip602)" cx="323.131" cy="357.468" r="3.6" fill="#009af9" fill-rule="evenodd" fill-opacity="1" stroke="#000000" stroke-opacity="1" stroke-width="3.2"/>
<circle clip-path="url(#clip602)" cx="333.229" cy="220.296" r="3.6" fill="#009af9" fill-rule="evenodd" fill-opacity="1" stroke="#000000" stroke-opacity="1" stroke-width="3.2"/>
<circle clip-path="url(#clip602)" cx="343.326" cy="278.735" r="3.6" fill="#009af9" fill-rule="evenodd" fill-opacity="1" stroke="#000000" stroke-opacity="1" stroke-width="3.2"/>
<circle clip-path="url(#clip602)" cx="353.424" cy="136.948" r="3.6" fill="#009af9" fill-rule="evenodd" fill-opacity="1" stroke="#000000" stroke-opacity="1" stroke-width="3.2"/>
<circle clip-path="url(#clip602)" cx="363.521" cy="148.278" r="3.6" fill="#009af9" fill-rule="evenodd" fill-opacity="1" stroke="#000000" stroke-opacity="1" stroke-width="3.2"/>
<circle clip-path="url(#clip602)" cx="373.619" cy="47.2441" r="3.6" fill="#009af9" fill-rule="evenodd" fill-opacity="1" stroke="#000000" stroke-opacity="1" stroke-width="3.2"/>
<circle clip-path="url(#clip602)" cx="383.717" cy="82.1414" r="3.6" fill="#009af9" fill-rule="evenodd" fill-opacity="1" stroke="#000000" stroke-opacity="1" stroke-width="3.2"/>
<circle clip-path="url(#clip602)" cx="393.814" cy="134.419" r="3.6" fill="#009af9" fill-rule="evenodd" fill-opacity="1" stroke="#000000" stroke-opacity="1" stroke-width="3.2"/>
<circle clip-path="url(#clip602)" cx="403.912" cy="155.491" r="3.6" fill="#009af9" fill-rule="evenodd" fill-opacity="1" stroke="#000000" stroke-opacity="1" stroke-width="3.2"/>
<circle clip-path="url(#clip602)" cx="414.01" cy="192.983" r="3.6" fill="#009af9" fill-rule="evenodd" fill-opacity="1" stroke="#000000" stroke-opacity="1" stroke-width="3.2"/>
<circle clip-path="url(#clip602)" cx="424.107" cy="237.364" r="3.6" fill="#009af9" fill-rule="evenodd" fill-opacity="1" stroke="#000000" stroke-opacity="1" stroke-width="3.2"/>
<circle clip-path="url(#clip602)" cx="434.205" cy="285.177" r="3.6" fill="#009af9" fill-rule="evenodd" fill-opacity="1" stroke="#000000" stroke-opacity="1" stroke-width="3.2"/>
<circle clip-path="url(#clip602)" cx="444.303" cy="317.244" r="3.6" fill="#009af9" fill-rule="evenodd" fill-opacity="1" stroke="#000000" stroke-opacity="1" stroke-width="3.2"/>
<circle clip-path="url(#clip602)" cx="454.4" cy="360.576" r="3.6" fill="#009af9" fill-rule="evenodd" fill-opacity="1" stroke="#000000" stroke-opacity="1" stroke-width="3.2"/>
<circle clip-path="url(#clip602)" cx="464.498" cy="395.918" r="3.6" fill="#009af9" fill-rule="evenodd" fill-opacity="1" stroke="#000000" stroke-opacity="1" stroke-width="3.2"/>
<circle clip-path="url(#clip602)" cx="474.595" cy="452.83" r="3.6" fill="#009af9" fill-rule="evenodd" fill-opacity="1" stroke="#000000" stroke-opacity="1" stroke-width="3.2"/>
<circle clip-path="url(#clip602)" cx="484.693" cy="503.436" r="3.6" fill="#009af9" fill-rule="evenodd" fill-opacity="1" stroke="#000000" stroke-opacity="1" stroke-width="3.2"/>
<circle clip-path="url(#clip602)" cx="494.791" cy="552.705" r="3.6" fill="#009af9" fill-rule="evenodd" fill-opacity="1" stroke="#000000" stroke-opacity="1" stroke-width="3.2"/>
<circle clip-path="url(#clip602)" cx="504.888" cy="589.127" r="3.6" fill="#009af9" fill-rule="evenodd" fill-opacity="1" stroke="#000000" stroke-opacity="1" stroke-width="3.2"/>
<circle clip-path="url(#clip602)" cx="514.986" cy="628.213" r="3.6" fill="#009af9" fill-rule="evenodd" fill-opacity="1" stroke="#000000" stroke-opacity="1" stroke-width="3.2"/>
<circle clip-path="url(#clip602)" cx="525.084" cy="649.176" r="3.6" fill="#009af9" fill-rule="evenodd" fill-opacity="1" stroke="#000000" stroke-opacity="1" stroke-width="3.2"/>
<circle clip-path="url(#clip602)" cx="535.181" cy="692.619" r="3.6" fill="#009af9" fill-rule="evenodd" fill-opacity="1" stroke="#000000" stroke-opacity="1" stroke-width="3.2"/>
<circle clip-path="url(#clip602)" cx="545.279" cy="740.007" r="3.6" fill="#009af9" fill-rule="evenodd" fill-opacity="1" stroke="#000000" stroke-opacity="1" stroke-width="3.2"/>
<circle clip-path="url(#clip602)" cx="555.377" cy="777.163" r="3.6" fill="#009af9" fill-rule="evenodd" fill-opacity="1" stroke="#000000" stroke-opacity="1" stroke-width="3.2"/>
<circle clip-path="url(#clip602)" cx="565.474" cy="775.216" r="3.6" fill="#009af9" fill-rule="evenodd" fill-opacity="1" stroke="#000000" stroke-opacity="1" stroke-width="3.2"/>
<circle clip-path="url(#clip602)" cx="575.572" cy="810.208" r="3.6" fill="#009af9" fill-rule="evenodd" fill-opacity="1" stroke="#000000" stroke-opacity="1" stroke-width="3.2"/>
<circle clip-path="url(#clip602)" cx="585.669" cy="779.666" r="3.6" fill="#009af9" fill-rule="evenodd" fill-opacity="1" stroke="#000000" stroke-opacity="1" stroke-width="3.2"/>
<circle clip-path="url(#clip602)" cx="595.767" cy="821.24" r="3.6" fill="#009af9" fill-rule="evenodd" fill-opacity="1" stroke="#000000" stroke-opacity="1" stroke-width="3.2"/>
<circle clip-path="url(#clip602)" cx="605.865" cy="817.508" r="3.6" fill="#009af9" fill-rule="evenodd" fill-opacity="1" stroke="#000000" stroke-opacity="1" stroke-width="3.2"/>
<circle clip-path="url(#clip602)" cx="615.962" cy="790.875" r="3.6" fill="#009af9" fill-rule="evenodd" fill-opacity="1" stroke="#000000" stroke-opacity="1" stroke-width="3.2"/>
<circle clip-path="url(#clip602)" cx="626.06" cy="786.139" r="3.6" fill="#009af9" fill-rule="evenodd" fill-opacity="1" stroke="#000000" stroke-opacity="1" stroke-width="3.2"/>
<circle clip-path="url(#clip602)" cx="636.158" cy="760.906" r="3.6" fill="#009af9" fill-rule="evenodd" fill-opacity="1" stroke="#000000" stroke-opacity="1" stroke-width="3.2"/>
<circle clip-path="url(#clip602)" cx="646.255" cy="796.424" r="3.6" fill="#009af9" fill-rule="evenodd" fill-opacity="1" stroke="#000000" stroke-opacity="1" stroke-width="3.2"/>
<circle clip-path="url(#clip602)" cx="656.353" cy="757.657" r="3.6" fill="#009af9" fill-rule="evenodd" fill-opacity="1" stroke="#000000" stroke-opacity="1" stroke-width="3.2"/>
<circle clip-path="url(#clip602)" cx="666.451" cy="797.307" r="3.6" fill="#009af9" fill-rule="evenodd" fill-opacity="1" stroke="#000000" stroke-opacity="1" stroke-width="3.2"/>
<circle clip-path="url(#clip602)" cx="676.548" cy="835.649" r="3.6" fill="#009af9" fill-rule="evenodd" fill-opacity="1" stroke="#000000" stroke-opacity="1" stroke-width="3.2"/>
<circle clip-path="url(#clip602)" cx="686.646" cy="819.541" r="3.6" fill="#009af9" fill-rule="evenodd" fill-opacity="1" stroke="#000000" stroke-opacity="1" stroke-width="3.2"/>
<circle clip-path="url(#clip602)" cx="696.743" cy="787.397" r="3.6" fill="#009af9" fill-rule="evenodd" fill-opacity="1" stroke="#000000" stroke-opacity="1" stroke-width="3.2"/>
<circle clip-path="url(#clip602)" cx="706.841" cy="773.086" r="3.6" fill="#009af9" fill-rule="evenodd" fill-opacity="1" stroke="#000000" stroke-opacity="1" stroke-width="3.2"/>
<circle clip-path="url(#clip602)" cx="716.939" cy="746.448" r="3.6" fill="#009af9" fill-rule="evenodd" fill-opacity="1" stroke="#000000" stroke-opacity="1" stroke-width="3.2"/>
<circle clip-path="url(#clip602)" cx="727.036" cy="784.395" r="3.6" fill="#009af9" fill-rule="evenodd" fill-opacity="1" stroke="#000000" stroke-opacity="1" stroke-width="3.2"/>
<circle clip-path="url(#clip602)" cx="737.134" cy="757.445" r="3.6" fill="#009af9" fill-rule="evenodd" fill-opacity="1" stroke="#000000" stroke-opacity="1" stroke-width="3.2"/>
<circle clip-path="url(#clip602)" cx="747.232" cy="795.542" r="3.6" fill="#009af9" fill-rule="evenodd" fill-opacity="1" stroke="#000000" stroke-opacity="1" stroke-width="3.2"/>
<circle clip-path="url(#clip602)" cx="757.329" cy="778.893" r="3.6" fill="#009af9" fill-rule="evenodd" fill-opacity="1" stroke="#000000" stroke-opacity="1" stroke-width="3.2"/>
<circle clip-path="url(#clip602)" cx="767.427" cy="762.341" r="3.6" fill="#009af9" fill-rule="evenodd" fill-opacity="1" stroke="#000000" stroke-opacity="1" stroke-width="3.2"/>
<circle clip-path="url(#clip602)" cx="777.525" cy="733.442" r="3.6" fill="#009af9" fill-rule="evenodd" fill-opacity="1" stroke="#000000" stroke-opacity="1" stroke-width="3.2"/>
<circle clip-path="url(#clip602)" cx="787.622" cy="771.543" r="3.6" fill="#009af9" fill-rule="evenodd" fill-opacity="1" stroke="#000000" stroke-opacity="1" stroke-width="3.2"/>
<circle clip-path="url(#clip602)" cx="797.72" cy="814.069" r="3.6" fill="#009af9" fill-rule="evenodd" fill-opacity="1" stroke="#000000" stroke-opacity="1" stroke-width="3.2"/>
<circle clip-path="url(#clip602)" cx="807.817" cy="850.388" r="3.6" fill="#009af9" fill-rule="evenodd" fill-opacity="1" stroke="#000000" stroke-opacity="1" stroke-width="3.2"/>
<circle clip-path="url(#clip602)" cx="817.915" cy="884.995" r="3.6" fill="#009af9" fill-rule="evenodd" fill-opacity="1" stroke="#000000" stroke-opacity="1" stroke-width="3.2"/>
<circle clip-path="url(#clip602)" cx="828.013" cy="864.519" r="3.6" fill="#009af9" fill-rule="evenodd" fill-opacity="1" stroke="#000000" stroke-opacity="1" stroke-width="3.2"/>
<circle clip-path="url(#clip602)" cx="838.11" cy="898.247" r="3.6" fill="#009af9" fill-rule="evenodd" fill-opacity="1" stroke="#000000" stroke-opacity="1" stroke-width="3.2"/>
<circle clip-path="url(#clip602)" cx="848.208" cy="879.919" r="3.6" fill="#009af9" fill-rule="evenodd" fill-opacity="1" stroke="#000000" stroke-opacity="1" stroke-width="3.2"/>
<circle clip-path="url(#clip602)" cx="858.306" cy="866.906" r="3.6" fill="#009af9" fill-rule="evenodd" fill-opacity="1" stroke="#000000" stroke-opacity="1" stroke-width="3.2"/>
<circle clip-path="url(#clip602)" cx="868.403" cy="834.667" r="3.6" fill="#009af9" fill-rule="evenodd" fill-opacity="1" stroke="#000000" stroke-opacity="1" stroke-width="3.2"/>
<circle clip-path="url(#clip602)" cx="878.501" cy="824.616" r="3.6" fill="#009af9" fill-rule="evenodd" fill-opacity="1" stroke="#000000" stroke-opacity="1" stroke-width="3.2"/>
<circle clip-path="url(#clip602)" cx="888.599" cy="799.031" r="3.6" fill="#009af9" fill-rule="evenodd" fill-opacity="1" stroke="#000000" stroke-opacity="1" stroke-width="3.2"/>
<circle clip-path="url(#clip602)" cx="898.696" cy="828.21" r="3.6" fill="#009af9" fill-rule="evenodd" fill-opacity="1" stroke="#000000" stroke-opacity="1" stroke-width="3.2"/>
<circle clip-path="url(#clip602)" cx="908.794" cy="826.976" r="3.6" fill="#009af9" fill-rule="evenodd" fill-opacity="1" stroke="#000000" stroke-opacity="1" stroke-width="3.2"/>
<circle clip-path="url(#clip602)" cx="918.891" cy="860.716" r="3.6" fill="#009af9" fill-rule="evenodd" fill-opacity="1" stroke="#000000" stroke-opacity="1" stroke-width="3.2"/>
<circle clip-path="url(#clip602)" cx="928.989" cy="902.11" r="3.6" fill="#009af9" fill-rule="evenodd" fill-opacity="1" stroke="#000000" stroke-opacity="1" stroke-width="3.2"/>
<circle clip-path="url(#clip602)" cx="939.087" cy="939.458" r="3.6" fill="#009af9" fill-rule="evenodd" fill-opacity="1" stroke="#000000" stroke-opacity="1" stroke-width="3.2"/>
<circle clip-path="url(#clip602)" cx="949.184" cy="900.604" r="3.6" fill="#009af9" fill-rule="evenodd" fill-opacity="1" stroke="#000000" stroke-opacity="1" stroke-width="3.2"/>
<circle clip-path="url(#clip602)" cx="959.282" cy="934.54" r="3.6" fill="#009af9" fill-rule="evenodd" fill-opacity="1" stroke="#000000" stroke-opacity="1" stroke-width="3.2"/>
<circle clip-path="url(#clip602)" cx="969.38" cy="969.564" r="3.6" fill="#009af9" fill-rule="evenodd" fill-opacity="1" stroke="#000000" stroke-opacity="1" stroke-width="3.2"/>
<circle clip-path="url(#clip602)" cx="979.477" cy="1001.95" r="3.6" fill="#009af9" fill-rule="evenodd" fill-opacity="1" stroke="#000000" stroke-opacity="1" stroke-width="3.2"/>
<circle clip-path="url(#clip602)" cx="989.575" cy="1033.75" r="3.6" fill="#009af9" fill-rule="evenodd" fill-opacity="1" stroke="#000000" stroke-opacity="1" stroke-width="3.2"/>
<circle clip-path="url(#clip602)" cx="999.673" cy="1015.2" r="3.6" fill="#009af9" fill-rule="evenodd" fill-opacity="1" stroke="#000000" stroke-opacity="1" stroke-width="3.2"/>
<circle clip-path="url(#clip602)" cx="1009.77" cy="1007.17" r="3.6" fill="#009af9" fill-rule="evenodd" fill-opacity="1" stroke="#000000" stroke-opacity="1" stroke-width="3.2"/>
<circle clip-path="url(#clip602)" cx="1019.87" cy="974.66" r="3.6" fill="#009af9" fill-rule="evenodd" fill-opacity="1" stroke="#000000" stroke-opacity="1" stroke-width="3.2"/>
<circle clip-path="url(#clip602)" cx="1029.97" cy="1001.09" r="3.6" fill="#009af9" fill-rule="evenodd" fill-opacity="1" stroke="#000000" stroke-opacity="1" stroke-width="3.2"/>
<circle clip-path="url(#clip602)" cx="1040.06" cy="1025.16" r="3.6" fill="#009af9" fill-rule="evenodd" fill-opacity="1" stroke="#000000" stroke-opacity="1" stroke-width="3.2"/>
<circle clip-path="url(#clip602)" cx="1050.16" cy="1031.33" r="3.6" fill="#009af9" fill-rule="evenodd" fill-opacity="1" stroke="#000000" stroke-opacity="1" stroke-width="3.2"/>
<circle clip-path="url(#clip602)" cx="1060.26" cy="991.578" r="3.6" fill="#009af9" fill-rule="evenodd" fill-opacity="1" stroke="#000000" stroke-opacity="1" stroke-width="3.2"/>
<circle clip-path="url(#clip602)" cx="1070.36" cy="981.939" r="3.6" fill="#009af9" fill-rule="evenodd" fill-opacity="1" stroke="#000000" stroke-opacity="1" stroke-width="3.2"/>
<circle clip-path="url(#clip602)" cx="1080.45" cy="978.312" r="3.6" fill="#009af9" fill-rule="evenodd" fill-opacity="1" stroke="#000000" stroke-opacity="1" stroke-width="3.2"/>
<circle clip-path="url(#clip602)" cx="1090.55" cy="1007.44" r="3.6" fill="#009af9" fill-rule="evenodd" fill-opacity="1" stroke="#000000" stroke-opacity="1" stroke-width="3.2"/>
<circle clip-path="url(#clip602)" cx="1100.65" cy="941.713" r="3.6" fill="#009af9" fill-rule="evenodd" fill-opacity="1" stroke="#000000" stroke-opacity="1" stroke-width="3.2"/>
<circle clip-path="url(#clip602)" cx="1110.75" cy="904.08" r="3.6" fill="#009af9" fill-rule="evenodd" fill-opacity="1" stroke="#000000" stroke-opacity="1" stroke-width="3.2"/>
<circle clip-path="url(#clip602)" cx="1120.84" cy="885.21" r="3.6" fill="#009af9" fill-rule="evenodd" fill-opacity="1" stroke="#000000" stroke-opacity="1" stroke-width="3.2"/>
<circle clip-path="url(#clip602)" cx="1130.94" cy="860.008" r="3.6" fill="#009af9" fill-rule="evenodd" fill-opacity="1" stroke="#000000" stroke-opacity="1" stroke-width="3.2"/>
<circle clip-path="url(#clip602)" cx="1141.04" cy="855.92" r="3.6" fill="#009af9" fill-rule="evenodd" fill-opacity="1" stroke="#000000" stroke-opacity="1" stroke-width="3.2"/>
<circle clip-path="url(#clip602)" cx="1151.14" cy="887.944" r="3.6" fill="#009af9" fill-rule="evenodd" fill-opacity="1" stroke="#000000" stroke-opacity="1" stroke-width="3.2"/>
<circle clip-path="url(#clip602)" cx="1161.23" cy="919.525" r="3.6" fill="#009af9" fill-rule="evenodd" fill-opacity="1" stroke="#000000" stroke-opacity="1" stroke-width="3.2"/>
<circle clip-path="url(#clip602)" cx="1171.33" cy="919.644" r="3.6" fill="#009af9" fill-rule="evenodd" fill-opacity="1" stroke="#000000" stroke-opacity="1" stroke-width="3.2"/>
<circle clip-path="url(#clip602)" cx="1181.43" cy="955.747" r="3.6" fill="#009af9" fill-rule="evenodd" fill-opacity="1" stroke="#000000" stroke-opacity="1" stroke-width="3.2"/>
<circle clip-path="url(#clip602)" cx="1191.53" cy="918.088" r="3.6" fill="#009af9" fill-rule="evenodd" fill-opacity="1" stroke="#000000" stroke-opacity="1" stroke-width="3.2"/>
<circle clip-path="url(#clip602)" cx="1201.63" cy="872.993" r="3.6" fill="#009af9" fill-rule="evenodd" fill-opacity="1" stroke="#000000" stroke-opacity="1" stroke-width="3.2"/>
<circle clip-path="url(#clip602)" cx="1211.72" cy="909.208" r="3.6" fill="#009af9" fill-rule="evenodd" fill-opacity="1" stroke="#000000" stroke-opacity="1" stroke-width="3.2"/>
<circle clip-path="url(#clip602)" cx="1221.82" cy="890.603" r="3.6" fill="#009af9" fill-rule="evenodd" fill-opacity="1" stroke="#000000" stroke-opacity="1" stroke-width="3.2"/>
<circle clip-path="url(#clip602)" cx="1231.92" cy="925.879" r="3.6" fill="#009af9" fill-rule="evenodd" fill-opacity="1" stroke="#000000" stroke-opacity="1" stroke-width="3.2"/>
<circle clip-path="url(#clip602)" cx="1242.02" cy="962.572" r="3.6" fill="#009af9" fill-rule="evenodd" fill-opacity="1" stroke="#000000" stroke-opacity="1" stroke-width="3.2"/>
<circle clip-path="url(#clip602)" cx="1252.11" cy="992.662" r="3.6" fill="#009af9" fill-rule="evenodd" fill-opacity="1" stroke="#000000" stroke-opacity="1" stroke-width="3.2"/>
<circle clip-path="url(#clip602)" cx="1262.21" cy="1026.11" r="3.6" fill="#009af9" fill-rule="evenodd" fill-opacity="1" stroke="#000000" stroke-opacity="1" stroke-width="3.2"/>
<circle clip-path="url(#clip602)" cx="1272.31" cy="1055.47" r="3.6" fill="#009af9" fill-rule="evenodd" fill-opacity="1" stroke="#000000" stroke-opacity="1" stroke-width="3.2"/>
<circle clip-path="url(#clip602)" cx="1282.41" cy="1087.38" r="3.6" fill="#009af9" fill-rule="evenodd" fill-opacity="1" stroke="#000000" stroke-opacity="1" stroke-width="3.2"/>
<circle clip-path="url(#clip602)" cx="1292.5" cy="1061.34" r="3.6" fill="#009af9" fill-rule="evenodd" fill-opacity="1" stroke="#000000" stroke-opacity="1" stroke-width="3.2"/>
<circle clip-path="url(#clip602)" cx="1302.6" cy="1087.93" r="3.6" fill="#009af9" fill-rule="evenodd" fill-opacity="1" stroke="#000000" stroke-opacity="1" stroke-width="3.2"/>
<circle clip-path="url(#clip602)" cx="1312.7" cy="1123.57" r="3.6" fill="#009af9" fill-rule="evenodd" fill-opacity="1" stroke="#000000" stroke-opacity="1" stroke-width="3.2"/>
<circle clip-path="url(#clip602)" cx="1322.8" cy="1150.4" r="3.6" fill="#009af9" fill-rule="evenodd" fill-opacity="1" stroke="#000000" stroke-opacity="1" stroke-width="3.2"/>
<circle clip-path="url(#clip602)" cx="1332.89" cy="1129.36" r="3.6" fill="#009af9" fill-rule="evenodd" fill-opacity="1" stroke="#000000" stroke-opacity="1" stroke-width="3.2"/>
<circle clip-path="url(#clip602)" cx="1342.99" cy="1151.11" r="3.6" fill="#009af9" fill-rule="evenodd" fill-opacity="1" stroke="#000000" stroke-opacity="1" stroke-width="3.2"/>
<circle clip-path="url(#clip602)" cx="1353.09" cy="1145.43" r="3.6" fill="#009af9" fill-rule="evenodd" fill-opacity="1" stroke="#000000" stroke-opacity="1" stroke-width="3.2"/>
<circle clip-path="url(#clip602)" cx="1363.19" cy="1175.62" r="3.6" fill="#009af9" fill-rule="evenodd" fill-opacity="1" stroke="#000000" stroke-opacity="1" stroke-width="3.2"/>
<circle clip-path="url(#clip602)" cx="1373.29" cy="1172.92" r="3.6" fill="#009af9" fill-rule="evenodd" fill-opacity="1" stroke="#000000" stroke-opacity="1" stroke-width="3.2"/>
<circle clip-path="url(#clip602)" cx="1383.38" cy="1128.25" r="3.6" fill="#009af9" fill-rule="evenodd" fill-opacity="1" stroke="#000000" stroke-opacity="1" stroke-width="3.2"/>
<circle clip-path="url(#clip602)" cx="1393.48" cy="1089.02" r="3.6" fill="#009af9" fill-rule="evenodd" fill-opacity="1" stroke="#000000" stroke-opacity="1" stroke-width="3.2"/>
<circle clip-path="url(#clip602)" cx="1403.58" cy="1108.26" r="3.6" fill="#009af9" fill-rule="evenodd" fill-opacity="1" stroke="#000000" stroke-opacity="1" stroke-width="3.2"/>
<circle clip-path="url(#clip602)" cx="1413.68" cy="1081.41" r="3.6" fill="#009af9" fill-rule="evenodd" fill-opacity="1" stroke="#000000" stroke-opacity="1" stroke-width="3.2"/>
<circle clip-path="url(#clip602)" cx="1423.77" cy="1063.65" r="3.6" fill="#009af9" fill-rule="evenodd" fill-opacity="1" stroke="#000000" stroke-opacity="1" stroke-width="3.2"/>
<circle clip-path="url(#clip602)" cx="1433.87" cy="1079.8" r="3.6" fill="#009af9" fill-rule="evenodd" fill-opacity="1" stroke="#000000" stroke-opacity="1" stroke-width="3.2"/>
<circle clip-path="url(#clip602)" cx="1443.97" cy="1094.6" r="3.6" fill="#009af9" fill-rule="evenodd" fill-opacity="1" stroke="#000000" stroke-opacity="1" stroke-width="3.2"/>
<circle clip-path="url(#clip602)" cx="1454.07" cy="1117.89" r="3.6" fill="#009af9" fill-rule="evenodd" fill-opacity="1" stroke="#000000" stroke-opacity="1" stroke-width="3.2"/>
<circle clip-path="url(#clip602)" cx="1464.16" cy="1129.65" r="3.6" fill="#009af9" fill-rule="evenodd" fill-opacity="1" stroke="#000000" stroke-opacity="1" stroke-width="3.2"/>
<circle clip-path="url(#clip602)" cx="1474.26" cy="1150.04" r="3.6" fill="#009af9" fill-rule="evenodd" fill-opacity="1" stroke="#000000" stroke-opacity="1" stroke-width="3.2"/>
<circle clip-path="url(#clip602)" cx="1484.36" cy="1166.93" r="3.6" fill="#009af9" fill-rule="evenodd" fill-opacity="1" stroke="#000000" stroke-opacity="1" stroke-width="3.2"/>
<circle clip-path="url(#clip602)" cx="1494.46" cy="1202.55" r="3.6" fill="#009af9" fill-rule="evenodd" fill-opacity="1" stroke="#000000" stroke-opacity="1" stroke-width="3.2"/>
<circle clip-path="url(#clip602)" cx="1504.55" cy="1217.06" r="3.6" fill="#009af9" fill-rule="evenodd" fill-opacity="1" stroke="#000000" stroke-opacity="1" stroke-width="3.2"/>
<circle clip-path="url(#clip602)" cx="1514.65" cy="1244.9" r="3.6" fill="#009af9" fill-rule="evenodd" fill-opacity="1" stroke="#000000" stroke-opacity="1" stroke-width="3.2"/>
<circle clip-path="url(#clip602)" cx="1524.75" cy="1234.76" r="3.6" fill="#009af9" fill-rule="evenodd" fill-opacity="1" stroke="#000000" stroke-opacity="1" stroke-width="3.2"/>
<circle clip-path="url(#clip602)" cx="1534.85" cy="1252.29" r="3.6" fill="#009af9" fill-rule="evenodd" fill-opacity="1" stroke="#000000" stroke-opacity="1" stroke-width="3.2"/>
<circle clip-path="url(#clip602)" cx="1544.94" cy="1260.34" r="3.6" fill="#009af9" fill-rule="evenodd" fill-opacity="1" stroke="#000000" stroke-opacity="1" stroke-width="3.2"/>
<circle clip-path="url(#clip602)" cx="1555.04" cy="1286.4" r="3.6" fill="#009af9" fill-rule="evenodd" fill-opacity="1" stroke="#000000" stroke-opacity="1" stroke-width="3.2"/>
<circle clip-path="url(#clip602)" cx="1565.14" cy="1318.75" r="3.6" fill="#009af9" fill-rule="evenodd" fill-opacity="1" stroke="#000000" stroke-opacity="1" stroke-width="3.2"/>
<circle clip-path="url(#clip602)" cx="1575.24" cy="1339.26" r="3.6" fill="#009af9" fill-rule="evenodd" fill-opacity="1" stroke="#000000" stroke-opacity="1" stroke-width="3.2"/>
<circle clip-path="url(#clip602)" cx="1585.34" cy="1328.91" r="3.6" fill="#009af9" fill-rule="evenodd" fill-opacity="1" stroke="#000000" stroke-opacity="1" stroke-width="3.2"/>
<circle clip-path="url(#clip602)" cx="1595.43" cy="1349.74" r="3.6" fill="#009af9" fill-rule="evenodd" fill-opacity="1" stroke="#000000" stroke-opacity="1" stroke-width="3.2"/>
<circle clip-path="url(#clip602)" cx="1605.53" cy="1277.48" r="3.6" fill="#009af9" fill-rule="evenodd" fill-opacity="1" stroke="#000000" stroke-opacity="1" stroke-width="3.2"/>
<circle clip-path="url(#clip602)" cx="1615.63" cy="1299.73" r="3.6" fill="#009af9" fill-rule="evenodd" fill-opacity="1" stroke="#000000" stroke-opacity="1" stroke-width="3.2"/>
<circle clip-path="url(#clip602)" cx="1625.73" cy="1280.13" r="3.6" fill="#009af9" fill-rule="evenodd" fill-opacity="1" stroke="#000000" stroke-opacity="1" stroke-width="3.2"/>
<circle clip-path="url(#clip602)" cx="1635.82" cy="1238.49" r="3.6" fill="#009af9" fill-rule="evenodd" fill-opacity="1" stroke="#000000" stroke-opacity="1" stroke-width="3.2"/>
<circle clip-path="url(#clip602)" cx="1645.92" cy="1235.88" r="3.6" fill="#009af9" fill-rule="evenodd" fill-opacity="1" stroke="#000000" stroke-opacity="1" stroke-width="3.2"/>
<circle clip-path="url(#clip602)" cx="1656.02" cy="1186.5" r="3.6" fill="#009af9" fill-rule="evenodd" fill-opacity="1" stroke="#000000" stroke-opacity="1" stroke-width="3.2"/>
<circle clip-path="url(#clip602)" cx="1666.12" cy="1207.65" r="3.6" fill="#009af9" fill-rule="evenodd" fill-opacity="1" stroke="#000000" stroke-opacity="1" stroke-width="3.2"/>
<circle clip-path="url(#clip602)" cx="1676.21" cy="1135.43" r="3.6" fill="#009af9" fill-rule="evenodd" fill-opacity="1" stroke="#000000" stroke-opacity="1" stroke-width="3.2"/>
<circle clip-path="url(#clip602)" cx="1686.31" cy="1163.37" r="3.6" fill="#009af9" fill-rule="evenodd" fill-opacity="1" stroke="#000000" stroke-opacity="1" stroke-width="3.2"/>
<circle clip-path="url(#clip602)" cx="1696.41" cy="1191.23" r="3.6" fill="#009af9" fill-rule="evenodd" fill-opacity="1" stroke="#000000" stroke-opacity="1" stroke-width="3.2"/>
<circle clip-path="url(#clip602)" cx="1706.51" cy="1164.6" r="3.6" fill="#009af9" fill-rule="evenodd" fill-opacity="1" stroke="#000000" stroke-opacity="1" stroke-width="3.2"/>
<circle clip-path="url(#clip602)" cx="1716.6" cy="1115.94" r="3.6" fill="#009af9" fill-rule="evenodd" fill-opacity="1" stroke="#000000" stroke-opacity="1" stroke-width="3.2"/>
<circle clip-path="url(#clip602)" cx="1726.7" cy="1083.94" r="3.6" fill="#009af9" fill-rule="evenodd" fill-opacity="1" stroke="#000000" stroke-opacity="1" stroke-width="3.2"/>
<circle clip-path="url(#clip602)" cx="1736.8" cy="1052.76" r="3.6" fill="#009af9" fill-rule="evenodd" fill-opacity="1" stroke="#000000" stroke-opacity="1" stroke-width="3.2"/>
<circle clip-path="url(#clip602)" cx="1746.9" cy="1082.66" r="3.6" fill="#009af9" fill-rule="evenodd" fill-opacity="1" stroke="#000000" stroke-opacity="1" stroke-width="3.2"/>
<circle clip-path="url(#clip602)" cx="1757" cy="1041.71" r="3.6" fill="#009af9" fill-rule="evenodd" fill-opacity="1" stroke="#000000" stroke-opacity="1" stroke-width="3.2"/>
<circle clip-path="url(#clip602)" cx="1767.09" cy="1069.25" r="3.6" fill="#009af9" fill-rule="evenodd" fill-opacity="1" stroke="#000000" stroke-opacity="1" stroke-width="3.2"/>
<circle clip-path="url(#clip602)" cx="1777.19" cy="1042.22" r="3.6" fill="#009af9" fill-rule="evenodd" fill-opacity="1" stroke="#000000" stroke-opacity="1" stroke-width="3.2"/>
<circle clip-path="url(#clip602)" cx="1787.29" cy="1019.57" r="3.6" fill="#009af9" fill-rule="evenodd" fill-opacity="1" stroke="#000000" stroke-opacity="1" stroke-width="3.2"/>
<circle clip-path="url(#clip602)" cx="1797.39" cy="970.776" r="3.6" fill="#009af9" fill-rule="evenodd" fill-opacity="1" stroke="#000000" stroke-opacity="1" stroke-width="3.2"/>
<circle clip-path="url(#clip602)" cx="1807.48" cy="1002.57" r="3.6" fill="#009af9" fill-rule="evenodd" fill-opacity="1" stroke="#000000" stroke-opacity="1" stroke-width="3.2"/>
<circle clip-path="url(#clip602)" cx="1817.58" cy="1038.3" r="3.6" fill="#009af9" fill-rule="evenodd" fill-opacity="1" stroke="#000000" stroke-opacity="1" stroke-width="3.2"/>
<circle clip-path="url(#clip602)" cx="1827.68" cy="1070.77" r="3.6" fill="#009af9" fill-rule="evenodd" fill-opacity="1" stroke="#000000" stroke-opacity="1" stroke-width="3.2"/>
<circle clip-path="url(#clip602)" cx="1837.78" cy="1098.01" r="3.6" fill="#009af9" fill-rule="evenodd" fill-opacity="1" stroke="#000000" stroke-opacity="1" stroke-width="3.2"/>
<circle clip-path="url(#clip602)" cx="1847.87" cy="1066.01" r="3.6" fill="#009af9" fill-rule="evenodd" fill-opacity="1" stroke="#000000" stroke-opacity="1" stroke-width="3.2"/>
<circle clip-path="url(#clip602)" cx="1857.97" cy="1092.97" r="3.6" fill="#009af9" fill-rule="evenodd" fill-opacity="1" stroke="#000000" stroke-opacity="1" stroke-width="3.2"/>
<circle clip-path="url(#clip602)" cx="1868.07" cy="1064.02" r="3.6" fill="#009af9" fill-rule="evenodd" fill-opacity="1" stroke="#000000" stroke-opacity="1" stroke-width="3.2"/>
<circle clip-path="url(#clip602)" cx="1878.17" cy="1046.1" r="3.6" fill="#009af9" fill-rule="evenodd" fill-opacity="1" stroke="#000000" stroke-opacity="1" stroke-width="3.2"/>
<circle clip-path="url(#clip602)" cx="1888.26" cy="1005.71" r="3.6" fill="#009af9" fill-rule="evenodd" fill-opacity="1" stroke="#000000" stroke-opacity="1" stroke-width="3.2"/>
<circle clip-path="url(#clip602)" cx="1898.36" cy="988.086" r="3.6" fill="#009af9" fill-rule="evenodd" fill-opacity="1" stroke="#000000" stroke-opacity="1" stroke-width="3.2"/>
<circle clip-path="url(#clip602)" cx="1908.46" cy="958.566" r="3.6" fill="#009af9" fill-rule="evenodd" fill-opacity="1" stroke="#000000" stroke-opacity="1" stroke-width="3.2"/>
<circle clip-path="url(#clip602)" cx="1918.56" cy="982.31" r="3.6" fill="#009af9" fill-rule="evenodd" fill-opacity="1" stroke="#000000" stroke-opacity="1" stroke-width="3.2"/>
<circle clip-path="url(#clip602)" cx="1928.66" cy="978.8" r="3.6" fill="#009af9" fill-rule="evenodd" fill-opacity="1" stroke="#000000" stroke-opacity="1" stroke-width="3.2"/>
<circle clip-path="url(#clip602)" cx="1938.75" cy="1008.34" r="3.6" fill="#009af9" fill-rule="evenodd" fill-opacity="1" stroke="#000000" stroke-opacity="1" stroke-width="3.2"/>
<circle clip-path="url(#clip602)" cx="1948.85" cy="1045.57" r="3.6" fill="#009af9" fill-rule="evenodd" fill-opacity="1" stroke="#000000" stroke-opacity="1" stroke-width="3.2"/>
<circle clip-path="url(#clip602)" cx="1958.95" cy="1079.73" r="3.6" fill="#009af9" fill-rule="evenodd" fill-opacity="1" stroke="#000000" stroke-opacity="1" stroke-width="3.2"/>
<circle clip-path="url(#clip602)" cx="1969.05" cy="1033.2" r="3.6" fill="#009af9" fill-rule="evenodd" fill-opacity="1" stroke="#000000" stroke-opacity="1" stroke-width="3.2"/>
<circle clip-path="url(#clip602)" cx="1979.14" cy="1062.1" r="3.6" fill="#009af9" fill-rule="evenodd" fill-opacity="1" stroke="#000000" stroke-opacity="1" stroke-width="3.2"/>
<circle clip-path="url(#clip602)" cx="1989.24" cy="1093.65" r="3.6" fill="#009af9" fill-rule="evenodd" fill-opacity="1" stroke="#000000" stroke-opacity="1" stroke-width="3.2"/>
<circle clip-path="url(#clip602)" cx="1999.34" cy="1121.3" r="3.6" fill="#009af9" fill-rule="evenodd" fill-opacity="1" stroke="#000000" stroke-opacity="1" stroke-width="3.2"/>
<circle clip-path="url(#clip602)" cx="2009.44" cy="1149.16" r="3.6" fill="#009af9" fill-rule="evenodd" fill-opacity="1" stroke="#000000" stroke-opacity="1" stroke-width="3.2"/>
<circle clip-path="url(#clip602)" cx="2019.53" cy="1126.37" r="3.6" fill="#009af9" fill-rule="evenodd" fill-opacity="1" stroke="#000000" stroke-opacity="1" stroke-width="3.2"/>
<circle clip-path="url(#clip602)" cx="2029.63" cy="1116.74" r="3.6" fill="#009af9" fill-rule="evenodd" fill-opacity="1" stroke="#000000" stroke-opacity="1" stroke-width="3.2"/>
<circle clip-path="url(#clip602)" cx="2039.73" cy="1075.6" r="3.6" fill="#009af9" fill-rule="evenodd" fill-opacity="1" stroke="#000000" stroke-opacity="1" stroke-width="3.2"/>
<circle clip-path="url(#clip602)" cx="2049.83" cy="1098.21" r="3.6" fill="#009af9" fill-rule="evenodd" fill-opacity="1" stroke="#000000" stroke-opacity="1" stroke-width="3.2"/>
<circle clip-path="url(#clip602)" cx="2059.92" cy="1118.77" r="3.6" fill="#009af9" fill-rule="evenodd" fill-opacity="1" stroke="#000000" stroke-opacity="1" stroke-width="3.2"/>
<circle clip-path="url(#clip602)" cx="2070.02" cy="1121.6" r="3.6" fill="#009af9" fill-rule="evenodd" fill-opacity="1" stroke="#000000" stroke-opacity="1" stroke-width="3.2"/>
<circle clip-path="url(#clip602)" cx="2080.12" cy="1076.78" r="3.6" fill="#009af9" fill-rule="evenodd" fill-opacity="1" stroke="#000000" stroke-opacity="1" stroke-width="3.2"/>
<circle clip-path="url(#clip602)" cx="2090.22" cy="1064.23" r="3.6" fill="#009af9" fill-rule="evenodd" fill-opacity="1" stroke="#000000" stroke-opacity="1" stroke-width="3.2"/>
<circle clip-path="url(#clip602)" cx="2100.31" cy="1059.73" r="3.6" fill="#009af9" fill-rule="evenodd" fill-opacity="1" stroke="#000000" stroke-opacity="1" stroke-width="3.2"/>
<circle clip-path="url(#clip602)" cx="2110.41" cy="1085.85" r="3.6" fill="#009af9" fill-rule="evenodd" fill-opacity="1" stroke="#000000" stroke-opacity="1" stroke-width="3.2"/>
<circle clip-path="url(#clip602)" cx="2120.51" cy="1015.52" r="3.6" fill="#009af9" fill-rule="evenodd" fill-opacity="1" stroke="#000000" stroke-opacity="1" stroke-width="3.2"/>
<circle clip-path="url(#clip602)" cx="2130.61" cy="971.475" r="3.6" fill="#009af9" fill-rule="evenodd" fill-opacity="1" stroke="#000000" stroke-opacity="1" stroke-width="3.2"/>
<circle clip-path="url(#clip602)" cx="2140.71" cy="951.454" r="3.6" fill="#009af9" fill-rule="evenodd" fill-opacity="1" stroke="#000000" stroke-opacity="1" stroke-width="3.2"/>
<circle clip-path="url(#clip602)" cx="2150.8" cy="922.36" r="3.6" fill="#009af9" fill-rule="evenodd" fill-opacity="1" stroke="#000000" stroke-opacity="1" stroke-width="3.2"/>
<circle clip-path="url(#clip602)" cx="2160.9" cy="917.371" r="3.6" fill="#009af9" fill-rule="evenodd" fill-opacity="1" stroke="#000000" stroke-opacity="1" stroke-width="3.2"/>
<circle clip-path="url(#clip602)" cx="2171" cy="947.11" r="3.6" fill="#009af9" fill-rule="evenodd" fill-opacity="1" stroke="#000000" stroke-opacity="1" stroke-width="3.2"/>
<circle clip-path="url(#clip602)" cx="2181.1" cy="975.838" r="3.6" fill="#009af9" fill-rule="evenodd" fill-opacity="1" stroke="#000000" stroke-opacity="1" stroke-width="3.2"/>
<circle clip-path="url(#clip602)" cx="2191.19" cy="975.054" r="3.6" fill="#009af9" fill-rule="evenodd" fill-opacity="1" stroke="#000000" stroke-opacity="1" stroke-width="3.2"/>
<circle clip-path="url(#clip602)" cx="2201.29" cy="1009.95" r="3.6" fill="#009af9" fill-rule="evenodd" fill-opacity="1" stroke="#000000" stroke-opacity="1" stroke-width="3.2"/>
<circle clip-path="url(#clip602)" cx="2211.39" cy="969.951" r="3.6" fill="#009af9" fill-rule="evenodd" fill-opacity="1" stroke="#000000" stroke-opacity="1" stroke-width="3.2"/>
<circle clip-path="url(#clip602)" cx="2221.49" cy="921.83" r="3.6" fill="#009af9" fill-rule="evenodd" fill-opacity="1" stroke="#000000" stroke-opacity="1" stroke-width="3.2"/>
<circle clip-path="url(#clip602)" cx="2231.58" cy="956.37" r="3.6" fill="#009af9" fill-rule="evenodd" fill-opacity="1" stroke="#000000" stroke-opacity="1" stroke-width="3.2"/>
<circle clip-path="url(#clip602)" cx="2241.68" cy="937.218" r="3.6" fill="#009af9" fill-rule="evenodd" fill-opacity="1" stroke="#000000" stroke-opacity="1" stroke-width="3.2"/>
<circle clip-path="url(#clip602)" cx="2251.78" cy="970.973" r="3.6" fill="#009af9" fill-rule="evenodd" fill-opacity="1" stroke="#000000" stroke-opacity="1" stroke-width="3.2"/>
<circle clip-path="url(#clip602)" cx="2261.88" cy="1006.53" r="3.6" fill="#009af9" fill-rule="evenodd" fill-opacity="1" stroke="#000000" stroke-opacity="1" stroke-width="3.2"/>
<circle clip-path="url(#clip602)" cx="2271.97" cy="1034.98" r="3.6" fill="#009af9" fill-rule="evenodd" fill-opacity="1" stroke="#000000" stroke-opacity="1" stroke-width="3.2"/>
<circle clip-path="url(#clip602)" cx="2282.07" cy="1067.04" r="3.6" fill="#009af9" fill-rule="evenodd" fill-opacity="1" stroke="#000000" stroke-opacity="1" stroke-width="3.2"/>
<circle clip-path="url(#clip602)" cx="2292.17" cy="1094.93" r="3.6" fill="#009af9" fill-rule="evenodd" fill-opacity="1" stroke="#000000" stroke-opacity="1" stroke-width="3.2"/>
<circle clip-path="url(#clip602)" cx="2302.27" cy="1126.11" r="3.6" fill="#009af9" fill-rule="evenodd" fill-opacity="1" stroke="#000000" stroke-opacity="1" stroke-width="3.2"/>
<circle clip-path="url(#clip602)" cx="2312.37" cy="1100.82" r="3.6" fill="#009af9" fill-rule="evenodd" fill-opacity="1" stroke="#000000" stroke-opacity="1" stroke-width="3.2"/>
<circle clip-path="url(#clip602)" cx="2322.46" cy="1126.42" r="3.6" fill="#009af9" fill-rule="evenodd" fill-opacity="1" stroke="#000000" stroke-opacity="1" stroke-width="3.2"/>
<circle clip-path="url(#clip602)" cx="2332.56" cy="1160.7" r="3.6" fill="#009af9" fill-rule="evenodd" fill-opacity="1" stroke="#000000" stroke-opacity="1" stroke-width="3.2"/>
<circle clip-path="url(#clip602)" cx="2342.66" cy="1185.9" r="3.6" fill="#009af9" fill-rule="evenodd" fill-opacity="1" stroke="#000000" stroke-opacity="1" stroke-width="3.2"/>
<path clip-path="url(#clip600)" d="M1902.17 323.941 L2285.1 323.941 L2285.1 90.6606 L1902.17 90.6606  Z" fill="#ffffff" fill-rule="evenodd" fill-opacity="1"/>
<polyline clip-path="url(#clip600)" style="stroke:#000000; stroke-linecap:round; stroke-linejoin:round; stroke-width:4; stroke-opacity:1; fill:none" points="1902.17,323.941 2285.1,323.941 2285.1,90.6606 1902.17,90.6606 1902.17,323.941 "/>
<polyline clip-path="url(#clip600)" style="stroke:#009af9; stroke-linecap:round; stroke-linejoin:round; stroke-width:18; stroke-opacity:1; fill:none" points="1924.72,207.301 2060.03,207.301 "/>
<circle clip-path="url(#clip600)" cx="1992.37" cy="207.301" r="8.35237" fill="#009af9" fill-rule="evenodd" fill-opacity="1" stroke="#000000" stroke-opacity="1" stroke-width="7.42433"/>
<path clip-path="url(#clip600)" d="M2082.58 246.181 L2082.58 168.421 L2111.91 168.421 Q2119.65 168.421 2123.74 169.163 Q2129.47 170.118 2133.34 172.823 Q2137.21 175.475 2139.55 180.302 Q2141.93 185.129 2141.93 190.911 Q2141.93 200.829 2135.62 207.725 Q2129.31 214.567 2112.81 214.567 L2092.87 214.567 L2092.87 246.181 L2082.58 246.181 M2092.87 205.391 L2112.97 205.391 Q2122.94 205.391 2127.13 201.678 Q2131.32 197.965 2131.32 191.229 Q2131.32 186.349 2128.83 182.901 Q2126.39 179.4 2122.36 178.286 Q2119.76 177.597 2112.76 177.597 L2092.87 177.597 L2092.87 205.391 Z" fill="#000000" fill-rule="nonzero" fill-opacity="1" /><path clip-path="url(#clip600)" d="M2201.34 237.004 L2201.34 246.181 L2149.94 246.181 Q2149.84 242.733 2151.06 239.55 Q2153.02 234.299 2157.31 229.207 Q2161.66 224.115 2169.83 217.432 Q2182.51 207.035 2186.97 200.989 Q2191.42 194.889 2191.42 189.478 Q2191.42 183.803 2187.34 179.931 Q2183.31 176.006 2176.78 176.006 Q2169.89 176.006 2165.75 180.143 Q2161.61 184.28 2161.56 191.6 L2151.75 190.592 Q2152.75 179.613 2159.33 173.884 Q2165.91 168.102 2176.99 168.102 Q2188.19 168.102 2194.71 174.308 Q2201.23 180.514 2201.23 189.691 Q2201.23 194.358 2199.32 198.867 Q2197.41 203.375 2192.96 208.361 Q2188.56 213.347 2178.27 222.046 Q2169.67 229.26 2167.23 231.859 Q2164.79 234.405 2163.2 237.004 L2201.34 237.004 Z" fill="#000000" fill-rule="nonzero" fill-opacity="1" /><path clip-path="url(#clip600)" d="M2211.63 225.653 L2221.18 224.38 Q2222.82 232.496 2226.75 236.103 Q2230.72 239.656 2236.4 239.656 Q2243.14 239.656 2247.75 234.989 Q2252.42 230.321 2252.42 223.425 Q2252.42 216.848 2248.12 212.605 Q2243.83 208.308 2237.2 208.308 Q2234.49 208.308 2230.46 209.369 L2231.52 200.989 Q2232.48 201.095 2233.06 201.095 Q2239.16 201.095 2244.04 197.912 Q2248.92 194.73 2248.92 188.099 Q2248.92 182.848 2245.36 179.4 Q2241.81 175.953 2236.19 175.953 Q2230.62 175.953 2226.91 179.453 Q2223.19 182.954 2222.13 189.956 L2212.58 188.258 Q2214.33 178.658 2220.54 173.407 Q2226.75 168.102 2235.98 168.102 Q2242.34 168.102 2247.7 170.861 Q2253.06 173.566 2255.87 178.286 Q2258.73 183.007 2258.73 188.311 Q2258.73 193.35 2256.03 197.488 Q2253.32 201.625 2248.02 204.065 Q2254.91 205.656 2258.73 210.695 Q2262.55 215.681 2262.55 223.213 Q2262.55 233.397 2255.12 240.505 Q2247.7 247.56 2236.35 247.56 Q2226.11 247.56 2219.32 241.46 Q2212.58 235.36 2211.63 225.653 Z" fill="#000000" fill-rule="nonzero" fill-opacity="1" /></svg>
