<?xml version="1.0" encoding="utf-8"?>
<svg xmlns="http://www.w3.org/2000/svg" xmlns:xlink="http://www.w3.org/1999/xlink" width="600" height="400" viewBox="0 0 2400 1600">
<defs>
  <clipPath id="clip910">
    <rect x="0" y="0" width="2400" height="1600"/>
  </clipPath>
</defs>
<path clip-path="url(#clip910)" d="M0 1600 L2400 1600 L2400 8.88178e-14 L0 8.88178e-14  Z" fill="#ffffff" fill-rule="evenodd" fill-opacity="1"/>
<defs>
  <clipPath id="clip911">
    <rect x="480" y="0" width="1681" height="1600"/>
  </clipPath>
</defs>
<path clip-path="url(#clip910)" d="M323.131 1349.74 L2352.76 1349.74 L2352.76 47.2441 L323.131 47.2441  Z" fill="#ffffff" fill-rule="evenodd" fill-opacity="1"/>
<defs>
  <clipPath id="clip912">
    <rect x="323" y="47" width="2031" height="1303"/>
  </clipPath>
</defs>
<polyline clip-path="url(#clip910)" style="stroke:#000000; stroke-linecap:round; stroke-linejoin:round; stroke-width:4; stroke-opacity:1; fill:none" points="323.131,1349.74 2352.76,1349.74 "/>
<polyline clip-path="url(#clip910)" style="stroke:#000000; stroke-linecap:round; stroke-linejoin:round; stroke-width:2; stroke-opacity:0.5; fill:none" points="323.131,47.2441 2352.76,47.2441 "/>
<polyline clip-path="url(#clip910)" style="stroke:#000000; stroke-linecap:round; stroke-linejoin:round; stroke-width:4; stroke-opacity:1; fill:none" points="589.905,1349.74 589.905,1330.84 "/>
<polyline clip-path="url(#clip910)" style="stroke:#000000; stroke-linecap:round; stroke-linejoin:round; stroke-width:4; stroke-opacity:1; fill:none" points="858.019,1349.74 858.019,1330.84 "/>
<polyline clip-path="url(#clip910)" style="stroke:#000000; stroke-linecap:round; stroke-linejoin:round; stroke-width:4; stroke-opacity:1; fill:none" points="1126.13,1349.74 1126.13,1330.84 "/>
<polyline clip-path="url(#clip910)" style="stroke:#000000; stroke-linecap:round; stroke-linejoin:round; stroke-width:4; stroke-opacity:1; fill:none" points="1394.25,1349.74 1394.25,1330.84 "/>
<polyline clip-path="url(#clip910)" style="stroke:#000000; stroke-linecap:round; stroke-linejoin:round; stroke-width:4; stroke-opacity:1; fill:none" points="1662.36,1349.74 1662.36,1330.84 "/>
<polyline clip-path="url(#clip910)" style="stroke:#000000; stroke-linecap:round; stroke-linejoin:round; stroke-width:4; stroke-opacity:1; fill:none" points="1930.48,1349.74 1930.48,1330.84 "/>
<polyline clip-path="url(#clip910)" style="stroke:#000000; stroke-linecap:round; stroke-linejoin:round; stroke-width:4; stroke-opacity:1; fill:none" points="2198.59,1349.74 2198.59,1330.84 "/>
<path clip-path="url(#clip910)" d="M554.976 1456.96 L554.976 1466.14 L503.578 1466.14 Q503.472 1462.69 504.692 1459.51 Q506.655 1454.26 510.951 1449.17 Q515.301 1444.07 523.469 1437.39 Q536.146 1426.99 540.602 1420.95 Q545.057 1414.85 545.057 1409.44 Q545.057 1403.76 540.973 1399.89 Q536.942 1395.96 530.418 1395.96 Q523.522 1395.96 519.385 1400.1 Q515.248 1404.24 515.195 1411.56 L505.382 1410.55 Q506.389 1399.57 512.967 1393.84 Q519.544 1388.06 530.63 1388.06 Q541.822 1388.06 548.346 1394.27 Q554.87 1400.47 554.87 1409.65 Q554.87 1414.32 552.961 1418.83 Q551.051 1423.33 546.596 1428.32 Q542.193 1433.31 531.903 1442.01 Q523.31 1449.22 520.87 1451.82 Q518.43 1454.36 516.839 1456.96 L554.976 1456.96 Z" fill="#000000" fill-rule="nonzero" fill-opacity="1" /><path clip-path="url(#clip910)" d="M565.213 1427.79 Q565.213 1414 568.025 1405.62 Q570.889 1397.18 576.458 1392.62 Q582.081 1388.06 590.568 1388.06 Q596.827 1388.06 601.547 1390.61 Q606.268 1393.1 609.345 1397.87 Q612.421 1402.6 614.171 1409.44 Q615.922 1416.23 615.922 1427.79 Q615.922 1441.48 613.111 1449.91 Q610.299 1458.29 604.677 1462.9 Q599.107 1467.47 590.568 1467.47 Q579.323 1467.47 572.905 1459.4 Q565.213 1449.7 565.213 1427.79 M575.026 1427.79 Q575.026 1446.94 579.482 1453.3 Q583.99 1459.62 590.568 1459.62 Q597.145 1459.62 601.6 1453.25 Q606.109 1446.89 606.109 1427.79 Q606.109 1408.59 601.6 1402.28 Q597.145 1395.96 590.462 1395.96 Q583.884 1395.96 579.959 1401.53 Q575.026 1408.64 575.026 1427.79 Z" fill="#000000" fill-rule="nonzero" fill-opacity="1" /><path clip-path="url(#clip910)" d="M625.629 1427.79 Q625.629 1414 628.44 1405.62 Q631.304 1397.18 636.874 1392.62 Q642.496 1388.06 650.983 1388.06 Q657.242 1388.06 661.963 1390.61 Q666.683 1393.1 669.76 1397.87 Q672.836 1402.6 674.587 1409.44 Q676.337 1416.23 676.337 1427.79 Q676.337 1441.48 673.526 1449.91 Q670.715 1458.29 665.092 1462.9 Q659.523 1467.47 650.983 1467.47 Q639.738 1467.47 633.32 1459.4 Q625.629 1449.7 625.629 1427.79 M635.441 1427.79 Q635.441 1446.94 639.897 1453.3 Q644.406 1459.62 650.983 1459.62 Q657.56 1459.62 662.016 1453.25 Q666.524 1446.89 666.524 1427.79 Q666.524 1408.59 662.016 1402.28 Q657.56 1395.96 650.877 1395.96 Q644.299 1395.96 640.374 1401.53 Q635.441 1408.64 635.441 1427.79 Z" fill="#000000" fill-rule="nonzero" fill-opacity="1" /><path clip-path="url(#clip910)" d="M804.42 1466.14 L804.42 1447.52 L770.685 1447.52 L770.685 1438.77 L806.17 1388.38 L813.967 1388.38 L813.967 1438.77 L824.47 1438.77 L824.47 1447.52 L813.967 1447.52 L813.967 1466.14 L804.42 1466.14 M804.42 1438.77 L804.42 1403.71 L780.073 1438.77 L804.42 1438.77 Z" fill="#000000" fill-rule="nonzero" fill-opacity="1" /><path clip-path="url(#clip910)" d="M834.229 1427.79 Q834.229 1414 837.041 1405.62 Q839.905 1397.18 845.474 1392.62 Q851.097 1388.06 859.584 1388.06 Q865.843 1388.06 870.563 1390.61 Q875.284 1393.1 878.361 1397.87 Q881.437 1402.6 883.187 1409.44 Q884.938 1416.23 884.938 1427.79 Q884.938 1441.48 882.127 1449.91 Q879.315 1458.29 873.693 1462.9 Q868.123 1467.47 859.584 1467.47 Q848.339 1467.47 841.921 1459.4 Q834.229 1449.7 834.229 1427.79 M844.042 1427.79 Q844.042 1446.94 848.498 1453.3 Q853.006 1459.62 859.584 1459.62 Q866.161 1459.62 870.616 1453.25 Q875.125 1446.89 875.125 1427.79 Q875.125 1408.59 870.616 1402.28 Q866.161 1395.96 859.478 1395.96 Q852.9 1395.96 848.975 1401.53 Q844.042 1408.64 844.042 1427.79 Z" fill="#000000" fill-rule="nonzero" fill-opacity="1" /><path clip-path="url(#clip910)" d="M894.645 1427.79 Q894.645 1414 897.456 1405.62 Q900.32 1397.18 905.89 1392.62 Q911.512 1388.06 919.999 1388.06 Q926.258 1388.06 930.979 1390.61 Q935.699 1393.1 938.776 1397.87 Q941.852 1402.6 943.603 1409.44 Q945.353 1416.23 945.353 1427.79 Q945.353 1441.48 942.542 1449.91 Q939.731 1458.29 934.108 1462.9 Q928.539 1467.47 919.999 1467.47 Q908.754 1467.47 902.336 1459.4 Q894.645 1449.7 894.645 1427.79 M904.457 1427.79 Q904.457 1446.94 908.913 1453.3 Q913.422 1459.62 919.999 1459.62 Q926.576 1459.62 931.032 1453.25 Q935.54 1446.89 935.54 1427.79 Q935.54 1408.59 931.032 1402.28 Q926.576 1395.96 919.893 1395.96 Q913.315 1395.96 909.39 1401.53 Q904.457 1408.64 904.457 1427.79 Z" fill="#000000" fill-rule="nonzero" fill-opacity="1" /><path clip-path="url(#clip910)" d="M1090.12 1407.42 L1080.62 1408.16 Q1079.35 1402.54 1077.02 1400 Q1073.14 1395.91 1067.47 1395.91 Q1062.91 1395.91 1059.46 1398.46 Q1054.95 1401.75 1052.35 1408.06 Q1049.75 1414.37 1049.65 1426.04 Q1053.09 1420.79 1058.08 1418.24 Q1063.07 1415.7 1068.53 1415.7 Q1078.08 1415.7 1084.76 1422.75 Q1091.5 1429.75 1091.5 1440.89 Q1091.5 1448.21 1088.31 1454.52 Q1085.18 1460.78 1079.67 1464.12 Q1074.15 1467.47 1067.15 1467.47 Q1055.22 1467.47 1047.68 1458.71 Q1040.15 1449.91 1040.15 1429.75 Q1040.15 1407.21 1048.48 1396.97 Q1055.75 1388.06 1068.05 1388.06 Q1077.23 1388.06 1083.06 1393.21 Q1088.95 1398.35 1090.12 1407.42 M1051.13 1440.94 Q1051.13 1445.88 1053.2 1450.39 Q1055.32 1454.89 1059.09 1457.28 Q1062.85 1459.62 1066.99 1459.62 Q1073.04 1459.62 1077.39 1454.74 Q1081.74 1449.86 1081.74 1441.48 Q1081.74 1433.41 1077.44 1428.8 Q1073.14 1424.13 1066.62 1424.13 Q1060.15 1424.13 1055.64 1428.8 Q1051.13 1433.41 1051.13 1440.94 Z" fill="#000000" fill-rule="nonzero" fill-opacity="1" /><path clip-path="url(#clip910)" d="M1100.99 1427.79 Q1100.99 1414 1103.8 1405.62 Q1106.67 1397.18 1112.24 1392.62 Q1117.86 1388.06 1126.35 1388.06 Q1132.6 1388.06 1137.33 1390.61 Q1142.05 1393.1 1145.12 1397.87 Q1148.2 1402.6 1149.95 1409.44 Q1151.7 1416.23 1151.7 1427.79 Q1151.7 1441.48 1148.89 1449.91 Q1146.08 1458.29 1140.45 1462.9 Q1134.89 1467.47 1126.35 1467.47 Q1115.1 1467.47 1108.68 1459.4 Q1100.99 1449.7 1100.99 1427.79 M1110.8 1427.79 Q1110.8 1446.94 1115.26 1453.3 Q1119.77 1459.62 1126.35 1459.62 Q1132.92 1459.62 1137.38 1453.25 Q1141.89 1446.89 1141.89 1427.79 Q1141.89 1408.59 1137.38 1402.28 Q1132.92 1395.96 1126.24 1395.96 Q1119.66 1395.96 1115.74 1401.53 Q1110.8 1408.64 1110.8 1427.79 Z" fill="#000000" fill-rule="nonzero" fill-opacity="1" /><path clip-path="url(#clip910)" d="M1161.41 1427.79 Q1161.41 1414 1164.22 1405.62 Q1167.08 1397.18 1172.65 1392.62 Q1178.27 1388.06 1186.76 1388.06 Q1193.02 1388.06 1197.74 1390.61 Q1202.46 1393.1 1205.54 1397.87 Q1208.61 1402.6 1210.36 1409.44 Q1212.11 1416.23 1212.11 1427.79 Q1212.11 1441.48 1209.3 1449.91 Q1206.49 1458.29 1200.87 1462.9 Q1195.3 1467.47 1186.76 1467.47 Q1175.52 1467.47 1169.1 1459.4 Q1161.41 1449.7 1161.41 1427.79 M1171.22 1427.79 Q1171.22 1446.94 1175.67 1453.3 Q1180.18 1459.62 1186.76 1459.62 Q1193.34 1459.62 1197.79 1453.25 Q1202.3 1446.89 1202.3 1427.79 Q1202.3 1408.59 1197.79 1402.28 Q1193.34 1395.96 1186.65 1395.96 Q1180.08 1395.96 1176.15 1401.53 Q1171.22 1408.64 1171.22 1427.79 Z" fill="#000000" fill-rule="nonzero" fill-opacity="1" /><path clip-path="url(#clip910)" d="M1323.22 1423.97 Q1317.28 1421.8 1314.42 1417.77 Q1311.55 1413.73 1311.55 1408.11 Q1311.55 1399.62 1317.65 1393.84 Q1323.75 1388.06 1333.89 1388.06 Q1344.07 1388.06 1350.28 1394 Q1356.48 1399.89 1356.48 1408.38 Q1356.48 1413.79 1353.62 1417.82 Q1350.81 1421.8 1345.02 1423.97 Q1352.18 1426.31 1355.9 1431.5 Q1359.66 1436.7 1359.66 1443.92 Q1359.66 1453.89 1352.61 1460.68 Q1345.55 1467.47 1334.04 1467.47 Q1322.53 1467.47 1315.48 1460.68 Q1308.42 1453.83 1308.42 1443.65 Q1308.42 1436.06 1312.24 1430.97 Q1316.12 1425.83 1323.22 1423.97 M1321.31 1407.79 Q1321.31 1413.31 1324.87 1416.81 Q1328.42 1420.31 1334.1 1420.31 Q1339.61 1420.31 1343.11 1416.86 Q1346.67 1413.36 1346.67 1408.32 Q1346.67 1403.07 1343.01 1399.52 Q1339.4 1395.91 1333.99 1395.91 Q1328.53 1395.91 1324.92 1399.41 Q1321.31 1402.91 1321.31 1407.79 M1318.24 1443.7 Q1318.24 1447.79 1320.15 1451.61 Q1322.11 1455.43 1325.93 1457.55 Q1329.75 1459.62 1334.15 1459.62 Q1340.99 1459.62 1345.45 1455.21 Q1349.9 1450.81 1349.9 1444.02 Q1349.9 1437.13 1345.29 1432.62 Q1340.73 1428.11 1333.83 1428.11 Q1327.1 1428.11 1322.64 1432.56 Q1318.24 1437.02 1318.24 1443.7 Z" fill="#000000" fill-rule="nonzero" fill-opacity="1" /><path clip-path="url(#clip910)" d="M1368.95 1427.79 Q1368.95 1414 1371.76 1405.62 Q1374.62 1397.18 1380.19 1392.62 Q1385.81 1388.06 1394.3 1388.06 Q1400.56 1388.06 1405.28 1390.61 Q1410 1393.1 1413.08 1397.87 Q1416.15 1402.6 1417.9 1409.44 Q1419.65 1416.23 1419.65 1427.79 Q1419.65 1441.48 1416.84 1449.91 Q1414.03 1458.29 1408.41 1462.9 Q1402.84 1467.47 1394.3 1467.47 Q1383.06 1467.47 1376.64 1459.4 Q1368.95 1449.7 1368.95 1427.79 M1378.76 1427.79 Q1378.76 1446.94 1383.21 1453.3 Q1387.72 1459.62 1394.3 1459.62 Q1400.88 1459.62 1405.33 1453.25 Q1409.84 1446.89 1409.84 1427.79 Q1409.84 1408.59 1405.33 1402.28 Q1400.88 1395.96 1394.19 1395.96 Q1387.62 1395.96 1383.69 1401.53 Q1378.76 1408.64 1378.76 1427.79 Z" fill="#000000" fill-rule="nonzero" fill-opacity="1" /><path clip-path="url(#clip910)" d="M1429.36 1427.79 Q1429.36 1414 1432.17 1405.62 Q1435.04 1397.18 1440.61 1392.62 Q1446.23 1388.06 1454.72 1388.06 Q1460.97 1388.06 1465.7 1390.61 Q1470.42 1393.1 1473.49 1397.87 Q1476.57 1402.6 1478.32 1409.44 Q1480.07 1416.23 1480.07 1427.79 Q1480.07 1441.48 1477.26 1449.91 Q1474.45 1458.29 1468.82 1462.9 Q1463.26 1467.47 1454.72 1467.47 Q1443.47 1467.47 1437.05 1459.4 Q1429.36 1449.7 1429.36 1427.79 M1439.17 1427.79 Q1439.17 1446.94 1443.63 1453.3 Q1448.14 1459.62 1454.72 1459.62 Q1461.29 1459.62 1465.75 1453.25 Q1470.26 1446.89 1470.26 1427.79 Q1470.26 1408.59 1465.75 1402.28 Q1461.29 1395.96 1454.61 1395.96 Q1448.03 1395.96 1444.11 1401.53 Q1439.17 1408.64 1439.17 1427.79 Z" fill="#000000" fill-rule="nonzero" fill-opacity="1" /><path clip-path="url(#clip910)" d="M1578.69 1466.14 L1569.14 1466.14 L1569.14 1405.3 Q1565.69 1408.59 1560.07 1411.88 Q1554.5 1415.17 1550.04 1416.81 L1550.04 1407.58 Q1558.05 1403.82 1564.05 1398.46 Q1570.04 1393.1 1572.53 1388.06 L1578.69 1388.06 L1578.69 1466.14 Z" fill="#000000" fill-rule="nonzero" fill-opacity="1" /><path clip-path="url(#clip910)" d="M1603.14 1427.79 Q1603.14 1414 1605.95 1405.62 Q1608.82 1397.18 1614.38 1392.62 Q1620.01 1388.06 1628.49 1388.06 Q1634.75 1388.06 1639.47 1390.61 Q1644.19 1393.1 1647.27 1397.87 Q1650.35 1402.6 1652.1 1409.44 Q1653.85 1416.23 1653.85 1427.79 Q1653.85 1441.48 1651.04 1449.91 Q1648.23 1458.29 1642.6 1462.9 Q1637.03 1467.47 1628.49 1467.47 Q1617.25 1467.47 1610.83 1459.4 Q1603.14 1449.7 1603.14 1427.79 M1612.95 1427.79 Q1612.95 1446.94 1617.41 1453.3 Q1621.92 1459.62 1628.49 1459.62 Q1635.07 1459.62 1639.53 1453.25 Q1644.04 1446.89 1644.04 1427.79 Q1644.04 1408.59 1639.53 1402.28 Q1635.07 1395.96 1628.39 1395.96 Q1621.81 1395.96 1617.89 1401.53 Q1612.95 1408.64 1612.95 1427.79 Z" fill="#000000" fill-rule="nonzero" fill-opacity="1" /><path clip-path="url(#clip910)" d="M1663.56 1427.79 Q1663.56 1414 1666.37 1405.62 Q1669.23 1397.18 1674.8 1392.62 Q1680.42 1388.06 1688.91 1388.06 Q1695.17 1388.06 1699.89 1390.61 Q1704.61 1393.1 1707.69 1397.87 Q1710.76 1402.6 1712.51 1409.44 Q1714.26 1416.23 1714.26 1427.79 Q1714.26 1441.48 1711.45 1449.91 Q1708.64 1458.29 1703.02 1462.9 Q1697.45 1467.47 1688.91 1467.47 Q1677.66 1467.47 1671.25 1459.4 Q1663.56 1449.7 1663.56 1427.79 M1673.37 1427.79 Q1673.37 1446.94 1677.82 1453.3 Q1682.33 1459.62 1688.91 1459.62 Q1695.49 1459.62 1699.94 1453.25 Q1704.45 1446.89 1704.45 1427.79 Q1704.45 1408.59 1699.94 1402.28 Q1695.49 1395.96 1688.8 1395.96 Q1682.23 1395.96 1678.3 1401.53 Q1673.37 1408.64 1673.37 1427.79 Z" fill="#000000" fill-rule="nonzero" fill-opacity="1" /><path clip-path="url(#clip910)" d="M1723.97 1427.79 Q1723.97 1414 1726.78 1405.62 Q1729.65 1397.18 1735.22 1392.62 Q1740.84 1388.06 1749.32 1388.06 Q1755.58 1388.06 1760.3 1390.61 Q1765.03 1393.1 1768.1 1397.87 Q1771.18 1402.6 1772.93 1409.44 Q1774.68 1416.23 1774.68 1427.79 Q1774.68 1441.48 1771.87 1449.91 Q1769.06 1458.29 1763.43 1462.9 Q1757.86 1467.47 1749.32 1467.47 Q1738.08 1467.47 1731.66 1459.4 Q1723.97 1449.7 1723.97 1427.79 M1733.78 1427.79 Q1733.78 1446.94 1738.24 1453.3 Q1742.75 1459.62 1749.32 1459.62 Q1755.9 1459.62 1760.36 1453.25 Q1764.87 1446.89 1764.87 1427.79 Q1764.87 1408.59 1760.36 1402.28 Q1755.9 1395.96 1749.22 1395.96 Q1742.64 1395.96 1738.72 1401.53 Q1733.78 1408.64 1733.78 1427.79 Z" fill="#000000" fill-rule="nonzero" fill-opacity="1" /><path clip-path="url(#clip910)" d="M1846.8 1466.14 L1837.25 1466.14 L1837.25 1405.3 Q1833.81 1408.59 1828.18 1411.88 Q1822.61 1415.17 1818.16 1416.81 L1818.16 1407.58 Q1826.17 1403.82 1832.16 1398.46 Q1838.16 1393.1 1840.65 1388.06 L1846.8 1388.06 L1846.8 1466.14 Z" fill="#000000" fill-rule="nonzero" fill-opacity="1" /><path clip-path="url(#clip910)" d="M1921.43 1456.96 L1921.43 1466.14 L1870.03 1466.14 Q1869.93 1462.69 1871.15 1459.51 Q1873.11 1454.26 1877.41 1449.17 Q1881.76 1444.07 1889.93 1437.39 Q1902.6 1426.99 1907.06 1420.95 Q1911.51 1414.85 1911.51 1409.44 Q1911.51 1403.76 1907.43 1399.89 Q1903.4 1395.96 1896.87 1395.96 Q1889.98 1395.96 1885.84 1400.1 Q1881.7 1404.24 1881.65 1411.56 L1871.84 1410.55 Q1872.85 1399.57 1879.42 1393.84 Q1886 1388.06 1897.09 1388.06 Q1908.28 1388.06 1914.8 1394.27 Q1921.33 1400.47 1921.33 1409.65 Q1921.33 1414.32 1919.42 1418.83 Q1917.51 1423.33 1913.05 1428.32 Q1908.65 1433.31 1898.36 1442.01 Q1889.77 1449.22 1887.33 1451.82 Q1884.89 1454.36 1883.29 1456.96 L1921.43 1456.96 Z" fill="#000000" fill-rule="nonzero" fill-opacity="1" /><path clip-path="url(#clip910)" d="M1931.67 1427.79 Q1931.67 1414 1934.48 1405.62 Q1937.34 1397.18 1942.91 1392.62 Q1948.54 1388.06 1957.02 1388.06 Q1963.28 1388.06 1968 1390.61 Q1972.72 1393.1 1975.8 1397.87 Q1978.88 1402.6 1980.63 1409.44 Q1982.38 1416.23 1982.38 1427.79 Q1982.38 1441.48 1979.57 1449.91 Q1976.76 1458.29 1971.13 1462.9 Q1965.56 1467.47 1957.02 1467.47 Q1945.78 1467.47 1939.36 1459.4 Q1931.67 1449.7 1931.67 1427.79 M1941.48 1427.79 Q1941.48 1446.94 1945.94 1453.3 Q1950.45 1459.62 1957.02 1459.62 Q1963.6 1459.62 1968.06 1453.25 Q1972.56 1446.89 1972.56 1427.79 Q1972.56 1408.59 1968.06 1402.28 Q1963.6 1395.96 1956.92 1395.96 Q1950.34 1395.96 1946.42 1401.53 Q1941.48 1408.64 1941.48 1427.79 Z" fill="#000000" fill-rule="nonzero" fill-opacity="1" /><path clip-path="url(#clip910)" d="M1992.08 1427.79 Q1992.08 1414 1994.9 1405.62 Q1997.76 1397.18 2003.33 1392.62 Q2008.95 1388.06 2017.44 1388.06 Q2023.7 1388.06 2028.42 1390.61 Q2033.14 1393.1 2036.22 1397.87 Q2039.29 1402.6 2041.04 1409.44 Q2042.79 1416.23 2042.79 1427.79 Q2042.79 1441.48 2039.98 1449.91 Q2037.17 1458.29 2031.55 1462.9 Q2025.98 1467.47 2017.44 1467.47 Q2006.19 1467.47 1999.78 1459.4 Q1992.08 1449.7 1992.08 1427.79 M2001.9 1427.79 Q2001.9 1446.94 2006.35 1453.3 Q2010.86 1459.62 2017.44 1459.62 Q2024.02 1459.62 2028.47 1453.25 Q2032.98 1446.89 2032.98 1427.79 Q2032.98 1408.59 2028.47 1402.28 Q2024.02 1395.96 2017.33 1395.96 Q2010.76 1395.96 2006.83 1401.53 Q2001.9 1408.64 2001.9 1427.79 Z" fill="#000000" fill-rule="nonzero" fill-opacity="1" /><path clip-path="url(#clip910)" d="M2114.92 1466.14 L2105.37 1466.14 L2105.37 1405.3 Q2101.92 1408.59 2096.3 1411.88 Q2090.73 1415.17 2086.27 1416.81 L2086.27 1407.58 Q2094.28 1403.82 2100.28 1398.46 Q2106.27 1393.1 2108.76 1388.06 L2114.92 1388.06 L2114.92 1466.14 Z" fill="#000000" fill-rule="nonzero" fill-opacity="1" /><path clip-path="url(#clip910)" d="M2169.97 1466.14 L2169.97 1447.52 L2136.24 1447.52 L2136.24 1438.77 L2171.72 1388.38 L2179.52 1388.38 L2179.52 1438.77 L2190.02 1438.77 L2190.02 1447.52 L2179.52 1447.52 L2179.52 1466.14 L2169.97 1466.14 M2169.97 1438.77 L2169.97 1403.71 L2145.63 1438.77 L2169.97 1438.77 Z" fill="#000000" fill-rule="nonzero" fill-opacity="1" /><path clip-path="url(#clip910)" d="M2199.78 1427.79 Q2199.78 1414 2202.59 1405.62 Q2205.46 1397.18 2211.03 1392.62 Q2216.65 1388.06 2225.14 1388.06 Q2231.4 1388.06 2236.12 1390.61 Q2240.84 1393.1 2243.91 1397.87 Q2246.99 1402.6 2248.74 1409.44 Q2250.49 1416.23 2250.49 1427.79 Q2250.49 1441.48 2247.68 1449.91 Q2244.87 1458.29 2239.25 1462.9 Q2233.68 1467.47 2225.14 1467.47 Q2213.89 1467.47 2207.47 1459.4 Q2199.78 1449.7 2199.78 1427.79 M2209.6 1427.79 Q2209.6 1446.94 2214.05 1453.3 Q2218.56 1459.62 2225.14 1459.62 Q2231.72 1459.62 2236.17 1453.25 Q2240.68 1446.89 2240.68 1427.79 Q2240.68 1408.59 2236.17 1402.28 Q2231.72 1395.96 2225.03 1395.96 Q2218.45 1395.96 2214.53 1401.53 Q2209.6 1408.64 2209.6 1427.79 Z" fill="#000000" fill-rule="nonzero" fill-opacity="1" /><path clip-path="url(#clip910)" d="M2260.2 1427.79 Q2260.2 1414 2263.01 1405.62 Q2265.87 1397.18 2271.44 1392.62 Q2277.07 1388.06 2285.55 1388.06 Q2291.81 1388.06 2296.53 1390.61 Q2301.25 1393.1 2304.33 1397.87 Q2307.41 1402.6 2309.16 1409.44 Q2310.91 1416.23 2310.91 1427.79 Q2310.91 1441.48 2308.1 1449.91 Q2305.28 1458.29 2299.66 1462.9 Q2294.09 1467.47 2285.55 1467.47 Q2274.31 1467.47 2267.89 1459.4 Q2260.2 1449.7 2260.2 1427.79 M2270.01 1427.79 Q2270.01 1446.94 2274.47 1453.3 Q2278.98 1459.62 2285.55 1459.62 Q2292.13 1459.62 2296.59 1453.25 Q2301.09 1446.89 2301.09 1427.79 Q2301.09 1408.59 2296.59 1402.28 Q2292.13 1395.96 2285.45 1395.96 Q2278.87 1395.96 2274.94 1401.53 Q2270.01 1408.64 2270.01 1427.79 Z" fill="#000000" fill-rule="nonzero" fill-opacity="1" /><path clip-path="url(#clip910)" d="M1237.38 1577.55 L1247.24 1578.77 Q1244.91 1587.42 1238.6 1592.19 Q1232.28 1596.96 1222.47 1596.96 Q1210.11 1596.96 1202.84 1589.38 Q1195.63 1581.74 1195.63 1568 Q1195.63 1553.79 1202.95 1545.94 Q1210.27 1538.09 1221.94 1538.09 Q1233.24 1538.09 1240.4 1545.78 Q1247.56 1553.47 1247.56 1567.42 Q1247.56 1568.27 1247.51 1569.97 L1205.5 1569.97 Q1206.03 1579.25 1210.75 1584.18 Q1215.47 1589.11 1222.52 1589.11 Q1227.77 1589.11 1231.49 1586.36 Q1235.2 1583.6 1237.38 1577.55 M1206.03 1562.12 L1237.48 1562.12 Q1236.84 1555.01 1233.87 1551.45 Q1229.31 1545.94 1222.05 1545.94 Q1215.47 1545.94 1210.96 1550.34 Q1206.5 1554.74 1206.03 1562.12 Z" fill="#000000" fill-rule="nonzero" fill-opacity="1" /><path clip-path="url(#clip910)" d="M1259.23 1617.28 L1259.23 1539.36 L1267.93 1539.36 L1267.93 1546.68 Q1271 1542.38 1274.88 1540.26 Q1278.75 1538.09 1284.26 1538.09 Q1291.48 1538.09 1296.99 1541.8 Q1302.51 1545.51 1305.32 1552.3 Q1308.13 1559.04 1308.13 1567.1 Q1308.13 1575.75 1305 1582.7 Q1301.93 1589.59 1295.99 1593.3 Q1290.1 1596.96 1283.58 1596.96 Q1278.8 1596.96 1274.98 1594.95 Q1271.22 1592.93 1268.78 1589.86 L1268.78 1617.28 L1259.23 1617.28 M1267.87 1567.84 Q1267.87 1578.72 1272.28 1583.92 Q1276.68 1589.11 1282.94 1589.11 Q1289.3 1589.11 1293.81 1583.76 Q1298.37 1578.35 1298.37 1567.05 Q1298.37 1556.28 1293.92 1550.92 Q1289.52 1545.57 1283.36 1545.57 Q1277.26 1545.57 1272.54 1551.3 Q1267.87 1556.97 1267.87 1567.84 Z" fill="#000000" fill-rule="nonzero" fill-opacity="1" /><path clip-path="url(#clip910)" d="M1316.09 1567.53 Q1316.09 1551.88 1324.79 1544.35 Q1332.06 1538.09 1342.51 1538.09 Q1354.12 1538.09 1361.49 1545.73 Q1368.87 1553.31 1368.87 1566.73 Q1368.87 1577.6 1365.58 1583.86 Q1362.34 1590.07 1356.08 1593.52 Q1349.88 1596.96 1342.51 1596.96 Q1330.68 1596.96 1323.36 1589.38 Q1316.09 1581.79 1316.09 1567.53 M1325.9 1567.53 Q1325.9 1578.35 1330.62 1583.76 Q1335.34 1589.11 1342.51 1589.11 Q1349.61 1589.11 1354.33 1583.7 Q1359.05 1578.29 1359.05 1567.21 Q1359.05 1556.76 1354.28 1551.4 Q1349.56 1545.99 1342.51 1545.99 Q1335.34 1545.99 1330.62 1551.35 Q1325.9 1556.71 1325.9 1567.53 Z" fill="#000000" fill-rule="nonzero" fill-opacity="1" /><path clip-path="url(#clip910)" d="M1416.82 1575.06 L1426.21 1576.28 Q1424.67 1585.99 1418.3 1591.5 Q1411.99 1596.96 1402.76 1596.96 Q1391.2 1596.96 1384.14 1589.43 Q1377.14 1581.85 1377.14 1567.74 Q1377.14 1558.62 1380.17 1551.77 Q1383.19 1544.93 1389.34 1541.54 Q1395.55 1538.09 1402.81 1538.09 Q1411.99 1538.09 1417.83 1542.76 Q1423.66 1547.37 1425.3 1555.91 L1416.02 1557.34 Q1414.7 1551.67 1411.3 1548.8 Q1407.96 1545.94 1403.19 1545.94 Q1395.97 1545.94 1391.46 1551.14 Q1386.95 1556.28 1386.95 1567.47 Q1386.95 1578.82 1391.3 1583.97 Q1395.65 1589.11 1402.65 1589.11 Q1408.28 1589.11 1412.04 1585.67 Q1415.81 1582.22 1416.82 1575.06 Z" fill="#000000" fill-rule="nonzero" fill-opacity="1" /><path clip-path="url(#clip910)" d="M1434.37 1595.69 L1434.37 1517.93 L1443.92 1517.93 L1443.92 1545.83 Q1450.61 1538.09 1460.79 1538.09 Q1467.05 1538.09 1471.66 1540.58 Q1476.28 1543.02 1478.24 1547.37 Q1480.26 1551.72 1480.26 1559.99 L1480.26 1595.69 L1470.71 1595.69 L1470.71 1559.99 Q1470.71 1552.83 1467.58 1549.6 Q1464.5 1546.31 1458.83 1546.31 Q1454.58 1546.31 1450.82 1548.54 Q1447.1 1550.71 1445.51 1554.48 Q1443.92 1558.24 1443.92 1564.87 L1443.92 1595.69 L1434.37 1595.69 Z" fill="#000000" fill-rule="nonzero" fill-opacity="1" /><polyline clip-path="url(#clip910)" style="stroke:#000000; stroke-linecap:round; stroke-linejoin:round; stroke-width:4; stroke-opacity:1; fill:none" points="323.131,1349.74 323.131,47.2441 "/>
<polyline clip-path="url(#clip910)" style="stroke:#000000; stroke-linecap:round; stroke-linejoin:round; stroke-width:2; stroke-opacity:0.5; fill:none" points="2352.76,1349.74 2352.76,47.2441 "/>
<polyline clip-path="url(#clip910)" style="stroke:#000000; stroke-linecap:round; stroke-linejoin:round; stroke-width:4; stroke-opacity:1; fill:none" points="323.131,1326.9 342.029,1326.9 "/>
<polyline clip-path="url(#clip910)" style="stroke:#000000; stroke-linecap:round; stroke-linejoin:round; stroke-width:4; stroke-opacity:1; fill:none" points="323.131,1066.4 342.029,1066.4 "/>
<polyline clip-path="url(#clip910)" style="stroke:#000000; stroke-linecap:round; stroke-linejoin:round; stroke-width:4; stroke-opacity:1; fill:none" points="323.131,805.904 342.029,805.904 "/>
<polyline clip-path="url(#clip910)" style="stroke:#000000; stroke-linecap:round; stroke-linejoin:round; stroke-width:4; stroke-opacity:1; fill:none" points="323.131,545.405 342.029,545.405 "/>
<polyline clip-path="url(#clip910)" style="stroke:#000000; stroke-linecap:round; stroke-linejoin:round; stroke-width:4; stroke-opacity:1; fill:none" points="323.131,284.906 342.029,284.906 "/>
<path clip-path="url(#clip910)" d="M181.842 1365.78 L172.294 1365.78 L172.294 1304.94 Q168.847 1308.23 163.224 1311.52 Q157.655 1314.81 153.199 1316.45 L153.199 1307.22 Q161.208 1303.46 167.202 1298.1 Q173.196 1292.74 175.689 1287.7 L181.842 1287.7 L181.842 1365.78 Z" fill="#000000" fill-rule="nonzero" fill-opacity="1" /><path clip-path="url(#clip910)" d="M211.652 1365.78 L211.652 1354.91 L222.525 1354.91 L222.525 1365.78 L211.652 1365.78 Z" fill="#000000" fill-rule="nonzero" fill-opacity="1" /><path clip-path="url(#clip910)" d="M267.081 1365.78 L267.081 1347.16 L233.346 1347.16 L233.346 1338.41 L268.831 1288.02 L276.629 1288.02 L276.629 1338.41 L287.131 1338.41 L287.131 1347.16 L276.629 1347.16 L276.629 1365.78 L267.081 1365.78 M267.081 1338.41 L267.081 1303.35 L242.734 1338.41 L267.081 1338.41 Z" fill="#000000" fill-rule="nonzero" fill-opacity="1" /><path clip-path="url(#clip910)" d="M181.577 1105.28 L172.029 1105.28 L172.029 1044.44 Q168.581 1047.73 162.959 1051.02 Q157.389 1054.31 152.934 1055.95 L152.934 1046.72 Q160.943 1042.96 166.937 1037.6 Q172.931 1032.24 175.424 1027.2 L181.577 1027.2 L181.577 1105.28 Z" fill="#000000" fill-rule="nonzero" fill-opacity="1" /><path clip-path="url(#clip910)" d="M211.386 1105.28 L211.386 1094.41 L222.26 1094.41 L222.26 1105.28 L211.386 1105.28 Z" fill="#000000" fill-rule="nonzero" fill-opacity="1" /><path clip-path="url(#clip910)" d="M285.752 1046.57 L276.257 1047.31 Q274.984 1041.69 272.65 1039.14 Q268.778 1035.06 263.103 1035.06 Q258.541 1035.06 255.093 1037.6 Q250.585 1040.89 247.986 1047.2 Q245.387 1053.51 245.281 1065.18 Q248.728 1059.93 253.714 1057.39 Q258.7 1054.84 264.164 1054.84 Q273.711 1054.84 280.395 1061.89 Q287.131 1068.9 287.131 1080.04 Q287.131 1087.35 283.948 1093.67 Q280.819 1099.93 275.302 1103.27 Q269.786 1106.61 262.784 1106.61 Q250.85 1106.61 243.318 1097.86 Q235.786 1089.05 235.786 1068.9 Q235.786 1046.35 244.114 1036.12 Q251.38 1027.2 263.686 1027.2 Q272.863 1027.2 278.697 1032.35 Q284.585 1037.5 285.752 1046.57 M246.766 1080.09 Q246.766 1085.02 248.834 1089.53 Q250.956 1094.04 254.722 1096.43 Q258.488 1098.76 262.625 1098.76 Q268.672 1098.76 273.022 1093.88 Q277.371 1089 277.371 1080.62 Q277.371 1072.56 273.075 1067.94 Q268.778 1063.27 262.254 1063.27 Q255.783 1063.27 251.274 1067.94 Q246.766 1072.56 246.766 1080.09 Z" fill="#000000" fill-rule="nonzero" fill-opacity="1" /><path clip-path="url(#clip910)" d="M181.365 844.784 L171.817 844.784 L171.817 783.945 Q168.369 787.233 162.747 790.522 Q157.177 793.81 152.722 795.455 L152.722 786.225 Q160.731 782.459 166.725 777.102 Q172.719 771.745 175.212 766.706 L181.365 766.706 L181.365 844.784 Z" fill="#000000" fill-rule="nonzero" fill-opacity="1" /><path clip-path="url(#clip910)" d="M211.174 844.784 L211.174 833.91 L222.048 833.91 L222.048 844.784 L211.174 844.784 Z" fill="#000000" fill-rule="nonzero" fill-opacity="1" /><path clip-path="url(#clip910)" d="M250.691 802.615 Q244.75 800.441 241.886 796.41 Q239.022 792.378 239.022 786.756 Q239.022 778.269 245.121 772.487 Q251.221 766.706 261.352 766.706 Q271.536 766.706 277.742 772.647 Q283.948 778.534 283.948 787.021 Q283.948 792.431 281.084 796.463 Q278.273 800.441 272.491 802.615 Q279.652 804.949 283.365 810.147 Q287.131 815.346 287.131 822.559 Q287.131 832.531 280.076 839.321 Q273.022 846.11 261.511 846.11 Q250.001 846.11 242.947 839.321 Q235.892 832.478 235.892 822.294 Q235.892 814.709 239.711 809.617 Q243.583 804.472 250.691 802.615 M248.781 786.438 Q248.781 791.954 252.335 795.455 Q255.889 798.956 261.564 798.956 Q267.081 798.956 270.582 795.508 Q274.136 792.007 274.136 786.968 Q274.136 781.717 270.476 778.163 Q266.869 774.556 261.458 774.556 Q255.995 774.556 252.388 778.057 Q248.781 781.558 248.781 786.438 M245.705 822.347 Q245.705 826.431 247.614 830.25 Q249.577 834.07 253.396 836.191 Q257.215 838.26 261.618 838.26 Q268.46 838.26 272.916 833.857 Q277.371 829.455 277.371 822.665 Q277.371 815.77 272.756 811.261 Q268.195 806.753 261.299 806.753 Q254.563 806.753 250.107 811.208 Q245.705 815.664 245.705 822.347 Z" fill="#000000" fill-rule="nonzero" fill-opacity="1" /><path clip-path="url(#clip910)" d="M196.004 575.109 L196.004 584.285 L144.606 584.285 Q144.5 580.837 145.72 577.655 Q147.683 572.403 151.979 567.311 Q156.329 562.219 164.497 555.536 Q177.174 545.14 181.63 539.093 Q186.085 532.993 186.085 527.583 Q186.085 521.907 182.001 518.035 Q177.97 514.11 171.446 514.11 Q164.55 514.11 160.413 518.247 Q156.276 522.385 156.223 529.704 L146.41 528.697 Q147.417 517.717 153.995 511.988 Q160.572 506.207 171.658 506.207 Q182.85 506.207 189.374 512.413 Q195.898 518.619 195.898 527.795 Q195.898 532.463 193.989 536.971 Q192.079 541.48 187.624 546.466 Q183.221 551.452 172.931 560.151 Q164.338 567.364 161.898 569.964 Q159.458 572.51 157.867 575.109 L196.004 575.109 Z" fill="#000000" fill-rule="nonzero" fill-opacity="1" /><path clip-path="url(#clip910)" d="M211.599 584.285 L211.599 573.411 L222.472 573.411 L222.472 584.285 L211.599 584.285 Z" fill="#000000" fill-rule="nonzero" fill-opacity="1" /><path clip-path="url(#clip910)" d="M236.422 545.935 Q236.422 532.144 239.234 523.764 Q242.098 515.33 247.667 510.768 Q253.29 506.207 261.777 506.207 Q268.036 506.207 272.756 508.753 Q277.477 511.246 280.554 516.019 Q283.63 520.74 285.38 527.583 Q287.131 534.372 287.131 545.935 Q287.131 559.62 284.32 568.054 Q281.508 576.435 275.886 581.049 Q270.316 585.611 261.777 585.611 Q250.532 585.611 244.114 577.549 Q236.422 567.842 236.422 545.935 M246.235 545.935 Q246.235 565.084 250.691 571.449 Q255.199 577.761 261.777 577.761 Q268.354 577.761 272.809 571.396 Q277.318 565.031 277.318 545.935 Q277.318 526.734 272.809 520.422 Q268.354 514.11 261.671 514.11 Q255.093 514.11 251.168 519.679 Q246.235 526.787 246.235 545.935 Z" fill="#000000" fill-rule="nonzero" fill-opacity="1" /><path clip-path="url(#clip910)" d="M196.535 314.609 L196.535 323.786 L145.137 323.786 Q145.031 320.338 146.251 317.155 Q148.213 311.904 152.51 306.812 Q156.859 301.72 165.028 295.037 Q177.705 284.641 182.16 278.594 Q186.616 272.494 186.616 267.084 Q186.616 261.408 182.531 257.536 Q178.5 253.611 171.976 253.611 Q165.081 253.611 160.943 257.748 Q156.806 261.885 156.753 269.205 L146.94 268.197 Q147.948 257.218 154.525 251.489 Q161.102 245.708 172.188 245.708 Q183.38 245.708 189.904 251.913 Q196.429 258.119 196.429 267.296 Q196.429 271.963 194.519 276.472 Q192.61 280.981 188.154 285.967 Q183.751 290.953 173.461 299.652 Q164.868 306.865 162.428 309.464 Q159.989 312.01 158.397 314.609 L196.535 314.609 Z" fill="#000000" fill-rule="nonzero" fill-opacity="1" /><path clip-path="url(#clip910)" d="M212.129 323.786 L212.129 312.912 L223.003 312.912 L223.003 323.786 L212.129 323.786 Z" fill="#000000" fill-rule="nonzero" fill-opacity="1" /><path clip-path="url(#clip910)" d="M287.131 314.609 L287.131 323.786 L235.733 323.786 Q235.627 320.338 236.847 317.155 Q238.809 311.904 243.106 306.812 Q247.455 301.72 255.624 295.037 Q268.301 284.641 272.756 278.594 Q277.212 272.494 277.212 267.084 Q277.212 261.408 273.128 257.536 Q269.097 253.611 262.572 253.611 Q255.677 253.611 251.54 257.748 Q247.402 261.885 247.349 269.205 L237.536 268.197 Q238.544 257.218 245.121 251.489 Q251.699 245.708 262.784 245.708 Q273.976 245.708 280.501 251.913 Q287.025 258.119 287.025 267.296 Q287.025 271.963 285.115 276.472 Q283.206 280.981 278.75 285.967 Q274.348 290.953 264.057 299.652 Q255.465 306.865 253.025 309.464 Q250.585 312.01 248.993 314.609 L287.131 314.609 Z" fill="#000000" fill-rule="nonzero" fill-opacity="1" /><path clip-path="url(#clip910)" d="M85.1722 758.271 L7.41216 758.271 L7.41216 728.938 Q7.41216 721.194 8.15475 717.11 Q9.10951 711.381 11.8147 707.509 Q14.4668 703.637 19.2936 701.303 Q24.1205 698.916 29.9021 698.916 Q39.821 698.916 46.7165 705.228 Q53.559 711.54 53.559 728.037 L53.559 747.98 L85.1722 747.98 L85.1722 758.271 M44.3826 747.98 L44.3826 727.877 Q44.3826 717.905 40.6697 713.715 Q36.9567 709.525 30.2203 709.525 Q25.3405 709.525 21.8927 712.018 Q18.3919 714.458 17.278 718.489 Q16.5885 721.088 16.5885 728.09 L16.5885 747.98 L44.3826 747.98 Z" fill="#000000" fill-rule="nonzero" fill-opacity="1" /><path clip-path="url(#clip910)" d="M64.6448 689.634 L63.3718 680.086 Q71.4872 678.442 75.0941 674.517 Q78.648 670.539 78.648 664.863 Q78.648 658.127 73.9802 653.512 Q69.3125 648.844 62.417 648.844 Q55.8398 648.844 51.5964 653.141 Q47.3 657.437 47.3 664.068 Q47.3 666.773 48.3608 670.804 L39.9801 669.743 Q40.0862 668.788 40.0862 668.205 Q40.0862 662.105 36.9037 657.225 Q33.7211 652.345 27.0908 652.345 Q21.8397 652.345 18.3919 655.899 Q14.9442 659.453 14.9442 665.075 Q14.9442 670.645 18.445 674.358 Q21.9457 678.071 28.9473 679.132 L27.25 688.679 Q17.6493 686.929 12.3981 680.723 Q7.0939 674.517 7.0939 665.287 Q7.0939 658.922 9.8521 653.565 Q12.5573 648.208 17.278 645.397 Q21.9988 642.532 27.303 642.532 Q32.342 642.532 36.4793 645.238 Q40.6166 647.943 43.0566 653.247 Q44.6478 646.351 49.6869 642.532 Q54.6728 638.713 62.2048 638.713 Q72.389 638.713 79.4966 646.139 Q86.5513 653.565 86.5513 664.916 Q86.5513 675.153 80.4514 681.943 Q74.3515 688.679 64.6448 689.634 Z" fill="#000000" fill-rule="nonzero" fill-opacity="1" /><polyline clip-path="url(#clip912)" style="stroke:#009af9; stroke-linecap:round; stroke-linejoin:round; stroke-width:8; stroke-opacity:1; fill:none" points="323.131,1349.74 324.471,1349.74 325.812,1349.74 327.153,1349.74 328.493,1349.74 329.834,1349.74 331.174,1349.74 332.515,1349.74 333.855,1349.74 335.196,1349.74 336.537,1349.74 337.877,1349.74 339.218,1349.74 340.558,1349.74 341.899,1349.74 343.239,1349.74 344.58,1349.74 345.921,1349.74 347.261,1349.74 348.602,1349.74 349.942,1349.74 351.283,1349.74 352.623,1349.74 353.964,1349.74 355.305,1349.74 356.645,1349.74 357.986,1349.74 359.326,1349.74 360.667,1349.74 362.007,1349.74 363.348,1349.74 364.689,1349.74 366.029,1349.74 367.37,1349.74 368.71,1349.74 370.051,1349.74 371.391,1349.74 372.732,1349.74 374.073,1349.74 375.413,1349.74 376.754,1349.74 378.094,1349.74 379.435,1349.74 380.775,1349.74 382.116,1349.74 383.457,1349.74 384.797,1349.74 386.138,1349.74 387.478,1349.74 388.819,1349.74 390.159,1349.74 391.5,1349.74 392.841,1349.74 394.181,1349.74 395.522,1349.74 396.862,1349.74 398.203,1349.74 399.543,1349.74 400.884,1349.74 402.225,1349.74 403.565,1349.74 404.906,1349.74 406.246,1349.74 407.587,1349.74 408.927,1349.74 410.268,1349.74 411.609,1349.74 412.949,1349.74 414.29,1349.74 415.63,1349.74 416.971,1349.74 418.311,1349.74 419.652,1349.74 420.993,1349.74 422.333,1349.74 423.674,1349.74 425.014,1349.74 426.355,1349.74 427.695,1349.74 429.036,1349.74 430.377,1349.74 431.717,1349.74 433.058,1349.74 434.398,1349.74 435.739,1349.74 437.079,1349.74 438.42,1349.74 439.761,1349.74 441.101,1349.74 442.442,1349.74 443.782,1349.74 445.123,1349.74 446.463,1349.74 447.804,1349.74 449.145,1349.74 450.485,1349.74 451.826,1349.74 453.166,1349.74 454.507,1349.74 455.847,1349.74 457.188,1349.74 458.529,1349.74 459.869,1349.74 461.21,1349.74 462.55,1349.74 463.891,1349.74 465.231,1349.74 466.572,1349.74 467.913,1349.74 469.253,1349.74 470.594,1349.74 471.934,1349.74 473.275,1349.74 474.615,1349.74 475.956,1349.74 477.297,1349.74 478.637,1349.74 479.978,1349.74 481.318,1349.74 482.659,1349.74 483.999,1349.74 485.34,1349.74 486.681,1349.74 488.021,1349.74 489.362,1349.74 490.702,1349.74 492.043,1349.74 493.383,1349.74 494.724,1349.74 496.065,1349.74 497.405,1349.74 498.746,1349.74 500.086,1349.74 501.427,1349.74 502.767,1349.74 504.108,1349.74 505.449,1349.74 506.789,1349.74 508.13,1349.74 509.47,1349.74 510.811,1349.74 512.151,1349.74 513.492,1349.74 514.833,1349.74 516.173,1349.74 517.514,1349.74 518.854,1349.74 520.195,1349.74 521.535,1349.74 522.876,1349.74 524.217,1349.74 525.557,1349.74 526.898,1349.74 528.238,1349.74 529.579,1349.74 530.919,1349.74 532.26,1349.74 533.601,1349.74 534.941,1349.74 536.282,1349.74 537.622,1349.74 538.963,1349.74 540.303,1349.74 541.644,1349.74 542.985,1349.74 544.325,1349.74 545.666,1349.74 547.006,1349.74 548.347,1349.74 549.687,1349.74 551.028,1349.74 552.369,1349.74 553.709,1349.74 555.05,1349.74 556.39,1349.74 557.731,1349.74 559.071,1349.74 560.412,1349.74 561.753,1349.74 563.093,1349.74 564.434,1349.74 565.774,1349.74 567.115,1349.74 568.455,1349.74 569.796,1349.74 571.137,1349.74 572.477,1349.74 573.818,1349.74 575.158,1349.74 576.499,1349.74 577.839,1349.74 579.18,1349.74 580.521,1349.74 581.861,1349.74 583.202,1349.74 584.542,1349.74 585.883,1349.74 587.223,1349.74 588.564,1349.74 589.905,1349.74 591.245,1349.74 592.586,1349.74 593.926,1349.74 595.267,1349.74 596.607,1349.74 597.948,1349.74 599.289,1349.74 600.629,1349.74 601.97,1349.74 603.31,1349.74 604.651,1349.74 605.991,1349.74 607.332,1349.74 608.673,1349.74 610.013,1349.74 611.354,1349.74 612.694,1349.74 614.035,1349.74 615.375,1349.74 616.716,1349.74 618.057,1349.74 619.397,1349.74 620.738,1349.74 622.078,1349.74 623.419,1349.74 624.759,1349.74 626.1,1349.74 627.441,1349.74 628.781,1349.74 630.122,1349.74 631.462,1349.74 632.803,1349.74 634.143,1349.74 635.484,1349.74 636.825,1349.74 638.165,1349.74 639.506,1349.74 640.846,1349.74 642.187,1349.74 643.527,1349.74 644.868,1349.74 646.209,1349.74 647.549,1349.74 648.89,1349.74 650.23,1349.74 651.571,1349.74 652.911,1349.74 654.252,1349.74 655.593,1349.74 656.933,1349.74 658.274,1349.74 659.614,1349.74 660.955,1349.74 662.295,1349.74 663.636,1349.74 664.977,1349.74 666.317,1349.74 667.658,1349.74 668.998,1349.74 670.339,1349.74 671.679,1349.74 673.02,1349.74 674.361,1349.74 675.701,1349.74 677.042,1349.74 678.382,1349.74 679.723,1349.74 681.063,1349.74 682.404,1349.74 683.745,1349.74 685.085,1349.74 686.426,1349.74 687.766,1349.74 689.107,1349.74 690.447,1349.74 691.788,1349.74 693.129,1349.74 694.469,1349.74 695.81,1349.74 697.15,1349.74 698.491,1349.74 699.831,1349.74 701.172,1349.74 702.513,1349.74 703.853,1349.74 705.194,1349.74 706.534,1349.74 707.875,1349.74 709.215,1349.74 710.556,1349.74 711.897,1349.74 713.237,1349.74 714.578,1349.74 715.918,1349.74 717.259,1349.74 718.599,1349.74 719.94,1349.74 721.281,1349.74 722.621,1349.74 723.962,1349.74 725.302,1349.74 726.643,1349.74 727.983,1349.74 729.324,1349.74 730.665,1349.74 732.005,1349.74 733.346,1349.74 734.686,1349.74 736.027,1349.74 737.367,1349.74 738.708,1349.74 740.049,1349.74 741.389,1349.74 742.73,1349.74 744.07,1349.74 745.411,1349.74 746.751,1349.74 748.092,1349.74 749.433,1349.74 750.773,1349.74 752.114,1349.74 753.454,1349.74 754.795,1349.74 756.135,1349.74 757.476,1349.74 758.817,1349.74 760.157,1349.74 761.498,1349.74 762.838,1349.74 764.179,1349.74 765.519,1349.74 766.86,1349.74 768.201,1349.74 769.541,1349.74 770.882,1349.74 772.222,1349.74 773.563,1349.74 774.903,1349.74 776.244,1349.74 777.585,1349.74 778.925,1349.74 780.266,1349.74 781.606,1349.74 782.947,1349.74 784.287,1349.74 785.628,1349.74 786.969,1349.74 788.309,1349.74 789.65,1349.74 790.99,1349.74 792.331,1349.74 793.671,1349.74 795.012,1349.74 796.353,1349.74 797.693,1349.74 799.034,1349.74 800.374,1349.74 801.715,1349.74 803.055,1349.74 804.396,1349.74 805.737,1349.74 807.077,1349.74 808.418,1349.74 809.758,1349.74 811.099,1349.74 812.439,1349.74 813.78,1349.74 815.121,1349.74 816.461,1349.74 817.802,1349.74 819.142,1349.74 820.483,1349.74 821.823,1349.74 823.164,1349.74 824.505,1349.74 825.845,1349.74 827.186,1349.74 828.526,1349.74 829.867,1349.74 831.207,1349.74 832.548,1349.74 833.889,1349.74 835.229,1349.74 836.57,1349.74 837.91,1349.74 839.251,1349.74 840.591,1349.74 841.932,1349.74 843.273,1349.74 844.613,1349.74 845.954,1349.74 847.294,1349.74 848.635,1349.74 849.975,1349.74 851.316,1349.74 852.657,1349.74 853.997,1349.74 855.338,1349.74 856.678,1349.74 858.019,1349.74 859.359,1349.74 860.7,1349.74 862.041,1349.74 863.381,1349.74 864.722,1349.74 866.062,1349.74 867.403,1349.74 868.743,1349.74 870.084,1349.74 871.425,1349.74 872.765,1349.74 874.106,1349.74 875.446,1349.74 876.787,1349.74 878.127,1349.74 879.468,1349.74 880.809,1349.74 882.149,1349.74 883.49,1349.74 884.83,1349.74 886.171,1349.74 887.511,1349.74 888.852,1349.74 890.193,1349.74 891.533,1349.74 892.874,1349.74 894.214,1349.74 895.555,1349.74 896.895,1349.74 898.236,1349.74 899.577,1349.74 900.917,1349.74 902.258,1349.74 903.598,1349.74 904.939,1349.74 906.279,1349.74 907.62,1349.74 908.961,1349.74 910.301,1349.74 911.642,1349.74 912.982,1349.74 914.323,1349.74 915.663,1349.74 917.004,1349.74 918.345,1349.74 919.685,1349.74 921.026,1349.74 922.366,1349.74 923.707,1349.74 925.047,1349.74 926.388,1349.74 927.729,1349.74 929.069,1349.74 930.41,1349.74 931.75,1349.74 933.091,1349.74 934.431,1349.74 935.772,1349.74 937.113,1349.74 938.453,1349.74 939.794,1349.74 941.134,1349.74 942.475,1349.74 943.815,1349.74 945.156,1349.74 946.497,1349.74 947.837,1349.74 949.178,1349.74 950.518,1349.74 951.859,1349.74 953.199,1349.74 954.54,1349.74 955.881,1349.74 957.221,1349.74 958.562,1349.74 959.902,1349.74 961.243,1349.74 962.583,1349.74 963.924,1349.74 965.265,1349.74 966.605,1349.74 967.946,1349.74 969.286,1349.74 970.627,1349.74 971.967,1349.74 973.308,1349.74 974.649,1349.74 975.989,1349.74 977.33,1349.74 978.67,1349.74 980.011,1349.74 981.351,1349.74 982.692,1349.74 984.033,1349.74 985.373,1349.74 986.714,1349.74 988.054,1349.74 989.395,1349.74 990.735,1349.74 992.076,1349.74 993.417,1349.74 994.757,1349.74 996.098,1349.74 997.438,1349.74 998.779,1349.74 1000.12,1349.74 1001.46,1349.74 1002.8,1349.74 1004.14,1349.74 1005.48,1349.74 1006.82,1349.74 1008.16,1349.74 1009.5,1349.74 1010.84,1349.74 1012.18,1349.74 1013.53,1349.74 1014.87,1349.74 1016.21,1349.74 1017.55,1349.74 1018.89,1349.74 1020.23,1349.74 1021.57,1349.74 1022.91,1349.74 1024.25,1349.74 1025.59,1349.74 1026.93,1349.74 1028.27,1349.74 1029.61,1349.74 1030.95,1349.74 1032.29,1349.74 1033.63,1349.74 1034.97,1349.74 1036.31,1349.74 1037.66,1349.74 1039,1349.74 1040.34,1349.74 1041.68,1349.74 1043.02,1349.74 1044.36,1349.74 1045.7,1349.74 1047.04,1349.74 1048.38,1349.74 1049.72,1349.74 1051.06,1349.74 1052.4,1349.74 1053.74,1349.74 1055.08,1349.74 1056.42,1349.74 1057.76,1349.74 1059.1,1349.74 1060.45,1349.74 1061.79,1349.74 1063.13,1349.74 1064.47,1349.74 1065.81,1349.74 1067.15,1349.74 1068.49,1349.74 1069.83,1349.74 1071.17,1349.74 1072.51,1349.74 1073.85,1349.74 1075.19,1349.74 1076.53,1349.74 1077.87,1349.74 1079.21,1349.74 1080.55,1349.74 1081.89,1349.74 1083.23,1349.74 1084.58,1349.74 1085.92,1349.74 1087.26,1349.74 1088.6,1349.74 1089.94,1349.74 1091.28,1349.74 1092.62,1349.74 1093.96,1349.74 1095.3,1349.74 1096.64,1349.74 1097.98,1349.74 1099.32,1349.74 1100.66,1349.74 1102,1349.74 1103.34,1349.74 1104.68,1349.74 1106.02,1349.74 1107.37,1349.74 1108.71,1349.74 1110.05,1349.74 1111.39,1349.74 1112.73,1349.74 1114.07,1349.74 1115.41,1349.74 1116.75,1349.74 1118.09,1349.74 1119.43,1349.74 1120.77,1349.74 1122.11,1349.74 1123.45,1349.74 1124.79,1349.74 1126.13,1349.74 1127.47,1349.74 1128.81,1349.74 1130.15,1349.74 1131.5,1349.74 1132.84,1349.74 1134.18,1349.74 1135.52,1349.74 1136.86,1349.74 1138.2,1349.74 1139.54,1349.74 1140.88,1349.74 1142.22,1349.74 1143.56,1349.74 1144.9,1349.74 1146.24,1349.74 1147.58,1349.74 1148.92,1349.74 1150.26,1349.74 1151.6,1349.74 1152.94,1349.74 1154.29,1349.74 1155.63,1349.74 1156.97,1349.74 1158.31,1349.74 1159.65,1349.74 1160.99,1349.74 1162.33,1349.74 1163.67,1349.74 1165.01,1349.74 1166.35,1349.74 1167.69,1349.74 1169.03,1349.74 1170.37,1349.74 1171.71,1349.74 1173.05,1349.74 1174.39,1349.74 1175.73,1349.74 1177.07,1349.74 1178.42,1349.74 1179.76,1349.74 1181.1,1349.74 1182.44,1349.74 1183.78,1349.74 1185.12,1349.74 1186.46,1349.74 1187.8,1349.74 1189.14,1349.74 1190.48,1349.74 1191.82,1349.74 1193.16,1349.74 1194.5,1349.74 1195.84,1349.74 1197.18,1349.74 1198.52,1349.74 1199.86,1349.74 1201.21,1349.74 1202.55,1349.74 1203.89,1349.74 1205.23,1349.74 1206.57,1349.74 1207.91,1349.74 1209.25,1349.74 1210.59,1349.74 1211.93,1349.74 1213.27,1349.74 1214.61,1349.74 1215.95,1349.74 1217.29,1349.74 1218.63,1349.74 1219.97,1349.74 1221.31,1349.74 1222.65,1349.74 1223.99,1349.74 1225.34,1349.74 1226.68,1349.74 1228.02,1349.74 1229.36,1349.74 1230.7,1349.74 1232.04,1349.74 1233.38,1349.74 1234.72,1349.74 1236.06,1349.74 1237.4,1349.74 1238.74,1349.74 1240.08,1349.74 1241.42,1349.74 1242.76,1349.74 1244.1,1349.74 1245.44,1349.74 1246.78,1349.74 1248.13,1349.74 1249.47,1349.74 1250.81,1349.74 1252.15,1349.74 1253.49,1349.74 1254.83,1349.74 1256.17,1349.74 1257.51,1349.74 1258.85,1349.74 1260.19,1349.74 1261.53,1349.74 1262.87,1349.74 1264.21,1349.74 1265.55,1349.74 1266.89,1349.74 1268.23,1349.74 1269.57,1349.74 1270.91,1349.74 1272.26,1349.74 1273.6,1349.74 1274.94,1349.74 1276.28,1349.74 1277.62,1349.74 1278.96,1349.74 1280.3,1349.74 1281.64,1349.74 1282.98,1349.74 1284.32,1349.74 1285.66,1349.74 1287,1349.74 1288.34,1349.74 1289.68,1349.74 1291.02,1349.74 1292.36,1349.74 1293.7,1349.74 1295.05,1349.74 1296.39,1349.74 1297.73,1349.74 1299.07,1349.74 1300.41,1349.74 1301.75,1349.74 1303.09,1349.74 1304.43,1349.74 1305.77,1349.74 1307.11,1349.74 1308.45,1349.74 1309.79,1349.74 1311.13,1349.74 1312.47,1349.74 1313.81,1349.74 1315.15,1349.74 1316.49,1349.74 1317.83,1349.74 1319.18,1349.74 1320.52,1349.74 1321.86,1349.74 1323.2,1349.74 1324.54,1349.74 1325.88,1349.74 1327.22,1349.74 1328.56,1349.74 1329.9,1349.74 1331.24,1349.74 1332.58,1349.74 1333.92,1349.74 1335.26,1349.74 1336.6,1349.74 1337.94,1349.74 1339.28,1349.74 1340.62,1349.74 1341.97,1349.74 1343.31,1349.74 1344.65,1349.74 1345.99,1349.74 1347.33,1349.74 1348.67,1349.74 1350.01,1349.74 1351.35,1349.74 1352.69,1349.74 1354.03,1349.74 1355.37,1349.74 1356.71,1349.74 1358.05,1349.74 1359.39,1349.74 1360.73,1349.74 1362.07,1349.74 1363.41,1349.74 1364.75,1349.74 1366.1,1349.74 1367.44,1349.74 1368.78,1349.74 1370.12,1349.74 1371.46,1349.74 1372.8,1349.74 1374.14,1349.74 1375.48,1349.74 1376.82,1349.74 1378.16,1349.74 1379.5,1349.74 1380.84,1349.74 1382.18,1349.74 1383.52,1349.74 1384.86,1349.74 1386.2,1349.74 1387.54,1349.74 1388.89,1349.74 1390.23,1349.74 1391.57,1349.74 1392.91,1349.74 1394.25,1349.74 1395.59,1349.74 1396.93,1349.74 1398.27,1349.74 1399.61,1349.74 1400.95,1349.74 1402.29,1349.74 1403.63,1349.74 1404.97,1349.74 1406.31,1349.74 1407.65,1349.74 1408.99,1349.74 1410.33,1349.74 1411.67,1349.74 1413.02,1349.74 1414.36,1349.74 1415.7,1349.74 1417.04,1349.74 1418.38,1349.74 1419.72,1349.74 1421.06,1349.74 1422.4,1349.74 1423.74,1349.74 1425.08,1349.74 1426.42,1349.74 1427.76,1349.74 1429.1,1349.74 1430.44,1349.74 1431.78,1349.74 1433.12,1349.74 1434.46,1349.74 1435.81,1349.74 1437.15,1349.74 1438.49,1349.74 1439.83,1349.74 1441.17,1349.74 1442.51,1349.74 1443.85,1349.74 1445.19,1349.74 1446.53,1349.74 1447.87,1349.74 1449.21,1349.74 1450.55,1349.74 1451.89,1349.74 1453.23,1349.74 1454.57,1349.74 1455.91,1349.74 1457.25,1349.74 1458.59,1349.74 1459.94,1349.74 1461.28,1349.74 1462.62,1349.74 1463.96,1349.74 1465.3,1349.74 1466.64,1349.74 1467.98,1349.74 1469.32,1349.74 1470.66,1349.74 1472,1349.74 1473.34,1349.74 1474.68,1349.74 1476.02,1349.74 1477.36,1349.74 1478.7,1349.74 1480.04,1349.74 1481.38,1349.74 1482.73,1349.74 1484.07,1349.74 1485.41,1349.74 1486.75,1349.74 1488.09,1349.74 1489.43,1349.74 1490.77,1349.74 1492.11,1349.74 1493.45,1349.74 1494.79,1349.74 1496.13,1349.74 1497.47,1349.74 1498.81,1349.74 1500.15,1349.74 1501.49,1349.74 1502.83,1349.74 1504.17,1349.74 1505.51,1349.74 1506.86,1349.74 1508.2,1349.74 1509.54,1349.74 1510.88,1349.74 1512.22,1349.74 1513.56,1349.74 1514.9,1349.74 1516.24,1349.74 1517.58,1349.74 1518.92,1349.74 1520.26,1349.74 1521.6,1349.74 1522.94,1349.74 1524.28,1349.74 1525.62,1349.74 1526.96,1349.74 1528.3,1349.74 1529.65,1349.74 1530.99,1349.74 1532.33,1349.74 1533.67,1349.74 1535.01,1349.74 1536.35,1349.74 1537.69,1349.74 1539.03,1349.74 1540.37,1349.74 1541.71,1349.74 1543.05,1349.74 1544.39,1349.74 1545.73,1349.74 1547.07,1349.74 1548.41,1349.74 1549.75,1349.74 1551.09,1349.74 1552.43,1349.74 1553.78,1349.74 1555.12,1349.74 1556.46,1349.74 1557.8,1349.74 1559.14,1349.74 1560.48,1349.74 1561.82,1349.74 1563.16,1349.74 1564.5,1349.74 1565.84,1349.74 1567.18,1349.74 1568.52,1349.74 1569.86,1349.74 1571.2,1349.74 1572.54,1349.74 1573.88,1349.74 1575.22,1349.74 1576.57,1349.74 1577.91,1349.74 1579.25,1349.74 1580.59,1349.74 1581.93,1349.74 1583.27,1349.74 1584.61,1349.74 1585.95,1349.74 1587.29,1349.74 1588.63,1349.74 1589.97,1349.74 1591.31,1349.74 1592.65,1349.74 1593.99,1349.74 1595.33,1349.74 1596.67,1349.74 1598.01,1349.74 1599.35,1349.74 1600.7,1349.74 1602.04,1349.74 1603.38,1349.74 1604.72,1349.74 1606.06,1349.74 1607.4,1349.74 1608.74,1349.74 1610.08,1349.74 1611.42,1349.74 1612.76,1349.74 1614.1,1349.74 1615.44,1349.74 1616.78,1349.74 1618.12,1349.74 1619.46,1349.74 1620.8,1349.74 1622.14,1349.74 1623.49,1349.74 1624.83,1349.74 1626.17,1349.74 1627.51,1349.74 1628.85,1349.74 1630.19,1349.74 1631.53,1349.74 1632.87,1349.74 1634.21,1349.74 1635.55,1349.74 1636.89,1349.74 1638.23,1349.74 1639.57,1349.74 1640.91,1349.74 1642.25,1349.74 1643.59,1349.74 1644.93,1349.74 1646.27,1349.74 1647.62,1349.74 1648.96,1349.74 1650.3,1349.74 1651.64,1349.74 1652.98,1349.74 1654.32,1349.74 1655.66,1349.74 1657,1349.74 1658.34,1349.74 1659.68,1349.74 1661.02,1349.74 1662.36,1349.74 1663.7,1349.74 1665.04,1349.74 1666.38,1349.74 1667.72,1349.74 1669.06,1349.74 1670.41,1349.74 1671.75,1349.74 1673.09,1349.74 1674.43,1349.74 1675.77,1349.74 1677.11,1349.74 1678.45,1349.74 1679.79,1349.74 1681.13,1349.74 1682.47,1349.74 1683.81,1349.74 1685.15,1349.74 1686.49,1349.74 1687.83,1349.74 1689.17,1349.74 1690.51,1349.74 1691.85,1349.74 1693.19,1349.74 1694.54,1349.74 1695.88,1349.74 1697.22,1349.74 1698.56,1349.74 1699.9,1349.74 1701.24,1349.74 1702.58,1349.74 1703.92,1349.74 1705.26,1349.74 1706.6,1349.74 1707.94,1349.74 1709.28,1349.74 1710.62,1349.74 1711.96,1349.74 1713.3,1349.74 1714.64,1349.74 1715.98,1349.74 1717.33,1349.74 1718.67,1349.74 1720.01,1349.74 1721.35,1349.74 1722.69,1349.74 1724.03,1349.74 1725.37,1349.74 1726.71,1349.74 1728.05,1349.74 1729.39,1349.74 1730.73,1349.74 1732.07,1349.74 1733.41,1349.74 1734.75,1349.74 1736.09,1349.74 1737.43,1349.74 1738.77,1349.74 1740.11,1349.74 1741.46,1349.74 1742.8,1349.74 1744.14,1349.74 1745.48,1349.74 1746.82,1349.74 1748.16,1349.74 1749.5,1349.74 1750.84,1349.74 1752.18,1349.74 1753.52,1349.74 1754.86,1349.74 1756.2,1349.74 1757.54,1349.74 1758.88,1349.74 1760.22,1349.74 1761.56,1349.74 1762.9,1349.74 1764.25,1349.74 1765.59,1349.74 1766.93,1349.74 1768.27,1349.74 1769.61,1349.74 1770.95,1349.74 1772.29,1349.74 1773.63,1349.74 1774.97,1349.74 1776.31,1349.74 1777.65,1349.74 1778.99,1349.74 1780.33,1349.74 1781.67,1349.74 1783.01,1349.74 1784.35,1349.74 1785.69,1349.74 1787.03,1349.74 1788.38,1349.74 1789.72,1349.74 1791.06,1349.74 1792.4,1349.74 1793.74,1349.74 1795.08,1349.74 1796.42,1349.74 1797.76,1349.74 1799.1,1349.74 1800.44,1349.74 1801.78,1349.74 1803.12,1349.74 1804.46,1349.74 1805.8,1349.74 1807.14,1349.74 1808.48,1349.74 1809.82,1349.74 1811.17,1349.74 1812.51,1349.74 1813.85,1349.74 1815.19,1349.74 1816.53,1349.74 1817.87,1349.74 1819.21,1349.74 1820.55,1349.74 1821.89,1349.74 1823.23,1349.74 1824.57,1349.74 1825.91,1349.74 1827.25,1349.74 1828.59,1349.74 1829.93,1349.74 1831.27,1349.74 1832.61,1349.74 1833.95,1349.74 1835.3,1349.74 1836.64,1349.74 1837.98,1349.74 1839.32,1349.74 1840.66,1349.74 1842,1349.74 1843.34,1349.74 1844.68,1349.74 1846.02,1349.74 1847.36,1349.74 1848.7,1349.74 1850.04,1349.74 1851.38,1349.74 1852.72,1349.74 1854.06,1349.74 1855.4,1349.74 1856.74,1349.74 1858.09,1349.74 1859.43,1349.74 1860.77,1349.74 1862.11,1349.74 1863.45,1349.74 1864.79,1349.74 1866.13,1349.74 1867.47,1349.74 1868.81,1349.74 1870.15,1349.74 1871.49,1349.74 1872.83,1349.74 1874.17,1349.74 1875.51,1349.74 1876.85,1349.74 1878.19,1349.74 1879.53,1349.74 1880.87,1349.74 1882.22,1349.74 1883.56,1349.74 1884.9,1349.74 1886.24,1349.74 1887.58,1349.74 1888.92,1349.74 1890.26,1349.74 1891.6,1349.74 1892.94,1349.74 1894.28,1349.74 1895.62,1349.74 1896.96,1349.74 1898.3,1349.74 1899.64,1349.74 1900.98,1349.74 1902.32,1349.74 1903.66,1349.74 1905.01,1349.74 1906.35,1349.74 1907.69,1349.74 1909.03,1349.74 1910.37,1349.74 1911.71,1349.74 1913.05,1349.74 1914.39,1349.74 1915.73,1349.74 1917.07,1349.74 1918.41,1349.74 1919.75,1349.74 1921.09,1349.74 1922.43,1349.74 1923.77,1349.74 1925.11,1349.74 1926.45,1349.74 1927.79,1349.74 1929.14,1349.74 1930.48,1349.74 1931.82,1349.74 1933.16,1349.74 1934.5,1349.74 1935.84,1349.74 1937.18,1349.74 1938.52,1349.74 1939.86,1349.74 1941.2,1349.74 1942.54,1349.74 1943.88,1349.74 1945.22,1349.74 1946.56,1349.74 1947.9,1349.74 1949.24,1349.74 1950.58,1349.74 1951.93,1349.74 1953.27,1349.74 1954.61,1349.74 1955.95,1349.74 1957.29,1349.74 1958.63,1349.74 1959.97,1349.74 1961.31,1349.74 1962.65,1349.74 1963.99,1349.74 1965.33,1349.74 1966.67,1349.74 1968.01,1349.74 1969.35,1349.74 1970.69,1349.74 1972.03,1349.74 1973.37,1349.74 1974.71,1349.74 1976.06,1349.74 1977.4,1349.74 1978.74,1349.74 1980.08,1349.74 1981.42,1349.74 1982.76,1349.74 1984.1,1349.74 1985.44,1349.74 1986.78,1349.74 1988.12,1349.74 1989.46,1349.74 1990.8,1349.74 1992.14,1349.74 1993.48,1349.74 1994.82,1349.74 1996.16,1349.74 1997.5,1349.74 1998.85,1349.74 2000.19,1349.74 2001.53,1349.74 2002.87,1349.74 2004.21,1349.74 2005.55,1349.74 2006.89,1349.74 2008.23,1349.74 2009.57,1349.74 2010.91,1349.74 2012.25,1349.74 2013.59,1349.74 2014.93,1349.74 2016.27,1349.74 2017.61,1349.74 2018.95,1349.74 2020.29,1349.74 2021.63,1349.74 2022.98,1349.74 2024.32,1349.74 2025.66,1349.74 2027,1349.74 2028.34,1349.74 2029.68,1349.74 2031.02,1349.74 2032.36,1349.74 2033.7,1349.74 2035.04,1349.74 2036.38,1349.74 2037.72,1349.74 2039.06,1349.74 2040.4,1349.74 2041.74,1349.74 2043.08,1349.74 2044.42,1349.74 2045.77,1349.74 2047.11,1349.74 2048.45,1349.74 2049.79,1349.74 2051.13,1349.74 2052.47,1349.74 2053.81,1349.74 2055.15,1349.74 2056.49,1349.74 2057.83,1349.74 2059.17,1349.74 2060.51,1349.74 2061.85,1349.74 2063.19,1349.74 2064.53,1349.74 2065.87,1349.74 2067.21,1349.74 2068.55,1349.74 2069.9,1349.74 2071.24,1349.74 2072.58,1349.74 2073.92,1349.74 2075.26,1349.74 2076.6,1349.74 2077.94,1349.74 2079.28,1349.74 2080.62,1349.74 2081.96,1349.74 2083.3,1349.74 2084.64,1349.74 2085.98,1349.74 2087.32,1349.74 2088.66,1349.74 2090,1349.74 2091.34,1349.74 2092.69,1349.74 2094.03,1349.74 2095.37,1349.74 2096.71,1349.74 2098.05,1349.74 2099.39,1349.74 2100.73,1349.74 2102.07,1349.74 2103.41,1349.74 2104.75,1349.74 2106.09,1349.74 2107.43,1349.74 2108.77,1349.74 2110.11,1349.74 2111.45,1349.74 2112.79,1349.74 2114.13,1349.74 2115.47,1349.74 2116.82,1349.74 2118.16,1349.74 2119.5,1349.74 2120.84,1349.74 2122.18,1349.74 2123.52,1349.74 2124.86,1349.74 2126.2,1349.74 2127.54,1349.74 2128.88,1349.74 2130.22,1349.74 2131.56,1349.74 2132.9,1349.74 2134.24,1349.74 2135.58,1349.74 2136.92,1349.74 2138.26,1349.74 2139.61,1349.74 2140.95,1349.74 2142.29,1349.74 2143.63,1349.74 2144.97,1349.74 2146.31,1349.74 2147.65,1349.74 2148.99,1349.74 2150.33,1349.74 2151.67,1349.74 2153.01,1349.74 2154.35,1349.74 2155.69,1349.74 2157.03,1349.74 2158.37,1349.74 2159.71,1349.74 2161.05,1349.74 2162.39,1349.74 2163.74,1349.74 2165.08,1349.74 2166.42,1349.74 2167.76,1349.74 2169.1,1349.74 2170.44,1349.74 2171.78,1349.74 2173.12,1349.74 2174.46,1349.74 2175.8,1349.74 2177.14,1349.74 2178.48,1349.74 2179.82,1349.74 2181.16,1349.74 2182.5,1349.74 2183.84,1349.74 2185.18,1349.74 2186.53,1349.74 2187.87,1349.74 2189.21,1349.74 2190.55,1349.74 2191.89,1349.74 2193.23,1349.74 2194.57,1349.74 2195.91,1349.74 2197.25,1349.74 2198.59,1349.74 2199.93,1349.74 2201.27,1349.74 2202.61,1349.74 2203.95,1349.74 2205.29,1349.74 2206.63,1349.74 2207.97,1349.74 2209.31,1349.74 2210.66,1349.74 2212,1349.74 2213.34,1349.74 2214.68,1349.74 2216.02,1349.74 2217.36,1349.74 2218.7,1349.74 2220.04,1349.74 2221.38,1349.74 2222.72,1349.74 2224.06,1349.74 2225.4,1349.74 2226.74,1349.74 2228.08,1349.74 2229.42,1349.74 2230.76,1349.74 2232.1,1349.74 2233.45,1349.74 2234.79,1349.74 2236.13,1349.74 2237.47,1349.74 2238.81,1349.74 2240.15,1349.74 2241.49,1349.74 2242.83,1349.74 2244.17,1349.74 2245.51,1349.74 2246.85,1349.74 2248.19,1349.74 2249.53,1349.74 2250.87,1349.74 2252.21,1349.74 2253.55,1349.74 2254.89,1349.74 2256.23,1349.74 2257.58,1349.74 2258.92,1349.74 2260.26,1349.74 2261.6,1349.74 2262.94,1349.74 2264.28,1349.74 2265.62,1349.74 2266.96,1349.74 2268.3,1349.74 2269.64,1349.74 2270.98,1349.74 2272.32,1349.74 2273.66,1349.74 2275,1349.74 2276.34,1349.74 2277.68,1349.74 2279.02,1349.74 2280.37,1349.74 2281.71,1349.74 2283.05,1349.74 2284.39,1349.74 2285.73,1349.74 2287.07,1349.74 2288.41,1349.74 2289.75,1349.74 2291.09,1349.74 2292.43,1349.74 2293.77,1349.74 2295.11,1349.74 2296.45,1349.74 2297.79,1349.74 2299.13,1349.74 2300.47,1349.74 2301.81,1349.74 2303.15,1349.74 2304.5,1349.74 2305.84,1349.74 2307.18,1349.74 2308.52,1349.74 2309.86,1349.74 2311.2,1349.74 2312.54,1349.74 2313.88,1349.74 2315.22,1349.74 2316.56,1349.74 2317.9,1349.74 2319.24,1349.74 2320.58,1349.74 2321.92,1349.74 2323.26,1349.74 2324.6,1349.74 2325.94,1349.74 2327.29,1349.74 2328.63,1349.74 2329.97,1349.74 2331.31,1349.74 2332.65,1349.74 2333.99,1349.74 2335.33,1349.74 2336.67,1349.74 2338.01,1349.74 2339.35,1349.74 2340.69,1349.74 2342.03,1349.74 2343.37,1349.74 2344.71,1349.74 2346.05,1349.74 2347.39,1349.74 2348.73,1349.74 2350.07,1349.74 2351.42,1349.74 2352.76,1349.74 "/>
<path clip-path="url(#clip910)" d="M1962.58 323.941 L2285.1 323.941 L2285.1 90.6606 L1962.58 90.6606  Z" fill="#ffffff" fill-rule="evenodd" fill-opacity="1"/>
<polyline clip-path="url(#clip910)" style="stroke:#000000; stroke-linecap:round; stroke-linejoin:round; stroke-width:4; stroke-opacity:1; fill:none" points="1962.58,323.941 2285.1,323.941 2285.1,90.6606 1962.58,90.6606 1962.58,323.941 "/>
<polyline clip-path="url(#clip910)" style="stroke:#009af9; stroke-linecap:round; stroke-linejoin:round; stroke-width:18; stroke-opacity:1; fill:none" points="1985.13,207.301 2120.44,207.301 "/>
<circle clip-path="url(#clip910)" cx="2052.79" cy="207.301" r="8.35237" fill="#009af9" fill-rule="evenodd" fill-opacity="1" stroke="#000000" stroke-opacity="1" stroke-width="7.42433"/>
<path clip-path="url(#clip910)" d="M2142.99 246.181 L2142.99 168.421 L2172.33 168.421 Q2180.07 168.421 2184.15 169.163 Q2189.88 170.118 2193.75 172.823 Q2197.63 175.475 2199.96 180.302 Q2202.35 185.129 2202.35 190.911 Q2202.35 200.829 2196.04 207.725 Q2189.72 214.567 2173.23 214.567 L2153.28 214.567 L2153.28 246.181 L2142.99 246.181 M2153.28 205.391 L2173.39 205.391 Q2183.36 205.391 2187.55 201.678 Q2191.74 197.965 2191.74 191.229 Q2191.74 186.349 2189.25 182.901 Q2186.81 179.4 2182.77 178.286 Q2180.18 177.597 2173.17 177.597 L2153.28 177.597 L2153.28 205.391 Z" fill="#000000" fill-rule="nonzero" fill-opacity="1" /><path clip-path="url(#clip910)" d="M2211.63 225.653 L2221.18 224.38 Q2222.82 232.496 2226.75 236.103 Q2230.72 239.656 2236.4 239.656 Q2243.14 239.656 2247.75 234.989 Q2252.42 230.321 2252.42 223.425 Q2252.42 216.848 2248.12 212.605 Q2243.83 208.308 2237.2 208.308 Q2234.49 208.308 2230.46 209.369 L2231.52 200.989 Q2232.48 201.095 2233.06 201.095 Q2239.16 201.095 2244.04 197.912 Q2248.92 194.73 2248.92 188.099 Q2248.92 182.848 2245.36 179.4 Q2241.81 175.953 2236.19 175.953 Q2230.62 175.953 2226.91 179.453 Q2223.19 182.954 2222.13 189.956 L2212.58 188.258 Q2214.33 178.658 2220.54 173.407 Q2226.75 168.102 2235.98 168.102 Q2242.34 168.102 2247.7 170.861 Q2253.06 173.566 2255.87 178.286 Q2258.73 183.007 2258.73 188.311 Q2258.73 193.35 2256.03 197.488 Q2253.32 201.625 2248.02 204.065 Q2254.91 205.656 2258.73 210.695 Q2262.55 215.681 2262.55 223.213 Q2262.55 233.397 2255.12 240.505 Q2247.7 247.56 2236.35 247.56 Q2226.11 247.56 2219.32 241.46 Q2212.58 235.36 2211.63 225.653 Z" fill="#000000" fill-rule="nonzero" fill-opacity="1" /></svg>
