<?xml version="1.0" encoding="utf-8"?>
<svg xmlns="http://www.w3.org/2000/svg" xmlns:xlink="http://www.w3.org/1999/xlink" width="600" height="400" viewBox="0 0 2400 1600">
<defs>
  <clipPath id="clip850">
    <rect x="0" y="0" width="2400" height="1600"/>
  </clipPath>
</defs>
<path clip-path="url(#clip850)" d="M0 1600 L2400 1600 L2400 8.88178e-14 L0 8.88178e-14  Z" fill="#ffffff" fill-rule="evenodd" fill-opacity="1"/>
<defs>
  <clipPath id="clip851">
    <rect x="480" y="0" width="1681" height="1600"/>
  </clipPath>
</defs>
<path clip-path="url(#clip850)" d="M444.969 1349.74 L2352.76 1349.74 L2352.76 47.2441 L444.969 47.2441  Z" fill="#ffffff" fill-rule="evenodd" fill-opacity="1"/>
<defs>
  <clipPath id="clip852">
    <rect x="444" y="47" width="1909" height="1303"/>
  </clipPath>
</defs>
<polyline clip-path="url(#clip850)" style="stroke:#000000; stroke-linecap:round; stroke-linejoin:round; stroke-width:4; stroke-opacity:1; fill:none" points="444.969,1349.74 2352.76,1349.74 "/>
<polyline clip-path="url(#clip850)" style="stroke:#000000; stroke-linecap:round; stroke-linejoin:round; stroke-width:2; stroke-opacity:0.5; fill:none" points="444.969,47.2441 2352.76,47.2441 "/>
<polyline clip-path="url(#clip850)" style="stroke:#000000; stroke-linecap:round; stroke-linejoin:round; stroke-width:4; stroke-opacity:1; fill:none" points="910.051,1349.74 910.051,1330.84 "/>
<polyline clip-path="url(#clip850)" style="stroke:#000000; stroke-linecap:round; stroke-linejoin:round; stroke-width:4; stroke-opacity:1; fill:none" points="1384.63,1349.74 1384.63,1330.84 "/>
<polyline clip-path="url(#clip850)" style="stroke:#000000; stroke-linecap:round; stroke-linejoin:round; stroke-width:4; stroke-opacity:1; fill:none" points="1859.2,1349.74 1859.2,1330.84 "/>
<polyline clip-path="url(#clip850)" style="stroke:#000000; stroke-linecap:round; stroke-linejoin:round; stroke-width:4; stroke-opacity:1; fill:none" points="2333.77,1349.74 2333.77,1330.84 "/>
<path clip-path="url(#clip850)" d="M854.49 1445.77 L864.515 1444.92 Q865.628 1452.24 869.66 1455.96 Q873.744 1459.62 879.473 1459.62 Q886.368 1459.62 891.142 1454.42 Q895.916 1449.22 895.916 1440.63 Q895.916 1432.46 891.301 1427.74 Q886.739 1423.02 879.313 1423.02 Q874.699 1423.02 870.986 1425.14 Q867.273 1427.21 865.151 1430.55 L856.187 1429.38 L863.719 1389.44 L902.387 1389.44 L902.387 1398.56 L871.357 1398.56 L867.167 1419.46 Q874.168 1414.58 881.859 1414.58 Q892.044 1414.58 899.045 1421.64 Q906.047 1428.69 906.047 1439.78 Q906.047 1450.33 899.894 1458.02 Q892.415 1467.47 879.473 1467.47 Q868.864 1467.47 862.128 1461.53 Q855.444 1455.58 854.49 1445.77 Z" fill="#000000" fill-rule="nonzero" fill-opacity="1" /><path clip-path="url(#clip850)" d="M914.905 1427.79 Q914.905 1414 917.716 1405.62 Q920.58 1397.18 926.15 1392.62 Q931.772 1388.06 940.259 1388.06 Q946.518 1388.06 951.239 1390.61 Q955.96 1393.1 959.036 1397.87 Q962.112 1402.6 963.863 1409.44 Q965.613 1416.23 965.613 1427.79 Q965.613 1441.48 962.802 1449.91 Q959.991 1458.29 954.368 1462.9 Q948.799 1467.47 940.259 1467.47 Q929.014 1467.47 922.596 1459.4 Q914.905 1449.7 914.905 1427.79 M924.718 1427.79 Q924.718 1446.94 929.173 1453.3 Q933.682 1459.62 940.259 1459.62 Q946.836 1459.62 951.292 1453.25 Q955.8 1446.89 955.8 1427.79 Q955.8 1408.59 951.292 1402.28 Q946.836 1395.96 940.153 1395.96 Q933.576 1395.96 929.651 1401.53 Q924.718 1408.64 924.718 1427.79 Z" fill="#000000" fill-rule="nonzero" fill-opacity="1" /><path clip-path="url(#clip850)" d="M1331.16 1466.14 L1321.61 1466.14 L1321.61 1405.3 Q1318.16 1408.59 1312.54 1411.88 Q1306.97 1415.17 1302.52 1416.81 L1302.52 1407.58 Q1310.53 1403.82 1316.52 1398.46 Q1322.51 1393.1 1325.01 1388.06 L1331.16 1388.06 L1331.16 1466.14 Z" fill="#000000" fill-rule="nonzero" fill-opacity="1" /><path clip-path="url(#clip850)" d="M1355.61 1427.79 Q1355.61 1414 1358.42 1405.62 Q1361.29 1397.18 1366.86 1392.62 Q1372.48 1388.06 1380.97 1388.06 Q1387.22 1388.06 1391.95 1390.61 Q1396.67 1393.1 1399.74 1397.87 Q1402.82 1402.6 1404.57 1409.44 Q1406.32 1416.23 1406.32 1427.79 Q1406.32 1441.48 1403.51 1449.91 Q1400.7 1458.29 1395.07 1462.9 Q1389.51 1467.47 1380.97 1467.47 Q1369.72 1467.47 1363.3 1459.4 Q1355.61 1449.7 1355.61 1427.79 M1365.42 1427.79 Q1365.42 1446.94 1369.88 1453.3 Q1374.39 1459.62 1380.97 1459.62 Q1387.54 1459.62 1392 1453.25 Q1396.51 1446.89 1396.51 1427.79 Q1396.51 1408.59 1392 1402.28 Q1387.54 1395.96 1380.86 1395.96 Q1374.28 1395.96 1370.36 1401.53 Q1365.42 1408.64 1365.42 1427.79 Z" fill="#000000" fill-rule="nonzero" fill-opacity="1" /><path clip-path="url(#clip850)" d="M1416.03 1427.79 Q1416.03 1414 1418.84 1405.62 Q1421.7 1397.18 1427.27 1392.62 Q1432.89 1388.06 1441.38 1388.06 Q1447.64 1388.06 1452.36 1390.61 Q1457.08 1393.1 1460.16 1397.87 Q1463.23 1402.6 1464.98 1409.44 Q1466.73 1416.23 1466.73 1427.79 Q1466.73 1441.48 1463.92 1449.91 Q1461.11 1458.29 1455.49 1462.9 Q1449.92 1467.47 1441.38 1467.47 Q1430.14 1467.47 1423.72 1459.4 Q1416.03 1449.7 1416.03 1427.79 M1425.84 1427.79 Q1425.84 1446.94 1430.29 1453.3 Q1434.8 1459.62 1441.38 1459.62 Q1447.96 1459.62 1452.41 1453.25 Q1456.92 1446.89 1456.92 1427.79 Q1456.92 1408.59 1452.41 1402.28 Q1447.96 1395.96 1441.27 1395.96 Q1434.7 1395.96 1430.77 1401.53 Q1425.84 1408.64 1425.84 1427.79 Z" fill="#000000" fill-rule="nonzero" fill-opacity="1" /><path clip-path="url(#clip850)" d="M1805.73 1466.14 L1796.18 1466.14 L1796.18 1405.3 Q1792.74 1408.59 1787.11 1411.88 Q1781.55 1415.17 1777.09 1416.81 L1777.09 1407.58 Q1785.1 1403.82 1791.09 1398.46 Q1797.09 1393.1 1799.58 1388.06 L1805.73 1388.06 L1805.73 1466.14 Z" fill="#000000" fill-rule="nonzero" fill-opacity="1" /><path clip-path="url(#clip850)" d="M1830.18 1445.77 L1840.21 1444.92 Q1841.32 1452.24 1845.36 1455.96 Q1849.44 1459.62 1855.17 1459.62 Q1862.06 1459.62 1866.84 1454.42 Q1871.61 1449.22 1871.61 1440.63 Q1871.61 1432.46 1867 1427.74 Q1862.43 1423.02 1855.01 1423.02 Q1850.39 1423.02 1846.68 1425.14 Q1842.97 1427.21 1840.85 1430.55 L1831.88 1429.38 L1839.41 1389.44 L1878.08 1389.44 L1878.08 1398.56 L1847.05 1398.56 L1842.86 1419.46 Q1849.86 1414.58 1857.55 1414.58 Q1867.74 1414.58 1874.74 1421.64 Q1881.74 1428.69 1881.74 1439.78 Q1881.74 1450.33 1875.59 1458.02 Q1868.11 1467.47 1855.17 1467.47 Q1844.56 1467.47 1837.82 1461.53 Q1831.14 1455.58 1830.18 1445.77 Z" fill="#000000" fill-rule="nonzero" fill-opacity="1" /><path clip-path="url(#clip850)" d="M1890.6 1427.79 Q1890.6 1414 1893.41 1405.62 Q1896.28 1397.18 1901.85 1392.62 Q1907.47 1388.06 1915.95 1388.06 Q1922.21 1388.06 1926.93 1390.61 Q1931.65 1393.1 1934.73 1397.87 Q1937.81 1402.6 1939.56 1409.44 Q1941.31 1416.23 1941.31 1427.79 Q1941.31 1441.48 1938.5 1449.91 Q1935.69 1458.29 1930.06 1462.9 Q1924.49 1467.47 1915.95 1467.47 Q1904.71 1467.47 1898.29 1459.4 Q1890.6 1449.7 1890.6 1427.79 M1900.41 1427.79 Q1900.41 1446.94 1904.87 1453.3 Q1909.38 1459.62 1915.95 1459.62 Q1922.53 1459.62 1926.99 1453.25 Q1931.5 1446.89 1931.5 1427.79 Q1931.5 1408.59 1926.99 1402.28 Q1922.53 1395.96 1915.85 1395.96 Q1909.27 1395.96 1905.35 1401.53 Q1900.41 1408.64 1900.41 1427.79 Z" fill="#000000" fill-rule="nonzero" fill-opacity="1" /><path clip-path="url(#clip850)" d="M2298.84 1456.96 L2298.84 1466.14 L2247.45 1466.14 Q2247.34 1462.69 2248.56 1459.51 Q2250.52 1454.26 2254.82 1449.17 Q2259.17 1444.07 2267.34 1437.39 Q2280.01 1426.99 2284.47 1420.95 Q2288.93 1414.85 2288.93 1409.44 Q2288.93 1403.76 2284.84 1399.89 Q2280.81 1395.96 2274.29 1395.96 Q2267.39 1395.96 2263.25 1400.1 Q2259.12 1404.24 2259.06 1411.56 L2249.25 1410.55 Q2250.26 1399.57 2256.84 1393.84 Q2263.41 1388.06 2274.5 1388.06 Q2285.69 1388.06 2292.21 1394.27 Q2298.74 1400.47 2298.74 1409.65 Q2298.74 1414.32 2296.83 1418.83 Q2294.92 1423.33 2290.46 1428.32 Q2286.06 1433.31 2275.77 1442.01 Q2267.18 1449.22 2264.74 1451.82 Q2262.3 1454.36 2260.71 1456.96 L2298.84 1456.96 Z" fill="#000000" fill-rule="nonzero" fill-opacity="1" /><path clip-path="url(#clip850)" d="M2309.08 1427.79 Q2309.08 1414 2311.89 1405.62 Q2314.76 1397.18 2320.33 1392.62 Q2325.95 1388.06 2334.44 1388.06 Q2340.69 1388.06 2345.42 1390.61 Q2350.14 1393.1 2353.21 1397.87 Q2356.29 1402.6 2358.04 1409.44 Q2359.79 1416.23 2359.79 1427.79 Q2359.79 1441.48 2356.98 1449.91 Q2354.17 1458.29 2348.55 1462.9 Q2342.98 1467.47 2334.44 1467.47 Q2323.19 1467.47 2316.77 1459.4 Q2309.08 1449.7 2309.08 1427.79 M2318.89 1427.79 Q2318.89 1446.94 2323.35 1453.3 Q2327.86 1459.62 2334.44 1459.62 Q2341.01 1459.62 2345.47 1453.25 Q2349.98 1446.89 2349.98 1427.79 Q2349.98 1408.59 2345.47 1402.28 Q2341.01 1395.96 2334.33 1395.96 Q2327.75 1395.96 2323.83 1401.53 Q2318.89 1408.64 2318.89 1427.79 Z" fill="#000000" fill-rule="nonzero" fill-opacity="1" /><path clip-path="url(#clip850)" d="M2369.5 1427.79 Q2369.5 1414 2372.31 1405.62 Q2375.17 1397.18 2380.74 1392.62 Q2386.36 1388.06 2394.85 1388.06 Q2401.11 1388.06 2405.83 1390.61 Q2410.55 1393.1 2413.63 1397.87 Q2416.7 1402.6 2418.45 1409.44 Q2420.21 1416.23 2420.21 1427.79 Q2420.21 1441.48 2417.39 1449.91 Q2414.58 1458.29 2408.96 1462.9 Q2403.39 1467.47 2394.85 1467.47 Q2383.61 1467.47 2377.19 1459.4 Q2369.5 1449.7 2369.5 1427.79 M2379.31 1427.79 Q2379.31 1446.94 2383.77 1453.3 Q2388.27 1459.62 2394.85 1459.62 Q2401.43 1459.62 2405.88 1453.25 Q2410.39 1446.89 2410.39 1427.79 Q2410.39 1408.59 2405.88 1402.28 Q2401.43 1395.96 2394.75 1395.96 Q2388.17 1395.96 2384.24 1401.53 Q2379.31 1408.64 2379.31 1427.79 Z" fill="#000000" fill-rule="nonzero" fill-opacity="1" /><path clip-path="url(#clip850)" d="M1298.29 1577.55 L1308.16 1578.77 Q1305.83 1587.42 1299.51 1592.19 Q1293.2 1596.96 1283.39 1596.96 Q1271.03 1596.96 1263.76 1589.38 Q1256.55 1581.74 1256.55 1568 Q1256.55 1553.79 1263.87 1545.94 Q1271.19 1538.09 1282.86 1538.09 Q1294.16 1538.09 1301.32 1545.78 Q1308.48 1553.47 1308.48 1567.42 Q1308.48 1568.27 1308.43 1569.97 L1266.42 1569.97 Q1266.95 1579.25 1271.67 1584.18 Q1276.39 1589.11 1283.44 1589.11 Q1288.69 1589.11 1292.41 1586.36 Q1296.12 1583.6 1298.29 1577.55 M1266.95 1562.12 L1298.4 1562.12 Q1297.76 1555.01 1294.79 1551.45 Q1290.23 1545.94 1282.97 1545.94 Q1276.39 1545.94 1271.88 1550.34 Q1267.42 1554.74 1266.95 1562.12 Z" fill="#000000" fill-rule="nonzero" fill-opacity="1" /><path clip-path="url(#clip850)" d="M1320.15 1617.28 L1320.15 1539.36 L1328.85 1539.36 L1328.85 1546.68 Q1331.92 1542.38 1335.8 1540.26 Q1339.67 1538.09 1345.18 1538.09 Q1352.4 1538.09 1357.91 1541.8 Q1363.43 1545.51 1366.24 1552.3 Q1369.05 1559.04 1369.05 1567.1 Q1369.05 1575.75 1365.92 1582.7 Q1362.85 1589.59 1356.91 1593.3 Q1351.02 1596.96 1344.49 1596.96 Q1339.72 1596.96 1335.9 1594.95 Q1332.14 1592.93 1329.7 1589.86 L1329.7 1617.28 L1320.15 1617.28 M1328.79 1567.84 Q1328.79 1578.72 1333.2 1583.92 Q1337.6 1589.11 1343.86 1589.11 Q1350.22 1589.11 1354.73 1583.76 Q1359.29 1578.35 1359.29 1567.05 Q1359.29 1556.28 1354.84 1550.92 Q1350.43 1545.57 1344.28 1545.57 Q1338.18 1545.57 1333.46 1551.3 Q1328.79 1556.97 1328.79 1567.84 Z" fill="#000000" fill-rule="nonzero" fill-opacity="1" /><path clip-path="url(#clip850)" d="M1377.01 1567.53 Q1377.01 1551.88 1385.71 1544.35 Q1392.97 1538.09 1403.42 1538.09 Q1415.04 1538.09 1422.41 1545.73 Q1429.79 1553.31 1429.79 1566.73 Q1429.79 1577.6 1426.5 1583.86 Q1423.26 1590.07 1417 1593.52 Q1410.8 1596.96 1403.42 1596.96 Q1391.6 1596.96 1384.28 1589.38 Q1377.01 1581.79 1377.01 1567.53 M1386.82 1567.53 Q1386.82 1578.35 1391.54 1583.76 Q1396.26 1589.11 1403.42 1589.11 Q1410.53 1589.11 1415.25 1583.7 Q1419.97 1578.29 1419.97 1567.21 Q1419.97 1556.76 1415.2 1551.4 Q1410.48 1545.99 1403.42 1545.99 Q1396.26 1545.99 1391.54 1551.35 Q1386.82 1556.71 1386.82 1567.53 Z" fill="#000000" fill-rule="nonzero" fill-opacity="1" /><path clip-path="url(#clip850)" d="M1477.74 1575.06 L1487.12 1576.28 Q1485.59 1585.99 1479.22 1591.5 Q1472.91 1596.96 1463.68 1596.96 Q1452.12 1596.96 1445.06 1589.43 Q1438.06 1581.85 1438.06 1567.74 Q1438.06 1558.62 1441.08 1551.77 Q1444.11 1544.93 1450.26 1541.54 Q1456.47 1538.09 1463.73 1538.09 Q1472.91 1538.09 1478.74 1542.76 Q1484.58 1547.37 1486.22 1555.91 L1476.94 1557.34 Q1475.61 1551.67 1472.22 1548.8 Q1468.88 1545.94 1464.1 1545.94 Q1456.89 1545.94 1452.38 1551.14 Q1447.87 1556.28 1447.87 1567.47 Q1447.87 1578.82 1452.22 1583.97 Q1456.57 1589.11 1463.57 1589.11 Q1469.2 1589.11 1472.96 1585.67 Q1476.73 1582.22 1477.74 1575.06 Z" fill="#000000" fill-rule="nonzero" fill-opacity="1" /><path clip-path="url(#clip850)" d="M1495.29 1595.69 L1495.29 1517.93 L1504.84 1517.93 L1504.84 1545.83 Q1511.52 1538.09 1521.71 1538.09 Q1527.97 1538.09 1532.58 1540.58 Q1537.2 1543.02 1539.16 1547.37 Q1541.17 1551.72 1541.17 1559.99 L1541.17 1595.69 L1531.63 1595.69 L1531.63 1559.99 Q1531.63 1552.83 1528.5 1549.6 Q1525.42 1546.31 1519.75 1546.31 Q1515.5 1546.31 1511.74 1548.54 Q1508.02 1550.71 1506.43 1554.48 Q1504.84 1558.24 1504.84 1564.87 L1504.84 1595.69 L1495.29 1595.69 Z" fill="#000000" fill-rule="nonzero" fill-opacity="1" /><polyline clip-path="url(#clip850)" style="stroke:#000000; stroke-linecap:round; stroke-linejoin:round; stroke-width:4; stroke-opacity:1; fill:none" points="444.969,1349.74 444.969,47.2441 "/>
<polyline clip-path="url(#clip850)" style="stroke:#000000; stroke-linecap:round; stroke-linejoin:round; stroke-width:2; stroke-opacity:0.5; fill:none" points="2352.76,1349.74 2352.76,47.2441 "/>
<polyline clip-path="url(#clip850)" style="stroke:#000000; stroke-linecap:round; stroke-linejoin:round; stroke-width:4; stroke-opacity:1; fill:none" points="444.969,1123.91 463.867,1123.91 "/>
<polyline clip-path="url(#clip850)" style="stroke:#000000; stroke-linecap:round; stroke-linejoin:round; stroke-width:4; stroke-opacity:1; fill:none" points="444.969,854.856 463.867,854.856 "/>
<polyline clip-path="url(#clip850)" style="stroke:#000000; stroke-linecap:round; stroke-linejoin:round; stroke-width:4; stroke-opacity:1; fill:none" points="444.969,585.805 463.867,585.805 "/>
<polyline clip-path="url(#clip850)" style="stroke:#000000; stroke-linecap:round; stroke-linejoin:round; stroke-width:4; stroke-opacity:1; fill:none" points="444.969,316.755 463.867,316.755 "/>
<polyline clip-path="url(#clip850)" style="stroke:#000000; stroke-linecap:round; stroke-linejoin:round; stroke-width:4; stroke-opacity:1; fill:none" points="444.969,47.7052 463.867,47.7052 "/>
<path clip-path="url(#clip850)" d="M195.845 1128.89 L144.5 1128.89 L144.5 1119.98 L195.845 1119.98 L195.845 1128.89 Z" fill="#000000" fill-rule="nonzero" fill-opacity="1" /><path clip-path="url(#clip850)" d="M206.401 1124.44 Q206.401 1110.65 209.212 1102.26 Q212.076 1093.83 217.645 1089.27 Q223.268 1084.71 231.755 1084.71 Q238.014 1084.71 242.734 1087.25 Q247.455 1089.75 250.532 1094.52 Q253.608 1099.24 255.359 1106.08 Q257.109 1112.87 257.109 1124.44 Q257.109 1138.12 254.298 1146.55 Q251.486 1154.94 245.864 1159.55 Q240.295 1164.11 231.755 1164.11 Q220.51 1164.11 214.092 1156.05 Q206.401 1146.34 206.401 1124.44 M216.213 1124.44 Q216.213 1143.58 220.669 1149.95 Q225.177 1156.26 231.755 1156.26 Q238.332 1156.26 242.788 1149.9 Q247.296 1143.53 247.296 1124.44 Q247.296 1105.23 242.788 1098.92 Q238.332 1092.61 231.649 1092.61 Q225.071 1092.61 221.146 1098.18 Q216.213 1105.29 216.213 1124.44 Z" fill="#000000" fill-rule="nonzero" fill-opacity="1" /><path clip-path="url(#clip850)" d="M272.173 1162.79 L272.173 1151.91 L283.047 1151.91 L283.047 1162.79 L272.173 1162.79 Z" fill="#000000" fill-rule="nonzero" fill-opacity="1" /><path clip-path="url(#clip850)" d="M347.175 1153.61 L347.175 1162.79 L295.777 1162.79 Q295.671 1159.34 296.891 1156.16 Q298.853 1150.9 303.15 1145.81 Q307.499 1140.72 315.668 1134.04 Q328.345 1123.64 332.8 1117.59 Q337.256 1111.49 337.256 1106.08 Q337.256 1100.41 333.172 1096.54 Q329.14 1092.61 322.616 1092.61 Q315.721 1092.61 311.583 1096.75 Q307.446 1100.89 307.393 1108.21 L297.58 1107.2 Q298.588 1096.22 305.165 1090.49 Q311.743 1084.71 322.828 1084.71 Q334.02 1084.71 340.544 1090.91 Q347.069 1097.12 347.069 1106.3 Q347.069 1110.96 345.159 1115.47 Q343.25 1119.98 338.794 1124.97 Q334.392 1129.95 324.101 1138.65 Q315.509 1145.87 313.069 1148.46 Q310.629 1151.01 309.037 1153.61 L347.175 1153.61 Z" fill="#000000" fill-rule="nonzero" fill-opacity="1" /><path clip-path="url(#clip850)" d="M357.412 1142.42 L367.437 1141.57 Q368.551 1148.89 372.582 1152.6 Q376.666 1156.26 382.395 1156.26 Q389.29 1156.26 394.064 1151.06 Q398.838 1145.87 398.838 1137.27 Q398.838 1129.1 394.223 1124.38 Q389.662 1119.66 382.236 1119.66 Q377.621 1119.66 373.908 1121.78 Q370.195 1123.85 368.073 1127.19 L359.109 1126.03 L366.641 1086.09 L405.309 1086.09 L405.309 1095.21 L374.279 1095.21 L370.089 1116.11 Q377.091 1111.23 384.782 1111.23 Q394.966 1111.23 401.967 1118.28 Q408.969 1125.34 408.969 1136.42 Q408.969 1146.98 402.816 1154.67 Q395.337 1164.11 382.395 1164.11 Q371.786 1164.11 365.05 1158.17 Q358.367 1152.23 357.412 1142.42 Z" fill="#000000" fill-rule="nonzero" fill-opacity="1" /><path clip-path="url(#clip850)" d="M207.249 855.386 Q207.249 841.595 210.06 833.214 Q212.925 824.781 218.494 820.219 Q224.117 815.657 232.603 815.657 Q238.862 815.657 243.583 818.203 Q248.304 820.696 251.38 825.47 Q254.457 830.191 256.207 837.033 Q257.958 843.823 257.958 855.386 Q257.958 869.071 255.146 877.505 Q252.335 885.885 246.713 890.5 Q241.143 895.062 232.603 895.062 Q221.358 895.062 214.94 886.999 Q207.249 877.292 207.249 855.386 M217.062 855.386 Q217.062 874.534 221.518 880.899 Q226.026 887.211 232.603 887.211 Q239.181 887.211 243.636 880.846 Q248.145 874.481 248.145 855.386 Q248.145 836.185 243.636 829.873 Q239.181 823.561 232.497 823.561 Q225.92 823.561 221.995 829.13 Q217.062 836.238 217.062 855.386 Z" fill="#000000" fill-rule="nonzero" fill-opacity="1" /><path clip-path="url(#clip850)" d="M273.022 893.736 L273.022 882.862 L283.895 882.862 L283.895 893.736 L273.022 893.736 Z" fill="#000000" fill-rule="nonzero" fill-opacity="1" /><path clip-path="url(#clip850)" d="M297.845 855.386 Q297.845 841.595 300.657 833.214 Q303.521 824.781 309.09 820.219 Q314.713 815.657 323.2 815.657 Q329.459 815.657 334.179 818.203 Q338.9 820.696 341.977 825.47 Q345.053 830.191 346.803 837.033 Q348.554 843.823 348.554 855.386 Q348.554 869.071 345.743 877.505 Q342.931 885.885 337.309 890.5 Q331.739 895.062 323.2 895.062 Q311.955 895.062 305.537 886.999 Q297.845 877.292 297.845 855.386 M307.658 855.386 Q307.658 874.534 312.114 880.899 Q316.622 887.211 323.2 887.211 Q329.777 887.211 334.232 880.846 Q338.741 874.481 338.741 855.386 Q338.741 836.185 334.232 829.873 Q329.777 823.561 323.094 823.561 Q316.516 823.561 312.591 829.13 Q307.658 836.238 307.658 855.386 Z" fill="#000000" fill-rule="nonzero" fill-opacity="1" /><path clip-path="url(#clip850)" d="M358.261 855.386 Q358.261 841.595 361.072 833.214 Q363.936 824.781 369.506 820.219 Q375.128 815.657 383.615 815.657 Q389.874 815.657 394.595 818.203 Q399.315 820.696 402.392 825.47 Q405.468 830.191 407.219 837.033 Q408.969 843.823 408.969 855.386 Q408.969 869.071 406.158 877.505 Q403.347 885.885 397.724 890.5 Q392.155 895.062 383.615 895.062 Q372.37 895.062 365.952 886.999 Q358.261 877.292 358.261 855.386 M368.073 855.386 Q368.073 874.534 372.529 880.899 Q377.038 887.211 383.615 887.211 Q390.192 887.211 394.648 880.846 Q399.156 874.481 399.156 855.386 Q399.156 836.185 394.648 829.873 Q390.192 823.561 383.509 823.561 Q376.931 823.561 373.006 829.13 Q368.073 836.238 368.073 855.386 Z" fill="#000000" fill-rule="nonzero" fill-opacity="1" /><path clip-path="url(#clip850)" d="M206.401 586.336 Q206.401 572.545 209.212 564.164 Q212.076 555.73 217.645 551.169 Q223.268 546.607 231.755 546.607 Q238.014 546.607 242.734 549.153 Q247.455 551.646 250.532 556.42 Q253.608 561.141 255.359 567.983 Q257.109 574.773 257.109 586.336 Q257.109 600.021 254.298 608.455 Q251.486 616.835 245.864 621.45 Q240.295 626.012 231.755 626.012 Q220.51 626.012 214.092 617.949 Q206.401 608.242 206.401 586.336 M216.213 586.336 Q216.213 605.484 220.669 611.849 Q225.177 618.161 231.755 618.161 Q238.332 618.161 242.788 611.796 Q247.296 605.431 247.296 586.336 Q247.296 567.135 242.788 560.823 Q238.332 554.511 231.649 554.511 Q225.071 554.511 221.146 560.08 Q216.213 567.188 216.213 586.336 Z" fill="#000000" fill-rule="nonzero" fill-opacity="1" /><path clip-path="url(#clip850)" d="M272.173 624.685 L272.173 613.812 L283.047 613.812 L283.047 624.685 L272.173 624.685 Z" fill="#000000" fill-rule="nonzero" fill-opacity="1" /><path clip-path="url(#clip850)" d="M347.175 615.509 L347.175 624.685 L295.777 624.685 Q295.671 621.238 296.891 618.055 Q298.853 612.804 303.15 607.712 Q307.499 602.62 315.668 595.937 Q328.345 585.54 332.8 579.493 Q337.256 573.394 337.256 567.983 Q337.256 562.308 333.172 558.436 Q329.14 554.511 322.616 554.511 Q315.721 554.511 311.583 558.648 Q307.446 562.785 307.393 570.105 L297.58 569.097 Q298.588 558.117 305.165 552.389 Q311.743 546.607 322.828 546.607 Q334.02 546.607 340.544 552.813 Q347.069 559.019 347.069 568.195 Q347.069 572.863 345.159 577.372 Q343.25 581.88 338.794 586.866 Q334.392 591.852 324.101 600.551 Q315.509 607.765 313.069 610.364 Q310.629 612.91 309.037 615.509 L347.175 615.509 Z" fill="#000000" fill-rule="nonzero" fill-opacity="1" /><path clip-path="url(#clip850)" d="M357.412 604.317 L367.437 603.469 Q368.551 610.788 372.582 614.501 Q376.666 618.161 382.395 618.161 Q389.29 618.161 394.064 612.963 Q398.838 607.765 398.838 599.172 Q398.838 591.004 394.223 586.283 Q389.662 581.562 382.236 581.562 Q377.621 581.562 373.908 583.684 Q370.195 585.752 368.073 589.094 L359.109 587.927 L366.641 547.986 L405.309 547.986 L405.309 557.11 L374.279 557.11 L370.089 578.008 Q377.091 573.128 384.782 573.128 Q394.966 573.128 401.967 580.183 Q408.969 587.238 408.969 598.323 Q408.969 608.879 402.816 616.57 Q395.337 626.012 382.395 626.012 Q371.786 626.012 365.05 620.071 Q358.367 614.13 357.412 604.317 Z" fill="#000000" fill-rule="nonzero" fill-opacity="1" /><path clip-path="url(#clip850)" d="M207.249 317.286 Q207.249 303.495 210.06 295.114 Q212.925 286.68 218.494 282.119 Q224.117 277.557 232.603 277.557 Q238.862 277.557 243.583 280.103 Q248.304 282.596 251.38 287.37 Q254.457 292.091 256.207 298.933 Q257.958 305.723 257.958 317.286 Q257.958 330.971 255.146 339.404 Q252.335 347.785 246.713 352.4 Q241.143 356.961 232.603 356.961 Q221.358 356.961 214.94 348.899 Q207.249 339.192 207.249 317.286 M217.062 317.286 Q217.062 336.434 221.518 342.799 Q226.026 349.111 232.603 349.111 Q239.181 349.111 243.636 342.746 Q248.145 336.381 248.145 317.286 Q248.145 298.084 243.636 291.772 Q239.181 285.46 232.497 285.46 Q225.92 285.46 221.995 291.03 Q217.062 298.137 217.062 317.286 Z" fill="#000000" fill-rule="nonzero" fill-opacity="1" /><path clip-path="url(#clip850)" d="M273.022 355.635 L273.022 344.762 L283.895 344.762 L283.895 355.635 L273.022 355.635 Z" fill="#000000" fill-rule="nonzero" fill-opacity="1" /><path clip-path="url(#clip850)" d="M297.845 335.267 L307.87 334.418 Q308.984 341.738 313.016 345.451 Q317.1 349.111 322.828 349.111 Q329.724 349.111 334.498 343.913 Q339.271 338.715 339.271 330.122 Q339.271 321.953 334.657 317.233 Q330.095 312.512 322.669 312.512 Q318.055 312.512 314.342 314.634 Q310.629 316.702 308.507 320.044 L299.543 318.877 L307.075 278.936 L345.743 278.936 L345.743 288.059 L314.713 288.059 L310.523 308.958 Q317.524 304.078 325.215 304.078 Q335.399 304.078 342.401 311.133 Q349.403 318.187 349.403 329.273 Q349.403 339.829 343.25 347.52 Q335.771 356.961 322.828 356.961 Q312.22 356.961 305.484 351.021 Q298.8 345.08 297.845 335.267 Z" fill="#000000" fill-rule="nonzero" fill-opacity="1" /><path clip-path="url(#clip850)" d="M358.261 317.286 Q358.261 303.495 361.072 295.114 Q363.936 286.68 369.506 282.119 Q375.128 277.557 383.615 277.557 Q389.874 277.557 394.595 280.103 Q399.315 282.596 402.392 287.37 Q405.468 292.091 407.219 298.933 Q408.969 305.723 408.969 317.286 Q408.969 330.971 406.158 339.404 Q403.347 347.785 397.724 352.4 Q392.155 356.961 383.615 356.961 Q372.37 356.961 365.952 348.899 Q358.261 339.192 358.261 317.286 M368.073 317.286 Q368.073 336.434 372.529 342.799 Q377.038 349.111 383.615 349.111 Q390.192 349.111 394.648 342.746 Q399.156 336.381 399.156 317.286 Q399.156 298.084 394.648 291.772 Q390.192 285.46 383.509 285.46 Q376.931 285.46 373.006 291.03 Q368.073 298.137 368.073 317.286 Z" fill="#000000" fill-rule="nonzero" fill-opacity="1" /><path clip-path="url(#clip850)" d="M206.401 48.2356 Q206.401 34.4446 209.212 26.0639 Q212.076 17.6302 217.645 13.0686 Q223.268 8.50693 231.755 8.50693 Q238.014 8.50693 242.734 11.053 Q247.455 13.5459 250.532 18.3198 Q253.608 23.0405 255.359 29.883 Q257.109 36.6724 257.109 48.2356 Q257.109 61.9205 254.298 70.3542 Q251.486 78.7349 245.864 83.3496 Q240.295 87.9112 231.755 87.9112 Q220.51 87.9112 214.092 79.8488 Q206.401 70.1421 206.401 48.2356 M216.213 48.2356 Q216.213 67.3839 220.669 73.7489 Q225.177 80.061 231.755 80.061 Q238.332 80.061 242.788 73.6959 Q247.296 67.3308 247.296 48.2356 Q247.296 29.0343 242.788 22.7223 Q238.332 16.4102 231.649 16.4102 Q225.071 16.4102 221.146 21.9797 Q216.213 29.0873 216.213 48.2356 Z" fill="#000000" fill-rule="nonzero" fill-opacity="1" /><path clip-path="url(#clip850)" d="M272.173 86.5852 L272.173 75.7115 L283.047 75.7115 L283.047 86.5852 L272.173 86.5852 Z" fill="#000000" fill-rule="nonzero" fill-opacity="1" /><path clip-path="url(#clip850)" d="M297.633 19.0093 L297.633 9.83299 L347.97 9.83299 L347.97 17.2589 Q340.544 25.1622 333.225 38.2637 Q325.958 51.3651 321.98 65.2091 Q319.115 74.9689 318.32 86.5852 L308.507 86.5852 Q308.666 77.4089 312.114 64.4135 Q315.562 51.4181 321.98 39.3775 Q328.451 27.2839 335.718 19.0093 L297.633 19.0093 Z" fill="#000000" fill-rule="nonzero" fill-opacity="1" /><path clip-path="url(#clip850)" d="M357.412 66.2169 L367.437 65.3683 Q368.551 72.6881 372.582 76.4011 Q376.666 80.061 382.395 80.061 Q389.29 80.061 394.064 74.8628 Q398.838 69.6647 398.838 61.0718 Q398.838 52.9033 394.223 48.1826 Q389.662 43.4618 382.236 43.4618 Q377.621 43.4618 373.908 45.5835 Q370.195 47.6521 368.073 50.9938 L359.109 49.8269 L366.641 9.88603 L405.309 9.88603 L405.309 19.0093 L374.279 19.0093 L370.089 39.908 Q377.091 35.0281 384.782 35.0281 Q394.966 35.0281 401.967 42.0827 Q408.969 49.1373 408.969 60.2232 Q408.969 70.7786 402.816 78.4697 Q395.337 87.9112 382.395 87.9112 Q371.786 87.9112 365.05 81.9705 Q358.367 76.0298 357.412 66.2169 Z" fill="#000000" fill-rule="nonzero" fill-opacity="1" /><path clip-path="url(#clip850)" d="M85.1722 780.973 L7.41216 780.973 L7.41216 751.64 Q7.41216 743.896 8.15475 739.812 Q9.10951 734.083 11.8147 730.211 Q14.4668 726.339 19.2936 724.005 Q24.1205 721.618 29.9021 721.618 Q39.821 721.618 46.7165 727.93 Q53.559 734.242 53.559 750.739 L53.559 770.683 L85.1722 770.683 L85.1722 780.973 M44.3826 770.683 L44.3826 750.579 Q44.3826 740.608 40.6697 736.417 Q36.9567 732.227 30.2203 732.227 Q25.3405 732.227 21.8927 734.72 Q18.3919 737.16 17.278 741.191 Q16.5885 743.79 16.5885 750.792 L16.5885 770.683 L44.3826 770.683 Z" fill="#000000" fill-rule="nonzero" fill-opacity="1" /><path clip-path="url(#clip850)" d="M64.6448 712.336 L63.3718 702.788 Q71.4872 701.144 75.0941 697.219 Q78.648 693.241 78.648 687.565 Q78.648 680.829 73.9802 676.214 Q69.3125 671.546 62.417 671.546 Q55.8398 671.546 51.5964 675.843 Q47.3 680.139 47.3 686.77 Q47.3 689.475 48.3608 693.506 L39.9801 692.445 Q40.0862 691.49 40.0862 690.907 Q40.0862 684.807 36.9037 679.927 Q33.7211 675.047 27.0908 675.047 Q21.8397 675.047 18.3919 678.601 Q14.9442 682.155 14.9442 687.777 Q14.9442 693.347 18.445 697.06 Q21.9457 700.773 28.9473 701.834 L27.25 711.381 Q17.6493 709.631 12.3981 703.425 Q7.0939 697.219 7.0939 687.99 Q7.0939 681.625 9.8521 676.267 Q12.5573 670.91 17.278 668.099 Q21.9988 665.234 27.303 665.234 Q32.342 665.234 36.4793 667.94 Q40.6166 670.645 43.0566 675.949 Q44.6478 669.053 49.6869 665.234 Q54.6728 661.415 62.2048 661.415 Q72.389 661.415 79.4966 668.841 Q86.5513 676.267 86.5513 687.618 Q86.5513 697.855 80.4514 704.645 Q74.3515 711.381 64.6448 712.336 Z" fill="#000000" fill-rule="nonzero" fill-opacity="1" /><path clip-path="url(#clip850)" d="M85.1722 616.011 L85.1722 625.559 L24.3326 625.559 Q27.6213 629.007 30.9099 634.629 Q34.1985 640.198 35.8428 644.654 L26.6135 644.654 Q22.8475 636.645 17.4902 630.651 Q12.1329 624.657 7.0939 622.164 L7.0939 616.011 L85.1722 616.011 Z" fill="#000000" fill-rule="nonzero" fill-opacity="1" /><polyline clip-path="url(#clip852)" style="stroke:#009af9; stroke-linecap:round; stroke-linejoin:round; stroke-width:8; stroke-opacity:1; fill:none" points="444.969,102.892 454.461,47.2441 463.952,80.824 473.443,214.143 482.935,229.836 492.426,652.516 501.918,633.67 511.409,937.987 520.901,1098.96 530.392,1094.47 539.884,979.173 549.375,951.88 558.867,911.782 568.358,877.798 577.85,871.469 587.341,1012.08 596.833,1226.21 606.324,1245.34 615.816,1138.77 625.307,1101.99 634.799,1105.1 644.29,1164.26 653.782,1159.74 663.273,1259.41 672.764,1263.84 682.256,1349.74 691.747,1344.92 701.239,1275.35 710.73,1296.26 720.222,1092.73 729.713,1071.42 739.205,1007.21 748.696,969.229 758.188,1164.79 767.679,1142.48 777.171,1089.12 786.662,1110.54 796.154,1117 805.645,1057.3 815.137,1180.35 824.628,1086.63 834.12,1111.17 843.611,1178.21 853.103,1121.9 862.594,1192.03 872.085,1007.15 881.577,1021.67 891.068,1069.93 900.56,1163.51 910.051,1132.05 919.543,1212.19 929.034,1255.57 938.526,1296 948.017,1312 957.509,1184.84 967,1229.57 976.492,1163.98 985.983,1196.5 995.475,1196.33 1004.97,1267.32 1014.46,1254.63 1023.95,1301.54 1033.44,1077.42 1042.93,1040.95 1052.42,1067.39 1061.92,1020.24 1071.41,1028.34 1080.9,1008.15 1090.39,1000.2 1099.88,1163.45 1109.37,1212.52 1118.86,1256.36 1128.36,1216.34 1137.85,928.728 1147.34,979.389 1156.83,995.185 1166.32,956.101 1175.81,857.879 1185.3,1025 1194.8,1126.32 1204.29,930.264 1213.78,944.972 1223.27,858.882 1232.76,888.182 1242.25,888.999 1251.74,830.957 1261.24,1007.28 1270.73,888.486 1280.22,912.293 1289.71,854.099 1299.2,862.645 1308.69,925.359 1318.18,890.974 1327.68,914.846 1337.17,902.98 1346.66,966.073 1356.15,966.187 1365.64,997.972 1375.13,1003.59 1384.63,956.265 1394.12,983.383 1403.61,939.366 1413.1,936.512 1422.59,953.979 1432.08,957.184 1441.57,898.841 1451.07,1084.9 1460.56,1074.9 1470.05,921.153 1479.54,789.902 1489.03,788.039 1498.52,749.788 1508.01,736.615 1517.51,722.223 1527,706.368 1536.49,703.409 1545.98,789.87 1555.47,852.511 1564.96,863.309 1574.45,894.979 1583.95,878.644 1593.44,879.949 1602.93,915.124 1612.42,911.943 1621.91,965.313 1631.4,991.596 1640.9,1041.88 1650.39,1031.71 1659.88,993.88 1669.37,1097.75 1678.86,800.525 1688.35,790.135 1697.84,655.814 1707.34,633.758 1716.83,1019.83 1726.32,1003.83 1735.81,963.669 1745.3,995.142 1754.79,1005.83 1764.28,873.325 1773.78,1032.99 1783.27,959.952 1792.76,993.664 1802.25,1041.26 1811.74,957.444 1821.23,1057.67 1830.72,744.536 1840.22,756.325 1849.71,797.993 1859.2,878.403 1868.69,854.138 1878.18,975.017 1887.67,1010 1897.17,1080.22 1906.66,1104.86 1916.15,958.846 1925.64,1040.16 1935.13,957.128 1944.62,982.237 1954.11,981.711 1963.61,1043.17 1973.1,1031.41 1982.59,1075.81 1992.08,839.258 2001.57,807.871 2011.06,830.824 2020.55,791.656 2030.05,798.953 2039.54,776.696 2049.03,768.274 2058.52,985.071 2068.01,1027.08 2077.5,1064.57 2086.99,1046.05 2096.49,739.773 2105.98,801.931 2115.47,820.441 2124.96,784.807 2134.45,667.097 2143.94,848.863 2153.43,959.271 2162.93,747.504 2172.42,764.189 2181.91,682.593 2191.4,709.829 2200.89,704.793 2210.38,649.502 2219.88,842.512 2229.37,706.616 2238.86,729.557 2248.35,667.06 2257.84,675.298 2267.33,735.178 2276.82,702.678 2286.32,725.923 2295.81,714.56 2305.3,773.646 2314.79,773.767 2324.28,803.56 2333.77,809.155 2343.26,763.835 2352.76,792.589 "/>
<circle clip-path="url(#clip852)" cx="444.969" cy="102.892" r="3.6" fill="#009af9" fill-rule="evenodd" fill-opacity="1" stroke="#000000" stroke-opacity="1" stroke-width="3.2"/>
<circle clip-path="url(#clip852)" cx="454.461" cy="47.2441" r="3.6" fill="#009af9" fill-rule="evenodd" fill-opacity="1" stroke="#000000" stroke-opacity="1" stroke-width="3.2"/>
<circle clip-path="url(#clip852)" cx="463.952" cy="80.824" r="3.6" fill="#009af9" fill-rule="evenodd" fill-opacity="1" stroke="#000000" stroke-opacity="1" stroke-width="3.2"/>
<circle clip-path="url(#clip852)" cx="473.443" cy="214.143" r="3.6" fill="#009af9" fill-rule="evenodd" fill-opacity="1" stroke="#000000" stroke-opacity="1" stroke-width="3.2"/>
<circle clip-path="url(#clip852)" cx="482.935" cy="229.836" r="3.6" fill="#009af9" fill-rule="evenodd" fill-opacity="1" stroke="#000000" stroke-opacity="1" stroke-width="3.2"/>
<circle clip-path="url(#clip852)" cx="492.426" cy="652.516" r="3.6" fill="#009af9" fill-rule="evenodd" fill-opacity="1" stroke="#000000" stroke-opacity="1" stroke-width="3.2"/>
<circle clip-path="url(#clip852)" cx="501.918" cy="633.67" r="3.6" fill="#009af9" fill-rule="evenodd" fill-opacity="1" stroke="#000000" stroke-opacity="1" stroke-width="3.2"/>
<circle clip-path="url(#clip852)" cx="511.409" cy="937.987" r="3.6" fill="#009af9" fill-rule="evenodd" fill-opacity="1" stroke="#000000" stroke-opacity="1" stroke-width="3.2"/>
<circle clip-path="url(#clip852)" cx="520.901" cy="1098.96" r="3.6" fill="#009af9" fill-rule="evenodd" fill-opacity="1" stroke="#000000" stroke-opacity="1" stroke-width="3.2"/>
<circle clip-path="url(#clip852)" cx="530.392" cy="1094.47" r="3.6" fill="#009af9" fill-rule="evenodd" fill-opacity="1" stroke="#000000" stroke-opacity="1" stroke-width="3.2"/>
<circle clip-path="url(#clip852)" cx="539.884" cy="979.173" r="3.6" fill="#009af9" fill-rule="evenodd" fill-opacity="1" stroke="#000000" stroke-opacity="1" stroke-width="3.2"/>
<circle clip-path="url(#clip852)" cx="549.375" cy="951.88" r="3.6" fill="#009af9" fill-rule="evenodd" fill-opacity="1" stroke="#000000" stroke-opacity="1" stroke-width="3.2"/>
<circle clip-path="url(#clip852)" cx="558.867" cy="911.782" r="3.6" fill="#009af9" fill-rule="evenodd" fill-opacity="1" stroke="#000000" stroke-opacity="1" stroke-width="3.2"/>
<circle clip-path="url(#clip852)" cx="568.358" cy="877.798" r="3.6" fill="#009af9" fill-rule="evenodd" fill-opacity="1" stroke="#000000" stroke-opacity="1" stroke-width="3.2"/>
<circle clip-path="url(#clip852)" cx="577.85" cy="871.469" r="3.6" fill="#009af9" fill-rule="evenodd" fill-opacity="1" stroke="#000000" stroke-opacity="1" stroke-width="3.2"/>
<circle clip-path="url(#clip852)" cx="587.341" cy="1012.08" r="3.6" fill="#009af9" fill-rule="evenodd" fill-opacity="1" stroke="#000000" stroke-opacity="1" stroke-width="3.2"/>
<circle clip-path="url(#clip852)" cx="596.833" cy="1226.21" r="3.6" fill="#009af9" fill-rule="evenodd" fill-opacity="1" stroke="#000000" stroke-opacity="1" stroke-width="3.2"/>
<circle clip-path="url(#clip852)" cx="606.324" cy="1245.34" r="3.6" fill="#009af9" fill-rule="evenodd" fill-opacity="1" stroke="#000000" stroke-opacity="1" stroke-width="3.2"/>
<circle clip-path="url(#clip852)" cx="615.816" cy="1138.77" r="3.6" fill="#009af9" fill-rule="evenodd" fill-opacity="1" stroke="#000000" stroke-opacity="1" stroke-width="3.2"/>
<circle clip-path="url(#clip852)" cx="625.307" cy="1101.99" r="3.6" fill="#009af9" fill-rule="evenodd" fill-opacity="1" stroke="#000000" stroke-opacity="1" stroke-width="3.2"/>
<circle clip-path="url(#clip852)" cx="634.799" cy="1105.1" r="3.6" fill="#009af9" fill-rule="evenodd" fill-opacity="1" stroke="#000000" stroke-opacity="1" stroke-width="3.2"/>
<circle clip-path="url(#clip852)" cx="644.29" cy="1164.26" r="3.6" fill="#009af9" fill-rule="evenodd" fill-opacity="1" stroke="#000000" stroke-opacity="1" stroke-width="3.2"/>
<circle clip-path="url(#clip852)" cx="653.782" cy="1159.74" r="3.6" fill="#009af9" fill-rule="evenodd" fill-opacity="1" stroke="#000000" stroke-opacity="1" stroke-width="3.2"/>
<circle clip-path="url(#clip852)" cx="663.273" cy="1259.41" r="3.6" fill="#009af9" fill-rule="evenodd" fill-opacity="1" stroke="#000000" stroke-opacity="1" stroke-width="3.2"/>
<circle clip-path="url(#clip852)" cx="672.764" cy="1263.84" r="3.6" fill="#009af9" fill-rule="evenodd" fill-opacity="1" stroke="#000000" stroke-opacity="1" stroke-width="3.2"/>
<circle clip-path="url(#clip852)" cx="691.747" cy="1344.92" r="3.6" fill="#009af9" fill-rule="evenodd" fill-opacity="1" stroke="#000000" stroke-opacity="1" stroke-width="3.2"/>
<circle clip-path="url(#clip852)" cx="701.239" cy="1275.35" r="3.6" fill="#009af9" fill-rule="evenodd" fill-opacity="1" stroke="#000000" stroke-opacity="1" stroke-width="3.2"/>
<circle clip-path="url(#clip852)" cx="710.73" cy="1296.26" r="3.6" fill="#009af9" fill-rule="evenodd" fill-opacity="1" stroke="#000000" stroke-opacity="1" stroke-width="3.2"/>
<circle clip-path="url(#clip852)" cx="720.222" cy="1092.73" r="3.6" fill="#009af9" fill-rule="evenodd" fill-opacity="1" stroke="#000000" stroke-opacity="1" stroke-width="3.2"/>
<circle clip-path="url(#clip852)" cx="729.713" cy="1071.42" r="3.6" fill="#009af9" fill-rule="evenodd" fill-opacity="1" stroke="#000000" stroke-opacity="1" stroke-width="3.2"/>
<circle clip-path="url(#clip852)" cx="739.205" cy="1007.21" r="3.6" fill="#009af9" fill-rule="evenodd" fill-opacity="1" stroke="#000000" stroke-opacity="1" stroke-width="3.2"/>
<circle clip-path="url(#clip852)" cx="748.696" cy="969.229" r="3.6" fill="#009af9" fill-rule="evenodd" fill-opacity="1" stroke="#000000" stroke-opacity="1" stroke-width="3.2"/>
<circle clip-path="url(#clip852)" cx="758.188" cy="1164.79" r="3.6" fill="#009af9" fill-rule="evenodd" fill-opacity="1" stroke="#000000" stroke-opacity="1" stroke-width="3.2"/>
<circle clip-path="url(#clip852)" cx="767.679" cy="1142.48" r="3.6" fill="#009af9" fill-rule="evenodd" fill-opacity="1" stroke="#000000" stroke-opacity="1" stroke-width="3.2"/>
<circle clip-path="url(#clip852)" cx="777.171" cy="1089.12" r="3.6" fill="#009af9" fill-rule="evenodd" fill-opacity="1" stroke="#000000" stroke-opacity="1" stroke-width="3.2"/>
<circle clip-path="url(#clip852)" cx="786.662" cy="1110.54" r="3.6" fill="#009af9" fill-rule="evenodd" fill-opacity="1" stroke="#000000" stroke-opacity="1" stroke-width="3.2"/>
<circle clip-path="url(#clip852)" cx="796.154" cy="1117" r="3.6" fill="#009af9" fill-rule="evenodd" fill-opacity="1" stroke="#000000" stroke-opacity="1" stroke-width="3.2"/>
<circle clip-path="url(#clip852)" cx="805.645" cy="1057.3" r="3.6" fill="#009af9" fill-rule="evenodd" fill-opacity="1" stroke="#000000" stroke-opacity="1" stroke-width="3.2"/>
<circle clip-path="url(#clip852)" cx="815.137" cy="1180.35" r="3.6" fill="#009af9" fill-rule="evenodd" fill-opacity="1" stroke="#000000" stroke-opacity="1" stroke-width="3.2"/>
<circle clip-path="url(#clip852)" cx="824.628" cy="1086.63" r="3.6" fill="#009af9" fill-rule="evenodd" fill-opacity="1" stroke="#000000" stroke-opacity="1" stroke-width="3.2"/>
<circle clip-path="url(#clip852)" cx="834.12" cy="1111.17" r="3.6" fill="#009af9" fill-rule="evenodd" fill-opacity="1" stroke="#000000" stroke-opacity="1" stroke-width="3.2"/>
<circle clip-path="url(#clip852)" cx="843.611" cy="1178.21" r="3.6" fill="#009af9" fill-rule="evenodd" fill-opacity="1" stroke="#000000" stroke-opacity="1" stroke-width="3.2"/>
<circle clip-path="url(#clip852)" cx="853.103" cy="1121.9" r="3.6" fill="#009af9" fill-rule="evenodd" fill-opacity="1" stroke="#000000" stroke-opacity="1" stroke-width="3.2"/>
<circle clip-path="url(#clip852)" cx="862.594" cy="1192.03" r="3.6" fill="#009af9" fill-rule="evenodd" fill-opacity="1" stroke="#000000" stroke-opacity="1" stroke-width="3.2"/>
<circle clip-path="url(#clip852)" cx="872.085" cy="1007.15" r="3.6" fill="#009af9" fill-rule="evenodd" fill-opacity="1" stroke="#000000" stroke-opacity="1" stroke-width="3.2"/>
<circle clip-path="url(#clip852)" cx="881.577" cy="1021.67" r="3.6" fill="#009af9" fill-rule="evenodd" fill-opacity="1" stroke="#000000" stroke-opacity="1" stroke-width="3.2"/>
<circle clip-path="url(#clip852)" cx="891.068" cy="1069.93" r="3.6" fill="#009af9" fill-rule="evenodd" fill-opacity="1" stroke="#000000" stroke-opacity="1" stroke-width="3.2"/>
<circle clip-path="url(#clip852)" cx="900.56" cy="1163.51" r="3.6" fill="#009af9" fill-rule="evenodd" fill-opacity="1" stroke="#000000" stroke-opacity="1" stroke-width="3.2"/>
<circle clip-path="url(#clip852)" cx="910.051" cy="1132.05" r="3.6" fill="#009af9" fill-rule="evenodd" fill-opacity="1" stroke="#000000" stroke-opacity="1" stroke-width="3.2"/>
<circle clip-path="url(#clip852)" cx="919.543" cy="1212.19" r="3.6" fill="#009af9" fill-rule="evenodd" fill-opacity="1" stroke="#000000" stroke-opacity="1" stroke-width="3.2"/>
<circle clip-path="url(#clip852)" cx="929.034" cy="1255.57" r="3.6" fill="#009af9" fill-rule="evenodd" fill-opacity="1" stroke="#000000" stroke-opacity="1" stroke-width="3.2"/>
<circle clip-path="url(#clip852)" cx="938.526" cy="1296" r="3.6" fill="#009af9" fill-rule="evenodd" fill-opacity="1" stroke="#000000" stroke-opacity="1" stroke-width="3.2"/>
<circle clip-path="url(#clip852)" cx="948.017" cy="1312" r="3.6" fill="#009af9" fill-rule="evenodd" fill-opacity="1" stroke="#000000" stroke-opacity="1" stroke-width="3.2"/>
<circle clip-path="url(#clip852)" cx="957.509" cy="1184.84" r="3.6" fill="#009af9" fill-rule="evenodd" fill-opacity="1" stroke="#000000" stroke-opacity="1" stroke-width="3.2"/>
<circle clip-path="url(#clip852)" cx="967" cy="1229.57" r="3.6" fill="#009af9" fill-rule="evenodd" fill-opacity="1" stroke="#000000" stroke-opacity="1" stroke-width="3.2"/>
<circle clip-path="url(#clip852)" cx="976.492" cy="1163.98" r="3.6" fill="#009af9" fill-rule="evenodd" fill-opacity="1" stroke="#000000" stroke-opacity="1" stroke-width="3.2"/>
<circle clip-path="url(#clip852)" cx="985.983" cy="1196.5" r="3.6" fill="#009af9" fill-rule="evenodd" fill-opacity="1" stroke="#000000" stroke-opacity="1" stroke-width="3.2"/>
<circle clip-path="url(#clip852)" cx="995.475" cy="1196.33" r="3.6" fill="#009af9" fill-rule="evenodd" fill-opacity="1" stroke="#000000" stroke-opacity="1" stroke-width="3.2"/>
<circle clip-path="url(#clip852)" cx="1004.97" cy="1267.32" r="3.6" fill="#009af9" fill-rule="evenodd" fill-opacity="1" stroke="#000000" stroke-opacity="1" stroke-width="3.2"/>
<circle clip-path="url(#clip852)" cx="1014.46" cy="1254.63" r="3.6" fill="#009af9" fill-rule="evenodd" fill-opacity="1" stroke="#000000" stroke-opacity="1" stroke-width="3.2"/>
<circle clip-path="url(#clip852)" cx="1023.95" cy="1301.54" r="3.6" fill="#009af9" fill-rule="evenodd" fill-opacity="1" stroke="#000000" stroke-opacity="1" stroke-width="3.2"/>
<circle clip-path="url(#clip852)" cx="1033.44" cy="1077.42" r="3.6" fill="#009af9" fill-rule="evenodd" fill-opacity="1" stroke="#000000" stroke-opacity="1" stroke-width="3.2"/>
<circle clip-path="url(#clip852)" cx="1042.93" cy="1040.95" r="3.6" fill="#009af9" fill-rule="evenodd" fill-opacity="1" stroke="#000000" stroke-opacity="1" stroke-width="3.2"/>
<circle clip-path="url(#clip852)" cx="1052.42" cy="1067.39" r="3.6" fill="#009af9" fill-rule="evenodd" fill-opacity="1" stroke="#000000" stroke-opacity="1" stroke-width="3.2"/>
<circle clip-path="url(#clip852)" cx="1061.92" cy="1020.24" r="3.6" fill="#009af9" fill-rule="evenodd" fill-opacity="1" stroke="#000000" stroke-opacity="1" stroke-width="3.2"/>
<circle clip-path="url(#clip852)" cx="1071.41" cy="1028.34" r="3.6" fill="#009af9" fill-rule="evenodd" fill-opacity="1" stroke="#000000" stroke-opacity="1" stroke-width="3.2"/>
<circle clip-path="url(#clip852)" cx="1080.9" cy="1008.15" r="3.6" fill="#009af9" fill-rule="evenodd" fill-opacity="1" stroke="#000000" stroke-opacity="1" stroke-width="3.2"/>
<circle clip-path="url(#clip852)" cx="1090.39" cy="1000.2" r="3.6" fill="#009af9" fill-rule="evenodd" fill-opacity="1" stroke="#000000" stroke-opacity="1" stroke-width="3.2"/>
<circle clip-path="url(#clip852)" cx="1099.88" cy="1163.45" r="3.6" fill="#009af9" fill-rule="evenodd" fill-opacity="1" stroke="#000000" stroke-opacity="1" stroke-width="3.2"/>
<circle clip-path="url(#clip852)" cx="1109.37" cy="1212.52" r="3.6" fill="#009af9" fill-rule="evenodd" fill-opacity="1" stroke="#000000" stroke-opacity="1" stroke-width="3.2"/>
<circle clip-path="url(#clip852)" cx="1118.86" cy="1256.36" r="3.6" fill="#009af9" fill-rule="evenodd" fill-opacity="1" stroke="#000000" stroke-opacity="1" stroke-width="3.2"/>
<circle clip-path="url(#clip852)" cx="1128.36" cy="1216.34" r="3.6" fill="#009af9" fill-rule="evenodd" fill-opacity="1" stroke="#000000" stroke-opacity="1" stroke-width="3.2"/>
<circle clip-path="url(#clip852)" cx="1137.85" cy="928.728" r="3.6" fill="#009af9" fill-rule="evenodd" fill-opacity="1" stroke="#000000" stroke-opacity="1" stroke-width="3.2"/>
<circle clip-path="url(#clip852)" cx="1147.34" cy="979.389" r="3.6" fill="#009af9" fill-rule="evenodd" fill-opacity="1" stroke="#000000" stroke-opacity="1" stroke-width="3.2"/>
<circle clip-path="url(#clip852)" cx="1156.83" cy="995.185" r="3.6" fill="#009af9" fill-rule="evenodd" fill-opacity="1" stroke="#000000" stroke-opacity="1" stroke-width="3.2"/>
<circle clip-path="url(#clip852)" cx="1166.32" cy="956.101" r="3.6" fill="#009af9" fill-rule="evenodd" fill-opacity="1" stroke="#000000" stroke-opacity="1" stroke-width="3.2"/>
<circle clip-path="url(#clip852)" cx="1175.81" cy="857.879" r="3.6" fill="#009af9" fill-rule="evenodd" fill-opacity="1" stroke="#000000" stroke-opacity="1" stroke-width="3.2"/>
<circle clip-path="url(#clip852)" cx="1185.3" cy="1025" r="3.6" fill="#009af9" fill-rule="evenodd" fill-opacity="1" stroke="#000000" stroke-opacity="1" stroke-width="3.2"/>
<circle clip-path="url(#clip852)" cx="1194.8" cy="1126.32" r="3.6" fill="#009af9" fill-rule="evenodd" fill-opacity="1" stroke="#000000" stroke-opacity="1" stroke-width="3.2"/>
<circle clip-path="url(#clip852)" cx="1204.29" cy="930.264" r="3.6" fill="#009af9" fill-rule="evenodd" fill-opacity="1" stroke="#000000" stroke-opacity="1" stroke-width="3.2"/>
<circle clip-path="url(#clip852)" cx="1213.78" cy="944.972" r="3.6" fill="#009af9" fill-rule="evenodd" fill-opacity="1" stroke="#000000" stroke-opacity="1" stroke-width="3.2"/>
<circle clip-path="url(#clip852)" cx="1223.27" cy="858.882" r="3.6" fill="#009af9" fill-rule="evenodd" fill-opacity="1" stroke="#000000" stroke-opacity="1" stroke-width="3.2"/>
<circle clip-path="url(#clip852)" cx="1232.76" cy="888.182" r="3.6" fill="#009af9" fill-rule="evenodd" fill-opacity="1" stroke="#000000" stroke-opacity="1" stroke-width="3.2"/>
<circle clip-path="url(#clip852)" cx="1242.25" cy="888.999" r="3.6" fill="#009af9" fill-rule="evenodd" fill-opacity="1" stroke="#000000" stroke-opacity="1" stroke-width="3.2"/>
<circle clip-path="url(#clip852)" cx="1251.74" cy="830.957" r="3.6" fill="#009af9" fill-rule="evenodd" fill-opacity="1" stroke="#000000" stroke-opacity="1" stroke-width="3.2"/>
<circle clip-path="url(#clip852)" cx="1261.24" cy="1007.28" r="3.6" fill="#009af9" fill-rule="evenodd" fill-opacity="1" stroke="#000000" stroke-opacity="1" stroke-width="3.2"/>
<circle clip-path="url(#clip852)" cx="1270.73" cy="888.486" r="3.6" fill="#009af9" fill-rule="evenodd" fill-opacity="1" stroke="#000000" stroke-opacity="1" stroke-width="3.2"/>
<circle clip-path="url(#clip852)" cx="1280.22" cy="912.293" r="3.6" fill="#009af9" fill-rule="evenodd" fill-opacity="1" stroke="#000000" stroke-opacity="1" stroke-width="3.2"/>
<circle clip-path="url(#clip852)" cx="1289.71" cy="854.099" r="3.6" fill="#009af9" fill-rule="evenodd" fill-opacity="1" stroke="#000000" stroke-opacity="1" stroke-width="3.2"/>
<circle clip-path="url(#clip852)" cx="1299.2" cy="862.645" r="3.6" fill="#009af9" fill-rule="evenodd" fill-opacity="1" stroke="#000000" stroke-opacity="1" stroke-width="3.2"/>
<circle clip-path="url(#clip852)" cx="1308.69" cy="925.359" r="3.6" fill="#009af9" fill-rule="evenodd" fill-opacity="1" stroke="#000000" stroke-opacity="1" stroke-width="3.2"/>
<circle clip-path="url(#clip852)" cx="1318.18" cy="890.974" r="3.6" fill="#009af9" fill-rule="evenodd" fill-opacity="1" stroke="#000000" stroke-opacity="1" stroke-width="3.2"/>
<circle clip-path="url(#clip852)" cx="1327.68" cy="914.846" r="3.6" fill="#009af9" fill-rule="evenodd" fill-opacity="1" stroke="#000000" stroke-opacity="1" stroke-width="3.2"/>
<circle clip-path="url(#clip852)" cx="1337.17" cy="902.98" r="3.6" fill="#009af9" fill-rule="evenodd" fill-opacity="1" stroke="#000000" stroke-opacity="1" stroke-width="3.2"/>
<circle clip-path="url(#clip852)" cx="1346.66" cy="966.073" r="3.6" fill="#009af9" fill-rule="evenodd" fill-opacity="1" stroke="#000000" stroke-opacity="1" stroke-width="3.2"/>
<circle clip-path="url(#clip852)" cx="1356.15" cy="966.187" r="3.6" fill="#009af9" fill-rule="evenodd" fill-opacity="1" stroke="#000000" stroke-opacity="1" stroke-width="3.2"/>
<circle clip-path="url(#clip852)" cx="1365.64" cy="997.972" r="3.6" fill="#009af9" fill-rule="evenodd" fill-opacity="1" stroke="#000000" stroke-opacity="1" stroke-width="3.2"/>
<circle clip-path="url(#clip852)" cx="1375.13" cy="1003.59" r="3.6" fill="#009af9" fill-rule="evenodd" fill-opacity="1" stroke="#000000" stroke-opacity="1" stroke-width="3.2"/>
<circle clip-path="url(#clip852)" cx="1384.63" cy="956.265" r="3.6" fill="#009af9" fill-rule="evenodd" fill-opacity="1" stroke="#000000" stroke-opacity="1" stroke-width="3.2"/>
<circle clip-path="url(#clip852)" cx="1394.12" cy="983.383" r="3.6" fill="#009af9" fill-rule="evenodd" fill-opacity="1" stroke="#000000" stroke-opacity="1" stroke-width="3.2"/>
<circle clip-path="url(#clip852)" cx="1403.61" cy="939.366" r="3.6" fill="#009af9" fill-rule="evenodd" fill-opacity="1" stroke="#000000" stroke-opacity="1" stroke-width="3.2"/>
<circle clip-path="url(#clip852)" cx="1413.1" cy="936.512" r="3.6" fill="#009af9" fill-rule="evenodd" fill-opacity="1" stroke="#000000" stroke-opacity="1" stroke-width="3.2"/>
<circle clip-path="url(#clip852)" cx="1422.59" cy="953.979" r="3.6" fill="#009af9" fill-rule="evenodd" fill-opacity="1" stroke="#000000" stroke-opacity="1" stroke-width="3.2"/>
<circle clip-path="url(#clip852)" cx="1432.08" cy="957.184" r="3.6" fill="#009af9" fill-rule="evenodd" fill-opacity="1" stroke="#000000" stroke-opacity="1" stroke-width="3.2"/>
<circle clip-path="url(#clip852)" cx="1441.57" cy="898.841" r="3.6" fill="#009af9" fill-rule="evenodd" fill-opacity="1" stroke="#000000" stroke-opacity="1" stroke-width="3.2"/>
<circle clip-path="url(#clip852)" cx="1451.07" cy="1084.9" r="3.6" fill="#009af9" fill-rule="evenodd" fill-opacity="1" stroke="#000000" stroke-opacity="1" stroke-width="3.2"/>
<circle clip-path="url(#clip852)" cx="1460.56" cy="1074.9" r="3.6" fill="#009af9" fill-rule="evenodd" fill-opacity="1" stroke="#000000" stroke-opacity="1" stroke-width="3.2"/>
<circle clip-path="url(#clip852)" cx="1470.05" cy="921.153" r="3.6" fill="#009af9" fill-rule="evenodd" fill-opacity="1" stroke="#000000" stroke-opacity="1" stroke-width="3.2"/>
<circle clip-path="url(#clip852)" cx="1479.54" cy="789.902" r="3.6" fill="#009af9" fill-rule="evenodd" fill-opacity="1" stroke="#000000" stroke-opacity="1" stroke-width="3.2"/>
<circle clip-path="url(#clip852)" cx="1489.03" cy="788.039" r="3.6" fill="#009af9" fill-rule="evenodd" fill-opacity="1" stroke="#000000" stroke-opacity="1" stroke-width="3.2"/>
<circle clip-path="url(#clip852)" cx="1498.52" cy="749.788" r="3.6" fill="#009af9" fill-rule="evenodd" fill-opacity="1" stroke="#000000" stroke-opacity="1" stroke-width="3.2"/>
<circle clip-path="url(#clip852)" cx="1508.01" cy="736.615" r="3.6" fill="#009af9" fill-rule="evenodd" fill-opacity="1" stroke="#000000" stroke-opacity="1" stroke-width="3.2"/>
<circle clip-path="url(#clip852)" cx="1517.51" cy="722.223" r="3.6" fill="#009af9" fill-rule="evenodd" fill-opacity="1" stroke="#000000" stroke-opacity="1" stroke-width="3.2"/>
<circle clip-path="url(#clip852)" cx="1527" cy="706.368" r="3.6" fill="#009af9" fill-rule="evenodd" fill-opacity="1" stroke="#000000" stroke-opacity="1" stroke-width="3.2"/>
<circle clip-path="url(#clip852)" cx="1536.49" cy="703.409" r="3.6" fill="#009af9" fill-rule="evenodd" fill-opacity="1" stroke="#000000" stroke-opacity="1" stroke-width="3.2"/>
<circle clip-path="url(#clip852)" cx="1545.98" cy="789.87" r="3.6" fill="#009af9" fill-rule="evenodd" fill-opacity="1" stroke="#000000" stroke-opacity="1" stroke-width="3.2"/>
<circle clip-path="url(#clip852)" cx="1555.47" cy="852.511" r="3.6" fill="#009af9" fill-rule="evenodd" fill-opacity="1" stroke="#000000" stroke-opacity="1" stroke-width="3.2"/>
<circle clip-path="url(#clip852)" cx="1564.96" cy="863.309" r="3.6" fill="#009af9" fill-rule="evenodd" fill-opacity="1" stroke="#000000" stroke-opacity="1" stroke-width="3.2"/>
<circle clip-path="url(#clip852)" cx="1574.45" cy="894.979" r="3.6" fill="#009af9" fill-rule="evenodd" fill-opacity="1" stroke="#000000" stroke-opacity="1" stroke-width="3.2"/>
<circle clip-path="url(#clip852)" cx="1583.95" cy="878.644" r="3.6" fill="#009af9" fill-rule="evenodd" fill-opacity="1" stroke="#000000" stroke-opacity="1" stroke-width="3.2"/>
<circle clip-path="url(#clip852)" cx="1593.44" cy="879.949" r="3.6" fill="#009af9" fill-rule="evenodd" fill-opacity="1" stroke="#000000" stroke-opacity="1" stroke-width="3.2"/>
<circle clip-path="url(#clip852)" cx="1602.93" cy="915.124" r="3.6" fill="#009af9" fill-rule="evenodd" fill-opacity="1" stroke="#000000" stroke-opacity="1" stroke-width="3.2"/>
<circle clip-path="url(#clip852)" cx="1612.42" cy="911.943" r="3.6" fill="#009af9" fill-rule="evenodd" fill-opacity="1" stroke="#000000" stroke-opacity="1" stroke-width="3.2"/>
<circle clip-path="url(#clip852)" cx="1621.91" cy="965.313" r="3.6" fill="#009af9" fill-rule="evenodd" fill-opacity="1" stroke="#000000" stroke-opacity="1" stroke-width="3.2"/>
<circle clip-path="url(#clip852)" cx="1631.4" cy="991.596" r="3.6" fill="#009af9" fill-rule="evenodd" fill-opacity="1" stroke="#000000" stroke-opacity="1" stroke-width="3.2"/>
<circle clip-path="url(#clip852)" cx="1640.9" cy="1041.88" r="3.6" fill="#009af9" fill-rule="evenodd" fill-opacity="1" stroke="#000000" stroke-opacity="1" stroke-width="3.2"/>
<circle clip-path="url(#clip852)" cx="1650.39" cy="1031.71" r="3.6" fill="#009af9" fill-rule="evenodd" fill-opacity="1" stroke="#000000" stroke-opacity="1" stroke-width="3.2"/>
<circle clip-path="url(#clip852)" cx="1659.88" cy="993.88" r="3.6" fill="#009af9" fill-rule="evenodd" fill-opacity="1" stroke="#000000" stroke-opacity="1" stroke-width="3.2"/>
<circle clip-path="url(#clip852)" cx="1669.37" cy="1097.75" r="3.6" fill="#009af9" fill-rule="evenodd" fill-opacity="1" stroke="#000000" stroke-opacity="1" stroke-width="3.2"/>
<circle clip-path="url(#clip852)" cx="1678.86" cy="800.525" r="3.6" fill="#009af9" fill-rule="evenodd" fill-opacity="1" stroke="#000000" stroke-opacity="1" stroke-width="3.2"/>
<circle clip-path="url(#clip852)" cx="1688.35" cy="790.135" r="3.6" fill="#009af9" fill-rule="evenodd" fill-opacity="1" stroke="#000000" stroke-opacity="1" stroke-width="3.2"/>
<circle clip-path="url(#clip852)" cx="1697.84" cy="655.814" r="3.6" fill="#009af9" fill-rule="evenodd" fill-opacity="1" stroke="#000000" stroke-opacity="1" stroke-width="3.2"/>
<circle clip-path="url(#clip852)" cx="1707.34" cy="633.758" r="3.6" fill="#009af9" fill-rule="evenodd" fill-opacity="1" stroke="#000000" stroke-opacity="1" stroke-width="3.2"/>
<circle clip-path="url(#clip852)" cx="1716.83" cy="1019.83" r="3.6" fill="#009af9" fill-rule="evenodd" fill-opacity="1" stroke="#000000" stroke-opacity="1" stroke-width="3.2"/>
<circle clip-path="url(#clip852)" cx="1726.32" cy="1003.83" r="3.6" fill="#009af9" fill-rule="evenodd" fill-opacity="1" stroke="#000000" stroke-opacity="1" stroke-width="3.2"/>
<circle clip-path="url(#clip852)" cx="1735.81" cy="963.669" r="3.6" fill="#009af9" fill-rule="evenodd" fill-opacity="1" stroke="#000000" stroke-opacity="1" stroke-width="3.2"/>
<circle clip-path="url(#clip852)" cx="1745.3" cy="995.142" r="3.6" fill="#009af9" fill-rule="evenodd" fill-opacity="1" stroke="#000000" stroke-opacity="1" stroke-width="3.2"/>
<circle clip-path="url(#clip852)" cx="1754.79" cy="1005.83" r="3.6" fill="#009af9" fill-rule="evenodd" fill-opacity="1" stroke="#000000" stroke-opacity="1" stroke-width="3.2"/>
<circle clip-path="url(#clip852)" cx="1764.28" cy="873.325" r="3.6" fill="#009af9" fill-rule="evenodd" fill-opacity="1" stroke="#000000" stroke-opacity="1" stroke-width="3.2"/>
<circle clip-path="url(#clip852)" cx="1773.78" cy="1032.99" r="3.6" fill="#009af9" fill-rule="evenodd" fill-opacity="1" stroke="#000000" stroke-opacity="1" stroke-width="3.2"/>
<circle clip-path="url(#clip852)" cx="1783.27" cy="959.952" r="3.6" fill="#009af9" fill-rule="evenodd" fill-opacity="1" stroke="#000000" stroke-opacity="1" stroke-width="3.2"/>
<circle clip-path="url(#clip852)" cx="1792.76" cy="993.664" r="3.6" fill="#009af9" fill-rule="evenodd" fill-opacity="1" stroke="#000000" stroke-opacity="1" stroke-width="3.2"/>
<circle clip-path="url(#clip852)" cx="1802.25" cy="1041.26" r="3.6" fill="#009af9" fill-rule="evenodd" fill-opacity="1" stroke="#000000" stroke-opacity="1" stroke-width="3.2"/>
<circle clip-path="url(#clip852)" cx="1811.74" cy="957.444" r="3.6" fill="#009af9" fill-rule="evenodd" fill-opacity="1" stroke="#000000" stroke-opacity="1" stroke-width="3.2"/>
<circle clip-path="url(#clip852)" cx="1821.23" cy="1057.67" r="3.6" fill="#009af9" fill-rule="evenodd" fill-opacity="1" stroke="#000000" stroke-opacity="1" stroke-width="3.2"/>
<circle clip-path="url(#clip852)" cx="1830.72" cy="744.536" r="3.6" fill="#009af9" fill-rule="evenodd" fill-opacity="1" stroke="#000000" stroke-opacity="1" stroke-width="3.2"/>
<circle clip-path="url(#clip852)" cx="1840.22" cy="756.325" r="3.6" fill="#009af9" fill-rule="evenodd" fill-opacity="1" stroke="#000000" stroke-opacity="1" stroke-width="3.2"/>
<circle clip-path="url(#clip852)" cx="1849.71" cy="797.993" r="3.6" fill="#009af9" fill-rule="evenodd" fill-opacity="1" stroke="#000000" stroke-opacity="1" stroke-width="3.2"/>
<circle clip-path="url(#clip852)" cx="1859.2" cy="878.403" r="3.6" fill="#009af9" fill-rule="evenodd" fill-opacity="1" stroke="#000000" stroke-opacity="1" stroke-width="3.2"/>
<circle clip-path="url(#clip852)" cx="1868.69" cy="854.138" r="3.6" fill="#009af9" fill-rule="evenodd" fill-opacity="1" stroke="#000000" stroke-opacity="1" stroke-width="3.2"/>
<circle clip-path="url(#clip852)" cx="1878.18" cy="975.017" r="3.6" fill="#009af9" fill-rule="evenodd" fill-opacity="1" stroke="#000000" stroke-opacity="1" stroke-width="3.2"/>
<circle clip-path="url(#clip852)" cx="1887.67" cy="1010" r="3.6" fill="#009af9" fill-rule="evenodd" fill-opacity="1" stroke="#000000" stroke-opacity="1" stroke-width="3.2"/>
<circle clip-path="url(#clip852)" cx="1897.17" cy="1080.22" r="3.6" fill="#009af9" fill-rule="evenodd" fill-opacity="1" stroke="#000000" stroke-opacity="1" stroke-width="3.2"/>
<circle clip-path="url(#clip852)" cx="1906.66" cy="1104.86" r="3.6" fill="#009af9" fill-rule="evenodd" fill-opacity="1" stroke="#000000" stroke-opacity="1" stroke-width="3.2"/>
<circle clip-path="url(#clip852)" cx="1916.15" cy="958.846" r="3.6" fill="#009af9" fill-rule="evenodd" fill-opacity="1" stroke="#000000" stroke-opacity="1" stroke-width="3.2"/>
<circle clip-path="url(#clip852)" cx="1925.64" cy="1040.16" r="3.6" fill="#009af9" fill-rule="evenodd" fill-opacity="1" stroke="#000000" stroke-opacity="1" stroke-width="3.2"/>
<circle clip-path="url(#clip852)" cx="1935.13" cy="957.128" r="3.6" fill="#009af9" fill-rule="evenodd" fill-opacity="1" stroke="#000000" stroke-opacity="1" stroke-width="3.2"/>
<circle clip-path="url(#clip852)" cx="1944.62" cy="982.237" r="3.6" fill="#009af9" fill-rule="evenodd" fill-opacity="1" stroke="#000000" stroke-opacity="1" stroke-width="3.2"/>
<circle clip-path="url(#clip852)" cx="1954.11" cy="981.711" r="3.6" fill="#009af9" fill-rule="evenodd" fill-opacity="1" stroke="#000000" stroke-opacity="1" stroke-width="3.2"/>
<circle clip-path="url(#clip852)" cx="1963.61" cy="1043.17" r="3.6" fill="#009af9" fill-rule="evenodd" fill-opacity="1" stroke="#000000" stroke-opacity="1" stroke-width="3.2"/>
<circle clip-path="url(#clip852)" cx="1973.1" cy="1031.41" r="3.6" fill="#009af9" fill-rule="evenodd" fill-opacity="1" stroke="#000000" stroke-opacity="1" stroke-width="3.2"/>
<circle clip-path="url(#clip852)" cx="1982.59" cy="1075.81" r="3.6" fill="#009af9" fill-rule="evenodd" fill-opacity="1" stroke="#000000" stroke-opacity="1" stroke-width="3.2"/>
<circle clip-path="url(#clip852)" cx="1992.08" cy="839.258" r="3.6" fill="#009af9" fill-rule="evenodd" fill-opacity="1" stroke="#000000" stroke-opacity="1" stroke-width="3.2"/>
<circle clip-path="url(#clip852)" cx="2001.57" cy="807.871" r="3.6" fill="#009af9" fill-rule="evenodd" fill-opacity="1" stroke="#000000" stroke-opacity="1" stroke-width="3.2"/>
<circle clip-path="url(#clip852)" cx="2011.06" cy="830.824" r="3.6" fill="#009af9" fill-rule="evenodd" fill-opacity="1" stroke="#000000" stroke-opacity="1" stroke-width="3.2"/>
<circle clip-path="url(#clip852)" cx="2020.55" cy="791.656" r="3.6" fill="#009af9" fill-rule="evenodd" fill-opacity="1" stroke="#000000" stroke-opacity="1" stroke-width="3.2"/>
<circle clip-path="url(#clip852)" cx="2030.05" cy="798.953" r="3.6" fill="#009af9" fill-rule="evenodd" fill-opacity="1" stroke="#000000" stroke-opacity="1" stroke-width="3.2"/>
<circle clip-path="url(#clip852)" cx="2039.54" cy="776.696" r="3.6" fill="#009af9" fill-rule="evenodd" fill-opacity="1" stroke="#000000" stroke-opacity="1" stroke-width="3.2"/>
<circle clip-path="url(#clip852)" cx="2049.03" cy="768.274" r="3.6" fill="#009af9" fill-rule="evenodd" fill-opacity="1" stroke="#000000" stroke-opacity="1" stroke-width="3.2"/>
<circle clip-path="url(#clip852)" cx="2058.52" cy="985.071" r="3.6" fill="#009af9" fill-rule="evenodd" fill-opacity="1" stroke="#000000" stroke-opacity="1" stroke-width="3.2"/>
<circle clip-path="url(#clip852)" cx="2068.01" cy="1027.08" r="3.6" fill="#009af9" fill-rule="evenodd" fill-opacity="1" stroke="#000000" stroke-opacity="1" stroke-width="3.2"/>
<circle clip-path="url(#clip852)" cx="2077.5" cy="1064.57" r="3.6" fill="#009af9" fill-rule="evenodd" fill-opacity="1" stroke="#000000" stroke-opacity="1" stroke-width="3.2"/>
<circle clip-path="url(#clip852)" cx="2086.99" cy="1046.05" r="3.6" fill="#009af9" fill-rule="evenodd" fill-opacity="1" stroke="#000000" stroke-opacity="1" stroke-width="3.2"/>
<circle clip-path="url(#clip852)" cx="2096.49" cy="739.773" r="3.6" fill="#009af9" fill-rule="evenodd" fill-opacity="1" stroke="#000000" stroke-opacity="1" stroke-width="3.2"/>
<circle clip-path="url(#clip852)" cx="2105.98" cy="801.931" r="3.6" fill="#009af9" fill-rule="evenodd" fill-opacity="1" stroke="#000000" stroke-opacity="1" stroke-width="3.2"/>
<circle clip-path="url(#clip852)" cx="2115.47" cy="820.441" r="3.6" fill="#009af9" fill-rule="evenodd" fill-opacity="1" stroke="#000000" stroke-opacity="1" stroke-width="3.2"/>
<circle clip-path="url(#clip852)" cx="2124.96" cy="784.807" r="3.6" fill="#009af9" fill-rule="evenodd" fill-opacity="1" stroke="#000000" stroke-opacity="1" stroke-width="3.2"/>
<circle clip-path="url(#clip852)" cx="2134.45" cy="667.097" r="3.6" fill="#009af9" fill-rule="evenodd" fill-opacity="1" stroke="#000000" stroke-opacity="1" stroke-width="3.2"/>
<circle clip-path="url(#clip852)" cx="2143.94" cy="848.863" r="3.6" fill="#009af9" fill-rule="evenodd" fill-opacity="1" stroke="#000000" stroke-opacity="1" stroke-width="3.2"/>
<circle clip-path="url(#clip852)" cx="2153.43" cy="959.271" r="3.6" fill="#009af9" fill-rule="evenodd" fill-opacity="1" stroke="#000000" stroke-opacity="1" stroke-width="3.2"/>
<circle clip-path="url(#clip852)" cx="2162.93" cy="747.504" r="3.6" fill="#009af9" fill-rule="evenodd" fill-opacity="1" stroke="#000000" stroke-opacity="1" stroke-width="3.2"/>
<circle clip-path="url(#clip852)" cx="2172.42" cy="764.189" r="3.6" fill="#009af9" fill-rule="evenodd" fill-opacity="1" stroke="#000000" stroke-opacity="1" stroke-width="3.2"/>
<circle clip-path="url(#clip852)" cx="2181.91" cy="682.593" r="3.6" fill="#009af9" fill-rule="evenodd" fill-opacity="1" stroke="#000000" stroke-opacity="1" stroke-width="3.2"/>
<circle clip-path="url(#clip852)" cx="2191.4" cy="709.829" r="3.6" fill="#009af9" fill-rule="evenodd" fill-opacity="1" stroke="#000000" stroke-opacity="1" stroke-width="3.2"/>
<circle clip-path="url(#clip852)" cx="2200.89" cy="704.793" r="3.6" fill="#009af9" fill-rule="evenodd" fill-opacity="1" stroke="#000000" stroke-opacity="1" stroke-width="3.2"/>
<circle clip-path="url(#clip852)" cx="2210.38" cy="649.502" r="3.6" fill="#009af9" fill-rule="evenodd" fill-opacity="1" stroke="#000000" stroke-opacity="1" stroke-width="3.2"/>
<circle clip-path="url(#clip852)" cx="2219.88" cy="842.512" r="3.6" fill="#009af9" fill-rule="evenodd" fill-opacity="1" stroke="#000000" stroke-opacity="1" stroke-width="3.2"/>
<circle clip-path="url(#clip852)" cx="2229.37" cy="706.616" r="3.6" fill="#009af9" fill-rule="evenodd" fill-opacity="1" stroke="#000000" stroke-opacity="1" stroke-width="3.2"/>
<circle clip-path="url(#clip852)" cx="2238.86" cy="729.557" r="3.6" fill="#009af9" fill-rule="evenodd" fill-opacity="1" stroke="#000000" stroke-opacity="1" stroke-width="3.2"/>
<circle clip-path="url(#clip852)" cx="2248.35" cy="667.06" r="3.6" fill="#009af9" fill-rule="evenodd" fill-opacity="1" stroke="#000000" stroke-opacity="1" stroke-width="3.2"/>
<circle clip-path="url(#clip852)" cx="2257.84" cy="675.298" r="3.6" fill="#009af9" fill-rule="evenodd" fill-opacity="1" stroke="#000000" stroke-opacity="1" stroke-width="3.2"/>
<circle clip-path="url(#clip852)" cx="2267.33" cy="735.178" r="3.6" fill="#009af9" fill-rule="evenodd" fill-opacity="1" stroke="#000000" stroke-opacity="1" stroke-width="3.2"/>
<circle clip-path="url(#clip852)" cx="2276.82" cy="702.678" r="3.6" fill="#009af9" fill-rule="evenodd" fill-opacity="1" stroke="#000000" stroke-opacity="1" stroke-width="3.2"/>
<circle clip-path="url(#clip852)" cx="2286.32" cy="725.923" r="3.6" fill="#009af9" fill-rule="evenodd" fill-opacity="1" stroke="#000000" stroke-opacity="1" stroke-width="3.2"/>
<circle clip-path="url(#clip852)" cx="2295.81" cy="714.56" r="3.6" fill="#009af9" fill-rule="evenodd" fill-opacity="1" stroke="#000000" stroke-opacity="1" stroke-width="3.2"/>
<circle clip-path="url(#clip852)" cx="2305.3" cy="773.646" r="3.6" fill="#009af9" fill-rule="evenodd" fill-opacity="1" stroke="#000000" stroke-opacity="1" stroke-width="3.2"/>
<circle clip-path="url(#clip852)" cx="2314.79" cy="773.767" r="3.6" fill="#009af9" fill-rule="evenodd" fill-opacity="1" stroke="#000000" stroke-opacity="1" stroke-width="3.2"/>
<circle clip-path="url(#clip852)" cx="2324.28" cy="803.56" r="3.6" fill="#009af9" fill-rule="evenodd" fill-opacity="1" stroke="#000000" stroke-opacity="1" stroke-width="3.2"/>
<circle clip-path="url(#clip852)" cx="2333.77" cy="809.155" r="3.6" fill="#009af9" fill-rule="evenodd" fill-opacity="1" stroke="#000000" stroke-opacity="1" stroke-width="3.2"/>
<circle clip-path="url(#clip852)" cx="2343.26" cy="763.835" r="3.6" fill="#009af9" fill-rule="evenodd" fill-opacity="1" stroke="#000000" stroke-opacity="1" stroke-width="3.2"/>
<circle clip-path="url(#clip852)" cx="2352.76" cy="792.589" r="3.6" fill="#009af9" fill-rule="evenodd" fill-opacity="1" stroke="#000000" stroke-opacity="1" stroke-width="3.2"/>
<path clip-path="url(#clip850)" d="M1933.42 323.941 L2289.16 323.941 L2289.16 90.6606 L1933.42 90.6606  Z" fill="#ffffff" fill-rule="evenodd" fill-opacity="1"/>
<polyline clip-path="url(#clip850)" style="stroke:#000000; stroke-linecap:round; stroke-linejoin:round; stroke-width:4; stroke-opacity:1; fill:none" points="1933.42,323.941 2289.16,323.941 2289.16,90.6606 1933.42,90.6606 1933.42,323.941 "/>
<polyline clip-path="url(#clip850)" style="stroke:#009af9; stroke-linecap:round; stroke-linejoin:round; stroke-width:18; stroke-opacity:1; fill:none" points="1954.62,207.301 2081.81,207.301 "/>
<circle clip-path="url(#clip850)" cx="2018.21" cy="207.301" r="7.85097" fill="#009af9" fill-rule="evenodd" fill-opacity="1" stroke="#000000" stroke-opacity="1" stroke-width="6.97864"/>
<path clip-path="url(#clip850)" d="M2103 246.181 L2103 168.421 L2132.34 168.421 Q2140.08 168.421 2144.16 169.163 Q2149.89 170.118 2153.77 172.823 Q2157.64 175.475 2159.97 180.302 Q2162.36 185.129 2162.36 190.911 Q2162.36 200.829 2156.05 207.725 Q2149.73 214.567 2133.24 214.567 L2113.29 214.567 L2113.29 246.181 L2103 246.181 M2113.29 205.391 L2133.4 205.391 Q2143.37 205.391 2147.56 201.678 Q2151.75 197.965 2151.75 191.229 Q2151.75 186.349 2149.26 182.901 Q2146.82 179.4 2142.79 178.286 Q2140.19 177.597 2133.18 177.597 L2113.29 177.597 L2113.29 205.391 Z" fill="#000000" fill-rule="nonzero" fill-opacity="1" /><path clip-path="url(#clip850)" d="M2171.64 225.653 L2181.19 224.38 Q2182.83 232.496 2186.76 236.103 Q2190.74 239.656 2196.41 239.656 Q2203.15 239.656 2207.76 234.989 Q2212.43 230.321 2212.43 223.425 Q2212.43 216.848 2208.13 212.605 Q2203.84 208.308 2197.21 208.308 Q2194.5 208.308 2190.47 209.369 L2191.53 200.989 Q2192.49 201.095 2193.07 201.095 Q2199.17 201.095 2204.05 197.912 Q2208.93 194.73 2208.93 188.099 Q2208.93 182.848 2205.38 179.4 Q2201.82 175.953 2196.2 175.953 Q2190.63 175.953 2186.92 179.453 Q2183.2 182.954 2182.14 189.956 L2172.6 188.258 Q2174.35 178.658 2180.55 173.407 Q2186.76 168.102 2195.99 168.102 Q2202.35 168.102 2207.71 170.861 Q2213.07 173.566 2215.88 178.286 Q2218.74 183.007 2218.74 188.311 Q2218.74 193.35 2216.04 197.488 Q2213.33 201.625 2208.03 204.065 Q2214.92 205.656 2218.74 210.695 Q2222.56 215.681 2222.56 223.213 Q2222.56 233.397 2215.14 240.505 Q2207.71 247.56 2196.36 247.56 Q2186.12 247.56 2179.33 241.46 Q2172.6 235.36 2171.64 225.653 Z" fill="#000000" fill-rule="nonzero" fill-opacity="1" /><path clip-path="url(#clip850)" d="M2267.97 246.181 L2258.42 246.181 L2258.42 185.341 Q2254.97 188.63 2249.35 191.918 Q2243.78 195.207 2239.32 196.851 L2239.32 187.622 Q2247.33 183.856 2253.33 178.499 Q2259.32 173.141 2261.81 168.102 L2267.97 168.102 L2267.97 246.181 Z" fill="#000000" fill-rule="nonzero" fill-opacity="1" /></svg>
