<?xml version="1.0" encoding="utf-8"?>
<svg xmlns="http://www.w3.org/2000/svg" xmlns:xlink="http://www.w3.org/1999/xlink" width="600" height="400" viewBox="0 0 2400 1600">
<defs>
  <clipPath id="clip500">
    <rect x="0" y="0" width="2400" height="1600"/>
  </clipPath>
</defs>
<path clip-path="url(#clip500)" d="M0 1600 L2400 1600 L2400 8.88178e-14 L0 8.88178e-14  Z" fill="#ffffff" fill-rule="evenodd" fill-opacity="1"/>
<defs>
  <clipPath id="clip501">
    <rect x="480" y="0" width="1681" height="1600"/>
  </clipPath>
</defs>
<path clip-path="url(#clip500)" d="M383.97 1349.74 L2352.76 1349.74 L2352.76 47.2441 L383.97 47.2441  Z" fill="#ffffff" fill-rule="evenodd" fill-opacity="1"/>
<defs>
  <clipPath id="clip502">
    <rect x="383" y="47" width="1970" height="1303"/>
  </clipPath>
</defs>
<polyline clip-path="url(#clip500)" style="stroke:#000000; stroke-linecap:round; stroke-linejoin:round; stroke-width:4; stroke-opacity:1; fill:none" points="383.97,1349.74 2352.76,1349.74 "/>
<polyline clip-path="url(#clip500)" style="stroke:#000000; stroke-linecap:round; stroke-linejoin:round; stroke-width:2; stroke-opacity:0.5; fill:none" points="383.97,47.2441 2352.76,47.2441 "/>
<polyline clip-path="url(#clip500)" style="stroke:#000000; stroke-linecap:round; stroke-linejoin:round; stroke-width:4; stroke-opacity:1; fill:none" points="863.923,1349.74 863.923,1330.84 "/>
<polyline clip-path="url(#clip500)" style="stroke:#000000; stroke-linecap:round; stroke-linejoin:round; stroke-width:4; stroke-opacity:1; fill:none" points="1353.67,1349.74 1353.67,1330.84 "/>
<polyline clip-path="url(#clip500)" style="stroke:#000000; stroke-linecap:round; stroke-linejoin:round; stroke-width:4; stroke-opacity:1; fill:none" points="1843.42,1349.74 1843.42,1330.84 "/>
<polyline clip-path="url(#clip500)" style="stroke:#000000; stroke-linecap:round; stroke-linejoin:round; stroke-width:4; stroke-opacity:1; fill:none" points="2333.17,1349.74 2333.17,1330.84 "/>
<path clip-path="url(#clip500)" d="M808.361 1445.77 L818.386 1444.92 Q819.5 1452.24 823.531 1455.96 Q827.616 1459.62 833.344 1459.62 Q840.24 1459.62 845.014 1454.42 Q849.787 1449.22 849.787 1440.63 Q849.787 1432.46 845.173 1427.74 Q840.611 1423.02 833.185 1423.02 Q828.57 1423.02 824.857 1425.14 Q821.144 1427.21 819.023 1430.55 L810.059 1429.38 L817.591 1389.44 L856.258 1389.44 L856.258 1398.56 L825.229 1398.56 L821.038 1419.46 Q828.04 1414.58 835.731 1414.58 Q845.915 1414.58 852.917 1421.64 Q859.918 1428.69 859.918 1439.78 Q859.918 1450.33 853.765 1458.02 Q846.287 1467.47 833.344 1467.47 Q822.736 1467.47 815.999 1461.53 Q809.316 1455.58 808.361 1445.77 Z" fill="#000000" fill-rule="nonzero" fill-opacity="1" /><path clip-path="url(#clip500)" d="M868.776 1427.79 Q868.776 1414 871.588 1405.62 Q874.452 1397.18 880.021 1392.62 Q885.644 1388.06 894.131 1388.06 Q900.39 1388.06 905.11 1390.61 Q909.831 1393.1 912.908 1397.87 Q915.984 1402.6 917.734 1409.44 Q919.485 1416.23 919.485 1427.79 Q919.485 1441.48 916.674 1449.91 Q913.862 1458.29 908.24 1462.9 Q902.67 1467.47 894.131 1467.47 Q882.886 1467.47 876.468 1459.4 Q868.776 1449.7 868.776 1427.79 M878.589 1427.79 Q878.589 1446.94 883.045 1453.3 Q887.553 1459.62 894.131 1459.62 Q900.708 1459.62 905.163 1453.25 Q909.672 1446.89 909.672 1427.79 Q909.672 1408.59 905.163 1402.28 Q900.708 1395.96 894.025 1395.96 Q887.447 1395.96 883.522 1401.53 Q878.589 1408.64 878.589 1427.79 Z" fill="#000000" fill-rule="nonzero" fill-opacity="1" /><path clip-path="url(#clip500)" d="M1300.2 1466.14 L1290.66 1466.14 L1290.66 1405.3 Q1287.21 1408.59 1281.59 1411.88 Q1276.02 1415.17 1271.56 1416.81 L1271.56 1407.58 Q1279.57 1403.82 1285.56 1398.46 Q1291.56 1393.1 1294.05 1388.06 L1300.2 1388.06 L1300.2 1466.14 Z" fill="#000000" fill-rule="nonzero" fill-opacity="1" /><path clip-path="url(#clip500)" d="M1324.66 1427.79 Q1324.66 1414 1327.47 1405.62 Q1330.33 1397.18 1335.9 1392.62 Q1341.52 1388.06 1350.01 1388.06 Q1356.27 1388.06 1360.99 1390.61 Q1365.71 1393.1 1368.79 1397.87 Q1371.86 1402.6 1373.61 1409.44 Q1375.37 1416.23 1375.37 1427.79 Q1375.37 1441.48 1372.55 1449.91 Q1369.74 1458.29 1364.12 1462.9 Q1358.55 1467.47 1350.01 1467.47 Q1338.77 1467.47 1332.35 1459.4 Q1324.66 1449.7 1324.66 1427.79 M1334.47 1427.79 Q1334.47 1446.94 1338.92 1453.3 Q1343.43 1459.62 1350.01 1459.62 Q1356.59 1459.62 1361.04 1453.25 Q1365.55 1446.89 1365.55 1427.79 Q1365.55 1408.59 1361.04 1402.28 Q1356.59 1395.96 1349.9 1395.96 Q1343.33 1395.96 1339.4 1401.53 Q1334.47 1408.64 1334.47 1427.79 Z" fill="#000000" fill-rule="nonzero" fill-opacity="1" /><path clip-path="url(#clip500)" d="M1385.07 1427.79 Q1385.07 1414 1387.88 1405.62 Q1390.75 1397.18 1396.32 1392.62 Q1401.94 1388.06 1410.43 1388.06 Q1416.68 1388.06 1421.41 1390.61 Q1426.13 1393.1 1429.2 1397.87 Q1432.28 1402.6 1434.03 1409.44 Q1435.78 1416.23 1435.78 1427.79 Q1435.78 1441.48 1432.97 1449.91 Q1430.16 1458.29 1424.54 1462.9 Q1418.97 1467.47 1410.43 1467.47 Q1399.18 1467.47 1392.76 1459.4 Q1385.07 1449.7 1385.07 1427.79 M1394.88 1427.79 Q1394.88 1446.94 1399.34 1453.3 Q1403.85 1459.62 1410.43 1459.62 Q1417 1459.62 1421.46 1453.25 Q1425.97 1446.89 1425.97 1427.79 Q1425.97 1408.59 1421.46 1402.28 Q1417 1395.96 1410.32 1395.96 Q1403.74 1395.96 1399.82 1401.53 Q1394.88 1408.64 1394.88 1427.79 Z" fill="#000000" fill-rule="nonzero" fill-opacity="1" /><path clip-path="url(#clip500)" d="M1789.95 1466.14 L1780.4 1466.14 L1780.4 1405.3 Q1776.96 1408.59 1771.33 1411.88 Q1765.76 1415.17 1761.31 1416.81 L1761.31 1407.58 Q1769.32 1403.82 1775.31 1398.46 Q1781.31 1393.1 1783.8 1388.06 L1789.95 1388.06 L1789.95 1466.14 Z" fill="#000000" fill-rule="nonzero" fill-opacity="1" /><path clip-path="url(#clip500)" d="M1814.4 1445.77 L1824.43 1444.92 Q1825.54 1452.24 1829.57 1455.96 Q1833.66 1459.62 1839.39 1459.62 Q1846.28 1459.62 1851.06 1454.42 Q1855.83 1449.22 1855.83 1440.63 Q1855.83 1432.46 1851.22 1427.74 Q1846.65 1423.02 1839.23 1423.02 Q1834.61 1423.02 1830.9 1425.14 Q1827.19 1427.21 1825.07 1430.55 L1816.1 1429.38 L1823.63 1389.44 L1862.3 1389.44 L1862.3 1398.56 L1831.27 1398.56 L1827.08 1419.46 Q1834.08 1414.58 1841.77 1414.58 Q1851.96 1414.58 1858.96 1421.64 Q1865.96 1428.69 1865.96 1439.78 Q1865.96 1450.33 1859.81 1458.02 Q1852.33 1467.47 1839.39 1467.47 Q1828.78 1467.47 1822.04 1461.53 Q1815.36 1455.58 1814.4 1445.77 Z" fill="#000000" fill-rule="nonzero" fill-opacity="1" /><path clip-path="url(#clip500)" d="M1874.82 1427.79 Q1874.82 1414 1877.63 1405.62 Q1880.49 1397.18 1886.06 1392.62 Q1891.69 1388.06 1900.17 1388.06 Q1906.43 1388.06 1911.15 1390.61 Q1915.87 1393.1 1918.95 1397.87 Q1922.03 1402.6 1923.78 1409.44 Q1925.53 1416.23 1925.53 1427.79 Q1925.53 1441.48 1922.72 1449.91 Q1919.91 1458.29 1914.28 1462.9 Q1908.71 1467.47 1900.17 1467.47 Q1888.93 1467.47 1882.51 1459.4 Q1874.82 1449.7 1874.82 1427.79 M1884.63 1427.79 Q1884.63 1446.94 1889.09 1453.3 Q1893.6 1459.62 1900.17 1459.62 Q1906.75 1459.62 1911.21 1453.25 Q1915.72 1446.89 1915.72 1427.79 Q1915.72 1408.59 1911.21 1402.28 Q1906.75 1395.96 1900.07 1395.96 Q1893.49 1395.96 1889.57 1401.53 Q1884.63 1408.64 1884.63 1427.79 Z" fill="#000000" fill-rule="nonzero" fill-opacity="1" /><path clip-path="url(#clip500)" d="M2298.24 1456.96 L2298.24 1466.14 L2246.84 1466.14 Q2246.73 1462.69 2247.95 1459.51 Q2249.92 1454.26 2254.21 1449.17 Q2258.56 1444.07 2266.73 1437.39 Q2279.41 1426.99 2283.86 1420.95 Q2288.32 1414.85 2288.32 1409.44 Q2288.32 1403.76 2284.23 1399.89 Q2280.2 1395.96 2273.68 1395.96 Q2266.78 1395.96 2262.65 1400.1 Q2258.51 1404.24 2258.46 1411.56 L2248.64 1410.55 Q2249.65 1399.57 2256.23 1393.84 Q2262.81 1388.06 2273.89 1388.06 Q2285.08 1388.06 2291.61 1394.27 Q2298.13 1400.47 2298.13 1409.65 Q2298.13 1414.32 2296.22 1418.83 Q2294.31 1423.33 2289.86 1428.32 Q2285.45 1433.31 2275.16 1442.01 Q2266.57 1449.22 2264.13 1451.82 Q2261.69 1454.36 2260.1 1456.96 L2298.24 1456.96 Z" fill="#000000" fill-rule="nonzero" fill-opacity="1" /><path clip-path="url(#clip500)" d="M2308.47 1427.79 Q2308.47 1414 2311.29 1405.62 Q2314.15 1397.18 2319.72 1392.62 Q2325.34 1388.06 2333.83 1388.06 Q2340.09 1388.06 2344.81 1390.61 Q2349.53 1393.1 2352.61 1397.87 Q2355.68 1402.6 2357.43 1409.44 Q2359.18 1416.23 2359.18 1427.79 Q2359.18 1441.48 2356.37 1449.91 Q2353.56 1458.29 2347.94 1462.9 Q2342.37 1467.47 2333.83 1467.47 Q2322.58 1467.47 2316.17 1459.4 Q2308.47 1449.7 2308.47 1427.79 M2318.29 1427.79 Q2318.29 1446.94 2322.74 1453.3 Q2327.25 1459.62 2333.83 1459.62 Q2340.41 1459.62 2344.86 1453.25 Q2349.37 1446.89 2349.37 1427.79 Q2349.37 1408.59 2344.86 1402.28 Q2340.41 1395.96 2333.72 1395.96 Q2327.15 1395.96 2323.22 1401.53 Q2318.29 1408.64 2318.29 1427.79 Z" fill="#000000" fill-rule="nonzero" fill-opacity="1" /><path clip-path="url(#clip500)" d="M2368.89 1427.79 Q2368.89 1414 2371.7 1405.62 Q2374.57 1397.18 2380.13 1392.62 Q2385.76 1388.06 2394.24 1388.06 Q2400.5 1388.06 2405.22 1390.61 Q2409.94 1393.1 2413.02 1397.87 Q2416.1 1402.6 2417.85 1409.44 Q2419.6 1416.23 2419.6 1427.79 Q2419.6 1441.48 2416.79 1449.91 Q2413.98 1458.29 2408.35 1462.9 Q2402.78 1467.47 2394.24 1467.47 Q2383 1467.47 2376.58 1459.4 Q2368.89 1449.7 2368.89 1427.79 M2378.7 1427.79 Q2378.7 1446.94 2383.16 1453.3 Q2387.67 1459.62 2394.24 1459.62 Q2400.82 1459.62 2405.28 1453.25 Q2409.79 1446.89 2409.79 1427.79 Q2409.79 1408.59 2405.28 1402.28 Q2400.82 1395.96 2394.14 1395.96 Q2387.56 1395.96 2383.64 1401.53 Q2378.7 1408.64 2378.7 1427.79 Z" fill="#000000" fill-rule="nonzero" fill-opacity="1" /><path clip-path="url(#clip500)" d="M1267.79 1577.55 L1277.66 1578.77 Q1275.33 1587.42 1269.01 1592.19 Q1262.7 1596.96 1252.89 1596.96 Q1240.53 1596.96 1233.26 1589.38 Q1226.05 1581.74 1226.05 1568 Q1226.05 1553.79 1233.37 1545.94 Q1240.69 1538.09 1252.36 1538.09 Q1263.66 1538.09 1270.82 1545.78 Q1277.98 1553.47 1277.98 1567.42 Q1277.98 1568.27 1277.93 1569.97 L1235.92 1569.97 Q1236.45 1579.25 1241.17 1584.18 Q1245.89 1589.11 1252.94 1589.11 Q1258.19 1589.11 1261.91 1586.36 Q1265.62 1583.6 1267.79 1577.55 M1236.45 1562.12 L1267.9 1562.12 Q1267.26 1555.01 1264.29 1551.45 Q1259.73 1545.94 1252.47 1545.94 Q1245.89 1545.94 1241.38 1550.34 Q1236.92 1554.74 1236.45 1562.12 Z" fill="#000000" fill-rule="nonzero" fill-opacity="1" /><path clip-path="url(#clip500)" d="M1289.65 1617.28 L1289.65 1539.36 L1298.35 1539.36 L1298.35 1546.68 Q1301.42 1542.38 1305.3 1540.26 Q1309.17 1538.09 1314.68 1538.09 Q1321.9 1538.09 1327.41 1541.8 Q1332.93 1545.51 1335.74 1552.3 Q1338.55 1559.04 1338.55 1567.1 Q1338.55 1575.75 1335.42 1582.7 Q1332.35 1589.59 1326.41 1593.3 Q1320.52 1596.96 1313.99 1596.96 Q1309.22 1596.96 1305.4 1594.95 Q1301.64 1592.93 1299.2 1589.86 L1299.2 1617.28 L1289.65 1617.28 M1298.29 1567.84 Q1298.29 1578.72 1302.7 1583.92 Q1307.1 1589.11 1313.36 1589.11 Q1319.72 1589.11 1324.23 1583.76 Q1328.79 1578.35 1328.79 1567.05 Q1328.79 1556.28 1324.34 1550.92 Q1319.94 1545.57 1313.78 1545.57 Q1307.68 1545.57 1302.96 1551.3 Q1298.29 1556.97 1298.29 1567.84 Z" fill="#000000" fill-rule="nonzero" fill-opacity="1" /><path clip-path="url(#clip500)" d="M1346.51 1567.53 Q1346.51 1551.88 1355.21 1544.35 Q1362.48 1538.09 1372.92 1538.09 Q1384.54 1538.09 1391.91 1545.73 Q1399.29 1553.31 1399.29 1566.73 Q1399.29 1577.6 1396 1583.86 Q1392.76 1590.07 1386.5 1593.52 Q1380.3 1596.96 1372.92 1596.96 Q1361.1 1596.96 1353.78 1589.38 Q1346.51 1581.79 1346.51 1567.53 M1356.32 1567.53 Q1356.32 1578.35 1361.04 1583.76 Q1365.76 1589.11 1372.92 1589.11 Q1380.03 1589.11 1384.75 1583.7 Q1389.47 1578.29 1389.47 1567.21 Q1389.47 1556.76 1384.7 1551.4 Q1379.98 1545.99 1372.92 1545.99 Q1365.76 1545.99 1361.04 1551.35 Q1356.32 1556.71 1356.32 1567.53 Z" fill="#000000" fill-rule="nonzero" fill-opacity="1" /><path clip-path="url(#clip500)" d="M1447.24 1575.06 L1456.63 1576.28 Q1455.09 1585.99 1448.72 1591.5 Q1442.41 1596.96 1433.18 1596.96 Q1421.62 1596.96 1414.56 1589.43 Q1407.56 1581.85 1407.56 1567.74 Q1407.56 1558.62 1410.58 1551.77 Q1413.61 1544.93 1419.76 1541.54 Q1425.97 1538.09 1433.23 1538.09 Q1442.41 1538.09 1448.24 1542.76 Q1454.08 1547.37 1455.72 1555.91 L1446.44 1557.34 Q1445.12 1551.67 1441.72 1548.8 Q1438.38 1545.94 1433.61 1545.94 Q1426.39 1545.94 1421.88 1551.14 Q1417.37 1556.28 1417.37 1567.47 Q1417.37 1578.82 1421.72 1583.97 Q1426.07 1589.11 1433.07 1589.11 Q1438.7 1589.11 1442.46 1585.67 Q1446.23 1582.22 1447.24 1575.06 Z" fill="#000000" fill-rule="nonzero" fill-opacity="1" /><path clip-path="url(#clip500)" d="M1464.79 1595.69 L1464.79 1517.93 L1474.34 1517.93 L1474.34 1545.83 Q1481.02 1538.09 1491.21 1538.09 Q1497.47 1538.09 1502.08 1540.58 Q1506.7 1543.02 1508.66 1547.37 Q1510.68 1551.72 1510.68 1559.99 L1510.68 1595.69 L1501.13 1595.69 L1501.13 1559.99 Q1501.13 1552.83 1498 1549.6 Q1494.92 1546.31 1489.25 1546.31 Q1485 1546.31 1481.24 1548.54 Q1477.52 1550.71 1475.93 1554.48 Q1474.34 1558.24 1474.34 1564.87 L1474.34 1595.69 L1464.79 1595.69 Z" fill="#000000" fill-rule="nonzero" fill-opacity="1" /><polyline clip-path="url(#clip500)" style="stroke:#000000; stroke-linecap:round; stroke-linejoin:round; stroke-width:4; stroke-opacity:1; fill:none" points="383.97,1349.74 383.97,47.2441 "/>
<polyline clip-path="url(#clip500)" style="stroke:#000000; stroke-linecap:round; stroke-linejoin:round; stroke-width:2; stroke-opacity:0.5; fill:none" points="2352.76,1349.74 2352.76,47.2441 "/>
<polyline clip-path="url(#clip500)" style="stroke:#000000; stroke-linecap:round; stroke-linejoin:round; stroke-width:4; stroke-opacity:1; fill:none" points="383.97,1141.39 402.868,1141.39 "/>
<polyline clip-path="url(#clip500)" style="stroke:#000000; stroke-linecap:round; stroke-linejoin:round; stroke-width:4; stroke-opacity:1; fill:none" points="383.97,918.773 402.868,918.773 "/>
<polyline clip-path="url(#clip500)" style="stroke:#000000; stroke-linecap:round; stroke-linejoin:round; stroke-width:4; stroke-opacity:1; fill:none" points="383.97,696.153 402.868,696.153 "/>
<polyline clip-path="url(#clip500)" style="stroke:#000000; stroke-linecap:round; stroke-linejoin:round; stroke-width:4; stroke-opacity:1; fill:none" points="383.97,473.534 402.868,473.534 "/>
<polyline clip-path="url(#clip500)" style="stroke:#000000; stroke-linecap:round; stroke-linejoin:round; stroke-width:4; stroke-opacity:1; fill:none" points="383.97,250.915 402.868,250.915 "/>
<path clip-path="url(#clip500)" d="M195.845 1146.38 L144.5 1146.38 L144.5 1137.47 L195.845 1137.47 L195.845 1146.38 Z" fill="#000000" fill-rule="nonzero" fill-opacity="1" /><path clip-path="url(#clip500)" d="M206.401 1141.92 Q206.401 1128.13 209.212 1119.75 Q212.076 1111.32 217.645 1106.76 Q223.268 1102.19 231.755 1102.19 Q238.014 1102.19 242.734 1104.74 Q247.455 1107.23 250.532 1112.01 Q253.608 1116.73 255.359 1123.57 Q257.109 1130.36 257.109 1141.92 Q257.109 1155.61 254.298 1164.04 Q251.486 1172.42 245.864 1177.04 Q240.295 1181.6 231.755 1181.6 Q220.51 1181.6 214.092 1173.54 Q206.401 1163.83 206.401 1141.92 M216.213 1141.92 Q216.213 1161.07 220.669 1167.44 Q225.177 1173.75 231.755 1173.75 Q238.332 1173.75 242.788 1167.38 Q247.296 1161.02 247.296 1141.92 Q247.296 1122.72 242.788 1116.41 Q238.332 1110.1 231.649 1110.1 Q225.071 1110.1 221.146 1115.67 Q216.213 1122.77 216.213 1141.92 Z" fill="#000000" fill-rule="nonzero" fill-opacity="1" /><path clip-path="url(#clip500)" d="M272.173 1180.27 L272.173 1169.4 L283.047 1169.4 L283.047 1180.27 L272.173 1180.27 Z" fill="#000000" fill-rule="nonzero" fill-opacity="1" /><path clip-path="url(#clip500)" d="M297.05 1159.74 L306.597 1158.47 Q308.242 1166.59 312.167 1170.19 Q316.145 1173.75 321.821 1173.75 Q328.557 1173.75 333.172 1169.08 Q337.839 1164.41 337.839 1157.52 Q337.839 1150.94 333.543 1146.7 Q329.246 1142.4 322.616 1142.4 Q319.911 1142.4 315.88 1143.46 L316.941 1135.08 Q317.895 1135.19 318.479 1135.19 Q324.579 1135.19 329.459 1132 Q334.339 1128.82 334.339 1122.19 Q334.339 1116.94 330.785 1113.49 Q327.231 1110.04 321.608 1110.04 Q316.039 1110.04 312.326 1113.54 Q308.613 1117.05 307.552 1124.05 L298.005 1122.35 Q299.755 1112.75 305.961 1107.5 Q312.167 1102.19 321.396 1102.19 Q327.761 1102.19 333.119 1104.95 Q338.476 1107.66 341.287 1112.38 Q344.151 1117.1 344.151 1122.4 Q344.151 1127.44 341.446 1131.58 Q338.741 1135.72 333.437 1138.16 Q340.332 1139.75 344.151 1144.79 Q347.97 1149.77 347.97 1157.3 Q347.97 1167.49 340.544 1174.6 Q333.119 1181.65 321.767 1181.65 Q311.53 1181.65 304.741 1175.55 Q298.005 1169.45 297.05 1159.74 Z" fill="#000000" fill-rule="nonzero" fill-opacity="1" /><path clip-path="url(#clip500)" d="M206.666 919.303 Q206.666 905.512 209.477 897.131 Q212.341 888.698 217.911 884.136 Q223.533 879.574 232.02 879.574 Q238.279 879.574 243 882.121 Q247.72 884.614 250.797 889.387 Q253.873 894.108 255.624 900.951 Q257.374 907.74 257.374 919.303 Q257.374 932.988 254.563 941.422 Q251.752 949.802 246.129 954.417 Q240.56 958.979 232.02 958.979 Q220.775 958.979 214.357 950.916 Q206.666 941.21 206.666 919.303 M216.479 919.303 Q216.479 938.451 220.934 944.817 Q225.443 951.129 232.02 951.129 Q238.597 951.129 243.053 944.763 Q247.561 938.398 247.561 919.303 Q247.561 900.102 243.053 893.79 Q238.597 887.478 231.914 887.478 Q225.337 887.478 221.411 893.047 Q216.479 900.155 216.479 919.303 Z" fill="#000000" fill-rule="nonzero" fill-opacity="1" /><path clip-path="url(#clip500)" d="M272.438 957.653 L272.438 946.779 L283.312 946.779 L283.312 957.653 L272.438 957.653 Z" fill="#000000" fill-rule="nonzero" fill-opacity="1" /><path clip-path="url(#clip500)" d="M297.262 919.303 Q297.262 905.512 300.073 897.131 Q302.937 888.698 308.507 884.136 Q314.129 879.574 322.616 879.574 Q328.875 879.574 333.596 882.121 Q338.317 884.614 341.393 889.387 Q344.47 894.108 346.22 900.951 Q347.97 907.74 347.97 919.303 Q347.97 932.988 345.159 941.422 Q342.348 949.802 336.725 954.417 Q331.156 958.979 322.616 958.979 Q311.371 958.979 304.953 950.916 Q297.262 941.21 297.262 919.303 M307.075 919.303 Q307.075 938.451 311.53 944.817 Q316.039 951.129 322.616 951.129 Q329.193 951.129 333.649 944.763 Q338.158 938.398 338.158 919.303 Q338.158 900.102 333.649 893.79 Q329.193 887.478 322.51 887.478 Q315.933 887.478 312.008 893.047 Q307.075 900.155 307.075 919.303 Z" fill="#000000" fill-rule="nonzero" fill-opacity="1" /><path clip-path="url(#clip500)" d="M206.401 696.684 Q206.401 682.893 209.212 674.512 Q212.076 666.078 217.645 661.517 Q223.268 656.955 231.755 656.955 Q238.014 656.955 242.734 659.501 Q247.455 661.994 250.532 666.768 Q253.608 671.489 255.359 678.331 Q257.109 685.121 257.109 696.684 Q257.109 710.369 254.298 718.802 Q251.486 727.183 245.864 731.798 Q240.295 736.359 231.755 736.359 Q220.51 736.359 214.092 728.297 Q206.401 718.59 206.401 696.684 M216.213 696.684 Q216.213 715.832 220.669 722.197 Q225.177 728.509 231.755 728.509 Q238.332 728.509 242.788 722.144 Q247.296 715.779 247.296 696.684 Q247.296 677.483 242.788 671.171 Q238.332 664.858 231.649 664.858 Q225.071 664.858 221.146 670.428 Q216.213 677.536 216.213 696.684 Z" fill="#000000" fill-rule="nonzero" fill-opacity="1" /><path clip-path="url(#clip500)" d="M272.173 735.033 L272.173 724.16 L283.047 724.16 L283.047 735.033 L272.173 735.033 Z" fill="#000000" fill-rule="nonzero" fill-opacity="1" /><path clip-path="url(#clip500)" d="M297.05 714.506 L306.597 713.233 Q308.242 721.349 312.167 724.955 Q316.145 728.509 321.821 728.509 Q328.557 728.509 333.172 723.842 Q337.839 719.174 337.839 712.278 Q337.839 705.701 333.543 701.458 Q329.246 697.161 322.616 697.161 Q319.911 697.161 315.88 698.222 L316.941 689.841 Q317.895 689.947 318.479 689.947 Q324.579 689.947 329.459 686.765 Q334.339 683.582 334.339 676.952 Q334.339 671.701 330.785 668.253 Q327.231 664.805 321.608 664.805 Q316.039 664.805 312.326 668.306 Q308.613 671.807 307.552 678.809 L298.005 677.111 Q299.755 667.511 305.961 662.259 Q312.167 656.955 321.396 656.955 Q327.761 656.955 333.119 659.713 Q338.476 662.419 341.287 667.139 Q344.151 671.86 344.151 677.164 Q344.151 682.203 341.446 686.341 Q338.741 690.478 333.437 692.918 Q340.332 694.509 344.151 699.548 Q347.97 704.534 347.97 712.066 Q347.97 722.25 340.544 729.358 Q333.119 736.413 321.767 736.413 Q311.53 736.413 304.741 730.313 Q298.005 724.213 297.05 714.506 Z" fill="#000000" fill-rule="nonzero" fill-opacity="1" /><path clip-path="url(#clip500)" d="M206.454 474.065 Q206.454 460.274 209.265 451.893 Q212.129 443.459 217.699 438.898 Q223.321 434.336 231.808 434.336 Q238.067 434.336 242.788 436.882 Q247.508 439.375 250.585 444.149 Q253.661 448.869 255.412 455.712 Q257.162 462.501 257.162 474.065 Q257.162 487.749 254.351 496.183 Q251.54 504.564 245.917 509.179 Q240.348 513.74 231.808 513.74 Q220.563 513.74 214.145 505.678 Q206.454 495.971 206.454 474.065 M216.266 474.065 Q216.266 493.213 220.722 499.578 Q225.231 505.89 231.808 505.89 Q238.385 505.89 242.841 499.525 Q247.349 493.16 247.349 474.065 Q247.349 454.863 242.841 448.551 Q238.385 442.239 231.702 442.239 Q225.124 442.239 221.199 447.809 Q216.266 454.916 216.266 474.065 Z" fill="#000000" fill-rule="nonzero" fill-opacity="1" /><path clip-path="url(#clip500)" d="M272.226 512.414 L272.226 501.54 L283.1 501.54 L283.1 512.414 L272.226 512.414 Z" fill="#000000" fill-rule="nonzero" fill-opacity="1" /><path clip-path="url(#clip500)" d="M346.591 453.696 L337.097 454.439 Q335.824 448.816 333.49 446.27 Q329.618 442.186 323.942 442.186 Q319.381 442.186 315.933 444.732 Q311.424 448.021 308.825 454.333 Q306.226 460.645 306.12 472.314 Q309.568 467.063 314.554 464.517 Q319.54 461.971 325.003 461.971 Q334.551 461.971 341.234 469.026 Q347.97 476.027 347.97 487.166 Q347.97 494.486 344.788 500.798 Q341.658 507.057 336.142 510.399 Q330.626 513.74 323.624 513.74 Q311.689 513.74 304.157 504.988 Q296.625 496.183 296.625 476.027 Q296.625 453.484 304.953 443.247 Q312.22 434.336 324.526 434.336 Q333.702 434.336 339.537 439.481 Q345.424 444.626 346.591 453.696 M307.605 487.219 Q307.605 492.152 309.674 496.661 Q311.796 501.169 315.562 503.556 Q319.328 505.89 323.465 505.89 Q329.512 505.89 333.861 501.01 Q338.211 496.13 338.211 487.749 Q338.211 479.687 333.914 475.072 Q329.618 470.405 323.094 470.405 Q316.622 470.405 312.114 475.072 Q307.605 479.687 307.605 487.219 Z" fill="#000000" fill-rule="nonzero" fill-opacity="1" /><path clip-path="url(#clip500)" d="M206.241 251.445 Q206.241 237.654 209.053 229.274 Q211.917 220.84 217.486 216.278 Q223.109 211.717 231.596 211.717 Q237.855 211.717 242.575 214.263 Q247.296 216.756 250.373 221.529 Q253.449 226.25 255.199 233.093 Q256.95 239.882 256.95 251.445 Q256.95 265.13 254.139 273.564 Q251.327 281.945 245.705 286.559 Q240.135 291.121 231.596 291.121 Q220.351 291.121 213.933 283.058 Q206.241 273.352 206.241 251.445 M216.054 251.445 Q216.054 270.594 220.51 276.959 Q225.018 283.271 231.596 283.271 Q238.173 283.271 242.628 276.906 Q247.137 270.54 247.137 251.445 Q247.137 232.244 242.628 225.932 Q238.173 219.62 231.49 219.62 Q224.912 219.62 220.987 225.189 Q216.054 232.297 216.054 251.445 Z" fill="#000000" fill-rule="nonzero" fill-opacity="1" /><path clip-path="url(#clip500)" d="M272.014 289.795 L272.014 278.921 L282.887 278.921 L282.887 289.795 L272.014 289.795 Z" fill="#000000" fill-rule="nonzero" fill-opacity="1" /><path clip-path="url(#clip500)" d="M298.27 271.813 L307.446 270.965 Q308.613 277.436 311.902 280.353 Q315.19 283.271 320.335 283.271 Q324.738 283.271 328.026 281.255 Q331.368 279.239 333.49 275.898 Q335.612 272.503 337.044 266.774 Q338.476 261.046 338.476 255.105 Q338.476 254.469 338.423 253.196 Q335.558 257.757 330.573 260.622 Q325.64 263.433 319.858 263.433 Q310.204 263.433 303.521 256.431 Q296.838 249.43 296.838 237.972 Q296.838 226.144 303.786 218.93 Q310.788 211.717 321.29 211.717 Q328.875 211.717 335.134 215.801 Q341.446 219.885 344.682 227.47 Q347.97 235.002 347.97 249.324 Q347.97 264.228 344.735 273.086 Q341.499 281.892 335.081 286.506 Q328.716 291.121 320.123 291.121 Q311 291.121 305.218 286.082 Q299.437 280.99 298.27 271.813 M337.362 237.495 Q337.362 229.274 332.959 224.447 Q328.61 219.62 322.457 219.62 Q316.092 219.62 311.371 224.818 Q306.65 230.016 306.65 238.291 Q306.65 245.717 311.106 250.384 Q315.615 254.999 322.192 254.999 Q328.822 254.999 333.066 250.384 Q337.362 245.717 337.362 237.495 Z" fill="#000000" fill-rule="nonzero" fill-opacity="1" /><path clip-path="url(#clip500)" d="M85.1722 788.478 L7.41216 788.478 L7.41216 759.146 Q7.41216 751.402 8.15475 747.317 Q9.10951 741.589 11.8147 737.717 Q14.4668 733.845 19.2936 731.511 Q24.1205 729.124 29.9021 729.124 Q39.821 729.124 46.7165 735.436 Q53.559 741.748 53.559 758.244 L53.559 778.188 L85.1722 778.188 L85.1722 788.478 M44.3826 778.188 L44.3826 758.085 Q44.3826 748.113 40.6697 743.923 Q36.9567 739.732 30.2203 739.732 Q25.3405 739.732 21.8927 742.225 Q18.3919 744.665 17.278 748.696 Q16.5885 751.296 16.5885 758.297 L16.5885 778.188 L44.3826 778.188 Z" fill="#000000" fill-rule="nonzero" fill-opacity="1" /><path clip-path="url(#clip500)" d="M64.6448 719.841 L63.3718 710.294 Q71.4872 708.65 75.0941 704.724 Q78.648 700.746 78.648 695.071 Q78.648 688.334 73.9802 683.72 Q69.3125 679.052 62.417 679.052 Q55.8398 679.052 51.5964 683.348 Q47.3 687.645 47.3 694.275 Q47.3 696.98 48.3608 701.011 L39.9801 699.951 Q40.0862 698.996 40.0862 698.412 Q40.0862 692.313 36.9037 687.433 Q33.7211 682.553 27.0908 682.553 Q21.8397 682.553 18.3919 686.107 Q14.9442 689.66 14.9442 695.283 Q14.9442 700.852 18.445 704.565 Q21.9457 708.278 28.9473 709.339 L27.25 718.887 Q17.6493 717.136 12.3981 710.93 Q7.0939 704.724 7.0939 695.495 Q7.0939 689.13 9.8521 683.773 Q12.5573 678.415 17.278 675.604 Q21.9988 672.74 27.303 672.74 Q32.342 672.74 36.4793 675.445 Q40.6166 678.15 43.0566 683.454 Q44.6478 676.559 49.6869 672.74 Q54.6728 668.921 62.2048 668.921 Q72.389 668.921 79.4966 676.347 Q86.5513 683.773 86.5513 695.124 Q86.5513 705.361 80.4514 712.15 Q74.3515 718.887 64.6448 719.841 Z" fill="#000000" fill-rule="nonzero" fill-opacity="1" /><path clip-path="url(#clip500)" d="M64.6448 659.426 L63.3718 649.879 Q71.4872 648.234 75.0941 644.309 Q78.648 640.331 78.648 634.656 Q78.648 627.919 73.9802 623.305 Q69.3125 618.637 62.417 618.637 Q55.8398 618.637 51.5964 622.933 Q47.3 627.23 47.3 633.86 Q47.3 636.565 48.3608 640.596 L39.9801 639.535 Q40.0862 638.581 40.0862 637.997 Q40.0862 631.897 36.9037 627.017 Q33.7211 622.138 27.0908 622.138 Q21.8397 622.138 18.3919 625.691 Q14.9442 629.245 14.9442 634.868 Q14.9442 640.437 18.445 644.15 Q21.9457 647.863 28.9473 648.924 L27.25 658.472 Q17.6493 656.721 12.3981 650.515 Q7.0939 644.309 7.0939 635.08 Q7.0939 628.715 9.8521 623.358 Q12.5573 618 17.278 615.189 Q21.9988 612.325 27.303 612.325 Q32.342 612.325 36.4793 615.03 Q40.6166 617.735 43.0566 623.039 Q44.6478 616.144 49.6869 612.325 Q54.6728 608.506 62.2048 608.506 Q72.389 608.506 79.4966 615.932 Q86.5513 623.358 86.5513 634.709 Q86.5513 644.946 80.4514 651.735 Q74.3515 658.472 64.6448 659.426 Z" fill="#000000" fill-rule="nonzero" fill-opacity="1" /><polyline clip-path="url(#clip502)" style="stroke:#009af9; stroke-linecap:round; stroke-linejoin:round; stroke-width:8; stroke-opacity:1; fill:none" points="383.97,234.985 393.765,140.166 403.56,197.048 413.355,106.476 423.15,120.261 432.945,47.2441 442.74,85.974 452.535,139.294 462.33,162.717 472.125,204.139 481.92,248.216 491.715,296.422 501.51,330.184 511.305,373.781 521.1,411.032 530.895,470.238 540.69,516.265 550.485,564.667 560.28,592.513 570.074,632.079 579.869,648.44 589.664,692.373 599.459,735.421 609.254,775.328 619.049,773.888 628.844,810.034 638.639,769.519 648.434,808.625 658.229,804.458 668.024,773.173 677.819,767.034 687.614,745.821 697.409,783.075 707.204,750.653 716.999,788.254 726.794,823.112 736.589,802.659 746.384,776.849 756.179,762.456 765.974,741.762 775.769,780.398 785.563,747.506 795.358,786.89 805.153,766.978 814.948,752.13 824.743,723.833 834.538,764.064 844.333,803.787 854.128,843.231 863.923,879.155 873.718,857.336 883.513,890.114 893.308,875.48 903.103,865.31 912.898,827.006 922.693,817.81 932.488,796.782 942.283,829.123 952.078,828.098 961.873,862.446 971.668,901.046 981.463,935.53 991.257,885.966 1001.05,918.875 1010.85,956.538 1020.64,990.583 1030.44,1020.3 1040.23,997.632 1050.03,987.593 1059.82,958.758 1069.62,984.914 1079.41,1008.71 1089.21,1014.76 1099,970.436 1108.8,959.701 1118.59,955.682 1128.39,983.578 1138.18,931.564 1147.98,889.028 1157.77,871.301 1167.57,842.573 1177.36,837.937 1187.16,868.417 1196.95,898.346 1206.75,898.482 1216.54,935.555 1226.34,900.532 1236.13,861.632 1245.93,896.88 1255.72,879.893 1265.52,914.456 1275.31,952.19 1285.11,982.129 1294.9,1014.3 1304.7,1043 1314.49,1077.63 1324.29,1056 1334.08,1083.96 1343.88,1116.94 1353.67,1142.52 1363.47,1125.78 1373.26,1147.37 1383.06,1142.51 1392.85,1172.1 1402.65,1169.92 1412.44,1118.67 1422.24,1086.53 1432.03,1107.08 1441.83,1080.14 1451.62,1061.05 1461.42,1078.24 1471.21,1092.87 1481.01,1116.13 1490.8,1128.25 1500.6,1148.59 1510.39,1166.01 1520.18,1202.41 1529.98,1215.88 1539.77,1243.21 1549.57,1234.93 1559.36,1252.5 1569.16,1259.36 1578.95,1285.48 1588.75,1315.75 1598.54,1337.12 1608.34,1328.58 1618.13,1349.74 1627.93,1264.33 1637.72,1285.6 1647.52,1264.9 1657.31,1219.21 1667.11,1216.22 1676.9,1171.84 1686.7,1193.47 1696.49,1129.47 1706.29,1156.42 1716.08,1182.66 1725.88,1152.61 1735.67,1109.91 1745.47,1077.97 1755.26,1051.12 1765.06,1081.22 1774.85,1036.04 1784.65,1064 1794.44,1034.37 1804.24,1013.15 1814.03,965.219 1823.83,997.886 1833.62,1032.18 1843.42,1066.07 1853.21,1093.78 1863.01,1060.87 1872.8,1087.3 1882.6,1061.87 1892.39,1046.21 1902.19,1002.23 1911.98,985.514 1921.78,958.894 1931.57,983.862 1941.37,980.683 1951.16,1010.42 1960.96,1046.18 1970.75,1078.82 1980.55,1026.51 1990.34,1054.83 2000.14,1087.53 2009.93,1115.81 2019.73,1142.58 2029.52,1117.59 2039.32,1106.96 2049.11,1068.66 2058.91,1091.06 2068.7,1111.41 2078.5,1114.2 2088.29,1067.01 2098.09,1053.84 2107.88,1049.13 2117.68,1074.56 2127.47,1012.23 2137.27,965.963 2147.06,946.645 2156.86,915.615 2166.65,910.356 2176.45,939.244 2186.24,967.066 2196.04,966.224 2205.83,1001.54 2215.63,963.202 2225.42,918.703 2235.22,952.667 2245.01,934.424 2254.81,967.737 2264.6,1003.77 2274.4,1032.06 2284.19,1063.39 2293.99,1090.87 2303.78,1123.31 2313.58,1100.32 2323.37,1126.53 2333.17,1159.34 2342.96,1183.83 2352.76,1166.09 "/>
<circle clip-path="url(#clip502)" cx="383.97" cy="234.985" r="3.6" fill="#009af9" fill-rule="evenodd" fill-opacity="1" stroke="#000000" stroke-opacity="1" stroke-width="3.2"/>
<circle clip-path="url(#clip502)" cx="393.765" cy="140.166" r="3.6" fill="#009af9" fill-rule="evenodd" fill-opacity="1" stroke="#000000" stroke-opacity="1" stroke-width="3.2"/>
<circle clip-path="url(#clip502)" cx="403.56" cy="197.048" r="3.6" fill="#009af9" fill-rule="evenodd" fill-opacity="1" stroke="#000000" stroke-opacity="1" stroke-width="3.2"/>
<circle clip-path="url(#clip502)" cx="413.355" cy="106.476" r="3.6" fill="#009af9" fill-rule="evenodd" fill-opacity="1" stroke="#000000" stroke-opacity="1" stroke-width="3.2"/>
<circle clip-path="url(#clip502)" cx="423.15" cy="120.261" r="3.6" fill="#009af9" fill-rule="evenodd" fill-opacity="1" stroke="#000000" stroke-opacity="1" stroke-width="3.2"/>
<circle clip-path="url(#clip502)" cx="432.945" cy="47.2441" r="3.6" fill="#009af9" fill-rule="evenodd" fill-opacity="1" stroke="#000000" stroke-opacity="1" stroke-width="3.2"/>
<circle clip-path="url(#clip502)" cx="442.74" cy="85.974" r="3.6" fill="#009af9" fill-rule="evenodd" fill-opacity="1" stroke="#000000" stroke-opacity="1" stroke-width="3.2"/>
<circle clip-path="url(#clip502)" cx="452.535" cy="139.294" r="3.6" fill="#009af9" fill-rule="evenodd" fill-opacity="1" stroke="#000000" stroke-opacity="1" stroke-width="3.2"/>
<circle clip-path="url(#clip502)" cx="462.33" cy="162.717" r="3.6" fill="#009af9" fill-rule="evenodd" fill-opacity="1" stroke="#000000" stroke-opacity="1" stroke-width="3.2"/>
<circle clip-path="url(#clip502)" cx="472.125" cy="204.139" r="3.6" fill="#009af9" fill-rule="evenodd" fill-opacity="1" stroke="#000000" stroke-opacity="1" stroke-width="3.2"/>
<circle clip-path="url(#clip502)" cx="481.92" cy="248.216" r="3.6" fill="#009af9" fill-rule="evenodd" fill-opacity="1" stroke="#000000" stroke-opacity="1" stroke-width="3.2"/>
<circle clip-path="url(#clip502)" cx="491.715" cy="296.422" r="3.6" fill="#009af9" fill-rule="evenodd" fill-opacity="1" stroke="#000000" stroke-opacity="1" stroke-width="3.2"/>
<circle clip-path="url(#clip502)" cx="501.51" cy="330.184" r="3.6" fill="#009af9" fill-rule="evenodd" fill-opacity="1" stroke="#000000" stroke-opacity="1" stroke-width="3.2"/>
<circle clip-path="url(#clip502)" cx="511.305" cy="373.781" r="3.6" fill="#009af9" fill-rule="evenodd" fill-opacity="1" stroke="#000000" stroke-opacity="1" stroke-width="3.2"/>
<circle clip-path="url(#clip502)" cx="521.1" cy="411.032" r="3.6" fill="#009af9" fill-rule="evenodd" fill-opacity="1" stroke="#000000" stroke-opacity="1" stroke-width="3.2"/>
<circle clip-path="url(#clip502)" cx="530.895" cy="470.238" r="3.6" fill="#009af9" fill-rule="evenodd" fill-opacity="1" stroke="#000000" stroke-opacity="1" stroke-width="3.2"/>
<circle clip-path="url(#clip502)" cx="540.69" cy="516.265" r="3.6" fill="#009af9" fill-rule="evenodd" fill-opacity="1" stroke="#000000" stroke-opacity="1" stroke-width="3.2"/>
<circle clip-path="url(#clip502)" cx="550.485" cy="564.667" r="3.6" fill="#009af9" fill-rule="evenodd" fill-opacity="1" stroke="#000000" stroke-opacity="1" stroke-width="3.2"/>
<circle clip-path="url(#clip502)" cx="560.28" cy="592.513" r="3.6" fill="#009af9" fill-rule="evenodd" fill-opacity="1" stroke="#000000" stroke-opacity="1" stroke-width="3.2"/>
<circle clip-path="url(#clip502)" cx="570.074" cy="632.079" r="3.6" fill="#009af9" fill-rule="evenodd" fill-opacity="1" stroke="#000000" stroke-opacity="1" stroke-width="3.2"/>
<circle clip-path="url(#clip502)" cx="579.869" cy="648.44" r="3.6" fill="#009af9" fill-rule="evenodd" fill-opacity="1" stroke="#000000" stroke-opacity="1" stroke-width="3.2"/>
<circle clip-path="url(#clip502)" cx="589.664" cy="692.373" r="3.6" fill="#009af9" fill-rule="evenodd" fill-opacity="1" stroke="#000000" stroke-opacity="1" stroke-width="3.2"/>
<circle clip-path="url(#clip502)" cx="599.459" cy="735.421" r="3.6" fill="#009af9" fill-rule="evenodd" fill-opacity="1" stroke="#000000" stroke-opacity="1" stroke-width="3.2"/>
<circle clip-path="url(#clip502)" cx="609.254" cy="775.328" r="3.6" fill="#009af9" fill-rule="evenodd" fill-opacity="1" stroke="#000000" stroke-opacity="1" stroke-width="3.2"/>
<circle clip-path="url(#clip502)" cx="619.049" cy="773.888" r="3.6" fill="#009af9" fill-rule="evenodd" fill-opacity="1" stroke="#000000" stroke-opacity="1" stroke-width="3.2"/>
<circle clip-path="url(#clip502)" cx="628.844" cy="810.034" r="3.6" fill="#009af9" fill-rule="evenodd" fill-opacity="1" stroke="#000000" stroke-opacity="1" stroke-width="3.2"/>
<circle clip-path="url(#clip502)" cx="638.639" cy="769.519" r="3.6" fill="#009af9" fill-rule="evenodd" fill-opacity="1" stroke="#000000" stroke-opacity="1" stroke-width="3.2"/>
<circle clip-path="url(#clip502)" cx="648.434" cy="808.625" r="3.6" fill="#009af9" fill-rule="evenodd" fill-opacity="1" stroke="#000000" stroke-opacity="1" stroke-width="3.2"/>
<circle clip-path="url(#clip502)" cx="658.229" cy="804.458" r="3.6" fill="#009af9" fill-rule="evenodd" fill-opacity="1" stroke="#000000" stroke-opacity="1" stroke-width="3.2"/>
<circle clip-path="url(#clip502)" cx="668.024" cy="773.173" r="3.6" fill="#009af9" fill-rule="evenodd" fill-opacity="1" stroke="#000000" stroke-opacity="1" stroke-width="3.2"/>
<circle clip-path="url(#clip502)" cx="677.819" cy="767.034" r="3.6" fill="#009af9" fill-rule="evenodd" fill-opacity="1" stroke="#000000" stroke-opacity="1" stroke-width="3.2"/>
<circle clip-path="url(#clip502)" cx="687.614" cy="745.821" r="3.6" fill="#009af9" fill-rule="evenodd" fill-opacity="1" stroke="#000000" stroke-opacity="1" stroke-width="3.2"/>
<circle clip-path="url(#clip502)" cx="697.409" cy="783.075" r="3.6" fill="#009af9" fill-rule="evenodd" fill-opacity="1" stroke="#000000" stroke-opacity="1" stroke-width="3.2"/>
<circle clip-path="url(#clip502)" cx="707.204" cy="750.653" r="3.6" fill="#009af9" fill-rule="evenodd" fill-opacity="1" stroke="#000000" stroke-opacity="1" stroke-width="3.2"/>
<circle clip-path="url(#clip502)" cx="716.999" cy="788.254" r="3.6" fill="#009af9" fill-rule="evenodd" fill-opacity="1" stroke="#000000" stroke-opacity="1" stroke-width="3.2"/>
<circle clip-path="url(#clip502)" cx="726.794" cy="823.112" r="3.6" fill="#009af9" fill-rule="evenodd" fill-opacity="1" stroke="#000000" stroke-opacity="1" stroke-width="3.2"/>
<circle clip-path="url(#clip502)" cx="736.589" cy="802.659" r="3.6" fill="#009af9" fill-rule="evenodd" fill-opacity="1" stroke="#000000" stroke-opacity="1" stroke-width="3.2"/>
<circle clip-path="url(#clip502)" cx="746.384" cy="776.849" r="3.6" fill="#009af9" fill-rule="evenodd" fill-opacity="1" stroke="#000000" stroke-opacity="1" stroke-width="3.2"/>
<circle clip-path="url(#clip502)" cx="756.179" cy="762.456" r="3.6" fill="#009af9" fill-rule="evenodd" fill-opacity="1" stroke="#000000" stroke-opacity="1" stroke-width="3.2"/>
<circle clip-path="url(#clip502)" cx="765.974" cy="741.762" r="3.6" fill="#009af9" fill-rule="evenodd" fill-opacity="1" stroke="#000000" stroke-opacity="1" stroke-width="3.2"/>
<circle clip-path="url(#clip502)" cx="775.769" cy="780.398" r="3.6" fill="#009af9" fill-rule="evenodd" fill-opacity="1" stroke="#000000" stroke-opacity="1" stroke-width="3.2"/>
<circle clip-path="url(#clip502)" cx="785.563" cy="747.506" r="3.6" fill="#009af9" fill-rule="evenodd" fill-opacity="1" stroke="#000000" stroke-opacity="1" stroke-width="3.2"/>
<circle clip-path="url(#clip502)" cx="795.358" cy="786.89" r="3.6" fill="#009af9" fill-rule="evenodd" fill-opacity="1" stroke="#000000" stroke-opacity="1" stroke-width="3.2"/>
<circle clip-path="url(#clip502)" cx="805.153" cy="766.978" r="3.6" fill="#009af9" fill-rule="evenodd" fill-opacity="1" stroke="#000000" stroke-opacity="1" stroke-width="3.2"/>
<circle clip-path="url(#clip502)" cx="814.948" cy="752.13" r="3.6" fill="#009af9" fill-rule="evenodd" fill-opacity="1" stroke="#000000" stroke-opacity="1" stroke-width="3.2"/>
<circle clip-path="url(#clip502)" cx="824.743" cy="723.833" r="3.6" fill="#009af9" fill-rule="evenodd" fill-opacity="1" stroke="#000000" stroke-opacity="1" stroke-width="3.2"/>
<circle clip-path="url(#clip502)" cx="834.538" cy="764.064" r="3.6" fill="#009af9" fill-rule="evenodd" fill-opacity="1" stroke="#000000" stroke-opacity="1" stroke-width="3.2"/>
<circle clip-path="url(#clip502)" cx="844.333" cy="803.787" r="3.6" fill="#009af9" fill-rule="evenodd" fill-opacity="1" stroke="#000000" stroke-opacity="1" stroke-width="3.2"/>
<circle clip-path="url(#clip502)" cx="854.128" cy="843.231" r="3.6" fill="#009af9" fill-rule="evenodd" fill-opacity="1" stroke="#000000" stroke-opacity="1" stroke-width="3.2"/>
<circle clip-path="url(#clip502)" cx="863.923" cy="879.155" r="3.6" fill="#009af9" fill-rule="evenodd" fill-opacity="1" stroke="#000000" stroke-opacity="1" stroke-width="3.2"/>
<circle clip-path="url(#clip502)" cx="873.718" cy="857.336" r="3.6" fill="#009af9" fill-rule="evenodd" fill-opacity="1" stroke="#000000" stroke-opacity="1" stroke-width="3.2"/>
<circle clip-path="url(#clip502)" cx="883.513" cy="890.114" r="3.6" fill="#009af9" fill-rule="evenodd" fill-opacity="1" stroke="#000000" stroke-opacity="1" stroke-width="3.2"/>
<circle clip-path="url(#clip502)" cx="893.308" cy="875.48" r="3.6" fill="#009af9" fill-rule="evenodd" fill-opacity="1" stroke="#000000" stroke-opacity="1" stroke-width="3.2"/>
<circle clip-path="url(#clip502)" cx="903.103" cy="865.31" r="3.6" fill="#009af9" fill-rule="evenodd" fill-opacity="1" stroke="#000000" stroke-opacity="1" stroke-width="3.2"/>
<circle clip-path="url(#clip502)" cx="912.898" cy="827.006" r="3.6" fill="#009af9" fill-rule="evenodd" fill-opacity="1" stroke="#000000" stroke-opacity="1" stroke-width="3.2"/>
<circle clip-path="url(#clip502)" cx="922.693" cy="817.81" r="3.6" fill="#009af9" fill-rule="evenodd" fill-opacity="1" stroke="#000000" stroke-opacity="1" stroke-width="3.2"/>
<circle clip-path="url(#clip502)" cx="932.488" cy="796.782" r="3.6" fill="#009af9" fill-rule="evenodd" fill-opacity="1" stroke="#000000" stroke-opacity="1" stroke-width="3.2"/>
<circle clip-path="url(#clip502)" cx="942.283" cy="829.123" r="3.6" fill="#009af9" fill-rule="evenodd" fill-opacity="1" stroke="#000000" stroke-opacity="1" stroke-width="3.2"/>
<circle clip-path="url(#clip502)" cx="952.078" cy="828.098" r="3.6" fill="#009af9" fill-rule="evenodd" fill-opacity="1" stroke="#000000" stroke-opacity="1" stroke-width="3.2"/>
<circle clip-path="url(#clip502)" cx="961.873" cy="862.446" r="3.6" fill="#009af9" fill-rule="evenodd" fill-opacity="1" stroke="#000000" stroke-opacity="1" stroke-width="3.2"/>
<circle clip-path="url(#clip502)" cx="971.668" cy="901.046" r="3.6" fill="#009af9" fill-rule="evenodd" fill-opacity="1" stroke="#000000" stroke-opacity="1" stroke-width="3.2"/>
<circle clip-path="url(#clip502)" cx="981.463" cy="935.53" r="3.6" fill="#009af9" fill-rule="evenodd" fill-opacity="1" stroke="#000000" stroke-opacity="1" stroke-width="3.2"/>
<circle clip-path="url(#clip502)" cx="991.257" cy="885.966" r="3.6" fill="#009af9" fill-rule="evenodd" fill-opacity="1" stroke="#000000" stroke-opacity="1" stroke-width="3.2"/>
<circle clip-path="url(#clip502)" cx="1001.05" cy="918.875" r="3.6" fill="#009af9" fill-rule="evenodd" fill-opacity="1" stroke="#000000" stroke-opacity="1" stroke-width="3.2"/>
<circle clip-path="url(#clip502)" cx="1010.85" cy="956.538" r="3.6" fill="#009af9" fill-rule="evenodd" fill-opacity="1" stroke="#000000" stroke-opacity="1" stroke-width="3.2"/>
<circle clip-path="url(#clip502)" cx="1020.64" cy="990.583" r="3.6" fill="#009af9" fill-rule="evenodd" fill-opacity="1" stroke="#000000" stroke-opacity="1" stroke-width="3.2"/>
<circle clip-path="url(#clip502)" cx="1030.44" cy="1020.3" r="3.6" fill="#009af9" fill-rule="evenodd" fill-opacity="1" stroke="#000000" stroke-opacity="1" stroke-width="3.2"/>
<circle clip-path="url(#clip502)" cx="1040.23" cy="997.632" r="3.6" fill="#009af9" fill-rule="evenodd" fill-opacity="1" stroke="#000000" stroke-opacity="1" stroke-width="3.2"/>
<circle clip-path="url(#clip502)" cx="1050.03" cy="987.593" r="3.6" fill="#009af9" fill-rule="evenodd" fill-opacity="1" stroke="#000000" stroke-opacity="1" stroke-width="3.2"/>
<circle clip-path="url(#clip502)" cx="1059.82" cy="958.758" r="3.6" fill="#009af9" fill-rule="evenodd" fill-opacity="1" stroke="#000000" stroke-opacity="1" stroke-width="3.2"/>
<circle clip-path="url(#clip502)" cx="1069.62" cy="984.914" r="3.6" fill="#009af9" fill-rule="evenodd" fill-opacity="1" stroke="#000000" stroke-opacity="1" stroke-width="3.2"/>
<circle clip-path="url(#clip502)" cx="1079.41" cy="1008.71" r="3.6" fill="#009af9" fill-rule="evenodd" fill-opacity="1" stroke="#000000" stroke-opacity="1" stroke-width="3.2"/>
<circle clip-path="url(#clip502)" cx="1089.21" cy="1014.76" r="3.6" fill="#009af9" fill-rule="evenodd" fill-opacity="1" stroke="#000000" stroke-opacity="1" stroke-width="3.2"/>
<circle clip-path="url(#clip502)" cx="1099" cy="970.436" r="3.6" fill="#009af9" fill-rule="evenodd" fill-opacity="1" stroke="#000000" stroke-opacity="1" stroke-width="3.2"/>
<circle clip-path="url(#clip502)" cx="1108.8" cy="959.701" r="3.6" fill="#009af9" fill-rule="evenodd" fill-opacity="1" stroke="#000000" stroke-opacity="1" stroke-width="3.2"/>
<circle clip-path="url(#clip502)" cx="1118.59" cy="955.682" r="3.6" fill="#009af9" fill-rule="evenodd" fill-opacity="1" stroke="#000000" stroke-opacity="1" stroke-width="3.2"/>
<circle clip-path="url(#clip502)" cx="1128.39" cy="983.578" r="3.6" fill="#009af9" fill-rule="evenodd" fill-opacity="1" stroke="#000000" stroke-opacity="1" stroke-width="3.2"/>
<circle clip-path="url(#clip502)" cx="1138.18" cy="931.564" r="3.6" fill="#009af9" fill-rule="evenodd" fill-opacity="1" stroke="#000000" stroke-opacity="1" stroke-width="3.2"/>
<circle clip-path="url(#clip502)" cx="1147.98" cy="889.028" r="3.6" fill="#009af9" fill-rule="evenodd" fill-opacity="1" stroke="#000000" stroke-opacity="1" stroke-width="3.2"/>
<circle clip-path="url(#clip502)" cx="1157.77" cy="871.301" r="3.6" fill="#009af9" fill-rule="evenodd" fill-opacity="1" stroke="#000000" stroke-opacity="1" stroke-width="3.2"/>
<circle clip-path="url(#clip502)" cx="1167.57" cy="842.573" r="3.6" fill="#009af9" fill-rule="evenodd" fill-opacity="1" stroke="#000000" stroke-opacity="1" stroke-width="3.2"/>
<circle clip-path="url(#clip502)" cx="1177.36" cy="837.937" r="3.6" fill="#009af9" fill-rule="evenodd" fill-opacity="1" stroke="#000000" stroke-opacity="1" stroke-width="3.2"/>
<circle clip-path="url(#clip502)" cx="1187.16" cy="868.417" r="3.6" fill="#009af9" fill-rule="evenodd" fill-opacity="1" stroke="#000000" stroke-opacity="1" stroke-width="3.2"/>
<circle clip-path="url(#clip502)" cx="1196.95" cy="898.346" r="3.6" fill="#009af9" fill-rule="evenodd" fill-opacity="1" stroke="#000000" stroke-opacity="1" stroke-width="3.2"/>
<circle clip-path="url(#clip502)" cx="1206.75" cy="898.482" r="3.6" fill="#009af9" fill-rule="evenodd" fill-opacity="1" stroke="#000000" stroke-opacity="1" stroke-width="3.2"/>
<circle clip-path="url(#clip502)" cx="1216.54" cy="935.555" r="3.6" fill="#009af9" fill-rule="evenodd" fill-opacity="1" stroke="#000000" stroke-opacity="1" stroke-width="3.2"/>
<circle clip-path="url(#clip502)" cx="1226.34" cy="900.532" r="3.6" fill="#009af9" fill-rule="evenodd" fill-opacity="1" stroke="#000000" stroke-opacity="1" stroke-width="3.2"/>
<circle clip-path="url(#clip502)" cx="1236.13" cy="861.632" r="3.6" fill="#009af9" fill-rule="evenodd" fill-opacity="1" stroke="#000000" stroke-opacity="1" stroke-width="3.2"/>
<circle clip-path="url(#clip502)" cx="1245.93" cy="896.88" r="3.6" fill="#009af9" fill-rule="evenodd" fill-opacity="1" stroke="#000000" stroke-opacity="1" stroke-width="3.2"/>
<circle clip-path="url(#clip502)" cx="1255.72" cy="879.893" r="3.6" fill="#009af9" fill-rule="evenodd" fill-opacity="1" stroke="#000000" stroke-opacity="1" stroke-width="3.2"/>
<circle clip-path="url(#clip502)" cx="1265.52" cy="914.456" r="3.6" fill="#009af9" fill-rule="evenodd" fill-opacity="1" stroke="#000000" stroke-opacity="1" stroke-width="3.2"/>
<circle clip-path="url(#clip502)" cx="1275.31" cy="952.19" r="3.6" fill="#009af9" fill-rule="evenodd" fill-opacity="1" stroke="#000000" stroke-opacity="1" stroke-width="3.2"/>
<circle clip-path="url(#clip502)" cx="1285.11" cy="982.129" r="3.6" fill="#009af9" fill-rule="evenodd" fill-opacity="1" stroke="#000000" stroke-opacity="1" stroke-width="3.2"/>
<circle clip-path="url(#clip502)" cx="1294.9" cy="1014.3" r="3.6" fill="#009af9" fill-rule="evenodd" fill-opacity="1" stroke="#000000" stroke-opacity="1" stroke-width="3.2"/>
<circle clip-path="url(#clip502)" cx="1304.7" cy="1043" r="3.6" fill="#009af9" fill-rule="evenodd" fill-opacity="1" stroke="#000000" stroke-opacity="1" stroke-width="3.2"/>
<circle clip-path="url(#clip502)" cx="1314.49" cy="1077.63" r="3.6" fill="#009af9" fill-rule="evenodd" fill-opacity="1" stroke="#000000" stroke-opacity="1" stroke-width="3.2"/>
<circle clip-path="url(#clip502)" cx="1324.29" cy="1056" r="3.6" fill="#009af9" fill-rule="evenodd" fill-opacity="1" stroke="#000000" stroke-opacity="1" stroke-width="3.2"/>
<circle clip-path="url(#clip502)" cx="1334.08" cy="1083.96" r="3.6" fill="#009af9" fill-rule="evenodd" fill-opacity="1" stroke="#000000" stroke-opacity="1" stroke-width="3.2"/>
<circle clip-path="url(#clip502)" cx="1343.88" cy="1116.94" r="3.6" fill="#009af9" fill-rule="evenodd" fill-opacity="1" stroke="#000000" stroke-opacity="1" stroke-width="3.2"/>
<circle clip-path="url(#clip502)" cx="1353.67" cy="1142.52" r="3.6" fill="#009af9" fill-rule="evenodd" fill-opacity="1" stroke="#000000" stroke-opacity="1" stroke-width="3.2"/>
<circle clip-path="url(#clip502)" cx="1363.47" cy="1125.78" r="3.6" fill="#009af9" fill-rule="evenodd" fill-opacity="1" stroke="#000000" stroke-opacity="1" stroke-width="3.2"/>
<circle clip-path="url(#clip502)" cx="1373.26" cy="1147.37" r="3.6" fill="#009af9" fill-rule="evenodd" fill-opacity="1" stroke="#000000" stroke-opacity="1" stroke-width="3.2"/>
<circle clip-path="url(#clip502)" cx="1383.06" cy="1142.51" r="3.6" fill="#009af9" fill-rule="evenodd" fill-opacity="1" stroke="#000000" stroke-opacity="1" stroke-width="3.2"/>
<circle clip-path="url(#clip502)" cx="1392.85" cy="1172.1" r="3.6" fill="#009af9" fill-rule="evenodd" fill-opacity="1" stroke="#000000" stroke-opacity="1" stroke-width="3.2"/>
<circle clip-path="url(#clip502)" cx="1402.65" cy="1169.92" r="3.6" fill="#009af9" fill-rule="evenodd" fill-opacity="1" stroke="#000000" stroke-opacity="1" stroke-width="3.2"/>
<circle clip-path="url(#clip502)" cx="1412.44" cy="1118.67" r="3.6" fill="#009af9" fill-rule="evenodd" fill-opacity="1" stroke="#000000" stroke-opacity="1" stroke-width="3.2"/>
<circle clip-path="url(#clip502)" cx="1422.24" cy="1086.53" r="3.6" fill="#009af9" fill-rule="evenodd" fill-opacity="1" stroke="#000000" stroke-opacity="1" stroke-width="3.2"/>
<circle clip-path="url(#clip502)" cx="1432.03" cy="1107.08" r="3.6" fill="#009af9" fill-rule="evenodd" fill-opacity="1" stroke="#000000" stroke-opacity="1" stroke-width="3.2"/>
<circle clip-path="url(#clip502)" cx="1441.83" cy="1080.14" r="3.6" fill="#009af9" fill-rule="evenodd" fill-opacity="1" stroke="#000000" stroke-opacity="1" stroke-width="3.2"/>
<circle clip-path="url(#clip502)" cx="1451.62" cy="1061.05" r="3.6" fill="#009af9" fill-rule="evenodd" fill-opacity="1" stroke="#000000" stroke-opacity="1" stroke-width="3.2"/>
<circle clip-path="url(#clip502)" cx="1461.42" cy="1078.24" r="3.6" fill="#009af9" fill-rule="evenodd" fill-opacity="1" stroke="#000000" stroke-opacity="1" stroke-width="3.2"/>
<circle clip-path="url(#clip502)" cx="1471.21" cy="1092.87" r="3.6" fill="#009af9" fill-rule="evenodd" fill-opacity="1" stroke="#000000" stroke-opacity="1" stroke-width="3.2"/>
<circle clip-path="url(#clip502)" cx="1481.01" cy="1116.13" r="3.6" fill="#009af9" fill-rule="evenodd" fill-opacity="1" stroke="#000000" stroke-opacity="1" stroke-width="3.2"/>
<circle clip-path="url(#clip502)" cx="1490.8" cy="1128.25" r="3.6" fill="#009af9" fill-rule="evenodd" fill-opacity="1" stroke="#000000" stroke-opacity="1" stroke-width="3.2"/>
<circle clip-path="url(#clip502)" cx="1500.6" cy="1148.59" r="3.6" fill="#009af9" fill-rule="evenodd" fill-opacity="1" stroke="#000000" stroke-opacity="1" stroke-width="3.2"/>
<circle clip-path="url(#clip502)" cx="1510.39" cy="1166.01" r="3.6" fill="#009af9" fill-rule="evenodd" fill-opacity="1" stroke="#000000" stroke-opacity="1" stroke-width="3.2"/>
<circle clip-path="url(#clip502)" cx="1520.18" cy="1202.41" r="3.6" fill="#009af9" fill-rule="evenodd" fill-opacity="1" stroke="#000000" stroke-opacity="1" stroke-width="3.2"/>
<circle clip-path="url(#clip502)" cx="1529.98" cy="1215.88" r="3.6" fill="#009af9" fill-rule="evenodd" fill-opacity="1" stroke="#000000" stroke-opacity="1" stroke-width="3.2"/>
<circle clip-path="url(#clip502)" cx="1539.77" cy="1243.21" r="3.6" fill="#009af9" fill-rule="evenodd" fill-opacity="1" stroke="#000000" stroke-opacity="1" stroke-width="3.2"/>
<circle clip-path="url(#clip502)" cx="1549.57" cy="1234.93" r="3.6" fill="#009af9" fill-rule="evenodd" fill-opacity="1" stroke="#000000" stroke-opacity="1" stroke-width="3.2"/>
<circle clip-path="url(#clip502)" cx="1559.36" cy="1252.5" r="3.6" fill="#009af9" fill-rule="evenodd" fill-opacity="1" stroke="#000000" stroke-opacity="1" stroke-width="3.2"/>
<circle clip-path="url(#clip502)" cx="1569.16" cy="1259.36" r="3.6" fill="#009af9" fill-rule="evenodd" fill-opacity="1" stroke="#000000" stroke-opacity="1" stroke-width="3.2"/>
<circle clip-path="url(#clip502)" cx="1578.95" cy="1285.48" r="3.6" fill="#009af9" fill-rule="evenodd" fill-opacity="1" stroke="#000000" stroke-opacity="1" stroke-width="3.2"/>
<circle clip-path="url(#clip502)" cx="1588.75" cy="1315.75" r="3.6" fill="#009af9" fill-rule="evenodd" fill-opacity="1" stroke="#000000" stroke-opacity="1" stroke-width="3.2"/>
<circle clip-path="url(#clip502)" cx="1598.54" cy="1337.12" r="3.6" fill="#009af9" fill-rule="evenodd" fill-opacity="1" stroke="#000000" stroke-opacity="1" stroke-width="3.2"/>
<circle clip-path="url(#clip502)" cx="1608.34" cy="1328.58" r="3.6" fill="#009af9" fill-rule="evenodd" fill-opacity="1" stroke="#000000" stroke-opacity="1" stroke-width="3.2"/>
<circle clip-path="url(#clip502)" cx="1618.13" cy="1349.74" r="3.6" fill="#009af9" fill-rule="evenodd" fill-opacity="1" stroke="#000000" stroke-opacity="1" stroke-width="3.2"/>
<circle clip-path="url(#clip502)" cx="1627.93" cy="1264.33" r="3.6" fill="#009af9" fill-rule="evenodd" fill-opacity="1" stroke="#000000" stroke-opacity="1" stroke-width="3.2"/>
<circle clip-path="url(#clip502)" cx="1637.72" cy="1285.6" r="3.6" fill="#009af9" fill-rule="evenodd" fill-opacity="1" stroke="#000000" stroke-opacity="1" stroke-width="3.2"/>
<circle clip-path="url(#clip502)" cx="1647.52" cy="1264.9" r="3.6" fill="#009af9" fill-rule="evenodd" fill-opacity="1" stroke="#000000" stroke-opacity="1" stroke-width="3.2"/>
<circle clip-path="url(#clip502)" cx="1657.31" cy="1219.21" r="3.6" fill="#009af9" fill-rule="evenodd" fill-opacity="1" stroke="#000000" stroke-opacity="1" stroke-width="3.2"/>
<circle clip-path="url(#clip502)" cx="1667.11" cy="1216.22" r="3.6" fill="#009af9" fill-rule="evenodd" fill-opacity="1" stroke="#000000" stroke-opacity="1" stroke-width="3.2"/>
<circle clip-path="url(#clip502)" cx="1676.9" cy="1171.84" r="3.6" fill="#009af9" fill-rule="evenodd" fill-opacity="1" stroke="#000000" stroke-opacity="1" stroke-width="3.2"/>
<circle clip-path="url(#clip502)" cx="1686.7" cy="1193.47" r="3.6" fill="#009af9" fill-rule="evenodd" fill-opacity="1" stroke="#000000" stroke-opacity="1" stroke-width="3.2"/>
<circle clip-path="url(#clip502)" cx="1696.49" cy="1129.47" r="3.6" fill="#009af9" fill-rule="evenodd" fill-opacity="1" stroke="#000000" stroke-opacity="1" stroke-width="3.2"/>
<circle clip-path="url(#clip502)" cx="1706.29" cy="1156.42" r="3.6" fill="#009af9" fill-rule="evenodd" fill-opacity="1" stroke="#000000" stroke-opacity="1" stroke-width="3.2"/>
<circle clip-path="url(#clip502)" cx="1716.08" cy="1182.66" r="3.6" fill="#009af9" fill-rule="evenodd" fill-opacity="1" stroke="#000000" stroke-opacity="1" stroke-width="3.2"/>
<circle clip-path="url(#clip502)" cx="1725.88" cy="1152.61" r="3.6" fill="#009af9" fill-rule="evenodd" fill-opacity="1" stroke="#000000" stroke-opacity="1" stroke-width="3.2"/>
<circle clip-path="url(#clip502)" cx="1735.67" cy="1109.91" r="3.6" fill="#009af9" fill-rule="evenodd" fill-opacity="1" stroke="#000000" stroke-opacity="1" stroke-width="3.2"/>
<circle clip-path="url(#clip502)" cx="1745.47" cy="1077.97" r="3.6" fill="#009af9" fill-rule="evenodd" fill-opacity="1" stroke="#000000" stroke-opacity="1" stroke-width="3.2"/>
<circle clip-path="url(#clip502)" cx="1755.26" cy="1051.12" r="3.6" fill="#009af9" fill-rule="evenodd" fill-opacity="1" stroke="#000000" stroke-opacity="1" stroke-width="3.2"/>
<circle clip-path="url(#clip502)" cx="1765.06" cy="1081.22" r="3.6" fill="#009af9" fill-rule="evenodd" fill-opacity="1" stroke="#000000" stroke-opacity="1" stroke-width="3.2"/>
<circle clip-path="url(#clip502)" cx="1774.85" cy="1036.04" r="3.6" fill="#009af9" fill-rule="evenodd" fill-opacity="1" stroke="#000000" stroke-opacity="1" stroke-width="3.2"/>
<circle clip-path="url(#clip502)" cx="1784.65" cy="1064" r="3.6" fill="#009af9" fill-rule="evenodd" fill-opacity="1" stroke="#000000" stroke-opacity="1" stroke-width="3.2"/>
<circle clip-path="url(#clip502)" cx="1794.44" cy="1034.37" r="3.6" fill="#009af9" fill-rule="evenodd" fill-opacity="1" stroke="#000000" stroke-opacity="1" stroke-width="3.2"/>
<circle clip-path="url(#clip502)" cx="1804.24" cy="1013.15" r="3.6" fill="#009af9" fill-rule="evenodd" fill-opacity="1" stroke="#000000" stroke-opacity="1" stroke-width="3.2"/>
<circle clip-path="url(#clip502)" cx="1814.03" cy="965.219" r="3.6" fill="#009af9" fill-rule="evenodd" fill-opacity="1" stroke="#000000" stroke-opacity="1" stroke-width="3.2"/>
<circle clip-path="url(#clip502)" cx="1823.83" cy="997.886" r="3.6" fill="#009af9" fill-rule="evenodd" fill-opacity="1" stroke="#000000" stroke-opacity="1" stroke-width="3.2"/>
<circle clip-path="url(#clip502)" cx="1833.62" cy="1032.18" r="3.6" fill="#009af9" fill-rule="evenodd" fill-opacity="1" stroke="#000000" stroke-opacity="1" stroke-width="3.2"/>
<circle clip-path="url(#clip502)" cx="1843.42" cy="1066.07" r="3.6" fill="#009af9" fill-rule="evenodd" fill-opacity="1" stroke="#000000" stroke-opacity="1" stroke-width="3.2"/>
<circle clip-path="url(#clip502)" cx="1853.21" cy="1093.78" r="3.6" fill="#009af9" fill-rule="evenodd" fill-opacity="1" stroke="#000000" stroke-opacity="1" stroke-width="3.2"/>
<circle clip-path="url(#clip502)" cx="1863.01" cy="1060.87" r="3.6" fill="#009af9" fill-rule="evenodd" fill-opacity="1" stroke="#000000" stroke-opacity="1" stroke-width="3.2"/>
<circle clip-path="url(#clip502)" cx="1872.8" cy="1087.3" r="3.6" fill="#009af9" fill-rule="evenodd" fill-opacity="1" stroke="#000000" stroke-opacity="1" stroke-width="3.2"/>
<circle clip-path="url(#clip502)" cx="1882.6" cy="1061.87" r="3.6" fill="#009af9" fill-rule="evenodd" fill-opacity="1" stroke="#000000" stroke-opacity="1" stroke-width="3.2"/>
<circle clip-path="url(#clip502)" cx="1892.39" cy="1046.21" r="3.6" fill="#009af9" fill-rule="evenodd" fill-opacity="1" stroke="#000000" stroke-opacity="1" stroke-width="3.2"/>
<circle clip-path="url(#clip502)" cx="1902.19" cy="1002.23" r="3.6" fill="#009af9" fill-rule="evenodd" fill-opacity="1" stroke="#000000" stroke-opacity="1" stroke-width="3.2"/>
<circle clip-path="url(#clip502)" cx="1911.98" cy="985.514" r="3.6" fill="#009af9" fill-rule="evenodd" fill-opacity="1" stroke="#000000" stroke-opacity="1" stroke-width="3.2"/>
<circle clip-path="url(#clip502)" cx="1921.78" cy="958.894" r="3.6" fill="#009af9" fill-rule="evenodd" fill-opacity="1" stroke="#000000" stroke-opacity="1" stroke-width="3.2"/>
<circle clip-path="url(#clip502)" cx="1931.57" cy="983.862" r="3.6" fill="#009af9" fill-rule="evenodd" fill-opacity="1" stroke="#000000" stroke-opacity="1" stroke-width="3.2"/>
<circle clip-path="url(#clip502)" cx="1941.37" cy="980.683" r="3.6" fill="#009af9" fill-rule="evenodd" fill-opacity="1" stroke="#000000" stroke-opacity="1" stroke-width="3.2"/>
<circle clip-path="url(#clip502)" cx="1951.16" cy="1010.42" r="3.6" fill="#009af9" fill-rule="evenodd" fill-opacity="1" stroke="#000000" stroke-opacity="1" stroke-width="3.2"/>
<circle clip-path="url(#clip502)" cx="1960.96" cy="1046.18" r="3.6" fill="#009af9" fill-rule="evenodd" fill-opacity="1" stroke="#000000" stroke-opacity="1" stroke-width="3.2"/>
<circle clip-path="url(#clip502)" cx="1970.75" cy="1078.82" r="3.6" fill="#009af9" fill-rule="evenodd" fill-opacity="1" stroke="#000000" stroke-opacity="1" stroke-width="3.2"/>
<circle clip-path="url(#clip502)" cx="1980.55" cy="1026.51" r="3.6" fill="#009af9" fill-rule="evenodd" fill-opacity="1" stroke="#000000" stroke-opacity="1" stroke-width="3.2"/>
<circle clip-path="url(#clip502)" cx="1990.34" cy="1054.83" r="3.6" fill="#009af9" fill-rule="evenodd" fill-opacity="1" stroke="#000000" stroke-opacity="1" stroke-width="3.2"/>
<circle clip-path="url(#clip502)" cx="2000.14" cy="1087.53" r="3.6" fill="#009af9" fill-rule="evenodd" fill-opacity="1" stroke="#000000" stroke-opacity="1" stroke-width="3.2"/>
<circle clip-path="url(#clip502)" cx="2009.93" cy="1115.81" r="3.6" fill="#009af9" fill-rule="evenodd" fill-opacity="1" stroke="#000000" stroke-opacity="1" stroke-width="3.2"/>
<circle clip-path="url(#clip502)" cx="2019.73" cy="1142.58" r="3.6" fill="#009af9" fill-rule="evenodd" fill-opacity="1" stroke="#000000" stroke-opacity="1" stroke-width="3.2"/>
<circle clip-path="url(#clip502)" cx="2029.52" cy="1117.59" r="3.6" fill="#009af9" fill-rule="evenodd" fill-opacity="1" stroke="#000000" stroke-opacity="1" stroke-width="3.2"/>
<circle clip-path="url(#clip502)" cx="2039.32" cy="1106.96" r="3.6" fill="#009af9" fill-rule="evenodd" fill-opacity="1" stroke="#000000" stroke-opacity="1" stroke-width="3.2"/>
<circle clip-path="url(#clip502)" cx="2049.11" cy="1068.66" r="3.6" fill="#009af9" fill-rule="evenodd" fill-opacity="1" stroke="#000000" stroke-opacity="1" stroke-width="3.2"/>
<circle clip-path="url(#clip502)" cx="2058.91" cy="1091.06" r="3.6" fill="#009af9" fill-rule="evenodd" fill-opacity="1" stroke="#000000" stroke-opacity="1" stroke-width="3.2"/>
<circle clip-path="url(#clip502)" cx="2068.7" cy="1111.41" r="3.6" fill="#009af9" fill-rule="evenodd" fill-opacity="1" stroke="#000000" stroke-opacity="1" stroke-width="3.2"/>
<circle clip-path="url(#clip502)" cx="2078.5" cy="1114.2" r="3.6" fill="#009af9" fill-rule="evenodd" fill-opacity="1" stroke="#000000" stroke-opacity="1" stroke-width="3.2"/>
<circle clip-path="url(#clip502)" cx="2088.29" cy="1067.01" r="3.6" fill="#009af9" fill-rule="evenodd" fill-opacity="1" stroke="#000000" stroke-opacity="1" stroke-width="3.2"/>
<circle clip-path="url(#clip502)" cx="2098.09" cy="1053.84" r="3.6" fill="#009af9" fill-rule="evenodd" fill-opacity="1" stroke="#000000" stroke-opacity="1" stroke-width="3.2"/>
<circle clip-path="url(#clip502)" cx="2107.88" cy="1049.13" r="3.6" fill="#009af9" fill-rule="evenodd" fill-opacity="1" stroke="#000000" stroke-opacity="1" stroke-width="3.2"/>
<circle clip-path="url(#clip502)" cx="2117.68" cy="1074.56" r="3.6" fill="#009af9" fill-rule="evenodd" fill-opacity="1" stroke="#000000" stroke-opacity="1" stroke-width="3.2"/>
<circle clip-path="url(#clip502)" cx="2127.47" cy="1012.23" r="3.6" fill="#009af9" fill-rule="evenodd" fill-opacity="1" stroke="#000000" stroke-opacity="1" stroke-width="3.2"/>
<circle clip-path="url(#clip502)" cx="2137.27" cy="965.963" r="3.6" fill="#009af9" fill-rule="evenodd" fill-opacity="1" stroke="#000000" stroke-opacity="1" stroke-width="3.2"/>
<circle clip-path="url(#clip502)" cx="2147.06" cy="946.645" r="3.6" fill="#009af9" fill-rule="evenodd" fill-opacity="1" stroke="#000000" stroke-opacity="1" stroke-width="3.2"/>
<circle clip-path="url(#clip502)" cx="2156.86" cy="915.615" r="3.6" fill="#009af9" fill-rule="evenodd" fill-opacity="1" stroke="#000000" stroke-opacity="1" stroke-width="3.2"/>
<circle clip-path="url(#clip502)" cx="2166.65" cy="910.356" r="3.6" fill="#009af9" fill-rule="evenodd" fill-opacity="1" stroke="#000000" stroke-opacity="1" stroke-width="3.2"/>
<circle clip-path="url(#clip502)" cx="2176.45" cy="939.244" r="3.6" fill="#009af9" fill-rule="evenodd" fill-opacity="1" stroke="#000000" stroke-opacity="1" stroke-width="3.2"/>
<circle clip-path="url(#clip502)" cx="2186.24" cy="967.066" r="3.6" fill="#009af9" fill-rule="evenodd" fill-opacity="1" stroke="#000000" stroke-opacity="1" stroke-width="3.2"/>
<circle clip-path="url(#clip502)" cx="2196.04" cy="966.224" r="3.6" fill="#009af9" fill-rule="evenodd" fill-opacity="1" stroke="#000000" stroke-opacity="1" stroke-width="3.2"/>
<circle clip-path="url(#clip502)" cx="2205.83" cy="1001.54" r="3.6" fill="#009af9" fill-rule="evenodd" fill-opacity="1" stroke="#000000" stroke-opacity="1" stroke-width="3.2"/>
<circle clip-path="url(#clip502)" cx="2215.63" cy="963.202" r="3.6" fill="#009af9" fill-rule="evenodd" fill-opacity="1" stroke="#000000" stroke-opacity="1" stroke-width="3.2"/>
<circle clip-path="url(#clip502)" cx="2225.42" cy="918.703" r="3.6" fill="#009af9" fill-rule="evenodd" fill-opacity="1" stroke="#000000" stroke-opacity="1" stroke-width="3.2"/>
<circle clip-path="url(#clip502)" cx="2235.22" cy="952.667" r="3.6" fill="#009af9" fill-rule="evenodd" fill-opacity="1" stroke="#000000" stroke-opacity="1" stroke-width="3.2"/>
<circle clip-path="url(#clip502)" cx="2245.01" cy="934.424" r="3.6" fill="#009af9" fill-rule="evenodd" fill-opacity="1" stroke="#000000" stroke-opacity="1" stroke-width="3.2"/>
<circle clip-path="url(#clip502)" cx="2254.81" cy="967.737" r="3.6" fill="#009af9" fill-rule="evenodd" fill-opacity="1" stroke="#000000" stroke-opacity="1" stroke-width="3.2"/>
<circle clip-path="url(#clip502)" cx="2264.6" cy="1003.77" r="3.6" fill="#009af9" fill-rule="evenodd" fill-opacity="1" stroke="#000000" stroke-opacity="1" stroke-width="3.2"/>
<circle clip-path="url(#clip502)" cx="2274.4" cy="1032.06" r="3.6" fill="#009af9" fill-rule="evenodd" fill-opacity="1" stroke="#000000" stroke-opacity="1" stroke-width="3.2"/>
<circle clip-path="url(#clip502)" cx="2284.19" cy="1063.39" r="3.6" fill="#009af9" fill-rule="evenodd" fill-opacity="1" stroke="#000000" stroke-opacity="1" stroke-width="3.2"/>
<circle clip-path="url(#clip502)" cx="2293.99" cy="1090.87" r="3.6" fill="#009af9" fill-rule="evenodd" fill-opacity="1" stroke="#000000" stroke-opacity="1" stroke-width="3.2"/>
<circle clip-path="url(#clip502)" cx="2303.78" cy="1123.31" r="3.6" fill="#009af9" fill-rule="evenodd" fill-opacity="1" stroke="#000000" stroke-opacity="1" stroke-width="3.2"/>
<circle clip-path="url(#clip502)" cx="2313.58" cy="1100.32" r="3.6" fill="#009af9" fill-rule="evenodd" fill-opacity="1" stroke="#000000" stroke-opacity="1" stroke-width="3.2"/>
<circle clip-path="url(#clip502)" cx="2323.37" cy="1126.53" r="3.6" fill="#009af9" fill-rule="evenodd" fill-opacity="1" stroke="#000000" stroke-opacity="1" stroke-width="3.2"/>
<circle clip-path="url(#clip502)" cx="2333.17" cy="1159.34" r="3.6" fill="#009af9" fill-rule="evenodd" fill-opacity="1" stroke="#000000" stroke-opacity="1" stroke-width="3.2"/>
<circle clip-path="url(#clip502)" cx="2342.96" cy="1183.83" r="3.6" fill="#009af9" fill-rule="evenodd" fill-opacity="1" stroke="#000000" stroke-opacity="1" stroke-width="3.2"/>
<circle clip-path="url(#clip502)" cx="2352.76" cy="1166.09" r="3.6" fill="#009af9" fill-rule="evenodd" fill-opacity="1" stroke="#000000" stroke-opacity="1" stroke-width="3.2"/>
<path clip-path="url(#clip500)" d="M1910.28 323.941 L2287.13 323.941 L2287.13 90.6606 L1910.28 90.6606  Z" fill="#ffffff" fill-rule="evenodd" fill-opacity="1"/>
<polyline clip-path="url(#clip500)" style="stroke:#000000; stroke-linecap:round; stroke-linejoin:round; stroke-width:4; stroke-opacity:1; fill:none" points="1910.28,323.941 2287.13,323.941 2287.13,90.6606 1910.28,90.6606 1910.28,323.941 "/>
<polyline clip-path="url(#clip500)" style="stroke:#009af9; stroke-linecap:round; stroke-linejoin:round; stroke-width:18; stroke-opacity:1; fill:none" points="1932.15,207.301 2063.41,207.301 "/>
<circle clip-path="url(#clip500)" cx="1997.78" cy="207.301" r="8.102" fill="#009af9" fill-rule="evenodd" fill-opacity="1" stroke="#000000" stroke-opacity="1" stroke-width="7.20178"/>
<path clip-path="url(#clip500)" d="M2085.28 246.181 L2085.28 168.421 L2114.61 168.421 Q2122.36 168.421 2126.44 169.163 Q2132.17 170.118 2136.04 172.823 Q2139.92 175.475 2142.25 180.302 Q2144.64 185.129 2144.64 190.911 Q2144.64 200.829 2138.32 207.725 Q2132.01 214.567 2115.52 214.567 L2095.57 214.567 L2095.57 246.181 L2085.28 246.181 M2095.57 205.391 L2115.68 205.391 Q2125.65 205.391 2129.84 201.678 Q2134.03 197.965 2134.03 191.229 Q2134.03 186.349 2131.53 182.901 Q2129.09 179.4 2125.06 178.286 Q2122.46 177.597 2115.46 177.597 L2095.57 177.597 L2095.57 205.391 Z" fill="#000000" fill-rule="nonzero" fill-opacity="1" /><path clip-path="url(#clip500)" d="M2153.92 225.653 L2163.47 224.38 Q2165.11 232.496 2169.04 236.103 Q2173.01 239.656 2178.69 239.656 Q2185.43 239.656 2190.04 234.989 Q2194.71 230.321 2194.71 223.425 Q2194.71 216.848 2190.41 212.605 Q2186.12 208.308 2179.48 208.308 Q2176.78 208.308 2172.75 209.369 L2173.81 200.989 Q2174.76 201.095 2175.35 201.095 Q2181.45 201.095 2186.33 197.912 Q2191.21 194.73 2191.21 188.099 Q2191.21 182.848 2187.65 179.4 Q2184.1 175.953 2178.48 175.953 Q2172.91 175.953 2169.19 179.453 Q2165.48 182.954 2164.42 189.956 L2154.87 188.258 Q2156.62 178.658 2162.83 173.407 Q2169.04 168.102 2178.26 168.102 Q2184.63 168.102 2189.99 170.861 Q2195.34 173.566 2198.16 178.286 Q2201.02 183.007 2201.02 188.311 Q2201.02 193.35 2198.31 197.488 Q2195.61 201.625 2190.31 204.065 Q2197.2 205.656 2201.02 210.695 Q2204.84 215.681 2204.84 223.213 Q2204.84 233.397 2197.41 240.505 Q2189.99 247.56 2178.64 247.56 Q2168.4 247.56 2161.61 241.46 Q2154.87 235.36 2153.92 225.653 Z" fill="#000000" fill-rule="nonzero" fill-opacity="1" /><path clip-path="url(#clip500)" d="M2214.33 225.653 L2223.88 224.38 Q2225.53 232.496 2229.45 236.103 Q2233.43 239.656 2239.1 239.656 Q2245.84 239.656 2250.46 234.989 Q2255.12 230.321 2255.12 223.425 Q2255.12 216.848 2250.83 212.605 Q2246.53 208.308 2239.9 208.308 Q2237.19 208.308 2233.16 209.369 L2234.22 200.989 Q2235.18 201.095 2235.76 201.095 Q2241.86 201.095 2246.74 197.912 Q2251.62 194.73 2251.62 188.099 Q2251.62 182.848 2248.07 179.4 Q2244.51 175.953 2238.89 175.953 Q2233.32 175.953 2229.61 179.453 Q2225.9 182.954 2224.84 189.956 L2215.29 188.258 Q2217.04 178.658 2223.24 173.407 Q2229.45 168.102 2238.68 168.102 Q2245.05 168.102 2250.4 170.861 Q2255.76 173.566 2258.57 178.286 Q2261.44 183.007 2261.44 188.311 Q2261.44 193.35 2258.73 197.488 Q2256.02 201.625 2250.72 204.065 Q2257.62 205.656 2261.44 210.695 Q2265.25 215.681 2265.25 223.213 Q2265.25 233.397 2257.83 240.505 Q2250.4 247.56 2239.05 247.56 Q2228.81 247.56 2222.02 241.46 Q2215.29 235.36 2214.33 225.653 Z" fill="#000000" fill-rule="nonzero" fill-opacity="1" /></svg>
