<?xml version="1.0" encoding="utf-8"?>
<svg xmlns="http://www.w3.org/2000/svg" xmlns:xlink="http://www.w3.org/1999/xlink" width="600" height="400" viewBox="0 0 2400 1600">
<defs>
  <clipPath id="clip860">
    <rect x="0" y="0" width="2400" height="1600"/>
  </clipPath>
</defs>
<path clip-path="url(#clip860)" d="M0 1600 L2400 1600 L2400 8.88178e-14 L0 8.88178e-14  Z" fill="#ffffff" fill-rule="evenodd" fill-opacity="1"/>
<defs>
  <clipPath id="clip861">
    <rect x="480" y="0" width="1681" height="1600"/>
  </clipPath>
</defs>
<path clip-path="url(#clip860)" d="M382.644 1349.74 L2352.76 1349.74 L2352.76 47.2441 L382.644 47.2441  Z" fill="#ffffff" fill-rule="evenodd" fill-opacity="1"/>
<defs>
  <clipPath id="clip862">
    <rect x="382" y="47" width="1971" height="1303"/>
  </clipPath>
</defs>
<polyline clip-path="url(#clip860)" style="stroke:#000000; stroke-linecap:round; stroke-linejoin:round; stroke-width:4; stroke-opacity:1; fill:none" points="382.644,1349.74 2352.76,1349.74 "/>
<polyline clip-path="url(#clip860)" style="stroke:#000000; stroke-linecap:round; stroke-linejoin:round; stroke-width:2; stroke-opacity:0.5; fill:none" points="382.644,47.2441 2352.76,47.2441 "/>
<polyline clip-path="url(#clip860)" style="stroke:#000000; stroke-linecap:round; stroke-linejoin:round; stroke-width:4; stroke-opacity:1; fill:none" points="644.913,1349.74 644.913,1330.84 "/>
<polyline clip-path="url(#clip860)" style="stroke:#000000; stroke-linecap:round; stroke-linejoin:round; stroke-width:4; stroke-opacity:1; fill:none" points="1057.93,1349.74 1057.93,1330.84 "/>
<polyline clip-path="url(#clip860)" style="stroke:#000000; stroke-linecap:round; stroke-linejoin:round; stroke-width:4; stroke-opacity:1; fill:none" points="1470.96,1349.74 1470.96,1330.84 "/>
<polyline clip-path="url(#clip860)" style="stroke:#000000; stroke-linecap:round; stroke-linejoin:round; stroke-width:4; stroke-opacity:1; fill:none" points="1883.98,1349.74 1883.98,1330.84 "/>
<polyline clip-path="url(#clip860)" style="stroke:#000000; stroke-linecap:round; stroke-linejoin:round; stroke-width:4; stroke-opacity:1; fill:none" points="2297,1349.74 2297,1330.84 "/>
<path clip-path="url(#clip860)" d="M670.665 1456.96 L670.665 1466.14 L619.267 1466.14 Q619.161 1462.69 620.381 1459.51 Q622.343 1454.26 626.64 1449.17 Q630.989 1444.07 639.158 1437.39 Q651.835 1426.99 656.29 1420.95 Q660.746 1414.85 660.746 1409.44 Q660.746 1403.76 656.662 1399.89 Q652.631 1395.96 646.106 1395.96 Q639.211 1395.96 635.074 1400.1 Q630.936 1404.24 630.883 1411.56 L621.07 1410.55 Q622.078 1399.57 628.655 1393.84 Q635.233 1388.06 646.318 1388.06 Q657.51 1388.06 664.035 1394.27 Q670.559 1400.47 670.559 1409.65 Q670.559 1414.32 668.649 1418.83 Q666.74 1423.33 662.284 1428.32 Q657.882 1433.31 647.591 1442.01 Q638.999 1449.22 636.559 1451.82 Q634.119 1454.36 632.527 1456.96 L670.665 1456.96 Z" fill="#000000" fill-rule="nonzero" fill-opacity="1" /><path clip-path="url(#clip860)" d="M1064.78 1466.14 L1064.78 1447.52 L1031.04 1447.52 L1031.04 1438.77 L1066.53 1388.38 L1074.32 1388.38 L1074.32 1438.77 L1084.83 1438.77 L1084.83 1447.52 L1074.32 1447.52 L1074.32 1466.14 L1064.78 1466.14 M1064.78 1438.77 L1064.78 1403.71 L1040.43 1438.77 L1064.78 1438.77 Z" fill="#000000" fill-rule="nonzero" fill-opacity="1" /><path clip-path="url(#clip860)" d="M1495.25 1407.42 L1485.75 1408.16 Q1484.48 1402.54 1482.15 1400 Q1478.28 1395.91 1472.6 1395.91 Q1468.04 1395.91 1464.59 1398.46 Q1460.08 1401.75 1457.48 1408.06 Q1454.88 1414.37 1454.78 1426.04 Q1458.23 1420.79 1463.21 1418.24 Q1468.2 1415.7 1473.66 1415.7 Q1483.21 1415.7 1489.89 1422.75 Q1496.63 1429.75 1496.63 1440.89 Q1496.63 1448.21 1493.45 1454.52 Q1490.32 1460.78 1484.8 1464.12 Q1479.28 1467.47 1472.28 1467.47 Q1460.35 1467.47 1452.81 1458.71 Q1445.28 1449.91 1445.28 1429.75 Q1445.28 1407.21 1453.61 1396.97 Q1460.88 1388.06 1473.18 1388.06 Q1482.36 1388.06 1488.19 1393.21 Q1494.08 1398.35 1495.25 1407.42 M1456.26 1440.94 Q1456.26 1445.88 1458.33 1450.39 Q1460.45 1454.89 1464.22 1457.28 Q1467.99 1459.62 1472.12 1459.62 Q1478.17 1459.62 1482.52 1454.74 Q1486.87 1449.86 1486.87 1441.48 Q1486.87 1433.41 1482.57 1428.8 Q1478.28 1424.13 1471.75 1424.13 Q1465.28 1424.13 1460.77 1428.8 Q1456.26 1433.41 1456.26 1440.94 Z" fill="#000000" fill-rule="nonzero" fill-opacity="1" /><path clip-path="url(#clip860)" d="M1873.16 1423.97 Q1867.22 1421.8 1864.35 1417.77 Q1861.49 1413.73 1861.49 1408.11 Q1861.49 1399.62 1867.59 1393.84 Q1873.69 1388.06 1883.82 1388.06 Q1894 1388.06 1900.21 1394 Q1906.41 1399.89 1906.41 1408.38 Q1906.41 1413.79 1903.55 1417.82 Q1900.74 1421.8 1894.96 1423.97 Q1902.12 1426.31 1905.83 1431.5 Q1909.6 1436.7 1909.6 1443.92 Q1909.6 1453.89 1902.54 1460.68 Q1895.49 1467.47 1883.98 1467.47 Q1872.47 1467.47 1865.41 1460.68 Q1858.36 1453.83 1858.36 1443.65 Q1858.36 1436.06 1862.18 1430.97 Q1866.05 1425.83 1873.16 1423.97 M1871.25 1407.79 Q1871.25 1413.31 1874.8 1416.81 Q1878.35 1420.31 1884.03 1420.31 Q1889.55 1420.31 1893.05 1416.86 Q1896.6 1413.36 1896.6 1408.32 Q1896.6 1403.07 1892.94 1399.52 Q1889.33 1395.91 1883.92 1395.91 Q1878.46 1395.91 1874.85 1399.41 Q1871.25 1402.91 1871.25 1407.79 M1868.17 1443.7 Q1868.17 1447.79 1870.08 1451.61 Q1872.04 1455.43 1875.86 1457.55 Q1879.68 1459.62 1884.08 1459.62 Q1890.93 1459.62 1895.38 1455.21 Q1899.84 1450.81 1899.84 1444.02 Q1899.84 1437.13 1895.22 1432.62 Q1890.66 1428.11 1883.76 1428.11 Q1877.03 1428.11 1872.57 1432.56 Q1868.17 1437.02 1868.17 1443.7 Z" fill="#000000" fill-rule="nonzero" fill-opacity="1" /><path clip-path="url(#clip860)" d="M2273.74 1466.14 L2264.19 1466.14 L2264.19 1405.3 Q2260.74 1408.59 2255.12 1411.88 Q2249.55 1415.17 2245.1 1416.81 L2245.1 1407.58 Q2253.11 1403.82 2259.1 1398.46 Q2265.09 1393.1 2267.59 1388.06 L2273.74 1388.06 L2273.74 1466.14 Z" fill="#000000" fill-rule="nonzero" fill-opacity="1" /><path clip-path="url(#clip860)" d="M2298.19 1427.79 Q2298.19 1414 2301 1405.62 Q2303.87 1397.18 2309.44 1392.62 Q2315.06 1388.06 2323.55 1388.06 Q2329.8 1388.06 2334.53 1390.61 Q2339.25 1393.1 2342.32 1397.87 Q2345.4 1402.6 2347.15 1409.44 Q2348.9 1416.23 2348.9 1427.79 Q2348.9 1441.48 2346.09 1449.91 Q2343.28 1458.29 2337.65 1462.9 Q2332.09 1467.47 2323.55 1467.47 Q2312.3 1467.47 2305.88 1459.4 Q2298.19 1449.7 2298.19 1427.79 M2308 1427.79 Q2308 1446.94 2312.46 1453.3 Q2316.97 1459.62 2323.55 1459.62 Q2330.12 1459.62 2334.58 1453.25 Q2339.09 1446.89 2339.09 1427.79 Q2339.09 1408.59 2334.58 1402.28 Q2330.12 1395.96 2323.44 1395.96 Q2316.86 1395.96 2312.94 1401.53 Q2308 1408.64 2308 1427.79 Z" fill="#000000" fill-rule="nonzero" fill-opacity="1" /><path clip-path="url(#clip860)" d="M1267.13 1577.55 L1277 1578.77 Q1274.66 1587.42 1268.35 1592.19 Q1262.04 1596.96 1252.23 1596.96 Q1239.87 1596.96 1232.6 1589.38 Q1225.39 1581.74 1225.39 1568 Q1225.39 1553.79 1232.71 1545.94 Q1240.03 1538.09 1251.7 1538.09 Q1262.99 1538.09 1270.16 1545.78 Q1277.32 1553.47 1277.32 1567.42 Q1277.32 1568.27 1277.26 1569.97 L1235.25 1569.97 Q1235.78 1579.25 1240.5 1584.18 Q1245.23 1589.11 1252.28 1589.11 Q1257.53 1589.11 1261.24 1586.36 Q1264.96 1583.6 1267.13 1577.55 M1235.78 1562.12 L1267.24 1562.12 Q1266.6 1555.01 1263.63 1551.45 Q1259.07 1545.94 1251.8 1545.94 Q1245.23 1545.94 1240.72 1550.34 Q1236.26 1554.74 1235.78 1562.12 Z" fill="#000000" fill-rule="nonzero" fill-opacity="1" /><path clip-path="url(#clip860)" d="M1288.99 1617.28 L1288.99 1539.36 L1297.68 1539.36 L1297.68 1546.68 Q1300.76 1542.38 1304.63 1540.26 Q1308.5 1538.09 1314.02 1538.09 Q1321.24 1538.09 1326.75 1541.8 Q1332.27 1545.51 1335.08 1552.3 Q1337.89 1559.04 1337.89 1567.1 Q1337.89 1575.75 1334.76 1582.7 Q1331.68 1589.59 1325.74 1593.3 Q1319.86 1596.96 1313.33 1596.96 Q1308.56 1596.96 1304.74 1594.95 Q1300.97 1592.93 1298.53 1589.86 L1298.53 1617.28 L1288.99 1617.28 M1297.63 1567.84 Q1297.63 1578.72 1302.03 1583.92 Q1306.44 1589.11 1312.7 1589.11 Q1319.06 1589.11 1323.57 1583.76 Q1328.13 1578.35 1328.13 1567.05 Q1328.13 1556.28 1323.68 1550.92 Q1319.27 1545.57 1313.12 1545.57 Q1307.02 1545.57 1302.3 1551.3 Q1297.63 1556.97 1297.63 1567.84 Z" fill="#000000" fill-rule="nonzero" fill-opacity="1" /><path clip-path="url(#clip860)" d="M1345.85 1567.53 Q1345.85 1551.88 1354.55 1544.35 Q1361.81 1538.09 1372.26 1538.09 Q1383.88 1538.09 1391.25 1545.73 Q1398.62 1553.31 1398.62 1566.73 Q1398.62 1577.6 1395.34 1583.86 Q1392.1 1590.07 1385.84 1593.52 Q1379.63 1596.96 1372.26 1596.96 Q1360.43 1596.96 1353.11 1589.38 Q1345.85 1581.79 1345.85 1567.53 M1355.66 1567.53 Q1355.66 1578.35 1360.38 1583.76 Q1365.1 1589.11 1372.26 1589.11 Q1379.37 1589.11 1384.09 1583.7 Q1388.81 1578.29 1388.81 1567.21 Q1388.81 1556.76 1384.04 1551.4 Q1379.32 1545.99 1372.26 1545.99 Q1365.1 1545.99 1360.38 1551.35 Q1355.66 1556.71 1355.66 1567.53 Z" fill="#000000" fill-rule="nonzero" fill-opacity="1" /><path clip-path="url(#clip860)" d="M1446.57 1575.06 L1455.96 1576.28 Q1454.42 1585.99 1448.06 1591.5 Q1441.75 1596.96 1432.52 1596.96 Q1420.95 1596.96 1413.9 1589.43 Q1406.9 1581.85 1406.9 1567.74 Q1406.9 1558.62 1409.92 1551.77 Q1412.95 1544.93 1419.1 1541.54 Q1425.3 1538.09 1432.57 1538.09 Q1441.75 1538.09 1447.58 1542.76 Q1453.42 1547.37 1455.06 1555.91 L1445.78 1557.34 Q1444.45 1551.67 1441.06 1548.8 Q1437.72 1545.94 1432.94 1545.94 Q1425.73 1545.94 1421.22 1551.14 Q1416.71 1556.28 1416.71 1567.47 Q1416.71 1578.82 1421.06 1583.97 Q1425.41 1589.11 1432.41 1589.11 Q1438.03 1589.11 1441.8 1585.67 Q1445.57 1582.22 1446.57 1575.06 Z" fill="#000000" fill-rule="nonzero" fill-opacity="1" /><path clip-path="url(#clip860)" d="M1464.13 1595.69 L1464.13 1517.93 L1473.68 1517.93 L1473.68 1545.83 Q1480.36 1538.09 1490.55 1538.09 Q1496.81 1538.09 1501.42 1540.58 Q1506.03 1543.02 1508 1547.37 Q1510.01 1551.72 1510.01 1559.99 L1510.01 1595.69 L1500.46 1595.69 L1500.46 1559.99 Q1500.46 1552.83 1497.34 1549.6 Q1494.26 1546.31 1488.58 1546.31 Q1484.34 1546.31 1480.57 1548.54 Q1476.86 1550.71 1475.27 1554.48 Q1473.68 1558.24 1473.68 1564.87 L1473.68 1595.69 L1464.13 1595.69 Z" fill="#000000" fill-rule="nonzero" fill-opacity="1" /><polyline clip-path="url(#clip860)" style="stroke:#000000; stroke-linecap:round; stroke-linejoin:round; stroke-width:4; stroke-opacity:1; fill:none" points="382.644,1349.74 382.644,47.2441 "/>
<polyline clip-path="url(#clip860)" style="stroke:#000000; stroke-linecap:round; stroke-linejoin:round; stroke-width:2; stroke-opacity:0.5; fill:none" points="2352.76,1349.74 2352.76,47.2441 "/>
<polyline clip-path="url(#clip860)" style="stroke:#000000; stroke-linecap:round; stroke-linejoin:round; stroke-width:4; stroke-opacity:1; fill:none" points="382.644,1225.11 401.542,1225.11 "/>
<polyline clip-path="url(#clip860)" style="stroke:#000000; stroke-linecap:round; stroke-linejoin:round; stroke-width:4; stroke-opacity:1; fill:none" points="382.644,958.684 401.542,958.684 "/>
<polyline clip-path="url(#clip860)" style="stroke:#000000; stroke-linecap:round; stroke-linejoin:round; stroke-width:4; stroke-opacity:1; fill:none" points="382.644,692.262 401.542,692.262 "/>
<polyline clip-path="url(#clip860)" style="stroke:#000000; stroke-linecap:round; stroke-linejoin:round; stroke-width:4; stroke-opacity:1; fill:none" points="382.644,425.839 401.542,425.839 "/>
<polyline clip-path="url(#clip860)" style="stroke:#000000; stroke-linecap:round; stroke-linejoin:round; stroke-width:4; stroke-opacity:1; fill:none" points="382.644,159.417 401.542,159.417 "/>
<path clip-path="url(#clip860)" d="M145.455 1225.64 Q145.455 1211.85 148.266 1203.47 Q151.13 1195.03 156.7 1190.47 Q162.322 1185.91 170.809 1185.91 Q177.068 1185.91 181.789 1188.45 Q186.51 1190.95 189.586 1195.72 Q192.663 1200.44 194.413 1207.28 Q196.163 1214.07 196.163 1225.64 Q196.163 1239.32 193.352 1247.76 Q190.541 1256.14 184.918 1260.75 Q179.349 1265.31 170.809 1265.31 Q159.564 1265.31 153.146 1257.25 Q145.455 1247.54 145.455 1225.64 M155.268 1225.64 Q155.268 1244.79 159.723 1251.15 Q164.232 1257.46 170.809 1257.46 Q177.386 1257.46 181.842 1251.1 Q186.351 1244.73 186.351 1225.64 Q186.351 1206.44 181.842 1200.12 Q177.386 1193.81 170.703 1193.81 Q164.126 1193.81 160.201 1199.38 Q155.268 1206.49 155.268 1225.64 Z" fill="#000000" fill-rule="nonzero" fill-opacity="1" /><path clip-path="url(#clip860)" d="M211.227 1263.99 L211.227 1253.11 L222.101 1253.11 L222.101 1263.99 L211.227 1263.99 Z" fill="#000000" fill-rule="nonzero" fill-opacity="1" /><path clip-path="url(#clip860)" d="M236.688 1196.41 L236.688 1187.23 L287.025 1187.23 L287.025 1194.66 Q279.599 1202.56 272.279 1215.67 Q265.012 1228.77 261.034 1242.61 Q258.17 1252.37 257.374 1263.99 L247.561 1263.99 Q247.72 1254.81 251.168 1241.82 Q254.616 1228.82 261.034 1216.78 Q267.505 1204.69 274.772 1196.41 L236.688 1196.41 Z" fill="#000000" fill-rule="nonzero" fill-opacity="1" /><path clip-path="url(#clip860)" d="M346.644 1254.81 L346.644 1263.99 L295.246 1263.99 Q295.14 1260.54 296.36 1257.36 Q298.323 1252.11 302.619 1247.01 Q306.969 1241.92 315.137 1235.24 Q327.814 1224.84 332.27 1218.79 Q336.725 1212.7 336.725 1207.28 Q336.725 1201.61 332.641 1197.74 Q328.61 1193.81 322.086 1193.81 Q315.19 1193.81 311.053 1197.95 Q306.916 1202.09 306.863 1209.41 L297.05 1208.4 Q298.058 1197.42 304.635 1191.69 Q311.212 1185.91 322.298 1185.91 Q333.49 1185.91 340.014 1192.11 Q346.538 1198.32 346.538 1207.5 Q346.538 1212.16 344.629 1216.67 Q342.719 1221.18 338.264 1226.17 Q333.861 1231.15 323.571 1239.85 Q314.978 1247.07 312.538 1249.67 Q310.098 1252.21 308.507 1254.81 L346.644 1254.81 Z" fill="#000000" fill-rule="nonzero" fill-opacity="1" /><path clip-path="url(#clip860)" d="M144.978 959.215 Q144.978 945.424 147.789 937.043 Q150.653 928.609 156.223 924.048 Q161.845 919.486 170.332 919.486 Q176.591 919.486 181.312 922.032 Q186.032 924.525 189.109 929.299 Q192.185 934.02 193.936 940.862 Q195.686 947.652 195.686 959.215 Q195.686 972.9 192.875 981.334 Q190.063 989.714 184.441 994.329 Q178.872 998.89 170.332 998.89 Q159.087 998.89 152.669 990.828 Q144.978 981.121 144.978 959.215 M154.79 959.215 Q154.79 978.363 159.246 984.728 Q163.755 991.04 170.332 991.04 Q176.909 991.04 181.365 984.675 Q185.873 978.31 185.873 959.215 Q185.873 940.014 181.365 933.702 Q176.909 927.389 170.226 927.389 Q163.648 927.389 159.723 932.959 Q154.79 940.067 154.79 959.215 Z" fill="#000000" fill-rule="nonzero" fill-opacity="1" /><path clip-path="url(#clip860)" d="M210.75 997.564 L210.75 986.691 L221.624 986.691 L221.624 997.564 L210.75 997.564 Z" fill="#000000" fill-rule="nonzero" fill-opacity="1" /><path clip-path="url(#clip860)" d="M236.21 929.989 L236.21 920.812 L286.547 920.812 L286.547 928.238 Q279.121 936.141 271.802 949.243 Q264.535 962.344 260.557 976.188 Q257.692 985.948 256.897 997.564 L247.084 997.564 Q247.243 988.388 250.691 975.393 Q254.139 962.397 260.557 950.357 Q267.028 938.263 274.295 929.989 L236.21 929.989 Z" fill="#000000" fill-rule="nonzero" fill-opacity="1" /><path clip-path="url(#clip860)" d="M326.594 997.564 L326.594 978.947 L292.859 978.947 L292.859 970.195 L328.345 919.804 L336.142 919.804 L336.142 970.195 L346.644 970.195 L346.644 978.947 L336.142 978.947 L336.142 997.564 L326.594 997.564 M326.594 970.195 L326.594 935.134 L302.248 970.195 L326.594 970.195 Z" fill="#000000" fill-rule="nonzero" fill-opacity="1" /><path clip-path="url(#clip860)" d="M144.712 692.792 Q144.712 679.001 147.524 670.621 Q150.388 662.187 155.957 657.625 Q161.58 653.064 170.067 653.064 Q176.326 653.064 181.046 655.61 Q185.767 658.103 188.844 662.876 Q191.92 667.597 193.67 674.44 Q195.421 681.229 195.421 692.792 Q195.421 706.477 192.61 714.911 Q189.798 723.292 184.176 727.906 Q178.606 732.468 170.067 732.468 Q158.822 732.468 152.403 724.405 Q144.712 714.699 144.712 692.792 M154.525 692.792 Q154.525 711.941 158.981 718.306 Q163.489 724.618 170.067 724.618 Q176.644 724.618 181.099 718.253 Q185.608 711.888 185.608 692.792 Q185.608 673.591 181.099 667.279 Q176.644 660.967 169.96 660.967 Q163.383 660.967 159.458 666.536 Q154.525 673.644 154.525 692.792 Z" fill="#000000" fill-rule="nonzero" fill-opacity="1" /><path clip-path="url(#clip860)" d="M210.485 731.142 L210.485 720.268 L221.358 720.268 L221.358 731.142 L210.485 731.142 Z" fill="#000000" fill-rule="nonzero" fill-opacity="1" /><path clip-path="url(#clip860)" d="M235.945 663.566 L235.945 654.39 L286.282 654.39 L286.282 661.816 Q278.856 669.719 271.536 682.82 Q264.27 695.922 260.291 709.766 Q257.427 719.526 256.632 731.142 L246.819 731.142 Q246.978 721.966 250.426 708.97 Q253.873 695.975 260.291 683.934 Q266.763 671.841 274.029 663.566 L235.945 663.566 Z" fill="#000000" fill-rule="nonzero" fill-opacity="1" /><path clip-path="url(#clip860)" d="M345.265 672.424 L335.771 673.167 Q334.498 667.544 332.164 664.998 Q328.292 660.914 322.616 660.914 Q318.055 660.914 314.607 663.46 Q310.098 666.749 307.499 673.061 Q304.9 679.373 304.794 691.042 Q308.242 685.791 313.228 683.245 Q318.214 680.699 323.677 680.699 Q333.225 680.699 339.908 687.753 Q346.644 694.755 346.644 705.894 Q346.644 713.214 343.462 719.526 Q340.332 725.785 334.816 729.126 Q329.3 732.468 322.298 732.468 Q310.363 732.468 302.831 723.716 Q295.299 714.911 295.299 694.755 Q295.299 672.212 303.627 661.975 Q310.894 653.064 323.2 653.064 Q332.376 653.064 338.211 658.209 Q344.098 663.354 345.265 672.424 M306.279 705.947 Q306.279 710.88 308.348 715.388 Q310.469 719.897 314.235 722.284 Q318.001 724.618 322.139 724.618 Q328.186 724.618 332.535 719.738 Q336.885 714.858 336.885 706.477 Q336.885 698.415 332.588 693.8 Q328.292 689.132 321.767 689.132 Q315.296 689.132 310.788 693.8 Q306.279 698.415 306.279 705.947 Z" fill="#000000" fill-rule="nonzero" fill-opacity="1" /><path clip-path="url(#clip860)" d="M144.5 426.37 Q144.5 412.579 147.311 404.198 Q150.176 395.764 155.745 391.203 Q161.368 386.641 169.854 386.641 Q176.113 386.641 180.834 389.187 Q185.555 391.68 188.631 396.454 Q191.708 401.175 193.458 408.017 Q195.209 414.806 195.209 426.37 Q195.209 440.055 192.397 448.488 Q189.586 456.869 183.964 461.484 Q178.394 466.045 169.854 466.045 Q158.609 466.045 152.191 457.983 Q144.5 448.276 144.5 426.37 M154.313 426.37 Q154.313 445.518 158.769 451.883 Q163.277 458.195 169.854 458.195 Q176.432 458.195 180.887 451.83 Q185.396 445.465 185.396 426.37 Q185.396 407.168 180.887 400.856 Q176.432 394.544 169.748 394.544 Q163.171 394.544 159.246 400.114 Q154.313 407.221 154.313 426.37 Z" fill="#000000" fill-rule="nonzero" fill-opacity="1" /><path clip-path="url(#clip860)" d="M210.273 464.719 L210.273 453.846 L221.146 453.846 L221.146 464.719 L210.273 464.719 Z" fill="#000000" fill-rule="nonzero" fill-opacity="1" /><path clip-path="url(#clip860)" d="M235.733 397.143 L235.733 387.967 L286.07 387.967 L286.07 395.393 Q278.644 403.296 271.324 416.398 Q264.057 429.499 260.079 443.343 Q257.215 453.103 256.419 464.719 L246.607 464.719 Q246.766 455.543 250.213 442.548 Q253.661 429.552 260.079 417.512 Q266.55 405.418 273.817 397.143 L235.733 397.143 Z" fill="#000000" fill-rule="nonzero" fill-opacity="1" /><path clip-path="url(#clip860)" d="M310.204 422.551 Q304.264 420.376 301.399 416.345 Q298.535 412.314 298.535 406.691 Q298.535 398.204 304.635 392.423 Q310.735 386.641 320.866 386.641 Q331.05 386.641 337.256 392.582 Q343.462 398.469 343.462 406.956 Q343.462 412.367 340.598 416.398 Q337.786 420.376 332.005 422.551 Q339.165 424.885 342.878 430.083 Q346.644 435.281 346.644 442.495 Q346.644 452.467 339.59 459.256 Q332.535 466.045 321.025 466.045 Q309.515 466.045 302.46 459.256 Q295.405 452.413 295.405 442.229 Q295.405 434.644 299.225 429.552 Q303.097 424.407 310.204 422.551 M308.295 406.373 Q308.295 411.889 311.849 415.39 Q315.402 418.891 321.078 418.891 Q326.594 418.891 330.095 415.443 Q333.649 411.942 333.649 406.903 Q333.649 401.652 329.989 398.098 Q326.382 394.491 320.972 394.491 Q315.509 394.491 311.902 397.992 Q308.295 401.493 308.295 406.373 M305.218 442.282 Q305.218 446.367 307.128 450.186 Q309.09 454.005 312.909 456.126 Q316.728 458.195 321.131 458.195 Q327.973 458.195 332.429 453.793 Q336.885 449.39 336.885 442.601 Q336.885 435.705 332.27 431.197 Q327.708 426.688 320.813 426.688 Q314.076 426.688 309.621 431.144 Q305.218 435.599 305.218 442.282 Z" fill="#000000" fill-rule="nonzero" fill-opacity="1" /><path clip-path="url(#clip860)" d="M144.924 159.947 Q144.924 146.156 147.736 137.775 Q150.6 129.342 156.169 124.78 Q161.792 120.218 170.279 120.218 Q176.538 120.218 181.258 122.764 Q185.979 125.257 189.056 130.031 Q192.132 134.752 193.883 141.595 Q195.633 148.384 195.633 159.947 Q195.633 173.632 192.822 182.066 Q190.01 190.446 184.388 195.061 Q178.819 199.623 170.279 199.623 Q159.034 199.623 152.616 191.56 Q144.924 181.854 144.924 159.947 M154.737 159.947 Q154.737 179.095 159.193 185.46 Q163.701 191.773 170.279 191.773 Q176.856 191.773 181.312 185.407 Q185.82 179.042 185.82 159.947 Q185.82 140.746 181.312 134.434 Q176.856 128.122 170.173 128.122 Q163.595 128.122 159.67 133.691 Q154.737 140.799 154.737 159.947 Z" fill="#000000" fill-rule="nonzero" fill-opacity="1" /><path clip-path="url(#clip860)" d="M210.697 198.297 L210.697 187.423 L221.571 187.423 L221.571 198.297 L210.697 198.297 Z" fill="#000000" fill-rule="nonzero" fill-opacity="1" /><path clip-path="url(#clip860)" d="M250.213 156.128 Q244.273 153.953 241.408 149.922 Q238.544 145.891 238.544 140.268 Q238.544 131.782 244.644 126 Q250.744 120.218 260.875 120.218 Q271.059 120.218 277.265 126.159 Q283.471 132.047 283.471 140.534 Q283.471 145.944 280.607 149.975 Q277.795 153.953 272.014 156.128 Q279.175 158.462 282.887 163.66 Q286.653 168.858 286.653 176.072 Q286.653 186.044 279.599 192.833 Q272.544 199.623 261.034 199.623 Q249.524 199.623 242.469 192.833 Q235.415 185.991 235.415 175.807 Q235.415 168.222 239.234 163.13 Q243.106 157.985 250.213 156.128 M248.304 139.95 Q248.304 145.467 251.858 148.967 Q255.412 152.468 261.087 152.468 Q266.604 152.468 270.104 149.02 Q273.658 145.52 273.658 140.481 Q273.658 135.229 269.998 131.676 Q266.391 128.069 260.981 128.069 Q255.518 128.069 251.911 131.57 Q248.304 135.07 248.304 139.95 M245.227 175.86 Q245.227 179.944 247.137 183.763 Q249.1 187.582 252.919 189.704 Q256.738 191.773 261.14 191.773 Q267.983 191.773 272.438 187.37 Q276.894 182.968 276.894 176.178 Q276.894 169.283 272.279 164.774 Q267.717 160.265 260.822 160.265 Q254.086 160.265 249.63 164.721 Q245.227 169.177 245.227 175.86 Z" fill="#000000" fill-rule="nonzero" fill-opacity="1" /><path clip-path="url(#clip860)" d="M295.936 159.947 Q295.936 146.156 298.747 137.775 Q301.611 129.342 307.181 124.78 Q312.803 120.218 321.29 120.218 Q327.549 120.218 332.27 122.764 Q336.991 125.257 340.067 130.031 Q343.144 134.752 344.894 141.595 Q346.644 148.384 346.644 159.947 Q346.644 173.632 343.833 182.066 Q341.022 190.446 335.399 195.061 Q329.83 199.623 321.29 199.623 Q310.045 199.623 303.627 191.56 Q295.936 181.854 295.936 159.947 M305.749 159.947 Q305.749 179.095 310.204 185.46 Q314.713 191.773 321.29 191.773 Q327.867 191.773 332.323 185.407 Q336.832 179.042 336.832 159.947 Q336.832 140.746 332.323 134.434 Q327.867 128.122 321.184 128.122 Q314.607 128.122 310.682 133.691 Q305.749 140.799 305.749 159.947 Z" fill="#000000" fill-rule="nonzero" fill-opacity="1" /><path clip-path="url(#clip860)" d="M85.1722 789.513 L7.41216 789.513 L7.41216 779.965 L85.1722 779.965 L85.1722 789.513 Z" fill="#000000" fill-rule="nonzero" fill-opacity="1" /><path clip-path="url(#clip860)" d="M57.0067 768.72 Q41.3592 768.72 33.8272 760.021 Q27.5682 752.754 27.5682 742.305 Q27.5682 730.689 35.2063 723.316 Q42.7914 715.943 56.2111 715.943 Q67.0847 715.943 73.3437 719.232 Q79.5497 722.467 82.9974 728.726 Q86.4452 734.932 86.4452 742.305 Q86.4452 754.133 78.8601 761.453 Q71.2751 768.72 57.0067 768.72 M57.0067 758.907 Q67.8273 758.907 73.2376 754.186 Q78.5949 749.466 78.5949 742.305 Q78.5949 735.197 73.1846 730.476 Q67.7743 725.756 56.6884 725.756 Q46.2391 725.756 40.8818 730.53 Q35.4715 735.25 35.4715 742.305 Q35.4715 749.466 40.8288 754.186 Q46.1861 758.907 57.0067 758.907 Z" fill="#000000" fill-rule="nonzero" fill-opacity="1" /><path clip-path="url(#clip860)" d="M68.3578 708.57 L66.8726 699.128 Q72.5481 698.333 75.5715 694.726 Q78.5949 691.066 78.5949 684.542 Q78.5949 677.965 75.9428 674.782 Q73.2376 671.6 69.6308 671.6 Q66.3952 671.6 64.5387 674.411 Q63.2657 676.373 61.3031 684.171 Q58.651 694.673 56.7415 698.757 Q54.7789 702.788 51.3842 704.91 Q47.9365 706.979 43.7992 706.979 Q40.0332 706.979 36.8506 705.281 Q33.615 703.531 31.4934 700.561 Q29.849 698.333 28.7352 694.514 Q27.5682 690.642 27.5682 686.239 Q27.5682 679.609 29.4778 674.623 Q31.3873 669.584 34.6759 667.197 Q37.9115 664.81 43.3748 663.908 L44.6478 673.244 Q40.2984 673.88 37.8584 676.957 Q35.4185 679.98 35.4185 685.55 Q35.4185 692.127 37.5932 694.938 Q39.768 697.749 42.6853 697.749 Q44.5418 697.749 46.0269 696.582 Q47.5652 695.416 48.573 692.923 Q49.1034 691.49 51.0129 684.489 Q53.7181 674.358 55.4685 670.38 Q57.1658 666.348 60.4544 664.068 Q63.7431 661.787 68.623 661.787 Q73.3968 661.787 77.6402 664.598 Q81.8305 667.356 84.1644 672.607 Q86.4452 677.859 86.4452 684.489 Q86.4452 695.469 81.8835 701.25 Q77.3219 706.979 68.3578 708.57 Z" fill="#000000" fill-rule="nonzero" fill-opacity="1" /><path clip-path="url(#clip860)" d="M68.3578 654.255 L66.8726 644.813 Q72.5481 644.018 75.5715 640.411 Q78.5949 636.751 78.5949 630.227 Q78.5949 623.649 75.9428 620.467 Q73.2376 617.284 69.6308 617.284 Q66.3952 617.284 64.5387 620.095 Q63.2657 622.058 61.3031 629.855 Q58.651 640.358 56.7415 644.442 Q54.7789 648.473 51.3842 650.595 Q47.9365 652.663 43.7992 652.663 Q40.0332 652.663 36.8506 650.966 Q33.615 649.216 31.4934 646.245 Q29.849 644.018 28.7352 640.198 Q27.5682 636.326 27.5682 631.924 Q27.5682 625.294 29.4778 620.308 Q31.3873 615.269 34.6759 612.882 Q37.9115 610.495 43.3748 609.593 L44.6478 618.929 Q40.2984 619.565 37.8584 622.641 Q35.4185 625.665 35.4185 631.234 Q35.4185 637.812 37.5932 640.623 Q39.768 643.434 42.6853 643.434 Q44.5418 643.434 46.0269 642.267 Q47.5652 641.1 48.573 638.607 Q49.1034 637.175 51.0129 630.173 Q53.7181 620.042 55.4685 616.064 Q57.1658 612.033 60.4544 609.752 Q63.7431 607.471 68.623 607.471 Q73.3968 607.471 77.6402 610.283 Q81.8305 613.041 84.1644 618.292 Q86.4452 623.543 86.4452 630.173 Q86.4452 641.153 81.8835 646.935 Q77.3219 652.663 68.3578 654.255 Z" fill="#000000" fill-rule="nonzero" fill-opacity="1" /><polyline clip-path="url(#clip862)" style="stroke:#009af9; stroke-linecap:round; stroke-linejoin:round; stroke-width:8; stroke-opacity:1; fill:none" points="438.402,84.1072 644.913,622.873 851.424,914.485 1057.93,1088.04 1264.44,1188.31 1470.96,1245.52 1677.47,1278.03 1883.98,1296.48 2090.49,1306.95 2297,1312.88 "/>
<circle clip-path="url(#clip862)" cx="438.402" cy="84.1072" r="14.4" fill="#009af9" fill-rule="evenodd" fill-opacity="1" stroke="#000000" stroke-opacity="1" stroke-width="3.2"/>
<circle clip-path="url(#clip862)" cx="644.913" cy="622.873" r="14.4" fill="#009af9" fill-rule="evenodd" fill-opacity="1" stroke="#000000" stroke-opacity="1" stroke-width="3.2"/>
<circle clip-path="url(#clip862)" cx="851.424" cy="914.485" r="14.4" fill="#009af9" fill-rule="evenodd" fill-opacity="1" stroke="#000000" stroke-opacity="1" stroke-width="3.2"/>
<circle clip-path="url(#clip862)" cx="1057.93" cy="1088.04" r="14.4" fill="#009af9" fill-rule="evenodd" fill-opacity="1" stroke="#000000" stroke-opacity="1" stroke-width="3.2"/>
<circle clip-path="url(#clip862)" cx="1264.44" cy="1188.31" r="14.4" fill="#009af9" fill-rule="evenodd" fill-opacity="1" stroke="#000000" stroke-opacity="1" stroke-width="3.2"/>
<circle clip-path="url(#clip862)" cx="1470.96" cy="1245.52" r="14.4" fill="#009af9" fill-rule="evenodd" fill-opacity="1" stroke="#000000" stroke-opacity="1" stroke-width="3.2"/>
<circle clip-path="url(#clip862)" cx="1677.47" cy="1278.03" r="14.4" fill="#009af9" fill-rule="evenodd" fill-opacity="1" stroke="#000000" stroke-opacity="1" stroke-width="3.2"/>
<circle clip-path="url(#clip862)" cx="1883.98" cy="1296.48" r="14.4" fill="#009af9" fill-rule="evenodd" fill-opacity="1" stroke="#000000" stroke-opacity="1" stroke-width="3.2"/>
<circle clip-path="url(#clip862)" cx="2090.49" cy="1306.95" r="14.4" fill="#009af9" fill-rule="evenodd" fill-opacity="1" stroke="#000000" stroke-opacity="1" stroke-width="3.2"/>
<circle clip-path="url(#clip862)" cx="2297" cy="1312.88" r="14.4" fill="#009af9" fill-rule="evenodd" fill-opacity="1" stroke="#000000" stroke-opacity="1" stroke-width="3.2"/>
<polyline clip-path="url(#clip862)" style="stroke:#e26f46; stroke-linecap:round; stroke-linejoin:round; stroke-width:8; stroke-opacity:1; fill:none" points="438.402,318.353 644.913,963.267 851.424,1039.96 1057.93,1015.99 1264.44,956.898 1470.96,889.713 1677.47,826.378 1883.98,771.479 2090.49,726.047 2297,689.511 "/>
<circle clip-path="url(#clip862)" cx="438.402" cy="318.353" r="14.4" fill="#e26f46" fill-rule="evenodd" fill-opacity="1" stroke="#000000" stroke-opacity="1" stroke-width="3.2"/>
<circle clip-path="url(#clip862)" cx="644.913" cy="963.267" r="14.4" fill="#e26f46" fill-rule="evenodd" fill-opacity="1" stroke="#000000" stroke-opacity="1" stroke-width="3.2"/>
<circle clip-path="url(#clip862)" cx="851.424" cy="1039.96" r="14.4" fill="#e26f46" fill-rule="evenodd" fill-opacity="1" stroke="#000000" stroke-opacity="1" stroke-width="3.2"/>
<circle clip-path="url(#clip862)" cx="1057.93" cy="1015.99" r="14.4" fill="#e26f46" fill-rule="evenodd" fill-opacity="1" stroke="#000000" stroke-opacity="1" stroke-width="3.2"/>
<circle clip-path="url(#clip862)" cx="1264.44" cy="956.898" r="14.4" fill="#e26f46" fill-rule="evenodd" fill-opacity="1" stroke="#000000" stroke-opacity="1" stroke-width="3.2"/>
<circle clip-path="url(#clip862)" cx="1470.96" cy="889.713" r="14.4" fill="#e26f46" fill-rule="evenodd" fill-opacity="1" stroke="#000000" stroke-opacity="1" stroke-width="3.2"/>
<circle clip-path="url(#clip862)" cx="1677.47" cy="826.378" r="14.4" fill="#e26f46" fill-rule="evenodd" fill-opacity="1" stroke="#000000" stroke-opacity="1" stroke-width="3.2"/>
<circle clip-path="url(#clip862)" cx="1883.98" cy="771.479" r="14.4" fill="#e26f46" fill-rule="evenodd" fill-opacity="1" stroke="#000000" stroke-opacity="1" stroke-width="3.2"/>
<circle clip-path="url(#clip862)" cx="2090.49" cy="726.047" r="14.4" fill="#e26f46" fill-rule="evenodd" fill-opacity="1" stroke="#000000" stroke-opacity="1" stroke-width="3.2"/>
<circle clip-path="url(#clip862)" cx="2297" cy="689.511" r="14.4" fill="#e26f46" fill-rule="evenodd" fill-opacity="1" stroke="#000000" stroke-opacity="1" stroke-width="3.2"/>
<path clip-path="url(#clip860)" d="M1631.26 440.581 L2287.09 440.581 L2287.09 90.6606 L1631.26 90.6606  Z" fill="#ffffff" fill-rule="evenodd" fill-opacity="1"/>
<polyline clip-path="url(#clip860)" style="stroke:#000000; stroke-linecap:round; stroke-linejoin:round; stroke-width:4; stroke-opacity:1; fill:none" points="1631.26,440.581 2287.09,440.581 2287.09,90.6606 1631.26,90.6606 1631.26,440.581 "/>
<polyline clip-path="url(#clip860)" style="stroke:#009af9; stroke-linecap:round; stroke-linejoin:round; stroke-width:18; stroke-opacity:1; fill:none" points="1653.15,207.301 1784.49,207.301 "/>
<circle clip-path="url(#clip860)" cx="1718.82" cy="207.301" r="8.10746" fill="#009af9" fill-rule="evenodd" fill-opacity="1" stroke="#000000" stroke-opacity="1" stroke-width="7.20663"/>
<path clip-path="url(#clip860)" d="M1832.48 237.641 L1833.86 246.075 Q1829.82 246.923 1826.64 246.923 Q1821.44 246.923 1818.58 245.279 Q1815.72 243.635 1814.55 240.982 Q1813.38 238.277 1813.38 229.684 L1813.38 197.276 L1806.38 197.276 L1806.38 189.85 L1813.38 189.85 L1813.38 175.9 L1822.88 170.171 L1822.88 189.85 L1832.48 189.85 L1832.48 197.276 L1822.88 197.276 L1822.88 230.215 Q1822.88 234.299 1823.35 235.466 Q1823.88 236.633 1825 237.323 Q1826.16 238.012 1828.29 238.012 Q1829.88 238.012 1832.48 237.641 Z" fill="#000000" fill-rule="nonzero" fill-opacity="1" /><path clip-path="url(#clip860)" d="M1841.71 246.181 L1841.71 189.85 L1850.3 189.85 L1850.3 198.39 Q1853.59 192.396 1856.35 190.486 Q1859.16 188.577 1862.5 188.577 Q1867.33 188.577 1872.31 191.653 L1869.02 200.511 Q1865.52 198.443 1862.02 198.443 Q1858.89 198.443 1856.4 200.352 Q1853.91 202.209 1852.84 205.55 Q1851.25 210.642 1851.25 216.689 L1851.25 246.181 L1841.71 246.181 Z" fill="#000000" fill-rule="nonzero" fill-opacity="1" /><path clip-path="url(#clip860)" d="M1914.74 239.232 Q1909.44 243.741 1904.51 245.597 Q1899.63 247.454 1894.01 247.454 Q1884.72 247.454 1879.74 242.945 Q1874.75 238.383 1874.75 231.329 Q1874.75 227.191 1876.61 223.797 Q1878.52 220.349 1881.54 218.28 Q1884.62 216.212 1888.44 215.151 Q1891.25 214.408 1896.92 213.719 Q1908.49 212.34 1913.95 210.43 Q1914 208.468 1914 207.937 Q1914 202.102 1911.3 199.716 Q1907.64 196.48 1900.42 196.48 Q1893.69 196.48 1890.45 198.867 Q1887.27 201.201 1885.73 207.195 L1876.4 205.922 Q1877.67 199.928 1880.59 196.268 Q1883.5 192.555 1889.02 190.592 Q1894.54 188.577 1901.8 188.577 Q1909.02 188.577 1913.52 190.274 Q1918.03 191.971 1920.16 194.57 Q1922.28 197.116 1923.13 201.042 Q1923.6 203.482 1923.6 209.847 L1923.6 222.577 Q1923.6 235.89 1924.19 239.444 Q1924.82 242.945 1926.63 246.181 L1916.65 246.181 Q1915.17 243.21 1914.74 239.232 M1913.95 217.909 Q1908.75 220.031 1898.35 221.516 Q1892.47 222.365 1890.03 223.425 Q1887.59 224.486 1886.26 226.555 Q1884.94 228.571 1884.94 231.064 Q1884.94 234.883 1887.8 237.429 Q1890.72 239.975 1896.29 239.975 Q1901.8 239.975 1906.1 237.588 Q1910.4 235.148 1912.41 230.957 Q1913.95 227.722 1913.95 221.41 L1913.95 217.909 Z" fill="#000000" fill-rule="nonzero" fill-opacity="1" /><path clip-path="url(#clip860)" d="M1938.45 179.4 L1938.45 168.421 L1948 168.421 L1948 179.4 L1938.45 179.4 M1938.45 246.181 L1938.45 189.85 L1948 189.85 L1948 246.181 L1938.45 246.181 Z" fill="#000000" fill-rule="nonzero" fill-opacity="1" /><path clip-path="url(#clip860)" d="M1962.54 246.181 L1962.54 189.85 L1971.13 189.85 L1971.13 197.859 Q1977.33 188.577 1989.06 188.577 Q1994.15 188.577 1998.39 190.433 Q2002.69 192.237 2004.81 195.207 Q2006.93 198.177 2007.78 202.262 Q2008.31 204.914 2008.31 211.544 L2008.31 246.181 L1998.76 246.181 L1998.76 211.915 Q1998.76 206.081 1997.65 203.216 Q1996.54 200.299 1993.67 198.602 Q1990.86 196.851 1987.04 196.851 Q1980.94 196.851 1976.49 200.723 Q1972.08 204.595 1972.08 215.416 L1972.08 246.181 L1962.54 246.181 Z" fill="#000000" fill-rule="nonzero" fill-opacity="1" /><path clip-path="url(#clip860)" d="M2014.15 267.769 L2014.15 260.873 L2077.43 260.873 L2077.43 267.769 L2014.15 267.769 Z" fill="#000000" fill-rule="nonzero" fill-opacity="1" /><path clip-path="url(#clip860)" d="M2083.15 246.181 L2083.15 168.421 L2092.7 168.421 L2092.7 246.181 L2083.15 246.181 Z" fill="#000000" fill-rule="nonzero" fill-opacity="1" /><path clip-path="url(#clip860)" d="M2103.95 218.015 Q2103.95 202.368 2112.65 194.836 Q2119.91 188.577 2130.36 188.577 Q2141.98 188.577 2149.35 196.215 Q2156.72 203.8 2156.72 217.22 Q2156.72 228.093 2153.44 234.352 Q2150.2 240.558 2143.94 244.006 Q2137.73 247.454 2130.36 247.454 Q2118.53 247.454 2111.21 239.869 Q2103.95 232.284 2103.95 218.015 M2113.76 218.015 Q2113.76 228.836 2118.48 234.246 Q2123.2 239.603 2130.36 239.603 Q2137.47 239.603 2142.19 234.193 Q2146.91 228.783 2146.91 217.697 Q2146.91 207.248 2142.14 201.89 Q2137.42 196.48 2130.36 196.48 Q2123.2 196.48 2118.48 201.837 Q2113.76 207.195 2113.76 218.015 Z" fill="#000000" fill-rule="nonzero" fill-opacity="1" /><path clip-path="url(#clip860)" d="M2164.1 229.366 L2173.54 227.881 Q2174.33 233.557 2177.94 236.58 Q2181.6 239.603 2188.12 239.603 Q2194.7 239.603 2197.88 236.951 Q2201.07 234.246 2201.07 230.639 Q2201.07 227.404 2198.26 225.547 Q2196.29 224.274 2188.5 222.312 Q2177.99 219.659 2173.91 217.75 Q2169.88 215.787 2167.76 212.393 Q2165.69 208.945 2165.69 204.808 Q2165.69 201.042 2167.39 197.859 Q2169.14 194.624 2172.11 192.502 Q2174.33 190.858 2178.15 189.744 Q2182.03 188.577 2186.43 188.577 Q2193.06 188.577 2198.04 190.486 Q2203.08 192.396 2205.47 195.684 Q2207.86 198.92 2208.76 204.383 L2199.42 205.656 Q2198.79 201.307 2195.71 198.867 Q2192.69 196.427 2187.12 196.427 Q2180.54 196.427 2177.73 198.602 Q2174.92 200.776 2174.92 203.694 Q2174.92 205.55 2176.08 207.035 Q2177.25 208.574 2179.74 209.581 Q2181.18 210.112 2188.18 212.021 Q2198.31 214.727 2202.29 216.477 Q2206.32 218.174 2208.6 221.463 Q2210.88 224.752 2210.88 229.631 Q2210.88 234.405 2208.07 238.649 Q2205.31 242.839 2200.06 245.173 Q2194.81 247.454 2188.18 247.454 Q2177.2 247.454 2171.42 242.892 Q2165.69 238.33 2164.1 229.366 Z" fill="#000000" fill-rule="nonzero" fill-opacity="1" /><path clip-path="url(#clip860)" d="M2218.41 229.366 L2227.85 227.881 Q2228.65 233.557 2232.26 236.58 Q2235.92 239.603 2242.44 239.603 Q2249.02 239.603 2252.2 236.951 Q2255.38 234.246 2255.38 230.639 Q2255.38 227.404 2252.57 225.547 Q2250.61 224.274 2242.81 222.312 Q2232.31 219.659 2228.22 217.75 Q2224.19 215.787 2222.07 212.393 Q2220 208.945 2220 204.808 Q2220 201.042 2221.7 197.859 Q2223.45 194.624 2226.42 192.502 Q2228.65 190.858 2232.47 189.744 Q2236.34 188.577 2240.74 188.577 Q2247.37 188.577 2252.36 190.486 Q2257.4 192.396 2259.79 195.684 Q2262.17 198.92 2263.07 204.383 L2253.74 205.656 Q2253.1 201.307 2250.03 198.867 Q2247 196.427 2241.43 196.427 Q2234.86 196.427 2232.04 198.602 Q2229.23 200.776 2229.23 203.694 Q2229.23 205.55 2230.4 207.035 Q2231.57 208.574 2234.06 209.581 Q2235.49 210.112 2242.49 212.021 Q2252.62 214.727 2256.6 216.477 Q2260.63 218.174 2262.91 221.463 Q2265.2 224.752 2265.2 229.631 Q2265.2 234.405 2262.38 238.649 Q2259.63 242.839 2254.37 245.173 Q2249.12 247.454 2242.49 247.454 Q2231.51 247.454 2225.73 242.892 Q2220 238.33 2218.41 229.366 Z" fill="#000000" fill-rule="nonzero" fill-opacity="1" /><polyline clip-path="url(#clip860)" style="stroke:#e26f46; stroke-linecap:round; stroke-linejoin:round; stroke-width:18; stroke-opacity:1; fill:none" points="1653.15,323.941 1784.49,323.941 "/>
<circle clip-path="url(#clip860)" cx="1718.82" cy="323.941" r="8.10746" fill="#e26f46" fill-rule="evenodd" fill-opacity="1" stroke="#000000" stroke-opacity="1" stroke-width="7.20663"/>
<path clip-path="url(#clip860)" d="M1827.81 362.821 L1806.38 306.49 L1816.46 306.49 L1828.55 340.225 Q1830.51 345.688 1832.16 351.576 Q1833.43 347.12 1835.71 340.861 L1848.23 306.49 L1858.04 306.49 L1836.72 362.821 L1827.81 362.821 Z" fill="#000000" fill-rule="nonzero" fill-opacity="1" /><path clip-path="url(#clip860)" d="M1903.23 355.872 Q1897.93 360.381 1893 362.237 Q1888.12 364.094 1882.5 364.094 Q1873.21 364.094 1868.23 359.585 Q1863.24 355.023 1863.24 347.969 Q1863.24 343.831 1865.1 340.437 Q1867.01 336.989 1870.03 334.92 Q1873.11 332.852 1876.93 331.791 Q1879.74 331.048 1885.41 330.359 Q1896.98 328.98 1902.44 327.07 Q1902.49 325.108 1902.49 324.577 Q1902.49 318.742 1899.79 316.356 Q1896.13 313.12 1888.91 313.12 Q1882.18 313.12 1878.94 315.507 Q1875.76 317.841 1874.22 323.835 L1864.89 322.562 Q1866.16 316.568 1869.08 312.908 Q1871.99 309.195 1877.51 307.232 Q1883.03 305.217 1890.29 305.217 Q1897.51 305.217 1902.01 306.914 Q1906.52 308.611 1908.65 311.21 Q1910.77 313.756 1911.62 317.682 Q1912.09 320.122 1912.09 326.487 L1912.09 339.217 Q1912.09 352.53 1912.68 356.084 Q1913.31 359.585 1915.12 362.821 L1905.14 362.821 Q1903.66 359.85 1903.23 355.872 M1902.44 334.549 Q1897.24 336.671 1886.84 338.156 Q1880.96 339.005 1878.52 340.065 Q1876.08 341.126 1874.75 343.195 Q1873.43 345.211 1873.43 347.704 Q1873.43 351.523 1876.29 354.069 Q1879.21 356.615 1884.78 356.615 Q1890.29 356.615 1894.59 354.228 Q1898.89 351.788 1900.9 347.597 Q1902.44 344.362 1902.44 338.05 L1902.44 334.549 Z" fill="#000000" fill-rule="nonzero" fill-opacity="1" /><path clip-path="url(#clip860)" d="M1926.68 362.821 L1926.68 285.061 L1936.23 285.061 L1936.23 362.821 L1926.68 362.821 Z" fill="#000000" fill-rule="nonzero" fill-opacity="1" /><path clip-path="url(#clip860)" d="M1942.22 384.409 L1942.22 377.513 L2005.5 377.513 L2005.5 384.409 L1942.22 384.409 Z" fill="#000000" fill-rule="nonzero" fill-opacity="1" /><path clip-path="url(#clip860)" d="M2011.23 362.821 L2011.23 285.061 L2020.78 285.061 L2020.78 362.821 L2011.23 362.821 Z" fill="#000000" fill-rule="nonzero" fill-opacity="1" /><path clip-path="url(#clip860)" d="M2032.02 334.655 Q2032.02 319.008 2040.72 311.476 Q2047.99 305.217 2058.44 305.217 Q2070.05 305.217 2077.43 312.855 Q2084.8 320.44 2084.8 333.86 Q2084.8 344.733 2081.51 350.992 Q2078.27 357.198 2072.02 360.646 Q2065.81 364.094 2058.44 364.094 Q2046.61 364.094 2039.29 356.509 Q2032.02 348.924 2032.02 334.655 M2041.83 334.655 Q2041.83 345.476 2046.56 350.886 Q2051.28 356.243 2058.44 356.243 Q2065.54 356.243 2070.26 350.833 Q2074.99 345.423 2074.99 334.337 Q2074.99 323.888 2070.21 318.53 Q2065.49 313.12 2058.44 313.12 Q2051.28 313.12 2046.56 318.477 Q2041.83 323.835 2041.83 334.655 Z" fill="#000000" fill-rule="nonzero" fill-opacity="1" /><path clip-path="url(#clip860)" d="M2092.17 346.006 L2101.61 344.521 Q2102.41 350.197 2106.02 353.22 Q2109.68 356.243 2116.2 356.243 Q2122.78 356.243 2125.96 353.591 Q2129.14 350.886 2129.14 347.279 Q2129.14 344.044 2126.33 342.187 Q2124.37 340.914 2116.57 338.952 Q2106.07 336.299 2101.98 334.39 Q2097.95 332.427 2095.83 329.033 Q2093.76 325.585 2093.76 321.448 Q2093.76 317.682 2095.46 314.499 Q2097.21 311.264 2100.18 309.142 Q2102.41 307.498 2106.23 306.384 Q2110.1 305.217 2114.5 305.217 Q2121.13 305.217 2126.12 307.126 Q2131.16 309.036 2133.54 312.324 Q2135.93 315.56 2136.83 321.023 L2127.5 322.296 Q2126.86 317.947 2123.78 315.507 Q2120.76 313.067 2115.19 313.067 Q2108.61 313.067 2105.8 315.242 Q2102.99 317.416 2102.99 320.334 Q2102.99 322.19 2104.16 323.675 Q2105.33 325.214 2107.82 326.221 Q2109.25 326.752 2116.25 328.661 Q2126.38 331.367 2130.36 333.117 Q2134.39 334.814 2136.67 338.103 Q2138.95 341.392 2138.95 346.271 Q2138.95 351.045 2136.14 355.289 Q2133.39 359.479 2128.13 361.813 Q2122.88 364.094 2116.25 364.094 Q2105.27 364.094 2099.49 359.532 Q2093.76 354.97 2092.17 346.006 Z" fill="#000000" fill-rule="nonzero" fill-opacity="1" /><path clip-path="url(#clip860)" d="M2146.49 346.006 L2155.93 344.521 Q2156.72 350.197 2160.33 353.22 Q2163.99 356.243 2170.51 356.243 Q2177.09 356.243 2180.27 353.591 Q2183.46 350.886 2183.46 347.279 Q2183.46 344.044 2180.65 342.187 Q2178.68 340.914 2170.89 338.952 Q2160.38 336.299 2156.3 334.39 Q2152.27 332.427 2150.15 329.033 Q2148.08 325.585 2148.08 321.448 Q2148.08 317.682 2149.78 314.499 Q2151.53 311.264 2154.5 309.142 Q2156.72 307.498 2160.54 306.384 Q2164.42 305.217 2168.82 305.217 Q2175.45 305.217 2180.43 307.126 Q2185.47 309.036 2187.86 312.324 Q2190.25 315.56 2191.15 321.023 L2181.81 322.296 Q2181.18 317.947 2178.1 315.507 Q2175.08 313.067 2169.51 313.067 Q2162.93 313.067 2160.12 315.242 Q2157.31 317.416 2157.31 320.334 Q2157.31 322.19 2158.47 323.675 Q2159.64 325.214 2162.13 326.221 Q2163.57 326.752 2170.57 328.661 Q2180.7 331.367 2184.68 333.117 Q2188.71 334.814 2190.99 338.103 Q2193.27 341.392 2193.27 346.271 Q2193.27 351.045 2190.46 355.289 Q2187.7 359.479 2182.45 361.813 Q2177.2 364.094 2170.57 364.094 Q2159.59 364.094 2153.81 359.532 Q2148.08 354.97 2146.49 346.006 Z" fill="#000000" fill-rule="nonzero" fill-opacity="1" /></svg>
