<?xml version="1.0" encoding="utf-8"?>
<svg xmlns="http://www.w3.org/2000/svg" xmlns:xlink="http://www.w3.org/1999/xlink" width="600" height="450" viewBox="0 0 2400 1800">
<defs>
  <clipPath id="clip980">
    <rect x="0" y="0" width="2400" height="1800"/>
  </clipPath>
</defs>
<path clip-path="url(#clip980)" d="M0 1800 L2400 1800 L2400 0 L0 0  Z" fill="#ffffff" fill-rule="evenodd" fill-opacity="1"/>
<defs>
  <clipPath id="clip981">
    <rect x="480" y="0" width="1681" height="1681"/>
  </clipPath>
</defs>
<path clip-path="url(#clip980)" d="M370.281 1506.52 L2352.76 1506.52 L2352.76 47.2441 L370.281 47.2441  Z" fill="#ffffff" fill-rule="evenodd" fill-opacity="1"/>
<defs>
  <clipPath id="clip982">
    <rect x="370" y="47" width="1983" height="1460"/>
  </clipPath>
</defs>
<polyline clip-path="url(#clip982)" style="stroke:#000000; stroke-linecap:round; stroke-linejoin:round; stroke-width:2; stroke-opacity:0.1; fill:none" points="402.715,1506.52 402.715,47.2441 "/>
<polyline clip-path="url(#clip982)" style="stroke:#000000; stroke-linecap:round; stroke-linejoin:round; stroke-width:2; stroke-opacity:0.1; fill:none" points="876.198,1506.52 876.198,47.2441 "/>
<polyline clip-path="url(#clip982)" style="stroke:#000000; stroke-linecap:round; stroke-linejoin:round; stroke-width:2; stroke-opacity:0.1; fill:none" points="1349.68,1506.52 1349.68,47.2441 "/>
<polyline clip-path="url(#clip982)" style="stroke:#000000; stroke-linecap:round; stroke-linejoin:round; stroke-width:2; stroke-opacity:0.1; fill:none" points="1823.16,1506.52 1823.16,47.2441 "/>
<polyline clip-path="url(#clip982)" style="stroke:#000000; stroke-linecap:round; stroke-linejoin:round; stroke-width:2; stroke-opacity:0.1; fill:none" points="2296.65,1506.52 2296.65,47.2441 "/>
<polyline clip-path="url(#clip982)" style="stroke:#000000; stroke-linecap:round; stroke-linejoin:round; stroke-width:2; stroke-opacity:0.1; fill:none" points="370.281,1320.01 2352.76,1320.01 "/>
<polyline clip-path="url(#clip982)" style="stroke:#000000; stroke-linecap:round; stroke-linejoin:round; stroke-width:2; stroke-opacity:0.1; fill:none" points="370.281,1046.32 2352.76,1046.32 "/>
<polyline clip-path="url(#clip982)" style="stroke:#000000; stroke-linecap:round; stroke-linejoin:round; stroke-width:2; stroke-opacity:0.1; fill:none" points="370.281,772.624 2352.76,772.624 "/>
<polyline clip-path="url(#clip982)" style="stroke:#000000; stroke-linecap:round; stroke-linejoin:round; stroke-width:2; stroke-opacity:0.1; fill:none" points="370.281,498.931 2352.76,498.931 "/>
<polyline clip-path="url(#clip982)" style="stroke:#000000; stroke-linecap:round; stroke-linejoin:round; stroke-width:2; stroke-opacity:0.1; fill:none" points="370.281,225.238 2352.76,225.238 "/>
<polyline clip-path="url(#clip980)" style="stroke:#000000; stroke-linecap:round; stroke-linejoin:round; stroke-width:4; stroke-opacity:1; fill:none" points="370.281,1506.52 2352.76,1506.52 "/>
<polyline clip-path="url(#clip980)" style="stroke:#000000; stroke-linecap:round; stroke-linejoin:round; stroke-width:2; stroke-opacity:0.5; fill:none" points="370.281,47.2441 2352.76,47.2441 "/>
<polyline clip-path="url(#clip980)" style="stroke:#000000; stroke-linecap:round; stroke-linejoin:round; stroke-width:4; stroke-opacity:1; fill:none" points="402.715,1506.52 402.715,1487.63 "/>
<polyline clip-path="url(#clip980)" style="stroke:#000000; stroke-linecap:round; stroke-linejoin:round; stroke-width:4; stroke-opacity:1; fill:none" points="876.198,1506.52 876.198,1487.63 "/>
<polyline clip-path="url(#clip980)" style="stroke:#000000; stroke-linecap:round; stroke-linejoin:round; stroke-width:4; stroke-opacity:1; fill:none" points="1349.68,1506.52 1349.68,1487.63 "/>
<polyline clip-path="url(#clip980)" style="stroke:#000000; stroke-linecap:round; stroke-linejoin:round; stroke-width:4; stroke-opacity:1; fill:none" points="1823.16,1506.52 1823.16,1487.63 "/>
<polyline clip-path="url(#clip980)" style="stroke:#000000; stroke-linecap:round; stroke-linejoin:round; stroke-width:4; stroke-opacity:1; fill:none" points="2296.65,1506.52 2296.65,1487.63 "/>
<path clip-path="url(#clip980)" d="M380.178 1578.04 Q380.178 1565.78 382.676 1558.33 Q385.222 1550.83 390.173 1546.78 Q395.171 1542.72 402.715 1542.72 Q408.278 1542.72 412.474 1544.98 Q416.671 1547.2 419.405 1551.44 Q422.14 1555.64 423.696 1561.72 Q425.252 1567.76 425.252 1578.04 Q425.252 1590.2 422.753 1597.7 Q420.254 1605.15 415.256 1609.25 Q410.306 1613.3 402.715 1613.3 Q392.719 1613.3 387.014 1606.14 Q380.178 1597.51 380.178 1578.04 M388.9 1578.04 Q388.9 1595.06 392.861 1600.71 Q396.868 1606.32 402.715 1606.32 Q408.561 1606.32 412.522 1600.67 Q416.529 1595.01 416.529 1578.04 Q416.529 1560.97 412.522 1555.36 Q408.561 1549.75 402.62 1549.75 Q396.774 1549.75 393.285 1554.7 Q388.9 1561.01 388.9 1578.04 Z" fill="#000000" fill-rule="nonzero" fill-opacity="1" /><path clip-path="url(#clip980)" d="M872.002 1603.97 L872.002 1612.12 L826.315 1612.12 Q826.22 1609.06 827.305 1606.23 Q829.049 1601.56 832.868 1597.04 Q836.735 1592.51 843.995 1586.57 Q855.264 1577.33 859.224 1571.95 Q863.185 1566.53 863.185 1561.72 Q863.185 1556.68 859.555 1553.24 Q855.971 1549.75 850.172 1549.75 Q844.043 1549.75 840.365 1553.42 Q836.687 1557.1 836.64 1563.61 L827.918 1562.71 Q828.814 1552.95 834.66 1547.86 Q840.506 1542.72 850.361 1542.72 Q860.309 1542.72 866.108 1548.24 Q871.908 1553.75 871.908 1561.91 Q871.908 1566.06 870.21 1570.07 Q868.513 1574.07 864.552 1578.51 Q860.639 1582.94 851.492 1590.67 Q843.854 1597.08 841.685 1599.39 Q839.516 1601.66 838.102 1603.97 L872.002 1603.97 Z" fill="#000000" fill-rule="nonzero" fill-opacity="1" /><path clip-path="url(#clip980)" d="M881.101 1578.04 Q881.101 1565.78 883.6 1558.33 Q886.146 1550.83 891.097 1546.78 Q896.095 1542.72 903.639 1542.72 Q909.202 1542.72 913.398 1544.98 Q917.595 1547.2 920.329 1551.44 Q923.064 1555.64 924.62 1561.72 Q926.176 1567.76 926.176 1578.04 Q926.176 1590.2 923.677 1597.7 Q921.178 1605.15 916.18 1609.25 Q911.23 1613.3 903.639 1613.3 Q893.643 1613.3 887.938 1606.14 Q881.101 1597.51 881.101 1578.04 M889.824 1578.04 Q889.824 1595.06 893.784 1600.71 Q897.792 1606.32 903.639 1606.32 Q909.485 1606.32 913.446 1600.67 Q917.453 1595.01 917.453 1578.04 Q917.453 1560.97 913.446 1555.36 Q909.485 1549.75 903.544 1549.75 Q897.698 1549.75 894.209 1554.7 Q889.824 1561.01 889.824 1578.04 Z" fill="#000000" fill-rule="nonzero" fill-opacity="1" /><path clip-path="url(#clip980)" d="M1328.89 1612.12 L1328.89 1595.57 L1298.9 1595.57 L1298.9 1587.8 L1330.44 1543 L1337.38 1543 L1337.38 1587.8 L1346.71 1587.8 L1346.71 1595.57 L1337.38 1595.57 L1337.38 1612.12 L1328.89 1612.12 M1328.89 1587.8 L1328.89 1556.63 L1307.25 1587.8 L1328.89 1587.8 Z" fill="#000000" fill-rule="nonzero" fill-opacity="1" /><path clip-path="url(#clip980)" d="M1355.39 1578.04 Q1355.39 1565.78 1357.89 1558.33 Q1360.43 1550.83 1365.38 1546.78 Q1370.38 1542.72 1377.92 1542.72 Q1383.49 1542.72 1387.68 1544.98 Q1391.88 1547.2 1394.61 1551.44 Q1397.35 1555.64 1398.9 1561.72 Q1400.46 1567.76 1400.46 1578.04 Q1400.46 1590.2 1397.96 1597.7 Q1395.46 1605.15 1390.47 1609.25 Q1385.51 1613.3 1377.92 1613.3 Q1367.93 1613.3 1362.22 1606.14 Q1355.39 1597.51 1355.39 1578.04 M1364.11 1578.04 Q1364.11 1595.06 1368.07 1600.71 Q1372.08 1606.32 1377.92 1606.32 Q1383.77 1606.32 1387.73 1600.67 Q1391.74 1595.01 1391.74 1578.04 Q1391.74 1560.97 1387.73 1555.36 Q1383.77 1549.75 1377.83 1549.75 Q1371.98 1549.75 1368.49 1554.7 Q1364.11 1561.01 1364.11 1578.04 Z" fill="#000000" fill-rule="nonzero" fill-opacity="1" /><path clip-path="url(#clip980)" d="M1818 1559.93 L1809.56 1560.59 Q1808.43 1555.59 1806.36 1553.33 Q1802.91 1549.7 1797.87 1549.7 Q1793.81 1549.7 1790.75 1551.96 Q1786.74 1554.89 1784.43 1560.5 Q1782.12 1566.11 1782.03 1576.48 Q1785.09 1571.81 1789.52 1569.55 Q1793.96 1567.29 1798.81 1567.29 Q1807.3 1567.29 1813.24 1573.56 Q1819.23 1579.78 1819.23 1589.68 Q1819.23 1596.19 1816.4 1601.8 Q1813.62 1607.36 1808.71 1610.33 Q1803.81 1613.3 1797.59 1613.3 Q1786.98 1613.3 1780.28 1605.52 Q1773.59 1597.7 1773.59 1579.78 Q1773.59 1559.74 1780.99 1550.64 Q1787.45 1542.72 1798.39 1542.72 Q1806.54 1542.72 1811.73 1547.29 Q1816.96 1551.87 1818 1559.93 M1783.35 1589.73 Q1783.35 1594.11 1785.19 1598.12 Q1787.07 1602.13 1790.42 1604.25 Q1793.77 1606.32 1797.45 1606.32 Q1802.82 1606.32 1806.69 1601.99 Q1810.55 1597.65 1810.55 1590.2 Q1810.55 1583.03 1806.73 1578.93 Q1802.91 1574.78 1797.12 1574.78 Q1791.36 1574.78 1787.36 1578.93 Q1783.35 1583.03 1783.35 1589.73 Z" fill="#000000" fill-rule="nonzero" fill-opacity="1" /><path clip-path="url(#clip980)" d="M1827.67 1578.04 Q1827.67 1565.78 1830.17 1558.33 Q1832.71 1550.83 1837.66 1546.78 Q1842.66 1542.72 1850.2 1542.72 Q1855.77 1542.72 1859.96 1544.98 Q1864.16 1547.2 1866.9 1551.44 Q1869.63 1555.64 1871.19 1561.72 Q1872.74 1567.76 1872.74 1578.04 Q1872.74 1590.2 1870.24 1597.7 Q1867.74 1605.15 1862.75 1609.25 Q1857.8 1613.3 1850.2 1613.3 Q1840.21 1613.3 1834.5 1606.14 Q1827.67 1597.51 1827.67 1578.04 M1836.39 1578.04 Q1836.39 1595.06 1840.35 1600.71 Q1844.36 1606.32 1850.2 1606.32 Q1856.05 1606.32 1860.01 1600.67 Q1864.02 1595.01 1864.02 1578.04 Q1864.02 1560.97 1860.01 1555.36 Q1856.05 1549.75 1850.11 1549.75 Q1844.26 1549.75 1840.77 1554.7 Q1836.39 1561.01 1836.39 1578.04 Z" fill="#000000" fill-rule="nonzero" fill-opacity="1" /><path clip-path="url(#clip980)" d="M2260.37 1574.64 Q2255.09 1572.71 2252.54 1569.12 Q2249.99 1565.54 2249.99 1560.54 Q2249.99 1553 2255.42 1547.86 Q2260.84 1542.72 2269.84 1542.72 Q2278.9 1542.72 2284.41 1548 Q2289.93 1553.24 2289.93 1560.78 Q2289.93 1565.59 2287.38 1569.17 Q2284.88 1572.71 2279.75 1574.64 Q2286.11 1576.72 2289.41 1581.34 Q2292.76 1585.96 2292.76 1592.37 Q2292.76 1601.23 2286.49 1607.27 Q2280.22 1613.3 2269.99 1613.3 Q2259.75 1613.3 2253.48 1607.27 Q2247.21 1601.19 2247.21 1592.13 Q2247.21 1585.39 2250.61 1580.86 Q2254.05 1576.29 2260.37 1574.64 M2258.67 1560.26 Q2258.67 1565.16 2261.83 1568.28 Q2264.99 1571.39 2270.03 1571.39 Q2274.94 1571.39 2278.05 1568.32 Q2281.21 1565.21 2281.21 1560.73 Q2281.21 1556.06 2277.95 1552.91 Q2274.75 1549.7 2269.94 1549.7 Q2265.08 1549.7 2261.88 1552.81 Q2258.67 1555.92 2258.67 1560.26 M2255.94 1592.18 Q2255.94 1595.81 2257.63 1599.21 Q2259.38 1602.6 2262.77 1604.49 Q2266.17 1606.32 2270.08 1606.32 Q2276.16 1606.32 2280.12 1602.41 Q2284.08 1598.5 2284.08 1592.46 Q2284.08 1586.33 2279.98 1582.33 Q2275.93 1578.32 2269.8 1578.32 Q2263.81 1578.32 2259.85 1582.28 Q2255.94 1586.24 2255.94 1592.18 Z" fill="#000000" fill-rule="nonzero" fill-opacity="1" /><path clip-path="url(#clip980)" d="M2301.01 1578.04 Q2301.01 1565.78 2303.51 1558.33 Q2306.05 1550.83 2311 1546.78 Q2316 1542.72 2323.55 1542.72 Q2329.11 1542.72 2333.31 1544.98 Q2337.5 1547.2 2340.24 1551.44 Q2342.97 1555.64 2344.53 1561.72 Q2346.08 1567.76 2346.08 1578.04 Q2346.08 1590.2 2343.58 1597.7 Q2341.09 1605.15 2336.09 1609.25 Q2331.14 1613.3 2323.55 1613.3 Q2313.55 1613.3 2307.85 1606.14 Q2301.01 1597.51 2301.01 1578.04 M2309.73 1578.04 Q2309.73 1595.06 2313.69 1600.71 Q2317.7 1606.32 2323.55 1606.32 Q2329.39 1606.32 2333.35 1600.67 Q2337.36 1595.01 2337.36 1578.04 Q2337.36 1560.97 2333.35 1555.36 Q2329.39 1549.75 2323.45 1549.75 Q2317.61 1549.75 2314.12 1554.7 Q2309.73 1561.01 2309.73 1578.04 Z" fill="#000000" fill-rule="nonzero" fill-opacity="1" /><path clip-path="url(#clip980)" d="M1260.95 1721.38 L1270.82 1722.6 Q1268.48 1731.24 1262.17 1736.01 Q1255.86 1740.79 1246.05 1740.79 Q1233.69 1740.79 1226.42 1733.2 Q1219.21 1725.57 1219.21 1711.83 Q1219.21 1697.61 1226.53 1689.76 Q1233.85 1681.91 1245.51 1681.91 Q1256.81 1681.91 1263.97 1689.6 Q1271.13 1697.29 1271.13 1711.24 Q1271.13 1712.09 1271.08 1713.79 L1229.07 1713.79 Q1229.6 1723.07 1234.32 1728.01 Q1239.04 1732.94 1246.1 1732.94 Q1251.35 1732.94 1255.06 1730.18 Q1258.78 1727.42 1260.95 1721.38 M1229.6 1705.94 L1261.06 1705.94 Q1260.42 1698.83 1257.45 1695.28 Q1252.89 1689.76 1245.62 1689.76 Q1239.04 1689.76 1234.54 1694.16 Q1230.08 1698.57 1229.6 1705.94 Z" fill="#000000" fill-rule="nonzero" fill-opacity="1" /><path clip-path="url(#clip980)" d="M1282.8 1761.1 L1282.8 1683.18 L1291.5 1683.18 L1291.5 1690.5 Q1294.58 1686.21 1298.45 1684.09 Q1302.32 1681.91 1307.84 1681.91 Q1315.05 1681.91 1320.57 1685.62 Q1326.09 1689.34 1328.9 1696.13 Q1331.71 1702.86 1331.71 1710.93 Q1331.71 1719.57 1328.58 1726.52 Q1325.5 1733.42 1319.56 1737.13 Q1313.67 1740.79 1307.15 1740.79 Q1302.38 1740.79 1298.56 1738.77 Q1294.79 1736.76 1292.35 1733.68 L1292.35 1761.1 L1282.8 1761.1 M1291.45 1711.67 Q1291.45 1722.54 1295.85 1727.74 Q1300.25 1732.94 1306.51 1732.94 Q1312.88 1732.94 1317.39 1727.58 Q1321.95 1722.17 1321.95 1710.87 Q1321.95 1700.11 1317.49 1694.75 Q1313.09 1689.39 1306.94 1689.39 Q1300.84 1689.39 1296.12 1695.12 Q1291.45 1700.79 1291.45 1711.67 Z" fill="#000000" fill-rule="nonzero" fill-opacity="1" /><path clip-path="url(#clip980)" d="M1339.67 1711.35 Q1339.67 1695.7 1348.36 1688.17 Q1355.63 1681.91 1366.08 1681.91 Q1377.7 1681.91 1385.07 1689.55 Q1392.44 1697.13 1392.44 1710.55 Q1392.44 1721.43 1389.15 1727.69 Q1385.92 1733.89 1379.66 1737.34 Q1373.45 1740.79 1366.08 1740.79 Q1354.25 1740.79 1346.93 1733.2 Q1339.67 1725.62 1339.67 1711.35 M1349.48 1711.35 Q1349.48 1722.17 1354.2 1727.58 Q1358.92 1732.94 1366.08 1732.94 Q1373.19 1732.94 1377.91 1727.53 Q1382.63 1722.12 1382.63 1711.03 Q1382.63 1700.58 1377.86 1695.23 Q1373.13 1689.82 1366.08 1689.82 Q1358.92 1689.82 1354.2 1695.17 Q1349.48 1700.53 1349.48 1711.35 Z" fill="#000000" fill-rule="nonzero" fill-opacity="1" /><path clip-path="url(#clip980)" d="M1440.39 1718.88 L1449.78 1720.1 Q1448.24 1729.81 1441.88 1735.33 Q1435.57 1740.79 1426.34 1740.79 Q1414.77 1740.79 1407.72 1733.26 Q1400.72 1725.67 1400.72 1711.56 Q1400.72 1702.44 1403.74 1695.6 Q1406.76 1688.75 1412.92 1685.36 Q1419.12 1681.91 1426.39 1681.91 Q1435.57 1681.91 1441.4 1686.58 Q1447.23 1691.19 1448.88 1699.73 L1439.6 1701.17 Q1438.27 1695.49 1434.88 1692.63 Q1431.53 1689.76 1426.76 1689.76 Q1419.55 1689.76 1415.04 1694.96 Q1410.53 1700.11 1410.53 1711.3 Q1410.53 1722.65 1414.88 1727.79 Q1419.23 1732.94 1426.23 1732.94 Q1431.85 1732.94 1435.62 1729.49 Q1439.38 1726.04 1440.39 1718.88 Z" fill="#000000" fill-rule="nonzero" fill-opacity="1" /><path clip-path="url(#clip980)" d="M1457.95 1739.52 L1457.95 1661.76 L1467.5 1661.76 L1467.5 1689.66 Q1474.18 1681.91 1484.36 1681.91 Q1490.62 1681.91 1495.24 1684.4 Q1499.85 1686.84 1501.82 1691.19 Q1503.83 1695.54 1503.83 1703.82 L1503.83 1739.52 L1494.28 1739.52 L1494.28 1703.82 Q1494.28 1696.66 1491.15 1693.42 Q1488.08 1690.13 1482.4 1690.13 Q1478.16 1690.13 1474.39 1692.36 Q1470.68 1694.54 1469.09 1698.3 Q1467.5 1702.07 1467.5 1708.7 L1467.5 1739.52 L1457.95 1739.52 Z" fill="#000000" fill-rule="nonzero" fill-opacity="1" /><polyline clip-path="url(#clip980)" style="stroke:#000000; stroke-linecap:round; stroke-linejoin:round; stroke-width:4; stroke-opacity:1; fill:none" points="370.281,1506.52 370.281,47.2441 "/>
<polyline clip-path="url(#clip980)" style="stroke:#000000; stroke-linecap:round; stroke-linejoin:round; stroke-width:2; stroke-opacity:0.5; fill:none" points="2352.76,1506.52 2352.76,47.2441 "/>
<polyline clip-path="url(#clip980)" style="stroke:#000000; stroke-linecap:round; stroke-linejoin:round; stroke-width:4; stroke-opacity:1; fill:none" points="370.281,1320.01 389.179,1320.01 "/>
<polyline clip-path="url(#clip980)" style="stroke:#000000; stroke-linecap:round; stroke-linejoin:round; stroke-width:4; stroke-opacity:1; fill:none" points="370.281,1046.32 389.179,1046.32 "/>
<polyline clip-path="url(#clip980)" style="stroke:#000000; stroke-linecap:round; stroke-linejoin:round; stroke-width:4; stroke-opacity:1; fill:none" points="370.281,772.624 389.179,772.624 "/>
<polyline clip-path="url(#clip980)" style="stroke:#000000; stroke-linecap:round; stroke-linejoin:round; stroke-width:4; stroke-opacity:1; fill:none" points="370.281,498.931 389.179,498.931 "/>
<polyline clip-path="url(#clip980)" style="stroke:#000000; stroke-linecap:round; stroke-linejoin:round; stroke-width:4; stroke-opacity:1; fill:none" points="370.281,225.238 389.179,225.238 "/>
<path clip-path="url(#clip980)" d="M154.597 1320.48 Q154.597 1308.22 157.096 1300.77 Q159.642 1293.28 164.593 1289.22 Q169.591 1285.17 177.134 1285.17 Q182.698 1285.17 186.894 1287.43 Q191.09 1289.65 193.825 1293.89 Q196.56 1298.09 198.116 1304.17 Q199.672 1310.2 199.672 1320.48 Q199.672 1332.65 197.173 1340.14 Q194.674 1347.59 189.676 1351.69 Q184.725 1355.75 177.134 1355.75 Q167.139 1355.75 161.434 1348.58 Q154.597 1339.95 154.597 1320.48 M163.32 1320.48 Q163.32 1337.5 167.28 1343.16 Q171.288 1348.77 177.134 1348.77 Q182.981 1348.77 186.941 1343.11 Q190.949 1337.46 190.949 1320.48 Q190.949 1303.41 186.941 1297.8 Q182.981 1292.19 177.04 1292.19 Q171.194 1292.19 167.705 1297.14 Q163.32 1303.46 163.32 1320.48 Z" fill="#000000" fill-rule="nonzero" fill-opacity="1" /><path clip-path="url(#clip980)" d="M213.062 1354.57 L213.062 1344.9 L222.727 1344.9 L222.727 1354.57 L213.062 1354.57 Z" fill="#000000" fill-rule="nonzero" fill-opacity="1" /><path clip-path="url(#clip980)" d="M235.127 1320.48 Q235.127 1308.22 237.626 1300.77 Q240.172 1293.28 245.123 1289.22 Q250.121 1285.17 257.664 1285.17 Q263.228 1285.17 267.424 1287.43 Q271.62 1289.65 274.355 1293.89 Q277.09 1298.09 278.646 1304.17 Q280.201 1310.2 280.201 1320.48 Q280.201 1332.65 277.703 1340.14 Q275.204 1347.59 270.206 1351.69 Q265.255 1355.75 257.664 1355.75 Q247.669 1355.75 241.964 1348.58 Q235.127 1339.95 235.127 1320.48 M243.85 1320.48 Q243.85 1337.5 247.81 1343.16 Q251.818 1348.77 257.664 1348.77 Q263.511 1348.77 267.471 1343.11 Q271.479 1337.46 271.479 1320.48 Q271.479 1303.41 267.471 1297.8 Q263.511 1292.19 257.57 1292.19 Q251.724 1292.19 248.235 1297.14 Q243.85 1303.46 243.85 1320.48 Z" fill="#000000" fill-rule="nonzero" fill-opacity="1" /><path clip-path="url(#clip980)" d="M290.103 1338.59 L298.259 1337.83 Q299.297 1343.58 302.22 1346.18 Q305.143 1348.77 309.717 1348.77 Q313.63 1348.77 316.553 1346.98 Q319.524 1345.19 321.409 1342.22 Q323.295 1339.2 324.568 1334.11 Q325.841 1329.02 325.841 1323.73 Q325.841 1323.17 325.794 1322.04 Q323.248 1326.09 318.816 1328.64 Q314.431 1331.14 309.292 1331.14 Q300.711 1331.14 294.77 1324.91 Q288.83 1318.69 288.83 1308.51 Q288.83 1297.99 295.006 1291.58 Q301.23 1285.17 310.565 1285.17 Q317.308 1285.17 322.871 1288.8 Q328.482 1292.43 331.358 1299.17 Q334.281 1305.87 334.281 1318.6 Q334.281 1331.84 331.405 1339.72 Q328.529 1347.54 322.824 1351.65 Q317.166 1355.75 309.528 1355.75 Q301.418 1355.75 296.279 1351.27 Q291.14 1346.74 290.103 1338.59 M324.851 1308.08 Q324.851 1300.77 320.938 1296.48 Q317.072 1292.19 311.603 1292.19 Q305.945 1292.19 301.748 1296.81 Q297.552 1301.43 297.552 1308.79 Q297.552 1315.39 301.513 1319.54 Q305.52 1323.64 311.367 1323.64 Q317.26 1323.64 321.032 1319.54 Q324.851 1315.39 324.851 1308.08 Z" fill="#000000" fill-rule="nonzero" fill-opacity="1" /><path clip-path="url(#clip980)" d="M155.446 1046.79 Q155.446 1034.53 157.945 1027.08 Q160.491 1019.58 165.442 1015.53 Q170.439 1011.47 177.983 1011.47 Q183.547 1011.47 187.743 1013.74 Q191.939 1015.95 194.674 1020.2 Q197.408 1024.39 198.964 1030.48 Q200.52 1036.51 200.52 1046.79 Q200.52 1058.95 198.021 1066.45 Q195.522 1073.9 190.525 1078 Q185.574 1082.06 177.983 1082.06 Q167.988 1082.06 162.283 1074.89 Q155.446 1066.26 155.446 1046.79 M164.169 1046.79 Q164.169 1063.81 168.129 1069.47 Q172.137 1075.08 177.983 1075.08 Q183.83 1075.08 187.79 1069.42 Q191.798 1063.76 191.798 1046.79 Q191.798 1029.72 187.79 1024.11 Q183.83 1018.5 177.889 1018.5 Q172.042 1018.5 168.553 1023.45 Q164.169 1029.77 164.169 1046.79 Z" fill="#000000" fill-rule="nonzero" fill-opacity="1" /><path clip-path="url(#clip980)" d="M213.91 1080.88 L213.91 1071.21 L223.576 1071.21 L223.576 1080.88 L213.91 1080.88 Z" fill="#000000" fill-rule="nonzero" fill-opacity="1" /><path clip-path="url(#clip980)" d="M267.943 1080.88 L259.456 1080.88 L259.456 1026.8 Q256.391 1029.72 251.394 1032.64 Q246.443 1035.57 242.483 1037.03 L242.483 1028.82 Q249.602 1025.48 254.93 1020.72 Q260.258 1015.95 262.474 1011.47 L267.943 1011.47 L267.943 1080.88 Z" fill="#000000" fill-rule="nonzero" fill-opacity="1" /><path clip-path="url(#clip980)" d="M334.281 1072.72 L334.281 1080.88 L288.594 1080.88 Q288.5 1077.81 289.584 1074.98 Q291.329 1070.32 295.148 1065.79 Q299.014 1061.26 306.275 1055.32 Q317.543 1046.08 321.504 1040.71 Q325.464 1035.28 325.464 1030.48 Q325.464 1025.43 321.834 1021.99 Q318.25 1018.5 312.451 1018.5 Q306.322 1018.5 302.644 1022.18 Q298.967 1025.85 298.92 1032.36 L290.197 1031.47 Q291.093 1021.71 296.939 1016.61 Q302.786 1011.47 312.64 1011.47 Q322.588 1011.47 328.387 1016.99 Q334.187 1022.51 334.187 1030.66 Q334.187 1034.81 332.489 1038.82 Q330.792 1042.83 326.832 1047.26 Q322.918 1051.69 313.771 1059.42 Q306.133 1065.84 303.964 1068.15 Q301.796 1070.41 300.381 1072.72 L334.281 1072.72 Z" fill="#000000" fill-rule="nonzero" fill-opacity="1" /><path clip-path="url(#clip980)" d="M154.22 773.096 Q154.22 760.837 156.719 753.387 Q159.265 745.891 164.216 741.836 Q169.213 737.781 176.757 737.781 Q182.321 737.781 186.517 740.044 Q190.713 742.26 193.448 746.504 Q196.183 750.7 197.738 756.782 Q199.294 762.817 199.294 773.096 Q199.294 785.26 196.795 792.757 Q194.297 800.206 189.299 804.308 Q184.348 808.363 176.757 808.363 Q166.762 808.363 161.057 801.196 Q154.22 792.568 154.22 773.096 M162.943 773.096 Q162.943 790.116 166.903 795.774 Q170.911 801.385 176.757 801.385 Q182.604 801.385 186.564 795.727 Q190.572 790.069 190.572 773.096 Q190.572 756.028 186.564 750.417 Q182.604 744.806 176.663 744.806 Q170.817 744.806 167.327 749.757 Q162.943 756.075 162.943 773.096 Z" fill="#000000" fill-rule="nonzero" fill-opacity="1" /><path clip-path="url(#clip980)" d="M212.685 807.184 L212.685 797.519 L222.35 797.519 L222.35 807.184 L212.685 807.184 Z" fill="#000000" fill-rule="nonzero" fill-opacity="1" /><path clip-path="url(#clip980)" d="M266.717 807.184 L258.23 807.184 L258.23 753.105 Q255.166 756.028 250.168 758.951 Q245.217 761.874 241.257 763.336 L241.257 755.132 Q248.376 751.784 253.704 747.022 Q259.032 742.26 261.248 737.781 L266.717 737.781 L266.717 807.184 Z" fill="#000000" fill-rule="nonzero" fill-opacity="1" /><path clip-path="url(#clip980)" d="M288.453 789.079 L297.364 788.325 Q298.354 794.831 301.937 798.132 Q305.567 801.385 310.66 801.385 Q316.789 801.385 321.032 796.764 Q325.276 792.144 325.276 784.506 Q325.276 777.245 321.174 773.048 Q317.119 768.852 310.518 768.852 Q306.416 768.852 303.116 770.738 Q299.815 772.577 297.929 775.547 L289.961 774.51 L296.656 739.007 L331.028 739.007 L331.028 747.117 L303.446 747.117 L299.721 765.693 Q305.945 761.356 312.781 761.356 Q321.834 761.356 328.057 767.626 Q334.281 773.897 334.281 783.751 Q334.281 793.134 328.812 799.97 Q322.164 808.363 310.66 808.363 Q301.23 808.363 295.242 803.082 Q289.301 797.802 288.453 789.079 Z" fill="#000000" fill-rule="nonzero" fill-opacity="1" /><path clip-path="url(#clip980)" d="M154.597 499.403 Q154.597 487.144 157.096 479.695 Q159.642 472.198 164.593 468.143 Q169.591 464.088 177.134 464.088 Q182.698 464.088 186.894 466.351 Q191.09 468.567 193.825 472.811 Q196.56 477.007 198.116 483.089 Q199.672 489.124 199.672 499.403 Q199.672 511.567 197.173 519.064 Q194.674 526.513 189.676 530.615 Q184.725 534.67 177.134 534.67 Q167.139 534.67 161.434 527.503 Q154.597 518.875 154.597 499.403 M163.32 499.403 Q163.32 516.423 167.28 522.081 Q171.288 527.692 177.134 527.692 Q182.981 527.692 186.941 522.034 Q190.949 516.376 190.949 499.403 Q190.949 482.335 186.941 476.724 Q182.981 471.113 177.04 471.113 Q171.194 471.113 167.705 476.064 Q163.32 482.382 163.32 499.403 Z" fill="#000000" fill-rule="nonzero" fill-opacity="1" /><path clip-path="url(#clip980)" d="M213.062 533.491 L213.062 523.826 L222.727 523.826 L222.727 533.491 L213.062 533.491 Z" fill="#000000" fill-rule="nonzero" fill-opacity="1" /><path clip-path="url(#clip980)" d="M267.094 533.491 L258.607 533.491 L258.607 479.412 Q255.543 482.335 250.545 485.258 Q245.594 488.181 241.634 489.643 L241.634 481.439 Q248.753 478.091 254.081 473.329 Q259.409 468.567 261.625 464.088 L267.094 464.088 L267.094 533.491 Z" fill="#000000" fill-rule="nonzero" fill-opacity="1" /><path clip-path="url(#clip980)" d="M301.89 496.008 Q296.609 494.075 294.063 490.492 Q291.517 486.908 291.517 481.91 Q291.517 474.367 296.939 469.227 Q302.361 464.088 311.367 464.088 Q320.419 464.088 325.936 469.369 Q331.452 474.602 331.452 482.146 Q331.452 486.955 328.906 490.539 Q326.407 494.075 321.268 496.008 Q327.633 498.082 330.933 502.703 Q334.281 507.324 334.281 513.736 Q334.281 522.6 328.01 528.635 Q321.74 534.67 311.508 534.67 Q301.277 534.67 295.006 528.635 Q288.735 522.553 288.735 513.5 Q288.735 506.758 292.13 502.232 Q295.572 497.658 301.89 496.008 M300.193 481.628 Q300.193 486.531 303.352 489.643 Q306.51 492.755 311.555 492.755 Q316.459 492.755 319.571 489.69 Q322.73 486.578 322.73 482.099 Q322.73 477.431 319.476 474.272 Q316.27 471.066 311.461 471.066 Q306.605 471.066 303.399 474.178 Q300.193 477.29 300.193 481.628 M297.458 513.547 Q297.458 517.178 299.155 520.572 Q300.9 523.967 304.294 525.853 Q307.689 527.692 311.603 527.692 Q317.685 527.692 321.645 523.779 Q325.606 519.865 325.606 513.83 Q325.606 507.701 321.504 503.693 Q317.449 499.686 311.32 499.686 Q305.332 499.686 301.371 503.646 Q297.458 507.607 297.458 513.547 Z" fill="#000000" fill-rule="nonzero" fill-opacity="1" /><path clip-path="url(#clip980)" d="M168.082 225.71 Q168.082 213.451 170.581 206.002 Q173.127 198.505 178.077 194.45 Q183.075 190.395 190.619 190.395 Q196.183 190.395 200.379 192.658 Q204.575 194.874 207.31 199.118 Q210.044 203.314 211.6 209.396 Q213.156 215.431 213.156 225.71 Q213.156 237.874 210.657 245.371 Q208.158 252.82 203.161 256.922 Q198.21 260.977 190.619 260.977 Q180.623 260.977 174.918 253.81 Q168.082 245.182 168.082 225.71 M176.804 225.71 Q176.804 242.73 180.765 248.388 Q184.773 253.999 190.619 253.999 Q196.465 253.999 200.426 248.341 Q204.434 242.683 204.434 225.71 Q204.434 208.642 200.426 203.031 Q196.465 197.42 190.525 197.42 Q184.678 197.42 181.189 202.371 Q176.804 208.689 176.804 225.71 Z" fill="#000000" fill-rule="nonzero" fill-opacity="1" /><path clip-path="url(#clip980)" d="M226.546 259.798 L226.546 250.133 L236.212 250.133 L236.212 259.798 L226.546 259.798 Z" fill="#000000" fill-rule="nonzero" fill-opacity="1" /><path clip-path="url(#clip980)" d="M293.215 251.641 L293.215 259.798 L247.527 259.798 Q247.433 256.734 248.518 253.905 Q250.262 249.237 254.081 244.711 Q257.947 240.184 265.208 234.244 Q276.477 225.002 280.437 219.628 Q284.398 214.205 284.398 209.396 Q284.398 204.351 280.767 200.909 Q277.184 197.42 271.385 197.42 Q265.255 197.42 261.578 201.098 Q257.9 204.776 257.853 211.282 L249.13 210.386 Q250.026 200.627 255.873 195.535 Q261.719 190.395 271.573 190.395 Q281.522 190.395 287.321 195.912 Q293.12 201.428 293.12 209.585 Q293.12 213.734 291.423 217.742 Q289.726 221.749 285.765 226.181 Q281.852 230.613 272.705 238.346 Q265.067 244.758 262.898 247.068 Q260.729 249.331 259.315 251.641 L293.215 251.641 Z" fill="#000000" fill-rule="nonzero" fill-opacity="1" /><path clip-path="url(#clip980)" d="M334.281 259.798 L325.794 259.798 L325.794 205.719 Q322.73 208.642 317.732 211.565 Q312.781 214.488 308.821 215.95 L308.821 207.746 Q315.94 204.398 321.268 199.636 Q326.596 194.874 328.812 190.395 L334.281 190.395 L334.281 259.798 Z" fill="#000000" fill-rule="nonzero" fill-opacity="1" /><path clip-path="url(#clip980)" d="M94.8922 867.905 L17.1322 867.905 L17.1322 858.357 L94.8922 858.357 L94.8922 867.905 Z" fill="#000000" fill-rule="nonzero" fill-opacity="1" /><path clip-path="url(#clip980)" d="M66.7267 847.112 Q51.0792 847.112 43.5472 838.413 Q37.2882 831.146 37.2882 820.697 Q37.2882 809.081 44.9263 801.708 Q52.5114 794.335 65.9311 794.335 Q76.8047 794.335 83.0637 797.623 Q89.2697 800.859 92.7174 807.118 Q96.1652 813.324 96.1652 820.697 Q96.1652 832.525 88.5801 839.845 Q80.9951 847.112 66.7267 847.112 M66.7267 837.299 Q77.5473 837.299 82.9576 832.578 Q88.3149 827.858 88.3149 820.697 Q88.3149 813.589 82.9046 808.868 Q77.4943 804.148 66.4084 804.148 Q55.9591 804.148 50.6018 808.921 Q45.1915 813.642 45.1915 820.697 Q45.1915 827.858 50.5488 832.578 Q55.9061 837.299 66.7267 837.299 Z" fill="#000000" fill-rule="nonzero" fill-opacity="1" /><path clip-path="url(#clip980)" d="M78.0778 786.962 L76.5926 777.52 Q82.2681 776.725 85.2915 773.118 Q88.3149 769.458 88.3149 762.934 Q88.3149 756.357 85.6628 753.174 Q82.9576 749.991 79.3508 749.991 Q76.1152 749.991 74.2587 752.803 Q72.9857 754.765 71.0231 762.563 Q68.371 773.065 66.4615 777.149 Q64.4989 781.18 61.1042 783.302 Q57.6565 785.371 53.5192 785.371 Q49.7532 785.371 46.5706 783.673 Q43.335 781.923 41.2134 778.953 Q39.569 776.725 38.4552 772.906 Q37.2882 769.034 37.2882 764.631 Q37.2882 758.001 39.1978 753.015 Q41.1073 747.976 44.3959 745.589 Q47.6315 743.202 53.0948 742.3 L54.3678 751.636 Q50.0184 752.272 47.5784 755.349 Q45.1385 758.372 45.1385 763.942 Q45.1385 770.519 47.3132 773.33 Q49.488 776.141 52.4053 776.141 Q54.2618 776.141 55.7469 774.974 Q57.2852 773.807 58.293 771.314 Q58.8234 769.882 60.7329 762.881 Q63.4381 752.75 65.1885 748.772 Q66.8858 744.74 70.1744 742.459 Q73.4631 740.179 78.343 740.179 Q83.1168 740.179 87.3602 742.99 Q91.5505 745.748 93.8844 750.999 Q96.1652 756.25 96.1652 762.881 Q96.1652 773.861 91.6035 779.642 Q87.0419 785.371 78.0778 786.962 Z" fill="#000000" fill-rule="nonzero" fill-opacity="1" /><path clip-path="url(#clip980)" d="M78.0778 732.647 L76.5926 723.205 Q82.2681 722.41 85.2915 718.803 Q88.3149 715.143 88.3149 708.619 Q88.3149 702.041 85.6628 698.859 Q82.9576 695.676 79.3508 695.676 Q76.1152 695.676 74.2587 698.487 Q72.9857 700.45 71.0231 708.247 Q68.371 718.75 66.4615 722.834 Q64.4989 726.865 61.1042 728.987 Q57.6565 731.055 53.5192 731.055 Q49.7532 731.055 46.5706 729.358 Q43.335 727.608 41.2134 724.637 Q39.569 722.41 38.4552 718.59 Q37.2882 714.718 37.2882 710.316 Q37.2882 703.686 39.1978 698.7 Q41.1073 693.661 44.3959 691.274 Q47.6315 688.887 53.0948 687.985 L54.3678 697.32 Q50.0184 697.957 47.5784 701.033 Q45.1385 704.057 45.1385 709.626 Q45.1385 716.204 47.3132 719.015 Q49.488 721.826 52.4053 721.826 Q54.2618 721.826 55.7469 720.659 Q57.2852 719.492 58.293 716.999 Q58.8234 715.567 60.7329 708.565 Q63.4381 698.434 65.1885 694.456 Q66.8858 690.425 70.1744 688.144 Q73.4631 685.863 78.343 685.863 Q83.1168 685.863 87.3602 688.675 Q91.5505 691.433 93.8844 696.684 Q96.1652 701.935 96.1652 708.565 Q96.1652 719.545 91.6035 725.327 Q87.0419 731.055 78.0778 732.647 Z" fill="#000000" fill-rule="nonzero" fill-opacity="1" /><polyline clip-path="url(#clip982)" style="stroke:#4477aa; stroke-linecap:round; stroke-linejoin:round; stroke-width:8; stroke-opacity:1; fill:none" points="426.389,88.5445 450.063,375.811 473.737,520.432 497.411,586.513 521.086,623.663 544.76,648.494 568.434,666.918 592.108,681.484 615.782,693.445 639.456,703.559 663.131,712.293 686.805,720.038 710.479,727.115 734.153,733.889 757.827,742.666 781.501,760.962 805.176,786.439 828.85,813.877 852.524,838.062 876.198,859.937 899.872,880.255 923.546,899.473 947.221,917.916 970.895,935.705 994.569,952.987 1018.24,969.737 1041.92,986.128 1065.59,1002.02 1089.27,1017.5 1112.94,1032.68 1136.61,1047.39 1160.29,1061.81 1183.96,1075.93 1207.64,1089.62 1231.31,1103.1 1254.98,1116.14 1278.66,1128.97 1302.33,1141.4 1326.01,1153.63 1349.68,1165.48 1373.36,1177.1 1397.03,1188.49 1420.7,1199.58 1444.38,1210.4 1468.05,1221 1491.73,1231.26 1515.4,1241.28 1539.07,1251.07 1562.75,1260.7 1586.42,1270.02 1610.1,1279.19 1633.77,1288.07 1657.45,1296.73 1681.12,1305.19 1704.79,1313.45 1728.47,1321.48 1752.14,1329.34 1775.82,1336.99 1799.49,1344.47 1823.16,1351.75 1846.84,1358.85 1870.51,1365.82 1894.19,1372.59 1917.86,1379.14 1941.54,1385.59 1965.21,1391.92 1988.88,1397.99 2012.56,1404.01 2036.23,1409.83 2059.91,1415.46 2083.58,1420.98 2107.25,1426.51 2130.93,1431.77 2154.6,1436.9 2178.28,1441.92 2201.95,1446.74 2225.63,1451.55 2249.3,1456.29 2272.97,1460.75 2296.65,1465.22 "/>
<circle clip-path="url(#clip982)" cx="426.389" cy="88.5445" r="14.4" fill="#4477aa" fill-rule="evenodd" fill-opacity="1" stroke="#000000" stroke-opacity="1" stroke-width="3.6"/>
<circle clip-path="url(#clip982)" cx="450.063" cy="375.811" r="14.4" fill="#4477aa" fill-rule="evenodd" fill-opacity="1" stroke="#000000" stroke-opacity="1" stroke-width="3.6"/>
<circle clip-path="url(#clip982)" cx="473.737" cy="520.432" r="14.4" fill="#4477aa" fill-rule="evenodd" fill-opacity="1" stroke="#000000" stroke-opacity="1" stroke-width="3.6"/>
<circle clip-path="url(#clip982)" cx="497.411" cy="586.513" r="14.4" fill="#4477aa" fill-rule="evenodd" fill-opacity="1" stroke="#000000" stroke-opacity="1" stroke-width="3.6"/>
<circle clip-path="url(#clip982)" cx="521.086" cy="623.663" r="14.4" fill="#4477aa" fill-rule="evenodd" fill-opacity="1" stroke="#000000" stroke-opacity="1" stroke-width="3.6"/>
<circle clip-path="url(#clip982)" cx="544.76" cy="648.494" r="14.4" fill="#4477aa" fill-rule="evenodd" fill-opacity="1" stroke="#000000" stroke-opacity="1" stroke-width="3.6"/>
<circle clip-path="url(#clip982)" cx="568.434" cy="666.918" r="14.4" fill="#4477aa" fill-rule="evenodd" fill-opacity="1" stroke="#000000" stroke-opacity="1" stroke-width="3.6"/>
<circle clip-path="url(#clip982)" cx="592.108" cy="681.484" r="14.4" fill="#4477aa" fill-rule="evenodd" fill-opacity="1" stroke="#000000" stroke-opacity="1" stroke-width="3.6"/>
<circle clip-path="url(#clip982)" cx="615.782" cy="693.445" r="14.4" fill="#4477aa" fill-rule="evenodd" fill-opacity="1" stroke="#000000" stroke-opacity="1" stroke-width="3.6"/>
<circle clip-path="url(#clip982)" cx="639.456" cy="703.559" r="14.4" fill="#4477aa" fill-rule="evenodd" fill-opacity="1" stroke="#000000" stroke-opacity="1" stroke-width="3.6"/>
<circle clip-path="url(#clip982)" cx="663.131" cy="712.293" r="14.4" fill="#4477aa" fill-rule="evenodd" fill-opacity="1" stroke="#000000" stroke-opacity="1" stroke-width="3.6"/>
<circle clip-path="url(#clip982)" cx="686.805" cy="720.038" r="14.4" fill="#4477aa" fill-rule="evenodd" fill-opacity="1" stroke="#000000" stroke-opacity="1" stroke-width="3.6"/>
<circle clip-path="url(#clip982)" cx="710.479" cy="727.115" r="14.4" fill="#4477aa" fill-rule="evenodd" fill-opacity="1" stroke="#000000" stroke-opacity="1" stroke-width="3.6"/>
<circle clip-path="url(#clip982)" cx="734.153" cy="733.889" r="14.4" fill="#4477aa" fill-rule="evenodd" fill-opacity="1" stroke="#000000" stroke-opacity="1" stroke-width="3.6"/>
<circle clip-path="url(#clip982)" cx="757.827" cy="742.666" r="14.4" fill="#4477aa" fill-rule="evenodd" fill-opacity="1" stroke="#000000" stroke-opacity="1" stroke-width="3.6"/>
<circle clip-path="url(#clip982)" cx="781.501" cy="760.962" r="14.4" fill="#4477aa" fill-rule="evenodd" fill-opacity="1" stroke="#000000" stroke-opacity="1" stroke-width="3.6"/>
<circle clip-path="url(#clip982)" cx="805.176" cy="786.439" r="14.4" fill="#4477aa" fill-rule="evenodd" fill-opacity="1" stroke="#000000" stroke-opacity="1" stroke-width="3.6"/>
<circle clip-path="url(#clip982)" cx="828.85" cy="813.877" r="14.4" fill="#4477aa" fill-rule="evenodd" fill-opacity="1" stroke="#000000" stroke-opacity="1" stroke-width="3.6"/>
<circle clip-path="url(#clip982)" cx="852.524" cy="838.062" r="14.4" fill="#4477aa" fill-rule="evenodd" fill-opacity="1" stroke="#000000" stroke-opacity="1" stroke-width="3.6"/>
<circle clip-path="url(#clip982)" cx="876.198" cy="859.937" r="14.4" fill="#4477aa" fill-rule="evenodd" fill-opacity="1" stroke="#000000" stroke-opacity="1" stroke-width="3.6"/>
<circle clip-path="url(#clip982)" cx="899.872" cy="880.255" r="14.4" fill="#4477aa" fill-rule="evenodd" fill-opacity="1" stroke="#000000" stroke-opacity="1" stroke-width="3.6"/>
<circle clip-path="url(#clip982)" cx="923.546" cy="899.473" r="14.4" fill="#4477aa" fill-rule="evenodd" fill-opacity="1" stroke="#000000" stroke-opacity="1" stroke-width="3.6"/>
<circle clip-path="url(#clip982)" cx="947.221" cy="917.916" r="14.4" fill="#4477aa" fill-rule="evenodd" fill-opacity="1" stroke="#000000" stroke-opacity="1" stroke-width="3.6"/>
<circle clip-path="url(#clip982)" cx="970.895" cy="935.705" r="14.4" fill="#4477aa" fill-rule="evenodd" fill-opacity="1" stroke="#000000" stroke-opacity="1" stroke-width="3.6"/>
<circle clip-path="url(#clip982)" cx="994.569" cy="952.987" r="14.4" fill="#4477aa" fill-rule="evenodd" fill-opacity="1" stroke="#000000" stroke-opacity="1" stroke-width="3.6"/>
<circle clip-path="url(#clip982)" cx="1018.24" cy="969.737" r="14.4" fill="#4477aa" fill-rule="evenodd" fill-opacity="1" stroke="#000000" stroke-opacity="1" stroke-width="3.6"/>
<circle clip-path="url(#clip982)" cx="1041.92" cy="986.128" r="14.4" fill="#4477aa" fill-rule="evenodd" fill-opacity="1" stroke="#000000" stroke-opacity="1" stroke-width="3.6"/>
<circle clip-path="url(#clip982)" cx="1065.59" cy="1002.02" r="14.4" fill="#4477aa" fill-rule="evenodd" fill-opacity="1" stroke="#000000" stroke-opacity="1" stroke-width="3.6"/>
<circle clip-path="url(#clip982)" cx="1089.27" cy="1017.5" r="14.4" fill="#4477aa" fill-rule="evenodd" fill-opacity="1" stroke="#000000" stroke-opacity="1" stroke-width="3.6"/>
<circle clip-path="url(#clip982)" cx="1112.94" cy="1032.68" r="14.4" fill="#4477aa" fill-rule="evenodd" fill-opacity="1" stroke="#000000" stroke-opacity="1" stroke-width="3.6"/>
<circle clip-path="url(#clip982)" cx="1136.61" cy="1047.39" r="14.4" fill="#4477aa" fill-rule="evenodd" fill-opacity="1" stroke="#000000" stroke-opacity="1" stroke-width="3.6"/>
<circle clip-path="url(#clip982)" cx="1160.29" cy="1061.81" r="14.4" fill="#4477aa" fill-rule="evenodd" fill-opacity="1" stroke="#000000" stroke-opacity="1" stroke-width="3.6"/>
<circle clip-path="url(#clip982)" cx="1183.96" cy="1075.93" r="14.4" fill="#4477aa" fill-rule="evenodd" fill-opacity="1" stroke="#000000" stroke-opacity="1" stroke-width="3.6"/>
<circle clip-path="url(#clip982)" cx="1207.64" cy="1089.62" r="14.4" fill="#4477aa" fill-rule="evenodd" fill-opacity="1" stroke="#000000" stroke-opacity="1" stroke-width="3.6"/>
<circle clip-path="url(#clip982)" cx="1231.31" cy="1103.1" r="14.4" fill="#4477aa" fill-rule="evenodd" fill-opacity="1" stroke="#000000" stroke-opacity="1" stroke-width="3.6"/>
<circle clip-path="url(#clip982)" cx="1254.98" cy="1116.14" r="14.4" fill="#4477aa" fill-rule="evenodd" fill-opacity="1" stroke="#000000" stroke-opacity="1" stroke-width="3.6"/>
<circle clip-path="url(#clip982)" cx="1278.66" cy="1128.97" r="14.4" fill="#4477aa" fill-rule="evenodd" fill-opacity="1" stroke="#000000" stroke-opacity="1" stroke-width="3.6"/>
<circle clip-path="url(#clip982)" cx="1302.33" cy="1141.4" r="14.4" fill="#4477aa" fill-rule="evenodd" fill-opacity="1" stroke="#000000" stroke-opacity="1" stroke-width="3.6"/>
<circle clip-path="url(#clip982)" cx="1326.01" cy="1153.63" r="14.4" fill="#4477aa" fill-rule="evenodd" fill-opacity="1" stroke="#000000" stroke-opacity="1" stroke-width="3.6"/>
<circle clip-path="url(#clip982)" cx="1349.68" cy="1165.48" r="14.4" fill="#4477aa" fill-rule="evenodd" fill-opacity="1" stroke="#000000" stroke-opacity="1" stroke-width="3.6"/>
<circle clip-path="url(#clip982)" cx="1373.36" cy="1177.1" r="14.4" fill="#4477aa" fill-rule="evenodd" fill-opacity="1" stroke="#000000" stroke-opacity="1" stroke-width="3.6"/>
<circle clip-path="url(#clip982)" cx="1397.03" cy="1188.49" r="14.4" fill="#4477aa" fill-rule="evenodd" fill-opacity="1" stroke="#000000" stroke-opacity="1" stroke-width="3.6"/>
<circle clip-path="url(#clip982)" cx="1420.7" cy="1199.58" r="14.4" fill="#4477aa" fill-rule="evenodd" fill-opacity="1" stroke="#000000" stroke-opacity="1" stroke-width="3.6"/>
<circle clip-path="url(#clip982)" cx="1444.38" cy="1210.4" r="14.4" fill="#4477aa" fill-rule="evenodd" fill-opacity="1" stroke="#000000" stroke-opacity="1" stroke-width="3.6"/>
<circle clip-path="url(#clip982)" cx="1468.05" cy="1221" r="14.4" fill="#4477aa" fill-rule="evenodd" fill-opacity="1" stroke="#000000" stroke-opacity="1" stroke-width="3.6"/>
<circle clip-path="url(#clip982)" cx="1491.73" cy="1231.26" r="14.4" fill="#4477aa" fill-rule="evenodd" fill-opacity="1" stroke="#000000" stroke-opacity="1" stroke-width="3.6"/>
<circle clip-path="url(#clip982)" cx="1515.4" cy="1241.28" r="14.4" fill="#4477aa" fill-rule="evenodd" fill-opacity="1" stroke="#000000" stroke-opacity="1" stroke-width="3.6"/>
<circle clip-path="url(#clip982)" cx="1539.07" cy="1251.07" r="14.4" fill="#4477aa" fill-rule="evenodd" fill-opacity="1" stroke="#000000" stroke-opacity="1" stroke-width="3.6"/>
<circle clip-path="url(#clip982)" cx="1562.75" cy="1260.7" r="14.4" fill="#4477aa" fill-rule="evenodd" fill-opacity="1" stroke="#000000" stroke-opacity="1" stroke-width="3.6"/>
<circle clip-path="url(#clip982)" cx="1586.42" cy="1270.02" r="14.4" fill="#4477aa" fill-rule="evenodd" fill-opacity="1" stroke="#000000" stroke-opacity="1" stroke-width="3.6"/>
<circle clip-path="url(#clip982)" cx="1610.1" cy="1279.19" r="14.4" fill="#4477aa" fill-rule="evenodd" fill-opacity="1" stroke="#000000" stroke-opacity="1" stroke-width="3.6"/>
<circle clip-path="url(#clip982)" cx="1633.77" cy="1288.07" r="14.4" fill="#4477aa" fill-rule="evenodd" fill-opacity="1" stroke="#000000" stroke-opacity="1" stroke-width="3.6"/>
<circle clip-path="url(#clip982)" cx="1657.45" cy="1296.73" r="14.4" fill="#4477aa" fill-rule="evenodd" fill-opacity="1" stroke="#000000" stroke-opacity="1" stroke-width="3.6"/>
<circle clip-path="url(#clip982)" cx="1681.12" cy="1305.19" r="14.4" fill="#4477aa" fill-rule="evenodd" fill-opacity="1" stroke="#000000" stroke-opacity="1" stroke-width="3.6"/>
<circle clip-path="url(#clip982)" cx="1704.79" cy="1313.45" r="14.4" fill="#4477aa" fill-rule="evenodd" fill-opacity="1" stroke="#000000" stroke-opacity="1" stroke-width="3.6"/>
<circle clip-path="url(#clip982)" cx="1728.47" cy="1321.48" r="14.4" fill="#4477aa" fill-rule="evenodd" fill-opacity="1" stroke="#000000" stroke-opacity="1" stroke-width="3.6"/>
<circle clip-path="url(#clip982)" cx="1752.14" cy="1329.34" r="14.4" fill="#4477aa" fill-rule="evenodd" fill-opacity="1" stroke="#000000" stroke-opacity="1" stroke-width="3.6"/>
<circle clip-path="url(#clip982)" cx="1775.82" cy="1336.99" r="14.4" fill="#4477aa" fill-rule="evenodd" fill-opacity="1" stroke="#000000" stroke-opacity="1" stroke-width="3.6"/>
<circle clip-path="url(#clip982)" cx="1799.49" cy="1344.47" r="14.4" fill="#4477aa" fill-rule="evenodd" fill-opacity="1" stroke="#000000" stroke-opacity="1" stroke-width="3.6"/>
<circle clip-path="url(#clip982)" cx="1823.16" cy="1351.75" r="14.4" fill="#4477aa" fill-rule="evenodd" fill-opacity="1" stroke="#000000" stroke-opacity="1" stroke-width="3.6"/>
<circle clip-path="url(#clip982)" cx="1846.84" cy="1358.85" r="14.4" fill="#4477aa" fill-rule="evenodd" fill-opacity="1" stroke="#000000" stroke-opacity="1" stroke-width="3.6"/>
<circle clip-path="url(#clip982)" cx="1870.51" cy="1365.82" r="14.4" fill="#4477aa" fill-rule="evenodd" fill-opacity="1" stroke="#000000" stroke-opacity="1" stroke-width="3.6"/>
<circle clip-path="url(#clip982)" cx="1894.19" cy="1372.59" r="14.4" fill="#4477aa" fill-rule="evenodd" fill-opacity="1" stroke="#000000" stroke-opacity="1" stroke-width="3.6"/>
<circle clip-path="url(#clip982)" cx="1917.86" cy="1379.14" r="14.4" fill="#4477aa" fill-rule="evenodd" fill-opacity="1" stroke="#000000" stroke-opacity="1" stroke-width="3.6"/>
<circle clip-path="url(#clip982)" cx="1941.54" cy="1385.59" r="14.4" fill="#4477aa" fill-rule="evenodd" fill-opacity="1" stroke="#000000" stroke-opacity="1" stroke-width="3.6"/>
<circle clip-path="url(#clip982)" cx="1965.21" cy="1391.92" r="14.4" fill="#4477aa" fill-rule="evenodd" fill-opacity="1" stroke="#000000" stroke-opacity="1" stroke-width="3.6"/>
<circle clip-path="url(#clip982)" cx="1988.88" cy="1397.99" r="14.4" fill="#4477aa" fill-rule="evenodd" fill-opacity="1" stroke="#000000" stroke-opacity="1" stroke-width="3.6"/>
<circle clip-path="url(#clip982)" cx="2012.56" cy="1404.01" r="14.4" fill="#4477aa" fill-rule="evenodd" fill-opacity="1" stroke="#000000" stroke-opacity="1" stroke-width="3.6"/>
<circle clip-path="url(#clip982)" cx="2036.23" cy="1409.83" r="14.4" fill="#4477aa" fill-rule="evenodd" fill-opacity="1" stroke="#000000" stroke-opacity="1" stroke-width="3.6"/>
<circle clip-path="url(#clip982)" cx="2059.91" cy="1415.46" r="14.4" fill="#4477aa" fill-rule="evenodd" fill-opacity="1" stroke="#000000" stroke-opacity="1" stroke-width="3.6"/>
<circle clip-path="url(#clip982)" cx="2083.58" cy="1420.98" r="14.4" fill="#4477aa" fill-rule="evenodd" fill-opacity="1" stroke="#000000" stroke-opacity="1" stroke-width="3.6"/>
<circle clip-path="url(#clip982)" cx="2107.25" cy="1426.51" r="14.4" fill="#4477aa" fill-rule="evenodd" fill-opacity="1" stroke="#000000" stroke-opacity="1" stroke-width="3.6"/>
<circle clip-path="url(#clip982)" cx="2130.93" cy="1431.77" r="14.4" fill="#4477aa" fill-rule="evenodd" fill-opacity="1" stroke="#000000" stroke-opacity="1" stroke-width="3.6"/>
<circle clip-path="url(#clip982)" cx="2154.6" cy="1436.9" r="14.4" fill="#4477aa" fill-rule="evenodd" fill-opacity="1" stroke="#000000" stroke-opacity="1" stroke-width="3.6"/>
<circle clip-path="url(#clip982)" cx="2178.28" cy="1441.92" r="14.4" fill="#4477aa" fill-rule="evenodd" fill-opacity="1" stroke="#000000" stroke-opacity="1" stroke-width="3.6"/>
<circle clip-path="url(#clip982)" cx="2201.95" cy="1446.74" r="14.4" fill="#4477aa" fill-rule="evenodd" fill-opacity="1" stroke="#000000" stroke-opacity="1" stroke-width="3.6"/>
<circle clip-path="url(#clip982)" cx="2225.63" cy="1451.55" r="14.4" fill="#4477aa" fill-rule="evenodd" fill-opacity="1" stroke="#000000" stroke-opacity="1" stroke-width="3.6"/>
<circle clip-path="url(#clip982)" cx="2249.3" cy="1456.29" r="14.4" fill="#4477aa" fill-rule="evenodd" fill-opacity="1" stroke="#000000" stroke-opacity="1" stroke-width="3.6"/>
<circle clip-path="url(#clip982)" cx="2272.97" cy="1460.75" r="14.4" fill="#4477aa" fill-rule="evenodd" fill-opacity="1" stroke="#000000" stroke-opacity="1" stroke-width="3.6"/>
<circle clip-path="url(#clip982)" cx="2296.65" cy="1465.22" r="14.4" fill="#4477aa" fill-rule="evenodd" fill-opacity="1" stroke="#000000" stroke-opacity="1" stroke-width="3.6"/>
<polyline clip-path="url(#clip982)" style="stroke:#ee6677; stroke-linecap:round; stroke-linejoin:round; stroke-width:8; stroke-opacity:1; fill:none" points="426.389,693.078 450.063,895.766 473.737,961.349 497.411,982.983 521.086,991.778 544.76,995.835 568.434,997.898 592.108,999.187 615.782,1000.3 639.456,1001.55 663.131,1003.5 686.805,1006.57 710.479,1011.71 734.153,1020.46 757.827,1026.13 781.501,1008.93 805.176,1012.67 828.85,1021.55 852.524,1031.08 876.198,1040.77 899.872,1050.31 923.546,1059.71 947.221,1069.22 970.895,1078.78 994.569,1088.39 1018.24,1098 1041.92,1107.66 1065.59,1117.24 1089.27,1126.65 1112.94,1136.28 1136.61,1145.72 1160.29,1155.26 1183.96,1164.6 1207.64,1173.73 1231.31,1182.73 1254.98,1191.79 1278.66,1200.63 1302.33,1209.41 1326.01,1218.2 1349.68,1226.7 1373.36,1235.09 1397.03,1243.22 1420.7,1251.44 1444.38,1259.36 1468.05,1267.22 1491.73,1274.88 1515.4,1282.43 1539.07,1289.95 1562.75,1297.23 1586.42,1304.44 1610.1,1311.53 1633.77,1318.32 1657.45,1325.03 1681.12,1331.65 1704.79,1338.19 1728.47,1344.65 1752.14,1350.92 1775.82,1356.95 1799.49,1362.82 1823.16,1368.63 1846.84,1374.3 1870.51,1379.96 1894.19,1385.52 1917.86,1390.88 1941.54,1396.24 1965.21,1401.3 1988.88,1406.4 2012.56,1411.26 2036.23,1416.13 2059.91,1420.84 2083.58,1425.36 2107.25,1429.77 2130.93,1434.18 2154.6,1438.49 2178.28,1442.68 2201.95,1446.78 2225.63,1450.73 2249.3,1454.75 2272.97,1458.55 2296.65,1462.34 "/>
<circle clip-path="url(#clip982)" cx="426.389" cy="693.078" r="14.4" fill="#ee6677" fill-rule="evenodd" fill-opacity="1" stroke="#000000" stroke-opacity="1" stroke-width="3.6"/>
<circle clip-path="url(#clip982)" cx="450.063" cy="895.766" r="14.4" fill="#ee6677" fill-rule="evenodd" fill-opacity="1" stroke="#000000" stroke-opacity="1" stroke-width="3.6"/>
<circle clip-path="url(#clip982)" cx="473.737" cy="961.349" r="14.4" fill="#ee6677" fill-rule="evenodd" fill-opacity="1" stroke="#000000" stroke-opacity="1" stroke-width="3.6"/>
<circle clip-path="url(#clip982)" cx="497.411" cy="982.983" r="14.4" fill="#ee6677" fill-rule="evenodd" fill-opacity="1" stroke="#000000" stroke-opacity="1" stroke-width="3.6"/>
<circle clip-path="url(#clip982)" cx="521.086" cy="991.778" r="14.4" fill="#ee6677" fill-rule="evenodd" fill-opacity="1" stroke="#000000" stroke-opacity="1" stroke-width="3.6"/>
<circle clip-path="url(#clip982)" cx="544.76" cy="995.835" r="14.4" fill="#ee6677" fill-rule="evenodd" fill-opacity="1" stroke="#000000" stroke-opacity="1" stroke-width="3.6"/>
<circle clip-path="url(#clip982)" cx="568.434" cy="997.898" r="14.4" fill="#ee6677" fill-rule="evenodd" fill-opacity="1" stroke="#000000" stroke-opacity="1" stroke-width="3.6"/>
<circle clip-path="url(#clip982)" cx="592.108" cy="999.187" r="14.4" fill="#ee6677" fill-rule="evenodd" fill-opacity="1" stroke="#000000" stroke-opacity="1" stroke-width="3.6"/>
<circle clip-path="url(#clip982)" cx="615.782" cy="1000.3" r="14.4" fill="#ee6677" fill-rule="evenodd" fill-opacity="1" stroke="#000000" stroke-opacity="1" stroke-width="3.6"/>
<circle clip-path="url(#clip982)" cx="639.456" cy="1001.55" r="14.4" fill="#ee6677" fill-rule="evenodd" fill-opacity="1" stroke="#000000" stroke-opacity="1" stroke-width="3.6"/>
<circle clip-path="url(#clip982)" cx="663.131" cy="1003.5" r="14.4" fill="#ee6677" fill-rule="evenodd" fill-opacity="1" stroke="#000000" stroke-opacity="1" stroke-width="3.6"/>
<circle clip-path="url(#clip982)" cx="686.805" cy="1006.57" r="14.4" fill="#ee6677" fill-rule="evenodd" fill-opacity="1" stroke="#000000" stroke-opacity="1" stroke-width="3.6"/>
<circle clip-path="url(#clip982)" cx="710.479" cy="1011.71" r="14.4" fill="#ee6677" fill-rule="evenodd" fill-opacity="1" stroke="#000000" stroke-opacity="1" stroke-width="3.6"/>
<circle clip-path="url(#clip982)" cx="734.153" cy="1020.46" r="14.4" fill="#ee6677" fill-rule="evenodd" fill-opacity="1" stroke="#000000" stroke-opacity="1" stroke-width="3.6"/>
<circle clip-path="url(#clip982)" cx="757.827" cy="1026.13" r="14.4" fill="#ee6677" fill-rule="evenodd" fill-opacity="1" stroke="#000000" stroke-opacity="1" stroke-width="3.6"/>
<circle clip-path="url(#clip982)" cx="781.501" cy="1008.93" r="14.4" fill="#ee6677" fill-rule="evenodd" fill-opacity="1" stroke="#000000" stroke-opacity="1" stroke-width="3.6"/>
<circle clip-path="url(#clip982)" cx="805.176" cy="1012.67" r="14.4" fill="#ee6677" fill-rule="evenodd" fill-opacity="1" stroke="#000000" stroke-opacity="1" stroke-width="3.6"/>
<circle clip-path="url(#clip982)" cx="828.85" cy="1021.55" r="14.4" fill="#ee6677" fill-rule="evenodd" fill-opacity="1" stroke="#000000" stroke-opacity="1" stroke-width="3.6"/>
<circle clip-path="url(#clip982)" cx="852.524" cy="1031.08" r="14.4" fill="#ee6677" fill-rule="evenodd" fill-opacity="1" stroke="#000000" stroke-opacity="1" stroke-width="3.6"/>
<circle clip-path="url(#clip982)" cx="876.198" cy="1040.77" r="14.4" fill="#ee6677" fill-rule="evenodd" fill-opacity="1" stroke="#000000" stroke-opacity="1" stroke-width="3.6"/>
<circle clip-path="url(#clip982)" cx="899.872" cy="1050.31" r="14.4" fill="#ee6677" fill-rule="evenodd" fill-opacity="1" stroke="#000000" stroke-opacity="1" stroke-width="3.6"/>
<circle clip-path="url(#clip982)" cx="923.546" cy="1059.71" r="14.4" fill="#ee6677" fill-rule="evenodd" fill-opacity="1" stroke="#000000" stroke-opacity="1" stroke-width="3.6"/>
<circle clip-path="url(#clip982)" cx="947.221" cy="1069.22" r="14.4" fill="#ee6677" fill-rule="evenodd" fill-opacity="1" stroke="#000000" stroke-opacity="1" stroke-width="3.6"/>
<circle clip-path="url(#clip982)" cx="970.895" cy="1078.78" r="14.4" fill="#ee6677" fill-rule="evenodd" fill-opacity="1" stroke="#000000" stroke-opacity="1" stroke-width="3.6"/>
<circle clip-path="url(#clip982)" cx="994.569" cy="1088.39" r="14.4" fill="#ee6677" fill-rule="evenodd" fill-opacity="1" stroke="#000000" stroke-opacity="1" stroke-width="3.6"/>
<circle clip-path="url(#clip982)" cx="1018.24" cy="1098" r="14.4" fill="#ee6677" fill-rule="evenodd" fill-opacity="1" stroke="#000000" stroke-opacity="1" stroke-width="3.6"/>
<circle clip-path="url(#clip982)" cx="1041.92" cy="1107.66" r="14.4" fill="#ee6677" fill-rule="evenodd" fill-opacity="1" stroke="#000000" stroke-opacity="1" stroke-width="3.6"/>
<circle clip-path="url(#clip982)" cx="1065.59" cy="1117.24" r="14.4" fill="#ee6677" fill-rule="evenodd" fill-opacity="1" stroke="#000000" stroke-opacity="1" stroke-width="3.6"/>
<circle clip-path="url(#clip982)" cx="1089.27" cy="1126.65" r="14.4" fill="#ee6677" fill-rule="evenodd" fill-opacity="1" stroke="#000000" stroke-opacity="1" stroke-width="3.6"/>
<circle clip-path="url(#clip982)" cx="1112.94" cy="1136.28" r="14.4" fill="#ee6677" fill-rule="evenodd" fill-opacity="1" stroke="#000000" stroke-opacity="1" stroke-width="3.6"/>
<circle clip-path="url(#clip982)" cx="1136.61" cy="1145.72" r="14.4" fill="#ee6677" fill-rule="evenodd" fill-opacity="1" stroke="#000000" stroke-opacity="1" stroke-width="3.6"/>
<circle clip-path="url(#clip982)" cx="1160.29" cy="1155.26" r="14.4" fill="#ee6677" fill-rule="evenodd" fill-opacity="1" stroke="#000000" stroke-opacity="1" stroke-width="3.6"/>
<circle clip-path="url(#clip982)" cx="1183.96" cy="1164.6" r="14.4" fill="#ee6677" fill-rule="evenodd" fill-opacity="1" stroke="#000000" stroke-opacity="1" stroke-width="3.6"/>
<circle clip-path="url(#clip982)" cx="1207.64" cy="1173.73" r="14.4" fill="#ee6677" fill-rule="evenodd" fill-opacity="1" stroke="#000000" stroke-opacity="1" stroke-width="3.6"/>
<circle clip-path="url(#clip982)" cx="1231.31" cy="1182.73" r="14.4" fill="#ee6677" fill-rule="evenodd" fill-opacity="1" stroke="#000000" stroke-opacity="1" stroke-width="3.6"/>
<circle clip-path="url(#clip982)" cx="1254.98" cy="1191.79" r="14.4" fill="#ee6677" fill-rule="evenodd" fill-opacity="1" stroke="#000000" stroke-opacity="1" stroke-width="3.6"/>
<circle clip-path="url(#clip982)" cx="1278.66" cy="1200.63" r="14.4" fill="#ee6677" fill-rule="evenodd" fill-opacity="1" stroke="#000000" stroke-opacity="1" stroke-width="3.6"/>
<circle clip-path="url(#clip982)" cx="1302.33" cy="1209.41" r="14.4" fill="#ee6677" fill-rule="evenodd" fill-opacity="1" stroke="#000000" stroke-opacity="1" stroke-width="3.6"/>
<circle clip-path="url(#clip982)" cx="1326.01" cy="1218.2" r="14.4" fill="#ee6677" fill-rule="evenodd" fill-opacity="1" stroke="#000000" stroke-opacity="1" stroke-width="3.6"/>
<circle clip-path="url(#clip982)" cx="1349.68" cy="1226.7" r="14.4" fill="#ee6677" fill-rule="evenodd" fill-opacity="1" stroke="#000000" stroke-opacity="1" stroke-width="3.6"/>
<circle clip-path="url(#clip982)" cx="1373.36" cy="1235.09" r="14.4" fill="#ee6677" fill-rule="evenodd" fill-opacity="1" stroke="#000000" stroke-opacity="1" stroke-width="3.6"/>
<circle clip-path="url(#clip982)" cx="1397.03" cy="1243.22" r="14.4" fill="#ee6677" fill-rule="evenodd" fill-opacity="1" stroke="#000000" stroke-opacity="1" stroke-width="3.6"/>
<circle clip-path="url(#clip982)" cx="1420.7" cy="1251.44" r="14.4" fill="#ee6677" fill-rule="evenodd" fill-opacity="1" stroke="#000000" stroke-opacity="1" stroke-width="3.6"/>
<circle clip-path="url(#clip982)" cx="1444.38" cy="1259.36" r="14.4" fill="#ee6677" fill-rule="evenodd" fill-opacity="1" stroke="#000000" stroke-opacity="1" stroke-width="3.6"/>
<circle clip-path="url(#clip982)" cx="1468.05" cy="1267.22" r="14.4" fill="#ee6677" fill-rule="evenodd" fill-opacity="1" stroke="#000000" stroke-opacity="1" stroke-width="3.6"/>
<circle clip-path="url(#clip982)" cx="1491.73" cy="1274.88" r="14.4" fill="#ee6677" fill-rule="evenodd" fill-opacity="1" stroke="#000000" stroke-opacity="1" stroke-width="3.6"/>
<circle clip-path="url(#clip982)" cx="1515.4" cy="1282.43" r="14.4" fill="#ee6677" fill-rule="evenodd" fill-opacity="1" stroke="#000000" stroke-opacity="1" stroke-width="3.6"/>
<circle clip-path="url(#clip982)" cx="1539.07" cy="1289.95" r="14.4" fill="#ee6677" fill-rule="evenodd" fill-opacity="1" stroke="#000000" stroke-opacity="1" stroke-width="3.6"/>
<circle clip-path="url(#clip982)" cx="1562.75" cy="1297.23" r="14.4" fill="#ee6677" fill-rule="evenodd" fill-opacity="1" stroke="#000000" stroke-opacity="1" stroke-width="3.6"/>
<circle clip-path="url(#clip982)" cx="1586.42" cy="1304.44" r="14.4" fill="#ee6677" fill-rule="evenodd" fill-opacity="1" stroke="#000000" stroke-opacity="1" stroke-width="3.6"/>
<circle clip-path="url(#clip982)" cx="1610.1" cy="1311.53" r="14.4" fill="#ee6677" fill-rule="evenodd" fill-opacity="1" stroke="#000000" stroke-opacity="1" stroke-width="3.6"/>
<circle clip-path="url(#clip982)" cx="1633.77" cy="1318.32" r="14.4" fill="#ee6677" fill-rule="evenodd" fill-opacity="1" stroke="#000000" stroke-opacity="1" stroke-width="3.6"/>
<circle clip-path="url(#clip982)" cx="1657.45" cy="1325.03" r="14.4" fill="#ee6677" fill-rule="evenodd" fill-opacity="1" stroke="#000000" stroke-opacity="1" stroke-width="3.6"/>
<circle clip-path="url(#clip982)" cx="1681.12" cy="1331.65" r="14.4" fill="#ee6677" fill-rule="evenodd" fill-opacity="1" stroke="#000000" stroke-opacity="1" stroke-width="3.6"/>
<circle clip-path="url(#clip982)" cx="1704.79" cy="1338.19" r="14.4" fill="#ee6677" fill-rule="evenodd" fill-opacity="1" stroke="#000000" stroke-opacity="1" stroke-width="3.6"/>
<circle clip-path="url(#clip982)" cx="1728.47" cy="1344.65" r="14.4" fill="#ee6677" fill-rule="evenodd" fill-opacity="1" stroke="#000000" stroke-opacity="1" stroke-width="3.6"/>
<circle clip-path="url(#clip982)" cx="1752.14" cy="1350.92" r="14.4" fill="#ee6677" fill-rule="evenodd" fill-opacity="1" stroke="#000000" stroke-opacity="1" stroke-width="3.6"/>
<circle clip-path="url(#clip982)" cx="1775.82" cy="1356.95" r="14.4" fill="#ee6677" fill-rule="evenodd" fill-opacity="1" stroke="#000000" stroke-opacity="1" stroke-width="3.6"/>
<circle clip-path="url(#clip982)" cx="1799.49" cy="1362.82" r="14.4" fill="#ee6677" fill-rule="evenodd" fill-opacity="1" stroke="#000000" stroke-opacity="1" stroke-width="3.6"/>
<circle clip-path="url(#clip982)" cx="1823.16" cy="1368.63" r="14.4" fill="#ee6677" fill-rule="evenodd" fill-opacity="1" stroke="#000000" stroke-opacity="1" stroke-width="3.6"/>
<circle clip-path="url(#clip982)" cx="1846.84" cy="1374.3" r="14.4" fill="#ee6677" fill-rule="evenodd" fill-opacity="1" stroke="#000000" stroke-opacity="1" stroke-width="3.6"/>
<circle clip-path="url(#clip982)" cx="1870.51" cy="1379.96" r="14.4" fill="#ee6677" fill-rule="evenodd" fill-opacity="1" stroke="#000000" stroke-opacity="1" stroke-width="3.6"/>
<circle clip-path="url(#clip982)" cx="1894.19" cy="1385.52" r="14.4" fill="#ee6677" fill-rule="evenodd" fill-opacity="1" stroke="#000000" stroke-opacity="1" stroke-width="3.6"/>
<circle clip-path="url(#clip982)" cx="1917.86" cy="1390.88" r="14.4" fill="#ee6677" fill-rule="evenodd" fill-opacity="1" stroke="#000000" stroke-opacity="1" stroke-width="3.6"/>
<circle clip-path="url(#clip982)" cx="1941.54" cy="1396.24" r="14.4" fill="#ee6677" fill-rule="evenodd" fill-opacity="1" stroke="#000000" stroke-opacity="1" stroke-width="3.6"/>
<circle clip-path="url(#clip982)" cx="1965.21" cy="1401.3" r="14.4" fill="#ee6677" fill-rule="evenodd" fill-opacity="1" stroke="#000000" stroke-opacity="1" stroke-width="3.6"/>
<circle clip-path="url(#clip982)" cx="1988.88" cy="1406.4" r="14.4" fill="#ee6677" fill-rule="evenodd" fill-opacity="1" stroke="#000000" stroke-opacity="1" stroke-width="3.6"/>
<circle clip-path="url(#clip982)" cx="2012.56" cy="1411.26" r="14.4" fill="#ee6677" fill-rule="evenodd" fill-opacity="1" stroke="#000000" stroke-opacity="1" stroke-width="3.6"/>
<circle clip-path="url(#clip982)" cx="2036.23" cy="1416.13" r="14.4" fill="#ee6677" fill-rule="evenodd" fill-opacity="1" stroke="#000000" stroke-opacity="1" stroke-width="3.6"/>
<circle clip-path="url(#clip982)" cx="2059.91" cy="1420.84" r="14.4" fill="#ee6677" fill-rule="evenodd" fill-opacity="1" stroke="#000000" stroke-opacity="1" stroke-width="3.6"/>
<circle clip-path="url(#clip982)" cx="2083.58" cy="1425.36" r="14.4" fill="#ee6677" fill-rule="evenodd" fill-opacity="1" stroke="#000000" stroke-opacity="1" stroke-width="3.6"/>
<circle clip-path="url(#clip982)" cx="2107.25" cy="1429.77" r="14.4" fill="#ee6677" fill-rule="evenodd" fill-opacity="1" stroke="#000000" stroke-opacity="1" stroke-width="3.6"/>
<circle clip-path="url(#clip982)" cx="2130.93" cy="1434.18" r="14.4" fill="#ee6677" fill-rule="evenodd" fill-opacity="1" stroke="#000000" stroke-opacity="1" stroke-width="3.6"/>
<circle clip-path="url(#clip982)" cx="2154.6" cy="1438.49" r="14.4" fill="#ee6677" fill-rule="evenodd" fill-opacity="1" stroke="#000000" stroke-opacity="1" stroke-width="3.6"/>
<circle clip-path="url(#clip982)" cx="2178.28" cy="1442.68" r="14.4" fill="#ee6677" fill-rule="evenodd" fill-opacity="1" stroke="#000000" stroke-opacity="1" stroke-width="3.6"/>
<circle clip-path="url(#clip982)" cx="2201.95" cy="1446.78" r="14.4" fill="#ee6677" fill-rule="evenodd" fill-opacity="1" stroke="#000000" stroke-opacity="1" stroke-width="3.6"/>
<circle clip-path="url(#clip982)" cx="2225.63" cy="1450.73" r="14.4" fill="#ee6677" fill-rule="evenodd" fill-opacity="1" stroke="#000000" stroke-opacity="1" stroke-width="3.6"/>
<circle clip-path="url(#clip982)" cx="2249.3" cy="1454.75" r="14.4" fill="#ee6677" fill-rule="evenodd" fill-opacity="1" stroke="#000000" stroke-opacity="1" stroke-width="3.6"/>
<circle clip-path="url(#clip982)" cx="2272.97" cy="1458.55" r="14.4" fill="#ee6677" fill-rule="evenodd" fill-opacity="1" stroke="#000000" stroke-opacity="1" stroke-width="3.6"/>
<circle clip-path="url(#clip982)" cx="2296.65" cy="1462.34" r="14.4" fill="#ee6677" fill-rule="evenodd" fill-opacity="1" stroke="#000000" stroke-opacity="1" stroke-width="3.6"/>
<path clip-path="url(#clip980)" d="M1629.61 445.807 L2286.67 445.807 L2286.67 95.8868 L1629.61 95.8868  Z" fill="#ffffff" fill-rule="evenodd" fill-opacity="1"/>
<polyline clip-path="url(#clip980)" style="stroke:#000000; stroke-linecap:round; stroke-linejoin:round; stroke-width:4; stroke-opacity:1; fill:none" points="1629.61,445.807 2286.67,445.807 2286.67,95.8868 1629.61,95.8868 1629.61,445.807 "/>
<polyline clip-path="url(#clip980)" style="stroke:#4477aa; stroke-linecap:round; stroke-linejoin:round; stroke-width:18; stroke-opacity:1; fill:none" points="1651.64,212.527 1783.8,212.527 "/>
<circle clip-path="url(#clip980)" cx="1717.72" cy="212.527" r="8.15833" fill="#4477aa" fill-rule="evenodd" fill-opacity="1" stroke="#000000" stroke-opacity="1" stroke-width="8.15833"/>
<path clip-path="url(#clip980)" d="M1831.93 242.867 L1833.31 251.301 Q1829.27 252.149 1826.09 252.149 Q1820.89 252.149 1818.03 250.505 Q1815.17 248.861 1814 246.209 Q1812.83 243.503 1812.83 234.911 L1812.83 202.502 L1805.83 202.502 L1805.83 195.076 L1812.83 195.076 L1812.83 181.126 L1822.33 175.397 L1822.33 195.076 L1831.93 195.076 L1831.93 202.502 L1822.33 202.502 L1822.33 235.441 Q1822.33 239.525 1822.8 240.692 Q1823.33 241.859 1824.45 242.549 Q1825.61 243.238 1827.74 243.238 Q1829.33 243.238 1831.93 242.867 Z" fill="#000000" fill-rule="nonzero" fill-opacity="1" /><path clip-path="url(#clip980)" d="M1841.16 251.407 L1841.16 195.076 L1849.75 195.076 L1849.75 203.616 Q1853.04 197.622 1855.8 195.712 Q1858.61 193.803 1861.95 193.803 Q1866.78 193.803 1871.76 196.879 L1868.47 205.737 Q1864.97 203.669 1861.47 203.669 Q1858.34 203.669 1855.85 205.578 Q1853.36 207.435 1852.3 210.776 Q1850.7 215.868 1850.7 221.915 L1850.7 251.407 L1841.16 251.407 Z" fill="#000000" fill-rule="nonzero" fill-opacity="1" /><path clip-path="url(#clip980)" d="M1914.2 244.458 Q1908.89 248.967 1903.96 250.823 Q1899.08 252.68 1893.46 252.68 Q1884.17 252.68 1879.19 248.171 Q1874.2 243.61 1874.2 236.555 Q1874.2 232.418 1876.06 229.023 Q1877.97 225.575 1880.99 223.507 Q1884.07 221.438 1887.89 220.377 Q1890.7 219.634 1896.37 218.945 Q1907.94 217.566 1913.4 215.656 Q1913.45 213.694 1913.45 213.163 Q1913.45 207.329 1910.75 204.942 Q1907.09 201.706 1899.87 201.706 Q1893.14 201.706 1889.9 204.093 Q1886.72 206.427 1885.18 212.421 L1875.85 211.148 Q1877.12 205.154 1880.04 201.494 Q1882.95 197.781 1888.47 195.818 Q1893.99 193.803 1901.25 193.803 Q1908.47 193.803 1912.98 195.5 Q1917.48 197.198 1919.61 199.797 Q1921.73 202.343 1922.58 206.268 Q1923.05 208.708 1923.05 215.073 L1923.05 227.803 Q1923.05 241.117 1923.64 244.67 Q1924.27 248.171 1926.08 251.407 L1916.11 251.407 Q1914.62 248.436 1914.2 244.458 M1913.4 223.135 Q1908.2 225.257 1897.81 226.742 Q1891.92 227.591 1889.48 228.652 Q1887.04 229.712 1885.71 231.781 Q1884.39 233.797 1884.39 236.29 Q1884.39 240.109 1887.25 242.655 Q1890.17 245.201 1895.74 245.201 Q1901.25 245.201 1905.55 242.814 Q1909.85 240.374 1911.86 236.184 Q1913.4 232.948 1913.4 226.636 L1913.4 223.135 Z" fill="#000000" fill-rule="nonzero" fill-opacity="1" /><path clip-path="url(#clip980)" d="M1937.91 184.627 L1937.91 173.647 L1947.45 173.647 L1947.45 184.627 L1937.91 184.627 M1937.91 251.407 L1937.91 195.076 L1947.45 195.076 L1947.45 251.407 L1937.91 251.407 Z" fill="#000000" fill-rule="nonzero" fill-opacity="1" /><path clip-path="url(#clip980)" d="M1961.99 251.407 L1961.99 195.076 L1970.58 195.076 L1970.58 203.085 Q1976.79 193.803 1988.51 193.803 Q1993.6 193.803 1997.84 195.659 Q2002.14 197.463 2004.26 200.433 Q2006.38 203.403 2007.23 207.488 Q2007.76 210.14 2007.76 216.77 L2007.76 251.407 L1998.21 251.407 L1998.21 217.141 Q1998.21 211.307 1997.1 208.442 Q1995.99 205.525 1993.12 203.828 Q1990.31 202.077 1986.49 202.077 Q1980.39 202.077 1975.94 205.95 Q1971.53 209.822 1971.53 220.642 L1971.53 251.407 L1961.99 251.407 Z" fill="#000000" fill-rule="nonzero" fill-opacity="1" /><path clip-path="url(#clip980)" d="M2013.6 272.995 L2013.6 266.099 L2076.88 266.099 L2076.88 272.995 L2013.6 272.995 Z" fill="#000000" fill-rule="nonzero" fill-opacity="1" /><path clip-path="url(#clip980)" d="M2082.6 251.407 L2082.6 173.647 L2092.15 173.647 L2092.15 251.407 L2082.6 251.407 Z" fill="#000000" fill-rule="nonzero" fill-opacity="1" /><path clip-path="url(#clip980)" d="M2103.4 223.241 Q2103.4 207.594 2112.1 200.062 Q2119.36 193.803 2129.81 193.803 Q2141.43 193.803 2148.8 201.441 Q2156.17 209.026 2156.17 222.446 Q2156.17 233.319 2152.89 239.578 Q2149.65 245.784 2143.39 249.232 Q2137.19 252.68 2129.81 252.68 Q2117.98 252.68 2110.66 245.095 Q2103.4 237.51 2103.4 223.241 M2113.21 223.241 Q2113.21 234.062 2117.93 239.472 Q2122.65 244.83 2129.81 244.83 Q2136.92 244.83 2141.64 239.419 Q2146.36 234.009 2146.36 222.923 Q2146.36 212.474 2141.59 207.116 Q2136.87 201.706 2129.81 201.706 Q2122.65 201.706 2117.93 207.063 Q2113.21 212.421 2113.21 223.241 Z" fill="#000000" fill-rule="nonzero" fill-opacity="1" /><path clip-path="url(#clip980)" d="M2163.55 234.592 L2172.99 233.107 Q2173.78 238.783 2177.39 241.806 Q2181.05 244.83 2187.58 244.83 Q2194.15 244.83 2197.34 242.177 Q2200.52 239.472 2200.52 235.865 Q2200.52 232.63 2197.71 230.773 Q2195.74 229.5 2187.95 227.538 Q2177.44 224.886 2173.36 222.976 Q2169.33 221.014 2167.21 217.619 Q2165.14 214.171 2165.14 210.034 Q2165.14 206.268 2166.84 203.085 Q2168.59 199.85 2171.56 197.728 Q2173.78 196.084 2177.6 194.97 Q2181.48 193.803 2185.88 193.803 Q2192.51 193.803 2197.49 195.712 Q2202.53 197.622 2204.92 200.91 Q2207.31 204.146 2208.21 209.609 L2198.87 210.882 Q2198.24 206.533 2195.16 204.093 Q2192.14 201.653 2186.57 201.653 Q2179.99 201.653 2177.18 203.828 Q2174.37 206.003 2174.37 208.92 Q2174.37 210.776 2175.53 212.262 Q2176.7 213.8 2179.19 214.808 Q2180.63 215.338 2187.63 217.248 Q2197.76 219.953 2201.74 221.703 Q2205.77 223.4 2208.05 226.689 Q2210.33 229.978 2210.33 234.858 Q2210.33 239.631 2207.52 243.875 Q2204.76 248.065 2199.51 250.399 Q2194.26 252.68 2187.63 252.68 Q2176.65 252.68 2170.87 248.118 Q2165.14 243.556 2163.55 234.592 Z" fill="#000000" fill-rule="nonzero" fill-opacity="1" /><path clip-path="url(#clip980)" d="M2217.86 234.592 L2227.3 233.107 Q2228.1 238.783 2231.71 241.806 Q2235.37 244.83 2241.89 244.83 Q2248.47 244.83 2251.65 242.177 Q2254.83 239.472 2254.83 235.865 Q2254.83 232.63 2252.02 230.773 Q2250.06 229.5 2242.26 227.538 Q2231.76 224.886 2227.68 222.976 Q2223.64 221.014 2221.52 217.619 Q2219.45 214.171 2219.45 210.034 Q2219.45 206.268 2221.15 203.085 Q2222.9 199.85 2225.87 197.728 Q2228.1 196.084 2231.92 194.97 Q2235.79 193.803 2240.19 193.803 Q2246.82 193.803 2251.81 195.712 Q2256.85 197.622 2259.24 200.91 Q2261.62 204.146 2262.52 209.609 L2253.19 210.882 Q2252.55 206.533 2249.48 204.093 Q2246.45 201.653 2240.88 201.653 Q2234.31 201.653 2231.49 203.828 Q2228.68 206.003 2228.68 208.92 Q2228.68 210.776 2229.85 212.262 Q2231.02 213.8 2233.51 214.808 Q2234.94 215.338 2241.94 217.248 Q2252.07 219.953 2256.05 221.703 Q2260.08 223.4 2262.37 226.689 Q2264.65 229.978 2264.65 234.858 Q2264.65 239.631 2261.83 243.875 Q2259.08 248.065 2253.83 250.399 Q2248.57 252.68 2241.94 252.68 Q2230.96 252.68 2225.18 248.118 Q2219.45 243.556 2217.86 234.592 Z" fill="#000000" fill-rule="nonzero" fill-opacity="1" /><polyline clip-path="url(#clip980)" style="stroke:#ee6677; stroke-linecap:round; stroke-linejoin:round; stroke-width:18; stroke-opacity:1; fill:none" points="1651.64,329.167 1783.8,329.167 "/>
<circle clip-path="url(#clip980)" cx="1717.72" cy="329.167" r="8.15833" fill="#ee6677" fill-rule="evenodd" fill-opacity="1" stroke="#000000" stroke-opacity="1" stroke-width="8.15833"/>
<path clip-path="url(#clip980)" d="M1827.26 368.047 L1805.83 311.716 L1815.91 311.716 L1828 345.451 Q1829.96 350.914 1831.61 356.802 Q1832.88 352.346 1835.16 346.087 L1847.68 311.716 L1857.49 311.716 L1836.17 368.047 L1827.26 368.047 Z" fill="#000000" fill-rule="nonzero" fill-opacity="1" /><path clip-path="url(#clip980)" d="M1902.69 361.098 Q1897.38 365.607 1892.45 367.463 Q1887.57 369.32 1881.95 369.32 Q1872.66 369.32 1867.68 364.811 Q1862.69 360.25 1862.69 353.195 Q1862.69 349.058 1864.55 345.663 Q1866.46 342.215 1869.48 340.147 Q1872.56 338.078 1876.38 337.017 Q1879.19 336.274 1884.86 335.585 Q1896.43 334.206 1901.89 332.296 Q1901.94 330.334 1901.94 329.803 Q1901.94 323.969 1899.24 321.582 Q1895.58 318.346 1888.36 318.346 Q1881.63 318.346 1878.39 320.733 Q1875.21 323.067 1873.67 329.061 L1864.34 327.788 Q1865.61 321.794 1868.53 318.134 Q1871.44 314.421 1876.96 312.458 Q1882.48 310.443 1889.74 310.443 Q1896.96 310.443 1901.47 312.14 Q1905.97 313.838 1908.1 316.437 Q1910.22 318.983 1911.07 322.908 Q1911.54 325.348 1911.54 331.713 L1911.54 344.443 Q1911.54 357.757 1912.13 361.31 Q1912.76 364.811 1914.57 368.047 L1904.59 368.047 Q1903.11 365.076 1902.69 361.098 M1901.89 339.775 Q1896.69 341.897 1886.3 343.382 Q1880.41 344.231 1877.97 345.292 Q1875.53 346.352 1874.2 348.421 Q1872.88 350.437 1872.88 352.93 Q1872.88 356.749 1875.74 359.295 Q1878.66 361.841 1884.23 361.841 Q1889.74 361.841 1894.04 359.454 Q1898.34 357.014 1900.35 352.824 Q1901.89 349.588 1901.89 343.276 L1901.89 339.775 Z" fill="#000000" fill-rule="nonzero" fill-opacity="1" /><path clip-path="url(#clip980)" d="M1926.13 368.047 L1926.13 290.287 L1935.68 290.287 L1935.68 368.047 L1926.13 368.047 Z" fill="#000000" fill-rule="nonzero" fill-opacity="1" /><path clip-path="url(#clip980)" d="M1941.67 389.635 L1941.67 382.739 L2004.95 382.739 L2004.95 389.635 L1941.67 389.635 Z" fill="#000000" fill-rule="nonzero" fill-opacity="1" /><path clip-path="url(#clip980)" d="M2010.68 368.047 L2010.68 290.287 L2020.23 290.287 L2020.23 368.047 L2010.68 368.047 Z" fill="#000000" fill-rule="nonzero" fill-opacity="1" /><path clip-path="url(#clip980)" d="M2031.47 339.881 Q2031.47 324.234 2040.17 316.702 Q2047.44 310.443 2057.89 310.443 Q2069.5 310.443 2076.88 318.081 Q2084.25 325.666 2084.25 339.086 Q2084.25 349.959 2080.96 356.218 Q2077.72 362.424 2071.47 365.872 Q2065.26 369.32 2057.89 369.32 Q2046.06 369.32 2038.74 361.735 Q2031.47 354.15 2031.47 339.881 M2041.28 339.881 Q2041.28 350.702 2046.01 356.112 Q2050.73 361.47 2057.89 361.47 Q2064.99 361.47 2069.72 356.059 Q2074.44 350.649 2074.44 339.563 Q2074.44 329.114 2069.66 323.756 Q2064.94 318.346 2057.89 318.346 Q2050.73 318.346 2046.01 323.703 Q2041.28 329.061 2041.28 339.881 Z" fill="#000000" fill-rule="nonzero" fill-opacity="1" /><path clip-path="url(#clip980)" d="M2091.62 351.232 L2101.06 349.747 Q2101.86 355.423 2105.47 358.446 Q2109.13 361.47 2115.65 361.47 Q2122.23 361.47 2125.41 358.817 Q2128.59 356.112 2128.59 352.505 Q2128.59 349.27 2125.78 347.413 Q2123.82 346.14 2116.02 344.178 Q2105.52 341.526 2101.43 339.616 Q2097.4 337.654 2095.28 334.259 Q2093.21 330.811 2093.21 326.674 Q2093.21 322.908 2094.91 319.725 Q2096.66 316.49 2099.63 314.368 Q2101.86 312.724 2105.68 311.61 Q2109.55 310.443 2113.95 310.443 Q2120.58 310.443 2125.57 312.352 Q2130.61 314.262 2132.99 317.55 Q2135.38 320.786 2136.28 326.249 L2126.95 327.522 Q2126.31 323.173 2123.24 320.733 Q2120.21 318.293 2114.64 318.293 Q2108.07 318.293 2105.25 320.468 Q2102.44 322.643 2102.44 325.56 Q2102.44 327.416 2103.61 328.902 Q2104.78 330.44 2107.27 331.448 Q2108.7 331.978 2115.7 333.888 Q2125.83 336.593 2129.81 338.343 Q2133.84 340.04 2136.12 343.329 Q2138.41 346.618 2138.41 351.498 Q2138.41 356.271 2135.59 360.515 Q2132.84 364.705 2127.58 367.039 Q2122.33 369.32 2115.7 369.32 Q2104.72 369.32 2098.94 364.758 Q2093.21 360.196 2091.62 351.232 Z" fill="#000000" fill-rule="nonzero" fill-opacity="1" /><path clip-path="url(#clip980)" d="M2145.94 351.232 L2155.38 349.747 Q2156.17 355.423 2159.78 358.446 Q2163.44 361.47 2169.97 361.47 Q2176.54 361.47 2179.73 358.817 Q2182.91 356.112 2182.91 352.505 Q2182.91 349.27 2180.1 347.413 Q2178.13 346.14 2170.34 344.178 Q2159.83 341.526 2155.75 339.616 Q2151.72 337.654 2149.6 334.259 Q2147.53 330.811 2147.53 326.674 Q2147.53 322.908 2149.23 319.725 Q2150.98 316.49 2153.95 314.368 Q2156.17 312.724 2159.99 311.61 Q2163.87 310.443 2168.27 310.443 Q2174.9 310.443 2179.88 312.352 Q2184.92 314.262 2187.31 317.55 Q2189.7 320.786 2190.6 326.249 L2181.26 327.522 Q2180.63 323.173 2177.55 320.733 Q2174.53 318.293 2168.96 318.293 Q2162.38 318.293 2159.57 320.468 Q2156.76 322.643 2156.76 325.56 Q2156.76 327.416 2157.92 328.902 Q2159.09 330.44 2161.58 331.448 Q2163.02 331.978 2170.02 333.888 Q2180.15 336.593 2184.13 338.343 Q2188.16 340.04 2190.44 343.329 Q2192.72 346.618 2192.72 351.498 Q2192.72 356.271 2189.91 360.515 Q2187.15 364.705 2181.9 367.039 Q2176.65 369.32 2170.02 369.32 Q2159.04 369.32 2153.26 364.758 Q2147.53 360.196 2145.94 351.232 Z" fill="#000000" fill-rule="nonzero" fill-opacity="1" /></svg>
