<?xml version="1.0" encoding="utf-8"?>
<svg xmlns="http://www.w3.org/2000/svg" xmlns:xlink="http://www.w3.org/1999/xlink" width="600" height="450" viewBox="0 0 2400 1800">
<defs>
  <clipPath id="clip430">
    <rect x="0" y="0" width="2400" height="1800"/>
  </clipPath>
</defs>
<path clip-path="url(#clip430)" d="M0 1800 L2400 1800 L2400 0 L0 0  Z" fill="#ffffff" fill-rule="evenodd" fill-opacity="1"/>
<defs>
  <clipPath id="clip431">
    <rect x="480" y="0" width="1681" height="1681"/>
  </clipPath>
</defs>
<path clip-path="url(#clip430)" d="M370.281 1506.52 L2352.76 1506.52 L2352.76 47.2441 L370.281 47.2441  Z" fill="#ffffff" fill-rule="evenodd" fill-opacity="1"/>
<defs>
  <clipPath id="clip432">
    <rect x="370" y="47" width="1983" height="1460"/>
  </clipPath>
</defs>
<polyline clip-path="url(#clip432)" style="stroke:#000000; stroke-linecap:round; stroke-linejoin:round; stroke-width:2; stroke-opacity:0.1; fill:none" points="381.859,1506.52 381.859,47.2441 "/>
<polyline clip-path="url(#clip432)" style="stroke:#000000; stroke-linecap:round; stroke-linejoin:round; stroke-width:2; stroke-opacity:0.1; fill:none" points="827.159,1506.52 827.159,47.2441 "/>
<polyline clip-path="url(#clip432)" style="stroke:#000000; stroke-linecap:round; stroke-linejoin:round; stroke-width:2; stroke-opacity:0.1; fill:none" points="1272.46,1506.52 1272.46,47.2441 "/>
<polyline clip-path="url(#clip432)" style="stroke:#000000; stroke-linecap:round; stroke-linejoin:round; stroke-width:2; stroke-opacity:0.1; fill:none" points="1717.76,1506.52 1717.76,47.2441 "/>
<polyline clip-path="url(#clip432)" style="stroke:#000000; stroke-linecap:round; stroke-linejoin:round; stroke-width:2; stroke-opacity:0.1; fill:none" points="2163.06,1506.52 2163.06,47.2441 "/>
<polyline clip-path="url(#clip432)" style="stroke:#000000; stroke-linecap:round; stroke-linejoin:round; stroke-width:2; stroke-opacity:0.1; fill:none" points="370.281,1222.39 2352.76,1222.39 "/>
<polyline clip-path="url(#clip432)" style="stroke:#000000; stroke-linecap:round; stroke-linejoin:round; stroke-width:2; stroke-opacity:0.1; fill:none" points="370.281,898.384 2352.76,898.384 "/>
<polyline clip-path="url(#clip432)" style="stroke:#000000; stroke-linecap:round; stroke-linejoin:round; stroke-width:2; stroke-opacity:0.1; fill:none" points="370.281,574.376 2352.76,574.376 "/>
<polyline clip-path="url(#clip432)" style="stroke:#000000; stroke-linecap:round; stroke-linejoin:round; stroke-width:2; stroke-opacity:0.1; fill:none" points="370.281,250.368 2352.76,250.368 "/>
<polyline clip-path="url(#clip430)" style="stroke:#000000; stroke-linecap:round; stroke-linejoin:round; stroke-width:4; stroke-opacity:1; fill:none" points="370.281,1506.52 2352.76,1506.52 "/>
<polyline clip-path="url(#clip430)" style="stroke:#000000; stroke-linecap:round; stroke-linejoin:round; stroke-width:2; stroke-opacity:0.5; fill:none" points="370.281,47.2441 2352.76,47.2441 "/>
<polyline clip-path="url(#clip430)" style="stroke:#000000; stroke-linecap:round; stroke-linejoin:round; stroke-width:4; stroke-opacity:1; fill:none" points="381.859,1506.52 381.859,1487.63 "/>
<polyline clip-path="url(#clip430)" style="stroke:#000000; stroke-linecap:round; stroke-linejoin:round; stroke-width:4; stroke-opacity:1; fill:none" points="827.159,1506.52 827.159,1487.63 "/>
<polyline clip-path="url(#clip430)" style="stroke:#000000; stroke-linecap:round; stroke-linejoin:round; stroke-width:4; stroke-opacity:1; fill:none" points="1272.46,1506.52 1272.46,1487.63 "/>
<polyline clip-path="url(#clip430)" style="stroke:#000000; stroke-linecap:round; stroke-linejoin:round; stroke-width:4; stroke-opacity:1; fill:none" points="1717.76,1506.52 1717.76,1487.63 "/>
<polyline clip-path="url(#clip430)" style="stroke:#000000; stroke-linecap:round; stroke-linejoin:round; stroke-width:4; stroke-opacity:1; fill:none" points="2163.06,1506.52 2163.06,1487.63 "/>
<path clip-path="url(#clip430)" d="M359.322 1578.04 Q359.322 1565.78 361.821 1558.33 Q364.367 1550.83 369.317 1546.78 Q374.315 1542.72 381.859 1542.72 Q387.422 1542.72 391.619 1544.98 Q395.815 1547.2 398.549 1551.44 Q401.284 1555.64 402.84 1561.72 Q404.396 1567.76 404.396 1578.04 Q404.396 1590.2 401.897 1597.7 Q399.398 1605.15 394.4 1609.25 Q389.45 1613.3 381.859 1613.3 Q371.863 1613.3 366.158 1606.14 Q359.322 1597.51 359.322 1578.04 M368.044 1578.04 Q368.044 1595.06 372.005 1600.71 Q376.012 1606.32 381.859 1606.32 Q387.705 1606.32 391.666 1600.67 Q395.673 1595.01 395.673 1578.04 Q395.673 1560.97 391.666 1555.36 Q387.705 1549.75 381.765 1549.75 Q375.918 1549.75 372.429 1554.7 Q368.044 1561.01 368.044 1578.04 Z" fill="#000000" fill-rule="nonzero" fill-opacity="1" /><path clip-path="url(#clip430)" d="M806.484 1612.12 L797.997 1612.12 L797.997 1558.04 Q794.933 1560.97 789.935 1563.89 Q784.984 1566.81 781.024 1568.28 L781.024 1560.07 Q788.143 1556.72 793.471 1551.96 Q798.799 1547.2 801.015 1542.72 L806.484 1542.72 L806.484 1612.12 Z" fill="#000000" fill-rule="nonzero" fill-opacity="1" /><path clip-path="url(#clip430)" d="M828.22 1578.04 Q828.22 1565.78 830.718 1558.33 Q833.264 1550.83 838.215 1546.78 Q843.213 1542.72 850.757 1542.72 Q856.32 1542.72 860.516 1544.98 Q864.713 1547.2 867.447 1551.44 Q870.182 1555.64 871.738 1561.72 Q873.294 1567.76 873.294 1578.04 Q873.294 1590.2 870.795 1597.7 Q868.296 1605.15 863.298 1609.25 Q858.348 1613.3 850.757 1613.3 Q840.761 1613.3 835.056 1606.14 Q828.22 1597.51 828.22 1578.04 M836.942 1578.04 Q836.942 1595.06 840.903 1600.71 Q844.91 1606.32 850.757 1606.32 Q856.603 1606.32 860.564 1600.67 Q864.571 1595.01 864.571 1578.04 Q864.571 1560.97 860.564 1555.36 Q856.603 1549.75 850.662 1549.75 Q844.816 1549.75 841.327 1554.7 Q836.942 1561.01 836.942 1578.04 Z" fill="#000000" fill-rule="nonzero" fill-opacity="1" /><path clip-path="url(#clip430)" d="M1268.26 1603.97 L1268.26 1612.12 L1222.58 1612.12 Q1222.48 1609.06 1223.57 1606.23 Q1225.31 1601.56 1229.13 1597.04 Q1233 1592.51 1240.26 1586.57 Q1251.52 1577.33 1255.48 1571.95 Q1259.45 1566.53 1259.45 1561.72 Q1259.45 1556.68 1255.82 1553.24 Q1252.23 1549.75 1246.43 1549.75 Q1240.3 1549.75 1236.63 1553.42 Q1232.95 1557.1 1232.9 1563.61 L1224.18 1562.71 Q1225.07 1552.95 1230.92 1547.86 Q1236.77 1542.72 1246.62 1542.72 Q1256.57 1542.72 1262.37 1548.24 Q1268.17 1553.75 1268.17 1561.91 Q1268.17 1566.06 1266.47 1570.07 Q1264.77 1574.07 1260.81 1578.51 Q1256.9 1582.94 1247.75 1590.67 Q1240.11 1597.08 1237.95 1599.39 Q1235.78 1601.66 1234.36 1603.97 L1268.26 1603.97 Z" fill="#000000" fill-rule="nonzero" fill-opacity="1" /><path clip-path="url(#clip430)" d="M1277.36 1578.04 Q1277.36 1565.78 1279.86 1558.33 Q1282.41 1550.83 1287.36 1546.78 Q1292.36 1542.72 1299.9 1542.72 Q1305.46 1542.72 1309.66 1544.98 Q1313.86 1547.2 1316.59 1551.44 Q1319.32 1555.64 1320.88 1561.72 Q1322.44 1567.76 1322.44 1578.04 Q1322.44 1590.2 1319.94 1597.7 Q1317.44 1605.15 1312.44 1609.25 Q1307.49 1613.3 1299.9 1613.3 Q1289.9 1613.3 1284.2 1606.14 Q1277.36 1597.51 1277.36 1578.04 M1286.08 1578.04 Q1286.08 1595.06 1290.04 1600.71 Q1294.05 1606.32 1299.9 1606.32 Q1305.75 1606.32 1309.71 1600.67 Q1313.71 1595.01 1313.71 1578.04 Q1313.71 1560.97 1309.71 1555.36 Q1305.75 1549.75 1299.8 1549.75 Q1293.96 1549.75 1290.47 1554.7 Q1286.08 1561.01 1286.08 1578.04 Z" fill="#000000" fill-rule="nonzero" fill-opacity="1" /><path clip-path="url(#clip430)" d="M1668.39 1593.88 L1676.88 1592.75 Q1678.34 1599.96 1681.83 1603.17 Q1685.37 1606.32 1690.41 1606.32 Q1696.4 1606.32 1700.5 1602.18 Q1704.65 1598.03 1704.65 1591.9 Q1704.65 1586.05 1700.83 1582.28 Q1697.01 1578.46 1691.12 1578.46 Q1688.71 1578.46 1685.13 1579.4 L1686.07 1571.95 Q1686.92 1572.05 1687.44 1572.05 Q1692.86 1572.05 1697.2 1569.22 Q1701.54 1566.39 1701.54 1560.5 Q1701.54 1555.83 1698.38 1552.76 Q1695.22 1549.7 1690.22 1549.7 Q1685.27 1549.7 1681.97 1552.81 Q1678.67 1555.92 1677.73 1562.15 L1669.24 1560.64 Q1670.8 1552.1 1676.31 1547.44 Q1681.83 1542.72 1690.03 1542.72 Q1695.69 1542.72 1700.45 1545.17 Q1705.22 1547.58 1707.72 1551.77 Q1710.26 1555.97 1710.26 1560.68 Q1710.26 1565.16 1707.86 1568.84 Q1705.45 1572.52 1700.74 1574.69 Q1706.87 1576.1 1710.26 1580.58 Q1713.66 1585.01 1713.66 1591.71 Q1713.66 1600.76 1707.06 1607.08 Q1700.45 1613.35 1690.36 1613.35 Q1681.27 1613.35 1675.23 1607.93 Q1669.24 1602.51 1668.39 1593.88 Z" fill="#000000" fill-rule="nonzero" fill-opacity="1" /><path clip-path="url(#clip430)" d="M1722.05 1578.04 Q1722.05 1565.78 1724.55 1558.33 Q1727.09 1550.83 1732.04 1546.78 Q1737.04 1542.72 1744.59 1542.72 Q1750.15 1542.72 1754.35 1544.98 Q1758.54 1547.2 1761.28 1551.44 Q1764.01 1555.64 1765.57 1561.72 Q1767.12 1567.76 1767.12 1578.04 Q1767.12 1590.2 1764.62 1597.7 Q1762.13 1605.15 1757.13 1609.25 Q1752.18 1613.3 1744.59 1613.3 Q1734.59 1613.3 1728.89 1606.14 Q1722.05 1597.51 1722.05 1578.04 M1730.77 1578.04 Q1730.77 1595.06 1734.73 1600.71 Q1738.74 1606.32 1744.59 1606.32 Q1750.43 1606.32 1754.39 1600.67 Q1758.4 1595.01 1758.4 1578.04 Q1758.4 1560.97 1754.39 1555.36 Q1750.43 1549.75 1744.49 1549.75 Q1738.65 1549.75 1735.16 1554.7 Q1730.77 1561.01 1730.77 1578.04 Z" fill="#000000" fill-rule="nonzero" fill-opacity="1" /><path clip-path="url(#clip430)" d="M2142.27 1612.12 L2142.27 1595.57 L2112.28 1595.57 L2112.28 1587.8 L2143.82 1543 L2150.75 1543 L2150.75 1587.8 L2160.09 1587.8 L2160.09 1595.57 L2150.75 1595.57 L2150.75 1612.12 L2142.27 1612.12 M2142.27 1587.8 L2142.27 1556.63 L2120.62 1587.8 L2142.27 1587.8 Z" fill="#000000" fill-rule="nonzero" fill-opacity="1" /><path clip-path="url(#clip430)" d="M2168.76 1578.04 Q2168.76 1565.78 2171.26 1558.33 Q2173.81 1550.83 2178.76 1546.78 Q2183.76 1542.72 2191.3 1542.72 Q2196.86 1542.72 2201.06 1544.98 Q2205.26 1547.2 2207.99 1551.44 Q2210.73 1555.64 2212.28 1561.72 Q2213.84 1567.76 2213.84 1578.04 Q2213.84 1590.2 2211.34 1597.7 Q2208.84 1605.15 2203.84 1609.25 Q2198.89 1613.3 2191.3 1613.3 Q2181.3 1613.3 2175.6 1606.14 Q2168.76 1597.51 2168.76 1578.04 M2177.49 1578.04 Q2177.49 1595.06 2181.45 1600.71 Q2185.45 1606.32 2191.3 1606.32 Q2197.15 1606.32 2201.11 1600.67 Q2205.11 1595.01 2205.11 1578.04 Q2205.11 1560.97 2201.11 1555.36 Q2197.15 1549.75 2191.21 1549.75 Q2185.36 1549.75 2181.87 1554.7 Q2177.49 1561.01 2177.49 1578.04 Z" fill="#000000" fill-rule="nonzero" fill-opacity="1" /><path clip-path="url(#clip430)" d="M1260.95 1721.38 L1270.82 1722.6 Q1268.48 1731.24 1262.17 1736.01 Q1255.86 1740.79 1246.05 1740.79 Q1233.69 1740.79 1226.42 1733.2 Q1219.21 1725.57 1219.21 1711.83 Q1219.21 1697.61 1226.53 1689.76 Q1233.85 1681.91 1245.51 1681.91 Q1256.81 1681.91 1263.97 1689.6 Q1271.13 1697.29 1271.13 1711.24 Q1271.13 1712.09 1271.08 1713.79 L1229.07 1713.79 Q1229.6 1723.07 1234.32 1728.01 Q1239.04 1732.94 1246.1 1732.94 Q1251.35 1732.94 1255.06 1730.18 Q1258.78 1727.42 1260.95 1721.38 M1229.6 1705.94 L1261.06 1705.94 Q1260.42 1698.83 1257.45 1695.28 Q1252.89 1689.76 1245.62 1689.76 Q1239.04 1689.76 1234.54 1694.16 Q1230.08 1698.57 1229.6 1705.94 Z" fill="#000000" fill-rule="nonzero" fill-opacity="1" /><path clip-path="url(#clip430)" d="M1282.8 1761.1 L1282.8 1683.18 L1291.5 1683.18 L1291.5 1690.5 Q1294.58 1686.21 1298.45 1684.09 Q1302.32 1681.91 1307.84 1681.91 Q1315.05 1681.91 1320.57 1685.62 Q1326.09 1689.34 1328.9 1696.13 Q1331.71 1702.86 1331.71 1710.93 Q1331.71 1719.57 1328.58 1726.52 Q1325.5 1733.42 1319.56 1737.13 Q1313.67 1740.79 1307.15 1740.79 Q1302.38 1740.79 1298.56 1738.77 Q1294.79 1736.76 1292.35 1733.68 L1292.35 1761.1 L1282.8 1761.1 M1291.45 1711.67 Q1291.45 1722.54 1295.85 1727.74 Q1300.25 1732.94 1306.51 1732.94 Q1312.88 1732.94 1317.39 1727.58 Q1321.95 1722.17 1321.95 1710.87 Q1321.95 1700.11 1317.49 1694.75 Q1313.09 1689.39 1306.94 1689.39 Q1300.84 1689.39 1296.12 1695.12 Q1291.45 1700.79 1291.45 1711.67 Z" fill="#000000" fill-rule="nonzero" fill-opacity="1" /><path clip-path="url(#clip430)" d="M1339.67 1711.35 Q1339.67 1695.7 1348.36 1688.17 Q1355.63 1681.91 1366.08 1681.91 Q1377.7 1681.91 1385.07 1689.55 Q1392.44 1697.13 1392.44 1710.55 Q1392.44 1721.43 1389.15 1727.69 Q1385.92 1733.89 1379.66 1737.34 Q1373.45 1740.79 1366.08 1740.79 Q1354.25 1740.79 1346.93 1733.2 Q1339.67 1725.62 1339.67 1711.35 M1349.48 1711.35 Q1349.48 1722.17 1354.2 1727.58 Q1358.92 1732.94 1366.08 1732.94 Q1373.19 1732.94 1377.91 1727.53 Q1382.63 1722.12 1382.63 1711.03 Q1382.63 1700.58 1377.86 1695.23 Q1373.13 1689.82 1366.08 1689.82 Q1358.92 1689.82 1354.2 1695.17 Q1349.48 1700.53 1349.48 1711.35 Z" fill="#000000" fill-rule="nonzero" fill-opacity="1" /><path clip-path="url(#clip430)" d="M1440.39 1718.88 L1449.78 1720.1 Q1448.24 1729.81 1441.88 1735.33 Q1435.57 1740.79 1426.34 1740.79 Q1414.77 1740.79 1407.72 1733.26 Q1400.72 1725.67 1400.72 1711.56 Q1400.72 1702.44 1403.74 1695.6 Q1406.76 1688.75 1412.92 1685.36 Q1419.12 1681.91 1426.39 1681.91 Q1435.57 1681.91 1441.4 1686.58 Q1447.23 1691.19 1448.88 1699.73 L1439.6 1701.17 Q1438.27 1695.49 1434.88 1692.63 Q1431.53 1689.76 1426.76 1689.76 Q1419.55 1689.76 1415.04 1694.96 Q1410.53 1700.11 1410.53 1711.3 Q1410.53 1722.65 1414.88 1727.79 Q1419.23 1732.94 1426.23 1732.94 Q1431.85 1732.94 1435.62 1729.49 Q1439.38 1726.04 1440.39 1718.88 Z" fill="#000000" fill-rule="nonzero" fill-opacity="1" /><path clip-path="url(#clip430)" d="M1457.95 1739.52 L1457.95 1661.76 L1467.5 1661.76 L1467.5 1689.66 Q1474.18 1681.91 1484.36 1681.91 Q1490.62 1681.91 1495.24 1684.4 Q1499.85 1686.84 1501.82 1691.19 Q1503.83 1695.54 1503.83 1703.82 L1503.83 1739.52 L1494.28 1739.52 L1494.28 1703.82 Q1494.28 1696.66 1491.15 1693.42 Q1488.08 1690.13 1482.4 1690.13 Q1478.16 1690.13 1474.39 1692.36 Q1470.68 1694.54 1469.09 1698.3 Q1467.5 1702.07 1467.5 1708.7 L1467.5 1739.52 L1457.95 1739.52 Z" fill="#000000" fill-rule="nonzero" fill-opacity="1" /><polyline clip-path="url(#clip430)" style="stroke:#000000; stroke-linecap:round; stroke-linejoin:round; stroke-width:4; stroke-opacity:1; fill:none" points="370.281,1506.52 370.281,47.2441 "/>
<polyline clip-path="url(#clip430)" style="stroke:#000000; stroke-linecap:round; stroke-linejoin:round; stroke-width:2; stroke-opacity:0.5; fill:none" points="2352.76,1506.52 2352.76,47.2441 "/>
<polyline clip-path="url(#clip430)" style="stroke:#000000; stroke-linecap:round; stroke-linejoin:round; stroke-width:4; stroke-opacity:1; fill:none" points="370.281,1222.39 389.179,1222.39 "/>
<polyline clip-path="url(#clip430)" style="stroke:#000000; stroke-linecap:round; stroke-linejoin:round; stroke-width:4; stroke-opacity:1; fill:none" points="370.281,898.384 389.179,898.384 "/>
<polyline clip-path="url(#clip430)" style="stroke:#000000; stroke-linecap:round; stroke-linejoin:round; stroke-width:4; stroke-opacity:1; fill:none" points="370.281,574.376 389.179,574.376 "/>
<polyline clip-path="url(#clip430)" style="stroke:#000000; stroke-linecap:round; stroke-linejoin:round; stroke-width:4; stroke-opacity:1; fill:none" points="370.281,250.368 389.179,250.368 "/>
<path clip-path="url(#clip430)" d="M155.446 1222.86 Q155.446 1210.6 157.945 1203.16 Q160.491 1195.66 165.442 1191.6 Q170.439 1187.55 177.983 1187.55 Q183.547 1187.55 187.743 1189.81 Q191.939 1192.03 194.674 1196.27 Q197.408 1200.47 198.964 1206.55 Q200.52 1212.58 200.52 1222.86 Q200.52 1235.03 198.021 1242.52 Q195.522 1249.97 190.525 1254.08 Q185.574 1258.13 177.983 1258.13 Q167.988 1258.13 162.283 1250.96 Q155.446 1242.34 155.446 1222.86 M164.169 1222.86 Q164.169 1239.88 168.129 1245.54 Q172.137 1251.15 177.983 1251.15 Q183.83 1251.15 187.79 1245.49 Q191.798 1239.84 191.798 1222.86 Q191.798 1205.8 187.79 1200.18 Q183.83 1194.57 177.889 1194.57 Q172.042 1194.57 168.553 1199.52 Q164.169 1205.84 164.169 1222.86 Z" fill="#000000" fill-rule="nonzero" fill-opacity="1" /><path clip-path="url(#clip430)" d="M213.91 1256.95 L213.91 1247.29 L223.576 1247.29 L223.576 1256.95 L213.91 1256.95 Z" fill="#000000" fill-rule="nonzero" fill-opacity="1" /><path clip-path="url(#clip430)" d="M267.943 1256.95 L259.456 1256.95 L259.456 1202.87 Q256.391 1205.8 251.394 1208.72 Q246.443 1211.64 242.483 1213.1 L242.483 1204.9 Q249.602 1201.55 254.93 1196.79 Q260.258 1192.03 262.474 1187.55 L267.943 1187.55 L267.943 1256.95 Z" fill="#000000" fill-rule="nonzero" fill-opacity="1" /><path clip-path="url(#clip430)" d="M334.281 1248.79 L334.281 1256.95 L288.594 1256.95 Q288.5 1253.89 289.584 1251.06 Q291.329 1246.39 295.148 1241.86 Q299.014 1237.34 306.275 1231.4 Q317.543 1222.16 321.504 1216.78 Q325.464 1211.36 325.464 1206.55 Q325.464 1201.5 321.834 1198.06 Q318.25 1194.57 312.451 1194.57 Q306.322 1194.57 302.644 1198.25 Q298.967 1201.93 298.92 1208.44 L290.197 1207.54 Q291.093 1197.78 296.939 1192.69 Q302.786 1187.55 312.64 1187.55 Q322.588 1187.55 328.387 1193.07 Q334.187 1198.58 334.187 1206.74 Q334.187 1210.89 332.489 1214.9 Q330.792 1218.9 326.832 1223.33 Q322.918 1227.77 313.771 1235.5 Q306.133 1241.91 303.964 1244.22 Q301.796 1246.48 300.381 1248.79 L334.281 1248.79 Z" fill="#000000" fill-rule="nonzero" fill-opacity="1" /><path clip-path="url(#clip430)" d="M154.22 898.855 Q154.22 886.596 156.719 879.147 Q159.265 871.65 164.216 867.596 Q169.213 863.541 176.757 863.541 Q182.321 863.541 186.517 865.804 Q190.713 868.02 193.448 872.263 Q196.183 876.46 197.738 882.542 Q199.294 888.577 199.294 898.855 Q199.294 911.02 196.795 918.516 Q194.297 925.966 189.299 930.068 Q184.348 934.122 176.757 934.122 Q166.762 934.122 161.057 926.956 Q154.22 918.328 154.22 898.855 M162.943 898.855 Q162.943 915.876 166.903 921.534 Q170.911 927.144 176.757 927.144 Q182.604 927.144 186.564 921.487 Q190.572 915.829 190.572 898.855 Q190.572 881.787 186.564 876.177 Q182.604 870.566 176.663 870.566 Q170.817 870.566 167.327 875.517 Q162.943 881.834 162.943 898.855 Z" fill="#000000" fill-rule="nonzero" fill-opacity="1" /><path clip-path="url(#clip430)" d="M212.685 932.944 L212.685 923.278 L222.35 923.278 L222.35 932.944 L212.685 932.944 Z" fill="#000000" fill-rule="nonzero" fill-opacity="1" /><path clip-path="url(#clip430)" d="M266.717 932.944 L258.23 932.944 L258.23 878.864 Q255.166 881.787 250.168 884.711 Q245.217 887.634 241.257 889.095 L241.257 880.892 Q248.376 877.544 253.704 872.782 Q259.032 868.02 261.248 863.541 L266.717 863.541 L266.717 932.944 Z" fill="#000000" fill-rule="nonzero" fill-opacity="1" /><path clip-path="url(#clip430)" d="M288.453 914.839 L297.364 914.084 Q298.354 920.591 301.937 923.891 Q305.567 927.144 310.66 927.144 Q316.789 927.144 321.032 922.524 Q325.276 917.903 325.276 910.265 Q325.276 903.004 321.174 898.808 Q317.119 894.612 310.518 894.612 Q306.416 894.612 303.116 896.498 Q299.815 898.337 297.929 901.307 L289.961 900.27 L296.656 864.767 L331.028 864.767 L331.028 872.876 L303.446 872.876 L299.721 891.453 Q305.945 887.115 312.781 887.115 Q321.834 887.115 328.057 893.386 Q334.281 899.657 334.281 909.511 Q334.281 918.893 328.812 925.73 Q322.164 934.122 310.66 934.122 Q301.23 934.122 295.242 928.842 Q289.301 923.561 288.453 914.839 Z" fill="#000000" fill-rule="nonzero" fill-opacity="1" /><path clip-path="url(#clip430)" d="M154.597 574.847 Q154.597 562.588 157.096 555.139 Q159.642 547.642 164.593 543.588 Q169.591 539.533 177.134 539.533 Q182.698 539.533 186.894 541.796 Q191.09 544.012 193.825 548.255 Q196.56 552.452 198.116 558.534 Q199.672 564.569 199.672 574.847 Q199.672 587.012 197.173 594.508 Q194.674 601.958 189.676 606.06 Q184.725 610.114 177.134 610.114 Q167.139 610.114 161.434 602.948 Q154.597 594.32 154.597 574.847 M163.32 574.847 Q163.32 591.868 167.28 597.526 Q171.288 603.136 177.134 603.136 Q182.981 603.136 186.941 597.479 Q190.949 591.821 190.949 574.847 Q190.949 557.779 186.941 552.169 Q182.981 546.558 177.04 546.558 Q171.194 546.558 167.705 551.509 Q163.32 557.826 163.32 574.847 Z" fill="#000000" fill-rule="nonzero" fill-opacity="1" /><path clip-path="url(#clip430)" d="M213.062 608.936 L213.062 599.27 L222.727 599.27 L222.727 608.936 L213.062 608.936 Z" fill="#000000" fill-rule="nonzero" fill-opacity="1" /><path clip-path="url(#clip430)" d="M267.094 608.936 L258.607 608.936 L258.607 554.856 Q255.543 557.779 250.545 560.703 Q245.594 563.626 241.634 565.087 L241.634 556.883 Q248.753 553.536 254.081 548.774 Q259.409 544.012 261.625 539.533 L267.094 539.533 L267.094 608.936 Z" fill="#000000" fill-rule="nonzero" fill-opacity="1" /><path clip-path="url(#clip430)" d="M301.89 571.452 Q296.609 569.519 294.063 565.936 Q291.517 562.353 291.517 557.355 Q291.517 549.811 296.939 544.672 Q302.361 539.533 311.367 539.533 Q320.419 539.533 325.936 544.813 Q331.452 550.047 331.452 557.591 Q331.452 562.4 328.906 565.983 Q326.407 569.519 321.268 571.452 Q327.633 573.527 330.933 578.148 Q334.281 582.768 334.281 589.18 Q334.281 598.044 328.01 604.079 Q321.74 610.114 311.508 610.114 Q301.277 610.114 295.006 604.079 Q288.735 597.997 288.735 588.945 Q288.735 582.202 292.13 577.676 Q295.572 573.103 301.89 571.452 M300.193 557.072 Q300.193 561.976 303.352 565.087 Q306.51 568.199 311.555 568.199 Q316.459 568.199 319.571 565.135 Q322.73 562.023 322.73 557.544 Q322.73 552.876 319.476 549.717 Q316.27 546.511 311.461 546.511 Q306.605 546.511 303.399 549.623 Q300.193 552.734 300.193 557.072 M297.458 588.992 Q297.458 592.622 299.155 596.017 Q300.9 599.412 304.294 601.298 Q307.689 603.136 311.603 603.136 Q317.685 603.136 321.645 599.223 Q325.606 595.31 325.606 589.275 Q325.606 583.145 321.504 579.138 Q317.449 575.13 311.32 575.13 Q305.332 575.13 301.371 579.091 Q297.458 583.051 297.458 588.992 Z" fill="#000000" fill-rule="nonzero" fill-opacity="1" /><path clip-path="url(#clip430)" d="M168.082 250.839 Q168.082 238.58 170.581 231.131 Q173.127 223.634 178.077 219.58 Q183.075 215.525 190.619 215.525 Q196.183 215.525 200.379 217.788 Q204.575 220.004 207.31 224.247 Q210.044 228.444 211.6 234.526 Q213.156 240.561 213.156 250.839 Q213.156 263.004 210.657 270.5 Q208.158 277.95 203.161 282.052 Q198.21 286.106 190.619 286.106 Q180.623 286.106 174.918 278.94 Q168.082 270.312 168.082 250.839 M176.804 250.839 Q176.804 267.86 180.765 273.518 Q184.773 279.128 190.619 279.128 Q196.465 279.128 200.426 273.471 Q204.434 267.813 204.434 250.839 Q204.434 233.771 200.426 228.161 Q196.465 222.55 190.525 222.55 Q184.678 222.55 181.189 227.501 Q176.804 233.818 176.804 250.839 Z" fill="#000000" fill-rule="nonzero" fill-opacity="1" /><path clip-path="url(#clip430)" d="M226.546 284.928 L226.546 275.262 L236.212 275.262 L236.212 284.928 L226.546 284.928 Z" fill="#000000" fill-rule="nonzero" fill-opacity="1" /><path clip-path="url(#clip430)" d="M293.215 276.771 L293.215 284.928 L247.527 284.928 Q247.433 281.863 248.518 279.034 Q250.262 274.366 254.081 269.84 Q257.947 265.314 265.208 259.373 Q276.477 250.132 280.437 244.757 Q284.398 239.335 284.398 234.526 Q284.398 229.481 280.767 226.039 Q277.184 222.55 271.385 222.55 Q265.255 222.55 261.578 226.228 Q257.9 229.905 257.853 236.412 L249.13 235.516 Q250.026 225.756 255.873 220.664 Q261.719 215.525 271.573 215.525 Q281.522 215.525 287.321 221.041 Q293.12 226.558 293.12 234.714 Q293.12 238.863 291.423 242.871 Q289.726 246.879 285.765 251.311 Q281.852 255.743 272.705 263.475 Q265.067 269.887 262.898 272.198 Q260.729 274.461 259.315 276.771 L293.215 276.771 Z" fill="#000000" fill-rule="nonzero" fill-opacity="1" /><path clip-path="url(#clip430)" d="M334.281 284.928 L325.794 284.928 L325.794 230.848 Q322.73 233.771 317.732 236.695 Q312.781 239.618 308.821 241.079 L308.821 232.875 Q315.94 229.528 321.268 224.766 Q326.596 220.004 328.812 215.525 L334.281 215.525 L334.281 284.928 Z" fill="#000000" fill-rule="nonzero" fill-opacity="1" /><path clip-path="url(#clip430)" d="M94.8922 867.905 L17.1322 867.905 L17.1322 858.357 L94.8922 858.357 L94.8922 867.905 Z" fill="#000000" fill-rule="nonzero" fill-opacity="1" /><path clip-path="url(#clip430)" d="M66.7267 847.112 Q51.0792 847.112 43.5472 838.413 Q37.2882 831.146 37.2882 820.697 Q37.2882 809.081 44.9263 801.708 Q52.5114 794.335 65.9311 794.335 Q76.8047 794.335 83.0637 797.623 Q89.2697 800.859 92.7174 807.118 Q96.1652 813.324 96.1652 820.697 Q96.1652 832.525 88.5801 839.845 Q80.9951 847.112 66.7267 847.112 M66.7267 837.299 Q77.5473 837.299 82.9576 832.578 Q88.3149 827.858 88.3149 820.697 Q88.3149 813.589 82.9046 808.868 Q77.4943 804.148 66.4084 804.148 Q55.9591 804.148 50.6018 808.921 Q45.1915 813.642 45.1915 820.697 Q45.1915 827.858 50.5488 832.578 Q55.9061 837.299 66.7267 837.299 Z" fill="#000000" fill-rule="nonzero" fill-opacity="1" /><path clip-path="url(#clip430)" d="M78.0778 786.962 L76.5926 777.52 Q82.2681 776.725 85.2915 773.118 Q88.3149 769.458 88.3149 762.934 Q88.3149 756.357 85.6628 753.174 Q82.9576 749.991 79.3508 749.991 Q76.1152 749.991 74.2587 752.803 Q72.9857 754.765 71.0231 762.563 Q68.371 773.065 66.4615 777.149 Q64.4989 781.18 61.1042 783.302 Q57.6565 785.371 53.5192 785.371 Q49.7532 785.371 46.5706 783.673 Q43.335 781.923 41.2134 778.953 Q39.569 776.725 38.4552 772.906 Q37.2882 769.034 37.2882 764.631 Q37.2882 758.001 39.1978 753.015 Q41.1073 747.976 44.3959 745.589 Q47.6315 743.202 53.0948 742.3 L54.3678 751.636 Q50.0184 752.272 47.5784 755.349 Q45.1385 758.372 45.1385 763.942 Q45.1385 770.519 47.3132 773.33 Q49.488 776.141 52.4053 776.141 Q54.2618 776.141 55.7469 774.974 Q57.2852 773.807 58.293 771.314 Q58.8234 769.882 60.7329 762.881 Q63.4381 752.75 65.1885 748.772 Q66.8858 744.74 70.1744 742.459 Q73.4631 740.179 78.343 740.179 Q83.1168 740.179 87.3602 742.99 Q91.5505 745.748 93.8844 750.999 Q96.1652 756.25 96.1652 762.881 Q96.1652 773.861 91.6035 779.642 Q87.0419 785.371 78.0778 786.962 Z" fill="#000000" fill-rule="nonzero" fill-opacity="1" /><path clip-path="url(#clip430)" d="M78.0778 732.647 L76.5926 723.205 Q82.2681 722.41 85.2915 718.803 Q88.3149 715.143 88.3149 708.619 Q88.3149 702.041 85.6628 698.859 Q82.9576 695.676 79.3508 695.676 Q76.1152 695.676 74.2587 698.487 Q72.9857 700.45 71.0231 708.247 Q68.371 718.75 66.4615 722.834 Q64.4989 726.865 61.1042 728.987 Q57.6565 731.055 53.5192 731.055 Q49.7532 731.055 46.5706 729.358 Q43.335 727.608 41.2134 724.637 Q39.569 722.41 38.4552 718.59 Q37.2882 714.718 37.2882 710.316 Q37.2882 703.686 39.1978 698.7 Q41.1073 693.661 44.3959 691.274 Q47.6315 688.887 53.0948 687.985 L54.3678 697.32 Q50.0184 697.957 47.5784 701.033 Q45.1385 704.057 45.1385 709.626 Q45.1385 716.204 47.3132 719.015 Q49.488 721.826 52.4053 721.826 Q54.2618 721.826 55.7469 720.659 Q57.2852 719.492 58.293 716.999 Q58.8234 715.567 60.7329 708.565 Q63.4381 698.434 65.1885 694.456 Q66.8858 690.425 70.1744 688.144 Q73.4631 685.863 78.343 685.863 Q83.1168 685.863 87.3602 688.675 Q91.5505 691.433 93.8844 696.684 Q96.1652 701.935 96.1652 708.565 Q96.1652 719.545 91.6035 725.327 Q87.0419 731.055 78.0778 732.647 Z" fill="#000000" fill-rule="nonzero" fill-opacity="1" /><polyline clip-path="url(#clip432)" style="stroke:#4477aa; stroke-linecap:round; stroke-linejoin:round; stroke-width:8; stroke-opacity:1; fill:none" points="426.389,88.5445 470.919,428.622 515.449,599.829 559.979,678.058 604.509,722.038 649.039,751.433 693.569,773.245 738.099,790.489 782.629,804.648 827.159,816.622 871.689,826.962 916.219,836.13 960.749,844.508 1005.28,852.528 1049.81,862.918 1094.34,884.577 1138.87,914.738 1183.4,947.221 1227.93,975.851 1272.46,1001.75 1316.99,1025.8 1361.52,1048.55 1406.05,1070.39 1450.58,1091.44 1495.11,1111.9 1539.64,1131.73 1584.17,1151.14 1628.7,1169.96 1673.23,1188.27 1717.76,1206.25 1762.29,1223.67 1806.82,1240.73 1851.35,1257.44 1895.88,1273.66 1940.41,1289.62 1984.94,1305.05 2029.47,1320.24 2074,1334.96 2118.53,1349.43 2163.06,1363.46 2207.59,1377.21 2252.12,1390.7 2296.65,1403.83 "/>
<circle clip-path="url(#clip432)" cx="426.389" cy="88.5445" r="14.4" fill="#4477aa" fill-rule="evenodd" fill-opacity="1" stroke="#000000" stroke-opacity="1" stroke-width="3.6"/>
<circle clip-path="url(#clip432)" cx="470.919" cy="428.622" r="14.4" fill="#4477aa" fill-rule="evenodd" fill-opacity="1" stroke="#000000" stroke-opacity="1" stroke-width="3.6"/>
<circle clip-path="url(#clip432)" cx="515.449" cy="599.829" r="14.4" fill="#4477aa" fill-rule="evenodd" fill-opacity="1" stroke="#000000" stroke-opacity="1" stroke-width="3.6"/>
<circle clip-path="url(#clip432)" cx="559.979" cy="678.058" r="14.4" fill="#4477aa" fill-rule="evenodd" fill-opacity="1" stroke="#000000" stroke-opacity="1" stroke-width="3.6"/>
<circle clip-path="url(#clip432)" cx="604.509" cy="722.038" r="14.4" fill="#4477aa" fill-rule="evenodd" fill-opacity="1" stroke="#000000" stroke-opacity="1" stroke-width="3.6"/>
<circle clip-path="url(#clip432)" cx="649.039" cy="751.433" r="14.4" fill="#4477aa" fill-rule="evenodd" fill-opacity="1" stroke="#000000" stroke-opacity="1" stroke-width="3.6"/>
<circle clip-path="url(#clip432)" cx="693.569" cy="773.245" r="14.4" fill="#4477aa" fill-rule="evenodd" fill-opacity="1" stroke="#000000" stroke-opacity="1" stroke-width="3.6"/>
<circle clip-path="url(#clip432)" cx="738.099" cy="790.489" r="14.4" fill="#4477aa" fill-rule="evenodd" fill-opacity="1" stroke="#000000" stroke-opacity="1" stroke-width="3.6"/>
<circle clip-path="url(#clip432)" cx="782.629" cy="804.648" r="14.4" fill="#4477aa" fill-rule="evenodd" fill-opacity="1" stroke="#000000" stroke-opacity="1" stroke-width="3.6"/>
<circle clip-path="url(#clip432)" cx="827.159" cy="816.622" r="14.4" fill="#4477aa" fill-rule="evenodd" fill-opacity="1" stroke="#000000" stroke-opacity="1" stroke-width="3.6"/>
<circle clip-path="url(#clip432)" cx="871.689" cy="826.962" r="14.4" fill="#4477aa" fill-rule="evenodd" fill-opacity="1" stroke="#000000" stroke-opacity="1" stroke-width="3.6"/>
<circle clip-path="url(#clip432)" cx="916.219" cy="836.13" r="14.4" fill="#4477aa" fill-rule="evenodd" fill-opacity="1" stroke="#000000" stroke-opacity="1" stroke-width="3.6"/>
<circle clip-path="url(#clip432)" cx="960.749" cy="844.508" r="14.4" fill="#4477aa" fill-rule="evenodd" fill-opacity="1" stroke="#000000" stroke-opacity="1" stroke-width="3.6"/>
<circle clip-path="url(#clip432)" cx="1005.28" cy="852.528" r="14.4" fill="#4477aa" fill-rule="evenodd" fill-opacity="1" stroke="#000000" stroke-opacity="1" stroke-width="3.6"/>
<circle clip-path="url(#clip432)" cx="1049.81" cy="862.918" r="14.4" fill="#4477aa" fill-rule="evenodd" fill-opacity="1" stroke="#000000" stroke-opacity="1" stroke-width="3.6"/>
<circle clip-path="url(#clip432)" cx="1094.34" cy="884.577" r="14.4" fill="#4477aa" fill-rule="evenodd" fill-opacity="1" stroke="#000000" stroke-opacity="1" stroke-width="3.6"/>
<circle clip-path="url(#clip432)" cx="1138.87" cy="914.738" r="14.4" fill="#4477aa" fill-rule="evenodd" fill-opacity="1" stroke="#000000" stroke-opacity="1" stroke-width="3.6"/>
<circle clip-path="url(#clip432)" cx="1183.4" cy="947.221" r="14.4" fill="#4477aa" fill-rule="evenodd" fill-opacity="1" stroke="#000000" stroke-opacity="1" stroke-width="3.6"/>
<circle clip-path="url(#clip432)" cx="1227.93" cy="975.851" r="14.4" fill="#4477aa" fill-rule="evenodd" fill-opacity="1" stroke="#000000" stroke-opacity="1" stroke-width="3.6"/>
<circle clip-path="url(#clip432)" cx="1272.46" cy="1001.75" r="14.4" fill="#4477aa" fill-rule="evenodd" fill-opacity="1" stroke="#000000" stroke-opacity="1" stroke-width="3.6"/>
<circle clip-path="url(#clip432)" cx="1316.99" cy="1025.8" r="14.4" fill="#4477aa" fill-rule="evenodd" fill-opacity="1" stroke="#000000" stroke-opacity="1" stroke-width="3.6"/>
<circle clip-path="url(#clip432)" cx="1361.52" cy="1048.55" r="14.4" fill="#4477aa" fill-rule="evenodd" fill-opacity="1" stroke="#000000" stroke-opacity="1" stroke-width="3.6"/>
<circle clip-path="url(#clip432)" cx="1406.05" cy="1070.39" r="14.4" fill="#4477aa" fill-rule="evenodd" fill-opacity="1" stroke="#000000" stroke-opacity="1" stroke-width="3.6"/>
<circle clip-path="url(#clip432)" cx="1450.58" cy="1091.44" r="14.4" fill="#4477aa" fill-rule="evenodd" fill-opacity="1" stroke="#000000" stroke-opacity="1" stroke-width="3.6"/>
<circle clip-path="url(#clip432)" cx="1495.11" cy="1111.9" r="14.4" fill="#4477aa" fill-rule="evenodd" fill-opacity="1" stroke="#000000" stroke-opacity="1" stroke-width="3.6"/>
<circle clip-path="url(#clip432)" cx="1539.64" cy="1131.73" r="14.4" fill="#4477aa" fill-rule="evenodd" fill-opacity="1" stroke="#000000" stroke-opacity="1" stroke-width="3.6"/>
<circle clip-path="url(#clip432)" cx="1584.17" cy="1151.14" r="14.4" fill="#4477aa" fill-rule="evenodd" fill-opacity="1" stroke="#000000" stroke-opacity="1" stroke-width="3.6"/>
<circle clip-path="url(#clip432)" cx="1628.7" cy="1169.96" r="14.4" fill="#4477aa" fill-rule="evenodd" fill-opacity="1" stroke="#000000" stroke-opacity="1" stroke-width="3.6"/>
<circle clip-path="url(#clip432)" cx="1673.23" cy="1188.27" r="14.4" fill="#4477aa" fill-rule="evenodd" fill-opacity="1" stroke="#000000" stroke-opacity="1" stroke-width="3.6"/>
<circle clip-path="url(#clip432)" cx="1717.76" cy="1206.25" r="14.4" fill="#4477aa" fill-rule="evenodd" fill-opacity="1" stroke="#000000" stroke-opacity="1" stroke-width="3.6"/>
<circle clip-path="url(#clip432)" cx="1762.29" cy="1223.67" r="14.4" fill="#4477aa" fill-rule="evenodd" fill-opacity="1" stroke="#000000" stroke-opacity="1" stroke-width="3.6"/>
<circle clip-path="url(#clip432)" cx="1806.82" cy="1240.73" r="14.4" fill="#4477aa" fill-rule="evenodd" fill-opacity="1" stroke="#000000" stroke-opacity="1" stroke-width="3.6"/>
<circle clip-path="url(#clip432)" cx="1851.35" cy="1257.44" r="14.4" fill="#4477aa" fill-rule="evenodd" fill-opacity="1" stroke="#000000" stroke-opacity="1" stroke-width="3.6"/>
<circle clip-path="url(#clip432)" cx="1895.88" cy="1273.66" r="14.4" fill="#4477aa" fill-rule="evenodd" fill-opacity="1" stroke="#000000" stroke-opacity="1" stroke-width="3.6"/>
<circle clip-path="url(#clip432)" cx="1940.41" cy="1289.62" r="14.4" fill="#4477aa" fill-rule="evenodd" fill-opacity="1" stroke="#000000" stroke-opacity="1" stroke-width="3.6"/>
<circle clip-path="url(#clip432)" cx="1984.94" cy="1305.05" r="14.4" fill="#4477aa" fill-rule="evenodd" fill-opacity="1" stroke="#000000" stroke-opacity="1" stroke-width="3.6"/>
<circle clip-path="url(#clip432)" cx="2029.47" cy="1320.24" r="14.4" fill="#4477aa" fill-rule="evenodd" fill-opacity="1" stroke="#000000" stroke-opacity="1" stroke-width="3.6"/>
<circle clip-path="url(#clip432)" cx="2074" cy="1334.96" r="14.4" fill="#4477aa" fill-rule="evenodd" fill-opacity="1" stroke="#000000" stroke-opacity="1" stroke-width="3.6"/>
<circle clip-path="url(#clip432)" cx="2118.53" cy="1349.43" r="14.4" fill="#4477aa" fill-rule="evenodd" fill-opacity="1" stroke="#000000" stroke-opacity="1" stroke-width="3.6"/>
<circle clip-path="url(#clip432)" cx="2163.06" cy="1363.46" r="14.4" fill="#4477aa" fill-rule="evenodd" fill-opacity="1" stroke="#000000" stroke-opacity="1" stroke-width="3.6"/>
<circle clip-path="url(#clip432)" cx="2207.59" cy="1377.21" r="14.4" fill="#4477aa" fill-rule="evenodd" fill-opacity="1" stroke="#000000" stroke-opacity="1" stroke-width="3.6"/>
<circle clip-path="url(#clip432)" cx="2252.12" cy="1390.7" r="14.4" fill="#4477aa" fill-rule="evenodd" fill-opacity="1" stroke="#000000" stroke-opacity="1" stroke-width="3.6"/>
<circle clip-path="url(#clip432)" cx="2296.65" cy="1403.83" r="14.4" fill="#4477aa" fill-rule="evenodd" fill-opacity="1" stroke="#000000" stroke-opacity="1" stroke-width="3.6"/>
<polyline clip-path="url(#clip432)" style="stroke:#ee6677; stroke-linecap:round; stroke-linejoin:round; stroke-width:8; stroke-opacity:1; fill:none" points="426.389,804.215 470.919,1044.16 515.449,1121.8 559.979,1147.41 604.509,1157.83 649.039,1162.63 693.569,1165.07 738.099,1166.6 782.629,1167.91 827.159,1169.39 871.689,1171.7 916.219,1175.33 960.749,1181.42 1005.28,1191.78 1049.81,1198.49 1094.34,1178.13 1138.87,1182.56 1183.4,1193.07 1227.93,1204.35 1272.46,1215.82 1316.99,1227.12 1361.52,1238.25 1406.05,1249.5 1450.58,1260.82 1495.11,1272.2 1539.64,1283.58 1584.17,1295.01 1628.7,1306.35 1673.23,1317.49 1717.76,1328.89 1762.29,1340.07 1806.82,1351.36 1851.35,1362.42 1895.88,1373.23 1940.41,1383.88 1984.94,1394.61 2029.47,1405.08 2074,1415.47 2118.53,1425.87 2163.06,1435.93 2207.59,1445.87 2252.12,1455.49 2296.65,1465.22 "/>
<circle clip-path="url(#clip432)" cx="426.389" cy="804.215" r="14.4" fill="#ee6677" fill-rule="evenodd" fill-opacity="1" stroke="#000000" stroke-opacity="1" stroke-width="3.6"/>
<circle clip-path="url(#clip432)" cx="470.919" cy="1044.16" r="14.4" fill="#ee6677" fill-rule="evenodd" fill-opacity="1" stroke="#000000" stroke-opacity="1" stroke-width="3.6"/>
<circle clip-path="url(#clip432)" cx="515.449" cy="1121.8" r="14.4" fill="#ee6677" fill-rule="evenodd" fill-opacity="1" stroke="#000000" stroke-opacity="1" stroke-width="3.6"/>
<circle clip-path="url(#clip432)" cx="559.979" cy="1147.41" r="14.4" fill="#ee6677" fill-rule="evenodd" fill-opacity="1" stroke="#000000" stroke-opacity="1" stroke-width="3.6"/>
<circle clip-path="url(#clip432)" cx="604.509" cy="1157.83" r="14.4" fill="#ee6677" fill-rule="evenodd" fill-opacity="1" stroke="#000000" stroke-opacity="1" stroke-width="3.6"/>
<circle clip-path="url(#clip432)" cx="649.039" cy="1162.63" r="14.4" fill="#ee6677" fill-rule="evenodd" fill-opacity="1" stroke="#000000" stroke-opacity="1" stroke-width="3.6"/>
<circle clip-path="url(#clip432)" cx="693.569" cy="1165.07" r="14.4" fill="#ee6677" fill-rule="evenodd" fill-opacity="1" stroke="#000000" stroke-opacity="1" stroke-width="3.6"/>
<circle clip-path="url(#clip432)" cx="738.099" cy="1166.6" r="14.4" fill="#ee6677" fill-rule="evenodd" fill-opacity="1" stroke="#000000" stroke-opacity="1" stroke-width="3.6"/>
<circle clip-path="url(#clip432)" cx="782.629" cy="1167.91" r="14.4" fill="#ee6677" fill-rule="evenodd" fill-opacity="1" stroke="#000000" stroke-opacity="1" stroke-width="3.6"/>
<circle clip-path="url(#clip432)" cx="827.159" cy="1169.39" r="14.4" fill="#ee6677" fill-rule="evenodd" fill-opacity="1" stroke="#000000" stroke-opacity="1" stroke-width="3.6"/>
<circle clip-path="url(#clip432)" cx="871.689" cy="1171.7" r="14.4" fill="#ee6677" fill-rule="evenodd" fill-opacity="1" stroke="#000000" stroke-opacity="1" stroke-width="3.6"/>
<circle clip-path="url(#clip432)" cx="916.219" cy="1175.33" r="14.4" fill="#ee6677" fill-rule="evenodd" fill-opacity="1" stroke="#000000" stroke-opacity="1" stroke-width="3.6"/>
<circle clip-path="url(#clip432)" cx="960.749" cy="1181.42" r="14.4" fill="#ee6677" fill-rule="evenodd" fill-opacity="1" stroke="#000000" stroke-opacity="1" stroke-width="3.6"/>
<circle clip-path="url(#clip432)" cx="1005.28" cy="1191.78" r="14.4" fill="#ee6677" fill-rule="evenodd" fill-opacity="1" stroke="#000000" stroke-opacity="1" stroke-width="3.6"/>
<circle clip-path="url(#clip432)" cx="1049.81" cy="1198.49" r="14.4" fill="#ee6677" fill-rule="evenodd" fill-opacity="1" stroke="#000000" stroke-opacity="1" stroke-width="3.6"/>
<circle clip-path="url(#clip432)" cx="1094.34" cy="1178.13" r="14.4" fill="#ee6677" fill-rule="evenodd" fill-opacity="1" stroke="#000000" stroke-opacity="1" stroke-width="3.6"/>
<circle clip-path="url(#clip432)" cx="1138.87" cy="1182.56" r="14.4" fill="#ee6677" fill-rule="evenodd" fill-opacity="1" stroke="#000000" stroke-opacity="1" stroke-width="3.6"/>
<circle clip-path="url(#clip432)" cx="1183.4" cy="1193.07" r="14.4" fill="#ee6677" fill-rule="evenodd" fill-opacity="1" stroke="#000000" stroke-opacity="1" stroke-width="3.6"/>
<circle clip-path="url(#clip432)" cx="1227.93" cy="1204.35" r="14.4" fill="#ee6677" fill-rule="evenodd" fill-opacity="1" stroke="#000000" stroke-opacity="1" stroke-width="3.6"/>
<circle clip-path="url(#clip432)" cx="1272.46" cy="1215.82" r="14.4" fill="#ee6677" fill-rule="evenodd" fill-opacity="1" stroke="#000000" stroke-opacity="1" stroke-width="3.6"/>
<circle clip-path="url(#clip432)" cx="1316.99" cy="1227.12" r="14.4" fill="#ee6677" fill-rule="evenodd" fill-opacity="1" stroke="#000000" stroke-opacity="1" stroke-width="3.6"/>
<circle clip-path="url(#clip432)" cx="1361.52" cy="1238.25" r="14.4" fill="#ee6677" fill-rule="evenodd" fill-opacity="1" stroke="#000000" stroke-opacity="1" stroke-width="3.6"/>
<circle clip-path="url(#clip432)" cx="1406.05" cy="1249.5" r="14.4" fill="#ee6677" fill-rule="evenodd" fill-opacity="1" stroke="#000000" stroke-opacity="1" stroke-width="3.6"/>
<circle clip-path="url(#clip432)" cx="1450.58" cy="1260.82" r="14.4" fill="#ee6677" fill-rule="evenodd" fill-opacity="1" stroke="#000000" stroke-opacity="1" stroke-width="3.6"/>
<circle clip-path="url(#clip432)" cx="1495.11" cy="1272.2" r="14.4" fill="#ee6677" fill-rule="evenodd" fill-opacity="1" stroke="#000000" stroke-opacity="1" stroke-width="3.6"/>
<circle clip-path="url(#clip432)" cx="1539.64" cy="1283.58" r="14.4" fill="#ee6677" fill-rule="evenodd" fill-opacity="1" stroke="#000000" stroke-opacity="1" stroke-width="3.6"/>
<circle clip-path="url(#clip432)" cx="1584.17" cy="1295.01" r="14.4" fill="#ee6677" fill-rule="evenodd" fill-opacity="1" stroke="#000000" stroke-opacity="1" stroke-width="3.6"/>
<circle clip-path="url(#clip432)" cx="1628.7" cy="1306.35" r="14.4" fill="#ee6677" fill-rule="evenodd" fill-opacity="1" stroke="#000000" stroke-opacity="1" stroke-width="3.6"/>
<circle clip-path="url(#clip432)" cx="1673.23" cy="1317.49" r="14.4" fill="#ee6677" fill-rule="evenodd" fill-opacity="1" stroke="#000000" stroke-opacity="1" stroke-width="3.6"/>
<circle clip-path="url(#clip432)" cx="1717.76" cy="1328.89" r="14.4" fill="#ee6677" fill-rule="evenodd" fill-opacity="1" stroke="#000000" stroke-opacity="1" stroke-width="3.6"/>
<circle clip-path="url(#clip432)" cx="1762.29" cy="1340.07" r="14.4" fill="#ee6677" fill-rule="evenodd" fill-opacity="1" stroke="#000000" stroke-opacity="1" stroke-width="3.6"/>
<circle clip-path="url(#clip432)" cx="1806.82" cy="1351.36" r="14.4" fill="#ee6677" fill-rule="evenodd" fill-opacity="1" stroke="#000000" stroke-opacity="1" stroke-width="3.6"/>
<circle clip-path="url(#clip432)" cx="1851.35" cy="1362.42" r="14.4" fill="#ee6677" fill-rule="evenodd" fill-opacity="1" stroke="#000000" stroke-opacity="1" stroke-width="3.6"/>
<circle clip-path="url(#clip432)" cx="1895.88" cy="1373.23" r="14.4" fill="#ee6677" fill-rule="evenodd" fill-opacity="1" stroke="#000000" stroke-opacity="1" stroke-width="3.6"/>
<circle clip-path="url(#clip432)" cx="1940.41" cy="1383.88" r="14.4" fill="#ee6677" fill-rule="evenodd" fill-opacity="1" stroke="#000000" stroke-opacity="1" stroke-width="3.6"/>
<circle clip-path="url(#clip432)" cx="1984.94" cy="1394.61" r="14.4" fill="#ee6677" fill-rule="evenodd" fill-opacity="1" stroke="#000000" stroke-opacity="1" stroke-width="3.6"/>
<circle clip-path="url(#clip432)" cx="2029.47" cy="1405.08" r="14.4" fill="#ee6677" fill-rule="evenodd" fill-opacity="1" stroke="#000000" stroke-opacity="1" stroke-width="3.6"/>
<circle clip-path="url(#clip432)" cx="2074" cy="1415.47" r="14.4" fill="#ee6677" fill-rule="evenodd" fill-opacity="1" stroke="#000000" stroke-opacity="1" stroke-width="3.6"/>
<circle clip-path="url(#clip432)" cx="2118.53" cy="1425.87" r="14.4" fill="#ee6677" fill-rule="evenodd" fill-opacity="1" stroke="#000000" stroke-opacity="1" stroke-width="3.6"/>
<circle clip-path="url(#clip432)" cx="2163.06" cy="1435.93" r="14.4" fill="#ee6677" fill-rule="evenodd" fill-opacity="1" stroke="#000000" stroke-opacity="1" stroke-width="3.6"/>
<circle clip-path="url(#clip432)" cx="2207.59" cy="1445.87" r="14.4" fill="#ee6677" fill-rule="evenodd" fill-opacity="1" stroke="#000000" stroke-opacity="1" stroke-width="3.6"/>
<circle clip-path="url(#clip432)" cx="2252.12" cy="1455.49" r="14.4" fill="#ee6677" fill-rule="evenodd" fill-opacity="1" stroke="#000000" stroke-opacity="1" stroke-width="3.6"/>
<circle clip-path="url(#clip432)" cx="2296.65" cy="1465.22" r="14.4" fill="#ee6677" fill-rule="evenodd" fill-opacity="1" stroke="#000000" stroke-opacity="1" stroke-width="3.6"/>
<path clip-path="url(#clip430)" d="M1629.61 445.807 L2286.67 445.807 L2286.67 95.8868 L1629.61 95.8868  Z" fill="#ffffff" fill-rule="evenodd" fill-opacity="1"/>
<polyline clip-path="url(#clip430)" style="stroke:#000000; stroke-linecap:round; stroke-linejoin:round; stroke-width:4; stroke-opacity:1; fill:none" points="1629.61,445.807 2286.67,445.807 2286.67,95.8868 1629.61,95.8868 1629.61,445.807 "/>
<polyline clip-path="url(#clip430)" style="stroke:#4477aa; stroke-linecap:round; stroke-linejoin:round; stroke-width:18; stroke-opacity:1; fill:none" points="1651.64,212.527 1783.8,212.527 "/>
<circle clip-path="url(#clip430)" cx="1717.72" cy="212.527" r="8.15833" fill="#4477aa" fill-rule="evenodd" fill-opacity="1" stroke="#000000" stroke-opacity="1" stroke-width="8.15833"/>
<path clip-path="url(#clip430)" d="M1831.93 242.867 L1833.31 251.301 Q1829.27 252.149 1826.09 252.149 Q1820.89 252.149 1818.03 250.505 Q1815.17 248.861 1814 246.209 Q1812.83 243.503 1812.83 234.911 L1812.83 202.502 L1805.83 202.502 L1805.83 195.076 L1812.83 195.076 L1812.83 181.126 L1822.33 175.397 L1822.33 195.076 L1831.93 195.076 L1831.93 202.502 L1822.33 202.502 L1822.33 235.441 Q1822.33 239.525 1822.8 240.692 Q1823.33 241.859 1824.45 242.549 Q1825.61 243.238 1827.74 243.238 Q1829.33 243.238 1831.93 242.867 Z" fill="#000000" fill-rule="nonzero" fill-opacity="1" /><path clip-path="url(#clip430)" d="M1841.16 251.407 L1841.16 195.076 L1849.75 195.076 L1849.75 203.616 Q1853.04 197.622 1855.8 195.712 Q1858.61 193.803 1861.95 193.803 Q1866.78 193.803 1871.76 196.879 L1868.47 205.737 Q1864.97 203.669 1861.47 203.669 Q1858.34 203.669 1855.85 205.578 Q1853.36 207.435 1852.3 210.776 Q1850.7 215.868 1850.7 221.915 L1850.7 251.407 L1841.16 251.407 Z" fill="#000000" fill-rule="nonzero" fill-opacity="1" /><path clip-path="url(#clip430)" d="M1914.2 244.458 Q1908.89 248.967 1903.96 250.823 Q1899.08 252.68 1893.46 252.68 Q1884.17 252.68 1879.19 248.171 Q1874.2 243.61 1874.2 236.555 Q1874.2 232.418 1876.06 229.023 Q1877.97 225.575 1880.99 223.507 Q1884.07 221.438 1887.89 220.377 Q1890.7 219.634 1896.37 218.945 Q1907.94 217.566 1913.4 215.656 Q1913.45 213.694 1913.45 213.163 Q1913.45 207.329 1910.75 204.942 Q1907.09 201.706 1899.87 201.706 Q1893.14 201.706 1889.9 204.093 Q1886.72 206.427 1885.18 212.421 L1875.85 211.148 Q1877.12 205.154 1880.04 201.494 Q1882.95 197.781 1888.47 195.818 Q1893.99 193.803 1901.25 193.803 Q1908.47 193.803 1912.98 195.5 Q1917.48 197.198 1919.61 199.797 Q1921.73 202.343 1922.58 206.268 Q1923.05 208.708 1923.05 215.073 L1923.05 227.803 Q1923.05 241.117 1923.64 244.67 Q1924.27 248.171 1926.08 251.407 L1916.11 251.407 Q1914.62 248.436 1914.2 244.458 M1913.4 223.135 Q1908.2 225.257 1897.81 226.742 Q1891.92 227.591 1889.48 228.652 Q1887.04 229.712 1885.71 231.781 Q1884.39 233.797 1884.39 236.29 Q1884.39 240.109 1887.25 242.655 Q1890.17 245.201 1895.74 245.201 Q1901.25 245.201 1905.55 242.814 Q1909.85 240.374 1911.86 236.184 Q1913.4 232.948 1913.4 226.636 L1913.4 223.135 Z" fill="#000000" fill-rule="nonzero" fill-opacity="1" /><path clip-path="url(#clip430)" d="M1937.91 184.627 L1937.91 173.647 L1947.45 173.647 L1947.45 184.627 L1937.91 184.627 M1937.91 251.407 L1937.91 195.076 L1947.45 195.076 L1947.45 251.407 L1937.91 251.407 Z" fill="#000000" fill-rule="nonzero" fill-opacity="1" /><path clip-path="url(#clip430)" d="M1961.99 251.407 L1961.99 195.076 L1970.58 195.076 L1970.58 203.085 Q1976.79 193.803 1988.51 193.803 Q1993.6 193.803 1997.84 195.659 Q2002.14 197.463 2004.26 200.433 Q2006.38 203.403 2007.23 207.488 Q2007.76 210.14 2007.76 216.77 L2007.76 251.407 L1998.21 251.407 L1998.21 217.141 Q1998.21 211.307 1997.1 208.442 Q1995.99 205.525 1993.12 203.828 Q1990.31 202.077 1986.49 202.077 Q1980.39 202.077 1975.94 205.95 Q1971.53 209.822 1971.53 220.642 L1971.53 251.407 L1961.99 251.407 Z" fill="#000000" fill-rule="nonzero" fill-opacity="1" /><path clip-path="url(#clip430)" d="M2013.6 272.995 L2013.6 266.099 L2076.88 266.099 L2076.88 272.995 L2013.6 272.995 Z" fill="#000000" fill-rule="nonzero" fill-opacity="1" /><path clip-path="url(#clip430)" d="M2082.6 251.407 L2082.6 173.647 L2092.15 173.647 L2092.15 251.407 L2082.6 251.407 Z" fill="#000000" fill-rule="nonzero" fill-opacity="1" /><path clip-path="url(#clip430)" d="M2103.4 223.241 Q2103.4 207.594 2112.1 200.062 Q2119.36 193.803 2129.81 193.803 Q2141.43 193.803 2148.8 201.441 Q2156.17 209.026 2156.17 222.446 Q2156.17 233.319 2152.89 239.578 Q2149.65 245.784 2143.39 249.232 Q2137.19 252.68 2129.81 252.68 Q2117.98 252.68 2110.66 245.095 Q2103.4 237.51 2103.4 223.241 M2113.21 223.241 Q2113.21 234.062 2117.93 239.472 Q2122.65 244.83 2129.81 244.83 Q2136.92 244.83 2141.64 239.419 Q2146.36 234.009 2146.36 222.923 Q2146.36 212.474 2141.59 207.116 Q2136.87 201.706 2129.81 201.706 Q2122.65 201.706 2117.93 207.063 Q2113.21 212.421 2113.21 223.241 Z" fill="#000000" fill-rule="nonzero" fill-opacity="1" /><path clip-path="url(#clip430)" d="M2163.55 234.592 L2172.99 233.107 Q2173.78 238.783 2177.39 241.806 Q2181.05 244.83 2187.58 244.83 Q2194.15 244.83 2197.34 242.177 Q2200.52 239.472 2200.52 235.865 Q2200.52 232.63 2197.71 230.773 Q2195.74 229.5 2187.95 227.538 Q2177.44 224.886 2173.36 222.976 Q2169.33 221.014 2167.21 217.619 Q2165.14 214.171 2165.14 210.034 Q2165.14 206.268 2166.84 203.085 Q2168.59 199.85 2171.56 197.728 Q2173.78 196.084 2177.6 194.97 Q2181.48 193.803 2185.88 193.803 Q2192.51 193.803 2197.49 195.712 Q2202.53 197.622 2204.92 200.91 Q2207.31 204.146 2208.21 209.609 L2198.87 210.882 Q2198.24 206.533 2195.16 204.093 Q2192.14 201.653 2186.57 201.653 Q2179.99 201.653 2177.18 203.828 Q2174.37 206.003 2174.37 208.92 Q2174.37 210.776 2175.53 212.262 Q2176.7 213.8 2179.19 214.808 Q2180.63 215.338 2187.63 217.248 Q2197.76 219.953 2201.74 221.703 Q2205.77 223.4 2208.05 226.689 Q2210.33 229.978 2210.33 234.858 Q2210.33 239.631 2207.52 243.875 Q2204.76 248.065 2199.51 250.399 Q2194.26 252.68 2187.63 252.68 Q2176.65 252.68 2170.87 248.118 Q2165.14 243.556 2163.55 234.592 Z" fill="#000000" fill-rule="nonzero" fill-opacity="1" /><path clip-path="url(#clip430)" d="M2217.86 234.592 L2227.3 233.107 Q2228.1 238.783 2231.71 241.806 Q2235.37 244.83 2241.89 244.83 Q2248.47 244.83 2251.65 242.177 Q2254.83 239.472 2254.83 235.865 Q2254.83 232.63 2252.02 230.773 Q2250.06 229.5 2242.26 227.538 Q2231.76 224.886 2227.68 222.976 Q2223.64 221.014 2221.52 217.619 Q2219.45 214.171 2219.45 210.034 Q2219.45 206.268 2221.15 203.085 Q2222.9 199.85 2225.87 197.728 Q2228.1 196.084 2231.92 194.97 Q2235.79 193.803 2240.19 193.803 Q2246.82 193.803 2251.81 195.712 Q2256.85 197.622 2259.24 200.91 Q2261.62 204.146 2262.52 209.609 L2253.19 210.882 Q2252.55 206.533 2249.48 204.093 Q2246.45 201.653 2240.88 201.653 Q2234.31 201.653 2231.49 203.828 Q2228.68 206.003 2228.68 208.92 Q2228.68 210.776 2229.85 212.262 Q2231.02 213.8 2233.51 214.808 Q2234.94 215.338 2241.94 217.248 Q2252.07 219.953 2256.05 221.703 Q2260.08 223.4 2262.37 226.689 Q2264.65 229.978 2264.65 234.858 Q2264.65 239.631 2261.83 243.875 Q2259.08 248.065 2253.83 250.399 Q2248.57 252.68 2241.94 252.68 Q2230.96 252.68 2225.18 248.118 Q2219.45 243.556 2217.86 234.592 Z" fill="#000000" fill-rule="nonzero" fill-opacity="1" /><polyline clip-path="url(#clip430)" style="stroke:#ee6677; stroke-linecap:round; stroke-linejoin:round; stroke-width:18; stroke-opacity:1; fill:none" points="1651.64,329.167 1783.8,329.167 "/>
<circle clip-path="url(#clip430)" cx="1717.72" cy="329.167" r="8.15833" fill="#ee6677" fill-rule="evenodd" fill-opacity="1" stroke="#000000" stroke-opacity="1" stroke-width="8.15833"/>
<path clip-path="url(#clip430)" d="M1827.26 368.047 L1805.83 311.716 L1815.91 311.716 L1828 345.451 Q1829.96 350.914 1831.61 356.802 Q1832.88 352.346 1835.16 346.087 L1847.68 311.716 L1857.49 311.716 L1836.17 368.047 L1827.26 368.047 Z" fill="#000000" fill-rule="nonzero" fill-opacity="1" /><path clip-path="url(#clip430)" d="M1902.69 361.098 Q1897.38 365.607 1892.45 367.463 Q1887.57 369.32 1881.95 369.32 Q1872.66 369.32 1867.68 364.811 Q1862.69 360.25 1862.69 353.195 Q1862.69 349.058 1864.55 345.663 Q1866.46 342.215 1869.48 340.147 Q1872.56 338.078 1876.38 337.017 Q1879.19 336.274 1884.86 335.585 Q1896.43 334.206 1901.89 332.296 Q1901.94 330.334 1901.94 329.803 Q1901.94 323.969 1899.24 321.582 Q1895.58 318.346 1888.36 318.346 Q1881.63 318.346 1878.39 320.733 Q1875.21 323.067 1873.67 329.061 L1864.34 327.788 Q1865.61 321.794 1868.53 318.134 Q1871.44 314.421 1876.96 312.458 Q1882.48 310.443 1889.74 310.443 Q1896.96 310.443 1901.47 312.14 Q1905.97 313.838 1908.1 316.437 Q1910.22 318.983 1911.07 322.908 Q1911.54 325.348 1911.54 331.713 L1911.54 344.443 Q1911.54 357.757 1912.13 361.31 Q1912.76 364.811 1914.57 368.047 L1904.59 368.047 Q1903.11 365.076 1902.69 361.098 M1901.89 339.775 Q1896.69 341.897 1886.3 343.382 Q1880.41 344.231 1877.97 345.292 Q1875.53 346.352 1874.2 348.421 Q1872.88 350.437 1872.88 352.93 Q1872.88 356.749 1875.74 359.295 Q1878.66 361.841 1884.23 361.841 Q1889.74 361.841 1894.04 359.454 Q1898.34 357.014 1900.35 352.824 Q1901.89 349.588 1901.89 343.276 L1901.89 339.775 Z" fill="#000000" fill-rule="nonzero" fill-opacity="1" /><path clip-path="url(#clip430)" d="M1926.13 368.047 L1926.13 290.287 L1935.68 290.287 L1935.68 368.047 L1926.13 368.047 Z" fill="#000000" fill-rule="nonzero" fill-opacity="1" /><path clip-path="url(#clip430)" d="M1941.67 389.635 L1941.67 382.739 L2004.95 382.739 L2004.95 389.635 L1941.67 389.635 Z" fill="#000000" fill-rule="nonzero" fill-opacity="1" /><path clip-path="url(#clip430)" d="M2010.68 368.047 L2010.68 290.287 L2020.23 290.287 L2020.23 368.047 L2010.68 368.047 Z" fill="#000000" fill-rule="nonzero" fill-opacity="1" /><path clip-path="url(#clip430)" d="M2031.47 339.881 Q2031.47 324.234 2040.17 316.702 Q2047.44 310.443 2057.89 310.443 Q2069.5 310.443 2076.88 318.081 Q2084.25 325.666 2084.25 339.086 Q2084.25 349.959 2080.96 356.218 Q2077.72 362.424 2071.47 365.872 Q2065.26 369.32 2057.89 369.32 Q2046.06 369.32 2038.74 361.735 Q2031.47 354.15 2031.47 339.881 M2041.28 339.881 Q2041.28 350.702 2046.01 356.112 Q2050.73 361.47 2057.89 361.47 Q2064.99 361.47 2069.72 356.059 Q2074.44 350.649 2074.44 339.563 Q2074.44 329.114 2069.66 323.756 Q2064.94 318.346 2057.89 318.346 Q2050.73 318.346 2046.01 323.703 Q2041.28 329.061 2041.28 339.881 Z" fill="#000000" fill-rule="nonzero" fill-opacity="1" /><path clip-path="url(#clip430)" d="M2091.62 351.232 L2101.06 349.747 Q2101.86 355.423 2105.47 358.446 Q2109.13 361.47 2115.65 361.47 Q2122.23 361.47 2125.41 358.817 Q2128.59 356.112 2128.59 352.505 Q2128.59 349.27 2125.78 347.413 Q2123.82 346.14 2116.02 344.178 Q2105.52 341.526 2101.43 339.616 Q2097.4 337.654 2095.28 334.259 Q2093.21 330.811 2093.21 326.674 Q2093.21 322.908 2094.91 319.725 Q2096.66 316.49 2099.63 314.368 Q2101.86 312.724 2105.68 311.61 Q2109.55 310.443 2113.95 310.443 Q2120.58 310.443 2125.57 312.352 Q2130.61 314.262 2132.99 317.55 Q2135.38 320.786 2136.28 326.249 L2126.95 327.522 Q2126.31 323.173 2123.24 320.733 Q2120.21 318.293 2114.64 318.293 Q2108.07 318.293 2105.25 320.468 Q2102.44 322.643 2102.44 325.56 Q2102.44 327.416 2103.61 328.902 Q2104.78 330.44 2107.27 331.448 Q2108.7 331.978 2115.7 333.888 Q2125.83 336.593 2129.81 338.343 Q2133.84 340.04 2136.12 343.329 Q2138.41 346.618 2138.41 351.498 Q2138.41 356.271 2135.59 360.515 Q2132.84 364.705 2127.58 367.039 Q2122.33 369.32 2115.7 369.32 Q2104.72 369.32 2098.94 364.758 Q2093.21 360.196 2091.62 351.232 Z" fill="#000000" fill-rule="nonzero" fill-opacity="1" /><path clip-path="url(#clip430)" d="M2145.94 351.232 L2155.38 349.747 Q2156.17 355.423 2159.78 358.446 Q2163.44 361.47 2169.97 361.47 Q2176.54 361.47 2179.73 358.817 Q2182.91 356.112 2182.91 352.505 Q2182.91 349.27 2180.1 347.413 Q2178.13 346.14 2170.34 344.178 Q2159.83 341.526 2155.75 339.616 Q2151.72 337.654 2149.6 334.259 Q2147.53 330.811 2147.53 326.674 Q2147.53 322.908 2149.23 319.725 Q2150.98 316.49 2153.95 314.368 Q2156.17 312.724 2159.99 311.61 Q2163.87 310.443 2168.27 310.443 Q2174.9 310.443 2179.88 312.352 Q2184.92 314.262 2187.31 317.55 Q2189.7 320.786 2190.6 326.249 L2181.26 327.522 Q2180.63 323.173 2177.55 320.733 Q2174.53 318.293 2168.96 318.293 Q2162.38 318.293 2159.57 320.468 Q2156.76 322.643 2156.76 325.56 Q2156.76 327.416 2157.92 328.902 Q2159.09 330.44 2161.58 331.448 Q2163.02 331.978 2170.02 333.888 Q2180.15 336.593 2184.13 338.343 Q2188.16 340.04 2190.44 343.329 Q2192.72 346.618 2192.72 351.498 Q2192.72 356.271 2189.91 360.515 Q2187.15 364.705 2181.9 367.039 Q2176.65 369.32 2170.02 369.32 Q2159.04 369.32 2153.26 364.758 Q2147.53 360.196 2145.94 351.232 Z" fill="#000000" fill-rule="nonzero" fill-opacity="1" /></svg>
