<?xml version="1.0" encoding="utf-8"?>
<svg xmlns="http://www.w3.org/2000/svg" xmlns:xlink="http://www.w3.org/1999/xlink" width="600" height="400" viewBox="0 0 2400 1600">
<defs>
  <clipPath id="clip830">
    <rect x="0" y="0" width="2400" height="1600"/>
  </clipPath>
</defs>
<path clip-path="url(#clip830)" d="M0 1600 L2400 1600 L2400 8.88178e-14 L0 8.88178e-14  Z" fill="#ffffff" fill-rule="evenodd" fill-opacity="1"/>
<defs>
  <clipPath id="clip831">
    <rect x="480" y="0" width="1681" height="1600"/>
  </clipPath>
</defs>
<path clip-path="url(#clip830)" d="M289.561 1443.25 L2352.76 1443.25 L2352.76 47.2441 L289.561 47.2441  Z" fill="#ffffff" fill-rule="evenodd" fill-opacity="1"/>
<defs>
  <clipPath id="clip832">
    <rect x="289" y="47" width="2064" height="1397"/>
  </clipPath>
</defs>
<polyline clip-path="url(#clip830)" style="stroke:#000000; stroke-linecap:round; stroke-linejoin:round; stroke-width:4; stroke-opacity:1; fill:none" points="289.561,1443.25 2352.76,1443.25 "/>
<polyline clip-path="url(#clip830)" style="stroke:#000000; stroke-linecap:round; stroke-linejoin:round; stroke-width:2; stroke-opacity:0.5; fill:none" points="289.561,47.2441 2352.76,47.2441 "/>
<polyline clip-path="url(#clip830)" style="stroke:#000000; stroke-linecap:round; stroke-linejoin:round; stroke-width:4; stroke-opacity:1; fill:none" points="478.978,1443.25 478.978,1424.35 "/>
<polyline clip-path="url(#clip830)" style="stroke:#000000; stroke-linecap:round; stroke-linejoin:round; stroke-width:4; stroke-opacity:1; fill:none" points="754.67,1443.25 754.67,1424.35 "/>
<polyline clip-path="url(#clip830)" style="stroke:#000000; stroke-linecap:round; stroke-linejoin:round; stroke-width:4; stroke-opacity:1; fill:none" points="1030.36,1443.25 1030.36,1424.35 "/>
<polyline clip-path="url(#clip830)" style="stroke:#000000; stroke-linecap:round; stroke-linejoin:round; stroke-width:4; stroke-opacity:1; fill:none" points="1306.06,1443.25 1306.06,1424.35 "/>
<polyline clip-path="url(#clip830)" style="stroke:#000000; stroke-linecap:round; stroke-linejoin:round; stroke-width:4; stroke-opacity:1; fill:none" points="1581.75,1443.25 1581.75,1424.35 "/>
<polyline clip-path="url(#clip830)" style="stroke:#000000; stroke-linecap:round; stroke-linejoin:round; stroke-width:4; stroke-opacity:1; fill:none" points="1857.44,1443.25 1857.44,1424.35 "/>
<polyline clip-path="url(#clip830)" style="stroke:#000000; stroke-linecap:round; stroke-linejoin:round; stroke-width:4; stroke-opacity:1; fill:none" points="2133.13,1443.25 2133.13,1424.35 "/>
<path clip-path="url(#clip830)" d="M377.694 1521.3 Q377.694 1507.51 380.505 1499.13 Q383.369 1490.69 388.939 1486.13 Q394.561 1481.57 403.048 1481.57 Q409.307 1481.57 414.028 1484.12 Q418.748 1486.61 421.825 1491.38 Q424.901 1496.1 426.652 1502.95 Q428.402 1509.74 428.402 1521.3 Q428.402 1534.98 425.591 1543.42 Q422.78 1551.8 417.157 1556.41 Q411.588 1560.97 403.048 1560.97 Q391.803 1560.97 385.385 1552.91 Q377.694 1543.2 377.694 1521.3 M387.507 1521.3 Q387.507 1540.45 391.962 1546.81 Q396.471 1553.12 403.048 1553.12 Q409.625 1553.12 414.081 1546.76 Q418.589 1540.39 418.589 1521.3 Q418.589 1502.1 414.081 1495.78 Q409.625 1489.47 402.942 1489.47 Q396.365 1489.47 392.439 1495.04 Q387.507 1502.15 387.507 1521.3 Z" fill="#000000" fill-rule="nonzero" fill-opacity="1" /><path clip-path="url(#clip830)" d="M443.466 1559.65 L443.466 1548.77 L454.34 1548.77 L454.34 1559.65 L443.466 1559.65 Z" fill="#000000" fill-rule="nonzero" fill-opacity="1" /><path clip-path="url(#clip830)" d="M518.468 1550.47 L518.468 1559.65 L467.07 1559.65 Q466.964 1556.2 468.184 1553.02 Q470.146 1547.77 474.443 1542.67 Q478.792 1537.58 486.961 1530.9 Q499.638 1520.5 504.093 1514.46 Q508.549 1508.36 508.549 1502.95 Q508.549 1497.27 504.465 1493.4 Q500.434 1489.47 493.909 1489.47 Q487.014 1489.47 482.877 1493.61 Q478.739 1497.75 478.686 1505.07 L468.873 1504.06 Q469.881 1493.08 476.458 1487.35 Q483.036 1481.57 494.122 1481.57 Q505.313 1481.57 511.838 1487.78 Q518.362 1493.98 518.362 1503.16 Q518.362 1507.83 516.452 1512.33 Q514.543 1516.84 510.087 1521.83 Q505.685 1526.81 495.395 1535.51 Q486.802 1542.73 484.362 1545.33 Q481.922 1547.87 480.331 1550.47 L518.468 1550.47 Z" fill="#000000" fill-rule="nonzero" fill-opacity="1" /><path clip-path="url(#clip830)" d="M528.705 1539.28 L538.73 1538.43 Q539.844 1545.75 543.875 1549.46 Q547.959 1553.12 553.688 1553.12 Q560.584 1553.12 565.357 1547.93 Q570.131 1542.73 570.131 1534.13 Q570.131 1525.97 565.516 1521.25 Q560.955 1516.52 553.529 1516.52 Q548.914 1516.52 545.201 1518.65 Q541.488 1520.71 539.367 1524.06 L530.402 1522.89 L537.934 1482.95 L576.602 1482.95 L576.602 1492.07 L545.573 1492.07 L541.382 1512.97 Q548.384 1508.09 556.075 1508.09 Q566.259 1508.09 573.261 1515.15 Q580.262 1522.2 580.262 1533.29 Q580.262 1543.84 574.109 1551.53 Q566.63 1560.97 553.688 1560.97 Q543.08 1560.97 536.343 1555.03 Q529.66 1549.09 528.705 1539.28 Z" fill="#000000" fill-rule="nonzero" fill-opacity="1" /><path clip-path="url(#clip830)" d="M653.81 1521.3 Q653.81 1507.51 656.622 1499.13 Q659.486 1490.69 665.055 1486.13 Q670.678 1481.57 679.165 1481.57 Q685.424 1481.57 690.144 1484.12 Q694.865 1486.61 697.942 1491.38 Q701.018 1496.1 702.768 1502.95 Q704.519 1509.74 704.519 1521.3 Q704.519 1534.98 701.708 1543.42 Q698.896 1551.8 693.274 1556.41 Q687.704 1560.97 679.165 1560.97 Q667.92 1560.97 661.502 1552.91 Q653.81 1543.2 653.81 1521.3 M663.623 1521.3 Q663.623 1540.45 668.079 1546.81 Q672.587 1553.12 679.165 1553.12 Q685.742 1553.12 690.197 1546.76 Q694.706 1540.39 694.706 1521.3 Q694.706 1502.1 690.197 1495.78 Q685.742 1489.47 679.059 1489.47 Q672.481 1489.47 668.556 1495.04 Q663.623 1502.15 663.623 1521.3 Z" fill="#000000" fill-rule="nonzero" fill-opacity="1" /><path clip-path="url(#clip830)" d="M719.583 1559.65 L719.583 1548.77 L730.457 1548.77 L730.457 1559.65 L719.583 1559.65 Z" fill="#000000" fill-rule="nonzero" fill-opacity="1" /><path clip-path="url(#clip830)" d="M744.407 1539.28 L754.432 1538.43 Q755.546 1545.75 759.577 1549.46 Q763.661 1553.12 769.39 1553.12 Q776.285 1553.12 781.059 1547.93 Q785.833 1542.73 785.833 1534.13 Q785.833 1525.97 781.218 1521.25 Q776.656 1516.52 769.23 1516.52 Q764.616 1516.52 760.903 1518.65 Q757.19 1520.71 755.068 1524.06 L746.104 1522.89 L753.636 1482.95 L792.304 1482.95 L792.304 1492.07 L761.274 1492.07 L757.084 1512.97 Q764.085 1508.09 771.777 1508.09 Q781.961 1508.09 788.962 1515.15 Q795.964 1522.2 795.964 1533.29 Q795.964 1543.84 789.811 1551.53 Q782.332 1560.97 769.39 1560.97 Q758.781 1560.97 752.045 1555.03 Q745.361 1549.09 744.407 1539.28 Z" fill="#000000" fill-rule="nonzero" fill-opacity="1" /><path clip-path="url(#clip830)" d="M804.822 1521.3 Q804.822 1507.51 807.633 1499.13 Q810.497 1490.69 816.067 1486.13 Q821.689 1481.57 830.176 1481.57 Q836.435 1481.57 841.156 1484.12 Q845.877 1486.61 848.953 1491.38 Q852.03 1496.1 853.78 1502.95 Q855.53 1509.74 855.53 1521.3 Q855.53 1534.98 852.719 1543.42 Q849.908 1551.8 844.285 1556.41 Q838.716 1560.97 830.176 1560.97 Q818.931 1560.97 812.513 1552.91 Q804.822 1543.2 804.822 1521.3 M814.635 1521.3 Q814.635 1540.45 819.09 1546.81 Q823.599 1553.12 830.176 1553.12 Q836.753 1553.12 841.209 1546.76 Q845.717 1540.39 845.717 1521.3 Q845.717 1502.1 841.209 1495.78 Q836.753 1489.47 830.07 1489.47 Q823.493 1489.47 819.568 1495.04 Q814.635 1502.15 814.635 1521.3 Z" fill="#000000" fill-rule="nonzero" fill-opacity="1" /><path clip-path="url(#clip830)" d="M929.079 1521.3 Q929.079 1507.51 931.89 1499.13 Q934.754 1490.69 940.324 1486.13 Q945.946 1481.57 954.433 1481.57 Q960.692 1481.57 965.413 1484.12 Q970.133 1486.61 973.21 1491.38 Q976.286 1496.1 978.037 1502.95 Q979.787 1509.74 979.787 1521.3 Q979.787 1534.98 976.976 1543.42 Q974.164 1551.8 968.542 1556.41 Q962.973 1560.97 954.433 1560.97 Q943.188 1560.97 936.77 1552.91 Q929.079 1543.2 929.079 1521.3 M938.891 1521.3 Q938.891 1540.45 943.347 1546.81 Q947.856 1553.12 954.433 1553.12 Q961.01 1553.12 965.466 1546.76 Q969.974 1540.39 969.974 1521.3 Q969.974 1502.1 965.466 1495.78 Q961.01 1489.47 954.327 1489.47 Q947.749 1489.47 943.824 1495.04 Q938.891 1502.15 938.891 1521.3 Z" fill="#000000" fill-rule="nonzero" fill-opacity="1" /><path clip-path="url(#clip830)" d="M994.851 1559.65 L994.851 1548.77 L1005.72 1548.77 L1005.72 1559.65 L994.851 1559.65 Z" fill="#000000" fill-rule="nonzero" fill-opacity="1" /><path clip-path="url(#clip830)" d="M1020.31 1492.07 L1020.31 1482.9 L1070.65 1482.9 L1070.65 1490.32 Q1063.22 1498.22 1055.9 1511.33 Q1048.64 1524.43 1044.66 1538.27 Q1041.79 1548.03 1041 1559.65 L1031.18 1559.65 Q1031.34 1550.47 1034.79 1537.48 Q1038.24 1524.48 1044.66 1512.44 Q1051.13 1500.35 1058.4 1492.07 L1020.31 1492.07 Z" fill="#000000" fill-rule="nonzero" fill-opacity="1" /><path clip-path="url(#clip830)" d="M1080.09 1539.28 L1090.11 1538.43 Q1091.23 1545.75 1095.26 1549.46 Q1099.34 1553.12 1105.07 1553.12 Q1111.97 1553.12 1116.74 1547.93 Q1121.52 1542.73 1121.52 1534.13 Q1121.52 1525.97 1116.9 1521.25 Q1112.34 1516.52 1104.91 1516.52 Q1100.3 1516.52 1096.59 1518.65 Q1092.87 1520.71 1090.75 1524.06 L1081.79 1522.89 L1089.32 1482.95 L1127.99 1482.95 L1127.99 1492.07 L1096.96 1492.07 L1092.77 1512.97 Q1099.77 1508.09 1107.46 1508.09 Q1117.64 1508.09 1124.65 1515.15 Q1131.65 1522.2 1131.65 1533.29 Q1131.65 1543.84 1125.49 1551.53 Q1118.02 1560.97 1105.07 1560.97 Q1094.46 1560.97 1087.73 1555.03 Q1081.04 1549.09 1080.09 1539.28 Z" fill="#000000" fill-rule="nonzero" fill-opacity="1" /><path clip-path="url(#clip830)" d="M1237.5 1559.65 L1227.95 1559.65 L1227.95 1498.81 Q1224.5 1502.1 1218.88 1505.39 Q1213.31 1508.67 1208.86 1510.32 L1208.86 1501.09 Q1216.86 1497.32 1222.86 1491.97 Q1228.85 1486.61 1231.35 1481.57 L1237.5 1481.57 L1237.5 1559.65 Z" fill="#000000" fill-rule="nonzero" fill-opacity="1" /><path clip-path="url(#clip830)" d="M1267.31 1559.65 L1267.31 1548.77 L1278.18 1548.77 L1278.18 1559.65 L1267.31 1559.65 Z" fill="#000000" fill-rule="nonzero" fill-opacity="1" /><path clip-path="url(#clip830)" d="M1292.13 1521.3 Q1292.13 1507.51 1294.94 1499.13 Q1297.81 1490.69 1303.38 1486.13 Q1309 1481.57 1317.49 1481.57 Q1323.74 1481.57 1328.47 1484.12 Q1333.19 1486.61 1336.26 1491.38 Q1339.34 1496.1 1341.09 1502.95 Q1342.84 1509.74 1342.84 1521.3 Q1342.84 1534.98 1340.03 1543.42 Q1337.22 1551.8 1331.6 1556.41 Q1326.03 1560.97 1317.49 1560.97 Q1306.24 1560.97 1299.82 1552.91 Q1292.13 1543.2 1292.13 1521.3 M1301.94 1521.3 Q1301.94 1540.45 1306.4 1546.81 Q1310.91 1553.12 1317.49 1553.12 Q1324.06 1553.12 1328.52 1546.76 Q1333.03 1540.39 1333.03 1521.3 Q1333.03 1502.1 1328.52 1495.78 Q1324.06 1489.47 1317.38 1489.47 Q1310.8 1489.47 1306.88 1495.04 Q1301.94 1502.15 1301.94 1521.3 Z" fill="#000000" fill-rule="nonzero" fill-opacity="1" /><path clip-path="url(#clip830)" d="M1352.55 1521.3 Q1352.55 1507.51 1355.36 1499.13 Q1358.22 1490.69 1363.79 1486.13 Q1369.41 1481.57 1377.9 1481.57 Q1384.16 1481.57 1388.88 1484.12 Q1393.6 1486.61 1396.68 1491.38 Q1399.75 1496.1 1401.5 1502.95 Q1403.26 1509.74 1403.26 1521.3 Q1403.26 1534.98 1400.44 1543.42 Q1397.63 1551.8 1392.01 1556.41 Q1386.44 1560.97 1377.9 1560.97 Q1366.66 1560.97 1360.24 1552.91 Q1352.55 1543.2 1352.55 1521.3 M1362.36 1521.3 Q1362.36 1540.45 1366.82 1546.81 Q1371.32 1553.12 1377.9 1553.12 Q1384.48 1553.12 1388.93 1546.76 Q1393.44 1540.39 1393.44 1521.3 Q1393.44 1502.1 1388.93 1495.78 Q1384.48 1489.47 1377.79 1489.47 Q1371.22 1489.47 1367.29 1495.04 Q1362.36 1502.15 1362.36 1521.3 Z" fill="#000000" fill-rule="nonzero" fill-opacity="1" /><path clip-path="url(#clip830)" d="M1512.77 1559.65 L1503.22 1559.65 L1503.22 1498.81 Q1499.77 1502.1 1494.15 1505.39 Q1488.58 1508.67 1484.12 1510.32 L1484.12 1501.09 Q1492.13 1497.32 1498.13 1491.97 Q1504.12 1486.61 1506.61 1481.57 L1512.77 1481.57 L1512.77 1559.65 Z" fill="#000000" fill-rule="nonzero" fill-opacity="1" /><path clip-path="url(#clip830)" d="M1542.58 1559.65 L1542.58 1548.77 L1553.45 1548.77 L1553.45 1559.65 L1542.58 1559.65 Z" fill="#000000" fill-rule="nonzero" fill-opacity="1" /><path clip-path="url(#clip830)" d="M1617.58 1550.47 L1617.58 1559.65 L1566.18 1559.65 Q1566.07 1556.2 1567.29 1553.02 Q1569.26 1547.77 1573.55 1542.67 Q1577.9 1537.58 1586.07 1530.9 Q1598.75 1520.5 1603.2 1514.46 Q1607.66 1508.36 1607.66 1502.95 Q1607.66 1497.27 1603.57 1493.4 Q1599.54 1489.47 1593.02 1489.47 Q1586.12 1489.47 1581.99 1493.61 Q1577.85 1497.75 1577.8 1505.07 L1567.98 1504.06 Q1568.99 1493.08 1575.57 1487.35 Q1582.15 1481.57 1593.23 1481.57 Q1604.42 1481.57 1610.95 1487.78 Q1617.47 1493.98 1617.47 1503.16 Q1617.47 1507.83 1615.56 1512.33 Q1613.65 1516.84 1609.2 1521.83 Q1604.79 1526.81 1594.5 1535.51 Q1585.91 1542.73 1583.47 1545.33 Q1581.03 1547.87 1579.44 1550.47 L1617.58 1550.47 Z" fill="#000000" fill-rule="nonzero" fill-opacity="1" /><path clip-path="url(#clip830)" d="M1627.81 1539.28 L1637.84 1538.43 Q1638.95 1545.75 1642.98 1549.46 Q1647.07 1553.12 1652.8 1553.12 Q1659.69 1553.12 1664.47 1547.93 Q1669.24 1542.73 1669.24 1534.13 Q1669.24 1525.97 1664.63 1521.25 Q1660.06 1516.52 1652.64 1516.52 Q1648.02 1516.52 1644.31 1518.65 Q1640.6 1520.71 1638.48 1524.06 L1629.51 1522.89 L1637.04 1482.95 L1675.71 1482.95 L1675.71 1492.07 L1644.68 1492.07 L1640.49 1512.97 Q1647.49 1508.09 1655.18 1508.09 Q1665.37 1508.09 1672.37 1515.15 Q1679.37 1522.2 1679.37 1533.29 Q1679.37 1543.84 1673.22 1551.53 Q1665.74 1560.97 1652.8 1560.97 Q1642.19 1560.97 1635.45 1555.03 Q1628.77 1549.09 1627.81 1539.28 Z" fill="#000000" fill-rule="nonzero" fill-opacity="1" /><path clip-path="url(#clip830)" d="M1788.88 1559.65 L1779.34 1559.65 L1779.34 1498.81 Q1775.89 1502.1 1770.27 1505.39 Q1764.7 1508.67 1760.24 1510.32 L1760.24 1501.09 Q1768.25 1497.32 1774.24 1491.97 Q1780.24 1486.61 1782.73 1481.57 L1788.88 1481.57 L1788.88 1559.65 Z" fill="#000000" fill-rule="nonzero" fill-opacity="1" /><path clip-path="url(#clip830)" d="M1818.69 1559.65 L1818.69 1548.77 L1829.57 1548.77 L1829.57 1559.65 L1818.69 1559.65 Z" fill="#000000" fill-rule="nonzero" fill-opacity="1" /><path clip-path="url(#clip830)" d="M1843.52 1539.28 L1853.54 1538.43 Q1854.66 1545.75 1858.69 1549.46 Q1862.77 1553.12 1868.5 1553.12 Q1875.39 1553.12 1880.17 1547.93 Q1884.94 1542.73 1884.94 1534.13 Q1884.94 1525.97 1880.33 1521.25 Q1875.77 1516.52 1868.34 1516.52 Q1863.73 1516.52 1860.01 1518.65 Q1856.3 1520.71 1854.18 1524.06 L1845.21 1522.89 L1852.75 1482.95 L1891.41 1482.95 L1891.41 1492.07 L1860.38 1492.07 L1856.19 1512.97 Q1863.2 1508.09 1870.89 1508.09 Q1881.07 1508.09 1888.07 1515.15 Q1895.07 1522.2 1895.07 1533.29 Q1895.07 1543.84 1888.92 1551.53 Q1881.44 1560.97 1868.5 1560.97 Q1857.89 1560.97 1851.15 1555.03 Q1844.47 1549.09 1843.52 1539.28 Z" fill="#000000" fill-rule="nonzero" fill-opacity="1" /><path clip-path="url(#clip830)" d="M1903.93 1521.3 Q1903.93 1507.51 1906.74 1499.13 Q1909.61 1490.69 1915.18 1486.13 Q1920.8 1481.57 1929.29 1481.57 Q1935.54 1481.57 1940.27 1484.12 Q1944.99 1486.61 1948.06 1491.38 Q1951.14 1496.1 1952.89 1502.95 Q1954.64 1509.74 1954.64 1521.3 Q1954.64 1534.98 1951.83 1543.42 Q1949.02 1551.8 1943.4 1556.41 Q1937.83 1560.97 1929.29 1560.97 Q1918.04 1560.97 1911.62 1552.91 Q1903.93 1543.2 1903.93 1521.3 M1913.74 1521.3 Q1913.74 1540.45 1918.2 1546.81 Q1922.71 1553.12 1929.29 1553.12 Q1935.86 1553.12 1940.32 1546.76 Q1944.83 1540.39 1944.83 1521.3 Q1944.83 1502.1 1940.32 1495.78 Q1935.86 1489.47 1929.18 1489.47 Q1922.6 1489.47 1918.68 1495.04 Q1913.74 1502.15 1913.74 1521.3 Z" fill="#000000" fill-rule="nonzero" fill-opacity="1" /><path clip-path="url(#clip830)" d="M2064.15 1559.65 L2054.6 1559.65 L2054.6 1498.81 Q2051.16 1502.1 2045.53 1505.39 Q2039.96 1508.67 2035.51 1510.32 L2035.51 1501.09 Q2043.52 1497.32 2049.51 1491.97 Q2055.51 1486.61 2058 1481.57 L2064.15 1481.57 L2064.15 1559.65 Z" fill="#000000" fill-rule="nonzero" fill-opacity="1" /><path clip-path="url(#clip830)" d="M2093.96 1559.65 L2093.96 1548.77 L2104.83 1548.77 L2104.83 1559.65 L2093.96 1559.65 Z" fill="#000000" fill-rule="nonzero" fill-opacity="1" /><path clip-path="url(#clip830)" d="M2119.42 1492.07 L2119.42 1482.9 L2169.76 1482.9 L2169.76 1490.32 Q2162.33 1498.22 2155.01 1511.33 Q2147.75 1524.43 2143.77 1538.27 Q2140.9 1548.03 2140.11 1559.65 L2130.29 1559.65 Q2130.45 1550.47 2133.9 1537.48 Q2137.35 1524.48 2143.77 1512.44 Q2150.24 1500.35 2157.51 1492.07 L2119.42 1492.07 Z" fill="#000000" fill-rule="nonzero" fill-opacity="1" /><path clip-path="url(#clip830)" d="M2179.2 1539.28 L2189.22 1538.43 Q2190.34 1545.75 2194.37 1549.46 Q2198.45 1553.12 2204.18 1553.12 Q2211.08 1553.12 2215.85 1547.93 Q2220.63 1542.73 2220.63 1534.13 Q2220.63 1525.97 2216.01 1521.25 Q2211.45 1516.52 2204.02 1516.52 Q2199.41 1516.52 2195.7 1518.65 Q2191.98 1520.71 2189.86 1524.06 L2180.9 1522.89 L2188.43 1482.95 L2227.1 1482.95 L2227.1 1492.07 L2196.07 1492.07 L2191.88 1512.97 Q2198.88 1508.09 2206.57 1508.09 Q2216.75 1508.09 2223.76 1515.15 Q2230.76 1522.2 2230.76 1533.29 Q2230.76 1543.84 2224.6 1551.53 Q2217.12 1560.97 2204.18 1560.97 Q2193.57 1560.97 2186.84 1555.03 Q2180.15 1549.09 2179.2 1539.28 Z" fill="#000000" fill-rule="nonzero" fill-opacity="1" /><polyline clip-path="url(#clip830)" style="stroke:#000000; stroke-linecap:round; stroke-linejoin:round; stroke-width:4; stroke-opacity:1; fill:none" points="289.561,1443.25 289.561,47.2441 "/>
<polyline clip-path="url(#clip830)" style="stroke:#000000; stroke-linecap:round; stroke-linejoin:round; stroke-width:2; stroke-opacity:0.5; fill:none" points="2352.76,1443.25 2352.76,47.2441 "/>
<polyline clip-path="url(#clip830)" style="stroke:#000000; stroke-linecap:round; stroke-linejoin:round; stroke-width:4; stroke-opacity:1; fill:none" points="289.561,1268.09 308.458,1268.09 "/>
<polyline clip-path="url(#clip830)" style="stroke:#000000; stroke-linecap:round; stroke-linejoin:round; stroke-width:4; stroke-opacity:1; fill:none" points="289.561,1089.88 308.458,1089.88 "/>
<polyline clip-path="url(#clip830)" style="stroke:#000000; stroke-linecap:round; stroke-linejoin:round; stroke-width:4; stroke-opacity:1; fill:none" points="289.561,911.674 308.458,911.674 "/>
<polyline clip-path="url(#clip830)" style="stroke:#000000; stroke-linecap:round; stroke-linejoin:round; stroke-width:4; stroke-opacity:1; fill:none" points="289.561,733.465 308.458,733.465 "/>
<polyline clip-path="url(#clip830)" style="stroke:#000000; stroke-linecap:round; stroke-linejoin:round; stroke-width:4; stroke-opacity:1; fill:none" points="289.561,555.255 308.458,555.255 "/>
<polyline clip-path="url(#clip830)" style="stroke:#000000; stroke-linecap:round; stroke-linejoin:round; stroke-width:4; stroke-opacity:1; fill:none" points="289.561,377.046 308.458,377.046 "/>
<polyline clip-path="url(#clip830)" style="stroke:#000000; stroke-linecap:round; stroke-linejoin:round; stroke-width:4; stroke-opacity:1; fill:none" points="289.561,198.836 308.458,198.836 "/>
<path clip-path="url(#clip830)" d="M50.9921 1268.62 Q50.9921 1254.83 53.8034 1246.45 Q56.6677 1238.02 62.2371 1233.46 Q67.8596 1228.89 76.3463 1228.89 Q82.6053 1228.89 87.3261 1231.44 Q92.0469 1233.93 95.1233 1238.71 Q98.1998 1243.43 99.9502 1250.27 Q101.701 1257.06 101.701 1268.62 Q101.701 1282.31 98.8893 1290.74 Q96.0781 1299.12 90.4556 1303.74 Q84.8862 1308.3 76.3463 1308.3 Q65.1014 1308.3 58.6833 1300.24 Q50.9921 1290.53 50.9921 1268.62 M60.8049 1268.62 Q60.8049 1287.77 65.2605 1294.14 Q69.7691 1300.45 76.3463 1300.45 Q82.9236 1300.45 87.3791 1294.08 Q91.8877 1287.72 91.8877 1268.62 Q91.8877 1249.42 87.3791 1243.11 Q82.9236 1236.8 76.2403 1236.8 Q69.663 1236.8 65.7379 1242.37 Q60.8049 1249.48 60.8049 1268.62 Z" fill="#000000" fill-rule="nonzero" fill-opacity="1" /><path clip-path="url(#clip830)" d="M116.765 1306.97 L116.765 1296.1 L127.638 1296.1 L127.638 1306.97 L116.765 1306.97 Z" fill="#000000" fill-rule="nonzero" fill-opacity="1" /><path clip-path="url(#clip830)" d="M191.766 1297.8 L191.766 1306.97 L140.368 1306.97 Q140.262 1303.53 141.482 1300.34 Q143.445 1295.09 147.741 1290 Q152.091 1284.91 160.259 1278.22 Q172.936 1267.83 177.392 1261.78 Q181.847 1255.68 181.847 1250.27 Q181.847 1244.6 177.763 1240.72 Q173.732 1236.8 167.208 1236.8 Q160.312 1236.8 156.175 1240.94 Q152.038 1245.07 151.985 1252.39 L142.172 1251.38 Q143.18 1240.41 149.757 1234.68 Q156.334 1228.89 167.42 1228.89 Q178.612 1228.89 185.136 1235.1 Q191.66 1241.31 191.66 1250.48 Q191.66 1255.15 189.751 1259.66 Q187.841 1264.17 183.386 1269.15 Q178.983 1274.14 168.693 1282.84 Q160.1 1290.05 157.66 1292.65 Q155.22 1295.2 153.629 1297.8 L191.766 1297.8 Z" fill="#000000" fill-rule="nonzero" fill-opacity="1" /><path clip-path="url(#clip830)" d="M202.004 1286.6 L212.029 1285.76 Q213.142 1293.08 217.174 1296.79 Q221.258 1300.45 226.986 1300.45 Q233.882 1300.45 238.656 1295.25 Q243.43 1290.05 243.43 1281.46 Q243.43 1273.29 238.815 1268.57 Q234.253 1263.85 226.827 1263.85 Q222.213 1263.85 218.5 1265.97 Q214.787 1268.04 212.665 1271.38 L203.701 1270.21 L211.233 1230.27 L249.901 1230.27 L249.901 1239.4 L218.871 1239.4 L214.681 1260.3 Q221.682 1255.42 229.373 1255.42 Q239.557 1255.42 246.559 1262.47 Q253.561 1269.53 253.561 1280.61 Q253.561 1291.17 247.408 1298.86 Q239.929 1308.3 226.986 1308.3 Q216.378 1308.3 209.642 1302.36 Q202.958 1296.42 202.004 1286.6 Z" fill="#000000" fill-rule="nonzero" fill-opacity="1" /><path clip-path="url(#clip830)" d="M51.8408 1090.41 Q51.8408 1076.62 54.652 1068.24 Q57.5163 1059.81 63.0858 1055.25 Q68.7083 1050.69 77.195 1050.69 Q83.454 1050.69 88.1748 1053.23 Q92.8955 1055.72 95.972 1060.5 Q99.0484 1065.22 100.799 1072.06 Q102.549 1078.85 102.549 1090.41 Q102.549 1104.1 99.738 1112.53 Q96.9268 1120.91 91.3043 1125.53 Q85.7348 1130.09 77.195 1130.09 Q65.9501 1130.09 59.5319 1122.03 Q51.8408 1112.32 51.8408 1090.41 M61.6536 1090.41 Q61.6536 1109.56 66.1092 1115.93 Q70.6178 1122.24 77.195 1122.24 Q83.7723 1122.24 88.2278 1115.87 Q92.7364 1109.51 92.7364 1090.41 Q92.7364 1071.21 88.2278 1064.9 Q83.7723 1058.59 77.0889 1058.59 Q70.5117 1058.59 66.5866 1064.16 Q61.6536 1071.27 61.6536 1090.41 Z" fill="#000000" fill-rule="nonzero" fill-opacity="1" /><path clip-path="url(#clip830)" d="M117.613 1128.76 L117.613 1117.89 L128.487 1117.89 L128.487 1128.76 L117.613 1128.76 Z" fill="#000000" fill-rule="nonzero" fill-opacity="1" /><path clip-path="url(#clip830)" d="M142.437 1108.4 L152.462 1107.55 Q153.576 1114.87 157.607 1118.58 Q161.691 1122.24 167.42 1122.24 Q174.315 1122.24 179.089 1117.04 Q183.863 1111.84 183.863 1103.25 Q183.863 1095.08 179.248 1090.36 Q174.687 1085.64 167.261 1085.64 Q162.646 1085.64 158.933 1087.76 Q155.22 1089.83 153.099 1093.17 L144.134 1092.01 L151.666 1052.06 L190.334 1052.06 L190.334 1061.19 L159.304 1061.19 L155.114 1082.09 Q162.116 1077.21 169.807 1077.21 Q179.991 1077.21 186.993 1084.26 Q193.994 1091.32 193.994 1102.4 Q193.994 1112.96 187.841 1120.65 Q180.362 1130.09 167.42 1130.09 Q156.811 1130.09 150.075 1124.15 Q143.392 1118.21 142.437 1108.4 Z" fill="#000000" fill-rule="nonzero" fill-opacity="1" /><path clip-path="url(#clip830)" d="M202.852 1090.41 Q202.852 1076.62 205.663 1068.24 Q208.528 1059.81 214.097 1055.25 Q219.72 1050.69 228.206 1050.69 Q234.465 1050.69 239.186 1053.23 Q243.907 1055.72 246.983 1060.5 Q250.06 1065.22 251.81 1072.06 Q253.561 1078.85 253.561 1090.41 Q253.561 1104.1 250.749 1112.53 Q247.938 1120.91 242.316 1125.53 Q236.746 1130.09 228.206 1130.09 Q216.961 1130.09 210.543 1122.03 Q202.852 1112.32 202.852 1090.41 M212.665 1090.41 Q212.665 1109.56 217.121 1115.93 Q221.629 1122.24 228.206 1122.24 Q234.784 1122.24 239.239 1115.87 Q243.748 1109.51 243.748 1090.41 Q243.748 1071.21 239.239 1064.9 Q234.784 1058.59 228.1 1058.59 Q221.523 1058.59 217.598 1064.16 Q212.665 1071.27 212.665 1090.41 Z" fill="#000000" fill-rule="nonzero" fill-opacity="1" /><path clip-path="url(#clip830)" d="M50.9921 912.205 Q50.9921 898.414 53.8034 890.033 Q56.6677 881.599 62.2371 877.038 Q67.8596 872.476 76.3463 872.476 Q82.6053 872.476 87.3261 875.022 Q92.0469 877.515 95.1233 882.289 Q98.1998 887.01 99.9502 893.852 Q101.701 900.641 101.701 912.205 Q101.701 925.89 98.8893 934.323 Q96.0781 942.704 90.4556 947.319 Q84.8862 951.88 76.3463 951.88 Q65.1014 951.88 58.6833 943.818 Q50.9921 934.111 50.9921 912.205 M60.8049 912.205 Q60.8049 931.353 65.2605 937.718 Q69.7691 944.03 76.3463 944.03 Q82.9236 944.03 87.3791 937.665 Q91.8877 931.3 91.8877 912.205 Q91.8877 893.003 87.3791 886.691 Q82.9236 880.379 76.2403 880.379 Q69.663 880.379 65.7379 885.949 Q60.8049 893.056 60.8049 912.205 Z" fill="#000000" fill-rule="nonzero" fill-opacity="1" /><path clip-path="url(#clip830)" d="M116.765 950.554 L116.765 939.681 L127.638 939.681 L127.638 950.554 L116.765 950.554 Z" fill="#000000" fill-rule="nonzero" fill-opacity="1" /><path clip-path="url(#clip830)" d="M142.225 882.978 L142.225 873.802 L192.562 873.802 L192.562 881.228 Q185.136 889.131 177.816 902.233 Q170.549 915.334 166.571 929.178 Q163.707 938.938 162.911 950.554 L153.099 950.554 Q153.258 941.378 156.705 928.383 Q160.153 915.387 166.571 903.347 Q173.042 891.253 180.309 882.978 L142.225 882.978 Z" fill="#000000" fill-rule="nonzero" fill-opacity="1" /><path clip-path="url(#clip830)" d="M202.004 930.186 L212.029 929.337 Q213.142 936.657 217.174 940.37 Q221.258 944.03 226.986 944.03 Q233.882 944.03 238.656 938.832 Q243.43 933.634 243.43 925.041 Q243.43 916.872 238.815 912.152 Q234.253 907.431 226.827 907.431 Q222.213 907.431 218.5 909.553 Q214.787 911.621 212.665 914.963 L203.701 913.796 L211.233 873.855 L249.901 873.855 L249.901 882.978 L218.871 882.978 L214.681 903.877 Q221.682 898.997 229.373 898.997 Q239.557 898.997 246.559 906.052 Q253.561 913.106 253.561 924.192 Q253.561 934.748 247.408 942.439 Q239.929 951.88 226.986 951.88 Q216.378 951.88 209.642 945.94 Q202.958 939.999 202.004 930.186 Z" fill="#000000" fill-rule="nonzero" fill-opacity="1" /><path clip-path="url(#clip830)" d="M87.8035 772.345 L78.2559 772.345 L78.2559 711.505 Q74.8081 714.794 69.1856 718.083 Q63.6162 721.371 59.1606 723.016 L59.1606 713.786 Q67.17 710.02 73.1638 704.663 Q79.1576 699.306 81.6506 694.267 L87.8035 694.267 L87.8035 772.345 Z" fill="#000000" fill-rule="nonzero" fill-opacity="1" /><path clip-path="url(#clip830)" d="M117.613 772.345 L117.613 761.471 L128.487 761.471 L128.487 772.345 L117.613 772.345 Z" fill="#000000" fill-rule="nonzero" fill-opacity="1" /><path clip-path="url(#clip830)" d="M142.437 733.995 Q142.437 720.204 145.248 711.824 Q148.113 703.39 153.682 698.828 Q159.304 694.267 167.791 694.267 Q174.05 694.267 178.771 696.813 Q183.492 699.306 186.568 704.079 Q189.645 708.8 191.395 715.643 Q193.145 722.432 193.145 733.995 Q193.145 747.68 190.334 756.114 Q187.523 764.495 181.901 769.109 Q176.331 773.671 167.791 773.671 Q156.546 773.671 150.128 765.608 Q142.437 755.902 142.437 733.995 M152.25 733.995 Q152.25 753.144 156.705 759.509 Q161.214 765.821 167.791 765.821 Q174.368 765.821 178.824 759.456 Q183.333 753.09 183.333 733.995 Q183.333 714.794 178.824 708.482 Q174.368 702.17 167.685 702.17 Q161.108 702.17 157.183 707.739 Q152.25 714.847 152.25 733.995 Z" fill="#000000" fill-rule="nonzero" fill-opacity="1" /><path clip-path="url(#clip830)" d="M202.852 733.995 Q202.852 720.204 205.663 711.824 Q208.528 703.39 214.097 698.828 Q219.72 694.267 228.206 694.267 Q234.465 694.267 239.186 696.813 Q243.907 699.306 246.983 704.079 Q250.06 708.8 251.81 715.643 Q253.561 722.432 253.561 733.995 Q253.561 747.68 250.749 756.114 Q247.938 764.495 242.316 769.109 Q236.746 773.671 228.206 773.671 Q216.961 773.671 210.543 765.608 Q202.852 755.902 202.852 733.995 M212.665 733.995 Q212.665 753.144 217.121 759.509 Q221.629 765.821 228.206 765.821 Q234.784 765.821 239.239 759.456 Q243.748 753.09 243.748 733.995 Q243.748 714.794 239.239 708.482 Q234.784 702.17 228.1 702.17 Q221.523 702.17 217.598 707.739 Q212.665 714.847 212.665 733.995 Z" fill="#000000" fill-rule="nonzero" fill-opacity="1" /><path clip-path="url(#clip830)" d="M86.9548 594.135 L77.4072 594.135 L77.4072 533.296 Q73.9594 536.585 68.337 539.873 Q62.7675 543.162 58.312 544.806 L58.312 535.577 Q66.3213 531.811 72.3151 526.453 Q78.3089 521.096 80.8019 516.057 L86.9548 516.057 L86.9548 594.135 Z" fill="#000000" fill-rule="nonzero" fill-opacity="1" /><path clip-path="url(#clip830)" d="M116.765 594.135 L116.765 583.262 L127.638 583.262 L127.638 594.135 L116.765 594.135 Z" fill="#000000" fill-rule="nonzero" fill-opacity="1" /><path clip-path="url(#clip830)" d="M191.766 584.959 L191.766 594.135 L140.368 594.135 Q140.262 590.688 141.482 587.505 Q143.445 582.254 147.741 577.162 Q152.091 572.07 160.259 565.386 Q172.936 554.99 177.392 548.943 Q181.847 542.843 181.847 537.433 Q181.847 531.758 177.763 527.886 Q173.732 523.96 167.208 523.96 Q160.312 523.96 156.175 528.098 Q152.038 532.235 151.985 539.555 L142.172 538.547 Q143.18 527.567 149.757 521.839 Q156.334 516.057 167.42 516.057 Q178.612 516.057 185.136 522.263 Q191.66 528.469 191.66 537.645 Q191.66 542.313 189.751 546.822 Q187.841 551.33 183.386 556.316 Q178.983 561.302 168.693 570.001 Q160.1 577.215 157.66 579.814 Q155.22 582.36 153.629 584.959 L191.766 584.959 Z" fill="#000000" fill-rule="nonzero" fill-opacity="1" /><path clip-path="url(#clip830)" d="M202.004 573.767 L212.029 572.918 Q213.142 580.238 217.174 583.951 Q221.258 587.611 226.986 587.611 Q233.882 587.611 238.656 582.413 Q243.43 577.215 243.43 568.622 Q243.43 560.454 238.815 555.733 Q234.253 551.012 226.827 551.012 Q222.213 551.012 218.5 553.134 Q214.787 555.202 212.665 558.544 L203.701 557.377 L211.233 517.436 L249.901 517.436 L249.901 526.56 L218.871 526.56 L214.681 547.458 Q221.682 542.578 229.373 542.578 Q239.557 542.578 246.559 549.633 Q253.561 556.688 253.561 567.773 Q253.561 578.329 247.408 586.02 Q239.929 595.461 226.986 595.461 Q216.378 595.461 209.642 589.521 Q202.958 583.58 202.004 573.767 Z" fill="#000000" fill-rule="nonzero" fill-opacity="1" /><path clip-path="url(#clip830)" d="M87.8035 415.926 L78.2559 415.926 L78.2559 355.086 Q74.8081 358.375 69.1856 361.664 Q63.6162 364.952 59.1606 366.597 L59.1606 357.367 Q67.17 353.601 73.1638 348.244 Q79.1576 342.887 81.6506 337.848 L87.8035 337.848 L87.8035 415.926 Z" fill="#000000" fill-rule="nonzero" fill-opacity="1" /><path clip-path="url(#clip830)" d="M117.613 415.926 L117.613 405.052 L128.487 405.052 L128.487 415.926 L117.613 415.926 Z" fill="#000000" fill-rule="nonzero" fill-opacity="1" /><path clip-path="url(#clip830)" d="M142.437 395.558 L152.462 394.709 Q153.576 402.029 157.607 405.742 Q161.691 409.402 167.42 409.402 Q174.315 409.402 179.089 404.204 Q183.863 399.005 183.863 390.413 Q183.863 382.244 179.248 377.523 Q174.687 372.803 167.261 372.803 Q162.646 372.803 158.933 374.924 Q155.22 376.993 153.099 380.335 L144.134 379.168 L151.666 339.227 L190.334 339.227 L190.334 348.35 L159.304 348.35 L155.114 369.249 Q162.116 364.369 169.807 364.369 Q179.991 364.369 186.993 371.423 Q193.994 378.478 193.994 389.564 Q193.994 400.119 187.841 407.81 Q180.362 417.252 167.42 417.252 Q156.811 417.252 150.075 411.311 Q143.392 405.371 142.437 395.558 Z" fill="#000000" fill-rule="nonzero" fill-opacity="1" /><path clip-path="url(#clip830)" d="M202.852 377.576 Q202.852 363.785 205.663 355.405 Q208.528 346.971 214.097 342.409 Q219.72 337.848 228.206 337.848 Q234.465 337.848 239.186 340.394 Q243.907 342.887 246.983 347.661 Q250.06 352.381 251.81 359.224 Q253.561 366.013 253.561 377.576 Q253.561 391.261 250.749 399.695 Q247.938 408.076 242.316 412.69 Q236.746 417.252 228.206 417.252 Q216.961 417.252 210.543 409.19 Q202.852 399.483 202.852 377.576 M212.665 377.576 Q212.665 396.725 217.121 403.09 Q221.629 409.402 228.206 409.402 Q234.784 409.402 239.239 403.037 Q243.748 396.672 243.748 377.576 Q243.748 358.375 239.239 352.063 Q234.784 345.751 228.1 345.751 Q221.523 345.751 217.598 351.32 Q212.665 358.428 212.665 377.576 Z" fill="#000000" fill-rule="nonzero" fill-opacity="1" /><path clip-path="url(#clip830)" d="M86.9548 237.716 L77.4072 237.716 L77.4072 176.877 Q73.9594 180.166 68.337 183.454 Q62.7675 186.743 58.312 188.387 L58.312 179.158 Q66.3213 175.392 72.3151 170.035 Q78.3089 164.677 80.8019 159.638 L86.9548 159.638 L86.9548 237.716 Z" fill="#000000" fill-rule="nonzero" fill-opacity="1" /><path clip-path="url(#clip830)" d="M116.765 237.716 L116.765 226.843 L127.638 226.843 L127.638 237.716 L116.765 237.716 Z" fill="#000000" fill-rule="nonzero" fill-opacity="1" /><path clip-path="url(#clip830)" d="M142.225 170.141 L142.225 160.964 L192.562 160.964 L192.562 168.39 Q185.136 176.294 177.816 189.395 Q170.549 202.496 166.571 216.34 Q163.707 226.1 162.911 237.716 L153.099 237.716 Q153.258 228.54 156.705 215.545 Q160.153 202.549 166.571 190.509 Q173.042 178.415 180.309 170.141 L142.225 170.141 Z" fill="#000000" fill-rule="nonzero" fill-opacity="1" /><path clip-path="url(#clip830)" d="M202.004 217.348 L212.029 216.5 Q213.142 223.819 217.174 227.532 Q221.258 231.192 226.986 231.192 Q233.882 231.192 238.656 225.994 Q243.43 220.796 243.43 212.203 Q243.43 204.035 238.815 199.314 Q234.253 194.593 226.827 194.593 Q222.213 194.593 218.5 196.715 Q214.787 198.783 212.665 202.125 L203.701 200.958 L211.233 161.017 L249.901 161.017 L249.901 170.141 L218.871 170.141 L214.681 191.039 Q221.682 186.159 229.373 186.159 Q239.557 186.159 246.559 193.214 Q253.561 200.269 253.561 211.354 Q253.561 221.91 247.408 229.601 Q239.929 239.043 226.986 239.043 Q216.378 239.043 209.642 233.102 Q202.958 227.161 202.004 217.348 Z" fill="#000000" fill-rule="nonzero" fill-opacity="1" /><circle clip-path="url(#clip832)" cx="1407.03" cy="1191.89" r="14.4" fill="#009af9" fill-rule="evenodd" fill-opacity="1" stroke="#000000" stroke-opacity="1" stroke-width="3.2"/>
<circle clip-path="url(#clip832)" cx="2229.2" cy="1407.85" r="14.4" fill="#009af9" fill-rule="evenodd" fill-opacity="1" stroke="#000000" stroke-opacity="1" stroke-width="3.2"/>
<circle clip-path="url(#clip832)" cx="329.268" cy="1041.99" r="14.4" fill="#009af9" fill-rule="evenodd" fill-opacity="1" stroke="#000000" stroke-opacity="1" stroke-width="3.2"/>
<circle clip-path="url(#clip832)" cx="303.067" cy="221.503" r="14.4" fill="#009af9" fill-rule="evenodd" fill-opacity="1" stroke="#000000" stroke-opacity="1" stroke-width="3.2"/>
<circle clip-path="url(#clip832)" cx="2190.43" cy="146.839" r="14.4" fill="#009af9" fill-rule="evenodd" fill-opacity="1" stroke="#000000" stroke-opacity="1" stroke-width="3.2"/>
<circle clip-path="url(#clip832)" cx="2170.27" cy="128.983" r="14.4" fill="#009af9" fill-rule="evenodd" fill-opacity="1" stroke="#000000" stroke-opacity="1" stroke-width="3.2"/>
<circle clip-path="url(#clip832)" cx="1046.99" cy="845.768" r="14.4" fill="#009af9" fill-rule="evenodd" fill-opacity="1" stroke="#000000" stroke-opacity="1" stroke-width="3.2"/>
<circle clip-path="url(#clip832)" cx="1935.44" cy="139.015" r="14.4" fill="#009af9" fill-rule="evenodd" fill-opacity="1" stroke="#000000" stroke-opacity="1" stroke-width="3.2"/>
<circle clip-path="url(#clip832)" cx="1838.34" cy="447.276" r="14.4" fill="#009af9" fill-rule="evenodd" fill-opacity="1" stroke="#000000" stroke-opacity="1" stroke-width="3.2"/>
<circle clip-path="url(#clip832)" cx="1703.53" cy="1430.33" r="14.4" fill="#009af9" fill-rule="evenodd" fill-opacity="1" stroke="#000000" stroke-opacity="1" stroke-width="3.2"/>
<circle clip-path="url(#clip832)" cx="857.483" cy="1291.51" r="14.4" fill="#009af9" fill-rule="evenodd" fill-opacity="1" stroke="#000000" stroke-opacity="1" stroke-width="3.2"/>
<circle clip-path="url(#clip832)" cx="365.613" cy="1068.36" r="14.4" fill="#009af9" fill-rule="evenodd" fill-opacity="1" stroke="#000000" stroke-opacity="1" stroke-width="3.2"/>
<circle clip-path="url(#clip832)" cx="698.622" cy="1118.74" r="14.4" fill="#009af9" fill-rule="evenodd" fill-opacity="1" stroke="#000000" stroke-opacity="1" stroke-width="3.2"/>
<circle clip-path="url(#clip832)" cx="337.777" cy="1186.98" r="14.4" fill="#009af9" fill-rule="evenodd" fill-opacity="1" stroke="#000000" stroke-opacity="1" stroke-width="3.2"/>
<circle clip-path="url(#clip832)" cx="1997.63" cy="578.109" r="14.4" fill="#009af9" fill-rule="evenodd" fill-opacity="1" stroke="#000000" stroke-opacity="1" stroke-width="3.2"/>
<circle clip-path="url(#clip832)" cx="289.561" cy="1153.97" r="14.4" fill="#009af9" fill-rule="evenodd" fill-opacity="1" stroke="#000000" stroke-opacity="1" stroke-width="3.2"/>
<circle clip-path="url(#clip832)" cx="790.936" cy="90.6013" r="14.4" fill="#009af9" fill-rule="evenodd" fill-opacity="1" stroke="#000000" stroke-opacity="1" stroke-width="3.2"/>
<circle clip-path="url(#clip832)" cx="1097.66" cy="1007.46" r="14.4" fill="#009af9" fill-rule="evenodd" fill-opacity="1" stroke="#000000" stroke-opacity="1" stroke-width="3.2"/>
<circle clip-path="url(#clip832)" cx="909.229" cy="1244.77" r="14.4" fill="#009af9" fill-rule="evenodd" fill-opacity="1" stroke="#000000" stroke-opacity="1" stroke-width="3.2"/>
<circle clip-path="url(#clip832)" cx="1291.25" cy="1086.23" r="14.4" fill="#009af9" fill-rule="evenodd" fill-opacity="1" stroke="#000000" stroke-opacity="1" stroke-width="3.2"/>
<circle clip-path="url(#clip832)" cx="2135.54" cy="846.553" r="14.4" fill="#009af9" fill-rule="evenodd" fill-opacity="1" stroke="#000000" stroke-opacity="1" stroke-width="3.2"/>
<circle clip-path="url(#clip832)" cx="1267.08" cy="412.763" r="14.4" fill="#009af9" fill-rule="evenodd" fill-opacity="1" stroke="#000000" stroke-opacity="1" stroke-width="3.2"/>
<circle clip-path="url(#clip832)" cx="1119.32" cy="1183.69" r="14.4" fill="#009af9" fill-rule="evenodd" fill-opacity="1" stroke="#000000" stroke-opacity="1" stroke-width="3.2"/>
<circle clip-path="url(#clip832)" cx="1160.64" cy="391.049" r="14.4" fill="#009af9" fill-rule="evenodd" fill-opacity="1" stroke="#000000" stroke-opacity="1" stroke-width="3.2"/>
<circle clip-path="url(#clip832)" cx="2233.39" cy="1389.7" r="14.4" fill="#009af9" fill-rule="evenodd" fill-opacity="1" stroke="#000000" stroke-opacity="1" stroke-width="3.2"/>
<circle clip-path="url(#clip832)" cx="493.795" cy="1252.82" r="14.4" fill="#009af9" fill-rule="evenodd" fill-opacity="1" stroke="#000000" stroke-opacity="1" stroke-width="3.2"/>
<circle clip-path="url(#clip832)" cx="1022.88" cy="1069.69" r="14.4" fill="#009af9" fill-rule="evenodd" fill-opacity="1" stroke="#000000" stroke-opacity="1" stroke-width="3.2"/>
<circle clip-path="url(#clip832)" cx="504.521" cy="1048.3" r="14.4" fill="#009af9" fill-rule="evenodd" fill-opacity="1" stroke="#000000" stroke-opacity="1" stroke-width="3.2"/>
<circle clip-path="url(#clip832)" cx="1284.94" cy="951.758" r="14.4" fill="#009af9" fill-rule="evenodd" fill-opacity="1" stroke="#000000" stroke-opacity="1" stroke-width="3.2"/>
<circle clip-path="url(#clip832)" cx="937.091" cy="1299.47" r="14.4" fill="#009af9" fill-rule="evenodd" fill-opacity="1" stroke="#000000" stroke-opacity="1" stroke-width="3.2"/>
<circle clip-path="url(#clip832)" cx="1209.32" cy="1439.44" r="14.4" fill="#009af9" fill-rule="evenodd" fill-opacity="1" stroke="#000000" stroke-opacity="1" stroke-width="3.2"/>
<circle clip-path="url(#clip832)" cx="796.045" cy="727.546" r="14.4" fill="#009af9" fill-rule="evenodd" fill-opacity="1" stroke="#000000" stroke-opacity="1" stroke-width="3.2"/>
<circle clip-path="url(#clip832)" cx="1566.23" cy="531.91" r="14.4" fill="#009af9" fill-rule="evenodd" fill-opacity="1" stroke="#000000" stroke-opacity="1" stroke-width="3.2"/>
<circle clip-path="url(#clip832)" cx="741.058" cy="742.18" r="14.4" fill="#009af9" fill-rule="evenodd" fill-opacity="1" stroke="#000000" stroke-opacity="1" stroke-width="3.2"/>
<circle clip-path="url(#clip832)" cx="851.74" cy="451.707" r="14.4" fill="#009af9" fill-rule="evenodd" fill-opacity="1" stroke="#000000" stroke-opacity="1" stroke-width="3.2"/>
<circle clip-path="url(#clip832)" cx="777.928" cy="784.995" r="14.4" fill="#009af9" fill-rule="evenodd" fill-opacity="1" stroke="#000000" stroke-opacity="1" stroke-width="3.2"/>
<circle clip-path="url(#clip832)" cx="905.079" cy="1279.66" r="14.4" fill="#009af9" fill-rule="evenodd" fill-opacity="1" stroke="#000000" stroke-opacity="1" stroke-width="3.2"/>
<circle clip-path="url(#clip832)" cx="2299.4" cy="1319.98" r="14.4" fill="#009af9" fill-rule="evenodd" fill-opacity="1" stroke="#000000" stroke-opacity="1" stroke-width="3.2"/>
<circle clip-path="url(#clip832)" cx="938.101" cy="787.572" r="14.4" fill="#009af9" fill-rule="evenodd" fill-opacity="1" stroke="#000000" stroke-opacity="1" stroke-width="3.2"/>
<circle clip-path="url(#clip832)" cx="1354.7" cy="1196.78" r="14.4" fill="#009af9" fill-rule="evenodd" fill-opacity="1" stroke="#000000" stroke-opacity="1" stroke-width="3.2"/>
<circle clip-path="url(#clip832)" cx="2239.26" cy="538.175" r="14.4" fill="#009af9" fill-rule="evenodd" fill-opacity="1" stroke="#000000" stroke-opacity="1" stroke-width="3.2"/>
<circle clip-path="url(#clip832)" cx="584.823" cy="153.01" r="14.4" fill="#009af9" fill-rule="evenodd" fill-opacity="1" stroke="#000000" stroke-opacity="1" stroke-width="3.2"/>
<circle clip-path="url(#clip832)" cx="1200.19" cy="1083.3" r="14.4" fill="#009af9" fill-rule="evenodd" fill-opacity="1" stroke="#000000" stroke-opacity="1" stroke-width="3.2"/>
<circle clip-path="url(#clip832)" cx="898.685" cy="281.609" r="14.4" fill="#009af9" fill-rule="evenodd" fill-opacity="1" stroke="#000000" stroke-opacity="1" stroke-width="3.2"/>
<circle clip-path="url(#clip832)" cx="868.547" cy="988.545" r="14.4" fill="#009af9" fill-rule="evenodd" fill-opacity="1" stroke="#000000" stroke-opacity="1" stroke-width="3.2"/>
<circle clip-path="url(#clip832)" cx="1709.35" cy="1443.25" r="14.4" fill="#009af9" fill-rule="evenodd" fill-opacity="1" stroke="#000000" stroke-opacity="1" stroke-width="3.2"/>
<circle clip-path="url(#clip832)" cx="2118.3" cy="581.904" r="14.4" fill="#009af9" fill-rule="evenodd" fill-opacity="1" stroke="#000000" stroke-opacity="1" stroke-width="3.2"/>
<circle clip-path="url(#clip832)" cx="290.128" cy="1123.88" r="14.4" fill="#009af9" fill-rule="evenodd" fill-opacity="1" stroke="#000000" stroke-opacity="1" stroke-width="3.2"/>
<circle clip-path="url(#clip832)" cx="339.501" cy="1005.43" r="14.4" fill="#009af9" fill-rule="evenodd" fill-opacity="1" stroke="#000000" stroke-opacity="1" stroke-width="3.2"/>
<circle clip-path="url(#clip832)" cx="1593.1" cy="47.2441" r="14.4" fill="#009af9" fill-rule="evenodd" fill-opacity="1" stroke="#000000" stroke-opacity="1" stroke-width="3.2"/>
<path clip-path="url(#clip830)" d="M1936.36 327.058 L2283.98 327.058 L2283.98 93.7776 L1936.36 93.7776  Z" fill="#ffffff" fill-rule="evenodd" fill-opacity="1"/>
<polyline clip-path="url(#clip830)" style="stroke:#000000; stroke-linecap:round; stroke-linejoin:round; stroke-width:4; stroke-opacity:1; fill:none" points="1936.36,327.058 2283.98,327.058 2283.98,93.7776 1936.36,93.7776 1936.36,327.058 "/>
<circle clip-path="url(#clip830)" cx="2028.06" cy="210.418" r="46.08" fill="#009af9" fill-rule="evenodd" fill-opacity="1" stroke="#000000" stroke-opacity="1" stroke-width="10.24"/>
<path clip-path="url(#clip830)" d="M2119.75 210.948 Q2119.75 197.157 2122.56 188.776 Q2125.43 180.343 2131 175.781 Q2136.62 171.219 2145.11 171.219 Q2151.37 171.219 2156.09 173.765 Q2160.81 176.258 2163.88 181.032 Q2166.96 185.753 2168.71 192.595 Q2170.46 199.385 2170.46 210.948 Q2170.46 224.633 2167.65 233.067 Q2164.84 241.447 2159.22 246.062 Q2153.65 250.624 2145.11 250.624 Q2133.86 250.624 2127.44 242.561 Q2119.75 232.854 2119.75 210.948 M2129.57 210.948 Q2129.57 230.096 2134.02 236.461 Q2138.53 242.773 2145.11 242.773 Q2151.69 242.773 2156.14 236.408 Q2160.65 230.043 2160.65 210.948 Q2160.65 191.747 2156.14 185.435 Q2151.69 179.123 2145 179.123 Q2138.42 179.123 2134.5 184.692 Q2129.57 191.8 2129.57 210.948 Z" fill="#000000" fill-rule="nonzero" fill-opacity="1" /><path clip-path="url(#clip830)" d="M2185.53 249.298 L2185.53 238.424 L2196.4 238.424 L2196.4 249.298 L2185.53 249.298 Z" fill="#000000" fill-rule="nonzero" fill-opacity="1" /><path clip-path="url(#clip830)" d="M2210.35 210.948 Q2210.35 197.157 2213.16 188.776 Q2216.03 180.343 2221.59 175.781 Q2227.22 171.219 2235.7 171.219 Q2241.96 171.219 2246.68 173.765 Q2251.4 176.258 2254.48 181.032 Q2257.56 185.753 2259.31 192.595 Q2261.06 199.385 2261.06 210.948 Q2261.06 224.633 2258.25 233.067 Q2255.44 241.447 2249.81 246.062 Q2244.24 250.624 2235.7 250.624 Q2224.46 250.624 2218.04 242.561 Q2210.35 232.854 2210.35 210.948 M2220.16 210.948 Q2220.16 230.096 2224.62 236.461 Q2229.13 242.773 2235.7 242.773 Q2242.28 242.773 2246.74 236.408 Q2251.25 230.043 2251.25 210.948 Q2251.25 191.747 2246.74 185.435 Q2242.28 179.123 2235.6 179.123 Q2229.02 179.123 2225.1 184.692 Q2220.16 191.8 2220.16 210.948 Z" fill="#000000" fill-rule="nonzero" fill-opacity="1" /></svg>
