<?xml version="1.0" encoding="utf-8"?>
<svg xmlns="http://www.w3.org/2000/svg" xmlns:xlink="http://www.w3.org/1999/xlink" width="600" height="400" viewBox="0 0 2400 1600">
<defs>
  <clipPath id="clip310">
    <rect x="0" y="0" width="2400" height="1600"/>
  </clipPath>
</defs>
<path clip-path="url(#clip310)" d="M0 1600 L2400 1600 L2400 8.88178e-14 L0 8.88178e-14  Z" fill="#ffffff" fill-rule="evenodd" fill-opacity="1"/>
<defs>
  <clipPath id="clip311">
    <rect x="480" y="0" width="1681" height="1600"/>
  </clipPath>
</defs>
<path clip-path="url(#clip310)" d="M384.395 1349.74 L2352.76 1349.74 L2352.76 47.2441 L384.395 47.2441  Z" fill="#ffffff" fill-rule="evenodd" fill-opacity="1"/>
<defs>
  <clipPath id="clip312">
    <rect x="384" y="47" width="1969" height="1303"/>
  </clipPath>
</defs>
<polyline clip-path="url(#clip310)" style="stroke:#000000; stroke-linecap:round; stroke-linejoin:round; stroke-width:4; stroke-opacity:1; fill:none" points="384.395,1349.74 2352.76,1349.74 "/>
<polyline clip-path="url(#clip310)" style="stroke:#000000; stroke-linecap:round; stroke-linejoin:round; stroke-width:2; stroke-opacity:0.5; fill:none" points="384.395,47.2441 2352.76,47.2441 "/>
<polyline clip-path="url(#clip310)" style="stroke:#000000; stroke-linecap:round; stroke-linejoin:round; stroke-width:4; stroke-opacity:1; fill:none" points="392.489,1349.74 392.489,1330.84 "/>
<polyline clip-path="url(#clip310)" style="stroke:#000000; stroke-linecap:round; stroke-linejoin:round; stroke-width:4; stroke-opacity:1; fill:none" points="868.629,1349.74 868.629,1330.84 "/>
<polyline clip-path="url(#clip310)" style="stroke:#000000; stroke-linecap:round; stroke-linejoin:round; stroke-width:4; stroke-opacity:1; fill:none" points="1344.77,1349.74 1344.77,1330.84 "/>
<polyline clip-path="url(#clip310)" style="stroke:#000000; stroke-linecap:round; stroke-linejoin:round; stroke-width:4; stroke-opacity:1; fill:none" points="1820.91,1349.74 1820.91,1330.84 "/>
<polyline clip-path="url(#clip310)" style="stroke:#000000; stroke-linecap:round; stroke-linejoin:round; stroke-width:4; stroke-opacity:1; fill:none" points="2297.05,1349.74 2297.05,1330.84 "/>
<path clip-path="url(#clip310)" d="M367.135 1427.79 Q367.135 1414 369.946 1405.62 Q372.81 1397.18 378.38 1392.62 Q384.002 1388.06 392.489 1388.06 Q398.748 1388.06 403.469 1390.61 Q408.19 1393.1 411.266 1397.87 Q414.343 1402.6 416.093 1409.44 Q417.843 1416.23 417.843 1427.79 Q417.843 1441.48 415.032 1449.91 Q412.221 1458.29 406.598 1462.9 Q401.029 1467.47 392.489 1467.47 Q381.244 1467.47 374.826 1459.4 Q367.135 1449.7 367.135 1427.79 M376.948 1427.79 Q376.948 1446.94 381.403 1453.3 Q385.912 1459.62 392.489 1459.62 Q399.066 1459.62 403.522 1453.25 Q408.03 1446.89 408.03 1427.79 Q408.03 1408.59 403.522 1402.28 Q399.066 1395.96 392.383 1395.96 Q385.806 1395.96 381.881 1401.53 Q376.948 1408.64 376.948 1427.79 Z" fill="#000000" fill-rule="nonzero" fill-opacity="1" /><path clip-path="url(#clip310)" d="M845.37 1466.14 L835.822 1466.14 L835.822 1405.3 Q832.374 1408.59 826.752 1411.88 Q821.182 1415.17 816.727 1416.81 L816.727 1407.58 Q824.736 1403.82 830.73 1398.46 Q836.724 1393.1 839.217 1388.06 L845.37 1388.06 L845.37 1466.14 Z" fill="#000000" fill-rule="nonzero" fill-opacity="1" /><path clip-path="url(#clip310)" d="M869.822 1427.79 Q869.822 1414 872.633 1405.62 Q875.498 1397.18 881.067 1392.62 Q886.69 1388.06 895.176 1388.06 Q901.435 1388.06 906.156 1390.61 Q910.877 1393.1 913.953 1397.87 Q917.03 1402.6 918.78 1409.44 Q920.531 1416.23 920.531 1427.79 Q920.531 1441.48 917.719 1449.91 Q914.908 1458.29 909.286 1462.9 Q903.716 1467.47 895.176 1467.47 Q883.931 1467.47 877.513 1459.4 Q869.822 1449.7 869.822 1427.79 M879.635 1427.79 Q879.635 1446.94 884.091 1453.3 Q888.599 1459.62 895.176 1459.62 Q901.754 1459.62 906.209 1453.25 Q910.718 1446.89 910.718 1427.79 Q910.718 1408.59 906.209 1402.28 Q901.754 1395.96 895.07 1395.96 Q888.493 1395.96 884.568 1401.53 Q879.635 1408.64 879.635 1427.79 Z" fill="#000000" fill-rule="nonzero" fill-opacity="1" /><path clip-path="url(#clip310)" d="M1340.05 1456.96 L1340.05 1466.14 L1288.65 1466.14 Q1288.54 1462.69 1289.76 1459.51 Q1291.73 1454.26 1296.02 1449.17 Q1300.37 1444.07 1308.54 1437.39 Q1321.22 1426.99 1325.67 1420.95 Q1330.13 1414.85 1330.13 1409.44 Q1330.13 1403.76 1326.04 1399.89 Q1322.01 1395.96 1315.49 1395.96 Q1308.59 1395.96 1304.46 1400.1 Q1300.32 1404.24 1300.27 1411.56 L1290.45 1410.55 Q1291.46 1399.57 1298.04 1393.84 Q1304.62 1388.06 1315.7 1388.06 Q1326.89 1388.06 1333.42 1394.27 Q1339.94 1400.47 1339.94 1409.65 Q1339.94 1414.32 1338.03 1418.83 Q1336.12 1423.33 1331.67 1428.32 Q1327.26 1433.31 1316.97 1442.01 Q1308.38 1449.22 1305.94 1451.82 Q1303.5 1454.36 1301.91 1456.96 L1340.05 1456.96 Z" fill="#000000" fill-rule="nonzero" fill-opacity="1" /><path clip-path="url(#clip310)" d="M1350.28 1427.79 Q1350.28 1414 1353.1 1405.62 Q1355.96 1397.18 1361.53 1392.62 Q1367.15 1388.06 1375.64 1388.06 Q1381.9 1388.06 1386.62 1390.61 Q1391.34 1393.1 1394.42 1397.87 Q1397.49 1402.6 1399.24 1409.44 Q1400.99 1416.23 1400.99 1427.79 Q1400.99 1441.48 1398.18 1449.91 Q1395.37 1458.29 1389.75 1462.9 Q1384.18 1467.47 1375.64 1467.47 Q1364.39 1467.47 1357.98 1459.4 Q1350.28 1449.7 1350.28 1427.79 M1360.1 1427.79 Q1360.1 1446.94 1364.55 1453.3 Q1369.06 1459.62 1375.64 1459.62 Q1382.22 1459.62 1386.67 1453.25 Q1391.18 1446.89 1391.18 1427.79 Q1391.18 1408.59 1386.67 1402.28 Q1382.22 1395.96 1375.53 1395.96 Q1368.96 1395.96 1365.03 1401.53 Q1360.1 1408.64 1360.1 1427.79 Z" fill="#000000" fill-rule="nonzero" fill-opacity="1" /><path clip-path="url(#clip310)" d="M1765.37 1445.61 L1774.92 1444.34 Q1776.56 1452.45 1780.49 1456.06 Q1784.47 1459.62 1790.14 1459.62 Q1796.88 1459.62 1801.49 1454.95 Q1806.16 1450.28 1806.16 1443.38 Q1806.16 1436.81 1801.87 1432.56 Q1797.57 1428.27 1790.94 1428.27 Q1788.23 1428.27 1784.2 1429.33 L1785.26 1420.95 Q1786.22 1421.05 1786.8 1421.05 Q1792.9 1421.05 1797.78 1417.87 Q1802.66 1414.69 1802.66 1408.06 Q1802.66 1402.81 1799.11 1399.36 Q1795.55 1395.91 1789.93 1395.91 Q1784.36 1395.91 1780.65 1399.41 Q1776.94 1402.91 1775.88 1409.92 L1766.33 1408.22 Q1768.08 1398.62 1774.28 1393.37 Q1780.49 1388.06 1789.72 1388.06 Q1796.08 1388.06 1801.44 1390.82 Q1806.8 1393.52 1809.61 1398.25 Q1812.47 1402.97 1812.47 1408.27 Q1812.47 1413.31 1809.77 1417.45 Q1807.06 1421.58 1801.76 1424.02 Q1808.66 1425.62 1812.47 1430.65 Q1816.29 1435.64 1816.29 1443.17 Q1816.29 1453.36 1808.87 1460.46 Q1801.44 1467.52 1790.09 1467.52 Q1779.85 1467.52 1773.06 1461.42 Q1766.33 1455.32 1765.37 1445.61 Z" fill="#000000" fill-rule="nonzero" fill-opacity="1" /><path clip-path="url(#clip310)" d="M1825.73 1427.79 Q1825.73 1414 1828.55 1405.62 Q1831.41 1397.18 1836.98 1392.62 Q1842.6 1388.06 1851.09 1388.06 Q1857.35 1388.06 1862.07 1390.61 Q1866.79 1393.1 1869.87 1397.87 Q1872.94 1402.6 1874.69 1409.44 Q1876.44 1416.23 1876.44 1427.79 Q1876.44 1441.48 1873.63 1449.91 Q1870.82 1458.29 1865.2 1462.9 Q1859.63 1467.47 1851.09 1467.47 Q1839.84 1467.47 1833.43 1459.4 Q1825.73 1449.7 1825.73 1427.79 M1835.55 1427.79 Q1835.55 1446.94 1840 1453.3 Q1844.51 1459.62 1851.09 1459.62 Q1857.67 1459.62 1862.12 1453.25 Q1866.63 1446.89 1866.63 1427.79 Q1866.63 1408.59 1862.12 1402.28 Q1857.67 1395.96 1850.98 1395.96 Q1844.41 1395.96 1840.48 1401.53 Q1835.55 1408.64 1835.55 1427.79 Z" fill="#000000" fill-rule="nonzero" fill-opacity="1" /><path clip-path="url(#clip310)" d="M2273.66 1466.14 L2273.66 1447.52 L2239.92 1447.52 L2239.92 1438.77 L2275.41 1388.38 L2283.2 1388.38 L2283.2 1438.77 L2293.71 1438.77 L2293.71 1447.52 L2283.2 1447.52 L2283.2 1466.14 L2273.66 1466.14 M2273.66 1438.77 L2273.66 1403.71 L2249.31 1438.77 L2273.66 1438.77 Z" fill="#000000" fill-rule="nonzero" fill-opacity="1" /><path clip-path="url(#clip310)" d="M2303.47 1427.79 Q2303.47 1414 2306.28 1405.62 Q2309.14 1397.18 2314.71 1392.62 Q2320.33 1388.06 2328.82 1388.06 Q2335.08 1388.06 2339.8 1390.61 Q2344.52 1393.1 2347.6 1397.87 Q2350.67 1402.6 2352.42 1409.44 Q2354.17 1416.23 2354.17 1427.79 Q2354.17 1441.48 2351.36 1449.91 Q2348.55 1458.29 2342.93 1462.9 Q2337.36 1467.47 2328.82 1467.47 Q2317.57 1467.47 2311.16 1459.4 Q2303.47 1449.7 2303.47 1427.79 M2313.28 1427.79 Q2313.28 1446.94 2317.73 1453.3 Q2322.24 1459.62 2328.82 1459.62 Q2335.4 1459.62 2339.85 1453.25 Q2344.36 1446.89 2344.36 1427.79 Q2344.36 1408.59 2339.85 1402.28 Q2335.4 1395.96 2328.71 1395.96 Q2322.14 1395.96 2318.21 1401.53 Q2313.28 1408.64 2313.28 1427.79 Z" fill="#000000" fill-rule="nonzero" fill-opacity="1" /><path clip-path="url(#clip310)" d="M1268.01 1577.55 L1277.87 1578.77 Q1275.54 1587.42 1269.23 1592.19 Q1262.92 1596.96 1253.1 1596.96 Q1240.74 1596.96 1233.48 1589.38 Q1226.26 1581.74 1226.26 1568 Q1226.26 1553.79 1233.58 1545.94 Q1240.9 1538.09 1252.57 1538.09 Q1263.87 1538.09 1271.03 1545.78 Q1278.19 1553.47 1278.19 1567.42 Q1278.19 1568.27 1278.14 1569.97 L1236.13 1569.97 Q1236.66 1579.25 1241.38 1584.18 Q1246.1 1589.11 1253.16 1589.11 Q1258.41 1589.11 1262.12 1586.36 Q1265.83 1583.6 1268.01 1577.55 M1236.66 1562.12 L1268.11 1562.12 Q1267.48 1555.01 1264.51 1551.45 Q1259.94 1545.94 1252.68 1545.94 Q1246.1 1545.94 1241.59 1550.34 Q1237.14 1554.74 1236.66 1562.12 Z" fill="#000000" fill-rule="nonzero" fill-opacity="1" /><path clip-path="url(#clip310)" d="M1289.86 1617.28 L1289.86 1539.36 L1298.56 1539.36 L1298.56 1546.68 Q1301.64 1542.38 1305.51 1540.26 Q1309.38 1538.09 1314.9 1538.09 Q1322.11 1538.09 1327.63 1541.8 Q1333.14 1545.51 1335.95 1552.3 Q1338.77 1559.04 1338.77 1567.1 Q1338.77 1575.75 1335.64 1582.7 Q1332.56 1589.59 1326.62 1593.3 Q1320.73 1596.96 1314.21 1596.96 Q1309.43 1596.96 1305.61 1594.95 Q1301.85 1592.93 1299.41 1589.86 L1299.41 1617.28 L1289.86 1617.28 M1298.51 1567.84 Q1298.51 1578.72 1302.91 1583.92 Q1307.31 1589.11 1313.57 1589.11 Q1319.94 1589.11 1324.44 1583.76 Q1329.01 1578.35 1329.01 1567.05 Q1329.01 1556.28 1324.55 1550.92 Q1320.15 1545.57 1313.99 1545.57 Q1307.89 1545.57 1303.17 1551.3 Q1298.51 1556.97 1298.51 1567.84 Z" fill="#000000" fill-rule="nonzero" fill-opacity="1" /><path clip-path="url(#clip310)" d="M1346.72 1567.53 Q1346.72 1551.88 1355.42 1544.35 Q1362.69 1538.09 1373.14 1538.09 Q1384.75 1538.09 1392.13 1545.73 Q1399.5 1553.31 1399.5 1566.73 Q1399.5 1577.6 1396.21 1583.86 Q1392.97 1590.07 1386.72 1593.52 Q1380.51 1596.96 1373.14 1596.96 Q1361.31 1596.96 1353.99 1589.38 Q1346.72 1581.79 1346.72 1567.53 M1356.53 1567.53 Q1356.53 1578.35 1361.26 1583.76 Q1365.98 1589.11 1373.14 1589.11 Q1380.24 1589.11 1384.97 1583.7 Q1389.69 1578.29 1389.69 1567.21 Q1389.69 1556.76 1384.91 1551.4 Q1380.19 1545.99 1373.14 1545.99 Q1365.98 1545.99 1361.26 1551.35 Q1356.53 1556.71 1356.53 1567.53 Z" fill="#000000" fill-rule="nonzero" fill-opacity="1" /><path clip-path="url(#clip310)" d="M1447.45 1575.06 L1456.84 1576.28 Q1455.3 1585.99 1448.93 1591.5 Q1442.62 1596.96 1433.39 1596.96 Q1421.83 1596.96 1414.78 1589.43 Q1407.77 1581.85 1407.77 1567.74 Q1407.77 1558.62 1410.8 1551.77 Q1413.82 1544.93 1419.97 1541.54 Q1426.18 1538.09 1433.45 1538.09 Q1442.62 1538.09 1448.46 1542.76 Q1454.29 1547.37 1455.94 1555.91 L1446.65 1557.34 Q1445.33 1551.67 1441.93 1548.8 Q1438.59 1545.94 1433.82 1545.94 Q1426.6 1545.94 1422.09 1551.14 Q1417.59 1556.28 1417.59 1567.47 Q1417.59 1578.82 1421.94 1583.97 Q1426.29 1589.11 1433.29 1589.11 Q1438.91 1589.11 1442.68 1585.67 Q1446.44 1582.22 1447.45 1575.06 Z" fill="#000000" fill-rule="nonzero" fill-opacity="1" /><path clip-path="url(#clip310)" d="M1465.01 1595.69 L1465.01 1517.93 L1474.55 1517.93 L1474.55 1545.83 Q1481.24 1538.09 1491.42 1538.09 Q1497.68 1538.09 1502.29 1540.58 Q1506.91 1543.02 1508.87 1547.37 Q1510.89 1551.72 1510.89 1559.99 L1510.89 1595.69 L1501.34 1595.69 L1501.34 1559.99 Q1501.34 1552.83 1498.21 1549.6 Q1495.13 1546.31 1489.46 1546.31 Q1485.22 1546.31 1481.45 1548.54 Q1477.74 1550.71 1476.15 1554.48 Q1474.55 1558.24 1474.55 1564.87 L1474.55 1595.69 L1465.01 1595.69 Z" fill="#000000" fill-rule="nonzero" fill-opacity="1" /><polyline clip-path="url(#clip310)" style="stroke:#000000; stroke-linecap:round; stroke-linejoin:round; stroke-width:4; stroke-opacity:1; fill:none" points="384.395,1349.74 384.395,47.2441 "/>
<polyline clip-path="url(#clip310)" style="stroke:#000000; stroke-linecap:round; stroke-linejoin:round; stroke-width:2; stroke-opacity:0.5; fill:none" points="2352.76,1349.74 2352.76,47.2441 "/>
<polyline clip-path="url(#clip310)" style="stroke:#000000; stroke-linecap:round; stroke-linejoin:round; stroke-width:4; stroke-opacity:1; fill:none" points="384.395,1212.93 403.292,1212.93 "/>
<polyline clip-path="url(#clip310)" style="stroke:#000000; stroke-linecap:round; stroke-linejoin:round; stroke-width:4; stroke-opacity:1; fill:none" points="384.395,1013.65 403.292,1013.65 "/>
<polyline clip-path="url(#clip310)" style="stroke:#000000; stroke-linecap:round; stroke-linejoin:round; stroke-width:4; stroke-opacity:1; fill:none" points="384.395,814.368 403.292,814.368 "/>
<polyline clip-path="url(#clip310)" style="stroke:#000000; stroke-linecap:round; stroke-linejoin:round; stroke-width:4; stroke-opacity:1; fill:none" points="384.395,615.084 403.292,615.084 "/>
<polyline clip-path="url(#clip310)" style="stroke:#000000; stroke-linecap:round; stroke-linejoin:round; stroke-width:4; stroke-opacity:1; fill:none" points="384.395,415.801 403.292,415.801 "/>
<polyline clip-path="url(#clip310)" style="stroke:#000000; stroke-linecap:round; stroke-linejoin:round; stroke-width:4; stroke-opacity:1; fill:none" points="384.395,216.518 403.292,216.518 "/>
<path clip-path="url(#clip310)" d="M182.638 1251.81 L173.09 1251.81 L173.09 1190.97 Q169.642 1194.26 164.02 1197.55 Q158.45 1200.84 153.995 1202.48 L153.995 1193.26 Q162.004 1189.49 167.998 1184.13 Q173.992 1178.77 176.485 1173.74 L182.638 1173.74 L182.638 1251.81 Z" fill="#000000" fill-rule="nonzero" fill-opacity="1" /><path clip-path="url(#clip310)" d="M212.447 1251.81 L212.447 1240.94 L223.321 1240.94 L223.321 1251.81 L212.447 1251.81 Z" fill="#000000" fill-rule="nonzero" fill-opacity="1" /><path clip-path="url(#clip310)" d="M237.271 1213.46 Q237.271 1199.67 240.082 1191.29 Q242.947 1182.86 248.516 1178.3 Q254.139 1173.74 262.625 1173.74 Q268.884 1173.74 273.605 1176.28 Q278.326 1178.77 281.402 1183.55 Q284.479 1188.27 286.229 1195.11 Q287.98 1201.9 287.98 1213.46 Q287.98 1227.15 285.168 1235.58 Q282.357 1243.96 276.735 1248.58 Q271.165 1253.14 262.625 1253.14 Q251.38 1253.14 244.962 1245.08 Q237.271 1235.37 237.271 1213.46 M247.084 1213.46 Q247.084 1232.61 251.54 1238.98 Q256.048 1245.29 262.625 1245.29 Q269.203 1245.29 273.658 1238.92 Q278.167 1232.56 278.167 1213.46 Q278.167 1194.26 273.658 1187.95 Q269.203 1181.64 262.519 1181.64 Q255.942 1181.64 252.017 1187.21 Q247.084 1194.32 247.084 1213.46 Z" fill="#000000" fill-rule="nonzero" fill-opacity="1" /><path clip-path="url(#clip310)" d="M297.686 1213.46 Q297.686 1199.67 300.498 1191.29 Q303.362 1182.86 308.931 1178.3 Q314.554 1173.74 323.041 1173.74 Q329.3 1173.74 334.02 1176.28 Q338.741 1178.77 341.817 1183.55 Q344.894 1188.27 346.644 1195.11 Q348.395 1201.9 348.395 1213.46 Q348.395 1227.15 345.583 1235.58 Q342.772 1243.96 337.15 1248.58 Q331.58 1253.14 323.041 1253.14 Q311.796 1253.14 305.377 1245.08 Q297.686 1235.37 297.686 1213.46 M307.499 1213.46 Q307.499 1232.61 311.955 1238.98 Q316.463 1245.29 323.041 1245.29 Q329.618 1245.29 334.073 1238.92 Q338.582 1232.56 338.582 1213.46 Q338.582 1194.26 334.073 1187.95 Q329.618 1181.64 322.934 1181.64 Q316.357 1181.64 312.432 1187.21 Q307.499 1194.32 307.499 1213.46 Z" fill="#000000" fill-rule="nonzero" fill-opacity="1" /><path clip-path="url(#clip310)" d="M181.789 1052.53 L172.241 1052.53 L172.241 991.691 Q168.794 994.98 163.171 998.269 Q157.602 1001.56 153.146 1003.2 L153.146 993.972 Q161.155 990.206 167.149 984.849 Q173.143 979.492 175.636 974.453 L181.789 974.453 L181.789 1052.53 Z" fill="#000000" fill-rule="nonzero" fill-opacity="1" /><path clip-path="url(#clip310)" d="M211.599 1052.53 L211.599 1041.66 L222.472 1041.66 L222.472 1052.53 L211.599 1052.53 Z" fill="#000000" fill-rule="nonzero" fill-opacity="1" /><path clip-path="url(#clip310)" d="M286.6 1043.35 L286.6 1052.53 L235.202 1052.53 Q235.096 1049.08 236.316 1045.9 Q238.279 1040.65 242.575 1035.56 Q246.925 1030.47 255.093 1023.78 Q267.77 1013.39 272.226 1007.34 Q276.682 1001.24 276.682 995.829 Q276.682 990.153 272.597 986.281 Q268.566 982.356 262.042 982.356 Q255.146 982.356 251.009 986.493 Q246.872 990.63 246.819 997.95 L237.006 996.943 Q238.014 985.963 244.591 980.234 Q251.168 974.453 262.254 974.453 Q273.446 974.453 279.97 980.659 Q286.494 986.864 286.494 996.041 Q286.494 1000.71 284.585 1005.22 Q282.675 1009.73 278.22 1014.71 Q273.817 1019.7 263.527 1028.4 Q254.934 1035.61 252.494 1038.21 Q250.054 1040.76 248.463 1043.35 L286.6 1043.35 Z" fill="#000000" fill-rule="nonzero" fill-opacity="1" /><path clip-path="url(#clip310)" d="M296.838 1032.16 L306.863 1031.31 Q307.977 1038.63 312.008 1042.35 Q316.092 1046.01 321.821 1046.01 Q328.716 1046.01 333.49 1040.81 Q338.264 1035.61 338.264 1027.02 Q338.264 1018.85 333.649 1014.13 Q329.087 1009.41 321.661 1009.41 Q317.047 1009.41 313.334 1011.53 Q309.621 1013.6 307.499 1016.94 L298.535 1015.77 L306.067 975.832 L344.735 975.832 L344.735 984.955 L313.705 984.955 L309.515 1005.85 Q316.516 1000.97 324.207 1000.97 Q334.392 1000.97 341.393 1008.03 Q348.395 1015.08 348.395 1026.17 Q348.395 1036.72 342.242 1044.42 Q334.763 1053.86 321.821 1053.86 Q311.212 1053.86 304.476 1047.92 Q297.792 1041.98 296.838 1032.16 Z" fill="#000000" fill-rule="nonzero" fill-opacity="1" /><path clip-path="url(#clip310)" d="M182.638 853.248 L173.09 853.248 L173.09 792.408 Q169.642 795.697 164.02 798.985 Q158.45 802.274 153.995 803.918 L153.995 794.689 Q162.004 790.923 167.998 785.566 Q173.992 780.208 176.485 775.169 L182.638 775.169 L182.638 853.248 Z" fill="#000000" fill-rule="nonzero" fill-opacity="1" /><path clip-path="url(#clip310)" d="M212.447 853.248 L212.447 842.374 L223.321 842.374 L223.321 853.248 L212.447 853.248 Z" fill="#000000" fill-rule="nonzero" fill-opacity="1" /><path clip-path="url(#clip310)" d="M237.271 832.879 L247.296 832.031 Q248.41 839.351 252.441 843.063 Q256.525 846.723 262.254 846.723 Q269.15 846.723 273.923 841.525 Q278.697 836.327 278.697 827.734 Q278.697 819.566 274.082 814.845 Q269.521 810.124 262.095 810.124 Q257.48 810.124 253.767 812.246 Q250.054 814.315 247.933 817.656 L238.968 816.489 L246.5 776.548 L285.168 776.548 L285.168 785.672 L254.139 785.672 L249.948 806.57 Q256.95 801.691 264.641 801.691 Q274.825 801.691 281.827 808.745 Q288.828 815.8 288.828 826.886 Q288.828 837.441 282.675 845.132 Q275.196 854.574 262.254 854.574 Q251.646 854.574 244.909 848.633 Q238.226 842.692 237.271 832.879 Z" fill="#000000" fill-rule="nonzero" fill-opacity="1" /><path clip-path="url(#clip310)" d="M297.686 814.898 Q297.686 801.107 300.498 792.726 Q303.362 784.293 308.931 779.731 Q314.554 775.169 323.041 775.169 Q329.3 775.169 334.02 777.715 Q338.741 780.208 341.817 784.982 Q344.894 789.703 346.644 796.545 Q348.395 803.335 348.395 814.898 Q348.395 828.583 345.583 837.017 Q342.772 845.397 337.15 850.012 Q331.58 854.574 323.041 854.574 Q311.796 854.574 305.377 846.511 Q297.686 836.805 297.686 814.898 M307.499 814.898 Q307.499 834.046 311.955 840.411 Q316.463 846.723 323.041 846.723 Q329.618 846.723 334.073 840.358 Q338.582 833.993 338.582 814.898 Q338.582 795.697 334.073 789.385 Q329.618 783.073 322.934 783.073 Q316.357 783.073 312.432 788.642 Q307.499 795.75 307.499 814.898 Z" fill="#000000" fill-rule="nonzero" fill-opacity="1" /><path clip-path="url(#clip310)" d="M181.789 653.964 L172.241 653.964 L172.241 593.125 Q168.794 596.414 163.171 599.702 Q157.602 602.991 153.146 604.635 L153.146 595.406 Q161.155 591.64 167.149 586.282 Q173.143 580.925 175.636 575.886 L181.789 575.886 L181.789 653.964 Z" fill="#000000" fill-rule="nonzero" fill-opacity="1" /><path clip-path="url(#clip310)" d="M211.599 653.964 L211.599 643.091 L222.472 643.091 L222.472 653.964 L211.599 653.964 Z" fill="#000000" fill-rule="nonzero" fill-opacity="1" /><path clip-path="url(#clip310)" d="M237.059 586.389 L237.059 577.212 L287.396 577.212 L287.396 584.638 Q279.97 592.541 272.65 605.643 Q265.384 618.744 261.405 632.588 Q258.541 642.348 257.745 653.964 L247.933 653.964 Q248.092 644.788 251.54 631.793 Q254.987 618.797 261.405 606.757 Q267.877 594.663 275.143 586.389 L237.059 586.389 Z" fill="#000000" fill-rule="nonzero" fill-opacity="1" /><path clip-path="url(#clip310)" d="M296.838 633.596 L306.863 632.747 Q307.977 640.067 312.008 643.78 Q316.092 647.44 321.821 647.44 Q328.716 647.44 333.49 642.242 Q338.264 637.044 338.264 628.451 Q338.264 620.283 333.649 615.562 Q329.087 610.841 321.661 610.841 Q317.047 610.841 313.334 612.963 Q309.621 615.031 307.499 618.373 L298.535 617.206 L306.067 577.265 L344.735 577.265 L344.735 586.389 L313.705 586.389 L309.515 607.287 Q316.516 602.407 324.207 602.407 Q334.392 602.407 341.393 609.462 Q348.395 616.517 348.395 627.602 Q348.395 638.158 342.242 645.849 Q334.763 655.29 321.821 655.29 Q311.212 655.29 304.476 649.35 Q297.792 643.409 296.838 633.596 Z" fill="#000000" fill-rule="nonzero" fill-opacity="1" /><path clip-path="url(#clip310)" d="M196.853 445.505 L196.853 454.681 L145.455 454.681 Q145.349 451.233 146.569 448.051 Q148.531 442.8 152.828 437.708 Q157.177 432.616 165.346 425.932 Q178.023 415.536 182.478 409.489 Q186.934 403.389 186.934 397.979 Q186.934 392.303 182.85 388.431 Q178.819 384.506 172.294 384.506 Q165.399 384.506 161.262 388.644 Q157.124 392.781 157.071 400.101 L147.258 399.093 Q148.266 388.113 154.843 382.385 Q161.421 376.603 172.506 376.603 Q183.698 376.603 190.223 382.809 Q196.747 389.015 196.747 398.191 Q196.747 402.859 194.837 407.367 Q192.928 411.876 188.472 416.862 Q184.07 421.848 173.78 430.547 Q165.187 437.761 162.747 440.36 Q160.307 442.906 158.715 445.505 L196.853 445.505 Z" fill="#000000" fill-rule="nonzero" fill-opacity="1" /><path clip-path="url(#clip310)" d="M212.447 454.681 L212.447 443.808 L223.321 443.808 L223.321 454.681 L212.447 454.681 Z" fill="#000000" fill-rule="nonzero" fill-opacity="1" /><path clip-path="url(#clip310)" d="M237.271 416.332 Q237.271 402.541 240.082 394.16 Q242.947 385.726 248.516 381.165 Q254.139 376.603 262.625 376.603 Q268.884 376.603 273.605 379.149 Q278.326 381.642 281.402 386.416 Q284.479 391.137 286.229 397.979 Q287.98 404.768 287.98 416.332 Q287.98 430.017 285.168 438.45 Q282.357 446.831 276.735 451.446 Q271.165 456.007 262.625 456.007 Q251.38 456.007 244.962 447.945 Q237.271 438.238 237.271 416.332 M247.084 416.332 Q247.084 435.48 251.54 441.845 Q256.048 448.157 262.625 448.157 Q269.203 448.157 273.658 441.792 Q278.167 435.427 278.167 416.332 Q278.167 397.13 273.658 390.818 Q269.203 384.506 262.519 384.506 Q255.942 384.506 252.017 390.076 Q247.084 397.183 247.084 416.332 Z" fill="#000000" fill-rule="nonzero" fill-opacity="1" /><path clip-path="url(#clip310)" d="M297.686 416.332 Q297.686 402.541 300.498 394.16 Q303.362 385.726 308.931 381.165 Q314.554 376.603 323.041 376.603 Q329.3 376.603 334.02 379.149 Q338.741 381.642 341.817 386.416 Q344.894 391.137 346.644 397.979 Q348.395 404.768 348.395 416.332 Q348.395 430.017 345.583 438.45 Q342.772 446.831 337.15 451.446 Q331.58 456.007 323.041 456.007 Q311.796 456.007 305.377 447.945 Q297.686 438.238 297.686 416.332 M307.499 416.332 Q307.499 435.48 311.955 441.845 Q316.463 448.157 323.041 448.157 Q329.618 448.157 334.073 441.792 Q338.582 435.427 338.582 416.332 Q338.582 397.13 334.073 390.818 Q329.618 384.506 322.934 384.506 Q316.357 384.506 312.432 390.076 Q307.499 397.183 307.499 416.332 Z" fill="#000000" fill-rule="nonzero" fill-opacity="1" /><path clip-path="url(#clip310)" d="M196.004 246.222 L196.004 255.398 L144.606 255.398 Q144.5 251.95 145.72 248.768 Q147.683 243.516 151.979 238.424 Q156.329 233.332 164.497 226.649 Q177.174 216.253 181.63 210.206 Q186.085 204.106 186.085 198.696 Q186.085 193.02 182.001 189.148 Q177.97 185.223 171.446 185.223 Q164.55 185.223 160.413 189.36 Q156.276 193.498 156.223 200.817 L146.41 199.81 Q147.417 188.83 153.995 183.101 Q160.572 177.32 171.658 177.32 Q182.85 177.32 189.374 183.526 Q195.898 189.732 195.898 198.908 Q195.898 203.576 193.989 208.084 Q192.079 212.593 187.624 217.579 Q183.221 222.565 172.931 231.264 Q164.338 238.477 161.898 241.077 Q159.458 243.623 157.867 246.222 L196.004 246.222 Z" fill="#000000" fill-rule="nonzero" fill-opacity="1" /><path clip-path="url(#clip310)" d="M211.599 255.398 L211.599 244.524 L222.472 244.524 L222.472 255.398 L211.599 255.398 Z" fill="#000000" fill-rule="nonzero" fill-opacity="1" /><path clip-path="url(#clip310)" d="M286.6 246.222 L286.6 255.398 L235.202 255.398 Q235.096 251.95 236.316 248.768 Q238.279 243.516 242.575 238.424 Q246.925 233.332 255.093 226.649 Q267.77 216.253 272.226 210.206 Q276.682 204.106 276.682 198.696 Q276.682 193.02 272.597 189.148 Q268.566 185.223 262.042 185.223 Q255.146 185.223 251.009 189.36 Q246.872 193.498 246.819 200.817 L237.006 199.81 Q238.014 188.83 244.591 183.101 Q251.168 177.32 262.254 177.32 Q273.446 177.32 279.97 183.526 Q286.494 189.732 286.494 198.908 Q286.494 203.576 284.585 208.084 Q282.675 212.593 278.22 217.579 Q273.817 222.565 263.527 231.264 Q254.934 238.477 252.494 241.077 Q250.054 243.623 248.463 246.222 L286.6 246.222 Z" fill="#000000" fill-rule="nonzero" fill-opacity="1" /><path clip-path="url(#clip310)" d="M296.838 235.03 L306.863 234.181 Q307.977 241.501 312.008 245.214 Q316.092 248.874 321.821 248.874 Q328.716 248.874 333.49 243.676 Q338.264 238.477 338.264 229.885 Q338.264 221.716 333.649 216.995 Q329.087 212.275 321.661 212.275 Q317.047 212.275 313.334 214.396 Q309.621 216.465 307.499 219.807 L298.535 218.64 L306.067 178.699 L344.735 178.699 L344.735 187.822 L313.705 187.822 L309.515 208.721 Q316.516 203.841 324.207 203.841 Q334.392 203.841 341.393 210.895 Q348.395 217.95 348.395 229.036 Q348.395 239.591 342.242 247.282 Q334.763 256.724 321.821 256.724 Q311.212 256.724 304.476 250.783 Q297.792 244.843 296.838 235.03 Z" fill="#000000" fill-rule="nonzero" fill-opacity="1" /><path clip-path="url(#clip310)" d="M85.1722 789.513 L7.41216 789.513 L7.41216 779.965 L85.1722 779.965 L85.1722 789.513 Z" fill="#000000" fill-rule="nonzero" fill-opacity="1" /><path clip-path="url(#clip310)" d="M57.0067 768.72 Q41.3592 768.72 33.8272 760.021 Q27.5682 752.754 27.5682 742.305 Q27.5682 730.689 35.2063 723.316 Q42.7914 715.943 56.2111 715.943 Q67.0847 715.943 73.3437 719.232 Q79.5497 722.467 82.9974 728.726 Q86.4452 734.932 86.4452 742.305 Q86.4452 754.133 78.8601 761.453 Q71.2751 768.72 57.0067 768.72 M57.0067 758.907 Q67.8273 758.907 73.2376 754.186 Q78.5949 749.466 78.5949 742.305 Q78.5949 735.197 73.1846 730.476 Q67.7743 725.756 56.6884 725.756 Q46.2391 725.756 40.8818 730.53 Q35.4715 735.25 35.4715 742.305 Q35.4715 749.466 40.8288 754.186 Q46.1861 758.907 57.0067 758.907 Z" fill="#000000" fill-rule="nonzero" fill-opacity="1" /><path clip-path="url(#clip310)" d="M68.3578 708.57 L66.8726 699.128 Q72.5481 698.333 75.5715 694.726 Q78.5949 691.066 78.5949 684.542 Q78.5949 677.965 75.9428 674.782 Q73.2376 671.6 69.6308 671.6 Q66.3952 671.6 64.5387 674.411 Q63.2657 676.373 61.3031 684.171 Q58.651 694.673 56.7415 698.757 Q54.7789 702.788 51.3842 704.91 Q47.9365 706.979 43.7992 706.979 Q40.0332 706.979 36.8506 705.281 Q33.615 703.531 31.4934 700.561 Q29.849 698.333 28.7352 694.514 Q27.5682 690.642 27.5682 686.239 Q27.5682 679.609 29.4778 674.623 Q31.3873 669.584 34.6759 667.197 Q37.9115 664.81 43.3748 663.908 L44.6478 673.244 Q40.2984 673.88 37.8584 676.957 Q35.4185 679.98 35.4185 685.55 Q35.4185 692.127 37.5932 694.938 Q39.768 697.749 42.6853 697.749 Q44.5418 697.749 46.0269 696.582 Q47.5652 695.416 48.573 692.923 Q49.1034 691.49 51.0129 684.489 Q53.7181 674.358 55.4685 670.38 Q57.1658 666.348 60.4544 664.068 Q63.7431 661.787 68.623 661.787 Q73.3968 661.787 77.6402 664.598 Q81.8305 667.356 84.1644 672.607 Q86.4452 677.859 86.4452 684.489 Q86.4452 695.469 81.8835 701.25 Q77.3219 706.979 68.3578 708.57 Z" fill="#000000" fill-rule="nonzero" fill-opacity="1" /><path clip-path="url(#clip310)" d="M68.3578 654.255 L66.8726 644.813 Q72.5481 644.018 75.5715 640.411 Q78.5949 636.751 78.5949 630.227 Q78.5949 623.649 75.9428 620.467 Q73.2376 617.284 69.6308 617.284 Q66.3952 617.284 64.5387 620.095 Q63.2657 622.058 61.3031 629.855 Q58.651 640.358 56.7415 644.442 Q54.7789 648.473 51.3842 650.595 Q47.9365 652.663 43.7992 652.663 Q40.0332 652.663 36.8506 650.966 Q33.615 649.216 31.4934 646.245 Q29.849 644.018 28.7352 640.198 Q27.5682 636.326 27.5682 631.924 Q27.5682 625.294 29.4778 620.308 Q31.3873 615.269 34.6759 612.882 Q37.9115 610.495 43.3748 609.593 L44.6478 618.929 Q40.2984 619.565 37.8584 622.641 Q35.4185 625.665 35.4185 631.234 Q35.4185 637.812 37.5932 640.623 Q39.768 643.434 42.6853 643.434 Q44.5418 643.434 46.0269 642.267 Q47.5652 641.1 48.573 638.607 Q49.1034 637.175 51.0129 630.173 Q53.7181 620.042 55.4685 616.064 Q57.1658 612.033 60.4544 609.752 Q63.7431 607.471 68.623 607.471 Q73.3968 607.471 77.6402 610.283 Q81.8305 613.041 84.1644 618.292 Q86.4452 623.543 86.4452 630.173 Q86.4452 641.153 81.8835 646.935 Q77.3219 652.663 68.3578 654.255 Z" fill="#000000" fill-rule="nonzero" fill-opacity="1" /><polyline clip-path="url(#clip312)" style="stroke:#009af9; stroke-linecap:round; stroke-linejoin:round; stroke-width:8; stroke-opacity:1; fill:none" points="440.103,101.042 487.717,252.134 535.331,384.119 582.945,499.433 630.559,600.2 678.173,688.275 725.787,765.275 773.401,832.611 821.015,891.513 868.629,943.056 916.243,988.175 963.857,1027.69 1011.47,1062.31 1059.08,1092.66 1106.7,1119.28 1154.31,1142.65 1201.93,1163.18 1249.54,1181.22 1297.15,1197.1 1344.77,1211.09 1392.38,1223.42 1440,1234.31 1487.61,1243.94 1535.22,1252.46 1582.84,1260.02 1630.45,1266.74 1678.07,1272.72 1725.68,1278.05 1773.29,1282.82 1820.91,1287.09 1868.52,1290.92 1916.14,1294.38 1963.75,1297.51 2011.36,1300.34 2058.98,1302.91 2106.59,1305.26 2154.21,1307.41 2201.82,1309.38 2249.43,1311.2 2297.05,1312.88 "/>
<circle clip-path="url(#clip312)" cx="440.103" cy="101.042" r="3.6" fill="#009af9" fill-rule="evenodd" fill-opacity="1" stroke="#000000" stroke-opacity="1" stroke-width="3.2"/>
<circle clip-path="url(#clip312)" cx="487.717" cy="252.134" r="3.6" fill="#009af9" fill-rule="evenodd" fill-opacity="1" stroke="#000000" stroke-opacity="1" stroke-width="3.2"/>
<circle clip-path="url(#clip312)" cx="535.331" cy="384.119" r="3.6" fill="#009af9" fill-rule="evenodd" fill-opacity="1" stroke="#000000" stroke-opacity="1" stroke-width="3.2"/>
<circle clip-path="url(#clip312)" cx="582.945" cy="499.433" r="3.6" fill="#009af9" fill-rule="evenodd" fill-opacity="1" stroke="#000000" stroke-opacity="1" stroke-width="3.2"/>
<circle clip-path="url(#clip312)" cx="630.559" cy="600.2" r="3.6" fill="#009af9" fill-rule="evenodd" fill-opacity="1" stroke="#000000" stroke-opacity="1" stroke-width="3.2"/>
<circle clip-path="url(#clip312)" cx="678.173" cy="688.275" r="3.6" fill="#009af9" fill-rule="evenodd" fill-opacity="1" stroke="#000000" stroke-opacity="1" stroke-width="3.2"/>
<circle clip-path="url(#clip312)" cx="725.787" cy="765.275" r="3.6" fill="#009af9" fill-rule="evenodd" fill-opacity="1" stroke="#000000" stroke-opacity="1" stroke-width="3.2"/>
<circle clip-path="url(#clip312)" cx="773.401" cy="832.611" r="3.6" fill="#009af9" fill-rule="evenodd" fill-opacity="1" stroke="#000000" stroke-opacity="1" stroke-width="3.2"/>
<circle clip-path="url(#clip312)" cx="821.015" cy="891.513" r="3.6" fill="#009af9" fill-rule="evenodd" fill-opacity="1" stroke="#000000" stroke-opacity="1" stroke-width="3.2"/>
<circle clip-path="url(#clip312)" cx="868.629" cy="943.056" r="3.6" fill="#009af9" fill-rule="evenodd" fill-opacity="1" stroke="#000000" stroke-opacity="1" stroke-width="3.2"/>
<circle clip-path="url(#clip312)" cx="916.243" cy="988.175" r="3.6" fill="#009af9" fill-rule="evenodd" fill-opacity="1" stroke="#000000" stroke-opacity="1" stroke-width="3.2"/>
<circle clip-path="url(#clip312)" cx="963.857" cy="1027.69" r="3.6" fill="#009af9" fill-rule="evenodd" fill-opacity="1" stroke="#000000" stroke-opacity="1" stroke-width="3.2"/>
<circle clip-path="url(#clip312)" cx="1011.47" cy="1062.31" r="3.6" fill="#009af9" fill-rule="evenodd" fill-opacity="1" stroke="#000000" stroke-opacity="1" stroke-width="3.2"/>
<circle clip-path="url(#clip312)" cx="1059.08" cy="1092.66" r="3.6" fill="#009af9" fill-rule="evenodd" fill-opacity="1" stroke="#000000" stroke-opacity="1" stroke-width="3.2"/>
<circle clip-path="url(#clip312)" cx="1106.7" cy="1119.28" r="3.6" fill="#009af9" fill-rule="evenodd" fill-opacity="1" stroke="#000000" stroke-opacity="1" stroke-width="3.2"/>
<circle clip-path="url(#clip312)" cx="1154.31" cy="1142.65" r="3.6" fill="#009af9" fill-rule="evenodd" fill-opacity="1" stroke="#000000" stroke-opacity="1" stroke-width="3.2"/>
<circle clip-path="url(#clip312)" cx="1201.93" cy="1163.18" r="3.6" fill="#009af9" fill-rule="evenodd" fill-opacity="1" stroke="#000000" stroke-opacity="1" stroke-width="3.2"/>
<circle clip-path="url(#clip312)" cx="1249.54" cy="1181.22" r="3.6" fill="#009af9" fill-rule="evenodd" fill-opacity="1" stroke="#000000" stroke-opacity="1" stroke-width="3.2"/>
<circle clip-path="url(#clip312)" cx="1297.15" cy="1197.1" r="3.6" fill="#009af9" fill-rule="evenodd" fill-opacity="1" stroke="#000000" stroke-opacity="1" stroke-width="3.2"/>
<circle clip-path="url(#clip312)" cx="1344.77" cy="1211.09" r="3.6" fill="#009af9" fill-rule="evenodd" fill-opacity="1" stroke="#000000" stroke-opacity="1" stroke-width="3.2"/>
<circle clip-path="url(#clip312)" cx="1392.38" cy="1223.42" r="3.6" fill="#009af9" fill-rule="evenodd" fill-opacity="1" stroke="#000000" stroke-opacity="1" stroke-width="3.2"/>
<circle clip-path="url(#clip312)" cx="1440" cy="1234.31" r="3.6" fill="#009af9" fill-rule="evenodd" fill-opacity="1" stroke="#000000" stroke-opacity="1" stroke-width="3.2"/>
<circle clip-path="url(#clip312)" cx="1487.61" cy="1243.94" r="3.6" fill="#009af9" fill-rule="evenodd" fill-opacity="1" stroke="#000000" stroke-opacity="1" stroke-width="3.2"/>
<circle clip-path="url(#clip312)" cx="1535.22" cy="1252.46" r="3.6" fill="#009af9" fill-rule="evenodd" fill-opacity="1" stroke="#000000" stroke-opacity="1" stroke-width="3.2"/>
<circle clip-path="url(#clip312)" cx="1582.84" cy="1260.02" r="3.6" fill="#009af9" fill-rule="evenodd" fill-opacity="1" stroke="#000000" stroke-opacity="1" stroke-width="3.2"/>
<circle clip-path="url(#clip312)" cx="1630.45" cy="1266.74" r="3.6" fill="#009af9" fill-rule="evenodd" fill-opacity="1" stroke="#000000" stroke-opacity="1" stroke-width="3.2"/>
<circle clip-path="url(#clip312)" cx="1678.07" cy="1272.72" r="3.6" fill="#009af9" fill-rule="evenodd" fill-opacity="1" stroke="#000000" stroke-opacity="1" stroke-width="3.2"/>
<circle clip-path="url(#clip312)" cx="1725.68" cy="1278.05" r="3.6" fill="#009af9" fill-rule="evenodd" fill-opacity="1" stroke="#000000" stroke-opacity="1" stroke-width="3.2"/>
<circle clip-path="url(#clip312)" cx="1773.29" cy="1282.82" r="3.6" fill="#009af9" fill-rule="evenodd" fill-opacity="1" stroke="#000000" stroke-opacity="1" stroke-width="3.2"/>
<circle clip-path="url(#clip312)" cx="1820.91" cy="1287.09" r="3.6" fill="#009af9" fill-rule="evenodd" fill-opacity="1" stroke="#000000" stroke-opacity="1" stroke-width="3.2"/>
<circle clip-path="url(#clip312)" cx="1868.52" cy="1290.92" r="3.6" fill="#009af9" fill-rule="evenodd" fill-opacity="1" stroke="#000000" stroke-opacity="1" stroke-width="3.2"/>
<circle clip-path="url(#clip312)" cx="1916.14" cy="1294.38" r="3.6" fill="#009af9" fill-rule="evenodd" fill-opacity="1" stroke="#000000" stroke-opacity="1" stroke-width="3.2"/>
<circle clip-path="url(#clip312)" cx="1963.75" cy="1297.51" r="3.6" fill="#009af9" fill-rule="evenodd" fill-opacity="1" stroke="#000000" stroke-opacity="1" stroke-width="3.2"/>
<circle clip-path="url(#clip312)" cx="2011.36" cy="1300.34" r="3.6" fill="#009af9" fill-rule="evenodd" fill-opacity="1" stroke="#000000" stroke-opacity="1" stroke-width="3.2"/>
<circle clip-path="url(#clip312)" cx="2058.98" cy="1302.91" r="3.6" fill="#009af9" fill-rule="evenodd" fill-opacity="1" stroke="#000000" stroke-opacity="1" stroke-width="3.2"/>
<circle clip-path="url(#clip312)" cx="2106.59" cy="1305.26" r="3.6" fill="#009af9" fill-rule="evenodd" fill-opacity="1" stroke="#000000" stroke-opacity="1" stroke-width="3.2"/>
<circle clip-path="url(#clip312)" cx="2154.21" cy="1307.41" r="3.6" fill="#009af9" fill-rule="evenodd" fill-opacity="1" stroke="#000000" stroke-opacity="1" stroke-width="3.2"/>
<circle clip-path="url(#clip312)" cx="2201.82" cy="1309.38" r="3.6" fill="#009af9" fill-rule="evenodd" fill-opacity="1" stroke="#000000" stroke-opacity="1" stroke-width="3.2"/>
<circle clip-path="url(#clip312)" cx="2249.43" cy="1311.2" r="3.6" fill="#009af9" fill-rule="evenodd" fill-opacity="1" stroke="#000000" stroke-opacity="1" stroke-width="3.2"/>
<circle clip-path="url(#clip312)" cx="2297.05" cy="1312.88" r="3.6" fill="#009af9" fill-rule="evenodd" fill-opacity="1" stroke="#000000" stroke-opacity="1" stroke-width="3.2"/>
<polyline clip-path="url(#clip312)" style="stroke:#e26f46; stroke-linecap:round; stroke-linejoin:round; stroke-width:8; stroke-opacity:1; fill:none" points="440.103,84.1072 487.717,215.981 535.331,331.918 582.945,433.904 630.559,523.671 678.173,602.733 725.787,672.416 773.401,733.877 821.015,788.128 868.629,836.055 916.243,878.432 963.857,915.937 1011.47,949.162 1059.08,978.627 1106.7,1004.79 1154.31,1028.04 1201.93,1048.73 1249.54,1067.16 1297.15,1083.61 1344.77,1098.31 1392.38,1111.46 1440,1123.24 1487.61,1133.82 1535.22,1143.33 1582.84,1151.89 1630.45,1159.61 1678.07,1166.59 1725.68,1172.9 1773.29,1178.63 1820.91,1183.84 1868.52,1188.57 1916.14,1192.89 1963.75,1196.84 2011.36,1200.45 2058.98,1203.76 2106.59,1206.81 2154.21,1209.61 2201.82,1212.2 2249.43,1214.59 2297.05,1216.8 "/>
<circle clip-path="url(#clip312)" cx="440.103" cy="84.1072" r="3.6" fill="#e26f46" fill-rule="evenodd" fill-opacity="1" stroke="#000000" stroke-opacity="1" stroke-width="3.2"/>
<circle clip-path="url(#clip312)" cx="487.717" cy="215.981" r="3.6" fill="#e26f46" fill-rule="evenodd" fill-opacity="1" stroke="#000000" stroke-opacity="1" stroke-width="3.2"/>
<circle clip-path="url(#clip312)" cx="535.331" cy="331.918" r="3.6" fill="#e26f46" fill-rule="evenodd" fill-opacity="1" stroke="#000000" stroke-opacity="1" stroke-width="3.2"/>
<circle clip-path="url(#clip312)" cx="582.945" cy="433.904" r="3.6" fill="#e26f46" fill-rule="evenodd" fill-opacity="1" stroke="#000000" stroke-opacity="1" stroke-width="3.2"/>
<circle clip-path="url(#clip312)" cx="630.559" cy="523.671" r="3.6" fill="#e26f46" fill-rule="evenodd" fill-opacity="1" stroke="#000000" stroke-opacity="1" stroke-width="3.2"/>
<circle clip-path="url(#clip312)" cx="678.173" cy="602.733" r="3.6" fill="#e26f46" fill-rule="evenodd" fill-opacity="1" stroke="#000000" stroke-opacity="1" stroke-width="3.2"/>
<circle clip-path="url(#clip312)" cx="725.787" cy="672.416" r="3.6" fill="#e26f46" fill-rule="evenodd" fill-opacity="1" stroke="#000000" stroke-opacity="1" stroke-width="3.2"/>
<circle clip-path="url(#clip312)" cx="773.401" cy="733.877" r="3.6" fill="#e26f46" fill-rule="evenodd" fill-opacity="1" stroke="#000000" stroke-opacity="1" stroke-width="3.2"/>
<circle clip-path="url(#clip312)" cx="821.015" cy="788.128" r="3.6" fill="#e26f46" fill-rule="evenodd" fill-opacity="1" stroke="#000000" stroke-opacity="1" stroke-width="3.2"/>
<circle clip-path="url(#clip312)" cx="868.629" cy="836.055" r="3.6" fill="#e26f46" fill-rule="evenodd" fill-opacity="1" stroke="#000000" stroke-opacity="1" stroke-width="3.2"/>
<circle clip-path="url(#clip312)" cx="916.243" cy="878.432" r="3.6" fill="#e26f46" fill-rule="evenodd" fill-opacity="1" stroke="#000000" stroke-opacity="1" stroke-width="3.2"/>
<circle clip-path="url(#clip312)" cx="963.857" cy="915.937" r="3.6" fill="#e26f46" fill-rule="evenodd" fill-opacity="1" stroke="#000000" stroke-opacity="1" stroke-width="3.2"/>
<circle clip-path="url(#clip312)" cx="1011.47" cy="949.162" r="3.6" fill="#e26f46" fill-rule="evenodd" fill-opacity="1" stroke="#000000" stroke-opacity="1" stroke-width="3.2"/>
<circle clip-path="url(#clip312)" cx="1059.08" cy="978.627" r="3.6" fill="#e26f46" fill-rule="evenodd" fill-opacity="1" stroke="#000000" stroke-opacity="1" stroke-width="3.2"/>
<circle clip-path="url(#clip312)" cx="1106.7" cy="1004.79" r="3.6" fill="#e26f46" fill-rule="evenodd" fill-opacity="1" stroke="#000000" stroke-opacity="1" stroke-width="3.2"/>
<circle clip-path="url(#clip312)" cx="1154.31" cy="1028.04" r="3.6" fill="#e26f46" fill-rule="evenodd" fill-opacity="1" stroke="#000000" stroke-opacity="1" stroke-width="3.2"/>
<circle clip-path="url(#clip312)" cx="1201.93" cy="1048.73" r="3.6" fill="#e26f46" fill-rule="evenodd" fill-opacity="1" stroke="#000000" stroke-opacity="1" stroke-width="3.2"/>
<circle clip-path="url(#clip312)" cx="1249.54" cy="1067.16" r="3.6" fill="#e26f46" fill-rule="evenodd" fill-opacity="1" stroke="#000000" stroke-opacity="1" stroke-width="3.2"/>
<circle clip-path="url(#clip312)" cx="1297.15" cy="1083.61" r="3.6" fill="#e26f46" fill-rule="evenodd" fill-opacity="1" stroke="#000000" stroke-opacity="1" stroke-width="3.2"/>
<circle clip-path="url(#clip312)" cx="1344.77" cy="1098.31" r="3.6" fill="#e26f46" fill-rule="evenodd" fill-opacity="1" stroke="#000000" stroke-opacity="1" stroke-width="3.2"/>
<circle clip-path="url(#clip312)" cx="1392.38" cy="1111.46" r="3.6" fill="#e26f46" fill-rule="evenodd" fill-opacity="1" stroke="#000000" stroke-opacity="1" stroke-width="3.2"/>
<circle clip-path="url(#clip312)" cx="1440" cy="1123.24" r="3.6" fill="#e26f46" fill-rule="evenodd" fill-opacity="1" stroke="#000000" stroke-opacity="1" stroke-width="3.2"/>
<circle clip-path="url(#clip312)" cx="1487.61" cy="1133.82" r="3.6" fill="#e26f46" fill-rule="evenodd" fill-opacity="1" stroke="#000000" stroke-opacity="1" stroke-width="3.2"/>
<circle clip-path="url(#clip312)" cx="1535.22" cy="1143.33" r="3.6" fill="#e26f46" fill-rule="evenodd" fill-opacity="1" stroke="#000000" stroke-opacity="1" stroke-width="3.2"/>
<circle clip-path="url(#clip312)" cx="1582.84" cy="1151.89" r="3.6" fill="#e26f46" fill-rule="evenodd" fill-opacity="1" stroke="#000000" stroke-opacity="1" stroke-width="3.2"/>
<circle clip-path="url(#clip312)" cx="1630.45" cy="1159.61" r="3.6" fill="#e26f46" fill-rule="evenodd" fill-opacity="1" stroke="#000000" stroke-opacity="1" stroke-width="3.2"/>
<circle clip-path="url(#clip312)" cx="1678.07" cy="1166.59" r="3.6" fill="#e26f46" fill-rule="evenodd" fill-opacity="1" stroke="#000000" stroke-opacity="1" stroke-width="3.2"/>
<circle clip-path="url(#clip312)" cx="1725.68" cy="1172.9" r="3.6" fill="#e26f46" fill-rule="evenodd" fill-opacity="1" stroke="#000000" stroke-opacity="1" stroke-width="3.2"/>
<circle clip-path="url(#clip312)" cx="1773.29" cy="1178.63" r="3.6" fill="#e26f46" fill-rule="evenodd" fill-opacity="1" stroke="#000000" stroke-opacity="1" stroke-width="3.2"/>
<circle clip-path="url(#clip312)" cx="1820.91" cy="1183.84" r="3.6" fill="#e26f46" fill-rule="evenodd" fill-opacity="1" stroke="#000000" stroke-opacity="1" stroke-width="3.2"/>
<circle clip-path="url(#clip312)" cx="1868.52" cy="1188.57" r="3.6" fill="#e26f46" fill-rule="evenodd" fill-opacity="1" stroke="#000000" stroke-opacity="1" stroke-width="3.2"/>
<circle clip-path="url(#clip312)" cx="1916.14" cy="1192.89" r="3.6" fill="#e26f46" fill-rule="evenodd" fill-opacity="1" stroke="#000000" stroke-opacity="1" stroke-width="3.2"/>
<circle clip-path="url(#clip312)" cx="1963.75" cy="1196.84" r="3.6" fill="#e26f46" fill-rule="evenodd" fill-opacity="1" stroke="#000000" stroke-opacity="1" stroke-width="3.2"/>
<circle clip-path="url(#clip312)" cx="2011.36" cy="1200.45" r="3.6" fill="#e26f46" fill-rule="evenodd" fill-opacity="1" stroke="#000000" stroke-opacity="1" stroke-width="3.2"/>
<circle clip-path="url(#clip312)" cx="2058.98" cy="1203.76" r="3.6" fill="#e26f46" fill-rule="evenodd" fill-opacity="1" stroke="#000000" stroke-opacity="1" stroke-width="3.2"/>
<circle clip-path="url(#clip312)" cx="2106.59" cy="1206.81" r="3.6" fill="#e26f46" fill-rule="evenodd" fill-opacity="1" stroke="#000000" stroke-opacity="1" stroke-width="3.2"/>
<circle clip-path="url(#clip312)" cx="2154.21" cy="1209.61" r="3.6" fill="#e26f46" fill-rule="evenodd" fill-opacity="1" stroke="#000000" stroke-opacity="1" stroke-width="3.2"/>
<circle clip-path="url(#clip312)" cx="2201.82" cy="1212.2" r="3.6" fill="#e26f46" fill-rule="evenodd" fill-opacity="1" stroke="#000000" stroke-opacity="1" stroke-width="3.2"/>
<circle clip-path="url(#clip312)" cx="2249.43" cy="1214.59" r="3.6" fill="#e26f46" fill-rule="evenodd" fill-opacity="1" stroke="#000000" stroke-opacity="1" stroke-width="3.2"/>
<circle clip-path="url(#clip312)" cx="2297.05" cy="1216.8" r="3.6" fill="#e26f46" fill-rule="evenodd" fill-opacity="1" stroke="#000000" stroke-opacity="1" stroke-width="3.2"/>
<path clip-path="url(#clip310)" d="M1631.49 440.581 L2287.14 440.581 L2287.14 90.6606 L1631.49 90.6606  Z" fill="#ffffff" fill-rule="evenodd" fill-opacity="1"/>
<polyline clip-path="url(#clip310)" style="stroke:#000000; stroke-linecap:round; stroke-linejoin:round; stroke-width:4; stroke-opacity:1; fill:none" points="1631.49,440.581 2287.14,440.581 2287.14,90.6606 1631.49,90.6606 1631.49,440.581 "/>
<polyline clip-path="url(#clip310)" style="stroke:#009af9; stroke-linecap:round; stroke-linejoin:round; stroke-width:18; stroke-opacity:1; fill:none" points="1653.36,207.301 1784.59,207.301 "/>
<circle clip-path="url(#clip310)" cx="1718.97" cy="207.301" r="8.10025" fill="#009af9" fill-rule="evenodd" fill-opacity="1" stroke="#000000" stroke-opacity="1" stroke-width="7.20022"/>
<path clip-path="url(#clip310)" d="M1832.55 237.641 L1833.93 246.075 Q1829.9 246.923 1826.72 246.923 Q1821.52 246.923 1818.66 245.279 Q1815.79 243.635 1814.63 240.982 Q1813.46 238.277 1813.46 229.684 L1813.46 197.276 L1806.46 197.276 L1806.46 189.85 L1813.46 189.85 L1813.46 175.9 L1822.95 170.171 L1822.95 189.85 L1832.55 189.85 L1832.55 197.276 L1822.95 197.276 L1822.95 230.215 Q1822.95 234.299 1823.43 235.466 Q1823.96 236.633 1825.08 237.323 Q1826.24 238.012 1828.36 238.012 Q1829.96 238.012 1832.55 237.641 Z" fill="#000000" fill-rule="nonzero" fill-opacity="1" /><path clip-path="url(#clip310)" d="M1841.78 246.181 L1841.78 189.85 L1850.38 189.85 L1850.38 198.39 Q1853.67 192.396 1856.42 190.486 Q1859.23 188.577 1862.58 188.577 Q1867.4 188.577 1872.39 191.653 L1869.1 200.511 Q1865.6 198.443 1862.1 198.443 Q1858.97 198.443 1856.48 200.352 Q1853.98 202.209 1852.92 205.55 Q1851.33 210.642 1851.33 216.689 L1851.33 246.181 L1841.78 246.181 Z" fill="#000000" fill-rule="nonzero" fill-opacity="1" /><path clip-path="url(#clip310)" d="M1914.82 239.232 Q1909.52 243.741 1904.59 245.597 Q1899.71 247.454 1894.08 247.454 Q1884.8 247.454 1879.81 242.945 Q1874.83 238.383 1874.83 231.329 Q1874.83 227.191 1876.69 223.797 Q1878.59 220.349 1881.62 218.28 Q1884.69 216.212 1888.51 215.151 Q1891.33 214.408 1897 213.719 Q1908.56 212.34 1914.03 210.43 Q1914.08 208.468 1914.08 207.937 Q1914.08 202.102 1911.38 199.716 Q1907.72 196.48 1900.5 196.48 Q1893.76 196.48 1890.53 198.867 Q1887.35 201.201 1885.81 207.195 L1876.47 205.922 Q1877.75 199.928 1880.66 196.268 Q1883.58 192.555 1889.1 190.592 Q1894.61 188.577 1901.88 188.577 Q1909.09 188.577 1913.6 190.274 Q1918.11 191.971 1920.23 194.57 Q1922.35 197.116 1923.2 201.042 Q1923.68 203.482 1923.68 209.847 L1923.68 222.577 Q1923.68 235.89 1924.26 239.444 Q1924.9 242.945 1926.7 246.181 L1916.73 246.181 Q1915.25 243.21 1914.82 239.232 M1914.03 217.909 Q1908.83 220.031 1898.43 221.516 Q1892.55 222.365 1890.11 223.425 Q1887.67 224.486 1886.34 226.555 Q1885.01 228.571 1885.01 231.064 Q1885.01 234.883 1887.88 237.429 Q1890.79 239.975 1896.36 239.975 Q1901.88 239.975 1906.18 237.588 Q1910.47 235.148 1912.49 230.957 Q1914.03 227.722 1914.03 221.41 L1914.03 217.909 Z" fill="#000000" fill-rule="nonzero" fill-opacity="1" /><path clip-path="url(#clip310)" d="M1938.53 179.4 L1938.53 168.421 L1948.08 168.421 L1948.08 179.4 L1938.53 179.4 M1938.53 246.181 L1938.53 189.85 L1948.08 189.85 L1948.08 246.181 L1938.53 246.181 Z" fill="#000000" fill-rule="nonzero" fill-opacity="1" /><path clip-path="url(#clip310)" d="M1962.61 246.181 L1962.61 189.85 L1971.21 189.85 L1971.21 197.859 Q1977.41 188.577 1989.14 188.577 Q1994.23 188.577 1998.47 190.433 Q2002.77 192.237 2004.89 195.207 Q2007.01 198.177 2007.86 202.262 Q2008.39 204.914 2008.39 211.544 L2008.39 246.181 L1998.84 246.181 L1998.84 211.915 Q1998.84 206.081 1997.73 203.216 Q1996.61 200.299 1993.75 198.602 Q1990.94 196.851 1987.12 196.851 Q1981.02 196.851 1976.56 200.723 Q1972.16 204.595 1972.16 215.416 L1972.16 246.181 L1962.61 246.181 Z" fill="#000000" fill-rule="nonzero" fill-opacity="1" /><path clip-path="url(#clip310)" d="M2014.22 267.769 L2014.22 260.873 L2077.5 260.873 L2077.5 267.769 L2014.22 267.769 Z" fill="#000000" fill-rule="nonzero" fill-opacity="1" /><path clip-path="url(#clip310)" d="M2083.23 246.181 L2083.23 168.421 L2092.78 168.421 L2092.78 246.181 L2083.23 246.181 Z" fill="#000000" fill-rule="nonzero" fill-opacity="1" /><path clip-path="url(#clip310)" d="M2104.02 218.015 Q2104.02 202.368 2112.72 194.836 Q2119.99 188.577 2130.44 188.577 Q2142.06 188.577 2149.43 196.215 Q2156.8 203.8 2156.8 217.22 Q2156.8 228.093 2153.51 234.352 Q2150.28 240.558 2144.02 244.006 Q2137.81 247.454 2130.44 247.454 Q2118.61 247.454 2111.29 239.869 Q2104.02 232.284 2104.02 218.015 M2113.84 218.015 Q2113.84 228.836 2118.56 234.246 Q2123.28 239.603 2130.44 239.603 Q2137.55 239.603 2142.27 234.193 Q2146.99 228.783 2146.99 217.697 Q2146.99 207.248 2142.22 201.89 Q2137.49 196.48 2130.44 196.48 Q2123.28 196.48 2118.56 201.837 Q2113.84 207.195 2113.84 218.015 Z" fill="#000000" fill-rule="nonzero" fill-opacity="1" /><path clip-path="url(#clip310)" d="M2164.17 229.366 L2173.62 227.881 Q2174.41 233.557 2178.02 236.58 Q2181.68 239.603 2188.2 239.603 Q2194.78 239.603 2197.96 236.951 Q2201.15 234.246 2201.15 230.639 Q2201.15 227.404 2198.33 225.547 Q2196.37 224.274 2188.57 222.312 Q2178.07 219.659 2173.99 217.75 Q2169.96 215.787 2167.83 212.393 Q2165.77 208.945 2165.77 204.808 Q2165.77 201.042 2167.46 197.859 Q2169.21 194.624 2172.18 192.502 Q2174.41 190.858 2178.23 189.744 Q2182.1 188.577 2186.51 188.577 Q2193.14 188.577 2198.12 190.486 Q2203.16 192.396 2205.55 195.684 Q2207.93 198.92 2208.84 204.383 L2199.5 205.656 Q2198.86 201.307 2195.79 198.867 Q2192.76 196.427 2187.19 196.427 Q2180.62 196.427 2177.81 198.602 Q2175 200.776 2175 203.694 Q2175 205.55 2176.16 207.035 Q2177.33 208.574 2179.82 209.581 Q2181.25 210.112 2188.26 212.021 Q2198.39 214.727 2202.37 216.477 Q2206.4 218.174 2208.68 221.463 Q2210.96 224.752 2210.96 229.631 Q2210.96 234.405 2208.15 238.649 Q2205.39 242.839 2200.14 245.173 Q2194.89 247.454 2188.26 247.454 Q2177.28 247.454 2171.49 242.892 Q2165.77 238.33 2164.17 229.366 Z" fill="#000000" fill-rule="nonzero" fill-opacity="1" /><path clip-path="url(#clip310)" d="M2218.49 229.366 L2227.93 227.881 Q2228.73 233.557 2232.33 236.58 Q2235.99 239.603 2242.52 239.603 Q2249.1 239.603 2252.28 236.951 Q2255.46 234.246 2255.46 230.639 Q2255.46 227.404 2252.65 225.547 Q2250.69 224.274 2242.89 222.312 Q2232.39 219.659 2228.3 217.75 Q2224.27 215.787 2222.15 212.393 Q2220.08 208.945 2220.08 204.808 Q2220.08 201.042 2221.78 197.859 Q2223.53 194.624 2226.5 192.502 Q2228.73 190.858 2232.55 189.744 Q2236.42 188.577 2240.82 188.577 Q2247.45 188.577 2252.44 190.486 Q2257.48 192.396 2259.86 195.684 Q2262.25 198.92 2263.15 204.383 L2253.82 205.656 Q2253.18 201.307 2250.1 198.867 Q2247.08 196.427 2241.51 196.427 Q2234.93 196.427 2232.12 198.602 Q2229.31 200.776 2229.31 203.694 Q2229.31 205.55 2230.48 207.035 Q2231.64 208.574 2234.14 209.581 Q2235.57 210.112 2242.57 212.021 Q2252.7 214.727 2256.68 216.477 Q2260.71 218.174 2262.99 221.463 Q2265.27 224.752 2265.27 229.631 Q2265.27 234.405 2262.46 238.649 Q2259.7 242.839 2254.45 245.173 Q2249.2 247.454 2242.57 247.454 Q2231.59 247.454 2225.81 242.892 Q2220.08 238.33 2218.49 229.366 Z" fill="#000000" fill-rule="nonzero" fill-opacity="1" /><polyline clip-path="url(#clip310)" style="stroke:#e26f46; stroke-linecap:round; stroke-linejoin:round; stroke-width:18; stroke-opacity:1; fill:none" points="1653.36,323.941 1784.59,323.941 "/>
<circle clip-path="url(#clip310)" cx="1718.97" cy="323.941" r="8.10025" fill="#e26f46" fill-rule="evenodd" fill-opacity="1" stroke="#000000" stroke-opacity="1" stroke-width="7.20022"/>
<path clip-path="url(#clip310)" d="M1827.89 362.821 L1806.46 306.49 L1816.54 306.49 L1828.63 340.225 Q1830.59 345.688 1832.24 351.576 Q1833.51 347.12 1835.79 340.861 L1848.31 306.49 L1858.12 306.49 L1836.8 362.821 L1827.89 362.821 Z" fill="#000000" fill-rule="nonzero" fill-opacity="1" /><path clip-path="url(#clip310)" d="M1903.31 355.872 Q1898.01 360.381 1893.08 362.237 Q1888.2 364.094 1882.57 364.094 Q1873.29 364.094 1868.3 359.585 Q1863.32 355.023 1863.32 347.969 Q1863.32 343.831 1865.18 340.437 Q1867.08 336.989 1870.11 334.92 Q1873.18 332.852 1877 331.791 Q1879.81 331.048 1885.49 330.359 Q1897.05 328.98 1902.52 327.07 Q1902.57 325.108 1902.57 324.577 Q1902.57 318.742 1899.86 316.356 Q1896.2 313.12 1888.99 313.12 Q1882.25 313.12 1879.02 315.507 Q1875.84 317.841 1874.3 323.835 L1864.96 322.562 Q1866.24 316.568 1869.15 312.908 Q1872.07 309.195 1877.59 307.232 Q1883.1 305.217 1890.37 305.217 Q1897.58 305.217 1902.09 306.914 Q1906.6 308.611 1908.72 311.21 Q1910.84 313.756 1911.69 317.682 Q1912.17 320.122 1912.17 326.487 L1912.17 339.217 Q1912.17 352.53 1912.75 356.084 Q1913.39 359.585 1915.19 362.821 L1905.22 362.821 Q1903.74 359.85 1903.31 355.872 M1902.52 334.549 Q1897.32 336.671 1886.92 338.156 Q1881.03 339.005 1878.59 340.065 Q1876.15 341.126 1874.83 343.195 Q1873.5 345.211 1873.5 347.704 Q1873.5 351.523 1876.37 354.069 Q1879.28 356.615 1884.85 356.615 Q1890.37 356.615 1894.67 354.228 Q1898.96 351.788 1900.98 347.597 Q1902.52 344.362 1902.52 338.05 L1902.52 334.549 Z" fill="#000000" fill-rule="nonzero" fill-opacity="1" /><path clip-path="url(#clip310)" d="M1926.76 362.821 L1926.76 285.061 L1936.3 285.061 L1936.3 362.821 L1926.76 362.821 Z" fill="#000000" fill-rule="nonzero" fill-opacity="1" /><path clip-path="url(#clip310)" d="M1942.3 384.409 L1942.3 377.513 L2005.58 377.513 L2005.58 384.409 L1942.3 384.409 Z" fill="#000000" fill-rule="nonzero" fill-opacity="1" /><path clip-path="url(#clip310)" d="M2011.31 362.821 L2011.31 285.061 L2020.85 285.061 L2020.85 362.821 L2011.31 362.821 Z" fill="#000000" fill-rule="nonzero" fill-opacity="1" /><path clip-path="url(#clip310)" d="M2032.1 334.655 Q2032.1 319.008 2040.8 311.476 Q2048.07 305.217 2058.51 305.217 Q2070.13 305.217 2077.5 312.855 Q2084.88 320.44 2084.88 333.86 Q2084.88 344.733 2081.59 350.992 Q2078.35 357.198 2072.09 360.646 Q2065.89 364.094 2058.51 364.094 Q2046.69 364.094 2039.37 356.509 Q2032.1 348.924 2032.1 334.655 M2041.91 334.655 Q2041.91 345.476 2046.63 350.886 Q2051.35 356.243 2058.51 356.243 Q2065.62 356.243 2070.34 350.833 Q2075.06 345.423 2075.06 334.337 Q2075.06 323.888 2070.29 318.53 Q2065.57 313.12 2058.51 313.12 Q2051.35 313.12 2046.63 318.477 Q2041.91 323.835 2041.91 334.655 Z" fill="#000000" fill-rule="nonzero" fill-opacity="1" /><path clip-path="url(#clip310)" d="M2092.25 346.006 L2101.69 344.521 Q2102.49 350.197 2106.09 353.22 Q2109.75 356.243 2116.28 356.243 Q2122.85 356.243 2126.04 353.591 Q2129.22 350.886 2129.22 347.279 Q2129.22 344.044 2126.41 342.187 Q2124.45 340.914 2116.65 338.952 Q2106.15 336.299 2102.06 334.39 Q2098.03 332.427 2095.91 329.033 Q2093.84 325.585 2093.84 321.448 Q2093.84 317.682 2095.54 314.499 Q2097.29 311.264 2100.26 309.142 Q2102.49 307.498 2106.31 306.384 Q2110.18 305.217 2114.58 305.217 Q2121.21 305.217 2126.2 307.126 Q2131.24 309.036 2133.62 312.324 Q2136.01 315.56 2136.91 321.023 L2127.58 322.296 Q2126.94 317.947 2123.86 315.507 Q2120.84 313.067 2115.27 313.067 Q2108.69 313.067 2105.88 315.242 Q2103.07 317.416 2103.07 320.334 Q2103.07 322.19 2104.24 323.675 Q2105.4 325.214 2107.9 326.221 Q2109.33 326.752 2116.33 328.661 Q2126.46 331.367 2130.44 333.117 Q2134.47 334.814 2136.75 338.103 Q2139.03 341.392 2139.03 346.271 Q2139.03 351.045 2136.22 355.289 Q2133.46 359.479 2128.21 361.813 Q2122.96 364.094 2116.33 364.094 Q2105.35 364.094 2099.57 359.532 Q2093.84 354.97 2092.25 346.006 Z" fill="#000000" fill-rule="nonzero" fill-opacity="1" /><path clip-path="url(#clip310)" d="M2146.56 346.006 L2156.01 344.521 Q2156.8 350.197 2160.41 353.22 Q2164.07 356.243 2170.59 356.243 Q2177.17 356.243 2180.35 353.591 Q2183.54 350.886 2183.54 347.279 Q2183.54 344.044 2180.72 342.187 Q2178.76 340.914 2170.96 338.952 Q2160.46 336.299 2156.38 334.39 Q2152.35 332.427 2150.22 329.033 Q2148.16 325.585 2148.16 321.448 Q2148.16 317.682 2149.85 314.499 Q2151.6 311.264 2154.57 309.142 Q2156.8 307.498 2160.62 306.384 Q2164.49 305.217 2168.9 305.217 Q2175.53 305.217 2180.51 307.126 Q2185.55 309.036 2187.94 312.324 Q2190.32 315.56 2191.23 321.023 L2181.89 322.296 Q2181.25 317.947 2178.18 315.507 Q2175.15 313.067 2169.58 313.067 Q2163.01 313.067 2160.2 315.242 Q2157.39 317.416 2157.39 320.334 Q2157.39 322.19 2158.55 323.675 Q2159.72 325.214 2162.21 326.221 Q2163.64 326.752 2170.65 328.661 Q2180.78 331.367 2184.75 333.117 Q2188.79 334.814 2191.07 338.103 Q2193.35 341.392 2193.35 346.271 Q2193.35 351.045 2190.54 355.289 Q2187.78 359.479 2182.53 361.813 Q2177.28 364.094 2170.65 364.094 Q2159.67 364.094 2153.88 359.532 Q2148.16 354.97 2146.56 346.006 Z" fill="#000000" fill-rule="nonzero" fill-opacity="1" /></svg>
