<?xml version="1.0" encoding="utf-8"?>
<svg xmlns="http://www.w3.org/2000/svg" xmlns:xlink="http://www.w3.org/1999/xlink" width="600" height="400" viewBox="0 0 2400 1600">
<defs>
  <clipPath id="clip860">
    <rect x="0" y="0" width="2400" height="1600"/>
  </clipPath>
</defs>
<path clip-path="url(#clip860)" d="M0 1600 L2400 1600 L2400 8.88178e-14 L0 8.88178e-14  Z" fill="#ffffff" fill-rule="evenodd" fill-opacity="1"/>
<defs>
  <clipPath id="clip861">
    <rect x="480" y="0" width="1681" height="1600"/>
  </clipPath>
</defs>
<path clip-path="url(#clip860)" d="M323.98 1349.74 L2352.76 1349.74 L2352.76 47.2441 L323.98 47.2441  Z" fill="#ffffff" fill-rule="evenodd" fill-opacity="1"/>
<defs>
  <clipPath id="clip862">
    <rect x="323" y="47" width="2030" height="1303"/>
  </clipPath>
</defs>
<polyline clip-path="url(#clip860)" style="stroke:#000000; stroke-linecap:round; stroke-linejoin:round; stroke-width:4; stroke-opacity:1; fill:none" points="323.98,1349.74 2352.76,1349.74 "/>
<polyline clip-path="url(#clip860)" style="stroke:#000000; stroke-linecap:round; stroke-linejoin:round; stroke-width:2; stroke-opacity:0.5; fill:none" points="323.98,47.2441 2352.76,47.2441 "/>
<polyline clip-path="url(#clip860)" style="stroke:#000000; stroke-linecap:round; stroke-linejoin:round; stroke-width:4; stroke-opacity:1; fill:none" points="332.322,1349.74 332.322,1330.84 "/>
<polyline clip-path="url(#clip860)" style="stroke:#000000; stroke-linecap:round; stroke-linejoin:round; stroke-width:4; stroke-opacity:1; fill:none" points="823.076,1349.74 823.076,1330.84 "/>
<polyline clip-path="url(#clip860)" style="stroke:#000000; stroke-linecap:round; stroke-linejoin:round; stroke-width:4; stroke-opacity:1; fill:none" points="1313.83,1349.74 1313.83,1330.84 "/>
<polyline clip-path="url(#clip860)" style="stroke:#000000; stroke-linecap:round; stroke-linejoin:round; stroke-width:4; stroke-opacity:1; fill:none" points="1804.58,1349.74 1804.58,1330.84 "/>
<polyline clip-path="url(#clip860)" style="stroke:#000000; stroke-linecap:round; stroke-linejoin:round; stroke-width:4; stroke-opacity:1; fill:none" points="2295.34,1349.74 2295.34,1330.84 "/>
<path clip-path="url(#clip860)" d="M306.968 1427.79 Q306.968 1414 309.779 1405.62 Q312.644 1397.18 318.213 1392.62 Q323.836 1388.06 332.322 1388.06 Q338.581 1388.06 343.302 1390.61 Q348.023 1393.1 351.099 1397.87 Q354.176 1402.6 355.926 1409.44 Q357.677 1416.23 357.677 1427.79 Q357.677 1441.48 354.865 1449.91 Q352.054 1458.29 346.432 1462.9 Q340.862 1467.47 332.322 1467.47 Q321.077 1467.47 314.659 1459.4 Q306.968 1449.7 306.968 1427.79 M316.781 1427.79 Q316.781 1446.94 321.237 1453.3 Q325.745 1459.62 332.322 1459.62 Q338.9 1459.62 343.355 1453.25 Q347.864 1446.89 347.864 1427.79 Q347.864 1408.59 343.355 1402.28 Q338.9 1395.96 332.216 1395.96 Q325.639 1395.96 321.714 1401.53 Q316.781 1408.64 316.781 1427.79 Z" fill="#000000" fill-rule="nonzero" fill-opacity="1" /><path clip-path="url(#clip860)" d="M799.817 1466.14 L790.27 1466.14 L790.27 1405.3 Q786.822 1408.59 781.199 1411.88 Q775.63 1415.17 771.174 1416.81 L771.174 1407.58 Q779.184 1403.82 785.177 1398.46 Q791.171 1393.1 793.664 1388.06 L799.817 1388.06 L799.817 1466.14 Z" fill="#000000" fill-rule="nonzero" fill-opacity="1" /><path clip-path="url(#clip860)" d="M824.27 1427.79 Q824.27 1414 827.081 1405.62 Q829.945 1397.18 835.515 1392.62 Q841.137 1388.06 849.624 1388.06 Q855.883 1388.06 860.604 1390.61 Q865.324 1393.1 868.401 1397.87 Q871.477 1402.6 873.228 1409.44 Q874.978 1416.23 874.978 1427.79 Q874.978 1441.48 872.167 1449.91 Q869.356 1458.29 863.733 1462.9 Q858.164 1467.47 849.624 1467.47 Q838.379 1467.47 831.961 1459.4 Q824.27 1449.7 824.27 1427.79 M834.082 1427.79 Q834.082 1446.94 838.538 1453.3 Q843.047 1459.62 849.624 1459.62 Q856.201 1459.62 860.657 1453.25 Q865.165 1446.89 865.165 1427.79 Q865.165 1408.59 860.657 1402.28 Q856.201 1395.96 849.518 1395.96 Q842.941 1395.96 839.015 1401.53 Q834.082 1408.64 834.082 1427.79 Z" fill="#000000" fill-rule="nonzero" fill-opacity="1" /><path clip-path="url(#clip860)" d="M1309.11 1456.96 L1309.11 1466.14 L1257.71 1466.14 Q1257.61 1462.69 1258.83 1459.51 Q1260.79 1454.26 1265.08 1449.17 Q1269.43 1444.07 1277.6 1437.39 Q1290.28 1426.99 1294.73 1420.95 Q1299.19 1414.85 1299.19 1409.44 Q1299.19 1403.76 1295.11 1399.89 Q1291.07 1395.96 1284.55 1395.96 Q1277.66 1395.96 1273.52 1400.1 Q1269.38 1404.24 1269.33 1411.56 L1259.51 1410.55 Q1260.52 1399.57 1267.1 1393.84 Q1273.68 1388.06 1284.76 1388.06 Q1295.95 1388.06 1302.48 1394.27 Q1309 1400.47 1309 1409.65 Q1309 1414.32 1307.09 1418.83 Q1305.18 1423.33 1300.73 1428.32 Q1296.33 1433.31 1286.04 1442.01 Q1277.44 1449.22 1275 1451.82 Q1272.56 1454.36 1270.97 1456.96 L1309.11 1456.96 Z" fill="#000000" fill-rule="nonzero" fill-opacity="1" /><path clip-path="url(#clip860)" d="M1319.35 1427.79 Q1319.35 1414 1322.16 1405.62 Q1325.02 1397.18 1330.59 1392.62 Q1336.21 1388.06 1344.7 1388.06 Q1350.96 1388.06 1355.68 1390.61 Q1360.4 1393.1 1363.48 1397.87 Q1366.55 1402.6 1368.3 1409.44 Q1370.05 1416.23 1370.05 1427.79 Q1370.05 1441.48 1367.24 1449.91 Q1364.43 1458.29 1358.81 1462.9 Q1353.24 1467.47 1344.7 1467.47 Q1333.46 1467.47 1327.04 1459.4 Q1319.35 1449.7 1319.35 1427.79 M1329.16 1427.79 Q1329.16 1446.94 1333.61 1453.3 Q1338.12 1459.62 1344.7 1459.62 Q1351.28 1459.62 1355.73 1453.25 Q1360.24 1446.89 1360.24 1427.79 Q1360.24 1408.59 1355.73 1402.28 Q1351.28 1395.96 1344.59 1395.96 Q1338.02 1395.96 1334.09 1401.53 Q1329.16 1408.64 1329.16 1427.79 Z" fill="#000000" fill-rule="nonzero" fill-opacity="1" /><path clip-path="url(#clip860)" d="M1749.05 1445.61 L1758.6 1444.34 Q1760.24 1452.45 1764.17 1456.06 Q1768.14 1459.62 1773.82 1459.62 Q1780.56 1459.62 1785.17 1454.95 Q1789.84 1450.28 1789.84 1443.38 Q1789.84 1436.81 1785.54 1432.56 Q1781.25 1428.27 1774.61 1428.27 Q1771.91 1428.27 1767.88 1429.33 L1768.94 1420.95 Q1769.89 1421.05 1770.48 1421.05 Q1776.58 1421.05 1781.46 1417.87 Q1786.34 1414.69 1786.34 1408.06 Q1786.34 1402.81 1782.78 1399.36 Q1779.23 1395.91 1773.61 1395.91 Q1768.04 1395.91 1764.32 1399.41 Q1760.61 1402.91 1759.55 1409.92 L1750 1408.22 Q1751.75 1398.62 1757.96 1393.37 Q1764.17 1388.06 1773.4 1388.06 Q1779.76 1388.06 1785.12 1390.82 Q1790.47 1393.52 1793.29 1398.25 Q1796.15 1402.97 1796.15 1408.27 Q1796.15 1413.31 1793.44 1417.45 Q1790.74 1421.58 1785.44 1424.02 Q1792.33 1425.62 1796.15 1430.65 Q1799.97 1435.64 1799.97 1443.17 Q1799.97 1453.36 1792.54 1460.46 Q1785.12 1467.52 1773.77 1467.52 Q1763.53 1467.52 1756.74 1461.42 Q1750 1455.32 1749.05 1445.61 Z" fill="#000000" fill-rule="nonzero" fill-opacity="1" /><path clip-path="url(#clip860)" d="M1809.41 1427.79 Q1809.41 1414 1812.22 1405.62 Q1815.09 1397.18 1820.66 1392.62 Q1826.28 1388.06 1834.76 1388.06 Q1841.02 1388.06 1845.74 1390.61 Q1850.47 1393.1 1853.54 1397.87 Q1856.62 1402.6 1858.37 1409.44 Q1860.12 1416.23 1860.12 1427.79 Q1860.12 1441.48 1857.31 1449.91 Q1854.5 1458.29 1848.87 1462.9 Q1843.3 1467.47 1834.76 1467.47 Q1823.52 1467.47 1817.1 1459.4 Q1809.41 1449.7 1809.41 1427.79 M1819.22 1427.79 Q1819.22 1446.94 1823.68 1453.3 Q1828.19 1459.62 1834.76 1459.62 Q1841.34 1459.62 1845.8 1453.25 Q1850.31 1446.89 1850.31 1427.79 Q1850.31 1408.59 1845.8 1402.28 Q1841.34 1395.96 1834.66 1395.96 Q1828.08 1395.96 1824.16 1401.53 Q1819.22 1408.64 1819.22 1427.79 Z" fill="#000000" fill-rule="nonzero" fill-opacity="1" /><path clip-path="url(#clip860)" d="M2271.95 1466.14 L2271.95 1447.52 L2238.21 1447.52 L2238.21 1438.77 L2273.7 1388.38 L2281.49 1388.38 L2281.49 1438.77 L2292 1438.77 L2292 1447.52 L2281.49 1447.52 L2281.49 1466.14 L2271.95 1466.14 M2271.95 1438.77 L2271.95 1403.71 L2247.6 1438.77 L2271.95 1438.77 Z" fill="#000000" fill-rule="nonzero" fill-opacity="1" /><path clip-path="url(#clip860)" d="M2301.76 1427.79 Q2301.76 1414 2304.57 1405.62 Q2307.43 1397.18 2313 1392.62 Q2318.62 1388.06 2327.11 1388.06 Q2333.37 1388.06 2338.09 1390.61 Q2342.81 1393.1 2345.89 1397.87 Q2348.96 1402.6 2350.71 1409.44 Q2352.46 1416.23 2352.46 1427.79 Q2352.46 1441.48 2349.65 1449.91 Q2346.84 1458.29 2341.22 1462.9 Q2335.65 1467.47 2327.11 1467.47 Q2315.87 1467.47 2309.45 1459.4 Q2301.76 1449.7 2301.76 1427.79 M2311.57 1427.79 Q2311.57 1446.94 2316.02 1453.3 Q2320.53 1459.62 2327.11 1459.62 Q2333.69 1459.62 2338.14 1453.25 Q2342.65 1446.89 2342.65 1427.79 Q2342.65 1408.59 2338.14 1402.28 Q2333.69 1395.96 2327 1395.96 Q2320.43 1395.96 2316.5 1401.53 Q2311.57 1408.64 2311.57 1427.79 Z" fill="#000000" fill-rule="nonzero" fill-opacity="1" /><path clip-path="url(#clip860)" d="M1237.8 1577.55 L1247.67 1578.77 Q1245.33 1587.42 1239.02 1592.19 Q1232.71 1596.96 1222.89 1596.96 Q1210.54 1596.96 1203.27 1589.38 Q1196.06 1581.74 1196.06 1568 Q1196.06 1553.79 1203.38 1545.94 Q1210.69 1538.09 1222.36 1538.09 Q1233.66 1538.09 1240.82 1545.78 Q1247.98 1553.47 1247.98 1567.42 Q1247.98 1568.27 1247.93 1569.97 L1205.92 1569.97 Q1206.45 1579.25 1211.17 1584.18 Q1215.89 1589.11 1222.95 1589.11 Q1228.2 1589.11 1231.91 1586.36 Q1235.62 1583.6 1237.8 1577.55 M1206.45 1562.12 L1237.91 1562.12 Q1237.27 1555.01 1234.3 1551.45 Q1229.74 1545.94 1222.47 1545.94 Q1215.89 1545.94 1211.38 1550.34 Q1206.93 1554.74 1206.45 1562.12 Z" fill="#000000" fill-rule="nonzero" fill-opacity="1" /><path clip-path="url(#clip860)" d="M1259.65 1617.28 L1259.65 1539.36 L1268.35 1539.36 L1268.35 1546.68 Q1271.43 1542.38 1275.3 1540.26 Q1279.17 1538.09 1284.69 1538.09 Q1291.9 1538.09 1297.42 1541.8 Q1302.94 1545.51 1305.75 1552.3 Q1308.56 1559.04 1308.56 1567.1 Q1308.56 1575.75 1305.43 1582.7 Q1302.35 1589.59 1296.41 1593.3 Q1290.52 1596.96 1284 1596.96 Q1279.23 1596.96 1275.41 1594.95 Q1271.64 1592.93 1269.2 1589.86 L1269.2 1617.28 L1259.65 1617.28 M1268.3 1567.84 Q1268.3 1578.72 1272.7 1583.92 Q1277.1 1589.11 1283.36 1589.11 Q1289.73 1589.11 1294.24 1583.76 Q1298.8 1578.35 1298.8 1567.05 Q1298.8 1556.28 1294.34 1550.92 Q1289.94 1545.57 1283.79 1545.57 Q1277.69 1545.57 1272.97 1551.3 Q1268.3 1556.97 1268.3 1567.84 Z" fill="#000000" fill-rule="nonzero" fill-opacity="1" /><path clip-path="url(#clip860)" d="M1316.51 1567.53 Q1316.51 1551.88 1325.21 1544.35 Q1332.48 1538.09 1342.93 1538.09 Q1354.55 1538.09 1361.92 1545.73 Q1369.29 1553.31 1369.29 1566.73 Q1369.29 1577.6 1366 1583.86 Q1362.77 1590.07 1356.51 1593.52 Q1350.3 1596.96 1342.93 1596.96 Q1331.1 1596.96 1323.78 1589.38 Q1316.51 1581.79 1316.51 1567.53 M1326.33 1567.53 Q1326.33 1578.35 1331.05 1583.76 Q1335.77 1589.11 1342.93 1589.11 Q1350.04 1589.11 1354.76 1583.7 Q1359.48 1578.29 1359.48 1567.21 Q1359.48 1556.76 1354.7 1551.4 Q1349.98 1545.99 1342.93 1545.99 Q1335.77 1545.99 1331.05 1551.35 Q1326.33 1556.71 1326.33 1567.53 Z" fill="#000000" fill-rule="nonzero" fill-opacity="1" /><path clip-path="url(#clip860)" d="M1417.24 1575.06 L1426.63 1576.28 Q1425.09 1585.99 1418.73 1591.5 Q1412.41 1596.96 1403.19 1596.96 Q1391.62 1596.96 1384.57 1589.43 Q1377.57 1581.85 1377.57 1567.74 Q1377.57 1558.62 1380.59 1551.77 Q1383.61 1544.93 1389.77 1541.54 Q1395.97 1538.09 1403.24 1538.09 Q1412.41 1538.09 1418.25 1542.76 Q1424.08 1547.37 1425.73 1555.91 L1416.45 1557.34 Q1415.12 1551.67 1411.73 1548.8 Q1408.38 1545.94 1403.61 1545.94 Q1396.4 1545.94 1391.89 1551.14 Q1387.38 1556.28 1387.38 1567.47 Q1387.38 1578.82 1391.73 1583.97 Q1396.08 1589.11 1403.08 1589.11 Q1408.7 1589.11 1412.47 1585.67 Q1416.23 1582.22 1417.24 1575.06 Z" fill="#000000" fill-rule="nonzero" fill-opacity="1" /><path clip-path="url(#clip860)" d="M1434.8 1595.69 L1434.8 1517.93 L1444.35 1517.93 L1444.35 1545.83 Q1451.03 1538.09 1461.21 1538.09 Q1467.47 1538.09 1472.09 1540.58 Q1476.7 1543.02 1478.66 1547.37 Q1480.68 1551.72 1480.68 1559.99 L1480.68 1595.69 L1471.13 1595.69 L1471.13 1559.99 Q1471.13 1552.83 1468 1549.6 Q1464.93 1546.31 1459.25 1546.31 Q1455.01 1546.31 1451.24 1548.54 Q1447.53 1550.71 1445.94 1554.48 Q1444.35 1558.24 1444.35 1564.87 L1444.35 1595.69 L1434.8 1595.69 Z" fill="#000000" fill-rule="nonzero" fill-opacity="1" /><polyline clip-path="url(#clip860)" style="stroke:#000000; stroke-linecap:round; stroke-linejoin:round; stroke-width:4; stroke-opacity:1; fill:none" points="323.98,1349.74 323.98,47.2441 "/>
<polyline clip-path="url(#clip860)" style="stroke:#000000; stroke-linecap:round; stroke-linejoin:round; stroke-width:2; stroke-opacity:0.5; fill:none" points="2352.76,1349.74 2352.76,47.2441 "/>
<polyline clip-path="url(#clip860)" style="stroke:#000000; stroke-linecap:round; stroke-linejoin:round; stroke-width:4; stroke-opacity:1; fill:none" points="323.98,1199.11 342.877,1199.11 "/>
<polyline clip-path="url(#clip860)" style="stroke:#000000; stroke-linecap:round; stroke-linejoin:round; stroke-width:4; stroke-opacity:1; fill:none" points="323.98,838.422 342.877,838.422 "/>
<polyline clip-path="url(#clip860)" style="stroke:#000000; stroke-linecap:round; stroke-linejoin:round; stroke-width:4; stroke-opacity:1; fill:none" points="323.98,477.731 342.877,477.731 "/>
<polyline clip-path="url(#clip860)" style="stroke:#000000; stroke-linecap:round; stroke-linejoin:round; stroke-width:4; stroke-opacity:1; fill:none" points="323.98,117.04 342.877,117.04 "/>
<path clip-path="url(#clip860)" d="M182.638 1237.99 L173.09 1237.99 L173.09 1177.15 Q169.642 1180.44 164.02 1183.73 Q158.45 1187.02 153.995 1188.66 L153.995 1179.43 Q162.004 1175.67 167.998 1170.31 Q173.992 1164.95 176.485 1159.91 L182.638 1159.91 L182.638 1237.99 Z" fill="#000000" fill-rule="nonzero" fill-opacity="1" /><path clip-path="url(#clip860)" d="M212.447 1237.99 L212.447 1227.12 L223.321 1227.12 L223.321 1237.99 L212.447 1237.99 Z" fill="#000000" fill-rule="nonzero" fill-opacity="1" /><path clip-path="url(#clip860)" d="M237.271 1199.64 Q237.271 1185.85 240.082 1177.47 Q242.947 1169.04 248.516 1164.48 Q254.139 1159.91 262.625 1159.91 Q268.884 1159.91 273.605 1162.46 Q278.326 1164.95 281.402 1169.73 Q284.479 1174.45 286.229 1181.29 Q287.98 1188.08 287.98 1199.64 Q287.98 1213.33 285.168 1221.76 Q282.357 1230.14 276.735 1234.76 Q271.165 1239.32 262.625 1239.32 Q251.38 1239.32 244.962 1231.26 Q237.271 1221.55 237.271 1199.64 M247.084 1199.64 Q247.084 1218.79 251.54 1225.16 Q256.048 1231.47 262.625 1231.47 Q269.203 1231.47 273.658 1225.1 Q278.167 1218.74 278.167 1199.64 Q278.167 1180.44 273.658 1174.13 Q269.203 1167.82 262.519 1167.82 Q255.942 1167.82 252.017 1173.39 Q247.084 1180.49 247.084 1199.64 Z" fill="#000000" fill-rule="nonzero" fill-opacity="1" /><path clip-path="url(#clip860)" d="M181.789 877.302 L172.241 877.302 L172.241 816.462 Q168.794 819.751 163.171 823.039 Q157.602 826.328 153.146 827.972 L153.146 818.743 Q161.155 814.977 167.149 809.62 Q173.143 804.262 175.636 799.223 L181.789 799.223 L181.789 877.302 Z" fill="#000000" fill-rule="nonzero" fill-opacity="1" /><path clip-path="url(#clip860)" d="M211.599 877.302 L211.599 866.428 L222.472 866.428 L222.472 877.302 L211.599 877.302 Z" fill="#000000" fill-rule="nonzero" fill-opacity="1" /><path clip-path="url(#clip860)" d="M236.422 856.933 L246.447 856.085 Q247.561 863.404 251.593 867.117 Q255.677 870.777 261.405 870.777 Q268.301 870.777 273.075 865.579 Q277.848 860.381 277.848 851.788 Q277.848 843.62 273.234 838.899 Q268.672 834.178 261.246 834.178 Q256.632 834.178 252.919 836.3 Q249.206 838.368 247.084 841.71 L238.12 840.543 L245.652 800.602 L284.32 800.602 L284.32 809.726 L253.29 809.726 L249.1 830.624 Q256.101 825.744 263.792 825.744 Q273.976 825.744 280.978 832.799 Q287.98 839.854 287.98 850.94 Q287.98 861.495 281.827 869.186 Q274.348 878.628 261.405 878.628 Q250.797 878.628 244.061 872.687 Q237.377 866.746 236.422 856.933 Z" fill="#000000" fill-rule="nonzero" fill-opacity="1" /><path clip-path="url(#clip860)" d="M196.853 507.434 L196.853 516.611 L145.455 516.611 Q145.349 513.163 146.569 509.98 Q148.531 504.729 152.828 499.637 Q157.177 494.545 165.346 487.862 Q178.023 477.466 182.478 471.419 Q186.934 465.319 186.934 459.909 Q186.934 454.233 182.85 450.361 Q178.819 446.436 172.294 446.436 Q165.399 446.436 161.262 450.573 Q157.124 454.71 157.071 462.03 L147.258 461.022 Q148.266 450.043 154.843 444.314 Q161.421 438.533 172.506 438.533 Q183.698 438.533 190.223 444.738 Q196.747 450.944 196.747 460.121 Q196.747 464.788 194.837 469.297 Q192.928 473.806 188.472 478.792 Q184.07 483.778 173.78 492.477 Q165.187 499.69 162.747 502.289 Q160.307 504.835 158.715 507.434 L196.853 507.434 Z" fill="#000000" fill-rule="nonzero" fill-opacity="1" /><path clip-path="url(#clip860)" d="M212.447 516.611 L212.447 505.737 L223.321 505.737 L223.321 516.611 L212.447 516.611 Z" fill="#000000" fill-rule="nonzero" fill-opacity="1" /><path clip-path="url(#clip860)" d="M237.271 478.261 Q237.271 464.47 240.082 456.09 Q242.947 447.656 248.516 443.094 Q254.139 438.533 262.625 438.533 Q268.884 438.533 273.605 441.079 Q278.326 443.572 281.402 448.345 Q284.479 453.066 286.229 459.909 Q287.98 466.698 287.98 478.261 Q287.98 491.946 285.168 500.38 Q282.357 508.76 276.735 513.375 Q271.165 517.937 262.625 517.937 Q251.38 517.937 244.962 509.874 Q237.271 500.168 237.271 478.261 M247.084 478.261 Q247.084 497.409 251.54 503.775 Q256.048 510.087 262.625 510.087 Q269.203 510.087 273.658 503.721 Q278.167 497.356 278.167 478.261 Q278.167 459.06 273.658 452.748 Q269.203 446.436 262.519 446.436 Q255.942 446.436 252.017 452.005 Q247.084 459.113 247.084 478.261 Z" fill="#000000" fill-rule="nonzero" fill-opacity="1" /><path clip-path="url(#clip860)" d="M196.004 146.744 L196.004 155.92 L144.606 155.92 Q144.5 152.472 145.72 149.29 Q147.683 144.039 151.979 138.946 Q156.329 133.854 164.497 127.171 Q177.174 116.775 181.63 110.728 Q186.085 104.628 186.085 99.2178 Q186.085 93.5422 182.001 89.6702 Q177.97 85.745 171.446 85.745 Q164.55 85.745 160.413 89.8823 Q156.276 94.0196 156.223 101.339 L146.41 100.332 Q147.417 89.3519 153.995 83.6233 Q160.572 77.8417 171.658 77.8417 Q182.85 77.8417 189.374 84.0477 Q195.898 90.2536 195.898 99.4299 Q195.898 104.098 193.989 108.606 Q192.079 113.115 187.624 118.101 Q183.221 123.087 172.931 131.786 Q164.338 138.999 161.898 141.599 Q159.458 144.145 157.867 146.744 L196.004 146.744 Z" fill="#000000" fill-rule="nonzero" fill-opacity="1" /><path clip-path="url(#clip860)" d="M211.599 155.92 L211.599 145.046 L222.472 145.046 L222.472 155.92 L211.599 155.92 Z" fill="#000000" fill-rule="nonzero" fill-opacity="1" /><path clip-path="url(#clip860)" d="M236.422 135.552 L246.447 134.703 Q247.561 142.023 251.593 145.736 Q255.677 149.396 261.405 149.396 Q268.301 149.396 273.075 144.198 Q277.848 138.999 277.848 130.407 Q277.848 122.238 273.234 117.517 Q268.672 112.797 261.246 112.797 Q256.632 112.797 252.919 114.918 Q249.206 116.987 247.084 120.329 L238.12 119.162 L245.652 79.2208 L284.32 79.2208 L284.32 88.3441 L253.29 88.3441 L249.1 109.243 Q256.101 104.363 263.792 104.363 Q273.976 104.363 280.978 111.417 Q287.98 118.472 287.98 129.558 Q287.98 140.113 281.827 147.805 Q274.348 157.246 261.405 157.246 Q250.797 157.246 244.061 151.305 Q237.377 145.365 236.422 135.552 Z" fill="#000000" fill-rule="nonzero" fill-opacity="1" /><path clip-path="url(#clip860)" d="M85.1722 789.513 L7.41216 789.513 L7.41216 779.965 L85.1722 779.965 L85.1722 789.513 Z" fill="#000000" fill-rule="nonzero" fill-opacity="1" /><path clip-path="url(#clip860)" d="M57.0067 768.72 Q41.3592 768.72 33.8272 760.021 Q27.5682 752.754 27.5682 742.305 Q27.5682 730.689 35.2063 723.316 Q42.7914 715.943 56.2111 715.943 Q67.0847 715.943 73.3437 719.232 Q79.5497 722.467 82.9974 728.726 Q86.4452 734.932 86.4452 742.305 Q86.4452 754.133 78.8601 761.453 Q71.2751 768.72 57.0067 768.72 M57.0067 758.907 Q67.8273 758.907 73.2376 754.186 Q78.5949 749.466 78.5949 742.305 Q78.5949 735.197 73.1846 730.476 Q67.7743 725.756 56.6884 725.756 Q46.2391 725.756 40.8818 730.53 Q35.4715 735.25 35.4715 742.305 Q35.4715 749.466 40.8288 754.186 Q46.1861 758.907 57.0067 758.907 Z" fill="#000000" fill-rule="nonzero" fill-opacity="1" /><path clip-path="url(#clip860)" d="M68.3578 708.57 L66.8726 699.128 Q72.5481 698.333 75.5715 694.726 Q78.5949 691.066 78.5949 684.542 Q78.5949 677.965 75.9428 674.782 Q73.2376 671.6 69.6308 671.6 Q66.3952 671.6 64.5387 674.411 Q63.2657 676.373 61.3031 684.171 Q58.651 694.673 56.7415 698.757 Q54.7789 702.788 51.3842 704.91 Q47.9365 706.979 43.7992 706.979 Q40.0332 706.979 36.8506 705.281 Q33.615 703.531 31.4934 700.561 Q29.849 698.333 28.7352 694.514 Q27.5682 690.642 27.5682 686.239 Q27.5682 679.609 29.4778 674.623 Q31.3873 669.584 34.6759 667.197 Q37.9115 664.81 43.3748 663.908 L44.6478 673.244 Q40.2984 673.88 37.8584 676.957 Q35.4185 679.98 35.4185 685.55 Q35.4185 692.127 37.5932 694.938 Q39.768 697.749 42.6853 697.749 Q44.5418 697.749 46.0269 696.582 Q47.5652 695.416 48.573 692.923 Q49.1034 691.49 51.0129 684.489 Q53.7181 674.358 55.4685 670.38 Q57.1658 666.348 60.4544 664.068 Q63.7431 661.787 68.623 661.787 Q73.3968 661.787 77.6402 664.598 Q81.8305 667.356 84.1644 672.607 Q86.4452 677.859 86.4452 684.489 Q86.4452 695.469 81.8835 701.25 Q77.3219 706.979 68.3578 708.57 Z" fill="#000000" fill-rule="nonzero" fill-opacity="1" /><path clip-path="url(#clip860)" d="M68.3578 654.255 L66.8726 644.813 Q72.5481 644.018 75.5715 640.411 Q78.5949 636.751 78.5949 630.227 Q78.5949 623.649 75.9428 620.467 Q73.2376 617.284 69.6308 617.284 Q66.3952 617.284 64.5387 620.095 Q63.2657 622.058 61.3031 629.855 Q58.651 640.358 56.7415 644.442 Q54.7789 648.473 51.3842 650.595 Q47.9365 652.663 43.7992 652.663 Q40.0332 652.663 36.8506 650.966 Q33.615 649.216 31.4934 646.245 Q29.849 644.018 28.7352 640.198 Q27.5682 636.326 27.5682 631.924 Q27.5682 625.294 29.4778 620.308 Q31.3873 615.269 34.6759 612.882 Q37.9115 610.495 43.3748 609.593 L44.6478 618.929 Q40.2984 619.565 37.8584 622.641 Q35.4185 625.665 35.4185 631.234 Q35.4185 637.812 37.5932 640.623 Q39.768 643.434 42.6853 643.434 Q44.5418 643.434 46.0269 642.267 Q47.5652 641.1 48.573 638.607 Q49.1034 637.175 51.0129 630.173 Q53.7181 620.042 55.4685 616.064 Q57.1658 612.033 60.4544 609.752 Q63.7431 607.471 68.623 607.471 Q73.3968 607.471 77.6402 610.283 Q81.8305 613.041 84.1644 618.292 Q86.4452 623.543 86.4452 630.173 Q86.4452 641.153 81.8835 646.935 Q77.3219 652.663 68.3578 654.255 Z" fill="#000000" fill-rule="nonzero" fill-opacity="1" /><polyline clip-path="url(#clip862)" style="stroke:#009af9; stroke-linecap:round; stroke-linejoin:round; stroke-width:8; stroke-opacity:1; fill:none" points="381.398,84.1072 430.473,229.845 479.549,357.822 528.624,470.213 577.699,568.928 626.775,655.644 675.85,731.828 724.925,798.772 774.001,857.606 823.076,909.323 872.152,954.794 921.227,994.783 970.302,1029.96 1019.38,1060.91 1068.45,1088.16 1117.53,1112.15 1166.6,1133.29 1215.68,1151.92 1264.75,1168.34 1313.83,1182.83 1362.91,1195.62 1411.98,1206.92 1461.06,1216.91 1510.13,1225.74 1559.21,1233.57 1608.28,1240.5 1657.36,1246.66 1706.43,1252.12 1755.51,1256.98 1804.58,1261.31 1853.66,1265.17 1902.73,1268.62 1951.81,1271.71 2000.89,1274.48 2049.96,1276.96 2099.04,1279.2 2148.11,1281.22 2197.19,1283.04 2246.26,1284.7 2295.34,1286.2 "/>
<circle clip-path="url(#clip862)" cx="381.398" cy="84.1072" r="14.4" fill="#009af9" fill-rule="evenodd" fill-opacity="1" stroke="#000000" stroke-opacity="1" stroke-width="3.2"/>
<circle clip-path="url(#clip862)" cx="430.473" cy="229.845" r="14.4" fill="#009af9" fill-rule="evenodd" fill-opacity="1" stroke="#000000" stroke-opacity="1" stroke-width="3.2"/>
<circle clip-path="url(#clip862)" cx="479.549" cy="357.822" r="14.4" fill="#009af9" fill-rule="evenodd" fill-opacity="1" stroke="#000000" stroke-opacity="1" stroke-width="3.2"/>
<circle clip-path="url(#clip862)" cx="528.624" cy="470.213" r="14.4" fill="#009af9" fill-rule="evenodd" fill-opacity="1" stroke="#000000" stroke-opacity="1" stroke-width="3.2"/>
<circle clip-path="url(#clip862)" cx="577.699" cy="568.928" r="14.4" fill="#009af9" fill-rule="evenodd" fill-opacity="1" stroke="#000000" stroke-opacity="1" stroke-width="3.2"/>
<circle clip-path="url(#clip862)" cx="626.775" cy="655.644" r="14.4" fill="#009af9" fill-rule="evenodd" fill-opacity="1" stroke="#000000" stroke-opacity="1" stroke-width="3.2"/>
<circle clip-path="url(#clip862)" cx="675.85" cy="731.828" r="14.4" fill="#009af9" fill-rule="evenodd" fill-opacity="1" stroke="#000000" stroke-opacity="1" stroke-width="3.2"/>
<circle clip-path="url(#clip862)" cx="724.925" cy="798.772" r="14.4" fill="#009af9" fill-rule="evenodd" fill-opacity="1" stroke="#000000" stroke-opacity="1" stroke-width="3.2"/>
<circle clip-path="url(#clip862)" cx="774.001" cy="857.606" r="14.4" fill="#009af9" fill-rule="evenodd" fill-opacity="1" stroke="#000000" stroke-opacity="1" stroke-width="3.2"/>
<circle clip-path="url(#clip862)" cx="823.076" cy="909.323" r="14.4" fill="#009af9" fill-rule="evenodd" fill-opacity="1" stroke="#000000" stroke-opacity="1" stroke-width="3.2"/>
<circle clip-path="url(#clip862)" cx="872.152" cy="954.794" r="14.4" fill="#009af9" fill-rule="evenodd" fill-opacity="1" stroke="#000000" stroke-opacity="1" stroke-width="3.2"/>
<circle clip-path="url(#clip862)" cx="921.227" cy="994.783" r="14.4" fill="#009af9" fill-rule="evenodd" fill-opacity="1" stroke="#000000" stroke-opacity="1" stroke-width="3.2"/>
<circle clip-path="url(#clip862)" cx="970.302" cy="1029.96" r="14.4" fill="#009af9" fill-rule="evenodd" fill-opacity="1" stroke="#000000" stroke-opacity="1" stroke-width="3.2"/>
<circle clip-path="url(#clip862)" cx="1019.38" cy="1060.91" r="14.4" fill="#009af9" fill-rule="evenodd" fill-opacity="1" stroke="#000000" stroke-opacity="1" stroke-width="3.2"/>
<circle clip-path="url(#clip862)" cx="1068.45" cy="1088.16" r="14.4" fill="#009af9" fill-rule="evenodd" fill-opacity="1" stroke="#000000" stroke-opacity="1" stroke-width="3.2"/>
<circle clip-path="url(#clip862)" cx="1117.53" cy="1112.15" r="14.4" fill="#009af9" fill-rule="evenodd" fill-opacity="1" stroke="#000000" stroke-opacity="1" stroke-width="3.2"/>
<circle clip-path="url(#clip862)" cx="1166.6" cy="1133.29" r="14.4" fill="#009af9" fill-rule="evenodd" fill-opacity="1" stroke="#000000" stroke-opacity="1" stroke-width="3.2"/>
<circle clip-path="url(#clip862)" cx="1215.68" cy="1151.92" r="14.4" fill="#009af9" fill-rule="evenodd" fill-opacity="1" stroke="#000000" stroke-opacity="1" stroke-width="3.2"/>
<circle clip-path="url(#clip862)" cx="1264.75" cy="1168.34" r="14.4" fill="#009af9" fill-rule="evenodd" fill-opacity="1" stroke="#000000" stroke-opacity="1" stroke-width="3.2"/>
<circle clip-path="url(#clip862)" cx="1313.83" cy="1182.83" r="14.4" fill="#009af9" fill-rule="evenodd" fill-opacity="1" stroke="#000000" stroke-opacity="1" stroke-width="3.2"/>
<circle clip-path="url(#clip862)" cx="1362.91" cy="1195.62" r="14.4" fill="#009af9" fill-rule="evenodd" fill-opacity="1" stroke="#000000" stroke-opacity="1" stroke-width="3.2"/>
<circle clip-path="url(#clip862)" cx="1411.98" cy="1206.92" r="14.4" fill="#009af9" fill-rule="evenodd" fill-opacity="1" stroke="#000000" stroke-opacity="1" stroke-width="3.2"/>
<circle clip-path="url(#clip862)" cx="1461.06" cy="1216.91" r="14.4" fill="#009af9" fill-rule="evenodd" fill-opacity="1" stroke="#000000" stroke-opacity="1" stroke-width="3.2"/>
<circle clip-path="url(#clip862)" cx="1510.13" cy="1225.74" r="14.4" fill="#009af9" fill-rule="evenodd" fill-opacity="1" stroke="#000000" stroke-opacity="1" stroke-width="3.2"/>
<circle clip-path="url(#clip862)" cx="1559.21" cy="1233.57" r="14.4" fill="#009af9" fill-rule="evenodd" fill-opacity="1" stroke="#000000" stroke-opacity="1" stroke-width="3.2"/>
<circle clip-path="url(#clip862)" cx="1608.28" cy="1240.5" r="14.4" fill="#009af9" fill-rule="evenodd" fill-opacity="1" stroke="#000000" stroke-opacity="1" stroke-width="3.2"/>
<circle clip-path="url(#clip862)" cx="1657.36" cy="1246.66" r="14.4" fill="#009af9" fill-rule="evenodd" fill-opacity="1" stroke="#000000" stroke-opacity="1" stroke-width="3.2"/>
<circle clip-path="url(#clip862)" cx="1706.43" cy="1252.12" r="14.4" fill="#009af9" fill-rule="evenodd" fill-opacity="1" stroke="#000000" stroke-opacity="1" stroke-width="3.2"/>
<circle clip-path="url(#clip862)" cx="1755.51" cy="1256.98" r="14.4" fill="#009af9" fill-rule="evenodd" fill-opacity="1" stroke="#000000" stroke-opacity="1" stroke-width="3.2"/>
<circle clip-path="url(#clip862)" cx="1804.58" cy="1261.31" r="14.4" fill="#009af9" fill-rule="evenodd" fill-opacity="1" stroke="#000000" stroke-opacity="1" stroke-width="3.2"/>
<circle clip-path="url(#clip862)" cx="1853.66" cy="1265.17" r="14.4" fill="#009af9" fill-rule="evenodd" fill-opacity="1" stroke="#000000" stroke-opacity="1" stroke-width="3.2"/>
<circle clip-path="url(#clip862)" cx="1902.73" cy="1268.62" r="14.4" fill="#009af9" fill-rule="evenodd" fill-opacity="1" stroke="#000000" stroke-opacity="1" stroke-width="3.2"/>
<circle clip-path="url(#clip862)" cx="1951.81" cy="1271.71" r="14.4" fill="#009af9" fill-rule="evenodd" fill-opacity="1" stroke="#000000" stroke-opacity="1" stroke-width="3.2"/>
<circle clip-path="url(#clip862)" cx="2000.89" cy="1274.48" r="14.4" fill="#009af9" fill-rule="evenodd" fill-opacity="1" stroke="#000000" stroke-opacity="1" stroke-width="3.2"/>
<circle clip-path="url(#clip862)" cx="2049.96" cy="1276.96" r="14.4" fill="#009af9" fill-rule="evenodd" fill-opacity="1" stroke="#000000" stroke-opacity="1" stroke-width="3.2"/>
<circle clip-path="url(#clip862)" cx="2099.04" cy="1279.2" r="14.4" fill="#009af9" fill-rule="evenodd" fill-opacity="1" stroke="#000000" stroke-opacity="1" stroke-width="3.2"/>
<circle clip-path="url(#clip862)" cx="2148.11" cy="1281.22" r="14.4" fill="#009af9" fill-rule="evenodd" fill-opacity="1" stroke="#000000" stroke-opacity="1" stroke-width="3.2"/>
<circle clip-path="url(#clip862)" cx="2197.19" cy="1283.04" r="14.4" fill="#009af9" fill-rule="evenodd" fill-opacity="1" stroke="#000000" stroke-opacity="1" stroke-width="3.2"/>
<circle clip-path="url(#clip862)" cx="2246.26" cy="1284.7" r="14.4" fill="#009af9" fill-rule="evenodd" fill-opacity="1" stroke="#000000" stroke-opacity="1" stroke-width="3.2"/>
<circle clip-path="url(#clip862)" cx="2295.34" cy="1286.2" r="14.4" fill="#009af9" fill-rule="evenodd" fill-opacity="1" stroke="#000000" stroke-opacity="1" stroke-width="3.2"/>
<polyline clip-path="url(#clip862)" style="stroke:#e26f46; stroke-linecap:round; stroke-linejoin:round; stroke-width:8; stroke-opacity:1; fill:none" points="381.398,229.315 430.473,375.93 479.549,503.326 528.624,613.96 577.699,709.979 626.775,793.26 675.85,865.445 724.925,927.966 774.001,982.078 823.076,1028.87 872.152,1069.31 921.227,1104.22 970.302,1134.33 1019.38,1160.27 1068.45,1182.61 1117.53,1201.81 1166.6,1218.31 1215.68,1232.46 1264.75,1244.6 1313.83,1254.98 1362.91,1263.86 1411.98,1271.44 1461.06,1277.91 1510.13,1283.42 1559.21,1288.12 1608.28,1292.11 1657.36,1295.5 1706.43,1298.38 1755.51,1300.83 1804.58,1302.92 1853.66,1304.69 1902.73,1306.2 1951.81,1307.49 2000.89,1308.6 2049.96,1309.56 2099.04,1310.39 2148.11,1311.12 2197.19,1311.77 2246.26,1312.35 2295.34,1312.88 "/>
<circle clip-path="url(#clip862)" cx="381.398" cy="229.315" r="14.4" fill="#e26f46" fill-rule="evenodd" fill-opacity="1" stroke="#000000" stroke-opacity="1" stroke-width="3.2"/>
<circle clip-path="url(#clip862)" cx="430.473" cy="375.93" r="14.4" fill="#e26f46" fill-rule="evenodd" fill-opacity="1" stroke="#000000" stroke-opacity="1" stroke-width="3.2"/>
<circle clip-path="url(#clip862)" cx="479.549" cy="503.326" r="14.4" fill="#e26f46" fill-rule="evenodd" fill-opacity="1" stroke="#000000" stroke-opacity="1" stroke-width="3.2"/>
<circle clip-path="url(#clip862)" cx="528.624" cy="613.96" r="14.4" fill="#e26f46" fill-rule="evenodd" fill-opacity="1" stroke="#000000" stroke-opacity="1" stroke-width="3.2"/>
<circle clip-path="url(#clip862)" cx="577.699" cy="709.979" r="14.4" fill="#e26f46" fill-rule="evenodd" fill-opacity="1" stroke="#000000" stroke-opacity="1" stroke-width="3.2"/>
<circle clip-path="url(#clip862)" cx="626.775" cy="793.26" r="14.4" fill="#e26f46" fill-rule="evenodd" fill-opacity="1" stroke="#000000" stroke-opacity="1" stroke-width="3.2"/>
<circle clip-path="url(#clip862)" cx="675.85" cy="865.445" r="14.4" fill="#e26f46" fill-rule="evenodd" fill-opacity="1" stroke="#000000" stroke-opacity="1" stroke-width="3.2"/>
<circle clip-path="url(#clip862)" cx="724.925" cy="927.966" r="14.4" fill="#e26f46" fill-rule="evenodd" fill-opacity="1" stroke="#000000" stroke-opacity="1" stroke-width="3.2"/>
<circle clip-path="url(#clip862)" cx="774.001" cy="982.078" r="14.4" fill="#e26f46" fill-rule="evenodd" fill-opacity="1" stroke="#000000" stroke-opacity="1" stroke-width="3.2"/>
<circle clip-path="url(#clip862)" cx="823.076" cy="1028.87" r="14.4" fill="#e26f46" fill-rule="evenodd" fill-opacity="1" stroke="#000000" stroke-opacity="1" stroke-width="3.2"/>
<circle clip-path="url(#clip862)" cx="872.152" cy="1069.31" r="14.4" fill="#e26f46" fill-rule="evenodd" fill-opacity="1" stroke="#000000" stroke-opacity="1" stroke-width="3.2"/>
<circle clip-path="url(#clip862)" cx="921.227" cy="1104.22" r="14.4" fill="#e26f46" fill-rule="evenodd" fill-opacity="1" stroke="#000000" stroke-opacity="1" stroke-width="3.2"/>
<circle clip-path="url(#clip862)" cx="970.302" cy="1134.33" r="14.4" fill="#e26f46" fill-rule="evenodd" fill-opacity="1" stroke="#000000" stroke-opacity="1" stroke-width="3.2"/>
<circle clip-path="url(#clip862)" cx="1019.38" cy="1160.27" r="14.4" fill="#e26f46" fill-rule="evenodd" fill-opacity="1" stroke="#000000" stroke-opacity="1" stroke-width="3.2"/>
<circle clip-path="url(#clip862)" cx="1068.45" cy="1182.61" r="14.4" fill="#e26f46" fill-rule="evenodd" fill-opacity="1" stroke="#000000" stroke-opacity="1" stroke-width="3.2"/>
<circle clip-path="url(#clip862)" cx="1117.53" cy="1201.81" r="14.4" fill="#e26f46" fill-rule="evenodd" fill-opacity="1" stroke="#000000" stroke-opacity="1" stroke-width="3.2"/>
<circle clip-path="url(#clip862)" cx="1166.6" cy="1218.31" r="14.4" fill="#e26f46" fill-rule="evenodd" fill-opacity="1" stroke="#000000" stroke-opacity="1" stroke-width="3.2"/>
<circle clip-path="url(#clip862)" cx="1215.68" cy="1232.46" r="14.4" fill="#e26f46" fill-rule="evenodd" fill-opacity="1" stroke="#000000" stroke-opacity="1" stroke-width="3.2"/>
<circle clip-path="url(#clip862)" cx="1264.75" cy="1244.6" r="14.4" fill="#e26f46" fill-rule="evenodd" fill-opacity="1" stroke="#000000" stroke-opacity="1" stroke-width="3.2"/>
<circle clip-path="url(#clip862)" cx="1313.83" cy="1254.98" r="14.4" fill="#e26f46" fill-rule="evenodd" fill-opacity="1" stroke="#000000" stroke-opacity="1" stroke-width="3.2"/>
<circle clip-path="url(#clip862)" cx="1362.91" cy="1263.86" r="14.4" fill="#e26f46" fill-rule="evenodd" fill-opacity="1" stroke="#000000" stroke-opacity="1" stroke-width="3.2"/>
<circle clip-path="url(#clip862)" cx="1411.98" cy="1271.44" r="14.4" fill="#e26f46" fill-rule="evenodd" fill-opacity="1" stroke="#000000" stroke-opacity="1" stroke-width="3.2"/>
<circle clip-path="url(#clip862)" cx="1461.06" cy="1277.91" r="14.4" fill="#e26f46" fill-rule="evenodd" fill-opacity="1" stroke="#000000" stroke-opacity="1" stroke-width="3.2"/>
<circle clip-path="url(#clip862)" cx="1510.13" cy="1283.42" r="14.4" fill="#e26f46" fill-rule="evenodd" fill-opacity="1" stroke="#000000" stroke-opacity="1" stroke-width="3.2"/>
<circle clip-path="url(#clip862)" cx="1559.21" cy="1288.12" r="14.4" fill="#e26f46" fill-rule="evenodd" fill-opacity="1" stroke="#000000" stroke-opacity="1" stroke-width="3.2"/>
<circle clip-path="url(#clip862)" cx="1608.28" cy="1292.11" r="14.4" fill="#e26f46" fill-rule="evenodd" fill-opacity="1" stroke="#000000" stroke-opacity="1" stroke-width="3.2"/>
<circle clip-path="url(#clip862)" cx="1657.36" cy="1295.5" r="14.4" fill="#e26f46" fill-rule="evenodd" fill-opacity="1" stroke="#000000" stroke-opacity="1" stroke-width="3.2"/>
<circle clip-path="url(#clip862)" cx="1706.43" cy="1298.38" r="14.4" fill="#e26f46" fill-rule="evenodd" fill-opacity="1" stroke="#000000" stroke-opacity="1" stroke-width="3.2"/>
<circle clip-path="url(#clip862)" cx="1755.51" cy="1300.83" r="14.4" fill="#e26f46" fill-rule="evenodd" fill-opacity="1" stroke="#000000" stroke-opacity="1" stroke-width="3.2"/>
<circle clip-path="url(#clip862)" cx="1804.58" cy="1302.92" r="14.4" fill="#e26f46" fill-rule="evenodd" fill-opacity="1" stroke="#000000" stroke-opacity="1" stroke-width="3.2"/>
<circle clip-path="url(#clip862)" cx="1853.66" cy="1304.69" r="14.4" fill="#e26f46" fill-rule="evenodd" fill-opacity="1" stroke="#000000" stroke-opacity="1" stroke-width="3.2"/>
<circle clip-path="url(#clip862)" cx="1902.73" cy="1306.2" r="14.4" fill="#e26f46" fill-rule="evenodd" fill-opacity="1" stroke="#000000" stroke-opacity="1" stroke-width="3.2"/>
<circle clip-path="url(#clip862)" cx="1951.81" cy="1307.49" r="14.4" fill="#e26f46" fill-rule="evenodd" fill-opacity="1" stroke="#000000" stroke-opacity="1" stroke-width="3.2"/>
<circle clip-path="url(#clip862)" cx="2000.89" cy="1308.6" r="14.4" fill="#e26f46" fill-rule="evenodd" fill-opacity="1" stroke="#000000" stroke-opacity="1" stroke-width="3.2"/>
<circle clip-path="url(#clip862)" cx="2049.96" cy="1309.56" r="14.4" fill="#e26f46" fill-rule="evenodd" fill-opacity="1" stroke="#000000" stroke-opacity="1" stroke-width="3.2"/>
<circle clip-path="url(#clip862)" cx="2099.04" cy="1310.39" r="14.4" fill="#e26f46" fill-rule="evenodd" fill-opacity="1" stroke="#000000" stroke-opacity="1" stroke-width="3.2"/>
<circle clip-path="url(#clip862)" cx="2148.11" cy="1311.12" r="14.4" fill="#e26f46" fill-rule="evenodd" fill-opacity="1" stroke="#000000" stroke-opacity="1" stroke-width="3.2"/>
<circle clip-path="url(#clip862)" cx="2197.19" cy="1311.77" r="14.4" fill="#e26f46" fill-rule="evenodd" fill-opacity="1" stroke="#000000" stroke-opacity="1" stroke-width="3.2"/>
<circle clip-path="url(#clip862)" cx="2246.26" cy="1312.35" r="14.4" fill="#e26f46" fill-rule="evenodd" fill-opacity="1" stroke="#000000" stroke-opacity="1" stroke-width="3.2"/>
<circle clip-path="url(#clip862)" cx="2295.34" cy="1312.88" r="14.4" fill="#e26f46" fill-rule="evenodd" fill-opacity="1" stroke="#000000" stroke-opacity="1" stroke-width="3.2"/>
<path clip-path="url(#clip860)" d="M1623.44 440.581 L2285.13 440.581 L2285.13 90.6606 L1623.44 90.6606  Z" fill="#ffffff" fill-rule="evenodd" fill-opacity="1"/>
<polyline clip-path="url(#clip860)" style="stroke:#000000; stroke-linecap:round; stroke-linejoin:round; stroke-width:4; stroke-opacity:1; fill:none" points="1623.44,440.581 2285.13,440.581 2285.13,90.6606 1623.44,90.6606 1623.44,440.581 "/>
<polyline clip-path="url(#clip860)" style="stroke:#009af9; stroke-linecap:round; stroke-linejoin:round; stroke-width:18; stroke-opacity:1; fill:none" points="1645.98,207.301 1781.23,207.301 "/>
<circle clip-path="url(#clip860)" cx="1713.6" cy="207.301" r="8.34887" fill="#009af9" fill-rule="evenodd" fill-opacity="1" stroke="#000000" stroke-opacity="1" stroke-width="7.42122"/>
<path clip-path="url(#clip860)" d="M1829.87 237.641 L1831.25 246.075 Q1827.22 246.923 1824.03 246.923 Q1818.84 246.923 1815.97 245.279 Q1813.11 243.635 1811.94 240.982 Q1810.77 238.277 1810.77 229.684 L1810.77 197.276 L1803.77 197.276 L1803.77 189.85 L1810.77 189.85 L1810.77 175.9 L1820.27 170.171 L1820.27 189.85 L1829.87 189.85 L1829.87 197.276 L1820.27 197.276 L1820.27 230.215 Q1820.27 234.299 1820.75 235.466 Q1821.28 236.633 1822.39 237.323 Q1823.56 238.012 1825.68 238.012 Q1827.27 238.012 1829.87 237.641 Z" fill="#000000" fill-rule="nonzero" fill-opacity="1" /><path clip-path="url(#clip860)" d="M1839.1 246.181 L1839.1 189.85 L1847.69 189.85 L1847.69 198.39 Q1850.98 192.396 1853.74 190.486 Q1856.55 188.577 1859.89 188.577 Q1864.72 188.577 1869.7 191.653 L1866.42 200.511 Q1862.91 198.443 1859.41 198.443 Q1856.28 198.443 1853.79 200.352 Q1851.3 202.209 1850.24 205.55 Q1848.65 210.642 1848.65 216.689 L1848.65 246.181 L1839.1 246.181 Z" fill="#000000" fill-rule="nonzero" fill-opacity="1" /><path clip-path="url(#clip860)" d="M1912.14 239.232 Q1906.83 243.741 1901.9 245.597 Q1897.02 247.454 1891.4 247.454 Q1882.12 247.454 1877.13 242.945 Q1872.14 238.383 1872.14 231.329 Q1872.14 227.191 1874 223.797 Q1875.91 220.349 1878.93 218.28 Q1882.01 216.212 1885.83 215.151 Q1888.64 214.408 1894.32 213.719 Q1905.88 212.34 1911.34 210.43 Q1911.4 208.468 1911.4 207.937 Q1911.4 202.102 1908.69 199.716 Q1905.03 196.48 1897.82 196.48 Q1891.08 196.48 1887.84 198.867 Q1884.66 201.201 1883.12 207.195 L1873.79 205.922 Q1875.06 199.928 1877.98 196.268 Q1880.9 192.555 1886.41 190.592 Q1891.93 188.577 1899.2 188.577 Q1906.41 188.577 1910.92 190.274 Q1915.43 191.971 1917.55 194.57 Q1919.67 197.116 1920.52 201.042 Q1921 203.482 1921 209.847 L1921 222.577 Q1921 235.89 1921.58 239.444 Q1922.22 242.945 1924.02 246.181 L1914.05 246.181 Q1912.56 243.21 1912.14 239.232 M1911.34 217.909 Q1906.14 220.031 1895.75 221.516 Q1889.86 222.365 1887.42 223.425 Q1884.98 224.486 1883.65 226.555 Q1882.33 228.571 1882.33 231.064 Q1882.33 234.883 1885.19 237.429 Q1888.11 239.975 1893.68 239.975 Q1899.2 239.975 1903.49 237.588 Q1907.79 235.148 1909.8 230.957 Q1911.34 227.722 1911.34 221.41 L1911.34 217.909 Z" fill="#000000" fill-rule="nonzero" fill-opacity="1" /><path clip-path="url(#clip860)" d="M1935.85 179.4 L1935.85 168.421 L1945.4 168.421 L1945.4 179.4 L1935.85 179.4 M1935.85 246.181 L1935.85 189.85 L1945.4 189.85 L1945.4 246.181 L1935.85 246.181 Z" fill="#000000" fill-rule="nonzero" fill-opacity="1" /><path clip-path="url(#clip860)" d="M1959.93 246.181 L1959.93 189.85 L1968.52 189.85 L1968.52 197.859 Q1974.73 188.577 1986.45 188.577 Q1991.54 188.577 1995.79 190.433 Q2000.08 192.237 2002.2 195.207 Q2004.33 198.177 2005.17 202.262 Q2005.7 204.914 2005.7 211.544 L2005.7 246.181 L1996.16 246.181 L1996.16 211.915 Q1996.16 206.081 1995.04 203.216 Q1993.93 200.299 1991.06 198.602 Q1988.25 196.851 1984.43 196.851 Q1978.33 196.851 1973.88 200.723 Q1969.48 204.595 1969.48 215.416 L1969.48 246.181 L1959.93 246.181 Z" fill="#000000" fill-rule="nonzero" fill-opacity="1" /><path clip-path="url(#clip860)" d="M2011.54 267.769 L2011.54 260.873 L2074.82 260.873 L2074.82 267.769 L2011.54 267.769 Z" fill="#000000" fill-rule="nonzero" fill-opacity="1" /><path clip-path="url(#clip860)" d="M2080.55 246.181 L2080.55 168.421 L2090.09 168.421 L2090.09 246.181 L2080.55 246.181 Z" fill="#000000" fill-rule="nonzero" fill-opacity="1" /><path clip-path="url(#clip860)" d="M2101.34 218.015 Q2101.34 202.368 2110.04 194.836 Q2117.31 188.577 2127.75 188.577 Q2139.37 188.577 2146.74 196.215 Q2154.12 203.8 2154.12 217.22 Q2154.12 228.093 2150.83 234.352 Q2147.59 240.558 2141.33 244.006 Q2135.13 247.454 2127.75 247.454 Q2115.93 247.454 2108.61 239.869 Q2101.34 232.284 2101.34 218.015 M2111.15 218.015 Q2111.15 228.836 2115.87 234.246 Q2120.59 239.603 2127.75 239.603 Q2134.86 239.603 2139.58 234.193 Q2144.3 228.783 2144.3 217.697 Q2144.3 207.248 2139.53 201.89 Q2134.81 196.48 2127.75 196.48 Q2120.59 196.48 2115.87 201.837 Q2111.15 207.195 2111.15 218.015 Z" fill="#000000" fill-rule="nonzero" fill-opacity="1" /><path clip-path="url(#clip860)" d="M2161.49 229.366 L2170.93 227.881 Q2171.73 233.557 2175.33 236.58 Q2178.99 239.603 2185.52 239.603 Q2192.09 239.603 2195.28 236.951 Q2198.46 234.246 2198.46 230.639 Q2198.46 227.404 2195.65 225.547 Q2193.69 224.274 2185.89 222.312 Q2175.39 219.659 2171.3 217.75 Q2167.27 215.787 2165.15 212.393 Q2163.08 208.945 2163.08 204.808 Q2163.08 201.042 2164.78 197.859 Q2166.53 194.624 2169.5 192.502 Q2171.73 190.858 2175.55 189.744 Q2179.42 188.577 2183.82 188.577 Q2190.45 188.577 2195.44 190.486 Q2200.48 192.396 2202.86 195.684 Q2205.25 198.92 2206.15 204.383 L2196.82 205.656 Q2196.18 201.307 2193.1 198.867 Q2190.08 196.427 2184.51 196.427 Q2177.93 196.427 2175.12 198.602 Q2172.31 200.776 2172.31 203.694 Q2172.31 205.55 2173.48 207.035 Q2174.64 208.574 2177.14 209.581 Q2178.57 210.112 2185.57 212.021 Q2195.7 214.727 2199.68 216.477 Q2203.71 218.174 2205.99 221.463 Q2208.27 224.752 2208.27 229.631 Q2208.27 234.405 2205.46 238.649 Q2202.7 242.839 2197.45 245.173 Q2192.2 247.454 2185.57 247.454 Q2174.59 247.454 2168.81 242.892 Q2163.08 238.33 2161.49 229.366 Z" fill="#000000" fill-rule="nonzero" fill-opacity="1" /><path clip-path="url(#clip860)" d="M2215.8 229.366 L2225.25 227.881 Q2226.04 233.557 2229.65 236.58 Q2233.31 239.603 2239.83 239.603 Q2246.41 239.603 2249.59 236.951 Q2252.78 234.246 2252.78 230.639 Q2252.78 227.404 2249.96 225.547 Q2248 224.274 2240.2 222.312 Q2229.7 219.659 2225.62 217.75 Q2221.59 215.787 2219.46 212.393 Q2217.4 208.945 2217.4 204.808 Q2217.4 201.042 2219.09 197.859 Q2220.84 194.624 2223.81 192.502 Q2226.04 190.858 2229.86 189.744 Q2233.73 188.577 2238.14 188.577 Q2244.77 188.577 2249.75 190.486 Q2254.79 192.396 2257.18 195.684 Q2259.56 198.92 2260.47 204.383 L2251.13 205.656 Q2250.49 201.307 2247.42 198.867 Q2244.39 196.427 2238.83 196.427 Q2232.25 196.427 2229.44 198.602 Q2226.63 200.776 2226.63 203.694 Q2226.63 205.55 2227.79 207.035 Q2228.96 208.574 2231.45 209.581 Q2232.88 210.112 2239.89 212.021 Q2250.02 214.727 2254 216.477 Q2258.03 218.174 2260.31 221.463 Q2262.59 224.752 2262.59 229.631 Q2262.59 234.405 2259.78 238.649 Q2257.02 242.839 2251.77 245.173 Q2246.52 247.454 2239.89 247.454 Q2228.91 247.454 2223.12 242.892 Q2217.4 238.33 2215.8 229.366 Z" fill="#000000" fill-rule="nonzero" fill-opacity="1" /><polyline clip-path="url(#clip860)" style="stroke:#e26f46; stroke-linecap:round; stroke-linejoin:round; stroke-width:18; stroke-opacity:1; fill:none" points="1645.98,323.941 1781.23,323.941 "/>
<circle clip-path="url(#clip860)" cx="1713.6" cy="323.941" r="8.34887" fill="#e26f46" fill-rule="evenodd" fill-opacity="1" stroke="#000000" stroke-opacity="1" stroke-width="7.42122"/>
<path clip-path="url(#clip860)" d="M1825.2 362.821 L1803.77 306.49 L1813.85 306.49 L1825.94 340.225 Q1827.91 345.688 1829.55 351.576 Q1830.82 347.12 1833.1 340.861 L1845.62 306.49 L1855.44 306.49 L1834.11 362.821 L1825.2 362.821 Z" fill="#000000" fill-rule="nonzero" fill-opacity="1" /><path clip-path="url(#clip860)" d="M1900.63 355.872 Q1895.32 360.381 1890.39 362.237 Q1885.51 364.094 1879.89 364.094 Q1870.61 364.094 1865.62 359.585 Q1860.63 355.023 1860.63 347.969 Q1860.63 343.831 1862.49 340.437 Q1864.4 336.989 1867.42 334.92 Q1870.5 332.852 1874.32 331.791 Q1877.13 331.048 1882.81 330.359 Q1894.37 328.98 1899.83 327.07 Q1899.88 325.108 1899.88 324.577 Q1899.88 318.742 1897.18 316.356 Q1893.52 313.12 1886.31 313.12 Q1879.57 313.12 1876.33 315.507 Q1873.15 317.841 1871.61 323.835 L1862.28 322.562 Q1863.55 316.568 1866.47 312.908 Q1869.39 309.195 1874.9 307.232 Q1880.42 305.217 1887.69 305.217 Q1894.9 305.217 1899.41 306.914 Q1903.92 308.611 1906.04 311.21 Q1908.16 313.756 1909.01 317.682 Q1909.49 320.122 1909.49 326.487 L1909.49 339.217 Q1909.49 352.53 1910.07 356.084 Q1910.71 359.585 1912.51 362.821 L1902.54 362.821 Q1901.05 359.85 1900.63 355.872 M1899.83 334.549 Q1894.63 336.671 1884.24 338.156 Q1878.35 339.005 1875.91 340.065 Q1873.47 341.126 1872.14 343.195 Q1870.82 345.211 1870.82 347.704 Q1870.82 351.523 1873.68 354.069 Q1876.6 356.615 1882.17 356.615 Q1887.69 356.615 1891.98 354.228 Q1896.28 351.788 1898.29 347.597 Q1899.83 344.362 1899.83 338.05 L1899.83 334.549 Z" fill="#000000" fill-rule="nonzero" fill-opacity="1" /><path clip-path="url(#clip860)" d="M1924.07 362.821 L1924.07 285.061 L1933.62 285.061 L1933.62 362.821 L1924.07 362.821 Z" fill="#000000" fill-rule="nonzero" fill-opacity="1" /><path clip-path="url(#clip860)" d="M1939.61 384.409 L1939.61 377.513 L2002.89 377.513 L2002.89 384.409 L1939.61 384.409 Z" fill="#000000" fill-rule="nonzero" fill-opacity="1" /><path clip-path="url(#clip860)" d="M2008.62 362.821 L2008.62 285.061 L2018.17 285.061 L2018.17 362.821 L2008.62 362.821 Z" fill="#000000" fill-rule="nonzero" fill-opacity="1" /><path clip-path="url(#clip860)" d="M2029.41 334.655 Q2029.41 319.008 2038.11 311.476 Q2045.38 305.217 2055.83 305.217 Q2067.45 305.217 2074.82 312.855 Q2082.19 320.44 2082.19 333.86 Q2082.19 344.733 2078.9 350.992 Q2075.67 357.198 2069.41 360.646 Q2063.2 364.094 2055.83 364.094 Q2044 364.094 2036.68 356.509 Q2029.41 348.924 2029.41 334.655 M2039.23 334.655 Q2039.23 345.476 2043.95 350.886 Q2048.67 356.243 2055.83 356.243 Q2062.94 356.243 2067.66 350.833 Q2072.38 345.423 2072.38 334.337 Q2072.38 323.888 2067.6 318.53 Q2062.88 313.12 2055.83 313.12 Q2048.67 313.12 2043.95 318.477 Q2039.23 323.835 2039.23 334.655 Z" fill="#000000" fill-rule="nonzero" fill-opacity="1" /><path clip-path="url(#clip860)" d="M2089.56 346.006 L2099.01 344.521 Q2099.8 350.197 2103.41 353.22 Q2107.07 356.243 2113.59 356.243 Q2120.17 356.243 2123.35 353.591 Q2126.53 350.886 2126.53 347.279 Q2126.53 344.044 2123.72 342.187 Q2121.76 340.914 2113.96 338.952 Q2103.46 336.299 2099.38 334.39 Q2095.35 332.427 2093.22 329.033 Q2091.16 325.585 2091.16 321.448 Q2091.16 317.682 2092.85 314.499 Q2094.6 311.264 2097.57 309.142 Q2099.8 307.498 2103.62 306.384 Q2107.49 305.217 2111.89 305.217 Q2118.53 305.217 2123.51 307.126 Q2128.55 309.036 2130.94 312.324 Q2133.32 315.56 2134.23 321.023 L2124.89 322.296 Q2124.25 317.947 2121.18 315.507 Q2118.15 313.067 2112.58 313.067 Q2106.01 313.067 2103.2 315.242 Q2100.38 317.416 2100.38 320.334 Q2100.38 322.19 2101.55 323.675 Q2102.72 325.214 2105.21 326.221 Q2106.64 326.752 2113.65 328.661 Q2123.78 331.367 2127.75 333.117 Q2131.79 334.814 2134.07 338.103 Q2136.35 341.392 2136.35 346.271 Q2136.35 351.045 2133.54 355.289 Q2130.78 359.479 2125.53 361.813 Q2120.28 364.094 2113.65 364.094 Q2102.67 364.094 2096.88 359.532 Q2091.16 354.97 2089.56 346.006 Z" fill="#000000" fill-rule="nonzero" fill-opacity="1" /><path clip-path="url(#clip860)" d="M2143.88 346.006 L2153.32 344.521 Q2154.12 350.197 2157.72 353.22 Q2161.38 356.243 2167.91 356.243 Q2174.48 356.243 2177.67 353.591 Q2180.85 350.886 2180.85 347.279 Q2180.85 344.044 2178.04 342.187 Q2176.08 340.914 2168.28 338.952 Q2157.78 336.299 2153.69 334.39 Q2149.66 332.427 2147.54 329.033 Q2145.47 325.585 2145.47 321.448 Q2145.47 317.682 2147.17 314.499 Q2148.92 311.264 2151.89 309.142 Q2154.12 307.498 2157.94 306.384 Q2161.81 305.217 2166.21 305.217 Q2172.84 305.217 2177.83 307.126 Q2182.87 309.036 2185.25 312.324 Q2187.64 315.56 2188.54 321.023 L2179.21 322.296 Q2178.57 317.947 2175.49 315.507 Q2172.47 313.067 2166.9 313.067 Q2160.32 313.067 2157.51 315.242 Q2154.7 317.416 2154.7 320.334 Q2154.7 322.19 2155.87 323.675 Q2157.03 325.214 2159.53 326.221 Q2160.96 326.752 2167.96 328.661 Q2178.09 331.367 2182.07 333.117 Q2186.1 334.814 2188.38 338.103 Q2190.66 341.392 2190.66 346.271 Q2190.66 351.045 2187.85 355.289 Q2185.09 359.479 2179.84 361.813 Q2174.59 364.094 2167.96 364.094 Q2156.98 364.094 2151.2 359.532 Q2145.47 354.97 2143.88 346.006 Z" fill="#000000" fill-rule="nonzero" fill-opacity="1" /></svg>
