<?xml version="1.0" encoding="utf-8"?>
<svg xmlns="http://www.w3.org/2000/svg" xmlns:xlink="http://www.w3.org/1999/xlink" width="600" height="400" viewBox="0 0 2400 1600">
<defs>
  <clipPath id="clip250">
    <rect x="0" y="0" width="2400" height="1600"/>
  </clipPath>
</defs>
<path clip-path="url(#clip250)" d="M0 1600 L2400 1600 L2400 8.88178e-14 L0 8.88178e-14  Z" fill="#ffffff" fill-rule="evenodd" fill-opacity="1"/>
<defs>
  <clipPath id="clip251">
    <rect x="480" y="0" width="1681" height="1600"/>
  </clipPath>
</defs>
<path clip-path="url(#clip250)" d="M323.131 1349.74 L2352.76 1349.74 L2352.76 47.2441 L323.131 47.2441  Z" fill="#ffffff" fill-rule="evenodd" fill-opacity="1"/>
<defs>
  <clipPath id="clip252">
    <rect x="323" y="47" width="2031" height="1303"/>
  </clipPath>
</defs>
<polyline clip-path="url(#clip250)" style="stroke:#000000; stroke-linecap:round; stroke-linejoin:round; stroke-width:4; stroke-opacity:1; fill:none" points="323.131,1349.74 2352.76,1349.74 "/>
<polyline clip-path="url(#clip250)" style="stroke:#000000; stroke-linecap:round; stroke-linejoin:round; stroke-width:2; stroke-opacity:0.5; fill:none" points="323.131,47.2441 2352.76,47.2441 "/>
<polyline clip-path="url(#clip250)" style="stroke:#000000; stroke-linecap:round; stroke-linejoin:round; stroke-width:4; stroke-opacity:1; fill:none" points="791.506,1349.74 791.506,1330.84 "/>
<polyline clip-path="url(#clip250)" style="stroke:#000000; stroke-linecap:round; stroke-linejoin:round; stroke-width:4; stroke-opacity:1; fill:none" points="1311.92,1349.74 1311.92,1330.84 "/>
<polyline clip-path="url(#clip250)" style="stroke:#000000; stroke-linecap:round; stroke-linejoin:round; stroke-width:4; stroke-opacity:1; fill:none" points="1832.34,1349.74 1832.34,1330.84 "/>
<polyline clip-path="url(#clip250)" style="stroke:#000000; stroke-linecap:round; stroke-linejoin:round; stroke-width:4; stroke-opacity:1; fill:none" points="2352.76,1349.74 2352.76,1330.84 "/>
<path clip-path="url(#clip250)" d="M768.247 1466.14 L758.699 1466.14 L758.699 1405.3 Q755.251 1408.59 749.629 1411.88 Q744.06 1415.17 739.604 1416.81 L739.604 1407.58 Q747.613 1403.82 753.607 1398.46 Q759.601 1393.1 762.094 1388.06 L768.247 1388.06 L768.247 1466.14 Z" fill="#000000" fill-rule="nonzero" fill-opacity="1" /><path clip-path="url(#clip250)" d="M792.699 1427.79 Q792.699 1414 795.511 1405.62 Q798.375 1397.18 803.944 1392.62 Q809.567 1388.06 818.054 1388.06 Q824.313 1388.06 829.033 1390.61 Q833.754 1393.1 836.831 1397.87 Q839.907 1402.6 841.657 1409.44 Q843.408 1416.23 843.408 1427.79 Q843.408 1441.48 840.597 1449.91 Q837.785 1458.29 832.163 1462.9 Q826.593 1467.47 818.054 1467.47 Q806.809 1467.47 800.39 1459.4 Q792.699 1449.7 792.699 1427.79 M802.512 1427.79 Q802.512 1446.94 806.968 1453.3 Q811.476 1459.62 818.054 1459.62 Q824.631 1459.62 829.086 1453.25 Q833.595 1446.89 833.595 1427.79 Q833.595 1408.59 829.086 1402.28 Q824.631 1395.96 817.947 1395.96 Q811.37 1395.96 807.445 1401.53 Q802.512 1408.64 802.512 1427.79 Z" fill="#000000" fill-rule="nonzero" fill-opacity="1" /><path clip-path="url(#clip250)" d="M1307.2 1456.96 L1307.2 1466.14 L1255.8 1466.14 Q1255.7 1462.69 1256.92 1459.51 Q1258.88 1454.26 1263.18 1449.17 Q1267.53 1444.07 1275.69 1437.39 Q1288.37 1426.99 1292.83 1420.95 Q1297.28 1414.85 1297.28 1409.44 Q1297.28 1403.76 1293.2 1399.89 Q1289.17 1395.96 1282.64 1395.96 Q1275.75 1395.96 1271.61 1400.1 Q1267.47 1404.24 1267.42 1411.56 L1257.61 1410.55 Q1258.62 1399.57 1265.19 1393.84 Q1271.77 1388.06 1282.86 1388.06 Q1294.05 1388.06 1300.57 1394.27 Q1307.1 1400.47 1307.1 1409.65 Q1307.1 1414.32 1305.19 1418.83 Q1303.28 1423.33 1298.82 1428.32 Q1294.42 1433.31 1284.13 1442.01 Q1275.54 1449.22 1273.1 1451.82 Q1270.66 1454.36 1269.06 1456.96 L1307.2 1456.96 Z" fill="#000000" fill-rule="nonzero" fill-opacity="1" /><path clip-path="url(#clip250)" d="M1317.44 1427.79 Q1317.44 1414 1320.25 1405.62 Q1323.11 1397.18 1328.68 1392.62 Q1334.31 1388.06 1342.79 1388.06 Q1349.05 1388.06 1353.77 1390.61 Q1358.49 1393.1 1361.57 1397.87 Q1364.65 1402.6 1366.4 1409.44 Q1368.15 1416.23 1368.15 1427.79 Q1368.15 1441.48 1365.34 1449.91 Q1362.52 1458.29 1356.9 1462.9 Q1351.33 1467.47 1342.79 1467.47 Q1331.55 1467.47 1325.13 1459.4 Q1317.44 1449.7 1317.44 1427.79 M1327.25 1427.79 Q1327.25 1446.94 1331.71 1453.3 Q1336.22 1459.62 1342.79 1459.62 Q1349.37 1459.62 1353.83 1453.25 Q1358.33 1446.89 1358.33 1427.79 Q1358.33 1408.59 1353.83 1402.28 Q1349.37 1395.96 1342.69 1395.96 Q1336.11 1395.96 1332.18 1401.53 Q1327.25 1408.64 1327.25 1427.79 Z" fill="#000000" fill-rule="nonzero" fill-opacity="1" /><path clip-path="url(#clip250)" d="M1776.8 1445.61 L1786.35 1444.34 Q1788 1452.45 1791.92 1456.06 Q1795.9 1459.62 1801.57 1459.62 Q1808.31 1459.62 1812.93 1454.95 Q1817.59 1450.28 1817.59 1443.38 Q1817.59 1436.81 1813.3 1432.56 Q1809 1428.27 1802.37 1428.27 Q1799.67 1428.27 1795.63 1429.33 L1796.69 1420.95 Q1797.65 1421.05 1798.23 1421.05 Q1804.33 1421.05 1809.21 1417.87 Q1814.09 1414.69 1814.09 1408.06 Q1814.09 1402.81 1810.54 1399.36 Q1806.99 1395.91 1801.36 1395.91 Q1795.79 1395.91 1792.08 1399.41 Q1788.37 1402.91 1787.31 1409.92 L1777.76 1408.22 Q1779.51 1398.62 1785.72 1393.37 Q1791.92 1388.06 1801.15 1388.06 Q1807.52 1388.06 1812.87 1390.82 Q1818.23 1393.52 1821.04 1398.25 Q1823.91 1402.97 1823.91 1408.27 Q1823.91 1413.31 1821.2 1417.45 Q1818.5 1421.58 1813.19 1424.02 Q1820.09 1425.62 1823.91 1430.65 Q1827.72 1435.64 1827.72 1443.17 Q1827.72 1453.36 1820.3 1460.46 Q1812.87 1467.52 1801.52 1467.52 Q1791.28 1467.52 1784.5 1461.42 Q1777.76 1455.32 1776.8 1445.61 Z" fill="#000000" fill-rule="nonzero" fill-opacity="1" /><path clip-path="url(#clip250)" d="M1837.17 1427.79 Q1837.17 1414 1839.98 1405.62 Q1842.84 1397.18 1848.41 1392.62 Q1854.03 1388.06 1862.52 1388.06 Q1868.78 1388.06 1873.5 1390.61 Q1878.22 1393.1 1881.3 1397.87 Q1884.37 1402.6 1886.12 1409.44 Q1887.87 1416.23 1887.87 1427.79 Q1887.87 1441.48 1885.06 1449.91 Q1882.25 1458.29 1876.63 1462.9 Q1871.06 1467.47 1862.52 1467.47 Q1851.28 1467.47 1844.86 1459.4 Q1837.17 1449.7 1837.17 1427.79 M1846.98 1427.79 Q1846.98 1446.94 1851.43 1453.3 Q1855.94 1459.62 1862.52 1459.62 Q1869.1 1459.62 1873.55 1453.25 Q1878.06 1446.89 1878.06 1427.79 Q1878.06 1408.59 1873.55 1402.28 Q1869.1 1395.96 1862.41 1395.96 Q1855.84 1395.96 1851.91 1401.53 Q1846.98 1408.64 1846.98 1427.79 Z" fill="#000000" fill-rule="nonzero" fill-opacity="1" /><path clip-path="url(#clip250)" d="M2329.36 1466.14 L2329.36 1447.52 L2295.63 1447.52 L2295.63 1438.77 L2331.11 1388.38 L2338.91 1388.38 L2338.91 1438.77 L2349.41 1438.77 L2349.41 1447.52 L2338.91 1447.52 L2338.91 1466.14 L2329.36 1466.14 M2329.36 1438.77 L2329.36 1403.71 L2305.02 1438.77 L2329.36 1438.77 Z" fill="#000000" fill-rule="nonzero" fill-opacity="1" /><path clip-path="url(#clip250)" d="M2359.17 1427.79 Q2359.17 1414 2361.99 1405.62 Q2364.85 1397.18 2370.42 1392.62 Q2376.04 1388.06 2384.53 1388.06 Q2390.79 1388.06 2395.51 1390.61 Q2400.23 1393.1 2403.31 1397.87 Q2406.38 1402.6 2408.13 1409.44 Q2409.88 1416.23 2409.88 1427.79 Q2409.88 1441.48 2407.07 1449.91 Q2404.26 1458.29 2398.64 1462.9 Q2393.07 1467.47 2384.53 1467.47 Q2373.28 1467.47 2366.87 1459.4 Q2359.17 1449.7 2359.17 1427.79 M2368.99 1427.79 Q2368.99 1446.94 2373.44 1453.3 Q2377.95 1459.62 2384.53 1459.62 Q2391.11 1459.62 2395.56 1453.25 Q2400.07 1446.89 2400.07 1427.79 Q2400.07 1408.59 2395.56 1402.28 Q2391.11 1395.96 2384.42 1395.96 Q2377.84 1395.96 2373.92 1401.53 Q2368.99 1408.64 2368.99 1427.79 Z" fill="#000000" fill-rule="nonzero" fill-opacity="1" /><path clip-path="url(#clip250)" d="M1237.38 1577.55 L1247.24 1578.77 Q1244.91 1587.42 1238.6 1592.19 Q1232.28 1596.96 1222.47 1596.96 Q1210.11 1596.96 1202.84 1589.38 Q1195.63 1581.74 1195.63 1568 Q1195.63 1553.79 1202.95 1545.94 Q1210.27 1538.09 1221.94 1538.09 Q1233.24 1538.09 1240.4 1545.78 Q1247.56 1553.47 1247.56 1567.42 Q1247.56 1568.27 1247.51 1569.97 L1205.5 1569.97 Q1206.03 1579.25 1210.75 1584.18 Q1215.47 1589.11 1222.52 1589.11 Q1227.77 1589.11 1231.49 1586.36 Q1235.2 1583.6 1237.38 1577.55 M1206.03 1562.12 L1237.48 1562.12 Q1236.84 1555.01 1233.87 1551.45 Q1229.31 1545.94 1222.05 1545.94 Q1215.47 1545.94 1210.96 1550.34 Q1206.5 1554.74 1206.03 1562.12 Z" fill="#000000" fill-rule="nonzero" fill-opacity="1" /><path clip-path="url(#clip250)" d="M1259.23 1617.28 L1259.23 1539.36 L1267.93 1539.36 L1267.93 1546.68 Q1271 1542.38 1274.88 1540.26 Q1278.75 1538.09 1284.26 1538.09 Q1291.48 1538.09 1296.99 1541.8 Q1302.51 1545.51 1305.32 1552.3 Q1308.13 1559.04 1308.13 1567.1 Q1308.13 1575.75 1305 1582.7 Q1301.93 1589.59 1295.99 1593.3 Q1290.1 1596.96 1283.58 1596.96 Q1278.8 1596.96 1274.98 1594.95 Q1271.22 1592.93 1268.78 1589.86 L1268.78 1617.28 L1259.23 1617.28 M1267.87 1567.84 Q1267.87 1578.72 1272.28 1583.92 Q1276.68 1589.11 1282.94 1589.11 Q1289.3 1589.11 1293.81 1583.76 Q1298.37 1578.35 1298.37 1567.05 Q1298.37 1556.28 1293.92 1550.92 Q1289.52 1545.57 1283.36 1545.57 Q1277.26 1545.57 1272.54 1551.3 Q1267.87 1556.97 1267.87 1567.84 Z" fill="#000000" fill-rule="nonzero" fill-opacity="1" /><path clip-path="url(#clip250)" d="M1316.09 1567.53 Q1316.09 1551.88 1324.79 1544.35 Q1332.06 1538.09 1342.51 1538.09 Q1354.12 1538.09 1361.49 1545.73 Q1368.87 1553.31 1368.87 1566.73 Q1368.87 1577.6 1365.58 1583.86 Q1362.34 1590.07 1356.08 1593.52 Q1349.88 1596.96 1342.51 1596.96 Q1330.68 1596.96 1323.36 1589.38 Q1316.09 1581.79 1316.09 1567.53 M1325.9 1567.53 Q1325.9 1578.35 1330.62 1583.76 Q1335.34 1589.11 1342.51 1589.11 Q1349.61 1589.11 1354.33 1583.7 Q1359.05 1578.29 1359.05 1567.21 Q1359.05 1556.76 1354.28 1551.4 Q1349.56 1545.99 1342.51 1545.99 Q1335.34 1545.99 1330.62 1551.35 Q1325.9 1556.71 1325.9 1567.53 Z" fill="#000000" fill-rule="nonzero" fill-opacity="1" /><path clip-path="url(#clip250)" d="M1416.82 1575.06 L1426.21 1576.28 Q1424.67 1585.99 1418.3 1591.5 Q1411.99 1596.96 1402.76 1596.96 Q1391.2 1596.96 1384.14 1589.43 Q1377.14 1581.85 1377.14 1567.74 Q1377.14 1558.62 1380.17 1551.77 Q1383.19 1544.93 1389.34 1541.54 Q1395.55 1538.09 1402.81 1538.09 Q1411.99 1538.09 1417.83 1542.76 Q1423.66 1547.37 1425.3 1555.91 L1416.02 1557.34 Q1414.7 1551.67 1411.3 1548.8 Q1407.96 1545.94 1403.19 1545.94 Q1395.97 1545.94 1391.46 1551.14 Q1386.95 1556.28 1386.95 1567.47 Q1386.95 1578.82 1391.3 1583.97 Q1395.65 1589.11 1402.65 1589.11 Q1408.28 1589.11 1412.04 1585.67 Q1415.81 1582.22 1416.82 1575.06 Z" fill="#000000" fill-rule="nonzero" fill-opacity="1" /><path clip-path="url(#clip250)" d="M1434.37 1595.69 L1434.37 1517.93 L1443.92 1517.93 L1443.92 1545.83 Q1450.61 1538.09 1460.79 1538.09 Q1467.05 1538.09 1471.66 1540.58 Q1476.28 1543.02 1478.24 1547.37 Q1480.26 1551.72 1480.26 1559.99 L1480.26 1595.69 L1470.71 1595.69 L1470.71 1559.99 Q1470.71 1552.83 1467.58 1549.6 Q1464.5 1546.31 1458.83 1546.31 Q1454.58 1546.31 1450.82 1548.54 Q1447.1 1550.71 1445.51 1554.48 Q1443.92 1558.24 1443.92 1564.87 L1443.92 1595.69 L1434.37 1595.69 Z" fill="#000000" fill-rule="nonzero" fill-opacity="1" /><polyline clip-path="url(#clip250)" style="stroke:#000000; stroke-linecap:round; stroke-linejoin:round; stroke-width:4; stroke-opacity:1; fill:none" points="323.131,1349.74 323.131,47.2441 "/>
<polyline clip-path="url(#clip250)" style="stroke:#000000; stroke-linecap:round; stroke-linejoin:round; stroke-width:2; stroke-opacity:0.5; fill:none" points="2352.76,1349.74 2352.76,47.2441 "/>
<polyline clip-path="url(#clip250)" style="stroke:#000000; stroke-linecap:round; stroke-linejoin:round; stroke-width:4; stroke-opacity:1; fill:none" points="323.131,1233.78 342.029,1233.78 "/>
<polyline clip-path="url(#clip250)" style="stroke:#000000; stroke-linecap:round; stroke-linejoin:round; stroke-width:4; stroke-opacity:1; fill:none" points="323.131,1044.4 342.029,1044.4 "/>
<polyline clip-path="url(#clip250)" style="stroke:#000000; stroke-linecap:round; stroke-linejoin:round; stroke-width:4; stroke-opacity:1; fill:none" points="323.131,855.021 342.029,855.021 "/>
<polyline clip-path="url(#clip250)" style="stroke:#000000; stroke-linecap:round; stroke-linejoin:round; stroke-width:4; stroke-opacity:1; fill:none" points="323.131,665.644 342.029,665.644 "/>
<polyline clip-path="url(#clip250)" style="stroke:#000000; stroke-linecap:round; stroke-linejoin:round; stroke-width:4; stroke-opacity:1; fill:none" points="323.131,476.266 342.029,476.266 "/>
<polyline clip-path="url(#clip250)" style="stroke:#000000; stroke-linecap:round; stroke-linejoin:round; stroke-width:4; stroke-opacity:1; fill:none" points="323.131,286.889 342.029,286.889 "/>
<polyline clip-path="url(#clip250)" style="stroke:#000000; stroke-linecap:round; stroke-linejoin:round; stroke-width:4; stroke-opacity:1; fill:none" points="323.131,97.5116 342.029,97.5116 "/>
<path clip-path="url(#clip250)" d="M181.789 1272.66 L172.241 1272.66 L172.241 1211.82 Q168.794 1215.1 163.171 1218.39 Q157.602 1221.68 153.146 1223.33 L153.146 1214.1 Q161.155 1210.33 167.149 1204.97 Q173.143 1199.62 175.636 1194.58 L181.789 1194.58 L181.789 1272.66 Z" fill="#000000" fill-rule="nonzero" fill-opacity="1" /><path clip-path="url(#clip250)" d="M211.599 1272.66 L211.599 1261.78 L222.472 1261.78 L222.472 1272.66 L211.599 1272.66 Z" fill="#000000" fill-rule="nonzero" fill-opacity="1" /><path clip-path="url(#clip250)" d="M236.422 1234.31 Q236.422 1220.51 239.234 1212.13 Q242.098 1203.7 247.667 1199.14 Q253.29 1194.58 261.777 1194.58 Q268.036 1194.58 272.756 1197.12 Q277.477 1199.62 280.554 1204.39 Q283.63 1209.11 285.38 1215.95 Q287.131 1222.74 287.131 1234.31 Q287.131 1247.99 284.32 1256.42 Q281.508 1264.81 275.886 1269.42 Q270.316 1273.98 261.777 1273.98 Q250.532 1273.98 244.114 1265.92 Q236.422 1256.21 236.422 1234.31 M246.235 1234.31 Q246.235 1253.45 250.691 1259.82 Q255.199 1266.13 261.777 1266.13 Q268.354 1266.13 272.809 1259.77 Q277.318 1253.4 277.318 1234.31 Q277.318 1215.1 272.809 1208.79 Q268.354 1202.48 261.671 1202.48 Q255.093 1202.48 251.168 1208.05 Q246.235 1215.16 246.235 1234.31 Z" fill="#000000" fill-rule="nonzero" fill-opacity="1" /><path clip-path="url(#clip250)" d="M182.319 1083.28 L172.772 1083.28 L172.772 1022.44 Q169.324 1025.73 163.701 1029.02 Q158.132 1032.3 153.676 1033.95 L153.676 1024.72 Q161.686 1020.95 167.68 1015.6 Q173.673 1010.24 176.166 1005.2 L182.319 1005.2 L182.319 1083.28 Z" fill="#000000" fill-rule="nonzero" fill-opacity="1" /><path clip-path="url(#clip250)" d="M212.129 1083.28 L212.129 1072.4 L223.003 1072.4 L223.003 1083.28 L212.129 1083.28 Z" fill="#000000" fill-rule="nonzero" fill-opacity="1" /><path clip-path="url(#clip250)" d="M287.131 1074.1 L287.131 1083.28 L235.733 1083.28 Q235.627 1079.83 236.847 1076.65 Q238.809 1071.4 243.106 1066.3 Q247.455 1061.21 255.624 1054.53 Q268.301 1044.13 272.756 1038.09 Q277.212 1031.99 277.212 1026.58 Q277.212 1020.9 273.128 1017.03 Q269.097 1013.1 262.572 1013.1 Q255.677 1013.1 251.54 1017.24 Q247.402 1021.38 247.349 1028.7 L237.536 1027.69 Q238.544 1016.71 245.121 1010.98 Q251.699 1005.2 262.784 1005.2 Q273.976 1005.2 280.501 1011.41 Q287.025 1017.61 287.025 1026.79 Q287.025 1031.46 285.115 1035.96 Q283.206 1040.47 278.75 1045.46 Q274.348 1050.44 264.057 1059.14 Q255.465 1066.36 253.025 1068.96 Q250.585 1071.5 248.993 1074.1 L287.131 1074.1 Z" fill="#000000" fill-rule="nonzero" fill-opacity="1" /><path clip-path="url(#clip250)" d="M181.842 893.901 L172.294 893.901 L172.294 833.061 Q168.847 836.35 163.224 839.639 Q157.655 842.927 153.199 844.572 L153.199 835.342 Q161.208 831.576 167.202 826.219 Q173.196 820.862 175.689 815.823 L181.842 815.823 L181.842 893.901 Z" fill="#000000" fill-rule="nonzero" fill-opacity="1" /><path clip-path="url(#clip250)" d="M211.652 893.901 L211.652 883.027 L222.525 883.027 L222.525 893.901 L211.652 893.901 Z" fill="#000000" fill-rule="nonzero" fill-opacity="1" /><path clip-path="url(#clip250)" d="M267.081 893.901 L267.081 875.283 L233.346 875.283 L233.346 866.531 L268.831 816.141 L276.629 816.141 L276.629 866.531 L287.131 866.531 L287.131 875.283 L276.629 875.283 L276.629 893.901 L267.081 893.901 M267.081 866.531 L267.081 831.47 L242.734 866.531 L267.081 866.531 Z" fill="#000000" fill-rule="nonzero" fill-opacity="1" /><path clip-path="url(#clip250)" d="M181.577 704.524 L172.029 704.524 L172.029 643.684 Q168.581 646.973 162.959 650.261 Q157.389 653.55 152.934 655.194 L152.934 645.965 Q160.943 642.199 166.937 636.842 Q172.931 631.484 175.424 626.445 L181.577 626.445 L181.577 704.524 Z" fill="#000000" fill-rule="nonzero" fill-opacity="1" /><path clip-path="url(#clip250)" d="M211.386 704.524 L211.386 693.65 L222.26 693.65 L222.26 704.524 L211.386 704.524 Z" fill="#000000" fill-rule="nonzero" fill-opacity="1" /><path clip-path="url(#clip250)" d="M285.752 645.806 L276.257 646.548 Q274.984 640.926 272.65 638.38 Q268.778 634.296 263.103 634.296 Q258.541 634.296 255.093 636.842 Q250.585 640.13 247.986 646.442 Q245.387 652.754 245.281 664.424 Q248.728 659.172 253.714 656.626 Q258.7 654.08 264.164 654.08 Q273.711 654.08 280.395 661.135 Q287.131 668.137 287.131 679.275 Q287.131 686.595 283.948 692.907 Q280.819 699.166 275.302 702.508 Q269.786 705.85 262.784 705.85 Q250.85 705.85 243.318 697.098 Q235.786 688.293 235.786 668.137 Q235.786 645.594 244.114 635.356 Q251.38 626.445 263.686 626.445 Q272.863 626.445 278.697 631.59 Q284.585 636.735 285.752 645.806 M246.766 679.328 Q246.766 684.261 248.834 688.77 Q250.956 693.279 254.722 695.665 Q258.488 697.999 262.625 697.999 Q268.672 697.999 273.022 693.119 Q277.371 688.24 277.371 679.859 Q277.371 671.796 273.075 667.182 Q268.778 662.514 262.254 662.514 Q255.783 662.514 251.274 667.182 Q246.766 671.796 246.766 679.328 Z" fill="#000000" fill-rule="nonzero" fill-opacity="1" /><path clip-path="url(#clip250)" d="M181.365 515.146 L171.817 515.146 L171.817 454.307 Q168.369 457.595 162.747 460.884 Q157.177 464.173 152.722 465.817 L152.722 456.588 Q160.731 452.822 166.725 447.464 Q172.719 442.107 175.212 437.068 L181.365 437.068 L181.365 515.146 Z" fill="#000000" fill-rule="nonzero" fill-opacity="1" /><path clip-path="url(#clip250)" d="M211.174 515.146 L211.174 504.273 L222.048 504.273 L222.048 515.146 L211.174 515.146 Z" fill="#000000" fill-rule="nonzero" fill-opacity="1" /><path clip-path="url(#clip250)" d="M250.691 472.978 Q244.75 470.803 241.886 466.772 Q239.022 462.74 239.022 457.118 Q239.022 448.631 245.121 442.85 Q251.221 437.068 261.352 437.068 Q271.536 437.068 277.742 443.009 Q283.948 448.896 283.948 457.383 Q283.948 462.793 281.084 466.825 Q278.273 470.803 272.491 472.978 Q279.652 475.311 283.365 480.51 Q287.131 485.708 287.131 492.921 Q287.131 502.893 280.076 509.683 Q273.022 516.472 261.511 516.472 Q250.001 516.472 242.947 509.683 Q235.892 502.84 235.892 492.656 Q235.892 485.071 239.711 479.979 Q243.583 474.834 250.691 472.978 M248.781 456.8 Q248.781 462.316 252.335 465.817 Q255.889 469.318 261.564 469.318 Q267.081 469.318 270.582 465.87 Q274.136 462.369 274.136 457.33 Q274.136 452.079 270.476 448.525 Q266.869 444.918 261.458 444.918 Q255.995 444.918 252.388 448.419 Q248.781 451.92 248.781 456.8 M245.705 492.709 Q245.705 496.794 247.614 500.613 Q249.577 504.432 253.396 506.553 Q257.215 508.622 261.618 508.622 Q268.46 508.622 272.916 504.219 Q277.371 499.817 277.371 493.028 Q277.371 486.132 272.756 481.623 Q268.195 477.115 261.299 477.115 Q254.563 477.115 250.107 481.57 Q245.705 486.026 245.705 492.709 Z" fill="#000000" fill-rule="nonzero" fill-opacity="1" /><path clip-path="url(#clip250)" d="M196.004 316.593 L196.004 325.769 L144.606 325.769 Q144.5 322.321 145.72 319.139 Q147.683 313.887 151.979 308.795 Q156.329 303.703 164.497 297.02 Q177.174 286.624 181.63 280.577 Q186.085 274.477 186.085 269.067 Q186.085 263.391 182.001 259.519 Q177.97 255.594 171.446 255.594 Q164.55 255.594 160.413 259.731 Q156.276 263.869 156.223 271.188 L146.41 270.181 Q147.417 259.201 153.995 253.472 Q160.572 247.691 171.658 247.691 Q182.85 247.691 189.374 253.897 Q195.898 260.103 195.898 269.279 Q195.898 273.947 193.989 278.455 Q192.079 282.964 187.624 287.95 Q183.221 292.936 172.931 301.635 Q164.338 308.848 161.898 311.447 Q159.458 313.993 157.867 316.593 L196.004 316.593 Z" fill="#000000" fill-rule="nonzero" fill-opacity="1" /><path clip-path="url(#clip250)" d="M211.599 325.769 L211.599 314.895 L222.472 314.895 L222.472 325.769 L211.599 325.769 Z" fill="#000000" fill-rule="nonzero" fill-opacity="1" /><path clip-path="url(#clip250)" d="M236.422 287.419 Q236.422 273.628 239.234 265.248 Q242.098 256.814 247.667 252.252 Q253.29 247.691 261.777 247.691 Q268.036 247.691 272.756 250.237 Q277.477 252.73 280.554 257.503 Q283.63 262.224 285.38 269.067 Q287.131 275.856 287.131 287.419 Q287.131 301.104 284.32 309.538 Q281.508 317.919 275.886 322.533 Q270.316 327.095 261.777 327.095 Q250.532 327.095 244.114 319.033 Q236.422 309.326 236.422 287.419 M246.235 287.419 Q246.235 306.568 250.691 312.933 Q255.199 319.245 261.777 319.245 Q268.354 319.245 272.809 312.88 Q277.318 306.515 277.318 287.419 Q277.318 268.218 272.809 261.906 Q268.354 255.594 261.671 255.594 Q255.093 255.594 251.168 261.163 Q246.235 268.271 246.235 287.419 Z" fill="#000000" fill-rule="nonzero" fill-opacity="1" /><path clip-path="url(#clip250)" d="M196.535 127.215 L196.535 136.392 L145.137 136.392 Q145.031 132.944 146.251 129.761 Q148.213 124.51 152.51 119.418 Q156.859 114.326 165.028 107.643 Q177.705 97.2463 182.16 91.1995 Q186.616 85.0997 186.616 79.6893 Q186.616 74.0138 182.531 70.1417 Q178.5 66.2166 171.976 66.2166 Q165.081 66.2166 160.943 70.3539 Q156.806 74.4912 156.753 81.811 L146.94 80.8032 Q147.948 69.8235 154.525 64.0949 Q161.102 58.3133 172.188 58.3133 Q183.38 58.3133 189.904 64.5193 Q196.429 70.7252 196.429 79.9015 Q196.429 84.5692 194.519 89.0778 Q192.61 93.5864 188.154 98.5724 Q183.751 103.558 173.461 112.257 Q164.868 119.471 162.428 122.07 Q159.989 124.616 158.397 127.215 L196.535 127.215 Z" fill="#000000" fill-rule="nonzero" fill-opacity="1" /><path clip-path="url(#clip250)" d="M212.129 136.392 L212.129 125.518 L223.003 125.518 L223.003 136.392 L212.129 136.392 Z" fill="#000000" fill-rule="nonzero" fill-opacity="1" /><path clip-path="url(#clip250)" d="M287.131 127.215 L287.131 136.392 L235.733 136.392 Q235.627 132.944 236.847 129.761 Q238.809 124.51 243.106 119.418 Q247.455 114.326 255.624 107.643 Q268.301 97.2463 272.756 91.1995 Q277.212 85.0997 277.212 79.6893 Q277.212 74.0138 273.128 70.1417 Q269.097 66.2166 262.572 66.2166 Q255.677 66.2166 251.54 70.3539 Q247.402 74.4912 247.349 81.811 L237.536 80.8032 Q238.544 69.8235 245.121 64.0949 Q251.699 58.3133 262.784 58.3133 Q273.976 58.3133 280.501 64.5193 Q287.025 70.7252 287.025 79.9015 Q287.025 84.5692 285.115 89.0778 Q283.206 93.5864 278.75 98.5724 Q274.348 103.558 264.057 112.257 Q255.465 119.471 253.025 122.07 Q250.585 124.616 248.993 127.215 L287.131 127.215 Z" fill="#000000" fill-rule="nonzero" fill-opacity="1" /><path clip-path="url(#clip250)" d="M85.1722 789.513 L7.41216 789.513 L7.41216 779.965 L85.1722 779.965 L85.1722 789.513 Z" fill="#000000" fill-rule="nonzero" fill-opacity="1" /><path clip-path="url(#clip250)" d="M57.0067 768.72 Q41.3592 768.72 33.8272 760.021 Q27.5682 752.754 27.5682 742.305 Q27.5682 730.689 35.2063 723.316 Q42.7914 715.943 56.2111 715.943 Q67.0847 715.943 73.3437 719.232 Q79.5497 722.467 82.9974 728.726 Q86.4452 734.932 86.4452 742.305 Q86.4452 754.133 78.8601 761.453 Q71.2751 768.72 57.0067 768.72 M57.0067 758.907 Q67.8273 758.907 73.2376 754.186 Q78.5949 749.466 78.5949 742.305 Q78.5949 735.197 73.1846 730.476 Q67.7743 725.756 56.6884 725.756 Q46.2391 725.756 40.8818 730.53 Q35.4715 735.25 35.4715 742.305 Q35.4715 749.466 40.8288 754.186 Q46.1861 758.907 57.0067 758.907 Z" fill="#000000" fill-rule="nonzero" fill-opacity="1" /><path clip-path="url(#clip250)" d="M68.3578 708.57 L66.8726 699.128 Q72.5481 698.333 75.5715 694.726 Q78.5949 691.066 78.5949 684.542 Q78.5949 677.965 75.9428 674.782 Q73.2376 671.6 69.6308 671.6 Q66.3952 671.6 64.5387 674.411 Q63.2657 676.373 61.3031 684.171 Q58.651 694.673 56.7415 698.757 Q54.7789 702.788 51.3842 704.91 Q47.9365 706.979 43.7992 706.979 Q40.0332 706.979 36.8506 705.281 Q33.615 703.531 31.4934 700.561 Q29.849 698.333 28.7352 694.514 Q27.5682 690.642 27.5682 686.239 Q27.5682 679.609 29.4778 674.623 Q31.3873 669.584 34.6759 667.197 Q37.9115 664.81 43.3748 663.908 L44.6478 673.244 Q40.2984 673.88 37.8584 676.957 Q35.4185 679.98 35.4185 685.55 Q35.4185 692.127 37.5932 694.938 Q39.768 697.749 42.6853 697.749 Q44.5418 697.749 46.0269 696.582 Q47.5652 695.416 48.573 692.923 Q49.1034 691.49 51.0129 684.489 Q53.7181 674.358 55.4685 670.38 Q57.1658 666.348 60.4544 664.068 Q63.7431 661.787 68.623 661.787 Q73.3968 661.787 77.6402 664.598 Q81.8305 667.356 84.1644 672.607 Q86.4452 677.859 86.4452 684.489 Q86.4452 695.469 81.8835 701.25 Q77.3219 706.979 68.3578 708.57 Z" fill="#000000" fill-rule="nonzero" fill-opacity="1" /><path clip-path="url(#clip250)" d="M68.3578 654.255 L66.8726 644.813 Q72.5481 644.018 75.5715 640.411 Q78.5949 636.751 78.5949 630.227 Q78.5949 623.649 75.9428 620.467 Q73.2376 617.284 69.6308 617.284 Q66.3952 617.284 64.5387 620.095 Q63.2657 622.058 61.3031 629.855 Q58.651 640.358 56.7415 644.442 Q54.7789 648.473 51.3842 650.595 Q47.9365 652.663 43.7992 652.663 Q40.0332 652.663 36.8506 650.966 Q33.615 649.216 31.4934 646.245 Q29.849 644.018 28.7352 640.198 Q27.5682 636.326 27.5682 631.924 Q27.5682 625.294 29.4778 620.308 Q31.3873 615.269 34.6759 612.882 Q37.9115 610.495 43.3748 609.593 L44.6478 618.929 Q40.2984 619.565 37.8584 622.641 Q35.4185 625.665 35.4185 631.234 Q35.4185 637.812 37.5932 640.623 Q39.768 643.434 42.6853 643.434 Q44.5418 643.434 46.0269 642.267 Q47.5652 641.1 48.573 638.607 Q49.1034 637.175 51.0129 630.173 Q53.7181 620.042 55.4685 616.064 Q57.1658 612.033 60.4544 609.752 Q63.7431 607.471 68.623 607.471 Q73.3968 607.471 77.6402 610.283 Q81.8305 613.041 84.1644 618.292 Q86.4452 623.543 86.4452 630.173 Q86.4452 641.153 81.8835 646.935 Q77.3219 652.663 68.3578 654.255 Z" fill="#000000" fill-rule="nonzero" fill-opacity="1" /><polyline clip-path="url(#clip252)" style="stroke:#009af9; stroke-linecap:round; stroke-linejoin:round; stroke-width:8; stroke-opacity:1; fill:none" points="323.131,47.2441 375.173,228.832 427.214,382.296 479.256,512.049 531.298,621.811 583.339,714.717 635.381,793.409 687.423,860.114 739.464,916.708 791.506,964.774 843.548,1005.64 895.589,1040.44 947.631,1070.12 999.673,1095.47 1051.71,1117.16 1103.76,1135.77 1155.8,1151.78 1207.84,1165.58 1259.88,1177.52 1311.92,1187.88 1363.96,1196.9 1416.01,1204.79 1468.05,1211.73 1520.09,1217.84 1572.13,1223.27 1624.17,1228.11 1676.21,1232.44 1728.26,1236.35 1780.3,1239.89 1832.34,1243.12 1884.38,1246.08 1936.42,1248.8 1988.46,1251.33 2040.51,1253.68 2092.55,1255.88 2144.59,1257.95 2196.63,1259.9 2248.67,1261.76 2300.71,1263.52 2352.76,1265.2 "/>
<circle clip-path="url(#clip252)" cx="375.173" cy="228.832" r="3.6" fill="#009af9" fill-rule="evenodd" fill-opacity="1" stroke="#000000" stroke-opacity="1" stroke-width="3.2"/>
<circle clip-path="url(#clip252)" cx="427.214" cy="382.296" r="3.6" fill="#009af9" fill-rule="evenodd" fill-opacity="1" stroke="#000000" stroke-opacity="1" stroke-width="3.2"/>
<circle clip-path="url(#clip252)" cx="479.256" cy="512.049" r="3.6" fill="#009af9" fill-rule="evenodd" fill-opacity="1" stroke="#000000" stroke-opacity="1" stroke-width="3.2"/>
<circle clip-path="url(#clip252)" cx="531.298" cy="621.811" r="3.6" fill="#009af9" fill-rule="evenodd" fill-opacity="1" stroke="#000000" stroke-opacity="1" stroke-width="3.2"/>
<circle clip-path="url(#clip252)" cx="583.339" cy="714.717" r="3.6" fill="#009af9" fill-rule="evenodd" fill-opacity="1" stroke="#000000" stroke-opacity="1" stroke-width="3.2"/>
<circle clip-path="url(#clip252)" cx="635.381" cy="793.409" r="3.6" fill="#009af9" fill-rule="evenodd" fill-opacity="1" stroke="#000000" stroke-opacity="1" stroke-width="3.2"/>
<circle clip-path="url(#clip252)" cx="687.423" cy="860.114" r="3.6" fill="#009af9" fill-rule="evenodd" fill-opacity="1" stroke="#000000" stroke-opacity="1" stroke-width="3.2"/>
<circle clip-path="url(#clip252)" cx="739.464" cy="916.708" r="3.6" fill="#009af9" fill-rule="evenodd" fill-opacity="1" stroke="#000000" stroke-opacity="1" stroke-width="3.2"/>
<circle clip-path="url(#clip252)" cx="791.506" cy="964.774" r="3.6" fill="#009af9" fill-rule="evenodd" fill-opacity="1" stroke="#000000" stroke-opacity="1" stroke-width="3.2"/>
<circle clip-path="url(#clip252)" cx="843.548" cy="1005.64" r="3.6" fill="#009af9" fill-rule="evenodd" fill-opacity="1" stroke="#000000" stroke-opacity="1" stroke-width="3.2"/>
<circle clip-path="url(#clip252)" cx="895.589" cy="1040.44" r="3.6" fill="#009af9" fill-rule="evenodd" fill-opacity="1" stroke="#000000" stroke-opacity="1" stroke-width="3.2"/>
<circle clip-path="url(#clip252)" cx="947.631" cy="1070.12" r="3.6" fill="#009af9" fill-rule="evenodd" fill-opacity="1" stroke="#000000" stroke-opacity="1" stroke-width="3.2"/>
<circle clip-path="url(#clip252)" cx="999.673" cy="1095.47" r="3.6" fill="#009af9" fill-rule="evenodd" fill-opacity="1" stroke="#000000" stroke-opacity="1" stroke-width="3.2"/>
<circle clip-path="url(#clip252)" cx="1051.71" cy="1117.16" r="3.6" fill="#009af9" fill-rule="evenodd" fill-opacity="1" stroke="#000000" stroke-opacity="1" stroke-width="3.2"/>
<circle clip-path="url(#clip252)" cx="1103.76" cy="1135.77" r="3.6" fill="#009af9" fill-rule="evenodd" fill-opacity="1" stroke="#000000" stroke-opacity="1" stroke-width="3.2"/>
<circle clip-path="url(#clip252)" cx="1155.8" cy="1151.78" r="3.6" fill="#009af9" fill-rule="evenodd" fill-opacity="1" stroke="#000000" stroke-opacity="1" stroke-width="3.2"/>
<circle clip-path="url(#clip252)" cx="1207.84" cy="1165.58" r="3.6" fill="#009af9" fill-rule="evenodd" fill-opacity="1" stroke="#000000" stroke-opacity="1" stroke-width="3.2"/>
<circle clip-path="url(#clip252)" cx="1259.88" cy="1177.52" r="3.6" fill="#009af9" fill-rule="evenodd" fill-opacity="1" stroke="#000000" stroke-opacity="1" stroke-width="3.2"/>
<circle clip-path="url(#clip252)" cx="1311.92" cy="1187.88" r="3.6" fill="#009af9" fill-rule="evenodd" fill-opacity="1" stroke="#000000" stroke-opacity="1" stroke-width="3.2"/>
<circle clip-path="url(#clip252)" cx="1363.96" cy="1196.9" r="3.6" fill="#009af9" fill-rule="evenodd" fill-opacity="1" stroke="#000000" stroke-opacity="1" stroke-width="3.2"/>
<circle clip-path="url(#clip252)" cx="1416.01" cy="1204.79" r="3.6" fill="#009af9" fill-rule="evenodd" fill-opacity="1" stroke="#000000" stroke-opacity="1" stroke-width="3.2"/>
<circle clip-path="url(#clip252)" cx="1468.05" cy="1211.73" r="3.6" fill="#009af9" fill-rule="evenodd" fill-opacity="1" stroke="#000000" stroke-opacity="1" stroke-width="3.2"/>
<circle clip-path="url(#clip252)" cx="1520.09" cy="1217.84" r="3.6" fill="#009af9" fill-rule="evenodd" fill-opacity="1" stroke="#000000" stroke-opacity="1" stroke-width="3.2"/>
<circle clip-path="url(#clip252)" cx="1572.13" cy="1223.27" r="3.6" fill="#009af9" fill-rule="evenodd" fill-opacity="1" stroke="#000000" stroke-opacity="1" stroke-width="3.2"/>
<circle clip-path="url(#clip252)" cx="1624.17" cy="1228.11" r="3.6" fill="#009af9" fill-rule="evenodd" fill-opacity="1" stroke="#000000" stroke-opacity="1" stroke-width="3.2"/>
<circle clip-path="url(#clip252)" cx="1676.21" cy="1232.44" r="3.6" fill="#009af9" fill-rule="evenodd" fill-opacity="1" stroke="#000000" stroke-opacity="1" stroke-width="3.2"/>
<circle clip-path="url(#clip252)" cx="1728.26" cy="1236.35" r="3.6" fill="#009af9" fill-rule="evenodd" fill-opacity="1" stroke="#000000" stroke-opacity="1" stroke-width="3.2"/>
<circle clip-path="url(#clip252)" cx="1780.3" cy="1239.89" r="3.6" fill="#009af9" fill-rule="evenodd" fill-opacity="1" stroke="#000000" stroke-opacity="1" stroke-width="3.2"/>
<circle clip-path="url(#clip252)" cx="1832.34" cy="1243.12" r="3.6" fill="#009af9" fill-rule="evenodd" fill-opacity="1" stroke="#000000" stroke-opacity="1" stroke-width="3.2"/>
<circle clip-path="url(#clip252)" cx="1884.38" cy="1246.08" r="3.6" fill="#009af9" fill-rule="evenodd" fill-opacity="1" stroke="#000000" stroke-opacity="1" stroke-width="3.2"/>
<circle clip-path="url(#clip252)" cx="1936.42" cy="1248.8" r="3.6" fill="#009af9" fill-rule="evenodd" fill-opacity="1" stroke="#000000" stroke-opacity="1" stroke-width="3.2"/>
<circle clip-path="url(#clip252)" cx="1988.46" cy="1251.33" r="3.6" fill="#009af9" fill-rule="evenodd" fill-opacity="1" stroke="#000000" stroke-opacity="1" stroke-width="3.2"/>
<circle clip-path="url(#clip252)" cx="2040.51" cy="1253.68" r="3.6" fill="#009af9" fill-rule="evenodd" fill-opacity="1" stroke="#000000" stroke-opacity="1" stroke-width="3.2"/>
<circle clip-path="url(#clip252)" cx="2092.55" cy="1255.88" r="3.6" fill="#009af9" fill-rule="evenodd" fill-opacity="1" stroke="#000000" stroke-opacity="1" stroke-width="3.2"/>
<circle clip-path="url(#clip252)" cx="2144.59" cy="1257.95" r="3.6" fill="#009af9" fill-rule="evenodd" fill-opacity="1" stroke="#000000" stroke-opacity="1" stroke-width="3.2"/>
<circle clip-path="url(#clip252)" cx="2196.63" cy="1259.9" r="3.6" fill="#009af9" fill-rule="evenodd" fill-opacity="1" stroke="#000000" stroke-opacity="1" stroke-width="3.2"/>
<circle clip-path="url(#clip252)" cx="2248.67" cy="1261.76" r="3.6" fill="#009af9" fill-rule="evenodd" fill-opacity="1" stroke="#000000" stroke-opacity="1" stroke-width="3.2"/>
<circle clip-path="url(#clip252)" cx="2300.71" cy="1263.52" r="3.6" fill="#009af9" fill-rule="evenodd" fill-opacity="1" stroke="#000000" stroke-opacity="1" stroke-width="3.2"/>
<circle clip-path="url(#clip252)" cx="2352.76" cy="1265.2" r="3.6" fill="#009af9" fill-rule="evenodd" fill-opacity="1" stroke="#000000" stroke-opacity="1" stroke-width="3.2"/>
<polyline clip-path="url(#clip252)" style="stroke:#e26f46; stroke-linecap:round; stroke-linejoin:round; stroke-width:8; stroke-opacity:1; fill:none" points="323.131,94.0764 375.173,262.915 427.214,407.317 479.256,530.975 531.298,637.014 583.339,728.076 635.381,806.4 687.423,873.881 739.464,932.125 791.506,982.494 843.548,1026.14 895.589,1064.05 947.631,1097.04 999.673,1125.83 1051.71,1151.01 1103.76,1173.1 1155.8,1192.53 1207.84,1209.67 1259.88,1224.83 1311.92,1238.29 1363.96,1250.27 1416.01,1260.97 1468.05,1270.57 1520.09,1279.19 1572.13,1286.98 1624.17,1294.03 1676.21,1300.43 1728.26,1306.26 1780.3,1311.6 1832.34,1316.5 1884.38,1321 1936.42,1325.17 1988.46,1329.02 2040.51,1332.6 2092.55,1335.94 2144.59,1339.06 2196.63,1341.98 2248.67,1344.72 2300.71,1347.3 2352.76,1349.74 "/>
<circle clip-path="url(#clip252)" cx="323.131" cy="94.0764" r="3.6" fill="#e26f46" fill-rule="evenodd" fill-opacity="1" stroke="#000000" stroke-opacity="1" stroke-width="3.2"/>
<circle clip-path="url(#clip252)" cx="375.173" cy="262.915" r="3.6" fill="#e26f46" fill-rule="evenodd" fill-opacity="1" stroke="#000000" stroke-opacity="1" stroke-width="3.2"/>
<circle clip-path="url(#clip252)" cx="427.214" cy="407.317" r="3.6" fill="#e26f46" fill-rule="evenodd" fill-opacity="1" stroke="#000000" stroke-opacity="1" stroke-width="3.2"/>
<circle clip-path="url(#clip252)" cx="479.256" cy="530.975" r="3.6" fill="#e26f46" fill-rule="evenodd" fill-opacity="1" stroke="#000000" stroke-opacity="1" stroke-width="3.2"/>
<circle clip-path="url(#clip252)" cx="531.298" cy="637.014" r="3.6" fill="#e26f46" fill-rule="evenodd" fill-opacity="1" stroke="#000000" stroke-opacity="1" stroke-width="3.2"/>
<circle clip-path="url(#clip252)" cx="583.339" cy="728.076" r="3.6" fill="#e26f46" fill-rule="evenodd" fill-opacity="1" stroke="#000000" stroke-opacity="1" stroke-width="3.2"/>
<circle clip-path="url(#clip252)" cx="635.381" cy="806.4" r="3.6" fill="#e26f46" fill-rule="evenodd" fill-opacity="1" stroke="#000000" stroke-opacity="1" stroke-width="3.2"/>
<circle clip-path="url(#clip252)" cx="687.423" cy="873.881" r="3.6" fill="#e26f46" fill-rule="evenodd" fill-opacity="1" stroke="#000000" stroke-opacity="1" stroke-width="3.2"/>
<circle clip-path="url(#clip252)" cx="739.464" cy="932.125" r="3.6" fill="#e26f46" fill-rule="evenodd" fill-opacity="1" stroke="#000000" stroke-opacity="1" stroke-width="3.2"/>
<circle clip-path="url(#clip252)" cx="791.506" cy="982.494" r="3.6" fill="#e26f46" fill-rule="evenodd" fill-opacity="1" stroke="#000000" stroke-opacity="1" stroke-width="3.2"/>
<circle clip-path="url(#clip252)" cx="843.548" cy="1026.14" r="3.6" fill="#e26f46" fill-rule="evenodd" fill-opacity="1" stroke="#000000" stroke-opacity="1" stroke-width="3.2"/>
<circle clip-path="url(#clip252)" cx="895.589" cy="1064.05" r="3.6" fill="#e26f46" fill-rule="evenodd" fill-opacity="1" stroke="#000000" stroke-opacity="1" stroke-width="3.2"/>
<circle clip-path="url(#clip252)" cx="947.631" cy="1097.04" r="3.6" fill="#e26f46" fill-rule="evenodd" fill-opacity="1" stroke="#000000" stroke-opacity="1" stroke-width="3.2"/>
<circle clip-path="url(#clip252)" cx="999.673" cy="1125.83" r="3.6" fill="#e26f46" fill-rule="evenodd" fill-opacity="1" stroke="#000000" stroke-opacity="1" stroke-width="3.2"/>
<circle clip-path="url(#clip252)" cx="1051.71" cy="1151.01" r="3.6" fill="#e26f46" fill-rule="evenodd" fill-opacity="1" stroke="#000000" stroke-opacity="1" stroke-width="3.2"/>
<circle clip-path="url(#clip252)" cx="1103.76" cy="1173.1" r="3.6" fill="#e26f46" fill-rule="evenodd" fill-opacity="1" stroke="#000000" stroke-opacity="1" stroke-width="3.2"/>
<circle clip-path="url(#clip252)" cx="1155.8" cy="1192.53" r="3.6" fill="#e26f46" fill-rule="evenodd" fill-opacity="1" stroke="#000000" stroke-opacity="1" stroke-width="3.2"/>
<circle clip-path="url(#clip252)" cx="1207.84" cy="1209.67" r="3.6" fill="#e26f46" fill-rule="evenodd" fill-opacity="1" stroke="#000000" stroke-opacity="1" stroke-width="3.2"/>
<circle clip-path="url(#clip252)" cx="1259.88" cy="1224.83" r="3.6" fill="#e26f46" fill-rule="evenodd" fill-opacity="1" stroke="#000000" stroke-opacity="1" stroke-width="3.2"/>
<circle clip-path="url(#clip252)" cx="1311.92" cy="1238.29" r="3.6" fill="#e26f46" fill-rule="evenodd" fill-opacity="1" stroke="#000000" stroke-opacity="1" stroke-width="3.2"/>
<circle clip-path="url(#clip252)" cx="1363.96" cy="1250.27" r="3.6" fill="#e26f46" fill-rule="evenodd" fill-opacity="1" stroke="#000000" stroke-opacity="1" stroke-width="3.2"/>
<circle clip-path="url(#clip252)" cx="1416.01" cy="1260.97" r="3.6" fill="#e26f46" fill-rule="evenodd" fill-opacity="1" stroke="#000000" stroke-opacity="1" stroke-width="3.2"/>
<circle clip-path="url(#clip252)" cx="1468.05" cy="1270.57" r="3.6" fill="#e26f46" fill-rule="evenodd" fill-opacity="1" stroke="#000000" stroke-opacity="1" stroke-width="3.2"/>
<circle clip-path="url(#clip252)" cx="1520.09" cy="1279.19" r="3.6" fill="#e26f46" fill-rule="evenodd" fill-opacity="1" stroke="#000000" stroke-opacity="1" stroke-width="3.2"/>
<circle clip-path="url(#clip252)" cx="1572.13" cy="1286.98" r="3.6" fill="#e26f46" fill-rule="evenodd" fill-opacity="1" stroke="#000000" stroke-opacity="1" stroke-width="3.2"/>
<circle clip-path="url(#clip252)" cx="1624.17" cy="1294.03" r="3.6" fill="#e26f46" fill-rule="evenodd" fill-opacity="1" stroke="#000000" stroke-opacity="1" stroke-width="3.2"/>
<circle clip-path="url(#clip252)" cx="1676.21" cy="1300.43" r="3.6" fill="#e26f46" fill-rule="evenodd" fill-opacity="1" stroke="#000000" stroke-opacity="1" stroke-width="3.2"/>
<circle clip-path="url(#clip252)" cx="1728.26" cy="1306.26" r="3.6" fill="#e26f46" fill-rule="evenodd" fill-opacity="1" stroke="#000000" stroke-opacity="1" stroke-width="3.2"/>
<circle clip-path="url(#clip252)" cx="1780.3" cy="1311.6" r="3.6" fill="#e26f46" fill-rule="evenodd" fill-opacity="1" stroke="#000000" stroke-opacity="1" stroke-width="3.2"/>
<circle clip-path="url(#clip252)" cx="1832.34" cy="1316.5" r="3.6" fill="#e26f46" fill-rule="evenodd" fill-opacity="1" stroke="#000000" stroke-opacity="1" stroke-width="3.2"/>
<circle clip-path="url(#clip252)" cx="1884.38" cy="1321" r="3.6" fill="#e26f46" fill-rule="evenodd" fill-opacity="1" stroke="#000000" stroke-opacity="1" stroke-width="3.2"/>
<circle clip-path="url(#clip252)" cx="1936.42" cy="1325.17" r="3.6" fill="#e26f46" fill-rule="evenodd" fill-opacity="1" stroke="#000000" stroke-opacity="1" stroke-width="3.2"/>
<circle clip-path="url(#clip252)" cx="1988.46" cy="1329.02" r="3.6" fill="#e26f46" fill-rule="evenodd" fill-opacity="1" stroke="#000000" stroke-opacity="1" stroke-width="3.2"/>
<circle clip-path="url(#clip252)" cx="2040.51" cy="1332.6" r="3.6" fill="#e26f46" fill-rule="evenodd" fill-opacity="1" stroke="#000000" stroke-opacity="1" stroke-width="3.2"/>
<circle clip-path="url(#clip252)" cx="2092.55" cy="1335.94" r="3.6" fill="#e26f46" fill-rule="evenodd" fill-opacity="1" stroke="#000000" stroke-opacity="1" stroke-width="3.2"/>
<circle clip-path="url(#clip252)" cx="2144.59" cy="1339.06" r="3.6" fill="#e26f46" fill-rule="evenodd" fill-opacity="1" stroke="#000000" stroke-opacity="1" stroke-width="3.2"/>
<circle clip-path="url(#clip252)" cx="2196.63" cy="1341.98" r="3.6" fill="#e26f46" fill-rule="evenodd" fill-opacity="1" stroke="#000000" stroke-opacity="1" stroke-width="3.2"/>
<circle clip-path="url(#clip252)" cx="2248.67" cy="1344.72" r="3.6" fill="#e26f46" fill-rule="evenodd" fill-opacity="1" stroke="#000000" stroke-opacity="1" stroke-width="3.2"/>
<circle clip-path="url(#clip252)" cx="2300.71" cy="1347.3" r="3.6" fill="#e26f46" fill-rule="evenodd" fill-opacity="1" stroke="#000000" stroke-opacity="1" stroke-width="3.2"/>
<circle clip-path="url(#clip252)" cx="2352.76" cy="1349.74" r="3.6" fill="#e26f46" fill-rule="evenodd" fill-opacity="1" stroke="#000000" stroke-opacity="1" stroke-width="3.2"/>
<path clip-path="url(#clip250)" d="M1623.32 440.581 L2285.1 440.581 L2285.1 90.6606 L1623.32 90.6606  Z" fill="#ffffff" fill-rule="evenodd" fill-opacity="1"/>
<polyline clip-path="url(#clip250)" style="stroke:#000000; stroke-linecap:round; stroke-linejoin:round; stroke-width:4; stroke-opacity:1; fill:none" points="1623.32,440.581 2285.1,440.581 2285.1,90.6606 1623.32,90.6606 1623.32,440.581 "/>
<polyline clip-path="url(#clip250)" style="stroke:#009af9; stroke-linecap:round; stroke-linejoin:round; stroke-width:18; stroke-opacity:1; fill:none" points="1645.87,207.301 1781.18,207.301 "/>
<circle clip-path="url(#clip250)" cx="1713.53" cy="207.301" r="8.35237" fill="#009af9" fill-rule="evenodd" fill-opacity="1" stroke="#000000" stroke-opacity="1" stroke-width="7.42433"/>
<path clip-path="url(#clip250)" d="M1829.83 237.641 L1831.21 246.075 Q1827.18 246.923 1824 246.923 Q1818.8 246.923 1815.93 245.279 Q1813.07 243.635 1811.9 240.982 Q1810.74 238.277 1810.74 229.684 L1810.74 197.276 L1803.73 197.276 L1803.73 189.85 L1810.74 189.85 L1810.74 175.9 L1820.23 170.171 L1820.23 189.85 L1829.83 189.85 L1829.83 197.276 L1820.23 197.276 L1820.23 230.215 Q1820.23 234.299 1820.71 235.466 Q1821.24 236.633 1822.35 237.323 Q1823.52 238.012 1825.64 238.012 Q1827.23 238.012 1829.83 237.641 Z" fill="#000000" fill-rule="nonzero" fill-opacity="1" /><path clip-path="url(#clip250)" d="M1839.06 246.181 L1839.06 189.85 L1847.65 189.85 L1847.65 198.39 Q1850.94 192.396 1853.7 190.486 Q1856.51 188.577 1859.85 188.577 Q1864.68 188.577 1869.67 191.653 L1866.38 200.511 Q1862.88 198.443 1859.38 198.443 Q1856.25 198.443 1853.75 200.352 Q1851.26 202.209 1850.2 205.55 Q1848.61 210.642 1848.61 216.689 L1848.61 246.181 L1839.06 246.181 Z" fill="#000000" fill-rule="nonzero" fill-opacity="1" /><path clip-path="url(#clip250)" d="M1912.1 239.232 Q1906.8 243.741 1901.86 245.597 Q1896.98 247.454 1891.36 247.454 Q1882.08 247.454 1877.09 242.945 Q1872.11 238.383 1872.11 231.329 Q1872.11 227.191 1873.96 223.797 Q1875.87 220.349 1878.9 218.28 Q1881.97 216.212 1885.79 215.151 Q1888.6 214.408 1894.28 213.719 Q1905.84 212.34 1911.3 210.43 Q1911.36 208.468 1911.36 207.937 Q1911.36 202.102 1908.65 199.716 Q1904.99 196.48 1897.78 196.48 Q1891.04 196.48 1887.81 198.867 Q1884.62 201.201 1883.09 207.195 L1873.75 205.922 Q1875.02 199.928 1877.94 196.268 Q1880.86 192.555 1886.37 190.592 Q1891.89 188.577 1899.16 188.577 Q1906.37 188.577 1910.88 190.274 Q1915.39 191.971 1917.51 194.57 Q1919.63 197.116 1920.48 201.042 Q1920.96 203.482 1920.96 209.847 L1920.96 222.577 Q1920.96 235.89 1921.54 239.444 Q1922.18 242.945 1923.98 246.181 L1914.01 246.181 Q1912.52 243.21 1912.1 239.232 M1911.3 217.909 Q1906.11 220.031 1895.71 221.516 Q1889.82 222.365 1887.38 223.425 Q1884.94 224.486 1883.62 226.555 Q1882.29 228.571 1882.29 231.064 Q1882.29 234.883 1885.15 237.429 Q1888.07 239.975 1893.64 239.975 Q1899.16 239.975 1903.45 237.588 Q1907.75 235.148 1909.77 230.957 Q1911.3 227.722 1911.3 221.41 L1911.3 217.909 Z" fill="#000000" fill-rule="nonzero" fill-opacity="1" /><path clip-path="url(#clip250)" d="M1935.81 179.4 L1935.81 168.421 L1945.36 168.421 L1945.36 179.4 L1935.81 179.4 M1935.81 246.181 L1935.81 189.85 L1945.36 189.85 L1945.36 246.181 L1935.81 246.181 Z" fill="#000000" fill-rule="nonzero" fill-opacity="1" /><path clip-path="url(#clip250)" d="M1959.89 246.181 L1959.89 189.85 L1968.48 189.85 L1968.48 197.859 Q1974.69 188.577 1986.41 188.577 Q1991.5 188.577 1995.75 190.433 Q2000.04 192.237 2002.17 195.207 Q2004.29 198.177 2005.14 202.262 Q2005.67 204.914 2005.67 211.544 L2005.67 246.181 L1996.12 246.181 L1996.12 211.915 Q1996.12 206.081 1995.01 203.216 Q1993.89 200.299 1991.03 198.602 Q1988.22 196.851 1984.4 196.851 Q1978.3 196.851 1973.84 200.723 Q1969.44 204.595 1969.44 215.416 L1969.44 246.181 L1959.89 246.181 Z" fill="#000000" fill-rule="nonzero" fill-opacity="1" /><path clip-path="url(#clip250)" d="M2011.5 267.769 L2011.5 260.873 L2074.78 260.873 L2074.78 267.769 L2011.5 267.769 Z" fill="#000000" fill-rule="nonzero" fill-opacity="1" /><path clip-path="url(#clip250)" d="M2080.51 246.181 L2080.51 168.421 L2090.06 168.421 L2090.06 246.181 L2080.51 246.181 Z" fill="#000000" fill-rule="nonzero" fill-opacity="1" /><path clip-path="url(#clip250)" d="M2101.3 218.015 Q2101.3 202.368 2110 194.836 Q2117.27 188.577 2127.72 188.577 Q2139.33 188.577 2146.71 196.215 Q2154.08 203.8 2154.08 217.22 Q2154.08 228.093 2150.79 234.352 Q2147.55 240.558 2141.3 244.006 Q2135.09 247.454 2127.72 247.454 Q2115.89 247.454 2108.57 239.869 Q2101.3 232.284 2101.3 218.015 M2111.11 218.015 Q2111.11 228.836 2115.84 234.246 Q2120.56 239.603 2127.72 239.603 Q2134.82 239.603 2139.55 234.193 Q2144.27 228.783 2144.27 217.697 Q2144.27 207.248 2139.49 201.89 Q2134.77 196.48 2127.72 196.48 Q2120.56 196.48 2115.84 201.837 Q2111.11 207.195 2111.11 218.015 Z" fill="#000000" fill-rule="nonzero" fill-opacity="1" /><path clip-path="url(#clip250)" d="M2161.45 229.366 L2170.89 227.881 Q2171.69 233.557 2175.3 236.58 Q2178.96 239.603 2185.48 239.603 Q2192.06 239.603 2195.24 236.951 Q2198.42 234.246 2198.42 230.639 Q2198.42 227.404 2195.61 225.547 Q2193.65 224.274 2185.85 222.312 Q2175.35 219.659 2171.26 217.75 Q2167.23 215.787 2165.11 212.393 Q2163.04 208.945 2163.04 204.808 Q2163.04 201.042 2164.74 197.859 Q2166.49 194.624 2169.46 192.502 Q2171.69 190.858 2175.51 189.744 Q2179.38 188.577 2183.78 188.577 Q2190.41 188.577 2195.4 190.486 Q2200.44 192.396 2202.82 195.684 Q2205.21 198.92 2206.11 204.383 L2196.78 205.656 Q2196.14 201.307 2193.06 198.867 Q2190.04 196.427 2184.47 196.427 Q2177.89 196.427 2175.08 198.602 Q2172.27 200.776 2172.27 203.694 Q2172.27 205.55 2173.44 207.035 Q2174.61 208.574 2177.1 209.581 Q2178.53 210.112 2185.53 212.021 Q2195.66 214.727 2199.64 216.477 Q2203.67 218.174 2205.95 221.463 Q2208.24 224.752 2208.24 229.631 Q2208.24 234.405 2205.42 238.649 Q2202.67 242.839 2197.41 245.173 Q2192.16 247.454 2185.53 247.454 Q2174.55 247.454 2168.77 242.892 Q2163.04 238.33 2161.45 229.366 Z" fill="#000000" fill-rule="nonzero" fill-opacity="1" /><path clip-path="url(#clip250)" d="M2215.77 229.366 L2225.21 227.881 Q2226 233.557 2229.61 236.58 Q2233.27 239.603 2239.8 239.603 Q2246.37 239.603 2249.55 236.951 Q2252.74 234.246 2252.74 230.639 Q2252.74 227.404 2249.93 225.547 Q2247.96 224.274 2240.17 222.312 Q2229.66 219.659 2225.58 217.75 Q2221.55 215.787 2219.43 212.393 Q2217.36 208.945 2217.36 204.808 Q2217.36 201.042 2219.06 197.859 Q2220.81 194.624 2223.78 192.502 Q2226 190.858 2229.82 189.744 Q2233.7 188.577 2238.1 188.577 Q2244.73 188.577 2249.71 190.486 Q2254.75 192.396 2257.14 195.684 Q2259.53 198.92 2260.43 204.383 L2251.09 205.656 Q2250.46 201.307 2247.38 198.867 Q2244.36 196.427 2238.79 196.427 Q2232.21 196.427 2229.4 198.602 Q2226.59 200.776 2226.59 203.694 Q2226.59 205.55 2227.75 207.035 Q2228.92 208.574 2231.41 209.581 Q2232.85 210.112 2239.85 212.021 Q2249.98 214.727 2253.96 216.477 Q2257.99 218.174 2260.27 221.463 Q2262.55 224.752 2262.55 229.631 Q2262.55 234.405 2259.74 238.649 Q2256.98 242.839 2251.73 245.173 Q2246.48 247.454 2239.85 247.454 Q2228.87 247.454 2223.09 242.892 Q2217.36 238.33 2215.77 229.366 Z" fill="#000000" fill-rule="nonzero" fill-opacity="1" /><polyline clip-path="url(#clip250)" style="stroke:#e26f46; stroke-linecap:round; stroke-linejoin:round; stroke-width:18; stroke-opacity:1; fill:none" points="1645.87,323.941 1781.18,323.941 "/>
<circle clip-path="url(#clip250)" cx="1713.53" cy="323.941" r="8.35237" fill="#e26f46" fill-rule="evenodd" fill-opacity="1" stroke="#000000" stroke-opacity="1" stroke-width="7.42433"/>
<path clip-path="url(#clip250)" d="M1825.16 362.821 L1803.73 306.49 L1813.81 306.49 L1825.91 340.225 Q1827.87 345.688 1829.51 351.576 Q1830.79 347.12 1833.07 340.861 L1845.58 306.49 L1855.4 306.49 L1834.07 362.821 L1825.16 362.821 Z" fill="#000000" fill-rule="nonzero" fill-opacity="1" /><path clip-path="url(#clip250)" d="M1900.59 355.872 Q1895.29 360.381 1890.35 362.237 Q1885.47 364.094 1879.85 364.094 Q1870.57 364.094 1865.58 359.585 Q1860.6 355.023 1860.6 347.969 Q1860.6 343.831 1862.45 340.437 Q1864.36 336.989 1867.39 334.92 Q1870.46 332.852 1874.28 331.791 Q1877.09 331.048 1882.77 330.359 Q1894.33 328.98 1899.79 327.07 Q1899.85 325.108 1899.85 324.577 Q1899.85 318.742 1897.14 316.356 Q1893.48 313.12 1886.27 313.12 Q1879.53 313.12 1876.3 315.507 Q1873.11 317.841 1871.58 323.835 L1862.24 322.562 Q1863.51 316.568 1866.43 312.908 Q1869.35 309.195 1874.86 307.232 Q1880.38 305.217 1887.65 305.217 Q1894.86 305.217 1899.37 306.914 Q1903.88 308.611 1906 311.21 Q1908.12 313.756 1908.97 317.682 Q1909.45 320.122 1909.45 326.487 L1909.45 339.217 Q1909.45 352.53 1910.03 356.084 Q1910.67 359.585 1912.47 362.821 L1902.5 362.821 Q1901.01 359.85 1900.59 355.872 M1899.79 334.549 Q1894.6 336.671 1884.2 338.156 Q1878.31 339.005 1875.87 340.065 Q1873.43 341.126 1872.11 343.195 Q1870.78 345.211 1870.78 347.704 Q1870.78 351.523 1873.64 354.069 Q1876.56 356.615 1882.13 356.615 Q1887.65 356.615 1891.94 354.228 Q1896.24 351.788 1898.26 347.597 Q1899.79 344.362 1899.79 338.05 L1899.79 334.549 Z" fill="#000000" fill-rule="nonzero" fill-opacity="1" /><path clip-path="url(#clip250)" d="M1924.03 362.821 L1924.03 285.061 L1933.58 285.061 L1933.58 362.821 L1924.03 362.821 Z" fill="#000000" fill-rule="nonzero" fill-opacity="1" /><path clip-path="url(#clip250)" d="M1939.58 384.409 L1939.58 377.513 L2002.86 377.513 L2002.86 384.409 L1939.58 384.409 Z" fill="#000000" fill-rule="nonzero" fill-opacity="1" /><path clip-path="url(#clip250)" d="M2008.58 362.821 L2008.58 285.061 L2018.13 285.061 L2018.13 362.821 L2008.58 362.821 Z" fill="#000000" fill-rule="nonzero" fill-opacity="1" /><path clip-path="url(#clip250)" d="M2029.38 334.655 Q2029.38 319.008 2038.08 311.476 Q2045.34 305.217 2055.79 305.217 Q2067.41 305.217 2074.78 312.855 Q2082.15 320.44 2082.15 333.86 Q2082.15 344.733 2078.86 350.992 Q2075.63 357.198 2069.37 360.646 Q2063.16 364.094 2055.79 364.094 Q2043.96 364.094 2036.64 356.509 Q2029.38 348.924 2029.38 334.655 M2039.19 334.655 Q2039.19 345.476 2043.91 350.886 Q2048.63 356.243 2055.79 356.243 Q2062.9 356.243 2067.62 350.833 Q2072.34 345.423 2072.34 334.337 Q2072.34 323.888 2067.57 318.53 Q2062.85 313.12 2055.79 313.12 Q2048.63 313.12 2043.91 318.477 Q2039.19 323.835 2039.19 334.655 Z" fill="#000000" fill-rule="nonzero" fill-opacity="1" /><path clip-path="url(#clip250)" d="M2089.53 346.006 L2098.97 344.521 Q2099.76 350.197 2103.37 353.22 Q2107.03 356.243 2113.55 356.243 Q2120.13 356.243 2123.31 353.591 Q2126.5 350.886 2126.5 347.279 Q2126.5 344.044 2123.69 342.187 Q2121.72 340.914 2113.93 338.952 Q2103.42 336.299 2099.34 334.39 Q2095.31 332.427 2093.19 329.033 Q2091.12 325.585 2091.12 321.448 Q2091.12 317.682 2092.82 314.499 Q2094.57 311.264 2097.54 309.142 Q2099.76 307.498 2103.58 306.384 Q2107.45 305.217 2111.86 305.217 Q2118.49 305.217 2123.47 307.126 Q2128.51 309.036 2130.9 312.324 Q2133.29 315.56 2134.19 321.023 L2124.85 322.296 Q2124.22 317.947 2121.14 315.507 Q2118.12 313.067 2112.55 313.067 Q2105.97 313.067 2103.16 315.242 Q2100.35 317.416 2100.35 320.334 Q2100.35 322.19 2101.51 323.675 Q2102.68 325.214 2105.17 326.221 Q2106.61 326.752 2113.61 328.661 Q2123.74 331.367 2127.72 333.117 Q2131.75 334.814 2134.03 338.103 Q2136.31 341.392 2136.31 346.271 Q2136.31 351.045 2133.5 355.289 Q2130.74 359.479 2125.49 361.813 Q2120.24 364.094 2113.61 364.094 Q2102.63 364.094 2096.85 359.532 Q2091.12 354.97 2089.53 346.006 Z" fill="#000000" fill-rule="nonzero" fill-opacity="1" /><path clip-path="url(#clip250)" d="M2143.84 346.006 L2153.28 344.521 Q2154.08 350.197 2157.69 353.22 Q2161.35 356.243 2167.87 356.243 Q2174.45 356.243 2177.63 353.591 Q2180.81 350.886 2180.81 347.279 Q2180.81 344.044 2178 342.187 Q2176.04 340.914 2168.24 338.952 Q2157.74 336.299 2153.65 334.39 Q2149.62 332.427 2147.5 329.033 Q2145.43 325.585 2145.43 321.448 Q2145.43 317.682 2147.13 314.499 Q2148.88 311.264 2151.85 309.142 Q2154.08 307.498 2157.9 306.384 Q2161.77 305.217 2166.17 305.217 Q2172.8 305.217 2177.79 307.126 Q2182.83 309.036 2185.21 312.324 Q2187.6 315.56 2188.5 321.023 L2179.17 322.296 Q2178.53 317.947 2175.45 315.507 Q2172.43 313.067 2166.86 313.067 Q2160.28 313.067 2157.47 315.242 Q2154.66 317.416 2154.66 320.334 Q2154.66 322.19 2155.83 323.675 Q2157 325.214 2159.49 326.221 Q2160.92 326.752 2167.92 328.661 Q2178.05 331.367 2182.03 333.117 Q2186.06 334.814 2188.34 338.103 Q2190.63 341.392 2190.63 346.271 Q2190.63 351.045 2187.81 355.289 Q2185.06 359.479 2179.8 361.813 Q2174.55 364.094 2167.92 364.094 Q2156.94 364.094 2151.16 359.532 Q2145.43 354.97 2143.84 346.006 Z" fill="#000000" fill-rule="nonzero" fill-opacity="1" /></svg>
