<?xml version="1.0" encoding="utf-8"?>
<svg xmlns="http://www.w3.org/2000/svg" xmlns:xlink="http://www.w3.org/1999/xlink" width="600" height="400" viewBox="0 0 2400 1600">
<defs>
  <clipPath id="clip780">
    <rect x="0" y="0" width="2400" height="1600"/>
  </clipPath>
</defs>
<path clip-path="url(#clip780)" d="M0 1600 L2400 1600 L2400 8.88178e-14 L0 8.88178e-14  Z" fill="#ffffff" fill-rule="evenodd" fill-opacity="1"/>
<defs>
  <clipPath id="clip781">
    <rect x="480" y="0" width="1681" height="1600"/>
  </clipPath>
</defs>
<path clip-path="url(#clip780)" d="M384.395 1349.74 L2352.76 1349.74 L2352.76 47.2441 L384.395 47.2441  Z" fill="#ffffff" fill-rule="evenodd" fill-opacity="1"/>
<defs>
  <clipPath id="clip782">
    <rect x="384" y="47" width="1969" height="1303"/>
  </clipPath>
</defs>
<polyline clip-path="url(#clip780)" style="stroke:#000000; stroke-linecap:round; stroke-linejoin:round; stroke-width:4; stroke-opacity:1; fill:none" points="384.395,1349.74 2352.76,1349.74 "/>
<polyline clip-path="url(#clip780)" style="stroke:#000000; stroke-linecap:round; stroke-linejoin:round; stroke-width:2; stroke-opacity:0.5; fill:none" points="384.395,47.2441 2352.76,47.2441 "/>
<polyline clip-path="url(#clip780)" style="stroke:#000000; stroke-linecap:round; stroke-linejoin:round; stroke-width:4; stroke-opacity:1; fill:none" points="838.632,1349.74 838.632,1330.84 "/>
<polyline clip-path="url(#clip780)" style="stroke:#000000; stroke-linecap:round; stroke-linejoin:round; stroke-width:4; stroke-opacity:1; fill:none" points="1343.34,1349.74 1343.34,1330.84 "/>
<polyline clip-path="url(#clip780)" style="stroke:#000000; stroke-linecap:round; stroke-linejoin:round; stroke-width:4; stroke-opacity:1; fill:none" points="1848.05,1349.74 1848.05,1330.84 "/>
<polyline clip-path="url(#clip780)" style="stroke:#000000; stroke-linecap:round; stroke-linejoin:round; stroke-width:4; stroke-opacity:1; fill:none" points="2352.76,1349.74 2352.76,1330.84 "/>
<path clip-path="url(#clip780)" d="M815.373 1466.14 L805.825 1466.14 L805.825 1405.3 Q802.378 1408.59 796.755 1411.88 Q791.186 1415.17 786.73 1416.81 L786.73 1407.58 Q794.739 1403.82 800.733 1398.46 Q806.727 1393.1 809.22 1388.06 L815.373 1388.06 L815.373 1466.14 Z" fill="#000000" fill-rule="nonzero" fill-opacity="1" /><path clip-path="url(#clip780)" d="M839.825 1427.79 Q839.825 1414 842.637 1405.62 Q845.501 1397.18 851.07 1392.62 Q856.693 1388.06 865.18 1388.06 Q871.439 1388.06 876.159 1390.61 Q880.88 1393.1 883.957 1397.87 Q887.033 1402.6 888.783 1409.44 Q890.534 1416.23 890.534 1427.79 Q890.534 1441.48 887.723 1449.91 Q884.911 1458.29 879.289 1462.9 Q873.719 1467.47 865.18 1467.47 Q853.935 1467.47 847.517 1459.4 Q839.825 1449.7 839.825 1427.79 M849.638 1427.79 Q849.638 1446.94 854.094 1453.3 Q858.602 1459.62 865.18 1459.62 Q871.757 1459.62 876.212 1453.25 Q880.721 1446.89 880.721 1427.79 Q880.721 1408.59 876.212 1402.28 Q871.757 1395.96 865.074 1395.96 Q858.496 1395.96 854.571 1401.53 Q849.638 1408.64 849.638 1427.79 Z" fill="#000000" fill-rule="nonzero" fill-opacity="1" /><path clip-path="url(#clip780)" d="M1338.62 1456.96 L1338.62 1466.14 L1287.22 1466.14 Q1287.12 1462.69 1288.34 1459.51 Q1290.3 1454.26 1294.59 1449.17 Q1298.94 1444.07 1307.11 1437.39 Q1319.79 1426.99 1324.24 1420.95 Q1328.7 1414.85 1328.7 1409.44 Q1328.7 1403.76 1324.62 1399.89 Q1320.58 1395.96 1314.06 1395.96 Q1307.17 1395.96 1303.03 1400.1 Q1298.89 1404.24 1298.84 1411.56 L1289.02 1410.55 Q1290.03 1399.57 1296.61 1393.84 Q1303.19 1388.06 1314.27 1388.06 Q1325.46 1388.06 1331.99 1394.27 Q1338.51 1400.47 1338.51 1409.65 Q1338.51 1414.32 1336.6 1418.83 Q1334.69 1423.33 1330.24 1428.32 Q1325.84 1433.31 1315.55 1442.01 Q1306.95 1449.22 1304.51 1451.82 Q1302.07 1454.36 1300.48 1456.96 L1338.62 1456.96 Z" fill="#000000" fill-rule="nonzero" fill-opacity="1" /><path clip-path="url(#clip780)" d="M1348.86 1427.79 Q1348.86 1414 1351.67 1405.62 Q1354.53 1397.18 1360.1 1392.62 Q1365.72 1388.06 1374.21 1388.06 Q1380.47 1388.06 1385.19 1390.61 Q1389.91 1393.1 1392.99 1397.87 Q1396.06 1402.6 1397.81 1409.44 Q1399.56 1416.23 1399.56 1427.79 Q1399.56 1441.48 1396.75 1449.91 Q1393.94 1458.29 1388.32 1462.9 Q1382.75 1467.47 1374.21 1467.47 Q1362.97 1467.47 1356.55 1459.4 Q1348.86 1449.7 1348.86 1427.79 M1358.67 1427.79 Q1358.67 1446.94 1363.12 1453.3 Q1367.63 1459.62 1374.21 1459.62 Q1380.79 1459.62 1385.24 1453.25 Q1389.75 1446.89 1389.75 1427.79 Q1389.75 1408.59 1385.24 1402.28 Q1380.79 1395.96 1374.1 1395.96 Q1367.53 1395.96 1363.6 1401.53 Q1358.67 1408.64 1358.67 1427.79 Z" fill="#000000" fill-rule="nonzero" fill-opacity="1" /><path clip-path="url(#clip780)" d="M1792.51 1445.61 L1802.06 1444.34 Q1803.7 1452.45 1807.63 1456.06 Q1811.61 1459.62 1817.28 1459.62 Q1824.02 1459.62 1828.63 1454.95 Q1833.3 1450.28 1833.3 1443.38 Q1833.3 1436.81 1829.01 1432.56 Q1824.71 1428.27 1818.08 1428.27 Q1815.37 1428.27 1811.34 1429.33 L1812.4 1420.95 Q1813.36 1421.05 1813.94 1421.05 Q1820.04 1421.05 1824.92 1417.87 Q1829.8 1414.69 1829.8 1408.06 Q1829.8 1402.81 1826.25 1399.36 Q1822.69 1395.91 1817.07 1395.91 Q1811.5 1395.91 1807.79 1399.41 Q1804.08 1402.91 1803.02 1409.92 L1793.47 1408.22 Q1795.22 1398.62 1801.42 1393.37 Q1807.63 1388.06 1816.86 1388.06 Q1823.22 1388.06 1828.58 1390.82 Q1833.94 1393.52 1836.75 1398.25 Q1839.61 1402.97 1839.61 1408.27 Q1839.61 1413.31 1836.91 1417.45 Q1834.2 1421.58 1828.9 1424.02 Q1835.8 1425.62 1839.61 1430.65 Q1843.43 1435.64 1843.43 1443.17 Q1843.43 1453.36 1836.01 1460.46 Q1828.58 1467.52 1817.23 1467.52 Q1806.99 1467.52 1800.2 1461.42 Q1793.47 1455.32 1792.51 1445.61 Z" fill="#000000" fill-rule="nonzero" fill-opacity="1" /><path clip-path="url(#clip780)" d="M1852.87 1427.79 Q1852.87 1414 1855.69 1405.62 Q1858.55 1397.18 1864.12 1392.62 Q1869.74 1388.06 1878.23 1388.06 Q1884.49 1388.06 1889.21 1390.61 Q1893.93 1393.1 1897.01 1397.87 Q1900.08 1402.6 1901.83 1409.44 Q1903.58 1416.23 1903.58 1427.79 Q1903.58 1441.48 1900.77 1449.91 Q1897.96 1458.29 1892.34 1462.9 Q1886.77 1467.47 1878.23 1467.47 Q1866.98 1467.47 1860.57 1459.4 Q1852.87 1449.7 1852.87 1427.79 M1862.69 1427.79 Q1862.69 1446.94 1867.14 1453.3 Q1871.65 1459.62 1878.23 1459.62 Q1884.81 1459.62 1889.26 1453.25 Q1893.77 1446.89 1893.77 1427.79 Q1893.77 1408.59 1889.26 1402.28 Q1884.81 1395.96 1878.12 1395.96 Q1871.55 1395.96 1867.62 1401.53 Q1862.69 1408.64 1862.69 1427.79 Z" fill="#000000" fill-rule="nonzero" fill-opacity="1" /><path clip-path="url(#clip780)" d="M2329.36 1466.14 L2329.36 1447.52 L2295.63 1447.52 L2295.63 1438.77 L2331.11 1388.38 L2338.91 1388.38 L2338.91 1438.77 L2349.41 1438.77 L2349.41 1447.52 L2338.91 1447.52 L2338.91 1466.14 L2329.36 1466.14 M2329.36 1438.77 L2329.36 1403.71 L2305.02 1438.77 L2329.36 1438.77 Z" fill="#000000" fill-rule="nonzero" fill-opacity="1" /><path clip-path="url(#clip780)" d="M2359.17 1427.79 Q2359.17 1414 2361.99 1405.62 Q2364.85 1397.18 2370.42 1392.62 Q2376.04 1388.06 2384.53 1388.06 Q2390.79 1388.06 2395.51 1390.61 Q2400.23 1393.1 2403.31 1397.87 Q2406.38 1402.6 2408.13 1409.44 Q2409.88 1416.23 2409.88 1427.79 Q2409.88 1441.48 2407.07 1449.91 Q2404.26 1458.29 2398.64 1462.9 Q2393.07 1467.47 2384.53 1467.47 Q2373.28 1467.47 2366.87 1459.4 Q2359.17 1449.7 2359.17 1427.79 M2368.99 1427.79 Q2368.99 1446.94 2373.44 1453.3 Q2377.95 1459.62 2384.53 1459.62 Q2391.11 1459.62 2395.56 1453.25 Q2400.07 1446.89 2400.07 1427.79 Q2400.07 1408.59 2395.56 1402.28 Q2391.11 1395.96 2384.42 1395.96 Q2377.84 1395.96 2373.92 1401.53 Q2368.99 1408.64 2368.99 1427.79 Z" fill="#000000" fill-rule="nonzero" fill-opacity="1" /><path clip-path="url(#clip780)" d="M1268.01 1577.55 L1277.87 1578.77 Q1275.54 1587.42 1269.23 1592.19 Q1262.92 1596.96 1253.1 1596.96 Q1240.74 1596.96 1233.48 1589.38 Q1226.26 1581.74 1226.26 1568 Q1226.26 1553.79 1233.58 1545.94 Q1240.9 1538.09 1252.57 1538.09 Q1263.87 1538.09 1271.03 1545.78 Q1278.19 1553.47 1278.19 1567.42 Q1278.19 1568.27 1278.14 1569.97 L1236.13 1569.97 Q1236.66 1579.25 1241.38 1584.18 Q1246.1 1589.11 1253.16 1589.11 Q1258.41 1589.11 1262.12 1586.36 Q1265.83 1583.6 1268.01 1577.55 M1236.66 1562.12 L1268.11 1562.12 Q1267.48 1555.01 1264.51 1551.45 Q1259.94 1545.94 1252.68 1545.94 Q1246.1 1545.94 1241.59 1550.34 Q1237.14 1554.74 1236.66 1562.12 Z" fill="#000000" fill-rule="nonzero" fill-opacity="1" /><path clip-path="url(#clip780)" d="M1289.86 1617.28 L1289.86 1539.36 L1298.56 1539.36 L1298.56 1546.68 Q1301.64 1542.38 1305.51 1540.26 Q1309.38 1538.09 1314.9 1538.09 Q1322.11 1538.09 1327.63 1541.8 Q1333.14 1545.51 1335.95 1552.3 Q1338.77 1559.04 1338.77 1567.1 Q1338.77 1575.75 1335.64 1582.7 Q1332.56 1589.59 1326.62 1593.3 Q1320.73 1596.96 1314.21 1596.96 Q1309.43 1596.96 1305.61 1594.95 Q1301.85 1592.93 1299.41 1589.86 L1299.41 1617.28 L1289.86 1617.28 M1298.51 1567.84 Q1298.51 1578.72 1302.91 1583.92 Q1307.31 1589.11 1313.57 1589.11 Q1319.94 1589.11 1324.44 1583.76 Q1329.01 1578.35 1329.01 1567.05 Q1329.01 1556.28 1324.55 1550.92 Q1320.15 1545.57 1313.99 1545.57 Q1307.89 1545.57 1303.17 1551.3 Q1298.51 1556.97 1298.51 1567.84 Z" fill="#000000" fill-rule="nonzero" fill-opacity="1" /><path clip-path="url(#clip780)" d="M1346.72 1567.53 Q1346.72 1551.88 1355.42 1544.35 Q1362.69 1538.09 1373.14 1538.09 Q1384.75 1538.09 1392.13 1545.73 Q1399.5 1553.31 1399.5 1566.73 Q1399.5 1577.6 1396.21 1583.86 Q1392.97 1590.07 1386.72 1593.52 Q1380.51 1596.96 1373.14 1596.96 Q1361.31 1596.96 1353.99 1589.38 Q1346.72 1581.79 1346.72 1567.53 M1356.53 1567.53 Q1356.53 1578.35 1361.26 1583.76 Q1365.98 1589.11 1373.14 1589.11 Q1380.24 1589.11 1384.97 1583.7 Q1389.69 1578.29 1389.69 1567.21 Q1389.69 1556.76 1384.91 1551.4 Q1380.19 1545.99 1373.14 1545.99 Q1365.98 1545.99 1361.26 1551.35 Q1356.53 1556.71 1356.53 1567.53 Z" fill="#000000" fill-rule="nonzero" fill-opacity="1" /><path clip-path="url(#clip780)" d="M1447.45 1575.06 L1456.84 1576.28 Q1455.3 1585.99 1448.93 1591.5 Q1442.62 1596.96 1433.39 1596.96 Q1421.83 1596.96 1414.78 1589.43 Q1407.77 1581.85 1407.77 1567.74 Q1407.77 1558.62 1410.8 1551.77 Q1413.82 1544.93 1419.97 1541.54 Q1426.18 1538.09 1433.45 1538.09 Q1442.62 1538.09 1448.46 1542.76 Q1454.29 1547.37 1455.94 1555.91 L1446.65 1557.34 Q1445.33 1551.67 1441.93 1548.8 Q1438.59 1545.94 1433.82 1545.94 Q1426.6 1545.94 1422.09 1551.14 Q1417.59 1556.28 1417.59 1567.47 Q1417.59 1578.82 1421.94 1583.97 Q1426.29 1589.11 1433.29 1589.11 Q1438.91 1589.11 1442.68 1585.67 Q1446.44 1582.22 1447.45 1575.06 Z" fill="#000000" fill-rule="nonzero" fill-opacity="1" /><path clip-path="url(#clip780)" d="M1465.01 1595.69 L1465.01 1517.93 L1474.55 1517.93 L1474.55 1545.83 Q1481.24 1538.09 1491.42 1538.09 Q1497.68 1538.09 1502.29 1540.58 Q1506.91 1543.02 1508.87 1547.37 Q1510.89 1551.72 1510.89 1559.99 L1510.89 1595.69 L1501.34 1595.69 L1501.34 1559.99 Q1501.34 1552.83 1498.21 1549.6 Q1495.13 1546.31 1489.46 1546.31 Q1485.22 1546.31 1481.45 1548.54 Q1477.74 1550.71 1476.15 1554.48 Q1474.55 1558.24 1474.55 1564.87 L1474.55 1595.69 L1465.01 1595.69 Z" fill="#000000" fill-rule="nonzero" fill-opacity="1" /><polyline clip-path="url(#clip780)" style="stroke:#000000; stroke-linecap:round; stroke-linejoin:round; stroke-width:4; stroke-opacity:1; fill:none" points="384.395,1349.74 384.395,47.2441 "/>
<polyline clip-path="url(#clip780)" style="stroke:#000000; stroke-linecap:round; stroke-linejoin:round; stroke-width:2; stroke-opacity:0.5; fill:none" points="2352.76,1349.74 2352.76,47.2441 "/>
<polyline clip-path="url(#clip780)" style="stroke:#000000; stroke-linecap:round; stroke-linejoin:round; stroke-width:4; stroke-opacity:1; fill:none" points="384.395,1183.83 403.292,1183.83 "/>
<polyline clip-path="url(#clip780)" style="stroke:#000000; stroke-linecap:round; stroke-linejoin:round; stroke-width:4; stroke-opacity:1; fill:none" points="384.395,982.416 403.292,982.416 "/>
<polyline clip-path="url(#clip780)" style="stroke:#000000; stroke-linecap:round; stroke-linejoin:round; stroke-width:4; stroke-opacity:1; fill:none" points="384.395,781.004 403.292,781.004 "/>
<polyline clip-path="url(#clip780)" style="stroke:#000000; stroke-linecap:round; stroke-linejoin:round; stroke-width:4; stroke-opacity:1; fill:none" points="384.395,579.592 403.292,579.592 "/>
<polyline clip-path="url(#clip780)" style="stroke:#000000; stroke-linecap:round; stroke-linejoin:round; stroke-width:4; stroke-opacity:1; fill:none" points="384.395,378.181 403.292,378.181 "/>
<polyline clip-path="url(#clip780)" style="stroke:#000000; stroke-linecap:round; stroke-linejoin:round; stroke-width:4; stroke-opacity:1; fill:none" points="384.395,176.769 403.292,176.769 "/>
<path clip-path="url(#clip780)" d="M182.638 1222.71 L173.09 1222.71 L173.09 1161.87 Q169.642 1165.16 164.02 1168.45 Q158.45 1171.73 153.995 1173.38 L153.995 1164.15 Q162.004 1160.38 167.998 1155.03 Q173.992 1149.67 176.485 1144.63 L182.638 1144.63 L182.638 1222.71 Z" fill="#000000" fill-rule="nonzero" fill-opacity="1" /><path clip-path="url(#clip780)" d="M212.447 1222.71 L212.447 1211.83 L223.321 1211.83 L223.321 1222.71 L212.447 1222.71 Z" fill="#000000" fill-rule="nonzero" fill-opacity="1" /><path clip-path="url(#clip780)" d="M237.271 1184.36 Q237.271 1170.57 240.082 1162.19 Q242.947 1153.75 248.516 1149.19 Q254.139 1144.63 262.625 1144.63 Q268.884 1144.63 273.605 1147.18 Q278.326 1149.67 281.402 1154.44 Q284.479 1159.16 286.229 1166.01 Q287.98 1172.79 287.98 1184.36 Q287.98 1198.04 285.168 1206.48 Q282.357 1214.86 276.735 1219.47 Q271.165 1224.03 262.625 1224.03 Q251.38 1224.03 244.962 1215.97 Q237.271 1206.26 237.271 1184.36 M247.084 1184.36 Q247.084 1203.51 251.54 1209.87 Q256.048 1216.18 262.625 1216.18 Q269.203 1216.18 273.658 1209.82 Q278.167 1203.45 278.167 1184.36 Q278.167 1165.16 273.658 1158.84 Q269.203 1152.53 262.519 1152.53 Q255.942 1152.53 252.017 1158.1 Q247.084 1165.21 247.084 1184.36 Z" fill="#000000" fill-rule="nonzero" fill-opacity="1" /><path clip-path="url(#clip780)" d="M297.686 1184.36 Q297.686 1170.57 300.498 1162.19 Q303.362 1153.75 308.931 1149.19 Q314.554 1144.63 323.041 1144.63 Q329.3 1144.63 334.02 1147.18 Q338.741 1149.67 341.817 1154.44 Q344.894 1159.16 346.644 1166.01 Q348.395 1172.79 348.395 1184.36 Q348.395 1198.04 345.583 1206.48 Q342.772 1214.86 337.15 1219.47 Q331.58 1224.03 323.041 1224.03 Q311.796 1224.03 305.377 1215.97 Q297.686 1206.26 297.686 1184.36 M307.499 1184.36 Q307.499 1203.51 311.955 1209.87 Q316.463 1216.18 323.041 1216.18 Q329.618 1216.18 334.073 1209.82 Q338.582 1203.45 338.582 1184.36 Q338.582 1165.16 334.073 1158.84 Q329.618 1152.53 322.934 1152.53 Q316.357 1152.53 312.432 1158.1 Q307.499 1165.21 307.499 1184.36 Z" fill="#000000" fill-rule="nonzero" fill-opacity="1" /><path clip-path="url(#clip780)" d="M181.789 1021.3 L172.241 1021.3 L172.241 960.456 Q168.794 963.745 163.171 967.034 Q157.602 970.322 153.146 971.967 L153.146 962.737 Q161.155 958.971 167.149 953.614 Q173.143 948.257 175.636 943.218 L181.789 943.218 L181.789 1021.3 Z" fill="#000000" fill-rule="nonzero" fill-opacity="1" /><path clip-path="url(#clip780)" d="M211.599 1021.3 L211.599 1010.42 L222.472 1010.42 L222.472 1021.3 L211.599 1021.3 Z" fill="#000000" fill-rule="nonzero" fill-opacity="1" /><path clip-path="url(#clip780)" d="M286.6 1012.12 L286.6 1021.3 L235.202 1021.3 Q235.096 1017.85 236.316 1014.67 Q238.279 1009.41 242.575 1004.32 Q246.925 999.23 255.093 992.547 Q267.77 982.151 272.226 976.104 Q276.682 970.004 276.682 964.594 Q276.682 958.918 272.597 955.046 Q268.566 951.121 262.042 951.121 Q255.146 951.121 251.009 955.258 Q246.872 959.395 246.819 966.715 L237.006 965.708 Q238.014 954.728 244.591 948.999 Q251.168 943.218 262.254 943.218 Q273.446 943.218 279.97 949.424 Q286.494 955.629 286.494 964.806 Q286.494 969.474 284.585 973.982 Q282.675 978.491 278.22 983.477 Q273.817 988.463 263.527 997.162 Q254.934 1004.38 252.494 1006.97 Q250.054 1009.52 248.463 1012.12 L286.6 1012.12 Z" fill="#000000" fill-rule="nonzero" fill-opacity="1" /><path clip-path="url(#clip780)" d="M296.838 1000.93 L306.863 1000.08 Q307.977 1007.4 312.008 1011.11 Q316.092 1014.77 321.821 1014.77 Q328.716 1014.77 333.49 1009.57 Q338.264 1004.38 338.264 995.782 Q338.264 987.614 333.649 982.893 Q329.087 978.172 321.661 978.172 Q317.047 978.172 313.334 980.294 Q309.621 982.363 307.499 985.704 L298.535 984.538 L306.067 944.597 L344.735 944.597 L344.735 953.72 L313.705 953.72 L309.515 974.619 Q316.516 969.739 324.207 969.739 Q334.392 969.739 341.393 976.793 Q348.395 983.848 348.395 994.934 Q348.395 1005.49 342.242 1013.18 Q334.763 1022.62 321.821 1022.62 Q311.212 1022.62 304.476 1016.68 Q297.792 1010.74 296.838 1000.93 Z" fill="#000000" fill-rule="nonzero" fill-opacity="1" /><path clip-path="url(#clip780)" d="M182.638 819.884 L173.09 819.884 L173.09 759.045 Q169.642 762.333 164.02 765.622 Q158.45 768.91 153.995 770.555 L153.995 761.325 Q162.004 757.559 167.998 752.202 Q173.992 746.845 176.485 741.806 L182.638 741.806 L182.638 819.884 Z" fill="#000000" fill-rule="nonzero" fill-opacity="1" /><path clip-path="url(#clip780)" d="M212.447 819.884 L212.447 809.01 L223.321 809.01 L223.321 819.884 L212.447 819.884 Z" fill="#000000" fill-rule="nonzero" fill-opacity="1" /><path clip-path="url(#clip780)" d="M237.271 799.516 L247.296 798.667 Q248.41 805.987 252.441 809.7 Q256.525 813.36 262.254 813.36 Q269.15 813.36 273.923 808.162 Q278.697 802.964 278.697 794.371 Q278.697 786.202 274.082 781.481 Q269.521 776.761 262.095 776.761 Q257.48 776.761 253.767 778.882 Q250.054 780.951 247.933 784.293 L238.968 783.126 L246.5 743.185 L285.168 743.185 L285.168 752.308 L254.139 752.308 L249.948 773.207 Q256.95 768.327 264.641 768.327 Q274.825 768.327 281.827 775.382 Q288.828 782.436 288.828 793.522 Q288.828 804.077 282.675 811.769 Q275.196 821.21 262.254 821.21 Q251.646 821.21 244.909 815.269 Q238.226 809.329 237.271 799.516 Z" fill="#000000" fill-rule="nonzero" fill-opacity="1" /><path clip-path="url(#clip780)" d="M297.686 781.535 Q297.686 767.744 300.498 759.363 Q303.362 750.929 308.931 746.367 Q314.554 741.806 323.041 741.806 Q329.3 741.806 334.02 744.352 Q338.741 746.845 341.817 751.619 Q344.894 756.339 346.644 763.182 Q348.395 769.971 348.395 781.535 Q348.395 795.219 345.583 803.653 Q342.772 812.034 337.15 816.648 Q331.58 821.21 323.041 821.21 Q311.796 821.21 305.377 813.148 Q297.686 803.441 297.686 781.535 M307.499 781.535 Q307.499 800.683 311.955 807.048 Q316.463 813.36 323.041 813.36 Q329.618 813.36 334.073 806.995 Q338.582 800.63 338.582 781.535 Q338.582 762.333 334.073 756.021 Q329.618 749.709 322.934 749.709 Q316.357 749.709 312.432 755.279 Q307.499 762.386 307.499 781.535 Z" fill="#000000" fill-rule="nonzero" fill-opacity="1" /><path clip-path="url(#clip780)" d="M181.789 618.472 L172.241 618.472 L172.241 557.633 Q168.794 560.921 163.171 564.21 Q157.602 567.499 153.146 569.143 L153.146 559.914 Q161.155 556.148 167.149 550.79 Q173.143 545.433 175.636 540.394 L181.789 540.394 L181.789 618.472 Z" fill="#000000" fill-rule="nonzero" fill-opacity="1" /><path clip-path="url(#clip780)" d="M211.599 618.472 L211.599 607.599 L222.472 607.599 L222.472 618.472 L211.599 618.472 Z" fill="#000000" fill-rule="nonzero" fill-opacity="1" /><path clip-path="url(#clip780)" d="M237.059 550.896 L237.059 541.72 L287.396 541.72 L287.396 549.146 Q279.97 557.049 272.65 570.151 Q265.384 583.252 261.405 597.096 Q258.541 606.856 257.745 618.472 L247.933 618.472 Q248.092 609.296 251.54 596.301 Q254.987 583.305 261.405 571.265 Q267.877 559.171 275.143 550.896 L237.059 550.896 Z" fill="#000000" fill-rule="nonzero" fill-opacity="1" /><path clip-path="url(#clip780)" d="M296.838 598.104 L306.863 597.255 Q307.977 604.575 312.008 608.288 Q316.092 611.948 321.821 611.948 Q328.716 611.948 333.49 606.75 Q338.264 601.552 338.264 592.959 Q338.264 584.79 333.649 580.07 Q329.087 575.349 321.661 575.349 Q317.047 575.349 313.334 577.471 Q309.621 579.539 307.499 582.881 L298.535 581.714 L306.067 541.773 L344.735 541.773 L344.735 550.896 L313.705 550.896 L309.515 571.795 Q316.516 566.915 324.207 566.915 Q334.392 566.915 341.393 573.97 Q348.395 581.024 348.395 592.11 Q348.395 602.666 342.242 610.357 Q334.763 619.798 321.821 619.798 Q311.212 619.798 304.476 613.858 Q297.792 607.917 296.838 598.104 Z" fill="#000000" fill-rule="nonzero" fill-opacity="1" /><path clip-path="url(#clip780)" d="M196.853 407.884 L196.853 417.061 L145.455 417.061 Q145.349 413.613 146.569 410.43 Q148.531 405.179 152.828 400.087 Q157.177 394.995 165.346 388.312 Q178.023 377.915 182.478 371.869 Q186.934 365.769 186.934 360.358 Q186.934 354.683 182.85 350.811 Q178.819 346.886 172.294 346.886 Q165.399 346.886 161.262 351.023 Q157.124 355.16 157.071 362.48 L147.258 361.472 Q148.266 350.492 154.843 344.764 Q161.421 338.982 172.506 338.982 Q183.698 338.982 190.223 345.188 Q196.747 351.394 196.747 360.571 Q196.747 365.238 194.837 369.747 Q192.928 374.255 188.472 379.241 Q184.07 384.227 173.78 392.926 Q165.187 400.14 162.747 402.739 Q160.307 405.285 158.715 407.884 L196.853 407.884 Z" fill="#000000" fill-rule="nonzero" fill-opacity="1" /><path clip-path="url(#clip780)" d="M212.447 417.061 L212.447 406.187 L223.321 406.187 L223.321 417.061 L212.447 417.061 Z" fill="#000000" fill-rule="nonzero" fill-opacity="1" /><path clip-path="url(#clip780)" d="M237.271 378.711 Q237.271 364.92 240.082 356.539 Q242.947 348.106 248.516 343.544 Q254.139 338.982 262.625 338.982 Q268.884 338.982 273.605 341.528 Q278.326 344.021 281.402 348.795 Q284.479 353.516 286.229 360.358 Q287.98 367.148 287.98 378.711 Q287.98 392.396 285.168 400.83 Q282.357 409.21 276.735 413.825 Q271.165 418.387 262.625 418.387 Q251.38 418.387 244.962 410.324 Q237.271 400.617 237.271 378.711 M247.084 378.711 Q247.084 397.859 251.54 404.224 Q256.048 410.536 262.625 410.536 Q269.203 410.536 273.658 404.171 Q278.167 397.806 278.167 378.711 Q278.167 359.51 273.658 353.198 Q269.203 346.886 262.519 346.886 Q255.942 346.886 252.017 352.455 Q247.084 359.563 247.084 378.711 Z" fill="#000000" fill-rule="nonzero" fill-opacity="1" /><path clip-path="url(#clip780)" d="M297.686 378.711 Q297.686 364.92 300.498 356.539 Q303.362 348.106 308.931 343.544 Q314.554 338.982 323.041 338.982 Q329.3 338.982 334.02 341.528 Q338.741 344.021 341.817 348.795 Q344.894 353.516 346.644 360.358 Q348.395 367.148 348.395 378.711 Q348.395 392.396 345.583 400.83 Q342.772 409.21 337.15 413.825 Q331.58 418.387 323.041 418.387 Q311.796 418.387 305.377 410.324 Q297.686 400.617 297.686 378.711 M307.499 378.711 Q307.499 397.859 311.955 404.224 Q316.463 410.536 323.041 410.536 Q329.618 410.536 334.073 404.171 Q338.582 397.806 338.582 378.711 Q338.582 359.51 334.073 353.198 Q329.618 346.886 322.934 346.886 Q316.357 346.886 312.432 352.455 Q307.499 359.563 307.499 378.711 Z" fill="#000000" fill-rule="nonzero" fill-opacity="1" /><path clip-path="url(#clip780)" d="M196.004 206.472 L196.004 215.649 L144.606 215.649 Q144.5 212.201 145.72 209.018 Q147.683 203.767 151.979 198.675 Q156.329 193.583 164.497 186.9 Q177.174 176.504 181.63 170.457 Q186.085 164.357 186.085 158.947 Q186.085 153.271 182.001 149.399 Q177.97 145.474 171.446 145.474 Q164.55 145.474 160.413 149.611 Q156.276 153.748 156.223 161.068 L146.41 160.06 Q147.417 149.081 153.995 143.352 Q160.572 137.571 171.658 137.571 Q182.85 137.571 189.374 143.776 Q195.898 149.982 195.898 159.159 Q195.898 163.826 193.989 168.335 Q192.079 172.844 187.624 177.83 Q183.221 182.816 172.931 191.515 Q164.338 198.728 161.898 201.327 Q159.458 203.873 157.867 206.472 L196.004 206.472 Z" fill="#000000" fill-rule="nonzero" fill-opacity="1" /><path clip-path="url(#clip780)" d="M211.599 215.649 L211.599 204.775 L222.472 204.775 L222.472 215.649 L211.599 215.649 Z" fill="#000000" fill-rule="nonzero" fill-opacity="1" /><path clip-path="url(#clip780)" d="M286.6 206.472 L286.6 215.649 L235.202 215.649 Q235.096 212.201 236.316 209.018 Q238.279 203.767 242.575 198.675 Q246.925 193.583 255.093 186.9 Q267.77 176.504 272.226 170.457 Q276.682 164.357 276.682 158.947 Q276.682 153.271 272.597 149.399 Q268.566 145.474 262.042 145.474 Q255.146 145.474 251.009 149.611 Q246.872 153.748 246.819 161.068 L237.006 160.06 Q238.014 149.081 244.591 143.352 Q251.168 137.571 262.254 137.571 Q273.446 137.571 279.97 143.776 Q286.494 149.982 286.494 159.159 Q286.494 163.826 284.585 168.335 Q282.675 172.844 278.22 177.83 Q273.817 182.816 263.527 191.515 Q254.934 198.728 252.494 201.327 Q250.054 203.873 248.463 206.472 L286.6 206.472 Z" fill="#000000" fill-rule="nonzero" fill-opacity="1" /><path clip-path="url(#clip780)" d="M296.838 195.281 L306.863 194.432 Q307.977 201.752 312.008 205.465 Q316.092 209.125 321.821 209.125 Q328.716 209.125 333.49 203.926 Q338.264 198.728 338.264 190.135 Q338.264 181.967 333.649 177.246 Q329.087 172.525 321.661 172.525 Q317.047 172.525 313.334 174.647 Q309.621 176.716 307.499 180.057 L298.535 178.89 L306.067 138.95 L344.735 138.95 L344.735 148.073 L313.705 148.073 L309.515 168.972 Q316.516 164.092 324.207 164.092 Q334.392 164.092 341.393 171.146 Q348.395 178.201 348.395 189.287 Q348.395 199.842 342.242 207.533 Q334.763 216.975 321.821 216.975 Q311.212 216.975 304.476 211.034 Q297.792 205.093 296.838 195.281 Z" fill="#000000" fill-rule="nonzero" fill-opacity="1" /><path clip-path="url(#clip780)" d="M85.1722 789.513 L7.41216 789.513 L7.41216 779.965 L85.1722 779.965 L85.1722 789.513 Z" fill="#000000" fill-rule="nonzero" fill-opacity="1" /><path clip-path="url(#clip780)" d="M57.0067 768.72 Q41.3592 768.72 33.8272 760.021 Q27.5682 752.754 27.5682 742.305 Q27.5682 730.689 35.2063 723.316 Q42.7914 715.943 56.2111 715.943 Q67.0847 715.943 73.3437 719.232 Q79.5497 722.467 82.9974 728.726 Q86.4452 734.932 86.4452 742.305 Q86.4452 754.133 78.8601 761.453 Q71.2751 768.72 57.0067 768.72 M57.0067 758.907 Q67.8273 758.907 73.2376 754.186 Q78.5949 749.466 78.5949 742.305 Q78.5949 735.197 73.1846 730.476 Q67.7743 725.756 56.6884 725.756 Q46.2391 725.756 40.8818 730.53 Q35.4715 735.25 35.4715 742.305 Q35.4715 749.466 40.8288 754.186 Q46.1861 758.907 57.0067 758.907 Z" fill="#000000" fill-rule="nonzero" fill-opacity="1" /><path clip-path="url(#clip780)" d="M68.3578 708.57 L66.8726 699.128 Q72.5481 698.333 75.5715 694.726 Q78.5949 691.066 78.5949 684.542 Q78.5949 677.965 75.9428 674.782 Q73.2376 671.6 69.6308 671.6 Q66.3952 671.6 64.5387 674.411 Q63.2657 676.373 61.3031 684.171 Q58.651 694.673 56.7415 698.757 Q54.7789 702.788 51.3842 704.91 Q47.9365 706.979 43.7992 706.979 Q40.0332 706.979 36.8506 705.281 Q33.615 703.531 31.4934 700.561 Q29.849 698.333 28.7352 694.514 Q27.5682 690.642 27.5682 686.239 Q27.5682 679.609 29.4778 674.623 Q31.3873 669.584 34.6759 667.197 Q37.9115 664.81 43.3748 663.908 L44.6478 673.244 Q40.2984 673.88 37.8584 676.957 Q35.4185 679.98 35.4185 685.55 Q35.4185 692.127 37.5932 694.938 Q39.768 697.749 42.6853 697.749 Q44.5418 697.749 46.0269 696.582 Q47.5652 695.416 48.573 692.923 Q49.1034 691.49 51.0129 684.489 Q53.7181 674.358 55.4685 670.38 Q57.1658 666.348 60.4544 664.068 Q63.7431 661.787 68.623 661.787 Q73.3968 661.787 77.6402 664.598 Q81.8305 667.356 84.1644 672.607 Q86.4452 677.859 86.4452 684.489 Q86.4452 695.469 81.8835 701.25 Q77.3219 706.979 68.3578 708.57 Z" fill="#000000" fill-rule="nonzero" fill-opacity="1" /><path clip-path="url(#clip780)" d="M68.3578 654.255 L66.8726 644.813 Q72.5481 644.018 75.5715 640.411 Q78.5949 636.751 78.5949 630.227 Q78.5949 623.649 75.9428 620.467 Q73.2376 617.284 69.6308 617.284 Q66.3952 617.284 64.5387 620.095 Q63.2657 622.058 61.3031 629.855 Q58.651 640.358 56.7415 644.442 Q54.7789 648.473 51.3842 650.595 Q47.9365 652.663 43.7992 652.663 Q40.0332 652.663 36.8506 650.966 Q33.615 649.216 31.4934 646.245 Q29.849 644.018 28.7352 640.198 Q27.5682 636.326 27.5682 631.924 Q27.5682 625.294 29.4778 620.308 Q31.3873 615.269 34.6759 612.882 Q37.9115 610.495 43.3748 609.593 L44.6478 618.929 Q40.2984 619.565 37.8584 622.641 Q35.4185 625.665 35.4185 631.234 Q35.4185 637.812 37.5932 640.623 Q39.768 643.434 42.6853 643.434 Q44.5418 643.434 46.0269 642.267 Q47.5652 641.1 48.573 638.607 Q49.1034 637.175 51.0129 630.173 Q53.7181 620.042 55.4685 616.064 Q57.1658 612.033 60.4544 609.752 Q63.7431 607.471 68.623 607.471 Q73.3968 607.471 77.6402 610.283 Q81.8305 613.041 84.1644 618.292 Q86.4452 623.543 86.4452 630.173 Q86.4452 641.153 81.8835 646.935 Q77.3219 652.663 68.3578 654.255 Z" fill="#000000" fill-rule="nonzero" fill-opacity="1" /><polyline clip-path="url(#clip782)" style="stroke:#009af9; stroke-linecap:round; stroke-linejoin:round; stroke-width:8; stroke-opacity:1; fill:none" points="384.395,47.2441 434.866,214.109 485.336,358.814 535.807,484.35 586.278,593.306 636.749,687.92 687.22,770.125 737.69,841.594 788.161,903.773 838.632,957.912 889.103,1005.09 939.574,1046.25 990.044,1082.19 1040.52,1113.61 1090.99,1141.12 1141.46,1165.24 1191.93,1186.42 1242.4,1205.05 1292.87,1221.48 1343.34,1235.98 1393.81,1248.82 1444.28,1260.22 1494.75,1270.36 1545.22,1279.4 1595.69,1287.5 1646.16,1294.77 1696.64,1301.31 1747.11,1307.23 1797.58,1312.59 1848.05,1317.48 1898.52,1321.94 1948.99,1326.03 1999.46,1329.8 2049.93,1333.27 2100.4,1336.5 2150.87,1339.5 2201.34,1342.31 2251.81,1344.94 2302.29,1347.41 2352.76,1349.74 "/>
<circle clip-path="url(#clip782)" cx="384.395" cy="47.2441" r="3.6" fill="#009af9" fill-rule="evenodd" fill-opacity="1" stroke="#000000" stroke-opacity="1" stroke-width="3.2"/>
<circle clip-path="url(#clip782)" cx="434.866" cy="214.109" r="3.6" fill="#009af9" fill-rule="evenodd" fill-opacity="1" stroke="#000000" stroke-opacity="1" stroke-width="3.2"/>
<circle clip-path="url(#clip782)" cx="485.336" cy="358.814" r="3.6" fill="#009af9" fill-rule="evenodd" fill-opacity="1" stroke="#000000" stroke-opacity="1" stroke-width="3.2"/>
<circle clip-path="url(#clip782)" cx="535.807" cy="484.35" r="3.6" fill="#009af9" fill-rule="evenodd" fill-opacity="1" stroke="#000000" stroke-opacity="1" stroke-width="3.2"/>
<circle clip-path="url(#clip782)" cx="586.278" cy="593.306" r="3.6" fill="#009af9" fill-rule="evenodd" fill-opacity="1" stroke="#000000" stroke-opacity="1" stroke-width="3.2"/>
<circle clip-path="url(#clip782)" cx="636.749" cy="687.92" r="3.6" fill="#009af9" fill-rule="evenodd" fill-opacity="1" stroke="#000000" stroke-opacity="1" stroke-width="3.2"/>
<circle clip-path="url(#clip782)" cx="687.22" cy="770.125" r="3.6" fill="#009af9" fill-rule="evenodd" fill-opacity="1" stroke="#000000" stroke-opacity="1" stroke-width="3.2"/>
<circle clip-path="url(#clip782)" cx="737.69" cy="841.594" r="3.6" fill="#009af9" fill-rule="evenodd" fill-opacity="1" stroke="#000000" stroke-opacity="1" stroke-width="3.2"/>
<circle clip-path="url(#clip782)" cx="788.161" cy="903.773" r="3.6" fill="#009af9" fill-rule="evenodd" fill-opacity="1" stroke="#000000" stroke-opacity="1" stroke-width="3.2"/>
<circle clip-path="url(#clip782)" cx="838.632" cy="957.912" r="3.6" fill="#009af9" fill-rule="evenodd" fill-opacity="1" stroke="#000000" stroke-opacity="1" stroke-width="3.2"/>
<circle clip-path="url(#clip782)" cx="889.103" cy="1005.09" r="3.6" fill="#009af9" fill-rule="evenodd" fill-opacity="1" stroke="#000000" stroke-opacity="1" stroke-width="3.2"/>
<circle clip-path="url(#clip782)" cx="939.574" cy="1046.25" r="3.6" fill="#009af9" fill-rule="evenodd" fill-opacity="1" stroke="#000000" stroke-opacity="1" stroke-width="3.2"/>
<circle clip-path="url(#clip782)" cx="990.044" cy="1082.19" r="3.6" fill="#009af9" fill-rule="evenodd" fill-opacity="1" stroke="#000000" stroke-opacity="1" stroke-width="3.2"/>
<circle clip-path="url(#clip782)" cx="1040.52" cy="1113.61" r="3.6" fill="#009af9" fill-rule="evenodd" fill-opacity="1" stroke="#000000" stroke-opacity="1" stroke-width="3.2"/>
<circle clip-path="url(#clip782)" cx="1090.99" cy="1141.12" r="3.6" fill="#009af9" fill-rule="evenodd" fill-opacity="1" stroke="#000000" stroke-opacity="1" stroke-width="3.2"/>
<circle clip-path="url(#clip782)" cx="1141.46" cy="1165.24" r="3.6" fill="#009af9" fill-rule="evenodd" fill-opacity="1" stroke="#000000" stroke-opacity="1" stroke-width="3.2"/>
<circle clip-path="url(#clip782)" cx="1191.93" cy="1186.42" r="3.6" fill="#009af9" fill-rule="evenodd" fill-opacity="1" stroke="#000000" stroke-opacity="1" stroke-width="3.2"/>
<circle clip-path="url(#clip782)" cx="1242.4" cy="1205.05" r="3.6" fill="#009af9" fill-rule="evenodd" fill-opacity="1" stroke="#000000" stroke-opacity="1" stroke-width="3.2"/>
<circle clip-path="url(#clip782)" cx="1292.87" cy="1221.48" r="3.6" fill="#009af9" fill-rule="evenodd" fill-opacity="1" stroke="#000000" stroke-opacity="1" stroke-width="3.2"/>
<circle clip-path="url(#clip782)" cx="1343.34" cy="1235.98" r="3.6" fill="#009af9" fill-rule="evenodd" fill-opacity="1" stroke="#000000" stroke-opacity="1" stroke-width="3.2"/>
<circle clip-path="url(#clip782)" cx="1393.81" cy="1248.82" r="3.6" fill="#009af9" fill-rule="evenodd" fill-opacity="1" stroke="#000000" stroke-opacity="1" stroke-width="3.2"/>
<circle clip-path="url(#clip782)" cx="1444.28" cy="1260.22" r="3.6" fill="#009af9" fill-rule="evenodd" fill-opacity="1" stroke="#000000" stroke-opacity="1" stroke-width="3.2"/>
<circle clip-path="url(#clip782)" cx="1494.75" cy="1270.36" r="3.6" fill="#009af9" fill-rule="evenodd" fill-opacity="1" stroke="#000000" stroke-opacity="1" stroke-width="3.2"/>
<circle clip-path="url(#clip782)" cx="1545.22" cy="1279.4" r="3.6" fill="#009af9" fill-rule="evenodd" fill-opacity="1" stroke="#000000" stroke-opacity="1" stroke-width="3.2"/>
<circle clip-path="url(#clip782)" cx="1595.69" cy="1287.5" r="3.6" fill="#009af9" fill-rule="evenodd" fill-opacity="1" stroke="#000000" stroke-opacity="1" stroke-width="3.2"/>
<circle clip-path="url(#clip782)" cx="1646.16" cy="1294.77" r="3.6" fill="#009af9" fill-rule="evenodd" fill-opacity="1" stroke="#000000" stroke-opacity="1" stroke-width="3.2"/>
<circle clip-path="url(#clip782)" cx="1696.64" cy="1301.31" r="3.6" fill="#009af9" fill-rule="evenodd" fill-opacity="1" stroke="#000000" stroke-opacity="1" stroke-width="3.2"/>
<circle clip-path="url(#clip782)" cx="1747.11" cy="1307.23" r="3.6" fill="#009af9" fill-rule="evenodd" fill-opacity="1" stroke="#000000" stroke-opacity="1" stroke-width="3.2"/>
<circle clip-path="url(#clip782)" cx="1797.58" cy="1312.59" r="3.6" fill="#009af9" fill-rule="evenodd" fill-opacity="1" stroke="#000000" stroke-opacity="1" stroke-width="3.2"/>
<circle clip-path="url(#clip782)" cx="1848.05" cy="1317.48" r="3.6" fill="#009af9" fill-rule="evenodd" fill-opacity="1" stroke="#000000" stroke-opacity="1" stroke-width="3.2"/>
<circle clip-path="url(#clip782)" cx="1898.52" cy="1321.94" r="3.6" fill="#009af9" fill-rule="evenodd" fill-opacity="1" stroke="#000000" stroke-opacity="1" stroke-width="3.2"/>
<circle clip-path="url(#clip782)" cx="1948.99" cy="1326.03" r="3.6" fill="#009af9" fill-rule="evenodd" fill-opacity="1" stroke="#000000" stroke-opacity="1" stroke-width="3.2"/>
<circle clip-path="url(#clip782)" cx="1999.46" cy="1329.8" r="3.6" fill="#009af9" fill-rule="evenodd" fill-opacity="1" stroke="#000000" stroke-opacity="1" stroke-width="3.2"/>
<circle clip-path="url(#clip782)" cx="2049.93" cy="1333.27" r="3.6" fill="#009af9" fill-rule="evenodd" fill-opacity="1" stroke="#000000" stroke-opacity="1" stroke-width="3.2"/>
<circle clip-path="url(#clip782)" cx="2100.4" cy="1336.5" r="3.6" fill="#009af9" fill-rule="evenodd" fill-opacity="1" stroke="#000000" stroke-opacity="1" stroke-width="3.2"/>
<circle clip-path="url(#clip782)" cx="2150.87" cy="1339.5" r="3.6" fill="#009af9" fill-rule="evenodd" fill-opacity="1" stroke="#000000" stroke-opacity="1" stroke-width="3.2"/>
<circle clip-path="url(#clip782)" cx="2201.34" cy="1342.31" r="3.6" fill="#009af9" fill-rule="evenodd" fill-opacity="1" stroke="#000000" stroke-opacity="1" stroke-width="3.2"/>
<circle clip-path="url(#clip782)" cx="2251.81" cy="1344.94" r="3.6" fill="#009af9" fill-rule="evenodd" fill-opacity="1" stroke="#000000" stroke-opacity="1" stroke-width="3.2"/>
<circle clip-path="url(#clip782)" cx="2302.29" cy="1347.41" r="3.6" fill="#009af9" fill-rule="evenodd" fill-opacity="1" stroke="#000000" stroke-opacity="1" stroke-width="3.2"/>
<circle clip-path="url(#clip782)" cx="2352.76" cy="1349.74" r="3.6" fill="#009af9" fill-rule="evenodd" fill-opacity="1" stroke="#000000" stroke-opacity="1" stroke-width="3.2"/>
<polyline clip-path="url(#clip782)" style="stroke:#e26f46; stroke-linecap:round; stroke-linejoin:round; stroke-width:8; stroke-opacity:1; fill:none" points="384.395,58.3144 434.866,202.834 485.336,328.846 535.807,438.812 586.278,534.863 636.749,618.842 687.22,692.344 737.69,756.75 788.161,813.256 838.632,862.896 889.103,906.567 939.574,945.045 990.044,979.003 1040.52,1009.02 1090.99,1035.61 1141.46,1059.21 1191.93,1080.19 1242.4,1098.88 1292.87,1115.58 1343.34,1130.53 1393.81,1143.94 1444.28,1156 1494.75,1166.89 1545.22,1176.73 1595.69,1185.65 1646.16,1193.75 1696.64,1201.15 1747.11,1207.9 1797.58,1214.1 1848.05,1219.79 1898.52,1225.03 1948.99,1229.87 1999.46,1234.36 2049.93,1238.52 2100.4,1242.4 2150.87,1246.02 2201.34,1249.4 2251.81,1252.57 2302.29,1255.55 2352.76,1258.35 "/>
<circle clip-path="url(#clip782)" cx="384.395" cy="58.3144" r="3.6" fill="#e26f46" fill-rule="evenodd" fill-opacity="1" stroke="#000000" stroke-opacity="1" stroke-width="3.2"/>
<circle clip-path="url(#clip782)" cx="434.866" cy="202.834" r="3.6" fill="#e26f46" fill-rule="evenodd" fill-opacity="1" stroke="#000000" stroke-opacity="1" stroke-width="3.2"/>
<circle clip-path="url(#clip782)" cx="485.336" cy="328.846" r="3.6" fill="#e26f46" fill-rule="evenodd" fill-opacity="1" stroke="#000000" stroke-opacity="1" stroke-width="3.2"/>
<circle clip-path="url(#clip782)" cx="535.807" cy="438.812" r="3.6" fill="#e26f46" fill-rule="evenodd" fill-opacity="1" stroke="#000000" stroke-opacity="1" stroke-width="3.2"/>
<circle clip-path="url(#clip782)" cx="586.278" cy="534.863" r="3.6" fill="#e26f46" fill-rule="evenodd" fill-opacity="1" stroke="#000000" stroke-opacity="1" stroke-width="3.2"/>
<circle clip-path="url(#clip782)" cx="636.749" cy="618.842" r="3.6" fill="#e26f46" fill-rule="evenodd" fill-opacity="1" stroke="#000000" stroke-opacity="1" stroke-width="3.2"/>
<circle clip-path="url(#clip782)" cx="687.22" cy="692.344" r="3.6" fill="#e26f46" fill-rule="evenodd" fill-opacity="1" stroke="#000000" stroke-opacity="1" stroke-width="3.2"/>
<circle clip-path="url(#clip782)" cx="737.69" cy="756.75" r="3.6" fill="#e26f46" fill-rule="evenodd" fill-opacity="1" stroke="#000000" stroke-opacity="1" stroke-width="3.2"/>
<circle clip-path="url(#clip782)" cx="788.161" cy="813.256" r="3.6" fill="#e26f46" fill-rule="evenodd" fill-opacity="1" stroke="#000000" stroke-opacity="1" stroke-width="3.2"/>
<circle clip-path="url(#clip782)" cx="838.632" cy="862.896" r="3.6" fill="#e26f46" fill-rule="evenodd" fill-opacity="1" stroke="#000000" stroke-opacity="1" stroke-width="3.2"/>
<circle clip-path="url(#clip782)" cx="889.103" cy="906.567" r="3.6" fill="#e26f46" fill-rule="evenodd" fill-opacity="1" stroke="#000000" stroke-opacity="1" stroke-width="3.2"/>
<circle clip-path="url(#clip782)" cx="939.574" cy="945.045" r="3.6" fill="#e26f46" fill-rule="evenodd" fill-opacity="1" stroke="#000000" stroke-opacity="1" stroke-width="3.2"/>
<circle clip-path="url(#clip782)" cx="990.044" cy="979.003" r="3.6" fill="#e26f46" fill-rule="evenodd" fill-opacity="1" stroke="#000000" stroke-opacity="1" stroke-width="3.2"/>
<circle clip-path="url(#clip782)" cx="1040.52" cy="1009.02" r="3.6" fill="#e26f46" fill-rule="evenodd" fill-opacity="1" stroke="#000000" stroke-opacity="1" stroke-width="3.2"/>
<circle clip-path="url(#clip782)" cx="1090.99" cy="1035.61" r="3.6" fill="#e26f46" fill-rule="evenodd" fill-opacity="1" stroke="#000000" stroke-opacity="1" stroke-width="3.2"/>
<circle clip-path="url(#clip782)" cx="1141.46" cy="1059.21" r="3.6" fill="#e26f46" fill-rule="evenodd" fill-opacity="1" stroke="#000000" stroke-opacity="1" stroke-width="3.2"/>
<circle clip-path="url(#clip782)" cx="1191.93" cy="1080.19" r="3.6" fill="#e26f46" fill-rule="evenodd" fill-opacity="1" stroke="#000000" stroke-opacity="1" stroke-width="3.2"/>
<circle clip-path="url(#clip782)" cx="1242.4" cy="1098.88" r="3.6" fill="#e26f46" fill-rule="evenodd" fill-opacity="1" stroke="#000000" stroke-opacity="1" stroke-width="3.2"/>
<circle clip-path="url(#clip782)" cx="1292.87" cy="1115.58" r="3.6" fill="#e26f46" fill-rule="evenodd" fill-opacity="1" stroke="#000000" stroke-opacity="1" stroke-width="3.2"/>
<circle clip-path="url(#clip782)" cx="1343.34" cy="1130.53" r="3.6" fill="#e26f46" fill-rule="evenodd" fill-opacity="1" stroke="#000000" stroke-opacity="1" stroke-width="3.2"/>
<circle clip-path="url(#clip782)" cx="1393.81" cy="1143.94" r="3.6" fill="#e26f46" fill-rule="evenodd" fill-opacity="1" stroke="#000000" stroke-opacity="1" stroke-width="3.2"/>
<circle clip-path="url(#clip782)" cx="1444.28" cy="1156" r="3.6" fill="#e26f46" fill-rule="evenodd" fill-opacity="1" stroke="#000000" stroke-opacity="1" stroke-width="3.2"/>
<circle clip-path="url(#clip782)" cx="1494.75" cy="1166.89" r="3.6" fill="#e26f46" fill-rule="evenodd" fill-opacity="1" stroke="#000000" stroke-opacity="1" stroke-width="3.2"/>
<circle clip-path="url(#clip782)" cx="1545.22" cy="1176.73" r="3.6" fill="#e26f46" fill-rule="evenodd" fill-opacity="1" stroke="#000000" stroke-opacity="1" stroke-width="3.2"/>
<circle clip-path="url(#clip782)" cx="1595.69" cy="1185.65" r="3.6" fill="#e26f46" fill-rule="evenodd" fill-opacity="1" stroke="#000000" stroke-opacity="1" stroke-width="3.2"/>
<circle clip-path="url(#clip782)" cx="1646.16" cy="1193.75" r="3.6" fill="#e26f46" fill-rule="evenodd" fill-opacity="1" stroke="#000000" stroke-opacity="1" stroke-width="3.2"/>
<circle clip-path="url(#clip782)" cx="1696.64" cy="1201.15" r="3.6" fill="#e26f46" fill-rule="evenodd" fill-opacity="1" stroke="#000000" stroke-opacity="1" stroke-width="3.2"/>
<circle clip-path="url(#clip782)" cx="1747.11" cy="1207.9" r="3.6" fill="#e26f46" fill-rule="evenodd" fill-opacity="1" stroke="#000000" stroke-opacity="1" stroke-width="3.2"/>
<circle clip-path="url(#clip782)" cx="1797.58" cy="1214.1" r="3.6" fill="#e26f46" fill-rule="evenodd" fill-opacity="1" stroke="#000000" stroke-opacity="1" stroke-width="3.2"/>
<circle clip-path="url(#clip782)" cx="1848.05" cy="1219.79" r="3.6" fill="#e26f46" fill-rule="evenodd" fill-opacity="1" stroke="#000000" stroke-opacity="1" stroke-width="3.2"/>
<circle clip-path="url(#clip782)" cx="1898.52" cy="1225.03" r="3.6" fill="#e26f46" fill-rule="evenodd" fill-opacity="1" stroke="#000000" stroke-opacity="1" stroke-width="3.2"/>
<circle clip-path="url(#clip782)" cx="1948.99" cy="1229.87" r="3.6" fill="#e26f46" fill-rule="evenodd" fill-opacity="1" stroke="#000000" stroke-opacity="1" stroke-width="3.2"/>
<circle clip-path="url(#clip782)" cx="1999.46" cy="1234.36" r="3.6" fill="#e26f46" fill-rule="evenodd" fill-opacity="1" stroke="#000000" stroke-opacity="1" stroke-width="3.2"/>
<circle clip-path="url(#clip782)" cx="2049.93" cy="1238.52" r="3.6" fill="#e26f46" fill-rule="evenodd" fill-opacity="1" stroke="#000000" stroke-opacity="1" stroke-width="3.2"/>
<circle clip-path="url(#clip782)" cx="2100.4" cy="1242.4" r="3.6" fill="#e26f46" fill-rule="evenodd" fill-opacity="1" stroke="#000000" stroke-opacity="1" stroke-width="3.2"/>
<circle clip-path="url(#clip782)" cx="2150.87" cy="1246.02" r="3.6" fill="#e26f46" fill-rule="evenodd" fill-opacity="1" stroke="#000000" stroke-opacity="1" stroke-width="3.2"/>
<circle clip-path="url(#clip782)" cx="2201.34" cy="1249.4" r="3.6" fill="#e26f46" fill-rule="evenodd" fill-opacity="1" stroke="#000000" stroke-opacity="1" stroke-width="3.2"/>
<circle clip-path="url(#clip782)" cx="2251.81" cy="1252.57" r="3.6" fill="#e26f46" fill-rule="evenodd" fill-opacity="1" stroke="#000000" stroke-opacity="1" stroke-width="3.2"/>
<circle clip-path="url(#clip782)" cx="2302.29" cy="1255.55" r="3.6" fill="#e26f46" fill-rule="evenodd" fill-opacity="1" stroke="#000000" stroke-opacity="1" stroke-width="3.2"/>
<circle clip-path="url(#clip782)" cx="2352.76" cy="1258.35" r="3.6" fill="#e26f46" fill-rule="evenodd" fill-opacity="1" stroke="#000000" stroke-opacity="1" stroke-width="3.2"/>
<path clip-path="url(#clip780)" d="M1631.49 440.581 L2287.14 440.581 L2287.14 90.6606 L1631.49 90.6606  Z" fill="#ffffff" fill-rule="evenodd" fill-opacity="1"/>
<polyline clip-path="url(#clip780)" style="stroke:#000000; stroke-linecap:round; stroke-linejoin:round; stroke-width:4; stroke-opacity:1; fill:none" points="1631.49,440.581 2287.14,440.581 2287.14,90.6606 1631.49,90.6606 1631.49,440.581 "/>
<polyline clip-path="url(#clip780)" style="stroke:#009af9; stroke-linecap:round; stroke-linejoin:round; stroke-width:18; stroke-opacity:1; fill:none" points="1653.36,207.301 1784.59,207.301 "/>
<circle clip-path="url(#clip780)" cx="1718.97" cy="207.301" r="8.10025" fill="#009af9" fill-rule="evenodd" fill-opacity="1" stroke="#000000" stroke-opacity="1" stroke-width="7.20022"/>
<path clip-path="url(#clip780)" d="M1832.55 237.641 L1833.93 246.075 Q1829.9 246.923 1826.72 246.923 Q1821.52 246.923 1818.66 245.279 Q1815.79 243.635 1814.63 240.982 Q1813.46 238.277 1813.46 229.684 L1813.46 197.276 L1806.46 197.276 L1806.46 189.85 L1813.46 189.85 L1813.46 175.9 L1822.95 170.171 L1822.95 189.85 L1832.55 189.85 L1832.55 197.276 L1822.95 197.276 L1822.95 230.215 Q1822.95 234.299 1823.43 235.466 Q1823.96 236.633 1825.08 237.323 Q1826.24 238.012 1828.36 238.012 Q1829.96 238.012 1832.55 237.641 Z" fill="#000000" fill-rule="nonzero" fill-opacity="1" /><path clip-path="url(#clip780)" d="M1841.78 246.181 L1841.78 189.85 L1850.38 189.85 L1850.38 198.39 Q1853.67 192.396 1856.42 190.486 Q1859.23 188.577 1862.58 188.577 Q1867.4 188.577 1872.39 191.653 L1869.1 200.511 Q1865.6 198.443 1862.1 198.443 Q1858.97 198.443 1856.48 200.352 Q1853.98 202.209 1852.92 205.55 Q1851.33 210.642 1851.33 216.689 L1851.33 246.181 L1841.78 246.181 Z" fill="#000000" fill-rule="nonzero" fill-opacity="1" /><path clip-path="url(#clip780)" d="M1914.82 239.232 Q1909.52 243.741 1904.59 245.597 Q1899.71 247.454 1894.08 247.454 Q1884.8 247.454 1879.81 242.945 Q1874.83 238.383 1874.83 231.329 Q1874.83 227.191 1876.69 223.797 Q1878.59 220.349 1881.62 218.28 Q1884.69 216.212 1888.51 215.151 Q1891.33 214.408 1897 213.719 Q1908.56 212.34 1914.03 210.43 Q1914.08 208.468 1914.08 207.937 Q1914.08 202.102 1911.38 199.716 Q1907.72 196.48 1900.5 196.48 Q1893.76 196.48 1890.53 198.867 Q1887.35 201.201 1885.81 207.195 L1876.47 205.922 Q1877.75 199.928 1880.66 196.268 Q1883.58 192.555 1889.1 190.592 Q1894.61 188.577 1901.88 188.577 Q1909.09 188.577 1913.6 190.274 Q1918.11 191.971 1920.23 194.57 Q1922.35 197.116 1923.2 201.042 Q1923.68 203.482 1923.68 209.847 L1923.68 222.577 Q1923.68 235.89 1924.26 239.444 Q1924.9 242.945 1926.7 246.181 L1916.73 246.181 Q1915.25 243.21 1914.82 239.232 M1914.03 217.909 Q1908.83 220.031 1898.43 221.516 Q1892.55 222.365 1890.11 223.425 Q1887.67 224.486 1886.34 226.555 Q1885.01 228.571 1885.01 231.064 Q1885.01 234.883 1887.88 237.429 Q1890.79 239.975 1896.36 239.975 Q1901.88 239.975 1906.18 237.588 Q1910.47 235.148 1912.49 230.957 Q1914.03 227.722 1914.03 221.41 L1914.03 217.909 Z" fill="#000000" fill-rule="nonzero" fill-opacity="1" /><path clip-path="url(#clip780)" d="M1938.53 179.4 L1938.53 168.421 L1948.08 168.421 L1948.08 179.4 L1938.53 179.4 M1938.53 246.181 L1938.53 189.85 L1948.08 189.85 L1948.08 246.181 L1938.53 246.181 Z" fill="#000000" fill-rule="nonzero" fill-opacity="1" /><path clip-path="url(#clip780)" d="M1962.61 246.181 L1962.61 189.85 L1971.21 189.85 L1971.21 197.859 Q1977.41 188.577 1989.14 188.577 Q1994.23 188.577 1998.47 190.433 Q2002.77 192.237 2004.89 195.207 Q2007.01 198.177 2007.86 202.262 Q2008.39 204.914 2008.39 211.544 L2008.39 246.181 L1998.84 246.181 L1998.84 211.915 Q1998.84 206.081 1997.73 203.216 Q1996.61 200.299 1993.75 198.602 Q1990.94 196.851 1987.12 196.851 Q1981.02 196.851 1976.56 200.723 Q1972.16 204.595 1972.16 215.416 L1972.16 246.181 L1962.61 246.181 Z" fill="#000000" fill-rule="nonzero" fill-opacity="1" /><path clip-path="url(#clip780)" d="M2014.22 267.769 L2014.22 260.873 L2077.5 260.873 L2077.5 267.769 L2014.22 267.769 Z" fill="#000000" fill-rule="nonzero" fill-opacity="1" /><path clip-path="url(#clip780)" d="M2083.23 246.181 L2083.23 168.421 L2092.78 168.421 L2092.78 246.181 L2083.23 246.181 Z" fill="#000000" fill-rule="nonzero" fill-opacity="1" /><path clip-path="url(#clip780)" d="M2104.02 218.015 Q2104.02 202.368 2112.72 194.836 Q2119.99 188.577 2130.44 188.577 Q2142.06 188.577 2149.43 196.215 Q2156.8 203.8 2156.8 217.22 Q2156.8 228.093 2153.51 234.352 Q2150.28 240.558 2144.02 244.006 Q2137.81 247.454 2130.44 247.454 Q2118.61 247.454 2111.29 239.869 Q2104.02 232.284 2104.02 218.015 M2113.84 218.015 Q2113.84 228.836 2118.56 234.246 Q2123.28 239.603 2130.44 239.603 Q2137.55 239.603 2142.27 234.193 Q2146.99 228.783 2146.99 217.697 Q2146.99 207.248 2142.22 201.89 Q2137.49 196.48 2130.44 196.48 Q2123.28 196.48 2118.56 201.837 Q2113.84 207.195 2113.84 218.015 Z" fill="#000000" fill-rule="nonzero" fill-opacity="1" /><path clip-path="url(#clip780)" d="M2164.17 229.366 L2173.62 227.881 Q2174.41 233.557 2178.02 236.58 Q2181.68 239.603 2188.2 239.603 Q2194.78 239.603 2197.96 236.951 Q2201.15 234.246 2201.15 230.639 Q2201.15 227.404 2198.33 225.547 Q2196.37 224.274 2188.57 222.312 Q2178.07 219.659 2173.99 217.75 Q2169.96 215.787 2167.83 212.393 Q2165.77 208.945 2165.77 204.808 Q2165.77 201.042 2167.46 197.859 Q2169.21 194.624 2172.18 192.502 Q2174.41 190.858 2178.23 189.744 Q2182.1 188.577 2186.51 188.577 Q2193.14 188.577 2198.12 190.486 Q2203.16 192.396 2205.55 195.684 Q2207.93 198.92 2208.84 204.383 L2199.5 205.656 Q2198.86 201.307 2195.79 198.867 Q2192.76 196.427 2187.19 196.427 Q2180.62 196.427 2177.81 198.602 Q2175 200.776 2175 203.694 Q2175 205.55 2176.16 207.035 Q2177.33 208.574 2179.82 209.581 Q2181.25 210.112 2188.26 212.021 Q2198.39 214.727 2202.37 216.477 Q2206.4 218.174 2208.68 221.463 Q2210.96 224.752 2210.96 229.631 Q2210.96 234.405 2208.15 238.649 Q2205.39 242.839 2200.14 245.173 Q2194.89 247.454 2188.26 247.454 Q2177.28 247.454 2171.49 242.892 Q2165.77 238.33 2164.17 229.366 Z" fill="#000000" fill-rule="nonzero" fill-opacity="1" /><path clip-path="url(#clip780)" d="M2218.49 229.366 L2227.93 227.881 Q2228.73 233.557 2232.33 236.58 Q2235.99 239.603 2242.52 239.603 Q2249.1 239.603 2252.28 236.951 Q2255.46 234.246 2255.46 230.639 Q2255.46 227.404 2252.65 225.547 Q2250.69 224.274 2242.89 222.312 Q2232.39 219.659 2228.3 217.75 Q2224.27 215.787 2222.15 212.393 Q2220.08 208.945 2220.08 204.808 Q2220.08 201.042 2221.78 197.859 Q2223.53 194.624 2226.5 192.502 Q2228.73 190.858 2232.55 189.744 Q2236.42 188.577 2240.82 188.577 Q2247.45 188.577 2252.44 190.486 Q2257.48 192.396 2259.86 195.684 Q2262.25 198.92 2263.15 204.383 L2253.82 205.656 Q2253.18 201.307 2250.1 198.867 Q2247.08 196.427 2241.51 196.427 Q2234.93 196.427 2232.12 198.602 Q2229.31 200.776 2229.31 203.694 Q2229.31 205.55 2230.48 207.035 Q2231.64 208.574 2234.14 209.581 Q2235.57 210.112 2242.57 212.021 Q2252.7 214.727 2256.68 216.477 Q2260.71 218.174 2262.99 221.463 Q2265.27 224.752 2265.27 229.631 Q2265.27 234.405 2262.46 238.649 Q2259.7 242.839 2254.45 245.173 Q2249.2 247.454 2242.57 247.454 Q2231.59 247.454 2225.81 242.892 Q2220.08 238.33 2218.49 229.366 Z" fill="#000000" fill-rule="nonzero" fill-opacity="1" /><polyline clip-path="url(#clip780)" style="stroke:#e26f46; stroke-linecap:round; stroke-linejoin:round; stroke-width:18; stroke-opacity:1; fill:none" points="1653.36,323.941 1784.59,323.941 "/>
<circle clip-path="url(#clip780)" cx="1718.97" cy="323.941" r="8.10025" fill="#e26f46" fill-rule="evenodd" fill-opacity="1" stroke="#000000" stroke-opacity="1" stroke-width="7.20022"/>
<path clip-path="url(#clip780)" d="M1827.89 362.821 L1806.46 306.49 L1816.54 306.49 L1828.63 340.225 Q1830.59 345.688 1832.24 351.576 Q1833.51 347.12 1835.79 340.861 L1848.31 306.49 L1858.12 306.49 L1836.8 362.821 L1827.89 362.821 Z" fill="#000000" fill-rule="nonzero" fill-opacity="1" /><path clip-path="url(#clip780)" d="M1903.31 355.872 Q1898.01 360.381 1893.08 362.237 Q1888.2 364.094 1882.57 364.094 Q1873.29 364.094 1868.3 359.585 Q1863.32 355.023 1863.32 347.969 Q1863.32 343.831 1865.18 340.437 Q1867.08 336.989 1870.11 334.92 Q1873.18 332.852 1877 331.791 Q1879.81 331.048 1885.49 330.359 Q1897.05 328.98 1902.52 327.07 Q1902.57 325.108 1902.57 324.577 Q1902.57 318.742 1899.86 316.356 Q1896.2 313.12 1888.99 313.12 Q1882.25 313.12 1879.02 315.507 Q1875.84 317.841 1874.3 323.835 L1864.96 322.562 Q1866.24 316.568 1869.15 312.908 Q1872.07 309.195 1877.59 307.232 Q1883.1 305.217 1890.37 305.217 Q1897.58 305.217 1902.09 306.914 Q1906.6 308.611 1908.72 311.21 Q1910.84 313.756 1911.69 317.682 Q1912.17 320.122 1912.17 326.487 L1912.17 339.217 Q1912.17 352.53 1912.75 356.084 Q1913.39 359.585 1915.19 362.821 L1905.22 362.821 Q1903.74 359.85 1903.31 355.872 M1902.52 334.549 Q1897.32 336.671 1886.92 338.156 Q1881.03 339.005 1878.59 340.065 Q1876.15 341.126 1874.83 343.195 Q1873.5 345.211 1873.5 347.704 Q1873.5 351.523 1876.37 354.069 Q1879.28 356.615 1884.85 356.615 Q1890.37 356.615 1894.67 354.228 Q1898.96 351.788 1900.98 347.597 Q1902.52 344.362 1902.52 338.05 L1902.52 334.549 Z" fill="#000000" fill-rule="nonzero" fill-opacity="1" /><path clip-path="url(#clip780)" d="M1926.76 362.821 L1926.76 285.061 L1936.3 285.061 L1936.3 362.821 L1926.76 362.821 Z" fill="#000000" fill-rule="nonzero" fill-opacity="1" /><path clip-path="url(#clip780)" d="M1942.3 384.409 L1942.3 377.513 L2005.58 377.513 L2005.58 384.409 L1942.3 384.409 Z" fill="#000000" fill-rule="nonzero" fill-opacity="1" /><path clip-path="url(#clip780)" d="M2011.31 362.821 L2011.31 285.061 L2020.85 285.061 L2020.85 362.821 L2011.31 362.821 Z" fill="#000000" fill-rule="nonzero" fill-opacity="1" /><path clip-path="url(#clip780)" d="M2032.1 334.655 Q2032.1 319.008 2040.8 311.476 Q2048.07 305.217 2058.51 305.217 Q2070.13 305.217 2077.5 312.855 Q2084.88 320.44 2084.88 333.86 Q2084.88 344.733 2081.59 350.992 Q2078.35 357.198 2072.09 360.646 Q2065.89 364.094 2058.51 364.094 Q2046.69 364.094 2039.37 356.509 Q2032.1 348.924 2032.1 334.655 M2041.91 334.655 Q2041.91 345.476 2046.63 350.886 Q2051.35 356.243 2058.51 356.243 Q2065.62 356.243 2070.34 350.833 Q2075.06 345.423 2075.06 334.337 Q2075.06 323.888 2070.29 318.53 Q2065.57 313.12 2058.51 313.12 Q2051.35 313.12 2046.63 318.477 Q2041.91 323.835 2041.91 334.655 Z" fill="#000000" fill-rule="nonzero" fill-opacity="1" /><path clip-path="url(#clip780)" d="M2092.25 346.006 L2101.69 344.521 Q2102.49 350.197 2106.09 353.22 Q2109.75 356.243 2116.28 356.243 Q2122.85 356.243 2126.04 353.591 Q2129.22 350.886 2129.22 347.279 Q2129.22 344.044 2126.41 342.187 Q2124.45 340.914 2116.65 338.952 Q2106.15 336.299 2102.06 334.39 Q2098.03 332.427 2095.91 329.033 Q2093.84 325.585 2093.84 321.448 Q2093.84 317.682 2095.54 314.499 Q2097.29 311.264 2100.26 309.142 Q2102.49 307.498 2106.31 306.384 Q2110.18 305.217 2114.58 305.217 Q2121.21 305.217 2126.2 307.126 Q2131.24 309.036 2133.62 312.324 Q2136.01 315.56 2136.91 321.023 L2127.58 322.296 Q2126.94 317.947 2123.86 315.507 Q2120.84 313.067 2115.27 313.067 Q2108.69 313.067 2105.88 315.242 Q2103.07 317.416 2103.07 320.334 Q2103.07 322.19 2104.24 323.675 Q2105.4 325.214 2107.9 326.221 Q2109.33 326.752 2116.33 328.661 Q2126.46 331.367 2130.44 333.117 Q2134.47 334.814 2136.75 338.103 Q2139.03 341.392 2139.03 346.271 Q2139.03 351.045 2136.22 355.289 Q2133.46 359.479 2128.21 361.813 Q2122.96 364.094 2116.33 364.094 Q2105.35 364.094 2099.57 359.532 Q2093.84 354.97 2092.25 346.006 Z" fill="#000000" fill-rule="nonzero" fill-opacity="1" /><path clip-path="url(#clip780)" d="M2146.56 346.006 L2156.01 344.521 Q2156.8 350.197 2160.41 353.22 Q2164.07 356.243 2170.59 356.243 Q2177.17 356.243 2180.35 353.591 Q2183.54 350.886 2183.54 347.279 Q2183.54 344.044 2180.72 342.187 Q2178.76 340.914 2170.96 338.952 Q2160.46 336.299 2156.38 334.39 Q2152.35 332.427 2150.22 329.033 Q2148.16 325.585 2148.16 321.448 Q2148.16 317.682 2149.85 314.499 Q2151.6 311.264 2154.57 309.142 Q2156.8 307.498 2160.62 306.384 Q2164.49 305.217 2168.9 305.217 Q2175.53 305.217 2180.51 307.126 Q2185.55 309.036 2187.94 312.324 Q2190.32 315.56 2191.23 321.023 L2181.89 322.296 Q2181.25 317.947 2178.18 315.507 Q2175.15 313.067 2169.58 313.067 Q2163.01 313.067 2160.2 315.242 Q2157.39 317.416 2157.39 320.334 Q2157.39 322.19 2158.55 323.675 Q2159.72 325.214 2162.21 326.221 Q2163.64 326.752 2170.65 328.661 Q2180.78 331.367 2184.75 333.117 Q2188.79 334.814 2191.07 338.103 Q2193.35 341.392 2193.35 346.271 Q2193.35 351.045 2190.54 355.289 Q2187.78 359.479 2182.53 361.813 Q2177.28 364.094 2170.65 364.094 Q2159.67 364.094 2153.88 359.532 Q2148.16 354.97 2146.56 346.006 Z" fill="#000000" fill-rule="nonzero" fill-opacity="1" /></svg>
