<?xml version="1.0" encoding="utf-8"?>
<svg xmlns="http://www.w3.org/2000/svg" xmlns:xlink="http://www.w3.org/1999/xlink" width="600" height="450" viewBox="0 0 2400 1800">
<defs>
  <clipPath id="clip920">
    <rect x="0" y="0" width="2400" height="1800"/>
  </clipPath>
</defs>
<path clip-path="url(#clip920)" d="M0 1800 L2400 1800 L2400 0 L0 0  Z" fill="#ffffff" fill-rule="evenodd" fill-opacity="1"/>
<defs>
  <clipPath id="clip921">
    <rect x="480" y="0" width="1681" height="1681"/>
  </clipPath>
</defs>
<path clip-path="url(#clip920)" d="M238.029 1506.52 L2352.76 1506.52 L2352.76 47.2441 L238.029 47.2441  Z" fill="#ffffff" fill-rule="evenodd" fill-opacity="1"/>
<defs>
  <clipPath id="clip922">
    <rect x="238" y="47" width="2116" height="1460"/>
  </clipPath>
</defs>
<polyline clip-path="url(#clip922)" style="stroke:#000000; stroke-linecap:round; stroke-linejoin:round; stroke-width:2; stroke-opacity:0.1; fill:none" points="288.1,1506.52 288.1,47.2441 "/>
<polyline clip-path="url(#clip922)" style="stroke:#000000; stroke-linecap:round; stroke-linejoin:round; stroke-width:2; stroke-opacity:0.1; fill:none" points="777.077,1506.52 777.077,47.2441 "/>
<polyline clip-path="url(#clip922)" style="stroke:#000000; stroke-linecap:round; stroke-linejoin:round; stroke-width:2; stroke-opacity:0.1; fill:none" points="1266.05,1506.52 1266.05,47.2441 "/>
<polyline clip-path="url(#clip922)" style="stroke:#000000; stroke-linecap:round; stroke-linejoin:round; stroke-width:2; stroke-opacity:0.1; fill:none" points="1755.03,1506.52 1755.03,47.2441 "/>
<polyline clip-path="url(#clip922)" style="stroke:#000000; stroke-linecap:round; stroke-linejoin:round; stroke-width:2; stroke-opacity:0.1; fill:none" points="2244.01,1506.52 2244.01,47.2441 "/>
<polyline clip-path="url(#clip922)" style="stroke:#000000; stroke-linecap:round; stroke-linejoin:round; stroke-width:2; stroke-opacity:0.1; fill:none" points="238.029,1465.22 2352.76,1465.22 "/>
<polyline clip-path="url(#clip922)" style="stroke:#000000; stroke-linecap:round; stroke-linejoin:round; stroke-width:2; stroke-opacity:0.1; fill:none" points="238.029,1247.29 2352.76,1247.29 "/>
<polyline clip-path="url(#clip922)" style="stroke:#000000; stroke-linecap:round; stroke-linejoin:round; stroke-width:2; stroke-opacity:0.1; fill:none" points="238.029,1029.36 2352.76,1029.36 "/>
<polyline clip-path="url(#clip922)" style="stroke:#000000; stroke-linecap:round; stroke-linejoin:round; stroke-width:2; stroke-opacity:0.1; fill:none" points="238.029,811.432 2352.76,811.432 "/>
<polyline clip-path="url(#clip922)" style="stroke:#000000; stroke-linecap:round; stroke-linejoin:round; stroke-width:2; stroke-opacity:0.1; fill:none" points="238.029,593.501 2352.76,593.501 "/>
<polyline clip-path="url(#clip922)" style="stroke:#000000; stroke-linecap:round; stroke-linejoin:round; stroke-width:2; stroke-opacity:0.1; fill:none" points="238.029,375.57 2352.76,375.57 "/>
<polyline clip-path="url(#clip922)" style="stroke:#000000; stroke-linecap:round; stroke-linejoin:round; stroke-width:2; stroke-opacity:0.1; fill:none" points="238.029,157.639 2352.76,157.639 "/>
<polyline clip-path="url(#clip920)" style="stroke:#000000; stroke-linecap:round; stroke-linejoin:round; stroke-width:4; stroke-opacity:1; fill:none" points="238.029,1506.52 2352.76,1506.52 "/>
<polyline clip-path="url(#clip920)" style="stroke:#000000; stroke-linecap:round; stroke-linejoin:round; stroke-width:2; stroke-opacity:0.5; fill:none" points="238.029,47.2441 2352.76,47.2441 "/>
<polyline clip-path="url(#clip920)" style="stroke:#000000; stroke-linecap:round; stroke-linejoin:round; stroke-width:4; stroke-opacity:1; fill:none" points="288.1,1506.52 288.1,1487.63 "/>
<polyline clip-path="url(#clip920)" style="stroke:#000000; stroke-linecap:round; stroke-linejoin:round; stroke-width:4; stroke-opacity:1; fill:none" points="777.077,1506.52 777.077,1487.63 "/>
<polyline clip-path="url(#clip920)" style="stroke:#000000; stroke-linecap:round; stroke-linejoin:round; stroke-width:4; stroke-opacity:1; fill:none" points="1266.05,1506.52 1266.05,1487.63 "/>
<polyline clip-path="url(#clip920)" style="stroke:#000000; stroke-linecap:round; stroke-linejoin:round; stroke-width:4; stroke-opacity:1; fill:none" points="1755.03,1506.52 1755.03,1487.63 "/>
<polyline clip-path="url(#clip920)" style="stroke:#000000; stroke-linecap:round; stroke-linejoin:round; stroke-width:4; stroke-opacity:1; fill:none" points="2244.01,1506.52 2244.01,1487.63 "/>
<path clip-path="url(#clip920)" d="M265.563 1578.04 Q265.563 1565.78 268.062 1558.33 Q270.608 1550.83 275.559 1546.78 Q280.556 1542.72 288.1 1542.72 Q293.664 1542.72 297.86 1544.98 Q302.056 1547.2 304.791 1551.44 Q307.525 1555.64 309.081 1561.72 Q310.637 1567.76 310.637 1578.04 Q310.637 1590.2 308.138 1597.7 Q305.639 1605.15 300.642 1609.25 Q295.691 1613.3 288.1 1613.3 Q278.105 1613.3 272.4 1606.14 Q265.563 1597.51 265.563 1578.04 M274.286 1578.04 Q274.286 1595.06 278.246 1600.71 Q282.254 1606.32 288.1 1606.32 Q293.947 1606.32 297.907 1600.67 Q301.915 1595.01 301.915 1578.04 Q301.915 1560.97 297.907 1555.36 Q293.947 1549.75 288.006 1549.75 Q282.159 1549.75 278.67 1554.7 Q274.286 1561.01 274.286 1578.04 Z" fill="#000000" fill-rule="nonzero" fill-opacity="1" /><path clip-path="url(#clip920)" d="M727.689 1594.02 L736.6 1593.26 Q737.59 1599.77 741.173 1603.07 Q744.804 1606.32 749.896 1606.32 Q756.025 1606.32 760.268 1601.7 Q764.512 1597.08 764.512 1589.45 Q764.512 1582.18 760.41 1577.99 Q756.355 1573.79 749.754 1573.79 Q745.652 1573.79 742.352 1575.68 Q739.052 1577.52 737.166 1580.49 L729.197 1579.45 L735.893 1543.95 L770.264 1543.95 L770.264 1552.06 L742.682 1552.06 L738.957 1570.63 Q745.181 1566.3 752.017 1566.3 Q761.07 1566.3 767.294 1572.57 Q773.517 1578.84 773.517 1588.69 Q773.517 1598.07 768.048 1604.91 Q761.4 1613.3 749.896 1613.3 Q740.466 1613.3 734.478 1608.02 Q728.537 1602.74 727.689 1594.02 Z" fill="#000000" fill-rule="nonzero" fill-opacity="1" /><path clip-path="url(#clip920)" d="M781.391 1578.04 Q781.391 1565.78 783.89 1558.33 Q786.436 1550.83 791.387 1546.78 Q796.384 1542.72 803.928 1542.72 Q809.492 1542.72 813.688 1544.98 Q817.884 1547.2 820.619 1551.44 Q823.353 1555.64 824.909 1561.72 Q826.465 1567.76 826.465 1578.04 Q826.465 1590.2 823.966 1597.7 Q821.467 1605.15 816.47 1609.25 Q811.519 1613.3 803.928 1613.3 Q793.933 1613.3 788.228 1606.14 Q781.391 1597.51 781.391 1578.04 M790.114 1578.04 Q790.114 1595.06 794.074 1600.71 Q798.082 1606.32 803.928 1606.32 Q809.775 1606.32 813.735 1600.67 Q817.743 1595.01 817.743 1578.04 Q817.743 1560.97 813.735 1555.36 Q809.775 1549.75 803.834 1549.75 Q797.987 1549.75 794.498 1554.7 Q790.114 1561.01 790.114 1578.04 Z" fill="#000000" fill-rule="nonzero" fill-opacity="1" /><path clip-path="url(#clip920)" d="M1218.53 1612.12 L1210.04 1612.12 L1210.04 1558.04 Q1206.98 1560.97 1201.98 1563.89 Q1197.03 1566.81 1193.07 1568.28 L1193.07 1560.07 Q1200.19 1556.72 1205.51 1551.96 Q1210.84 1547.2 1213.06 1542.72 L1218.53 1542.72 L1218.53 1612.12 Z" fill="#000000" fill-rule="nonzero" fill-opacity="1" /><path clip-path="url(#clip920)" d="M1240.26 1578.04 Q1240.26 1565.78 1242.76 1558.33 Q1245.31 1550.83 1250.26 1546.78 Q1255.26 1542.72 1262.8 1542.72 Q1268.36 1542.72 1272.56 1544.98 Q1276.76 1547.2 1279.49 1551.44 Q1282.23 1555.64 1283.78 1561.72 Q1285.34 1567.76 1285.34 1578.04 Q1285.34 1590.2 1282.84 1597.7 Q1280.34 1605.15 1275.34 1609.25 Q1270.39 1613.3 1262.8 1613.3 Q1252.81 1613.3 1247.1 1606.14 Q1240.26 1597.51 1240.26 1578.04 M1248.99 1578.04 Q1248.99 1595.06 1252.95 1600.71 Q1256.95 1606.32 1262.8 1606.32 Q1268.65 1606.32 1272.61 1600.67 Q1276.62 1595.01 1276.62 1578.04 Q1276.62 1560.97 1272.61 1555.36 Q1268.65 1549.75 1262.71 1549.75 Q1256.86 1549.75 1253.37 1554.7 Q1248.99 1561.01 1248.99 1578.04 Z" fill="#000000" fill-rule="nonzero" fill-opacity="1" /><path clip-path="url(#clip920)" d="M1293.97 1578.04 Q1293.97 1565.78 1296.46 1558.33 Q1299.01 1550.83 1303.96 1546.78 Q1308.96 1542.72 1316.5 1542.72 Q1322.07 1542.72 1326.26 1544.98 Q1330.46 1547.2 1333.19 1551.44 Q1335.93 1555.64 1337.48 1561.72 Q1339.04 1567.76 1339.04 1578.04 Q1339.04 1590.2 1336.54 1597.7 Q1334.04 1605.15 1329.04 1609.25 Q1324.09 1613.3 1316.5 1613.3 Q1306.51 1613.3 1300.8 1606.14 Q1293.97 1597.51 1293.97 1578.04 M1302.69 1578.04 Q1302.69 1595.06 1306.65 1600.71 Q1310.66 1606.32 1316.5 1606.32 Q1322.35 1606.32 1326.31 1600.67 Q1330.32 1595.01 1330.32 1578.04 Q1330.32 1560.97 1326.31 1555.36 Q1322.35 1549.75 1316.41 1549.75 Q1310.56 1549.75 1307.07 1554.7 Q1302.69 1561.01 1302.69 1578.04 Z" fill="#000000" fill-rule="nonzero" fill-opacity="1" /><path clip-path="url(#clip920)" d="M1707.5 1612.12 L1699.02 1612.12 L1699.02 1558.04 Q1695.95 1560.97 1690.96 1563.89 Q1686 1566.81 1682.04 1568.28 L1682.04 1560.07 Q1689.16 1556.72 1694.49 1551.96 Q1699.82 1547.2 1702.04 1542.72 L1707.5 1542.72 L1707.5 1612.12 Z" fill="#000000" fill-rule="nonzero" fill-opacity="1" /><path clip-path="url(#clip920)" d="M1729.24 1594.02 L1738.15 1593.26 Q1739.14 1599.77 1742.72 1603.07 Q1746.36 1606.32 1751.45 1606.32 Q1757.58 1606.32 1761.82 1601.7 Q1766.06 1597.08 1766.06 1589.45 Q1766.06 1582.18 1761.96 1577.99 Q1757.91 1573.79 1751.31 1573.79 Q1747.2 1573.79 1743.9 1575.68 Q1740.6 1577.52 1738.72 1580.49 L1730.75 1579.45 L1737.44 1543.95 L1771.82 1543.95 L1771.82 1552.06 L1744.23 1552.06 L1740.51 1570.63 Q1746.73 1566.3 1753.57 1566.3 Q1762.62 1566.3 1768.85 1572.57 Q1775.07 1578.84 1775.07 1588.69 Q1775.07 1598.07 1769.6 1604.91 Q1762.95 1613.3 1751.45 1613.3 Q1742.02 1613.3 1736.03 1608.02 Q1730.09 1602.74 1729.24 1594.02 Z" fill="#000000" fill-rule="nonzero" fill-opacity="1" /><path clip-path="url(#clip920)" d="M1782.94 1578.04 Q1782.94 1565.78 1785.44 1558.33 Q1787.99 1550.83 1792.94 1546.78 Q1797.94 1542.72 1805.48 1542.72 Q1811.04 1542.72 1815.24 1544.98 Q1819.44 1547.2 1822.17 1551.44 Q1824.91 1555.64 1826.46 1561.72 Q1828.02 1567.76 1828.02 1578.04 Q1828.02 1590.2 1825.52 1597.7 Q1823.02 1605.15 1818.02 1609.25 Q1813.07 1613.3 1805.48 1613.3 Q1795.48 1613.3 1789.78 1606.14 Q1782.94 1597.51 1782.94 1578.04 M1791.67 1578.04 Q1791.67 1595.06 1795.63 1600.71 Q1799.63 1606.32 1805.48 1606.32 Q1811.33 1606.32 1815.29 1600.67 Q1819.29 1595.01 1819.29 1578.04 Q1819.29 1560.97 1815.29 1555.36 Q1811.33 1549.75 1805.39 1549.75 Q1799.54 1549.75 1796.05 1554.7 Q1791.67 1561.01 1791.67 1578.04 Z" fill="#000000" fill-rule="nonzero" fill-opacity="1" /><path clip-path="url(#clip920)" d="M2212.96 1603.97 L2212.96 1612.12 L2167.27 1612.12 Q2167.18 1609.06 2168.26 1606.23 Q2170.01 1601.56 2173.83 1597.04 Q2177.69 1592.51 2184.95 1586.57 Q2196.22 1577.33 2200.18 1571.95 Q2204.14 1566.53 2204.14 1561.72 Q2204.14 1556.68 2200.51 1553.24 Q2196.93 1549.75 2191.13 1549.75 Q2185 1549.75 2181.32 1553.42 Q2177.65 1557.1 2177.6 1563.61 L2168.88 1562.71 Q2169.77 1552.95 2175.62 1547.86 Q2181.46 1542.72 2191.32 1542.72 Q2201.27 1542.72 2207.07 1548.24 Q2212.87 1553.75 2212.87 1561.91 Q2212.87 1566.06 2211.17 1570.07 Q2209.47 1574.07 2205.51 1578.51 Q2201.6 1582.94 2192.45 1590.67 Q2184.81 1597.08 2182.64 1599.39 Q2180.47 1601.66 2179.06 1603.97 L2212.96 1603.97 Z" fill="#000000" fill-rule="nonzero" fill-opacity="1" /><path clip-path="url(#clip920)" d="M2222.06 1578.04 Q2222.06 1565.78 2224.56 1558.33 Q2227.1 1550.83 2232.06 1546.78 Q2237.05 1542.72 2244.6 1542.72 Q2250.16 1542.72 2254.36 1544.98 Q2258.55 1547.2 2261.29 1551.44 Q2264.02 1555.64 2265.58 1561.72 Q2267.13 1567.76 2267.13 1578.04 Q2267.13 1590.2 2264.64 1597.7 Q2262.14 1605.15 2257.14 1609.25 Q2252.19 1613.3 2244.6 1613.3 Q2234.6 1613.3 2228.9 1606.14 Q2222.06 1597.51 2222.06 1578.04 M2230.78 1578.04 Q2230.78 1595.06 2234.74 1600.71 Q2238.75 1606.32 2244.6 1606.32 Q2250.44 1606.32 2254.4 1600.67 Q2258.41 1595.01 2258.41 1578.04 Q2258.41 1560.97 2254.4 1555.36 Q2250.44 1549.75 2244.5 1549.75 Q2238.66 1549.75 2235.17 1554.7 Q2230.78 1561.01 2230.78 1578.04 Z" fill="#000000" fill-rule="nonzero" fill-opacity="1" /><path clip-path="url(#clip920)" d="M2275.76 1578.04 Q2275.76 1565.78 2278.26 1558.33 Q2280.81 1550.83 2285.76 1546.78 Q2290.76 1542.72 2298.3 1542.72 Q2303.86 1542.72 2308.06 1544.98 Q2312.26 1547.2 2314.99 1551.44 Q2317.72 1555.64 2319.28 1561.72 Q2320.84 1567.76 2320.84 1578.04 Q2320.84 1590.2 2318.34 1597.7 Q2315.84 1605.15 2310.84 1609.25 Q2305.89 1613.3 2298.3 1613.3 Q2288.3 1613.3 2282.6 1606.14 Q2275.76 1597.51 2275.76 1578.04 M2284.48 1578.04 Q2284.48 1595.06 2288.45 1600.71 Q2292.45 1606.32 2298.3 1606.32 Q2304.15 1606.32 2308.11 1600.67 Q2312.11 1595.01 2312.11 1578.04 Q2312.11 1560.97 2308.11 1555.36 Q2304.15 1549.75 2298.2 1549.75 Q2292.36 1549.75 2288.87 1554.7 Q2284.48 1561.01 2284.48 1578.04 Z" fill="#000000" fill-rule="nonzero" fill-opacity="1" /><path clip-path="url(#clip920)" d="M1196.57 1722.7 L1206.02 1721.22 Q1206.81 1726.89 1210.42 1729.92 Q1214.08 1732.94 1220.6 1732.94 Q1227.18 1732.94 1230.36 1730.29 Q1233.55 1727.58 1233.55 1723.97 Q1233.55 1720.74 1230.73 1718.88 Q1228.77 1717.61 1220.97 1715.65 Q1210.47 1712.99 1206.39 1711.09 Q1202.36 1709.12 1200.23 1705.73 Q1198.17 1702.28 1198.17 1698.14 Q1198.17 1694.38 1199.86 1691.19 Q1201.61 1687.96 1204.58 1685.84 Q1206.81 1684.19 1210.63 1683.08 Q1214.5 1681.91 1218.91 1681.91 Q1225.54 1681.91 1230.52 1683.82 Q1235.56 1685.73 1237.95 1689.02 Q1240.33 1692.26 1241.24 1697.72 L1231.9 1698.99 Q1231.26 1694.64 1228.19 1692.2 Q1225.16 1689.76 1219.59 1689.76 Q1213.02 1689.76 1210.21 1691.94 Q1207.4 1694.11 1207.4 1697.03 Q1207.4 1698.89 1208.56 1700.37 Q1209.73 1701.91 1212.22 1702.92 Q1213.65 1703.45 1220.66 1705.36 Q1230.79 1708.06 1234.77 1709.81 Q1238.8 1711.51 1241.08 1714.8 Q1243.36 1718.09 1243.36 1722.97 Q1243.36 1727.74 1240.55 1731.98 Q1237.79 1736.17 1232.54 1738.51 Q1227.29 1740.79 1220.66 1740.79 Q1209.68 1740.79 1203.89 1736.23 Q1198.17 1731.67 1196.57 1722.7 Z" fill="#000000" fill-rule="nonzero" fill-opacity="1" /><path clip-path="url(#clip920)" d="M1275.55 1730.98 L1276.93 1739.41 Q1272.9 1740.26 1269.72 1740.26 Q1264.52 1740.26 1261.66 1738.61 Q1258.79 1736.97 1257.63 1734.32 Q1256.46 1731.61 1256.46 1723.02 L1256.46 1690.61 L1249.46 1690.61 L1249.46 1683.18 L1256.46 1683.18 L1256.46 1669.23 L1265.95 1663.51 L1265.95 1683.18 L1275.55 1683.18 L1275.55 1690.61 L1265.95 1690.61 L1265.95 1723.55 Q1265.95 1727.63 1266.43 1728.8 Q1266.96 1729.97 1268.08 1730.66 Q1269.24 1731.35 1271.36 1731.35 Q1272.96 1731.35 1275.55 1730.98 Z" fill="#000000" fill-rule="nonzero" fill-opacity="1" /><path clip-path="url(#clip920)" d="M1323.45 1721.38 L1333.32 1722.6 Q1330.98 1731.24 1324.67 1736.01 Q1318.36 1740.79 1308.55 1740.79 Q1296.19 1740.79 1288.92 1733.2 Q1281.71 1725.57 1281.71 1711.83 Q1281.71 1697.61 1289.03 1689.76 Q1296.35 1681.91 1308.02 1681.91 Q1319.31 1681.91 1326.48 1689.6 Q1333.64 1697.29 1333.64 1711.24 Q1333.64 1712.09 1333.58 1713.79 L1291.57 1713.79 Q1292.1 1723.07 1296.82 1728.01 Q1301.55 1732.94 1308.6 1732.94 Q1313.85 1732.94 1317.56 1730.18 Q1321.28 1727.42 1323.45 1721.38 M1292.1 1705.94 L1323.56 1705.94 Q1322.92 1698.83 1319.95 1695.28 Q1315.39 1689.76 1308.12 1689.76 Q1301.55 1689.76 1297.04 1694.16 Q1292.58 1698.57 1292.1 1705.94 Z" fill="#000000" fill-rule="nonzero" fill-opacity="1" /><path clip-path="url(#clip920)" d="M1345.31 1761.1 L1345.31 1683.18 L1354 1683.18 L1354 1690.5 Q1357.08 1686.21 1360.95 1684.09 Q1364.82 1681.91 1370.34 1681.91 Q1377.55 1681.91 1383.07 1685.62 Q1388.59 1689.34 1391.4 1696.13 Q1394.21 1702.86 1394.21 1710.93 Q1394.21 1719.57 1391.08 1726.52 Q1388 1733.42 1382.06 1737.13 Q1376.18 1740.79 1369.65 1740.79 Q1364.88 1740.79 1361.06 1738.77 Q1357.29 1736.76 1354.85 1733.68 L1354.85 1761.1 L1345.31 1761.1 M1353.95 1711.67 Q1353.95 1722.54 1358.35 1727.74 Q1362.76 1732.94 1369.02 1732.94 Q1375.38 1732.94 1379.89 1727.58 Q1384.45 1722.17 1384.45 1710.87 Q1384.45 1700.11 1379.99 1694.75 Q1375.59 1689.39 1369.44 1689.39 Q1363.34 1689.39 1358.62 1695.12 Q1353.95 1700.79 1353.95 1711.67 Z" fill="#000000" fill-rule="nonzero" fill-opacity="1" /><polyline clip-path="url(#clip920)" style="stroke:#000000; stroke-linecap:round; stroke-linejoin:round; stroke-width:4; stroke-opacity:1; fill:none" points="238.029,1506.52 238.029,47.2441 "/>
<polyline clip-path="url(#clip920)" style="stroke:#000000; stroke-linecap:round; stroke-linejoin:round; stroke-width:2; stroke-opacity:0.5; fill:none" points="2352.76,1506.52 2352.76,47.2441 "/>
<polyline clip-path="url(#clip920)" style="stroke:#000000; stroke-linecap:round; stroke-linejoin:round; stroke-width:4; stroke-opacity:1; fill:none" points="238.029,1465.22 256.927,1465.22 "/>
<polyline clip-path="url(#clip920)" style="stroke:#000000; stroke-linecap:round; stroke-linejoin:round; stroke-width:4; stroke-opacity:1; fill:none" points="238.029,1247.29 256.927,1247.29 "/>
<polyline clip-path="url(#clip920)" style="stroke:#000000; stroke-linecap:round; stroke-linejoin:round; stroke-width:4; stroke-opacity:1; fill:none" points="238.029,1029.36 256.927,1029.36 "/>
<polyline clip-path="url(#clip920)" style="stroke:#000000; stroke-linecap:round; stroke-linejoin:round; stroke-width:4; stroke-opacity:1; fill:none" points="238.029,811.432 256.927,811.432 "/>
<polyline clip-path="url(#clip920)" style="stroke:#000000; stroke-linecap:round; stroke-linejoin:round; stroke-width:4; stroke-opacity:1; fill:none" points="238.029,593.501 256.927,593.501 "/>
<polyline clip-path="url(#clip920)" style="stroke:#000000; stroke-linecap:round; stroke-linejoin:round; stroke-width:4; stroke-opacity:1; fill:none" points="238.029,375.57 256.927,375.57 "/>
<polyline clip-path="url(#clip920)" style="stroke:#000000; stroke-linecap:round; stroke-linejoin:round; stroke-width:4; stroke-opacity:1; fill:none" points="238.029,157.639 256.927,157.639 "/>
<path clip-path="url(#clip920)" d="M156.955 1465.7 Q156.955 1453.44 159.454 1445.99 Q162 1438.49 166.95 1434.44 Q171.948 1430.38 179.492 1430.38 Q185.055 1430.38 189.252 1432.64 Q193.448 1434.86 196.183 1439.1 Q198.917 1443.3 200.473 1449.38 Q202.029 1455.42 202.029 1465.7 Q202.029 1477.86 199.53 1485.36 Q197.031 1492.81 192.033 1496.91 Q187.083 1500.96 179.492 1500.96 Q169.496 1500.96 163.791 1493.8 Q156.955 1485.17 156.955 1465.7 M165.677 1465.7 Q165.677 1482.72 169.638 1488.37 Q173.645 1493.98 179.492 1493.98 Q185.338 1493.98 189.299 1488.33 Q193.306 1482.67 193.306 1465.7 Q193.306 1448.63 189.299 1443.02 Q185.338 1437.41 179.398 1437.41 Q173.551 1437.41 170.062 1442.36 Q165.677 1448.67 165.677 1465.7 Z" fill="#000000" fill-rule="nonzero" fill-opacity="1" /><path clip-path="url(#clip920)" d="M202.029 1281.85 L193.542 1281.85 L193.542 1227.77 Q190.478 1230.7 185.48 1233.62 Q180.529 1236.54 176.569 1238 L176.569 1229.8 Q183.688 1226.45 189.016 1221.69 Q194.344 1216.93 196.56 1212.45 L202.029 1212.45 L202.029 1281.85 Z" fill="#000000" fill-rule="nonzero" fill-opacity="1" /><path clip-path="url(#clip920)" d="M202.029 1055.77 L202.029 1063.92 L156.342 1063.92 Q156.248 1060.86 157.332 1058.03 Q159.076 1053.36 162.896 1048.83 Q166.762 1044.31 174.023 1038.37 Q185.291 1029.13 189.252 1023.75 Q193.212 1018.33 193.212 1013.52 Q193.212 1008.48 189.582 1005.03 Q185.998 1001.54 180.199 1001.54 Q174.07 1001.54 170.392 1005.22 Q166.715 1008.9 166.667 1015.41 L157.945 1014.51 Q158.841 1004.75 164.687 999.659 Q170.534 994.519 180.388 994.519 Q190.336 994.519 196.135 1000.04 Q201.935 1005.55 201.935 1013.71 Q201.935 1017.86 200.237 1021.87 Q198.54 1025.87 194.579 1030.31 Q190.666 1034.74 181.519 1042.47 Q173.881 1048.88 171.712 1051.19 Q169.543 1053.46 168.129 1055.77 L202.029 1055.77 Z" fill="#000000" fill-rule="nonzero" fill-opacity="1" /><path clip-path="url(#clip920)" d="M156.766 827.745 L165.253 826.613 Q166.715 833.827 170.204 837.033 Q173.74 840.192 178.785 840.192 Q184.773 840.192 188.874 836.043 Q193.024 831.894 193.024 825.765 Q193.024 819.918 189.204 816.146 Q185.385 812.327 179.492 812.327 Q177.087 812.327 173.504 813.27 L174.447 805.821 Q175.296 805.915 175.814 805.915 Q181.236 805.915 185.574 803.086 Q189.912 800.257 189.912 794.364 Q189.912 789.696 186.753 786.631 Q183.594 783.567 178.596 783.567 Q173.645 783.567 170.345 786.679 Q167.045 789.79 166.102 796.014 L157.615 794.505 Q159.171 785.971 164.687 781.304 Q170.204 776.589 178.407 776.589 Q184.065 776.589 188.827 779.04 Q193.589 781.445 196.088 785.641 Q198.634 789.837 198.634 794.552 Q198.634 799.031 196.23 802.709 Q193.825 806.387 189.11 808.556 Q195.24 809.97 198.634 814.449 Q202.029 818.881 202.029 825.576 Q202.029 834.629 195.428 840.947 Q188.827 847.217 178.737 847.217 Q169.638 847.217 163.603 841.795 Q157.615 836.373 156.766 827.745 Z" fill="#000000" fill-rule="nonzero" fill-opacity="1" /><path clip-path="url(#clip920)" d="M184.207 628.061 L184.207 611.512 L154.22 611.512 L154.22 603.732 L185.763 558.941 L192.693 558.941 L192.693 603.732 L202.029 603.732 L202.029 611.512 L192.693 611.512 L192.693 628.061 L184.207 628.061 M184.207 603.732 L184.207 572.567 L162.565 603.732 L184.207 603.732 Z" fill="#000000" fill-rule="nonzero" fill-opacity="1" /><path clip-path="url(#clip920)" d="M156.2 392.025 L165.112 391.271 Q166.102 397.777 169.685 401.078 Q173.315 404.331 178.407 404.331 Q184.537 404.331 188.78 399.71 Q193.024 395.09 193.024 387.452 Q193.024 380.191 188.922 375.994 Q184.867 371.798 178.266 371.798 Q174.164 371.798 170.864 373.684 Q167.563 375.523 165.677 378.493 L157.709 377.456 L164.404 341.953 L198.776 341.953 L198.776 350.063 L171.194 350.063 L167.469 368.639 Q173.693 364.302 180.529 364.302 Q189.582 364.302 195.805 370.572 Q202.029 376.843 202.029 386.697 Q202.029 396.08 196.56 402.916 Q189.912 411.309 178.407 411.309 Q168.978 411.309 162.99 406.028 Q157.049 400.748 156.2 392.025 Z" fill="#000000" fill-rule="nonzero" fill-opacity="1" /><path clip-path="url(#clip920)" d="M200.803 140.006 L192.363 140.666 Q191.232 135.668 189.157 133.405 Q185.715 129.774 180.671 129.774 Q176.616 129.774 173.551 132.038 Q169.543 134.961 167.233 140.572 Q164.923 146.182 164.829 156.555 Q167.893 151.887 172.325 149.624 Q176.757 147.361 181.614 147.361 Q190.1 147.361 196.041 153.632 Q202.029 159.855 202.029 169.757 Q202.029 176.263 199.2 181.874 Q196.418 187.437 191.515 190.408 Q186.611 193.378 180.388 193.378 Q169.779 193.378 163.084 185.599 Q156.389 177.772 156.389 159.855 Q156.389 139.817 163.791 130.717 Q170.251 122.796 181.189 122.796 Q189.346 122.796 194.532 127.37 Q199.766 131.943 200.803 140.006 M166.149 169.804 Q166.149 174.189 167.988 178.196 Q169.874 182.204 173.221 184.326 Q176.569 186.4 180.246 186.4 Q185.621 186.4 189.487 182.062 Q193.354 177.725 193.354 170.275 Q193.354 163.109 189.535 159.007 Q185.715 154.858 179.916 154.858 Q174.164 154.858 170.156 159.007 Q166.149 163.109 166.149 169.804 Z" fill="#000000" fill-rule="nonzero" fill-opacity="1" /><path clip-path="url(#clip920)" d="M94.8922 867.905 L17.1322 867.905 L17.1322 858.357 L94.8922 858.357 L94.8922 867.905 Z" fill="#000000" fill-rule="nonzero" fill-opacity="1" /><path clip-path="url(#clip920)" d="M66.7267 847.112 Q51.0792 847.112 43.5472 838.413 Q37.2882 831.146 37.2882 820.697 Q37.2882 809.081 44.9263 801.708 Q52.5114 794.335 65.9311 794.335 Q76.8047 794.335 83.0637 797.623 Q89.2697 800.859 92.7174 807.118 Q96.1652 813.324 96.1652 820.697 Q96.1652 832.525 88.5801 839.845 Q80.9951 847.112 66.7267 847.112 M66.7267 837.299 Q77.5473 837.299 82.9576 832.578 Q88.3149 827.858 88.3149 820.697 Q88.3149 813.589 82.9046 808.868 Q77.4943 804.148 66.4084 804.148 Q55.9591 804.148 50.6018 808.921 Q45.1915 813.642 45.1915 820.697 Q45.1915 827.858 50.5488 832.578 Q55.9061 837.299 66.7267 837.299 Z" fill="#000000" fill-rule="nonzero" fill-opacity="1" /><path clip-path="url(#clip920)" d="M78.0778 786.962 L76.5926 777.52 Q82.2681 776.725 85.2915 773.118 Q88.3149 769.458 88.3149 762.934 Q88.3149 756.357 85.6628 753.174 Q82.9576 749.991 79.3508 749.991 Q76.1152 749.991 74.2587 752.803 Q72.9857 754.765 71.0231 762.563 Q68.371 773.065 66.4615 777.149 Q64.4989 781.18 61.1042 783.302 Q57.6565 785.371 53.5192 785.371 Q49.7532 785.371 46.5706 783.673 Q43.335 781.923 41.2134 778.953 Q39.569 776.725 38.4552 772.906 Q37.2882 769.034 37.2882 764.631 Q37.2882 758.001 39.1978 753.015 Q41.1073 747.976 44.3959 745.589 Q47.6315 743.202 53.0948 742.3 L54.3678 751.636 Q50.0184 752.272 47.5784 755.349 Q45.1385 758.372 45.1385 763.942 Q45.1385 770.519 47.3132 773.33 Q49.488 776.141 52.4053 776.141 Q54.2618 776.141 55.7469 774.974 Q57.2852 773.807 58.293 771.314 Q58.8234 769.882 60.7329 762.881 Q63.4381 752.75 65.1885 748.772 Q66.8858 744.74 70.1744 742.459 Q73.4631 740.179 78.343 740.179 Q83.1168 740.179 87.3602 742.99 Q91.5505 745.748 93.8844 750.999 Q96.1652 756.25 96.1652 762.881 Q96.1652 773.861 91.6035 779.642 Q87.0419 785.371 78.0778 786.962 Z" fill="#000000" fill-rule="nonzero" fill-opacity="1" /><path clip-path="url(#clip920)" d="M78.0778 732.647 L76.5926 723.205 Q82.2681 722.41 85.2915 718.803 Q88.3149 715.143 88.3149 708.619 Q88.3149 702.041 85.6628 698.859 Q82.9576 695.676 79.3508 695.676 Q76.1152 695.676 74.2587 698.487 Q72.9857 700.45 71.0231 708.247 Q68.371 718.75 66.4615 722.834 Q64.4989 726.865 61.1042 728.987 Q57.6565 731.055 53.5192 731.055 Q49.7532 731.055 46.5706 729.358 Q43.335 727.608 41.2134 724.637 Q39.569 722.41 38.4552 718.59 Q37.2882 714.718 37.2882 710.316 Q37.2882 703.686 39.1978 698.7 Q41.1073 693.661 44.3959 691.274 Q47.6315 688.887 53.0948 687.985 L54.3678 697.32 Q50.0184 697.957 47.5784 701.033 Q45.1385 704.057 45.1385 709.626 Q45.1385 716.204 47.3132 719.015 Q49.488 721.826 52.4053 721.826 Q54.2618 721.826 55.7469 720.659 Q57.2852 719.492 58.293 716.999 Q58.8234 715.567 60.7329 708.565 Q63.4381 698.434 65.1885 694.456 Q66.8858 690.425 70.1744 688.144 Q73.4631 685.863 78.343 685.863 Q83.1168 685.863 87.3602 688.675 Q91.5505 691.433 93.8844 696.684 Q96.1652 701.935 96.1652 708.565 Q96.1652 719.545 91.6035 725.327 Q87.0419 731.055 78.0778 732.647 Z" fill="#000000" fill-rule="nonzero" fill-opacity="1" /><polyline clip-path="url(#clip922)" style="stroke:#4477aa; stroke-linecap:round; stroke-linejoin:round; stroke-width:8; stroke-opacity:1; fill:none" points="297.88,88.5445 307.659,1388.22 317.439,640.478 327.218,1263.01 336.998,932.777 346.777,1462.09 356.557,1309.2 366.336,1405.66 376.116,1440.16 385.896,1435.72 395.675,1448.13 405.455,1237.35 415.234,1435.88 425.014,1465.15 434.793,1462.65 444.573,1464.2 454.352,1458.14 464.132,1413.17 473.911,1453.17 483.691,1371.35 493.47,1419.98 503.25,1462.15 513.03,1459.77 522.809,1461.36 532.589,1357.94 542.368,1407.29 552.148,1461.91 561.927,1465.13 571.707,1441.48 581.486,1438.55 591.266,1461.69 601.045,1463.05 610.825,1464.84 620.604,1416.52 630.384,1465.22 640.163,1448.93 649.943,1465.21 659.723,1449.86 669.502,1455.88 679.282,1464.94 689.061,1463.1 698.841,1462.24 708.62,1423.39 718.4,1360.6 728.179,1464.69 737.959,1449.97 747.738,1464.48 757.518,1431.84 767.297,1449.74 777.077,1454.79 786.857,1447.6 796.636,1404.68 806.416,1448.76 816.195,1462.15 825.975,1451.99 835.754,1450.96 845.534,1461.8 855.313,1459.89 865.093,1453.55 874.872,1464.92 884.652,1429.04 894.431,1445.97 904.211,1464.27 913.991,1461.52 923.77,1462.16 933.55,1423.59 943.329,1434.25 953.109,1464.67 962.888,1464.72 972.668,1450.3 982.447,1446.03 992.227,1463.19 1002.01,1463.6 1011.79,1465.15 1021.57,1437.98 1031.34,1464.92 1041.12,1459.17 1050.9,1464.79 1060.68,1458.54 1070.46,1458.96 1080.24,1465.17 1090.02,1461.08 1099.8,1465.14 1109.58,1446.12 1119.36,1414.94 1129.14,1464.87 1138.92,1460.63 1148.7,1465.08 1158.48,1443.61 1168.26,1455.72 1178.04,1459.79 1187.82,1448.21 1197.6,1438.4 1207.38,1460.17 1217.16,1462.35 1226.94,1457.95 1236.72,1458.5 1246.49,1463.21 1256.27,1464.26 1266.05,1459.55 1275.83,1465.2 1285.61,1445.5 1295.39,1453.02 1305.17,1463.23 1314.95,1461.11 1324.73,1464.2 1334.51,1445.7 1344.29,1445.28 1354.07,1464.98 1363.85,1464.91 1373.63,1453.93 1383.41,1453.49 1393.19,1464.47 1402.97,1463.52 1412.75,1464.3 1422.53,1447.94 1432.31,1464.77 1442.09,1463.57 1451.87,1463.68 1461.64,1462.75 1471.42,1460.33 1481.2,1464.87 1490.98,1459.22 1500.76,1464.93 1510.54,1456.84 1520.32,1439.62 1530.1,1464.91 1539.88,1464.14 1549.66,1463.72 1559.44,1449.87 1569.22,1459.17 1579,1462.37 1588.78,1448.57 1598.56,1453.56 1608.34,1464.06 1618.12,1462.59 1627.9,1461.03 1637.68,1462.03 1647.46,1463.98 1657.24,1465.21 1667.01,1462.32 1676.79,1465.21 1686.57,1453.67 1696.35,1456.8 1706.13,1462.36 1715.91,1460.81 1725.69,1464.96 1735.47,1455.81 1745.25,1451.27 1755.03,1465.11 1764.81,1465.02 1774.59,1456.06 1784.37,1457.47 1794.15,1464.98 1803.93,1463.46 1813.71,1463.19 1823.49,1453.31 1833.27,1464.65 1843.05,1464.97 1852.83,1462.55 1862.61,1464.42 1872.39,1461.15 1882.16,1464.53 1891.94,1457.79 1901.72,1464.04 1911.5,1461.56 1921.28,1451.48 1931.06,1464.94 1940.84,1465.13 1950.62,1462.03 1960.4,1453.45 1970.18,1461.04 1979.96,1463.62 1989.74,1448.81 1999.52,1460.21 2009.3,1465.13 2019.08,1462.74 2028.86,1462.61 2038.64,1463.66 2048.42,1464.39 2058.2,1464.98 2067.98,1463.66 2077.76,1465.15 2087.53,1457.91 2097.31,1458.93 2107.09,1461.68 2116.87,1460.6 2126.65,1465.19 2136.43,1460.52 2146.21,1454.67 2155.99,1465.17 2165.77,1465.08 2175.55,1457.36 2185.33,1459.66 2195.11,1465.16 2204.89,1463.42 2214.67,1462.21 2224.45,1456.34 2234.23,1464.56 2244.01,1465.22 2253.79,1461.63 2263.57,1465.02 2273.35,1461.65 2283.13,1464.23 2292.91,1456.75 "/>
<circle clip-path="url(#clip922)" cx="297.88" cy="88.5445" r="7.2" fill="#4477aa" fill-rule="evenodd" fill-opacity="1" stroke="#000000" stroke-opacity="1" stroke-width="3.6"/>
<circle clip-path="url(#clip922)" cx="307.659" cy="1388.22" r="7.2" fill="#4477aa" fill-rule="evenodd" fill-opacity="1" stroke="#000000" stroke-opacity="1" stroke-width="3.6"/>
<circle clip-path="url(#clip922)" cx="317.439" cy="640.478" r="7.2" fill="#4477aa" fill-rule="evenodd" fill-opacity="1" stroke="#000000" stroke-opacity="1" stroke-width="3.6"/>
<circle clip-path="url(#clip922)" cx="327.218" cy="1263.01" r="7.2" fill="#4477aa" fill-rule="evenodd" fill-opacity="1" stroke="#000000" stroke-opacity="1" stroke-width="3.6"/>
<circle clip-path="url(#clip922)" cx="336.998" cy="932.777" r="7.2" fill="#4477aa" fill-rule="evenodd" fill-opacity="1" stroke="#000000" stroke-opacity="1" stroke-width="3.6"/>
<circle clip-path="url(#clip922)" cx="346.777" cy="1462.09" r="7.2" fill="#4477aa" fill-rule="evenodd" fill-opacity="1" stroke="#000000" stroke-opacity="1" stroke-width="3.6"/>
<circle clip-path="url(#clip922)" cx="356.557" cy="1309.2" r="7.2" fill="#4477aa" fill-rule="evenodd" fill-opacity="1" stroke="#000000" stroke-opacity="1" stroke-width="3.6"/>
<circle clip-path="url(#clip922)" cx="366.336" cy="1405.66" r="7.2" fill="#4477aa" fill-rule="evenodd" fill-opacity="1" stroke="#000000" stroke-opacity="1" stroke-width="3.6"/>
<circle clip-path="url(#clip922)" cx="376.116" cy="1440.16" r="7.2" fill="#4477aa" fill-rule="evenodd" fill-opacity="1" stroke="#000000" stroke-opacity="1" stroke-width="3.6"/>
<circle clip-path="url(#clip922)" cx="385.896" cy="1435.72" r="7.2" fill="#4477aa" fill-rule="evenodd" fill-opacity="1" stroke="#000000" stroke-opacity="1" stroke-width="3.6"/>
<circle clip-path="url(#clip922)" cx="395.675" cy="1448.13" r="7.2" fill="#4477aa" fill-rule="evenodd" fill-opacity="1" stroke="#000000" stroke-opacity="1" stroke-width="3.6"/>
<circle clip-path="url(#clip922)" cx="405.455" cy="1237.35" r="7.2" fill="#4477aa" fill-rule="evenodd" fill-opacity="1" stroke="#000000" stroke-opacity="1" stroke-width="3.6"/>
<circle clip-path="url(#clip922)" cx="415.234" cy="1435.88" r="7.2" fill="#4477aa" fill-rule="evenodd" fill-opacity="1" stroke="#000000" stroke-opacity="1" stroke-width="3.6"/>
<circle clip-path="url(#clip922)" cx="425.014" cy="1465.15" r="7.2" fill="#4477aa" fill-rule="evenodd" fill-opacity="1" stroke="#000000" stroke-opacity="1" stroke-width="3.6"/>
<circle clip-path="url(#clip922)" cx="434.793" cy="1462.65" r="7.2" fill="#4477aa" fill-rule="evenodd" fill-opacity="1" stroke="#000000" stroke-opacity="1" stroke-width="3.6"/>
<circle clip-path="url(#clip922)" cx="444.573" cy="1464.2" r="7.2" fill="#4477aa" fill-rule="evenodd" fill-opacity="1" stroke="#000000" stroke-opacity="1" stroke-width="3.6"/>
<circle clip-path="url(#clip922)" cx="454.352" cy="1458.14" r="7.2" fill="#4477aa" fill-rule="evenodd" fill-opacity="1" stroke="#000000" stroke-opacity="1" stroke-width="3.6"/>
<circle clip-path="url(#clip922)" cx="464.132" cy="1413.17" r="7.2" fill="#4477aa" fill-rule="evenodd" fill-opacity="1" stroke="#000000" stroke-opacity="1" stroke-width="3.6"/>
<circle clip-path="url(#clip922)" cx="473.911" cy="1453.17" r="7.2" fill="#4477aa" fill-rule="evenodd" fill-opacity="1" stroke="#000000" stroke-opacity="1" stroke-width="3.6"/>
<circle clip-path="url(#clip922)" cx="483.691" cy="1371.35" r="7.2" fill="#4477aa" fill-rule="evenodd" fill-opacity="1" stroke="#000000" stroke-opacity="1" stroke-width="3.6"/>
<circle clip-path="url(#clip922)" cx="493.47" cy="1419.98" r="7.2" fill="#4477aa" fill-rule="evenodd" fill-opacity="1" stroke="#000000" stroke-opacity="1" stroke-width="3.6"/>
<circle clip-path="url(#clip922)" cx="503.25" cy="1462.15" r="7.2" fill="#4477aa" fill-rule="evenodd" fill-opacity="1" stroke="#000000" stroke-opacity="1" stroke-width="3.6"/>
<circle clip-path="url(#clip922)" cx="513.03" cy="1459.77" r="7.2" fill="#4477aa" fill-rule="evenodd" fill-opacity="1" stroke="#000000" stroke-opacity="1" stroke-width="3.6"/>
<circle clip-path="url(#clip922)" cx="522.809" cy="1461.36" r="7.2" fill="#4477aa" fill-rule="evenodd" fill-opacity="1" stroke="#000000" stroke-opacity="1" stroke-width="3.6"/>
<circle clip-path="url(#clip922)" cx="532.589" cy="1357.94" r="7.2" fill="#4477aa" fill-rule="evenodd" fill-opacity="1" stroke="#000000" stroke-opacity="1" stroke-width="3.6"/>
<circle clip-path="url(#clip922)" cx="542.368" cy="1407.29" r="7.2" fill="#4477aa" fill-rule="evenodd" fill-opacity="1" stroke="#000000" stroke-opacity="1" stroke-width="3.6"/>
<circle clip-path="url(#clip922)" cx="552.148" cy="1461.91" r="7.2" fill="#4477aa" fill-rule="evenodd" fill-opacity="1" stroke="#000000" stroke-opacity="1" stroke-width="3.6"/>
<circle clip-path="url(#clip922)" cx="561.927" cy="1465.13" r="7.2" fill="#4477aa" fill-rule="evenodd" fill-opacity="1" stroke="#000000" stroke-opacity="1" stroke-width="3.6"/>
<circle clip-path="url(#clip922)" cx="571.707" cy="1441.48" r="7.2" fill="#4477aa" fill-rule="evenodd" fill-opacity="1" stroke="#000000" stroke-opacity="1" stroke-width="3.6"/>
<circle clip-path="url(#clip922)" cx="581.486" cy="1438.55" r="7.2" fill="#4477aa" fill-rule="evenodd" fill-opacity="1" stroke="#000000" stroke-opacity="1" stroke-width="3.6"/>
<circle clip-path="url(#clip922)" cx="591.266" cy="1461.69" r="7.2" fill="#4477aa" fill-rule="evenodd" fill-opacity="1" stroke="#000000" stroke-opacity="1" stroke-width="3.6"/>
<circle clip-path="url(#clip922)" cx="601.045" cy="1463.05" r="7.2" fill="#4477aa" fill-rule="evenodd" fill-opacity="1" stroke="#000000" stroke-opacity="1" stroke-width="3.6"/>
<circle clip-path="url(#clip922)" cx="610.825" cy="1464.84" r="7.2" fill="#4477aa" fill-rule="evenodd" fill-opacity="1" stroke="#000000" stroke-opacity="1" stroke-width="3.6"/>
<circle clip-path="url(#clip922)" cx="620.604" cy="1416.52" r="7.2" fill="#4477aa" fill-rule="evenodd" fill-opacity="1" stroke="#000000" stroke-opacity="1" stroke-width="3.6"/>
<circle clip-path="url(#clip922)" cx="630.384" cy="1465.22" r="7.2" fill="#4477aa" fill-rule="evenodd" fill-opacity="1" stroke="#000000" stroke-opacity="1" stroke-width="3.6"/>
<circle clip-path="url(#clip922)" cx="640.163" cy="1448.93" r="7.2" fill="#4477aa" fill-rule="evenodd" fill-opacity="1" stroke="#000000" stroke-opacity="1" stroke-width="3.6"/>
<circle clip-path="url(#clip922)" cx="649.943" cy="1465.21" r="7.2" fill="#4477aa" fill-rule="evenodd" fill-opacity="1" stroke="#000000" stroke-opacity="1" stroke-width="3.6"/>
<circle clip-path="url(#clip922)" cx="659.723" cy="1449.86" r="7.2" fill="#4477aa" fill-rule="evenodd" fill-opacity="1" stroke="#000000" stroke-opacity="1" stroke-width="3.6"/>
<circle clip-path="url(#clip922)" cx="669.502" cy="1455.88" r="7.2" fill="#4477aa" fill-rule="evenodd" fill-opacity="1" stroke="#000000" stroke-opacity="1" stroke-width="3.6"/>
<circle clip-path="url(#clip922)" cx="679.282" cy="1464.94" r="7.2" fill="#4477aa" fill-rule="evenodd" fill-opacity="1" stroke="#000000" stroke-opacity="1" stroke-width="3.6"/>
<circle clip-path="url(#clip922)" cx="689.061" cy="1463.1" r="7.2" fill="#4477aa" fill-rule="evenodd" fill-opacity="1" stroke="#000000" stroke-opacity="1" stroke-width="3.6"/>
<circle clip-path="url(#clip922)" cx="698.841" cy="1462.24" r="7.2" fill="#4477aa" fill-rule="evenodd" fill-opacity="1" stroke="#000000" stroke-opacity="1" stroke-width="3.6"/>
<circle clip-path="url(#clip922)" cx="708.62" cy="1423.39" r="7.2" fill="#4477aa" fill-rule="evenodd" fill-opacity="1" stroke="#000000" stroke-opacity="1" stroke-width="3.6"/>
<circle clip-path="url(#clip922)" cx="718.4" cy="1360.6" r="7.2" fill="#4477aa" fill-rule="evenodd" fill-opacity="1" stroke="#000000" stroke-opacity="1" stroke-width="3.6"/>
<circle clip-path="url(#clip922)" cx="728.179" cy="1464.69" r="7.2" fill="#4477aa" fill-rule="evenodd" fill-opacity="1" stroke="#000000" stroke-opacity="1" stroke-width="3.6"/>
<circle clip-path="url(#clip922)" cx="737.959" cy="1449.97" r="7.2" fill="#4477aa" fill-rule="evenodd" fill-opacity="1" stroke="#000000" stroke-opacity="1" stroke-width="3.6"/>
<circle clip-path="url(#clip922)" cx="747.738" cy="1464.48" r="7.2" fill="#4477aa" fill-rule="evenodd" fill-opacity="1" stroke="#000000" stroke-opacity="1" stroke-width="3.6"/>
<circle clip-path="url(#clip922)" cx="757.518" cy="1431.84" r="7.2" fill="#4477aa" fill-rule="evenodd" fill-opacity="1" stroke="#000000" stroke-opacity="1" stroke-width="3.6"/>
<circle clip-path="url(#clip922)" cx="767.297" cy="1449.74" r="7.2" fill="#4477aa" fill-rule="evenodd" fill-opacity="1" stroke="#000000" stroke-opacity="1" stroke-width="3.6"/>
<circle clip-path="url(#clip922)" cx="777.077" cy="1454.79" r="7.2" fill="#4477aa" fill-rule="evenodd" fill-opacity="1" stroke="#000000" stroke-opacity="1" stroke-width="3.6"/>
<circle clip-path="url(#clip922)" cx="786.857" cy="1447.6" r="7.2" fill="#4477aa" fill-rule="evenodd" fill-opacity="1" stroke="#000000" stroke-opacity="1" stroke-width="3.6"/>
<circle clip-path="url(#clip922)" cx="796.636" cy="1404.68" r="7.2" fill="#4477aa" fill-rule="evenodd" fill-opacity="1" stroke="#000000" stroke-opacity="1" stroke-width="3.6"/>
<circle clip-path="url(#clip922)" cx="806.416" cy="1448.76" r="7.2" fill="#4477aa" fill-rule="evenodd" fill-opacity="1" stroke="#000000" stroke-opacity="1" stroke-width="3.6"/>
<circle clip-path="url(#clip922)" cx="816.195" cy="1462.15" r="7.2" fill="#4477aa" fill-rule="evenodd" fill-opacity="1" stroke="#000000" stroke-opacity="1" stroke-width="3.6"/>
<circle clip-path="url(#clip922)" cx="825.975" cy="1451.99" r="7.2" fill="#4477aa" fill-rule="evenodd" fill-opacity="1" stroke="#000000" stroke-opacity="1" stroke-width="3.6"/>
<circle clip-path="url(#clip922)" cx="835.754" cy="1450.96" r="7.2" fill="#4477aa" fill-rule="evenodd" fill-opacity="1" stroke="#000000" stroke-opacity="1" stroke-width="3.6"/>
<circle clip-path="url(#clip922)" cx="845.534" cy="1461.8" r="7.2" fill="#4477aa" fill-rule="evenodd" fill-opacity="1" stroke="#000000" stroke-opacity="1" stroke-width="3.6"/>
<circle clip-path="url(#clip922)" cx="855.313" cy="1459.89" r="7.2" fill="#4477aa" fill-rule="evenodd" fill-opacity="1" stroke="#000000" stroke-opacity="1" stroke-width="3.6"/>
<circle clip-path="url(#clip922)" cx="865.093" cy="1453.55" r="7.2" fill="#4477aa" fill-rule="evenodd" fill-opacity="1" stroke="#000000" stroke-opacity="1" stroke-width="3.6"/>
<circle clip-path="url(#clip922)" cx="874.872" cy="1464.92" r="7.2" fill="#4477aa" fill-rule="evenodd" fill-opacity="1" stroke="#000000" stroke-opacity="1" stroke-width="3.6"/>
<circle clip-path="url(#clip922)" cx="884.652" cy="1429.04" r="7.2" fill="#4477aa" fill-rule="evenodd" fill-opacity="1" stroke="#000000" stroke-opacity="1" stroke-width="3.6"/>
<circle clip-path="url(#clip922)" cx="894.431" cy="1445.97" r="7.2" fill="#4477aa" fill-rule="evenodd" fill-opacity="1" stroke="#000000" stroke-opacity="1" stroke-width="3.6"/>
<circle clip-path="url(#clip922)" cx="904.211" cy="1464.27" r="7.2" fill="#4477aa" fill-rule="evenodd" fill-opacity="1" stroke="#000000" stroke-opacity="1" stroke-width="3.6"/>
<circle clip-path="url(#clip922)" cx="913.991" cy="1461.52" r="7.2" fill="#4477aa" fill-rule="evenodd" fill-opacity="1" stroke="#000000" stroke-opacity="1" stroke-width="3.6"/>
<circle clip-path="url(#clip922)" cx="923.77" cy="1462.16" r="7.2" fill="#4477aa" fill-rule="evenodd" fill-opacity="1" stroke="#000000" stroke-opacity="1" stroke-width="3.6"/>
<circle clip-path="url(#clip922)" cx="933.55" cy="1423.59" r="7.2" fill="#4477aa" fill-rule="evenodd" fill-opacity="1" stroke="#000000" stroke-opacity="1" stroke-width="3.6"/>
<circle clip-path="url(#clip922)" cx="943.329" cy="1434.25" r="7.2" fill="#4477aa" fill-rule="evenodd" fill-opacity="1" stroke="#000000" stroke-opacity="1" stroke-width="3.6"/>
<circle clip-path="url(#clip922)" cx="953.109" cy="1464.67" r="7.2" fill="#4477aa" fill-rule="evenodd" fill-opacity="1" stroke="#000000" stroke-opacity="1" stroke-width="3.6"/>
<circle clip-path="url(#clip922)" cx="962.888" cy="1464.72" r="7.2" fill="#4477aa" fill-rule="evenodd" fill-opacity="1" stroke="#000000" stroke-opacity="1" stroke-width="3.6"/>
<circle clip-path="url(#clip922)" cx="972.668" cy="1450.3" r="7.2" fill="#4477aa" fill-rule="evenodd" fill-opacity="1" stroke="#000000" stroke-opacity="1" stroke-width="3.6"/>
<circle clip-path="url(#clip922)" cx="982.447" cy="1446.03" r="7.2" fill="#4477aa" fill-rule="evenodd" fill-opacity="1" stroke="#000000" stroke-opacity="1" stroke-width="3.6"/>
<circle clip-path="url(#clip922)" cx="992.227" cy="1463.19" r="7.2" fill="#4477aa" fill-rule="evenodd" fill-opacity="1" stroke="#000000" stroke-opacity="1" stroke-width="3.6"/>
<circle clip-path="url(#clip922)" cx="1002.01" cy="1463.6" r="7.2" fill="#4477aa" fill-rule="evenodd" fill-opacity="1" stroke="#000000" stroke-opacity="1" stroke-width="3.6"/>
<circle clip-path="url(#clip922)" cx="1011.79" cy="1465.15" r="7.2" fill="#4477aa" fill-rule="evenodd" fill-opacity="1" stroke="#000000" stroke-opacity="1" stroke-width="3.6"/>
<circle clip-path="url(#clip922)" cx="1021.57" cy="1437.98" r="7.2" fill="#4477aa" fill-rule="evenodd" fill-opacity="1" stroke="#000000" stroke-opacity="1" stroke-width="3.6"/>
<circle clip-path="url(#clip922)" cx="1031.34" cy="1464.92" r="7.2" fill="#4477aa" fill-rule="evenodd" fill-opacity="1" stroke="#000000" stroke-opacity="1" stroke-width="3.6"/>
<circle clip-path="url(#clip922)" cx="1041.12" cy="1459.17" r="7.2" fill="#4477aa" fill-rule="evenodd" fill-opacity="1" stroke="#000000" stroke-opacity="1" stroke-width="3.6"/>
<circle clip-path="url(#clip922)" cx="1050.9" cy="1464.79" r="7.2" fill="#4477aa" fill-rule="evenodd" fill-opacity="1" stroke="#000000" stroke-opacity="1" stroke-width="3.6"/>
<circle clip-path="url(#clip922)" cx="1060.68" cy="1458.54" r="7.2" fill="#4477aa" fill-rule="evenodd" fill-opacity="1" stroke="#000000" stroke-opacity="1" stroke-width="3.6"/>
<circle clip-path="url(#clip922)" cx="1070.46" cy="1458.96" r="7.2" fill="#4477aa" fill-rule="evenodd" fill-opacity="1" stroke="#000000" stroke-opacity="1" stroke-width="3.6"/>
<circle clip-path="url(#clip922)" cx="1080.24" cy="1465.17" r="7.2" fill="#4477aa" fill-rule="evenodd" fill-opacity="1" stroke="#000000" stroke-opacity="1" stroke-width="3.6"/>
<circle clip-path="url(#clip922)" cx="1090.02" cy="1461.08" r="7.2" fill="#4477aa" fill-rule="evenodd" fill-opacity="1" stroke="#000000" stroke-opacity="1" stroke-width="3.6"/>
<circle clip-path="url(#clip922)" cx="1099.8" cy="1465.14" r="7.2" fill="#4477aa" fill-rule="evenodd" fill-opacity="1" stroke="#000000" stroke-opacity="1" stroke-width="3.6"/>
<circle clip-path="url(#clip922)" cx="1109.58" cy="1446.12" r="7.2" fill="#4477aa" fill-rule="evenodd" fill-opacity="1" stroke="#000000" stroke-opacity="1" stroke-width="3.6"/>
<circle clip-path="url(#clip922)" cx="1119.36" cy="1414.94" r="7.2" fill="#4477aa" fill-rule="evenodd" fill-opacity="1" stroke="#000000" stroke-opacity="1" stroke-width="3.6"/>
<circle clip-path="url(#clip922)" cx="1129.14" cy="1464.87" r="7.2" fill="#4477aa" fill-rule="evenodd" fill-opacity="1" stroke="#000000" stroke-opacity="1" stroke-width="3.6"/>
<circle clip-path="url(#clip922)" cx="1138.92" cy="1460.63" r="7.2" fill="#4477aa" fill-rule="evenodd" fill-opacity="1" stroke="#000000" stroke-opacity="1" stroke-width="3.6"/>
<circle clip-path="url(#clip922)" cx="1148.7" cy="1465.08" r="7.2" fill="#4477aa" fill-rule="evenodd" fill-opacity="1" stroke="#000000" stroke-opacity="1" stroke-width="3.6"/>
<circle clip-path="url(#clip922)" cx="1158.48" cy="1443.61" r="7.2" fill="#4477aa" fill-rule="evenodd" fill-opacity="1" stroke="#000000" stroke-opacity="1" stroke-width="3.6"/>
<circle clip-path="url(#clip922)" cx="1168.26" cy="1455.72" r="7.2" fill="#4477aa" fill-rule="evenodd" fill-opacity="1" stroke="#000000" stroke-opacity="1" stroke-width="3.6"/>
<circle clip-path="url(#clip922)" cx="1178.04" cy="1459.79" r="7.2" fill="#4477aa" fill-rule="evenodd" fill-opacity="1" stroke="#000000" stroke-opacity="1" stroke-width="3.6"/>
<circle clip-path="url(#clip922)" cx="1187.82" cy="1448.21" r="7.2" fill="#4477aa" fill-rule="evenodd" fill-opacity="1" stroke="#000000" stroke-opacity="1" stroke-width="3.6"/>
<circle clip-path="url(#clip922)" cx="1197.6" cy="1438.4" r="7.2" fill="#4477aa" fill-rule="evenodd" fill-opacity="1" stroke="#000000" stroke-opacity="1" stroke-width="3.6"/>
<circle clip-path="url(#clip922)" cx="1207.38" cy="1460.17" r="7.2" fill="#4477aa" fill-rule="evenodd" fill-opacity="1" stroke="#000000" stroke-opacity="1" stroke-width="3.6"/>
<circle clip-path="url(#clip922)" cx="1217.16" cy="1462.35" r="7.2" fill="#4477aa" fill-rule="evenodd" fill-opacity="1" stroke="#000000" stroke-opacity="1" stroke-width="3.6"/>
<circle clip-path="url(#clip922)" cx="1226.94" cy="1457.95" r="7.2" fill="#4477aa" fill-rule="evenodd" fill-opacity="1" stroke="#000000" stroke-opacity="1" stroke-width="3.6"/>
<circle clip-path="url(#clip922)" cx="1236.72" cy="1458.5" r="7.2" fill="#4477aa" fill-rule="evenodd" fill-opacity="1" stroke="#000000" stroke-opacity="1" stroke-width="3.6"/>
<circle clip-path="url(#clip922)" cx="1246.49" cy="1463.21" r="7.2" fill="#4477aa" fill-rule="evenodd" fill-opacity="1" stroke="#000000" stroke-opacity="1" stroke-width="3.6"/>
<circle clip-path="url(#clip922)" cx="1256.27" cy="1464.26" r="7.2" fill="#4477aa" fill-rule="evenodd" fill-opacity="1" stroke="#000000" stroke-opacity="1" stroke-width="3.6"/>
<circle clip-path="url(#clip922)" cx="1266.05" cy="1459.55" r="7.2" fill="#4477aa" fill-rule="evenodd" fill-opacity="1" stroke="#000000" stroke-opacity="1" stroke-width="3.6"/>
<circle clip-path="url(#clip922)" cx="1275.83" cy="1465.2" r="7.2" fill="#4477aa" fill-rule="evenodd" fill-opacity="1" stroke="#000000" stroke-opacity="1" stroke-width="3.6"/>
<circle clip-path="url(#clip922)" cx="1285.61" cy="1445.5" r="7.2" fill="#4477aa" fill-rule="evenodd" fill-opacity="1" stroke="#000000" stroke-opacity="1" stroke-width="3.6"/>
<circle clip-path="url(#clip922)" cx="1295.39" cy="1453.02" r="7.2" fill="#4477aa" fill-rule="evenodd" fill-opacity="1" stroke="#000000" stroke-opacity="1" stroke-width="3.6"/>
<circle clip-path="url(#clip922)" cx="1305.17" cy="1463.23" r="7.2" fill="#4477aa" fill-rule="evenodd" fill-opacity="1" stroke="#000000" stroke-opacity="1" stroke-width="3.6"/>
<circle clip-path="url(#clip922)" cx="1314.95" cy="1461.11" r="7.2" fill="#4477aa" fill-rule="evenodd" fill-opacity="1" stroke="#000000" stroke-opacity="1" stroke-width="3.6"/>
<circle clip-path="url(#clip922)" cx="1324.73" cy="1464.2" r="7.2" fill="#4477aa" fill-rule="evenodd" fill-opacity="1" stroke="#000000" stroke-opacity="1" stroke-width="3.6"/>
<circle clip-path="url(#clip922)" cx="1334.51" cy="1445.7" r="7.2" fill="#4477aa" fill-rule="evenodd" fill-opacity="1" stroke="#000000" stroke-opacity="1" stroke-width="3.6"/>
<circle clip-path="url(#clip922)" cx="1344.29" cy="1445.28" r="7.2" fill="#4477aa" fill-rule="evenodd" fill-opacity="1" stroke="#000000" stroke-opacity="1" stroke-width="3.6"/>
<circle clip-path="url(#clip922)" cx="1354.07" cy="1464.98" r="7.2" fill="#4477aa" fill-rule="evenodd" fill-opacity="1" stroke="#000000" stroke-opacity="1" stroke-width="3.6"/>
<circle clip-path="url(#clip922)" cx="1363.85" cy="1464.91" r="7.2" fill="#4477aa" fill-rule="evenodd" fill-opacity="1" stroke="#000000" stroke-opacity="1" stroke-width="3.6"/>
<circle clip-path="url(#clip922)" cx="1373.63" cy="1453.93" r="7.2" fill="#4477aa" fill-rule="evenodd" fill-opacity="1" stroke="#000000" stroke-opacity="1" stroke-width="3.6"/>
<circle clip-path="url(#clip922)" cx="1383.41" cy="1453.49" r="7.2" fill="#4477aa" fill-rule="evenodd" fill-opacity="1" stroke="#000000" stroke-opacity="1" stroke-width="3.6"/>
<circle clip-path="url(#clip922)" cx="1393.19" cy="1464.47" r="7.2" fill="#4477aa" fill-rule="evenodd" fill-opacity="1" stroke="#000000" stroke-opacity="1" stroke-width="3.6"/>
<circle clip-path="url(#clip922)" cx="1402.97" cy="1463.52" r="7.2" fill="#4477aa" fill-rule="evenodd" fill-opacity="1" stroke="#000000" stroke-opacity="1" stroke-width="3.6"/>
<circle clip-path="url(#clip922)" cx="1412.75" cy="1464.3" r="7.2" fill="#4477aa" fill-rule="evenodd" fill-opacity="1" stroke="#000000" stroke-opacity="1" stroke-width="3.6"/>
<circle clip-path="url(#clip922)" cx="1422.53" cy="1447.94" r="7.2" fill="#4477aa" fill-rule="evenodd" fill-opacity="1" stroke="#000000" stroke-opacity="1" stroke-width="3.6"/>
<circle clip-path="url(#clip922)" cx="1432.31" cy="1464.77" r="7.2" fill="#4477aa" fill-rule="evenodd" fill-opacity="1" stroke="#000000" stroke-opacity="1" stroke-width="3.6"/>
<circle clip-path="url(#clip922)" cx="1442.09" cy="1463.57" r="7.2" fill="#4477aa" fill-rule="evenodd" fill-opacity="1" stroke="#000000" stroke-opacity="1" stroke-width="3.6"/>
<circle clip-path="url(#clip922)" cx="1451.87" cy="1463.68" r="7.2" fill="#4477aa" fill-rule="evenodd" fill-opacity="1" stroke="#000000" stroke-opacity="1" stroke-width="3.6"/>
<circle clip-path="url(#clip922)" cx="1461.64" cy="1462.75" r="7.2" fill="#4477aa" fill-rule="evenodd" fill-opacity="1" stroke="#000000" stroke-opacity="1" stroke-width="3.6"/>
<circle clip-path="url(#clip922)" cx="1471.42" cy="1460.33" r="7.2" fill="#4477aa" fill-rule="evenodd" fill-opacity="1" stroke="#000000" stroke-opacity="1" stroke-width="3.6"/>
<circle clip-path="url(#clip922)" cx="1481.2" cy="1464.87" r="7.2" fill="#4477aa" fill-rule="evenodd" fill-opacity="1" stroke="#000000" stroke-opacity="1" stroke-width="3.6"/>
<circle clip-path="url(#clip922)" cx="1490.98" cy="1459.22" r="7.2" fill="#4477aa" fill-rule="evenodd" fill-opacity="1" stroke="#000000" stroke-opacity="1" stroke-width="3.6"/>
<circle clip-path="url(#clip922)" cx="1500.76" cy="1464.93" r="7.2" fill="#4477aa" fill-rule="evenodd" fill-opacity="1" stroke="#000000" stroke-opacity="1" stroke-width="3.6"/>
<circle clip-path="url(#clip922)" cx="1510.54" cy="1456.84" r="7.2" fill="#4477aa" fill-rule="evenodd" fill-opacity="1" stroke="#000000" stroke-opacity="1" stroke-width="3.6"/>
<circle clip-path="url(#clip922)" cx="1520.32" cy="1439.62" r="7.2" fill="#4477aa" fill-rule="evenodd" fill-opacity="1" stroke="#000000" stroke-opacity="1" stroke-width="3.6"/>
<circle clip-path="url(#clip922)" cx="1530.1" cy="1464.91" r="7.2" fill="#4477aa" fill-rule="evenodd" fill-opacity="1" stroke="#000000" stroke-opacity="1" stroke-width="3.6"/>
<circle clip-path="url(#clip922)" cx="1539.88" cy="1464.14" r="7.2" fill="#4477aa" fill-rule="evenodd" fill-opacity="1" stroke="#000000" stroke-opacity="1" stroke-width="3.6"/>
<circle clip-path="url(#clip922)" cx="1549.66" cy="1463.72" r="7.2" fill="#4477aa" fill-rule="evenodd" fill-opacity="1" stroke="#000000" stroke-opacity="1" stroke-width="3.6"/>
<circle clip-path="url(#clip922)" cx="1559.44" cy="1449.87" r="7.2" fill="#4477aa" fill-rule="evenodd" fill-opacity="1" stroke="#000000" stroke-opacity="1" stroke-width="3.6"/>
<circle clip-path="url(#clip922)" cx="1569.22" cy="1459.17" r="7.2" fill="#4477aa" fill-rule="evenodd" fill-opacity="1" stroke="#000000" stroke-opacity="1" stroke-width="3.6"/>
<circle clip-path="url(#clip922)" cx="1579" cy="1462.37" r="7.2" fill="#4477aa" fill-rule="evenodd" fill-opacity="1" stroke="#000000" stroke-opacity="1" stroke-width="3.6"/>
<circle clip-path="url(#clip922)" cx="1588.78" cy="1448.57" r="7.2" fill="#4477aa" fill-rule="evenodd" fill-opacity="1" stroke="#000000" stroke-opacity="1" stroke-width="3.6"/>
<circle clip-path="url(#clip922)" cx="1598.56" cy="1453.56" r="7.2" fill="#4477aa" fill-rule="evenodd" fill-opacity="1" stroke="#000000" stroke-opacity="1" stroke-width="3.6"/>
<circle clip-path="url(#clip922)" cx="1608.34" cy="1464.06" r="7.2" fill="#4477aa" fill-rule="evenodd" fill-opacity="1" stroke="#000000" stroke-opacity="1" stroke-width="3.6"/>
<circle clip-path="url(#clip922)" cx="1618.12" cy="1462.59" r="7.2" fill="#4477aa" fill-rule="evenodd" fill-opacity="1" stroke="#000000" stroke-opacity="1" stroke-width="3.6"/>
<circle clip-path="url(#clip922)" cx="1627.9" cy="1461.03" r="7.2" fill="#4477aa" fill-rule="evenodd" fill-opacity="1" stroke="#000000" stroke-opacity="1" stroke-width="3.6"/>
<circle clip-path="url(#clip922)" cx="1637.68" cy="1462.03" r="7.2" fill="#4477aa" fill-rule="evenodd" fill-opacity="1" stroke="#000000" stroke-opacity="1" stroke-width="3.6"/>
<circle clip-path="url(#clip922)" cx="1647.46" cy="1463.98" r="7.2" fill="#4477aa" fill-rule="evenodd" fill-opacity="1" stroke="#000000" stroke-opacity="1" stroke-width="3.6"/>
<circle clip-path="url(#clip922)" cx="1657.24" cy="1465.21" r="7.2" fill="#4477aa" fill-rule="evenodd" fill-opacity="1" stroke="#000000" stroke-opacity="1" stroke-width="3.6"/>
<circle clip-path="url(#clip922)" cx="1667.01" cy="1462.32" r="7.2" fill="#4477aa" fill-rule="evenodd" fill-opacity="1" stroke="#000000" stroke-opacity="1" stroke-width="3.6"/>
<circle clip-path="url(#clip922)" cx="1676.79" cy="1465.21" r="7.2" fill="#4477aa" fill-rule="evenodd" fill-opacity="1" stroke="#000000" stroke-opacity="1" stroke-width="3.6"/>
<circle clip-path="url(#clip922)" cx="1686.57" cy="1453.67" r="7.2" fill="#4477aa" fill-rule="evenodd" fill-opacity="1" stroke="#000000" stroke-opacity="1" stroke-width="3.6"/>
<circle clip-path="url(#clip922)" cx="1696.35" cy="1456.8" r="7.2" fill="#4477aa" fill-rule="evenodd" fill-opacity="1" stroke="#000000" stroke-opacity="1" stroke-width="3.6"/>
<circle clip-path="url(#clip922)" cx="1706.13" cy="1462.36" r="7.2" fill="#4477aa" fill-rule="evenodd" fill-opacity="1" stroke="#000000" stroke-opacity="1" stroke-width="3.6"/>
<circle clip-path="url(#clip922)" cx="1715.91" cy="1460.81" r="7.2" fill="#4477aa" fill-rule="evenodd" fill-opacity="1" stroke="#000000" stroke-opacity="1" stroke-width="3.6"/>
<circle clip-path="url(#clip922)" cx="1725.69" cy="1464.96" r="7.2" fill="#4477aa" fill-rule="evenodd" fill-opacity="1" stroke="#000000" stroke-opacity="1" stroke-width="3.6"/>
<circle clip-path="url(#clip922)" cx="1735.47" cy="1455.81" r="7.2" fill="#4477aa" fill-rule="evenodd" fill-opacity="1" stroke="#000000" stroke-opacity="1" stroke-width="3.6"/>
<circle clip-path="url(#clip922)" cx="1745.25" cy="1451.27" r="7.2" fill="#4477aa" fill-rule="evenodd" fill-opacity="1" stroke="#000000" stroke-opacity="1" stroke-width="3.6"/>
<circle clip-path="url(#clip922)" cx="1755.03" cy="1465.11" r="7.2" fill="#4477aa" fill-rule="evenodd" fill-opacity="1" stroke="#000000" stroke-opacity="1" stroke-width="3.6"/>
<circle clip-path="url(#clip922)" cx="1764.81" cy="1465.02" r="7.2" fill="#4477aa" fill-rule="evenodd" fill-opacity="1" stroke="#000000" stroke-opacity="1" stroke-width="3.6"/>
<circle clip-path="url(#clip922)" cx="1774.59" cy="1456.06" r="7.2" fill="#4477aa" fill-rule="evenodd" fill-opacity="1" stroke="#000000" stroke-opacity="1" stroke-width="3.6"/>
<circle clip-path="url(#clip922)" cx="1784.37" cy="1457.47" r="7.2" fill="#4477aa" fill-rule="evenodd" fill-opacity="1" stroke="#000000" stroke-opacity="1" stroke-width="3.6"/>
<circle clip-path="url(#clip922)" cx="1794.15" cy="1464.98" r="7.2" fill="#4477aa" fill-rule="evenodd" fill-opacity="1" stroke="#000000" stroke-opacity="1" stroke-width="3.6"/>
<circle clip-path="url(#clip922)" cx="1803.93" cy="1463.46" r="7.2" fill="#4477aa" fill-rule="evenodd" fill-opacity="1" stroke="#000000" stroke-opacity="1" stroke-width="3.6"/>
<circle clip-path="url(#clip922)" cx="1813.71" cy="1463.19" r="7.2" fill="#4477aa" fill-rule="evenodd" fill-opacity="1" stroke="#000000" stroke-opacity="1" stroke-width="3.6"/>
<circle clip-path="url(#clip922)" cx="1823.49" cy="1453.31" r="7.2" fill="#4477aa" fill-rule="evenodd" fill-opacity="1" stroke="#000000" stroke-opacity="1" stroke-width="3.6"/>
<circle clip-path="url(#clip922)" cx="1833.27" cy="1464.65" r="7.2" fill="#4477aa" fill-rule="evenodd" fill-opacity="1" stroke="#000000" stroke-opacity="1" stroke-width="3.6"/>
<circle clip-path="url(#clip922)" cx="1843.05" cy="1464.97" r="7.2" fill="#4477aa" fill-rule="evenodd" fill-opacity="1" stroke="#000000" stroke-opacity="1" stroke-width="3.6"/>
<circle clip-path="url(#clip922)" cx="1852.83" cy="1462.55" r="7.2" fill="#4477aa" fill-rule="evenodd" fill-opacity="1" stroke="#000000" stroke-opacity="1" stroke-width="3.6"/>
<circle clip-path="url(#clip922)" cx="1862.61" cy="1464.42" r="7.2" fill="#4477aa" fill-rule="evenodd" fill-opacity="1" stroke="#000000" stroke-opacity="1" stroke-width="3.6"/>
<circle clip-path="url(#clip922)" cx="1872.39" cy="1461.15" r="7.2" fill="#4477aa" fill-rule="evenodd" fill-opacity="1" stroke="#000000" stroke-opacity="1" stroke-width="3.6"/>
<circle clip-path="url(#clip922)" cx="1882.16" cy="1464.53" r="7.2" fill="#4477aa" fill-rule="evenodd" fill-opacity="1" stroke="#000000" stroke-opacity="1" stroke-width="3.6"/>
<circle clip-path="url(#clip922)" cx="1891.94" cy="1457.79" r="7.2" fill="#4477aa" fill-rule="evenodd" fill-opacity="1" stroke="#000000" stroke-opacity="1" stroke-width="3.6"/>
<circle clip-path="url(#clip922)" cx="1901.72" cy="1464.04" r="7.2" fill="#4477aa" fill-rule="evenodd" fill-opacity="1" stroke="#000000" stroke-opacity="1" stroke-width="3.6"/>
<circle clip-path="url(#clip922)" cx="1911.5" cy="1461.56" r="7.2" fill="#4477aa" fill-rule="evenodd" fill-opacity="1" stroke="#000000" stroke-opacity="1" stroke-width="3.6"/>
<circle clip-path="url(#clip922)" cx="1921.28" cy="1451.48" r="7.2" fill="#4477aa" fill-rule="evenodd" fill-opacity="1" stroke="#000000" stroke-opacity="1" stroke-width="3.6"/>
<circle clip-path="url(#clip922)" cx="1931.06" cy="1464.94" r="7.2" fill="#4477aa" fill-rule="evenodd" fill-opacity="1" stroke="#000000" stroke-opacity="1" stroke-width="3.6"/>
<circle clip-path="url(#clip922)" cx="1940.84" cy="1465.13" r="7.2" fill="#4477aa" fill-rule="evenodd" fill-opacity="1" stroke="#000000" stroke-opacity="1" stroke-width="3.6"/>
<circle clip-path="url(#clip922)" cx="1950.62" cy="1462.03" r="7.2" fill="#4477aa" fill-rule="evenodd" fill-opacity="1" stroke="#000000" stroke-opacity="1" stroke-width="3.6"/>
<circle clip-path="url(#clip922)" cx="1960.4" cy="1453.45" r="7.2" fill="#4477aa" fill-rule="evenodd" fill-opacity="1" stroke="#000000" stroke-opacity="1" stroke-width="3.6"/>
<circle clip-path="url(#clip922)" cx="1970.18" cy="1461.04" r="7.2" fill="#4477aa" fill-rule="evenodd" fill-opacity="1" stroke="#000000" stroke-opacity="1" stroke-width="3.6"/>
<circle clip-path="url(#clip922)" cx="1979.96" cy="1463.62" r="7.2" fill="#4477aa" fill-rule="evenodd" fill-opacity="1" stroke="#000000" stroke-opacity="1" stroke-width="3.6"/>
<circle clip-path="url(#clip922)" cx="1989.74" cy="1448.81" r="7.2" fill="#4477aa" fill-rule="evenodd" fill-opacity="1" stroke="#000000" stroke-opacity="1" stroke-width="3.6"/>
<circle clip-path="url(#clip922)" cx="1999.52" cy="1460.21" r="7.2" fill="#4477aa" fill-rule="evenodd" fill-opacity="1" stroke="#000000" stroke-opacity="1" stroke-width="3.6"/>
<circle clip-path="url(#clip922)" cx="2009.3" cy="1465.13" r="7.2" fill="#4477aa" fill-rule="evenodd" fill-opacity="1" stroke="#000000" stroke-opacity="1" stroke-width="3.6"/>
<circle clip-path="url(#clip922)" cx="2019.08" cy="1462.74" r="7.2" fill="#4477aa" fill-rule="evenodd" fill-opacity="1" stroke="#000000" stroke-opacity="1" stroke-width="3.6"/>
<circle clip-path="url(#clip922)" cx="2028.86" cy="1462.61" r="7.2" fill="#4477aa" fill-rule="evenodd" fill-opacity="1" stroke="#000000" stroke-opacity="1" stroke-width="3.6"/>
<circle clip-path="url(#clip922)" cx="2038.64" cy="1463.66" r="7.2" fill="#4477aa" fill-rule="evenodd" fill-opacity="1" stroke="#000000" stroke-opacity="1" stroke-width="3.6"/>
<circle clip-path="url(#clip922)" cx="2048.42" cy="1464.39" r="7.2" fill="#4477aa" fill-rule="evenodd" fill-opacity="1" stroke="#000000" stroke-opacity="1" stroke-width="3.6"/>
<circle clip-path="url(#clip922)" cx="2058.2" cy="1464.98" r="7.2" fill="#4477aa" fill-rule="evenodd" fill-opacity="1" stroke="#000000" stroke-opacity="1" stroke-width="3.6"/>
<circle clip-path="url(#clip922)" cx="2067.98" cy="1463.66" r="7.2" fill="#4477aa" fill-rule="evenodd" fill-opacity="1" stroke="#000000" stroke-opacity="1" stroke-width="3.6"/>
<circle clip-path="url(#clip922)" cx="2077.76" cy="1465.15" r="7.2" fill="#4477aa" fill-rule="evenodd" fill-opacity="1" stroke="#000000" stroke-opacity="1" stroke-width="3.6"/>
<circle clip-path="url(#clip922)" cx="2087.53" cy="1457.91" r="7.2" fill="#4477aa" fill-rule="evenodd" fill-opacity="1" stroke="#000000" stroke-opacity="1" stroke-width="3.6"/>
<circle clip-path="url(#clip922)" cx="2097.31" cy="1458.93" r="7.2" fill="#4477aa" fill-rule="evenodd" fill-opacity="1" stroke="#000000" stroke-opacity="1" stroke-width="3.6"/>
<circle clip-path="url(#clip922)" cx="2107.09" cy="1461.68" r="7.2" fill="#4477aa" fill-rule="evenodd" fill-opacity="1" stroke="#000000" stroke-opacity="1" stroke-width="3.6"/>
<circle clip-path="url(#clip922)" cx="2116.87" cy="1460.6" r="7.2" fill="#4477aa" fill-rule="evenodd" fill-opacity="1" stroke="#000000" stroke-opacity="1" stroke-width="3.6"/>
<circle clip-path="url(#clip922)" cx="2126.65" cy="1465.19" r="7.2" fill="#4477aa" fill-rule="evenodd" fill-opacity="1" stroke="#000000" stroke-opacity="1" stroke-width="3.6"/>
<circle clip-path="url(#clip922)" cx="2136.43" cy="1460.52" r="7.2" fill="#4477aa" fill-rule="evenodd" fill-opacity="1" stroke="#000000" stroke-opacity="1" stroke-width="3.6"/>
<circle clip-path="url(#clip922)" cx="2146.21" cy="1454.67" r="7.2" fill="#4477aa" fill-rule="evenodd" fill-opacity="1" stroke="#000000" stroke-opacity="1" stroke-width="3.6"/>
<circle clip-path="url(#clip922)" cx="2155.99" cy="1465.17" r="7.2" fill="#4477aa" fill-rule="evenodd" fill-opacity="1" stroke="#000000" stroke-opacity="1" stroke-width="3.6"/>
<circle clip-path="url(#clip922)" cx="2165.77" cy="1465.08" r="7.2" fill="#4477aa" fill-rule="evenodd" fill-opacity="1" stroke="#000000" stroke-opacity="1" stroke-width="3.6"/>
<circle clip-path="url(#clip922)" cx="2175.55" cy="1457.36" r="7.2" fill="#4477aa" fill-rule="evenodd" fill-opacity="1" stroke="#000000" stroke-opacity="1" stroke-width="3.6"/>
<circle clip-path="url(#clip922)" cx="2185.33" cy="1459.66" r="7.2" fill="#4477aa" fill-rule="evenodd" fill-opacity="1" stroke="#000000" stroke-opacity="1" stroke-width="3.6"/>
<circle clip-path="url(#clip922)" cx="2195.11" cy="1465.16" r="7.2" fill="#4477aa" fill-rule="evenodd" fill-opacity="1" stroke="#000000" stroke-opacity="1" stroke-width="3.6"/>
<circle clip-path="url(#clip922)" cx="2204.89" cy="1463.42" r="7.2" fill="#4477aa" fill-rule="evenodd" fill-opacity="1" stroke="#000000" stroke-opacity="1" stroke-width="3.6"/>
<circle clip-path="url(#clip922)" cx="2214.67" cy="1462.21" r="7.2" fill="#4477aa" fill-rule="evenodd" fill-opacity="1" stroke="#000000" stroke-opacity="1" stroke-width="3.6"/>
<circle clip-path="url(#clip922)" cx="2224.45" cy="1456.34" r="7.2" fill="#4477aa" fill-rule="evenodd" fill-opacity="1" stroke="#000000" stroke-opacity="1" stroke-width="3.6"/>
<circle clip-path="url(#clip922)" cx="2234.23" cy="1464.56" r="7.2" fill="#4477aa" fill-rule="evenodd" fill-opacity="1" stroke="#000000" stroke-opacity="1" stroke-width="3.6"/>
<circle clip-path="url(#clip922)" cx="2244.01" cy="1465.22" r="7.2" fill="#4477aa" fill-rule="evenodd" fill-opacity="1" stroke="#000000" stroke-opacity="1" stroke-width="3.6"/>
<circle clip-path="url(#clip922)" cx="2253.79" cy="1461.63" r="7.2" fill="#4477aa" fill-rule="evenodd" fill-opacity="1" stroke="#000000" stroke-opacity="1" stroke-width="3.6"/>
<circle clip-path="url(#clip922)" cx="2263.57" cy="1465.02" r="7.2" fill="#4477aa" fill-rule="evenodd" fill-opacity="1" stroke="#000000" stroke-opacity="1" stroke-width="3.6"/>
<circle clip-path="url(#clip922)" cx="2273.35" cy="1461.65" r="7.2" fill="#4477aa" fill-rule="evenodd" fill-opacity="1" stroke="#000000" stroke-opacity="1" stroke-width="3.6"/>
<circle clip-path="url(#clip922)" cx="2283.13" cy="1464.23" r="7.2" fill="#4477aa" fill-rule="evenodd" fill-opacity="1" stroke="#000000" stroke-opacity="1" stroke-width="3.6"/>
<circle clip-path="url(#clip922)" cx="2292.91" cy="1456.75" r="7.2" fill="#4477aa" fill-rule="evenodd" fill-opacity="1" stroke="#000000" stroke-opacity="1" stroke-width="3.6"/>
<path clip-path="url(#clip920)" d="M1888.75 329.167 L2282.27 329.167 L2282.27 95.8868 L1888.75 95.8868  Z" fill="#ffffff" fill-rule="evenodd" fill-opacity="1"/>
<polyline clip-path="url(#clip920)" style="stroke:#000000; stroke-linecap:round; stroke-linejoin:round; stroke-width:4; stroke-opacity:1; fill:none" points="1888.75,329.167 2282.27,329.167 2282.27,95.8868 1888.75,95.8868 1888.75,329.167 "/>
<polyline clip-path="url(#clip920)" style="stroke:#4477aa; stroke-linecap:round; stroke-linejoin:round; stroke-width:18; stroke-opacity:1; fill:none" points="1912.25,212.527 2053.23,212.527 "/>
<circle clip-path="url(#clip920)" cx="1982.74" cy="212.527" r="8.70258" fill="#4477aa" fill-rule="evenodd" fill-opacity="1" stroke="#000000" stroke-opacity="1" stroke-width="8.70258"/>
<path clip-path="url(#clip920)" d="M2076.73 251.407 L2076.73 173.647 L2086.27 173.647 L2086.27 251.407 L2076.73 251.407 Z" fill="#000000" fill-rule="nonzero" fill-opacity="1" /><path clip-path="url(#clip920)" d="M2097.52 223.241 Q2097.52 207.594 2106.22 200.062 Q2113.49 193.803 2123.93 193.803 Q2135.55 193.803 2142.92 201.441 Q2150.3 209.026 2150.3 222.446 Q2150.3 233.319 2147.01 239.578 Q2143.77 245.784 2137.51 249.232 Q2131.31 252.68 2123.93 252.68 Q2112.11 252.68 2104.79 245.095 Q2097.52 237.51 2097.52 223.241 M2107.33 223.241 Q2107.33 234.062 2112.05 239.472 Q2116.77 244.83 2123.93 244.83 Q2131.04 244.83 2135.76 239.419 Q2140.48 234.009 2140.48 222.923 Q2140.48 212.474 2135.71 207.116 Q2130.99 201.706 2123.93 201.706 Q2116.77 201.706 2112.05 207.063 Q2107.33 212.421 2107.33 223.241 Z" fill="#000000" fill-rule="nonzero" fill-opacity="1" /><path clip-path="url(#clip920)" d="M2157.67 234.592 L2167.11 233.107 Q2167.91 238.783 2171.51 241.806 Q2175.17 244.83 2181.7 244.83 Q2188.27 244.83 2191.46 242.177 Q2194.64 239.472 2194.64 235.865 Q2194.64 232.63 2191.83 230.773 Q2189.87 229.5 2182.07 227.538 Q2171.57 224.886 2167.48 222.976 Q2163.45 221.014 2161.33 217.619 Q2159.26 214.171 2159.26 210.034 Q2159.26 206.268 2160.96 203.085 Q2162.71 199.85 2165.68 197.728 Q2167.91 196.084 2171.73 194.97 Q2175.6 193.803 2180 193.803 Q2186.63 193.803 2191.62 195.712 Q2196.66 197.622 2199.04 200.91 Q2201.43 204.146 2202.33 209.609 L2193 210.882 Q2192.36 206.533 2189.28 204.093 Q2186.26 201.653 2180.69 201.653 Q2174.11 201.653 2171.3 203.828 Q2168.49 206.003 2168.49 208.92 Q2168.49 210.776 2169.66 212.262 Q2170.82 213.8 2173.32 214.808 Q2174.75 215.338 2181.75 217.248 Q2191.88 219.953 2195.86 221.703 Q2199.89 223.4 2202.17 226.689 Q2204.45 229.978 2204.45 234.858 Q2204.45 239.631 2201.64 243.875 Q2198.88 248.065 2193.63 250.399 Q2188.38 252.68 2181.75 252.68 Q2170.77 252.68 2164.99 248.118 Q2159.26 243.556 2157.67 234.592 Z" fill="#000000" fill-rule="nonzero" fill-opacity="1" /><path clip-path="url(#clip920)" d="M2211.98 234.592 L2221.43 233.107 Q2222.22 238.783 2225.83 241.806 Q2229.49 244.83 2236.01 244.83 Q2242.59 244.83 2245.77 242.177 Q2248.96 239.472 2248.96 235.865 Q2248.96 232.63 2246.14 230.773 Q2244.18 229.5 2236.38 227.538 Q2225.88 224.886 2221.8 222.976 Q2217.77 221.014 2215.64 217.619 Q2213.58 214.171 2213.58 210.034 Q2213.58 206.268 2215.27 203.085 Q2217.02 199.85 2219.99 197.728 Q2222.22 196.084 2226.04 194.97 Q2229.91 193.803 2234.32 193.803 Q2240.95 193.803 2245.93 195.712 Q2250.97 197.622 2253.36 200.91 Q2255.74 204.146 2256.65 209.609 L2247.31 210.882 Q2246.67 206.533 2243.6 204.093 Q2240.57 201.653 2235.01 201.653 Q2228.43 201.653 2225.62 203.828 Q2222.81 206.003 2222.81 208.92 Q2222.81 210.776 2223.97 212.262 Q2225.14 213.8 2227.63 214.808 Q2229.06 215.338 2236.07 217.248 Q2246.2 219.953 2250.18 221.703 Q2254.21 223.4 2256.49 226.689 Q2258.77 229.978 2258.77 234.858 Q2258.77 239.631 2255.96 243.875 Q2253.2 248.065 2247.95 250.399 Q2242.7 252.68 2236.07 252.68 Q2225.09 252.68 2219.3 248.118 Q2213.58 243.556 2211.98 234.592 Z" fill="#000000" fill-rule="nonzero" fill-opacity="1" /></svg>
