<?xml version="1.0" encoding="utf-8"?>
<svg xmlns="http://www.w3.org/2000/svg" xmlns:xlink="http://www.w3.org/1999/xlink" width="600" height="450" viewBox="0 0 2400 1800">
<defs>
  <clipPath id="clip760">
    <rect x="0" y="0" width="2400" height="1800"/>
  </clipPath>
</defs>
<path clip-path="url(#clip760)" d="M0 1800 L2400 1800 L2400 0 L0 0  Z" fill="#ffffff" fill-rule="evenodd" fill-opacity="1"/>
<defs>
  <clipPath id="clip761">
    <rect x="480" y="0" width="1681" height="1681"/>
  </clipPath>
</defs>
<path clip-path="url(#clip760)" d="M236.002 1506.52 L2352.76 1506.52 L2352.76 47.2441 L236.002 47.2441  Z" fill="#ffffff" fill-rule="evenodd" fill-opacity="1"/>
<defs>
  <clipPath id="clip762">
    <rect x="236" y="47" width="2118" height="1460"/>
  </clipPath>
</defs>
<polyline clip-path="url(#clip762)" style="stroke:#000000; stroke-linecap:round; stroke-linejoin:round; stroke-width:2; stroke-opacity:0.1; fill:none" points="295.91,1506.52 295.91,47.2441 "/>
<polyline clip-path="url(#clip762)" style="stroke:#000000; stroke-linecap:round; stroke-linejoin:round; stroke-width:2; stroke-opacity:0.1; fill:none" points="795.144,1506.52 795.144,47.2441 "/>
<polyline clip-path="url(#clip762)" style="stroke:#000000; stroke-linecap:round; stroke-linejoin:round; stroke-width:2; stroke-opacity:0.1; fill:none" points="1294.38,1506.52 1294.38,47.2441 "/>
<polyline clip-path="url(#clip762)" style="stroke:#000000; stroke-linecap:round; stroke-linejoin:round; stroke-width:2; stroke-opacity:0.1; fill:none" points="1793.61,1506.52 1793.61,47.2441 "/>
<polyline clip-path="url(#clip762)" style="stroke:#000000; stroke-linecap:round; stroke-linejoin:round; stroke-width:2; stroke-opacity:0.1; fill:none" points="2292.85,1506.52 2292.85,47.2441 "/>
<polyline clip-path="url(#clip762)" style="stroke:#000000; stroke-linecap:round; stroke-linejoin:round; stroke-width:2; stroke-opacity:0.1; fill:none" points="236.002,1473.28 2352.76,1473.28 "/>
<polyline clip-path="url(#clip762)" style="stroke:#000000; stroke-linecap:round; stroke-linejoin:round; stroke-width:2; stroke-opacity:0.1; fill:none" points="236.002,1001.35 2352.76,1001.35 "/>
<polyline clip-path="url(#clip762)" style="stroke:#000000; stroke-linecap:round; stroke-linejoin:round; stroke-width:2; stroke-opacity:0.1; fill:none" points="236.002,529.419 2352.76,529.419 "/>
<polyline clip-path="url(#clip762)" style="stroke:#000000; stroke-linecap:round; stroke-linejoin:round; stroke-width:2; stroke-opacity:0.1; fill:none" points="236.002,57.4872 2352.76,57.4872 "/>
<polyline clip-path="url(#clip760)" style="stroke:#000000; stroke-linecap:round; stroke-linejoin:round; stroke-width:4; stroke-opacity:1; fill:none" points="236.002,1506.52 2352.76,1506.52 "/>
<polyline clip-path="url(#clip760)" style="stroke:#000000; stroke-linecap:round; stroke-linejoin:round; stroke-width:2; stroke-opacity:0.5; fill:none" points="236.002,47.2441 2352.76,47.2441 "/>
<polyline clip-path="url(#clip760)" style="stroke:#000000; stroke-linecap:round; stroke-linejoin:round; stroke-width:4; stroke-opacity:1; fill:none" points="295.91,1506.52 295.91,1487.63 "/>
<polyline clip-path="url(#clip760)" style="stroke:#000000; stroke-linecap:round; stroke-linejoin:round; stroke-width:4; stroke-opacity:1; fill:none" points="795.144,1506.52 795.144,1487.63 "/>
<polyline clip-path="url(#clip760)" style="stroke:#000000; stroke-linecap:round; stroke-linejoin:round; stroke-width:4; stroke-opacity:1; fill:none" points="1294.38,1506.52 1294.38,1487.63 "/>
<polyline clip-path="url(#clip760)" style="stroke:#000000; stroke-linecap:round; stroke-linejoin:round; stroke-width:4; stroke-opacity:1; fill:none" points="1793.61,1506.52 1793.61,1487.63 "/>
<polyline clip-path="url(#clip760)" style="stroke:#000000; stroke-linecap:round; stroke-linejoin:round; stroke-width:4; stroke-opacity:1; fill:none" points="2292.85,1506.52 2292.85,1487.63 "/>
<path clip-path="url(#clip760)" d="M308.64 1612.12 L300.153 1612.12 L300.153 1558.04 Q297.088 1560.97 292.091 1563.89 Q287.14 1566.81 283.18 1568.28 L283.18 1560.07 Q290.299 1556.72 295.627 1551.96 Q300.955 1547.2 303.171 1542.72 L308.64 1542.72 L308.64 1612.12 Z" fill="#000000" fill-rule="nonzero" fill-opacity="1" /><path clip-path="url(#clip760)" d="M818.035 1603.97 L818.035 1612.12 L772.348 1612.12 Q772.254 1609.06 773.338 1606.23 Q775.082 1601.56 778.901 1597.04 Q782.768 1592.51 790.029 1586.57 Q801.297 1577.33 805.258 1571.95 Q809.218 1566.53 809.218 1561.72 Q809.218 1556.68 805.588 1553.24 Q802.004 1549.75 796.205 1549.75 Q790.076 1549.75 786.398 1553.42 Q782.721 1557.1 782.673 1563.61 L773.951 1562.71 Q774.847 1552.95 780.693 1547.86 Q786.54 1542.72 796.394 1542.72 Q806.342 1542.72 812.141 1548.24 Q817.941 1553.75 817.941 1561.91 Q817.941 1566.06 816.243 1570.07 Q814.546 1574.07 810.585 1578.51 Q806.672 1582.94 797.525 1590.67 Q789.887 1597.08 787.718 1599.39 Q785.549 1601.66 784.135 1603.97 L818.035 1603.97 Z" fill="#000000" fill-rule="nonzero" fill-opacity="1" /><path clip-path="url(#clip760)" d="M1271.75 1593.88 L1280.23 1592.75 Q1281.7 1599.96 1285.18 1603.17 Q1288.72 1606.32 1293.77 1606.32 Q1299.75 1606.32 1303.86 1602.18 Q1308 1598.03 1308 1591.9 Q1308 1586.05 1304.19 1582.28 Q1300.37 1578.46 1294.47 1578.46 Q1292.07 1578.46 1288.49 1579.4 L1289.43 1571.95 Q1290.28 1572.05 1290.8 1572.05 Q1296.22 1572.05 1300.56 1569.22 Q1304.89 1566.39 1304.89 1560.5 Q1304.89 1555.83 1301.73 1552.76 Q1298.57 1549.7 1293.58 1549.7 Q1288.63 1549.7 1285.33 1552.81 Q1282.03 1555.92 1281.08 1562.15 L1272.6 1560.64 Q1274.15 1552.1 1279.67 1547.44 Q1285.18 1542.72 1293.39 1542.72 Q1299.05 1542.72 1303.81 1545.17 Q1308.57 1547.58 1311.07 1551.77 Q1313.62 1555.97 1313.62 1560.68 Q1313.62 1565.16 1311.21 1568.84 Q1308.81 1572.52 1304.09 1574.69 Q1310.22 1576.1 1313.62 1580.58 Q1317.01 1585.01 1317.01 1591.71 Q1317.01 1600.76 1310.41 1607.08 Q1303.81 1613.35 1293.72 1613.35 Q1284.62 1613.35 1278.58 1607.93 Q1272.6 1602.51 1271.75 1593.88 Z" fill="#000000" fill-rule="nonzero" fill-opacity="1" /><path clip-path="url(#clip760)" d="M1799.7 1612.12 L1799.7 1595.57 L1769.71 1595.57 L1769.71 1587.8 L1801.25 1543 L1808.18 1543 L1808.18 1587.8 L1817.52 1587.8 L1817.52 1595.57 L1808.18 1595.57 L1808.18 1612.12 L1799.7 1612.12 M1799.7 1587.8 L1799.7 1556.63 L1778.05 1587.8 L1799.7 1587.8 Z" fill="#000000" fill-rule="nonzero" fill-opacity="1" /><path clip-path="url(#clip760)" d="M2269.93 1594.02 L2278.84 1593.26 Q2279.83 1599.77 2283.42 1603.07 Q2287.05 1606.32 2292.14 1606.32 Q2298.27 1606.32 2302.51 1601.7 Q2306.76 1597.08 2306.76 1589.45 Q2306.76 1582.18 2302.65 1577.99 Q2298.6 1573.79 2292 1573.79 Q2287.9 1573.79 2284.6 1575.68 Q2281.3 1577.52 2279.41 1580.49 L2271.44 1579.45 L2278.14 1543.95 L2312.51 1543.95 L2312.51 1552.06 L2284.93 1552.06 L2281.2 1570.63 Q2287.43 1566.3 2294.26 1566.3 Q2303.31 1566.3 2309.54 1572.57 Q2315.76 1578.84 2315.76 1588.69 Q2315.76 1598.07 2310.29 1604.91 Q2303.64 1613.3 2292.14 1613.3 Q2282.71 1613.3 2276.72 1608.02 Q2270.78 1602.74 2269.93 1594.02 Z" fill="#000000" fill-rule="nonzero" fill-opacity="1" /><path clip-path="url(#clip760)" d="M1193.81 1721.38 L1203.68 1722.6 Q1201.34 1731.24 1195.03 1736.01 Q1188.72 1740.79 1178.91 1740.79 Q1166.55 1740.79 1159.28 1733.2 Q1152.07 1725.57 1152.07 1711.83 Q1152.07 1697.61 1159.39 1689.76 Q1166.71 1681.91 1178.38 1681.91 Q1189.67 1681.91 1196.83 1689.6 Q1203.99 1697.29 1203.99 1711.24 Q1203.99 1712.09 1203.94 1713.79 L1161.93 1713.79 Q1162.46 1723.07 1167.18 1728.01 Q1171.9 1732.94 1178.96 1732.94 Q1184.21 1732.94 1187.92 1730.18 Q1191.64 1727.42 1193.81 1721.38 M1162.46 1705.94 L1193.92 1705.94 Q1193.28 1698.83 1190.31 1695.28 Q1185.75 1689.76 1178.48 1689.76 Q1171.9 1689.76 1167.4 1694.16 Q1162.94 1698.57 1162.46 1705.94 Z" fill="#000000" fill-rule="nonzero" fill-opacity="1" /><path clip-path="url(#clip760)" d="M1215.66 1761.1 L1215.66 1683.18 L1224.36 1683.18 L1224.36 1690.5 Q1227.44 1686.21 1231.31 1684.09 Q1235.18 1681.91 1240.7 1681.91 Q1247.91 1681.91 1253.43 1685.62 Q1258.95 1689.34 1261.76 1696.13 Q1264.57 1702.86 1264.57 1710.93 Q1264.57 1719.57 1261.44 1726.52 Q1258.36 1733.42 1252.42 1737.13 Q1246.53 1740.79 1240.01 1740.79 Q1235.24 1740.79 1231.42 1738.77 Q1227.65 1736.76 1225.21 1733.68 L1225.21 1761.1 L1215.66 1761.1 M1224.31 1711.67 Q1224.31 1722.54 1228.71 1727.74 Q1233.11 1732.94 1239.37 1732.94 Q1245.74 1732.94 1250.25 1727.58 Q1254.81 1722.17 1254.81 1710.87 Q1254.81 1700.11 1250.35 1694.75 Q1245.95 1689.39 1239.8 1689.39 Q1233.7 1689.39 1228.98 1695.12 Q1224.31 1700.79 1224.31 1711.67 Z" fill="#000000" fill-rule="nonzero" fill-opacity="1" /><path clip-path="url(#clip760)" d="M1272.53 1711.35 Q1272.53 1695.7 1281.22 1688.17 Q1288.49 1681.91 1298.94 1681.91 Q1310.56 1681.91 1317.93 1689.55 Q1325.3 1697.13 1325.3 1710.55 Q1325.3 1721.43 1322.01 1727.69 Q1318.78 1733.89 1312.52 1737.34 Q1306.31 1740.79 1298.94 1740.79 Q1287.11 1740.79 1279.79 1733.2 Q1272.53 1725.62 1272.53 1711.35 M1282.34 1711.35 Q1282.34 1722.17 1287.06 1727.58 Q1291.78 1732.94 1298.94 1732.94 Q1306.05 1732.94 1310.77 1727.53 Q1315.49 1722.12 1315.49 1711.03 Q1315.49 1700.58 1310.72 1695.23 Q1305.99 1689.82 1298.94 1689.82 Q1291.78 1689.82 1287.06 1695.17 Q1282.34 1700.53 1282.34 1711.35 Z" fill="#000000" fill-rule="nonzero" fill-opacity="1" /><path clip-path="url(#clip760)" d="M1373.25 1718.88 L1382.64 1720.1 Q1381.1 1729.81 1374.74 1735.33 Q1368.43 1740.79 1359.2 1740.79 Q1347.63 1740.79 1340.58 1733.26 Q1333.58 1725.67 1333.58 1711.56 Q1333.58 1702.44 1336.6 1695.6 Q1339.62 1688.75 1345.78 1685.36 Q1351.98 1681.91 1359.25 1681.91 Q1368.43 1681.91 1374.26 1686.58 Q1380.1 1691.19 1381.74 1699.73 L1372.46 1701.17 Q1371.13 1695.49 1367.74 1692.63 Q1364.39 1689.76 1359.62 1689.76 Q1352.41 1689.76 1347.9 1694.96 Q1343.39 1700.11 1343.39 1711.3 Q1343.39 1722.65 1347.74 1727.79 Q1352.09 1732.94 1359.09 1732.94 Q1364.71 1732.94 1368.48 1729.49 Q1372.24 1726.04 1373.25 1718.88 Z" fill="#000000" fill-rule="nonzero" fill-opacity="1" /><path clip-path="url(#clip760)" d="M1390.81 1739.52 L1390.81 1661.76 L1400.36 1661.76 L1400.36 1689.66 Q1407.04 1681.91 1417.22 1681.91 Q1423.48 1681.91 1428.1 1684.4 Q1432.71 1686.84 1434.68 1691.19 Q1436.69 1695.54 1436.69 1703.82 L1436.69 1739.52 L1427.14 1739.52 L1427.14 1703.82 Q1427.14 1696.66 1424.01 1693.42 Q1420.94 1690.13 1415.26 1690.13 Q1411.02 1690.13 1407.25 1692.36 Q1403.54 1694.54 1401.95 1698.3 Q1400.36 1702.07 1400.36 1708.7 L1400.36 1739.52 L1390.81 1739.52 Z" fill="#000000" fill-rule="nonzero" fill-opacity="1" /><polyline clip-path="url(#clip760)" style="stroke:#000000; stroke-linecap:round; stroke-linejoin:round; stroke-width:4; stroke-opacity:1; fill:none" points="236.002,1506.52 236.002,47.2441 "/>
<polyline clip-path="url(#clip760)" style="stroke:#000000; stroke-linecap:round; stroke-linejoin:round; stroke-width:2; stroke-opacity:0.5; fill:none" points="2352.76,1506.52 2352.76,47.2441 "/>
<polyline clip-path="url(#clip760)" style="stroke:#000000; stroke-linecap:round; stroke-linejoin:round; stroke-width:4; stroke-opacity:1; fill:none" points="236.002,1473.28 254.899,1473.28 "/>
<polyline clip-path="url(#clip760)" style="stroke:#000000; stroke-linecap:round; stroke-linejoin:round; stroke-width:4; stroke-opacity:1; fill:none" points="236.002,1001.35 254.899,1001.35 "/>
<polyline clip-path="url(#clip760)" style="stroke:#000000; stroke-linecap:round; stroke-linejoin:round; stroke-width:4; stroke-opacity:1; fill:none" points="236.002,529.419 254.899,529.419 "/>
<polyline clip-path="url(#clip760)" style="stroke:#000000; stroke-linecap:round; stroke-linejoin:round; stroke-width:4; stroke-opacity:1; fill:none" points="236.002,57.4872 254.899,57.4872 "/>
<path clip-path="url(#clip760)" d="M154.927 1473.75 Q154.927 1461.49 157.426 1454.05 Q159.972 1446.55 164.923 1442.49 Q169.921 1438.44 177.464 1438.44 Q183.028 1438.44 187.224 1440.7 Q191.42 1442.92 194.155 1447.16 Q196.89 1451.36 198.446 1457.44 Q200.002 1463.47 200.002 1473.75 Q200.002 1485.92 197.503 1493.41 Q195.004 1500.86 190.006 1504.97 Q185.055 1509.02 177.464 1509.02 Q167.469 1509.02 161.764 1501.85 Q154.927 1493.23 154.927 1473.75 M163.65 1473.75 Q163.65 1490.77 167.61 1496.43 Q171.618 1502.04 177.464 1502.04 Q183.311 1502.04 187.271 1496.38 Q191.279 1490.73 191.279 1473.75 Q191.279 1456.69 187.271 1451.07 Q183.311 1445.46 177.37 1445.46 Q171.524 1445.46 168.035 1450.41 Q163.65 1456.73 163.65 1473.75 Z" fill="#000000" fill-rule="nonzero" fill-opacity="1" /><path clip-path="url(#clip760)" d="M200.002 1035.91 L191.515 1035.91 L191.515 981.831 Q188.45 984.754 183.452 987.677 Q178.502 990.6 174.541 992.062 L174.541 983.858 Q181.661 980.511 186.989 975.749 Q192.316 970.986 194.532 966.507 L200.002 966.507 L200.002 1035.91 Z" fill="#000000" fill-rule="nonzero" fill-opacity="1" /><path clip-path="url(#clip760)" d="M200.002 555.822 L200.002 563.979 L154.314 563.979 Q154.22 560.914 155.305 558.085 Q157.049 553.417 160.868 548.891 Q164.734 544.365 171.995 538.424 Q183.264 529.183 187.224 523.808 Q191.185 518.386 191.185 513.577 Q191.185 508.532 187.554 505.09 Q183.971 501.601 178.172 501.601 Q172.042 501.601 168.365 505.279 Q164.687 508.956 164.64 515.463 L155.918 514.567 Q156.813 504.807 162.66 499.715 Q168.506 494.576 178.36 494.576 Q188.309 494.576 194.108 500.092 Q199.907 505.609 199.907 513.765 Q199.907 517.914 198.21 521.922 Q196.513 525.93 192.552 530.362 Q188.639 534.794 179.492 542.526 Q171.854 548.938 169.685 551.249 Q167.516 553.512 166.102 555.822 L200.002 555.822 Z" fill="#000000" fill-rule="nonzero" fill-opacity="1" /><path clip-path="url(#clip760)" d="M154.739 73.8007 L163.226 72.6691 Q164.687 79.8829 168.176 83.089 Q171.712 86.2479 176.757 86.2479 Q182.745 86.2479 186.847 82.0989 Q190.996 77.9498 190.996 71.8204 Q190.996 65.974 187.177 62.2021 Q183.358 58.3831 177.464 58.3831 Q175.06 58.3831 171.477 59.326 L172.42 51.8765 Q173.268 51.9708 173.787 51.9708 Q179.209 51.9708 183.547 49.1419 Q187.884 46.313 187.884 40.4194 Q187.884 35.7517 184.725 32.687 Q181.566 29.6223 176.569 29.6223 Q171.618 29.6223 168.318 32.7342 Q165.017 35.846 164.074 42.0696 L155.587 40.5608 Q157.143 32.0269 162.66 27.3592 Q168.176 22.6443 176.38 22.6443 Q182.038 22.6443 186.8 25.0961 Q191.562 27.5007 194.061 31.6969 Q196.607 35.8931 196.607 40.608 Q196.607 45.0871 194.202 48.7647 Q191.798 52.4423 187.083 54.6112 Q193.212 56.0256 196.607 60.5048 Q200.002 64.9367 200.002 71.6318 Q200.002 80.6844 193.401 87.0023 Q186.8 93.2731 176.71 93.2731 Q167.61 93.2731 161.575 87.851 Q155.587 82.4289 154.739 73.8007 Z" fill="#000000" fill-rule="nonzero" fill-opacity="1" /><path clip-path="url(#clip760)" d="M94.8922 867.905 L17.1322 867.905 L17.1322 858.357 L94.8922 858.357 L94.8922 867.905 Z" fill="#000000" fill-rule="nonzero" fill-opacity="1" /><path clip-path="url(#clip760)" d="M66.7267 847.112 Q51.0792 847.112 43.5472 838.413 Q37.2882 831.146 37.2882 820.697 Q37.2882 809.081 44.9263 801.708 Q52.5114 794.335 65.9311 794.335 Q76.8047 794.335 83.0637 797.623 Q89.2697 800.859 92.7174 807.118 Q96.1652 813.324 96.1652 820.697 Q96.1652 832.525 88.5801 839.845 Q80.9951 847.112 66.7267 847.112 M66.7267 837.299 Q77.5473 837.299 82.9576 832.578 Q88.3149 827.858 88.3149 820.697 Q88.3149 813.589 82.9046 808.868 Q77.4943 804.148 66.4084 804.148 Q55.9591 804.148 50.6018 808.921 Q45.1915 813.642 45.1915 820.697 Q45.1915 827.858 50.5488 832.578 Q55.9061 837.299 66.7267 837.299 Z" fill="#000000" fill-rule="nonzero" fill-opacity="1" /><path clip-path="url(#clip760)" d="M78.0778 786.962 L76.5926 777.52 Q82.2681 776.725 85.2915 773.118 Q88.3149 769.458 88.3149 762.934 Q88.3149 756.357 85.6628 753.174 Q82.9576 749.991 79.3508 749.991 Q76.1152 749.991 74.2587 752.803 Q72.9857 754.765 71.0231 762.563 Q68.371 773.065 66.4615 777.149 Q64.4989 781.18 61.1042 783.302 Q57.6565 785.371 53.5192 785.371 Q49.7532 785.371 46.5706 783.673 Q43.335 781.923 41.2134 778.953 Q39.569 776.725 38.4552 772.906 Q37.2882 769.034 37.2882 764.631 Q37.2882 758.001 39.1978 753.015 Q41.1073 747.976 44.3959 745.589 Q47.6315 743.202 53.0948 742.3 L54.3678 751.636 Q50.0184 752.272 47.5784 755.349 Q45.1385 758.372 45.1385 763.942 Q45.1385 770.519 47.3132 773.33 Q49.488 776.141 52.4053 776.141 Q54.2618 776.141 55.7469 774.974 Q57.2852 773.807 58.293 771.314 Q58.8234 769.882 60.7329 762.881 Q63.4381 752.75 65.1885 748.772 Q66.8858 744.74 70.1744 742.459 Q73.4631 740.179 78.343 740.179 Q83.1168 740.179 87.3602 742.99 Q91.5505 745.748 93.8844 750.999 Q96.1652 756.25 96.1652 762.881 Q96.1652 773.861 91.6035 779.642 Q87.0419 785.371 78.0778 786.962 Z" fill="#000000" fill-rule="nonzero" fill-opacity="1" /><path clip-path="url(#clip760)" d="M78.0778 732.647 L76.5926 723.205 Q82.2681 722.41 85.2915 718.803 Q88.3149 715.143 88.3149 708.619 Q88.3149 702.041 85.6628 698.859 Q82.9576 695.676 79.3508 695.676 Q76.1152 695.676 74.2587 698.487 Q72.9857 700.45 71.0231 708.247 Q68.371 718.75 66.4615 722.834 Q64.4989 726.865 61.1042 728.987 Q57.6565 731.055 53.5192 731.055 Q49.7532 731.055 46.5706 729.358 Q43.335 727.608 41.2134 724.637 Q39.569 722.41 38.4552 718.59 Q37.2882 714.718 37.2882 710.316 Q37.2882 703.686 39.1978 698.7 Q41.1073 693.661 44.3959 691.274 Q47.6315 688.887 53.0948 687.985 L54.3678 697.32 Q50.0184 697.957 47.5784 701.033 Q45.1385 704.057 45.1385 709.626 Q45.1385 716.204 47.3132 719.015 Q49.488 721.826 52.4053 721.826 Q54.2618 721.826 55.7469 720.659 Q57.2852 719.492 58.293 716.999 Q58.8234 715.567 60.7329 708.565 Q63.4381 698.434 65.1885 694.456 Q66.8858 690.425 70.1744 688.144 Q73.4631 685.863 78.343 685.863 Q83.1168 685.863 87.3602 688.675 Q91.5505 691.433 93.8844 696.684 Q96.1652 701.935 96.1652 708.565 Q96.1652 719.545 91.6035 725.327 Q87.0419 731.055 78.0778 732.647 Z" fill="#000000" fill-rule="nonzero" fill-opacity="1" /><polyline clip-path="url(#clip762)" style="stroke:#4477aa; stroke-linecap:round; stroke-linejoin:round; stroke-width:8; stroke-opacity:1; fill:none" points="295.91,1256.5 795.144,1441.75 1294.38,1456.08 1793.61,1462.42 2292.85,1465.22 "/>
<circle clip-path="url(#clip762)" cx="295.91" cy="1256.5" r="14.4" fill="#4477aa" fill-rule="evenodd" fill-opacity="1" stroke="#000000" stroke-opacity="1" stroke-width="3.6"/>
<circle clip-path="url(#clip762)" cx="795.144" cy="1441.75" r="14.4" fill="#4477aa" fill-rule="evenodd" fill-opacity="1" stroke="#000000" stroke-opacity="1" stroke-width="3.6"/>
<circle clip-path="url(#clip762)" cx="1294.38" cy="1456.08" r="14.4" fill="#4477aa" fill-rule="evenodd" fill-opacity="1" stroke="#000000" stroke-opacity="1" stroke-width="3.6"/>
<circle clip-path="url(#clip762)" cx="1793.61" cy="1462.42" r="14.4" fill="#4477aa" fill-rule="evenodd" fill-opacity="1" stroke="#000000" stroke-opacity="1" stroke-width="3.6"/>
<circle clip-path="url(#clip762)" cx="2292.85" cy="1465.22" r="14.4" fill="#4477aa" fill-rule="evenodd" fill-opacity="1" stroke="#000000" stroke-opacity="1" stroke-width="3.6"/>
<polyline clip-path="url(#clip762)" style="stroke:#ee6677; stroke-linecap:round; stroke-linejoin:round; stroke-width:8; stroke-opacity:1; fill:none" points="295.91,88.5445 795.144,1416.15 1294.38,1444.89 1793.61,1457.32 2292.85,1462.77 "/>
<circle clip-path="url(#clip762)" cx="295.91" cy="88.5445" r="14.4" fill="#ee6677" fill-rule="evenodd" fill-opacity="1" stroke="#000000" stroke-opacity="1" stroke-width="3.6"/>
<circle clip-path="url(#clip762)" cx="795.144" cy="1416.15" r="14.4" fill="#ee6677" fill-rule="evenodd" fill-opacity="1" stroke="#000000" stroke-opacity="1" stroke-width="3.6"/>
<circle clip-path="url(#clip762)" cx="1294.38" cy="1444.89" r="14.4" fill="#ee6677" fill-rule="evenodd" fill-opacity="1" stroke="#000000" stroke-opacity="1" stroke-width="3.6"/>
<circle clip-path="url(#clip762)" cx="1793.61" cy="1457.32" r="14.4" fill="#ee6677" fill-rule="evenodd" fill-opacity="1" stroke="#000000" stroke-opacity="1" stroke-width="3.6"/>
<circle clip-path="url(#clip762)" cx="2292.85" cy="1462.77" r="14.4" fill="#ee6677" fill-rule="evenodd" fill-opacity="1" stroke="#000000" stroke-opacity="1" stroke-width="3.6"/>
<path clip-path="url(#clip760)" d="M1611.71 445.807 L2282.2 445.807 L2282.2 95.8868 L1611.71 95.8868  Z" fill="#ffffff" fill-rule="evenodd" fill-opacity="1"/>
<polyline clip-path="url(#clip760)" style="stroke:#000000; stroke-linecap:round; stroke-linejoin:round; stroke-width:4; stroke-opacity:1; fill:none" points="1611.71,445.807 2282.2,445.807 2282.2,95.8868 1611.71,95.8868 1611.71,445.807 "/>
<polyline clip-path="url(#clip760)" style="stroke:#4477aa; stroke-linecap:round; stroke-linejoin:round; stroke-width:18; stroke-opacity:1; fill:none" points="1635.23,212.527 1776.34,212.527 "/>
<circle clip-path="url(#clip760)" cx="1705.78" cy="212.527" r="8.71092" fill="#4477aa" fill-rule="evenodd" fill-opacity="1" stroke="#000000" stroke-opacity="1" stroke-width="8.71092"/>
<path clip-path="url(#clip760)" d="M1825.96 242.867 L1827.34 251.301 Q1823.31 252.149 1820.12 252.149 Q1814.93 252.149 1812.06 250.505 Q1809.2 248.861 1808.03 246.209 Q1806.86 243.503 1806.86 234.911 L1806.86 202.502 L1799.86 202.502 L1799.86 195.076 L1806.86 195.076 L1806.86 181.126 L1816.36 175.397 L1816.36 195.076 L1825.96 195.076 L1825.96 202.502 L1816.36 202.502 L1816.36 235.441 Q1816.36 239.525 1816.84 240.692 Q1817.37 241.859 1818.48 242.549 Q1819.65 243.238 1821.77 243.238 Q1823.36 243.238 1825.96 242.867 Z" fill="#000000" fill-rule="nonzero" fill-opacity="1" /><path clip-path="url(#clip760)" d="M1835.19 251.407 L1835.19 195.076 L1843.78 195.076 L1843.78 203.616 Q1847.07 197.622 1849.83 195.712 Q1852.64 193.803 1855.98 193.803 Q1860.81 193.803 1865.79 196.879 L1862.51 205.737 Q1859 203.669 1855.5 203.669 Q1852.37 203.669 1849.88 205.578 Q1847.39 207.435 1846.33 210.776 Q1844.74 215.868 1844.74 221.915 L1844.74 251.407 L1835.19 251.407 Z" fill="#000000" fill-rule="nonzero" fill-opacity="1" /><path clip-path="url(#clip760)" d="M1908.23 244.458 Q1902.92 248.967 1897.99 250.823 Q1893.11 252.68 1887.49 252.68 Q1878.21 252.68 1873.22 248.171 Q1868.23 243.61 1868.23 236.555 Q1868.23 232.418 1870.09 229.023 Q1872 225.575 1875.02 223.507 Q1878.1 221.438 1881.92 220.377 Q1884.73 219.634 1890.41 218.945 Q1901.97 217.566 1907.43 215.656 Q1907.48 213.694 1907.48 213.163 Q1907.48 207.329 1904.78 204.942 Q1901.12 201.706 1893.91 201.706 Q1887.17 201.706 1883.93 204.093 Q1880.75 206.427 1879.21 212.421 L1869.88 211.148 Q1871.15 205.154 1874.07 201.494 Q1876.99 197.781 1882.5 195.818 Q1888.02 193.803 1895.29 193.803 Q1902.5 193.803 1907.01 195.5 Q1911.52 197.198 1913.64 199.797 Q1915.76 202.343 1916.61 206.268 Q1917.09 208.708 1917.09 215.073 L1917.09 227.803 Q1917.09 241.117 1917.67 244.67 Q1918.31 248.171 1920.11 251.407 L1910.14 251.407 Q1908.65 248.436 1908.23 244.458 M1907.43 223.135 Q1902.23 225.257 1891.84 226.742 Q1885.95 227.591 1883.51 228.652 Q1881.07 229.712 1879.74 231.781 Q1878.42 233.797 1878.42 236.29 Q1878.42 240.109 1881.28 242.655 Q1884.2 245.201 1889.77 245.201 Q1895.29 245.201 1899.58 242.814 Q1903.88 240.374 1905.89 236.184 Q1907.43 232.948 1907.43 226.636 L1907.43 223.135 Z" fill="#000000" fill-rule="nonzero" fill-opacity="1" /><path clip-path="url(#clip760)" d="M1931.94 184.627 L1931.94 173.647 L1941.49 173.647 L1941.49 184.627 L1931.94 184.627 M1931.94 251.407 L1931.94 195.076 L1941.49 195.076 L1941.49 251.407 L1931.94 251.407 Z" fill="#000000" fill-rule="nonzero" fill-opacity="1" /><path clip-path="url(#clip760)" d="M1956.02 251.407 L1956.02 195.076 L1964.61 195.076 L1964.61 203.085 Q1970.82 193.803 1982.54 193.803 Q1987.63 193.803 1991.88 195.659 Q1996.17 197.463 1998.29 200.433 Q2000.42 203.403 2001.26 207.488 Q2001.79 210.14 2001.79 216.77 L2001.79 251.407 L1992.25 251.407 L1992.25 217.141 Q1992.25 211.307 1991.13 208.442 Q1990.02 205.525 1987.15 203.828 Q1984.34 202.077 1980.52 202.077 Q1974.42 202.077 1969.97 205.95 Q1965.57 209.822 1965.57 220.642 L1965.57 251.407 L1956.02 251.407 Z" fill="#000000" fill-rule="nonzero" fill-opacity="1" /><path clip-path="url(#clip760)" d="M2007.63 272.995 L2007.63 266.099 L2070.91 266.099 L2070.91 272.995 L2007.63 272.995 Z" fill="#000000" fill-rule="nonzero" fill-opacity="1" /><path clip-path="url(#clip760)" d="M2076.64 251.407 L2076.64 173.647 L2086.18 173.647 L2086.18 251.407 L2076.64 251.407 Z" fill="#000000" fill-rule="nonzero" fill-opacity="1" /><path clip-path="url(#clip760)" d="M2097.43 223.241 Q2097.43 207.594 2106.13 200.062 Q2113.4 193.803 2123.84 193.803 Q2135.46 193.803 2142.83 201.441 Q2150.21 209.026 2150.21 222.446 Q2150.21 233.319 2146.92 239.578 Q2143.68 245.784 2137.42 249.232 Q2131.22 252.68 2123.84 252.68 Q2112.02 252.68 2104.7 245.095 Q2097.43 237.51 2097.43 223.241 M2107.24 223.241 Q2107.24 234.062 2111.96 239.472 Q2116.68 244.83 2123.84 244.83 Q2130.95 244.83 2135.67 239.419 Q2140.39 234.009 2140.39 222.923 Q2140.39 212.474 2135.62 207.116 Q2130.9 201.706 2123.84 201.706 Q2116.68 201.706 2111.96 207.063 Q2107.24 212.421 2107.24 223.241 Z" fill="#000000" fill-rule="nonzero" fill-opacity="1" /><path clip-path="url(#clip760)" d="M2157.58 234.592 L2167.02 233.107 Q2167.82 238.783 2171.42 241.806 Q2175.08 244.83 2181.61 244.83 Q2188.18 244.83 2191.37 242.177 Q2194.55 239.472 2194.55 235.865 Q2194.55 232.63 2191.74 230.773 Q2189.78 229.5 2181.98 227.538 Q2171.48 224.886 2167.39 222.976 Q2163.36 221.014 2161.24 217.619 Q2159.17 214.171 2159.17 210.034 Q2159.17 206.268 2160.87 203.085 Q2162.62 199.85 2165.59 197.728 Q2167.82 196.084 2171.64 194.97 Q2175.51 193.803 2179.91 193.803 Q2186.54 193.803 2191.53 195.712 Q2196.57 197.622 2198.95 200.91 Q2201.34 204.146 2202.24 209.609 L2192.91 210.882 Q2192.27 206.533 2189.19 204.093 Q2186.17 201.653 2180.6 201.653 Q2174.02 201.653 2171.21 203.828 Q2168.4 206.003 2168.4 208.92 Q2168.4 210.776 2169.57 212.262 Q2170.73 213.8 2173.23 214.808 Q2174.66 215.338 2181.66 217.248 Q2191.79 219.953 2195.77 221.703 Q2199.8 223.4 2202.08 226.689 Q2204.36 229.978 2204.36 234.858 Q2204.36 239.631 2201.55 243.875 Q2198.79 248.065 2193.54 250.399 Q2188.29 252.68 2181.66 252.68 Q2170.68 252.68 2164.9 248.118 Q2159.17 243.556 2157.58 234.592 Z" fill="#000000" fill-rule="nonzero" fill-opacity="1" /><path clip-path="url(#clip760)" d="M2211.89 234.592 L2221.34 233.107 Q2222.13 238.783 2225.74 241.806 Q2229.4 244.83 2235.92 244.83 Q2242.5 244.83 2245.68 242.177 Q2248.87 239.472 2248.87 235.865 Q2248.87 232.63 2246.05 230.773 Q2244.09 229.5 2236.29 227.538 Q2225.79 224.886 2221.71 222.976 Q2217.68 221.014 2215.55 217.619 Q2213.49 214.171 2213.49 210.034 Q2213.49 206.268 2215.18 203.085 Q2216.93 199.85 2219.9 197.728 Q2222.13 196.084 2225.95 194.97 Q2229.82 193.803 2234.23 193.803 Q2240.86 193.803 2245.84 195.712 Q2250.88 197.622 2253.27 200.91 Q2255.65 204.146 2256.56 209.609 L2247.22 210.882 Q2246.58 206.533 2243.51 204.093 Q2240.48 201.653 2234.91 201.653 Q2228.34 201.653 2225.53 203.828 Q2222.72 206.003 2222.72 208.92 Q2222.72 210.776 2223.88 212.262 Q2225.05 213.8 2227.54 214.808 Q2228.97 215.338 2235.98 217.248 Q2246.11 219.953 2250.09 221.703 Q2254.12 223.4 2256.4 226.689 Q2258.68 229.978 2258.68 234.858 Q2258.68 239.631 2255.87 243.875 Q2253.11 248.065 2247.86 250.399 Q2242.61 252.68 2235.98 252.68 Q2225 252.68 2219.21 248.118 Q2213.49 243.556 2211.89 234.592 Z" fill="#000000" fill-rule="nonzero" fill-opacity="1" /><polyline clip-path="url(#clip760)" style="stroke:#ee6677; stroke-linecap:round; stroke-linejoin:round; stroke-width:18; stroke-opacity:1; fill:none" points="1635.23,329.167 1776.34,329.167 "/>
<circle clip-path="url(#clip760)" cx="1705.78" cy="329.167" r="8.71092" fill="#ee6677" fill-rule="evenodd" fill-opacity="1" stroke="#000000" stroke-opacity="1" stroke-width="8.71092"/>
<path clip-path="url(#clip760)" d="M1821.29 368.047 L1799.86 311.716 L1809.94 311.716 L1822.03 345.451 Q1824 350.914 1825.64 356.802 Q1826.91 352.346 1829.19 346.087 L1841.71 311.716 L1851.53 311.716 L1830.2 368.047 L1821.29 368.047 Z" fill="#000000" fill-rule="nonzero" fill-opacity="1" /><path clip-path="url(#clip760)" d="M1896.72 361.098 Q1891.41 365.607 1886.48 367.463 Q1881.6 369.32 1875.98 369.32 Q1866.7 369.32 1861.71 364.811 Q1856.72 360.25 1856.72 353.195 Q1856.72 349.058 1858.58 345.663 Q1860.49 342.215 1863.51 340.147 Q1866.59 338.078 1870.41 337.017 Q1873.22 336.274 1878.9 335.585 Q1890.46 334.206 1895.92 332.296 Q1895.97 330.334 1895.97 329.803 Q1895.97 323.969 1893.27 321.582 Q1889.61 318.346 1882.4 318.346 Q1875.66 318.346 1872.42 320.733 Q1869.24 323.067 1867.7 329.061 L1858.37 327.788 Q1859.64 321.794 1862.56 318.134 Q1865.48 314.421 1870.99 312.458 Q1876.51 310.443 1883.78 310.443 Q1890.99 310.443 1895.5 312.14 Q1900.01 313.838 1902.13 316.437 Q1904.25 318.983 1905.1 322.908 Q1905.58 325.348 1905.58 331.713 L1905.58 344.443 Q1905.58 357.757 1906.16 361.31 Q1906.8 364.811 1908.6 368.047 L1898.63 368.047 Q1897.14 365.076 1896.72 361.098 M1895.92 339.775 Q1890.72 341.897 1880.33 343.382 Q1874.44 344.231 1872 345.292 Q1869.56 346.352 1868.23 348.421 Q1866.91 350.437 1866.91 352.93 Q1866.91 356.749 1869.77 359.295 Q1872.69 361.841 1878.26 361.841 Q1883.78 361.841 1888.07 359.454 Q1892.37 357.014 1894.38 352.824 Q1895.92 349.588 1895.92 343.276 L1895.92 339.775 Z" fill="#000000" fill-rule="nonzero" fill-opacity="1" /><path clip-path="url(#clip760)" d="M1920.16 368.047 L1920.16 290.287 L1929.71 290.287 L1929.71 368.047 L1920.16 368.047 Z" fill="#000000" fill-rule="nonzero" fill-opacity="1" /><path clip-path="url(#clip760)" d="M1935.7 389.635 L1935.7 382.739 L1998.98 382.739 L1998.98 389.635 L1935.7 389.635 Z" fill="#000000" fill-rule="nonzero" fill-opacity="1" /><path clip-path="url(#clip760)" d="M2004.71 368.047 L2004.71 290.287 L2014.26 290.287 L2014.26 368.047 L2004.71 368.047 Z" fill="#000000" fill-rule="nonzero" fill-opacity="1" /><path clip-path="url(#clip760)" d="M2025.5 339.881 Q2025.5 324.234 2034.2 316.702 Q2041.47 310.443 2051.92 310.443 Q2063.54 310.443 2070.91 318.081 Q2078.28 325.666 2078.28 339.086 Q2078.28 349.959 2074.99 356.218 Q2071.76 362.424 2065.5 365.872 Q2059.29 369.32 2051.92 369.32 Q2040.09 369.32 2032.77 361.735 Q2025.5 354.15 2025.5 339.881 M2035.32 339.881 Q2035.32 350.702 2040.04 356.112 Q2044.76 361.47 2051.92 361.47 Q2059.03 361.47 2063.75 356.059 Q2068.47 350.649 2068.47 339.563 Q2068.47 329.114 2063.69 323.756 Q2058.97 318.346 2051.92 318.346 Q2044.76 318.346 2040.04 323.703 Q2035.32 329.061 2035.32 339.881 Z" fill="#000000" fill-rule="nonzero" fill-opacity="1" /><path clip-path="url(#clip760)" d="M2085.65 351.232 L2095.1 349.747 Q2095.89 355.423 2099.5 358.446 Q2103.16 361.47 2109.68 361.47 Q2116.26 361.47 2119.44 358.817 Q2122.62 356.112 2122.62 352.505 Q2122.62 349.27 2119.81 347.413 Q2117.85 346.14 2110.05 344.178 Q2099.55 341.526 2095.47 339.616 Q2091.44 337.654 2089.31 334.259 Q2087.25 330.811 2087.25 326.674 Q2087.25 322.908 2088.94 319.725 Q2090.69 316.49 2093.66 314.368 Q2095.89 312.724 2099.71 311.61 Q2103.58 310.443 2107.98 310.443 Q2114.62 310.443 2119.6 312.352 Q2124.64 314.262 2127.03 317.55 Q2129.41 320.786 2130.32 326.249 L2120.98 327.522 Q2120.34 323.173 2117.27 320.733 Q2114.24 318.293 2108.67 318.293 Q2102.1 318.293 2099.29 320.468 Q2096.47 322.643 2096.47 325.56 Q2096.47 327.416 2097.64 328.902 Q2098.81 330.44 2101.3 331.448 Q2102.73 331.978 2109.74 333.888 Q2119.87 336.593 2123.84 338.343 Q2127.88 340.04 2130.16 343.329 Q2132.44 346.618 2132.44 351.498 Q2132.44 356.271 2129.63 360.515 Q2126.87 364.705 2121.62 367.039 Q2116.37 369.32 2109.74 369.32 Q2098.76 369.32 2092.97 364.758 Q2087.25 360.196 2085.65 351.232 Z" fill="#000000" fill-rule="nonzero" fill-opacity="1" /><path clip-path="url(#clip760)" d="M2139.97 351.232 L2149.41 349.747 Q2150.21 355.423 2153.81 358.446 Q2157.47 361.47 2164 361.47 Q2170.57 361.47 2173.76 358.817 Q2176.94 356.112 2176.94 352.505 Q2176.94 349.27 2174.13 347.413 Q2172.17 346.14 2164.37 344.178 Q2153.87 341.526 2149.78 339.616 Q2145.75 337.654 2143.63 334.259 Q2141.56 330.811 2141.56 326.674 Q2141.56 322.908 2143.26 319.725 Q2145.01 316.49 2147.98 314.368 Q2150.21 312.724 2154.03 311.61 Q2157.9 310.443 2162.3 310.443 Q2168.93 310.443 2173.92 312.352 Q2178.96 314.262 2181.34 317.55 Q2183.73 320.786 2184.63 326.249 L2175.3 327.522 Q2174.66 323.173 2171.58 320.733 Q2168.56 318.293 2162.99 318.293 Q2156.41 318.293 2153.6 320.468 Q2150.79 322.643 2150.79 325.56 Q2150.79 327.416 2151.96 328.902 Q2153.12 330.44 2155.62 331.448 Q2157.05 331.978 2164.05 333.888 Q2174.18 336.593 2178.16 338.343 Q2182.19 340.04 2184.47 343.329 Q2186.75 346.618 2186.75 351.498 Q2186.75 356.271 2183.94 360.515 Q2181.18 364.705 2175.93 367.039 Q2170.68 369.32 2164.05 369.32 Q2153.07 369.32 2147.29 364.758 Q2141.56 360.196 2139.97 351.232 Z" fill="#000000" fill-rule="nonzero" fill-opacity="1" /></svg>
