<?xml version="1.0" encoding="utf-8"?>
<svg xmlns="http://www.w3.org/2000/svg" xmlns:xlink="http://www.w3.org/1999/xlink" width="600" height="450" viewBox="0 0 2400 1800">
<defs>
  <clipPath id="clip000">
    <rect x="0" y="0" width="2400" height="1800"/>
  </clipPath>
</defs>
<path clip-path="url(#clip000)" d="M0 1800 L2400 1800 L2400 0 L0 0  Z" fill="#ffffff" fill-rule="evenodd" fill-opacity="1"/>
<defs>
  <clipPath id="clip001">
    <rect x="480" y="0" width="1681" height="1681"/>
  </clipPath>
</defs>
<path clip-path="url(#clip000)" d="M316.201 1506.52 L2352.76 1506.52 L2352.76 47.2441 L316.201 47.2441  Z" fill="#ffffff" fill-rule="evenodd" fill-opacity="1"/>
<defs>
  <clipPath id="clip002">
    <rect x="316" y="47" width="2038" height="1460"/>
  </clipPath>
</defs>
<polyline clip-path="url(#clip002)" style="stroke:#000000; stroke-linecap:round; stroke-linejoin:round; stroke-width:2; stroke-opacity:0.1; fill:none" points="334.63,1506.52 334.63,47.2441 "/>
<polyline clip-path="url(#clip002)" style="stroke:#000000; stroke-linecap:round; stroke-linejoin:round; stroke-width:2; stroke-opacity:0.1; fill:none" points="726.728,1506.52 726.728,47.2441 "/>
<polyline clip-path="url(#clip002)" style="stroke:#000000; stroke-linecap:round; stroke-linejoin:round; stroke-width:2; stroke-opacity:0.1; fill:none" points="1118.83,1506.52 1118.83,47.2441 "/>
<polyline clip-path="url(#clip002)" style="stroke:#000000; stroke-linecap:round; stroke-linejoin:round; stroke-width:2; stroke-opacity:0.1; fill:none" points="1510.92,1506.52 1510.92,47.2441 "/>
<polyline clip-path="url(#clip002)" style="stroke:#000000; stroke-linecap:round; stroke-linejoin:round; stroke-width:2; stroke-opacity:0.1; fill:none" points="1903.02,1506.52 1903.02,47.2441 "/>
<polyline clip-path="url(#clip002)" style="stroke:#000000; stroke-linecap:round; stroke-linejoin:round; stroke-width:2; stroke-opacity:0.1; fill:none" points="2295.12,1506.52 2295.12,47.2441 "/>
<polyline clip-path="url(#clip002)" style="stroke:#000000; stroke-linecap:round; stroke-linejoin:round; stroke-width:2; stroke-opacity:0.1; fill:none" points="316.201,1276.21 2352.76,1276.21 "/>
<polyline clip-path="url(#clip002)" style="stroke:#000000; stroke-linecap:round; stroke-linejoin:round; stroke-width:2; stroke-opacity:0.1; fill:none" points="316.201,1029.4 2352.76,1029.4 "/>
<polyline clip-path="url(#clip002)" style="stroke:#000000; stroke-linecap:round; stroke-linejoin:round; stroke-width:2; stroke-opacity:0.1; fill:none" points="316.201,782.599 2352.76,782.599 "/>
<polyline clip-path="url(#clip002)" style="stroke:#000000; stroke-linecap:round; stroke-linejoin:round; stroke-width:2; stroke-opacity:0.1; fill:none" points="316.201,535.793 2352.76,535.793 "/>
<polyline clip-path="url(#clip002)" style="stroke:#000000; stroke-linecap:round; stroke-linejoin:round; stroke-width:2; stroke-opacity:0.1; fill:none" points="316.201,288.988 2352.76,288.988 "/>
<polyline clip-path="url(#clip000)" style="stroke:#000000; stroke-linecap:round; stroke-linejoin:round; stroke-width:4; stroke-opacity:1; fill:none" points="316.201,1506.52 2352.76,1506.52 "/>
<polyline clip-path="url(#clip000)" style="stroke:#000000; stroke-linecap:round; stroke-linejoin:round; stroke-width:2; stroke-opacity:0.5; fill:none" points="316.201,47.2441 2352.76,47.2441 "/>
<polyline clip-path="url(#clip000)" style="stroke:#000000; stroke-linecap:round; stroke-linejoin:round; stroke-width:4; stroke-opacity:1; fill:none" points="334.63,1506.52 334.63,1487.63 "/>
<polyline clip-path="url(#clip000)" style="stroke:#000000; stroke-linecap:round; stroke-linejoin:round; stroke-width:4; stroke-opacity:1; fill:none" points="726.728,1506.52 726.728,1487.63 "/>
<polyline clip-path="url(#clip000)" style="stroke:#000000; stroke-linecap:round; stroke-linejoin:round; stroke-width:4; stroke-opacity:1; fill:none" points="1118.83,1506.52 1118.83,1487.63 "/>
<polyline clip-path="url(#clip000)" style="stroke:#000000; stroke-linecap:round; stroke-linejoin:round; stroke-width:4; stroke-opacity:1; fill:none" points="1510.92,1506.52 1510.92,1487.63 "/>
<polyline clip-path="url(#clip000)" style="stroke:#000000; stroke-linecap:round; stroke-linejoin:round; stroke-width:4; stroke-opacity:1; fill:none" points="1903.02,1506.52 1903.02,1487.63 "/>
<polyline clip-path="url(#clip000)" style="stroke:#000000; stroke-linecap:round; stroke-linejoin:round; stroke-width:4; stroke-opacity:1; fill:none" points="2295.12,1506.52 2295.12,1487.63 "/>
<path clip-path="url(#clip000)" d="M312.093 1578.04 Q312.093 1565.78 314.592 1558.33 Q317.138 1550.83 322.089 1546.78 Q327.086 1542.72 334.63 1542.72 Q340.194 1542.72 344.39 1544.98 Q348.586 1547.2 351.321 1551.44 Q354.055 1555.64 355.611 1561.72 Q357.167 1567.76 357.167 1578.04 Q357.167 1590.2 354.668 1597.7 Q352.169 1605.15 347.172 1609.25 Q342.221 1613.3 334.63 1613.3 Q324.635 1613.3 318.93 1606.14 Q312.093 1597.51 312.093 1578.04 M320.816 1578.04 Q320.816 1595.06 324.776 1600.71 Q328.784 1606.32 334.63 1606.32 Q340.477 1606.32 344.437 1600.67 Q348.445 1595.01 348.445 1578.04 Q348.445 1560.97 344.437 1555.36 Q340.477 1549.75 334.536 1549.75 Q328.689 1549.75 325.2 1554.7 Q320.816 1561.01 320.816 1578.04 Z" fill="#000000" fill-rule="nonzero" fill-opacity="1" /><path clip-path="url(#clip000)" d="M706.053 1612.12 L697.566 1612.12 L697.566 1558.04 Q694.501 1560.97 689.504 1563.89 Q684.553 1566.81 680.593 1568.28 L680.593 1560.07 Q687.712 1556.72 693.04 1551.96 Q698.368 1547.2 700.584 1542.72 L706.053 1542.72 L706.053 1612.12 Z" fill="#000000" fill-rule="nonzero" fill-opacity="1" /><path clip-path="url(#clip000)" d="M727.788 1578.04 Q727.788 1565.78 730.287 1558.33 Q732.833 1550.83 737.784 1546.78 Q742.782 1542.72 750.326 1542.72 Q755.889 1542.72 760.085 1544.98 Q764.282 1547.2 767.016 1551.44 Q769.751 1555.64 771.307 1561.72 Q772.863 1567.76 772.863 1578.04 Q772.863 1590.2 770.364 1597.7 Q767.865 1605.15 762.867 1609.25 Q757.916 1613.3 750.326 1613.3 Q740.33 1613.3 734.625 1606.14 Q727.788 1597.51 727.788 1578.04 M736.511 1578.04 Q736.511 1595.06 740.471 1600.71 Q744.479 1606.32 750.326 1606.32 Q756.172 1606.32 760.132 1600.67 Q764.14 1595.01 764.14 1578.04 Q764.14 1560.97 760.132 1555.36 Q756.172 1549.75 750.231 1549.75 Q744.385 1549.75 740.896 1554.7 Q736.511 1561.01 736.511 1578.04 Z" fill="#000000" fill-rule="nonzero" fill-opacity="1" /><path clip-path="url(#clip000)" d="M1114.63 1603.97 L1114.63 1612.12 L1068.94 1612.12 Q1068.85 1609.06 1069.93 1606.23 Q1071.68 1601.56 1075.5 1597.04 Q1079.36 1592.51 1086.62 1586.57 Q1097.89 1577.33 1101.85 1571.95 Q1105.81 1566.53 1105.81 1561.72 Q1105.81 1556.68 1102.18 1553.24 Q1098.6 1549.75 1092.8 1549.75 Q1086.67 1549.75 1082.99 1553.42 Q1079.31 1557.1 1079.27 1563.61 L1070.54 1562.71 Q1071.44 1552.95 1077.29 1547.86 Q1083.13 1542.72 1092.99 1542.72 Q1102.94 1542.72 1108.74 1548.24 Q1114.53 1553.75 1114.53 1561.91 Q1114.53 1566.06 1112.84 1570.07 Q1111.14 1574.07 1107.18 1578.51 Q1103.27 1582.94 1094.12 1590.67 Q1086.48 1597.08 1084.31 1599.39 Q1082.14 1601.66 1080.73 1603.97 L1114.63 1603.97 Z" fill="#000000" fill-rule="nonzero" fill-opacity="1" /><path clip-path="url(#clip000)" d="M1123.73 1578.04 Q1123.73 1565.78 1126.23 1558.33 Q1128.77 1550.83 1133.72 1546.78 Q1138.72 1542.72 1146.27 1542.72 Q1151.83 1542.72 1156.03 1544.98 Q1160.22 1547.2 1162.96 1551.44 Q1165.69 1555.64 1167.25 1561.72 Q1168.8 1567.76 1168.8 1578.04 Q1168.8 1590.2 1166.3 1597.7 Q1163.8 1605.15 1158.81 1609.25 Q1153.86 1613.3 1146.27 1613.3 Q1136.27 1613.3 1130.57 1606.14 Q1123.73 1597.51 1123.73 1578.04 M1132.45 1578.04 Q1132.45 1595.06 1136.41 1600.71 Q1140.42 1606.32 1146.27 1606.32 Q1152.11 1606.32 1156.07 1600.67 Q1160.08 1595.01 1160.08 1578.04 Q1160.08 1560.97 1156.07 1555.36 Q1152.11 1549.75 1146.17 1549.75 Q1140.32 1549.75 1136.84 1554.7 Q1132.45 1561.01 1132.45 1578.04 Z" fill="#000000" fill-rule="nonzero" fill-opacity="1" /><path clip-path="url(#clip000)" d="M1461.56 1593.88 L1470.04 1592.75 Q1471.51 1599.96 1475 1603.17 Q1478.53 1606.32 1483.58 1606.32 Q1489.56 1606.32 1493.67 1602.18 Q1497.82 1598.03 1497.82 1591.9 Q1497.82 1586.05 1494 1582.28 Q1490.18 1578.46 1484.28 1578.46 Q1481.88 1578.46 1478.3 1579.4 L1479.24 1571.95 Q1480.09 1572.05 1480.61 1572.05 Q1486.03 1572.05 1490.37 1569.22 Q1494.7 1566.39 1494.7 1560.5 Q1494.7 1555.83 1491.54 1552.76 Q1488.39 1549.7 1483.39 1549.7 Q1478.44 1549.7 1475.14 1552.81 Q1471.84 1555.92 1470.89 1562.15 L1462.41 1560.64 Q1463.96 1552.1 1469.48 1547.44 Q1475 1542.72 1483.2 1542.72 Q1488.86 1542.72 1493.62 1545.17 Q1498.38 1547.58 1500.88 1551.77 Q1503.43 1555.97 1503.43 1560.68 Q1503.43 1565.16 1501.02 1568.84 Q1498.62 1572.52 1493.9 1574.69 Q1500.03 1576.1 1503.43 1580.58 Q1506.82 1585.01 1506.82 1591.71 Q1506.82 1600.76 1500.22 1607.08 Q1493.62 1613.35 1483.53 1613.35 Q1474.43 1613.35 1468.39 1607.93 Q1462.41 1602.51 1461.56 1593.88 Z" fill="#000000" fill-rule="nonzero" fill-opacity="1" /><path clip-path="url(#clip000)" d="M1515.21 1578.04 Q1515.21 1565.78 1517.71 1558.33 Q1520.26 1550.83 1525.21 1546.78 Q1530.21 1542.72 1537.75 1542.72 Q1543.31 1542.72 1547.51 1544.98 Q1551.71 1547.2 1554.44 1551.44 Q1557.18 1555.64 1558.73 1561.72 Q1560.29 1567.76 1560.29 1578.04 Q1560.29 1590.2 1557.79 1597.7 Q1555.29 1605.15 1550.29 1609.25 Q1545.34 1613.3 1537.75 1613.3 Q1527.75 1613.3 1522.05 1606.14 Q1515.21 1597.51 1515.21 1578.04 M1523.94 1578.04 Q1523.94 1595.06 1527.9 1600.71 Q1531.9 1606.32 1537.75 1606.32 Q1543.6 1606.32 1547.56 1600.67 Q1551.56 1595.01 1551.56 1578.04 Q1551.56 1560.97 1547.56 1555.36 Q1543.6 1549.75 1537.66 1549.75 Q1531.81 1549.75 1528.32 1554.7 Q1523.94 1561.01 1523.94 1578.04 Z" fill="#000000" fill-rule="nonzero" fill-opacity="1" /><path clip-path="url(#clip000)" d="M1882.23 1612.12 L1882.23 1595.57 L1852.24 1595.57 L1852.24 1587.8 L1883.78 1543 L1890.71 1543 L1890.71 1587.8 L1900.05 1587.8 L1900.05 1595.57 L1890.71 1595.57 L1890.71 1612.12 L1882.23 1612.12 M1882.23 1587.8 L1882.23 1556.63 L1860.59 1587.8 L1882.23 1587.8 Z" fill="#000000" fill-rule="nonzero" fill-opacity="1" /><path clip-path="url(#clip000)" d="M1908.73 1578.04 Q1908.73 1565.78 1911.22 1558.33 Q1913.77 1550.83 1918.72 1546.78 Q1923.72 1542.72 1931.26 1542.72 Q1936.83 1542.72 1941.02 1544.98 Q1945.22 1547.2 1947.95 1551.44 Q1950.69 1555.64 1952.24 1561.72 Q1953.8 1567.76 1953.8 1578.04 Q1953.8 1590.2 1951.3 1597.7 Q1948.8 1605.15 1943.8 1609.25 Q1938.85 1613.3 1931.26 1613.3 Q1921.27 1613.3 1915.56 1606.14 Q1908.73 1597.51 1908.73 1578.04 M1917.45 1578.04 Q1917.45 1595.06 1921.41 1600.71 Q1925.42 1606.32 1931.26 1606.32 Q1937.11 1606.32 1941.07 1600.67 Q1945.08 1595.01 1945.08 1578.04 Q1945.08 1560.97 1941.07 1555.36 Q1937.11 1549.75 1931.17 1549.75 Q1925.32 1549.75 1921.83 1554.7 Q1917.45 1561.01 1917.45 1578.04 Z" fill="#000000" fill-rule="nonzero" fill-opacity="1" /><path clip-path="url(#clip000)" d="M2245.73 1594.02 L2254.64 1593.26 Q2255.63 1599.77 2259.21 1603.07 Q2262.84 1606.32 2267.94 1606.32 Q2274.07 1606.32 2278.31 1601.7 Q2282.55 1597.08 2282.55 1589.45 Q2282.55 1582.18 2278.45 1577.99 Q2274.4 1573.79 2267.79 1573.79 Q2263.69 1573.79 2260.39 1575.68 Q2257.09 1577.52 2255.21 1580.49 L2247.24 1579.45 L2253.93 1543.95 L2288.3 1543.95 L2288.3 1552.06 L2260.72 1552.06 L2257 1570.63 Q2263.22 1566.3 2270.06 1566.3 Q2279.11 1566.3 2285.33 1572.57 Q2291.56 1578.84 2291.56 1588.69 Q2291.56 1598.07 2286.09 1604.91 Q2279.44 1613.3 2267.94 1613.3 Q2258.51 1613.3 2252.52 1608.02 Q2246.58 1602.74 2245.73 1594.02 Z" fill="#000000" fill-rule="nonzero" fill-opacity="1" /><path clip-path="url(#clip000)" d="M2299.43 1578.04 Q2299.43 1565.78 2301.93 1558.33 Q2304.48 1550.83 2309.43 1546.78 Q2314.42 1542.72 2321.97 1542.72 Q2327.53 1542.72 2331.73 1544.98 Q2335.92 1547.2 2338.66 1551.44 Q2341.39 1555.64 2342.95 1561.72 Q2344.51 1567.76 2344.51 1578.04 Q2344.51 1590.2 2342.01 1597.7 Q2339.51 1605.15 2334.51 1609.25 Q2329.56 1613.3 2321.97 1613.3 Q2311.97 1613.3 2306.27 1606.14 Q2299.43 1597.51 2299.43 1578.04 M2308.15 1578.04 Q2308.15 1595.06 2312.11 1600.71 Q2316.12 1606.32 2321.97 1606.32 Q2327.82 1606.32 2331.78 1600.67 Q2335.78 1595.01 2335.78 1578.04 Q2335.78 1560.97 2331.78 1555.36 Q2327.82 1549.75 2321.87 1549.75 Q2316.03 1549.75 2312.54 1554.7 Q2308.15 1561.01 2308.15 1578.04 Z" fill="#000000" fill-rule="nonzero" fill-opacity="1" /><path clip-path="url(#clip000)" d="M1233.91 1721.38 L1243.78 1722.6 Q1241.44 1731.24 1235.13 1736.01 Q1228.82 1740.79 1219.01 1740.79 Q1206.65 1740.79 1199.38 1733.2 Q1192.17 1725.57 1192.17 1711.83 Q1192.17 1697.61 1199.49 1689.76 Q1206.81 1681.91 1218.48 1681.91 Q1229.77 1681.91 1236.93 1689.6 Q1244.09 1697.29 1244.09 1711.24 Q1244.09 1712.09 1244.04 1713.79 L1202.03 1713.79 Q1202.56 1723.07 1207.28 1728.01 Q1212 1732.94 1219.06 1732.94 Q1224.31 1732.94 1228.02 1730.18 Q1231.74 1727.42 1233.91 1721.38 M1202.56 1705.94 L1234.02 1705.94 Q1233.38 1698.83 1230.41 1695.28 Q1225.85 1689.76 1218.58 1689.76 Q1212 1689.76 1207.5 1694.16 Q1203.04 1698.57 1202.56 1705.94 Z" fill="#000000" fill-rule="nonzero" fill-opacity="1" /><path clip-path="url(#clip000)" d="M1255.76 1761.1 L1255.76 1683.18 L1264.46 1683.18 L1264.46 1690.5 Q1267.54 1686.21 1271.41 1684.09 Q1275.28 1681.91 1280.8 1681.91 Q1288.01 1681.91 1293.53 1685.62 Q1299.05 1689.34 1301.86 1696.13 Q1304.67 1702.86 1304.67 1710.93 Q1304.67 1719.57 1301.54 1726.52 Q1298.46 1733.42 1292.52 1737.13 Q1286.63 1740.79 1280.11 1740.79 Q1275.34 1740.79 1271.52 1738.77 Q1267.75 1736.76 1265.31 1733.68 L1265.31 1761.1 L1255.76 1761.1 M1264.41 1711.67 Q1264.41 1722.54 1268.81 1727.74 Q1273.21 1732.94 1279.47 1732.94 Q1285.84 1732.94 1290.35 1727.58 Q1294.91 1722.17 1294.91 1710.87 Q1294.91 1700.11 1290.45 1694.75 Q1286.05 1689.39 1279.9 1689.39 Q1273.8 1689.39 1269.08 1695.12 Q1264.41 1700.79 1264.41 1711.67 Z" fill="#000000" fill-rule="nonzero" fill-opacity="1" /><path clip-path="url(#clip000)" d="M1312.63 1711.35 Q1312.63 1695.7 1321.32 1688.17 Q1328.59 1681.91 1339.04 1681.91 Q1350.66 1681.91 1358.03 1689.55 Q1365.4 1697.13 1365.4 1710.55 Q1365.4 1721.43 1362.11 1727.69 Q1358.88 1733.89 1352.62 1737.34 Q1346.41 1740.79 1339.04 1740.79 Q1327.21 1740.79 1319.89 1733.2 Q1312.63 1725.62 1312.63 1711.35 M1322.44 1711.35 Q1322.44 1722.17 1327.16 1727.58 Q1331.88 1732.94 1339.04 1732.94 Q1346.15 1732.94 1350.87 1727.53 Q1355.59 1722.12 1355.59 1711.03 Q1355.59 1700.58 1350.82 1695.23 Q1346.09 1689.82 1339.04 1689.82 Q1331.88 1689.82 1327.16 1695.17 Q1322.44 1700.53 1322.44 1711.35 Z" fill="#000000" fill-rule="nonzero" fill-opacity="1" /><path clip-path="url(#clip000)" d="M1413.35 1718.88 L1422.74 1720.1 Q1421.2 1729.81 1414.84 1735.33 Q1408.53 1740.79 1399.3 1740.79 Q1387.73 1740.79 1380.68 1733.26 Q1373.68 1725.67 1373.68 1711.56 Q1373.68 1702.44 1376.7 1695.6 Q1379.72 1688.75 1385.88 1685.36 Q1392.08 1681.91 1399.35 1681.91 Q1408.53 1681.91 1414.36 1686.58 Q1420.2 1691.19 1421.84 1699.73 L1412.56 1701.17 Q1411.23 1695.49 1407.84 1692.63 Q1404.49 1689.76 1399.72 1689.76 Q1392.51 1689.76 1388 1694.96 Q1383.49 1700.11 1383.49 1711.3 Q1383.49 1722.65 1387.84 1727.79 Q1392.19 1732.94 1399.19 1732.94 Q1404.81 1732.94 1408.58 1729.49 Q1412.34 1726.04 1413.35 1718.88 Z" fill="#000000" fill-rule="nonzero" fill-opacity="1" /><path clip-path="url(#clip000)" d="M1430.91 1739.52 L1430.91 1661.76 L1440.46 1661.76 L1440.46 1689.66 Q1447.14 1681.91 1457.32 1681.91 Q1463.58 1681.91 1468.2 1684.4 Q1472.81 1686.84 1474.78 1691.19 Q1476.79 1695.54 1476.79 1703.82 L1476.79 1739.52 L1467.24 1739.52 L1467.24 1703.82 Q1467.24 1696.66 1464.11 1693.42 Q1461.04 1690.13 1455.36 1690.13 Q1451.12 1690.13 1447.35 1692.36 Q1443.64 1694.54 1442.05 1698.3 Q1440.46 1702.07 1440.46 1708.7 L1440.46 1739.52 L1430.91 1739.52 Z" fill="#000000" fill-rule="nonzero" fill-opacity="1" /><polyline clip-path="url(#clip000)" style="stroke:#000000; stroke-linecap:round; stroke-linejoin:round; stroke-width:4; stroke-opacity:1; fill:none" points="316.201,1506.52 316.201,47.2441 "/>
<polyline clip-path="url(#clip000)" style="stroke:#000000; stroke-linecap:round; stroke-linejoin:round; stroke-width:2; stroke-opacity:0.5; fill:none" points="2352.76,1506.52 2352.76,47.2441 "/>
<polyline clip-path="url(#clip000)" style="stroke:#000000; stroke-linecap:round; stroke-linejoin:round; stroke-width:4; stroke-opacity:1; fill:none" points="316.201,1276.21 335.099,1276.21 "/>
<polyline clip-path="url(#clip000)" style="stroke:#000000; stroke-linecap:round; stroke-linejoin:round; stroke-width:4; stroke-opacity:1; fill:none" points="316.201,1029.4 335.099,1029.4 "/>
<polyline clip-path="url(#clip000)" style="stroke:#000000; stroke-linecap:round; stroke-linejoin:round; stroke-width:4; stroke-opacity:1; fill:none" points="316.201,782.599 335.099,782.599 "/>
<polyline clip-path="url(#clip000)" style="stroke:#000000; stroke-linecap:round; stroke-linejoin:round; stroke-width:4; stroke-opacity:1; fill:none" points="316.201,535.793 335.099,535.793 "/>
<polyline clip-path="url(#clip000)" style="stroke:#000000; stroke-linecap:round; stroke-linejoin:round; stroke-width:4; stroke-opacity:1; fill:none" points="316.201,288.988 335.099,288.988 "/>
<path clip-path="url(#clip000)" d="M154.362 1276.68 Q154.362 1264.42 156.86 1256.97 Q159.407 1249.48 164.357 1245.42 Q169.355 1241.37 176.899 1241.37 Q182.462 1241.37 186.658 1243.63 Q190.855 1245.85 193.589 1250.09 Q196.324 1254.29 197.88 1260.37 Q199.436 1266.4 199.436 1276.68 Q199.436 1288.85 196.937 1296.34 Q194.438 1303.79 189.44 1307.89 Q184.49 1311.95 176.899 1311.95 Q166.903 1311.95 161.198 1304.78 Q154.362 1296.15 154.362 1276.68 M163.084 1276.68 Q163.084 1293.7 167.045 1299.36 Q171.052 1304.97 176.899 1304.97 Q182.745 1304.97 186.706 1299.31 Q190.713 1293.65 190.713 1276.68 Q190.713 1259.61 186.706 1254 Q182.745 1248.39 176.804 1248.39 Q170.958 1248.39 167.469 1253.34 Q163.084 1259.66 163.084 1276.68 Z" fill="#000000" fill-rule="nonzero" fill-opacity="1" /><path clip-path="url(#clip000)" d="M212.826 1310.77 L212.826 1301.1 L222.491 1301.1 L222.491 1310.77 L212.826 1310.77 Z" fill="#000000" fill-rule="nonzero" fill-opacity="1" /><path clip-path="url(#clip000)" d="M234.939 1292.52 L243.426 1291.39 Q244.887 1298.6 248.376 1301.81 Q251.912 1304.97 256.957 1304.97 Q262.945 1304.97 267.047 1300.82 Q271.196 1296.67 271.196 1290.54 Q271.196 1284.7 267.377 1280.92 Q263.558 1277.11 257.664 1277.11 Q255.26 1277.11 251.677 1278.05 L252.62 1270.6 Q253.468 1270.69 253.987 1270.69 Q259.409 1270.69 263.747 1267.86 Q268.084 1265.03 268.084 1259.14 Q268.084 1254.47 264.925 1251.41 Q261.766 1248.34 256.769 1248.34 Q251.818 1248.34 248.518 1251.46 Q245.217 1254.57 244.274 1260.79 L235.787 1259.28 Q237.343 1250.75 242.86 1246.08 Q248.376 1241.37 256.58 1241.37 Q262.238 1241.37 267 1243.82 Q271.762 1246.22 274.261 1250.42 Q276.807 1254.62 276.807 1259.33 Q276.807 1263.81 274.402 1267.49 Q271.998 1271.16 267.283 1273.33 Q273.412 1274.75 276.807 1279.23 Q280.201 1283.66 280.201 1290.35 Q280.201 1299.41 273.601 1305.72 Q267 1312 256.91 1312 Q247.81 1312 241.775 1306.57 Q235.787 1301.15 234.939 1292.52 Z" fill="#000000" fill-rule="nonzero" fill-opacity="1" /><path clip-path="url(#clip000)" d="M154.409 1029.88 Q154.409 1017.62 156.908 1010.17 Q159.454 1002.67 164.404 998.616 Q169.402 994.561 176.946 994.561 Q182.509 994.561 186.706 996.824 Q190.902 999.04 193.636 1003.28 Q196.371 1007.48 197.927 1013.56 Q199.483 1019.6 199.483 1029.88 Q199.483 1042.04 196.984 1049.54 Q194.485 1056.99 189.487 1061.09 Q184.537 1065.14 176.946 1065.14 Q166.95 1065.14 161.245 1057.98 Q154.409 1049.35 154.409 1029.88 M163.131 1029.88 Q163.131 1046.9 167.092 1052.55 Q171.099 1058.16 176.946 1058.16 Q182.792 1058.16 186.753 1052.51 Q190.76 1046.85 190.76 1029.88 Q190.76 1012.81 186.753 1007.2 Q182.792 1001.59 176.852 1001.59 Q171.005 1001.59 167.516 1006.54 Q163.131 1012.85 163.131 1029.88 Z" fill="#000000" fill-rule="nonzero" fill-opacity="1" /><path clip-path="url(#clip000)" d="M212.873 1063.96 L212.873 1054.3 L222.539 1054.3 L222.539 1063.96 L212.873 1063.96 Z" fill="#000000" fill-rule="nonzero" fill-opacity="1" /><path clip-path="url(#clip000)" d="M278.976 1011.77 L270.536 1012.43 Q269.404 1007.43 267.33 1005.17 Q263.888 1001.54 258.843 1001.54 Q254.788 1001.54 251.724 1003.8 Q247.716 1006.73 245.406 1012.34 Q243.095 1017.95 243.001 1028.32 Q246.066 1023.65 250.498 1021.39 Q254.93 1019.13 259.786 1019.13 Q268.273 1019.13 274.214 1025.4 Q280.201 1031.62 280.201 1041.52 Q280.201 1048.03 277.373 1053.64 Q274.591 1059.2 269.687 1062.17 Q264.784 1065.14 258.56 1065.14 Q247.952 1065.14 241.257 1057.36 Q234.562 1049.54 234.562 1031.62 Q234.562 1011.58 241.964 1002.48 Q248.423 994.561 259.362 994.561 Q267.518 994.561 272.705 999.135 Q277.938 1003.71 278.976 1011.77 M244.321 1041.57 Q244.321 1045.95 246.16 1049.96 Q248.046 1053.97 251.394 1056.09 Q254.741 1058.16 258.419 1058.16 Q263.794 1058.16 267.66 1053.83 Q271.526 1049.49 271.526 1042.04 Q271.526 1034.87 267.707 1030.77 Q263.888 1026.62 258.089 1026.62 Q252.337 1026.62 248.329 1030.77 Q244.321 1034.87 244.321 1041.57 Z" fill="#000000" fill-rule="nonzero" fill-opacity="1" /><path clip-path="url(#clip000)" d="M154.22 783.07 Q154.22 770.812 156.719 763.362 Q159.265 755.865 164.216 751.811 Q169.213 747.756 176.757 747.756 Q182.321 747.756 186.517 750.019 Q190.713 752.235 193.448 756.478 Q196.183 760.675 197.738 766.757 Q199.294 772.792 199.294 783.07 Q199.294 795.235 196.795 802.731 Q194.297 810.181 189.299 814.283 Q184.348 818.337 176.757 818.337 Q166.762 818.337 161.057 811.171 Q154.22 802.543 154.22 783.07 M162.943 783.07 Q162.943 800.091 166.903 805.749 Q170.911 811.359 176.757 811.359 Q182.604 811.359 186.564 805.702 Q190.572 800.044 190.572 783.07 Q190.572 766.002 186.564 760.392 Q182.604 754.781 176.663 754.781 Q170.817 754.781 167.327 759.732 Q162.943 766.05 162.943 783.07 Z" fill="#000000" fill-rule="nonzero" fill-opacity="1" /><path clip-path="url(#clip000)" d="M212.685 817.159 L212.685 807.493 L222.35 807.493 L222.35 817.159 L212.685 817.159 Z" fill="#000000" fill-rule="nonzero" fill-opacity="1" /><path clip-path="url(#clip000)" d="M236.023 801.175 L244.18 800.421 Q245.217 806.173 248.14 808.766 Q251.064 811.359 255.637 811.359 Q259.55 811.359 262.474 809.568 Q265.444 807.776 267.33 804.806 Q269.216 801.788 270.489 796.696 Q271.762 791.604 271.762 786.323 Q271.762 785.758 271.715 784.626 Q269.169 788.681 264.737 791.227 Q260.352 793.726 255.213 793.726 Q246.632 793.726 240.691 787.502 Q234.75 781.279 234.75 771.094 Q234.75 760.58 240.927 754.168 Q247.15 747.756 256.486 747.756 Q263.228 747.756 268.792 751.386 Q274.402 755.017 277.278 761.759 Q280.201 768.454 280.201 781.184 Q280.201 794.433 277.325 802.307 Q274.449 810.134 268.744 814.236 Q263.087 818.337 255.448 818.337 Q247.339 818.337 242.2 813.858 Q237.06 809.332 236.023 801.175 M270.772 770.67 Q270.772 763.362 266.858 759.072 Q262.992 754.781 257.523 754.781 Q251.865 754.781 247.669 759.402 Q243.473 764.022 243.473 771.377 Q243.473 777.978 247.433 782.127 Q251.441 786.229 257.287 786.229 Q263.181 786.229 266.953 782.127 Q270.772 777.978 270.772 770.67 Z" fill="#000000" fill-rule="nonzero" fill-opacity="1" /><path clip-path="url(#clip000)" d="M187.036 570.353 L178.549 570.353 L178.549 516.274 Q175.484 519.197 170.486 522.12 Q165.536 525.044 161.575 526.505 L161.575 518.301 Q168.695 514.954 174.023 510.192 Q179.35 505.43 181.566 500.951 L187.036 500.951 L187.036 570.353 Z" fill="#000000" fill-rule="nonzero" fill-opacity="1" /><path clip-path="url(#clip000)" d="M213.533 570.353 L213.533 560.688 L223.199 560.688 L223.199 570.353 L213.533 570.353 Z" fill="#000000" fill-rule="nonzero" fill-opacity="1" /><path clip-path="url(#clip000)" d="M280.201 562.197 L280.201 570.353 L234.514 570.353 Q234.42 567.289 235.505 564.46 Q237.249 559.792 241.068 555.266 Q244.934 550.74 252.195 544.799 Q263.464 535.558 267.424 530.183 Q271.385 524.761 271.385 519.952 Q271.385 514.907 267.754 511.465 Q264.171 507.976 258.372 507.976 Q252.242 507.976 248.565 511.653 Q244.887 515.331 244.84 521.837 L236.117 520.942 Q237.013 511.182 242.86 506.09 Q248.706 500.951 258.56 500.951 Q268.509 500.951 274.308 506.467 Q280.107 511.983 280.107 520.14 Q280.107 524.289 278.41 528.297 Q276.712 532.304 272.752 536.736 Q268.839 541.168 259.692 548.901 Q252.054 555.313 249.885 557.623 Q247.716 559.886 246.302 562.197 L280.201 562.197 Z" fill="#000000" fill-rule="nonzero" fill-opacity="1" /><path clip-path="url(#clip000)" d="M185.81 323.548 L177.323 323.548 L177.323 269.469 Q174.258 272.392 169.261 275.315 Q164.31 278.238 160.349 279.7 L160.349 271.496 Q167.469 268.149 172.797 263.387 Q178.125 258.624 180.341 254.145 L185.81 254.145 L185.81 323.548 Z" fill="#000000" fill-rule="nonzero" fill-opacity="1" /><path clip-path="url(#clip000)" d="M212.307 323.548 L212.307 313.883 L221.973 313.883 L221.973 323.548 L212.307 323.548 Z" fill="#000000" fill-rule="nonzero" fill-opacity="1" /><path clip-path="url(#clip000)" d="M234.373 305.443 L243.284 304.689 Q244.274 311.195 247.857 314.496 Q251.488 317.749 256.58 317.749 Q262.709 317.749 266.953 313.128 Q271.196 308.508 271.196 300.87 Q271.196 293.609 267.094 289.413 Q263.039 285.216 256.439 285.216 Q252.337 285.216 249.036 287.102 Q245.736 288.941 243.85 291.911 L235.882 290.874 L242.577 255.371 L276.948 255.371 L276.948 263.481 L249.366 263.481 L245.641 282.057 Q251.865 277.72 258.702 277.72 Q267.754 277.72 273.978 283.99 Q280.201 290.261 280.201 300.115 Q280.201 309.498 274.732 316.334 Q268.084 324.727 256.58 324.727 Q247.15 324.727 241.162 319.446 Q235.222 314.166 234.373 305.443 Z" fill="#000000" fill-rule="nonzero" fill-opacity="1" /><path clip-path="url(#clip000)" d="M94.8922 867.905 L17.1322 867.905 L17.1322 858.357 L94.8922 858.357 L94.8922 867.905 Z" fill="#000000" fill-rule="nonzero" fill-opacity="1" /><path clip-path="url(#clip000)" d="M66.7267 847.112 Q51.0792 847.112 43.5472 838.413 Q37.2882 831.146 37.2882 820.697 Q37.2882 809.081 44.9263 801.708 Q52.5114 794.335 65.9311 794.335 Q76.8047 794.335 83.0637 797.623 Q89.2697 800.859 92.7174 807.118 Q96.1652 813.324 96.1652 820.697 Q96.1652 832.525 88.5801 839.845 Q80.9951 847.112 66.7267 847.112 M66.7267 837.299 Q77.5473 837.299 82.9576 832.578 Q88.3149 827.858 88.3149 820.697 Q88.3149 813.589 82.9046 808.868 Q77.4943 804.148 66.4084 804.148 Q55.9591 804.148 50.6018 808.921 Q45.1915 813.642 45.1915 820.697 Q45.1915 827.858 50.5488 832.578 Q55.9061 837.299 66.7267 837.299 Z" fill="#000000" fill-rule="nonzero" fill-opacity="1" /><path clip-path="url(#clip000)" d="M78.0778 786.962 L76.5926 777.52 Q82.2681 776.725 85.2915 773.118 Q88.3149 769.458 88.3149 762.934 Q88.3149 756.357 85.6628 753.174 Q82.9576 749.991 79.3508 749.991 Q76.1152 749.991 74.2587 752.803 Q72.9857 754.765 71.0231 762.563 Q68.371 773.065 66.4615 777.149 Q64.4989 781.18 61.1042 783.302 Q57.6565 785.371 53.5192 785.371 Q49.7532 785.371 46.5706 783.673 Q43.335 781.923 41.2134 778.953 Q39.569 776.725 38.4552 772.906 Q37.2882 769.034 37.2882 764.631 Q37.2882 758.001 39.1978 753.015 Q41.1073 747.976 44.3959 745.589 Q47.6315 743.202 53.0948 742.3 L54.3678 751.636 Q50.0184 752.272 47.5784 755.349 Q45.1385 758.372 45.1385 763.942 Q45.1385 770.519 47.3132 773.33 Q49.488 776.141 52.4053 776.141 Q54.2618 776.141 55.7469 774.974 Q57.2852 773.807 58.293 771.314 Q58.8234 769.882 60.7329 762.881 Q63.4381 752.75 65.1885 748.772 Q66.8858 744.74 70.1744 742.459 Q73.4631 740.179 78.343 740.179 Q83.1168 740.179 87.3602 742.99 Q91.5505 745.748 93.8844 750.999 Q96.1652 756.25 96.1652 762.881 Q96.1652 773.861 91.6035 779.642 Q87.0419 785.371 78.0778 786.962 Z" fill="#000000" fill-rule="nonzero" fill-opacity="1" /><path clip-path="url(#clip000)" d="M78.0778 732.647 L76.5926 723.205 Q82.2681 722.41 85.2915 718.803 Q88.3149 715.143 88.3149 708.619 Q88.3149 702.041 85.6628 698.859 Q82.9576 695.676 79.3508 695.676 Q76.1152 695.676 74.2587 698.487 Q72.9857 700.45 71.0231 708.247 Q68.371 718.75 66.4615 722.834 Q64.4989 726.865 61.1042 728.987 Q57.6565 731.055 53.5192 731.055 Q49.7532 731.055 46.5706 729.358 Q43.335 727.608 41.2134 724.637 Q39.569 722.41 38.4552 718.59 Q37.2882 714.718 37.2882 710.316 Q37.2882 703.686 39.1978 698.7 Q41.1073 693.661 44.3959 691.274 Q47.6315 688.887 53.0948 687.985 L54.3678 697.32 Q50.0184 697.957 47.5784 701.033 Q45.1385 704.057 45.1385 709.626 Q45.1385 716.204 47.3132 719.015 Q49.488 721.826 52.4053 721.826 Q54.2618 721.826 55.7469 720.659 Q57.2852 719.492 58.293 716.999 Q58.8234 715.567 60.7329 708.565 Q63.4381 698.434 65.1885 694.456 Q66.8858 690.425 70.1744 688.144 Q73.4631 685.863 78.343 685.863 Q83.1168 685.863 87.3602 688.675 Q91.5505 691.433 93.8844 696.684 Q96.1652 701.935 96.1652 708.565 Q96.1652 719.545 91.6035 725.327 Q87.0419 731.055 78.0778 732.647 Z" fill="#000000" fill-rule="nonzero" fill-opacity="1" /><polyline clip-path="url(#clip002)" style="stroke:#4477aa; stroke-linecap:round; stroke-linejoin:round; stroke-width:8; stroke-opacity:1; fill:none" points="373.84,88.5445 413.05,959.621 452.259,1163.12 491.469,1249.45 530.679,1299.47 569.889,1331.99 609.098,1355.09 648.308,1371.7 687.518,1384.77 726.728,1394.84 765.937,1402.34 805.147,1409.03 844.357,1414.17 883.567,1418.54 922.776,1422.05 961.986,1424.94 1001.2,1427.48 1040.41,1429.58 1079.62,1431.42 1118.83,1432.94 1158.03,1434.38 1197.24,1435.54 1236.45,1436.46 1275.66,1437.36 1314.87,1438.13 1354.08,1438.61 1393.29,1439.42 1432.5,1439.93 1471.71,1440.44 1510.92,1440.9 1550.13,1441.26 1589.34,1441.6 1628.55,1441.9 1667.76,1442.18 1706.97,1442.43 1746.18,1442.64 1785.39,1442.86 1824.6,1443.04 1863.81,1443.19 1903.02,1443.35 1942.23,1443.5 1981.44,1443.61 2020.65,1443.71 2059.86,1443.85 2099.07,1443.93 2138.28,1444.02 2177.49,1444.08 2216.7,1444.15 2255.91,1444.22 2295.12,1444.27 "/>
<circle clip-path="url(#clip002)" cx="373.84" cy="88.5445" r="14.4" fill="#4477aa" fill-rule="evenodd" fill-opacity="1" stroke="#000000" stroke-opacity="1" stroke-width="3.6"/>
<circle clip-path="url(#clip002)" cx="413.05" cy="959.621" r="14.4" fill="#4477aa" fill-rule="evenodd" fill-opacity="1" stroke="#000000" stroke-opacity="1" stroke-width="3.6"/>
<circle clip-path="url(#clip002)" cx="452.259" cy="1163.12" r="14.4" fill="#4477aa" fill-rule="evenodd" fill-opacity="1" stroke="#000000" stroke-opacity="1" stroke-width="3.6"/>
<circle clip-path="url(#clip002)" cx="491.469" cy="1249.45" r="14.4" fill="#4477aa" fill-rule="evenodd" fill-opacity="1" stroke="#000000" stroke-opacity="1" stroke-width="3.6"/>
<circle clip-path="url(#clip002)" cx="530.679" cy="1299.47" r="14.4" fill="#4477aa" fill-rule="evenodd" fill-opacity="1" stroke="#000000" stroke-opacity="1" stroke-width="3.6"/>
<circle clip-path="url(#clip002)" cx="569.889" cy="1331.99" r="14.4" fill="#4477aa" fill-rule="evenodd" fill-opacity="1" stroke="#000000" stroke-opacity="1" stroke-width="3.6"/>
<circle clip-path="url(#clip002)" cx="609.098" cy="1355.09" r="14.4" fill="#4477aa" fill-rule="evenodd" fill-opacity="1" stroke="#000000" stroke-opacity="1" stroke-width="3.6"/>
<circle clip-path="url(#clip002)" cx="648.308" cy="1371.7" r="14.4" fill="#4477aa" fill-rule="evenodd" fill-opacity="1" stroke="#000000" stroke-opacity="1" stroke-width="3.6"/>
<circle clip-path="url(#clip002)" cx="687.518" cy="1384.77" r="14.4" fill="#4477aa" fill-rule="evenodd" fill-opacity="1" stroke="#000000" stroke-opacity="1" stroke-width="3.6"/>
<circle clip-path="url(#clip002)" cx="726.728" cy="1394.84" r="14.4" fill="#4477aa" fill-rule="evenodd" fill-opacity="1" stroke="#000000" stroke-opacity="1" stroke-width="3.6"/>
<circle clip-path="url(#clip002)" cx="765.937" cy="1402.34" r="14.4" fill="#4477aa" fill-rule="evenodd" fill-opacity="1" stroke="#000000" stroke-opacity="1" stroke-width="3.6"/>
<circle clip-path="url(#clip002)" cx="805.147" cy="1409.03" r="14.4" fill="#4477aa" fill-rule="evenodd" fill-opacity="1" stroke="#000000" stroke-opacity="1" stroke-width="3.6"/>
<circle clip-path="url(#clip002)" cx="844.357" cy="1414.17" r="14.4" fill="#4477aa" fill-rule="evenodd" fill-opacity="1" stroke="#000000" stroke-opacity="1" stroke-width="3.6"/>
<circle clip-path="url(#clip002)" cx="883.567" cy="1418.54" r="14.4" fill="#4477aa" fill-rule="evenodd" fill-opacity="1" stroke="#000000" stroke-opacity="1" stroke-width="3.6"/>
<circle clip-path="url(#clip002)" cx="922.776" cy="1422.05" r="14.4" fill="#4477aa" fill-rule="evenodd" fill-opacity="1" stroke="#000000" stroke-opacity="1" stroke-width="3.6"/>
<circle clip-path="url(#clip002)" cx="961.986" cy="1424.94" r="14.4" fill="#4477aa" fill-rule="evenodd" fill-opacity="1" stroke="#000000" stroke-opacity="1" stroke-width="3.6"/>
<circle clip-path="url(#clip002)" cx="1001.2" cy="1427.48" r="14.4" fill="#4477aa" fill-rule="evenodd" fill-opacity="1" stroke="#000000" stroke-opacity="1" stroke-width="3.6"/>
<circle clip-path="url(#clip002)" cx="1040.41" cy="1429.58" r="14.4" fill="#4477aa" fill-rule="evenodd" fill-opacity="1" stroke="#000000" stroke-opacity="1" stroke-width="3.6"/>
<circle clip-path="url(#clip002)" cx="1079.62" cy="1431.42" r="14.4" fill="#4477aa" fill-rule="evenodd" fill-opacity="1" stroke="#000000" stroke-opacity="1" stroke-width="3.6"/>
<circle clip-path="url(#clip002)" cx="1118.83" cy="1432.94" r="14.4" fill="#4477aa" fill-rule="evenodd" fill-opacity="1" stroke="#000000" stroke-opacity="1" stroke-width="3.6"/>
<circle clip-path="url(#clip002)" cx="1158.03" cy="1434.38" r="14.4" fill="#4477aa" fill-rule="evenodd" fill-opacity="1" stroke="#000000" stroke-opacity="1" stroke-width="3.6"/>
<circle clip-path="url(#clip002)" cx="1197.24" cy="1435.54" r="14.4" fill="#4477aa" fill-rule="evenodd" fill-opacity="1" stroke="#000000" stroke-opacity="1" stroke-width="3.6"/>
<circle clip-path="url(#clip002)" cx="1236.45" cy="1436.46" r="14.4" fill="#4477aa" fill-rule="evenodd" fill-opacity="1" stroke="#000000" stroke-opacity="1" stroke-width="3.6"/>
<circle clip-path="url(#clip002)" cx="1275.66" cy="1437.36" r="14.4" fill="#4477aa" fill-rule="evenodd" fill-opacity="1" stroke="#000000" stroke-opacity="1" stroke-width="3.6"/>
<circle clip-path="url(#clip002)" cx="1314.87" cy="1438.13" r="14.4" fill="#4477aa" fill-rule="evenodd" fill-opacity="1" stroke="#000000" stroke-opacity="1" stroke-width="3.6"/>
<circle clip-path="url(#clip002)" cx="1354.08" cy="1438.61" r="14.4" fill="#4477aa" fill-rule="evenodd" fill-opacity="1" stroke="#000000" stroke-opacity="1" stroke-width="3.6"/>
<circle clip-path="url(#clip002)" cx="1393.29" cy="1439.42" r="14.4" fill="#4477aa" fill-rule="evenodd" fill-opacity="1" stroke="#000000" stroke-opacity="1" stroke-width="3.6"/>
<circle clip-path="url(#clip002)" cx="1432.5" cy="1439.93" r="14.4" fill="#4477aa" fill-rule="evenodd" fill-opacity="1" stroke="#000000" stroke-opacity="1" stroke-width="3.6"/>
<circle clip-path="url(#clip002)" cx="1471.71" cy="1440.44" r="14.4" fill="#4477aa" fill-rule="evenodd" fill-opacity="1" stroke="#000000" stroke-opacity="1" stroke-width="3.6"/>
<circle clip-path="url(#clip002)" cx="1510.92" cy="1440.9" r="14.4" fill="#4477aa" fill-rule="evenodd" fill-opacity="1" stroke="#000000" stroke-opacity="1" stroke-width="3.6"/>
<circle clip-path="url(#clip002)" cx="1550.13" cy="1441.26" r="14.4" fill="#4477aa" fill-rule="evenodd" fill-opacity="1" stroke="#000000" stroke-opacity="1" stroke-width="3.6"/>
<circle clip-path="url(#clip002)" cx="1589.34" cy="1441.6" r="14.4" fill="#4477aa" fill-rule="evenodd" fill-opacity="1" stroke="#000000" stroke-opacity="1" stroke-width="3.6"/>
<circle clip-path="url(#clip002)" cx="1628.55" cy="1441.9" r="14.4" fill="#4477aa" fill-rule="evenodd" fill-opacity="1" stroke="#000000" stroke-opacity="1" stroke-width="3.6"/>
<circle clip-path="url(#clip002)" cx="1667.76" cy="1442.18" r="14.4" fill="#4477aa" fill-rule="evenodd" fill-opacity="1" stroke="#000000" stroke-opacity="1" stroke-width="3.6"/>
<circle clip-path="url(#clip002)" cx="1706.97" cy="1442.43" r="14.4" fill="#4477aa" fill-rule="evenodd" fill-opacity="1" stroke="#000000" stroke-opacity="1" stroke-width="3.6"/>
<circle clip-path="url(#clip002)" cx="1746.18" cy="1442.64" r="14.4" fill="#4477aa" fill-rule="evenodd" fill-opacity="1" stroke="#000000" stroke-opacity="1" stroke-width="3.6"/>
<circle clip-path="url(#clip002)" cx="1785.39" cy="1442.86" r="14.4" fill="#4477aa" fill-rule="evenodd" fill-opacity="1" stroke="#000000" stroke-opacity="1" stroke-width="3.6"/>
<circle clip-path="url(#clip002)" cx="1824.6" cy="1443.04" r="14.4" fill="#4477aa" fill-rule="evenodd" fill-opacity="1" stroke="#000000" stroke-opacity="1" stroke-width="3.6"/>
<circle clip-path="url(#clip002)" cx="1863.81" cy="1443.19" r="14.4" fill="#4477aa" fill-rule="evenodd" fill-opacity="1" stroke="#000000" stroke-opacity="1" stroke-width="3.6"/>
<circle clip-path="url(#clip002)" cx="1903.02" cy="1443.35" r="14.4" fill="#4477aa" fill-rule="evenodd" fill-opacity="1" stroke="#000000" stroke-opacity="1" stroke-width="3.6"/>
<circle clip-path="url(#clip002)" cx="1942.23" cy="1443.5" r="14.4" fill="#4477aa" fill-rule="evenodd" fill-opacity="1" stroke="#000000" stroke-opacity="1" stroke-width="3.6"/>
<circle clip-path="url(#clip002)" cx="1981.44" cy="1443.61" r="14.4" fill="#4477aa" fill-rule="evenodd" fill-opacity="1" stroke="#000000" stroke-opacity="1" stroke-width="3.6"/>
<circle clip-path="url(#clip002)" cx="2020.65" cy="1443.71" r="14.4" fill="#4477aa" fill-rule="evenodd" fill-opacity="1" stroke="#000000" stroke-opacity="1" stroke-width="3.6"/>
<circle clip-path="url(#clip002)" cx="2059.86" cy="1443.85" r="14.4" fill="#4477aa" fill-rule="evenodd" fill-opacity="1" stroke="#000000" stroke-opacity="1" stroke-width="3.6"/>
<circle clip-path="url(#clip002)" cx="2099.07" cy="1443.93" r="14.4" fill="#4477aa" fill-rule="evenodd" fill-opacity="1" stroke="#000000" stroke-opacity="1" stroke-width="3.6"/>
<circle clip-path="url(#clip002)" cx="2138.28" cy="1444.02" r="14.4" fill="#4477aa" fill-rule="evenodd" fill-opacity="1" stroke="#000000" stroke-opacity="1" stroke-width="3.6"/>
<circle clip-path="url(#clip002)" cx="2177.49" cy="1444.08" r="14.4" fill="#4477aa" fill-rule="evenodd" fill-opacity="1" stroke="#000000" stroke-opacity="1" stroke-width="3.6"/>
<circle clip-path="url(#clip002)" cx="2216.7" cy="1444.15" r="14.4" fill="#4477aa" fill-rule="evenodd" fill-opacity="1" stroke="#000000" stroke-opacity="1" stroke-width="3.6"/>
<circle clip-path="url(#clip002)" cx="2255.91" cy="1444.22" r="14.4" fill="#4477aa" fill-rule="evenodd" fill-opacity="1" stroke="#000000" stroke-opacity="1" stroke-width="3.6"/>
<circle clip-path="url(#clip002)" cx="2295.12" cy="1444.27" r="14.4" fill="#4477aa" fill-rule="evenodd" fill-opacity="1" stroke="#000000" stroke-opacity="1" stroke-width="3.6"/>
<polyline clip-path="url(#clip002)" style="stroke:#ee6677; stroke-linecap:round; stroke-linejoin:round; stroke-width:8; stroke-opacity:1; fill:none" points="373.84,492.497 413.05,1110.46 452.259,1251.06 491.469,1314.47 530.679,1351.84 569.889,1376.53 609.098,1394.52 648.308,1407.83 687.518,1417.75 726.728,1425.93 765.937,1432.31 805.147,1437.41 844.357,1441.52 883.567,1445.02 922.776,1447.84 961.986,1450.3 1001.2,1452.3 1040.41,1453.96 1079.62,1455.33 1118.83,1456.63 1158.03,1457.78 1197.24,1458.64 1236.45,1459.36 1275.66,1460.07 1314.87,1460.63 1354.08,1461.19 1393.29,1461.66 1432.5,1462.05 1471.71,1462.44 1510.92,1462.8 1550.13,1463.1 1589.34,1463.33 1628.55,1463.57 1667.76,1463.78 1706.97,1463.95 1746.18,1464.11 1785.39,1464.25 1824.6,1464.39 1863.81,1464.51 1903.02,1464.62 1942.23,1464.71 1981.44,1464.8 2020.65,1464.88 2059.86,1464.95 2099.07,1465.05 2138.28,1465.11 2177.49,1465.16 2216.7,1465.14 2255.91,1465.18 2295.12,1465.22 "/>
<circle clip-path="url(#clip002)" cx="373.84" cy="492.497" r="14.4" fill="#ee6677" fill-rule="evenodd" fill-opacity="1" stroke="#000000" stroke-opacity="1" stroke-width="3.6"/>
<circle clip-path="url(#clip002)" cx="413.05" cy="1110.46" r="14.4" fill="#ee6677" fill-rule="evenodd" fill-opacity="1" stroke="#000000" stroke-opacity="1" stroke-width="3.6"/>
<circle clip-path="url(#clip002)" cx="452.259" cy="1251.06" r="14.4" fill="#ee6677" fill-rule="evenodd" fill-opacity="1" stroke="#000000" stroke-opacity="1" stroke-width="3.6"/>
<circle clip-path="url(#clip002)" cx="491.469" cy="1314.47" r="14.4" fill="#ee6677" fill-rule="evenodd" fill-opacity="1" stroke="#000000" stroke-opacity="1" stroke-width="3.6"/>
<circle clip-path="url(#clip002)" cx="530.679" cy="1351.84" r="14.4" fill="#ee6677" fill-rule="evenodd" fill-opacity="1" stroke="#000000" stroke-opacity="1" stroke-width="3.6"/>
<circle clip-path="url(#clip002)" cx="569.889" cy="1376.53" r="14.4" fill="#ee6677" fill-rule="evenodd" fill-opacity="1" stroke="#000000" stroke-opacity="1" stroke-width="3.6"/>
<circle clip-path="url(#clip002)" cx="609.098" cy="1394.52" r="14.4" fill="#ee6677" fill-rule="evenodd" fill-opacity="1" stroke="#000000" stroke-opacity="1" stroke-width="3.6"/>
<circle clip-path="url(#clip002)" cx="648.308" cy="1407.83" r="14.4" fill="#ee6677" fill-rule="evenodd" fill-opacity="1" stroke="#000000" stroke-opacity="1" stroke-width="3.6"/>
<circle clip-path="url(#clip002)" cx="687.518" cy="1417.75" r="14.4" fill="#ee6677" fill-rule="evenodd" fill-opacity="1" stroke="#000000" stroke-opacity="1" stroke-width="3.6"/>
<circle clip-path="url(#clip002)" cx="726.728" cy="1425.93" r="14.4" fill="#ee6677" fill-rule="evenodd" fill-opacity="1" stroke="#000000" stroke-opacity="1" stroke-width="3.6"/>
<circle clip-path="url(#clip002)" cx="765.937" cy="1432.31" r="14.4" fill="#ee6677" fill-rule="evenodd" fill-opacity="1" stroke="#000000" stroke-opacity="1" stroke-width="3.6"/>
<circle clip-path="url(#clip002)" cx="805.147" cy="1437.41" r="14.4" fill="#ee6677" fill-rule="evenodd" fill-opacity="1" stroke="#000000" stroke-opacity="1" stroke-width="3.6"/>
<circle clip-path="url(#clip002)" cx="844.357" cy="1441.52" r="14.4" fill="#ee6677" fill-rule="evenodd" fill-opacity="1" stroke="#000000" stroke-opacity="1" stroke-width="3.6"/>
<circle clip-path="url(#clip002)" cx="883.567" cy="1445.02" r="14.4" fill="#ee6677" fill-rule="evenodd" fill-opacity="1" stroke="#000000" stroke-opacity="1" stroke-width="3.6"/>
<circle clip-path="url(#clip002)" cx="922.776" cy="1447.84" r="14.4" fill="#ee6677" fill-rule="evenodd" fill-opacity="1" stroke="#000000" stroke-opacity="1" stroke-width="3.6"/>
<circle clip-path="url(#clip002)" cx="961.986" cy="1450.3" r="14.4" fill="#ee6677" fill-rule="evenodd" fill-opacity="1" stroke="#000000" stroke-opacity="1" stroke-width="3.6"/>
<circle clip-path="url(#clip002)" cx="1001.2" cy="1452.3" r="14.4" fill="#ee6677" fill-rule="evenodd" fill-opacity="1" stroke="#000000" stroke-opacity="1" stroke-width="3.6"/>
<circle clip-path="url(#clip002)" cx="1040.41" cy="1453.96" r="14.4" fill="#ee6677" fill-rule="evenodd" fill-opacity="1" stroke="#000000" stroke-opacity="1" stroke-width="3.6"/>
<circle clip-path="url(#clip002)" cx="1079.62" cy="1455.33" r="14.4" fill="#ee6677" fill-rule="evenodd" fill-opacity="1" stroke="#000000" stroke-opacity="1" stroke-width="3.6"/>
<circle clip-path="url(#clip002)" cx="1118.83" cy="1456.63" r="14.4" fill="#ee6677" fill-rule="evenodd" fill-opacity="1" stroke="#000000" stroke-opacity="1" stroke-width="3.6"/>
<circle clip-path="url(#clip002)" cx="1158.03" cy="1457.78" r="14.4" fill="#ee6677" fill-rule="evenodd" fill-opacity="1" stroke="#000000" stroke-opacity="1" stroke-width="3.6"/>
<circle clip-path="url(#clip002)" cx="1197.24" cy="1458.64" r="14.4" fill="#ee6677" fill-rule="evenodd" fill-opacity="1" stroke="#000000" stroke-opacity="1" stroke-width="3.6"/>
<circle clip-path="url(#clip002)" cx="1236.45" cy="1459.36" r="14.4" fill="#ee6677" fill-rule="evenodd" fill-opacity="1" stroke="#000000" stroke-opacity="1" stroke-width="3.6"/>
<circle clip-path="url(#clip002)" cx="1275.66" cy="1460.07" r="14.4" fill="#ee6677" fill-rule="evenodd" fill-opacity="1" stroke="#000000" stroke-opacity="1" stroke-width="3.6"/>
<circle clip-path="url(#clip002)" cx="1314.87" cy="1460.63" r="14.4" fill="#ee6677" fill-rule="evenodd" fill-opacity="1" stroke="#000000" stroke-opacity="1" stroke-width="3.6"/>
<circle clip-path="url(#clip002)" cx="1354.08" cy="1461.19" r="14.4" fill="#ee6677" fill-rule="evenodd" fill-opacity="1" stroke="#000000" stroke-opacity="1" stroke-width="3.6"/>
<circle clip-path="url(#clip002)" cx="1393.29" cy="1461.66" r="14.4" fill="#ee6677" fill-rule="evenodd" fill-opacity="1" stroke="#000000" stroke-opacity="1" stroke-width="3.6"/>
<circle clip-path="url(#clip002)" cx="1432.5" cy="1462.05" r="14.4" fill="#ee6677" fill-rule="evenodd" fill-opacity="1" stroke="#000000" stroke-opacity="1" stroke-width="3.6"/>
<circle clip-path="url(#clip002)" cx="1471.71" cy="1462.44" r="14.4" fill="#ee6677" fill-rule="evenodd" fill-opacity="1" stroke="#000000" stroke-opacity="1" stroke-width="3.6"/>
<circle clip-path="url(#clip002)" cx="1510.92" cy="1462.8" r="14.4" fill="#ee6677" fill-rule="evenodd" fill-opacity="1" stroke="#000000" stroke-opacity="1" stroke-width="3.6"/>
<circle clip-path="url(#clip002)" cx="1550.13" cy="1463.1" r="14.4" fill="#ee6677" fill-rule="evenodd" fill-opacity="1" stroke="#000000" stroke-opacity="1" stroke-width="3.6"/>
<circle clip-path="url(#clip002)" cx="1589.34" cy="1463.33" r="14.4" fill="#ee6677" fill-rule="evenodd" fill-opacity="1" stroke="#000000" stroke-opacity="1" stroke-width="3.6"/>
<circle clip-path="url(#clip002)" cx="1628.55" cy="1463.57" r="14.4" fill="#ee6677" fill-rule="evenodd" fill-opacity="1" stroke="#000000" stroke-opacity="1" stroke-width="3.6"/>
<circle clip-path="url(#clip002)" cx="1667.76" cy="1463.78" r="14.4" fill="#ee6677" fill-rule="evenodd" fill-opacity="1" stroke="#000000" stroke-opacity="1" stroke-width="3.6"/>
<circle clip-path="url(#clip002)" cx="1706.97" cy="1463.95" r="14.4" fill="#ee6677" fill-rule="evenodd" fill-opacity="1" stroke="#000000" stroke-opacity="1" stroke-width="3.6"/>
<circle clip-path="url(#clip002)" cx="1746.18" cy="1464.11" r="14.4" fill="#ee6677" fill-rule="evenodd" fill-opacity="1" stroke="#000000" stroke-opacity="1" stroke-width="3.6"/>
<circle clip-path="url(#clip002)" cx="1785.39" cy="1464.25" r="14.4" fill="#ee6677" fill-rule="evenodd" fill-opacity="1" stroke="#000000" stroke-opacity="1" stroke-width="3.6"/>
<circle clip-path="url(#clip002)" cx="1824.6" cy="1464.39" r="14.4" fill="#ee6677" fill-rule="evenodd" fill-opacity="1" stroke="#000000" stroke-opacity="1" stroke-width="3.6"/>
<circle clip-path="url(#clip002)" cx="1863.81" cy="1464.51" r="14.4" fill="#ee6677" fill-rule="evenodd" fill-opacity="1" stroke="#000000" stroke-opacity="1" stroke-width="3.6"/>
<circle clip-path="url(#clip002)" cx="1903.02" cy="1464.62" r="14.4" fill="#ee6677" fill-rule="evenodd" fill-opacity="1" stroke="#000000" stroke-opacity="1" stroke-width="3.6"/>
<circle clip-path="url(#clip002)" cx="1942.23" cy="1464.71" r="14.4" fill="#ee6677" fill-rule="evenodd" fill-opacity="1" stroke="#000000" stroke-opacity="1" stroke-width="3.6"/>
<circle clip-path="url(#clip002)" cx="1981.44" cy="1464.8" r="14.4" fill="#ee6677" fill-rule="evenodd" fill-opacity="1" stroke="#000000" stroke-opacity="1" stroke-width="3.6"/>
<circle clip-path="url(#clip002)" cx="2020.65" cy="1464.88" r="14.4" fill="#ee6677" fill-rule="evenodd" fill-opacity="1" stroke="#000000" stroke-opacity="1" stroke-width="3.6"/>
<circle clip-path="url(#clip002)" cx="2059.86" cy="1464.95" r="14.4" fill="#ee6677" fill-rule="evenodd" fill-opacity="1" stroke="#000000" stroke-opacity="1" stroke-width="3.6"/>
<circle clip-path="url(#clip002)" cx="2099.07" cy="1465.05" r="14.4" fill="#ee6677" fill-rule="evenodd" fill-opacity="1" stroke="#000000" stroke-opacity="1" stroke-width="3.6"/>
<circle clip-path="url(#clip002)" cx="2138.28" cy="1465.11" r="14.4" fill="#ee6677" fill-rule="evenodd" fill-opacity="1" stroke="#000000" stroke-opacity="1" stroke-width="3.6"/>
<circle clip-path="url(#clip002)" cx="2177.49" cy="1465.16" r="14.4" fill="#ee6677" fill-rule="evenodd" fill-opacity="1" stroke="#000000" stroke-opacity="1" stroke-width="3.6"/>
<circle clip-path="url(#clip002)" cx="2216.7" cy="1465.14" r="14.4" fill="#ee6677" fill-rule="evenodd" fill-opacity="1" stroke="#000000" stroke-opacity="1" stroke-width="3.6"/>
<circle clip-path="url(#clip002)" cx="2255.91" cy="1465.18" r="14.4" fill="#ee6677" fill-rule="evenodd" fill-opacity="1" stroke="#000000" stroke-opacity="1" stroke-width="3.6"/>
<circle clip-path="url(#clip002)" cx="2295.12" cy="1465.22" r="14.4" fill="#ee6677" fill-rule="evenodd" fill-opacity="1" stroke="#000000" stroke-opacity="1" stroke-width="3.6"/>
<path clip-path="url(#clip000)" d="M1622.4 445.807 L2284.87 445.807 L2284.87 95.8868 L1622.4 95.8868  Z" fill="#ffffff" fill-rule="evenodd" fill-opacity="1"/>
<polyline clip-path="url(#clip000)" style="stroke:#000000; stroke-linecap:round; stroke-linejoin:round; stroke-width:4; stroke-opacity:1; fill:none" points="1622.4,445.807 2284.87,445.807 2284.87,95.8868 1622.4,95.8868 1622.4,445.807 "/>
<polyline clip-path="url(#clip000)" style="stroke:#4477aa; stroke-linecap:round; stroke-linejoin:round; stroke-width:18; stroke-opacity:1; fill:none" points="1645.03,212.527 1780.8,212.527 "/>
<circle clip-path="url(#clip000)" cx="1712.91" cy="212.527" r="8.38088" fill="#4477aa" fill-rule="evenodd" fill-opacity="1" stroke="#000000" stroke-opacity="1" stroke-width="8.38088"/>
<path clip-path="url(#clip000)" d="M1829.52 242.867 L1830.9 251.301 Q1826.87 252.149 1823.69 252.149 Q1818.49 252.149 1815.63 250.505 Q1812.76 248.861 1811.6 246.209 Q1810.43 243.503 1810.43 234.911 L1810.43 202.502 L1803.43 202.502 L1803.43 195.076 L1810.43 195.076 L1810.43 181.126 L1819.92 175.397 L1819.92 195.076 L1829.52 195.076 L1829.52 202.502 L1819.92 202.502 L1819.92 235.441 Q1819.92 239.525 1820.4 240.692 Q1820.93 241.859 1822.04 242.549 Q1823.21 243.238 1825.33 243.238 Q1826.92 243.238 1829.52 242.867 Z" fill="#000000" fill-rule="nonzero" fill-opacity="1" /><path clip-path="url(#clip000)" d="M1838.75 251.407 L1838.75 195.076 L1847.35 195.076 L1847.35 203.616 Q1850.63 197.622 1853.39 195.712 Q1856.2 193.803 1859.55 193.803 Q1864.37 193.803 1869.36 196.879 L1866.07 205.737 Q1862.57 203.669 1859.07 203.669 Q1855.94 203.669 1853.45 205.578 Q1850.95 207.435 1849.89 210.776 Q1848.3 215.868 1848.3 221.915 L1848.3 251.407 L1838.75 251.407 Z" fill="#000000" fill-rule="nonzero" fill-opacity="1" /><path clip-path="url(#clip000)" d="M1911.79 244.458 Q1906.49 248.967 1901.55 250.823 Q1896.67 252.68 1891.05 252.68 Q1881.77 252.68 1876.78 248.171 Q1871.8 243.61 1871.8 236.555 Q1871.8 232.418 1873.65 229.023 Q1875.56 225.575 1878.59 223.507 Q1881.66 221.438 1885.48 220.377 Q1888.29 219.634 1893.97 218.945 Q1905.53 217.566 1911 215.656 Q1911.05 213.694 1911.05 213.163 Q1911.05 207.329 1908.34 204.942 Q1904.68 201.706 1897.47 201.706 Q1890.73 201.706 1887.5 204.093 Q1884.32 206.427 1882.78 212.421 L1873.44 211.148 Q1874.72 205.154 1877.63 201.494 Q1880.55 197.781 1886.07 195.818 Q1891.58 193.803 1898.85 193.803 Q1906.06 193.803 1910.57 195.5 Q1915.08 197.198 1917.2 199.797 Q1919.32 202.343 1920.17 206.268 Q1920.65 208.708 1920.65 215.073 L1920.65 227.803 Q1920.65 241.117 1921.23 244.67 Q1921.87 248.171 1923.67 251.407 L1913.7 251.407 Q1912.22 248.436 1911.79 244.458 M1911 223.135 Q1905.8 225.257 1895.4 226.742 Q1889.51 227.591 1887.07 228.652 Q1884.63 229.712 1883.31 231.781 Q1881.98 233.797 1881.98 236.29 Q1881.98 240.109 1884.85 242.655 Q1887.76 245.201 1893.33 245.201 Q1898.85 245.201 1903.15 242.814 Q1907.44 240.374 1909.46 236.184 Q1911 232.948 1911 226.636 L1911 223.135 Z" fill="#000000" fill-rule="nonzero" fill-opacity="1" /><path clip-path="url(#clip000)" d="M1935.5 184.627 L1935.5 173.647 L1945.05 173.647 L1945.05 184.627 L1935.5 184.627 M1935.5 251.407 L1935.5 195.076 L1945.05 195.076 L1945.05 251.407 L1935.5 251.407 Z" fill="#000000" fill-rule="nonzero" fill-opacity="1" /><path clip-path="url(#clip000)" d="M1959.58 251.407 L1959.58 195.076 L1968.18 195.076 L1968.18 203.085 Q1974.38 193.803 1986.1 193.803 Q1991.2 193.803 1995.44 195.659 Q1999.74 197.463 2001.86 200.433 Q2003.98 203.403 2004.83 207.488 Q2005.36 210.14 2005.36 216.77 L2005.36 251.407 L1995.81 251.407 L1995.81 217.141 Q1995.81 211.307 1994.7 208.442 Q1993.58 205.525 1990.72 203.828 Q1987.91 202.077 1984.09 202.077 Q1977.99 202.077 1973.53 205.95 Q1969.13 209.822 1969.13 220.642 L1969.13 251.407 L1959.58 251.407 Z" fill="#000000" fill-rule="nonzero" fill-opacity="1" /><path clip-path="url(#clip000)" d="M2011.19 272.995 L2011.19 266.099 L2074.47 266.099 L2074.47 272.995 L2011.19 272.995 Z" fill="#000000" fill-rule="nonzero" fill-opacity="1" /><path clip-path="url(#clip000)" d="M2080.2 251.407 L2080.2 173.647 L2089.75 173.647 L2089.75 251.407 L2080.2 251.407 Z" fill="#000000" fill-rule="nonzero" fill-opacity="1" /><path clip-path="url(#clip000)" d="M2100.99 223.241 Q2100.99 207.594 2109.69 200.062 Q2116.96 193.803 2127.41 193.803 Q2139.03 193.803 2146.4 201.441 Q2153.77 209.026 2153.77 222.446 Q2153.77 233.319 2150.48 239.578 Q2147.25 245.784 2140.99 249.232 Q2134.78 252.68 2127.41 252.68 Q2115.58 252.68 2108.26 245.095 Q2100.99 237.51 2100.99 223.241 M2110.81 223.241 Q2110.81 234.062 2115.53 239.472 Q2120.25 244.83 2127.41 244.83 Q2134.52 244.83 2139.24 239.419 Q2143.96 234.009 2143.96 222.923 Q2143.96 212.474 2139.18 207.116 Q2134.46 201.706 2127.41 201.706 Q2120.25 201.706 2115.53 207.063 Q2110.81 212.421 2110.81 223.241 Z" fill="#000000" fill-rule="nonzero" fill-opacity="1" /><path clip-path="url(#clip000)" d="M2161.14 234.592 L2170.59 233.107 Q2171.38 238.783 2174.99 241.806 Q2178.65 244.83 2185.17 244.83 Q2191.75 244.83 2194.93 242.177 Q2198.11 239.472 2198.11 235.865 Q2198.11 232.63 2195.3 230.773 Q2193.34 229.5 2185.54 227.538 Q2175.04 224.886 2170.96 222.976 Q2166.93 221.014 2164.8 217.619 Q2162.74 214.171 2162.74 210.034 Q2162.74 206.268 2164.43 203.085 Q2166.18 199.85 2169.15 197.728 Q2171.38 196.084 2175.2 194.97 Q2179.07 193.803 2183.47 193.803 Q2190.1 193.803 2195.09 195.712 Q2200.13 197.622 2202.52 200.91 Q2204.9 204.146 2205.81 209.609 L2196.47 210.882 Q2195.83 206.533 2192.76 204.093 Q2189.73 201.653 2184.16 201.653 Q2177.59 201.653 2174.78 203.828 Q2171.96 206.003 2171.96 208.92 Q2171.96 210.776 2173.13 212.262 Q2174.3 213.8 2176.79 214.808 Q2178.22 215.338 2185.22 217.248 Q2195.36 219.953 2199.33 221.703 Q2203.37 223.4 2205.65 226.689 Q2207.93 229.978 2207.93 234.858 Q2207.93 239.631 2205.12 243.875 Q2202.36 248.065 2197.11 250.399 Q2191.86 252.68 2185.22 252.68 Q2174.25 252.68 2168.46 248.118 Q2162.74 243.556 2161.14 234.592 Z" fill="#000000" fill-rule="nonzero" fill-opacity="1" /><path clip-path="url(#clip000)" d="M2215.46 234.592 L2224.9 233.107 Q2225.7 238.783 2229.3 241.806 Q2232.96 244.83 2239.49 244.83 Q2246.06 244.83 2249.25 242.177 Q2252.43 239.472 2252.43 235.865 Q2252.43 232.63 2249.62 230.773 Q2247.66 229.5 2239.86 227.538 Q2229.36 224.886 2225.27 222.976 Q2221.24 221.014 2219.12 217.619 Q2217.05 214.171 2217.05 210.034 Q2217.05 206.268 2218.75 203.085 Q2220.5 199.85 2223.47 197.728 Q2225.7 196.084 2229.52 194.97 Q2233.39 193.803 2237.79 193.803 Q2244.42 193.803 2249.41 195.712 Q2254.45 197.622 2256.83 200.91 Q2259.22 204.146 2260.12 209.609 L2250.79 210.882 Q2250.15 206.533 2247.07 204.093 Q2244.05 201.653 2238.48 201.653 Q2231.9 201.653 2229.09 203.828 Q2226.28 206.003 2226.28 208.92 Q2226.28 210.776 2227.45 212.262 Q2228.61 213.8 2231.11 214.808 Q2232.54 215.338 2239.54 217.248 Q2249.67 219.953 2253.65 221.703 Q2257.68 223.4 2259.96 226.689 Q2262.24 229.978 2262.24 234.858 Q2262.24 239.631 2259.43 243.875 Q2256.67 248.065 2251.42 250.399 Q2246.17 252.68 2239.54 252.68 Q2228.56 252.68 2222.78 248.118 Q2217.05 243.556 2215.46 234.592 Z" fill="#000000" fill-rule="nonzero" fill-opacity="1" /><polyline clip-path="url(#clip000)" style="stroke:#ee6677; stroke-linecap:round; stroke-linejoin:round; stroke-width:18; stroke-opacity:1; fill:none" points="1645.03,329.167 1780.8,329.167 "/>
<circle clip-path="url(#clip000)" cx="1712.91" cy="329.167" r="8.38088" fill="#ee6677" fill-rule="evenodd" fill-opacity="1" stroke="#000000" stroke-opacity="1" stroke-width="8.38088"/>
<path clip-path="url(#clip000)" d="M1824.86 368.047 L1803.43 311.716 L1813.5 311.716 L1825.6 345.451 Q1827.56 350.914 1829.21 356.802 Q1830.48 352.346 1832.76 346.087 L1845.28 311.716 L1855.09 311.716 L1833.77 368.047 L1824.86 368.047 Z" fill="#000000" fill-rule="nonzero" fill-opacity="1" /><path clip-path="url(#clip000)" d="M1900.28 361.098 Q1894.98 365.607 1890.04 367.463 Q1885.16 369.32 1879.54 369.32 Q1870.26 369.32 1865.27 364.811 Q1860.29 360.25 1860.29 353.195 Q1860.29 349.058 1862.14 345.663 Q1864.05 342.215 1867.08 340.147 Q1870.15 338.078 1873.97 337.017 Q1876.78 336.274 1882.46 335.585 Q1894.02 334.206 1899.49 332.296 Q1899.54 330.334 1899.54 329.803 Q1899.54 323.969 1896.83 321.582 Q1893.17 318.346 1885.96 318.346 Q1879.22 318.346 1875.99 320.733 Q1872.81 323.067 1871.27 329.061 L1861.93 327.788 Q1863.21 321.794 1866.12 318.134 Q1869.04 314.421 1874.56 312.458 Q1880.07 310.443 1887.34 310.443 Q1894.55 310.443 1899.06 312.14 Q1903.57 313.838 1905.69 316.437 Q1907.81 318.983 1908.66 322.908 Q1909.14 325.348 1909.14 331.713 L1909.14 344.443 Q1909.14 357.757 1909.72 361.31 Q1910.36 364.811 1912.16 368.047 L1902.19 368.047 Q1900.71 365.076 1900.28 361.098 M1899.49 339.775 Q1894.29 341.897 1883.89 343.382 Q1878 344.231 1875.56 345.292 Q1873.12 346.352 1871.8 348.421 Q1870.47 350.437 1870.47 352.93 Q1870.47 356.749 1873.34 359.295 Q1876.25 361.841 1881.82 361.841 Q1887.34 361.841 1891.64 359.454 Q1895.93 357.014 1897.95 352.824 Q1899.49 349.588 1899.49 343.276 L1899.49 339.775 Z" fill="#000000" fill-rule="nonzero" fill-opacity="1" /><path clip-path="url(#clip000)" d="M1923.73 368.047 L1923.73 290.287 L1933.27 290.287 L1933.27 368.047 L1923.73 368.047 Z" fill="#000000" fill-rule="nonzero" fill-opacity="1" /><path clip-path="url(#clip000)" d="M1939.27 389.635 L1939.27 382.739 L2002.55 382.739 L2002.55 389.635 L1939.27 389.635 Z" fill="#000000" fill-rule="nonzero" fill-opacity="1" /><path clip-path="url(#clip000)" d="M2008.28 368.047 L2008.28 290.287 L2017.82 290.287 L2017.82 368.047 L2008.28 368.047 Z" fill="#000000" fill-rule="nonzero" fill-opacity="1" /><path clip-path="url(#clip000)" d="M2029.07 339.881 Q2029.07 324.234 2037.77 316.702 Q2045.03 310.443 2055.48 310.443 Q2067.1 310.443 2074.47 318.081 Q2081.85 325.666 2081.85 339.086 Q2081.85 349.959 2078.56 356.218 Q2075.32 362.424 2069.06 365.872 Q2062.86 369.32 2055.48 369.32 Q2043.66 369.32 2036.34 361.735 Q2029.07 354.15 2029.07 339.881 M2038.88 339.881 Q2038.88 350.702 2043.6 356.112 Q2048.32 361.47 2055.48 361.47 Q2062.59 361.47 2067.31 356.059 Q2072.03 350.649 2072.03 339.563 Q2072.03 329.114 2067.26 323.756 Q2062.54 318.346 2055.48 318.346 Q2048.32 318.346 2043.6 323.703 Q2038.88 329.061 2038.88 339.881 Z" fill="#000000" fill-rule="nonzero" fill-opacity="1" /><path clip-path="url(#clip000)" d="M2089.22 351.232 L2098.66 349.747 Q2099.46 355.423 2103.06 358.446 Q2106.72 361.47 2113.25 361.47 Q2119.82 361.47 2123.01 358.817 Q2126.19 356.112 2126.19 352.505 Q2126.19 349.27 2123.38 347.413 Q2121.42 346.14 2113.62 344.178 Q2103.12 341.526 2099.03 339.616 Q2095 337.654 2092.88 334.259 Q2090.81 330.811 2090.81 326.674 Q2090.81 322.908 2092.51 319.725 Q2094.26 316.49 2097.23 314.368 Q2099.46 312.724 2103.27 311.61 Q2107.15 310.443 2111.55 310.443 Q2118.18 310.443 2123.17 312.352 Q2128.2 314.262 2130.59 317.55 Q2132.98 320.786 2133.88 326.249 L2124.54 327.522 Q2123.91 323.173 2120.83 320.733 Q2117.81 318.293 2112.24 318.293 Q2105.66 318.293 2102.85 320.468 Q2100.04 322.643 2100.04 325.56 Q2100.04 327.416 2101.21 328.902 Q2102.37 330.44 2104.87 331.448 Q2106.3 331.978 2113.3 333.888 Q2123.43 336.593 2127.41 338.343 Q2131.44 340.04 2133.72 343.329 Q2136 346.618 2136 351.498 Q2136 356.271 2133.19 360.515 Q2130.43 364.705 2125.18 367.039 Q2119.93 369.32 2113.3 369.32 Q2102.32 369.32 2096.54 364.758 Q2090.81 360.196 2089.22 351.232 Z" fill="#000000" fill-rule="nonzero" fill-opacity="1" /><path clip-path="url(#clip000)" d="M2143.53 351.232 L2152.98 349.747 Q2153.77 355.423 2157.38 358.446 Q2161.04 361.47 2167.56 361.47 Q2174.14 361.47 2177.32 358.817 Q2180.5 356.112 2180.5 352.505 Q2180.5 349.27 2177.69 347.413 Q2175.73 346.14 2167.93 344.178 Q2157.43 341.526 2153.35 339.616 Q2149.32 337.654 2147.19 334.259 Q2145.12 330.811 2145.12 326.674 Q2145.12 322.908 2146.82 319.725 Q2148.57 316.49 2151.54 314.368 Q2153.77 312.724 2157.59 311.61 Q2161.46 310.443 2165.86 310.443 Q2172.49 310.443 2177.48 312.352 Q2182.52 314.262 2184.91 317.55 Q2187.29 320.786 2188.2 326.249 L2178.86 327.522 Q2178.22 323.173 2175.15 320.733 Q2172.12 318.293 2166.55 318.293 Q2159.98 318.293 2157.17 320.468 Q2154.35 322.643 2154.35 325.56 Q2154.35 327.416 2155.52 328.902 Q2156.69 330.44 2159.18 331.448 Q2160.61 331.978 2167.61 333.888 Q2177.75 336.593 2181.72 338.343 Q2185.76 340.04 2188.04 343.329 Q2190.32 346.618 2190.32 351.498 Q2190.32 356.271 2187.51 360.515 Q2184.75 364.705 2179.5 367.039 Q2174.25 369.32 2167.61 369.32 Q2156.64 369.32 2150.85 364.758 Q2145.12 360.196 2143.53 351.232 Z" fill="#000000" fill-rule="nonzero" fill-opacity="1" /></svg>
