<?xml version="1.0" encoding="utf-8"?>
<svg xmlns="http://www.w3.org/2000/svg" xmlns:xlink="http://www.w3.org/1999/xlink" width="600" height="450" viewBox="0 0 2400 1800">
<defs>
  <clipPath id="clip780">
    <rect x="0" y="0" width="2400" height="1800"/>
  </clipPath>
</defs>
<path clip-path="url(#clip780)" d="M0 1800 L2400 1800 L2400 0 L0 0  Z" fill="#ffffff" fill-rule="evenodd" fill-opacity="1"/>
<defs>
  <clipPath id="clip781">
    <rect x="480" y="0" width="1681" height="1681"/>
  </clipPath>
</defs>
<path clip-path="url(#clip780)" d="M316.201 1506.52 L2352.76 1506.52 L2352.76 47.2441 L316.201 47.2441  Z" fill="#ffffff" fill-rule="evenodd" fill-opacity="1"/>
<defs>
  <clipPath id="clip782">
    <rect x="316" y="47" width="2038" height="1460"/>
  </clipPath>
</defs>
<polyline clip-path="url(#clip782)" style="stroke:#000000; stroke-linecap:round; stroke-linejoin:round; stroke-width:2; stroke-opacity:0.1; fill:none" points="349.52,1506.52 349.52,47.2441 "/>
<polyline clip-path="url(#clip782)" style="stroke:#000000; stroke-linecap:round; stroke-linejoin:round; stroke-width:2; stroke-opacity:0.1; fill:none" points="835.919,1506.52 835.919,47.2441 "/>
<polyline clip-path="url(#clip782)" style="stroke:#000000; stroke-linecap:round; stroke-linejoin:round; stroke-width:2; stroke-opacity:0.1; fill:none" points="1322.32,1506.52 1322.32,47.2441 "/>
<polyline clip-path="url(#clip782)" style="stroke:#000000; stroke-linecap:round; stroke-linejoin:round; stroke-width:2; stroke-opacity:0.1; fill:none" points="1808.72,1506.52 1808.72,47.2441 "/>
<polyline clip-path="url(#clip782)" style="stroke:#000000; stroke-linecap:round; stroke-linejoin:round; stroke-width:2; stroke-opacity:0.1; fill:none" points="2295.12,1506.52 2295.12,47.2441 "/>
<polyline clip-path="url(#clip782)" style="stroke:#000000; stroke-linecap:round; stroke-linejoin:round; stroke-width:2; stroke-opacity:0.1; fill:none" points="316.201,1255.4 2352.76,1255.4 "/>
<polyline clip-path="url(#clip782)" style="stroke:#000000; stroke-linecap:round; stroke-linejoin:round; stroke-width:2; stroke-opacity:0.1; fill:none" points="316.201,941.22 2352.76,941.22 "/>
<polyline clip-path="url(#clip782)" style="stroke:#000000; stroke-linecap:round; stroke-linejoin:round; stroke-width:2; stroke-opacity:0.1; fill:none" points="316.201,627.038 2352.76,627.038 "/>
<polyline clip-path="url(#clip782)" style="stroke:#000000; stroke-linecap:round; stroke-linejoin:round; stroke-width:2; stroke-opacity:0.1; fill:none" points="316.201,312.855 2352.76,312.855 "/>
<polyline clip-path="url(#clip780)" style="stroke:#000000; stroke-linecap:round; stroke-linejoin:round; stroke-width:4; stroke-opacity:1; fill:none" points="316.201,1506.52 2352.76,1506.52 "/>
<polyline clip-path="url(#clip780)" style="stroke:#000000; stroke-linecap:round; stroke-linejoin:round; stroke-width:2; stroke-opacity:0.5; fill:none" points="316.201,47.2441 2352.76,47.2441 "/>
<polyline clip-path="url(#clip780)" style="stroke:#000000; stroke-linecap:round; stroke-linejoin:round; stroke-width:4; stroke-opacity:1; fill:none" points="349.52,1506.52 349.52,1487.63 "/>
<polyline clip-path="url(#clip780)" style="stroke:#000000; stroke-linecap:round; stroke-linejoin:round; stroke-width:4; stroke-opacity:1; fill:none" points="835.919,1506.52 835.919,1487.63 "/>
<polyline clip-path="url(#clip780)" style="stroke:#000000; stroke-linecap:round; stroke-linejoin:round; stroke-width:4; stroke-opacity:1; fill:none" points="1322.32,1506.52 1322.32,1487.63 "/>
<polyline clip-path="url(#clip780)" style="stroke:#000000; stroke-linecap:round; stroke-linejoin:round; stroke-width:4; stroke-opacity:1; fill:none" points="1808.72,1506.52 1808.72,1487.63 "/>
<polyline clip-path="url(#clip780)" style="stroke:#000000; stroke-linecap:round; stroke-linejoin:round; stroke-width:4; stroke-opacity:1; fill:none" points="2295.12,1506.52 2295.12,1487.63 "/>
<path clip-path="url(#clip780)" d="M326.983 1578.04 Q326.983 1565.78 329.482 1558.33 Q332.028 1550.83 336.978 1546.78 Q341.976 1542.72 349.52 1542.72 Q355.083 1542.72 359.28 1544.98 Q363.476 1547.2 366.21 1551.44 Q368.945 1555.64 370.501 1561.72 Q372.057 1567.76 372.057 1578.04 Q372.057 1590.2 369.558 1597.7 Q367.059 1605.15 362.061 1609.25 Q357.111 1613.3 349.52 1613.3 Q339.524 1613.3 333.819 1606.14 Q326.983 1597.51 326.983 1578.04 M335.705 1578.04 Q335.705 1595.06 339.666 1600.71 Q343.673 1606.32 349.52 1606.32 Q355.366 1606.32 359.327 1600.67 Q363.334 1595.01 363.334 1578.04 Q363.334 1560.97 359.327 1555.36 Q355.366 1549.75 349.426 1549.75 Q343.579 1549.75 340.09 1554.7 Q335.705 1561.01 335.705 1578.04 Z" fill="#000000" fill-rule="nonzero" fill-opacity="1" /><path clip-path="url(#clip780)" d="M831.723 1603.97 L831.723 1612.12 L786.036 1612.12 Q785.942 1609.06 787.026 1606.23 Q788.771 1601.56 792.59 1597.04 Q796.456 1592.51 803.717 1586.57 Q814.985 1577.33 818.946 1571.95 Q822.906 1566.53 822.906 1561.72 Q822.906 1556.68 819.276 1553.24 Q815.692 1549.75 809.893 1549.75 Q803.764 1549.75 800.086 1553.42 Q796.409 1557.1 796.362 1563.61 L787.639 1562.71 Q788.535 1552.95 794.381 1547.86 Q800.228 1542.72 810.082 1542.72 Q820.03 1542.72 825.829 1548.24 Q831.629 1553.75 831.629 1561.91 Q831.629 1566.06 829.931 1570.07 Q828.234 1574.07 824.274 1578.51 Q820.36 1582.94 811.213 1590.67 Q803.575 1597.08 801.406 1599.39 Q799.238 1601.66 797.823 1603.97 L831.723 1603.97 Z" fill="#000000" fill-rule="nonzero" fill-opacity="1" /><path clip-path="url(#clip780)" d="M840.823 1578.04 Q840.823 1565.78 843.322 1558.33 Q845.868 1550.83 850.818 1546.78 Q855.816 1542.72 863.36 1542.72 Q868.923 1542.72 873.12 1544.98 Q877.316 1547.2 880.05 1551.44 Q882.785 1555.64 884.341 1561.72 Q885.897 1567.76 885.897 1578.04 Q885.897 1590.2 883.398 1597.7 Q880.899 1605.15 875.901 1609.25 Q870.951 1613.3 863.36 1613.3 Q853.364 1613.3 847.659 1606.14 Q840.823 1597.51 840.823 1578.04 M849.545 1578.04 Q849.545 1595.06 853.506 1600.71 Q857.513 1606.32 863.36 1606.32 Q869.206 1606.32 873.167 1600.67 Q877.174 1595.01 877.174 1578.04 Q877.174 1560.97 873.167 1555.36 Q869.206 1549.75 863.266 1549.75 Q857.419 1549.75 853.93 1554.7 Q849.545 1561.01 849.545 1578.04 Z" fill="#000000" fill-rule="nonzero" fill-opacity="1" /><path clip-path="url(#clip780)" d="M1301.53 1612.12 L1301.53 1595.57 L1271.54 1595.57 L1271.54 1587.8 L1303.08 1543 L1310.01 1543 L1310.01 1587.8 L1319.35 1587.8 L1319.35 1595.57 L1310.01 1595.57 L1310.01 1612.12 L1301.53 1612.12 M1301.53 1587.8 L1301.53 1556.63 L1279.88 1587.8 L1301.53 1587.8 Z" fill="#000000" fill-rule="nonzero" fill-opacity="1" /><path clip-path="url(#clip780)" d="M1328.02 1578.04 Q1328.02 1565.78 1330.52 1558.33 Q1333.07 1550.83 1338.02 1546.78 Q1343.02 1542.72 1350.56 1542.72 Q1356.12 1542.72 1360.32 1544.98 Q1364.52 1547.2 1367.25 1551.44 Q1369.99 1555.64 1371.54 1561.72 Q1373.1 1567.76 1373.1 1578.04 Q1373.1 1590.2 1370.6 1597.7 Q1368.1 1605.15 1363.1 1609.25 Q1358.15 1613.3 1350.56 1613.3 Q1340.57 1613.3 1334.86 1606.14 Q1328.02 1597.51 1328.02 1578.04 M1336.75 1578.04 Q1336.75 1595.06 1340.71 1600.71 Q1344.71 1606.32 1350.56 1606.32 Q1356.41 1606.32 1360.37 1600.67 Q1364.38 1595.01 1364.38 1578.04 Q1364.38 1560.97 1360.37 1555.36 Q1356.41 1549.75 1350.47 1549.75 Q1344.62 1549.75 1341.13 1554.7 Q1336.75 1561.01 1336.75 1578.04 Z" fill="#000000" fill-rule="nonzero" fill-opacity="1" /><path clip-path="url(#clip780)" d="M1803.56 1559.93 L1795.12 1560.59 Q1793.98 1555.59 1791.91 1553.33 Q1788.47 1549.7 1783.42 1549.7 Q1779.37 1549.7 1776.3 1551.96 Q1772.3 1554.89 1769.99 1560.5 Q1767.68 1566.11 1767.58 1576.48 Q1770.65 1571.81 1775.08 1569.55 Q1779.51 1567.29 1784.37 1567.29 Q1792.85 1567.29 1798.79 1573.56 Q1804.78 1579.78 1804.78 1589.68 Q1804.78 1596.19 1801.95 1601.8 Q1799.17 1607.36 1794.27 1610.33 Q1789.36 1613.3 1783.14 1613.3 Q1772.53 1613.3 1765.84 1605.52 Q1759.14 1597.7 1759.14 1579.78 Q1759.14 1559.74 1766.54 1550.64 Q1773 1542.72 1783.94 1542.72 Q1792.1 1542.72 1797.28 1547.29 Q1802.52 1551.87 1803.56 1559.93 M1768.9 1589.73 Q1768.9 1594.11 1770.74 1598.12 Q1772.63 1602.13 1775.97 1604.25 Q1779.32 1606.32 1783 1606.32 Q1788.37 1606.32 1792.24 1601.99 Q1796.11 1597.65 1796.11 1590.2 Q1796.11 1583.03 1792.29 1578.93 Q1788.47 1574.78 1782.67 1574.78 Q1776.92 1574.78 1772.91 1578.93 Q1768.9 1583.03 1768.9 1589.73 Z" fill="#000000" fill-rule="nonzero" fill-opacity="1" /><path clip-path="url(#clip780)" d="M1813.22 1578.04 Q1813.22 1565.78 1815.72 1558.33 Q1818.27 1550.83 1823.22 1546.78 Q1828.21 1542.72 1835.76 1542.72 Q1841.32 1542.72 1845.52 1544.98 Q1849.71 1547.2 1852.45 1551.44 Q1855.18 1555.64 1856.74 1561.72 Q1858.3 1567.76 1858.3 1578.04 Q1858.3 1590.2 1855.8 1597.7 Q1853.3 1605.15 1848.3 1609.25 Q1843.35 1613.3 1835.76 1613.3 Q1825.76 1613.3 1820.06 1606.14 Q1813.22 1597.51 1813.22 1578.04 M1821.94 1578.04 Q1821.94 1595.06 1825.9 1600.71 Q1829.91 1606.32 1835.76 1606.32 Q1841.6 1606.32 1845.56 1600.67 Q1849.57 1595.01 1849.57 1578.04 Q1849.57 1560.97 1845.56 1555.36 Q1841.6 1549.75 1835.66 1549.75 Q1829.82 1549.75 1826.33 1554.7 Q1821.94 1561.01 1821.94 1578.04 Z" fill="#000000" fill-rule="nonzero" fill-opacity="1" /><path clip-path="url(#clip780)" d="M2258.84 1574.64 Q2253.56 1572.71 2251.01 1569.12 Q2248.46 1565.54 2248.46 1560.54 Q2248.46 1553 2253.89 1547.86 Q2259.31 1542.72 2268.31 1542.72 Q2277.37 1542.72 2282.88 1548 Q2288.4 1553.24 2288.4 1560.78 Q2288.4 1565.59 2285.85 1569.17 Q2283.35 1572.71 2278.21 1574.64 Q2284.58 1576.72 2287.88 1581.34 Q2291.23 1585.96 2291.23 1592.37 Q2291.23 1601.23 2284.96 1607.27 Q2278.69 1613.3 2268.45 1613.3 Q2258.22 1613.3 2251.95 1607.27 Q2245.68 1601.19 2245.68 1592.13 Q2245.68 1585.39 2249.08 1580.86 Q2252.52 1576.29 2258.84 1574.64 M2257.14 1560.26 Q2257.14 1565.16 2260.3 1568.28 Q2263.46 1571.39 2268.5 1571.39 Q2273.41 1571.39 2276.52 1568.32 Q2279.68 1565.21 2279.68 1560.73 Q2279.68 1556.06 2276.42 1552.91 Q2273.22 1549.7 2268.41 1549.7 Q2263.55 1549.7 2260.35 1552.81 Q2257.14 1555.92 2257.14 1560.26 M2254.4 1592.18 Q2254.4 1595.81 2256.1 1599.21 Q2257.85 1602.6 2261.24 1604.49 Q2264.64 1606.32 2268.55 1606.32 Q2274.63 1606.32 2278.59 1602.41 Q2282.55 1598.5 2282.55 1592.46 Q2282.55 1586.33 2278.45 1582.33 Q2274.4 1578.32 2268.27 1578.32 Q2262.28 1578.32 2258.32 1582.28 Q2254.4 1586.24 2254.4 1592.18 Z" fill="#000000" fill-rule="nonzero" fill-opacity="1" /><path clip-path="url(#clip780)" d="M2299.48 1578.04 Q2299.48 1565.78 2301.98 1558.33 Q2304.52 1550.83 2309.47 1546.78 Q2314.47 1542.72 2322.02 1542.72 Q2327.58 1542.72 2331.78 1544.98 Q2335.97 1547.2 2338.71 1551.44 Q2341.44 1555.64 2343 1561.72 Q2344.55 1567.76 2344.55 1578.04 Q2344.55 1590.2 2342.05 1597.7 Q2339.56 1605.15 2334.56 1609.25 Q2329.61 1613.3 2322.02 1613.3 Q2312.02 1613.3 2306.32 1606.14 Q2299.48 1597.51 2299.48 1578.04 M2308.2 1578.04 Q2308.2 1595.06 2312.16 1600.71 Q2316.17 1606.32 2322.02 1606.32 Q2327.86 1606.32 2331.82 1600.67 Q2335.83 1595.01 2335.83 1578.04 Q2335.83 1560.97 2331.82 1555.36 Q2327.86 1549.75 2321.92 1549.75 Q2316.08 1549.75 2312.59 1554.7 Q2308.2 1561.01 2308.2 1578.04 Z" fill="#000000" fill-rule="nonzero" fill-opacity="1" /><path clip-path="url(#clip780)" d="M1233.91 1721.38 L1243.78 1722.6 Q1241.44 1731.24 1235.13 1736.01 Q1228.82 1740.79 1219.01 1740.79 Q1206.65 1740.79 1199.38 1733.2 Q1192.17 1725.57 1192.17 1711.83 Q1192.17 1697.61 1199.49 1689.76 Q1206.81 1681.91 1218.48 1681.91 Q1229.77 1681.91 1236.93 1689.6 Q1244.09 1697.29 1244.09 1711.24 Q1244.09 1712.09 1244.04 1713.79 L1202.03 1713.79 Q1202.56 1723.07 1207.28 1728.01 Q1212 1732.94 1219.06 1732.94 Q1224.31 1732.94 1228.02 1730.18 Q1231.74 1727.42 1233.91 1721.38 M1202.56 1705.94 L1234.02 1705.94 Q1233.38 1698.83 1230.41 1695.28 Q1225.85 1689.76 1218.58 1689.76 Q1212 1689.76 1207.5 1694.16 Q1203.04 1698.57 1202.56 1705.94 Z" fill="#000000" fill-rule="nonzero" fill-opacity="1" /><path clip-path="url(#clip780)" d="M1255.76 1761.1 L1255.76 1683.18 L1264.46 1683.18 L1264.46 1690.5 Q1267.54 1686.21 1271.41 1684.09 Q1275.28 1681.91 1280.8 1681.91 Q1288.01 1681.91 1293.53 1685.62 Q1299.05 1689.34 1301.86 1696.13 Q1304.67 1702.86 1304.67 1710.93 Q1304.67 1719.57 1301.54 1726.52 Q1298.46 1733.42 1292.52 1737.13 Q1286.63 1740.79 1280.11 1740.79 Q1275.34 1740.79 1271.52 1738.77 Q1267.75 1736.76 1265.31 1733.68 L1265.31 1761.1 L1255.76 1761.1 M1264.41 1711.67 Q1264.41 1722.54 1268.81 1727.74 Q1273.21 1732.94 1279.47 1732.94 Q1285.84 1732.94 1290.35 1727.58 Q1294.91 1722.17 1294.91 1710.87 Q1294.91 1700.11 1290.45 1694.75 Q1286.05 1689.39 1279.9 1689.39 Q1273.8 1689.39 1269.08 1695.12 Q1264.41 1700.79 1264.41 1711.67 Z" fill="#000000" fill-rule="nonzero" fill-opacity="1" /><path clip-path="url(#clip780)" d="M1312.63 1711.35 Q1312.63 1695.7 1321.32 1688.17 Q1328.59 1681.91 1339.04 1681.91 Q1350.66 1681.91 1358.03 1689.55 Q1365.4 1697.13 1365.4 1710.55 Q1365.4 1721.43 1362.11 1727.69 Q1358.88 1733.89 1352.62 1737.34 Q1346.41 1740.79 1339.04 1740.79 Q1327.21 1740.79 1319.89 1733.2 Q1312.63 1725.62 1312.63 1711.35 M1322.44 1711.35 Q1322.44 1722.17 1327.16 1727.58 Q1331.88 1732.94 1339.04 1732.94 Q1346.15 1732.94 1350.87 1727.53 Q1355.59 1722.12 1355.59 1711.03 Q1355.59 1700.58 1350.82 1695.23 Q1346.09 1689.82 1339.04 1689.82 Q1331.88 1689.82 1327.16 1695.17 Q1322.44 1700.53 1322.44 1711.35 Z" fill="#000000" fill-rule="nonzero" fill-opacity="1" /><path clip-path="url(#clip780)" d="M1413.35 1718.88 L1422.74 1720.1 Q1421.2 1729.81 1414.84 1735.33 Q1408.53 1740.79 1399.3 1740.79 Q1387.73 1740.79 1380.68 1733.26 Q1373.68 1725.67 1373.68 1711.56 Q1373.68 1702.44 1376.7 1695.6 Q1379.72 1688.75 1385.88 1685.36 Q1392.08 1681.91 1399.35 1681.91 Q1408.53 1681.91 1414.36 1686.58 Q1420.2 1691.19 1421.84 1699.73 L1412.56 1701.17 Q1411.23 1695.49 1407.84 1692.63 Q1404.49 1689.76 1399.72 1689.76 Q1392.51 1689.76 1388 1694.96 Q1383.49 1700.11 1383.49 1711.3 Q1383.49 1722.65 1387.84 1727.79 Q1392.19 1732.94 1399.19 1732.94 Q1404.81 1732.94 1408.58 1729.49 Q1412.34 1726.04 1413.35 1718.88 Z" fill="#000000" fill-rule="nonzero" fill-opacity="1" /><path clip-path="url(#clip780)" d="M1430.91 1739.52 L1430.91 1661.76 L1440.46 1661.76 L1440.46 1689.66 Q1447.14 1681.91 1457.32 1681.91 Q1463.58 1681.91 1468.2 1684.4 Q1472.81 1686.84 1474.78 1691.19 Q1476.79 1695.54 1476.79 1703.82 L1476.79 1739.52 L1467.24 1739.52 L1467.24 1703.82 Q1467.24 1696.66 1464.11 1693.42 Q1461.04 1690.13 1455.36 1690.13 Q1451.12 1690.13 1447.35 1692.36 Q1443.64 1694.54 1442.05 1698.3 Q1440.46 1702.07 1440.46 1708.7 L1440.46 1739.52 L1430.91 1739.52 Z" fill="#000000" fill-rule="nonzero" fill-opacity="1" /><polyline clip-path="url(#clip780)" style="stroke:#000000; stroke-linecap:round; stroke-linejoin:round; stroke-width:4; stroke-opacity:1; fill:none" points="316.201,1506.52 316.201,47.2441 "/>
<polyline clip-path="url(#clip780)" style="stroke:#000000; stroke-linecap:round; stroke-linejoin:round; stroke-width:2; stroke-opacity:0.5; fill:none" points="2352.76,1506.52 2352.76,47.2441 "/>
<polyline clip-path="url(#clip780)" style="stroke:#000000; stroke-linecap:round; stroke-linejoin:round; stroke-width:4; stroke-opacity:1; fill:none" points="316.201,1255.4 335.099,1255.4 "/>
<polyline clip-path="url(#clip780)" style="stroke:#000000; stroke-linecap:round; stroke-linejoin:round; stroke-width:4; stroke-opacity:1; fill:none" points="316.201,941.22 335.099,941.22 "/>
<polyline clip-path="url(#clip780)" style="stroke:#000000; stroke-linecap:round; stroke-linejoin:round; stroke-width:4; stroke-opacity:1; fill:none" points="316.201,627.038 335.099,627.038 "/>
<polyline clip-path="url(#clip780)" style="stroke:#000000; stroke-linecap:round; stroke-linejoin:round; stroke-width:4; stroke-opacity:1; fill:none" points="316.201,312.855 335.099,312.855 "/>
<path clip-path="url(#clip780)" d="M154.409 1255.87 Q154.409 1243.62 156.908 1236.17 Q159.454 1228.67 164.404 1224.61 Q169.402 1220.56 176.946 1220.56 Q182.509 1220.56 186.706 1222.82 Q190.902 1225.04 193.636 1229.28 Q196.371 1233.48 197.927 1239.56 Q199.483 1245.6 199.483 1255.87 Q199.483 1268.04 196.984 1275.53 Q194.485 1282.98 189.487 1287.09 Q184.537 1291.14 176.946 1291.14 Q166.95 1291.14 161.245 1283.97 Q154.409 1275.35 154.409 1255.87 M163.131 1255.87 Q163.131 1272.89 167.092 1278.55 Q171.099 1284.16 176.946 1284.16 Q182.792 1284.16 186.753 1278.51 Q190.76 1272.85 190.76 1255.87 Q190.76 1238.81 186.753 1233.2 Q182.792 1227.58 176.852 1227.58 Q171.005 1227.58 167.516 1232.54 Q163.131 1238.85 163.131 1255.87 Z" fill="#000000" fill-rule="nonzero" fill-opacity="1" /><path clip-path="url(#clip780)" d="M212.873 1289.96 L212.873 1280.3 L222.539 1280.3 L222.539 1289.96 L212.873 1289.96 Z" fill="#000000" fill-rule="nonzero" fill-opacity="1" /><path clip-path="url(#clip780)" d="M278.976 1237.77 L270.536 1238.43 Q269.404 1233.43 267.33 1231.17 Q263.888 1227.54 258.843 1227.54 Q254.788 1227.54 251.724 1229.8 Q247.716 1232.72 245.406 1238.33 Q243.095 1243.95 243.001 1254.32 Q246.066 1249.65 250.498 1247.39 Q254.93 1245.12 259.786 1245.12 Q268.273 1245.12 274.214 1251.39 Q280.201 1257.62 280.201 1267.52 Q280.201 1274.03 277.373 1279.64 Q274.591 1285.2 269.687 1288.17 Q264.784 1291.14 258.56 1291.14 Q247.952 1291.14 241.257 1283.36 Q234.562 1275.53 234.562 1257.62 Q234.562 1237.58 241.964 1228.48 Q248.423 1220.56 259.362 1220.56 Q267.518 1220.56 272.705 1225.13 Q277.938 1229.71 278.976 1237.77 M244.321 1267.57 Q244.321 1271.95 246.16 1275.96 Q248.046 1279.97 251.394 1282.09 Q254.741 1284.16 258.419 1284.16 Q263.794 1284.16 267.66 1279.83 Q271.526 1275.49 271.526 1268.04 Q271.526 1260.87 267.707 1256.77 Q263.888 1252.62 258.089 1252.62 Q252.337 1252.62 248.329 1256.77 Q244.321 1260.87 244.321 1267.57 Z" fill="#000000" fill-rule="nonzero" fill-opacity="1" /><path clip-path="url(#clip780)" d="M154.22 941.691 Q154.22 929.433 156.719 921.983 Q159.265 914.487 164.216 910.432 Q169.213 906.377 176.757 906.377 Q182.321 906.377 186.517 908.64 Q190.713 910.856 193.448 915.1 Q196.183 919.296 197.738 925.378 Q199.294 931.413 199.294 941.691 Q199.294 953.856 196.795 961.352 Q194.297 968.802 189.299 972.904 Q184.348 976.959 176.757 976.959 Q166.762 976.959 161.057 969.792 Q154.22 961.164 154.22 941.691 M162.943 941.691 Q162.943 958.712 166.903 964.37 Q170.911 969.981 176.757 969.981 Q182.604 969.981 186.564 964.323 Q190.572 958.665 190.572 941.691 Q190.572 924.624 186.564 919.013 Q182.604 913.402 176.663 913.402 Q170.817 913.402 167.327 918.353 Q162.943 924.671 162.943 941.691 Z" fill="#000000" fill-rule="nonzero" fill-opacity="1" /><path clip-path="url(#clip780)" d="M212.685 975.78 L212.685 966.114 L222.35 966.114 L222.35 975.78 L212.685 975.78 Z" fill="#000000" fill-rule="nonzero" fill-opacity="1" /><path clip-path="url(#clip780)" d="M236.023 959.797 L244.18 959.042 Q245.217 964.794 248.14 967.387 Q251.064 969.981 255.637 969.981 Q259.55 969.981 262.474 968.189 Q265.444 966.397 267.33 963.427 Q269.216 960.409 270.489 955.317 Q271.762 950.225 271.762 944.945 Q271.762 944.379 271.715 943.247 Q269.169 947.302 264.737 949.848 Q260.352 952.347 255.213 952.347 Q246.632 952.347 240.691 946.123 Q234.75 939.9 234.75 929.716 Q234.75 919.202 240.927 912.789 Q247.15 906.377 256.486 906.377 Q263.228 906.377 268.792 910.008 Q274.402 913.638 277.278 920.38 Q280.201 927.075 280.201 939.805 Q280.201 953.054 277.325 960.928 Q274.449 968.755 268.744 972.857 Q263.087 976.959 255.448 976.959 Q247.339 976.959 242.2 972.48 Q237.06 967.953 236.023 959.797 M270.772 929.291 Q270.772 921.983 266.858 917.693 Q262.992 913.402 257.523 913.402 Q251.865 913.402 247.669 918.023 Q243.473 922.643 243.473 929.999 Q243.473 936.599 247.433 940.748 Q251.441 944.85 257.287 944.85 Q263.181 944.85 266.953 940.748 Q270.772 936.599 270.772 929.291 Z" fill="#000000" fill-rule="nonzero" fill-opacity="1" /><path clip-path="url(#clip780)" d="M187.036 661.598 L178.549 661.598 L178.549 607.518 Q175.484 610.441 170.486 613.364 Q165.536 616.288 161.575 617.749 L161.575 609.545 Q168.695 606.198 174.023 601.436 Q179.35 596.674 181.566 592.195 L187.036 592.195 L187.036 661.598 Z" fill="#000000" fill-rule="nonzero" fill-opacity="1" /><path clip-path="url(#clip780)" d="M213.533 661.598 L213.533 651.932 L223.199 651.932 L223.199 661.598 L213.533 661.598 Z" fill="#000000" fill-rule="nonzero" fill-opacity="1" /><path clip-path="url(#clip780)" d="M280.201 653.441 L280.201 661.598 L234.514 661.598 Q234.42 658.533 235.505 655.704 Q237.249 651.036 241.068 646.51 Q244.934 641.984 252.195 636.043 Q263.464 626.802 267.424 621.427 Q271.385 616.005 271.385 611.196 Q271.385 606.151 267.754 602.709 Q264.171 599.22 258.372 599.22 Q252.242 599.22 248.565 602.897 Q244.887 606.575 244.84 613.082 L236.117 612.186 Q237.013 602.426 242.86 597.334 Q248.706 592.195 258.56 592.195 Q268.509 592.195 274.308 597.711 Q280.107 603.227 280.107 611.384 Q280.107 615.533 278.41 619.541 Q276.712 623.549 272.752 627.981 Q268.839 632.413 259.692 640.145 Q252.054 646.557 249.885 648.867 Q247.716 651.131 246.302 653.441 L280.201 653.441 Z" fill="#000000" fill-rule="nonzero" fill-opacity="1" /><path clip-path="url(#clip780)" d="M185.81 347.415 L177.323 347.415 L177.323 293.336 Q174.258 296.259 169.261 299.182 Q164.31 302.105 160.349 303.567 L160.349 295.363 Q167.469 292.015 172.797 287.253 Q178.125 282.491 180.341 278.012 L185.81 278.012 L185.81 347.415 Z" fill="#000000" fill-rule="nonzero" fill-opacity="1" /><path clip-path="url(#clip780)" d="M212.307 347.415 L212.307 337.75 L221.973 337.75 L221.973 347.415 L212.307 347.415 Z" fill="#000000" fill-rule="nonzero" fill-opacity="1" /><path clip-path="url(#clip780)" d="M234.373 329.31 L243.284 328.556 Q244.274 335.062 247.857 338.363 Q251.488 341.616 256.58 341.616 Q262.709 341.616 266.953 336.995 Q271.196 332.375 271.196 324.737 Q271.196 317.476 267.094 313.28 Q263.039 309.083 256.439 309.083 Q252.337 309.083 249.036 310.969 Q245.736 312.808 243.85 315.778 L235.882 314.741 L242.577 279.238 L276.948 279.238 L276.948 287.348 L249.366 287.348 L245.641 305.924 Q251.865 301.587 258.702 301.587 Q267.754 301.587 273.978 307.857 Q280.201 314.128 280.201 323.982 Q280.201 333.365 274.732 340.201 Q268.084 348.594 256.58 348.594 Q247.15 348.594 241.162 343.313 Q235.222 338.033 234.373 329.31 Z" fill="#000000" fill-rule="nonzero" fill-opacity="1" /><path clip-path="url(#clip780)" d="M94.8922 867.905 L17.1322 867.905 L17.1322 858.357 L94.8922 858.357 L94.8922 867.905 Z" fill="#000000" fill-rule="nonzero" fill-opacity="1" /><path clip-path="url(#clip780)" d="M66.7267 847.112 Q51.0792 847.112 43.5472 838.413 Q37.2882 831.146 37.2882 820.697 Q37.2882 809.081 44.9263 801.708 Q52.5114 794.335 65.9311 794.335 Q76.8047 794.335 83.0637 797.623 Q89.2697 800.859 92.7174 807.118 Q96.1652 813.324 96.1652 820.697 Q96.1652 832.525 88.5801 839.845 Q80.9951 847.112 66.7267 847.112 M66.7267 837.299 Q77.5473 837.299 82.9576 832.578 Q88.3149 827.858 88.3149 820.697 Q88.3149 813.589 82.9046 808.868 Q77.4943 804.148 66.4084 804.148 Q55.9591 804.148 50.6018 808.921 Q45.1915 813.642 45.1915 820.697 Q45.1915 827.858 50.5488 832.578 Q55.9061 837.299 66.7267 837.299 Z" fill="#000000" fill-rule="nonzero" fill-opacity="1" /><path clip-path="url(#clip780)" d="M78.0778 786.962 L76.5926 777.52 Q82.2681 776.725 85.2915 773.118 Q88.3149 769.458 88.3149 762.934 Q88.3149 756.357 85.6628 753.174 Q82.9576 749.991 79.3508 749.991 Q76.1152 749.991 74.2587 752.803 Q72.9857 754.765 71.0231 762.563 Q68.371 773.065 66.4615 777.149 Q64.4989 781.18 61.1042 783.302 Q57.6565 785.371 53.5192 785.371 Q49.7532 785.371 46.5706 783.673 Q43.335 781.923 41.2134 778.953 Q39.569 776.725 38.4552 772.906 Q37.2882 769.034 37.2882 764.631 Q37.2882 758.001 39.1978 753.015 Q41.1073 747.976 44.3959 745.589 Q47.6315 743.202 53.0948 742.3 L54.3678 751.636 Q50.0184 752.272 47.5784 755.349 Q45.1385 758.372 45.1385 763.942 Q45.1385 770.519 47.3132 773.33 Q49.488 776.141 52.4053 776.141 Q54.2618 776.141 55.7469 774.974 Q57.2852 773.807 58.293 771.314 Q58.8234 769.882 60.7329 762.881 Q63.4381 752.75 65.1885 748.772 Q66.8858 744.74 70.1744 742.459 Q73.4631 740.179 78.343 740.179 Q83.1168 740.179 87.3602 742.99 Q91.5505 745.748 93.8844 750.999 Q96.1652 756.25 96.1652 762.881 Q96.1652 773.861 91.6035 779.642 Q87.0419 785.371 78.0778 786.962 Z" fill="#000000" fill-rule="nonzero" fill-opacity="1" /><path clip-path="url(#clip780)" d="M78.0778 732.647 L76.5926 723.205 Q82.2681 722.41 85.2915 718.803 Q88.3149 715.143 88.3149 708.619 Q88.3149 702.041 85.6628 698.859 Q82.9576 695.676 79.3508 695.676 Q76.1152 695.676 74.2587 698.487 Q72.9857 700.45 71.0231 708.247 Q68.371 718.75 66.4615 722.834 Q64.4989 726.865 61.1042 728.987 Q57.6565 731.055 53.5192 731.055 Q49.7532 731.055 46.5706 729.358 Q43.335 727.608 41.2134 724.637 Q39.569 722.41 38.4552 718.59 Q37.2882 714.718 37.2882 710.316 Q37.2882 703.686 39.1978 698.7 Q41.1073 693.661 44.3959 691.274 Q47.6315 688.887 53.0948 687.985 L54.3678 697.32 Q50.0184 697.957 47.5784 701.033 Q45.1385 704.057 45.1385 709.626 Q45.1385 716.204 47.3132 719.015 Q49.488 721.826 52.4053 721.826 Q54.2618 721.826 55.7469 720.659 Q57.2852 719.492 58.293 716.999 Q58.8234 715.567 60.7329 708.565 Q63.4381 698.434 65.1885 694.456 Q66.8858 690.425 70.1744 688.144 Q73.4631 685.863 78.343 685.863 Q83.1168 685.863 87.3602 688.675 Q91.5505 691.433 93.8844 696.684 Q96.1652 701.935 96.1652 708.565 Q96.1652 719.545 91.6035 725.327 Q87.0419 731.055 78.0778 732.647 Z" fill="#000000" fill-rule="nonzero" fill-opacity="1" /><polyline clip-path="url(#clip782)" style="stroke:#4477aa; stroke-linecap:round; stroke-linejoin:round; stroke-width:8; stroke-opacity:1; fill:none" points="373.84,720.131 398.16,828.721 422.48,828.039 446.8,835.266 471.12,845.314 495.44,856.618 519.76,868.417 544.08,880.051 568.4,891.655 592.72,902.86 617.04,913.831 641.36,924.55 665.679,935.013 689.999,945.303 714.319,955.349 738.639,965.222 762.959,974.653 787.279,983.933 811.599,993.297 835.919,1002.14 860.239,1010.69 884.559,1019.29 908.879,1027.69 933.199,1035.93 957.519,1044.01 981.839,1051.99 1006.16,1059.68 1030.48,1067.02 1054.8,1074.6 1079.12,1081.49 1103.44,1089.42 1127.76,1096.33 1152.08,1103.36 1176.4,1110.25 1200.72,1117.06 1225.04,1123.51 1249.36,1130.06 1273.68,1136.77 1298,1143.04 1322.32,1148.92 1346.64,1155.09 1370.96,1160.98 1395.28,1166.9 1419.6,1172.71 1443.92,1178.38 1468.24,1183.84 1492.56,1189.42 1516.88,1194.77 1541.2,1200.2 1565.52,1205.46 1589.84,1210.57 1614.16,1215.78 1638.48,1220.71 1662.8,1225.73 1687.12,1230.53 1711.44,1235.26 1735.76,1239.84 1760.08,1244.58 1784.4,1249.1 1808.72,1253.73 1833.04,1258.03 1857.36,1262.21 1881.68,1266.73 1906,1270.69 1930.32,1274.98 1954.64,1278.84 1978.96,1283.21 2003.28,1287.02 2027.6,1291.44 2051.92,1295.45 2076.24,1299.33 2100.56,1303.25 2124.88,1306.76 2149.2,1310.74 2173.52,1314.54 2197.84,1318.08 2222.16,1321.72 2246.48,1325.22 2270.8,1328.62 2295.12,1332.01 "/>
<circle clip-path="url(#clip782)" cx="373.84" cy="720.131" r="14.4" fill="#4477aa" fill-rule="evenodd" fill-opacity="1" stroke="#000000" stroke-opacity="1" stroke-width="3.6"/>
<circle clip-path="url(#clip782)" cx="398.16" cy="828.721" r="14.4" fill="#4477aa" fill-rule="evenodd" fill-opacity="1" stroke="#000000" stroke-opacity="1" stroke-width="3.6"/>
<circle clip-path="url(#clip782)" cx="422.48" cy="828.039" r="14.4" fill="#4477aa" fill-rule="evenodd" fill-opacity="1" stroke="#000000" stroke-opacity="1" stroke-width="3.6"/>
<circle clip-path="url(#clip782)" cx="446.8" cy="835.266" r="14.4" fill="#4477aa" fill-rule="evenodd" fill-opacity="1" stroke="#000000" stroke-opacity="1" stroke-width="3.6"/>
<circle clip-path="url(#clip782)" cx="471.12" cy="845.314" r="14.4" fill="#4477aa" fill-rule="evenodd" fill-opacity="1" stroke="#000000" stroke-opacity="1" stroke-width="3.6"/>
<circle clip-path="url(#clip782)" cx="495.44" cy="856.618" r="14.4" fill="#4477aa" fill-rule="evenodd" fill-opacity="1" stroke="#000000" stroke-opacity="1" stroke-width="3.6"/>
<circle clip-path="url(#clip782)" cx="519.76" cy="868.417" r="14.4" fill="#4477aa" fill-rule="evenodd" fill-opacity="1" stroke="#000000" stroke-opacity="1" stroke-width="3.6"/>
<circle clip-path="url(#clip782)" cx="544.08" cy="880.051" r="14.4" fill="#4477aa" fill-rule="evenodd" fill-opacity="1" stroke="#000000" stroke-opacity="1" stroke-width="3.6"/>
<circle clip-path="url(#clip782)" cx="568.4" cy="891.655" r="14.4" fill="#4477aa" fill-rule="evenodd" fill-opacity="1" stroke="#000000" stroke-opacity="1" stroke-width="3.6"/>
<circle clip-path="url(#clip782)" cx="592.72" cy="902.86" r="14.4" fill="#4477aa" fill-rule="evenodd" fill-opacity="1" stroke="#000000" stroke-opacity="1" stroke-width="3.6"/>
<circle clip-path="url(#clip782)" cx="617.04" cy="913.831" r="14.4" fill="#4477aa" fill-rule="evenodd" fill-opacity="1" stroke="#000000" stroke-opacity="1" stroke-width="3.6"/>
<circle clip-path="url(#clip782)" cx="641.36" cy="924.55" r="14.4" fill="#4477aa" fill-rule="evenodd" fill-opacity="1" stroke="#000000" stroke-opacity="1" stroke-width="3.6"/>
<circle clip-path="url(#clip782)" cx="665.679" cy="935.013" r="14.4" fill="#4477aa" fill-rule="evenodd" fill-opacity="1" stroke="#000000" stroke-opacity="1" stroke-width="3.6"/>
<circle clip-path="url(#clip782)" cx="689.999" cy="945.303" r="14.4" fill="#4477aa" fill-rule="evenodd" fill-opacity="1" stroke="#000000" stroke-opacity="1" stroke-width="3.6"/>
<circle clip-path="url(#clip782)" cx="714.319" cy="955.349" r="14.4" fill="#4477aa" fill-rule="evenodd" fill-opacity="1" stroke="#000000" stroke-opacity="1" stroke-width="3.6"/>
<circle clip-path="url(#clip782)" cx="738.639" cy="965.222" r="14.4" fill="#4477aa" fill-rule="evenodd" fill-opacity="1" stroke="#000000" stroke-opacity="1" stroke-width="3.6"/>
<circle clip-path="url(#clip782)" cx="762.959" cy="974.653" r="14.4" fill="#4477aa" fill-rule="evenodd" fill-opacity="1" stroke="#000000" stroke-opacity="1" stroke-width="3.6"/>
<circle clip-path="url(#clip782)" cx="787.279" cy="983.933" r="14.4" fill="#4477aa" fill-rule="evenodd" fill-opacity="1" stroke="#000000" stroke-opacity="1" stroke-width="3.6"/>
<circle clip-path="url(#clip782)" cx="811.599" cy="993.297" r="14.4" fill="#4477aa" fill-rule="evenodd" fill-opacity="1" stroke="#000000" stroke-opacity="1" stroke-width="3.6"/>
<circle clip-path="url(#clip782)" cx="835.919" cy="1002.14" r="14.4" fill="#4477aa" fill-rule="evenodd" fill-opacity="1" stroke="#000000" stroke-opacity="1" stroke-width="3.6"/>
<circle clip-path="url(#clip782)" cx="860.239" cy="1010.69" r="14.4" fill="#4477aa" fill-rule="evenodd" fill-opacity="1" stroke="#000000" stroke-opacity="1" stroke-width="3.6"/>
<circle clip-path="url(#clip782)" cx="884.559" cy="1019.29" r="14.4" fill="#4477aa" fill-rule="evenodd" fill-opacity="1" stroke="#000000" stroke-opacity="1" stroke-width="3.6"/>
<circle clip-path="url(#clip782)" cx="908.879" cy="1027.69" r="14.4" fill="#4477aa" fill-rule="evenodd" fill-opacity="1" stroke="#000000" stroke-opacity="1" stroke-width="3.6"/>
<circle clip-path="url(#clip782)" cx="933.199" cy="1035.93" r="14.4" fill="#4477aa" fill-rule="evenodd" fill-opacity="1" stroke="#000000" stroke-opacity="1" stroke-width="3.6"/>
<circle clip-path="url(#clip782)" cx="957.519" cy="1044.01" r="14.4" fill="#4477aa" fill-rule="evenodd" fill-opacity="1" stroke="#000000" stroke-opacity="1" stroke-width="3.6"/>
<circle clip-path="url(#clip782)" cx="981.839" cy="1051.99" r="14.4" fill="#4477aa" fill-rule="evenodd" fill-opacity="1" stroke="#000000" stroke-opacity="1" stroke-width="3.6"/>
<circle clip-path="url(#clip782)" cx="1006.16" cy="1059.68" r="14.4" fill="#4477aa" fill-rule="evenodd" fill-opacity="1" stroke="#000000" stroke-opacity="1" stroke-width="3.6"/>
<circle clip-path="url(#clip782)" cx="1030.48" cy="1067.02" r="14.4" fill="#4477aa" fill-rule="evenodd" fill-opacity="1" stroke="#000000" stroke-opacity="1" stroke-width="3.6"/>
<circle clip-path="url(#clip782)" cx="1054.8" cy="1074.6" r="14.4" fill="#4477aa" fill-rule="evenodd" fill-opacity="1" stroke="#000000" stroke-opacity="1" stroke-width="3.6"/>
<circle clip-path="url(#clip782)" cx="1079.12" cy="1081.49" r="14.4" fill="#4477aa" fill-rule="evenodd" fill-opacity="1" stroke="#000000" stroke-opacity="1" stroke-width="3.6"/>
<circle clip-path="url(#clip782)" cx="1103.44" cy="1089.42" r="14.4" fill="#4477aa" fill-rule="evenodd" fill-opacity="1" stroke="#000000" stroke-opacity="1" stroke-width="3.6"/>
<circle clip-path="url(#clip782)" cx="1127.76" cy="1096.33" r="14.4" fill="#4477aa" fill-rule="evenodd" fill-opacity="1" stroke="#000000" stroke-opacity="1" stroke-width="3.6"/>
<circle clip-path="url(#clip782)" cx="1152.08" cy="1103.36" r="14.4" fill="#4477aa" fill-rule="evenodd" fill-opacity="1" stroke="#000000" stroke-opacity="1" stroke-width="3.6"/>
<circle clip-path="url(#clip782)" cx="1176.4" cy="1110.25" r="14.4" fill="#4477aa" fill-rule="evenodd" fill-opacity="1" stroke="#000000" stroke-opacity="1" stroke-width="3.6"/>
<circle clip-path="url(#clip782)" cx="1200.72" cy="1117.06" r="14.4" fill="#4477aa" fill-rule="evenodd" fill-opacity="1" stroke="#000000" stroke-opacity="1" stroke-width="3.6"/>
<circle clip-path="url(#clip782)" cx="1225.04" cy="1123.51" r="14.4" fill="#4477aa" fill-rule="evenodd" fill-opacity="1" stroke="#000000" stroke-opacity="1" stroke-width="3.6"/>
<circle clip-path="url(#clip782)" cx="1249.36" cy="1130.06" r="14.4" fill="#4477aa" fill-rule="evenodd" fill-opacity="1" stroke="#000000" stroke-opacity="1" stroke-width="3.6"/>
<circle clip-path="url(#clip782)" cx="1273.68" cy="1136.77" r="14.4" fill="#4477aa" fill-rule="evenodd" fill-opacity="1" stroke="#000000" stroke-opacity="1" stroke-width="3.6"/>
<circle clip-path="url(#clip782)" cx="1298" cy="1143.04" r="14.4" fill="#4477aa" fill-rule="evenodd" fill-opacity="1" stroke="#000000" stroke-opacity="1" stroke-width="3.6"/>
<circle clip-path="url(#clip782)" cx="1322.32" cy="1148.92" r="14.4" fill="#4477aa" fill-rule="evenodd" fill-opacity="1" stroke="#000000" stroke-opacity="1" stroke-width="3.6"/>
<circle clip-path="url(#clip782)" cx="1346.64" cy="1155.09" r="14.4" fill="#4477aa" fill-rule="evenodd" fill-opacity="1" stroke="#000000" stroke-opacity="1" stroke-width="3.6"/>
<circle clip-path="url(#clip782)" cx="1370.96" cy="1160.98" r="14.4" fill="#4477aa" fill-rule="evenodd" fill-opacity="1" stroke="#000000" stroke-opacity="1" stroke-width="3.6"/>
<circle clip-path="url(#clip782)" cx="1395.28" cy="1166.9" r="14.4" fill="#4477aa" fill-rule="evenodd" fill-opacity="1" stroke="#000000" stroke-opacity="1" stroke-width="3.6"/>
<circle clip-path="url(#clip782)" cx="1419.6" cy="1172.71" r="14.4" fill="#4477aa" fill-rule="evenodd" fill-opacity="1" stroke="#000000" stroke-opacity="1" stroke-width="3.6"/>
<circle clip-path="url(#clip782)" cx="1443.92" cy="1178.38" r="14.4" fill="#4477aa" fill-rule="evenodd" fill-opacity="1" stroke="#000000" stroke-opacity="1" stroke-width="3.6"/>
<circle clip-path="url(#clip782)" cx="1468.24" cy="1183.84" r="14.4" fill="#4477aa" fill-rule="evenodd" fill-opacity="1" stroke="#000000" stroke-opacity="1" stroke-width="3.6"/>
<circle clip-path="url(#clip782)" cx="1492.56" cy="1189.42" r="14.4" fill="#4477aa" fill-rule="evenodd" fill-opacity="1" stroke="#000000" stroke-opacity="1" stroke-width="3.6"/>
<circle clip-path="url(#clip782)" cx="1516.88" cy="1194.77" r="14.4" fill="#4477aa" fill-rule="evenodd" fill-opacity="1" stroke="#000000" stroke-opacity="1" stroke-width="3.6"/>
<circle clip-path="url(#clip782)" cx="1541.2" cy="1200.2" r="14.4" fill="#4477aa" fill-rule="evenodd" fill-opacity="1" stroke="#000000" stroke-opacity="1" stroke-width="3.6"/>
<circle clip-path="url(#clip782)" cx="1565.52" cy="1205.46" r="14.4" fill="#4477aa" fill-rule="evenodd" fill-opacity="1" stroke="#000000" stroke-opacity="1" stroke-width="3.6"/>
<circle clip-path="url(#clip782)" cx="1589.84" cy="1210.57" r="14.4" fill="#4477aa" fill-rule="evenodd" fill-opacity="1" stroke="#000000" stroke-opacity="1" stroke-width="3.6"/>
<circle clip-path="url(#clip782)" cx="1614.16" cy="1215.78" r="14.4" fill="#4477aa" fill-rule="evenodd" fill-opacity="1" stroke="#000000" stroke-opacity="1" stroke-width="3.6"/>
<circle clip-path="url(#clip782)" cx="1638.48" cy="1220.71" r="14.4" fill="#4477aa" fill-rule="evenodd" fill-opacity="1" stroke="#000000" stroke-opacity="1" stroke-width="3.6"/>
<circle clip-path="url(#clip782)" cx="1662.8" cy="1225.73" r="14.4" fill="#4477aa" fill-rule="evenodd" fill-opacity="1" stroke="#000000" stroke-opacity="1" stroke-width="3.6"/>
<circle clip-path="url(#clip782)" cx="1687.12" cy="1230.53" r="14.4" fill="#4477aa" fill-rule="evenodd" fill-opacity="1" stroke="#000000" stroke-opacity="1" stroke-width="3.6"/>
<circle clip-path="url(#clip782)" cx="1711.44" cy="1235.26" r="14.4" fill="#4477aa" fill-rule="evenodd" fill-opacity="1" stroke="#000000" stroke-opacity="1" stroke-width="3.6"/>
<circle clip-path="url(#clip782)" cx="1735.76" cy="1239.84" r="14.4" fill="#4477aa" fill-rule="evenodd" fill-opacity="1" stroke="#000000" stroke-opacity="1" stroke-width="3.6"/>
<circle clip-path="url(#clip782)" cx="1760.08" cy="1244.58" r="14.4" fill="#4477aa" fill-rule="evenodd" fill-opacity="1" stroke="#000000" stroke-opacity="1" stroke-width="3.6"/>
<circle clip-path="url(#clip782)" cx="1784.4" cy="1249.1" r="14.4" fill="#4477aa" fill-rule="evenodd" fill-opacity="1" stroke="#000000" stroke-opacity="1" stroke-width="3.6"/>
<circle clip-path="url(#clip782)" cx="1808.72" cy="1253.73" r="14.4" fill="#4477aa" fill-rule="evenodd" fill-opacity="1" stroke="#000000" stroke-opacity="1" stroke-width="3.6"/>
<circle clip-path="url(#clip782)" cx="1833.04" cy="1258.03" r="14.4" fill="#4477aa" fill-rule="evenodd" fill-opacity="1" stroke="#000000" stroke-opacity="1" stroke-width="3.6"/>
<circle clip-path="url(#clip782)" cx="1857.36" cy="1262.21" r="14.4" fill="#4477aa" fill-rule="evenodd" fill-opacity="1" stroke="#000000" stroke-opacity="1" stroke-width="3.6"/>
<circle clip-path="url(#clip782)" cx="1881.68" cy="1266.73" r="14.4" fill="#4477aa" fill-rule="evenodd" fill-opacity="1" stroke="#000000" stroke-opacity="1" stroke-width="3.6"/>
<circle clip-path="url(#clip782)" cx="1906" cy="1270.69" r="14.4" fill="#4477aa" fill-rule="evenodd" fill-opacity="1" stroke="#000000" stroke-opacity="1" stroke-width="3.6"/>
<circle clip-path="url(#clip782)" cx="1930.32" cy="1274.98" r="14.4" fill="#4477aa" fill-rule="evenodd" fill-opacity="1" stroke="#000000" stroke-opacity="1" stroke-width="3.6"/>
<circle clip-path="url(#clip782)" cx="1954.64" cy="1278.84" r="14.4" fill="#4477aa" fill-rule="evenodd" fill-opacity="1" stroke="#000000" stroke-opacity="1" stroke-width="3.6"/>
<circle clip-path="url(#clip782)" cx="1978.96" cy="1283.21" r="14.4" fill="#4477aa" fill-rule="evenodd" fill-opacity="1" stroke="#000000" stroke-opacity="1" stroke-width="3.6"/>
<circle clip-path="url(#clip782)" cx="2003.28" cy="1287.02" r="14.4" fill="#4477aa" fill-rule="evenodd" fill-opacity="1" stroke="#000000" stroke-opacity="1" stroke-width="3.6"/>
<circle clip-path="url(#clip782)" cx="2027.6" cy="1291.44" r="14.4" fill="#4477aa" fill-rule="evenodd" fill-opacity="1" stroke="#000000" stroke-opacity="1" stroke-width="3.6"/>
<circle clip-path="url(#clip782)" cx="2051.92" cy="1295.45" r="14.4" fill="#4477aa" fill-rule="evenodd" fill-opacity="1" stroke="#000000" stroke-opacity="1" stroke-width="3.6"/>
<circle clip-path="url(#clip782)" cx="2076.24" cy="1299.33" r="14.4" fill="#4477aa" fill-rule="evenodd" fill-opacity="1" stroke="#000000" stroke-opacity="1" stroke-width="3.6"/>
<circle clip-path="url(#clip782)" cx="2100.56" cy="1303.25" r="14.4" fill="#4477aa" fill-rule="evenodd" fill-opacity="1" stroke="#000000" stroke-opacity="1" stroke-width="3.6"/>
<circle clip-path="url(#clip782)" cx="2124.88" cy="1306.76" r="14.4" fill="#4477aa" fill-rule="evenodd" fill-opacity="1" stroke="#000000" stroke-opacity="1" stroke-width="3.6"/>
<circle clip-path="url(#clip782)" cx="2149.2" cy="1310.74" r="14.4" fill="#4477aa" fill-rule="evenodd" fill-opacity="1" stroke="#000000" stroke-opacity="1" stroke-width="3.6"/>
<circle clip-path="url(#clip782)" cx="2173.52" cy="1314.54" r="14.4" fill="#4477aa" fill-rule="evenodd" fill-opacity="1" stroke="#000000" stroke-opacity="1" stroke-width="3.6"/>
<circle clip-path="url(#clip782)" cx="2197.84" cy="1318.08" r="14.4" fill="#4477aa" fill-rule="evenodd" fill-opacity="1" stroke="#000000" stroke-opacity="1" stroke-width="3.6"/>
<circle clip-path="url(#clip782)" cx="2222.16" cy="1321.72" r="14.4" fill="#4477aa" fill-rule="evenodd" fill-opacity="1" stroke="#000000" stroke-opacity="1" stroke-width="3.6"/>
<circle clip-path="url(#clip782)" cx="2246.48" cy="1325.22" r="14.4" fill="#4477aa" fill-rule="evenodd" fill-opacity="1" stroke="#000000" stroke-opacity="1" stroke-width="3.6"/>
<circle clip-path="url(#clip782)" cx="2270.8" cy="1328.62" r="14.4" fill="#4477aa" fill-rule="evenodd" fill-opacity="1" stroke="#000000" stroke-opacity="1" stroke-width="3.6"/>
<circle clip-path="url(#clip782)" cx="2295.12" cy="1332.01" r="14.4" fill="#4477aa" fill-rule="evenodd" fill-opacity="1" stroke="#000000" stroke-opacity="1" stroke-width="3.6"/>
<polyline clip-path="url(#clip782)" style="stroke:#ee6677; stroke-linecap:round; stroke-linejoin:round; stroke-width:8; stroke-opacity:1; fill:none" points="373.84,88.5445 398.16,1135.02 422.48,1149.52 446.8,1146.76 471.12,1149.89 495.44,1156.15 519.76,1163.62 544.08,1171.59 568.4,1179.52 592.72,1187.28 617.04,1194.86 641.36,1202.26 665.679,1209.42 689.999,1216.38 714.319,1223.18 738.639,1229.8 762.959,1236.23 787.279,1242.49 811.599,1248.62 835.919,1254.63 860.239,1260.5 884.559,1266.23 908.879,1271.8 933.199,1277.28 957.519,1282.62 981.839,1287.8 1006.16,1292.84 1030.48,1297.9 1054.8,1302.69 1079.12,1307.49 1103.44,1312.21 1127.76,1316.75 1152.08,1321.27 1176.4,1325.66 1200.72,1329.95 1225.04,1334.13 1249.36,1338.23 1273.68,1342.36 1298,1346.37 1322.32,1350.29 1346.64,1354.05 1370.96,1357.76 1395.28,1361.47 1419.6,1365.16 1443.92,1368.69 1468.24,1372.1 1492.56,1375.59 1516.88,1378.99 1541.2,1382.39 1565.52,1385.66 1589.84,1388.91 1614.16,1392.02 1638.48,1395.22 1662.8,1398.31 1687.12,1401.3 1711.44,1404.33 1735.76,1407.26 1760.08,1410.19 1784.4,1413.05 1808.72,1415.83 1833.04,1418.71 1857.36,1421.4 1881.68,1424.03 1906,1426.74 1930.32,1429.37 1954.64,1431.94 1978.96,1434.44 2003.28,1437.03 2027.6,1439.45 2051.92,1441.97 2076.24,1444.38 2100.56,1446.69 2124.88,1449.2 2149.2,1451.49 2173.52,1453.86 2197.84,1456.18 2222.16,1458.57 2246.48,1460.86 2270.8,1463.01 2295.12,1465.22 "/>
<circle clip-path="url(#clip782)" cx="373.84" cy="88.5445" r="14.4" fill="#ee6677" fill-rule="evenodd" fill-opacity="1" stroke="#000000" stroke-opacity="1" stroke-width="3.6"/>
<circle clip-path="url(#clip782)" cx="398.16" cy="1135.02" r="14.4" fill="#ee6677" fill-rule="evenodd" fill-opacity="1" stroke="#000000" stroke-opacity="1" stroke-width="3.6"/>
<circle clip-path="url(#clip782)" cx="422.48" cy="1149.52" r="14.4" fill="#ee6677" fill-rule="evenodd" fill-opacity="1" stroke="#000000" stroke-opacity="1" stroke-width="3.6"/>
<circle clip-path="url(#clip782)" cx="446.8" cy="1146.76" r="14.4" fill="#ee6677" fill-rule="evenodd" fill-opacity="1" stroke="#000000" stroke-opacity="1" stroke-width="3.6"/>
<circle clip-path="url(#clip782)" cx="471.12" cy="1149.89" r="14.4" fill="#ee6677" fill-rule="evenodd" fill-opacity="1" stroke="#000000" stroke-opacity="1" stroke-width="3.6"/>
<circle clip-path="url(#clip782)" cx="495.44" cy="1156.15" r="14.4" fill="#ee6677" fill-rule="evenodd" fill-opacity="1" stroke="#000000" stroke-opacity="1" stroke-width="3.6"/>
<circle clip-path="url(#clip782)" cx="519.76" cy="1163.62" r="14.4" fill="#ee6677" fill-rule="evenodd" fill-opacity="1" stroke="#000000" stroke-opacity="1" stroke-width="3.6"/>
<circle clip-path="url(#clip782)" cx="544.08" cy="1171.59" r="14.4" fill="#ee6677" fill-rule="evenodd" fill-opacity="1" stroke="#000000" stroke-opacity="1" stroke-width="3.6"/>
<circle clip-path="url(#clip782)" cx="568.4" cy="1179.52" r="14.4" fill="#ee6677" fill-rule="evenodd" fill-opacity="1" stroke="#000000" stroke-opacity="1" stroke-width="3.6"/>
<circle clip-path="url(#clip782)" cx="592.72" cy="1187.28" r="14.4" fill="#ee6677" fill-rule="evenodd" fill-opacity="1" stroke="#000000" stroke-opacity="1" stroke-width="3.6"/>
<circle clip-path="url(#clip782)" cx="617.04" cy="1194.86" r="14.4" fill="#ee6677" fill-rule="evenodd" fill-opacity="1" stroke="#000000" stroke-opacity="1" stroke-width="3.6"/>
<circle clip-path="url(#clip782)" cx="641.36" cy="1202.26" r="14.4" fill="#ee6677" fill-rule="evenodd" fill-opacity="1" stroke="#000000" stroke-opacity="1" stroke-width="3.6"/>
<circle clip-path="url(#clip782)" cx="665.679" cy="1209.42" r="14.4" fill="#ee6677" fill-rule="evenodd" fill-opacity="1" stroke="#000000" stroke-opacity="1" stroke-width="3.6"/>
<circle clip-path="url(#clip782)" cx="689.999" cy="1216.38" r="14.4" fill="#ee6677" fill-rule="evenodd" fill-opacity="1" stroke="#000000" stroke-opacity="1" stroke-width="3.6"/>
<circle clip-path="url(#clip782)" cx="714.319" cy="1223.18" r="14.4" fill="#ee6677" fill-rule="evenodd" fill-opacity="1" stroke="#000000" stroke-opacity="1" stroke-width="3.6"/>
<circle clip-path="url(#clip782)" cx="738.639" cy="1229.8" r="14.4" fill="#ee6677" fill-rule="evenodd" fill-opacity="1" stroke="#000000" stroke-opacity="1" stroke-width="3.6"/>
<circle clip-path="url(#clip782)" cx="762.959" cy="1236.23" r="14.4" fill="#ee6677" fill-rule="evenodd" fill-opacity="1" stroke="#000000" stroke-opacity="1" stroke-width="3.6"/>
<circle clip-path="url(#clip782)" cx="787.279" cy="1242.49" r="14.4" fill="#ee6677" fill-rule="evenodd" fill-opacity="1" stroke="#000000" stroke-opacity="1" stroke-width="3.6"/>
<circle clip-path="url(#clip782)" cx="811.599" cy="1248.62" r="14.4" fill="#ee6677" fill-rule="evenodd" fill-opacity="1" stroke="#000000" stroke-opacity="1" stroke-width="3.6"/>
<circle clip-path="url(#clip782)" cx="835.919" cy="1254.63" r="14.4" fill="#ee6677" fill-rule="evenodd" fill-opacity="1" stroke="#000000" stroke-opacity="1" stroke-width="3.6"/>
<circle clip-path="url(#clip782)" cx="860.239" cy="1260.5" r="14.4" fill="#ee6677" fill-rule="evenodd" fill-opacity="1" stroke="#000000" stroke-opacity="1" stroke-width="3.6"/>
<circle clip-path="url(#clip782)" cx="884.559" cy="1266.23" r="14.4" fill="#ee6677" fill-rule="evenodd" fill-opacity="1" stroke="#000000" stroke-opacity="1" stroke-width="3.6"/>
<circle clip-path="url(#clip782)" cx="908.879" cy="1271.8" r="14.4" fill="#ee6677" fill-rule="evenodd" fill-opacity="1" stroke="#000000" stroke-opacity="1" stroke-width="3.6"/>
<circle clip-path="url(#clip782)" cx="933.199" cy="1277.28" r="14.4" fill="#ee6677" fill-rule="evenodd" fill-opacity="1" stroke="#000000" stroke-opacity="1" stroke-width="3.6"/>
<circle clip-path="url(#clip782)" cx="957.519" cy="1282.62" r="14.4" fill="#ee6677" fill-rule="evenodd" fill-opacity="1" stroke="#000000" stroke-opacity="1" stroke-width="3.6"/>
<circle clip-path="url(#clip782)" cx="981.839" cy="1287.8" r="14.4" fill="#ee6677" fill-rule="evenodd" fill-opacity="1" stroke="#000000" stroke-opacity="1" stroke-width="3.6"/>
<circle clip-path="url(#clip782)" cx="1006.16" cy="1292.84" r="14.4" fill="#ee6677" fill-rule="evenodd" fill-opacity="1" stroke="#000000" stroke-opacity="1" stroke-width="3.6"/>
<circle clip-path="url(#clip782)" cx="1030.48" cy="1297.9" r="14.4" fill="#ee6677" fill-rule="evenodd" fill-opacity="1" stroke="#000000" stroke-opacity="1" stroke-width="3.6"/>
<circle clip-path="url(#clip782)" cx="1054.8" cy="1302.69" r="14.4" fill="#ee6677" fill-rule="evenodd" fill-opacity="1" stroke="#000000" stroke-opacity="1" stroke-width="3.6"/>
<circle clip-path="url(#clip782)" cx="1079.12" cy="1307.49" r="14.4" fill="#ee6677" fill-rule="evenodd" fill-opacity="1" stroke="#000000" stroke-opacity="1" stroke-width="3.6"/>
<circle clip-path="url(#clip782)" cx="1103.44" cy="1312.21" r="14.4" fill="#ee6677" fill-rule="evenodd" fill-opacity="1" stroke="#000000" stroke-opacity="1" stroke-width="3.6"/>
<circle clip-path="url(#clip782)" cx="1127.76" cy="1316.75" r="14.4" fill="#ee6677" fill-rule="evenodd" fill-opacity="1" stroke="#000000" stroke-opacity="1" stroke-width="3.6"/>
<circle clip-path="url(#clip782)" cx="1152.08" cy="1321.27" r="14.4" fill="#ee6677" fill-rule="evenodd" fill-opacity="1" stroke="#000000" stroke-opacity="1" stroke-width="3.6"/>
<circle clip-path="url(#clip782)" cx="1176.4" cy="1325.66" r="14.4" fill="#ee6677" fill-rule="evenodd" fill-opacity="1" stroke="#000000" stroke-opacity="1" stroke-width="3.6"/>
<circle clip-path="url(#clip782)" cx="1200.72" cy="1329.95" r="14.4" fill="#ee6677" fill-rule="evenodd" fill-opacity="1" stroke="#000000" stroke-opacity="1" stroke-width="3.6"/>
<circle clip-path="url(#clip782)" cx="1225.04" cy="1334.13" r="14.4" fill="#ee6677" fill-rule="evenodd" fill-opacity="1" stroke="#000000" stroke-opacity="1" stroke-width="3.6"/>
<circle clip-path="url(#clip782)" cx="1249.36" cy="1338.23" r="14.4" fill="#ee6677" fill-rule="evenodd" fill-opacity="1" stroke="#000000" stroke-opacity="1" stroke-width="3.6"/>
<circle clip-path="url(#clip782)" cx="1273.68" cy="1342.36" r="14.4" fill="#ee6677" fill-rule="evenodd" fill-opacity="1" stroke="#000000" stroke-opacity="1" stroke-width="3.6"/>
<circle clip-path="url(#clip782)" cx="1298" cy="1346.37" r="14.4" fill="#ee6677" fill-rule="evenodd" fill-opacity="1" stroke="#000000" stroke-opacity="1" stroke-width="3.6"/>
<circle clip-path="url(#clip782)" cx="1322.32" cy="1350.29" r="14.4" fill="#ee6677" fill-rule="evenodd" fill-opacity="1" stroke="#000000" stroke-opacity="1" stroke-width="3.6"/>
<circle clip-path="url(#clip782)" cx="1346.64" cy="1354.05" r="14.4" fill="#ee6677" fill-rule="evenodd" fill-opacity="1" stroke="#000000" stroke-opacity="1" stroke-width="3.6"/>
<circle clip-path="url(#clip782)" cx="1370.96" cy="1357.76" r="14.4" fill="#ee6677" fill-rule="evenodd" fill-opacity="1" stroke="#000000" stroke-opacity="1" stroke-width="3.6"/>
<circle clip-path="url(#clip782)" cx="1395.28" cy="1361.47" r="14.4" fill="#ee6677" fill-rule="evenodd" fill-opacity="1" stroke="#000000" stroke-opacity="1" stroke-width="3.6"/>
<circle clip-path="url(#clip782)" cx="1419.6" cy="1365.16" r="14.4" fill="#ee6677" fill-rule="evenodd" fill-opacity="1" stroke="#000000" stroke-opacity="1" stroke-width="3.6"/>
<circle clip-path="url(#clip782)" cx="1443.92" cy="1368.69" r="14.4" fill="#ee6677" fill-rule="evenodd" fill-opacity="1" stroke="#000000" stroke-opacity="1" stroke-width="3.6"/>
<circle clip-path="url(#clip782)" cx="1468.24" cy="1372.1" r="14.4" fill="#ee6677" fill-rule="evenodd" fill-opacity="1" stroke="#000000" stroke-opacity="1" stroke-width="3.6"/>
<circle clip-path="url(#clip782)" cx="1492.56" cy="1375.59" r="14.4" fill="#ee6677" fill-rule="evenodd" fill-opacity="1" stroke="#000000" stroke-opacity="1" stroke-width="3.6"/>
<circle clip-path="url(#clip782)" cx="1516.88" cy="1378.99" r="14.4" fill="#ee6677" fill-rule="evenodd" fill-opacity="1" stroke="#000000" stroke-opacity="1" stroke-width="3.6"/>
<circle clip-path="url(#clip782)" cx="1541.2" cy="1382.39" r="14.4" fill="#ee6677" fill-rule="evenodd" fill-opacity="1" stroke="#000000" stroke-opacity="1" stroke-width="3.6"/>
<circle clip-path="url(#clip782)" cx="1565.52" cy="1385.66" r="14.4" fill="#ee6677" fill-rule="evenodd" fill-opacity="1" stroke="#000000" stroke-opacity="1" stroke-width="3.6"/>
<circle clip-path="url(#clip782)" cx="1589.84" cy="1388.91" r="14.4" fill="#ee6677" fill-rule="evenodd" fill-opacity="1" stroke="#000000" stroke-opacity="1" stroke-width="3.6"/>
<circle clip-path="url(#clip782)" cx="1614.16" cy="1392.02" r="14.4" fill="#ee6677" fill-rule="evenodd" fill-opacity="1" stroke="#000000" stroke-opacity="1" stroke-width="3.6"/>
<circle clip-path="url(#clip782)" cx="1638.48" cy="1395.22" r="14.4" fill="#ee6677" fill-rule="evenodd" fill-opacity="1" stroke="#000000" stroke-opacity="1" stroke-width="3.6"/>
<circle clip-path="url(#clip782)" cx="1662.8" cy="1398.31" r="14.4" fill="#ee6677" fill-rule="evenodd" fill-opacity="1" stroke="#000000" stroke-opacity="1" stroke-width="3.6"/>
<circle clip-path="url(#clip782)" cx="1687.12" cy="1401.3" r="14.4" fill="#ee6677" fill-rule="evenodd" fill-opacity="1" stroke="#000000" stroke-opacity="1" stroke-width="3.6"/>
<circle clip-path="url(#clip782)" cx="1711.44" cy="1404.33" r="14.4" fill="#ee6677" fill-rule="evenodd" fill-opacity="1" stroke="#000000" stroke-opacity="1" stroke-width="3.6"/>
<circle clip-path="url(#clip782)" cx="1735.76" cy="1407.26" r="14.4" fill="#ee6677" fill-rule="evenodd" fill-opacity="1" stroke="#000000" stroke-opacity="1" stroke-width="3.6"/>
<circle clip-path="url(#clip782)" cx="1760.08" cy="1410.19" r="14.4" fill="#ee6677" fill-rule="evenodd" fill-opacity="1" stroke="#000000" stroke-opacity="1" stroke-width="3.6"/>
<circle clip-path="url(#clip782)" cx="1784.4" cy="1413.05" r="14.4" fill="#ee6677" fill-rule="evenodd" fill-opacity="1" stroke="#000000" stroke-opacity="1" stroke-width="3.6"/>
<circle clip-path="url(#clip782)" cx="1808.72" cy="1415.83" r="14.4" fill="#ee6677" fill-rule="evenodd" fill-opacity="1" stroke="#000000" stroke-opacity="1" stroke-width="3.6"/>
<circle clip-path="url(#clip782)" cx="1833.04" cy="1418.71" r="14.4" fill="#ee6677" fill-rule="evenodd" fill-opacity="1" stroke="#000000" stroke-opacity="1" stroke-width="3.6"/>
<circle clip-path="url(#clip782)" cx="1857.36" cy="1421.4" r="14.4" fill="#ee6677" fill-rule="evenodd" fill-opacity="1" stroke="#000000" stroke-opacity="1" stroke-width="3.6"/>
<circle clip-path="url(#clip782)" cx="1881.68" cy="1424.03" r="14.4" fill="#ee6677" fill-rule="evenodd" fill-opacity="1" stroke="#000000" stroke-opacity="1" stroke-width="3.6"/>
<circle clip-path="url(#clip782)" cx="1906" cy="1426.74" r="14.4" fill="#ee6677" fill-rule="evenodd" fill-opacity="1" stroke="#000000" stroke-opacity="1" stroke-width="3.6"/>
<circle clip-path="url(#clip782)" cx="1930.32" cy="1429.37" r="14.4" fill="#ee6677" fill-rule="evenodd" fill-opacity="1" stroke="#000000" stroke-opacity="1" stroke-width="3.6"/>
<circle clip-path="url(#clip782)" cx="1954.64" cy="1431.94" r="14.4" fill="#ee6677" fill-rule="evenodd" fill-opacity="1" stroke="#000000" stroke-opacity="1" stroke-width="3.6"/>
<circle clip-path="url(#clip782)" cx="1978.96" cy="1434.44" r="14.4" fill="#ee6677" fill-rule="evenodd" fill-opacity="1" stroke="#000000" stroke-opacity="1" stroke-width="3.6"/>
<circle clip-path="url(#clip782)" cx="2003.28" cy="1437.03" r="14.4" fill="#ee6677" fill-rule="evenodd" fill-opacity="1" stroke="#000000" stroke-opacity="1" stroke-width="3.6"/>
<circle clip-path="url(#clip782)" cx="2027.6" cy="1439.45" r="14.4" fill="#ee6677" fill-rule="evenodd" fill-opacity="1" stroke="#000000" stroke-opacity="1" stroke-width="3.6"/>
<circle clip-path="url(#clip782)" cx="2051.92" cy="1441.97" r="14.4" fill="#ee6677" fill-rule="evenodd" fill-opacity="1" stroke="#000000" stroke-opacity="1" stroke-width="3.6"/>
<circle clip-path="url(#clip782)" cx="2076.24" cy="1444.38" r="14.4" fill="#ee6677" fill-rule="evenodd" fill-opacity="1" stroke="#000000" stroke-opacity="1" stroke-width="3.6"/>
<circle clip-path="url(#clip782)" cx="2100.56" cy="1446.69" r="14.4" fill="#ee6677" fill-rule="evenodd" fill-opacity="1" stroke="#000000" stroke-opacity="1" stroke-width="3.6"/>
<circle clip-path="url(#clip782)" cx="2124.88" cy="1449.2" r="14.4" fill="#ee6677" fill-rule="evenodd" fill-opacity="1" stroke="#000000" stroke-opacity="1" stroke-width="3.6"/>
<circle clip-path="url(#clip782)" cx="2149.2" cy="1451.49" r="14.4" fill="#ee6677" fill-rule="evenodd" fill-opacity="1" stroke="#000000" stroke-opacity="1" stroke-width="3.6"/>
<circle clip-path="url(#clip782)" cx="2173.52" cy="1453.86" r="14.4" fill="#ee6677" fill-rule="evenodd" fill-opacity="1" stroke="#000000" stroke-opacity="1" stroke-width="3.6"/>
<circle clip-path="url(#clip782)" cx="2197.84" cy="1456.18" r="14.4" fill="#ee6677" fill-rule="evenodd" fill-opacity="1" stroke="#000000" stroke-opacity="1" stroke-width="3.6"/>
<circle clip-path="url(#clip782)" cx="2222.16" cy="1458.57" r="14.4" fill="#ee6677" fill-rule="evenodd" fill-opacity="1" stroke="#000000" stroke-opacity="1" stroke-width="3.6"/>
<circle clip-path="url(#clip782)" cx="2246.48" cy="1460.86" r="14.4" fill="#ee6677" fill-rule="evenodd" fill-opacity="1" stroke="#000000" stroke-opacity="1" stroke-width="3.6"/>
<circle clip-path="url(#clip782)" cx="2270.8" cy="1463.01" r="14.4" fill="#ee6677" fill-rule="evenodd" fill-opacity="1" stroke="#000000" stroke-opacity="1" stroke-width="3.6"/>
<circle clip-path="url(#clip782)" cx="2295.12" cy="1465.22" r="14.4" fill="#ee6677" fill-rule="evenodd" fill-opacity="1" stroke="#000000" stroke-opacity="1" stroke-width="3.6"/>
<path clip-path="url(#clip780)" d="M1622.4 445.807 L2284.87 445.807 L2284.87 95.8868 L1622.4 95.8868  Z" fill="#ffffff" fill-rule="evenodd" fill-opacity="1"/>
<polyline clip-path="url(#clip780)" style="stroke:#000000; stroke-linecap:round; stroke-linejoin:round; stroke-width:4; stroke-opacity:1; fill:none" points="1622.4,445.807 2284.87,445.807 2284.87,95.8868 1622.4,95.8868 1622.4,445.807 "/>
<polyline clip-path="url(#clip780)" style="stroke:#4477aa; stroke-linecap:round; stroke-linejoin:round; stroke-width:18; stroke-opacity:1; fill:none" points="1645.03,212.527 1780.8,212.527 "/>
<circle clip-path="url(#clip780)" cx="1712.91" cy="212.527" r="8.38088" fill="#4477aa" fill-rule="evenodd" fill-opacity="1" stroke="#000000" stroke-opacity="1" stroke-width="8.38088"/>
<path clip-path="url(#clip780)" d="M1829.52 242.867 L1830.9 251.301 Q1826.87 252.149 1823.69 252.149 Q1818.49 252.149 1815.63 250.505 Q1812.76 248.861 1811.6 246.209 Q1810.43 243.503 1810.43 234.911 L1810.43 202.502 L1803.43 202.502 L1803.43 195.076 L1810.43 195.076 L1810.43 181.126 L1819.92 175.397 L1819.92 195.076 L1829.52 195.076 L1829.52 202.502 L1819.92 202.502 L1819.92 235.441 Q1819.92 239.525 1820.4 240.692 Q1820.93 241.859 1822.04 242.549 Q1823.21 243.238 1825.33 243.238 Q1826.92 243.238 1829.52 242.867 Z" fill="#000000" fill-rule="nonzero" fill-opacity="1" /><path clip-path="url(#clip780)" d="M1838.75 251.407 L1838.75 195.076 L1847.35 195.076 L1847.35 203.616 Q1850.63 197.622 1853.39 195.712 Q1856.2 193.803 1859.55 193.803 Q1864.37 193.803 1869.36 196.879 L1866.07 205.737 Q1862.57 203.669 1859.07 203.669 Q1855.94 203.669 1853.45 205.578 Q1850.95 207.435 1849.89 210.776 Q1848.3 215.868 1848.3 221.915 L1848.3 251.407 L1838.75 251.407 Z" fill="#000000" fill-rule="nonzero" fill-opacity="1" /><path clip-path="url(#clip780)" d="M1911.79 244.458 Q1906.49 248.967 1901.55 250.823 Q1896.67 252.68 1891.05 252.68 Q1881.77 252.68 1876.78 248.171 Q1871.8 243.61 1871.8 236.555 Q1871.8 232.418 1873.65 229.023 Q1875.56 225.575 1878.59 223.507 Q1881.66 221.438 1885.48 220.377 Q1888.29 219.634 1893.97 218.945 Q1905.53 217.566 1911 215.656 Q1911.05 213.694 1911.05 213.163 Q1911.05 207.329 1908.34 204.942 Q1904.68 201.706 1897.47 201.706 Q1890.73 201.706 1887.5 204.093 Q1884.32 206.427 1882.78 212.421 L1873.44 211.148 Q1874.72 205.154 1877.63 201.494 Q1880.55 197.781 1886.07 195.818 Q1891.58 193.803 1898.85 193.803 Q1906.06 193.803 1910.57 195.5 Q1915.08 197.198 1917.2 199.797 Q1919.32 202.343 1920.17 206.268 Q1920.65 208.708 1920.65 215.073 L1920.65 227.803 Q1920.65 241.117 1921.23 244.67 Q1921.87 248.171 1923.67 251.407 L1913.7 251.407 Q1912.22 248.436 1911.79 244.458 M1911 223.135 Q1905.8 225.257 1895.4 226.742 Q1889.51 227.591 1887.07 228.652 Q1884.63 229.712 1883.31 231.781 Q1881.98 233.797 1881.98 236.29 Q1881.98 240.109 1884.85 242.655 Q1887.76 245.201 1893.33 245.201 Q1898.85 245.201 1903.15 242.814 Q1907.44 240.374 1909.46 236.184 Q1911 232.948 1911 226.636 L1911 223.135 Z" fill="#000000" fill-rule="nonzero" fill-opacity="1" /><path clip-path="url(#clip780)" d="M1935.5 184.627 L1935.5 173.647 L1945.05 173.647 L1945.05 184.627 L1935.5 184.627 M1935.5 251.407 L1935.5 195.076 L1945.05 195.076 L1945.05 251.407 L1935.5 251.407 Z" fill="#000000" fill-rule="nonzero" fill-opacity="1" /><path clip-path="url(#clip780)" d="M1959.58 251.407 L1959.58 195.076 L1968.18 195.076 L1968.18 203.085 Q1974.38 193.803 1986.1 193.803 Q1991.2 193.803 1995.44 195.659 Q1999.74 197.463 2001.86 200.433 Q2003.98 203.403 2004.83 207.488 Q2005.36 210.14 2005.36 216.77 L2005.36 251.407 L1995.81 251.407 L1995.81 217.141 Q1995.81 211.307 1994.7 208.442 Q1993.58 205.525 1990.72 203.828 Q1987.91 202.077 1984.09 202.077 Q1977.99 202.077 1973.53 205.95 Q1969.13 209.822 1969.13 220.642 L1969.13 251.407 L1959.58 251.407 Z" fill="#000000" fill-rule="nonzero" fill-opacity="1" /><path clip-path="url(#clip780)" d="M2011.19 272.995 L2011.19 266.099 L2074.47 266.099 L2074.47 272.995 L2011.19 272.995 Z" fill="#000000" fill-rule="nonzero" fill-opacity="1" /><path clip-path="url(#clip780)" d="M2080.2 251.407 L2080.2 173.647 L2089.75 173.647 L2089.75 251.407 L2080.2 251.407 Z" fill="#000000" fill-rule="nonzero" fill-opacity="1" /><path clip-path="url(#clip780)" d="M2100.99 223.241 Q2100.99 207.594 2109.69 200.062 Q2116.96 193.803 2127.41 193.803 Q2139.03 193.803 2146.4 201.441 Q2153.77 209.026 2153.77 222.446 Q2153.77 233.319 2150.48 239.578 Q2147.25 245.784 2140.99 249.232 Q2134.78 252.68 2127.41 252.68 Q2115.58 252.68 2108.26 245.095 Q2100.99 237.51 2100.99 223.241 M2110.81 223.241 Q2110.81 234.062 2115.53 239.472 Q2120.25 244.83 2127.41 244.83 Q2134.52 244.83 2139.24 239.419 Q2143.96 234.009 2143.96 222.923 Q2143.96 212.474 2139.18 207.116 Q2134.46 201.706 2127.41 201.706 Q2120.25 201.706 2115.53 207.063 Q2110.81 212.421 2110.81 223.241 Z" fill="#000000" fill-rule="nonzero" fill-opacity="1" /><path clip-path="url(#clip780)" d="M2161.14 234.592 L2170.59 233.107 Q2171.38 238.783 2174.99 241.806 Q2178.65 244.83 2185.17 244.83 Q2191.75 244.83 2194.93 242.177 Q2198.11 239.472 2198.11 235.865 Q2198.11 232.63 2195.3 230.773 Q2193.34 229.5 2185.54 227.538 Q2175.04 224.886 2170.96 222.976 Q2166.93 221.014 2164.8 217.619 Q2162.74 214.171 2162.74 210.034 Q2162.74 206.268 2164.43 203.085 Q2166.18 199.85 2169.15 197.728 Q2171.38 196.084 2175.2 194.97 Q2179.07 193.803 2183.47 193.803 Q2190.1 193.803 2195.09 195.712 Q2200.13 197.622 2202.52 200.91 Q2204.9 204.146 2205.81 209.609 L2196.47 210.882 Q2195.83 206.533 2192.76 204.093 Q2189.73 201.653 2184.16 201.653 Q2177.59 201.653 2174.78 203.828 Q2171.96 206.003 2171.96 208.92 Q2171.96 210.776 2173.13 212.262 Q2174.3 213.8 2176.79 214.808 Q2178.22 215.338 2185.22 217.248 Q2195.36 219.953 2199.33 221.703 Q2203.37 223.4 2205.65 226.689 Q2207.93 229.978 2207.93 234.858 Q2207.93 239.631 2205.12 243.875 Q2202.36 248.065 2197.11 250.399 Q2191.86 252.68 2185.22 252.68 Q2174.25 252.68 2168.46 248.118 Q2162.74 243.556 2161.14 234.592 Z" fill="#000000" fill-rule="nonzero" fill-opacity="1" /><path clip-path="url(#clip780)" d="M2215.46 234.592 L2224.9 233.107 Q2225.7 238.783 2229.3 241.806 Q2232.96 244.83 2239.49 244.83 Q2246.06 244.83 2249.25 242.177 Q2252.43 239.472 2252.43 235.865 Q2252.43 232.63 2249.62 230.773 Q2247.66 229.5 2239.86 227.538 Q2229.36 224.886 2225.27 222.976 Q2221.24 221.014 2219.12 217.619 Q2217.05 214.171 2217.05 210.034 Q2217.05 206.268 2218.75 203.085 Q2220.5 199.85 2223.47 197.728 Q2225.7 196.084 2229.52 194.97 Q2233.39 193.803 2237.79 193.803 Q2244.42 193.803 2249.41 195.712 Q2254.45 197.622 2256.83 200.91 Q2259.22 204.146 2260.12 209.609 L2250.79 210.882 Q2250.15 206.533 2247.07 204.093 Q2244.05 201.653 2238.48 201.653 Q2231.9 201.653 2229.09 203.828 Q2226.28 206.003 2226.28 208.92 Q2226.28 210.776 2227.45 212.262 Q2228.61 213.8 2231.11 214.808 Q2232.54 215.338 2239.54 217.248 Q2249.67 219.953 2253.65 221.703 Q2257.68 223.4 2259.96 226.689 Q2262.24 229.978 2262.24 234.858 Q2262.24 239.631 2259.43 243.875 Q2256.67 248.065 2251.42 250.399 Q2246.17 252.68 2239.54 252.68 Q2228.56 252.68 2222.78 248.118 Q2217.05 243.556 2215.46 234.592 Z" fill="#000000" fill-rule="nonzero" fill-opacity="1" /><polyline clip-path="url(#clip780)" style="stroke:#ee6677; stroke-linecap:round; stroke-linejoin:round; stroke-width:18; stroke-opacity:1; fill:none" points="1645.03,329.167 1780.8,329.167 "/>
<circle clip-path="url(#clip780)" cx="1712.91" cy="329.167" r="8.38088" fill="#ee6677" fill-rule="evenodd" fill-opacity="1" stroke="#000000" stroke-opacity="1" stroke-width="8.38088"/>
<path clip-path="url(#clip780)" d="M1824.86 368.047 L1803.43 311.716 L1813.5 311.716 L1825.6 345.451 Q1827.56 350.914 1829.21 356.802 Q1830.48 352.346 1832.76 346.087 L1845.28 311.716 L1855.09 311.716 L1833.77 368.047 L1824.86 368.047 Z" fill="#000000" fill-rule="nonzero" fill-opacity="1" /><path clip-path="url(#clip780)" d="M1900.28 361.098 Q1894.98 365.607 1890.04 367.463 Q1885.16 369.32 1879.54 369.32 Q1870.26 369.32 1865.27 364.811 Q1860.29 360.25 1860.29 353.195 Q1860.29 349.058 1862.14 345.663 Q1864.05 342.215 1867.08 340.147 Q1870.15 338.078 1873.97 337.017 Q1876.78 336.274 1882.46 335.585 Q1894.02 334.206 1899.49 332.296 Q1899.54 330.334 1899.54 329.803 Q1899.54 323.969 1896.83 321.582 Q1893.17 318.346 1885.96 318.346 Q1879.22 318.346 1875.99 320.733 Q1872.81 323.067 1871.27 329.061 L1861.93 327.788 Q1863.21 321.794 1866.12 318.134 Q1869.04 314.421 1874.56 312.458 Q1880.07 310.443 1887.34 310.443 Q1894.55 310.443 1899.06 312.14 Q1903.57 313.838 1905.69 316.437 Q1907.81 318.983 1908.66 322.908 Q1909.14 325.348 1909.14 331.713 L1909.14 344.443 Q1909.14 357.757 1909.72 361.31 Q1910.36 364.811 1912.16 368.047 L1902.19 368.047 Q1900.71 365.076 1900.28 361.098 M1899.49 339.775 Q1894.29 341.897 1883.89 343.382 Q1878 344.231 1875.56 345.292 Q1873.12 346.352 1871.8 348.421 Q1870.47 350.437 1870.47 352.93 Q1870.47 356.749 1873.34 359.295 Q1876.25 361.841 1881.82 361.841 Q1887.34 361.841 1891.64 359.454 Q1895.93 357.014 1897.95 352.824 Q1899.49 349.588 1899.49 343.276 L1899.49 339.775 Z" fill="#000000" fill-rule="nonzero" fill-opacity="1" /><path clip-path="url(#clip780)" d="M1923.73 368.047 L1923.73 290.287 L1933.27 290.287 L1933.27 368.047 L1923.73 368.047 Z" fill="#000000" fill-rule="nonzero" fill-opacity="1" /><path clip-path="url(#clip780)" d="M1939.27 389.635 L1939.27 382.739 L2002.55 382.739 L2002.55 389.635 L1939.27 389.635 Z" fill="#000000" fill-rule="nonzero" fill-opacity="1" /><path clip-path="url(#clip780)" d="M2008.28 368.047 L2008.28 290.287 L2017.82 290.287 L2017.82 368.047 L2008.28 368.047 Z" fill="#000000" fill-rule="nonzero" fill-opacity="1" /><path clip-path="url(#clip780)" d="M2029.07 339.881 Q2029.07 324.234 2037.77 316.702 Q2045.03 310.443 2055.48 310.443 Q2067.1 310.443 2074.47 318.081 Q2081.85 325.666 2081.85 339.086 Q2081.85 349.959 2078.56 356.218 Q2075.32 362.424 2069.06 365.872 Q2062.86 369.32 2055.48 369.32 Q2043.66 369.32 2036.34 361.735 Q2029.07 354.15 2029.07 339.881 M2038.88 339.881 Q2038.88 350.702 2043.6 356.112 Q2048.32 361.47 2055.48 361.47 Q2062.59 361.47 2067.31 356.059 Q2072.03 350.649 2072.03 339.563 Q2072.03 329.114 2067.26 323.756 Q2062.54 318.346 2055.48 318.346 Q2048.32 318.346 2043.6 323.703 Q2038.88 329.061 2038.88 339.881 Z" fill="#000000" fill-rule="nonzero" fill-opacity="1" /><path clip-path="url(#clip780)" d="M2089.22 351.232 L2098.66 349.747 Q2099.46 355.423 2103.06 358.446 Q2106.72 361.47 2113.25 361.47 Q2119.82 361.47 2123.01 358.817 Q2126.19 356.112 2126.19 352.505 Q2126.19 349.27 2123.38 347.413 Q2121.42 346.14 2113.62 344.178 Q2103.12 341.526 2099.03 339.616 Q2095 337.654 2092.88 334.259 Q2090.81 330.811 2090.81 326.674 Q2090.81 322.908 2092.51 319.725 Q2094.26 316.49 2097.23 314.368 Q2099.46 312.724 2103.27 311.61 Q2107.15 310.443 2111.55 310.443 Q2118.18 310.443 2123.17 312.352 Q2128.2 314.262 2130.59 317.55 Q2132.98 320.786 2133.88 326.249 L2124.54 327.522 Q2123.91 323.173 2120.83 320.733 Q2117.81 318.293 2112.24 318.293 Q2105.66 318.293 2102.85 320.468 Q2100.04 322.643 2100.04 325.56 Q2100.04 327.416 2101.21 328.902 Q2102.37 330.44 2104.87 331.448 Q2106.3 331.978 2113.3 333.888 Q2123.43 336.593 2127.41 338.343 Q2131.44 340.04 2133.72 343.329 Q2136 346.618 2136 351.498 Q2136 356.271 2133.19 360.515 Q2130.43 364.705 2125.18 367.039 Q2119.93 369.32 2113.3 369.32 Q2102.32 369.32 2096.54 364.758 Q2090.81 360.196 2089.22 351.232 Z" fill="#000000" fill-rule="nonzero" fill-opacity="1" /><path clip-path="url(#clip780)" d="M2143.53 351.232 L2152.98 349.747 Q2153.77 355.423 2157.38 358.446 Q2161.04 361.47 2167.56 361.47 Q2174.14 361.47 2177.32 358.817 Q2180.5 356.112 2180.5 352.505 Q2180.5 349.27 2177.69 347.413 Q2175.73 346.14 2167.93 344.178 Q2157.43 341.526 2153.35 339.616 Q2149.32 337.654 2147.19 334.259 Q2145.12 330.811 2145.12 326.674 Q2145.12 322.908 2146.82 319.725 Q2148.57 316.49 2151.54 314.368 Q2153.77 312.724 2157.59 311.61 Q2161.46 310.443 2165.86 310.443 Q2172.49 310.443 2177.48 312.352 Q2182.52 314.262 2184.91 317.55 Q2187.29 320.786 2188.2 326.249 L2178.86 327.522 Q2178.22 323.173 2175.15 320.733 Q2172.12 318.293 2166.55 318.293 Q2159.98 318.293 2157.17 320.468 Q2154.35 322.643 2154.35 325.56 Q2154.35 327.416 2155.52 328.902 Q2156.69 330.44 2159.18 331.448 Q2160.61 331.978 2167.61 333.888 Q2177.75 336.593 2181.72 338.343 Q2185.76 340.04 2188.04 343.329 Q2190.32 346.618 2190.32 351.498 Q2190.32 356.271 2187.51 360.515 Q2184.75 364.705 2179.5 367.039 Q2174.25 369.32 2167.61 369.32 Q2156.64 369.32 2150.85 364.758 Q2145.12 360.196 2143.53 351.232 Z" fill="#000000" fill-rule="nonzero" fill-opacity="1" /></svg>
