<?xml version="1.0" encoding="utf-8"?>
<svg xmlns="http://www.w3.org/2000/svg" xmlns:xlink="http://www.w3.org/1999/xlink" width="600" height="450" viewBox="0 0 2400 1800">
<defs>
  <clipPath id="clip550">
    <rect x="0" y="0" width="2400" height="1800"/>
  </clipPath>
</defs>
<path clip-path="url(#clip550)" d="M0 1800 L2400 1800 L2400 0 L0 0  Z" fill="#ffffff" fill-rule="evenodd" fill-opacity="1"/>
<defs>
  <clipPath id="clip551">
    <rect x="480" y="0" width="1681" height="1681"/>
  </clipPath>
</defs>
<path clip-path="url(#clip550)" d="M370.281 1506.52 L2352.76 1506.52 L2352.76 47.2441 L370.281 47.2441  Z" fill="#ffffff" fill-rule="evenodd" fill-opacity="1"/>
<defs>
  <clipPath id="clip552">
    <rect x="370" y="47" width="1983" height="1460"/>
  </clipPath>
</defs>
<polyline clip-path="url(#clip552)" style="stroke:#000000; stroke-linecap:round; stroke-linejoin:round; stroke-width:2; stroke-opacity:0.1; fill:none" points="840.913,1506.52 840.913,47.2441 "/>
<polyline clip-path="url(#clip552)" style="stroke:#000000; stroke-linecap:round; stroke-linejoin:round; stroke-width:2; stroke-opacity:0.1; fill:none" points="1343.68,1506.52 1343.68,47.2441 "/>
<polyline clip-path="url(#clip552)" style="stroke:#000000; stroke-linecap:round; stroke-linejoin:round; stroke-width:2; stroke-opacity:0.1; fill:none" points="1846.45,1506.52 1846.45,47.2441 "/>
<polyline clip-path="url(#clip552)" style="stroke:#000000; stroke-linecap:round; stroke-linejoin:round; stroke-width:2; stroke-opacity:0.1; fill:none" points="2349.22,1506.52 2349.22,47.2441 "/>
<polyline clip-path="url(#clip552)" style="stroke:#000000; stroke-linecap:round; stroke-linejoin:round; stroke-width:2; stroke-opacity:0.1; fill:none" points="370.281,1331.83 2352.76,1331.83 "/>
<polyline clip-path="url(#clip552)" style="stroke:#000000; stroke-linecap:round; stroke-linejoin:round; stroke-width:2; stroke-opacity:0.1; fill:none" points="370.281,1147.13 2352.76,1147.13 "/>
<polyline clip-path="url(#clip552)" style="stroke:#000000; stroke-linecap:round; stroke-linejoin:round; stroke-width:2; stroke-opacity:0.1; fill:none" points="370.281,962.432 2352.76,962.432 "/>
<polyline clip-path="url(#clip552)" style="stroke:#000000; stroke-linecap:round; stroke-linejoin:round; stroke-width:2; stroke-opacity:0.1; fill:none" points="370.281,777.733 2352.76,777.733 "/>
<polyline clip-path="url(#clip552)" style="stroke:#000000; stroke-linecap:round; stroke-linejoin:round; stroke-width:2; stroke-opacity:0.1; fill:none" points="370.281,593.033 2352.76,593.033 "/>
<polyline clip-path="url(#clip552)" style="stroke:#000000; stroke-linecap:round; stroke-linejoin:round; stroke-width:2; stroke-opacity:0.1; fill:none" points="370.281,408.334 2352.76,408.334 "/>
<polyline clip-path="url(#clip552)" style="stroke:#000000; stroke-linecap:round; stroke-linejoin:round; stroke-width:2; stroke-opacity:0.1; fill:none" points="370.281,223.634 2352.76,223.634 "/>
<polyline clip-path="url(#clip550)" style="stroke:#000000; stroke-linecap:round; stroke-linejoin:round; stroke-width:4; stroke-opacity:1; fill:none" points="370.281,1506.52 2352.76,1506.52 "/>
<polyline clip-path="url(#clip550)" style="stroke:#000000; stroke-linecap:round; stroke-linejoin:round; stroke-width:2; stroke-opacity:0.5; fill:none" points="370.281,47.2441 2352.76,47.2441 "/>
<polyline clip-path="url(#clip550)" style="stroke:#000000; stroke-linecap:round; stroke-linejoin:round; stroke-width:4; stroke-opacity:1; fill:none" points="840.913,1506.52 840.913,1487.63 "/>
<polyline clip-path="url(#clip550)" style="stroke:#000000; stroke-linecap:round; stroke-linejoin:round; stroke-width:4; stroke-opacity:1; fill:none" points="1343.68,1506.52 1343.68,1487.63 "/>
<polyline clip-path="url(#clip550)" style="stroke:#000000; stroke-linecap:round; stroke-linejoin:round; stroke-width:4; stroke-opacity:1; fill:none" points="1846.45,1506.52 1846.45,1487.63 "/>
<polyline clip-path="url(#clip550)" style="stroke:#000000; stroke-linecap:round; stroke-linejoin:round; stroke-width:4; stroke-opacity:1; fill:none" points="2349.22,1506.52 2349.22,1487.63 "/>
<path clip-path="url(#clip550)" d="M777.733 1578.04 Q777.733 1565.78 780.232 1558.33 Q782.778 1550.83 787.729 1546.78 Q792.727 1542.72 800.27 1542.72 Q805.834 1542.72 810.03 1544.98 Q814.226 1547.2 816.961 1551.44 Q819.696 1555.64 821.252 1561.72 Q822.807 1567.76 822.807 1578.04 Q822.807 1590.2 820.309 1597.7 Q817.81 1605.15 812.812 1609.25 Q807.861 1613.3 800.27 1613.3 Q790.275 1613.3 784.57 1606.14 Q777.733 1597.51 777.733 1578.04 M786.456 1578.04 Q786.456 1595.06 790.416 1600.71 Q794.424 1606.32 800.27 1606.32 Q806.117 1606.32 810.077 1600.67 Q814.085 1595.01 814.085 1578.04 Q814.085 1560.97 810.077 1555.36 Q806.117 1549.75 800.176 1549.75 Q794.33 1549.75 790.841 1554.7 Q786.456 1561.01 786.456 1578.04 Z" fill="#000000" fill-rule="nonzero" fill-opacity="1" /><path clip-path="url(#clip550)" d="M836.198 1612.12 L836.198 1602.46 L845.863 1602.46 L845.863 1612.12 L836.198 1612.12 Z" fill="#000000" fill-rule="nonzero" fill-opacity="1" /><path clip-path="url(#clip550)" d="M858.263 1594.02 L867.174 1593.26 Q868.165 1599.77 871.748 1603.07 Q875.378 1606.32 880.47 1606.32 Q886.6 1606.32 890.843 1601.7 Q895.086 1597.08 895.086 1589.45 Q895.086 1582.18 890.984 1577.99 Q886.93 1573.79 880.329 1573.79 Q876.227 1573.79 872.927 1575.68 Q869.626 1577.52 867.74 1580.49 L859.772 1579.45 L866.467 1543.95 L900.839 1543.95 L900.839 1552.06 L873.257 1552.06 L869.532 1570.63 Q875.755 1566.3 882.592 1566.3 Q891.645 1566.3 897.868 1572.57 Q904.092 1578.84 904.092 1588.69 Q904.092 1598.07 898.623 1604.91 Q891.975 1613.3 880.47 1613.3 Q871.041 1613.3 865.053 1608.02 Q859.112 1602.74 858.263 1594.02 Z" fill="#000000" fill-rule="nonzero" fill-opacity="1" /><path clip-path="url(#clip550)" d="M1309.59 1612.12 L1301.11 1612.12 L1301.11 1558.04 Q1298.04 1560.97 1293.05 1563.89 Q1288.09 1566.81 1284.13 1568.28 L1284.13 1560.07 Q1291.25 1556.72 1296.58 1551.96 Q1301.91 1547.2 1304.13 1542.72 L1309.59 1542.72 L1309.59 1612.12 Z" fill="#000000" fill-rule="nonzero" fill-opacity="1" /><path clip-path="url(#clip550)" d="M1336.09 1612.12 L1336.09 1602.46 L1345.76 1602.46 L1345.76 1612.12 L1336.09 1612.12 Z" fill="#000000" fill-rule="nonzero" fill-opacity="1" /><path clip-path="url(#clip550)" d="M1358.16 1578.04 Q1358.16 1565.78 1360.66 1558.33 Q1363.2 1550.83 1368.15 1546.78 Q1373.15 1542.72 1380.69 1542.72 Q1386.26 1542.72 1390.45 1544.98 Q1394.65 1547.2 1397.39 1551.44 Q1400.12 1555.64 1401.68 1561.72 Q1403.23 1567.76 1403.23 1578.04 Q1403.23 1590.2 1400.73 1597.7 Q1398.23 1605.15 1393.24 1609.25 Q1388.29 1613.3 1380.69 1613.3 Q1370.7 1613.3 1364.99 1606.14 Q1358.16 1597.51 1358.16 1578.04 M1366.88 1578.04 Q1366.88 1595.06 1370.84 1600.71 Q1374.85 1606.32 1380.69 1606.32 Q1386.54 1606.32 1390.5 1600.67 Q1394.51 1595.01 1394.51 1578.04 Q1394.51 1560.97 1390.5 1555.36 Q1386.54 1549.75 1380.6 1549.75 Q1374.75 1549.75 1371.27 1554.7 Q1366.88 1561.01 1366.88 1578.04 Z" fill="#000000" fill-rule="nonzero" fill-opacity="1" /><path clip-path="url(#clip550)" d="M1811.99 1612.12 L1803.5 1612.12 L1803.5 1558.04 Q1800.44 1560.97 1795.44 1563.89 Q1790.49 1566.81 1786.53 1568.28 L1786.53 1560.07 Q1793.65 1556.72 1798.98 1551.96 Q1804.3 1547.2 1806.52 1542.72 L1811.99 1542.72 L1811.99 1612.12 Z" fill="#000000" fill-rule="nonzero" fill-opacity="1" /><path clip-path="url(#clip550)" d="M1838.49 1612.12 L1838.49 1602.46 L1848.15 1602.46 L1848.15 1612.12 L1838.49 1612.12 Z" fill="#000000" fill-rule="nonzero" fill-opacity="1" /><path clip-path="url(#clip550)" d="M1860.55 1594.02 L1869.46 1593.26 Q1870.45 1599.77 1874.04 1603.07 Q1877.67 1606.32 1882.76 1606.32 Q1888.89 1606.32 1893.13 1601.7 Q1897.37 1597.08 1897.37 1589.45 Q1897.37 1582.18 1893.27 1577.99 Q1889.22 1573.79 1882.62 1573.79 Q1878.51 1573.79 1875.21 1575.68 Q1871.91 1577.52 1870.03 1580.49 L1862.06 1579.45 L1868.76 1543.95 L1903.13 1543.95 L1903.13 1552.06 L1875.54 1552.06 L1871.82 1570.63 Q1878.04 1566.3 1884.88 1566.3 Q1893.93 1566.3 1900.16 1572.57 Q1906.38 1578.84 1906.38 1588.69 Q1906.38 1598.07 1900.91 1604.91 Q1894.26 1613.3 1882.76 1613.3 Q1873.33 1613.3 1867.34 1608.02 Q1861.4 1602.74 1860.55 1594.02 Z" fill="#000000" fill-rule="nonzero" fill-opacity="1" /><path clip-path="url(#clip550)" d="M2331.61 1603.97 L2331.61 1612.12 L2285.93 1612.12 Q2285.83 1609.06 2286.92 1606.23 Q2288.66 1601.56 2292.48 1597.04 Q2296.35 1592.51 2303.61 1586.57 Q2314.88 1577.33 2318.84 1571.95 Q2322.8 1566.53 2322.8 1561.72 Q2322.8 1556.68 2319.17 1553.24 Q2315.58 1549.75 2309.78 1549.75 Q2303.66 1549.75 2299.98 1553.42 Q2296.3 1557.1 2296.25 1563.61 L2287.53 1562.71 Q2288.43 1552.95 2294.27 1547.86 Q2300.12 1542.72 2309.97 1542.72 Q2319.92 1542.72 2325.72 1548.24 Q2331.52 1553.75 2331.52 1561.91 Q2331.52 1566.06 2329.82 1570.07 Q2328.13 1574.07 2324.16 1578.51 Q2320.25 1582.94 2311.1 1590.67 Q2303.47 1597.08 2301.3 1599.39 Q2299.13 1601.66 2297.71 1603.97 L2331.61 1603.97 Z" fill="#000000" fill-rule="nonzero" fill-opacity="1" /><path clip-path="url(#clip550)" d="M2345.48 1612.12 L2345.48 1602.46 L2355.14 1602.46 L2355.14 1612.12 L2345.48 1612.12 Z" fill="#000000" fill-rule="nonzero" fill-opacity="1" /><path clip-path="url(#clip550)" d="M2367.54 1578.04 Q2367.54 1565.78 2370.04 1558.33 Q2372.59 1550.83 2377.54 1546.78 Q2382.54 1542.72 2390.08 1542.72 Q2395.64 1542.72 2399.84 1544.98 Q2404.03 1547.2 2406.77 1551.44 Q2409.5 1555.64 2411.06 1561.72 Q2412.62 1567.76 2412.62 1578.04 Q2412.62 1590.2 2410.12 1597.7 Q2407.62 1605.15 2402.62 1609.25 Q2397.67 1613.3 2390.08 1613.3 Q2380.08 1613.3 2374.38 1606.14 Q2367.54 1597.51 2367.54 1578.04 M2376.26 1578.04 Q2376.26 1595.06 2380.22 1600.71 Q2384.23 1606.32 2390.08 1606.32 Q2395.93 1606.32 2399.89 1600.67 Q2403.89 1595.01 2403.89 1578.04 Q2403.89 1560.97 2399.89 1555.36 Q2395.93 1549.75 2389.98 1549.75 Q2384.14 1549.75 2380.65 1554.7 Q2376.26 1561.01 2376.26 1578.04 Z" fill="#000000" fill-rule="nonzero" fill-opacity="1" /><path clip-path="url(#clip550)" d="M1310.72 1700.96 L1310.72 1697.64 Q1319.15 1697.64 1324.53 1691.15 Q1324.53 1691.15 1334.65 1678.3 L1323.95 1664.38 Q1320.15 1659.53 1318.47 1658.69 Q1316.83 1657.8 1311.25 1657.8 L1311.25 1654.42 Q1315.67 1654.74 1321.47 1654.74 Q1324.69 1654.74 1333.17 1654.42 L1333.17 1657.8 Q1329.38 1658.01 1329.38 1660.48 Q1329.38 1661.33 1330.32 1662.43 L1338.76 1673.34 L1345.45 1664.91 Q1347.08 1662.96 1347.08 1661.12 Q1347.08 1658.11 1343.92 1657.8 L1343.92 1654.42 Q1348.14 1654.74 1354.3 1654.74 Q1358.94 1654.74 1363.16 1654.42 L1363.16 1657.8 Q1354.94 1658.01 1350.3 1663.38 Q1348.24 1665.65 1340.39 1675.61 L1354.83 1694.26 Q1356.57 1696.53 1358.52 1697.11 Q1360.47 1697.64 1365.11 1697.64 L1365.11 1700.96 Q1360.26 1700.64 1354.73 1700.64 Q1352.78 1700.64 1343.08 1700.96 L1343.08 1697.64 Q1345.03 1697.53 1345.98 1696.69 Q1346.98 1695.79 1346.98 1694.9 Q1346.98 1694.48 1344.71 1691.37 L1336.49 1680.56 Q1328.27 1690.26 1327.22 1692.53 Q1326.79 1693.47 1326.79 1694.26 Q1326.79 1697.16 1329.9 1697.64 L1329.9 1700.96 Q1322.16 1700.64 1319.68 1700.64 Q1314.94 1700.64 1310.72 1700.96 Z" fill="#000000" fill-rule="nonzero" fill-opacity="1" /><path clip-path="url(#clip550)" d="M1376.1 1687.73 L1376.1 1685.37 Q1385.17 1685.37 1389.86 1680.54 Q1391.15 1680.54 1391.37 1680.83 Q1391.59 1681.13 1391.59 1682.49 L1391.59 1724.88 Q1391.59 1727.13 1392.7 1727.83 Q1393.81 1728.53 1398.64 1728.53 L1401.04 1728.53 L1401.04 1730.86 Q1398.38 1730.63 1388.79 1730.63 Q1379.2 1730.63 1376.58 1730.86 L1376.58 1728.53 L1378.98 1728.53 Q1383.74 1728.53 1384.88 1727.87 Q1386.02 1727.17 1386.02 1724.88 L1386.02 1685.74 Q1382.08 1687.73 1376.1 1687.73 Z" fill="#000000" fill-rule="nonzero" fill-opacity="1" /><polyline clip-path="url(#clip550)" style="stroke:#000000; stroke-linecap:round; stroke-linejoin:round; stroke-width:4; stroke-opacity:1; fill:none" points="370.281,1506.52 370.281,47.2441 "/>
<polyline clip-path="url(#clip550)" style="stroke:#000000; stroke-linecap:round; stroke-linejoin:round; stroke-width:2; stroke-opacity:0.5; fill:none" points="2352.76,1506.52 2352.76,47.2441 "/>
<polyline clip-path="url(#clip550)" style="stroke:#000000; stroke-linecap:round; stroke-linejoin:round; stroke-width:4; stroke-opacity:1; fill:none" points="370.281,1331.83 389.179,1331.83 "/>
<polyline clip-path="url(#clip550)" style="stroke:#000000; stroke-linecap:round; stroke-linejoin:round; stroke-width:4; stroke-opacity:1; fill:none" points="370.281,1147.13 389.179,1147.13 "/>
<polyline clip-path="url(#clip550)" style="stroke:#000000; stroke-linecap:round; stroke-linejoin:round; stroke-width:4; stroke-opacity:1; fill:none" points="370.281,962.432 389.179,962.432 "/>
<polyline clip-path="url(#clip550)" style="stroke:#000000; stroke-linecap:round; stroke-linejoin:round; stroke-width:4; stroke-opacity:1; fill:none" points="370.281,777.733 389.179,777.733 "/>
<polyline clip-path="url(#clip550)" style="stroke:#000000; stroke-linecap:round; stroke-linejoin:round; stroke-width:4; stroke-opacity:1; fill:none" points="370.281,593.033 389.179,593.033 "/>
<polyline clip-path="url(#clip550)" style="stroke:#000000; stroke-linecap:round; stroke-linejoin:round; stroke-width:4; stroke-opacity:1; fill:none" points="370.281,408.334 389.179,408.334 "/>
<polyline clip-path="url(#clip550)" style="stroke:#000000; stroke-linecap:round; stroke-linejoin:round; stroke-width:4; stroke-opacity:1; fill:none" points="370.281,223.634 389.179,223.634 "/>
<path clip-path="url(#clip550)" d="M154.22 1332.3 Q154.22 1320.04 156.719 1312.59 Q159.265 1305.1 164.216 1301.04 Q169.213 1296.99 176.757 1296.99 Q182.321 1296.99 186.517 1299.25 Q190.713 1301.47 193.448 1305.71 Q196.183 1309.91 197.738 1315.99 Q199.294 1322.02 199.294 1332.3 Q199.294 1344.47 196.795 1351.96 Q194.297 1359.41 189.299 1363.52 Q184.348 1367.57 176.757 1367.57 Q166.762 1367.57 161.057 1360.4 Q154.22 1351.78 154.22 1332.3 M162.943 1332.3 Q162.943 1349.32 166.903 1354.98 Q170.911 1360.59 176.757 1360.59 Q182.604 1360.59 186.564 1354.93 Q190.572 1349.28 190.572 1332.3 Q190.572 1315.24 186.564 1309.62 Q182.604 1304.01 176.663 1304.01 Q170.817 1304.01 167.327 1308.96 Q162.943 1315.28 162.943 1332.3 Z" fill="#000000" fill-rule="nonzero" fill-opacity="1" /><path clip-path="url(#clip550)" d="M212.685 1366.39 L212.685 1356.73 L222.35 1356.73 L222.35 1366.39 L212.685 1366.39 Z" fill="#000000" fill-rule="nonzero" fill-opacity="1" /><path clip-path="url(#clip550)" d="M279.353 1358.23 L279.353 1366.39 L233.666 1366.39 Q233.571 1363.33 234.656 1360.5 Q236.4 1355.83 240.219 1351.3 Q244.086 1346.78 251.346 1340.84 Q262.615 1331.6 266.576 1326.22 Q270.536 1320.8 270.536 1315.99 Q270.536 1310.94 266.906 1307.5 Q263.322 1304.01 257.523 1304.01 Q251.394 1304.01 247.716 1307.69 Q244.038 1311.37 243.991 1317.88 L235.269 1316.98 Q236.165 1307.22 242.011 1302.13 Q247.857 1296.99 257.712 1296.99 Q267.66 1296.99 273.459 1302.5 Q279.259 1308.02 279.259 1316.18 Q279.259 1320.33 277.561 1324.33 Q275.864 1328.34 271.903 1332.77 Q267.99 1337.21 258.843 1344.94 Q251.205 1351.35 249.036 1353.66 Q246.867 1355.92 245.453 1358.23 L279.353 1358.23 Z" fill="#000000" fill-rule="nonzero" fill-opacity="1" /><path clip-path="url(#clip550)" d="M288.453 1348.29 L297.364 1347.53 Q298.354 1354.04 301.937 1357.34 Q305.567 1360.59 310.66 1360.59 Q316.789 1360.59 321.032 1355.97 Q325.276 1351.35 325.276 1343.71 Q325.276 1336.45 321.174 1332.26 Q317.119 1328.06 310.518 1328.06 Q306.416 1328.06 303.116 1329.95 Q299.815 1331.78 297.929 1334.75 L289.961 1333.72 L296.656 1298.21 L331.028 1298.21 L331.028 1306.32 L303.446 1306.32 L299.721 1324.9 Q305.945 1320.56 312.781 1320.56 Q321.834 1320.56 328.057 1326.83 Q334.281 1333.1 334.281 1342.96 Q334.281 1352.34 328.812 1359.18 Q322.164 1367.57 310.66 1367.57 Q301.23 1367.57 295.242 1362.29 Q289.301 1357.01 288.453 1348.29 Z" fill="#000000" fill-rule="nonzero" fill-opacity="1" /><path clip-path="url(#clip550)" d="M154.975 1147.6 Q154.975 1135.34 157.473 1127.9 Q160.019 1120.4 164.97 1116.34 Q169.968 1112.29 177.512 1112.29 Q183.075 1112.29 187.271 1114.55 Q191.468 1116.77 194.202 1121.01 Q196.937 1125.21 198.493 1131.29 Q200.049 1137.32 200.049 1147.6 Q200.049 1159.77 197.55 1167.26 Q195.051 1174.71 190.053 1178.82 Q185.103 1182.87 177.512 1182.87 Q167.516 1182.87 161.811 1175.7 Q154.975 1167.08 154.975 1147.6 M163.697 1147.6 Q163.697 1164.62 167.658 1170.28 Q171.665 1175.89 177.512 1175.89 Q183.358 1175.89 187.319 1170.23 Q191.326 1164.58 191.326 1147.6 Q191.326 1130.54 187.319 1124.92 Q183.358 1119.31 177.417 1119.31 Q171.571 1119.31 168.082 1124.26 Q163.697 1130.58 163.697 1147.6 Z" fill="#000000" fill-rule="nonzero" fill-opacity="1" /><path clip-path="url(#clip550)" d="M213.439 1181.69 L213.439 1172.03 L223.104 1172.03 L223.104 1181.69 L213.439 1181.69 Z" fill="#000000" fill-rule="nonzero" fill-opacity="1" /><path clip-path="url(#clip550)" d="M235.505 1163.59 L244.416 1162.83 Q245.406 1169.34 248.989 1172.64 Q252.62 1175.89 257.712 1175.89 Q263.841 1175.89 268.084 1171.27 Q272.328 1166.65 272.328 1159.01 Q272.328 1151.75 268.226 1147.56 Q264.171 1143.36 257.57 1143.36 Q253.468 1143.36 250.168 1145.25 Q246.867 1147.08 244.981 1150.06 L237.013 1149.02 L243.708 1113.51 L278.08 1113.51 L278.08 1121.62 L250.498 1121.62 L246.773 1140.2 Q252.997 1135.86 259.833 1135.86 Q268.886 1135.86 275.109 1142.13 Q281.333 1148.4 281.333 1158.26 Q281.333 1167.64 275.864 1174.48 Q269.216 1182.87 257.712 1182.87 Q248.282 1182.87 242.294 1177.59 Q236.353 1172.31 235.505 1163.59 Z" fill="#000000" fill-rule="nonzero" fill-opacity="1" /><path clip-path="url(#clip550)" d="M289.207 1147.6 Q289.207 1135.34 291.706 1127.9 Q294.252 1120.4 299.202 1116.34 Q304.2 1112.29 311.744 1112.29 Q317.308 1112.29 321.504 1114.55 Q325.7 1116.77 328.435 1121.01 Q331.169 1125.21 332.725 1131.29 Q334.281 1137.32 334.281 1147.6 Q334.281 1159.77 331.782 1167.26 Q329.283 1174.71 324.286 1178.82 Q319.335 1182.87 311.744 1182.87 Q301.748 1182.87 296.043 1175.7 Q289.207 1167.08 289.207 1147.6 M297.929 1147.6 Q297.929 1164.62 301.89 1170.28 Q305.898 1175.89 311.744 1175.89 Q317.59 1175.89 321.551 1170.23 Q325.559 1164.58 325.559 1147.6 Q325.559 1130.54 321.551 1124.92 Q317.59 1119.31 311.65 1119.31 Q305.803 1119.31 302.314 1124.26 Q297.929 1130.58 297.929 1147.6 Z" fill="#000000" fill-rule="nonzero" fill-opacity="1" /><path clip-path="url(#clip550)" d="M154.22 962.904 Q154.22 950.645 156.719 943.196 Q159.265 935.699 164.216 931.644 Q169.213 927.589 176.757 927.589 Q182.321 927.589 186.517 929.853 Q190.713 932.069 193.448 936.312 Q196.183 940.508 197.738 946.59 Q199.294 952.625 199.294 962.904 Q199.294 975.068 196.795 982.565 Q194.297 990.014 189.299 994.116 Q184.348 998.171 176.757 998.171 Q166.762 998.171 161.057 991.004 Q154.22 982.376 154.22 962.904 M162.943 962.904 Q162.943 979.924 166.903 985.582 Q170.911 991.193 176.757 991.193 Q182.604 991.193 186.564 985.535 Q190.572 979.877 190.572 962.904 Q190.572 945.836 186.564 940.225 Q182.604 934.615 176.663 934.615 Q170.817 934.615 167.327 939.565 Q162.943 945.883 162.943 962.904 Z" fill="#000000" fill-rule="nonzero" fill-opacity="1" /><path clip-path="url(#clip550)" d="M212.685 996.992 L212.685 987.327 L222.35 987.327 L222.35 996.992 L212.685 996.992 Z" fill="#000000" fill-rule="nonzero" fill-opacity="1" /><path clip-path="url(#clip550)" d="M235.316 936.925 L235.316 928.768 L280.06 928.768 L280.06 935.369 Q273.459 942.394 266.953 954.04 Q260.493 965.686 256.957 977.991 Q254.411 986.667 253.704 996.992 L244.981 996.992 Q245.123 988.836 248.188 977.284 Q251.252 965.733 256.957 955.03 Q262.709 944.28 269.169 936.925 L235.316 936.925 Z" fill="#000000" fill-rule="nonzero" fill-opacity="1" /><path clip-path="url(#clip550)" d="M288.453 978.887 L297.364 978.133 Q298.354 984.639 301.937 987.94 Q305.567 991.193 310.66 991.193 Q316.789 991.193 321.032 986.572 Q325.276 981.952 325.276 974.314 Q325.276 967.053 321.174 962.857 Q317.119 958.66 310.518 958.66 Q306.416 958.66 303.116 960.546 Q299.815 962.385 297.929 965.356 L289.961 964.318 L296.656 928.815 L331.028 928.815 L331.028 936.925 L303.446 936.925 L299.721 955.501 Q305.945 951.164 312.781 951.164 Q321.834 951.164 328.057 957.435 Q334.281 963.705 334.281 973.559 Q334.281 982.942 328.812 989.779 Q322.164 998.171 310.66 998.171 Q301.23 998.171 295.242 992.89 Q289.301 987.61 288.453 978.887 Z" fill="#000000" fill-rule="nonzero" fill-opacity="1" /><path clip-path="url(#clip550)" d="M186.941 812.293 L178.455 812.293 L178.455 758.213 Q175.39 761.136 170.392 764.06 Q165.442 766.983 161.481 768.445 L161.481 760.241 Q168.601 756.893 173.928 752.131 Q179.256 747.369 181.472 742.89 L186.941 742.89 L186.941 812.293 Z" fill="#000000" fill-rule="nonzero" fill-opacity="1" /><path clip-path="url(#clip550)" d="M213.439 812.293 L213.439 802.627 L223.104 802.627 L223.104 812.293 L213.439 812.293 Z" fill="#000000" fill-rule="nonzero" fill-opacity="1" /><path clip-path="url(#clip550)" d="M235.505 778.204 Q235.505 765.946 238.003 758.496 Q240.549 750.999 245.5 746.945 Q250.498 742.89 258.042 742.89 Q263.605 742.89 267.801 745.153 Q271.998 747.369 274.732 751.612 Q277.467 755.809 279.023 761.891 Q280.579 767.926 280.579 778.204 Q280.579 790.369 278.08 797.865 Q275.581 805.315 270.583 809.417 Q265.633 813.472 258.042 813.472 Q248.046 813.472 242.341 806.305 Q235.505 797.677 235.505 778.204 M244.227 778.204 Q244.227 795.225 248.188 800.883 Q252.195 806.494 258.042 806.494 Q263.888 806.494 267.849 800.836 Q271.856 795.178 271.856 778.204 Q271.856 761.136 267.849 755.526 Q263.888 749.915 257.947 749.915 Q252.101 749.915 248.612 754.866 Q244.227 761.184 244.227 778.204 Z" fill="#000000" fill-rule="nonzero" fill-opacity="1" /><path clip-path="url(#clip550)" d="M289.207 778.204 Q289.207 765.946 291.706 758.496 Q294.252 750.999 299.202 746.945 Q304.2 742.89 311.744 742.89 Q317.308 742.89 321.504 745.153 Q325.7 747.369 328.435 751.612 Q331.169 755.809 332.725 761.891 Q334.281 767.926 334.281 778.204 Q334.281 790.369 331.782 797.865 Q329.283 805.315 324.286 809.417 Q319.335 813.472 311.744 813.472 Q301.748 813.472 296.043 806.305 Q289.207 797.677 289.207 778.204 M297.929 778.204 Q297.929 795.225 301.89 800.883 Q305.898 806.494 311.744 806.494 Q317.59 806.494 321.551 800.836 Q325.559 795.178 325.559 778.204 Q325.559 761.136 321.551 755.526 Q317.59 749.915 311.65 749.915 Q305.803 749.915 302.314 754.866 Q297.929 761.184 297.929 778.204 Z" fill="#000000" fill-rule="nonzero" fill-opacity="1" /><path clip-path="url(#clip550)" d="M186.187 627.593 L177.7 627.593 L177.7 573.514 Q174.636 576.437 169.638 579.36 Q164.687 582.283 160.727 583.745 L160.727 575.541 Q167.846 572.194 173.174 567.432 Q178.502 562.67 180.718 558.19 L186.187 558.19 L186.187 627.593 Z" fill="#000000" fill-rule="nonzero" fill-opacity="1" /><path clip-path="url(#clip550)" d="M212.685 627.593 L212.685 617.928 L222.35 617.928 L222.35 627.593 L212.685 627.593 Z" fill="#000000" fill-rule="nonzero" fill-opacity="1" /><path clip-path="url(#clip550)" d="M279.353 619.437 L279.353 627.593 L233.666 627.593 Q233.571 624.529 234.656 621.7 Q236.4 617.032 240.219 612.506 Q244.086 607.979 251.346 602.039 Q262.615 592.798 266.576 587.423 Q270.536 582 270.536 577.191 Q270.536 572.146 266.906 568.705 Q263.322 565.216 257.523 565.216 Q251.394 565.216 247.716 568.893 Q244.038 572.571 243.991 579.077 L235.269 578.181 Q236.165 568.422 242.011 563.33 Q247.857 558.19 257.712 558.19 Q267.66 558.19 273.459 563.707 Q279.259 569.223 279.259 577.38 Q279.259 581.529 277.561 585.537 Q275.864 589.544 271.903 593.976 Q267.99 598.408 258.843 606.141 Q251.205 612.553 249.036 614.863 Q246.867 617.126 245.453 619.437 L279.353 619.437 Z" fill="#000000" fill-rule="nonzero" fill-opacity="1" /><path clip-path="url(#clip550)" d="M288.453 609.488 L297.364 608.734 Q298.354 615.24 301.937 618.541 Q305.567 621.794 310.66 621.794 Q316.789 621.794 321.032 617.173 Q325.276 612.553 325.276 604.915 Q325.276 597.654 321.174 593.458 Q317.119 589.261 310.518 589.261 Q306.416 589.261 303.116 591.147 Q299.815 592.986 297.929 595.956 L289.961 594.919 L296.656 559.416 L331.028 559.416 L331.028 567.526 L303.446 567.526 L299.721 586.102 Q305.945 581.765 312.781 581.765 Q321.834 581.765 328.057 588.036 Q334.281 594.306 334.281 604.16 Q334.281 613.543 328.812 620.38 Q322.164 628.772 310.66 628.772 Q301.23 628.772 295.242 623.491 Q289.301 618.211 288.453 609.488 Z" fill="#000000" fill-rule="nonzero" fill-opacity="1" /><path clip-path="url(#clip550)" d="M186.941 442.894 L178.455 442.894 L178.455 388.814 Q175.39 391.737 170.392 394.661 Q165.442 397.584 161.481 399.045 L161.481 390.842 Q168.601 387.494 173.928 382.732 Q179.256 377.97 181.472 373.491 L186.941 373.491 L186.941 442.894 Z" fill="#000000" fill-rule="nonzero" fill-opacity="1" /><path clip-path="url(#clip550)" d="M213.439 442.894 L213.439 433.228 L223.104 433.228 L223.104 442.894 L213.439 442.894 Z" fill="#000000" fill-rule="nonzero" fill-opacity="1" /><path clip-path="url(#clip550)" d="M235.505 424.789 L244.416 424.034 Q245.406 430.541 248.989 433.841 Q252.62 437.094 257.712 437.094 Q263.841 437.094 268.084 432.474 Q272.328 427.853 272.328 420.215 Q272.328 412.954 268.226 408.758 Q264.171 404.562 257.57 404.562 Q253.468 404.562 250.168 406.448 Q246.867 408.287 244.981 411.257 L237.013 410.22 L243.708 374.717 L278.08 374.717 L278.08 382.826 L250.498 382.826 L246.773 401.403 Q252.997 397.065 259.833 397.065 Q268.886 397.065 275.109 403.336 Q281.333 409.607 281.333 419.461 Q281.333 428.843 275.864 435.68 Q269.216 444.072 257.712 444.072 Q248.282 444.072 242.294 438.792 Q236.353 433.511 235.505 424.789 Z" fill="#000000" fill-rule="nonzero" fill-opacity="1" /><path clip-path="url(#clip550)" d="M289.207 408.805 Q289.207 396.547 291.706 389.097 Q294.252 381.6 299.202 377.546 Q304.2 373.491 311.744 373.491 Q317.308 373.491 321.504 375.754 Q325.7 377.97 328.435 382.213 Q331.169 386.41 332.725 392.492 Q334.281 398.527 334.281 408.805 Q334.281 420.97 331.782 428.466 Q329.283 435.916 324.286 440.018 Q319.335 444.072 311.744 444.072 Q301.748 444.072 296.043 436.906 Q289.207 428.278 289.207 408.805 M297.929 408.805 Q297.929 425.826 301.89 431.484 Q305.898 437.094 311.744 437.094 Q317.59 437.094 321.551 431.437 Q325.559 425.779 325.559 408.805 Q325.559 391.737 321.551 386.127 Q317.59 380.516 311.65 380.516 Q305.803 380.516 302.314 385.467 Q297.929 391.785 297.929 408.805 Z" fill="#000000" fill-rule="nonzero" fill-opacity="1" /><path clip-path="url(#clip550)" d="M186.187 258.194 L177.7 258.194 L177.7 204.115 Q174.636 207.038 169.638 209.961 Q164.687 212.884 160.727 214.346 L160.727 206.142 Q167.846 202.794 173.174 198.032 Q178.502 193.27 180.718 188.791 L186.187 188.791 L186.187 258.194 Z" fill="#000000" fill-rule="nonzero" fill-opacity="1" /><path clip-path="url(#clip550)" d="M212.685 258.194 L212.685 248.529 L222.35 248.529 L222.35 258.194 L212.685 258.194 Z" fill="#000000" fill-rule="nonzero" fill-opacity="1" /><path clip-path="url(#clip550)" d="M235.316 198.127 L235.316 189.97 L280.06 189.97 L280.06 196.571 Q273.459 203.596 266.953 215.242 Q260.493 226.887 256.957 239.193 Q254.411 247.869 253.704 258.194 L244.981 258.194 Q245.123 250.038 248.188 238.486 Q251.252 226.935 256.957 216.232 Q262.709 205.482 269.169 198.127 L235.316 198.127 Z" fill="#000000" fill-rule="nonzero" fill-opacity="1" /><path clip-path="url(#clip550)" d="M288.453 240.089 L297.364 239.335 Q298.354 245.841 301.937 249.142 Q305.567 252.395 310.66 252.395 Q316.789 252.395 321.032 247.774 Q325.276 243.154 325.276 235.516 Q325.276 228.255 321.174 224.059 Q317.119 219.862 310.518 219.862 Q306.416 219.862 303.116 221.748 Q299.815 223.587 297.929 226.557 L289.961 225.52 L296.656 190.017 L331.028 190.017 L331.028 198.127 L303.446 198.127 L299.721 216.703 Q305.945 212.366 312.781 212.366 Q321.834 212.366 328.057 218.636 Q334.281 224.907 334.281 234.761 Q334.281 244.144 328.812 250.98 Q322.164 259.373 310.66 259.373 Q301.23 259.373 295.242 254.092 Q289.301 248.812 288.453 240.089 Z" fill="#000000" fill-rule="nonzero" fill-opacity="1" /><path clip-path="url(#clip550)" d="M79.6617 830.274 L76.3415 830.274 Q76.3415 821.842 69.8594 816.467 Q69.8594 816.467 57.0004 806.348 L43.0875 817.046 Q38.2391 820.841 37.3959 822.527 Q36.4999 824.161 36.4999 829.747 L33.1271 829.747 Q33.4433 825.32 33.4433 819.523 Q33.4433 816.309 33.1271 807.824 L36.4999 807.824 Q36.7107 811.618 39.1877 811.618 Q40.0309 811.618 41.1376 810.67 L52.0466 802.238 L43.6145 795.545 Q41.6646 793.911 39.8201 793.911 Q36.8162 793.911 36.4999 797.073 L33.1271 797.073 Q33.4433 792.857 33.4433 786.691 Q33.4433 782.053 33.1271 777.837 L36.4999 777.837 Q36.7107 786.059 42.0862 790.696 Q44.3523 792.751 54.3127 800.604 L72.9687 786.164 Q75.2348 784.425 75.8145 782.475 Q76.3415 780.525 76.3415 775.887 L79.6617 775.887 Q79.3455 780.736 79.3455 786.269 Q79.3455 788.219 79.6617 797.916 L76.3415 797.916 Q76.2361 795.966 75.3929 795.018 Q74.497 794.016 73.6011 794.016 Q73.1795 794.016 70.0702 796.282 L59.2666 804.504 Q68.9635 812.725 71.2296 813.779 Q72.1782 814.201 72.9687 814.201 Q75.8672 814.201 76.3415 811.091 L79.6617 811.091 Q79.3455 818.838 79.3455 821.315 Q79.3455 826.058 79.6617 830.274 Z" fill="#000000" fill-rule="nonzero" fill-opacity="1" /><path clip-path="url(#clip550)" d="M109.56 764.895 Q108.195 764.895 107.79 764.784 Q107.384 764.637 106.757 764.046 L90.5988 749.548 Q81.6713 741.617 73.8874 741.617 Q68.8335 741.617 65.2182 744.273 Q61.603 746.892 61.603 751.725 Q61.603 755.045 63.6319 757.849 Q65.6609 760.652 69.2761 761.944 Q69.2024 761.722 69.2024 760.948 Q69.2024 759.066 70.3829 758.033 Q71.5633 756.963 73.1496 756.963 Q75.1786 756.963 76.1746 758.292 Q77.1338 759.583 77.1338 760.874 Q77.1338 761.39 77.0231 762.091 Q76.9124 762.755 75.8795 763.825 Q74.8097 764.895 72.9283 764.895 Q67.653 764.895 63.4475 760.911 Q59.242 756.89 59.242 750.766 Q59.242 743.83 63.3737 739.293 Q67.4685 734.719 73.8874 734.719 Q76.1378 734.719 78.2036 735.419 Q80.2326 736.084 81.8189 737.006 Q83.4051 737.891 85.9506 740.326 Q88.496 742.761 90.3036 744.716 Q92.1113 746.671 95.9479 751.061 L103.732 759.066 L103.732 745.454 Q103.732 738.813 103.141 738.297 Q102.072 737.559 96.4274 736.637 L96.4274 734.719 L109.56 736.858 L109.56 764.895 Z" fill="#000000" fill-rule="nonzero" fill-opacity="1" /><circle clip-path="url(#clip552)" cx="1265.17" cy="736.644" r="14.4" fill="#4477aa" fill-rule="evenodd" fill-opacity="1" stroke="#000000" stroke-opacity="1" stroke-width="3.6"/>
<circle clip-path="url(#clip552)" cx="980.948" cy="683.661" r="14.4" fill="#4477aa" fill-rule="evenodd" fill-opacity="1" stroke="#000000" stroke-opacity="1" stroke-width="3.6"/>
<circle clip-path="url(#clip552)" cx="1381.48" cy="936.926" r="14.4" fill="#4477aa" fill-rule="evenodd" fill-opacity="1" stroke="#000000" stroke-opacity="1" stroke-width="3.6"/>
<circle clip-path="url(#clip552)" cx="1126.57" cy="618.873" r="14.4" fill="#4477aa" fill-rule="evenodd" fill-opacity="1" stroke="#000000" stroke-opacity="1" stroke-width="3.6"/>
<circle clip-path="url(#clip552)" cx="1276.2" cy="503.965" r="14.4" fill="#4477aa" fill-rule="evenodd" fill-opacity="1" stroke="#000000" stroke-opacity="1" stroke-width="3.6"/>
<circle clip-path="url(#clip552)" cx="1673.23" cy="799.062" r="14.4" fill="#4477aa" fill-rule="evenodd" fill-opacity="1" stroke="#000000" stroke-opacity="1" stroke-width="3.6"/>
<circle clip-path="url(#clip552)" cx="1398.48" cy="832.832" r="14.4" fill="#4477aa" fill-rule="evenodd" fill-opacity="1" stroke="#000000" stroke-opacity="1" stroke-width="3.6"/>
<circle clip-path="url(#clip552)" cx="1630.26" cy="806.768" r="14.4" fill="#4477aa" fill-rule="evenodd" fill-opacity="1" stroke="#000000" stroke-opacity="1" stroke-width="3.6"/>
<circle clip-path="url(#clip552)" cx="1690.03" cy="723.694" r="14.4" fill="#4477aa" fill-rule="evenodd" fill-opacity="1" stroke="#000000" stroke-opacity="1" stroke-width="3.6"/>
<circle clip-path="url(#clip552)" cx="1479.43" cy="948.769" r="14.4" fill="#4477aa" fill-rule="evenodd" fill-opacity="1" stroke="#000000" stroke-opacity="1" stroke-width="3.6"/>
<circle clip-path="url(#clip552)" cx="1579.72" cy="759.403" r="14.4" fill="#4477aa" fill-rule="evenodd" fill-opacity="1" stroke="#000000" stroke-opacity="1" stroke-width="3.6"/>
<circle clip-path="url(#clip552)" cx="1087.08" cy="817.796" r="14.4" fill="#4477aa" fill-rule="evenodd" fill-opacity="1" stroke="#000000" stroke-opacity="1" stroke-width="3.6"/>
<circle clip-path="url(#clip552)" cx="1261.4" cy="861.116" r="14.4" fill="#4477aa" fill-rule="evenodd" fill-opacity="1" stroke="#000000" stroke-opacity="1" stroke-width="3.6"/>
<circle clip-path="url(#clip552)" cx="1007.31" cy="633.461" r="14.4" fill="#4477aa" fill-rule="evenodd" fill-opacity="1" stroke="#000000" stroke-opacity="1" stroke-width="3.6"/>
<circle clip-path="url(#clip552)" cx="1320.12" cy="648.147" r="14.4" fill="#4477aa" fill-rule="evenodd" fill-opacity="1" stroke="#000000" stroke-opacity="1" stroke-width="3.6"/>
<circle clip-path="url(#clip552)" cx="1530.43" cy="803.561" r="14.4" fill="#4477aa" fill-rule="evenodd" fill-opacity="1" stroke="#000000" stroke-opacity="1" stroke-width="3.6"/>
<circle clip-path="url(#clip552)" cx="1501.3" cy="655.822" r="14.4" fill="#4477aa" fill-rule="evenodd" fill-opacity="1" stroke="#000000" stroke-opacity="1" stroke-width="3.6"/>
<circle clip-path="url(#clip552)" cx="1149.4" cy="821.142" r="14.4" fill="#4477aa" fill-rule="evenodd" fill-opacity="1" stroke="#000000" stroke-opacity="1" stroke-width="3.6"/>
<circle clip-path="url(#clip552)" cx="1673.01" cy="789.468" r="14.4" fill="#4477aa" fill-rule="evenodd" fill-opacity="1" stroke="#000000" stroke-opacity="1" stroke-width="3.6"/>
<circle clip-path="url(#clip552)" cx="952.011" cy="788.776" r="14.4" fill="#4477aa" fill-rule="evenodd" fill-opacity="1" stroke="#000000" stroke-opacity="1" stroke-width="3.6"/>
<circle clip-path="url(#clip552)" cx="1532.32" cy="1015.83" r="14.4" fill="#4477aa" fill-rule="evenodd" fill-opacity="1" stroke="#000000" stroke-opacity="1" stroke-width="3.6"/>
<circle clip-path="url(#clip552)" cx="1214.76" cy="709.847" r="14.4" fill="#4477aa" fill-rule="evenodd" fill-opacity="1" stroke="#000000" stroke-opacity="1" stroke-width="3.6"/>
<circle clip-path="url(#clip552)" cx="1329.11" cy="968.558" r="14.4" fill="#4477aa" fill-rule="evenodd" fill-opacity="1" stroke="#000000" stroke-opacity="1" stroke-width="3.6"/>
<circle clip-path="url(#clip552)" cx="1483.13" cy="542.33" r="14.4" fill="#4477aa" fill-rule="evenodd" fill-opacity="1" stroke="#000000" stroke-opacity="1" stroke-width="3.6"/>
<circle clip-path="url(#clip552)" cx="1328.66" cy="534.368" r="14.4" fill="#4477aa" fill-rule="evenodd" fill-opacity="1" stroke="#000000" stroke-opacity="1" stroke-width="3.6"/>
<circle clip-path="url(#clip552)" cx="1222.22" cy="644.488" r="14.4" fill="#4477aa" fill-rule="evenodd" fill-opacity="1" stroke="#000000" stroke-opacity="1" stroke-width="3.6"/>
<circle clip-path="url(#clip552)" cx="1377.97" cy="832.781" r="14.4" fill="#4477aa" fill-rule="evenodd" fill-opacity="1" stroke="#000000" stroke-opacity="1" stroke-width="3.6"/>
<circle clip-path="url(#clip552)" cx="1672.7" cy="664.038" r="14.4" fill="#4477aa" fill-rule="evenodd" fill-opacity="1" stroke="#000000" stroke-opacity="1" stroke-width="3.6"/>
<circle clip-path="url(#clip552)" cx="1184.43" cy="727.314" r="14.4" fill="#4477aa" fill-rule="evenodd" fill-opacity="1" stroke="#000000" stroke-opacity="1" stroke-width="3.6"/>
<circle clip-path="url(#clip552)" cx="1178.99" cy="604.968" r="14.4" fill="#4477aa" fill-rule="evenodd" fill-opacity="1" stroke="#000000" stroke-opacity="1" stroke-width="3.6"/>
<circle clip-path="url(#clip552)" cx="1202.29" cy="619.042" r="14.4" fill="#4477aa" fill-rule="evenodd" fill-opacity="1" stroke="#000000" stroke-opacity="1" stroke-width="3.6"/>
<circle clip-path="url(#clip552)" cx="1096.99" cy="828.192" r="14.4" fill="#4477aa" fill-rule="evenodd" fill-opacity="1" stroke="#000000" stroke-opacity="1" stroke-width="3.6"/>
<circle clip-path="url(#clip552)" cx="1441.02" cy="600.655" r="14.4" fill="#4477aa" fill-rule="evenodd" fill-opacity="1" stroke="#000000" stroke-opacity="1" stroke-width="3.6"/>
<circle clip-path="url(#clip552)" cx="1151.62" cy="581.28" r="14.4" fill="#4477aa" fill-rule="evenodd" fill-opacity="1" stroke="#000000" stroke-opacity="1" stroke-width="3.6"/>
<circle clip-path="url(#clip552)" cx="1131.42" cy="913.361" r="14.4" fill="#4477aa" fill-rule="evenodd" fill-opacity="1" stroke="#000000" stroke-opacity="1" stroke-width="3.6"/>
<circle clip-path="url(#clip552)" cx="1367.33" cy="1004.14" r="14.4" fill="#4477aa" fill-rule="evenodd" fill-opacity="1" stroke="#000000" stroke-opacity="1" stroke-width="3.6"/>
<circle clip-path="url(#clip552)" cx="1599.21" cy="851.03" r="14.4" fill="#4477aa" fill-rule="evenodd" fill-opacity="1" stroke="#000000" stroke-opacity="1" stroke-width="3.6"/>
<circle clip-path="url(#clip552)" cx="1425.54" cy="846.475" r="14.4" fill="#4477aa" fill-rule="evenodd" fill-opacity="1" stroke="#000000" stroke-opacity="1" stroke-width="3.6"/>
<circle clip-path="url(#clip552)" cx="1512.15" cy="976.531" r="14.4" fill="#4477aa" fill-rule="evenodd" fill-opacity="1" stroke="#000000" stroke-opacity="1" stroke-width="3.6"/>
<circle clip-path="url(#clip552)" cx="1446.57" cy="905.117" r="14.4" fill="#4477aa" fill-rule="evenodd" fill-opacity="1" stroke="#000000" stroke-opacity="1" stroke-width="3.6"/>
<circle clip-path="url(#clip552)" cx="1060.99" cy="687.745" r="14.4" fill="#4477aa" fill-rule="evenodd" fill-opacity="1" stroke="#000000" stroke-opacity="1" stroke-width="3.6"/>
<circle clip-path="url(#clip552)" cx="1596.32" cy="584.255" r="14.4" fill="#4477aa" fill-rule="evenodd" fill-opacity="1" stroke="#000000" stroke-opacity="1" stroke-width="3.6"/>
<circle clip-path="url(#clip552)" cx="1527.22" cy="882.339" r="14.4" fill="#4477aa" fill-rule="evenodd" fill-opacity="1" stroke="#000000" stroke-opacity="1" stroke-width="3.6"/>
<circle clip-path="url(#clip552)" cx="1298.09" cy="928.023" r="14.4" fill="#4477aa" fill-rule="evenodd" fill-opacity="1" stroke="#000000" stroke-opacity="1" stroke-width="3.6"/>
<circle clip-path="url(#clip552)" cx="1190.02" cy="800.337" r="14.4" fill="#4477aa" fill-rule="evenodd" fill-opacity="1" stroke="#000000" stroke-opacity="1" stroke-width="3.6"/>
<circle clip-path="url(#clip552)" cx="1286.34" cy="808.077" r="14.4" fill="#4477aa" fill-rule="evenodd" fill-opacity="1" stroke="#000000" stroke-opacity="1" stroke-width="3.6"/>
<circle clip-path="url(#clip552)" cx="1437.34" cy="869.756" r="14.4" fill="#4477aa" fill-rule="evenodd" fill-opacity="1" stroke="#000000" stroke-opacity="1" stroke-width="3.6"/>
<circle clip-path="url(#clip552)" cx="1235.59" cy="730.685" r="14.4" fill="#4477aa" fill-rule="evenodd" fill-opacity="1" stroke="#000000" stroke-opacity="1" stroke-width="3.6"/>
<circle clip-path="url(#clip552)" cx="1574.15" cy="751.325" r="14.4" fill="#4477aa" fill-rule="evenodd" fill-opacity="1" stroke="#000000" stroke-opacity="1" stroke-width="3.6"/>
<circle clip-path="url(#clip552)" cx="1393.73" cy="651.959" r="14.4" fill="#4477aa" fill-rule="evenodd" fill-opacity="1" stroke="#000000" stroke-opacity="1" stroke-width="3.6"/>
<circle clip-path="url(#clip552)" cx="1603.81" cy="851.112" r="14.4" fill="#4477aa" fill-rule="evenodd" fill-opacity="1" stroke="#000000" stroke-opacity="1" stroke-width="3.6"/>
<circle clip-path="url(#clip552)" cx="1308.98" cy="1242.04" r="14.4" fill="#ee6677" fill-rule="evenodd" fill-opacity="1" stroke="#000000" stroke-opacity="1" stroke-width="3.6"/>
<circle clip-path="url(#clip552)" cx="960.659" cy="1198.97" r="14.4" fill="#ee6677" fill-rule="evenodd" fill-opacity="1" stroke="#000000" stroke-opacity="1" stroke-width="3.6"/>
<circle clip-path="url(#clip552)" cx="1240.22" cy="230.171" r="14.4" fill="#ee6677" fill-rule="evenodd" fill-opacity="1" stroke="#000000" stroke-opacity="1" stroke-width="3.6"/>
<circle clip-path="url(#clip552)" cx="1125.53" cy="1328.55" r="14.4" fill="#ee6677" fill-rule="evenodd" fill-opacity="1" stroke="#000000" stroke-opacity="1" stroke-width="3.6"/>
<circle clip-path="url(#clip552)" cx="1366.62" cy="1275.92" r="14.4" fill="#ee6677" fill-rule="evenodd" fill-opacity="1" stroke="#000000" stroke-opacity="1" stroke-width="3.6"/>
<circle clip-path="url(#clip552)" cx="2173.72" cy="557.878" r="14.4" fill="#ee6677" fill-rule="evenodd" fill-opacity="1" stroke="#000000" stroke-opacity="1" stroke-width="3.6"/>
<circle clip-path="url(#clip552)" cx="1467.2" cy="218.601" r="14.4" fill="#ee6677" fill-rule="evenodd" fill-opacity="1" stroke="#000000" stroke-opacity="1" stroke-width="3.6"/>
<circle clip-path="url(#clip552)" cx="647.82" cy="271.099" r="14.4" fill="#ee6677" fill-rule="evenodd" fill-opacity="1" stroke="#000000" stroke-opacity="1" stroke-width="3.6"/>
<circle clip-path="url(#clip552)" cx="2245.81" cy="707.397" r="14.4" fill="#ee6677" fill-rule="evenodd" fill-opacity="1" stroke="#000000" stroke-opacity="1" stroke-width="3.6"/>
<circle clip-path="url(#clip552)" cx="1804.01" cy="476.156" r="14.4" fill="#ee6677" fill-rule="evenodd" fill-opacity="1" stroke="#000000" stroke-opacity="1" stroke-width="3.6"/>
<circle clip-path="url(#clip552)" cx="1735.86" cy="435.327" r="14.4" fill="#ee6677" fill-rule="evenodd" fill-opacity="1" stroke="#000000" stroke-opacity="1" stroke-width="3.6"/>
<circle clip-path="url(#clip552)" cx="1763.39" cy="1266.56" r="14.4" fill="#ee6677" fill-rule="evenodd" fill-opacity="1" stroke="#000000" stroke-opacity="1" stroke-width="3.6"/>
<circle clip-path="url(#clip552)" cx="689.258" cy="261.789" r="14.4" fill="#ee6677" fill-rule="evenodd" fill-opacity="1" stroke="#000000" stroke-opacity="1" stroke-width="3.6"/>
<circle clip-path="url(#clip552)" cx="1825.14" cy="283.247" r="14.4" fill="#ee6677" fill-rule="evenodd" fill-opacity="1" stroke="#000000" stroke-opacity="1" stroke-width="3.6"/>
<circle clip-path="url(#clip552)" cx="1370.04" cy="1387.15" r="14.4" fill="#ee6677" fill-rule="evenodd" fill-opacity="1" stroke="#000000" stroke-opacity="1" stroke-width="3.6"/>
<circle clip-path="url(#clip552)" cx="2249.67" cy="1067.28" r="14.4" fill="#ee6677" fill-rule="evenodd" fill-opacity="1" stroke="#000000" stroke-opacity="1" stroke-width="3.6"/>
<circle clip-path="url(#clip552)" cx="426.389" cy="596.405" r="14.4" fill="#ee6677" fill-rule="evenodd" fill-opacity="1" stroke="#000000" stroke-opacity="1" stroke-width="3.6"/>
<circle clip-path="url(#clip552)" cx="1918.85" cy="923.221" r="14.4" fill="#ee6677" fill-rule="evenodd" fill-opacity="1" stroke="#000000" stroke-opacity="1" stroke-width="3.6"/>
<circle clip-path="url(#clip552)" cx="1139.57" cy="1465.22" r="14.4" fill="#ee6677" fill-rule="evenodd" fill-opacity="1" stroke="#000000" stroke-opacity="1" stroke-width="3.6"/>
<circle clip-path="url(#clip552)" cx="1360.19" cy="133.2" r="14.4" fill="#ee6677" fill-rule="evenodd" fill-opacity="1" stroke="#000000" stroke-opacity="1" stroke-width="3.6"/>
<circle clip-path="url(#clip552)" cx="1425.07" cy="1323.21" r="14.4" fill="#ee6677" fill-rule="evenodd" fill-opacity="1" stroke="#000000" stroke-opacity="1" stroke-width="3.6"/>
<circle clip-path="url(#clip552)" cx="1818.75" cy="1188.17" r="14.4" fill="#ee6677" fill-rule="evenodd" fill-opacity="1" stroke="#000000" stroke-opacity="1" stroke-width="3.6"/>
<circle clip-path="url(#clip552)" cx="645.549" cy="749.969" r="14.4" fill="#ee6677" fill-rule="evenodd" fill-opacity="1" stroke="#000000" stroke-opacity="1" stroke-width="3.6"/>
<circle clip-path="url(#clip552)" cx="834.323" cy="456.894" r="14.4" fill="#ee6677" fill-rule="evenodd" fill-opacity="1" stroke="#000000" stroke-opacity="1" stroke-width="3.6"/>
<circle clip-path="url(#clip552)" cx="798.861" cy="187.516" r="14.4" fill="#ee6677" fill-rule="evenodd" fill-opacity="1" stroke="#000000" stroke-opacity="1" stroke-width="3.6"/>
<circle clip-path="url(#clip552)" cx="1198.47" cy="120.766" r="14.4" fill="#ee6677" fill-rule="evenodd" fill-opacity="1" stroke="#000000" stroke-opacity="1" stroke-width="3.6"/>
<circle clip-path="url(#clip552)" cx="2290.03" cy="665.355" r="14.4" fill="#ee6677" fill-rule="evenodd" fill-opacity="1" stroke="#000000" stroke-opacity="1" stroke-width="3.6"/>
<circle clip-path="url(#clip552)" cx="916.846" cy="1321.22" r="14.4" fill="#ee6677" fill-rule="evenodd" fill-opacity="1" stroke="#000000" stroke-opacity="1" stroke-width="3.6"/>
<circle clip-path="url(#clip552)" cx="798.664" cy="305.449" r="14.4" fill="#ee6677" fill-rule="evenodd" fill-opacity="1" stroke="#000000" stroke-opacity="1" stroke-width="3.6"/>
<circle clip-path="url(#clip552)" cx="558.598" cy="840.744" r="14.4" fill="#ee6677" fill-rule="evenodd" fill-opacity="1" stroke="#000000" stroke-opacity="1" stroke-width="3.6"/>
<circle clip-path="url(#clip552)" cx="551.118" cy="700.479" r="14.4" fill="#ee6677" fill-rule="evenodd" fill-opacity="1" stroke="#000000" stroke-opacity="1" stroke-width="3.6"/>
<circle clip-path="url(#clip552)" cx="2135.12" cy="985.434" r="14.4" fill="#ee6677" fill-rule="evenodd" fill-opacity="1" stroke="#000000" stroke-opacity="1" stroke-width="3.6"/>
<circle clip-path="url(#clip552)" cx="1501.54" cy="343.327" r="14.4" fill="#ee6677" fill-rule="evenodd" fill-opacity="1" stroke="#000000" stroke-opacity="1" stroke-width="3.6"/>
<circle clip-path="url(#clip552)" cx="1342.96" cy="1344.79" r="14.4" fill="#ee6677" fill-rule="evenodd" fill-opacity="1" stroke="#000000" stroke-opacity="1" stroke-width="3.6"/>
<circle clip-path="url(#clip552)" cx="688.72" cy="835.245" r="14.4" fill="#ee6677" fill-rule="evenodd" fill-opacity="1" stroke="#000000" stroke-opacity="1" stroke-width="3.6"/>
<circle clip-path="url(#clip552)" cx="669.179" cy="803.892" r="14.4" fill="#ee6677" fill-rule="evenodd" fill-opacity="1" stroke="#000000" stroke-opacity="1" stroke-width="3.6"/>
<circle clip-path="url(#clip552)" cx="1767.16" cy="1311.53" r="14.4" fill="#ee6677" fill-rule="evenodd" fill-opacity="1" stroke="#000000" stroke-opacity="1" stroke-width="3.6"/>
<circle clip-path="url(#clip552)" cx="507.27" cy="881.822" r="14.4" fill="#ee6677" fill-rule="evenodd" fill-opacity="1" stroke="#000000" stroke-opacity="1" stroke-width="3.6"/>
<circle clip-path="url(#clip552)" cx="540.961" cy="1119.93" r="14.4" fill="#ee6677" fill-rule="evenodd" fill-opacity="1" stroke="#000000" stroke-opacity="1" stroke-width="3.6"/>
<circle clip-path="url(#clip552)" cx="903.743" cy="160.632" r="14.4" fill="#ee6677" fill-rule="evenodd" fill-opacity="1" stroke="#000000" stroke-opacity="1" stroke-width="3.6"/>
<circle clip-path="url(#clip552)" cx="1776.24" cy="1390.95" r="14.4" fill="#ee6677" fill-rule="evenodd" fill-opacity="1" stroke="#000000" stroke-opacity="1" stroke-width="3.6"/>
<circle clip-path="url(#clip552)" cx="2296.65" cy="804.943" r="14.4" fill="#ee6677" fill-rule="evenodd" fill-opacity="1" stroke="#000000" stroke-opacity="1" stroke-width="3.6"/>
<circle clip-path="url(#clip552)" cx="519.128" cy="1091.43" r="14.4" fill="#ee6677" fill-rule="evenodd" fill-opacity="1" stroke="#000000" stroke-opacity="1" stroke-width="3.6"/>
<circle clip-path="url(#clip552)" cx="1453.48" cy="88.5445" r="14.4" fill="#ee6677" fill-rule="evenodd" fill-opacity="1" stroke="#000000" stroke-opacity="1" stroke-width="3.6"/>
<circle clip-path="url(#clip552)" cx="1119.01" cy="1448.9" r="14.4" fill="#ee6677" fill-rule="evenodd" fill-opacity="1" stroke="#000000" stroke-opacity="1" stroke-width="3.6"/>
<circle clip-path="url(#clip552)" cx="1605.54" cy="1449.81" r="14.4" fill="#ee6677" fill-rule="evenodd" fill-opacity="1" stroke="#000000" stroke-opacity="1" stroke-width="3.6"/>
<circle clip-path="url(#clip552)" cx="2243.56" cy="720.077" r="14.4" fill="#ee6677" fill-rule="evenodd" fill-opacity="1" stroke="#000000" stroke-opacity="1" stroke-width="3.6"/>
<circle clip-path="url(#clip552)" cx="1988.82" cy="1261.06" r="14.4" fill="#ee6677" fill-rule="evenodd" fill-opacity="1" stroke="#000000" stroke-opacity="1" stroke-width="3.6"/>
<circle clip-path="url(#clip552)" cx="1970.72" cy="319.952" r="14.4" fill="#ee6677" fill-rule="evenodd" fill-opacity="1" stroke="#000000" stroke-opacity="1" stroke-width="3.6"/>
<circle clip-path="url(#clip552)" cx="813.004" cy="1328.52" r="14.4" fill="#ee6677" fill-rule="evenodd" fill-opacity="1" stroke="#000000" stroke-opacity="1" stroke-width="3.6"/>
<path clip-path="url(#clip550)" d="M1945.8 445.807 L2286.67 445.807 L2286.67 95.8868 L1945.8 95.8868  Z" fill="#ffffff" fill-rule="evenodd" fill-opacity="1"/>
<polyline clip-path="url(#clip550)" style="stroke:#000000; stroke-linecap:round; stroke-linejoin:round; stroke-width:4; stroke-opacity:1; fill:none" points="1945.8,445.807 2286.67,445.807 2286.67,95.8868 1945.8,95.8868 1945.8,445.807 "/>
<circle clip-path="url(#clip550)" cx="2033.91" cy="212.527" r="46.08" fill="#4477aa" fill-rule="evenodd" fill-opacity="1" stroke="#000000" stroke-opacity="1" stroke-width="11.52"/>
<path clip-path="url(#clip550)" d="M2122.02 213.057 Q2122.02 199.266 2124.83 190.885 Q2127.69 182.452 2133.26 177.89 Q2138.88 173.328 2147.37 173.328 Q2153.63 173.328 2158.35 175.875 Q2163.07 178.368 2166.15 183.141 Q2169.22 187.862 2170.97 194.705 Q2172.72 201.494 2172.72 213.057 Q2172.72 226.742 2169.91 235.176 Q2167.1 243.556 2161.48 248.171 Q2155.91 252.733 2147.37 252.733 Q2136.12 252.733 2129.71 244.67 Q2122.02 234.964 2122.02 213.057 M2131.83 213.057 Q2131.83 232.205 2136.28 238.571 Q2140.79 244.883 2147.37 244.883 Q2153.95 244.883 2158.4 238.517 Q2162.91 232.152 2162.91 213.057 Q2162.91 193.856 2158.4 187.544 Q2153.95 181.232 2147.26 181.232 Q2140.69 181.232 2136.76 186.801 Q2131.83 193.909 2131.83 213.057 Z" fill="#000000" fill-rule="nonzero" fill-opacity="1" /><path clip-path="url(#clip550)" d="M2187.79 251.407 L2187.79 240.533 L2198.66 240.533 L2198.66 251.407 L2187.79 251.407 Z" fill="#000000" fill-rule="nonzero" fill-opacity="1" /><path clip-path="url(#clip550)" d="M2212.61 213.057 Q2212.61 199.266 2215.42 190.885 Q2218.29 182.452 2223.86 177.89 Q2229.48 173.328 2237.97 173.328 Q2244.22 173.328 2248.95 175.875 Q2253.67 178.368 2256.74 183.141 Q2259.82 187.862 2261.57 194.705 Q2263.32 201.494 2263.32 213.057 Q2263.32 226.742 2260.51 235.176 Q2257.7 243.556 2252.07 248.171 Q2246.51 252.733 2237.97 252.733 Q2226.72 252.733 2220.3 244.67 Q2212.61 234.964 2212.61 213.057 M2222.42 213.057 Q2222.42 232.205 2226.88 238.571 Q2231.39 244.883 2237.97 244.883 Q2244.54 244.883 2249 238.517 Q2253.51 232.152 2253.51 213.057 Q2253.51 193.856 2249 187.544 Q2244.54 181.232 2237.86 181.232 Q2231.28 181.232 2227.36 186.801 Q2222.42 193.909 2222.42 213.057 Z" fill="#000000" fill-rule="nonzero" fill-opacity="1" /><circle clip-path="url(#clip550)" cx="2033.91" cy="329.167" r="46.08" fill="#ee6677" fill-rule="evenodd" fill-opacity="1" stroke="#000000" stroke-opacity="1" stroke-width="11.52"/>
<path clip-path="url(#clip550)" d="M2173.52 358.87 L2173.52 368.047 L2122.12 368.047 Q2122.02 364.599 2123.24 361.416 Q2125.2 356.165 2129.49 351.073 Q2133.84 345.981 2142.01 339.298 Q2154.69 328.902 2159.14 322.855 Q2163.6 316.755 2163.6 311.345 Q2163.6 305.669 2159.52 301.797 Q2155.48 297.872 2148.96 297.872 Q2142.07 297.872 2137.93 302.009 Q2133.79 306.146 2133.74 313.466 L2123.92 312.458 Q2124.93 301.479 2131.51 295.75 Q2138.09 289.968 2149.17 289.968 Q2160.36 289.968 2166.89 296.174 Q2173.41 302.38 2173.41 311.557 Q2173.41 316.224 2171.5 320.733 Q2169.59 325.242 2165.14 330.228 Q2160.74 335.214 2150.45 343.913 Q2141.85 351.126 2139.41 353.725 Q2136.97 356.271 2135.38 358.87 L2173.52 358.87 Z" fill="#000000" fill-rule="nonzero" fill-opacity="1" /><path clip-path="url(#clip550)" d="M2189.11 368.047 L2189.11 357.173 L2199.99 357.173 L2199.99 368.047 L2189.11 368.047 Z" fill="#000000" fill-rule="nonzero" fill-opacity="1" /><path clip-path="url(#clip550)" d="M2213.94 329.697 Q2213.94 315.906 2216.75 307.525 Q2219.61 299.092 2225.18 294.53 Q2230.8 289.968 2239.29 289.968 Q2245.55 289.968 2250.27 292.515 Q2254.99 295.008 2258.07 299.781 Q2261.15 304.502 2262.9 311.345 Q2264.65 318.134 2264.65 329.697 Q2264.65 343.382 2261.83 351.816 Q2259.02 360.196 2253.4 364.811 Q2247.83 369.373 2239.29 369.373 Q2228.05 369.373 2221.63 361.31 Q2213.94 351.604 2213.94 329.697 M2223.75 329.697 Q2223.75 348.845 2228.21 355.211 Q2232.71 361.523 2239.29 361.523 Q2245.87 361.523 2250.32 355.157 Q2254.83 348.792 2254.83 329.697 Q2254.83 310.496 2250.32 304.184 Q2245.87 297.872 2239.19 297.872 Q2232.61 297.872 2228.68 303.441 Q2223.75 310.549 2223.75 329.697 Z" fill="#000000" fill-rule="nonzero" fill-opacity="1" /></svg>
