<?xml version="1.0" encoding="utf-8"?>
<svg xmlns="http://www.w3.org/2000/svg" xmlns:xlink="http://www.w3.org/1999/xlink" width="600" height="450" viewBox="0 0 2400 1800">
<defs>
  <clipPath id="clip470">
    <rect x="0" y="0" width="2400" height="1800"/>
  </clipPath>
</defs>
<path clip-path="url(#clip470)" d="M0 1800 L2400 1800 L2400 0 L0 0  Z" fill="#ffffff" fill-rule="evenodd" fill-opacity="1"/>
<defs>
  <clipPath id="clip471">
    <rect x="480" y="0" width="1681" height="1681"/>
  </clipPath>
</defs>
<path clip-path="url(#clip470)" d="M236.002 1506.52 L2352.76 1506.52 L2352.76 47.2441 L236.002 47.2441  Z" fill="#ffffff" fill-rule="evenodd" fill-opacity="1"/>
<defs>
  <clipPath id="clip472">
    <rect x="236" y="47" width="2118" height="1460"/>
  </clipPath>
</defs>
<polyline clip-path="url(#clip472)" style="stroke:#000000; stroke-linecap:round; stroke-linejoin:round; stroke-width:2; stroke-opacity:0.1; fill:none" points="286.121,1506.52 286.121,47.2441 "/>
<polyline clip-path="url(#clip472)" style="stroke:#000000; stroke-linecap:round; stroke-linejoin:round; stroke-width:2; stroke-opacity:0.1; fill:none" points="775.566,1506.52 775.566,47.2441 "/>
<polyline clip-path="url(#clip472)" style="stroke:#000000; stroke-linecap:round; stroke-linejoin:round; stroke-width:2; stroke-opacity:0.1; fill:none" points="1265.01,1506.52 1265.01,47.2441 "/>
<polyline clip-path="url(#clip472)" style="stroke:#000000; stroke-linecap:round; stroke-linejoin:round; stroke-width:2; stroke-opacity:0.1; fill:none" points="1754.46,1506.52 1754.46,47.2441 "/>
<polyline clip-path="url(#clip472)" style="stroke:#000000; stroke-linecap:round; stroke-linejoin:round; stroke-width:2; stroke-opacity:0.1; fill:none" points="2243.9,1506.52 2243.9,47.2441 "/>
<polyline clip-path="url(#clip472)" style="stroke:#000000; stroke-linecap:round; stroke-linejoin:round; stroke-width:2; stroke-opacity:0.1; fill:none" points="236.002,1465.22 2352.76,1465.22 "/>
<polyline clip-path="url(#clip472)" style="stroke:#000000; stroke-linecap:round; stroke-linejoin:round; stroke-width:2; stroke-opacity:0.1; fill:none" points="236.002,1010.74 2352.76,1010.74 "/>
<polyline clip-path="url(#clip472)" style="stroke:#000000; stroke-linecap:round; stroke-linejoin:round; stroke-width:2; stroke-opacity:0.1; fill:none" points="236.002,556.249 2352.76,556.249 "/>
<polyline clip-path="url(#clip472)" style="stroke:#000000; stroke-linecap:round; stroke-linejoin:round; stroke-width:2; stroke-opacity:0.1; fill:none" points="236.002,101.762 2352.76,101.762 "/>
<polyline clip-path="url(#clip470)" style="stroke:#000000; stroke-linecap:round; stroke-linejoin:round; stroke-width:4; stroke-opacity:1; fill:none" points="236.002,1506.52 2352.76,1506.52 "/>
<polyline clip-path="url(#clip470)" style="stroke:#000000; stroke-linecap:round; stroke-linejoin:round; stroke-width:2; stroke-opacity:0.5; fill:none" points="236.002,47.2441 2352.76,47.2441 "/>
<polyline clip-path="url(#clip470)" style="stroke:#000000; stroke-linecap:round; stroke-linejoin:round; stroke-width:4; stroke-opacity:1; fill:none" points="286.121,1506.52 286.121,1487.63 "/>
<polyline clip-path="url(#clip470)" style="stroke:#000000; stroke-linecap:round; stroke-linejoin:round; stroke-width:4; stroke-opacity:1; fill:none" points="775.566,1506.52 775.566,1487.63 "/>
<polyline clip-path="url(#clip470)" style="stroke:#000000; stroke-linecap:round; stroke-linejoin:round; stroke-width:4; stroke-opacity:1; fill:none" points="1265.01,1506.52 1265.01,1487.63 "/>
<polyline clip-path="url(#clip470)" style="stroke:#000000; stroke-linecap:round; stroke-linejoin:round; stroke-width:4; stroke-opacity:1; fill:none" points="1754.46,1506.52 1754.46,1487.63 "/>
<polyline clip-path="url(#clip470)" style="stroke:#000000; stroke-linecap:round; stroke-linejoin:round; stroke-width:4; stroke-opacity:1; fill:none" points="2243.9,1506.52 2243.9,1487.63 "/>
<path clip-path="url(#clip470)" d="M263.584 1578.04 Q263.584 1565.78 266.083 1558.33 Q268.629 1550.83 273.579 1546.78 Q278.577 1542.72 286.121 1542.72 Q291.684 1542.72 295.881 1544.98 Q300.077 1547.2 302.811 1551.44 Q305.546 1555.64 307.102 1561.72 Q308.658 1567.76 308.658 1578.04 Q308.658 1590.2 306.159 1597.7 Q303.66 1605.15 298.662 1609.25 Q293.712 1613.3 286.121 1613.3 Q276.125 1613.3 270.42 1606.14 Q263.584 1597.51 263.584 1578.04 M272.306 1578.04 Q272.306 1595.06 276.267 1600.71 Q280.274 1606.32 286.121 1606.32 Q291.967 1606.32 295.928 1600.67 Q299.935 1595.01 299.935 1578.04 Q299.935 1560.97 295.928 1555.36 Q291.967 1549.75 286.026 1549.75 Q280.18 1549.75 276.691 1554.7 Q272.306 1561.01 272.306 1578.04 Z" fill="#000000" fill-rule="nonzero" fill-opacity="1" /><path clip-path="url(#clip470)" d="M726.178 1594.02 L735.089 1593.26 Q736.079 1599.77 739.663 1603.07 Q743.293 1606.32 748.385 1606.32 Q754.514 1606.32 758.758 1601.7 Q763.001 1597.08 763.001 1589.45 Q763.001 1582.18 758.899 1577.99 Q754.845 1573.79 748.244 1573.79 Q744.142 1573.79 740.841 1575.68 Q737.541 1577.52 735.655 1580.49 L727.687 1579.45 L734.382 1543.95 L768.753 1543.95 L768.753 1552.06 L741.171 1552.06 L737.447 1570.63 Q743.67 1566.3 750.507 1566.3 Q759.559 1566.3 765.783 1572.57 Q772.007 1578.84 772.007 1588.69 Q772.007 1598.07 766.537 1604.91 Q759.889 1613.3 748.385 1613.3 Q738.955 1613.3 732.968 1608.02 Q727.027 1602.74 726.178 1594.02 Z" fill="#000000" fill-rule="nonzero" fill-opacity="1" /><path clip-path="url(#clip470)" d="M779.88 1578.04 Q779.88 1565.78 782.379 1558.33 Q784.925 1550.83 789.876 1546.78 Q794.874 1542.72 802.418 1542.72 Q807.981 1542.72 812.177 1544.98 Q816.374 1547.2 819.108 1551.44 Q821.843 1555.64 823.399 1561.72 Q824.955 1567.76 824.955 1578.04 Q824.955 1590.2 822.456 1597.7 Q819.957 1605.15 814.959 1609.25 Q810.009 1613.3 802.418 1613.3 Q792.422 1613.3 786.717 1606.14 Q779.88 1597.51 779.88 1578.04 M788.603 1578.04 Q788.603 1595.06 792.563 1600.71 Q796.571 1606.32 802.418 1606.32 Q808.264 1606.32 812.225 1600.67 Q816.232 1595.01 816.232 1578.04 Q816.232 1560.97 812.225 1555.36 Q808.264 1549.75 802.323 1549.75 Q796.477 1549.75 792.988 1554.7 Q788.603 1561.01 788.603 1578.04 Z" fill="#000000" fill-rule="nonzero" fill-opacity="1" /><path clip-path="url(#clip470)" d="M1217.49 1612.12 L1209 1612.12 L1209 1558.04 Q1205.93 1560.97 1200.94 1563.89 Q1195.99 1566.81 1192.03 1568.28 L1192.03 1560.07 Q1199.15 1556.72 1204.47 1551.96 Q1209.8 1547.2 1212.02 1542.72 L1217.49 1542.72 L1217.49 1612.12 Z" fill="#000000" fill-rule="nonzero" fill-opacity="1" /><path clip-path="url(#clip470)" d="M1239.22 1578.04 Q1239.22 1565.78 1241.72 1558.33 Q1244.27 1550.83 1249.22 1546.78 Q1254.21 1542.72 1261.76 1542.72 Q1267.32 1542.72 1271.52 1544.98 Q1275.71 1547.2 1278.45 1551.44 Q1281.18 1555.64 1282.74 1561.72 Q1284.3 1567.76 1284.3 1578.04 Q1284.3 1590.2 1281.8 1597.7 Q1279.3 1605.15 1274.3 1609.25 Q1269.35 1613.3 1261.76 1613.3 Q1251.76 1613.3 1246.06 1606.14 Q1239.22 1597.51 1239.22 1578.04 M1247.94 1578.04 Q1247.94 1595.06 1251.9 1600.71 Q1255.91 1606.32 1261.76 1606.32 Q1267.61 1606.32 1271.57 1600.67 Q1275.57 1595.01 1275.57 1578.04 Q1275.57 1560.97 1271.57 1555.36 Q1267.61 1549.75 1261.66 1549.75 Q1255.82 1549.75 1252.33 1554.7 Q1247.94 1561.01 1247.94 1578.04 Z" fill="#000000" fill-rule="nonzero" fill-opacity="1" /><path clip-path="url(#clip470)" d="M1292.92 1578.04 Q1292.92 1565.78 1295.42 1558.33 Q1297.97 1550.83 1302.92 1546.78 Q1307.92 1542.72 1315.46 1542.72 Q1321.02 1542.72 1325.22 1544.98 Q1329.42 1547.2 1332.15 1551.44 Q1334.89 1555.64 1336.44 1561.72 Q1338 1567.76 1338 1578.04 Q1338 1590.2 1335.5 1597.7 Q1333 1605.15 1328 1609.25 Q1323.05 1613.3 1315.46 1613.3 Q1305.47 1613.3 1299.76 1606.14 Q1292.92 1597.51 1292.92 1578.04 M1301.65 1578.04 Q1301.65 1595.06 1305.61 1600.71 Q1309.61 1606.32 1315.46 1606.32 Q1321.31 1606.32 1325.27 1600.67 Q1329.28 1595.01 1329.28 1578.04 Q1329.28 1560.97 1325.27 1555.36 Q1321.31 1549.75 1315.37 1549.75 Q1309.52 1549.75 1306.03 1554.7 Q1301.65 1561.01 1301.65 1578.04 Z" fill="#000000" fill-rule="nonzero" fill-opacity="1" /><path clip-path="url(#clip470)" d="M1706.93 1612.12 L1698.44 1612.12 L1698.44 1558.04 Q1695.38 1560.97 1690.38 1563.89 Q1685.43 1566.81 1681.47 1568.28 L1681.47 1560.07 Q1688.59 1556.72 1693.92 1551.96 Q1699.25 1547.2 1701.46 1542.72 L1706.93 1542.72 L1706.93 1612.12 Z" fill="#000000" fill-rule="nonzero" fill-opacity="1" /><path clip-path="url(#clip470)" d="M1728.67 1594.02 L1737.58 1593.26 Q1738.57 1599.77 1742.15 1603.07 Q1745.78 1606.32 1750.87 1606.32 Q1757 1606.32 1761.25 1601.7 Q1765.49 1597.08 1765.49 1589.45 Q1765.49 1582.18 1761.39 1577.99 Q1757.33 1573.79 1750.73 1573.79 Q1746.63 1573.79 1743.33 1575.68 Q1740.03 1577.52 1738.14 1580.49 L1730.18 1579.45 L1736.87 1543.95 L1771.24 1543.95 L1771.24 1552.06 L1743.66 1552.06 L1739.94 1570.63 Q1746.16 1566.3 1753 1566.3 Q1762.05 1566.3 1768.27 1572.57 Q1774.5 1578.84 1774.5 1588.69 Q1774.5 1598.07 1769.03 1604.91 Q1762.38 1613.3 1750.87 1613.3 Q1741.44 1613.3 1735.46 1608.02 Q1729.52 1602.74 1728.67 1594.02 Z" fill="#000000" fill-rule="nonzero" fill-opacity="1" /><path clip-path="url(#clip470)" d="M1782.37 1578.04 Q1782.37 1565.78 1784.87 1558.33 Q1787.41 1550.83 1792.37 1546.78 Q1797.36 1542.72 1804.91 1542.72 Q1810.47 1542.72 1814.67 1544.98 Q1818.86 1547.2 1821.6 1551.44 Q1824.33 1555.64 1825.89 1561.72 Q1827.44 1567.76 1827.44 1578.04 Q1827.44 1590.2 1824.94 1597.7 Q1822.45 1605.15 1817.45 1609.25 Q1812.5 1613.3 1804.91 1613.3 Q1794.91 1613.3 1789.21 1606.14 Q1782.37 1597.51 1782.37 1578.04 M1791.09 1578.04 Q1791.09 1595.06 1795.05 1600.71 Q1799.06 1606.32 1804.91 1606.32 Q1810.75 1606.32 1814.71 1600.67 Q1818.72 1595.01 1818.72 1578.04 Q1818.72 1560.97 1814.71 1555.36 Q1810.75 1549.75 1804.81 1549.75 Q1798.97 1549.75 1795.48 1554.7 Q1791.09 1561.01 1791.09 1578.04 Z" fill="#000000" fill-rule="nonzero" fill-opacity="1" /><path clip-path="url(#clip470)" d="M2212.86 1603.97 L2212.86 1612.12 L2167.17 1612.12 Q2167.07 1609.06 2168.16 1606.23 Q2169.9 1601.56 2173.72 1597.04 Q2177.59 1592.51 2184.85 1586.57 Q2196.12 1577.33 2200.08 1571.95 Q2204.04 1566.53 2204.04 1561.72 Q2204.04 1556.68 2200.41 1553.24 Q2196.83 1549.75 2191.03 1549.75 Q2184.9 1549.75 2181.22 1553.42 Q2177.54 1557.1 2177.49 1563.61 L2168.77 1562.71 Q2169.67 1552.95 2175.51 1547.86 Q2181.36 1542.72 2191.21 1542.72 Q2201.16 1542.72 2206.96 1548.24 Q2212.76 1553.75 2212.76 1561.91 Q2212.76 1566.06 2211.06 1570.07 Q2209.37 1574.07 2205.41 1578.51 Q2201.49 1582.94 2192.35 1590.67 Q2184.71 1597.08 2182.54 1599.39 Q2180.37 1601.66 2178.96 1603.97 L2212.86 1603.97 Z" fill="#000000" fill-rule="nonzero" fill-opacity="1" /><path clip-path="url(#clip470)" d="M2221.96 1578.04 Q2221.96 1565.78 2224.45 1558.33 Q2227 1550.83 2231.95 1546.78 Q2236.95 1542.72 2244.49 1542.72 Q2250.06 1542.72 2254.25 1544.98 Q2258.45 1547.2 2261.18 1551.44 Q2263.92 1555.64 2265.47 1561.72 Q2267.03 1567.76 2267.03 1578.04 Q2267.03 1590.2 2264.53 1597.7 Q2262.03 1605.15 2257.03 1609.25 Q2252.08 1613.3 2244.49 1613.3 Q2234.5 1613.3 2228.79 1606.14 Q2221.96 1597.51 2221.96 1578.04 M2230.68 1578.04 Q2230.68 1595.06 2234.64 1600.71 Q2238.65 1606.32 2244.49 1606.32 Q2250.34 1606.32 2254.3 1600.67 Q2258.31 1595.01 2258.31 1578.04 Q2258.31 1560.97 2254.3 1555.36 Q2250.34 1549.75 2244.4 1549.75 Q2238.55 1549.75 2235.06 1554.7 Q2230.68 1561.01 2230.68 1578.04 Z" fill="#000000" fill-rule="nonzero" fill-opacity="1" /><path clip-path="url(#clip470)" d="M2275.66 1578.04 Q2275.66 1565.78 2278.16 1558.33 Q2280.7 1550.83 2285.65 1546.78 Q2290.65 1542.72 2298.19 1542.72 Q2303.76 1542.72 2307.95 1544.98 Q2312.15 1547.2 2314.89 1551.44 Q2317.62 1555.64 2319.18 1561.72 Q2320.73 1567.76 2320.73 1578.04 Q2320.73 1590.2 2318.23 1597.7 Q2315.73 1605.15 2310.74 1609.25 Q2305.79 1613.3 2298.19 1613.3 Q2288.2 1613.3 2282.49 1606.14 Q2275.66 1597.51 2275.66 1578.04 M2284.38 1578.04 Q2284.38 1595.06 2288.34 1600.71 Q2292.35 1606.32 2298.19 1606.32 Q2304.04 1606.32 2308 1600.67 Q2312.01 1595.01 2312.01 1578.04 Q2312.01 1560.97 2308 1555.36 Q2304.04 1549.75 2298.1 1549.75 Q2292.25 1549.75 2288.77 1554.7 Q2284.38 1561.01 2284.38 1578.04 Z" fill="#000000" fill-rule="nonzero" fill-opacity="1" /><path clip-path="url(#clip470)" d="M1195.56 1722.7 L1205 1721.22 Q1205.8 1726.89 1209.4 1729.92 Q1213.06 1732.94 1219.59 1732.94 Q1226.17 1732.94 1229.35 1730.29 Q1232.53 1727.58 1232.53 1723.97 Q1232.53 1720.74 1229.72 1718.88 Q1227.76 1717.61 1219.96 1715.65 Q1209.46 1712.99 1205.37 1711.09 Q1201.34 1709.12 1199.22 1705.73 Q1197.15 1702.28 1197.15 1698.14 Q1197.15 1694.38 1198.85 1691.19 Q1200.6 1687.96 1203.57 1685.84 Q1205.8 1684.19 1209.62 1683.08 Q1213.49 1681.91 1217.89 1681.91 Q1224.52 1681.91 1229.51 1683.82 Q1234.55 1685.73 1236.93 1689.02 Q1239.32 1692.26 1240.22 1697.72 L1230.89 1698.99 Q1230.25 1694.64 1227.17 1692.2 Q1224.15 1689.76 1218.58 1689.76 Q1212 1689.76 1209.19 1691.94 Q1206.38 1694.11 1206.38 1697.03 Q1206.38 1698.89 1207.55 1700.37 Q1208.72 1701.91 1211.21 1702.92 Q1212.64 1703.45 1219.64 1705.36 Q1229.77 1708.06 1233.75 1709.81 Q1237.78 1711.51 1240.06 1714.8 Q1242.34 1718.09 1242.34 1722.97 Q1242.34 1727.74 1239.53 1731.98 Q1236.77 1736.17 1231.52 1738.51 Q1226.27 1740.79 1219.64 1740.79 Q1208.66 1740.79 1202.88 1736.23 Q1197.15 1731.67 1195.56 1722.7 Z" fill="#000000" fill-rule="nonzero" fill-opacity="1" /><path clip-path="url(#clip470)" d="M1274.54 1730.98 L1275.92 1739.41 Q1271.89 1740.26 1268.71 1740.26 Q1263.51 1740.26 1260.64 1738.61 Q1257.78 1736.97 1256.61 1734.32 Q1255.45 1731.61 1255.45 1723.02 L1255.45 1690.61 L1248.44 1690.61 L1248.44 1683.18 L1255.45 1683.18 L1255.45 1669.23 L1264.94 1663.51 L1264.94 1683.18 L1274.54 1683.18 L1274.54 1690.61 L1264.94 1690.61 L1264.94 1723.55 Q1264.94 1727.63 1265.42 1728.8 Q1265.95 1729.97 1267.06 1730.66 Q1268.23 1731.35 1270.35 1731.35 Q1271.94 1731.35 1274.54 1730.98 Z" fill="#000000" fill-rule="nonzero" fill-opacity="1" /><path clip-path="url(#clip470)" d="M1322.44 1721.38 L1332.3 1722.6 Q1329.97 1731.24 1323.66 1736.01 Q1317.35 1740.79 1307.53 1740.79 Q1295.17 1740.79 1287.91 1733.2 Q1280.69 1725.57 1280.69 1711.83 Q1280.69 1697.61 1288.01 1689.76 Q1295.33 1681.91 1307 1681.91 Q1318.3 1681.91 1325.46 1689.6 Q1332.62 1697.29 1332.62 1711.24 Q1332.62 1712.09 1332.57 1713.79 L1290.56 1713.79 Q1291.09 1723.07 1295.81 1728.01 Q1300.53 1732.94 1307.59 1732.94 Q1312.84 1732.94 1316.55 1730.18 Q1320.26 1727.42 1322.44 1721.38 M1291.09 1705.94 L1322.54 1705.94 Q1321.91 1698.83 1318.94 1695.28 Q1314.38 1689.76 1307.11 1689.76 Q1300.53 1689.76 1296.02 1694.16 Q1291.57 1698.57 1291.09 1705.94 Z" fill="#000000" fill-rule="nonzero" fill-opacity="1" /><path clip-path="url(#clip470)" d="M1344.29 1761.1 L1344.29 1683.18 L1352.99 1683.18 L1352.99 1690.5 Q1356.07 1686.21 1359.94 1684.09 Q1363.81 1681.91 1369.33 1681.91 Q1376.54 1681.91 1382.06 1685.62 Q1387.57 1689.34 1390.39 1696.13 Q1393.2 1702.86 1393.2 1710.93 Q1393.2 1719.57 1390.07 1726.52 Q1386.99 1733.42 1381.05 1737.13 Q1375.16 1740.79 1368.64 1740.79 Q1363.86 1740.79 1360.05 1738.77 Q1356.28 1736.76 1353.84 1733.68 L1353.84 1761.1 L1344.29 1761.1 M1352.94 1711.67 Q1352.94 1722.54 1357.34 1727.74 Q1361.74 1732.94 1368 1732.94 Q1374.37 1732.94 1378.88 1727.58 Q1383.44 1722.17 1383.44 1710.87 Q1383.44 1700.11 1378.98 1694.75 Q1374.58 1689.39 1368.43 1689.39 Q1362.33 1689.39 1357.61 1695.12 Q1352.94 1700.79 1352.94 1711.67 Z" fill="#000000" fill-rule="nonzero" fill-opacity="1" /><polyline clip-path="url(#clip470)" style="stroke:#000000; stroke-linecap:round; stroke-linejoin:round; stroke-width:4; stroke-opacity:1; fill:none" points="236.002,1506.52 236.002,47.2441 "/>
<polyline clip-path="url(#clip470)" style="stroke:#000000; stroke-linecap:round; stroke-linejoin:round; stroke-width:2; stroke-opacity:0.5; fill:none" points="2352.76,1506.52 2352.76,47.2441 "/>
<polyline clip-path="url(#clip470)" style="stroke:#000000; stroke-linecap:round; stroke-linejoin:round; stroke-width:4; stroke-opacity:1; fill:none" points="236.002,1465.22 254.899,1465.22 "/>
<polyline clip-path="url(#clip470)" style="stroke:#000000; stroke-linecap:round; stroke-linejoin:round; stroke-width:4; stroke-opacity:1; fill:none" points="236.002,1010.74 254.899,1010.74 "/>
<polyline clip-path="url(#clip470)" style="stroke:#000000; stroke-linecap:round; stroke-linejoin:round; stroke-width:4; stroke-opacity:1; fill:none" points="236.002,556.249 254.899,556.249 "/>
<polyline clip-path="url(#clip470)" style="stroke:#000000; stroke-linecap:round; stroke-linejoin:round; stroke-width:4; stroke-opacity:1; fill:none" points="236.002,101.762 254.899,101.762 "/>
<path clip-path="url(#clip470)" d="M154.927 1465.7 Q154.927 1453.44 157.426 1445.99 Q159.972 1438.49 164.923 1434.44 Q169.921 1430.38 177.464 1430.38 Q183.028 1430.38 187.224 1432.64 Q191.42 1434.86 194.155 1439.1 Q196.89 1443.3 198.446 1449.38 Q200.002 1455.42 200.002 1465.7 Q200.002 1477.86 197.503 1485.36 Q195.004 1492.81 190.006 1496.91 Q185.055 1500.96 177.464 1500.96 Q167.469 1500.96 161.764 1493.8 Q154.927 1485.17 154.927 1465.7 M163.65 1465.7 Q163.65 1482.72 167.61 1488.37 Q171.618 1493.98 177.464 1493.98 Q183.311 1493.98 187.271 1488.33 Q191.279 1482.67 191.279 1465.7 Q191.279 1448.63 187.271 1443.02 Q183.311 1437.41 177.37 1437.41 Q171.524 1437.41 168.035 1442.36 Q163.65 1448.67 163.65 1465.7 Z" fill="#000000" fill-rule="nonzero" fill-opacity="1" /><path clip-path="url(#clip470)" d="M200.002 1045.3 L191.515 1045.3 L191.515 991.217 Q188.45 994.14 183.452 997.063 Q178.502 999.986 174.541 1001.45 L174.541 993.244 Q181.661 989.897 186.989 985.135 Q192.316 980.372 194.532 975.893 L200.002 975.893 L200.002 1045.3 Z" fill="#000000" fill-rule="nonzero" fill-opacity="1" /><path clip-path="url(#clip470)" d="M200.002 582.652 L200.002 590.809 L154.314 590.809 Q154.22 587.744 155.305 584.915 Q157.049 580.248 160.868 575.721 Q164.734 571.195 171.995 565.254 Q183.264 556.013 187.224 550.638 Q191.185 545.216 191.185 540.407 Q191.185 535.362 187.554 531.92 Q183.971 528.431 178.172 528.431 Q172.042 528.431 168.365 532.109 Q164.687 535.786 164.64 542.293 L155.918 541.397 Q156.813 531.637 162.66 526.545 Q168.506 521.406 178.36 521.406 Q188.309 521.406 194.108 526.922 Q199.907 532.439 199.907 540.596 Q199.907 544.745 198.21 548.752 Q196.513 552.76 192.552 557.192 Q188.639 561.624 179.492 569.356 Q171.854 575.769 169.685 578.079 Q167.516 580.342 166.102 582.652 L200.002 582.652 Z" fill="#000000" fill-rule="nonzero" fill-opacity="1" /><path clip-path="url(#clip470)" d="M154.739 118.075 L163.226 116.944 Q164.687 124.157 168.176 127.363 Q171.712 130.522 176.757 130.522 Q182.745 130.522 186.847 126.373 Q190.996 122.224 190.996 116.095 Q190.996 110.248 187.177 106.477 Q183.358 102.658 177.464 102.658 Q175.06 102.658 171.477 103.601 L172.42 96.151 Q173.268 96.2453 173.787 96.2453 Q179.209 96.2453 183.547 93.4164 Q187.884 90.5875 187.884 84.6939 Q187.884 80.0262 184.725 76.9615 Q181.566 73.8968 176.569 73.8968 Q171.618 73.8968 168.318 77.0086 Q165.017 80.1205 164.074 86.3441 L155.587 84.8353 Q157.143 76.3014 162.66 71.6337 Q168.176 66.9188 176.38 66.9188 Q182.038 66.9188 186.8 69.3705 Q191.562 71.7751 194.061 75.9714 Q196.607 80.1676 196.607 84.8825 Q196.607 89.3616 194.202 93.0392 Q191.798 96.7168 187.083 98.8856 Q193.212 100.3 196.607 104.779 Q200.002 109.211 200.002 115.906 Q200.002 124.959 193.401 131.277 Q186.8 137.548 176.71 137.548 Q167.61 137.548 161.575 132.125 Q155.587 126.703 154.739 118.075 Z" fill="#000000" fill-rule="nonzero" fill-opacity="1" /><path clip-path="url(#clip470)" d="M94.8922 867.905 L17.1322 867.905 L17.1322 858.357 L94.8922 858.357 L94.8922 867.905 Z" fill="#000000" fill-rule="nonzero" fill-opacity="1" /><path clip-path="url(#clip470)" d="M66.7267 847.112 Q51.0792 847.112 43.5472 838.413 Q37.2882 831.146 37.2882 820.697 Q37.2882 809.081 44.9263 801.708 Q52.5114 794.335 65.9311 794.335 Q76.8047 794.335 83.0637 797.623 Q89.2697 800.859 92.7174 807.118 Q96.1652 813.324 96.1652 820.697 Q96.1652 832.525 88.5801 839.845 Q80.9951 847.112 66.7267 847.112 M66.7267 837.299 Q77.5473 837.299 82.9576 832.578 Q88.3149 827.858 88.3149 820.697 Q88.3149 813.589 82.9046 808.868 Q77.4943 804.148 66.4084 804.148 Q55.9591 804.148 50.6018 808.921 Q45.1915 813.642 45.1915 820.697 Q45.1915 827.858 50.5488 832.578 Q55.9061 837.299 66.7267 837.299 Z" fill="#000000" fill-rule="nonzero" fill-opacity="1" /><path clip-path="url(#clip470)" d="M78.0778 786.962 L76.5926 777.52 Q82.2681 776.725 85.2915 773.118 Q88.3149 769.458 88.3149 762.934 Q88.3149 756.357 85.6628 753.174 Q82.9576 749.991 79.3508 749.991 Q76.1152 749.991 74.2587 752.803 Q72.9857 754.765 71.0231 762.563 Q68.371 773.065 66.4615 777.149 Q64.4989 781.18 61.1042 783.302 Q57.6565 785.371 53.5192 785.371 Q49.7532 785.371 46.5706 783.673 Q43.335 781.923 41.2134 778.953 Q39.569 776.725 38.4552 772.906 Q37.2882 769.034 37.2882 764.631 Q37.2882 758.001 39.1978 753.015 Q41.1073 747.976 44.3959 745.589 Q47.6315 743.202 53.0948 742.3 L54.3678 751.636 Q50.0184 752.272 47.5784 755.349 Q45.1385 758.372 45.1385 763.942 Q45.1385 770.519 47.3132 773.33 Q49.488 776.141 52.4053 776.141 Q54.2618 776.141 55.7469 774.974 Q57.2852 773.807 58.293 771.314 Q58.8234 769.882 60.7329 762.881 Q63.4381 752.75 65.1885 748.772 Q66.8858 744.74 70.1744 742.459 Q73.4631 740.179 78.343 740.179 Q83.1168 740.179 87.3602 742.99 Q91.5505 745.748 93.8844 750.999 Q96.1652 756.25 96.1652 762.881 Q96.1652 773.861 91.6035 779.642 Q87.0419 785.371 78.0778 786.962 Z" fill="#000000" fill-rule="nonzero" fill-opacity="1" /><path clip-path="url(#clip470)" d="M78.0778 732.647 L76.5926 723.205 Q82.2681 722.41 85.2915 718.803 Q88.3149 715.143 88.3149 708.619 Q88.3149 702.041 85.6628 698.859 Q82.9576 695.676 79.3508 695.676 Q76.1152 695.676 74.2587 698.487 Q72.9857 700.45 71.0231 708.247 Q68.371 718.75 66.4615 722.834 Q64.4989 726.865 61.1042 728.987 Q57.6565 731.055 53.5192 731.055 Q49.7532 731.055 46.5706 729.358 Q43.335 727.608 41.2134 724.637 Q39.569 722.41 38.4552 718.59 Q37.2882 714.718 37.2882 710.316 Q37.2882 703.686 39.1978 698.7 Q41.1073 693.661 44.3959 691.274 Q47.6315 688.887 53.0948 687.985 L54.3678 697.32 Q50.0184 697.957 47.5784 701.033 Q45.1385 704.057 45.1385 709.626 Q45.1385 716.204 47.3132 719.015 Q49.488 721.826 52.4053 721.826 Q54.2618 721.826 55.7469 720.659 Q57.2852 719.492 58.293 716.999 Q58.8234 715.567 60.7329 708.565 Q63.4381 698.434 65.1885 694.456 Q66.8858 690.425 70.1744 688.144 Q73.4631 685.863 78.343 685.863 Q83.1168 685.863 87.3602 688.675 Q91.5505 691.433 93.8844 696.684 Q96.1652 701.935 96.1652 708.565 Q96.1652 719.545 91.6035 725.327 Q87.0419 731.055 78.0778 732.647 Z" fill="#000000" fill-rule="nonzero" fill-opacity="1" /><polyline clip-path="url(#clip472)" style="stroke:#4477aa; stroke-linecap:round; stroke-linejoin:round; stroke-width:8; stroke-opacity:1; fill:none" points="295.91,1461.71 305.699,88.5445 315.488,1368.96 325.276,499.29 335.065,1446.27 344.854,670.355 354.643,1463.26 364.432,958.107 374.221,1465.04 384.01,1445.95 393.799,761.426 403.588,1075.11 413.377,1449.52 423.166,1111.28 432.954,1372.21 442.743,1409.8 452.532,1426.59 462.321,1330.79 472.11,1420.8 481.899,1415.98 491.688,1240.76 501.477,1463.46 511.266,1151.79 521.055,1215.87 530.844,1459.41 540.632,1455.62 550.421,1463.49 560.21,1356.07 569.999,1440.9 579.788,1462.76 589.577,1419.45 599.366,1445.36 609.155,1349.05 618.944,1453.35 628.733,1462.76 638.522,1417.33 648.311,1207.3 658.099,1363.02 667.888,1421.56 677.677,1462.89 687.466,1400.32 697.255,1235.84 707.044,1438.65 716.833,1459.18 726.622,1419.39 736.411,1458.84 746.2,1458.79 755.989,1399.82 765.777,1462.81 775.566,1384.01 785.355,1443.61 795.144,1284.42 804.933,1456.13 814.722,1465.11 824.511,1377.59 834.3,1416.89 844.089,1446.18 853.878,1412.38 863.667,1450.27 873.456,1443.46 883.244,1459.21 893.033,1449.62 902.822,1456.6 912.611,1372.21 922.4,1374.9 932.189,1460.71 941.978,1452.16 951.767,1444.35 961.556,1433.27 971.345,1464.67 981.134,1463.17 990.922,1451.66 1000.71,1445.52 1010.5,1434.65 1020.29,1464.54 1030.08,1460.79 1039.87,1432.96 1049.66,1375.35 1059.44,1435.57 1069.23,1451.79 1079.02,1458.24 1088.81,1438.3 1098.6,1385.35 1108.39,1458.1 1118.18,1455.42 1127.97,1447.97 1137.76,1465.15 1147.55,1464.57 1157.33,1443.65 1167.12,1465.18 1176.91,1431.83 1186.7,1456.71 1196.49,1378.15 1206.28,1464.38 1216.07,1463.61 1225.86,1420.22 1235.65,1425.37 1245.43,1447.12 1255.22,1446.81 1265.01,1459.1 1274.8,1444.55 1284.59,1461.07 1294.38,1463.63 1304.17,1458.72 1313.96,1423.71 1323.75,1418.38 1333.53,1457.82 1343.32,1459.98 1353.11,1446.74 1362.9,1450.7 1372.69,1465.08 1382.48,1461.25 1392.27,1459.1 1402.06,1444.1 1411.85,1460.77 1421.63,1464.31 1431.42,1458.17 1441.21,1446.34 1451,1429.62 1460.79,1459.13 1470.58,1462.35 1480.37,1453.77 1490.16,1451.41 1499.95,1439.3 1509.73,1463.13 1519.52,1452.31 1529.31,1457.44 1539.1,1463.95 1548.89,1465.22 1558.68,1458.92 1568.47,1465.04 1578.26,1451 1588.05,1461.94 1597.84,1416.48 1607.62,1465.19 1617.41,1461.79 1627.2,1438.16 1636.99,1429.78 1646.78,1448.47 1656.57,1458.95 1666.36,1462.31 1676.15,1445.04 1685.94,1461.88 1695.72,1465.16 1705.51,1460 1715.3,1444.08 1725.09,1437.05 1734.88,1455.73 1744.67,1462.99 1754.46,1448.32 1764.25,1457.65 1774.04,1464.18 1783.82,1459.92 1793.61,1462.06 1803.4,1443.22 1813.19,1465.21 1822.98,1461.24 1832.77,1456.35 1842.56,1452.56 1852.35,1449.84 1862.14,1464.69 1871.92,1464.93 1881.71,1450.64 1891.5,1457.04 1901.29,1457.13 1911.08,1464.68 1920.87,1450.29 1930.66,1461.23 1940.45,1461.42 1950.24,1464.99 1960.02,1463.62 1969.81,1464.59 1979.6,1458.47 1989.39,1463.87 1999.18,1433.73 2008.97,1464.52 2018.76,1460.41 2028.55,1446.53 2038.34,1432.23 2048.12,1449.24 2057.91,1463.09 2067.7,1463.64 2077.49,1445.32 2087.28,1462.31 2097.07,1463.93 2106.86,1460.69 2116.65,1452.82 2126.44,1445.76 2136.23,1454.4 2146.01,1464.16 2155.8,1449.21 2165.59,1460.67 2175.38,1463.28 2185.17,1459.06 2194.96,1463.34 2204.75,1442.7 2214.54,1464.12 2224.33,1458.44 2234.11,1455.19 2243.9,1455.61 2253.69,1457.77 2263.48,1465.14 2273.27,1465.21 2283.06,1448.64 2292.85,1459.65 "/>
<circle clip-path="url(#clip472)" cx="295.91" cy="1461.71" r="7.2" fill="#4477aa" fill-rule="evenodd" fill-opacity="1" stroke="#000000" stroke-opacity="1" stroke-width="3.6"/>
<circle clip-path="url(#clip472)" cx="305.699" cy="88.5445" r="7.2" fill="#4477aa" fill-rule="evenodd" fill-opacity="1" stroke="#000000" stroke-opacity="1" stroke-width="3.6"/>
<circle clip-path="url(#clip472)" cx="315.488" cy="1368.96" r="7.2" fill="#4477aa" fill-rule="evenodd" fill-opacity="1" stroke="#000000" stroke-opacity="1" stroke-width="3.6"/>
<circle clip-path="url(#clip472)" cx="325.276" cy="499.29" r="7.2" fill="#4477aa" fill-rule="evenodd" fill-opacity="1" stroke="#000000" stroke-opacity="1" stroke-width="3.6"/>
<circle clip-path="url(#clip472)" cx="335.065" cy="1446.27" r="7.2" fill="#4477aa" fill-rule="evenodd" fill-opacity="1" stroke="#000000" stroke-opacity="1" stroke-width="3.6"/>
<circle clip-path="url(#clip472)" cx="344.854" cy="670.355" r="7.2" fill="#4477aa" fill-rule="evenodd" fill-opacity="1" stroke="#000000" stroke-opacity="1" stroke-width="3.6"/>
<circle clip-path="url(#clip472)" cx="354.643" cy="1463.26" r="7.2" fill="#4477aa" fill-rule="evenodd" fill-opacity="1" stroke="#000000" stroke-opacity="1" stroke-width="3.6"/>
<circle clip-path="url(#clip472)" cx="364.432" cy="958.107" r="7.2" fill="#4477aa" fill-rule="evenodd" fill-opacity="1" stroke="#000000" stroke-opacity="1" stroke-width="3.6"/>
<circle clip-path="url(#clip472)" cx="374.221" cy="1465.04" r="7.2" fill="#4477aa" fill-rule="evenodd" fill-opacity="1" stroke="#000000" stroke-opacity="1" stroke-width="3.6"/>
<circle clip-path="url(#clip472)" cx="384.01" cy="1445.95" r="7.2" fill="#4477aa" fill-rule="evenodd" fill-opacity="1" stroke="#000000" stroke-opacity="1" stroke-width="3.6"/>
<circle clip-path="url(#clip472)" cx="393.799" cy="761.426" r="7.2" fill="#4477aa" fill-rule="evenodd" fill-opacity="1" stroke="#000000" stroke-opacity="1" stroke-width="3.6"/>
<circle clip-path="url(#clip472)" cx="403.588" cy="1075.11" r="7.2" fill="#4477aa" fill-rule="evenodd" fill-opacity="1" stroke="#000000" stroke-opacity="1" stroke-width="3.6"/>
<circle clip-path="url(#clip472)" cx="413.377" cy="1449.52" r="7.2" fill="#4477aa" fill-rule="evenodd" fill-opacity="1" stroke="#000000" stroke-opacity="1" stroke-width="3.6"/>
<circle clip-path="url(#clip472)" cx="423.166" cy="1111.28" r="7.2" fill="#4477aa" fill-rule="evenodd" fill-opacity="1" stroke="#000000" stroke-opacity="1" stroke-width="3.6"/>
<circle clip-path="url(#clip472)" cx="432.954" cy="1372.21" r="7.2" fill="#4477aa" fill-rule="evenodd" fill-opacity="1" stroke="#000000" stroke-opacity="1" stroke-width="3.6"/>
<circle clip-path="url(#clip472)" cx="442.743" cy="1409.8" r="7.2" fill="#4477aa" fill-rule="evenodd" fill-opacity="1" stroke="#000000" stroke-opacity="1" stroke-width="3.6"/>
<circle clip-path="url(#clip472)" cx="452.532" cy="1426.59" r="7.2" fill="#4477aa" fill-rule="evenodd" fill-opacity="1" stroke="#000000" stroke-opacity="1" stroke-width="3.6"/>
<circle clip-path="url(#clip472)" cx="462.321" cy="1330.79" r="7.2" fill="#4477aa" fill-rule="evenodd" fill-opacity="1" stroke="#000000" stroke-opacity="1" stroke-width="3.6"/>
<circle clip-path="url(#clip472)" cx="472.11" cy="1420.8" r="7.2" fill="#4477aa" fill-rule="evenodd" fill-opacity="1" stroke="#000000" stroke-opacity="1" stroke-width="3.6"/>
<circle clip-path="url(#clip472)" cx="481.899" cy="1415.98" r="7.2" fill="#4477aa" fill-rule="evenodd" fill-opacity="1" stroke="#000000" stroke-opacity="1" stroke-width="3.6"/>
<circle clip-path="url(#clip472)" cx="491.688" cy="1240.76" r="7.2" fill="#4477aa" fill-rule="evenodd" fill-opacity="1" stroke="#000000" stroke-opacity="1" stroke-width="3.6"/>
<circle clip-path="url(#clip472)" cx="501.477" cy="1463.46" r="7.2" fill="#4477aa" fill-rule="evenodd" fill-opacity="1" stroke="#000000" stroke-opacity="1" stroke-width="3.6"/>
<circle clip-path="url(#clip472)" cx="511.266" cy="1151.79" r="7.2" fill="#4477aa" fill-rule="evenodd" fill-opacity="1" stroke="#000000" stroke-opacity="1" stroke-width="3.6"/>
<circle clip-path="url(#clip472)" cx="521.055" cy="1215.87" r="7.2" fill="#4477aa" fill-rule="evenodd" fill-opacity="1" stroke="#000000" stroke-opacity="1" stroke-width="3.6"/>
<circle clip-path="url(#clip472)" cx="530.844" cy="1459.41" r="7.2" fill="#4477aa" fill-rule="evenodd" fill-opacity="1" stroke="#000000" stroke-opacity="1" stroke-width="3.6"/>
<circle clip-path="url(#clip472)" cx="540.632" cy="1455.62" r="7.2" fill="#4477aa" fill-rule="evenodd" fill-opacity="1" stroke="#000000" stroke-opacity="1" stroke-width="3.6"/>
<circle clip-path="url(#clip472)" cx="550.421" cy="1463.49" r="7.2" fill="#4477aa" fill-rule="evenodd" fill-opacity="1" stroke="#000000" stroke-opacity="1" stroke-width="3.6"/>
<circle clip-path="url(#clip472)" cx="560.21" cy="1356.07" r="7.2" fill="#4477aa" fill-rule="evenodd" fill-opacity="1" stroke="#000000" stroke-opacity="1" stroke-width="3.6"/>
<circle clip-path="url(#clip472)" cx="569.999" cy="1440.9" r="7.2" fill="#4477aa" fill-rule="evenodd" fill-opacity="1" stroke="#000000" stroke-opacity="1" stroke-width="3.6"/>
<circle clip-path="url(#clip472)" cx="579.788" cy="1462.76" r="7.2" fill="#4477aa" fill-rule="evenodd" fill-opacity="1" stroke="#000000" stroke-opacity="1" stroke-width="3.6"/>
<circle clip-path="url(#clip472)" cx="589.577" cy="1419.45" r="7.2" fill="#4477aa" fill-rule="evenodd" fill-opacity="1" stroke="#000000" stroke-opacity="1" stroke-width="3.6"/>
<circle clip-path="url(#clip472)" cx="599.366" cy="1445.36" r="7.2" fill="#4477aa" fill-rule="evenodd" fill-opacity="1" stroke="#000000" stroke-opacity="1" stroke-width="3.6"/>
<circle clip-path="url(#clip472)" cx="609.155" cy="1349.05" r="7.2" fill="#4477aa" fill-rule="evenodd" fill-opacity="1" stroke="#000000" stroke-opacity="1" stroke-width="3.6"/>
<circle clip-path="url(#clip472)" cx="618.944" cy="1453.35" r="7.2" fill="#4477aa" fill-rule="evenodd" fill-opacity="1" stroke="#000000" stroke-opacity="1" stroke-width="3.6"/>
<circle clip-path="url(#clip472)" cx="628.733" cy="1462.76" r="7.2" fill="#4477aa" fill-rule="evenodd" fill-opacity="1" stroke="#000000" stroke-opacity="1" stroke-width="3.6"/>
<circle clip-path="url(#clip472)" cx="638.522" cy="1417.33" r="7.2" fill="#4477aa" fill-rule="evenodd" fill-opacity="1" stroke="#000000" stroke-opacity="1" stroke-width="3.6"/>
<circle clip-path="url(#clip472)" cx="648.311" cy="1207.3" r="7.2" fill="#4477aa" fill-rule="evenodd" fill-opacity="1" stroke="#000000" stroke-opacity="1" stroke-width="3.6"/>
<circle clip-path="url(#clip472)" cx="658.099" cy="1363.02" r="7.2" fill="#4477aa" fill-rule="evenodd" fill-opacity="1" stroke="#000000" stroke-opacity="1" stroke-width="3.6"/>
<circle clip-path="url(#clip472)" cx="667.888" cy="1421.56" r="7.2" fill="#4477aa" fill-rule="evenodd" fill-opacity="1" stroke="#000000" stroke-opacity="1" stroke-width="3.6"/>
<circle clip-path="url(#clip472)" cx="677.677" cy="1462.89" r="7.2" fill="#4477aa" fill-rule="evenodd" fill-opacity="1" stroke="#000000" stroke-opacity="1" stroke-width="3.6"/>
<circle clip-path="url(#clip472)" cx="687.466" cy="1400.32" r="7.2" fill="#4477aa" fill-rule="evenodd" fill-opacity="1" stroke="#000000" stroke-opacity="1" stroke-width="3.6"/>
<circle clip-path="url(#clip472)" cx="697.255" cy="1235.84" r="7.2" fill="#4477aa" fill-rule="evenodd" fill-opacity="1" stroke="#000000" stroke-opacity="1" stroke-width="3.6"/>
<circle clip-path="url(#clip472)" cx="707.044" cy="1438.65" r="7.2" fill="#4477aa" fill-rule="evenodd" fill-opacity="1" stroke="#000000" stroke-opacity="1" stroke-width="3.6"/>
<circle clip-path="url(#clip472)" cx="716.833" cy="1459.18" r="7.2" fill="#4477aa" fill-rule="evenodd" fill-opacity="1" stroke="#000000" stroke-opacity="1" stroke-width="3.6"/>
<circle clip-path="url(#clip472)" cx="726.622" cy="1419.39" r="7.2" fill="#4477aa" fill-rule="evenodd" fill-opacity="1" stroke="#000000" stroke-opacity="1" stroke-width="3.6"/>
<circle clip-path="url(#clip472)" cx="736.411" cy="1458.84" r="7.2" fill="#4477aa" fill-rule="evenodd" fill-opacity="1" stroke="#000000" stroke-opacity="1" stroke-width="3.6"/>
<circle clip-path="url(#clip472)" cx="746.2" cy="1458.79" r="7.2" fill="#4477aa" fill-rule="evenodd" fill-opacity="1" stroke="#000000" stroke-opacity="1" stroke-width="3.6"/>
<circle clip-path="url(#clip472)" cx="755.989" cy="1399.82" r="7.2" fill="#4477aa" fill-rule="evenodd" fill-opacity="1" stroke="#000000" stroke-opacity="1" stroke-width="3.6"/>
<circle clip-path="url(#clip472)" cx="765.777" cy="1462.81" r="7.2" fill="#4477aa" fill-rule="evenodd" fill-opacity="1" stroke="#000000" stroke-opacity="1" stroke-width="3.6"/>
<circle clip-path="url(#clip472)" cx="775.566" cy="1384.01" r="7.2" fill="#4477aa" fill-rule="evenodd" fill-opacity="1" stroke="#000000" stroke-opacity="1" stroke-width="3.6"/>
<circle clip-path="url(#clip472)" cx="785.355" cy="1443.61" r="7.2" fill="#4477aa" fill-rule="evenodd" fill-opacity="1" stroke="#000000" stroke-opacity="1" stroke-width="3.6"/>
<circle clip-path="url(#clip472)" cx="795.144" cy="1284.42" r="7.2" fill="#4477aa" fill-rule="evenodd" fill-opacity="1" stroke="#000000" stroke-opacity="1" stroke-width="3.6"/>
<circle clip-path="url(#clip472)" cx="804.933" cy="1456.13" r="7.2" fill="#4477aa" fill-rule="evenodd" fill-opacity="1" stroke="#000000" stroke-opacity="1" stroke-width="3.6"/>
<circle clip-path="url(#clip472)" cx="814.722" cy="1465.11" r="7.2" fill="#4477aa" fill-rule="evenodd" fill-opacity="1" stroke="#000000" stroke-opacity="1" stroke-width="3.6"/>
<circle clip-path="url(#clip472)" cx="824.511" cy="1377.59" r="7.2" fill="#4477aa" fill-rule="evenodd" fill-opacity="1" stroke="#000000" stroke-opacity="1" stroke-width="3.6"/>
<circle clip-path="url(#clip472)" cx="834.3" cy="1416.89" r="7.2" fill="#4477aa" fill-rule="evenodd" fill-opacity="1" stroke="#000000" stroke-opacity="1" stroke-width="3.6"/>
<circle clip-path="url(#clip472)" cx="844.089" cy="1446.18" r="7.2" fill="#4477aa" fill-rule="evenodd" fill-opacity="1" stroke="#000000" stroke-opacity="1" stroke-width="3.6"/>
<circle clip-path="url(#clip472)" cx="853.878" cy="1412.38" r="7.2" fill="#4477aa" fill-rule="evenodd" fill-opacity="1" stroke="#000000" stroke-opacity="1" stroke-width="3.6"/>
<circle clip-path="url(#clip472)" cx="863.667" cy="1450.27" r="7.2" fill="#4477aa" fill-rule="evenodd" fill-opacity="1" stroke="#000000" stroke-opacity="1" stroke-width="3.6"/>
<circle clip-path="url(#clip472)" cx="873.456" cy="1443.46" r="7.2" fill="#4477aa" fill-rule="evenodd" fill-opacity="1" stroke="#000000" stroke-opacity="1" stroke-width="3.6"/>
<circle clip-path="url(#clip472)" cx="883.244" cy="1459.21" r="7.2" fill="#4477aa" fill-rule="evenodd" fill-opacity="1" stroke="#000000" stroke-opacity="1" stroke-width="3.6"/>
<circle clip-path="url(#clip472)" cx="893.033" cy="1449.62" r="7.2" fill="#4477aa" fill-rule="evenodd" fill-opacity="1" stroke="#000000" stroke-opacity="1" stroke-width="3.6"/>
<circle clip-path="url(#clip472)" cx="902.822" cy="1456.6" r="7.2" fill="#4477aa" fill-rule="evenodd" fill-opacity="1" stroke="#000000" stroke-opacity="1" stroke-width="3.6"/>
<circle clip-path="url(#clip472)" cx="912.611" cy="1372.21" r="7.2" fill="#4477aa" fill-rule="evenodd" fill-opacity="1" stroke="#000000" stroke-opacity="1" stroke-width="3.6"/>
<circle clip-path="url(#clip472)" cx="922.4" cy="1374.9" r="7.2" fill="#4477aa" fill-rule="evenodd" fill-opacity="1" stroke="#000000" stroke-opacity="1" stroke-width="3.6"/>
<circle clip-path="url(#clip472)" cx="932.189" cy="1460.71" r="7.2" fill="#4477aa" fill-rule="evenodd" fill-opacity="1" stroke="#000000" stroke-opacity="1" stroke-width="3.6"/>
<circle clip-path="url(#clip472)" cx="941.978" cy="1452.16" r="7.2" fill="#4477aa" fill-rule="evenodd" fill-opacity="1" stroke="#000000" stroke-opacity="1" stroke-width="3.6"/>
<circle clip-path="url(#clip472)" cx="951.767" cy="1444.35" r="7.2" fill="#4477aa" fill-rule="evenodd" fill-opacity="1" stroke="#000000" stroke-opacity="1" stroke-width="3.6"/>
<circle clip-path="url(#clip472)" cx="961.556" cy="1433.27" r="7.2" fill="#4477aa" fill-rule="evenodd" fill-opacity="1" stroke="#000000" stroke-opacity="1" stroke-width="3.6"/>
<circle clip-path="url(#clip472)" cx="971.345" cy="1464.67" r="7.2" fill="#4477aa" fill-rule="evenodd" fill-opacity="1" stroke="#000000" stroke-opacity="1" stroke-width="3.6"/>
<circle clip-path="url(#clip472)" cx="981.134" cy="1463.17" r="7.2" fill="#4477aa" fill-rule="evenodd" fill-opacity="1" stroke="#000000" stroke-opacity="1" stroke-width="3.6"/>
<circle clip-path="url(#clip472)" cx="990.922" cy="1451.66" r="7.2" fill="#4477aa" fill-rule="evenodd" fill-opacity="1" stroke="#000000" stroke-opacity="1" stroke-width="3.6"/>
<circle clip-path="url(#clip472)" cx="1000.71" cy="1445.52" r="7.2" fill="#4477aa" fill-rule="evenodd" fill-opacity="1" stroke="#000000" stroke-opacity="1" stroke-width="3.6"/>
<circle clip-path="url(#clip472)" cx="1010.5" cy="1434.65" r="7.2" fill="#4477aa" fill-rule="evenodd" fill-opacity="1" stroke="#000000" stroke-opacity="1" stroke-width="3.6"/>
<circle clip-path="url(#clip472)" cx="1020.29" cy="1464.54" r="7.2" fill="#4477aa" fill-rule="evenodd" fill-opacity="1" stroke="#000000" stroke-opacity="1" stroke-width="3.6"/>
<circle clip-path="url(#clip472)" cx="1030.08" cy="1460.79" r="7.2" fill="#4477aa" fill-rule="evenodd" fill-opacity="1" stroke="#000000" stroke-opacity="1" stroke-width="3.6"/>
<circle clip-path="url(#clip472)" cx="1039.87" cy="1432.96" r="7.2" fill="#4477aa" fill-rule="evenodd" fill-opacity="1" stroke="#000000" stroke-opacity="1" stroke-width="3.6"/>
<circle clip-path="url(#clip472)" cx="1049.66" cy="1375.35" r="7.2" fill="#4477aa" fill-rule="evenodd" fill-opacity="1" stroke="#000000" stroke-opacity="1" stroke-width="3.6"/>
<circle clip-path="url(#clip472)" cx="1059.44" cy="1435.57" r="7.2" fill="#4477aa" fill-rule="evenodd" fill-opacity="1" stroke="#000000" stroke-opacity="1" stroke-width="3.6"/>
<circle clip-path="url(#clip472)" cx="1069.23" cy="1451.79" r="7.2" fill="#4477aa" fill-rule="evenodd" fill-opacity="1" stroke="#000000" stroke-opacity="1" stroke-width="3.6"/>
<circle clip-path="url(#clip472)" cx="1079.02" cy="1458.24" r="7.2" fill="#4477aa" fill-rule="evenodd" fill-opacity="1" stroke="#000000" stroke-opacity="1" stroke-width="3.6"/>
<circle clip-path="url(#clip472)" cx="1088.81" cy="1438.3" r="7.2" fill="#4477aa" fill-rule="evenodd" fill-opacity="1" stroke="#000000" stroke-opacity="1" stroke-width="3.6"/>
<circle clip-path="url(#clip472)" cx="1098.6" cy="1385.35" r="7.2" fill="#4477aa" fill-rule="evenodd" fill-opacity="1" stroke="#000000" stroke-opacity="1" stroke-width="3.6"/>
<circle clip-path="url(#clip472)" cx="1108.39" cy="1458.1" r="7.2" fill="#4477aa" fill-rule="evenodd" fill-opacity="1" stroke="#000000" stroke-opacity="1" stroke-width="3.6"/>
<circle clip-path="url(#clip472)" cx="1118.18" cy="1455.42" r="7.2" fill="#4477aa" fill-rule="evenodd" fill-opacity="1" stroke="#000000" stroke-opacity="1" stroke-width="3.6"/>
<circle clip-path="url(#clip472)" cx="1127.97" cy="1447.97" r="7.2" fill="#4477aa" fill-rule="evenodd" fill-opacity="1" stroke="#000000" stroke-opacity="1" stroke-width="3.6"/>
<circle clip-path="url(#clip472)" cx="1137.76" cy="1465.15" r="7.2" fill="#4477aa" fill-rule="evenodd" fill-opacity="1" stroke="#000000" stroke-opacity="1" stroke-width="3.6"/>
<circle clip-path="url(#clip472)" cx="1147.55" cy="1464.57" r="7.2" fill="#4477aa" fill-rule="evenodd" fill-opacity="1" stroke="#000000" stroke-opacity="1" stroke-width="3.6"/>
<circle clip-path="url(#clip472)" cx="1157.33" cy="1443.65" r="7.2" fill="#4477aa" fill-rule="evenodd" fill-opacity="1" stroke="#000000" stroke-opacity="1" stroke-width="3.6"/>
<circle clip-path="url(#clip472)" cx="1167.12" cy="1465.18" r="7.2" fill="#4477aa" fill-rule="evenodd" fill-opacity="1" stroke="#000000" stroke-opacity="1" stroke-width="3.6"/>
<circle clip-path="url(#clip472)" cx="1176.91" cy="1431.83" r="7.2" fill="#4477aa" fill-rule="evenodd" fill-opacity="1" stroke="#000000" stroke-opacity="1" stroke-width="3.6"/>
<circle clip-path="url(#clip472)" cx="1186.7" cy="1456.71" r="7.2" fill="#4477aa" fill-rule="evenodd" fill-opacity="1" stroke="#000000" stroke-opacity="1" stroke-width="3.6"/>
<circle clip-path="url(#clip472)" cx="1196.49" cy="1378.15" r="7.2" fill="#4477aa" fill-rule="evenodd" fill-opacity="1" stroke="#000000" stroke-opacity="1" stroke-width="3.6"/>
<circle clip-path="url(#clip472)" cx="1206.28" cy="1464.38" r="7.2" fill="#4477aa" fill-rule="evenodd" fill-opacity="1" stroke="#000000" stroke-opacity="1" stroke-width="3.6"/>
<circle clip-path="url(#clip472)" cx="1216.07" cy="1463.61" r="7.2" fill="#4477aa" fill-rule="evenodd" fill-opacity="1" stroke="#000000" stroke-opacity="1" stroke-width="3.6"/>
<circle clip-path="url(#clip472)" cx="1225.86" cy="1420.22" r="7.2" fill="#4477aa" fill-rule="evenodd" fill-opacity="1" stroke="#000000" stroke-opacity="1" stroke-width="3.6"/>
<circle clip-path="url(#clip472)" cx="1235.65" cy="1425.37" r="7.2" fill="#4477aa" fill-rule="evenodd" fill-opacity="1" stroke="#000000" stroke-opacity="1" stroke-width="3.6"/>
<circle clip-path="url(#clip472)" cx="1245.43" cy="1447.12" r="7.2" fill="#4477aa" fill-rule="evenodd" fill-opacity="1" stroke="#000000" stroke-opacity="1" stroke-width="3.6"/>
<circle clip-path="url(#clip472)" cx="1255.22" cy="1446.81" r="7.2" fill="#4477aa" fill-rule="evenodd" fill-opacity="1" stroke="#000000" stroke-opacity="1" stroke-width="3.6"/>
<circle clip-path="url(#clip472)" cx="1265.01" cy="1459.1" r="7.2" fill="#4477aa" fill-rule="evenodd" fill-opacity="1" stroke="#000000" stroke-opacity="1" stroke-width="3.6"/>
<circle clip-path="url(#clip472)" cx="1274.8" cy="1444.55" r="7.2" fill="#4477aa" fill-rule="evenodd" fill-opacity="1" stroke="#000000" stroke-opacity="1" stroke-width="3.6"/>
<circle clip-path="url(#clip472)" cx="1284.59" cy="1461.07" r="7.2" fill="#4477aa" fill-rule="evenodd" fill-opacity="1" stroke="#000000" stroke-opacity="1" stroke-width="3.6"/>
<circle clip-path="url(#clip472)" cx="1294.38" cy="1463.63" r="7.2" fill="#4477aa" fill-rule="evenodd" fill-opacity="1" stroke="#000000" stroke-opacity="1" stroke-width="3.6"/>
<circle clip-path="url(#clip472)" cx="1304.17" cy="1458.72" r="7.2" fill="#4477aa" fill-rule="evenodd" fill-opacity="1" stroke="#000000" stroke-opacity="1" stroke-width="3.6"/>
<circle clip-path="url(#clip472)" cx="1313.96" cy="1423.71" r="7.2" fill="#4477aa" fill-rule="evenodd" fill-opacity="1" stroke="#000000" stroke-opacity="1" stroke-width="3.6"/>
<circle clip-path="url(#clip472)" cx="1323.75" cy="1418.38" r="7.2" fill="#4477aa" fill-rule="evenodd" fill-opacity="1" stroke="#000000" stroke-opacity="1" stroke-width="3.6"/>
<circle clip-path="url(#clip472)" cx="1333.53" cy="1457.82" r="7.2" fill="#4477aa" fill-rule="evenodd" fill-opacity="1" stroke="#000000" stroke-opacity="1" stroke-width="3.6"/>
<circle clip-path="url(#clip472)" cx="1343.32" cy="1459.98" r="7.2" fill="#4477aa" fill-rule="evenodd" fill-opacity="1" stroke="#000000" stroke-opacity="1" stroke-width="3.6"/>
<circle clip-path="url(#clip472)" cx="1353.11" cy="1446.74" r="7.2" fill="#4477aa" fill-rule="evenodd" fill-opacity="1" stroke="#000000" stroke-opacity="1" stroke-width="3.6"/>
<circle clip-path="url(#clip472)" cx="1362.9" cy="1450.7" r="7.2" fill="#4477aa" fill-rule="evenodd" fill-opacity="1" stroke="#000000" stroke-opacity="1" stroke-width="3.6"/>
<circle clip-path="url(#clip472)" cx="1372.69" cy="1465.08" r="7.2" fill="#4477aa" fill-rule="evenodd" fill-opacity="1" stroke="#000000" stroke-opacity="1" stroke-width="3.6"/>
<circle clip-path="url(#clip472)" cx="1382.48" cy="1461.25" r="7.2" fill="#4477aa" fill-rule="evenodd" fill-opacity="1" stroke="#000000" stroke-opacity="1" stroke-width="3.6"/>
<circle clip-path="url(#clip472)" cx="1392.27" cy="1459.1" r="7.2" fill="#4477aa" fill-rule="evenodd" fill-opacity="1" stroke="#000000" stroke-opacity="1" stroke-width="3.6"/>
<circle clip-path="url(#clip472)" cx="1402.06" cy="1444.1" r="7.2" fill="#4477aa" fill-rule="evenodd" fill-opacity="1" stroke="#000000" stroke-opacity="1" stroke-width="3.6"/>
<circle clip-path="url(#clip472)" cx="1411.85" cy="1460.77" r="7.2" fill="#4477aa" fill-rule="evenodd" fill-opacity="1" stroke="#000000" stroke-opacity="1" stroke-width="3.6"/>
<circle clip-path="url(#clip472)" cx="1421.63" cy="1464.31" r="7.2" fill="#4477aa" fill-rule="evenodd" fill-opacity="1" stroke="#000000" stroke-opacity="1" stroke-width="3.6"/>
<circle clip-path="url(#clip472)" cx="1431.42" cy="1458.17" r="7.2" fill="#4477aa" fill-rule="evenodd" fill-opacity="1" stroke="#000000" stroke-opacity="1" stroke-width="3.6"/>
<circle clip-path="url(#clip472)" cx="1441.21" cy="1446.34" r="7.2" fill="#4477aa" fill-rule="evenodd" fill-opacity="1" stroke="#000000" stroke-opacity="1" stroke-width="3.6"/>
<circle clip-path="url(#clip472)" cx="1451" cy="1429.62" r="7.2" fill="#4477aa" fill-rule="evenodd" fill-opacity="1" stroke="#000000" stroke-opacity="1" stroke-width="3.6"/>
<circle clip-path="url(#clip472)" cx="1460.79" cy="1459.13" r="7.2" fill="#4477aa" fill-rule="evenodd" fill-opacity="1" stroke="#000000" stroke-opacity="1" stroke-width="3.6"/>
<circle clip-path="url(#clip472)" cx="1470.58" cy="1462.35" r="7.2" fill="#4477aa" fill-rule="evenodd" fill-opacity="1" stroke="#000000" stroke-opacity="1" stroke-width="3.6"/>
<circle clip-path="url(#clip472)" cx="1480.37" cy="1453.77" r="7.2" fill="#4477aa" fill-rule="evenodd" fill-opacity="1" stroke="#000000" stroke-opacity="1" stroke-width="3.6"/>
<circle clip-path="url(#clip472)" cx="1490.16" cy="1451.41" r="7.2" fill="#4477aa" fill-rule="evenodd" fill-opacity="1" stroke="#000000" stroke-opacity="1" stroke-width="3.6"/>
<circle clip-path="url(#clip472)" cx="1499.95" cy="1439.3" r="7.2" fill="#4477aa" fill-rule="evenodd" fill-opacity="1" stroke="#000000" stroke-opacity="1" stroke-width="3.6"/>
<circle clip-path="url(#clip472)" cx="1509.73" cy="1463.13" r="7.2" fill="#4477aa" fill-rule="evenodd" fill-opacity="1" stroke="#000000" stroke-opacity="1" stroke-width="3.6"/>
<circle clip-path="url(#clip472)" cx="1519.52" cy="1452.31" r="7.2" fill="#4477aa" fill-rule="evenodd" fill-opacity="1" stroke="#000000" stroke-opacity="1" stroke-width="3.6"/>
<circle clip-path="url(#clip472)" cx="1529.31" cy="1457.44" r="7.2" fill="#4477aa" fill-rule="evenodd" fill-opacity="1" stroke="#000000" stroke-opacity="1" stroke-width="3.6"/>
<circle clip-path="url(#clip472)" cx="1539.1" cy="1463.95" r="7.2" fill="#4477aa" fill-rule="evenodd" fill-opacity="1" stroke="#000000" stroke-opacity="1" stroke-width="3.6"/>
<circle clip-path="url(#clip472)" cx="1548.89" cy="1465.22" r="7.2" fill="#4477aa" fill-rule="evenodd" fill-opacity="1" stroke="#000000" stroke-opacity="1" stroke-width="3.6"/>
<circle clip-path="url(#clip472)" cx="1558.68" cy="1458.92" r="7.2" fill="#4477aa" fill-rule="evenodd" fill-opacity="1" stroke="#000000" stroke-opacity="1" stroke-width="3.6"/>
<circle clip-path="url(#clip472)" cx="1568.47" cy="1465.04" r="7.2" fill="#4477aa" fill-rule="evenodd" fill-opacity="1" stroke="#000000" stroke-opacity="1" stroke-width="3.6"/>
<circle clip-path="url(#clip472)" cx="1578.26" cy="1451" r="7.2" fill="#4477aa" fill-rule="evenodd" fill-opacity="1" stroke="#000000" stroke-opacity="1" stroke-width="3.6"/>
<circle clip-path="url(#clip472)" cx="1588.05" cy="1461.94" r="7.2" fill="#4477aa" fill-rule="evenodd" fill-opacity="1" stroke="#000000" stroke-opacity="1" stroke-width="3.6"/>
<circle clip-path="url(#clip472)" cx="1597.84" cy="1416.48" r="7.2" fill="#4477aa" fill-rule="evenodd" fill-opacity="1" stroke="#000000" stroke-opacity="1" stroke-width="3.6"/>
<circle clip-path="url(#clip472)" cx="1607.62" cy="1465.19" r="7.2" fill="#4477aa" fill-rule="evenodd" fill-opacity="1" stroke="#000000" stroke-opacity="1" stroke-width="3.6"/>
<circle clip-path="url(#clip472)" cx="1617.41" cy="1461.79" r="7.2" fill="#4477aa" fill-rule="evenodd" fill-opacity="1" stroke="#000000" stroke-opacity="1" stroke-width="3.6"/>
<circle clip-path="url(#clip472)" cx="1627.2" cy="1438.16" r="7.2" fill="#4477aa" fill-rule="evenodd" fill-opacity="1" stroke="#000000" stroke-opacity="1" stroke-width="3.6"/>
<circle clip-path="url(#clip472)" cx="1636.99" cy="1429.78" r="7.2" fill="#4477aa" fill-rule="evenodd" fill-opacity="1" stroke="#000000" stroke-opacity="1" stroke-width="3.6"/>
<circle clip-path="url(#clip472)" cx="1646.78" cy="1448.47" r="7.2" fill="#4477aa" fill-rule="evenodd" fill-opacity="1" stroke="#000000" stroke-opacity="1" stroke-width="3.6"/>
<circle clip-path="url(#clip472)" cx="1656.57" cy="1458.95" r="7.2" fill="#4477aa" fill-rule="evenodd" fill-opacity="1" stroke="#000000" stroke-opacity="1" stroke-width="3.6"/>
<circle clip-path="url(#clip472)" cx="1666.36" cy="1462.31" r="7.2" fill="#4477aa" fill-rule="evenodd" fill-opacity="1" stroke="#000000" stroke-opacity="1" stroke-width="3.6"/>
<circle clip-path="url(#clip472)" cx="1676.15" cy="1445.04" r="7.2" fill="#4477aa" fill-rule="evenodd" fill-opacity="1" stroke="#000000" stroke-opacity="1" stroke-width="3.6"/>
<circle clip-path="url(#clip472)" cx="1685.94" cy="1461.88" r="7.2" fill="#4477aa" fill-rule="evenodd" fill-opacity="1" stroke="#000000" stroke-opacity="1" stroke-width="3.6"/>
<circle clip-path="url(#clip472)" cx="1695.72" cy="1465.16" r="7.2" fill="#4477aa" fill-rule="evenodd" fill-opacity="1" stroke="#000000" stroke-opacity="1" stroke-width="3.6"/>
<circle clip-path="url(#clip472)" cx="1705.51" cy="1460" r="7.2" fill="#4477aa" fill-rule="evenodd" fill-opacity="1" stroke="#000000" stroke-opacity="1" stroke-width="3.6"/>
<circle clip-path="url(#clip472)" cx="1715.3" cy="1444.08" r="7.2" fill="#4477aa" fill-rule="evenodd" fill-opacity="1" stroke="#000000" stroke-opacity="1" stroke-width="3.6"/>
<circle clip-path="url(#clip472)" cx="1725.09" cy="1437.05" r="7.2" fill="#4477aa" fill-rule="evenodd" fill-opacity="1" stroke="#000000" stroke-opacity="1" stroke-width="3.6"/>
<circle clip-path="url(#clip472)" cx="1734.88" cy="1455.73" r="7.2" fill="#4477aa" fill-rule="evenodd" fill-opacity="1" stroke="#000000" stroke-opacity="1" stroke-width="3.6"/>
<circle clip-path="url(#clip472)" cx="1744.67" cy="1462.99" r="7.2" fill="#4477aa" fill-rule="evenodd" fill-opacity="1" stroke="#000000" stroke-opacity="1" stroke-width="3.6"/>
<circle clip-path="url(#clip472)" cx="1754.46" cy="1448.32" r="7.2" fill="#4477aa" fill-rule="evenodd" fill-opacity="1" stroke="#000000" stroke-opacity="1" stroke-width="3.6"/>
<circle clip-path="url(#clip472)" cx="1764.25" cy="1457.65" r="7.2" fill="#4477aa" fill-rule="evenodd" fill-opacity="1" stroke="#000000" stroke-opacity="1" stroke-width="3.6"/>
<circle clip-path="url(#clip472)" cx="1774.04" cy="1464.18" r="7.2" fill="#4477aa" fill-rule="evenodd" fill-opacity="1" stroke="#000000" stroke-opacity="1" stroke-width="3.6"/>
<circle clip-path="url(#clip472)" cx="1783.82" cy="1459.92" r="7.2" fill="#4477aa" fill-rule="evenodd" fill-opacity="1" stroke="#000000" stroke-opacity="1" stroke-width="3.6"/>
<circle clip-path="url(#clip472)" cx="1793.61" cy="1462.06" r="7.2" fill="#4477aa" fill-rule="evenodd" fill-opacity="1" stroke="#000000" stroke-opacity="1" stroke-width="3.6"/>
<circle clip-path="url(#clip472)" cx="1803.4" cy="1443.22" r="7.2" fill="#4477aa" fill-rule="evenodd" fill-opacity="1" stroke="#000000" stroke-opacity="1" stroke-width="3.6"/>
<circle clip-path="url(#clip472)" cx="1813.19" cy="1465.21" r="7.2" fill="#4477aa" fill-rule="evenodd" fill-opacity="1" stroke="#000000" stroke-opacity="1" stroke-width="3.6"/>
<circle clip-path="url(#clip472)" cx="1822.98" cy="1461.24" r="7.2" fill="#4477aa" fill-rule="evenodd" fill-opacity="1" stroke="#000000" stroke-opacity="1" stroke-width="3.6"/>
<circle clip-path="url(#clip472)" cx="1832.77" cy="1456.35" r="7.2" fill="#4477aa" fill-rule="evenodd" fill-opacity="1" stroke="#000000" stroke-opacity="1" stroke-width="3.6"/>
<circle clip-path="url(#clip472)" cx="1842.56" cy="1452.56" r="7.2" fill="#4477aa" fill-rule="evenodd" fill-opacity="1" stroke="#000000" stroke-opacity="1" stroke-width="3.6"/>
<circle clip-path="url(#clip472)" cx="1852.35" cy="1449.84" r="7.2" fill="#4477aa" fill-rule="evenodd" fill-opacity="1" stroke="#000000" stroke-opacity="1" stroke-width="3.6"/>
<circle clip-path="url(#clip472)" cx="1862.14" cy="1464.69" r="7.2" fill="#4477aa" fill-rule="evenodd" fill-opacity="1" stroke="#000000" stroke-opacity="1" stroke-width="3.6"/>
<circle clip-path="url(#clip472)" cx="1871.92" cy="1464.93" r="7.2" fill="#4477aa" fill-rule="evenodd" fill-opacity="1" stroke="#000000" stroke-opacity="1" stroke-width="3.6"/>
<circle clip-path="url(#clip472)" cx="1881.71" cy="1450.64" r="7.2" fill="#4477aa" fill-rule="evenodd" fill-opacity="1" stroke="#000000" stroke-opacity="1" stroke-width="3.6"/>
<circle clip-path="url(#clip472)" cx="1891.5" cy="1457.04" r="7.2" fill="#4477aa" fill-rule="evenodd" fill-opacity="1" stroke="#000000" stroke-opacity="1" stroke-width="3.6"/>
<circle clip-path="url(#clip472)" cx="1901.29" cy="1457.13" r="7.2" fill="#4477aa" fill-rule="evenodd" fill-opacity="1" stroke="#000000" stroke-opacity="1" stroke-width="3.6"/>
<circle clip-path="url(#clip472)" cx="1911.08" cy="1464.68" r="7.2" fill="#4477aa" fill-rule="evenodd" fill-opacity="1" stroke="#000000" stroke-opacity="1" stroke-width="3.6"/>
<circle clip-path="url(#clip472)" cx="1920.87" cy="1450.29" r="7.2" fill="#4477aa" fill-rule="evenodd" fill-opacity="1" stroke="#000000" stroke-opacity="1" stroke-width="3.6"/>
<circle clip-path="url(#clip472)" cx="1930.66" cy="1461.23" r="7.2" fill="#4477aa" fill-rule="evenodd" fill-opacity="1" stroke="#000000" stroke-opacity="1" stroke-width="3.6"/>
<circle clip-path="url(#clip472)" cx="1940.45" cy="1461.42" r="7.2" fill="#4477aa" fill-rule="evenodd" fill-opacity="1" stroke="#000000" stroke-opacity="1" stroke-width="3.6"/>
<circle clip-path="url(#clip472)" cx="1950.24" cy="1464.99" r="7.2" fill="#4477aa" fill-rule="evenodd" fill-opacity="1" stroke="#000000" stroke-opacity="1" stroke-width="3.6"/>
<circle clip-path="url(#clip472)" cx="1960.02" cy="1463.62" r="7.2" fill="#4477aa" fill-rule="evenodd" fill-opacity="1" stroke="#000000" stroke-opacity="1" stroke-width="3.6"/>
<circle clip-path="url(#clip472)" cx="1969.81" cy="1464.59" r="7.2" fill="#4477aa" fill-rule="evenodd" fill-opacity="1" stroke="#000000" stroke-opacity="1" stroke-width="3.6"/>
<circle clip-path="url(#clip472)" cx="1979.6" cy="1458.47" r="7.2" fill="#4477aa" fill-rule="evenodd" fill-opacity="1" stroke="#000000" stroke-opacity="1" stroke-width="3.6"/>
<circle clip-path="url(#clip472)" cx="1989.39" cy="1463.87" r="7.2" fill="#4477aa" fill-rule="evenodd" fill-opacity="1" stroke="#000000" stroke-opacity="1" stroke-width="3.6"/>
<circle clip-path="url(#clip472)" cx="1999.18" cy="1433.73" r="7.2" fill="#4477aa" fill-rule="evenodd" fill-opacity="1" stroke="#000000" stroke-opacity="1" stroke-width="3.6"/>
<circle clip-path="url(#clip472)" cx="2008.97" cy="1464.52" r="7.2" fill="#4477aa" fill-rule="evenodd" fill-opacity="1" stroke="#000000" stroke-opacity="1" stroke-width="3.6"/>
<circle clip-path="url(#clip472)" cx="2018.76" cy="1460.41" r="7.2" fill="#4477aa" fill-rule="evenodd" fill-opacity="1" stroke="#000000" stroke-opacity="1" stroke-width="3.6"/>
<circle clip-path="url(#clip472)" cx="2028.55" cy="1446.53" r="7.2" fill="#4477aa" fill-rule="evenodd" fill-opacity="1" stroke="#000000" stroke-opacity="1" stroke-width="3.6"/>
<circle clip-path="url(#clip472)" cx="2038.34" cy="1432.23" r="7.2" fill="#4477aa" fill-rule="evenodd" fill-opacity="1" stroke="#000000" stroke-opacity="1" stroke-width="3.6"/>
<circle clip-path="url(#clip472)" cx="2048.12" cy="1449.24" r="7.2" fill="#4477aa" fill-rule="evenodd" fill-opacity="1" stroke="#000000" stroke-opacity="1" stroke-width="3.6"/>
<circle clip-path="url(#clip472)" cx="2057.91" cy="1463.09" r="7.2" fill="#4477aa" fill-rule="evenodd" fill-opacity="1" stroke="#000000" stroke-opacity="1" stroke-width="3.6"/>
<circle clip-path="url(#clip472)" cx="2067.7" cy="1463.64" r="7.2" fill="#4477aa" fill-rule="evenodd" fill-opacity="1" stroke="#000000" stroke-opacity="1" stroke-width="3.6"/>
<circle clip-path="url(#clip472)" cx="2077.49" cy="1445.32" r="7.2" fill="#4477aa" fill-rule="evenodd" fill-opacity="1" stroke="#000000" stroke-opacity="1" stroke-width="3.6"/>
<circle clip-path="url(#clip472)" cx="2087.28" cy="1462.31" r="7.2" fill="#4477aa" fill-rule="evenodd" fill-opacity="1" stroke="#000000" stroke-opacity="1" stroke-width="3.6"/>
<circle clip-path="url(#clip472)" cx="2097.07" cy="1463.93" r="7.2" fill="#4477aa" fill-rule="evenodd" fill-opacity="1" stroke="#000000" stroke-opacity="1" stroke-width="3.6"/>
<circle clip-path="url(#clip472)" cx="2106.86" cy="1460.69" r="7.2" fill="#4477aa" fill-rule="evenodd" fill-opacity="1" stroke="#000000" stroke-opacity="1" stroke-width="3.6"/>
<circle clip-path="url(#clip472)" cx="2116.65" cy="1452.82" r="7.2" fill="#4477aa" fill-rule="evenodd" fill-opacity="1" stroke="#000000" stroke-opacity="1" stroke-width="3.6"/>
<circle clip-path="url(#clip472)" cx="2126.44" cy="1445.76" r="7.2" fill="#4477aa" fill-rule="evenodd" fill-opacity="1" stroke="#000000" stroke-opacity="1" stroke-width="3.6"/>
<circle clip-path="url(#clip472)" cx="2136.23" cy="1454.4" r="7.2" fill="#4477aa" fill-rule="evenodd" fill-opacity="1" stroke="#000000" stroke-opacity="1" stroke-width="3.6"/>
<circle clip-path="url(#clip472)" cx="2146.01" cy="1464.16" r="7.2" fill="#4477aa" fill-rule="evenodd" fill-opacity="1" stroke="#000000" stroke-opacity="1" stroke-width="3.6"/>
<circle clip-path="url(#clip472)" cx="2155.8" cy="1449.21" r="7.2" fill="#4477aa" fill-rule="evenodd" fill-opacity="1" stroke="#000000" stroke-opacity="1" stroke-width="3.6"/>
<circle clip-path="url(#clip472)" cx="2165.59" cy="1460.67" r="7.2" fill="#4477aa" fill-rule="evenodd" fill-opacity="1" stroke="#000000" stroke-opacity="1" stroke-width="3.6"/>
<circle clip-path="url(#clip472)" cx="2175.38" cy="1463.28" r="7.2" fill="#4477aa" fill-rule="evenodd" fill-opacity="1" stroke="#000000" stroke-opacity="1" stroke-width="3.6"/>
<circle clip-path="url(#clip472)" cx="2185.17" cy="1459.06" r="7.2" fill="#4477aa" fill-rule="evenodd" fill-opacity="1" stroke="#000000" stroke-opacity="1" stroke-width="3.6"/>
<circle clip-path="url(#clip472)" cx="2194.96" cy="1463.34" r="7.2" fill="#4477aa" fill-rule="evenodd" fill-opacity="1" stroke="#000000" stroke-opacity="1" stroke-width="3.6"/>
<circle clip-path="url(#clip472)" cx="2204.75" cy="1442.7" r="7.2" fill="#4477aa" fill-rule="evenodd" fill-opacity="1" stroke="#000000" stroke-opacity="1" stroke-width="3.6"/>
<circle clip-path="url(#clip472)" cx="2214.54" cy="1464.12" r="7.2" fill="#4477aa" fill-rule="evenodd" fill-opacity="1" stroke="#000000" stroke-opacity="1" stroke-width="3.6"/>
<circle clip-path="url(#clip472)" cx="2224.33" cy="1458.44" r="7.2" fill="#4477aa" fill-rule="evenodd" fill-opacity="1" stroke="#000000" stroke-opacity="1" stroke-width="3.6"/>
<circle clip-path="url(#clip472)" cx="2234.11" cy="1455.19" r="7.2" fill="#4477aa" fill-rule="evenodd" fill-opacity="1" stroke="#000000" stroke-opacity="1" stroke-width="3.6"/>
<circle clip-path="url(#clip472)" cx="2243.9" cy="1455.61" r="7.2" fill="#4477aa" fill-rule="evenodd" fill-opacity="1" stroke="#000000" stroke-opacity="1" stroke-width="3.6"/>
<circle clip-path="url(#clip472)" cx="2253.69" cy="1457.77" r="7.2" fill="#4477aa" fill-rule="evenodd" fill-opacity="1" stroke="#000000" stroke-opacity="1" stroke-width="3.6"/>
<circle clip-path="url(#clip472)" cx="2263.48" cy="1465.14" r="7.2" fill="#4477aa" fill-rule="evenodd" fill-opacity="1" stroke="#000000" stroke-opacity="1" stroke-width="3.6"/>
<circle clip-path="url(#clip472)" cx="2273.27" cy="1465.21" r="7.2" fill="#4477aa" fill-rule="evenodd" fill-opacity="1" stroke="#000000" stroke-opacity="1" stroke-width="3.6"/>
<circle clip-path="url(#clip472)" cx="2283.06" cy="1448.64" r="7.2" fill="#4477aa" fill-rule="evenodd" fill-opacity="1" stroke="#000000" stroke-opacity="1" stroke-width="3.6"/>
<circle clip-path="url(#clip472)" cx="2292.85" cy="1459.65" r="7.2" fill="#4477aa" fill-rule="evenodd" fill-opacity="1" stroke="#000000" stroke-opacity="1" stroke-width="3.6"/>
<path clip-path="url(#clip470)" d="M1888.48 329.167 L2282.2 329.167 L2282.2 95.8868 L1888.48 95.8868  Z" fill="#ffffff" fill-rule="evenodd" fill-opacity="1"/>
<polyline clip-path="url(#clip470)" style="stroke:#000000; stroke-linecap:round; stroke-linejoin:round; stroke-width:4; stroke-opacity:1; fill:none" points="1888.48,329.167 2282.2,329.167 2282.2,95.8868 1888.48,95.8868 1888.48,329.167 "/>
<polyline clip-path="url(#clip470)" style="stroke:#4477aa; stroke-linecap:round; stroke-linejoin:round; stroke-width:18; stroke-opacity:1; fill:none" points="1912,212.527 2053.12,212.527 "/>
<circle clip-path="url(#clip470)" cx="1982.56" cy="212.527" r="8.71092" fill="#4477aa" fill-rule="evenodd" fill-opacity="1" stroke="#000000" stroke-opacity="1" stroke-width="8.71092"/>
<path clip-path="url(#clip470)" d="M2076.64 251.407 L2076.64 173.647 L2086.18 173.647 L2086.18 251.407 L2076.64 251.407 Z" fill="#000000" fill-rule="nonzero" fill-opacity="1" /><path clip-path="url(#clip470)" d="M2097.43 223.241 Q2097.43 207.594 2106.13 200.062 Q2113.4 193.803 2123.84 193.803 Q2135.46 193.803 2142.83 201.441 Q2150.21 209.026 2150.21 222.446 Q2150.21 233.319 2146.92 239.578 Q2143.68 245.784 2137.42 249.232 Q2131.22 252.68 2123.84 252.68 Q2112.02 252.68 2104.7 245.095 Q2097.43 237.51 2097.43 223.241 M2107.24 223.241 Q2107.24 234.062 2111.96 239.472 Q2116.68 244.83 2123.84 244.83 Q2130.95 244.83 2135.67 239.419 Q2140.39 234.009 2140.39 222.923 Q2140.39 212.474 2135.62 207.116 Q2130.9 201.706 2123.84 201.706 Q2116.68 201.706 2111.96 207.063 Q2107.24 212.421 2107.24 223.241 Z" fill="#000000" fill-rule="nonzero" fill-opacity="1" /><path clip-path="url(#clip470)" d="M2157.58 234.592 L2167.02 233.107 Q2167.82 238.783 2171.42 241.806 Q2175.08 244.83 2181.61 244.83 Q2188.18 244.83 2191.37 242.177 Q2194.55 239.472 2194.55 235.865 Q2194.55 232.63 2191.74 230.773 Q2189.78 229.5 2181.98 227.538 Q2171.48 224.886 2167.39 222.976 Q2163.36 221.014 2161.24 217.619 Q2159.17 214.171 2159.17 210.034 Q2159.17 206.268 2160.87 203.085 Q2162.62 199.85 2165.59 197.728 Q2167.82 196.084 2171.64 194.97 Q2175.51 193.803 2179.91 193.803 Q2186.54 193.803 2191.53 195.712 Q2196.57 197.622 2198.95 200.91 Q2201.34 204.146 2202.24 209.609 L2192.91 210.882 Q2192.27 206.533 2189.19 204.093 Q2186.17 201.653 2180.6 201.653 Q2174.02 201.653 2171.21 203.828 Q2168.4 206.003 2168.4 208.92 Q2168.4 210.776 2169.57 212.262 Q2170.73 213.8 2173.23 214.808 Q2174.66 215.338 2181.66 217.248 Q2191.79 219.953 2195.77 221.703 Q2199.8 223.4 2202.08 226.689 Q2204.36 229.978 2204.36 234.858 Q2204.36 239.631 2201.55 243.875 Q2198.79 248.065 2193.54 250.399 Q2188.29 252.68 2181.66 252.68 Q2170.68 252.68 2164.9 248.118 Q2159.17 243.556 2157.58 234.592 Z" fill="#000000" fill-rule="nonzero" fill-opacity="1" /><path clip-path="url(#clip470)" d="M2211.89 234.592 L2221.34 233.107 Q2222.13 238.783 2225.74 241.806 Q2229.4 244.83 2235.92 244.83 Q2242.5 244.83 2245.68 242.177 Q2248.87 239.472 2248.87 235.865 Q2248.87 232.63 2246.05 230.773 Q2244.09 229.5 2236.29 227.538 Q2225.79 224.886 2221.71 222.976 Q2217.68 221.014 2215.55 217.619 Q2213.49 214.171 2213.49 210.034 Q2213.49 206.268 2215.18 203.085 Q2216.93 199.85 2219.9 197.728 Q2222.13 196.084 2225.95 194.97 Q2229.82 193.803 2234.23 193.803 Q2240.86 193.803 2245.84 195.712 Q2250.88 197.622 2253.27 200.91 Q2255.65 204.146 2256.56 209.609 L2247.22 210.882 Q2246.58 206.533 2243.51 204.093 Q2240.48 201.653 2234.91 201.653 Q2228.34 201.653 2225.53 203.828 Q2222.72 206.003 2222.72 208.92 Q2222.72 210.776 2223.88 212.262 Q2225.05 213.8 2227.54 214.808 Q2228.97 215.338 2235.98 217.248 Q2246.11 219.953 2250.09 221.703 Q2254.12 223.4 2256.4 226.689 Q2258.68 229.978 2258.68 234.858 Q2258.68 239.631 2255.87 243.875 Q2253.11 248.065 2247.86 250.399 Q2242.61 252.68 2235.98 252.68 Q2225 252.68 2219.21 248.118 Q2213.49 243.556 2211.89 234.592 Z" fill="#000000" fill-rule="nonzero" fill-opacity="1" /></svg>
