<?xml version="1.0" encoding="utf-8"?>
<svg xmlns="http://www.w3.org/2000/svg" xmlns:xlink="http://www.w3.org/1999/xlink" width="600" height="450" viewBox="0 0 2400 1800">
<defs>
  <clipPath id="clip310">
    <rect x="0" y="0" width="2400" height="1800"/>
  </clipPath>
</defs>
<path clip-path="url(#clip310)" d="M0 1800 L2400 1800 L2400 0 L0 0  Z" fill="#ffffff" fill-rule="evenodd" fill-opacity="1"/>
<defs>
  <clipPath id="clip311">
    <rect x="480" y="0" width="1681" height="1681"/>
  </clipPath>
</defs>
<path clip-path="url(#clip310)" d="M317.003 1506.52 L2352.76 1506.52 L2352.76 47.2441 L317.003 47.2441  Z" fill="#ffffff" fill-rule="evenodd" fill-opacity="1"/>
<defs>
  <clipPath id="clip312">
    <rect x="317" y="47" width="2037" height="1460"/>
  </clipPath>
</defs>
<polyline clip-path="url(#clip312)" style="stroke:#000000; stroke-linecap:round; stroke-linejoin:round; stroke-width:2; stroke-opacity:0.1; fill:none" points="374.619,1506.52 374.619,47.2441 "/>
<polyline clip-path="url(#clip312)" style="stroke:#000000; stroke-linecap:round; stroke-linejoin:round; stroke-width:2; stroke-opacity:0.1; fill:none" points="854.749,1506.52 854.749,47.2441 "/>
<polyline clip-path="url(#clip312)" style="stroke:#000000; stroke-linecap:round; stroke-linejoin:round; stroke-width:2; stroke-opacity:0.1; fill:none" points="1334.88,1506.52 1334.88,47.2441 "/>
<polyline clip-path="url(#clip312)" style="stroke:#000000; stroke-linecap:round; stroke-linejoin:round; stroke-width:2; stroke-opacity:0.1; fill:none" points="1815.01,1506.52 1815.01,47.2441 "/>
<polyline clip-path="url(#clip312)" style="stroke:#000000; stroke-linecap:round; stroke-linejoin:round; stroke-width:2; stroke-opacity:0.1; fill:none" points="2295.14,1506.52 2295.14,47.2441 "/>
<polyline clip-path="url(#clip312)" style="stroke:#000000; stroke-linecap:round; stroke-linejoin:round; stroke-width:2; stroke-opacity:0.1; fill:none" points="317.003,1476.72 2352.76,1476.72 "/>
<polyline clip-path="url(#clip312)" style="stroke:#000000; stroke-linecap:round; stroke-linejoin:round; stroke-width:2; stroke-opacity:0.1; fill:none" points="317.003,1155.01 2352.76,1155.01 "/>
<polyline clip-path="url(#clip312)" style="stroke:#000000; stroke-linecap:round; stroke-linejoin:round; stroke-width:2; stroke-opacity:0.1; fill:none" points="317.003,833.297 2352.76,833.297 "/>
<polyline clip-path="url(#clip312)" style="stroke:#000000; stroke-linecap:round; stroke-linejoin:round; stroke-width:2; stroke-opacity:0.1; fill:none" points="317.003,511.584 2352.76,511.584 "/>
<polyline clip-path="url(#clip312)" style="stroke:#000000; stroke-linecap:round; stroke-linejoin:round; stroke-width:2; stroke-opacity:0.1; fill:none" points="317.003,189.871 2352.76,189.871 "/>
<polyline clip-path="url(#clip310)" style="stroke:#000000; stroke-linecap:round; stroke-linejoin:round; stroke-width:4; stroke-opacity:1; fill:none" points="317.003,1506.52 2352.76,1506.52 "/>
<polyline clip-path="url(#clip310)" style="stroke:#000000; stroke-linecap:round; stroke-linejoin:round; stroke-width:2; stroke-opacity:0.5; fill:none" points="317.003,47.2441 2352.76,47.2441 "/>
<polyline clip-path="url(#clip310)" style="stroke:#000000; stroke-linecap:round; stroke-linejoin:round; stroke-width:4; stroke-opacity:1; fill:none" points="374.619,1506.52 374.619,1487.63 "/>
<polyline clip-path="url(#clip310)" style="stroke:#000000; stroke-linecap:round; stroke-linejoin:round; stroke-width:4; stroke-opacity:1; fill:none" points="854.749,1506.52 854.749,1487.63 "/>
<polyline clip-path="url(#clip310)" style="stroke:#000000; stroke-linecap:round; stroke-linejoin:round; stroke-width:4; stroke-opacity:1; fill:none" points="1334.88,1506.52 1334.88,1487.63 "/>
<polyline clip-path="url(#clip310)" style="stroke:#000000; stroke-linecap:round; stroke-linejoin:round; stroke-width:4; stroke-opacity:1; fill:none" points="1815.01,1506.52 1815.01,1487.63 "/>
<polyline clip-path="url(#clip310)" style="stroke:#000000; stroke-linecap:round; stroke-linejoin:round; stroke-width:4; stroke-opacity:1; fill:none" points="2295.14,1506.52 2295.14,1487.63 "/>
<path clip-path="url(#clip310)" d="M387.349 1612.12 L378.862 1612.12 L378.862 1558.04 Q375.797 1560.97 370.8 1563.89 Q365.849 1566.81 361.889 1568.28 L361.889 1560.07 Q369.008 1556.72 374.336 1551.96 Q379.664 1547.2 381.88 1542.72 L387.349 1542.72 L387.349 1612.12 Z" fill="#000000" fill-rule="nonzero" fill-opacity="1" /><path clip-path="url(#clip310)" d="M877.64 1603.97 L877.64 1612.12 L831.953 1612.12 Q831.858 1609.06 832.943 1606.23 Q834.687 1601.56 838.506 1597.04 Q842.373 1592.51 849.633 1586.57 Q860.902 1577.33 864.862 1571.95 Q868.823 1566.53 868.823 1561.72 Q868.823 1556.68 865.193 1553.24 Q861.609 1549.75 855.81 1549.75 Q849.681 1549.75 846.003 1553.42 Q842.325 1557.1 842.278 1563.61 L833.556 1562.71 Q834.452 1552.95 840.298 1547.86 Q846.144 1542.72 855.999 1542.72 Q865.947 1542.72 871.746 1548.24 Q877.545 1553.75 877.545 1561.91 Q877.545 1566.06 875.848 1570.07 Q874.151 1574.07 870.19 1578.51 Q866.277 1582.94 857.13 1590.67 Q849.492 1597.08 847.323 1599.39 Q845.154 1601.66 843.74 1603.97 L877.64 1603.97 Z" fill="#000000" fill-rule="nonzero" fill-opacity="1" /><path clip-path="url(#clip310)" d="M1312.25 1593.88 L1320.73 1592.75 Q1322.2 1599.96 1325.69 1603.17 Q1329.22 1606.32 1334.27 1606.32 Q1340.25 1606.32 1344.36 1602.18 Q1348.51 1598.03 1348.51 1591.9 Q1348.51 1586.05 1344.69 1582.28 Q1340.87 1578.46 1334.97 1578.46 Q1332.57 1578.46 1328.99 1579.4 L1329.93 1571.95 Q1330.78 1572.05 1331.3 1572.05 Q1336.72 1572.05 1341.06 1569.22 Q1345.39 1566.39 1345.39 1560.5 Q1345.39 1555.83 1342.23 1552.76 Q1339.08 1549.7 1334.08 1549.7 Q1329.13 1549.7 1325.83 1552.81 Q1322.53 1555.92 1321.58 1562.15 L1313.1 1560.64 Q1314.65 1552.1 1320.17 1547.44 Q1325.69 1542.72 1333.89 1542.72 Q1339.55 1542.72 1344.31 1545.17 Q1349.07 1547.58 1351.57 1551.77 Q1354.12 1555.97 1354.12 1560.68 Q1354.12 1565.16 1351.71 1568.84 Q1349.31 1572.52 1344.59 1574.69 Q1350.72 1576.1 1354.12 1580.58 Q1357.51 1585.01 1357.51 1591.71 Q1357.51 1600.76 1350.91 1607.08 Q1344.31 1613.35 1334.22 1613.35 Q1325.12 1613.35 1319.08 1607.93 Q1313.1 1602.51 1312.25 1593.88 Z" fill="#000000" fill-rule="nonzero" fill-opacity="1" /><path clip-path="url(#clip310)" d="M1821.09 1612.12 L1821.09 1595.57 L1791.11 1595.57 L1791.11 1587.8 L1822.65 1543 L1829.58 1543 L1829.58 1587.8 L1838.91 1587.8 L1838.91 1595.57 L1829.58 1595.57 L1829.58 1612.12 L1821.09 1612.12 M1821.09 1587.8 L1821.09 1556.63 L1799.45 1587.8 L1821.09 1587.8 Z" fill="#000000" fill-rule="nonzero" fill-opacity="1" /><path clip-path="url(#clip310)" d="M2272.23 1594.02 L2281.14 1593.26 Q2282.13 1599.77 2285.71 1603.07 Q2289.34 1606.32 2294.43 1606.32 Q2300.56 1606.32 2304.81 1601.7 Q2309.05 1597.08 2309.05 1589.45 Q2309.05 1582.18 2304.95 1577.99 Q2300.89 1573.79 2294.29 1573.79 Q2290.19 1573.79 2286.89 1575.68 Q2283.59 1577.52 2281.7 1580.49 L2273.73 1579.45 L2280.43 1543.95 L2314.8 1543.95 L2314.8 1552.06 L2287.22 1552.06 L2283.49 1570.63 Q2289.72 1566.3 2296.55 1566.3 Q2305.61 1566.3 2311.83 1572.57 Q2318.05 1578.84 2318.05 1588.69 Q2318.05 1598.07 2312.59 1604.91 Q2305.94 1613.3 2294.43 1613.3 Q2285 1613.3 2279.02 1608.02 Q2273.07 1602.74 2272.23 1594.02 Z" fill="#000000" fill-rule="nonzero" fill-opacity="1" /><path clip-path="url(#clip310)" d="M1234.31 1721.38 L1244.18 1722.6 Q1241.84 1731.24 1235.53 1736.01 Q1229.22 1740.79 1219.41 1740.79 Q1207.05 1740.79 1199.78 1733.2 Q1192.57 1725.57 1192.57 1711.83 Q1192.57 1697.61 1199.89 1689.76 Q1207.21 1681.91 1218.88 1681.91 Q1230.17 1681.91 1237.33 1689.6 Q1244.5 1697.29 1244.5 1711.24 Q1244.5 1712.09 1244.44 1713.79 L1202.43 1713.79 Q1202.96 1723.07 1207.68 1728.01 Q1212.4 1732.94 1219.46 1732.94 Q1224.71 1732.94 1228.42 1730.18 Q1232.14 1727.42 1234.31 1721.38 M1202.96 1705.94 L1234.42 1705.94 Q1233.78 1698.83 1230.81 1695.28 Q1226.25 1689.76 1218.98 1689.76 Q1212.4 1689.76 1207.9 1694.16 Q1203.44 1698.57 1202.96 1705.94 Z" fill="#000000" fill-rule="nonzero" fill-opacity="1" /><path clip-path="url(#clip310)" d="M1256.16 1761.1 L1256.16 1683.18 L1264.86 1683.18 L1264.86 1690.5 Q1267.94 1686.21 1271.81 1684.09 Q1275.68 1681.91 1281.2 1681.91 Q1288.41 1681.91 1293.93 1685.62 Q1299.45 1689.34 1302.26 1696.13 Q1305.07 1702.86 1305.07 1710.93 Q1305.07 1719.57 1301.94 1726.52 Q1298.86 1733.42 1292.92 1737.13 Q1287.04 1740.79 1280.51 1740.79 Q1275.74 1740.79 1271.92 1738.77 Q1268.15 1736.76 1265.71 1733.68 L1265.71 1761.1 L1256.16 1761.1 M1264.81 1711.67 Q1264.81 1722.54 1269.21 1727.74 Q1273.62 1732.94 1279.87 1732.94 Q1286.24 1732.94 1290.75 1727.58 Q1295.31 1722.17 1295.31 1710.87 Q1295.31 1700.11 1290.85 1694.75 Q1286.45 1689.39 1280.3 1689.39 Q1274.2 1689.39 1269.48 1695.12 Q1264.81 1700.79 1264.81 1711.67 Z" fill="#000000" fill-rule="nonzero" fill-opacity="1" /><path clip-path="url(#clip310)" d="M1313.03 1711.35 Q1313.03 1695.7 1321.72 1688.17 Q1328.99 1681.91 1339.44 1681.91 Q1351.06 1681.91 1358.43 1689.55 Q1365.8 1697.13 1365.8 1710.55 Q1365.8 1721.43 1362.51 1727.69 Q1359.28 1733.89 1353.02 1737.34 Q1346.81 1740.79 1339.44 1740.79 Q1327.61 1740.79 1320.29 1733.2 Q1313.03 1725.62 1313.03 1711.35 M1322.84 1711.35 Q1322.84 1722.17 1327.56 1727.58 Q1332.28 1732.94 1339.44 1732.94 Q1346.55 1732.94 1351.27 1727.53 Q1355.99 1722.12 1355.99 1711.03 Q1355.99 1700.58 1351.22 1695.23 Q1346.5 1689.82 1339.44 1689.82 Q1332.28 1689.82 1327.56 1695.17 Q1322.84 1700.53 1322.84 1711.35 Z" fill="#000000" fill-rule="nonzero" fill-opacity="1" /><path clip-path="url(#clip310)" d="M1413.75 1718.88 L1423.14 1720.1 Q1421.6 1729.81 1415.24 1735.33 Q1408.93 1740.79 1399.7 1740.79 Q1388.13 1740.79 1381.08 1733.26 Q1374.08 1725.67 1374.08 1711.56 Q1374.08 1702.44 1377.1 1695.6 Q1380.12 1688.75 1386.28 1685.36 Q1392.48 1681.91 1399.75 1681.91 Q1408.93 1681.91 1414.76 1686.58 Q1420.6 1691.19 1422.24 1699.73 L1412.96 1701.17 Q1411.63 1695.49 1408.24 1692.63 Q1404.9 1689.76 1400.12 1689.76 Q1392.91 1689.76 1388.4 1694.96 Q1383.89 1700.11 1383.89 1711.3 Q1383.89 1722.65 1388.24 1727.79 Q1392.59 1732.94 1399.59 1732.94 Q1405.21 1732.94 1408.98 1729.49 Q1412.75 1726.04 1413.75 1718.88 Z" fill="#000000" fill-rule="nonzero" fill-opacity="1" /><path clip-path="url(#clip310)" d="M1431.31 1739.52 L1431.31 1661.76 L1440.86 1661.76 L1440.86 1689.66 Q1447.54 1681.91 1457.73 1681.91 Q1463.98 1681.91 1468.6 1684.4 Q1473.21 1686.84 1475.18 1691.19 Q1477.19 1695.54 1477.19 1703.82 L1477.19 1739.52 L1467.64 1739.52 L1467.64 1703.82 Q1467.64 1696.66 1464.51 1693.42 Q1461.44 1690.13 1455.76 1690.13 Q1451.52 1690.13 1447.75 1692.36 Q1444.04 1694.54 1442.45 1698.3 Q1440.86 1702.07 1440.86 1708.7 L1440.86 1739.52 L1431.31 1739.52 Z" fill="#000000" fill-rule="nonzero" fill-opacity="1" /><polyline clip-path="url(#clip310)" style="stroke:#000000; stroke-linecap:round; stroke-linejoin:round; stroke-width:4; stroke-opacity:1; fill:none" points="317.003,1506.52 317.003,47.2441 "/>
<polyline clip-path="url(#clip310)" style="stroke:#000000; stroke-linecap:round; stroke-linejoin:round; stroke-width:2; stroke-opacity:0.5; fill:none" points="2352.76,1506.52 2352.76,47.2441 "/>
<polyline clip-path="url(#clip310)" style="stroke:#000000; stroke-linecap:round; stroke-linejoin:round; stroke-width:4; stroke-opacity:1; fill:none" points="317.003,1476.72 335.901,1476.72 "/>
<polyline clip-path="url(#clip310)" style="stroke:#000000; stroke-linecap:round; stroke-linejoin:round; stroke-width:4; stroke-opacity:1; fill:none" points="317.003,1155.01 335.901,1155.01 "/>
<polyline clip-path="url(#clip310)" style="stroke:#000000; stroke-linecap:round; stroke-linejoin:round; stroke-width:4; stroke-opacity:1; fill:none" points="317.003,833.297 335.901,833.297 "/>
<polyline clip-path="url(#clip310)" style="stroke:#000000; stroke-linecap:round; stroke-linejoin:round; stroke-width:4; stroke-opacity:1; fill:none" points="317.003,511.584 335.901,511.584 "/>
<polyline clip-path="url(#clip310)" style="stroke:#000000; stroke-linecap:round; stroke-linejoin:round; stroke-width:4; stroke-opacity:1; fill:none" points="317.003,189.871 335.901,189.871 "/>
<path clip-path="url(#clip310)" d="M155.399 1477.2 Q155.399 1464.94 157.898 1457.49 Q160.444 1449.99 165.394 1445.94 Q170.392 1441.88 177.936 1441.88 Q183.5 1441.88 187.696 1444.14 Q191.892 1446.36 194.627 1450.6 Q197.361 1454.8 198.917 1460.88 Q200.473 1466.92 200.473 1477.2 Q200.473 1489.36 197.974 1496.86 Q195.475 1504.31 190.478 1508.41 Q185.527 1512.46 177.936 1512.46 Q167.94 1512.46 162.235 1505.3 Q155.399 1496.67 155.399 1477.2 M164.121 1477.2 Q164.121 1494.22 168.082 1499.87 Q172.09 1505.48 177.936 1505.48 Q183.782 1505.48 187.743 1499.83 Q191.751 1494.17 191.751 1477.2 Q191.751 1460.13 187.743 1454.52 Q183.782 1448.91 177.842 1448.91 Q171.995 1448.91 168.506 1453.86 Q164.121 1460.17 164.121 1477.2 Z" fill="#000000" fill-rule="nonzero" fill-opacity="1" /><path clip-path="url(#clip310)" d="M213.863 1511.28 L213.863 1501.62 L223.529 1501.62 L223.529 1511.28 L213.863 1511.28 Z" fill="#000000" fill-rule="nonzero" fill-opacity="1" /><path clip-path="url(#clip310)" d="M235.929 1477.2 Q235.929 1464.94 238.428 1457.49 Q240.974 1449.99 245.924 1445.94 Q250.922 1441.88 258.466 1441.88 Q264.029 1441.88 268.226 1444.14 Q272.422 1446.36 275.157 1450.6 Q277.891 1454.8 279.447 1460.88 Q281.003 1466.92 281.003 1477.2 Q281.003 1489.36 278.504 1496.86 Q276.005 1504.31 271.007 1508.41 Q266.057 1512.46 258.466 1512.46 Q248.47 1512.46 242.765 1505.3 Q235.929 1496.67 235.929 1477.2 M244.651 1477.2 Q244.651 1494.22 248.612 1499.87 Q252.62 1505.48 258.466 1505.48 Q264.312 1505.48 268.273 1499.83 Q272.281 1494.17 272.281 1477.2 Q272.281 1460.13 268.273 1454.52 Q264.312 1448.91 258.372 1448.91 Q252.525 1448.91 249.036 1453.86 Q244.651 1460.17 244.651 1477.2 Z" fill="#000000" fill-rule="nonzero" fill-opacity="1" /><path clip-path="url(#clip310)" d="M154.644 1155.48 Q154.644 1143.22 157.143 1135.77 Q159.689 1128.28 164.64 1124.22 Q169.638 1120.17 177.182 1120.17 Q182.745 1120.17 186.941 1122.43 Q191.138 1124.65 193.872 1128.89 Q196.607 1133.09 198.163 1139.17 Q199.719 1145.2 199.719 1155.48 Q199.719 1167.65 197.22 1175.14 Q194.721 1182.59 189.723 1186.69 Q184.773 1190.75 177.182 1190.75 Q167.186 1190.75 161.481 1183.58 Q154.644 1174.95 154.644 1155.48 M163.367 1155.48 Q163.367 1172.5 167.327 1178.16 Q171.335 1183.77 177.182 1183.77 Q183.028 1183.77 186.989 1178.11 Q190.996 1172.46 190.996 1155.48 Q190.996 1138.41 186.989 1132.8 Q183.028 1127.19 177.087 1127.19 Q171.241 1127.19 167.752 1132.14 Q163.367 1138.46 163.367 1155.48 Z" fill="#000000" fill-rule="nonzero" fill-opacity="1" /><path clip-path="url(#clip310)" d="M213.109 1189.57 L213.109 1179.91 L222.774 1179.91 L222.774 1189.57 L213.109 1189.57 Z" fill="#000000" fill-rule="nonzero" fill-opacity="1" /><path clip-path="url(#clip310)" d="M235.174 1171.47 L244.086 1170.71 Q245.076 1177.22 248.659 1180.52 Q252.289 1183.77 257.382 1183.77 Q263.511 1183.77 267.754 1179.15 Q271.998 1174.53 271.998 1166.89 Q271.998 1159.63 267.896 1155.43 Q263.841 1151.24 257.24 1151.24 Q253.138 1151.24 249.838 1153.12 Q246.537 1154.96 244.651 1157.93 L236.683 1156.9 L243.378 1121.39 L277.75 1121.39 L277.75 1129.5 L250.168 1129.5 L246.443 1148.08 Q252.667 1143.74 259.503 1143.74 Q268.556 1143.74 274.779 1150.01 Q281.003 1156.28 281.003 1166.14 Q281.003 1175.52 275.534 1182.36 Q268.886 1190.75 257.382 1190.75 Q247.952 1190.75 241.964 1185.47 Q236.023 1180.19 235.174 1171.47 Z" fill="#000000" fill-rule="nonzero" fill-opacity="1" /><path clip-path="url(#clip310)" d="M187.366 867.857 L178.879 867.857 L178.879 813.778 Q175.814 816.701 170.817 819.624 Q165.866 822.547 161.905 824.009 L161.905 815.805 Q169.025 812.458 174.353 807.696 Q179.68 802.934 181.896 798.454 L187.366 798.454 L187.366 867.857 Z" fill="#000000" fill-rule="nonzero" fill-opacity="1" /><path clip-path="url(#clip310)" d="M213.863 867.857 L213.863 858.192 L223.529 858.192 L223.529 867.857 L213.863 867.857 Z" fill="#000000" fill-rule="nonzero" fill-opacity="1" /><path clip-path="url(#clip310)" d="M235.929 833.769 Q235.929 821.51 238.428 814.061 Q240.974 806.564 245.924 802.509 Q250.922 798.454 258.466 798.454 Q264.029 798.454 268.226 800.718 Q272.422 802.934 275.157 807.177 Q277.891 811.373 279.447 817.455 Q281.003 823.49 281.003 833.769 Q281.003 845.933 278.504 853.43 Q276.005 860.879 271.007 864.981 Q266.057 869.036 258.466 869.036 Q248.47 869.036 242.765 861.869 Q235.929 853.241 235.929 833.769 M244.651 833.769 Q244.651 850.79 248.612 856.447 Q252.62 862.058 258.466 862.058 Q264.312 862.058 268.273 856.4 Q272.281 850.742 272.281 833.769 Q272.281 816.701 268.273 811.09 Q264.312 805.48 258.372 805.48 Q252.525 805.48 249.036 810.43 Q244.651 816.748 244.651 833.769 Z" fill="#000000" fill-rule="nonzero" fill-opacity="1" /><path clip-path="url(#clip310)" d="M186.611 546.144 L178.125 546.144 L178.125 492.065 Q175.06 494.988 170.062 497.911 Q165.112 500.834 161.151 502.296 L161.151 494.092 Q168.27 490.744 173.598 485.982 Q178.926 481.22 181.142 476.741 L186.611 476.741 L186.611 546.144 Z" fill="#000000" fill-rule="nonzero" fill-opacity="1" /><path clip-path="url(#clip310)" d="M213.109 546.144 L213.109 536.479 L222.774 536.479 L222.774 546.144 L213.109 546.144 Z" fill="#000000" fill-rule="nonzero" fill-opacity="1" /><path clip-path="url(#clip310)" d="M235.174 528.039 L244.086 527.285 Q245.076 533.791 248.659 537.092 Q252.289 540.345 257.382 540.345 Q263.511 540.345 267.754 535.724 Q271.998 531.104 271.998 523.466 Q271.998 516.205 267.896 512.008 Q263.841 507.812 257.24 507.812 Q253.138 507.812 249.838 509.698 Q246.537 511.537 244.651 514.507 L236.683 513.47 L243.378 477.967 L277.75 477.967 L277.75 486.077 L250.168 486.077 L246.443 504.653 Q252.667 500.316 259.503 500.316 Q268.556 500.316 274.779 506.586 Q281.003 512.857 281.003 522.711 Q281.003 532.094 275.534 538.93 Q268.886 547.323 257.382 547.323 Q247.952 547.323 241.964 542.042 Q236.023 536.762 235.174 528.039 Z" fill="#000000" fill-rule="nonzero" fill-opacity="1" /><path clip-path="url(#clip310)" d="M200.002 216.274 L200.002 224.431 L154.314 224.431 Q154.22 221.366 155.305 218.537 Q157.049 213.87 160.868 209.343 Q164.734 204.817 171.995 198.876 Q183.264 189.635 187.224 184.26 Q191.185 178.838 191.185 174.029 Q191.185 168.984 187.554 165.542 Q183.971 162.053 178.172 162.053 Q172.042 162.053 168.365 165.731 Q164.687 169.408 164.64 175.915 L155.918 175.019 Q156.813 165.259 162.66 160.167 Q168.506 155.028 178.36 155.028 Q188.309 155.028 194.108 160.544 Q199.907 166.061 199.907 174.218 Q199.907 178.367 198.21 182.374 Q196.513 186.382 192.552 190.814 Q188.639 195.246 179.492 202.978 Q171.854 209.39 169.685 211.701 Q167.516 213.964 166.102 216.274 L200.002 216.274 Z" fill="#000000" fill-rule="nonzero" fill-opacity="1" /><path clip-path="url(#clip310)" d="M213.863 224.431 L213.863 214.765 L223.529 214.765 L223.529 224.431 L213.863 224.431 Z" fill="#000000" fill-rule="nonzero" fill-opacity="1" /><path clip-path="url(#clip310)" d="M235.929 190.342 Q235.929 178.084 238.428 170.634 Q240.974 163.138 245.924 159.083 Q250.922 155.028 258.466 155.028 Q264.029 155.028 268.226 157.291 Q272.422 159.507 275.157 163.751 Q277.891 167.947 279.447 174.029 Q281.003 180.064 281.003 190.342 Q281.003 202.507 278.504 210.003 Q276.005 217.453 271.007 221.555 Q266.057 225.61 258.466 225.61 Q248.47 225.61 242.765 218.443 Q235.929 209.815 235.929 190.342 M244.651 190.342 Q244.651 207.363 248.612 213.021 Q252.62 218.632 258.466 218.632 Q264.312 218.632 268.273 212.974 Q272.281 207.316 272.281 190.342 Q272.281 173.275 268.273 167.664 Q264.312 162.053 258.372 162.053 Q252.525 162.053 249.036 167.004 Q244.651 173.322 244.651 190.342 Z" fill="#000000" fill-rule="nonzero" fill-opacity="1" /><path clip-path="url(#clip310)" d="M94.8922 867.905 L17.1322 867.905 L17.1322 858.357 L94.8922 858.357 L94.8922 867.905 Z" fill="#000000" fill-rule="nonzero" fill-opacity="1" /><path clip-path="url(#clip310)" d="M66.7267 847.112 Q51.0792 847.112 43.5472 838.413 Q37.2882 831.146 37.2882 820.697 Q37.2882 809.081 44.9263 801.708 Q52.5114 794.335 65.9311 794.335 Q76.8047 794.335 83.0637 797.623 Q89.2697 800.859 92.7174 807.118 Q96.1652 813.324 96.1652 820.697 Q96.1652 832.525 88.5801 839.845 Q80.9951 847.112 66.7267 847.112 M66.7267 837.299 Q77.5473 837.299 82.9576 832.578 Q88.3149 827.858 88.3149 820.697 Q88.3149 813.589 82.9046 808.868 Q77.4943 804.148 66.4084 804.148 Q55.9591 804.148 50.6018 808.921 Q45.1915 813.642 45.1915 820.697 Q45.1915 827.858 50.5488 832.578 Q55.9061 837.299 66.7267 837.299 Z" fill="#000000" fill-rule="nonzero" fill-opacity="1" /><path clip-path="url(#clip310)" d="M78.0778 786.962 L76.5926 777.52 Q82.2681 776.725 85.2915 773.118 Q88.3149 769.458 88.3149 762.934 Q88.3149 756.357 85.6628 753.174 Q82.9576 749.991 79.3508 749.991 Q76.1152 749.991 74.2587 752.803 Q72.9857 754.765 71.0231 762.563 Q68.371 773.065 66.4615 777.149 Q64.4989 781.18 61.1042 783.302 Q57.6565 785.371 53.5192 785.371 Q49.7532 785.371 46.5706 783.673 Q43.335 781.923 41.2134 778.953 Q39.569 776.725 38.4552 772.906 Q37.2882 769.034 37.2882 764.631 Q37.2882 758.001 39.1978 753.015 Q41.1073 747.976 44.3959 745.589 Q47.6315 743.202 53.0948 742.3 L54.3678 751.636 Q50.0184 752.272 47.5784 755.349 Q45.1385 758.372 45.1385 763.942 Q45.1385 770.519 47.3132 773.33 Q49.488 776.141 52.4053 776.141 Q54.2618 776.141 55.7469 774.974 Q57.2852 773.807 58.293 771.314 Q58.8234 769.882 60.7329 762.881 Q63.4381 752.75 65.1885 748.772 Q66.8858 744.74 70.1744 742.459 Q73.4631 740.179 78.343 740.179 Q83.1168 740.179 87.3602 742.99 Q91.5505 745.748 93.8844 750.999 Q96.1652 756.25 96.1652 762.881 Q96.1652 773.861 91.6035 779.642 Q87.0419 785.371 78.0778 786.962 Z" fill="#000000" fill-rule="nonzero" fill-opacity="1" /><path clip-path="url(#clip310)" d="M78.0778 732.647 L76.5926 723.205 Q82.2681 722.41 85.2915 718.803 Q88.3149 715.143 88.3149 708.619 Q88.3149 702.041 85.6628 698.859 Q82.9576 695.676 79.3508 695.676 Q76.1152 695.676 74.2587 698.487 Q72.9857 700.45 71.0231 708.247 Q68.371 718.75 66.4615 722.834 Q64.4989 726.865 61.1042 728.987 Q57.6565 731.055 53.5192 731.055 Q49.7532 731.055 46.5706 729.358 Q43.335 727.608 41.2134 724.637 Q39.569 722.41 38.4552 718.59 Q37.2882 714.718 37.2882 710.316 Q37.2882 703.686 39.1978 698.7 Q41.1073 693.661 44.3959 691.274 Q47.6315 688.887 53.0948 687.985 L54.3678 697.32 Q50.0184 697.957 47.5784 701.033 Q45.1385 704.057 45.1385 709.626 Q45.1385 716.204 47.3132 719.015 Q49.488 721.826 52.4053 721.826 Q54.2618 721.826 55.7469 720.659 Q57.2852 719.492 58.293 716.999 Q58.8234 715.567 60.7329 708.565 Q63.4381 698.434 65.1885 694.456 Q66.8858 690.425 70.1744 688.144 Q73.4631 685.863 78.343 685.863 Q83.1168 685.863 87.3602 688.675 Q91.5505 691.433 93.8844 696.684 Q96.1652 701.935 96.1652 708.565 Q96.1652 719.545 91.6035 725.327 Q87.0419 731.055 78.0778 732.647 Z" fill="#000000" fill-rule="nonzero" fill-opacity="1" /><polyline clip-path="url(#clip312)" style="stroke:#4477aa; stroke-linecap:round; stroke-linejoin:round; stroke-width:8; stroke-opacity:1; fill:none" points="374.619,1223.94 854.749,1425.6 1334.88,1452.73 1815.01,1462.05 2295.14,1465.22 "/>
<circle clip-path="url(#clip312)" cx="374.619" cy="1223.94" r="14.4" fill="#4477aa" fill-rule="evenodd" fill-opacity="1" stroke="#000000" stroke-opacity="1" stroke-width="3.6"/>
<circle clip-path="url(#clip312)" cx="854.749" cy="1425.6" r="14.4" fill="#4477aa" fill-rule="evenodd" fill-opacity="1" stroke="#000000" stroke-opacity="1" stroke-width="3.6"/>
<circle clip-path="url(#clip312)" cx="1334.88" cy="1452.73" r="14.4" fill="#4477aa" fill-rule="evenodd" fill-opacity="1" stroke="#000000" stroke-opacity="1" stroke-width="3.6"/>
<circle clip-path="url(#clip312)" cx="1815.01" cy="1462.05" r="14.4" fill="#4477aa" fill-rule="evenodd" fill-opacity="1" stroke="#000000" stroke-opacity="1" stroke-width="3.6"/>
<circle clip-path="url(#clip312)" cx="2295.14" cy="1465.22" r="14.4" fill="#4477aa" fill-rule="evenodd" fill-opacity="1" stroke="#000000" stroke-opacity="1" stroke-width="3.6"/>
<polyline clip-path="url(#clip312)" style="stroke:#ee6677; stroke-linecap:round; stroke-linejoin:round; stroke-width:8; stroke-opacity:1; fill:none" points="374.619,88.5445 854.749,1383.27 1334.88,1435.04 1815.01,1453.36 2295.14,1460.19 "/>
<circle clip-path="url(#clip312)" cx="374.619" cy="88.5445" r="14.4" fill="#ee6677" fill-rule="evenodd" fill-opacity="1" stroke="#000000" stroke-opacity="1" stroke-width="3.6"/>
<circle clip-path="url(#clip312)" cx="854.749" cy="1383.27" r="14.4" fill="#ee6677" fill-rule="evenodd" fill-opacity="1" stroke="#000000" stroke-opacity="1" stroke-width="3.6"/>
<circle clip-path="url(#clip312)" cx="1334.88" cy="1435.04" r="14.4" fill="#ee6677" fill-rule="evenodd" fill-opacity="1" stroke="#000000" stroke-opacity="1" stroke-width="3.6"/>
<circle clip-path="url(#clip312)" cx="1815.01" cy="1453.36" r="14.4" fill="#ee6677" fill-rule="evenodd" fill-opacity="1" stroke="#000000" stroke-opacity="1" stroke-width="3.6"/>
<circle clip-path="url(#clip312)" cx="2295.14" cy="1460.19" r="14.4" fill="#ee6677" fill-rule="evenodd" fill-opacity="1" stroke="#000000" stroke-opacity="1" stroke-width="3.6"/>
<path clip-path="url(#clip310)" d="M1622.51 445.807 L2284.9 445.807 L2284.9 95.8868 L1622.51 95.8868  Z" fill="#ffffff" fill-rule="evenodd" fill-opacity="1"/>
<polyline clip-path="url(#clip310)" style="stroke:#000000; stroke-linecap:round; stroke-linejoin:round; stroke-width:4; stroke-opacity:1; fill:none" points="1622.51,445.807 2284.9,445.807 2284.9,95.8868 1622.51,95.8868 1622.51,445.807 "/>
<polyline clip-path="url(#clip310)" style="stroke:#4477aa; stroke-linecap:round; stroke-linejoin:round; stroke-width:18; stroke-opacity:1; fill:none" points="1645.13,212.527 1780.84,212.527 "/>
<circle clip-path="url(#clip310)" cx="1712.98" cy="212.527" r="8.37758" fill="#4477aa" fill-rule="evenodd" fill-opacity="1" stroke="#000000" stroke-opacity="1" stroke-width="8.37758"/>
<path clip-path="url(#clip310)" d="M1829.56 242.867 L1830.94 251.301 Q1826.91 252.149 1823.72 252.149 Q1818.53 252.149 1815.66 250.505 Q1812.8 248.861 1811.63 246.209 Q1810.46 243.503 1810.46 234.911 L1810.46 202.502 L1803.46 202.502 L1803.46 195.076 L1810.46 195.076 L1810.46 181.126 L1819.96 175.397 L1819.96 195.076 L1829.56 195.076 L1829.56 202.502 L1819.96 202.502 L1819.96 235.441 Q1819.96 239.525 1820.44 240.692 Q1820.97 241.859 1822.08 242.549 Q1823.25 243.238 1825.37 243.238 Q1826.96 243.238 1829.56 242.867 Z" fill="#000000" fill-rule="nonzero" fill-opacity="1" /><path clip-path="url(#clip310)" d="M1838.79 251.407 L1838.79 195.076 L1847.38 195.076 L1847.38 203.616 Q1850.67 197.622 1853.43 195.712 Q1856.24 193.803 1859.58 193.803 Q1864.41 193.803 1869.39 196.879 L1866.11 205.737 Q1862.6 203.669 1859.1 203.669 Q1855.97 203.669 1853.48 205.578 Q1850.99 207.435 1849.93 210.776 Q1848.34 215.868 1848.34 221.915 L1848.34 251.407 L1838.79 251.407 Z" fill="#000000" fill-rule="nonzero" fill-opacity="1" /><path clip-path="url(#clip310)" d="M1911.83 244.458 Q1906.52 248.967 1901.59 250.823 Q1896.71 252.68 1891.09 252.68 Q1881.81 252.68 1876.82 248.171 Q1871.83 243.61 1871.83 236.555 Q1871.83 232.418 1873.69 229.023 Q1875.6 225.575 1878.62 223.507 Q1881.7 221.438 1885.52 220.377 Q1888.33 219.634 1894.01 218.945 Q1905.57 217.566 1911.03 215.656 Q1911.08 213.694 1911.08 213.163 Q1911.08 207.329 1908.38 204.942 Q1904.72 201.706 1897.51 201.706 Q1890.77 201.706 1887.53 204.093 Q1884.35 206.427 1882.81 212.421 L1873.48 211.148 Q1874.75 205.154 1877.67 201.494 Q1880.59 197.781 1886.1 195.818 Q1891.62 193.803 1898.89 193.803 Q1906.1 193.803 1910.61 195.5 Q1915.12 197.198 1917.24 199.797 Q1919.36 202.343 1920.21 206.268 Q1920.69 208.708 1920.69 215.073 L1920.69 227.803 Q1920.69 241.117 1921.27 244.67 Q1921.91 248.171 1923.71 251.407 L1913.74 251.407 Q1912.25 248.436 1911.83 244.458 M1911.03 223.135 Q1905.83 225.257 1895.44 226.742 Q1889.55 227.591 1887.11 228.652 Q1884.67 229.712 1883.34 231.781 Q1882.02 233.797 1882.02 236.29 Q1882.02 240.109 1884.88 242.655 Q1887.8 245.201 1893.37 245.201 Q1898.89 245.201 1903.18 242.814 Q1907.48 240.374 1909.49 236.184 Q1911.03 232.948 1911.03 226.636 L1911.03 223.135 Z" fill="#000000" fill-rule="nonzero" fill-opacity="1" /><path clip-path="url(#clip310)" d="M1935.54 184.627 L1935.54 173.647 L1945.09 173.647 L1945.09 184.627 L1935.54 184.627 M1935.54 251.407 L1935.54 195.076 L1945.09 195.076 L1945.09 251.407 L1935.54 251.407 Z" fill="#000000" fill-rule="nonzero" fill-opacity="1" /><path clip-path="url(#clip310)" d="M1959.62 251.407 L1959.62 195.076 L1968.21 195.076 L1968.21 203.085 Q1974.42 193.803 1986.14 193.803 Q1991.23 193.803 1995.48 195.659 Q1999.77 197.463 2001.89 200.433 Q2004.02 203.403 2004.86 207.488 Q2005.39 210.14 2005.39 216.77 L2005.39 251.407 L1995.85 251.407 L1995.85 217.141 Q1995.85 211.307 1994.73 208.442 Q1993.62 205.525 1990.75 203.828 Q1987.94 202.077 1984.12 202.077 Q1978.02 202.077 1973.57 205.95 Q1969.17 209.822 1969.17 220.642 L1969.17 251.407 L1959.62 251.407 Z" fill="#000000" fill-rule="nonzero" fill-opacity="1" /><path clip-path="url(#clip310)" d="M2011.23 272.995 L2011.23 266.099 L2074.51 266.099 L2074.51 272.995 L2011.23 272.995 Z" fill="#000000" fill-rule="nonzero" fill-opacity="1" /><path clip-path="url(#clip310)" d="M2080.24 251.407 L2080.24 173.647 L2089.78 173.647 L2089.78 251.407 L2080.24 251.407 Z" fill="#000000" fill-rule="nonzero" fill-opacity="1" /><path clip-path="url(#clip310)" d="M2101.03 223.241 Q2101.03 207.594 2109.73 200.062 Q2117 193.803 2127.44 193.803 Q2139.06 193.803 2146.43 201.441 Q2153.81 209.026 2153.81 222.446 Q2153.81 233.319 2150.52 239.578 Q2147.28 245.784 2141.02 249.232 Q2134.82 252.68 2127.44 252.68 Q2115.62 252.68 2108.3 245.095 Q2101.03 237.51 2101.03 223.241 M2110.84 223.241 Q2110.84 234.062 2115.56 239.472 Q2120.28 244.83 2127.44 244.83 Q2134.55 244.83 2139.27 239.419 Q2143.99 234.009 2143.99 222.923 Q2143.99 212.474 2139.22 207.116 Q2134.5 201.706 2127.44 201.706 Q2120.28 201.706 2115.56 207.063 Q2110.84 212.421 2110.84 223.241 Z" fill="#000000" fill-rule="nonzero" fill-opacity="1" /><path clip-path="url(#clip310)" d="M2161.18 234.592 L2170.62 233.107 Q2171.42 238.783 2175.02 241.806 Q2178.68 244.83 2185.21 244.83 Q2191.78 244.83 2194.97 242.177 Q2198.15 239.472 2198.15 235.865 Q2198.15 232.63 2195.34 230.773 Q2193.38 229.5 2185.58 227.538 Q2175.08 224.886 2170.99 222.976 Q2166.96 221.014 2164.84 217.619 Q2162.77 214.171 2162.77 210.034 Q2162.77 206.268 2164.47 203.085 Q2166.22 199.85 2169.19 197.728 Q2171.42 196.084 2175.24 194.97 Q2179.11 193.803 2183.51 193.803 Q2190.14 193.803 2195.13 195.712 Q2200.17 197.622 2202.55 200.91 Q2204.94 204.146 2205.84 209.609 L2196.51 210.882 Q2195.87 206.533 2192.79 204.093 Q2189.77 201.653 2184.2 201.653 Q2177.62 201.653 2174.81 203.828 Q2172 206.003 2172 208.92 Q2172 210.776 2173.17 212.262 Q2174.33 213.8 2176.83 214.808 Q2178.26 215.338 2185.26 217.248 Q2195.39 219.953 2199.37 221.703 Q2203.4 223.4 2205.68 226.689 Q2207.96 229.978 2207.96 234.858 Q2207.96 239.631 2205.15 243.875 Q2202.39 248.065 2197.14 250.399 Q2191.89 252.68 2185.26 252.68 Q2174.28 252.68 2168.5 248.118 Q2162.77 243.556 2161.18 234.592 Z" fill="#000000" fill-rule="nonzero" fill-opacity="1" /><path clip-path="url(#clip310)" d="M2215.49 234.592 L2224.94 233.107 Q2225.73 238.783 2229.34 241.806 Q2233 244.83 2239.52 244.83 Q2246.1 244.83 2249.28 242.177 Q2252.47 239.472 2252.47 235.865 Q2252.47 232.63 2249.65 230.773 Q2247.69 229.5 2239.89 227.538 Q2229.39 224.886 2225.31 222.976 Q2221.28 221.014 2219.15 217.619 Q2217.09 214.171 2217.09 210.034 Q2217.09 206.268 2218.78 203.085 Q2220.53 199.85 2223.5 197.728 Q2225.73 196.084 2229.55 194.97 Q2233.42 193.803 2237.83 193.803 Q2244.46 193.803 2249.44 195.712 Q2254.48 197.622 2256.87 200.91 Q2259.25 204.146 2260.16 209.609 L2250.82 210.882 Q2250.18 206.533 2247.11 204.093 Q2244.08 201.653 2238.52 201.653 Q2231.94 201.653 2229.13 203.828 Q2226.32 206.003 2226.32 208.92 Q2226.32 210.776 2227.48 212.262 Q2228.65 213.8 2231.14 214.808 Q2232.57 215.338 2239.58 217.248 Q2249.71 219.953 2253.69 221.703 Q2257.72 223.4 2260 226.689 Q2262.28 229.978 2262.28 234.858 Q2262.28 239.631 2259.47 243.875 Q2256.71 248.065 2251.46 250.399 Q2246.21 252.68 2239.58 252.68 Q2228.6 252.68 2222.81 248.118 Q2217.09 243.556 2215.49 234.592 Z" fill="#000000" fill-rule="nonzero" fill-opacity="1" /><polyline clip-path="url(#clip310)" style="stroke:#ee6677; stroke-linecap:round; stroke-linejoin:round; stroke-width:18; stroke-opacity:1; fill:none" points="1645.13,329.167 1780.84,329.167 "/>
<circle clip-path="url(#clip310)" cx="1712.98" cy="329.167" r="8.37758" fill="#ee6677" fill-rule="evenodd" fill-opacity="1" stroke="#000000" stroke-opacity="1" stroke-width="8.37758"/>
<path clip-path="url(#clip310)" d="M1824.89 368.047 L1803.46 311.716 L1813.54 311.716 L1825.63 345.451 Q1827.6 350.914 1829.24 356.802 Q1830.51 352.346 1832.79 346.087 L1845.31 311.716 L1855.13 311.716 L1833.8 368.047 L1824.89 368.047 Z" fill="#000000" fill-rule="nonzero" fill-opacity="1" /><path clip-path="url(#clip310)" d="M1900.32 361.098 Q1895.01 365.607 1890.08 367.463 Q1885.2 369.32 1879.58 369.32 Q1870.3 369.32 1865.31 364.811 Q1860.32 360.25 1860.32 353.195 Q1860.32 349.058 1862.18 345.663 Q1864.09 342.215 1867.11 340.147 Q1870.19 338.078 1874.01 337.017 Q1876.82 336.274 1882.5 335.585 Q1894.06 334.206 1899.52 332.296 Q1899.57 330.334 1899.57 329.803 Q1899.57 323.969 1896.87 321.582 Q1893.21 318.346 1886 318.346 Q1879.26 318.346 1876.02 320.733 Q1872.84 323.067 1871.3 329.061 L1861.97 327.788 Q1863.24 321.794 1866.16 318.134 Q1869.08 314.421 1874.59 312.458 Q1880.11 310.443 1887.38 310.443 Q1894.59 310.443 1899.1 312.14 Q1903.61 313.838 1905.73 316.437 Q1907.85 318.983 1908.7 322.908 Q1909.18 325.348 1909.18 331.713 L1909.18 344.443 Q1909.18 357.757 1909.76 361.31 Q1910.4 364.811 1912.2 368.047 L1902.23 368.047 Q1900.74 365.076 1900.32 361.098 M1899.52 339.775 Q1894.32 341.897 1883.93 343.382 Q1878.04 344.231 1875.6 345.292 Q1873.16 346.352 1871.83 348.421 Q1870.51 350.437 1870.51 352.93 Q1870.51 356.749 1873.37 359.295 Q1876.29 361.841 1881.86 361.841 Q1887.38 361.841 1891.67 359.454 Q1895.97 357.014 1897.98 352.824 Q1899.52 349.588 1899.52 343.276 L1899.52 339.775 Z" fill="#000000" fill-rule="nonzero" fill-opacity="1" /><path clip-path="url(#clip310)" d="M1923.76 368.047 L1923.76 290.287 L1933.31 290.287 L1933.31 368.047 L1923.76 368.047 Z" fill="#000000" fill-rule="nonzero" fill-opacity="1" /><path clip-path="url(#clip310)" d="M1939.3 389.635 L1939.3 382.739 L2002.58 382.739 L2002.58 389.635 L1939.3 389.635 Z" fill="#000000" fill-rule="nonzero" fill-opacity="1" /><path clip-path="url(#clip310)" d="M2008.31 368.047 L2008.31 290.287 L2017.86 290.287 L2017.86 368.047 L2008.31 368.047 Z" fill="#000000" fill-rule="nonzero" fill-opacity="1" /><path clip-path="url(#clip310)" d="M2029.1 339.881 Q2029.1 324.234 2037.8 316.702 Q2045.07 310.443 2055.52 310.443 Q2067.14 310.443 2074.51 318.081 Q2081.88 325.666 2081.88 339.086 Q2081.88 349.959 2078.59 356.218 Q2075.36 362.424 2069.1 365.872 Q2062.89 369.32 2055.52 369.32 Q2043.69 369.32 2036.37 361.735 Q2029.1 354.15 2029.1 339.881 M2038.92 339.881 Q2038.92 350.702 2043.64 356.112 Q2048.36 361.47 2055.52 361.47 Q2062.63 361.47 2067.35 356.059 Q2072.07 350.649 2072.07 339.563 Q2072.07 329.114 2067.29 323.756 Q2062.57 318.346 2055.52 318.346 Q2048.36 318.346 2043.64 323.703 Q2038.92 329.061 2038.92 339.881 Z" fill="#000000" fill-rule="nonzero" fill-opacity="1" /><path clip-path="url(#clip310)" d="M2089.25 351.232 L2098.7 349.747 Q2099.49 355.423 2103.1 358.446 Q2106.76 361.47 2113.28 361.47 Q2119.86 361.47 2123.04 358.817 Q2126.22 356.112 2126.22 352.505 Q2126.22 349.27 2123.41 347.413 Q2121.45 346.14 2113.65 344.178 Q2103.15 341.526 2099.07 339.616 Q2095.04 337.654 2092.91 334.259 Q2090.85 330.811 2090.85 326.674 Q2090.85 322.908 2092.54 319.725 Q2094.29 316.49 2097.26 314.368 Q2099.49 312.724 2103.31 311.61 Q2107.18 310.443 2111.58 310.443 Q2118.22 310.443 2123.2 312.352 Q2128.24 314.262 2130.63 317.55 Q2133.01 320.786 2133.92 326.249 L2124.58 327.522 Q2123.94 323.173 2120.87 320.733 Q2117.84 318.293 2112.27 318.293 Q2105.7 318.293 2102.89 320.468 Q2100.07 322.643 2100.07 325.56 Q2100.07 327.416 2101.24 328.902 Q2102.41 330.44 2104.9 331.448 Q2106.33 331.978 2113.34 333.888 Q2123.47 336.593 2127.44 338.343 Q2131.48 340.04 2133.76 343.329 Q2136.04 346.618 2136.04 351.498 Q2136.04 356.271 2133.23 360.515 Q2130.47 364.705 2125.22 367.039 Q2119.97 369.32 2113.34 369.32 Q2102.36 369.32 2096.57 364.758 Q2090.85 360.196 2089.25 351.232 Z" fill="#000000" fill-rule="nonzero" fill-opacity="1" /><path clip-path="url(#clip310)" d="M2143.57 351.232 L2153.01 349.747 Q2153.81 355.423 2157.41 358.446 Q2161.07 361.47 2167.6 361.47 Q2174.17 361.47 2177.36 358.817 Q2180.54 356.112 2180.54 352.505 Q2180.54 349.27 2177.73 347.413 Q2175.77 346.14 2167.97 344.178 Q2157.47 341.526 2153.38 339.616 Q2149.35 337.654 2147.23 334.259 Q2145.16 330.811 2145.16 326.674 Q2145.16 322.908 2146.86 319.725 Q2148.61 316.49 2151.58 314.368 Q2153.81 312.724 2157.63 311.61 Q2161.5 310.443 2165.9 310.443 Q2172.53 310.443 2177.52 312.352 Q2182.56 314.262 2184.94 317.55 Q2187.33 320.786 2188.23 326.249 L2178.9 327.522 Q2178.26 323.173 2175.18 320.733 Q2172.16 318.293 2166.59 318.293 Q2160.01 318.293 2157.2 320.468 Q2154.39 322.643 2154.39 325.56 Q2154.39 327.416 2155.56 328.902 Q2156.72 330.44 2159.22 331.448 Q2160.65 331.978 2167.65 333.888 Q2177.78 336.593 2181.76 338.343 Q2185.79 340.04 2188.07 343.329 Q2190.35 346.618 2190.35 351.498 Q2190.35 356.271 2187.54 360.515 Q2184.78 364.705 2179.53 367.039 Q2174.28 369.32 2167.65 369.32 Q2156.67 369.32 2150.89 364.758 Q2145.16 360.196 2143.57 351.232 Z" fill="#000000" fill-rule="nonzero" fill-opacity="1" /></svg>
