<?xml version="1.0" encoding="utf-8"?>
<svg xmlns="http://www.w3.org/2000/svg" xmlns:xlink="http://www.w3.org/1999/xlink" width="600" height="450" viewBox="0 0 2400 1800">
<defs>
  <clipPath id="clip320">
    <rect x="0" y="0" width="2400" height="1800"/>
  </clipPath>
</defs>
<path clip-path="url(#clip320)" d="M0 1800 L2400 1800 L2400 0 L0 0  Z" fill="#ffffff" fill-rule="evenodd" fill-opacity="1"/>
<defs>
  <clipPath id="clip321">
    <rect x="480" y="0" width="1681" height="1681"/>
  </clipPath>
</defs>
<defs>
  <clipPath id="clip322">
    <rect x="186" y="47" width="2167" height="1564"/>
  </clipPath>
</defs>
<path clip-path="url(#clip322)" d="M1677.04 1913.88 L1677.04 1469.89 L1925.46 1247.89 L2355.73 1376.06 L2355.73 1820.05 L2107.32 2042.05 L1677.04 1913.88  Z" fill="#ffffff" fill-rule="evenodd" fill-opacity="1"/>
<polyline clip-path="url(#clip320)" style="stroke:#000000; stroke-linecap:round; stroke-linejoin:round; stroke-width:4; stroke-opacity:1; fill:none" points="653.531,1301.67 1434.78,1527.2 "/>
<polyline clip-path="url(#clip320)" style="stroke:#000000; stroke-linecap:round; stroke-linejoin:round; stroke-width:2; stroke-opacity:0.5; fill:none" points="1104.59,129.793 1885.84,355.322 "/>
<polyline clip-path="url(#clip320)" style="stroke:#000000; stroke-linecap:round; stroke-linejoin:round; stroke-width:4; stroke-opacity:1; fill:none" points="668.058,1305.87 673.471,1301.18 "/>
<polyline clip-path="url(#clip320)" style="stroke:#000000; stroke-linecap:round; stroke-linejoin:round; stroke-width:4; stroke-opacity:1; fill:none" points="883.195,1367.97 888.607,1363.28 "/>
<polyline clip-path="url(#clip320)" style="stroke:#000000; stroke-linecap:round; stroke-linejoin:round; stroke-width:4; stroke-opacity:1; fill:none" points="1098.33,1430.08 1103.74,1425.39 "/>
<polyline clip-path="url(#clip320)" style="stroke:#000000; stroke-linecap:round; stroke-linejoin:round; stroke-width:4; stroke-opacity:1; fill:none" points="1313.47,1492.18 1318.88,1487.49 "/>
<path clip-path="url(#clip320)" d="M605.144 1337.9 L559.504 1337.9 L559.504 1329.98 L605.144 1329.98 L605.144 1337.9 Z" fill="#000000" fill-rule="nonzero" fill-opacity="1" /><path clip-path="url(#clip320)" d="M614.573 1349.78 L623.06 1348.65 Q624.522 1355.86 628.011 1359.07 Q631.547 1362.23 636.592 1362.23 Q642.58 1362.23 646.682 1358.08 Q650.831 1353.93 650.831 1347.8 Q650.831 1341.96 647.012 1338.18 Q643.193 1334.36 637.299 1334.36 Q634.894 1334.36 631.311 1335.31 L632.254 1327.86 Q633.103 1327.95 633.621 1327.95 Q639.043 1327.95 643.381 1325.12 Q647.719 1322.29 647.719 1316.4 Q647.719 1311.73 644.56 1308.67 Q641.401 1305.6 636.403 1305.6 Q631.453 1305.6 628.152 1308.72 Q624.852 1311.83 623.909 1318.05 L615.422 1316.54 Q616.978 1308.01 622.494 1303.34 Q628.011 1298.63 636.215 1298.63 Q641.872 1298.63 646.634 1301.08 Q651.396 1303.48 653.895 1307.68 Q656.441 1311.87 656.441 1316.59 Q656.441 1321.07 654.037 1324.75 Q651.632 1328.42 646.917 1330.59 Q653.047 1332.01 656.441 1336.49 Q659.836 1340.92 659.836 1347.61 Q659.836 1356.67 653.235 1362.98 Q646.634 1369.25 636.545 1369.25 Q627.445 1369.25 621.41 1363.83 Q615.422 1358.41 614.573 1349.78 Z" fill="#000000" fill-rule="nonzero" fill-opacity="1" /><path clip-path="url(#clip320)" d="M820.988 1400.01 L775.348 1400.01 L775.348 1392.08 L820.988 1392.08 L820.988 1400.01 Z" fill="#000000" fill-rule="nonzero" fill-opacity="1" /><path clip-path="url(#clip320)" d="M874.973 1421.98 L874.973 1430.13 L829.286 1430.13 Q829.191 1427.07 830.276 1424.24 Q832.02 1419.57 835.839 1415.05 Q839.706 1410.52 846.967 1404.58 Q858.235 1395.34 862.196 1389.96 Q866.156 1384.54 866.156 1379.73 Q866.156 1374.69 862.526 1371.24 Q858.942 1367.76 853.143 1367.76 Q847.014 1367.76 843.336 1371.43 Q839.659 1375.11 839.611 1381.62 L830.889 1380.72 Q831.785 1370.96 837.631 1365.87 Q843.478 1360.73 853.332 1360.73 Q863.28 1360.73 869.079 1366.25 Q874.879 1371.76 874.879 1379.92 Q874.879 1384.07 873.181 1388.08 Q871.484 1392.08 867.523 1396.52 Q863.61 1400.95 854.463 1408.68 Q846.825 1415.09 844.656 1417.4 Q842.487 1419.67 841.073 1421.98 L874.973 1421.98 Z" fill="#000000" fill-rule="nonzero" fill-opacity="1" /><path clip-path="url(#clip320)" d="M1048.76 1462.11 L1003.12 1462.11 L1003.12 1454.19 L1048.76 1454.19 L1048.76 1462.11 Z" fill="#000000" fill-rule="nonzero" fill-opacity="1" /><path clip-path="url(#clip320)" d="M1090.11 1492.24 L1081.62 1492.24 L1081.62 1438.16 Q1078.56 1441.08 1073.56 1444.01 Q1068.61 1446.93 1064.65 1448.39 L1064.65 1440.19 Q1071.77 1436.84 1077.1 1432.08 Q1082.42 1427.31 1084.64 1422.84 L1090.11 1422.84 L1090.11 1492.24 Z" fill="#000000" fill-rule="nonzero" fill-opacity="1" /><path clip-path="url(#clip320)" d="M1260.17 1520.25 Q1260.17 1508 1262.67 1500.55 Q1265.22 1493.05 1270.17 1488.99 Q1275.17 1484.94 1282.71 1484.94 Q1288.27 1484.94 1292.47 1487.2 Q1296.67 1489.42 1299.4 1493.66 Q1302.13 1497.86 1303.69 1503.94 Q1305.25 1509.98 1305.25 1520.25 Q1305.25 1532.42 1302.75 1539.92 Q1300.25 1547.37 1295.25 1551.47 Q1290.3 1555.52 1282.71 1555.52 Q1272.71 1555.52 1267.01 1548.36 Q1260.17 1539.73 1260.17 1520.25 M1268.89 1520.25 Q1268.89 1537.28 1272.86 1542.93 Q1276.86 1548.54 1282.71 1548.54 Q1288.56 1548.54 1292.52 1542.89 Q1296.52 1537.23 1296.52 1520.25 Q1296.52 1503.19 1292.52 1497.58 Q1288.56 1491.97 1282.62 1491.97 Q1276.77 1491.97 1273.28 1496.92 Q1268.89 1503.23 1268.89 1520.25 Z" fill="#000000" fill-rule="nonzero" fill-opacity="1" /><polyline clip-path="url(#clip320)" style="stroke:#000000; stroke-linecap:round; stroke-linejoin:round; stroke-width:4; stroke-opacity:1; fill:none" points="1434.78,1527.2 1885.84,1136.58 "/>
<polyline clip-path="url(#clip320)" style="stroke:#000000; stroke-linecap:round; stroke-linejoin:round; stroke-width:2; stroke-opacity:0.5; fill:none" points="653.531,520.42 1104.59,129.793 "/>
<polyline clip-path="url(#clip320)" style="stroke:#000000; stroke-linecap:round; stroke-linejoin:round; stroke-width:4; stroke-opacity:1; fill:none" points="1488.7,1480.51 1479.33,1477.8 "/>
<polyline clip-path="url(#clip320)" style="stroke:#000000; stroke-linecap:round; stroke-linejoin:round; stroke-width:4; stroke-opacity:1; fill:none" points="1552.79,1425.01 1543.41,1422.3 "/>
<polyline clip-path="url(#clip320)" style="stroke:#000000; stroke-linecap:round; stroke-linejoin:round; stroke-width:4; stroke-opacity:1; fill:none" points="1616.87,1369.51 1607.5,1366.8 "/>
<polyline clip-path="url(#clip320)" style="stroke:#000000; stroke-linecap:round; stroke-linejoin:round; stroke-width:4; stroke-opacity:1; fill:none" points="1680.96,1314.01 1671.58,1311.31 "/>
<polyline clip-path="url(#clip320)" style="stroke:#000000; stroke-linecap:round; stroke-linejoin:round; stroke-width:4; stroke-opacity:1; fill:none" points="1745.04,1258.51 1735.67,1255.81 "/>
<polyline clip-path="url(#clip320)" style="stroke:#000000; stroke-linecap:round; stroke-linejoin:round; stroke-width:4; stroke-opacity:1; fill:none" points="1809.13,1203.01 1799.75,1200.31 "/>
<polyline clip-path="url(#clip320)" style="stroke:#000000; stroke-linecap:round; stroke-linejoin:round; stroke-width:4; stroke-opacity:1; fill:none" points="1873.21,1147.51 1863.84,1144.81 "/>
<path clip-path="url(#clip320)" d="M1507.89 1502.45 Q1507.89 1490.2 1510.39 1482.75 Q1512.94 1475.25 1517.89 1471.19 Q1522.89 1467.14 1530.43 1467.14 Q1535.99 1467.14 1540.19 1469.4 Q1544.39 1471.62 1547.12 1475.86 Q1549.86 1480.06 1551.41 1486.14 Q1552.97 1492.18 1552.97 1502.45 Q1552.97 1514.62 1550.47 1522.12 Q1547.97 1529.56 1542.97 1533.67 Q1538.02 1537.72 1530.43 1537.72 Q1520.44 1537.72 1514.73 1530.56 Q1507.89 1521.93 1507.89 1502.45 M1516.62 1502.45 Q1516.62 1519.48 1520.58 1525.13 Q1524.58 1530.74 1530.43 1530.74 Q1536.28 1530.74 1540.24 1525.09 Q1544.25 1519.43 1544.25 1502.45 Q1544.25 1485.39 1540.24 1479.78 Q1536.28 1474.17 1530.34 1474.17 Q1524.49 1474.17 1521 1479.12 Q1516.62 1485.43 1516.62 1502.45 Z" fill="#000000" fill-rule="nonzero" fill-opacity="1" /><path clip-path="url(#clip320)" d="M1566.36 1536.54 L1566.36 1526.88 L1576.02 1526.88 L1576.02 1536.54 L1566.36 1536.54 Z" fill="#000000" fill-rule="nonzero" fill-opacity="1" /><path clip-path="url(#clip320)" d="M1588.42 1518.44 L1597.33 1517.68 Q1598.32 1524.19 1601.91 1527.49 Q1605.54 1530.74 1610.63 1530.74 Q1616.76 1530.74 1621 1526.12 Q1625.25 1521.5 1625.25 1513.86 Q1625.25 1506.6 1621.14 1502.41 Q1617.09 1498.21 1610.49 1498.21 Q1606.39 1498.21 1603.09 1500.1 Q1599.79 1501.94 1597.9 1504.91 L1589.93 1503.87 L1596.63 1468.37 L1631 1468.37 L1631 1476.48 L1603.42 1476.48 L1599.69 1495.05 Q1605.92 1490.71 1612.75 1490.71 Q1621.8 1490.71 1628.03 1496.99 Q1634.25 1503.26 1634.25 1513.11 Q1634.25 1522.49 1628.78 1529.33 Q1622.13 1537.72 1610.63 1537.72 Q1601.2 1537.72 1595.21 1532.44 Q1589.27 1527.16 1588.42 1518.44 Z" fill="#000000" fill-rule="nonzero" fill-opacity="1" /><path clip-path="url(#clip320)" d="M1597.44 1481.04 L1588.95 1481.04 L1588.95 1426.96 Q1585.89 1429.89 1580.89 1432.81 Q1575.94 1435.73 1571.98 1437.2 L1571.98 1428.99 Q1579.1 1425.64 1584.43 1420.88 Q1589.75 1416.12 1591.97 1411.64 L1597.44 1411.64 L1597.44 1481.04 Z" fill="#000000" fill-rule="nonzero" fill-opacity="1" /><path clip-path="url(#clip320)" d="M1623.94 1481.04 L1623.94 1471.38 L1633.6 1471.38 L1633.6 1481.04 L1623.94 1481.04 Z" fill="#000000" fill-rule="nonzero" fill-opacity="1" /><path clip-path="url(#clip320)" d="M1646 1446.96 Q1646 1434.7 1648.5 1427.25 Q1651.05 1419.75 1656 1415.7 Q1660.99 1411.64 1668.54 1411.64 Q1674.1 1411.64 1678.3 1413.9 Q1682.49 1416.12 1685.23 1420.36 Q1687.96 1424.56 1689.52 1430.64 Q1691.08 1436.68 1691.08 1446.96 Q1691.08 1459.12 1688.58 1466.62 Q1686.08 1474.07 1681.08 1478.17 Q1676.13 1482.22 1668.54 1482.22 Q1658.54 1482.22 1652.84 1475.06 Q1646 1466.43 1646 1446.96 M1654.72 1446.96 Q1654.72 1463.98 1658.68 1469.63 Q1662.69 1475.24 1668.54 1475.24 Q1674.39 1475.24 1678.35 1469.59 Q1682.35 1463.93 1682.35 1446.96 Q1682.35 1429.89 1678.35 1424.28 Q1674.39 1418.67 1668.44 1418.67 Q1662.6 1418.67 1659.11 1423.62 Q1654.72 1429.93 1654.72 1446.96 Z" fill="#000000" fill-rule="nonzero" fill-opacity="1" /><path clip-path="url(#clip320)" d="M1661.52 1425.55 L1653.04 1425.55 L1653.04 1371.47 Q1649.97 1374.39 1644.97 1377.31 Q1640.02 1380.24 1636.06 1381.7 L1636.06 1373.49 Q1643.18 1370.15 1648.51 1365.38 Q1653.84 1360.62 1656.05 1356.14 L1661.52 1356.14 L1661.52 1425.55 Z" fill="#000000" fill-rule="nonzero" fill-opacity="1" /><path clip-path="url(#clip320)" d="M1688.02 1425.55 L1688.02 1415.88 L1697.69 1415.88 L1697.69 1425.55 L1688.02 1425.55 Z" fill="#000000" fill-rule="nonzero" fill-opacity="1" /><path clip-path="url(#clip320)" d="M1710.09 1407.44 L1719 1406.69 Q1719.99 1413.19 1723.57 1416.49 Q1727.2 1419.75 1732.29 1419.75 Q1738.42 1419.75 1742.67 1415.13 Q1746.91 1410.5 1746.91 1402.87 Q1746.91 1395.61 1742.81 1391.41 Q1738.75 1387.21 1732.15 1387.21 Q1728.05 1387.21 1724.75 1389.1 Q1721.45 1390.94 1719.56 1393.91 L1711.6 1392.87 L1718.29 1357.37 L1752.66 1357.37 L1752.66 1365.48 L1725.08 1365.48 L1721.35 1384.05 Q1727.58 1379.72 1734.42 1379.72 Q1743.47 1379.72 1749.69 1385.99 Q1755.91 1392.26 1755.91 1402.11 Q1755.91 1411.49 1750.45 1418.33 Q1743.8 1426.72 1732.29 1426.72 Q1722.86 1426.72 1716.88 1421.44 Q1710.93 1416.16 1710.09 1407.44 Z" fill="#000000" fill-rule="nonzero" fill-opacity="1" /><path clip-path="url(#clip320)" d="M1745.93 1361.89 L1745.93 1370.05 L1700.24 1370.05 Q1700.15 1366.98 1701.23 1364.15 Q1702.98 1359.48 1706.8 1354.96 Q1710.66 1350.43 1717.92 1344.49 Q1729.19 1335.25 1733.15 1329.88 Q1737.11 1324.45 1737.11 1319.64 Q1737.11 1314.6 1733.48 1311.16 Q1729.9 1307.67 1724.1 1307.67 Q1717.97 1307.67 1714.29 1311.35 Q1710.61 1315.02 1710.57 1321.53 L1701.84 1320.63 Q1702.74 1310.87 1708.59 1305.78 Q1714.43 1300.64 1724.29 1300.64 Q1734.24 1300.64 1740.04 1306.16 Q1745.83 1311.68 1745.83 1319.83 Q1745.83 1323.98 1744.14 1327.99 Q1742.44 1332 1738.48 1336.43 Q1734.57 1340.86 1725.42 1348.59 Q1717.78 1355.01 1715.61 1357.32 Q1713.44 1359.58 1712.03 1361.89 L1745.93 1361.89 Z" fill="#000000" fill-rule="nonzero" fill-opacity="1" /><path clip-path="url(#clip320)" d="M1759.79 1370.05 L1759.79 1360.38 L1769.46 1360.38 L1769.46 1370.05 L1759.79 1370.05 Z" fill="#000000" fill-rule="nonzero" fill-opacity="1" /><path clip-path="url(#clip320)" d="M1781.86 1335.96 Q1781.86 1323.7 1784.36 1316.25 Q1786.9 1308.75 1791.85 1304.7 Q1796.85 1300.64 1804.39 1300.64 Q1809.96 1300.64 1814.15 1302.91 Q1818.35 1305.12 1821.08 1309.37 Q1823.82 1313.56 1825.37 1319.64 Q1826.93 1325.68 1826.93 1335.96 Q1826.93 1348.12 1824.43 1355.62 Q1821.93 1363.07 1816.93 1367.17 Q1811.98 1371.22 1804.39 1371.22 Q1794.4 1371.22 1788.69 1364.06 Q1781.86 1355.43 1781.86 1335.96 M1790.58 1335.96 Q1790.58 1352.98 1794.54 1358.64 Q1798.55 1364.25 1804.39 1364.25 Q1810.24 1364.25 1814.2 1358.59 Q1818.21 1352.93 1818.21 1335.96 Q1818.21 1318.89 1814.2 1313.28 Q1810.24 1307.67 1804.3 1307.67 Q1798.45 1307.67 1794.96 1312.62 Q1790.58 1318.94 1790.58 1335.96 Z" fill="#000000" fill-rule="nonzero" fill-opacity="1" /><path clip-path="url(#clip320)" d="M1810.01 1306.39 L1810.01 1314.55 L1764.33 1314.55 Q1764.23 1311.48 1765.32 1308.65 Q1767.06 1303.99 1770.88 1299.46 Q1774.75 1294.93 1782.01 1288.99 Q1793.28 1279.75 1797.24 1274.38 Q1801.2 1268.95 1801.2 1264.15 Q1801.2 1259.1 1797.57 1255.66 Q1793.98 1252.17 1788.18 1252.17 Q1782.05 1252.17 1778.38 1255.85 Q1774.7 1259.52 1774.65 1266.03 L1765.93 1265.14 Q1766.83 1255.38 1772.67 1250.28 Q1778.52 1245.14 1788.37 1245.14 Q1798.32 1245.14 1804.12 1250.66 Q1809.92 1256.18 1809.92 1264.33 Q1809.92 1268.48 1808.22 1272.49 Q1806.52 1276.5 1802.56 1280.93 Q1798.65 1285.36 1789.5 1293.09 Q1781.87 1299.51 1779.7 1301.82 Q1777.53 1304.08 1776.11 1306.39 L1810.01 1306.39 Z" fill="#000000" fill-rule="nonzero" fill-opacity="1" /><path clip-path="url(#clip320)" d="M1823.88 1314.55 L1823.88 1304.88 L1833.54 1304.88 L1833.54 1314.55 L1823.88 1314.55 Z" fill="#000000" fill-rule="nonzero" fill-opacity="1" /><path clip-path="url(#clip320)" d="M1845.94 1296.44 L1854.85 1295.69 Q1855.84 1302.19 1859.43 1305.49 Q1863.06 1308.75 1868.15 1308.75 Q1874.28 1308.75 1878.52 1304.13 Q1882.76 1299.51 1882.76 1291.87 Q1882.76 1284.61 1878.66 1280.41 Q1874.61 1276.22 1868.01 1276.22 Q1863.9 1276.22 1860.6 1278.1 Q1857.3 1279.94 1855.42 1282.91 L1847.45 1281.87 L1854.14 1246.37 L1888.52 1246.37 L1888.52 1254.48 L1860.93 1254.48 L1857.21 1273.06 Q1863.43 1268.72 1870.27 1268.72 Q1879.32 1268.72 1885.55 1274.99 Q1891.77 1281.26 1891.77 1291.11 Q1891.77 1300.5 1886.3 1307.33 Q1879.65 1315.73 1868.15 1315.73 Q1858.72 1315.73 1852.73 1310.45 Q1846.79 1305.16 1845.94 1296.44 Z" fill="#000000" fill-rule="nonzero" fill-opacity="1" /><path clip-path="url(#clip320)" d="M1828.32 1240.8 L1836.8 1239.67 Q1838.27 1246.88 1841.75 1250.09 Q1845.29 1253.25 1850.34 1253.25 Q1856.32 1253.25 1860.43 1249.1 Q1864.57 1244.95 1864.57 1238.82 Q1864.57 1232.98 1860.76 1229.2 Q1856.94 1225.38 1851.04 1225.38 Q1848.64 1225.38 1845.05 1226.33 L1846 1218.88 Q1846.85 1218.97 1847.36 1218.97 Q1852.79 1218.97 1857.12 1216.14 Q1861.46 1213.31 1861.46 1207.42 Q1861.46 1202.75 1858.3 1199.69 Q1855.14 1196.62 1850.15 1196.62 Q1845.2 1196.62 1841.9 1199.74 Q1838.6 1202.85 1837.65 1209.07 L1829.17 1207.56 Q1830.72 1199.03 1836.24 1194.36 Q1841.75 1189.65 1849.96 1189.65 Q1855.62 1189.65 1860.38 1192.1 Q1865.14 1194.5 1867.64 1198.7 Q1870.18 1202.89 1870.18 1207.61 Q1870.18 1212.09 1867.78 1215.77 Q1865.38 1219.44 1860.66 1221.61 Q1866.79 1223.03 1870.18 1227.51 Q1873.58 1231.94 1873.58 1238.63 Q1873.58 1247.69 1866.98 1254 Q1860.38 1260.27 1850.29 1260.27 Q1841.19 1260.27 1835.15 1254.85 Q1829.17 1249.43 1828.32 1240.8 Z" fill="#000000" fill-rule="nonzero" fill-opacity="1" /><path clip-path="url(#clip320)" d="M1886.73 1259.05 L1886.73 1249.38 L1896.4 1249.38 L1896.4 1259.05 L1886.73 1259.05 Z" fill="#000000" fill-rule="nonzero" fill-opacity="1" /><path clip-path="url(#clip320)" d="M1908.8 1224.96 Q1908.8 1212.7 1911.3 1205.25 Q1913.84 1197.75 1918.8 1193.7 Q1923.79 1189.65 1931.34 1189.65 Q1936.9 1189.65 1941.1 1191.91 Q1945.29 1194.12 1948.03 1198.37 Q1950.76 1202.56 1952.32 1208.65 Q1953.87 1214.68 1953.87 1224.96 Q1953.87 1237.12 1951.37 1244.62 Q1948.88 1252.07 1943.88 1256.17 Q1938.93 1260.23 1931.34 1260.23 Q1921.34 1260.23 1915.64 1253.06 Q1908.8 1244.43 1908.8 1224.96 M1917.52 1224.96 Q1917.52 1241.98 1921.48 1247.64 Q1925.49 1253.25 1931.34 1253.25 Q1937.18 1253.25 1941.14 1247.59 Q1945.15 1241.93 1945.15 1224.96 Q1945.15 1207.89 1941.14 1202.28 Q1937.18 1196.67 1931.24 1196.67 Q1925.4 1196.67 1921.91 1201.62 Q1917.52 1207.94 1917.52 1224.96 Z" fill="#000000" fill-rule="nonzero" fill-opacity="1" /><path clip-path="url(#clip320)" d="M1892.4 1185.3 L1900.89 1184.17 Q1902.35 1191.39 1905.84 1194.59 Q1909.37 1197.75 1914.42 1197.75 Q1920.41 1197.75 1924.51 1193.6 Q1928.66 1189.45 1928.66 1183.32 Q1928.66 1177.48 1924.84 1173.7 Q1921.02 1169.89 1915.13 1169.89 Q1912.72 1169.89 1909.14 1170.83 L1910.08 1163.38 Q1910.93 1163.47 1911.45 1163.47 Q1916.87 1163.47 1921.21 1160.64 Q1925.55 1157.82 1925.55 1151.92 Q1925.55 1147.25 1922.39 1144.19 Q1919.23 1141.12 1914.23 1141.12 Q1909.28 1141.12 1905.98 1144.24 Q1902.68 1147.35 1901.74 1153.57 L1893.25 1152.06 Q1894.81 1143.53 1900.32 1138.86 Q1905.84 1134.15 1914.04 1134.15 Q1919.7 1134.15 1924.46 1136.6 Q1929.22 1139 1931.72 1143.2 Q1934.27 1147.4 1934.27 1152.11 Q1934.27 1156.59 1931.86 1160.27 Q1929.46 1163.94 1924.75 1166.11 Q1930.87 1167.53 1934.27 1172.01 Q1937.66 1176.44 1937.66 1183.13 Q1937.66 1192.19 1931.06 1198.5 Q1924.46 1204.78 1914.37 1204.78 Q1905.27 1204.78 1899.24 1199.35 Q1893.25 1193.93 1892.4 1185.3 Z" fill="#000000" fill-rule="nonzero" fill-opacity="1" /><path clip-path="url(#clip320)" d="M1950.82 1203.55 L1950.82 1193.88 L1960.48 1193.88 L1960.48 1203.55 L1950.82 1203.55 Z" fill="#000000" fill-rule="nonzero" fill-opacity="1" /><path clip-path="url(#clip320)" d="M1972.88 1185.44 L1981.8 1184.69 Q1982.79 1191.2 1986.37 1194.5 Q1990 1197.75 1995.09 1197.75 Q2001.22 1197.75 2005.46 1193.13 Q2009.71 1188.51 2009.71 1180.87 Q2009.71 1173.61 2005.61 1169.41 Q2001.55 1165.22 1994.95 1165.22 Q1990.85 1165.22 1987.55 1167.1 Q1984.25 1168.94 1982.36 1171.91 L1974.39 1170.88 L1981.09 1135.37 L2015.46 1135.37 L2015.46 1143.48 L1987.88 1143.48 L1984.15 1162.06 Q1990.38 1157.72 1997.21 1157.72 Q2006.27 1157.72 2012.49 1163.99 Q2018.71 1170.26 2018.71 1180.12 Q2018.71 1189.5 2013.24 1196.34 Q2006.6 1204.73 1995.09 1204.73 Q1985.66 1204.73 1979.67 1199.45 Q1973.73 1194.17 1972.88 1185.44 Z" fill="#000000" fill-rule="nonzero" fill-opacity="1" /><polyline clip-path="url(#clip320)" style="stroke:#000000; stroke-linecap:round; stroke-linejoin:round; stroke-width:4; stroke-opacity:1; fill:none" points="653.531,1301.67 653.531,520.42 "/>
<polyline clip-path="url(#clip320)" style="stroke:#000000; stroke-linecap:round; stroke-linejoin:round; stroke-width:2; stroke-opacity:0.5; fill:none" points="1885.84,1136.58 1885.84,355.322 "/>
<polyline clip-path="url(#clip320)" style="stroke:#000000; stroke-linecap:round; stroke-linejoin:round; stroke-width:4; stroke-opacity:1; fill:none" points="653.531,1181.86 658.944,1177.17 "/>
<polyline clip-path="url(#clip320)" style="stroke:#000000; stroke-linecap:round; stroke-linejoin:round; stroke-width:4; stroke-opacity:1; fill:none" points="653.531,1010.35 658.944,1005.67 "/>
<polyline clip-path="url(#clip320)" style="stroke:#000000; stroke-linecap:round; stroke-linejoin:round; stroke-width:4; stroke-opacity:1; fill:none" points="653.531,838.849 658.944,834.162 "/>
<polyline clip-path="url(#clip320)" style="stroke:#000000; stroke-linecap:round; stroke-linejoin:round; stroke-width:4; stroke-opacity:1; fill:none" points="653.531,667.344 658.944,662.657 "/>
<path clip-path="url(#clip320)" d="M570.746 1186.29 L525.106 1186.29 L525.106 1178.37 L570.746 1178.37 L570.746 1186.29 Z" fill="#000000" fill-rule="nonzero" fill-opacity="1" /><path clip-path="url(#clip320)" d="M624.731 1208.26 L624.731 1216.42 L579.044 1216.42 Q578.95 1213.35 580.034 1210.53 Q581.779 1205.86 585.598 1201.33 Q589.464 1196.81 596.725 1190.86 Q607.993 1181.62 611.954 1176.25 Q615.914 1170.83 615.914 1166.02 Q615.914 1160.97 612.284 1157.53 Q608.701 1154.04 602.901 1154.04 Q596.772 1154.04 593.094 1157.72 Q589.417 1161.4 589.37 1167.9 L580.647 1167.01 Q581.543 1157.25 587.389 1152.16 Q593.236 1147.02 603.09 1147.02 Q613.038 1147.02 618.838 1152.53 Q624.637 1158.05 624.637 1166.21 Q624.637 1170.35 622.939 1174.36 Q621.242 1178.37 617.282 1182.8 Q613.368 1187.23 604.221 1194.97 Q596.583 1201.38 594.415 1203.69 Q592.246 1205.95 590.831 1208.26 L624.731 1208.26 Z" fill="#000000" fill-rule="nonzero" fill-opacity="1" /><path clip-path="url(#clip320)" d="M583.382 1014.79 L537.742 1014.79 L537.742 1006.87 L583.382 1006.87 L583.382 1014.79 Z" fill="#000000" fill-rule="nonzero" fill-opacity="1" /><path clip-path="url(#clip320)" d="M624.731 1044.91 L616.244 1044.91 L616.244 990.835 Q613.18 993.758 608.182 996.681 Q603.231 999.604 599.271 1001.07 L599.271 992.862 Q606.39 989.514 611.718 984.752 Q617.046 979.99 619.262 975.511 L624.731 975.511 L624.731 1044.91 Z" fill="#000000" fill-rule="nonzero" fill-opacity="1" /><path clip-path="url(#clip320)" d="M579.657 839.321 Q579.657 827.062 582.156 819.613 Q584.702 812.116 589.652 808.061 Q594.65 804.006 602.194 804.006 Q607.758 804.006 611.954 806.27 Q616.15 808.486 618.885 812.729 Q621.619 816.925 623.175 823.007 Q624.731 829.042 624.731 839.321 Q624.731 851.485 622.232 858.982 Q619.733 866.431 614.736 870.533 Q609.785 874.588 602.194 874.588 Q592.199 874.588 586.494 867.421 Q579.657 858.793 579.657 839.321 M588.379 839.321 Q588.379 856.342 592.34 861.999 Q596.348 867.61 602.194 867.61 Q608.04 867.61 612.001 861.952 Q616.009 856.294 616.009 839.321 Q616.009 822.253 612.001 816.642 Q608.04 811.032 602.1 811.032 Q596.253 811.032 592.764 815.982 Q588.379 822.3 588.379 839.321 Z" fill="#000000" fill-rule="nonzero" fill-opacity="1" /><path clip-path="url(#clip320)" d="M624.731 701.904 L616.244 701.904 L616.244 647.825 Q613.18 650.748 608.182 653.671 Q603.231 656.595 599.271 658.056 L599.271 649.852 Q606.39 646.505 611.718 641.743 Q617.046 636.981 619.262 632.502 L624.731 632.502 L624.731 701.904 Z" fill="#000000" fill-rule="nonzero" fill-opacity="1" /><circle clip-path="url(#clip322)" cx="1462.94" cy="1059.54" r="14.4" fill="#4477aa" fill-rule="evenodd" fill-opacity="1" stroke="#000000" stroke-opacity="1" stroke-width="3.6"/>
<circle clip-path="url(#clip322)" cx="1603.28" cy="1157.71" r="14.4" fill="#4477aa" fill-rule="evenodd" fill-opacity="1" stroke="#000000" stroke-opacity="1" stroke-width="3.6"/>
<circle clip-path="url(#clip322)" cx="1486.2" cy="972.092" r="14.4" fill="#4477aa" fill-rule="evenodd" fill-opacity="1" stroke="#000000" stroke-opacity="1" stroke-width="3.6"/>
<path clip-path="url(#clip322)" d="M1502.52 992.285 L1502.52 1024.28 L1534.52 1024.28 L1534.52 992.285 L1502.52 992.285 Z" fill="#4477aa" fill-rule="evenodd" fill-opacity="1" stroke="#000000" stroke-opacity="1" stroke-width="3.6"/>
<circle clip-path="url(#clip322)" cx="1251.71" cy="732.046" r="14.4" fill="#4477aa" fill-rule="evenodd" fill-opacity="1" stroke="#000000" stroke-opacity="1" stroke-width="3.6"/>
<circle clip-path="url(#clip322)" cx="1208.41" cy="677.414" r="14.4" fill="#4477aa" fill-rule="evenodd" fill-opacity="1" stroke="#000000" stroke-opacity="1" stroke-width="3.6"/>
<circle clip-path="url(#clip322)" cx="1122.91" cy="722.994" r="14.4" fill="#4477aa" fill-rule="evenodd" fill-opacity="1" stroke="#000000" stroke-opacity="1" stroke-width="3.6"/>
<path clip-path="url(#clip322)" d="M1234.92 711.111 L1234.92 743.111 L1266.92 743.111 L1266.92 711.111 L1234.92 711.111 Z" fill="#4477aa" fill-rule="evenodd" fill-opacity="1" stroke="#000000" stroke-opacity="1" stroke-width="3.6"/>
<circle clip-path="url(#clip322)" cx="1566.15" cy="1029.35" r="14.4" fill="#4477aa" fill-rule="evenodd" fill-opacity="1" stroke="#000000" stroke-opacity="1" stroke-width="3.6"/>
<circle clip-path="url(#clip322)" cx="1579.77" cy="1039.11" r="14.4" fill="#4477aa" fill-rule="evenodd" fill-opacity="1" stroke="#000000" stroke-opacity="1" stroke-width="3.6"/>
<circle clip-path="url(#clip322)" cx="1433.99" cy="989.903" r="14.4" fill="#4477aa" fill-rule="evenodd" fill-opacity="1" stroke="#000000" stroke-opacity="1" stroke-width="3.6"/>
<circle clip-path="url(#clip322)" cx="1427.69" cy="919.365" r="14.4" fill="#4477aa" fill-rule="evenodd" fill-opacity="1" stroke="#000000" stroke-opacity="1" stroke-width="3.6"/>
<circle clip-path="url(#clip322)" cx="1332.04" cy="936.633" r="14.4" fill="#4477aa" fill-rule="evenodd" fill-opacity="1" stroke="#000000" stroke-opacity="1" stroke-width="3.6"/>
<circle clip-path="url(#clip322)" cx="1370.39" cy="875.929" r="14.4" fill="#4477aa" fill-rule="evenodd" fill-opacity="1" stroke="#000000" stroke-opacity="1" stroke-width="3.6"/>
<circle clip-path="url(#clip322)" cx="1391.54" cy="962.419" r="14.4" fill="#4477aa" fill-rule="evenodd" fill-opacity="1" stroke="#000000" stroke-opacity="1" stroke-width="3.6"/>
<path clip-path="url(#clip322)" d="M1013.84 543.412 L1013.84 575.412 L1045.84 575.412 L1045.84 543.412 L1013.84 543.412 Z" fill="#4477aa" fill-rule="evenodd" fill-opacity="1" stroke="#000000" stroke-opacity="1" stroke-width="3.6"/>
<circle clip-path="url(#clip322)" cx="1165.76" cy="968.597" r="14.4" fill="#4477aa" fill-rule="evenodd" fill-opacity="1" stroke="#000000" stroke-opacity="1" stroke-width="3.6"/>
<circle clip-path="url(#clip322)" cx="1374.44" cy="889.887" r="14.4" fill="#4477aa" fill-rule="evenodd" fill-opacity="1" stroke="#000000" stroke-opacity="1" stroke-width="3.6"/>
<circle clip-path="url(#clip322)" cx="1296.32" cy="792.938" r="14.4" fill="#4477aa" fill-rule="evenodd" fill-opacity="1" stroke="#000000" stroke-opacity="1" stroke-width="3.6"/>
<path clip-path="url(#clip322)" d="M1158.19 591.23 L1158.19 623.23 L1190.19 623.23 L1190.19 591.23 L1158.19 591.23 Z" fill="#4477aa" fill-rule="evenodd" fill-opacity="1" stroke="#000000" stroke-opacity="1" stroke-width="3.6"/>
<path clip-path="url(#clip322)" d="M1081.26 549.371 L1081.26 581.371 L1113.26 581.371 L1113.26 549.371 L1081.26 549.371 Z" fill="#ee6677" fill-rule="evenodd" fill-opacity="1" stroke="#000000" stroke-opacity="1" stroke-width="3.6"/>
<path clip-path="url(#clip322)" d="M1026.35 383.937 L1026.35 415.937 L1058.35 415.937 L1058.35 383.937 L1026.35 383.937 Z" fill="#ee6677" fill-rule="evenodd" fill-opacity="1" stroke="#000000" stroke-opacity="1" stroke-width="3.6"/>
<path clip-path="url(#clip322)" d="M1724.26 1130.97 L1724.26 1162.97 L1756.26 1162.97 L1756.26 1130.97 L1724.26 1130.97 Z" fill="#ee6677" fill-rule="evenodd" fill-opacity="1" stroke="#000000" stroke-opacity="1" stroke-width="3.6"/>
<path clip-path="url(#clip322)" d="M1744.14 1162.1 L1744.14 1194.1 L1776.14 1194.1 L1776.14 1162.1 L1744.14 1162.1 Z" fill="#ee6677" fill-rule="evenodd" fill-opacity="1" stroke="#000000" stroke-opacity="1" stroke-width="3.6"/>
<path clip-path="url(#clip322)" d="M1676.92 1147.52 L1676.92 1179.52 L1708.92 1179.52 L1708.92 1147.52 L1676.92 1147.52 Z" fill="#ee6677" fill-rule="evenodd" fill-opacity="1" stroke="#000000" stroke-opacity="1" stroke-width="3.6"/>
<path clip-path="url(#clip322)" d="M1008.15 435.934 L1008.15 467.934 L1040.15 467.934 L1040.15 435.934 L1008.15 435.934 Z" fill="#ee6677" fill-rule="evenodd" fill-opacity="1" stroke="#000000" stroke-opacity="1" stroke-width="3.6"/>
<path clip-path="url(#clip322)" d="M970.995 273.882 L970.995 305.882 L1002.99 305.882 L1002.99 273.882 L970.995 273.882 Z" fill="#ee6677" fill-rule="evenodd" fill-opacity="1" stroke="#000000" stroke-opacity="1" stroke-width="3.6"/>
<path clip-path="url(#clip322)" d="M1012.63 377.855 L1012.63 409.855 L1044.63 409.855 L1044.63 377.855 L1012.63 377.855 Z" fill="#ee6677" fill-rule="evenodd" fill-opacity="1" stroke="#000000" stroke-opacity="1" stroke-width="3.6"/>
<path clip-path="url(#clip322)" d="M1135.53 575.132 L1135.53 607.132 L1167.53 607.132 L1167.53 575.132 L1135.53 575.132 Z" fill="#ee6677" fill-rule="evenodd" fill-opacity="1" stroke="#000000" stroke-opacity="1" stroke-width="3.6"/>
<path clip-path="url(#clip322)" d="M967.84 266.007 L967.84 298.007 L999.84 298.007 L999.84 266.007 L967.84 266.007 Z" fill="#ee6677" fill-rule="evenodd" fill-opacity="1" stroke="#000000" stroke-opacity="1" stroke-width="3.6"/>
<path clip-path="url(#clip322)" d="M1023.55 492.76 L1023.55 524.76 L1055.55 524.76 L1055.55 492.76 L1023.55 492.76 Z" fill="#ee6677" fill-rule="evenodd" fill-opacity="1" stroke="#000000" stroke-opacity="1" stroke-width="3.6"/>
<path clip-path="url(#clip320)" d="M1922.63 449.248 L2280.55 449.248 L2280.55 99.3277 L1922.63 99.3277  Z" fill="#ffffff" fill-rule="evenodd" fill-opacity="1"/>
<polyline clip-path="url(#clip320)" style="stroke:#000000; stroke-linecap:round; stroke-linejoin:round; stroke-width:4; stroke-opacity:1; fill:none" points="1922.63,449.248 2280.55,449.248 2280.55,99.3277 1922.63,99.3277 1922.63,449.248 "/>
<circle clip-path="url(#clip320)" cx="2018.91" cy="215.968" r="46.08" fill="#4477aa" fill-rule="evenodd" fill-opacity="1" stroke="#000000" stroke-opacity="1" stroke-width="11.52"/>
<path clip-path="url(#clip320)" d="M2115.18 216.498 Q2115.18 202.707 2117.99 194.326 Q2120.85 185.893 2126.42 181.331 Q2132.05 176.769 2140.53 176.769 Q2146.79 176.769 2151.51 179.315 Q2156.23 181.808 2159.31 186.582 Q2162.39 191.303 2164.14 198.145 Q2165.89 204.935 2165.89 216.498 Q2165.89 230.183 2163.08 238.617 Q2160.26 246.997 2154.64 251.612 Q2149.07 256.174 2140.53 256.174 Q2129.29 256.174 2122.87 248.111 Q2115.18 238.405 2115.18 216.498 M2124.99 216.498 Q2124.99 235.646 2129.45 242.011 Q2133.96 248.323 2140.53 248.323 Q2147.11 248.323 2151.57 241.958 Q2156.07 235.593 2156.07 216.498 Q2156.07 197.297 2151.57 190.985 Q2147.11 184.673 2140.43 184.673 Q2133.85 184.673 2129.92 190.242 Q2124.99 197.35 2124.99 216.498 Z" fill="#000000" fill-rule="nonzero" fill-opacity="1" /><path clip-path="url(#clip320)" d="M2180.95 254.848 L2180.95 243.974 L2191.82 243.974 L2191.82 254.848 L2180.95 254.848 Z" fill="#000000" fill-rule="nonzero" fill-opacity="1" /><path clip-path="url(#clip320)" d="M2205.77 216.498 Q2205.77 202.707 2208.59 194.326 Q2211.45 185.893 2217.02 181.331 Q2222.64 176.769 2231.13 176.769 Q2237.39 176.769 2242.11 179.315 Q2246.83 181.808 2249.91 186.582 Q2252.98 191.303 2254.73 198.145 Q2256.48 204.935 2256.48 216.498 Q2256.48 230.183 2253.67 238.617 Q2250.86 246.997 2245.24 251.612 Q2239.67 256.174 2231.13 256.174 Q2219.88 256.174 2213.47 248.111 Q2205.77 238.405 2205.77 216.498 M2215.59 216.498 Q2215.59 235.646 2220.04 242.011 Q2224.55 248.323 2231.13 248.323 Q2237.71 248.323 2242.16 241.958 Q2246.67 235.593 2246.67 216.498 Q2246.67 197.297 2242.16 190.985 Q2237.71 184.673 2231.02 184.673 Q2224.45 184.673 2220.52 190.242 Q2215.59 197.35 2215.59 216.498 Z" fill="#000000" fill-rule="nonzero" fill-opacity="1" /><path clip-path="url(#clip320)" d="M1967.71 281.408 L1967.71 383.808 L2070.11 383.808 L2070.11 281.408 L1967.71 281.408 Z" fill="#ee6677" fill-rule="evenodd" fill-opacity="1" stroke="#000000" stroke-opacity="1" stroke-width="11.52"/>
<path clip-path="url(#clip320)" d="M2143.82 371.488 L2134.27 371.488 L2134.27 310.648 Q2130.83 313.937 2125.2 317.225 Q2119.63 320.514 2115.18 322.158 L2115.18 312.929 Q2123.19 309.163 2129.18 303.806 Q2135.18 298.448 2137.67 293.409 L2143.82 293.409 L2143.82 371.488 Z" fill="#000000" fill-rule="nonzero" fill-opacity="1" /><path clip-path="url(#clip320)" d="M2173.63 371.488 L2173.63 360.614 L2184.5 360.614 L2184.5 371.488 L2173.63 371.488 Z" fill="#000000" fill-rule="nonzero" fill-opacity="1" /><path clip-path="url(#clip320)" d="M2198.45 333.138 Q2198.45 319.347 2201.27 310.966 Q2204.13 302.533 2209.7 297.971 Q2215.32 293.409 2223.81 293.409 Q2230.07 293.409 2234.79 295.955 Q2239.51 298.448 2242.59 303.222 Q2245.66 307.943 2247.41 314.785 Q2249.16 321.575 2249.16 333.138 Q2249.16 346.823 2246.35 355.257 Q2243.54 363.637 2237.92 368.252 Q2232.35 372.814 2223.81 372.814 Q2212.56 372.814 2206.15 364.751 Q2198.45 355.045 2198.45 333.138 M2208.27 333.138 Q2208.27 352.286 2212.72 358.651 Q2217.23 364.963 2223.81 364.963 Q2230.39 364.963 2234.84 358.598 Q2239.35 352.233 2239.35 333.138 Q2239.35 313.937 2234.84 307.625 Q2230.39 301.313 2223.7 301.313 Q2217.13 301.313 2213.2 306.882 Q2208.27 313.99 2208.27 333.138 Z" fill="#000000" fill-rule="nonzero" fill-opacity="1" /></svg>
