<?xml version="1.0" encoding="utf-8"?>
<svg xmlns="http://www.w3.org/2000/svg" xmlns:xlink="http://www.w3.org/1999/xlink" width="600" height="450" viewBox="0 0 2400 1800">
<defs>
  <clipPath id="clip220">
    <rect x="0" y="0" width="2400" height="1800"/>
  </clipPath>
</defs>
<path clip-path="url(#clip220)" d="M0 1800 L2400 1800 L2400 0 L0 0  Z" fill="#ffffff" fill-rule="evenodd" fill-opacity="1"/>
<defs>
  <clipPath id="clip221">
    <rect x="480" y="0" width="1681" height="1681"/>
  </clipPath>
</defs>
<path clip-path="url(#clip220)" d="M370.281 1506.52 L2352.76 1506.52 L2352.76 47.2441 L370.281 47.2441  Z" fill="#ffffff" fill-rule="evenodd" fill-opacity="1"/>
<defs>
  <clipPath id="clip222">
    <rect x="370" y="47" width="1983" height="1460"/>
  </clipPath>
</defs>
<polyline clip-path="url(#clip222)" style="stroke:#000000; stroke-linecap:round; stroke-linejoin:round; stroke-width:2; stroke-opacity:0.1; fill:none" points="684.356,1506.52 684.356,47.2441 "/>
<polyline clip-path="url(#clip222)" style="stroke:#000000; stroke-linecap:round; stroke-linejoin:round; stroke-width:2; stroke-opacity:0.1; fill:none" points="1006.81,1506.52 1006.81,47.2441 "/>
<polyline clip-path="url(#clip222)" style="stroke:#000000; stroke-linecap:round; stroke-linejoin:round; stroke-width:2; stroke-opacity:0.1; fill:none" points="1329.27,1506.52 1329.27,47.2441 "/>
<polyline clip-path="url(#clip222)" style="stroke:#000000; stroke-linecap:round; stroke-linejoin:round; stroke-width:2; stroke-opacity:0.1; fill:none" points="1651.73,1506.52 1651.73,47.2441 "/>
<polyline clip-path="url(#clip222)" style="stroke:#000000; stroke-linecap:round; stroke-linejoin:round; stroke-width:2; stroke-opacity:0.1; fill:none" points="1974.19,1506.52 1974.19,47.2441 "/>
<polyline clip-path="url(#clip222)" style="stroke:#000000; stroke-linecap:round; stroke-linejoin:round; stroke-width:2; stroke-opacity:0.1; fill:none" points="2296.65,1506.52 2296.65,47.2441 "/>
<polyline clip-path="url(#clip222)" style="stroke:#000000; stroke-linecap:round; stroke-linejoin:round; stroke-width:2; stroke-opacity:0.1; fill:none" points="370.281,1208.25 2352.76,1208.25 "/>
<polyline clip-path="url(#clip222)" style="stroke:#000000; stroke-linecap:round; stroke-linejoin:round; stroke-width:2; stroke-opacity:0.1; fill:none" points="370.281,897.962 2352.76,897.962 "/>
<polyline clip-path="url(#clip222)" style="stroke:#000000; stroke-linecap:round; stroke-linejoin:round; stroke-width:2; stroke-opacity:0.1; fill:none" points="370.281,587.673 2352.76,587.673 "/>
<polyline clip-path="url(#clip222)" style="stroke:#000000; stroke-linecap:round; stroke-linejoin:round; stroke-width:2; stroke-opacity:0.1; fill:none" points="370.281,277.384 2352.76,277.384 "/>
<polyline clip-path="url(#clip220)" style="stroke:#000000; stroke-linecap:round; stroke-linejoin:round; stroke-width:4; stroke-opacity:1; fill:none" points="370.281,1506.52 2352.76,1506.52 "/>
<polyline clip-path="url(#clip220)" style="stroke:#000000; stroke-linecap:round; stroke-linejoin:round; stroke-width:2; stroke-opacity:0.5; fill:none" points="370.281,47.2441 2352.76,47.2441 "/>
<polyline clip-path="url(#clip220)" style="stroke:#000000; stroke-linecap:round; stroke-linejoin:round; stroke-width:4; stroke-opacity:1; fill:none" points="684.356,1506.52 684.356,1487.63 "/>
<polyline clip-path="url(#clip220)" style="stroke:#000000; stroke-linecap:round; stroke-linejoin:round; stroke-width:4; stroke-opacity:1; fill:none" points="1006.81,1506.52 1006.81,1487.63 "/>
<polyline clip-path="url(#clip220)" style="stroke:#000000; stroke-linecap:round; stroke-linejoin:round; stroke-width:4; stroke-opacity:1; fill:none" points="1329.27,1506.52 1329.27,1487.63 "/>
<polyline clip-path="url(#clip220)" style="stroke:#000000; stroke-linecap:round; stroke-linejoin:round; stroke-width:4; stroke-opacity:1; fill:none" points="1651.73,1506.52 1651.73,1487.63 "/>
<polyline clip-path="url(#clip220)" style="stroke:#000000; stroke-linecap:round; stroke-linejoin:round; stroke-width:4; stroke-opacity:1; fill:none" points="1974.19,1506.52 1974.19,1487.63 "/>
<polyline clip-path="url(#clip220)" style="stroke:#000000; stroke-linecap:round; stroke-linejoin:round; stroke-width:4; stroke-opacity:1; fill:none" points="2296.65,1506.52 2296.65,1487.63 "/>
<path clip-path="url(#clip220)" d="M661.441 1594.02 L670.352 1593.26 Q671.343 1599.77 674.926 1603.07 Q678.556 1606.32 683.648 1606.32 Q689.778 1606.32 694.021 1601.7 Q698.265 1597.08 698.265 1589.45 Q698.265 1582.18 694.163 1577.99 Q690.108 1573.79 683.507 1573.79 Q679.405 1573.79 676.105 1575.68 Q672.804 1577.52 670.918 1580.49 L662.95 1579.45 L669.645 1543.95 L704.017 1543.95 L704.017 1552.06 L676.435 1552.06 L672.71 1570.63 Q678.934 1566.3 685.77 1566.3 Q694.823 1566.3 701.046 1572.57 Q707.27 1578.84 707.27 1588.69 Q707.27 1598.07 701.801 1604.91 Q695.153 1613.3 683.648 1613.3 Q674.219 1613.3 668.231 1608.02 Q662.29 1602.74 661.441 1594.02 Z" fill="#000000" fill-rule="nonzero" fill-opacity="1" /><path clip-path="url(#clip220)" d="M986.139 1612.12 L977.653 1612.12 L977.653 1558.04 Q974.588 1560.97 969.59 1563.89 Q964.64 1566.81 960.679 1568.28 L960.679 1560.07 Q967.799 1556.72 973.126 1551.96 Q978.454 1547.2 980.67 1542.72 L986.139 1542.72 L986.139 1612.12 Z" fill="#000000" fill-rule="nonzero" fill-opacity="1" /><path clip-path="url(#clip220)" d="M1007.87 1578.04 Q1007.87 1565.78 1010.37 1558.33 Q1012.92 1550.83 1017.87 1546.78 Q1022.87 1542.72 1030.41 1542.72 Q1035.98 1542.72 1040.17 1544.98 Q1044.37 1547.2 1047.1 1551.44 Q1049.84 1555.64 1051.39 1561.72 Q1052.95 1567.76 1052.95 1578.04 Q1052.95 1590.2 1050.45 1597.7 Q1047.95 1605.15 1042.95 1609.25 Q1038 1613.3 1030.41 1613.3 Q1020.42 1613.3 1014.71 1606.14 Q1007.87 1597.51 1007.87 1578.04 M1016.6 1578.04 Q1016.6 1595.06 1020.56 1600.71 Q1024.57 1606.32 1030.41 1606.32 Q1036.26 1606.32 1040.22 1600.67 Q1044.23 1595.01 1044.23 1578.04 Q1044.23 1560.97 1040.22 1555.36 Q1036.26 1549.75 1030.32 1549.75 Q1024.47 1549.75 1020.98 1554.7 Q1016.6 1561.01 1016.6 1578.04 Z" fill="#000000" fill-rule="nonzero" fill-opacity="1" /><path clip-path="url(#clip220)" d="M1308.22 1612.12 L1299.73 1612.12 L1299.73 1558.04 Q1296.67 1560.97 1291.67 1563.89 Q1286.72 1566.81 1282.76 1568.28 L1282.76 1560.07 Q1289.88 1556.72 1295.21 1551.96 Q1300.54 1547.2 1302.75 1542.72 L1308.22 1542.72 L1308.22 1612.12 Z" fill="#000000" fill-rule="nonzero" fill-opacity="1" /><path clip-path="url(#clip220)" d="M1329.96 1594.02 L1338.87 1593.26 Q1339.86 1599.77 1343.44 1603.07 Q1347.07 1606.32 1352.16 1606.32 Q1358.29 1606.32 1362.54 1601.7 Q1366.78 1597.08 1366.78 1589.45 Q1366.78 1582.18 1362.68 1577.99 Q1358.62 1573.79 1352.02 1573.79 Q1347.92 1573.79 1344.62 1575.68 Q1341.32 1577.52 1339.43 1580.49 L1331.47 1579.45 L1338.16 1543.95 L1372.53 1543.95 L1372.53 1552.06 L1344.95 1552.06 L1341.22 1570.63 Q1347.45 1566.3 1354.29 1566.3 Q1363.34 1566.3 1369.56 1572.57 Q1375.78 1578.84 1375.78 1588.69 Q1375.78 1598.07 1370.32 1604.91 Q1363.67 1613.3 1352.16 1613.3 Q1342.73 1613.3 1336.75 1608.02 Q1330.8 1602.74 1329.96 1594.02 Z" fill="#000000" fill-rule="nonzero" fill-opacity="1" /><path clip-path="url(#clip220)" d="M1647.53 1603.97 L1647.53 1612.12 L1601.85 1612.12 Q1601.75 1609.06 1602.84 1606.23 Q1604.58 1601.56 1608.4 1597.04 Q1612.27 1592.51 1619.53 1586.57 Q1630.8 1577.33 1634.76 1571.95 Q1638.72 1566.53 1638.72 1561.72 Q1638.72 1556.68 1635.09 1553.24 Q1631.5 1549.75 1625.71 1549.75 Q1619.58 1549.75 1615.9 1553.42 Q1612.22 1557.1 1612.17 1563.61 L1603.45 1562.71 Q1604.35 1552.95 1610.19 1547.86 Q1616.04 1542.72 1625.89 1542.72 Q1635.84 1542.72 1641.64 1548.24 Q1647.44 1553.75 1647.44 1561.91 Q1647.44 1566.06 1645.74 1570.07 Q1644.05 1574.07 1640.09 1578.51 Q1636.17 1582.94 1627.03 1590.67 Q1619.39 1597.08 1617.22 1599.39 Q1615.05 1601.66 1613.63 1603.97 L1647.53 1603.97 Z" fill="#000000" fill-rule="nonzero" fill-opacity="1" /><path clip-path="url(#clip220)" d="M1656.63 1578.04 Q1656.63 1565.78 1659.13 1558.33 Q1661.68 1550.83 1666.63 1546.78 Q1671.63 1542.72 1679.17 1542.72 Q1684.74 1542.72 1688.93 1544.98 Q1693.13 1547.2 1695.86 1551.44 Q1698.6 1555.64 1700.15 1561.72 Q1701.71 1567.76 1701.71 1578.04 Q1701.71 1590.2 1699.21 1597.7 Q1696.71 1605.15 1691.71 1609.25 Q1686.76 1613.3 1679.17 1613.3 Q1669.18 1613.3 1663.47 1606.14 Q1656.63 1597.51 1656.63 1578.04 M1665.36 1578.04 Q1665.36 1595.06 1669.32 1600.71 Q1673.33 1606.32 1679.17 1606.32 Q1685.02 1606.32 1688.98 1600.67 Q1692.99 1595.01 1692.99 1578.04 Q1692.99 1560.97 1688.98 1555.36 Q1685.02 1549.75 1679.08 1549.75 Q1673.23 1549.75 1669.74 1554.7 Q1665.36 1561.01 1665.36 1578.04 Z" fill="#000000" fill-rule="nonzero" fill-opacity="1" /><path clip-path="url(#clip220)" d="M1969.62 1603.97 L1969.62 1612.12 L1923.93 1612.12 Q1923.83 1609.06 1924.92 1606.23 Q1926.66 1601.56 1930.48 1597.04 Q1934.35 1592.51 1941.61 1586.57 Q1952.88 1577.33 1956.84 1571.95 Q1960.8 1566.53 1960.8 1561.72 Q1960.8 1556.68 1957.17 1553.24 Q1953.59 1549.75 1947.79 1549.75 Q1941.66 1549.75 1937.98 1553.42 Q1934.3 1557.1 1934.25 1563.61 L1925.53 1562.71 Q1926.43 1552.95 1932.27 1547.86 Q1938.12 1542.72 1947.97 1542.72 Q1957.92 1542.72 1963.72 1548.24 Q1969.52 1553.75 1969.52 1561.91 Q1969.52 1566.06 1967.82 1570.07 Q1966.13 1574.07 1962.17 1578.51 Q1958.25 1582.94 1949.11 1590.67 Q1941.47 1597.08 1939.3 1599.39 Q1937.13 1601.66 1935.72 1603.97 L1969.62 1603.97 Z" fill="#000000" fill-rule="nonzero" fill-opacity="1" /><path clip-path="url(#clip220)" d="M1978.72 1594.02 L1987.63 1593.26 Q1988.62 1599.77 1992.2 1603.07 Q1995.83 1606.32 2000.92 1606.32 Q2007.05 1606.32 2011.3 1601.7 Q2015.54 1597.08 2015.54 1589.45 Q2015.54 1582.18 2011.44 1577.99 Q2007.38 1573.79 2000.78 1573.79 Q1996.68 1573.79 1993.38 1575.68 Q1990.08 1577.52 1988.19 1580.49 L1980.22 1579.45 L1986.92 1543.95 L2021.29 1543.95 L2021.29 1552.06 L1993.71 1552.06 L1989.98 1570.63 Q1996.21 1566.3 2003.04 1566.3 Q2012.1 1566.3 2018.32 1572.57 Q2024.54 1578.84 2024.54 1588.69 Q2024.54 1598.07 2019.08 1604.91 Q2012.43 1613.3 2000.92 1613.3 Q1991.49 1613.3 1985.51 1608.02 Q1979.56 1602.74 1978.72 1594.02 Z" fill="#000000" fill-rule="nonzero" fill-opacity="1" /><path clip-path="url(#clip220)" d="M2247.28 1593.88 L2255.77 1592.75 Q2257.23 1599.96 2260.72 1603.17 Q2264.26 1606.32 2269.3 1606.32 Q2275.29 1606.32 2279.39 1602.18 Q2283.54 1598.03 2283.54 1591.9 Q2283.54 1586.05 2279.72 1582.28 Q2275.9 1578.46 2270.01 1578.46 Q2267.6 1578.46 2264.02 1579.4 L2264.96 1571.95 Q2265.81 1572.05 2266.33 1572.05 Q2271.75 1572.05 2276.09 1569.22 Q2280.43 1566.39 2280.43 1560.5 Q2280.43 1555.83 2277.27 1552.76 Q2274.11 1549.7 2269.11 1549.7 Q2264.16 1549.7 2260.86 1552.81 Q2257.56 1555.92 2256.62 1562.15 L2248.13 1560.64 Q2249.69 1552.1 2255.2 1547.44 Q2260.72 1542.72 2268.92 1542.72 Q2274.58 1542.72 2279.34 1545.17 Q2284.11 1547.58 2286.61 1551.77 Q2289.15 1555.97 2289.15 1560.68 Q2289.15 1565.16 2286.75 1568.84 Q2284.34 1572.52 2279.63 1574.69 Q2285.76 1576.1 2289.15 1580.58 Q2292.55 1585.01 2292.55 1591.71 Q2292.55 1600.76 2285.95 1607.08 Q2279.34 1613.35 2269.25 1613.35 Q2260.16 1613.35 2254.12 1607.93 Q2248.13 1602.51 2247.28 1593.88 Z" fill="#000000" fill-rule="nonzero" fill-opacity="1" /><path clip-path="url(#clip220)" d="M2300.94 1578.04 Q2300.94 1565.78 2303.44 1558.33 Q2305.98 1550.83 2310.93 1546.78 Q2315.93 1542.72 2323.48 1542.72 Q2329.04 1542.72 2333.24 1544.98 Q2337.43 1547.2 2340.17 1551.44 Q2342.9 1555.64 2344.46 1561.72 Q2346.01 1567.76 2346.01 1578.04 Q2346.01 1590.2 2343.51 1597.7 Q2341.02 1605.15 2336.02 1609.25 Q2331.07 1613.3 2323.48 1613.3 Q2313.48 1613.3 2307.78 1606.14 Q2300.94 1597.51 2300.94 1578.04 M2309.66 1578.04 Q2309.66 1595.06 2313.62 1600.71 Q2317.63 1606.32 2323.48 1606.32 Q2329.32 1606.32 2333.28 1600.67 Q2337.29 1595.01 2337.29 1578.04 Q2337.29 1560.97 2333.28 1555.36 Q2329.32 1549.75 2323.38 1549.75 Q2317.54 1549.75 2314.05 1554.7 Q2309.66 1561.01 2309.66 1578.04 Z" fill="#000000" fill-rule="nonzero" fill-opacity="1" /><path clip-path="url(#clip220)" d="M1260.95 1721.38 L1270.82 1722.6 Q1268.48 1731.24 1262.17 1736.01 Q1255.86 1740.79 1246.05 1740.79 Q1233.69 1740.79 1226.42 1733.2 Q1219.21 1725.57 1219.21 1711.83 Q1219.21 1697.61 1226.53 1689.76 Q1233.85 1681.91 1245.51 1681.91 Q1256.81 1681.91 1263.97 1689.6 Q1271.13 1697.29 1271.13 1711.24 Q1271.13 1712.09 1271.08 1713.79 L1229.07 1713.79 Q1229.6 1723.07 1234.32 1728.01 Q1239.04 1732.94 1246.1 1732.94 Q1251.35 1732.94 1255.06 1730.18 Q1258.78 1727.42 1260.95 1721.38 M1229.6 1705.94 L1261.06 1705.94 Q1260.42 1698.83 1257.45 1695.28 Q1252.89 1689.76 1245.62 1689.76 Q1239.04 1689.76 1234.54 1694.16 Q1230.08 1698.57 1229.6 1705.94 Z" fill="#000000" fill-rule="nonzero" fill-opacity="1" /><path clip-path="url(#clip220)" d="M1282.8 1761.1 L1282.8 1683.18 L1291.5 1683.18 L1291.5 1690.5 Q1294.58 1686.21 1298.45 1684.09 Q1302.32 1681.91 1307.84 1681.91 Q1315.05 1681.91 1320.57 1685.62 Q1326.09 1689.34 1328.9 1696.13 Q1331.71 1702.86 1331.71 1710.93 Q1331.71 1719.57 1328.58 1726.52 Q1325.5 1733.42 1319.56 1737.13 Q1313.67 1740.79 1307.15 1740.79 Q1302.38 1740.79 1298.56 1738.77 Q1294.79 1736.76 1292.35 1733.68 L1292.35 1761.1 L1282.8 1761.1 M1291.45 1711.67 Q1291.45 1722.54 1295.85 1727.74 Q1300.25 1732.94 1306.51 1732.94 Q1312.88 1732.94 1317.39 1727.58 Q1321.95 1722.17 1321.95 1710.87 Q1321.95 1700.11 1317.49 1694.75 Q1313.09 1689.39 1306.94 1689.39 Q1300.84 1689.39 1296.12 1695.12 Q1291.45 1700.79 1291.45 1711.67 Z" fill="#000000" fill-rule="nonzero" fill-opacity="1" /><path clip-path="url(#clip220)" d="M1339.67 1711.35 Q1339.67 1695.7 1348.36 1688.17 Q1355.63 1681.91 1366.08 1681.91 Q1377.7 1681.91 1385.07 1689.55 Q1392.44 1697.13 1392.44 1710.55 Q1392.44 1721.43 1389.15 1727.69 Q1385.92 1733.89 1379.66 1737.34 Q1373.45 1740.79 1366.08 1740.79 Q1354.25 1740.79 1346.93 1733.2 Q1339.67 1725.62 1339.67 1711.35 M1349.48 1711.35 Q1349.48 1722.17 1354.2 1727.58 Q1358.92 1732.94 1366.08 1732.94 Q1373.19 1732.94 1377.91 1727.53 Q1382.63 1722.12 1382.63 1711.03 Q1382.63 1700.58 1377.86 1695.23 Q1373.13 1689.82 1366.08 1689.82 Q1358.92 1689.82 1354.2 1695.17 Q1349.48 1700.53 1349.48 1711.35 Z" fill="#000000" fill-rule="nonzero" fill-opacity="1" /><path clip-path="url(#clip220)" d="M1440.39 1718.88 L1449.78 1720.1 Q1448.24 1729.81 1441.88 1735.33 Q1435.57 1740.79 1426.34 1740.79 Q1414.77 1740.79 1407.72 1733.26 Q1400.72 1725.67 1400.72 1711.56 Q1400.72 1702.44 1403.74 1695.6 Q1406.76 1688.75 1412.92 1685.36 Q1419.12 1681.91 1426.39 1681.91 Q1435.57 1681.91 1441.4 1686.58 Q1447.23 1691.19 1448.88 1699.73 L1439.6 1701.17 Q1438.27 1695.49 1434.88 1692.63 Q1431.53 1689.76 1426.76 1689.76 Q1419.55 1689.76 1415.04 1694.96 Q1410.53 1700.11 1410.53 1711.3 Q1410.53 1722.65 1414.88 1727.79 Q1419.23 1732.94 1426.23 1732.94 Q1431.85 1732.94 1435.62 1729.49 Q1439.38 1726.04 1440.39 1718.88 Z" fill="#000000" fill-rule="nonzero" fill-opacity="1" /><path clip-path="url(#clip220)" d="M1457.95 1739.52 L1457.95 1661.76 L1467.5 1661.76 L1467.5 1689.66 Q1474.18 1681.91 1484.36 1681.91 Q1490.62 1681.91 1495.24 1684.4 Q1499.85 1686.84 1501.82 1691.19 Q1503.83 1695.54 1503.83 1703.82 L1503.83 1739.52 L1494.28 1739.52 L1494.28 1703.82 Q1494.28 1696.66 1491.15 1693.42 Q1488.08 1690.13 1482.4 1690.13 Q1478.16 1690.13 1474.39 1692.36 Q1470.68 1694.54 1469.09 1698.3 Q1467.5 1702.07 1467.5 1708.7 L1467.5 1739.52 L1457.95 1739.52 Z" fill="#000000" fill-rule="nonzero" fill-opacity="1" /><polyline clip-path="url(#clip220)" style="stroke:#000000; stroke-linecap:round; stroke-linejoin:round; stroke-width:4; stroke-opacity:1; fill:none" points="370.281,1506.52 370.281,47.2441 "/>
<polyline clip-path="url(#clip220)" style="stroke:#000000; stroke-linecap:round; stroke-linejoin:round; stroke-width:2; stroke-opacity:0.5; fill:none" points="2352.76,1506.52 2352.76,47.2441 "/>
<polyline clip-path="url(#clip220)" style="stroke:#000000; stroke-linecap:round; stroke-linejoin:round; stroke-width:4; stroke-opacity:1; fill:none" points="370.281,1208.25 389.179,1208.25 "/>
<polyline clip-path="url(#clip220)" style="stroke:#000000; stroke-linecap:round; stroke-linejoin:round; stroke-width:4; stroke-opacity:1; fill:none" points="370.281,897.962 389.179,897.962 "/>
<polyline clip-path="url(#clip220)" style="stroke:#000000; stroke-linecap:round; stroke-linejoin:round; stroke-width:4; stroke-opacity:1; fill:none" points="370.281,587.673 389.179,587.673 "/>
<polyline clip-path="url(#clip220)" style="stroke:#000000; stroke-linecap:round; stroke-linejoin:round; stroke-width:4; stroke-opacity:1; fill:none" points="370.281,277.384 389.179,277.384 "/>
<path clip-path="url(#clip220)" d="M154.975 1208.72 Q154.975 1196.46 157.473 1189.01 Q160.019 1181.52 164.97 1177.46 Q169.968 1173.41 177.512 1173.41 Q183.075 1173.41 187.271 1175.67 Q191.468 1177.89 194.202 1182.13 Q196.937 1186.33 198.493 1192.41 Q200.049 1198.44 200.049 1208.72 Q200.049 1220.89 197.55 1228.38 Q195.051 1235.83 190.053 1239.94 Q185.103 1243.99 177.512 1243.99 Q167.516 1243.99 161.811 1236.82 Q154.975 1228.2 154.975 1208.72 M163.697 1208.72 Q163.697 1225.74 167.658 1231.4 Q171.665 1237.01 177.512 1237.01 Q183.358 1237.01 187.319 1231.35 Q191.326 1225.7 191.326 1208.72 Q191.326 1191.66 187.319 1186.04 Q183.358 1180.43 177.417 1180.43 Q171.571 1180.43 168.082 1185.38 Q163.697 1191.7 163.697 1208.72 Z" fill="#000000" fill-rule="nonzero" fill-opacity="1" /><path clip-path="url(#clip220)" d="M213.439 1242.81 L213.439 1233.15 L223.104 1233.15 L223.104 1242.81 L213.439 1242.81 Z" fill="#000000" fill-rule="nonzero" fill-opacity="1" /><path clip-path="url(#clip220)" d="M267.471 1242.81 L258.985 1242.81 L258.985 1188.73 Q255.92 1191.66 250.922 1194.58 Q245.972 1197.5 242.011 1198.96 L242.011 1190.76 Q249.13 1187.41 254.458 1182.65 Q259.786 1177.89 262.002 1173.41 L267.471 1173.41 L267.471 1242.81 Z" fill="#000000" fill-rule="nonzero" fill-opacity="1" /><path clip-path="url(#clip220)" d="M289.207 1208.72 Q289.207 1196.46 291.706 1189.01 Q294.252 1181.52 299.202 1177.46 Q304.2 1173.41 311.744 1173.41 Q317.308 1173.41 321.504 1175.67 Q325.7 1177.89 328.435 1182.13 Q331.169 1186.33 332.725 1192.41 Q334.281 1198.44 334.281 1208.72 Q334.281 1220.89 331.782 1228.38 Q329.283 1235.83 324.286 1239.94 Q319.335 1243.99 311.744 1243.99 Q301.748 1243.99 296.043 1236.82 Q289.207 1228.2 289.207 1208.72 M297.929 1208.72 Q297.929 1225.74 301.89 1231.4 Q305.898 1237.01 311.744 1237.01 Q317.59 1237.01 321.551 1231.35 Q325.559 1225.7 325.559 1208.72 Q325.559 1191.66 321.551 1186.04 Q317.59 1180.43 311.65 1180.43 Q305.803 1180.43 302.314 1185.38 Q297.929 1191.7 297.929 1208.72 Z" fill="#000000" fill-rule="nonzero" fill-opacity="1" /><path clip-path="url(#clip220)" d="M154.22 898.434 Q154.22 886.175 156.719 878.726 Q159.265 871.229 164.216 867.174 Q169.213 863.119 176.757 863.119 Q182.321 863.119 186.517 865.383 Q190.713 867.599 193.448 871.842 Q196.183 876.038 197.738 882.12 Q199.294 888.155 199.294 898.434 Q199.294 910.598 196.795 918.095 Q194.297 925.544 189.299 929.646 Q184.348 933.701 176.757 933.701 Q166.762 933.701 161.057 926.534 Q154.22 917.906 154.22 898.434 M162.943 898.434 Q162.943 915.454 166.903 921.112 Q170.911 926.723 176.757 926.723 Q182.604 926.723 186.564 921.065 Q190.572 915.407 190.572 898.434 Q190.572 881.366 186.564 875.755 Q182.604 870.145 176.663 870.145 Q170.817 870.145 167.327 875.095 Q162.943 881.413 162.943 898.434 Z" fill="#000000" fill-rule="nonzero" fill-opacity="1" /><path clip-path="url(#clip220)" d="M212.685 932.522 L212.685 922.857 L222.35 922.857 L222.35 932.522 L212.685 932.522 Z" fill="#000000" fill-rule="nonzero" fill-opacity="1" /><path clip-path="url(#clip220)" d="M266.717 932.522 L258.23 932.522 L258.23 878.443 Q255.166 881.366 250.168 884.289 Q245.217 887.212 241.257 888.674 L241.257 880.47 Q248.376 877.123 253.704 872.361 Q259.032 867.599 261.248 863.119 L266.717 863.119 L266.717 932.522 Z" fill="#000000" fill-rule="nonzero" fill-opacity="1" /><path clip-path="url(#clip220)" d="M288.453 914.417 L297.364 913.663 Q298.354 920.169 301.937 923.47 Q305.567 926.723 310.66 926.723 Q316.789 926.723 321.032 922.102 Q325.276 917.482 325.276 909.844 Q325.276 902.583 321.174 898.387 Q317.119 894.19 310.518 894.19 Q306.416 894.19 303.116 896.076 Q299.815 897.915 297.929 900.886 L289.961 899.848 L296.656 864.345 L331.028 864.345 L331.028 872.455 L303.446 872.455 L299.721 891.031 Q305.945 886.694 312.781 886.694 Q321.834 886.694 328.057 892.965 Q334.281 899.235 334.281 909.089 Q334.281 918.472 328.812 925.309 Q322.164 933.701 310.66 933.701 Q301.23 933.701 295.242 928.42 Q289.301 923.14 288.453 914.417 Z" fill="#000000" fill-rule="nonzero" fill-opacity="1" /><path clip-path="url(#clip220)" d="M154.975 588.145 Q154.975 575.886 157.473 568.437 Q160.019 560.94 164.97 556.885 Q169.968 552.83 177.512 552.83 Q183.075 552.83 187.271 555.093 Q191.468 557.309 194.202 561.553 Q196.937 565.749 198.493 571.831 Q200.049 577.866 200.049 588.145 Q200.049 600.309 197.55 607.806 Q195.051 615.255 190.053 619.357 Q185.103 623.412 177.512 623.412 Q167.516 623.412 161.811 616.245 Q154.975 607.617 154.975 588.145 M163.697 588.145 Q163.697 605.165 167.658 610.823 Q171.665 616.434 177.512 616.434 Q183.358 616.434 187.319 610.776 Q191.326 605.118 191.326 588.145 Q191.326 571.077 187.319 565.466 Q183.358 559.855 177.417 559.855 Q171.571 559.855 168.082 564.806 Q163.697 571.124 163.697 588.145 Z" fill="#000000" fill-rule="nonzero" fill-opacity="1" /><path clip-path="url(#clip220)" d="M213.439 622.233 L213.439 612.568 L223.104 612.568 L223.104 622.233 L213.439 622.233 Z" fill="#000000" fill-rule="nonzero" fill-opacity="1" /><path clip-path="url(#clip220)" d="M280.107 614.076 L280.107 622.233 L234.42 622.233 Q234.326 619.169 235.41 616.34 Q237.155 611.672 240.974 607.146 Q244.84 602.619 252.101 596.679 Q263.369 587.437 267.33 582.062 Q271.29 576.64 271.29 571.831 Q271.29 566.786 267.66 563.344 Q264.077 559.855 258.277 559.855 Q252.148 559.855 248.47 563.533 Q244.793 567.211 244.746 573.717 L236.023 572.821 Q236.919 563.062 242.765 557.969 Q248.612 552.83 258.466 552.83 Q268.414 552.83 274.214 558.347 Q280.013 563.863 280.013 572.02 Q280.013 576.169 278.316 580.177 Q276.618 584.184 272.658 588.616 Q268.744 593.048 259.598 600.781 Q251.959 607.193 249.791 609.503 Q247.622 611.766 246.207 614.076 L280.107 614.076 Z" fill="#000000" fill-rule="nonzero" fill-opacity="1" /><path clip-path="url(#clip220)" d="M289.207 588.145 Q289.207 575.886 291.706 568.437 Q294.252 560.94 299.202 556.885 Q304.2 552.83 311.744 552.83 Q317.308 552.83 321.504 555.093 Q325.7 557.309 328.435 561.553 Q331.169 565.749 332.725 571.831 Q334.281 577.866 334.281 588.145 Q334.281 600.309 331.782 607.806 Q329.283 615.255 324.286 619.357 Q319.335 623.412 311.744 623.412 Q301.748 623.412 296.043 616.245 Q289.207 607.617 289.207 588.145 M297.929 588.145 Q297.929 605.165 301.89 610.823 Q305.898 616.434 311.744 616.434 Q317.59 616.434 321.551 610.776 Q325.559 605.118 325.559 588.145 Q325.559 571.077 321.551 565.466 Q317.59 559.855 311.65 559.855 Q305.803 559.855 302.314 564.806 Q297.929 571.124 297.929 588.145 Z" fill="#000000" fill-rule="nonzero" fill-opacity="1" /><path clip-path="url(#clip220)" d="M154.22 277.856 Q154.22 265.597 156.719 258.147 Q159.265 250.651 164.216 246.596 Q169.213 242.541 176.757 242.541 Q182.321 242.541 186.517 244.804 Q190.713 247.02 193.448 251.264 Q196.183 255.46 197.738 261.542 Q199.294 267.577 199.294 277.856 Q199.294 290.02 196.795 297.517 Q194.297 304.966 189.299 309.068 Q184.348 313.123 176.757 313.123 Q166.762 313.123 161.057 305.956 Q154.22 297.328 154.22 277.856 M162.943 277.856 Q162.943 294.876 166.903 300.534 Q170.911 306.145 176.757 306.145 Q182.604 306.145 186.564 300.487 Q190.572 294.829 190.572 277.856 Q190.572 260.788 186.564 255.177 Q182.604 249.566 176.663 249.566 Q170.817 249.566 167.327 254.517 Q162.943 260.835 162.943 277.856 Z" fill="#000000" fill-rule="nonzero" fill-opacity="1" /><path clip-path="url(#clip220)" d="M212.685 311.944 L212.685 302.279 L222.35 302.279 L222.35 311.944 L212.685 311.944 Z" fill="#000000" fill-rule="nonzero" fill-opacity="1" /><path clip-path="url(#clip220)" d="M279.353 303.787 L279.353 311.944 L233.666 311.944 Q233.571 308.879 234.656 306.05 Q236.4 301.383 240.219 296.856 Q244.086 292.33 251.346 286.389 Q262.615 277.148 266.576 271.773 Q270.536 266.351 270.536 261.542 Q270.536 256.497 266.906 253.055 Q263.322 249.566 257.523 249.566 Q251.394 249.566 247.716 253.244 Q244.038 256.921 243.991 263.428 L235.269 262.532 Q236.165 252.772 242.011 247.68 Q247.857 242.541 257.712 242.541 Q267.66 242.541 273.459 248.058 Q279.259 253.574 279.259 261.731 Q279.259 265.88 277.561 269.887 Q275.864 273.895 271.903 278.327 Q267.99 282.759 258.843 290.491 Q251.205 296.904 249.036 299.214 Q246.867 301.477 245.453 303.787 L279.353 303.787 Z" fill="#000000" fill-rule="nonzero" fill-opacity="1" /><path clip-path="url(#clip220)" d="M288.453 293.839 L297.364 293.085 Q298.354 299.591 301.937 302.891 Q305.567 306.145 310.66 306.145 Q316.789 306.145 321.032 301.524 Q325.276 296.904 325.276 289.266 Q325.276 282.005 321.174 277.808 Q317.119 273.612 310.518 273.612 Q306.416 273.612 303.116 275.498 Q299.815 277.337 297.929 280.307 L289.961 279.27 L296.656 243.767 L331.028 243.767 L331.028 251.877 L303.446 251.877 L299.721 270.453 Q305.945 266.115 312.781 266.115 Q321.834 266.115 328.057 272.386 Q334.281 278.657 334.281 288.511 Q334.281 297.894 328.812 304.73 Q322.164 313.123 310.66 313.123 Q301.23 313.123 295.242 307.842 Q289.301 302.561 288.453 293.839 Z" fill="#000000" fill-rule="nonzero" fill-opacity="1" /><path clip-path="url(#clip220)" d="M94.8922 867.905 L17.1322 867.905 L17.1322 858.357 L94.8922 858.357 L94.8922 867.905 Z" fill="#000000" fill-rule="nonzero" fill-opacity="1" /><path clip-path="url(#clip220)" d="M66.7267 847.112 Q51.0792 847.112 43.5472 838.413 Q37.2882 831.146 37.2882 820.697 Q37.2882 809.081 44.9263 801.708 Q52.5114 794.335 65.9311 794.335 Q76.8047 794.335 83.0637 797.623 Q89.2697 800.859 92.7174 807.118 Q96.1652 813.324 96.1652 820.697 Q96.1652 832.525 88.5801 839.845 Q80.9951 847.112 66.7267 847.112 M66.7267 837.299 Q77.5473 837.299 82.9576 832.578 Q88.3149 827.858 88.3149 820.697 Q88.3149 813.589 82.9046 808.868 Q77.4943 804.148 66.4084 804.148 Q55.9591 804.148 50.6018 808.921 Q45.1915 813.642 45.1915 820.697 Q45.1915 827.858 50.5488 832.578 Q55.9061 837.299 66.7267 837.299 Z" fill="#000000" fill-rule="nonzero" fill-opacity="1" /><path clip-path="url(#clip220)" d="M78.0778 786.962 L76.5926 777.52 Q82.2681 776.725 85.2915 773.118 Q88.3149 769.458 88.3149 762.934 Q88.3149 756.357 85.6628 753.174 Q82.9576 749.991 79.3508 749.991 Q76.1152 749.991 74.2587 752.803 Q72.9857 754.765 71.0231 762.563 Q68.371 773.065 66.4615 777.149 Q64.4989 781.18 61.1042 783.302 Q57.6565 785.371 53.5192 785.371 Q49.7532 785.371 46.5706 783.673 Q43.335 781.923 41.2134 778.953 Q39.569 776.725 38.4552 772.906 Q37.2882 769.034 37.2882 764.631 Q37.2882 758.001 39.1978 753.015 Q41.1073 747.976 44.3959 745.589 Q47.6315 743.202 53.0948 742.3 L54.3678 751.636 Q50.0184 752.272 47.5784 755.349 Q45.1385 758.372 45.1385 763.942 Q45.1385 770.519 47.3132 773.33 Q49.488 776.141 52.4053 776.141 Q54.2618 776.141 55.7469 774.974 Q57.2852 773.807 58.293 771.314 Q58.8234 769.882 60.7329 762.881 Q63.4381 752.75 65.1885 748.772 Q66.8858 744.74 70.1744 742.459 Q73.4631 740.179 78.343 740.179 Q83.1168 740.179 87.3602 742.99 Q91.5505 745.748 93.8844 750.999 Q96.1652 756.25 96.1652 762.881 Q96.1652 773.861 91.6035 779.642 Q87.0419 785.371 78.0778 786.962 Z" fill="#000000" fill-rule="nonzero" fill-opacity="1" /><path clip-path="url(#clip220)" d="M78.0778 732.647 L76.5926 723.205 Q82.2681 722.41 85.2915 718.803 Q88.3149 715.143 88.3149 708.619 Q88.3149 702.041 85.6628 698.859 Q82.9576 695.676 79.3508 695.676 Q76.1152 695.676 74.2587 698.487 Q72.9857 700.45 71.0231 708.247 Q68.371 718.75 66.4615 722.834 Q64.4989 726.865 61.1042 728.987 Q57.6565 731.055 53.5192 731.055 Q49.7532 731.055 46.5706 729.358 Q43.335 727.608 41.2134 724.637 Q39.569 722.41 38.4552 718.59 Q37.2882 714.718 37.2882 710.316 Q37.2882 703.686 39.1978 698.7 Q41.1073 693.661 44.3959 691.274 Q47.6315 688.887 53.0948 687.985 L54.3678 697.32 Q50.0184 697.957 47.5784 701.033 Q45.1385 704.057 45.1385 709.626 Q45.1385 716.204 47.3132 719.015 Q49.488 721.826 52.4053 721.826 Q54.2618 721.826 55.7469 720.659 Q57.2852 719.492 58.293 716.999 Q58.8234 715.567 60.7329 708.565 Q63.4381 698.434 65.1885 694.456 Q66.8858 690.425 70.1744 688.144 Q73.4631 685.863 78.343 685.863 Q83.1168 685.863 87.3602 688.675 Q91.5505 691.433 93.8844 696.684 Q96.1652 701.935 96.1652 708.565 Q96.1652 719.545 91.6035 725.327 Q87.0419 731.055 78.0778 732.647 Z" fill="#000000" fill-rule="nonzero" fill-opacity="1" /><polyline clip-path="url(#clip222)" style="stroke:#4477aa; stroke-linecap:round; stroke-linejoin:round; stroke-width:8; stroke-opacity:1; fill:none" points="426.389,88.5445 490.881,248.037 555.372,403.395 619.864,564.523 684.356,686.857 748.847,770.425 813.339,829.263 877.831,873.831 942.322,910.825 1006.81,944.225 1071.31,977.225 1135.8,1011.82 1200.29,1049.57 1264.78,1091.91 1329.27,1138.03 1393.76,1186.29 1458.26,1233.11 1522.75,1276.26 1587.24,1313.32 1651.73,1343.5 1716.22,1367.34 1780.71,1385.8 1845.21,1399.46 1909.7,1409.5 1974.19,1417.08 2038.68,1422.37 2103.17,1426.26 2167.66,1429.37 2232.16,1431.67 2296.65,1433.35 "/>
<circle clip-path="url(#clip222)" cx="426.389" cy="88.5445" r="14.4" fill="#4477aa" fill-rule="evenodd" fill-opacity="1" stroke="#000000" stroke-opacity="1" stroke-width="3.6"/>
<circle clip-path="url(#clip222)" cx="490.881" cy="248.037" r="14.4" fill="#4477aa" fill-rule="evenodd" fill-opacity="1" stroke="#000000" stroke-opacity="1" stroke-width="3.6"/>
<circle clip-path="url(#clip222)" cx="555.372" cy="403.395" r="14.4" fill="#4477aa" fill-rule="evenodd" fill-opacity="1" stroke="#000000" stroke-opacity="1" stroke-width="3.6"/>
<circle clip-path="url(#clip222)" cx="619.864" cy="564.523" r="14.4" fill="#4477aa" fill-rule="evenodd" fill-opacity="1" stroke="#000000" stroke-opacity="1" stroke-width="3.6"/>
<circle clip-path="url(#clip222)" cx="684.356" cy="686.857" r="14.4" fill="#4477aa" fill-rule="evenodd" fill-opacity="1" stroke="#000000" stroke-opacity="1" stroke-width="3.6"/>
<circle clip-path="url(#clip222)" cx="748.847" cy="770.425" r="14.4" fill="#4477aa" fill-rule="evenodd" fill-opacity="1" stroke="#000000" stroke-opacity="1" stroke-width="3.6"/>
<circle clip-path="url(#clip222)" cx="813.339" cy="829.263" r="14.4" fill="#4477aa" fill-rule="evenodd" fill-opacity="1" stroke="#000000" stroke-opacity="1" stroke-width="3.6"/>
<circle clip-path="url(#clip222)" cx="877.831" cy="873.831" r="14.4" fill="#4477aa" fill-rule="evenodd" fill-opacity="1" stroke="#000000" stroke-opacity="1" stroke-width="3.6"/>
<circle clip-path="url(#clip222)" cx="942.322" cy="910.825" r="14.4" fill="#4477aa" fill-rule="evenodd" fill-opacity="1" stroke="#000000" stroke-opacity="1" stroke-width="3.6"/>
<circle clip-path="url(#clip222)" cx="1006.81" cy="944.225" r="14.4" fill="#4477aa" fill-rule="evenodd" fill-opacity="1" stroke="#000000" stroke-opacity="1" stroke-width="3.6"/>
<circle clip-path="url(#clip222)" cx="1071.31" cy="977.225" r="14.4" fill="#4477aa" fill-rule="evenodd" fill-opacity="1" stroke="#000000" stroke-opacity="1" stroke-width="3.6"/>
<circle clip-path="url(#clip222)" cx="1135.8" cy="1011.82" r="14.4" fill="#4477aa" fill-rule="evenodd" fill-opacity="1" stroke="#000000" stroke-opacity="1" stroke-width="3.6"/>
<circle clip-path="url(#clip222)" cx="1200.29" cy="1049.57" r="14.4" fill="#4477aa" fill-rule="evenodd" fill-opacity="1" stroke="#000000" stroke-opacity="1" stroke-width="3.6"/>
<circle clip-path="url(#clip222)" cx="1264.78" cy="1091.91" r="14.4" fill="#4477aa" fill-rule="evenodd" fill-opacity="1" stroke="#000000" stroke-opacity="1" stroke-width="3.6"/>
<circle clip-path="url(#clip222)" cx="1329.27" cy="1138.03" r="14.4" fill="#4477aa" fill-rule="evenodd" fill-opacity="1" stroke="#000000" stroke-opacity="1" stroke-width="3.6"/>
<circle clip-path="url(#clip222)" cx="1393.76" cy="1186.29" r="14.4" fill="#4477aa" fill-rule="evenodd" fill-opacity="1" stroke="#000000" stroke-opacity="1" stroke-width="3.6"/>
<circle clip-path="url(#clip222)" cx="1458.26" cy="1233.11" r="14.4" fill="#4477aa" fill-rule="evenodd" fill-opacity="1" stroke="#000000" stroke-opacity="1" stroke-width="3.6"/>
<circle clip-path="url(#clip222)" cx="1522.75" cy="1276.26" r="14.4" fill="#4477aa" fill-rule="evenodd" fill-opacity="1" stroke="#000000" stroke-opacity="1" stroke-width="3.6"/>
<circle clip-path="url(#clip222)" cx="1587.24" cy="1313.32" r="14.4" fill="#4477aa" fill-rule="evenodd" fill-opacity="1" stroke="#000000" stroke-opacity="1" stroke-width="3.6"/>
<circle clip-path="url(#clip222)" cx="1651.73" cy="1343.5" r="14.4" fill="#4477aa" fill-rule="evenodd" fill-opacity="1" stroke="#000000" stroke-opacity="1" stroke-width="3.6"/>
<circle clip-path="url(#clip222)" cx="1716.22" cy="1367.34" r="14.4" fill="#4477aa" fill-rule="evenodd" fill-opacity="1" stroke="#000000" stroke-opacity="1" stroke-width="3.6"/>
<circle clip-path="url(#clip222)" cx="1780.71" cy="1385.8" r="14.4" fill="#4477aa" fill-rule="evenodd" fill-opacity="1" stroke="#000000" stroke-opacity="1" stroke-width="3.6"/>
<circle clip-path="url(#clip222)" cx="1845.21" cy="1399.46" r="14.4" fill="#4477aa" fill-rule="evenodd" fill-opacity="1" stroke="#000000" stroke-opacity="1" stroke-width="3.6"/>
<circle clip-path="url(#clip222)" cx="1909.7" cy="1409.5" r="14.4" fill="#4477aa" fill-rule="evenodd" fill-opacity="1" stroke="#000000" stroke-opacity="1" stroke-width="3.6"/>
<circle clip-path="url(#clip222)" cx="1974.19" cy="1417.08" r="14.4" fill="#4477aa" fill-rule="evenodd" fill-opacity="1" stroke="#000000" stroke-opacity="1" stroke-width="3.6"/>
<circle clip-path="url(#clip222)" cx="2038.68" cy="1422.37" r="14.4" fill="#4477aa" fill-rule="evenodd" fill-opacity="1" stroke="#000000" stroke-opacity="1" stroke-width="3.6"/>
<circle clip-path="url(#clip222)" cx="2103.17" cy="1426.26" r="14.4" fill="#4477aa" fill-rule="evenodd" fill-opacity="1" stroke="#000000" stroke-opacity="1" stroke-width="3.6"/>
<circle clip-path="url(#clip222)" cx="2167.66" cy="1429.37" r="14.4" fill="#4477aa" fill-rule="evenodd" fill-opacity="1" stroke="#000000" stroke-opacity="1" stroke-width="3.6"/>
<circle clip-path="url(#clip222)" cx="2232.16" cy="1431.67" r="14.4" fill="#4477aa" fill-rule="evenodd" fill-opacity="1" stroke="#000000" stroke-opacity="1" stroke-width="3.6"/>
<circle clip-path="url(#clip222)" cx="2296.65" cy="1433.35" r="14.4" fill="#4477aa" fill-rule="evenodd" fill-opacity="1" stroke="#000000" stroke-opacity="1" stroke-width="3.6"/>
<polyline clip-path="url(#clip222)" style="stroke:#ee6677; stroke-linecap:round; stroke-linejoin:round; stroke-width:8; stroke-opacity:1; fill:none" points="426.389,314.395 490.881,485.878 555.372,708.697 619.864,892.904 684.356,1007.36 748.847,1075.68 813.339,1120.17 877.831,1152.66 942.322,1179.06 1006.81,1203.13 1071.31,1227.01 1135.8,1252.31 1200.29,1279.47 1264.78,1309.02 1329.27,1338.95 1393.76,1367.75 1458.26,1393.75 1522.75,1414.72 1587.24,1430.84 1651.73,1442.72 1716.22,1451.3 1780.71,1457.1 1845.21,1460.41 1909.7,1462.73 1974.19,1463.95 2038.68,1464.8 2103.17,1464.93 2167.66,1465.22 2232.16,1465.04 2296.65,1465.11 "/>
<circle clip-path="url(#clip222)" cx="426.389" cy="314.395" r="14.4" fill="#ee6677" fill-rule="evenodd" fill-opacity="1" stroke="#000000" stroke-opacity="1" stroke-width="3.6"/>
<circle clip-path="url(#clip222)" cx="490.881" cy="485.878" r="14.4" fill="#ee6677" fill-rule="evenodd" fill-opacity="1" stroke="#000000" stroke-opacity="1" stroke-width="3.6"/>
<circle clip-path="url(#clip222)" cx="555.372" cy="708.697" r="14.4" fill="#ee6677" fill-rule="evenodd" fill-opacity="1" stroke="#000000" stroke-opacity="1" stroke-width="3.6"/>
<circle clip-path="url(#clip222)" cx="619.864" cy="892.904" r="14.4" fill="#ee6677" fill-rule="evenodd" fill-opacity="1" stroke="#000000" stroke-opacity="1" stroke-width="3.6"/>
<circle clip-path="url(#clip222)" cx="684.356" cy="1007.36" r="14.4" fill="#ee6677" fill-rule="evenodd" fill-opacity="1" stroke="#000000" stroke-opacity="1" stroke-width="3.6"/>
<circle clip-path="url(#clip222)" cx="748.847" cy="1075.68" r="14.4" fill="#ee6677" fill-rule="evenodd" fill-opacity="1" stroke="#000000" stroke-opacity="1" stroke-width="3.6"/>
<circle clip-path="url(#clip222)" cx="813.339" cy="1120.17" r="14.4" fill="#ee6677" fill-rule="evenodd" fill-opacity="1" stroke="#000000" stroke-opacity="1" stroke-width="3.6"/>
<circle clip-path="url(#clip222)" cx="877.831" cy="1152.66" r="14.4" fill="#ee6677" fill-rule="evenodd" fill-opacity="1" stroke="#000000" stroke-opacity="1" stroke-width="3.6"/>
<circle clip-path="url(#clip222)" cx="942.322" cy="1179.06" r="14.4" fill="#ee6677" fill-rule="evenodd" fill-opacity="1" stroke="#000000" stroke-opacity="1" stroke-width="3.6"/>
<circle clip-path="url(#clip222)" cx="1006.81" cy="1203.13" r="14.4" fill="#ee6677" fill-rule="evenodd" fill-opacity="1" stroke="#000000" stroke-opacity="1" stroke-width="3.6"/>
<circle clip-path="url(#clip222)" cx="1071.31" cy="1227.01" r="14.4" fill="#ee6677" fill-rule="evenodd" fill-opacity="1" stroke="#000000" stroke-opacity="1" stroke-width="3.6"/>
<circle clip-path="url(#clip222)" cx="1135.8" cy="1252.31" r="14.4" fill="#ee6677" fill-rule="evenodd" fill-opacity="1" stroke="#000000" stroke-opacity="1" stroke-width="3.6"/>
<circle clip-path="url(#clip222)" cx="1200.29" cy="1279.47" r="14.4" fill="#ee6677" fill-rule="evenodd" fill-opacity="1" stroke="#000000" stroke-opacity="1" stroke-width="3.6"/>
<circle clip-path="url(#clip222)" cx="1264.78" cy="1309.02" r="14.4" fill="#ee6677" fill-rule="evenodd" fill-opacity="1" stroke="#000000" stroke-opacity="1" stroke-width="3.6"/>
<circle clip-path="url(#clip222)" cx="1329.27" cy="1338.95" r="14.4" fill="#ee6677" fill-rule="evenodd" fill-opacity="1" stroke="#000000" stroke-opacity="1" stroke-width="3.6"/>
<circle clip-path="url(#clip222)" cx="1393.76" cy="1367.75" r="14.4" fill="#ee6677" fill-rule="evenodd" fill-opacity="1" stroke="#000000" stroke-opacity="1" stroke-width="3.6"/>
<circle clip-path="url(#clip222)" cx="1458.26" cy="1393.75" r="14.4" fill="#ee6677" fill-rule="evenodd" fill-opacity="1" stroke="#000000" stroke-opacity="1" stroke-width="3.6"/>
<circle clip-path="url(#clip222)" cx="1522.75" cy="1414.72" r="14.4" fill="#ee6677" fill-rule="evenodd" fill-opacity="1" stroke="#000000" stroke-opacity="1" stroke-width="3.6"/>
<circle clip-path="url(#clip222)" cx="1587.24" cy="1430.84" r="14.4" fill="#ee6677" fill-rule="evenodd" fill-opacity="1" stroke="#000000" stroke-opacity="1" stroke-width="3.6"/>
<circle clip-path="url(#clip222)" cx="1651.73" cy="1442.72" r="14.4" fill="#ee6677" fill-rule="evenodd" fill-opacity="1" stroke="#000000" stroke-opacity="1" stroke-width="3.6"/>
<circle clip-path="url(#clip222)" cx="1716.22" cy="1451.3" r="14.4" fill="#ee6677" fill-rule="evenodd" fill-opacity="1" stroke="#000000" stroke-opacity="1" stroke-width="3.6"/>
<circle clip-path="url(#clip222)" cx="1780.71" cy="1457.1" r="14.4" fill="#ee6677" fill-rule="evenodd" fill-opacity="1" stroke="#000000" stroke-opacity="1" stroke-width="3.6"/>
<circle clip-path="url(#clip222)" cx="1845.21" cy="1460.41" r="14.4" fill="#ee6677" fill-rule="evenodd" fill-opacity="1" stroke="#000000" stroke-opacity="1" stroke-width="3.6"/>
<circle clip-path="url(#clip222)" cx="1909.7" cy="1462.73" r="14.4" fill="#ee6677" fill-rule="evenodd" fill-opacity="1" stroke="#000000" stroke-opacity="1" stroke-width="3.6"/>
<circle clip-path="url(#clip222)" cx="1974.19" cy="1463.95" r="14.4" fill="#ee6677" fill-rule="evenodd" fill-opacity="1" stroke="#000000" stroke-opacity="1" stroke-width="3.6"/>
<circle clip-path="url(#clip222)" cx="2038.68" cy="1464.8" r="14.4" fill="#ee6677" fill-rule="evenodd" fill-opacity="1" stroke="#000000" stroke-opacity="1" stroke-width="3.6"/>
<circle clip-path="url(#clip222)" cx="2103.17" cy="1464.93" r="14.4" fill="#ee6677" fill-rule="evenodd" fill-opacity="1" stroke="#000000" stroke-opacity="1" stroke-width="3.6"/>
<circle clip-path="url(#clip222)" cx="2167.66" cy="1465.22" r="14.4" fill="#ee6677" fill-rule="evenodd" fill-opacity="1" stroke="#000000" stroke-opacity="1" stroke-width="3.6"/>
<circle clip-path="url(#clip222)" cx="2232.16" cy="1465.04" r="14.4" fill="#ee6677" fill-rule="evenodd" fill-opacity="1" stroke="#000000" stroke-opacity="1" stroke-width="3.6"/>
<circle clip-path="url(#clip222)" cx="2296.65" cy="1465.11" r="14.4" fill="#ee6677" fill-rule="evenodd" fill-opacity="1" stroke="#000000" stroke-opacity="1" stroke-width="3.6"/>
<path clip-path="url(#clip220)" d="M1629.61 445.807 L2286.67 445.807 L2286.67 95.8868 L1629.61 95.8868  Z" fill="#ffffff" fill-rule="evenodd" fill-opacity="1"/>
<polyline clip-path="url(#clip220)" style="stroke:#000000; stroke-linecap:round; stroke-linejoin:round; stroke-width:4; stroke-opacity:1; fill:none" points="1629.61,445.807 2286.67,445.807 2286.67,95.8868 1629.61,95.8868 1629.61,445.807 "/>
<polyline clip-path="url(#clip220)" style="stroke:#4477aa; stroke-linecap:round; stroke-linejoin:round; stroke-width:18; stroke-opacity:1; fill:none" points="1651.64,212.527 1783.8,212.527 "/>
<circle clip-path="url(#clip220)" cx="1717.72" cy="212.527" r="8.15833" fill="#4477aa" fill-rule="evenodd" fill-opacity="1" stroke="#000000" stroke-opacity="1" stroke-width="8.15833"/>
<path clip-path="url(#clip220)" d="M1831.93 242.867 L1833.31 251.301 Q1829.27 252.149 1826.09 252.149 Q1820.89 252.149 1818.03 250.505 Q1815.17 248.861 1814 246.209 Q1812.83 243.503 1812.83 234.911 L1812.83 202.502 L1805.83 202.502 L1805.83 195.076 L1812.83 195.076 L1812.83 181.126 L1822.33 175.397 L1822.33 195.076 L1831.93 195.076 L1831.93 202.502 L1822.33 202.502 L1822.33 235.441 Q1822.33 239.525 1822.8 240.692 Q1823.33 241.859 1824.45 242.549 Q1825.61 243.238 1827.74 243.238 Q1829.33 243.238 1831.93 242.867 Z" fill="#000000" fill-rule="nonzero" fill-opacity="1" /><path clip-path="url(#clip220)" d="M1841.16 251.407 L1841.16 195.076 L1849.75 195.076 L1849.75 203.616 Q1853.04 197.622 1855.8 195.712 Q1858.61 193.803 1861.95 193.803 Q1866.78 193.803 1871.76 196.879 L1868.47 205.737 Q1864.97 203.669 1861.47 203.669 Q1858.34 203.669 1855.85 205.578 Q1853.36 207.435 1852.3 210.776 Q1850.7 215.868 1850.7 221.915 L1850.7 251.407 L1841.16 251.407 Z" fill="#000000" fill-rule="nonzero" fill-opacity="1" /><path clip-path="url(#clip220)" d="M1914.2 244.458 Q1908.89 248.967 1903.96 250.823 Q1899.08 252.68 1893.46 252.68 Q1884.17 252.68 1879.19 248.171 Q1874.2 243.61 1874.2 236.555 Q1874.2 232.418 1876.06 229.023 Q1877.97 225.575 1880.99 223.507 Q1884.07 221.438 1887.89 220.377 Q1890.7 219.634 1896.37 218.945 Q1907.94 217.566 1913.4 215.656 Q1913.45 213.694 1913.45 213.163 Q1913.45 207.329 1910.75 204.942 Q1907.09 201.706 1899.87 201.706 Q1893.14 201.706 1889.9 204.093 Q1886.72 206.427 1885.18 212.421 L1875.85 211.148 Q1877.12 205.154 1880.04 201.494 Q1882.95 197.781 1888.47 195.818 Q1893.99 193.803 1901.25 193.803 Q1908.47 193.803 1912.98 195.5 Q1917.48 197.198 1919.61 199.797 Q1921.73 202.343 1922.58 206.268 Q1923.05 208.708 1923.05 215.073 L1923.05 227.803 Q1923.05 241.117 1923.64 244.67 Q1924.27 248.171 1926.08 251.407 L1916.11 251.407 Q1914.62 248.436 1914.2 244.458 M1913.4 223.135 Q1908.2 225.257 1897.81 226.742 Q1891.92 227.591 1889.48 228.652 Q1887.04 229.712 1885.71 231.781 Q1884.39 233.797 1884.39 236.29 Q1884.39 240.109 1887.25 242.655 Q1890.17 245.201 1895.74 245.201 Q1901.25 245.201 1905.55 242.814 Q1909.85 240.374 1911.86 236.184 Q1913.4 232.948 1913.4 226.636 L1913.4 223.135 Z" fill="#000000" fill-rule="nonzero" fill-opacity="1" /><path clip-path="url(#clip220)" d="M1937.91 184.627 L1937.91 173.647 L1947.45 173.647 L1947.45 184.627 L1937.91 184.627 M1937.91 251.407 L1937.91 195.076 L1947.45 195.076 L1947.45 251.407 L1937.91 251.407 Z" fill="#000000" fill-rule="nonzero" fill-opacity="1" /><path clip-path="url(#clip220)" d="M1961.99 251.407 L1961.99 195.076 L1970.58 195.076 L1970.58 203.085 Q1976.79 193.803 1988.51 193.803 Q1993.6 193.803 1997.84 195.659 Q2002.14 197.463 2004.26 200.433 Q2006.38 203.403 2007.23 207.488 Q2007.76 210.14 2007.76 216.77 L2007.76 251.407 L1998.21 251.407 L1998.21 217.141 Q1998.21 211.307 1997.1 208.442 Q1995.99 205.525 1993.12 203.828 Q1990.31 202.077 1986.49 202.077 Q1980.39 202.077 1975.94 205.95 Q1971.53 209.822 1971.53 220.642 L1971.53 251.407 L1961.99 251.407 Z" fill="#000000" fill-rule="nonzero" fill-opacity="1" /><path clip-path="url(#clip220)" d="M2013.6 272.995 L2013.6 266.099 L2076.88 266.099 L2076.88 272.995 L2013.6 272.995 Z" fill="#000000" fill-rule="nonzero" fill-opacity="1" /><path clip-path="url(#clip220)" d="M2082.6 251.407 L2082.6 173.647 L2092.15 173.647 L2092.15 251.407 L2082.6 251.407 Z" fill="#000000" fill-rule="nonzero" fill-opacity="1" /><path clip-path="url(#clip220)" d="M2103.4 223.241 Q2103.4 207.594 2112.1 200.062 Q2119.36 193.803 2129.81 193.803 Q2141.43 193.803 2148.8 201.441 Q2156.17 209.026 2156.17 222.446 Q2156.17 233.319 2152.89 239.578 Q2149.65 245.784 2143.39 249.232 Q2137.19 252.68 2129.81 252.68 Q2117.98 252.68 2110.66 245.095 Q2103.4 237.51 2103.4 223.241 M2113.21 223.241 Q2113.21 234.062 2117.93 239.472 Q2122.65 244.83 2129.81 244.83 Q2136.92 244.83 2141.64 239.419 Q2146.36 234.009 2146.36 222.923 Q2146.36 212.474 2141.59 207.116 Q2136.87 201.706 2129.81 201.706 Q2122.65 201.706 2117.93 207.063 Q2113.21 212.421 2113.21 223.241 Z" fill="#000000" fill-rule="nonzero" fill-opacity="1" /><path clip-path="url(#clip220)" d="M2163.55 234.592 L2172.99 233.107 Q2173.78 238.783 2177.39 241.806 Q2181.05 244.83 2187.58 244.83 Q2194.15 244.83 2197.34 242.177 Q2200.52 239.472 2200.52 235.865 Q2200.52 232.63 2197.71 230.773 Q2195.74 229.5 2187.95 227.538 Q2177.44 224.886 2173.36 222.976 Q2169.33 221.014 2167.21 217.619 Q2165.14 214.171 2165.14 210.034 Q2165.14 206.268 2166.84 203.085 Q2168.59 199.85 2171.56 197.728 Q2173.78 196.084 2177.6 194.97 Q2181.48 193.803 2185.88 193.803 Q2192.51 193.803 2197.49 195.712 Q2202.53 197.622 2204.92 200.91 Q2207.31 204.146 2208.21 209.609 L2198.87 210.882 Q2198.24 206.533 2195.16 204.093 Q2192.14 201.653 2186.57 201.653 Q2179.99 201.653 2177.18 203.828 Q2174.37 206.003 2174.37 208.92 Q2174.37 210.776 2175.53 212.262 Q2176.7 213.8 2179.19 214.808 Q2180.63 215.338 2187.63 217.248 Q2197.76 219.953 2201.74 221.703 Q2205.77 223.4 2208.05 226.689 Q2210.33 229.978 2210.33 234.858 Q2210.33 239.631 2207.52 243.875 Q2204.76 248.065 2199.51 250.399 Q2194.26 252.68 2187.63 252.68 Q2176.65 252.68 2170.87 248.118 Q2165.14 243.556 2163.55 234.592 Z" fill="#000000" fill-rule="nonzero" fill-opacity="1" /><path clip-path="url(#clip220)" d="M2217.86 234.592 L2227.3 233.107 Q2228.1 238.783 2231.71 241.806 Q2235.37 244.83 2241.89 244.83 Q2248.47 244.83 2251.65 242.177 Q2254.83 239.472 2254.83 235.865 Q2254.83 232.63 2252.02 230.773 Q2250.06 229.5 2242.26 227.538 Q2231.76 224.886 2227.68 222.976 Q2223.64 221.014 2221.52 217.619 Q2219.45 214.171 2219.45 210.034 Q2219.45 206.268 2221.15 203.085 Q2222.9 199.85 2225.87 197.728 Q2228.1 196.084 2231.92 194.97 Q2235.79 193.803 2240.19 193.803 Q2246.82 193.803 2251.81 195.712 Q2256.85 197.622 2259.24 200.91 Q2261.62 204.146 2262.52 209.609 L2253.19 210.882 Q2252.55 206.533 2249.48 204.093 Q2246.45 201.653 2240.88 201.653 Q2234.31 201.653 2231.49 203.828 Q2228.68 206.003 2228.68 208.92 Q2228.68 210.776 2229.85 212.262 Q2231.02 213.8 2233.51 214.808 Q2234.94 215.338 2241.94 217.248 Q2252.07 219.953 2256.05 221.703 Q2260.08 223.4 2262.37 226.689 Q2264.65 229.978 2264.65 234.858 Q2264.65 239.631 2261.83 243.875 Q2259.08 248.065 2253.83 250.399 Q2248.57 252.68 2241.94 252.68 Q2230.96 252.68 2225.18 248.118 Q2219.45 243.556 2217.86 234.592 Z" fill="#000000" fill-rule="nonzero" fill-opacity="1" /><polyline clip-path="url(#clip220)" style="stroke:#ee6677; stroke-linecap:round; stroke-linejoin:round; stroke-width:18; stroke-opacity:1; fill:none" points="1651.64,329.167 1783.8,329.167 "/>
<circle clip-path="url(#clip220)" cx="1717.72" cy="329.167" r="8.15833" fill="#ee6677" fill-rule="evenodd" fill-opacity="1" stroke="#000000" stroke-opacity="1" stroke-width="8.15833"/>
<path clip-path="url(#clip220)" d="M1827.26 368.047 L1805.83 311.716 L1815.91 311.716 L1828 345.451 Q1829.96 350.914 1831.61 356.802 Q1832.88 352.346 1835.16 346.087 L1847.68 311.716 L1857.49 311.716 L1836.17 368.047 L1827.26 368.047 Z" fill="#000000" fill-rule="nonzero" fill-opacity="1" /><path clip-path="url(#clip220)" d="M1902.69 361.098 Q1897.38 365.607 1892.45 367.463 Q1887.57 369.32 1881.95 369.32 Q1872.66 369.32 1867.68 364.811 Q1862.69 360.25 1862.69 353.195 Q1862.69 349.058 1864.55 345.663 Q1866.46 342.215 1869.48 340.147 Q1872.56 338.078 1876.38 337.017 Q1879.19 336.274 1884.86 335.585 Q1896.43 334.206 1901.89 332.296 Q1901.94 330.334 1901.94 329.803 Q1901.94 323.969 1899.24 321.582 Q1895.58 318.346 1888.36 318.346 Q1881.63 318.346 1878.39 320.733 Q1875.21 323.067 1873.67 329.061 L1864.34 327.788 Q1865.61 321.794 1868.53 318.134 Q1871.44 314.421 1876.96 312.458 Q1882.48 310.443 1889.74 310.443 Q1896.96 310.443 1901.47 312.14 Q1905.97 313.838 1908.1 316.437 Q1910.22 318.983 1911.07 322.908 Q1911.54 325.348 1911.54 331.713 L1911.54 344.443 Q1911.54 357.757 1912.13 361.31 Q1912.76 364.811 1914.57 368.047 L1904.59 368.047 Q1903.11 365.076 1902.69 361.098 M1901.89 339.775 Q1896.69 341.897 1886.3 343.382 Q1880.41 344.231 1877.97 345.292 Q1875.53 346.352 1874.2 348.421 Q1872.88 350.437 1872.88 352.93 Q1872.88 356.749 1875.74 359.295 Q1878.66 361.841 1884.23 361.841 Q1889.74 361.841 1894.04 359.454 Q1898.34 357.014 1900.35 352.824 Q1901.89 349.588 1901.89 343.276 L1901.89 339.775 Z" fill="#000000" fill-rule="nonzero" fill-opacity="1" /><path clip-path="url(#clip220)" d="M1926.13 368.047 L1926.13 290.287 L1935.68 290.287 L1935.68 368.047 L1926.13 368.047 Z" fill="#000000" fill-rule="nonzero" fill-opacity="1" /><path clip-path="url(#clip220)" d="M1941.67 389.635 L1941.67 382.739 L2004.95 382.739 L2004.95 389.635 L1941.67 389.635 Z" fill="#000000" fill-rule="nonzero" fill-opacity="1" /><path clip-path="url(#clip220)" d="M2010.68 368.047 L2010.68 290.287 L2020.23 290.287 L2020.23 368.047 L2010.68 368.047 Z" fill="#000000" fill-rule="nonzero" fill-opacity="1" /><path clip-path="url(#clip220)" d="M2031.47 339.881 Q2031.47 324.234 2040.17 316.702 Q2047.44 310.443 2057.89 310.443 Q2069.5 310.443 2076.88 318.081 Q2084.25 325.666 2084.25 339.086 Q2084.25 349.959 2080.96 356.218 Q2077.72 362.424 2071.47 365.872 Q2065.26 369.32 2057.89 369.32 Q2046.06 369.32 2038.74 361.735 Q2031.47 354.15 2031.47 339.881 M2041.28 339.881 Q2041.28 350.702 2046.01 356.112 Q2050.73 361.47 2057.89 361.47 Q2064.99 361.47 2069.72 356.059 Q2074.44 350.649 2074.44 339.563 Q2074.44 329.114 2069.66 323.756 Q2064.94 318.346 2057.89 318.346 Q2050.73 318.346 2046.01 323.703 Q2041.28 329.061 2041.28 339.881 Z" fill="#000000" fill-rule="nonzero" fill-opacity="1" /><path clip-path="url(#clip220)" d="M2091.62 351.232 L2101.06 349.747 Q2101.86 355.423 2105.47 358.446 Q2109.13 361.47 2115.65 361.47 Q2122.23 361.47 2125.41 358.817 Q2128.59 356.112 2128.59 352.505 Q2128.59 349.27 2125.78 347.413 Q2123.82 346.14 2116.02 344.178 Q2105.52 341.526 2101.43 339.616 Q2097.4 337.654 2095.28 334.259 Q2093.21 330.811 2093.21 326.674 Q2093.21 322.908 2094.91 319.725 Q2096.66 316.49 2099.63 314.368 Q2101.86 312.724 2105.68 311.61 Q2109.55 310.443 2113.95 310.443 Q2120.58 310.443 2125.57 312.352 Q2130.61 314.262 2132.99 317.55 Q2135.38 320.786 2136.28 326.249 L2126.95 327.522 Q2126.31 323.173 2123.24 320.733 Q2120.21 318.293 2114.64 318.293 Q2108.07 318.293 2105.25 320.468 Q2102.44 322.643 2102.44 325.56 Q2102.44 327.416 2103.61 328.902 Q2104.78 330.44 2107.27 331.448 Q2108.7 331.978 2115.7 333.888 Q2125.83 336.593 2129.81 338.343 Q2133.84 340.04 2136.12 343.329 Q2138.41 346.618 2138.41 351.498 Q2138.41 356.271 2135.59 360.515 Q2132.84 364.705 2127.58 367.039 Q2122.33 369.32 2115.7 369.32 Q2104.72 369.32 2098.94 364.758 Q2093.21 360.196 2091.62 351.232 Z" fill="#000000" fill-rule="nonzero" fill-opacity="1" /><path clip-path="url(#clip220)" d="M2145.94 351.232 L2155.38 349.747 Q2156.17 355.423 2159.78 358.446 Q2163.44 361.47 2169.97 361.47 Q2176.54 361.47 2179.73 358.817 Q2182.91 356.112 2182.91 352.505 Q2182.91 349.27 2180.1 347.413 Q2178.13 346.14 2170.34 344.178 Q2159.83 341.526 2155.75 339.616 Q2151.72 337.654 2149.6 334.259 Q2147.53 330.811 2147.53 326.674 Q2147.53 322.908 2149.23 319.725 Q2150.98 316.49 2153.95 314.368 Q2156.17 312.724 2159.99 311.61 Q2163.87 310.443 2168.27 310.443 Q2174.9 310.443 2179.88 312.352 Q2184.92 314.262 2187.31 317.55 Q2189.7 320.786 2190.6 326.249 L2181.26 327.522 Q2180.63 323.173 2177.55 320.733 Q2174.53 318.293 2168.96 318.293 Q2162.38 318.293 2159.57 320.468 Q2156.76 322.643 2156.76 325.56 Q2156.76 327.416 2157.92 328.902 Q2159.09 330.44 2161.58 331.448 Q2163.02 331.978 2170.02 333.888 Q2180.15 336.593 2184.13 338.343 Q2188.16 340.04 2190.44 343.329 Q2192.72 346.618 2192.72 351.498 Q2192.72 356.271 2189.91 360.515 Q2187.15 364.705 2181.9 367.039 Q2176.65 369.32 2170.02 369.32 Q2159.04 369.32 2153.26 364.758 Q2147.53 360.196 2145.94 351.232 Z" fill="#000000" fill-rule="nonzero" fill-opacity="1" /></svg>
