<?xml version="1.0" encoding="utf-8"?>
<svg xmlns="http://www.w3.org/2000/svg" xmlns:xlink="http://www.w3.org/1999/xlink" width="600" height="450" viewBox="0 0 2400 1800">
<defs>
  <clipPath id="clip270">
    <rect x="0" y="0" width="2400" height="1800"/>
  </clipPath>
</defs>
<path clip-path="url(#clip270)" d="M0 1800 L2400 1800 L2400 0 L0 0  Z" fill="#ffffff" fill-rule="evenodd" fill-opacity="1"/>
<defs>
  <clipPath id="clip271">
    <rect x="480" y="0" width="1681" height="1681"/>
  </clipPath>
</defs>
<defs>
  <clipPath id="clip272">
    <rect x="267" y="47" width="2087" height="1564"/>
  </clipPath>
</defs>
<path clip-path="url(#clip272)" d="M-891.316 2765.16 L-891.316 1061.77 L-16.8497 210.074 L1497.77 701.8 L1497.77 2405.19 L623.304 3256.88 L-891.316 2765.16  Z" fill="#ffffff" fill-rule="evenodd" fill-opacity="1"/>
<polyline clip-path="url(#clip270)" style="stroke:#000000; stroke-linecap:round; stroke-linejoin:round; stroke-width:4; stroke-opacity:1; fill:none" points="693.749,1301.67 1475,1527.2 "/>
<polyline clip-path="url(#clip270)" style="stroke:#000000; stroke-linecap:round; stroke-linejoin:round; stroke-width:2; stroke-opacity:0.5; fill:none" points="1144.81,129.793 1926.06,355.322 "/>
<polyline clip-path="url(#clip270)" style="stroke:#000000; stroke-linecap:round; stroke-linejoin:round; stroke-width:4; stroke-opacity:1; fill:none" points="707.299,1305.59 712.712,1300.9 "/>
<polyline clip-path="url(#clip270)" style="stroke:#000000; stroke-linecap:round; stroke-linejoin:round; stroke-width:4; stroke-opacity:1; fill:none" points="896.626,1360.24 902.039,1355.55 "/>
<polyline clip-path="url(#clip270)" style="stroke:#000000; stroke-linecap:round; stroke-linejoin:round; stroke-width:4; stroke-opacity:1; fill:none" points="1085.95,1414.89 1091.37,1410.21 "/>
<polyline clip-path="url(#clip270)" style="stroke:#000000; stroke-linecap:round; stroke-linejoin:round; stroke-width:4; stroke-opacity:1; fill:none" points="1275.28,1469.55 1280.69,1464.86 "/>
<polyline clip-path="url(#clip270)" style="stroke:#000000; stroke-linecap:round; stroke-linejoin:round; stroke-width:4; stroke-opacity:1; fill:none" points="1464.61,1524.2 1470.02,1519.51 "/>
<path clip-path="url(#clip270)" d="M519.099 1333.45 Q519.099 1321.19 521.598 1313.74 Q524.144 1306.24 529.095 1302.19 Q534.093 1298.14 541.636 1298.14 Q547.2 1298.14 551.396 1300.4 Q555.592 1302.61 558.327 1306.86 Q561.062 1311.05 562.618 1317.14 Q564.173 1323.17 564.173 1333.45 Q564.173 1345.61 561.675 1353.11 Q559.176 1360.56 554.178 1364.66 Q549.227 1368.72 541.636 1368.72 Q531.641 1368.72 525.936 1361.55 Q519.099 1352.92 519.099 1333.45 M527.822 1333.45 Q527.822 1350.47 531.782 1356.13 Q535.79 1361.74 541.636 1361.74 Q547.483 1361.74 551.443 1356.08 Q555.451 1350.42 555.451 1333.45 Q555.451 1316.38 551.443 1310.77 Q547.483 1305.16 541.542 1305.16 Q535.696 1305.16 532.207 1310.11 Q527.822 1316.43 527.822 1333.45 Z" fill="#000000" fill-rule="nonzero" fill-opacity="1" /><path clip-path="url(#clip270)" d="M577.564 1367.54 L577.564 1357.87 L587.229 1357.87 L587.229 1367.54 L577.564 1367.54 Z" fill="#000000" fill-rule="nonzero" fill-opacity="1" /><path clip-path="url(#clip270)" d="M599.629 1333.45 Q599.629 1321.19 602.128 1313.74 Q604.674 1306.24 609.625 1302.19 Q614.623 1298.14 622.166 1298.14 Q627.73 1298.14 631.926 1300.4 Q636.122 1302.61 638.857 1306.86 Q641.592 1311.05 643.148 1317.14 Q644.703 1323.17 644.703 1333.45 Q644.703 1345.61 642.205 1353.11 Q639.706 1360.56 634.708 1364.66 Q629.757 1368.72 622.166 1368.72 Q612.171 1368.72 606.466 1361.55 Q599.629 1352.92 599.629 1333.45 M608.352 1333.45 Q608.352 1350.47 612.312 1356.13 Q616.32 1361.74 622.166 1361.74 Q628.013 1361.74 631.973 1356.08 Q635.981 1350.42 635.981 1333.45 Q635.981 1316.38 631.973 1310.77 Q628.013 1305.16 622.072 1305.16 Q616.226 1305.16 612.737 1310.11 Q608.352 1316.43 608.352 1333.45 Z" fill="#000000" fill-rule="nonzero" fill-opacity="1" /><path clip-path="url(#clip270)" d="M653.332 1333.45 Q653.332 1321.19 655.831 1313.74 Q658.377 1306.24 663.327 1302.19 Q668.325 1298.14 675.869 1298.14 Q681.432 1298.14 685.629 1300.4 Q689.825 1302.61 692.559 1306.86 Q695.294 1311.05 696.85 1317.14 Q698.406 1323.17 698.406 1333.45 Q698.406 1345.61 695.907 1353.11 Q693.408 1360.56 688.41 1364.66 Q683.46 1368.72 675.869 1368.72 Q665.873 1368.72 660.168 1361.55 Q653.332 1352.92 653.332 1333.45 M662.054 1333.45 Q662.054 1350.47 666.015 1356.13 Q670.022 1361.74 675.869 1361.74 Q681.715 1361.74 685.676 1356.08 Q689.683 1350.42 689.683 1333.45 Q689.683 1316.38 685.676 1310.77 Q681.715 1305.16 675.774 1305.16 Q669.928 1305.16 666.439 1310.11 Q662.054 1316.43 662.054 1333.45 Z" fill="#000000" fill-rule="nonzero" fill-opacity="1" /><path clip-path="url(#clip270)" d="M707.672 1388.1 Q707.672 1375.85 710.171 1368.4 Q712.717 1360.9 717.668 1356.84 Q722.666 1352.79 730.209 1352.79 Q735.773 1352.79 739.969 1355.05 Q744.165 1357.27 746.9 1361.51 Q749.635 1365.71 751.191 1371.79 Q752.747 1377.83 752.747 1388.1 Q752.747 1400.27 750.248 1407.76 Q747.749 1415.21 742.751 1419.32 Q737.8 1423.37 730.209 1423.37 Q720.214 1423.37 714.509 1416.2 Q707.672 1407.58 707.672 1388.1 M716.395 1388.1 Q716.395 1405.12 720.355 1410.78 Q724.363 1416.39 730.209 1416.39 Q736.056 1416.39 740.016 1410.74 Q744.024 1405.08 744.024 1388.1 Q744.024 1371.04 740.016 1365.43 Q736.056 1359.81 730.115 1359.81 Q724.269 1359.81 720.78 1364.77 Q716.395 1371.08 716.395 1388.1 Z" fill="#000000" fill-rule="nonzero" fill-opacity="1" /><path clip-path="url(#clip270)" d="M766.137 1422.19 L766.137 1412.53 L775.802 1412.53 L775.802 1422.19 L766.137 1422.19 Z" fill="#000000" fill-rule="nonzero" fill-opacity="1" /><path clip-path="url(#clip270)" d="M832.805 1414.04 L832.805 1422.19 L787.118 1422.19 Q787.024 1419.13 788.108 1416.3 Q789.853 1411.63 793.672 1407.1 Q797.538 1402.58 804.799 1396.64 Q816.067 1387.4 820.028 1382.02 Q823.988 1376.6 823.988 1371.79 Q823.988 1366.75 820.358 1363.3 Q816.774 1359.81 810.975 1359.81 Q804.846 1359.81 801.168 1363.49 Q797.491 1367.17 797.444 1373.68 L788.721 1372.78 Q789.617 1363.02 795.463 1357.93 Q801.31 1352.79 811.164 1352.79 Q821.112 1352.79 826.911 1358.31 Q832.711 1363.82 832.711 1371.98 Q832.711 1376.13 831.013 1380.14 Q829.316 1384.14 825.356 1388.58 Q821.442 1393.01 812.295 1400.74 Q804.657 1407.15 802.488 1409.46 Q800.32 1411.73 798.905 1414.04 L832.805 1414.04 Z" fill="#000000" fill-rule="nonzero" fill-opacity="1" /><path clip-path="url(#clip270)" d="M841.905 1404.09 L850.816 1403.33 Q851.806 1409.84 855.389 1413.14 Q859.02 1416.39 864.112 1416.39 Q870.241 1416.39 874.485 1411.77 Q878.728 1407.15 878.728 1399.51 Q878.728 1392.25 874.626 1388.06 Q870.571 1383.86 863.97 1383.86 Q859.868 1383.86 856.568 1385.75 Q853.268 1387.59 851.382 1390.56 L843.414 1389.52 L850.109 1354.02 L884.48 1354.02 L884.48 1362.12 L856.898 1362.12 L853.173 1380.7 Q859.397 1376.36 866.233 1376.36 Q875.286 1376.36 881.51 1382.63 Q887.733 1388.91 887.733 1398.76 Q887.733 1408.14 882.264 1414.98 Q875.616 1423.37 864.112 1423.37 Q854.682 1423.37 848.694 1418.09 Q842.753 1412.81 841.905 1404.09 Z" fill="#000000" fill-rule="nonzero" fill-opacity="1" /><path clip-path="url(#clip270)" d="M897.754 1442.76 Q897.754 1430.5 900.253 1423.05 Q902.799 1415.55 907.75 1411.5 Q912.748 1407.44 920.291 1407.44 Q925.855 1407.44 930.051 1409.71 Q934.247 1411.92 936.982 1416.17 Q939.717 1420.36 941.272 1426.44 Q942.828 1432.48 942.828 1442.76 Q942.828 1454.92 940.33 1462.42 Q937.831 1469.87 932.833 1473.97 Q927.882 1478.03 920.291 1478.03 Q910.296 1478.03 904.591 1470.86 Q897.754 1462.23 897.754 1442.76 M906.477 1442.76 Q906.477 1459.78 910.437 1465.44 Q914.445 1471.05 920.291 1471.05 Q926.138 1471.05 930.098 1465.39 Q934.106 1459.73 934.106 1442.76 Q934.106 1425.69 930.098 1420.08 Q926.138 1414.47 920.197 1414.47 Q914.351 1414.47 910.862 1419.42 Q906.477 1425.74 906.477 1442.76 Z" fill="#000000" fill-rule="nonzero" fill-opacity="1" /><path clip-path="url(#clip270)" d="M956.219 1476.85 L956.219 1467.18 L965.884 1467.18 L965.884 1476.85 L956.219 1476.85 Z" fill="#000000" fill-rule="nonzero" fill-opacity="1" /><path clip-path="url(#clip270)" d="M978.284 1458.74 L987.195 1457.99 Q988.185 1464.49 991.769 1467.79 Q995.399 1471.05 1000.49 1471.05 Q1006.62 1471.05 1010.86 1466.43 Q1015.11 1461.81 1015.11 1454.17 Q1015.11 1446.91 1011.01 1442.71 Q1006.95 1438.51 1000.35 1438.51 Q996.248 1438.51 992.947 1440.4 Q989.647 1442.24 987.761 1445.21 L979.793 1444.17 L986.488 1408.67 L1020.86 1408.67 L1020.86 1416.78 L993.277 1416.78 L989.553 1435.36 Q995.776 1431.02 1002.61 1431.02 Q1011.67 1431.02 1017.89 1437.29 Q1024.11 1443.56 1024.11 1453.41 Q1024.11 1462.8 1018.64 1469.63 Q1012 1478.03 1000.49 1478.03 Q991.062 1478.03 985.074 1472.74 Q979.133 1467.46 978.284 1458.74 Z" fill="#000000" fill-rule="nonzero" fill-opacity="1" /><path clip-path="url(#clip270)" d="M1031.99 1442.76 Q1031.99 1430.5 1034.49 1423.05 Q1037.03 1415.55 1041.98 1411.5 Q1046.98 1407.44 1054.52 1407.44 Q1060.09 1407.44 1064.28 1409.71 Q1068.48 1411.92 1071.21 1416.17 Q1073.95 1420.36 1075.5 1426.44 Q1077.06 1432.48 1077.06 1442.76 Q1077.06 1454.92 1074.56 1462.42 Q1072.06 1469.87 1067.07 1473.97 Q1062.11 1478.03 1054.52 1478.03 Q1044.53 1478.03 1038.82 1470.86 Q1031.99 1462.23 1031.99 1442.76 M1040.71 1442.76 Q1040.71 1459.78 1044.67 1465.44 Q1048.68 1471.05 1054.52 1471.05 Q1060.37 1471.05 1064.33 1465.39 Q1068.34 1459.73 1068.34 1442.76 Q1068.34 1425.69 1064.33 1420.08 Q1060.37 1414.47 1054.43 1414.47 Q1048.58 1414.47 1045.09 1419.42 Q1040.71 1425.74 1040.71 1442.76 Z" fill="#000000" fill-rule="nonzero" fill-opacity="1" /><path clip-path="url(#clip270)" d="M1086.33 1497.41 Q1086.33 1485.15 1088.83 1477.7 Q1091.37 1470.21 1096.32 1466.15 Q1101.32 1462.1 1108.86 1462.1 Q1114.43 1462.1 1118.62 1464.36 Q1122.82 1466.58 1125.56 1470.82 Q1128.29 1475.02 1129.85 1481.1 Q1131.4 1487.13 1131.4 1497.41 Q1131.4 1509.58 1128.9 1517.07 Q1126.4 1524.52 1121.41 1528.62 Q1116.46 1532.68 1108.86 1532.68 Q1098.87 1532.68 1093.16 1525.51 Q1086.33 1516.88 1086.33 1497.41 M1095.05 1497.41 Q1095.05 1514.43 1099.01 1520.09 Q1103.02 1525.7 1108.86 1525.7 Q1114.71 1525.7 1118.67 1520.04 Q1122.68 1514.39 1122.68 1497.41 Q1122.68 1480.34 1118.67 1474.73 Q1114.71 1469.12 1108.77 1469.12 Q1102.92 1469.12 1099.43 1474.07 Q1095.05 1480.39 1095.05 1497.41 Z" fill="#000000" fill-rule="nonzero" fill-opacity="1" /><path clip-path="url(#clip270)" d="M1144.79 1531.5 L1144.79 1521.84 L1154.46 1521.84 L1154.46 1531.5 L1144.79 1531.5 Z" fill="#000000" fill-rule="nonzero" fill-opacity="1" /><path clip-path="url(#clip270)" d="M1167.42 1471.43 L1167.42 1463.28 L1212.17 1463.28 L1212.17 1469.88 Q1205.57 1476.9 1199.06 1488.55 Q1192.6 1500.19 1189.06 1512.5 Q1186.52 1521.17 1185.81 1531.5 L1177.09 1531.5 Q1177.23 1523.34 1180.29 1511.79 Q1183.36 1500.24 1189.06 1489.54 Q1194.82 1478.79 1201.28 1471.43 L1167.42 1471.43 Z" fill="#000000" fill-rule="nonzero" fill-opacity="1" /><path clip-path="url(#clip270)" d="M1220.56 1513.4 L1229.47 1512.64 Q1230.46 1519.15 1234.04 1522.45 Q1237.67 1525.7 1242.77 1525.7 Q1248.9 1525.7 1253.14 1521.08 Q1257.38 1516.46 1257.38 1508.82 Q1257.38 1501.56 1253.28 1497.36 Q1249.23 1493.17 1242.63 1493.17 Q1238.52 1493.17 1235.22 1495.05 Q1231.92 1496.89 1230.04 1499.86 L1222.07 1498.83 L1228.76 1463.32 L1263.13 1463.32 L1263.13 1471.43 L1235.55 1471.43 L1231.83 1490.01 Q1238.05 1485.67 1244.89 1485.67 Q1253.94 1485.67 1260.16 1491.94 Q1266.39 1498.21 1266.39 1508.07 Q1266.39 1517.45 1260.92 1524.29 Q1254.27 1532.68 1242.77 1532.68 Q1233.34 1532.68 1227.35 1527.4 Q1221.41 1522.12 1220.56 1513.4 Z" fill="#000000" fill-rule="nonzero" fill-opacity="1" /><path clip-path="url(#clip270)" d="M1308.38 1586.15 L1299.89 1586.15 L1299.89 1532.08 Q1296.82 1535 1291.83 1537.92 Q1286.88 1540.84 1282.92 1542.31 L1282.92 1534.1 Q1290.04 1530.75 1295.36 1525.99 Q1300.69 1521.23 1302.91 1516.75 L1308.38 1516.75 L1308.38 1586.15 Z" fill="#000000" fill-rule="nonzero" fill-opacity="1" /><path clip-path="url(#clip270)" d="M1334.87 1586.15 L1334.87 1576.49 L1344.54 1576.49 L1344.54 1586.15 L1334.87 1586.15 Z" fill="#000000" fill-rule="nonzero" fill-opacity="1" /><path clip-path="url(#clip270)" d="M1356.94 1552.07 Q1356.94 1539.81 1359.44 1532.36 Q1361.98 1524.86 1366.93 1520.81 Q1371.93 1516.75 1379.48 1516.75 Q1385.04 1516.75 1389.24 1519.01 Q1393.43 1521.23 1396.17 1525.47 Q1398.9 1529.67 1400.46 1535.75 Q1402.01 1541.79 1402.01 1552.07 Q1402.01 1564.23 1399.51 1571.73 Q1397.02 1579.18 1392.02 1583.28 Q1387.07 1587.33 1379.48 1587.33 Q1369.48 1587.33 1363.78 1580.17 Q1356.94 1571.54 1356.94 1552.07 M1365.66 1552.07 Q1365.66 1569.09 1369.62 1574.74 Q1373.63 1580.36 1379.48 1580.36 Q1385.32 1580.36 1389.28 1574.7 Q1393.29 1569.04 1393.29 1552.07 Q1393.29 1535 1389.28 1529.39 Q1385.32 1523.78 1379.38 1523.78 Q1373.54 1523.78 1370.05 1528.73 Q1365.66 1535.05 1365.66 1552.07 Z" fill="#000000" fill-rule="nonzero" fill-opacity="1" /><path clip-path="url(#clip270)" d="M1410.64 1552.07 Q1410.64 1539.81 1413.14 1532.36 Q1415.69 1524.86 1420.64 1520.81 Q1425.63 1516.75 1433.18 1516.75 Q1438.74 1516.75 1442.94 1519.01 Q1447.13 1521.23 1449.87 1525.47 Q1452.6 1529.67 1454.16 1535.75 Q1455.72 1541.79 1455.72 1552.07 Q1455.72 1564.23 1453.22 1571.73 Q1450.72 1579.18 1445.72 1583.28 Q1440.77 1587.33 1433.18 1587.33 Q1423.18 1587.33 1417.48 1580.17 Q1410.64 1571.54 1410.64 1552.07 M1419.36 1552.07 Q1419.36 1569.09 1423.32 1574.74 Q1427.33 1580.36 1433.18 1580.36 Q1439.03 1580.36 1442.99 1574.7 Q1446.99 1569.04 1446.99 1552.07 Q1446.99 1535 1442.99 1529.39 Q1439.03 1523.78 1433.08 1523.78 Q1427.24 1523.78 1423.75 1528.73 Q1419.36 1535.05 1419.36 1552.07 Z" fill="#000000" fill-rule="nonzero" fill-opacity="1" /><polyline clip-path="url(#clip270)" style="stroke:#000000; stroke-linecap:round; stroke-linejoin:round; stroke-width:4; stroke-opacity:1; fill:none" points="1475,1527.2 1926.06,1136.58 "/>
<polyline clip-path="url(#clip270)" style="stroke:#000000; stroke-linecap:round; stroke-linejoin:round; stroke-width:2; stroke-opacity:0.5; fill:none" points="693.749,520.42 1144.81,129.793 "/>
<polyline clip-path="url(#clip270)" style="stroke:#000000; stroke-linecap:round; stroke-linejoin:round; stroke-width:4; stroke-opacity:1; fill:none" points="1537.63,1472.96 1528.26,1470.26 "/>
<polyline clip-path="url(#clip270)" style="stroke:#000000; stroke-linecap:round; stroke-linejoin:round; stroke-width:4; stroke-opacity:1; fill:none" points="1635.98,1387.8 1626.6,1385.09 "/>
<polyline clip-path="url(#clip270)" style="stroke:#000000; stroke-linecap:round; stroke-linejoin:round; stroke-width:4; stroke-opacity:1; fill:none" points="1734.32,1302.63 1724.95,1299.92 "/>
<polyline clip-path="url(#clip270)" style="stroke:#000000; stroke-linecap:round; stroke-linejoin:round; stroke-width:4; stroke-opacity:1; fill:none" points="1832.67,1217.46 1823.29,1214.75 "/>
<path clip-path="url(#clip270)" d="M1557.73 1494.07 Q1557.73 1481.81 1560.22 1474.36 Q1562.77 1466.86 1567.72 1462.81 Q1572.72 1458.75 1580.26 1458.75 Q1585.83 1458.75 1590.02 1461.02 Q1594.22 1463.23 1596.95 1467.48 Q1599.69 1471.67 1601.24 1477.75 Q1602.8 1483.79 1602.8 1494.07 Q1602.8 1506.23 1600.3 1513.73 Q1597.8 1521.18 1592.8 1525.28 Q1587.85 1529.34 1580.26 1529.34 Q1570.27 1529.34 1564.56 1522.17 Q1557.73 1513.54 1557.73 1494.07 M1566.45 1494.07 Q1566.45 1511.09 1570.41 1516.75 Q1574.42 1522.36 1580.26 1522.36 Q1586.11 1522.36 1590.07 1516.7 Q1594.08 1511.04 1594.08 1494.07 Q1594.08 1477 1590.07 1471.39 Q1586.11 1465.78 1580.17 1465.78 Q1574.32 1465.78 1570.83 1470.73 Q1566.45 1477.05 1566.45 1494.07 Z" fill="#000000" fill-rule="nonzero" fill-opacity="1" /><path clip-path="url(#clip270)" d="M1616.19 1528.16 L1616.19 1518.49 L1625.86 1518.49 L1625.86 1528.16 L1616.19 1528.16 Z" fill="#000000" fill-rule="nonzero" fill-opacity="1" /><path clip-path="url(#clip270)" d="M1682.86 1520 L1682.86 1528.16 L1637.17 1528.16 Q1637.08 1525.09 1638.16 1522.26 Q1639.91 1517.6 1643.72 1513.07 Q1647.59 1508.54 1654.85 1502.6 Q1666.12 1493.36 1670.08 1487.99 Q1674.04 1482.56 1674.04 1477.75 Q1674.04 1472.71 1670.41 1469.27 Q1666.83 1465.78 1661.03 1465.78 Q1654.9 1465.78 1651.22 1469.46 Q1647.54 1473.13 1647.5 1479.64 L1638.77 1478.74 Q1639.67 1468.98 1645.52 1463.89 Q1651.36 1458.75 1661.22 1458.75 Q1671.17 1458.75 1676.96 1464.27 Q1682.76 1469.79 1682.76 1477.94 Q1682.76 1482.09 1681.07 1486.1 Q1679.37 1490.11 1675.41 1494.54 Q1671.5 1498.97 1662.35 1506.7 Q1654.71 1513.12 1652.54 1515.43 Q1650.37 1517.69 1648.96 1520 L1682.86 1520 Z" fill="#000000" fill-rule="nonzero" fill-opacity="1" /><path clip-path="url(#clip270)" d="M1656.07 1408.9 Q1656.07 1396.64 1658.57 1389.19 Q1661.12 1381.69 1666.07 1377.64 Q1671.06 1373.58 1678.61 1373.58 Q1684.17 1373.58 1688.37 1375.85 Q1692.56 1378.06 1695.3 1382.31 Q1698.03 1386.5 1699.59 1392.59 Q1701.14 1398.62 1701.14 1408.9 Q1701.14 1421.06 1698.65 1428.56 Q1696.15 1436.01 1691.15 1440.11 Q1686.2 1444.17 1678.61 1444.17 Q1668.61 1444.17 1662.91 1437 Q1656.07 1428.37 1656.07 1408.9 M1664.79 1408.9 Q1664.79 1425.92 1668.75 1431.58 Q1672.76 1437.19 1678.61 1437.19 Q1684.45 1437.19 1688.41 1431.53 Q1692.42 1425.87 1692.42 1408.9 Q1692.42 1391.83 1688.41 1386.22 Q1684.45 1380.61 1678.51 1380.61 Q1672.67 1380.61 1669.18 1385.56 Q1664.79 1391.88 1664.79 1408.9 Z" fill="#000000" fill-rule="nonzero" fill-opacity="1" /><path clip-path="url(#clip270)" d="M1714.54 1442.99 L1714.54 1433.32 L1724.2 1433.32 L1724.2 1442.99 L1714.54 1442.99 Z" fill="#000000" fill-rule="nonzero" fill-opacity="1" /><path clip-path="url(#clip270)" d="M1763.81 1442.99 L1763.81 1426.44 L1733.82 1426.44 L1733.82 1418.66 L1765.36 1373.87 L1772.29 1373.87 L1772.29 1418.66 L1781.63 1418.66 L1781.63 1426.44 L1772.29 1426.44 L1772.29 1442.99 L1763.81 1442.99 M1763.81 1418.66 L1763.81 1387.49 L1742.16 1418.66 L1763.81 1418.66 Z" fill="#000000" fill-rule="nonzero" fill-opacity="1" /><path clip-path="url(#clip270)" d="M1754.42 1323.73 Q1754.42 1311.47 1756.91 1304.02 Q1759.46 1296.52 1764.41 1292.47 Q1769.41 1288.41 1776.95 1288.41 Q1782.52 1288.41 1786.71 1290.68 Q1790.91 1292.89 1793.64 1297.14 Q1796.38 1301.33 1797.93 1307.42 Q1799.49 1313.45 1799.49 1323.73 Q1799.49 1335.89 1796.99 1343.39 Q1794.49 1350.84 1789.49 1354.94 Q1784.54 1359 1776.95 1359 Q1766.96 1359 1761.25 1351.83 Q1754.42 1343.2 1754.42 1323.73 M1763.14 1323.73 Q1763.14 1340.75 1767.1 1346.41 Q1771.11 1352.02 1776.95 1352.02 Q1782.8 1352.02 1786.76 1346.36 Q1790.77 1340.7 1790.77 1323.73 Q1790.77 1306.66 1786.76 1301.05 Q1782.8 1295.44 1776.86 1295.44 Q1771.01 1295.44 1767.52 1300.39 Q1763.14 1306.71 1763.14 1323.73 Z" fill="#000000" fill-rule="nonzero" fill-opacity="1" /><path clip-path="url(#clip270)" d="M1812.88 1357.82 L1812.88 1348.15 L1822.55 1348.15 L1822.55 1357.82 L1812.88 1357.82 Z" fill="#000000" fill-rule="nonzero" fill-opacity="1" /><path clip-path="url(#clip270)" d="M1878.98 1305.62 L1870.54 1306.28 Q1869.41 1301.29 1867.34 1299.02 Q1863.9 1295.39 1858.85 1295.39 Q1854.8 1295.39 1851.73 1297.66 Q1847.72 1300.58 1845.41 1306.19 Q1843.1 1311.8 1843.01 1322.17 Q1846.07 1317.51 1850.5 1315.24 Q1854.94 1312.98 1859.79 1312.98 Q1868.28 1312.98 1874.22 1319.25 Q1880.21 1325.47 1880.21 1335.37 Q1880.21 1341.88 1877.38 1347.49 Q1874.6 1353.06 1869.69 1356.03 Q1864.79 1359 1858.57 1359 Q1847.96 1359 1841.26 1351.22 Q1834.57 1343.39 1834.57 1325.47 Q1834.57 1305.44 1841.97 1296.34 Q1848.43 1288.41 1859.37 1288.41 Q1867.53 1288.41 1872.71 1292.99 Q1877.95 1297.56 1878.98 1305.62 M1844.33 1335.42 Q1844.33 1339.81 1846.17 1343.81 Q1848.05 1347.82 1851.4 1349.94 Q1854.75 1352.02 1858.43 1352.02 Q1863.8 1352.02 1867.67 1347.68 Q1871.53 1343.34 1871.53 1335.89 Q1871.53 1328.73 1867.71 1324.62 Q1863.9 1320.48 1858.1 1320.48 Q1852.34 1320.48 1848.34 1324.62 Q1844.33 1328.73 1844.33 1335.42 Z" fill="#000000" fill-rule="nonzero" fill-opacity="1" /><path clip-path="url(#clip270)" d="M1852.76 1238.56 Q1852.76 1226.3 1855.26 1218.85 Q1857.81 1211.35 1862.76 1207.3 Q1867.75 1203.25 1875.3 1203.25 Q1880.86 1203.25 1885.06 1205.51 Q1889.25 1207.72 1891.99 1211.97 Q1894.72 1216.16 1896.28 1222.25 Q1897.84 1228.28 1897.84 1238.56 Q1897.84 1250.72 1895.34 1258.22 Q1892.84 1265.67 1887.84 1269.77 Q1882.89 1273.83 1875.3 1273.83 Q1865.3 1273.83 1859.6 1266.66 Q1852.76 1258.03 1852.76 1238.56 M1861.48 1238.56 Q1861.48 1255.58 1865.44 1261.24 Q1869.45 1266.85 1875.3 1266.85 Q1881.14 1266.85 1885.11 1261.19 Q1889.11 1255.53 1889.11 1238.56 Q1889.11 1221.49 1885.11 1215.88 Q1881.14 1210.27 1875.2 1210.27 Q1869.36 1210.27 1865.87 1215.22 Q1861.48 1221.54 1861.48 1238.56 Z" fill="#000000" fill-rule="nonzero" fill-opacity="1" /><path clip-path="url(#clip270)" d="M1911.23 1272.65 L1911.23 1262.98 L1920.89 1262.98 L1920.89 1272.65 L1911.23 1272.65 Z" fill="#000000" fill-rule="nonzero" fill-opacity="1" /><path clip-path="url(#clip270)" d="M1946.35 1235.16 Q1941.07 1233.23 1938.52 1229.65 Q1935.98 1226.07 1935.98 1221.07 Q1935.98 1213.52 1941.4 1208.38 Q1946.82 1203.25 1955.83 1203.25 Q1964.88 1203.25 1970.4 1208.53 Q1975.91 1213.76 1975.91 1221.3 Q1975.91 1226.11 1973.37 1229.7 Q1970.87 1233.23 1965.73 1235.16 Q1972.09 1237.24 1975.39 1241.86 Q1978.74 1246.48 1978.74 1252.89 Q1978.74 1261.76 1972.47 1267.79 Q1966.2 1273.83 1955.97 1273.83 Q1945.74 1273.83 1939.47 1267.79 Q1933.2 1261.71 1933.2 1252.66 Q1933.2 1245.91 1936.59 1241.39 Q1940.03 1236.82 1946.35 1235.16 M1944.65 1220.78 Q1944.65 1225.69 1947.81 1228.8 Q1950.97 1231.91 1956.02 1231.91 Q1960.92 1231.91 1964.03 1228.85 Q1967.19 1225.74 1967.19 1221.26 Q1967.19 1216.59 1963.94 1213.43 Q1960.73 1210.22 1955.92 1210.22 Q1951.07 1210.22 1947.86 1213.34 Q1944.65 1216.45 1944.65 1220.78 M1941.92 1252.7 Q1941.92 1256.33 1943.62 1259.73 Q1945.36 1263.12 1948.76 1265.01 Q1952.15 1266.85 1956.06 1266.85 Q1962.15 1266.85 1966.11 1262.94 Q1970.07 1259.02 1970.07 1252.99 Q1970.07 1246.86 1965.97 1242.85 Q1961.91 1238.84 1955.78 1238.84 Q1949.79 1238.84 1945.83 1242.8 Q1941.92 1246.76 1941.92 1252.7 Z" fill="#000000" fill-rule="nonzero" fill-opacity="1" /><polyline clip-path="url(#clip270)" style="stroke:#000000; stroke-linecap:round; stroke-linejoin:round; stroke-width:4; stroke-opacity:1; fill:none" points="693.749,1301.67 693.749,520.42 "/>
<polyline clip-path="url(#clip270)" style="stroke:#000000; stroke-linecap:round; stroke-linejoin:round; stroke-width:2; stroke-opacity:0.5; fill:none" points="1926.06,1136.58 1926.06,355.322 "/>
<polyline clip-path="url(#clip270)" style="stroke:#000000; stroke-linecap:round; stroke-linejoin:round; stroke-width:4; stroke-opacity:1; fill:none" points="693.749,1242.71 699.162,1238.02 "/>
<polyline clip-path="url(#clip270)" style="stroke:#000000; stroke-linecap:round; stroke-linejoin:round; stroke-width:4; stroke-opacity:1; fill:none" points="693.749,1058.45 699.162,1053.77 "/>
<polyline clip-path="url(#clip270)" style="stroke:#000000; stroke-linecap:round; stroke-linejoin:round; stroke-width:4; stroke-opacity:1; fill:none" points="693.749,874.196 699.162,869.508 "/>
<polyline clip-path="url(#clip270)" style="stroke:#000000; stroke-linecap:round; stroke-linejoin:round; stroke-width:4; stroke-opacity:1; fill:none" points="693.749,689.938 699.162,685.25 "/>
<path clip-path="url(#clip270)" d="M484.888 1243.18 Q484.888 1230.92 487.387 1223.47 Q489.933 1215.98 494.884 1211.92 Q499.881 1207.87 507.425 1207.87 Q512.989 1207.87 517.185 1210.13 Q521.381 1212.35 524.116 1216.59 Q526.85 1220.79 528.406 1226.87 Q529.962 1232.9 529.962 1243.18 Q529.962 1255.35 527.463 1262.84 Q524.964 1270.29 519.967 1274.4 Q515.016 1278.45 507.425 1278.45 Q497.43 1278.45 491.725 1271.28 Q484.888 1262.66 484.888 1243.18 M493.611 1243.18 Q493.611 1260.2 497.571 1265.86 Q501.579 1271.47 507.425 1271.47 Q513.272 1271.47 517.232 1265.81 Q521.24 1260.16 521.24 1243.18 Q521.24 1226.12 517.232 1220.5 Q513.272 1214.89 507.331 1214.89 Q501.484 1214.89 497.995 1219.84 Q493.611 1226.16 493.611 1243.18 Z" fill="#000000" fill-rule="nonzero" fill-opacity="1" /><path clip-path="url(#clip270)" d="M543.352 1277.27 L543.352 1267.61 L553.018 1267.61 L553.018 1277.27 L543.352 1277.27 Z" fill="#000000" fill-rule="nonzero" fill-opacity="1" /><path clip-path="url(#clip270)" d="M610.021 1269.11 L610.021 1277.27 L564.334 1277.27 Q564.239 1274.21 565.324 1271.38 Q567.068 1266.71 570.887 1262.18 Q574.754 1257.66 582.014 1251.72 Q593.283 1242.48 597.243 1237.1 Q601.204 1231.68 601.204 1226.87 Q601.204 1221.82 597.573 1218.38 Q593.99 1214.89 588.191 1214.89 Q582.062 1214.89 578.384 1218.57 Q574.706 1222.25 574.659 1228.76 L565.937 1227.86 Q566.833 1218.1 572.679 1213.01 Q578.525 1207.87 588.379 1207.87 Q598.328 1207.87 604.127 1213.39 Q609.926 1218.9 609.926 1227.06 Q609.926 1231.21 608.229 1235.21 Q606.532 1239.22 602.571 1243.65 Q598.658 1248.09 589.511 1255.82 Q581.873 1262.23 579.704 1264.54 Q577.535 1266.8 576.121 1269.11 L610.021 1269.11 Z" fill="#000000" fill-rule="nonzero" fill-opacity="1" /><path clip-path="url(#clip270)" d="M619.12 1259.17 L628.032 1258.41 Q629.022 1264.92 632.605 1268.22 Q636.235 1271.47 641.327 1271.47 Q647.457 1271.47 651.7 1266.85 Q655.944 1262.23 655.944 1254.59 Q655.944 1247.33 651.842 1243.14 Q647.787 1238.94 641.186 1238.94 Q637.084 1238.94 633.784 1240.83 Q630.483 1242.66 628.597 1245.63 L620.629 1244.6 L627.324 1209.09 L661.696 1209.09 L661.696 1217.2 L634.114 1217.2 L630.389 1235.78 Q636.613 1231.44 643.449 1231.44 Q652.502 1231.44 658.725 1237.71 Q664.949 1243.98 664.949 1253.84 Q664.949 1263.22 659.48 1270.06 Q652.832 1278.45 641.327 1278.45 Q631.898 1278.45 625.91 1273.17 Q619.969 1267.89 619.12 1259.17 Z" fill="#000000" fill-rule="nonzero" fill-opacity="1" /><path clip-path="url(#clip270)" d="M485.642 1058.93 Q485.642 1046.67 488.141 1039.22 Q490.687 1031.72 495.638 1027.67 Q500.636 1023.61 508.18 1023.61 Q513.743 1023.61 517.939 1025.87 Q522.136 1028.09 524.87 1032.33 Q527.605 1036.53 529.161 1042.61 Q530.717 1048.65 530.717 1058.93 Q530.717 1071.09 528.218 1078.59 Q525.719 1086.04 520.721 1090.14 Q515.77 1094.19 508.18 1094.19 Q498.184 1094.19 492.479 1087.03 Q485.642 1078.4 485.642 1058.93 M494.365 1058.93 Q494.365 1075.95 498.325 1081.6 Q502.333 1087.21 508.18 1087.21 Q514.026 1087.21 517.986 1081.56 Q521.994 1075.9 521.994 1058.93 Q521.994 1041.86 517.986 1036.25 Q514.026 1030.64 508.085 1030.64 Q502.239 1030.64 498.75 1035.59 Q494.365 1041.9 494.365 1058.93 Z" fill="#000000" fill-rule="nonzero" fill-opacity="1" /><path clip-path="url(#clip270)" d="M544.107 1093.01 L544.107 1083.35 L553.772 1083.35 L553.772 1093.01 L544.107 1093.01 Z" fill="#000000" fill-rule="nonzero" fill-opacity="1" /><path clip-path="url(#clip270)" d="M566.172 1074.91 L575.084 1074.15 Q576.074 1080.66 579.657 1083.96 Q583.287 1087.21 588.379 1087.21 Q594.509 1087.21 598.752 1082.59 Q602.996 1077.97 602.996 1070.33 Q602.996 1063.07 598.894 1058.88 Q594.839 1054.68 588.238 1054.68 Q584.136 1054.68 580.836 1056.57 Q577.535 1058.41 575.649 1061.38 L567.681 1060.34 L574.376 1024.84 L608.748 1024.84 L608.748 1032.95 L581.166 1032.95 L577.441 1051.52 Q583.665 1047.18 590.501 1047.18 Q599.554 1047.18 605.777 1053.46 Q612.001 1059.73 612.001 1069.58 Q612.001 1078.96 606.532 1085.8 Q599.884 1094.19 588.379 1094.19 Q578.95 1094.19 572.962 1088.91 Q567.021 1083.63 566.172 1074.91 Z" fill="#000000" fill-rule="nonzero" fill-opacity="1" /><path clip-path="url(#clip270)" d="M619.875 1058.93 Q619.875 1046.67 622.374 1039.22 Q624.92 1031.72 629.87 1027.67 Q634.868 1023.61 642.412 1023.61 Q647.975 1023.61 652.172 1025.87 Q656.368 1028.09 659.103 1032.33 Q661.837 1036.53 663.393 1042.61 Q664.949 1048.65 664.949 1058.93 Q664.949 1071.09 662.45 1078.59 Q659.951 1086.04 654.953 1090.14 Q650.003 1094.19 642.412 1094.19 Q632.416 1094.19 626.711 1087.03 Q619.875 1078.4 619.875 1058.93 M628.597 1058.93 Q628.597 1075.95 632.558 1081.6 Q636.565 1087.21 642.412 1087.21 Q648.258 1087.21 652.219 1081.56 Q656.226 1075.9 656.226 1058.93 Q656.226 1041.86 652.219 1036.25 Q648.258 1030.64 642.318 1030.64 Q636.471 1030.64 632.982 1035.59 Q628.597 1041.9 628.597 1058.93 Z" fill="#000000" fill-rule="nonzero" fill-opacity="1" /><path clip-path="url(#clip270)" d="M484.888 874.667 Q484.888 862.408 487.387 854.959 Q489.933 847.462 494.884 843.407 Q499.881 839.353 507.425 839.353 Q512.989 839.353 517.185 841.616 Q521.381 843.832 524.116 848.075 Q526.85 852.271 528.406 858.354 Q529.962 864.389 529.962 874.667 Q529.962 886.831 527.463 894.328 Q524.964 901.778 519.967 905.879 Q515.016 909.934 507.425 909.934 Q497.43 909.934 491.725 902.768 Q484.888 894.139 484.888 874.667 M493.611 874.667 Q493.611 891.688 497.571 897.346 Q501.579 902.956 507.425 902.956 Q513.272 902.956 517.232 897.298 Q521.24 891.641 521.24 874.667 Q521.24 857.599 517.232 851.988 Q513.272 846.378 507.331 846.378 Q501.484 846.378 497.995 851.328 Q493.611 857.646 493.611 874.667 Z" fill="#000000" fill-rule="nonzero" fill-opacity="1" /><path clip-path="url(#clip270)" d="M543.352 908.756 L543.352 899.09 L553.018 899.09 L553.018 908.756 L543.352 908.756 Z" fill="#000000" fill-rule="nonzero" fill-opacity="1" /><path clip-path="url(#clip270)" d="M565.984 848.688 L565.984 840.531 L610.728 840.531 L610.728 847.132 Q604.127 854.157 597.621 865.803 Q591.161 877.449 587.625 889.755 Q585.079 898.43 584.372 908.756 L575.649 908.756 Q575.791 900.599 578.855 889.047 Q581.92 877.496 587.625 866.793 Q593.377 856.043 599.837 848.688 L565.984 848.688 Z" fill="#000000" fill-rule="nonzero" fill-opacity="1" /><path clip-path="url(#clip270)" d="M619.12 890.65 L628.032 889.896 Q629.022 896.403 632.605 899.703 Q636.235 902.956 641.327 902.956 Q647.457 902.956 651.7 898.336 Q655.944 893.715 655.944 886.077 Q655.944 878.816 651.842 874.62 Q647.787 870.424 641.186 870.424 Q637.084 870.424 633.784 872.31 Q630.483 874.148 628.597 877.119 L620.629 876.081 L627.324 840.579 L661.696 840.579 L661.696 848.688 L634.114 848.688 L630.389 867.265 Q636.613 862.927 643.449 862.927 Q652.502 862.927 658.725 869.198 Q664.949 875.469 664.949 885.323 Q664.949 894.705 659.48 901.542 Q652.832 909.934 641.327 909.934 Q631.898 909.934 625.91 904.654 Q619.969 899.373 619.12 890.65 Z" fill="#000000" fill-rule="nonzero" fill-opacity="1" /><path clip-path="url(#clip270)" d="M517.609 724.498 L509.123 724.498 L509.123 670.418 Q506.058 673.341 501.06 676.264 Q496.109 679.188 492.149 680.649 L492.149 672.445 Q499.268 669.098 504.596 664.336 Q509.924 659.574 512.14 655.095 L517.609 655.095 L517.609 724.498 Z" fill="#000000" fill-rule="nonzero" fill-opacity="1" /><path clip-path="url(#clip270)" d="M544.107 724.498 L544.107 714.832 L553.772 714.832 L553.772 724.498 L544.107 724.498 Z" fill="#000000" fill-rule="nonzero" fill-opacity="1" /><path clip-path="url(#clip270)" d="M566.172 690.409 Q566.172 678.15 568.671 670.701 Q571.217 663.204 576.168 659.149 Q581.166 655.095 588.71 655.095 Q594.273 655.095 598.469 657.358 Q602.666 659.574 605.4 663.817 Q608.135 668.013 609.691 674.096 Q611.247 680.131 611.247 690.409 Q611.247 702.573 608.748 710.07 Q606.249 717.52 601.251 721.621 Q596.3 725.676 588.71 725.676 Q578.714 725.676 573.009 718.51 Q566.172 709.881 566.172 690.409 M574.895 690.409 Q574.895 707.43 578.855 713.088 Q582.863 718.698 588.71 718.698 Q594.556 718.698 598.516 713.04 Q602.524 707.383 602.524 690.409 Q602.524 673.341 598.516 667.731 Q594.556 662.12 588.615 662.12 Q582.769 662.12 579.28 667.07 Q574.895 673.388 574.895 690.409 Z" fill="#000000" fill-rule="nonzero" fill-opacity="1" /><path clip-path="url(#clip270)" d="M619.875 690.409 Q619.875 678.15 622.374 670.701 Q624.92 663.204 629.87 659.149 Q634.868 655.095 642.412 655.095 Q647.975 655.095 652.172 657.358 Q656.368 659.574 659.103 663.817 Q661.837 668.013 663.393 674.096 Q664.949 680.131 664.949 690.409 Q664.949 702.573 662.45 710.07 Q659.951 717.52 654.953 721.621 Q650.003 725.676 642.412 725.676 Q632.416 725.676 626.711 718.51 Q619.875 709.881 619.875 690.409 M628.597 690.409 Q628.597 707.43 632.558 713.088 Q636.565 718.698 642.412 718.698 Q648.258 718.698 652.219 713.04 Q656.226 707.383 656.226 690.409 Q656.226 673.341 652.219 667.731 Q648.258 662.12 642.318 662.12 Q636.471 662.12 632.982 667.07 Q628.597 673.388 628.597 690.409 Z" fill="#000000" fill-rule="nonzero" fill-opacity="1" /><circle clip-path="url(#clip272)" cx="998.761" cy="1320.94" r="14.4" fill="#4477aa" fill-rule="evenodd" fill-opacity="1" stroke="#000000" stroke-opacity="1" stroke-width="3.6"/>
<circle clip-path="url(#clip272)" cx="1056.28" cy="1369.48" r="14.4" fill="#4477aa" fill-rule="evenodd" fill-opacity="1" stroke="#000000" stroke-opacity="1" stroke-width="3.6"/>
<circle clip-path="url(#clip272)" cx="1676.41" cy="1229.41" r="14.4" fill="#4477aa" fill-rule="evenodd" fill-opacity="1" stroke="#000000" stroke-opacity="1" stroke-width="3.6"/>
<circle clip-path="url(#clip272)" cx="1596.69" cy="1104.91" r="14.4" fill="#4477aa" fill-rule="evenodd" fill-opacity="1" stroke="#000000" stroke-opacity="1" stroke-width="3.6"/>
<circle clip-path="url(#clip272)" cx="1682.03" cy="1061.04" r="14.4" fill="#4477aa" fill-rule="evenodd" fill-opacity="1" stroke="#000000" stroke-opacity="1" stroke-width="3.6"/>
<circle clip-path="url(#clip272)" cx="908.377" cy="1177.17" r="14.4" fill="#4477aa" fill-rule="evenodd" fill-opacity="1" stroke="#000000" stroke-opacity="1" stroke-width="3.6"/>
<circle clip-path="url(#clip272)" cx="1562.58" cy="1276.44" r="14.4" fill="#4477aa" fill-rule="evenodd" fill-opacity="1" stroke="#000000" stroke-opacity="1" stroke-width="3.6"/>
<circle clip-path="url(#clip272)" cx="1717.77" cy="1269.32" r="14.4" fill="#4477aa" fill-rule="evenodd" fill-opacity="1" stroke="#000000" stroke-opacity="1" stroke-width="3.6"/>
<circle clip-path="url(#clip272)" cx="1073.52" cy="1288.88" r="14.4" fill="#4477aa" fill-rule="evenodd" fill-opacity="1" stroke="#000000" stroke-opacity="1" stroke-width="3.6"/>
<circle clip-path="url(#clip272)" cx="1391.08" cy="1231.17" r="14.4" fill="#4477aa" fill-rule="evenodd" fill-opacity="1" stroke="#000000" stroke-opacity="1" stroke-width="3.6"/>
<circle clip-path="url(#clip272)" cx="974.131" cy="1267.49" r="14.4" fill="#4477aa" fill-rule="evenodd" fill-opacity="1" stroke="#000000" stroke-opacity="1" stroke-width="3.6"/>
<circle clip-path="url(#clip272)" cx="1237.37" cy="1225.88" r="14.4" fill="#4477aa" fill-rule="evenodd" fill-opacity="1" stroke="#000000" stroke-opacity="1" stroke-width="3.6"/>
<circle clip-path="url(#clip272)" cx="1040" cy="1277.5" r="14.4" fill="#4477aa" fill-rule="evenodd" fill-opacity="1" stroke="#000000" stroke-opacity="1" stroke-width="3.6"/>
<circle clip-path="url(#clip272)" cx="736.215" cy="1273.18" r="14.4" fill="#4477aa" fill-rule="evenodd" fill-opacity="1" stroke="#000000" stroke-opacity="1" stroke-width="3.6"/>
<circle clip-path="url(#clip272)" cx="1835.04" cy="1157.67" r="14.4" fill="#4477aa" fill-rule="evenodd" fill-opacity="1" stroke="#000000" stroke-opacity="1" stroke-width="3.6"/>
<circle clip-path="url(#clip272)" cx="1646.26" cy="1128.92" r="14.4" fill="#4477aa" fill-rule="evenodd" fill-opacity="1" stroke="#000000" stroke-opacity="1" stroke-width="3.6"/>
<circle clip-path="url(#clip272)" cx="1065.75" cy="1099.08" r="14.4" fill="#ee6677" fill-rule="evenodd" fill-opacity="1" stroke="#000000" stroke-opacity="1" stroke-width="3.6"/>
<circle clip-path="url(#clip272)" cx="1293.38" cy="1286.4" r="14.4" fill="#ee6677" fill-rule="evenodd" fill-opacity="1" stroke="#000000" stroke-opacity="1" stroke-width="3.6"/>
<circle clip-path="url(#clip272)" cx="1207.24" cy="998.525" r="14.4" fill="#ee6677" fill-rule="evenodd" fill-opacity="1" stroke="#000000" stroke-opacity="1" stroke-width="3.6"/>
<circle clip-path="url(#clip272)" cx="1536.81" cy="1356.35" r="14.4" fill="#ee6677" fill-rule="evenodd" fill-opacity="1" stroke="#000000" stroke-opacity="1" stroke-width="3.6"/>
<circle clip-path="url(#clip272)" cx="1295.67" cy="1149.69" r="14.4" fill="#ee6677" fill-rule="evenodd" fill-opacity="1" stroke="#000000" stroke-opacity="1" stroke-width="3.6"/>
<circle clip-path="url(#clip272)" cx="1376.28" cy="1383.43" r="14.4" fill="#ee6677" fill-rule="evenodd" fill-opacity="1" stroke="#000000" stroke-opacity="1" stroke-width="3.6"/>
<circle clip-path="url(#clip272)" cx="1221.57" cy="1375.61" r="14.4" fill="#ee6677" fill-rule="evenodd" fill-opacity="1" stroke="#000000" stroke-opacity="1" stroke-width="3.6"/>
<circle clip-path="url(#clip272)" cx="1047.73" cy="1040.36" r="14.4" fill="#ee6677" fill-rule="evenodd" fill-opacity="1" stroke="#000000" stroke-opacity="1" stroke-width="3.6"/>
<circle clip-path="url(#clip272)" cx="930.853" cy="1099.76" r="14.4" fill="#ee6677" fill-rule="evenodd" fill-opacity="1" stroke="#000000" stroke-opacity="1" stroke-width="3.6"/>
<circle clip-path="url(#clip272)" cx="1206.18" cy="928.215" r="14.4" fill="#ee6677" fill-rule="evenodd" fill-opacity="1" stroke="#000000" stroke-opacity="1" stroke-width="3.6"/>
<circle clip-path="url(#clip272)" cx="1160.05" cy="999.459" r="14.4" fill="#ee6677" fill-rule="evenodd" fill-opacity="1" stroke="#000000" stroke-opacity="1" stroke-width="3.6"/>
<circle clip-path="url(#clip272)" cx="1223.56" cy="1095.71" r="14.4" fill="#ee6677" fill-rule="evenodd" fill-opacity="1" stroke="#000000" stroke-opacity="1" stroke-width="3.6"/>
<circle clip-path="url(#clip272)" cx="1209.44" cy="922.336" r="14.4" fill="#ee6677" fill-rule="evenodd" fill-opacity="1" stroke="#000000" stroke-opacity="1" stroke-width="3.6"/>
<circle clip-path="url(#clip272)" cx="1007.06" cy="1072.91" r="14.4" fill="#ee6677" fill-rule="evenodd" fill-opacity="1" stroke="#000000" stroke-opacity="1" stroke-width="3.6"/>
<circle clip-path="url(#clip272)" cx="1365.27" cy="1082.73" r="14.4" fill="#ee6677" fill-rule="evenodd" fill-opacity="1" stroke="#000000" stroke-opacity="1" stroke-width="3.6"/>
<path clip-path="url(#clip270)" d="M1933.36 449.248 L2283.23 449.248 L2283.23 99.3277 L1933.36 99.3277  Z" fill="#ffffff" fill-rule="evenodd" fill-opacity="1"/>
<polyline clip-path="url(#clip270)" style="stroke:#000000; stroke-linecap:round; stroke-linejoin:round; stroke-width:4; stroke-opacity:1; fill:none" points="1933.36,449.248 2283.23,449.248 2283.23,99.3277 1933.36,99.3277 1933.36,449.248 "/>
<circle clip-path="url(#clip270)" cx="2026.06" cy="215.968" r="46.08" fill="#4477aa" fill-rule="evenodd" fill-opacity="1" stroke="#000000" stroke-opacity="1" stroke-width="11.52"/>
<path clip-path="url(#clip270)" d="M2118.75 216.498 Q2118.75 202.707 2121.56 194.326 Q2124.43 185.893 2130 181.331 Q2135.62 176.769 2144.11 176.769 Q2150.37 176.769 2155.09 179.315 Q2159.81 181.808 2162.88 186.582 Q2165.96 191.303 2167.71 198.145 Q2169.46 204.935 2169.46 216.498 Q2169.46 230.183 2166.65 238.617 Q2163.84 246.997 2158.22 251.612 Q2152.65 256.174 2144.11 256.174 Q2132.86 256.174 2126.44 248.111 Q2118.75 238.405 2118.75 216.498 M2128.57 216.498 Q2128.57 235.646 2133.02 242.011 Q2137.53 248.323 2144.11 248.323 Q2150.68 248.323 2155.14 241.958 Q2159.65 235.593 2159.65 216.498 Q2159.65 197.297 2155.14 190.985 Q2150.68 184.673 2144 184.673 Q2137.42 184.673 2133.5 190.242 Q2128.57 197.35 2128.57 216.498 Z" fill="#000000" fill-rule="nonzero" fill-opacity="1" /><path clip-path="url(#clip270)" d="M2184.53 254.848 L2184.53 243.974 L2195.4 243.974 L2195.4 254.848 L2184.53 254.848 Z" fill="#000000" fill-rule="nonzero" fill-opacity="1" /><path clip-path="url(#clip270)" d="M2209.35 216.498 Q2209.35 202.707 2212.16 194.326 Q2215.03 185.893 2220.59 181.331 Q2226.22 176.769 2234.7 176.769 Q2240.96 176.769 2245.68 179.315 Q2250.4 181.808 2253.48 186.582 Q2256.56 191.303 2258.31 198.145 Q2260.06 204.935 2260.06 216.498 Q2260.06 230.183 2257.25 238.617 Q2254.44 246.997 2248.81 251.612 Q2243.24 256.174 2234.7 256.174 Q2223.46 256.174 2217.04 248.111 Q2209.35 238.405 2209.35 216.498 M2219.16 216.498 Q2219.16 235.646 2223.62 242.011 Q2228.13 248.323 2234.7 248.323 Q2241.28 248.323 2245.74 241.958 Q2250.25 235.593 2250.25 216.498 Q2250.25 197.297 2245.74 190.985 Q2241.28 184.673 2234.6 184.673 Q2228.02 184.673 2224.1 190.242 Q2219.16 197.35 2219.16 216.498 Z" fill="#000000" fill-rule="nonzero" fill-opacity="1" /><circle clip-path="url(#clip270)" cx="2026.06" cy="332.608" r="46.08" fill="#ee6677" fill-rule="evenodd" fill-opacity="1" stroke="#000000" stroke-opacity="1" stroke-width="11.52"/>
<path clip-path="url(#clip270)" d="M2147.4 371.488 L2137.85 371.488 L2137.85 310.648 Q2134.4 313.937 2128.78 317.225 Q2123.21 320.514 2118.75 322.158 L2118.75 312.929 Q2126.76 309.163 2132.76 303.806 Q2138.75 298.448 2141.24 293.409 L2147.4 293.409 L2147.4 371.488 Z" fill="#000000" fill-rule="nonzero" fill-opacity="1" /><path clip-path="url(#clip270)" d="M2177.21 371.488 L2177.21 360.614 L2188.08 360.614 L2188.08 371.488 L2177.21 371.488 Z" fill="#000000" fill-rule="nonzero" fill-opacity="1" /><path clip-path="url(#clip270)" d="M2202.03 333.138 Q2202.03 319.347 2204.84 310.966 Q2207.71 302.533 2213.27 297.971 Q2218.9 293.409 2227.38 293.409 Q2233.64 293.409 2238.36 295.955 Q2243.08 298.448 2246.16 303.222 Q2249.24 307.943 2250.99 314.785 Q2252.74 321.575 2252.74 333.138 Q2252.74 346.823 2249.93 355.257 Q2247.12 363.637 2241.49 368.252 Q2235.92 372.814 2227.38 372.814 Q2216.14 372.814 2209.72 364.751 Q2202.03 355.045 2202.03 333.138 M2211.84 333.138 Q2211.84 352.286 2216.3 358.651 Q2220.81 364.963 2227.38 364.963 Q2233.96 364.963 2238.42 358.598 Q2242.93 352.233 2242.93 333.138 Q2242.93 313.937 2238.42 307.625 Q2233.96 301.313 2227.28 301.313 Q2220.7 301.313 2216.78 306.882 Q2211.84 313.99 2211.84 333.138 Z" fill="#000000" fill-rule="nonzero" fill-opacity="1" /></svg>
