<?xml version="1.0" encoding="utf-8"?>
<svg xmlns="http://www.w3.org/2000/svg" xmlns:xlink="http://www.w3.org/1999/xlink" width="600" height="450" viewBox="0 0 2400 1800">
<defs>
  <clipPath id="clip470">
    <rect x="0" y="0" width="2400" height="1800"/>
  </clipPath>
</defs>
<path clip-path="url(#clip470)" d="M0 1800 L2400 1800 L2400 0 L0 0  Z" fill="#ffffff" fill-rule="evenodd" fill-opacity="1"/>
<defs>
  <clipPath id="clip471">
    <rect x="480" y="0" width="1681" height="1681"/>
  </clipPath>
</defs>
<path clip-path="url(#clip470)" d="M370.281 1506.52 L2352.76 1506.52 L2352.76 47.2441 L370.281 47.2441  Z" fill="#ffffff" fill-rule="evenodd" fill-opacity="1"/>
<defs>
  <clipPath id="clip472">
    <rect x="370" y="47" width="1983" height="1460"/>
  </clipPath>
</defs>
<polyline clip-path="url(#clip472)" style="stroke:#000000; stroke-linecap:round; stroke-linejoin:round; stroke-width:2; stroke-opacity:0.1; fill:none" points="418.315,1506.52 418.315,47.2441 "/>
<polyline clip-path="url(#clip472)" style="stroke:#000000; stroke-linecap:round; stroke-linejoin:round; stroke-width:2; stroke-opacity:0.1; fill:none" points="889.817,1506.52 889.817,47.2441 "/>
<polyline clip-path="url(#clip472)" style="stroke:#000000; stroke-linecap:round; stroke-linejoin:round; stroke-width:2; stroke-opacity:0.1; fill:none" points="1361.32,1506.52 1361.32,47.2441 "/>
<polyline clip-path="url(#clip472)" style="stroke:#000000; stroke-linecap:round; stroke-linejoin:round; stroke-width:2; stroke-opacity:0.1; fill:none" points="1832.82,1506.52 1832.82,47.2441 "/>
<polyline clip-path="url(#clip472)" style="stroke:#000000; stroke-linecap:round; stroke-linejoin:round; stroke-width:2; stroke-opacity:0.1; fill:none" points="2304.32,1506.52 2304.32,47.2441 "/>
<polyline clip-path="url(#clip472)" style="stroke:#000000; stroke-linecap:round; stroke-linejoin:round; stroke-width:2; stroke-opacity:0.1; fill:none" points="370.281,1477.78 2352.76,1477.78 "/>
<polyline clip-path="url(#clip472)" style="stroke:#000000; stroke-linecap:round; stroke-linejoin:round; stroke-width:2; stroke-opacity:0.1; fill:none" points="370.281,1122.63 2352.76,1122.63 "/>
<polyline clip-path="url(#clip472)" style="stroke:#000000; stroke-linecap:round; stroke-linejoin:round; stroke-width:2; stroke-opacity:0.1; fill:none" points="370.281,767.48 2352.76,767.48 "/>
<polyline clip-path="url(#clip472)" style="stroke:#000000; stroke-linecap:round; stroke-linejoin:round; stroke-width:2; stroke-opacity:0.1; fill:none" points="370.281,412.332 2352.76,412.332 "/>
<polyline clip-path="url(#clip472)" style="stroke:#000000; stroke-linecap:round; stroke-linejoin:round; stroke-width:2; stroke-opacity:0.1; fill:none" points="370.281,57.183 2352.76,57.183 "/>
<polyline clip-path="url(#clip470)" style="stroke:#000000; stroke-linecap:round; stroke-linejoin:round; stroke-width:4; stroke-opacity:1; fill:none" points="370.281,1506.52 2352.76,1506.52 "/>
<polyline clip-path="url(#clip470)" style="stroke:#000000; stroke-linecap:round; stroke-linejoin:round; stroke-width:2; stroke-opacity:0.5; fill:none" points="370.281,47.2441 2352.76,47.2441 "/>
<polyline clip-path="url(#clip470)" style="stroke:#000000; stroke-linecap:round; stroke-linejoin:round; stroke-width:4; stroke-opacity:1; fill:none" points="418.315,1506.52 418.315,1487.63 "/>
<polyline clip-path="url(#clip470)" style="stroke:#000000; stroke-linecap:round; stroke-linejoin:round; stroke-width:4; stroke-opacity:1; fill:none" points="889.817,1506.52 889.817,1487.63 "/>
<polyline clip-path="url(#clip470)" style="stroke:#000000; stroke-linecap:round; stroke-linejoin:round; stroke-width:4; stroke-opacity:1; fill:none" points="1361.32,1506.52 1361.32,1487.63 "/>
<polyline clip-path="url(#clip470)" style="stroke:#000000; stroke-linecap:round; stroke-linejoin:round; stroke-width:4; stroke-opacity:1; fill:none" points="1832.82,1506.52 1832.82,1487.63 "/>
<polyline clip-path="url(#clip470)" style="stroke:#000000; stroke-linecap:round; stroke-linejoin:round; stroke-width:4; stroke-opacity:1; fill:none" points="2304.32,1506.52 2304.32,1487.63 "/>
<path clip-path="url(#clip470)" d="M328.662 1578.04 Q328.662 1565.78 331.161 1558.33 Q333.707 1550.83 338.657 1546.78 Q343.655 1542.72 351.199 1542.72 Q356.762 1542.72 360.959 1544.98 Q365.155 1547.2 367.889 1551.44 Q370.624 1555.64 372.18 1561.72 Q373.736 1567.76 373.736 1578.04 Q373.736 1590.2 371.237 1597.7 Q368.738 1605.15 363.74 1609.25 Q358.79 1613.3 351.199 1613.3 Q341.203 1613.3 335.498 1606.14 Q328.662 1597.51 328.662 1578.04 M337.384 1578.04 Q337.384 1595.06 341.345 1600.71 Q345.352 1606.32 351.199 1606.32 Q357.045 1606.32 361.006 1600.67 Q365.013 1595.01 365.013 1578.04 Q365.013 1560.97 361.006 1555.36 Q357.045 1549.75 351.104 1549.75 Q345.258 1549.75 341.769 1554.7 Q337.384 1561.01 337.384 1578.04 Z" fill="#000000" fill-rule="nonzero" fill-opacity="1" /><path clip-path="url(#clip470)" d="M387.126 1612.12 L387.126 1602.46 L396.792 1602.46 L396.792 1612.12 L387.126 1612.12 Z" fill="#000000" fill-rule="nonzero" fill-opacity="1" /><path clip-path="url(#clip470)" d="M409.192 1578.04 Q409.192 1565.78 411.691 1558.33 Q414.237 1550.83 419.187 1546.78 Q424.185 1542.72 431.729 1542.72 Q437.292 1542.72 441.489 1544.98 Q445.685 1547.2 448.419 1551.44 Q451.154 1555.64 452.71 1561.72 Q454.266 1567.76 454.266 1578.04 Q454.266 1590.2 451.767 1597.7 Q449.268 1605.15 444.27 1609.25 Q439.32 1613.3 431.729 1613.3 Q421.733 1613.3 416.028 1606.14 Q409.192 1597.51 409.192 1578.04 M417.914 1578.04 Q417.914 1595.06 421.875 1600.71 Q425.882 1606.32 431.729 1606.32 Q437.575 1606.32 441.536 1600.67 Q445.543 1595.01 445.543 1578.04 Q445.543 1560.97 441.536 1555.36 Q437.575 1549.75 431.634 1549.75 Q425.788 1549.75 422.299 1554.7 Q417.914 1561.01 417.914 1578.04 Z" fill="#000000" fill-rule="nonzero" fill-opacity="1" /><path clip-path="url(#clip470)" d="M462.894 1578.04 Q462.894 1565.78 465.393 1558.33 Q467.939 1550.83 472.89 1546.78 Q477.887 1542.72 485.431 1542.72 Q490.995 1542.72 495.191 1544.98 Q499.387 1547.2 502.122 1551.44 Q504.856 1555.64 506.412 1561.72 Q507.968 1567.76 507.968 1578.04 Q507.968 1590.2 505.469 1597.7 Q502.97 1605.15 497.973 1609.25 Q493.022 1613.3 485.431 1613.3 Q475.436 1613.3 469.731 1606.14 Q462.894 1597.51 462.894 1578.04 M471.617 1578.04 Q471.617 1595.06 475.577 1600.71 Q479.585 1606.32 485.431 1606.32 Q491.278 1606.32 495.238 1600.67 Q499.246 1595.01 499.246 1578.04 Q499.246 1560.97 495.238 1555.36 Q491.278 1549.75 485.337 1549.75 Q479.49 1549.75 476.001 1554.7 Q471.617 1561.01 471.617 1578.04 Z" fill="#000000" fill-rule="nonzero" fill-opacity="1" /><path clip-path="url(#clip470)" d="M799.787 1578.04 Q799.787 1565.78 802.286 1558.33 Q804.832 1550.83 809.783 1546.78 Q814.78 1542.72 822.324 1542.72 Q827.888 1542.72 832.084 1544.98 Q836.28 1547.2 839.015 1551.44 Q841.749 1555.64 843.305 1561.72 Q844.861 1567.76 844.861 1578.04 Q844.861 1590.2 842.362 1597.7 Q839.863 1605.15 834.866 1609.25 Q829.915 1613.3 822.324 1613.3 Q812.329 1613.3 806.624 1606.14 Q799.787 1597.51 799.787 1578.04 M808.51 1578.04 Q808.51 1595.06 812.47 1600.71 Q816.478 1606.32 822.324 1606.32 Q828.171 1606.32 832.131 1600.67 Q836.139 1595.01 836.139 1578.04 Q836.139 1560.97 832.131 1555.36 Q828.171 1549.75 822.23 1549.75 Q816.383 1549.75 812.894 1554.7 Q808.51 1561.01 808.51 1578.04 Z" fill="#000000" fill-rule="nonzero" fill-opacity="1" /><path clip-path="url(#clip470)" d="M858.251 1612.12 L858.251 1602.46 L867.917 1602.46 L867.917 1612.12 L858.251 1612.12 Z" fill="#000000" fill-rule="nonzero" fill-opacity="1" /><path clip-path="url(#clip470)" d="M924.92 1603.97 L924.92 1612.12 L879.233 1612.12 Q879.138 1609.06 880.223 1606.23 Q881.967 1601.56 885.786 1597.04 Q889.652 1592.51 896.913 1586.57 Q908.182 1577.33 912.142 1571.95 Q916.103 1566.53 916.103 1561.72 Q916.103 1556.68 912.472 1553.24 Q908.889 1549.75 903.09 1549.75 Q896.96 1549.75 893.283 1553.42 Q889.605 1557.1 889.558 1563.61 L880.836 1562.71 Q881.731 1552.95 887.578 1547.86 Q893.424 1542.72 903.278 1542.72 Q913.227 1542.72 919.026 1548.24 Q924.825 1553.75 924.825 1561.91 Q924.825 1566.06 923.128 1570.07 Q921.431 1574.07 917.47 1578.51 Q913.557 1582.94 904.41 1590.67 Q896.772 1597.08 894.603 1599.39 Q892.434 1601.66 891.02 1603.97 L924.92 1603.97 Z" fill="#000000" fill-rule="nonzero" fill-opacity="1" /><path clip-path="url(#clip470)" d="M934.019 1594.02 L942.93 1593.26 Q943.921 1599.77 947.504 1603.07 Q951.134 1606.32 956.226 1606.32 Q962.356 1606.32 966.599 1601.7 Q970.842 1597.08 970.842 1589.45 Q970.842 1582.18 966.741 1577.99 Q962.686 1573.79 956.085 1573.79 Q951.983 1573.79 948.683 1575.68 Q945.382 1577.52 943.496 1580.49 L935.528 1579.45 L942.223 1543.95 L976.595 1543.95 L976.595 1552.06 L949.013 1552.06 L945.288 1570.63 Q951.512 1566.3 958.348 1566.3 Q967.401 1566.3 973.624 1572.57 Q979.848 1578.84 979.848 1588.69 Q979.848 1598.07 974.379 1604.91 Q967.731 1613.3 956.226 1613.3 Q946.797 1613.3 940.809 1608.02 Q934.868 1602.74 934.019 1594.02 Z" fill="#000000" fill-rule="nonzero" fill-opacity="1" /><path clip-path="url(#clip470)" d="M1271.67 1578.04 Q1271.67 1565.78 1274.17 1558.33 Q1276.71 1550.83 1281.66 1546.78 Q1286.66 1542.72 1294.2 1542.72 Q1299.77 1542.72 1303.96 1544.98 Q1308.16 1547.2 1310.89 1551.44 Q1313.63 1555.64 1315.18 1561.72 Q1316.74 1567.76 1316.74 1578.04 Q1316.74 1590.2 1314.24 1597.7 Q1311.74 1605.15 1306.75 1609.25 Q1301.79 1613.3 1294.2 1613.3 Q1284.21 1613.3 1278.5 1606.14 Q1271.67 1597.51 1271.67 1578.04 M1280.39 1578.04 Q1280.39 1595.06 1284.35 1600.71 Q1288.36 1606.32 1294.2 1606.32 Q1300.05 1606.32 1304.01 1600.67 Q1308.02 1595.01 1308.02 1578.04 Q1308.02 1560.97 1304.01 1555.36 Q1300.05 1549.75 1294.11 1549.75 Q1288.26 1549.75 1284.77 1554.7 Q1280.39 1561.01 1280.39 1578.04 Z" fill="#000000" fill-rule="nonzero" fill-opacity="1" /><path clip-path="url(#clip470)" d="M1330.13 1612.12 L1330.13 1602.46 L1339.8 1602.46 L1339.8 1612.12 L1330.13 1612.12 Z" fill="#000000" fill-rule="nonzero" fill-opacity="1" /><path clip-path="url(#clip470)" d="M1352.2 1594.02 L1361.11 1593.26 Q1362.1 1599.77 1365.68 1603.07 Q1369.31 1606.32 1374.4 1606.32 Q1380.53 1606.32 1384.78 1601.7 Q1389.02 1597.08 1389.02 1589.45 Q1389.02 1582.18 1384.92 1577.99 Q1380.86 1573.79 1374.26 1573.79 Q1370.16 1573.79 1366.86 1575.68 Q1363.56 1577.52 1361.67 1580.49 L1353.71 1579.45 L1360.4 1543.95 L1394.77 1543.95 L1394.77 1552.06 L1367.19 1552.06 L1363.47 1570.63 Q1369.69 1566.3 1376.53 1566.3 Q1385.58 1566.3 1391.8 1572.57 Q1398.03 1578.84 1398.03 1588.69 Q1398.03 1598.07 1392.56 1604.91 Q1385.91 1613.3 1374.4 1613.3 Q1364.97 1613.3 1358.99 1608.02 Q1353.05 1602.74 1352.2 1594.02 Z" fill="#000000" fill-rule="nonzero" fill-opacity="1" /><path clip-path="url(#clip470)" d="M1405.9 1578.04 Q1405.9 1565.78 1408.4 1558.33 Q1410.94 1550.83 1415.89 1546.78 Q1420.89 1542.72 1428.44 1542.72 Q1434 1542.72 1438.2 1544.98 Q1442.39 1547.2 1445.13 1551.44 Q1447.86 1555.64 1449.42 1561.72 Q1450.97 1567.76 1450.97 1578.04 Q1450.97 1590.2 1448.47 1597.7 Q1445.98 1605.15 1440.98 1609.25 Q1436.03 1613.3 1428.44 1613.3 Q1418.44 1613.3 1412.74 1606.14 Q1405.9 1597.51 1405.9 1578.04 M1414.62 1578.04 Q1414.62 1595.06 1418.58 1600.71 Q1422.59 1606.32 1428.44 1606.32 Q1434.28 1606.32 1438.24 1600.67 Q1442.25 1595.01 1442.25 1578.04 Q1442.25 1560.97 1438.24 1555.36 Q1434.28 1549.75 1428.34 1549.75 Q1422.5 1549.75 1419.01 1554.7 Q1414.62 1561.01 1414.62 1578.04 Z" fill="#000000" fill-rule="nonzero" fill-opacity="1" /><path clip-path="url(#clip470)" d="M1742.79 1578.04 Q1742.79 1565.78 1745.29 1558.33 Q1747.84 1550.83 1752.79 1546.78 Q1757.79 1542.72 1765.33 1542.72 Q1770.89 1542.72 1775.09 1544.98 Q1779.29 1547.2 1782.02 1551.44 Q1784.75 1555.64 1786.31 1561.72 Q1787.87 1567.76 1787.87 1578.04 Q1787.87 1590.2 1785.37 1597.7 Q1782.87 1605.15 1777.87 1609.25 Q1772.92 1613.3 1765.33 1613.3 Q1755.33 1613.3 1749.63 1606.14 Q1742.79 1597.51 1742.79 1578.04 M1751.51 1578.04 Q1751.51 1595.06 1755.47 1600.71 Q1759.48 1606.32 1765.33 1606.32 Q1771.18 1606.32 1775.14 1600.67 Q1779.14 1595.01 1779.14 1578.04 Q1779.14 1560.97 1775.14 1555.36 Q1771.18 1549.75 1765.23 1549.75 Q1759.39 1549.75 1755.9 1554.7 Q1751.51 1561.01 1751.51 1578.04 Z" fill="#000000" fill-rule="nonzero" fill-opacity="1" /><path clip-path="url(#clip470)" d="M1801.26 1612.12 L1801.26 1602.46 L1810.92 1602.46 L1810.92 1612.12 L1801.26 1612.12 Z" fill="#000000" fill-rule="nonzero" fill-opacity="1" /><path clip-path="url(#clip470)" d="M1823.89 1552.06 L1823.89 1543.9 L1868.63 1543.9 L1868.63 1550.5 Q1862.03 1557.53 1855.52 1569.17 Q1849.07 1580.82 1845.53 1593.12 Q1842.98 1601.8 1842.28 1612.12 L1833.55 1612.12 Q1833.69 1603.97 1836.76 1592.42 Q1839.82 1580.86 1845.53 1570.16 Q1851.28 1559.41 1857.74 1552.06 L1823.89 1552.06 Z" fill="#000000" fill-rule="nonzero" fill-opacity="1" /><path clip-path="url(#clip470)" d="M1877.02 1594.02 L1885.94 1593.26 Q1886.93 1599.77 1890.51 1603.07 Q1894.14 1606.32 1899.23 1606.32 Q1905.36 1606.32 1909.6 1601.7 Q1913.85 1597.08 1913.85 1589.45 Q1913.85 1582.18 1909.75 1577.99 Q1905.69 1573.79 1899.09 1573.79 Q1894.99 1573.79 1891.69 1575.68 Q1888.39 1577.52 1886.5 1580.49 L1878.53 1579.45 L1885.23 1543.95 L1919.6 1543.95 L1919.6 1552.06 L1892.02 1552.06 L1888.29 1570.63 Q1894.52 1566.3 1901.35 1566.3 Q1910.41 1566.3 1916.63 1572.57 Q1922.85 1578.84 1922.85 1588.69 Q1922.85 1598.07 1917.38 1604.91 Q1910.74 1613.3 1899.23 1613.3 Q1889.8 1613.3 1883.81 1608.02 Q1877.87 1602.74 1877.02 1594.02 Z" fill="#000000" fill-rule="nonzero" fill-opacity="1" /><path clip-path="url(#clip470)" d="M2243.39 1612.12 L2234.9 1612.12 L2234.9 1558.04 Q2231.83 1560.97 2226.84 1563.89 Q2221.89 1566.81 2217.92 1568.28 L2217.92 1560.07 Q2225.04 1556.72 2230.37 1551.96 Q2235.7 1547.2 2237.92 1542.72 L2243.39 1542.72 L2243.39 1612.12 Z" fill="#000000" fill-rule="nonzero" fill-opacity="1" /><path clip-path="url(#clip470)" d="M2269.88 1612.12 L2269.88 1602.46 L2279.55 1602.46 L2279.55 1612.12 L2269.88 1612.12 Z" fill="#000000" fill-rule="nonzero" fill-opacity="1" /><path clip-path="url(#clip470)" d="M2291.95 1578.04 Q2291.95 1565.78 2294.45 1558.33 Q2296.99 1550.83 2301.94 1546.78 Q2306.94 1542.72 2314.49 1542.72 Q2320.05 1542.72 2324.25 1544.98 Q2328.44 1547.2 2331.18 1551.44 Q2333.91 1555.64 2335.47 1561.72 Q2337.02 1567.76 2337.02 1578.04 Q2337.02 1590.2 2334.52 1597.7 Q2332.02 1605.15 2327.03 1609.25 Q2322.08 1613.3 2314.49 1613.3 Q2304.49 1613.3 2298.78 1606.14 Q2291.95 1597.51 2291.95 1578.04 M2300.67 1578.04 Q2300.67 1595.06 2304.63 1600.71 Q2308.64 1606.32 2314.49 1606.32 Q2320.33 1606.32 2324.29 1600.67 Q2328.3 1595.01 2328.3 1578.04 Q2328.3 1560.97 2324.29 1555.36 Q2320.33 1549.75 2314.39 1549.75 Q2308.54 1549.75 2305.06 1554.7 Q2300.67 1561.01 2300.67 1578.04 Z" fill="#000000" fill-rule="nonzero" fill-opacity="1" /><path clip-path="url(#clip470)" d="M2345.65 1578.04 Q2345.65 1565.78 2348.15 1558.33 Q2350.7 1550.83 2355.65 1546.78 Q2360.64 1542.72 2368.19 1542.72 Q2373.75 1542.72 2377.95 1544.98 Q2382.14 1547.2 2384.88 1551.44 Q2387.61 1555.64 2389.17 1561.72 Q2390.72 1567.76 2390.72 1578.04 Q2390.72 1590.2 2388.23 1597.7 Q2385.73 1605.15 2380.73 1609.25 Q2375.78 1613.3 2368.19 1613.3 Q2358.19 1613.3 2352.49 1606.14 Q2345.65 1597.51 2345.65 1578.04 M2354.37 1578.04 Q2354.37 1595.06 2358.33 1600.71 Q2362.34 1606.32 2368.19 1606.32 Q2374.03 1606.32 2377.99 1600.67 Q2382 1595.01 2382 1578.04 Q2382 1560.97 2377.99 1555.36 Q2374.03 1549.75 2368.09 1549.75 Q2362.25 1549.75 2358.76 1554.7 Q2354.37 1561.01 2354.37 1578.04 Z" fill="#000000" fill-rule="nonzero" fill-opacity="1" /><path clip-path="url(#clip470)" d="M1310.72 1700.96 L1310.72 1697.64 Q1319.15 1697.64 1324.53 1691.15 Q1324.53 1691.15 1334.65 1678.3 L1323.95 1664.38 Q1320.15 1659.53 1318.47 1658.69 Q1316.83 1657.8 1311.25 1657.8 L1311.25 1654.42 Q1315.67 1654.74 1321.47 1654.74 Q1324.69 1654.74 1333.17 1654.42 L1333.17 1657.8 Q1329.38 1658.01 1329.38 1660.48 Q1329.38 1661.33 1330.32 1662.43 L1338.76 1673.34 L1345.45 1664.91 Q1347.08 1662.96 1347.08 1661.12 Q1347.08 1658.11 1343.92 1657.8 L1343.92 1654.42 Q1348.14 1654.74 1354.3 1654.74 Q1358.94 1654.74 1363.16 1654.42 L1363.16 1657.8 Q1354.94 1658.01 1350.3 1663.38 Q1348.24 1665.65 1340.39 1675.61 L1354.83 1694.26 Q1356.57 1696.53 1358.52 1697.11 Q1360.47 1697.64 1365.11 1697.64 L1365.11 1700.96 Q1360.26 1700.64 1354.73 1700.64 Q1352.78 1700.64 1343.08 1700.96 L1343.08 1697.64 Q1345.03 1697.53 1345.98 1696.69 Q1346.98 1695.79 1346.98 1694.9 Q1346.98 1694.48 1344.71 1691.37 L1336.49 1680.56 Q1328.27 1690.26 1327.22 1692.53 Q1326.79 1693.47 1326.79 1694.26 Q1326.79 1697.16 1329.9 1697.64 L1329.9 1700.96 Q1322.16 1700.64 1319.68 1700.64 Q1314.94 1700.64 1310.72 1700.96 Z" fill="#000000" fill-rule="nonzero" fill-opacity="1" /><path clip-path="url(#clip470)" d="M1376.1 1687.73 L1376.1 1685.37 Q1385.17 1685.37 1389.86 1680.54 Q1391.15 1680.54 1391.37 1680.83 Q1391.59 1681.13 1391.59 1682.49 L1391.59 1724.88 Q1391.59 1727.13 1392.7 1727.83 Q1393.81 1728.53 1398.64 1728.53 L1401.04 1728.53 L1401.04 1730.86 Q1398.38 1730.63 1388.79 1730.63 Q1379.2 1730.63 1376.58 1730.86 L1376.58 1728.53 L1378.98 1728.53 Q1383.74 1728.53 1384.88 1727.87 Q1386.02 1727.17 1386.02 1724.88 L1386.02 1685.74 Q1382.08 1687.73 1376.1 1687.73 Z" fill="#000000" fill-rule="nonzero" fill-opacity="1" /><polyline clip-path="url(#clip470)" style="stroke:#000000; stroke-linecap:round; stroke-linejoin:round; stroke-width:4; stroke-opacity:1; fill:none" points="370.281,1506.52 370.281,47.2441 "/>
<polyline clip-path="url(#clip470)" style="stroke:#000000; stroke-linecap:round; stroke-linejoin:round; stroke-width:2; stroke-opacity:0.5; fill:none" points="2352.76,1506.52 2352.76,47.2441 "/>
<polyline clip-path="url(#clip470)" style="stroke:#000000; stroke-linecap:round; stroke-linejoin:round; stroke-width:4; stroke-opacity:1; fill:none" points="370.281,1477.78 389.179,1477.78 "/>
<polyline clip-path="url(#clip470)" style="stroke:#000000; stroke-linecap:round; stroke-linejoin:round; stroke-width:4; stroke-opacity:1; fill:none" points="370.281,1122.63 389.179,1122.63 "/>
<polyline clip-path="url(#clip470)" style="stroke:#000000; stroke-linecap:round; stroke-linejoin:round; stroke-width:4; stroke-opacity:1; fill:none" points="370.281,767.48 389.179,767.48 "/>
<polyline clip-path="url(#clip470)" style="stroke:#000000; stroke-linecap:round; stroke-linejoin:round; stroke-width:4; stroke-opacity:1; fill:none" points="370.281,412.332 389.179,412.332 "/>
<polyline clip-path="url(#clip470)" style="stroke:#000000; stroke-linecap:round; stroke-linejoin:round; stroke-width:4; stroke-opacity:1; fill:none" points="370.281,57.183 389.179,57.183 "/>
<path clip-path="url(#clip470)" d="M154.975 1478.25 Q154.975 1465.99 157.473 1458.54 Q160.019 1451.04 164.97 1446.99 Q169.968 1442.93 177.512 1442.93 Q183.075 1442.93 187.271 1445.2 Q191.468 1447.41 194.202 1451.66 Q196.937 1455.85 198.493 1461.94 Q200.049 1467.97 200.049 1478.25 Q200.049 1490.41 197.55 1497.91 Q195.051 1505.36 190.053 1509.46 Q185.103 1513.52 177.512 1513.52 Q167.516 1513.52 161.811 1506.35 Q154.975 1497.72 154.975 1478.25 M163.697 1478.25 Q163.697 1495.27 167.658 1500.93 Q171.665 1506.54 177.512 1506.54 Q183.358 1506.54 187.319 1500.88 Q191.326 1495.22 191.326 1478.25 Q191.326 1461.18 187.319 1455.57 Q183.358 1449.96 177.417 1449.96 Q171.571 1449.96 168.082 1454.91 Q163.697 1461.23 163.697 1478.25 Z" fill="#000000" fill-rule="nonzero" fill-opacity="1" /><path clip-path="url(#clip470)" d="M213.439 1512.34 L213.439 1502.67 L223.104 1502.67 L223.104 1512.34 L213.439 1512.34 Z" fill="#000000" fill-rule="nonzero" fill-opacity="1" /><path clip-path="url(#clip470)" d="M235.505 1478.25 Q235.505 1465.99 238.003 1458.54 Q240.549 1451.04 245.5 1446.99 Q250.498 1442.93 258.042 1442.93 Q263.605 1442.93 267.801 1445.2 Q271.998 1447.41 274.732 1451.66 Q277.467 1455.85 279.023 1461.94 Q280.579 1467.97 280.579 1478.25 Q280.579 1490.41 278.08 1497.91 Q275.581 1505.36 270.583 1509.46 Q265.633 1513.52 258.042 1513.52 Q248.046 1513.52 242.341 1506.35 Q235.505 1497.72 235.505 1478.25 M244.227 1478.25 Q244.227 1495.27 248.188 1500.93 Q252.195 1506.54 258.042 1506.54 Q263.888 1506.54 267.849 1500.88 Q271.856 1495.22 271.856 1478.25 Q271.856 1461.18 267.849 1455.57 Q263.888 1449.96 257.947 1449.96 Q252.101 1449.96 248.612 1454.91 Q244.227 1461.23 244.227 1478.25 Z" fill="#000000" fill-rule="nonzero" fill-opacity="1" /><path clip-path="url(#clip470)" d="M289.207 1478.25 Q289.207 1465.99 291.706 1458.54 Q294.252 1451.04 299.202 1446.99 Q304.2 1442.93 311.744 1442.93 Q317.308 1442.93 321.504 1445.2 Q325.7 1447.41 328.435 1451.66 Q331.169 1455.85 332.725 1461.94 Q334.281 1467.97 334.281 1478.25 Q334.281 1490.41 331.782 1497.91 Q329.283 1505.36 324.286 1509.46 Q319.335 1513.52 311.744 1513.52 Q301.748 1513.52 296.043 1506.35 Q289.207 1497.72 289.207 1478.25 M297.929 1478.25 Q297.929 1495.27 301.89 1500.93 Q305.898 1506.54 311.744 1506.54 Q317.59 1506.54 321.551 1500.88 Q325.559 1495.22 325.559 1478.25 Q325.559 1461.18 321.551 1455.57 Q317.59 1449.96 311.65 1449.96 Q305.803 1449.96 302.314 1454.91 Q297.929 1461.23 297.929 1478.25 Z" fill="#000000" fill-rule="nonzero" fill-opacity="1" /><path clip-path="url(#clip470)" d="M154.22 1123.1 Q154.22 1110.84 156.719 1103.39 Q159.265 1095.9 164.216 1091.84 Q169.213 1087.79 176.757 1087.79 Q182.321 1087.79 186.517 1090.05 Q190.713 1092.27 193.448 1096.51 Q196.183 1100.7 197.738 1106.79 Q199.294 1112.82 199.294 1123.1 Q199.294 1135.26 196.795 1142.76 Q194.297 1150.21 189.299 1154.31 Q184.348 1158.37 176.757 1158.37 Q166.762 1158.37 161.057 1151.2 Q154.22 1142.57 154.22 1123.1 M162.943 1123.1 Q162.943 1140.12 166.903 1145.78 Q170.911 1151.39 176.757 1151.39 Q182.604 1151.39 186.564 1145.73 Q190.572 1140.07 190.572 1123.1 Q190.572 1106.03 186.564 1100.42 Q182.604 1094.81 176.663 1094.81 Q170.817 1094.81 167.327 1099.76 Q162.943 1106.08 162.943 1123.1 Z" fill="#000000" fill-rule="nonzero" fill-opacity="1" /><path clip-path="url(#clip470)" d="M212.685 1157.19 L212.685 1147.52 L222.35 1147.52 L222.35 1157.19 L212.685 1157.19 Z" fill="#000000" fill-rule="nonzero" fill-opacity="1" /><path clip-path="url(#clip470)" d="M279.353 1149.03 L279.353 1157.19 L233.666 1157.19 Q233.571 1154.12 234.656 1151.3 Q236.4 1146.63 240.219 1142.1 Q244.086 1137.58 251.346 1131.63 Q262.615 1122.39 266.576 1117.02 Q270.536 1111.6 270.536 1106.79 Q270.536 1101.74 266.906 1098.3 Q263.322 1094.81 257.523 1094.81 Q251.394 1094.81 247.716 1098.49 Q244.038 1102.17 243.991 1108.67 L235.269 1107.78 Q236.165 1098.02 242.011 1092.93 Q247.857 1087.79 257.712 1087.79 Q267.66 1087.79 273.459 1093.3 Q279.259 1098.82 279.259 1106.98 Q279.259 1111.12 277.561 1115.13 Q275.864 1119.14 271.903 1123.57 Q267.99 1128 258.843 1135.74 Q251.205 1142.15 249.036 1144.46 Q246.867 1146.72 245.453 1149.03 L279.353 1149.03 Z" fill="#000000" fill-rule="nonzero" fill-opacity="1" /><path clip-path="url(#clip470)" d="M288.453 1139.08 L297.364 1138.33 Q298.354 1144.84 301.937 1148.14 Q305.567 1151.39 310.66 1151.39 Q316.789 1151.39 321.032 1146.77 Q325.276 1142.15 325.276 1134.51 Q325.276 1127.25 321.174 1123.05 Q317.119 1118.86 310.518 1118.86 Q306.416 1118.86 303.116 1120.74 Q299.815 1122.58 297.929 1125.55 L289.961 1124.51 L296.656 1089.01 L331.028 1089.01 L331.028 1097.12 L303.446 1097.12 L299.721 1115.7 Q305.945 1111.36 312.781 1111.36 Q321.834 1111.36 328.057 1117.63 Q334.281 1123.9 334.281 1133.76 Q334.281 1143.14 328.812 1149.98 Q322.164 1158.37 310.66 1158.37 Q301.23 1158.37 295.242 1153.09 Q289.301 1147.81 288.453 1139.08 Z" fill="#000000" fill-rule="nonzero" fill-opacity="1" /><path clip-path="url(#clip470)" d="M154.975 767.952 Q154.975 755.693 157.473 748.244 Q160.019 740.747 164.97 736.692 Q169.968 732.637 177.512 732.637 Q183.075 732.637 187.271 734.9 Q191.468 737.116 194.202 741.36 Q196.937 745.556 198.493 751.638 Q200.049 757.673 200.049 767.952 Q200.049 780.116 197.55 787.613 Q195.051 795.062 190.053 799.164 Q185.103 803.219 177.512 803.219 Q167.516 803.219 161.811 796.052 Q154.975 787.424 154.975 767.952 M163.697 767.952 Q163.697 784.972 167.658 790.63 Q171.665 796.241 177.512 796.241 Q183.358 796.241 187.319 790.583 Q191.326 784.925 191.326 767.952 Q191.326 750.884 187.319 745.273 Q183.358 739.663 177.417 739.663 Q171.571 739.663 168.082 744.613 Q163.697 750.931 163.697 767.952 Z" fill="#000000" fill-rule="nonzero" fill-opacity="1" /><path clip-path="url(#clip470)" d="M213.439 802.04 L213.439 792.375 L223.104 792.375 L223.104 802.04 L213.439 802.04 Z" fill="#000000" fill-rule="nonzero" fill-opacity="1" /><path clip-path="url(#clip470)" d="M235.505 783.935 L244.416 783.181 Q245.406 789.687 248.989 792.988 Q252.62 796.241 257.712 796.241 Q263.841 796.241 268.084 791.62 Q272.328 787 272.328 779.362 Q272.328 772.101 268.226 767.905 Q264.171 763.708 257.57 763.708 Q253.468 763.708 250.168 765.594 Q246.867 767.433 244.981 770.403 L237.013 769.366 L243.708 733.863 L278.08 733.863 L278.08 741.973 L250.498 741.973 L246.773 760.549 Q252.997 756.212 259.833 756.212 Q268.886 756.212 275.109 762.482 Q281.333 768.753 281.333 778.607 Q281.333 787.99 275.864 794.826 Q269.216 803.219 257.712 803.219 Q248.282 803.219 242.294 797.938 Q236.353 792.658 235.505 783.935 Z" fill="#000000" fill-rule="nonzero" fill-opacity="1" /><path clip-path="url(#clip470)" d="M289.207 767.952 Q289.207 755.693 291.706 748.244 Q294.252 740.747 299.202 736.692 Q304.2 732.637 311.744 732.637 Q317.308 732.637 321.504 734.9 Q325.7 737.116 328.435 741.36 Q331.169 745.556 332.725 751.638 Q334.281 757.673 334.281 767.952 Q334.281 780.116 331.782 787.613 Q329.283 795.062 324.286 799.164 Q319.335 803.219 311.744 803.219 Q301.748 803.219 296.043 796.052 Q289.207 787.424 289.207 767.952 M297.929 767.952 Q297.929 784.972 301.89 790.63 Q305.898 796.241 311.744 796.241 Q317.59 796.241 321.551 790.583 Q325.559 784.925 325.559 767.952 Q325.559 750.884 321.551 745.273 Q317.59 739.663 311.65 739.663 Q305.803 739.663 302.314 744.613 Q297.929 750.931 297.929 767.952 Z" fill="#000000" fill-rule="nonzero" fill-opacity="1" /><path clip-path="url(#clip470)" d="M154.22 412.803 Q154.22 400.544 156.719 393.095 Q159.265 385.598 164.216 381.544 Q169.213 377.489 176.757 377.489 Q182.321 377.489 186.517 379.752 Q190.713 381.968 193.448 386.211 Q196.183 390.407 197.738 396.49 Q199.294 402.525 199.294 412.803 Q199.294 424.967 196.795 432.464 Q194.297 439.914 189.299 444.016 Q184.348 448.07 176.757 448.07 Q166.762 448.07 161.057 440.904 Q154.22 432.276 154.22 412.803 M162.943 412.803 Q162.943 429.824 166.903 435.482 Q170.911 441.092 176.757 441.092 Q182.604 441.092 186.564 435.434 Q190.572 429.777 190.572 412.803 Q190.572 395.735 186.564 390.125 Q182.604 384.514 176.663 384.514 Q170.817 384.514 167.327 389.464 Q162.943 395.782 162.943 412.803 Z" fill="#000000" fill-rule="nonzero" fill-opacity="1" /><path clip-path="url(#clip470)" d="M212.685 446.892 L212.685 437.226 L222.35 437.226 L222.35 446.892 L212.685 446.892 Z" fill="#000000" fill-rule="nonzero" fill-opacity="1" /><path clip-path="url(#clip470)" d="M235.316 386.824 L235.316 378.667 L280.06 378.667 L280.06 385.268 Q273.459 392.293 266.953 403.939 Q260.493 415.585 256.957 427.891 Q254.411 436.566 253.704 446.892 L244.981 446.892 Q245.123 438.735 248.188 427.183 Q251.252 415.632 256.957 404.929 Q262.709 394.179 269.169 386.824 L235.316 386.824 Z" fill="#000000" fill-rule="nonzero" fill-opacity="1" /><path clip-path="url(#clip470)" d="M288.453 428.787 L297.364 428.032 Q298.354 434.539 301.937 437.839 Q305.567 441.092 310.66 441.092 Q316.789 441.092 321.032 436.472 Q325.276 431.851 325.276 424.213 Q325.276 416.952 321.174 412.756 Q317.119 408.56 310.518 408.56 Q306.416 408.56 303.116 410.446 Q299.815 412.284 297.929 415.255 L289.961 414.218 L296.656 378.715 L331.028 378.715 L331.028 386.824 L303.446 386.824 L299.721 405.401 Q305.945 401.063 312.781 401.063 Q321.834 401.063 328.057 407.334 Q334.281 413.605 334.281 423.459 Q334.281 432.841 328.812 439.678 Q322.164 448.07 310.66 448.07 Q301.23 448.07 295.242 442.79 Q289.301 437.509 288.453 428.787 Z" fill="#000000" fill-rule="nonzero" fill-opacity="1" /><path clip-path="url(#clip470)" d="M186.941 91.743 L178.455 91.743 L178.455 37.6634 Q175.39 40.5866 170.392 43.5099 Q165.442 46.4331 161.481 47.8947 L161.481 39.6908 Q168.601 36.3433 173.928 31.5812 Q179.256 26.8192 181.472 22.3401 L186.941 22.3401 L186.941 91.743 Z" fill="#000000" fill-rule="nonzero" fill-opacity="1" /><path clip-path="url(#clip470)" d="M213.439 91.743 L213.439 82.0775 L223.104 82.0775 L223.104 91.743 L213.439 91.743 Z" fill="#000000" fill-rule="nonzero" fill-opacity="1" /><path clip-path="url(#clip470)" d="M235.505 57.6545 Q235.505 45.3958 238.003 37.9463 Q240.549 30.4497 245.5 26.3949 Q250.498 22.3401 258.042 22.3401 Q263.605 22.3401 267.801 24.6032 Q271.998 26.8192 274.732 31.0626 Q277.467 35.2588 279.023 41.341 Q280.579 47.376 280.579 57.6545 Q280.579 69.8188 278.08 77.3155 Q275.581 84.765 270.583 88.8669 Q265.633 92.9217 258.042 92.9217 Q248.046 92.9217 242.341 85.7551 Q235.505 77.1269 235.505 57.6545 M244.227 57.6545 Q244.227 74.6751 248.188 80.333 Q252.195 85.9437 258.042 85.9437 Q263.888 85.9437 267.849 80.2858 Q271.856 74.628 271.856 57.6545 Q271.856 40.5866 267.849 34.9759 Q263.888 29.3652 257.947 29.3652 Q252.101 29.3652 248.612 34.3159 Q244.227 40.6338 244.227 57.6545 Z" fill="#000000" fill-rule="nonzero" fill-opacity="1" /><path clip-path="url(#clip470)" d="M289.207 57.6545 Q289.207 45.3958 291.706 37.9463 Q294.252 30.4497 299.202 26.3949 Q304.2 22.3401 311.744 22.3401 Q317.308 22.3401 321.504 24.6032 Q325.7 26.8192 328.435 31.0626 Q331.169 35.2588 332.725 41.341 Q334.281 47.376 334.281 57.6545 Q334.281 69.8188 331.782 77.3155 Q329.283 84.765 324.286 88.8669 Q319.335 92.9217 311.744 92.9217 Q301.748 92.9217 296.043 85.7551 Q289.207 77.1269 289.207 57.6545 M297.929 57.6545 Q297.929 74.6751 301.89 80.333 Q305.898 85.9437 311.744 85.9437 Q317.59 85.9437 321.551 80.2858 Q325.559 74.628 325.559 57.6545 Q325.559 40.5866 321.551 34.9759 Q317.59 29.3652 311.65 29.3652 Q305.803 29.3652 302.314 34.3159 Q297.929 40.6338 297.929 57.6545 Z" fill="#000000" fill-rule="nonzero" fill-opacity="1" /><path clip-path="url(#clip470)" d="M79.6617 830.274 L76.3415 830.274 Q76.3415 821.842 69.8594 816.467 Q69.8594 816.467 57.0004 806.348 L43.0875 817.046 Q38.2391 820.841 37.3959 822.527 Q36.4999 824.161 36.4999 829.747 L33.1271 829.747 Q33.4433 825.32 33.4433 819.523 Q33.4433 816.309 33.1271 807.824 L36.4999 807.824 Q36.7107 811.618 39.1877 811.618 Q40.0309 811.618 41.1376 810.67 L52.0466 802.238 L43.6145 795.545 Q41.6646 793.911 39.8201 793.911 Q36.8162 793.911 36.4999 797.073 L33.1271 797.073 Q33.4433 792.857 33.4433 786.691 Q33.4433 782.053 33.1271 777.837 L36.4999 777.837 Q36.7107 786.059 42.0862 790.696 Q44.3523 792.751 54.3127 800.604 L72.9687 786.164 Q75.2348 784.425 75.8145 782.475 Q76.3415 780.525 76.3415 775.887 L79.6617 775.887 Q79.3455 780.736 79.3455 786.269 Q79.3455 788.219 79.6617 797.916 L76.3415 797.916 Q76.2361 795.966 75.3929 795.018 Q74.497 794.016 73.6011 794.016 Q73.1795 794.016 70.0702 796.282 L59.2666 804.504 Q68.9635 812.725 71.2296 813.779 Q72.1782 814.201 72.9687 814.201 Q75.8672 814.201 76.3415 811.091 L79.6617 811.091 Q79.3455 818.838 79.3455 821.315 Q79.3455 826.058 79.6617 830.274 Z" fill="#000000" fill-rule="nonzero" fill-opacity="1" /><path clip-path="url(#clip470)" d="M109.56 764.895 Q108.195 764.895 107.79 764.784 Q107.384 764.637 106.757 764.046 L90.5988 749.548 Q81.6713 741.617 73.8874 741.617 Q68.8335 741.617 65.2182 744.273 Q61.603 746.892 61.603 751.725 Q61.603 755.045 63.6319 757.849 Q65.6609 760.652 69.2761 761.944 Q69.2024 761.722 69.2024 760.948 Q69.2024 759.066 70.3829 758.033 Q71.5633 756.963 73.1496 756.963 Q75.1786 756.963 76.1746 758.292 Q77.1338 759.583 77.1338 760.874 Q77.1338 761.39 77.0231 762.091 Q76.9124 762.755 75.8795 763.825 Q74.8097 764.895 72.9283 764.895 Q67.653 764.895 63.4475 760.911 Q59.242 756.89 59.242 750.766 Q59.242 743.83 63.3737 739.293 Q67.4685 734.719 73.8874 734.719 Q76.1378 734.719 78.2036 735.419 Q80.2326 736.084 81.8189 737.006 Q83.4051 737.891 85.9506 740.326 Q88.496 742.761 90.3036 744.716 Q92.1113 746.671 95.9479 751.061 L103.732 759.066 L103.732 745.454 Q103.732 738.813 103.141 738.297 Q102.072 737.559 96.4274 736.637 L96.4274 734.719 L109.56 736.858 L109.56 764.895 Z" fill="#000000" fill-rule="nonzero" fill-opacity="1" /><circle clip-path="url(#clip472)" cx="1742.93" cy="684.644" r="14.4" fill="#4477aa" fill-rule="evenodd" fill-opacity="1" stroke="#000000" stroke-opacity="1" stroke-width="3.6"/>
<circle clip-path="url(#clip472)" cx="1665.24" cy="569.405" r="14.4" fill="#4477aa" fill-rule="evenodd" fill-opacity="1" stroke="#000000" stroke-opacity="1" stroke-width="3.6"/>
<circle clip-path="url(#clip472)" cx="1624.01" cy="431.019" r="14.4" fill="#4477aa" fill-rule="evenodd" fill-opacity="1" stroke="#000000" stroke-opacity="1" stroke-width="3.6"/>
<circle clip-path="url(#clip472)" cx="2054.59" cy="562.052" r="14.4" fill="#4477aa" fill-rule="evenodd" fill-opacity="1" stroke="#000000" stroke-opacity="1" stroke-width="3.6"/>
<circle clip-path="url(#clip472)" cx="1688.28" cy="312.697" r="14.4" fill="#4477aa" fill-rule="evenodd" fill-opacity="1" stroke="#000000" stroke-opacity="1" stroke-width="3.6"/>
<circle clip-path="url(#clip472)" cx="2035.48" cy="510.351" r="14.4" fill="#4477aa" fill-rule="evenodd" fill-opacity="1" stroke="#000000" stroke-opacity="1" stroke-width="3.6"/>
<circle clip-path="url(#clip472)" cx="477.682" cy="909.965" r="14.4" fill="#4477aa" fill-rule="evenodd" fill-opacity="1" stroke="#000000" stroke-opacity="1" stroke-width="3.6"/>
<circle clip-path="url(#clip472)" cx="626.26" cy="1290.97" r="14.4" fill="#4477aa" fill-rule="evenodd" fill-opacity="1" stroke="#000000" stroke-opacity="1" stroke-width="3.6"/>
<circle clip-path="url(#clip472)" cx="1298.11" cy="1412.18" r="14.4" fill="#4477aa" fill-rule="evenodd" fill-opacity="1" stroke="#000000" stroke-opacity="1" stroke-width="3.6"/>
<circle clip-path="url(#clip472)" cx="510.466" cy="853.998" r="14.4" fill="#4477aa" fill-rule="evenodd" fill-opacity="1" stroke="#000000" stroke-opacity="1" stroke-width="3.6"/>
<circle clip-path="url(#clip472)" cx="1816.2" cy="370.487" r="14.4" fill="#4477aa" fill-rule="evenodd" fill-opacity="1" stroke="#000000" stroke-opacity="1" stroke-width="3.6"/>
<circle clip-path="url(#clip472)" cx="2108.02" cy="497.748" r="14.4" fill="#4477aa" fill-rule="evenodd" fill-opacity="1" stroke="#000000" stroke-opacity="1" stroke-width="3.6"/>
<circle clip-path="url(#clip472)" cx="1318.56" cy="911.973" r="14.4" fill="#4477aa" fill-rule="evenodd" fill-opacity="1" stroke="#000000" stroke-opacity="1" stroke-width="3.6"/>
<circle clip-path="url(#clip472)" cx="1846.61" cy="598.183" r="14.4" fill="#4477aa" fill-rule="evenodd" fill-opacity="1" stroke="#000000" stroke-opacity="1" stroke-width="3.6"/>
<circle clip-path="url(#clip472)" cx="2254.43" cy="145.893" r="14.4" fill="#4477aa" fill-rule="evenodd" fill-opacity="1" stroke="#000000" stroke-opacity="1" stroke-width="3.6"/>
<circle clip-path="url(#clip472)" cx="1203.06" cy="1139.9" r="14.4" fill="#4477aa" fill-rule="evenodd" fill-opacity="1" stroke="#000000" stroke-opacity="1" stroke-width="3.6"/>
<circle clip-path="url(#clip472)" cx="1064.55" cy="1097.24" r="14.4" fill="#4477aa" fill-rule="evenodd" fill-opacity="1" stroke="#000000" stroke-opacity="1" stroke-width="3.6"/>
<circle clip-path="url(#clip472)" cx="1448.28" cy="278.622" r="14.4" fill="#4477aa" fill-rule="evenodd" fill-opacity="1" stroke="#000000" stroke-opacity="1" stroke-width="3.6"/>
<circle clip-path="url(#clip472)" cx="1068.54" cy="1319.28" r="14.4" fill="#4477aa" fill-rule="evenodd" fill-opacity="1" stroke="#000000" stroke-opacity="1" stroke-width="3.6"/>
<circle clip-path="url(#clip472)" cx="426.389" cy="789.384" r="14.4" fill="#4477aa" fill-rule="evenodd" fill-opacity="1" stroke="#000000" stroke-opacity="1" stroke-width="3.6"/>
<circle clip-path="url(#clip472)" cx="1137.21" cy="1130.79" r="14.4" fill="#4477aa" fill-rule="evenodd" fill-opacity="1" stroke="#000000" stroke-opacity="1" stroke-width="3.6"/>
<circle clip-path="url(#clip472)" cx="1575.34" cy="528.337" r="14.4" fill="#4477aa" fill-rule="evenodd" fill-opacity="1" stroke="#000000" stroke-opacity="1" stroke-width="3.6"/>
<circle clip-path="url(#clip472)" cx="1759.78" cy="353.039" r="14.4" fill="#4477aa" fill-rule="evenodd" fill-opacity="1" stroke="#000000" stroke-opacity="1" stroke-width="3.6"/>
<circle clip-path="url(#clip472)" cx="778.293" cy="1232.48" r="14.4" fill="#4477aa" fill-rule="evenodd" fill-opacity="1" stroke="#000000" stroke-opacity="1" stroke-width="3.6"/>
<circle clip-path="url(#clip472)" cx="1168.39" cy="1028.97" r="14.4" fill="#4477aa" fill-rule="evenodd" fill-opacity="1" stroke="#000000" stroke-opacity="1" stroke-width="3.6"/>
<circle clip-path="url(#clip472)" cx="1433.41" cy="478.628" r="14.4" fill="#4477aa" fill-rule="evenodd" fill-opacity="1" stroke="#000000" stroke-opacity="1" stroke-width="3.6"/>
<circle clip-path="url(#clip472)" cx="1748.76" cy="257.706" r="14.4" fill="#4477aa" fill-rule="evenodd" fill-opacity="1" stroke="#000000" stroke-opacity="1" stroke-width="3.6"/>
<circle clip-path="url(#clip472)" cx="1280.28" cy="1052.5" r="14.4" fill="#4477aa" fill-rule="evenodd" fill-opacity="1" stroke="#000000" stroke-opacity="1" stroke-width="3.6"/>
<circle clip-path="url(#clip472)" cx="1712.49" cy="484.461" r="14.4" fill="#4477aa" fill-rule="evenodd" fill-opacity="1" stroke="#000000" stroke-opacity="1" stroke-width="3.6"/>
<circle clip-path="url(#clip472)" cx="1217.21" cy="789.212" r="14.4" fill="#4477aa" fill-rule="evenodd" fill-opacity="1" stroke="#000000" stroke-opacity="1" stroke-width="3.6"/>
<circle clip-path="url(#clip472)" cx="2038.28" cy="177.127" r="14.4" fill="#4477aa" fill-rule="evenodd" fill-opacity="1" stroke="#000000" stroke-opacity="1" stroke-width="3.6"/>
<circle clip-path="url(#clip472)" cx="1926.48" cy="138.748" r="14.4" fill="#4477aa" fill-rule="evenodd" fill-opacity="1" stroke="#000000" stroke-opacity="1" stroke-width="3.6"/>
<circle clip-path="url(#clip472)" cx="1452.6" cy="597.233" r="14.4" fill="#4477aa" fill-rule="evenodd" fill-opacity="1" stroke="#000000" stroke-opacity="1" stroke-width="3.6"/>
<circle clip-path="url(#clip472)" cx="1778.38" cy="313.954" r="14.4" fill="#4477aa" fill-rule="evenodd" fill-opacity="1" stroke="#000000" stroke-opacity="1" stroke-width="3.6"/>
<circle clip-path="url(#clip472)" cx="1084.82" cy="1383.92" r="14.4" fill="#4477aa" fill-rule="evenodd" fill-opacity="1" stroke="#000000" stroke-opacity="1" stroke-width="3.6"/>
<circle clip-path="url(#clip472)" cx="945.534" cy="1023" r="14.4" fill="#4477aa" fill-rule="evenodd" fill-opacity="1" stroke="#000000" stroke-opacity="1" stroke-width="3.6"/>
<circle clip-path="url(#clip472)" cx="641.951" cy="1186.24" r="14.4" fill="#4477aa" fill-rule="evenodd" fill-opacity="1" stroke="#000000" stroke-opacity="1" stroke-width="3.6"/>
<circle clip-path="url(#clip472)" cx="961.283" cy="971.865" r="14.4" fill="#4477aa" fill-rule="evenodd" fill-opacity="1" stroke="#000000" stroke-opacity="1" stroke-width="3.6"/>
<circle clip-path="url(#clip472)" cx="1025.44" cy="1253.44" r="14.4" fill="#4477aa" fill-rule="evenodd" fill-opacity="1" stroke="#000000" stroke-opacity="1" stroke-width="3.6"/>
<circle clip-path="url(#clip472)" cx="1081.49" cy="1355.11" r="14.4" fill="#4477aa" fill-rule="evenodd" fill-opacity="1" stroke="#000000" stroke-opacity="1" stroke-width="3.6"/>
<circle clip-path="url(#clip472)" cx="1688.17" cy="311.337" r="14.4" fill="#4477aa" fill-rule="evenodd" fill-opacity="1" stroke="#000000" stroke-opacity="1" stroke-width="3.6"/>
<circle clip-path="url(#clip472)" cx="638.132" cy="841.34" r="14.4" fill="#4477aa" fill-rule="evenodd" fill-opacity="1" stroke="#000000" stroke-opacity="1" stroke-width="3.6"/>
<circle clip-path="url(#clip472)" cx="475.245" cy="1365.08" r="14.4" fill="#4477aa" fill-rule="evenodd" fill-opacity="1" stroke="#000000" stroke-opacity="1" stroke-width="3.6"/>
<circle clip-path="url(#clip472)" cx="2086.2" cy="563.486" r="14.4" fill="#4477aa" fill-rule="evenodd" fill-opacity="1" stroke="#000000" stroke-opacity="1" stroke-width="3.6"/>
<circle clip-path="url(#clip472)" cx="909.299" cy="1025.69" r="14.4" fill="#4477aa" fill-rule="evenodd" fill-opacity="1" stroke="#000000" stroke-opacity="1" stroke-width="3.6"/>
<circle clip-path="url(#clip472)" cx="932.55" cy="1205.65" r="14.4" fill="#4477aa" fill-rule="evenodd" fill-opacity="1" stroke="#000000" stroke-opacity="1" stroke-width="3.6"/>
<circle clip-path="url(#clip472)" cx="1872.84" cy="643.009" r="14.4" fill="#4477aa" fill-rule="evenodd" fill-opacity="1" stroke="#000000" stroke-opacity="1" stroke-width="3.6"/>
<circle clip-path="url(#clip472)" cx="847.023" cy="790.189" r="14.4" fill="#4477aa" fill-rule="evenodd" fill-opacity="1" stroke="#000000" stroke-opacity="1" stroke-width="3.6"/>
<circle clip-path="url(#clip472)" cx="1848.64" cy="361.126" r="14.4" fill="#4477aa" fill-rule="evenodd" fill-opacity="1" stroke="#000000" stroke-opacity="1" stroke-width="3.6"/>
<circle clip-path="url(#clip472)" cx="2070.34" cy="585.573" r="14.4" fill="#4477aa" fill-rule="evenodd" fill-opacity="1" stroke="#000000" stroke-opacity="1" stroke-width="3.6"/>
<circle clip-path="url(#clip472)" cx="879.674" cy="1414.72" r="14.4" fill="#4477aa" fill-rule="evenodd" fill-opacity="1" stroke="#000000" stroke-opacity="1" stroke-width="3.6"/>
<circle clip-path="url(#clip472)" cx="1268.77" cy="88.5445" r="14.4" fill="#ee6677" fill-rule="evenodd" fill-opacity="1" stroke="#000000" stroke-opacity="1" stroke-width="3.6"/>
<circle clip-path="url(#clip472)" cx="1669.27" cy="1413.3" r="14.4" fill="#ee6677" fill-rule="evenodd" fill-opacity="1" stroke="#000000" stroke-opacity="1" stroke-width="3.6"/>
<circle clip-path="url(#clip472)" cx="621.75" cy="192.983" r="14.4" fill="#ee6677" fill-rule="evenodd" fill-opacity="1" stroke="#000000" stroke-opacity="1" stroke-width="3.6"/>
<circle clip-path="url(#clip472)" cx="1449.16" cy="855.954" r="14.4" fill="#ee6677" fill-rule="evenodd" fill-opacity="1" stroke="#000000" stroke-opacity="1" stroke-width="3.6"/>
<circle clip-path="url(#clip472)" cx="631.498" cy="301.334" r="14.4" fill="#ee6677" fill-rule="evenodd" fill-opacity="1" stroke="#000000" stroke-opacity="1" stroke-width="3.6"/>
<circle clip-path="url(#clip472)" cx="1550.3" cy="1465.22" r="14.4" fill="#ee6677" fill-rule="evenodd" fill-opacity="1" stroke="#000000" stroke-opacity="1" stroke-width="3.6"/>
<circle clip-path="url(#clip472)" cx="1571.76" cy="1262.61" r="14.4" fill="#ee6677" fill-rule="evenodd" fill-opacity="1" stroke="#000000" stroke-opacity="1" stroke-width="3.6"/>
<circle clip-path="url(#clip472)" cx="2224.18" cy="1067.87" r="14.4" fill="#ee6677" fill-rule="evenodd" fill-opacity="1" stroke="#000000" stroke-opacity="1" stroke-width="3.6"/>
<circle clip-path="url(#clip472)" cx="826.85" cy="480.954" r="14.4" fill="#ee6677" fill-rule="evenodd" fill-opacity="1" stroke="#000000" stroke-opacity="1" stroke-width="3.6"/>
<circle clip-path="url(#clip472)" cx="731.072" cy="159.065" r="14.4" fill="#ee6677" fill-rule="evenodd" fill-opacity="1" stroke="#000000" stroke-opacity="1" stroke-width="3.6"/>
<circle clip-path="url(#clip472)" cx="1347.23" cy="533.504" r="14.4" fill="#ee6677" fill-rule="evenodd" fill-opacity="1" stroke="#000000" stroke-opacity="1" stroke-width="3.6"/>
<circle clip-path="url(#clip472)" cx="2059.62" cy="876.426" r="14.4" fill="#ee6677" fill-rule="evenodd" fill-opacity="1" stroke="#000000" stroke-opacity="1" stroke-width="3.6"/>
<circle clip-path="url(#clip472)" cx="1227.56" cy="374.958" r="14.4" fill="#ee6677" fill-rule="evenodd" fill-opacity="1" stroke="#000000" stroke-opacity="1" stroke-width="3.6"/>
<circle clip-path="url(#clip472)" cx="1798.8" cy="1050.37" r="14.4" fill="#ee6677" fill-rule="evenodd" fill-opacity="1" stroke="#000000" stroke-opacity="1" stroke-width="3.6"/>
<circle clip-path="url(#clip472)" cx="2064.27" cy="1316.77" r="14.4" fill="#ee6677" fill-rule="evenodd" fill-opacity="1" stroke="#000000" stroke-opacity="1" stroke-width="3.6"/>
<circle clip-path="url(#clip472)" cx="970.814" cy="457.857" r="14.4" fill="#ee6677" fill-rule="evenodd" fill-opacity="1" stroke="#000000" stroke-opacity="1" stroke-width="3.6"/>
<circle clip-path="url(#clip472)" cx="1830.09" cy="1428.78" r="14.4" fill="#ee6677" fill-rule="evenodd" fill-opacity="1" stroke="#000000" stroke-opacity="1" stroke-width="3.6"/>
<circle clip-path="url(#clip472)" cx="870.713" cy="700.02" r="14.4" fill="#ee6677" fill-rule="evenodd" fill-opacity="1" stroke="#000000" stroke-opacity="1" stroke-width="3.6"/>
<circle clip-path="url(#clip472)" cx="2258.1" cy="1084.17" r="14.4" fill="#ee6677" fill-rule="evenodd" fill-opacity="1" stroke="#000000" stroke-opacity="1" stroke-width="3.6"/>
<circle clip-path="url(#clip472)" cx="942.979" cy="214.642" r="14.4" fill="#ee6677" fill-rule="evenodd" fill-opacity="1" stroke="#000000" stroke-opacity="1" stroke-width="3.6"/>
<circle clip-path="url(#clip472)" cx="837.55" cy="111.286" r="14.4" fill="#ee6677" fill-rule="evenodd" fill-opacity="1" stroke="#000000" stroke-opacity="1" stroke-width="3.6"/>
<circle clip-path="url(#clip472)" cx="1670.37" cy="787.987" r="14.4" fill="#ee6677" fill-rule="evenodd" fill-opacity="1" stroke="#000000" stroke-opacity="1" stroke-width="3.6"/>
<circle clip-path="url(#clip472)" cx="1990.35" cy="947.754" r="14.4" fill="#ee6677" fill-rule="evenodd" fill-opacity="1" stroke="#000000" stroke-opacity="1" stroke-width="3.6"/>
<circle clip-path="url(#clip472)" cx="951.286" cy="322.536" r="14.4" fill="#ee6677" fill-rule="evenodd" fill-opacity="1" stroke="#000000" stroke-opacity="1" stroke-width="3.6"/>
<circle clip-path="url(#clip472)" cx="893.414" cy="222.025" r="14.4" fill="#ee6677" fill-rule="evenodd" fill-opacity="1" stroke="#000000" stroke-opacity="1" stroke-width="3.6"/>
<circle clip-path="url(#clip472)" cx="1000.57" cy="299.427" r="14.4" fill="#ee6677" fill-rule="evenodd" fill-opacity="1" stroke="#000000" stroke-opacity="1" stroke-width="3.6"/>
<circle clip-path="url(#clip472)" cx="885.657" cy="346.063" r="14.4" fill="#ee6677" fill-rule="evenodd" fill-opacity="1" stroke="#000000" stroke-opacity="1" stroke-width="3.6"/>
<circle clip-path="url(#clip472)" cx="857.345" cy="562.876" r="14.4" fill="#ee6677" fill-rule="evenodd" fill-opacity="1" stroke="#000000" stroke-opacity="1" stroke-width="3.6"/>
<circle clip-path="url(#clip472)" cx="1354.48" cy="465.522" r="14.4" fill="#ee6677" fill-rule="evenodd" fill-opacity="1" stroke="#000000" stroke-opacity="1" stroke-width="3.6"/>
<circle clip-path="url(#clip472)" cx="1247.41" cy="639.376" r="14.4" fill="#ee6677" fill-rule="evenodd" fill-opacity="1" stroke="#000000" stroke-opacity="1" stroke-width="3.6"/>
<circle clip-path="url(#clip472)" cx="1516.59" cy="1358.17" r="14.4" fill="#ee6677" fill-rule="evenodd" fill-opacity="1" stroke="#000000" stroke-opacity="1" stroke-width="3.6"/>
<circle clip-path="url(#clip472)" cx="999.428" cy="281.317" r="14.4" fill="#ee6677" fill-rule="evenodd" fill-opacity="1" stroke="#000000" stroke-opacity="1" stroke-width="3.6"/>
<circle clip-path="url(#clip472)" cx="1457.81" cy="889.95" r="14.4" fill="#ee6677" fill-rule="evenodd" fill-opacity="1" stroke="#000000" stroke-opacity="1" stroke-width="3.6"/>
<circle clip-path="url(#clip472)" cx="2213.09" cy="1330.09" r="14.4" fill="#ee6677" fill-rule="evenodd" fill-opacity="1" stroke="#000000" stroke-opacity="1" stroke-width="3.6"/>
<circle clip-path="url(#clip472)" cx="1995.81" cy="1190.35" r="14.4" fill="#ee6677" fill-rule="evenodd" fill-opacity="1" stroke="#000000" stroke-opacity="1" stroke-width="3.6"/>
<circle clip-path="url(#clip472)" cx="1874.82" cy="824.366" r="14.4" fill="#ee6677" fill-rule="evenodd" fill-opacity="1" stroke="#000000" stroke-opacity="1" stroke-width="3.6"/>
<circle clip-path="url(#clip472)" cx="920.852" cy="185.317" r="14.4" fill="#ee6677" fill-rule="evenodd" fill-opacity="1" stroke="#000000" stroke-opacity="1" stroke-width="3.6"/>
<circle clip-path="url(#clip472)" cx="530.52" cy="146.781" r="14.4" fill="#ee6677" fill-rule="evenodd" fill-opacity="1" stroke="#000000" stroke-opacity="1" stroke-width="3.6"/>
<circle clip-path="url(#clip472)" cx="1407.79" cy="1278.48" r="14.4" fill="#ee6677" fill-rule="evenodd" fill-opacity="1" stroke="#000000" stroke-opacity="1" stroke-width="3.6"/>
<circle clip-path="url(#clip472)" cx="640.514" cy="186.312" r="14.4" fill="#ee6677" fill-rule="evenodd" fill-opacity="1" stroke="#000000" stroke-opacity="1" stroke-width="3.6"/>
<circle clip-path="url(#clip472)" cx="1240.41" cy="702.213" r="14.4" fill="#ee6677" fill-rule="evenodd" fill-opacity="1" stroke="#000000" stroke-opacity="1" stroke-width="3.6"/>
<circle clip-path="url(#clip472)" cx="1968.35" cy="837.54" r="14.4" fill="#ee6677" fill-rule="evenodd" fill-opacity="1" stroke="#000000" stroke-opacity="1" stroke-width="3.6"/>
<circle clip-path="url(#clip472)" cx="2253.76" cy="767.842" r="14.4" fill="#ee6677" fill-rule="evenodd" fill-opacity="1" stroke="#000000" stroke-opacity="1" stroke-width="3.6"/>
<circle clip-path="url(#clip472)" cx="1689.4" cy="1103.48" r="14.4" fill="#ee6677" fill-rule="evenodd" fill-opacity="1" stroke="#000000" stroke-opacity="1" stroke-width="3.6"/>
<circle clip-path="url(#clip472)" cx="545.289" cy="695.256" r="14.4" fill="#ee6677" fill-rule="evenodd" fill-opacity="1" stroke="#000000" stroke-opacity="1" stroke-width="3.6"/>
<circle clip-path="url(#clip472)" cx="2245.17" cy="836.43" r="14.4" fill="#ee6677" fill-rule="evenodd" fill-opacity="1" stroke="#000000" stroke-opacity="1" stroke-width="3.6"/>
<circle clip-path="url(#clip472)" cx="822.926" cy="263.151" r="14.4" fill="#ee6677" fill-rule="evenodd" fill-opacity="1" stroke="#000000" stroke-opacity="1" stroke-width="3.6"/>
<circle clip-path="url(#clip472)" cx="1282.36" cy="471.514" r="14.4" fill="#ee6677" fill-rule="evenodd" fill-opacity="1" stroke="#000000" stroke-opacity="1" stroke-width="3.6"/>
<circle clip-path="url(#clip472)" cx="628.169" cy="586.721" r="14.4" fill="#ee6677" fill-rule="evenodd" fill-opacity="1" stroke="#000000" stroke-opacity="1" stroke-width="3.6"/>
<circle clip-path="url(#clip472)" cx="2296.65" cy="1075.47" r="14.4" fill="#ee6677" fill-rule="evenodd" fill-opacity="1" stroke="#000000" stroke-opacity="1" stroke-width="3.6"/>
<path clip-path="url(#clip470)" d="M1947.12 1457.88 L2286.67 1457.88 L2286.67 1107.96 L1947.12 1107.96  Z" fill="#ffffff" fill-rule="evenodd" fill-opacity="1"/>
<polyline clip-path="url(#clip470)" style="stroke:#000000; stroke-linecap:round; stroke-linejoin:round; stroke-width:4; stroke-opacity:1; fill:none" points="1947.12,1457.88 2286.67,1457.88 2286.67,1107.96 1947.12,1107.96 1947.12,1457.88 "/>
<circle clip-path="url(#clip470)" cx="2035.23" cy="1224.6" r="46.08" fill="#4477aa" fill-rule="evenodd" fill-opacity="1" stroke="#000000" stroke-opacity="1" stroke-width="11.52"/>
<path clip-path="url(#clip470)" d="M2123.34 1225.13 Q2123.34 1211.34 2126.15 1202.96 Q2129.02 1194.53 2134.59 1189.96 Q2140.21 1185.4 2148.7 1185.4 Q2154.95 1185.4 2159.68 1187.95 Q2164.4 1190.44 2167.47 1195.22 Q2170.55 1199.94 2172.3 1206.78 Q2174.05 1213.57 2174.05 1225.13 Q2174.05 1238.82 2171.24 1247.25 Q2168.43 1255.63 2162.8 1260.25 Q2157.24 1264.81 2148.7 1264.81 Q2137.45 1264.81 2131.03 1256.74 Q2123.34 1247.04 2123.34 1225.13 M2133.15 1225.13 Q2133.15 1244.28 2137.61 1250.64 Q2142.12 1256.96 2148.7 1256.96 Q2155.27 1256.96 2159.73 1250.59 Q2164.24 1244.23 2164.24 1225.13 Q2164.24 1205.93 2159.73 1199.62 Q2155.27 1193.31 2148.59 1193.31 Q2142.01 1193.31 2138.09 1198.88 Q2133.15 1205.98 2133.15 1225.13 Z" fill="#000000" fill-rule="nonzero" fill-opacity="1" /><path clip-path="url(#clip470)" d="M2189.11 1263.48 L2189.11 1252.61 L2199.99 1252.61 L2199.99 1263.48 L2189.11 1263.48 Z" fill="#000000" fill-rule="nonzero" fill-opacity="1" /><path clip-path="url(#clip470)" d="M2213.94 1225.13 Q2213.94 1211.34 2216.75 1202.96 Q2219.61 1194.53 2225.18 1189.96 Q2230.8 1185.4 2239.29 1185.4 Q2245.55 1185.4 2250.27 1187.95 Q2254.99 1190.44 2258.07 1195.22 Q2261.15 1199.94 2262.9 1206.78 Q2264.65 1213.57 2264.65 1225.13 Q2264.65 1238.82 2261.83 1247.25 Q2259.02 1255.63 2253.4 1260.25 Q2247.83 1264.81 2239.29 1264.81 Q2228.05 1264.81 2221.63 1256.74 Q2213.94 1247.04 2213.94 1225.13 M2223.75 1225.13 Q2223.75 1244.28 2228.21 1250.64 Q2232.71 1256.96 2239.29 1256.96 Q2245.87 1256.96 2250.32 1250.59 Q2254.83 1244.23 2254.83 1225.13 Q2254.83 1205.93 2250.32 1199.62 Q2245.87 1193.31 2239.19 1193.31 Q2232.61 1193.31 2228.68 1198.88 Q2223.75 1205.98 2223.75 1225.13 Z" fill="#000000" fill-rule="nonzero" fill-opacity="1" /><circle clip-path="url(#clip470)" cx="2035.23" cy="1341.24" r="46.08" fill="#ee6677" fill-rule="evenodd" fill-opacity="1" stroke="#000000" stroke-opacity="1" stroke-width="11.52"/>
<path clip-path="url(#clip470)" d="M2151.98 1380.12 L2142.44 1380.12 L2142.44 1319.28 Q2138.99 1322.57 2133.37 1325.86 Q2127.8 1329.15 2123.34 1330.79 L2123.34 1321.56 Q2131.35 1317.8 2137.34 1312.44 Q2143.34 1307.08 2145.83 1302.04 L2151.98 1302.04 L2151.98 1380.12 Z" fill="#000000" fill-rule="nonzero" fill-opacity="1" /><path clip-path="url(#clip470)" d="M2181.79 1380.12 L2181.79 1369.25 L2192.67 1369.25 L2192.67 1380.12 L2181.79 1380.12 Z" fill="#000000" fill-rule="nonzero" fill-opacity="1" /><path clip-path="url(#clip470)" d="M2206.62 1341.77 Q2206.62 1327.98 2209.43 1319.6 Q2212.29 1311.17 2217.86 1306.6 Q2223.49 1302.04 2231.97 1302.04 Q2238.23 1302.04 2242.95 1304.59 Q2247.67 1307.08 2250.75 1311.86 Q2253.83 1316.58 2255.58 1323.42 Q2257.33 1330.21 2257.33 1341.77 Q2257.33 1355.46 2254.51 1363.89 Q2251.7 1372.27 2246.08 1376.89 Q2240.51 1381.45 2231.97 1381.45 Q2220.73 1381.45 2214.31 1373.38 Q2206.62 1363.68 2206.62 1341.77 M2216.43 1341.77 Q2216.43 1360.92 2220.89 1367.28 Q2225.39 1373.6 2231.97 1373.6 Q2238.55 1373.6 2243 1367.23 Q2247.51 1360.87 2247.51 1341.77 Q2247.51 1322.57 2243 1316.26 Q2238.55 1309.95 2231.87 1309.95 Q2225.29 1309.95 2221.36 1315.52 Q2216.43 1322.62 2216.43 1341.77 Z" fill="#000000" fill-rule="nonzero" fill-opacity="1" /></svg>
