<?xml version="1.0" encoding="utf-8"?>
<svg xmlns="http://www.w3.org/2000/svg" xmlns:xlink="http://www.w3.org/1999/xlink" width="600" height="450" viewBox="0 0 2400 1800">
<defs>
  <clipPath id="clip560">
    <rect x="0" y="0" width="2400" height="1800"/>
  </clipPath>
</defs>
<path clip-path="url(#clip560)" d="M0 1800 L2400 1800 L2400 0 L0 0  Z" fill="#ffffff" fill-rule="evenodd" fill-opacity="1"/>
<defs>
  <clipPath id="clip561">
    <rect x="480" y="0" width="1681" height="1681"/>
  </clipPath>
</defs>
<path clip-path="url(#clip560)" d="M370.281 1506.52 L2352.76 1506.52 L2352.76 47.2441 L370.281 47.2441  Z" fill="#ffffff" fill-rule="evenodd" fill-opacity="1"/>
<defs>
  <clipPath id="clip562">
    <rect x="370" y="47" width="1983" height="1460"/>
  </clipPath>
</defs>
<polyline clip-path="url(#clip562)" style="stroke:#000000; stroke-linecap:round; stroke-linejoin:round; stroke-width:2; stroke-opacity:0.1; fill:none" points="634.195,1506.52 634.195,47.2441 "/>
<polyline clip-path="url(#clip562)" style="stroke:#000000; stroke-linecap:round; stroke-linejoin:round; stroke-width:2; stroke-opacity:0.1; fill:none" points="1049.81,1506.52 1049.81,47.2441 "/>
<polyline clip-path="url(#clip562)" style="stroke:#000000; stroke-linecap:round; stroke-linejoin:round; stroke-width:2; stroke-opacity:0.1; fill:none" points="1465.42,1506.52 1465.42,47.2441 "/>
<polyline clip-path="url(#clip562)" style="stroke:#000000; stroke-linecap:round; stroke-linejoin:round; stroke-width:2; stroke-opacity:0.1; fill:none" points="1881.03,1506.52 1881.03,47.2441 "/>
<polyline clip-path="url(#clip562)" style="stroke:#000000; stroke-linecap:round; stroke-linejoin:round; stroke-width:2; stroke-opacity:0.1; fill:none" points="2296.65,1506.52 2296.65,47.2441 "/>
<polyline clip-path="url(#clip562)" style="stroke:#000000; stroke-linecap:round; stroke-linejoin:round; stroke-width:2; stroke-opacity:0.1; fill:none" points="370.281,1270.49 2352.76,1270.49 "/>
<polyline clip-path="url(#clip562)" style="stroke:#000000; stroke-linecap:round; stroke-linejoin:round; stroke-width:2; stroke-opacity:0.1; fill:none" points="370.281,1000.53 2352.76,1000.53 "/>
<polyline clip-path="url(#clip562)" style="stroke:#000000; stroke-linecap:round; stroke-linejoin:round; stroke-width:2; stroke-opacity:0.1; fill:none" points="370.281,730.559 2352.76,730.559 "/>
<polyline clip-path="url(#clip562)" style="stroke:#000000; stroke-linecap:round; stroke-linejoin:round; stroke-width:2; stroke-opacity:0.1; fill:none" points="370.281,460.591 2352.76,460.591 "/>
<polyline clip-path="url(#clip562)" style="stroke:#000000; stroke-linecap:round; stroke-linejoin:round; stroke-width:2; stroke-opacity:0.1; fill:none" points="370.281,190.624 2352.76,190.624 "/>
<polyline clip-path="url(#clip560)" style="stroke:#000000; stroke-linecap:round; stroke-linejoin:round; stroke-width:4; stroke-opacity:1; fill:none" points="370.281,1506.52 2352.76,1506.52 "/>
<polyline clip-path="url(#clip560)" style="stroke:#000000; stroke-linecap:round; stroke-linejoin:round; stroke-width:2; stroke-opacity:0.5; fill:none" points="370.281,47.2441 2352.76,47.2441 "/>
<polyline clip-path="url(#clip560)" style="stroke:#000000; stroke-linecap:round; stroke-linejoin:round; stroke-width:4; stroke-opacity:1; fill:none" points="634.195,1506.52 634.195,1487.63 "/>
<polyline clip-path="url(#clip560)" style="stroke:#000000; stroke-linecap:round; stroke-linejoin:round; stroke-width:4; stroke-opacity:1; fill:none" points="1049.81,1506.52 1049.81,1487.63 "/>
<polyline clip-path="url(#clip560)" style="stroke:#000000; stroke-linecap:round; stroke-linejoin:round; stroke-width:4; stroke-opacity:1; fill:none" points="1465.42,1506.52 1465.42,1487.63 "/>
<polyline clip-path="url(#clip560)" style="stroke:#000000; stroke-linecap:round; stroke-linejoin:round; stroke-width:4; stroke-opacity:1; fill:none" points="1881.03,1506.52 1881.03,1487.63 "/>
<polyline clip-path="url(#clip560)" style="stroke:#000000; stroke-linecap:round; stroke-linejoin:round; stroke-width:4; stroke-opacity:1; fill:none" points="2296.65,1506.52 2296.65,1487.63 "/>
<path clip-path="url(#clip560)" d="M657.086 1603.97 L657.086 1612.12 L611.399 1612.12 Q611.305 1609.06 612.389 1606.23 Q614.134 1601.56 617.953 1597.04 Q621.819 1592.51 629.08 1586.57 Q640.348 1577.33 644.309 1571.95 Q648.269 1566.53 648.269 1561.72 Q648.269 1556.68 644.639 1553.24 Q641.056 1549.75 635.256 1549.75 Q629.127 1549.75 625.449 1553.42 Q621.772 1557.1 621.725 1563.61 L613.002 1562.71 Q613.898 1552.95 619.744 1547.86 Q625.591 1542.72 635.445 1542.72 Q645.393 1542.72 651.193 1548.24 Q656.992 1553.75 656.992 1561.91 Q656.992 1566.06 655.294 1570.07 Q653.597 1574.07 649.637 1578.51 Q645.723 1582.94 636.576 1590.67 Q628.938 1597.08 626.77 1599.39 Q624.601 1601.66 623.186 1603.97 L657.086 1603.97 Z" fill="#000000" fill-rule="nonzero" fill-opacity="1" /><path clip-path="url(#clip560)" d="M1055.89 1612.12 L1055.89 1595.57 L1025.9 1595.57 L1025.9 1587.8 L1057.45 1543 L1064.38 1543 L1064.38 1587.8 L1073.71 1587.8 L1073.71 1595.57 L1064.38 1595.57 L1064.38 1612.12 L1055.89 1612.12 M1055.89 1587.8 L1055.89 1556.63 L1034.25 1587.8 L1055.89 1587.8 Z" fill="#000000" fill-rule="nonzero" fill-opacity="1" /><path clip-path="url(#clip560)" d="M1487.02 1559.93 L1478.58 1560.59 Q1477.44 1555.59 1475.37 1553.33 Q1471.93 1549.7 1466.88 1549.7 Q1462.83 1549.7 1459.76 1551.96 Q1455.76 1554.89 1453.45 1560.5 Q1451.14 1566.11 1451.04 1576.48 Q1454.11 1571.81 1458.54 1569.55 Q1462.97 1567.29 1467.83 1567.29 Q1476.31 1567.29 1482.25 1573.56 Q1488.24 1579.78 1488.24 1589.68 Q1488.24 1596.19 1485.41 1601.8 Q1482.63 1607.36 1477.73 1610.33 Q1472.82 1613.3 1466.6 1613.3 Q1455.99 1613.3 1449.3 1605.52 Q1442.6 1597.7 1442.6 1579.78 Q1442.6 1559.74 1450 1550.64 Q1456.46 1542.72 1467.4 1542.72 Q1475.56 1542.72 1480.75 1547.29 Q1485.98 1551.87 1487.02 1559.93 M1452.36 1589.73 Q1452.36 1594.11 1454.2 1598.12 Q1456.09 1602.13 1459.43 1604.25 Q1462.78 1606.32 1466.46 1606.32 Q1471.83 1606.32 1475.7 1601.99 Q1479.57 1597.65 1479.57 1590.2 Q1479.57 1583.03 1475.75 1578.93 Q1471.93 1574.78 1466.13 1574.78 Q1460.38 1574.78 1456.37 1578.93 Q1452.36 1583.03 1452.36 1589.73 Z" fill="#000000" fill-rule="nonzero" fill-opacity="1" /><path clip-path="url(#clip560)" d="M1871.42 1574.64 Q1866.14 1572.71 1863.59 1569.12 Q1861.04 1565.54 1861.04 1560.54 Q1861.04 1553 1866.47 1547.86 Q1871.89 1542.72 1880.89 1542.72 Q1889.95 1542.72 1895.46 1548 Q1900.98 1553.24 1900.98 1560.78 Q1900.98 1565.59 1898.43 1569.17 Q1895.93 1572.71 1890.79 1574.64 Q1897.16 1576.72 1900.46 1581.34 Q1903.81 1585.96 1903.81 1592.37 Q1903.81 1601.23 1897.54 1607.27 Q1891.27 1613.3 1881.03 1613.3 Q1870.8 1613.3 1864.53 1607.27 Q1858.26 1601.19 1858.26 1592.13 Q1858.26 1585.39 1861.66 1580.86 Q1865.1 1576.29 1871.42 1574.64 M1869.72 1560.26 Q1869.72 1565.16 1872.88 1568.28 Q1876.04 1571.39 1881.08 1571.39 Q1885.99 1571.39 1889.1 1568.32 Q1892.26 1565.21 1892.26 1560.73 Q1892.26 1556.06 1889 1552.91 Q1885.8 1549.7 1880.99 1549.7 Q1876.13 1549.7 1872.93 1552.81 Q1869.72 1555.92 1869.72 1560.26 M1866.98 1592.18 Q1866.98 1595.81 1868.68 1599.21 Q1870.43 1602.6 1873.82 1604.49 Q1877.22 1606.32 1881.13 1606.32 Q1887.21 1606.32 1891.17 1602.41 Q1895.13 1598.5 1895.13 1592.46 Q1895.13 1586.33 1891.03 1582.33 Q1886.98 1578.32 1880.85 1578.32 Q1874.86 1578.32 1870.9 1582.28 Q1866.98 1586.24 1866.98 1592.18 Z" fill="#000000" fill-rule="nonzero" fill-opacity="1" /><path clip-path="url(#clip560)" d="M2275.97 1612.12 L2267.49 1612.12 L2267.49 1558.04 Q2264.42 1560.97 2259.42 1563.89 Q2254.47 1566.81 2250.51 1568.28 L2250.51 1560.07 Q2257.63 1556.72 2262.96 1551.96 Q2268.29 1547.2 2270.5 1542.72 L2275.97 1542.72 L2275.97 1612.12 Z" fill="#000000" fill-rule="nonzero" fill-opacity="1" /><path clip-path="url(#clip560)" d="M2297.71 1578.04 Q2297.71 1565.78 2300.21 1558.33 Q2302.75 1550.83 2307.7 1546.78 Q2312.7 1542.72 2320.25 1542.72 Q2325.81 1542.72 2330.01 1544.98 Q2334.2 1547.2 2336.94 1551.44 Q2339.67 1555.64 2341.23 1561.72 Q2342.78 1567.76 2342.78 1578.04 Q2342.78 1590.2 2340.28 1597.7 Q2337.79 1605.15 2332.79 1609.25 Q2327.84 1613.3 2320.25 1613.3 Q2310.25 1613.3 2304.55 1606.14 Q2297.71 1597.51 2297.71 1578.04 M2306.43 1578.04 Q2306.43 1595.06 2310.39 1600.71 Q2314.4 1606.32 2320.25 1606.32 Q2326.09 1606.32 2330.05 1600.67 Q2334.06 1595.01 2334.06 1578.04 Q2334.06 1560.97 2330.05 1555.36 Q2326.09 1549.75 2320.15 1549.75 Q2314.31 1549.75 2310.82 1554.7 Q2306.43 1561.01 2306.43 1578.04 Z" fill="#000000" fill-rule="nonzero" fill-opacity="1" /><path clip-path="url(#clip560)" d="M1260.95 1721.38 L1270.82 1722.6 Q1268.48 1731.24 1262.17 1736.01 Q1255.86 1740.79 1246.05 1740.79 Q1233.69 1740.79 1226.42 1733.2 Q1219.21 1725.57 1219.21 1711.83 Q1219.21 1697.61 1226.53 1689.76 Q1233.85 1681.91 1245.51 1681.91 Q1256.81 1681.91 1263.97 1689.6 Q1271.13 1697.29 1271.13 1711.24 Q1271.13 1712.09 1271.08 1713.79 L1229.07 1713.79 Q1229.6 1723.07 1234.32 1728.01 Q1239.04 1732.94 1246.1 1732.94 Q1251.35 1732.94 1255.06 1730.18 Q1258.78 1727.42 1260.95 1721.38 M1229.6 1705.94 L1261.06 1705.94 Q1260.42 1698.83 1257.45 1695.28 Q1252.89 1689.76 1245.62 1689.76 Q1239.04 1689.76 1234.54 1694.16 Q1230.08 1698.57 1229.6 1705.94 Z" fill="#000000" fill-rule="nonzero" fill-opacity="1" /><path clip-path="url(#clip560)" d="M1282.8 1761.1 L1282.8 1683.18 L1291.5 1683.18 L1291.5 1690.5 Q1294.58 1686.21 1298.45 1684.09 Q1302.32 1681.91 1307.84 1681.91 Q1315.05 1681.91 1320.57 1685.62 Q1326.09 1689.34 1328.9 1696.13 Q1331.71 1702.86 1331.71 1710.93 Q1331.71 1719.57 1328.58 1726.52 Q1325.5 1733.42 1319.56 1737.13 Q1313.67 1740.79 1307.15 1740.79 Q1302.38 1740.79 1298.56 1738.77 Q1294.79 1736.76 1292.35 1733.68 L1292.35 1761.1 L1282.8 1761.1 M1291.45 1711.67 Q1291.45 1722.54 1295.85 1727.74 Q1300.25 1732.94 1306.51 1732.94 Q1312.88 1732.94 1317.39 1727.58 Q1321.95 1722.17 1321.95 1710.87 Q1321.95 1700.11 1317.49 1694.75 Q1313.09 1689.39 1306.94 1689.39 Q1300.84 1689.39 1296.12 1695.12 Q1291.45 1700.79 1291.45 1711.67 Z" fill="#000000" fill-rule="nonzero" fill-opacity="1" /><path clip-path="url(#clip560)" d="M1339.67 1711.35 Q1339.67 1695.7 1348.36 1688.17 Q1355.63 1681.91 1366.08 1681.91 Q1377.7 1681.91 1385.07 1689.55 Q1392.44 1697.13 1392.44 1710.55 Q1392.44 1721.43 1389.15 1727.69 Q1385.92 1733.89 1379.66 1737.34 Q1373.45 1740.79 1366.08 1740.79 Q1354.25 1740.79 1346.93 1733.2 Q1339.67 1725.62 1339.67 1711.35 M1349.48 1711.35 Q1349.48 1722.17 1354.2 1727.58 Q1358.92 1732.94 1366.08 1732.94 Q1373.19 1732.94 1377.91 1727.53 Q1382.63 1722.12 1382.63 1711.03 Q1382.63 1700.58 1377.86 1695.23 Q1373.13 1689.82 1366.08 1689.82 Q1358.92 1689.82 1354.2 1695.17 Q1349.48 1700.53 1349.48 1711.35 Z" fill="#000000" fill-rule="nonzero" fill-opacity="1" /><path clip-path="url(#clip560)" d="M1440.39 1718.88 L1449.78 1720.1 Q1448.24 1729.81 1441.88 1735.33 Q1435.57 1740.79 1426.34 1740.79 Q1414.77 1740.79 1407.72 1733.26 Q1400.72 1725.67 1400.72 1711.56 Q1400.72 1702.44 1403.74 1695.6 Q1406.76 1688.75 1412.92 1685.36 Q1419.12 1681.91 1426.39 1681.91 Q1435.57 1681.91 1441.4 1686.58 Q1447.23 1691.19 1448.88 1699.73 L1439.6 1701.17 Q1438.27 1695.49 1434.88 1692.63 Q1431.53 1689.76 1426.76 1689.76 Q1419.55 1689.76 1415.04 1694.96 Q1410.53 1700.11 1410.53 1711.3 Q1410.53 1722.65 1414.88 1727.79 Q1419.23 1732.94 1426.23 1732.94 Q1431.85 1732.94 1435.62 1729.49 Q1439.38 1726.04 1440.39 1718.88 Z" fill="#000000" fill-rule="nonzero" fill-opacity="1" /><path clip-path="url(#clip560)" d="M1457.95 1739.52 L1457.95 1661.76 L1467.5 1661.76 L1467.5 1689.66 Q1474.18 1681.91 1484.36 1681.91 Q1490.62 1681.91 1495.24 1684.4 Q1499.85 1686.84 1501.82 1691.19 Q1503.83 1695.54 1503.83 1703.82 L1503.83 1739.52 L1494.28 1739.52 L1494.28 1703.82 Q1494.28 1696.66 1491.15 1693.42 Q1488.08 1690.13 1482.4 1690.13 Q1478.16 1690.13 1474.39 1692.36 Q1470.68 1694.54 1469.09 1698.3 Q1467.5 1702.07 1467.5 1708.7 L1467.5 1739.52 L1457.95 1739.52 Z" fill="#000000" fill-rule="nonzero" fill-opacity="1" /><polyline clip-path="url(#clip560)" style="stroke:#000000; stroke-linecap:round; stroke-linejoin:round; stroke-width:4; stroke-opacity:1; fill:none" points="370.281,1506.52 370.281,47.2441 "/>
<polyline clip-path="url(#clip560)" style="stroke:#000000; stroke-linecap:round; stroke-linejoin:round; stroke-width:2; stroke-opacity:0.5; fill:none" points="2352.76,1506.52 2352.76,47.2441 "/>
<polyline clip-path="url(#clip560)" style="stroke:#000000; stroke-linecap:round; stroke-linejoin:round; stroke-width:4; stroke-opacity:1; fill:none" points="370.281,1270.49 389.179,1270.49 "/>
<polyline clip-path="url(#clip560)" style="stroke:#000000; stroke-linecap:round; stroke-linejoin:round; stroke-width:4; stroke-opacity:1; fill:none" points="370.281,1000.53 389.179,1000.53 "/>
<polyline clip-path="url(#clip560)" style="stroke:#000000; stroke-linecap:round; stroke-linejoin:round; stroke-width:4; stroke-opacity:1; fill:none" points="370.281,730.559 389.179,730.559 "/>
<polyline clip-path="url(#clip560)" style="stroke:#000000; stroke-linecap:round; stroke-linejoin:round; stroke-width:4; stroke-opacity:1; fill:none" points="370.281,460.591 389.179,460.591 "/>
<polyline clip-path="url(#clip560)" style="stroke:#000000; stroke-linecap:round; stroke-linejoin:round; stroke-width:4; stroke-opacity:1; fill:none" points="370.281,190.624 389.179,190.624 "/>
<path clip-path="url(#clip560)" d="M154.975 1270.96 Q154.975 1258.71 157.473 1251.26 Q160.019 1243.76 164.97 1239.71 Q169.968 1235.65 177.512 1235.65 Q183.075 1235.65 187.271 1237.91 Q191.468 1240.13 194.202 1244.37 Q196.937 1248.57 198.493 1254.65 Q200.049 1260.69 200.049 1270.96 Q200.049 1283.13 197.55 1290.63 Q195.051 1298.08 190.053 1302.18 Q185.103 1306.23 177.512 1306.23 Q167.516 1306.23 161.811 1299.07 Q154.975 1290.44 154.975 1270.96 M163.697 1270.96 Q163.697 1287.99 167.658 1293.64 Q171.665 1299.25 177.512 1299.25 Q183.358 1299.25 187.319 1293.6 Q191.326 1287.94 191.326 1270.96 Q191.326 1253.9 187.319 1248.29 Q183.358 1242.68 177.417 1242.68 Q171.571 1242.68 168.082 1247.63 Q163.697 1253.94 163.697 1270.96 Z" fill="#000000" fill-rule="nonzero" fill-opacity="1" /><path clip-path="url(#clip560)" d="M213.439 1305.05 L213.439 1295.39 L223.104 1295.39 L223.104 1305.05 L213.439 1305.05 Z" fill="#000000" fill-rule="nonzero" fill-opacity="1" /><path clip-path="url(#clip560)" d="M248.565 1267.57 Q243.284 1265.64 240.738 1262.05 Q238.192 1258.47 238.192 1253.47 Q238.192 1245.93 243.614 1240.79 Q249.036 1235.65 258.042 1235.65 Q267.094 1235.65 272.611 1240.93 Q278.127 1246.16 278.127 1253.71 Q278.127 1258.52 275.581 1262.1 Q273.082 1265.64 267.943 1267.57 Q274.308 1269.64 277.608 1274.27 Q280.956 1278.89 280.956 1285.3 Q280.956 1294.16 274.685 1300.2 Q268.414 1306.23 258.183 1306.23 Q247.952 1306.23 241.681 1300.2 Q235.41 1294.11 235.41 1285.06 Q235.41 1278.32 238.805 1273.79 Q242.247 1269.22 248.565 1267.57 M246.867 1253.19 Q246.867 1258.09 250.026 1261.2 Q253.185 1264.32 258.23 1264.32 Q263.134 1264.32 266.245 1261.25 Q269.404 1258.14 269.404 1253.66 Q269.404 1248.99 266.151 1245.83 Q262.945 1242.63 258.136 1242.63 Q253.28 1242.63 250.073 1245.74 Q246.867 1248.85 246.867 1253.19 M244.133 1285.11 Q244.133 1288.74 245.83 1292.13 Q247.575 1295.53 250.969 1297.42 Q254.364 1299.25 258.277 1299.25 Q264.36 1299.25 268.32 1295.34 Q272.281 1291.43 272.281 1285.39 Q272.281 1279.26 268.179 1275.26 Q264.124 1271.25 257.994 1271.25 Q252.007 1271.25 248.046 1275.21 Q244.133 1279.17 244.133 1285.11 Z" fill="#000000" fill-rule="nonzero" fill-opacity="1" /><path clip-path="url(#clip560)" d="M289.207 1270.96 Q289.207 1258.71 291.706 1251.26 Q294.252 1243.76 299.202 1239.71 Q304.2 1235.65 311.744 1235.65 Q317.308 1235.65 321.504 1237.91 Q325.7 1240.13 328.435 1244.37 Q331.169 1248.57 332.725 1254.65 Q334.281 1260.69 334.281 1270.96 Q334.281 1283.13 331.782 1290.63 Q329.283 1298.08 324.286 1302.18 Q319.335 1306.23 311.744 1306.23 Q301.748 1306.23 296.043 1299.07 Q289.207 1290.44 289.207 1270.96 M297.929 1270.96 Q297.929 1287.99 301.89 1293.64 Q305.898 1299.25 311.744 1299.25 Q317.59 1299.25 321.551 1293.6 Q325.559 1287.94 325.559 1270.96 Q325.559 1253.9 321.551 1248.29 Q317.59 1242.68 311.65 1242.68 Q305.803 1242.68 302.314 1247.63 Q297.929 1253.94 297.929 1270.96 Z" fill="#000000" fill-rule="nonzero" fill-opacity="1" /><path clip-path="url(#clip560)" d="M154.22 1001 Q154.22 988.739 156.719 981.289 Q159.265 973.793 164.216 969.738 Q169.213 965.683 176.757 965.683 Q182.321 965.683 186.517 967.946 Q190.713 970.162 193.448 974.406 Q196.183 978.602 197.738 984.684 Q199.294 990.719 199.294 1001 Q199.294 1013.16 196.795 1020.66 Q194.297 1028.11 189.299 1032.21 Q184.348 1036.26 176.757 1036.26 Q166.762 1036.26 161.057 1029.1 Q154.22 1020.47 154.22 1001 M162.943 1001 Q162.943 1018.02 166.903 1023.68 Q170.911 1029.29 176.757 1029.29 Q182.604 1029.29 186.564 1023.63 Q190.572 1017.97 190.572 1001 Q190.572 983.93 186.564 978.319 Q182.604 972.708 176.663 972.708 Q170.817 972.708 167.327 977.659 Q162.943 983.977 162.943 1001 Z" fill="#000000" fill-rule="nonzero" fill-opacity="1" /><path clip-path="url(#clip560)" d="M212.685 1035.09 L212.685 1025.42 L222.35 1025.42 L222.35 1035.09 L212.685 1035.09 Z" fill="#000000" fill-rule="nonzero" fill-opacity="1" /><path clip-path="url(#clip560)" d="M247.81 997.603 Q242.53 995.67 239.984 992.086 Q237.438 988.503 237.438 983.505 Q237.438 975.961 242.86 970.822 Q248.282 965.683 257.287 965.683 Q266.34 965.683 271.856 970.964 Q277.373 976.197 277.373 983.741 Q277.373 988.55 274.827 992.133 Q272.328 995.67 267.188 997.603 Q273.554 999.677 276.854 1004.3 Q280.201 1008.92 280.201 1015.33 Q280.201 1024.19 273.931 1030.23 Q267.66 1036.26 257.429 1036.26 Q247.197 1036.26 240.927 1030.23 Q234.656 1024.15 234.656 1015.09 Q234.656 1008.35 238.051 1003.83 Q241.492 999.253 247.81 997.603 M246.113 983.222 Q246.113 988.126 249.272 991.238 Q252.431 994.349 257.476 994.349 Q262.379 994.349 265.491 991.285 Q268.65 988.173 268.65 983.694 Q268.65 979.026 265.397 975.867 Q262.191 972.661 257.382 972.661 Q252.525 972.661 249.319 975.773 Q246.113 978.885 246.113 983.222 M243.378 1015.14 Q243.378 1018.77 245.076 1022.17 Q246.82 1025.56 250.215 1027.45 Q253.61 1029.29 257.523 1029.29 Q263.605 1029.29 267.566 1025.37 Q271.526 1021.46 271.526 1015.42 Q271.526 1009.3 267.424 1005.29 Q263.369 1001.28 257.24 1001.28 Q251.252 1001.28 247.292 1005.24 Q243.378 1009.2 243.378 1015.14 Z" fill="#000000" fill-rule="nonzero" fill-opacity="1" /><path clip-path="url(#clip560)" d="M288.453 1016.98 L297.364 1016.23 Q298.354 1022.73 301.937 1026.03 Q305.567 1029.29 310.66 1029.29 Q316.789 1029.29 321.032 1024.67 Q325.276 1020.05 325.276 1012.41 Q325.276 1005.15 321.174 1000.95 Q317.119 996.754 310.518 996.754 Q306.416 996.754 303.116 998.64 Q299.815 1000.48 297.929 1003.45 L289.961 1002.41 L296.656 966.909 L331.028 966.909 L331.028 975.018 L303.446 975.018 L299.721 993.595 Q305.945 989.257 312.781 989.257 Q321.834 989.257 328.057 995.528 Q334.281 1001.8 334.281 1011.65 Q334.281 1021.04 328.812 1027.87 Q322.164 1036.26 310.66 1036.26 Q301.23 1036.26 295.242 1030.98 Q289.301 1025.7 288.453 1016.98 Z" fill="#000000" fill-rule="nonzero" fill-opacity="1" /><path clip-path="url(#clip560)" d="M154.975 731.03 Q154.975 718.771 157.473 711.322 Q160.019 703.825 164.97 699.77 Q169.968 695.716 177.512 695.716 Q183.075 695.716 187.271 697.979 Q191.468 700.195 194.202 704.438 Q196.937 708.634 198.493 714.717 Q200.049 720.752 200.049 731.03 Q200.049 743.194 197.55 750.691 Q195.051 758.141 190.053 762.242 Q185.103 766.297 177.512 766.297 Q167.516 766.297 161.811 759.131 Q154.975 750.502 154.975 731.03 M163.697 731.03 Q163.697 748.051 167.658 753.709 Q171.665 759.319 177.512 759.319 Q183.358 759.319 187.319 753.661 Q191.326 748.004 191.326 731.03 Q191.326 713.962 187.319 708.352 Q183.358 702.741 177.417 702.741 Q171.571 702.741 168.082 707.691 Q163.697 714.009 163.697 731.03 Z" fill="#000000" fill-rule="nonzero" fill-opacity="1" /><path clip-path="url(#clip560)" d="M213.439 765.119 L213.439 755.453 L223.104 755.453 L223.104 765.119 L213.439 765.119 Z" fill="#000000" fill-rule="nonzero" fill-opacity="1" /><path clip-path="url(#clip560)" d="M236.778 749.135 L244.934 748.381 Q245.972 754.133 248.895 756.726 Q251.818 759.319 256.391 759.319 Q260.305 759.319 263.228 757.528 Q266.198 755.736 268.084 752.766 Q269.97 749.748 271.243 744.656 Q272.516 739.564 272.516 734.283 Q272.516 733.718 272.469 732.586 Q269.923 736.641 265.491 739.187 Q261.106 741.686 255.967 741.686 Q247.386 741.686 241.445 735.462 Q235.505 729.238 235.505 719.054 Q235.505 708.54 241.681 702.128 Q247.905 695.716 257.24 695.716 Q263.982 695.716 269.546 699.346 Q275.157 702.977 278.033 709.719 Q280.956 716.414 280.956 729.144 Q280.956 742.393 278.08 750.267 Q275.204 758.093 269.499 762.195 Q263.841 766.297 256.203 766.297 Q248.093 766.297 242.954 761.818 Q237.815 757.292 236.778 749.135 M271.526 718.63 Q271.526 711.322 267.613 707.031 Q263.747 702.741 258.277 702.741 Q252.62 702.741 248.423 707.361 Q244.227 711.982 244.227 719.337 Q244.227 725.938 248.188 730.087 Q252.195 734.189 258.042 734.189 Q263.935 734.189 267.707 730.087 Q271.526 725.938 271.526 718.63 Z" fill="#000000" fill-rule="nonzero" fill-opacity="1" /><path clip-path="url(#clip560)" d="M289.207 731.03 Q289.207 718.771 291.706 711.322 Q294.252 703.825 299.202 699.77 Q304.2 695.716 311.744 695.716 Q317.308 695.716 321.504 697.979 Q325.7 700.195 328.435 704.438 Q331.169 708.634 332.725 714.717 Q334.281 720.752 334.281 731.03 Q334.281 743.194 331.782 750.691 Q329.283 758.141 324.286 762.242 Q319.335 766.297 311.744 766.297 Q301.748 766.297 296.043 759.131 Q289.207 750.502 289.207 731.03 M297.929 731.03 Q297.929 748.051 301.89 753.709 Q305.898 759.319 311.744 759.319 Q317.59 759.319 321.551 753.661 Q325.559 748.004 325.559 731.03 Q325.559 713.962 321.551 708.352 Q317.59 702.741 311.65 702.741 Q305.803 702.741 302.314 707.691 Q297.929 714.009 297.929 731.03 Z" fill="#000000" fill-rule="nonzero" fill-opacity="1" /><path clip-path="url(#clip560)" d="M154.22 461.063 Q154.22 448.804 156.719 441.355 Q159.265 433.858 164.216 429.803 Q169.213 425.748 176.757 425.748 Q182.321 425.748 186.517 428.011 Q190.713 430.227 193.448 434.471 Q196.183 438.667 197.738 444.749 Q199.294 450.784 199.294 461.063 Q199.294 473.227 196.795 480.724 Q194.297 488.173 189.299 492.275 Q184.348 496.33 176.757 496.33 Q166.762 496.33 161.057 489.163 Q154.22 480.535 154.22 461.063 M162.943 461.063 Q162.943 478.083 166.903 483.741 Q170.911 489.352 176.757 489.352 Q182.604 489.352 186.564 483.694 Q190.572 478.036 190.572 461.063 Q190.572 443.995 186.564 438.384 Q182.604 432.773 176.663 432.773 Q170.817 432.773 167.327 437.724 Q162.943 444.042 162.943 461.063 Z" fill="#000000" fill-rule="nonzero" fill-opacity="1" /><path clip-path="url(#clip560)" d="M212.685 495.151 L212.685 485.486 L222.35 485.486 L222.35 495.151 L212.685 495.151 Z" fill="#000000" fill-rule="nonzero" fill-opacity="1" /><path clip-path="url(#clip560)" d="M236.023 479.168 L244.18 478.413 Q245.217 484.166 248.14 486.759 Q251.064 489.352 255.637 489.352 Q259.55 489.352 262.474 487.56 Q265.444 485.769 267.33 482.798 Q269.216 479.781 270.489 474.689 Q271.762 469.597 271.762 464.316 Q271.762 463.75 271.715 462.619 Q269.169 466.673 264.737 469.219 Q260.352 471.718 255.213 471.718 Q246.632 471.718 240.691 465.495 Q234.75 459.271 234.75 449.087 Q234.75 438.573 240.927 432.161 Q247.15 425.748 256.486 425.748 Q263.228 425.748 268.792 429.379 Q274.402 433.009 277.278 439.751 Q280.201 446.447 280.201 459.177 Q280.201 472.426 277.325 480.299 Q274.449 488.126 268.744 492.228 Q263.087 496.33 255.448 496.33 Q247.339 496.33 242.2 491.851 Q237.06 487.324 236.023 479.168 M270.772 448.663 Q270.772 441.355 266.858 437.064 Q262.992 432.773 257.523 432.773 Q251.865 432.773 247.669 437.394 Q243.473 442.015 243.473 449.37 Q243.473 455.971 247.433 460.12 Q251.441 464.222 257.287 464.222 Q263.181 464.222 266.953 460.12 Q270.772 455.971 270.772 448.663 Z" fill="#000000" fill-rule="nonzero" fill-opacity="1" /><path clip-path="url(#clip560)" d="M288.453 477.046 L297.364 476.292 Q298.354 482.798 301.937 486.099 Q305.567 489.352 310.66 489.352 Q316.789 489.352 321.032 484.731 Q325.276 480.111 325.276 472.473 Q325.276 465.212 321.174 461.016 Q317.119 456.819 310.518 456.819 Q306.416 456.819 303.116 458.705 Q299.815 460.544 297.929 463.514 L289.961 462.477 L296.656 426.974 L331.028 426.974 L331.028 435.084 L303.446 435.084 L299.721 453.66 Q305.945 449.323 312.781 449.323 Q321.834 449.323 328.057 455.593 Q334.281 461.864 334.281 471.718 Q334.281 481.101 328.812 487.937 Q322.164 496.33 310.66 496.33 Q301.23 496.33 295.242 491.049 Q289.301 485.769 288.453 477.046 Z" fill="#000000" fill-rule="nonzero" fill-opacity="1" /><path clip-path="url(#clip560)" d="M186.941 225.184 L178.455 225.184 L178.455 171.104 Q175.39 174.027 170.392 176.951 Q165.442 179.874 161.481 181.336 L161.481 173.132 Q168.601 169.784 173.928 165.022 Q179.256 160.26 181.472 155.781 L186.941 155.781 L186.941 225.184 Z" fill="#000000" fill-rule="nonzero" fill-opacity="1" /><path clip-path="url(#clip560)" d="M213.439 225.184 L213.439 215.518 L223.104 215.518 L223.104 225.184 L213.439 225.184 Z" fill="#000000" fill-rule="nonzero" fill-opacity="1" /><path clip-path="url(#clip560)" d="M235.505 191.095 Q235.505 178.837 238.003 171.387 Q240.549 163.89 245.5 159.836 Q250.498 155.781 258.042 155.781 Q263.605 155.781 267.801 158.044 Q271.998 160.26 274.732 164.503 Q277.467 168.7 279.023 174.782 Q280.579 180.817 280.579 191.095 Q280.579 203.26 278.08 210.756 Q275.581 218.206 270.583 222.308 Q265.633 226.363 258.042 226.363 Q248.046 226.363 242.341 219.196 Q235.505 210.568 235.505 191.095 M244.227 191.095 Q244.227 208.116 248.188 213.774 Q252.195 219.385 258.042 219.385 Q263.888 219.385 267.849 213.727 Q271.856 208.069 271.856 191.095 Q271.856 174.027 267.849 168.417 Q263.888 162.806 257.947 162.806 Q252.101 162.806 248.612 167.757 Q244.227 174.075 244.227 191.095 Z" fill="#000000" fill-rule="nonzero" fill-opacity="1" /><path clip-path="url(#clip560)" d="M289.207 191.095 Q289.207 178.837 291.706 171.387 Q294.252 163.89 299.202 159.836 Q304.2 155.781 311.744 155.781 Q317.308 155.781 321.504 158.044 Q325.7 160.26 328.435 164.503 Q331.169 168.7 332.725 174.782 Q334.281 180.817 334.281 191.095 Q334.281 203.26 331.782 210.756 Q329.283 218.206 324.286 222.308 Q319.335 226.363 311.744 226.363 Q301.748 226.363 296.043 219.196 Q289.207 210.568 289.207 191.095 M297.929 191.095 Q297.929 208.116 301.89 213.774 Q305.898 219.385 311.744 219.385 Q317.59 219.385 321.551 213.727 Q325.559 208.069 325.559 191.095 Q325.559 174.027 321.551 168.417 Q317.59 162.806 311.65 162.806 Q305.803 162.806 302.314 167.757 Q297.929 174.075 297.929 191.095 Z" fill="#000000" fill-rule="nonzero" fill-opacity="1" /><path clip-path="url(#clip560)" d="M94.8922 867.905 L17.1322 867.905 L17.1322 858.357 L94.8922 858.357 L94.8922 867.905 Z" fill="#000000" fill-rule="nonzero" fill-opacity="1" /><path clip-path="url(#clip560)" d="M66.7267 847.112 Q51.0792 847.112 43.5472 838.413 Q37.2882 831.146 37.2882 820.697 Q37.2882 809.081 44.9263 801.708 Q52.5114 794.335 65.9311 794.335 Q76.8047 794.335 83.0637 797.623 Q89.2697 800.859 92.7174 807.118 Q96.1652 813.324 96.1652 820.697 Q96.1652 832.525 88.5801 839.845 Q80.9951 847.112 66.7267 847.112 M66.7267 837.299 Q77.5473 837.299 82.9576 832.578 Q88.3149 827.858 88.3149 820.697 Q88.3149 813.589 82.9046 808.868 Q77.4943 804.148 66.4084 804.148 Q55.9591 804.148 50.6018 808.921 Q45.1915 813.642 45.1915 820.697 Q45.1915 827.858 50.5488 832.578 Q55.9061 837.299 66.7267 837.299 Z" fill="#000000" fill-rule="nonzero" fill-opacity="1" /><path clip-path="url(#clip560)" d="M78.0778 786.962 L76.5926 777.52 Q82.2681 776.725 85.2915 773.118 Q88.3149 769.458 88.3149 762.934 Q88.3149 756.357 85.6628 753.174 Q82.9576 749.991 79.3508 749.991 Q76.1152 749.991 74.2587 752.803 Q72.9857 754.765 71.0231 762.563 Q68.371 773.065 66.4615 777.149 Q64.4989 781.18 61.1042 783.302 Q57.6565 785.371 53.5192 785.371 Q49.7532 785.371 46.5706 783.673 Q43.335 781.923 41.2134 778.953 Q39.569 776.725 38.4552 772.906 Q37.2882 769.034 37.2882 764.631 Q37.2882 758.001 39.1978 753.015 Q41.1073 747.976 44.3959 745.589 Q47.6315 743.202 53.0948 742.3 L54.3678 751.636 Q50.0184 752.272 47.5784 755.349 Q45.1385 758.372 45.1385 763.942 Q45.1385 770.519 47.3132 773.33 Q49.488 776.141 52.4053 776.141 Q54.2618 776.141 55.7469 774.974 Q57.2852 773.807 58.293 771.314 Q58.8234 769.882 60.7329 762.881 Q63.4381 752.75 65.1885 748.772 Q66.8858 744.74 70.1744 742.459 Q73.4631 740.179 78.343 740.179 Q83.1168 740.179 87.3602 742.99 Q91.5505 745.748 93.8844 750.999 Q96.1652 756.25 96.1652 762.881 Q96.1652 773.861 91.6035 779.642 Q87.0419 785.371 78.0778 786.962 Z" fill="#000000" fill-rule="nonzero" fill-opacity="1" /><path clip-path="url(#clip560)" d="M78.0778 732.647 L76.5926 723.205 Q82.2681 722.41 85.2915 718.803 Q88.3149 715.143 88.3149 708.619 Q88.3149 702.041 85.6628 698.859 Q82.9576 695.676 79.3508 695.676 Q76.1152 695.676 74.2587 698.487 Q72.9857 700.45 71.0231 708.247 Q68.371 718.75 66.4615 722.834 Q64.4989 726.865 61.1042 728.987 Q57.6565 731.055 53.5192 731.055 Q49.7532 731.055 46.5706 729.358 Q43.335 727.608 41.2134 724.637 Q39.569 722.41 38.4552 718.59 Q37.2882 714.718 37.2882 710.316 Q37.2882 703.686 39.1978 698.7 Q41.1073 693.661 44.3959 691.274 Q47.6315 688.887 53.0948 687.985 L54.3678 697.32 Q50.0184 697.957 47.5784 701.033 Q45.1385 704.057 45.1385 709.626 Q45.1385 716.204 47.3132 719.015 Q49.488 721.826 52.4053 721.826 Q54.2618 721.826 55.7469 720.659 Q57.2852 719.492 58.293 716.999 Q58.8234 715.567 60.7329 708.565 Q63.4381 698.434 65.1885 694.456 Q66.8858 690.425 70.1744 688.144 Q73.4631 685.863 78.343 685.863 Q83.1168 685.863 87.3602 688.675 Q91.5505 691.433 93.8844 696.684 Q96.1652 701.935 96.1652 708.565 Q96.1652 719.545 91.6035 725.327 Q87.0419 731.055 78.0778 732.647 Z" fill="#000000" fill-rule="nonzero" fill-opacity="1" /><polyline clip-path="url(#clip562)" style="stroke:#4477aa; stroke-linecap:round; stroke-linejoin:round; stroke-width:8; stroke-opacity:1; fill:none" points="426.389,160.924 634.195,478.617 842.002,695.638 1049.81,849.051 1257.62,957.91 1465.42,1035.13 1673.23,1089.85 1881.03,1128.6 2088.84,1156 2296.65,1175.36 "/>
<circle clip-path="url(#clip562)" cx="426.389" cy="160.924" r="14.4" fill="#4477aa" fill-rule="evenodd" fill-opacity="1" stroke="#000000" stroke-opacity="1" stroke-width="3.6"/>
<circle clip-path="url(#clip562)" cx="634.195" cy="478.617" r="14.4" fill="#4477aa" fill-rule="evenodd" fill-opacity="1" stroke="#000000" stroke-opacity="1" stroke-width="3.6"/>
<circle clip-path="url(#clip562)" cx="842.002" cy="695.638" r="14.4" fill="#4477aa" fill-rule="evenodd" fill-opacity="1" stroke="#000000" stroke-opacity="1" stroke-width="3.6"/>
<circle clip-path="url(#clip562)" cx="1049.81" cy="849.051" r="14.4" fill="#4477aa" fill-rule="evenodd" fill-opacity="1" stroke="#000000" stroke-opacity="1" stroke-width="3.6"/>
<circle clip-path="url(#clip562)" cx="1257.62" cy="957.91" r="14.4" fill="#4477aa" fill-rule="evenodd" fill-opacity="1" stroke="#000000" stroke-opacity="1" stroke-width="3.6"/>
<circle clip-path="url(#clip562)" cx="1465.42" cy="1035.13" r="14.4" fill="#4477aa" fill-rule="evenodd" fill-opacity="1" stroke="#000000" stroke-opacity="1" stroke-width="3.6"/>
<circle clip-path="url(#clip562)" cx="1673.23" cy="1089.85" r="14.4" fill="#4477aa" fill-rule="evenodd" fill-opacity="1" stroke="#000000" stroke-opacity="1" stroke-width="3.6"/>
<circle clip-path="url(#clip562)" cx="1881.03" cy="1128.6" r="14.4" fill="#4477aa" fill-rule="evenodd" fill-opacity="1" stroke="#000000" stroke-opacity="1" stroke-width="3.6"/>
<circle clip-path="url(#clip562)" cx="2088.84" cy="1156" r="14.4" fill="#4477aa" fill-rule="evenodd" fill-opacity="1" stroke="#000000" stroke-opacity="1" stroke-width="3.6"/>
<circle clip-path="url(#clip562)" cx="2296.65" cy="1175.36" r="14.4" fill="#4477aa" fill-rule="evenodd" fill-opacity="1" stroke="#000000" stroke-opacity="1" stroke-width="3.6"/>
<polyline clip-path="url(#clip562)" style="stroke:#ee6677; stroke-linecap:round; stroke-linejoin:round; stroke-width:8; stroke-opacity:1; fill:none" points="426.389,88.5445 634.195,531.022 842.002,813.303 1049.81,1011.7 1257.62,1154.76 1465.42,1259.02 1673.23,1335.52 1881.03,1391.99 2088.84,1433.92 2296.65,1465.22 "/>
<circle clip-path="url(#clip562)" cx="426.389" cy="88.5445" r="14.4" fill="#ee6677" fill-rule="evenodd" fill-opacity="1" stroke="#000000" stroke-opacity="1" stroke-width="3.6"/>
<circle clip-path="url(#clip562)" cx="634.195" cy="531.022" r="14.4" fill="#ee6677" fill-rule="evenodd" fill-opacity="1" stroke="#000000" stroke-opacity="1" stroke-width="3.6"/>
<circle clip-path="url(#clip562)" cx="842.002" cy="813.303" r="14.4" fill="#ee6677" fill-rule="evenodd" fill-opacity="1" stroke="#000000" stroke-opacity="1" stroke-width="3.6"/>
<circle clip-path="url(#clip562)" cx="1049.81" cy="1011.7" r="14.4" fill="#ee6677" fill-rule="evenodd" fill-opacity="1" stroke="#000000" stroke-opacity="1" stroke-width="3.6"/>
<circle clip-path="url(#clip562)" cx="1257.62" cy="1154.76" r="14.4" fill="#ee6677" fill-rule="evenodd" fill-opacity="1" stroke="#000000" stroke-opacity="1" stroke-width="3.6"/>
<circle clip-path="url(#clip562)" cx="1465.42" cy="1259.02" r="14.4" fill="#ee6677" fill-rule="evenodd" fill-opacity="1" stroke="#000000" stroke-opacity="1" stroke-width="3.6"/>
<circle clip-path="url(#clip562)" cx="1673.23" cy="1335.52" r="14.4" fill="#ee6677" fill-rule="evenodd" fill-opacity="1" stroke="#000000" stroke-opacity="1" stroke-width="3.6"/>
<circle clip-path="url(#clip562)" cx="1881.03" cy="1391.99" r="14.4" fill="#ee6677" fill-rule="evenodd" fill-opacity="1" stroke="#000000" stroke-opacity="1" stroke-width="3.6"/>
<circle clip-path="url(#clip562)" cx="2088.84" cy="1433.92" r="14.4" fill="#ee6677" fill-rule="evenodd" fill-opacity="1" stroke="#000000" stroke-opacity="1" stroke-width="3.6"/>
<circle clip-path="url(#clip562)" cx="2296.65" cy="1465.22" r="14.4" fill="#ee6677" fill-rule="evenodd" fill-opacity="1" stroke="#000000" stroke-opacity="1" stroke-width="3.6"/>
<path clip-path="url(#clip560)" d="M1629.61 445.807 L2286.67 445.807 L2286.67 95.8868 L1629.61 95.8868  Z" fill="#ffffff" fill-rule="evenodd" fill-opacity="1"/>
<polyline clip-path="url(#clip560)" style="stroke:#000000; stroke-linecap:round; stroke-linejoin:round; stroke-width:4; stroke-opacity:1; fill:none" points="1629.61,445.807 2286.67,445.807 2286.67,95.8868 1629.61,95.8868 1629.61,445.807 "/>
<polyline clip-path="url(#clip560)" style="stroke:#4477aa; stroke-linecap:round; stroke-linejoin:round; stroke-width:18; stroke-opacity:1; fill:none" points="1651.64,212.527 1783.8,212.527 "/>
<circle clip-path="url(#clip560)" cx="1717.72" cy="212.527" r="8.15833" fill="#4477aa" fill-rule="evenodd" fill-opacity="1" stroke="#000000" stroke-opacity="1" stroke-width="8.15833"/>
<path clip-path="url(#clip560)" d="M1831.93 242.867 L1833.31 251.301 Q1829.27 252.149 1826.09 252.149 Q1820.89 252.149 1818.03 250.505 Q1815.17 248.861 1814 246.209 Q1812.83 243.503 1812.83 234.911 L1812.83 202.502 L1805.83 202.502 L1805.83 195.076 L1812.83 195.076 L1812.83 181.126 L1822.33 175.397 L1822.33 195.076 L1831.93 195.076 L1831.93 202.502 L1822.33 202.502 L1822.33 235.441 Q1822.33 239.525 1822.8 240.692 Q1823.33 241.859 1824.45 242.549 Q1825.61 243.238 1827.74 243.238 Q1829.33 243.238 1831.93 242.867 Z" fill="#000000" fill-rule="nonzero" fill-opacity="1" /><path clip-path="url(#clip560)" d="M1841.16 251.407 L1841.16 195.076 L1849.75 195.076 L1849.75 203.616 Q1853.04 197.622 1855.8 195.712 Q1858.61 193.803 1861.95 193.803 Q1866.78 193.803 1871.76 196.879 L1868.47 205.737 Q1864.97 203.669 1861.47 203.669 Q1858.34 203.669 1855.85 205.578 Q1853.36 207.435 1852.3 210.776 Q1850.7 215.868 1850.7 221.915 L1850.7 251.407 L1841.16 251.407 Z" fill="#000000" fill-rule="nonzero" fill-opacity="1" /><path clip-path="url(#clip560)" d="M1914.2 244.458 Q1908.89 248.967 1903.96 250.823 Q1899.08 252.68 1893.46 252.68 Q1884.17 252.68 1879.19 248.171 Q1874.2 243.61 1874.2 236.555 Q1874.2 232.418 1876.06 229.023 Q1877.97 225.575 1880.99 223.507 Q1884.07 221.438 1887.89 220.377 Q1890.7 219.634 1896.37 218.945 Q1907.94 217.566 1913.4 215.656 Q1913.45 213.694 1913.45 213.163 Q1913.45 207.329 1910.75 204.942 Q1907.09 201.706 1899.87 201.706 Q1893.14 201.706 1889.9 204.093 Q1886.72 206.427 1885.18 212.421 L1875.85 211.148 Q1877.12 205.154 1880.04 201.494 Q1882.95 197.781 1888.47 195.818 Q1893.99 193.803 1901.25 193.803 Q1908.47 193.803 1912.98 195.5 Q1917.48 197.198 1919.61 199.797 Q1921.73 202.343 1922.58 206.268 Q1923.05 208.708 1923.05 215.073 L1923.05 227.803 Q1923.05 241.117 1923.64 244.67 Q1924.27 248.171 1926.08 251.407 L1916.11 251.407 Q1914.62 248.436 1914.2 244.458 M1913.4 223.135 Q1908.2 225.257 1897.81 226.742 Q1891.92 227.591 1889.48 228.652 Q1887.04 229.712 1885.71 231.781 Q1884.39 233.797 1884.39 236.29 Q1884.39 240.109 1887.25 242.655 Q1890.17 245.201 1895.74 245.201 Q1901.25 245.201 1905.55 242.814 Q1909.85 240.374 1911.86 236.184 Q1913.4 232.948 1913.4 226.636 L1913.4 223.135 Z" fill="#000000" fill-rule="nonzero" fill-opacity="1" /><path clip-path="url(#clip560)" d="M1937.91 184.627 L1937.91 173.647 L1947.45 173.647 L1947.45 184.627 L1937.91 184.627 M1937.91 251.407 L1937.91 195.076 L1947.45 195.076 L1947.45 251.407 L1937.91 251.407 Z" fill="#000000" fill-rule="nonzero" fill-opacity="1" /><path clip-path="url(#clip560)" d="M1961.99 251.407 L1961.99 195.076 L1970.58 195.076 L1970.58 203.085 Q1976.79 193.803 1988.51 193.803 Q1993.6 193.803 1997.84 195.659 Q2002.14 197.463 2004.26 200.433 Q2006.38 203.403 2007.23 207.488 Q2007.76 210.14 2007.76 216.77 L2007.76 251.407 L1998.21 251.407 L1998.21 217.141 Q1998.21 211.307 1997.1 208.442 Q1995.99 205.525 1993.12 203.828 Q1990.31 202.077 1986.49 202.077 Q1980.39 202.077 1975.94 205.95 Q1971.53 209.822 1971.53 220.642 L1971.53 251.407 L1961.99 251.407 Z" fill="#000000" fill-rule="nonzero" fill-opacity="1" /><path clip-path="url(#clip560)" d="M2013.6 272.995 L2013.6 266.099 L2076.88 266.099 L2076.88 272.995 L2013.6 272.995 Z" fill="#000000" fill-rule="nonzero" fill-opacity="1" /><path clip-path="url(#clip560)" d="M2082.6 251.407 L2082.6 173.647 L2092.15 173.647 L2092.15 251.407 L2082.6 251.407 Z" fill="#000000" fill-rule="nonzero" fill-opacity="1" /><path clip-path="url(#clip560)" d="M2103.4 223.241 Q2103.4 207.594 2112.1 200.062 Q2119.36 193.803 2129.81 193.803 Q2141.43 193.803 2148.8 201.441 Q2156.17 209.026 2156.17 222.446 Q2156.17 233.319 2152.89 239.578 Q2149.65 245.784 2143.39 249.232 Q2137.19 252.68 2129.81 252.68 Q2117.98 252.68 2110.66 245.095 Q2103.4 237.51 2103.4 223.241 M2113.21 223.241 Q2113.21 234.062 2117.93 239.472 Q2122.65 244.83 2129.81 244.83 Q2136.92 244.83 2141.64 239.419 Q2146.36 234.009 2146.36 222.923 Q2146.36 212.474 2141.59 207.116 Q2136.87 201.706 2129.81 201.706 Q2122.65 201.706 2117.93 207.063 Q2113.21 212.421 2113.21 223.241 Z" fill="#000000" fill-rule="nonzero" fill-opacity="1" /><path clip-path="url(#clip560)" d="M2163.55 234.592 L2172.99 233.107 Q2173.78 238.783 2177.39 241.806 Q2181.05 244.83 2187.58 244.83 Q2194.15 244.83 2197.34 242.177 Q2200.52 239.472 2200.52 235.865 Q2200.52 232.63 2197.71 230.773 Q2195.74 229.5 2187.95 227.538 Q2177.44 224.886 2173.36 222.976 Q2169.33 221.014 2167.21 217.619 Q2165.14 214.171 2165.14 210.034 Q2165.14 206.268 2166.84 203.085 Q2168.59 199.85 2171.56 197.728 Q2173.78 196.084 2177.6 194.97 Q2181.48 193.803 2185.88 193.803 Q2192.51 193.803 2197.49 195.712 Q2202.53 197.622 2204.92 200.91 Q2207.31 204.146 2208.21 209.609 L2198.87 210.882 Q2198.24 206.533 2195.16 204.093 Q2192.14 201.653 2186.57 201.653 Q2179.99 201.653 2177.18 203.828 Q2174.37 206.003 2174.37 208.92 Q2174.37 210.776 2175.53 212.262 Q2176.7 213.8 2179.19 214.808 Q2180.63 215.338 2187.63 217.248 Q2197.76 219.953 2201.74 221.703 Q2205.77 223.4 2208.05 226.689 Q2210.33 229.978 2210.33 234.858 Q2210.33 239.631 2207.52 243.875 Q2204.76 248.065 2199.51 250.399 Q2194.26 252.68 2187.63 252.68 Q2176.65 252.68 2170.87 248.118 Q2165.14 243.556 2163.55 234.592 Z" fill="#000000" fill-rule="nonzero" fill-opacity="1" /><path clip-path="url(#clip560)" d="M2217.86 234.592 L2227.3 233.107 Q2228.1 238.783 2231.71 241.806 Q2235.37 244.83 2241.89 244.83 Q2248.47 244.83 2251.65 242.177 Q2254.83 239.472 2254.83 235.865 Q2254.83 232.63 2252.02 230.773 Q2250.06 229.5 2242.26 227.538 Q2231.76 224.886 2227.68 222.976 Q2223.64 221.014 2221.52 217.619 Q2219.45 214.171 2219.45 210.034 Q2219.45 206.268 2221.15 203.085 Q2222.9 199.85 2225.87 197.728 Q2228.1 196.084 2231.92 194.97 Q2235.79 193.803 2240.19 193.803 Q2246.82 193.803 2251.81 195.712 Q2256.85 197.622 2259.24 200.91 Q2261.62 204.146 2262.52 209.609 L2253.19 210.882 Q2252.55 206.533 2249.48 204.093 Q2246.45 201.653 2240.88 201.653 Q2234.31 201.653 2231.49 203.828 Q2228.68 206.003 2228.68 208.92 Q2228.68 210.776 2229.85 212.262 Q2231.02 213.8 2233.51 214.808 Q2234.94 215.338 2241.94 217.248 Q2252.07 219.953 2256.05 221.703 Q2260.08 223.4 2262.37 226.689 Q2264.65 229.978 2264.65 234.858 Q2264.65 239.631 2261.83 243.875 Q2259.08 248.065 2253.83 250.399 Q2248.57 252.68 2241.94 252.68 Q2230.96 252.68 2225.18 248.118 Q2219.45 243.556 2217.86 234.592 Z" fill="#000000" fill-rule="nonzero" fill-opacity="1" /><polyline clip-path="url(#clip560)" style="stroke:#ee6677; stroke-linecap:round; stroke-linejoin:round; stroke-width:18; stroke-opacity:1; fill:none" points="1651.64,329.167 1783.8,329.167 "/>
<circle clip-path="url(#clip560)" cx="1717.72" cy="329.167" r="8.15833" fill="#ee6677" fill-rule="evenodd" fill-opacity="1" stroke="#000000" stroke-opacity="1" stroke-width="8.15833"/>
<path clip-path="url(#clip560)" d="M1827.26 368.047 L1805.83 311.716 L1815.91 311.716 L1828 345.451 Q1829.96 350.914 1831.61 356.802 Q1832.88 352.346 1835.16 346.087 L1847.68 311.716 L1857.49 311.716 L1836.17 368.047 L1827.26 368.047 Z" fill="#000000" fill-rule="nonzero" fill-opacity="1" /><path clip-path="url(#clip560)" d="M1902.69 361.098 Q1897.38 365.607 1892.45 367.463 Q1887.57 369.32 1881.95 369.32 Q1872.66 369.32 1867.68 364.811 Q1862.69 360.25 1862.69 353.195 Q1862.69 349.058 1864.55 345.663 Q1866.46 342.215 1869.48 340.147 Q1872.56 338.078 1876.38 337.017 Q1879.19 336.274 1884.86 335.585 Q1896.43 334.206 1901.89 332.296 Q1901.94 330.334 1901.94 329.803 Q1901.94 323.969 1899.24 321.582 Q1895.58 318.346 1888.36 318.346 Q1881.63 318.346 1878.39 320.733 Q1875.21 323.067 1873.67 329.061 L1864.34 327.788 Q1865.61 321.794 1868.53 318.134 Q1871.44 314.421 1876.96 312.458 Q1882.48 310.443 1889.74 310.443 Q1896.96 310.443 1901.47 312.14 Q1905.97 313.838 1908.1 316.437 Q1910.22 318.983 1911.07 322.908 Q1911.54 325.348 1911.54 331.713 L1911.54 344.443 Q1911.54 357.757 1912.13 361.31 Q1912.76 364.811 1914.57 368.047 L1904.59 368.047 Q1903.11 365.076 1902.69 361.098 M1901.89 339.775 Q1896.69 341.897 1886.3 343.382 Q1880.41 344.231 1877.97 345.292 Q1875.53 346.352 1874.2 348.421 Q1872.88 350.437 1872.88 352.93 Q1872.88 356.749 1875.74 359.295 Q1878.66 361.841 1884.23 361.841 Q1889.74 361.841 1894.04 359.454 Q1898.34 357.014 1900.35 352.824 Q1901.89 349.588 1901.89 343.276 L1901.89 339.775 Z" fill="#000000" fill-rule="nonzero" fill-opacity="1" /><path clip-path="url(#clip560)" d="M1926.13 368.047 L1926.13 290.287 L1935.68 290.287 L1935.68 368.047 L1926.13 368.047 Z" fill="#000000" fill-rule="nonzero" fill-opacity="1" /><path clip-path="url(#clip560)" d="M1941.67 389.635 L1941.67 382.739 L2004.95 382.739 L2004.95 389.635 L1941.67 389.635 Z" fill="#000000" fill-rule="nonzero" fill-opacity="1" /><path clip-path="url(#clip560)" d="M2010.68 368.047 L2010.68 290.287 L2020.23 290.287 L2020.23 368.047 L2010.68 368.047 Z" fill="#000000" fill-rule="nonzero" fill-opacity="1" /><path clip-path="url(#clip560)" d="M2031.47 339.881 Q2031.47 324.234 2040.17 316.702 Q2047.44 310.443 2057.89 310.443 Q2069.5 310.443 2076.88 318.081 Q2084.25 325.666 2084.25 339.086 Q2084.25 349.959 2080.96 356.218 Q2077.72 362.424 2071.47 365.872 Q2065.26 369.32 2057.89 369.32 Q2046.06 369.32 2038.74 361.735 Q2031.47 354.15 2031.47 339.881 M2041.28 339.881 Q2041.28 350.702 2046.01 356.112 Q2050.73 361.47 2057.89 361.47 Q2064.99 361.47 2069.72 356.059 Q2074.44 350.649 2074.44 339.563 Q2074.44 329.114 2069.66 323.756 Q2064.94 318.346 2057.89 318.346 Q2050.73 318.346 2046.01 323.703 Q2041.28 329.061 2041.28 339.881 Z" fill="#000000" fill-rule="nonzero" fill-opacity="1" /><path clip-path="url(#clip560)" d="M2091.62 351.232 L2101.06 349.747 Q2101.86 355.423 2105.47 358.446 Q2109.13 361.47 2115.65 361.47 Q2122.23 361.47 2125.41 358.817 Q2128.59 356.112 2128.59 352.505 Q2128.59 349.27 2125.78 347.413 Q2123.82 346.14 2116.02 344.178 Q2105.52 341.526 2101.43 339.616 Q2097.4 337.654 2095.28 334.259 Q2093.21 330.811 2093.21 326.674 Q2093.21 322.908 2094.91 319.725 Q2096.66 316.49 2099.63 314.368 Q2101.86 312.724 2105.68 311.61 Q2109.55 310.443 2113.95 310.443 Q2120.58 310.443 2125.57 312.352 Q2130.61 314.262 2132.99 317.55 Q2135.38 320.786 2136.28 326.249 L2126.95 327.522 Q2126.31 323.173 2123.24 320.733 Q2120.21 318.293 2114.64 318.293 Q2108.07 318.293 2105.25 320.468 Q2102.44 322.643 2102.44 325.56 Q2102.44 327.416 2103.61 328.902 Q2104.78 330.44 2107.27 331.448 Q2108.7 331.978 2115.7 333.888 Q2125.83 336.593 2129.81 338.343 Q2133.84 340.04 2136.12 343.329 Q2138.41 346.618 2138.41 351.498 Q2138.41 356.271 2135.59 360.515 Q2132.84 364.705 2127.58 367.039 Q2122.33 369.32 2115.7 369.32 Q2104.72 369.32 2098.94 364.758 Q2093.21 360.196 2091.62 351.232 Z" fill="#000000" fill-rule="nonzero" fill-opacity="1" /><path clip-path="url(#clip560)" d="M2145.94 351.232 L2155.38 349.747 Q2156.17 355.423 2159.78 358.446 Q2163.44 361.47 2169.97 361.47 Q2176.54 361.47 2179.73 358.817 Q2182.91 356.112 2182.91 352.505 Q2182.91 349.27 2180.1 347.413 Q2178.13 346.14 2170.34 344.178 Q2159.83 341.526 2155.75 339.616 Q2151.72 337.654 2149.6 334.259 Q2147.53 330.811 2147.53 326.674 Q2147.53 322.908 2149.23 319.725 Q2150.98 316.49 2153.95 314.368 Q2156.17 312.724 2159.99 311.61 Q2163.87 310.443 2168.27 310.443 Q2174.9 310.443 2179.88 312.352 Q2184.92 314.262 2187.31 317.55 Q2189.7 320.786 2190.6 326.249 L2181.26 327.522 Q2180.63 323.173 2177.55 320.733 Q2174.53 318.293 2168.96 318.293 Q2162.38 318.293 2159.57 320.468 Q2156.76 322.643 2156.76 325.56 Q2156.76 327.416 2157.92 328.902 Q2159.09 330.44 2161.58 331.448 Q2163.02 331.978 2170.02 333.888 Q2180.15 336.593 2184.13 338.343 Q2188.16 340.04 2190.44 343.329 Q2192.72 346.618 2192.72 351.498 Q2192.72 356.271 2189.91 360.515 Q2187.15 364.705 2181.9 367.039 Q2176.65 369.32 2170.02 369.32 Q2159.04 369.32 2153.26 364.758 Q2147.53 360.196 2145.94 351.232 Z" fill="#000000" fill-rule="nonzero" fill-opacity="1" /></svg>
