<?xml version="1.0" encoding="utf-8"?>
<svg xmlns="http://www.w3.org/2000/svg" xmlns:xlink="http://www.w3.org/1999/xlink" width="600" height="400" viewBox="0 0 2400 1600">
<defs>
  <clipPath id="clip040">
    <rect x="0" y="0" width="2400" height="1600"/>
  </clipPath>
</defs>
<path clip-path="url(#clip040)" d="M0 1600 L2400 1600 L2400 8.88178e-14 L0 8.88178e-14  Z" fill="#ffffff" fill-rule="evenodd" fill-opacity="1"/>
<defs>
  <clipPath id="clip041">
    <rect x="480" y="0" width="1681" height="1600"/>
  </clipPath>
</defs>
<path clip-path="url(#clip040)" d="M382.644 1349.74 L2352.76 1349.74 L2352.76 47.2441 L382.644 47.2441  Z" fill="#ffffff" fill-rule="evenodd" fill-opacity="1"/>
<defs>
  <clipPath id="clip042">
    <rect x="382" y="47" width="1971" height="1303"/>
  </clipPath>
</defs>
<polyline clip-path="url(#clip040)" style="stroke:#000000; stroke-linecap:round; stroke-linejoin:round; stroke-width:4; stroke-opacity:1; fill:none" points="382.644,1349.74 2352.76,1349.74 "/>
<polyline clip-path="url(#clip040)" style="stroke:#000000; stroke-linecap:round; stroke-linejoin:round; stroke-width:2; stroke-opacity:0.5; fill:none" points="382.644,47.2441 2352.76,47.2441 "/>
<polyline clip-path="url(#clip040)" style="stroke:#000000; stroke-linecap:round; stroke-linejoin:round; stroke-width:4; stroke-opacity:1; fill:none" points="651.296,1349.74 651.296,1330.84 "/>
<polyline clip-path="url(#clip040)" style="stroke:#000000; stroke-linecap:round; stroke-linejoin:round; stroke-width:4; stroke-opacity:1; fill:none" points="1099.05,1349.74 1099.05,1330.84 "/>
<polyline clip-path="url(#clip040)" style="stroke:#000000; stroke-linecap:round; stroke-linejoin:round; stroke-width:4; stroke-opacity:1; fill:none" points="1546.8,1349.74 1546.8,1330.84 "/>
<polyline clip-path="url(#clip040)" style="stroke:#000000; stroke-linecap:round; stroke-linejoin:round; stroke-width:4; stroke-opacity:1; fill:none" points="1994.55,1349.74 1994.55,1330.84 "/>
<path clip-path="url(#clip040)" d="M631.06 1456.96 L631.06 1466.14 L579.662 1466.14 Q579.556 1462.69 580.776 1459.51 Q582.739 1454.26 587.035 1449.17 Q591.385 1444.07 599.553 1437.39 Q612.23 1426.99 616.686 1420.95 Q621.141 1414.85 621.141 1409.44 Q621.141 1403.76 617.057 1399.89 Q613.026 1395.96 606.502 1395.96 Q599.606 1395.96 595.469 1400.1 Q591.332 1404.24 591.279 1411.56 L581.466 1410.55 Q582.474 1399.57 589.051 1393.84 Q595.628 1388.06 606.714 1388.06 Q617.906 1388.06 624.43 1394.27 Q630.954 1400.47 630.954 1409.65 Q630.954 1414.32 629.045 1418.83 Q627.135 1423.33 622.68 1428.32 Q618.277 1433.31 607.987 1442.01 Q599.394 1449.22 596.954 1451.82 Q594.514 1454.36 592.923 1456.96 L631.06 1456.96 Z" fill="#000000" fill-rule="nonzero" fill-opacity="1" /><path clip-path="url(#clip040)" d="M646.655 1466.14 L646.655 1455.27 L657.528 1455.27 L657.528 1466.14 L646.655 1466.14 Z" fill="#000000" fill-rule="nonzero" fill-opacity="1" /><path clip-path="url(#clip040)" d="M671.479 1445.77 L681.503 1444.92 Q682.617 1452.24 686.649 1455.96 Q690.733 1459.62 696.461 1459.62 Q703.357 1459.62 708.131 1454.42 Q712.905 1449.22 712.905 1440.63 Q712.905 1432.46 708.29 1427.74 Q703.728 1423.02 696.302 1423.02 Q691.688 1423.02 687.975 1425.14 Q684.262 1427.21 682.14 1430.55 L673.176 1429.38 L680.708 1389.44 L719.376 1389.44 L719.376 1398.56 L688.346 1398.56 L684.156 1419.46 Q691.157 1414.58 698.848 1414.58 Q709.032 1414.58 716.034 1421.64 Q723.036 1428.69 723.036 1439.78 Q723.036 1450.33 716.883 1458.02 Q709.404 1467.47 696.461 1467.47 Q685.853 1467.47 679.117 1461.53 Q672.433 1455.58 671.479 1445.77 Z" fill="#000000" fill-rule="nonzero" fill-opacity="1" /><path clip-path="url(#clip040)" d="M1028.4 1445.77 L1038.42 1444.92 Q1039.54 1452.24 1043.57 1455.96 Q1047.65 1459.62 1053.38 1459.62 Q1060.27 1459.62 1065.05 1454.42 Q1069.82 1449.22 1069.82 1440.63 Q1069.82 1432.46 1065.21 1427.74 Q1060.65 1423.02 1053.22 1423.02 Q1048.61 1423.02 1044.89 1425.14 Q1041.18 1427.21 1039.06 1430.55 L1030.09 1429.38 L1037.63 1389.44 L1076.29 1389.44 L1076.29 1398.56 L1045.26 1398.56 L1041.07 1419.46 Q1048.07 1414.58 1055.77 1414.58 Q1065.95 1414.58 1072.95 1421.64 Q1079.95 1428.69 1079.95 1439.78 Q1079.95 1450.33 1073.8 1458.02 Q1066.32 1467.47 1053.38 1467.47 Q1042.77 1467.47 1036.03 1461.53 Q1029.35 1455.58 1028.4 1445.77 Z" fill="#000000" fill-rule="nonzero" fill-opacity="1" /><path clip-path="url(#clip040)" d="M1094.17 1466.14 L1094.17 1455.27 L1105.04 1455.27 L1105.04 1466.14 L1094.17 1466.14 Z" fill="#000000" fill-rule="nonzero" fill-opacity="1" /><path clip-path="url(#clip040)" d="M1118.99 1427.79 Q1118.99 1414 1121.8 1405.62 Q1124.67 1397.18 1130.24 1392.62 Q1135.86 1388.06 1144.35 1388.06 Q1150.61 1388.06 1155.33 1390.61 Q1160.05 1393.1 1163.12 1397.87 Q1166.2 1402.6 1167.95 1409.44 Q1169.7 1416.23 1169.7 1427.79 Q1169.7 1441.48 1166.89 1449.91 Q1164.08 1458.29 1158.46 1462.9 Q1152.89 1467.47 1144.35 1467.47 Q1133.1 1467.47 1126.68 1459.4 Q1118.99 1449.7 1118.99 1427.79 M1128.81 1427.79 Q1128.81 1446.94 1133.26 1453.3 Q1137.77 1459.62 1144.35 1459.62 Q1150.92 1459.62 1155.38 1453.25 Q1159.89 1446.89 1159.89 1427.79 Q1159.89 1408.59 1155.38 1402.28 Q1150.92 1395.96 1144.24 1395.96 Q1137.66 1395.96 1133.74 1401.53 Q1128.81 1408.64 1128.81 1427.79 Z" fill="#000000" fill-rule="nonzero" fill-opacity="1" /><path clip-path="url(#clip040)" d="M1476.04 1398.56 L1476.04 1389.39 L1526.38 1389.39 L1526.38 1396.81 Q1518.95 1404.72 1511.63 1417.82 Q1504.37 1430.92 1500.39 1444.76 Q1497.52 1454.52 1496.73 1466.14 L1486.92 1466.14 Q1487.08 1456.96 1490.52 1443.97 Q1493.97 1430.97 1500.39 1418.93 Q1506.86 1406.84 1514.13 1398.56 L1476.04 1398.56 Z" fill="#000000" fill-rule="nonzero" fill-opacity="1" /><path clip-path="url(#clip040)" d="M1541.18 1466.14 L1541.18 1455.27 L1552.05 1455.27 L1552.05 1466.14 L1541.18 1466.14 Z" fill="#000000" fill-rule="nonzero" fill-opacity="1" /><path clip-path="url(#clip040)" d="M1566 1445.77 L1576.03 1444.92 Q1577.14 1452.24 1581.17 1455.96 Q1585.26 1459.62 1590.99 1459.62 Q1597.88 1459.62 1602.65 1454.42 Q1607.43 1449.22 1607.43 1440.63 Q1607.43 1432.46 1602.81 1427.74 Q1598.25 1423.02 1590.83 1423.02 Q1586.21 1423.02 1582.5 1425.14 Q1578.79 1427.21 1576.66 1430.55 L1567.7 1429.38 L1575.23 1389.44 L1613.9 1389.44 L1613.9 1398.56 L1582.87 1398.56 L1578.68 1419.46 Q1585.68 1414.58 1593.37 1414.58 Q1603.56 1414.58 1610.56 1421.64 Q1617.56 1428.69 1617.56 1439.78 Q1617.56 1450.33 1611.41 1458.02 Q1603.93 1467.47 1590.99 1467.47 Q1580.38 1467.47 1573.64 1461.53 Q1566.96 1455.58 1566 1445.77 Z" fill="#000000" fill-rule="nonzero" fill-opacity="1" /><path clip-path="url(#clip040)" d="M1926 1466.14 L1916.45 1466.14 L1916.45 1405.3 Q1913 1408.59 1907.38 1411.88 Q1901.81 1415.17 1897.35 1416.81 L1897.35 1407.58 Q1905.36 1403.82 1911.36 1398.46 Q1917.35 1393.1 1919.84 1388.06 L1926 1388.06 L1926 1466.14 Z" fill="#000000" fill-rule="nonzero" fill-opacity="1" /><path clip-path="url(#clip040)" d="M1950.45 1427.79 Q1950.45 1414 1953.26 1405.62 Q1956.12 1397.18 1961.69 1392.62 Q1967.32 1388.06 1975.8 1388.06 Q1982.06 1388.06 1986.78 1390.61 Q1991.5 1393.1 1994.58 1397.87 Q1997.66 1402.6 1999.41 1409.44 Q2001.16 1416.23 2001.16 1427.79 Q2001.16 1441.48 1998.35 1449.91 Q1995.54 1458.29 1989.91 1462.9 Q1984.34 1467.47 1975.8 1467.47 Q1964.56 1467.47 1958.14 1459.4 Q1950.45 1449.7 1950.45 1427.79 M1960.26 1427.79 Q1960.26 1446.94 1964.72 1453.3 Q1969.23 1459.62 1975.8 1459.62 Q1982.38 1459.62 1986.84 1453.25 Q1991.34 1446.89 1991.34 1427.79 Q1991.34 1408.59 1986.84 1402.28 Q1982.38 1395.96 1975.7 1395.96 Q1969.12 1395.96 1965.19 1401.53 Q1960.26 1408.64 1960.26 1427.79 Z" fill="#000000" fill-rule="nonzero" fill-opacity="1" /><path clip-path="url(#clip040)" d="M2016.22 1466.14 L2016.22 1455.27 L2027.1 1455.27 L2027.1 1466.14 L2016.22 1466.14 Z" fill="#000000" fill-rule="nonzero" fill-opacity="1" /><path clip-path="url(#clip040)" d="M2041.05 1427.79 Q2041.05 1414 2043.86 1405.62 Q2046.72 1397.18 2052.29 1392.62 Q2057.91 1388.06 2066.4 1388.06 Q2072.66 1388.06 2077.38 1390.61 Q2082.1 1393.1 2085.18 1397.87 Q2088.25 1402.6 2090 1409.44 Q2091.75 1416.23 2091.75 1427.79 Q2091.75 1441.48 2088.94 1449.91 Q2086.13 1458.29 2080.51 1462.9 Q2074.94 1467.47 2066.4 1467.47 Q2055.15 1467.47 2048.74 1459.4 Q2041.05 1449.7 2041.05 1427.79 M2050.86 1427.79 Q2050.86 1446.94 2055.31 1453.3 Q2059.82 1459.62 2066.4 1459.62 Q2072.98 1459.62 2077.43 1453.25 Q2081.94 1446.89 2081.94 1427.79 Q2081.94 1408.59 2077.43 1402.28 Q2072.98 1395.96 2066.29 1395.96 Q2059.72 1395.96 2055.79 1401.53 Q2050.86 1408.64 2050.86 1427.79 Z" fill="#000000" fill-rule="nonzero" fill-opacity="1" /><path clip-path="url(#clip040)" d="M1267.13 1577.55 L1277 1578.77 Q1274.66 1587.42 1268.35 1592.19 Q1262.04 1596.96 1252.23 1596.96 Q1239.87 1596.96 1232.6 1589.38 Q1225.39 1581.74 1225.39 1568 Q1225.39 1553.79 1232.71 1545.94 Q1240.03 1538.09 1251.7 1538.09 Q1262.99 1538.09 1270.16 1545.78 Q1277.32 1553.47 1277.32 1567.42 Q1277.32 1568.27 1277.26 1569.97 L1235.25 1569.97 Q1235.78 1579.25 1240.5 1584.18 Q1245.23 1589.11 1252.28 1589.11 Q1257.53 1589.11 1261.24 1586.36 Q1264.96 1583.6 1267.13 1577.55 M1235.78 1562.12 L1267.24 1562.12 Q1266.6 1555.01 1263.63 1551.45 Q1259.07 1545.94 1251.8 1545.94 Q1245.23 1545.94 1240.72 1550.34 Q1236.26 1554.74 1235.78 1562.12 Z" fill="#000000" fill-rule="nonzero" fill-opacity="1" /><path clip-path="url(#clip040)" d="M1288.99 1617.28 L1288.99 1539.36 L1297.68 1539.36 L1297.68 1546.68 Q1300.76 1542.38 1304.63 1540.26 Q1308.5 1538.09 1314.02 1538.09 Q1321.24 1538.09 1326.75 1541.8 Q1332.27 1545.51 1335.08 1552.3 Q1337.89 1559.04 1337.89 1567.1 Q1337.89 1575.75 1334.76 1582.7 Q1331.68 1589.59 1325.74 1593.3 Q1319.86 1596.96 1313.33 1596.96 Q1308.56 1596.96 1304.74 1594.95 Q1300.97 1592.93 1298.53 1589.86 L1298.53 1617.28 L1288.99 1617.28 M1297.63 1567.84 Q1297.63 1578.72 1302.03 1583.92 Q1306.44 1589.11 1312.7 1589.11 Q1319.06 1589.11 1323.57 1583.76 Q1328.13 1578.35 1328.13 1567.05 Q1328.13 1556.28 1323.68 1550.92 Q1319.27 1545.57 1313.12 1545.57 Q1307.02 1545.57 1302.3 1551.3 Q1297.63 1556.97 1297.63 1567.84 Z" fill="#000000" fill-rule="nonzero" fill-opacity="1" /><path clip-path="url(#clip040)" d="M1345.85 1567.53 Q1345.85 1551.88 1354.55 1544.35 Q1361.81 1538.09 1372.26 1538.09 Q1383.88 1538.09 1391.25 1545.73 Q1398.62 1553.31 1398.62 1566.73 Q1398.62 1577.6 1395.34 1583.86 Q1392.1 1590.07 1385.84 1593.52 Q1379.63 1596.96 1372.26 1596.96 Q1360.43 1596.96 1353.11 1589.38 Q1345.85 1581.79 1345.85 1567.53 M1355.66 1567.53 Q1355.66 1578.35 1360.38 1583.76 Q1365.1 1589.11 1372.26 1589.11 Q1379.37 1589.11 1384.09 1583.7 Q1388.81 1578.29 1388.81 1567.21 Q1388.81 1556.76 1384.04 1551.4 Q1379.32 1545.99 1372.26 1545.99 Q1365.1 1545.99 1360.38 1551.35 Q1355.66 1556.71 1355.66 1567.53 Z" fill="#000000" fill-rule="nonzero" fill-opacity="1" /><path clip-path="url(#clip040)" d="M1446.57 1575.06 L1455.96 1576.28 Q1454.42 1585.99 1448.06 1591.5 Q1441.75 1596.96 1432.52 1596.96 Q1420.95 1596.96 1413.9 1589.43 Q1406.9 1581.85 1406.9 1567.74 Q1406.9 1558.62 1409.92 1551.77 Q1412.95 1544.93 1419.1 1541.54 Q1425.3 1538.09 1432.57 1538.09 Q1441.75 1538.09 1447.58 1542.76 Q1453.42 1547.37 1455.06 1555.91 L1445.78 1557.34 Q1444.45 1551.67 1441.06 1548.8 Q1437.72 1545.94 1432.94 1545.94 Q1425.73 1545.94 1421.22 1551.14 Q1416.71 1556.28 1416.71 1567.47 Q1416.71 1578.82 1421.06 1583.97 Q1425.41 1589.11 1432.41 1589.11 Q1438.03 1589.11 1441.8 1585.67 Q1445.57 1582.22 1446.57 1575.06 Z" fill="#000000" fill-rule="nonzero" fill-opacity="1" /><path clip-path="url(#clip040)" d="M1464.13 1595.69 L1464.13 1517.93 L1473.68 1517.93 L1473.68 1545.83 Q1480.36 1538.09 1490.55 1538.09 Q1496.81 1538.09 1501.42 1540.58 Q1506.03 1543.02 1508 1547.37 Q1510.01 1551.72 1510.01 1559.99 L1510.01 1595.69 L1500.46 1595.69 L1500.46 1559.99 Q1500.46 1552.83 1497.34 1549.6 Q1494.26 1546.31 1488.58 1546.31 Q1484.34 1546.31 1480.57 1548.54 Q1476.86 1550.71 1475.27 1554.48 Q1473.68 1558.24 1473.68 1564.87 L1473.68 1595.69 L1464.13 1595.69 Z" fill="#000000" fill-rule="nonzero" fill-opacity="1" /><polyline clip-path="url(#clip040)" style="stroke:#000000; stroke-linecap:round; stroke-linejoin:round; stroke-width:4; stroke-opacity:1; fill:none" points="382.644,1349.74 382.644,47.2441 "/>
<polyline clip-path="url(#clip040)" style="stroke:#000000; stroke-linecap:round; stroke-linejoin:round; stroke-width:2; stroke-opacity:0.5; fill:none" points="2352.76,1349.74 2352.76,47.2441 "/>
<polyline clip-path="url(#clip040)" style="stroke:#000000; stroke-linecap:round; stroke-linejoin:round; stroke-width:4; stroke-opacity:1; fill:none" points="382.644,1241.5 401.542,1241.5 "/>
<polyline clip-path="url(#clip040)" style="stroke:#000000; stroke-linecap:round; stroke-linejoin:round; stroke-width:4; stroke-opacity:1; fill:none" points="382.644,1045.51 401.542,1045.51 "/>
<polyline clip-path="url(#clip040)" style="stroke:#000000; stroke-linecap:round; stroke-linejoin:round; stroke-width:4; stroke-opacity:1; fill:none" points="382.644,849.531 401.542,849.531 "/>
<polyline clip-path="url(#clip040)" style="stroke:#000000; stroke-linecap:round; stroke-linejoin:round; stroke-width:4; stroke-opacity:1; fill:none" points="382.644,653.547 401.542,653.547 "/>
<polyline clip-path="url(#clip040)" style="stroke:#000000; stroke-linecap:round; stroke-linejoin:round; stroke-width:4; stroke-opacity:1; fill:none" points="382.644,457.564 401.542,457.564 "/>
<polyline clip-path="url(#clip040)" style="stroke:#000000; stroke-linecap:round; stroke-linejoin:round; stroke-width:4; stroke-opacity:1; fill:none" points="382.644,261.58 401.542,261.58 "/>
<polyline clip-path="url(#clip040)" style="stroke:#000000; stroke-linecap:round; stroke-linejoin:round; stroke-width:4; stroke-opacity:1; fill:none" points="382.644,65.597 401.542,65.597 "/>
<path clip-path="url(#clip040)" d="M144.712 1242.03 Q144.712 1228.24 147.524 1219.86 Q150.388 1211.42 155.957 1206.86 Q161.58 1202.3 170.067 1202.3 Q176.326 1202.3 181.046 1204.85 Q185.767 1207.34 188.844 1212.11 Q191.92 1216.83 193.67 1223.68 Q195.421 1230.46 195.421 1242.03 Q195.421 1255.71 192.61 1264.15 Q189.798 1272.53 184.176 1277.14 Q178.606 1281.7 170.067 1281.7 Q158.822 1281.7 152.403 1273.64 Q144.712 1263.93 144.712 1242.03 M154.525 1242.03 Q154.525 1261.18 158.981 1267.54 Q163.489 1273.85 170.067 1273.85 Q176.644 1273.85 181.099 1267.49 Q185.608 1261.12 185.608 1242.03 Q185.608 1222.83 181.099 1216.51 Q176.644 1210.2 169.96 1210.2 Q163.383 1210.2 159.458 1215.77 Q154.525 1222.88 154.525 1242.03 Z" fill="#000000" fill-rule="nonzero" fill-opacity="1" /><path clip-path="url(#clip040)" d="M210.485 1280.38 L210.485 1269.5 L221.358 1269.5 L221.358 1280.38 L210.485 1280.38 Z" fill="#000000" fill-rule="nonzero" fill-opacity="1" /><path clip-path="url(#clip040)" d="M235.309 1242.03 Q235.309 1228.24 238.12 1219.86 Q240.984 1211.42 246.554 1206.86 Q252.176 1202.3 260.663 1202.3 Q266.922 1202.3 271.643 1204.85 Q276.363 1207.34 279.44 1212.11 Q282.516 1216.83 284.267 1223.68 Q286.017 1230.46 286.017 1242.03 Q286.017 1255.71 283.206 1264.15 Q280.395 1272.53 274.772 1277.14 Q269.203 1281.7 260.663 1281.7 Q249.418 1281.7 243 1273.64 Q235.309 1263.93 235.309 1242.03 M245.121 1242.03 Q245.121 1261.18 249.577 1267.54 Q254.086 1273.85 260.663 1273.85 Q267.24 1273.85 271.696 1267.49 Q276.204 1261.12 276.204 1242.03 Q276.204 1222.83 271.696 1216.51 Q267.24 1210.2 260.557 1210.2 Q253.979 1210.2 250.054 1215.77 Q245.121 1222.88 245.121 1242.03 Z" fill="#000000" fill-rule="nonzero" fill-opacity="1" /><path clip-path="url(#clip040)" d="M345.265 1221.66 L335.771 1222.4 Q334.498 1216.78 332.164 1214.23 Q328.292 1210.15 322.616 1210.15 Q318.055 1210.15 314.607 1212.7 Q310.098 1215.98 307.499 1222.3 Q304.9 1228.61 304.794 1240.28 Q308.242 1235.03 313.228 1232.48 Q318.214 1229.93 323.677 1229.93 Q333.225 1229.93 339.908 1236.99 Q346.644 1243.99 346.644 1255.13 Q346.644 1262.45 343.462 1268.76 Q340.332 1275.02 334.816 1278.36 Q329.3 1281.7 322.298 1281.7 Q310.363 1281.7 302.831 1272.95 Q295.299 1264.15 295.299 1243.99 Q295.299 1221.45 303.627 1211.21 Q310.894 1202.3 323.2 1202.3 Q332.376 1202.3 338.211 1207.44 Q344.098 1212.59 345.265 1221.66 M306.279 1255.18 Q306.279 1260.12 308.348 1264.62 Q310.469 1269.13 314.235 1271.52 Q318.001 1273.85 322.139 1273.85 Q328.186 1273.85 332.535 1268.97 Q336.885 1264.09 336.885 1255.71 Q336.885 1247.65 332.588 1243.04 Q328.292 1238.37 321.767 1238.37 Q315.296 1238.37 310.788 1243.04 Q306.279 1247.65 306.279 1255.18 Z" fill="#000000" fill-rule="nonzero" fill-opacity="1" /><path clip-path="url(#clip040)" d="M144.5 1046.04 Q144.5 1032.25 147.311 1023.87 Q150.176 1015.44 155.745 1010.88 Q161.368 1006.32 169.854 1006.32 Q176.113 1006.32 180.834 1008.86 Q185.555 1011.35 188.631 1016.13 Q191.708 1020.85 193.458 1027.69 Q195.209 1034.48 195.209 1046.04 Q195.209 1059.73 192.397 1068.16 Q189.586 1076.54 183.964 1081.16 Q178.394 1085.72 169.854 1085.72 Q158.609 1085.72 152.191 1077.66 Q144.5 1067.95 144.5 1046.04 M154.313 1046.04 Q154.313 1065.19 158.769 1071.56 Q163.277 1077.87 169.854 1077.87 Q176.432 1077.87 180.887 1071.5 Q185.396 1065.14 185.396 1046.04 Q185.396 1026.84 180.887 1020.53 Q176.432 1014.22 169.748 1014.22 Q163.171 1014.22 159.246 1019.79 Q154.313 1026.9 154.313 1046.04 Z" fill="#000000" fill-rule="nonzero" fill-opacity="1" /><path clip-path="url(#clip040)" d="M210.273 1084.39 L210.273 1073.52 L221.146 1073.52 L221.146 1084.39 L210.273 1084.39 Z" fill="#000000" fill-rule="nonzero" fill-opacity="1" /><path clip-path="url(#clip040)" d="M235.096 1046.04 Q235.096 1032.25 237.908 1023.87 Q240.772 1015.44 246.341 1010.88 Q251.964 1006.32 260.451 1006.32 Q266.71 1006.32 271.43 1008.86 Q276.151 1011.35 279.228 1016.13 Q282.304 1020.85 284.054 1027.69 Q285.805 1034.48 285.805 1046.04 Q285.805 1059.73 282.994 1068.16 Q280.182 1076.54 274.56 1081.16 Q268.99 1085.72 260.451 1085.72 Q249.206 1085.72 242.788 1077.66 Q235.096 1067.95 235.096 1046.04 M244.909 1046.04 Q244.909 1065.19 249.365 1071.56 Q253.873 1077.87 260.451 1077.87 Q267.028 1077.87 271.483 1071.5 Q275.992 1065.14 275.992 1046.04 Q275.992 1026.84 271.483 1020.53 Q267.028 1014.22 260.345 1014.22 Q253.767 1014.22 249.842 1019.79 Q244.909 1026.9 244.909 1046.04 Z" fill="#000000" fill-rule="nonzero" fill-opacity="1" /><path clip-path="url(#clip040)" d="M310.204 1042.23 Q304.264 1040.05 301.399 1036.02 Q298.535 1031.99 298.535 1026.37 Q298.535 1017.88 304.635 1012.1 Q310.735 1006.32 320.866 1006.32 Q331.05 1006.32 337.256 1012.26 Q343.462 1018.14 343.462 1026.63 Q343.462 1032.04 340.598 1036.07 Q337.786 1040.05 332.005 1042.23 Q339.165 1044.56 342.878 1049.76 Q346.644 1054.96 346.644 1062.17 Q346.644 1072.14 339.59 1078.93 Q332.535 1085.72 321.025 1085.72 Q309.515 1085.72 302.46 1078.93 Q295.405 1072.09 295.405 1061.9 Q295.405 1054.32 299.225 1049.23 Q303.097 1044.08 310.204 1042.23 M308.295 1026.05 Q308.295 1031.56 311.849 1035.06 Q315.402 1038.57 321.078 1038.57 Q326.594 1038.57 330.095 1035.12 Q333.649 1031.62 333.649 1026.58 Q333.649 1021.33 329.989 1017.77 Q326.382 1014.17 320.972 1014.17 Q315.509 1014.17 311.902 1017.67 Q308.295 1021.17 308.295 1026.05 M305.218 1061.96 Q305.218 1066.04 307.128 1069.86 Q309.09 1073.68 312.909 1075.8 Q316.728 1077.87 321.131 1077.87 Q327.973 1077.87 332.429 1073.47 Q336.885 1069.06 336.885 1062.28 Q336.885 1055.38 332.27 1050.87 Q327.708 1046.36 320.813 1046.36 Q314.076 1046.36 309.621 1050.82 Q305.218 1055.27 305.218 1061.96 Z" fill="#000000" fill-rule="nonzero" fill-opacity="1" /><path clip-path="url(#clip040)" d="M144.924 850.061 Q144.924 836.27 147.736 827.889 Q150.6 819.456 156.169 814.894 Q161.792 810.332 170.279 810.332 Q176.538 810.332 181.258 812.878 Q185.979 815.371 189.056 820.145 Q192.132 824.866 193.883 831.708 Q195.633 838.498 195.633 850.061 Q195.633 863.746 192.822 872.18 Q190.01 880.56 184.388 885.175 Q178.819 889.737 170.279 889.737 Q159.034 889.737 152.616 881.674 Q144.924 871.967 144.924 850.061 M154.737 850.061 Q154.737 869.209 159.193 875.574 Q163.701 881.886 170.279 881.886 Q176.856 881.886 181.312 875.521 Q185.82 869.156 185.82 850.061 Q185.82 830.86 181.312 824.548 Q176.856 818.236 170.173 818.236 Q163.595 818.236 159.67 823.805 Q154.737 830.913 154.737 850.061 Z" fill="#000000" fill-rule="nonzero" fill-opacity="1" /><path clip-path="url(#clip040)" d="M210.697 888.411 L210.697 877.537 L221.571 877.537 L221.571 888.411 L210.697 888.411 Z" fill="#000000" fill-rule="nonzero" fill-opacity="1" /><path clip-path="url(#clip040)" d="M271.483 888.411 L261.936 888.411 L261.936 827.571 Q258.488 830.86 252.866 834.148 Q247.296 837.437 242.841 839.081 L242.841 829.852 Q250.85 826.086 256.844 820.729 Q262.838 815.371 265.33 810.332 L271.483 810.332 L271.483 888.411 Z" fill="#000000" fill-rule="nonzero" fill-opacity="1" /><path clip-path="url(#clip040)" d="M295.936 850.061 Q295.936 836.27 298.747 827.889 Q301.611 819.456 307.181 814.894 Q312.803 810.332 321.29 810.332 Q327.549 810.332 332.27 812.878 Q336.991 815.371 340.067 820.145 Q343.144 824.866 344.894 831.708 Q346.644 838.498 346.644 850.061 Q346.644 863.746 343.833 872.18 Q341.022 880.56 335.399 885.175 Q329.83 889.737 321.29 889.737 Q310.045 889.737 303.627 881.674 Q295.936 871.967 295.936 850.061 M305.749 850.061 Q305.749 869.209 310.204 875.574 Q314.713 881.886 321.29 881.886 Q327.867 881.886 332.323 875.521 Q336.832 869.156 336.832 850.061 Q336.832 830.86 332.323 824.548 Q327.867 818.236 321.184 818.236 Q314.607 818.236 310.682 823.805 Q305.749 830.913 305.749 850.061 Z" fill="#000000" fill-rule="nonzero" fill-opacity="1" /><path clip-path="url(#clip040)" d="M145.455 654.078 Q145.455 640.287 148.266 631.906 Q151.13 623.472 156.7 618.911 Q162.322 614.349 170.809 614.349 Q177.068 614.349 181.789 616.895 Q186.51 619.388 189.586 624.162 Q192.663 628.883 194.413 635.725 Q196.163 642.514 196.163 654.078 Q196.163 667.763 193.352 676.196 Q190.541 684.577 184.918 689.192 Q179.349 693.753 170.809 693.753 Q159.564 693.753 153.146 685.691 Q145.455 675.984 145.455 654.078 M155.268 654.078 Q155.268 673.226 159.723 679.591 Q164.232 685.903 170.809 685.903 Q177.386 685.903 181.842 679.538 Q186.351 673.173 186.351 654.078 Q186.351 634.876 181.842 628.564 Q177.386 622.252 170.703 622.252 Q164.126 622.252 160.201 627.822 Q155.268 634.929 155.268 654.078 Z" fill="#000000" fill-rule="nonzero" fill-opacity="1" /><path clip-path="url(#clip040)" d="M211.227 692.427 L211.227 681.554 L222.101 681.554 L222.101 692.427 L211.227 692.427 Z" fill="#000000" fill-rule="nonzero" fill-opacity="1" /><path clip-path="url(#clip040)" d="M272.014 692.427 L262.466 692.427 L262.466 631.588 Q259.018 634.876 253.396 638.165 Q247.827 641.454 243.371 643.098 L243.371 633.868 Q251.38 630.102 257.374 624.745 Q263.368 619.388 265.861 614.349 L272.014 614.349 L272.014 692.427 Z" fill="#000000" fill-rule="nonzero" fill-opacity="1" /><path clip-path="url(#clip040)" d="M346.644 683.251 L346.644 692.427 L295.246 692.427 Q295.14 688.979 296.36 685.797 Q298.323 680.546 302.619 675.454 Q306.969 670.362 315.137 663.678 Q327.814 653.282 332.27 647.235 Q336.725 641.135 336.725 635.725 Q336.725 630.049 332.641 626.177 Q328.61 622.252 322.086 622.252 Q315.19 622.252 311.053 626.39 Q306.916 630.527 306.863 637.847 L297.05 636.839 Q298.058 625.859 304.635 620.131 Q311.212 614.349 322.298 614.349 Q333.49 614.349 340.014 620.555 Q346.538 626.761 346.538 635.937 Q346.538 640.605 344.629 645.113 Q342.719 649.622 338.264 654.608 Q333.861 659.594 323.571 668.293 Q314.978 675.507 312.538 678.106 Q310.098 680.652 308.507 683.251 L346.644 683.251 Z" fill="#000000" fill-rule="nonzero" fill-opacity="1" /><path clip-path="url(#clip040)" d="M144.978 458.094 Q144.978 444.303 147.789 435.923 Q150.653 427.489 156.223 422.927 Q161.845 418.366 170.332 418.366 Q176.591 418.366 181.312 420.912 Q186.032 423.405 189.109 428.178 Q192.185 432.899 193.936 439.742 Q195.686 446.531 195.686 458.094 Q195.686 471.779 192.875 480.213 Q190.063 488.594 184.441 493.208 Q178.872 497.77 170.332 497.77 Q159.087 497.77 152.669 489.707 Q144.978 480.001 144.978 458.094 M154.79 458.094 Q154.79 477.242 159.246 483.608 Q163.755 489.92 170.332 489.92 Q176.909 489.92 181.365 483.555 Q185.873 477.189 185.873 458.094 Q185.873 438.893 181.365 432.581 Q176.909 426.269 170.226 426.269 Q163.648 426.269 159.723 431.838 Q154.79 438.946 154.79 458.094 Z" fill="#000000" fill-rule="nonzero" fill-opacity="1" /><path clip-path="url(#clip040)" d="M210.75 496.444 L210.75 485.57 L221.624 485.57 L221.624 496.444 L210.75 496.444 Z" fill="#000000" fill-rule="nonzero" fill-opacity="1" /><path clip-path="url(#clip040)" d="M271.536 496.444 L261.989 496.444 L261.989 435.604 Q258.541 438.893 252.919 442.182 Q247.349 445.47 242.894 447.114 L242.894 437.885 Q250.903 434.119 256.897 428.762 Q262.891 423.405 265.384 418.366 L271.536 418.366 L271.536 496.444 Z" fill="#000000" fill-rule="nonzero" fill-opacity="1" /><path clip-path="url(#clip040)" d="M326.594 496.444 L326.594 477.826 L292.859 477.826 L292.859 469.074 L328.345 418.684 L336.142 418.684 L336.142 469.074 L346.644 469.074 L346.644 477.826 L336.142 477.826 L336.142 496.444 L326.594 496.444 M326.594 469.074 L326.594 434.013 L302.248 469.074 L326.594 469.074 Z" fill="#000000" fill-rule="nonzero" fill-opacity="1" /><path clip-path="url(#clip040)" d="M144.712 262.111 Q144.712 248.32 147.524 239.939 Q150.388 231.505 155.957 226.944 Q161.58 222.382 170.067 222.382 Q176.326 222.382 181.046 224.928 Q185.767 227.421 188.844 232.195 Q191.92 236.916 193.67 243.758 Q195.421 250.548 195.421 262.111 Q195.421 275.796 192.61 284.229 Q189.798 292.61 184.176 297.225 Q178.606 301.786 170.067 301.786 Q158.822 301.786 152.403 293.724 Q144.712 284.017 144.712 262.111 M154.525 262.111 Q154.525 281.259 158.981 287.624 Q163.489 293.936 170.067 293.936 Q176.644 293.936 181.099 287.571 Q185.608 281.206 185.608 262.111 Q185.608 242.91 181.099 236.598 Q176.644 230.285 169.96 230.285 Q163.383 230.285 159.458 235.855 Q154.525 242.963 154.525 262.111 Z" fill="#000000" fill-rule="nonzero" fill-opacity="1" /><path clip-path="url(#clip040)" d="M210.485 300.46 L210.485 289.587 L221.358 289.587 L221.358 300.46 L210.485 300.46 Z" fill="#000000" fill-rule="nonzero" fill-opacity="1" /><path clip-path="url(#clip040)" d="M271.271 300.46 L261.724 300.46 L261.724 239.621 Q258.276 242.91 252.653 246.198 Q247.084 249.487 242.628 251.131 L242.628 241.902 Q250.638 238.136 256.632 232.778 Q262.625 227.421 265.118 222.382 L271.271 222.382 L271.271 300.46 Z" fill="#000000" fill-rule="nonzero" fill-opacity="1" /><path clip-path="url(#clip040)" d="M345.265 241.743 L335.771 242.485 Q334.498 236.863 332.164 234.317 Q328.292 230.232 322.616 230.232 Q318.055 230.232 314.607 232.778 Q310.098 236.067 307.499 242.379 Q304.9 248.691 304.794 260.36 Q308.242 255.109 313.228 252.563 Q318.214 250.017 323.677 250.017 Q333.225 250.017 339.908 257.072 Q346.644 264.073 346.644 275.212 Q346.644 282.532 343.462 288.844 Q340.332 295.103 334.816 298.445 Q329.3 301.786 322.298 301.786 Q310.363 301.786 302.831 293.035 Q295.299 284.229 295.299 264.073 Q295.299 241.53 303.627 231.293 Q310.894 222.382 323.2 222.382 Q332.376 222.382 338.211 227.527 Q344.098 232.672 345.265 241.743 M306.279 275.265 Q306.279 280.198 308.348 284.707 Q310.469 289.215 314.235 291.602 Q318.001 293.936 322.139 293.936 Q328.186 293.936 332.535 289.056 Q336.885 284.176 336.885 275.796 Q336.885 267.733 332.588 263.119 Q328.292 258.451 321.767 258.451 Q315.296 258.451 310.788 263.119 Q306.279 267.733 306.279 275.265 Z" fill="#000000" fill-rule="nonzero" fill-opacity="1" /><path clip-path="url(#clip040)" d="M144.5 66.1275 Q144.5 52.3365 147.311 43.9558 Q150.176 35.5221 155.745 30.9604 Q161.368 26.3988 169.854 26.3988 Q176.113 26.3988 180.834 28.9448 Q185.555 31.4378 188.631 36.2116 Q191.708 40.9324 193.458 47.7748 Q195.209 54.5642 195.209 66.1275 Q195.209 79.8124 192.397 88.2461 Q189.586 96.6268 183.964 101.241 Q178.394 105.803 169.854 105.803 Q158.609 105.803 152.191 97.7407 Q144.5 88.0339 144.5 66.1275 M154.313 66.1275 Q154.313 85.2757 158.769 91.6408 Q163.277 97.9528 169.854 97.9528 Q176.432 97.9528 180.887 91.5878 Q185.396 85.2227 185.396 66.1275 Q185.396 46.9262 180.887 40.6141 Q176.432 34.3021 169.748 34.3021 Q163.171 34.3021 159.246 39.8715 Q154.313 46.9792 154.313 66.1275 Z" fill="#000000" fill-rule="nonzero" fill-opacity="1" /><path clip-path="url(#clip040)" d="M210.273 104.477 L210.273 93.6034 L221.146 93.6034 L221.146 104.477 L210.273 104.477 Z" fill="#000000" fill-rule="nonzero" fill-opacity="1" /><path clip-path="url(#clip040)" d="M271.059 104.477 L261.511 104.477 L261.511 43.6375 Q258.064 46.9262 252.441 50.2148 Q246.872 53.5034 242.416 55.1477 L242.416 45.9184 Q250.426 42.1523 256.419 36.7951 Q262.413 31.4378 264.906 26.3988 L271.059 26.3988 L271.059 104.477 Z" fill="#000000" fill-rule="nonzero" fill-opacity="1" /><path clip-path="url(#clip040)" d="M310.204 62.3084 Q304.264 60.1337 301.399 56.1025 Q298.535 52.0713 298.535 46.4488 Q298.535 37.962 304.635 32.1804 Q310.735 26.3988 320.866 26.3988 Q331.05 26.3988 337.256 32.3395 Q343.462 38.2272 343.462 46.714 Q343.462 52.1243 340.598 56.1555 Q337.786 60.1337 332.005 62.3084 Q339.165 64.6423 342.878 69.8404 Q346.644 75.0386 346.644 82.2523 Q346.644 92.2243 339.59 99.0137 Q332.535 105.803 321.025 105.803 Q309.515 105.803 302.46 99.0137 Q295.405 92.1712 295.405 81.9871 Q295.405 74.4021 299.225 69.31 Q303.097 64.1649 310.204 62.3084 M308.295 46.1305 Q308.295 51.6469 311.849 55.1477 Q315.402 58.6485 321.078 58.6485 Q326.594 58.6485 330.095 55.2008 Q333.649 51.7 333.649 46.6609 Q333.649 41.4098 329.989 37.8559 Q326.382 34.249 320.972 34.249 Q315.509 34.249 311.902 37.7498 Q308.295 41.2506 308.295 46.1305 M305.218 82.0402 Q305.218 86.1244 307.128 89.9435 Q309.09 93.7625 312.909 95.8842 Q316.728 97.9528 321.131 97.9528 Q327.973 97.9528 332.429 93.5503 Q336.885 89.1478 336.885 82.3584 Q336.885 75.4629 332.27 70.9543 Q327.708 66.4457 320.813 66.4457 Q314.076 66.4457 309.621 70.9013 Q305.218 75.3568 305.218 82.0402 Z" fill="#000000" fill-rule="nonzero" fill-opacity="1" /><path clip-path="url(#clip040)" d="M85.1722 789.513 L7.41216 789.513 L7.41216 779.965 L85.1722 779.965 L85.1722 789.513 Z" fill="#000000" fill-rule="nonzero" fill-opacity="1" /><path clip-path="url(#clip040)" d="M57.0067 768.72 Q41.3592 768.72 33.8272 760.021 Q27.5682 752.754 27.5682 742.305 Q27.5682 730.689 35.2063 723.316 Q42.7914 715.943 56.2111 715.943 Q67.0847 715.943 73.3437 719.232 Q79.5497 722.467 82.9974 728.726 Q86.4452 734.932 86.4452 742.305 Q86.4452 754.133 78.8601 761.453 Q71.2751 768.72 57.0067 768.72 M57.0067 758.907 Q67.8273 758.907 73.2376 754.186 Q78.5949 749.466 78.5949 742.305 Q78.5949 735.197 73.1846 730.476 Q67.7743 725.756 56.6884 725.756 Q46.2391 725.756 40.8818 730.53 Q35.4715 735.25 35.4715 742.305 Q35.4715 749.466 40.8288 754.186 Q46.1861 758.907 57.0067 758.907 Z" fill="#000000" fill-rule="nonzero" fill-opacity="1" /><path clip-path="url(#clip040)" d="M68.3578 708.57 L66.8726 699.128 Q72.5481 698.333 75.5715 694.726 Q78.5949 691.066 78.5949 684.542 Q78.5949 677.965 75.9428 674.782 Q73.2376 671.6 69.6308 671.6 Q66.3952 671.6 64.5387 674.411 Q63.2657 676.373 61.3031 684.171 Q58.651 694.673 56.7415 698.757 Q54.7789 702.788 51.3842 704.91 Q47.9365 706.979 43.7992 706.979 Q40.0332 706.979 36.8506 705.281 Q33.615 703.531 31.4934 700.561 Q29.849 698.333 28.7352 694.514 Q27.5682 690.642 27.5682 686.239 Q27.5682 679.609 29.4778 674.623 Q31.3873 669.584 34.6759 667.197 Q37.9115 664.81 43.3748 663.908 L44.6478 673.244 Q40.2984 673.88 37.8584 676.957 Q35.4185 679.98 35.4185 685.55 Q35.4185 692.127 37.5932 694.938 Q39.768 697.749 42.6853 697.749 Q44.5418 697.749 46.0269 696.582 Q47.5652 695.416 48.573 692.923 Q49.1034 691.49 51.0129 684.489 Q53.7181 674.358 55.4685 670.38 Q57.1658 666.348 60.4544 664.068 Q63.7431 661.787 68.623 661.787 Q73.3968 661.787 77.6402 664.598 Q81.8305 667.356 84.1644 672.607 Q86.4452 677.859 86.4452 684.489 Q86.4452 695.469 81.8835 701.25 Q77.3219 706.979 68.3578 708.57 Z" fill="#000000" fill-rule="nonzero" fill-opacity="1" /><path clip-path="url(#clip040)" d="M68.3578 654.255 L66.8726 644.813 Q72.5481 644.018 75.5715 640.411 Q78.5949 636.751 78.5949 630.227 Q78.5949 623.649 75.9428 620.467 Q73.2376 617.284 69.6308 617.284 Q66.3952 617.284 64.5387 620.095 Q63.2657 622.058 61.3031 629.855 Q58.651 640.358 56.7415 644.442 Q54.7789 648.473 51.3842 650.595 Q47.9365 652.663 43.7992 652.663 Q40.0332 652.663 36.8506 650.966 Q33.615 649.216 31.4934 646.245 Q29.849 644.018 28.7352 640.198 Q27.5682 636.326 27.5682 631.924 Q27.5682 625.294 29.4778 620.308 Q31.3873 615.269 34.6759 612.882 Q37.9115 610.495 43.3748 609.593 L44.6478 618.929 Q40.2984 619.565 37.8584 622.641 Q35.4185 625.665 35.4185 631.234 Q35.4185 637.812 37.5932 640.623 Q39.768 643.434 42.6853 643.434 Q44.5418 643.434 46.0269 642.267 Q47.5652 641.1 48.573 638.607 Q49.1034 637.175 51.0129 630.173 Q53.7181 620.042 55.4685 616.064 Q57.1658 612.033 60.4544 609.752 Q63.7431 607.471 68.623 607.471 Q73.3968 607.471 77.6402 610.283 Q81.8305 613.041 84.1644 618.292 Q86.4452 623.543 86.4452 630.173 Q86.4452 641.153 81.8835 646.935 Q77.3219 652.663 68.3578 654.255 Z" fill="#000000" fill-rule="nonzero" fill-opacity="1" /><polyline clip-path="url(#clip042)" style="stroke:#009af9; stroke-linecap:round; stroke-linejoin:round; stroke-width:8; stroke-opacity:1; fill:none" points="382.644,47.2441 561.745,874.705 740.846,1023.44 919.947,1144.65 1099.05,1230.4 1278.15,1284.98 1457.25,1317.13 1636.35,1334.58 1815.45,1343.27 1994.55,1347.24 2173.65,1348.95 2352.76,1349.74 "/>
<circle clip-path="url(#clip042)" cx="382.644" cy="47.2441" r="3.6" fill="#009af9" fill-rule="evenodd" fill-opacity="1" stroke="#000000" stroke-opacity="1" stroke-width="3.2"/>
<circle clip-path="url(#clip042)" cx="561.745" cy="874.705" r="3.6" fill="#009af9" fill-rule="evenodd" fill-opacity="1" stroke="#000000" stroke-opacity="1" stroke-width="3.2"/>
<circle clip-path="url(#clip042)" cx="740.846" cy="1023.44" r="3.6" fill="#009af9" fill-rule="evenodd" fill-opacity="1" stroke="#000000" stroke-opacity="1" stroke-width="3.2"/>
<circle clip-path="url(#clip042)" cx="919.947" cy="1144.65" r="3.6" fill="#009af9" fill-rule="evenodd" fill-opacity="1" stroke="#000000" stroke-opacity="1" stroke-width="3.2"/>
<circle clip-path="url(#clip042)" cx="1099.05" cy="1230.4" r="3.6" fill="#009af9" fill-rule="evenodd" fill-opacity="1" stroke="#000000" stroke-opacity="1" stroke-width="3.2"/>
<circle clip-path="url(#clip042)" cx="1278.15" cy="1284.98" r="3.6" fill="#009af9" fill-rule="evenodd" fill-opacity="1" stroke="#000000" stroke-opacity="1" stroke-width="3.2"/>
<circle clip-path="url(#clip042)" cx="1457.25" cy="1317.13" r="3.6" fill="#009af9" fill-rule="evenodd" fill-opacity="1" stroke="#000000" stroke-opacity="1" stroke-width="3.2"/>
<circle clip-path="url(#clip042)" cx="1636.35" cy="1334.58" r="3.6" fill="#009af9" fill-rule="evenodd" fill-opacity="1" stroke="#000000" stroke-opacity="1" stroke-width="3.2"/>
<circle clip-path="url(#clip042)" cx="1815.45" cy="1343.27" r="3.6" fill="#009af9" fill-rule="evenodd" fill-opacity="1" stroke="#000000" stroke-opacity="1" stroke-width="3.2"/>
<circle clip-path="url(#clip042)" cx="1994.55" cy="1347.24" r="3.6" fill="#009af9" fill-rule="evenodd" fill-opacity="1" stroke="#000000" stroke-opacity="1" stroke-width="3.2"/>
<circle clip-path="url(#clip042)" cx="2173.65" cy="1348.95" r="3.6" fill="#009af9" fill-rule="evenodd" fill-opacity="1" stroke="#000000" stroke-opacity="1" stroke-width="3.2"/>
<circle clip-path="url(#clip042)" cx="2352.76" cy="1349.74" r="3.6" fill="#009af9" fill-rule="evenodd" fill-opacity="1" stroke="#000000" stroke-opacity="1" stroke-width="3.2"/>
<polyline clip-path="url(#clip042)" style="stroke:#e26f46; stroke-linecap:round; stroke-linejoin:round; stroke-width:8; stroke-opacity:1; fill:none" points="382.644,611.101 561.745,940.483 740.846,1055.23 919.947,1133.87 1099.05,1178.92 1278.15,1200.23 1457.25,1207.59 1636.35,1207.52 1815.45,1204.66 1994.55,1201.33 2173.65,1198.56 2352.76,1196.64 "/>
<circle clip-path="url(#clip042)" cx="382.644" cy="611.101" r="3.6" fill="#e26f46" fill-rule="evenodd" fill-opacity="1" stroke="#000000" stroke-opacity="1" stroke-width="3.2"/>
<circle clip-path="url(#clip042)" cx="561.745" cy="940.483" r="3.6" fill="#e26f46" fill-rule="evenodd" fill-opacity="1" stroke="#000000" stroke-opacity="1" stroke-width="3.2"/>
<circle clip-path="url(#clip042)" cx="740.846" cy="1055.23" r="3.6" fill="#e26f46" fill-rule="evenodd" fill-opacity="1" stroke="#000000" stroke-opacity="1" stroke-width="3.2"/>
<circle clip-path="url(#clip042)" cx="919.947" cy="1133.87" r="3.6" fill="#e26f46" fill-rule="evenodd" fill-opacity="1" stroke="#000000" stroke-opacity="1" stroke-width="3.2"/>
<circle clip-path="url(#clip042)" cx="1099.05" cy="1178.92" r="3.6" fill="#e26f46" fill-rule="evenodd" fill-opacity="1" stroke="#000000" stroke-opacity="1" stroke-width="3.2"/>
<circle clip-path="url(#clip042)" cx="1278.15" cy="1200.23" r="3.6" fill="#e26f46" fill-rule="evenodd" fill-opacity="1" stroke="#000000" stroke-opacity="1" stroke-width="3.2"/>
<circle clip-path="url(#clip042)" cx="1457.25" cy="1207.59" r="3.6" fill="#e26f46" fill-rule="evenodd" fill-opacity="1" stroke="#000000" stroke-opacity="1" stroke-width="3.2"/>
<circle clip-path="url(#clip042)" cx="1636.35" cy="1207.52" r="3.6" fill="#e26f46" fill-rule="evenodd" fill-opacity="1" stroke="#000000" stroke-opacity="1" stroke-width="3.2"/>
<circle clip-path="url(#clip042)" cx="1815.45" cy="1204.66" r="3.6" fill="#e26f46" fill-rule="evenodd" fill-opacity="1" stroke="#000000" stroke-opacity="1" stroke-width="3.2"/>
<circle clip-path="url(#clip042)" cx="1994.55" cy="1201.33" r="3.6" fill="#e26f46" fill-rule="evenodd" fill-opacity="1" stroke="#000000" stroke-opacity="1" stroke-width="3.2"/>
<circle clip-path="url(#clip042)" cx="2173.65" cy="1198.56" r="3.6" fill="#e26f46" fill-rule="evenodd" fill-opacity="1" stroke="#000000" stroke-opacity="1" stroke-width="3.2"/>
<circle clip-path="url(#clip042)" cx="2352.76" cy="1196.64" r="3.6" fill="#e26f46" fill-rule="evenodd" fill-opacity="1" stroke="#000000" stroke-opacity="1" stroke-width="3.2"/>
<path clip-path="url(#clip040)" d="M1631.26 440.581 L2287.09 440.581 L2287.09 90.6606 L1631.26 90.6606  Z" fill="#ffffff" fill-rule="evenodd" fill-opacity="1"/>
<polyline clip-path="url(#clip040)" style="stroke:#000000; stroke-linecap:round; stroke-linejoin:round; stroke-width:4; stroke-opacity:1; fill:none" points="1631.26,440.581 2287.09,440.581 2287.09,90.6606 1631.26,90.6606 1631.26,440.581 "/>
<polyline clip-path="url(#clip040)" style="stroke:#009af9; stroke-linecap:round; stroke-linejoin:round; stroke-width:18; stroke-opacity:1; fill:none" points="1653.15,207.301 1784.49,207.301 "/>
<circle clip-path="url(#clip040)" cx="1718.82" cy="207.301" r="8.10746" fill="#009af9" fill-rule="evenodd" fill-opacity="1" stroke="#000000" stroke-opacity="1" stroke-width="7.20663"/>
<path clip-path="url(#clip040)" d="M1832.48 237.641 L1833.86 246.075 Q1829.82 246.923 1826.64 246.923 Q1821.44 246.923 1818.58 245.279 Q1815.72 243.635 1814.55 240.982 Q1813.38 238.277 1813.38 229.684 L1813.38 197.276 L1806.38 197.276 L1806.38 189.85 L1813.38 189.85 L1813.38 175.9 L1822.88 170.171 L1822.88 189.85 L1832.48 189.85 L1832.48 197.276 L1822.88 197.276 L1822.88 230.215 Q1822.88 234.299 1823.35 235.466 Q1823.88 236.633 1825 237.323 Q1826.16 238.012 1828.29 238.012 Q1829.88 238.012 1832.48 237.641 Z" fill="#000000" fill-rule="nonzero" fill-opacity="1" /><path clip-path="url(#clip040)" d="M1841.71 246.181 L1841.71 189.85 L1850.3 189.85 L1850.3 198.39 Q1853.59 192.396 1856.35 190.486 Q1859.16 188.577 1862.5 188.577 Q1867.33 188.577 1872.31 191.653 L1869.02 200.511 Q1865.52 198.443 1862.02 198.443 Q1858.89 198.443 1856.4 200.352 Q1853.91 202.209 1852.84 205.55 Q1851.25 210.642 1851.25 216.689 L1851.25 246.181 L1841.71 246.181 Z" fill="#000000" fill-rule="nonzero" fill-opacity="1" /><path clip-path="url(#clip040)" d="M1914.74 239.232 Q1909.44 243.741 1904.51 245.597 Q1899.63 247.454 1894.01 247.454 Q1884.72 247.454 1879.74 242.945 Q1874.75 238.383 1874.75 231.329 Q1874.75 227.191 1876.61 223.797 Q1878.52 220.349 1881.54 218.28 Q1884.62 216.212 1888.44 215.151 Q1891.25 214.408 1896.92 213.719 Q1908.49 212.34 1913.95 210.43 Q1914 208.468 1914 207.937 Q1914 202.102 1911.3 199.716 Q1907.64 196.48 1900.42 196.48 Q1893.69 196.48 1890.45 198.867 Q1887.27 201.201 1885.73 207.195 L1876.4 205.922 Q1877.67 199.928 1880.59 196.268 Q1883.5 192.555 1889.02 190.592 Q1894.54 188.577 1901.8 188.577 Q1909.02 188.577 1913.52 190.274 Q1918.03 191.971 1920.16 194.57 Q1922.28 197.116 1923.13 201.042 Q1923.6 203.482 1923.6 209.847 L1923.6 222.577 Q1923.6 235.89 1924.19 239.444 Q1924.82 242.945 1926.63 246.181 L1916.65 246.181 Q1915.17 243.21 1914.74 239.232 M1913.95 217.909 Q1908.75 220.031 1898.35 221.516 Q1892.47 222.365 1890.03 223.425 Q1887.59 224.486 1886.26 226.555 Q1884.94 228.571 1884.94 231.064 Q1884.94 234.883 1887.8 237.429 Q1890.72 239.975 1896.29 239.975 Q1901.8 239.975 1906.1 237.588 Q1910.4 235.148 1912.41 230.957 Q1913.95 227.722 1913.95 221.41 L1913.95 217.909 Z" fill="#000000" fill-rule="nonzero" fill-opacity="1" /><path clip-path="url(#clip040)" d="M1938.45 179.4 L1938.45 168.421 L1948 168.421 L1948 179.4 L1938.45 179.4 M1938.45 246.181 L1938.45 189.85 L1948 189.85 L1948 246.181 L1938.45 246.181 Z" fill="#000000" fill-rule="nonzero" fill-opacity="1" /><path clip-path="url(#clip040)" d="M1962.54 246.181 L1962.54 189.85 L1971.13 189.85 L1971.13 197.859 Q1977.33 188.577 1989.06 188.577 Q1994.15 188.577 1998.39 190.433 Q2002.69 192.237 2004.81 195.207 Q2006.93 198.177 2007.78 202.262 Q2008.31 204.914 2008.31 211.544 L2008.31 246.181 L1998.76 246.181 L1998.76 211.915 Q1998.76 206.081 1997.65 203.216 Q1996.54 200.299 1993.67 198.602 Q1990.86 196.851 1987.04 196.851 Q1980.94 196.851 1976.49 200.723 Q1972.08 204.595 1972.08 215.416 L1972.08 246.181 L1962.54 246.181 Z" fill="#000000" fill-rule="nonzero" fill-opacity="1" /><path clip-path="url(#clip040)" d="M2014.15 267.769 L2014.15 260.873 L2077.43 260.873 L2077.43 267.769 L2014.15 267.769 Z" fill="#000000" fill-rule="nonzero" fill-opacity="1" /><path clip-path="url(#clip040)" d="M2083.15 246.181 L2083.15 168.421 L2092.7 168.421 L2092.7 246.181 L2083.15 246.181 Z" fill="#000000" fill-rule="nonzero" fill-opacity="1" /><path clip-path="url(#clip040)" d="M2103.95 218.015 Q2103.95 202.368 2112.65 194.836 Q2119.91 188.577 2130.36 188.577 Q2141.98 188.577 2149.35 196.215 Q2156.72 203.8 2156.72 217.22 Q2156.72 228.093 2153.44 234.352 Q2150.2 240.558 2143.94 244.006 Q2137.73 247.454 2130.36 247.454 Q2118.53 247.454 2111.21 239.869 Q2103.95 232.284 2103.95 218.015 M2113.76 218.015 Q2113.76 228.836 2118.48 234.246 Q2123.2 239.603 2130.36 239.603 Q2137.47 239.603 2142.19 234.193 Q2146.91 228.783 2146.91 217.697 Q2146.91 207.248 2142.14 201.89 Q2137.42 196.48 2130.36 196.48 Q2123.2 196.48 2118.48 201.837 Q2113.76 207.195 2113.76 218.015 Z" fill="#000000" fill-rule="nonzero" fill-opacity="1" /><path clip-path="url(#clip040)" d="M2164.1 229.366 L2173.54 227.881 Q2174.33 233.557 2177.94 236.58 Q2181.6 239.603 2188.12 239.603 Q2194.7 239.603 2197.88 236.951 Q2201.07 234.246 2201.07 230.639 Q2201.07 227.404 2198.26 225.547 Q2196.29 224.274 2188.5 222.312 Q2177.99 219.659 2173.91 217.75 Q2169.88 215.787 2167.76 212.393 Q2165.69 208.945 2165.69 204.808 Q2165.69 201.042 2167.39 197.859 Q2169.14 194.624 2172.11 192.502 Q2174.33 190.858 2178.15 189.744 Q2182.03 188.577 2186.43 188.577 Q2193.06 188.577 2198.04 190.486 Q2203.08 192.396 2205.47 195.684 Q2207.86 198.92 2208.76 204.383 L2199.42 205.656 Q2198.79 201.307 2195.71 198.867 Q2192.69 196.427 2187.12 196.427 Q2180.54 196.427 2177.73 198.602 Q2174.92 200.776 2174.92 203.694 Q2174.92 205.55 2176.08 207.035 Q2177.25 208.574 2179.74 209.581 Q2181.18 210.112 2188.18 212.021 Q2198.31 214.727 2202.29 216.477 Q2206.32 218.174 2208.6 221.463 Q2210.88 224.752 2210.88 229.631 Q2210.88 234.405 2208.07 238.649 Q2205.31 242.839 2200.06 245.173 Q2194.81 247.454 2188.18 247.454 Q2177.2 247.454 2171.42 242.892 Q2165.69 238.33 2164.1 229.366 Z" fill="#000000" fill-rule="nonzero" fill-opacity="1" /><path clip-path="url(#clip040)" d="M2218.41 229.366 L2227.85 227.881 Q2228.65 233.557 2232.26 236.58 Q2235.92 239.603 2242.44 239.603 Q2249.02 239.603 2252.2 236.951 Q2255.38 234.246 2255.38 230.639 Q2255.38 227.404 2252.57 225.547 Q2250.61 224.274 2242.81 222.312 Q2232.31 219.659 2228.22 217.75 Q2224.19 215.787 2222.07 212.393 Q2220 208.945 2220 204.808 Q2220 201.042 2221.7 197.859 Q2223.45 194.624 2226.42 192.502 Q2228.65 190.858 2232.47 189.744 Q2236.34 188.577 2240.74 188.577 Q2247.37 188.577 2252.36 190.486 Q2257.4 192.396 2259.79 195.684 Q2262.17 198.92 2263.07 204.383 L2253.74 205.656 Q2253.1 201.307 2250.03 198.867 Q2247 196.427 2241.43 196.427 Q2234.86 196.427 2232.04 198.602 Q2229.23 200.776 2229.23 203.694 Q2229.23 205.55 2230.4 207.035 Q2231.57 208.574 2234.06 209.581 Q2235.49 210.112 2242.49 212.021 Q2252.62 214.727 2256.6 216.477 Q2260.63 218.174 2262.91 221.463 Q2265.2 224.752 2265.2 229.631 Q2265.2 234.405 2262.38 238.649 Q2259.63 242.839 2254.37 245.173 Q2249.12 247.454 2242.49 247.454 Q2231.51 247.454 2225.73 242.892 Q2220 238.33 2218.41 229.366 Z" fill="#000000" fill-rule="nonzero" fill-opacity="1" /><polyline clip-path="url(#clip040)" style="stroke:#e26f46; stroke-linecap:round; stroke-linejoin:round; stroke-width:18; stroke-opacity:1; fill:none" points="1653.15,323.941 1784.49,323.941 "/>
<circle clip-path="url(#clip040)" cx="1718.82" cy="323.941" r="8.10746" fill="#e26f46" fill-rule="evenodd" fill-opacity="1" stroke="#000000" stroke-opacity="1" stroke-width="7.20663"/>
<path clip-path="url(#clip040)" d="M1827.81 362.821 L1806.38 306.49 L1816.46 306.49 L1828.55 340.225 Q1830.51 345.688 1832.16 351.576 Q1833.43 347.12 1835.71 340.861 L1848.23 306.49 L1858.04 306.49 L1836.72 362.821 L1827.81 362.821 Z" fill="#000000" fill-rule="nonzero" fill-opacity="1" /><path clip-path="url(#clip040)" d="M1903.23 355.872 Q1897.93 360.381 1893 362.237 Q1888.12 364.094 1882.5 364.094 Q1873.21 364.094 1868.23 359.585 Q1863.24 355.023 1863.24 347.969 Q1863.24 343.831 1865.1 340.437 Q1867.01 336.989 1870.03 334.92 Q1873.11 332.852 1876.93 331.791 Q1879.74 331.048 1885.41 330.359 Q1896.98 328.98 1902.44 327.07 Q1902.49 325.108 1902.49 324.577 Q1902.49 318.742 1899.79 316.356 Q1896.13 313.12 1888.91 313.12 Q1882.18 313.12 1878.94 315.507 Q1875.76 317.841 1874.22 323.835 L1864.89 322.562 Q1866.16 316.568 1869.08 312.908 Q1871.99 309.195 1877.51 307.232 Q1883.03 305.217 1890.29 305.217 Q1897.51 305.217 1902.01 306.914 Q1906.52 308.611 1908.65 311.21 Q1910.77 313.756 1911.62 317.682 Q1912.09 320.122 1912.09 326.487 L1912.09 339.217 Q1912.09 352.53 1912.68 356.084 Q1913.31 359.585 1915.12 362.821 L1905.14 362.821 Q1903.66 359.85 1903.23 355.872 M1902.44 334.549 Q1897.24 336.671 1886.84 338.156 Q1880.96 339.005 1878.52 340.065 Q1876.08 341.126 1874.75 343.195 Q1873.43 345.211 1873.43 347.704 Q1873.43 351.523 1876.29 354.069 Q1879.21 356.615 1884.78 356.615 Q1890.29 356.615 1894.59 354.228 Q1898.89 351.788 1900.9 347.597 Q1902.44 344.362 1902.44 338.05 L1902.44 334.549 Z" fill="#000000" fill-rule="nonzero" fill-opacity="1" /><path clip-path="url(#clip040)" d="M1926.68 362.821 L1926.68 285.061 L1936.23 285.061 L1936.23 362.821 L1926.68 362.821 Z" fill="#000000" fill-rule="nonzero" fill-opacity="1" /><path clip-path="url(#clip040)" d="M1942.22 384.409 L1942.22 377.513 L2005.5 377.513 L2005.5 384.409 L1942.22 384.409 Z" fill="#000000" fill-rule="nonzero" fill-opacity="1" /><path clip-path="url(#clip040)" d="M2011.23 362.821 L2011.23 285.061 L2020.78 285.061 L2020.78 362.821 L2011.23 362.821 Z" fill="#000000" fill-rule="nonzero" fill-opacity="1" /><path clip-path="url(#clip040)" d="M2032.02 334.655 Q2032.02 319.008 2040.72 311.476 Q2047.99 305.217 2058.44 305.217 Q2070.05 305.217 2077.43 312.855 Q2084.8 320.44 2084.8 333.86 Q2084.8 344.733 2081.51 350.992 Q2078.27 357.198 2072.02 360.646 Q2065.81 364.094 2058.44 364.094 Q2046.61 364.094 2039.29 356.509 Q2032.02 348.924 2032.02 334.655 M2041.83 334.655 Q2041.83 345.476 2046.56 350.886 Q2051.28 356.243 2058.44 356.243 Q2065.54 356.243 2070.26 350.833 Q2074.99 345.423 2074.99 334.337 Q2074.99 323.888 2070.21 318.53 Q2065.49 313.12 2058.44 313.12 Q2051.28 313.12 2046.56 318.477 Q2041.83 323.835 2041.83 334.655 Z" fill="#000000" fill-rule="nonzero" fill-opacity="1" /><path clip-path="url(#clip040)" d="M2092.17 346.006 L2101.61 344.521 Q2102.41 350.197 2106.02 353.22 Q2109.68 356.243 2116.2 356.243 Q2122.78 356.243 2125.96 353.591 Q2129.14 350.886 2129.14 347.279 Q2129.14 344.044 2126.33 342.187 Q2124.37 340.914 2116.57 338.952 Q2106.07 336.299 2101.98 334.39 Q2097.95 332.427 2095.83 329.033 Q2093.76 325.585 2093.76 321.448 Q2093.76 317.682 2095.46 314.499 Q2097.21 311.264 2100.18 309.142 Q2102.41 307.498 2106.23 306.384 Q2110.1 305.217 2114.5 305.217 Q2121.13 305.217 2126.12 307.126 Q2131.16 309.036 2133.54 312.324 Q2135.93 315.56 2136.83 321.023 L2127.5 322.296 Q2126.86 317.947 2123.78 315.507 Q2120.76 313.067 2115.19 313.067 Q2108.61 313.067 2105.8 315.242 Q2102.99 317.416 2102.99 320.334 Q2102.99 322.19 2104.16 323.675 Q2105.33 325.214 2107.82 326.221 Q2109.25 326.752 2116.25 328.661 Q2126.38 331.367 2130.36 333.117 Q2134.39 334.814 2136.67 338.103 Q2138.95 341.392 2138.95 346.271 Q2138.95 351.045 2136.14 355.289 Q2133.39 359.479 2128.13 361.813 Q2122.88 364.094 2116.25 364.094 Q2105.27 364.094 2099.49 359.532 Q2093.76 354.97 2092.17 346.006 Z" fill="#000000" fill-rule="nonzero" fill-opacity="1" /><path clip-path="url(#clip040)" d="M2146.49 346.006 L2155.93 344.521 Q2156.72 350.197 2160.33 353.22 Q2163.99 356.243 2170.51 356.243 Q2177.09 356.243 2180.27 353.591 Q2183.46 350.886 2183.46 347.279 Q2183.46 344.044 2180.65 342.187 Q2178.68 340.914 2170.89 338.952 Q2160.38 336.299 2156.3 334.39 Q2152.27 332.427 2150.15 329.033 Q2148.08 325.585 2148.08 321.448 Q2148.08 317.682 2149.78 314.499 Q2151.53 311.264 2154.5 309.142 Q2156.72 307.498 2160.54 306.384 Q2164.42 305.217 2168.82 305.217 Q2175.45 305.217 2180.43 307.126 Q2185.47 309.036 2187.86 312.324 Q2190.25 315.56 2191.15 321.023 L2181.81 322.296 Q2181.18 317.947 2178.1 315.507 Q2175.08 313.067 2169.51 313.067 Q2162.93 313.067 2160.12 315.242 Q2157.31 317.416 2157.31 320.334 Q2157.31 322.19 2158.47 323.675 Q2159.64 325.214 2162.13 326.221 Q2163.57 326.752 2170.57 328.661 Q2180.7 331.367 2184.68 333.117 Q2188.71 334.814 2190.99 338.103 Q2193.27 341.392 2193.27 346.271 Q2193.27 351.045 2190.46 355.289 Q2187.7 359.479 2182.45 361.813 Q2177.2 364.094 2170.57 364.094 Q2159.59 364.094 2153.81 359.532 Q2148.08 354.97 2146.49 346.006 Z" fill="#000000" fill-rule="nonzero" fill-opacity="1" /></svg>
