<?xml version="1.0" encoding="utf-8"?>
<svg xmlns="http://www.w3.org/2000/svg" xmlns:xlink="http://www.w3.org/1999/xlink" width="600" height="400" viewBox="0 0 2400 1600">
<defs>
  <clipPath id="clip620">
    <rect x="0" y="0" width="2400" height="1600"/>
  </clipPath>
</defs>
<path clip-path="url(#clip620)" d="M0 1600 L2400 1600 L2400 8.88178e-14 L0 8.88178e-14  Z" fill="#ffffff" fill-rule="evenodd" fill-opacity="1"/>
<defs>
  <clipPath id="clip621">
    <rect x="480" y="0" width="1681" height="1600"/>
  </clipPath>
</defs>
<defs>
  <clipPath id="clip622">
    <rect x="47" y="47" width="2307" height="1507"/>
  </clipPath>
</defs>
<path clip-path="url(#clip622)" d="M-120281 83712.8 L-120281 -42654.1 L-39026.3 -105838 L101711 -69358.5 L101711 57008.4 L20456.3 120192 L-120281 83712.8  Z" fill="#ffffff" fill-rule="evenodd" fill-opacity="1"/>
<polyline clip-path="url(#clip620)" style="stroke:#000000; stroke-linecap:round; stroke-linejoin:round; stroke-width:4; stroke-opacity:1; fill:none" points="606.32,1255.92 1359.08,1473.22 "/>
<polyline clip-path="url(#clip620)" style="stroke:#000000; stroke-linecap:round; stroke-linejoin:round; stroke-width:2; stroke-opacity:0.5; fill:none" points="1040.92,126.782 1793.68,344.084 "/>
<polyline clip-path="url(#clip620)" style="stroke:#000000; stroke-linecap:round; stroke-linejoin:round; stroke-width:4; stroke-opacity:1; fill:none" points="1359.08,1473.22 1793.68,1096.84 "/>
<polyline clip-path="url(#clip620)" style="stroke:#000000; stroke-linecap:round; stroke-linejoin:round; stroke-width:2; stroke-opacity:0.5; fill:none" points="606.32,503.16 1040.92,126.782 "/>
<polyline clip-path="url(#clip620)" style="stroke:#000000; stroke-linecap:round; stroke-linejoin:round; stroke-width:4; stroke-opacity:1; fill:none" points="606.32,1255.92 606.32,503.16 "/>
<polyline clip-path="url(#clip620)" style="stroke:#000000; stroke-linecap:round; stroke-linejoin:round; stroke-width:2; stroke-opacity:0.5; fill:none" points="1793.68,1096.84 1793.68,344.084 "/>
<circle clip-path="url(#clip622)" cx="1670.18" cy="1107.46" r="14.4" fill="#009af9" fill-rule="evenodd" fill-opacity="1" stroke="#000000" stroke-opacity="1" stroke-width="3.2"/>
<circle clip-path="url(#clip622)" cx="1355.34" cy="1087.82" r="14.4" fill="#009af9" fill-rule="evenodd" fill-opacity="1" stroke="#000000" stroke-opacity="1" stroke-width="3.2"/>
<path clip-path="url(#clip622)" d="M1132.99 1048.31 L1132.99 1080.31 L1164.99 1080.31 L1164.99 1048.31 L1132.99 1048.31 Z" fill="#009af9" fill-rule="evenodd" fill-opacity="1" stroke="#000000" stroke-opacity="1" stroke-width="3.2"/>
<circle clip-path="url(#clip622)" cx="902.417" cy="984.933" r="14.4" fill="#009af9" fill-rule="evenodd" fill-opacity="1" stroke="#000000" stroke-opacity="1" stroke-width="3.2"/>
<circle clip-path="url(#clip622)" cx="1363.06" cy="1142.53" r="14.4" fill="#009af9" fill-rule="evenodd" fill-opacity="1" stroke="#000000" stroke-opacity="1" stroke-width="3.2"/>
<circle clip-path="url(#clip622)" cx="1306" cy="1090.72" r="14.4" fill="#009af9" fill-rule="evenodd" fill-opacity="1" stroke="#000000" stroke-opacity="1" stroke-width="3.2"/>
<circle clip-path="url(#clip622)" cx="1773.55" cy="1095.66" r="14.4" fill="#009af9" fill-rule="evenodd" fill-opacity="1" stroke="#000000" stroke-opacity="1" stroke-width="3.2"/>
<circle clip-path="url(#clip622)" cx="1602.77" cy="1133.4" r="14.4" fill="#009af9" fill-rule="evenodd" fill-opacity="1" stroke="#000000" stroke-opacity="1" stroke-width="3.2"/>
<circle clip-path="url(#clip622)" cx="1502.93" cy="1158.15" r="14.4" fill="#009af9" fill-rule="evenodd" fill-opacity="1" stroke="#000000" stroke-opacity="1" stroke-width="3.2"/>
<path clip-path="url(#clip622)" d="M1003.92 1003.23 L1003.92 1035.23 L1035.92 1035.23 L1035.92 1003.23 L1003.92 1003.23 Z" fill="#009af9" fill-rule="evenodd" fill-opacity="1" stroke="#000000" stroke-opacity="1" stroke-width="3.2"/>
<circle clip-path="url(#clip622)" cx="1378.1" cy="1110.45" r="14.4" fill="#009af9" fill-rule="evenodd" fill-opacity="1" stroke="#000000" stroke-opacity="1" stroke-width="3.2"/>
<circle clip-path="url(#clip622)" cx="1793.68" cy="1096.84" r="14.4" fill="#009af9" fill-rule="evenodd" fill-opacity="1" stroke="#000000" stroke-opacity="1" stroke-width="3.2"/>
<circle clip-path="url(#clip622)" cx="1429.62" cy="1134.92" r="14.4" fill="#009af9" fill-rule="evenodd" fill-opacity="1" stroke="#000000" stroke-opacity="1" stroke-width="3.2"/>
<circle clip-path="url(#clip622)" cx="1253.29" cy="1068.84" r="14.4" fill="#009af9" fill-rule="evenodd" fill-opacity="1" stroke="#000000" stroke-opacity="1" stroke-width="3.2"/>
<circle clip-path="url(#clip622)" cx="1405.45" cy="1134.76" r="14.4" fill="#009af9" fill-rule="evenodd" fill-opacity="1" stroke="#000000" stroke-opacity="1" stroke-width="3.2"/>
<circle clip-path="url(#clip622)" cx="1706.96" cy="1102.4" r="14.4" fill="#009af9" fill-rule="evenodd" fill-opacity="1" stroke="#000000" stroke-opacity="1" stroke-width="3.2"/>
<circle clip-path="url(#clip622)" cx="1325.74" cy="1117.02" r="14.4" fill="#009af9" fill-rule="evenodd" fill-opacity="1" stroke="#000000" stroke-opacity="1" stroke-width="3.2"/>
<circle clip-path="url(#clip622)" cx="1406.99" cy="1089.35" r="14.4" fill="#009af9" fill-rule="evenodd" fill-opacity="1" stroke="#000000" stroke-opacity="1" stroke-width="3.2"/>
<path clip-path="url(#clip622)" d="M1126.21 1047.17 L1126.21 1079.17 L1158.21 1079.17 L1158.21 1047.17 L1126.21 1047.17 Z" fill="#009af9" fill-rule="evenodd" fill-opacity="1" stroke="#000000" stroke-opacity="1" stroke-width="3.2"/>
<circle clip-path="url(#clip622)" cx="1205.96" cy="1064.23" r="14.4" fill="#009af9" fill-rule="evenodd" fill-opacity="1" stroke="#000000" stroke-opacity="1" stroke-width="3.2"/>
<circle clip-path="url(#clip622)" cx="1641.13" cy="1103.7" r="14.4" fill="#009af9" fill-rule="evenodd" fill-opacity="1" stroke="#000000" stroke-opacity="1" stroke-width="3.2"/>
<circle clip-path="url(#clip622)" cx="1189.72" cy="1063.45" r="14.4" fill="#009af9" fill-rule="evenodd" fill-opacity="1" stroke="#000000" stroke-opacity="1" stroke-width="3.2"/>
<circle clip-path="url(#clip622)" cx="1337.18" cy="1137.78" r="14.4" fill="#009af9" fill-rule="evenodd" fill-opacity="1" stroke="#000000" stroke-opacity="1" stroke-width="3.2"/>
<circle clip-path="url(#clip622)" cx="1658.76" cy="1121.23" r="14.4" fill="#009af9" fill-rule="evenodd" fill-opacity="1" stroke="#000000" stroke-opacity="1" stroke-width="3.2"/>
<circle clip-path="url(#clip622)" cx="1529.65" cy="1134.85" r="14.4" fill="#009af9" fill-rule="evenodd" fill-opacity="1" stroke="#000000" stroke-opacity="1" stroke-width="3.2"/>
<circle clip-path="url(#clip622)" cx="1149.75" cy="1054.04" r="14.4" fill="#009af9" fill-rule="evenodd" fill-opacity="1" stroke="#000000" stroke-opacity="1" stroke-width="3.2"/>
<circle clip-path="url(#clip622)" cx="1103.32" cy="1048.11" r="14.4" fill="#009af9" fill-rule="evenodd" fill-opacity="1" stroke="#000000" stroke-opacity="1" stroke-width="3.2"/>
<path clip-path="url(#clip622)" d="M1153.52 1059.47 L1153.52 1091.47 L1185.52 1091.47 L1185.52 1059.47 L1153.52 1059.47 Z" fill="#009af9" fill-rule="evenodd" fill-opacity="1" stroke="#000000" stroke-opacity="1" stroke-width="3.2"/>
<circle clip-path="url(#clip622)" cx="1043.49" cy="1028.62" r="14.4" fill="#009af9" fill-rule="evenodd" fill-opacity="1" stroke="#000000" stroke-opacity="1" stroke-width="3.2"/>
<circle clip-path="url(#clip622)" cx="1716.41" cy="1100.08" r="14.4" fill="#009af9" fill-rule="evenodd" fill-opacity="1" stroke="#000000" stroke-opacity="1" stroke-width="3.2"/>
<circle clip-path="url(#clip622)" cx="1376.01" cy="1089.79" r="14.4" fill="#009af9" fill-rule="evenodd" fill-opacity="1" stroke="#000000" stroke-opacity="1" stroke-width="3.2"/>
<circle clip-path="url(#clip622)" cx="1439.71" cy="1105.91" r="14.4" fill="#009af9" fill-rule="evenodd" fill-opacity="1" stroke="#000000" stroke-opacity="1" stroke-width="3.2"/>
<circle clip-path="url(#clip622)" cx="921.508" cy="986.552" r="14.4" fill="#009af9" fill-rule="evenodd" fill-opacity="1" stroke="#000000" stroke-opacity="1" stroke-width="3.2"/>
<path clip-path="url(#clip622)" d="M1067.65 1027.23 L1067.65 1059.23 L1099.65 1059.23 L1099.65 1027.23 L1067.65 1027.23 Z" fill="#009af9" fill-rule="evenodd" fill-opacity="1" stroke="#000000" stroke-opacity="1" stroke-width="3.2"/>
<circle clip-path="url(#clip622)" cx="855.323" cy="965.131" r="14.4" fill="#009af9" fill-rule="evenodd" fill-opacity="1" stroke="#000000" stroke-opacity="1" stroke-width="3.2"/>
<circle clip-path="url(#clip622)" cx="1231.92" cy="1095.09" r="14.4" fill="#009af9" fill-rule="evenodd" fill-opacity="1" stroke="#000000" stroke-opacity="1" stroke-width="3.2"/>
<circle clip-path="url(#clip622)" cx="1707.08" cy="1103.21" r="14.4" fill="#009af9" fill-rule="evenodd" fill-opacity="1" stroke="#000000" stroke-opacity="1" stroke-width="3.2"/>
<path clip-path="url(#clip622)" d="M1010.32 1005.89 L1010.32 1037.89 L1042.32 1037.89 L1042.32 1005.89 L1010.32 1005.89 Z" fill="#009af9" fill-rule="evenodd" fill-opacity="1" stroke="#000000" stroke-opacity="1" stroke-width="3.2"/>
<circle clip-path="url(#clip622)" cx="1309.68" cy="1091.7" r="14.4" fill="#009af9" fill-rule="evenodd" fill-opacity="1" stroke="#000000" stroke-opacity="1" stroke-width="3.2"/>
<path clip-path="url(#clip622)" d="M1089.5 1035.31 L1089.5 1067.31 L1121.5 1067.31 L1121.5 1035.31 L1089.5 1035.31 Z" fill="#009af9" fill-rule="evenodd" fill-opacity="1" stroke="#000000" stroke-opacity="1" stroke-width="3.2"/>
<circle clip-path="url(#clip622)" cx="1115.56" cy="1046.82" r="14.4" fill="#009af9" fill-rule="evenodd" fill-opacity="1" stroke="#000000" stroke-opacity="1" stroke-width="3.2"/>
<circle clip-path="url(#clip622)" cx="1131.12" cy="1051.95" r="14.4" fill="#009af9" fill-rule="evenodd" fill-opacity="1" stroke="#000000" stroke-opacity="1" stroke-width="3.2"/>
<circle clip-path="url(#clip622)" cx="1094.05" cy="1041.15" r="14.4" fill="#009af9" fill-rule="evenodd" fill-opacity="1" stroke="#000000" stroke-opacity="1" stroke-width="3.2"/>
<circle clip-path="url(#clip622)" cx="1567.56" cy="1100.29" r="14.4" fill="#009af9" fill-rule="evenodd" fill-opacity="1" stroke="#000000" stroke-opacity="1" stroke-width="3.2"/>
<circle clip-path="url(#clip622)" cx="1439.86" cy="1090.04" r="14.4" fill="#009af9" fill-rule="evenodd" fill-opacity="1" stroke="#000000" stroke-opacity="1" stroke-width="3.2"/>
<circle clip-path="url(#clip622)" cx="1504.02" cy="1120.31" r="14.4" fill="#009af9" fill-rule="evenodd" fill-opacity="1" stroke="#000000" stroke-opacity="1" stroke-width="3.2"/>
<circle clip-path="url(#clip622)" cx="1613.63" cy="1104.25" r="14.4" fill="#009af9" fill-rule="evenodd" fill-opacity="1" stroke="#000000" stroke-opacity="1" stroke-width="3.2"/>
<circle clip-path="url(#clip622)" cx="1148.36" cy="1052.23" r="14.4" fill="#009af9" fill-rule="evenodd" fill-opacity="1" stroke="#000000" stroke-opacity="1" stroke-width="3.2"/>
<circle clip-path="url(#clip622)" cx="1341.16" cy="1097.08" r="14.4" fill="#009af9" fill-rule="evenodd" fill-opacity="1" stroke="#000000" stroke-opacity="1" stroke-width="3.2"/>
<circle clip-path="url(#clip622)" cx="1361.13" cy="1131.54" r="14.4" fill="#009af9" fill-rule="evenodd" fill-opacity="1" stroke="#000000" stroke-opacity="1" stroke-width="3.2"/>
<circle clip-path="url(#clip622)" cx="1035.7" cy="984.026" r="14.4" fill="#e26f46" fill-rule="evenodd" fill-opacity="1" stroke="#000000" stroke-opacity="1" stroke-width="3.2"/>
<path clip-path="url(#clip622)" d="M718.436 807.398 L718.436 839.398 L750.436 839.398 L750.436 807.398 L718.436 807.398 Z" fill="#e26f46" fill-rule="evenodd" fill-opacity="1" stroke="#000000" stroke-opacity="1" stroke-width="3.2"/>
<path clip-path="url(#clip622)" d="M904.093 872.147 L904.093 904.147 L936.093 904.147 L936.093 872.147 L904.093 872.147 Z" fill="#e26f46" fill-rule="evenodd" fill-opacity="1" stroke="#000000" stroke-opacity="1" stroke-width="3.2"/>
<path clip-path="url(#clip622)" d="M885.325 946.914 L885.325 978.914 L917.325 978.914 L917.325 946.914 L885.325 946.914 Z" fill="#e26f46" fill-rule="evenodd" fill-opacity="1" stroke="#000000" stroke-opacity="1" stroke-width="3.2"/>
<path clip-path="url(#clip622)" d="M995.938 994.334 L995.938 1026.33 L1027.94 1026.33 L1027.94 994.334 L995.938 994.334 Z" fill="#e26f46" fill-rule="evenodd" fill-opacity="1" stroke="#000000" stroke-opacity="1" stroke-width="3.2"/>
<path clip-path="url(#clip622)" d="M836.246 836.57 L836.246 868.57 L868.246 868.57 L868.246 836.57 L836.246 836.57 Z" fill="#e26f46" fill-rule="evenodd" fill-opacity="1" stroke="#000000" stroke-opacity="1" stroke-width="3.2"/>
<path clip-path="url(#clip622)" d="M819.461 869.423 L819.461 901.423 L851.461 901.423 L851.461 869.423 L819.461 869.423 Z" fill="#e26f46" fill-rule="evenodd" fill-opacity="1" stroke="#000000" stroke-opacity="1" stroke-width="3.2"/>
<path clip-path="url(#clip622)" d="M920.674 966.891 L920.674 998.891 L952.674 998.891 L952.674 966.891 L920.674 966.891 Z" fill="#e26f46" fill-rule="evenodd" fill-opacity="1" stroke="#000000" stroke-opacity="1" stroke-width="3.2"/>
<path clip-path="url(#clip622)" d="M735.999 828.315 L735.999 860.315 L767.999 860.315 L767.999 828.315 L735.999 828.315 Z" fill="#e26f46" fill-rule="evenodd" fill-opacity="1" stroke="#000000" stroke-opacity="1" stroke-width="3.2"/>
<circle clip-path="url(#clip622)" cx="1198.4" cy="1085.61" r="14.4" fill="#e26f46" fill-rule="evenodd" fill-opacity="1" stroke="#000000" stroke-opacity="1" stroke-width="3.2"/>
<path clip-path="url(#clip622)" d="M973.5 959.172 L973.5 991.172 L1005.5 991.172 L1005.5 959.172 L973.5 959.172 Z" fill="#e26f46" fill-rule="evenodd" fill-opacity="1" stroke="#000000" stroke-opacity="1" stroke-width="3.2"/>
<circle clip-path="url(#clip622)" cx="1231.61" cy="1100.48" r="14.4" fill="#e26f46" fill-rule="evenodd" fill-opacity="1" stroke="#000000" stroke-opacity="1" stroke-width="3.2"/>
<path clip-path="url(#clip622)" d="M1000 969.34 L1000 1001.34 L1032 1001.34 L1032 969.34 L1000 969.34 Z" fill="#e26f46" fill-rule="evenodd" fill-opacity="1" stroke="#000000" stroke-opacity="1" stroke-width="3.2"/>
<path clip-path="url(#clip622)" d="M909.516 951.787 L909.516 983.787 L941.516 983.787 L941.516 951.787 L909.516 951.787 Z" fill="#e26f46" fill-rule="evenodd" fill-opacity="1" stroke="#000000" stroke-opacity="1" stroke-width="3.2"/>
<path clip-path="url(#clip622)" d="M885.537 950.622 L885.537 982.622 L917.537 982.622 L917.537 950.622 L885.537 950.622 Z" fill="#e26f46" fill-rule="evenodd" fill-opacity="1" stroke="#000000" stroke-opacity="1" stroke-width="3.2"/>
<path clip-path="url(#clip622)" d="M809.75 782.802 L809.75 814.802 L841.75 814.802 L841.75 782.802 L809.75 782.802 Z" fill="#e26f46" fill-rule="evenodd" fill-opacity="1" stroke="#000000" stroke-opacity="1" stroke-width="3.2"/>
<path clip-path="url(#clip622)" d="M859.69 876.007 L859.69 908.007 L891.69 908.007 L891.69 876.007 L859.69 876.007 Z" fill="#e26f46" fill-rule="evenodd" fill-opacity="1" stroke="#000000" stroke-opacity="1" stroke-width="3.2"/>
<path clip-path="url(#clip622)" d="M999.685 985.285 L999.685 1017.28 L1031.69 1017.28 L1031.69 985.285 L999.685 985.285 Z" fill="#e26f46" fill-rule="evenodd" fill-opacity="1" stroke="#000000" stroke-opacity="1" stroke-width="3.2"/>
<path clip-path="url(#clip622)" d="M741.728 819.393 L741.728 851.393 L773.728 851.393 L773.728 819.393 L741.728 819.393 Z" fill="#e26f46" fill-rule="evenodd" fill-opacity="1" stroke="#000000" stroke-opacity="1" stroke-width="3.2"/>
<circle clip-path="url(#clip622)" cx="919.331" cy="977.648" r="14.4" fill="#e26f46" fill-rule="evenodd" fill-opacity="1" stroke="#000000" stroke-opacity="1" stroke-width="3.2"/>
<path clip-path="url(#clip622)" d="M906.472 950.318 L906.472 982.318 L938.472 982.318 L938.472 950.318 L906.472 950.318 Z" fill="#e26f46" fill-rule="evenodd" fill-opacity="1" stroke="#000000" stroke-opacity="1" stroke-width="3.2"/>
<circle clip-path="url(#clip622)" cx="1120.92" cy="1058.84" r="14.4" fill="#e26f46" fill-rule="evenodd" fill-opacity="1" stroke="#000000" stroke-opacity="1" stroke-width="3.2"/>
<path clip-path="url(#clip622)" d="M836.64 816.42 L836.64 848.42 L868.64 848.42 L868.64 816.42 L836.64 816.42 Z" fill="#e26f46" fill-rule="evenodd" fill-opacity="1" stroke="#000000" stroke-opacity="1" stroke-width="3.2"/>
<path clip-path="url(#clip622)" d="M973.023 933.593 L973.023 965.593 L1005.02 965.593 L1005.02 933.593 L973.023 933.593 Z" fill="#e26f46" fill-rule="evenodd" fill-opacity="1" stroke="#000000" stroke-opacity="1" stroke-width="3.2"/>
<path clip-path="url(#clip622)" d="M782.448 753.187 L782.448 785.187 L814.448 785.187 L814.448 753.187 L782.448 753.187 Z" fill="#e26f46" fill-rule="evenodd" fill-opacity="1" stroke="#000000" stroke-opacity="1" stroke-width="3.2"/>
<path clip-path="url(#clip622)" d="M921.29 937.926 L921.29 969.926 L953.29 969.926 L953.29 937.926 L921.29 937.926 Z" fill="#e26f46" fill-rule="evenodd" fill-opacity="1" stroke="#000000" stroke-opacity="1" stroke-width="3.2"/>
<path clip-path="url(#clip622)" d="M687.785 758.832 L687.785 790.832 L719.785 790.832 L719.785 758.832 L687.785 758.832 Z" fill="#e26f46" fill-rule="evenodd" fill-opacity="1" stroke="#000000" stroke-opacity="1" stroke-width="3.2"/>
<path clip-path="url(#clip622)" d="M596.355 488.902 L596.355 520.902 L628.355 520.902 L628.355 488.902 L596.355 488.902 Z" fill="#e26f46" fill-rule="evenodd" fill-opacity="1" stroke="#000000" stroke-opacity="1" stroke-width="3.2"/>
<path clip-path="url(#clip622)" d="M817.705 789.115 L817.705 821.115 L849.705 821.115 L849.705 789.115 L817.705 789.115 Z" fill="#e26f46" fill-rule="evenodd" fill-opacity="1" stroke="#000000" stroke-opacity="1" stroke-width="3.2"/>
<path clip-path="url(#clip622)" d="M646.311 689.134 L646.311 721.134 L678.311 721.134 L678.311 689.134 L646.311 689.134 Z" fill="#e26f46" fill-rule="evenodd" fill-opacity="1" stroke="#000000" stroke-opacity="1" stroke-width="3.2"/>
<path clip-path="url(#clip622)" d="M1023.49 1009.46 L1023.49 1041.46 L1055.49 1041.46 L1055.49 1009.46 L1023.49 1009.46 Z" fill="#e26f46" fill-rule="evenodd" fill-opacity="1" stroke="#000000" stroke-opacity="1" stroke-width="3.2"/>
<path clip-path="url(#clip622)" d="M823.559 839.634 L823.559 871.634 L855.559 871.634 L855.559 839.634 L823.559 839.634 Z" fill="#e26f46" fill-rule="evenodd" fill-opacity="1" stroke="#000000" stroke-opacity="1" stroke-width="3.2"/>
<path clip-path="url(#clip622)" d="M1060.86 1023.81 L1060.86 1055.81 L1092.86 1055.81 L1092.86 1023.81 L1060.86 1023.81 Z" fill="#e26f46" fill-rule="evenodd" fill-opacity="1" stroke="#000000" stroke-opacity="1" stroke-width="3.2"/>
<path clip-path="url(#clip622)" d="M788.348 842.64 L788.348 874.64 L820.348 874.64 L820.348 842.64 L788.348 842.64 Z" fill="#e26f46" fill-rule="evenodd" fill-opacity="1" stroke="#000000" stroke-opacity="1" stroke-width="3.2"/>
<path clip-path="url(#clip622)" d="M958.823 982.758 L958.823 1014.76 L990.823 1014.76 L990.823 982.758 L958.823 982.758 Z" fill="#e26f46" fill-rule="evenodd" fill-opacity="1" stroke="#000000" stroke-opacity="1" stroke-width="3.2"/>
<path clip-path="url(#clip622)" d="M948.821 930.062 L948.821 962.062 L980.821 962.062 L980.821 930.062 L948.821 930.062 Z" fill="#e26f46" fill-rule="evenodd" fill-opacity="1" stroke="#000000" stroke-opacity="1" stroke-width="3.2"/>
<circle clip-path="url(#clip622)" cx="1176.23" cy="1072.84" r="14.4" fill="#e26f46" fill-rule="evenodd" fill-opacity="1" stroke="#000000" stroke-opacity="1" stroke-width="3.2"/>
<path clip-path="url(#clip622)" d="M1040.79 1010.48 L1040.79 1042.48 L1072.79 1042.48 L1072.79 1010.48 L1040.79 1010.48 Z" fill="#e26f46" fill-rule="evenodd" fill-opacity="1" stroke="#000000" stroke-opacity="1" stroke-width="3.2"/>
<path clip-path="url(#clip622)" d="M680.082 762.756 L680.082 794.756 L712.082 794.756 L712.082 762.756 L680.082 762.756 Z" fill="#e26f46" fill-rule="evenodd" fill-opacity="1" stroke="#000000" stroke-opacity="1" stroke-width="3.2"/>
<path clip-path="url(#clip622)" d="M887.809 901.917 L887.809 933.917 L919.809 933.917 L919.809 901.917 L887.809 901.917 Z" fill="#e26f46" fill-rule="evenodd" fill-opacity="1" stroke="#000000" stroke-opacity="1" stroke-width="3.2"/>
<path clip-path="url(#clip622)" d="M737.822 692.172 L737.822 724.172 L769.822 724.172 L769.822 692.172 L737.822 692.172 Z" fill="#e26f46" fill-rule="evenodd" fill-opacity="1" stroke="#000000" stroke-opacity="1" stroke-width="3.2"/>
<path clip-path="url(#clip622)" d="M936.238 946.879 L936.238 978.879 L968.238 978.879 L968.238 946.879 L936.238 946.879 Z" fill="#e26f46" fill-rule="evenodd" fill-opacity="1" stroke="#000000" stroke-opacity="1" stroke-width="3.2"/>
<path clip-path="url(#clip622)" d="M908.199 908.801 L908.199 940.801 L940.199 940.801 L940.199 908.801 L908.199 908.801 Z" fill="#e26f46" fill-rule="evenodd" fill-opacity="1" stroke="#000000" stroke-opacity="1" stroke-width="3.2"/>
<circle clip-path="url(#clip622)" cx="1220.63" cy="1095.68" r="14.4" fill="#e26f46" fill-rule="evenodd" fill-opacity="1" stroke="#000000" stroke-opacity="1" stroke-width="3.2"/>
<path clip-path="url(#clip622)" d="M883.389 942.164 L883.389 974.164 L915.389 974.164 L915.389 942.164 L883.389 942.164 Z" fill="#e26f46" fill-rule="evenodd" fill-opacity="1" stroke="#000000" stroke-opacity="1" stroke-width="3.2"/>
<circle clip-path="url(#clip622)" cx="1095.51" cy="1025.33" r="14.4" fill="#e26f46" fill-rule="evenodd" fill-opacity="1" stroke="#000000" stroke-opacity="1" stroke-width="3.2"/>
<path clip-path="url(#clip622)" d="M651.041 565.423 L651.041 597.423 L683.041 597.423 L683.041 565.423 L651.041 565.423 Z" fill="#e26f46" fill-rule="evenodd" fill-opacity="1" stroke="#000000" stroke-opacity="1" stroke-width="3.2"/>
<path clip-path="url(#clip622)" d="M686.026 655.728 L686.026 687.728 L718.026 687.728 L718.026 655.728 L686.026 655.728 Z" fill="#e26f46" fill-rule="evenodd" fill-opacity="1" stroke="#000000" stroke-opacity="1" stroke-width="3.2"/>
<path clip-path="url(#clip622)" d="M862.194 879.431 L862.194 911.431 L894.194 911.431 L894.194 879.431 L862.194 879.431 Z" fill="#e26f46" fill-rule="evenodd" fill-opacity="1" stroke="#000000" stroke-opacity="1" stroke-width="3.2"/>
<path clip-path="url(#clip622)" d="M765.653 718 L765.653 750 L797.653 750 L797.653 718 L765.653 718 Z" fill="#e26f46" fill-rule="evenodd" fill-opacity="1" stroke="#000000" stroke-opacity="1" stroke-width="3.2"/>
<path clip-path="url(#clip622)" d="M806.144 841.239 L806.144 873.239 L838.144 873.239 L838.144 841.239 L806.144 841.239 Z" fill="#e26f46" fill-rule="evenodd" fill-opacity="1" stroke="#000000" stroke-opacity="1" stroke-width="3.2"/>
<path clip-path="url(#clip620)" d="M1904.05 447.348 L2275.91 447.348 L2275.91 97.4278 L1904.05 97.4278  Z" fill="#ffffff" fill-rule="evenodd" fill-opacity="1"/>
<polyline clip-path="url(#clip620)" style="stroke:#000000; stroke-linecap:round; stroke-linejoin:round; stroke-width:4; stroke-opacity:1; fill:none" points="1904.05,447.348 2275.91,447.348 2275.91,97.4278 1904.05,97.4278 1904.05,447.348 "/>
<circle clip-path="url(#clip620)" cx="2006.52" cy="214.068" r="46.08" fill="#009af9" fill-rule="evenodd" fill-opacity="1" stroke="#000000" stroke-opacity="1" stroke-width="10.24"/>
<path clip-path="url(#clip620)" d="M2108.98 214.598 Q2108.98 200.807 2111.8 192.427 Q2114.66 183.993 2120.23 179.431 Q2125.85 174.87 2134.34 174.87 Q2140.6 174.87 2145.32 177.416 Q2150.04 179.909 2153.12 184.682 Q2156.19 189.403 2157.94 196.246 Q2159.69 203.035 2159.69 214.598 Q2159.69 228.283 2156.88 236.717 Q2154.07 245.098 2148.45 249.712 Q2142.88 254.274 2134.34 254.274 Q2123.09 254.274 2116.68 246.211 Q2108.98 236.505 2108.98 214.598 M2118.8 214.598 Q2118.8 233.747 2123.25 240.112 Q2127.76 246.424 2134.34 246.424 Q2140.92 246.424 2145.37 240.059 Q2149.88 233.693 2149.88 214.598 Q2149.88 195.397 2145.37 189.085 Q2140.92 182.773 2134.23 182.773 Q2127.65 182.773 2123.73 188.342 Q2118.8 195.45 2118.8 214.598 Z" fill="#000000" fill-rule="nonzero" fill-opacity="1" /><path clip-path="url(#clip620)" d="M2174.76 252.948 L2174.76 242.074 L2185.63 242.074 L2185.63 252.948 L2174.76 252.948 Z" fill="#000000" fill-rule="nonzero" fill-opacity="1" /><path clip-path="url(#clip620)" d="M2199.58 214.598 Q2199.58 200.807 2202.39 192.427 Q2205.26 183.993 2210.83 179.431 Q2216.45 174.87 2224.93 174.87 Q2231.19 174.87 2235.91 177.416 Q2240.64 179.909 2243.71 184.682 Q2246.79 189.403 2248.54 196.246 Q2250.29 203.035 2250.29 214.598 Q2250.29 228.283 2247.48 236.717 Q2244.67 245.098 2239.04 249.712 Q2233.47 254.274 2224.93 254.274 Q2213.69 254.274 2207.27 246.211 Q2199.58 236.505 2199.58 214.598 M2209.39 214.598 Q2209.39 233.747 2213.85 240.112 Q2218.36 246.424 2224.93 246.424 Q2231.51 246.424 2235.97 240.059 Q2240.48 233.693 2240.48 214.598 Q2240.48 195.397 2235.97 189.085 Q2231.51 182.773 2224.83 182.773 Q2218.25 182.773 2214.33 188.342 Q2209.39 195.45 2209.39 214.598 Z" fill="#000000" fill-rule="nonzero" fill-opacity="1" /><circle clip-path="url(#clip620)" cx="2006.52" cy="330.708" r="46.08" fill="#e26f46" fill-rule="evenodd" fill-opacity="1" stroke="#000000" stroke-opacity="1" stroke-width="10.24"/>
<path clip-path="url(#clip620)" d="M2137.63 369.588 L2128.08 369.588 L2128.08 308.748 Q2124.63 312.037 2119.01 315.326 Q2113.44 318.614 2108.98 320.258 L2108.98 311.029 Q2116.99 307.263 2122.99 301.906 Q2128.98 296.549 2131.47 291.51 L2137.63 291.51 L2137.63 369.588 Z" fill="#000000" fill-rule="nonzero" fill-opacity="1" /><path clip-path="url(#clip620)" d="M2167.44 369.588 L2167.44 358.714 L2178.31 358.714 L2178.31 369.588 L2167.44 369.588 Z" fill="#000000" fill-rule="nonzero" fill-opacity="1" /><path clip-path="url(#clip620)" d="M2192.26 331.238 Q2192.26 317.447 2195.07 309.067 Q2197.94 300.633 2203.51 296.071 Q2209.13 291.51 2217.61 291.51 Q2223.87 291.51 2228.59 294.056 Q2233.32 296.549 2236.39 301.322 Q2239.47 306.043 2241.22 312.886 Q2242.97 319.675 2242.97 331.238 Q2242.97 344.923 2240.16 353.357 Q2237.35 361.738 2231.72 366.352 Q2226.15 370.914 2217.61 370.914 Q2206.37 370.914 2199.95 362.851 Q2192.26 353.145 2192.26 331.238 M2202.07 331.238 Q2202.07 350.387 2206.53 356.752 Q2211.04 363.064 2217.61 363.064 Q2224.19 363.064 2228.65 356.699 Q2233.16 350.333 2233.16 331.238 Q2233.16 312.037 2228.65 305.725 Q2224.19 299.413 2217.51 299.413 Q2210.93 299.413 2207.01 304.982 Q2202.07 312.09 2202.07 331.238 Z" fill="#000000" fill-rule="nonzero" fill-opacity="1" /></svg>
