<?xml version="1.0" encoding="utf-8"?>
<svg xmlns="http://www.w3.org/2000/svg" xmlns:xlink="http://www.w3.org/1999/xlink" width="600" height="400" viewBox="0 0 2400 1600">
<defs>
  <clipPath id="clip120">
    <rect x="0" y="0" width="2400" height="1600"/>
  </clipPath>
</defs>
<path clip-path="url(#clip120)" d="M0 1600 L2400 1600 L2400 8.88178e-14 L0 8.88178e-14  Z" fill="#ffffff" fill-rule="evenodd" fill-opacity="1"/>
<defs>
  <clipPath id="clip121">
    <rect x="480" y="0" width="1681" height="1600"/>
  </clipPath>
</defs>
<path clip-path="url(#clip120)" d="M221.755 1469.17 L2352.76 1469.17 L2352.76 47.2441 L221.755 47.2441  Z" fill="#ffffff" fill-rule="evenodd" fill-opacity="1"/>
<defs>
  <clipPath id="clip122">
    <rect x="221" y="47" width="2132" height="1423"/>
  </clipPath>
</defs>
<polyline clip-path="url(#clip120)" style="stroke:#000000; stroke-linecap:round; stroke-linejoin:round; stroke-width:4; stroke-opacity:1; fill:none" points="221.755,1469.17 2352.76,1469.17 "/>
<polyline clip-path="url(#clip120)" style="stroke:#000000; stroke-linecap:round; stroke-linejoin:round; stroke-width:2; stroke-opacity:0.5; fill:none" points="221.755,47.2441 2352.76,47.2441 "/>
<polyline clip-path="url(#clip120)" style="stroke:#000000; stroke-linecap:round; stroke-linejoin:round; stroke-width:4; stroke-opacity:1; fill:none" points="713.524,1469.17 713.524,1450.27 "/>
<polyline clip-path="url(#clip120)" style="stroke:#000000; stroke-linecap:round; stroke-linejoin:round; stroke-width:4; stroke-opacity:1; fill:none" points="1259.93,1469.17 1259.93,1450.27 "/>
<polyline clip-path="url(#clip120)" style="stroke:#000000; stroke-linecap:round; stroke-linejoin:round; stroke-width:4; stroke-opacity:1; fill:none" points="1806.35,1469.17 1806.35,1450.27 "/>
<polyline clip-path="url(#clip120)" style="stroke:#000000; stroke-linecap:round; stroke-linejoin:round; stroke-width:4; stroke-opacity:1; fill:none" points="2352.76,1469.17 2352.76,1450.27 "/>
<path clip-path="url(#clip120)" d="M698.018 1553.17 L691.653 1553.17 L691.653 1512.61 Q689.355 1514.8 685.606 1516.99 Q681.893 1519.19 678.923 1520.28 L678.923 1514.13 Q684.263 1511.62 688.259 1508.05 Q692.254 1504.48 693.916 1501.12 L698.018 1501.12 L698.018 1553.17 Z" fill="#000000" fill-rule="nonzero" fill-opacity="1" /><path clip-path="url(#clip120)" d="M714.32 1527.6 Q714.32 1518.41 716.194 1512.82 Q718.104 1507.2 721.817 1504.16 Q725.565 1501.12 731.223 1501.12 Q735.395 1501.12 738.543 1502.81 Q741.69 1504.48 743.741 1507.66 Q745.792 1510.8 746.959 1515.37 Q748.126 1519.89 748.126 1527.6 Q748.126 1536.72 746.251 1542.35 Q744.377 1547.93 740.629 1551.01 Q736.916 1554.05 731.223 1554.05 Q723.726 1554.05 719.447 1548.68 Q714.32 1542.21 714.32 1527.6 M720.862 1527.6 Q720.862 1540.37 723.832 1544.61 Q726.838 1548.82 731.223 1548.82 Q735.608 1548.82 738.578 1544.58 Q741.584 1540.33 741.584 1527.6 Q741.584 1514.8 738.578 1510.59 Q735.608 1506.38 731.152 1506.38 Q726.767 1506.38 724.151 1510.1 Q720.862 1514.84 720.862 1527.6 Z" fill="#000000" fill-rule="nonzero" fill-opacity="1" /><path clip-path="url(#clip120)" d="M1256.79 1547.05 L1256.79 1553.17 L1222.52 1553.17 Q1222.45 1550.87 1223.26 1548.75 Q1224.57 1545.25 1227.44 1541.85 Q1230.34 1538.46 1235.78 1534 Q1244.23 1527.07 1247.2 1523.04 Q1250.18 1518.97 1250.18 1515.37 Q1250.18 1511.58 1247.45 1509 Q1244.76 1506.38 1240.42 1506.38 Q1235.82 1506.38 1233.06 1509.14 Q1230.3 1511.9 1230.27 1516.78 L1223.72 1516.11 Q1224.4 1508.79 1228.78 1504.97 Q1233.17 1501.12 1240.56 1501.12 Q1248.02 1501.12 1252.37 1505.25 Q1256.72 1509.39 1256.72 1515.51 Q1256.72 1518.62 1255.44 1521.63 Q1254.17 1524.63 1251.2 1527.96 Q1248.27 1531.28 1241.41 1537.08 Q1235.68 1541.89 1234.05 1543.62 Q1232.42 1545.32 1231.36 1547.05 L1256.79 1547.05 Z" fill="#000000" fill-rule="nonzero" fill-opacity="1" /><path clip-path="url(#clip120)" d="M1263.61 1527.6 Q1263.61 1518.41 1265.49 1512.82 Q1267.4 1507.2 1271.11 1504.16 Q1274.86 1501.12 1280.52 1501.12 Q1284.69 1501.12 1287.84 1502.81 Q1290.98 1504.48 1293.03 1507.66 Q1295.08 1510.8 1296.25 1515.37 Q1297.42 1519.89 1297.42 1527.6 Q1297.42 1536.72 1295.54 1542.35 Q1293.67 1547.93 1289.92 1551.01 Q1286.21 1554.05 1280.52 1554.05 Q1273.02 1554.05 1268.74 1548.68 Q1263.61 1542.21 1263.61 1527.6 M1270.15 1527.6 Q1270.15 1540.37 1273.12 1544.61 Q1276.13 1548.82 1280.52 1548.82 Q1284.9 1548.82 1287.87 1544.58 Q1290.88 1540.33 1290.88 1527.6 Q1290.88 1514.8 1287.87 1510.59 Q1284.9 1506.38 1280.44 1506.38 Q1276.06 1506.38 1273.44 1510.1 Q1270.15 1514.84 1270.15 1527.6 Z" fill="#000000" fill-rule="nonzero" fill-opacity="1" /><path clip-path="url(#clip120)" d="M1769.32 1539.48 L1775.69 1538.63 Q1776.78 1544.04 1779.4 1546.45 Q1782.05 1548.82 1785.84 1548.82 Q1790.33 1548.82 1793.4 1545.71 Q1796.51 1542.59 1796.51 1538 Q1796.51 1533.61 1793.65 1530.78 Q1790.79 1527.92 1786.37 1527.92 Q1784.56 1527.92 1781.88 1528.63 L1782.58 1523.04 Q1783.22 1523.11 1783.61 1523.11 Q1787.67 1523.11 1790.93 1520.99 Q1794.18 1518.87 1794.18 1514.45 Q1794.18 1510.95 1791.81 1508.65 Q1789.44 1506.35 1785.69 1506.35 Q1781.98 1506.35 1779.51 1508.68 Q1777.03 1511.02 1776.32 1515.68 L1769.96 1514.55 Q1771.13 1508.15 1775.26 1504.65 Q1779.4 1501.12 1785.55 1501.12 Q1789.8 1501.12 1793.37 1502.95 Q1796.94 1504.76 1798.81 1507.91 Q1800.72 1511.05 1800.72 1514.59 Q1800.72 1517.95 1798.92 1520.71 Q1797.12 1523.46 1793.58 1525.09 Q1798.18 1526.15 1800.72 1529.51 Q1803.27 1532.83 1803.27 1537.86 Q1803.27 1544.65 1798.32 1549.38 Q1793.37 1554.09 1785.8 1554.09 Q1778.98 1554.09 1774.45 1550.02 Q1769.96 1545.95 1769.32 1539.48 Z" fill="#000000" fill-rule="nonzero" fill-opacity="1" /><path clip-path="url(#clip120)" d="M1809.56 1527.6 Q1809.56 1518.41 1811.44 1512.82 Q1813.35 1507.2 1817.06 1504.16 Q1820.81 1501.12 1826.47 1501.12 Q1830.64 1501.12 1833.79 1502.81 Q1836.93 1504.48 1838.98 1507.66 Q1841.04 1510.8 1842.2 1515.37 Q1843.37 1519.89 1843.37 1527.6 Q1843.37 1536.72 1841.49 1542.35 Q1839.62 1547.93 1835.87 1551.01 Q1832.16 1554.05 1826.47 1554.05 Q1818.97 1554.05 1814.69 1548.68 Q1809.56 1542.21 1809.56 1527.6 M1816.11 1527.6 Q1816.11 1540.37 1819.08 1544.61 Q1822.08 1548.82 1826.47 1548.82 Q1830.85 1548.82 1833.82 1544.58 Q1836.83 1540.33 1836.83 1527.6 Q1836.83 1514.8 1833.82 1510.59 Q1830.85 1506.38 1826.4 1506.38 Q1822.01 1506.38 1819.39 1510.1 Q1816.11 1514.84 1816.11 1527.6 Z" fill="#000000" fill-rule="nonzero" fill-opacity="1" /><path clip-path="url(#clip120)" d="M2337.16 1553.17 L2337.16 1540.76 L2314.67 1540.76 L2314.67 1534.92 L2338.33 1501.33 L2343.53 1501.33 L2343.53 1534.92 L2350.53 1534.92 L2350.53 1540.76 L2343.53 1540.76 L2343.53 1553.17 L2337.16 1553.17 M2337.16 1534.92 L2337.16 1511.55 L2320.93 1534.92 L2337.16 1534.92 Z" fill="#000000" fill-rule="nonzero" fill-opacity="1" /><path clip-path="url(#clip120)" d="M2357.03 1527.6 Q2357.03 1518.41 2358.91 1512.82 Q2360.82 1507.2 2364.53 1504.16 Q2368.28 1501.12 2373.94 1501.12 Q2378.11 1501.12 2381.26 1502.81 Q2384.4 1504.48 2386.46 1507.66 Q2388.51 1510.8 2389.67 1515.37 Q2390.84 1519.89 2390.84 1527.6 Q2390.84 1536.72 2388.97 1542.35 Q2387.09 1547.93 2383.34 1551.01 Q2379.63 1554.05 2373.94 1554.05 Q2366.44 1554.05 2362.16 1548.68 Q2357.03 1542.21 2357.03 1527.6 M2363.58 1527.6 Q2363.58 1540.37 2366.55 1544.61 Q2369.55 1548.82 2373.94 1548.82 Q2378.32 1548.82 2381.29 1544.58 Q2384.3 1540.33 2384.3 1527.6 Q2384.3 1514.8 2381.29 1510.59 Q2378.32 1506.38 2373.87 1506.38 Q2369.48 1506.38 2366.87 1510.1 Q2363.58 1514.84 2363.58 1527.6 Z" fill="#000000" fill-rule="nonzero" fill-opacity="1" /><polyline clip-path="url(#clip120)" style="stroke:#000000; stroke-linecap:round; stroke-linejoin:round; stroke-width:4; stroke-opacity:1; fill:none" points="221.755,1469.17 221.755,47.2441 "/>
<polyline clip-path="url(#clip120)" style="stroke:#000000; stroke-linecap:round; stroke-linejoin:round; stroke-width:2; stroke-opacity:0.5; fill:none" points="2352.76,1469.17 2352.76,47.2441 "/>
<polyline clip-path="url(#clip120)" style="stroke:#000000; stroke-linecap:round; stroke-linejoin:round; stroke-width:4; stroke-opacity:1; fill:none" points="221.755,1309.75 240.653,1309.75 "/>
<polyline clip-path="url(#clip120)" style="stroke:#000000; stroke-linecap:round; stroke-linejoin:round; stroke-width:4; stroke-opacity:1; fill:none" points="221.755,1128.54 240.653,1128.54 "/>
<polyline clip-path="url(#clip120)" style="stroke:#000000; stroke-linecap:round; stroke-linejoin:round; stroke-width:4; stroke-opacity:1; fill:none" points="221.755,947.328 240.653,947.328 "/>
<polyline clip-path="url(#clip120)" style="stroke:#000000; stroke-linecap:round; stroke-linejoin:round; stroke-width:4; stroke-opacity:1; fill:none" points="221.755,766.115 240.653,766.115 "/>
<polyline clip-path="url(#clip120)" style="stroke:#000000; stroke-linecap:round; stroke-linejoin:round; stroke-width:4; stroke-opacity:1; fill:none" points="221.755,584.901 240.653,584.901 "/>
<polyline clip-path="url(#clip120)" style="stroke:#000000; stroke-linecap:round; stroke-linejoin:round; stroke-width:4; stroke-opacity:1; fill:none" points="221.755,403.688 240.653,403.688 "/>
<polyline clip-path="url(#clip120)" style="stroke:#000000; stroke-linecap:round; stroke-linejoin:round; stroke-width:4; stroke-opacity:1; fill:none" points="221.755,222.474 240.653,222.474 "/>
<path clip-path="url(#clip120)" d="M50.9921 1310.11 Q50.9921 1300.91 52.8663 1295.33 Q54.7758 1289.7 58.4888 1286.66 Q62.2371 1283.62 67.8949 1283.62 Q72.0676 1283.62 75.2148 1285.32 Q78.3619 1286.98 80.4129 1290.16 Q82.4639 1293.31 83.6308 1297.87 Q84.7977 1302.4 84.7977 1310.11 Q84.7977 1319.23 82.9236 1324.85 Q81.0494 1330.44 77.3011 1333.52 Q73.5881 1336.56 67.8949 1336.56 Q60.3983 1336.56 56.1195 1331.18 Q50.9921 1324.71 50.9921 1310.11 M57.534 1310.11 Q57.534 1322.87 60.5044 1327.12 Q63.5101 1331.33 67.8949 1331.33 Q72.2798 1331.33 75.2501 1327.08 Q78.2559 1322.84 78.2559 1310.11 Q78.2559 1297.31 75.2501 1293.1 Q72.2798 1288.89 67.8242 1288.89 Q63.4394 1288.89 60.8226 1292.6 Q57.534 1297.34 57.534 1310.11 Z" fill="#000000" fill-rule="nonzero" fill-opacity="1" /><path clip-path="url(#clip120)" d="M94.8404 1335.67 L94.8404 1328.43 L102.09 1328.43 L102.09 1335.67 L94.8404 1335.67 Z" fill="#000000" fill-rule="nonzero" fill-opacity="1" /><path clip-path="url(#clip120)" d="M111.39 1310.11 Q111.39 1300.91 113.264 1295.33 Q115.173 1289.7 118.886 1286.66 Q122.635 1283.62 128.292 1283.62 Q132.465 1283.62 135.612 1285.32 Q138.759 1286.98 140.81 1290.16 Q142.861 1293.31 144.028 1297.87 Q145.195 1302.4 145.195 1310.11 Q145.195 1319.23 143.321 1324.85 Q141.447 1330.44 137.699 1333.52 Q133.986 1336.56 128.292 1336.56 Q120.796 1336.56 116.517 1331.18 Q111.39 1324.71 111.39 1310.11 M117.931 1310.11 Q117.931 1322.87 120.902 1327.12 Q123.908 1331.33 128.292 1331.33 Q132.677 1331.33 135.648 1327.08 Q138.653 1322.84 138.653 1310.11 Q138.653 1297.31 135.648 1293.1 Q132.677 1288.89 128.222 1288.89 Q123.837 1288.89 121.22 1292.6 Q117.931 1297.34 117.931 1310.11 Z" fill="#000000" fill-rule="nonzero" fill-opacity="1" /><path clip-path="url(#clip120)" d="M161.462 1307.56 Q157.501 1306.11 155.592 1303.43 Q153.682 1300.74 153.682 1296.99 Q153.682 1291.33 157.749 1287.48 Q161.815 1283.62 168.569 1283.62 Q175.359 1283.62 179.496 1287.58 Q183.633 1291.51 183.633 1297.17 Q183.633 1300.77 181.724 1303.46 Q179.85 1306.11 175.995 1307.56 Q180.769 1309.12 183.244 1312.58 Q185.755 1316.05 185.755 1320.86 Q185.755 1327.51 181.052 1332.03 Q176.349 1336.56 168.675 1336.56 Q161.002 1336.56 156.299 1332.03 Q151.596 1327.47 151.596 1320.68 Q151.596 1315.62 154.142 1312.23 Q156.723 1308.8 161.462 1307.56 M160.189 1296.78 Q160.189 1300.45 162.558 1302.79 Q164.927 1305.12 168.711 1305.12 Q172.388 1305.12 174.722 1302.82 Q177.091 1300.49 177.091 1297.13 Q177.091 1293.63 174.651 1291.26 Q172.247 1288.86 168.64 1288.86 Q164.998 1288.86 162.593 1291.19 Q160.189 1293.52 160.189 1296.78 M158.138 1320.72 Q158.138 1323.44 159.411 1325.99 Q160.719 1328.53 163.265 1329.95 Q165.811 1331.33 168.746 1331.33 Q173.308 1331.33 176.278 1328.39 Q179.248 1325.46 179.248 1320.93 Q179.248 1316.33 176.172 1313.33 Q173.131 1310.32 168.534 1310.32 Q164.043 1310.32 161.073 1313.29 Q158.138 1316.26 158.138 1320.72 Z" fill="#000000" fill-rule="nonzero" fill-opacity="1" /><path clip-path="url(#clip120)" d="M51.275 1128.9 Q51.275 1119.7 53.1492 1114.11 Q55.0587 1108.49 58.7717 1105.45 Q62.52 1102.41 68.1778 1102.41 Q72.3505 1102.41 75.4977 1104.11 Q78.6448 1105.77 80.6958 1108.95 Q82.7468 1112.1 83.9137 1116.66 Q85.0806 1121.19 85.0806 1128.9 Q85.0806 1138.02 83.2065 1143.64 Q81.3323 1149.23 77.584 1152.3 Q73.871 1155.35 68.1778 1155.35 Q60.6812 1155.35 56.4024 1149.97 Q51.275 1143.5 51.275 1128.9 M57.8169 1128.9 Q57.8169 1141.66 60.7873 1145.9 Q63.793 1150.11 68.1778 1150.11 Q72.5627 1150.11 75.533 1145.87 Q78.5388 1141.63 78.5388 1128.9 Q78.5388 1116.09 75.533 1111.89 Q72.5627 1107.68 68.1071 1107.68 Q63.7223 1107.68 61.1055 1111.39 Q57.8169 1116.13 57.8169 1128.9 Z" fill="#000000" fill-rule="nonzero" fill-opacity="1" /><path clip-path="url(#clip120)" d="M95.1233 1154.46 L95.1233 1147.21 L102.372 1147.21 L102.372 1154.46 L95.1233 1154.46 Z" fill="#000000" fill-rule="nonzero" fill-opacity="1" /><path clip-path="url(#clip120)" d="M135.648 1154.46 L129.283 1154.46 L129.283 1113.9 Q126.984 1116.09 123.236 1118.29 Q119.523 1120.48 116.552 1121.58 L116.552 1115.42 Q121.892 1112.91 125.888 1109.34 Q129.884 1105.77 131.546 1102.41 L135.648 1102.41 L135.648 1154.46 Z" fill="#000000" fill-rule="nonzero" fill-opacity="1" /><path clip-path="url(#clip120)" d="M151.949 1128.9 Q151.949 1119.7 153.823 1114.11 Q155.733 1108.49 159.446 1105.45 Q163.194 1102.41 168.852 1102.41 Q173.025 1102.41 176.172 1104.11 Q179.319 1105.77 181.37 1108.95 Q183.421 1112.1 184.588 1116.66 Q185.755 1121.19 185.755 1128.9 Q185.755 1138.02 183.881 1143.64 Q182.007 1149.23 178.258 1152.3 Q174.545 1155.35 168.852 1155.35 Q161.355 1155.35 157.077 1149.97 Q151.949 1143.5 151.949 1128.9 M158.491 1128.9 Q158.491 1141.66 161.462 1145.9 Q164.467 1150.11 168.852 1150.11 Q173.237 1150.11 176.207 1145.87 Q179.213 1141.63 179.213 1128.9 Q179.213 1116.09 176.207 1111.89 Q173.237 1107.68 168.781 1107.68 Q164.397 1107.68 161.78 1111.39 Q158.491 1116.13 158.491 1128.9 Z" fill="#000000" fill-rule="nonzero" fill-opacity="1" /><path clip-path="url(#clip120)" d="M51.6286 947.682 Q51.6286 938.488 53.5028 932.9 Q55.4123 927.278 59.1253 924.237 Q62.8736 921.196 68.5314 921.196 Q72.7041 921.196 75.8513 922.893 Q78.9985 924.555 81.0494 927.738 Q83.1004 930.885 84.2673 935.447 Q85.4343 939.973 85.4343 947.682 Q85.4343 956.805 83.5601 962.427 Q81.6859 968.014 77.9376 971.091 Q74.2246 974.132 68.5314 974.132 Q61.0348 974.132 56.7561 968.757 Q51.6286 962.286 51.6286 947.682 M58.1705 947.682 Q58.1705 960.447 61.1409 964.691 Q64.1466 968.899 68.5314 968.899 Q72.9163 968.899 75.8866 964.655 Q78.8924 960.412 78.8924 947.682 Q78.8924 934.881 75.8866 930.673 Q72.9163 926.465 68.4607 926.465 Q64.0759 926.465 61.4591 930.178 Q58.1705 934.916 58.1705 947.682 Z" fill="#000000" fill-rule="nonzero" fill-opacity="1" /><path clip-path="url(#clip120)" d="M95.4769 973.248 L95.4769 965.999 L102.726 965.999 L102.726 973.248 L95.4769 973.248 Z" fill="#000000" fill-rule="nonzero" fill-opacity="1" /><path clip-path="url(#clip120)" d="M136.001 973.248 L129.636 973.248 L129.636 932.688 Q127.338 934.881 123.589 937.073 Q119.876 939.266 116.906 940.362 L116.906 934.209 Q122.246 931.698 126.241 928.127 Q130.237 924.555 131.899 921.196 L136.001 921.196 L136.001 973.248 Z" fill="#000000" fill-rule="nonzero" fill-opacity="1" /><path clip-path="url(#clip120)" d="M185.755 967.13 L185.755 973.248 L151.49 973.248 Q151.419 970.949 152.232 968.828 Q153.541 965.327 156.405 961.932 Q159.304 958.538 164.75 954.082 Q173.202 947.151 176.172 943.12 Q179.142 939.053 179.142 935.447 Q179.142 931.663 176.419 929.081 Q173.732 926.465 169.383 926.465 Q164.786 926.465 162.027 929.223 Q159.269 931.981 159.234 936.861 L152.692 936.189 Q153.364 928.869 157.749 925.05 Q162.133 921.196 169.524 921.196 Q176.985 921.196 181.335 925.333 Q185.684 929.47 185.684 935.588 Q185.684 938.7 184.411 941.706 Q183.138 944.711 180.168 948.035 Q177.233 951.359 170.373 957.159 Q164.644 961.968 163.017 963.7 Q161.391 965.398 160.33 967.13 L185.755 967.13 Z" fill="#000000" fill-rule="nonzero" fill-opacity="1" /><path clip-path="url(#clip120)" d="M51.3104 766.468 Q51.3104 757.274 53.1845 751.687 Q55.0941 746.065 58.807 743.023 Q62.5553 739.982 68.2132 739.982 Q72.3859 739.982 75.533 741.68 Q78.6802 743.342 80.7312 746.524 Q82.7821 749.671 83.9491 754.233 Q85.116 758.759 85.116 766.468 Q85.116 775.591 83.2418 781.214 Q81.3677 786.801 77.6194 789.878 Q73.9064 792.919 68.2132 792.919 Q60.7165 792.919 56.4378 787.544 Q51.3104 781.072 51.3104 766.468 M57.8523 766.468 Q57.8523 779.234 60.8226 783.477 Q63.8284 787.685 68.2132 787.685 Q72.598 787.685 75.5684 783.442 Q78.5741 779.198 78.5741 766.468 Q78.5741 753.667 75.5684 749.459 Q72.598 745.251 68.1425 745.251 Q63.7576 745.251 61.1409 748.964 Q57.8523 753.703 57.8523 766.468 Z" fill="#000000" fill-rule="nonzero" fill-opacity="1" /><path clip-path="url(#clip120)" d="M95.1587 792.035 L95.1587 784.785 L102.408 784.785 L102.408 792.035 L95.1587 792.035 Z" fill="#000000" fill-rule="nonzero" fill-opacity="1" /><path clip-path="url(#clip120)" d="M135.683 792.035 L129.318 792.035 L129.318 751.475 Q127.019 753.667 123.271 755.86 Q119.558 758.052 116.588 759.148 L116.588 752.995 Q121.927 750.485 125.923 746.913 Q129.919 743.342 131.581 739.982 L135.683 739.982 L135.683 792.035 Z" fill="#000000" fill-rule="nonzero" fill-opacity="1" /><path clip-path="url(#clip120)" d="M172.388 792.035 L172.388 779.623 L149.898 779.623 L149.898 773.788 L173.555 740.195 L178.753 740.195 L178.753 773.788 L185.755 773.788 L185.755 779.623 L178.753 779.623 L178.753 792.035 L172.388 792.035 M172.388 773.788 L172.388 750.414 L156.157 773.788 L172.388 773.788 Z" fill="#000000" fill-rule="nonzero" fill-opacity="1" /><path clip-path="url(#clip120)" d="M51.1336 585.255 Q51.1336 576.061 53.0077 570.474 Q54.9173 564.851 58.6302 561.81 Q62.3785 558.769 68.0364 558.769 Q72.209 558.769 75.3562 560.466 Q78.5034 562.128 80.5544 565.311 Q82.6053 568.458 83.7723 573.02 Q84.9392 577.546 84.9392 585.255 Q84.9392 594.378 83.065 600 Q81.1909 605.588 77.4425 608.664 Q73.7296 611.705 68.0364 611.705 Q60.5397 611.705 56.261 606.33 Q51.1336 599.859 51.1336 585.255 M57.6755 585.255 Q57.6755 598.02 60.6458 602.264 Q63.6516 606.472 68.0364 606.472 Q72.4212 606.472 75.3916 602.228 Q78.3973 597.985 78.3973 585.255 Q78.3973 572.454 75.3916 568.246 Q72.4212 564.038 67.9657 564.038 Q63.5808 564.038 60.9641 567.751 Q57.6755 572.489 57.6755 585.255 Z" fill="#000000" fill-rule="nonzero" fill-opacity="1" /><path clip-path="url(#clip120)" d="M94.9819 610.821 L94.9819 603.572 L102.231 603.572 L102.231 610.821 L94.9819 610.821 Z" fill="#000000" fill-rule="nonzero" fill-opacity="1" /><path clip-path="url(#clip120)" d="M135.506 610.821 L129.141 610.821 L129.141 570.261 Q126.843 572.454 123.094 574.646 Q119.381 576.839 116.411 577.935 L116.411 571.782 Q121.751 569.271 125.746 565.7 Q129.742 562.128 131.404 558.769 L135.506 558.769 L135.506 610.821 Z" fill="#000000" fill-rule="nonzero" fill-opacity="1" /><path clip-path="url(#clip120)" d="M184.836 571.676 L178.506 572.171 Q177.657 568.423 176.101 566.725 Q173.52 564.002 169.736 564.002 Q166.695 564.002 164.397 565.7 Q161.391 567.892 159.658 572.1 Q157.925 576.308 157.855 584.088 Q160.153 580.587 163.477 578.89 Q166.801 577.192 170.443 577.192 Q176.808 577.192 181.264 581.895 Q185.755 586.563 185.755 593.989 Q185.755 598.869 183.633 603.077 Q181.547 607.25 177.869 609.477 Q174.192 611.705 169.524 611.705 Q161.568 611.705 156.546 605.871 Q151.525 600 151.525 586.563 Q151.525 571.534 157.077 564.71 Q161.921 558.769 170.125 558.769 Q176.243 558.769 180.132 562.199 Q184.058 565.629 184.836 571.676 M158.845 594.024 Q158.845 597.313 160.224 600.319 Q161.638 603.324 164.149 604.916 Q166.66 606.472 169.418 606.472 Q173.449 606.472 176.349 603.218 Q179.248 599.965 179.248 594.378 Q179.248 589.003 176.384 585.927 Q173.52 582.815 169.17 582.815 Q164.856 582.815 161.851 585.927 Q158.845 589.003 158.845 594.024 Z" fill="#000000" fill-rule="nonzero" fill-opacity="1" /><path clip-path="url(#clip120)" d="M50.9921 404.041 Q50.9921 394.847 52.8663 389.26 Q54.7758 383.638 58.4888 380.597 Q62.2371 377.556 67.8949 377.556 Q72.0676 377.556 75.2148 379.253 Q78.3619 380.915 80.4129 384.097 Q82.4639 387.245 83.6308 391.806 Q84.7977 396.332 84.7977 404.041 Q84.7977 413.165 82.9236 418.787 Q81.0494 424.374 77.3011 427.451 Q73.5881 430.492 67.8949 430.492 Q60.3983 430.492 56.1195 425.117 Q50.9921 418.646 50.9921 404.041 M57.534 404.041 Q57.534 416.807 60.5044 421.05 Q63.5101 425.258 67.8949 425.258 Q72.2798 425.258 75.2501 421.015 Q78.2559 416.771 78.2559 404.041 Q78.2559 391.24 75.2501 387.032 Q72.2798 382.824 67.8242 382.824 Q63.4394 382.824 60.8226 386.537 Q57.534 391.276 57.534 404.041 Z" fill="#000000" fill-rule="nonzero" fill-opacity="1" /><path clip-path="url(#clip120)" d="M94.8404 429.608 L94.8404 422.359 L102.09 422.359 L102.09 429.608 L94.8404 429.608 Z" fill="#000000" fill-rule="nonzero" fill-opacity="1" /><path clip-path="url(#clip120)" d="M135.365 429.608 L129 429.608 L129 389.048 Q126.701 391.24 122.953 393.433 Q119.24 395.625 116.27 396.721 L116.27 390.569 Q121.609 388.058 125.605 384.486 Q129.601 380.915 131.263 377.556 L135.365 377.556 L135.365 429.608 Z" fill="#000000" fill-rule="nonzero" fill-opacity="1" /><path clip-path="url(#clip120)" d="M161.462 401.495 Q157.501 400.045 155.592 397.358 Q153.682 394.67 153.682 390.922 Q153.682 385.264 157.749 381.41 Q161.815 377.556 168.569 377.556 Q175.359 377.556 179.496 381.516 Q183.633 385.441 183.633 391.099 Q183.633 394.706 181.724 397.393 Q179.85 400.045 175.995 401.495 Q180.769 403.051 183.244 406.517 Q185.755 409.982 185.755 414.791 Q185.755 421.439 181.052 425.965 Q176.349 430.492 168.675 430.492 Q161.002 430.492 156.299 425.965 Q151.596 421.404 151.596 414.614 Q151.596 409.558 154.142 406.163 Q156.723 402.733 161.462 401.495 M160.189 390.71 Q160.189 394.388 162.558 396.721 Q164.927 399.055 168.711 399.055 Q172.388 399.055 174.722 396.757 Q177.091 394.423 177.091 391.064 Q177.091 387.563 174.651 385.194 Q172.247 382.789 168.64 382.789 Q164.998 382.789 162.593 385.123 Q160.189 387.457 160.189 390.71 M158.138 414.65 Q158.138 417.373 159.411 419.919 Q160.719 422.465 163.265 423.879 Q165.811 425.258 168.746 425.258 Q173.308 425.258 176.278 422.323 Q179.248 419.388 179.248 414.862 Q179.248 410.265 176.172 407.259 Q173.131 404.253 168.534 404.253 Q164.043 404.253 161.073 407.224 Q158.138 410.194 158.138 414.65 Z" fill="#000000" fill-rule="nonzero" fill-opacity="1" /><path clip-path="url(#clip120)" d="M51.275 222.828 Q51.275 213.634 53.1492 208.047 Q55.0587 202.424 58.7717 199.383 Q62.52 196.342 68.1778 196.342 Q72.3505 196.342 75.4977 198.039 Q78.6448 199.701 80.6958 202.884 Q82.7468 206.031 83.9137 210.593 Q85.0806 215.119 85.0806 222.828 Q85.0806 231.951 83.2065 237.574 Q81.3323 243.161 77.584 246.237 Q73.871 249.278 68.1778 249.278 Q60.6812 249.278 56.4024 243.903 Q51.275 237.432 51.275 222.828 M57.8169 222.828 Q57.8169 235.593 60.7873 239.837 Q63.793 244.045 68.1778 244.045 Q72.5627 244.045 75.533 239.801 Q78.5388 235.558 78.5388 222.828 Q78.5388 210.027 75.533 205.819 Q72.5627 201.611 68.1071 201.611 Q63.7223 201.611 61.1055 205.324 Q57.8169 210.062 57.8169 222.828 Z" fill="#000000" fill-rule="nonzero" fill-opacity="1" /><path clip-path="url(#clip120)" d="M95.1233 248.394 L95.1233 241.145 L102.372 241.145 L102.372 248.394 L95.1233 248.394 Z" fill="#000000" fill-rule="nonzero" fill-opacity="1" /><path clip-path="url(#clip120)" d="M145.125 242.277 L145.125 248.394 L110.859 248.394 Q110.788 246.096 111.602 243.974 Q112.91 240.473 115.774 237.079 Q118.674 233.684 124.12 229.228 Q132.571 222.297 135.542 218.266 Q138.512 214.2 138.512 210.593 Q138.512 206.809 135.789 204.228 Q133.102 201.611 128.752 201.611 Q124.155 201.611 121.397 204.369 Q118.639 207.127 118.603 212.007 L112.061 211.335 Q112.733 204.016 117.118 200.196 Q121.503 196.342 128.894 196.342 Q136.355 196.342 140.704 200.479 Q145.054 204.617 145.054 210.734 Q145.054 213.846 143.781 216.852 Q142.508 219.857 139.537 223.181 Q136.602 226.505 129.742 232.305 Q124.014 237.114 122.387 238.847 Q120.76 240.544 119.7 242.277 L145.125 242.277 Z" fill="#000000" fill-rule="nonzero" fill-opacity="1" /><path clip-path="url(#clip120)" d="M151.949 222.828 Q151.949 213.634 153.823 208.047 Q155.733 202.424 159.446 199.383 Q163.194 196.342 168.852 196.342 Q173.025 196.342 176.172 198.039 Q179.319 199.701 181.37 202.884 Q183.421 206.031 184.588 210.593 Q185.755 215.119 185.755 222.828 Q185.755 231.951 183.881 237.574 Q182.007 243.161 178.258 246.237 Q174.545 249.278 168.852 249.278 Q161.355 249.278 157.077 243.903 Q151.949 237.432 151.949 222.828 M158.491 222.828 Q158.491 235.593 161.462 239.837 Q164.467 244.045 168.852 244.045 Q173.237 244.045 176.207 239.801 Q179.213 235.558 179.213 222.828 Q179.213 210.027 176.207 205.819 Q173.237 201.611 168.781 201.611 Q164.397 201.611 161.78 205.324 Q158.491 210.062 158.491 222.828 Z" fill="#000000" fill-rule="nonzero" fill-opacity="1" /><polyline clip-path="url(#clip122)" style="stroke:#009af9; stroke-linecap:round; stroke-linejoin:round; stroke-width:8; stroke-opacity:1; fill:none" points="221.755,47.2441 276.396,757.903 331.037,851.028 385.678,889.871 440.319,916.002 494.96,938.367 549.601,959.559 604.242,980.453 658.883,1001.29 713.524,1022.16 768.165,1043.02 822.806,1063.85 877.448,1084.62 932.089,1105.38 986.73,1126.04 1041.37,1146.59 1096.01,1166.96 1150.65,1187.1 1205.29,1206.97 1259.93,1226.51 1314.58,1245.63 1369.22,1264.24 1423.86,1282.28 1478.5,1299.69 1533.14,1316.39 1587.78,1332.32 1642.42,1347.42 1697.06,1361.7 1751.7,1375.06 1806.35,1387.57 1860.99,1399.17 1915.63,1409.93 1970.27,1419.9 2024.91,1429.08 2079.55,1437.46 2134.19,1445.15 2188.83,1452.09 2243.47,1458.38 2298.11,1464.06 2352.76,1469.17 "/>
<circle clip-path="url(#clip122)" cx="221.755" cy="47.2441" r="3.6" fill="#009af9" fill-rule="evenodd" fill-opacity="1" stroke="#000000" stroke-opacity="1" stroke-width="3.2"/>
<circle clip-path="url(#clip122)" cx="276.396" cy="757.903" r="3.6" fill="#009af9" fill-rule="evenodd" fill-opacity="1" stroke="#000000" stroke-opacity="1" stroke-width="3.2"/>
<circle clip-path="url(#clip122)" cx="331.037" cy="851.028" r="3.6" fill="#009af9" fill-rule="evenodd" fill-opacity="1" stroke="#000000" stroke-opacity="1" stroke-width="3.2"/>
<circle clip-path="url(#clip122)" cx="385.678" cy="889.871" r="3.6" fill="#009af9" fill-rule="evenodd" fill-opacity="1" stroke="#000000" stroke-opacity="1" stroke-width="3.2"/>
<circle clip-path="url(#clip122)" cx="440.319" cy="916.002" r="3.6" fill="#009af9" fill-rule="evenodd" fill-opacity="1" stroke="#000000" stroke-opacity="1" stroke-width="3.2"/>
<circle clip-path="url(#clip122)" cx="494.96" cy="938.367" r="3.6" fill="#009af9" fill-rule="evenodd" fill-opacity="1" stroke="#000000" stroke-opacity="1" stroke-width="3.2"/>
<circle clip-path="url(#clip122)" cx="549.601" cy="959.559" r="3.6" fill="#009af9" fill-rule="evenodd" fill-opacity="1" stroke="#000000" stroke-opacity="1" stroke-width="3.2"/>
<circle clip-path="url(#clip122)" cx="604.242" cy="980.453" r="3.6" fill="#009af9" fill-rule="evenodd" fill-opacity="1" stroke="#000000" stroke-opacity="1" stroke-width="3.2"/>
<circle clip-path="url(#clip122)" cx="658.883" cy="1001.29" r="3.6" fill="#009af9" fill-rule="evenodd" fill-opacity="1" stroke="#000000" stroke-opacity="1" stroke-width="3.2"/>
<circle clip-path="url(#clip122)" cx="713.524" cy="1022.16" r="3.6" fill="#009af9" fill-rule="evenodd" fill-opacity="1" stroke="#000000" stroke-opacity="1" stroke-width="3.2"/>
<circle clip-path="url(#clip122)" cx="768.165" cy="1043.02" r="3.6" fill="#009af9" fill-rule="evenodd" fill-opacity="1" stroke="#000000" stroke-opacity="1" stroke-width="3.2"/>
<circle clip-path="url(#clip122)" cx="822.806" cy="1063.85" r="3.6" fill="#009af9" fill-rule="evenodd" fill-opacity="1" stroke="#000000" stroke-opacity="1" stroke-width="3.2"/>
<circle clip-path="url(#clip122)" cx="877.448" cy="1084.62" r="3.6" fill="#009af9" fill-rule="evenodd" fill-opacity="1" stroke="#000000" stroke-opacity="1" stroke-width="3.2"/>
<circle clip-path="url(#clip122)" cx="932.089" cy="1105.38" r="3.6" fill="#009af9" fill-rule="evenodd" fill-opacity="1" stroke="#000000" stroke-opacity="1" stroke-width="3.2"/>
<circle clip-path="url(#clip122)" cx="986.73" cy="1126.04" r="3.6" fill="#009af9" fill-rule="evenodd" fill-opacity="1" stroke="#000000" stroke-opacity="1" stroke-width="3.2"/>
<circle clip-path="url(#clip122)" cx="1041.37" cy="1146.59" r="3.6" fill="#009af9" fill-rule="evenodd" fill-opacity="1" stroke="#000000" stroke-opacity="1" stroke-width="3.2"/>
<circle clip-path="url(#clip122)" cx="1096.01" cy="1166.96" r="3.6" fill="#009af9" fill-rule="evenodd" fill-opacity="1" stroke="#000000" stroke-opacity="1" stroke-width="3.2"/>
<circle clip-path="url(#clip122)" cx="1150.65" cy="1187.1" r="3.6" fill="#009af9" fill-rule="evenodd" fill-opacity="1" stroke="#000000" stroke-opacity="1" stroke-width="3.2"/>
<circle clip-path="url(#clip122)" cx="1205.29" cy="1206.97" r="3.6" fill="#009af9" fill-rule="evenodd" fill-opacity="1" stroke="#000000" stroke-opacity="1" stroke-width="3.2"/>
<circle clip-path="url(#clip122)" cx="1259.93" cy="1226.51" r="3.6" fill="#009af9" fill-rule="evenodd" fill-opacity="1" stroke="#000000" stroke-opacity="1" stroke-width="3.2"/>
<circle clip-path="url(#clip122)" cx="1314.58" cy="1245.63" r="3.6" fill="#009af9" fill-rule="evenodd" fill-opacity="1" stroke="#000000" stroke-opacity="1" stroke-width="3.2"/>
<circle clip-path="url(#clip122)" cx="1369.22" cy="1264.24" r="3.6" fill="#009af9" fill-rule="evenodd" fill-opacity="1" stroke="#000000" stroke-opacity="1" stroke-width="3.2"/>
<circle clip-path="url(#clip122)" cx="1423.86" cy="1282.28" r="3.6" fill="#009af9" fill-rule="evenodd" fill-opacity="1" stroke="#000000" stroke-opacity="1" stroke-width="3.2"/>
<circle clip-path="url(#clip122)" cx="1478.5" cy="1299.69" r="3.6" fill="#009af9" fill-rule="evenodd" fill-opacity="1" stroke="#000000" stroke-opacity="1" stroke-width="3.2"/>
<circle clip-path="url(#clip122)" cx="1533.14" cy="1316.39" r="3.6" fill="#009af9" fill-rule="evenodd" fill-opacity="1" stroke="#000000" stroke-opacity="1" stroke-width="3.2"/>
<circle clip-path="url(#clip122)" cx="1587.78" cy="1332.32" r="3.6" fill="#009af9" fill-rule="evenodd" fill-opacity="1" stroke="#000000" stroke-opacity="1" stroke-width="3.2"/>
<circle clip-path="url(#clip122)" cx="1642.42" cy="1347.42" r="3.6" fill="#009af9" fill-rule="evenodd" fill-opacity="1" stroke="#000000" stroke-opacity="1" stroke-width="3.2"/>
<circle clip-path="url(#clip122)" cx="1697.06" cy="1361.7" r="3.6" fill="#009af9" fill-rule="evenodd" fill-opacity="1" stroke="#000000" stroke-opacity="1" stroke-width="3.2"/>
<circle clip-path="url(#clip122)" cx="1751.7" cy="1375.06" r="3.6" fill="#009af9" fill-rule="evenodd" fill-opacity="1" stroke="#000000" stroke-opacity="1" stroke-width="3.2"/>
<circle clip-path="url(#clip122)" cx="1806.35" cy="1387.57" r="3.6" fill="#009af9" fill-rule="evenodd" fill-opacity="1" stroke="#000000" stroke-opacity="1" stroke-width="3.2"/>
<circle clip-path="url(#clip122)" cx="1860.99" cy="1399.17" r="3.6" fill="#009af9" fill-rule="evenodd" fill-opacity="1" stroke="#000000" stroke-opacity="1" stroke-width="3.2"/>
<circle clip-path="url(#clip122)" cx="1915.63" cy="1409.93" r="3.6" fill="#009af9" fill-rule="evenodd" fill-opacity="1" stroke="#000000" stroke-opacity="1" stroke-width="3.2"/>
<circle clip-path="url(#clip122)" cx="1970.27" cy="1419.9" r="3.6" fill="#009af9" fill-rule="evenodd" fill-opacity="1" stroke="#000000" stroke-opacity="1" stroke-width="3.2"/>
<circle clip-path="url(#clip122)" cx="2024.91" cy="1429.08" r="3.6" fill="#009af9" fill-rule="evenodd" fill-opacity="1" stroke="#000000" stroke-opacity="1" stroke-width="3.2"/>
<circle clip-path="url(#clip122)" cx="2079.55" cy="1437.46" r="3.6" fill="#009af9" fill-rule="evenodd" fill-opacity="1" stroke="#000000" stroke-opacity="1" stroke-width="3.2"/>
<circle clip-path="url(#clip122)" cx="2134.19" cy="1445.15" r="3.6" fill="#009af9" fill-rule="evenodd" fill-opacity="1" stroke="#000000" stroke-opacity="1" stroke-width="3.2"/>
<circle clip-path="url(#clip122)" cx="2188.83" cy="1452.09" r="3.6" fill="#009af9" fill-rule="evenodd" fill-opacity="1" stroke="#000000" stroke-opacity="1" stroke-width="3.2"/>
<circle clip-path="url(#clip122)" cx="2243.47" cy="1458.38" r="3.6" fill="#009af9" fill-rule="evenodd" fill-opacity="1" stroke="#000000" stroke-opacity="1" stroke-width="3.2"/>
<circle clip-path="url(#clip122)" cx="2298.11" cy="1464.06" r="3.6" fill="#009af9" fill-rule="evenodd" fill-opacity="1" stroke="#000000" stroke-opacity="1" stroke-width="3.2"/>
<polyline clip-path="url(#clip122)" style="stroke:#e26f46; stroke-linecap:round; stroke-linejoin:round; stroke-width:8; stroke-opacity:1; fill:none" points="221.755,99.6512 276.396,494.938 331.037,645.164 385.678,724.238 440.319,773.403 494.96,807.572 549.601,833.531 604.242,854.83 658.883,873.52 713.524,890.864 768.165,907.599 822.806,924.122 877.448,940.769 932.089,957.759 986.73,975.248 1041.37,993.331 1096.01,1012 1150.65,1031.28 1205.29,1051.12 1259.93,1071.44 1314.58,1092.15 1369.22,1113.19 1423.86,1134.38 1478.5,1155.59 1533.14,1176.67 1587.78,1197.49 1642.42,1217.88 1697.06,1237.8 1751.7,1257.07 1806.35,1275.65 1860.99,1293.43 1915.63,1310.41 1970.27,1326.54 2024.91,1341.84 2079.55,1356.24 2134.19,1369.78 2188.83,1382.47 2243.47,1394.35 2298.11,1405.45 2352.76,1415.8 "/>
<circle clip-path="url(#clip122)" cx="221.755" cy="99.6512" r="3.6" fill="#e26f46" fill-rule="evenodd" fill-opacity="1" stroke="#000000" stroke-opacity="1" stroke-width="3.2"/>
<circle clip-path="url(#clip122)" cx="276.396" cy="494.938" r="3.6" fill="#e26f46" fill-rule="evenodd" fill-opacity="1" stroke="#000000" stroke-opacity="1" stroke-width="3.2"/>
<circle clip-path="url(#clip122)" cx="331.037" cy="645.164" r="3.6" fill="#e26f46" fill-rule="evenodd" fill-opacity="1" stroke="#000000" stroke-opacity="1" stroke-width="3.2"/>
<circle clip-path="url(#clip122)" cx="385.678" cy="724.238" r="3.6" fill="#e26f46" fill-rule="evenodd" fill-opacity="1" stroke="#000000" stroke-opacity="1" stroke-width="3.2"/>
<circle clip-path="url(#clip122)" cx="440.319" cy="773.403" r="3.6" fill="#e26f46" fill-rule="evenodd" fill-opacity="1" stroke="#000000" stroke-opacity="1" stroke-width="3.2"/>
<circle clip-path="url(#clip122)" cx="494.96" cy="807.572" r="3.6" fill="#e26f46" fill-rule="evenodd" fill-opacity="1" stroke="#000000" stroke-opacity="1" stroke-width="3.2"/>
<circle clip-path="url(#clip122)" cx="549.601" cy="833.531" r="3.6" fill="#e26f46" fill-rule="evenodd" fill-opacity="1" stroke="#000000" stroke-opacity="1" stroke-width="3.2"/>
<circle clip-path="url(#clip122)" cx="604.242" cy="854.83" r="3.6" fill="#e26f46" fill-rule="evenodd" fill-opacity="1" stroke="#000000" stroke-opacity="1" stroke-width="3.2"/>
<circle clip-path="url(#clip122)" cx="658.883" cy="873.52" r="3.6" fill="#e26f46" fill-rule="evenodd" fill-opacity="1" stroke="#000000" stroke-opacity="1" stroke-width="3.2"/>
<circle clip-path="url(#clip122)" cx="713.524" cy="890.864" r="3.6" fill="#e26f46" fill-rule="evenodd" fill-opacity="1" stroke="#000000" stroke-opacity="1" stroke-width="3.2"/>
<circle clip-path="url(#clip122)" cx="768.165" cy="907.599" r="3.6" fill="#e26f46" fill-rule="evenodd" fill-opacity="1" stroke="#000000" stroke-opacity="1" stroke-width="3.2"/>
<circle clip-path="url(#clip122)" cx="822.806" cy="924.122" r="3.6" fill="#e26f46" fill-rule="evenodd" fill-opacity="1" stroke="#000000" stroke-opacity="1" stroke-width="3.2"/>
<circle clip-path="url(#clip122)" cx="877.448" cy="940.769" r="3.6" fill="#e26f46" fill-rule="evenodd" fill-opacity="1" stroke="#000000" stroke-opacity="1" stroke-width="3.2"/>
<circle clip-path="url(#clip122)" cx="932.089" cy="957.759" r="3.6" fill="#e26f46" fill-rule="evenodd" fill-opacity="1" stroke="#000000" stroke-opacity="1" stroke-width="3.2"/>
<circle clip-path="url(#clip122)" cx="986.73" cy="975.248" r="3.6" fill="#e26f46" fill-rule="evenodd" fill-opacity="1" stroke="#000000" stroke-opacity="1" stroke-width="3.2"/>
<circle clip-path="url(#clip122)" cx="1041.37" cy="993.331" r="3.6" fill="#e26f46" fill-rule="evenodd" fill-opacity="1" stroke="#000000" stroke-opacity="1" stroke-width="3.2"/>
<circle clip-path="url(#clip122)" cx="1096.01" cy="1012" r="3.6" fill="#e26f46" fill-rule="evenodd" fill-opacity="1" stroke="#000000" stroke-opacity="1" stroke-width="3.2"/>
<circle clip-path="url(#clip122)" cx="1150.65" cy="1031.28" r="3.6" fill="#e26f46" fill-rule="evenodd" fill-opacity="1" stroke="#000000" stroke-opacity="1" stroke-width="3.2"/>
<circle clip-path="url(#clip122)" cx="1205.29" cy="1051.12" r="3.6" fill="#e26f46" fill-rule="evenodd" fill-opacity="1" stroke="#000000" stroke-opacity="1" stroke-width="3.2"/>
<circle clip-path="url(#clip122)" cx="1259.93" cy="1071.44" r="3.6" fill="#e26f46" fill-rule="evenodd" fill-opacity="1" stroke="#000000" stroke-opacity="1" stroke-width="3.2"/>
<circle clip-path="url(#clip122)" cx="1314.58" cy="1092.15" r="3.6" fill="#e26f46" fill-rule="evenodd" fill-opacity="1" stroke="#000000" stroke-opacity="1" stroke-width="3.2"/>
<circle clip-path="url(#clip122)" cx="1369.22" cy="1113.19" r="3.6" fill="#e26f46" fill-rule="evenodd" fill-opacity="1" stroke="#000000" stroke-opacity="1" stroke-width="3.2"/>
<circle clip-path="url(#clip122)" cx="1423.86" cy="1134.38" r="3.6" fill="#e26f46" fill-rule="evenodd" fill-opacity="1" stroke="#000000" stroke-opacity="1" stroke-width="3.2"/>
<circle clip-path="url(#clip122)" cx="1478.5" cy="1155.59" r="3.6" fill="#e26f46" fill-rule="evenodd" fill-opacity="1" stroke="#000000" stroke-opacity="1" stroke-width="3.2"/>
<circle clip-path="url(#clip122)" cx="1533.14" cy="1176.67" r="3.6" fill="#e26f46" fill-rule="evenodd" fill-opacity="1" stroke="#000000" stroke-opacity="1" stroke-width="3.2"/>
<circle clip-path="url(#clip122)" cx="1587.78" cy="1197.49" r="3.6" fill="#e26f46" fill-rule="evenodd" fill-opacity="1" stroke="#000000" stroke-opacity="1" stroke-width="3.2"/>
<circle clip-path="url(#clip122)" cx="1642.42" cy="1217.88" r="3.6" fill="#e26f46" fill-rule="evenodd" fill-opacity="1" stroke="#000000" stroke-opacity="1" stroke-width="3.2"/>
<circle clip-path="url(#clip122)" cx="1697.06" cy="1237.8" r="3.6" fill="#e26f46" fill-rule="evenodd" fill-opacity="1" stroke="#000000" stroke-opacity="1" stroke-width="3.2"/>
<circle clip-path="url(#clip122)" cx="1751.7" cy="1257.07" r="3.6" fill="#e26f46" fill-rule="evenodd" fill-opacity="1" stroke="#000000" stroke-opacity="1" stroke-width="3.2"/>
<circle clip-path="url(#clip122)" cx="1806.35" cy="1275.65" r="3.6" fill="#e26f46" fill-rule="evenodd" fill-opacity="1" stroke="#000000" stroke-opacity="1" stroke-width="3.2"/>
<circle clip-path="url(#clip122)" cx="1860.99" cy="1293.43" r="3.6" fill="#e26f46" fill-rule="evenodd" fill-opacity="1" stroke="#000000" stroke-opacity="1" stroke-width="3.2"/>
<circle clip-path="url(#clip122)" cx="1915.63" cy="1310.41" r="3.6" fill="#e26f46" fill-rule="evenodd" fill-opacity="1" stroke="#000000" stroke-opacity="1" stroke-width="3.2"/>
<circle clip-path="url(#clip122)" cx="1970.27" cy="1326.54" r="3.6" fill="#e26f46" fill-rule="evenodd" fill-opacity="1" stroke="#000000" stroke-opacity="1" stroke-width="3.2"/>
<circle clip-path="url(#clip122)" cx="2024.91" cy="1341.84" r="3.6" fill="#e26f46" fill-rule="evenodd" fill-opacity="1" stroke="#000000" stroke-opacity="1" stroke-width="3.2"/>
<circle clip-path="url(#clip122)" cx="2079.55" cy="1356.24" r="3.6" fill="#e26f46" fill-rule="evenodd" fill-opacity="1" stroke="#000000" stroke-opacity="1" stroke-width="3.2"/>
<circle clip-path="url(#clip122)" cx="2134.19" cy="1369.78" r="3.6" fill="#e26f46" fill-rule="evenodd" fill-opacity="1" stroke="#000000" stroke-opacity="1" stroke-width="3.2"/>
<circle clip-path="url(#clip122)" cx="2188.83" cy="1382.47" r="3.6" fill="#e26f46" fill-rule="evenodd" fill-opacity="1" stroke="#000000" stroke-opacity="1" stroke-width="3.2"/>
<circle clip-path="url(#clip122)" cx="2243.47" cy="1394.35" r="3.6" fill="#e26f46" fill-rule="evenodd" fill-opacity="1" stroke="#000000" stroke-opacity="1" stroke-width="3.2"/>
<circle clip-path="url(#clip122)" cx="2298.11" cy="1405.45" r="3.6" fill="#e26f46" fill-rule="evenodd" fill-opacity="1" stroke="#000000" stroke-opacity="1" stroke-width="3.2"/>
<circle clip-path="url(#clip122)" cx="2352.76" cy="1415.8" r="3.6" fill="#e26f46" fill-rule="evenodd" fill-opacity="1" stroke="#000000" stroke-opacity="1" stroke-width="3.2"/>
<path clip-path="url(#clip120)" d="M1934 327.922 L2281.72 327.922 L2281.72 94.6416 L1934 94.6416  Z" fill="#ffffff" fill-rule="evenodd" fill-opacity="1"/>
<polyline clip-path="url(#clip120)" style="stroke:#000000; stroke-linecap:round; stroke-linejoin:round; stroke-width:4; stroke-opacity:1; fill:none" points="1934,327.922 2281.72,327.922 2281.72,94.6416 1934,94.6416 1934,327.922 "/>
<polyline clip-path="url(#clip120)" style="stroke:#009af9; stroke-linecap:round; stroke-linejoin:round; stroke-width:12; stroke-opacity:1; fill:none" points="1957.68,172.402 2099.75,172.402 "/>
<circle clip-path="url(#clip120)" cx="2028.71" cy="172.402" r="13.1543" fill="#009af9" fill-rule="evenodd" fill-opacity="1" stroke="#000000" stroke-opacity="1" stroke-width="11.6927"/>
<path clip-path="url(#clip120)" d="M2140.82 192.628 L2141.74 198.251 Q2139.05 198.817 2136.93 198.817 Q2133.47 198.817 2131.56 197.72 Q2129.65 196.624 2128.87 194.856 Q2128.09 193.053 2128.09 187.324 L2128.09 165.718 L2123.42 165.718 L2123.42 160.768 L2128.09 160.768 L2128.09 151.468 L2134.42 147.648 L2134.42 160.768 L2140.82 160.768 L2140.82 165.718 L2134.42 165.718 L2134.42 187.678 Q2134.42 190.401 2134.74 191.179 Q2135.09 191.956 2135.84 192.416 Q2136.61 192.876 2138.03 192.876 Q2139.09 192.876 2140.82 192.628 Z" fill="#000000" fill-rule="nonzero" fill-opacity="1" /><path clip-path="url(#clip120)" d="M2146.97 198.322 L2146.97 160.768 L2152.7 160.768 L2152.7 166.461 Q2154.9 162.465 2156.73 161.192 Q2158.61 159.919 2160.84 159.919 Q2164.05 159.919 2167.38 161.97 L2165.19 167.875 Q2162.85 166.496 2160.52 166.496 Q2158.43 166.496 2156.77 167.769 Q2155.11 169.007 2154.4 171.235 Q2153.34 174.629 2153.34 178.661 L2153.34 198.322 L2146.97 198.322 Z" fill="#000000" fill-rule="nonzero" fill-opacity="1" /><path clip-path="url(#clip120)" d="M2195.67 193.689 Q2192.13 196.695 2188.84 197.933 Q2185.59 199.17 2181.84 199.17 Q2175.65 199.17 2172.33 196.165 Q2169 193.123 2169 188.42 Q2169 185.662 2170.24 183.399 Q2171.52 181.1 2173.53 179.721 Q2175.58 178.342 2178.13 177.635 Q2180 177.14 2183.79 176.68 Q2191.49 175.761 2195.14 174.488 Q2195.17 173.18 2195.17 172.826 Q2195.17 168.936 2193.37 167.345 Q2190.93 165.188 2186.12 165.188 Q2181.63 165.188 2179.47 166.779 Q2177.35 168.335 2176.32 172.331 L2170.1 171.482 Q2170.95 167.486 2172.89 165.046 Q2174.84 162.571 2178.52 161.263 Q2182.19 159.919 2187.04 159.919 Q2191.85 159.919 2194.85 161.051 Q2197.86 162.182 2199.27 163.915 Q2200.69 165.612 2201.25 168.229 Q2201.57 169.856 2201.57 174.099 L2201.57 182.586 Q2201.57 191.461 2201.96 193.831 Q2202.39 196.165 2203.59 198.322 L2196.94 198.322 Q2195.95 196.341 2195.67 193.689 M2195.14 179.474 Q2191.67 180.888 2184.74 181.878 Q2180.82 182.444 2179.19 183.151 Q2177.56 183.859 2176.68 185.238 Q2175.79 186.582 2175.79 188.244 Q2175.79 190.79 2177.7 192.487 Q2179.65 194.184 2183.36 194.184 Q2187.04 194.184 2189.9 192.593 Q2192.77 190.966 2194.11 188.173 Q2195.14 186.016 2195.14 181.808 L2195.14 179.474 Z" fill="#000000" fill-rule="nonzero" fill-opacity="1" /><path clip-path="url(#clip120)" d="M2211.47 153.801 L2211.47 146.482 L2217.84 146.482 L2217.84 153.801 L2211.47 153.801 M2211.47 198.322 L2211.47 160.768 L2217.84 160.768 L2217.84 198.322 L2211.47 198.322 Z" fill="#000000" fill-rule="nonzero" fill-opacity="1" /><path clip-path="url(#clip120)" d="M2227.53 198.322 L2227.53 160.768 L2233.26 160.768 L2233.26 166.107 Q2237.39 159.919 2245.21 159.919 Q2248.6 159.919 2251.43 161.157 Q2254.3 162.359 2255.71 164.339 Q2257.13 166.319 2257.69 169.042 Q2258.04 170.81 2258.04 175.23 L2258.04 198.322 L2251.68 198.322 L2251.68 175.478 Q2251.68 171.588 2250.94 169.679 Q2250.19 167.734 2248.28 166.602 Q2246.41 165.435 2243.86 165.435 Q2239.8 165.435 2236.83 168.017 Q2233.89 170.598 2233.89 177.812 L2233.89 198.322 L2227.53 198.322 Z" fill="#000000" fill-rule="nonzero" fill-opacity="1" /><polyline clip-path="url(#clip120)" style="stroke:#e26f46; stroke-linecap:round; stroke-linejoin:round; stroke-width:12; stroke-opacity:1; fill:none" points="1957.68,250.162 2099.75,250.162 "/>
<circle clip-path="url(#clip120)" cx="2028.71" cy="250.162" r="13.1543" fill="#e26f46" fill-rule="evenodd" fill-opacity="1" stroke="#000000" stroke-opacity="1" stroke-width="11.6927"/>
<path clip-path="url(#clip120)" d="M2137.71 276.082 L2123.42 238.528 L2130.14 238.528 L2138.2 261.018 Q2139.51 264.66 2140.61 268.585 Q2141.46 265.615 2142.98 261.442 L2151.32 238.528 L2157.87 238.528 L2143.65 276.082 L2137.71 276.082 Z" fill="#000000" fill-rule="nonzero" fill-opacity="1" /><path clip-path="url(#clip120)" d="M2187.99 271.449 Q2184.46 274.455 2181.17 275.693 Q2177.92 276.93 2174.17 276.93 Q2167.98 276.93 2164.65 273.925 Q2161.33 270.883 2161.33 266.18 Q2161.33 263.422 2162.57 261.159 Q2163.84 258.86 2165.86 257.481 Q2167.91 256.102 2170.45 255.395 Q2172.33 254.9 2176.11 254.44 Q2183.82 253.521 2187.46 252.248 Q2187.5 250.94 2187.5 250.586 Q2187.5 246.696 2185.7 245.105 Q2183.26 242.948 2178.45 242.948 Q2173.96 242.948 2171.8 244.539 Q2169.68 246.095 2168.65 250.091 L2162.43 249.242 Q2163.28 245.246 2165.22 242.806 Q2167.17 240.331 2170.84 239.023 Q2174.52 237.679 2179.37 237.679 Q2184.17 237.679 2187.18 238.811 Q2190.19 239.942 2191.6 241.675 Q2193.01 243.372 2193.58 245.989 Q2193.9 247.616 2193.9 251.859 L2193.9 260.346 Q2193.9 269.221 2194.29 271.591 Q2194.71 273.925 2195.91 276.082 L2189.27 276.082 Q2188.28 274.101 2187.99 271.449 M2187.46 257.234 Q2184 258.648 2177.07 259.638 Q2173.14 260.204 2171.52 260.911 Q2169.89 261.619 2169 262.998 Q2168.12 264.342 2168.12 266.004 Q2168.12 268.55 2170.03 270.247 Q2171.97 271.944 2175.69 271.944 Q2179.37 271.944 2182.23 270.353 Q2185.09 268.726 2186.44 265.933 Q2187.46 263.776 2187.46 259.568 L2187.46 257.234 Z" fill="#000000" fill-rule="nonzero" fill-opacity="1" /><path clip-path="url(#clip120)" d="M2203.62 276.082 L2203.62 224.242 L2209.99 224.242 L2209.99 276.082 L2203.62 276.082 Z" fill="#000000" fill-rule="nonzero" fill-opacity="1" /></svg>
