<?xml version="1.0" encoding="utf-8"?>
<svg xmlns="http://www.w3.org/2000/svg" xmlns:xlink="http://www.w3.org/1999/xlink" width="600" height="400" viewBox="0 0 2400 1600">
<defs>
  <clipPath id="clip690">
    <rect x="0" y="0" width="2400" height="1600"/>
  </clipPath>
</defs>
<path clip-path="url(#clip690)" d="M0 1600 L2400 1600 L2400 8.88178e-14 L0 8.88178e-14  Z" fill="#ffffff" fill-rule="evenodd" fill-opacity="1"/>
<defs>
  <clipPath id="clip691">
    <rect x="480" y="0" width="1681" height="1600"/>
  </clipPath>
</defs>
<path clip-path="url(#clip690)" d="M383.069 1349.74 L2352.76 1349.74 L2352.76 47.2441 L383.069 47.2441  Z" fill="#ffffff" fill-rule="evenodd" fill-opacity="1"/>
<defs>
  <clipPath id="clip692">
    <rect x="383" y="47" width="1971" height="1303"/>
  </clipPath>
</defs>
<polyline clip-path="url(#clip690)" style="stroke:#000000; stroke-linecap:round; stroke-linejoin:round; stroke-width:4; stroke-opacity:1; fill:none" points="383.069,1349.74 2352.76,1349.74 "/>
<polyline clip-path="url(#clip690)" style="stroke:#000000; stroke-linecap:round; stroke-linejoin:round; stroke-width:2; stroke-opacity:0.5; fill:none" points="383.069,47.2441 2352.76,47.2441 "/>
<polyline clip-path="url(#clip690)" style="stroke:#000000; stroke-linecap:round; stroke-linejoin:round; stroke-width:4; stroke-opacity:1; fill:none" points="643.763,1349.74 643.763,1330.84 "/>
<polyline clip-path="url(#clip690)" style="stroke:#000000; stroke-linecap:round; stroke-linejoin:round; stroke-width:4; stroke-opacity:1; fill:none" points="933.422,1349.74 933.422,1330.84 "/>
<polyline clip-path="url(#clip690)" style="stroke:#000000; stroke-linecap:round; stroke-linejoin:round; stroke-width:4; stroke-opacity:1; fill:none" points="1223.08,1349.74 1223.08,1330.84 "/>
<polyline clip-path="url(#clip690)" style="stroke:#000000; stroke-linecap:round; stroke-linejoin:round; stroke-width:4; stroke-opacity:1; fill:none" points="1512.74,1349.74 1512.74,1330.84 "/>
<polyline clip-path="url(#clip690)" style="stroke:#000000; stroke-linecap:round; stroke-linejoin:round; stroke-width:4; stroke-opacity:1; fill:none" points="1802.4,1349.74 1802.4,1330.84 "/>
<polyline clip-path="url(#clip690)" style="stroke:#000000; stroke-linecap:round; stroke-linejoin:round; stroke-width:4; stroke-opacity:1; fill:none" points="2092.06,1349.74 2092.06,1330.84 "/>
<path clip-path="url(#clip690)" d="M620.504 1466.14 L610.956 1466.14 L610.956 1405.3 Q607.508 1408.59 601.886 1411.88 Q596.316 1415.17 591.861 1416.81 L591.861 1407.58 Q599.87 1403.82 605.864 1398.46 Q611.858 1393.1 614.351 1388.06 L620.504 1388.06 L620.504 1466.14 Z" fill="#000000" fill-rule="nonzero" fill-opacity="1" /><path clip-path="url(#clip690)" d="M644.956 1427.79 Q644.956 1414 647.767 1405.62 Q650.632 1397.18 656.201 1392.62 Q661.823 1388.06 670.31 1388.06 Q676.569 1388.06 681.29 1390.61 Q686.011 1393.1 689.087 1397.87 Q692.164 1402.6 693.914 1409.44 Q695.664 1416.23 695.664 1427.79 Q695.664 1441.48 692.853 1449.91 Q690.042 1458.29 684.419 1462.9 Q678.85 1467.47 670.31 1467.47 Q659.065 1467.47 652.647 1459.4 Q644.956 1449.7 644.956 1427.79 M654.769 1427.79 Q654.769 1446.94 659.224 1453.3 Q663.733 1459.62 670.31 1459.62 Q676.887 1459.62 681.343 1453.25 Q685.852 1446.89 685.852 1427.79 Q685.852 1408.59 681.343 1402.28 Q676.887 1395.96 670.204 1395.96 Q663.627 1395.96 659.702 1401.53 Q654.769 1408.64 654.769 1427.79 Z" fill="#000000" fill-rule="nonzero" fill-opacity="1" /><path clip-path="url(#clip690)" d="M928.702 1456.96 L928.702 1466.14 L877.304 1466.14 Q877.198 1462.69 878.418 1459.51 Q880.38 1454.26 884.677 1449.17 Q889.026 1444.07 897.195 1437.39 Q909.872 1426.99 914.327 1420.95 Q918.783 1414.85 918.783 1409.44 Q918.783 1403.76 914.699 1399.89 Q910.667 1395.96 904.143 1395.96 Q897.248 1395.96 893.11 1400.1 Q888.973 1404.24 888.92 1411.56 L879.107 1410.55 Q880.115 1399.57 886.692 1393.84 Q893.269 1388.06 904.355 1388.06 Q915.547 1388.06 922.071 1394.27 Q928.596 1400.47 928.596 1409.65 Q928.596 1414.32 926.686 1418.83 Q924.777 1423.33 920.321 1428.32 Q915.919 1433.31 905.628 1442.01 Q897.035 1449.22 894.595 1451.82 Q892.156 1454.36 890.564 1456.96 L928.702 1456.96 Z" fill="#000000" fill-rule="nonzero" fill-opacity="1" /><path clip-path="url(#clip690)" d="M938.939 1427.79 Q938.939 1414 941.75 1405.62 Q944.614 1397.18 950.184 1392.62 Q955.806 1388.06 964.293 1388.06 Q970.552 1388.06 975.273 1390.61 Q979.994 1393.1 983.07 1397.87 Q986.146 1402.6 987.897 1409.44 Q989.647 1416.23 989.647 1427.79 Q989.647 1441.48 986.836 1449.91 Q984.025 1458.29 978.402 1462.9 Q972.833 1467.47 964.293 1467.47 Q953.048 1467.47 946.63 1459.4 Q938.939 1449.7 938.939 1427.79 M948.752 1427.79 Q948.752 1446.94 953.207 1453.3 Q957.716 1459.62 964.293 1459.62 Q970.87 1459.62 975.326 1453.25 Q979.834 1446.89 979.834 1427.79 Q979.834 1408.59 975.326 1402.28 Q970.87 1395.96 964.187 1395.96 Q957.61 1395.96 953.685 1401.53 Q948.752 1408.64 948.752 1427.79 Z" fill="#000000" fill-rule="nonzero" fill-opacity="1" /><path clip-path="url(#clip690)" d="M1167.55 1445.61 L1177.09 1444.34 Q1178.74 1452.45 1182.66 1456.06 Q1186.64 1459.62 1192.32 1459.62 Q1199.05 1459.62 1203.67 1454.95 Q1208.34 1450.28 1208.34 1443.38 Q1208.34 1436.81 1204.04 1432.56 Q1199.74 1428.27 1193.11 1428.27 Q1190.41 1428.27 1186.38 1429.33 L1187.44 1420.95 Q1188.39 1421.05 1188.98 1421.05 Q1195.08 1421.05 1199.96 1417.87 Q1204.84 1414.69 1204.84 1408.06 Q1204.84 1402.81 1201.28 1399.36 Q1197.73 1395.91 1192.11 1395.91 Q1186.54 1395.91 1182.82 1399.41 Q1179.11 1402.91 1178.05 1409.92 L1168.5 1408.22 Q1170.25 1398.62 1176.46 1393.37 Q1182.66 1388.06 1191.89 1388.06 Q1198.26 1388.06 1203.62 1390.82 Q1208.97 1393.52 1211.78 1398.25 Q1214.65 1402.97 1214.65 1408.27 Q1214.65 1413.31 1211.94 1417.45 Q1209.24 1421.58 1203.93 1424.02 Q1210.83 1425.62 1214.65 1430.65 Q1218.47 1435.64 1218.47 1443.17 Q1218.47 1453.36 1211.04 1460.46 Q1203.62 1467.52 1192.26 1467.52 Q1182.03 1467.52 1175.24 1461.42 Q1168.5 1455.32 1167.55 1445.61 Z" fill="#000000" fill-rule="nonzero" fill-opacity="1" /><path clip-path="url(#clip690)" d="M1227.91 1427.79 Q1227.91 1414 1230.72 1405.62 Q1233.58 1397.18 1239.15 1392.62 Q1244.78 1388.06 1253.26 1388.06 Q1259.52 1388.06 1264.24 1390.61 Q1268.96 1393.1 1272.04 1397.87 Q1275.12 1402.6 1276.87 1409.44 Q1278.62 1416.23 1278.62 1427.79 Q1278.62 1441.48 1275.81 1449.91 Q1273 1458.29 1267.37 1462.9 Q1261.8 1467.47 1253.26 1467.47 Q1242.02 1467.47 1235.6 1459.4 Q1227.91 1449.7 1227.91 1427.79 M1237.72 1427.79 Q1237.72 1446.94 1242.18 1453.3 Q1246.69 1459.62 1253.26 1459.62 Q1259.84 1459.62 1264.3 1453.25 Q1268.8 1446.89 1268.8 1427.79 Q1268.8 1408.59 1264.3 1402.28 Q1259.84 1395.96 1253.16 1395.96 Q1246.58 1395.96 1242.65 1401.53 Q1237.72 1408.64 1237.72 1427.79 Z" fill="#000000" fill-rule="nonzero" fill-opacity="1" /><path clip-path="url(#clip690)" d="M1489.35 1466.14 L1489.35 1447.52 L1455.62 1447.52 L1455.62 1438.77 L1491.1 1388.38 L1498.9 1388.38 L1498.9 1438.77 L1509.4 1438.77 L1509.4 1447.52 L1498.9 1447.52 L1498.9 1466.14 L1489.35 1466.14 M1489.35 1438.77 L1489.35 1403.71 L1465 1438.77 L1489.35 1438.77 Z" fill="#000000" fill-rule="nonzero" fill-opacity="1" /><path clip-path="url(#clip690)" d="M1519.16 1427.79 Q1519.16 1414 1521.97 1405.62 Q1524.84 1397.18 1530.41 1392.62 Q1536.03 1388.06 1544.51 1388.06 Q1550.77 1388.06 1555.49 1390.61 Q1560.22 1393.1 1563.29 1397.87 Q1566.37 1402.6 1568.12 1409.44 Q1569.87 1416.23 1569.87 1427.79 Q1569.87 1441.48 1567.06 1449.91 Q1564.25 1458.29 1558.62 1462.9 Q1553.05 1467.47 1544.51 1467.47 Q1533.27 1467.47 1526.85 1459.4 Q1519.16 1449.7 1519.16 1427.79 M1528.97 1427.79 Q1528.97 1446.94 1533.43 1453.3 Q1537.94 1459.62 1544.51 1459.62 Q1551.09 1459.62 1555.55 1453.25 Q1560.06 1446.89 1560.06 1427.79 Q1560.06 1408.59 1555.55 1402.28 Q1551.09 1395.96 1544.41 1395.96 Q1537.83 1395.96 1533.91 1401.53 Q1528.97 1408.64 1528.97 1427.79 Z" fill="#000000" fill-rule="nonzero" fill-opacity="1" /><path clip-path="url(#clip690)" d="M1746.84 1445.77 L1756.87 1444.92 Q1757.98 1452.24 1762.01 1455.96 Q1766.09 1459.62 1771.82 1459.62 Q1778.72 1459.62 1783.49 1454.42 Q1788.27 1449.22 1788.27 1440.63 Q1788.27 1432.46 1783.65 1427.74 Q1779.09 1423.02 1771.66 1423.02 Q1767.05 1423.02 1763.34 1425.14 Q1759.62 1427.21 1757.5 1430.55 L1748.54 1429.38 L1756.07 1389.44 L1794.74 1389.44 L1794.74 1398.56 L1763.71 1398.56 L1759.52 1419.46 Q1766.52 1414.58 1774.21 1414.58 Q1784.39 1414.58 1791.4 1421.64 Q1798.4 1428.69 1798.4 1439.78 Q1798.4 1450.33 1792.24 1458.02 Q1784.77 1467.47 1771.82 1467.47 Q1761.21 1467.47 1754.48 1461.53 Q1747.8 1455.58 1746.84 1445.77 Z" fill="#000000" fill-rule="nonzero" fill-opacity="1" /><path clip-path="url(#clip690)" d="M1807.26 1427.79 Q1807.26 1414 1810.07 1405.62 Q1812.93 1397.18 1818.5 1392.62 Q1824.12 1388.06 1832.61 1388.06 Q1838.87 1388.06 1843.59 1390.61 Q1848.31 1393.1 1851.39 1397.87 Q1854.46 1402.6 1856.21 1409.44 Q1857.96 1416.23 1857.96 1427.79 Q1857.96 1441.48 1855.15 1449.91 Q1852.34 1458.29 1846.72 1462.9 Q1841.15 1467.47 1832.61 1467.47 Q1821.36 1467.47 1814.95 1459.4 Q1807.26 1449.7 1807.26 1427.79 M1817.07 1427.79 Q1817.07 1446.94 1821.52 1453.3 Q1826.03 1459.62 1832.61 1459.62 Q1839.19 1459.62 1843.64 1453.25 Q1848.15 1446.89 1848.15 1427.79 Q1848.15 1408.59 1843.64 1402.28 Q1839.19 1395.96 1832.5 1395.96 Q1825.93 1395.96 1822 1401.53 Q1817.07 1408.64 1817.07 1427.79 Z" fill="#000000" fill-rule="nonzero" fill-opacity="1" /><path clip-path="url(#clip690)" d="M2086.25 1407.42 L2076.76 1408.16 Q2075.49 1402.54 2073.15 1400 Q2069.28 1395.91 2063.6 1395.91 Q2059.04 1395.91 2055.6 1398.46 Q2051.09 1401.75 2048.49 1408.06 Q2045.89 1414.37 2045.78 1426.04 Q2049.23 1420.79 2054.22 1418.24 Q2059.2 1415.7 2064.67 1415.7 Q2074.21 1415.7 2080.9 1422.75 Q2087.63 1429.75 2087.63 1440.89 Q2087.63 1448.21 2084.45 1454.52 Q2081.32 1460.78 2075.8 1464.12 Q2070.29 1467.47 2063.29 1467.47 Q2051.35 1467.47 2043.82 1458.71 Q2036.29 1449.91 2036.29 1429.75 Q2036.29 1407.21 2044.62 1396.97 Q2051.88 1388.06 2064.19 1388.06 Q2073.36 1388.06 2079.2 1393.21 Q2085.09 1398.35 2086.25 1407.42 M2047.27 1440.94 Q2047.27 1445.88 2049.34 1450.39 Q2051.46 1454.89 2055.22 1457.28 Q2058.99 1459.62 2063.13 1459.62 Q2069.17 1459.62 2073.52 1454.74 Q2077.87 1449.86 2077.87 1441.48 Q2077.87 1433.41 2073.58 1428.8 Q2069.28 1424.13 2062.76 1424.13 Q2056.28 1424.13 2051.78 1428.8 Q2047.27 1433.41 2047.27 1440.94 Z" fill="#000000" fill-rule="nonzero" fill-opacity="1" /><path clip-path="url(#clip690)" d="M2097.13 1427.79 Q2097.13 1414 2099.94 1405.62 Q2102.8 1397.18 2108.37 1392.62 Q2113.99 1388.06 2122.48 1388.06 Q2128.74 1388.06 2133.46 1390.61 Q2138.18 1393.1 2141.26 1397.87 Q2144.34 1402.6 2146.09 1409.44 Q2147.84 1416.23 2147.84 1427.79 Q2147.84 1441.48 2145.02 1449.91 Q2142.21 1458.29 2136.59 1462.9 Q2131.02 1467.47 2122.48 1467.47 Q2111.24 1467.47 2104.82 1459.4 Q2097.13 1449.7 2097.13 1427.79 M2106.94 1427.79 Q2106.94 1446.94 2111.4 1453.3 Q2115.9 1459.62 2122.48 1459.62 Q2129.06 1459.62 2133.51 1453.25 Q2138.02 1446.89 2138.02 1427.79 Q2138.02 1408.59 2133.51 1402.28 Q2129.06 1395.96 2122.38 1395.96 Q2115.8 1395.96 2111.87 1401.53 Q2106.94 1408.64 2106.94 1427.79 Z" fill="#000000" fill-rule="nonzero" fill-opacity="1" /><path clip-path="url(#clip690)" d="M1267.34 1577.55 L1277.21 1578.77 Q1274.88 1587.42 1268.56 1592.19 Q1262.25 1596.96 1252.44 1596.96 Q1240.08 1596.96 1232.81 1589.38 Q1225.6 1581.74 1225.6 1568 Q1225.6 1553.79 1232.92 1545.94 Q1240.24 1538.09 1251.91 1538.09 Q1263.21 1538.09 1270.37 1545.78 Q1277.53 1553.47 1277.53 1567.42 Q1277.53 1568.27 1277.48 1569.97 L1235.47 1569.97 Q1236 1579.25 1240.72 1584.18 Q1245.44 1589.11 1252.49 1589.11 Q1257.74 1589.11 1261.46 1586.36 Q1265.17 1583.6 1267.34 1577.55 M1236 1562.12 L1267.45 1562.12 Q1266.81 1555.01 1263.84 1551.45 Q1259.28 1545.94 1252.01 1545.94 Q1245.44 1545.94 1240.93 1550.34 Q1236.47 1554.74 1236 1562.12 Z" fill="#000000" fill-rule="nonzero" fill-opacity="1" /><path clip-path="url(#clip690)" d="M1289.2 1617.28 L1289.2 1539.36 L1297.9 1539.36 L1297.9 1546.68 Q1300.97 1542.38 1304.85 1540.26 Q1308.72 1538.09 1314.23 1538.09 Q1321.45 1538.09 1326.96 1541.8 Q1332.48 1545.51 1335.29 1552.3 Q1338.1 1559.04 1338.1 1567.1 Q1338.1 1575.75 1334.97 1582.7 Q1331.9 1589.59 1325.96 1593.3 Q1320.07 1596.96 1313.54 1596.96 Q1308.77 1596.96 1304.95 1594.95 Q1301.19 1592.93 1298.75 1589.86 L1298.75 1617.28 L1289.2 1617.28 M1297.84 1567.84 Q1297.84 1578.72 1302.25 1583.92 Q1306.65 1589.11 1312.91 1589.11 Q1319.27 1589.11 1323.78 1583.76 Q1328.34 1578.35 1328.34 1567.05 Q1328.34 1556.28 1323.89 1550.92 Q1319.48 1545.57 1313.33 1545.57 Q1307.23 1545.57 1302.51 1551.3 Q1297.84 1556.97 1297.84 1567.84 Z" fill="#000000" fill-rule="nonzero" fill-opacity="1" /><path clip-path="url(#clip690)" d="M1346.06 1567.53 Q1346.06 1551.88 1354.76 1544.35 Q1362.02 1538.09 1372.47 1538.09 Q1384.09 1538.09 1391.46 1545.73 Q1398.84 1553.31 1398.84 1566.73 Q1398.84 1577.6 1395.55 1583.86 Q1392.31 1590.07 1386.05 1593.52 Q1379.85 1596.96 1372.47 1596.96 Q1360.65 1596.96 1353.33 1589.38 Q1346.06 1581.79 1346.06 1567.53 M1355.87 1567.53 Q1355.87 1578.35 1360.59 1583.76 Q1365.31 1589.11 1372.47 1589.11 Q1379.58 1589.11 1384.3 1583.7 Q1389.02 1578.29 1389.02 1567.21 Q1389.02 1556.76 1384.25 1551.4 Q1379.53 1545.99 1372.47 1545.99 Q1365.31 1545.99 1360.59 1551.35 Q1355.87 1556.71 1355.87 1567.53 Z" fill="#000000" fill-rule="nonzero" fill-opacity="1" /><path clip-path="url(#clip690)" d="M1446.79 1575.06 L1456.17 1576.28 Q1454.64 1585.99 1448.27 1591.5 Q1441.96 1596.96 1432.73 1596.96 Q1421.17 1596.96 1414.11 1589.43 Q1407.11 1581.85 1407.11 1567.74 Q1407.11 1558.62 1410.13 1551.77 Q1413.16 1544.93 1419.31 1541.54 Q1425.52 1538.09 1432.78 1538.09 Q1441.96 1538.09 1447.79 1542.76 Q1453.63 1547.37 1455.27 1555.91 L1445.99 1557.34 Q1444.66 1551.67 1441.27 1548.8 Q1437.93 1545.94 1433.15 1545.94 Q1425.94 1545.94 1421.43 1551.14 Q1416.92 1556.28 1416.92 1567.47 Q1416.92 1578.82 1421.27 1583.97 Q1425.62 1589.11 1432.62 1589.11 Q1438.25 1589.11 1442.01 1585.67 Q1445.78 1582.22 1446.79 1575.06 Z" fill="#000000" fill-rule="nonzero" fill-opacity="1" /><path clip-path="url(#clip690)" d="M1464.34 1595.69 L1464.34 1517.93 L1473.89 1517.93 L1473.89 1545.83 Q1480.57 1538.09 1490.76 1538.09 Q1497.02 1538.09 1501.63 1540.58 Q1506.25 1543.02 1508.21 1547.37 Q1510.22 1551.72 1510.22 1559.99 L1510.22 1595.69 L1500.68 1595.69 L1500.68 1559.99 Q1500.68 1552.83 1497.55 1549.6 Q1494.47 1546.31 1488.8 1546.31 Q1484.55 1546.31 1480.79 1548.54 Q1477.07 1550.71 1475.48 1554.48 Q1473.89 1558.24 1473.89 1564.87 L1473.89 1595.69 L1464.34 1595.69 Z" fill="#000000" fill-rule="nonzero" fill-opacity="1" /><polyline clip-path="url(#clip690)" style="stroke:#000000; stroke-linecap:round; stroke-linejoin:round; stroke-width:4; stroke-opacity:1; fill:none" points="383.069,1349.74 383.069,47.2441 "/>
<polyline clip-path="url(#clip690)" style="stroke:#000000; stroke-linecap:round; stroke-linejoin:round; stroke-width:2; stroke-opacity:0.5; fill:none" points="2352.76,1349.74 2352.76,47.2441 "/>
<polyline clip-path="url(#clip690)" style="stroke:#000000; stroke-linecap:round; stroke-linejoin:round; stroke-width:4; stroke-opacity:1; fill:none" points="383.069,1263.27 401.966,1263.27 "/>
<polyline clip-path="url(#clip690)" style="stroke:#000000; stroke-linecap:round; stroke-linejoin:round; stroke-width:4; stroke-opacity:1; fill:none" points="383.069,926.223 401.966,926.223 "/>
<polyline clip-path="url(#clip690)" style="stroke:#000000; stroke-linecap:round; stroke-linejoin:round; stroke-width:4; stroke-opacity:1; fill:none" points="383.069,589.178 401.966,589.178 "/>
<polyline clip-path="url(#clip690)" style="stroke:#000000; stroke-linecap:round; stroke-linejoin:round; stroke-width:4; stroke-opacity:1; fill:none" points="383.069,252.132 401.966,252.132 "/>
<path clip-path="url(#clip690)" d="M144.5 1263.8 Q144.5 1250.01 147.311 1241.63 Q150.176 1233.19 155.745 1228.63 Q161.368 1224.07 169.854 1224.07 Q176.113 1224.07 180.834 1226.62 Q185.555 1229.11 188.631 1233.88 Q191.708 1238.6 193.458 1245.45 Q195.209 1252.24 195.209 1263.8 Q195.209 1277.48 192.397 1285.92 Q189.586 1294.3 183.964 1298.91 Q178.394 1303.48 169.854 1303.48 Q158.609 1303.48 152.191 1295.41 Q144.5 1285.71 144.5 1263.8 M154.313 1263.8 Q154.313 1282.95 158.769 1289.31 Q163.277 1295.62 169.854 1295.62 Q176.432 1295.62 180.887 1289.26 Q185.396 1282.89 185.396 1263.8 Q185.396 1244.6 180.887 1238.29 Q176.432 1231.97 169.748 1231.97 Q163.171 1231.97 159.246 1237.54 Q154.313 1244.65 154.313 1263.8 Z" fill="#000000" fill-rule="nonzero" fill-opacity="1" /><path clip-path="url(#clip690)" d="M210.273 1302.15 L210.273 1291.28 L221.146 1291.28 L221.146 1302.15 L210.273 1302.15 Z" fill="#000000" fill-rule="nonzero" fill-opacity="1" /><path clip-path="url(#clip690)" d="M235.096 1263.8 Q235.096 1250.01 237.908 1241.63 Q240.772 1233.19 246.341 1228.63 Q251.964 1224.07 260.451 1224.07 Q266.71 1224.07 271.43 1226.62 Q276.151 1229.11 279.228 1233.88 Q282.304 1238.6 284.054 1245.45 Q285.805 1252.24 285.805 1263.8 Q285.805 1277.48 282.994 1285.92 Q280.182 1294.3 274.56 1298.91 Q268.99 1303.48 260.451 1303.48 Q249.206 1303.48 242.788 1295.41 Q235.096 1285.71 235.096 1263.8 M244.909 1263.8 Q244.909 1282.95 249.365 1289.31 Q253.873 1295.62 260.451 1295.62 Q267.028 1295.62 271.483 1289.26 Q275.992 1282.89 275.992 1263.8 Q275.992 1244.6 271.483 1238.29 Q267.028 1231.97 260.345 1231.97 Q253.767 1231.97 249.842 1237.54 Q244.909 1244.65 244.909 1263.8 Z" fill="#000000" fill-rule="nonzero" fill-opacity="1" /><path clip-path="url(#clip690)" d="M295.512 1281.78 L305.537 1280.93 Q306.65 1288.25 310.682 1291.96 Q314.766 1295.62 320.494 1295.62 Q327.39 1295.62 332.164 1290.43 Q336.938 1285.23 336.938 1276.64 Q336.938 1268.47 332.323 1263.75 Q327.761 1259.03 320.335 1259.03 Q315.721 1259.03 312.008 1261.15 Q308.295 1263.22 306.173 1266.56 L297.209 1265.39 L304.741 1225.45 L343.409 1225.45 L343.409 1234.57 L312.379 1234.57 L308.189 1255.47 Q315.19 1250.59 322.881 1250.59 Q333.066 1250.59 340.067 1257.65 Q347.069 1264.7 347.069 1275.79 Q347.069 1286.34 340.916 1294.03 Q333.437 1303.48 320.494 1303.48 Q309.886 1303.48 303.15 1297.53 Q296.466 1291.59 295.512 1281.78 Z" fill="#000000" fill-rule="nonzero" fill-opacity="1" /><path clip-path="url(#clip690)" d="M145.349 926.754 Q145.349 912.963 148.16 904.582 Q151.024 896.148 156.594 891.587 Q162.216 887.025 170.703 887.025 Q176.962 887.025 181.683 889.571 Q186.404 892.064 189.48 896.838 Q192.556 901.559 194.307 908.401 Q196.057 915.19 196.057 926.754 Q196.057 940.439 193.246 948.872 Q190.435 957.253 184.812 961.868 Q179.243 966.429 170.703 966.429 Q159.458 966.429 153.04 958.367 Q145.349 948.66 145.349 926.754 M155.162 926.754 Q155.162 945.902 159.617 952.267 Q164.126 958.579 170.703 958.579 Q177.28 958.579 181.736 952.214 Q186.244 945.849 186.244 926.754 Q186.244 907.552 181.736 901.24 Q177.28 894.928 170.597 894.928 Q164.02 894.928 160.095 900.498 Q155.162 907.605 155.162 926.754 Z" fill="#000000" fill-rule="nonzero" fill-opacity="1" /><path clip-path="url(#clip690)" d="M211.121 965.103 L211.121 954.23 L221.995 954.23 L221.995 965.103 L211.121 965.103 Z" fill="#000000" fill-rule="nonzero" fill-opacity="1" /><path clip-path="url(#clip690)" d="M271.908 965.103 L262.36 965.103 L262.36 904.264 Q258.912 907.552 253.29 910.841 Q247.72 914.13 243.265 915.774 L243.265 906.545 Q251.274 902.779 257.268 897.421 Q263.262 892.064 265.755 887.025 L271.908 887.025 L271.908 965.103 Z" fill="#000000" fill-rule="nonzero" fill-opacity="1" /><path clip-path="url(#clip690)" d="M296.36 926.754 Q296.36 912.963 299.171 904.582 Q302.036 896.148 307.605 891.587 Q313.228 887.025 321.714 887.025 Q327.973 887.025 332.694 889.571 Q337.415 892.064 340.491 896.838 Q343.568 901.559 345.318 908.401 Q347.069 915.19 347.069 926.754 Q347.069 940.439 344.257 948.872 Q341.446 957.253 335.824 961.868 Q330.254 966.429 321.714 966.429 Q310.469 966.429 304.051 958.367 Q296.36 948.66 296.36 926.754 M306.173 926.754 Q306.173 945.902 310.629 952.267 Q315.137 958.579 321.714 958.579 Q328.292 958.579 332.747 952.214 Q337.256 945.849 337.256 926.754 Q337.256 907.552 332.747 901.24 Q328.292 894.928 321.608 894.928 Q315.031 894.928 311.106 900.498 Q306.173 907.605 306.173 926.754 Z" fill="#000000" fill-rule="nonzero" fill-opacity="1" /><path clip-path="url(#clip690)" d="M144.5 589.708 Q144.5 575.917 147.311 567.536 Q150.176 559.103 155.745 554.541 Q161.368 549.979 169.854 549.979 Q176.113 549.979 180.834 552.525 Q185.555 555.018 188.631 559.792 Q191.708 564.513 193.458 571.355 Q195.209 578.145 195.209 589.708 Q195.209 603.393 192.397 611.827 Q189.586 620.207 183.964 624.822 Q178.394 629.384 169.854 629.384 Q158.609 629.384 152.191 621.321 Q144.5 611.614 144.5 589.708 M154.313 589.708 Q154.313 608.856 158.769 615.221 Q163.277 621.533 169.854 621.533 Q176.432 621.533 180.887 615.168 Q185.396 608.803 185.396 589.708 Q185.396 570.507 180.887 564.195 Q176.432 557.883 169.748 557.883 Q163.171 557.883 159.246 563.452 Q154.313 570.56 154.313 589.708 Z" fill="#000000" fill-rule="nonzero" fill-opacity="1" /><path clip-path="url(#clip690)" d="M210.273 628.058 L210.273 617.184 L221.146 617.184 L221.146 628.058 L210.273 628.058 Z" fill="#000000" fill-rule="nonzero" fill-opacity="1" /><path clip-path="url(#clip690)" d="M271.059 628.058 L261.511 628.058 L261.511 567.218 Q258.064 570.507 252.441 573.795 Q246.872 577.084 242.416 578.728 L242.416 569.499 Q250.426 565.733 256.419 560.376 Q262.413 555.018 264.906 549.979 L271.059 549.979 L271.059 628.058 Z" fill="#000000" fill-rule="nonzero" fill-opacity="1" /><path clip-path="url(#clip690)" d="M295.512 607.689 L305.537 606.841 Q306.65 614.16 310.682 617.873 Q314.766 621.533 320.494 621.533 Q327.39 621.533 332.164 616.335 Q336.938 611.137 336.938 602.544 Q336.938 594.376 332.323 589.655 Q327.761 584.934 320.335 584.934 Q315.721 584.934 312.008 587.056 Q308.295 589.125 306.173 592.466 L297.209 591.299 L304.741 551.358 L343.409 551.358 L343.409 560.482 L312.379 560.482 L308.189 581.38 Q315.19 576.5 322.881 576.5 Q333.066 576.5 340.067 583.555 Q347.069 590.61 347.069 601.696 Q347.069 612.251 340.916 619.942 Q333.437 629.384 320.494 629.384 Q309.886 629.384 303.15 623.443 Q296.466 617.502 295.512 607.689 Z" fill="#000000" fill-rule="nonzero" fill-opacity="1" /><path clip-path="url(#clip690)" d="M145.349 252.662 Q145.349 238.871 148.16 230.491 Q151.024 222.057 156.594 217.495 Q162.216 212.934 170.703 212.934 Q176.962 212.934 181.683 215.48 Q186.404 217.973 189.48 222.746 Q192.556 227.467 194.307 234.31 Q196.057 241.099 196.057 252.662 Q196.057 266.347 193.246 274.781 Q190.435 283.162 184.812 287.776 Q179.243 292.338 170.703 292.338 Q159.458 292.338 153.04 284.275 Q145.349 274.569 145.349 252.662 M155.162 252.662 Q155.162 271.811 159.617 278.176 Q164.126 284.488 170.703 284.488 Q177.28 284.488 181.736 278.123 Q186.244 271.757 186.244 252.662 Q186.244 233.461 181.736 227.149 Q177.28 220.837 170.597 220.837 Q164.02 220.837 160.095 226.406 Q155.162 233.514 155.162 252.662 Z" fill="#000000" fill-rule="nonzero" fill-opacity="1" /><path clip-path="url(#clip690)" d="M211.121 291.012 L211.121 280.138 L221.995 280.138 L221.995 291.012 L211.121 291.012 Z" fill="#000000" fill-rule="nonzero" fill-opacity="1" /><path clip-path="url(#clip690)" d="M286.123 281.836 L286.123 291.012 L234.725 291.012 Q234.619 287.564 235.839 284.382 Q237.802 279.13 242.098 274.038 Q246.447 268.946 254.616 262.263 Q267.293 251.867 271.749 245.82 Q276.204 239.72 276.204 234.31 Q276.204 228.634 272.12 224.762 Q268.089 220.837 261.564 220.837 Q254.669 220.837 250.532 224.974 Q246.394 229.111 246.341 236.431 L236.529 235.423 Q237.536 224.444 244.114 218.715 Q250.691 212.934 261.777 212.934 Q272.969 212.934 279.493 219.14 Q286.017 225.345 286.017 234.522 Q286.017 239.189 284.107 243.698 Q282.198 248.207 277.742 253.193 Q273.34 258.179 263.05 266.878 Q254.457 274.091 252.017 276.69 Q249.577 279.236 247.986 281.836 L286.123 281.836 Z" fill="#000000" fill-rule="nonzero" fill-opacity="1" /><path clip-path="url(#clip690)" d="M296.36 252.662 Q296.36 238.871 299.171 230.491 Q302.036 222.057 307.605 217.495 Q313.228 212.934 321.714 212.934 Q327.973 212.934 332.694 215.48 Q337.415 217.973 340.491 222.746 Q343.568 227.467 345.318 234.31 Q347.069 241.099 347.069 252.662 Q347.069 266.347 344.257 274.781 Q341.446 283.162 335.824 287.776 Q330.254 292.338 321.714 292.338 Q310.469 292.338 304.051 284.275 Q296.36 274.569 296.36 252.662 M306.173 252.662 Q306.173 271.811 310.629 278.176 Q315.137 284.488 321.714 284.488 Q328.292 284.488 332.747 278.123 Q337.256 271.757 337.256 252.662 Q337.256 233.461 332.747 227.149 Q328.292 220.837 321.608 220.837 Q315.031 220.837 311.106 226.406 Q306.173 233.514 306.173 252.662 Z" fill="#000000" fill-rule="nonzero" fill-opacity="1" /><path clip-path="url(#clip690)" d="M85.1722 789.513 L7.41216 789.513 L7.41216 779.965 L85.1722 779.965 L85.1722 789.513 Z" fill="#000000" fill-rule="nonzero" fill-opacity="1" /><path clip-path="url(#clip690)" d="M57.0067 768.72 Q41.3592 768.72 33.8272 760.021 Q27.5682 752.754 27.5682 742.305 Q27.5682 730.689 35.2063 723.316 Q42.7914 715.943 56.2111 715.943 Q67.0847 715.943 73.3437 719.232 Q79.5497 722.467 82.9974 728.726 Q86.4452 734.932 86.4452 742.305 Q86.4452 754.133 78.8601 761.453 Q71.2751 768.72 57.0067 768.72 M57.0067 758.907 Q67.8273 758.907 73.2376 754.186 Q78.5949 749.466 78.5949 742.305 Q78.5949 735.197 73.1846 730.476 Q67.7743 725.756 56.6884 725.756 Q46.2391 725.756 40.8818 730.53 Q35.4715 735.25 35.4715 742.305 Q35.4715 749.466 40.8288 754.186 Q46.1861 758.907 57.0067 758.907 Z" fill="#000000" fill-rule="nonzero" fill-opacity="1" /><path clip-path="url(#clip690)" d="M68.3578 708.57 L66.8726 699.128 Q72.5481 698.333 75.5715 694.726 Q78.5949 691.066 78.5949 684.542 Q78.5949 677.965 75.9428 674.782 Q73.2376 671.6 69.6308 671.6 Q66.3952 671.6 64.5387 674.411 Q63.2657 676.373 61.3031 684.171 Q58.651 694.673 56.7415 698.757 Q54.7789 702.788 51.3842 704.91 Q47.9365 706.979 43.7992 706.979 Q40.0332 706.979 36.8506 705.281 Q33.615 703.531 31.4934 700.561 Q29.849 698.333 28.7352 694.514 Q27.5682 690.642 27.5682 686.239 Q27.5682 679.609 29.4778 674.623 Q31.3873 669.584 34.6759 667.197 Q37.9115 664.81 43.3748 663.908 L44.6478 673.244 Q40.2984 673.88 37.8584 676.957 Q35.4185 679.98 35.4185 685.55 Q35.4185 692.127 37.5932 694.938 Q39.768 697.749 42.6853 697.749 Q44.5418 697.749 46.0269 696.582 Q47.5652 695.416 48.573 692.923 Q49.1034 691.49 51.0129 684.489 Q53.7181 674.358 55.4685 670.38 Q57.1658 666.348 60.4544 664.068 Q63.7431 661.787 68.623 661.787 Q73.3968 661.787 77.6402 664.598 Q81.8305 667.356 84.1644 672.607 Q86.4452 677.859 86.4452 684.489 Q86.4452 695.469 81.8835 701.25 Q77.3219 706.979 68.3578 708.57 Z" fill="#000000" fill-rule="nonzero" fill-opacity="1" /><path clip-path="url(#clip690)" d="M68.3578 654.255 L66.8726 644.813 Q72.5481 644.018 75.5715 640.411 Q78.5949 636.751 78.5949 630.227 Q78.5949 623.649 75.9428 620.467 Q73.2376 617.284 69.6308 617.284 Q66.3952 617.284 64.5387 620.095 Q63.2657 622.058 61.3031 629.855 Q58.651 640.358 56.7415 644.442 Q54.7789 648.473 51.3842 650.595 Q47.9365 652.663 43.7992 652.663 Q40.0332 652.663 36.8506 650.966 Q33.615 649.216 31.4934 646.245 Q29.849 644.018 28.7352 640.198 Q27.5682 636.326 27.5682 631.924 Q27.5682 625.294 29.4778 620.308 Q31.3873 615.269 34.6759 612.882 Q37.9115 610.495 43.3748 609.593 L44.6478 618.929 Q40.2984 619.565 37.8584 622.641 Q35.4185 625.665 35.4185 631.234 Q35.4185 637.812 37.5932 640.623 Q39.768 643.434 42.6853 643.434 Q44.5418 643.434 46.0269 642.267 Q47.5652 641.1 48.573 638.607 Q49.1034 637.175 51.0129 630.173 Q53.7181 620.042 55.4685 616.064 Q57.1658 612.033 60.4544 609.752 Q63.7431 607.471 68.623 607.471 Q73.3968 607.471 77.6402 610.283 Q81.8305 613.041 84.1644 618.292 Q86.4452 623.543 86.4452 630.173 Q86.4452 641.153 81.8835 646.935 Q77.3219 652.663 68.3578 654.255 Z" fill="#000000" fill-rule="nonzero" fill-opacity="1" /><polyline clip-path="url(#clip692)" style="stroke:#009af9; stroke-linecap:round; stroke-linejoin:round; stroke-width:8; stroke-opacity:1; fill:none" points="383.069,47.2441 412.035,573.296 441.001,804.428 469.967,939.922 498.933,1028.84 527.899,1090.85 556.865,1136.88 585.831,1172.06 614.797,1200.37 643.763,1223.19 672.729,1242.23 701.695,1257.96 730.661,1271.4 759.627,1283.08 788.593,1292.84 817.559,1301.17 846.524,1308 875.49,1313.72 904.456,1318.56 933.422,1322.57 962.388,1325.92 991.354,1328.69 1020.32,1330.89 1049.29,1332.93 1078.25,1334.65 1107.22,1336.07 1136.18,1337.17 1165.15,1338.28 1194.12,1339.01 1223.08,1339.81 1252.05,1340.42 1281.01,1340.81 1309.98,1341.2 1338.95,1341.7 1367.91,1342.08 1396.88,1342.41 1425.84,1343.15 1454.81,1343.45 1483.78,1343.26 1512.74,1343.58 1541.71,1344.01 1570.67,1343.47 1599.64,1344.7 1628.61,1344.82 1657.57,1345.27 1686.54,1345.13 1715.5,1345.79 1744.47,1345.76 1773.44,1346.11 1802.4,1346.16 1831.37,1346.64 1860.33,1346.39 1889.3,1346.52 1918.27,1346.72 1947.23,1346.92 1976.2,1347.31 2005.16,1347.6 2034.13,1347.91 2063.1,1348.19 2092.06,1348.48 2121.03,1348.34 2149.99,1348.91 2178.96,1348.92 2207.93,1349 2236.89,1349.37 2265.86,1349.31 2294.82,1349.44 2323.79,1349.74 2352.76,1349.66 "/>
<circle clip-path="url(#clip692)" cx="383.069" cy="47.2441" r="3.6" fill="#009af9" fill-rule="evenodd" fill-opacity="1" stroke="#000000" stroke-opacity="1" stroke-width="3.2"/>
<circle clip-path="url(#clip692)" cx="412.035" cy="573.296" r="3.6" fill="#009af9" fill-rule="evenodd" fill-opacity="1" stroke="#000000" stroke-opacity="1" stroke-width="3.2"/>
<circle clip-path="url(#clip692)" cx="441.001" cy="804.428" r="3.6" fill="#009af9" fill-rule="evenodd" fill-opacity="1" stroke="#000000" stroke-opacity="1" stroke-width="3.2"/>
<circle clip-path="url(#clip692)" cx="469.967" cy="939.922" r="3.6" fill="#009af9" fill-rule="evenodd" fill-opacity="1" stroke="#000000" stroke-opacity="1" stroke-width="3.2"/>
<circle clip-path="url(#clip692)" cx="498.933" cy="1028.84" r="3.6" fill="#009af9" fill-rule="evenodd" fill-opacity="1" stroke="#000000" stroke-opacity="1" stroke-width="3.2"/>
<circle clip-path="url(#clip692)" cx="527.899" cy="1090.85" r="3.6" fill="#009af9" fill-rule="evenodd" fill-opacity="1" stroke="#000000" stroke-opacity="1" stroke-width="3.2"/>
<circle clip-path="url(#clip692)" cx="556.865" cy="1136.88" r="3.6" fill="#009af9" fill-rule="evenodd" fill-opacity="1" stroke="#000000" stroke-opacity="1" stroke-width="3.2"/>
<circle clip-path="url(#clip692)" cx="585.831" cy="1172.06" r="3.6" fill="#009af9" fill-rule="evenodd" fill-opacity="1" stroke="#000000" stroke-opacity="1" stroke-width="3.2"/>
<circle clip-path="url(#clip692)" cx="614.797" cy="1200.37" r="3.6" fill="#009af9" fill-rule="evenodd" fill-opacity="1" stroke="#000000" stroke-opacity="1" stroke-width="3.2"/>
<circle clip-path="url(#clip692)" cx="643.763" cy="1223.19" r="3.6" fill="#009af9" fill-rule="evenodd" fill-opacity="1" stroke="#000000" stroke-opacity="1" stroke-width="3.2"/>
<circle clip-path="url(#clip692)" cx="672.729" cy="1242.23" r="3.6" fill="#009af9" fill-rule="evenodd" fill-opacity="1" stroke="#000000" stroke-opacity="1" stroke-width="3.2"/>
<circle clip-path="url(#clip692)" cx="701.695" cy="1257.96" r="3.6" fill="#009af9" fill-rule="evenodd" fill-opacity="1" stroke="#000000" stroke-opacity="1" stroke-width="3.2"/>
<circle clip-path="url(#clip692)" cx="730.661" cy="1271.4" r="3.6" fill="#009af9" fill-rule="evenodd" fill-opacity="1" stroke="#000000" stroke-opacity="1" stroke-width="3.2"/>
<circle clip-path="url(#clip692)" cx="759.627" cy="1283.08" r="3.6" fill="#009af9" fill-rule="evenodd" fill-opacity="1" stroke="#000000" stroke-opacity="1" stroke-width="3.2"/>
<circle clip-path="url(#clip692)" cx="788.593" cy="1292.84" r="3.6" fill="#009af9" fill-rule="evenodd" fill-opacity="1" stroke="#000000" stroke-opacity="1" stroke-width="3.2"/>
<circle clip-path="url(#clip692)" cx="817.559" cy="1301.17" r="3.6" fill="#009af9" fill-rule="evenodd" fill-opacity="1" stroke="#000000" stroke-opacity="1" stroke-width="3.2"/>
<circle clip-path="url(#clip692)" cx="846.524" cy="1308" r="3.6" fill="#009af9" fill-rule="evenodd" fill-opacity="1" stroke="#000000" stroke-opacity="1" stroke-width="3.2"/>
<circle clip-path="url(#clip692)" cx="875.49" cy="1313.72" r="3.6" fill="#009af9" fill-rule="evenodd" fill-opacity="1" stroke="#000000" stroke-opacity="1" stroke-width="3.2"/>
<circle clip-path="url(#clip692)" cx="904.456" cy="1318.56" r="3.6" fill="#009af9" fill-rule="evenodd" fill-opacity="1" stroke="#000000" stroke-opacity="1" stroke-width="3.2"/>
<circle clip-path="url(#clip692)" cx="933.422" cy="1322.57" r="3.6" fill="#009af9" fill-rule="evenodd" fill-opacity="1" stroke="#000000" stroke-opacity="1" stroke-width="3.2"/>
<circle clip-path="url(#clip692)" cx="962.388" cy="1325.92" r="3.6" fill="#009af9" fill-rule="evenodd" fill-opacity="1" stroke="#000000" stroke-opacity="1" stroke-width="3.2"/>
<circle clip-path="url(#clip692)" cx="991.354" cy="1328.69" r="3.6" fill="#009af9" fill-rule="evenodd" fill-opacity="1" stroke="#000000" stroke-opacity="1" stroke-width="3.2"/>
<circle clip-path="url(#clip692)" cx="1020.32" cy="1330.89" r="3.6" fill="#009af9" fill-rule="evenodd" fill-opacity="1" stroke="#000000" stroke-opacity="1" stroke-width="3.2"/>
<circle clip-path="url(#clip692)" cx="1049.29" cy="1332.93" r="3.6" fill="#009af9" fill-rule="evenodd" fill-opacity="1" stroke="#000000" stroke-opacity="1" stroke-width="3.2"/>
<circle clip-path="url(#clip692)" cx="1078.25" cy="1334.65" r="3.6" fill="#009af9" fill-rule="evenodd" fill-opacity="1" stroke="#000000" stroke-opacity="1" stroke-width="3.2"/>
<circle clip-path="url(#clip692)" cx="1107.22" cy="1336.07" r="3.6" fill="#009af9" fill-rule="evenodd" fill-opacity="1" stroke="#000000" stroke-opacity="1" stroke-width="3.2"/>
<circle clip-path="url(#clip692)" cx="1136.18" cy="1337.17" r="3.6" fill="#009af9" fill-rule="evenodd" fill-opacity="1" stroke="#000000" stroke-opacity="1" stroke-width="3.2"/>
<circle clip-path="url(#clip692)" cx="1165.15" cy="1338.28" r="3.6" fill="#009af9" fill-rule="evenodd" fill-opacity="1" stroke="#000000" stroke-opacity="1" stroke-width="3.2"/>
<circle clip-path="url(#clip692)" cx="1194.12" cy="1339.01" r="3.6" fill="#009af9" fill-rule="evenodd" fill-opacity="1" stroke="#000000" stroke-opacity="1" stroke-width="3.2"/>
<circle clip-path="url(#clip692)" cx="1223.08" cy="1339.81" r="3.6" fill="#009af9" fill-rule="evenodd" fill-opacity="1" stroke="#000000" stroke-opacity="1" stroke-width="3.2"/>
<circle clip-path="url(#clip692)" cx="1252.05" cy="1340.42" r="3.6" fill="#009af9" fill-rule="evenodd" fill-opacity="1" stroke="#000000" stroke-opacity="1" stroke-width="3.2"/>
<circle clip-path="url(#clip692)" cx="1281.01" cy="1340.81" r="3.6" fill="#009af9" fill-rule="evenodd" fill-opacity="1" stroke="#000000" stroke-opacity="1" stroke-width="3.2"/>
<circle clip-path="url(#clip692)" cx="1309.98" cy="1341.2" r="3.6" fill="#009af9" fill-rule="evenodd" fill-opacity="1" stroke="#000000" stroke-opacity="1" stroke-width="3.2"/>
<circle clip-path="url(#clip692)" cx="1338.95" cy="1341.7" r="3.6" fill="#009af9" fill-rule="evenodd" fill-opacity="1" stroke="#000000" stroke-opacity="1" stroke-width="3.2"/>
<circle clip-path="url(#clip692)" cx="1367.91" cy="1342.08" r="3.6" fill="#009af9" fill-rule="evenodd" fill-opacity="1" stroke="#000000" stroke-opacity="1" stroke-width="3.2"/>
<circle clip-path="url(#clip692)" cx="1396.88" cy="1342.41" r="3.6" fill="#009af9" fill-rule="evenodd" fill-opacity="1" stroke="#000000" stroke-opacity="1" stroke-width="3.2"/>
<circle clip-path="url(#clip692)" cx="1425.84" cy="1343.15" r="3.6" fill="#009af9" fill-rule="evenodd" fill-opacity="1" stroke="#000000" stroke-opacity="1" stroke-width="3.2"/>
<circle clip-path="url(#clip692)" cx="1454.81" cy="1343.45" r="3.6" fill="#009af9" fill-rule="evenodd" fill-opacity="1" stroke="#000000" stroke-opacity="1" stroke-width="3.2"/>
<circle clip-path="url(#clip692)" cx="1483.78" cy="1343.26" r="3.6" fill="#009af9" fill-rule="evenodd" fill-opacity="1" stroke="#000000" stroke-opacity="1" stroke-width="3.2"/>
<circle clip-path="url(#clip692)" cx="1512.74" cy="1343.58" r="3.6" fill="#009af9" fill-rule="evenodd" fill-opacity="1" stroke="#000000" stroke-opacity="1" stroke-width="3.2"/>
<circle clip-path="url(#clip692)" cx="1541.71" cy="1344.01" r="3.6" fill="#009af9" fill-rule="evenodd" fill-opacity="1" stroke="#000000" stroke-opacity="1" stroke-width="3.2"/>
<circle clip-path="url(#clip692)" cx="1570.67" cy="1343.47" r="3.6" fill="#009af9" fill-rule="evenodd" fill-opacity="1" stroke="#000000" stroke-opacity="1" stroke-width="3.2"/>
<circle clip-path="url(#clip692)" cx="1599.64" cy="1344.7" r="3.6" fill="#009af9" fill-rule="evenodd" fill-opacity="1" stroke="#000000" stroke-opacity="1" stroke-width="3.2"/>
<circle clip-path="url(#clip692)" cx="1628.61" cy="1344.82" r="3.6" fill="#009af9" fill-rule="evenodd" fill-opacity="1" stroke="#000000" stroke-opacity="1" stroke-width="3.2"/>
<circle clip-path="url(#clip692)" cx="1657.57" cy="1345.27" r="3.6" fill="#009af9" fill-rule="evenodd" fill-opacity="1" stroke="#000000" stroke-opacity="1" stroke-width="3.2"/>
<circle clip-path="url(#clip692)" cx="1686.54" cy="1345.13" r="3.6" fill="#009af9" fill-rule="evenodd" fill-opacity="1" stroke="#000000" stroke-opacity="1" stroke-width="3.2"/>
<circle clip-path="url(#clip692)" cx="1715.5" cy="1345.79" r="3.6" fill="#009af9" fill-rule="evenodd" fill-opacity="1" stroke="#000000" stroke-opacity="1" stroke-width="3.2"/>
<circle clip-path="url(#clip692)" cx="1744.47" cy="1345.76" r="3.6" fill="#009af9" fill-rule="evenodd" fill-opacity="1" stroke="#000000" stroke-opacity="1" stroke-width="3.2"/>
<circle clip-path="url(#clip692)" cx="1773.44" cy="1346.11" r="3.6" fill="#009af9" fill-rule="evenodd" fill-opacity="1" stroke="#000000" stroke-opacity="1" stroke-width="3.2"/>
<circle clip-path="url(#clip692)" cx="1802.4" cy="1346.16" r="3.6" fill="#009af9" fill-rule="evenodd" fill-opacity="1" stroke="#000000" stroke-opacity="1" stroke-width="3.2"/>
<circle clip-path="url(#clip692)" cx="1831.37" cy="1346.64" r="3.6" fill="#009af9" fill-rule="evenodd" fill-opacity="1" stroke="#000000" stroke-opacity="1" stroke-width="3.2"/>
<circle clip-path="url(#clip692)" cx="1860.33" cy="1346.39" r="3.6" fill="#009af9" fill-rule="evenodd" fill-opacity="1" stroke="#000000" stroke-opacity="1" stroke-width="3.2"/>
<circle clip-path="url(#clip692)" cx="1889.3" cy="1346.52" r="3.6" fill="#009af9" fill-rule="evenodd" fill-opacity="1" stroke="#000000" stroke-opacity="1" stroke-width="3.2"/>
<circle clip-path="url(#clip692)" cx="1918.27" cy="1346.72" r="3.6" fill="#009af9" fill-rule="evenodd" fill-opacity="1" stroke="#000000" stroke-opacity="1" stroke-width="3.2"/>
<circle clip-path="url(#clip692)" cx="1947.23" cy="1346.92" r="3.6" fill="#009af9" fill-rule="evenodd" fill-opacity="1" stroke="#000000" stroke-opacity="1" stroke-width="3.2"/>
<circle clip-path="url(#clip692)" cx="1976.2" cy="1347.31" r="3.6" fill="#009af9" fill-rule="evenodd" fill-opacity="1" stroke="#000000" stroke-opacity="1" stroke-width="3.2"/>
<circle clip-path="url(#clip692)" cx="2005.16" cy="1347.6" r="3.6" fill="#009af9" fill-rule="evenodd" fill-opacity="1" stroke="#000000" stroke-opacity="1" stroke-width="3.2"/>
<circle clip-path="url(#clip692)" cx="2034.13" cy="1347.91" r="3.6" fill="#009af9" fill-rule="evenodd" fill-opacity="1" stroke="#000000" stroke-opacity="1" stroke-width="3.2"/>
<circle clip-path="url(#clip692)" cx="2063.1" cy="1348.19" r="3.6" fill="#009af9" fill-rule="evenodd" fill-opacity="1" stroke="#000000" stroke-opacity="1" stroke-width="3.2"/>
<circle clip-path="url(#clip692)" cx="2092.06" cy="1348.48" r="3.6" fill="#009af9" fill-rule="evenodd" fill-opacity="1" stroke="#000000" stroke-opacity="1" stroke-width="3.2"/>
<circle clip-path="url(#clip692)" cx="2121.03" cy="1348.34" r="3.6" fill="#009af9" fill-rule="evenodd" fill-opacity="1" stroke="#000000" stroke-opacity="1" stroke-width="3.2"/>
<circle clip-path="url(#clip692)" cx="2149.99" cy="1348.91" r="3.6" fill="#009af9" fill-rule="evenodd" fill-opacity="1" stroke="#000000" stroke-opacity="1" stroke-width="3.2"/>
<circle clip-path="url(#clip692)" cx="2178.96" cy="1348.92" r="3.6" fill="#009af9" fill-rule="evenodd" fill-opacity="1" stroke="#000000" stroke-opacity="1" stroke-width="3.2"/>
<circle clip-path="url(#clip692)" cx="2207.93" cy="1349" r="3.6" fill="#009af9" fill-rule="evenodd" fill-opacity="1" stroke="#000000" stroke-opacity="1" stroke-width="3.2"/>
<circle clip-path="url(#clip692)" cx="2236.89" cy="1349.37" r="3.6" fill="#009af9" fill-rule="evenodd" fill-opacity="1" stroke="#000000" stroke-opacity="1" stroke-width="3.2"/>
<circle clip-path="url(#clip692)" cx="2265.86" cy="1349.31" r="3.6" fill="#009af9" fill-rule="evenodd" fill-opacity="1" stroke="#000000" stroke-opacity="1" stroke-width="3.2"/>
<circle clip-path="url(#clip692)" cx="2294.82" cy="1349.44" r="3.6" fill="#009af9" fill-rule="evenodd" fill-opacity="1" stroke="#000000" stroke-opacity="1" stroke-width="3.2"/>
<circle clip-path="url(#clip692)" cx="2323.79" cy="1349.74" r="3.6" fill="#009af9" fill-rule="evenodd" fill-opacity="1" stroke="#000000" stroke-opacity="1" stroke-width="3.2"/>
<circle clip-path="url(#clip692)" cx="2352.76" cy="1349.66" r="3.6" fill="#009af9" fill-rule="evenodd" fill-opacity="1" stroke="#000000" stroke-opacity="1" stroke-width="3.2"/>
<polyline clip-path="url(#clip692)" style="stroke:#e26f46; stroke-linecap:round; stroke-linejoin:round; stroke-width:8; stroke-opacity:1; fill:none" points="383.069,803.451 412.035,933.594 441.001,989.207 469.967,1019.48 498.933,1041.44 527.899,1060.06 556.865,1077.21 585.831,1093.88 614.797,1110 643.763,1126.14 672.729,1140.89 701.695,1155.37 730.661,1169.16 759.627,1182.12 788.593,1193.8 817.559,1204.1 846.524,1213.77 875.49,1222.4 904.456,1230.05 933.422,1236.88 962.388,1243.1 991.354,1248.52 1020.32,1253.37 1049.29,1257.52 1078.25,1261.28 1107.22,1264.59 1136.18,1267.66 1165.15,1270.21 1194.12,1272.58 1223.08,1274.06 1252.05,1276.57 1281.01,1277.62 1309.98,1278.82 1338.95,1278.82 1367.91,1280.36 1396.88,1281.94 1425.84,1281.94 1454.81,1282.99 1483.78,1283.2 1512.74,1283.09 1541.71,1283.76 1570.67,1284.53 1599.64,1284.89 1628.61,1285.01 1657.57,1286.02 1686.54,1287.39 1715.5,1287.88 1744.47,1286.87 1773.44,1287.97 1802.4,1288.65 1831.37,1285.55 1860.33,1285.85 1889.3,1287.25 1918.27,1287.65 1947.23,1287.54 1976.2,1287.4 2005.16,1288.08 2034.13,1288.67 2063.1,1288.83 2092.06,1289.19 2121.03,1289.23 2149.99,1289.31 2178.96,1289.86 2207.93,1289.96 2236.89,1289.67 2265.86,1289.78 2294.82,1290.2 2323.79,1290.34 2352.76,1289.98 "/>
<circle clip-path="url(#clip692)" cx="383.069" cy="803.451" r="3.6" fill="#e26f46" fill-rule="evenodd" fill-opacity="1" stroke="#000000" stroke-opacity="1" stroke-width="3.2"/>
<circle clip-path="url(#clip692)" cx="412.035" cy="933.594" r="3.6" fill="#e26f46" fill-rule="evenodd" fill-opacity="1" stroke="#000000" stroke-opacity="1" stroke-width="3.2"/>
<circle clip-path="url(#clip692)" cx="441.001" cy="989.207" r="3.6" fill="#e26f46" fill-rule="evenodd" fill-opacity="1" stroke="#000000" stroke-opacity="1" stroke-width="3.2"/>
<circle clip-path="url(#clip692)" cx="469.967" cy="1019.48" r="3.6" fill="#e26f46" fill-rule="evenodd" fill-opacity="1" stroke="#000000" stroke-opacity="1" stroke-width="3.2"/>
<circle clip-path="url(#clip692)" cx="498.933" cy="1041.44" r="3.6" fill="#e26f46" fill-rule="evenodd" fill-opacity="1" stroke="#000000" stroke-opacity="1" stroke-width="3.2"/>
<circle clip-path="url(#clip692)" cx="527.899" cy="1060.06" r="3.6" fill="#e26f46" fill-rule="evenodd" fill-opacity="1" stroke="#000000" stroke-opacity="1" stroke-width="3.2"/>
<circle clip-path="url(#clip692)" cx="556.865" cy="1077.21" r="3.6" fill="#e26f46" fill-rule="evenodd" fill-opacity="1" stroke="#000000" stroke-opacity="1" stroke-width="3.2"/>
<circle clip-path="url(#clip692)" cx="585.831" cy="1093.88" r="3.6" fill="#e26f46" fill-rule="evenodd" fill-opacity="1" stroke="#000000" stroke-opacity="1" stroke-width="3.2"/>
<circle clip-path="url(#clip692)" cx="614.797" cy="1110" r="3.6" fill="#e26f46" fill-rule="evenodd" fill-opacity="1" stroke="#000000" stroke-opacity="1" stroke-width="3.2"/>
<circle clip-path="url(#clip692)" cx="643.763" cy="1126.14" r="3.6" fill="#e26f46" fill-rule="evenodd" fill-opacity="1" stroke="#000000" stroke-opacity="1" stroke-width="3.2"/>
<circle clip-path="url(#clip692)" cx="672.729" cy="1140.89" r="3.6" fill="#e26f46" fill-rule="evenodd" fill-opacity="1" stroke="#000000" stroke-opacity="1" stroke-width="3.2"/>
<circle clip-path="url(#clip692)" cx="701.695" cy="1155.37" r="3.6" fill="#e26f46" fill-rule="evenodd" fill-opacity="1" stroke="#000000" stroke-opacity="1" stroke-width="3.2"/>
<circle clip-path="url(#clip692)" cx="730.661" cy="1169.16" r="3.6" fill="#e26f46" fill-rule="evenodd" fill-opacity="1" stroke="#000000" stroke-opacity="1" stroke-width="3.2"/>
<circle clip-path="url(#clip692)" cx="759.627" cy="1182.12" r="3.6" fill="#e26f46" fill-rule="evenodd" fill-opacity="1" stroke="#000000" stroke-opacity="1" stroke-width="3.2"/>
<circle clip-path="url(#clip692)" cx="788.593" cy="1193.8" r="3.6" fill="#e26f46" fill-rule="evenodd" fill-opacity="1" stroke="#000000" stroke-opacity="1" stroke-width="3.2"/>
<circle clip-path="url(#clip692)" cx="817.559" cy="1204.1" r="3.6" fill="#e26f46" fill-rule="evenodd" fill-opacity="1" stroke="#000000" stroke-opacity="1" stroke-width="3.2"/>
<circle clip-path="url(#clip692)" cx="846.524" cy="1213.77" r="3.6" fill="#e26f46" fill-rule="evenodd" fill-opacity="1" stroke="#000000" stroke-opacity="1" stroke-width="3.2"/>
<circle clip-path="url(#clip692)" cx="875.49" cy="1222.4" r="3.6" fill="#e26f46" fill-rule="evenodd" fill-opacity="1" stroke="#000000" stroke-opacity="1" stroke-width="3.2"/>
<circle clip-path="url(#clip692)" cx="904.456" cy="1230.05" r="3.6" fill="#e26f46" fill-rule="evenodd" fill-opacity="1" stroke="#000000" stroke-opacity="1" stroke-width="3.2"/>
<circle clip-path="url(#clip692)" cx="933.422" cy="1236.88" r="3.6" fill="#e26f46" fill-rule="evenodd" fill-opacity="1" stroke="#000000" stroke-opacity="1" stroke-width="3.2"/>
<circle clip-path="url(#clip692)" cx="962.388" cy="1243.1" r="3.6" fill="#e26f46" fill-rule="evenodd" fill-opacity="1" stroke="#000000" stroke-opacity="1" stroke-width="3.2"/>
<circle clip-path="url(#clip692)" cx="991.354" cy="1248.52" r="3.6" fill="#e26f46" fill-rule="evenodd" fill-opacity="1" stroke="#000000" stroke-opacity="1" stroke-width="3.2"/>
<circle clip-path="url(#clip692)" cx="1020.32" cy="1253.37" r="3.6" fill="#e26f46" fill-rule="evenodd" fill-opacity="1" stroke="#000000" stroke-opacity="1" stroke-width="3.2"/>
<circle clip-path="url(#clip692)" cx="1049.29" cy="1257.52" r="3.6" fill="#e26f46" fill-rule="evenodd" fill-opacity="1" stroke="#000000" stroke-opacity="1" stroke-width="3.2"/>
<circle clip-path="url(#clip692)" cx="1078.25" cy="1261.28" r="3.6" fill="#e26f46" fill-rule="evenodd" fill-opacity="1" stroke="#000000" stroke-opacity="1" stroke-width="3.2"/>
<circle clip-path="url(#clip692)" cx="1107.22" cy="1264.59" r="3.6" fill="#e26f46" fill-rule="evenodd" fill-opacity="1" stroke="#000000" stroke-opacity="1" stroke-width="3.2"/>
<circle clip-path="url(#clip692)" cx="1136.18" cy="1267.66" r="3.6" fill="#e26f46" fill-rule="evenodd" fill-opacity="1" stroke="#000000" stroke-opacity="1" stroke-width="3.2"/>
<circle clip-path="url(#clip692)" cx="1165.15" cy="1270.21" r="3.6" fill="#e26f46" fill-rule="evenodd" fill-opacity="1" stroke="#000000" stroke-opacity="1" stroke-width="3.2"/>
<circle clip-path="url(#clip692)" cx="1194.12" cy="1272.58" r="3.6" fill="#e26f46" fill-rule="evenodd" fill-opacity="1" stroke="#000000" stroke-opacity="1" stroke-width="3.2"/>
<circle clip-path="url(#clip692)" cx="1223.08" cy="1274.06" r="3.6" fill="#e26f46" fill-rule="evenodd" fill-opacity="1" stroke="#000000" stroke-opacity="1" stroke-width="3.2"/>
<circle clip-path="url(#clip692)" cx="1252.05" cy="1276.57" r="3.6" fill="#e26f46" fill-rule="evenodd" fill-opacity="1" stroke="#000000" stroke-opacity="1" stroke-width="3.2"/>
<circle clip-path="url(#clip692)" cx="1281.01" cy="1277.62" r="3.6" fill="#e26f46" fill-rule="evenodd" fill-opacity="1" stroke="#000000" stroke-opacity="1" stroke-width="3.2"/>
<circle clip-path="url(#clip692)" cx="1309.98" cy="1278.82" r="3.6" fill="#e26f46" fill-rule="evenodd" fill-opacity="1" stroke="#000000" stroke-opacity="1" stroke-width="3.2"/>
<circle clip-path="url(#clip692)" cx="1338.95" cy="1278.82" r="3.6" fill="#e26f46" fill-rule="evenodd" fill-opacity="1" stroke="#000000" stroke-opacity="1" stroke-width="3.2"/>
<circle clip-path="url(#clip692)" cx="1367.91" cy="1280.36" r="3.6" fill="#e26f46" fill-rule="evenodd" fill-opacity="1" stroke="#000000" stroke-opacity="1" stroke-width="3.2"/>
<circle clip-path="url(#clip692)" cx="1396.88" cy="1281.94" r="3.6" fill="#e26f46" fill-rule="evenodd" fill-opacity="1" stroke="#000000" stroke-opacity="1" stroke-width="3.2"/>
<circle clip-path="url(#clip692)" cx="1425.84" cy="1281.94" r="3.6" fill="#e26f46" fill-rule="evenodd" fill-opacity="1" stroke="#000000" stroke-opacity="1" stroke-width="3.2"/>
<circle clip-path="url(#clip692)" cx="1454.81" cy="1282.99" r="3.6" fill="#e26f46" fill-rule="evenodd" fill-opacity="1" stroke="#000000" stroke-opacity="1" stroke-width="3.2"/>
<circle clip-path="url(#clip692)" cx="1483.78" cy="1283.2" r="3.6" fill="#e26f46" fill-rule="evenodd" fill-opacity="1" stroke="#000000" stroke-opacity="1" stroke-width="3.2"/>
<circle clip-path="url(#clip692)" cx="1512.74" cy="1283.09" r="3.6" fill="#e26f46" fill-rule="evenodd" fill-opacity="1" stroke="#000000" stroke-opacity="1" stroke-width="3.2"/>
<circle clip-path="url(#clip692)" cx="1541.71" cy="1283.76" r="3.6" fill="#e26f46" fill-rule="evenodd" fill-opacity="1" stroke="#000000" stroke-opacity="1" stroke-width="3.2"/>
<circle clip-path="url(#clip692)" cx="1570.67" cy="1284.53" r="3.6" fill="#e26f46" fill-rule="evenodd" fill-opacity="1" stroke="#000000" stroke-opacity="1" stroke-width="3.2"/>
<circle clip-path="url(#clip692)" cx="1599.64" cy="1284.89" r="3.6" fill="#e26f46" fill-rule="evenodd" fill-opacity="1" stroke="#000000" stroke-opacity="1" stroke-width="3.2"/>
<circle clip-path="url(#clip692)" cx="1628.61" cy="1285.01" r="3.6" fill="#e26f46" fill-rule="evenodd" fill-opacity="1" stroke="#000000" stroke-opacity="1" stroke-width="3.2"/>
<circle clip-path="url(#clip692)" cx="1657.57" cy="1286.02" r="3.6" fill="#e26f46" fill-rule="evenodd" fill-opacity="1" stroke="#000000" stroke-opacity="1" stroke-width="3.2"/>
<circle clip-path="url(#clip692)" cx="1686.54" cy="1287.39" r="3.6" fill="#e26f46" fill-rule="evenodd" fill-opacity="1" stroke="#000000" stroke-opacity="1" stroke-width="3.2"/>
<circle clip-path="url(#clip692)" cx="1715.5" cy="1287.88" r="3.6" fill="#e26f46" fill-rule="evenodd" fill-opacity="1" stroke="#000000" stroke-opacity="1" stroke-width="3.2"/>
<circle clip-path="url(#clip692)" cx="1744.47" cy="1286.87" r="3.6" fill="#e26f46" fill-rule="evenodd" fill-opacity="1" stroke="#000000" stroke-opacity="1" stroke-width="3.2"/>
<circle clip-path="url(#clip692)" cx="1773.44" cy="1287.97" r="3.6" fill="#e26f46" fill-rule="evenodd" fill-opacity="1" stroke="#000000" stroke-opacity="1" stroke-width="3.2"/>
<circle clip-path="url(#clip692)" cx="1802.4" cy="1288.65" r="3.6" fill="#e26f46" fill-rule="evenodd" fill-opacity="1" stroke="#000000" stroke-opacity="1" stroke-width="3.2"/>
<circle clip-path="url(#clip692)" cx="1831.37" cy="1285.55" r="3.6" fill="#e26f46" fill-rule="evenodd" fill-opacity="1" stroke="#000000" stroke-opacity="1" stroke-width="3.2"/>
<circle clip-path="url(#clip692)" cx="1860.33" cy="1285.85" r="3.6" fill="#e26f46" fill-rule="evenodd" fill-opacity="1" stroke="#000000" stroke-opacity="1" stroke-width="3.2"/>
<circle clip-path="url(#clip692)" cx="1889.3" cy="1287.25" r="3.6" fill="#e26f46" fill-rule="evenodd" fill-opacity="1" stroke="#000000" stroke-opacity="1" stroke-width="3.2"/>
<circle clip-path="url(#clip692)" cx="1918.27" cy="1287.65" r="3.6" fill="#e26f46" fill-rule="evenodd" fill-opacity="1" stroke="#000000" stroke-opacity="1" stroke-width="3.2"/>
<circle clip-path="url(#clip692)" cx="1947.23" cy="1287.54" r="3.6" fill="#e26f46" fill-rule="evenodd" fill-opacity="1" stroke="#000000" stroke-opacity="1" stroke-width="3.2"/>
<circle clip-path="url(#clip692)" cx="1976.2" cy="1287.4" r="3.6" fill="#e26f46" fill-rule="evenodd" fill-opacity="1" stroke="#000000" stroke-opacity="1" stroke-width="3.2"/>
<circle clip-path="url(#clip692)" cx="2005.16" cy="1288.08" r="3.6" fill="#e26f46" fill-rule="evenodd" fill-opacity="1" stroke="#000000" stroke-opacity="1" stroke-width="3.2"/>
<circle clip-path="url(#clip692)" cx="2034.13" cy="1288.67" r="3.6" fill="#e26f46" fill-rule="evenodd" fill-opacity="1" stroke="#000000" stroke-opacity="1" stroke-width="3.2"/>
<circle clip-path="url(#clip692)" cx="2063.1" cy="1288.83" r="3.6" fill="#e26f46" fill-rule="evenodd" fill-opacity="1" stroke="#000000" stroke-opacity="1" stroke-width="3.2"/>
<circle clip-path="url(#clip692)" cx="2092.06" cy="1289.19" r="3.6" fill="#e26f46" fill-rule="evenodd" fill-opacity="1" stroke="#000000" stroke-opacity="1" stroke-width="3.2"/>
<circle clip-path="url(#clip692)" cx="2121.03" cy="1289.23" r="3.6" fill="#e26f46" fill-rule="evenodd" fill-opacity="1" stroke="#000000" stroke-opacity="1" stroke-width="3.2"/>
<circle clip-path="url(#clip692)" cx="2149.99" cy="1289.31" r="3.6" fill="#e26f46" fill-rule="evenodd" fill-opacity="1" stroke="#000000" stroke-opacity="1" stroke-width="3.2"/>
<circle clip-path="url(#clip692)" cx="2178.96" cy="1289.86" r="3.6" fill="#e26f46" fill-rule="evenodd" fill-opacity="1" stroke="#000000" stroke-opacity="1" stroke-width="3.2"/>
<circle clip-path="url(#clip692)" cx="2207.93" cy="1289.96" r="3.6" fill="#e26f46" fill-rule="evenodd" fill-opacity="1" stroke="#000000" stroke-opacity="1" stroke-width="3.2"/>
<circle clip-path="url(#clip692)" cx="2236.89" cy="1289.67" r="3.6" fill="#e26f46" fill-rule="evenodd" fill-opacity="1" stroke="#000000" stroke-opacity="1" stroke-width="3.2"/>
<circle clip-path="url(#clip692)" cx="2265.86" cy="1289.78" r="3.6" fill="#e26f46" fill-rule="evenodd" fill-opacity="1" stroke="#000000" stroke-opacity="1" stroke-width="3.2"/>
<circle clip-path="url(#clip692)" cx="2294.82" cy="1290.2" r="3.6" fill="#e26f46" fill-rule="evenodd" fill-opacity="1" stroke="#000000" stroke-opacity="1" stroke-width="3.2"/>
<circle clip-path="url(#clip692)" cx="2323.79" cy="1290.34" r="3.6" fill="#e26f46" fill-rule="evenodd" fill-opacity="1" stroke="#000000" stroke-opacity="1" stroke-width="3.2"/>
<circle clip-path="url(#clip692)" cx="2352.76" cy="1289.98" r="3.6" fill="#e26f46" fill-rule="evenodd" fill-opacity="1" stroke="#000000" stroke-opacity="1" stroke-width="3.2"/>
<path clip-path="url(#clip690)" d="M1631.32 440.581 L2287.1 440.581 L2287.1 90.6606 L1631.32 90.6606  Z" fill="#ffffff" fill-rule="evenodd" fill-opacity="1"/>
<polyline clip-path="url(#clip690)" style="stroke:#000000; stroke-linecap:round; stroke-linejoin:round; stroke-width:4; stroke-opacity:1; fill:none" points="1631.32,440.581 2287.1,440.581 2287.1,90.6606 1631.32,90.6606 1631.32,440.581 "/>
<polyline clip-path="url(#clip690)" style="stroke:#009af9; stroke-linecap:round; stroke-linejoin:round; stroke-width:18; stroke-opacity:1; fill:none" points="1653.2,207.301 1784.51,207.301 "/>
<circle clip-path="url(#clip690)" cx="1718.86" cy="207.301" r="8.10571" fill="#009af9" fill-rule="evenodd" fill-opacity="1" stroke="#000000" stroke-opacity="1" stroke-width="7.20507"/>
<path clip-path="url(#clip690)" d="M1832.5 237.641 L1833.87 246.075 Q1829.84 246.923 1826.66 246.923 Q1821.46 246.923 1818.6 245.279 Q1815.73 243.635 1814.57 240.982 Q1813.4 238.277 1813.4 229.684 L1813.4 197.276 L1806.4 197.276 L1806.4 189.85 L1813.4 189.85 L1813.4 175.9 L1822.89 170.171 L1822.89 189.85 L1832.5 189.85 L1832.5 197.276 L1822.89 197.276 L1822.89 230.215 Q1822.89 234.299 1823.37 235.466 Q1823.9 236.633 1825.02 237.323 Q1826.18 238.012 1828.3 238.012 Q1829.9 238.012 1832.5 237.641 Z" fill="#000000" fill-rule="nonzero" fill-opacity="1" /><path clip-path="url(#clip690)" d="M1841.72 246.181 L1841.72 189.85 L1850.32 189.85 L1850.32 198.39 Q1853.61 192.396 1856.36 190.486 Q1859.18 188.577 1862.52 188.577 Q1867.34 188.577 1872.33 191.653 L1869.04 200.511 Q1865.54 198.443 1862.04 198.443 Q1858.91 198.443 1856.42 200.352 Q1853.92 202.209 1852.86 205.55 Q1851.27 210.642 1851.27 216.689 L1851.27 246.181 L1841.72 246.181 Z" fill="#000000" fill-rule="nonzero" fill-opacity="1" /><path clip-path="url(#clip690)" d="M1914.76 239.232 Q1909.46 243.741 1904.53 245.597 Q1899.65 247.454 1894.02 247.454 Q1884.74 247.454 1879.76 242.945 Q1874.77 238.383 1874.77 231.329 Q1874.77 227.191 1876.63 223.797 Q1878.54 220.349 1881.56 218.28 Q1884.64 216.212 1888.45 215.151 Q1891.27 214.408 1896.94 213.719 Q1908.5 212.34 1913.97 210.43 Q1914.02 208.468 1914.02 207.937 Q1914.02 202.102 1911.32 199.716 Q1907.66 196.48 1900.44 196.48 Q1893.71 196.48 1890.47 198.867 Q1887.29 201.201 1885.75 207.195 L1876.41 205.922 Q1877.69 199.928 1880.6 196.268 Q1883.52 192.555 1889.04 190.592 Q1894.55 188.577 1901.82 188.577 Q1909.04 188.577 1913.54 190.274 Q1918.05 191.971 1920.17 194.57 Q1922.3 197.116 1923.14 201.042 Q1923.62 203.482 1923.62 209.847 L1923.62 222.577 Q1923.62 235.89 1924.21 239.444 Q1924.84 242.945 1926.65 246.181 L1916.67 246.181 Q1915.19 243.21 1914.76 239.232 M1913.97 217.909 Q1908.77 220.031 1898.37 221.516 Q1892.49 222.365 1890.05 223.425 Q1887.61 224.486 1886.28 226.555 Q1884.95 228.571 1884.95 231.064 Q1884.95 234.883 1887.82 237.429 Q1890.74 239.975 1896.31 239.975 Q1901.82 239.975 1906.12 237.588 Q1910.41 235.148 1912.43 230.957 Q1913.97 227.722 1913.97 221.41 L1913.97 217.909 Z" fill="#000000" fill-rule="nonzero" fill-opacity="1" /><path clip-path="url(#clip690)" d="M1938.47 179.4 L1938.47 168.421 L1948.02 168.421 L1948.02 179.4 L1938.47 179.4 M1938.47 246.181 L1938.47 189.85 L1948.02 189.85 L1948.02 246.181 L1938.47 246.181 Z" fill="#000000" fill-rule="nonzero" fill-opacity="1" /><path clip-path="url(#clip690)" d="M1962.55 246.181 L1962.55 189.85 L1971.15 189.85 L1971.15 197.859 Q1977.35 188.577 1989.08 188.577 Q1994.17 188.577 1998.41 190.433 Q2002.71 192.237 2004.83 195.207 Q2006.95 198.177 2007.8 202.262 Q2008.33 204.914 2008.33 211.544 L2008.33 246.181 L1998.78 246.181 L1998.78 211.915 Q1998.78 206.081 1997.67 203.216 Q1996.56 200.299 1993.69 198.602 Q1990.88 196.851 1987.06 196.851 Q1980.96 196.851 1976.51 200.723 Q1972.1 204.595 1972.1 215.416 L1972.1 246.181 L1962.55 246.181 Z" fill="#000000" fill-rule="nonzero" fill-opacity="1" /><path clip-path="url(#clip690)" d="M2014.17 267.769 L2014.17 260.873 L2077.44 260.873 L2077.44 267.769 L2014.17 267.769 Z" fill="#000000" fill-rule="nonzero" fill-opacity="1" /><path clip-path="url(#clip690)" d="M2083.17 246.181 L2083.17 168.421 L2092.72 168.421 L2092.72 246.181 L2083.17 246.181 Z" fill="#000000" fill-rule="nonzero" fill-opacity="1" /><path clip-path="url(#clip690)" d="M2103.97 218.015 Q2103.97 202.368 2112.66 194.836 Q2119.93 188.577 2130.38 188.577 Q2142 188.577 2149.37 196.215 Q2156.74 203.8 2156.74 217.22 Q2156.74 228.093 2153.45 234.352 Q2150.22 240.558 2143.96 244.006 Q2137.75 247.454 2130.38 247.454 Q2118.55 247.454 2111.23 239.869 Q2103.97 232.284 2103.97 218.015 M2113.78 218.015 Q2113.78 228.836 2118.5 234.246 Q2123.22 239.603 2130.38 239.603 Q2137.49 239.603 2142.21 234.193 Q2146.93 228.783 2146.93 217.697 Q2146.93 207.248 2142.16 201.89 Q2137.44 196.48 2130.38 196.48 Q2123.22 196.48 2118.5 201.837 Q2113.78 207.195 2113.78 218.015 Z" fill="#000000" fill-rule="nonzero" fill-opacity="1" /><path clip-path="url(#clip690)" d="M2164.12 229.366 L2173.56 227.881 Q2174.35 233.557 2177.96 236.58 Q2181.62 239.603 2188.14 239.603 Q2194.72 239.603 2197.9 236.951 Q2201.09 234.246 2201.09 230.639 Q2201.09 227.404 2198.27 225.547 Q2196.31 224.274 2188.52 222.312 Q2178.01 219.659 2173.93 217.75 Q2169.9 215.787 2167.78 212.393 Q2165.71 208.945 2165.71 204.808 Q2165.71 201.042 2167.4 197.859 Q2169.15 194.624 2172.13 192.502 Q2174.35 190.858 2178.17 189.744 Q2182.04 188.577 2186.45 188.577 Q2193.08 188.577 2198.06 190.486 Q2203.1 192.396 2205.49 195.684 Q2207.88 198.92 2208.78 204.383 L2199.44 205.656 Q2198.81 201.307 2195.73 198.867 Q2192.71 196.427 2187.14 196.427 Q2180.56 196.427 2177.75 198.602 Q2174.94 200.776 2174.94 203.694 Q2174.94 205.55 2176.1 207.035 Q2177.27 208.574 2179.76 209.581 Q2181.2 210.112 2188.2 212.021 Q2198.33 214.727 2202.31 216.477 Q2206.34 218.174 2208.62 221.463 Q2210.9 224.752 2210.9 229.631 Q2210.9 234.405 2208.09 238.649 Q2205.33 242.839 2200.08 245.173 Q2194.83 247.454 2188.2 247.454 Q2177.22 247.454 2171.44 242.892 Q2165.71 238.33 2164.12 229.366 Z" fill="#000000" fill-rule="nonzero" fill-opacity="1" /><path clip-path="url(#clip690)" d="M2218.43 229.366 L2227.87 227.881 Q2228.67 233.557 2232.27 236.58 Q2235.93 239.603 2242.46 239.603 Q2249.04 239.603 2252.22 236.951 Q2255.4 234.246 2255.4 230.639 Q2255.4 227.404 2252.59 225.547 Q2250.63 224.274 2242.83 222.312 Q2232.33 219.659 2228.24 217.75 Q2224.21 215.787 2222.09 212.393 Q2220.02 208.945 2220.02 204.808 Q2220.02 201.042 2221.72 197.859 Q2223.47 194.624 2226.44 192.502 Q2228.67 190.858 2232.49 189.744 Q2236.36 188.577 2240.76 188.577 Q2247.39 188.577 2252.38 190.486 Q2257.42 192.396 2259.8 195.684 Q2262.19 198.92 2263.09 204.383 L2253.76 205.656 Q2253.12 201.307 2250.04 198.867 Q2247.02 196.427 2241.45 196.427 Q2234.87 196.427 2232.06 198.602 Q2229.25 200.776 2229.25 203.694 Q2229.25 205.55 2230.42 207.035 Q2231.59 208.574 2234.08 209.581 Q2235.51 210.112 2242.51 212.021 Q2252.64 214.727 2256.62 216.477 Q2260.65 218.174 2262.93 221.463 Q2265.21 224.752 2265.21 229.631 Q2265.21 234.405 2262.4 238.649 Q2259.64 242.839 2254.39 245.173 Q2249.14 247.454 2242.51 247.454 Q2231.53 247.454 2225.75 242.892 Q2220.02 238.33 2218.43 229.366 Z" fill="#000000" fill-rule="nonzero" fill-opacity="1" /><polyline clip-path="url(#clip690)" style="stroke:#e26f46; stroke-linecap:round; stroke-linejoin:round; stroke-width:18; stroke-opacity:1; fill:none" points="1653.2,323.941 1784.51,323.941 "/>
<circle clip-path="url(#clip690)" cx="1718.86" cy="323.941" r="8.10571" fill="#e26f46" fill-rule="evenodd" fill-opacity="1" stroke="#000000" stroke-opacity="1" stroke-width="7.20507"/>
<path clip-path="url(#clip690)" d="M1827.83 362.821 L1806.4 306.49 L1816.48 306.49 L1828.57 340.225 Q1830.53 345.688 1832.18 351.576 Q1833.45 347.12 1835.73 340.861 L1848.25 306.49 L1858.06 306.49 L1836.74 362.821 L1827.83 362.821 Z" fill="#000000" fill-rule="nonzero" fill-opacity="1" /><path clip-path="url(#clip690)" d="M1903.25 355.872 Q1897.95 360.381 1893.02 362.237 Q1888.14 364.094 1882.51 364.094 Q1873.23 364.094 1868.25 359.585 Q1863.26 355.023 1863.26 347.969 Q1863.26 343.831 1865.12 340.437 Q1867.03 336.989 1870.05 334.92 Q1873.13 332.852 1876.94 331.791 Q1879.76 331.048 1885.43 330.359 Q1896.99 328.98 1902.46 327.07 Q1902.51 325.108 1902.51 324.577 Q1902.51 318.742 1899.81 316.356 Q1896.15 313.12 1888.93 313.12 Q1882.2 313.12 1878.96 315.507 Q1875.78 317.841 1874.24 323.835 L1864.9 322.562 Q1866.18 316.568 1869.09 312.908 Q1872.01 309.195 1877.53 307.232 Q1883.04 305.217 1890.31 305.217 Q1897.53 305.217 1902.03 306.914 Q1906.54 308.611 1908.66 311.21 Q1910.79 313.756 1911.63 317.682 Q1912.11 320.122 1912.11 326.487 L1912.11 339.217 Q1912.11 352.53 1912.7 356.084 Q1913.33 359.585 1915.14 362.821 L1905.16 362.821 Q1903.68 359.85 1903.25 355.872 M1902.46 334.549 Q1897.26 336.671 1886.86 338.156 Q1880.98 339.005 1878.54 340.065 Q1876.1 341.126 1874.77 343.195 Q1873.44 345.211 1873.44 347.704 Q1873.44 351.523 1876.31 354.069 Q1879.23 356.615 1884.79 356.615 Q1890.31 356.615 1894.61 354.228 Q1898.9 351.788 1900.92 347.597 Q1902.46 344.362 1902.46 338.05 L1902.46 334.549 Z" fill="#000000" fill-rule="nonzero" fill-opacity="1" /><path clip-path="url(#clip690)" d="M1926.7 362.821 L1926.7 285.061 L1936.25 285.061 L1936.25 362.821 L1926.7 362.821 Z" fill="#000000" fill-rule="nonzero" fill-opacity="1" /><path clip-path="url(#clip690)" d="M1942.24 384.409 L1942.24 377.513 L2005.52 377.513 L2005.52 384.409 L1942.24 384.409 Z" fill="#000000" fill-rule="nonzero" fill-opacity="1" /><path clip-path="url(#clip690)" d="M2011.25 362.821 L2011.25 285.061 L2020.8 285.061 L2020.8 362.821 L2011.25 362.821 Z" fill="#000000" fill-rule="nonzero" fill-opacity="1" /><path clip-path="url(#clip690)" d="M2032.04 334.655 Q2032.04 319.008 2040.74 311.476 Q2048.01 305.217 2058.46 305.217 Q2070.07 305.217 2077.44 312.855 Q2084.82 320.44 2084.82 333.86 Q2084.82 344.733 2081.53 350.992 Q2078.29 357.198 2072.03 360.646 Q2065.83 364.094 2058.46 364.094 Q2046.63 364.094 2039.31 356.509 Q2032.04 348.924 2032.04 334.655 M2041.85 334.655 Q2041.85 345.476 2046.57 350.886 Q2051.29 356.243 2058.46 356.243 Q2065.56 356.243 2070.28 350.833 Q2075 345.423 2075 334.337 Q2075 323.888 2070.23 318.53 Q2065.51 313.12 2058.46 313.12 Q2051.29 313.12 2046.57 318.477 Q2041.85 323.835 2041.85 334.655 Z" fill="#000000" fill-rule="nonzero" fill-opacity="1" /><path clip-path="url(#clip690)" d="M2092.19 346.006 L2101.63 344.521 Q2102.43 350.197 2106.03 353.22 Q2109.69 356.243 2116.22 356.243 Q2122.8 356.243 2125.98 353.591 Q2129.16 350.886 2129.16 347.279 Q2129.16 344.044 2126.35 342.187 Q2124.39 340.914 2116.59 338.952 Q2106.09 336.299 2102 334.39 Q2097.97 332.427 2095.85 329.033 Q2093.78 325.585 2093.78 321.448 Q2093.78 317.682 2095.48 314.499 Q2097.23 311.264 2100.2 309.142 Q2102.43 307.498 2106.25 306.384 Q2110.12 305.217 2114.52 305.217 Q2121.15 305.217 2126.14 307.126 Q2131.18 309.036 2133.56 312.324 Q2135.95 315.56 2136.85 321.023 L2127.52 322.296 Q2126.88 317.947 2123.8 315.507 Q2120.78 313.067 2115.21 313.067 Q2108.63 313.067 2105.82 315.242 Q2103.01 317.416 2103.01 320.334 Q2103.01 322.19 2104.18 323.675 Q2105.34 325.214 2107.84 326.221 Q2109.27 326.752 2116.27 328.661 Q2126.4 331.367 2130.38 333.117 Q2134.41 334.814 2136.69 338.103 Q2138.97 341.392 2138.97 346.271 Q2138.97 351.045 2136.16 355.289 Q2133.4 359.479 2128.15 361.813 Q2122.9 364.094 2116.27 364.094 Q2105.29 364.094 2099.51 359.532 Q2093.78 354.97 2092.19 346.006 Z" fill="#000000" fill-rule="nonzero" fill-opacity="1" /><path clip-path="url(#clip690)" d="M2146.51 346.006 L2155.95 344.521 Q2156.74 350.197 2160.35 353.22 Q2164.01 356.243 2170.53 356.243 Q2177.11 356.243 2180.29 353.591 Q2183.48 350.886 2183.48 347.279 Q2183.48 344.044 2180.66 342.187 Q2178.7 340.914 2170.91 338.952 Q2160.4 336.299 2156.32 334.39 Q2152.29 332.427 2150.17 329.033 Q2148.1 325.585 2148.1 321.448 Q2148.1 317.682 2149.79 314.499 Q2151.54 311.264 2154.51 309.142 Q2156.74 307.498 2160.56 306.384 Q2164.43 305.217 2168.84 305.217 Q2175.47 305.217 2180.45 307.126 Q2185.49 309.036 2187.88 312.324 Q2190.27 315.56 2191.17 321.023 L2181.83 322.296 Q2181.2 317.947 2178.12 315.507 Q2175.1 313.067 2169.53 313.067 Q2162.95 313.067 2160.14 315.242 Q2157.33 317.416 2157.33 320.334 Q2157.33 322.19 2158.49 323.675 Q2159.66 325.214 2162.15 326.221 Q2163.59 326.752 2170.59 328.661 Q2180.72 331.367 2184.7 333.117 Q2188.73 334.814 2191.01 338.103 Q2193.29 341.392 2193.29 346.271 Q2193.29 351.045 2190.48 355.289 Q2187.72 359.479 2182.47 361.813 Q2177.22 364.094 2170.59 364.094 Q2159.61 364.094 2153.83 359.532 Q2148.1 354.97 2146.51 346.006 Z" fill="#000000" fill-rule="nonzero" fill-opacity="1" /></svg>
