<?xml version="1.0" encoding="utf-8"?>
<svg xmlns="http://www.w3.org/2000/svg" xmlns:xlink="http://www.w3.org/1999/xlink" width="600" height="400" viewBox="0 0 2400 1600">
<defs>
  <clipPath id="clip960">
    <rect x="0" y="0" width="2400" height="1600"/>
  </clipPath>
</defs>
<path clip-path="url(#clip960)" d="M0 1600 L2400 1600 L2400 8.88178e-14 L0 8.88178e-14  Z" fill="#ffffff" fill-rule="evenodd" fill-opacity="1"/>
<defs>
  <clipPath id="clip961">
    <rect x="480" y="0" width="1681" height="1600"/>
  </clipPath>
</defs>
<path clip-path="url(#clip960)" d="M322.229 1349.74 L2352.76 1349.74 L2352.76 47.2441 L322.229 47.2441  Z" fill="#ffffff" fill-rule="evenodd" fill-opacity="1"/>
<defs>
  <clipPath id="clip962">
    <rect x="322" y="47" width="2032" height="1303"/>
  </clipPath>
</defs>
<polyline clip-path="url(#clip960)" style="stroke:#000000; stroke-linecap:round; stroke-linejoin:round; stroke-width:4; stroke-opacity:1; fill:none" points="322.229,1349.74 2352.76,1349.74 "/>
<polyline clip-path="url(#clip960)" style="stroke:#000000; stroke-linecap:round; stroke-linejoin:round; stroke-width:2; stroke-opacity:0.5; fill:none" points="322.229,47.2441 2352.76,47.2441 "/>
<polyline clip-path="url(#clip960)" style="stroke:#000000; stroke-linecap:round; stroke-linejoin:round; stroke-width:4; stroke-opacity:1; fill:none" points="725.866,1349.74 725.866,1330.84 "/>
<polyline clip-path="url(#clip960)" style="stroke:#000000; stroke-linecap:round; stroke-linejoin:round; stroke-width:4; stroke-opacity:1; fill:none" points="1138.62,1349.74 1138.62,1330.84 "/>
<polyline clip-path="url(#clip960)" style="stroke:#000000; stroke-linecap:round; stroke-linejoin:round; stroke-width:4; stroke-opacity:1; fill:none" points="1551.37,1349.74 1551.37,1330.84 "/>
<polyline clip-path="url(#clip960)" style="stroke:#000000; stroke-linecap:round; stroke-linejoin:round; stroke-width:4; stroke-opacity:1; fill:none" points="1964.12,1349.74 1964.12,1330.84 "/>
<path clip-path="url(#clip960)" d="M655.478 1427.79 Q655.478 1414 658.29 1405.62 Q661.154 1397.18 666.723 1392.62 Q672.346 1388.06 680.833 1388.06 Q687.092 1388.06 691.812 1390.61 Q696.533 1393.1 699.61 1397.87 Q702.686 1402.6 704.437 1409.44 Q706.187 1416.23 706.187 1427.79 Q706.187 1441.48 703.376 1449.91 Q700.564 1458.29 694.942 1462.9 Q689.373 1467.47 680.833 1467.47 Q669.588 1467.47 663.17 1459.4 Q655.478 1449.7 655.478 1427.79 M665.291 1427.79 Q665.291 1446.94 669.747 1453.3 Q674.255 1459.62 680.833 1459.62 Q687.41 1459.62 691.866 1453.25 Q696.374 1446.89 696.374 1427.79 Q696.374 1408.59 691.866 1402.28 Q687.41 1395.96 680.727 1395.96 Q674.149 1395.96 670.224 1401.53 Q665.291 1408.64 665.291 1427.79 Z" fill="#000000" fill-rule="nonzero" fill-opacity="1" /><path clip-path="url(#clip960)" d="M721.251 1466.14 L721.251 1455.27 L732.125 1455.27 L732.125 1466.14 L721.251 1466.14 Z" fill="#000000" fill-rule="nonzero" fill-opacity="1" /><path clip-path="url(#clip960)" d="M796.253 1456.96 L796.253 1466.14 L744.855 1466.14 Q744.749 1462.69 745.969 1459.51 Q747.931 1454.26 752.228 1449.17 Q756.577 1444.07 764.746 1437.39 Q777.423 1426.99 781.878 1420.95 Q786.334 1414.85 786.334 1409.44 Q786.334 1403.76 782.25 1399.89 Q778.218 1395.96 771.694 1395.96 Q764.799 1395.96 760.661 1400.1 Q756.524 1404.24 756.471 1411.56 L746.658 1410.55 Q747.666 1399.57 754.243 1393.84 Q760.82 1388.06 771.906 1388.06 Q783.098 1388.06 789.622 1394.27 Q796.147 1400.47 796.147 1409.65 Q796.147 1414.32 794.237 1418.83 Q792.328 1423.33 787.872 1428.32 Q783.47 1433.31 773.179 1442.01 Q764.586 1449.22 762.147 1451.82 Q759.707 1454.36 758.115 1456.96 L796.253 1456.96 Z" fill="#000000" fill-rule="nonzero" fill-opacity="1" /><path clip-path="url(#clip960)" d="M1067.99 1427.79 Q1067.99 1414 1070.8 1405.62 Q1073.67 1397.18 1079.24 1392.62 Q1084.86 1388.06 1093.35 1388.06 Q1099.61 1388.06 1104.33 1390.61 Q1109.05 1393.1 1112.12 1397.87 Q1115.2 1402.6 1116.95 1409.44 Q1118.7 1416.23 1118.7 1427.79 Q1118.7 1441.48 1115.89 1449.91 Q1113.08 1458.29 1107.46 1462.9 Q1101.89 1467.47 1093.35 1467.47 Q1082.1 1467.47 1075.68 1459.4 Q1067.99 1449.7 1067.99 1427.79 M1077.8 1427.79 Q1077.8 1446.94 1082.26 1453.3 Q1086.77 1459.62 1093.35 1459.62 Q1099.92 1459.62 1104.38 1453.25 Q1108.89 1446.89 1108.89 1427.79 Q1108.89 1408.59 1104.38 1402.28 Q1099.92 1395.96 1093.24 1395.96 Q1086.66 1395.96 1082.74 1401.53 Q1077.8 1408.64 1077.8 1427.79 Z" fill="#000000" fill-rule="nonzero" fill-opacity="1" /><path clip-path="url(#clip960)" d="M1133.76 1466.14 L1133.76 1455.27 L1144.64 1455.27 L1144.64 1466.14 L1133.76 1466.14 Z" fill="#000000" fill-rule="nonzero" fill-opacity="1" /><path clip-path="url(#clip960)" d="M1189.19 1466.14 L1189.19 1447.52 L1155.46 1447.52 L1155.46 1438.77 L1190.94 1388.38 L1198.74 1388.38 L1198.74 1438.77 L1209.24 1438.77 L1209.24 1447.52 L1198.74 1447.52 L1198.74 1466.14 L1189.19 1466.14 M1189.19 1438.77 L1189.19 1403.71 L1164.85 1438.77 L1189.19 1438.77 Z" fill="#000000" fill-rule="nonzero" fill-opacity="1" /><path clip-path="url(#clip960)" d="M1480.61 1427.79 Q1480.61 1414 1483.42 1405.62 Q1486.29 1397.18 1491.86 1392.62 Q1497.48 1388.06 1505.97 1388.06 Q1512.22 1388.06 1516.95 1390.61 Q1521.67 1393.1 1524.74 1397.87 Q1527.82 1402.6 1529.57 1409.44 Q1531.32 1416.23 1531.32 1427.79 Q1531.32 1441.48 1528.51 1449.91 Q1525.7 1458.29 1520.08 1462.9 Q1514.51 1467.47 1505.97 1467.47 Q1494.72 1467.47 1488.3 1459.4 Q1480.61 1449.7 1480.61 1427.79 M1490.42 1427.79 Q1490.42 1446.94 1494.88 1453.3 Q1499.39 1459.62 1505.97 1459.62 Q1512.54 1459.62 1517 1453.25 Q1521.51 1446.89 1521.51 1427.79 Q1521.51 1408.59 1517 1402.28 Q1512.54 1395.96 1505.86 1395.96 Q1499.28 1395.96 1495.36 1401.53 Q1490.42 1408.64 1490.42 1427.79 Z" fill="#000000" fill-rule="nonzero" fill-opacity="1" /><path clip-path="url(#clip960)" d="M1546.38 1466.14 L1546.38 1455.27 L1557.26 1455.27 L1557.26 1466.14 L1546.38 1466.14 Z" fill="#000000" fill-rule="nonzero" fill-opacity="1" /><path clip-path="url(#clip960)" d="M1620.75 1407.42 L1611.25 1408.16 Q1609.98 1402.54 1607.65 1400 Q1603.78 1395.91 1598.1 1395.91 Q1593.54 1395.91 1590.09 1398.46 Q1585.58 1401.75 1582.98 1408.06 Q1580.38 1414.37 1580.28 1426.04 Q1583.73 1420.79 1588.71 1418.24 Q1593.7 1415.7 1599.16 1415.7 Q1608.71 1415.7 1615.39 1422.75 Q1622.13 1429.75 1622.13 1440.89 Q1622.13 1448.21 1618.95 1454.52 Q1615.82 1460.78 1610.3 1464.12 Q1604.78 1467.47 1597.78 1467.47 Q1585.85 1467.47 1578.32 1458.71 Q1570.78 1449.91 1570.78 1429.75 Q1570.78 1407.21 1579.11 1396.97 Q1586.38 1388.06 1598.68 1388.06 Q1607.86 1388.06 1613.69 1393.21 Q1619.58 1398.35 1620.75 1407.42 M1581.76 1440.94 Q1581.76 1445.88 1583.83 1450.39 Q1585.95 1454.89 1589.72 1457.28 Q1593.49 1459.62 1597.62 1459.62 Q1603.67 1459.62 1608.02 1454.74 Q1612.37 1449.86 1612.37 1441.48 Q1612.37 1433.41 1608.07 1428.8 Q1603.78 1424.13 1597.25 1424.13 Q1590.78 1424.13 1586.27 1428.8 Q1581.76 1433.41 1581.76 1440.94 Z" fill="#000000" fill-rule="nonzero" fill-opacity="1" /><path clip-path="url(#clip960)" d="M1893.26 1427.79 Q1893.26 1414 1896.07 1405.62 Q1898.93 1397.18 1904.5 1392.62 Q1910.13 1388.06 1918.61 1388.06 Q1924.87 1388.06 1929.59 1390.61 Q1934.31 1393.1 1937.39 1397.87 Q1940.47 1402.6 1942.22 1409.44 Q1943.97 1416.23 1943.97 1427.79 Q1943.97 1441.48 1941.15 1449.91 Q1938.34 1458.29 1932.72 1462.9 Q1927.15 1467.47 1918.61 1467.47 Q1907.37 1467.47 1900.95 1459.4 Q1893.26 1449.7 1893.26 1427.79 M1903.07 1427.79 Q1903.07 1446.94 1907.53 1453.3 Q1912.03 1459.62 1918.61 1459.62 Q1925.19 1459.62 1929.64 1453.25 Q1934.15 1446.89 1934.15 1427.79 Q1934.15 1408.59 1929.64 1402.28 Q1925.19 1395.96 1918.51 1395.96 Q1911.93 1395.96 1908 1401.53 Q1903.07 1408.64 1903.07 1427.79 Z" fill="#000000" fill-rule="nonzero" fill-opacity="1" /><path clip-path="url(#clip960)" d="M1959.03 1466.14 L1959.03 1455.27 L1969.9 1455.27 L1969.9 1466.14 L1959.03 1466.14 Z" fill="#000000" fill-rule="nonzero" fill-opacity="1" /><path clip-path="url(#clip960)" d="M1998.55 1423.97 Q1992.61 1421.8 1989.74 1417.77 Q1986.88 1413.73 1986.88 1408.11 Q1986.88 1399.62 1992.98 1393.84 Q1999.08 1388.06 2009.21 1388.06 Q2019.39 1388.06 2025.6 1394 Q2031.8 1399.89 2031.8 1408.38 Q2031.8 1413.79 2028.94 1417.82 Q2026.13 1421.8 2020.35 1423.97 Q2027.51 1426.31 2031.22 1431.5 Q2034.99 1436.7 2034.99 1443.92 Q2034.99 1453.89 2027.93 1460.68 Q2020.88 1467.47 2009.37 1467.47 Q1997.86 1467.47 1990.8 1460.68 Q1983.75 1453.83 1983.75 1443.65 Q1983.75 1436.06 1987.57 1430.97 Q1991.44 1425.83 1998.55 1423.97 M1996.64 1407.79 Q1996.64 1413.31 2000.19 1416.81 Q2003.74 1420.31 2009.42 1420.31 Q2014.94 1420.31 2018.44 1416.86 Q2021.99 1413.36 2021.99 1408.32 Q2021.99 1403.07 2018.33 1399.52 Q2014.72 1395.91 2009.31 1395.91 Q2003.85 1395.91 2000.24 1399.41 Q1996.64 1402.91 1996.64 1407.79 M1993.56 1443.7 Q1993.56 1447.79 1995.47 1451.61 Q1997.43 1455.43 2001.25 1457.55 Q2005.07 1459.62 2009.47 1459.62 Q2016.32 1459.62 2020.77 1455.21 Q2025.23 1450.81 2025.23 1444.02 Q2025.23 1437.13 2020.61 1432.62 Q2016.05 1428.11 2009.16 1428.11 Q2002.42 1428.11 1997.96 1432.56 Q1993.56 1437.02 1993.56 1443.7 Z" fill="#000000" fill-rule="nonzero" fill-opacity="1" /><path clip-path="url(#clip960)" d="M1286.69 1557.13 L1286.69 1553.81 Q1295.13 1553.81 1300.5 1547.33 Q1300.5 1547.33 1310.62 1534.47 L1299.92 1520.56 Q1296.13 1515.71 1294.44 1514.87 Q1292.81 1513.97 1287.22 1513.97 L1287.22 1510.6 Q1291.65 1510.92 1297.45 1510.92 Q1300.66 1510.92 1309.14 1510.6 L1309.14 1513.97 Q1305.35 1514.18 1305.35 1516.66 Q1305.35 1517.5 1306.3 1518.61 L1314.73 1529.52 L1321.42 1521.09 Q1323.06 1519.14 1323.06 1517.29 Q1323.06 1514.29 1319.9 1513.97 L1319.9 1510.6 Q1324.11 1510.92 1330.28 1510.92 Q1334.92 1510.92 1339.13 1510.6 L1339.13 1513.97 Q1330.91 1514.18 1326.27 1519.56 Q1324.22 1521.82 1316.36 1531.78 L1330.8 1550.44 Q1332.54 1552.71 1334.49 1553.29 Q1336.44 1553.81 1341.08 1553.81 L1341.08 1557.13 Q1336.23 1556.82 1330.7 1556.82 Q1328.75 1556.82 1319.05 1557.13 L1319.05 1553.81 Q1321 1553.71 1321.95 1552.86 Q1322.95 1551.97 1322.95 1551.07 Q1322.95 1550.65 1320.69 1547.54 L1312.46 1536.74 Q1304.24 1546.44 1303.19 1548.7 Q1302.77 1549.65 1302.77 1550.44 Q1302.77 1553.34 1305.88 1553.81 L1305.88 1557.13 Q1298.13 1556.82 1295.65 1556.82 Q1290.91 1556.82 1286.69 1557.13 Z" fill="#000000" fill-rule="nonzero" fill-opacity="1" /><path clip-path="url(#clip960)" d="M1352.07 1543.91 L1352.07 1541.55 Q1361.15 1541.55 1365.83 1536.71 Q1367.13 1536.71 1367.35 1537.01 Q1367.57 1537.3 1367.57 1538.67 L1367.57 1581.06 Q1367.57 1583.31 1368.67 1584.01 Q1369.78 1584.71 1374.61 1584.71 L1377.01 1584.71 L1377.01 1587.03 Q1374.36 1586.81 1364.76 1586.81 Q1355.17 1586.81 1352.55 1587.03 L1352.55 1584.71 L1354.95 1584.71 Q1359.71 1584.71 1360.85 1584.04 Q1362 1583.34 1362 1581.06 L1362 1541.92 Q1358.05 1543.91 1352.07 1543.91 Z" fill="#000000" fill-rule="nonzero" fill-opacity="1" /><polyline clip-path="url(#clip960)" style="stroke:#000000; stroke-linecap:round; stroke-linejoin:round; stroke-width:4; stroke-opacity:1; fill:none" points="322.229,1349.74 322.229,47.2441 "/>
<polyline clip-path="url(#clip960)" style="stroke:#000000; stroke-linecap:round; stroke-linejoin:round; stroke-width:2; stroke-opacity:0.5; fill:none" points="2352.76,1349.74 2352.76,47.2441 "/>
<polyline clip-path="url(#clip960)" style="stroke:#000000; stroke-linecap:round; stroke-linejoin:round; stroke-width:4; stroke-opacity:1; fill:none" points="322.229,1137.57 341.127,1137.57 "/>
<polyline clip-path="url(#clip960)" style="stroke:#000000; stroke-linecap:round; stroke-linejoin:round; stroke-width:4; stroke-opacity:1; fill:none" points="322.229,864.88 341.127,864.88 "/>
<polyline clip-path="url(#clip960)" style="stroke:#000000; stroke-linecap:round; stroke-linejoin:round; stroke-width:4; stroke-opacity:1; fill:none" points="322.229,592.192 341.127,592.192 "/>
<polyline clip-path="url(#clip960)" style="stroke:#000000; stroke-linecap:round; stroke-linejoin:round; stroke-width:4; stroke-opacity:1; fill:none" points="322.229,319.503 341.127,319.503 "/>
<path clip-path="url(#clip960)" d="M145.455 1138.1 Q145.455 1124.31 148.266 1115.93 Q151.13 1107.49 156.7 1102.93 Q162.322 1098.37 170.809 1098.37 Q177.068 1098.37 181.789 1100.92 Q186.51 1103.41 189.586 1108.18 Q192.663 1112.9 194.413 1119.75 Q196.163 1126.54 196.163 1138.1 Q196.163 1151.78 193.352 1160.22 Q190.541 1168.6 184.918 1173.21 Q179.349 1177.77 170.809 1177.77 Q159.564 1177.77 153.146 1169.71 Q145.455 1160.01 145.455 1138.1 M155.268 1138.1 Q155.268 1157.25 159.723 1163.61 Q164.232 1169.92 170.809 1169.92 Q177.386 1169.92 181.842 1163.56 Q186.351 1157.19 186.351 1138.1 Q186.351 1118.9 181.842 1112.59 Q177.386 1106.27 170.703 1106.27 Q164.126 1106.27 160.201 1111.84 Q155.268 1118.95 155.268 1138.1 Z" fill="#000000" fill-rule="nonzero" fill-opacity="1" /><path clip-path="url(#clip960)" d="M211.227 1176.45 L211.227 1165.58 L222.101 1165.58 L222.101 1176.45 L211.227 1176.45 Z" fill="#000000" fill-rule="nonzero" fill-opacity="1" /><path clip-path="url(#clip960)" d="M286.229 1167.27 L286.229 1176.45 L234.831 1176.45 Q234.725 1173 235.945 1169.82 Q237.908 1164.57 242.204 1159.48 Q246.554 1154.38 254.722 1147.7 Q267.399 1137.3 271.855 1131.26 Q276.31 1125.16 276.31 1119.75 Q276.31 1114.07 272.226 1110.2 Q268.195 1106.27 261.671 1106.27 Q254.775 1106.27 250.638 1110.41 Q246.5 1114.55 246.447 1121.87 L236.635 1120.86 Q237.642 1109.88 244.22 1104.15 Q250.797 1098.37 261.883 1098.37 Q273.075 1098.37 279.599 1104.58 Q286.123 1110.78 286.123 1119.96 Q286.123 1124.63 284.214 1129.14 Q282.304 1133.64 277.848 1138.63 Q273.446 1143.62 263.156 1152.31 Q254.563 1159.53 252.123 1162.13 Q249.683 1164.67 248.092 1167.27 L286.229 1167.27 Z" fill="#000000" fill-rule="nonzero" fill-opacity="1" /><path clip-path="url(#clip960)" d="M144.978 865.411 Q144.978 851.62 147.789 843.239 Q150.653 834.805 156.223 830.244 Q161.845 825.682 170.332 825.682 Q176.591 825.682 181.312 828.228 Q186.032 830.721 189.109 835.495 Q192.185 840.216 193.936 847.058 Q195.686 853.848 195.686 865.411 Q195.686 879.096 192.875 887.529 Q190.063 895.91 184.441 900.525 Q178.872 905.086 170.332 905.086 Q159.087 905.086 152.669 897.024 Q144.978 887.317 144.978 865.411 M154.79 865.411 Q154.79 884.559 159.246 890.924 Q163.755 897.236 170.332 897.236 Q176.909 897.236 181.365 890.871 Q185.873 884.506 185.873 865.411 Q185.873 846.209 181.365 839.897 Q176.909 833.585 170.226 833.585 Q163.648 833.585 159.723 839.155 Q154.79 846.263 154.79 865.411 Z" fill="#000000" fill-rule="nonzero" fill-opacity="1" /><path clip-path="url(#clip960)" d="M210.75 903.76 L210.75 892.887 L221.624 892.887 L221.624 903.76 L210.75 903.76 Z" fill="#000000" fill-rule="nonzero" fill-opacity="1" /><path clip-path="url(#clip960)" d="M266.179 903.76 L266.179 885.143 L232.444 885.143 L232.444 876.391 L267.93 826 L275.727 826 L275.727 876.391 L286.229 876.391 L286.229 885.143 L275.727 885.143 L275.727 903.76 L266.179 903.76 M266.179 876.391 L266.179 841.33 L241.833 876.391 L266.179 876.391 Z" fill="#000000" fill-rule="nonzero" fill-opacity="1" /><path clip-path="url(#clip960)" d="M144.712 592.722 Q144.712 578.931 147.524 570.551 Q150.388 562.117 155.957 557.555 Q161.58 552.994 170.067 552.994 Q176.326 552.994 181.046 555.54 Q185.767 558.033 188.844 562.806 Q191.92 567.527 193.67 574.37 Q195.421 581.159 195.421 592.722 Q195.421 606.407 192.61 614.841 Q189.798 623.222 184.176 627.836 Q178.606 632.398 170.067 632.398 Q158.822 632.398 152.403 624.335 Q144.712 614.629 144.712 592.722 M154.525 592.722 Q154.525 611.871 158.981 618.236 Q163.489 624.548 170.067 624.548 Q176.644 624.548 181.099 618.183 Q185.608 611.817 185.608 592.722 Q185.608 573.521 181.099 567.209 Q176.644 560.897 169.96 560.897 Q163.383 560.897 159.458 566.466 Q154.525 573.574 154.525 592.722 Z" fill="#000000" fill-rule="nonzero" fill-opacity="1" /><path clip-path="url(#clip960)" d="M210.485 631.072 L210.485 620.198 L221.358 620.198 L221.358 631.072 L210.485 631.072 Z" fill="#000000" fill-rule="nonzero" fill-opacity="1" /><path clip-path="url(#clip960)" d="M284.85 572.354 L275.355 573.097 Q274.082 567.474 271.749 564.928 Q267.877 560.844 262.201 560.844 Q257.639 560.844 254.192 563.39 Q249.683 566.678 247.084 572.991 Q244.485 579.303 244.379 590.972 Q247.827 585.721 252.813 583.175 Q257.798 580.629 263.262 580.629 Q272.809 580.629 279.493 587.683 Q286.229 594.685 286.229 605.824 Q286.229 613.144 283.047 619.456 Q279.917 625.715 274.401 629.056 Q268.884 632.398 261.883 632.398 Q249.948 632.398 242.416 623.646 Q234.884 614.841 234.884 594.685 Q234.884 572.142 243.212 561.905 Q250.479 552.994 262.784 552.994 Q271.961 552.994 277.795 558.139 Q283.683 563.284 284.85 572.354 M245.864 605.877 Q245.864 610.81 247.933 615.318 Q250.054 619.827 253.82 622.214 Q257.586 624.548 261.724 624.548 Q267.77 624.548 272.12 619.668 Q276.469 614.788 276.469 606.407 Q276.469 598.345 272.173 593.73 Q267.877 589.062 261.352 589.062 Q254.881 589.062 250.373 593.73 Q245.864 598.345 245.864 605.877 Z" fill="#000000" fill-rule="nonzero" fill-opacity="1" /><path clip-path="url(#clip960)" d="M144.5 320.034 Q144.5 306.243 147.311 297.862 Q150.176 289.428 155.745 284.867 Q161.368 280.305 169.854 280.305 Q176.113 280.305 180.834 282.851 Q185.555 285.344 188.631 290.118 Q191.708 294.839 193.458 301.681 Q195.209 308.471 195.209 320.034 Q195.209 333.719 192.397 342.152 Q189.586 350.533 183.964 355.148 Q178.394 359.709 169.854 359.709 Q158.609 359.709 152.191 351.647 Q144.5 341.94 144.5 320.034 M154.313 320.034 Q154.313 339.182 158.769 345.547 Q163.277 351.859 169.854 351.859 Q176.432 351.859 180.887 345.494 Q185.396 339.129 185.396 320.034 Q185.396 300.832 180.887 294.52 Q176.432 288.208 169.748 288.208 Q163.171 288.208 159.246 293.778 Q154.313 300.885 154.313 320.034 Z" fill="#000000" fill-rule="nonzero" fill-opacity="1" /><path clip-path="url(#clip960)" d="M210.273 358.383 L210.273 347.51 L221.146 347.51 L221.146 358.383 L210.273 358.383 Z" fill="#000000" fill-rule="nonzero" fill-opacity="1" /><path clip-path="url(#clip960)" d="M249.789 316.215 Q243.848 314.04 240.984 310.009 Q238.12 305.978 238.12 300.355 Q238.12 291.868 244.22 286.087 Q250.32 280.305 260.451 280.305 Q270.635 280.305 276.841 286.246 Q283.047 292.133 283.047 300.62 Q283.047 306.031 280.182 310.062 Q277.371 314.04 271.589 316.215 Q278.75 318.549 282.463 323.747 Q286.229 328.945 286.229 336.159 Q286.229 346.131 279.175 352.92 Q272.12 359.709 260.61 359.709 Q249.1 359.709 242.045 352.92 Q234.99 346.077 234.99 335.893 Q234.99 328.308 238.809 323.216 Q242.681 318.071 249.789 316.215 M247.88 300.037 Q247.88 305.553 251.433 309.054 Q254.987 312.555 260.663 312.555 Q266.179 312.555 269.68 309.107 Q273.234 305.606 273.234 300.567 Q273.234 295.316 269.574 291.762 Q265.967 288.155 260.557 288.155 Q255.093 288.155 251.486 291.656 Q247.88 295.157 247.88 300.037 M244.803 335.946 Q244.803 340.031 246.713 343.85 Q248.675 347.669 252.494 349.79 Q256.313 351.859 260.716 351.859 Q267.558 351.859 272.014 347.457 Q276.469 343.054 276.469 336.265 Q276.469 329.369 271.855 324.861 Q267.293 320.352 260.398 320.352 Q253.661 320.352 249.206 324.808 Q244.803 329.263 244.803 335.946 Z" fill="#000000" fill-rule="nonzero" fill-opacity="1" /><path clip-path="url(#clip960)" d="M69.9417 751.882 L66.6215 751.882 Q66.6215 743.45 60.1394 738.075 Q60.1394 738.075 47.2804 727.956 L33.3675 738.654 Q28.5191 742.449 27.6759 744.135 Q26.7799 745.769 26.7799 751.355 L23.4071 751.355 Q23.7233 746.928 23.7233 741.131 Q23.7233 737.917 23.4071 729.432 L26.7799 729.432 Q26.9907 733.226 29.4677 733.226 Q30.3109 733.226 31.4176 732.278 L42.3266 723.846 L33.8945 717.153 Q31.9446 715.519 30.1001 715.519 Q27.0962 715.519 26.7799 718.681 L23.4071 718.681 Q23.7233 714.465 23.7233 708.299 Q23.7233 703.661 23.4071 699.445 L26.7799 699.445 Q26.9907 707.667 32.3662 712.304 Q34.6323 714.36 44.5927 722.212 L63.2487 707.772 Q65.5148 706.033 66.0945 704.083 Q66.6215 702.133 66.6215 697.495 L69.9417 697.495 Q69.6255 702.344 69.6255 707.877 Q69.6255 709.827 69.9417 719.524 L66.6215 719.524 Q66.5161 717.574 65.6729 716.626 Q64.777 715.624 63.8811 715.624 Q63.4595 715.624 60.3502 717.89 L49.5466 726.112 Q59.2435 734.333 61.5096 735.387 Q62.4582 735.809 63.2487 735.809 Q66.1472 735.809 66.6215 732.699 L69.9417 732.699 Q69.6255 740.446 69.6255 742.923 Q69.6255 747.666 69.9417 751.882 Z" fill="#000000" fill-rule="nonzero" fill-opacity="1" /><path clip-path="url(#clip960)" d="M99.8404 686.503 Q98.4755 686.503 98.0697 686.392 Q97.6639 686.245 97.0367 685.654 L80.8788 671.157 Q71.9513 663.225 64.1674 663.225 Q59.1135 663.225 55.4982 665.881 Q51.883 668.5 51.883 673.333 Q51.883 676.653 53.9119 679.457 Q55.9409 682.261 59.5561 683.552 Q59.4824 683.33 59.4824 682.556 Q59.4824 680.674 60.6629 679.641 Q61.8433 678.571 63.4296 678.571 Q65.4586 678.571 66.4546 679.9 Q67.4138 681.191 67.4138 682.482 Q67.4138 682.998 67.3031 683.699 Q67.1924 684.363 66.1595 685.433 Q65.0897 686.503 63.2083 686.503 Q57.933 686.503 53.7275 682.519 Q49.522 678.498 49.522 672.374 Q49.522 665.439 53.6537 660.901 Q57.7485 656.327 64.1674 656.327 Q66.4178 656.327 68.4836 657.028 Q70.5126 657.692 72.0989 658.614 Q73.6851 659.499 76.2306 661.934 Q78.776 664.369 80.5836 666.324 Q82.3913 668.279 86.2279 672.669 L94.0117 680.674 L94.0117 667.062 Q94.0117 660.421 93.4215 659.905 Q92.3517 659.167 86.7074 658.245 L86.7074 656.327 L99.8404 658.466 L99.8404 686.503 Z" fill="#000000" fill-rule="nonzero" fill-opacity="1" /><circle clip-path="url(#clip962)" cx="971.021" cy="558.624" r="14.4" fill="#009af9" fill-rule="evenodd" fill-opacity="1" stroke="#000000" stroke-opacity="1" stroke-width="3.2"/>
<circle clip-path="url(#clip962)" cx="890.021" cy="973.78" r="14.4" fill="#009af9" fill-rule="evenodd" fill-opacity="1" stroke="#000000" stroke-opacity="1" stroke-width="3.2"/>
<circle clip-path="url(#clip962)" cx="1038.79" cy="1292.53" r="14.4" fill="#009af9" fill-rule="evenodd" fill-opacity="1" stroke="#000000" stroke-opacity="1" stroke-width="3.2"/>
<circle clip-path="url(#clip962)" cx="875.813" cy="1149.07" r="14.4" fill="#009af9" fill-rule="evenodd" fill-opacity="1" stroke="#000000" stroke-opacity="1" stroke-width="3.2"/>
<circle clip-path="url(#clip962)" cx="1639.08" cy="755.328" r="14.4" fill="#009af9" fill-rule="evenodd" fill-opacity="1" stroke="#000000" stroke-opacity="1" stroke-width="3.2"/>
<circle clip-path="url(#clip962)" cx="1839.11" cy="843.54" r="14.4" fill="#009af9" fill-rule="evenodd" fill-opacity="1" stroke="#000000" stroke-opacity="1" stroke-width="3.2"/>
<circle clip-path="url(#clip962)" cx="1377.75" cy="1287.52" r="14.4" fill="#009af9" fill-rule="evenodd" fill-opacity="1" stroke="#000000" stroke-opacity="1" stroke-width="3.2"/>
<circle clip-path="url(#clip962)" cx="693.776" cy="320.875" r="14.4" fill="#009af9" fill-rule="evenodd" fill-opacity="1" stroke="#000000" stroke-opacity="1" stroke-width="3.2"/>
<circle clip-path="url(#clip962)" cx="2283.76" cy="1112.05" r="14.4" fill="#009af9" fill-rule="evenodd" fill-opacity="1" stroke="#000000" stroke-opacity="1" stroke-width="3.2"/>
<circle clip-path="url(#clip962)" cx="1785.04" cy="1184.66" r="14.4" fill="#009af9" fill-rule="evenodd" fill-opacity="1" stroke="#000000" stroke-opacity="1" stroke-width="3.2"/>
<circle clip-path="url(#clip962)" cx="1298.37" cy="451.58" r="14.4" fill="#009af9" fill-rule="evenodd" fill-opacity="1" stroke="#000000" stroke-opacity="1" stroke-width="3.2"/>
<circle clip-path="url(#clip962)" cx="1538.57" cy="948.239" r="14.4" fill="#009af9" fill-rule="evenodd" fill-opacity="1" stroke="#000000" stroke-opacity="1" stroke-width="3.2"/>
<circle clip-path="url(#clip962)" cx="322.229" cy="328.566" r="14.4" fill="#009af9" fill-rule="evenodd" fill-opacity="1" stroke="#000000" stroke-opacity="1" stroke-width="3.2"/>
<circle clip-path="url(#clip962)" cx="1020.26" cy="1045.03" r="14.4" fill="#009af9" fill-rule="evenodd" fill-opacity="1" stroke="#000000" stroke-opacity="1" stroke-width="3.2"/>
<circle clip-path="url(#clip962)" cx="465.723" cy="461.517" r="14.4" fill="#009af9" fill-rule="evenodd" fill-opacity="1" stroke="#000000" stroke-opacity="1" stroke-width="3.2"/>
<circle clip-path="url(#clip962)" cx="1702.74" cy="1184.07" r="14.4" fill="#009af9" fill-rule="evenodd" fill-opacity="1" stroke="#000000" stroke-opacity="1" stroke-width="3.2"/>
<circle clip-path="url(#clip962)" cx="1209.05" cy="239.504" r="14.4" fill="#009af9" fill-rule="evenodd" fill-opacity="1" stroke="#000000" stroke-opacity="1" stroke-width="3.2"/>
<circle clip-path="url(#clip962)" cx="1682.95" cy="739.364" r="14.4" fill="#009af9" fill-rule="evenodd" fill-opacity="1" stroke="#000000" stroke-opacity="1" stroke-width="3.2"/>
<circle clip-path="url(#clip962)" cx="1664.67" cy="1027.01" r="14.4" fill="#009af9" fill-rule="evenodd" fill-opacity="1" stroke="#000000" stroke-opacity="1" stroke-width="3.2"/>
<circle clip-path="url(#clip962)" cx="977.459" cy="1194.94" r="14.4" fill="#009af9" fill-rule="evenodd" fill-opacity="1" stroke="#000000" stroke-opacity="1" stroke-width="3.2"/>
<circle clip-path="url(#clip962)" cx="946.253" cy="162.199" r="14.4" fill="#009af9" fill-rule="evenodd" fill-opacity="1" stroke="#000000" stroke-opacity="1" stroke-width="3.2"/>
<circle clip-path="url(#clip962)" cx="1065.96" cy="254.774" r="14.4" fill="#009af9" fill-rule="evenodd" fill-opacity="1" stroke="#000000" stroke-opacity="1" stroke-width="3.2"/>
<circle clip-path="url(#clip962)" cx="1611.93" cy="796.246" r="14.4" fill="#009af9" fill-rule="evenodd" fill-opacity="1" stroke="#000000" stroke-opacity="1" stroke-width="3.2"/>
<circle clip-path="url(#clip962)" cx="1803.11" cy="902.584" r="14.4" fill="#009af9" fill-rule="evenodd" fill-opacity="1" stroke="#000000" stroke-opacity="1" stroke-width="3.2"/>
<circle clip-path="url(#clip962)" cx="907.255" cy="924.699" r="14.4" fill="#009af9" fill-rule="evenodd" fill-opacity="1" stroke="#000000" stroke-opacity="1" stroke-width="3.2"/>
<circle clip-path="url(#clip962)" cx="520.768" cy="560.226" r="14.4" fill="#009af9" fill-rule="evenodd" fill-opacity="1" stroke="#000000" stroke-opacity="1" stroke-width="3.2"/>
<circle clip-path="url(#clip962)" cx="839.764" cy="212.232" r="14.4" fill="#009af9" fill-rule="evenodd" fill-opacity="1" stroke="#000000" stroke-opacity="1" stroke-width="3.2"/>
<circle clip-path="url(#clip962)" cx="850.371" cy="976.36" r="14.4" fill="#009af9" fill-rule="evenodd" fill-opacity="1" stroke="#000000" stroke-opacity="1" stroke-width="3.2"/>
<circle clip-path="url(#clip962)" cx="1042.44" cy="1320.18" r="14.4" fill="#009af9" fill-rule="evenodd" fill-opacity="1" stroke="#000000" stroke-opacity="1" stroke-width="3.2"/>
<circle clip-path="url(#clip962)" cx="2075.36" cy="1173.34" r="14.4" fill="#009af9" fill-rule="evenodd" fill-opacity="1" stroke="#000000" stroke-opacity="1" stroke-width="3.2"/>
<circle clip-path="url(#clip962)" cx="2272.63" cy="1042.82" r="14.4" fill="#009af9" fill-rule="evenodd" fill-opacity="1" stroke="#000000" stroke-opacity="1" stroke-width="3.2"/>
<circle clip-path="url(#clip962)" cx="375.409" cy="1302.09" r="14.4" fill="#009af9" fill-rule="evenodd" fill-opacity="1" stroke="#000000" stroke-opacity="1" stroke-width="3.2"/>
<circle clip-path="url(#clip962)" cx="479.405" cy="707.605" r="14.4" fill="#009af9" fill-rule="evenodd" fill-opacity="1" stroke="#000000" stroke-opacity="1" stroke-width="3.2"/>
<circle clip-path="url(#clip962)" cx="1187.3" cy="749.394" r="14.4" fill="#009af9" fill-rule="evenodd" fill-opacity="1" stroke="#000000" stroke-opacity="1" stroke-width="3.2"/>
<circle clip-path="url(#clip962)" cx="1054.84" cy="347.745" r="14.4" fill="#009af9" fill-rule="evenodd" fill-opacity="1" stroke="#000000" stroke-opacity="1" stroke-width="3.2"/>
<circle clip-path="url(#clip962)" cx="714.537" cy="96.1573" r="14.4" fill="#009af9" fill-rule="evenodd" fill-opacity="1" stroke="#000000" stroke-opacity="1" stroke-width="3.2"/>
<circle clip-path="url(#clip962)" cx="930.918" cy="684.317" r="14.4" fill="#009af9" fill-rule="evenodd" fill-opacity="1" stroke="#000000" stroke-opacity="1" stroke-width="3.2"/>
<circle clip-path="url(#clip962)" cx="2037.52" cy="778.884" r="14.4" fill="#009af9" fill-rule="evenodd" fill-opacity="1" stroke="#000000" stroke-opacity="1" stroke-width="3.2"/>
<circle clip-path="url(#clip962)" cx="553.647" cy="799.424" r="14.4" fill="#009af9" fill-rule="evenodd" fill-opacity="1" stroke="#000000" stroke-opacity="1" stroke-width="3.2"/>
<circle clip-path="url(#clip962)" cx="718.661" cy="591.493" r="14.4" fill="#009af9" fill-rule="evenodd" fill-opacity="1" stroke="#000000" stroke-opacity="1" stroke-width="3.2"/>
<circle clip-path="url(#clip962)" cx="817.954" cy="1349.74" r="14.4" fill="#009af9" fill-rule="evenodd" fill-opacity="1" stroke="#000000" stroke-opacity="1" stroke-width="3.2"/>
<circle clip-path="url(#clip962)" cx="924.358" cy="47.2441" r="14.4" fill="#009af9" fill-rule="evenodd" fill-opacity="1" stroke="#000000" stroke-opacity="1" stroke-width="3.2"/>
<circle clip-path="url(#clip962)" cx="1401.22" cy="779.379" r="14.4" fill="#009af9" fill-rule="evenodd" fill-opacity="1" stroke="#000000" stroke-opacity="1" stroke-width="3.2"/>
<circle clip-path="url(#clip962)" cx="1024.62" cy="1258.14" r="14.4" fill="#009af9" fill-rule="evenodd" fill-opacity="1" stroke="#000000" stroke-opacity="1" stroke-width="3.2"/>
<circle clip-path="url(#clip962)" cx="972.757" cy="641.732" r="14.4" fill="#009af9" fill-rule="evenodd" fill-opacity="1" stroke="#000000" stroke-opacity="1" stroke-width="3.2"/>
<circle clip-path="url(#clip962)" cx="1256.32" cy="1002.09" r="14.4" fill="#009af9" fill-rule="evenodd" fill-opacity="1" stroke="#000000" stroke-opacity="1" stroke-width="3.2"/>
<circle clip-path="url(#clip962)" cx="2270.82" cy="816.393" r="14.4" fill="#009af9" fill-rule="evenodd" fill-opacity="1" stroke="#000000" stroke-opacity="1" stroke-width="3.2"/>
<circle clip-path="url(#clip962)" cx="1133.88" cy="979.506" r="14.4" fill="#009af9" fill-rule="evenodd" fill-opacity="1" stroke="#000000" stroke-opacity="1" stroke-width="3.2"/>
<circle clip-path="url(#clip962)" cx="1054.89" cy="645.5" r="14.4" fill="#009af9" fill-rule="evenodd" fill-opacity="1" stroke="#000000" stroke-opacity="1" stroke-width="3.2"/>
<circle clip-path="url(#clip962)" cx="480.759" cy="271.782" r="14.4" fill="#009af9" fill-rule="evenodd" fill-opacity="1" stroke="#000000" stroke-opacity="1" stroke-width="3.2"/>
<circle clip-path="url(#clip962)" cx="1047.97" cy="412.93" r="14.4" fill="#009af9" fill-rule="evenodd" fill-opacity="1" stroke="#000000" stroke-opacity="1" stroke-width="3.2"/>
<circle clip-path="url(#clip962)" cx="1472.82" cy="342.748" r="14.4" fill="#e26f46" fill-rule="evenodd" fill-opacity="1" stroke="#000000" stroke-opacity="1" stroke-width="3.2"/>
<circle clip-path="url(#clip962)" cx="2273.97" cy="237.715" r="14.4" fill="#e26f46" fill-rule="evenodd" fill-opacity="1" stroke="#000000" stroke-opacity="1" stroke-width="3.2"/>
<circle clip-path="url(#clip962)" cx="1632.44" cy="405.611" r="14.4" fill="#e26f46" fill-rule="evenodd" fill-opacity="1" stroke="#000000" stroke-opacity="1" stroke-width="3.2"/>
<circle clip-path="url(#clip962)" cx="2286.78" cy="231.039" r="14.4" fill="#e26f46" fill-rule="evenodd" fill-opacity="1" stroke="#000000" stroke-opacity="1" stroke-width="3.2"/>
<circle clip-path="url(#clip962)" cx="1727.06" cy="395.525" r="14.4" fill="#e26f46" fill-rule="evenodd" fill-opacity="1" stroke="#000000" stroke-opacity="1" stroke-width="3.2"/>
<circle clip-path="url(#clip962)" cx="1506.74" cy="616.044" r="14.4" fill="#e26f46" fill-rule="evenodd" fill-opacity="1" stroke="#000000" stroke-opacity="1" stroke-width="3.2"/>
<circle clip-path="url(#clip962)" cx="2217.66" cy="400.213" r="14.4" fill="#e26f46" fill-rule="evenodd" fill-opacity="1" stroke="#000000" stroke-opacity="1" stroke-width="3.2"/>
<circle clip-path="url(#clip962)" cx="1791.5" cy="415.706" r="14.4" fill="#e26f46" fill-rule="evenodd" fill-opacity="1" stroke="#000000" stroke-opacity="1" stroke-width="3.2"/>
<circle clip-path="url(#clip962)" cx="1987.66" cy="355.133" r="14.4" fill="#e26f46" fill-rule="evenodd" fill-opacity="1" stroke="#000000" stroke-opacity="1" stroke-width="3.2"/>
<circle clip-path="url(#clip962)" cx="1801.36" cy="293.255" r="14.4" fill="#e26f46" fill-rule="evenodd" fill-opacity="1" stroke="#000000" stroke-opacity="1" stroke-width="3.2"/>
<circle clip-path="url(#clip962)" cx="1423.87" cy="451.305" r="14.4" fill="#e26f46" fill-rule="evenodd" fill-opacity="1" stroke="#000000" stroke-opacity="1" stroke-width="3.2"/>
<circle clip-path="url(#clip962)" cx="1604.25" cy="550.006" r="14.4" fill="#e26f46" fill-rule="evenodd" fill-opacity="1" stroke="#000000" stroke-opacity="1" stroke-width="3.2"/>
<circle clip-path="url(#clip962)" cx="1963.42" cy="125.099" r="14.4" fill="#e26f46" fill-rule="evenodd" fill-opacity="1" stroke="#000000" stroke-opacity="1" stroke-width="3.2"/>
<circle clip-path="url(#clip962)" cx="1702.65" cy="290.744" r="14.4" fill="#e26f46" fill-rule="evenodd" fill-opacity="1" stroke="#000000" stroke-opacity="1" stroke-width="3.2"/>
<circle clip-path="url(#clip962)" cx="1396.35" cy="612.479" r="14.4" fill="#e26f46" fill-rule="evenodd" fill-opacity="1" stroke="#000000" stroke-opacity="1" stroke-width="3.2"/>
<circle clip-path="url(#clip962)" cx="1878.24" cy="338.53" r="14.4" fill="#e26f46" fill-rule="evenodd" fill-opacity="1" stroke="#000000" stroke-opacity="1" stroke-width="3.2"/>
<circle clip-path="url(#clip962)" cx="1362.82" cy="441.167" r="14.4" fill="#e26f46" fill-rule="evenodd" fill-opacity="1" stroke="#000000" stroke-opacity="1" stroke-width="3.2"/>
<circle clip-path="url(#clip962)" cx="2147.36" cy="348.783" r="14.4" fill="#e26f46" fill-rule="evenodd" fill-opacity="1" stroke="#000000" stroke-opacity="1" stroke-width="3.2"/>
<circle clip-path="url(#clip962)" cx="2169.26" cy="576.237" r="14.4" fill="#e26f46" fill-rule="evenodd" fill-opacity="1" stroke="#000000" stroke-opacity="1" stroke-width="3.2"/>
<circle clip-path="url(#clip962)" cx="2338.97" cy="555.262" r="14.4" fill="#e26f46" fill-rule="evenodd" fill-opacity="1" stroke="#000000" stroke-opacity="1" stroke-width="3.2"/>
<circle clip-path="url(#clip962)" cx="1839.19" cy="98.8081" r="14.4" fill="#e26f46" fill-rule="evenodd" fill-opacity="1" stroke="#000000" stroke-opacity="1" stroke-width="3.2"/>
<circle clip-path="url(#clip962)" cx="2082.69" cy="481.752" r="14.4" fill="#e26f46" fill-rule="evenodd" fill-opacity="1" stroke="#000000" stroke-opacity="1" stroke-width="3.2"/>
<circle clip-path="url(#clip962)" cx="1571.61" cy="416.322" r="14.4" fill="#e26f46" fill-rule="evenodd" fill-opacity="1" stroke="#000000" stroke-opacity="1" stroke-width="3.2"/>
<circle clip-path="url(#clip962)" cx="1830.25" cy="702.214" r="14.4" fill="#e26f46" fill-rule="evenodd" fill-opacity="1" stroke="#000000" stroke-opacity="1" stroke-width="3.2"/>
<circle clip-path="url(#clip962)" cx="1886.09" cy="621.66" r="14.4" fill="#e26f46" fill-rule="evenodd" fill-opacity="1" stroke="#000000" stroke-opacity="1" stroke-width="3.2"/>
<circle clip-path="url(#clip962)" cx="2033.5" cy="609.776" r="14.4" fill="#e26f46" fill-rule="evenodd" fill-opacity="1" stroke="#000000" stroke-opacity="1" stroke-width="3.2"/>
<circle clip-path="url(#clip962)" cx="1479.42" cy="119.197" r="14.4" fill="#e26f46" fill-rule="evenodd" fill-opacity="1" stroke="#000000" stroke-opacity="1" stroke-width="3.2"/>
<circle clip-path="url(#clip962)" cx="2085.75" cy="161.933" r="14.4" fill="#e26f46" fill-rule="evenodd" fill-opacity="1" stroke="#000000" stroke-opacity="1" stroke-width="3.2"/>
<circle clip-path="url(#clip962)" cx="1842.74" cy="347.514" r="14.4" fill="#e26f46" fill-rule="evenodd" fill-opacity="1" stroke="#000000" stroke-opacity="1" stroke-width="3.2"/>
<circle clip-path="url(#clip962)" cx="1390.44" cy="199.9" r="14.4" fill="#e26f46" fill-rule="evenodd" fill-opacity="1" stroke="#000000" stroke-opacity="1" stroke-width="3.2"/>
<circle clip-path="url(#clip962)" cx="2103.61" cy="531.372" r="14.4" fill="#e26f46" fill-rule="evenodd" fill-opacity="1" stroke="#000000" stroke-opacity="1" stroke-width="3.2"/>
<circle clip-path="url(#clip962)" cx="1768.95" cy="239.271" r="14.4" fill="#e26f46" fill-rule="evenodd" fill-opacity="1" stroke="#000000" stroke-opacity="1" stroke-width="3.2"/>
<circle clip-path="url(#clip962)" cx="1381.68" cy="377.797" r="14.4" fill="#e26f46" fill-rule="evenodd" fill-opacity="1" stroke="#000000" stroke-opacity="1" stroke-width="3.2"/>
<circle clip-path="url(#clip962)" cx="1442.44" cy="331.96" r="14.4" fill="#e26f46" fill-rule="evenodd" fill-opacity="1" stroke="#000000" stroke-opacity="1" stroke-width="3.2"/>
<circle clip-path="url(#clip962)" cx="2187.27" cy="562.663" r="14.4" fill="#e26f46" fill-rule="evenodd" fill-opacity="1" stroke="#000000" stroke-opacity="1" stroke-width="3.2"/>
<circle clip-path="url(#clip962)" cx="2018.17" cy="571.457" r="14.4" fill="#e26f46" fill-rule="evenodd" fill-opacity="1" stroke="#000000" stroke-opacity="1" stroke-width="3.2"/>
<circle clip-path="url(#clip962)" cx="1988.12" cy="173.212" r="14.4" fill="#e26f46" fill-rule="evenodd" fill-opacity="1" stroke="#000000" stroke-opacity="1" stroke-width="3.2"/>
<circle clip-path="url(#clip962)" cx="1759.52" cy="133.854" r="14.4" fill="#e26f46" fill-rule="evenodd" fill-opacity="1" stroke="#000000" stroke-opacity="1" stroke-width="3.2"/>
<circle clip-path="url(#clip962)" cx="2107.83" cy="94.2578" r="14.4" fill="#e26f46" fill-rule="evenodd" fill-opacity="1" stroke="#000000" stroke-opacity="1" stroke-width="3.2"/>
<circle clip-path="url(#clip962)" cx="1571.06" cy="57.15" r="14.4" fill="#e26f46" fill-rule="evenodd" fill-opacity="1" stroke="#000000" stroke-opacity="1" stroke-width="3.2"/>
<circle clip-path="url(#clip962)" cx="1871.7" cy="132.118" r="14.4" fill="#e26f46" fill-rule="evenodd" fill-opacity="1" stroke="#000000" stroke-opacity="1" stroke-width="3.2"/>
<circle clip-path="url(#clip962)" cx="2143.96" cy="579.054" r="14.4" fill="#e26f46" fill-rule="evenodd" fill-opacity="1" stroke="#000000" stroke-opacity="1" stroke-width="3.2"/>
<circle clip-path="url(#clip962)" cx="2189.88" cy="531.356" r="14.4" fill="#e26f46" fill-rule="evenodd" fill-opacity="1" stroke="#000000" stroke-opacity="1" stroke-width="3.2"/>
<circle clip-path="url(#clip962)" cx="1759.12" cy="82.9591" r="14.4" fill="#e26f46" fill-rule="evenodd" fill-opacity="1" stroke="#000000" stroke-opacity="1" stroke-width="3.2"/>
<circle clip-path="url(#clip962)" cx="1599.34" cy="360.463" r="14.4" fill="#e26f46" fill-rule="evenodd" fill-opacity="1" stroke="#000000" stroke-opacity="1" stroke-width="3.2"/>
<circle clip-path="url(#clip962)" cx="2202.59" cy="383.555" r="14.4" fill="#e26f46" fill-rule="evenodd" fill-opacity="1" stroke="#000000" stroke-opacity="1" stroke-width="3.2"/>
<circle clip-path="url(#clip962)" cx="2174.91" cy="631.648" r="14.4" fill="#e26f46" fill-rule="evenodd" fill-opacity="1" stroke="#000000" stroke-opacity="1" stroke-width="3.2"/>
<circle clip-path="url(#clip962)" cx="2120.84" cy="553.948" r="14.4" fill="#e26f46" fill-rule="evenodd" fill-opacity="1" stroke="#000000" stroke-opacity="1" stroke-width="3.2"/>
<circle clip-path="url(#clip962)" cx="1700.41" cy="678.672" r="14.4" fill="#e26f46" fill-rule="evenodd" fill-opacity="1" stroke="#000000" stroke-opacity="1" stroke-width="3.2"/>
<path clip-path="url(#clip960)" d="M1940.71 440.581 L2285.07 440.581 L2285.07 90.6606 L1940.71 90.6606  Z" fill="#ffffff" fill-rule="evenodd" fill-opacity="1"/>
<polyline clip-path="url(#clip960)" style="stroke:#000000; stroke-linecap:round; stroke-linejoin:round; stroke-width:4; stroke-opacity:1; fill:none" points="1940.71,440.581 2285.07,440.581 2285.07,90.6606 1940.71,90.6606 1940.71,440.581 "/>
<circle clip-path="url(#clip960)" cx="2030.96" cy="207.301" r="46.08" fill="#009af9" fill-rule="evenodd" fill-opacity="1" stroke="#000000" stroke-opacity="1" stroke-width="10.24"/>
<path clip-path="url(#clip960)" d="M2121.21 207.831 Q2121.21 194.04 2124.02 185.659 Q2126.88 177.226 2132.45 172.664 Q2138.07 168.102 2146.56 168.102 Q2152.82 168.102 2157.54 170.648 Q2162.26 173.141 2165.34 177.915 Q2168.41 182.636 2170.16 189.478 Q2171.91 196.268 2171.91 207.831 Q2171.91 221.516 2169.1 229.95 Q2166.29 238.33 2160.67 242.945 Q2155.1 247.507 2146.56 247.507 Q2135.31 247.507 2128.9 239.444 Q2121.21 229.738 2121.21 207.831 M2131.02 207.831 Q2131.02 226.979 2135.47 233.344 Q2139.98 239.656 2146.56 239.656 Q2153.14 239.656 2157.59 233.291 Q2162.1 226.926 2162.1 207.831 Q2162.1 188.63 2157.59 182.318 Q2153.14 176.006 2146.45 176.006 Q2139.88 176.006 2135.95 181.575 Q2131.02 188.683 2131.02 207.831 Z" fill="#000000" fill-rule="nonzero" fill-opacity="1" /><path clip-path="url(#clip960)" d="M2186.98 246.181 L2186.98 235.307 L2197.85 235.307 L2197.85 246.181 L2186.98 246.181 Z" fill="#000000" fill-rule="nonzero" fill-opacity="1" /><path clip-path="url(#clip960)" d="M2211.8 207.831 Q2211.8 194.04 2214.61 185.659 Q2217.48 177.226 2223.05 172.664 Q2228.67 168.102 2237.16 168.102 Q2243.42 168.102 2248.14 170.648 Q2252.86 173.141 2255.93 177.915 Q2259.01 182.636 2260.76 189.478 Q2262.51 196.268 2262.51 207.831 Q2262.51 221.516 2259.7 229.95 Q2256.89 238.33 2251.27 242.945 Q2245.7 247.507 2237.16 247.507 Q2225.91 247.507 2219.49 239.444 Q2211.8 229.738 2211.8 207.831 M2221.61 207.831 Q2221.61 226.979 2226.07 233.344 Q2230.58 239.656 2237.16 239.656 Q2243.73 239.656 2248.19 233.291 Q2252.7 226.926 2252.7 207.831 Q2252.7 188.63 2248.19 182.318 Q2243.73 176.006 2237.05 176.006 Q2230.47 176.006 2226.55 181.575 Q2221.61 188.683 2221.61 207.831 Z" fill="#000000" fill-rule="nonzero" fill-opacity="1" /><circle clip-path="url(#clip960)" cx="2030.96" cy="323.941" r="46.08" fill="#e26f46" fill-rule="evenodd" fill-opacity="1" stroke="#000000" stroke-opacity="1" stroke-width="10.24"/>
<path clip-path="url(#clip960)" d="M2149.85 362.821 L2140.3 362.821 L2140.3 301.981 Q2136.85 305.27 2131.23 308.558 Q2125.66 311.847 2121.21 313.491 L2121.21 304.262 Q2129.21 300.496 2135.21 295.139 Q2141.2 289.781 2143.7 284.742 L2149.85 284.742 L2149.85 362.821 Z" fill="#000000" fill-rule="nonzero" fill-opacity="1" /><path clip-path="url(#clip960)" d="M2179.66 362.821 L2179.66 351.947 L2190.53 351.947 L2190.53 362.821 L2179.66 362.821 Z" fill="#000000" fill-rule="nonzero" fill-opacity="1" /><path clip-path="url(#clip960)" d="M2204.48 324.471 Q2204.48 310.68 2207.29 302.299 Q2210.16 293.866 2215.73 289.304 Q2221.35 284.742 2229.84 284.742 Q2236.1 284.742 2240.82 287.288 Q2245.54 289.781 2248.61 294.555 Q2251.69 299.276 2253.44 306.118 Q2255.19 312.908 2255.19 324.471 Q2255.19 338.156 2252.38 346.59 Q2249.57 354.97 2243.95 359.585 Q2238.38 364.147 2229.84 364.147 Q2218.59 364.147 2212.17 356.084 Q2204.48 346.378 2204.48 324.471 M2214.29 324.471 Q2214.29 343.619 2218.75 349.984 Q2223.26 356.296 2229.84 356.296 Q2236.41 356.296 2240.87 349.931 Q2245.38 343.566 2245.38 324.471 Q2245.38 305.27 2240.87 298.958 Q2236.41 292.646 2229.73 292.646 Q2223.15 292.646 2219.23 298.215 Q2214.29 305.323 2214.29 324.471 Z" fill="#000000" fill-rule="nonzero" fill-opacity="1" /></svg>
