<?xml version="1.0" encoding="utf-8"?>
<svg xmlns="http://www.w3.org/2000/svg" xmlns:xlink="http://www.w3.org/1999/xlink" width="600" height="400" viewBox="0 0 2400 1600">
<defs>
  <clipPath id="clip750">
    <rect x="0" y="0" width="2400" height="1600"/>
  </clipPath>
</defs>
<path clip-path="url(#clip750)" d="M0 1600 L2400 1600 L2400 8.88178e-14 L0 8.88178e-14  Z" fill="#ffffff" fill-rule="evenodd" fill-opacity="1"/>
<defs>
  <clipPath id="clip751">
    <rect x="480" y="0" width="1681" height="1600"/>
  </clipPath>
</defs>
<path clip-path="url(#clip750)" d="M291.046 1443.25 L2352.76 1443.25 L2352.76 47.2441 L291.046 47.2441  Z" fill="#ffffff" fill-rule="evenodd" fill-opacity="1"/>
<defs>
  <clipPath id="clip752">
    <rect x="291" y="47" width="2063" height="1397"/>
  </clipPath>
</defs>
<polyline clip-path="url(#clip752)" style="stroke:#000000; stroke-linecap:round; stroke-linejoin:round; stroke-width:2; stroke-opacity:0.1; fill:none" points="565.508,1443.25 565.508,47.2441 "/>
<polyline clip-path="url(#clip752)" style="stroke:#000000; stroke-linecap:round; stroke-linejoin:round; stroke-width:2; stroke-opacity:0.1; fill:none" points="997.733,1443.25 997.733,47.2441 "/>
<polyline clip-path="url(#clip752)" style="stroke:#000000; stroke-linecap:round; stroke-linejoin:round; stroke-width:2; stroke-opacity:0.1; fill:none" points="1429.96,1443.25 1429.96,47.2441 "/>
<polyline clip-path="url(#clip752)" style="stroke:#000000; stroke-linecap:round; stroke-linejoin:round; stroke-width:2; stroke-opacity:0.1; fill:none" points="1862.18,1443.25 1862.18,47.2441 "/>
<polyline clip-path="url(#clip752)" style="stroke:#000000; stroke-linecap:round; stroke-linejoin:round; stroke-width:2; stroke-opacity:0.1; fill:none" points="2294.41,1443.25 2294.41,47.2441 "/>
<polyline clip-path="url(#clip750)" style="stroke:#000000; stroke-linecap:round; stroke-linejoin:round; stroke-width:4; stroke-opacity:1; fill:none" points="291.046,1443.25 2352.76,1443.25 "/>
<polyline clip-path="url(#clip750)" style="stroke:#000000; stroke-linecap:round; stroke-linejoin:round; stroke-width:4; stroke-opacity:1; fill:none" points="565.508,1443.25 565.508,1424.35 "/>
<polyline clip-path="url(#clip750)" style="stroke:#000000; stroke-linecap:round; stroke-linejoin:round; stroke-width:4; stroke-opacity:1; fill:none" points="997.733,1443.25 997.733,1424.35 "/>
<polyline clip-path="url(#clip750)" style="stroke:#000000; stroke-linecap:round; stroke-linejoin:round; stroke-width:4; stroke-opacity:1; fill:none" points="1429.96,1443.25 1429.96,1424.35 "/>
<polyline clip-path="url(#clip750)" style="stroke:#000000; stroke-linecap:round; stroke-linejoin:round; stroke-width:4; stroke-opacity:1; fill:none" points="1862.18,1443.25 1862.18,1424.35 "/>
<polyline clip-path="url(#clip750)" style="stroke:#000000; stroke-linecap:round; stroke-linejoin:round; stroke-width:4; stroke-opacity:1; fill:none" points="2294.41,1443.25 2294.41,1424.35 "/>
<path clip-path="url(#clip750)" d="M591.26 1550.47 L591.26 1559.65 L539.862 1559.65 Q539.756 1556.2 540.976 1553.02 Q542.939 1547.77 547.235 1542.67 Q551.585 1537.58 559.753 1530.9 Q572.43 1520.5 576.886 1514.46 Q581.341 1508.36 581.341 1502.95 Q581.341 1497.27 577.257 1493.4 Q573.226 1489.47 566.702 1489.47 Q559.806 1489.47 555.669 1493.61 Q551.532 1497.75 551.479 1505.07 L541.666 1504.06 Q542.674 1493.08 549.251 1487.35 Q555.828 1481.57 566.914 1481.57 Q578.106 1481.57 584.63 1487.78 Q591.154 1493.98 591.154 1503.16 Q591.154 1507.83 589.245 1512.33 Q587.335 1516.84 582.88 1521.83 Q578.477 1526.81 568.187 1535.51 Q559.594 1542.73 557.154 1545.33 Q554.714 1547.87 553.123 1550.47 L591.26 1550.47 Z" fill="#000000" fill-rule="nonzero" fill-opacity="1" /><path clip-path="url(#clip750)" d="M1004.58 1559.65 L1004.58 1541.03 L970.84 1541.03 L970.84 1532.28 L1006.33 1481.89 L1014.12 1481.89 L1014.12 1532.28 L1024.63 1532.28 L1024.63 1541.03 L1014.12 1541.03 L1014.12 1559.65 L1004.58 1559.65 M1004.58 1532.28 L1004.58 1497.22 L980.229 1532.28 L1004.58 1532.28 Z" fill="#000000" fill-rule="nonzero" fill-opacity="1" /><path clip-path="url(#clip750)" d="M1454.25 1500.93 L1444.76 1501.67 Q1443.48 1496.05 1441.15 1493.5 Q1437.28 1489.42 1431.6 1489.42 Q1427.04 1489.42 1423.59 1491.97 Q1419.08 1495.25 1416.48 1501.57 Q1413.89 1507.88 1413.78 1519.55 Q1417.23 1514.3 1422.21 1511.75 Q1427.2 1509.2 1432.66 1509.2 Q1442.21 1509.2 1448.89 1516.26 Q1455.63 1523.26 1455.63 1534.4 Q1455.63 1541.72 1452.45 1548.03 Q1449.32 1554.29 1443.8 1557.63 Q1438.28 1560.97 1431.28 1560.97 Q1419.35 1560.97 1411.82 1552.22 Q1404.28 1543.42 1404.28 1523.26 Q1404.28 1500.72 1412.61 1490.48 Q1419.88 1481.57 1432.18 1481.57 Q1441.36 1481.57 1447.2 1486.71 Q1453.08 1491.86 1454.25 1500.93 M1415.26 1534.45 Q1415.26 1539.39 1417.33 1543.89 Q1419.45 1548.4 1423.22 1550.79 Q1426.99 1553.12 1431.12 1553.12 Q1437.17 1553.12 1441.52 1548.24 Q1445.87 1543.36 1445.87 1534.98 Q1445.87 1526.92 1441.57 1522.31 Q1437.28 1517.64 1430.75 1517.64 Q1424.28 1517.64 1419.77 1522.31 Q1415.26 1526.92 1415.26 1534.45 Z" fill="#000000" fill-rule="nonzero" fill-opacity="1" /><path clip-path="url(#clip750)" d="M1851.36 1517.48 Q1845.42 1515.3 1842.56 1511.27 Q1839.69 1507.24 1839.69 1501.62 Q1839.69 1493.13 1845.79 1487.35 Q1851.89 1481.57 1862.02 1481.57 Q1872.21 1481.57 1878.41 1487.51 Q1884.62 1493.4 1884.62 1501.88 Q1884.62 1507.3 1881.75 1511.33 Q1878.94 1515.3 1873.16 1517.48 Q1880.32 1519.81 1884.03 1525.01 Q1887.8 1530.21 1887.8 1537.42 Q1887.8 1547.4 1880.75 1554.18 Q1873.69 1560.97 1862.18 1560.97 Q1850.67 1560.97 1843.62 1554.18 Q1836.56 1547.34 1836.56 1537.16 Q1836.56 1529.57 1840.38 1524.48 Q1844.25 1519.34 1851.36 1517.48 M1849.45 1501.3 Q1849.45 1506.82 1853 1510.32 Q1856.56 1513.82 1862.23 1513.82 Q1867.75 1513.82 1871.25 1510.37 Q1874.81 1506.87 1874.81 1501.83 Q1874.81 1496.58 1871.15 1493.03 Q1867.54 1489.42 1862.13 1489.42 Q1856.66 1489.42 1853.06 1492.92 Q1849.45 1496.42 1849.45 1501.3 M1846.37 1537.21 Q1846.37 1541.3 1848.28 1545.11 Q1850.25 1548.93 1854.07 1551.06 Q1857.88 1553.12 1862.29 1553.12 Q1869.13 1553.12 1873.59 1548.72 Q1878.04 1544.32 1878.04 1537.53 Q1878.04 1530.63 1873.43 1526.13 Q1868.86 1521.62 1861.97 1521.62 Q1855.23 1521.62 1850.78 1526.07 Q1846.37 1530.53 1846.37 1537.21 Z" fill="#000000" fill-rule="nonzero" fill-opacity="1" /><path clip-path="url(#clip750)" d="M2271.15 1559.65 L2261.6 1559.65 L2261.6 1498.81 Q2258.15 1502.1 2252.53 1505.39 Q2246.96 1508.67 2242.5 1510.32 L2242.5 1501.09 Q2250.51 1497.32 2256.51 1491.97 Q2262.5 1486.61 2264.99 1481.57 L2271.15 1481.57 L2271.15 1559.65 Z" fill="#000000" fill-rule="nonzero" fill-opacity="1" /><path clip-path="url(#clip750)" d="M2295.6 1521.3 Q2295.6 1507.51 2298.41 1499.13 Q2301.27 1490.69 2306.84 1486.13 Q2312.47 1481.57 2320.95 1481.57 Q2327.21 1481.57 2331.93 1484.12 Q2336.65 1486.61 2339.73 1491.38 Q2342.81 1496.1 2344.56 1502.95 Q2346.31 1509.74 2346.31 1521.3 Q2346.31 1534.98 2343.5 1543.42 Q2340.69 1551.8 2335.06 1556.41 Q2329.49 1560.97 2320.95 1560.97 Q2309.71 1560.97 2303.29 1552.91 Q2295.6 1543.2 2295.6 1521.3 M2305.41 1521.3 Q2305.41 1540.45 2309.87 1546.81 Q2314.38 1553.12 2320.95 1553.12 Q2327.53 1553.12 2331.99 1546.76 Q2336.49 1540.39 2336.49 1521.3 Q2336.49 1502.1 2331.99 1495.78 Q2327.53 1489.47 2320.85 1489.47 Q2314.27 1489.47 2310.34 1495.04 Q2305.41 1502.15 2305.41 1521.3 Z" fill="#000000" fill-rule="nonzero" fill-opacity="1" /><polyline clip-path="url(#clip752)" style="stroke:#000000; stroke-linecap:round; stroke-linejoin:round; stroke-width:2; stroke-opacity:0.1; fill:none" points="291.046,1251.47 2352.76,1251.47 "/>
<polyline clip-path="url(#clip752)" style="stroke:#000000; stroke-linecap:round; stroke-linejoin:round; stroke-width:2; stroke-opacity:0.1; fill:none" points="291.046,1020.76 2352.76,1020.76 "/>
<polyline clip-path="url(#clip752)" style="stroke:#000000; stroke-linecap:round; stroke-linejoin:round; stroke-width:2; stroke-opacity:0.1; fill:none" points="291.046,790.045 2352.76,790.045 "/>
<polyline clip-path="url(#clip752)" style="stroke:#000000; stroke-linecap:round; stroke-linejoin:round; stroke-width:2; stroke-opacity:0.1; fill:none" points="291.046,559.333 2352.76,559.333 "/>
<polyline clip-path="url(#clip752)" style="stroke:#000000; stroke-linecap:round; stroke-linejoin:round; stroke-width:2; stroke-opacity:0.1; fill:none" points="291.046,328.622 2352.76,328.622 "/>
<polyline clip-path="url(#clip752)" style="stroke:#000000; stroke-linecap:round; stroke-linejoin:round; stroke-width:2; stroke-opacity:0.1; fill:none" points="291.046,97.9098 2352.76,97.9098 "/>
<polyline clip-path="url(#clip750)" style="stroke:#000000; stroke-linecap:round; stroke-linejoin:round; stroke-width:4; stroke-opacity:1; fill:none" points="291.046,1443.25 291.046,47.2441 "/>
<polyline clip-path="url(#clip750)" style="stroke:#000000; stroke-linecap:round; stroke-linejoin:round; stroke-width:4; stroke-opacity:1; fill:none" points="291.046,1251.47 309.943,1251.47 "/>
<polyline clip-path="url(#clip750)" style="stroke:#000000; stroke-linecap:round; stroke-linejoin:round; stroke-width:4; stroke-opacity:1; fill:none" points="291.046,1020.76 309.943,1020.76 "/>
<polyline clip-path="url(#clip750)" style="stroke:#000000; stroke-linecap:round; stroke-linejoin:round; stroke-width:4; stroke-opacity:1; fill:none" points="291.046,790.045 309.943,790.045 "/>
<polyline clip-path="url(#clip750)" style="stroke:#000000; stroke-linecap:round; stroke-linejoin:round; stroke-width:4; stroke-opacity:1; fill:none" points="291.046,559.333 309.943,559.333 "/>
<polyline clip-path="url(#clip750)" style="stroke:#000000; stroke-linecap:round; stroke-linejoin:round; stroke-width:4; stroke-opacity:1; fill:none" points="291.046,328.622 309.943,328.622 "/>
<polyline clip-path="url(#clip750)" style="stroke:#000000; stroke-linecap:round; stroke-linejoin:round; stroke-width:4; stroke-opacity:1; fill:none" points="291.046,97.9098 309.943,97.9098 "/>
<path clip-path="url(#clip750)" d="M103.186 1256.45 L51.8408 1256.45 L51.8408 1247.54 L103.186 1247.54 L103.186 1256.45 Z" fill="#000000" fill-rule="nonzero" fill-opacity="1" /><path clip-path="url(#clip750)" d="M149.704 1290.35 L140.156 1290.35 L140.156 1229.51 Q136.708 1232.8 131.086 1236.09 Q125.517 1239.37 121.061 1241.02 L121.061 1231.79 Q129.07 1228.02 135.064 1222.67 Q141.058 1217.31 143.551 1212.27 L149.704 1212.27 L149.704 1290.35 Z" fill="#000000" fill-rule="nonzero" fill-opacity="1" /><path clip-path="url(#clip750)" d="M179.514 1290.35 L179.514 1279.47 L190.387 1279.47 L190.387 1290.35 L179.514 1290.35 Z" fill="#000000" fill-rule="nonzero" fill-opacity="1" /><path clip-path="url(#clip750)" d="M204.337 1252 Q204.337 1238.21 207.149 1229.83 Q210.013 1221.39 215.582 1216.83 Q221.205 1212.27 229.692 1212.27 Q235.951 1212.27 240.671 1214.82 Q245.392 1217.31 248.469 1222.08 Q251.545 1226.8 253.295 1233.65 Q255.046 1240.44 255.046 1252 Q255.046 1265.68 252.235 1274.12 Q249.423 1282.5 243.801 1287.11 Q238.231 1291.67 229.692 1291.67 Q218.447 1291.67 212.029 1283.61 Q204.337 1273.91 204.337 1252 M214.15 1252 Q214.15 1271.15 218.606 1277.51 Q223.114 1283.82 229.692 1283.82 Q236.269 1283.82 240.724 1277.46 Q245.233 1271.09 245.233 1252 Q245.233 1232.8 240.724 1226.49 Q236.269 1220.17 229.586 1220.17 Q223.008 1220.17 219.083 1225.74 Q214.15 1232.85 214.15 1252 Z" fill="#000000" fill-rule="nonzero" fill-opacity="1" /><path clip-path="url(#clip750)" d="M102.337 1025.74 L50.9921 1025.74 L50.9921 1016.83 L102.337 1016.83 L102.337 1025.74 Z" fill="#000000" fill-rule="nonzero" fill-opacity="1" /><path clip-path="url(#clip750)" d="M112.892 1021.29 Q112.892 1007.5 115.704 999.116 Q118.568 990.682 124.137 986.12 Q129.76 981.559 138.247 981.559 Q144.506 981.559 149.226 984.105 Q153.947 986.598 157.024 991.371 Q160.1 996.092 161.851 1002.93 Q163.601 1009.72 163.601 1021.29 Q163.601 1034.97 160.79 1043.41 Q157.978 1051.79 152.356 1056.4 Q146.787 1060.96 138.247 1060.96 Q127.002 1060.96 120.584 1052.9 Q112.892 1043.19 112.892 1021.29 M122.705 1021.29 Q122.705 1040.44 127.161 1046.8 Q131.669 1053.11 138.247 1053.11 Q144.824 1053.11 149.279 1046.75 Q153.788 1040.38 153.788 1021.29 Q153.788 1002.09 149.279 995.774 Q144.824 989.462 138.141 989.462 Q131.563 989.462 127.638 995.031 Q122.705 1002.14 122.705 1021.29 Z" fill="#000000" fill-rule="nonzero" fill-opacity="1" /><path clip-path="url(#clip750)" d="M178.665 1059.64 L178.665 1048.76 L189.539 1048.76 L189.539 1059.64 L178.665 1059.64 Z" fill="#000000" fill-rule="nonzero" fill-opacity="1" /><path clip-path="url(#clip750)" d="M203.489 1039.27 L213.514 1038.42 Q214.628 1045.74 218.659 1049.45 Q222.743 1053.11 228.472 1053.11 Q235.367 1053.11 240.141 1047.91 Q244.915 1042.72 244.915 1034.12 Q244.915 1025.95 240.3 1021.23 Q235.738 1016.51 228.313 1016.51 Q223.698 1016.51 219.985 1018.64 Q216.272 1020.7 214.15 1024.05 L205.186 1022.88 L212.718 982.938 L251.386 982.938 L251.386 992.061 L220.356 992.061 L216.166 1012.96 Q223.167 1008.08 230.859 1008.08 Q241.043 1008.08 248.044 1015.13 Q255.046 1022.19 255.046 1033.27 Q255.046 1043.83 248.893 1051.52 Q241.414 1060.96 228.472 1060.96 Q217.863 1060.96 211.127 1055.02 Q204.443 1049.08 203.489 1039.27 Z" fill="#000000" fill-rule="nonzero" fill-opacity="1" /><path clip-path="url(#clip750)" d="M113.741 790.575 Q113.741 776.784 116.552 768.404 Q119.417 759.97 124.986 755.408 Q130.609 750.847 139.095 750.847 Q145.354 750.847 150.075 753.393 Q154.796 755.886 157.872 760.66 Q160.949 765.38 162.699 772.223 Q164.45 779.012 164.45 790.575 Q164.45 804.26 161.638 812.694 Q158.827 821.075 153.205 825.689 Q147.635 830.251 139.095 830.251 Q127.85 830.251 121.432 822.189 Q113.741 812.482 113.741 790.575 M123.554 790.575 Q123.554 809.724 128.01 816.089 Q132.518 822.401 139.095 822.401 Q145.673 822.401 150.128 816.036 Q154.637 809.671 154.637 790.575 Q154.637 771.374 150.128 765.062 Q145.673 758.75 138.989 758.75 Q132.412 758.75 128.487 764.32 Q123.554 771.427 123.554 790.575 Z" fill="#000000" fill-rule="nonzero" fill-opacity="1" /><path clip-path="url(#clip750)" d="M179.514 828.925 L179.514 818.051 L190.387 818.051 L190.387 828.925 L179.514 828.925 Z" fill="#000000" fill-rule="nonzero" fill-opacity="1" /><path clip-path="url(#clip750)" d="M204.337 790.575 Q204.337 776.784 207.149 768.404 Q210.013 759.97 215.582 755.408 Q221.205 750.847 229.692 750.847 Q235.951 750.847 240.671 753.393 Q245.392 755.886 248.469 760.66 Q251.545 765.38 253.295 772.223 Q255.046 779.012 255.046 790.575 Q255.046 804.26 252.235 812.694 Q249.423 821.075 243.801 825.689 Q238.231 830.251 229.692 830.251 Q218.447 830.251 212.029 822.189 Q204.337 812.482 204.337 790.575 M214.15 790.575 Q214.15 809.724 218.606 816.089 Q223.114 822.401 229.692 822.401 Q236.269 822.401 240.724 816.036 Q245.233 809.671 245.233 790.575 Q245.233 771.374 240.724 765.062 Q236.269 758.75 229.586 758.75 Q223.008 758.75 219.083 764.32 Q214.15 771.427 214.15 790.575 Z" fill="#000000" fill-rule="nonzero" fill-opacity="1" /><path clip-path="url(#clip750)" d="M112.892 559.864 Q112.892 546.073 115.704 537.692 Q118.568 529.258 124.137 524.697 Q129.76 520.135 138.247 520.135 Q144.506 520.135 149.226 522.681 Q153.947 525.174 157.024 529.948 Q160.1 534.669 161.851 541.511 Q163.601 548.301 163.601 559.864 Q163.601 573.549 160.79 581.982 Q157.978 590.363 152.356 594.978 Q146.787 599.539 138.247 599.539 Q127.002 599.539 120.584 591.477 Q112.892 581.77 112.892 559.864 M122.705 559.864 Q122.705 579.012 127.161 585.377 Q131.669 591.689 138.247 591.689 Q144.824 591.689 149.279 585.324 Q153.788 578.959 153.788 559.864 Q153.788 540.662 149.279 534.35 Q144.824 528.038 138.141 528.038 Q131.563 528.038 127.638 533.608 Q122.705 540.715 122.705 559.864 Z" fill="#000000" fill-rule="nonzero" fill-opacity="1" /><path clip-path="url(#clip750)" d="M178.665 598.213 L178.665 587.34 L189.539 587.34 L189.539 598.213 L178.665 598.213 Z" fill="#000000" fill-rule="nonzero" fill-opacity="1" /><path clip-path="url(#clip750)" d="M203.489 577.845 L213.514 576.996 Q214.628 584.316 218.659 588.029 Q222.743 591.689 228.472 591.689 Q235.367 591.689 240.141 586.491 Q244.915 581.293 244.915 572.7 Q244.915 564.531 240.3 559.811 Q235.738 555.09 228.313 555.09 Q223.698 555.09 219.985 557.212 Q216.272 559.28 214.15 562.622 L205.186 561.455 L212.718 521.514 L251.386 521.514 L251.386 530.637 L220.356 530.637 L216.166 551.536 Q223.167 546.656 230.859 546.656 Q241.043 546.656 248.044 553.711 Q255.046 560.765 255.046 571.851 Q255.046 582.407 248.893 590.098 Q241.414 599.539 228.472 599.539 Q217.863 599.539 211.127 593.599 Q204.443 587.658 203.489 577.845 Z" fill="#000000" fill-rule="nonzero" fill-opacity="1" /><path clip-path="url(#clip750)" d="M149.704 367.502 L140.156 367.502 L140.156 306.662 Q136.708 309.951 131.086 313.239 Q125.517 316.528 121.061 318.172 L121.061 308.943 Q129.07 305.177 135.064 299.82 Q141.058 294.462 143.551 289.423 L149.704 289.423 L149.704 367.502 Z" fill="#000000" fill-rule="nonzero" fill-opacity="1" /><path clip-path="url(#clip750)" d="M179.514 367.502 L179.514 356.628 L190.387 356.628 L190.387 367.502 L179.514 367.502 Z" fill="#000000" fill-rule="nonzero" fill-opacity="1" /><path clip-path="url(#clip750)" d="M204.337 329.152 Q204.337 315.361 207.149 306.98 Q210.013 298.547 215.582 293.985 Q221.205 289.423 229.692 289.423 Q235.951 289.423 240.671 291.969 Q245.392 294.462 248.469 299.236 Q251.545 303.957 253.295 310.799 Q255.046 317.589 255.046 329.152 Q255.046 342.837 252.235 351.271 Q249.423 359.651 243.801 364.266 Q238.231 368.828 229.692 368.828 Q218.447 368.828 212.029 360.765 Q204.337 351.058 204.337 329.152 M214.15 329.152 Q214.15 348.3 218.606 354.665 Q223.114 360.977 229.692 360.977 Q236.269 360.977 240.724 354.612 Q245.233 348.247 245.233 329.152 Q245.233 309.951 240.724 303.639 Q236.269 297.327 229.586 297.327 Q223.008 297.327 219.083 302.896 Q214.15 310.004 214.15 329.152 Z" fill="#000000" fill-rule="nonzero" fill-opacity="1" /><path clip-path="url(#clip750)" d="M148.855 136.79 L139.308 136.79 L139.308 75.9503 Q135.86 79.2389 130.237 82.5275 Q124.668 85.8161 120.212 87.4605 L120.212 78.2311 Q128.222 74.4651 134.215 69.1078 Q140.209 63.7505 142.702 58.7115 L148.855 58.7115 L148.855 136.79 Z" fill="#000000" fill-rule="nonzero" fill-opacity="1" /><path clip-path="url(#clip750)" d="M178.665 136.79 L178.665 125.916 L189.539 125.916 L189.539 136.79 L178.665 136.79 Z" fill="#000000" fill-rule="nonzero" fill-opacity="1" /><path clip-path="url(#clip750)" d="M203.489 116.422 L213.514 115.573 Q214.628 122.893 218.659 126.606 Q222.743 130.266 228.472 130.266 Q235.367 130.266 240.141 125.067 Q244.915 119.869 244.915 111.276 Q244.915 103.108 240.3 98.3872 Q235.738 93.6664 228.313 93.6664 Q223.698 93.6664 219.985 95.7881 Q216.272 97.8567 214.15 101.198 L205.186 100.031 L212.718 60.0906 L251.386 60.0906 L251.386 69.2139 L220.356 69.2139 L216.166 90.1126 Q223.167 85.2327 230.859 85.2327 Q241.043 85.2327 248.044 92.2873 Q255.046 99.3419 255.046 110.428 Q255.046 120.983 248.893 128.674 Q241.414 138.116 228.472 138.116 Q217.863 138.116 211.127 132.175 Q204.443 126.234 203.489 116.422 Z" fill="#000000" fill-rule="nonzero" fill-opacity="1" /><polyline clip-path="url(#clip752)" style="stroke:#009af9; stroke-linecap:round; stroke-linejoin:round; stroke-width:4; stroke-opacity:1; fill:none" points="349.396,86.7536 565.508,1083.41 781.62,1199.85 997.733,1258.54 1213.84,1293.52 1429.96,1316.22 1646.07,1331.77 1862.18,1342.87 2078.29,1351.06 2294.41,1357.26 "/>
<line clip-path="url(#clip752)" x1="349.396" y1="86.7536" x2="325.396" y2="62.7536" style="stroke:#009af9; stroke-width:4; stroke-opacity:1"/>
<line clip-path="url(#clip752)" x1="349.396" y1="86.7536" x2="325.396" y2="110.754" style="stroke:#009af9; stroke-width:4; stroke-opacity:1"/>
<line clip-path="url(#clip752)" x1="349.396" y1="86.7536" x2="373.396" y2="110.754" style="stroke:#009af9; stroke-width:4; stroke-opacity:1"/>
<line clip-path="url(#clip752)" x1="349.396" y1="86.7536" x2="373.396" y2="62.7536" style="stroke:#009af9; stroke-width:4; stroke-opacity:1"/>
<line clip-path="url(#clip752)" x1="565.508" y1="1083.41" x2="541.508" y2="1059.41" style="stroke:#009af9; stroke-width:4; stroke-opacity:1"/>
<line clip-path="url(#clip752)" x1="565.508" y1="1083.41" x2="541.508" y2="1107.41" style="stroke:#009af9; stroke-width:4; stroke-opacity:1"/>
<line clip-path="url(#clip752)" x1="565.508" y1="1083.41" x2="589.508" y2="1107.41" style="stroke:#009af9; stroke-width:4; stroke-opacity:1"/>
<line clip-path="url(#clip752)" x1="565.508" y1="1083.41" x2="589.508" y2="1059.41" style="stroke:#009af9; stroke-width:4; stroke-opacity:1"/>
<line clip-path="url(#clip752)" x1="781.62" y1="1199.85" x2="757.62" y2="1175.85" style="stroke:#009af9; stroke-width:4; stroke-opacity:1"/>
<line clip-path="url(#clip752)" x1="781.62" y1="1199.85" x2="757.62" y2="1223.85" style="stroke:#009af9; stroke-width:4; stroke-opacity:1"/>
<line clip-path="url(#clip752)" x1="781.62" y1="1199.85" x2="805.62" y2="1223.85" style="stroke:#009af9; stroke-width:4; stroke-opacity:1"/>
<line clip-path="url(#clip752)" x1="781.62" y1="1199.85" x2="805.62" y2="1175.85" style="stroke:#009af9; stroke-width:4; stroke-opacity:1"/>
<line clip-path="url(#clip752)" x1="997.733" y1="1258.54" x2="973.733" y2="1234.54" style="stroke:#009af9; stroke-width:4; stroke-opacity:1"/>
<line clip-path="url(#clip752)" x1="997.733" y1="1258.54" x2="973.733" y2="1282.54" style="stroke:#009af9; stroke-width:4; stroke-opacity:1"/>
<line clip-path="url(#clip752)" x1="997.733" y1="1258.54" x2="1021.73" y2="1282.54" style="stroke:#009af9; stroke-width:4; stroke-opacity:1"/>
<line clip-path="url(#clip752)" x1="997.733" y1="1258.54" x2="1021.73" y2="1234.54" style="stroke:#009af9; stroke-width:4; stroke-opacity:1"/>
<line clip-path="url(#clip752)" x1="1213.84" y1="1293.52" x2="1189.84" y2="1269.52" style="stroke:#009af9; stroke-width:4; stroke-opacity:1"/>
<line clip-path="url(#clip752)" x1="1213.84" y1="1293.52" x2="1189.84" y2="1317.52" style="stroke:#009af9; stroke-width:4; stroke-opacity:1"/>
<line clip-path="url(#clip752)" x1="1213.84" y1="1293.52" x2="1237.84" y2="1317.52" style="stroke:#009af9; stroke-width:4; stroke-opacity:1"/>
<line clip-path="url(#clip752)" x1="1213.84" y1="1293.52" x2="1237.84" y2="1269.52" style="stroke:#009af9; stroke-width:4; stroke-opacity:1"/>
<line clip-path="url(#clip752)" x1="1429.96" y1="1316.22" x2="1405.96" y2="1292.22" style="stroke:#009af9; stroke-width:4; stroke-opacity:1"/>
<line clip-path="url(#clip752)" x1="1429.96" y1="1316.22" x2="1405.96" y2="1340.22" style="stroke:#009af9; stroke-width:4; stroke-opacity:1"/>
<line clip-path="url(#clip752)" x1="1429.96" y1="1316.22" x2="1453.96" y2="1340.22" style="stroke:#009af9; stroke-width:4; stroke-opacity:1"/>
<line clip-path="url(#clip752)" x1="1429.96" y1="1316.22" x2="1453.96" y2="1292.22" style="stroke:#009af9; stroke-width:4; stroke-opacity:1"/>
<line clip-path="url(#clip752)" x1="1646.07" y1="1331.77" x2="1622.07" y2="1307.77" style="stroke:#009af9; stroke-width:4; stroke-opacity:1"/>
<line clip-path="url(#clip752)" x1="1646.07" y1="1331.77" x2="1622.07" y2="1355.77" style="stroke:#009af9; stroke-width:4; stroke-opacity:1"/>
<line clip-path="url(#clip752)" x1="1646.07" y1="1331.77" x2="1670.07" y2="1355.77" style="stroke:#009af9; stroke-width:4; stroke-opacity:1"/>
<line clip-path="url(#clip752)" x1="1646.07" y1="1331.77" x2="1670.07" y2="1307.77" style="stroke:#009af9; stroke-width:4; stroke-opacity:1"/>
<line clip-path="url(#clip752)" x1="1862.18" y1="1342.87" x2="1838.18" y2="1318.87" style="stroke:#009af9; stroke-width:4; stroke-opacity:1"/>
<line clip-path="url(#clip752)" x1="1862.18" y1="1342.87" x2="1838.18" y2="1366.87" style="stroke:#009af9; stroke-width:4; stroke-opacity:1"/>
<line clip-path="url(#clip752)" x1="1862.18" y1="1342.87" x2="1886.18" y2="1366.87" style="stroke:#009af9; stroke-width:4; stroke-opacity:1"/>
<line clip-path="url(#clip752)" x1="1862.18" y1="1342.87" x2="1886.18" y2="1318.87" style="stroke:#009af9; stroke-width:4; stroke-opacity:1"/>
<line clip-path="url(#clip752)" x1="2078.29" y1="1351.06" x2="2054.29" y2="1327.06" style="stroke:#009af9; stroke-width:4; stroke-opacity:1"/>
<line clip-path="url(#clip752)" x1="2078.29" y1="1351.06" x2="2054.29" y2="1375.06" style="stroke:#009af9; stroke-width:4; stroke-opacity:1"/>
<line clip-path="url(#clip752)" x1="2078.29" y1="1351.06" x2="2102.29" y2="1375.06" style="stroke:#009af9; stroke-width:4; stroke-opacity:1"/>
<line clip-path="url(#clip752)" x1="2078.29" y1="1351.06" x2="2102.29" y2="1327.06" style="stroke:#009af9; stroke-width:4; stroke-opacity:1"/>
<line clip-path="url(#clip752)" x1="2294.41" y1="1357.26" x2="2270.41" y2="1333.26" style="stroke:#009af9; stroke-width:4; stroke-opacity:1"/>
<line clip-path="url(#clip752)" x1="2294.41" y1="1357.26" x2="2270.41" y2="1381.26" style="stroke:#009af9; stroke-width:4; stroke-opacity:1"/>
<line clip-path="url(#clip752)" x1="2294.41" y1="1357.26" x2="2318.41" y2="1381.26" style="stroke:#009af9; stroke-width:4; stroke-opacity:1"/>
<line clip-path="url(#clip752)" x1="2294.41" y1="1357.26" x2="2318.41" y2="1333.26" style="stroke:#009af9; stroke-width:4; stroke-opacity:1"/>
<polyline clip-path="url(#clip752)" style="stroke:#e26f46; stroke-linecap:round; stroke-linejoin:round; stroke-width:4; stroke-opacity:1; fill:none" points="349.396,88.6813 565.508,1085.36 781.62,1196.1 997.733,1251.47 1213.84,1297.61 1429.96,1334.52 1646.07,1366.82 1862.18,1385.28 2078.29,1399.12 2294.41,1403.74 "/>
<circle clip-path="url(#clip752)" cx="349.396" cy="88.6813" r="14.4" fill="#e26f46" fill-rule="evenodd" fill-opacity="1" stroke="#000000" stroke-opacity="1" stroke-width="3.2"/>
<circle clip-path="url(#clip752)" cx="565.508" cy="1085.36" r="14.4" fill="#e26f46" fill-rule="evenodd" fill-opacity="1" stroke="#000000" stroke-opacity="1" stroke-width="3.2"/>
<circle clip-path="url(#clip752)" cx="781.62" cy="1196.1" r="14.4" fill="#e26f46" fill-rule="evenodd" fill-opacity="1" stroke="#000000" stroke-opacity="1" stroke-width="3.2"/>
<circle clip-path="url(#clip752)" cx="997.733" cy="1251.47" r="14.4" fill="#e26f46" fill-rule="evenodd" fill-opacity="1" stroke="#000000" stroke-opacity="1" stroke-width="3.2"/>
<circle clip-path="url(#clip752)" cx="1213.84" cy="1297.61" r="14.4" fill="#e26f46" fill-rule="evenodd" fill-opacity="1" stroke="#000000" stroke-opacity="1" stroke-width="3.2"/>
<circle clip-path="url(#clip752)" cx="1429.96" cy="1334.52" r="14.4" fill="#e26f46" fill-rule="evenodd" fill-opacity="1" stroke="#000000" stroke-opacity="1" stroke-width="3.2"/>
<circle clip-path="url(#clip752)" cx="1646.07" cy="1366.82" r="14.4" fill="#e26f46" fill-rule="evenodd" fill-opacity="1" stroke="#000000" stroke-opacity="1" stroke-width="3.2"/>
<circle clip-path="url(#clip752)" cx="1862.18" cy="1385.28" r="14.4" fill="#e26f46" fill-rule="evenodd" fill-opacity="1" stroke="#000000" stroke-opacity="1" stroke-width="3.2"/>
<circle clip-path="url(#clip752)" cx="2078.29" cy="1399.12" r="14.4" fill="#e26f46" fill-rule="evenodd" fill-opacity="1" stroke="#000000" stroke-opacity="1" stroke-width="3.2"/>
<circle clip-path="url(#clip752)" cx="2294.41" cy="1403.74" r="14.4" fill="#e26f46" fill-rule="evenodd" fill-opacity="1" stroke="#000000" stroke-opacity="1" stroke-width="3.2"/>
<path clip-path="url(#clip750)" d="M1686.57 443.698 L2284.03 443.698 L2284.03 93.7776 L1686.57 93.7776  Z" fill="#ffffff" fill-rule="evenodd" fill-opacity="1"/>
<polyline clip-path="url(#clip750)" style="stroke:#000000; stroke-linecap:round; stroke-linejoin:round; stroke-width:4; stroke-opacity:1; fill:none" points="1686.57,443.698 2284.03,443.698 2284.03,93.7776 1686.57,93.7776 1686.57,443.698 "/>
<polyline clip-path="url(#clip750)" style="stroke:#009af9; stroke-linecap:round; stroke-linejoin:round; stroke-width:9; stroke-opacity:1; fill:none" points="1709.48,210.418 1846.92,210.418 "/>
<line clip-path="url(#clip750)" x1="1778.2" y1="210.418" x2="1768.77" y2="200.99" style="stroke:#009af9; stroke-width:9; stroke-opacity:1"/>
<line clip-path="url(#clip750)" x1="1778.2" y1="210.418" x2="1768.77" y2="219.845" style="stroke:#009af9; stroke-width:9; stroke-opacity:1"/>
<line clip-path="url(#clip750)" x1="1778.2" y1="210.418" x2="1787.63" y2="219.845" style="stroke:#009af9; stroke-width:9; stroke-opacity:1"/>
<line clip-path="url(#clip750)" x1="1778.2" y1="210.418" x2="1787.63" y2="200.99" style="stroke:#009af9; stroke-width:9; stroke-opacity:1"/>
<path clip-path="url(#clip750)" d="M1869.83 221.132 Q1869.83 205.485 1878.53 197.953 Q1885.8 191.694 1896.25 191.694 Q1907.86 191.694 1915.24 199.332 Q1922.61 206.917 1922.61 220.336 Q1922.61 231.21 1919.32 237.469 Q1916.08 243.675 1909.83 247.123 Q1903.62 250.571 1896.25 250.571 Q1884.42 250.571 1877.1 242.986 Q1869.83 235.4 1869.83 221.132 M1879.64 221.132 Q1879.64 231.953 1884.36 237.363 Q1889.09 242.72 1896.25 242.72 Q1903.35 242.72 1908.07 237.31 Q1912.8 231.9 1912.8 220.814 Q1912.8 210.365 1908.02 205.007 Q1903.3 199.597 1896.25 199.597 Q1889.09 199.597 1884.36 204.954 Q1879.64 210.311 1879.64 221.132 Z" fill="#000000" fill-rule="nonzero" fill-opacity="1" /><path clip-path="url(#clip750)" d="M1970.35 249.298 L1970.35 242.19 Q1964.99 250.571 1954.59 250.571 Q1947.86 250.571 1942.18 246.858 Q1936.56 243.145 1933.43 236.514 Q1930.35 229.831 1930.35 221.185 Q1930.35 212.751 1933.16 205.909 Q1935.98 199.013 1941.6 195.354 Q1947.22 191.694 1954.17 191.694 Q1959.26 191.694 1963.24 193.868 Q1967.22 195.99 1969.71 199.438 L1969.71 171.538 L1979.2 171.538 L1979.2 249.298 L1970.35 249.298 M1940.17 221.185 Q1940.17 232.006 1944.73 237.363 Q1949.29 242.72 1955.49 242.72 Q1961.75 242.72 1966.1 237.628 Q1970.51 232.483 1970.51 221.981 Q1970.51 210.418 1966.05 205.007 Q1961.59 199.597 1955.07 199.597 Q1948.71 199.597 1944.41 204.795 Q1940.17 209.993 1940.17 221.185 Z" fill="#000000" fill-rule="nonzero" fill-opacity="1" /><path clip-path="url(#clip750)" d="M2032.78 231.157 L2042.64 232.377 Q2040.31 241.023 2034 245.797 Q2027.69 250.571 2017.87 250.571 Q2005.51 250.571 1998.25 242.986 Q1991.03 235.347 1991.03 221.609 Q1991.03 207.394 1998.35 199.544 Q2005.67 191.694 2017.34 191.694 Q2028.64 191.694 2035.8 199.385 Q2042.96 207.076 2042.96 221.026 Q2042.96 221.875 2042.91 223.572 L2000.9 223.572 Q2001.43 232.854 2006.15 237.787 Q2010.87 242.72 2017.93 242.72 Q2023.18 242.72 2026.89 239.962 Q2030.6 237.204 2032.78 231.157 M2001.43 215.722 L2032.88 215.722 Q2032.25 208.614 2029.28 205.06 Q2024.71 199.544 2017.45 199.544 Q2010.87 199.544 2006.36 203.946 Q2001.91 208.349 2001.43 215.722 Z" fill="#000000" fill-rule="nonzero" fill-opacity="1" /><path clip-path="url(#clip750)" d="M2045.83 270.886 L2045.83 263.99 L2109.11 263.99 L2109.11 270.886 L2045.83 270.886 Z" fill="#000000" fill-rule="nonzero" fill-opacity="1" /><path clip-path="url(#clip750)" d="M2115.05 270.886 L2115.05 192.967 L2123.74 192.967 L2123.74 200.286 Q2126.82 195.99 2130.69 193.868 Q2134.57 191.694 2140.08 191.694 Q2147.3 191.694 2152.81 195.407 Q2158.33 199.12 2161.14 205.909 Q2163.95 212.645 2163.95 220.708 Q2163.95 229.354 2160.82 236.302 Q2157.74 243.198 2151.8 246.911 Q2145.92 250.571 2139.39 250.571 Q2134.62 250.571 2130.8 248.555 Q2127.03 246.539 2124.59 243.463 L2124.59 270.886 L2115.05 270.886 M2123.69 221.45 Q2123.69 232.324 2128.09 237.522 Q2132.5 242.72 2138.76 242.72 Q2145.12 242.72 2149.63 237.363 Q2154.19 231.953 2154.19 220.655 Q2154.19 209.887 2149.74 204.53 Q2145.33 199.173 2139.18 199.173 Q2133.08 199.173 2128.36 204.901 Q2123.69 210.577 2123.69 221.45 Z" fill="#000000" fill-rule="nonzero" fill-opacity="1" /><path clip-path="url(#clip750)" d="M2208.77 249.298 L2199.22 249.298 L2199.22 188.458 Q2195.78 191.747 2190.15 195.035 Q2184.58 198.324 2180.13 199.968 L2180.13 190.739 Q2188.14 186.973 2194.13 181.616 Q2200.13 176.258 2202.62 171.219 L2208.77 171.219 L2208.77 249.298 Z" fill="#000000" fill-rule="nonzero" fill-opacity="1" /><path clip-path="url(#clip750)" d="M2261.12 249.298 L2251.58 249.298 L2251.58 188.458 Q2248.13 191.747 2242.51 195.035 Q2236.94 198.324 2232.48 199.968 L2232.48 190.739 Q2240.49 186.973 2246.48 181.616 Q2252.48 176.258 2254.97 171.219 L2261.12 171.219 L2261.12 249.298 Z" fill="#000000" fill-rule="nonzero" fill-opacity="1" /><polyline clip-path="url(#clip750)" style="stroke:#e26f46; stroke-linecap:round; stroke-linejoin:round; stroke-width:9; stroke-opacity:1; fill:none" points="1709.48,327.058 1846.92,327.058 "/>
<circle clip-path="url(#clip750)" cx="1778.2" cy="327.058" r="8.4844" fill="#e26f46" fill-rule="evenodd" fill-opacity="1" stroke="#000000" stroke-opacity="1" stroke-width="7.54169"/>
<path clip-path="url(#clip750)" d="M1909.51 345.304 L1918.9 346.524 Q1917.36 356.231 1910.99 361.747 Q1904.68 367.211 1895.45 367.211 Q1883.89 367.211 1876.83 359.679 Q1869.83 352.094 1869.83 337.984 Q1869.83 328.861 1872.85 322.019 Q1875.88 315.176 1882.03 311.781 Q1888.24 308.334 1895.5 308.334 Q1904.68 308.334 1910.51 313.001 Q1916.35 317.616 1917.99 326.156 L1908.71 327.588 Q1907.39 321.912 1903.99 319.048 Q1900.65 316.184 1895.88 316.184 Q1888.66 316.184 1884.15 321.382 Q1879.64 326.527 1879.64 337.719 Q1879.64 349.07 1883.99 354.215 Q1888.34 359.36 1895.34 359.36 Q1900.97 359.36 1904.73 355.913 Q1908.5 352.465 1909.51 345.304 Z" fill="#000000" fill-rule="nonzero" fill-opacity="1" /><path clip-path="url(#clip750)" d="M1926.96 365.938 L1926.96 309.607 L1935.55 309.607 L1935.55 318.146 Q1938.84 312.153 1941.6 310.243 Q1944.41 308.334 1947.75 308.334 Q1952.58 308.334 1957.56 311.41 L1954.27 320.268 Q1950.77 318.199 1947.27 318.199 Q1944.14 318.199 1941.65 320.109 Q1939.16 321.965 1938.1 325.307 Q1936.51 330.399 1936.51 336.446 L1936.51 365.938 L1926.96 365.938 Z" fill="#000000" fill-rule="nonzero" fill-opacity="1" /><path clip-path="url(#clip750)" d="M1963.24 365.938 L1963.24 309.607 L1971.83 309.607 L1971.83 317.616 Q1978.04 308.334 1989.76 308.334 Q1994.85 308.334 1999.1 310.19 Q2003.39 311.994 2005.51 314.964 Q2007.64 317.934 2008.48 322.019 Q2009.01 324.671 2009.01 331.301 L2009.01 365.938 L1999.47 365.938 L1999.47 331.672 Q1999.47 325.838 1998.35 322.973 Q1997.24 320.056 1994.37 318.359 Q1991.56 316.608 1987.74 316.608 Q1981.64 316.608 1977.19 320.48 Q1972.79 324.352 1972.79 335.173 L1972.79 365.938 L1963.24 365.938 Z" fill="#000000" fill-rule="nonzero" fill-opacity="1" /><path clip-path="url(#clip750)" d="M2014.85 387.526 L2014.85 380.63 L2078.13 380.63 L2078.13 387.526 L2014.85 387.526 Z" fill="#000000" fill-rule="nonzero" fill-opacity="1" /><path clip-path="url(#clip750)" d="M2085.29 365.938 L2085.29 288.178 L2114.62 288.178 Q2122.37 288.178 2126.45 288.92 Q2132.18 289.875 2136.05 292.58 Q2139.92 295.232 2142.26 300.059 Q2144.64 304.886 2144.64 310.667 Q2144.64 320.586 2138.33 327.482 Q2132.02 334.324 2115.52 334.324 L2095.58 334.324 L2095.58 365.938 L2085.29 365.938 M2095.58 325.148 L2115.68 325.148 Q2125.65 325.148 2129.84 321.435 Q2134.04 317.722 2134.04 310.986 Q2134.04 306.106 2131.54 302.658 Q2129.1 299.157 2125.07 298.043 Q2122.47 297.354 2115.47 297.354 L2095.58 297.354 L2095.58 325.148 Z" fill="#000000" fill-rule="nonzero" fill-opacity="1" /><path clip-path="url(#clip750)" d="M2189.84 365.938 L2180.29 365.938 L2180.29 305.098 Q2176.84 308.387 2171.22 311.675 Q2165.65 314.964 2161.19 316.608 L2161.19 307.379 Q2169.2 303.613 2175.2 298.256 Q2181.19 292.898 2183.68 287.859 L2189.84 287.859 L2189.84 365.938 Z" fill="#000000" fill-rule="nonzero" fill-opacity="1" /><path clip-path="url(#clip750)" d="M2242.19 365.938 L2232.64 365.938 L2232.64 305.098 Q2229.19 308.387 2223.57 311.675 Q2218 314.964 2213.55 316.608 L2213.55 307.379 Q2221.55 303.613 2227.55 298.256 Q2233.54 292.898 2236.04 287.859 L2242.19 287.859 L2242.19 365.938 Z" fill="#000000" fill-rule="nonzero" fill-opacity="1" /></svg>
