<?xml version="1.0" encoding="utf-8"?>
<svg xmlns="http://www.w3.org/2000/svg" xmlns:xlink="http://www.w3.org/1999/xlink" width="600" height="400" viewBox="0 0 2400 1600">
<defs>
  <clipPath id="clip160">
    <rect x="0" y="0" width="2400" height="1600"/>
  </clipPath>
</defs>
<path clip-path="url(#clip160)" d="M0 1600 L2400 1600 L2400 8.88178e-14 L0 8.88178e-14  Z" fill="#ffffff" fill-rule="evenodd" fill-opacity="1"/>
<defs>
  <clipPath id="clip161">
    <rect x="480" y="0" width="1681" height="1600"/>
  </clipPath>
</defs>
<path clip-path="url(#clip160)" d="M351.461 1443.25 L2352.76 1443.25 L2352.76 47.2441 L351.461 47.2441  Z" fill="#ffffff" fill-rule="evenodd" fill-opacity="1"/>
<defs>
  <clipPath id="clip162">
    <rect x="351" y="47" width="2002" height="1397"/>
  </clipPath>
</defs>
<polyline clip-path="url(#clip162)" style="stroke:#000000; stroke-linecap:round; stroke-linejoin:round; stroke-width:2; stroke-opacity:0.1; fill:none" points="617.881,1443.25 617.881,47.2441 "/>
<polyline clip-path="url(#clip162)" style="stroke:#000000; stroke-linecap:round; stroke-linejoin:round; stroke-width:2; stroke-opacity:0.1; fill:none" points="1037.44,1443.25 1037.44,47.2441 "/>
<polyline clip-path="url(#clip162)" style="stroke:#000000; stroke-linecap:round; stroke-linejoin:round; stroke-width:2; stroke-opacity:0.1; fill:none" points="1457,1443.25 1457,47.2441 "/>
<polyline clip-path="url(#clip162)" style="stroke:#000000; stroke-linecap:round; stroke-linejoin:round; stroke-width:2; stroke-opacity:0.1; fill:none" points="1876.56,1443.25 1876.56,47.2441 "/>
<polyline clip-path="url(#clip162)" style="stroke:#000000; stroke-linecap:round; stroke-linejoin:round; stroke-width:2; stroke-opacity:0.1; fill:none" points="2296.12,1443.25 2296.12,47.2441 "/>
<polyline clip-path="url(#clip160)" style="stroke:#000000; stroke-linecap:round; stroke-linejoin:round; stroke-width:4; stroke-opacity:1; fill:none" points="351.461,1443.25 2352.76,1443.25 "/>
<polyline clip-path="url(#clip160)" style="stroke:#000000; stroke-linecap:round; stroke-linejoin:round; stroke-width:4; stroke-opacity:1; fill:none" points="617.881,1443.25 617.881,1424.35 "/>
<polyline clip-path="url(#clip160)" style="stroke:#000000; stroke-linecap:round; stroke-linejoin:round; stroke-width:4; stroke-opacity:1; fill:none" points="1037.44,1443.25 1037.44,1424.35 "/>
<polyline clip-path="url(#clip160)" style="stroke:#000000; stroke-linecap:round; stroke-linejoin:round; stroke-width:4; stroke-opacity:1; fill:none" points="1457,1443.25 1457,1424.35 "/>
<polyline clip-path="url(#clip160)" style="stroke:#000000; stroke-linecap:round; stroke-linejoin:round; stroke-width:4; stroke-opacity:1; fill:none" points="1876.56,1443.25 1876.56,1424.35 "/>
<polyline clip-path="url(#clip160)" style="stroke:#000000; stroke-linecap:round; stroke-linejoin:round; stroke-width:4; stroke-opacity:1; fill:none" points="2296.12,1443.25 2296.12,1424.35 "/>
<path clip-path="url(#clip160)" d="M643.633 1550.47 L643.633 1559.65 L592.235 1559.65 Q592.129 1556.2 593.349 1553.02 Q595.311 1547.77 599.608 1542.67 Q603.957 1537.58 612.126 1530.9 Q624.803 1520.5 629.258 1514.46 Q633.714 1508.36 633.714 1502.95 Q633.714 1497.27 629.63 1493.4 Q625.598 1489.47 619.074 1489.47 Q612.179 1489.47 608.041 1493.61 Q603.904 1497.75 603.851 1505.07 L594.038 1504.06 Q595.046 1493.08 601.623 1487.35 Q608.201 1481.57 619.286 1481.57 Q630.478 1481.57 637.003 1487.78 Q643.527 1493.98 643.527 1503.16 Q643.527 1507.83 641.617 1512.33 Q639.708 1516.84 635.252 1521.83 Q630.85 1526.81 620.559 1535.51 Q611.967 1542.73 609.527 1545.33 Q607.087 1547.87 605.495 1550.47 L643.633 1550.47 Z" fill="#000000" fill-rule="nonzero" fill-opacity="1" /><path clip-path="url(#clip160)" d="M1044.28 1559.65 L1044.28 1541.03 L1010.55 1541.03 L1010.55 1532.28 L1046.03 1481.89 L1053.83 1481.89 L1053.83 1532.28 L1064.33 1532.28 L1064.33 1541.03 L1053.83 1541.03 L1053.83 1559.65 L1044.28 1559.65 M1044.28 1532.28 L1044.28 1497.22 L1019.94 1532.28 L1044.28 1532.28 Z" fill="#000000" fill-rule="nonzero" fill-opacity="1" /><path clip-path="url(#clip160)" d="M1481.29 1500.93 L1471.8 1501.67 Q1470.52 1496.05 1468.19 1493.5 Q1464.32 1489.42 1458.64 1489.42 Q1454.08 1489.42 1450.63 1491.97 Q1446.12 1495.25 1443.53 1501.57 Q1440.93 1507.88 1440.82 1519.55 Q1444.27 1514.3 1449.25 1511.75 Q1454.24 1509.2 1459.7 1509.2 Q1469.25 1509.2 1475.93 1516.26 Q1482.67 1523.26 1482.67 1534.4 Q1482.67 1541.72 1479.49 1548.03 Q1476.36 1554.29 1470.84 1557.63 Q1465.33 1560.97 1458.32 1560.97 Q1446.39 1560.97 1438.86 1552.22 Q1431.33 1543.42 1431.33 1523.26 Q1431.33 1500.72 1439.65 1490.48 Q1446.92 1481.57 1459.23 1481.57 Q1468.4 1481.57 1474.24 1486.71 Q1480.12 1491.86 1481.29 1500.93 M1442.31 1534.45 Q1442.31 1539.39 1444.37 1543.89 Q1446.5 1548.4 1450.26 1550.79 Q1454.03 1553.12 1458.17 1553.12 Q1464.21 1553.12 1468.56 1548.24 Q1472.91 1543.36 1472.91 1534.98 Q1472.91 1526.92 1468.61 1522.31 Q1464.32 1517.64 1457.79 1517.64 Q1451.32 1517.64 1446.81 1522.31 Q1442.31 1526.92 1442.31 1534.45 Z" fill="#000000" fill-rule="nonzero" fill-opacity="1" /><path clip-path="url(#clip160)" d="M1865.74 1517.48 Q1859.8 1515.3 1856.93 1511.27 Q1854.07 1507.24 1854.07 1501.62 Q1854.07 1493.13 1860.17 1487.35 Q1866.27 1481.57 1876.4 1481.57 Q1886.58 1481.57 1892.79 1487.51 Q1898.99 1493.4 1898.99 1501.88 Q1898.99 1507.3 1896.13 1511.33 Q1893.32 1515.3 1887.54 1517.48 Q1894.7 1519.81 1898.41 1525.01 Q1902.18 1530.21 1902.18 1537.42 Q1902.18 1547.4 1895.12 1554.18 Q1888.07 1560.97 1876.56 1560.97 Q1865.05 1560.97 1857.99 1554.18 Q1850.94 1547.34 1850.94 1537.16 Q1850.94 1529.57 1854.76 1524.48 Q1858.63 1519.34 1865.74 1517.48 M1863.83 1501.3 Q1863.83 1506.82 1867.38 1510.32 Q1870.93 1513.82 1876.61 1513.82 Q1882.13 1513.82 1885.63 1510.37 Q1889.18 1506.87 1889.18 1501.83 Q1889.18 1496.58 1885.52 1493.03 Q1881.91 1489.42 1876.5 1489.42 Q1871.04 1489.42 1867.43 1492.92 Q1863.83 1496.42 1863.83 1501.3 M1860.75 1537.21 Q1860.75 1541.3 1862.66 1545.11 Q1864.62 1548.93 1868.44 1551.06 Q1872.26 1553.12 1876.66 1553.12 Q1883.51 1553.12 1887.96 1548.72 Q1892.42 1544.32 1892.42 1537.53 Q1892.42 1530.63 1887.8 1526.13 Q1883.24 1521.62 1876.34 1521.62 Q1869.61 1521.62 1865.15 1526.07 Q1860.75 1530.53 1860.75 1537.21 Z" fill="#000000" fill-rule="nonzero" fill-opacity="1" /><path clip-path="url(#clip160)" d="M2272.86 1559.65 L2263.31 1559.65 L2263.31 1498.81 Q2259.86 1502.1 2254.24 1505.39 Q2248.67 1508.67 2244.21 1510.32 L2244.21 1501.09 Q2252.22 1497.32 2258.22 1491.97 Q2264.21 1486.61 2266.7 1481.57 L2272.86 1481.57 L2272.86 1559.65 Z" fill="#000000" fill-rule="nonzero" fill-opacity="1" /><path clip-path="url(#clip160)" d="M2297.31 1521.3 Q2297.31 1507.51 2300.12 1499.13 Q2302.98 1490.69 2308.55 1486.13 Q2314.18 1481.57 2322.66 1481.57 Q2328.92 1481.57 2333.64 1484.12 Q2338.36 1486.61 2341.44 1491.38 Q2344.52 1496.1 2346.27 1502.95 Q2348.02 1509.74 2348.02 1521.3 Q2348.02 1534.98 2345.21 1543.42 Q2342.39 1551.8 2336.77 1556.41 Q2331.2 1560.97 2322.66 1560.97 Q2311.42 1560.97 2305 1552.91 Q2297.31 1543.2 2297.31 1521.3 M2307.12 1521.3 Q2307.12 1540.45 2311.58 1546.81 Q2316.09 1553.12 2322.66 1553.12 Q2329.24 1553.12 2333.7 1546.76 Q2338.2 1540.39 2338.2 1521.3 Q2338.2 1502.1 2333.7 1495.78 Q2329.24 1489.47 2322.56 1489.47 Q2315.98 1489.47 2312.05 1495.04 Q2307.12 1502.15 2307.12 1521.3 Z" fill="#000000" fill-rule="nonzero" fill-opacity="1" /><polyline clip-path="url(#clip162)" style="stroke:#000000; stroke-linecap:round; stroke-linejoin:round; stroke-width:2; stroke-opacity:0.1; fill:none" points="351.461,1281.66 2352.76,1281.66 "/>
<polyline clip-path="url(#clip162)" style="stroke:#000000; stroke-linecap:round; stroke-linejoin:round; stroke-width:2; stroke-opacity:0.1; fill:none" points="351.461,942.567 2352.76,942.567 "/>
<polyline clip-path="url(#clip162)" style="stroke:#000000; stroke-linecap:round; stroke-linejoin:round; stroke-width:2; stroke-opacity:0.1; fill:none" points="351.461,603.47 2352.76,603.47 "/>
<polyline clip-path="url(#clip162)" style="stroke:#000000; stroke-linecap:round; stroke-linejoin:round; stroke-width:2; stroke-opacity:0.1; fill:none" points="351.461,264.373 2352.76,264.373 "/>
<polyline clip-path="url(#clip160)" style="stroke:#000000; stroke-linecap:round; stroke-linejoin:round; stroke-width:4; stroke-opacity:1; fill:none" points="351.461,1443.25 351.461,47.2441 "/>
<polyline clip-path="url(#clip160)" style="stroke:#000000; stroke-linecap:round; stroke-linejoin:round; stroke-width:4; stroke-opacity:1; fill:none" points="351.461,1281.66 370.359,1281.66 "/>
<polyline clip-path="url(#clip160)" style="stroke:#000000; stroke-linecap:round; stroke-linejoin:round; stroke-width:4; stroke-opacity:1; fill:none" points="351.461,942.567 370.359,942.567 "/>
<polyline clip-path="url(#clip160)" style="stroke:#000000; stroke-linecap:round; stroke-linejoin:round; stroke-width:4; stroke-opacity:1; fill:none" points="351.461,603.47 370.359,603.47 "/>
<polyline clip-path="url(#clip160)" style="stroke:#000000; stroke-linecap:round; stroke-linejoin:round; stroke-width:4; stroke-opacity:1; fill:none" points="351.461,264.373 370.359,264.373 "/>
<path clip-path="url(#clip160)" d="M103.186 1286.65 L51.8408 1286.65 L51.8408 1277.74 L103.186 1277.74 L103.186 1286.65 Z" fill="#000000" fill-rule="nonzero" fill-opacity="1" /><path clip-path="url(#clip160)" d="M113.741 1282.19 Q113.741 1268.4 116.552 1260.02 Q119.417 1251.59 124.986 1247.03 Q130.609 1242.47 139.095 1242.47 Q145.354 1242.47 150.075 1245.01 Q154.796 1247.5 157.872 1252.28 Q160.949 1257 162.699 1263.84 Q164.45 1270.63 164.45 1282.19 Q164.45 1295.88 161.638 1304.31 Q158.827 1312.69 153.205 1317.31 Q147.635 1321.87 139.095 1321.87 Q127.85 1321.87 121.432 1313.81 Q113.741 1304.1 113.741 1282.19 M123.554 1282.19 Q123.554 1301.34 128.01 1307.71 Q132.518 1314.02 139.095 1314.02 Q145.673 1314.02 150.128 1307.65 Q154.637 1301.29 154.637 1282.19 Q154.637 1262.99 150.128 1256.68 Q145.673 1250.37 138.989 1250.37 Q132.412 1250.37 128.487 1255.94 Q123.554 1263.05 123.554 1282.19 Z" fill="#000000" fill-rule="nonzero" fill-opacity="1" /><path clip-path="url(#clip160)" d="M179.514 1320.54 L179.514 1309.67 L190.387 1309.67 L190.387 1320.54 L179.514 1320.54 Z" fill="#000000" fill-rule="nonzero" fill-opacity="1" /><path clip-path="url(#clip160)" d="M204.337 1300.18 L214.362 1299.33 Q215.476 1306.65 219.507 1310.36 Q223.592 1314.02 229.32 1314.02 Q236.216 1314.02 240.99 1308.82 Q245.763 1303.62 245.763 1295.03 Q245.763 1286.86 241.149 1282.14 Q236.587 1277.42 229.161 1277.42 Q224.547 1277.42 220.834 1279.54 Q217.121 1281.61 214.999 1284.95 L206.035 1283.79 L213.567 1243.84 L252.235 1243.84 L252.235 1252.97 L221.205 1252.97 L217.014 1273.87 Q224.016 1268.99 231.707 1268.99 Q241.891 1268.99 248.893 1276.04 Q255.894 1283.1 255.894 1294.18 Q255.894 1304.74 249.742 1312.43 Q242.263 1321.87 229.32 1321.87 Q218.712 1321.87 211.975 1315.93 Q205.292 1309.99 204.337 1300.18 Z" fill="#000000" fill-rule="nonzero" fill-opacity="1" /><path clip-path="url(#clip160)" d="M264.753 1282.19 Q264.753 1268.4 267.564 1260.02 Q270.428 1251.59 275.998 1247.03 Q281.62 1242.47 290.107 1242.47 Q296.366 1242.47 301.087 1245.01 Q305.807 1247.5 308.884 1252.28 Q311.96 1257 313.711 1263.84 Q315.461 1270.63 315.461 1282.19 Q315.461 1295.88 312.65 1304.31 Q309.839 1312.69 304.216 1317.31 Q298.647 1321.87 290.107 1321.87 Q278.862 1321.87 272.444 1313.81 Q264.753 1304.1 264.753 1282.19 M274.565 1282.19 Q274.565 1301.34 279.021 1307.71 Q283.53 1314.02 290.107 1314.02 Q296.684 1314.02 301.14 1307.65 Q305.648 1301.29 305.648 1282.19 Q305.648 1262.99 301.14 1256.68 Q296.684 1250.37 290.001 1250.37 Q283.423 1250.37 279.498 1255.94 Q274.565 1263.05 274.565 1282.19 Z" fill="#000000" fill-rule="nonzero" fill-opacity="1" /><path clip-path="url(#clip160)" d="M102.337 947.553 L50.9921 947.553 L50.9921 938.642 L102.337 938.642 L102.337 947.553 Z" fill="#000000" fill-rule="nonzero" fill-opacity="1" /><path clip-path="url(#clip160)" d="M112.892 943.097 Q112.892 929.306 115.704 920.925 Q118.568 912.492 124.137 907.93 Q129.76 903.368 138.247 903.368 Q144.506 903.368 149.226 905.914 Q153.947 908.407 157.024 913.181 Q160.1 917.902 161.851 924.745 Q163.601 931.534 163.601 943.097 Q163.601 956.782 160.79 965.216 Q157.978 973.596 152.356 978.211 Q146.787 982.773 138.247 982.773 Q127.002 982.773 120.584 974.71 Q112.892 965.004 112.892 943.097 M122.705 943.097 Q122.705 962.245 127.161 968.61 Q131.669 974.923 138.247 974.923 Q144.824 974.923 149.279 968.557 Q153.788 962.192 153.788 943.097 Q153.788 923.896 149.279 917.584 Q144.824 911.272 138.141 911.272 Q131.563 911.272 127.638 916.841 Q122.705 923.949 122.705 943.097 Z" fill="#000000" fill-rule="nonzero" fill-opacity="1" /><path clip-path="url(#clip160)" d="M178.665 981.447 L178.665 970.573 L189.539 970.573 L189.539 981.447 L178.665 981.447 Z" fill="#000000" fill-rule="nonzero" fill-opacity="1" /><path clip-path="url(#clip160)" d="M253.667 972.27 L253.667 981.447 L202.269 981.447 Q202.163 977.999 203.383 974.816 Q205.345 969.565 209.642 964.473 Q213.991 959.381 222.16 952.698 Q234.837 942.302 239.292 936.255 Q243.748 930.155 243.748 924.745 Q243.748 919.069 239.664 915.197 Q235.632 911.272 229.108 911.272 Q222.213 911.272 218.075 915.409 Q213.938 919.546 213.885 926.866 L204.072 925.858 Q205.08 914.879 211.657 909.15 Q218.234 903.368 229.32 903.368 Q240.512 903.368 247.036 909.574 Q253.561 915.78 253.561 924.957 Q253.561 929.624 251.651 934.133 Q249.742 938.642 245.286 943.628 Q240.884 948.614 230.593 957.312 Q222 964.526 219.561 967.125 Q217.121 969.671 215.529 972.27 L253.667 972.27 Z" fill="#000000" fill-rule="nonzero" fill-opacity="1" /><path clip-path="url(#clip160)" d="M263.904 961.078 L273.929 960.23 Q275.043 967.55 279.074 971.263 Q283.158 974.923 288.887 974.923 Q295.782 974.923 300.556 969.724 Q305.33 964.526 305.33 955.933 Q305.33 947.765 300.715 943.044 Q296.154 938.323 288.728 938.323 Q284.113 938.323 280.4 940.445 Q276.687 942.514 274.565 945.855 L265.601 944.688 L273.133 904.748 L311.801 904.748 L311.801 913.871 L280.771 913.871 L276.581 934.769 Q283.583 929.89 291.274 929.89 Q301.458 929.89 308.459 936.944 Q315.461 943.999 315.461 955.085 Q315.461 965.64 309.308 973.331 Q301.829 982.773 288.887 982.773 Q278.278 982.773 271.542 976.832 Q264.859 970.891 263.904 961.078 Z" fill="#000000" fill-rule="nonzero" fill-opacity="1" /><path clip-path="url(#clip160)" d="M113.741 604 Q113.741 590.209 116.552 581.829 Q119.417 573.395 124.986 568.833 Q130.609 564.272 139.095 564.272 Q145.354 564.272 150.075 566.818 Q154.796 569.311 157.872 574.085 Q160.949 578.805 162.699 585.648 Q164.45 592.437 164.45 604 Q164.45 617.685 161.638 626.119 Q158.827 634.5 153.205 639.114 Q147.635 643.676 139.095 643.676 Q127.85 643.676 121.432 635.614 Q113.741 625.907 113.741 604 M123.554 604 Q123.554 623.149 128.01 629.514 Q132.518 635.826 139.095 635.826 Q145.673 635.826 150.128 629.461 Q154.637 623.096 154.637 604 Q154.637 584.799 150.128 578.487 Q145.673 572.175 138.989 572.175 Q132.412 572.175 128.487 577.744 Q123.554 584.852 123.554 604 Z" fill="#000000" fill-rule="nonzero" fill-opacity="1" /><path clip-path="url(#clip160)" d="M179.514 642.35 L179.514 631.476 L190.387 631.476 L190.387 642.35 L179.514 642.35 Z" fill="#000000" fill-rule="nonzero" fill-opacity="1" /><path clip-path="url(#clip160)" d="M204.337 604 Q204.337 590.209 207.149 581.829 Q210.013 573.395 215.582 568.833 Q221.205 564.272 229.692 564.272 Q235.951 564.272 240.671 566.818 Q245.392 569.311 248.469 574.085 Q251.545 578.805 253.295 585.648 Q255.046 592.437 255.046 604 Q255.046 617.685 252.235 626.119 Q249.423 634.5 243.801 639.114 Q238.231 643.676 229.692 643.676 Q218.447 643.676 212.029 635.614 Q204.337 625.907 204.337 604 M214.15 604 Q214.15 623.149 218.606 629.514 Q223.114 635.826 229.692 635.826 Q236.269 635.826 240.724 629.461 Q245.233 623.096 245.233 604 Q245.233 584.799 240.724 578.487 Q236.269 572.175 229.586 572.175 Q223.008 572.175 219.083 577.744 Q214.15 584.852 214.15 604 Z" fill="#000000" fill-rule="nonzero" fill-opacity="1" /><path clip-path="url(#clip160)" d="M264.753 604 Q264.753 590.209 267.564 581.829 Q270.428 573.395 275.998 568.833 Q281.62 564.272 290.107 564.272 Q296.366 564.272 301.087 566.818 Q305.807 569.311 308.884 574.085 Q311.96 578.805 313.711 585.648 Q315.461 592.437 315.461 604 Q315.461 617.685 312.65 626.119 Q309.839 634.5 304.216 639.114 Q298.647 643.676 290.107 643.676 Q278.862 643.676 272.444 635.614 Q264.753 625.907 264.753 604 M274.565 604 Q274.565 623.149 279.021 629.514 Q283.53 635.826 290.107 635.826 Q296.684 635.826 301.14 629.461 Q305.648 623.096 305.648 604 Q305.648 584.799 301.14 578.487 Q296.684 572.175 290.001 572.175 Q283.423 572.175 279.498 577.744 Q274.565 584.852 274.565 604 Z" fill="#000000" fill-rule="nonzero" fill-opacity="1" /><path clip-path="url(#clip160)" d="M112.892 264.904 Q112.892 251.113 115.704 242.732 Q118.568 234.298 124.137 229.737 Q129.76 225.175 138.247 225.175 Q144.506 225.175 149.226 227.721 Q153.947 230.214 157.024 234.988 Q160.1 239.708 161.851 246.551 Q163.601 253.34 163.601 264.904 Q163.601 278.588 160.79 287.022 Q157.978 295.403 152.356 300.018 Q146.787 304.579 138.247 304.579 Q127.002 304.579 120.584 296.517 Q112.892 286.81 112.892 264.904 M122.705 264.904 Q122.705 284.052 127.161 290.417 Q131.669 296.729 138.247 296.729 Q144.824 296.729 149.279 290.364 Q153.788 283.999 153.788 264.904 Q153.788 245.702 149.279 239.39 Q144.824 233.078 138.141 233.078 Q131.563 233.078 127.638 238.648 Q122.705 245.755 122.705 264.904 Z" fill="#000000" fill-rule="nonzero" fill-opacity="1" /><path clip-path="url(#clip160)" d="M178.665 303.253 L178.665 292.379 L189.539 292.379 L189.539 303.253 L178.665 303.253 Z" fill="#000000" fill-rule="nonzero" fill-opacity="1" /><path clip-path="url(#clip160)" d="M253.667 294.077 L253.667 303.253 L202.269 303.253 Q202.163 299.805 203.383 296.623 Q205.345 291.372 209.642 286.28 Q213.991 281.188 222.16 274.504 Q234.837 264.108 239.292 258.061 Q243.748 251.961 243.748 246.551 Q243.748 240.875 239.664 237.003 Q235.632 233.078 229.108 233.078 Q222.213 233.078 218.075 237.216 Q213.938 241.353 213.885 248.673 L204.072 247.665 Q205.08 236.685 211.657 230.957 Q218.234 225.175 229.32 225.175 Q240.512 225.175 247.036 231.381 Q253.561 237.587 253.561 246.763 Q253.561 251.431 251.651 255.939 Q249.742 260.448 245.286 265.434 Q240.884 270.42 230.593 279.119 Q222 286.333 219.561 288.932 Q217.121 291.478 215.529 294.077 L253.667 294.077 Z" fill="#000000" fill-rule="nonzero" fill-opacity="1" /><path clip-path="url(#clip160)" d="M263.904 282.885 L273.929 282.036 Q275.043 289.356 279.074 293.069 Q283.158 296.729 288.887 296.729 Q295.782 296.729 300.556 291.531 Q305.33 286.333 305.33 277.74 Q305.33 269.571 300.715 264.851 Q296.154 260.13 288.728 260.13 Q284.113 260.13 280.4 262.251 Q276.687 264.32 274.565 267.662 L265.601 266.495 L273.133 226.554 L311.801 226.554 L311.801 235.677 L280.771 235.677 L276.581 256.576 Q283.583 251.696 291.274 251.696 Q301.458 251.696 308.459 258.751 Q315.461 265.805 315.461 276.891 Q315.461 287.447 309.308 295.138 Q301.829 304.579 288.887 304.579 Q278.278 304.579 271.542 298.638 Q264.859 292.698 263.904 282.885 Z" fill="#000000" fill-rule="nonzero" fill-opacity="1" /><polyline clip-path="url(#clip162)" style="stroke:#009af9; stroke-linecap:round; stroke-linejoin:round; stroke-width:4; stroke-opacity:1; fill:none" points="408.101,86.7536 617.881,956.292 827.66,1111.29 1037.44,1188.64 1247.22,1237.34 1457,1271.3 1666.78,1296.36 1876.56,1315.54 2086.34,1330.57 2296.12,1342.59 "/>
<line clip-path="url(#clip162)" x1="408.101" y1="86.7536" x2="384.101" y2="62.7536" style="stroke:#009af9; stroke-width:4; stroke-opacity:1"/>
<line clip-path="url(#clip162)" x1="408.101" y1="86.7536" x2="384.101" y2="110.754" style="stroke:#009af9; stroke-width:4; stroke-opacity:1"/>
<line clip-path="url(#clip162)" x1="408.101" y1="86.7536" x2="432.101" y2="110.754" style="stroke:#009af9; stroke-width:4; stroke-opacity:1"/>
<line clip-path="url(#clip162)" x1="408.101" y1="86.7536" x2="432.101" y2="62.7536" style="stroke:#009af9; stroke-width:4; stroke-opacity:1"/>
<line clip-path="url(#clip162)" x1="617.881" y1="956.292" x2="593.881" y2="932.292" style="stroke:#009af9; stroke-width:4; stroke-opacity:1"/>
<line clip-path="url(#clip162)" x1="617.881" y1="956.292" x2="593.881" y2="980.292" style="stroke:#009af9; stroke-width:4; stroke-opacity:1"/>
<line clip-path="url(#clip162)" x1="617.881" y1="956.292" x2="641.881" y2="980.292" style="stroke:#009af9; stroke-width:4; stroke-opacity:1"/>
<line clip-path="url(#clip162)" x1="617.881" y1="956.292" x2="641.881" y2="932.292" style="stroke:#009af9; stroke-width:4; stroke-opacity:1"/>
<line clip-path="url(#clip162)" x1="827.66" y1="1111.29" x2="803.66" y2="1087.29" style="stroke:#009af9; stroke-width:4; stroke-opacity:1"/>
<line clip-path="url(#clip162)" x1="827.66" y1="1111.29" x2="803.66" y2="1135.29" style="stroke:#009af9; stroke-width:4; stroke-opacity:1"/>
<line clip-path="url(#clip162)" x1="827.66" y1="1111.29" x2="851.66" y2="1135.29" style="stroke:#009af9; stroke-width:4; stroke-opacity:1"/>
<line clip-path="url(#clip162)" x1="827.66" y1="1111.29" x2="851.66" y2="1087.29" style="stroke:#009af9; stroke-width:4; stroke-opacity:1"/>
<line clip-path="url(#clip162)" x1="1037.44" y1="1188.64" x2="1013.44" y2="1164.64" style="stroke:#009af9; stroke-width:4; stroke-opacity:1"/>
<line clip-path="url(#clip162)" x1="1037.44" y1="1188.64" x2="1013.44" y2="1212.64" style="stroke:#009af9; stroke-width:4; stroke-opacity:1"/>
<line clip-path="url(#clip162)" x1="1037.44" y1="1188.64" x2="1061.44" y2="1212.64" style="stroke:#009af9; stroke-width:4; stroke-opacity:1"/>
<line clip-path="url(#clip162)" x1="1037.44" y1="1188.64" x2="1061.44" y2="1164.64" style="stroke:#009af9; stroke-width:4; stroke-opacity:1"/>
<line clip-path="url(#clip162)" x1="1247.22" y1="1237.34" x2="1223.22" y2="1213.34" style="stroke:#009af9; stroke-width:4; stroke-opacity:1"/>
<line clip-path="url(#clip162)" x1="1247.22" y1="1237.34" x2="1223.22" y2="1261.34" style="stroke:#009af9; stroke-width:4; stroke-opacity:1"/>
<line clip-path="url(#clip162)" x1="1247.22" y1="1237.34" x2="1271.22" y2="1261.34" style="stroke:#009af9; stroke-width:4; stroke-opacity:1"/>
<line clip-path="url(#clip162)" x1="1247.22" y1="1237.34" x2="1271.22" y2="1213.34" style="stroke:#009af9; stroke-width:4; stroke-opacity:1"/>
<line clip-path="url(#clip162)" x1="1457" y1="1271.3" x2="1433" y2="1247.3" style="stroke:#009af9; stroke-width:4; stroke-opacity:1"/>
<line clip-path="url(#clip162)" x1="1457" y1="1271.3" x2="1433" y2="1295.3" style="stroke:#009af9; stroke-width:4; stroke-opacity:1"/>
<line clip-path="url(#clip162)" x1="1457" y1="1271.3" x2="1481" y2="1295.3" style="stroke:#009af9; stroke-width:4; stroke-opacity:1"/>
<line clip-path="url(#clip162)" x1="1457" y1="1271.3" x2="1481" y2="1247.3" style="stroke:#009af9; stroke-width:4; stroke-opacity:1"/>
<line clip-path="url(#clip162)" x1="1666.78" y1="1296.36" x2="1642.78" y2="1272.36" style="stroke:#009af9; stroke-width:4; stroke-opacity:1"/>
<line clip-path="url(#clip162)" x1="1666.78" y1="1296.36" x2="1642.78" y2="1320.36" style="stroke:#009af9; stroke-width:4; stroke-opacity:1"/>
<line clip-path="url(#clip162)" x1="1666.78" y1="1296.36" x2="1690.78" y2="1320.36" style="stroke:#009af9; stroke-width:4; stroke-opacity:1"/>
<line clip-path="url(#clip162)" x1="1666.78" y1="1296.36" x2="1690.78" y2="1272.36" style="stroke:#009af9; stroke-width:4; stroke-opacity:1"/>
<line clip-path="url(#clip162)" x1="1876.56" y1="1315.54" x2="1852.56" y2="1291.54" style="stroke:#009af9; stroke-width:4; stroke-opacity:1"/>
<line clip-path="url(#clip162)" x1="1876.56" y1="1315.54" x2="1852.56" y2="1339.54" style="stroke:#009af9; stroke-width:4; stroke-opacity:1"/>
<line clip-path="url(#clip162)" x1="1876.56" y1="1315.54" x2="1900.56" y2="1339.54" style="stroke:#009af9; stroke-width:4; stroke-opacity:1"/>
<line clip-path="url(#clip162)" x1="1876.56" y1="1315.54" x2="1900.56" y2="1291.54" style="stroke:#009af9; stroke-width:4; stroke-opacity:1"/>
<line clip-path="url(#clip162)" x1="2086.34" y1="1330.57" x2="2062.34" y2="1306.57" style="stroke:#009af9; stroke-width:4; stroke-opacity:1"/>
<line clip-path="url(#clip162)" x1="2086.34" y1="1330.57" x2="2062.34" y2="1354.57" style="stroke:#009af9; stroke-width:4; stroke-opacity:1"/>
<line clip-path="url(#clip162)" x1="2086.34" y1="1330.57" x2="2110.34" y2="1354.57" style="stroke:#009af9; stroke-width:4; stroke-opacity:1"/>
<line clip-path="url(#clip162)" x1="2086.34" y1="1330.57" x2="2110.34" y2="1306.57" style="stroke:#009af9; stroke-width:4; stroke-opacity:1"/>
<line clip-path="url(#clip162)" x1="2296.12" y1="1342.59" x2="2272.12" y2="1318.59" style="stroke:#009af9; stroke-width:4; stroke-opacity:1"/>
<line clip-path="url(#clip162)" x1="2296.12" y1="1342.59" x2="2272.12" y2="1366.59" style="stroke:#009af9; stroke-width:4; stroke-opacity:1"/>
<line clip-path="url(#clip162)" x1="2296.12" y1="1342.59" x2="2320.12" y2="1366.59" style="stroke:#009af9; stroke-width:4; stroke-opacity:1"/>
<line clip-path="url(#clip162)" x1="2296.12" y1="1342.59" x2="2320.12" y2="1318.59" style="stroke:#009af9; stroke-width:4; stroke-opacity:1"/>
<polyline clip-path="url(#clip162)" style="stroke:#e26f46; stroke-linecap:round; stroke-linejoin:round; stroke-width:4; stroke-opacity:1; fill:none" points="408.101,88.0428 617.881,956.131 827.66,1132.46 1037.44,1213.84 1247.22,1268.1 1457,1295.23 1666.78,1322.36 1876.56,1349.48 2086.34,1376.61 2296.12,1403.74 "/>
<circle clip-path="url(#clip162)" cx="408.101" cy="88.0428" r="14.4" fill="#e26f46" fill-rule="evenodd" fill-opacity="1" stroke="#000000" stroke-opacity="1" stroke-width="3.2"/>
<circle clip-path="url(#clip162)" cx="617.881" cy="956.131" r="14.4" fill="#e26f46" fill-rule="evenodd" fill-opacity="1" stroke="#000000" stroke-opacity="1" stroke-width="3.2"/>
<circle clip-path="url(#clip162)" cx="827.66" cy="1132.46" r="14.4" fill="#e26f46" fill-rule="evenodd" fill-opacity="1" stroke="#000000" stroke-opacity="1" stroke-width="3.2"/>
<circle clip-path="url(#clip162)" cx="1037.44" cy="1213.84" r="14.4" fill="#e26f46" fill-rule="evenodd" fill-opacity="1" stroke="#000000" stroke-opacity="1" stroke-width="3.2"/>
<circle clip-path="url(#clip162)" cx="1247.22" cy="1268.1" r="14.4" fill="#e26f46" fill-rule="evenodd" fill-opacity="1" stroke="#000000" stroke-opacity="1" stroke-width="3.2"/>
<circle clip-path="url(#clip162)" cx="1457" cy="1295.23" r="14.4" fill="#e26f46" fill-rule="evenodd" fill-opacity="1" stroke="#000000" stroke-opacity="1" stroke-width="3.2"/>
<circle clip-path="url(#clip162)" cx="1666.78" cy="1322.36" r="14.4" fill="#e26f46" fill-rule="evenodd" fill-opacity="1" stroke="#000000" stroke-opacity="1" stroke-width="3.2"/>
<circle clip-path="url(#clip162)" cx="1876.56" cy="1349.48" r="14.4" fill="#e26f46" fill-rule="evenodd" fill-opacity="1" stroke="#000000" stroke-opacity="1" stroke-width="3.2"/>
<circle clip-path="url(#clip162)" cx="2086.34" cy="1376.61" r="14.4" fill="#e26f46" fill-rule="evenodd" fill-opacity="1" stroke="#000000" stroke-opacity="1" stroke-width="3.2"/>
<circle clip-path="url(#clip162)" cx="2296.12" cy="1403.74" r="14.4" fill="#e26f46" fill-rule="evenodd" fill-opacity="1" stroke="#000000" stroke-opacity="1" stroke-width="3.2"/>
<path clip-path="url(#clip160)" d="M1694.62 443.698 L2286.05 443.698 L2286.05 93.7776 L1694.62 93.7776  Z" fill="#ffffff" fill-rule="evenodd" fill-opacity="1"/>
<polyline clip-path="url(#clip160)" style="stroke:#000000; stroke-linecap:round; stroke-linejoin:round; stroke-width:4; stroke-opacity:1; fill:none" points="1694.62,443.698 2286.05,443.698 2286.05,93.7776 1694.62,93.7776 1694.62,443.698 "/>
<polyline clip-path="url(#clip160)" style="stroke:#009af9; stroke-linecap:round; stroke-linejoin:round; stroke-width:9; stroke-opacity:1; fill:none" points="1716.86,210.418 1850.28,210.418 "/>
<line clip-path="url(#clip160)" x1="1783.57" y1="210.418" x2="1774.42" y2="201.267" style="stroke:#009af9; stroke-width:9; stroke-opacity:1"/>
<line clip-path="url(#clip160)" x1="1783.57" y1="210.418" x2="1774.42" y2="219.568" style="stroke:#009af9; stroke-width:9; stroke-opacity:1"/>
<line clip-path="url(#clip160)" x1="1783.57" y1="210.418" x2="1792.72" y2="219.568" style="stroke:#009af9; stroke-width:9; stroke-opacity:1"/>
<line clip-path="url(#clip160)" x1="1783.57" y1="210.418" x2="1792.72" y2="201.267" style="stroke:#009af9; stroke-width:9; stroke-opacity:1"/>
<path clip-path="url(#clip160)" d="M1872.52 221.132 Q1872.52 205.485 1881.22 197.953 Q1888.48 191.694 1898.93 191.694 Q1910.55 191.694 1917.92 199.332 Q1925.29 206.917 1925.29 220.336 Q1925.29 231.21 1922 237.469 Q1918.77 243.675 1912.51 247.123 Q1906.3 250.571 1898.93 250.571 Q1887.1 250.571 1879.78 242.986 Q1872.52 235.4 1872.52 221.132 M1882.33 221.132 Q1882.33 231.953 1887.05 237.363 Q1891.77 242.72 1898.93 242.72 Q1906.04 242.72 1910.76 237.31 Q1915.48 231.9 1915.48 220.814 Q1915.48 210.365 1910.71 205.007 Q1905.99 199.597 1898.93 199.597 Q1891.77 199.597 1887.05 204.954 Q1882.33 210.311 1882.33 221.132 Z" fill="#000000" fill-rule="nonzero" fill-opacity="1" /><path clip-path="url(#clip160)" d="M1973.03 249.298 L1973.03 242.19 Q1967.67 250.571 1957.28 250.571 Q1950.54 250.571 1944.87 246.858 Q1939.24 243.145 1936.11 236.514 Q1933.04 229.831 1933.04 221.185 Q1933.04 212.751 1935.85 205.909 Q1938.66 199.013 1944.28 195.354 Q1949.91 191.694 1956.85 191.694 Q1961.95 191.694 1965.92 193.868 Q1969.9 195.99 1972.4 199.438 L1972.4 171.538 L1981.89 171.538 L1981.89 249.298 L1973.03 249.298 M1942.85 221.185 Q1942.85 232.006 1947.41 237.363 Q1951.97 242.72 1958.18 242.72 Q1964.44 242.72 1968.79 237.628 Q1973.19 232.483 1973.19 221.981 Q1973.19 210.418 1968.74 205.007 Q1964.28 199.597 1957.76 199.597 Q1951.39 199.597 1947.09 204.795 Q1942.85 209.993 1942.85 221.185 Z" fill="#000000" fill-rule="nonzero" fill-opacity="1" /><path clip-path="url(#clip160)" d="M2035.46 231.157 L2045.33 232.377 Q2042.99 241.023 2036.68 245.797 Q2030.37 250.571 2020.56 250.571 Q2008.2 250.571 2000.93 242.986 Q1993.72 235.347 1993.72 221.609 Q1993.72 207.394 2001.04 199.544 Q2008.36 191.694 2020.03 191.694 Q2031.33 191.694 2038.49 199.385 Q2045.65 207.076 2045.65 221.026 Q2045.65 221.875 2045.59 223.572 L2003.58 223.572 Q2004.11 232.854 2008.84 237.787 Q2013.56 242.72 2020.61 242.72 Q2025.86 242.72 2029.57 239.962 Q2033.29 237.204 2035.46 231.157 M2004.11 215.722 L2035.57 215.722 Q2034.93 208.614 2031.96 205.06 Q2027.4 199.544 2020.13 199.544 Q2013.56 199.544 2009.05 203.946 Q2004.59 208.349 2004.11 215.722 Z" fill="#000000" fill-rule="nonzero" fill-opacity="1" /><path clip-path="url(#clip160)" d="M2048.51 270.886 L2048.51 263.99 L2111.79 263.99 L2111.79 270.886 L2048.51 270.886 Z" fill="#000000" fill-rule="nonzero" fill-opacity="1" /><path clip-path="url(#clip160)" d="M2117.73 270.886 L2117.73 192.967 L2126.43 192.967 L2126.43 200.286 Q2129.51 195.99 2133.38 193.868 Q2137.25 191.694 2142.77 191.694 Q2149.98 191.694 2155.5 195.407 Q2161.01 199.12 2163.82 205.909 Q2166.64 212.645 2166.64 220.708 Q2166.64 229.354 2163.51 236.302 Q2160.43 243.198 2154.49 246.911 Q2148.6 250.571 2142.08 250.571 Q2137.3 250.571 2133.48 248.555 Q2129.72 246.539 2127.28 243.463 L2127.28 270.886 L2117.73 270.886 M2126.38 221.45 Q2126.38 232.324 2130.78 237.522 Q2135.18 242.72 2141.44 242.72 Q2147.81 242.72 2152.31 237.363 Q2156.88 231.953 2156.88 220.655 Q2156.88 209.887 2152.42 204.53 Q2148.02 199.173 2141.87 199.173 Q2135.77 199.173 2131.04 204.901 Q2126.38 210.577 2126.38 221.45 Z" fill="#000000" fill-rule="nonzero" fill-opacity="1" /><path clip-path="url(#clip160)" d="M2211.46 249.298 L2201.91 249.298 L2201.91 188.458 Q2198.46 191.747 2192.84 195.035 Q2187.27 198.324 2182.81 199.968 L2182.81 190.739 Q2190.82 186.973 2196.82 181.616 Q2202.81 176.258 2205.3 171.219 L2211.46 171.219 L2211.46 249.298 Z" fill="#000000" fill-rule="nonzero" fill-opacity="1" /><path clip-path="url(#clip160)" d="M2263.81 249.298 L2254.26 249.298 L2254.26 188.458 Q2250.81 191.747 2245.19 195.035 Q2239.62 198.324 2235.17 199.968 L2235.17 190.739 Q2243.18 186.973 2249.17 181.616 Q2255.16 176.258 2257.66 171.219 L2263.81 171.219 L2263.81 249.298 Z" fill="#000000" fill-rule="nonzero" fill-opacity="1" /><polyline clip-path="url(#clip160)" style="stroke:#e26f46; stroke-linecap:round; stroke-linejoin:round; stroke-width:9; stroke-opacity:1; fill:none" points="1716.86,327.058 1850.28,327.058 "/>
<circle clip-path="url(#clip160)" cx="1783.57" cy="327.058" r="8.23578" fill="#e26f46" fill-rule="evenodd" fill-opacity="1" stroke="#000000" stroke-opacity="1" stroke-width="7.32069"/>
<path clip-path="url(#clip160)" d="M1912.19 345.304 L1921.58 346.524 Q1920.04 356.231 1913.68 361.747 Q1907.37 367.211 1898.14 367.211 Q1886.57 367.211 1879.52 359.679 Q1872.52 352.094 1872.52 337.984 Q1872.52 328.861 1875.54 322.019 Q1878.56 315.176 1884.72 311.781 Q1890.92 308.334 1898.19 308.334 Q1907.37 308.334 1913.2 313.001 Q1919.03 317.616 1920.68 326.156 L1911.4 327.588 Q1910.07 321.912 1906.68 319.048 Q1903.33 316.184 1898.56 316.184 Q1891.35 316.184 1886.84 321.382 Q1882.33 326.527 1882.33 337.719 Q1882.33 349.07 1886.68 354.215 Q1891.03 359.36 1898.03 359.36 Q1903.65 359.36 1907.42 355.913 Q1911.18 352.465 1912.19 345.304 Z" fill="#000000" fill-rule="nonzero" fill-opacity="1" /><path clip-path="url(#clip160)" d="M1929.64 365.938 L1929.64 309.607 L1938.24 309.607 L1938.24 318.146 Q1941.52 312.153 1944.28 310.243 Q1947.09 308.334 1950.44 308.334 Q1955.26 308.334 1960.25 311.41 L1956.96 320.268 Q1953.46 318.199 1949.96 318.199 Q1946.83 318.199 1944.34 320.109 Q1941.84 321.965 1940.78 325.307 Q1939.19 330.399 1939.19 336.446 L1939.19 365.938 L1929.64 365.938 Z" fill="#000000" fill-rule="nonzero" fill-opacity="1" /><path clip-path="url(#clip160)" d="M1965.92 365.938 L1965.92 309.607 L1974.52 309.607 L1974.52 317.616 Q1980.72 308.334 1992.45 308.334 Q1997.54 308.334 2001.78 310.19 Q2006.08 311.994 2008.2 314.964 Q2010.32 317.934 2011.17 322.019 Q2011.7 324.671 2011.7 331.301 L2011.7 365.938 L2002.15 365.938 L2002.15 331.672 Q2002.15 325.838 2001.04 322.973 Q1999.92 320.056 1997.06 318.359 Q1994.25 316.608 1990.43 316.608 Q1984.33 316.608 1979.87 320.48 Q1975.47 324.352 1975.47 335.173 L1975.47 365.938 L1965.92 365.938 Z" fill="#000000" fill-rule="nonzero" fill-opacity="1" /><path clip-path="url(#clip160)" d="M2017.53 387.526 L2017.53 380.63 L2080.81 380.63 L2080.81 387.526 L2017.53 387.526 Z" fill="#000000" fill-rule="nonzero" fill-opacity="1" /><path clip-path="url(#clip160)" d="M2087.97 365.938 L2087.97 288.178 L2117.31 288.178 Q2125.05 288.178 2129.14 288.92 Q2134.86 289.875 2138.74 292.58 Q2142.61 295.232 2144.94 300.059 Q2147.33 304.886 2147.33 310.667 Q2147.33 320.586 2141.02 327.482 Q2134.7 334.324 2118.21 334.324 L2098.26 334.324 L2098.26 365.938 L2087.97 365.938 M2098.26 325.148 L2118.37 325.148 Q2128.34 325.148 2132.53 321.435 Q2136.72 317.722 2136.72 310.986 Q2136.72 306.106 2134.23 302.658 Q2131.79 299.157 2127.76 298.043 Q2125.16 297.354 2118.16 297.354 L2098.26 297.354 L2098.26 325.148 Z" fill="#000000" fill-rule="nonzero" fill-opacity="1" /><path clip-path="url(#clip160)" d="M2192.52 365.938 L2182.97 365.938 L2182.97 305.098 Q2179.53 308.387 2173.9 311.675 Q2168.33 314.964 2163.88 316.608 L2163.88 307.379 Q2171.89 303.613 2177.88 298.256 Q2183.87 292.898 2186.37 287.859 L2192.52 287.859 L2192.52 365.938 Z" fill="#000000" fill-rule="nonzero" fill-opacity="1" /><path clip-path="url(#clip160)" d="M2244.87 365.938 L2235.33 365.938 L2235.33 305.098 Q2231.88 308.387 2226.26 311.675 Q2220.69 314.964 2216.23 316.608 L2216.23 307.379 Q2224.24 303.613 2230.23 298.256 Q2236.23 292.898 2238.72 287.859 L2244.87 287.859 L2244.87 365.938 Z" fill="#000000" fill-rule="nonzero" fill-opacity="1" /></svg>
