<?xml version="1.0" encoding="utf-8"?>
<svg xmlns="http://www.w3.org/2000/svg" xmlns:xlink="http://www.w3.org/1999/xlink" width="600" height="400" viewBox="0 0 2400 1600">
<defs>
  <clipPath id="clip210">
    <rect x="0" y="0" width="2400" height="1600"/>
  </clipPath>
</defs>
<path clip-path="url(#clip210)" d="M0 1600 L2400 1600 L2400 8.88178e-14 L0 8.88178e-14  Z" fill="#ffffff" fill-rule="evenodd" fill-opacity="1"/>
<defs>
  <clipPath id="clip211">
    <rect x="480" y="0" width="1681" height="1600"/>
  </clipPath>
</defs>
<path clip-path="url(#clip210)" d="M291.046 1443.25 L2352.76 1443.25 L2352.76 47.2441 L291.046 47.2441  Z" fill="#ffffff" fill-rule="evenodd" fill-opacity="1"/>
<defs>
  <clipPath id="clip212">
    <rect x="291" y="47" width="2063" height="1397"/>
  </clipPath>
</defs>
<polyline clip-path="url(#clip212)" style="stroke:#000000; stroke-linecap:round; stroke-linejoin:round; stroke-width:2; stroke-opacity:0.1; fill:none" points="565.508,1443.25 565.508,47.2441 "/>
<polyline clip-path="url(#clip212)" style="stroke:#000000; stroke-linecap:round; stroke-linejoin:round; stroke-width:2; stroke-opacity:0.1; fill:none" points="997.733,1443.25 997.733,47.2441 "/>
<polyline clip-path="url(#clip212)" style="stroke:#000000; stroke-linecap:round; stroke-linejoin:round; stroke-width:2; stroke-opacity:0.1; fill:none" points="1429.96,1443.25 1429.96,47.2441 "/>
<polyline clip-path="url(#clip212)" style="stroke:#000000; stroke-linecap:round; stroke-linejoin:round; stroke-width:2; stroke-opacity:0.1; fill:none" points="1862.18,1443.25 1862.18,47.2441 "/>
<polyline clip-path="url(#clip212)" style="stroke:#000000; stroke-linecap:round; stroke-linejoin:round; stroke-width:2; stroke-opacity:0.1; fill:none" points="2294.41,1443.25 2294.41,47.2441 "/>
<polyline clip-path="url(#clip210)" style="stroke:#000000; stroke-linecap:round; stroke-linejoin:round; stroke-width:4; stroke-opacity:1; fill:none" points="291.046,1443.25 2352.76,1443.25 "/>
<polyline clip-path="url(#clip210)" style="stroke:#000000; stroke-linecap:round; stroke-linejoin:round; stroke-width:4; stroke-opacity:1; fill:none" points="565.508,1443.25 565.508,1424.35 "/>
<polyline clip-path="url(#clip210)" style="stroke:#000000; stroke-linecap:round; stroke-linejoin:round; stroke-width:4; stroke-opacity:1; fill:none" points="997.733,1443.25 997.733,1424.35 "/>
<polyline clip-path="url(#clip210)" style="stroke:#000000; stroke-linecap:round; stroke-linejoin:round; stroke-width:4; stroke-opacity:1; fill:none" points="1429.96,1443.25 1429.96,1424.35 "/>
<polyline clip-path="url(#clip210)" style="stroke:#000000; stroke-linecap:round; stroke-linejoin:round; stroke-width:4; stroke-opacity:1; fill:none" points="1862.18,1443.25 1862.18,1424.35 "/>
<polyline clip-path="url(#clip210)" style="stroke:#000000; stroke-linecap:round; stroke-linejoin:round; stroke-width:4; stroke-opacity:1; fill:none" points="2294.41,1443.25 2294.41,1424.35 "/>
<path clip-path="url(#clip210)" d="M591.26 1550.47 L591.26 1559.65 L539.862 1559.65 Q539.756 1556.2 540.976 1553.02 Q542.939 1547.77 547.235 1542.67 Q551.585 1537.58 559.753 1530.9 Q572.43 1520.5 576.886 1514.46 Q581.341 1508.36 581.341 1502.95 Q581.341 1497.27 577.257 1493.4 Q573.226 1489.47 566.702 1489.47 Q559.806 1489.47 555.669 1493.61 Q551.532 1497.75 551.479 1505.07 L541.666 1504.06 Q542.674 1493.08 549.251 1487.35 Q555.828 1481.57 566.914 1481.57 Q578.106 1481.57 584.63 1487.78 Q591.154 1493.98 591.154 1503.16 Q591.154 1507.83 589.245 1512.33 Q587.335 1516.84 582.88 1521.83 Q578.477 1526.81 568.187 1535.51 Q559.594 1542.73 557.154 1545.33 Q554.714 1547.87 553.123 1550.47 L591.26 1550.47 Z" fill="#000000" fill-rule="nonzero" fill-opacity="1" /><path clip-path="url(#clip210)" d="M1004.58 1559.65 L1004.58 1541.03 L970.84 1541.03 L970.84 1532.28 L1006.33 1481.89 L1014.12 1481.89 L1014.12 1532.28 L1024.63 1532.28 L1024.63 1541.03 L1014.12 1541.03 L1014.12 1559.65 L1004.58 1559.65 M1004.58 1532.28 L1004.58 1497.22 L980.229 1532.28 L1004.58 1532.28 Z" fill="#000000" fill-rule="nonzero" fill-opacity="1" /><path clip-path="url(#clip210)" d="M1454.25 1500.93 L1444.76 1501.67 Q1443.48 1496.05 1441.15 1493.5 Q1437.28 1489.42 1431.6 1489.42 Q1427.04 1489.42 1423.59 1491.97 Q1419.08 1495.25 1416.48 1501.57 Q1413.89 1507.88 1413.78 1519.55 Q1417.23 1514.3 1422.21 1511.75 Q1427.2 1509.2 1432.66 1509.2 Q1442.21 1509.2 1448.89 1516.26 Q1455.63 1523.26 1455.63 1534.4 Q1455.63 1541.72 1452.45 1548.03 Q1449.32 1554.29 1443.8 1557.63 Q1438.28 1560.97 1431.28 1560.97 Q1419.35 1560.97 1411.82 1552.22 Q1404.28 1543.42 1404.28 1523.26 Q1404.28 1500.72 1412.61 1490.48 Q1419.88 1481.57 1432.18 1481.57 Q1441.36 1481.57 1447.2 1486.71 Q1453.08 1491.86 1454.25 1500.93 M1415.26 1534.45 Q1415.26 1539.39 1417.33 1543.89 Q1419.45 1548.4 1423.22 1550.79 Q1426.99 1553.12 1431.12 1553.12 Q1437.17 1553.12 1441.52 1548.24 Q1445.87 1543.36 1445.87 1534.98 Q1445.87 1526.92 1441.57 1522.31 Q1437.28 1517.64 1430.75 1517.64 Q1424.28 1517.64 1419.77 1522.31 Q1415.26 1526.92 1415.26 1534.45 Z" fill="#000000" fill-rule="nonzero" fill-opacity="1" /><path clip-path="url(#clip210)" d="M1851.36 1517.48 Q1845.42 1515.3 1842.56 1511.27 Q1839.69 1507.24 1839.69 1501.62 Q1839.69 1493.13 1845.79 1487.35 Q1851.89 1481.57 1862.02 1481.57 Q1872.21 1481.57 1878.41 1487.51 Q1884.62 1493.4 1884.62 1501.88 Q1884.62 1507.3 1881.75 1511.33 Q1878.94 1515.3 1873.16 1517.48 Q1880.32 1519.81 1884.03 1525.01 Q1887.8 1530.21 1887.8 1537.42 Q1887.8 1547.4 1880.75 1554.18 Q1873.69 1560.97 1862.18 1560.97 Q1850.67 1560.97 1843.62 1554.18 Q1836.56 1547.34 1836.56 1537.16 Q1836.56 1529.57 1840.38 1524.48 Q1844.25 1519.34 1851.36 1517.48 M1849.45 1501.3 Q1849.45 1506.82 1853 1510.32 Q1856.56 1513.82 1862.23 1513.82 Q1867.75 1513.82 1871.25 1510.37 Q1874.81 1506.87 1874.81 1501.83 Q1874.81 1496.58 1871.15 1493.03 Q1867.54 1489.42 1862.13 1489.42 Q1856.66 1489.42 1853.06 1492.92 Q1849.45 1496.42 1849.45 1501.3 M1846.37 1537.21 Q1846.37 1541.3 1848.28 1545.11 Q1850.25 1548.93 1854.07 1551.06 Q1857.88 1553.12 1862.29 1553.12 Q1869.13 1553.12 1873.59 1548.72 Q1878.04 1544.32 1878.04 1537.53 Q1878.04 1530.63 1873.43 1526.13 Q1868.86 1521.62 1861.97 1521.62 Q1855.23 1521.62 1850.78 1526.07 Q1846.37 1530.53 1846.37 1537.21 Z" fill="#000000" fill-rule="nonzero" fill-opacity="1" /><path clip-path="url(#clip210)" d="M2271.15 1559.65 L2261.6 1559.65 L2261.6 1498.81 Q2258.15 1502.1 2252.53 1505.39 Q2246.96 1508.67 2242.5 1510.32 L2242.5 1501.09 Q2250.51 1497.32 2256.51 1491.97 Q2262.5 1486.61 2264.99 1481.57 L2271.15 1481.57 L2271.15 1559.65 Z" fill="#000000" fill-rule="nonzero" fill-opacity="1" /><path clip-path="url(#clip210)" d="M2295.6 1521.3 Q2295.6 1507.51 2298.41 1499.13 Q2301.27 1490.69 2306.84 1486.13 Q2312.47 1481.57 2320.95 1481.57 Q2327.21 1481.57 2331.93 1484.12 Q2336.65 1486.61 2339.73 1491.38 Q2342.81 1496.1 2344.56 1502.95 Q2346.31 1509.74 2346.31 1521.3 Q2346.31 1534.98 2343.5 1543.42 Q2340.69 1551.8 2335.06 1556.41 Q2329.49 1560.97 2320.95 1560.97 Q2309.71 1560.97 2303.29 1552.91 Q2295.6 1543.2 2295.6 1521.3 M2305.41 1521.3 Q2305.41 1540.45 2309.87 1546.81 Q2314.38 1553.12 2320.95 1553.12 Q2327.53 1553.12 2331.99 1546.76 Q2336.49 1540.39 2336.49 1521.3 Q2336.49 1502.1 2331.99 1495.78 Q2327.53 1489.47 2320.85 1489.47 Q2314.27 1489.47 2310.34 1495.04 Q2305.41 1502.15 2305.41 1521.3 Z" fill="#000000" fill-rule="nonzero" fill-opacity="1" /><polyline clip-path="url(#clip212)" style="stroke:#000000; stroke-linecap:round; stroke-linejoin:round; stroke-width:2; stroke-opacity:0.1; fill:none" points="291.046,1271.89 2352.76,1271.89 "/>
<polyline clip-path="url(#clip212)" style="stroke:#000000; stroke-linecap:round; stroke-linejoin:round; stroke-width:2; stroke-opacity:0.1; fill:none" points="291.046,876.846 2352.76,876.846 "/>
<polyline clip-path="url(#clip212)" style="stroke:#000000; stroke-linecap:round; stroke-linejoin:round; stroke-width:2; stroke-opacity:0.1; fill:none" points="291.046,481.8 2352.76,481.8 "/>
<polyline clip-path="url(#clip212)" style="stroke:#000000; stroke-linecap:round; stroke-linejoin:round; stroke-width:2; stroke-opacity:0.1; fill:none" points="291.046,86.7536 2352.76,86.7536 "/>
<polyline clip-path="url(#clip210)" style="stroke:#000000; stroke-linecap:round; stroke-linejoin:round; stroke-width:4; stroke-opacity:1; fill:none" points="291.046,1443.25 291.046,47.2441 "/>
<polyline clip-path="url(#clip210)" style="stroke:#000000; stroke-linecap:round; stroke-linejoin:round; stroke-width:4; stroke-opacity:1; fill:none" points="291.046,1271.89 309.943,1271.89 "/>
<polyline clip-path="url(#clip210)" style="stroke:#000000; stroke-linecap:round; stroke-linejoin:round; stroke-width:4; stroke-opacity:1; fill:none" points="291.046,876.846 309.943,876.846 "/>
<polyline clip-path="url(#clip210)" style="stroke:#000000; stroke-linecap:round; stroke-linejoin:round; stroke-width:4; stroke-opacity:1; fill:none" points="291.046,481.8 309.943,481.8 "/>
<polyline clip-path="url(#clip210)" style="stroke:#000000; stroke-linecap:round; stroke-linejoin:round; stroke-width:4; stroke-opacity:1; fill:none" points="291.046,86.7536 309.943,86.7536 "/>
<path clip-path="url(#clip210)" d="M102.974 1276.88 L51.6286 1276.88 L51.6286 1267.97 L102.974 1267.97 L102.974 1276.88 Z" fill="#000000" fill-rule="nonzero" fill-opacity="1" /><path clip-path="url(#clip210)" d="M113.529 1272.42 Q113.529 1258.63 116.34 1250.25 Q119.205 1241.82 124.774 1237.26 Q130.396 1232.69 138.883 1232.69 Q145.142 1232.69 149.863 1235.24 Q154.584 1237.73 157.66 1242.51 Q160.737 1247.23 162.487 1254.07 Q164.237 1260.86 164.237 1272.42 Q164.237 1286.11 161.426 1294.54 Q158.615 1302.92 152.992 1307.54 Q147.423 1312.1 138.883 1312.1 Q127.638 1312.1 121.22 1304.04 Q113.529 1294.33 113.529 1272.42 M123.342 1272.42 Q123.342 1291.57 127.797 1297.94 Q132.306 1304.25 138.883 1304.25 Q145.46 1304.25 149.916 1297.88 Q154.425 1291.52 154.425 1272.42 Q154.425 1253.22 149.916 1246.91 Q145.46 1240.6 138.777 1240.6 Q132.2 1240.6 128.275 1246.17 Q123.342 1253.27 123.342 1272.42 Z" fill="#000000" fill-rule="nonzero" fill-opacity="1" /><path clip-path="url(#clip210)" d="M179.301 1310.77 L179.301 1299.9 L190.175 1299.9 L190.175 1310.77 L179.301 1310.77 Z" fill="#000000" fill-rule="nonzero" fill-opacity="1" /><path clip-path="url(#clip210)" d="M253.667 1252.05 L244.172 1252.8 Q242.899 1247.17 240.565 1244.63 Q236.693 1240.54 231.018 1240.54 Q226.456 1240.54 223.008 1243.09 Q218.5 1246.38 215.901 1252.69 Q213.302 1259 213.195 1270.67 Q216.643 1265.42 221.629 1262.88 Q226.615 1260.33 232.079 1260.33 Q241.626 1260.33 248.309 1267.38 Q255.046 1274.39 255.046 1285.52 Q255.046 1292.84 251.863 1299.16 Q248.734 1305.42 243.217 1308.76 Q237.701 1312.1 230.699 1312.1 Q218.765 1312.1 211.233 1303.35 Q203.701 1294.54 203.701 1274.39 Q203.701 1251.84 212.029 1241.61 Q219.295 1232.69 231.601 1232.69 Q240.777 1232.69 246.612 1237.84 Q252.5 1242.98 253.667 1252.05 M214.681 1285.58 Q214.681 1290.51 216.749 1295.02 Q218.871 1299.53 222.637 1301.91 Q226.403 1304.25 230.54 1304.25 Q236.587 1304.25 240.937 1299.37 Q245.286 1294.49 245.286 1286.11 Q245.286 1278.05 240.99 1273.43 Q236.693 1268.76 230.169 1268.76 Q223.698 1268.76 219.189 1273.43 Q214.681 1278.05 214.681 1285.58 Z" fill="#000000" fill-rule="nonzero" fill-opacity="1" /><path clip-path="url(#clip210)" d="M102.337 881.832 L50.9921 881.832 L50.9921 872.921 L102.337 872.921 L102.337 881.832 Z" fill="#000000" fill-rule="nonzero" fill-opacity="1" /><path clip-path="url(#clip210)" d="M112.892 877.377 Q112.892 863.586 115.704 855.205 Q118.568 846.771 124.137 842.21 Q129.76 837.648 138.247 837.648 Q144.506 837.648 149.226 840.194 Q153.947 842.687 157.024 847.461 Q160.1 852.182 161.851 859.024 Q163.601 865.814 163.601 877.377 Q163.601 891.062 160.79 899.495 Q157.978 907.876 152.356 912.491 Q146.787 917.052 138.247 917.052 Q127.002 917.052 120.584 908.99 Q112.892 899.283 112.892 877.377 M122.705 877.377 Q122.705 896.525 127.161 902.89 Q131.669 909.202 138.247 909.202 Q144.824 909.202 149.279 902.837 Q153.788 896.472 153.788 877.377 Q153.788 858.175 149.279 851.863 Q144.824 845.551 138.141 845.551 Q131.563 845.551 127.638 851.121 Q122.705 858.229 122.705 877.377 Z" fill="#000000" fill-rule="nonzero" fill-opacity="1" /><path clip-path="url(#clip210)" d="M178.665 915.726 L178.665 904.853 L189.539 904.853 L189.539 915.726 L178.665 915.726 Z" fill="#000000" fill-rule="nonzero" fill-opacity="1" /><path clip-path="url(#clip210)" d="M203.489 895.358 L213.514 894.509 Q214.628 901.829 218.659 905.542 Q222.743 909.202 228.472 909.202 Q235.367 909.202 240.141 904.004 Q244.915 898.806 244.915 890.213 Q244.915 882.044 240.3 877.324 Q235.738 872.603 228.313 872.603 Q223.698 872.603 219.985 874.725 Q216.272 876.793 214.15 880.135 L205.186 878.968 L212.718 839.027 L251.386 839.027 L251.386 848.15 L220.356 848.15 L216.166 869.049 Q223.167 864.169 230.859 864.169 Q241.043 864.169 248.044 871.224 Q255.046 878.278 255.046 889.364 Q255.046 899.92 248.893 907.611 Q241.414 917.052 228.472 917.052 Q217.863 917.052 211.127 911.112 Q204.443 905.171 203.489 895.358 Z" fill="#000000" fill-rule="nonzero" fill-opacity="1" /><path clip-path="url(#clip210)" d="M103.239 486.786 L51.8938 486.786 L51.8938 477.875 L103.239 477.875 L103.239 486.786 Z" fill="#000000" fill-rule="nonzero" fill-opacity="1" /><path clip-path="url(#clip210)" d="M113.794 482.33 Q113.794 468.539 116.605 460.159 Q119.47 451.725 125.039 447.163 Q130.662 442.602 139.148 442.602 Q145.407 442.602 150.128 445.148 Q154.849 447.641 157.925 452.415 Q161.002 457.135 162.752 463.978 Q164.503 470.767 164.503 482.33 Q164.503 496.015 161.691 504.449 Q158.88 512.83 153.258 517.444 Q147.688 522.006 139.148 522.006 Q127.903 522.006 121.485 513.944 Q113.794 504.237 113.794 482.33 M123.607 482.33 Q123.607 501.479 128.063 507.844 Q132.571 514.156 139.148 514.156 Q145.726 514.156 150.181 507.791 Q154.69 501.426 154.69 482.33 Q154.69 463.129 150.181 456.817 Q145.726 450.505 139.042 450.505 Q132.465 450.505 128.54 456.074 Q123.607 463.182 123.607 482.33 Z" fill="#000000" fill-rule="nonzero" fill-opacity="1" /><path clip-path="url(#clip210)" d="M179.567 520.68 L179.567 509.806 L190.44 509.806 L190.44 520.68 L179.567 520.68 Z" fill="#000000" fill-rule="nonzero" fill-opacity="1" /><path clip-path="url(#clip210)" d="M234.996 520.68 L234.996 502.062 L201.261 502.062 L201.261 493.31 L236.746 442.92 L244.543 442.92 L244.543 493.31 L255.046 493.31 L255.046 502.062 L244.543 502.062 L244.543 520.68 L234.996 520.68 M234.996 493.31 L234.996 458.249 L210.649 493.31 L234.996 493.31 Z" fill="#000000" fill-rule="nonzero" fill-opacity="1" /><path clip-path="url(#clip210)" d="M102.921 91.7396 L51.5756 91.7396 L51.5756 82.8285 L102.921 82.8285 L102.921 91.7396 Z" fill="#000000" fill-rule="nonzero" fill-opacity="1" /><path clip-path="url(#clip210)" d="M113.476 87.2841 Q113.476 73.4931 116.287 65.1124 Q119.151 56.6787 124.721 52.117 Q130.343 47.5554 138.83 47.5554 Q145.089 47.5554 149.81 50.1014 Q154.531 52.5944 157.607 57.3682 Q160.684 62.089 162.434 68.9314 Q164.184 75.7208 164.184 87.2841 Q164.184 100.969 161.373 109.403 Q158.562 117.783 152.939 122.398 Q147.37 126.96 138.83 126.96 Q127.585 126.96 121.167 118.897 Q113.476 109.191 113.476 87.2841 M123.289 87.2841 Q123.289 106.432 127.744 112.797 Q132.253 119.109 138.83 119.109 Q145.407 119.109 149.863 112.744 Q154.372 106.379 154.372 87.2841 Q154.372 68.0827 149.863 61.7707 Q145.407 55.4587 138.724 55.4587 Q132.147 55.4587 128.222 61.0281 Q123.289 68.1358 123.289 87.2841 Z" fill="#000000" fill-rule="nonzero" fill-opacity="1" /><path clip-path="url(#clip210)" d="M179.248 125.634 L179.248 114.76 L190.122 114.76 L190.122 125.634 L179.248 125.634 Z" fill="#000000" fill-rule="nonzero" fill-opacity="1" /><path clip-path="url(#clip210)" d="M204.125 105.106 L213.673 103.833 Q215.317 111.949 219.242 115.556 Q223.22 119.109 228.896 119.109 Q235.632 119.109 240.247 114.442 Q244.915 109.774 244.915 102.878 Q244.915 96.3012 240.618 92.0579 Q236.322 87.7614 229.692 87.7614 Q226.986 87.7614 222.955 88.8223 L224.016 80.4416 Q224.971 80.5477 225.554 80.5477 Q231.654 80.5477 236.534 77.3651 Q241.414 74.1826 241.414 67.5523 Q241.414 62.3011 237.86 58.8534 Q234.306 55.4056 228.684 55.4056 Q223.114 55.4056 219.401 58.9064 Q215.688 62.4072 214.628 69.4088 L205.08 67.7115 Q206.83 58.1108 213.036 52.8596 Q219.242 47.5554 228.472 47.5554 Q234.837 47.5554 240.194 50.3136 Q245.551 53.0187 248.362 57.7395 Q251.227 62.4603 251.227 67.7645 Q251.227 72.8035 248.522 76.9408 Q245.816 81.0781 240.512 83.5181 Q247.408 85.1093 251.227 90.1483 Q255.046 95.1343 255.046 102.666 Q255.046 112.85 247.62 119.958 Q240.194 127.013 228.843 127.013 Q218.606 127.013 211.816 120.913 Q205.08 114.813 204.125 105.106 Z" fill="#000000" fill-rule="nonzero" fill-opacity="1" /><polyline clip-path="url(#clip212)" style="stroke:#009af9; stroke-linecap:round; stroke-linejoin:round; stroke-width:4; stroke-opacity:1; fill:none" points="349.396,97.8352 565.508,598.698 781.62,877.354 997.733,1049.42 1213.84,1163.84 1429.96,1244.09 1646.07,1302.43 1862.18,1345.86 2078.29,1378.7 2294.41,1403.74 "/>
<line clip-path="url(#clip212)" x1="349.396" y1="97.8352" x2="325.396" y2="73.8352" style="stroke:#009af9; stroke-width:4; stroke-opacity:1"/>
<line clip-path="url(#clip212)" x1="349.396" y1="97.8352" x2="325.396" y2="121.835" style="stroke:#009af9; stroke-width:4; stroke-opacity:1"/>
<line clip-path="url(#clip212)" x1="349.396" y1="97.8352" x2="373.396" y2="121.835" style="stroke:#009af9; stroke-width:4; stroke-opacity:1"/>
<line clip-path="url(#clip212)" x1="349.396" y1="97.8352" x2="373.396" y2="73.8352" style="stroke:#009af9; stroke-width:4; stroke-opacity:1"/>
<line clip-path="url(#clip212)" x1="565.508" y1="598.698" x2="541.508" y2="574.698" style="stroke:#009af9; stroke-width:4; stroke-opacity:1"/>
<line clip-path="url(#clip212)" x1="565.508" y1="598.698" x2="541.508" y2="622.698" style="stroke:#009af9; stroke-width:4; stroke-opacity:1"/>
<line clip-path="url(#clip212)" x1="565.508" y1="598.698" x2="589.508" y2="622.698" style="stroke:#009af9; stroke-width:4; stroke-opacity:1"/>
<line clip-path="url(#clip212)" x1="565.508" y1="598.698" x2="589.508" y2="574.698" style="stroke:#009af9; stroke-width:4; stroke-opacity:1"/>
<line clip-path="url(#clip212)" x1="781.62" y1="877.354" x2="757.62" y2="853.354" style="stroke:#009af9; stroke-width:4; stroke-opacity:1"/>
<line clip-path="url(#clip212)" x1="781.62" y1="877.354" x2="757.62" y2="901.354" style="stroke:#009af9; stroke-width:4; stroke-opacity:1"/>
<line clip-path="url(#clip212)" x1="781.62" y1="877.354" x2="805.62" y2="901.354" style="stroke:#009af9; stroke-width:4; stroke-opacity:1"/>
<line clip-path="url(#clip212)" x1="781.62" y1="877.354" x2="805.62" y2="853.354" style="stroke:#009af9; stroke-width:4; stroke-opacity:1"/>
<line clip-path="url(#clip212)" x1="997.733" y1="1049.42" x2="973.733" y2="1025.42" style="stroke:#009af9; stroke-width:4; stroke-opacity:1"/>
<line clip-path="url(#clip212)" x1="997.733" y1="1049.42" x2="973.733" y2="1073.42" style="stroke:#009af9; stroke-width:4; stroke-opacity:1"/>
<line clip-path="url(#clip212)" x1="997.733" y1="1049.42" x2="1021.73" y2="1073.42" style="stroke:#009af9; stroke-width:4; stroke-opacity:1"/>
<line clip-path="url(#clip212)" x1="997.733" y1="1049.42" x2="1021.73" y2="1025.42" style="stroke:#009af9; stroke-width:4; stroke-opacity:1"/>
<line clip-path="url(#clip212)" x1="1213.84" y1="1163.84" x2="1189.84" y2="1139.84" style="stroke:#009af9; stroke-width:4; stroke-opacity:1"/>
<line clip-path="url(#clip212)" x1="1213.84" y1="1163.84" x2="1189.84" y2="1187.84" style="stroke:#009af9; stroke-width:4; stroke-opacity:1"/>
<line clip-path="url(#clip212)" x1="1213.84" y1="1163.84" x2="1237.84" y2="1187.84" style="stroke:#009af9; stroke-width:4; stroke-opacity:1"/>
<line clip-path="url(#clip212)" x1="1213.84" y1="1163.84" x2="1237.84" y2="1139.84" style="stroke:#009af9; stroke-width:4; stroke-opacity:1"/>
<line clip-path="url(#clip212)" x1="1429.96" y1="1244.09" x2="1405.96" y2="1220.09" style="stroke:#009af9; stroke-width:4; stroke-opacity:1"/>
<line clip-path="url(#clip212)" x1="1429.96" y1="1244.09" x2="1405.96" y2="1268.09" style="stroke:#009af9; stroke-width:4; stroke-opacity:1"/>
<line clip-path="url(#clip212)" x1="1429.96" y1="1244.09" x2="1453.96" y2="1268.09" style="stroke:#009af9; stroke-width:4; stroke-opacity:1"/>
<line clip-path="url(#clip212)" x1="1429.96" y1="1244.09" x2="1453.96" y2="1220.09" style="stroke:#009af9; stroke-width:4; stroke-opacity:1"/>
<line clip-path="url(#clip212)" x1="1646.07" y1="1302.43" x2="1622.07" y2="1278.43" style="stroke:#009af9; stroke-width:4; stroke-opacity:1"/>
<line clip-path="url(#clip212)" x1="1646.07" y1="1302.43" x2="1622.07" y2="1326.43" style="stroke:#009af9; stroke-width:4; stroke-opacity:1"/>
<line clip-path="url(#clip212)" x1="1646.07" y1="1302.43" x2="1670.07" y2="1326.43" style="stroke:#009af9; stroke-width:4; stroke-opacity:1"/>
<line clip-path="url(#clip212)" x1="1646.07" y1="1302.43" x2="1670.07" y2="1278.43" style="stroke:#009af9; stroke-width:4; stroke-opacity:1"/>
<line clip-path="url(#clip212)" x1="1862.18" y1="1345.86" x2="1838.18" y2="1321.86" style="stroke:#009af9; stroke-width:4; stroke-opacity:1"/>
<line clip-path="url(#clip212)" x1="1862.18" y1="1345.86" x2="1838.18" y2="1369.86" style="stroke:#009af9; stroke-width:4; stroke-opacity:1"/>
<line clip-path="url(#clip212)" x1="1862.18" y1="1345.86" x2="1886.18" y2="1369.86" style="stroke:#009af9; stroke-width:4; stroke-opacity:1"/>
<line clip-path="url(#clip212)" x1="1862.18" y1="1345.86" x2="1886.18" y2="1321.86" style="stroke:#009af9; stroke-width:4; stroke-opacity:1"/>
<line clip-path="url(#clip212)" x1="2078.29" y1="1378.7" x2="2054.29" y2="1354.7" style="stroke:#009af9; stroke-width:4; stroke-opacity:1"/>
<line clip-path="url(#clip212)" x1="2078.29" y1="1378.7" x2="2054.29" y2="1402.7" style="stroke:#009af9; stroke-width:4; stroke-opacity:1"/>
<line clip-path="url(#clip212)" x1="2078.29" y1="1378.7" x2="2102.29" y2="1402.7" style="stroke:#009af9; stroke-width:4; stroke-opacity:1"/>
<line clip-path="url(#clip212)" x1="2078.29" y1="1378.7" x2="2102.29" y2="1354.7" style="stroke:#009af9; stroke-width:4; stroke-opacity:1"/>
<line clip-path="url(#clip212)" x1="2294.41" y1="1403.74" x2="2270.41" y2="1379.74" style="stroke:#009af9; stroke-width:4; stroke-opacity:1"/>
<line clip-path="url(#clip212)" x1="2294.41" y1="1403.74" x2="2270.41" y2="1427.74" style="stroke:#009af9; stroke-width:4; stroke-opacity:1"/>
<line clip-path="url(#clip212)" x1="2294.41" y1="1403.74" x2="2318.41" y2="1427.74" style="stroke:#009af9; stroke-width:4; stroke-opacity:1"/>
<line clip-path="url(#clip212)" x1="2294.41" y1="1403.74" x2="2318.41" y2="1379.74" style="stroke:#009af9; stroke-width:4; stroke-opacity:1"/>
<polyline clip-path="url(#clip212)" style="stroke:#e26f46; stroke-linecap:round; stroke-linejoin:round; stroke-width:4; stroke-opacity:1; fill:none" points="349.396,86.7536 565.508,639.819 781.62,916.351 997.733,1153.38 1213.84,1271.89 1429.96,1390.41 1646.07,1350.9 1862.18,1350.9 2078.29,1350.9 2294.41,1350.9 "/>
<circle clip-path="url(#clip212)" cx="349.396" cy="86.7536" r="14.4" fill="#e26f46" fill-rule="evenodd" fill-opacity="1" stroke="#000000" stroke-opacity="1" stroke-width="3.2"/>
<circle clip-path="url(#clip212)" cx="565.508" cy="639.819" r="14.4" fill="#e26f46" fill-rule="evenodd" fill-opacity="1" stroke="#000000" stroke-opacity="1" stroke-width="3.2"/>
<circle clip-path="url(#clip212)" cx="781.62" cy="916.351" r="14.4" fill="#e26f46" fill-rule="evenodd" fill-opacity="1" stroke="#000000" stroke-opacity="1" stroke-width="3.2"/>
<circle clip-path="url(#clip212)" cx="997.733" cy="1153.38" r="14.4" fill="#e26f46" fill-rule="evenodd" fill-opacity="1" stroke="#000000" stroke-opacity="1" stroke-width="3.2"/>
<circle clip-path="url(#clip212)" cx="1213.84" cy="1271.89" r="14.4" fill="#e26f46" fill-rule="evenodd" fill-opacity="1" stroke="#000000" stroke-opacity="1" stroke-width="3.2"/>
<circle clip-path="url(#clip212)" cx="1429.96" cy="1390.41" r="14.4" fill="#e26f46" fill-rule="evenodd" fill-opacity="1" stroke="#000000" stroke-opacity="1" stroke-width="3.2"/>
<circle clip-path="url(#clip212)" cx="1646.07" cy="1350.9" r="14.4" fill="#e26f46" fill-rule="evenodd" fill-opacity="1" stroke="#000000" stroke-opacity="1" stroke-width="3.2"/>
<circle clip-path="url(#clip212)" cx="1862.18" cy="1350.9" r="14.4" fill="#e26f46" fill-rule="evenodd" fill-opacity="1" stroke="#000000" stroke-opacity="1" stroke-width="3.2"/>
<circle clip-path="url(#clip212)" cx="2078.29" cy="1350.9" r="14.4" fill="#e26f46" fill-rule="evenodd" fill-opacity="1" stroke="#000000" stroke-opacity="1" stroke-width="3.2"/>
<circle clip-path="url(#clip212)" cx="2294.41" cy="1350.9" r="14.4" fill="#e26f46" fill-rule="evenodd" fill-opacity="1" stroke="#000000" stroke-opacity="1" stroke-width="3.2"/>
<path clip-path="url(#clip210)" d="M1664.29 443.698 L2284.03 443.698 L2284.03 93.7776 L1664.29 93.7776  Z" fill="#ffffff" fill-rule="evenodd" fill-opacity="1"/>
<polyline clip-path="url(#clip210)" style="stroke:#000000; stroke-linecap:round; stroke-linejoin:round; stroke-width:4; stroke-opacity:1; fill:none" points="1664.29,443.698 2284.03,443.698 2284.03,93.7776 1664.29,93.7776 1664.29,443.698 "/>
<polyline clip-path="url(#clip210)" style="stroke:#009af9; stroke-linecap:round; stroke-linejoin:round; stroke-width:9; stroke-opacity:1; fill:none" points="1687.2,210.418 1824.65,210.418 "/>
<line clip-path="url(#clip210)" x1="1755.92" y1="210.418" x2="1746.49" y2="200.99" style="stroke:#009af9; stroke-width:9; stroke-opacity:1"/>
<line clip-path="url(#clip210)" x1="1755.92" y1="210.418" x2="1746.49" y2="219.845" style="stroke:#009af9; stroke-width:9; stroke-opacity:1"/>
<line clip-path="url(#clip210)" x1="1755.92" y1="210.418" x2="1765.35" y2="219.845" style="stroke:#009af9; stroke-width:9; stroke-opacity:1"/>
<line clip-path="url(#clip210)" x1="1755.92" y1="210.418" x2="1765.35" y2="200.99" style="stroke:#009af9; stroke-width:9; stroke-opacity:1"/>
<path clip-path="url(#clip210)" d="M1847.55 221.132 Q1847.55 205.485 1856.25 197.953 Q1863.52 191.694 1873.97 191.694 Q1885.58 191.694 1892.96 199.332 Q1900.33 206.917 1900.33 220.336 Q1900.33 231.21 1897.04 237.469 Q1893.81 243.675 1887.55 247.123 Q1881.34 250.571 1873.97 250.571 Q1862.14 250.571 1854.82 242.986 Q1847.55 235.4 1847.55 221.132 M1857.37 221.132 Q1857.37 231.953 1862.09 237.363 Q1866.81 242.72 1873.97 242.72 Q1881.08 242.72 1885.8 237.31 Q1890.52 231.9 1890.52 220.814 Q1890.52 210.365 1885.74 205.007 Q1881.02 199.597 1873.97 199.597 Q1866.81 199.597 1862.09 204.954 Q1857.37 210.311 1857.37 221.132 Z" fill="#000000" fill-rule="nonzero" fill-opacity="1" /><path clip-path="url(#clip210)" d="M1948.07 249.298 L1948.07 242.19 Q1942.71 250.571 1932.32 250.571 Q1925.58 250.571 1919.9 246.858 Q1914.28 243.145 1911.15 236.514 Q1908.07 229.831 1908.07 221.185 Q1908.07 212.751 1910.89 205.909 Q1913.7 199.013 1919.32 195.354 Q1924.94 191.694 1931.89 191.694 Q1936.98 191.694 1940.96 193.868 Q1944.94 195.99 1947.43 199.438 L1947.43 171.538 L1956.93 171.538 L1956.93 249.298 L1948.07 249.298 M1917.89 221.185 Q1917.89 232.006 1922.45 237.363 Q1927.01 242.72 1933.22 242.72 Q1939.48 242.72 1943.83 237.628 Q1948.23 232.483 1948.23 221.981 Q1948.23 210.418 1943.77 205.007 Q1939.32 199.597 1932.79 199.597 Q1926.43 199.597 1922.13 204.795 Q1917.89 209.993 1917.89 221.185 Z" fill="#000000" fill-rule="nonzero" fill-opacity="1" /><path clip-path="url(#clip210)" d="M2010.5 231.157 L2020.37 232.377 Q2018.03 241.023 2011.72 245.797 Q2005.41 250.571 1995.59 250.571 Q1983.24 250.571 1975.97 242.986 Q1968.76 235.347 1968.76 221.609 Q1968.76 207.394 1976.08 199.544 Q1983.39 191.694 1995.06 191.694 Q2006.36 191.694 2013.52 199.385 Q2020.68 207.076 2020.68 221.026 Q2020.68 221.875 2020.63 223.572 L1978.62 223.572 Q1979.15 232.854 1983.87 237.787 Q1988.59 242.72 1995.65 242.72 Q2000.9 242.72 2004.61 239.962 Q2008.32 237.204 2010.5 231.157 M1979.15 215.722 L2010.61 215.722 Q2009.97 208.614 2007 205.06 Q2002.44 199.544 1995.17 199.544 Q1988.59 199.544 1984.08 203.946 Q1979.63 208.349 1979.15 215.722 Z" fill="#000000" fill-rule="nonzero" fill-opacity="1" /><path clip-path="url(#clip210)" d="M2023.55 270.886 L2023.55 263.99 L2086.83 263.99 L2086.83 270.886 L2023.55 270.886 Z" fill="#000000" fill-rule="nonzero" fill-opacity="1" /><path clip-path="url(#clip210)" d="M2092.77 270.886 L2092.77 192.967 L2101.47 192.967 L2101.47 200.286 Q2104.54 195.99 2108.42 193.868 Q2112.29 191.694 2117.8 191.694 Q2125.02 191.694 2130.53 195.407 Q2136.05 199.12 2138.86 205.909 Q2141.67 212.645 2141.67 220.708 Q2141.67 229.354 2138.54 236.302 Q2135.47 243.198 2129.53 246.911 Q2123.64 250.571 2117.11 250.571 Q2112.34 250.571 2108.52 248.555 Q2104.76 246.539 2102.32 243.463 L2102.32 270.886 L2092.77 270.886 M2101.41 221.45 Q2101.41 232.324 2105.82 237.522 Q2110.22 242.72 2116.48 242.72 Q2122.84 242.72 2127.35 237.363 Q2131.91 231.953 2131.91 220.655 Q2131.91 209.887 2127.46 204.53 Q2123.06 199.173 2116.9 199.173 Q2110.8 199.173 2106.08 204.901 Q2101.41 210.577 2101.41 221.45 Z" fill="#000000" fill-rule="nonzero" fill-opacity="1" /><path clip-path="url(#clip210)" d="M2186.49 249.298 L2176.95 249.298 L2176.95 188.458 Q2173.5 191.747 2167.88 195.035 Q2162.31 198.324 2157.85 199.968 L2157.85 190.739 Q2165.86 186.973 2171.85 181.616 Q2177.85 176.258 2180.34 171.219 L2186.49 171.219 L2186.49 249.298 Z" fill="#000000" fill-rule="nonzero" fill-opacity="1" /><path clip-path="url(#clip210)" d="M2261.12 240.121 L2261.12 249.298 L2209.73 249.298 Q2209.62 245.85 2210.84 242.667 Q2212.8 237.416 2217.1 232.324 Q2221.45 227.232 2229.62 220.549 Q2242.29 210.152 2246.75 204.106 Q2251.21 198.006 2251.21 192.595 Q2251.21 186.92 2247.12 183.048 Q2243.09 179.123 2236.57 179.123 Q2229.67 179.123 2225.53 183.26 Q2221.4 187.397 2221.34 194.717 L2211.53 193.709 Q2212.54 182.729 2219.11 177.001 Q2225.69 171.219 2236.78 171.219 Q2247.97 171.219 2254.49 177.425 Q2261.02 183.631 2261.02 192.808 Q2261.02 197.475 2259.11 201.984 Q2257.2 206.492 2252.74 211.478 Q2248.34 216.464 2238.05 225.163 Q2229.46 232.377 2227.02 234.976 Q2224.58 237.522 2222.99 240.121 L2261.12 240.121 Z" fill="#000000" fill-rule="nonzero" fill-opacity="1" /><polyline clip-path="url(#clip210)" style="stroke:#e26f46; stroke-linecap:round; stroke-linejoin:round; stroke-width:9; stroke-opacity:1; fill:none" points="1687.2,327.058 1824.65,327.058 "/>
<circle clip-path="url(#clip210)" cx="1755.92" cy="327.058" r="8.4844" fill="#e26f46" fill-rule="evenodd" fill-opacity="1" stroke="#000000" stroke-opacity="1" stroke-width="7.54169"/>
<path clip-path="url(#clip210)" d="M1887.23 345.304 L1896.62 346.524 Q1895.08 356.231 1888.71 361.747 Q1882.4 367.211 1873.17 367.211 Q1861.61 367.211 1854.56 359.679 Q1847.55 352.094 1847.55 337.984 Q1847.55 328.861 1850.58 322.019 Q1853.6 315.176 1859.75 311.781 Q1865.96 308.334 1873.23 308.334 Q1882.4 308.334 1888.24 313.001 Q1894.07 317.616 1895.72 326.156 L1886.43 327.588 Q1885.11 321.912 1881.71 319.048 Q1878.37 316.184 1873.6 316.184 Q1866.38 316.184 1861.88 321.382 Q1857.37 326.527 1857.37 337.719 Q1857.37 349.07 1861.72 354.215 Q1866.07 359.36 1873.07 359.36 Q1878.69 359.36 1882.46 355.913 Q1886.22 352.465 1887.23 345.304 Z" fill="#000000" fill-rule="nonzero" fill-opacity="1" /><path clip-path="url(#clip210)" d="M1904.68 365.938 L1904.68 309.607 L1913.27 309.607 L1913.27 318.146 Q1916.56 312.153 1919.32 310.243 Q1922.13 308.334 1925.47 308.334 Q1930.3 308.334 1935.29 311.41 L1932 320.268 Q1928.5 318.199 1925 318.199 Q1921.87 318.199 1919.37 320.109 Q1916.88 321.965 1915.82 325.307 Q1914.23 330.399 1914.23 336.446 L1914.23 365.938 L1904.68 365.938 Z" fill="#000000" fill-rule="nonzero" fill-opacity="1" /><path clip-path="url(#clip210)" d="M1940.96 365.938 L1940.96 309.607 L1949.55 309.607 L1949.55 317.616 Q1955.76 308.334 1967.48 308.334 Q1972.57 308.334 1976.82 310.19 Q1981.11 311.994 1983.24 314.964 Q1985.36 317.934 1986.21 322.019 Q1986.74 324.671 1986.74 331.301 L1986.74 365.938 L1977.19 365.938 L1977.19 331.672 Q1977.19 325.838 1976.08 322.973 Q1974.96 320.056 1972.1 318.359 Q1969.29 316.608 1965.47 316.608 Q1959.37 316.608 1954.91 320.48 Q1950.51 324.352 1950.51 335.173 L1950.51 365.938 L1940.96 365.938 Z" fill="#000000" fill-rule="nonzero" fill-opacity="1" /><path clip-path="url(#clip210)" d="M1992.57 387.526 L1992.57 380.63 L2055.85 380.63 L2055.85 387.526 L1992.57 387.526 Z" fill="#000000" fill-rule="nonzero" fill-opacity="1" /><path clip-path="url(#clip210)" d="M2063.01 365.938 L2063.01 288.178 L2092.34 288.178 Q2100.09 288.178 2104.17 288.92 Q2109.9 289.875 2113.77 292.58 Q2117.64 295.232 2119.98 300.059 Q2122.37 304.886 2122.37 310.667 Q2122.37 320.586 2116.05 327.482 Q2109.74 334.324 2093.25 334.324 L2073.3 334.324 L2073.3 365.938 L2063.01 365.938 M2073.3 325.148 L2093.4 325.148 Q2103.38 325.148 2107.57 321.435 Q2111.76 317.722 2111.76 310.986 Q2111.76 306.106 2109.26 302.658 Q2106.82 299.157 2102.79 298.043 Q2100.19 297.354 2093.19 297.354 L2073.3 297.354 L2073.3 325.148 Z" fill="#000000" fill-rule="nonzero" fill-opacity="1" /><path clip-path="url(#clip210)" d="M2167.56 365.938 L2158.01 365.938 L2158.01 305.098 Q2154.56 308.387 2148.94 311.675 Q2143.37 314.964 2138.91 316.608 L2138.91 307.379 Q2146.92 303.613 2152.92 298.256 Q2158.91 292.898 2161.4 287.859 L2167.56 287.859 L2167.56 365.938 Z" fill="#000000" fill-rule="nonzero" fill-opacity="1" /><path clip-path="url(#clip210)" d="M2242.19 356.761 L2242.19 365.938 L2190.79 365.938 Q2190.68 362.49 2191.9 359.307 Q2193.87 354.056 2198.16 348.964 Q2202.51 343.872 2210.68 337.189 Q2223.36 326.792 2227.81 320.746 Q2232.27 314.646 2232.27 309.235 Q2232.27 303.56 2228.19 299.688 Q2224.15 295.763 2217.63 295.763 Q2210.73 295.763 2206.6 299.9 Q2202.46 304.037 2202.41 311.357 L2192.59 310.349 Q2193.6 299.369 2200.18 293.641 Q2206.76 287.859 2217.84 287.859 Q2229.03 287.859 2235.56 294.065 Q2242.08 300.271 2242.08 309.448 Q2242.08 314.115 2240.17 318.624 Q2238.26 323.132 2233.81 328.118 Q2229.41 333.104 2219.11 341.803 Q2210.52 349.017 2208.08 351.616 Q2205.64 354.162 2204.05 356.761 L2242.19 356.761 Z" fill="#000000" fill-rule="nonzero" fill-opacity="1" /></svg>
