<?xml version="1.0" encoding="utf-8"?>
<svg xmlns="http://www.w3.org/2000/svg" xmlns:xlink="http://www.w3.org/1999/xlink" width="600" height="400" viewBox="0 0 2400 1600">
<defs>
  <clipPath id="clip850">
    <rect x="0" y="0" width="2400" height="1600"/>
  </clipPath>
</defs>
<path clip-path="url(#clip850)" d="M0 1600 L2400 1600 L2400 8.88178e-14 L0 8.88178e-14  Z" fill="#ffffff" fill-rule="evenodd" fill-opacity="1"/>
<defs>
  <clipPath id="clip851">
    <rect x="480" y="0" width="1681" height="1600"/>
  </clipPath>
</defs>
<path clip-path="url(#clip850)" d="M351.461 1443.25 L2352.76 1443.25 L2352.76 47.2441 L351.461 47.2441  Z" fill="#ffffff" fill-rule="evenodd" fill-opacity="1"/>
<defs>
  <clipPath id="clip852">
    <rect x="351" y="47" width="2002" height="1397"/>
  </clipPath>
</defs>
<polyline clip-path="url(#clip852)" style="stroke:#000000; stroke-linecap:round; stroke-linejoin:round; stroke-width:2; stroke-opacity:0.1; fill:none" points="617.881,1443.25 617.881,47.2441 "/>
<polyline clip-path="url(#clip852)" style="stroke:#000000; stroke-linecap:round; stroke-linejoin:round; stroke-width:2; stroke-opacity:0.1; fill:none" points="1037.44,1443.25 1037.44,47.2441 "/>
<polyline clip-path="url(#clip852)" style="stroke:#000000; stroke-linecap:round; stroke-linejoin:round; stroke-width:2; stroke-opacity:0.1; fill:none" points="1457,1443.25 1457,47.2441 "/>
<polyline clip-path="url(#clip852)" style="stroke:#000000; stroke-linecap:round; stroke-linejoin:round; stroke-width:2; stroke-opacity:0.1; fill:none" points="1876.56,1443.25 1876.56,47.2441 "/>
<polyline clip-path="url(#clip852)" style="stroke:#000000; stroke-linecap:round; stroke-linejoin:round; stroke-width:2; stroke-opacity:0.1; fill:none" points="2296.12,1443.25 2296.12,47.2441 "/>
<polyline clip-path="url(#clip850)" style="stroke:#000000; stroke-linecap:round; stroke-linejoin:round; stroke-width:4; stroke-opacity:1; fill:none" points="351.461,1443.25 2352.76,1443.25 "/>
<polyline clip-path="url(#clip850)" style="stroke:#000000; stroke-linecap:round; stroke-linejoin:round; stroke-width:4; stroke-opacity:1; fill:none" points="617.881,1443.25 617.881,1424.35 "/>
<polyline clip-path="url(#clip850)" style="stroke:#000000; stroke-linecap:round; stroke-linejoin:round; stroke-width:4; stroke-opacity:1; fill:none" points="1037.44,1443.25 1037.44,1424.35 "/>
<polyline clip-path="url(#clip850)" style="stroke:#000000; stroke-linecap:round; stroke-linejoin:round; stroke-width:4; stroke-opacity:1; fill:none" points="1457,1443.25 1457,1424.35 "/>
<polyline clip-path="url(#clip850)" style="stroke:#000000; stroke-linecap:round; stroke-linejoin:round; stroke-width:4; stroke-opacity:1; fill:none" points="1876.56,1443.25 1876.56,1424.35 "/>
<polyline clip-path="url(#clip850)" style="stroke:#000000; stroke-linecap:round; stroke-linejoin:round; stroke-width:4; stroke-opacity:1; fill:none" points="2296.12,1443.25 2296.12,1424.35 "/>
<path clip-path="url(#clip850)" d="M643.633 1550.47 L643.633 1559.65 L592.235 1559.65 Q592.129 1556.2 593.349 1553.02 Q595.311 1547.77 599.608 1542.67 Q603.957 1537.58 612.126 1530.9 Q624.803 1520.5 629.258 1514.46 Q633.714 1508.36 633.714 1502.95 Q633.714 1497.27 629.63 1493.4 Q625.598 1489.47 619.074 1489.47 Q612.179 1489.47 608.041 1493.61 Q603.904 1497.75 603.851 1505.07 L594.038 1504.06 Q595.046 1493.08 601.623 1487.35 Q608.201 1481.57 619.286 1481.57 Q630.478 1481.57 637.003 1487.78 Q643.527 1493.98 643.527 1503.16 Q643.527 1507.83 641.617 1512.33 Q639.708 1516.84 635.252 1521.83 Q630.85 1526.81 620.559 1535.51 Q611.967 1542.73 609.527 1545.33 Q607.087 1547.87 605.495 1550.47 L643.633 1550.47 Z" fill="#000000" fill-rule="nonzero" fill-opacity="1" /><path clip-path="url(#clip850)" d="M1044.28 1559.65 L1044.28 1541.03 L1010.55 1541.03 L1010.55 1532.28 L1046.03 1481.89 L1053.83 1481.89 L1053.83 1532.28 L1064.33 1532.28 L1064.33 1541.03 L1053.83 1541.03 L1053.83 1559.65 L1044.28 1559.65 M1044.28 1532.28 L1044.28 1497.22 L1019.94 1532.28 L1044.28 1532.28 Z" fill="#000000" fill-rule="nonzero" fill-opacity="1" /><path clip-path="url(#clip850)" d="M1481.29 1500.93 L1471.8 1501.67 Q1470.52 1496.05 1468.19 1493.5 Q1464.32 1489.42 1458.64 1489.42 Q1454.08 1489.42 1450.63 1491.97 Q1446.12 1495.25 1443.53 1501.57 Q1440.93 1507.88 1440.82 1519.55 Q1444.27 1514.3 1449.25 1511.75 Q1454.24 1509.2 1459.7 1509.2 Q1469.25 1509.2 1475.93 1516.26 Q1482.67 1523.26 1482.67 1534.4 Q1482.67 1541.72 1479.49 1548.03 Q1476.36 1554.29 1470.84 1557.63 Q1465.33 1560.97 1458.32 1560.97 Q1446.39 1560.97 1438.86 1552.22 Q1431.33 1543.42 1431.33 1523.26 Q1431.33 1500.72 1439.65 1490.48 Q1446.92 1481.57 1459.23 1481.57 Q1468.4 1481.57 1474.24 1486.71 Q1480.12 1491.86 1481.29 1500.93 M1442.31 1534.45 Q1442.31 1539.39 1444.37 1543.89 Q1446.5 1548.4 1450.26 1550.79 Q1454.03 1553.12 1458.17 1553.12 Q1464.21 1553.12 1468.56 1548.24 Q1472.91 1543.36 1472.91 1534.98 Q1472.91 1526.92 1468.61 1522.31 Q1464.32 1517.64 1457.79 1517.64 Q1451.32 1517.64 1446.81 1522.31 Q1442.31 1526.92 1442.31 1534.45 Z" fill="#000000" fill-rule="nonzero" fill-opacity="1" /><path clip-path="url(#clip850)" d="M1865.74 1517.48 Q1859.8 1515.3 1856.93 1511.27 Q1854.07 1507.24 1854.07 1501.62 Q1854.07 1493.13 1860.17 1487.35 Q1866.27 1481.57 1876.4 1481.57 Q1886.58 1481.57 1892.79 1487.51 Q1898.99 1493.4 1898.99 1501.88 Q1898.99 1507.3 1896.13 1511.33 Q1893.32 1515.3 1887.54 1517.48 Q1894.7 1519.81 1898.41 1525.01 Q1902.18 1530.21 1902.18 1537.42 Q1902.18 1547.4 1895.12 1554.18 Q1888.07 1560.97 1876.56 1560.97 Q1865.05 1560.97 1857.99 1554.18 Q1850.94 1547.34 1850.94 1537.16 Q1850.94 1529.57 1854.76 1524.48 Q1858.63 1519.34 1865.74 1517.48 M1863.83 1501.3 Q1863.83 1506.82 1867.38 1510.32 Q1870.93 1513.82 1876.61 1513.82 Q1882.13 1513.82 1885.63 1510.37 Q1889.18 1506.87 1889.18 1501.83 Q1889.18 1496.58 1885.52 1493.03 Q1881.91 1489.42 1876.5 1489.42 Q1871.04 1489.42 1867.43 1492.92 Q1863.83 1496.42 1863.83 1501.3 M1860.75 1537.21 Q1860.75 1541.3 1862.66 1545.11 Q1864.62 1548.93 1868.44 1551.06 Q1872.26 1553.12 1876.66 1553.12 Q1883.51 1553.12 1887.96 1548.72 Q1892.42 1544.32 1892.42 1537.53 Q1892.42 1530.63 1887.8 1526.13 Q1883.24 1521.62 1876.34 1521.62 Q1869.61 1521.62 1865.15 1526.07 Q1860.75 1530.53 1860.75 1537.21 Z" fill="#000000" fill-rule="nonzero" fill-opacity="1" /><path clip-path="url(#clip850)" d="M2272.86 1559.65 L2263.31 1559.65 L2263.31 1498.81 Q2259.86 1502.1 2254.24 1505.39 Q2248.67 1508.67 2244.21 1510.32 L2244.21 1501.09 Q2252.22 1497.32 2258.22 1491.97 Q2264.21 1486.61 2266.7 1481.57 L2272.86 1481.57 L2272.86 1559.65 Z" fill="#000000" fill-rule="nonzero" fill-opacity="1" /><path clip-path="url(#clip850)" d="M2297.31 1521.3 Q2297.31 1507.51 2300.12 1499.13 Q2302.98 1490.69 2308.55 1486.13 Q2314.18 1481.57 2322.66 1481.57 Q2328.92 1481.57 2333.64 1484.12 Q2338.36 1486.61 2341.44 1491.38 Q2344.52 1496.1 2346.27 1502.95 Q2348.02 1509.74 2348.02 1521.3 Q2348.02 1534.98 2345.21 1543.42 Q2342.39 1551.8 2336.77 1556.41 Q2331.2 1560.97 2322.66 1560.97 Q2311.42 1560.97 2305 1552.91 Q2297.31 1543.2 2297.31 1521.3 M2307.12 1521.3 Q2307.12 1540.45 2311.58 1546.81 Q2316.09 1553.12 2322.66 1553.12 Q2329.24 1553.12 2333.7 1546.76 Q2338.2 1540.39 2338.2 1521.3 Q2338.2 1502.1 2333.7 1495.78 Q2329.24 1489.47 2322.56 1489.47 Q2315.98 1489.47 2312.05 1495.04 Q2307.12 1502.15 2307.12 1521.3 Z" fill="#000000" fill-rule="nonzero" fill-opacity="1" /><polyline clip-path="url(#clip852)" style="stroke:#000000; stroke-linecap:round; stroke-linejoin:round; stroke-width:2; stroke-opacity:0.1; fill:none" points="351.461,1415.39 2352.76,1415.39 "/>
<polyline clip-path="url(#clip852)" style="stroke:#000000; stroke-linecap:round; stroke-linejoin:round; stroke-width:2; stroke-opacity:0.1; fill:none" points="351.461,1124.02 2352.76,1124.02 "/>
<polyline clip-path="url(#clip852)" style="stroke:#000000; stroke-linecap:round; stroke-linejoin:round; stroke-width:2; stroke-opacity:0.1; fill:none" points="351.461,832.656 2352.76,832.656 "/>
<polyline clip-path="url(#clip852)" style="stroke:#000000; stroke-linecap:round; stroke-linejoin:round; stroke-width:2; stroke-opacity:0.1; fill:none" points="351.461,541.288 2352.76,541.288 "/>
<polyline clip-path="url(#clip852)" style="stroke:#000000; stroke-linecap:round; stroke-linejoin:round; stroke-width:2; stroke-opacity:0.1; fill:none" points="351.461,249.92 2352.76,249.92 "/>
<polyline clip-path="url(#clip850)" style="stroke:#000000; stroke-linecap:round; stroke-linejoin:round; stroke-width:4; stroke-opacity:1; fill:none" points="351.461,1443.25 351.461,47.2441 "/>
<polyline clip-path="url(#clip850)" style="stroke:#000000; stroke-linecap:round; stroke-linejoin:round; stroke-width:4; stroke-opacity:1; fill:none" points="351.461,1415.39 370.359,1415.39 "/>
<polyline clip-path="url(#clip850)" style="stroke:#000000; stroke-linecap:round; stroke-linejoin:round; stroke-width:4; stroke-opacity:1; fill:none" points="351.461,1124.02 370.359,1124.02 "/>
<polyline clip-path="url(#clip850)" style="stroke:#000000; stroke-linecap:round; stroke-linejoin:round; stroke-width:4; stroke-opacity:1; fill:none" points="351.461,832.656 370.359,832.656 "/>
<polyline clip-path="url(#clip850)" style="stroke:#000000; stroke-linecap:round; stroke-linejoin:round; stroke-width:4; stroke-opacity:1; fill:none" points="351.461,541.288 370.359,541.288 "/>
<polyline clip-path="url(#clip850)" style="stroke:#000000; stroke-linecap:round; stroke-linejoin:round; stroke-width:4; stroke-opacity:1; fill:none" points="351.461,249.92 370.359,249.92 "/>
<path clip-path="url(#clip850)" d="M102.337 1420.38 L50.9921 1420.38 L50.9921 1411.47 L102.337 1411.47 L102.337 1420.38 Z" fill="#000000" fill-rule="nonzero" fill-opacity="1" /><path clip-path="url(#clip850)" d="M112.892 1415.92 Q112.892 1402.13 115.704 1393.75 Q118.568 1385.32 124.137 1380.76 Q129.76 1376.19 138.247 1376.19 Q144.506 1376.19 149.226 1378.74 Q153.947 1381.23 157.024 1386.01 Q160.1 1390.73 161.851 1397.57 Q163.601 1404.36 163.601 1415.92 Q163.601 1429.61 160.79 1438.04 Q157.978 1446.42 152.356 1451.04 Q146.787 1455.6 138.247 1455.6 Q127.002 1455.6 120.584 1447.54 Q112.892 1437.83 112.892 1415.92 M122.705 1415.92 Q122.705 1435.07 127.161 1441.44 Q131.669 1447.75 138.247 1447.75 Q144.824 1447.75 149.279 1441.38 Q153.788 1435.02 153.788 1415.92 Q153.788 1396.72 149.279 1390.41 Q144.824 1384.1 138.141 1384.1 Q131.563 1384.1 127.638 1389.67 Q122.705 1396.78 122.705 1415.92 Z" fill="#000000" fill-rule="nonzero" fill-opacity="1" /><path clip-path="url(#clip850)" d="M178.665 1454.27 L178.665 1443.4 L189.539 1443.4 L189.539 1454.27 L178.665 1454.27 Z" fill="#000000" fill-rule="nonzero" fill-opacity="1" /><path clip-path="url(#clip850)" d="M253.667 1445.1 L253.667 1454.27 L202.269 1454.27 Q202.163 1450.83 203.383 1447.64 Q205.345 1442.39 209.642 1437.3 Q213.991 1432.21 222.16 1425.52 Q234.837 1415.13 239.292 1409.08 Q243.748 1402.98 243.748 1397.57 Q243.748 1391.9 239.664 1388.02 Q235.632 1384.1 229.108 1384.1 Q222.213 1384.1 218.075 1388.24 Q213.938 1392.37 213.885 1399.69 L204.072 1398.68 Q205.08 1387.7 211.657 1381.98 Q218.234 1376.19 229.32 1376.19 Q240.512 1376.19 247.036 1382.4 Q253.561 1388.61 253.561 1397.78 Q253.561 1402.45 251.651 1406.96 Q249.742 1411.47 245.286 1416.45 Q240.884 1421.44 230.593 1430.14 Q222 1437.35 219.561 1439.95 Q217.121 1442.5 215.529 1445.1 L253.667 1445.1 Z" fill="#000000" fill-rule="nonzero" fill-opacity="1" /><path clip-path="url(#clip850)" d="M263.904 1433.9 L273.929 1433.06 Q275.043 1440.38 279.074 1444.09 Q283.158 1447.75 288.887 1447.75 Q295.782 1447.75 300.556 1442.55 Q305.33 1437.35 305.33 1428.76 Q305.33 1420.59 300.715 1415.87 Q296.154 1411.15 288.728 1411.15 Q284.113 1411.15 280.4 1413.27 Q276.687 1415.34 274.565 1418.68 L265.601 1417.51 L273.133 1377.57 L311.801 1377.57 L311.801 1386.7 L280.771 1386.7 L276.581 1407.6 Q283.583 1402.72 291.274 1402.72 Q301.458 1402.72 308.459 1409.77 Q315.461 1416.83 315.461 1427.91 Q315.461 1438.47 309.308 1446.16 Q301.829 1455.6 288.887 1455.6 Q278.278 1455.6 271.542 1449.66 Q264.859 1443.72 263.904 1433.9 Z" fill="#000000" fill-rule="nonzero" fill-opacity="1" /><path clip-path="url(#clip850)" d="M113.741 1124.56 Q113.741 1110.76 116.552 1102.38 Q119.417 1093.95 124.986 1089.39 Q130.609 1084.83 139.095 1084.83 Q145.354 1084.83 150.075 1087.37 Q154.796 1089.87 157.872 1094.64 Q160.949 1099.36 162.699 1106.2 Q164.45 1112.99 164.45 1124.56 Q164.45 1138.24 161.638 1146.67 Q158.827 1155.05 153.205 1159.67 Q147.635 1164.23 139.095 1164.23 Q127.85 1164.23 121.432 1156.17 Q113.741 1146.46 113.741 1124.56 M123.554 1124.56 Q123.554 1143.7 128.01 1150.07 Q132.518 1156.38 139.095 1156.38 Q145.673 1156.38 150.128 1150.02 Q154.637 1143.65 154.637 1124.56 Q154.637 1105.35 150.128 1099.04 Q145.673 1092.73 138.989 1092.73 Q132.412 1092.73 128.487 1098.3 Q123.554 1105.41 123.554 1124.56 Z" fill="#000000" fill-rule="nonzero" fill-opacity="1" /><path clip-path="url(#clip850)" d="M179.514 1162.9 L179.514 1152.03 L190.387 1152.03 L190.387 1162.9 L179.514 1162.9 Z" fill="#000000" fill-rule="nonzero" fill-opacity="1" /><path clip-path="url(#clip850)" d="M204.337 1124.56 Q204.337 1110.76 207.149 1102.38 Q210.013 1093.95 215.582 1089.39 Q221.205 1084.83 229.692 1084.83 Q235.951 1084.83 240.671 1087.37 Q245.392 1089.87 248.469 1094.64 Q251.545 1099.36 253.295 1106.2 Q255.046 1112.99 255.046 1124.56 Q255.046 1138.24 252.235 1146.67 Q249.423 1155.05 243.801 1159.67 Q238.231 1164.23 229.692 1164.23 Q218.447 1164.23 212.029 1156.17 Q204.337 1146.46 204.337 1124.56 M214.15 1124.56 Q214.15 1143.7 218.606 1150.07 Q223.114 1156.38 229.692 1156.38 Q236.269 1156.38 240.724 1150.02 Q245.233 1143.65 245.233 1124.56 Q245.233 1105.35 240.724 1099.04 Q236.269 1092.73 229.586 1092.73 Q223.008 1092.73 219.083 1098.3 Q214.15 1105.41 214.15 1124.56 Z" fill="#000000" fill-rule="nonzero" fill-opacity="1" /><path clip-path="url(#clip850)" d="M264.753 1124.56 Q264.753 1110.76 267.564 1102.38 Q270.428 1093.95 275.998 1089.39 Q281.62 1084.83 290.107 1084.83 Q296.366 1084.83 301.087 1087.37 Q305.807 1089.87 308.884 1094.64 Q311.96 1099.36 313.711 1106.2 Q315.461 1112.99 315.461 1124.56 Q315.461 1138.24 312.65 1146.67 Q309.839 1155.05 304.216 1159.67 Q298.647 1164.23 290.107 1164.23 Q278.862 1164.23 272.444 1156.17 Q264.753 1146.46 264.753 1124.56 M274.565 1124.56 Q274.565 1143.7 279.021 1150.07 Q283.53 1156.38 290.107 1156.38 Q296.684 1156.38 301.14 1150.02 Q305.648 1143.65 305.648 1124.56 Q305.648 1105.35 301.14 1099.04 Q296.684 1092.73 290.001 1092.73 Q283.423 1092.73 279.498 1098.3 Q274.565 1105.41 274.565 1124.56 Z" fill="#000000" fill-rule="nonzero" fill-opacity="1" /><path clip-path="url(#clip850)" d="M112.892 833.187 Q112.892 819.396 115.704 811.015 Q118.568 802.581 124.137 798.02 Q129.76 793.458 138.247 793.458 Q144.506 793.458 149.226 796.004 Q153.947 798.497 157.024 803.271 Q160.1 807.992 161.851 814.834 Q163.601 821.624 163.601 833.187 Q163.601 846.872 160.79 855.306 Q157.978 863.686 152.356 868.301 Q146.787 872.863 138.247 872.863 Q127.002 872.863 120.584 864.8 Q112.892 855.093 112.892 833.187 M122.705 833.187 Q122.705 852.335 127.161 858.7 Q131.669 865.012 138.247 865.012 Q144.824 865.012 149.279 858.647 Q153.788 852.282 153.788 833.187 Q153.788 813.986 149.279 807.674 Q144.824 801.362 138.141 801.362 Q131.563 801.362 127.638 806.931 Q122.705 814.039 122.705 833.187 Z" fill="#000000" fill-rule="nonzero" fill-opacity="1" /><path clip-path="url(#clip850)" d="M178.665 871.536 L178.665 860.663 L189.539 860.663 L189.539 871.536 L178.665 871.536 Z" fill="#000000" fill-rule="nonzero" fill-opacity="1" /><path clip-path="url(#clip850)" d="M253.667 862.36 L253.667 871.536 L202.269 871.536 Q202.163 868.089 203.383 864.906 Q205.345 859.655 209.642 854.563 Q213.991 849.471 222.16 842.788 Q234.837 832.391 239.292 826.344 Q243.748 820.245 243.748 814.834 Q243.748 809.159 239.664 805.287 Q235.632 801.362 229.108 801.362 Q222.213 801.362 218.075 805.499 Q213.938 809.636 213.885 816.956 L204.072 815.948 Q205.08 804.968 211.657 799.24 Q218.234 793.458 229.32 793.458 Q240.512 793.458 247.036 799.664 Q253.561 805.87 253.561 815.046 Q253.561 819.714 251.651 824.223 Q249.742 828.731 245.286 833.717 Q240.884 838.703 230.593 847.402 Q222 854.616 219.561 857.215 Q217.121 859.761 215.529 862.36 L253.667 862.36 Z" fill="#000000" fill-rule="nonzero" fill-opacity="1" /><path clip-path="url(#clip850)" d="M263.904 851.168 L273.929 850.32 Q275.043 857.639 279.074 861.352 Q283.158 865.012 288.887 865.012 Q295.782 865.012 300.556 859.814 Q305.33 854.616 305.33 846.023 Q305.33 837.855 300.715 833.134 Q296.154 828.413 288.728 828.413 Q284.113 828.413 280.4 830.535 Q276.687 832.603 274.565 835.945 L265.601 834.778 L273.133 794.837 L311.801 794.837 L311.801 803.961 L280.771 803.961 L276.581 824.859 Q283.583 819.979 291.274 819.979 Q301.458 819.979 308.459 827.034 Q315.461 834.089 315.461 845.174 Q315.461 855.73 309.308 863.421 Q301.829 872.863 288.887 872.863 Q278.278 872.863 271.542 866.922 Q264.859 860.981 263.904 851.168 Z" fill="#000000" fill-rule="nonzero" fill-opacity="1" /><path clip-path="url(#clip850)" d="M113.741 541.819 Q113.741 528.028 116.552 519.647 Q119.417 511.213 124.986 506.652 Q130.609 502.09 139.095 502.09 Q145.354 502.09 150.075 504.636 Q154.796 507.129 157.872 511.903 Q160.949 516.624 162.699 523.466 Q164.45 530.255 164.45 541.819 Q164.45 555.504 161.638 563.937 Q158.827 572.318 153.205 576.933 Q147.635 581.494 139.095 581.494 Q127.85 581.494 121.432 573.432 Q113.741 563.725 113.741 541.819 M123.554 541.819 Q123.554 560.967 128.01 567.332 Q132.518 573.644 139.095 573.644 Q145.673 573.644 150.128 567.279 Q154.637 560.914 154.637 541.819 Q154.637 522.617 150.128 516.305 Q145.673 509.993 138.989 509.993 Q132.412 509.993 128.487 515.563 Q123.554 522.67 123.554 541.819 Z" fill="#000000" fill-rule="nonzero" fill-opacity="1" /><path clip-path="url(#clip850)" d="M179.514 580.168 L179.514 569.295 L190.387 569.295 L190.387 580.168 L179.514 580.168 Z" fill="#000000" fill-rule="nonzero" fill-opacity="1" /><path clip-path="url(#clip850)" d="M204.337 559.8 L214.362 558.951 Q215.476 566.271 219.507 569.984 Q223.592 573.644 229.32 573.644 Q236.216 573.644 240.99 568.446 Q245.763 563.248 245.763 554.655 Q245.763 546.486 241.149 541.766 Q236.587 537.045 229.161 537.045 Q224.547 537.045 220.834 539.166 Q217.121 541.235 214.999 544.577 L206.035 543.41 L213.567 503.469 L252.235 503.469 L252.235 512.592 L221.205 512.592 L217.014 533.491 Q224.016 528.611 231.707 528.611 Q241.891 528.611 248.893 535.666 Q255.894 542.72 255.894 553.806 Q255.894 564.362 249.742 572.053 Q242.263 581.494 229.32 581.494 Q218.712 581.494 211.975 575.553 Q205.292 569.613 204.337 559.8 Z" fill="#000000" fill-rule="nonzero" fill-opacity="1" /><path clip-path="url(#clip850)" d="M264.753 541.819 Q264.753 528.028 267.564 519.647 Q270.428 511.213 275.998 506.652 Q281.62 502.09 290.107 502.09 Q296.366 502.09 301.087 504.636 Q305.807 507.129 308.884 511.903 Q311.96 516.624 313.711 523.466 Q315.461 530.255 315.461 541.819 Q315.461 555.504 312.65 563.937 Q309.839 572.318 304.216 576.933 Q298.647 581.494 290.107 581.494 Q278.862 581.494 272.444 573.432 Q264.753 563.725 264.753 541.819 M274.565 541.819 Q274.565 560.967 279.021 567.332 Q283.53 573.644 290.107 573.644 Q296.684 573.644 301.14 567.279 Q305.648 560.914 305.648 541.819 Q305.648 522.617 301.14 516.305 Q296.684 509.993 290.001 509.993 Q283.423 509.993 279.498 515.563 Q274.565 522.67 274.565 541.819 Z" fill="#000000" fill-rule="nonzero" fill-opacity="1" /><path clip-path="url(#clip850)" d="M112.892 250.45 Q112.892 236.659 115.704 228.279 Q118.568 219.845 124.137 215.283 Q129.76 210.722 138.247 210.722 Q144.506 210.722 149.226 213.268 Q153.947 215.761 157.024 220.534 Q160.1 225.255 161.851 232.098 Q163.601 238.887 163.601 250.45 Q163.601 264.135 160.79 272.569 Q157.978 280.95 152.356 285.564 Q146.787 290.126 138.247 290.126 Q127.002 290.126 120.584 282.064 Q112.892 272.357 112.892 250.45 M122.705 250.45 Q122.705 269.599 127.161 275.964 Q131.669 282.276 138.247 282.276 Q144.824 282.276 149.279 275.911 Q153.788 269.546 153.788 250.45 Q153.788 231.249 149.279 224.937 Q144.824 218.625 138.141 218.625 Q131.563 218.625 127.638 224.194 Q122.705 231.302 122.705 250.45 Z" fill="#000000" fill-rule="nonzero" fill-opacity="1" /><path clip-path="url(#clip850)" d="M178.665 288.8 L178.665 277.926 L189.539 277.926 L189.539 288.8 L178.665 288.8 Z" fill="#000000" fill-rule="nonzero" fill-opacity="1" /><path clip-path="url(#clip850)" d="M204.125 221.224 L204.125 212.048 L254.462 212.048 L254.462 219.474 Q247.036 227.377 239.717 240.478 Q232.45 253.58 228.472 267.424 Q225.607 277.184 224.812 288.8 L214.999 288.8 Q215.158 279.624 218.606 266.628 Q222.054 253.633 228.472 241.592 Q234.943 229.499 242.21 221.224 L204.125 221.224 Z" fill="#000000" fill-rule="nonzero" fill-opacity="1" /><path clip-path="url(#clip850)" d="M263.904 268.432 L273.929 267.583 Q275.043 274.903 279.074 278.616 Q283.158 282.276 288.887 282.276 Q295.782 282.276 300.556 277.078 Q305.33 271.879 305.33 263.287 Q305.33 255.118 300.715 250.397 Q296.154 245.676 288.728 245.676 Q284.113 245.676 280.4 247.798 Q276.687 249.867 274.565 253.209 L265.601 252.042 L273.133 212.101 L311.801 212.101 L311.801 221.224 L280.771 221.224 L276.581 242.123 Q283.583 237.243 291.274 237.243 Q301.458 237.243 308.459 244.297 Q315.461 251.352 315.461 262.438 Q315.461 272.993 309.308 280.684 Q301.829 290.126 288.887 290.126 Q278.278 290.126 271.542 284.185 Q264.859 278.244 263.904 268.432 Z" fill="#000000" fill-rule="nonzero" fill-opacity="1" /><polyline clip-path="url(#clip852)" style="stroke:#009af9; stroke-linecap:round; stroke-linejoin:round; stroke-width:4; stroke-opacity:1; fill:none" points="408.101,87.0109 617.881,780.165 827.66,968.618 1037.44,1089.17 1247.22,1172.34 1457,1231.72 1666.78,1275.12 1876.56,1307.49 2086.34,1332.07 2296.12,1351.06 "/>
<line clip-path="url(#clip852)" x1="408.101" y1="87.0109" x2="384.101" y2="63.0109" style="stroke:#009af9; stroke-width:4; stroke-opacity:1"/>
<line clip-path="url(#clip852)" x1="408.101" y1="87.0109" x2="384.101" y2="111.011" style="stroke:#009af9; stroke-width:4; stroke-opacity:1"/>
<line clip-path="url(#clip852)" x1="408.101" y1="87.0109" x2="432.101" y2="111.011" style="stroke:#009af9; stroke-width:4; stroke-opacity:1"/>
<line clip-path="url(#clip852)" x1="408.101" y1="87.0109" x2="432.101" y2="63.0109" style="stroke:#009af9; stroke-width:4; stroke-opacity:1"/>
<line clip-path="url(#clip852)" x1="617.881" y1="780.165" x2="593.881" y2="756.165" style="stroke:#009af9; stroke-width:4; stroke-opacity:1"/>
<line clip-path="url(#clip852)" x1="617.881" y1="780.165" x2="593.881" y2="804.165" style="stroke:#009af9; stroke-width:4; stroke-opacity:1"/>
<line clip-path="url(#clip852)" x1="617.881" y1="780.165" x2="641.881" y2="804.165" style="stroke:#009af9; stroke-width:4; stroke-opacity:1"/>
<line clip-path="url(#clip852)" x1="617.881" y1="780.165" x2="641.881" y2="756.165" style="stroke:#009af9; stroke-width:4; stroke-opacity:1"/>
<line clip-path="url(#clip852)" x1="827.66" y1="968.618" x2="803.66" y2="944.618" style="stroke:#009af9; stroke-width:4; stroke-opacity:1"/>
<line clip-path="url(#clip852)" x1="827.66" y1="968.618" x2="803.66" y2="992.618" style="stroke:#009af9; stroke-width:4; stroke-opacity:1"/>
<line clip-path="url(#clip852)" x1="827.66" y1="968.618" x2="851.66" y2="992.618" style="stroke:#009af9; stroke-width:4; stroke-opacity:1"/>
<line clip-path="url(#clip852)" x1="827.66" y1="968.618" x2="851.66" y2="944.618" style="stroke:#009af9; stroke-width:4; stroke-opacity:1"/>
<line clip-path="url(#clip852)" x1="1037.44" y1="1089.17" x2="1013.44" y2="1065.17" style="stroke:#009af9; stroke-width:4; stroke-opacity:1"/>
<line clip-path="url(#clip852)" x1="1037.44" y1="1089.17" x2="1013.44" y2="1113.17" style="stroke:#009af9; stroke-width:4; stroke-opacity:1"/>
<line clip-path="url(#clip852)" x1="1037.44" y1="1089.17" x2="1061.44" y2="1113.17" style="stroke:#009af9; stroke-width:4; stroke-opacity:1"/>
<line clip-path="url(#clip852)" x1="1037.44" y1="1089.17" x2="1061.44" y2="1065.17" style="stroke:#009af9; stroke-width:4; stroke-opacity:1"/>
<line clip-path="url(#clip852)" x1="1247.22" y1="1172.34" x2="1223.22" y2="1148.34" style="stroke:#009af9; stroke-width:4; stroke-opacity:1"/>
<line clip-path="url(#clip852)" x1="1247.22" y1="1172.34" x2="1223.22" y2="1196.34" style="stroke:#009af9; stroke-width:4; stroke-opacity:1"/>
<line clip-path="url(#clip852)" x1="1247.22" y1="1172.34" x2="1271.22" y2="1196.34" style="stroke:#009af9; stroke-width:4; stroke-opacity:1"/>
<line clip-path="url(#clip852)" x1="1247.22" y1="1172.34" x2="1271.22" y2="1148.34" style="stroke:#009af9; stroke-width:4; stroke-opacity:1"/>
<line clip-path="url(#clip852)" x1="1457" y1="1231.72" x2="1433" y2="1207.72" style="stroke:#009af9; stroke-width:4; stroke-opacity:1"/>
<line clip-path="url(#clip852)" x1="1457" y1="1231.72" x2="1433" y2="1255.72" style="stroke:#009af9; stroke-width:4; stroke-opacity:1"/>
<line clip-path="url(#clip852)" x1="1457" y1="1231.72" x2="1481" y2="1255.72" style="stroke:#009af9; stroke-width:4; stroke-opacity:1"/>
<line clip-path="url(#clip852)" x1="1457" y1="1231.72" x2="1481" y2="1207.72" style="stroke:#009af9; stroke-width:4; stroke-opacity:1"/>
<line clip-path="url(#clip852)" x1="1666.78" y1="1275.12" x2="1642.78" y2="1251.12" style="stroke:#009af9; stroke-width:4; stroke-opacity:1"/>
<line clip-path="url(#clip852)" x1="1666.78" y1="1275.12" x2="1642.78" y2="1299.12" style="stroke:#009af9; stroke-width:4; stroke-opacity:1"/>
<line clip-path="url(#clip852)" x1="1666.78" y1="1275.12" x2="1690.78" y2="1299.12" style="stroke:#009af9; stroke-width:4; stroke-opacity:1"/>
<line clip-path="url(#clip852)" x1="1666.78" y1="1275.12" x2="1690.78" y2="1251.12" style="stroke:#009af9; stroke-width:4; stroke-opacity:1"/>
<line clip-path="url(#clip852)" x1="1876.56" y1="1307.49" x2="1852.56" y2="1283.49" style="stroke:#009af9; stroke-width:4; stroke-opacity:1"/>
<line clip-path="url(#clip852)" x1="1876.56" y1="1307.49" x2="1852.56" y2="1331.49" style="stroke:#009af9; stroke-width:4; stroke-opacity:1"/>
<line clip-path="url(#clip852)" x1="1876.56" y1="1307.49" x2="1900.56" y2="1331.49" style="stroke:#009af9; stroke-width:4; stroke-opacity:1"/>
<line clip-path="url(#clip852)" x1="1876.56" y1="1307.49" x2="1900.56" y2="1283.49" style="stroke:#009af9; stroke-width:4; stroke-opacity:1"/>
<line clip-path="url(#clip852)" x1="2086.34" y1="1332.07" x2="2062.34" y2="1308.07" style="stroke:#009af9; stroke-width:4; stroke-opacity:1"/>
<line clip-path="url(#clip852)" x1="2086.34" y1="1332.07" x2="2062.34" y2="1356.07" style="stroke:#009af9; stroke-width:4; stroke-opacity:1"/>
<line clip-path="url(#clip852)" x1="2086.34" y1="1332.07" x2="2110.34" y2="1356.07" style="stroke:#009af9; stroke-width:4; stroke-opacity:1"/>
<line clip-path="url(#clip852)" x1="2086.34" y1="1332.07" x2="2110.34" y2="1308.07" style="stroke:#009af9; stroke-width:4; stroke-opacity:1"/>
<line clip-path="url(#clip852)" x1="2296.12" y1="1351.06" x2="2272.12" y2="1327.06" style="stroke:#009af9; stroke-width:4; stroke-opacity:1"/>
<line clip-path="url(#clip852)" x1="2296.12" y1="1351.06" x2="2272.12" y2="1375.06" style="stroke:#009af9; stroke-width:4; stroke-opacity:1"/>
<line clip-path="url(#clip852)" x1="2296.12" y1="1351.06" x2="2320.12" y2="1375.06" style="stroke:#009af9; stroke-width:4; stroke-opacity:1"/>
<line clip-path="url(#clip852)" x1="2296.12" y1="1351.06" x2="2320.12" y2="1327.06" style="stroke:#009af9; stroke-width:4; stroke-opacity:1"/>
<polyline clip-path="url(#clip852)" style="stroke:#e26f46; stroke-linecap:round; stroke-linejoin:round; stroke-width:4; stroke-opacity:1; fill:none" points="408.101,86.7536 617.881,739.419 827.66,867.621 1037.44,984.168 1247.22,1077.41 1457,1158.99 1666.78,1240.57 1876.56,1322.16 2086.34,1368.77 2296.12,1403.74 "/>
<circle clip-path="url(#clip852)" cx="408.101" cy="86.7536" r="14.4" fill="#e26f46" fill-rule="evenodd" fill-opacity="1" stroke="#000000" stroke-opacity="1" stroke-width="3.2"/>
<circle clip-path="url(#clip852)" cx="617.881" cy="739.419" r="14.4" fill="#e26f46" fill-rule="evenodd" fill-opacity="1" stroke="#000000" stroke-opacity="1" stroke-width="3.2"/>
<circle clip-path="url(#clip852)" cx="827.66" cy="867.621" r="14.4" fill="#e26f46" fill-rule="evenodd" fill-opacity="1" stroke="#000000" stroke-opacity="1" stroke-width="3.2"/>
<circle clip-path="url(#clip852)" cx="1037.44" cy="984.168" r="14.4" fill="#e26f46" fill-rule="evenodd" fill-opacity="1" stroke="#000000" stroke-opacity="1" stroke-width="3.2"/>
<circle clip-path="url(#clip852)" cx="1247.22" cy="1077.41" r="14.4" fill="#e26f46" fill-rule="evenodd" fill-opacity="1" stroke="#000000" stroke-opacity="1" stroke-width="3.2"/>
<circle clip-path="url(#clip852)" cx="1457" cy="1158.99" r="14.4" fill="#e26f46" fill-rule="evenodd" fill-opacity="1" stroke="#000000" stroke-opacity="1" stroke-width="3.2"/>
<circle clip-path="url(#clip852)" cx="1666.78" cy="1240.57" r="14.4" fill="#e26f46" fill-rule="evenodd" fill-opacity="1" stroke="#000000" stroke-opacity="1" stroke-width="3.2"/>
<circle clip-path="url(#clip852)" cx="1876.56" cy="1322.16" r="14.4" fill="#e26f46" fill-rule="evenodd" fill-opacity="1" stroke="#000000" stroke-opacity="1" stroke-width="3.2"/>
<circle clip-path="url(#clip852)" cx="2086.34" cy="1368.77" r="14.4" fill="#e26f46" fill-rule="evenodd" fill-opacity="1" stroke="#000000" stroke-opacity="1" stroke-width="3.2"/>
<circle clip-path="url(#clip852)" cx="2296.12" cy="1403.74" r="14.4" fill="#e26f46" fill-rule="evenodd" fill-opacity="1" stroke="#000000" stroke-opacity="1" stroke-width="3.2"/>
<path clip-path="url(#clip850)" d="M1686.56 443.698 L2286.05 443.698 L2286.05 93.7776 L1686.56 93.7776  Z" fill="#ffffff" fill-rule="evenodd" fill-opacity="1"/>
<polyline clip-path="url(#clip850)" style="stroke:#000000; stroke-linecap:round; stroke-linejoin:round; stroke-width:4; stroke-opacity:1; fill:none" points="1686.56,443.698 2286.05,443.698 2286.05,93.7776 1686.56,93.7776 1686.56,443.698 "/>
<polyline clip-path="url(#clip850)" style="stroke:#009af9; stroke-linecap:round; stroke-linejoin:round; stroke-width:9; stroke-opacity:1; fill:none" points="1708.8,210.418 1842.22,210.418 "/>
<line clip-path="url(#clip850)" x1="1775.51" y1="210.418" x2="1766.36" y2="201.267" style="stroke:#009af9; stroke-width:9; stroke-opacity:1"/>
<line clip-path="url(#clip850)" x1="1775.51" y1="210.418" x2="1766.36" y2="219.568" style="stroke:#009af9; stroke-width:9; stroke-opacity:1"/>
<line clip-path="url(#clip850)" x1="1775.51" y1="210.418" x2="1784.66" y2="219.568" style="stroke:#009af9; stroke-width:9; stroke-opacity:1"/>
<line clip-path="url(#clip850)" x1="1775.51" y1="210.418" x2="1784.66" y2="201.267" style="stroke:#009af9; stroke-width:9; stroke-opacity:1"/>
<path clip-path="url(#clip850)" d="M1864.45 221.132 Q1864.45 205.485 1873.15 197.953 Q1880.42 191.694 1890.87 191.694 Q1902.49 191.694 1909.86 199.332 Q1917.23 206.917 1917.23 220.336 Q1917.23 231.21 1913.94 237.469 Q1910.71 243.675 1904.45 247.123 Q1898.24 250.571 1890.87 250.571 Q1879.04 250.571 1871.72 242.986 Q1864.45 235.4 1864.45 221.132 M1874.27 221.132 Q1874.27 231.953 1878.99 237.363 Q1883.71 242.72 1890.87 242.72 Q1897.98 242.72 1902.7 237.31 Q1907.42 231.9 1907.42 220.814 Q1907.42 210.365 1902.64 205.007 Q1897.92 199.597 1890.87 199.597 Q1883.71 199.597 1878.99 204.954 Q1874.27 210.311 1874.27 221.132 Z" fill="#000000" fill-rule="nonzero" fill-opacity="1" /><path clip-path="url(#clip850)" d="M1964.97 249.298 L1964.97 242.19 Q1959.61 250.571 1949.22 250.571 Q1942.48 250.571 1936.8 246.858 Q1931.18 243.145 1928.05 236.514 Q1924.98 229.831 1924.98 221.185 Q1924.98 212.751 1927.79 205.909 Q1930.6 199.013 1936.22 195.354 Q1941.84 191.694 1948.79 191.694 Q1953.88 191.694 1957.86 193.868 Q1961.84 195.99 1964.33 199.438 L1964.33 171.538 L1973.83 171.538 L1973.83 249.298 L1964.97 249.298 M1934.79 221.185 Q1934.79 232.006 1939.35 237.363 Q1943.91 242.72 1950.12 242.72 Q1956.38 242.72 1960.73 237.628 Q1965.13 232.483 1965.13 221.981 Q1965.13 210.418 1960.67 205.007 Q1956.22 199.597 1949.69 199.597 Q1943.33 199.597 1939.03 204.795 Q1934.79 209.993 1934.79 221.185 Z" fill="#000000" fill-rule="nonzero" fill-opacity="1" /><path clip-path="url(#clip850)" d="M2027.4 231.157 L2037.27 232.377 Q2034.93 241.023 2028.62 245.797 Q2022.31 250.571 2012.5 250.571 Q2000.14 250.571 1992.87 242.986 Q1985.66 235.347 1985.66 221.609 Q1985.66 207.394 1992.98 199.544 Q2000.3 191.694 2011.96 191.694 Q2023.26 191.694 2030.42 199.385 Q2037.58 207.076 2037.58 221.026 Q2037.58 221.875 2037.53 223.572 L1995.52 223.572 Q1996.05 232.854 2000.77 237.787 Q2005.49 242.72 2012.55 242.72 Q2017.8 242.72 2021.51 239.962 Q2025.23 237.204 2027.4 231.157 M1996.05 215.722 L2027.51 215.722 Q2026.87 208.614 2023.9 205.06 Q2019.34 199.544 2012.07 199.544 Q2005.49 199.544 2000.98 203.946 Q1996.53 208.349 1996.05 215.722 Z" fill="#000000" fill-rule="nonzero" fill-opacity="1" /><path clip-path="url(#clip850)" d="M2040.45 270.886 L2040.45 263.99 L2103.73 263.99 L2103.73 270.886 L2040.45 270.886 Z" fill="#000000" fill-rule="nonzero" fill-opacity="1" /><path clip-path="url(#clip850)" d="M2109.67 270.886 L2109.67 192.967 L2118.37 192.967 L2118.37 200.286 Q2121.44 195.99 2125.32 193.868 Q2129.19 191.694 2134.7 191.694 Q2141.92 191.694 2147.43 195.407 Q2152.95 199.12 2155.76 205.909 Q2158.57 212.645 2158.57 220.708 Q2158.57 229.354 2155.44 236.302 Q2152.37 243.198 2146.43 246.911 Q2140.54 250.571 2134.01 250.571 Q2129.24 250.571 2125.42 248.555 Q2121.66 246.539 2119.22 243.463 L2119.22 270.886 L2109.67 270.886 M2118.31 221.45 Q2118.31 232.324 2122.72 237.522 Q2127.12 242.72 2133.38 242.72 Q2139.74 242.72 2144.25 237.363 Q2148.81 231.953 2148.81 220.655 Q2148.81 209.887 2144.36 204.53 Q2139.96 199.173 2133.8 199.173 Q2127.7 199.173 2122.98 204.901 Q2118.31 210.577 2118.31 221.45 Z" fill="#000000" fill-rule="nonzero" fill-opacity="1" /><path clip-path="url(#clip850)" d="M2217.61 240.121 L2217.61 249.298 L2166.21 249.298 Q2166.11 245.85 2167.33 242.667 Q2169.29 237.416 2173.58 232.324 Q2177.93 227.232 2186.1 220.549 Q2198.78 210.152 2203.24 204.106 Q2207.69 198.006 2207.69 192.595 Q2207.69 186.92 2203.61 183.048 Q2199.58 179.123 2193.05 179.123 Q2186.16 179.123 2182.02 183.26 Q2177.88 187.397 2177.83 194.717 L2168.02 193.709 Q2169.02 182.729 2175.6 177.001 Q2182.18 171.219 2193.26 171.219 Q2204.46 171.219 2210.98 177.425 Q2217.5 183.631 2217.5 192.808 Q2217.5 197.475 2215.59 201.984 Q2213.68 206.492 2209.23 211.478 Q2204.83 216.464 2194.54 225.163 Q2185.94 232.377 2183.5 234.976 Q2181.06 237.522 2179.47 240.121 L2217.61 240.121 Z" fill="#000000" fill-rule="nonzero" fill-opacity="1" /><path clip-path="url(#clip850)" d="M2263.81 249.298 L2254.26 249.298 L2254.26 188.458 Q2250.81 191.747 2245.19 195.035 Q2239.62 198.324 2235.17 199.968 L2235.17 190.739 Q2243.18 186.973 2249.17 181.616 Q2255.16 176.258 2257.66 171.219 L2263.81 171.219 L2263.81 249.298 Z" fill="#000000" fill-rule="nonzero" fill-opacity="1" /><polyline clip-path="url(#clip850)" style="stroke:#e26f46; stroke-linecap:round; stroke-linejoin:round; stroke-width:9; stroke-opacity:1; fill:none" points="1708.8,327.058 1842.22,327.058 "/>
<circle clip-path="url(#clip850)" cx="1775.51" cy="327.058" r="8.23578" fill="#e26f46" fill-rule="evenodd" fill-opacity="1" stroke="#000000" stroke-opacity="1" stroke-width="7.32069"/>
<path clip-path="url(#clip850)" d="M1904.13 345.304 L1913.52 346.524 Q1911.98 356.231 1905.61 361.747 Q1899.3 367.211 1890.07 367.211 Q1878.51 367.211 1871.46 359.679 Q1864.45 352.094 1864.45 337.984 Q1864.45 328.861 1867.48 322.019 Q1870.5 315.176 1876.65 311.781 Q1882.86 308.334 1890.13 308.334 Q1899.3 308.334 1905.14 313.001 Q1910.97 317.616 1912.62 326.156 L1903.33 327.588 Q1902.01 321.912 1898.61 319.048 Q1895.27 316.184 1890.5 316.184 Q1883.28 316.184 1878.78 321.382 Q1874.27 326.527 1874.27 337.719 Q1874.27 349.07 1878.62 354.215 Q1882.97 359.36 1889.97 359.36 Q1895.59 359.36 1899.36 355.913 Q1903.12 352.465 1904.13 345.304 Z" fill="#000000" fill-rule="nonzero" fill-opacity="1" /><path clip-path="url(#clip850)" d="M1921.58 365.938 L1921.58 309.607 L1930.17 309.607 L1930.17 318.146 Q1933.46 312.153 1936.22 310.243 Q1939.03 308.334 1942.37 308.334 Q1947.2 308.334 1952.19 311.41 L1948.9 320.268 Q1945.4 318.199 1941.9 318.199 Q1938.77 318.199 1936.27 320.109 Q1933.78 321.965 1932.72 325.307 Q1931.13 330.399 1931.13 336.446 L1931.13 365.938 L1921.58 365.938 Z" fill="#000000" fill-rule="nonzero" fill-opacity="1" /><path clip-path="url(#clip850)" d="M1957.86 365.938 L1957.86 309.607 L1966.45 309.607 L1966.45 317.616 Q1972.66 308.334 1984.38 308.334 Q1989.47 308.334 1993.72 310.19 Q1998.01 311.994 2000.14 314.964 Q2002.26 317.934 2003.11 322.019 Q2003.64 324.671 2003.64 331.301 L2003.64 365.938 L1994.09 365.938 L1994.09 331.672 Q1994.09 325.838 1992.98 322.973 Q1991.86 320.056 1989 318.359 Q1986.19 316.608 1982.37 316.608 Q1976.27 316.608 1971.81 320.48 Q1967.41 324.352 1967.41 335.173 L1967.41 365.938 L1957.86 365.938 Z" fill="#000000" fill-rule="nonzero" fill-opacity="1" /><path clip-path="url(#clip850)" d="M2009.47 387.526 L2009.47 380.63 L2072.75 380.63 L2072.75 387.526 L2009.47 387.526 Z" fill="#000000" fill-rule="nonzero" fill-opacity="1" /><path clip-path="url(#clip850)" d="M2079.91 365.938 L2079.91 288.178 L2109.24 288.178 Q2116.99 288.178 2121.07 288.92 Q2126.8 289.875 2130.67 292.58 Q2134.55 295.232 2136.88 300.059 Q2139.27 304.886 2139.27 310.667 Q2139.27 320.586 2132.95 327.482 Q2126.64 334.324 2110.15 334.324 L2090.2 334.324 L2090.2 365.938 L2079.91 365.938 M2090.2 325.148 L2110.31 325.148 Q2120.28 325.148 2124.47 321.435 Q2128.66 317.722 2128.66 310.986 Q2128.66 306.106 2126.16 302.658 Q2123.72 299.157 2119.69 298.043 Q2117.09 297.354 2110.09 297.354 L2090.2 297.354 L2090.2 325.148 Z" fill="#000000" fill-rule="nonzero" fill-opacity="1" /><path clip-path="url(#clip850)" d="M2198.67 356.761 L2198.67 365.938 L2147.28 365.938 Q2147.17 362.49 2148.39 359.307 Q2150.35 354.056 2154.65 348.964 Q2159 343.872 2167.17 337.189 Q2179.84 326.792 2184.3 320.746 Q2188.75 314.646 2188.75 309.235 Q2188.75 303.56 2184.67 299.688 Q2180.64 295.763 2174.11 295.763 Q2167.22 295.763 2163.08 299.9 Q2158.94 304.037 2158.89 311.357 L2149.08 310.349 Q2150.09 299.369 2156.66 293.641 Q2163.24 287.859 2174.33 287.859 Q2185.52 287.859 2192.04 294.065 Q2198.57 300.271 2198.57 309.448 Q2198.57 314.115 2196.66 318.624 Q2194.75 323.132 2190.29 328.118 Q2185.89 333.104 2175.6 341.803 Q2167.01 349.017 2164.57 351.616 Q2162.13 354.162 2160.54 356.761 L2198.67 356.761 Z" fill="#000000" fill-rule="nonzero" fill-opacity="1" /><path clip-path="url(#clip850)" d="M2244.87 365.938 L2235.33 365.938 L2235.33 305.098 Q2231.88 308.387 2226.26 311.675 Q2220.69 314.964 2216.23 316.608 L2216.23 307.379 Q2224.24 303.613 2230.23 298.256 Q2236.23 292.898 2238.72 287.859 L2244.87 287.859 L2244.87 365.938 Z" fill="#000000" fill-rule="nonzero" fill-opacity="1" /></svg>
