<?xml version="1.0" encoding="utf-8"?>
<svg xmlns="http://www.w3.org/2000/svg" xmlns:xlink="http://www.w3.org/1999/xlink" width="600" height="400" viewBox="0 0 2400 1600">
<defs>
  <clipPath id="clip310">
    <rect x="0" y="0" width="2400" height="1600"/>
  </clipPath>
</defs>
<path clip-path="url(#clip310)" d="M0 1600 L2400 1600 L2400 8.88178e-14 L0 8.88178e-14  Z" fill="#ffffff" fill-rule="evenodd" fill-opacity="1"/>
<defs>
  <clipPath id="clip311">
    <rect x="480" y="0" width="1681" height="1600"/>
  </clipPath>
</defs>
<path clip-path="url(#clip310)" d="M291.046 1443.25 L2352.76 1443.25 L2352.76 47.2441 L291.046 47.2441  Z" fill="#ffffff" fill-rule="evenodd" fill-opacity="1"/>
<defs>
  <clipPath id="clip312">
    <rect x="291" y="47" width="2063" height="1397"/>
  </clipPath>
</defs>
<polyline clip-path="url(#clip312)" style="stroke:#000000; stroke-linecap:round; stroke-linejoin:round; stroke-width:2; stroke-opacity:0.1; fill:none" points="565.508,1443.25 565.508,47.2441 "/>
<polyline clip-path="url(#clip312)" style="stroke:#000000; stroke-linecap:round; stroke-linejoin:round; stroke-width:2; stroke-opacity:0.1; fill:none" points="997.733,1443.25 997.733,47.2441 "/>
<polyline clip-path="url(#clip312)" style="stroke:#000000; stroke-linecap:round; stroke-linejoin:round; stroke-width:2; stroke-opacity:0.1; fill:none" points="1429.96,1443.25 1429.96,47.2441 "/>
<polyline clip-path="url(#clip312)" style="stroke:#000000; stroke-linecap:round; stroke-linejoin:round; stroke-width:2; stroke-opacity:0.1; fill:none" points="1862.18,1443.25 1862.18,47.2441 "/>
<polyline clip-path="url(#clip312)" style="stroke:#000000; stroke-linecap:round; stroke-linejoin:round; stroke-width:2; stroke-opacity:0.1; fill:none" points="2294.41,1443.25 2294.41,47.2441 "/>
<polyline clip-path="url(#clip310)" style="stroke:#000000; stroke-linecap:round; stroke-linejoin:round; stroke-width:4; stroke-opacity:1; fill:none" points="291.046,1443.25 2352.76,1443.25 "/>
<polyline clip-path="url(#clip310)" style="stroke:#000000; stroke-linecap:round; stroke-linejoin:round; stroke-width:4; stroke-opacity:1; fill:none" points="565.508,1443.25 565.508,1424.35 "/>
<polyline clip-path="url(#clip310)" style="stroke:#000000; stroke-linecap:round; stroke-linejoin:round; stroke-width:4; stroke-opacity:1; fill:none" points="997.733,1443.25 997.733,1424.35 "/>
<polyline clip-path="url(#clip310)" style="stroke:#000000; stroke-linecap:round; stroke-linejoin:round; stroke-width:4; stroke-opacity:1; fill:none" points="1429.96,1443.25 1429.96,1424.35 "/>
<polyline clip-path="url(#clip310)" style="stroke:#000000; stroke-linecap:round; stroke-linejoin:round; stroke-width:4; stroke-opacity:1; fill:none" points="1862.18,1443.25 1862.18,1424.35 "/>
<polyline clip-path="url(#clip310)" style="stroke:#000000; stroke-linecap:round; stroke-linejoin:round; stroke-width:4; stroke-opacity:1; fill:none" points="2294.41,1443.25 2294.41,1424.35 "/>
<path clip-path="url(#clip310)" d="M591.26 1550.47 L591.26 1559.65 L539.862 1559.65 Q539.756 1556.2 540.976 1553.02 Q542.939 1547.77 547.235 1542.67 Q551.585 1537.58 559.753 1530.9 Q572.43 1520.5 576.886 1514.46 Q581.341 1508.36 581.341 1502.95 Q581.341 1497.27 577.257 1493.4 Q573.226 1489.47 566.702 1489.47 Q559.806 1489.47 555.669 1493.61 Q551.532 1497.75 551.479 1505.07 L541.666 1504.06 Q542.674 1493.08 549.251 1487.35 Q555.828 1481.57 566.914 1481.57 Q578.106 1481.57 584.63 1487.78 Q591.154 1493.98 591.154 1503.16 Q591.154 1507.83 589.245 1512.33 Q587.335 1516.84 582.88 1521.83 Q578.477 1526.81 568.187 1535.51 Q559.594 1542.73 557.154 1545.33 Q554.714 1547.87 553.123 1550.47 L591.26 1550.47 Z" fill="#000000" fill-rule="nonzero" fill-opacity="1" /><path clip-path="url(#clip310)" d="M1004.58 1559.65 L1004.58 1541.03 L970.84 1541.03 L970.84 1532.28 L1006.33 1481.89 L1014.12 1481.89 L1014.12 1532.28 L1024.63 1532.28 L1024.63 1541.03 L1014.12 1541.03 L1014.12 1559.65 L1004.58 1559.65 M1004.58 1532.28 L1004.58 1497.22 L980.229 1532.28 L1004.58 1532.28 Z" fill="#000000" fill-rule="nonzero" fill-opacity="1" /><path clip-path="url(#clip310)" d="M1454.25 1500.93 L1444.76 1501.67 Q1443.48 1496.05 1441.15 1493.5 Q1437.28 1489.42 1431.6 1489.42 Q1427.04 1489.42 1423.59 1491.97 Q1419.08 1495.25 1416.48 1501.57 Q1413.89 1507.88 1413.78 1519.55 Q1417.23 1514.3 1422.21 1511.75 Q1427.2 1509.2 1432.66 1509.2 Q1442.21 1509.2 1448.89 1516.26 Q1455.63 1523.26 1455.63 1534.4 Q1455.63 1541.72 1452.45 1548.03 Q1449.32 1554.29 1443.8 1557.63 Q1438.28 1560.97 1431.28 1560.97 Q1419.35 1560.97 1411.82 1552.22 Q1404.28 1543.42 1404.28 1523.26 Q1404.28 1500.72 1412.61 1490.48 Q1419.88 1481.57 1432.18 1481.57 Q1441.36 1481.57 1447.2 1486.71 Q1453.08 1491.86 1454.25 1500.93 M1415.26 1534.45 Q1415.26 1539.39 1417.33 1543.89 Q1419.45 1548.4 1423.22 1550.79 Q1426.99 1553.12 1431.12 1553.12 Q1437.17 1553.12 1441.52 1548.24 Q1445.87 1543.36 1445.87 1534.98 Q1445.87 1526.92 1441.57 1522.31 Q1437.28 1517.64 1430.75 1517.64 Q1424.28 1517.64 1419.77 1522.31 Q1415.26 1526.92 1415.26 1534.45 Z" fill="#000000" fill-rule="nonzero" fill-opacity="1" /><path clip-path="url(#clip310)" d="M1851.36 1517.48 Q1845.42 1515.3 1842.56 1511.27 Q1839.69 1507.24 1839.69 1501.62 Q1839.69 1493.13 1845.79 1487.35 Q1851.89 1481.57 1862.02 1481.57 Q1872.21 1481.57 1878.41 1487.51 Q1884.62 1493.4 1884.62 1501.88 Q1884.62 1507.3 1881.75 1511.33 Q1878.94 1515.3 1873.16 1517.48 Q1880.32 1519.81 1884.03 1525.01 Q1887.8 1530.21 1887.8 1537.42 Q1887.8 1547.4 1880.75 1554.18 Q1873.69 1560.97 1862.18 1560.97 Q1850.67 1560.97 1843.62 1554.18 Q1836.56 1547.34 1836.56 1537.16 Q1836.56 1529.57 1840.38 1524.48 Q1844.25 1519.34 1851.36 1517.48 M1849.45 1501.3 Q1849.45 1506.82 1853 1510.32 Q1856.56 1513.82 1862.23 1513.82 Q1867.75 1513.82 1871.25 1510.37 Q1874.81 1506.87 1874.81 1501.83 Q1874.81 1496.58 1871.15 1493.03 Q1867.54 1489.42 1862.13 1489.42 Q1856.66 1489.42 1853.06 1492.92 Q1849.45 1496.42 1849.45 1501.3 M1846.37 1537.21 Q1846.37 1541.3 1848.28 1545.11 Q1850.25 1548.93 1854.07 1551.06 Q1857.88 1553.12 1862.29 1553.12 Q1869.13 1553.12 1873.59 1548.72 Q1878.04 1544.32 1878.04 1537.53 Q1878.04 1530.63 1873.43 1526.13 Q1868.86 1521.62 1861.97 1521.62 Q1855.23 1521.62 1850.78 1526.07 Q1846.37 1530.53 1846.37 1537.21 Z" fill="#000000" fill-rule="nonzero" fill-opacity="1" /><path clip-path="url(#clip310)" d="M2271.15 1559.65 L2261.6 1559.65 L2261.6 1498.81 Q2258.15 1502.1 2252.53 1505.39 Q2246.96 1508.67 2242.5 1510.32 L2242.5 1501.09 Q2250.51 1497.32 2256.51 1491.97 Q2262.5 1486.61 2264.99 1481.57 L2271.15 1481.57 L2271.15 1559.65 Z" fill="#000000" fill-rule="nonzero" fill-opacity="1" /><path clip-path="url(#clip310)" d="M2295.6 1521.3 Q2295.6 1507.51 2298.41 1499.13 Q2301.27 1490.69 2306.84 1486.13 Q2312.47 1481.57 2320.95 1481.57 Q2327.21 1481.57 2331.93 1484.12 Q2336.65 1486.61 2339.73 1491.38 Q2342.81 1496.1 2344.56 1502.95 Q2346.31 1509.74 2346.31 1521.3 Q2346.31 1534.98 2343.5 1543.42 Q2340.69 1551.8 2335.06 1556.41 Q2329.49 1560.97 2320.95 1560.97 Q2309.71 1560.97 2303.29 1552.91 Q2295.6 1543.2 2295.6 1521.3 M2305.41 1521.3 Q2305.41 1540.45 2309.87 1546.81 Q2314.38 1553.12 2320.95 1553.12 Q2327.53 1553.12 2331.99 1546.76 Q2336.49 1540.39 2336.49 1521.3 Q2336.49 1502.1 2331.99 1495.78 Q2327.53 1489.47 2320.85 1489.47 Q2314.27 1489.47 2310.34 1495.04 Q2305.41 1502.15 2305.41 1521.3 Z" fill="#000000" fill-rule="nonzero" fill-opacity="1" /><polyline clip-path="url(#clip312)" style="stroke:#000000; stroke-linecap:round; stroke-linejoin:round; stroke-width:2; stroke-opacity:0.1; fill:none" points="291.046,1403.74 2352.76,1403.74 "/>
<polyline clip-path="url(#clip312)" style="stroke:#000000; stroke-linecap:round; stroke-linejoin:round; stroke-width:2; stroke-opacity:0.1; fill:none" points="291.046,1123.53 2352.76,1123.53 "/>
<polyline clip-path="url(#clip312)" style="stroke:#000000; stroke-linecap:round; stroke-linejoin:round; stroke-width:2; stroke-opacity:0.1; fill:none" points="291.046,843.319 2352.76,843.319 "/>
<polyline clip-path="url(#clip312)" style="stroke:#000000; stroke-linecap:round; stroke-linejoin:round; stroke-width:2; stroke-opacity:0.1; fill:none" points="291.046,563.11 2352.76,563.11 "/>
<polyline clip-path="url(#clip312)" style="stroke:#000000; stroke-linecap:round; stroke-linejoin:round; stroke-width:2; stroke-opacity:0.1; fill:none" points="291.046,282.9 2352.76,282.9 "/>
<polyline clip-path="url(#clip310)" style="stroke:#000000; stroke-linecap:round; stroke-linejoin:round; stroke-width:4; stroke-opacity:1; fill:none" points="291.046,1443.25 291.046,47.2441 "/>
<polyline clip-path="url(#clip310)" style="stroke:#000000; stroke-linecap:round; stroke-linejoin:round; stroke-width:4; stroke-opacity:1; fill:none" points="291.046,1403.74 309.943,1403.74 "/>
<polyline clip-path="url(#clip310)" style="stroke:#000000; stroke-linecap:round; stroke-linejoin:round; stroke-width:4; stroke-opacity:1; fill:none" points="291.046,1123.53 309.943,1123.53 "/>
<polyline clip-path="url(#clip310)" style="stroke:#000000; stroke-linecap:round; stroke-linejoin:round; stroke-width:4; stroke-opacity:1; fill:none" points="291.046,843.319 309.943,843.319 "/>
<polyline clip-path="url(#clip310)" style="stroke:#000000; stroke-linecap:round; stroke-linejoin:round; stroke-width:4; stroke-opacity:1; fill:none" points="291.046,563.11 309.943,563.11 "/>
<polyline clip-path="url(#clip310)" style="stroke:#000000; stroke-linecap:round; stroke-linejoin:round; stroke-width:4; stroke-opacity:1; fill:none" points="291.046,282.9 309.943,282.9 "/>
<path clip-path="url(#clip310)" d="M102.337 1408.72 L50.9921 1408.72 L50.9921 1399.81 L102.337 1399.81 L102.337 1408.72 Z" fill="#000000" fill-rule="nonzero" fill-opacity="1" /><path clip-path="url(#clip310)" d="M112.892 1404.27 Q112.892 1390.48 115.704 1382.1 Q118.568 1373.66 124.137 1369.1 Q129.76 1364.54 138.247 1364.54 Q144.506 1364.54 149.226 1367.09 Q153.947 1369.58 157.024 1374.35 Q160.1 1379.07 161.851 1385.92 Q163.601 1392.71 163.601 1404.27 Q163.601 1417.95 160.79 1426.39 Q157.978 1434.77 152.356 1439.38 Q146.787 1443.94 138.247 1443.94 Q127.002 1443.94 120.584 1435.88 Q112.892 1426.18 112.892 1404.27 M122.705 1404.27 Q122.705 1423.42 127.161 1429.78 Q131.669 1436.09 138.247 1436.09 Q144.824 1436.09 149.279 1429.73 Q153.788 1423.36 153.788 1404.27 Q153.788 1385.07 149.279 1378.76 Q144.824 1372.44 138.141 1372.44 Q131.563 1372.44 127.638 1378.01 Q122.705 1385.12 122.705 1404.27 Z" fill="#000000" fill-rule="nonzero" fill-opacity="1" /><path clip-path="url(#clip310)" d="M178.665 1442.62 L178.665 1431.74 L189.539 1431.74 L189.539 1442.62 L178.665 1442.62 Z" fill="#000000" fill-rule="nonzero" fill-opacity="1" /><path clip-path="url(#clip310)" d="M203.489 1422.25 L213.514 1421.4 Q214.628 1428.72 218.659 1432.43 Q222.743 1436.09 228.472 1436.09 Q235.367 1436.09 240.141 1430.9 Q244.915 1425.7 244.915 1417.1 Q244.915 1408.94 240.3 1404.22 Q235.738 1399.49 228.313 1399.49 Q223.698 1399.49 219.985 1401.62 Q216.272 1403.69 214.15 1407.03 L205.186 1405.86 L212.718 1365.92 L251.386 1365.92 L251.386 1375.04 L220.356 1375.04 L216.166 1395.94 Q223.167 1391.06 230.859 1391.06 Q241.043 1391.06 248.044 1398.12 Q255.046 1405.17 255.046 1416.26 Q255.046 1426.81 248.893 1434.5 Q241.414 1443.94 228.472 1443.94 Q217.863 1443.94 211.127 1438 Q204.443 1432.06 203.489 1422.25 Z" fill="#000000" fill-rule="nonzero" fill-opacity="1" /><path clip-path="url(#clip310)" d="M103.239 1128.51 L51.8938 1128.51 L51.8938 1119.6 L103.239 1119.6 L103.239 1128.51 Z" fill="#000000" fill-rule="nonzero" fill-opacity="1" /><path clip-path="url(#clip310)" d="M113.794 1124.06 Q113.794 1110.27 116.605 1101.89 Q119.47 1093.45 125.039 1088.89 Q130.662 1084.33 139.148 1084.33 Q145.407 1084.33 150.128 1086.88 Q154.849 1089.37 157.925 1094.14 Q161.002 1098.86 162.752 1105.71 Q164.503 1112.5 164.503 1124.06 Q164.503 1137.74 161.691 1146.18 Q158.88 1154.56 153.258 1159.17 Q147.688 1163.73 139.148 1163.73 Q127.903 1163.73 121.485 1155.67 Q113.794 1145.97 113.794 1124.06 M123.607 1124.06 Q123.607 1143.21 128.063 1149.57 Q132.571 1155.88 139.148 1155.88 Q145.726 1155.88 150.181 1149.52 Q154.69 1143.15 154.69 1124.06 Q154.69 1104.86 150.181 1098.55 Q145.726 1092.23 139.042 1092.23 Q132.465 1092.23 128.54 1097.8 Q123.607 1104.91 123.607 1124.06 Z" fill="#000000" fill-rule="nonzero" fill-opacity="1" /><path clip-path="url(#clip310)" d="M179.567 1162.41 L179.567 1151.54 L190.44 1151.54 L190.44 1162.41 L179.567 1162.41 Z" fill="#000000" fill-rule="nonzero" fill-opacity="1" /><path clip-path="url(#clip310)" d="M234.996 1162.41 L234.996 1143.79 L201.261 1143.79 L201.261 1135.04 L236.746 1084.65 L244.543 1084.65 L244.543 1135.04 L255.046 1135.04 L255.046 1143.79 L244.543 1143.79 L244.543 1162.41 L234.996 1162.41 M234.996 1135.04 L234.996 1099.98 L210.649 1135.04 L234.996 1135.04 Z" fill="#000000" fill-rule="nonzero" fill-opacity="1" /><path clip-path="url(#clip310)" d="M102.921 848.305 L51.5756 848.305 L51.5756 839.394 L102.921 839.394 L102.921 848.305 Z" fill="#000000" fill-rule="nonzero" fill-opacity="1" /><path clip-path="url(#clip310)" d="M113.476 843.85 Q113.476 830.059 116.287 821.678 Q119.151 813.244 124.721 808.683 Q130.343 804.121 138.83 804.121 Q145.089 804.121 149.81 806.667 Q154.531 809.16 157.607 813.934 Q160.684 818.655 162.434 825.497 Q164.184 832.287 164.184 843.85 Q164.184 857.535 161.373 865.968 Q158.562 874.349 152.939 878.964 Q147.37 883.525 138.83 883.525 Q127.585 883.525 121.167 875.463 Q113.476 865.756 113.476 843.85 M123.289 843.85 Q123.289 862.998 127.744 869.363 Q132.253 875.675 138.83 875.675 Q145.407 875.675 149.863 869.31 Q154.372 862.945 154.372 843.85 Q154.372 824.648 149.863 818.336 Q145.407 812.024 138.724 812.024 Q132.147 812.024 128.222 817.594 Q123.289 824.701 123.289 843.85 Z" fill="#000000" fill-rule="nonzero" fill-opacity="1" /><path clip-path="url(#clip310)" d="M179.248 882.199 L179.248 871.326 L190.122 871.326 L190.122 882.199 L179.248 882.199 Z" fill="#000000" fill-rule="nonzero" fill-opacity="1" /><path clip-path="url(#clip310)" d="M204.125 861.672 L213.673 860.399 Q215.317 868.514 219.242 872.121 Q223.22 875.675 228.896 875.675 Q235.632 875.675 240.247 871.007 Q244.915 866.34 244.915 859.444 Q244.915 852.867 240.618 848.624 Q236.322 844.327 229.692 844.327 Q226.986 844.327 222.955 845.388 L224.016 837.007 Q224.971 837.113 225.554 837.113 Q231.654 837.113 236.534 833.931 Q241.414 830.748 241.414 824.118 Q241.414 818.867 237.86 815.419 Q234.306 811.971 228.684 811.971 Q223.114 811.971 219.401 815.472 Q215.688 818.973 214.628 825.974 L205.08 824.277 Q206.83 814.676 213.036 809.425 Q219.242 804.121 228.472 804.121 Q234.837 804.121 240.194 806.879 Q245.551 809.584 248.362 814.305 Q251.227 819.026 251.227 824.33 Q251.227 829.369 248.522 833.506 Q245.816 837.644 240.512 840.084 Q247.408 841.675 251.227 846.714 Q255.046 851.7 255.046 859.232 Q255.046 869.416 247.62 876.524 Q240.194 883.578 228.843 883.578 Q218.606 883.578 211.816 877.479 Q205.08 871.379 204.125 861.672 Z" fill="#000000" fill-rule="nonzero" fill-opacity="1" /><path clip-path="url(#clip310)" d="M103.716 568.096 L52.3712 568.096 L52.3712 559.185 L103.716 559.185 L103.716 568.096 Z" fill="#000000" fill-rule="nonzero" fill-opacity="1" /><path clip-path="url(#clip310)" d="M114.272 563.64 Q114.272 549.849 117.083 541.469 Q119.947 533.035 125.517 528.473 Q131.139 523.912 139.626 523.912 Q145.885 523.912 150.606 526.458 Q155.326 528.951 158.403 533.724 Q161.479 538.445 163.23 545.288 Q164.98 552.077 164.98 563.64 Q164.98 577.325 162.169 585.759 Q159.358 594.14 153.735 598.754 Q148.166 603.316 139.626 603.316 Q128.381 603.316 121.963 595.253 Q114.272 585.547 114.272 563.64 M124.084 563.64 Q124.084 582.788 128.54 589.154 Q133.049 595.466 139.626 595.466 Q146.203 595.466 150.659 589.101 Q155.167 582.735 155.167 563.64 Q155.167 544.439 150.659 538.127 Q146.203 531.815 139.52 531.815 Q132.942 531.815 129.017 537.384 Q124.084 544.492 124.084 563.64 Z" fill="#000000" fill-rule="nonzero" fill-opacity="1" /><path clip-path="url(#clip310)" d="M180.044 601.99 L180.044 591.116 L190.918 591.116 L190.918 601.99 L180.044 601.99 Z" fill="#000000" fill-rule="nonzero" fill-opacity="1" /><path clip-path="url(#clip310)" d="M255.046 592.813 L255.046 601.99 L203.648 601.99 Q203.542 598.542 204.762 595.36 Q206.724 590.108 211.021 585.016 Q215.37 579.924 223.539 573.241 Q236.216 562.845 240.671 556.798 Q245.127 550.698 245.127 545.288 Q245.127 539.612 241.043 535.74 Q237.011 531.815 230.487 531.815 Q223.592 531.815 219.454 535.952 Q215.317 540.089 215.264 547.409 L205.451 546.401 Q206.459 535.422 213.036 529.693 Q219.614 523.912 230.699 523.912 Q241.891 523.912 248.416 530.117 Q254.94 536.323 254.94 545.5 Q254.94 550.167 253.03 554.676 Q251.121 559.185 246.665 564.171 Q242.263 569.157 231.972 577.856 Q223.38 585.069 220.94 587.668 Q218.5 590.214 216.908 592.813 L255.046 592.813 Z" fill="#000000" fill-rule="nonzero" fill-opacity="1" /><path clip-path="url(#clip310)" d="M117.931 287.886 L66.5866 287.886 L66.5866 278.975 L117.931 278.975 L117.931 287.886 Z" fill="#000000" fill-rule="nonzero" fill-opacity="1" /><path clip-path="url(#clip310)" d="M128.487 283.431 Q128.487 269.64 131.298 261.259 Q134.162 252.825 139.732 248.264 Q145.354 243.702 153.841 243.702 Q160.1 243.702 164.821 246.248 Q169.542 248.741 172.618 253.515 Q175.695 258.236 177.445 265.078 Q179.195 271.867 179.195 283.431 Q179.195 297.116 176.384 305.549 Q173.573 313.93 167.95 318.545 Q162.381 323.106 153.841 323.106 Q142.596 323.106 136.178 315.044 Q128.487 305.337 128.487 283.431 M138.3 283.431 Q138.3 302.579 142.755 308.944 Q147.264 315.256 153.841 315.256 Q160.418 315.256 164.874 308.891 Q169.383 302.526 169.383 283.431 Q169.383 264.229 164.874 257.917 Q160.418 251.605 153.735 251.605 Q147.158 251.605 143.233 257.175 Q138.3 264.282 138.3 283.431 Z" fill="#000000" fill-rule="nonzero" fill-opacity="1" /><path clip-path="url(#clip310)" d="M194.259 321.78 L194.259 310.907 L205.133 310.907 L205.133 321.78 L194.259 321.78 Z" fill="#000000" fill-rule="nonzero" fill-opacity="1" /><path clip-path="url(#clip310)" d="M255.046 321.78 L245.498 321.78 L245.498 260.941 Q242.05 264.229 236.428 267.518 Q230.859 270.807 226.403 272.451 L226.403 263.222 Q234.412 259.456 240.406 254.098 Q246.4 248.741 248.893 243.702 L255.046 243.702 L255.046 321.78 Z" fill="#000000" fill-rule="nonzero" fill-opacity="1" /><polyline clip-path="url(#clip312)" style="stroke:#009af9; stroke-linecap:round; stroke-linejoin:round; stroke-width:4; stroke-opacity:1; fill:none" points="349.396,95.5449 565.508,467.868 781.62,706.652 997.733,861.782 1213.84,968.795 1429.96,1046.56 1646.07,1105.29 1862.18,1150.93 2078.29,1187.2 2294.41,1216.5 "/>
<line clip-path="url(#clip312)" x1="349.396" y1="95.5449" x2="325.396" y2="71.5449" style="stroke:#009af9; stroke-width:4; stroke-opacity:1"/>
<line clip-path="url(#clip312)" x1="349.396" y1="95.5449" x2="325.396" y2="119.545" style="stroke:#009af9; stroke-width:4; stroke-opacity:1"/>
<line clip-path="url(#clip312)" x1="349.396" y1="95.5449" x2="373.396" y2="119.545" style="stroke:#009af9; stroke-width:4; stroke-opacity:1"/>
<line clip-path="url(#clip312)" x1="349.396" y1="95.5449" x2="373.396" y2="71.5449" style="stroke:#009af9; stroke-width:4; stroke-opacity:1"/>
<line clip-path="url(#clip312)" x1="565.508" y1="467.868" x2="541.508" y2="443.868" style="stroke:#009af9; stroke-width:4; stroke-opacity:1"/>
<line clip-path="url(#clip312)" x1="565.508" y1="467.868" x2="541.508" y2="491.868" style="stroke:#009af9; stroke-width:4; stroke-opacity:1"/>
<line clip-path="url(#clip312)" x1="565.508" y1="467.868" x2="589.508" y2="491.868" style="stroke:#009af9; stroke-width:4; stroke-opacity:1"/>
<line clip-path="url(#clip312)" x1="565.508" y1="467.868" x2="589.508" y2="443.868" style="stroke:#009af9; stroke-width:4; stroke-opacity:1"/>
<line clip-path="url(#clip312)" x1="781.62" y1="706.652" x2="757.62" y2="682.652" style="stroke:#009af9; stroke-width:4; stroke-opacity:1"/>
<line clip-path="url(#clip312)" x1="781.62" y1="706.652" x2="757.62" y2="730.652" style="stroke:#009af9; stroke-width:4; stroke-opacity:1"/>
<line clip-path="url(#clip312)" x1="781.62" y1="706.652" x2="805.62" y2="730.652" style="stroke:#009af9; stroke-width:4; stroke-opacity:1"/>
<line clip-path="url(#clip312)" x1="781.62" y1="706.652" x2="805.62" y2="682.652" style="stroke:#009af9; stroke-width:4; stroke-opacity:1"/>
<line clip-path="url(#clip312)" x1="997.733" y1="861.782" x2="973.733" y2="837.782" style="stroke:#009af9; stroke-width:4; stroke-opacity:1"/>
<line clip-path="url(#clip312)" x1="997.733" y1="861.782" x2="973.733" y2="885.782" style="stroke:#009af9; stroke-width:4; stroke-opacity:1"/>
<line clip-path="url(#clip312)" x1="997.733" y1="861.782" x2="1021.73" y2="885.782" style="stroke:#009af9; stroke-width:4; stroke-opacity:1"/>
<line clip-path="url(#clip312)" x1="997.733" y1="861.782" x2="1021.73" y2="837.782" style="stroke:#009af9; stroke-width:4; stroke-opacity:1"/>
<line clip-path="url(#clip312)" x1="1213.84" y1="968.795" x2="1189.84" y2="944.795" style="stroke:#009af9; stroke-width:4; stroke-opacity:1"/>
<line clip-path="url(#clip312)" x1="1213.84" y1="968.795" x2="1189.84" y2="992.795" style="stroke:#009af9; stroke-width:4; stroke-opacity:1"/>
<line clip-path="url(#clip312)" x1="1213.84" y1="968.795" x2="1237.84" y2="992.795" style="stroke:#009af9; stroke-width:4; stroke-opacity:1"/>
<line clip-path="url(#clip312)" x1="1213.84" y1="968.795" x2="1237.84" y2="944.795" style="stroke:#009af9; stroke-width:4; stroke-opacity:1"/>
<line clip-path="url(#clip312)" x1="1429.96" y1="1046.56" x2="1405.96" y2="1022.56" style="stroke:#009af9; stroke-width:4; stroke-opacity:1"/>
<line clip-path="url(#clip312)" x1="1429.96" y1="1046.56" x2="1405.96" y2="1070.56" style="stroke:#009af9; stroke-width:4; stroke-opacity:1"/>
<line clip-path="url(#clip312)" x1="1429.96" y1="1046.56" x2="1453.96" y2="1070.56" style="stroke:#009af9; stroke-width:4; stroke-opacity:1"/>
<line clip-path="url(#clip312)" x1="1429.96" y1="1046.56" x2="1453.96" y2="1022.56" style="stroke:#009af9; stroke-width:4; stroke-opacity:1"/>
<line clip-path="url(#clip312)" x1="1646.07" y1="1105.29" x2="1622.07" y2="1081.29" style="stroke:#009af9; stroke-width:4; stroke-opacity:1"/>
<line clip-path="url(#clip312)" x1="1646.07" y1="1105.29" x2="1622.07" y2="1129.29" style="stroke:#009af9; stroke-width:4; stroke-opacity:1"/>
<line clip-path="url(#clip312)" x1="1646.07" y1="1105.29" x2="1670.07" y2="1129.29" style="stroke:#009af9; stroke-width:4; stroke-opacity:1"/>
<line clip-path="url(#clip312)" x1="1646.07" y1="1105.29" x2="1670.07" y2="1081.29" style="stroke:#009af9; stroke-width:4; stroke-opacity:1"/>
<line clip-path="url(#clip312)" x1="1862.18" y1="1150.93" x2="1838.18" y2="1126.93" style="stroke:#009af9; stroke-width:4; stroke-opacity:1"/>
<line clip-path="url(#clip312)" x1="1862.18" y1="1150.93" x2="1838.18" y2="1174.93" style="stroke:#009af9; stroke-width:4; stroke-opacity:1"/>
<line clip-path="url(#clip312)" x1="1862.18" y1="1150.93" x2="1886.18" y2="1174.93" style="stroke:#009af9; stroke-width:4; stroke-opacity:1"/>
<line clip-path="url(#clip312)" x1="1862.18" y1="1150.93" x2="1886.18" y2="1126.93" style="stroke:#009af9; stroke-width:4; stroke-opacity:1"/>
<line clip-path="url(#clip312)" x1="2078.29" y1="1187.2" x2="2054.29" y2="1163.2" style="stroke:#009af9; stroke-width:4; stroke-opacity:1"/>
<line clip-path="url(#clip312)" x1="2078.29" y1="1187.2" x2="2054.29" y2="1211.2" style="stroke:#009af9; stroke-width:4; stroke-opacity:1"/>
<line clip-path="url(#clip312)" x1="2078.29" y1="1187.2" x2="2102.29" y2="1211.2" style="stroke:#009af9; stroke-width:4; stroke-opacity:1"/>
<line clip-path="url(#clip312)" x1="2078.29" y1="1187.2" x2="2102.29" y2="1163.2" style="stroke:#009af9; stroke-width:4; stroke-opacity:1"/>
<line clip-path="url(#clip312)" x1="2294.41" y1="1216.5" x2="2270.41" y2="1192.5" style="stroke:#009af9; stroke-width:4; stroke-opacity:1"/>
<line clip-path="url(#clip312)" x1="2294.41" y1="1216.5" x2="2270.41" y2="1240.5" style="stroke:#009af9; stroke-width:4; stroke-opacity:1"/>
<line clip-path="url(#clip312)" x1="2294.41" y1="1216.5" x2="2318.41" y2="1240.5" style="stroke:#009af9; stroke-width:4; stroke-opacity:1"/>
<line clip-path="url(#clip312)" x1="2294.41" y1="1216.5" x2="2318.41" y2="1192.5" style="stroke:#009af9; stroke-width:4; stroke-opacity:1"/>
<polyline clip-path="url(#clip312)" style="stroke:#e26f46; stroke-linecap:round; stroke-linejoin:round; stroke-width:4; stroke-opacity:1; fill:none" points="349.396,86.7536 565.508,563.11 781.62,787.277 997.733,955.403 1213.84,1095.51 1429.96,1207.59 1646.07,1263.63 1862.18,1319.68 2078.29,1375.72 2294.41,1403.74 "/>
<circle clip-path="url(#clip312)" cx="349.396" cy="86.7536" r="14.4" fill="#e26f46" fill-rule="evenodd" fill-opacity="1" stroke="#000000" stroke-opacity="1" stroke-width="3.2"/>
<circle clip-path="url(#clip312)" cx="565.508" cy="563.11" r="14.4" fill="#e26f46" fill-rule="evenodd" fill-opacity="1" stroke="#000000" stroke-opacity="1" stroke-width="3.2"/>
<circle clip-path="url(#clip312)" cx="781.62" cy="787.277" r="14.4" fill="#e26f46" fill-rule="evenodd" fill-opacity="1" stroke="#000000" stroke-opacity="1" stroke-width="3.2"/>
<circle clip-path="url(#clip312)" cx="997.733" cy="955.403" r="14.4" fill="#e26f46" fill-rule="evenodd" fill-opacity="1" stroke="#000000" stroke-opacity="1" stroke-width="3.2"/>
<circle clip-path="url(#clip312)" cx="1213.84" cy="1095.51" r="14.4" fill="#e26f46" fill-rule="evenodd" fill-opacity="1" stroke="#000000" stroke-opacity="1" stroke-width="3.2"/>
<circle clip-path="url(#clip312)" cx="1429.96" cy="1207.59" r="14.4" fill="#e26f46" fill-rule="evenodd" fill-opacity="1" stroke="#000000" stroke-opacity="1" stroke-width="3.2"/>
<circle clip-path="url(#clip312)" cx="1646.07" cy="1263.63" r="14.4" fill="#e26f46" fill-rule="evenodd" fill-opacity="1" stroke="#000000" stroke-opacity="1" stroke-width="3.2"/>
<circle clip-path="url(#clip312)" cx="1862.18" cy="1319.68" r="14.4" fill="#e26f46" fill-rule="evenodd" fill-opacity="1" stroke="#000000" stroke-opacity="1" stroke-width="3.2"/>
<circle clip-path="url(#clip312)" cx="2078.29" cy="1375.72" r="14.4" fill="#e26f46" fill-rule="evenodd" fill-opacity="1" stroke="#000000" stroke-opacity="1" stroke-width="3.2"/>
<circle clip-path="url(#clip312)" cx="2294.41" cy="1403.74" r="14.4" fill="#e26f46" fill-rule="evenodd" fill-opacity="1" stroke="#000000" stroke-opacity="1" stroke-width="3.2"/>
<path clip-path="url(#clip310)" d="M1664.29 443.698 L2284.03 443.698 L2284.03 93.7776 L1664.29 93.7776  Z" fill="#ffffff" fill-rule="evenodd" fill-opacity="1"/>
<polyline clip-path="url(#clip310)" style="stroke:#000000; stroke-linecap:round; stroke-linejoin:round; stroke-width:4; stroke-opacity:1; fill:none" points="1664.29,443.698 2284.03,443.698 2284.03,93.7776 1664.29,93.7776 1664.29,443.698 "/>
<polyline clip-path="url(#clip310)" style="stroke:#009af9; stroke-linecap:round; stroke-linejoin:round; stroke-width:9; stroke-opacity:1; fill:none" points="1687.2,210.418 1824.65,210.418 "/>
<line clip-path="url(#clip310)" x1="1755.92" y1="210.418" x2="1746.49" y2="200.99" style="stroke:#009af9; stroke-width:9; stroke-opacity:1"/>
<line clip-path="url(#clip310)" x1="1755.92" y1="210.418" x2="1746.49" y2="219.845" style="stroke:#009af9; stroke-width:9; stroke-opacity:1"/>
<line clip-path="url(#clip310)" x1="1755.92" y1="210.418" x2="1765.35" y2="219.845" style="stroke:#009af9; stroke-width:9; stroke-opacity:1"/>
<line clip-path="url(#clip310)" x1="1755.92" y1="210.418" x2="1765.35" y2="200.99" style="stroke:#009af9; stroke-width:9; stroke-opacity:1"/>
<path clip-path="url(#clip310)" d="M1847.55 221.132 Q1847.55 205.485 1856.25 197.953 Q1863.52 191.694 1873.97 191.694 Q1885.58 191.694 1892.96 199.332 Q1900.33 206.917 1900.33 220.336 Q1900.33 231.21 1897.04 237.469 Q1893.81 243.675 1887.55 247.123 Q1881.34 250.571 1873.97 250.571 Q1862.14 250.571 1854.82 242.986 Q1847.55 235.4 1847.55 221.132 M1857.37 221.132 Q1857.37 231.953 1862.09 237.363 Q1866.81 242.72 1873.97 242.72 Q1881.08 242.72 1885.8 237.31 Q1890.52 231.9 1890.52 220.814 Q1890.52 210.365 1885.74 205.007 Q1881.02 199.597 1873.97 199.597 Q1866.81 199.597 1862.09 204.954 Q1857.37 210.311 1857.37 221.132 Z" fill="#000000" fill-rule="nonzero" fill-opacity="1" /><path clip-path="url(#clip310)" d="M1948.07 249.298 L1948.07 242.19 Q1942.71 250.571 1932.32 250.571 Q1925.58 250.571 1919.9 246.858 Q1914.28 243.145 1911.15 236.514 Q1908.07 229.831 1908.07 221.185 Q1908.07 212.751 1910.89 205.909 Q1913.7 199.013 1919.32 195.354 Q1924.94 191.694 1931.89 191.694 Q1936.98 191.694 1940.96 193.868 Q1944.94 195.99 1947.43 199.438 L1947.43 171.538 L1956.93 171.538 L1956.93 249.298 L1948.07 249.298 M1917.89 221.185 Q1917.89 232.006 1922.45 237.363 Q1927.01 242.72 1933.22 242.72 Q1939.48 242.72 1943.83 237.628 Q1948.23 232.483 1948.23 221.981 Q1948.23 210.418 1943.77 205.007 Q1939.32 199.597 1932.79 199.597 Q1926.43 199.597 1922.13 204.795 Q1917.89 209.993 1917.89 221.185 Z" fill="#000000" fill-rule="nonzero" fill-opacity="1" /><path clip-path="url(#clip310)" d="M2010.5 231.157 L2020.37 232.377 Q2018.03 241.023 2011.72 245.797 Q2005.41 250.571 1995.59 250.571 Q1983.24 250.571 1975.97 242.986 Q1968.76 235.347 1968.76 221.609 Q1968.76 207.394 1976.08 199.544 Q1983.39 191.694 1995.06 191.694 Q2006.36 191.694 2013.52 199.385 Q2020.68 207.076 2020.68 221.026 Q2020.68 221.875 2020.63 223.572 L1978.62 223.572 Q1979.15 232.854 1983.87 237.787 Q1988.59 242.72 1995.65 242.72 Q2000.9 242.72 2004.61 239.962 Q2008.32 237.204 2010.5 231.157 M1979.15 215.722 L2010.61 215.722 Q2009.97 208.614 2007 205.06 Q2002.44 199.544 1995.17 199.544 Q1988.59 199.544 1984.08 203.946 Q1979.63 208.349 1979.15 215.722 Z" fill="#000000" fill-rule="nonzero" fill-opacity="1" /><path clip-path="url(#clip310)" d="M2023.55 270.886 L2023.55 263.99 L2086.83 263.99 L2086.83 270.886 L2023.55 270.886 Z" fill="#000000" fill-rule="nonzero" fill-opacity="1" /><path clip-path="url(#clip310)" d="M2092.77 270.886 L2092.77 192.967 L2101.47 192.967 L2101.47 200.286 Q2104.54 195.99 2108.42 193.868 Q2112.29 191.694 2117.8 191.694 Q2125.02 191.694 2130.53 195.407 Q2136.05 199.12 2138.86 205.909 Q2141.67 212.645 2141.67 220.708 Q2141.67 229.354 2138.54 236.302 Q2135.47 243.198 2129.53 246.911 Q2123.64 250.571 2117.11 250.571 Q2112.34 250.571 2108.52 248.555 Q2104.76 246.539 2102.32 243.463 L2102.32 270.886 L2092.77 270.886 M2101.41 221.45 Q2101.41 232.324 2105.82 237.522 Q2110.22 242.72 2116.48 242.72 Q2122.84 242.72 2127.35 237.363 Q2131.91 231.953 2131.91 220.655 Q2131.91 209.887 2127.46 204.53 Q2123.06 199.173 2116.9 199.173 Q2110.8 199.173 2106.08 204.901 Q2101.41 210.577 2101.41 221.45 Z" fill="#000000" fill-rule="nonzero" fill-opacity="1" /><path clip-path="url(#clip310)" d="M2200.71 240.121 L2200.71 249.298 L2149.31 249.298 Q2149.21 245.85 2150.43 242.667 Q2152.39 237.416 2156.68 232.324 Q2161.03 227.232 2169.2 220.549 Q2181.88 210.152 2186.33 204.106 Q2190.79 198.006 2190.79 192.595 Q2190.79 186.92 2186.71 183.048 Q2182.67 179.123 2176.15 179.123 Q2169.26 179.123 2165.12 183.26 Q2160.98 187.397 2160.93 194.717 L2151.11 193.709 Q2152.12 182.729 2158.7 177.001 Q2165.28 171.219 2176.36 171.219 Q2187.55 171.219 2194.08 177.425 Q2200.6 183.631 2200.6 192.808 Q2200.6 197.475 2198.69 201.984 Q2196.78 206.492 2192.33 211.478 Q2187.93 216.464 2177.64 225.163 Q2169.04 232.377 2166.6 234.976 Q2164.16 237.522 2162.57 240.121 L2200.71 240.121 Z" fill="#000000" fill-rule="nonzero" fill-opacity="1" /><path clip-path="url(#clip310)" d="M2261.12 240.121 L2261.12 249.298 L2209.73 249.298 Q2209.62 245.85 2210.84 242.667 Q2212.8 237.416 2217.1 232.324 Q2221.45 227.232 2229.62 220.549 Q2242.29 210.152 2246.75 204.106 Q2251.21 198.006 2251.21 192.595 Q2251.21 186.92 2247.12 183.048 Q2243.09 179.123 2236.57 179.123 Q2229.67 179.123 2225.53 183.26 Q2221.4 187.397 2221.34 194.717 L2211.53 193.709 Q2212.54 182.729 2219.11 177.001 Q2225.69 171.219 2236.78 171.219 Q2247.97 171.219 2254.49 177.425 Q2261.02 183.631 2261.02 192.808 Q2261.02 197.475 2259.11 201.984 Q2257.2 206.492 2252.74 211.478 Q2248.34 216.464 2238.05 225.163 Q2229.46 232.377 2227.02 234.976 Q2224.58 237.522 2222.99 240.121 L2261.12 240.121 Z" fill="#000000" fill-rule="nonzero" fill-opacity="1" /><polyline clip-path="url(#clip310)" style="stroke:#e26f46; stroke-linecap:round; stroke-linejoin:round; stroke-width:9; stroke-opacity:1; fill:none" points="1687.2,327.058 1824.65,327.058 "/>
<circle clip-path="url(#clip310)" cx="1755.92" cy="327.058" r="8.4844" fill="#e26f46" fill-rule="evenodd" fill-opacity="1" stroke="#000000" stroke-opacity="1" stroke-width="7.54169"/>
<path clip-path="url(#clip310)" d="M1887.23 345.304 L1896.62 346.524 Q1895.08 356.231 1888.71 361.747 Q1882.4 367.211 1873.17 367.211 Q1861.61 367.211 1854.56 359.679 Q1847.55 352.094 1847.55 337.984 Q1847.55 328.861 1850.58 322.019 Q1853.6 315.176 1859.75 311.781 Q1865.96 308.334 1873.23 308.334 Q1882.4 308.334 1888.24 313.001 Q1894.07 317.616 1895.72 326.156 L1886.43 327.588 Q1885.11 321.912 1881.71 319.048 Q1878.37 316.184 1873.6 316.184 Q1866.38 316.184 1861.88 321.382 Q1857.37 326.527 1857.37 337.719 Q1857.37 349.07 1861.72 354.215 Q1866.07 359.36 1873.07 359.36 Q1878.69 359.36 1882.46 355.913 Q1886.22 352.465 1887.23 345.304 Z" fill="#000000" fill-rule="nonzero" fill-opacity="1" /><path clip-path="url(#clip310)" d="M1904.68 365.938 L1904.68 309.607 L1913.27 309.607 L1913.27 318.146 Q1916.56 312.153 1919.32 310.243 Q1922.13 308.334 1925.47 308.334 Q1930.3 308.334 1935.29 311.41 L1932 320.268 Q1928.5 318.199 1925 318.199 Q1921.87 318.199 1919.37 320.109 Q1916.88 321.965 1915.82 325.307 Q1914.23 330.399 1914.23 336.446 L1914.23 365.938 L1904.68 365.938 Z" fill="#000000" fill-rule="nonzero" fill-opacity="1" /><path clip-path="url(#clip310)" d="M1940.96 365.938 L1940.96 309.607 L1949.55 309.607 L1949.55 317.616 Q1955.76 308.334 1967.48 308.334 Q1972.57 308.334 1976.82 310.19 Q1981.11 311.994 1983.24 314.964 Q1985.36 317.934 1986.21 322.019 Q1986.74 324.671 1986.74 331.301 L1986.74 365.938 L1977.19 365.938 L1977.19 331.672 Q1977.19 325.838 1976.08 322.973 Q1974.96 320.056 1972.1 318.359 Q1969.29 316.608 1965.47 316.608 Q1959.37 316.608 1954.91 320.48 Q1950.51 324.352 1950.51 335.173 L1950.51 365.938 L1940.96 365.938 Z" fill="#000000" fill-rule="nonzero" fill-opacity="1" /><path clip-path="url(#clip310)" d="M1992.57 387.526 L1992.57 380.63 L2055.85 380.63 L2055.85 387.526 L1992.57 387.526 Z" fill="#000000" fill-rule="nonzero" fill-opacity="1" /><path clip-path="url(#clip310)" d="M2063.01 365.938 L2063.01 288.178 L2092.34 288.178 Q2100.09 288.178 2104.17 288.92 Q2109.9 289.875 2113.77 292.58 Q2117.64 295.232 2119.98 300.059 Q2122.37 304.886 2122.37 310.667 Q2122.37 320.586 2116.05 327.482 Q2109.74 334.324 2093.25 334.324 L2073.3 334.324 L2073.3 365.938 L2063.01 365.938 M2073.3 325.148 L2093.4 325.148 Q2103.38 325.148 2107.57 321.435 Q2111.76 317.722 2111.76 310.986 Q2111.76 306.106 2109.26 302.658 Q2106.82 299.157 2102.79 298.043 Q2100.19 297.354 2093.19 297.354 L2073.3 297.354 L2073.3 325.148 Z" fill="#000000" fill-rule="nonzero" fill-opacity="1" /><path clip-path="url(#clip310)" d="M2181.77 356.761 L2181.77 365.938 L2130.38 365.938 Q2130.27 362.49 2131.49 359.307 Q2133.45 354.056 2137.75 348.964 Q2142.1 343.872 2150.27 337.189 Q2162.94 326.792 2167.4 320.746 Q2171.85 314.646 2171.85 309.235 Q2171.85 303.56 2167.77 299.688 Q2163.74 295.763 2157.21 295.763 Q2150.32 295.763 2146.18 299.9 Q2142.04 304.037 2141.99 311.357 L2132.18 310.349 Q2133.19 299.369 2139.76 293.641 Q2146.34 287.859 2157.43 287.859 Q2168.62 287.859 2175.14 294.065 Q2181.67 300.271 2181.67 309.448 Q2181.67 314.115 2179.76 318.624 Q2177.85 323.132 2173.39 328.118 Q2168.99 333.104 2158.7 341.803 Q2150.11 349.017 2147.67 351.616 Q2145.23 354.162 2143.64 356.761 L2181.77 356.761 Z" fill="#000000" fill-rule="nonzero" fill-opacity="1" /><path clip-path="url(#clip310)" d="M2242.19 356.761 L2242.19 365.938 L2190.79 365.938 Q2190.68 362.49 2191.9 359.307 Q2193.87 354.056 2198.16 348.964 Q2202.51 343.872 2210.68 337.189 Q2223.36 326.792 2227.81 320.746 Q2232.27 314.646 2232.27 309.235 Q2232.27 303.56 2228.19 299.688 Q2224.15 295.763 2217.63 295.763 Q2210.73 295.763 2206.6 299.9 Q2202.46 304.037 2202.41 311.357 L2192.59 310.349 Q2193.6 299.369 2200.18 293.641 Q2206.76 287.859 2217.84 287.859 Q2229.03 287.859 2235.56 294.065 Q2242.08 300.271 2242.08 309.448 Q2242.08 314.115 2240.17 318.624 Q2238.26 323.132 2233.81 328.118 Q2229.41 333.104 2219.11 341.803 Q2210.52 349.017 2208.08 351.616 Q2205.64 354.162 2204.05 356.761 L2242.19 356.761 Z" fill="#000000" fill-rule="nonzero" fill-opacity="1" /></svg>
