<?xml version="1.0" encoding="utf-8"?>
<svg xmlns="http://www.w3.org/2000/svg" xmlns:xlink="http://www.w3.org/1999/xlink" width="600" height="450" viewBox="0 0 2400 1800">
<defs>
  <clipPath id="clip120">
    <rect x="0" y="0" width="2400" height="1800"/>
  </clipPath>
</defs>
<path clip-path="url(#clip120)" d="M0 1800 L2400 1800 L2400 0 L0 0  Z" fill="#ffffff" fill-rule="evenodd" fill-opacity="1"/>
<defs>
  <clipPath id="clip121">
    <rect x="480" y="0" width="1681" height="1681"/>
  </clipPath>
</defs>
<path clip-path="url(#clip120)" d="M238.029 1506.52 L2352.76 1506.52 L2352.76 47.2441 L238.029 47.2441  Z" fill="#ffffff" fill-rule="evenodd" fill-opacity="1"/>
<defs>
  <clipPath id="clip122">
    <rect x="238" y="47" width="2116" height="1460"/>
  </clipPath>
</defs>
<polyline clip-path="url(#clip122)" style="stroke:#000000; stroke-linecap:round; stroke-linejoin:round; stroke-width:2; stroke-opacity:0.1; fill:none" points="573.056,1506.52 573.056,47.2441 "/>
<polyline clip-path="url(#clip122)" style="stroke:#000000; stroke-linecap:round; stroke-linejoin:round; stroke-width:2; stroke-opacity:0.1; fill:none" points="917.026,1506.52 917.026,47.2441 "/>
<polyline clip-path="url(#clip122)" style="stroke:#000000; stroke-linecap:round; stroke-linejoin:round; stroke-width:2; stroke-opacity:0.1; fill:none" points="1261,1506.52 1261,47.2441 "/>
<polyline clip-path="url(#clip122)" style="stroke:#000000; stroke-linecap:round; stroke-linejoin:round; stroke-width:2; stroke-opacity:0.1; fill:none" points="1604.97,1506.52 1604.97,47.2441 "/>
<polyline clip-path="url(#clip122)" style="stroke:#000000; stroke-linecap:round; stroke-linejoin:round; stroke-width:2; stroke-opacity:0.1; fill:none" points="1948.94,1506.52 1948.94,47.2441 "/>
<polyline clip-path="url(#clip122)" style="stroke:#000000; stroke-linecap:round; stroke-linejoin:round; stroke-width:2; stroke-opacity:0.1; fill:none" points="2292.91,1506.52 2292.91,47.2441 "/>
<polyline clip-path="url(#clip122)" style="stroke:#000000; stroke-linecap:round; stroke-linejoin:round; stroke-width:2; stroke-opacity:0.1; fill:none" points="238.029,1253.15 2352.76,1253.15 "/>
<polyline clip-path="url(#clip122)" style="stroke:#000000; stroke-linecap:round; stroke-linejoin:round; stroke-width:2; stroke-opacity:0.1; fill:none" points="238.029,958.467 2352.76,958.467 "/>
<polyline clip-path="url(#clip122)" style="stroke:#000000; stroke-linecap:round; stroke-linejoin:round; stroke-width:2; stroke-opacity:0.1; fill:none" points="238.029,663.788 2352.76,663.788 "/>
<polyline clip-path="url(#clip122)" style="stroke:#000000; stroke-linecap:round; stroke-linejoin:round; stroke-width:2; stroke-opacity:0.1; fill:none" points="238.029,369.109 2352.76,369.109 "/>
<polyline clip-path="url(#clip122)" style="stroke:#000000; stroke-linecap:round; stroke-linejoin:round; stroke-width:2; stroke-opacity:0.1; fill:none" points="238.029,74.4302 2352.76,74.4302 "/>
<polyline clip-path="url(#clip120)" style="stroke:#000000; stroke-linecap:round; stroke-linejoin:round; stroke-width:4; stroke-opacity:1; fill:none" points="238.029,1506.52 2352.76,1506.52 "/>
<polyline clip-path="url(#clip120)" style="stroke:#000000; stroke-linecap:round; stroke-linejoin:round; stroke-width:2; stroke-opacity:0.5; fill:none" points="238.029,47.2441 2352.76,47.2441 "/>
<polyline clip-path="url(#clip120)" style="stroke:#000000; stroke-linecap:round; stroke-linejoin:round; stroke-width:4; stroke-opacity:1; fill:none" points="573.056,1506.52 573.056,1487.63 "/>
<polyline clip-path="url(#clip120)" style="stroke:#000000; stroke-linecap:round; stroke-linejoin:round; stroke-width:4; stroke-opacity:1; fill:none" points="917.026,1506.52 917.026,1487.63 "/>
<polyline clip-path="url(#clip120)" style="stroke:#000000; stroke-linecap:round; stroke-linejoin:round; stroke-width:4; stroke-opacity:1; fill:none" points="1261,1506.52 1261,1487.63 "/>
<polyline clip-path="url(#clip120)" style="stroke:#000000; stroke-linecap:round; stroke-linejoin:round; stroke-width:4; stroke-opacity:1; fill:none" points="1604.97,1506.52 1604.97,1487.63 "/>
<polyline clip-path="url(#clip120)" style="stroke:#000000; stroke-linecap:round; stroke-linejoin:round; stroke-width:4; stroke-opacity:1; fill:none" points="1948.94,1506.52 1948.94,1487.63 "/>
<polyline clip-path="url(#clip120)" style="stroke:#000000; stroke-linecap:round; stroke-linejoin:round; stroke-width:4; stroke-opacity:1; fill:none" points="2292.91,1506.52 2292.91,1487.63 "/>
<path clip-path="url(#clip120)" d="M550.141 1594.02 L559.052 1593.26 Q560.043 1599.77 563.626 1603.07 Q567.256 1606.32 572.348 1606.32 Q578.478 1606.32 582.721 1601.7 Q586.964 1597.08 586.964 1589.45 Q586.964 1582.18 582.863 1577.99 Q578.808 1573.79 572.207 1573.79 Q568.105 1573.79 564.805 1575.68 Q561.504 1577.52 559.618 1580.49 L551.65 1579.45 L558.345 1543.95 L592.717 1543.95 L592.717 1552.06 L565.135 1552.06 L561.41 1570.63 Q567.634 1566.3 574.47 1566.3 Q583.523 1566.3 589.746 1572.57 Q595.97 1578.84 595.97 1588.69 Q595.97 1598.07 590.501 1604.91 Q583.853 1613.3 572.348 1613.3 Q562.919 1613.3 556.931 1608.02 Q550.99 1602.74 550.141 1594.02 Z" fill="#000000" fill-rule="nonzero" fill-opacity="1" /><path clip-path="url(#clip120)" d="M896.351 1612.12 L887.864 1612.12 L887.864 1558.04 Q884.799 1560.97 879.802 1563.89 Q874.851 1566.81 870.891 1568.28 L870.891 1560.07 Q878.01 1556.72 883.338 1551.96 Q888.666 1547.2 890.882 1542.72 L896.351 1542.72 L896.351 1612.12 Z" fill="#000000" fill-rule="nonzero" fill-opacity="1" /><path clip-path="url(#clip120)" d="M918.086 1578.04 Q918.086 1565.78 920.585 1558.33 Q923.131 1550.83 928.082 1546.78 Q933.08 1542.72 940.623 1542.72 Q946.187 1542.72 950.383 1544.98 Q954.579 1547.2 957.314 1551.44 Q960.049 1555.64 961.605 1561.72 Q963.161 1567.76 963.161 1578.04 Q963.161 1590.2 960.662 1597.7 Q958.163 1605.15 953.165 1609.25 Q948.214 1613.3 940.623 1613.3 Q930.628 1613.3 924.923 1606.14 Q918.086 1597.51 918.086 1578.04 M926.809 1578.04 Q926.809 1595.06 930.769 1600.71 Q934.777 1606.32 940.623 1606.32 Q946.47 1606.32 950.43 1600.67 Q954.438 1595.01 954.438 1578.04 Q954.438 1560.97 950.43 1555.36 Q946.47 1549.75 940.529 1549.75 Q934.683 1549.75 931.194 1554.7 Q926.809 1561.01 926.809 1578.04 Z" fill="#000000" fill-rule="nonzero" fill-opacity="1" /><path clip-path="url(#clip120)" d="M1239.94 1612.12 L1231.46 1612.12 L1231.46 1558.04 Q1228.39 1560.97 1223.39 1563.89 Q1218.44 1566.81 1214.48 1568.28 L1214.48 1560.07 Q1221.6 1556.72 1226.93 1551.96 Q1232.26 1547.2 1234.47 1542.72 L1239.94 1542.72 L1239.94 1612.12 Z" fill="#000000" fill-rule="nonzero" fill-opacity="1" /><path clip-path="url(#clip120)" d="M1261.68 1594.02 L1270.59 1593.26 Q1271.58 1599.77 1275.16 1603.07 Q1278.79 1606.32 1283.89 1606.32 Q1290.02 1606.32 1294.26 1601.7 Q1298.5 1597.08 1298.5 1589.45 Q1298.5 1582.18 1294.4 1577.99 Q1290.35 1573.79 1283.74 1573.79 Q1279.64 1573.79 1276.34 1575.68 Q1273.04 1577.52 1271.16 1580.49 L1263.19 1579.45 L1269.88 1543.95 L1304.25 1543.95 L1304.25 1552.06 L1276.67 1552.06 L1272.95 1570.63 Q1279.17 1566.3 1286.01 1566.3 Q1295.06 1566.3 1301.28 1572.57 Q1307.51 1578.84 1307.51 1588.69 Q1307.51 1598.07 1302.04 1604.91 Q1295.39 1613.3 1283.89 1613.3 Q1274.46 1613.3 1268.47 1608.02 Q1262.53 1602.74 1261.68 1594.02 Z" fill="#000000" fill-rule="nonzero" fill-opacity="1" /><path clip-path="url(#clip120)" d="M1600.77 1603.97 L1600.77 1612.12 L1555.08 1612.12 Q1554.99 1609.06 1556.07 1606.23 Q1557.82 1601.56 1561.64 1597.04 Q1565.5 1592.51 1572.76 1586.57 Q1584.03 1577.33 1587.99 1571.95 Q1591.95 1566.53 1591.95 1561.72 Q1591.95 1556.68 1588.32 1553.24 Q1584.74 1549.75 1578.94 1549.75 Q1572.81 1549.75 1569.13 1553.42 Q1565.45 1557.1 1565.41 1563.61 L1556.69 1562.71 Q1557.58 1552.95 1563.43 1547.86 Q1569.27 1542.72 1579.13 1542.72 Q1589.08 1542.72 1594.88 1548.24 Q1600.67 1553.75 1600.67 1561.91 Q1600.67 1566.06 1598.98 1570.07 Q1597.28 1574.07 1593.32 1578.51 Q1589.41 1582.94 1580.26 1590.67 Q1572.62 1597.08 1570.45 1599.39 Q1568.28 1601.66 1566.87 1603.97 L1600.77 1603.97 Z" fill="#000000" fill-rule="nonzero" fill-opacity="1" /><path clip-path="url(#clip120)" d="M1609.87 1578.04 Q1609.87 1565.78 1612.37 1558.33 Q1614.91 1550.83 1619.86 1546.78 Q1624.86 1542.72 1632.41 1542.72 Q1637.97 1542.72 1642.17 1544.98 Q1646.36 1547.2 1649.1 1551.44 Q1651.83 1555.64 1653.39 1561.72 Q1654.94 1567.76 1654.94 1578.04 Q1654.94 1590.2 1652.44 1597.7 Q1649.95 1605.15 1644.95 1609.25 Q1640 1613.3 1632.41 1613.3 Q1622.41 1613.3 1616.71 1606.14 Q1609.87 1597.51 1609.87 1578.04 M1618.59 1578.04 Q1618.59 1595.06 1622.55 1600.71 Q1626.56 1606.32 1632.41 1606.32 Q1638.25 1606.32 1642.21 1600.67 Q1646.22 1595.01 1646.22 1578.04 Q1646.22 1560.97 1642.21 1555.36 Q1638.25 1549.75 1632.31 1549.75 Q1626.47 1549.75 1622.98 1554.7 Q1618.59 1561.01 1618.59 1578.04 Z" fill="#000000" fill-rule="nonzero" fill-opacity="1" /><path clip-path="url(#clip120)" d="M1944.36 1603.97 L1944.36 1612.12 L1898.67 1612.12 Q1898.58 1609.06 1899.66 1606.23 Q1901.41 1601.56 1905.23 1597.04 Q1909.09 1592.51 1916.36 1586.57 Q1927.62 1577.33 1931.58 1571.95 Q1935.55 1566.53 1935.55 1561.72 Q1935.55 1556.68 1931.91 1553.24 Q1928.33 1549.75 1922.53 1549.75 Q1916.4 1549.75 1912.73 1553.42 Q1909.05 1557.1 1909 1563.61 L1900.28 1562.71 Q1901.17 1552.95 1907.02 1547.86 Q1912.87 1542.72 1922.72 1542.72 Q1932.67 1542.72 1938.47 1548.24 Q1944.27 1553.75 1944.27 1561.91 Q1944.27 1566.06 1942.57 1570.07 Q1940.87 1574.07 1936.91 1578.51 Q1933 1582.94 1923.85 1590.67 Q1916.21 1597.08 1914.05 1599.39 Q1911.88 1601.66 1910.46 1603.97 L1944.36 1603.97 Z" fill="#000000" fill-rule="nonzero" fill-opacity="1" /><path clip-path="url(#clip120)" d="M1953.46 1594.02 L1962.37 1593.26 Q1963.36 1599.77 1966.95 1603.07 Q1970.58 1606.32 1975.67 1606.32 Q1981.8 1606.32 1986.04 1601.7 Q1990.28 1597.08 1990.28 1589.45 Q1990.28 1582.18 1986.18 1577.99 Q1982.13 1573.79 1975.53 1573.79 Q1971.43 1573.79 1968.12 1575.68 Q1964.82 1577.52 1962.94 1580.49 L1954.97 1579.45 L1961.67 1543.95 L1996.04 1543.95 L1996.04 1552.06 L1968.45 1552.06 L1964.73 1570.63 Q1970.95 1566.3 1977.79 1566.3 Q1986.84 1566.3 1993.07 1572.57 Q1999.29 1578.84 1999.29 1588.69 Q1999.29 1598.07 1993.82 1604.91 Q1987.17 1613.3 1975.67 1613.3 Q1966.24 1613.3 1960.25 1608.02 Q1954.31 1602.74 1953.46 1594.02 Z" fill="#000000" fill-rule="nonzero" fill-opacity="1" /><path clip-path="url(#clip120)" d="M2243.54 1593.88 L2252.03 1592.75 Q2253.49 1599.96 2256.98 1603.17 Q2260.51 1606.32 2265.56 1606.32 Q2271.55 1606.32 2275.65 1602.18 Q2279.8 1598.03 2279.8 1591.9 Q2279.8 1586.05 2275.98 1582.28 Q2272.16 1578.46 2266.27 1578.46 Q2263.86 1578.46 2260.28 1579.4 L2261.22 1571.95 Q2262.07 1572.05 2262.59 1572.05 Q2268.01 1572.05 2272.35 1569.22 Q2276.69 1566.39 2276.69 1560.5 Q2276.69 1555.83 2273.53 1552.76 Q2270.37 1549.7 2265.37 1549.7 Q2260.42 1549.7 2257.12 1552.81 Q2253.82 1555.92 2252.88 1562.15 L2244.39 1560.64 Q2245.95 1552.1 2251.46 1547.44 Q2256.98 1542.72 2265.18 1542.72 Q2270.84 1542.72 2275.6 1545.17 Q2280.36 1547.58 2282.86 1551.77 Q2285.41 1555.97 2285.41 1560.68 Q2285.41 1565.16 2283 1568.84 Q2280.6 1572.52 2275.88 1574.69 Q2282.01 1576.1 2285.41 1580.58 Q2288.8 1585.01 2288.8 1591.71 Q2288.8 1600.76 2282.2 1607.08 Q2275.6 1613.35 2265.51 1613.35 Q2256.41 1613.35 2250.38 1607.93 Q2244.39 1602.51 2243.54 1593.88 Z" fill="#000000" fill-rule="nonzero" fill-opacity="1" /><path clip-path="url(#clip120)" d="M2297.2 1578.04 Q2297.2 1565.78 2299.69 1558.33 Q2302.24 1550.83 2307.19 1546.78 Q2312.19 1542.72 2319.73 1542.72 Q2325.3 1542.72 2329.49 1544.98 Q2333.69 1547.2 2336.42 1551.44 Q2339.16 1555.64 2340.71 1561.72 Q2342.27 1567.76 2342.27 1578.04 Q2342.27 1590.2 2339.77 1597.7 Q2337.27 1605.15 2332.27 1609.25 Q2327.32 1613.3 2319.73 1613.3 Q2309.74 1613.3 2304.03 1606.14 Q2297.2 1597.51 2297.2 1578.04 M2305.92 1578.04 Q2305.92 1595.06 2309.88 1600.71 Q2313.89 1606.32 2319.73 1606.32 Q2325.58 1606.32 2329.54 1600.67 Q2333.55 1595.01 2333.55 1578.04 Q2333.55 1560.97 2329.54 1555.36 Q2325.58 1549.75 2319.64 1549.75 Q2313.79 1549.75 2310.3 1554.7 Q2305.92 1561.01 2305.92 1578.04 Z" fill="#000000" fill-rule="nonzero" fill-opacity="1" /><path clip-path="url(#clip120)" d="M1194.82 1721.38 L1204.69 1722.6 Q1202.36 1731.24 1196.04 1736.01 Q1189.73 1740.79 1179.92 1740.79 Q1167.56 1740.79 1160.29 1733.2 Q1153.08 1725.57 1153.08 1711.83 Q1153.08 1697.61 1160.4 1689.76 Q1167.72 1681.91 1179.39 1681.91 Q1190.69 1681.91 1197.85 1689.6 Q1205.01 1697.29 1205.01 1711.24 Q1205.01 1712.09 1204.96 1713.79 L1162.95 1713.79 Q1163.48 1723.07 1168.2 1728.01 Q1172.92 1732.94 1179.97 1732.94 Q1185.22 1732.94 1188.94 1730.18 Q1192.65 1727.42 1194.82 1721.38 M1163.48 1705.94 L1194.93 1705.94 Q1194.29 1698.83 1191.32 1695.28 Q1186.76 1689.76 1179.5 1689.76 Q1172.92 1689.76 1168.41 1694.16 Q1163.95 1698.57 1163.48 1705.94 Z" fill="#000000" fill-rule="nonzero" fill-opacity="1" /><path clip-path="url(#clip120)" d="M1216.68 1761.1 L1216.68 1683.18 L1225.38 1683.18 L1225.38 1690.5 Q1228.45 1686.21 1232.33 1684.09 Q1236.2 1681.91 1241.71 1681.91 Q1248.93 1681.91 1254.44 1685.62 Q1259.96 1689.34 1262.77 1696.13 Q1265.58 1702.86 1265.58 1710.93 Q1265.58 1719.57 1262.45 1726.52 Q1259.38 1733.42 1253.44 1737.13 Q1247.55 1740.79 1241.02 1740.79 Q1236.25 1740.79 1232.43 1738.77 Q1228.67 1736.76 1226.23 1733.68 L1226.23 1761.1 L1216.68 1761.1 M1225.32 1711.67 Q1225.32 1722.54 1229.73 1727.74 Q1234.13 1732.94 1240.39 1732.94 Q1246.75 1732.94 1251.26 1727.58 Q1255.82 1722.17 1255.82 1710.87 Q1255.82 1700.11 1251.37 1694.75 Q1246.96 1689.39 1240.81 1689.39 Q1234.71 1689.39 1229.99 1695.12 Q1225.32 1700.79 1225.32 1711.67 Z" fill="#000000" fill-rule="nonzero" fill-opacity="1" /><path clip-path="url(#clip120)" d="M1273.54 1711.35 Q1273.54 1695.7 1282.24 1688.17 Q1289.5 1681.91 1299.95 1681.91 Q1311.57 1681.91 1318.94 1689.55 Q1326.32 1697.13 1326.32 1710.55 Q1326.32 1721.43 1323.03 1727.69 Q1319.79 1733.89 1313.53 1737.34 Q1307.33 1740.79 1299.95 1740.79 Q1288.13 1740.79 1280.81 1733.2 Q1273.54 1725.62 1273.54 1711.35 M1283.35 1711.35 Q1283.35 1722.17 1288.07 1727.58 Q1292.79 1732.94 1299.95 1732.94 Q1307.06 1732.94 1311.78 1727.53 Q1316.5 1722.12 1316.5 1711.03 Q1316.5 1700.58 1311.73 1695.23 Q1307.01 1689.82 1299.95 1689.82 Q1292.79 1689.82 1288.07 1695.17 Q1283.35 1700.53 1283.35 1711.35 Z" fill="#000000" fill-rule="nonzero" fill-opacity="1" /><path clip-path="url(#clip120)" d="M1374.27 1718.88 L1383.65 1720.1 Q1382.12 1729.81 1375.75 1735.33 Q1369.44 1740.79 1360.21 1740.79 Q1348.65 1740.79 1341.59 1733.26 Q1334.59 1725.67 1334.59 1711.56 Q1334.59 1702.44 1337.61 1695.6 Q1340.64 1688.75 1346.79 1685.36 Q1353 1681.91 1360.26 1681.91 Q1369.44 1681.91 1375.27 1686.58 Q1381.11 1691.19 1382.75 1699.73 L1373.47 1701.17 Q1372.14 1695.49 1368.75 1692.63 Q1365.41 1689.76 1360.63 1689.76 Q1353.42 1689.76 1348.91 1694.96 Q1344.4 1700.11 1344.4 1711.3 Q1344.4 1722.65 1348.75 1727.79 Q1353.1 1732.94 1360.1 1732.94 Q1365.73 1732.94 1369.49 1729.49 Q1373.26 1726.04 1374.27 1718.88 Z" fill="#000000" fill-rule="nonzero" fill-opacity="1" /><path clip-path="url(#clip120)" d="M1391.82 1739.52 L1391.82 1661.76 L1401.37 1661.76 L1401.37 1689.66 Q1408.05 1681.91 1418.24 1681.91 Q1424.5 1681.91 1429.11 1684.4 Q1433.73 1686.84 1435.69 1691.19 Q1437.7 1695.54 1437.7 1703.82 L1437.7 1739.52 L1428.16 1739.52 L1428.16 1703.82 Q1428.16 1696.66 1425.03 1693.42 Q1421.95 1690.13 1416.28 1690.13 Q1412.03 1690.13 1408.27 1692.36 Q1404.55 1694.54 1402.96 1698.3 Q1401.37 1702.07 1401.37 1708.7 L1401.37 1739.52 L1391.82 1739.52 Z" fill="#000000" fill-rule="nonzero" fill-opacity="1" /><polyline clip-path="url(#clip120)" style="stroke:#000000; stroke-linecap:round; stroke-linejoin:round; stroke-width:4; stroke-opacity:1; fill:none" points="238.029,1506.52 238.029,47.2441 "/>
<polyline clip-path="url(#clip120)" style="stroke:#000000; stroke-linecap:round; stroke-linejoin:round; stroke-width:2; stroke-opacity:0.5; fill:none" points="2352.76,1506.52 2352.76,47.2441 "/>
<polyline clip-path="url(#clip120)" style="stroke:#000000; stroke-linecap:round; stroke-linejoin:round; stroke-width:4; stroke-opacity:1; fill:none" points="238.029,1253.15 256.927,1253.15 "/>
<polyline clip-path="url(#clip120)" style="stroke:#000000; stroke-linecap:round; stroke-linejoin:round; stroke-width:4; stroke-opacity:1; fill:none" points="238.029,958.467 256.927,958.467 "/>
<polyline clip-path="url(#clip120)" style="stroke:#000000; stroke-linecap:round; stroke-linejoin:round; stroke-width:4; stroke-opacity:1; fill:none" points="238.029,663.788 256.927,663.788 "/>
<polyline clip-path="url(#clip120)" style="stroke:#000000; stroke-linecap:round; stroke-linejoin:round; stroke-width:4; stroke-opacity:1; fill:none" points="238.029,369.109 256.927,369.109 "/>
<polyline clip-path="url(#clip120)" style="stroke:#000000; stroke-linecap:round; stroke-linejoin:round; stroke-width:4; stroke-opacity:1; fill:none" points="238.029,74.4302 256.927,74.4302 "/>
<path clip-path="url(#clip120)" d="M202.029 1287.71 L193.542 1287.71 L193.542 1233.63 Q190.478 1236.55 185.48 1239.47 Q180.529 1242.4 176.569 1243.86 L176.569 1235.65 Q183.688 1232.31 189.016 1227.54 Q194.344 1222.78 196.56 1218.3 L202.029 1218.3 L202.029 1287.71 Z" fill="#000000" fill-rule="nonzero" fill-opacity="1" /><path clip-path="url(#clip120)" d="M202.029 984.87 L202.029 993.027 L156.342 993.027 Q156.248 989.962 157.332 987.133 Q159.076 982.466 162.896 977.939 Q166.762 973.413 174.023 967.472 Q185.291 958.231 189.252 952.856 Q193.212 947.434 193.212 942.625 Q193.212 937.58 189.582 934.138 Q185.998 930.649 180.199 930.649 Q174.07 930.649 170.392 934.327 Q166.715 938.004 166.667 944.511 L157.945 943.615 Q158.841 933.855 164.687 928.763 Q170.534 923.624 180.388 923.624 Q190.336 923.624 196.135 929.14 Q201.935 934.657 201.935 942.814 Q201.935 946.963 200.237 950.97 Q198.54 954.978 194.579 959.41 Q190.666 963.842 181.519 971.574 Q173.881 977.987 171.712 980.297 Q169.543 982.56 168.129 984.87 L202.029 984.87 Z" fill="#000000" fill-rule="nonzero" fill-opacity="1" /><path clip-path="url(#clip120)" d="M156.766 680.101 L165.253 678.97 Q166.715 686.184 170.204 689.39 Q173.74 692.549 178.785 692.549 Q184.773 692.549 188.874 688.4 Q193.024 684.251 193.024 678.121 Q193.024 672.275 189.204 668.503 Q185.385 664.684 179.492 664.684 Q177.087 664.684 173.504 665.627 L174.447 658.177 Q175.296 658.272 175.814 658.272 Q181.236 658.272 185.574 655.443 Q189.912 652.614 189.912 646.72 Q189.912 642.052 186.753 638.988 Q183.594 635.923 178.596 635.923 Q173.645 635.923 170.345 639.035 Q167.045 642.147 166.102 648.37 L157.615 646.862 Q159.171 638.328 164.687 633.66 Q170.204 628.945 178.407 628.945 Q184.065 628.945 188.827 631.397 Q193.589 633.801 196.088 637.998 Q198.634 642.194 198.634 646.909 Q198.634 651.388 196.23 655.066 Q193.825 658.743 189.11 660.912 Q195.24 662.326 198.634 666.806 Q202.029 671.238 202.029 677.933 Q202.029 686.985 195.428 693.303 Q188.827 699.574 178.737 699.574 Q169.638 699.574 163.603 694.152 Q157.615 688.73 156.766 680.101 Z" fill="#000000" fill-rule="nonzero" fill-opacity="1" /><path clip-path="url(#clip120)" d="M184.207 403.669 L184.207 387.12 L154.22 387.12 L154.22 379.34 L185.763 334.549 L192.693 334.549 L192.693 379.34 L202.029 379.34 L202.029 387.12 L192.693 387.12 L192.693 403.669 L184.207 403.669 M184.207 379.34 L184.207 348.175 L162.565 379.34 L184.207 379.34 Z" fill="#000000" fill-rule="nonzero" fill-opacity="1" /><path clip-path="url(#clip120)" d="M156.2 90.8851 L165.112 90.1307 Q166.102 96.6372 169.685 99.9376 Q173.315 103.191 178.407 103.191 Q184.537 103.191 188.78 98.5703 Q193.024 93.9497 193.024 86.3116 Q193.024 79.0507 188.922 74.8545 Q184.867 70.6583 178.266 70.6583 Q174.164 70.6583 170.864 72.5442 Q167.563 74.383 165.677 77.3534 L157.709 76.3161 L164.404 40.8131 L198.776 40.8131 L198.776 48.9227 L171.194 48.9227 L167.469 67.4993 Q173.693 63.1616 180.529 63.1616 Q189.582 63.1616 195.805 69.4324 Q202.029 75.7032 202.029 85.5573 Q202.029 94.9399 196.56 101.776 Q189.912 110.169 178.407 110.169 Q168.978 110.169 162.99 104.888 Q157.049 99.6076 156.2 90.8851 Z" fill="#000000" fill-rule="nonzero" fill-opacity="1" /><path clip-path="url(#clip120)" d="M94.8922 867.905 L17.1322 867.905 L17.1322 858.357 L94.8922 858.357 L94.8922 867.905 Z" fill="#000000" fill-rule="nonzero" fill-opacity="1" /><path clip-path="url(#clip120)" d="M66.7267 847.112 Q51.0792 847.112 43.5472 838.413 Q37.2882 831.146 37.2882 820.697 Q37.2882 809.081 44.9263 801.708 Q52.5114 794.335 65.9311 794.335 Q76.8047 794.335 83.0637 797.623 Q89.2697 800.859 92.7174 807.118 Q96.1652 813.324 96.1652 820.697 Q96.1652 832.525 88.5801 839.845 Q80.9951 847.112 66.7267 847.112 M66.7267 837.299 Q77.5473 837.299 82.9576 832.578 Q88.3149 827.858 88.3149 820.697 Q88.3149 813.589 82.9046 808.868 Q77.4943 804.148 66.4084 804.148 Q55.9591 804.148 50.6018 808.921 Q45.1915 813.642 45.1915 820.697 Q45.1915 827.858 50.5488 832.578 Q55.9061 837.299 66.7267 837.299 Z" fill="#000000" fill-rule="nonzero" fill-opacity="1" /><path clip-path="url(#clip120)" d="M78.0778 786.962 L76.5926 777.52 Q82.2681 776.725 85.2915 773.118 Q88.3149 769.458 88.3149 762.934 Q88.3149 756.357 85.6628 753.174 Q82.9576 749.991 79.3508 749.991 Q76.1152 749.991 74.2587 752.803 Q72.9857 754.765 71.0231 762.563 Q68.371 773.065 66.4615 777.149 Q64.4989 781.18 61.1042 783.302 Q57.6565 785.371 53.5192 785.371 Q49.7532 785.371 46.5706 783.673 Q43.335 781.923 41.2134 778.953 Q39.569 776.725 38.4552 772.906 Q37.2882 769.034 37.2882 764.631 Q37.2882 758.001 39.1978 753.015 Q41.1073 747.976 44.3959 745.589 Q47.6315 743.202 53.0948 742.3 L54.3678 751.636 Q50.0184 752.272 47.5784 755.349 Q45.1385 758.372 45.1385 763.942 Q45.1385 770.519 47.3132 773.33 Q49.488 776.141 52.4053 776.141 Q54.2618 776.141 55.7469 774.974 Q57.2852 773.807 58.293 771.314 Q58.8234 769.882 60.7329 762.881 Q63.4381 752.75 65.1885 748.772 Q66.8858 744.74 70.1744 742.459 Q73.4631 740.179 78.343 740.179 Q83.1168 740.179 87.3602 742.99 Q91.5505 745.748 93.8844 750.999 Q96.1652 756.25 96.1652 762.881 Q96.1652 773.861 91.6035 779.642 Q87.0419 785.371 78.0778 786.962 Z" fill="#000000" fill-rule="nonzero" fill-opacity="1" /><path clip-path="url(#clip120)" d="M78.0778 732.647 L76.5926 723.205 Q82.2681 722.41 85.2915 718.803 Q88.3149 715.143 88.3149 708.619 Q88.3149 702.041 85.6628 698.859 Q82.9576 695.676 79.3508 695.676 Q76.1152 695.676 74.2587 698.487 Q72.9857 700.45 71.0231 708.247 Q68.371 718.75 66.4615 722.834 Q64.4989 726.865 61.1042 728.987 Q57.6565 731.055 53.5192 731.055 Q49.7532 731.055 46.5706 729.358 Q43.335 727.608 41.2134 724.637 Q39.569 722.41 38.4552 718.59 Q37.2882 714.718 37.2882 710.316 Q37.2882 703.686 39.1978 698.7 Q41.1073 693.661 44.3959 691.274 Q47.6315 688.887 53.0948 687.985 L54.3678 697.32 Q50.0184 697.957 47.5784 701.033 Q45.1385 704.057 45.1385 709.626 Q45.1385 716.204 47.3132 719.015 Q49.488 721.826 52.4053 721.826 Q54.2618 721.826 55.7469 720.659 Q57.2852 719.492 58.293 716.999 Q58.8234 715.567 60.7329 708.565 Q63.4381 698.434 65.1885 694.456 Q66.8858 690.425 70.1744 688.144 Q73.4631 685.863 78.343 685.863 Q83.1168 685.863 87.3602 688.675 Q91.5505 691.433 93.8844 696.684 Q96.1652 701.935 96.1652 708.565 Q96.1652 719.545 91.6035 725.327 Q87.0419 731.055 78.0778 732.647 Z" fill="#000000" fill-rule="nonzero" fill-opacity="1" /><polyline clip-path="url(#clip122)" style="stroke:#4477aa; stroke-linecap:round; stroke-linejoin:round; stroke-width:8; stroke-opacity:1; fill:none" points="297.88,728.316 366.674,975.957 435.468,1076.92 504.262,1141.78 573.056,1193.16 641.85,1236.06 710.644,1272.43 779.438,1303.38 848.232,1329.65 917.026,1351.88 985.82,1370.65 1054.61,1386.45 1123.41,1399.74 1192.2,1410.91 1261,1420.28 1329.79,1428.15 1398.58,1434.73 1467.38,1440.25 1536.17,1444.87 1604.97,1448.73 1673.76,1452.01 1742.55,1454.71 1811.35,1456.96 1880.14,1458.85 1948.94,1460.43 2017.73,1461.75 2086.52,1462.85 2155.32,1463.79 2224.11,1464.57 2292.91,1465.22 "/>
<circle clip-path="url(#clip122)" cx="297.88" cy="728.316" r="14.4" fill="#4477aa" fill-rule="evenodd" fill-opacity="1" stroke="#000000" stroke-opacity="1" stroke-width="3.6"/>
<circle clip-path="url(#clip122)" cx="366.674" cy="975.957" r="14.4" fill="#4477aa" fill-rule="evenodd" fill-opacity="1" stroke="#000000" stroke-opacity="1" stroke-width="3.6"/>
<circle clip-path="url(#clip122)" cx="435.468" cy="1076.92" r="14.4" fill="#4477aa" fill-rule="evenodd" fill-opacity="1" stroke="#000000" stroke-opacity="1" stroke-width="3.6"/>
<circle clip-path="url(#clip122)" cx="504.262" cy="1141.78" r="14.4" fill="#4477aa" fill-rule="evenodd" fill-opacity="1" stroke="#000000" stroke-opacity="1" stroke-width="3.6"/>
<circle clip-path="url(#clip122)" cx="573.056" cy="1193.16" r="14.4" fill="#4477aa" fill-rule="evenodd" fill-opacity="1" stroke="#000000" stroke-opacity="1" stroke-width="3.6"/>
<circle clip-path="url(#clip122)" cx="641.85" cy="1236.06" r="14.4" fill="#4477aa" fill-rule="evenodd" fill-opacity="1" stroke="#000000" stroke-opacity="1" stroke-width="3.6"/>
<circle clip-path="url(#clip122)" cx="710.644" cy="1272.43" r="14.4" fill="#4477aa" fill-rule="evenodd" fill-opacity="1" stroke="#000000" stroke-opacity="1" stroke-width="3.6"/>
<circle clip-path="url(#clip122)" cx="779.438" cy="1303.38" r="14.4" fill="#4477aa" fill-rule="evenodd" fill-opacity="1" stroke="#000000" stroke-opacity="1" stroke-width="3.6"/>
<circle clip-path="url(#clip122)" cx="848.232" cy="1329.65" r="14.4" fill="#4477aa" fill-rule="evenodd" fill-opacity="1" stroke="#000000" stroke-opacity="1" stroke-width="3.6"/>
<circle clip-path="url(#clip122)" cx="917.026" cy="1351.88" r="14.4" fill="#4477aa" fill-rule="evenodd" fill-opacity="1" stroke="#000000" stroke-opacity="1" stroke-width="3.6"/>
<circle clip-path="url(#clip122)" cx="985.82" cy="1370.65" r="14.4" fill="#4477aa" fill-rule="evenodd" fill-opacity="1" stroke="#000000" stroke-opacity="1" stroke-width="3.6"/>
<circle clip-path="url(#clip122)" cx="1054.61" cy="1386.45" r="14.4" fill="#4477aa" fill-rule="evenodd" fill-opacity="1" stroke="#000000" stroke-opacity="1" stroke-width="3.6"/>
<circle clip-path="url(#clip122)" cx="1123.41" cy="1399.74" r="14.4" fill="#4477aa" fill-rule="evenodd" fill-opacity="1" stroke="#000000" stroke-opacity="1" stroke-width="3.6"/>
<circle clip-path="url(#clip122)" cx="1192.2" cy="1410.91" r="14.4" fill="#4477aa" fill-rule="evenodd" fill-opacity="1" stroke="#000000" stroke-opacity="1" stroke-width="3.6"/>
<circle clip-path="url(#clip122)" cx="1261" cy="1420.28" r="14.4" fill="#4477aa" fill-rule="evenodd" fill-opacity="1" stroke="#000000" stroke-opacity="1" stroke-width="3.6"/>
<circle clip-path="url(#clip122)" cx="1329.79" cy="1428.15" r="14.4" fill="#4477aa" fill-rule="evenodd" fill-opacity="1" stroke="#000000" stroke-opacity="1" stroke-width="3.6"/>
<circle clip-path="url(#clip122)" cx="1398.58" cy="1434.73" r="14.4" fill="#4477aa" fill-rule="evenodd" fill-opacity="1" stroke="#000000" stroke-opacity="1" stroke-width="3.6"/>
<circle clip-path="url(#clip122)" cx="1467.38" cy="1440.25" r="14.4" fill="#4477aa" fill-rule="evenodd" fill-opacity="1" stroke="#000000" stroke-opacity="1" stroke-width="3.6"/>
<circle clip-path="url(#clip122)" cx="1536.17" cy="1444.87" r="14.4" fill="#4477aa" fill-rule="evenodd" fill-opacity="1" stroke="#000000" stroke-opacity="1" stroke-width="3.6"/>
<circle clip-path="url(#clip122)" cx="1604.97" cy="1448.73" r="14.4" fill="#4477aa" fill-rule="evenodd" fill-opacity="1" stroke="#000000" stroke-opacity="1" stroke-width="3.6"/>
<circle clip-path="url(#clip122)" cx="1673.76" cy="1452.01" r="14.4" fill="#4477aa" fill-rule="evenodd" fill-opacity="1" stroke="#000000" stroke-opacity="1" stroke-width="3.6"/>
<circle clip-path="url(#clip122)" cx="1742.55" cy="1454.71" r="14.4" fill="#4477aa" fill-rule="evenodd" fill-opacity="1" stroke="#000000" stroke-opacity="1" stroke-width="3.6"/>
<circle clip-path="url(#clip122)" cx="1811.35" cy="1456.96" r="14.4" fill="#4477aa" fill-rule="evenodd" fill-opacity="1" stroke="#000000" stroke-opacity="1" stroke-width="3.6"/>
<circle clip-path="url(#clip122)" cx="1880.14" cy="1458.85" r="14.4" fill="#4477aa" fill-rule="evenodd" fill-opacity="1" stroke="#000000" stroke-opacity="1" stroke-width="3.6"/>
<circle clip-path="url(#clip122)" cx="1948.94" cy="1460.43" r="14.4" fill="#4477aa" fill-rule="evenodd" fill-opacity="1" stroke="#000000" stroke-opacity="1" stroke-width="3.6"/>
<circle clip-path="url(#clip122)" cx="2017.73" cy="1461.75" r="14.4" fill="#4477aa" fill-rule="evenodd" fill-opacity="1" stroke="#000000" stroke-opacity="1" stroke-width="3.6"/>
<circle clip-path="url(#clip122)" cx="2086.52" cy="1462.85" r="14.4" fill="#4477aa" fill-rule="evenodd" fill-opacity="1" stroke="#000000" stroke-opacity="1" stroke-width="3.6"/>
<circle clip-path="url(#clip122)" cx="2155.32" cy="1463.79" r="14.4" fill="#4477aa" fill-rule="evenodd" fill-opacity="1" stroke="#000000" stroke-opacity="1" stroke-width="3.6"/>
<circle clip-path="url(#clip122)" cx="2224.11" cy="1464.57" r="14.4" fill="#4477aa" fill-rule="evenodd" fill-opacity="1" stroke="#000000" stroke-opacity="1" stroke-width="3.6"/>
<circle clip-path="url(#clip122)" cx="2292.91" cy="1465.22" r="14.4" fill="#4477aa" fill-rule="evenodd" fill-opacity="1" stroke="#000000" stroke-opacity="1" stroke-width="3.6"/>
<polyline clip-path="url(#clip122)" style="stroke:#ee6677; stroke-linecap:round; stroke-linejoin:round; stroke-width:8; stroke-opacity:1; fill:none" points="297.88,88.5445 366.674,631.318 435.468,796.572 504.262,896.41 573.056,972.44 641.85,1035.69 710.644,1089.49 779.438,1135.93 848.232,1175.93 917.026,1210.41 985.82,1240.06 1054.61,1265.68 1123.41,1287.76 1192.2,1306.81 1261,1323.22 1329.79,1337.48 1398.58,1349.75 1467.38,1360.35 1536.17,1369.54 1604.97,1377.51 1673.76,1384.41 1742.55,1390.47 1811.35,1395.7 1880.14,1400.26 1948.94,1404.24 2017.73,1407.73 2086.52,1410.79 2155.32,1413.47 2224.11,1415.83 2292.91,1417.9 "/>
<circle clip-path="url(#clip122)" cx="297.88" cy="88.5445" r="14.4" fill="#ee6677" fill-rule="evenodd" fill-opacity="1" stroke="#000000" stroke-opacity="1" stroke-width="3.6"/>
<circle clip-path="url(#clip122)" cx="366.674" cy="631.318" r="14.4" fill="#ee6677" fill-rule="evenodd" fill-opacity="1" stroke="#000000" stroke-opacity="1" stroke-width="3.6"/>
<circle clip-path="url(#clip122)" cx="435.468" cy="796.572" r="14.4" fill="#ee6677" fill-rule="evenodd" fill-opacity="1" stroke="#000000" stroke-opacity="1" stroke-width="3.6"/>
<circle clip-path="url(#clip122)" cx="504.262" cy="896.41" r="14.4" fill="#ee6677" fill-rule="evenodd" fill-opacity="1" stroke="#000000" stroke-opacity="1" stroke-width="3.6"/>
<circle clip-path="url(#clip122)" cx="573.056" cy="972.44" r="14.4" fill="#ee6677" fill-rule="evenodd" fill-opacity="1" stroke="#000000" stroke-opacity="1" stroke-width="3.6"/>
<circle clip-path="url(#clip122)" cx="641.85" cy="1035.69" r="14.4" fill="#ee6677" fill-rule="evenodd" fill-opacity="1" stroke="#000000" stroke-opacity="1" stroke-width="3.6"/>
<circle clip-path="url(#clip122)" cx="710.644" cy="1089.49" r="14.4" fill="#ee6677" fill-rule="evenodd" fill-opacity="1" stroke="#000000" stroke-opacity="1" stroke-width="3.6"/>
<circle clip-path="url(#clip122)" cx="779.438" cy="1135.93" r="14.4" fill="#ee6677" fill-rule="evenodd" fill-opacity="1" stroke="#000000" stroke-opacity="1" stroke-width="3.6"/>
<circle clip-path="url(#clip122)" cx="848.232" cy="1175.93" r="14.4" fill="#ee6677" fill-rule="evenodd" fill-opacity="1" stroke="#000000" stroke-opacity="1" stroke-width="3.6"/>
<circle clip-path="url(#clip122)" cx="917.026" cy="1210.41" r="14.4" fill="#ee6677" fill-rule="evenodd" fill-opacity="1" stroke="#000000" stroke-opacity="1" stroke-width="3.6"/>
<circle clip-path="url(#clip122)" cx="985.82" cy="1240.06" r="14.4" fill="#ee6677" fill-rule="evenodd" fill-opacity="1" stroke="#000000" stroke-opacity="1" stroke-width="3.6"/>
<circle clip-path="url(#clip122)" cx="1054.61" cy="1265.68" r="14.4" fill="#ee6677" fill-rule="evenodd" fill-opacity="1" stroke="#000000" stroke-opacity="1" stroke-width="3.6"/>
<circle clip-path="url(#clip122)" cx="1123.41" cy="1287.76" r="14.4" fill="#ee6677" fill-rule="evenodd" fill-opacity="1" stroke="#000000" stroke-opacity="1" stroke-width="3.6"/>
<circle clip-path="url(#clip122)" cx="1192.2" cy="1306.81" r="14.4" fill="#ee6677" fill-rule="evenodd" fill-opacity="1" stroke="#000000" stroke-opacity="1" stroke-width="3.6"/>
<circle clip-path="url(#clip122)" cx="1261" cy="1323.22" r="14.4" fill="#ee6677" fill-rule="evenodd" fill-opacity="1" stroke="#000000" stroke-opacity="1" stroke-width="3.6"/>
<circle clip-path="url(#clip122)" cx="1329.79" cy="1337.48" r="14.4" fill="#ee6677" fill-rule="evenodd" fill-opacity="1" stroke="#000000" stroke-opacity="1" stroke-width="3.6"/>
<circle clip-path="url(#clip122)" cx="1398.58" cy="1349.75" r="14.4" fill="#ee6677" fill-rule="evenodd" fill-opacity="1" stroke="#000000" stroke-opacity="1" stroke-width="3.6"/>
<circle clip-path="url(#clip122)" cx="1467.38" cy="1360.35" r="14.4" fill="#ee6677" fill-rule="evenodd" fill-opacity="1" stroke="#000000" stroke-opacity="1" stroke-width="3.6"/>
<circle clip-path="url(#clip122)" cx="1536.17" cy="1369.54" r="14.4" fill="#ee6677" fill-rule="evenodd" fill-opacity="1" stroke="#000000" stroke-opacity="1" stroke-width="3.6"/>
<circle clip-path="url(#clip122)" cx="1604.97" cy="1377.51" r="14.4" fill="#ee6677" fill-rule="evenodd" fill-opacity="1" stroke="#000000" stroke-opacity="1" stroke-width="3.6"/>
<circle clip-path="url(#clip122)" cx="1673.76" cy="1384.41" r="14.4" fill="#ee6677" fill-rule="evenodd" fill-opacity="1" stroke="#000000" stroke-opacity="1" stroke-width="3.6"/>
<circle clip-path="url(#clip122)" cx="1742.55" cy="1390.47" r="14.4" fill="#ee6677" fill-rule="evenodd" fill-opacity="1" stroke="#000000" stroke-opacity="1" stroke-width="3.6"/>
<circle clip-path="url(#clip122)" cx="1811.35" cy="1395.7" r="14.4" fill="#ee6677" fill-rule="evenodd" fill-opacity="1" stroke="#000000" stroke-opacity="1" stroke-width="3.6"/>
<circle clip-path="url(#clip122)" cx="1880.14" cy="1400.26" r="14.4" fill="#ee6677" fill-rule="evenodd" fill-opacity="1" stroke="#000000" stroke-opacity="1" stroke-width="3.6"/>
<circle clip-path="url(#clip122)" cx="1948.94" cy="1404.24" r="14.4" fill="#ee6677" fill-rule="evenodd" fill-opacity="1" stroke="#000000" stroke-opacity="1" stroke-width="3.6"/>
<circle clip-path="url(#clip122)" cx="2017.73" cy="1407.73" r="14.4" fill="#ee6677" fill-rule="evenodd" fill-opacity="1" stroke="#000000" stroke-opacity="1" stroke-width="3.6"/>
<circle clip-path="url(#clip122)" cx="2086.52" cy="1410.79" r="14.4" fill="#ee6677" fill-rule="evenodd" fill-opacity="1" stroke="#000000" stroke-opacity="1" stroke-width="3.6"/>
<circle clip-path="url(#clip122)" cx="2155.32" cy="1413.47" r="14.4" fill="#ee6677" fill-rule="evenodd" fill-opacity="1" stroke="#000000" stroke-opacity="1" stroke-width="3.6"/>
<circle clip-path="url(#clip122)" cx="2224.11" cy="1415.83" r="14.4" fill="#ee6677" fill-rule="evenodd" fill-opacity="1" stroke="#000000" stroke-opacity="1" stroke-width="3.6"/>
<circle clip-path="url(#clip122)" cx="2292.91" cy="1417.9" r="14.4" fill="#ee6677" fill-rule="evenodd" fill-opacity="1" stroke="#000000" stroke-opacity="1" stroke-width="3.6"/>
<path clip-path="url(#clip120)" d="M1611.98 445.807 L2282.27 445.807 L2282.27 95.8868 L1611.98 95.8868  Z" fill="#ffffff" fill-rule="evenodd" fill-opacity="1"/>
<polyline clip-path="url(#clip120)" style="stroke:#000000; stroke-linecap:round; stroke-linejoin:round; stroke-width:4; stroke-opacity:1; fill:none" points="1611.98,445.807 2282.27,445.807 2282.27,95.8868 1611.98,95.8868 1611.98,445.807 "/>
<polyline clip-path="url(#clip120)" style="stroke:#4477aa; stroke-linecap:round; stroke-linejoin:round; stroke-width:18; stroke-opacity:1; fill:none" points="1635.47,212.527 1776.46,212.527 "/>
<circle clip-path="url(#clip120)" cx="1705.96" cy="212.527" r="8.70258" fill="#4477aa" fill-rule="evenodd" fill-opacity="1" stroke="#000000" stroke-opacity="1" stroke-width="8.70258"/>
<path clip-path="url(#clip120)" d="M1826.05 242.867 L1827.43 251.301 Q1823.4 252.149 1820.21 252.149 Q1815.02 252.149 1812.15 250.505 Q1809.29 248.861 1808.12 246.209 Q1806.95 243.503 1806.95 234.911 L1806.95 202.502 L1799.95 202.502 L1799.95 195.076 L1806.95 195.076 L1806.95 181.126 L1816.45 175.397 L1816.45 195.076 L1826.05 195.076 L1826.05 202.502 L1816.45 202.502 L1816.45 235.441 Q1816.45 239.525 1816.93 240.692 Q1817.46 241.859 1818.57 242.549 Q1819.74 243.238 1821.86 243.238 Q1823.45 243.238 1826.05 242.867 Z" fill="#000000" fill-rule="nonzero" fill-opacity="1" /><path clip-path="url(#clip120)" d="M1835.28 251.407 L1835.28 195.076 L1843.87 195.076 L1843.87 203.616 Q1847.16 197.622 1849.92 195.712 Q1852.73 193.803 1856.07 193.803 Q1860.9 193.803 1865.88 196.879 L1862.6 205.737 Q1859.09 203.669 1855.59 203.669 Q1852.46 203.669 1849.97 205.578 Q1847.48 207.435 1846.42 210.776 Q1844.83 215.868 1844.83 221.915 L1844.83 251.407 L1835.28 251.407 Z" fill="#000000" fill-rule="nonzero" fill-opacity="1" /><path clip-path="url(#clip120)" d="M1908.32 244.458 Q1903.01 248.967 1898.08 250.823 Q1893.2 252.68 1887.58 252.68 Q1878.3 252.68 1873.31 248.171 Q1868.32 243.61 1868.32 236.555 Q1868.32 232.418 1870.18 229.023 Q1872.09 225.575 1875.11 223.507 Q1878.19 221.438 1882.01 220.377 Q1884.82 219.634 1890.5 218.945 Q1902.06 217.566 1907.52 215.656 Q1907.58 213.694 1907.58 213.163 Q1907.58 207.329 1904.87 204.942 Q1901.21 201.706 1894 201.706 Q1887.26 201.706 1884.02 204.093 Q1880.84 206.427 1879.3 212.421 L1869.97 211.148 Q1871.24 205.154 1874.16 201.494 Q1877.08 197.781 1882.59 195.818 Q1888.11 193.803 1895.38 193.803 Q1902.59 193.803 1907.1 195.5 Q1911.61 197.198 1913.73 199.797 Q1915.85 202.343 1916.7 206.268 Q1917.18 208.708 1917.18 215.073 L1917.18 227.803 Q1917.18 241.117 1917.76 244.67 Q1918.4 248.171 1920.2 251.407 L1910.23 251.407 Q1908.74 248.436 1908.32 244.458 M1907.52 223.135 Q1902.32 225.257 1891.93 226.742 Q1886.04 227.591 1883.6 228.652 Q1881.16 229.712 1879.83 231.781 Q1878.51 233.797 1878.51 236.29 Q1878.51 240.109 1881.37 242.655 Q1884.29 245.201 1889.86 245.201 Q1895.38 245.201 1899.67 242.814 Q1903.97 240.374 1905.98 236.184 Q1907.52 232.948 1907.52 226.636 L1907.52 223.135 Z" fill="#000000" fill-rule="nonzero" fill-opacity="1" /><path clip-path="url(#clip120)" d="M1932.03 184.627 L1932.03 173.647 L1941.58 173.647 L1941.58 184.627 L1932.03 184.627 M1932.03 251.407 L1932.03 195.076 L1941.58 195.076 L1941.58 251.407 L1932.03 251.407 Z" fill="#000000" fill-rule="nonzero" fill-opacity="1" /><path clip-path="url(#clip120)" d="M1956.11 251.407 L1956.11 195.076 L1964.7 195.076 L1964.7 203.085 Q1970.91 193.803 1982.63 193.803 Q1987.72 193.803 1991.97 195.659 Q1996.26 197.463 1998.38 200.433 Q2000.51 203.403 2001.35 207.488 Q2001.88 210.14 2001.88 216.77 L2001.88 251.407 L1992.34 251.407 L1992.34 217.141 Q1992.34 211.307 1991.22 208.442 Q1990.11 205.525 1987.24 203.828 Q1984.43 202.077 1980.61 202.077 Q1974.51 202.077 1970.06 205.95 Q1965.66 209.822 1965.66 220.642 L1965.66 251.407 L1956.11 251.407 Z" fill="#000000" fill-rule="nonzero" fill-opacity="1" /><path clip-path="url(#clip120)" d="M2007.72 272.995 L2007.72 266.099 L2071 266.099 L2071 272.995 L2007.72 272.995 Z" fill="#000000" fill-rule="nonzero" fill-opacity="1" /><path clip-path="url(#clip120)" d="M2076.73 251.407 L2076.73 173.647 L2086.27 173.647 L2086.27 251.407 L2076.73 251.407 Z" fill="#000000" fill-rule="nonzero" fill-opacity="1" /><path clip-path="url(#clip120)" d="M2097.52 223.241 Q2097.52 207.594 2106.22 200.062 Q2113.49 193.803 2123.93 193.803 Q2135.55 193.803 2142.92 201.441 Q2150.3 209.026 2150.3 222.446 Q2150.3 233.319 2147.01 239.578 Q2143.77 245.784 2137.51 249.232 Q2131.31 252.68 2123.93 252.68 Q2112.11 252.68 2104.79 245.095 Q2097.52 237.51 2097.52 223.241 M2107.33 223.241 Q2107.33 234.062 2112.05 239.472 Q2116.77 244.83 2123.93 244.83 Q2131.04 244.83 2135.76 239.419 Q2140.48 234.009 2140.48 222.923 Q2140.48 212.474 2135.71 207.116 Q2130.99 201.706 2123.93 201.706 Q2116.77 201.706 2112.05 207.063 Q2107.33 212.421 2107.33 223.241 Z" fill="#000000" fill-rule="nonzero" fill-opacity="1" /><path clip-path="url(#clip120)" d="M2157.67 234.592 L2167.11 233.107 Q2167.91 238.783 2171.51 241.806 Q2175.17 244.83 2181.7 244.83 Q2188.27 244.83 2191.46 242.177 Q2194.64 239.472 2194.64 235.865 Q2194.64 232.63 2191.83 230.773 Q2189.87 229.5 2182.07 227.538 Q2171.57 224.886 2167.48 222.976 Q2163.45 221.014 2161.33 217.619 Q2159.26 214.171 2159.26 210.034 Q2159.26 206.268 2160.96 203.085 Q2162.71 199.85 2165.68 197.728 Q2167.91 196.084 2171.73 194.97 Q2175.6 193.803 2180 193.803 Q2186.63 193.803 2191.62 195.712 Q2196.66 197.622 2199.04 200.91 Q2201.43 204.146 2202.33 209.609 L2193 210.882 Q2192.36 206.533 2189.28 204.093 Q2186.26 201.653 2180.69 201.653 Q2174.11 201.653 2171.3 203.828 Q2168.49 206.003 2168.49 208.92 Q2168.49 210.776 2169.66 212.262 Q2170.82 213.8 2173.32 214.808 Q2174.75 215.338 2181.75 217.248 Q2191.88 219.953 2195.86 221.703 Q2199.89 223.4 2202.17 226.689 Q2204.45 229.978 2204.45 234.858 Q2204.45 239.631 2201.64 243.875 Q2198.88 248.065 2193.63 250.399 Q2188.38 252.68 2181.75 252.68 Q2170.77 252.68 2164.99 248.118 Q2159.26 243.556 2157.67 234.592 Z" fill="#000000" fill-rule="nonzero" fill-opacity="1" /><path clip-path="url(#clip120)" d="M2211.98 234.592 L2221.43 233.107 Q2222.22 238.783 2225.83 241.806 Q2229.49 244.83 2236.01 244.83 Q2242.59 244.83 2245.77 242.177 Q2248.96 239.472 2248.96 235.865 Q2248.96 232.63 2246.14 230.773 Q2244.18 229.5 2236.38 227.538 Q2225.88 224.886 2221.8 222.976 Q2217.77 221.014 2215.64 217.619 Q2213.58 214.171 2213.58 210.034 Q2213.58 206.268 2215.27 203.085 Q2217.02 199.85 2219.99 197.728 Q2222.22 196.084 2226.04 194.97 Q2229.91 193.803 2234.32 193.803 Q2240.95 193.803 2245.93 195.712 Q2250.97 197.622 2253.36 200.91 Q2255.74 204.146 2256.65 209.609 L2247.31 210.882 Q2246.67 206.533 2243.6 204.093 Q2240.57 201.653 2235.01 201.653 Q2228.43 201.653 2225.62 203.828 Q2222.81 206.003 2222.81 208.92 Q2222.81 210.776 2223.97 212.262 Q2225.14 213.8 2227.63 214.808 Q2229.06 215.338 2236.07 217.248 Q2246.2 219.953 2250.18 221.703 Q2254.21 223.4 2256.49 226.689 Q2258.77 229.978 2258.77 234.858 Q2258.77 239.631 2255.96 243.875 Q2253.2 248.065 2247.95 250.399 Q2242.7 252.68 2236.07 252.68 Q2225.09 252.68 2219.3 248.118 Q2213.58 243.556 2211.98 234.592 Z" fill="#000000" fill-rule="nonzero" fill-opacity="1" /><polyline clip-path="url(#clip120)" style="stroke:#ee6677; stroke-linecap:round; stroke-linejoin:round; stroke-width:18; stroke-opacity:1; fill:none" points="1635.47,329.167 1776.46,329.167 "/>
<circle clip-path="url(#clip120)" cx="1705.96" cy="329.167" r="8.70258" fill="#ee6677" fill-rule="evenodd" fill-opacity="1" stroke="#000000" stroke-opacity="1" stroke-width="8.70258"/>
<path clip-path="url(#clip120)" d="M1821.38 368.047 L1799.95 311.716 L1810.03 311.716 L1822.12 345.451 Q1824.09 350.914 1825.73 356.802 Q1827 352.346 1829.28 346.087 L1841.8 311.716 L1851.62 311.716 L1830.29 368.047 L1821.38 368.047 Z" fill="#000000" fill-rule="nonzero" fill-opacity="1" /><path clip-path="url(#clip120)" d="M1896.81 361.098 Q1891.5 365.607 1886.57 367.463 Q1881.69 369.32 1876.07 369.32 Q1866.79 369.32 1861.8 364.811 Q1856.81 360.25 1856.81 353.195 Q1856.81 349.058 1858.67 345.663 Q1860.58 342.215 1863.6 340.147 Q1866.68 338.078 1870.5 337.017 Q1873.31 336.274 1878.99 335.585 Q1890.55 334.206 1896.01 332.296 Q1896.06 330.334 1896.06 329.803 Q1896.06 323.969 1893.36 321.582 Q1889.7 318.346 1882.49 318.346 Q1875.75 318.346 1872.51 320.733 Q1869.33 323.067 1867.79 329.061 L1858.46 327.788 Q1859.73 321.794 1862.65 318.134 Q1865.57 314.421 1871.08 312.458 Q1876.6 310.443 1883.87 310.443 Q1891.08 310.443 1895.59 312.14 Q1900.1 313.838 1902.22 316.437 Q1904.34 318.983 1905.19 322.908 Q1905.67 325.348 1905.67 331.713 L1905.67 344.443 Q1905.67 357.757 1906.25 361.31 Q1906.89 364.811 1908.69 368.047 L1898.72 368.047 Q1897.23 365.076 1896.81 361.098 M1896.01 339.775 Q1890.81 341.897 1880.42 343.382 Q1874.53 344.231 1872.09 345.292 Q1869.65 346.352 1868.32 348.421 Q1867 350.437 1867 352.93 Q1867 356.749 1869.86 359.295 Q1872.78 361.841 1878.35 361.841 Q1883.87 361.841 1888.16 359.454 Q1892.46 357.014 1894.47 352.824 Q1896.01 349.588 1896.01 343.276 L1896.01 339.775 Z" fill="#000000" fill-rule="nonzero" fill-opacity="1" /><path clip-path="url(#clip120)" d="M1920.25 368.047 L1920.25 290.287 L1929.8 290.287 L1929.8 368.047 L1920.25 368.047 Z" fill="#000000" fill-rule="nonzero" fill-opacity="1" /><path clip-path="url(#clip120)" d="M1935.79 389.635 L1935.79 382.739 L1999.07 382.739 L1999.07 389.635 L1935.79 389.635 Z" fill="#000000" fill-rule="nonzero" fill-opacity="1" /><path clip-path="url(#clip120)" d="M2004.8 368.047 L2004.8 290.287 L2014.35 290.287 L2014.35 368.047 L2004.8 368.047 Z" fill="#000000" fill-rule="nonzero" fill-opacity="1" /><path clip-path="url(#clip120)" d="M2025.59 339.881 Q2025.59 324.234 2034.29 316.702 Q2041.56 310.443 2052.01 310.443 Q2063.63 310.443 2071 318.081 Q2078.37 325.666 2078.37 339.086 Q2078.37 349.959 2075.08 356.218 Q2071.85 362.424 2065.59 365.872 Q2059.38 369.32 2052.01 369.32 Q2040.18 369.32 2032.86 361.735 Q2025.59 354.15 2025.59 339.881 M2035.41 339.881 Q2035.41 350.702 2040.13 356.112 Q2044.85 361.47 2052.01 361.47 Q2059.12 361.47 2063.84 356.059 Q2068.56 350.649 2068.56 339.563 Q2068.56 329.114 2063.78 323.756 Q2059.06 318.346 2052.01 318.346 Q2044.85 318.346 2040.13 323.703 Q2035.41 329.061 2035.41 339.881 Z" fill="#000000" fill-rule="nonzero" fill-opacity="1" /><path clip-path="url(#clip120)" d="M2085.74 351.232 L2095.19 349.747 Q2095.98 355.423 2099.59 358.446 Q2103.25 361.47 2109.77 361.47 Q2116.35 361.47 2119.53 358.817 Q2122.71 356.112 2122.71 352.505 Q2122.71 349.27 2119.9 347.413 Q2117.94 346.14 2110.14 344.178 Q2099.64 341.526 2095.56 339.616 Q2091.53 337.654 2089.4 334.259 Q2087.34 330.811 2087.34 326.674 Q2087.34 322.908 2089.03 319.725 Q2090.78 316.49 2093.75 314.368 Q2095.98 312.724 2099.8 311.61 Q2103.67 310.443 2108.07 310.443 Q2114.71 310.443 2119.69 312.352 Q2124.73 314.262 2127.12 317.55 Q2129.5 320.786 2130.41 326.249 L2121.07 327.522 Q2120.43 323.173 2117.36 320.733 Q2114.33 318.293 2108.76 318.293 Q2102.19 318.293 2099.38 320.468 Q2096.56 322.643 2096.56 325.56 Q2096.56 327.416 2097.73 328.902 Q2098.9 330.44 2101.39 331.448 Q2102.82 331.978 2109.83 333.888 Q2119.96 336.593 2123.93 338.343 Q2127.97 340.04 2130.25 343.329 Q2132.53 346.618 2132.53 351.498 Q2132.53 356.271 2129.72 360.515 Q2126.96 364.705 2121.71 367.039 Q2116.46 369.32 2109.83 369.32 Q2098.85 369.32 2093.06 364.758 Q2087.34 360.196 2085.74 351.232 Z" fill="#000000" fill-rule="nonzero" fill-opacity="1" /><path clip-path="url(#clip120)" d="M2140.06 351.232 L2149.5 349.747 Q2150.3 355.423 2153.9 358.446 Q2157.56 361.47 2164.09 361.47 Q2170.66 361.47 2173.85 358.817 Q2177.03 356.112 2177.03 352.505 Q2177.03 349.27 2174.22 347.413 Q2172.26 346.14 2164.46 344.178 Q2153.96 341.526 2149.87 339.616 Q2145.84 337.654 2143.72 334.259 Q2141.65 330.811 2141.65 326.674 Q2141.65 322.908 2143.35 319.725 Q2145.1 316.49 2148.07 314.368 Q2150.3 312.724 2154.12 311.61 Q2157.99 310.443 2162.39 310.443 Q2169.02 310.443 2174.01 312.352 Q2179.05 314.262 2181.43 317.55 Q2183.82 320.786 2184.72 326.249 L2175.39 327.522 Q2174.75 323.173 2171.67 320.733 Q2168.65 318.293 2163.08 318.293 Q2156.5 318.293 2153.69 320.468 Q2150.88 322.643 2150.88 325.56 Q2150.88 327.416 2152.05 328.902 Q2153.21 330.44 2155.71 331.448 Q2157.14 331.978 2164.14 333.888 Q2174.27 336.593 2178.25 338.343 Q2182.28 340.04 2184.56 343.329 Q2186.84 346.618 2186.84 351.498 Q2186.84 356.271 2184.03 360.515 Q2181.27 364.705 2176.02 367.039 Q2170.77 369.32 2164.14 369.32 Q2153.16 369.32 2147.38 364.758 Q2141.65 360.196 2140.06 351.232 Z" fill="#000000" fill-rule="nonzero" fill-opacity="1" /></svg>
