<?xml version="1.0" encoding="utf-8"?>
<svg xmlns="http://www.w3.org/2000/svg" xmlns:xlink="http://www.w3.org/1999/xlink" width="600" height="400" viewBox="0 0 2400 1600">
<defs>
  <clipPath id="clip540">
    <rect x="0" y="0" width="2400" height="1600"/>
  </clipPath>
</defs>
<path clip-path="url(#clip540)" d="M0 1600 L2400 1600 L2400 8.88178e-14 L0 8.88178e-14  Z" fill="#ffffff" fill-rule="evenodd" fill-opacity="1"/>
<defs>
  <clipPath id="clip541">
    <rect x="480" y="0" width="1681" height="1600"/>
  </clipPath>
</defs>
<path clip-path="url(#clip540)" d="M383.069 1349.74 L2352.76 1349.74 L2352.76 47.2441 L383.069 47.2441  Z" fill="#ffffff" fill-rule="evenodd" fill-opacity="1"/>
<defs>
  <clipPath id="clip542">
    <rect x="383" y="47" width="1971" height="1303"/>
  </clipPath>
</defs>
<polyline clip-path="url(#clip540)" style="stroke:#000000; stroke-linecap:round; stroke-linejoin:round; stroke-width:4; stroke-opacity:1; fill:none" points="383.069,1349.74 2352.76,1349.74 "/>
<polyline clip-path="url(#clip540)" style="stroke:#000000; stroke-linecap:round; stroke-linejoin:round; stroke-width:2; stroke-opacity:0.5; fill:none" points="383.069,47.2441 2352.76,47.2441 "/>
<polyline clip-path="url(#clip540)" style="stroke:#000000; stroke-linecap:round; stroke-linejoin:round; stroke-width:4; stroke-opacity:1; fill:none" points="383.069,1349.74 383.069,1330.84 "/>
<polyline clip-path="url(#clip540)" style="stroke:#000000; stroke-linecap:round; stroke-linejoin:round; stroke-width:4; stroke-opacity:1; fill:none" points="1039.63,1349.74 1039.63,1330.84 "/>
<polyline clip-path="url(#clip540)" style="stroke:#000000; stroke-linecap:round; stroke-linejoin:round; stroke-width:4; stroke-opacity:1; fill:none" points="1696.19,1349.74 1696.19,1330.84 "/>
<polyline clip-path="url(#clip540)" style="stroke:#000000; stroke-linecap:round; stroke-linejoin:round; stroke-width:4; stroke-opacity:1; fill:none" points="2352.76,1349.74 2352.76,1330.84 "/>
<path clip-path="url(#clip540)" d="M397.39 1466.14 L387.842 1466.14 L387.842 1405.3 Q384.395 1408.59 378.772 1411.88 Q373.203 1415.17 368.747 1416.81 L368.747 1407.58 Q376.757 1403.82 382.75 1398.46 Q388.744 1393.1 391.237 1388.06 L397.39 1388.06 L397.39 1466.14 Z" fill="#000000" fill-rule="nonzero" fill-opacity="1" /><path clip-path="url(#clip540)" d="M1065.38 1456.96 L1065.38 1466.14 L1013.99 1466.14 Q1013.88 1462.69 1015.1 1459.51 Q1017.06 1454.26 1021.36 1449.17 Q1025.71 1444.07 1033.88 1437.39 Q1046.55 1426.99 1051.01 1420.95 Q1055.46 1414.85 1055.46 1409.44 Q1055.46 1403.76 1051.38 1399.89 Q1047.35 1395.96 1040.82 1395.96 Q1033.93 1395.96 1029.79 1400.1 Q1025.65 1404.24 1025.6 1411.56 L1015.79 1410.55 Q1016.8 1399.57 1023.37 1393.84 Q1029.95 1388.06 1041.04 1388.06 Q1052.23 1388.06 1058.75 1394.27 Q1065.28 1400.47 1065.28 1409.65 Q1065.28 1414.32 1063.37 1418.83 Q1061.46 1423.33 1057 1428.32 Q1052.6 1433.31 1042.31 1442.01 Q1033.72 1449.22 1031.28 1451.82 Q1028.84 1454.36 1027.25 1456.96 L1065.38 1456.96 Z" fill="#000000" fill-rule="nonzero" fill-opacity="1" /><path clip-path="url(#clip540)" d="M1670.73 1445.61 L1680.28 1444.34 Q1681.93 1452.45 1685.85 1456.06 Q1689.83 1459.62 1695.5 1459.62 Q1702.24 1459.62 1706.85 1454.95 Q1711.52 1450.28 1711.52 1443.38 Q1711.52 1436.81 1707.23 1432.56 Q1702.93 1428.27 1696.3 1428.27 Q1693.59 1428.27 1689.56 1429.33 L1690.62 1420.95 Q1691.58 1421.05 1692.16 1421.05 Q1698.26 1421.05 1703.14 1417.87 Q1708.02 1414.69 1708.02 1408.06 Q1708.02 1402.81 1704.47 1399.36 Q1700.91 1395.91 1695.29 1395.91 Q1689.72 1395.91 1686.01 1399.41 Q1682.3 1402.91 1681.24 1409.92 L1671.69 1408.22 Q1673.44 1398.62 1679.64 1393.37 Q1685.85 1388.06 1695.08 1388.06 Q1701.44 1388.06 1706.8 1390.82 Q1712.16 1393.52 1714.97 1398.25 Q1717.83 1402.97 1717.83 1408.27 Q1717.83 1413.31 1715.13 1417.45 Q1712.42 1421.58 1707.12 1424.02 Q1714.02 1425.62 1717.83 1430.65 Q1721.65 1435.64 1721.65 1443.17 Q1721.65 1453.36 1714.23 1460.46 Q1706.8 1467.52 1695.45 1467.52 Q1685.21 1467.52 1678.42 1461.42 Q1671.69 1455.32 1670.73 1445.61 Z" fill="#000000" fill-rule="nonzero" fill-opacity="1" /><path clip-path="url(#clip540)" d="M2359.6 1466.14 L2359.6 1447.52 L2325.86 1447.52 L2325.86 1438.77 L2361.35 1388.38 L2369.15 1388.38 L2369.15 1438.77 L2379.65 1438.77 L2379.65 1447.52 L2369.15 1447.52 L2369.15 1466.14 L2359.6 1466.14 M2359.6 1438.77 L2359.6 1403.71 L2335.25 1438.77 L2359.6 1438.77 Z" fill="#000000" fill-rule="nonzero" fill-opacity="1" /><path clip-path="url(#clip540)" d="M1267.34 1577.55 L1277.21 1578.77 Q1274.88 1587.42 1268.56 1592.19 Q1262.25 1596.96 1252.44 1596.96 Q1240.08 1596.96 1232.81 1589.38 Q1225.6 1581.74 1225.6 1568 Q1225.6 1553.79 1232.92 1545.94 Q1240.24 1538.09 1251.91 1538.09 Q1263.21 1538.09 1270.37 1545.78 Q1277.53 1553.47 1277.53 1567.42 Q1277.53 1568.27 1277.48 1569.97 L1235.47 1569.97 Q1236 1579.25 1240.72 1584.18 Q1245.44 1589.11 1252.49 1589.11 Q1257.74 1589.11 1261.46 1586.36 Q1265.17 1583.6 1267.34 1577.55 M1236 1562.12 L1267.45 1562.12 Q1266.81 1555.01 1263.84 1551.45 Q1259.28 1545.94 1252.01 1545.94 Q1245.44 1545.94 1240.93 1550.34 Q1236.47 1554.74 1236 1562.12 Z" fill="#000000" fill-rule="nonzero" fill-opacity="1" /><path clip-path="url(#clip540)" d="M1289.2 1617.28 L1289.2 1539.36 L1297.9 1539.36 L1297.9 1546.68 Q1300.97 1542.38 1304.85 1540.26 Q1308.72 1538.09 1314.23 1538.09 Q1321.45 1538.09 1326.96 1541.8 Q1332.48 1545.51 1335.29 1552.3 Q1338.1 1559.04 1338.1 1567.1 Q1338.1 1575.75 1334.97 1582.7 Q1331.9 1589.59 1325.96 1593.3 Q1320.07 1596.96 1313.54 1596.96 Q1308.77 1596.96 1304.95 1594.95 Q1301.19 1592.93 1298.75 1589.86 L1298.75 1617.28 L1289.2 1617.28 M1297.84 1567.84 Q1297.84 1578.72 1302.25 1583.92 Q1306.65 1589.11 1312.91 1589.11 Q1319.27 1589.11 1323.78 1583.76 Q1328.34 1578.35 1328.34 1567.05 Q1328.34 1556.28 1323.89 1550.92 Q1319.48 1545.57 1313.33 1545.57 Q1307.23 1545.57 1302.51 1551.3 Q1297.84 1556.97 1297.84 1567.84 Z" fill="#000000" fill-rule="nonzero" fill-opacity="1" /><path clip-path="url(#clip540)" d="M1346.06 1567.53 Q1346.06 1551.88 1354.76 1544.35 Q1362.02 1538.09 1372.47 1538.09 Q1384.09 1538.09 1391.46 1545.73 Q1398.84 1553.31 1398.84 1566.73 Q1398.84 1577.6 1395.55 1583.86 Q1392.31 1590.07 1386.05 1593.52 Q1379.85 1596.96 1372.47 1596.96 Q1360.65 1596.96 1353.33 1589.38 Q1346.06 1581.79 1346.06 1567.53 M1355.87 1567.53 Q1355.87 1578.35 1360.59 1583.76 Q1365.31 1589.11 1372.47 1589.11 Q1379.58 1589.11 1384.3 1583.7 Q1389.02 1578.29 1389.02 1567.21 Q1389.02 1556.76 1384.25 1551.4 Q1379.53 1545.99 1372.47 1545.99 Q1365.31 1545.99 1360.59 1551.35 Q1355.87 1556.71 1355.87 1567.53 Z" fill="#000000" fill-rule="nonzero" fill-opacity="1" /><path clip-path="url(#clip540)" d="M1446.79 1575.06 L1456.17 1576.28 Q1454.64 1585.99 1448.27 1591.5 Q1441.96 1596.96 1432.73 1596.96 Q1421.17 1596.96 1414.11 1589.43 Q1407.11 1581.85 1407.11 1567.74 Q1407.11 1558.62 1410.13 1551.77 Q1413.16 1544.93 1419.31 1541.54 Q1425.52 1538.09 1432.78 1538.09 Q1441.96 1538.09 1447.79 1542.76 Q1453.63 1547.37 1455.27 1555.91 L1445.99 1557.34 Q1444.66 1551.67 1441.27 1548.8 Q1437.93 1545.94 1433.15 1545.94 Q1425.94 1545.94 1421.43 1551.14 Q1416.92 1556.28 1416.92 1567.47 Q1416.92 1578.82 1421.27 1583.97 Q1425.62 1589.11 1432.62 1589.11 Q1438.25 1589.11 1442.01 1585.67 Q1445.78 1582.22 1446.79 1575.06 Z" fill="#000000" fill-rule="nonzero" fill-opacity="1" /><path clip-path="url(#clip540)" d="M1464.34 1595.69 L1464.34 1517.93 L1473.89 1517.93 L1473.89 1545.83 Q1480.57 1538.09 1490.76 1538.09 Q1497.02 1538.09 1501.63 1540.58 Q1506.25 1543.02 1508.21 1547.37 Q1510.22 1551.72 1510.22 1559.99 L1510.22 1595.69 L1500.68 1595.69 L1500.68 1559.99 Q1500.68 1552.83 1497.55 1549.6 Q1494.47 1546.31 1488.8 1546.31 Q1484.55 1546.31 1480.79 1548.54 Q1477.07 1550.71 1475.48 1554.48 Q1473.89 1558.24 1473.89 1564.87 L1473.89 1595.69 L1464.34 1595.69 Z" fill="#000000" fill-rule="nonzero" fill-opacity="1" /><polyline clip-path="url(#clip540)" style="stroke:#000000; stroke-linecap:round; stroke-linejoin:round; stroke-width:4; stroke-opacity:1; fill:none" points="383.069,1349.74 383.069,47.2441 "/>
<polyline clip-path="url(#clip540)" style="stroke:#000000; stroke-linecap:round; stroke-linejoin:round; stroke-width:2; stroke-opacity:0.5; fill:none" points="2352.76,1349.74 2352.76,47.2441 "/>
<polyline clip-path="url(#clip540)" style="stroke:#000000; stroke-linecap:round; stroke-linejoin:round; stroke-width:4; stroke-opacity:1; fill:none" points="383.069,1302.99 401.966,1302.99 "/>
<polyline clip-path="url(#clip540)" style="stroke:#000000; stroke-linecap:round; stroke-linejoin:round; stroke-width:4; stroke-opacity:1; fill:none" points="383.069,990.476 401.966,990.476 "/>
<polyline clip-path="url(#clip540)" style="stroke:#000000; stroke-linecap:round; stroke-linejoin:round; stroke-width:4; stroke-opacity:1; fill:none" points="383.069,677.964 401.966,677.964 "/>
<polyline clip-path="url(#clip540)" style="stroke:#000000; stroke-linecap:round; stroke-linejoin:round; stroke-width:4; stroke-opacity:1; fill:none" points="383.069,365.452 401.966,365.452 "/>
<polyline clip-path="url(#clip540)" style="stroke:#000000; stroke-linecap:round; stroke-linejoin:round; stroke-width:4; stroke-opacity:1; fill:none" points="383.069,52.9396 401.966,52.9396 "/>
<path clip-path="url(#clip540)" d="M145.349 1303.52 Q145.349 1289.73 148.16 1281.35 Q151.024 1272.91 156.594 1268.35 Q162.216 1263.79 170.703 1263.79 Q176.962 1263.79 181.683 1266.34 Q186.404 1268.83 189.48 1273.6 Q192.556 1278.32 194.307 1285.17 Q196.057 1291.96 196.057 1303.52 Q196.057 1317.2 193.246 1325.64 Q190.435 1334.02 184.812 1338.63 Q179.243 1343.19 170.703 1343.19 Q159.458 1343.19 153.04 1335.13 Q145.349 1325.42 145.349 1303.52 M155.162 1303.52 Q155.162 1322.67 159.617 1329.03 Q164.126 1335.34 170.703 1335.34 Q177.28 1335.34 181.736 1328.98 Q186.244 1322.61 186.244 1303.52 Q186.244 1284.32 181.736 1278 Q177.28 1271.69 170.597 1271.69 Q164.02 1271.69 160.095 1277.26 Q155.162 1284.37 155.162 1303.52 Z" fill="#000000" fill-rule="nonzero" fill-opacity="1" /><path clip-path="url(#clip540)" d="M211.121 1341.87 L211.121 1330.99 L221.995 1330.99 L221.995 1341.87 L211.121 1341.87 Z" fill="#000000" fill-rule="nonzero" fill-opacity="1" /><path clip-path="url(#clip540)" d="M271.908 1341.87 L262.36 1341.87 L262.36 1281.03 Q258.912 1284.32 253.29 1287.61 Q247.72 1290.89 243.265 1292.54 L243.265 1283.31 Q251.274 1279.54 257.268 1274.19 Q263.262 1268.83 265.755 1263.79 L271.908 1263.79 L271.908 1341.87 Z" fill="#000000" fill-rule="nonzero" fill-opacity="1" /><path clip-path="url(#clip540)" d="M296.36 1303.52 Q296.36 1289.73 299.171 1281.35 Q302.036 1272.91 307.605 1268.35 Q313.228 1263.79 321.714 1263.79 Q327.973 1263.79 332.694 1266.34 Q337.415 1268.83 340.491 1273.6 Q343.568 1278.32 345.318 1285.17 Q347.069 1291.96 347.069 1303.52 Q347.069 1317.2 344.257 1325.64 Q341.446 1334.02 335.824 1338.63 Q330.254 1343.19 321.714 1343.19 Q310.469 1343.19 304.051 1335.13 Q296.36 1325.42 296.36 1303.52 M306.173 1303.52 Q306.173 1322.67 310.629 1329.03 Q315.137 1335.34 321.714 1335.34 Q328.292 1335.34 332.747 1328.98 Q337.256 1322.61 337.256 1303.52 Q337.256 1284.32 332.747 1278 Q328.292 1271.69 321.608 1271.69 Q315.031 1271.69 311.106 1277.26 Q306.173 1284.37 306.173 1303.52 Z" fill="#000000" fill-rule="nonzero" fill-opacity="1" /><path clip-path="url(#clip540)" d="M144.5 991.006 Q144.5 977.215 147.311 968.835 Q150.176 960.401 155.745 955.839 Q161.368 951.278 169.854 951.278 Q176.113 951.278 180.834 953.824 Q185.555 956.317 188.631 961.09 Q191.708 965.811 193.458 972.654 Q195.209 979.443 195.209 991.006 Q195.209 1004.69 192.397 1013.12 Q189.586 1021.51 183.964 1026.12 Q178.394 1030.68 169.854 1030.68 Q158.609 1030.68 152.191 1022.62 Q144.5 1012.91 144.5 991.006 M154.313 991.006 Q154.313 1010.15 158.769 1016.52 Q163.277 1022.83 169.854 1022.83 Q176.432 1022.83 180.887 1016.47 Q185.396 1010.1 185.396 991.006 Q185.396 971.805 180.887 965.493 Q176.432 959.181 169.748 959.181 Q163.171 959.181 159.246 964.75 Q154.313 971.858 154.313 991.006 Z" fill="#000000" fill-rule="nonzero" fill-opacity="1" /><path clip-path="url(#clip540)" d="M210.273 1029.36 L210.273 1018.48 L221.146 1018.48 L221.146 1029.36 L210.273 1029.36 Z" fill="#000000" fill-rule="nonzero" fill-opacity="1" /><path clip-path="url(#clip540)" d="M271.059 1029.36 L261.511 1029.36 L261.511 968.516 Q258.064 971.805 252.441 975.093 Q246.872 978.382 242.416 980.026 L242.416 970.797 Q250.426 967.031 256.419 961.674 Q262.413 956.317 264.906 951.278 L271.059 951.278 L271.059 1029.36 Z" fill="#000000" fill-rule="nonzero" fill-opacity="1" /><path clip-path="url(#clip540)" d="M295.512 1008.99 L305.537 1008.14 Q306.65 1015.46 310.682 1019.17 Q314.766 1022.83 320.494 1022.83 Q327.39 1022.83 332.164 1017.63 Q336.938 1012.44 336.938 1003.84 Q336.938 995.674 332.323 990.953 Q327.761 986.232 320.335 986.232 Q315.721 986.232 312.008 988.354 Q308.295 990.423 306.173 993.764 L297.209 992.597 L304.741 952.657 L343.409 952.657 L343.409 961.78 L312.379 961.78 L308.189 982.679 Q315.19 977.799 322.881 977.799 Q333.066 977.799 340.067 984.853 Q347.069 991.908 347.069 1002.99 Q347.069 1013.55 340.916 1021.24 Q333.437 1030.68 320.494 1030.68 Q309.886 1030.68 303.15 1024.74 Q296.466 1018.8 295.512 1008.99 Z" fill="#000000" fill-rule="nonzero" fill-opacity="1" /><path clip-path="url(#clip540)" d="M145.349 678.494 Q145.349 664.703 148.16 656.322 Q151.024 647.889 156.594 643.327 Q162.216 638.765 170.703 638.765 Q176.962 638.765 181.683 641.311 Q186.404 643.804 189.48 648.578 Q192.556 653.299 194.307 660.141 Q196.057 666.931 196.057 678.494 Q196.057 692.179 193.246 700.613 Q190.435 708.993 184.812 713.608 Q179.243 718.17 170.703 718.17 Q159.458 718.17 153.04 710.107 Q145.349 700.401 145.349 678.494 M155.162 678.494 Q155.162 697.642 159.617 704.007 Q164.126 710.319 170.703 710.319 Q177.28 710.319 181.736 703.954 Q186.244 697.589 186.244 678.494 Q186.244 659.293 181.736 652.981 Q177.28 646.669 170.597 646.669 Q164.02 646.669 160.095 652.238 Q155.162 659.346 155.162 678.494 Z" fill="#000000" fill-rule="nonzero" fill-opacity="1" /><path clip-path="url(#clip540)" d="M211.121 716.844 L211.121 705.97 L221.995 705.97 L221.995 716.844 L211.121 716.844 Z" fill="#000000" fill-rule="nonzero" fill-opacity="1" /><path clip-path="url(#clip540)" d="M286.123 707.667 L286.123 716.844 L234.725 716.844 Q234.619 713.396 235.839 710.213 Q237.802 704.962 242.098 699.87 Q246.447 694.778 254.616 688.095 Q267.293 677.698 271.749 671.652 Q276.204 665.552 276.204 660.141 Q276.204 654.466 272.12 650.594 Q268.089 646.669 261.564 646.669 Q254.669 646.669 250.532 650.806 Q246.394 654.943 246.341 662.263 L236.529 661.255 Q237.536 650.276 244.114 644.547 Q250.691 638.765 261.777 638.765 Q272.969 638.765 279.493 644.971 Q286.017 651.177 286.017 660.354 Q286.017 665.021 284.107 669.53 Q282.198 674.039 277.742 679.025 Q273.34 684.011 263.05 692.709 Q254.457 699.923 252.017 702.522 Q249.577 705.068 247.986 707.667 L286.123 707.667 Z" fill="#000000" fill-rule="nonzero" fill-opacity="1" /><path clip-path="url(#clip540)" d="M296.36 678.494 Q296.36 664.703 299.171 656.322 Q302.036 647.889 307.605 643.327 Q313.228 638.765 321.714 638.765 Q327.973 638.765 332.694 641.311 Q337.415 643.804 340.491 648.578 Q343.568 653.299 345.318 660.141 Q347.069 666.931 347.069 678.494 Q347.069 692.179 344.257 700.613 Q341.446 708.993 335.824 713.608 Q330.254 718.17 321.714 718.17 Q310.469 718.17 304.051 710.107 Q296.36 700.401 296.36 678.494 M306.173 678.494 Q306.173 697.642 310.629 704.007 Q315.137 710.319 321.714 710.319 Q328.292 710.319 332.747 703.954 Q337.256 697.589 337.256 678.494 Q337.256 659.293 332.747 652.981 Q328.292 646.669 321.608 646.669 Q315.031 646.669 311.106 652.238 Q306.173 659.346 306.173 678.494 Z" fill="#000000" fill-rule="nonzero" fill-opacity="1" /><path clip-path="url(#clip540)" d="M144.5 365.982 Q144.5 352.191 147.311 343.81 Q150.176 335.377 155.745 330.815 Q161.368 326.253 169.854 326.253 Q176.113 326.253 180.834 328.799 Q185.555 331.292 188.631 336.066 Q191.708 340.787 193.458 347.629 Q195.209 354.419 195.209 365.982 Q195.209 379.667 192.397 388.101 Q189.586 396.481 183.964 401.096 Q178.394 405.658 169.854 405.658 Q158.609 405.658 152.191 397.595 Q144.5 387.889 144.5 365.982 M154.313 365.982 Q154.313 385.13 158.769 391.495 Q163.277 397.807 169.854 397.807 Q176.432 397.807 180.887 391.442 Q185.396 385.077 185.396 365.982 Q185.396 346.781 180.887 340.469 Q176.432 334.157 169.748 334.157 Q163.171 334.157 159.246 339.726 Q154.313 346.834 154.313 365.982 Z" fill="#000000" fill-rule="nonzero" fill-opacity="1" /><path clip-path="url(#clip540)" d="M210.273 404.332 L210.273 393.458 L221.146 393.458 L221.146 404.332 L210.273 404.332 Z" fill="#000000" fill-rule="nonzero" fill-opacity="1" /><path clip-path="url(#clip540)" d="M285.274 395.155 L285.274 404.332 L233.876 404.332 Q233.77 400.884 234.99 397.701 Q236.953 392.45 241.249 387.358 Q245.599 382.266 253.767 375.583 Q266.444 365.186 270.9 359.14 Q275.355 353.04 275.355 347.629 Q275.355 341.954 271.271 338.082 Q267.24 334.157 260.716 334.157 Q253.82 334.157 249.683 338.294 Q245.546 342.431 245.493 349.751 L235.68 348.743 Q236.688 337.764 243.265 332.035 Q249.842 326.253 260.928 326.253 Q272.12 326.253 278.644 332.459 Q285.168 338.665 285.168 347.842 Q285.168 352.509 283.259 357.018 Q281.349 361.527 276.894 366.512 Q272.491 371.498 262.201 380.197 Q253.608 387.411 251.168 390.01 Q248.728 392.556 247.137 395.155 L285.274 395.155 Z" fill="#000000" fill-rule="nonzero" fill-opacity="1" /><path clip-path="url(#clip540)" d="M295.512 383.963 L305.537 383.115 Q306.65 390.435 310.682 394.148 Q314.766 397.807 320.494 397.807 Q327.39 397.807 332.164 392.609 Q336.938 387.411 336.938 378.818 Q336.938 370.65 332.323 365.929 Q327.761 361.208 320.335 361.208 Q315.721 361.208 312.008 363.33 Q308.295 365.399 306.173 368.74 L297.209 367.573 L304.741 327.632 L343.409 327.632 L343.409 336.756 L312.379 336.756 L308.189 357.654 Q315.19 352.775 322.881 352.775 Q333.066 352.775 340.067 359.829 Q347.069 366.884 347.069 377.97 Q347.069 388.525 340.916 396.216 Q333.437 405.658 320.494 405.658 Q309.886 405.658 303.15 399.717 Q296.466 393.776 295.512 383.963 Z" fill="#000000" fill-rule="nonzero" fill-opacity="1" /><path clip-path="url(#clip540)" d="M145.349 53.47 Q145.349 39.679 148.16 31.2983 Q151.024 22.8646 156.594 18.303 Q162.216 13.7413 170.703 13.7413 Q176.962 13.7413 181.683 16.2874 Q186.404 18.7804 189.48 23.5542 Q192.556 28.2749 194.307 35.1174 Q196.057 41.9068 196.057 53.47 Q196.057 67.1549 193.246 75.5887 Q190.435 83.9693 184.812 88.584 Q179.243 93.1456 170.703 93.1456 Q159.458 93.1456 153.04 85.0832 Q145.349 75.3765 145.349 53.47 M155.162 53.47 Q155.162 72.6183 159.617 78.9834 Q164.126 85.2954 170.703 85.2954 Q177.28 85.2954 181.736 78.9303 Q186.244 72.5652 186.244 53.47 Q186.244 34.2687 181.736 27.9567 Q177.28 21.6446 170.597 21.6446 Q164.02 21.6446 160.095 27.2141 Q155.162 34.3217 155.162 53.47 Z" fill="#000000" fill-rule="nonzero" fill-opacity="1" /><path clip-path="url(#clip540)" d="M211.121 91.8196 L211.121 80.9459 L221.995 80.9459 L221.995 91.8196 L211.121 91.8196 Z" fill="#000000" fill-rule="nonzero" fill-opacity="1" /><path clip-path="url(#clip540)" d="M235.998 71.2922 L245.546 70.0192 Q247.19 78.1347 251.115 81.7416 Q255.093 85.2954 260.769 85.2954 Q267.505 85.2954 272.12 80.6277 Q276.788 75.9599 276.788 69.0644 Q276.788 62.4872 272.491 58.2438 Q268.195 53.9474 261.564 53.9474 Q258.859 53.9474 254.828 55.0082 L255.889 46.6276 Q256.844 46.7336 257.427 46.7336 Q263.527 46.7336 268.407 43.5511 Q273.287 40.3686 273.287 33.7383 Q273.287 28.4871 269.733 25.0393 Q266.179 21.5916 260.557 21.5916 Q254.987 21.5916 251.274 25.0924 Q247.561 28.5932 246.5 35.5948 L236.953 33.8974 Q238.703 24.2968 244.909 19.0456 Q251.115 13.7413 260.345 13.7413 Q266.71 13.7413 272.067 16.4995 Q277.424 19.2047 280.235 23.9255 Q283.1 28.6462 283.1 33.9505 Q283.1 38.9895 280.395 43.1268 Q277.689 47.2641 272.385 49.704 Q279.281 51.2953 283.1 56.3343 Q286.919 61.3203 286.919 68.8523 Q286.919 79.0364 279.493 86.1441 Q272.067 93.1987 260.716 93.1987 Q250.479 93.1987 243.689 87.0988 Q236.953 80.999 235.998 71.2922 Z" fill="#000000" fill-rule="nonzero" fill-opacity="1" /><path clip-path="url(#clip540)" d="M296.36 53.47 Q296.36 39.679 299.171 31.2983 Q302.036 22.8646 307.605 18.303 Q313.228 13.7413 321.714 13.7413 Q327.973 13.7413 332.694 16.2874 Q337.415 18.7804 340.491 23.5542 Q343.568 28.2749 345.318 35.1174 Q347.069 41.9068 347.069 53.47 Q347.069 67.1549 344.257 75.5887 Q341.446 83.9693 335.824 88.584 Q330.254 93.1456 321.714 93.1456 Q310.469 93.1456 304.051 85.0832 Q296.36 75.3765 296.36 53.47 M306.173 53.47 Q306.173 72.6183 310.629 78.9834 Q315.137 85.2954 321.714 85.2954 Q328.292 85.2954 332.747 78.9303 Q337.256 72.5652 337.256 53.47 Q337.256 34.2687 332.747 27.9567 Q328.292 21.6446 321.608 21.6446 Q315.031 21.6446 311.106 27.2141 Q306.173 34.3217 306.173 53.47 Z" fill="#000000" fill-rule="nonzero" fill-opacity="1" /><path clip-path="url(#clip540)" d="M85.1722 789.513 L7.41216 789.513 L7.41216 779.965 L85.1722 779.965 L85.1722 789.513 Z" fill="#000000" fill-rule="nonzero" fill-opacity="1" /><path clip-path="url(#clip540)" d="M57.0067 768.72 Q41.3592 768.72 33.8272 760.021 Q27.5682 752.754 27.5682 742.305 Q27.5682 730.689 35.2063 723.316 Q42.7914 715.943 56.2111 715.943 Q67.0847 715.943 73.3437 719.232 Q79.5497 722.467 82.9974 728.726 Q86.4452 734.932 86.4452 742.305 Q86.4452 754.133 78.8601 761.453 Q71.2751 768.72 57.0067 768.72 M57.0067 758.907 Q67.8273 758.907 73.2376 754.186 Q78.5949 749.466 78.5949 742.305 Q78.5949 735.197 73.1846 730.476 Q67.7743 725.756 56.6884 725.756 Q46.2391 725.756 40.8818 730.53 Q35.4715 735.25 35.4715 742.305 Q35.4715 749.466 40.8288 754.186 Q46.1861 758.907 57.0067 758.907 Z" fill="#000000" fill-rule="nonzero" fill-opacity="1" /><path clip-path="url(#clip540)" d="M68.3578 708.57 L66.8726 699.128 Q72.5481 698.333 75.5715 694.726 Q78.5949 691.066 78.5949 684.542 Q78.5949 677.965 75.9428 674.782 Q73.2376 671.6 69.6308 671.6 Q66.3952 671.6 64.5387 674.411 Q63.2657 676.373 61.3031 684.171 Q58.651 694.673 56.7415 698.757 Q54.7789 702.788 51.3842 704.91 Q47.9365 706.979 43.7992 706.979 Q40.0332 706.979 36.8506 705.281 Q33.615 703.531 31.4934 700.561 Q29.849 698.333 28.7352 694.514 Q27.5682 690.642 27.5682 686.239 Q27.5682 679.609 29.4778 674.623 Q31.3873 669.584 34.6759 667.197 Q37.9115 664.81 43.3748 663.908 L44.6478 673.244 Q40.2984 673.88 37.8584 676.957 Q35.4185 679.98 35.4185 685.55 Q35.4185 692.127 37.5932 694.938 Q39.768 697.749 42.6853 697.749 Q44.5418 697.749 46.0269 696.582 Q47.5652 695.416 48.573 692.923 Q49.1034 691.49 51.0129 684.489 Q53.7181 674.358 55.4685 670.38 Q57.1658 666.348 60.4544 664.068 Q63.7431 661.787 68.623 661.787 Q73.3968 661.787 77.6402 664.598 Q81.8305 667.356 84.1644 672.607 Q86.4452 677.859 86.4452 684.489 Q86.4452 695.469 81.8835 701.25 Q77.3219 706.979 68.3578 708.57 Z" fill="#000000" fill-rule="nonzero" fill-opacity="1" /><path clip-path="url(#clip540)" d="M68.3578 654.255 L66.8726 644.813 Q72.5481 644.018 75.5715 640.411 Q78.5949 636.751 78.5949 630.227 Q78.5949 623.649 75.9428 620.467 Q73.2376 617.284 69.6308 617.284 Q66.3952 617.284 64.5387 620.095 Q63.2657 622.058 61.3031 629.855 Q58.651 640.358 56.7415 644.442 Q54.7789 648.473 51.3842 650.595 Q47.9365 652.663 43.7992 652.663 Q40.0332 652.663 36.8506 650.966 Q33.615 649.216 31.4934 646.245 Q29.849 644.018 28.7352 640.198 Q27.5682 636.326 27.5682 631.924 Q27.5682 625.294 29.4778 620.308 Q31.3873 615.269 34.6759 612.882 Q37.9115 610.495 43.3748 609.593 L44.6478 618.929 Q40.2984 619.565 37.8584 622.641 Q35.4185 625.665 35.4185 631.234 Q35.4185 637.812 37.5932 640.623 Q39.768 643.434 42.6853 643.434 Q44.5418 643.434 46.0269 642.267 Q47.5652 641.1 48.573 638.607 Q49.1034 637.175 51.0129 630.173 Q53.7181 620.042 55.4685 616.064 Q57.1658 612.033 60.4544 609.752 Q63.7431 607.471 68.623 607.471 Q73.3968 607.471 77.6402 610.283 Q81.8305 613.041 84.1644 618.292 Q86.4452 623.543 86.4452 630.173 Q86.4452 641.153 81.8835 646.935 Q77.3219 652.663 68.3578 654.255 Z" fill="#000000" fill-rule="nonzero" fill-opacity="1" /><polyline clip-path="url(#clip542)" style="stroke:#009af9; stroke-linecap:round; stroke-linejoin:round; stroke-width:8; stroke-opacity:1; fill:none" points="383.069,47.2441 1039.63,1246.09 1696.19,1304.3 2352.76,1349.74 "/>
<circle clip-path="url(#clip542)" cx="383.069" cy="47.2441" r="3.6" fill="#009af9" fill-rule="evenodd" fill-opacity="1" stroke="#000000" stroke-opacity="1" stroke-width="3.2"/>
<circle clip-path="url(#clip542)" cx="1039.63" cy="1246.09" r="3.6" fill="#009af9" fill-rule="evenodd" fill-opacity="1" stroke="#000000" stroke-opacity="1" stroke-width="3.2"/>
<circle clip-path="url(#clip542)" cx="1696.19" cy="1304.3" r="3.6" fill="#009af9" fill-rule="evenodd" fill-opacity="1" stroke="#000000" stroke-opacity="1" stroke-width="3.2"/>
<circle clip-path="url(#clip542)" cx="2352.76" cy="1349.74" r="3.6" fill="#009af9" fill-rule="evenodd" fill-opacity="1" stroke="#000000" stroke-opacity="1" stroke-width="3.2"/>
<polyline clip-path="url(#clip542)" style="stroke:#e26f46; stroke-linecap:round; stroke-linejoin:round; stroke-width:8; stroke-opacity:1; fill:none" points="383.069,997.832 1039.63,1204.41 1696.19,1269.15 2352.76,1319.1 "/>
<circle clip-path="url(#clip542)" cx="383.069" cy="997.832" r="3.6" fill="#e26f46" fill-rule="evenodd" fill-opacity="1" stroke="#000000" stroke-opacity="1" stroke-width="3.2"/>
<circle clip-path="url(#clip542)" cx="1039.63" cy="1204.41" r="3.6" fill="#e26f46" fill-rule="evenodd" fill-opacity="1" stroke="#000000" stroke-opacity="1" stroke-width="3.2"/>
<circle clip-path="url(#clip542)" cx="1696.19" cy="1269.15" r="3.6" fill="#e26f46" fill-rule="evenodd" fill-opacity="1" stroke="#000000" stroke-opacity="1" stroke-width="3.2"/>
<circle clip-path="url(#clip542)" cx="2352.76" cy="1319.1" r="3.6" fill="#e26f46" fill-rule="evenodd" fill-opacity="1" stroke="#000000" stroke-opacity="1" stroke-width="3.2"/>
<path clip-path="url(#clip540)" d="M1631.32 440.581 L2287.1 440.581 L2287.1 90.6606 L1631.32 90.6606  Z" fill="#ffffff" fill-rule="evenodd" fill-opacity="1"/>
<polyline clip-path="url(#clip540)" style="stroke:#000000; stroke-linecap:round; stroke-linejoin:round; stroke-width:4; stroke-opacity:1; fill:none" points="1631.32,440.581 2287.1,440.581 2287.1,90.6606 1631.32,90.6606 1631.32,440.581 "/>
<polyline clip-path="url(#clip540)" style="stroke:#009af9; stroke-linecap:round; stroke-linejoin:round; stroke-width:18; stroke-opacity:1; fill:none" points="1653.2,207.301 1784.51,207.301 "/>
<circle clip-path="url(#clip540)" cx="1718.86" cy="207.301" r="8.10571" fill="#009af9" fill-rule="evenodd" fill-opacity="1" stroke="#000000" stroke-opacity="1" stroke-width="7.20507"/>
<path clip-path="url(#clip540)" d="M1832.5 237.641 L1833.87 246.075 Q1829.84 246.923 1826.66 246.923 Q1821.46 246.923 1818.6 245.279 Q1815.73 243.635 1814.57 240.982 Q1813.4 238.277 1813.4 229.684 L1813.4 197.276 L1806.4 197.276 L1806.4 189.85 L1813.4 189.85 L1813.4 175.9 L1822.89 170.171 L1822.89 189.85 L1832.5 189.85 L1832.5 197.276 L1822.89 197.276 L1822.89 230.215 Q1822.89 234.299 1823.37 235.466 Q1823.9 236.633 1825.02 237.323 Q1826.18 238.012 1828.3 238.012 Q1829.9 238.012 1832.5 237.641 Z" fill="#000000" fill-rule="nonzero" fill-opacity="1" /><path clip-path="url(#clip540)" d="M1841.72 246.181 L1841.72 189.85 L1850.32 189.85 L1850.32 198.39 Q1853.61 192.396 1856.36 190.486 Q1859.18 188.577 1862.52 188.577 Q1867.34 188.577 1872.33 191.653 L1869.04 200.511 Q1865.54 198.443 1862.04 198.443 Q1858.91 198.443 1856.42 200.352 Q1853.92 202.209 1852.86 205.55 Q1851.27 210.642 1851.27 216.689 L1851.27 246.181 L1841.72 246.181 Z" fill="#000000" fill-rule="nonzero" fill-opacity="1" /><path clip-path="url(#clip540)" d="M1914.76 239.232 Q1909.46 243.741 1904.53 245.597 Q1899.65 247.454 1894.02 247.454 Q1884.74 247.454 1879.76 242.945 Q1874.77 238.383 1874.77 231.329 Q1874.77 227.191 1876.63 223.797 Q1878.54 220.349 1881.56 218.28 Q1884.64 216.212 1888.45 215.151 Q1891.27 214.408 1896.94 213.719 Q1908.5 212.34 1913.97 210.43 Q1914.02 208.468 1914.02 207.937 Q1914.02 202.102 1911.32 199.716 Q1907.66 196.48 1900.44 196.48 Q1893.71 196.48 1890.47 198.867 Q1887.29 201.201 1885.75 207.195 L1876.41 205.922 Q1877.69 199.928 1880.6 196.268 Q1883.52 192.555 1889.04 190.592 Q1894.55 188.577 1901.82 188.577 Q1909.04 188.577 1913.54 190.274 Q1918.05 191.971 1920.17 194.57 Q1922.3 197.116 1923.14 201.042 Q1923.62 203.482 1923.62 209.847 L1923.62 222.577 Q1923.62 235.89 1924.21 239.444 Q1924.84 242.945 1926.65 246.181 L1916.67 246.181 Q1915.19 243.21 1914.76 239.232 M1913.97 217.909 Q1908.77 220.031 1898.37 221.516 Q1892.49 222.365 1890.05 223.425 Q1887.61 224.486 1886.28 226.555 Q1884.95 228.571 1884.95 231.064 Q1884.95 234.883 1887.82 237.429 Q1890.74 239.975 1896.31 239.975 Q1901.82 239.975 1906.12 237.588 Q1910.41 235.148 1912.43 230.957 Q1913.97 227.722 1913.97 221.41 L1913.97 217.909 Z" fill="#000000" fill-rule="nonzero" fill-opacity="1" /><path clip-path="url(#clip540)" d="M1938.47 179.4 L1938.47 168.421 L1948.02 168.421 L1948.02 179.4 L1938.47 179.4 M1938.47 246.181 L1938.47 189.85 L1948.02 189.85 L1948.02 246.181 L1938.47 246.181 Z" fill="#000000" fill-rule="nonzero" fill-opacity="1" /><path clip-path="url(#clip540)" d="M1962.55 246.181 L1962.55 189.85 L1971.15 189.85 L1971.15 197.859 Q1977.35 188.577 1989.08 188.577 Q1994.17 188.577 1998.41 190.433 Q2002.71 192.237 2004.83 195.207 Q2006.95 198.177 2007.8 202.262 Q2008.33 204.914 2008.33 211.544 L2008.33 246.181 L1998.78 246.181 L1998.78 211.915 Q1998.78 206.081 1997.67 203.216 Q1996.56 200.299 1993.69 198.602 Q1990.88 196.851 1987.06 196.851 Q1980.96 196.851 1976.51 200.723 Q1972.1 204.595 1972.1 215.416 L1972.1 246.181 L1962.55 246.181 Z" fill="#000000" fill-rule="nonzero" fill-opacity="1" /><path clip-path="url(#clip540)" d="M2014.17 267.769 L2014.17 260.873 L2077.44 260.873 L2077.44 267.769 L2014.17 267.769 Z" fill="#000000" fill-rule="nonzero" fill-opacity="1" /><path clip-path="url(#clip540)" d="M2083.17 246.181 L2083.17 168.421 L2092.72 168.421 L2092.72 246.181 L2083.17 246.181 Z" fill="#000000" fill-rule="nonzero" fill-opacity="1" /><path clip-path="url(#clip540)" d="M2103.97 218.015 Q2103.97 202.368 2112.66 194.836 Q2119.93 188.577 2130.38 188.577 Q2142 188.577 2149.37 196.215 Q2156.74 203.8 2156.74 217.22 Q2156.74 228.093 2153.45 234.352 Q2150.22 240.558 2143.96 244.006 Q2137.75 247.454 2130.38 247.454 Q2118.55 247.454 2111.23 239.869 Q2103.97 232.284 2103.97 218.015 M2113.78 218.015 Q2113.78 228.836 2118.5 234.246 Q2123.22 239.603 2130.38 239.603 Q2137.49 239.603 2142.21 234.193 Q2146.93 228.783 2146.93 217.697 Q2146.93 207.248 2142.16 201.89 Q2137.44 196.48 2130.38 196.48 Q2123.22 196.48 2118.5 201.837 Q2113.78 207.195 2113.78 218.015 Z" fill="#000000" fill-rule="nonzero" fill-opacity="1" /><path clip-path="url(#clip540)" d="M2164.12 229.366 L2173.56 227.881 Q2174.35 233.557 2177.96 236.58 Q2181.62 239.603 2188.14 239.603 Q2194.72 239.603 2197.9 236.951 Q2201.09 234.246 2201.09 230.639 Q2201.09 227.404 2198.27 225.547 Q2196.31 224.274 2188.52 222.312 Q2178.01 219.659 2173.93 217.75 Q2169.9 215.787 2167.78 212.393 Q2165.71 208.945 2165.71 204.808 Q2165.71 201.042 2167.4 197.859 Q2169.15 194.624 2172.13 192.502 Q2174.35 190.858 2178.17 189.744 Q2182.04 188.577 2186.45 188.577 Q2193.08 188.577 2198.06 190.486 Q2203.1 192.396 2205.49 195.684 Q2207.88 198.92 2208.78 204.383 L2199.44 205.656 Q2198.81 201.307 2195.73 198.867 Q2192.71 196.427 2187.14 196.427 Q2180.56 196.427 2177.75 198.602 Q2174.94 200.776 2174.94 203.694 Q2174.94 205.55 2176.1 207.035 Q2177.27 208.574 2179.76 209.581 Q2181.2 210.112 2188.2 212.021 Q2198.33 214.727 2202.31 216.477 Q2206.34 218.174 2208.62 221.463 Q2210.9 224.752 2210.9 229.631 Q2210.9 234.405 2208.09 238.649 Q2205.33 242.839 2200.08 245.173 Q2194.83 247.454 2188.2 247.454 Q2177.22 247.454 2171.44 242.892 Q2165.71 238.33 2164.12 229.366 Z" fill="#000000" fill-rule="nonzero" fill-opacity="1" /><path clip-path="url(#clip540)" d="M2218.43 229.366 L2227.87 227.881 Q2228.67 233.557 2232.27 236.58 Q2235.93 239.603 2242.46 239.603 Q2249.04 239.603 2252.22 236.951 Q2255.4 234.246 2255.4 230.639 Q2255.4 227.404 2252.59 225.547 Q2250.63 224.274 2242.83 222.312 Q2232.33 219.659 2228.24 217.75 Q2224.21 215.787 2222.09 212.393 Q2220.02 208.945 2220.02 204.808 Q2220.02 201.042 2221.72 197.859 Q2223.47 194.624 2226.44 192.502 Q2228.67 190.858 2232.49 189.744 Q2236.36 188.577 2240.76 188.577 Q2247.39 188.577 2252.38 190.486 Q2257.42 192.396 2259.8 195.684 Q2262.19 198.92 2263.09 204.383 L2253.76 205.656 Q2253.12 201.307 2250.04 198.867 Q2247.02 196.427 2241.45 196.427 Q2234.87 196.427 2232.06 198.602 Q2229.25 200.776 2229.25 203.694 Q2229.25 205.55 2230.42 207.035 Q2231.59 208.574 2234.08 209.581 Q2235.51 210.112 2242.51 212.021 Q2252.64 214.727 2256.62 216.477 Q2260.65 218.174 2262.93 221.463 Q2265.21 224.752 2265.21 229.631 Q2265.21 234.405 2262.4 238.649 Q2259.64 242.839 2254.39 245.173 Q2249.14 247.454 2242.51 247.454 Q2231.53 247.454 2225.75 242.892 Q2220.02 238.33 2218.43 229.366 Z" fill="#000000" fill-rule="nonzero" fill-opacity="1" /><polyline clip-path="url(#clip540)" style="stroke:#e26f46; stroke-linecap:round; stroke-linejoin:round; stroke-width:18; stroke-opacity:1; fill:none" points="1653.2,323.941 1784.51,323.941 "/>
<circle clip-path="url(#clip540)" cx="1718.86" cy="323.941" r="8.10571" fill="#e26f46" fill-rule="evenodd" fill-opacity="1" stroke="#000000" stroke-opacity="1" stroke-width="7.20507"/>
<path clip-path="url(#clip540)" d="M1827.83 362.821 L1806.4 306.49 L1816.48 306.49 L1828.57 340.225 Q1830.53 345.688 1832.18 351.576 Q1833.45 347.12 1835.73 340.861 L1848.25 306.49 L1858.06 306.49 L1836.74 362.821 L1827.83 362.821 Z" fill="#000000" fill-rule="nonzero" fill-opacity="1" /><path clip-path="url(#clip540)" d="M1903.25 355.872 Q1897.95 360.381 1893.02 362.237 Q1888.14 364.094 1882.51 364.094 Q1873.23 364.094 1868.25 359.585 Q1863.26 355.023 1863.26 347.969 Q1863.26 343.831 1865.12 340.437 Q1867.03 336.989 1870.05 334.92 Q1873.13 332.852 1876.94 331.791 Q1879.76 331.048 1885.43 330.359 Q1896.99 328.98 1902.46 327.07 Q1902.51 325.108 1902.51 324.577 Q1902.51 318.742 1899.81 316.356 Q1896.15 313.12 1888.93 313.12 Q1882.2 313.12 1878.96 315.507 Q1875.78 317.841 1874.24 323.835 L1864.9 322.562 Q1866.18 316.568 1869.09 312.908 Q1872.01 309.195 1877.53 307.232 Q1883.04 305.217 1890.31 305.217 Q1897.53 305.217 1902.03 306.914 Q1906.54 308.611 1908.66 311.21 Q1910.79 313.756 1911.63 317.682 Q1912.11 320.122 1912.11 326.487 L1912.11 339.217 Q1912.11 352.53 1912.7 356.084 Q1913.33 359.585 1915.14 362.821 L1905.16 362.821 Q1903.68 359.85 1903.25 355.872 M1902.46 334.549 Q1897.26 336.671 1886.86 338.156 Q1880.98 339.005 1878.54 340.065 Q1876.1 341.126 1874.77 343.195 Q1873.44 345.211 1873.44 347.704 Q1873.44 351.523 1876.31 354.069 Q1879.23 356.615 1884.79 356.615 Q1890.31 356.615 1894.61 354.228 Q1898.9 351.788 1900.92 347.597 Q1902.46 344.362 1902.46 338.05 L1902.46 334.549 Z" fill="#000000" fill-rule="nonzero" fill-opacity="1" /><path clip-path="url(#clip540)" d="M1926.7 362.821 L1926.7 285.061 L1936.25 285.061 L1936.25 362.821 L1926.7 362.821 Z" fill="#000000" fill-rule="nonzero" fill-opacity="1" /><path clip-path="url(#clip540)" d="M1942.24 384.409 L1942.24 377.513 L2005.52 377.513 L2005.52 384.409 L1942.24 384.409 Z" fill="#000000" fill-rule="nonzero" fill-opacity="1" /><path clip-path="url(#clip540)" d="M2011.25 362.821 L2011.25 285.061 L2020.8 285.061 L2020.8 362.821 L2011.25 362.821 Z" fill="#000000" fill-rule="nonzero" fill-opacity="1" /><path clip-path="url(#clip540)" d="M2032.04 334.655 Q2032.04 319.008 2040.74 311.476 Q2048.01 305.217 2058.46 305.217 Q2070.07 305.217 2077.44 312.855 Q2084.82 320.44 2084.82 333.86 Q2084.82 344.733 2081.53 350.992 Q2078.29 357.198 2072.03 360.646 Q2065.83 364.094 2058.46 364.094 Q2046.63 364.094 2039.31 356.509 Q2032.04 348.924 2032.04 334.655 M2041.85 334.655 Q2041.85 345.476 2046.57 350.886 Q2051.29 356.243 2058.46 356.243 Q2065.56 356.243 2070.28 350.833 Q2075 345.423 2075 334.337 Q2075 323.888 2070.23 318.53 Q2065.51 313.12 2058.46 313.12 Q2051.29 313.12 2046.57 318.477 Q2041.85 323.835 2041.85 334.655 Z" fill="#000000" fill-rule="nonzero" fill-opacity="1" /><path clip-path="url(#clip540)" d="M2092.19 346.006 L2101.63 344.521 Q2102.43 350.197 2106.03 353.22 Q2109.69 356.243 2116.22 356.243 Q2122.8 356.243 2125.98 353.591 Q2129.16 350.886 2129.16 347.279 Q2129.16 344.044 2126.35 342.187 Q2124.39 340.914 2116.59 338.952 Q2106.09 336.299 2102 334.39 Q2097.97 332.427 2095.85 329.033 Q2093.78 325.585 2093.78 321.448 Q2093.78 317.682 2095.48 314.499 Q2097.23 311.264 2100.2 309.142 Q2102.43 307.498 2106.25 306.384 Q2110.12 305.217 2114.52 305.217 Q2121.15 305.217 2126.14 307.126 Q2131.18 309.036 2133.56 312.324 Q2135.95 315.56 2136.85 321.023 L2127.52 322.296 Q2126.88 317.947 2123.8 315.507 Q2120.78 313.067 2115.21 313.067 Q2108.63 313.067 2105.82 315.242 Q2103.01 317.416 2103.01 320.334 Q2103.01 322.19 2104.18 323.675 Q2105.34 325.214 2107.84 326.221 Q2109.27 326.752 2116.27 328.661 Q2126.4 331.367 2130.38 333.117 Q2134.41 334.814 2136.69 338.103 Q2138.97 341.392 2138.97 346.271 Q2138.97 351.045 2136.16 355.289 Q2133.4 359.479 2128.15 361.813 Q2122.9 364.094 2116.27 364.094 Q2105.29 364.094 2099.51 359.532 Q2093.78 354.97 2092.19 346.006 Z" fill="#000000" fill-rule="nonzero" fill-opacity="1" /><path clip-path="url(#clip540)" d="M2146.51 346.006 L2155.95 344.521 Q2156.74 350.197 2160.35 353.22 Q2164.01 356.243 2170.53 356.243 Q2177.11 356.243 2180.29 353.591 Q2183.48 350.886 2183.48 347.279 Q2183.48 344.044 2180.66 342.187 Q2178.7 340.914 2170.91 338.952 Q2160.4 336.299 2156.32 334.39 Q2152.29 332.427 2150.17 329.033 Q2148.1 325.585 2148.1 321.448 Q2148.1 317.682 2149.79 314.499 Q2151.54 311.264 2154.51 309.142 Q2156.74 307.498 2160.56 306.384 Q2164.43 305.217 2168.84 305.217 Q2175.47 305.217 2180.45 307.126 Q2185.49 309.036 2187.88 312.324 Q2190.27 315.56 2191.17 321.023 L2181.83 322.296 Q2181.2 317.947 2178.12 315.507 Q2175.1 313.067 2169.53 313.067 Q2162.95 313.067 2160.14 315.242 Q2157.33 317.416 2157.33 320.334 Q2157.33 322.19 2158.49 323.675 Q2159.66 325.214 2162.15 326.221 Q2163.59 326.752 2170.59 328.661 Q2180.72 331.367 2184.7 333.117 Q2188.73 334.814 2191.01 338.103 Q2193.29 341.392 2193.29 346.271 Q2193.29 351.045 2190.48 355.289 Q2187.72 359.479 2182.47 361.813 Q2177.22 364.094 2170.59 364.094 Q2159.61 364.094 2153.83 359.532 Q2148.1 354.97 2146.51 346.006 Z" fill="#000000" fill-rule="nonzero" fill-opacity="1" /></svg>
