<?xml version="1.0" encoding="utf-8"?>
<svg xmlns="http://www.w3.org/2000/svg" xmlns:xlink="http://www.w3.org/1999/xlink" width="600" height="400" viewBox="0 0 2400 1600">
<defs>
  <clipPath id="clip150">
    <rect x="0" y="0" width="2400" height="1600"/>
  </clipPath>
</defs>
<path clip-path="url(#clip150)" d="M0 1600 L2400 1600 L2400 8.88178e-14 L0 8.88178e-14  Z" fill="#ffffff" fill-rule="evenodd" fill-opacity="1"/>
<defs>
  <clipPath id="clip151">
    <rect x="480" y="0" width="1681" height="1600"/>
  </clipPath>
</defs>
<defs>
  <clipPath id="clip152">
    <rect x="47" y="47" width="2307" height="1507"/>
  </clipPath>
</defs>
<path clip-path="url(#clip152)" d="M1280.92 1794.85 L1280.92 1370.97 L1465.79 1159.03 L1785.99 1281.39 L1785.99 1705.27 L1601.12 1917.21 L1280.92 1794.85  Z" fill="#ffffff" fill-rule="evenodd" fill-opacity="1"/>
<polyline clip-path="url(#clip150)" style="stroke:#000000; stroke-linecap:round; stroke-linejoin:round; stroke-width:4; stroke-opacity:1; fill:none" points="606.32,1255.92 1359.08,1473.22 "/>
<polyline clip-path="url(#clip150)" style="stroke:#000000; stroke-linecap:round; stroke-linejoin:round; stroke-width:2; stroke-opacity:0.5; fill:none" points="1040.92,126.782 1793.68,344.084 "/>
<polyline clip-path="url(#clip150)" style="stroke:#000000; stroke-linecap:round; stroke-linejoin:round; stroke-width:4; stroke-opacity:1; fill:none" points="1359.08,1473.22 1793.68,1096.84 "/>
<polyline clip-path="url(#clip150)" style="stroke:#000000; stroke-linecap:round; stroke-linejoin:round; stroke-width:2; stroke-opacity:0.5; fill:none" points="606.32,503.16 1040.92,126.782 "/>
<polyline clip-path="url(#clip150)" style="stroke:#000000; stroke-linecap:round; stroke-linejoin:round; stroke-width:4; stroke-opacity:1; fill:none" points="606.32,1255.92 606.32,503.16 "/>
<polyline clip-path="url(#clip150)" style="stroke:#000000; stroke-linecap:round; stroke-linejoin:round; stroke-width:2; stroke-opacity:0.5; fill:none" points="1793.68,1096.84 1793.68,344.084 "/>
<circle clip-path="url(#clip152)" cx="1396.84" cy="1087.71" r="14.4" fill="#009af9" fill-rule="evenodd" fill-opacity="1" stroke="#000000" stroke-opacity="1" stroke-width="3.2"/>
<path clip-path="url(#clip152)" d="M1246.22 803.592 L1246.22 835.592 L1278.22 835.592 L1278.22 803.592 L1246.22 803.592 Z" fill="#009af9" fill-rule="evenodd" fill-opacity="1" stroke="#000000" stroke-opacity="1" stroke-width="3.2"/>
<circle clip-path="url(#clip152)" cx="1311.67" cy="852.176" r="14.4" fill="#009af9" fill-rule="evenodd" fill-opacity="1" stroke="#000000" stroke-opacity="1" stroke-width="3.2"/>
<path clip-path="url(#clip152)" d="M1104.91 657.277 L1104.91 689.277 L1136.91 689.277 L1136.91 657.277 L1104.91 657.277 Z" fill="#009af9" fill-rule="evenodd" fill-opacity="1" stroke="#000000" stroke-opacity="1" stroke-width="3.2"/>
<path clip-path="url(#clip152)" d="M1042.86 510.383 L1042.86 542.383 L1074.86 542.383 L1074.86 510.383 L1042.86 510.383 Z" fill="#009af9" fill-rule="evenodd" fill-opacity="1" stroke="#000000" stroke-opacity="1" stroke-width="3.2"/>
<path clip-path="url(#clip152)" d="M939.692 485.523 L939.692 517.523 L971.692 517.523 L971.692 485.523 L939.692 485.523 Z" fill="#009af9" fill-rule="evenodd" fill-opacity="1" stroke="#000000" stroke-opacity="1" stroke-width="3.2"/>
<circle clip-path="url(#clip152)" cx="1236.46" cy="782.903" r="14.4" fill="#009af9" fill-rule="evenodd" fill-opacity="1" stroke="#000000" stroke-opacity="1" stroke-width="3.2"/>
<circle clip-path="url(#clip152)" cx="1143.58" cy="665.309" r="14.4" fill="#009af9" fill-rule="evenodd" fill-opacity="1" stroke="#000000" stroke-opacity="1" stroke-width="3.2"/>
<path clip-path="url(#clip152)" d="M1327.58 875.335 L1327.58 907.335 L1359.58 907.335 L1359.58 875.335 L1327.58 875.335 Z" fill="#009af9" fill-rule="evenodd" fill-opacity="1" stroke="#000000" stroke-opacity="1" stroke-width="3.2"/>
<circle clip-path="url(#clip152)" cx="1154.28" cy="683.614" r="14.4" fill="#009af9" fill-rule="evenodd" fill-opacity="1" stroke="#000000" stroke-opacity="1" stroke-width="3.2"/>
<circle clip-path="url(#clip152)" cx="1137.37" cy="660.173" r="14.4" fill="#009af9" fill-rule="evenodd" fill-opacity="1" stroke="#000000" stroke-opacity="1" stroke-width="3.2"/>
<circle clip-path="url(#clip152)" cx="1051.08" cy="492.33" r="14.4" fill="#009af9" fill-rule="evenodd" fill-opacity="1" stroke="#000000" stroke-opacity="1" stroke-width="3.2"/>
<path clip-path="url(#clip152)" d="M1050.65 528.986 L1050.65 560.986 L1082.65 560.986 L1082.65 528.986 L1050.65 528.986 Z" fill="#009af9" fill-rule="evenodd" fill-opacity="1" stroke="#000000" stroke-opacity="1" stroke-width="3.2"/>
<path clip-path="url(#clip152)" d="M1357.11 976.697 L1357.11 1008.7 L1389.11 1008.7 L1389.11 976.697 L1357.11 976.697 Z" fill="#009af9" fill-rule="evenodd" fill-opacity="1" stroke="#000000" stroke-opacity="1" stroke-width="3.2"/>
<circle clip-path="url(#clip152)" cx="1236.09" cy="932.589" r="14.4" fill="#009af9" fill-rule="evenodd" fill-opacity="1" stroke="#000000" stroke-opacity="1" stroke-width="3.2"/>
<path clip-path="url(#clip152)" d="M1275.97 861.201 L1275.97 893.201 L1307.97 893.201 L1307.97 861.201 L1275.97 861.201 Z" fill="#009af9" fill-rule="evenodd" fill-opacity="1" stroke="#000000" stroke-opacity="1" stroke-width="3.2"/>
<circle clip-path="url(#clip152)" cx="1276.04" cy="878.008" r="14.4" fill="#009af9" fill-rule="evenodd" fill-opacity="1" stroke="#000000" stroke-opacity="1" stroke-width="3.2"/>
<circle clip-path="url(#clip152)" cx="968.73" cy="572.091" r="14.4" fill="#009af9" fill-rule="evenodd" fill-opacity="1" stroke="#000000" stroke-opacity="1" stroke-width="3.2"/>
<path clip-path="url(#clip152)" d="M1089.79 622.286 L1089.79 654.286 L1121.79 654.286 L1121.79 622.286 L1089.79 622.286 Z" fill="#009af9" fill-rule="evenodd" fill-opacity="1" stroke="#000000" stroke-opacity="1" stroke-width="3.2"/>
<circle clip-path="url(#clip152)" cx="1039.01" cy="467.47" r="14.4" fill="#009af9" fill-rule="evenodd" fill-opacity="1" stroke="#000000" stroke-opacity="1" stroke-width="3.2"/>
<circle clip-path="url(#clip152)" cx="1231.83" cy="781.701" r="14.4" fill="#009af9" fill-rule="evenodd" fill-opacity="1" stroke="#000000" stroke-opacity="1" stroke-width="3.2"/>
<circle clip-path="url(#clip152)" cx="1204.77" cy="744.854" r="14.4" fill="#009af9" fill-rule="evenodd" fill-opacity="1" stroke="#000000" stroke-opacity="1" stroke-width="3.2"/>
<circle clip-path="url(#clip152)" cx="1386.35" cy="911.245" r="14.4" fill="#009af9" fill-rule="evenodd" fill-opacity="1" stroke="#000000" stroke-opacity="1" stroke-width="3.2"/>
<circle clip-path="url(#clip152)" cx="1058.49" cy="511.19" r="14.4" fill="#009af9" fill-rule="evenodd" fill-opacity="1" stroke="#000000" stroke-opacity="1" stroke-width="3.2"/>
<circle clip-path="url(#clip152)" cx="1227.24" cy="770.798" r="14.4" fill="#009af9" fill-rule="evenodd" fill-opacity="1" stroke="#000000" stroke-opacity="1" stroke-width="3.2"/>
<circle clip-path="url(#clip152)" cx="1105.6" cy="604.782" r="14.4" fill="#009af9" fill-rule="evenodd" fill-opacity="1" stroke="#000000" stroke-opacity="1" stroke-width="3.2"/>
<circle clip-path="url(#clip152)" cx="1127.93" cy="639.022" r="14.4" fill="#009af9" fill-rule="evenodd" fill-opacity="1" stroke="#000000" stroke-opacity="1" stroke-width="3.2"/>
<circle clip-path="url(#clip152)" cx="967.315" cy="861.021" r="14.4" fill="#009af9" fill-rule="evenodd" fill-opacity="1" stroke="#000000" stroke-opacity="1" stroke-width="3.2"/>
<path clip-path="url(#clip152)" d="M1272.35 850.898 L1272.35 882.898 L1304.35 882.898 L1304.35 850.898 L1272.35 850.898 Z" fill="#009af9" fill-rule="evenodd" fill-opacity="1" stroke="#000000" stroke-opacity="1" stroke-width="3.2"/>
<circle clip-path="url(#clip152)" cx="1129.15" cy="993.245" r="14.4" fill="#009af9" fill-rule="evenodd" fill-opacity="1" stroke="#000000" stroke-opacity="1" stroke-width="3.2"/>
<circle clip-path="url(#clip152)" cx="1318.46" cy="1011.96" r="14.4" fill="#009af9" fill-rule="evenodd" fill-opacity="1" stroke="#000000" stroke-opacity="1" stroke-width="3.2"/>
<path clip-path="url(#clip152)" d="M1303.63 850.701 L1303.63 882.701 L1335.63 882.701 L1335.63 850.701 L1303.63 850.701 Z" fill="#009af9" fill-rule="evenodd" fill-opacity="1" stroke="#000000" stroke-opacity="1" stroke-width="3.2"/>
<circle clip-path="url(#clip152)" cx="1378.74" cy="1029.69" r="14.4" fill="#009af9" fill-rule="evenodd" fill-opacity="1" stroke="#000000" stroke-opacity="1" stroke-width="3.2"/>
<circle clip-path="url(#clip152)" cx="1162.05" cy="1003.44" r="14.4" fill="#009af9" fill-rule="evenodd" fill-opacity="1" stroke="#000000" stroke-opacity="1" stroke-width="3.2"/>
<circle clip-path="url(#clip152)" cx="1015.07" cy="680.867" r="14.4" fill="#009af9" fill-rule="evenodd" fill-opacity="1" stroke="#000000" stroke-opacity="1" stroke-width="3.2"/>
<path clip-path="url(#clip152)" d="M1393.47 1031.47 L1393.47 1063.47 L1425.47 1063.47 L1425.47 1031.47 L1393.47 1031.47 Z" fill="#009af9" fill-rule="evenodd" fill-opacity="1" stroke="#000000" stroke-opacity="1" stroke-width="3.2"/>
<path clip-path="url(#clip152)" d="M972.151 530.289 L972.151 562.289 L1004.15 562.289 L1004.15 530.289 L972.151 530.289 Z" fill="#009af9" fill-rule="evenodd" fill-opacity="1" stroke="#000000" stroke-opacity="1" stroke-width="3.2"/>
<circle clip-path="url(#clip152)" cx="1294.35" cy="914.169" r="14.4" fill="#009af9" fill-rule="evenodd" fill-opacity="1" stroke="#000000" stroke-opacity="1" stroke-width="3.2"/>
<circle clip-path="url(#clip152)" cx="1041.86" cy="475.778" r="14.4" fill="#009af9" fill-rule="evenodd" fill-opacity="1" stroke="#000000" stroke-opacity="1" stroke-width="3.2"/>
<circle clip-path="url(#clip152)" cx="967.266" cy="640.595" r="14.4" fill="#009af9" fill-rule="evenodd" fill-opacity="1" stroke="#000000" stroke-opacity="1" stroke-width="3.2"/>
<circle clip-path="url(#clip152)" cx="1149.9" cy="673.059" r="14.4" fill="#009af9" fill-rule="evenodd" fill-opacity="1" stroke="#000000" stroke-opacity="1" stroke-width="3.2"/>
<circle clip-path="url(#clip152)" cx="1159.94" cy="687.01" r="14.4" fill="#009af9" fill-rule="evenodd" fill-opacity="1" stroke="#000000" stroke-opacity="1" stroke-width="3.2"/>
<circle clip-path="url(#clip152)" cx="1065.15" cy="527.029" r="14.4" fill="#009af9" fill-rule="evenodd" fill-opacity="1" stroke="#000000" stroke-opacity="1" stroke-width="3.2"/>
<path clip-path="url(#clip152)" d="M1238.22 795.318 L1238.22 827.318 L1270.22 827.318 L1270.22 795.318 L1238.22 795.318 Z" fill="#009af9" fill-rule="evenodd" fill-opacity="1" stroke="#000000" stroke-opacity="1" stroke-width="3.2"/>
<circle clip-path="url(#clip152)" cx="1181.78" cy="728.682" r="14.4" fill="#009af9" fill-rule="evenodd" fill-opacity="1" stroke="#000000" stroke-opacity="1" stroke-width="3.2"/>
<circle clip-path="url(#clip152)" cx="1163.95" cy="693.578" r="14.4" fill="#009af9" fill-rule="evenodd" fill-opacity="1" stroke="#000000" stroke-opacity="1" stroke-width="3.2"/>
<circle clip-path="url(#clip152)" cx="1222.76" cy="765.855" r="14.4" fill="#009af9" fill-rule="evenodd" fill-opacity="1" stroke="#000000" stroke-opacity="1" stroke-width="3.2"/>
<circle clip-path="url(#clip152)" cx="1373.98" cy="1010.49" r="14.4" fill="#009af9" fill-rule="evenodd" fill-opacity="1" stroke="#000000" stroke-opacity="1" stroke-width="3.2"/>
<circle clip-path="url(#clip152)" cx="1074.29" cy="543.962" r="14.4" fill="#009af9" fill-rule="evenodd" fill-opacity="1" stroke="#000000" stroke-opacity="1" stroke-width="3.2"/>
<path clip-path="url(#clip152)" d="M1073.23 608.801 L1073.23 640.801 L1105.23 640.801 L1105.23 608.801 L1073.23 608.801 Z" fill="#009af9" fill-rule="evenodd" fill-opacity="1" stroke="#000000" stroke-opacity="1" stroke-width="3.2"/>
<circle clip-path="url(#clip152)" cx="1193.74" cy="765.555" r="14.4" fill="#009af9" fill-rule="evenodd" fill-opacity="1" stroke="#000000" stroke-opacity="1" stroke-width="3.2"/>
<circle clip-path="url(#clip152)" cx="1297.36" cy="978.3" r="14.4" fill="#009af9" fill-rule="evenodd" fill-opacity="1" stroke="#000000" stroke-opacity="1" stroke-width="3.2"/>
<circle clip-path="url(#clip152)" cx="1099.48" cy="591.129" r="14.4" fill="#009af9" fill-rule="evenodd" fill-opacity="1" stroke="#000000" stroke-opacity="1" stroke-width="3.2"/>
<circle clip-path="url(#clip152)" cx="1218.26" cy="760.215" r="14.4" fill="#009af9" fill-rule="evenodd" fill-opacity="1" stroke="#000000" stroke-opacity="1" stroke-width="3.2"/>
<circle clip-path="url(#clip152)" cx="1224.37" cy="868.828" r="14.4" fill="#009af9" fill-rule="evenodd" fill-opacity="1" stroke="#000000" stroke-opacity="1" stroke-width="3.2"/>
<circle clip-path="url(#clip152)" cx="1132.94" cy="824.318" r="14.4" fill="#009af9" fill-rule="evenodd" fill-opacity="1" stroke="#000000" stroke-opacity="1" stroke-width="3.2"/>
<circle clip-path="url(#clip152)" cx="1190.42" cy="736.226" r="14.4" fill="#009af9" fill-rule="evenodd" fill-opacity="1" stroke="#000000" stroke-opacity="1" stroke-width="3.2"/>
<circle clip-path="url(#clip152)" cx="1187.56" cy="845.235" r="14.4" fill="#009af9" fill-rule="evenodd" fill-opacity="1" stroke="#000000" stroke-opacity="1" stroke-width="3.2"/>
<circle clip-path="url(#clip152)" cx="1249.98" cy="803.616" r="14.4" fill="#009af9" fill-rule="evenodd" fill-opacity="1" stroke="#000000" stroke-opacity="1" stroke-width="3.2"/>
<circle clip-path="url(#clip152)" cx="1248.05" cy="796.161" r="14.4" fill="#009af9" fill-rule="evenodd" fill-opacity="1" stroke="#000000" stroke-opacity="1" stroke-width="3.2"/>
<path clip-path="url(#clip152)" d="M1396.85 929.076 L1396.85 961.076 L1428.85 961.076 L1428.85 929.076 L1396.85 929.076 Z" fill="#009af9" fill-rule="evenodd" fill-opacity="1" stroke="#000000" stroke-opacity="1" stroke-width="3.2"/>
<circle clip-path="url(#clip152)" cx="1258.81" cy="810.746" r="14.4" fill="#009af9" fill-rule="evenodd" fill-opacity="1" stroke="#000000" stroke-opacity="1" stroke-width="3.2"/>
<circle clip-path="url(#clip152)" cx="1241.31" cy="786.906" r="14.4" fill="#009af9" fill-rule="evenodd" fill-opacity="1" stroke="#000000" stroke-opacity="1" stroke-width="3.2"/>
<circle clip-path="url(#clip152)" cx="992.781" cy="759.944" r="14.4" fill="#009af9" fill-rule="evenodd" fill-opacity="1" stroke="#000000" stroke-opacity="1" stroke-width="3.2"/>
<path clip-path="url(#clip152)" d="M1244.08 822.884 L1244.08 854.884 L1276.08 854.884 L1276.08 822.884 L1244.08 822.884 Z" fill="#009af9" fill-rule="evenodd" fill-opacity="1" stroke="#000000" stroke-opacity="1" stroke-width="3.2"/>
<circle clip-path="url(#clip152)" cx="1351.77" cy="1018.71" r="14.4" fill="#009af9" fill-rule="evenodd" fill-opacity="1" stroke="#000000" stroke-opacity="1" stroke-width="3.2"/>
<path clip-path="url(#clip152)" d="M1143.87 694.281 L1143.87 726.281 L1175.87 726.281 L1175.87 694.281 L1143.87 694.281 Z" fill="#009af9" fill-rule="evenodd" fill-opacity="1" stroke="#000000" stroke-opacity="1" stroke-width="3.2"/>
<circle clip-path="url(#clip152)" cx="974.123" cy="883.037" r="14.4" fill="#009af9" fill-rule="evenodd" fill-opacity="1" stroke="#000000" stroke-opacity="1" stroke-width="3.2"/>
<circle clip-path="url(#clip152)" cx="1367.8" cy="901.503" r="14.4" fill="#009af9" fill-rule="evenodd" fill-opacity="1" stroke="#000000" stroke-opacity="1" stroke-width="3.2"/>
<path clip-path="url(#clip152)" d="M1326.44 877.868 L1326.44 909.868 L1358.44 909.868 L1358.44 877.868 L1326.44 877.868 Z" fill="#009af9" fill-rule="evenodd" fill-opacity="1" stroke="#000000" stroke-opacity="1" stroke-width="3.2"/>
<path clip-path="url(#clip152)" d="M1334.26 897.755 L1334.26 929.755 L1366.26 929.755 L1366.26 897.755 L1334.26 897.755 Z" fill="#009af9" fill-rule="evenodd" fill-opacity="1" stroke="#000000" stroke-opacity="1" stroke-width="3.2"/>
<path clip-path="url(#clip152)" d="M999.306 405.476 L999.306 437.476 L1031.31 437.476 L1031.31 405.476 L999.306 405.476 Z" fill="#e26f46" fill-rule="evenodd" fill-opacity="1" stroke="#000000" stroke-opacity="1" stroke-width="3.2"/>
<path clip-path="url(#clip152)" d="M1449.34 954.107 L1449.34 986.107 L1481.34 986.107 L1481.34 954.107 L1449.34 954.107 Z" fill="#e26f46" fill-rule="evenodd" fill-opacity="1" stroke="#000000" stroke-opacity="1" stroke-width="3.2"/>
<path clip-path="url(#clip152)" d="M1548.72 1028.17 L1548.72 1060.17 L1580.72 1060.17 L1580.72 1028.17 L1548.72 1028.17 Z" fill="#e26f46" fill-rule="evenodd" fill-opacity="1" stroke="#000000" stroke-opacity="1" stroke-width="3.2"/>
<path clip-path="url(#clip152)" d="M941.051 310.002 L941.051 342.002 L973.051 342.002 L973.051 310.002 L941.051 310.002 Z" fill="#e26f46" fill-rule="evenodd" fill-opacity="1" stroke="#000000" stroke-opacity="1" stroke-width="3.2"/>
<path clip-path="url(#clip152)" d="M1493.06 1088.2 L1493.06 1120.2 L1525.06 1120.2 L1525.06 1088.2 L1493.06 1088.2 Z" fill="#e26f46" fill-rule="evenodd" fill-opacity="1" stroke="#000000" stroke-opacity="1" stroke-width="3.2"/>
<path clip-path="url(#clip152)" d="M924.894 292.076 L924.894 324.076 L956.894 324.076 L956.894 292.076 L924.894 292.076 Z" fill="#e26f46" fill-rule="evenodd" fill-opacity="1" stroke="#000000" stroke-opacity="1" stroke-width="3.2"/>
<path clip-path="url(#clip152)" d="M1386.16 939.972 L1386.16 971.972 L1418.16 971.972 L1418.16 939.972 L1386.16 939.972 Z" fill="#e26f46" fill-rule="evenodd" fill-opacity="1" stroke="#000000" stroke-opacity="1" stroke-width="3.2"/>
<path clip-path="url(#clip152)" d="M1474.31 1011.77 L1474.31 1043.77 L1506.31 1043.77 L1506.31 1011.77 L1474.31 1011.77 Z" fill="#e26f46" fill-rule="evenodd" fill-opacity="1" stroke="#000000" stroke-opacity="1" stroke-width="3.2"/>
<path clip-path="url(#clip152)" d="M1591.49 1080.29 L1591.49 1112.29 L1623.49 1112.29 L1623.49 1080.29 L1591.49 1080.29 Z" fill="#e26f46" fill-rule="evenodd" fill-opacity="1" stroke="#000000" stroke-opacity="1" stroke-width="3.2"/>
<path clip-path="url(#clip152)" d="M880.415 235.93 L880.415 267.93 L912.415 267.93 L912.415 235.93 L880.415 235.93 Z" fill="#e26f46" fill-rule="evenodd" fill-opacity="1" stroke="#000000" stroke-opacity="1" stroke-width="3.2"/>
<path clip-path="url(#clip152)" d="M872.617 309.312 L872.617 341.312 L904.617 341.312 L904.617 309.312 L872.617 309.312 Z" fill="#e26f46" fill-rule="evenodd" fill-opacity="1" stroke="#000000" stroke-opacity="1" stroke-width="3.2"/>
<path clip-path="url(#clip152)" d="M1022.24 461.456 L1022.24 493.456 L1054.24 493.456 L1054.24 461.456 L1022.24 461.456 Z" fill="#e26f46" fill-rule="evenodd" fill-opacity="1" stroke="#000000" stroke-opacity="1" stroke-width="3.2"/>
<path clip-path="url(#clip152)" d="M894.653 327.846 L894.653 359.846 L926.653 359.846 L926.653 327.846 L894.653 327.846 Z" fill="#e26f46" fill-rule="evenodd" fill-opacity="1" stroke="#000000" stroke-opacity="1" stroke-width="3.2"/>
<path clip-path="url(#clip152)" d="M1012.77 497.217 L1012.77 529.217 L1044.77 529.217 L1044.77 497.217 L1012.77 497.217 Z" fill="#e26f46" fill-rule="evenodd" fill-opacity="1" stroke="#000000" stroke-opacity="1" stroke-width="3.2"/>
<path clip-path="url(#clip152)" d="M1546.44 1030.51 L1546.44 1062.51 L1578.44 1062.51 L1578.44 1030.51 L1546.44 1030.51 Z" fill="#e26f46" fill-rule="evenodd" fill-opacity="1" stroke="#000000" stroke-opacity="1" stroke-width="3.2"/>
<path clip-path="url(#clip152)" d="M1485.75 1033.79 L1485.75 1065.79 L1517.75 1065.79 L1517.75 1033.79 L1485.75 1033.79 Z" fill="#e26f46" fill-rule="evenodd" fill-opacity="1" stroke="#000000" stroke-opacity="1" stroke-width="3.2"/>
<path clip-path="url(#clip152)" d="M931.456 327.691 L931.456 359.691 L963.456 359.691 L963.456 327.691 L931.456 327.691 Z" fill="#e26f46" fill-rule="evenodd" fill-opacity="1" stroke="#000000" stroke-opacity="1" stroke-width="3.2"/>
<path clip-path="url(#clip152)" d="M891.04 249.09 L891.04 281.09 L923.04 281.09 L923.04 249.09 L891.04 249.09 Z" fill="#e26f46" fill-rule="evenodd" fill-opacity="1" stroke="#000000" stroke-opacity="1" stroke-width="3.2"/>
<path clip-path="url(#clip152)" d="M1529.59 1082.81 L1529.59 1114.81 L1561.59 1114.81 L1561.59 1082.81 L1529.59 1082.81 Z" fill="#e26f46" fill-rule="evenodd" fill-opacity="1" stroke="#000000" stroke-opacity="1" stroke-width="3.2"/>
<path clip-path="url(#clip152)" d="M898.384 414.262 L898.384 446.262 L930.384 446.262 L930.384 414.262 L898.384 414.262 Z" fill="#e26f46" fill-rule="evenodd" fill-opacity="1" stroke="#000000" stroke-opacity="1" stroke-width="3.2"/>
<path clip-path="url(#clip152)" d="M1502.13 1051.59 L1502.13 1083.59 L1534.13 1083.59 L1534.13 1051.59 L1502.13 1051.59 Z" fill="#e26f46" fill-rule="evenodd" fill-opacity="1" stroke="#000000" stroke-opacity="1" stroke-width="3.2"/>
<path clip-path="url(#clip152)" d="M1555.79 1120.37 L1555.79 1152.37 L1587.79 1152.37 L1587.79 1120.37 L1555.79 1120.37 Z" fill="#e26f46" fill-rule="evenodd" fill-opacity="1" stroke="#000000" stroke-opacity="1" stroke-width="3.2"/>
<path clip-path="url(#clip152)" d="M943.961 324.409 L943.961 356.409 L975.961 356.409 L975.961 324.409 L943.961 324.409 Z" fill="#e26f46" fill-rule="evenodd" fill-opacity="1" stroke="#000000" stroke-opacity="1" stroke-width="3.2"/>
<path clip-path="url(#clip152)" d="M1597.43 1077.23 L1597.43 1109.23 L1629.43 1109.23 L1629.43 1077.23 L1597.43 1077.23 Z" fill="#e26f46" fill-rule="evenodd" fill-opacity="1" stroke="#000000" stroke-opacity="1" stroke-width="3.2"/>
<path clip-path="url(#clip152)" d="M958.338 339.56 L958.338 371.56 L990.338 371.56 L990.338 339.56 L958.338 339.56 Z" fill="#e26f46" fill-rule="evenodd" fill-opacity="1" stroke="#000000" stroke-opacity="1" stroke-width="3.2"/>
<path clip-path="url(#clip152)" d="M1589.52 1083.54 L1589.52 1115.54 L1621.52 1115.54 L1621.52 1083.54 L1589.52 1083.54 Z" fill="#e26f46" fill-rule="evenodd" fill-opacity="1" stroke="#000000" stroke-opacity="1" stroke-width="3.2"/>
<path clip-path="url(#clip152)" d="M894.379 279.681 L894.379 311.681 L926.379 311.681 L926.379 279.681 L894.379 279.681 Z" fill="#e26f46" fill-rule="evenodd" fill-opacity="1" stroke="#000000" stroke-opacity="1" stroke-width="3.2"/>
<path clip-path="url(#clip152)" d="M979.928 439.936 L979.928 471.936 L1011.93 471.936 L1011.93 439.936 L979.928 439.936 Z" fill="#e26f46" fill-rule="evenodd" fill-opacity="1" stroke="#000000" stroke-opacity="1" stroke-width="3.2"/>
<path clip-path="url(#clip152)" d="M1692.27 1154.81 L1692.27 1186.81 L1724.27 1186.81 L1724.27 1154.81 L1692.27 1154.81 Z" fill="#e26f46" fill-rule="evenodd" fill-opacity="1" stroke="#000000" stroke-opacity="1" stroke-width="3.2"/>
<path clip-path="url(#clip152)" d="M904.075 275.528 L904.075 307.528 L936.075 307.528 L936.075 275.528 L904.075 275.528 Z" fill="#e26f46" fill-rule="evenodd" fill-opacity="1" stroke="#000000" stroke-opacity="1" stroke-width="3.2"/>
<path clip-path="url(#clip150)" d="M1904.05 447.348 L2275.91 447.348 L2275.91 97.4278 L1904.05 97.4278  Z" fill="#ffffff" fill-rule="evenodd" fill-opacity="1"/>
<polyline clip-path="url(#clip150)" style="stroke:#000000; stroke-linecap:round; stroke-linejoin:round; stroke-width:4; stroke-opacity:1; fill:none" points="1904.05,447.348 2275.91,447.348 2275.91,97.4278 1904.05,97.4278 1904.05,447.348 "/>
<circle clip-path="url(#clip150)" cx="2006.52" cy="214.068" r="46.08" fill="#009af9" fill-rule="evenodd" fill-opacity="1" stroke="#000000" stroke-opacity="1" stroke-width="10.24"/>
<path clip-path="url(#clip150)" d="M2108.98 214.598 Q2108.98 200.807 2111.8 192.427 Q2114.66 183.993 2120.23 179.431 Q2125.85 174.87 2134.34 174.87 Q2140.6 174.87 2145.32 177.416 Q2150.04 179.909 2153.12 184.682 Q2156.19 189.403 2157.94 196.246 Q2159.69 203.035 2159.69 214.598 Q2159.69 228.283 2156.88 236.717 Q2154.07 245.098 2148.45 249.712 Q2142.88 254.274 2134.34 254.274 Q2123.09 254.274 2116.68 246.211 Q2108.98 236.505 2108.98 214.598 M2118.8 214.598 Q2118.8 233.747 2123.25 240.112 Q2127.76 246.424 2134.34 246.424 Q2140.92 246.424 2145.37 240.059 Q2149.88 233.693 2149.88 214.598 Q2149.88 195.397 2145.37 189.085 Q2140.92 182.773 2134.23 182.773 Q2127.65 182.773 2123.73 188.342 Q2118.8 195.45 2118.8 214.598 Z" fill="#000000" fill-rule="nonzero" fill-opacity="1" /><path clip-path="url(#clip150)" d="M2174.76 252.948 L2174.76 242.074 L2185.63 242.074 L2185.63 252.948 L2174.76 252.948 Z" fill="#000000" fill-rule="nonzero" fill-opacity="1" /><path clip-path="url(#clip150)" d="M2199.58 214.598 Q2199.58 200.807 2202.39 192.427 Q2205.26 183.993 2210.83 179.431 Q2216.45 174.87 2224.93 174.87 Q2231.19 174.87 2235.91 177.416 Q2240.64 179.909 2243.71 184.682 Q2246.79 189.403 2248.54 196.246 Q2250.29 203.035 2250.29 214.598 Q2250.29 228.283 2247.48 236.717 Q2244.67 245.098 2239.04 249.712 Q2233.47 254.274 2224.93 254.274 Q2213.69 254.274 2207.27 246.211 Q2199.58 236.505 2199.58 214.598 M2209.39 214.598 Q2209.39 233.747 2213.85 240.112 Q2218.36 246.424 2224.93 246.424 Q2231.51 246.424 2235.97 240.059 Q2240.48 233.693 2240.48 214.598 Q2240.48 195.397 2235.97 189.085 Q2231.51 182.773 2224.83 182.773 Q2218.25 182.773 2214.33 188.342 Q2209.39 195.45 2209.39 214.598 Z" fill="#000000" fill-rule="nonzero" fill-opacity="1" /><path clip-path="url(#clip150)" d="M1955.32 279.508 L1955.32 381.908 L2057.72 381.908 L2057.72 279.508 L1955.32 279.508 Z" fill="#e26f46" fill-rule="evenodd" fill-opacity="1" stroke="#000000" stroke-opacity="1" stroke-width="10.24"/>
<path clip-path="url(#clip150)" d="M2137.63 369.588 L2128.08 369.588 L2128.08 308.748 Q2124.63 312.037 2119.01 315.326 Q2113.44 318.614 2108.98 320.258 L2108.98 311.029 Q2116.99 307.263 2122.99 301.906 Q2128.98 296.549 2131.47 291.51 L2137.63 291.51 L2137.63 369.588 Z" fill="#000000" fill-rule="nonzero" fill-opacity="1" /><path clip-path="url(#clip150)" d="M2167.44 369.588 L2167.44 358.714 L2178.31 358.714 L2178.31 369.588 L2167.44 369.588 Z" fill="#000000" fill-rule="nonzero" fill-opacity="1" /><path clip-path="url(#clip150)" d="M2192.26 331.238 Q2192.26 317.447 2195.07 309.067 Q2197.94 300.633 2203.51 296.071 Q2209.13 291.51 2217.61 291.51 Q2223.87 291.51 2228.59 294.056 Q2233.32 296.549 2236.39 301.322 Q2239.47 306.043 2241.22 312.886 Q2242.97 319.675 2242.97 331.238 Q2242.97 344.923 2240.16 353.357 Q2237.35 361.738 2231.72 366.352 Q2226.15 370.914 2217.61 370.914 Q2206.37 370.914 2199.95 362.851 Q2192.26 353.145 2192.26 331.238 M2202.07 331.238 Q2202.07 350.387 2206.53 356.752 Q2211.04 363.064 2217.61 363.064 Q2224.19 363.064 2228.65 356.699 Q2233.16 350.333 2233.16 331.238 Q2233.16 312.037 2228.65 305.725 Q2224.19 299.413 2217.51 299.413 Q2210.93 299.413 2207.01 304.982 Q2202.07 312.09 2202.07 331.238 Z" fill="#000000" fill-rule="nonzero" fill-opacity="1" /></svg>
