<?xml version="1.0" encoding="utf-8"?>
<svg xmlns="http://www.w3.org/2000/svg" xmlns:xlink="http://www.w3.org/1999/xlink" width="600" height="400" viewBox="0 0 2400 1600">
<defs>
  <clipPath id="clip080">
    <rect x="0" y="0" width="2400" height="1600"/>
  </clipPath>
</defs>
<path clip-path="url(#clip080)" d="M0 1600 L2400 1600 L2400 8.88178e-14 L0 8.88178e-14  Z" fill="#ffffff" fill-rule="evenodd" fill-opacity="1"/>
<defs>
  <clipPath id="clip081">
    <rect x="480" y="0" width="1681" height="1600"/>
  </clipPath>
</defs>
<path clip-path="url(#clip080)" d="M383.069 1349.74 L2352.76 1349.74 L2352.76 47.2441 L383.069 47.2441  Z" fill="#ffffff" fill-rule="evenodd" fill-opacity="1"/>
<defs>
  <clipPath id="clip082">
    <rect x="383" y="47" width="1971" height="1303"/>
  </clipPath>
</defs>
<polyline clip-path="url(#clip080)" style="stroke:#000000; stroke-linecap:round; stroke-linejoin:round; stroke-width:4; stroke-opacity:1; fill:none" points="383.069,1349.74 2352.76,1349.74 "/>
<polyline clip-path="url(#clip080)" style="stroke:#000000; stroke-linecap:round; stroke-linejoin:round; stroke-width:2; stroke-opacity:0.5; fill:none" points="383.069,47.2441 2352.76,47.2441 "/>
<polyline clip-path="url(#clip080)" style="stroke:#000000; stroke-linecap:round; stroke-linejoin:round; stroke-width:4; stroke-opacity:1; fill:none" points="601.923,1349.74 601.923,1330.84 "/>
<polyline clip-path="url(#clip080)" style="stroke:#000000; stroke-linecap:round; stroke-linejoin:round; stroke-width:4; stroke-opacity:1; fill:none" points="875.49,1349.74 875.49,1330.84 "/>
<polyline clip-path="url(#clip080)" style="stroke:#000000; stroke-linecap:round; stroke-linejoin:round; stroke-width:4; stroke-opacity:1; fill:none" points="1149.06,1349.74 1149.06,1330.84 "/>
<polyline clip-path="url(#clip080)" style="stroke:#000000; stroke-linecap:round; stroke-linejoin:round; stroke-width:4; stroke-opacity:1; fill:none" points="1422.63,1349.74 1422.63,1330.84 "/>
<polyline clip-path="url(#clip080)" style="stroke:#000000; stroke-linecap:round; stroke-linejoin:round; stroke-width:4; stroke-opacity:1; fill:none" points="1696.19,1349.74 1696.19,1330.84 "/>
<polyline clip-path="url(#clip080)" style="stroke:#000000; stroke-linecap:round; stroke-linejoin:round; stroke-width:4; stroke-opacity:1; fill:none" points="1969.76,1349.74 1969.76,1330.84 "/>
<polyline clip-path="url(#clip080)" style="stroke:#000000; stroke-linecap:round; stroke-linejoin:round; stroke-width:4; stroke-opacity:1; fill:none" points="2243.33,1349.74 2243.33,1330.84 "/>
<path clip-path="url(#clip080)" d="M576.144 1445.77 L586.169 1444.92 Q587.283 1452.24 591.314 1455.96 Q595.399 1459.62 601.127 1459.62 Q608.023 1459.62 612.796 1454.42 Q617.57 1449.22 617.57 1440.63 Q617.57 1432.46 612.956 1427.74 Q608.394 1423.02 600.968 1423.02 Q596.353 1423.02 592.64 1425.14 Q588.927 1427.21 586.806 1430.55 L577.842 1429.38 L585.374 1389.44 L624.041 1389.44 L624.041 1398.56 L593.012 1398.56 L588.821 1419.46 Q595.823 1414.58 603.514 1414.58 Q613.698 1414.58 620.7 1421.64 Q627.701 1428.69 627.701 1439.78 Q627.701 1450.33 621.548 1458.02 Q614.069 1467.47 601.127 1467.47 Q590.519 1467.47 583.782 1461.53 Q577.099 1455.58 576.144 1445.77 Z" fill="#000000" fill-rule="nonzero" fill-opacity="1" /><path clip-path="url(#clip080)" d="M852.231 1466.14 L842.684 1466.14 L842.684 1405.3 Q839.236 1408.59 833.614 1411.88 Q828.044 1415.17 823.589 1416.81 L823.589 1407.58 Q831.598 1403.82 837.592 1398.46 Q843.586 1393.1 846.079 1388.06 L852.231 1388.06 L852.231 1466.14 Z" fill="#000000" fill-rule="nonzero" fill-opacity="1" /><path clip-path="url(#clip080)" d="M876.684 1427.79 Q876.684 1414 879.495 1405.62 Q882.359 1397.18 887.929 1392.62 Q893.551 1388.06 902.038 1388.06 Q908.297 1388.06 913.018 1390.61 Q917.739 1393.1 920.815 1397.87 Q923.892 1402.6 925.642 1409.44 Q927.392 1416.23 927.392 1427.79 Q927.392 1441.48 924.581 1449.91 Q921.77 1458.29 916.147 1462.9 Q910.578 1467.47 902.038 1467.47 Q890.793 1467.47 884.375 1459.4 Q876.684 1449.7 876.684 1427.79 M886.497 1427.79 Q886.497 1446.94 890.952 1453.3 Q895.461 1459.62 902.038 1459.62 Q908.615 1459.62 913.071 1453.25 Q917.58 1446.89 917.58 1427.79 Q917.58 1408.59 913.071 1402.28 Q908.615 1395.96 901.932 1395.96 Q895.355 1395.96 891.43 1401.53 Q886.497 1408.64 886.497 1427.79 Z" fill="#000000" fill-rule="nonzero" fill-opacity="1" /><path clip-path="url(#clip080)" d="M1125.37 1466.14 L1115.83 1466.14 L1115.83 1405.3 Q1112.38 1408.59 1106.76 1411.88 Q1101.19 1415.17 1096.73 1416.81 L1096.73 1407.58 Q1104.74 1403.82 1110.74 1398.46 Q1116.73 1393.1 1119.22 1388.06 L1125.37 1388.06 L1125.37 1466.14 Z" fill="#000000" fill-rule="nonzero" fill-opacity="1" /><path clip-path="url(#clip080)" d="M1149.83 1445.77 L1159.85 1444.92 Q1160.97 1452.24 1165 1455.96 Q1169.08 1459.62 1174.81 1459.62 Q1181.71 1459.62 1186.48 1454.42 Q1191.25 1449.22 1191.25 1440.63 Q1191.25 1432.46 1186.64 1427.74 Q1182.08 1423.02 1174.65 1423.02 Q1170.04 1423.02 1166.32 1425.14 Q1162.61 1427.21 1160.49 1430.55 L1151.52 1429.38 L1159.06 1389.44 L1197.72 1389.44 L1197.72 1398.56 L1166.69 1398.56 L1162.5 1419.46 Q1169.51 1414.58 1177.2 1414.58 Q1187.38 1414.58 1194.38 1421.64 Q1201.38 1428.69 1201.38 1439.78 Q1201.38 1450.33 1195.23 1458.02 Q1187.75 1467.47 1174.81 1467.47 Q1164.2 1467.47 1157.47 1461.53 Q1150.78 1455.58 1149.83 1445.77 Z" fill="#000000" fill-rule="nonzero" fill-opacity="1" /><path clip-path="url(#clip080)" d="M1417.91 1456.96 L1417.91 1466.14 L1366.51 1466.14 Q1366.4 1462.69 1367.62 1459.51 Q1369.58 1454.26 1373.88 1449.17 Q1378.23 1444.07 1386.4 1437.39 Q1399.08 1426.99 1403.53 1420.95 Q1407.99 1414.85 1407.99 1409.44 Q1407.99 1403.76 1403.9 1399.89 Q1399.87 1395.96 1393.35 1395.96 Q1386.45 1395.96 1382.31 1400.1 Q1378.18 1404.24 1378.12 1411.56 L1368.31 1410.55 Q1369.32 1399.57 1375.9 1393.84 Q1382.47 1388.06 1393.56 1388.06 Q1404.75 1388.06 1411.27 1394.27 Q1417.8 1400.47 1417.8 1409.65 Q1417.8 1414.32 1415.89 1418.83 Q1413.98 1423.33 1409.52 1428.32 Q1405.12 1433.31 1394.83 1442.01 Q1386.24 1449.22 1383.8 1451.82 Q1381.36 1454.36 1379.77 1456.96 L1417.91 1456.96 Z" fill="#000000" fill-rule="nonzero" fill-opacity="1" /><path clip-path="url(#clip080)" d="M1428.14 1427.79 Q1428.14 1414 1430.95 1405.62 Q1433.82 1397.18 1439.39 1392.62 Q1445.01 1388.06 1453.5 1388.06 Q1459.76 1388.06 1464.48 1390.61 Q1469.2 1393.1 1472.27 1397.87 Q1475.35 1402.6 1477.1 1409.44 Q1478.85 1416.23 1478.85 1427.79 Q1478.85 1441.48 1476.04 1449.91 Q1473.23 1458.29 1467.61 1462.9 Q1462.04 1467.47 1453.5 1467.47 Q1442.25 1467.47 1435.83 1459.4 Q1428.14 1449.7 1428.14 1427.79 M1437.96 1427.79 Q1437.96 1446.94 1442.41 1453.3 Q1446.92 1459.62 1453.5 1459.62 Q1460.07 1459.62 1464.53 1453.25 Q1469.04 1446.89 1469.04 1427.79 Q1469.04 1408.59 1464.53 1402.28 Q1460.07 1395.96 1453.39 1395.96 Q1446.81 1395.96 1442.89 1401.53 Q1437.96 1408.64 1437.96 1427.79 Z" fill="#000000" fill-rule="nonzero" fill-opacity="1" /><path clip-path="url(#clip080)" d="M1691.05 1456.96 L1691.05 1466.14 L1639.65 1466.14 Q1639.54 1462.69 1640.76 1459.51 Q1642.73 1454.26 1647.02 1449.17 Q1651.37 1444.07 1659.54 1437.39 Q1672.22 1426.99 1676.67 1420.95 Q1681.13 1414.85 1681.13 1409.44 Q1681.13 1403.76 1677.05 1399.89 Q1673.01 1395.96 1666.49 1395.96 Q1659.59 1395.96 1655.46 1400.1 Q1651.32 1404.24 1651.27 1411.56 L1641.45 1410.55 Q1642.46 1399.57 1649.04 1393.84 Q1655.62 1388.06 1666.7 1388.06 Q1677.89 1388.06 1684.42 1394.27 Q1690.94 1400.47 1690.94 1409.65 Q1690.94 1414.32 1689.03 1418.83 Q1687.12 1423.33 1682.67 1428.32 Q1678.27 1433.31 1667.97 1442.01 Q1659.38 1449.22 1656.94 1451.82 Q1654.5 1454.36 1652.91 1456.96 L1691.05 1456.96 Z" fill="#000000" fill-rule="nonzero" fill-opacity="1" /><path clip-path="url(#clip080)" d="M1701.29 1445.77 L1711.31 1444.92 Q1712.42 1452.24 1716.46 1455.96 Q1720.54 1459.62 1726.27 1459.62 Q1733.16 1459.62 1737.94 1454.42 Q1742.71 1449.22 1742.71 1440.63 Q1742.71 1432.46 1738.1 1427.74 Q1733.54 1423.02 1726.11 1423.02 Q1721.49 1423.02 1717.78 1425.14 Q1714.07 1427.21 1711.95 1430.55 L1702.98 1429.38 L1710.51 1389.44 L1749.18 1389.44 L1749.18 1398.56 L1718.15 1398.56 L1713.96 1419.46 Q1720.96 1414.58 1728.66 1414.58 Q1738.84 1414.58 1745.84 1421.64 Q1752.84 1428.69 1752.84 1439.78 Q1752.84 1450.33 1746.69 1458.02 Q1739.21 1467.47 1726.27 1467.47 Q1715.66 1467.47 1708.92 1461.53 Q1702.24 1455.58 1701.29 1445.77 Z" fill="#000000" fill-rule="nonzero" fill-opacity="1" /><path clip-path="url(#clip080)" d="M1914.23 1445.61 L1923.77 1444.34 Q1925.42 1452.45 1929.34 1456.06 Q1933.32 1459.62 1939 1459.62 Q1945.73 1459.62 1950.35 1454.95 Q1955.02 1450.28 1955.02 1443.38 Q1955.02 1436.81 1950.72 1432.56 Q1946.42 1428.27 1939.79 1428.27 Q1937.09 1428.27 1933.06 1429.33 L1934.12 1420.95 Q1935.07 1421.05 1935.65 1421.05 Q1941.75 1421.05 1946.63 1417.87 Q1951.51 1414.69 1951.51 1408.06 Q1951.51 1402.81 1947.96 1399.36 Q1944.41 1395.91 1938.78 1395.91 Q1933.22 1395.91 1929.5 1399.41 Q1925.79 1402.91 1924.73 1409.92 L1915.18 1408.22 Q1916.93 1398.62 1923.14 1393.37 Q1929.34 1388.06 1938.57 1388.06 Q1944.94 1388.06 1950.29 1390.82 Q1955.65 1393.52 1958.46 1398.25 Q1961.33 1402.97 1961.33 1408.27 Q1961.33 1413.31 1958.62 1417.45 Q1955.92 1421.58 1950.61 1424.02 Q1957.51 1425.62 1961.33 1430.65 Q1965.15 1435.64 1965.15 1443.17 Q1965.15 1453.36 1957.72 1460.46 Q1950.29 1467.52 1938.94 1467.52 Q1928.71 1467.52 1921.92 1461.42 Q1915.18 1455.32 1914.23 1445.61 Z" fill="#000000" fill-rule="nonzero" fill-opacity="1" /><path clip-path="url(#clip080)" d="M1974.59 1427.79 Q1974.59 1414 1977.4 1405.62 Q1980.26 1397.18 1985.83 1392.62 Q1991.46 1388.06 1999.94 1388.06 Q2006.2 1388.06 2010.92 1390.61 Q2015.64 1393.1 2018.72 1397.87 Q2021.8 1402.6 2023.55 1409.44 Q2025.3 1416.23 2025.3 1427.79 Q2025.3 1441.48 2022.49 1449.91 Q2019.67 1458.29 2014.05 1462.9 Q2008.48 1467.47 1999.94 1467.47 Q1988.7 1467.47 1982.28 1459.4 Q1974.59 1449.7 1974.59 1427.79 M1984.4 1427.79 Q1984.4 1446.94 1988.86 1453.3 Q1993.36 1459.62 1999.94 1459.62 Q2006.52 1459.62 2010.98 1453.25 Q2015.48 1446.89 2015.48 1427.79 Q2015.48 1408.59 2010.98 1402.28 Q2006.52 1395.96 1999.84 1395.96 Q1993.26 1395.96 1989.33 1401.53 Q1984.4 1408.64 1984.4 1427.79 Z" fill="#000000" fill-rule="nonzero" fill-opacity="1" /><path clip-path="url(#clip080)" d="M2187.37 1445.61 L2196.92 1444.34 Q2198.56 1452.45 2202.49 1456.06 Q2206.46 1459.62 2212.14 1459.62 Q2218.88 1459.62 2223.49 1454.95 Q2228.16 1450.28 2228.16 1443.38 Q2228.16 1436.81 2223.86 1432.56 Q2219.57 1428.27 2212.94 1428.27 Q2210.23 1428.27 2206.2 1429.33 L2207.26 1420.95 Q2208.21 1421.05 2208.8 1421.05 Q2214.9 1421.05 2219.78 1417.87 Q2224.66 1414.69 2224.66 1408.06 Q2224.66 1402.81 2221.1 1399.36 Q2217.55 1395.91 2211.93 1395.91 Q2206.36 1395.91 2202.65 1399.41 Q2198.93 1402.91 2197.87 1409.92 L2188.32 1408.22 Q2190.07 1398.62 2196.28 1393.37 Q2202.49 1388.06 2211.72 1388.06 Q2218.08 1388.06 2223.44 1390.82 Q2228.8 1393.52 2231.61 1398.25 Q2234.47 1402.97 2234.47 1408.27 Q2234.47 1413.31 2231.77 1417.45 Q2229.06 1421.58 2223.76 1424.02 Q2230.65 1425.62 2234.47 1430.65 Q2238.29 1435.64 2238.29 1443.17 Q2238.29 1453.36 2230.86 1460.46 Q2223.44 1467.52 2212.09 1467.52 Q2201.85 1467.52 2195.06 1461.42 Q2188.32 1455.32 2187.37 1445.61 Z" fill="#000000" fill-rule="nonzero" fill-opacity="1" /><path clip-path="url(#clip080)" d="M2247.73 1445.77 L2257.76 1444.92 Q2258.87 1452.24 2262.9 1455.96 Q2266.99 1459.62 2272.71 1459.62 Q2279.61 1459.62 2284.38 1454.42 Q2289.16 1449.22 2289.16 1440.63 Q2289.16 1432.46 2284.54 1427.74 Q2279.98 1423.02 2272.56 1423.02 Q2267.94 1423.02 2264.23 1425.14 Q2260.51 1427.21 2258.39 1430.55 L2249.43 1429.38 L2256.96 1389.44 L2295.63 1389.44 L2295.63 1398.56 L2264.6 1398.56 L2260.41 1419.46 Q2267.41 1414.58 2275.1 1414.58 Q2285.29 1414.58 2292.29 1421.64 Q2299.29 1428.69 2299.29 1439.78 Q2299.29 1450.33 2293.14 1458.02 Q2285.66 1467.47 2272.71 1467.47 Q2262.11 1467.47 2255.37 1461.53 Q2248.69 1455.58 2247.73 1445.77 Z" fill="#000000" fill-rule="nonzero" fill-opacity="1" /><path clip-path="url(#clip080)" d="M1267.34 1577.55 L1277.21 1578.77 Q1274.88 1587.42 1268.56 1592.19 Q1262.25 1596.96 1252.44 1596.96 Q1240.08 1596.96 1232.81 1589.38 Q1225.6 1581.74 1225.6 1568 Q1225.6 1553.79 1232.92 1545.94 Q1240.24 1538.09 1251.91 1538.09 Q1263.21 1538.09 1270.37 1545.78 Q1277.53 1553.47 1277.53 1567.42 Q1277.53 1568.27 1277.48 1569.97 L1235.47 1569.97 Q1236 1579.25 1240.72 1584.18 Q1245.44 1589.11 1252.49 1589.11 Q1257.74 1589.11 1261.46 1586.36 Q1265.17 1583.6 1267.34 1577.55 M1236 1562.12 L1267.45 1562.12 Q1266.81 1555.01 1263.84 1551.45 Q1259.28 1545.94 1252.01 1545.94 Q1245.44 1545.94 1240.93 1550.34 Q1236.47 1554.74 1236 1562.12 Z" fill="#000000" fill-rule="nonzero" fill-opacity="1" /><path clip-path="url(#clip080)" d="M1289.2 1617.28 L1289.2 1539.36 L1297.9 1539.36 L1297.9 1546.68 Q1300.97 1542.38 1304.85 1540.26 Q1308.72 1538.09 1314.23 1538.09 Q1321.45 1538.09 1326.96 1541.8 Q1332.48 1545.51 1335.29 1552.3 Q1338.1 1559.04 1338.1 1567.1 Q1338.1 1575.75 1334.97 1582.7 Q1331.9 1589.59 1325.96 1593.3 Q1320.07 1596.96 1313.54 1596.96 Q1308.77 1596.96 1304.95 1594.95 Q1301.19 1592.93 1298.75 1589.86 L1298.75 1617.28 L1289.2 1617.28 M1297.84 1567.84 Q1297.84 1578.72 1302.25 1583.92 Q1306.65 1589.11 1312.91 1589.11 Q1319.27 1589.11 1323.78 1583.76 Q1328.34 1578.35 1328.34 1567.05 Q1328.34 1556.28 1323.89 1550.92 Q1319.48 1545.57 1313.33 1545.57 Q1307.23 1545.57 1302.51 1551.3 Q1297.84 1556.97 1297.84 1567.84 Z" fill="#000000" fill-rule="nonzero" fill-opacity="1" /><path clip-path="url(#clip080)" d="M1346.06 1567.53 Q1346.06 1551.88 1354.76 1544.35 Q1362.02 1538.09 1372.47 1538.09 Q1384.09 1538.09 1391.46 1545.73 Q1398.84 1553.31 1398.84 1566.73 Q1398.84 1577.6 1395.55 1583.86 Q1392.31 1590.07 1386.05 1593.52 Q1379.85 1596.96 1372.47 1596.96 Q1360.65 1596.96 1353.33 1589.38 Q1346.06 1581.79 1346.06 1567.53 M1355.87 1567.53 Q1355.87 1578.35 1360.59 1583.76 Q1365.31 1589.11 1372.47 1589.11 Q1379.58 1589.11 1384.3 1583.7 Q1389.02 1578.29 1389.02 1567.21 Q1389.02 1556.76 1384.25 1551.4 Q1379.53 1545.99 1372.47 1545.99 Q1365.31 1545.99 1360.59 1551.35 Q1355.87 1556.71 1355.87 1567.53 Z" fill="#000000" fill-rule="nonzero" fill-opacity="1" /><path clip-path="url(#clip080)" d="M1446.79 1575.06 L1456.17 1576.28 Q1454.64 1585.99 1448.27 1591.5 Q1441.96 1596.96 1432.73 1596.96 Q1421.17 1596.96 1414.11 1589.43 Q1407.11 1581.85 1407.11 1567.74 Q1407.11 1558.62 1410.13 1551.77 Q1413.16 1544.93 1419.31 1541.54 Q1425.52 1538.09 1432.78 1538.09 Q1441.96 1538.09 1447.79 1542.76 Q1453.63 1547.37 1455.27 1555.91 L1445.99 1557.34 Q1444.66 1551.67 1441.27 1548.8 Q1437.93 1545.94 1433.15 1545.94 Q1425.94 1545.94 1421.43 1551.14 Q1416.92 1556.28 1416.92 1567.47 Q1416.92 1578.82 1421.27 1583.97 Q1425.62 1589.11 1432.62 1589.11 Q1438.25 1589.11 1442.01 1585.67 Q1445.78 1582.22 1446.79 1575.06 Z" fill="#000000" fill-rule="nonzero" fill-opacity="1" /><path clip-path="url(#clip080)" d="M1464.34 1595.69 L1464.34 1517.93 L1473.89 1517.93 L1473.89 1545.83 Q1480.57 1538.09 1490.76 1538.09 Q1497.02 1538.09 1501.63 1540.58 Q1506.25 1543.02 1508.21 1547.37 Q1510.22 1551.72 1510.22 1559.99 L1510.22 1595.69 L1500.68 1595.69 L1500.68 1559.99 Q1500.68 1552.83 1497.55 1549.6 Q1494.47 1546.31 1488.8 1546.31 Q1484.55 1546.31 1480.79 1548.54 Q1477.07 1550.71 1475.48 1554.48 Q1473.89 1558.24 1473.89 1564.87 L1473.89 1595.69 L1464.34 1595.69 Z" fill="#000000" fill-rule="nonzero" fill-opacity="1" /><polyline clip-path="url(#clip080)" style="stroke:#000000; stroke-linecap:round; stroke-linejoin:round; stroke-width:4; stroke-opacity:1; fill:none" points="383.069,1349.74 383.069,47.2441 "/>
<polyline clip-path="url(#clip080)" style="stroke:#000000; stroke-linecap:round; stroke-linejoin:round; stroke-width:2; stroke-opacity:0.5; fill:none" points="2352.76,1349.74 2352.76,47.2441 "/>
<polyline clip-path="url(#clip080)" style="stroke:#000000; stroke-linecap:round; stroke-linejoin:round; stroke-width:4; stroke-opacity:1; fill:none" points="383.069,1157.2 401.966,1157.2 "/>
<polyline clip-path="url(#clip080)" style="stroke:#000000; stroke-linecap:round; stroke-linejoin:round; stroke-width:4; stroke-opacity:1; fill:none" points="383.069,889.97 401.966,889.97 "/>
<polyline clip-path="url(#clip080)" style="stroke:#000000; stroke-linecap:round; stroke-linejoin:round; stroke-width:4; stroke-opacity:1; fill:none" points="383.069,622.745 401.966,622.745 "/>
<polyline clip-path="url(#clip080)" style="stroke:#000000; stroke-linecap:round; stroke-linejoin:round; stroke-width:4; stroke-opacity:1; fill:none" points="383.069,355.519 401.966,355.519 "/>
<polyline clip-path="url(#clip080)" style="stroke:#000000; stroke-linecap:round; stroke-linejoin:round; stroke-width:4; stroke-opacity:1; fill:none" points="383.069,88.294 401.966,88.294 "/>
<path clip-path="url(#clip080)" d="M145.349 1157.73 Q145.349 1143.93 148.16 1135.55 Q151.024 1127.12 156.594 1122.56 Q162.216 1118 170.703 1118 Q176.962 1118 181.683 1120.54 Q186.404 1123.04 189.48 1127.81 Q192.556 1132.53 194.307 1139.37 Q196.057 1146.16 196.057 1157.73 Q196.057 1171.41 193.246 1179.84 Q190.435 1188.23 184.812 1192.84 Q179.243 1197.4 170.703 1197.4 Q159.458 1197.4 153.04 1189.34 Q145.349 1179.63 145.349 1157.73 M155.162 1157.73 Q155.162 1176.87 159.617 1183.24 Q164.126 1189.55 170.703 1189.55 Q177.28 1189.55 181.736 1183.19 Q186.244 1176.82 186.244 1157.73 Q186.244 1138.52 181.736 1132.21 Q177.28 1125.9 170.597 1125.9 Q164.02 1125.9 160.095 1131.47 Q155.162 1138.58 155.162 1157.73 Z" fill="#000000" fill-rule="nonzero" fill-opacity="1" /><path clip-path="url(#clip080)" d="M211.121 1196.08 L211.121 1185.2 L221.995 1185.2 L221.995 1196.08 L211.121 1196.08 Z" fill="#000000" fill-rule="nonzero" fill-opacity="1" /><path clip-path="url(#clip080)" d="M271.908 1196.08 L262.36 1196.08 L262.36 1135.24 Q258.912 1138.52 253.29 1141.81 Q247.72 1145.1 243.265 1146.75 L243.265 1137.52 Q251.274 1133.75 257.268 1128.39 Q263.262 1123.04 265.755 1118 L271.908 1118 L271.908 1196.08 Z" fill="#000000" fill-rule="nonzero" fill-opacity="1" /><path clip-path="url(#clip080)" d="M296.36 1157.73 Q296.36 1143.93 299.171 1135.55 Q302.036 1127.12 307.605 1122.56 Q313.228 1118 321.714 1118 Q327.973 1118 332.694 1120.54 Q337.415 1123.04 340.491 1127.81 Q343.568 1132.53 345.318 1139.37 Q347.069 1146.16 347.069 1157.73 Q347.069 1171.41 344.257 1179.84 Q341.446 1188.23 335.824 1192.84 Q330.254 1197.4 321.714 1197.4 Q310.469 1197.4 304.051 1189.34 Q296.36 1179.63 296.36 1157.73 M306.173 1157.73 Q306.173 1176.87 310.629 1183.24 Q315.137 1189.55 321.714 1189.55 Q328.292 1189.55 332.747 1183.19 Q337.256 1176.82 337.256 1157.73 Q337.256 1138.52 332.747 1132.21 Q328.292 1125.9 321.608 1125.9 Q315.031 1125.9 311.106 1131.47 Q306.173 1138.58 306.173 1157.73 Z" fill="#000000" fill-rule="nonzero" fill-opacity="1" /><path clip-path="url(#clip080)" d="M144.5 890.501 Q144.5 876.71 147.311 868.329 Q150.176 859.895 155.745 855.334 Q161.368 850.772 169.854 850.772 Q176.113 850.772 180.834 853.318 Q185.555 855.811 188.631 860.585 Q191.708 865.305 193.458 872.148 Q195.209 878.937 195.209 890.501 Q195.209 904.185 192.397 912.619 Q189.586 921 183.964 925.615 Q178.394 930.176 169.854 930.176 Q158.609 930.176 152.191 922.114 Q144.5 912.407 144.5 890.501 M154.313 890.501 Q154.313 909.649 158.769 916.014 Q163.277 922.326 169.854 922.326 Q176.432 922.326 180.887 915.961 Q185.396 909.596 185.396 890.501 Q185.396 871.299 180.887 864.987 Q176.432 858.675 169.748 858.675 Q163.171 858.675 159.246 864.245 Q154.313 871.352 154.313 890.501 Z" fill="#000000" fill-rule="nonzero" fill-opacity="1" /><path clip-path="url(#clip080)" d="M210.273 928.85 L210.273 917.976 L221.146 917.976 L221.146 928.85 L210.273 928.85 Z" fill="#000000" fill-rule="nonzero" fill-opacity="1" /><path clip-path="url(#clip080)" d="M271.059 928.85 L261.511 928.85 L261.511 868.011 Q258.064 871.299 252.441 874.588 Q246.872 877.877 242.416 879.521 L242.416 870.291 Q250.426 866.525 256.419 861.168 Q262.413 855.811 264.906 850.772 L271.059 850.772 L271.059 928.85 Z" fill="#000000" fill-rule="nonzero" fill-opacity="1" /><path clip-path="url(#clip080)" d="M295.512 908.482 L305.537 907.633 Q306.65 914.953 310.682 918.666 Q314.766 922.326 320.494 922.326 Q327.39 922.326 332.164 917.128 Q336.938 911.93 336.938 903.337 Q336.938 895.168 332.323 890.448 Q327.761 885.727 320.335 885.727 Q315.721 885.727 312.008 887.848 Q308.295 889.917 306.173 893.259 L297.209 892.092 L304.741 852.151 L343.409 852.151 L343.409 861.274 L312.379 861.274 L308.189 882.173 Q315.19 877.293 322.881 877.293 Q333.066 877.293 340.067 884.348 Q347.069 891.402 347.069 902.488 Q347.069 913.044 340.916 920.735 Q333.437 930.176 320.494 930.176 Q309.886 930.176 303.15 924.235 Q296.466 918.295 295.512 908.482 Z" fill="#000000" fill-rule="nonzero" fill-opacity="1" /><path clip-path="url(#clip080)" d="M145.349 623.275 Q145.349 609.484 148.16 601.104 Q151.024 592.67 156.594 588.108 Q162.216 583.547 170.703 583.547 Q176.962 583.547 181.683 586.093 Q186.404 588.586 189.48 593.359 Q192.556 598.08 194.307 604.923 Q196.057 611.712 196.057 623.275 Q196.057 636.96 193.246 645.394 Q190.435 653.775 184.812 658.389 Q179.243 662.951 170.703 662.951 Q159.458 662.951 153.04 654.888 Q145.349 645.182 145.349 623.275 M155.162 623.275 Q155.162 642.423 159.617 648.789 Q164.126 655.101 170.703 655.101 Q177.28 655.101 181.736 648.735 Q186.244 642.37 186.244 623.275 Q186.244 604.074 181.736 597.762 Q177.28 591.45 170.597 591.45 Q164.02 591.45 160.095 597.019 Q155.162 604.127 155.162 623.275 Z" fill="#000000" fill-rule="nonzero" fill-opacity="1" /><path clip-path="url(#clip080)" d="M211.121 661.625 L211.121 650.751 L221.995 650.751 L221.995 661.625 L211.121 661.625 Z" fill="#000000" fill-rule="nonzero" fill-opacity="1" /><path clip-path="url(#clip080)" d="M286.123 652.448 L286.123 661.625 L234.725 661.625 Q234.619 658.177 235.839 654.994 Q237.802 649.743 242.098 644.651 Q246.447 639.559 254.616 632.876 Q267.293 622.48 271.749 616.433 Q276.204 610.333 276.204 604.923 Q276.204 599.247 272.12 595.375 Q268.089 591.45 261.564 591.45 Q254.669 591.45 250.532 595.587 Q246.394 599.724 246.341 607.044 L236.529 606.036 Q237.536 595.057 244.114 589.328 Q250.691 583.547 261.777 583.547 Q272.969 583.547 279.493 589.752 Q286.017 595.958 286.017 605.135 Q286.017 609.802 284.107 614.311 Q282.198 618.82 277.742 623.806 Q273.34 628.792 263.05 637.491 Q254.457 644.704 252.017 647.303 Q249.577 649.849 247.986 652.448 L286.123 652.448 Z" fill="#000000" fill-rule="nonzero" fill-opacity="1" /><path clip-path="url(#clip080)" d="M296.36 623.275 Q296.36 609.484 299.171 601.104 Q302.036 592.67 307.605 588.108 Q313.228 583.547 321.714 583.547 Q327.973 583.547 332.694 586.093 Q337.415 588.586 340.491 593.359 Q343.568 598.08 345.318 604.923 Q347.069 611.712 347.069 623.275 Q347.069 636.96 344.257 645.394 Q341.446 653.775 335.824 658.389 Q330.254 662.951 321.714 662.951 Q310.469 662.951 304.051 654.888 Q296.36 645.182 296.36 623.275 M306.173 623.275 Q306.173 642.423 310.629 648.789 Q315.137 655.101 321.714 655.101 Q328.292 655.101 332.747 648.735 Q337.256 642.37 337.256 623.275 Q337.256 604.074 332.747 597.762 Q328.292 591.45 321.608 591.45 Q315.031 591.45 311.106 597.019 Q306.173 604.127 306.173 623.275 Z" fill="#000000" fill-rule="nonzero" fill-opacity="1" /><path clip-path="url(#clip080)" d="M144.5 356.05 Q144.5 342.259 147.311 333.878 Q150.176 325.444 155.745 320.883 Q161.368 316.321 169.854 316.321 Q176.113 316.321 180.834 318.867 Q185.555 321.36 188.631 326.134 Q191.708 330.855 193.458 337.697 Q195.209 344.487 195.209 356.05 Q195.209 369.735 192.397 378.168 Q189.586 386.549 183.964 391.164 Q178.394 395.725 169.854 395.725 Q158.609 395.725 152.191 387.663 Q144.5 377.956 144.5 356.05 M154.313 356.05 Q154.313 375.198 158.769 381.563 Q163.277 387.875 169.854 387.875 Q176.432 387.875 180.887 381.51 Q185.396 375.145 185.396 356.05 Q185.396 336.848 180.887 330.536 Q176.432 324.224 169.748 324.224 Q163.171 324.224 159.246 329.794 Q154.313 336.902 154.313 356.05 Z" fill="#000000" fill-rule="nonzero" fill-opacity="1" /><path clip-path="url(#clip080)" d="M210.273 394.399 L210.273 383.526 L221.146 383.526 L221.146 394.399 L210.273 394.399 Z" fill="#000000" fill-rule="nonzero" fill-opacity="1" /><path clip-path="url(#clip080)" d="M285.274 385.223 L285.274 394.399 L233.876 394.399 Q233.77 390.952 234.99 387.769 Q236.953 382.518 241.249 377.426 Q245.599 372.334 253.767 365.65 Q266.444 355.254 270.9 349.207 Q275.355 343.107 275.355 337.697 Q275.355 332.022 271.271 328.15 Q267.24 324.224 260.716 324.224 Q253.82 324.224 249.683 328.362 Q245.546 332.499 245.493 339.819 L235.68 338.811 Q236.688 327.831 243.265 322.103 Q249.842 316.321 260.928 316.321 Q272.12 316.321 278.644 322.527 Q285.168 328.733 285.168 337.909 Q285.168 342.577 283.259 347.086 Q281.349 351.594 276.894 356.58 Q272.491 361.566 262.201 370.265 Q253.608 377.479 251.168 380.078 Q248.728 382.624 247.137 385.223 L285.274 385.223 Z" fill="#000000" fill-rule="nonzero" fill-opacity="1" /><path clip-path="url(#clip080)" d="M295.512 374.031 L305.537 373.182 Q306.65 380.502 310.682 384.215 Q314.766 387.875 320.494 387.875 Q327.39 387.875 332.164 382.677 Q336.938 377.479 336.938 368.886 Q336.938 360.718 332.323 355.997 Q327.761 351.276 320.335 351.276 Q315.721 351.276 312.008 353.398 Q308.295 355.466 306.173 358.808 L297.209 357.641 L304.741 317.7 L343.409 317.7 L343.409 326.823 L312.379 326.823 L308.189 347.722 Q315.19 342.842 322.881 342.842 Q333.066 342.842 340.067 349.897 Q347.069 356.952 347.069 368.037 Q347.069 378.593 340.916 386.284 Q333.437 395.725 320.494 395.725 Q309.886 395.725 303.15 389.785 Q296.466 383.844 295.512 374.031 Z" fill="#000000" fill-rule="nonzero" fill-opacity="1" /><path clip-path="url(#clip080)" d="M145.349 88.8244 Q145.349 75.0334 148.16 66.6527 Q151.024 58.219 156.594 53.6574 Q162.216 49.0957 170.703 49.0957 Q176.962 49.0957 181.683 51.6418 Q186.404 54.1347 189.48 58.9085 Q192.556 63.6293 194.307 70.4718 Q196.057 77.2612 196.057 88.8244 Q196.057 102.509 193.246 110.943 Q190.435 119.324 184.812 123.938 Q179.243 128.5 170.703 128.5 Q159.458 128.5 153.04 120.438 Q145.349 110.731 145.349 88.8244 M155.162 88.8244 Q155.162 107.973 159.617 114.338 Q164.126 120.65 170.703 120.65 Q177.28 120.65 181.736 114.285 Q186.244 107.92 186.244 88.8244 Q186.244 69.6231 181.736 63.3111 Q177.28 56.999 170.597 56.999 Q164.02 56.999 160.095 62.5685 Q155.162 69.6761 155.162 88.8244 Z" fill="#000000" fill-rule="nonzero" fill-opacity="1" /><path clip-path="url(#clip080)" d="M211.121 127.174 L211.121 116.3 L221.995 116.3 L221.995 127.174 L211.121 127.174 Z" fill="#000000" fill-rule="nonzero" fill-opacity="1" /><path clip-path="url(#clip080)" d="M235.998 106.647 L245.546 105.374 Q247.19 113.489 251.115 117.096 Q255.093 120.65 260.769 120.65 Q267.505 120.65 272.12 115.982 Q276.788 111.314 276.788 104.419 Q276.788 97.8416 272.491 93.5982 Q268.195 89.3018 261.564 89.3018 Q258.859 89.3018 254.828 90.3626 L255.889 81.9819 Q256.844 82.088 257.427 82.088 Q263.527 82.088 268.407 78.9055 Q273.287 75.723 273.287 69.0927 Q273.287 63.8415 269.733 60.3937 Q266.179 56.946 260.557 56.946 Q254.987 56.946 251.274 60.4468 Q247.561 63.9476 246.5 70.9491 L236.953 69.2518 Q238.703 59.6511 244.909 54.4 Q251.115 49.0957 260.345 49.0957 Q266.71 49.0957 272.067 51.8539 Q277.424 54.5591 280.235 59.2798 Q283.1 64.0006 283.1 69.3048 Q283.1 74.3439 280.395 78.4812 Q277.689 82.6184 272.385 85.0584 Q279.281 86.6497 283.1 91.6887 Q286.919 96.6747 286.919 104.207 Q286.919 114.391 279.493 121.498 Q272.067 128.553 260.716 128.553 Q250.479 128.553 243.689 122.453 Q236.953 116.353 235.998 106.647 Z" fill="#000000" fill-rule="nonzero" fill-opacity="1" /><path clip-path="url(#clip080)" d="M296.36 88.8244 Q296.36 75.0334 299.171 66.6527 Q302.036 58.219 307.605 53.6574 Q313.228 49.0957 321.714 49.0957 Q327.973 49.0957 332.694 51.6418 Q337.415 54.1347 340.491 58.9085 Q343.568 63.6293 345.318 70.4718 Q347.069 77.2612 347.069 88.8244 Q347.069 102.509 344.257 110.943 Q341.446 119.324 335.824 123.938 Q330.254 128.5 321.714 128.5 Q310.469 128.5 304.051 120.438 Q296.36 110.731 296.36 88.8244 M306.173 88.8244 Q306.173 107.973 310.629 114.338 Q315.137 120.65 321.714 120.65 Q328.292 120.65 332.747 114.285 Q337.256 107.92 337.256 88.8244 Q337.256 69.6231 332.747 63.3111 Q328.292 56.999 321.608 56.999 Q315.031 56.999 311.106 62.5685 Q306.173 69.6761 306.173 88.8244 Z" fill="#000000" fill-rule="nonzero" fill-opacity="1" /><path clip-path="url(#clip080)" d="M85.1722 789.513 L7.41216 789.513 L7.41216 779.965 L85.1722 779.965 L85.1722 789.513 Z" fill="#000000" fill-rule="nonzero" fill-opacity="1" /><path clip-path="url(#clip080)" d="M57.0067 768.72 Q41.3592 768.72 33.8272 760.021 Q27.5682 752.754 27.5682 742.305 Q27.5682 730.689 35.2063 723.316 Q42.7914 715.943 56.2111 715.943 Q67.0847 715.943 73.3437 719.232 Q79.5497 722.467 82.9974 728.726 Q86.4452 734.932 86.4452 742.305 Q86.4452 754.133 78.8601 761.453 Q71.2751 768.72 57.0067 768.72 M57.0067 758.907 Q67.8273 758.907 73.2376 754.186 Q78.5949 749.466 78.5949 742.305 Q78.5949 735.197 73.1846 730.476 Q67.7743 725.756 56.6884 725.756 Q46.2391 725.756 40.8818 730.53 Q35.4715 735.25 35.4715 742.305 Q35.4715 749.466 40.8288 754.186 Q46.1861 758.907 57.0067 758.907 Z" fill="#000000" fill-rule="nonzero" fill-opacity="1" /><path clip-path="url(#clip080)" d="M68.3578 708.57 L66.8726 699.128 Q72.5481 698.333 75.5715 694.726 Q78.5949 691.066 78.5949 684.542 Q78.5949 677.965 75.9428 674.782 Q73.2376 671.6 69.6308 671.6 Q66.3952 671.6 64.5387 674.411 Q63.2657 676.373 61.3031 684.171 Q58.651 694.673 56.7415 698.757 Q54.7789 702.788 51.3842 704.91 Q47.9365 706.979 43.7992 706.979 Q40.0332 706.979 36.8506 705.281 Q33.615 703.531 31.4934 700.561 Q29.849 698.333 28.7352 694.514 Q27.5682 690.642 27.5682 686.239 Q27.5682 679.609 29.4778 674.623 Q31.3873 669.584 34.6759 667.197 Q37.9115 664.81 43.3748 663.908 L44.6478 673.244 Q40.2984 673.88 37.8584 676.957 Q35.4185 679.98 35.4185 685.55 Q35.4185 692.127 37.5932 694.938 Q39.768 697.749 42.6853 697.749 Q44.5418 697.749 46.0269 696.582 Q47.5652 695.416 48.573 692.923 Q49.1034 691.49 51.0129 684.489 Q53.7181 674.358 55.4685 670.38 Q57.1658 666.348 60.4544 664.068 Q63.7431 661.787 68.623 661.787 Q73.3968 661.787 77.6402 664.598 Q81.8305 667.356 84.1644 672.607 Q86.4452 677.859 86.4452 684.489 Q86.4452 695.469 81.8835 701.25 Q77.3219 706.979 68.3578 708.57 Z" fill="#000000" fill-rule="nonzero" fill-opacity="1" /><path clip-path="url(#clip080)" d="M68.3578 654.255 L66.8726 644.813 Q72.5481 644.018 75.5715 640.411 Q78.5949 636.751 78.5949 630.227 Q78.5949 623.649 75.9428 620.467 Q73.2376 617.284 69.6308 617.284 Q66.3952 617.284 64.5387 620.095 Q63.2657 622.058 61.3031 629.855 Q58.651 640.358 56.7415 644.442 Q54.7789 648.473 51.3842 650.595 Q47.9365 652.663 43.7992 652.663 Q40.0332 652.663 36.8506 650.966 Q33.615 649.216 31.4934 646.245 Q29.849 644.018 28.7352 640.198 Q27.5682 636.326 27.5682 631.924 Q27.5682 625.294 29.4778 620.308 Q31.3873 615.269 34.6759 612.882 Q37.9115 610.495 43.3748 609.593 L44.6478 618.929 Q40.2984 619.565 37.8584 622.641 Q35.4185 625.665 35.4185 631.234 Q35.4185 637.812 37.5932 640.623 Q39.768 643.434 42.6853 643.434 Q44.5418 643.434 46.0269 642.267 Q47.5652 641.1 48.573 638.607 Q49.1034 637.175 51.0129 630.173 Q53.7181 620.042 55.4685 616.064 Q57.1658 612.033 60.4544 609.752 Q63.7431 607.471 68.623 607.471 Q73.3968 607.471 77.6402 610.283 Q81.8305 613.041 84.1644 618.292 Q86.4452 623.543 86.4452 630.173 Q86.4452 641.153 81.8835 646.935 Q77.3219 652.663 68.3578 654.255 Z" fill="#000000" fill-rule="nonzero" fill-opacity="1" /><polyline clip-path="url(#clip082)" style="stroke:#009af9; stroke-linecap:round; stroke-linejoin:round; stroke-width:8; stroke-opacity:1; fill:none" points="383.069,47.2441 437.782,204.965 492.496,392.495 547.209,570.722 601.923,690.831 656.636,766.84 711.35,817.603 766.063,854.59 820.777,883.073 875.49,906.627 930.204,926.896 984.918,946.003 1039.63,964.9 1094.34,984.113 1149.06,1006.63 1203.77,1031.72 1258.49,1060.58 1313.2,1092.63 1367.91,1126.91 1422.63,1161.55 1477.34,1194.78 1532.05,1224.92 1586.77,1250.89 1641.48,1272.6 1696.19,1290.21 1750.91,1303.84 1805.62,1314.62 1860.33,1322.9 1915.05,1329.26 1969.76,1334.23 2024.47,1338.05 2079.19,1341.06 2133.9,1343.47 2188.62,1345.49 2243.33,1347.07 2298.04,1348.47 2352.76,1349.74 "/>
<circle clip-path="url(#clip082)" cx="383.069" cy="47.2441" r="3.6" fill="#009af9" fill-rule="evenodd" fill-opacity="1" stroke="#000000" stroke-opacity="1" stroke-width="3.2"/>
<circle clip-path="url(#clip082)" cx="437.782" cy="204.965" r="3.6" fill="#009af9" fill-rule="evenodd" fill-opacity="1" stroke="#000000" stroke-opacity="1" stroke-width="3.2"/>
<circle clip-path="url(#clip082)" cx="492.496" cy="392.495" r="3.6" fill="#009af9" fill-rule="evenodd" fill-opacity="1" stroke="#000000" stroke-opacity="1" stroke-width="3.2"/>
<circle clip-path="url(#clip082)" cx="547.209" cy="570.722" r="3.6" fill="#009af9" fill-rule="evenodd" fill-opacity="1" stroke="#000000" stroke-opacity="1" stroke-width="3.2"/>
<circle clip-path="url(#clip082)" cx="601.923" cy="690.831" r="3.6" fill="#009af9" fill-rule="evenodd" fill-opacity="1" stroke="#000000" stroke-opacity="1" stroke-width="3.2"/>
<circle clip-path="url(#clip082)" cx="656.636" cy="766.84" r="3.6" fill="#009af9" fill-rule="evenodd" fill-opacity="1" stroke="#000000" stroke-opacity="1" stroke-width="3.2"/>
<circle clip-path="url(#clip082)" cx="711.35" cy="817.603" r="3.6" fill="#009af9" fill-rule="evenodd" fill-opacity="1" stroke="#000000" stroke-opacity="1" stroke-width="3.2"/>
<circle clip-path="url(#clip082)" cx="766.063" cy="854.59" r="3.6" fill="#009af9" fill-rule="evenodd" fill-opacity="1" stroke="#000000" stroke-opacity="1" stroke-width="3.2"/>
<circle clip-path="url(#clip082)" cx="820.777" cy="883.073" r="3.6" fill="#009af9" fill-rule="evenodd" fill-opacity="1" stroke="#000000" stroke-opacity="1" stroke-width="3.2"/>
<circle clip-path="url(#clip082)" cx="875.49" cy="906.627" r="3.6" fill="#009af9" fill-rule="evenodd" fill-opacity="1" stroke="#000000" stroke-opacity="1" stroke-width="3.2"/>
<circle clip-path="url(#clip082)" cx="930.204" cy="926.896" r="3.6" fill="#009af9" fill-rule="evenodd" fill-opacity="1" stroke="#000000" stroke-opacity="1" stroke-width="3.2"/>
<circle clip-path="url(#clip082)" cx="984.918" cy="946.003" r="3.6" fill="#009af9" fill-rule="evenodd" fill-opacity="1" stroke="#000000" stroke-opacity="1" stroke-width="3.2"/>
<circle clip-path="url(#clip082)" cx="1039.63" cy="964.9" r="3.6" fill="#009af9" fill-rule="evenodd" fill-opacity="1" stroke="#000000" stroke-opacity="1" stroke-width="3.2"/>
<circle clip-path="url(#clip082)" cx="1094.34" cy="984.113" r="3.6" fill="#009af9" fill-rule="evenodd" fill-opacity="1" stroke="#000000" stroke-opacity="1" stroke-width="3.2"/>
<circle clip-path="url(#clip082)" cx="1149.06" cy="1006.63" r="3.6" fill="#009af9" fill-rule="evenodd" fill-opacity="1" stroke="#000000" stroke-opacity="1" stroke-width="3.2"/>
<circle clip-path="url(#clip082)" cx="1203.77" cy="1031.72" r="3.6" fill="#009af9" fill-rule="evenodd" fill-opacity="1" stroke="#000000" stroke-opacity="1" stroke-width="3.2"/>
<circle clip-path="url(#clip082)" cx="1258.49" cy="1060.58" r="3.6" fill="#009af9" fill-rule="evenodd" fill-opacity="1" stroke="#000000" stroke-opacity="1" stroke-width="3.2"/>
<circle clip-path="url(#clip082)" cx="1313.2" cy="1092.63" r="3.6" fill="#009af9" fill-rule="evenodd" fill-opacity="1" stroke="#000000" stroke-opacity="1" stroke-width="3.2"/>
<circle clip-path="url(#clip082)" cx="1367.91" cy="1126.91" r="3.6" fill="#009af9" fill-rule="evenodd" fill-opacity="1" stroke="#000000" stroke-opacity="1" stroke-width="3.2"/>
<circle clip-path="url(#clip082)" cx="1422.63" cy="1161.55" r="3.6" fill="#009af9" fill-rule="evenodd" fill-opacity="1" stroke="#000000" stroke-opacity="1" stroke-width="3.2"/>
<circle clip-path="url(#clip082)" cx="1477.34" cy="1194.78" r="3.6" fill="#009af9" fill-rule="evenodd" fill-opacity="1" stroke="#000000" stroke-opacity="1" stroke-width="3.2"/>
<circle clip-path="url(#clip082)" cx="1532.05" cy="1224.92" r="3.6" fill="#009af9" fill-rule="evenodd" fill-opacity="1" stroke="#000000" stroke-opacity="1" stroke-width="3.2"/>
<circle clip-path="url(#clip082)" cx="1586.77" cy="1250.89" r="3.6" fill="#009af9" fill-rule="evenodd" fill-opacity="1" stroke="#000000" stroke-opacity="1" stroke-width="3.2"/>
<circle clip-path="url(#clip082)" cx="1641.48" cy="1272.6" r="3.6" fill="#009af9" fill-rule="evenodd" fill-opacity="1" stroke="#000000" stroke-opacity="1" stroke-width="3.2"/>
<circle clip-path="url(#clip082)" cx="1696.19" cy="1290.21" r="3.6" fill="#009af9" fill-rule="evenodd" fill-opacity="1" stroke="#000000" stroke-opacity="1" stroke-width="3.2"/>
<circle clip-path="url(#clip082)" cx="1750.91" cy="1303.84" r="3.6" fill="#009af9" fill-rule="evenodd" fill-opacity="1" stroke="#000000" stroke-opacity="1" stroke-width="3.2"/>
<circle clip-path="url(#clip082)" cx="1805.62" cy="1314.62" r="3.6" fill="#009af9" fill-rule="evenodd" fill-opacity="1" stroke="#000000" stroke-opacity="1" stroke-width="3.2"/>
<circle clip-path="url(#clip082)" cx="1860.33" cy="1322.9" r="3.6" fill="#009af9" fill-rule="evenodd" fill-opacity="1" stroke="#000000" stroke-opacity="1" stroke-width="3.2"/>
<circle clip-path="url(#clip082)" cx="1915.05" cy="1329.26" r="3.6" fill="#009af9" fill-rule="evenodd" fill-opacity="1" stroke="#000000" stroke-opacity="1" stroke-width="3.2"/>
<circle clip-path="url(#clip082)" cx="1969.76" cy="1334.23" r="3.6" fill="#009af9" fill-rule="evenodd" fill-opacity="1" stroke="#000000" stroke-opacity="1" stroke-width="3.2"/>
<circle clip-path="url(#clip082)" cx="2024.47" cy="1338.05" r="3.6" fill="#009af9" fill-rule="evenodd" fill-opacity="1" stroke="#000000" stroke-opacity="1" stroke-width="3.2"/>
<circle clip-path="url(#clip082)" cx="2079.19" cy="1341.06" r="3.6" fill="#009af9" fill-rule="evenodd" fill-opacity="1" stroke="#000000" stroke-opacity="1" stroke-width="3.2"/>
<circle clip-path="url(#clip082)" cx="2133.9" cy="1343.47" r="3.6" fill="#009af9" fill-rule="evenodd" fill-opacity="1" stroke="#000000" stroke-opacity="1" stroke-width="3.2"/>
<circle clip-path="url(#clip082)" cx="2188.62" cy="1345.49" r="3.6" fill="#009af9" fill-rule="evenodd" fill-opacity="1" stroke="#000000" stroke-opacity="1" stroke-width="3.2"/>
<circle clip-path="url(#clip082)" cx="2243.33" cy="1347.07" r="3.6" fill="#009af9" fill-rule="evenodd" fill-opacity="1" stroke="#000000" stroke-opacity="1" stroke-width="3.2"/>
<circle clip-path="url(#clip082)" cx="2298.04" cy="1348.47" r="3.6" fill="#009af9" fill-rule="evenodd" fill-opacity="1" stroke="#000000" stroke-opacity="1" stroke-width="3.2"/>
<circle clip-path="url(#clip082)" cx="2352.76" cy="1349.74" r="3.6" fill="#009af9" fill-rule="evenodd" fill-opacity="1" stroke="#000000" stroke-opacity="1" stroke-width="3.2"/>
<polyline clip-path="url(#clip082)" style="stroke:#e26f46; stroke-linecap:round; stroke-linejoin:round; stroke-width:8; stroke-opacity:1; fill:none" points="383.069,362.528 437.782,483.022 492.496,619.859 547.209,734.134 601.923,814.982 656.636,870.457 711.35,910.029 766.063,939.8 820.777,963.94 875.49,984.49 930.204,1002.55 984.918,1020.21 1039.63,1036.36 1094.34,1055.59 1149.06,1076.69 1203.77,1100.22 1258.49,1125.19 1313.2,1152.8 1367.91,1180.39 1422.63,1206.67 1477.34,1230.55 1532.05,1250.26 1586.77,1266.13 1641.48,1278.2 1696.19,1287.36 1750.91,1292.41 1805.62,1297.25 1860.33,1300.2 1915.05,1302.11 1969.76,1303.34 2024.47,1303.82 2079.19,1302.59 2133.9,1302.39 2188.62,1302.03 2243.33,1301.68 2298.04,1301.26 2352.76,1300.93 "/>
<circle clip-path="url(#clip082)" cx="383.069" cy="362.528" r="3.6" fill="#e26f46" fill-rule="evenodd" fill-opacity="1" stroke="#000000" stroke-opacity="1" stroke-width="3.2"/>
<circle clip-path="url(#clip082)" cx="437.782" cy="483.022" r="3.6" fill="#e26f46" fill-rule="evenodd" fill-opacity="1" stroke="#000000" stroke-opacity="1" stroke-width="3.2"/>
<circle clip-path="url(#clip082)" cx="492.496" cy="619.859" r="3.6" fill="#e26f46" fill-rule="evenodd" fill-opacity="1" stroke="#000000" stroke-opacity="1" stroke-width="3.2"/>
<circle clip-path="url(#clip082)" cx="547.209" cy="734.134" r="3.6" fill="#e26f46" fill-rule="evenodd" fill-opacity="1" stroke="#000000" stroke-opacity="1" stroke-width="3.2"/>
<circle clip-path="url(#clip082)" cx="601.923" cy="814.982" r="3.6" fill="#e26f46" fill-rule="evenodd" fill-opacity="1" stroke="#000000" stroke-opacity="1" stroke-width="3.2"/>
<circle clip-path="url(#clip082)" cx="656.636" cy="870.457" r="3.6" fill="#e26f46" fill-rule="evenodd" fill-opacity="1" stroke="#000000" stroke-opacity="1" stroke-width="3.2"/>
<circle clip-path="url(#clip082)" cx="711.35" cy="910.029" r="3.6" fill="#e26f46" fill-rule="evenodd" fill-opacity="1" stroke="#000000" stroke-opacity="1" stroke-width="3.2"/>
<circle clip-path="url(#clip082)" cx="766.063" cy="939.8" r="3.6" fill="#e26f46" fill-rule="evenodd" fill-opacity="1" stroke="#000000" stroke-opacity="1" stroke-width="3.2"/>
<circle clip-path="url(#clip082)" cx="820.777" cy="963.94" r="3.6" fill="#e26f46" fill-rule="evenodd" fill-opacity="1" stroke="#000000" stroke-opacity="1" stroke-width="3.2"/>
<circle clip-path="url(#clip082)" cx="875.49" cy="984.49" r="3.6" fill="#e26f46" fill-rule="evenodd" fill-opacity="1" stroke="#000000" stroke-opacity="1" stroke-width="3.2"/>
<circle clip-path="url(#clip082)" cx="930.204" cy="1002.55" r="3.6" fill="#e26f46" fill-rule="evenodd" fill-opacity="1" stroke="#000000" stroke-opacity="1" stroke-width="3.2"/>
<circle clip-path="url(#clip082)" cx="984.918" cy="1020.21" r="3.6" fill="#e26f46" fill-rule="evenodd" fill-opacity="1" stroke="#000000" stroke-opacity="1" stroke-width="3.2"/>
<circle clip-path="url(#clip082)" cx="1039.63" cy="1036.36" r="3.6" fill="#e26f46" fill-rule="evenodd" fill-opacity="1" stroke="#000000" stroke-opacity="1" stroke-width="3.2"/>
<circle clip-path="url(#clip082)" cx="1094.34" cy="1055.59" r="3.6" fill="#e26f46" fill-rule="evenodd" fill-opacity="1" stroke="#000000" stroke-opacity="1" stroke-width="3.2"/>
<circle clip-path="url(#clip082)" cx="1149.06" cy="1076.69" r="3.6" fill="#e26f46" fill-rule="evenodd" fill-opacity="1" stroke="#000000" stroke-opacity="1" stroke-width="3.2"/>
<circle clip-path="url(#clip082)" cx="1203.77" cy="1100.22" r="3.6" fill="#e26f46" fill-rule="evenodd" fill-opacity="1" stroke="#000000" stroke-opacity="1" stroke-width="3.2"/>
<circle clip-path="url(#clip082)" cx="1258.49" cy="1125.19" r="3.6" fill="#e26f46" fill-rule="evenodd" fill-opacity="1" stroke="#000000" stroke-opacity="1" stroke-width="3.2"/>
<circle clip-path="url(#clip082)" cx="1313.2" cy="1152.8" r="3.6" fill="#e26f46" fill-rule="evenodd" fill-opacity="1" stroke="#000000" stroke-opacity="1" stroke-width="3.2"/>
<circle clip-path="url(#clip082)" cx="1367.91" cy="1180.39" r="3.6" fill="#e26f46" fill-rule="evenodd" fill-opacity="1" stroke="#000000" stroke-opacity="1" stroke-width="3.2"/>
<circle clip-path="url(#clip082)" cx="1422.63" cy="1206.67" r="3.6" fill="#e26f46" fill-rule="evenodd" fill-opacity="1" stroke="#000000" stroke-opacity="1" stroke-width="3.2"/>
<circle clip-path="url(#clip082)" cx="1477.34" cy="1230.55" r="3.6" fill="#e26f46" fill-rule="evenodd" fill-opacity="1" stroke="#000000" stroke-opacity="1" stroke-width="3.2"/>
<circle clip-path="url(#clip082)" cx="1532.05" cy="1250.26" r="3.6" fill="#e26f46" fill-rule="evenodd" fill-opacity="1" stroke="#000000" stroke-opacity="1" stroke-width="3.2"/>
<circle clip-path="url(#clip082)" cx="1586.77" cy="1266.13" r="3.6" fill="#e26f46" fill-rule="evenodd" fill-opacity="1" stroke="#000000" stroke-opacity="1" stroke-width="3.2"/>
<circle clip-path="url(#clip082)" cx="1641.48" cy="1278.2" r="3.6" fill="#e26f46" fill-rule="evenodd" fill-opacity="1" stroke="#000000" stroke-opacity="1" stroke-width="3.2"/>
<circle clip-path="url(#clip082)" cx="1696.19" cy="1287.36" r="3.6" fill="#e26f46" fill-rule="evenodd" fill-opacity="1" stroke="#000000" stroke-opacity="1" stroke-width="3.2"/>
<circle clip-path="url(#clip082)" cx="1750.91" cy="1292.41" r="3.6" fill="#e26f46" fill-rule="evenodd" fill-opacity="1" stroke="#000000" stroke-opacity="1" stroke-width="3.2"/>
<circle clip-path="url(#clip082)" cx="1805.62" cy="1297.25" r="3.6" fill="#e26f46" fill-rule="evenodd" fill-opacity="1" stroke="#000000" stroke-opacity="1" stroke-width="3.2"/>
<circle clip-path="url(#clip082)" cx="1860.33" cy="1300.2" r="3.6" fill="#e26f46" fill-rule="evenodd" fill-opacity="1" stroke="#000000" stroke-opacity="1" stroke-width="3.2"/>
<circle clip-path="url(#clip082)" cx="1915.05" cy="1302.11" r="3.6" fill="#e26f46" fill-rule="evenodd" fill-opacity="1" stroke="#000000" stroke-opacity="1" stroke-width="3.2"/>
<circle clip-path="url(#clip082)" cx="1969.76" cy="1303.34" r="3.6" fill="#e26f46" fill-rule="evenodd" fill-opacity="1" stroke="#000000" stroke-opacity="1" stroke-width="3.2"/>
<circle clip-path="url(#clip082)" cx="2024.47" cy="1303.82" r="3.6" fill="#e26f46" fill-rule="evenodd" fill-opacity="1" stroke="#000000" stroke-opacity="1" stroke-width="3.2"/>
<circle clip-path="url(#clip082)" cx="2079.19" cy="1302.59" r="3.6" fill="#e26f46" fill-rule="evenodd" fill-opacity="1" stroke="#000000" stroke-opacity="1" stroke-width="3.2"/>
<circle clip-path="url(#clip082)" cx="2133.9" cy="1302.39" r="3.6" fill="#e26f46" fill-rule="evenodd" fill-opacity="1" stroke="#000000" stroke-opacity="1" stroke-width="3.2"/>
<circle clip-path="url(#clip082)" cx="2188.62" cy="1302.03" r="3.6" fill="#e26f46" fill-rule="evenodd" fill-opacity="1" stroke="#000000" stroke-opacity="1" stroke-width="3.2"/>
<circle clip-path="url(#clip082)" cx="2243.33" cy="1301.68" r="3.6" fill="#e26f46" fill-rule="evenodd" fill-opacity="1" stroke="#000000" stroke-opacity="1" stroke-width="3.2"/>
<circle clip-path="url(#clip082)" cx="2298.04" cy="1301.26" r="3.6" fill="#e26f46" fill-rule="evenodd" fill-opacity="1" stroke="#000000" stroke-opacity="1" stroke-width="3.2"/>
<circle clip-path="url(#clip082)" cx="2352.76" cy="1300.93" r="3.6" fill="#e26f46" fill-rule="evenodd" fill-opacity="1" stroke="#000000" stroke-opacity="1" stroke-width="3.2"/>
<path clip-path="url(#clip080)" d="M1631.32 440.581 L2287.1 440.581 L2287.1 90.6606 L1631.32 90.6606  Z" fill="#ffffff" fill-rule="evenodd" fill-opacity="1"/>
<polyline clip-path="url(#clip080)" style="stroke:#000000; stroke-linecap:round; stroke-linejoin:round; stroke-width:4; stroke-opacity:1; fill:none" points="1631.32,440.581 2287.1,440.581 2287.1,90.6606 1631.32,90.6606 1631.32,440.581 "/>
<polyline clip-path="url(#clip080)" style="stroke:#009af9; stroke-linecap:round; stroke-linejoin:round; stroke-width:18; stroke-opacity:1; fill:none" points="1653.2,207.301 1784.51,207.301 "/>
<circle clip-path="url(#clip080)" cx="1718.86" cy="207.301" r="8.10571" fill="#009af9" fill-rule="evenodd" fill-opacity="1" stroke="#000000" stroke-opacity="1" stroke-width="7.20507"/>
<path clip-path="url(#clip080)" d="M1832.5 237.641 L1833.87 246.075 Q1829.84 246.923 1826.66 246.923 Q1821.46 246.923 1818.6 245.279 Q1815.73 243.635 1814.57 240.982 Q1813.4 238.277 1813.4 229.684 L1813.4 197.276 L1806.4 197.276 L1806.4 189.85 L1813.4 189.85 L1813.4 175.9 L1822.89 170.171 L1822.89 189.85 L1832.5 189.85 L1832.5 197.276 L1822.89 197.276 L1822.89 230.215 Q1822.89 234.299 1823.37 235.466 Q1823.9 236.633 1825.02 237.323 Q1826.18 238.012 1828.3 238.012 Q1829.9 238.012 1832.5 237.641 Z" fill="#000000" fill-rule="nonzero" fill-opacity="1" /><path clip-path="url(#clip080)" d="M1841.72 246.181 L1841.72 189.85 L1850.32 189.85 L1850.32 198.39 Q1853.61 192.396 1856.36 190.486 Q1859.18 188.577 1862.52 188.577 Q1867.34 188.577 1872.33 191.653 L1869.04 200.511 Q1865.54 198.443 1862.04 198.443 Q1858.91 198.443 1856.42 200.352 Q1853.92 202.209 1852.86 205.55 Q1851.27 210.642 1851.27 216.689 L1851.27 246.181 L1841.72 246.181 Z" fill="#000000" fill-rule="nonzero" fill-opacity="1" /><path clip-path="url(#clip080)" d="M1914.76 239.232 Q1909.46 243.741 1904.53 245.597 Q1899.65 247.454 1894.02 247.454 Q1884.74 247.454 1879.76 242.945 Q1874.77 238.383 1874.77 231.329 Q1874.77 227.191 1876.63 223.797 Q1878.54 220.349 1881.56 218.28 Q1884.64 216.212 1888.45 215.151 Q1891.27 214.408 1896.94 213.719 Q1908.5 212.34 1913.97 210.43 Q1914.02 208.468 1914.02 207.937 Q1914.02 202.102 1911.32 199.716 Q1907.66 196.48 1900.44 196.48 Q1893.71 196.48 1890.47 198.867 Q1887.29 201.201 1885.75 207.195 L1876.41 205.922 Q1877.69 199.928 1880.6 196.268 Q1883.52 192.555 1889.04 190.592 Q1894.55 188.577 1901.82 188.577 Q1909.04 188.577 1913.54 190.274 Q1918.05 191.971 1920.17 194.57 Q1922.3 197.116 1923.14 201.042 Q1923.62 203.482 1923.62 209.847 L1923.62 222.577 Q1923.62 235.89 1924.21 239.444 Q1924.84 242.945 1926.65 246.181 L1916.67 246.181 Q1915.19 243.21 1914.76 239.232 M1913.97 217.909 Q1908.77 220.031 1898.37 221.516 Q1892.49 222.365 1890.05 223.425 Q1887.61 224.486 1886.28 226.555 Q1884.95 228.571 1884.95 231.064 Q1884.95 234.883 1887.82 237.429 Q1890.74 239.975 1896.31 239.975 Q1901.82 239.975 1906.12 237.588 Q1910.41 235.148 1912.43 230.957 Q1913.97 227.722 1913.97 221.41 L1913.97 217.909 Z" fill="#000000" fill-rule="nonzero" fill-opacity="1" /><path clip-path="url(#clip080)" d="M1938.47 179.4 L1938.47 168.421 L1948.02 168.421 L1948.02 179.4 L1938.47 179.4 M1938.47 246.181 L1938.47 189.85 L1948.02 189.85 L1948.02 246.181 L1938.47 246.181 Z" fill="#000000" fill-rule="nonzero" fill-opacity="1" /><path clip-path="url(#clip080)" d="M1962.55 246.181 L1962.55 189.85 L1971.15 189.85 L1971.15 197.859 Q1977.35 188.577 1989.08 188.577 Q1994.17 188.577 1998.41 190.433 Q2002.71 192.237 2004.83 195.207 Q2006.95 198.177 2007.8 202.262 Q2008.33 204.914 2008.33 211.544 L2008.33 246.181 L1998.78 246.181 L1998.78 211.915 Q1998.78 206.081 1997.67 203.216 Q1996.56 200.299 1993.69 198.602 Q1990.88 196.851 1987.06 196.851 Q1980.96 196.851 1976.51 200.723 Q1972.1 204.595 1972.1 215.416 L1972.1 246.181 L1962.55 246.181 Z" fill="#000000" fill-rule="nonzero" fill-opacity="1" /><path clip-path="url(#clip080)" d="M2014.17 267.769 L2014.17 260.873 L2077.44 260.873 L2077.44 267.769 L2014.17 267.769 Z" fill="#000000" fill-rule="nonzero" fill-opacity="1" /><path clip-path="url(#clip080)" d="M2083.17 246.181 L2083.17 168.421 L2092.72 168.421 L2092.72 246.181 L2083.17 246.181 Z" fill="#000000" fill-rule="nonzero" fill-opacity="1" /><path clip-path="url(#clip080)" d="M2103.97 218.015 Q2103.97 202.368 2112.66 194.836 Q2119.93 188.577 2130.38 188.577 Q2142 188.577 2149.37 196.215 Q2156.74 203.8 2156.74 217.22 Q2156.74 228.093 2153.45 234.352 Q2150.22 240.558 2143.96 244.006 Q2137.75 247.454 2130.38 247.454 Q2118.55 247.454 2111.23 239.869 Q2103.97 232.284 2103.97 218.015 M2113.78 218.015 Q2113.78 228.836 2118.5 234.246 Q2123.22 239.603 2130.38 239.603 Q2137.49 239.603 2142.21 234.193 Q2146.93 228.783 2146.93 217.697 Q2146.93 207.248 2142.16 201.89 Q2137.44 196.48 2130.38 196.48 Q2123.22 196.48 2118.5 201.837 Q2113.78 207.195 2113.78 218.015 Z" fill="#000000" fill-rule="nonzero" fill-opacity="1" /><path clip-path="url(#clip080)" d="M2164.12 229.366 L2173.56 227.881 Q2174.35 233.557 2177.96 236.58 Q2181.62 239.603 2188.14 239.603 Q2194.72 239.603 2197.9 236.951 Q2201.09 234.246 2201.09 230.639 Q2201.09 227.404 2198.27 225.547 Q2196.31 224.274 2188.52 222.312 Q2178.01 219.659 2173.93 217.75 Q2169.9 215.787 2167.78 212.393 Q2165.71 208.945 2165.71 204.808 Q2165.71 201.042 2167.4 197.859 Q2169.15 194.624 2172.13 192.502 Q2174.35 190.858 2178.17 189.744 Q2182.04 188.577 2186.45 188.577 Q2193.08 188.577 2198.06 190.486 Q2203.1 192.396 2205.49 195.684 Q2207.88 198.92 2208.78 204.383 L2199.44 205.656 Q2198.81 201.307 2195.73 198.867 Q2192.71 196.427 2187.14 196.427 Q2180.56 196.427 2177.75 198.602 Q2174.94 200.776 2174.94 203.694 Q2174.94 205.55 2176.1 207.035 Q2177.27 208.574 2179.76 209.581 Q2181.2 210.112 2188.2 212.021 Q2198.33 214.727 2202.31 216.477 Q2206.34 218.174 2208.62 221.463 Q2210.9 224.752 2210.9 229.631 Q2210.9 234.405 2208.09 238.649 Q2205.33 242.839 2200.08 245.173 Q2194.83 247.454 2188.2 247.454 Q2177.22 247.454 2171.44 242.892 Q2165.71 238.33 2164.12 229.366 Z" fill="#000000" fill-rule="nonzero" fill-opacity="1" /><path clip-path="url(#clip080)" d="M2218.43 229.366 L2227.87 227.881 Q2228.67 233.557 2232.27 236.58 Q2235.93 239.603 2242.46 239.603 Q2249.04 239.603 2252.22 236.951 Q2255.4 234.246 2255.4 230.639 Q2255.4 227.404 2252.59 225.547 Q2250.63 224.274 2242.83 222.312 Q2232.33 219.659 2228.24 217.75 Q2224.21 215.787 2222.09 212.393 Q2220.02 208.945 2220.02 204.808 Q2220.02 201.042 2221.72 197.859 Q2223.47 194.624 2226.44 192.502 Q2228.67 190.858 2232.49 189.744 Q2236.36 188.577 2240.76 188.577 Q2247.39 188.577 2252.38 190.486 Q2257.42 192.396 2259.8 195.684 Q2262.19 198.92 2263.09 204.383 L2253.76 205.656 Q2253.12 201.307 2250.04 198.867 Q2247.02 196.427 2241.45 196.427 Q2234.87 196.427 2232.06 198.602 Q2229.25 200.776 2229.25 203.694 Q2229.25 205.55 2230.42 207.035 Q2231.59 208.574 2234.08 209.581 Q2235.51 210.112 2242.51 212.021 Q2252.64 214.727 2256.62 216.477 Q2260.65 218.174 2262.93 221.463 Q2265.21 224.752 2265.21 229.631 Q2265.21 234.405 2262.4 238.649 Q2259.64 242.839 2254.39 245.173 Q2249.14 247.454 2242.51 247.454 Q2231.53 247.454 2225.75 242.892 Q2220.02 238.33 2218.43 229.366 Z" fill="#000000" fill-rule="nonzero" fill-opacity="1" /><polyline clip-path="url(#clip080)" style="stroke:#e26f46; stroke-linecap:round; stroke-linejoin:round; stroke-width:18; stroke-opacity:1; fill:none" points="1653.2,323.941 1784.51,323.941 "/>
<circle clip-path="url(#clip080)" cx="1718.86" cy="323.941" r="8.10571" fill="#e26f46" fill-rule="evenodd" fill-opacity="1" stroke="#000000" stroke-opacity="1" stroke-width="7.20507"/>
<path clip-path="url(#clip080)" d="M1827.83 362.821 L1806.4 306.49 L1816.48 306.49 L1828.57 340.225 Q1830.53 345.688 1832.18 351.576 Q1833.45 347.12 1835.73 340.861 L1848.25 306.49 L1858.06 306.49 L1836.74 362.821 L1827.83 362.821 Z" fill="#000000" fill-rule="nonzero" fill-opacity="1" /><path clip-path="url(#clip080)" d="M1903.25 355.872 Q1897.95 360.381 1893.02 362.237 Q1888.14 364.094 1882.51 364.094 Q1873.23 364.094 1868.25 359.585 Q1863.26 355.023 1863.26 347.969 Q1863.26 343.831 1865.12 340.437 Q1867.03 336.989 1870.05 334.92 Q1873.13 332.852 1876.94 331.791 Q1879.76 331.048 1885.43 330.359 Q1896.99 328.98 1902.46 327.07 Q1902.51 325.108 1902.51 324.577 Q1902.51 318.742 1899.81 316.356 Q1896.15 313.12 1888.93 313.12 Q1882.2 313.12 1878.96 315.507 Q1875.78 317.841 1874.24 323.835 L1864.9 322.562 Q1866.18 316.568 1869.09 312.908 Q1872.01 309.195 1877.53 307.232 Q1883.04 305.217 1890.31 305.217 Q1897.53 305.217 1902.03 306.914 Q1906.54 308.611 1908.66 311.21 Q1910.79 313.756 1911.63 317.682 Q1912.11 320.122 1912.11 326.487 L1912.11 339.217 Q1912.11 352.53 1912.7 356.084 Q1913.33 359.585 1915.14 362.821 L1905.16 362.821 Q1903.68 359.85 1903.25 355.872 M1902.46 334.549 Q1897.26 336.671 1886.86 338.156 Q1880.98 339.005 1878.54 340.065 Q1876.1 341.126 1874.77 343.195 Q1873.44 345.211 1873.44 347.704 Q1873.44 351.523 1876.31 354.069 Q1879.23 356.615 1884.79 356.615 Q1890.31 356.615 1894.61 354.228 Q1898.9 351.788 1900.92 347.597 Q1902.46 344.362 1902.46 338.05 L1902.46 334.549 Z" fill="#000000" fill-rule="nonzero" fill-opacity="1" /><path clip-path="url(#clip080)" d="M1926.7 362.821 L1926.7 285.061 L1936.25 285.061 L1936.25 362.821 L1926.7 362.821 Z" fill="#000000" fill-rule="nonzero" fill-opacity="1" /><path clip-path="url(#clip080)" d="M1942.24 384.409 L1942.24 377.513 L2005.52 377.513 L2005.52 384.409 L1942.24 384.409 Z" fill="#000000" fill-rule="nonzero" fill-opacity="1" /><path clip-path="url(#clip080)" d="M2011.25 362.821 L2011.25 285.061 L2020.8 285.061 L2020.8 362.821 L2011.25 362.821 Z" fill="#000000" fill-rule="nonzero" fill-opacity="1" /><path clip-path="url(#clip080)" d="M2032.04 334.655 Q2032.04 319.008 2040.74 311.476 Q2048.01 305.217 2058.46 305.217 Q2070.07 305.217 2077.44 312.855 Q2084.82 320.44 2084.82 333.86 Q2084.82 344.733 2081.53 350.992 Q2078.29 357.198 2072.03 360.646 Q2065.83 364.094 2058.46 364.094 Q2046.63 364.094 2039.31 356.509 Q2032.04 348.924 2032.04 334.655 M2041.85 334.655 Q2041.85 345.476 2046.57 350.886 Q2051.29 356.243 2058.46 356.243 Q2065.56 356.243 2070.28 350.833 Q2075 345.423 2075 334.337 Q2075 323.888 2070.23 318.53 Q2065.51 313.12 2058.46 313.12 Q2051.29 313.12 2046.57 318.477 Q2041.85 323.835 2041.85 334.655 Z" fill="#000000" fill-rule="nonzero" fill-opacity="1" /><path clip-path="url(#clip080)" d="M2092.19 346.006 L2101.63 344.521 Q2102.43 350.197 2106.03 353.22 Q2109.69 356.243 2116.22 356.243 Q2122.8 356.243 2125.98 353.591 Q2129.16 350.886 2129.16 347.279 Q2129.16 344.044 2126.35 342.187 Q2124.39 340.914 2116.59 338.952 Q2106.09 336.299 2102 334.39 Q2097.97 332.427 2095.85 329.033 Q2093.78 325.585 2093.78 321.448 Q2093.78 317.682 2095.48 314.499 Q2097.23 311.264 2100.2 309.142 Q2102.43 307.498 2106.25 306.384 Q2110.12 305.217 2114.52 305.217 Q2121.15 305.217 2126.14 307.126 Q2131.18 309.036 2133.56 312.324 Q2135.95 315.56 2136.85 321.023 L2127.52 322.296 Q2126.88 317.947 2123.8 315.507 Q2120.78 313.067 2115.21 313.067 Q2108.63 313.067 2105.82 315.242 Q2103.01 317.416 2103.01 320.334 Q2103.01 322.19 2104.18 323.675 Q2105.34 325.214 2107.84 326.221 Q2109.27 326.752 2116.27 328.661 Q2126.4 331.367 2130.38 333.117 Q2134.41 334.814 2136.69 338.103 Q2138.97 341.392 2138.97 346.271 Q2138.97 351.045 2136.16 355.289 Q2133.4 359.479 2128.15 361.813 Q2122.9 364.094 2116.27 364.094 Q2105.29 364.094 2099.51 359.532 Q2093.78 354.97 2092.19 346.006 Z" fill="#000000" fill-rule="nonzero" fill-opacity="1" /><path clip-path="url(#clip080)" d="M2146.51 346.006 L2155.95 344.521 Q2156.74 350.197 2160.35 353.22 Q2164.01 356.243 2170.53 356.243 Q2177.11 356.243 2180.29 353.591 Q2183.48 350.886 2183.48 347.279 Q2183.48 344.044 2180.66 342.187 Q2178.7 340.914 2170.91 338.952 Q2160.4 336.299 2156.32 334.39 Q2152.29 332.427 2150.17 329.033 Q2148.1 325.585 2148.1 321.448 Q2148.1 317.682 2149.79 314.499 Q2151.54 311.264 2154.51 309.142 Q2156.74 307.498 2160.56 306.384 Q2164.43 305.217 2168.84 305.217 Q2175.47 305.217 2180.45 307.126 Q2185.49 309.036 2187.88 312.324 Q2190.27 315.56 2191.17 321.023 L2181.83 322.296 Q2181.2 317.947 2178.12 315.507 Q2175.1 313.067 2169.53 313.067 Q2162.95 313.067 2160.14 315.242 Q2157.33 317.416 2157.33 320.334 Q2157.33 322.19 2158.49 323.675 Q2159.66 325.214 2162.15 326.221 Q2163.59 326.752 2170.59 328.661 Q2180.72 331.367 2184.7 333.117 Q2188.73 334.814 2191.01 338.103 Q2193.29 341.392 2193.29 346.271 Q2193.29 351.045 2190.48 355.289 Q2187.72 359.479 2182.47 361.813 Q2177.22 364.094 2170.59 364.094 Q2159.61 364.094 2153.83 359.532 Q2148.1 354.97 2146.51 346.006 Z" fill="#000000" fill-rule="nonzero" fill-opacity="1" /></svg>
