<?xml version="1.0" encoding="utf-8"?>
<svg xmlns="http://www.w3.org/2000/svg" xmlns:xlink="http://www.w3.org/1999/xlink" width="600" height="400" viewBox="0 0 2400 1600">
<defs>
  <clipPath id="clip190">
    <rect x="0" y="0" width="2400" height="1600"/>
  </clipPath>
</defs>
<path clip-path="url(#clip190)" d="M0 1600 L2400 1600 L2400 8.88178e-14 L0 8.88178e-14  Z" fill="#ffffff" fill-rule="evenodd" fill-opacity="1"/>
<defs>
  <clipPath id="clip191">
    <rect x="480" y="0" width="1681" height="1600"/>
  </clipPath>
</defs>
<path clip-path="url(#clip190)" d="M228.721 1406.42 L2352.76 1406.42 L2352.76 47.2441 L228.721 47.2441  Z" fill="#ffffff" fill-rule="evenodd" fill-opacity="1"/>
<defs>
  <clipPath id="clip192">
    <rect x="228" y="47" width="2125" height="1360"/>
  </clipPath>
</defs>
<polyline clip-path="url(#clip190)" style="stroke:#000000; stroke-linecap:round; stroke-linejoin:round; stroke-width:4; stroke-opacity:1; fill:none" points="228.721,1406.42 2352.76,1406.42 "/>
<polyline clip-path="url(#clip190)" style="stroke:#000000; stroke-linecap:round; stroke-linejoin:round; stroke-width:2; stroke-opacity:0.5; fill:none" points="228.721,47.2441 2352.76,47.2441 "/>
<polyline clip-path="url(#clip190)" style="stroke:#000000; stroke-linecap:round; stroke-linejoin:round; stroke-width:4; stroke-opacity:1; fill:none" points="640.283,1406.42 640.283,1387.53 "/>
<polyline clip-path="url(#clip190)" style="stroke:#000000; stroke-linecap:round; stroke-linejoin:round; stroke-width:4; stroke-opacity:1; fill:none" points="1072.02,1406.42 1072.02,1387.53 "/>
<polyline clip-path="url(#clip190)" style="stroke:#000000; stroke-linecap:round; stroke-linejoin:round; stroke-width:4; stroke-opacity:1; fill:none" points="1503.75,1406.42 1503.75,1387.53 "/>
<polyline clip-path="url(#clip190)" style="stroke:#000000; stroke-linecap:round; stroke-linejoin:round; stroke-width:4; stroke-opacity:1; fill:none" points="1935.49,1406.42 1935.49,1387.53 "/>
<path clip-path="url(#clip190)" d="M518.634 1546.98 Q511.739 1535.03 509.983 1526.37 Q508.247 1517.63 510.789 1510.9 Q513.378 1504.14 520.728 1499.89 Q526.148 1496.76 531.509 1496.61 Q536.844 1496.41 541.895 1499 Q546.92 1501.55 551.857 1506.6 Q556.768 1511.61 562.549 1521.62 Q569.392 1533.47 571.174 1542.18 Q572.93 1550.85 570.368 1557.65 Q567.825 1564.39 560.43 1568.66 Q550.691 1574.28 541.102 1570.51 Q529.588 1565.95 518.634 1546.98 M527.133 1542.07 Q536.707 1558.65 543.748 1561.94 Q550.809 1565.15 556.505 1561.86 Q562.201 1558.57 562.877 1550.83 Q563.599 1543.06 554.051 1526.53 Q544.45 1509.9 537.39 1506.69 Q530.375 1503.45 524.587 1506.79 Q518.891 1510.08 518.277 1516.86 Q517.559 1525.49 527.133 1542.07 Z" fill="#000000" fill-rule="nonzero" fill-opacity="1" /><path clip-path="url(#clip190)" d="M594.77 1547.3 L589.333 1537.88 L598.75 1532.45 L604.187 1541.86 L594.77 1547.3 Z" fill="#000000" fill-rule="nonzero" fill-opacity="1" /><path clip-path="url(#clip190)" d="M655.135 1501.85 L659.723 1509.8 L615.211 1535.5 Q613.396 1532.57 612.861 1529.2 Q611.935 1523.67 613.11 1517.11 Q614.33 1510.53 618.063 1500.66 Q623.843 1485.31 624.679 1477.85 Q625.487 1470.34 622.782 1465.65 Q619.944 1460.74 614.471 1459.43 Q609.018 1458.04 603.368 1461.31 Q597.396 1464.75 595.881 1470.41 Q594.367 1476.06 597.981 1482.42 L588.979 1486.46 Q584.362 1476.44 587.194 1468.19 Q589.999 1459.9 599.6 1454.36 Q609.292 1448.76 618.045 1450.87 Q626.798 1452.98 631.386 1460.93 Q633.72 1464.97 634.321 1469.83 Q634.922 1474.69 633.556 1481.24 Q632.236 1487.76 627.674 1500.44 Q623.839 1510.98 623.026 1514.45 Q622.186 1517.88 622.107 1520.92 L655.135 1501.85 Z" fill="#000000" fill-rule="nonzero" fill-opacity="1" /><path clip-path="url(#clip190)" d="M949.955 1547.21 Q943.06 1535.27 941.304 1526.61 Q939.568 1517.87 942.11 1511.14 Q944.698 1504.37 952.048 1500.13 Q957.469 1497 962.83 1496.85 Q968.165 1496.65 973.216 1499.24 Q978.241 1501.79 983.178 1506.84 Q988.088 1511.85 993.87 1521.86 Q1000.71 1533.71 1002.49 1542.42 Q1004.25 1551.08 1001.69 1557.89 Q999.146 1564.63 991.75 1568.9 Q982.012 1574.52 972.422 1570.75 Q960.908 1566.19 949.955 1547.21 M958.453 1542.31 Q968.027 1558.89 975.069 1562.18 Q982.129 1565.39 987.825 1562.1 Q993.521 1558.81 994.197 1551.07 Q994.919 1543.3 985.372 1526.77 Q975.771 1510.14 968.711 1506.93 Q961.696 1503.69 955.908 1507.03 Q950.212 1510.32 949.597 1517.1 Q948.879 1525.73 958.453 1542.31 Z" fill="#000000" fill-rule="nonzero" fill-opacity="1" /><path clip-path="url(#clip190)" d="M1026.09 1547.54 L1020.65 1538.12 L1030.07 1532.69 L1035.51 1542.1 L1026.09 1547.54 Z" fill="#000000" fill-rule="nonzero" fill-opacity="1" /><path clip-path="url(#clip190)" d="M1074.09 1519.83 L1064.78 1503.7 L1035.57 1520.57 L1031.19 1512.99 L1036.73 1451.61 L1043.48 1447.71 L1068.68 1491.35 L1077.77 1486.1 L1082.15 1493.68 L1073.05 1498.93 L1082.36 1515.05 L1074.09 1519.83 M1060.41 1496.12 L1042.88 1465.76 L1039.32 1508.3 L1060.41 1496.12 Z" fill="#000000" fill-rule="nonzero" fill-opacity="1" /><path clip-path="url(#clip190)" d="M1381.46 1547.35 Q1374.56 1535.4 1372.81 1526.74 Q1371.07 1518 1373.61 1511.27 Q1376.2 1504.51 1383.55 1500.26 Q1388.97 1497.13 1394.33 1496.98 Q1399.67 1496.78 1404.72 1499.37 Q1409.75 1501.92 1414.68 1506.97 Q1419.59 1511.98 1425.37 1521.99 Q1432.22 1533.84 1434 1542.55 Q1435.75 1551.22 1433.19 1558.02 Q1430.65 1564.76 1423.25 1569.03 Q1413.52 1574.65 1403.93 1570.88 Q1392.41 1566.32 1381.46 1547.35 M1389.96 1542.44 Q1399.53 1559.02 1406.57 1562.31 Q1413.63 1565.52 1419.33 1562.23 Q1425.03 1558.94 1425.7 1551.2 Q1426.42 1543.44 1416.88 1526.9 Q1407.28 1510.27 1400.21 1507.06 Q1393.2 1503.82 1387.41 1507.16 Q1381.72 1510.45 1381.1 1517.24 Q1380.38 1525.86 1389.96 1542.44 Z" fill="#000000" fill-rule="nonzero" fill-opacity="1" /><path clip-path="url(#clip190)" d="M1457.59 1547.67 L1452.16 1538.26 L1461.58 1532.82 L1467.01 1542.24 L1457.59 1547.67 Z" fill="#000000" fill-rule="nonzero" fill-opacity="1" /><path clip-path="url(#clip190)" d="M1492.64 1459.64 L1484.79 1465.03 Q1480.87 1460.8 1477.58 1459.76 Q1472.18 1458.16 1467.27 1461 Q1463.32 1463.28 1461.61 1467.2 Q1459.34 1472.31 1460.25 1479.07 Q1461.16 1485.84 1466.9 1496 Q1467.26 1489.73 1470.3 1485.03 Q1473.35 1480.33 1478.08 1477.6 Q1486.35 1472.83 1495.66 1475.59 Q1505 1478.29 1510.57 1487.93 Q1514.23 1494.27 1514.63 1501.33 Q1515.05 1508.32 1511.94 1513.97 Q1508.83 1519.62 1502.77 1523.12 Q1492.43 1529.09 1481.54 1525.28 Q1470.61 1521.42 1460.53 1503.96 Q1449.26 1484.44 1451.35 1471.41 Q1453.19 1460.06 1463.85 1453.91 Q1471.8 1449.32 1479.42 1450.86 Q1487.09 1452.37 1492.64 1459.64 M1475.64 1508.16 Q1478.1 1512.44 1482.15 1515.31 Q1486.24 1518.15 1490.7 1518.33 Q1495.12 1518.47 1498.71 1516.4 Q1503.94 1513.38 1505.27 1506.98 Q1506.6 1500.58 1502.41 1493.32 Q1498.38 1486.34 1492.35 1484.49 Q1486.29 1482.6 1480.64 1485.86 Q1475.04 1489.09 1473.47 1495.39 Q1471.87 1501.64 1475.64 1508.16 Z" fill="#000000" fill-rule="nonzero" fill-opacity="1" /><path clip-path="url(#clip190)" d="M1813.01 1547.45 Q1806.11 1535.51 1804.36 1526.85 Q1802.62 1518.11 1805.16 1511.38 Q1807.75 1504.61 1815.1 1500.37 Q1820.52 1497.24 1825.88 1497.09 Q1831.22 1496.88 1836.27 1499.48 Q1841.3 1502.03 1846.23 1507.08 Q1851.14 1512.08 1856.92 1522.1 Q1863.77 1533.95 1865.55 1542.66 Q1867.31 1551.32 1864.74 1558.13 Q1862.2 1564.87 1854.81 1569.14 Q1845.07 1574.76 1835.48 1570.99 Q1823.96 1566.42 1813.01 1547.45 M1821.51 1542.55 Q1831.08 1559.13 1838.12 1562.41 Q1845.18 1565.63 1850.88 1562.34 Q1856.58 1559.05 1857.25 1551.31 Q1857.97 1543.54 1848.43 1527.01 Q1838.83 1510.38 1831.77 1507.16 Q1824.75 1503.93 1818.96 1507.27 Q1813.27 1510.56 1812.65 1517.34 Q1811.93 1525.96 1821.51 1542.55 Z" fill="#000000" fill-rule="nonzero" fill-opacity="1" /><path clip-path="url(#clip190)" d="M1889.15 1547.78 L1883.71 1538.36 L1893.13 1532.92 L1898.56 1542.34 L1889.15 1547.78 Z" fill="#000000" fill-rule="nonzero" fill-opacity="1" /><path clip-path="url(#clip190)" d="M1902.28 1491.5 Q1896.05 1492.59 1891.55 1490.53 Q1887.06 1488.47 1884.25 1483.6 Q1880 1476.25 1882.4 1468.19 Q1884.79 1460.14 1893.56 1455.07 Q1902.38 1449.98 1910.73 1452.02 Q1919.04 1454.02 1923.29 1461.37 Q1925.99 1466.05 1925.53 1470.98 Q1925.08 1475.83 1921.16 1480.6 Q1928.53 1479.04 1934.35 1481.69 Q1940.21 1484.31 1943.81 1490.55 Q1948.8 1499.19 1946.08 1508.6 Q1943.37 1518 1933.4 1523.76 Q1923.43 1529.51 1913.93 1527.16 Q1904.4 1524.76 1899.31 1515.94 Q1895.51 1509.37 1896.28 1503.05 Q1897.06 1496.66 1902.28 1491.5 M1892.54 1478.45 Q1895.3 1483.22 1900.13 1484.48 Q1904.96 1485.73 1909.87 1482.89 Q1914.65 1480.14 1915.96 1475.4 Q1917.28 1470.59 1914.76 1466.23 Q1912.14 1461.68 1907.19 1460.43 Q1902.26 1459.11 1897.58 1461.82 Q1892.85 1464.55 1891.47 1469.38 Q1890.1 1474.22 1892.54 1478.45 M1907.83 1511.08 Q1909.87 1514.62 1913.44 1516.97 Q1917.05 1519.3 1921.41 1519.23 Q1925.76 1519.11 1929.57 1516.91 Q1935.49 1513.49 1937.15 1507.45 Q1938.81 1501.4 1935.41 1495.52 Q1931.97 1489.55 1925.72 1487.96 Q1919.51 1486.33 1913.54 1489.78 Q1907.71 1493.15 1906.07 1499.23 Q1904.49 1505.29 1907.83 1511.08 Z" fill="#000000" fill-rule="nonzero" fill-opacity="1" /><polyline clip-path="url(#clip190)" style="stroke:#000000; stroke-linecap:round; stroke-linejoin:round; stroke-width:4; stroke-opacity:1; fill:none" points="228.721,1406.42 228.721,47.2441 "/>
<polyline clip-path="url(#clip190)" style="stroke:#000000; stroke-linecap:round; stroke-linejoin:round; stroke-width:2; stroke-opacity:0.5; fill:none" points="2352.76,1406.42 2352.76,47.2441 "/>
<polyline clip-path="url(#clip190)" style="stroke:#000000; stroke-linecap:round; stroke-linejoin:round; stroke-width:4; stroke-opacity:1; fill:none" points="228.721,1150.36 247.619,1150.36 "/>
<polyline clip-path="url(#clip190)" style="stroke:#000000; stroke-linecap:round; stroke-linejoin:round; stroke-width:4; stroke-opacity:1; fill:none" points="228.721,874.11 247.619,874.11 "/>
<polyline clip-path="url(#clip190)" style="stroke:#000000; stroke-linecap:round; stroke-linejoin:round; stroke-width:4; stroke-opacity:1; fill:none" points="228.721,597.863 247.619,597.863 "/>
<polyline clip-path="url(#clip190)" style="stroke:#000000; stroke-linecap:round; stroke-linejoin:round; stroke-width:4; stroke-opacity:1; fill:none" points="228.721,321.615 247.619,321.615 "/>
<path clip-path="url(#clip190)" d="M51.9469 1150.89 Q51.9469 1137.1 54.7581 1128.72 Q57.6224 1120.28 63.1919 1115.72 Q68.8143 1111.16 77.3011 1111.16 Q83.5601 1111.16 88.2809 1113.71 Q93.0016 1116.2 96.0781 1120.97 Q99.1545 1125.69 100.905 1132.54 Q102.655 1139.32 102.655 1150.89 Q102.655 1164.57 99.8441 1173.01 Q97.0328 1181.39 91.4104 1186 Q85.8409 1190.56 77.3011 1190.56 Q66.0561 1190.56 59.638 1182.5 Q51.9469 1172.79 51.9469 1150.89 M61.7597 1150.89 Q61.7597 1170.04 66.2153 1176.4 Q70.7239 1182.71 77.3011 1182.71 Q83.8783 1182.71 88.3339 1176.35 Q92.8425 1169.98 92.8425 1150.89 Q92.8425 1131.69 88.3339 1125.37 Q83.8783 1119.06 77.195 1119.06 Q70.6178 1119.06 66.6926 1124.63 Q61.7597 1131.74 61.7597 1150.89 Z" fill="#000000" fill-rule="nonzero" fill-opacity="1" /><path clip-path="url(#clip190)" d="M117.719 1189.24 L117.719 1178.36 L128.593 1178.36 L128.593 1189.24 L117.719 1189.24 Z" fill="#000000" fill-rule="nonzero" fill-opacity="1" /><path clip-path="url(#clip190)" d="M192.721 1180.06 L192.721 1189.24 L141.323 1189.24 Q141.217 1185.79 142.437 1182.61 Q144.4 1177.36 148.696 1172.26 Q153.045 1167.17 161.214 1160.49 Q173.891 1150.09 178.347 1144.05 Q182.802 1137.95 182.802 1132.54 Q182.802 1126.86 178.718 1122.99 Q174.687 1119.06 168.163 1119.06 Q161.267 1119.06 157.13 1123.2 Q152.992 1127.34 152.939 1134.66 L143.127 1133.65 Q144.134 1122.67 150.712 1116.94 Q157.289 1111.16 168.375 1111.16 Q179.567 1111.16 186.091 1117.37 Q192.615 1123.57 192.615 1132.75 Q192.615 1137.42 190.706 1141.92 Q188.796 1146.43 184.34 1151.42 Q179.938 1156.4 169.648 1165.1 Q161.055 1172.32 158.615 1174.92 Q156.175 1177.46 154.584 1180.06 L192.721 1180.06 Z" fill="#000000" fill-rule="nonzero" fill-opacity="1" /><path clip-path="url(#clip190)" d="M51.4695 874.64 Q51.4695 860.849 54.2807 852.469 Q57.145 844.035 62.7145 839.473 Q68.337 834.912 76.8237 834.912 Q83.0827 834.912 87.8035 837.458 Q92.5242 839.951 95.6007 844.725 Q98.6771 849.445 100.428 856.288 Q102.178 863.077 102.178 874.64 Q102.178 888.325 99.3667 896.759 Q96.5555 905.14 90.933 909.754 Q85.3635 914.316 76.8237 914.316 Q65.5788 914.316 59.1606 906.254 Q51.4695 896.547 51.4695 874.64 M61.2823 874.64 Q61.2823 893.789 65.7379 900.154 Q70.2465 906.466 76.8237 906.466 Q83.401 906.466 87.8565 900.101 Q92.3651 893.736 92.3651 874.64 Q92.3651 855.439 87.8565 849.127 Q83.401 842.815 76.7176 842.815 Q70.1404 842.815 66.2153 848.385 Q61.2823 855.492 61.2823 874.64 Z" fill="#000000" fill-rule="nonzero" fill-opacity="1" /><path clip-path="url(#clip190)" d="M117.242 912.99 L117.242 902.116 L128.116 902.116 L128.116 912.99 L117.242 912.99 Z" fill="#000000" fill-rule="nonzero" fill-opacity="1" /><path clip-path="url(#clip190)" d="M172.671 912.99 L172.671 894.372 L138.936 894.372 L138.936 885.62 L174.422 835.23 L182.219 835.23 L182.219 885.62 L192.721 885.62 L192.721 894.372 L182.219 894.372 L182.219 912.99 L172.671 912.99 M172.671 885.62 L172.671 850.559 L148.325 885.62 L172.671 885.62 Z" fill="#000000" fill-rule="nonzero" fill-opacity="1" /><path clip-path="url(#clip190)" d="M51.2043 598.393 Q51.2043 584.602 54.0155 576.221 Q56.8798 567.788 62.4493 563.226 Q68.0717 558.664 76.5585 558.664 Q82.8175 558.664 87.5383 561.21 Q92.259 563.703 95.3355 568.477 Q98.4119 573.198 100.162 580.04 Q101.913 586.83 101.913 598.393 Q101.913 612.078 99.1015 620.512 Q96.2902 628.892 90.6678 633.507 Q85.0983 638.069 76.5585 638.069 Q65.3135 638.069 58.8954 630.006 Q51.2043 620.3 51.2043 598.393 M61.0171 598.393 Q61.0171 617.541 65.4727 623.906 Q69.9813 630.218 76.5585 630.218 Q83.1358 630.218 87.5913 623.853 Q92.0999 617.488 92.0999 598.393 Q92.0999 579.192 87.5913 572.88 Q83.1358 566.568 76.4524 566.568 Q69.8752 566.568 65.9501 572.137 Q61.0171 579.245 61.0171 598.393 Z" fill="#000000" fill-rule="nonzero" fill-opacity="1" /><path clip-path="url(#clip190)" d="M116.977 636.743 L116.977 625.869 L127.85 625.869 L127.85 636.743 L116.977 636.743 Z" fill="#000000" fill-rule="nonzero" fill-opacity="1" /><path clip-path="url(#clip190)" d="M191.342 578.025 L181.847 578.767 Q180.574 573.145 178.241 570.599 Q174.368 566.515 168.693 566.515 Q164.131 566.515 160.684 569.061 Q156.175 572.349 153.576 578.661 Q150.977 584.973 150.871 596.643 Q154.319 591.391 159.304 588.845 Q164.29 586.299 169.754 586.299 Q179.301 586.299 185.985 593.354 Q192.721 600.356 192.721 611.495 Q192.721 618.814 189.539 625.126 Q186.409 631.385 180.893 634.727 Q175.376 638.069 168.375 638.069 Q156.44 638.069 148.908 629.317 Q141.376 620.512 141.376 600.356 Q141.376 577.813 149.704 567.575 Q156.971 558.664 169.276 558.664 Q178.453 558.664 184.287 563.809 Q190.175 568.955 191.342 578.025 M152.356 611.548 Q152.356 616.48 154.425 620.989 Q156.546 625.498 160.312 627.885 Q164.078 630.218 168.216 630.218 Q174.262 630.218 178.612 625.339 Q182.961 620.459 182.961 612.078 Q182.961 604.016 178.665 599.401 Q174.368 594.733 167.844 594.733 Q161.373 594.733 156.865 599.401 Q152.356 604.016 152.356 611.548 Z" fill="#000000" fill-rule="nonzero" fill-opacity="1" /><path clip-path="url(#clip190)" d="M50.9921 322.146 Q50.9921 308.355 53.8034 299.974 Q56.6677 291.54 62.2371 286.979 Q67.8596 282.417 76.3463 282.417 Q82.6053 282.417 87.3261 284.963 Q92.0469 287.456 95.1233 292.23 Q98.1998 296.951 99.9502 303.793 Q101.701 310.582 101.701 322.146 Q101.701 335.831 98.8893 344.264 Q96.0781 352.645 90.4556 357.26 Q84.8862 361.821 76.3463 361.821 Q65.1014 361.821 58.6833 353.759 Q50.9921 344.052 50.9921 322.146 M60.8049 322.146 Q60.8049 341.294 65.2605 347.659 Q69.7691 353.971 76.3463 353.971 Q82.9236 353.971 87.3791 347.606 Q91.8877 341.241 91.8877 322.146 Q91.8877 302.944 87.3791 296.632 Q82.9236 290.32 76.2403 290.32 Q69.663 290.32 65.7379 295.89 Q60.8049 302.997 60.8049 322.146 Z" fill="#000000" fill-rule="nonzero" fill-opacity="1" /><path clip-path="url(#clip190)" d="M116.765 360.495 L116.765 349.622 L127.638 349.622 L127.638 360.495 L116.765 360.495 Z" fill="#000000" fill-rule="nonzero" fill-opacity="1" /><path clip-path="url(#clip190)" d="M156.281 318.327 Q150.34 316.152 147.476 312.121 Q144.612 308.089 144.612 302.467 Q144.612 293.98 150.712 288.199 Q156.811 282.417 166.943 282.417 Q177.127 282.417 183.333 288.358 Q189.539 294.245 189.539 302.732 Q189.539 308.143 186.674 312.174 Q183.863 316.152 178.081 318.327 Q185.242 320.66 188.955 325.859 Q192.721 331.057 192.721 338.271 Q192.721 348.242 185.667 355.032 Q178.612 361.821 167.102 361.821 Q155.592 361.821 148.537 355.032 Q141.482 348.189 141.482 338.005 Q141.482 330.42 145.301 325.328 Q149.173 320.183 156.281 318.327 M154.372 302.149 Q154.372 307.665 157.925 311.166 Q161.479 314.667 167.155 314.667 Q172.671 314.667 176.172 311.219 Q179.726 307.718 179.726 302.679 Q179.726 297.428 176.066 293.874 Q172.459 290.267 167.049 290.267 Q161.585 290.267 157.978 293.768 Q154.372 297.269 154.372 302.149 M151.295 338.058 Q151.295 342.143 153.205 345.962 Q155.167 349.781 158.986 351.902 Q162.805 353.971 167.208 353.971 Q174.05 353.971 178.506 349.569 Q182.961 345.166 182.961 338.377 Q182.961 331.481 178.347 326.973 Q173.785 322.464 166.89 322.464 Q160.153 322.464 155.698 326.919 Q151.295 331.375 151.295 338.058 Z" fill="#000000" fill-rule="nonzero" fill-opacity="1" /><circle clip-path="url(#clip192)" cx="1198.96" cy="1406.42" r="14.4" fill="#009af9" fill-rule="evenodd" fill-opacity="1" stroke="#000000" stroke-opacity="1" stroke-width="3.2"/>
<circle clip-path="url(#clip192)" cx="1518.93" cy="764.752" r="14.4" fill="#009af9" fill-rule="evenodd" fill-opacity="1" stroke="#000000" stroke-opacity="1" stroke-width="3.2"/>
<circle clip-path="url(#clip192)" cx="2146.88" cy="514.212" r="14.4" fill="#009af9" fill-rule="evenodd" fill-opacity="1" stroke="#000000" stroke-opacity="1" stroke-width="3.2"/>
<circle clip-path="url(#clip192)" cx="1044.52" cy="714.391" r="14.4" fill="#009af9" fill-rule="evenodd" fill-opacity="1" stroke="#000000" stroke-opacity="1" stroke-width="3.2"/>
<circle clip-path="url(#clip192)" cx="1184.92" cy="329.651" r="14.4" fill="#009af9" fill-rule="evenodd" fill-opacity="1" stroke="#000000" stroke-opacity="1" stroke-width="3.2"/>
<circle clip-path="url(#clip192)" cx="437.155" cy="663.771" r="14.4" fill="#009af9" fill-rule="evenodd" fill-opacity="1" stroke="#000000" stroke-opacity="1" stroke-width="3.2"/>
<circle clip-path="url(#clip192)" cx="2166.49" cy="316.561" r="14.4" fill="#009af9" fill-rule="evenodd" fill-opacity="1" stroke="#000000" stroke-opacity="1" stroke-width="3.2"/>
<circle clip-path="url(#clip192)" cx="1492.85" cy="441.749" r="14.4" fill="#009af9" fill-rule="evenodd" fill-opacity="1" stroke="#000000" stroke-opacity="1" stroke-width="3.2"/>
<circle clip-path="url(#clip192)" cx="1737.46" cy="818.442" r="14.4" fill="#009af9" fill-rule="evenodd" fill-opacity="1" stroke="#000000" stroke-opacity="1" stroke-width="3.2"/>
<circle clip-path="url(#clip192)" cx="1437.57" cy="515.935" r="14.4" fill="#009af9" fill-rule="evenodd" fill-opacity="1" stroke="#000000" stroke-opacity="1" stroke-width="3.2"/>
<circle clip-path="url(#clip192)" cx="2011.31" cy="88.2612" r="14.4" fill="#009af9" fill-rule="evenodd" fill-opacity="1" stroke="#000000" stroke-opacity="1" stroke-width="3.2"/>
<circle clip-path="url(#clip192)" cx="1415.55" cy="95.7615" r="14.4" fill="#009af9" fill-rule="evenodd" fill-opacity="1" stroke="#000000" stroke-opacity="1" stroke-width="3.2"/>
<circle clip-path="url(#clip192)" cx="1172.85" cy="378.325" r="14.4" fill="#009af9" fill-rule="evenodd" fill-opacity="1" stroke="#000000" stroke-opacity="1" stroke-width="3.2"/>
<circle clip-path="url(#clip192)" cx="1312.5" cy="1201.68" r="14.4" fill="#009af9" fill-rule="evenodd" fill-opacity="1" stroke="#000000" stroke-opacity="1" stroke-width="3.2"/>
<circle clip-path="url(#clip192)" cx="924.133" cy="1212.74" r="14.4" fill="#009af9" fill-rule="evenodd" fill-opacity="1" stroke="#000000" stroke-opacity="1" stroke-width="3.2"/>
<circle clip-path="url(#clip192)" cx="1338.93" cy="967.342" r="14.4" fill="#009af9" fill-rule="evenodd" fill-opacity="1" stroke="#000000" stroke-opacity="1" stroke-width="3.2"/>
<circle clip-path="url(#clip192)" cx="1232.12" cy="1012.79" r="14.4" fill="#009af9" fill-rule="evenodd" fill-opacity="1" stroke="#000000" stroke-opacity="1" stroke-width="3.2"/>
<circle clip-path="url(#clip192)" cx="431.173" cy="795.023" r="14.4" fill="#009af9" fill-rule="evenodd" fill-opacity="1" stroke="#000000" stroke-opacity="1" stroke-width="3.2"/>
<circle clip-path="url(#clip192)" cx="1076.56" cy="629.265" r="14.4" fill="#009af9" fill-rule="evenodd" fill-opacity="1" stroke="#000000" stroke-opacity="1" stroke-width="3.2"/>
<circle clip-path="url(#clip192)" cx="1322.88" cy="101.711" r="14.4" fill="#009af9" fill-rule="evenodd" fill-opacity="1" stroke="#000000" stroke-opacity="1" stroke-width="3.2"/>
<circle clip-path="url(#clip192)" cx="2308.91" cy="228.29" r="14.4" fill="#009af9" fill-rule="evenodd" fill-opacity="1" stroke="#000000" stroke-opacity="1" stroke-width="3.2"/>
<circle clip-path="url(#clip192)" cx="1665.42" cy="518.258" r="14.4" fill="#009af9" fill-rule="evenodd" fill-opacity="1" stroke="#000000" stroke-opacity="1" stroke-width="3.2"/>
<circle clip-path="url(#clip192)" cx="2333.82" cy="582.242" r="14.4" fill="#009af9" fill-rule="evenodd" fill-opacity="1" stroke="#000000" stroke-opacity="1" stroke-width="3.2"/>
<circle clip-path="url(#clip192)" cx="1377.74" cy="166.826" r="14.4" fill="#009af9" fill-rule="evenodd" fill-opacity="1" stroke="#000000" stroke-opacity="1" stroke-width="3.2"/>
<circle clip-path="url(#clip192)" cx="1723.94" cy="544.562" r="14.4" fill="#009af9" fill-rule="evenodd" fill-opacity="1" stroke="#000000" stroke-opacity="1" stroke-width="3.2"/>
<circle clip-path="url(#clip192)" cx="1866.49" cy="47.2441" r="14.4" fill="#009af9" fill-rule="evenodd" fill-opacity="1" stroke="#000000" stroke-opacity="1" stroke-width="3.2"/>
<circle clip-path="url(#clip192)" cx="1669.13" cy="267.342" r="14.4" fill="#009af9" fill-rule="evenodd" fill-opacity="1" stroke="#000000" stroke-opacity="1" stroke-width="3.2"/>
<circle clip-path="url(#clip192)" cx="244.961" cy="1280.93" r="14.4" fill="#009af9" fill-rule="evenodd" fill-opacity="1" stroke="#000000" stroke-opacity="1" stroke-width="3.2"/>
<circle clip-path="url(#clip192)" cx="1372.47" cy="932.533" r="14.4" fill="#009af9" fill-rule="evenodd" fill-opacity="1" stroke="#000000" stroke-opacity="1" stroke-width="3.2"/>
<circle clip-path="url(#clip192)" cx="559.287" cy="1391.39" r="14.4" fill="#009af9" fill-rule="evenodd" fill-opacity="1" stroke="#000000" stroke-opacity="1" stroke-width="3.2"/>
<circle clip-path="url(#clip192)" cx="1066.39" cy="1304.12" r="14.4" fill="#009af9" fill-rule="evenodd" fill-opacity="1" stroke="#000000" stroke-opacity="1" stroke-width="3.2"/>
<circle clip-path="url(#clip192)" cx="1760.21" cy="749.874" r="14.4" fill="#009af9" fill-rule="evenodd" fill-opacity="1" stroke="#000000" stroke-opacity="1" stroke-width="3.2"/>
<circle clip-path="url(#clip192)" cx="1241.24" cy="1291.13" r="14.4" fill="#009af9" fill-rule="evenodd" fill-opacity="1" stroke="#000000" stroke-opacity="1" stroke-width="3.2"/>
<circle clip-path="url(#clip192)" cx="634.532" cy="1389.38" r="14.4" fill="#009af9" fill-rule="evenodd" fill-opacity="1" stroke="#000000" stroke-opacity="1" stroke-width="3.2"/>
<circle clip-path="url(#clip192)" cx="503.473" cy="952.453" r="14.4" fill="#009af9" fill-rule="evenodd" fill-opacity="1" stroke="#000000" stroke-opacity="1" stroke-width="3.2"/>
<circle clip-path="url(#clip192)" cx="1316.17" cy="1305.66" r="14.4" fill="#009af9" fill-rule="evenodd" fill-opacity="1" stroke="#000000" stroke-opacity="1" stroke-width="3.2"/>
<circle clip-path="url(#clip192)" cx="538.516" cy="710.034" r="14.4" fill="#009af9" fill-rule="evenodd" fill-opacity="1" stroke="#000000" stroke-opacity="1" stroke-width="3.2"/>
<circle clip-path="url(#clip192)" cx="1196.49" cy="1093.32" r="14.4" fill="#009af9" fill-rule="evenodd" fill-opacity="1" stroke="#000000" stroke-opacity="1" stroke-width="3.2"/>
<circle clip-path="url(#clip192)" cx="1305.6" cy="133.486" r="14.4" fill="#009af9" fill-rule="evenodd" fill-opacity="1" stroke="#000000" stroke-opacity="1" stroke-width="3.2"/>
<circle clip-path="url(#clip192)" cx="375.995" cy="926.468" r="14.4" fill="#009af9" fill-rule="evenodd" fill-opacity="1" stroke="#000000" stroke-opacity="1" stroke-width="3.2"/>
<circle clip-path="url(#clip192)" cx="1784.41" cy="273.3" r="14.4" fill="#009af9" fill-rule="evenodd" fill-opacity="1" stroke="#000000" stroke-opacity="1" stroke-width="3.2"/>
<circle clip-path="url(#clip192)" cx="1726.52" cy="344.211" r="14.4" fill="#009af9" fill-rule="evenodd" fill-opacity="1" stroke="#000000" stroke-opacity="1" stroke-width="3.2"/>
<circle clip-path="url(#clip192)" cx="1359.28" cy="216.095" r="14.4" fill="#009af9" fill-rule="evenodd" fill-opacity="1" stroke="#000000" stroke-opacity="1" stroke-width="3.2"/>
<circle clip-path="url(#clip192)" cx="1503.17" cy="755.025" r="14.4" fill="#009af9" fill-rule="evenodd" fill-opacity="1" stroke="#000000" stroke-opacity="1" stroke-width="3.2"/>
<circle clip-path="url(#clip192)" cx="2317.01" cy="71.9181" r="14.4" fill="#009af9" fill-rule="evenodd" fill-opacity="1" stroke="#000000" stroke-opacity="1" stroke-width="3.2"/>
<circle clip-path="url(#clip192)" cx="1834.37" cy="290.929" r="14.4" fill="#009af9" fill-rule="evenodd" fill-opacity="1" stroke="#000000" stroke-opacity="1" stroke-width="3.2"/>
<circle clip-path="url(#clip192)" cx="1726.73" cy="531.165" r="14.4" fill="#009af9" fill-rule="evenodd" fill-opacity="1" stroke="#000000" stroke-opacity="1" stroke-width="3.2"/>
<circle clip-path="url(#clip192)" cx="1267.58" cy="1248.5" r="14.4" fill="#009af9" fill-rule="evenodd" fill-opacity="1" stroke="#000000" stroke-opacity="1" stroke-width="3.2"/>
<circle clip-path="url(#clip192)" cx="1420.46" cy="213.317" r="14.4" fill="#009af9" fill-rule="evenodd" fill-opacity="1" stroke="#000000" stroke-opacity="1" stroke-width="3.2"/>
<circle clip-path="url(#clip192)" cx="979.801" cy="654.473" r="14.4" fill="#009af9" fill-rule="evenodd" fill-opacity="1" stroke="#000000" stroke-opacity="1" stroke-width="3.2"/>
<circle clip-path="url(#clip192)" cx="1199.57" cy="813.932" r="14.4" fill="#009af9" fill-rule="evenodd" fill-opacity="1" stroke="#000000" stroke-opacity="1" stroke-width="3.2"/>
<circle clip-path="url(#clip192)" cx="1053.72" cy="1250.89" r="14.4" fill="#009af9" fill-rule="evenodd" fill-opacity="1" stroke="#000000" stroke-opacity="1" stroke-width="3.2"/>
<circle clip-path="url(#clip192)" cx="1743.27" cy="100.673" r="14.4" fill="#009af9" fill-rule="evenodd" fill-opacity="1" stroke="#000000" stroke-opacity="1" stroke-width="3.2"/>
<circle clip-path="url(#clip192)" cx="1839.09" cy="451.896" r="14.4" fill="#009af9" fill-rule="evenodd" fill-opacity="1" stroke="#000000" stroke-opacity="1" stroke-width="3.2"/>
<circle clip-path="url(#clip192)" cx="1004.83" cy="1082.26" r="14.4" fill="#009af9" fill-rule="evenodd" fill-opacity="1" stroke="#000000" stroke-opacity="1" stroke-width="3.2"/>
<circle clip-path="url(#clip192)" cx="739.527" cy="1100.01" r="14.4" fill="#009af9" fill-rule="evenodd" fill-opacity="1" stroke="#000000" stroke-opacity="1" stroke-width="3.2"/>
<circle clip-path="url(#clip192)" cx="2241.23" cy="141.758" r="14.4" fill="#009af9" fill-rule="evenodd" fill-opacity="1" stroke="#000000" stroke-opacity="1" stroke-width="3.2"/>
<circle clip-path="url(#clip192)" cx="905.056" cy="1078.1" r="14.4" fill="#009af9" fill-rule="evenodd" fill-opacity="1" stroke="#000000" stroke-opacity="1" stroke-width="3.2"/>
<circle clip-path="url(#clip192)" cx="1541.24" cy="718.852" r="14.4" fill="#009af9" fill-rule="evenodd" fill-opacity="1" stroke="#000000" stroke-opacity="1" stroke-width="3.2"/>
<circle clip-path="url(#clip192)" cx="2252.91" cy="301.999" r="14.4" fill="#009af9" fill-rule="evenodd" fill-opacity="1" stroke="#000000" stroke-opacity="1" stroke-width="3.2"/>
<circle clip-path="url(#clip192)" cx="1905.26" cy="871.987" r="14.4" fill="#009af9" fill-rule="evenodd" fill-opacity="1" stroke="#000000" stroke-opacity="1" stroke-width="3.2"/>
<circle clip-path="url(#clip192)" cx="1598.13" cy="704.634" r="14.4" fill="#009af9" fill-rule="evenodd" fill-opacity="1" stroke="#000000" stroke-opacity="1" stroke-width="3.2"/>
<circle clip-path="url(#clip192)" cx="2114.59" cy="357.865" r="14.4" fill="#009af9" fill-rule="evenodd" fill-opacity="1" stroke="#000000" stroke-opacity="1" stroke-width="3.2"/>
<circle clip-path="url(#clip192)" cx="374.264" cy="1108.59" r="14.4" fill="#009af9" fill-rule="evenodd" fill-opacity="1" stroke="#000000" stroke-opacity="1" stroke-width="3.2"/>
<circle clip-path="url(#clip192)" cx="1321.94" cy="899.105" r="14.4" fill="#009af9" fill-rule="evenodd" fill-opacity="1" stroke="#000000" stroke-opacity="1" stroke-width="3.2"/>
<circle clip-path="url(#clip192)" cx="1166.91" cy="1290.42" r="14.4" fill="#009af9" fill-rule="evenodd" fill-opacity="1" stroke="#000000" stroke-opacity="1" stroke-width="3.2"/>
<circle clip-path="url(#clip192)" cx="1221.18" cy="694.385" r="14.4" fill="#009af9" fill-rule="evenodd" fill-opacity="1" stroke="#000000" stroke-opacity="1" stroke-width="3.2"/>
<circle clip-path="url(#clip192)" cx="248.313" cy="1310.42" r="14.4" fill="#009af9" fill-rule="evenodd" fill-opacity="1" stroke="#000000" stroke-opacity="1" stroke-width="3.2"/>
<circle clip-path="url(#clip192)" cx="2019.63" cy="708.541" r="14.4" fill="#009af9" fill-rule="evenodd" fill-opacity="1" stroke="#000000" stroke-opacity="1" stroke-width="3.2"/>
<circle clip-path="url(#clip192)" cx="1683.27" cy="849.539" r="14.4" fill="#009af9" fill-rule="evenodd" fill-opacity="1" stroke="#000000" stroke-opacity="1" stroke-width="3.2"/>
<circle clip-path="url(#clip192)" cx="1559.09" cy="949.11" r="14.4" fill="#009af9" fill-rule="evenodd" fill-opacity="1" stroke="#000000" stroke-opacity="1" stroke-width="3.2"/>
<circle clip-path="url(#clip192)" cx="1132.02" cy="121.863" r="14.4" fill="#e26f46" fill-rule="evenodd" fill-opacity="1" stroke="#000000" stroke-opacity="1" stroke-width="3.2"/>
<circle clip-path="url(#clip192)" cx="2310.78" cy="761.422" r="14.4" fill="#e26f46" fill-rule="evenodd" fill-opacity="1" stroke="#000000" stroke-opacity="1" stroke-width="3.2"/>
<circle clip-path="url(#clip192)" cx="2320.74" cy="977.476" r="14.4" fill="#e26f46" fill-rule="evenodd" fill-opacity="1" stroke="#000000" stroke-opacity="1" stroke-width="3.2"/>
<circle clip-path="url(#clip192)" cx="709.575" cy="143.313" r="14.4" fill="#e26f46" fill-rule="evenodd" fill-opacity="1" stroke="#000000" stroke-opacity="1" stroke-width="3.2"/>
<circle clip-path="url(#clip192)" cx="1568.96" cy="1364.24" r="14.4" fill="#e26f46" fill-rule="evenodd" fill-opacity="1" stroke="#000000" stroke-opacity="1" stroke-width="3.2"/>
<circle clip-path="url(#clip192)" cx="594.138" cy="156.586" r="14.4" fill="#e26f46" fill-rule="evenodd" fill-opacity="1" stroke="#000000" stroke-opacity="1" stroke-width="3.2"/>
<circle clip-path="url(#clip192)" cx="1662.87" cy="999.948" r="14.4" fill="#e26f46" fill-rule="evenodd" fill-opacity="1" stroke="#000000" stroke-opacity="1" stroke-width="3.2"/>
<circle clip-path="url(#clip192)" cx="1797.81" cy="1119.66" r="14.4" fill="#e26f46" fill-rule="evenodd" fill-opacity="1" stroke="#000000" stroke-opacity="1" stroke-width="3.2"/>
<circle clip-path="url(#clip192)" cx="2145.52" cy="1195.28" r="14.4" fill="#e26f46" fill-rule="evenodd" fill-opacity="1" stroke="#000000" stroke-opacity="1" stroke-width="3.2"/>
<circle clip-path="url(#clip192)" cx="319.829" cy="120.305" r="14.4" fill="#e26f46" fill-rule="evenodd" fill-opacity="1" stroke="#000000" stroke-opacity="1" stroke-width="3.2"/>
<circle clip-path="url(#clip192)" cx="228.721" cy="350.42" r="14.4" fill="#e26f46" fill-rule="evenodd" fill-opacity="1" stroke="#000000" stroke-opacity="1" stroke-width="3.2"/>
<circle clip-path="url(#clip192)" cx="1176.83" cy="224.133" r="14.4" fill="#e26f46" fill-rule="evenodd" fill-opacity="1" stroke="#000000" stroke-opacity="1" stroke-width="3.2"/>
<circle clip-path="url(#clip192)" cx="338.865" cy="359.526" r="14.4" fill="#e26f46" fill-rule="evenodd" fill-opacity="1" stroke="#000000" stroke-opacity="1" stroke-width="3.2"/>
<circle clip-path="url(#clip192)" cx="858.255" cy="495.497" r="14.4" fill="#e26f46" fill-rule="evenodd" fill-opacity="1" stroke="#000000" stroke-opacity="1" stroke-width="3.2"/>
<circle clip-path="url(#clip192)" cx="2260.36" cy="1006.65" r="14.4" fill="#e26f46" fill-rule="evenodd" fill-opacity="1" stroke="#000000" stroke-opacity="1" stroke-width="3.2"/>
<circle clip-path="url(#clip192)" cx="1738.39" cy="1192.93" r="14.4" fill="#e26f46" fill-rule="evenodd" fill-opacity="1" stroke="#000000" stroke-opacity="1" stroke-width="3.2"/>
<circle clip-path="url(#clip192)" cx="585.432" cy="253.689" r="14.4" fill="#e26f46" fill-rule="evenodd" fill-opacity="1" stroke="#000000" stroke-opacity="1" stroke-width="3.2"/>
<circle clip-path="url(#clip192)" cx="384.597" cy="133.327" r="14.4" fill="#e26f46" fill-rule="evenodd" fill-opacity="1" stroke="#000000" stroke-opacity="1" stroke-width="3.2"/>
<circle clip-path="url(#clip192)" cx="1752.19" cy="1309.21" r="14.4" fill="#e26f46" fill-rule="evenodd" fill-opacity="1" stroke="#000000" stroke-opacity="1" stroke-width="3.2"/>
<circle clip-path="url(#clip192)" cx="303.272" cy="566.483" r="14.4" fill="#e26f46" fill-rule="evenodd" fill-opacity="1" stroke="#000000" stroke-opacity="1" stroke-width="3.2"/>
<circle clip-path="url(#clip192)" cx="1742.44" cy="1234.98" r="14.4" fill="#e26f46" fill-rule="evenodd" fill-opacity="1" stroke="#000000" stroke-opacity="1" stroke-width="3.2"/>
<circle clip-path="url(#clip192)" cx="1748.45" cy="1403.8" r="14.4" fill="#e26f46" fill-rule="evenodd" fill-opacity="1" stroke="#000000" stroke-opacity="1" stroke-width="3.2"/>
<circle clip-path="url(#clip192)" cx="703.08" cy="184.26" r="14.4" fill="#e26f46" fill-rule="evenodd" fill-opacity="1" stroke="#000000" stroke-opacity="1" stroke-width="3.2"/>
<circle clip-path="url(#clip192)" cx="2218.78" cy="1163.79" r="14.4" fill="#e26f46" fill-rule="evenodd" fill-opacity="1" stroke="#000000" stroke-opacity="1" stroke-width="3.2"/>
<circle clip-path="url(#clip192)" cx="815.658" cy="159.129" r="14.4" fill="#e26f46" fill-rule="evenodd" fill-opacity="1" stroke="#000000" stroke-opacity="1" stroke-width="3.2"/>
<circle clip-path="url(#clip192)" cx="2106.12" cy="1216.47" r="14.4" fill="#e26f46" fill-rule="evenodd" fill-opacity="1" stroke="#000000" stroke-opacity="1" stroke-width="3.2"/>
<circle clip-path="url(#clip192)" cx="377.563" cy="221.268" r="14.4" fill="#e26f46" fill-rule="evenodd" fill-opacity="1" stroke="#000000" stroke-opacity="1" stroke-width="3.2"/>
<circle clip-path="url(#clip192)" cx="741.144" cy="436.071" r="14.4" fill="#e26f46" fill-rule="evenodd" fill-opacity="1" stroke="#000000" stroke-opacity="1" stroke-width="3.2"/>
<circle clip-path="url(#clip192)" cx="2352.76" cy="1386.72" r="14.4" fill="#e26f46" fill-rule="evenodd" fill-opacity="1" stroke="#000000" stroke-opacity="1" stroke-width="3.2"/>
<circle clip-path="url(#clip192)" cx="450.254" cy="179.508" r="14.4" fill="#e26f46" fill-rule="evenodd" fill-opacity="1" stroke="#000000" stroke-opacity="1" stroke-width="3.2"/>
<path clip-path="url(#clip190)" d="M1928.25 442.47 L2281.95 442.47 L2281.95 92.55 L1928.25 92.55  Z" fill="#ffffff" fill-rule="evenodd" fill-opacity="1"/>
<polyline clip-path="url(#clip190)" style="stroke:#000000; stroke-linecap:round; stroke-linejoin:round; stroke-width:4; stroke-opacity:1; fill:none" points="1928.25,442.47 2281.95,442.47 2281.95,92.55 1928.25,92.55 1928.25,442.47 "/>
<circle clip-path="url(#clip190)" cx="2022.65" cy="209.19" r="46.08" fill="#009af9" fill-rule="evenodd" fill-opacity="1" stroke="#000000" stroke-opacity="1" stroke-width="10.24"/>
<path clip-path="url(#clip190)" d="M2117.05 209.72 Q2117.05 195.929 2119.86 187.549 Q2122.73 179.115 2128.29 174.553 Q2133.92 169.992 2142.4 169.992 Q2148.66 169.992 2153.38 172.538 Q2158.1 175.031 2161.18 179.805 Q2164.26 184.525 2166.01 191.368 Q2167.76 198.157 2167.76 209.72 Q2167.76 223.405 2164.95 231.839 Q2162.14 240.22 2156.51 244.834 Q2150.94 249.396 2142.4 249.396 Q2131.16 249.396 2124.74 241.334 Q2117.05 231.627 2117.05 209.72 M2126.86 209.72 Q2126.86 228.869 2131.32 235.234 Q2135.83 241.546 2142.4 241.546 Q2148.98 241.546 2153.44 235.181 Q2157.95 228.816 2157.95 209.72 Q2157.95 190.519 2153.44 184.207 Q2148.98 177.895 2142.3 177.895 Q2135.72 177.895 2131.8 183.465 Q2126.86 190.572 2126.86 209.72 Z" fill="#000000" fill-rule="nonzero" fill-opacity="1" /><path clip-path="url(#clip190)" d="M2182.82 248.07 L2182.82 237.196 L2193.7 237.196 L2193.7 248.07 L2182.82 248.07 Z" fill="#000000" fill-rule="nonzero" fill-opacity="1" /><path clip-path="url(#clip190)" d="M2207.65 209.72 Q2207.65 195.929 2210.46 187.549 Q2213.32 179.115 2218.89 174.553 Q2224.51 169.992 2233 169.992 Q2239.26 169.992 2243.98 172.538 Q2248.7 175.031 2251.78 179.805 Q2254.85 184.525 2256.6 191.368 Q2258.35 198.157 2258.35 209.72 Q2258.35 223.405 2255.54 231.839 Q2252.73 240.22 2247.11 244.834 Q2241.54 249.396 2233 249.396 Q2221.76 249.396 2215.34 241.334 Q2207.65 231.627 2207.65 209.72 M2217.46 209.72 Q2217.46 228.869 2221.91 235.234 Q2226.42 241.546 2233 241.546 Q2239.58 241.546 2244.03 235.181 Q2248.54 228.816 2248.54 209.72 Q2248.54 190.519 2244.03 184.207 Q2239.58 177.895 2232.89 177.895 Q2226.32 177.895 2222.39 183.465 Q2217.46 190.572 2217.46 209.72 Z" fill="#000000" fill-rule="nonzero" fill-opacity="1" /><circle clip-path="url(#clip190)" cx="2022.65" cy="325.83" r="46.08" fill="#e26f46" fill-rule="evenodd" fill-opacity="1" stroke="#000000" stroke-opacity="1" stroke-width="10.24"/>
<path clip-path="url(#clip190)" d="M2145.69 364.71 L2136.14 364.71 L2136.14 303.871 Q2132.7 307.159 2127.07 310.448 Q2121.51 313.736 2117.05 315.381 L2117.05 306.151 Q2125.06 302.385 2131.05 297.028 Q2137.05 291.671 2139.54 286.632 L2145.69 286.632 L2145.69 364.71 Z" fill="#000000" fill-rule="nonzero" fill-opacity="1" /><path clip-path="url(#clip190)" d="M2175.5 364.71 L2175.5 353.836 L2186.38 353.836 L2186.38 364.71 L2175.5 364.71 Z" fill="#000000" fill-rule="nonzero" fill-opacity="1" /><path clip-path="url(#clip190)" d="M2200.33 326.36 Q2200.33 312.569 2203.14 304.189 Q2206 295.755 2211.57 291.193 Q2217.19 286.632 2225.68 286.632 Q2231.94 286.632 2236.66 289.178 Q2241.38 291.671 2244.46 296.445 Q2247.53 301.165 2249.28 308.008 Q2251.03 314.797 2251.03 326.36 Q2251.03 340.045 2248.22 348.479 Q2245.41 356.86 2239.79 361.474 Q2234.22 366.036 2225.68 366.036 Q2214.44 366.036 2208.02 357.974 Q2200.33 348.267 2200.33 326.36 M2210.14 326.36 Q2210.14 345.509 2214.59 351.874 Q2219.1 358.186 2225.68 358.186 Q2232.26 358.186 2236.71 351.821 Q2241.22 345.456 2241.22 326.36 Q2241.22 307.159 2236.71 300.847 Q2232.26 294.535 2225.57 294.535 Q2219 294.535 2215.07 300.105 Q2210.14 307.212 2210.14 326.36 Z" fill="#000000" fill-rule="nonzero" fill-opacity="1" /></svg>
