<?xml version="1.0" encoding="utf-8"?>
<svg xmlns="http://www.w3.org/2000/svg" xmlns:xlink="http://www.w3.org/1999/xlink" width="600" height="400" viewBox="0 0 2400 1600">
<defs>
  <clipPath id="clip020">
    <rect x="0" y="0" width="2400" height="1600"/>
  </clipPath>
</defs>
<path clip-path="url(#clip020)" d="M0 1600 L2400 1600 L2400 8.88178e-14 L0 8.88178e-14  Z" fill="#ffffff" fill-rule="evenodd" fill-opacity="1"/>
<defs>
  <clipPath id="clip021">
    <rect x="480" y="0" width="1681" height="1600"/>
  </clipPath>
</defs>
<path clip-path="url(#clip020)" d="M383.069 1349.74 L2352.76 1349.74 L2352.76 47.2441 L383.069 47.2441  Z" fill="#ffffff" fill-rule="evenodd" fill-opacity="1"/>
<defs>
  <clipPath id="clip022">
    <rect x="383" y="47" width="1971" height="1303"/>
  </clipPath>
</defs>
<polyline clip-path="url(#clip020)" style="stroke:#000000; stroke-linecap:round; stroke-linejoin:round; stroke-width:4; stroke-opacity:1; fill:none" points="383.069,1349.74 2352.76,1349.74 "/>
<polyline clip-path="url(#clip020)" style="stroke:#000000; stroke-linecap:round; stroke-linejoin:round; stroke-width:2; stroke-opacity:0.5; fill:none" points="383.069,47.2441 2352.76,47.2441 "/>
<polyline clip-path="url(#clip020)" style="stroke:#000000; stroke-linecap:round; stroke-linejoin:round; stroke-width:4; stroke-opacity:1; fill:none" points="737.612,1349.74 737.612,1330.84 "/>
<polyline clip-path="url(#clip020)" style="stroke:#000000; stroke-linecap:round; stroke-linejoin:round; stroke-width:4; stroke-opacity:1; fill:none" points="1131.55,1349.74 1131.55,1330.84 "/>
<polyline clip-path="url(#clip020)" style="stroke:#000000; stroke-linecap:round; stroke-linejoin:round; stroke-width:4; stroke-opacity:1; fill:none" points="1525.49,1349.74 1525.49,1330.84 "/>
<polyline clip-path="url(#clip020)" style="stroke:#000000; stroke-linecap:round; stroke-linejoin:round; stroke-width:4; stroke-opacity:1; fill:none" points="1919.42,1349.74 1919.42,1330.84 "/>
<polyline clip-path="url(#clip020)" style="stroke:#000000; stroke-linecap:round; stroke-linejoin:round; stroke-width:4; stroke-opacity:1; fill:none" points="2313.36,1349.74 2313.36,1330.84 "/>
<path clip-path="url(#clip020)" d="M714.353 1466.14 L704.806 1466.14 L704.806 1405.3 Q701.358 1408.59 695.735 1411.88 Q690.166 1415.17 685.71 1416.81 L685.71 1407.58 Q693.72 1403.82 699.714 1398.46 Q705.707 1393.1 708.2 1388.06 L714.353 1388.06 L714.353 1466.14 Z" fill="#000000" fill-rule="nonzero" fill-opacity="1" /><path clip-path="url(#clip020)" d="M738.806 1427.79 Q738.806 1414 741.617 1405.62 Q744.481 1397.18 750.051 1392.62 Q755.673 1388.06 764.16 1388.06 Q770.419 1388.06 775.14 1390.61 Q779.861 1393.1 782.937 1397.87 Q786.013 1402.6 787.764 1409.44 Q789.514 1416.23 789.514 1427.79 Q789.514 1441.48 786.703 1449.91 Q783.892 1458.29 778.269 1462.9 Q772.7 1467.47 764.16 1467.47 Q752.915 1467.47 746.497 1459.4 Q738.806 1449.7 738.806 1427.79 M748.619 1427.79 Q748.619 1446.94 753.074 1453.3 Q757.583 1459.62 764.16 1459.62 Q770.737 1459.62 775.193 1453.25 Q779.701 1446.89 779.701 1427.79 Q779.701 1408.59 775.193 1402.28 Q770.737 1395.96 764.054 1395.96 Q757.477 1395.96 753.552 1401.53 Q748.619 1408.64 748.619 1427.79 Z" fill="#000000" fill-rule="nonzero" fill-opacity="1" /><path clip-path="url(#clip020)" d="M1126.83 1456.96 L1126.83 1466.14 L1075.43 1466.14 Q1075.32 1462.69 1076.54 1459.51 Q1078.51 1454.26 1082.8 1449.17 Q1087.15 1444.07 1095.32 1437.39 Q1108 1426.99 1112.45 1420.95 Q1116.91 1414.85 1116.91 1409.44 Q1116.91 1403.76 1112.83 1399.89 Q1108.79 1395.96 1102.27 1395.96 Q1095.37 1395.96 1091.24 1400.1 Q1087.1 1404.24 1087.05 1411.56 L1077.23 1410.55 Q1078.24 1399.57 1084.82 1393.84 Q1091.4 1388.06 1102.48 1388.06 Q1113.67 1388.06 1120.2 1394.27 Q1126.72 1400.47 1126.72 1409.65 Q1126.72 1414.32 1124.81 1418.83 Q1122.9 1423.33 1118.45 1428.32 Q1114.05 1433.31 1103.76 1442.01 Q1095.16 1449.22 1092.72 1451.82 Q1090.28 1454.36 1088.69 1456.96 L1126.83 1456.96 Z" fill="#000000" fill-rule="nonzero" fill-opacity="1" /><path clip-path="url(#clip020)" d="M1137.07 1427.79 Q1137.07 1414 1139.88 1405.62 Q1142.74 1397.18 1148.31 1392.62 Q1153.93 1388.06 1162.42 1388.06 Q1168.68 1388.06 1173.4 1390.61 Q1178.12 1393.1 1181.2 1397.87 Q1184.27 1402.6 1186.02 1409.44 Q1187.77 1416.23 1187.77 1427.79 Q1187.77 1441.48 1184.96 1449.91 Q1182.15 1458.29 1176.53 1462.9 Q1170.96 1467.47 1162.42 1467.47 Q1151.18 1467.47 1144.76 1459.4 Q1137.07 1449.7 1137.07 1427.79 M1146.88 1427.79 Q1146.88 1446.94 1151.33 1453.3 Q1155.84 1459.62 1162.42 1459.62 Q1169 1459.62 1173.45 1453.25 Q1177.96 1446.89 1177.96 1427.79 Q1177.96 1408.59 1173.45 1402.28 Q1169 1395.96 1162.31 1395.96 Q1155.74 1395.96 1151.81 1401.53 Q1146.88 1408.64 1146.88 1427.79 Z" fill="#000000" fill-rule="nonzero" fill-opacity="1" /><path clip-path="url(#clip020)" d="M1469.95 1445.61 L1479.5 1444.34 Q1481.14 1452.45 1485.07 1456.06 Q1489.05 1459.62 1494.72 1459.62 Q1501.46 1459.62 1506.07 1454.95 Q1510.74 1450.28 1510.74 1443.38 Q1510.74 1436.81 1506.45 1432.56 Q1502.15 1428.27 1495.52 1428.27 Q1492.81 1428.27 1488.78 1429.33 L1489.84 1420.95 Q1490.8 1421.05 1491.38 1421.05 Q1497.48 1421.05 1502.36 1417.87 Q1507.24 1414.69 1507.24 1408.06 Q1507.24 1402.81 1503.69 1399.36 Q1500.13 1395.91 1494.51 1395.91 Q1488.94 1395.91 1485.23 1399.41 Q1481.52 1402.91 1480.45 1409.92 L1470.91 1408.22 Q1472.66 1398.62 1478.86 1393.37 Q1485.07 1388.06 1494.3 1388.06 Q1500.66 1388.06 1506.02 1390.82 Q1511.38 1393.52 1514.19 1398.25 Q1517.05 1402.97 1517.05 1408.27 Q1517.05 1413.31 1514.35 1417.45 Q1511.64 1421.58 1506.34 1424.02 Q1513.23 1425.62 1517.05 1430.65 Q1520.87 1435.64 1520.87 1443.17 Q1520.87 1453.36 1513.45 1460.46 Q1506.02 1467.52 1494.67 1467.52 Q1484.43 1467.52 1477.64 1461.42 Q1470.91 1455.32 1469.95 1445.61 Z" fill="#000000" fill-rule="nonzero" fill-opacity="1" /><path clip-path="url(#clip020)" d="M1530.31 1427.79 Q1530.31 1414 1533.13 1405.62 Q1535.99 1397.18 1541.56 1392.62 Q1547.18 1388.06 1555.67 1388.06 Q1561.93 1388.06 1566.65 1390.61 Q1571.37 1393.1 1574.45 1397.87 Q1577.52 1402.6 1579.27 1409.44 Q1581.02 1416.23 1581.02 1427.79 Q1581.02 1441.48 1578.21 1449.91 Q1575.4 1458.29 1569.78 1462.9 Q1564.21 1467.47 1555.67 1467.47 Q1544.42 1467.47 1538.01 1459.4 Q1530.31 1449.7 1530.31 1427.79 M1540.13 1427.79 Q1540.13 1446.94 1544.58 1453.3 Q1549.09 1459.62 1555.67 1459.62 Q1562.25 1459.62 1566.7 1453.25 Q1571.21 1446.89 1571.21 1427.79 Q1571.21 1408.59 1566.7 1402.28 Q1562.25 1395.96 1555.56 1395.96 Q1548.99 1395.96 1545.06 1401.53 Q1540.13 1408.64 1540.13 1427.79 Z" fill="#000000" fill-rule="nonzero" fill-opacity="1" /><path clip-path="url(#clip020)" d="M1896.03 1466.14 L1896.03 1447.52 L1862.3 1447.52 L1862.3 1438.77 L1897.78 1388.38 L1905.58 1388.38 L1905.58 1438.77 L1916.08 1438.77 L1916.08 1447.52 L1905.58 1447.52 L1905.58 1466.14 L1896.03 1466.14 M1896.03 1438.77 L1896.03 1403.71 L1871.69 1438.77 L1896.03 1438.77 Z" fill="#000000" fill-rule="nonzero" fill-opacity="1" /><path clip-path="url(#clip020)" d="M1925.84 1427.79 Q1925.84 1414 1928.65 1405.62 Q1931.52 1397.18 1937.09 1392.62 Q1942.71 1388.06 1951.2 1388.06 Q1957.46 1388.06 1962.18 1390.61 Q1966.9 1393.1 1969.97 1397.87 Q1973.05 1402.6 1974.8 1409.44 Q1976.55 1416.23 1976.55 1427.79 Q1976.55 1441.48 1973.74 1449.91 Q1970.93 1458.29 1965.31 1462.9 Q1959.74 1467.47 1951.2 1467.47 Q1939.95 1467.47 1933.53 1459.4 Q1925.84 1449.7 1925.84 1427.79 M1935.66 1427.79 Q1935.66 1446.94 1940.11 1453.3 Q1944.62 1459.62 1951.2 1459.62 Q1957.77 1459.62 1962.23 1453.25 Q1966.74 1446.89 1966.74 1427.79 Q1966.74 1408.59 1962.23 1402.28 Q1957.77 1395.96 1951.09 1395.96 Q1944.51 1395.96 1940.59 1401.53 Q1935.66 1408.64 1935.66 1427.79 Z" fill="#000000" fill-rule="nonzero" fill-opacity="1" /><path clip-path="url(#clip020)" d="M2257.8 1445.77 L2267.83 1444.92 Q2268.94 1452.24 2272.97 1455.96 Q2277.05 1459.62 2282.78 1459.62 Q2289.68 1459.62 2294.45 1454.42 Q2299.23 1449.22 2299.23 1440.63 Q2299.23 1432.46 2294.61 1427.74 Q2290.05 1423.02 2282.62 1423.02 Q2278.01 1423.02 2274.3 1425.14 Q2270.58 1427.21 2268.46 1430.55 L2259.5 1429.38 L2267.03 1389.44 L2305.7 1389.44 L2305.7 1398.56 L2274.67 1398.56 L2270.48 1419.46 Q2277.48 1414.58 2285.17 1414.58 Q2295.35 1414.58 2302.36 1421.64 Q2309.36 1428.69 2309.36 1439.78 Q2309.36 1450.33 2303.2 1458.02 Q2295.73 1467.47 2282.78 1467.47 Q2272.17 1467.47 2265.44 1461.53 Q2258.76 1455.58 2257.8 1445.77 Z" fill="#000000" fill-rule="nonzero" fill-opacity="1" /><path clip-path="url(#clip020)" d="M2318.22 1427.79 Q2318.22 1414 2321.03 1405.62 Q2323.89 1397.18 2329.46 1392.62 Q2335.08 1388.06 2343.57 1388.06 Q2349.83 1388.06 2354.55 1390.61 Q2359.27 1393.1 2362.35 1397.87 Q2365.42 1402.6 2367.17 1409.44 Q2368.92 1416.23 2368.92 1427.79 Q2368.92 1441.48 2366.11 1449.91 Q2363.3 1458.29 2357.68 1462.9 Q2352.11 1467.47 2343.57 1467.47 Q2332.32 1467.47 2325.91 1459.4 Q2318.22 1449.7 2318.22 1427.79 M2328.03 1427.79 Q2328.03 1446.94 2332.48 1453.3 Q2336.99 1459.62 2343.57 1459.62 Q2350.15 1459.62 2354.6 1453.25 Q2359.11 1446.89 2359.11 1427.79 Q2359.11 1408.59 2354.6 1402.28 Q2350.15 1395.96 2343.46 1395.96 Q2336.89 1395.96 2332.96 1401.53 Q2328.03 1408.64 2328.03 1427.79 Z" fill="#000000" fill-rule="nonzero" fill-opacity="1" /><path clip-path="url(#clip020)" d="M1267.34 1577.55 L1277.21 1578.77 Q1274.88 1587.42 1268.56 1592.19 Q1262.25 1596.96 1252.44 1596.96 Q1240.08 1596.96 1232.81 1589.38 Q1225.6 1581.74 1225.6 1568 Q1225.6 1553.79 1232.92 1545.94 Q1240.24 1538.09 1251.91 1538.09 Q1263.21 1538.09 1270.37 1545.78 Q1277.53 1553.47 1277.53 1567.42 Q1277.53 1568.27 1277.48 1569.97 L1235.47 1569.97 Q1236 1579.25 1240.72 1584.18 Q1245.44 1589.11 1252.49 1589.11 Q1257.74 1589.11 1261.46 1586.36 Q1265.17 1583.6 1267.34 1577.55 M1236 1562.12 L1267.45 1562.12 Q1266.81 1555.01 1263.84 1551.45 Q1259.28 1545.94 1252.01 1545.94 Q1245.44 1545.94 1240.93 1550.34 Q1236.47 1554.74 1236 1562.12 Z" fill="#000000" fill-rule="nonzero" fill-opacity="1" /><path clip-path="url(#clip020)" d="M1289.2 1617.28 L1289.2 1539.36 L1297.9 1539.36 L1297.9 1546.68 Q1300.97 1542.38 1304.85 1540.26 Q1308.72 1538.09 1314.23 1538.09 Q1321.45 1538.09 1326.96 1541.8 Q1332.48 1545.51 1335.29 1552.3 Q1338.1 1559.04 1338.1 1567.1 Q1338.1 1575.75 1334.97 1582.7 Q1331.9 1589.59 1325.96 1593.3 Q1320.07 1596.96 1313.54 1596.96 Q1308.77 1596.96 1304.95 1594.95 Q1301.19 1592.93 1298.75 1589.86 L1298.75 1617.28 L1289.2 1617.28 M1297.84 1567.84 Q1297.84 1578.72 1302.25 1583.92 Q1306.65 1589.11 1312.91 1589.11 Q1319.27 1589.11 1323.78 1583.76 Q1328.34 1578.35 1328.34 1567.05 Q1328.34 1556.28 1323.89 1550.92 Q1319.48 1545.57 1313.33 1545.57 Q1307.23 1545.57 1302.51 1551.3 Q1297.84 1556.97 1297.84 1567.84 Z" fill="#000000" fill-rule="nonzero" fill-opacity="1" /><path clip-path="url(#clip020)" d="M1346.06 1567.53 Q1346.06 1551.88 1354.76 1544.35 Q1362.02 1538.09 1372.47 1538.09 Q1384.09 1538.09 1391.46 1545.73 Q1398.84 1553.31 1398.84 1566.73 Q1398.84 1577.6 1395.55 1583.86 Q1392.31 1590.07 1386.05 1593.52 Q1379.85 1596.96 1372.47 1596.96 Q1360.65 1596.96 1353.33 1589.38 Q1346.06 1581.79 1346.06 1567.53 M1355.87 1567.53 Q1355.87 1578.35 1360.59 1583.76 Q1365.31 1589.11 1372.47 1589.11 Q1379.58 1589.11 1384.3 1583.7 Q1389.02 1578.29 1389.02 1567.21 Q1389.02 1556.76 1384.25 1551.4 Q1379.53 1545.99 1372.47 1545.99 Q1365.31 1545.99 1360.59 1551.35 Q1355.87 1556.71 1355.87 1567.53 Z" fill="#000000" fill-rule="nonzero" fill-opacity="1" /><path clip-path="url(#clip020)" d="M1446.79 1575.06 L1456.17 1576.28 Q1454.64 1585.99 1448.27 1591.5 Q1441.96 1596.96 1432.73 1596.96 Q1421.17 1596.96 1414.11 1589.43 Q1407.11 1581.85 1407.11 1567.74 Q1407.11 1558.62 1410.13 1551.77 Q1413.16 1544.93 1419.31 1541.54 Q1425.52 1538.09 1432.78 1538.09 Q1441.96 1538.09 1447.79 1542.76 Q1453.63 1547.37 1455.27 1555.91 L1445.99 1557.34 Q1444.66 1551.67 1441.27 1548.8 Q1437.93 1545.94 1433.15 1545.94 Q1425.94 1545.94 1421.43 1551.14 Q1416.92 1556.28 1416.92 1567.47 Q1416.92 1578.82 1421.27 1583.97 Q1425.62 1589.11 1432.62 1589.11 Q1438.25 1589.11 1442.01 1585.67 Q1445.78 1582.22 1446.79 1575.06 Z" fill="#000000" fill-rule="nonzero" fill-opacity="1" /><path clip-path="url(#clip020)" d="M1464.34 1595.69 L1464.34 1517.93 L1473.89 1517.93 L1473.89 1545.83 Q1480.57 1538.09 1490.76 1538.09 Q1497.02 1538.09 1501.63 1540.58 Q1506.25 1543.02 1508.21 1547.37 Q1510.22 1551.72 1510.22 1559.99 L1510.22 1595.69 L1500.68 1595.69 L1500.68 1559.99 Q1500.68 1552.83 1497.55 1549.6 Q1494.47 1546.31 1488.8 1546.31 Q1484.55 1546.31 1480.79 1548.54 Q1477.07 1550.71 1475.48 1554.48 Q1473.89 1558.24 1473.89 1564.87 L1473.89 1595.69 L1464.34 1595.69 Z" fill="#000000" fill-rule="nonzero" fill-opacity="1" /><polyline clip-path="url(#clip020)" style="stroke:#000000; stroke-linecap:round; stroke-linejoin:round; stroke-width:4; stroke-opacity:1; fill:none" points="383.069,1349.74 383.069,47.2441 "/>
<polyline clip-path="url(#clip020)" style="stroke:#000000; stroke-linecap:round; stroke-linejoin:round; stroke-width:2; stroke-opacity:0.5; fill:none" points="2352.76,1349.74 2352.76,47.2441 "/>
<polyline clip-path="url(#clip020)" style="stroke:#000000; stroke-linecap:round; stroke-linejoin:round; stroke-width:4; stroke-opacity:1; fill:none" points="383.069,1333.09 401.966,1333.09 "/>
<polyline clip-path="url(#clip020)" style="stroke:#000000; stroke-linecap:round; stroke-linejoin:round; stroke-width:4; stroke-opacity:1; fill:none" points="383.069,1035.55 401.966,1035.55 "/>
<polyline clip-path="url(#clip020)" style="stroke:#000000; stroke-linecap:round; stroke-linejoin:round; stroke-width:4; stroke-opacity:1; fill:none" points="383.069,738.005 401.966,738.005 "/>
<polyline clip-path="url(#clip020)" style="stroke:#000000; stroke-linecap:round; stroke-linejoin:round; stroke-width:4; stroke-opacity:1; fill:none" points="383.069,440.46 401.966,440.46 "/>
<polyline clip-path="url(#clip020)" style="stroke:#000000; stroke-linecap:round; stroke-linejoin:round; stroke-width:4; stroke-opacity:1; fill:none" points="383.069,142.915 401.966,142.915 "/>
<path clip-path="url(#clip020)" d="M144.5 1333.62 Q144.5 1319.83 147.311 1311.45 Q150.176 1303.02 155.745 1298.46 Q161.368 1293.9 169.854 1293.9 Q176.113 1293.9 180.834 1296.44 Q185.555 1298.94 188.631 1303.71 Q191.708 1308.43 193.458 1315.27 Q195.209 1322.06 195.209 1333.62 Q195.209 1347.31 192.397 1355.74 Q189.586 1364.12 183.964 1368.74 Q178.394 1373.3 169.854 1373.3 Q158.609 1373.3 152.191 1365.24 Q144.5 1355.53 144.5 1333.62 M154.313 1333.62 Q154.313 1352.77 158.769 1359.14 Q163.277 1365.45 169.854 1365.45 Q176.432 1365.45 180.887 1359.09 Q185.396 1352.72 185.396 1333.62 Q185.396 1314.42 180.887 1308.11 Q176.432 1301.8 169.748 1301.8 Q163.171 1301.8 159.246 1307.37 Q154.313 1314.48 154.313 1333.62 Z" fill="#000000" fill-rule="nonzero" fill-opacity="1" /><path clip-path="url(#clip020)" d="M210.273 1371.97 L210.273 1361.1 L221.146 1361.1 L221.146 1371.97 L210.273 1371.97 Z" fill="#000000" fill-rule="nonzero" fill-opacity="1" /><path clip-path="url(#clip020)" d="M235.096 1333.62 Q235.096 1319.83 237.908 1311.45 Q240.772 1303.02 246.341 1298.46 Q251.964 1293.9 260.451 1293.9 Q266.71 1293.9 271.43 1296.44 Q276.151 1298.94 279.228 1303.71 Q282.304 1308.43 284.054 1315.27 Q285.805 1322.06 285.805 1333.62 Q285.805 1347.31 282.994 1355.74 Q280.182 1364.12 274.56 1368.74 Q268.99 1373.3 260.451 1373.3 Q249.206 1373.3 242.788 1365.24 Q235.096 1355.53 235.096 1333.62 M244.909 1333.62 Q244.909 1352.77 249.365 1359.14 Q253.873 1365.45 260.451 1365.45 Q267.028 1365.45 271.483 1359.09 Q275.992 1352.72 275.992 1333.62 Q275.992 1314.42 271.483 1308.11 Q267.028 1301.8 260.345 1301.8 Q253.767 1301.8 249.842 1307.37 Q244.909 1314.48 244.909 1333.62 Z" fill="#000000" fill-rule="nonzero" fill-opacity="1" /><path clip-path="url(#clip020)" d="M295.512 1351.61 L305.537 1350.76 Q306.65 1358.08 310.682 1361.79 Q314.766 1365.45 320.494 1365.45 Q327.39 1365.45 332.164 1360.25 Q336.938 1355.05 336.938 1346.46 Q336.938 1338.29 332.323 1333.57 Q327.761 1328.85 320.335 1328.85 Q315.721 1328.85 312.008 1330.97 Q308.295 1333.04 306.173 1336.38 L297.209 1335.22 L304.741 1295.28 L343.409 1295.28 L343.409 1304.4 L312.379 1304.4 L308.189 1325.3 Q315.19 1320.42 322.881 1320.42 Q333.066 1320.42 340.067 1327.47 Q347.069 1334.53 347.069 1345.61 Q347.069 1356.17 340.916 1363.86 Q333.437 1373.3 320.494 1373.3 Q309.886 1373.3 303.15 1367.36 Q296.466 1361.42 295.512 1351.61 Z" fill="#000000" fill-rule="nonzero" fill-opacity="1" /><path clip-path="url(#clip020)" d="M145.349 1036.08 Q145.349 1022.29 148.16 1013.91 Q151.024 1005.47 156.594 1000.91 Q162.216 996.351 170.703 996.351 Q176.962 996.351 181.683 998.897 Q186.404 1001.39 189.48 1006.16 Q192.556 1010.88 194.307 1017.73 Q196.057 1024.52 196.057 1036.08 Q196.057 1049.76 193.246 1058.2 Q190.435 1066.58 184.812 1071.19 Q179.243 1075.76 170.703 1075.76 Q159.458 1075.76 153.04 1067.69 Q145.349 1057.99 145.349 1036.08 M155.162 1036.08 Q155.162 1055.23 159.617 1061.59 Q164.126 1067.91 170.703 1067.91 Q177.28 1067.91 181.736 1061.54 Q186.244 1055.18 186.244 1036.08 Q186.244 1016.88 181.736 1010.57 Q177.28 1004.25 170.597 1004.25 Q164.02 1004.25 160.095 1009.82 Q155.162 1016.93 155.162 1036.08 Z" fill="#000000" fill-rule="nonzero" fill-opacity="1" /><path clip-path="url(#clip020)" d="M211.121 1074.43 L211.121 1063.56 L221.995 1063.56 L221.995 1074.43 L211.121 1074.43 Z" fill="#000000" fill-rule="nonzero" fill-opacity="1" /><path clip-path="url(#clip020)" d="M271.908 1074.43 L262.36 1074.43 L262.36 1013.59 Q258.912 1016.88 253.29 1020.17 Q247.72 1023.46 243.265 1025.1 L243.265 1015.87 Q251.274 1012.1 257.268 1006.75 Q263.262 1001.39 265.755 996.351 L271.908 996.351 L271.908 1074.43 Z" fill="#000000" fill-rule="nonzero" fill-opacity="1" /><path clip-path="url(#clip020)" d="M296.36 1036.08 Q296.36 1022.29 299.171 1013.91 Q302.036 1005.47 307.605 1000.91 Q313.228 996.351 321.714 996.351 Q327.973 996.351 332.694 998.897 Q337.415 1001.39 340.491 1006.16 Q343.568 1010.88 345.318 1017.73 Q347.069 1024.52 347.069 1036.08 Q347.069 1049.76 344.257 1058.2 Q341.446 1066.58 335.824 1071.19 Q330.254 1075.76 321.714 1075.76 Q310.469 1075.76 304.051 1067.69 Q296.36 1057.99 296.36 1036.08 M306.173 1036.08 Q306.173 1055.23 310.629 1061.59 Q315.137 1067.91 321.714 1067.91 Q328.292 1067.91 332.747 1061.54 Q337.256 1055.18 337.256 1036.08 Q337.256 1016.88 332.747 1010.57 Q328.292 1004.25 321.608 1004.25 Q315.031 1004.25 311.106 1009.82 Q306.173 1016.93 306.173 1036.08 Z" fill="#000000" fill-rule="nonzero" fill-opacity="1" /><path clip-path="url(#clip020)" d="M144.5 738.535 Q144.5 724.744 147.311 716.363 Q150.176 707.93 155.745 703.368 Q161.368 698.806 169.854 698.806 Q176.113 698.806 180.834 701.352 Q185.555 703.845 188.631 708.619 Q191.708 713.34 193.458 720.182 Q195.209 726.972 195.209 738.535 Q195.209 752.22 192.397 760.654 Q189.586 769.034 183.964 773.649 Q178.394 778.211 169.854 778.211 Q158.609 778.211 152.191 770.148 Q144.5 760.441 144.5 738.535 M154.313 738.535 Q154.313 757.683 158.769 764.048 Q163.277 770.36 169.854 770.36 Q176.432 770.36 180.887 763.995 Q185.396 757.63 185.396 738.535 Q185.396 719.334 180.887 713.022 Q176.432 706.71 169.748 706.71 Q163.171 706.71 159.246 712.279 Q154.313 719.387 154.313 738.535 Z" fill="#000000" fill-rule="nonzero" fill-opacity="1" /><path clip-path="url(#clip020)" d="M210.273 776.885 L210.273 766.011 L221.146 766.011 L221.146 776.885 L210.273 776.885 Z" fill="#000000" fill-rule="nonzero" fill-opacity="1" /><path clip-path="url(#clip020)" d="M271.059 776.885 L261.511 776.885 L261.511 716.045 Q258.064 719.334 252.441 722.622 Q246.872 725.911 242.416 727.555 L242.416 718.326 Q250.426 714.56 256.419 709.203 Q262.413 703.845 264.906 698.806 L271.059 698.806 L271.059 776.885 Z" fill="#000000" fill-rule="nonzero" fill-opacity="1" /><path clip-path="url(#clip020)" d="M295.512 756.516 L305.537 755.668 Q306.65 762.988 310.682 766.7 Q314.766 770.36 320.494 770.36 Q327.39 770.36 332.164 765.162 Q336.938 759.964 336.938 751.371 Q336.938 743.203 332.323 738.482 Q327.761 733.761 320.335 733.761 Q315.721 733.761 312.008 735.883 Q308.295 737.952 306.173 741.293 L297.209 740.126 L304.741 700.185 L343.409 700.185 L343.409 709.309 L312.379 709.309 L308.189 730.207 Q315.19 725.327 322.881 725.327 Q333.066 725.327 340.067 732.382 Q347.069 739.437 347.069 750.523 Q347.069 761.078 340.916 768.769 Q333.437 778.211 320.494 778.211 Q309.886 778.211 303.15 772.27 Q296.466 766.329 295.512 756.516 Z" fill="#000000" fill-rule="nonzero" fill-opacity="1" /><path clip-path="url(#clip020)" d="M145.349 440.99 Q145.349 427.199 148.16 418.818 Q151.024 410.385 156.594 405.823 Q162.216 401.261 170.703 401.261 Q176.962 401.261 181.683 403.807 Q186.404 406.3 189.48 411.074 Q192.556 415.795 194.307 422.638 Q196.057 429.427 196.057 440.99 Q196.057 454.675 193.246 463.109 Q190.435 471.489 184.812 476.104 Q179.243 480.666 170.703 480.666 Q159.458 480.666 153.04 472.603 Q145.349 462.897 145.349 440.99 M155.162 440.99 Q155.162 460.138 159.617 466.503 Q164.126 472.816 170.703 472.816 Q177.28 472.816 181.736 466.45 Q186.244 460.085 186.244 440.99 Q186.244 421.789 181.736 415.477 Q177.28 409.165 170.597 409.165 Q164.02 409.165 160.095 414.734 Q155.162 421.842 155.162 440.99 Z" fill="#000000" fill-rule="nonzero" fill-opacity="1" /><path clip-path="url(#clip020)" d="M211.121 479.34 L211.121 468.466 L221.995 468.466 L221.995 479.34 L211.121 479.34 Z" fill="#000000" fill-rule="nonzero" fill-opacity="1" /><path clip-path="url(#clip020)" d="M286.123 470.163 L286.123 479.34 L234.725 479.34 Q234.619 475.892 235.839 472.709 Q237.802 467.458 242.098 462.366 Q246.447 457.274 254.616 450.591 Q267.293 440.195 271.749 434.148 Q276.204 428.048 276.204 422.638 Q276.204 416.962 272.12 413.09 Q268.089 409.165 261.564 409.165 Q254.669 409.165 250.532 413.302 Q246.394 417.439 246.341 424.759 L236.529 423.751 Q237.536 412.772 244.114 407.043 Q250.691 401.261 261.777 401.261 Q272.969 401.261 279.493 407.467 Q286.017 413.673 286.017 422.85 Q286.017 427.517 284.107 432.026 Q282.198 436.535 277.742 441.521 Q273.34 446.507 263.05 455.205 Q254.457 462.419 252.017 465.018 Q249.577 467.564 247.986 470.163 L286.123 470.163 Z" fill="#000000" fill-rule="nonzero" fill-opacity="1" /><path clip-path="url(#clip020)" d="M296.36 440.99 Q296.36 427.199 299.171 418.818 Q302.036 410.385 307.605 405.823 Q313.228 401.261 321.714 401.261 Q327.973 401.261 332.694 403.807 Q337.415 406.3 340.491 411.074 Q343.568 415.795 345.318 422.638 Q347.069 429.427 347.069 440.99 Q347.069 454.675 344.257 463.109 Q341.446 471.489 335.824 476.104 Q330.254 480.666 321.714 480.666 Q310.469 480.666 304.051 472.603 Q296.36 462.897 296.36 440.99 M306.173 440.99 Q306.173 460.138 310.629 466.503 Q315.137 472.816 321.714 472.816 Q328.292 472.816 332.747 466.45 Q337.256 460.085 337.256 440.99 Q337.256 421.789 332.747 415.477 Q328.292 409.165 321.608 409.165 Q315.031 409.165 311.106 414.734 Q306.173 421.842 306.173 440.99 Z" fill="#000000" fill-rule="nonzero" fill-opacity="1" /><path clip-path="url(#clip020)" d="M144.5 143.445 Q144.5 129.654 147.311 121.274 Q150.176 112.84 155.745 108.278 Q161.368 103.717 169.854 103.717 Q176.113 103.717 180.834 106.263 Q185.555 108.756 188.631 113.529 Q191.708 118.25 193.458 125.093 Q195.209 131.882 195.209 143.445 Q195.209 157.13 192.397 165.564 Q189.586 173.945 183.964 178.559 Q178.394 183.121 169.854 183.121 Q158.609 183.121 152.191 175.058 Q144.5 165.352 144.5 143.445 M154.313 143.445 Q154.313 162.594 158.769 168.959 Q163.277 175.271 169.854 175.271 Q176.432 175.271 180.887 168.906 Q185.396 162.541 185.396 143.445 Q185.396 124.244 180.887 117.932 Q176.432 111.62 169.748 111.62 Q163.171 111.62 159.246 117.189 Q154.313 124.297 154.313 143.445 Z" fill="#000000" fill-rule="nonzero" fill-opacity="1" /><path clip-path="url(#clip020)" d="M210.273 181.795 L210.273 170.921 L221.146 170.921 L221.146 181.795 L210.273 181.795 Z" fill="#000000" fill-rule="nonzero" fill-opacity="1" /><path clip-path="url(#clip020)" d="M285.274 172.619 L285.274 181.795 L233.876 181.795 Q233.77 178.347 234.99 175.165 Q236.953 169.913 241.249 164.821 Q245.599 159.729 253.767 153.046 Q266.444 142.65 270.9 136.603 Q275.355 130.503 275.355 125.093 Q275.355 119.417 271.271 115.545 Q267.24 111.62 260.716 111.62 Q253.82 111.62 249.683 115.757 Q245.546 119.895 245.493 127.214 L235.68 126.207 Q236.688 115.227 243.265 109.498 Q249.842 103.717 260.928 103.717 Q272.12 103.717 278.644 109.923 Q285.168 116.128 285.168 125.305 Q285.168 129.973 283.259 134.481 Q281.349 138.99 276.894 143.976 Q272.491 148.962 262.201 157.661 Q253.608 164.874 251.168 167.473 Q248.728 170.019 247.137 172.619 L285.274 172.619 Z" fill="#000000" fill-rule="nonzero" fill-opacity="1" /><path clip-path="url(#clip020)" d="M295.512 161.427 L305.537 160.578 Q306.65 167.898 310.682 171.611 Q314.766 175.271 320.494 175.271 Q327.39 175.271 332.164 170.073 Q336.938 164.874 336.938 156.282 Q336.938 148.113 332.323 143.392 Q327.761 138.671 320.335 138.671 Q315.721 138.671 312.008 140.793 Q308.295 142.862 306.173 146.203 L297.209 145.037 L304.741 105.096 L343.409 105.096 L343.409 114.219 L312.379 114.219 L308.189 135.118 Q315.19 130.238 322.881 130.238 Q333.066 130.238 340.067 137.292 Q347.069 144.347 347.069 155.433 Q347.069 165.988 340.916 173.679 Q333.437 183.121 320.494 183.121 Q309.886 183.121 303.15 177.18 Q296.466 171.239 295.512 161.427 Z" fill="#000000" fill-rule="nonzero" fill-opacity="1" /><path clip-path="url(#clip020)" d="M85.1722 789.513 L7.41216 789.513 L7.41216 779.965 L85.1722 779.965 L85.1722 789.513 Z" fill="#000000" fill-rule="nonzero" fill-opacity="1" /><path clip-path="url(#clip020)" d="M57.0067 768.72 Q41.3592 768.72 33.8272 760.021 Q27.5682 752.754 27.5682 742.305 Q27.5682 730.689 35.2063 723.316 Q42.7914 715.943 56.2111 715.943 Q67.0847 715.943 73.3437 719.232 Q79.5497 722.467 82.9974 728.726 Q86.4452 734.932 86.4452 742.305 Q86.4452 754.133 78.8601 761.453 Q71.2751 768.72 57.0067 768.72 M57.0067 758.907 Q67.8273 758.907 73.2376 754.186 Q78.5949 749.466 78.5949 742.305 Q78.5949 735.197 73.1846 730.476 Q67.7743 725.756 56.6884 725.756 Q46.2391 725.756 40.8818 730.53 Q35.4715 735.25 35.4715 742.305 Q35.4715 749.466 40.8288 754.186 Q46.1861 758.907 57.0067 758.907 Z" fill="#000000" fill-rule="nonzero" fill-opacity="1" /><path clip-path="url(#clip020)" d="M68.3578 708.57 L66.8726 699.128 Q72.5481 698.333 75.5715 694.726 Q78.5949 691.066 78.5949 684.542 Q78.5949 677.965 75.9428 674.782 Q73.2376 671.6 69.6308 671.6 Q66.3952 671.6 64.5387 674.411 Q63.2657 676.373 61.3031 684.171 Q58.651 694.673 56.7415 698.757 Q54.7789 702.788 51.3842 704.91 Q47.9365 706.979 43.7992 706.979 Q40.0332 706.979 36.8506 705.281 Q33.615 703.531 31.4934 700.561 Q29.849 698.333 28.7352 694.514 Q27.5682 690.642 27.5682 686.239 Q27.5682 679.609 29.4778 674.623 Q31.3873 669.584 34.6759 667.197 Q37.9115 664.81 43.3748 663.908 L44.6478 673.244 Q40.2984 673.88 37.8584 676.957 Q35.4185 679.98 35.4185 685.55 Q35.4185 692.127 37.5932 694.938 Q39.768 697.749 42.6853 697.749 Q44.5418 697.749 46.0269 696.582 Q47.5652 695.416 48.573 692.923 Q49.1034 691.49 51.0129 684.489 Q53.7181 674.358 55.4685 670.38 Q57.1658 666.348 60.4544 664.068 Q63.7431 661.787 68.623 661.787 Q73.3968 661.787 77.6402 664.598 Q81.8305 667.356 84.1644 672.607 Q86.4452 677.859 86.4452 684.489 Q86.4452 695.469 81.8835 701.25 Q77.3219 706.979 68.3578 708.57 Z" fill="#000000" fill-rule="nonzero" fill-opacity="1" /><path clip-path="url(#clip020)" d="M68.3578 654.255 L66.8726 644.813 Q72.5481 644.018 75.5715 640.411 Q78.5949 636.751 78.5949 630.227 Q78.5949 623.649 75.9428 620.467 Q73.2376 617.284 69.6308 617.284 Q66.3952 617.284 64.5387 620.095 Q63.2657 622.058 61.3031 629.855 Q58.651 640.358 56.7415 644.442 Q54.7789 648.473 51.3842 650.595 Q47.9365 652.663 43.7992 652.663 Q40.0332 652.663 36.8506 650.966 Q33.615 649.216 31.4934 646.245 Q29.849 644.018 28.7352 640.198 Q27.5682 636.326 27.5682 631.924 Q27.5682 625.294 29.4778 620.308 Q31.3873 615.269 34.6759 612.882 Q37.9115 610.495 43.3748 609.593 L44.6478 618.929 Q40.2984 619.565 37.8584 622.641 Q35.4185 625.665 35.4185 631.234 Q35.4185 637.812 37.5932 640.623 Q39.768 643.434 42.6853 643.434 Q44.5418 643.434 46.0269 642.267 Q47.5652 641.1 48.573 638.607 Q49.1034 637.175 51.0129 630.173 Q53.7181 620.042 55.4685 616.064 Q57.1658 612.033 60.4544 609.752 Q63.7431 607.471 68.623 607.471 Q73.3968 607.471 77.6402 610.283 Q81.8305 613.041 84.1644 618.292 Q86.4452 623.543 86.4452 630.173 Q86.4452 641.153 81.8835 646.935 Q77.3219 652.663 68.3578 654.255 Z" fill="#000000" fill-rule="nonzero" fill-opacity="1" /><polyline clip-path="url(#clip022)" style="stroke:#009af9; stroke-linecap:round; stroke-linejoin:round; stroke-width:8; stroke-opacity:1; fill:none" points="383.069,47.2441 422.462,245.784 461.856,283.024 501.25,333.727 540.644,390.621 580.037,446.913 619.431,500.637 658.825,550.509 698.219,595.679 737.612,635.169 777.006,668.491 816.4,696.288 855.794,719.954 895.187,740.131 934.581,757.648 973.975,772.996 1013.37,786.377 1052.76,798.338 1092.16,809.37 1131.55,819.604 1170.94,829.341 1210.34,838.988 1249.73,848.625 1289.12,859.44 1328.52,871.321 1367.91,884.939 1407.31,901.512 1446.7,921.721 1486.09,945.638 1525.49,973.726 1564.88,1006 1604.27,1040.73 1643.67,1076.47 1683.06,1111.02 1722.46,1142.59 1761.85,1170.29 1801.24,1194.13 1840.64,1213.46 1880.03,1229.1 1919.42,1241.66 1958.82,1251.33 1998.21,1258.67 2037.61,1264.23 2077,1268.64 2116.39,1272.05 2155.79,1274.65 2195.18,1276.66 2234.57,1278.19 2273.97,1279.45 2313.36,1280.48 2352.76,1281.29 "/>
<circle clip-path="url(#clip022)" cx="383.069" cy="47.2441" r="3.6" fill="#009af9" fill-rule="evenodd" fill-opacity="1" stroke="#000000" stroke-opacity="1" stroke-width="3.2"/>
<circle clip-path="url(#clip022)" cx="422.462" cy="245.784" r="3.6" fill="#009af9" fill-rule="evenodd" fill-opacity="1" stroke="#000000" stroke-opacity="1" stroke-width="3.2"/>
<circle clip-path="url(#clip022)" cx="461.856" cy="283.024" r="3.6" fill="#009af9" fill-rule="evenodd" fill-opacity="1" stroke="#000000" stroke-opacity="1" stroke-width="3.2"/>
<circle clip-path="url(#clip022)" cx="501.25" cy="333.727" r="3.6" fill="#009af9" fill-rule="evenodd" fill-opacity="1" stroke="#000000" stroke-opacity="1" stroke-width="3.2"/>
<circle clip-path="url(#clip022)" cx="540.644" cy="390.621" r="3.6" fill="#009af9" fill-rule="evenodd" fill-opacity="1" stroke="#000000" stroke-opacity="1" stroke-width="3.2"/>
<circle clip-path="url(#clip022)" cx="580.037" cy="446.913" r="3.6" fill="#009af9" fill-rule="evenodd" fill-opacity="1" stroke="#000000" stroke-opacity="1" stroke-width="3.2"/>
<circle clip-path="url(#clip022)" cx="619.431" cy="500.637" r="3.6" fill="#009af9" fill-rule="evenodd" fill-opacity="1" stroke="#000000" stroke-opacity="1" stroke-width="3.2"/>
<circle clip-path="url(#clip022)" cx="658.825" cy="550.509" r="3.6" fill="#009af9" fill-rule="evenodd" fill-opacity="1" stroke="#000000" stroke-opacity="1" stroke-width="3.2"/>
<circle clip-path="url(#clip022)" cx="698.219" cy="595.679" r="3.6" fill="#009af9" fill-rule="evenodd" fill-opacity="1" stroke="#000000" stroke-opacity="1" stroke-width="3.2"/>
<circle clip-path="url(#clip022)" cx="737.612" cy="635.169" r="3.6" fill="#009af9" fill-rule="evenodd" fill-opacity="1" stroke="#000000" stroke-opacity="1" stroke-width="3.2"/>
<circle clip-path="url(#clip022)" cx="777.006" cy="668.491" r="3.6" fill="#009af9" fill-rule="evenodd" fill-opacity="1" stroke="#000000" stroke-opacity="1" stroke-width="3.2"/>
<circle clip-path="url(#clip022)" cx="816.4" cy="696.288" r="3.6" fill="#009af9" fill-rule="evenodd" fill-opacity="1" stroke="#000000" stroke-opacity="1" stroke-width="3.2"/>
<circle clip-path="url(#clip022)" cx="855.794" cy="719.954" r="3.6" fill="#009af9" fill-rule="evenodd" fill-opacity="1" stroke="#000000" stroke-opacity="1" stroke-width="3.2"/>
<circle clip-path="url(#clip022)" cx="895.187" cy="740.131" r="3.6" fill="#009af9" fill-rule="evenodd" fill-opacity="1" stroke="#000000" stroke-opacity="1" stroke-width="3.2"/>
<circle clip-path="url(#clip022)" cx="934.581" cy="757.648" r="3.6" fill="#009af9" fill-rule="evenodd" fill-opacity="1" stroke="#000000" stroke-opacity="1" stroke-width="3.2"/>
<circle clip-path="url(#clip022)" cx="973.975" cy="772.996" r="3.6" fill="#009af9" fill-rule="evenodd" fill-opacity="1" stroke="#000000" stroke-opacity="1" stroke-width="3.2"/>
<circle clip-path="url(#clip022)" cx="1013.37" cy="786.377" r="3.6" fill="#009af9" fill-rule="evenodd" fill-opacity="1" stroke="#000000" stroke-opacity="1" stroke-width="3.2"/>
<circle clip-path="url(#clip022)" cx="1052.76" cy="798.338" r="3.6" fill="#009af9" fill-rule="evenodd" fill-opacity="1" stroke="#000000" stroke-opacity="1" stroke-width="3.2"/>
<circle clip-path="url(#clip022)" cx="1092.16" cy="809.37" r="3.6" fill="#009af9" fill-rule="evenodd" fill-opacity="1" stroke="#000000" stroke-opacity="1" stroke-width="3.2"/>
<circle clip-path="url(#clip022)" cx="1131.55" cy="819.604" r="3.6" fill="#009af9" fill-rule="evenodd" fill-opacity="1" stroke="#000000" stroke-opacity="1" stroke-width="3.2"/>
<circle clip-path="url(#clip022)" cx="1170.94" cy="829.341" r="3.6" fill="#009af9" fill-rule="evenodd" fill-opacity="1" stroke="#000000" stroke-opacity="1" stroke-width="3.2"/>
<circle clip-path="url(#clip022)" cx="1210.34" cy="838.988" r="3.6" fill="#009af9" fill-rule="evenodd" fill-opacity="1" stroke="#000000" stroke-opacity="1" stroke-width="3.2"/>
<circle clip-path="url(#clip022)" cx="1249.73" cy="848.625" r="3.6" fill="#009af9" fill-rule="evenodd" fill-opacity="1" stroke="#000000" stroke-opacity="1" stroke-width="3.2"/>
<circle clip-path="url(#clip022)" cx="1289.12" cy="859.44" r="3.6" fill="#009af9" fill-rule="evenodd" fill-opacity="1" stroke="#000000" stroke-opacity="1" stroke-width="3.2"/>
<circle clip-path="url(#clip022)" cx="1328.52" cy="871.321" r="3.6" fill="#009af9" fill-rule="evenodd" fill-opacity="1" stroke="#000000" stroke-opacity="1" stroke-width="3.2"/>
<circle clip-path="url(#clip022)" cx="1367.91" cy="884.939" r="3.6" fill="#009af9" fill-rule="evenodd" fill-opacity="1" stroke="#000000" stroke-opacity="1" stroke-width="3.2"/>
<circle clip-path="url(#clip022)" cx="1407.31" cy="901.512" r="3.6" fill="#009af9" fill-rule="evenodd" fill-opacity="1" stroke="#000000" stroke-opacity="1" stroke-width="3.2"/>
<circle clip-path="url(#clip022)" cx="1446.7" cy="921.721" r="3.6" fill="#009af9" fill-rule="evenodd" fill-opacity="1" stroke="#000000" stroke-opacity="1" stroke-width="3.2"/>
<circle clip-path="url(#clip022)" cx="1486.09" cy="945.638" r="3.6" fill="#009af9" fill-rule="evenodd" fill-opacity="1" stroke="#000000" stroke-opacity="1" stroke-width="3.2"/>
<circle clip-path="url(#clip022)" cx="1525.49" cy="973.726" r="3.6" fill="#009af9" fill-rule="evenodd" fill-opacity="1" stroke="#000000" stroke-opacity="1" stroke-width="3.2"/>
<circle clip-path="url(#clip022)" cx="1564.88" cy="1006" r="3.6" fill="#009af9" fill-rule="evenodd" fill-opacity="1" stroke="#000000" stroke-opacity="1" stroke-width="3.2"/>
<circle clip-path="url(#clip022)" cx="1604.27" cy="1040.73" r="3.6" fill="#009af9" fill-rule="evenodd" fill-opacity="1" stroke="#000000" stroke-opacity="1" stroke-width="3.2"/>
<circle clip-path="url(#clip022)" cx="1643.67" cy="1076.47" r="3.6" fill="#009af9" fill-rule="evenodd" fill-opacity="1" stroke="#000000" stroke-opacity="1" stroke-width="3.2"/>
<circle clip-path="url(#clip022)" cx="1683.06" cy="1111.02" r="3.6" fill="#009af9" fill-rule="evenodd" fill-opacity="1" stroke="#000000" stroke-opacity="1" stroke-width="3.2"/>
<circle clip-path="url(#clip022)" cx="1722.46" cy="1142.59" r="3.6" fill="#009af9" fill-rule="evenodd" fill-opacity="1" stroke="#000000" stroke-opacity="1" stroke-width="3.2"/>
<circle clip-path="url(#clip022)" cx="1761.85" cy="1170.29" r="3.6" fill="#009af9" fill-rule="evenodd" fill-opacity="1" stroke="#000000" stroke-opacity="1" stroke-width="3.2"/>
<circle clip-path="url(#clip022)" cx="1801.24" cy="1194.13" r="3.6" fill="#009af9" fill-rule="evenodd" fill-opacity="1" stroke="#000000" stroke-opacity="1" stroke-width="3.2"/>
<circle clip-path="url(#clip022)" cx="1840.64" cy="1213.46" r="3.6" fill="#009af9" fill-rule="evenodd" fill-opacity="1" stroke="#000000" stroke-opacity="1" stroke-width="3.2"/>
<circle clip-path="url(#clip022)" cx="1880.03" cy="1229.1" r="3.6" fill="#009af9" fill-rule="evenodd" fill-opacity="1" stroke="#000000" stroke-opacity="1" stroke-width="3.2"/>
<circle clip-path="url(#clip022)" cx="1919.42" cy="1241.66" r="3.6" fill="#009af9" fill-rule="evenodd" fill-opacity="1" stroke="#000000" stroke-opacity="1" stroke-width="3.2"/>
<circle clip-path="url(#clip022)" cx="1958.82" cy="1251.33" r="3.6" fill="#009af9" fill-rule="evenodd" fill-opacity="1" stroke="#000000" stroke-opacity="1" stroke-width="3.2"/>
<circle clip-path="url(#clip022)" cx="1998.21" cy="1258.67" r="3.6" fill="#009af9" fill-rule="evenodd" fill-opacity="1" stroke="#000000" stroke-opacity="1" stroke-width="3.2"/>
<circle clip-path="url(#clip022)" cx="2037.61" cy="1264.23" r="3.6" fill="#009af9" fill-rule="evenodd" fill-opacity="1" stroke="#000000" stroke-opacity="1" stroke-width="3.2"/>
<circle clip-path="url(#clip022)" cx="2077" cy="1268.64" r="3.6" fill="#009af9" fill-rule="evenodd" fill-opacity="1" stroke="#000000" stroke-opacity="1" stroke-width="3.2"/>
<circle clip-path="url(#clip022)" cx="2116.39" cy="1272.05" r="3.6" fill="#009af9" fill-rule="evenodd" fill-opacity="1" stroke="#000000" stroke-opacity="1" stroke-width="3.2"/>
<circle clip-path="url(#clip022)" cx="2155.79" cy="1274.65" r="3.6" fill="#009af9" fill-rule="evenodd" fill-opacity="1" stroke="#000000" stroke-opacity="1" stroke-width="3.2"/>
<circle clip-path="url(#clip022)" cx="2195.18" cy="1276.66" r="3.6" fill="#009af9" fill-rule="evenodd" fill-opacity="1" stroke="#000000" stroke-opacity="1" stroke-width="3.2"/>
<circle clip-path="url(#clip022)" cx="2234.57" cy="1278.19" r="3.6" fill="#009af9" fill-rule="evenodd" fill-opacity="1" stroke="#000000" stroke-opacity="1" stroke-width="3.2"/>
<circle clip-path="url(#clip022)" cx="2273.97" cy="1279.45" r="3.6" fill="#009af9" fill-rule="evenodd" fill-opacity="1" stroke="#000000" stroke-opacity="1" stroke-width="3.2"/>
<circle clip-path="url(#clip022)" cx="2313.36" cy="1280.48" r="3.6" fill="#009af9" fill-rule="evenodd" fill-opacity="1" stroke="#000000" stroke-opacity="1" stroke-width="3.2"/>
<circle clip-path="url(#clip022)" cx="2352.76" cy="1281.29" r="3.6" fill="#009af9" fill-rule="evenodd" fill-opacity="1" stroke="#000000" stroke-opacity="1" stroke-width="3.2"/>
<polyline clip-path="url(#clip022)" style="stroke:#e26f46; stroke-linecap:round; stroke-linejoin:round; stroke-width:8; stroke-opacity:1; fill:none" points="383.069,772.292 422.462,801.199 461.856,838.819 501.25,874.787 540.644,903.121 580.037,927.54 619.431,952.614 658.825,979.726 698.219,1006.42 737.612,1030.73 777.006,1052.07 816.4,1070.36 855.794,1086.03 895.187,1099.74 934.581,1111.47 973.975,1121.78 1013.37,1130.46 1052.76,1138.49 1092.16,1145.46 1131.55,1152.27 1170.94,1158.39 1210.34,1164.53 1249.73,1170.76 1289.12,1177.2 1328.52,1184.6 1367.91,1193.11 1407.31,1203.79 1446.7,1215.37 1486.09,1229.42 1525.49,1244.65 1564.88,1262.38 1604.27,1279.53 1643.67,1296.69 1683.06,1311.49 1722.46,1324.15 1761.85,1333.8 1801.24,1340.72 1840.64,1345.41 1880.03,1348.5 1919.42,1349.74 1958.82,1349.57 1998.21,1348.67 2037.61,1347.43 2077,1345.74 2116.39,1343.96 2155.79,1342.24 2195.18,1340.56 2234.57,1338.72 2273.97,1336.93 2313.36,1334.79 2352.76,1333.08 "/>
<circle clip-path="url(#clip022)" cx="383.069" cy="772.292" r="3.6" fill="#e26f46" fill-rule="evenodd" fill-opacity="1" stroke="#000000" stroke-opacity="1" stroke-width="3.2"/>
<circle clip-path="url(#clip022)" cx="422.462" cy="801.199" r="3.6" fill="#e26f46" fill-rule="evenodd" fill-opacity="1" stroke="#000000" stroke-opacity="1" stroke-width="3.2"/>
<circle clip-path="url(#clip022)" cx="461.856" cy="838.819" r="3.6" fill="#e26f46" fill-rule="evenodd" fill-opacity="1" stroke="#000000" stroke-opacity="1" stroke-width="3.2"/>
<circle clip-path="url(#clip022)" cx="501.25" cy="874.787" r="3.6" fill="#e26f46" fill-rule="evenodd" fill-opacity="1" stroke="#000000" stroke-opacity="1" stroke-width="3.2"/>
<circle clip-path="url(#clip022)" cx="540.644" cy="903.121" r="3.6" fill="#e26f46" fill-rule="evenodd" fill-opacity="1" stroke="#000000" stroke-opacity="1" stroke-width="3.2"/>
<circle clip-path="url(#clip022)" cx="580.037" cy="927.54" r="3.6" fill="#e26f46" fill-rule="evenodd" fill-opacity="1" stroke="#000000" stroke-opacity="1" stroke-width="3.2"/>
<circle clip-path="url(#clip022)" cx="619.431" cy="952.614" r="3.6" fill="#e26f46" fill-rule="evenodd" fill-opacity="1" stroke="#000000" stroke-opacity="1" stroke-width="3.2"/>
<circle clip-path="url(#clip022)" cx="658.825" cy="979.726" r="3.6" fill="#e26f46" fill-rule="evenodd" fill-opacity="1" stroke="#000000" stroke-opacity="1" stroke-width="3.2"/>
<circle clip-path="url(#clip022)" cx="698.219" cy="1006.42" r="3.6" fill="#e26f46" fill-rule="evenodd" fill-opacity="1" stroke="#000000" stroke-opacity="1" stroke-width="3.2"/>
<circle clip-path="url(#clip022)" cx="737.612" cy="1030.73" r="3.6" fill="#e26f46" fill-rule="evenodd" fill-opacity="1" stroke="#000000" stroke-opacity="1" stroke-width="3.2"/>
<circle clip-path="url(#clip022)" cx="777.006" cy="1052.07" r="3.6" fill="#e26f46" fill-rule="evenodd" fill-opacity="1" stroke="#000000" stroke-opacity="1" stroke-width="3.2"/>
<circle clip-path="url(#clip022)" cx="816.4" cy="1070.36" r="3.6" fill="#e26f46" fill-rule="evenodd" fill-opacity="1" stroke="#000000" stroke-opacity="1" stroke-width="3.2"/>
<circle clip-path="url(#clip022)" cx="855.794" cy="1086.03" r="3.6" fill="#e26f46" fill-rule="evenodd" fill-opacity="1" stroke="#000000" stroke-opacity="1" stroke-width="3.2"/>
<circle clip-path="url(#clip022)" cx="895.187" cy="1099.74" r="3.6" fill="#e26f46" fill-rule="evenodd" fill-opacity="1" stroke="#000000" stroke-opacity="1" stroke-width="3.2"/>
<circle clip-path="url(#clip022)" cx="934.581" cy="1111.47" r="3.6" fill="#e26f46" fill-rule="evenodd" fill-opacity="1" stroke="#000000" stroke-opacity="1" stroke-width="3.2"/>
<circle clip-path="url(#clip022)" cx="973.975" cy="1121.78" r="3.6" fill="#e26f46" fill-rule="evenodd" fill-opacity="1" stroke="#000000" stroke-opacity="1" stroke-width="3.2"/>
<circle clip-path="url(#clip022)" cx="1013.37" cy="1130.46" r="3.6" fill="#e26f46" fill-rule="evenodd" fill-opacity="1" stroke="#000000" stroke-opacity="1" stroke-width="3.2"/>
<circle clip-path="url(#clip022)" cx="1052.76" cy="1138.49" r="3.6" fill="#e26f46" fill-rule="evenodd" fill-opacity="1" stroke="#000000" stroke-opacity="1" stroke-width="3.2"/>
<circle clip-path="url(#clip022)" cx="1092.16" cy="1145.46" r="3.6" fill="#e26f46" fill-rule="evenodd" fill-opacity="1" stroke="#000000" stroke-opacity="1" stroke-width="3.2"/>
<circle clip-path="url(#clip022)" cx="1131.55" cy="1152.27" r="3.6" fill="#e26f46" fill-rule="evenodd" fill-opacity="1" stroke="#000000" stroke-opacity="1" stroke-width="3.2"/>
<circle clip-path="url(#clip022)" cx="1170.94" cy="1158.39" r="3.6" fill="#e26f46" fill-rule="evenodd" fill-opacity="1" stroke="#000000" stroke-opacity="1" stroke-width="3.2"/>
<circle clip-path="url(#clip022)" cx="1210.34" cy="1164.53" r="3.6" fill="#e26f46" fill-rule="evenodd" fill-opacity="1" stroke="#000000" stroke-opacity="1" stroke-width="3.2"/>
<circle clip-path="url(#clip022)" cx="1249.73" cy="1170.76" r="3.6" fill="#e26f46" fill-rule="evenodd" fill-opacity="1" stroke="#000000" stroke-opacity="1" stroke-width="3.2"/>
<circle clip-path="url(#clip022)" cx="1289.12" cy="1177.2" r="3.6" fill="#e26f46" fill-rule="evenodd" fill-opacity="1" stroke="#000000" stroke-opacity="1" stroke-width="3.2"/>
<circle clip-path="url(#clip022)" cx="1328.52" cy="1184.6" r="3.6" fill="#e26f46" fill-rule="evenodd" fill-opacity="1" stroke="#000000" stroke-opacity="1" stroke-width="3.2"/>
<circle clip-path="url(#clip022)" cx="1367.91" cy="1193.11" r="3.6" fill="#e26f46" fill-rule="evenodd" fill-opacity="1" stroke="#000000" stroke-opacity="1" stroke-width="3.2"/>
<circle clip-path="url(#clip022)" cx="1407.31" cy="1203.79" r="3.6" fill="#e26f46" fill-rule="evenodd" fill-opacity="1" stroke="#000000" stroke-opacity="1" stroke-width="3.2"/>
<circle clip-path="url(#clip022)" cx="1446.7" cy="1215.37" r="3.6" fill="#e26f46" fill-rule="evenodd" fill-opacity="1" stroke="#000000" stroke-opacity="1" stroke-width="3.2"/>
<circle clip-path="url(#clip022)" cx="1486.09" cy="1229.42" r="3.6" fill="#e26f46" fill-rule="evenodd" fill-opacity="1" stroke="#000000" stroke-opacity="1" stroke-width="3.2"/>
<circle clip-path="url(#clip022)" cx="1525.49" cy="1244.65" r="3.6" fill="#e26f46" fill-rule="evenodd" fill-opacity="1" stroke="#000000" stroke-opacity="1" stroke-width="3.2"/>
<circle clip-path="url(#clip022)" cx="1564.88" cy="1262.38" r="3.6" fill="#e26f46" fill-rule="evenodd" fill-opacity="1" stroke="#000000" stroke-opacity="1" stroke-width="3.2"/>
<circle clip-path="url(#clip022)" cx="1604.27" cy="1279.53" r="3.6" fill="#e26f46" fill-rule="evenodd" fill-opacity="1" stroke="#000000" stroke-opacity="1" stroke-width="3.2"/>
<circle clip-path="url(#clip022)" cx="1643.67" cy="1296.69" r="3.6" fill="#e26f46" fill-rule="evenodd" fill-opacity="1" stroke="#000000" stroke-opacity="1" stroke-width="3.2"/>
<circle clip-path="url(#clip022)" cx="1683.06" cy="1311.49" r="3.6" fill="#e26f46" fill-rule="evenodd" fill-opacity="1" stroke="#000000" stroke-opacity="1" stroke-width="3.2"/>
<circle clip-path="url(#clip022)" cx="1722.46" cy="1324.15" r="3.6" fill="#e26f46" fill-rule="evenodd" fill-opacity="1" stroke="#000000" stroke-opacity="1" stroke-width="3.2"/>
<circle clip-path="url(#clip022)" cx="1761.85" cy="1333.8" r="3.6" fill="#e26f46" fill-rule="evenodd" fill-opacity="1" stroke="#000000" stroke-opacity="1" stroke-width="3.2"/>
<circle clip-path="url(#clip022)" cx="1801.24" cy="1340.72" r="3.6" fill="#e26f46" fill-rule="evenodd" fill-opacity="1" stroke="#000000" stroke-opacity="1" stroke-width="3.2"/>
<circle clip-path="url(#clip022)" cx="1840.64" cy="1345.41" r="3.6" fill="#e26f46" fill-rule="evenodd" fill-opacity="1" stroke="#000000" stroke-opacity="1" stroke-width="3.2"/>
<circle clip-path="url(#clip022)" cx="1880.03" cy="1348.5" r="3.6" fill="#e26f46" fill-rule="evenodd" fill-opacity="1" stroke="#000000" stroke-opacity="1" stroke-width="3.2"/>
<circle clip-path="url(#clip022)" cx="1919.42" cy="1349.74" r="3.6" fill="#e26f46" fill-rule="evenodd" fill-opacity="1" stroke="#000000" stroke-opacity="1" stroke-width="3.2"/>
<circle clip-path="url(#clip022)" cx="1958.82" cy="1349.57" r="3.6" fill="#e26f46" fill-rule="evenodd" fill-opacity="1" stroke="#000000" stroke-opacity="1" stroke-width="3.2"/>
<circle clip-path="url(#clip022)" cx="1998.21" cy="1348.67" r="3.6" fill="#e26f46" fill-rule="evenodd" fill-opacity="1" stroke="#000000" stroke-opacity="1" stroke-width="3.2"/>
<circle clip-path="url(#clip022)" cx="2037.61" cy="1347.43" r="3.6" fill="#e26f46" fill-rule="evenodd" fill-opacity="1" stroke="#000000" stroke-opacity="1" stroke-width="3.2"/>
<circle clip-path="url(#clip022)" cx="2077" cy="1345.74" r="3.6" fill="#e26f46" fill-rule="evenodd" fill-opacity="1" stroke="#000000" stroke-opacity="1" stroke-width="3.2"/>
<circle clip-path="url(#clip022)" cx="2116.39" cy="1343.96" r="3.6" fill="#e26f46" fill-rule="evenodd" fill-opacity="1" stroke="#000000" stroke-opacity="1" stroke-width="3.2"/>
<circle clip-path="url(#clip022)" cx="2155.79" cy="1342.24" r="3.6" fill="#e26f46" fill-rule="evenodd" fill-opacity="1" stroke="#000000" stroke-opacity="1" stroke-width="3.2"/>
<circle clip-path="url(#clip022)" cx="2195.18" cy="1340.56" r="3.6" fill="#e26f46" fill-rule="evenodd" fill-opacity="1" stroke="#000000" stroke-opacity="1" stroke-width="3.2"/>
<circle clip-path="url(#clip022)" cx="2234.57" cy="1338.72" r="3.6" fill="#e26f46" fill-rule="evenodd" fill-opacity="1" stroke="#000000" stroke-opacity="1" stroke-width="3.2"/>
<circle clip-path="url(#clip022)" cx="2273.97" cy="1336.93" r="3.6" fill="#e26f46" fill-rule="evenodd" fill-opacity="1" stroke="#000000" stroke-opacity="1" stroke-width="3.2"/>
<circle clip-path="url(#clip022)" cx="2313.36" cy="1334.79" r="3.6" fill="#e26f46" fill-rule="evenodd" fill-opacity="1" stroke="#000000" stroke-opacity="1" stroke-width="3.2"/>
<circle clip-path="url(#clip022)" cx="2352.76" cy="1333.08" r="3.6" fill="#e26f46" fill-rule="evenodd" fill-opacity="1" stroke="#000000" stroke-opacity="1" stroke-width="3.2"/>
<path clip-path="url(#clip020)" d="M1631.32 440.581 L2287.1 440.581 L2287.1 90.6606 L1631.32 90.6606  Z" fill="#ffffff" fill-rule="evenodd" fill-opacity="1"/>
<polyline clip-path="url(#clip020)" style="stroke:#000000; stroke-linecap:round; stroke-linejoin:round; stroke-width:4; stroke-opacity:1; fill:none" points="1631.32,440.581 2287.1,440.581 2287.1,90.6606 1631.32,90.6606 1631.32,440.581 "/>
<polyline clip-path="url(#clip020)" style="stroke:#009af9; stroke-linecap:round; stroke-linejoin:round; stroke-width:18; stroke-opacity:1; fill:none" points="1653.2,207.301 1784.51,207.301 "/>
<circle clip-path="url(#clip020)" cx="1718.86" cy="207.301" r="8.10571" fill="#009af9" fill-rule="evenodd" fill-opacity="1" stroke="#000000" stroke-opacity="1" stroke-width="7.20507"/>
<path clip-path="url(#clip020)" d="M1832.5 237.641 L1833.87 246.075 Q1829.84 246.923 1826.66 246.923 Q1821.46 246.923 1818.6 245.279 Q1815.73 243.635 1814.57 240.982 Q1813.4 238.277 1813.4 229.684 L1813.4 197.276 L1806.4 197.276 L1806.4 189.85 L1813.4 189.85 L1813.4 175.9 L1822.89 170.171 L1822.89 189.85 L1832.5 189.85 L1832.5 197.276 L1822.89 197.276 L1822.89 230.215 Q1822.89 234.299 1823.37 235.466 Q1823.9 236.633 1825.02 237.323 Q1826.18 238.012 1828.3 238.012 Q1829.9 238.012 1832.5 237.641 Z" fill="#000000" fill-rule="nonzero" fill-opacity="1" /><path clip-path="url(#clip020)" d="M1841.72 246.181 L1841.72 189.85 L1850.32 189.85 L1850.32 198.39 Q1853.61 192.396 1856.36 190.486 Q1859.18 188.577 1862.52 188.577 Q1867.34 188.577 1872.33 191.653 L1869.04 200.511 Q1865.54 198.443 1862.04 198.443 Q1858.91 198.443 1856.42 200.352 Q1853.92 202.209 1852.86 205.55 Q1851.27 210.642 1851.27 216.689 L1851.27 246.181 L1841.72 246.181 Z" fill="#000000" fill-rule="nonzero" fill-opacity="1" /><path clip-path="url(#clip020)" d="M1914.76 239.232 Q1909.46 243.741 1904.53 245.597 Q1899.65 247.454 1894.02 247.454 Q1884.74 247.454 1879.76 242.945 Q1874.77 238.383 1874.77 231.329 Q1874.77 227.191 1876.63 223.797 Q1878.54 220.349 1881.56 218.28 Q1884.64 216.212 1888.45 215.151 Q1891.27 214.408 1896.94 213.719 Q1908.5 212.34 1913.97 210.43 Q1914.02 208.468 1914.02 207.937 Q1914.02 202.102 1911.32 199.716 Q1907.66 196.48 1900.44 196.48 Q1893.71 196.48 1890.47 198.867 Q1887.29 201.201 1885.75 207.195 L1876.41 205.922 Q1877.69 199.928 1880.6 196.268 Q1883.52 192.555 1889.04 190.592 Q1894.55 188.577 1901.82 188.577 Q1909.04 188.577 1913.54 190.274 Q1918.05 191.971 1920.17 194.57 Q1922.3 197.116 1923.14 201.042 Q1923.62 203.482 1923.62 209.847 L1923.62 222.577 Q1923.62 235.89 1924.21 239.444 Q1924.84 242.945 1926.65 246.181 L1916.67 246.181 Q1915.19 243.21 1914.76 239.232 M1913.97 217.909 Q1908.77 220.031 1898.37 221.516 Q1892.49 222.365 1890.05 223.425 Q1887.61 224.486 1886.28 226.555 Q1884.95 228.571 1884.95 231.064 Q1884.95 234.883 1887.82 237.429 Q1890.74 239.975 1896.31 239.975 Q1901.82 239.975 1906.12 237.588 Q1910.41 235.148 1912.43 230.957 Q1913.97 227.722 1913.97 221.41 L1913.97 217.909 Z" fill="#000000" fill-rule="nonzero" fill-opacity="1" /><path clip-path="url(#clip020)" d="M1938.47 179.4 L1938.47 168.421 L1948.02 168.421 L1948.02 179.4 L1938.47 179.4 M1938.47 246.181 L1938.47 189.85 L1948.02 189.85 L1948.02 246.181 L1938.47 246.181 Z" fill="#000000" fill-rule="nonzero" fill-opacity="1" /><path clip-path="url(#clip020)" d="M1962.55 246.181 L1962.55 189.85 L1971.15 189.85 L1971.15 197.859 Q1977.35 188.577 1989.08 188.577 Q1994.17 188.577 1998.41 190.433 Q2002.71 192.237 2004.83 195.207 Q2006.95 198.177 2007.8 202.262 Q2008.33 204.914 2008.33 211.544 L2008.33 246.181 L1998.78 246.181 L1998.78 211.915 Q1998.78 206.081 1997.67 203.216 Q1996.56 200.299 1993.69 198.602 Q1990.88 196.851 1987.06 196.851 Q1980.96 196.851 1976.51 200.723 Q1972.1 204.595 1972.1 215.416 L1972.1 246.181 L1962.55 246.181 Z" fill="#000000" fill-rule="nonzero" fill-opacity="1" /><path clip-path="url(#clip020)" d="M2014.17 267.769 L2014.17 260.873 L2077.44 260.873 L2077.44 267.769 L2014.17 267.769 Z" fill="#000000" fill-rule="nonzero" fill-opacity="1" /><path clip-path="url(#clip020)" d="M2083.17 246.181 L2083.17 168.421 L2092.72 168.421 L2092.72 246.181 L2083.17 246.181 Z" fill="#000000" fill-rule="nonzero" fill-opacity="1" /><path clip-path="url(#clip020)" d="M2103.97 218.015 Q2103.97 202.368 2112.66 194.836 Q2119.93 188.577 2130.38 188.577 Q2142 188.577 2149.37 196.215 Q2156.74 203.8 2156.74 217.22 Q2156.74 228.093 2153.45 234.352 Q2150.22 240.558 2143.96 244.006 Q2137.75 247.454 2130.38 247.454 Q2118.55 247.454 2111.23 239.869 Q2103.97 232.284 2103.97 218.015 M2113.78 218.015 Q2113.78 228.836 2118.5 234.246 Q2123.22 239.603 2130.38 239.603 Q2137.49 239.603 2142.21 234.193 Q2146.93 228.783 2146.93 217.697 Q2146.93 207.248 2142.16 201.89 Q2137.44 196.48 2130.38 196.48 Q2123.22 196.48 2118.5 201.837 Q2113.78 207.195 2113.78 218.015 Z" fill="#000000" fill-rule="nonzero" fill-opacity="1" /><path clip-path="url(#clip020)" d="M2164.12 229.366 L2173.56 227.881 Q2174.35 233.557 2177.96 236.58 Q2181.62 239.603 2188.14 239.603 Q2194.72 239.603 2197.9 236.951 Q2201.09 234.246 2201.09 230.639 Q2201.09 227.404 2198.27 225.547 Q2196.31 224.274 2188.52 222.312 Q2178.01 219.659 2173.93 217.75 Q2169.9 215.787 2167.78 212.393 Q2165.71 208.945 2165.71 204.808 Q2165.71 201.042 2167.4 197.859 Q2169.15 194.624 2172.13 192.502 Q2174.35 190.858 2178.17 189.744 Q2182.04 188.577 2186.45 188.577 Q2193.08 188.577 2198.06 190.486 Q2203.1 192.396 2205.49 195.684 Q2207.88 198.92 2208.78 204.383 L2199.44 205.656 Q2198.81 201.307 2195.73 198.867 Q2192.71 196.427 2187.14 196.427 Q2180.56 196.427 2177.75 198.602 Q2174.94 200.776 2174.94 203.694 Q2174.94 205.55 2176.1 207.035 Q2177.27 208.574 2179.76 209.581 Q2181.2 210.112 2188.2 212.021 Q2198.33 214.727 2202.31 216.477 Q2206.34 218.174 2208.62 221.463 Q2210.9 224.752 2210.9 229.631 Q2210.9 234.405 2208.09 238.649 Q2205.33 242.839 2200.08 245.173 Q2194.83 247.454 2188.2 247.454 Q2177.22 247.454 2171.44 242.892 Q2165.71 238.33 2164.12 229.366 Z" fill="#000000" fill-rule="nonzero" fill-opacity="1" /><path clip-path="url(#clip020)" d="M2218.43 229.366 L2227.87 227.881 Q2228.67 233.557 2232.27 236.58 Q2235.93 239.603 2242.46 239.603 Q2249.04 239.603 2252.22 236.951 Q2255.4 234.246 2255.4 230.639 Q2255.4 227.404 2252.59 225.547 Q2250.63 224.274 2242.83 222.312 Q2232.33 219.659 2228.24 217.75 Q2224.21 215.787 2222.09 212.393 Q2220.02 208.945 2220.02 204.808 Q2220.02 201.042 2221.72 197.859 Q2223.47 194.624 2226.44 192.502 Q2228.67 190.858 2232.49 189.744 Q2236.36 188.577 2240.76 188.577 Q2247.39 188.577 2252.38 190.486 Q2257.42 192.396 2259.8 195.684 Q2262.19 198.92 2263.09 204.383 L2253.76 205.656 Q2253.12 201.307 2250.04 198.867 Q2247.02 196.427 2241.45 196.427 Q2234.87 196.427 2232.06 198.602 Q2229.25 200.776 2229.25 203.694 Q2229.25 205.55 2230.42 207.035 Q2231.59 208.574 2234.08 209.581 Q2235.51 210.112 2242.51 212.021 Q2252.64 214.727 2256.62 216.477 Q2260.65 218.174 2262.93 221.463 Q2265.21 224.752 2265.21 229.631 Q2265.21 234.405 2262.4 238.649 Q2259.64 242.839 2254.39 245.173 Q2249.14 247.454 2242.51 247.454 Q2231.53 247.454 2225.75 242.892 Q2220.02 238.33 2218.43 229.366 Z" fill="#000000" fill-rule="nonzero" fill-opacity="1" /><polyline clip-path="url(#clip020)" style="stroke:#e26f46; stroke-linecap:round; stroke-linejoin:round; stroke-width:18; stroke-opacity:1; fill:none" points="1653.2,323.941 1784.51,323.941 "/>
<circle clip-path="url(#clip020)" cx="1718.86" cy="323.941" r="8.10571" fill="#e26f46" fill-rule="evenodd" fill-opacity="1" stroke="#000000" stroke-opacity="1" stroke-width="7.20507"/>
<path clip-path="url(#clip020)" d="M1827.83 362.821 L1806.4 306.49 L1816.48 306.49 L1828.57 340.225 Q1830.53 345.688 1832.18 351.576 Q1833.45 347.12 1835.73 340.861 L1848.25 306.49 L1858.06 306.49 L1836.74 362.821 L1827.83 362.821 Z" fill="#000000" fill-rule="nonzero" fill-opacity="1" /><path clip-path="url(#clip020)" d="M1903.25 355.872 Q1897.95 360.381 1893.02 362.237 Q1888.14 364.094 1882.51 364.094 Q1873.23 364.094 1868.25 359.585 Q1863.26 355.023 1863.26 347.969 Q1863.26 343.831 1865.12 340.437 Q1867.03 336.989 1870.05 334.92 Q1873.13 332.852 1876.94 331.791 Q1879.76 331.048 1885.43 330.359 Q1896.99 328.98 1902.46 327.07 Q1902.51 325.108 1902.51 324.577 Q1902.51 318.742 1899.81 316.356 Q1896.15 313.12 1888.93 313.12 Q1882.2 313.12 1878.96 315.507 Q1875.78 317.841 1874.24 323.835 L1864.9 322.562 Q1866.18 316.568 1869.09 312.908 Q1872.01 309.195 1877.53 307.232 Q1883.04 305.217 1890.31 305.217 Q1897.53 305.217 1902.03 306.914 Q1906.54 308.611 1908.66 311.21 Q1910.79 313.756 1911.63 317.682 Q1912.11 320.122 1912.11 326.487 L1912.11 339.217 Q1912.11 352.53 1912.7 356.084 Q1913.33 359.585 1915.14 362.821 L1905.16 362.821 Q1903.68 359.85 1903.25 355.872 M1902.46 334.549 Q1897.26 336.671 1886.86 338.156 Q1880.98 339.005 1878.54 340.065 Q1876.1 341.126 1874.77 343.195 Q1873.44 345.211 1873.44 347.704 Q1873.44 351.523 1876.31 354.069 Q1879.23 356.615 1884.79 356.615 Q1890.31 356.615 1894.61 354.228 Q1898.9 351.788 1900.92 347.597 Q1902.46 344.362 1902.46 338.05 L1902.46 334.549 Z" fill="#000000" fill-rule="nonzero" fill-opacity="1" /><path clip-path="url(#clip020)" d="M1926.7 362.821 L1926.7 285.061 L1936.25 285.061 L1936.25 362.821 L1926.7 362.821 Z" fill="#000000" fill-rule="nonzero" fill-opacity="1" /><path clip-path="url(#clip020)" d="M1942.24 384.409 L1942.24 377.513 L2005.52 377.513 L2005.52 384.409 L1942.24 384.409 Z" fill="#000000" fill-rule="nonzero" fill-opacity="1" /><path clip-path="url(#clip020)" d="M2011.25 362.821 L2011.25 285.061 L2020.8 285.061 L2020.8 362.821 L2011.25 362.821 Z" fill="#000000" fill-rule="nonzero" fill-opacity="1" /><path clip-path="url(#clip020)" d="M2032.04 334.655 Q2032.04 319.008 2040.74 311.476 Q2048.01 305.217 2058.46 305.217 Q2070.07 305.217 2077.44 312.855 Q2084.82 320.44 2084.82 333.86 Q2084.82 344.733 2081.53 350.992 Q2078.29 357.198 2072.03 360.646 Q2065.83 364.094 2058.46 364.094 Q2046.63 364.094 2039.31 356.509 Q2032.04 348.924 2032.04 334.655 M2041.85 334.655 Q2041.85 345.476 2046.57 350.886 Q2051.29 356.243 2058.46 356.243 Q2065.56 356.243 2070.28 350.833 Q2075 345.423 2075 334.337 Q2075 323.888 2070.23 318.53 Q2065.51 313.12 2058.46 313.12 Q2051.29 313.12 2046.57 318.477 Q2041.85 323.835 2041.85 334.655 Z" fill="#000000" fill-rule="nonzero" fill-opacity="1" /><path clip-path="url(#clip020)" d="M2092.19 346.006 L2101.63 344.521 Q2102.43 350.197 2106.03 353.22 Q2109.69 356.243 2116.22 356.243 Q2122.8 356.243 2125.98 353.591 Q2129.16 350.886 2129.16 347.279 Q2129.16 344.044 2126.35 342.187 Q2124.39 340.914 2116.59 338.952 Q2106.09 336.299 2102 334.39 Q2097.97 332.427 2095.85 329.033 Q2093.78 325.585 2093.78 321.448 Q2093.78 317.682 2095.48 314.499 Q2097.23 311.264 2100.2 309.142 Q2102.43 307.498 2106.25 306.384 Q2110.12 305.217 2114.52 305.217 Q2121.15 305.217 2126.14 307.126 Q2131.18 309.036 2133.56 312.324 Q2135.95 315.56 2136.85 321.023 L2127.52 322.296 Q2126.88 317.947 2123.8 315.507 Q2120.78 313.067 2115.21 313.067 Q2108.63 313.067 2105.82 315.242 Q2103.01 317.416 2103.01 320.334 Q2103.01 322.19 2104.18 323.675 Q2105.34 325.214 2107.84 326.221 Q2109.27 326.752 2116.27 328.661 Q2126.4 331.367 2130.38 333.117 Q2134.41 334.814 2136.69 338.103 Q2138.97 341.392 2138.97 346.271 Q2138.97 351.045 2136.16 355.289 Q2133.4 359.479 2128.15 361.813 Q2122.9 364.094 2116.27 364.094 Q2105.29 364.094 2099.51 359.532 Q2093.78 354.97 2092.19 346.006 Z" fill="#000000" fill-rule="nonzero" fill-opacity="1" /><path clip-path="url(#clip020)" d="M2146.51 346.006 L2155.95 344.521 Q2156.74 350.197 2160.35 353.22 Q2164.01 356.243 2170.53 356.243 Q2177.11 356.243 2180.29 353.591 Q2183.48 350.886 2183.48 347.279 Q2183.48 344.044 2180.66 342.187 Q2178.7 340.914 2170.91 338.952 Q2160.4 336.299 2156.32 334.39 Q2152.29 332.427 2150.17 329.033 Q2148.1 325.585 2148.1 321.448 Q2148.1 317.682 2149.79 314.499 Q2151.54 311.264 2154.51 309.142 Q2156.74 307.498 2160.56 306.384 Q2164.43 305.217 2168.84 305.217 Q2175.47 305.217 2180.45 307.126 Q2185.49 309.036 2187.88 312.324 Q2190.27 315.56 2191.17 321.023 L2181.83 322.296 Q2181.2 317.947 2178.12 315.507 Q2175.1 313.067 2169.53 313.067 Q2162.95 313.067 2160.14 315.242 Q2157.33 317.416 2157.33 320.334 Q2157.33 322.19 2158.49 323.675 Q2159.66 325.214 2162.15 326.221 Q2163.59 326.752 2170.59 328.661 Q2180.72 331.367 2184.7 333.117 Q2188.73 334.814 2191.01 338.103 Q2193.29 341.392 2193.29 346.271 Q2193.29 351.045 2190.48 355.289 Q2187.72 359.479 2182.47 361.813 Q2177.22 364.094 2170.59 364.094 Q2159.61 364.094 2153.83 359.532 Q2148.1 354.97 2146.51 346.006 Z" fill="#000000" fill-rule="nonzero" fill-opacity="1" /></svg>
