<?xml version="1.0" encoding="utf-8"?>
<svg xmlns="http://www.w3.org/2000/svg" xmlns:xlink="http://www.w3.org/1999/xlink" width="600" height="400" viewBox="0 0 2400 1600">
<defs>
  <clipPath id="clip950">
    <rect x="0" y="0" width="2400" height="1600"/>
  </clipPath>
</defs>
<path clip-path="url(#clip950)" d="M0 1600 L2400 1600 L2400 8.88178e-14 L0 8.88178e-14  Z" fill="#ffffff" fill-rule="evenodd" fill-opacity="1"/>
<defs>
  <clipPath id="clip951">
    <rect x="480" y="0" width="1681" height="1600"/>
  </clipPath>
</defs>
<path clip-path="url(#clip950)" d="M383.069 1349.74 L2352.76 1349.74 L2352.76 47.2441 L383.069 47.2441  Z" fill="#ffffff" fill-rule="evenodd" fill-opacity="1"/>
<defs>
  <clipPath id="clip952">
    <rect x="383" y="47" width="1971" height="1303"/>
  </clipPath>
</defs>
<polyline clip-path="url(#clip950)" style="stroke:#000000; stroke-linecap:round; stroke-linejoin:round; stroke-width:4; stroke-opacity:1; fill:none" points="383.069,1349.74 2352.76,1349.74 "/>
<polyline clip-path="url(#clip950)" style="stroke:#000000; stroke-linecap:round; stroke-linejoin:round; stroke-width:2; stroke-opacity:0.5; fill:none" points="383.069,47.2441 2352.76,47.2441 "/>
<polyline clip-path="url(#clip950)" style="stroke:#000000; stroke-linecap:round; stroke-linejoin:round; stroke-width:4; stroke-opacity:1; fill:none" points="761.089,1349.74 761.089,1330.84 "/>
<polyline clip-path="url(#clip950)" style="stroke:#000000; stroke-linecap:round; stroke-linejoin:round; stroke-width:4; stroke-opacity:1; fill:none" points="1159.01,1349.74 1159.01,1330.84 "/>
<polyline clip-path="url(#clip950)" style="stroke:#000000; stroke-linecap:round; stroke-linejoin:round; stroke-width:4; stroke-opacity:1; fill:none" points="1556.92,1349.74 1556.92,1330.84 "/>
<polyline clip-path="url(#clip950)" style="stroke:#000000; stroke-linecap:round; stroke-linejoin:round; stroke-width:4; stroke-opacity:1; fill:none" points="1954.84,1349.74 1954.84,1330.84 "/>
<polyline clip-path="url(#clip950)" style="stroke:#000000; stroke-linecap:round; stroke-linejoin:round; stroke-width:4; stroke-opacity:1; fill:none" points="2352.76,1349.74 2352.76,1330.84 "/>
<path clip-path="url(#clip950)" d="M756.369 1456.96 L756.369 1466.14 L704.971 1466.14 Q704.865 1462.69 706.085 1459.51 Q708.047 1454.26 712.344 1449.17 Q716.693 1444.07 724.862 1437.39 Q737.539 1426.99 741.994 1420.95 Q746.45 1414.85 746.45 1409.44 Q746.45 1403.76 742.366 1399.89 Q738.334 1395.96 731.81 1395.96 Q724.915 1395.96 720.777 1400.1 Q716.64 1404.24 716.587 1411.56 L706.774 1410.55 Q707.782 1399.57 714.359 1393.84 Q720.936 1388.06 732.022 1388.06 Q743.214 1388.06 749.738 1394.27 Q756.263 1400.47 756.263 1409.65 Q756.263 1414.32 754.353 1418.83 Q752.444 1423.33 747.988 1428.32 Q743.585 1433.31 733.295 1442.01 Q724.702 1449.22 722.262 1451.82 Q719.823 1454.36 718.231 1456.96 L756.369 1456.96 Z" fill="#000000" fill-rule="nonzero" fill-opacity="1" /><path clip-path="url(#clip950)" d="M766.606 1427.79 Q766.606 1414 769.417 1405.62 Q772.281 1397.18 777.851 1392.62 Q783.473 1388.06 791.96 1388.06 Q798.219 1388.06 802.94 1390.61 Q807.661 1393.1 810.737 1397.87 Q813.813 1402.6 815.564 1409.44 Q817.314 1416.23 817.314 1427.79 Q817.314 1441.48 814.503 1449.91 Q811.692 1458.29 806.069 1462.9 Q800.5 1467.47 791.96 1467.47 Q780.715 1467.47 774.297 1459.4 Q766.606 1449.7 766.606 1427.79 M776.419 1427.79 Q776.419 1446.94 780.874 1453.3 Q785.383 1459.62 791.96 1459.62 Q798.537 1459.62 802.993 1453.25 Q807.501 1446.89 807.501 1427.79 Q807.501 1408.59 802.993 1402.28 Q798.537 1395.96 791.854 1395.96 Q785.277 1395.96 781.352 1401.53 Q776.419 1408.64 776.419 1427.79 Z" fill="#000000" fill-rule="nonzero" fill-opacity="1" /><path clip-path="url(#clip950)" d="M1135.61 1466.14 L1135.61 1447.52 L1101.88 1447.52 L1101.88 1438.77 L1137.36 1388.38 L1145.16 1388.38 L1145.16 1438.77 L1155.66 1438.77 L1155.66 1447.52 L1145.16 1447.52 L1145.16 1466.14 L1135.61 1466.14 M1135.61 1438.77 L1135.61 1403.71 L1111.27 1438.77 L1135.61 1438.77 Z" fill="#000000" fill-rule="nonzero" fill-opacity="1" /><path clip-path="url(#clip950)" d="M1165.42 1427.79 Q1165.42 1414 1168.24 1405.62 Q1171.1 1397.18 1176.67 1392.62 Q1182.29 1388.06 1190.78 1388.06 Q1197.04 1388.06 1201.76 1390.61 Q1206.48 1393.1 1209.56 1397.87 Q1212.63 1402.6 1214.38 1409.44 Q1216.13 1416.23 1216.13 1427.79 Q1216.13 1441.48 1213.32 1449.91 Q1210.51 1458.29 1204.89 1462.9 Q1199.32 1467.47 1190.78 1467.47 Q1179.53 1467.47 1173.12 1459.4 Q1165.42 1449.7 1165.42 1427.79 M1175.24 1427.79 Q1175.24 1446.94 1179.69 1453.3 Q1184.2 1459.62 1190.78 1459.62 Q1197.36 1459.62 1201.81 1453.25 Q1206.32 1446.89 1206.32 1427.79 Q1206.32 1408.59 1201.81 1402.28 Q1197.36 1395.96 1190.67 1395.96 Q1184.1 1395.96 1180.17 1401.53 Q1175.24 1408.64 1175.24 1427.79 Z" fill="#000000" fill-rule="nonzero" fill-opacity="1" /><path clip-path="url(#clip950)" d="M1551.11 1407.42 L1541.62 1408.16 Q1540.35 1402.54 1538.01 1400 Q1534.14 1395.91 1528.47 1395.91 Q1523.9 1395.91 1520.46 1398.46 Q1515.95 1401.75 1513.35 1408.06 Q1510.75 1414.37 1510.64 1426.04 Q1514.09 1420.79 1519.08 1418.24 Q1524.06 1415.7 1529.53 1415.7 Q1539.07 1415.7 1545.76 1422.75 Q1552.49 1429.75 1552.49 1440.89 Q1552.49 1448.21 1549.31 1454.52 Q1546.18 1460.78 1540.67 1464.12 Q1535.15 1467.47 1528.15 1467.47 Q1516.21 1467.47 1508.68 1458.71 Q1501.15 1449.91 1501.15 1429.75 Q1501.15 1407.21 1509.48 1396.97 Q1516.74 1388.06 1529.05 1388.06 Q1538.23 1388.06 1544.06 1393.21 Q1549.95 1398.35 1551.11 1407.42 M1512.13 1440.94 Q1512.13 1445.88 1514.2 1450.39 Q1516.32 1454.89 1520.08 1457.28 Q1523.85 1459.62 1527.99 1459.62 Q1534.03 1459.62 1538.38 1454.74 Q1542.73 1449.86 1542.73 1441.48 Q1542.73 1433.41 1538.44 1428.8 Q1534.14 1424.13 1527.62 1424.13 Q1521.15 1424.13 1516.64 1428.8 Q1512.13 1433.41 1512.13 1440.94 Z" fill="#000000" fill-rule="nonzero" fill-opacity="1" /><path clip-path="url(#clip950)" d="M1561.99 1427.79 Q1561.99 1414 1564.8 1405.62 Q1567.66 1397.18 1573.23 1392.62 Q1578.86 1388.06 1587.34 1388.06 Q1593.6 1388.06 1598.32 1390.61 Q1603.04 1393.1 1606.12 1397.87 Q1609.2 1402.6 1610.95 1409.44 Q1612.7 1416.23 1612.7 1427.79 Q1612.7 1441.48 1609.89 1449.91 Q1607.07 1458.29 1601.45 1462.9 Q1595.88 1467.47 1587.34 1467.47 Q1576.1 1467.47 1569.68 1459.4 Q1561.99 1449.7 1561.99 1427.79 M1571.8 1427.79 Q1571.8 1446.94 1576.26 1453.3 Q1580.77 1459.62 1587.34 1459.62 Q1593.92 1459.62 1598.38 1453.25 Q1602.88 1446.89 1602.88 1427.79 Q1602.88 1408.59 1598.38 1402.28 Q1593.92 1395.96 1587.24 1395.96 Q1580.66 1395.96 1576.73 1401.53 Q1571.8 1408.64 1571.8 1427.79 Z" fill="#000000" fill-rule="nonzero" fill-opacity="1" /><path clip-path="url(#clip950)" d="M1914.02 1423.97 Q1908.08 1421.8 1905.22 1417.77 Q1902.35 1413.73 1902.35 1408.11 Q1902.35 1399.62 1908.45 1393.84 Q1914.55 1388.06 1924.68 1388.06 Q1934.87 1388.06 1941.07 1394 Q1947.28 1399.89 1947.28 1408.38 Q1947.28 1413.79 1944.42 1417.82 Q1941.61 1421.8 1935.82 1423.97 Q1942.98 1426.31 1946.7 1431.5 Q1950.46 1436.7 1950.46 1443.92 Q1950.46 1453.89 1943.41 1460.68 Q1936.35 1467.47 1924.84 1467.47 Q1913.33 1467.47 1906.28 1460.68 Q1899.22 1453.83 1899.22 1443.65 Q1899.22 1436.06 1903.04 1430.97 Q1906.92 1425.83 1914.02 1423.97 M1912.11 1407.79 Q1912.11 1413.31 1915.67 1416.81 Q1919.22 1420.31 1924.9 1420.31 Q1930.41 1420.31 1933.91 1416.86 Q1937.47 1413.36 1937.47 1408.32 Q1937.47 1403.07 1933.81 1399.52 Q1930.2 1395.91 1924.79 1395.91 Q1919.33 1395.91 1915.72 1399.41 Q1912.11 1402.91 1912.11 1407.79 M1909.04 1443.7 Q1909.04 1447.79 1910.95 1451.61 Q1912.91 1455.43 1916.73 1457.55 Q1920.55 1459.62 1924.95 1459.62 Q1931.79 1459.62 1936.25 1455.21 Q1940.7 1450.81 1940.7 1444.02 Q1940.7 1437.13 1936.09 1432.62 Q1931.53 1428.11 1924.63 1428.11 Q1917.9 1428.11 1913.44 1432.56 Q1909.04 1437.02 1909.04 1443.7 Z" fill="#000000" fill-rule="nonzero" fill-opacity="1" /><path clip-path="url(#clip950)" d="M1959.75 1427.79 Q1959.75 1414 1962.56 1405.62 Q1965.42 1397.18 1970.99 1392.62 Q1976.61 1388.06 1985.1 1388.06 Q1991.36 1388.06 1996.08 1390.61 Q2000.8 1393.1 2003.88 1397.87 Q2006.95 1402.6 2008.7 1409.44 Q2010.45 1416.23 2010.45 1427.79 Q2010.45 1441.48 2007.64 1449.91 Q2004.83 1458.29 1999.21 1462.9 Q1993.64 1467.47 1985.1 1467.47 Q1973.85 1467.47 1967.44 1459.4 Q1959.75 1449.7 1959.75 1427.79 M1969.56 1427.79 Q1969.56 1446.94 1974.01 1453.3 Q1978.52 1459.62 1985.1 1459.62 Q1991.68 1459.62 1996.13 1453.25 Q2000.64 1446.89 2000.64 1427.79 Q2000.64 1408.59 1996.13 1402.28 Q1991.68 1395.96 1984.99 1395.96 Q1978.42 1395.96 1974.49 1401.53 Q1969.56 1408.64 1969.56 1427.79 Z" fill="#000000" fill-rule="nonzero" fill-opacity="1" /><path clip-path="url(#clip950)" d="M2299.29 1466.14 L2289.74 1466.14 L2289.74 1405.3 Q2286.29 1408.59 2280.67 1411.88 Q2275.1 1415.17 2270.65 1416.81 L2270.65 1407.58 Q2278.66 1403.82 2284.65 1398.46 Q2290.64 1393.1 2293.14 1388.06 L2299.29 1388.06 L2299.29 1466.14 Z" fill="#000000" fill-rule="nonzero" fill-opacity="1" /><path clip-path="url(#clip950)" d="M2323.74 1427.79 Q2323.74 1414 2326.55 1405.62 Q2329.42 1397.18 2334.99 1392.62 Q2340.61 1388.06 2349.1 1388.06 Q2355.35 1388.06 2360.08 1390.61 Q2364.8 1393.1 2367.87 1397.87 Q2370.95 1402.6 2372.7 1409.44 Q2374.45 1416.23 2374.45 1427.79 Q2374.45 1441.48 2371.64 1449.91 Q2368.83 1458.29 2363.21 1462.9 Q2357.64 1467.47 2349.1 1467.47 Q2337.85 1467.47 2331.43 1459.4 Q2323.74 1449.7 2323.74 1427.79 M2333.55 1427.79 Q2333.55 1446.94 2338.01 1453.3 Q2342.52 1459.62 2349.1 1459.62 Q2355.67 1459.62 2360.13 1453.25 Q2364.64 1446.89 2364.64 1427.79 Q2364.64 1408.59 2360.13 1402.28 Q2355.67 1395.96 2348.99 1395.96 Q2342.41 1395.96 2338.49 1401.53 Q2333.55 1408.64 2333.55 1427.79 Z" fill="#000000" fill-rule="nonzero" fill-opacity="1" /><path clip-path="url(#clip950)" d="M2384.16 1427.79 Q2384.16 1414 2386.97 1405.62 Q2389.83 1397.18 2395.4 1392.62 Q2401.02 1388.06 2409.51 1388.06 Q2415.77 1388.06 2420.49 1390.61 Q2425.21 1393.1 2428.29 1397.87 Q2431.36 1402.6 2433.11 1409.44 Q2434.87 1416.23 2434.87 1427.79 Q2434.87 1441.48 2432.05 1449.91 Q2429.24 1458.29 2423.62 1462.9 Q2418.05 1467.47 2409.51 1467.47 Q2398.27 1467.47 2391.85 1459.4 Q2384.16 1449.7 2384.16 1427.79 M2393.97 1427.79 Q2393.97 1446.94 2398.43 1453.3 Q2402.93 1459.62 2409.51 1459.62 Q2416.09 1459.62 2420.54 1453.25 Q2425.05 1446.89 2425.05 1427.79 Q2425.05 1408.59 2420.54 1402.28 Q2416.09 1395.96 2409.41 1395.96 Q2402.83 1395.96 2398.9 1401.53 Q2393.97 1408.64 2393.97 1427.79 Z" fill="#000000" fill-rule="nonzero" fill-opacity="1" /><path clip-path="url(#clip950)" d="M1267.34 1577.55 L1277.21 1578.77 Q1274.88 1587.42 1268.56 1592.19 Q1262.25 1596.96 1252.44 1596.96 Q1240.08 1596.96 1232.81 1589.38 Q1225.6 1581.74 1225.6 1568 Q1225.6 1553.79 1232.92 1545.94 Q1240.24 1538.09 1251.91 1538.09 Q1263.21 1538.09 1270.37 1545.78 Q1277.53 1553.47 1277.53 1567.42 Q1277.53 1568.27 1277.48 1569.97 L1235.47 1569.97 Q1236 1579.25 1240.72 1584.18 Q1245.44 1589.11 1252.49 1589.11 Q1257.74 1589.11 1261.46 1586.36 Q1265.17 1583.6 1267.34 1577.55 M1236 1562.12 L1267.45 1562.12 Q1266.81 1555.01 1263.84 1551.45 Q1259.28 1545.94 1252.01 1545.94 Q1245.44 1545.94 1240.93 1550.34 Q1236.47 1554.74 1236 1562.12 Z" fill="#000000" fill-rule="nonzero" fill-opacity="1" /><path clip-path="url(#clip950)" d="M1289.2 1617.28 L1289.2 1539.36 L1297.9 1539.36 L1297.9 1546.68 Q1300.97 1542.38 1304.85 1540.26 Q1308.72 1538.09 1314.23 1538.09 Q1321.45 1538.09 1326.96 1541.8 Q1332.48 1545.51 1335.29 1552.3 Q1338.1 1559.04 1338.1 1567.1 Q1338.1 1575.75 1334.97 1582.7 Q1331.9 1589.59 1325.96 1593.3 Q1320.07 1596.96 1313.54 1596.96 Q1308.77 1596.96 1304.95 1594.95 Q1301.19 1592.93 1298.75 1589.86 L1298.75 1617.28 L1289.2 1617.28 M1297.84 1567.84 Q1297.84 1578.72 1302.25 1583.92 Q1306.65 1589.11 1312.91 1589.11 Q1319.27 1589.11 1323.78 1583.76 Q1328.34 1578.35 1328.34 1567.05 Q1328.34 1556.28 1323.89 1550.92 Q1319.48 1545.57 1313.33 1545.57 Q1307.23 1545.57 1302.51 1551.3 Q1297.84 1556.97 1297.84 1567.84 Z" fill="#000000" fill-rule="nonzero" fill-opacity="1" /><path clip-path="url(#clip950)" d="M1346.06 1567.53 Q1346.06 1551.88 1354.76 1544.35 Q1362.02 1538.09 1372.47 1538.09 Q1384.09 1538.09 1391.46 1545.73 Q1398.84 1553.31 1398.84 1566.73 Q1398.84 1577.6 1395.55 1583.86 Q1392.31 1590.07 1386.05 1593.52 Q1379.85 1596.96 1372.47 1596.96 Q1360.65 1596.96 1353.33 1589.38 Q1346.06 1581.79 1346.06 1567.53 M1355.87 1567.53 Q1355.87 1578.35 1360.59 1583.76 Q1365.31 1589.11 1372.47 1589.11 Q1379.58 1589.11 1384.3 1583.7 Q1389.02 1578.29 1389.02 1567.21 Q1389.02 1556.76 1384.25 1551.4 Q1379.53 1545.99 1372.47 1545.99 Q1365.31 1545.99 1360.59 1551.35 Q1355.87 1556.71 1355.87 1567.53 Z" fill="#000000" fill-rule="nonzero" fill-opacity="1" /><path clip-path="url(#clip950)" d="M1446.79 1575.06 L1456.17 1576.28 Q1454.64 1585.99 1448.27 1591.5 Q1441.96 1596.96 1432.73 1596.96 Q1421.17 1596.96 1414.11 1589.43 Q1407.11 1581.85 1407.11 1567.74 Q1407.11 1558.62 1410.13 1551.77 Q1413.16 1544.93 1419.31 1541.54 Q1425.52 1538.09 1432.78 1538.09 Q1441.96 1538.09 1447.79 1542.76 Q1453.63 1547.37 1455.27 1555.91 L1445.99 1557.34 Q1444.66 1551.67 1441.27 1548.8 Q1437.93 1545.94 1433.15 1545.94 Q1425.94 1545.94 1421.43 1551.14 Q1416.92 1556.28 1416.92 1567.47 Q1416.92 1578.82 1421.27 1583.97 Q1425.62 1589.11 1432.62 1589.11 Q1438.25 1589.11 1442.01 1585.67 Q1445.78 1582.22 1446.79 1575.06 Z" fill="#000000" fill-rule="nonzero" fill-opacity="1" /><path clip-path="url(#clip950)" d="M1464.34 1595.69 L1464.34 1517.93 L1473.89 1517.93 L1473.89 1545.83 Q1480.57 1538.09 1490.76 1538.09 Q1497.02 1538.09 1501.63 1540.58 Q1506.25 1543.02 1508.21 1547.37 Q1510.22 1551.72 1510.22 1559.99 L1510.22 1595.69 L1500.68 1595.69 L1500.68 1559.99 Q1500.68 1552.83 1497.55 1549.6 Q1494.47 1546.31 1488.8 1546.31 Q1484.55 1546.31 1480.79 1548.54 Q1477.07 1550.71 1475.48 1554.48 Q1473.89 1558.24 1473.89 1564.87 L1473.89 1595.69 L1464.34 1595.69 Z" fill="#000000" fill-rule="nonzero" fill-opacity="1" /><polyline clip-path="url(#clip950)" style="stroke:#000000; stroke-linecap:round; stroke-linejoin:round; stroke-width:4; stroke-opacity:1; fill:none" points="383.069,1349.74 383.069,47.2441 "/>
<polyline clip-path="url(#clip950)" style="stroke:#000000; stroke-linecap:round; stroke-linejoin:round; stroke-width:2; stroke-opacity:0.5; fill:none" points="2352.76,1349.74 2352.76,47.2441 "/>
<polyline clip-path="url(#clip950)" style="stroke:#000000; stroke-linecap:round; stroke-linejoin:round; stroke-width:4; stroke-opacity:1; fill:none" points="383.069,1207.04 401.966,1207.04 "/>
<polyline clip-path="url(#clip950)" style="stroke:#000000; stroke-linecap:round; stroke-linejoin:round; stroke-width:4; stroke-opacity:1; fill:none" points="383.069,851.182 401.966,851.182 "/>
<polyline clip-path="url(#clip950)" style="stroke:#000000; stroke-linecap:round; stroke-linejoin:round; stroke-width:4; stroke-opacity:1; fill:none" points="383.069,495.321 401.966,495.321 "/>
<polyline clip-path="url(#clip950)" style="stroke:#000000; stroke-linecap:round; stroke-linejoin:round; stroke-width:4; stroke-opacity:1; fill:none" points="383.069,139.461 401.966,139.461 "/>
<path clip-path="url(#clip950)" d="M145.349 1207.57 Q145.349 1193.78 148.16 1185.4 Q151.024 1176.97 156.594 1172.41 Q162.216 1167.84 170.703 1167.84 Q176.962 1167.84 181.683 1170.39 Q186.404 1172.88 189.48 1177.66 Q192.556 1182.38 194.307 1189.22 Q196.057 1196.01 196.057 1207.57 Q196.057 1221.26 193.246 1229.69 Q190.435 1238.07 184.812 1242.69 Q179.243 1247.25 170.703 1247.25 Q159.458 1247.25 153.04 1239.19 Q145.349 1229.48 145.349 1207.57 M155.162 1207.57 Q155.162 1226.72 159.617 1233.09 Q164.126 1239.4 170.703 1239.4 Q177.28 1239.4 181.736 1233.03 Q186.244 1226.67 186.244 1207.57 Q186.244 1188.37 181.736 1182.06 Q177.28 1175.75 170.597 1175.75 Q164.02 1175.75 160.095 1181.32 Q155.162 1188.42 155.162 1207.57 Z" fill="#000000" fill-rule="nonzero" fill-opacity="1" /><path clip-path="url(#clip950)" d="M211.121 1245.92 L211.121 1235.05 L221.995 1235.05 L221.995 1245.92 L211.121 1245.92 Z" fill="#000000" fill-rule="nonzero" fill-opacity="1" /><path clip-path="url(#clip950)" d="M271.908 1245.92 L262.36 1245.92 L262.36 1185.08 Q258.912 1188.37 253.29 1191.66 Q247.72 1194.95 243.265 1196.59 L243.265 1187.36 Q251.274 1183.6 257.268 1178.24 Q263.262 1172.88 265.755 1167.84 L271.908 1167.84 L271.908 1245.92 Z" fill="#000000" fill-rule="nonzero" fill-opacity="1" /><path clip-path="url(#clip950)" d="M296.36 1207.57 Q296.36 1193.78 299.171 1185.4 Q302.036 1176.97 307.605 1172.41 Q313.228 1167.84 321.714 1167.84 Q327.973 1167.84 332.694 1170.39 Q337.415 1172.88 340.491 1177.66 Q343.568 1182.38 345.318 1189.22 Q347.069 1196.01 347.069 1207.57 Q347.069 1221.26 344.257 1229.69 Q341.446 1238.07 335.824 1242.69 Q330.254 1247.25 321.714 1247.25 Q310.469 1247.25 304.051 1239.19 Q296.36 1229.48 296.36 1207.57 M306.173 1207.57 Q306.173 1226.72 310.629 1233.09 Q315.137 1239.4 321.714 1239.4 Q328.292 1239.4 332.747 1233.03 Q337.256 1226.67 337.256 1207.57 Q337.256 1188.37 332.747 1182.06 Q328.292 1175.75 321.608 1175.75 Q315.031 1175.75 311.106 1181.32 Q306.173 1188.42 306.173 1207.57 Z" fill="#000000" fill-rule="nonzero" fill-opacity="1" /><path clip-path="url(#clip950)" d="M144.5 851.712 Q144.5 837.921 147.311 829.541 Q150.176 821.107 155.745 816.545 Q161.368 811.984 169.854 811.984 Q176.113 811.984 180.834 814.53 Q185.555 817.023 188.631 821.797 Q191.708 826.517 193.458 833.36 Q195.209 840.149 195.209 851.712 Q195.209 865.397 192.397 873.831 Q189.586 882.212 183.964 886.826 Q178.394 891.388 169.854 891.388 Q158.609 891.388 152.191 883.326 Q144.5 873.619 144.5 851.712 M154.313 851.712 Q154.313 870.861 158.769 877.226 Q163.277 883.538 169.854 883.538 Q176.432 883.538 180.887 877.173 Q185.396 870.808 185.396 851.712 Q185.396 832.511 180.887 826.199 Q176.432 819.887 169.748 819.887 Q163.171 819.887 159.246 825.456 Q154.313 832.564 154.313 851.712 Z" fill="#000000" fill-rule="nonzero" fill-opacity="1" /><path clip-path="url(#clip950)" d="M210.273 890.062 L210.273 879.188 L221.146 879.188 L221.146 890.062 L210.273 890.062 Z" fill="#000000" fill-rule="nonzero" fill-opacity="1" /><path clip-path="url(#clip950)" d="M271.059 890.062 L261.511 890.062 L261.511 829.222 Q258.064 832.511 252.441 835.8 Q246.872 839.088 242.416 840.733 L242.416 831.503 Q250.426 827.737 256.419 822.38 Q262.413 817.023 264.906 811.984 L271.059 811.984 L271.059 890.062 Z" fill="#000000" fill-rule="nonzero" fill-opacity="1" /><path clip-path="url(#clip950)" d="M295.512 869.694 L305.537 868.845 Q306.65 876.165 310.682 879.878 Q314.766 883.538 320.494 883.538 Q327.39 883.538 332.164 878.34 Q336.938 873.142 336.938 864.549 Q336.938 856.38 332.323 851.659 Q327.761 846.939 320.335 846.939 Q315.721 846.939 312.008 849.06 Q308.295 851.129 306.173 854.471 L297.209 853.304 L304.741 813.363 L343.409 813.363 L343.409 822.486 L312.379 822.486 L308.189 843.385 Q315.19 838.505 322.881 838.505 Q333.066 838.505 340.067 845.56 Q347.069 852.614 347.069 863.7 Q347.069 874.255 340.916 881.947 Q333.437 891.388 320.494 891.388 Q309.886 891.388 303.15 885.447 Q296.466 879.507 295.512 869.694 Z" fill="#000000" fill-rule="nonzero" fill-opacity="1" /><path clip-path="url(#clip950)" d="M145.349 495.852 Q145.349 482.061 148.16 473.68 Q151.024 465.246 156.594 460.685 Q162.216 456.123 170.703 456.123 Q176.962 456.123 181.683 458.669 Q186.404 461.162 189.48 465.936 Q192.556 470.657 194.307 477.499 Q196.057 484.289 196.057 495.852 Q196.057 509.537 193.246 517.97 Q190.435 526.351 184.812 530.966 Q179.243 535.527 170.703 535.527 Q159.458 535.527 153.04 527.465 Q145.349 517.758 145.349 495.852 M155.162 495.852 Q155.162 515 159.617 521.365 Q164.126 527.677 170.703 527.677 Q177.28 527.677 181.736 521.312 Q186.244 514.947 186.244 495.852 Q186.244 476.651 181.736 470.338 Q177.28 464.026 170.597 464.026 Q164.02 464.026 160.095 469.596 Q155.162 476.704 155.162 495.852 Z" fill="#000000" fill-rule="nonzero" fill-opacity="1" /><path clip-path="url(#clip950)" d="M211.121 534.201 L211.121 523.328 L221.995 523.328 L221.995 534.201 L211.121 534.201 Z" fill="#000000" fill-rule="nonzero" fill-opacity="1" /><path clip-path="url(#clip950)" d="M286.123 525.025 L286.123 534.201 L234.725 534.201 Q234.619 530.754 235.839 527.571 Q237.802 522.32 242.098 517.228 Q246.447 512.136 254.616 505.452 Q267.293 495.056 271.749 489.009 Q276.204 482.909 276.204 477.499 Q276.204 471.824 272.12 467.952 Q268.089 464.026 261.564 464.026 Q254.669 464.026 250.532 468.164 Q246.394 472.301 246.341 479.621 L236.529 478.613 Q237.536 467.633 244.114 461.905 Q250.691 456.123 261.777 456.123 Q272.969 456.123 279.493 462.329 Q286.017 468.535 286.017 477.711 Q286.017 482.379 284.107 486.888 Q282.198 491.396 277.742 496.382 Q273.34 501.368 263.05 510.067 Q254.457 517.281 252.017 519.88 Q249.577 522.426 247.986 525.025 L286.123 525.025 Z" fill="#000000" fill-rule="nonzero" fill-opacity="1" /><path clip-path="url(#clip950)" d="M296.36 495.852 Q296.36 482.061 299.171 473.68 Q302.036 465.246 307.605 460.685 Q313.228 456.123 321.714 456.123 Q327.973 456.123 332.694 458.669 Q337.415 461.162 340.491 465.936 Q343.568 470.657 345.318 477.499 Q347.069 484.289 347.069 495.852 Q347.069 509.537 344.257 517.97 Q341.446 526.351 335.824 530.966 Q330.254 535.527 321.714 535.527 Q310.469 535.527 304.051 527.465 Q296.36 517.758 296.36 495.852 M306.173 495.852 Q306.173 515 310.629 521.365 Q315.137 527.677 321.714 527.677 Q328.292 527.677 332.747 521.312 Q337.256 514.947 337.256 495.852 Q337.256 476.651 332.747 470.338 Q328.292 464.026 321.608 464.026 Q315.031 464.026 311.106 469.596 Q306.173 476.704 306.173 495.852 Z" fill="#000000" fill-rule="nonzero" fill-opacity="1" /><path clip-path="url(#clip950)" d="M144.5 139.991 Q144.5 126.2 147.311 117.82 Q150.176 109.386 155.745 104.824 Q161.368 100.263 169.854 100.263 Q176.113 100.263 180.834 102.809 Q185.555 105.302 188.631 110.075 Q191.708 114.796 193.458 121.639 Q195.209 128.428 195.209 139.991 Q195.209 153.676 192.397 162.11 Q189.586 170.491 183.964 175.105 Q178.394 179.667 169.854 179.667 Q158.609 179.667 152.191 171.604 Q144.5 161.898 144.5 139.991 M154.313 139.991 Q154.313 159.139 158.769 165.505 Q163.277 171.817 169.854 171.817 Q176.432 171.817 180.887 165.452 Q185.396 159.086 185.396 139.991 Q185.396 120.79 180.887 114.478 Q176.432 108.166 169.748 108.166 Q163.171 108.166 159.246 113.735 Q154.313 120.843 154.313 139.991 Z" fill="#000000" fill-rule="nonzero" fill-opacity="1" /><path clip-path="url(#clip950)" d="M210.273 178.341 L210.273 167.467 L221.146 167.467 L221.146 178.341 L210.273 178.341 Z" fill="#000000" fill-rule="nonzero" fill-opacity="1" /><path clip-path="url(#clip950)" d="M285.274 169.164 L285.274 178.341 L233.876 178.341 Q233.77 174.893 234.99 171.711 Q236.953 166.459 241.249 161.367 Q245.599 156.275 253.767 149.592 Q266.444 139.196 270.9 133.149 Q275.355 127.049 275.355 121.639 Q275.355 115.963 271.271 112.091 Q267.24 108.166 260.716 108.166 Q253.82 108.166 249.683 112.303 Q245.546 116.44 245.493 123.76 L235.68 122.752 Q236.688 111.773 243.265 106.044 Q249.842 100.263 260.928 100.263 Q272.12 100.263 278.644 106.468 Q285.168 112.674 285.168 121.851 Q285.168 126.518 283.259 131.027 Q281.349 135.536 276.894 140.522 Q272.491 145.508 262.201 154.207 Q253.608 161.42 251.168 164.019 Q248.728 166.565 247.137 169.164 L285.274 169.164 Z" fill="#000000" fill-rule="nonzero" fill-opacity="1" /><path clip-path="url(#clip950)" d="M295.512 157.973 L305.537 157.124 Q306.65 164.444 310.682 168.157 Q314.766 171.817 320.494 171.817 Q327.39 171.817 332.164 166.618 Q336.938 161.42 336.938 152.827 Q336.938 144.659 332.323 139.938 Q327.761 135.217 320.335 135.217 Q315.721 135.217 312.008 137.339 Q308.295 139.408 306.173 142.749 L297.209 141.582 L304.741 101.642 L343.409 101.642 L343.409 110.765 L312.379 110.765 L308.189 131.664 Q315.19 126.784 322.881 126.784 Q333.066 126.784 340.067 133.838 Q347.069 140.893 347.069 151.979 Q347.069 162.534 340.916 170.225 Q333.437 179.667 320.494 179.667 Q309.886 179.667 303.15 173.726 Q296.466 167.785 295.512 157.973 Z" fill="#000000" fill-rule="nonzero" fill-opacity="1" /><path clip-path="url(#clip950)" d="M85.1722 789.513 L7.41216 789.513 L7.41216 779.965 L85.1722 779.965 L85.1722 789.513 Z" fill="#000000" fill-rule="nonzero" fill-opacity="1" /><path clip-path="url(#clip950)" d="M57.0067 768.72 Q41.3592 768.72 33.8272 760.021 Q27.5682 752.754 27.5682 742.305 Q27.5682 730.689 35.2063 723.316 Q42.7914 715.943 56.2111 715.943 Q67.0847 715.943 73.3437 719.232 Q79.5497 722.467 82.9974 728.726 Q86.4452 734.932 86.4452 742.305 Q86.4452 754.133 78.8601 761.453 Q71.2751 768.72 57.0067 768.72 M57.0067 758.907 Q67.8273 758.907 73.2376 754.186 Q78.5949 749.466 78.5949 742.305 Q78.5949 735.197 73.1846 730.476 Q67.7743 725.756 56.6884 725.756 Q46.2391 725.756 40.8818 730.53 Q35.4715 735.25 35.4715 742.305 Q35.4715 749.466 40.8288 754.186 Q46.1861 758.907 57.0067 758.907 Z" fill="#000000" fill-rule="nonzero" fill-opacity="1" /><path clip-path="url(#clip950)" d="M68.3578 708.57 L66.8726 699.128 Q72.5481 698.333 75.5715 694.726 Q78.5949 691.066 78.5949 684.542 Q78.5949 677.965 75.9428 674.782 Q73.2376 671.6 69.6308 671.6 Q66.3952 671.6 64.5387 674.411 Q63.2657 676.373 61.3031 684.171 Q58.651 694.673 56.7415 698.757 Q54.7789 702.788 51.3842 704.91 Q47.9365 706.979 43.7992 706.979 Q40.0332 706.979 36.8506 705.281 Q33.615 703.531 31.4934 700.561 Q29.849 698.333 28.7352 694.514 Q27.5682 690.642 27.5682 686.239 Q27.5682 679.609 29.4778 674.623 Q31.3873 669.584 34.6759 667.197 Q37.9115 664.81 43.3748 663.908 L44.6478 673.244 Q40.2984 673.88 37.8584 676.957 Q35.4185 679.98 35.4185 685.55 Q35.4185 692.127 37.5932 694.938 Q39.768 697.749 42.6853 697.749 Q44.5418 697.749 46.0269 696.582 Q47.5652 695.416 48.573 692.923 Q49.1034 691.49 51.0129 684.489 Q53.7181 674.358 55.4685 670.38 Q57.1658 666.348 60.4544 664.068 Q63.7431 661.787 68.623 661.787 Q73.3968 661.787 77.6402 664.598 Q81.8305 667.356 84.1644 672.607 Q86.4452 677.859 86.4452 684.489 Q86.4452 695.469 81.8835 701.25 Q77.3219 706.979 68.3578 708.57 Z" fill="#000000" fill-rule="nonzero" fill-opacity="1" /><path clip-path="url(#clip950)" d="M68.3578 654.255 L66.8726 644.813 Q72.5481 644.018 75.5715 640.411 Q78.5949 636.751 78.5949 630.227 Q78.5949 623.649 75.9428 620.467 Q73.2376 617.284 69.6308 617.284 Q66.3952 617.284 64.5387 620.095 Q63.2657 622.058 61.3031 629.855 Q58.651 640.358 56.7415 644.442 Q54.7789 648.473 51.3842 650.595 Q47.9365 652.663 43.7992 652.663 Q40.0332 652.663 36.8506 650.966 Q33.615 649.216 31.4934 646.245 Q29.849 644.018 28.7352 640.198 Q27.5682 636.326 27.5682 631.924 Q27.5682 625.294 29.4778 620.308 Q31.3873 615.269 34.6759 612.882 Q37.9115 610.495 43.3748 609.593 L44.6478 618.929 Q40.2984 619.565 37.8584 622.641 Q35.4185 625.665 35.4185 631.234 Q35.4185 637.812 37.5932 640.623 Q39.768 643.434 42.6853 643.434 Q44.5418 643.434 46.0269 642.267 Q47.5652 641.1 48.573 638.607 Q49.1034 637.175 51.0129 630.173 Q53.7181 620.042 55.4685 616.064 Q57.1658 612.033 60.4544 609.752 Q63.7431 607.471 68.623 607.471 Q73.3968 607.471 77.6402 610.283 Q81.8305 613.041 84.1644 618.292 Q86.4452 623.543 86.4452 630.173 Q86.4452 641.153 81.8835 646.935 Q77.3219 652.663 68.3578 654.255 Z" fill="#000000" fill-rule="nonzero" fill-opacity="1" /><polyline clip-path="url(#clip952)" style="stroke:#009af9; stroke-linecap:round; stroke-linejoin:round; stroke-width:8; stroke-opacity:1; fill:none" points="383.069,47.2441 402.965,982.818 422.86,1022.76 442.756,1032.24 462.652,1036.26 482.548,1038.86 502.444,1041 522.339,1042.97 542.235,1044.87 562.131,1046.72 582.027,1048.58 601.923,1050.44 621.819,1052.3 641.714,1054.16 661.61,1056.03 681.506,1057.93 701.402,1059.81 721.298,1061.72 741.194,1063.67 761.089,1065.61 780.985,1067.58 800.881,1069.57 820.777,1071.58 840.673,1073.65 860.569,1075.7 880.464,1077.8 900.36,1079.93 920.256,1082.09 940.152,1084.29 960.048,1086.53 979.944,1088.79 999.839,1091.12 1019.74,1093.49 1039.63,1095.92 1059.53,1098.41 1079.42,1100.99 1099.32,1103.61 1119.21,1106.31 1139.11,1109.09 1159.01,1111.99 1178.9,1114.95 1198.8,1118.04 1218.69,1121.24 1238.59,1124.56 1258.49,1128 1278.38,1131.58 1298.28,1135.28 1318.17,1139.14 1338.07,1143.14 1357.96,1147.3 1377.86,1151.62 1397.76,1156.07 1417.65,1160.67 1437.55,1165.42 1457.44,1170.3 1477.34,1175.28 1497.24,1180.38 1517.13,1185.6 1537.03,1190.91 1556.92,1196.29 1576.82,1201.76 1596.71,1207.24 1616.61,1212.76 1636.51,1218.31 1656.4,1223.85 1676.3,1229.39 1696.19,1234.91 1716.09,1240.36 1735.99,1245.75 1755.88,1251.08 1775.78,1256.31 1795.67,1261.45 1815.57,1266.46 1835.46,1271.36 1855.36,1276.12 1875.26,1280.75 1895.15,1285.24 1915.05,1289.59 1934.94,1293.78 1954.84,1297.83 1974.74,1301.72 1994.63,1305.46 2014.53,1309.05 2034.42,1312.49 2054.32,1315.78 2074.21,1318.94 2094.11,1321.93 2114.01,1324.81 2133.9,1327.54 2153.8,1330.12 2173.69,1332.59 2193.59,1334.93 2213.49,1337.16 2233.38,1339.28 2253.28,1341.28 2273.17,1343.16 2293.07,1344.96 2312.96,1346.65 2332.86,1348.24 2352.76,1349.74 "/>
<circle clip-path="url(#clip952)" cx="383.069" cy="47.2441" r="3.6" fill="#009af9" fill-rule="evenodd" fill-opacity="1" stroke="#000000" stroke-opacity="1" stroke-width="3.2"/>
<circle clip-path="url(#clip952)" cx="402.965" cy="982.818" r="3.6" fill="#009af9" fill-rule="evenodd" fill-opacity="1" stroke="#000000" stroke-opacity="1" stroke-width="3.2"/>
<circle clip-path="url(#clip952)" cx="422.86" cy="1022.76" r="3.6" fill="#009af9" fill-rule="evenodd" fill-opacity="1" stroke="#000000" stroke-opacity="1" stroke-width="3.2"/>
<circle clip-path="url(#clip952)" cx="442.756" cy="1032.24" r="3.6" fill="#009af9" fill-rule="evenodd" fill-opacity="1" stroke="#000000" stroke-opacity="1" stroke-width="3.2"/>
<circle clip-path="url(#clip952)" cx="462.652" cy="1036.26" r="3.6" fill="#009af9" fill-rule="evenodd" fill-opacity="1" stroke="#000000" stroke-opacity="1" stroke-width="3.2"/>
<circle clip-path="url(#clip952)" cx="482.548" cy="1038.86" r="3.6" fill="#009af9" fill-rule="evenodd" fill-opacity="1" stroke="#000000" stroke-opacity="1" stroke-width="3.2"/>
<circle clip-path="url(#clip952)" cx="502.444" cy="1041" r="3.6" fill="#009af9" fill-rule="evenodd" fill-opacity="1" stroke="#000000" stroke-opacity="1" stroke-width="3.2"/>
<circle clip-path="url(#clip952)" cx="522.339" cy="1042.97" r="3.6" fill="#009af9" fill-rule="evenodd" fill-opacity="1" stroke="#000000" stroke-opacity="1" stroke-width="3.2"/>
<circle clip-path="url(#clip952)" cx="542.235" cy="1044.87" r="3.6" fill="#009af9" fill-rule="evenodd" fill-opacity="1" stroke="#000000" stroke-opacity="1" stroke-width="3.2"/>
<circle clip-path="url(#clip952)" cx="562.131" cy="1046.72" r="3.6" fill="#009af9" fill-rule="evenodd" fill-opacity="1" stroke="#000000" stroke-opacity="1" stroke-width="3.2"/>
<circle clip-path="url(#clip952)" cx="582.027" cy="1048.58" r="3.6" fill="#009af9" fill-rule="evenodd" fill-opacity="1" stroke="#000000" stroke-opacity="1" stroke-width="3.2"/>
<circle clip-path="url(#clip952)" cx="601.923" cy="1050.44" r="3.6" fill="#009af9" fill-rule="evenodd" fill-opacity="1" stroke="#000000" stroke-opacity="1" stroke-width="3.2"/>
<circle clip-path="url(#clip952)" cx="621.819" cy="1052.3" r="3.6" fill="#009af9" fill-rule="evenodd" fill-opacity="1" stroke="#000000" stroke-opacity="1" stroke-width="3.2"/>
<circle clip-path="url(#clip952)" cx="641.714" cy="1054.16" r="3.6" fill="#009af9" fill-rule="evenodd" fill-opacity="1" stroke="#000000" stroke-opacity="1" stroke-width="3.2"/>
<circle clip-path="url(#clip952)" cx="661.61" cy="1056.03" r="3.6" fill="#009af9" fill-rule="evenodd" fill-opacity="1" stroke="#000000" stroke-opacity="1" stroke-width="3.2"/>
<circle clip-path="url(#clip952)" cx="681.506" cy="1057.93" r="3.6" fill="#009af9" fill-rule="evenodd" fill-opacity="1" stroke="#000000" stroke-opacity="1" stroke-width="3.2"/>
<circle clip-path="url(#clip952)" cx="701.402" cy="1059.81" r="3.6" fill="#009af9" fill-rule="evenodd" fill-opacity="1" stroke="#000000" stroke-opacity="1" stroke-width="3.2"/>
<circle clip-path="url(#clip952)" cx="721.298" cy="1061.72" r="3.6" fill="#009af9" fill-rule="evenodd" fill-opacity="1" stroke="#000000" stroke-opacity="1" stroke-width="3.2"/>
<circle clip-path="url(#clip952)" cx="741.194" cy="1063.67" r="3.6" fill="#009af9" fill-rule="evenodd" fill-opacity="1" stroke="#000000" stroke-opacity="1" stroke-width="3.2"/>
<circle clip-path="url(#clip952)" cx="761.089" cy="1065.61" r="3.6" fill="#009af9" fill-rule="evenodd" fill-opacity="1" stroke="#000000" stroke-opacity="1" stroke-width="3.2"/>
<circle clip-path="url(#clip952)" cx="780.985" cy="1067.58" r="3.6" fill="#009af9" fill-rule="evenodd" fill-opacity="1" stroke="#000000" stroke-opacity="1" stroke-width="3.2"/>
<circle clip-path="url(#clip952)" cx="800.881" cy="1069.57" r="3.6" fill="#009af9" fill-rule="evenodd" fill-opacity="1" stroke="#000000" stroke-opacity="1" stroke-width="3.2"/>
<circle clip-path="url(#clip952)" cx="820.777" cy="1071.58" r="3.6" fill="#009af9" fill-rule="evenodd" fill-opacity="1" stroke="#000000" stroke-opacity="1" stroke-width="3.2"/>
<circle clip-path="url(#clip952)" cx="840.673" cy="1073.65" r="3.6" fill="#009af9" fill-rule="evenodd" fill-opacity="1" stroke="#000000" stroke-opacity="1" stroke-width="3.2"/>
<circle clip-path="url(#clip952)" cx="860.569" cy="1075.7" r="3.6" fill="#009af9" fill-rule="evenodd" fill-opacity="1" stroke="#000000" stroke-opacity="1" stroke-width="3.2"/>
<circle clip-path="url(#clip952)" cx="880.464" cy="1077.8" r="3.6" fill="#009af9" fill-rule="evenodd" fill-opacity="1" stroke="#000000" stroke-opacity="1" stroke-width="3.2"/>
<circle clip-path="url(#clip952)" cx="900.36" cy="1079.93" r="3.6" fill="#009af9" fill-rule="evenodd" fill-opacity="1" stroke="#000000" stroke-opacity="1" stroke-width="3.2"/>
<circle clip-path="url(#clip952)" cx="920.256" cy="1082.09" r="3.6" fill="#009af9" fill-rule="evenodd" fill-opacity="1" stroke="#000000" stroke-opacity="1" stroke-width="3.2"/>
<circle clip-path="url(#clip952)" cx="940.152" cy="1084.29" r="3.6" fill="#009af9" fill-rule="evenodd" fill-opacity="1" stroke="#000000" stroke-opacity="1" stroke-width="3.2"/>
<circle clip-path="url(#clip952)" cx="960.048" cy="1086.53" r="3.6" fill="#009af9" fill-rule="evenodd" fill-opacity="1" stroke="#000000" stroke-opacity="1" stroke-width="3.2"/>
<circle clip-path="url(#clip952)" cx="979.944" cy="1088.79" r="3.6" fill="#009af9" fill-rule="evenodd" fill-opacity="1" stroke="#000000" stroke-opacity="1" stroke-width="3.2"/>
<circle clip-path="url(#clip952)" cx="999.839" cy="1091.12" r="3.6" fill="#009af9" fill-rule="evenodd" fill-opacity="1" stroke="#000000" stroke-opacity="1" stroke-width="3.2"/>
<circle clip-path="url(#clip952)" cx="1019.74" cy="1093.49" r="3.6" fill="#009af9" fill-rule="evenodd" fill-opacity="1" stroke="#000000" stroke-opacity="1" stroke-width="3.2"/>
<circle clip-path="url(#clip952)" cx="1039.63" cy="1095.92" r="3.6" fill="#009af9" fill-rule="evenodd" fill-opacity="1" stroke="#000000" stroke-opacity="1" stroke-width="3.2"/>
<circle clip-path="url(#clip952)" cx="1059.53" cy="1098.41" r="3.6" fill="#009af9" fill-rule="evenodd" fill-opacity="1" stroke="#000000" stroke-opacity="1" stroke-width="3.2"/>
<circle clip-path="url(#clip952)" cx="1079.42" cy="1100.99" r="3.6" fill="#009af9" fill-rule="evenodd" fill-opacity="1" stroke="#000000" stroke-opacity="1" stroke-width="3.2"/>
<circle clip-path="url(#clip952)" cx="1099.32" cy="1103.61" r="3.6" fill="#009af9" fill-rule="evenodd" fill-opacity="1" stroke="#000000" stroke-opacity="1" stroke-width="3.2"/>
<circle clip-path="url(#clip952)" cx="1119.21" cy="1106.31" r="3.6" fill="#009af9" fill-rule="evenodd" fill-opacity="1" stroke="#000000" stroke-opacity="1" stroke-width="3.2"/>
<circle clip-path="url(#clip952)" cx="1139.11" cy="1109.09" r="3.6" fill="#009af9" fill-rule="evenodd" fill-opacity="1" stroke="#000000" stroke-opacity="1" stroke-width="3.2"/>
<circle clip-path="url(#clip952)" cx="1159.01" cy="1111.99" r="3.6" fill="#009af9" fill-rule="evenodd" fill-opacity="1" stroke="#000000" stroke-opacity="1" stroke-width="3.2"/>
<circle clip-path="url(#clip952)" cx="1178.9" cy="1114.95" r="3.6" fill="#009af9" fill-rule="evenodd" fill-opacity="1" stroke="#000000" stroke-opacity="1" stroke-width="3.2"/>
<circle clip-path="url(#clip952)" cx="1198.8" cy="1118.04" r="3.6" fill="#009af9" fill-rule="evenodd" fill-opacity="1" stroke="#000000" stroke-opacity="1" stroke-width="3.2"/>
<circle clip-path="url(#clip952)" cx="1218.69" cy="1121.24" r="3.6" fill="#009af9" fill-rule="evenodd" fill-opacity="1" stroke="#000000" stroke-opacity="1" stroke-width="3.2"/>
<circle clip-path="url(#clip952)" cx="1238.59" cy="1124.56" r="3.6" fill="#009af9" fill-rule="evenodd" fill-opacity="1" stroke="#000000" stroke-opacity="1" stroke-width="3.2"/>
<circle clip-path="url(#clip952)" cx="1258.49" cy="1128" r="3.6" fill="#009af9" fill-rule="evenodd" fill-opacity="1" stroke="#000000" stroke-opacity="1" stroke-width="3.2"/>
<circle clip-path="url(#clip952)" cx="1278.38" cy="1131.58" r="3.6" fill="#009af9" fill-rule="evenodd" fill-opacity="1" stroke="#000000" stroke-opacity="1" stroke-width="3.2"/>
<circle clip-path="url(#clip952)" cx="1298.28" cy="1135.28" r="3.6" fill="#009af9" fill-rule="evenodd" fill-opacity="1" stroke="#000000" stroke-opacity="1" stroke-width="3.2"/>
<circle clip-path="url(#clip952)" cx="1318.17" cy="1139.14" r="3.6" fill="#009af9" fill-rule="evenodd" fill-opacity="1" stroke="#000000" stroke-opacity="1" stroke-width="3.2"/>
<circle clip-path="url(#clip952)" cx="1338.07" cy="1143.14" r="3.6" fill="#009af9" fill-rule="evenodd" fill-opacity="1" stroke="#000000" stroke-opacity="1" stroke-width="3.2"/>
<circle clip-path="url(#clip952)" cx="1357.96" cy="1147.3" r="3.6" fill="#009af9" fill-rule="evenodd" fill-opacity="1" stroke="#000000" stroke-opacity="1" stroke-width="3.2"/>
<circle clip-path="url(#clip952)" cx="1377.86" cy="1151.62" r="3.6" fill="#009af9" fill-rule="evenodd" fill-opacity="1" stroke="#000000" stroke-opacity="1" stroke-width="3.2"/>
<circle clip-path="url(#clip952)" cx="1397.76" cy="1156.07" r="3.6" fill="#009af9" fill-rule="evenodd" fill-opacity="1" stroke="#000000" stroke-opacity="1" stroke-width="3.2"/>
<circle clip-path="url(#clip952)" cx="1417.65" cy="1160.67" r="3.6" fill="#009af9" fill-rule="evenodd" fill-opacity="1" stroke="#000000" stroke-opacity="1" stroke-width="3.2"/>
<circle clip-path="url(#clip952)" cx="1437.55" cy="1165.42" r="3.6" fill="#009af9" fill-rule="evenodd" fill-opacity="1" stroke="#000000" stroke-opacity="1" stroke-width="3.2"/>
<circle clip-path="url(#clip952)" cx="1457.44" cy="1170.3" r="3.6" fill="#009af9" fill-rule="evenodd" fill-opacity="1" stroke="#000000" stroke-opacity="1" stroke-width="3.2"/>
<circle clip-path="url(#clip952)" cx="1477.34" cy="1175.28" r="3.6" fill="#009af9" fill-rule="evenodd" fill-opacity="1" stroke="#000000" stroke-opacity="1" stroke-width="3.2"/>
<circle clip-path="url(#clip952)" cx="1497.24" cy="1180.38" r="3.6" fill="#009af9" fill-rule="evenodd" fill-opacity="1" stroke="#000000" stroke-opacity="1" stroke-width="3.2"/>
<circle clip-path="url(#clip952)" cx="1517.13" cy="1185.6" r="3.6" fill="#009af9" fill-rule="evenodd" fill-opacity="1" stroke="#000000" stroke-opacity="1" stroke-width="3.2"/>
<circle clip-path="url(#clip952)" cx="1537.03" cy="1190.91" r="3.6" fill="#009af9" fill-rule="evenodd" fill-opacity="1" stroke="#000000" stroke-opacity="1" stroke-width="3.2"/>
<circle clip-path="url(#clip952)" cx="1556.92" cy="1196.29" r="3.6" fill="#009af9" fill-rule="evenodd" fill-opacity="1" stroke="#000000" stroke-opacity="1" stroke-width="3.2"/>
<circle clip-path="url(#clip952)" cx="1576.82" cy="1201.76" r="3.6" fill="#009af9" fill-rule="evenodd" fill-opacity="1" stroke="#000000" stroke-opacity="1" stroke-width="3.2"/>
<circle clip-path="url(#clip952)" cx="1596.71" cy="1207.24" r="3.6" fill="#009af9" fill-rule="evenodd" fill-opacity="1" stroke="#000000" stroke-opacity="1" stroke-width="3.2"/>
<circle clip-path="url(#clip952)" cx="1616.61" cy="1212.76" r="3.6" fill="#009af9" fill-rule="evenodd" fill-opacity="1" stroke="#000000" stroke-opacity="1" stroke-width="3.2"/>
<circle clip-path="url(#clip952)" cx="1636.51" cy="1218.31" r="3.6" fill="#009af9" fill-rule="evenodd" fill-opacity="1" stroke="#000000" stroke-opacity="1" stroke-width="3.2"/>
<circle clip-path="url(#clip952)" cx="1656.4" cy="1223.85" r="3.6" fill="#009af9" fill-rule="evenodd" fill-opacity="1" stroke="#000000" stroke-opacity="1" stroke-width="3.2"/>
<circle clip-path="url(#clip952)" cx="1676.3" cy="1229.39" r="3.6" fill="#009af9" fill-rule="evenodd" fill-opacity="1" stroke="#000000" stroke-opacity="1" stroke-width="3.2"/>
<circle clip-path="url(#clip952)" cx="1696.19" cy="1234.91" r="3.6" fill="#009af9" fill-rule="evenodd" fill-opacity="1" stroke="#000000" stroke-opacity="1" stroke-width="3.2"/>
<circle clip-path="url(#clip952)" cx="1716.09" cy="1240.36" r="3.6" fill="#009af9" fill-rule="evenodd" fill-opacity="1" stroke="#000000" stroke-opacity="1" stroke-width="3.2"/>
<circle clip-path="url(#clip952)" cx="1735.99" cy="1245.75" r="3.6" fill="#009af9" fill-rule="evenodd" fill-opacity="1" stroke="#000000" stroke-opacity="1" stroke-width="3.2"/>
<circle clip-path="url(#clip952)" cx="1755.88" cy="1251.08" r="3.6" fill="#009af9" fill-rule="evenodd" fill-opacity="1" stroke="#000000" stroke-opacity="1" stroke-width="3.2"/>
<circle clip-path="url(#clip952)" cx="1775.78" cy="1256.31" r="3.6" fill="#009af9" fill-rule="evenodd" fill-opacity="1" stroke="#000000" stroke-opacity="1" stroke-width="3.2"/>
<circle clip-path="url(#clip952)" cx="1795.67" cy="1261.45" r="3.6" fill="#009af9" fill-rule="evenodd" fill-opacity="1" stroke="#000000" stroke-opacity="1" stroke-width="3.2"/>
<circle clip-path="url(#clip952)" cx="1815.57" cy="1266.46" r="3.6" fill="#009af9" fill-rule="evenodd" fill-opacity="1" stroke="#000000" stroke-opacity="1" stroke-width="3.2"/>
<circle clip-path="url(#clip952)" cx="1835.46" cy="1271.36" r="3.6" fill="#009af9" fill-rule="evenodd" fill-opacity="1" stroke="#000000" stroke-opacity="1" stroke-width="3.2"/>
<circle clip-path="url(#clip952)" cx="1855.36" cy="1276.12" r="3.6" fill="#009af9" fill-rule="evenodd" fill-opacity="1" stroke="#000000" stroke-opacity="1" stroke-width="3.2"/>
<circle clip-path="url(#clip952)" cx="1875.26" cy="1280.75" r="3.6" fill="#009af9" fill-rule="evenodd" fill-opacity="1" stroke="#000000" stroke-opacity="1" stroke-width="3.2"/>
<circle clip-path="url(#clip952)" cx="1895.15" cy="1285.24" r="3.6" fill="#009af9" fill-rule="evenodd" fill-opacity="1" stroke="#000000" stroke-opacity="1" stroke-width="3.2"/>
<circle clip-path="url(#clip952)" cx="1915.05" cy="1289.59" r="3.6" fill="#009af9" fill-rule="evenodd" fill-opacity="1" stroke="#000000" stroke-opacity="1" stroke-width="3.2"/>
<circle clip-path="url(#clip952)" cx="1934.94" cy="1293.78" r="3.6" fill="#009af9" fill-rule="evenodd" fill-opacity="1" stroke="#000000" stroke-opacity="1" stroke-width="3.2"/>
<circle clip-path="url(#clip952)" cx="1954.84" cy="1297.83" r="3.6" fill="#009af9" fill-rule="evenodd" fill-opacity="1" stroke="#000000" stroke-opacity="1" stroke-width="3.2"/>
<circle clip-path="url(#clip952)" cx="1974.74" cy="1301.72" r="3.6" fill="#009af9" fill-rule="evenodd" fill-opacity="1" stroke="#000000" stroke-opacity="1" stroke-width="3.2"/>
<circle clip-path="url(#clip952)" cx="1994.63" cy="1305.46" r="3.6" fill="#009af9" fill-rule="evenodd" fill-opacity="1" stroke="#000000" stroke-opacity="1" stroke-width="3.2"/>
<circle clip-path="url(#clip952)" cx="2014.53" cy="1309.05" r="3.6" fill="#009af9" fill-rule="evenodd" fill-opacity="1" stroke="#000000" stroke-opacity="1" stroke-width="3.2"/>
<circle clip-path="url(#clip952)" cx="2034.42" cy="1312.49" r="3.6" fill="#009af9" fill-rule="evenodd" fill-opacity="1" stroke="#000000" stroke-opacity="1" stroke-width="3.2"/>
<circle clip-path="url(#clip952)" cx="2054.32" cy="1315.78" r="3.6" fill="#009af9" fill-rule="evenodd" fill-opacity="1" stroke="#000000" stroke-opacity="1" stroke-width="3.2"/>
<circle clip-path="url(#clip952)" cx="2074.21" cy="1318.94" r="3.6" fill="#009af9" fill-rule="evenodd" fill-opacity="1" stroke="#000000" stroke-opacity="1" stroke-width="3.2"/>
<circle clip-path="url(#clip952)" cx="2094.11" cy="1321.93" r="3.6" fill="#009af9" fill-rule="evenodd" fill-opacity="1" stroke="#000000" stroke-opacity="1" stroke-width="3.2"/>
<circle clip-path="url(#clip952)" cx="2114.01" cy="1324.81" r="3.6" fill="#009af9" fill-rule="evenodd" fill-opacity="1" stroke="#000000" stroke-opacity="1" stroke-width="3.2"/>
<circle clip-path="url(#clip952)" cx="2133.9" cy="1327.54" r="3.6" fill="#009af9" fill-rule="evenodd" fill-opacity="1" stroke="#000000" stroke-opacity="1" stroke-width="3.2"/>
<circle clip-path="url(#clip952)" cx="2153.8" cy="1330.12" r="3.6" fill="#009af9" fill-rule="evenodd" fill-opacity="1" stroke="#000000" stroke-opacity="1" stroke-width="3.2"/>
<circle clip-path="url(#clip952)" cx="2173.69" cy="1332.59" r="3.6" fill="#009af9" fill-rule="evenodd" fill-opacity="1" stroke="#000000" stroke-opacity="1" stroke-width="3.2"/>
<circle clip-path="url(#clip952)" cx="2193.59" cy="1334.93" r="3.6" fill="#009af9" fill-rule="evenodd" fill-opacity="1" stroke="#000000" stroke-opacity="1" stroke-width="3.2"/>
<circle clip-path="url(#clip952)" cx="2213.49" cy="1337.16" r="3.6" fill="#009af9" fill-rule="evenodd" fill-opacity="1" stroke="#000000" stroke-opacity="1" stroke-width="3.2"/>
<circle clip-path="url(#clip952)" cx="2233.38" cy="1339.28" r="3.6" fill="#009af9" fill-rule="evenodd" fill-opacity="1" stroke="#000000" stroke-opacity="1" stroke-width="3.2"/>
<circle clip-path="url(#clip952)" cx="2253.28" cy="1341.28" r="3.6" fill="#009af9" fill-rule="evenodd" fill-opacity="1" stroke="#000000" stroke-opacity="1" stroke-width="3.2"/>
<circle clip-path="url(#clip952)" cx="2273.17" cy="1343.16" r="3.6" fill="#009af9" fill-rule="evenodd" fill-opacity="1" stroke="#000000" stroke-opacity="1" stroke-width="3.2"/>
<circle clip-path="url(#clip952)" cx="2293.07" cy="1344.96" r="3.6" fill="#009af9" fill-rule="evenodd" fill-opacity="1" stroke="#000000" stroke-opacity="1" stroke-width="3.2"/>
<circle clip-path="url(#clip952)" cx="2312.96" cy="1346.65" r="3.6" fill="#009af9" fill-rule="evenodd" fill-opacity="1" stroke="#000000" stroke-opacity="1" stroke-width="3.2"/>
<circle clip-path="url(#clip952)" cx="2332.86" cy="1348.24" r="3.6" fill="#009af9" fill-rule="evenodd" fill-opacity="1" stroke="#000000" stroke-opacity="1" stroke-width="3.2"/>
<circle clip-path="url(#clip952)" cx="2352.76" cy="1349.74" r="3.6" fill="#009af9" fill-rule="evenodd" fill-opacity="1" stroke="#000000" stroke-opacity="1" stroke-width="3.2"/>
<polyline clip-path="url(#clip952)" style="stroke:#e26f46; stroke-linecap:round; stroke-linejoin:round; stroke-width:8; stroke-opacity:1; fill:none" points="383.069,918.293 402.965,1005.64 422.86,1022 442.756,1027.99 462.652,1031.53 482.548,1034.29 502.444,1036.76 522.339,1039.11 542.235,1041.38 562.131,1043.61 582.027,1045.78 601.923,1047.94 621.819,1050.09 641.714,1052.2 661.61,1054.32 681.506,1056.41 701.402,1058.5 721.298,1060.59 741.194,1062.68 761.089,1064.77 780.985,1066.86 800.881,1068.95 820.777,1071.06 840.673,1073.18 860.569,1075.31 880.464,1077.46 900.36,1079.62 920.256,1081.8 940.152,1084.02 960.048,1086.27 979.944,1088.55 999.839,1090.88 1019.74,1093.26 1039.63,1095.67 1059.53,1098.15 1079.42,1100.7 1099.32,1103.32 1119.21,1106.02 1139.11,1108.77 1159.01,1111.64 1178.9,1114.6 1198.8,1117.66 1218.69,1120.84 1238.59,1124.15 1258.49,1127.57 1278.38,1131.15 1298.28,1134.86 1318.17,1138.71 1338.07,1142.7 1357.96,1146.85 1377.86,1151.13 1397.76,1155.56 1417.65,1160.12 1437.55,1164.8 1457.44,1169.59 1477.34,1174.49 1497.24,1179.49 1517.13,1184.58 1537.03,1189.73 1556.92,1194.92 1576.82,1200.15 1596.71,1205.41 1616.61,1210.69 1636.51,1215.97 1656.4,1221.22 1676.3,1226.45 1696.19,1231.63 1716.09,1236.75 1735.99,1241.81 1755.88,1246.76 1775.78,1251.65 1795.67,1256.43 1815.57,1261.11 1835.46,1265.66 1855.36,1270.1 1875.26,1274.41 1895.15,1278.59 1915.05,1282.65 1934.94,1286.57 1954.84,1290.35 1974.74,1294.01 1994.63,1297.53 2014.53,1300.93 2034.42,1304.18 2054.32,1307.31 2074.21,1310.31 2094.11,1313.18 2114.01,1315.94 2133.9,1318.57 2153.8,1321.09 2173.69,1323.5 2193.59,1325.81 2213.49,1328 2233.38,1330.09 2253.28,1332.1 2273.17,1334.02 2293.07,1335.84 2312.96,1337.58 2332.86,1339.22 2352.76,1340.8 "/>
<circle clip-path="url(#clip952)" cx="383.069" cy="918.293" r="3.6" fill="#e26f46" fill-rule="evenodd" fill-opacity="1" stroke="#000000" stroke-opacity="1" stroke-width="3.2"/>
<circle clip-path="url(#clip952)" cx="402.965" cy="1005.64" r="3.6" fill="#e26f46" fill-rule="evenodd" fill-opacity="1" stroke="#000000" stroke-opacity="1" stroke-width="3.2"/>
<circle clip-path="url(#clip952)" cx="422.86" cy="1022" r="3.6" fill="#e26f46" fill-rule="evenodd" fill-opacity="1" stroke="#000000" stroke-opacity="1" stroke-width="3.2"/>
<circle clip-path="url(#clip952)" cx="442.756" cy="1027.99" r="3.6" fill="#e26f46" fill-rule="evenodd" fill-opacity="1" stroke="#000000" stroke-opacity="1" stroke-width="3.2"/>
<circle clip-path="url(#clip952)" cx="462.652" cy="1031.53" r="3.6" fill="#e26f46" fill-rule="evenodd" fill-opacity="1" stroke="#000000" stroke-opacity="1" stroke-width="3.2"/>
<circle clip-path="url(#clip952)" cx="482.548" cy="1034.29" r="3.6" fill="#e26f46" fill-rule="evenodd" fill-opacity="1" stroke="#000000" stroke-opacity="1" stroke-width="3.2"/>
<circle clip-path="url(#clip952)" cx="502.444" cy="1036.76" r="3.6" fill="#e26f46" fill-rule="evenodd" fill-opacity="1" stroke="#000000" stroke-opacity="1" stroke-width="3.2"/>
<circle clip-path="url(#clip952)" cx="522.339" cy="1039.11" r="3.6" fill="#e26f46" fill-rule="evenodd" fill-opacity="1" stroke="#000000" stroke-opacity="1" stroke-width="3.2"/>
<circle clip-path="url(#clip952)" cx="542.235" cy="1041.38" r="3.6" fill="#e26f46" fill-rule="evenodd" fill-opacity="1" stroke="#000000" stroke-opacity="1" stroke-width="3.2"/>
<circle clip-path="url(#clip952)" cx="562.131" cy="1043.61" r="3.6" fill="#e26f46" fill-rule="evenodd" fill-opacity="1" stroke="#000000" stroke-opacity="1" stroke-width="3.2"/>
<circle clip-path="url(#clip952)" cx="582.027" cy="1045.78" r="3.6" fill="#e26f46" fill-rule="evenodd" fill-opacity="1" stroke="#000000" stroke-opacity="1" stroke-width="3.2"/>
<circle clip-path="url(#clip952)" cx="601.923" cy="1047.94" r="3.6" fill="#e26f46" fill-rule="evenodd" fill-opacity="1" stroke="#000000" stroke-opacity="1" stroke-width="3.2"/>
<circle clip-path="url(#clip952)" cx="621.819" cy="1050.09" r="3.6" fill="#e26f46" fill-rule="evenodd" fill-opacity="1" stroke="#000000" stroke-opacity="1" stroke-width="3.2"/>
<circle clip-path="url(#clip952)" cx="641.714" cy="1052.2" r="3.6" fill="#e26f46" fill-rule="evenodd" fill-opacity="1" stroke="#000000" stroke-opacity="1" stroke-width="3.2"/>
<circle clip-path="url(#clip952)" cx="661.61" cy="1054.32" r="3.6" fill="#e26f46" fill-rule="evenodd" fill-opacity="1" stroke="#000000" stroke-opacity="1" stroke-width="3.2"/>
<circle clip-path="url(#clip952)" cx="681.506" cy="1056.41" r="3.6" fill="#e26f46" fill-rule="evenodd" fill-opacity="1" stroke="#000000" stroke-opacity="1" stroke-width="3.2"/>
<circle clip-path="url(#clip952)" cx="701.402" cy="1058.5" r="3.6" fill="#e26f46" fill-rule="evenodd" fill-opacity="1" stroke="#000000" stroke-opacity="1" stroke-width="3.2"/>
<circle clip-path="url(#clip952)" cx="721.298" cy="1060.59" r="3.6" fill="#e26f46" fill-rule="evenodd" fill-opacity="1" stroke="#000000" stroke-opacity="1" stroke-width="3.2"/>
<circle clip-path="url(#clip952)" cx="741.194" cy="1062.68" r="3.6" fill="#e26f46" fill-rule="evenodd" fill-opacity="1" stroke="#000000" stroke-opacity="1" stroke-width="3.2"/>
<circle clip-path="url(#clip952)" cx="761.089" cy="1064.77" r="3.6" fill="#e26f46" fill-rule="evenodd" fill-opacity="1" stroke="#000000" stroke-opacity="1" stroke-width="3.2"/>
<circle clip-path="url(#clip952)" cx="780.985" cy="1066.86" r="3.6" fill="#e26f46" fill-rule="evenodd" fill-opacity="1" stroke="#000000" stroke-opacity="1" stroke-width="3.2"/>
<circle clip-path="url(#clip952)" cx="800.881" cy="1068.95" r="3.6" fill="#e26f46" fill-rule="evenodd" fill-opacity="1" stroke="#000000" stroke-opacity="1" stroke-width="3.2"/>
<circle clip-path="url(#clip952)" cx="820.777" cy="1071.06" r="3.6" fill="#e26f46" fill-rule="evenodd" fill-opacity="1" stroke="#000000" stroke-opacity="1" stroke-width="3.2"/>
<circle clip-path="url(#clip952)" cx="840.673" cy="1073.18" r="3.6" fill="#e26f46" fill-rule="evenodd" fill-opacity="1" stroke="#000000" stroke-opacity="1" stroke-width="3.2"/>
<circle clip-path="url(#clip952)" cx="860.569" cy="1075.31" r="3.6" fill="#e26f46" fill-rule="evenodd" fill-opacity="1" stroke="#000000" stroke-opacity="1" stroke-width="3.2"/>
<circle clip-path="url(#clip952)" cx="880.464" cy="1077.46" r="3.6" fill="#e26f46" fill-rule="evenodd" fill-opacity="1" stroke="#000000" stroke-opacity="1" stroke-width="3.2"/>
<circle clip-path="url(#clip952)" cx="900.36" cy="1079.62" r="3.6" fill="#e26f46" fill-rule="evenodd" fill-opacity="1" stroke="#000000" stroke-opacity="1" stroke-width="3.2"/>
<circle clip-path="url(#clip952)" cx="920.256" cy="1081.8" r="3.6" fill="#e26f46" fill-rule="evenodd" fill-opacity="1" stroke="#000000" stroke-opacity="1" stroke-width="3.2"/>
<circle clip-path="url(#clip952)" cx="940.152" cy="1084.02" r="3.6" fill="#e26f46" fill-rule="evenodd" fill-opacity="1" stroke="#000000" stroke-opacity="1" stroke-width="3.2"/>
<circle clip-path="url(#clip952)" cx="960.048" cy="1086.27" r="3.6" fill="#e26f46" fill-rule="evenodd" fill-opacity="1" stroke="#000000" stroke-opacity="1" stroke-width="3.2"/>
<circle clip-path="url(#clip952)" cx="979.944" cy="1088.55" r="3.6" fill="#e26f46" fill-rule="evenodd" fill-opacity="1" stroke="#000000" stroke-opacity="1" stroke-width="3.2"/>
<circle clip-path="url(#clip952)" cx="999.839" cy="1090.88" r="3.6" fill="#e26f46" fill-rule="evenodd" fill-opacity="1" stroke="#000000" stroke-opacity="1" stroke-width="3.2"/>
<circle clip-path="url(#clip952)" cx="1019.74" cy="1093.26" r="3.6" fill="#e26f46" fill-rule="evenodd" fill-opacity="1" stroke="#000000" stroke-opacity="1" stroke-width="3.2"/>
<circle clip-path="url(#clip952)" cx="1039.63" cy="1095.67" r="3.6" fill="#e26f46" fill-rule="evenodd" fill-opacity="1" stroke="#000000" stroke-opacity="1" stroke-width="3.2"/>
<circle clip-path="url(#clip952)" cx="1059.53" cy="1098.15" r="3.6" fill="#e26f46" fill-rule="evenodd" fill-opacity="1" stroke="#000000" stroke-opacity="1" stroke-width="3.2"/>
<circle clip-path="url(#clip952)" cx="1079.42" cy="1100.7" r="3.6" fill="#e26f46" fill-rule="evenodd" fill-opacity="1" stroke="#000000" stroke-opacity="1" stroke-width="3.2"/>
<circle clip-path="url(#clip952)" cx="1099.32" cy="1103.32" r="3.6" fill="#e26f46" fill-rule="evenodd" fill-opacity="1" stroke="#000000" stroke-opacity="1" stroke-width="3.2"/>
<circle clip-path="url(#clip952)" cx="1119.21" cy="1106.02" r="3.6" fill="#e26f46" fill-rule="evenodd" fill-opacity="1" stroke="#000000" stroke-opacity="1" stroke-width="3.2"/>
<circle clip-path="url(#clip952)" cx="1139.11" cy="1108.77" r="3.6" fill="#e26f46" fill-rule="evenodd" fill-opacity="1" stroke="#000000" stroke-opacity="1" stroke-width="3.2"/>
<circle clip-path="url(#clip952)" cx="1159.01" cy="1111.64" r="3.6" fill="#e26f46" fill-rule="evenodd" fill-opacity="1" stroke="#000000" stroke-opacity="1" stroke-width="3.2"/>
<circle clip-path="url(#clip952)" cx="1178.9" cy="1114.6" r="3.6" fill="#e26f46" fill-rule="evenodd" fill-opacity="1" stroke="#000000" stroke-opacity="1" stroke-width="3.2"/>
<circle clip-path="url(#clip952)" cx="1198.8" cy="1117.66" r="3.6" fill="#e26f46" fill-rule="evenodd" fill-opacity="1" stroke="#000000" stroke-opacity="1" stroke-width="3.2"/>
<circle clip-path="url(#clip952)" cx="1218.69" cy="1120.84" r="3.6" fill="#e26f46" fill-rule="evenodd" fill-opacity="1" stroke="#000000" stroke-opacity="1" stroke-width="3.2"/>
<circle clip-path="url(#clip952)" cx="1238.59" cy="1124.15" r="3.6" fill="#e26f46" fill-rule="evenodd" fill-opacity="1" stroke="#000000" stroke-opacity="1" stroke-width="3.2"/>
<circle clip-path="url(#clip952)" cx="1258.49" cy="1127.57" r="3.6" fill="#e26f46" fill-rule="evenodd" fill-opacity="1" stroke="#000000" stroke-opacity="1" stroke-width="3.2"/>
<circle clip-path="url(#clip952)" cx="1278.38" cy="1131.15" r="3.6" fill="#e26f46" fill-rule="evenodd" fill-opacity="1" stroke="#000000" stroke-opacity="1" stroke-width="3.2"/>
<circle clip-path="url(#clip952)" cx="1298.28" cy="1134.86" r="3.6" fill="#e26f46" fill-rule="evenodd" fill-opacity="1" stroke="#000000" stroke-opacity="1" stroke-width="3.2"/>
<circle clip-path="url(#clip952)" cx="1318.17" cy="1138.71" r="3.6" fill="#e26f46" fill-rule="evenodd" fill-opacity="1" stroke="#000000" stroke-opacity="1" stroke-width="3.2"/>
<circle clip-path="url(#clip952)" cx="1338.07" cy="1142.7" r="3.6" fill="#e26f46" fill-rule="evenodd" fill-opacity="1" stroke="#000000" stroke-opacity="1" stroke-width="3.2"/>
<circle clip-path="url(#clip952)" cx="1357.96" cy="1146.85" r="3.6" fill="#e26f46" fill-rule="evenodd" fill-opacity="1" stroke="#000000" stroke-opacity="1" stroke-width="3.2"/>
<circle clip-path="url(#clip952)" cx="1377.86" cy="1151.13" r="3.6" fill="#e26f46" fill-rule="evenodd" fill-opacity="1" stroke="#000000" stroke-opacity="1" stroke-width="3.2"/>
<circle clip-path="url(#clip952)" cx="1397.76" cy="1155.56" r="3.6" fill="#e26f46" fill-rule="evenodd" fill-opacity="1" stroke="#000000" stroke-opacity="1" stroke-width="3.2"/>
<circle clip-path="url(#clip952)" cx="1417.65" cy="1160.12" r="3.6" fill="#e26f46" fill-rule="evenodd" fill-opacity="1" stroke="#000000" stroke-opacity="1" stroke-width="3.2"/>
<circle clip-path="url(#clip952)" cx="1437.55" cy="1164.8" r="3.6" fill="#e26f46" fill-rule="evenodd" fill-opacity="1" stroke="#000000" stroke-opacity="1" stroke-width="3.2"/>
<circle clip-path="url(#clip952)" cx="1457.44" cy="1169.59" r="3.6" fill="#e26f46" fill-rule="evenodd" fill-opacity="1" stroke="#000000" stroke-opacity="1" stroke-width="3.2"/>
<circle clip-path="url(#clip952)" cx="1477.34" cy="1174.49" r="3.6" fill="#e26f46" fill-rule="evenodd" fill-opacity="1" stroke="#000000" stroke-opacity="1" stroke-width="3.2"/>
<circle clip-path="url(#clip952)" cx="1497.24" cy="1179.49" r="3.6" fill="#e26f46" fill-rule="evenodd" fill-opacity="1" stroke="#000000" stroke-opacity="1" stroke-width="3.2"/>
<circle clip-path="url(#clip952)" cx="1517.13" cy="1184.58" r="3.6" fill="#e26f46" fill-rule="evenodd" fill-opacity="1" stroke="#000000" stroke-opacity="1" stroke-width="3.2"/>
<circle clip-path="url(#clip952)" cx="1537.03" cy="1189.73" r="3.6" fill="#e26f46" fill-rule="evenodd" fill-opacity="1" stroke="#000000" stroke-opacity="1" stroke-width="3.2"/>
<circle clip-path="url(#clip952)" cx="1556.92" cy="1194.92" r="3.6" fill="#e26f46" fill-rule="evenodd" fill-opacity="1" stroke="#000000" stroke-opacity="1" stroke-width="3.2"/>
<circle clip-path="url(#clip952)" cx="1576.82" cy="1200.15" r="3.6" fill="#e26f46" fill-rule="evenodd" fill-opacity="1" stroke="#000000" stroke-opacity="1" stroke-width="3.2"/>
<circle clip-path="url(#clip952)" cx="1596.71" cy="1205.41" r="3.6" fill="#e26f46" fill-rule="evenodd" fill-opacity="1" stroke="#000000" stroke-opacity="1" stroke-width="3.2"/>
<circle clip-path="url(#clip952)" cx="1616.61" cy="1210.69" r="3.6" fill="#e26f46" fill-rule="evenodd" fill-opacity="1" stroke="#000000" stroke-opacity="1" stroke-width="3.2"/>
<circle clip-path="url(#clip952)" cx="1636.51" cy="1215.97" r="3.6" fill="#e26f46" fill-rule="evenodd" fill-opacity="1" stroke="#000000" stroke-opacity="1" stroke-width="3.2"/>
<circle clip-path="url(#clip952)" cx="1656.4" cy="1221.22" r="3.6" fill="#e26f46" fill-rule="evenodd" fill-opacity="1" stroke="#000000" stroke-opacity="1" stroke-width="3.2"/>
<circle clip-path="url(#clip952)" cx="1676.3" cy="1226.45" r="3.6" fill="#e26f46" fill-rule="evenodd" fill-opacity="1" stroke="#000000" stroke-opacity="1" stroke-width="3.2"/>
<circle clip-path="url(#clip952)" cx="1696.19" cy="1231.63" r="3.6" fill="#e26f46" fill-rule="evenodd" fill-opacity="1" stroke="#000000" stroke-opacity="1" stroke-width="3.2"/>
<circle clip-path="url(#clip952)" cx="1716.09" cy="1236.75" r="3.6" fill="#e26f46" fill-rule="evenodd" fill-opacity="1" stroke="#000000" stroke-opacity="1" stroke-width="3.2"/>
<circle clip-path="url(#clip952)" cx="1735.99" cy="1241.81" r="3.6" fill="#e26f46" fill-rule="evenodd" fill-opacity="1" stroke="#000000" stroke-opacity="1" stroke-width="3.2"/>
<circle clip-path="url(#clip952)" cx="1755.88" cy="1246.76" r="3.6" fill="#e26f46" fill-rule="evenodd" fill-opacity="1" stroke="#000000" stroke-opacity="1" stroke-width="3.2"/>
<circle clip-path="url(#clip952)" cx="1775.78" cy="1251.65" r="3.6" fill="#e26f46" fill-rule="evenodd" fill-opacity="1" stroke="#000000" stroke-opacity="1" stroke-width="3.2"/>
<circle clip-path="url(#clip952)" cx="1795.67" cy="1256.43" r="3.6" fill="#e26f46" fill-rule="evenodd" fill-opacity="1" stroke="#000000" stroke-opacity="1" stroke-width="3.2"/>
<circle clip-path="url(#clip952)" cx="1815.57" cy="1261.11" r="3.6" fill="#e26f46" fill-rule="evenodd" fill-opacity="1" stroke="#000000" stroke-opacity="1" stroke-width="3.2"/>
<circle clip-path="url(#clip952)" cx="1835.46" cy="1265.66" r="3.6" fill="#e26f46" fill-rule="evenodd" fill-opacity="1" stroke="#000000" stroke-opacity="1" stroke-width="3.2"/>
<circle clip-path="url(#clip952)" cx="1855.36" cy="1270.1" r="3.6" fill="#e26f46" fill-rule="evenodd" fill-opacity="1" stroke="#000000" stroke-opacity="1" stroke-width="3.2"/>
<circle clip-path="url(#clip952)" cx="1875.26" cy="1274.41" r="3.6" fill="#e26f46" fill-rule="evenodd" fill-opacity="1" stroke="#000000" stroke-opacity="1" stroke-width="3.2"/>
<circle clip-path="url(#clip952)" cx="1895.15" cy="1278.59" r="3.6" fill="#e26f46" fill-rule="evenodd" fill-opacity="1" stroke="#000000" stroke-opacity="1" stroke-width="3.2"/>
<circle clip-path="url(#clip952)" cx="1915.05" cy="1282.65" r="3.6" fill="#e26f46" fill-rule="evenodd" fill-opacity="1" stroke="#000000" stroke-opacity="1" stroke-width="3.2"/>
<circle clip-path="url(#clip952)" cx="1934.94" cy="1286.57" r="3.6" fill="#e26f46" fill-rule="evenodd" fill-opacity="1" stroke="#000000" stroke-opacity="1" stroke-width="3.2"/>
<circle clip-path="url(#clip952)" cx="1954.84" cy="1290.35" r="3.6" fill="#e26f46" fill-rule="evenodd" fill-opacity="1" stroke="#000000" stroke-opacity="1" stroke-width="3.2"/>
<circle clip-path="url(#clip952)" cx="1974.74" cy="1294.01" r="3.6" fill="#e26f46" fill-rule="evenodd" fill-opacity="1" stroke="#000000" stroke-opacity="1" stroke-width="3.2"/>
<circle clip-path="url(#clip952)" cx="1994.63" cy="1297.53" r="3.6" fill="#e26f46" fill-rule="evenodd" fill-opacity="1" stroke="#000000" stroke-opacity="1" stroke-width="3.2"/>
<circle clip-path="url(#clip952)" cx="2014.53" cy="1300.93" r="3.6" fill="#e26f46" fill-rule="evenodd" fill-opacity="1" stroke="#000000" stroke-opacity="1" stroke-width="3.2"/>
<circle clip-path="url(#clip952)" cx="2034.42" cy="1304.18" r="3.6" fill="#e26f46" fill-rule="evenodd" fill-opacity="1" stroke="#000000" stroke-opacity="1" stroke-width="3.2"/>
<circle clip-path="url(#clip952)" cx="2054.32" cy="1307.31" r="3.6" fill="#e26f46" fill-rule="evenodd" fill-opacity="1" stroke="#000000" stroke-opacity="1" stroke-width="3.2"/>
<circle clip-path="url(#clip952)" cx="2074.21" cy="1310.31" r="3.6" fill="#e26f46" fill-rule="evenodd" fill-opacity="1" stroke="#000000" stroke-opacity="1" stroke-width="3.2"/>
<circle clip-path="url(#clip952)" cx="2094.11" cy="1313.18" r="3.6" fill="#e26f46" fill-rule="evenodd" fill-opacity="1" stroke="#000000" stroke-opacity="1" stroke-width="3.2"/>
<circle clip-path="url(#clip952)" cx="2114.01" cy="1315.94" r="3.6" fill="#e26f46" fill-rule="evenodd" fill-opacity="1" stroke="#000000" stroke-opacity="1" stroke-width="3.2"/>
<circle clip-path="url(#clip952)" cx="2133.9" cy="1318.57" r="3.6" fill="#e26f46" fill-rule="evenodd" fill-opacity="1" stroke="#000000" stroke-opacity="1" stroke-width="3.2"/>
<circle clip-path="url(#clip952)" cx="2153.8" cy="1321.09" r="3.6" fill="#e26f46" fill-rule="evenodd" fill-opacity="1" stroke="#000000" stroke-opacity="1" stroke-width="3.2"/>
<circle clip-path="url(#clip952)" cx="2173.69" cy="1323.5" r="3.6" fill="#e26f46" fill-rule="evenodd" fill-opacity="1" stroke="#000000" stroke-opacity="1" stroke-width="3.2"/>
<circle clip-path="url(#clip952)" cx="2193.59" cy="1325.81" r="3.6" fill="#e26f46" fill-rule="evenodd" fill-opacity="1" stroke="#000000" stroke-opacity="1" stroke-width="3.2"/>
<circle clip-path="url(#clip952)" cx="2213.49" cy="1328" r="3.6" fill="#e26f46" fill-rule="evenodd" fill-opacity="1" stroke="#000000" stroke-opacity="1" stroke-width="3.2"/>
<circle clip-path="url(#clip952)" cx="2233.38" cy="1330.09" r="3.6" fill="#e26f46" fill-rule="evenodd" fill-opacity="1" stroke="#000000" stroke-opacity="1" stroke-width="3.2"/>
<circle clip-path="url(#clip952)" cx="2253.28" cy="1332.1" r="3.6" fill="#e26f46" fill-rule="evenodd" fill-opacity="1" stroke="#000000" stroke-opacity="1" stroke-width="3.2"/>
<circle clip-path="url(#clip952)" cx="2273.17" cy="1334.02" r="3.6" fill="#e26f46" fill-rule="evenodd" fill-opacity="1" stroke="#000000" stroke-opacity="1" stroke-width="3.2"/>
<circle clip-path="url(#clip952)" cx="2293.07" cy="1335.84" r="3.6" fill="#e26f46" fill-rule="evenodd" fill-opacity="1" stroke="#000000" stroke-opacity="1" stroke-width="3.2"/>
<circle clip-path="url(#clip952)" cx="2312.96" cy="1337.58" r="3.6" fill="#e26f46" fill-rule="evenodd" fill-opacity="1" stroke="#000000" stroke-opacity="1" stroke-width="3.2"/>
<circle clip-path="url(#clip952)" cx="2332.86" cy="1339.22" r="3.6" fill="#e26f46" fill-rule="evenodd" fill-opacity="1" stroke="#000000" stroke-opacity="1" stroke-width="3.2"/>
<circle clip-path="url(#clip952)" cx="2352.76" cy="1340.8" r="3.6" fill="#e26f46" fill-rule="evenodd" fill-opacity="1" stroke="#000000" stroke-opacity="1" stroke-width="3.2"/>
<path clip-path="url(#clip950)" d="M1631.32 440.581 L2287.1 440.581 L2287.1 90.6606 L1631.32 90.6606  Z" fill="#ffffff" fill-rule="evenodd" fill-opacity="1"/>
<polyline clip-path="url(#clip950)" style="stroke:#000000; stroke-linecap:round; stroke-linejoin:round; stroke-width:4; stroke-opacity:1; fill:none" points="1631.32,440.581 2287.1,440.581 2287.1,90.6606 1631.32,90.6606 1631.32,440.581 "/>
<polyline clip-path="url(#clip950)" style="stroke:#009af9; stroke-linecap:round; stroke-linejoin:round; stroke-width:18; stroke-opacity:1; fill:none" points="1653.2,207.301 1784.51,207.301 "/>
<circle clip-path="url(#clip950)" cx="1718.86" cy="207.301" r="8.10571" fill="#009af9" fill-rule="evenodd" fill-opacity="1" stroke="#000000" stroke-opacity="1" stroke-width="7.20507"/>
<path clip-path="url(#clip950)" d="M1832.5 237.641 L1833.87 246.075 Q1829.84 246.923 1826.66 246.923 Q1821.46 246.923 1818.6 245.279 Q1815.73 243.635 1814.57 240.982 Q1813.4 238.277 1813.4 229.684 L1813.4 197.276 L1806.4 197.276 L1806.4 189.85 L1813.4 189.85 L1813.4 175.9 L1822.89 170.171 L1822.89 189.85 L1832.5 189.85 L1832.5 197.276 L1822.89 197.276 L1822.89 230.215 Q1822.89 234.299 1823.37 235.466 Q1823.9 236.633 1825.02 237.323 Q1826.18 238.012 1828.3 238.012 Q1829.9 238.012 1832.5 237.641 Z" fill="#000000" fill-rule="nonzero" fill-opacity="1" /><path clip-path="url(#clip950)" d="M1841.72 246.181 L1841.72 189.85 L1850.32 189.85 L1850.32 198.39 Q1853.61 192.396 1856.36 190.486 Q1859.18 188.577 1862.52 188.577 Q1867.34 188.577 1872.33 191.653 L1869.04 200.511 Q1865.54 198.443 1862.04 198.443 Q1858.91 198.443 1856.42 200.352 Q1853.92 202.209 1852.86 205.55 Q1851.27 210.642 1851.27 216.689 L1851.27 246.181 L1841.72 246.181 Z" fill="#000000" fill-rule="nonzero" fill-opacity="1" /><path clip-path="url(#clip950)" d="M1914.76 239.232 Q1909.46 243.741 1904.53 245.597 Q1899.65 247.454 1894.02 247.454 Q1884.74 247.454 1879.76 242.945 Q1874.77 238.383 1874.77 231.329 Q1874.77 227.191 1876.63 223.797 Q1878.54 220.349 1881.56 218.28 Q1884.64 216.212 1888.45 215.151 Q1891.27 214.408 1896.94 213.719 Q1908.5 212.34 1913.97 210.43 Q1914.02 208.468 1914.02 207.937 Q1914.02 202.102 1911.32 199.716 Q1907.66 196.48 1900.44 196.48 Q1893.71 196.48 1890.47 198.867 Q1887.29 201.201 1885.75 207.195 L1876.41 205.922 Q1877.69 199.928 1880.6 196.268 Q1883.52 192.555 1889.04 190.592 Q1894.55 188.577 1901.82 188.577 Q1909.04 188.577 1913.54 190.274 Q1918.05 191.971 1920.17 194.57 Q1922.3 197.116 1923.14 201.042 Q1923.62 203.482 1923.62 209.847 L1923.62 222.577 Q1923.62 235.89 1924.21 239.444 Q1924.84 242.945 1926.65 246.181 L1916.67 246.181 Q1915.19 243.21 1914.76 239.232 M1913.97 217.909 Q1908.77 220.031 1898.37 221.516 Q1892.49 222.365 1890.05 223.425 Q1887.61 224.486 1886.28 226.555 Q1884.95 228.571 1884.95 231.064 Q1884.95 234.883 1887.82 237.429 Q1890.74 239.975 1896.31 239.975 Q1901.82 239.975 1906.12 237.588 Q1910.41 235.148 1912.43 230.957 Q1913.97 227.722 1913.97 221.41 L1913.97 217.909 Z" fill="#000000" fill-rule="nonzero" fill-opacity="1" /><path clip-path="url(#clip950)" d="M1938.47 179.4 L1938.47 168.421 L1948.02 168.421 L1948.02 179.4 L1938.47 179.4 M1938.47 246.181 L1938.47 189.85 L1948.02 189.85 L1948.02 246.181 L1938.47 246.181 Z" fill="#000000" fill-rule="nonzero" fill-opacity="1" /><path clip-path="url(#clip950)" d="M1962.55 246.181 L1962.55 189.85 L1971.15 189.85 L1971.15 197.859 Q1977.35 188.577 1989.08 188.577 Q1994.17 188.577 1998.41 190.433 Q2002.71 192.237 2004.83 195.207 Q2006.95 198.177 2007.8 202.262 Q2008.33 204.914 2008.33 211.544 L2008.33 246.181 L1998.78 246.181 L1998.78 211.915 Q1998.78 206.081 1997.67 203.216 Q1996.56 200.299 1993.69 198.602 Q1990.88 196.851 1987.06 196.851 Q1980.96 196.851 1976.51 200.723 Q1972.1 204.595 1972.1 215.416 L1972.1 246.181 L1962.55 246.181 Z" fill="#000000" fill-rule="nonzero" fill-opacity="1" /><path clip-path="url(#clip950)" d="M2014.17 267.769 L2014.17 260.873 L2077.44 260.873 L2077.44 267.769 L2014.17 267.769 Z" fill="#000000" fill-rule="nonzero" fill-opacity="1" /><path clip-path="url(#clip950)" d="M2083.17 246.181 L2083.17 168.421 L2092.72 168.421 L2092.72 246.181 L2083.17 246.181 Z" fill="#000000" fill-rule="nonzero" fill-opacity="1" /><path clip-path="url(#clip950)" d="M2103.97 218.015 Q2103.97 202.368 2112.66 194.836 Q2119.93 188.577 2130.38 188.577 Q2142 188.577 2149.37 196.215 Q2156.74 203.8 2156.74 217.22 Q2156.74 228.093 2153.45 234.352 Q2150.22 240.558 2143.96 244.006 Q2137.75 247.454 2130.38 247.454 Q2118.55 247.454 2111.23 239.869 Q2103.97 232.284 2103.97 218.015 M2113.78 218.015 Q2113.78 228.836 2118.5 234.246 Q2123.22 239.603 2130.38 239.603 Q2137.49 239.603 2142.21 234.193 Q2146.93 228.783 2146.93 217.697 Q2146.93 207.248 2142.16 201.89 Q2137.44 196.48 2130.38 196.48 Q2123.22 196.48 2118.5 201.837 Q2113.78 207.195 2113.78 218.015 Z" fill="#000000" fill-rule="nonzero" fill-opacity="1" /><path clip-path="url(#clip950)" d="M2164.12 229.366 L2173.56 227.881 Q2174.35 233.557 2177.96 236.58 Q2181.62 239.603 2188.14 239.603 Q2194.72 239.603 2197.9 236.951 Q2201.09 234.246 2201.09 230.639 Q2201.09 227.404 2198.27 225.547 Q2196.31 224.274 2188.52 222.312 Q2178.01 219.659 2173.93 217.75 Q2169.9 215.787 2167.78 212.393 Q2165.71 208.945 2165.71 204.808 Q2165.71 201.042 2167.4 197.859 Q2169.15 194.624 2172.13 192.502 Q2174.35 190.858 2178.17 189.744 Q2182.04 188.577 2186.45 188.577 Q2193.08 188.577 2198.06 190.486 Q2203.1 192.396 2205.49 195.684 Q2207.88 198.92 2208.78 204.383 L2199.44 205.656 Q2198.81 201.307 2195.73 198.867 Q2192.71 196.427 2187.14 196.427 Q2180.56 196.427 2177.75 198.602 Q2174.94 200.776 2174.94 203.694 Q2174.94 205.55 2176.1 207.035 Q2177.27 208.574 2179.76 209.581 Q2181.2 210.112 2188.2 212.021 Q2198.33 214.727 2202.31 216.477 Q2206.34 218.174 2208.62 221.463 Q2210.9 224.752 2210.9 229.631 Q2210.9 234.405 2208.09 238.649 Q2205.33 242.839 2200.08 245.173 Q2194.83 247.454 2188.2 247.454 Q2177.22 247.454 2171.44 242.892 Q2165.71 238.33 2164.12 229.366 Z" fill="#000000" fill-rule="nonzero" fill-opacity="1" /><path clip-path="url(#clip950)" d="M2218.43 229.366 L2227.87 227.881 Q2228.67 233.557 2232.27 236.58 Q2235.93 239.603 2242.46 239.603 Q2249.04 239.603 2252.22 236.951 Q2255.4 234.246 2255.4 230.639 Q2255.4 227.404 2252.59 225.547 Q2250.63 224.274 2242.83 222.312 Q2232.33 219.659 2228.24 217.75 Q2224.21 215.787 2222.09 212.393 Q2220.02 208.945 2220.02 204.808 Q2220.02 201.042 2221.72 197.859 Q2223.47 194.624 2226.44 192.502 Q2228.67 190.858 2232.49 189.744 Q2236.36 188.577 2240.76 188.577 Q2247.39 188.577 2252.38 190.486 Q2257.42 192.396 2259.8 195.684 Q2262.19 198.92 2263.09 204.383 L2253.76 205.656 Q2253.12 201.307 2250.04 198.867 Q2247.02 196.427 2241.45 196.427 Q2234.87 196.427 2232.06 198.602 Q2229.25 200.776 2229.25 203.694 Q2229.25 205.55 2230.42 207.035 Q2231.59 208.574 2234.08 209.581 Q2235.51 210.112 2242.51 212.021 Q2252.64 214.727 2256.62 216.477 Q2260.65 218.174 2262.93 221.463 Q2265.21 224.752 2265.21 229.631 Q2265.21 234.405 2262.4 238.649 Q2259.64 242.839 2254.39 245.173 Q2249.14 247.454 2242.51 247.454 Q2231.53 247.454 2225.75 242.892 Q2220.02 238.33 2218.43 229.366 Z" fill="#000000" fill-rule="nonzero" fill-opacity="1" /><polyline clip-path="url(#clip950)" style="stroke:#e26f46; stroke-linecap:round; stroke-linejoin:round; stroke-width:18; stroke-opacity:1; fill:none" points="1653.2,323.941 1784.51,323.941 "/>
<circle clip-path="url(#clip950)" cx="1718.86" cy="323.941" r="8.10571" fill="#e26f46" fill-rule="evenodd" fill-opacity="1" stroke="#000000" stroke-opacity="1" stroke-width="7.20507"/>
<path clip-path="url(#clip950)" d="M1827.83 362.821 L1806.4 306.49 L1816.48 306.49 L1828.57 340.225 Q1830.53 345.688 1832.18 351.576 Q1833.45 347.12 1835.73 340.861 L1848.25 306.49 L1858.06 306.49 L1836.74 362.821 L1827.83 362.821 Z" fill="#000000" fill-rule="nonzero" fill-opacity="1" /><path clip-path="url(#clip950)" d="M1903.25 355.872 Q1897.95 360.381 1893.02 362.237 Q1888.14 364.094 1882.51 364.094 Q1873.23 364.094 1868.25 359.585 Q1863.26 355.023 1863.26 347.969 Q1863.26 343.831 1865.12 340.437 Q1867.03 336.989 1870.05 334.92 Q1873.13 332.852 1876.94 331.791 Q1879.76 331.048 1885.43 330.359 Q1896.99 328.98 1902.46 327.07 Q1902.51 325.108 1902.51 324.577 Q1902.51 318.742 1899.81 316.356 Q1896.15 313.12 1888.93 313.12 Q1882.2 313.12 1878.96 315.507 Q1875.78 317.841 1874.24 323.835 L1864.9 322.562 Q1866.18 316.568 1869.09 312.908 Q1872.01 309.195 1877.53 307.232 Q1883.04 305.217 1890.31 305.217 Q1897.53 305.217 1902.03 306.914 Q1906.54 308.611 1908.66 311.21 Q1910.79 313.756 1911.63 317.682 Q1912.11 320.122 1912.11 326.487 L1912.11 339.217 Q1912.11 352.53 1912.7 356.084 Q1913.33 359.585 1915.14 362.821 L1905.16 362.821 Q1903.68 359.85 1903.25 355.872 M1902.46 334.549 Q1897.26 336.671 1886.86 338.156 Q1880.98 339.005 1878.54 340.065 Q1876.1 341.126 1874.77 343.195 Q1873.44 345.211 1873.44 347.704 Q1873.44 351.523 1876.31 354.069 Q1879.23 356.615 1884.79 356.615 Q1890.31 356.615 1894.61 354.228 Q1898.9 351.788 1900.92 347.597 Q1902.46 344.362 1902.46 338.05 L1902.46 334.549 Z" fill="#000000" fill-rule="nonzero" fill-opacity="1" /><path clip-path="url(#clip950)" d="M1926.7 362.821 L1926.7 285.061 L1936.25 285.061 L1936.25 362.821 L1926.7 362.821 Z" fill="#000000" fill-rule="nonzero" fill-opacity="1" /><path clip-path="url(#clip950)" d="M1942.24 384.409 L1942.24 377.513 L2005.52 377.513 L2005.52 384.409 L1942.24 384.409 Z" fill="#000000" fill-rule="nonzero" fill-opacity="1" /><path clip-path="url(#clip950)" d="M2011.25 362.821 L2011.25 285.061 L2020.8 285.061 L2020.8 362.821 L2011.25 362.821 Z" fill="#000000" fill-rule="nonzero" fill-opacity="1" /><path clip-path="url(#clip950)" d="M2032.04 334.655 Q2032.04 319.008 2040.74 311.476 Q2048.01 305.217 2058.46 305.217 Q2070.07 305.217 2077.44 312.855 Q2084.82 320.44 2084.82 333.86 Q2084.82 344.733 2081.53 350.992 Q2078.29 357.198 2072.03 360.646 Q2065.83 364.094 2058.46 364.094 Q2046.63 364.094 2039.31 356.509 Q2032.04 348.924 2032.04 334.655 M2041.85 334.655 Q2041.85 345.476 2046.57 350.886 Q2051.29 356.243 2058.46 356.243 Q2065.56 356.243 2070.28 350.833 Q2075 345.423 2075 334.337 Q2075 323.888 2070.23 318.53 Q2065.51 313.12 2058.46 313.12 Q2051.29 313.12 2046.57 318.477 Q2041.85 323.835 2041.85 334.655 Z" fill="#000000" fill-rule="nonzero" fill-opacity="1" /><path clip-path="url(#clip950)" d="M2092.19 346.006 L2101.63 344.521 Q2102.43 350.197 2106.03 353.22 Q2109.69 356.243 2116.22 356.243 Q2122.8 356.243 2125.98 353.591 Q2129.16 350.886 2129.16 347.279 Q2129.16 344.044 2126.35 342.187 Q2124.39 340.914 2116.59 338.952 Q2106.09 336.299 2102 334.39 Q2097.97 332.427 2095.85 329.033 Q2093.78 325.585 2093.78 321.448 Q2093.78 317.682 2095.48 314.499 Q2097.23 311.264 2100.2 309.142 Q2102.43 307.498 2106.25 306.384 Q2110.12 305.217 2114.52 305.217 Q2121.15 305.217 2126.14 307.126 Q2131.18 309.036 2133.56 312.324 Q2135.95 315.56 2136.85 321.023 L2127.52 322.296 Q2126.88 317.947 2123.8 315.507 Q2120.78 313.067 2115.21 313.067 Q2108.63 313.067 2105.82 315.242 Q2103.01 317.416 2103.01 320.334 Q2103.01 322.19 2104.18 323.675 Q2105.34 325.214 2107.84 326.221 Q2109.27 326.752 2116.27 328.661 Q2126.4 331.367 2130.38 333.117 Q2134.41 334.814 2136.69 338.103 Q2138.97 341.392 2138.97 346.271 Q2138.97 351.045 2136.16 355.289 Q2133.4 359.479 2128.15 361.813 Q2122.9 364.094 2116.27 364.094 Q2105.29 364.094 2099.51 359.532 Q2093.78 354.97 2092.19 346.006 Z" fill="#000000" fill-rule="nonzero" fill-opacity="1" /><path clip-path="url(#clip950)" d="M2146.51 346.006 L2155.95 344.521 Q2156.74 350.197 2160.35 353.22 Q2164.01 356.243 2170.53 356.243 Q2177.11 356.243 2180.29 353.591 Q2183.48 350.886 2183.48 347.279 Q2183.48 344.044 2180.66 342.187 Q2178.7 340.914 2170.91 338.952 Q2160.4 336.299 2156.32 334.39 Q2152.29 332.427 2150.17 329.033 Q2148.1 325.585 2148.1 321.448 Q2148.1 317.682 2149.79 314.499 Q2151.54 311.264 2154.51 309.142 Q2156.74 307.498 2160.56 306.384 Q2164.43 305.217 2168.84 305.217 Q2175.47 305.217 2180.45 307.126 Q2185.49 309.036 2187.88 312.324 Q2190.27 315.56 2191.17 321.023 L2181.83 322.296 Q2181.2 317.947 2178.12 315.507 Q2175.1 313.067 2169.53 313.067 Q2162.95 313.067 2160.14 315.242 Q2157.33 317.416 2157.33 320.334 Q2157.33 322.19 2158.49 323.675 Q2159.66 325.214 2162.15 326.221 Q2163.59 326.752 2170.59 328.661 Q2180.72 331.367 2184.7 333.117 Q2188.73 334.814 2191.01 338.103 Q2193.29 341.392 2193.29 346.271 Q2193.29 351.045 2190.48 355.289 Q2187.72 359.479 2182.47 361.813 Q2177.22 364.094 2170.59 364.094 Q2159.61 364.094 2153.83 359.532 Q2148.1 354.97 2146.51 346.006 Z" fill="#000000" fill-rule="nonzero" fill-opacity="1" /></svg>
