<?xml version="1.0" encoding="utf-8"?>
<svg xmlns="http://www.w3.org/2000/svg" xmlns:xlink="http://www.w3.org/1999/xlink" width="600" height="400" viewBox="0 0 2400 1600">
<defs>
  <clipPath id="clip670">
    <rect x="0" y="0" width="2400" height="1600"/>
  </clipPath>
</defs>
<path clip-path="url(#clip670)" d="M0 1600 L2400 1600 L2400 8.88178e-14 L0 8.88178e-14  Z" fill="#ffffff" fill-rule="evenodd" fill-opacity="1"/>
<defs>
  <clipPath id="clip671">
    <rect x="480" y="0" width="1681" height="1600"/>
  </clipPath>
</defs>
<path clip-path="url(#clip670)" d="M322.229 1312.91 L2352.76 1312.91 L2352.76 47.2441 L322.229 47.2441  Z" fill="#ffffff" fill-rule="evenodd" fill-opacity="1"/>
<defs>
  <clipPath id="clip672">
    <rect x="322" y="47" width="2032" height="1267"/>
  </clipPath>
</defs>
<polyline clip-path="url(#clip670)" style="stroke:#000000; stroke-linecap:round; stroke-linejoin:round; stroke-width:4; stroke-opacity:1; fill:none" points="322.229,1312.91 2352.76,1312.91 "/>
<polyline clip-path="url(#clip670)" style="stroke:#000000; stroke-linecap:round; stroke-linejoin:round; stroke-width:2; stroke-opacity:0.5; fill:none" points="322.229,47.2441 2352.76,47.2441 "/>
<polyline clip-path="url(#clip670)" style="stroke:#000000; stroke-linecap:round; stroke-linejoin:round; stroke-width:4; stroke-opacity:1; fill:none" points="722.989,1312.91 722.989,1294.02 "/>
<polyline clip-path="url(#clip670)" style="stroke:#000000; stroke-linecap:round; stroke-linejoin:round; stroke-width:4; stroke-opacity:1; fill:none" points="1132.51,1312.91 1132.51,1294.02 "/>
<polyline clip-path="url(#clip670)" style="stroke:#000000; stroke-linecap:round; stroke-linejoin:round; stroke-width:4; stroke-opacity:1; fill:none" points="1542.04,1312.91 1542.04,1294.02 "/>
<polyline clip-path="url(#clip670)" style="stroke:#000000; stroke-linecap:round; stroke-linejoin:round; stroke-width:4; stroke-opacity:1; fill:none" points="1951.57,1312.91 1951.57,1294.02 "/>
<path clip-path="url(#clip670)" d="M601.34 1453.47 Q594.444 1441.52 592.689 1432.86 Q590.952 1424.12 593.495 1417.39 Q596.083 1410.63 603.433 1406.38 Q608.853 1403.26 614.215 1403.1 Q619.55 1402.9 624.601 1405.49 Q629.625 1408.04 634.563 1413.09 Q639.473 1418.1 645.255 1428.11 Q652.097 1439.97 653.879 1448.67 Q655.635 1457.34 653.073 1464.15 Q650.531 1470.88 643.135 1475.15 Q633.397 1480.77 623.807 1477 Q612.293 1472.44 601.34 1453.47 M609.838 1448.56 Q619.412 1465.14 626.453 1468.43 Q633.514 1471.64 639.21 1468.35 Q644.906 1465.06 645.582 1457.32 Q646.304 1449.56 636.757 1433.02 Q627.156 1416.39 620.095 1413.18 Q613.081 1409.94 607.293 1413.28 Q601.597 1416.57 600.982 1423.36 Q600.264 1431.98 609.838 1448.56 Z" fill="#000000" fill-rule="nonzero" fill-opacity="1" /><path clip-path="url(#clip670)" d="M677.475 1453.79 L672.039 1444.38 L681.455 1438.94 L686.892 1448.36 L677.475 1453.79 Z" fill="#000000" fill-rule="nonzero" fill-opacity="1" /><path clip-path="url(#clip670)" d="M737.841 1408.35 L742.429 1416.29 L697.917 1441.99 Q696.101 1439.06 695.566 1435.69 Q694.64 1430.16 695.815 1423.61 Q697.036 1417.02 700.768 1407.15 Q706.549 1391.81 707.384 1384.34 Q708.193 1376.83 705.488 1372.15 Q702.65 1367.23 697.177 1365.92 Q691.723 1364.54 686.073 1367.8 Q680.101 1371.25 678.587 1376.9 Q677.073 1382.55 680.687 1388.92 L671.685 1392.95 Q667.067 1382.94 669.899 1374.69 Q672.704 1366.39 682.305 1360.85 Q691.998 1355.25 700.751 1357.36 Q709.504 1359.48 714.092 1367.42 Q716.426 1371.47 717.026 1376.33 Q717.627 1381.18 716.261 1387.73 Q714.942 1394.25 710.38 1406.93 Q706.545 1417.47 705.731 1420.94 Q704.891 1424.37 704.813 1427.41 L737.841 1408.35 Z" fill="#000000" fill-rule="nonzero" fill-opacity="1" /><path clip-path="url(#clip670)" d="M1010.45 1453.71 Q1003.56 1441.76 1001.8 1433.1 Q1000.06 1424.36 1002.61 1417.63 Q1005.2 1410.87 1012.55 1406.62 Q1017.97 1403.49 1023.33 1403.34 Q1028.66 1403.14 1033.71 1405.73 Q1038.74 1408.28 1043.67 1413.33 Q1048.59 1418.34 1054.37 1428.35 Q1061.21 1440.2 1062.99 1448.91 Q1064.75 1457.58 1062.19 1464.38 Q1059.64 1471.12 1052.25 1475.39 Q1042.51 1481.01 1032.92 1477.24 Q1021.41 1472.68 1010.45 1453.71 M1018.95 1448.8 Q1028.52 1465.38 1035.57 1468.67 Q1042.63 1471.88 1048.32 1468.59 Q1054.02 1465.3 1054.69 1457.56 Q1055.42 1449.8 1045.87 1433.26 Q1036.27 1416.63 1029.21 1413.42 Q1022.19 1410.18 1016.4 1413.52 Q1010.71 1416.81 1010.09 1423.6 Q1009.38 1432.22 1018.95 1448.8 Z" fill="#000000" fill-rule="nonzero" fill-opacity="1" /><path clip-path="url(#clip670)" d="M1086.59 1454.03 L1081.15 1444.62 L1090.57 1439.18 L1096 1448.6 L1086.59 1454.03 Z" fill="#000000" fill-rule="nonzero" fill-opacity="1" /><path clip-path="url(#clip670)" d="M1134.59 1426.32 L1125.28 1410.19 L1096.07 1427.06 L1091.69 1419.48 L1097.23 1358.1 L1103.98 1354.2 L1129.17 1397.84 L1138.27 1392.59 L1142.65 1400.17 L1133.55 1405.42 L1142.86 1421.54 L1134.59 1426.32 M1120.91 1402.61 L1103.38 1372.25 L1099.82 1414.79 L1120.91 1402.61 Z" fill="#000000" fill-rule="nonzero" fill-opacity="1" /><path clip-path="url(#clip670)" d="M1419.75 1453.84 Q1412.85 1441.9 1411.1 1433.23 Q1409.36 1424.5 1411.9 1417.76 Q1414.49 1411 1421.84 1406.76 Q1427.26 1403.63 1432.62 1403.47 Q1437.96 1403.27 1443.01 1405.87 Q1448.03 1408.42 1452.97 1413.47 Q1457.88 1418.47 1463.66 1428.48 Q1470.5 1440.34 1472.29 1449.05 Q1474.04 1457.71 1471.48 1464.52 Q1468.94 1471.25 1461.54 1475.52 Q1451.8 1481.14 1442.22 1477.37 Q1430.7 1472.81 1419.75 1453.84 M1428.25 1448.93 Q1437.82 1465.52 1444.86 1468.8 Q1451.92 1472.01 1457.62 1468.72 Q1463.31 1465.43 1463.99 1457.69 Q1464.71 1449.93 1455.16 1433.39 Q1445.56 1416.76 1438.5 1413.55 Q1431.49 1410.31 1425.7 1413.65 Q1420 1416.94 1419.39 1423.73 Q1418.67 1432.35 1428.25 1448.93 Z" fill="#000000" fill-rule="nonzero" fill-opacity="1" /><path clip-path="url(#clip670)" d="M1495.88 1454.16 L1490.45 1444.75 L1499.86 1439.31 L1505.3 1448.73 L1495.88 1454.16 Z" fill="#000000" fill-rule="nonzero" fill-opacity="1" /><path clip-path="url(#clip670)" d="M1530.93 1366.13 L1523.08 1371.52 Q1519.16 1367.29 1515.87 1366.25 Q1510.47 1364.65 1505.56 1367.49 Q1501.61 1369.77 1499.89 1373.7 Q1497.63 1378.8 1498.54 1385.57 Q1499.44 1392.33 1505.19 1402.49 Q1505.55 1396.22 1508.59 1391.52 Q1511.64 1386.82 1516.37 1384.09 Q1524.64 1379.32 1533.95 1382.08 Q1543.29 1384.78 1548.86 1394.43 Q1552.52 1400.77 1552.92 1407.82 Q1553.33 1414.81 1550.23 1420.46 Q1547.12 1426.11 1541.06 1429.61 Q1530.72 1435.58 1519.82 1431.77 Q1508.9 1427.91 1498.82 1410.45 Q1487.55 1390.93 1489.64 1377.9 Q1491.48 1366.55 1502.14 1360.4 Q1510.08 1355.81 1517.71 1357.35 Q1525.38 1358.86 1530.93 1366.13 M1513.92 1414.66 Q1516.39 1418.93 1520.44 1421.8 Q1524.53 1424.64 1528.98 1424.83 Q1533.41 1424.96 1537 1422.9 Q1542.23 1419.87 1543.56 1413.47 Q1544.89 1407.07 1540.7 1399.81 Q1536.66 1392.83 1530.64 1390.98 Q1524.58 1389.09 1518.93 1392.35 Q1513.33 1395.59 1511.76 1401.88 Q1510.16 1408.13 1513.92 1414.66 Z" fill="#000000" fill-rule="nonzero" fill-opacity="1" /><path clip-path="url(#clip670)" d="M1829.09 1453.95 Q1822.19 1442 1820.44 1433.34 Q1818.7 1424.6 1821.24 1417.87 Q1823.83 1411.11 1831.18 1406.86 Q1836.6 1403.73 1841.96 1403.58 Q1847.3 1403.38 1852.35 1405.97 Q1857.37 1408.52 1862.31 1413.57 Q1867.22 1418.58 1873 1428.59 Q1879.85 1440.44 1881.63 1449.15 Q1883.38 1457.82 1880.82 1464.62 Q1878.28 1471.36 1870.88 1475.63 Q1861.15 1481.25 1851.56 1477.48 Q1840.04 1472.92 1829.09 1453.95 M1837.59 1449.04 Q1847.16 1465.62 1854.2 1468.91 Q1861.26 1472.12 1866.96 1468.83 Q1872.66 1465.54 1873.33 1457.8 Q1874.05 1450.03 1864.51 1433.5 Q1854.91 1416.87 1847.84 1413.66 Q1840.83 1410.42 1835.04 1413.76 Q1829.35 1417.05 1828.73 1423.83 Q1828.01 1432.46 1837.59 1449.04 Z" fill="#000000" fill-rule="nonzero" fill-opacity="1" /><path clip-path="url(#clip670)" d="M1905.22 1454.27 L1899.79 1444.85 L1909.2 1439.42 L1914.64 1448.83 L1905.22 1454.27 Z" fill="#000000" fill-rule="nonzero" fill-opacity="1" /><path clip-path="url(#clip670)" d="M1918.36 1397.99 Q1912.13 1399.08 1907.63 1397.02 Q1903.14 1394.96 1900.33 1390.09 Q1896.08 1382.74 1898.48 1374.69 Q1900.87 1366.63 1909.64 1361.56 Q1918.46 1356.47 1926.81 1358.51 Q1935.12 1360.51 1939.37 1367.86 Q1942.07 1372.54 1941.61 1377.47 Q1941.16 1382.32 1937.24 1387.09 Q1944.61 1385.53 1950.43 1388.18 Q1956.29 1390.8 1959.89 1397.05 Q1964.88 1405.68 1962.16 1415.09 Q1959.45 1424.5 1949.48 1430.25 Q1939.51 1436.01 1930.01 1433.65 Q1920.48 1431.25 1915.39 1422.43 Q1911.59 1415.87 1912.35 1409.55 Q1913.14 1403.15 1918.36 1397.99 M1908.62 1384.94 Q1911.38 1389.71 1916.21 1390.97 Q1921.03 1392.22 1925.95 1389.39 Q1930.73 1386.63 1932.03 1381.89 Q1933.36 1377.08 1930.84 1372.72 Q1928.22 1368.17 1923.27 1366.92 Q1918.34 1365.6 1913.66 1368.31 Q1908.93 1371.04 1907.55 1375.88 Q1906.18 1380.71 1908.62 1384.94 M1923.91 1417.57 Q1925.95 1421.11 1929.52 1423.46 Q1933.13 1425.79 1937.49 1425.72 Q1941.84 1425.6 1945.65 1423.4 Q1951.57 1419.98 1953.23 1413.94 Q1954.89 1407.9 1951.49 1402.02 Q1948.05 1396.05 1941.8 1394.45 Q1935.59 1392.82 1929.62 1396.27 Q1923.78 1399.64 1922.15 1405.73 Q1920.57 1411.79 1923.91 1417.57 Z" fill="#000000" fill-rule="nonzero" fill-opacity="1" /><path clip-path="url(#clip670)" d="M1286.69 1575.55 L1286.69 1572.23 Q1295.13 1572.23 1300.5 1565.74 Q1300.5 1565.74 1310.62 1552.88 L1299.92 1538.97 Q1296.13 1534.12 1294.44 1533.28 Q1292.81 1532.38 1287.22 1532.38 L1287.22 1529.01 Q1291.65 1529.33 1297.45 1529.33 Q1300.66 1529.33 1309.14 1529.01 L1309.14 1532.38 Q1305.35 1532.6 1305.35 1535.07 Q1305.35 1535.92 1306.3 1537.02 L1314.73 1547.93 L1321.42 1539.5 Q1323.06 1537.55 1323.06 1535.7 Q1323.06 1532.7 1319.9 1532.38 L1319.9 1529.01 Q1324.11 1529.33 1330.28 1529.33 Q1334.92 1529.33 1339.13 1529.01 L1339.13 1532.38 Q1330.91 1532.6 1326.27 1537.97 Q1324.22 1540.24 1316.36 1550.2 L1330.8 1568.85 Q1332.54 1571.12 1334.49 1571.7 Q1336.44 1572.23 1341.08 1572.23 L1341.08 1575.55 Q1336.23 1575.23 1330.7 1575.23 Q1328.75 1575.23 1319.05 1575.55 L1319.05 1572.23 Q1321 1572.12 1321.95 1571.28 Q1322.95 1570.38 1322.95 1569.49 Q1322.95 1569.06 1320.69 1565.95 L1312.46 1555.15 Q1304.24 1564.85 1303.19 1567.11 Q1302.77 1568.06 1302.77 1568.85 Q1302.77 1571.75 1305.88 1572.23 L1305.88 1575.55 Q1298.13 1575.23 1295.65 1575.23 Q1290.91 1575.23 1286.69 1575.55 Z" fill="#000000" fill-rule="nonzero" fill-opacity="1" /><path clip-path="url(#clip670)" d="M1352.07 1562.32 L1352.07 1559.96 Q1361.15 1559.96 1365.83 1555.13 Q1367.13 1555.13 1367.35 1555.42 Q1367.57 1555.72 1367.57 1557.08 L1367.57 1599.47 Q1367.57 1601.72 1368.67 1602.42 Q1369.78 1603.12 1374.61 1603.12 L1377.01 1603.12 L1377.01 1605.44 Q1374.36 1605.22 1364.76 1605.22 Q1355.17 1605.22 1352.55 1605.44 L1352.55 1603.12 L1354.95 1603.12 Q1359.71 1603.12 1360.85 1602.46 Q1362 1601.76 1362 1599.47 L1362 1560.33 Q1358.05 1562.32 1352.07 1562.32 Z" fill="#000000" fill-rule="nonzero" fill-opacity="1" /><polyline clip-path="url(#clip670)" style="stroke:#000000; stroke-linecap:round; stroke-linejoin:round; stroke-width:4; stroke-opacity:1; fill:none" points="322.229,1312.91 322.229,47.2441 "/>
<polyline clip-path="url(#clip670)" style="stroke:#000000; stroke-linecap:round; stroke-linejoin:round; stroke-width:2; stroke-opacity:0.5; fill:none" points="2352.76,1312.91 2352.76,47.2441 "/>
<polyline clip-path="url(#clip670)" style="stroke:#000000; stroke-linecap:round; stroke-linejoin:round; stroke-width:4; stroke-opacity:1; fill:none" points="322.229,1063.25 341.127,1063.25 "/>
<polyline clip-path="url(#clip670)" style="stroke:#000000; stroke-linecap:round; stroke-linejoin:round; stroke-width:4; stroke-opacity:1; fill:none" points="322.229,802.038 341.127,802.038 "/>
<polyline clip-path="url(#clip670)" style="stroke:#000000; stroke-linecap:round; stroke-linejoin:round; stroke-width:4; stroke-opacity:1; fill:none" points="322.229,540.829 341.127,540.829 "/>
<polyline clip-path="url(#clip670)" style="stroke:#000000; stroke-linecap:round; stroke-linejoin:round; stroke-width:4; stroke-opacity:1; fill:none" points="322.229,279.62 341.127,279.62 "/>
<path clip-path="url(#clip670)" d="M145.455 1063.78 Q145.455 1049.99 148.266 1041.61 Q151.13 1033.17 156.7 1028.61 Q162.322 1024.05 170.809 1024.05 Q177.068 1024.05 181.789 1026.6 Q186.51 1029.09 189.586 1033.86 Q192.663 1038.58 194.413 1045.43 Q196.163 1052.21 196.163 1063.78 Q196.163 1077.46 193.352 1085.9 Q190.541 1094.28 184.918 1098.89 Q179.349 1103.45 170.809 1103.45 Q159.564 1103.45 153.146 1095.39 Q145.455 1085.68 145.455 1063.78 M155.268 1063.78 Q155.268 1082.93 159.723 1089.29 Q164.232 1095.6 170.809 1095.6 Q177.386 1095.6 181.842 1089.24 Q186.351 1082.87 186.351 1063.78 Q186.351 1044.58 181.842 1038.26 Q177.386 1031.95 170.703 1031.95 Q164.126 1031.95 160.201 1037.52 Q155.268 1044.63 155.268 1063.78 Z" fill="#000000" fill-rule="nonzero" fill-opacity="1" /><path clip-path="url(#clip670)" d="M211.227 1102.13 L211.227 1091.25 L222.101 1091.25 L222.101 1102.13 L211.227 1102.13 Z" fill="#000000" fill-rule="nonzero" fill-opacity="1" /><path clip-path="url(#clip670)" d="M286.229 1092.95 L286.229 1102.13 L234.831 1102.13 Q234.725 1098.68 235.945 1095.5 Q237.908 1090.25 242.204 1085.15 Q246.554 1080.06 254.722 1073.38 Q267.399 1062.98 271.855 1056.94 Q276.31 1050.84 276.31 1045.43 Q276.31 1039.75 272.226 1035.88 Q268.195 1031.95 261.671 1031.95 Q254.775 1031.95 250.638 1036.09 Q246.5 1040.23 246.447 1047.55 L236.635 1046.54 Q237.642 1035.56 244.22 1029.83 Q250.797 1024.05 261.883 1024.05 Q273.075 1024.05 279.599 1030.26 Q286.123 1036.46 286.123 1045.64 Q286.123 1050.31 284.214 1054.81 Q282.304 1059.32 277.848 1064.31 Q273.446 1069.29 263.156 1077.99 Q254.563 1085.21 252.123 1087.81 Q249.683 1090.35 248.092 1092.95 L286.229 1092.95 Z" fill="#000000" fill-rule="nonzero" fill-opacity="1" /><path clip-path="url(#clip670)" d="M144.978 802.569 Q144.978 788.778 147.789 780.397 Q150.653 771.963 156.223 767.402 Q161.845 762.84 170.332 762.84 Q176.591 762.84 181.312 765.386 Q186.032 767.879 189.109 772.653 Q192.185 777.374 193.936 784.216 Q195.686 791.006 195.686 802.569 Q195.686 816.254 192.875 824.688 Q190.063 833.068 184.441 837.683 Q178.872 842.245 170.332 842.245 Q159.087 842.245 152.669 834.182 Q144.978 824.475 144.978 802.569 M154.79 802.569 Q154.79 821.717 159.246 828.082 Q163.755 834.394 170.332 834.394 Q176.909 834.394 181.365 828.029 Q185.873 821.664 185.873 802.569 Q185.873 783.368 181.365 777.056 Q176.909 770.744 170.226 770.744 Q163.648 770.744 159.723 776.313 Q154.79 783.421 154.79 802.569 Z" fill="#000000" fill-rule="nonzero" fill-opacity="1" /><path clip-path="url(#clip670)" d="M210.75 840.918 L210.75 830.045 L221.624 830.045 L221.624 840.918 L210.75 840.918 Z" fill="#000000" fill-rule="nonzero" fill-opacity="1" /><path clip-path="url(#clip670)" d="M266.179 840.918 L266.179 822.301 L232.444 822.301 L232.444 813.549 L267.93 763.158 L275.727 763.158 L275.727 813.549 L286.229 813.549 L286.229 822.301 L275.727 822.301 L275.727 840.918 L266.179 840.918 M266.179 813.549 L266.179 778.488 L241.833 813.549 L266.179 813.549 Z" fill="#000000" fill-rule="nonzero" fill-opacity="1" /><path clip-path="url(#clip670)" d="M144.712 541.36 Q144.712 527.569 147.524 519.188 Q150.388 510.754 155.957 506.193 Q161.58 501.631 170.067 501.631 Q176.326 501.631 181.046 504.177 Q185.767 506.67 188.844 511.444 Q191.92 516.165 193.67 523.007 Q195.421 529.797 195.421 541.36 Q195.421 555.045 192.61 563.479 Q189.798 571.859 184.176 576.474 Q178.606 581.036 170.067 581.036 Q158.822 581.036 152.403 572.973 Q144.712 563.266 144.712 541.36 M154.525 541.36 Q154.525 560.508 158.981 566.873 Q163.489 573.185 170.067 573.185 Q176.644 573.185 181.099 566.82 Q185.608 560.455 185.608 541.36 Q185.608 522.159 181.099 515.847 Q176.644 509.535 169.96 509.535 Q163.383 509.535 159.458 515.104 Q154.525 522.212 154.525 541.36 Z" fill="#000000" fill-rule="nonzero" fill-opacity="1" /><path clip-path="url(#clip670)" d="M210.485 579.709 L210.485 568.836 L221.358 568.836 L221.358 579.709 L210.485 579.709 Z" fill="#000000" fill-rule="nonzero" fill-opacity="1" /><path clip-path="url(#clip670)" d="M284.85 520.992 L275.355 521.734 Q274.082 516.112 271.749 513.566 Q267.877 509.481 262.201 509.481 Q257.639 509.481 254.192 512.027 Q249.683 515.316 247.084 521.628 Q244.485 527.94 244.379 539.609 Q247.827 534.358 252.813 531.812 Q257.798 529.266 263.262 529.266 Q272.809 529.266 279.493 536.321 Q286.229 543.322 286.229 554.461 Q286.229 561.781 283.047 568.093 Q279.917 574.352 274.401 577.694 Q268.884 581.036 261.883 581.036 Q249.948 581.036 242.416 572.284 Q234.884 563.479 234.884 543.322 Q234.884 520.779 243.212 510.542 Q250.479 501.631 262.784 501.631 Q271.961 501.631 277.795 506.776 Q283.683 511.921 284.85 520.992 M245.864 554.514 Q245.864 559.447 247.933 563.956 Q250.054 568.464 253.82 570.851 Q257.586 573.185 261.724 573.185 Q267.77 573.185 272.12 568.305 Q276.469 563.425 276.469 555.045 Q276.469 546.982 272.173 542.368 Q267.877 537.7 261.352 537.7 Q254.881 537.7 250.373 542.368 Q245.864 546.982 245.864 554.514 Z" fill="#000000" fill-rule="nonzero" fill-opacity="1" /><path clip-path="url(#clip670)" d="M144.5 280.151 Q144.5 266.36 147.311 257.979 Q150.176 249.545 155.745 244.984 Q161.368 240.422 169.854 240.422 Q176.113 240.422 180.834 242.968 Q185.555 245.461 188.631 250.235 Q191.708 254.956 193.458 261.798 Q195.209 268.588 195.209 280.151 Q195.209 293.836 192.397 302.27 Q189.586 310.65 183.964 315.265 Q178.394 319.827 169.854 319.827 Q158.609 319.827 152.191 311.764 Q144.5 302.057 144.5 280.151 M154.313 280.151 Q154.313 299.299 158.769 305.664 Q163.277 311.976 169.854 311.976 Q176.432 311.976 180.887 305.611 Q185.396 299.246 185.396 280.151 Q185.396 260.95 180.887 254.638 Q176.432 248.325 169.748 248.325 Q163.171 248.325 159.246 253.895 Q154.313 261.003 154.313 280.151 Z" fill="#000000" fill-rule="nonzero" fill-opacity="1" /><path clip-path="url(#clip670)" d="M210.273 318.5 L210.273 307.627 L221.146 307.627 L221.146 318.5 L210.273 318.5 Z" fill="#000000" fill-rule="nonzero" fill-opacity="1" /><path clip-path="url(#clip670)" d="M249.789 276.332 Q243.848 274.157 240.984 270.126 Q238.12 266.095 238.12 260.472 Q238.12 251.985 244.22 246.204 Q250.32 240.422 260.451 240.422 Q270.635 240.422 276.841 246.363 Q283.047 252.251 283.047 260.737 Q283.047 266.148 280.182 270.179 Q277.371 274.157 271.589 276.332 Q278.75 278.666 282.463 283.864 Q286.229 289.062 286.229 296.276 Q286.229 306.248 279.175 313.037 Q272.12 319.827 260.61 319.827 Q249.1 319.827 242.045 313.037 Q234.99 306.195 234.99 296.011 Q234.99 288.425 238.809 283.333 Q242.681 278.188 249.789 276.332 M247.88 260.154 Q247.88 265.67 251.433 269.171 Q254.987 272.672 260.663 272.672 Q266.179 272.672 269.68 269.224 Q273.234 265.723 273.234 260.684 Q273.234 255.433 269.574 251.879 Q265.967 248.272 260.557 248.272 Q255.093 248.272 251.486 251.773 Q247.88 255.274 247.88 260.154 M244.803 296.064 Q244.803 300.148 246.713 303.967 Q248.675 307.786 252.494 309.908 Q256.313 311.976 260.716 311.976 Q267.558 311.976 272.014 307.574 Q276.469 303.171 276.469 296.382 Q276.469 289.486 271.855 284.978 Q267.293 280.469 260.398 280.469 Q253.661 280.469 249.206 284.925 Q244.803 289.38 244.803 296.064 Z" fill="#000000" fill-rule="nonzero" fill-opacity="1" /><path clip-path="url(#clip670)" d="M69.9417 733.47 L66.6215 733.47 Q66.6215 725.038 60.1394 719.662 Q60.1394 719.662 47.2804 709.544 L33.3675 720.242 Q28.5191 724.036 27.6759 725.723 Q26.7799 727.356 26.7799 732.943 L23.4071 732.943 Q23.7233 728.516 23.7233 722.719 Q23.7233 719.504 23.4071 711.019 L26.7799 711.019 Q26.9907 714.814 29.4677 714.814 Q30.3109 714.814 31.4176 713.865 L42.3266 705.433 L33.8945 698.74 Q31.9446 697.106 30.1001 697.106 Q27.0962 697.106 26.7799 700.268 L23.4071 700.268 Q23.7233 696.052 23.7233 689.886 Q23.7233 685.249 23.4071 681.033 L26.7799 681.033 Q26.9907 689.254 32.3662 693.892 Q34.6323 695.947 44.5927 703.799 L63.2487 689.359 Q65.5148 687.62 66.0945 685.67 Q66.6215 683.72 66.6215 679.083 L69.9417 679.083 Q69.6255 683.931 69.6255 689.465 Q69.6255 691.415 69.9417 701.112 L66.6215 701.112 Q66.5161 699.162 65.6729 698.213 Q64.777 697.212 63.8811 697.212 Q63.4595 697.212 60.3502 699.478 L49.5466 707.699 Q59.2435 715.92 61.5096 716.974 Q62.4582 717.396 63.2487 717.396 Q66.1472 717.396 66.6215 714.287 L69.9417 714.287 Q69.6255 722.034 69.6255 724.511 Q69.6255 729.254 69.9417 733.47 Z" fill="#000000" fill-rule="nonzero" fill-opacity="1" /><path clip-path="url(#clip670)" d="M99.8404 668.09 Q98.4755 668.09 98.0697 667.98 Q97.6639 667.832 97.0367 667.242 L80.8788 652.744 Q71.9513 644.813 64.1674 644.813 Q59.1135 644.813 55.4982 647.469 Q51.883 650.088 51.883 654.92 Q51.883 658.241 53.9119 661.044 Q55.9409 663.848 59.5561 665.139 Q59.4824 664.918 59.4824 664.143 Q59.4824 662.262 60.6629 661.229 Q61.8433 660.159 63.4296 660.159 Q65.4586 660.159 66.4546 661.487 Q67.4138 662.778 67.4138 664.069 Q67.4138 664.586 67.3031 665.287 Q67.1924 665.951 66.1595 667.021 Q65.0897 668.09 63.2083 668.09 Q57.933 668.09 53.7275 664.106 Q49.522 660.085 49.522 653.961 Q49.522 647.026 53.6537 642.488 Q57.7485 637.914 64.1674 637.914 Q66.4178 637.914 68.4836 638.615 Q70.5126 639.279 72.0989 640.201 Q73.6851 641.087 76.2306 643.521 Q78.776 645.956 80.5836 647.911 Q82.3913 649.867 86.2279 654.256 L94.0117 662.262 L94.0117 648.649 Q94.0117 642.009 93.4215 641.492 Q92.3517 640.755 86.7074 639.832 L86.7074 637.914 L99.8404 640.054 L99.8404 668.09 Z" fill="#000000" fill-rule="nonzero" fill-opacity="1" /><circle clip-path="url(#clip672)" cx="375.272" cy="1220.84" r="14.4" fill="#009af9" fill-rule="evenodd" fill-opacity="1" stroke="#000000" stroke-opacity="1" stroke-width="3.2"/>
<circle clip-path="url(#clip672)" cx="1268.65" cy="1264.15" r="14.4" fill="#009af9" fill-rule="evenodd" fill-opacity="1" stroke="#000000" stroke-opacity="1" stroke-width="3.2"/>
<circle clip-path="url(#clip672)" cx="846.521" cy="908.825" r="14.4" fill="#009af9" fill-rule="evenodd" fill-opacity="1" stroke="#000000" stroke-opacity="1" stroke-width="3.2"/>
<circle clip-path="url(#clip672)" cx="2306.92" cy="99.9681" r="14.4" fill="#009af9" fill-rule="evenodd" fill-opacity="1" stroke="#000000" stroke-opacity="1" stroke-width="3.2"/>
<circle clip-path="url(#clip672)" cx="2069.2" cy="435.039" r="14.4" fill="#009af9" fill-rule="evenodd" fill-opacity="1" stroke="#000000" stroke-opacity="1" stroke-width="3.2"/>
<circle clip-path="url(#clip672)" cx="1950.86" cy="93.3999" r="14.4" fill="#009af9" fill-rule="evenodd" fill-opacity="1" stroke="#000000" stroke-opacity="1" stroke-width="3.2"/>
<circle clip-path="url(#clip672)" cx="1290.86" cy="804.275" r="14.4" fill="#009af9" fill-rule="evenodd" fill-opacity="1" stroke="#000000" stroke-opacity="1" stroke-width="3.2"/>
<circle clip-path="url(#clip672)" cx="1864.16" cy="515.788" r="14.4" fill="#009af9" fill-rule="evenodd" fill-opacity="1" stroke="#000000" stroke-opacity="1" stroke-width="3.2"/>
<circle clip-path="url(#clip672)" cx="871.764" cy="1074.27" r="14.4" fill="#009af9" fill-rule="evenodd" fill-opacity="1" stroke="#000000" stroke-opacity="1" stroke-width="3.2"/>
<circle clip-path="url(#clip672)" cx="1249.29" cy="933.472" r="14.4" fill="#009af9" fill-rule="evenodd" fill-opacity="1" stroke="#000000" stroke-opacity="1" stroke-width="3.2"/>
<circle clip-path="url(#clip672)" cx="2124.27" cy="483.888" r="14.4" fill="#009af9" fill-rule="evenodd" fill-opacity="1" stroke="#000000" stroke-opacity="1" stroke-width="3.2"/>
<circle clip-path="url(#clip672)" cx="1093.96" cy="1005.45" r="14.4" fill="#009af9" fill-rule="evenodd" fill-opacity="1" stroke="#000000" stroke-opacity="1" stroke-width="3.2"/>
<circle clip-path="url(#clip672)" cx="1718.54" cy="411.236" r="14.4" fill="#009af9" fill-rule="evenodd" fill-opacity="1" stroke="#000000" stroke-opacity="1" stroke-width="3.2"/>
<circle clip-path="url(#clip672)" cx="1622.48" cy="362.103" r="14.4" fill="#009af9" fill-rule="evenodd" fill-opacity="1" stroke="#000000" stroke-opacity="1" stroke-width="3.2"/>
<circle clip-path="url(#clip672)" cx="2147.96" cy="423.452" r="14.4" fill="#009af9" fill-rule="evenodd" fill-opacity="1" stroke="#000000" stroke-opacity="1" stroke-width="3.2"/>
<circle clip-path="url(#clip672)" cx="814.358" cy="1266.49" r="14.4" fill="#009af9" fill-rule="evenodd" fill-opacity="1" stroke="#000000" stroke-opacity="1" stroke-width="3.2"/>
<circle clip-path="url(#clip672)" cx="778.908" cy="692.312" r="14.4" fill="#009af9" fill-rule="evenodd" fill-opacity="1" stroke="#000000" stroke-opacity="1" stroke-width="3.2"/>
<circle clip-path="url(#clip672)" cx="1180.82" cy="691.413" r="14.4" fill="#009af9" fill-rule="evenodd" fill-opacity="1" stroke="#000000" stroke-opacity="1" stroke-width="3.2"/>
<circle clip-path="url(#clip672)" cx="902.96" cy="859.339" r="14.4" fill="#009af9" fill-rule="evenodd" fill-opacity="1" stroke="#000000" stroke-opacity="1" stroke-width="3.2"/>
<circle clip-path="url(#clip672)" cx="972.615" cy="1118.21" r="14.4" fill="#009af9" fill-rule="evenodd" fill-opacity="1" stroke="#000000" stroke-opacity="1" stroke-width="3.2"/>
<circle clip-path="url(#clip672)" cx="413.511" cy="750.975" r="14.4" fill="#009af9" fill-rule="evenodd" fill-opacity="1" stroke="#000000" stroke-opacity="1" stroke-width="3.2"/>
<circle clip-path="url(#clip672)" cx="1892.63" cy="557" r="14.4" fill="#009af9" fill-rule="evenodd" fill-opacity="1" stroke="#000000" stroke-opacity="1" stroke-width="3.2"/>
<circle clip-path="url(#clip672)" cx="1127.82" cy="911.838" r="14.4" fill="#009af9" fill-rule="evenodd" fill-opacity="1" stroke="#000000" stroke-opacity="1" stroke-width="3.2"/>
<circle clip-path="url(#clip672)" cx="2089.96" cy="482.57" r="14.4" fill="#009af9" fill-rule="evenodd" fill-opacity="1" stroke="#000000" stroke-opacity="1" stroke-width="3.2"/>
<circle clip-path="url(#clip672)" cx="1831.14" cy="306.452" r="14.4" fill="#009af9" fill-rule="evenodd" fill-opacity="1" stroke="#000000" stroke-opacity="1" stroke-width="3.2"/>
<circle clip-path="url(#clip672)" cx="885.861" cy="906.354" r="14.4" fill="#009af9" fill-rule="evenodd" fill-opacity="1" stroke="#000000" stroke-opacity="1" stroke-width="3.2"/>
<circle clip-path="url(#clip672)" cx="1757.92" cy="202.766" r="14.4" fill="#009af9" fill-rule="evenodd" fill-opacity="1" stroke="#000000" stroke-opacity="1" stroke-width="3.2"/>
<circle clip-path="url(#clip672)" cx="704.289" cy="1098.94" r="14.4" fill="#009af9" fill-rule="evenodd" fill-opacity="1" stroke="#000000" stroke-opacity="1" stroke-width="3.2"/>
<circle clip-path="url(#clip672)" cx="1165.45" cy="1013.82" r="14.4" fill="#009af9" fill-rule="evenodd" fill-opacity="1" stroke="#000000" stroke-opacity="1" stroke-width="3.2"/>
<circle clip-path="url(#clip672)" cx="377.918" cy="802.43" r="14.4" fill="#009af9" fill-rule="evenodd" fill-opacity="1" stroke="#000000" stroke-opacity="1" stroke-width="3.2"/>
<circle clip-path="url(#clip672)" cx="539.227" cy="1152.72" r="14.4" fill="#009af9" fill-rule="evenodd" fill-opacity="1" stroke="#000000" stroke-opacity="1" stroke-width="3.2"/>
<circle clip-path="url(#clip672)" cx="552.117" cy="739.338" r="14.4" fill="#009af9" fill-rule="evenodd" fill-opacity="1" stroke="#000000" stroke-opacity="1" stroke-width="3.2"/>
<circle clip-path="url(#clip672)" cx="1569.64" cy="451.574" r="14.4" fill="#009af9" fill-rule="evenodd" fill-opacity="1" stroke="#000000" stroke-opacity="1" stroke-width="3.2"/>
<circle clip-path="url(#clip672)" cx="1751.58" cy="595.277" r="14.4" fill="#009af9" fill-rule="evenodd" fill-opacity="1" stroke="#000000" stroke-opacity="1" stroke-width="3.2"/>
<circle clip-path="url(#clip672)" cx="322.229" cy="691.571" r="14.4" fill="#009af9" fill-rule="evenodd" fill-opacity="1" stroke="#000000" stroke-opacity="1" stroke-width="3.2"/>
<circle clip-path="url(#clip672)" cx="1019.41" cy="1178.74" r="14.4" fill="#009af9" fill-rule="evenodd" fill-opacity="1" stroke="#000000" stroke-opacity="1" stroke-width="3.2"/>
<circle clip-path="url(#clip672)" cx="1769.88" cy="290.411" r="14.4" fill="#009af9" fill-rule="evenodd" fill-opacity="1" stroke="#000000" stroke-opacity="1" stroke-width="3.2"/>
<circle clip-path="url(#clip672)" cx="1415.54" cy="405.874" r="14.4" fill="#009af9" fill-rule="evenodd" fill-opacity="1" stroke="#000000" stroke-opacity="1" stroke-width="3.2"/>
<circle clip-path="url(#clip672)" cx="1692.14" cy="252.072" r="14.4" fill="#009af9" fill-rule="evenodd" fill-opacity="1" stroke="#000000" stroke-opacity="1" stroke-width="3.2"/>
<circle clip-path="url(#clip672)" cx="1436.38" cy="514.915" r="14.4" fill="#009af9" fill-rule="evenodd" fill-opacity="1" stroke="#000000" stroke-opacity="1" stroke-width="3.2"/>
<circle clip-path="url(#clip672)" cx="1431.68" cy="221.995" r="14.4" fill="#009af9" fill-rule="evenodd" fill-opacity="1" stroke="#000000" stroke-opacity="1" stroke-width="3.2"/>
<circle clip-path="url(#clip672)" cx="1790.08" cy="254.477" r="14.4" fill="#009af9" fill-rule="evenodd" fill-opacity="1" stroke="#000000" stroke-opacity="1" stroke-width="3.2"/>
<circle clip-path="url(#clip672)" cx="2072.25" cy="128.684" r="14.4" fill="#009af9" fill-rule="evenodd" fill-opacity="1" stroke="#000000" stroke-opacity="1" stroke-width="3.2"/>
<circle clip-path="url(#clip672)" cx="2107.05" cy="504.195" r="14.4" fill="#009af9" fill-rule="evenodd" fill-opacity="1" stroke="#000000" stroke-opacity="1" stroke-width="3.2"/>
<circle clip-path="url(#clip672)" cx="1866.35" cy="297.846" r="14.4" fill="#009af9" fill-rule="evenodd" fill-opacity="1" stroke="#000000" stroke-opacity="1" stroke-width="3.2"/>
<circle clip-path="url(#clip672)" cx="1692.26" cy="253.322" r="14.4" fill="#009af9" fill-rule="evenodd" fill-opacity="1" stroke="#000000" stroke-opacity="1" stroke-width="3.2"/>
<circle clip-path="url(#clip672)" cx="1037.09" cy="1238.17" r="14.4" fill="#009af9" fill-rule="evenodd" fill-opacity="1" stroke="#000000" stroke-opacity="1" stroke-width="3.2"/>
<circle clip-path="url(#clip672)" cx="1033.46" cy="1211.68" r="14.4" fill="#009af9" fill-rule="evenodd" fill-opacity="1" stroke="#000000" stroke-opacity="1" stroke-width="3.2"/>
<circle clip-path="url(#clip672)" cx="556.263" cy="1056.42" r="14.4" fill="#009af9" fill-rule="evenodd" fill-opacity="1" stroke="#000000" stroke-opacity="1" stroke-width="3.2"/>
<circle clip-path="url(#clip672)" cx="1015.08" cy="974.606" r="14.4" fill="#009af9" fill-rule="evenodd" fill-opacity="1" stroke="#000000" stroke-opacity="1" stroke-width="3.2"/>
<circle clip-path="url(#clip672)" cx="1667.24" cy="489.33" r="14.4" fill="#009af9" fill-rule="evenodd" fill-opacity="1" stroke="#000000" stroke-opacity="1" stroke-width="3.2"/>
<circle clip-path="url(#clip672)" cx="829.275" cy="169.962" r="14.4" fill="#e26f46" fill-rule="evenodd" fill-opacity="1" stroke="#000000" stroke-opacity="1" stroke-width="3.2"/>
<circle clip-path="url(#clip672)" cx="554.704" cy="137.128" r="14.4" fill="#e26f46" fill-rule="evenodd" fill-opacity="1" stroke="#000000" stroke-opacity="1" stroke-width="3.2"/>
<circle clip-path="url(#clip672)" cx="2352.76" cy="954.591" r="14.4" fill="#e26f46" fill-rule="evenodd" fill-opacity="1" stroke="#000000" stroke-opacity="1" stroke-width="3.2"/>
<circle clip-path="url(#clip672)" cx="1329.85" cy="393.825" r="14.4" fill="#e26f46" fill-rule="evenodd" fill-opacity="1" stroke="#000000" stroke-opacity="1" stroke-width="3.2"/>
<circle clip-path="url(#clip672)" cx="859.064" cy="136.214" r="14.4" fill="#e26f46" fill-rule="evenodd" fill-opacity="1" stroke="#000000" stroke-opacity="1" stroke-width="3.2"/>
<circle clip-path="url(#clip672)" cx="1894.78" cy="723.733" r="14.4" fill="#e26f46" fill-rule="evenodd" fill-opacity="1" stroke="#000000" stroke-opacity="1" stroke-width="3.2"/>
<circle clip-path="url(#clip672)" cx="945.614" cy="241.122" r="14.4" fill="#e26f46" fill-rule="evenodd" fill-opacity="1" stroke="#000000" stroke-opacity="1" stroke-width="3.2"/>
<circle clip-path="url(#clip672)" cx="757.007" cy="408.012" r="14.4" fill="#e26f46" fill-rule="evenodd" fill-opacity="1" stroke="#000000" stroke-opacity="1" stroke-width="3.2"/>
<circle clip-path="url(#clip672)" cx="1236.79" cy="47.2441" r="14.4" fill="#e26f46" fill-rule="evenodd" fill-opacity="1" stroke="#000000" stroke-opacity="1" stroke-width="3.2"/>
<circle clip-path="url(#clip672)" cx="435.283" cy="100.785" r="14.4" fill="#e26f46" fill-rule="evenodd" fill-opacity="1" stroke="#000000" stroke-opacity="1" stroke-width="3.2"/>
<circle clip-path="url(#clip672)" cx="653.021" cy="112.078" r="14.4" fill="#e26f46" fill-rule="evenodd" fill-opacity="1" stroke="#000000" stroke-opacity="1" stroke-width="3.2"/>
<circle clip-path="url(#clip672)" cx="1321.98" cy="456.325" r="14.4" fill="#e26f46" fill-rule="evenodd" fill-opacity="1" stroke="#000000" stroke-opacity="1" stroke-width="3.2"/>
<circle clip-path="url(#clip672)" cx="1542.45" cy="1312.91" r="14.4" fill="#e26f46" fill-rule="evenodd" fill-opacity="1" stroke="#000000" stroke-opacity="1" stroke-width="3.2"/>
<circle clip-path="url(#clip672)" cx="1996.33" cy="735.845" r="14.4" fill="#e26f46" fill-rule="evenodd" fill-opacity="1" stroke="#000000" stroke-opacity="1" stroke-width="3.2"/>
<circle clip-path="url(#clip672)" cx="790.115" cy="483.328" r="14.4" fill="#e26f46" fill-rule="evenodd" fill-opacity="1" stroke="#000000" stroke-opacity="1" stroke-width="3.2"/>
<circle clip-path="url(#clip672)" cx="820.853" cy="283.998" r="14.4" fill="#e26f46" fill-rule="evenodd" fill-opacity="1" stroke="#000000" stroke-opacity="1" stroke-width="3.2"/>
<circle clip-path="url(#clip672)" cx="1442.03" cy="784.029" r="14.4" fill="#e26f46" fill-rule="evenodd" fill-opacity="1" stroke="#000000" stroke-opacity="1" stroke-width="3.2"/>
<circle clip-path="url(#clip672)" cx="544.914" cy="242.876" r="14.4" fill="#e26f46" fill-rule="evenodd" fill-opacity="1" stroke="#000000" stroke-opacity="1" stroke-width="3.2"/>
<circle clip-path="url(#clip672)" cx="1505.86" cy="1214.49" r="14.4" fill="#e26f46" fill-rule="evenodd" fill-opacity="1" stroke="#000000" stroke-opacity="1" stroke-width="3.2"/>
<circle clip-path="url(#clip672)" cx="2274.08" cy="947.601" r="14.4" fill="#e26f46" fill-rule="evenodd" fill-opacity="1" stroke="#000000" stroke-opacity="1" stroke-width="3.2"/>
<circle clip-path="url(#clip672)" cx="1693.47" cy="980.343" r="14.4" fill="#e26f46" fill-rule="evenodd" fill-opacity="1" stroke="#000000" stroke-opacity="1" stroke-width="3.2"/>
<circle clip-path="url(#clip672)" cx="752.746" cy="207.771" r="14.4" fill="#e26f46" fill-rule="evenodd" fill-opacity="1" stroke="#000000" stroke-opacity="1" stroke-width="3.2"/>
<circle clip-path="url(#clip672)" cx="1846.22" cy="1279.41" r="14.4" fill="#e26f46" fill-rule="evenodd" fill-opacity="1" stroke="#000000" stroke-opacity="1" stroke-width="3.2"/>
<circle clip-path="url(#clip672)" cx="2095.41" cy="771.595" r="14.4" fill="#e26f46" fill-rule="evenodd" fill-opacity="1" stroke="#000000" stroke-opacity="1" stroke-width="3.2"/>
<circle clip-path="url(#clip672)" cx="1432.64" cy="752.773" r="14.4" fill="#e26f46" fill-rule="evenodd" fill-opacity="1" stroke="#000000" stroke-opacity="1" stroke-width="3.2"/>
<circle clip-path="url(#clip672)" cx="1213.6" cy="553.659" r="14.4" fill="#e26f46" fill-rule="evenodd" fill-opacity="1" stroke="#000000" stroke-opacity="1" stroke-width="3.2"/>
<circle clip-path="url(#clip672)" cx="944.373" cy="224.473" r="14.4" fill="#e26f46" fill-rule="evenodd" fill-opacity="1" stroke="#000000" stroke-opacity="1" stroke-width="3.2"/>
<circle clip-path="url(#clip672)" cx="1812.24" cy="931.517" r="14.4" fill="#e26f46" fill-rule="evenodd" fill-opacity="1" stroke="#000000" stroke-opacity="1" stroke-width="3.2"/>
<circle clip-path="url(#clip672)" cx="892.107" cy="262.368" r="14.4" fill="#e26f46" fill-rule="evenodd" fill-opacity="1" stroke="#000000" stroke-opacity="1" stroke-width="3.2"/>
<circle clip-path="url(#clip672)" cx="1192.06" cy="310.562" r="14.4" fill="#e26f46" fill-rule="evenodd" fill-opacity="1" stroke="#000000" stroke-opacity="1" stroke-width="3.2"/>
<circle clip-path="url(#clip672)" cx="2026.14" cy="1060.2" r="14.4" fill="#e26f46" fill-rule="evenodd" fill-opacity="1" stroke="#000000" stroke-opacity="1" stroke-width="3.2"/>
<circle clip-path="url(#clip672)" cx="1251.55" cy="399.333" r="14.4" fill="#e26f46" fill-rule="evenodd" fill-opacity="1" stroke="#000000" stroke-opacity="1" stroke-width="3.2"/>
<circle clip-path="url(#clip672)" cx="1671.62" cy="1265.18" r="14.4" fill="#e26f46" fill-rule="evenodd" fill-opacity="1" stroke="#000000" stroke-opacity="1" stroke-width="3.2"/>
<circle clip-path="url(#clip672)" cx="541.3" cy="505.25" r="14.4" fill="#e26f46" fill-rule="evenodd" fill-opacity="1" stroke="#000000" stroke-opacity="1" stroke-width="3.2"/>
<circle clip-path="url(#clip672)" cx="1206.01" cy="611.43" r="14.4" fill="#e26f46" fill-rule="evenodd" fill-opacity="1" stroke="#000000" stroke-opacity="1" stroke-width="3.2"/>
<circle clip-path="url(#clip672)" cx="1672.81" cy="690.287" r="14.4" fill="#e26f46" fill-rule="evenodd" fill-opacity="1" stroke="#000000" stroke-opacity="1" stroke-width="3.2"/>
<circle clip-path="url(#clip672)" cx="2100.46" cy="1176.43" r="14.4" fill="#e26f46" fill-rule="evenodd" fill-opacity="1" stroke="#000000" stroke-opacity="1" stroke-width="3.2"/>
<circle clip-path="url(#clip672)" cx="1565.75" cy="1126.64" r="14.4" fill="#e26f46" fill-rule="evenodd" fill-opacity="1" stroke="#000000" stroke-opacity="1" stroke-width="3.2"/>
<circle clip-path="url(#clip672)" cx="2262.04" cy="1188.68" r="14.4" fill="#e26f46" fill-rule="evenodd" fill-opacity="1" stroke="#000000" stroke-opacity="1" stroke-width="3.2"/>
<circle clip-path="url(#clip672)" cx="2306.2" cy="671.767" r="14.4" fill="#e26f46" fill-rule="evenodd" fill-opacity="1" stroke="#000000" stroke-opacity="1" stroke-width="3.2"/>
<circle clip-path="url(#clip672)" cx="2020.21" cy="837.172" r="14.4" fill="#e26f46" fill-rule="evenodd" fill-opacity="1" stroke="#000000" stroke-opacity="1" stroke-width="3.2"/>
<circle clip-path="url(#clip672)" cx="451.319" cy="605.034" r="14.4" fill="#e26f46" fill-rule="evenodd" fill-opacity="1" stroke="#000000" stroke-opacity="1" stroke-width="3.2"/>
<circle clip-path="url(#clip672)" cx="883.087" cy="163.174" r="14.4" fill="#e26f46" fill-rule="evenodd" fill-opacity="1" stroke="#000000" stroke-opacity="1" stroke-width="3.2"/>
<circle clip-path="url(#clip672)" cx="2310.9" cy="962.59" r="14.4" fill="#e26f46" fill-rule="evenodd" fill-opacity="1" stroke="#000000" stroke-opacity="1" stroke-width="3.2"/>
<circle clip-path="url(#clip672)" cx="804.629" cy="609.414" r="14.4" fill="#e26f46" fill-rule="evenodd" fill-opacity="1" stroke="#000000" stroke-opacity="1" stroke-width="3.2"/>
<circle clip-path="url(#clip672)" cx="534.332" cy="143.261" r="14.4" fill="#e26f46" fill-rule="evenodd" fill-opacity="1" stroke="#000000" stroke-opacity="1" stroke-width="3.2"/>
<circle clip-path="url(#clip672)" cx="913.307" cy="386.777" r="14.4" fill="#e26f46" fill-rule="evenodd" fill-opacity="1" stroke="#000000" stroke-opacity="1" stroke-width="3.2"/>
<circle clip-path="url(#clip672)" cx="1387.73" cy="1141.23" r="14.4" fill="#e26f46" fill-rule="evenodd" fill-opacity="1" stroke="#000000" stroke-opacity="1" stroke-width="3.2"/>
<circle clip-path="url(#clip672)" cx="2296.87" cy="734.824" r="14.4" fill="#e26f46" fill-rule="evenodd" fill-opacity="1" stroke="#000000" stroke-opacity="1" stroke-width="3.2"/>
<circle clip-path="url(#clip672)" cx="768.624" cy="68.1517" r="14.4" fill="#e26f46" fill-rule="evenodd" fill-opacity="1" stroke="#000000" stroke-opacity="1" stroke-width="3.2"/>
<path clip-path="url(#clip670)" d="M1940.71 439.353 L2285.07 439.353 L2285.07 89.4331 L1940.71 89.4331  Z" fill="#ffffff" fill-rule="evenodd" fill-opacity="1"/>
<polyline clip-path="url(#clip670)" style="stroke:#000000; stroke-linecap:round; stroke-linejoin:round; stroke-width:4; stroke-opacity:1; fill:none" points="1940.71,439.353 2285.07,439.353 2285.07,89.4331 1940.71,89.4331 1940.71,439.353 "/>
<circle clip-path="url(#clip670)" cx="2030.96" cy="206.073" r="46.08" fill="#009af9" fill-rule="evenodd" fill-opacity="1" stroke="#000000" stroke-opacity="1" stroke-width="10.24"/>
<path clip-path="url(#clip670)" d="M2121.21 206.604 Q2121.21 192.813 2124.02 184.432 Q2126.88 175.998 2132.45 171.436 Q2138.07 166.875 2146.56 166.875 Q2152.82 166.875 2157.54 169.421 Q2162.26 171.914 2165.34 176.688 Q2168.41 181.408 2170.16 188.251 Q2171.91 195.04 2171.91 206.604 Q2171.91 220.288 2169.1 228.722 Q2166.29 237.103 2160.67 241.718 Q2155.1 246.279 2146.56 246.279 Q2135.31 246.279 2128.9 238.217 Q2121.21 228.51 2121.21 206.604 M2131.02 206.604 Q2131.02 225.752 2135.47 232.117 Q2139.98 238.429 2146.56 238.429 Q2153.14 238.429 2157.59 232.064 Q2162.1 225.699 2162.1 206.604 Q2162.1 187.402 2157.59 181.09 Q2153.14 174.778 2146.45 174.778 Q2139.88 174.778 2135.95 180.348 Q2131.02 187.455 2131.02 206.604 Z" fill="#000000" fill-rule="nonzero" fill-opacity="1" /><path clip-path="url(#clip670)" d="M2186.98 244.953 L2186.98 234.079 L2197.85 234.079 L2197.85 244.953 L2186.98 244.953 Z" fill="#000000" fill-rule="nonzero" fill-opacity="1" /><path clip-path="url(#clip670)" d="M2211.8 206.604 Q2211.8 192.813 2214.61 184.432 Q2217.48 175.998 2223.05 171.436 Q2228.67 166.875 2237.16 166.875 Q2243.42 166.875 2248.14 169.421 Q2252.86 171.914 2255.93 176.688 Q2259.01 181.408 2260.76 188.251 Q2262.51 195.04 2262.51 206.604 Q2262.51 220.288 2259.7 228.722 Q2256.89 237.103 2251.27 241.718 Q2245.7 246.279 2237.16 246.279 Q2225.91 246.279 2219.49 238.217 Q2211.8 228.51 2211.8 206.604 M2221.61 206.604 Q2221.61 225.752 2226.07 232.117 Q2230.58 238.429 2237.16 238.429 Q2243.73 238.429 2248.19 232.064 Q2252.7 225.699 2252.7 206.604 Q2252.7 187.402 2248.19 181.09 Q2243.73 174.778 2237.05 174.778 Q2230.47 174.778 2226.55 180.348 Q2221.61 187.455 2221.61 206.604 Z" fill="#000000" fill-rule="nonzero" fill-opacity="1" /><circle clip-path="url(#clip670)" cx="2030.96" cy="322.713" r="46.08" fill="#e26f46" fill-rule="evenodd" fill-opacity="1" stroke="#000000" stroke-opacity="1" stroke-width="10.24"/>
<path clip-path="url(#clip670)" d="M2149.85 361.593 L2140.3 361.593 L2140.3 300.754 Q2136.85 304.042 2131.23 307.331 Q2125.66 310.619 2121.21 312.264 L2121.21 303.034 Q2129.21 299.268 2135.21 293.911 Q2141.2 288.554 2143.7 283.515 L2149.85 283.515 L2149.85 361.593 Z" fill="#000000" fill-rule="nonzero" fill-opacity="1" /><path clip-path="url(#clip670)" d="M2179.66 361.593 L2179.66 350.719 L2190.53 350.719 L2190.53 361.593 L2179.66 361.593 Z" fill="#000000" fill-rule="nonzero" fill-opacity="1" /><path clip-path="url(#clip670)" d="M2204.48 323.244 Q2204.48 309.453 2207.29 301.072 Q2210.16 292.638 2215.73 288.076 Q2221.35 283.515 2229.84 283.515 Q2236.1 283.515 2240.82 286.061 Q2245.54 288.554 2248.61 293.328 Q2251.69 298.048 2253.44 304.891 Q2255.19 311.68 2255.19 323.244 Q2255.19 336.928 2252.38 345.362 Q2249.57 353.743 2243.95 358.358 Q2238.38 362.919 2229.84 362.919 Q2218.59 362.919 2212.17 354.857 Q2204.48 345.15 2204.48 323.244 M2214.29 323.244 Q2214.29 342.392 2218.75 348.757 Q2223.26 355.069 2229.84 355.069 Q2236.41 355.069 2240.87 348.704 Q2245.38 342.339 2245.38 323.244 Q2245.38 304.042 2240.87 297.73 Q2236.41 291.418 2229.73 291.418 Q2223.15 291.418 2219.23 296.988 Q2214.29 304.095 2214.29 323.244 Z" fill="#000000" fill-rule="nonzero" fill-opacity="1" /></svg>
