<?xml version="1.0" encoding="utf-8"?>
<svg xmlns="http://www.w3.org/2000/svg" xmlns:xlink="http://www.w3.org/1999/xlink" width="600" height="400" viewBox="0 0 2400 1600">
<defs>
  <clipPath id="clip700">
    <rect x="0" y="0" width="2400" height="1600"/>
  </clipPath>
</defs>
<path clip-path="url(#clip700)" d="M0 1600 L2400 1600 L2400 8.88178e-14 L0 8.88178e-14  Z" fill="#ffffff" fill-rule="evenodd" fill-opacity="1"/>
<defs>
  <clipPath id="clip701">
    <rect x="480" y="0" width="1681" height="1600"/>
  </clipPath>
</defs>
<path clip-path="url(#clip700)" d="M383.069 1349.74 L2352.76 1349.74 L2352.76 47.2441 L383.069 47.2441  Z" fill="#ffffff" fill-rule="evenodd" fill-opacity="1"/>
<defs>
  <clipPath id="clip702">
    <rect x="383" y="47" width="1971" height="1303"/>
  </clipPath>
</defs>
<polyline clip-path="url(#clip700)" style="stroke:#000000; stroke-linecap:round; stroke-linejoin:round; stroke-width:4; stroke-opacity:1; fill:none" points="383.069,1349.74 2352.76,1349.74 "/>
<polyline clip-path="url(#clip700)" style="stroke:#000000; stroke-linecap:round; stroke-linejoin:round; stroke-width:2; stroke-opacity:0.5; fill:none" points="383.069,47.2441 2352.76,47.2441 "/>
<polyline clip-path="url(#clip700)" style="stroke:#000000; stroke-linecap:round; stroke-linejoin:round; stroke-width:4; stroke-opacity:1; fill:none" points="601.923,1349.74 601.923,1330.84 "/>
<polyline clip-path="url(#clip700)" style="stroke:#000000; stroke-linecap:round; stroke-linejoin:round; stroke-width:4; stroke-opacity:1; fill:none" points="1039.63,1349.74 1039.63,1330.84 "/>
<polyline clip-path="url(#clip700)" style="stroke:#000000; stroke-linecap:round; stroke-linejoin:round; stroke-width:4; stroke-opacity:1; fill:none" points="1477.34,1349.74 1477.34,1330.84 "/>
<polyline clip-path="url(#clip700)" style="stroke:#000000; stroke-linecap:round; stroke-linejoin:round; stroke-width:4; stroke-opacity:1; fill:none" points="1915.05,1349.74 1915.05,1330.84 "/>
<polyline clip-path="url(#clip700)" style="stroke:#000000; stroke-linecap:round; stroke-linejoin:round; stroke-width:4; stroke-opacity:1; fill:none" points="2352.76,1349.74 2352.76,1330.84 "/>
<path clip-path="url(#clip700)" d="M627.675 1456.96 L627.675 1466.14 L576.277 1466.14 Q576.171 1462.69 577.391 1459.51 Q579.353 1454.26 583.65 1449.17 Q587.999 1444.07 596.168 1437.39 Q608.845 1426.99 613.3 1420.95 Q617.756 1414.85 617.756 1409.44 Q617.756 1403.76 613.672 1399.89 Q609.64 1395.96 603.116 1395.96 Q596.221 1395.96 592.083 1400.1 Q587.946 1404.24 587.893 1411.56 L578.08 1410.55 Q579.088 1399.57 585.665 1393.84 Q592.243 1388.06 603.328 1388.06 Q614.52 1388.06 621.045 1394.27 Q627.569 1400.47 627.569 1409.65 Q627.569 1414.32 625.659 1418.83 Q623.75 1423.33 619.294 1428.32 Q614.892 1433.31 604.601 1442.01 Q596.009 1449.22 593.569 1451.82 Q591.129 1454.36 589.537 1456.96 L627.675 1456.96 Z" fill="#000000" fill-rule="nonzero" fill-opacity="1" /><path clip-path="url(#clip700)" d="M1046.47 1466.14 L1046.47 1447.52 L1012.74 1447.52 L1012.74 1438.77 L1048.22 1388.38 L1056.02 1388.38 L1056.02 1438.77 L1066.52 1438.77 L1066.52 1447.52 L1056.02 1447.52 L1056.02 1466.14 L1046.47 1466.14 M1046.47 1438.77 L1046.47 1403.71 L1022.13 1438.77 L1046.47 1438.77 Z" fill="#000000" fill-rule="nonzero" fill-opacity="1" /><path clip-path="url(#clip700)" d="M1501.63 1407.42 L1492.14 1408.16 Q1490.87 1402.54 1488.53 1400 Q1484.66 1395.91 1478.98 1395.91 Q1474.42 1395.91 1470.97 1398.46 Q1466.47 1401.75 1463.87 1408.06 Q1461.27 1414.37 1461.16 1426.04 Q1464.61 1420.79 1469.6 1418.24 Q1474.58 1415.7 1480.04 1415.7 Q1489.59 1415.7 1496.28 1422.75 Q1503.01 1429.75 1503.01 1440.89 Q1503.01 1448.21 1499.83 1454.52 Q1496.7 1460.78 1491.18 1464.12 Q1485.67 1467.47 1478.67 1467.47 Q1466.73 1467.47 1459.2 1458.71 Q1451.67 1449.91 1451.67 1429.75 Q1451.67 1407.21 1459.99 1396.97 Q1467.26 1388.06 1479.57 1388.06 Q1488.74 1388.06 1494.58 1393.21 Q1500.47 1398.35 1501.63 1407.42 M1462.65 1440.94 Q1462.65 1445.88 1464.72 1450.39 Q1466.84 1454.89 1470.6 1457.28 Q1474.37 1459.62 1478.51 1459.62 Q1484.55 1459.62 1488.9 1454.74 Q1493.25 1449.86 1493.25 1441.48 Q1493.25 1433.41 1488.96 1428.8 Q1484.66 1424.13 1478.13 1424.13 Q1471.66 1424.13 1467.16 1428.8 Q1462.65 1433.41 1462.65 1440.94 Z" fill="#000000" fill-rule="nonzero" fill-opacity="1" /><path clip-path="url(#clip700)" d="M1904.23 1423.97 Q1898.29 1421.8 1895.42 1417.77 Q1892.56 1413.73 1892.56 1408.11 Q1892.56 1399.62 1898.66 1393.84 Q1904.76 1388.06 1914.89 1388.06 Q1925.07 1388.06 1931.28 1394 Q1937.48 1399.89 1937.48 1408.38 Q1937.48 1413.79 1934.62 1417.82 Q1931.81 1421.8 1926.03 1423.97 Q1933.19 1426.31 1936.9 1431.5 Q1940.67 1436.7 1940.67 1443.92 Q1940.67 1453.89 1933.61 1460.68 Q1926.56 1467.47 1915.05 1467.47 Q1903.54 1467.47 1896.48 1460.68 Q1889.43 1453.83 1889.43 1443.65 Q1889.43 1436.06 1893.25 1430.97 Q1897.12 1425.83 1904.23 1423.97 M1902.32 1407.79 Q1902.32 1413.31 1905.87 1416.81 Q1909.43 1420.31 1915.1 1420.31 Q1920.62 1420.31 1924.12 1416.86 Q1927.67 1413.36 1927.67 1408.32 Q1927.67 1403.07 1924.01 1399.52 Q1920.4 1395.91 1914.99 1395.91 Q1909.53 1395.91 1905.92 1399.41 Q1902.32 1402.91 1902.32 1407.79 M1899.24 1443.7 Q1899.24 1447.79 1901.15 1451.61 Q1903.11 1455.43 1906.93 1457.55 Q1910.75 1459.62 1915.15 1459.62 Q1922 1459.62 1926.45 1455.21 Q1930.91 1450.81 1930.91 1444.02 Q1930.91 1437.13 1926.29 1432.62 Q1921.73 1428.11 1914.84 1428.11 Q1908.1 1428.11 1903.64 1432.56 Q1899.24 1437.02 1899.24 1443.7 Z" fill="#000000" fill-rule="nonzero" fill-opacity="1" /><path clip-path="url(#clip700)" d="M2329.5 1466.14 L2319.95 1466.14 L2319.95 1405.3 Q2316.5 1408.59 2310.88 1411.88 Q2305.31 1415.17 2300.85 1416.81 L2300.85 1407.58 Q2308.86 1403.82 2314.86 1398.46 Q2320.85 1393.1 2323.34 1388.06 L2329.5 1388.06 L2329.5 1466.14 Z" fill="#000000" fill-rule="nonzero" fill-opacity="1" /><path clip-path="url(#clip700)" d="M2353.95 1427.79 Q2353.95 1414 2356.76 1405.62 Q2359.62 1397.18 2365.19 1392.62 Q2370.82 1388.06 2379.3 1388.06 Q2385.56 1388.06 2390.28 1390.61 Q2395 1393.1 2398.08 1397.87 Q2401.16 1402.6 2402.91 1409.44 Q2404.66 1416.23 2404.66 1427.79 Q2404.66 1441.48 2401.85 1449.91 Q2399.04 1458.29 2393.41 1462.9 Q2387.84 1467.47 2379.3 1467.47 Q2368.06 1467.47 2361.64 1459.4 Q2353.95 1449.7 2353.95 1427.79 M2363.76 1427.79 Q2363.76 1446.94 2368.22 1453.3 Q2372.73 1459.62 2379.3 1459.62 Q2385.88 1459.62 2390.34 1453.25 Q2394.84 1446.89 2394.84 1427.79 Q2394.84 1408.59 2390.34 1402.28 Q2385.88 1395.96 2379.2 1395.96 Q2372.62 1395.96 2368.7 1401.53 Q2363.76 1408.64 2363.76 1427.79 Z" fill="#000000" fill-rule="nonzero" fill-opacity="1" /><path clip-path="url(#clip700)" d="M1267.34 1577.55 L1277.21 1578.77 Q1274.88 1587.42 1268.56 1592.19 Q1262.25 1596.96 1252.44 1596.96 Q1240.08 1596.96 1232.81 1589.38 Q1225.6 1581.74 1225.6 1568 Q1225.6 1553.79 1232.92 1545.94 Q1240.24 1538.09 1251.91 1538.09 Q1263.21 1538.09 1270.37 1545.78 Q1277.53 1553.47 1277.53 1567.42 Q1277.53 1568.27 1277.48 1569.97 L1235.47 1569.97 Q1236 1579.25 1240.72 1584.18 Q1245.44 1589.11 1252.49 1589.11 Q1257.74 1589.11 1261.46 1586.36 Q1265.17 1583.6 1267.34 1577.55 M1236 1562.12 L1267.45 1562.12 Q1266.81 1555.01 1263.84 1551.45 Q1259.28 1545.94 1252.01 1545.94 Q1245.44 1545.94 1240.93 1550.34 Q1236.47 1554.74 1236 1562.12 Z" fill="#000000" fill-rule="nonzero" fill-opacity="1" /><path clip-path="url(#clip700)" d="M1289.2 1617.28 L1289.2 1539.36 L1297.9 1539.36 L1297.9 1546.68 Q1300.97 1542.38 1304.85 1540.26 Q1308.72 1538.09 1314.23 1538.09 Q1321.45 1538.09 1326.96 1541.8 Q1332.48 1545.51 1335.29 1552.3 Q1338.1 1559.04 1338.1 1567.1 Q1338.1 1575.75 1334.97 1582.7 Q1331.9 1589.59 1325.96 1593.3 Q1320.07 1596.96 1313.54 1596.96 Q1308.77 1596.96 1304.95 1594.95 Q1301.19 1592.93 1298.75 1589.86 L1298.75 1617.28 L1289.2 1617.28 M1297.84 1567.84 Q1297.84 1578.72 1302.25 1583.92 Q1306.65 1589.11 1312.91 1589.11 Q1319.27 1589.11 1323.78 1583.76 Q1328.34 1578.35 1328.34 1567.05 Q1328.34 1556.28 1323.89 1550.92 Q1319.48 1545.57 1313.33 1545.57 Q1307.23 1545.57 1302.51 1551.3 Q1297.84 1556.97 1297.84 1567.84 Z" fill="#000000" fill-rule="nonzero" fill-opacity="1" /><path clip-path="url(#clip700)" d="M1346.06 1567.53 Q1346.06 1551.88 1354.76 1544.35 Q1362.02 1538.09 1372.47 1538.09 Q1384.09 1538.09 1391.46 1545.73 Q1398.84 1553.31 1398.84 1566.73 Q1398.84 1577.6 1395.55 1583.86 Q1392.31 1590.07 1386.05 1593.52 Q1379.85 1596.96 1372.47 1596.96 Q1360.65 1596.96 1353.33 1589.38 Q1346.06 1581.79 1346.06 1567.53 M1355.87 1567.53 Q1355.87 1578.35 1360.59 1583.76 Q1365.31 1589.11 1372.47 1589.11 Q1379.58 1589.11 1384.3 1583.7 Q1389.02 1578.29 1389.02 1567.21 Q1389.02 1556.76 1384.25 1551.4 Q1379.53 1545.99 1372.47 1545.99 Q1365.31 1545.99 1360.59 1551.35 Q1355.87 1556.71 1355.87 1567.53 Z" fill="#000000" fill-rule="nonzero" fill-opacity="1" /><path clip-path="url(#clip700)" d="M1446.79 1575.06 L1456.17 1576.28 Q1454.64 1585.99 1448.27 1591.5 Q1441.96 1596.96 1432.73 1596.96 Q1421.17 1596.96 1414.11 1589.43 Q1407.11 1581.85 1407.11 1567.74 Q1407.11 1558.62 1410.13 1551.77 Q1413.16 1544.93 1419.31 1541.54 Q1425.52 1538.09 1432.78 1538.09 Q1441.96 1538.09 1447.79 1542.76 Q1453.63 1547.37 1455.27 1555.91 L1445.99 1557.34 Q1444.66 1551.67 1441.27 1548.8 Q1437.93 1545.94 1433.15 1545.94 Q1425.94 1545.94 1421.43 1551.14 Q1416.92 1556.28 1416.92 1567.47 Q1416.92 1578.82 1421.27 1583.97 Q1425.62 1589.11 1432.62 1589.11 Q1438.25 1589.11 1442.01 1585.67 Q1445.78 1582.22 1446.79 1575.06 Z" fill="#000000" fill-rule="nonzero" fill-opacity="1" /><path clip-path="url(#clip700)" d="M1464.34 1595.69 L1464.34 1517.93 L1473.89 1517.93 L1473.89 1545.83 Q1480.57 1538.09 1490.76 1538.09 Q1497.02 1538.09 1501.63 1540.58 Q1506.25 1543.02 1508.21 1547.37 Q1510.22 1551.72 1510.22 1559.99 L1510.22 1595.69 L1500.68 1595.69 L1500.68 1559.99 Q1500.68 1552.83 1497.55 1549.6 Q1494.47 1546.31 1488.8 1546.31 Q1484.55 1546.31 1480.79 1548.54 Q1477.07 1550.71 1475.48 1554.48 Q1473.89 1558.24 1473.89 1564.87 L1473.89 1595.69 L1464.34 1595.69 Z" fill="#000000" fill-rule="nonzero" fill-opacity="1" /><polyline clip-path="url(#clip700)" style="stroke:#000000; stroke-linecap:round; stroke-linejoin:round; stroke-width:4; stroke-opacity:1; fill:none" points="383.069,1349.74 383.069,47.2441 "/>
<polyline clip-path="url(#clip700)" style="stroke:#000000; stroke-linecap:round; stroke-linejoin:round; stroke-width:2; stroke-opacity:0.5; fill:none" points="2352.76,1349.74 2352.76,47.2441 "/>
<polyline clip-path="url(#clip700)" style="stroke:#000000; stroke-linecap:round; stroke-linejoin:round; stroke-width:4; stroke-opacity:1; fill:none" points="383.069,1180.28 401.966,1180.28 "/>
<polyline clip-path="url(#clip700)" style="stroke:#000000; stroke-linecap:round; stroke-linejoin:round; stroke-width:4; stroke-opacity:1; fill:none" points="383.069,964.939 401.966,964.939 "/>
<polyline clip-path="url(#clip700)" style="stroke:#000000; stroke-linecap:round; stroke-linejoin:round; stroke-width:4; stroke-opacity:1; fill:none" points="383.069,749.597 401.966,749.597 "/>
<polyline clip-path="url(#clip700)" style="stroke:#000000; stroke-linecap:round; stroke-linejoin:round; stroke-width:4; stroke-opacity:1; fill:none" points="383.069,534.255 401.966,534.255 "/>
<polyline clip-path="url(#clip700)" style="stroke:#000000; stroke-linecap:round; stroke-linejoin:round; stroke-width:4; stroke-opacity:1; fill:none" points="383.069,318.914 401.966,318.914 "/>
<polyline clip-path="url(#clip700)" style="stroke:#000000; stroke-linecap:round; stroke-linejoin:round; stroke-width:4; stroke-opacity:1; fill:none" points="383.069,103.572 401.966,103.572 "/>
<path clip-path="url(#clip700)" d="M144.5 1180.81 Q144.5 1167.02 147.311 1158.64 Q150.176 1150.21 155.745 1145.64 Q161.368 1141.08 169.854 1141.08 Q176.113 1141.08 180.834 1143.63 Q185.555 1146.12 188.631 1150.9 Q191.708 1155.62 193.458 1162.46 Q195.209 1169.25 195.209 1180.81 Q195.209 1194.5 192.397 1202.93 Q189.586 1211.31 183.964 1215.93 Q178.394 1220.49 169.854 1220.49 Q158.609 1220.49 152.191 1212.42 Q144.5 1202.72 144.5 1180.81 M154.313 1180.81 Q154.313 1199.96 158.769 1206.33 Q163.277 1212.64 169.854 1212.64 Q176.432 1212.64 180.887 1206.27 Q185.396 1199.91 185.396 1180.81 Q185.396 1161.61 180.887 1155.3 Q176.432 1148.99 169.748 1148.99 Q163.171 1148.99 159.246 1154.56 Q154.313 1161.66 154.313 1180.81 Z" fill="#000000" fill-rule="nonzero" fill-opacity="1" /><path clip-path="url(#clip700)" d="M210.273 1219.16 L210.273 1208.29 L221.146 1208.29 L221.146 1219.16 L210.273 1219.16 Z" fill="#000000" fill-rule="nonzero" fill-opacity="1" /><path clip-path="url(#clip700)" d="M235.096 1180.81 Q235.096 1167.02 237.908 1158.64 Q240.772 1150.21 246.341 1145.64 Q251.964 1141.08 260.451 1141.08 Q266.71 1141.08 271.43 1143.63 Q276.151 1146.12 279.228 1150.9 Q282.304 1155.62 284.054 1162.46 Q285.805 1169.25 285.805 1180.81 Q285.805 1194.5 282.994 1202.93 Q280.182 1211.31 274.56 1215.93 Q268.99 1220.49 260.451 1220.49 Q249.206 1220.49 242.788 1212.42 Q235.096 1202.72 235.096 1180.81 M244.909 1180.81 Q244.909 1199.96 249.365 1206.33 Q253.873 1212.64 260.451 1212.64 Q267.028 1212.64 271.483 1206.27 Q275.992 1199.91 275.992 1180.81 Q275.992 1161.61 271.483 1155.3 Q267.028 1148.99 260.345 1148.99 Q253.767 1148.99 249.842 1154.56 Q244.909 1161.66 244.909 1180.81 Z" fill="#000000" fill-rule="nonzero" fill-opacity="1" /><path clip-path="url(#clip700)" d="M295.512 1198.79 L305.537 1197.94 Q306.65 1205.26 310.682 1208.98 Q314.766 1212.64 320.494 1212.64 Q327.39 1212.64 332.164 1207.44 Q336.938 1202.24 336.938 1193.65 Q336.938 1185.48 332.323 1180.76 Q327.761 1176.04 320.335 1176.04 Q315.721 1176.04 312.008 1178.16 Q308.295 1180.23 306.173 1183.57 L297.209 1182.4 L304.741 1142.46 L343.409 1142.46 L343.409 1151.59 L312.379 1151.59 L308.189 1172.48 Q315.19 1167.6 322.881 1167.6 Q333.066 1167.6 340.067 1174.66 Q347.069 1181.71 347.069 1192.8 Q347.069 1203.35 340.916 1211.05 Q333.437 1220.49 320.494 1220.49 Q309.886 1220.49 303.15 1214.55 Q296.466 1208.61 295.512 1198.79 Z" fill="#000000" fill-rule="nonzero" fill-opacity="1" /><path clip-path="url(#clip700)" d="M145.137 965.47 Q145.137 951.679 147.948 943.298 Q150.812 934.864 156.382 930.303 Q162.004 925.741 170.491 925.741 Q176.75 925.741 181.471 928.287 Q186.191 930.78 189.268 935.554 Q192.344 940.275 194.095 947.117 Q195.845 953.907 195.845 965.47 Q195.845 979.155 193.034 987.588 Q190.223 995.969 184.6 1000.58 Q179.031 1005.15 170.491 1005.15 Q159.246 1005.15 152.828 997.083 Q145.137 987.376 145.137 965.47 M154.949 965.47 Q154.949 984.618 159.405 990.983 Q163.914 997.295 170.491 997.295 Q177.068 997.295 181.524 990.93 Q186.032 984.565 186.032 965.47 Q186.032 946.268 181.524 939.956 Q177.068 933.644 170.385 933.644 Q163.808 933.644 159.882 939.214 Q154.949 946.321 154.949 965.47 Z" fill="#000000" fill-rule="nonzero" fill-opacity="1" /><path clip-path="url(#clip700)" d="M210.909 1003.82 L210.909 992.946 L221.783 992.946 L221.783 1003.82 L210.909 1003.82 Z" fill="#000000" fill-rule="nonzero" fill-opacity="1" /><path clip-path="url(#clip700)" d="M235.733 965.47 Q235.733 951.679 238.544 943.298 Q241.408 934.864 246.978 930.303 Q252.6 925.741 261.087 925.741 Q267.346 925.741 272.067 928.287 Q276.788 930.78 279.864 935.554 Q282.941 940.275 284.691 947.117 Q286.441 953.907 286.441 965.47 Q286.441 979.155 283.63 987.588 Q280.819 995.969 275.196 1000.58 Q269.627 1005.15 261.087 1005.15 Q249.842 1005.15 243.424 997.083 Q235.733 987.376 235.733 965.47 M245.546 965.47 Q245.546 984.618 250.001 990.983 Q254.51 997.295 261.087 997.295 Q267.664 997.295 272.12 990.93 Q276.629 984.565 276.629 965.47 Q276.629 946.268 272.12 939.956 Q267.664 933.644 260.981 933.644 Q254.404 933.644 250.479 939.214 Q245.546 946.321 245.546 965.47 Z" fill="#000000" fill-rule="nonzero" fill-opacity="1" /><path clip-path="url(#clip700)" d="M345.69 945.101 L336.195 945.844 Q334.922 940.222 332.588 937.676 Q328.716 933.591 323.041 933.591 Q318.479 933.591 315.031 936.137 Q310.523 939.426 307.923 945.738 Q305.324 952.05 305.218 963.719 Q308.666 958.468 313.652 955.922 Q318.638 953.376 324.101 953.376 Q333.649 953.376 340.332 960.431 Q347.069 967.432 347.069 978.571 Q347.069 985.891 343.886 992.203 Q340.757 998.462 335.24 1001.8 Q329.724 1005.15 322.722 1005.15 Q310.788 1005.15 303.256 996.393 Q295.724 987.588 295.724 967.432 Q295.724 944.889 304.051 934.652 Q311.318 925.741 323.624 925.741 Q332.8 925.741 338.635 930.886 Q344.523 936.031 345.69 945.101 M306.703 978.624 Q306.703 983.557 308.772 988.066 Q310.894 992.574 314.66 994.961 Q318.426 997.295 322.563 997.295 Q328.61 997.295 332.959 992.415 Q337.309 987.535 337.309 979.155 Q337.309 971.092 333.012 966.478 Q328.716 961.81 322.192 961.81 Q315.721 961.81 311.212 966.478 Q306.703 971.092 306.703 978.624 Z" fill="#000000" fill-rule="nonzero" fill-opacity="1" /><path clip-path="url(#clip700)" d="M145.084 750.128 Q145.084 736.337 147.895 727.956 Q150.759 719.522 156.329 714.961 Q161.951 710.399 170.438 710.399 Q176.697 710.399 181.418 712.945 Q186.138 715.438 189.215 720.212 Q192.291 724.933 194.042 731.775 Q195.792 738.565 195.792 750.128 Q195.792 763.813 192.981 772.246 Q190.17 780.627 184.547 785.242 Q178.978 789.803 170.438 789.803 Q159.193 789.803 152.775 781.741 Q145.084 772.034 145.084 750.128 M154.896 750.128 Q154.896 769.276 159.352 775.641 Q163.861 781.953 170.438 781.953 Q177.015 781.953 181.471 775.588 Q185.979 769.223 185.979 750.128 Q185.979 730.926 181.471 724.614 Q177.015 718.302 170.332 718.302 Q163.755 718.302 159.829 723.872 Q154.896 730.98 154.896 750.128 Z" fill="#000000" fill-rule="nonzero" fill-opacity="1" /><path clip-path="url(#clip700)" d="M210.856 788.477 L210.856 777.604 L221.73 777.604 L221.73 788.477 L210.856 788.477 Z" fill="#000000" fill-rule="nonzero" fill-opacity="1" /><path clip-path="url(#clip700)" d="M235.68 750.128 Q235.68 736.337 238.491 727.956 Q241.355 719.522 246.925 714.961 Q252.547 710.399 261.034 710.399 Q267.293 710.399 272.014 712.945 Q276.735 715.438 279.811 720.212 Q282.887 724.933 284.638 731.775 Q286.388 738.565 286.388 750.128 Q286.388 763.813 283.577 772.246 Q280.766 780.627 275.143 785.242 Q269.574 789.803 261.034 789.803 Q249.789 789.803 243.371 781.741 Q235.68 772.034 235.68 750.128 M245.493 750.128 Q245.493 769.276 249.948 775.641 Q254.457 781.953 261.034 781.953 Q267.611 781.953 272.067 775.588 Q276.575 769.223 276.575 750.128 Q276.575 730.926 272.067 724.614 Q267.611 718.302 260.928 718.302 Q254.351 718.302 250.426 723.872 Q245.493 730.98 245.493 750.128 Z" fill="#000000" fill-rule="nonzero" fill-opacity="1" /><path clip-path="url(#clip700)" d="M296.732 720.901 L296.732 711.725 L347.069 711.725 L347.069 719.151 Q339.643 727.054 332.323 740.156 Q325.056 753.257 321.078 767.101 Q318.214 776.861 317.418 788.477 L307.605 788.477 Q307.764 779.301 311.212 766.306 Q314.66 753.31 321.078 741.27 Q327.549 729.176 334.816 720.901 L296.732 720.901 Z" fill="#000000" fill-rule="nonzero" fill-opacity="1" /><path clip-path="url(#clip700)" d="M144.924 534.786 Q144.924 520.995 147.736 512.614 Q150.6 504.18 156.169 499.619 Q161.792 495.057 170.279 495.057 Q176.538 495.057 181.258 497.603 Q185.979 500.096 189.056 504.87 Q192.132 509.591 193.883 516.433 Q195.633 523.223 195.633 534.786 Q195.633 548.471 192.822 556.905 Q190.01 565.285 184.388 569.9 Q178.819 574.462 170.279 574.462 Q159.034 574.462 152.616 566.399 Q144.924 556.692 144.924 534.786 M154.737 534.786 Q154.737 553.934 159.193 560.299 Q163.701 566.611 170.279 566.611 Q176.856 566.611 181.312 560.246 Q185.82 553.881 185.82 534.786 Q185.82 515.585 181.312 509.273 Q176.856 502.96 170.173 502.96 Q163.595 502.96 159.67 508.53 Q154.737 515.638 154.737 534.786 Z" fill="#000000" fill-rule="nonzero" fill-opacity="1" /><path clip-path="url(#clip700)" d="M210.697 573.135 L210.697 562.262 L221.571 562.262 L221.571 573.135 L210.697 573.135 Z" fill="#000000" fill-rule="nonzero" fill-opacity="1" /><path clip-path="url(#clip700)" d="M235.521 534.786 Q235.521 520.995 238.332 512.614 Q241.196 504.18 246.766 499.619 Q252.388 495.057 260.875 495.057 Q267.134 495.057 271.855 497.603 Q276.575 500.096 279.652 504.87 Q282.728 509.591 284.479 516.433 Q286.229 523.223 286.229 534.786 Q286.229 548.471 283.418 556.905 Q280.607 565.285 274.984 569.9 Q269.415 574.462 260.875 574.462 Q249.63 574.462 243.212 566.399 Q235.521 556.692 235.521 534.786 M245.334 534.786 Q245.334 553.934 249.789 560.299 Q254.298 566.611 260.875 566.611 Q267.452 566.611 271.908 560.246 Q276.416 553.881 276.416 534.786 Q276.416 515.585 271.908 509.273 Q267.452 502.96 260.769 502.96 Q254.192 502.96 250.266 508.53 Q245.334 515.638 245.334 534.786 Z" fill="#000000" fill-rule="nonzero" fill-opacity="1" /><path clip-path="url(#clip700)" d="M310.629 530.967 Q304.688 528.792 301.824 524.761 Q298.959 520.73 298.959 515.107 Q298.959 506.62 305.059 500.839 Q311.159 495.057 321.29 495.057 Q331.474 495.057 337.68 500.998 Q343.886 506.886 343.886 515.372 Q343.886 520.783 341.022 524.814 Q338.211 528.792 332.429 530.967 Q339.59 533.301 343.303 538.499 Q347.069 543.697 347.069 550.911 Q347.069 560.883 340.014 567.672 Q332.959 574.462 321.449 574.462 Q309.939 574.462 302.884 567.672 Q295.83 560.83 295.83 550.646 Q295.83 543.06 299.649 537.968 Q303.521 532.823 310.629 530.967 M308.719 514.789 Q308.719 520.305 312.273 523.806 Q315.827 527.307 321.502 527.307 Q327.019 527.307 330.519 523.859 Q334.073 520.358 334.073 515.319 Q334.073 510.068 330.413 506.514 Q326.807 502.907 321.396 502.907 Q315.933 502.907 312.326 506.408 Q308.719 509.909 308.719 514.789 M305.643 550.699 Q305.643 554.783 307.552 558.602 Q309.515 562.421 313.334 564.543 Q317.153 566.611 321.555 566.611 Q328.398 566.611 332.853 562.209 Q337.309 557.806 337.309 551.017 Q337.309 544.121 332.694 539.613 Q328.133 535.104 321.237 535.104 Q314.501 535.104 310.045 539.56 Q305.643 544.015 305.643 550.699 Z" fill="#000000" fill-rule="nonzero" fill-opacity="1" /><path clip-path="url(#clip700)" d="M144.924 319.444 Q144.924 305.653 147.736 297.272 Q150.6 288.839 156.169 284.277 Q161.792 279.715 170.279 279.715 Q176.538 279.715 181.258 282.261 Q185.979 284.754 189.056 289.528 Q192.132 294.249 193.883 301.091 Q195.633 307.881 195.633 319.444 Q195.633 333.129 192.822 341.563 Q190.01 349.943 184.388 354.558 Q178.819 359.12 170.279 359.12 Q159.034 359.12 152.616 351.057 Q144.924 341.35 144.924 319.444 M154.737 319.444 Q154.737 338.592 159.193 344.957 Q163.701 351.269 170.279 351.269 Q176.856 351.269 181.312 344.904 Q185.82 338.539 185.82 319.444 Q185.82 300.243 181.312 293.931 Q176.856 287.619 170.173 287.619 Q163.595 287.619 159.67 293.188 Q154.737 300.296 154.737 319.444 Z" fill="#000000" fill-rule="nonzero" fill-opacity="1" /><path clip-path="url(#clip700)" d="M210.697 357.794 L210.697 346.92 L221.571 346.92 L221.571 357.794 L210.697 357.794 Z" fill="#000000" fill-rule="nonzero" fill-opacity="1" /><path clip-path="url(#clip700)" d="M235.521 319.444 Q235.521 305.653 238.332 297.272 Q241.196 288.839 246.766 284.277 Q252.388 279.715 260.875 279.715 Q267.134 279.715 271.855 282.261 Q276.575 284.754 279.652 289.528 Q282.728 294.249 284.479 301.091 Q286.229 307.881 286.229 319.444 Q286.229 333.129 283.418 341.563 Q280.607 349.943 274.984 354.558 Q269.415 359.12 260.875 359.12 Q249.63 359.12 243.212 351.057 Q235.521 341.35 235.521 319.444 M245.334 319.444 Q245.334 338.592 249.789 344.957 Q254.298 351.269 260.875 351.269 Q267.452 351.269 271.908 344.904 Q276.416 338.539 276.416 319.444 Q276.416 300.243 271.908 293.931 Q267.452 287.619 260.769 287.619 Q254.192 287.619 250.266 293.188 Q245.334 300.296 245.334 319.444 Z" fill="#000000" fill-rule="nonzero" fill-opacity="1" /><path clip-path="url(#clip700)" d="M297.368 339.812 L306.544 338.964 Q307.711 345.435 311 348.352 Q314.289 351.269 319.434 351.269 Q323.836 351.269 327.125 349.254 Q330.466 347.238 332.588 343.896 Q334.71 340.502 336.142 334.773 Q337.574 329.045 337.574 323.104 Q337.574 322.467 337.521 321.194 Q334.657 325.756 329.671 328.62 Q324.738 331.431 318.956 331.431 Q309.303 331.431 302.619 324.43 Q295.936 317.428 295.936 305.971 Q295.936 294.143 302.884 286.929 Q309.886 279.715 320.388 279.715 Q327.973 279.715 334.232 283.8 Q340.544 287.884 343.78 295.469 Q347.069 303.001 347.069 317.322 Q347.069 332.227 343.833 341.085 Q340.598 349.89 334.179 354.505 Q327.814 359.12 319.221 359.12 Q310.098 359.12 304.317 354.081 Q298.535 348.988 297.368 339.812 M336.46 305.494 Q336.46 297.272 332.058 292.445 Q327.708 287.619 321.555 287.619 Q315.19 287.619 310.469 292.817 Q305.749 298.015 305.749 306.289 Q305.749 313.715 310.204 318.383 Q314.713 322.998 321.29 322.998 Q327.92 322.998 332.164 318.383 Q336.46 313.715 336.46 305.494 Z" fill="#000000" fill-rule="nonzero" fill-opacity="1" /><path clip-path="url(#clip700)" d="M145.349 104.102 Q145.349 90.311 148.16 81.9303 Q151.024 73.4966 156.594 68.935 Q162.216 64.3733 170.703 64.3733 Q176.962 64.3733 181.683 66.9194 Q186.404 69.4124 189.48 74.1862 Q192.556 78.9069 194.307 85.7494 Q196.057 92.5388 196.057 104.102 Q196.057 117.787 193.246 126.221 Q190.435 134.601 184.812 139.216 Q179.243 143.778 170.703 143.778 Q159.458 143.778 153.04 135.715 Q145.349 126.008 145.349 104.102 M155.162 104.102 Q155.162 123.25 159.617 129.615 Q164.126 135.927 170.703 135.927 Q177.28 135.927 181.736 129.562 Q186.244 123.197 186.244 104.102 Q186.244 84.9007 181.736 78.5887 Q177.28 72.2766 170.597 72.2766 Q164.02 72.2766 160.095 77.8461 Q155.162 84.9537 155.162 104.102 Z" fill="#000000" fill-rule="nonzero" fill-opacity="1" /><path clip-path="url(#clip700)" d="M211.121 142.452 L211.121 131.578 L221.995 131.578 L221.995 142.452 L211.121 142.452 Z" fill="#000000" fill-rule="nonzero" fill-opacity="1" /><path clip-path="url(#clip700)" d="M271.908 142.452 L262.36 142.452 L262.36 81.6121 Q258.912 84.9007 253.29 88.1893 Q247.72 91.4779 243.265 93.1223 L243.265 83.8929 Q251.274 80.1269 257.268 74.7696 Q263.262 69.4124 265.755 64.3733 L271.908 64.3733 L271.908 142.452 Z" fill="#000000" fill-rule="nonzero" fill-opacity="1" /><path clip-path="url(#clip700)" d="M296.36 104.102 Q296.36 90.311 299.171 81.9303 Q302.036 73.4966 307.605 68.935 Q313.228 64.3733 321.714 64.3733 Q327.973 64.3733 332.694 66.9194 Q337.415 69.4124 340.491 74.1862 Q343.568 78.9069 345.318 85.7494 Q347.069 92.5388 347.069 104.102 Q347.069 117.787 344.257 126.221 Q341.446 134.601 335.824 139.216 Q330.254 143.778 321.714 143.778 Q310.469 143.778 304.051 135.715 Q296.36 126.008 296.36 104.102 M306.173 104.102 Q306.173 123.25 310.629 129.615 Q315.137 135.927 321.714 135.927 Q328.292 135.927 332.747 129.562 Q337.256 123.197 337.256 104.102 Q337.256 84.9007 332.747 78.5887 Q328.292 72.2766 321.608 72.2766 Q315.031 72.2766 311.106 77.8461 Q306.173 84.9537 306.173 104.102 Z" fill="#000000" fill-rule="nonzero" fill-opacity="1" /><path clip-path="url(#clip700)" d="M85.1722 789.513 L7.41216 789.513 L7.41216 779.965 L85.1722 779.965 L85.1722 789.513 Z" fill="#000000" fill-rule="nonzero" fill-opacity="1" /><path clip-path="url(#clip700)" d="M57.0067 768.72 Q41.3592 768.72 33.8272 760.021 Q27.5682 752.754 27.5682 742.305 Q27.5682 730.689 35.2063 723.316 Q42.7914 715.943 56.2111 715.943 Q67.0847 715.943 73.3437 719.232 Q79.5497 722.467 82.9974 728.726 Q86.4452 734.932 86.4452 742.305 Q86.4452 754.133 78.8601 761.453 Q71.2751 768.72 57.0067 768.72 M57.0067 758.907 Q67.8273 758.907 73.2376 754.186 Q78.5949 749.466 78.5949 742.305 Q78.5949 735.197 73.1846 730.476 Q67.7743 725.756 56.6884 725.756 Q46.2391 725.756 40.8818 730.53 Q35.4715 735.25 35.4715 742.305 Q35.4715 749.466 40.8288 754.186 Q46.1861 758.907 57.0067 758.907 Z" fill="#000000" fill-rule="nonzero" fill-opacity="1" /><path clip-path="url(#clip700)" d="M68.3578 708.57 L66.8726 699.128 Q72.5481 698.333 75.5715 694.726 Q78.5949 691.066 78.5949 684.542 Q78.5949 677.965 75.9428 674.782 Q73.2376 671.6 69.6308 671.6 Q66.3952 671.6 64.5387 674.411 Q63.2657 676.373 61.3031 684.171 Q58.651 694.673 56.7415 698.757 Q54.7789 702.788 51.3842 704.91 Q47.9365 706.979 43.7992 706.979 Q40.0332 706.979 36.8506 705.281 Q33.615 703.531 31.4934 700.561 Q29.849 698.333 28.7352 694.514 Q27.5682 690.642 27.5682 686.239 Q27.5682 679.609 29.4778 674.623 Q31.3873 669.584 34.6759 667.197 Q37.9115 664.81 43.3748 663.908 L44.6478 673.244 Q40.2984 673.88 37.8584 676.957 Q35.4185 679.98 35.4185 685.55 Q35.4185 692.127 37.5932 694.938 Q39.768 697.749 42.6853 697.749 Q44.5418 697.749 46.0269 696.582 Q47.5652 695.416 48.573 692.923 Q49.1034 691.49 51.0129 684.489 Q53.7181 674.358 55.4685 670.38 Q57.1658 666.348 60.4544 664.068 Q63.7431 661.787 68.623 661.787 Q73.3968 661.787 77.6402 664.598 Q81.8305 667.356 84.1644 672.607 Q86.4452 677.859 86.4452 684.489 Q86.4452 695.469 81.8835 701.25 Q77.3219 706.979 68.3578 708.57 Z" fill="#000000" fill-rule="nonzero" fill-opacity="1" /><path clip-path="url(#clip700)" d="M68.3578 654.255 L66.8726 644.813 Q72.5481 644.018 75.5715 640.411 Q78.5949 636.751 78.5949 630.227 Q78.5949 623.649 75.9428 620.467 Q73.2376 617.284 69.6308 617.284 Q66.3952 617.284 64.5387 620.095 Q63.2657 622.058 61.3031 629.855 Q58.651 640.358 56.7415 644.442 Q54.7789 648.473 51.3842 650.595 Q47.9365 652.663 43.7992 652.663 Q40.0332 652.663 36.8506 650.966 Q33.615 649.216 31.4934 646.245 Q29.849 644.018 28.7352 640.198 Q27.5682 636.326 27.5682 631.924 Q27.5682 625.294 29.4778 620.308 Q31.3873 615.269 34.6759 612.882 Q37.9115 610.495 43.3748 609.593 L44.6478 618.929 Q40.2984 619.565 37.8584 622.641 Q35.4185 625.665 35.4185 631.234 Q35.4185 637.812 37.5932 640.623 Q39.768 643.434 42.6853 643.434 Q44.5418 643.434 46.0269 642.267 Q47.5652 641.1 48.573 638.607 Q49.1034 637.175 51.0129 630.173 Q53.7181 620.042 55.4685 616.064 Q57.1658 612.033 60.4544 609.752 Q63.7431 607.471 68.623 607.471 Q73.3968 607.471 77.6402 610.283 Q81.8305 613.041 84.1644 618.292 Q86.4452 623.543 86.4452 630.173 Q86.4452 641.153 81.8835 646.935 Q77.3219 652.663 68.3578 654.255 Z" fill="#000000" fill-rule="nonzero" fill-opacity="1" /><polyline clip-path="url(#clip702)" style="stroke:#009af9; stroke-linecap:round; stroke-linejoin:round; stroke-width:8; stroke-opacity:1; fill:none" points="383.069,47.2441 601.923,638.032 820.777,781.112 1039.63,854.573 1258.49,945.751 1477.34,1064.21 1696.19,1182.91 1915.05,1272.91 2133.9,1324.99 2352.76,1349.74 "/>
<circle clip-path="url(#clip702)" cx="383.069" cy="47.2441" r="3.6" fill="#009af9" fill-rule="evenodd" fill-opacity="1" stroke="#000000" stroke-opacity="1" stroke-width="3.2"/>
<circle clip-path="url(#clip702)" cx="601.923" cy="638.032" r="3.6" fill="#009af9" fill-rule="evenodd" fill-opacity="1" stroke="#000000" stroke-opacity="1" stroke-width="3.2"/>
<circle clip-path="url(#clip702)" cx="820.777" cy="781.112" r="3.6" fill="#009af9" fill-rule="evenodd" fill-opacity="1" stroke="#000000" stroke-opacity="1" stroke-width="3.2"/>
<circle clip-path="url(#clip702)" cx="1039.63" cy="854.573" r="3.6" fill="#009af9" fill-rule="evenodd" fill-opacity="1" stroke="#000000" stroke-opacity="1" stroke-width="3.2"/>
<circle clip-path="url(#clip702)" cx="1258.49" cy="945.751" r="3.6" fill="#009af9" fill-rule="evenodd" fill-opacity="1" stroke="#000000" stroke-opacity="1" stroke-width="3.2"/>
<circle clip-path="url(#clip702)" cx="1477.34" cy="1064.21" r="3.6" fill="#009af9" fill-rule="evenodd" fill-opacity="1" stroke="#000000" stroke-opacity="1" stroke-width="3.2"/>
<circle clip-path="url(#clip702)" cx="1696.19" cy="1182.91" r="3.6" fill="#009af9" fill-rule="evenodd" fill-opacity="1" stroke="#000000" stroke-opacity="1" stroke-width="3.2"/>
<circle clip-path="url(#clip702)" cx="1915.05" cy="1272.91" r="3.6" fill="#009af9" fill-rule="evenodd" fill-opacity="1" stroke="#000000" stroke-opacity="1" stroke-width="3.2"/>
<circle clip-path="url(#clip702)" cx="2133.9" cy="1324.99" r="3.6" fill="#009af9" fill-rule="evenodd" fill-opacity="1" stroke="#000000" stroke-opacity="1" stroke-width="3.2"/>
<polyline clip-path="url(#clip702)" style="stroke:#e26f46; stroke-linecap:round; stroke-linejoin:round; stroke-width:8; stroke-opacity:1; fill:none" points="383.069,411.077 601.923,807.93 820.777,868.172 1039.63,879.193 1258.49,934.979 1477.34,1029.98 1696.19,1132.91 1915.05,1216.3 2133.9,1267.88 2352.76,1292.84 "/>
<circle clip-path="url(#clip702)" cx="383.069" cy="411.077" r="3.6" fill="#e26f46" fill-rule="evenodd" fill-opacity="1" stroke="#000000" stroke-opacity="1" stroke-width="3.2"/>
<circle clip-path="url(#clip702)" cx="601.923" cy="807.93" r="3.6" fill="#e26f46" fill-rule="evenodd" fill-opacity="1" stroke="#000000" stroke-opacity="1" stroke-width="3.2"/>
<circle clip-path="url(#clip702)" cx="820.777" cy="868.172" r="3.6" fill="#e26f46" fill-rule="evenodd" fill-opacity="1" stroke="#000000" stroke-opacity="1" stroke-width="3.2"/>
<circle clip-path="url(#clip702)" cx="1039.63" cy="879.193" r="3.6" fill="#e26f46" fill-rule="evenodd" fill-opacity="1" stroke="#000000" stroke-opacity="1" stroke-width="3.2"/>
<circle clip-path="url(#clip702)" cx="1258.49" cy="934.979" r="3.6" fill="#e26f46" fill-rule="evenodd" fill-opacity="1" stroke="#000000" stroke-opacity="1" stroke-width="3.2"/>
<circle clip-path="url(#clip702)" cx="1477.34" cy="1029.98" r="3.6" fill="#e26f46" fill-rule="evenodd" fill-opacity="1" stroke="#000000" stroke-opacity="1" stroke-width="3.2"/>
<circle clip-path="url(#clip702)" cx="1696.19" cy="1132.91" r="3.6" fill="#e26f46" fill-rule="evenodd" fill-opacity="1" stroke="#000000" stroke-opacity="1" stroke-width="3.2"/>
<circle clip-path="url(#clip702)" cx="1915.05" cy="1216.3" r="3.6" fill="#e26f46" fill-rule="evenodd" fill-opacity="1" stroke="#000000" stroke-opacity="1" stroke-width="3.2"/>
<circle clip-path="url(#clip702)" cx="2133.9" cy="1267.88" r="3.6" fill="#e26f46" fill-rule="evenodd" fill-opacity="1" stroke="#000000" stroke-opacity="1" stroke-width="3.2"/>
<circle clip-path="url(#clip702)" cx="2352.76" cy="1292.84" r="3.6" fill="#e26f46" fill-rule="evenodd" fill-opacity="1" stroke="#000000" stroke-opacity="1" stroke-width="3.2"/>
<path clip-path="url(#clip700)" d="M1631.32 440.581 L2287.1 440.581 L2287.1 90.6606 L1631.32 90.6606  Z" fill="#ffffff" fill-rule="evenodd" fill-opacity="1"/>
<polyline clip-path="url(#clip700)" style="stroke:#000000; stroke-linecap:round; stroke-linejoin:round; stroke-width:4; stroke-opacity:1; fill:none" points="1631.32,440.581 2287.1,440.581 2287.1,90.6606 1631.32,90.6606 1631.32,440.581 "/>
<polyline clip-path="url(#clip700)" style="stroke:#009af9; stroke-linecap:round; stroke-linejoin:round; stroke-width:18; stroke-opacity:1; fill:none" points="1653.2,207.301 1784.51,207.301 "/>
<circle clip-path="url(#clip700)" cx="1718.86" cy="207.301" r="8.10571" fill="#009af9" fill-rule="evenodd" fill-opacity="1" stroke="#000000" stroke-opacity="1" stroke-width="7.20507"/>
<path clip-path="url(#clip700)" d="M1832.5 237.641 L1833.87 246.075 Q1829.84 246.923 1826.66 246.923 Q1821.46 246.923 1818.6 245.279 Q1815.73 243.635 1814.57 240.982 Q1813.4 238.277 1813.4 229.684 L1813.4 197.276 L1806.4 197.276 L1806.4 189.85 L1813.4 189.85 L1813.4 175.9 L1822.89 170.171 L1822.89 189.85 L1832.5 189.85 L1832.5 197.276 L1822.89 197.276 L1822.89 230.215 Q1822.89 234.299 1823.37 235.466 Q1823.9 236.633 1825.02 237.323 Q1826.18 238.012 1828.3 238.012 Q1829.9 238.012 1832.5 237.641 Z" fill="#000000" fill-rule="nonzero" fill-opacity="1" /><path clip-path="url(#clip700)" d="M1841.72 246.181 L1841.72 189.85 L1850.32 189.85 L1850.32 198.39 Q1853.61 192.396 1856.36 190.486 Q1859.18 188.577 1862.52 188.577 Q1867.34 188.577 1872.33 191.653 L1869.04 200.511 Q1865.54 198.443 1862.04 198.443 Q1858.91 198.443 1856.42 200.352 Q1853.92 202.209 1852.86 205.55 Q1851.27 210.642 1851.27 216.689 L1851.27 246.181 L1841.72 246.181 Z" fill="#000000" fill-rule="nonzero" fill-opacity="1" /><path clip-path="url(#clip700)" d="M1914.76 239.232 Q1909.46 243.741 1904.53 245.597 Q1899.65 247.454 1894.02 247.454 Q1884.74 247.454 1879.76 242.945 Q1874.77 238.383 1874.77 231.329 Q1874.77 227.191 1876.63 223.797 Q1878.54 220.349 1881.56 218.28 Q1884.64 216.212 1888.45 215.151 Q1891.27 214.408 1896.94 213.719 Q1908.5 212.34 1913.97 210.43 Q1914.02 208.468 1914.02 207.937 Q1914.02 202.102 1911.32 199.716 Q1907.66 196.48 1900.44 196.48 Q1893.71 196.48 1890.47 198.867 Q1887.29 201.201 1885.75 207.195 L1876.41 205.922 Q1877.69 199.928 1880.6 196.268 Q1883.52 192.555 1889.04 190.592 Q1894.55 188.577 1901.82 188.577 Q1909.04 188.577 1913.54 190.274 Q1918.05 191.971 1920.17 194.57 Q1922.3 197.116 1923.14 201.042 Q1923.62 203.482 1923.62 209.847 L1923.62 222.577 Q1923.62 235.89 1924.21 239.444 Q1924.84 242.945 1926.65 246.181 L1916.67 246.181 Q1915.19 243.21 1914.76 239.232 M1913.97 217.909 Q1908.77 220.031 1898.37 221.516 Q1892.49 222.365 1890.05 223.425 Q1887.61 224.486 1886.28 226.555 Q1884.95 228.571 1884.95 231.064 Q1884.95 234.883 1887.82 237.429 Q1890.74 239.975 1896.31 239.975 Q1901.82 239.975 1906.12 237.588 Q1910.41 235.148 1912.43 230.957 Q1913.97 227.722 1913.97 221.41 L1913.97 217.909 Z" fill="#000000" fill-rule="nonzero" fill-opacity="1" /><path clip-path="url(#clip700)" d="M1938.47 179.4 L1938.47 168.421 L1948.02 168.421 L1948.02 179.4 L1938.47 179.4 M1938.47 246.181 L1938.47 189.85 L1948.02 189.85 L1948.02 246.181 L1938.47 246.181 Z" fill="#000000" fill-rule="nonzero" fill-opacity="1" /><path clip-path="url(#clip700)" d="M1962.55 246.181 L1962.55 189.85 L1971.15 189.85 L1971.15 197.859 Q1977.35 188.577 1989.08 188.577 Q1994.17 188.577 1998.41 190.433 Q2002.71 192.237 2004.83 195.207 Q2006.95 198.177 2007.8 202.262 Q2008.33 204.914 2008.33 211.544 L2008.33 246.181 L1998.78 246.181 L1998.78 211.915 Q1998.78 206.081 1997.67 203.216 Q1996.56 200.299 1993.69 198.602 Q1990.88 196.851 1987.06 196.851 Q1980.96 196.851 1976.51 200.723 Q1972.1 204.595 1972.1 215.416 L1972.1 246.181 L1962.55 246.181 Z" fill="#000000" fill-rule="nonzero" fill-opacity="1" /><path clip-path="url(#clip700)" d="M2014.17 267.769 L2014.17 260.873 L2077.44 260.873 L2077.44 267.769 L2014.17 267.769 Z" fill="#000000" fill-rule="nonzero" fill-opacity="1" /><path clip-path="url(#clip700)" d="M2083.17 246.181 L2083.17 168.421 L2092.72 168.421 L2092.72 246.181 L2083.17 246.181 Z" fill="#000000" fill-rule="nonzero" fill-opacity="1" /><path clip-path="url(#clip700)" d="M2103.97 218.015 Q2103.97 202.368 2112.66 194.836 Q2119.93 188.577 2130.38 188.577 Q2142 188.577 2149.37 196.215 Q2156.74 203.8 2156.74 217.22 Q2156.74 228.093 2153.45 234.352 Q2150.22 240.558 2143.96 244.006 Q2137.75 247.454 2130.38 247.454 Q2118.55 247.454 2111.23 239.869 Q2103.97 232.284 2103.97 218.015 M2113.78 218.015 Q2113.78 228.836 2118.5 234.246 Q2123.22 239.603 2130.38 239.603 Q2137.49 239.603 2142.21 234.193 Q2146.93 228.783 2146.93 217.697 Q2146.93 207.248 2142.16 201.89 Q2137.44 196.48 2130.38 196.48 Q2123.22 196.48 2118.5 201.837 Q2113.78 207.195 2113.78 218.015 Z" fill="#000000" fill-rule="nonzero" fill-opacity="1" /><path clip-path="url(#clip700)" d="M2164.12 229.366 L2173.56 227.881 Q2174.35 233.557 2177.96 236.58 Q2181.62 239.603 2188.14 239.603 Q2194.72 239.603 2197.9 236.951 Q2201.09 234.246 2201.09 230.639 Q2201.09 227.404 2198.27 225.547 Q2196.31 224.274 2188.52 222.312 Q2178.01 219.659 2173.93 217.75 Q2169.9 215.787 2167.78 212.393 Q2165.71 208.945 2165.71 204.808 Q2165.71 201.042 2167.4 197.859 Q2169.15 194.624 2172.13 192.502 Q2174.35 190.858 2178.17 189.744 Q2182.04 188.577 2186.45 188.577 Q2193.08 188.577 2198.06 190.486 Q2203.1 192.396 2205.49 195.684 Q2207.88 198.92 2208.78 204.383 L2199.44 205.656 Q2198.81 201.307 2195.73 198.867 Q2192.71 196.427 2187.14 196.427 Q2180.56 196.427 2177.75 198.602 Q2174.94 200.776 2174.94 203.694 Q2174.94 205.55 2176.1 207.035 Q2177.27 208.574 2179.76 209.581 Q2181.2 210.112 2188.2 212.021 Q2198.33 214.727 2202.31 216.477 Q2206.34 218.174 2208.62 221.463 Q2210.9 224.752 2210.9 229.631 Q2210.9 234.405 2208.09 238.649 Q2205.33 242.839 2200.08 245.173 Q2194.83 247.454 2188.2 247.454 Q2177.22 247.454 2171.44 242.892 Q2165.71 238.33 2164.12 229.366 Z" fill="#000000" fill-rule="nonzero" fill-opacity="1" /><path clip-path="url(#clip700)" d="M2218.43 229.366 L2227.87 227.881 Q2228.67 233.557 2232.27 236.58 Q2235.93 239.603 2242.46 239.603 Q2249.04 239.603 2252.22 236.951 Q2255.4 234.246 2255.4 230.639 Q2255.4 227.404 2252.59 225.547 Q2250.63 224.274 2242.83 222.312 Q2232.33 219.659 2228.24 217.75 Q2224.21 215.787 2222.09 212.393 Q2220.02 208.945 2220.02 204.808 Q2220.02 201.042 2221.72 197.859 Q2223.47 194.624 2226.44 192.502 Q2228.67 190.858 2232.49 189.744 Q2236.36 188.577 2240.76 188.577 Q2247.39 188.577 2252.38 190.486 Q2257.42 192.396 2259.8 195.684 Q2262.19 198.92 2263.09 204.383 L2253.76 205.656 Q2253.12 201.307 2250.04 198.867 Q2247.02 196.427 2241.45 196.427 Q2234.87 196.427 2232.06 198.602 Q2229.25 200.776 2229.25 203.694 Q2229.25 205.55 2230.42 207.035 Q2231.59 208.574 2234.08 209.581 Q2235.51 210.112 2242.51 212.021 Q2252.64 214.727 2256.62 216.477 Q2260.65 218.174 2262.93 221.463 Q2265.21 224.752 2265.21 229.631 Q2265.21 234.405 2262.4 238.649 Q2259.64 242.839 2254.39 245.173 Q2249.14 247.454 2242.51 247.454 Q2231.53 247.454 2225.75 242.892 Q2220.02 238.33 2218.43 229.366 Z" fill="#000000" fill-rule="nonzero" fill-opacity="1" /><polyline clip-path="url(#clip700)" style="stroke:#e26f46; stroke-linecap:round; stroke-linejoin:round; stroke-width:18; stroke-opacity:1; fill:none" points="1653.2,323.941 1784.51,323.941 "/>
<circle clip-path="url(#clip700)" cx="1718.86" cy="323.941" r="8.10571" fill="#e26f46" fill-rule="evenodd" fill-opacity="1" stroke="#000000" stroke-opacity="1" stroke-width="7.20507"/>
<path clip-path="url(#clip700)" d="M1827.83 362.821 L1806.4 306.49 L1816.48 306.49 L1828.57 340.225 Q1830.53 345.688 1832.18 351.576 Q1833.45 347.12 1835.73 340.861 L1848.25 306.49 L1858.06 306.49 L1836.74 362.821 L1827.83 362.821 Z" fill="#000000" fill-rule="nonzero" fill-opacity="1" /><path clip-path="url(#clip700)" d="M1903.25 355.872 Q1897.95 360.381 1893.02 362.237 Q1888.14 364.094 1882.51 364.094 Q1873.23 364.094 1868.25 359.585 Q1863.26 355.023 1863.26 347.969 Q1863.26 343.831 1865.12 340.437 Q1867.03 336.989 1870.05 334.92 Q1873.13 332.852 1876.94 331.791 Q1879.76 331.048 1885.43 330.359 Q1896.99 328.98 1902.46 327.07 Q1902.51 325.108 1902.51 324.577 Q1902.51 318.742 1899.81 316.356 Q1896.15 313.12 1888.93 313.12 Q1882.2 313.12 1878.96 315.507 Q1875.78 317.841 1874.24 323.835 L1864.9 322.562 Q1866.18 316.568 1869.09 312.908 Q1872.01 309.195 1877.53 307.232 Q1883.04 305.217 1890.31 305.217 Q1897.53 305.217 1902.03 306.914 Q1906.54 308.611 1908.66 311.21 Q1910.79 313.756 1911.63 317.682 Q1912.11 320.122 1912.11 326.487 L1912.11 339.217 Q1912.11 352.53 1912.7 356.084 Q1913.33 359.585 1915.14 362.821 L1905.16 362.821 Q1903.68 359.85 1903.25 355.872 M1902.46 334.549 Q1897.26 336.671 1886.86 338.156 Q1880.98 339.005 1878.54 340.065 Q1876.1 341.126 1874.77 343.195 Q1873.44 345.211 1873.44 347.704 Q1873.44 351.523 1876.31 354.069 Q1879.23 356.615 1884.79 356.615 Q1890.31 356.615 1894.61 354.228 Q1898.9 351.788 1900.92 347.597 Q1902.46 344.362 1902.46 338.05 L1902.46 334.549 Z" fill="#000000" fill-rule="nonzero" fill-opacity="1" /><path clip-path="url(#clip700)" d="M1926.7 362.821 L1926.7 285.061 L1936.25 285.061 L1936.25 362.821 L1926.7 362.821 Z" fill="#000000" fill-rule="nonzero" fill-opacity="1" /><path clip-path="url(#clip700)" d="M1942.24 384.409 L1942.24 377.513 L2005.52 377.513 L2005.52 384.409 L1942.24 384.409 Z" fill="#000000" fill-rule="nonzero" fill-opacity="1" /><path clip-path="url(#clip700)" d="M2011.25 362.821 L2011.25 285.061 L2020.8 285.061 L2020.8 362.821 L2011.25 362.821 Z" fill="#000000" fill-rule="nonzero" fill-opacity="1" /><path clip-path="url(#clip700)" d="M2032.04 334.655 Q2032.04 319.008 2040.74 311.476 Q2048.01 305.217 2058.46 305.217 Q2070.07 305.217 2077.44 312.855 Q2084.82 320.44 2084.82 333.86 Q2084.82 344.733 2081.53 350.992 Q2078.29 357.198 2072.03 360.646 Q2065.83 364.094 2058.46 364.094 Q2046.63 364.094 2039.31 356.509 Q2032.04 348.924 2032.04 334.655 M2041.85 334.655 Q2041.85 345.476 2046.57 350.886 Q2051.29 356.243 2058.46 356.243 Q2065.56 356.243 2070.28 350.833 Q2075 345.423 2075 334.337 Q2075 323.888 2070.23 318.53 Q2065.51 313.12 2058.46 313.12 Q2051.29 313.12 2046.57 318.477 Q2041.85 323.835 2041.85 334.655 Z" fill="#000000" fill-rule="nonzero" fill-opacity="1" /><path clip-path="url(#clip700)" d="M2092.19 346.006 L2101.63 344.521 Q2102.43 350.197 2106.03 353.22 Q2109.69 356.243 2116.22 356.243 Q2122.8 356.243 2125.98 353.591 Q2129.16 350.886 2129.16 347.279 Q2129.16 344.044 2126.35 342.187 Q2124.39 340.914 2116.59 338.952 Q2106.09 336.299 2102 334.39 Q2097.97 332.427 2095.85 329.033 Q2093.78 325.585 2093.78 321.448 Q2093.78 317.682 2095.48 314.499 Q2097.23 311.264 2100.2 309.142 Q2102.43 307.498 2106.25 306.384 Q2110.12 305.217 2114.52 305.217 Q2121.15 305.217 2126.14 307.126 Q2131.18 309.036 2133.56 312.324 Q2135.95 315.56 2136.85 321.023 L2127.52 322.296 Q2126.88 317.947 2123.8 315.507 Q2120.78 313.067 2115.21 313.067 Q2108.63 313.067 2105.82 315.242 Q2103.01 317.416 2103.01 320.334 Q2103.01 322.19 2104.18 323.675 Q2105.34 325.214 2107.84 326.221 Q2109.27 326.752 2116.27 328.661 Q2126.4 331.367 2130.38 333.117 Q2134.41 334.814 2136.69 338.103 Q2138.97 341.392 2138.97 346.271 Q2138.97 351.045 2136.16 355.289 Q2133.4 359.479 2128.15 361.813 Q2122.9 364.094 2116.27 364.094 Q2105.29 364.094 2099.51 359.532 Q2093.78 354.97 2092.19 346.006 Z" fill="#000000" fill-rule="nonzero" fill-opacity="1" /><path clip-path="url(#clip700)" d="M2146.51 346.006 L2155.95 344.521 Q2156.74 350.197 2160.35 353.22 Q2164.01 356.243 2170.53 356.243 Q2177.11 356.243 2180.29 353.591 Q2183.48 350.886 2183.48 347.279 Q2183.48 344.044 2180.66 342.187 Q2178.7 340.914 2170.91 338.952 Q2160.4 336.299 2156.32 334.39 Q2152.29 332.427 2150.17 329.033 Q2148.1 325.585 2148.1 321.448 Q2148.1 317.682 2149.79 314.499 Q2151.54 311.264 2154.51 309.142 Q2156.74 307.498 2160.56 306.384 Q2164.43 305.217 2168.84 305.217 Q2175.47 305.217 2180.45 307.126 Q2185.49 309.036 2187.88 312.324 Q2190.27 315.56 2191.17 321.023 L2181.83 322.296 Q2181.2 317.947 2178.12 315.507 Q2175.1 313.067 2169.53 313.067 Q2162.95 313.067 2160.14 315.242 Q2157.33 317.416 2157.33 320.334 Q2157.33 322.19 2158.49 323.675 Q2159.66 325.214 2162.15 326.221 Q2163.59 326.752 2170.59 328.661 Q2180.72 331.367 2184.7 333.117 Q2188.73 334.814 2191.01 338.103 Q2193.29 341.392 2193.29 346.271 Q2193.29 351.045 2190.48 355.289 Q2187.72 359.479 2182.47 361.813 Q2177.22 364.094 2170.59 364.094 Q2159.61 364.094 2153.83 359.532 Q2148.1 354.97 2146.51 346.006 Z" fill="#000000" fill-rule="nonzero" fill-opacity="1" /></svg>
