<?xml version="1.0" encoding="utf-8"?>
<svg xmlns="http://www.w3.org/2000/svg" xmlns:xlink="http://www.w3.org/1999/xlink" width="600" height="400" viewBox="0 0 2400 1600">
<defs>
  <clipPath id="clip800">
    <rect x="0" y="0" width="2400" height="1600"/>
  </clipPath>
</defs>
<path clip-path="url(#clip800)" d="M0 1600 L2400 1600 L2400 8.88178e-14 L0 8.88178e-14  Z" fill="#ffffff" fill-rule="evenodd" fill-opacity="1"/>
<defs>
  <clipPath id="clip801">
    <rect x="480" y="0" width="1681" height="1600"/>
  </clipPath>
</defs>
<path clip-path="url(#clip800)" d="M322.229 1349.74 L2352.76 1349.74 L2352.76 47.2441 L322.229 47.2441  Z" fill="#ffffff" fill-rule="evenodd" fill-opacity="1"/>
<defs>
  <clipPath id="clip802">
    <rect x="322" y="47" width="2032" height="1303"/>
  </clipPath>
</defs>
<polyline clip-path="url(#clip800)" style="stroke:#000000; stroke-linecap:round; stroke-linejoin:round; stroke-width:4; stroke-opacity:1; fill:none" points="322.229,1349.74 2352.76,1349.74 "/>
<polyline clip-path="url(#clip800)" style="stroke:#000000; stroke-linecap:round; stroke-linejoin:round; stroke-width:2; stroke-opacity:0.5; fill:none" points="322.229,47.2441 2352.76,47.2441 "/>
<polyline clip-path="url(#clip800)" style="stroke:#000000; stroke-linecap:round; stroke-linejoin:round; stroke-width:4; stroke-opacity:1; fill:none" points="734.345,1349.74 734.345,1330.84 "/>
<polyline clip-path="url(#clip800)" style="stroke:#000000; stroke-linecap:round; stroke-linejoin:round; stroke-width:4; stroke-opacity:1; fill:none" points="1148.22,1349.74 1148.22,1330.84 "/>
<polyline clip-path="url(#clip800)" style="stroke:#000000; stroke-linecap:round; stroke-linejoin:round; stroke-width:4; stroke-opacity:1; fill:none" points="1562.09,1349.74 1562.09,1330.84 "/>
<polyline clip-path="url(#clip800)" style="stroke:#000000; stroke-linecap:round; stroke-linejoin:round; stroke-width:4; stroke-opacity:1; fill:none" points="1975.96,1349.74 1975.96,1330.84 "/>
<path clip-path="url(#clip800)" d="M663.957 1427.79 Q663.957 1414 666.769 1405.62 Q669.633 1397.18 675.202 1392.62 Q680.825 1388.06 689.312 1388.06 Q695.571 1388.06 700.291 1390.61 Q705.012 1393.1 708.089 1397.87 Q711.165 1402.6 712.915 1409.44 Q714.666 1416.23 714.666 1427.79 Q714.666 1441.48 711.855 1449.91 Q709.043 1458.29 703.421 1462.9 Q697.851 1467.47 689.312 1467.47 Q678.067 1467.47 671.649 1459.4 Q663.957 1449.7 663.957 1427.79 M673.77 1427.79 Q673.77 1446.94 678.226 1453.3 Q682.734 1459.62 689.312 1459.62 Q695.889 1459.62 700.344 1453.25 Q704.853 1446.89 704.853 1427.79 Q704.853 1408.59 700.344 1402.28 Q695.889 1395.96 689.206 1395.96 Q682.628 1395.96 678.703 1401.53 Q673.77 1408.64 673.77 1427.79 Z" fill="#000000" fill-rule="nonzero" fill-opacity="1" /><path clip-path="url(#clip800)" d="M729.73 1466.14 L729.73 1455.27 L740.603 1455.27 L740.603 1466.14 L729.73 1466.14 Z" fill="#000000" fill-rule="nonzero" fill-opacity="1" /><path clip-path="url(#clip800)" d="M804.732 1456.96 L804.732 1466.14 L753.334 1466.14 Q753.228 1462.69 754.448 1459.51 Q756.41 1454.26 760.707 1449.17 Q765.056 1444.07 773.225 1437.39 Q785.902 1426.99 790.357 1420.95 Q794.813 1414.85 794.813 1409.44 Q794.813 1403.76 790.728 1399.89 Q786.697 1395.96 780.173 1395.96 Q773.278 1395.96 769.14 1400.1 Q765.003 1404.24 764.95 1411.56 L755.137 1410.55 Q756.145 1399.57 762.722 1393.84 Q769.299 1388.06 780.385 1388.06 Q791.577 1388.06 798.101 1394.27 Q804.626 1400.47 804.626 1409.65 Q804.626 1414.32 802.716 1418.83 Q800.806 1423.33 796.351 1428.32 Q791.948 1433.31 781.658 1442.01 Q773.065 1449.22 770.625 1451.82 Q768.185 1454.36 766.594 1456.96 L804.732 1456.96 Z" fill="#000000" fill-rule="nonzero" fill-opacity="1" /><path clip-path="url(#clip800)" d="M1077.59 1427.79 Q1077.59 1414 1080.4 1405.62 Q1083.27 1397.18 1088.83 1392.62 Q1094.46 1388.06 1102.94 1388.06 Q1109.2 1388.06 1113.92 1390.61 Q1118.64 1393.1 1121.72 1397.87 Q1124.8 1402.6 1126.55 1409.44 Q1128.3 1416.23 1128.3 1427.79 Q1128.3 1441.48 1125.49 1449.91 Q1122.68 1458.29 1117.05 1462.9 Q1111.48 1467.47 1102.94 1467.47 Q1091.7 1467.47 1085.28 1459.4 Q1077.59 1449.7 1077.59 1427.79 M1087.4 1427.79 Q1087.4 1446.94 1091.86 1453.3 Q1096.37 1459.62 1102.94 1459.62 Q1109.52 1459.62 1113.98 1453.25 Q1118.49 1446.89 1118.49 1427.79 Q1118.49 1408.59 1113.98 1402.28 Q1109.52 1395.96 1102.84 1395.96 Q1096.26 1395.96 1092.34 1401.53 Q1087.4 1408.64 1087.4 1427.79 Z" fill="#000000" fill-rule="nonzero" fill-opacity="1" /><path clip-path="url(#clip800)" d="M1143.36 1466.14 L1143.36 1455.27 L1154.24 1455.27 L1154.24 1466.14 L1143.36 1466.14 Z" fill="#000000" fill-rule="nonzero" fill-opacity="1" /><path clip-path="url(#clip800)" d="M1198.79 1466.14 L1198.79 1447.52 L1165.06 1447.52 L1165.06 1438.77 L1200.54 1388.38 L1208.34 1388.38 L1208.34 1438.77 L1218.84 1438.77 L1218.84 1447.52 L1208.34 1447.52 L1208.34 1466.14 L1198.79 1466.14 M1198.79 1438.77 L1198.79 1403.71 L1174.44 1438.77 L1198.79 1438.77 Z" fill="#000000" fill-rule="nonzero" fill-opacity="1" /><path clip-path="url(#clip800)" d="M1491.33 1427.79 Q1491.33 1414 1494.14 1405.62 Q1497 1397.18 1502.57 1392.62 Q1508.2 1388.06 1516.68 1388.06 Q1522.94 1388.06 1527.66 1390.61 Q1532.38 1393.1 1535.46 1397.87 Q1538.54 1402.6 1540.29 1409.44 Q1542.04 1416.23 1542.04 1427.79 Q1542.04 1441.48 1539.22 1449.91 Q1536.41 1458.29 1530.79 1462.9 Q1525.22 1467.47 1516.68 1467.47 Q1505.44 1467.47 1499.02 1459.4 Q1491.33 1449.7 1491.33 1427.79 M1501.14 1427.79 Q1501.14 1446.94 1505.6 1453.3 Q1510.1 1459.62 1516.68 1459.62 Q1523.26 1459.62 1527.71 1453.25 Q1532.22 1446.89 1532.22 1427.79 Q1532.22 1408.59 1527.71 1402.28 Q1523.26 1395.96 1516.58 1395.96 Q1510 1395.96 1506.07 1401.53 Q1501.14 1408.64 1501.14 1427.79 Z" fill="#000000" fill-rule="nonzero" fill-opacity="1" /><path clip-path="url(#clip800)" d="M1557.1 1466.14 L1557.1 1455.27 L1567.97 1455.27 L1567.97 1466.14 L1557.1 1466.14 Z" fill="#000000" fill-rule="nonzero" fill-opacity="1" /><path clip-path="url(#clip800)" d="M1631.47 1407.42 L1621.97 1408.16 Q1620.7 1402.54 1618.36 1400 Q1614.49 1395.91 1608.82 1395.91 Q1604.25 1395.91 1600.81 1398.46 Q1596.3 1401.75 1593.7 1408.06 Q1591.1 1414.37 1590.99 1426.04 Q1594.44 1420.79 1599.43 1418.24 Q1604.41 1415.7 1609.88 1415.7 Q1619.42 1415.7 1626.11 1422.75 Q1632.84 1429.75 1632.84 1440.89 Q1632.84 1448.21 1629.66 1454.52 Q1626.53 1460.78 1621.02 1464.12 Q1615.5 1467.47 1608.5 1467.47 Q1596.56 1467.47 1589.03 1458.71 Q1581.5 1449.91 1581.5 1429.75 Q1581.5 1407.21 1589.83 1396.97 Q1597.09 1388.06 1609.4 1388.06 Q1618.58 1388.06 1624.41 1393.21 Q1630.3 1398.35 1631.47 1407.42 M1592.48 1440.94 Q1592.48 1445.88 1594.55 1450.39 Q1596.67 1454.89 1600.44 1457.28 Q1604.2 1459.62 1608.34 1459.62 Q1614.39 1459.62 1618.74 1454.74 Q1623.08 1449.86 1623.08 1441.48 Q1623.08 1433.41 1618.79 1428.8 Q1614.49 1424.13 1607.97 1424.13 Q1601.5 1424.13 1596.99 1428.8 Q1592.48 1433.41 1592.48 1440.94 Z" fill="#000000" fill-rule="nonzero" fill-opacity="1" /><path clip-path="url(#clip800)" d="M1905.09 1427.79 Q1905.09 1414 1907.9 1405.62 Q1910.77 1397.18 1916.34 1392.62 Q1921.96 1388.06 1930.45 1388.06 Q1936.71 1388.06 1941.43 1390.61 Q1946.15 1393.1 1949.22 1397.87 Q1952.3 1402.6 1954.05 1409.44 Q1955.8 1416.23 1955.8 1427.79 Q1955.8 1441.48 1952.99 1449.91 Q1950.18 1458.29 1944.56 1462.9 Q1938.99 1467.47 1930.45 1467.47 Q1919.2 1467.47 1912.78 1459.4 Q1905.09 1449.7 1905.09 1427.79 M1914.91 1427.79 Q1914.91 1446.94 1919.36 1453.3 Q1923.87 1459.62 1930.45 1459.62 Q1937.02 1459.62 1941.48 1453.25 Q1945.99 1446.89 1945.99 1427.79 Q1945.99 1408.59 1941.48 1402.28 Q1937.02 1395.96 1930.34 1395.96 Q1923.76 1395.96 1919.84 1401.53 Q1914.91 1408.64 1914.91 1427.79 Z" fill="#000000" fill-rule="nonzero" fill-opacity="1" /><path clip-path="url(#clip800)" d="M1970.87 1466.14 L1970.87 1455.27 L1981.74 1455.27 L1981.74 1466.14 L1970.87 1466.14 Z" fill="#000000" fill-rule="nonzero" fill-opacity="1" /><path clip-path="url(#clip800)" d="M2010.38 1423.97 Q2004.44 1421.8 2001.58 1417.77 Q1998.71 1413.73 1998.71 1408.11 Q1998.71 1399.62 2004.81 1393.84 Q2010.91 1388.06 2021.04 1388.06 Q2031.23 1388.06 2037.43 1394 Q2043.64 1399.89 2043.64 1408.38 Q2043.64 1413.79 2040.77 1417.82 Q2037.96 1421.8 2032.18 1423.97 Q2039.34 1426.31 2043.06 1431.5 Q2046.82 1436.7 2046.82 1443.92 Q2046.82 1453.89 2039.77 1460.68 Q2032.71 1467.47 2021.2 1467.47 Q2009.69 1467.47 2002.64 1460.68 Q1995.58 1453.83 1995.58 1443.65 Q1995.58 1436.06 1999.4 1430.97 Q2003.27 1425.83 2010.38 1423.97 M2008.47 1407.79 Q2008.47 1413.31 2012.03 1416.81 Q2015.58 1420.31 2021.26 1420.31 Q2026.77 1420.31 2030.27 1416.86 Q2033.83 1413.36 2033.83 1408.32 Q2033.83 1403.07 2030.17 1399.52 Q2026.56 1395.91 2021.15 1395.91 Q2015.69 1395.91 2012.08 1399.41 Q2008.47 1402.91 2008.47 1407.79 M2005.4 1443.7 Q2005.4 1447.79 2007.31 1451.61 Q2009.27 1455.43 2013.09 1457.55 Q2016.91 1459.62 2021.31 1459.62 Q2028.15 1459.62 2032.61 1455.21 Q2037.06 1450.81 2037.06 1444.02 Q2037.06 1437.13 2032.45 1432.62 Q2027.89 1428.11 2020.99 1428.11 Q2014.25 1428.11 2009.8 1432.56 Q2005.4 1437.02 2005.4 1443.7 Z" fill="#000000" fill-rule="nonzero" fill-opacity="1" /><path clip-path="url(#clip800)" d="M1286.69 1557.13 L1286.69 1553.81 Q1295.13 1553.81 1300.5 1547.33 Q1300.5 1547.33 1310.62 1534.47 L1299.92 1520.56 Q1296.13 1515.71 1294.44 1514.87 Q1292.81 1513.97 1287.22 1513.97 L1287.22 1510.6 Q1291.65 1510.92 1297.45 1510.92 Q1300.66 1510.92 1309.14 1510.6 L1309.14 1513.97 Q1305.35 1514.18 1305.35 1516.66 Q1305.35 1517.5 1306.3 1518.61 L1314.73 1529.52 L1321.42 1521.09 Q1323.06 1519.14 1323.06 1517.29 Q1323.06 1514.29 1319.9 1513.97 L1319.9 1510.6 Q1324.11 1510.92 1330.28 1510.92 Q1334.92 1510.92 1339.13 1510.6 L1339.13 1513.97 Q1330.91 1514.18 1326.27 1519.56 Q1324.22 1521.82 1316.36 1531.78 L1330.8 1550.44 Q1332.54 1552.71 1334.49 1553.29 Q1336.44 1553.81 1341.08 1553.81 L1341.08 1557.13 Q1336.23 1556.82 1330.7 1556.82 Q1328.75 1556.82 1319.05 1557.13 L1319.05 1553.81 Q1321 1553.71 1321.95 1552.86 Q1322.95 1551.97 1322.95 1551.07 Q1322.95 1550.65 1320.69 1547.54 L1312.46 1536.74 Q1304.24 1546.44 1303.19 1548.7 Q1302.77 1549.65 1302.77 1550.44 Q1302.77 1553.34 1305.88 1553.81 L1305.88 1557.13 Q1298.13 1556.82 1295.65 1556.82 Q1290.91 1556.82 1286.69 1557.13 Z" fill="#000000" fill-rule="nonzero" fill-opacity="1" /><path clip-path="url(#clip800)" d="M1352.07 1543.91 L1352.07 1541.55 Q1361.15 1541.55 1365.83 1536.71 Q1367.13 1536.71 1367.35 1537.01 Q1367.57 1537.3 1367.57 1538.67 L1367.57 1581.06 Q1367.57 1583.31 1368.67 1584.01 Q1369.78 1584.71 1374.61 1584.71 L1377.01 1584.71 L1377.01 1587.03 Q1374.36 1586.81 1364.76 1586.81 Q1355.17 1586.81 1352.55 1587.03 L1352.55 1584.71 L1354.95 1584.71 Q1359.71 1584.71 1360.85 1584.04 Q1362 1583.34 1362 1581.06 L1362 1541.92 Q1358.05 1543.91 1352.07 1543.91 Z" fill="#000000" fill-rule="nonzero" fill-opacity="1" /><polyline clip-path="url(#clip800)" style="stroke:#000000; stroke-linecap:round; stroke-linejoin:round; stroke-width:4; stroke-opacity:1; fill:none" points="322.229,1349.74 322.229,47.2441 "/>
<polyline clip-path="url(#clip800)" style="stroke:#000000; stroke-linecap:round; stroke-linejoin:round; stroke-width:2; stroke-opacity:0.5; fill:none" points="2352.76,1349.74 2352.76,47.2441 "/>
<polyline clip-path="url(#clip800)" style="stroke:#000000; stroke-linecap:round; stroke-linejoin:round; stroke-width:4; stroke-opacity:1; fill:none" points="322.229,1095.16 341.127,1095.16 "/>
<polyline clip-path="url(#clip800)" style="stroke:#000000; stroke-linecap:round; stroke-linejoin:round; stroke-width:4; stroke-opacity:1; fill:none" points="322.229,829.418 341.127,829.418 "/>
<polyline clip-path="url(#clip800)" style="stroke:#000000; stroke-linecap:round; stroke-linejoin:round; stroke-width:4; stroke-opacity:1; fill:none" points="322.229,563.674 341.127,563.674 "/>
<polyline clip-path="url(#clip800)" style="stroke:#000000; stroke-linecap:round; stroke-linejoin:round; stroke-width:4; stroke-opacity:1; fill:none" points="322.229,297.931 341.127,297.931 "/>
<path clip-path="url(#clip800)" d="M145.455 1095.69 Q145.455 1081.9 148.266 1073.52 Q151.13 1065.09 156.7 1060.52 Q162.322 1055.96 170.809 1055.96 Q177.068 1055.96 181.789 1058.51 Q186.51 1061 189.586 1065.78 Q192.663 1070.5 194.413 1077.34 Q196.163 1084.13 196.163 1095.69 Q196.163 1109.38 193.352 1117.81 Q190.541 1126.19 184.918 1130.81 Q179.349 1135.37 170.809 1135.37 Q159.564 1135.37 153.146 1127.3 Q145.455 1117.6 145.455 1095.69 M155.268 1095.69 Q155.268 1114.84 159.723 1121.21 Q164.232 1127.52 170.809 1127.52 Q177.386 1127.52 181.842 1121.15 Q186.351 1114.79 186.351 1095.69 Q186.351 1076.49 181.842 1070.18 Q177.386 1063.87 170.703 1063.87 Q164.126 1063.87 160.201 1069.44 Q155.268 1076.54 155.268 1095.69 Z" fill="#000000" fill-rule="nonzero" fill-opacity="1" /><path clip-path="url(#clip800)" d="M211.227 1134.04 L211.227 1123.17 L222.101 1123.17 L222.101 1134.04 L211.227 1134.04 Z" fill="#000000" fill-rule="nonzero" fill-opacity="1" /><path clip-path="url(#clip800)" d="M286.229 1124.87 L286.229 1134.04 L234.831 1134.04 Q234.725 1130.59 235.945 1127.41 Q237.908 1122.16 242.204 1117.07 Q246.554 1111.98 254.722 1105.29 Q267.399 1094.9 271.855 1088.85 Q276.31 1082.75 276.31 1077.34 Q276.31 1071.66 272.226 1067.79 Q268.195 1063.87 261.671 1063.87 Q254.775 1063.87 250.638 1068 Q246.5 1072.14 246.447 1079.46 L236.635 1078.45 Q237.642 1067.47 244.22 1061.74 Q250.797 1055.96 261.883 1055.96 Q273.075 1055.96 279.599 1062.17 Q286.123 1068.37 286.123 1077.55 Q286.123 1082.22 284.214 1086.73 Q282.304 1091.24 277.848 1096.22 Q273.446 1101.21 263.156 1109.91 Q254.563 1117.12 252.123 1119.72 Q249.683 1122.27 248.092 1124.87 L286.229 1124.87 Z" fill="#000000" fill-rule="nonzero" fill-opacity="1" /><path clip-path="url(#clip800)" d="M144.978 829.948 Q144.978 816.157 147.789 807.776 Q150.653 799.343 156.223 794.781 Q161.845 790.219 170.332 790.219 Q176.591 790.219 181.312 792.766 Q186.032 795.259 189.109 800.032 Q192.185 804.753 193.936 811.596 Q195.686 818.385 195.686 829.948 Q195.686 843.633 192.875 852.067 Q190.063 860.447 184.441 865.062 Q178.872 869.624 170.332 869.624 Q159.087 869.624 152.669 861.561 Q144.978 851.855 144.978 829.948 M154.79 829.948 Q154.79 849.096 159.246 855.462 Q163.755 861.774 170.332 861.774 Q176.909 861.774 181.365 855.408 Q185.873 849.043 185.873 829.948 Q185.873 810.747 181.365 804.435 Q176.909 798.123 170.226 798.123 Q163.648 798.123 159.723 803.692 Q154.79 810.8 154.79 829.948 Z" fill="#000000" fill-rule="nonzero" fill-opacity="1" /><path clip-path="url(#clip800)" d="M210.75 868.298 L210.75 857.424 L221.624 857.424 L221.624 868.298 L210.75 868.298 Z" fill="#000000" fill-rule="nonzero" fill-opacity="1" /><path clip-path="url(#clip800)" d="M266.179 868.298 L266.179 849.68 L232.444 849.68 L232.444 840.928 L267.93 790.538 L275.727 790.538 L275.727 840.928 L286.229 840.928 L286.229 849.68 L275.727 849.68 L275.727 868.298 L266.179 868.298 M266.179 840.928 L266.179 805.867 L241.833 840.928 L266.179 840.928 Z" fill="#000000" fill-rule="nonzero" fill-opacity="1" /><path clip-path="url(#clip800)" d="M144.712 564.205 Q144.712 550.414 147.524 542.033 Q150.388 533.599 155.957 529.038 Q161.58 524.476 170.067 524.476 Q176.326 524.476 181.046 527.022 Q185.767 529.515 188.844 534.289 Q191.92 539.009 193.67 545.852 Q195.421 552.641 195.421 564.205 Q195.421 577.889 192.61 586.323 Q189.798 594.704 184.176 599.319 Q178.606 603.88 170.067 603.88 Q158.822 603.88 152.403 595.818 Q144.712 586.111 144.712 564.205 M154.525 564.205 Q154.525 583.353 158.981 589.718 Q163.489 596.03 170.067 596.03 Q176.644 596.03 181.099 589.665 Q185.608 583.3 185.608 564.205 Q185.608 545.003 181.099 538.691 Q176.644 532.379 169.96 532.379 Q163.383 532.379 159.458 537.949 Q154.525 545.056 154.525 564.205 Z" fill="#000000" fill-rule="nonzero" fill-opacity="1" /><path clip-path="url(#clip800)" d="M210.485 602.554 L210.485 591.68 L221.358 591.68 L221.358 602.554 L210.485 602.554 Z" fill="#000000" fill-rule="nonzero" fill-opacity="1" /><path clip-path="url(#clip800)" d="M284.85 543.836 L275.355 544.579 Q274.082 538.956 271.749 536.41 Q267.877 532.326 262.201 532.326 Q257.639 532.326 254.192 534.872 Q249.683 538.161 247.084 544.473 Q244.485 550.785 244.379 562.454 Q247.827 557.203 252.813 554.657 Q257.798 552.111 263.262 552.111 Q272.809 552.111 279.493 559.166 Q286.229 566.167 286.229 577.306 Q286.229 584.626 283.047 590.938 Q279.917 597.197 274.401 600.539 Q268.884 603.88 261.883 603.88 Q249.948 603.88 242.416 595.128 Q234.884 586.323 234.884 566.167 Q234.884 543.624 243.212 533.387 Q250.479 524.476 262.784 524.476 Q271.961 524.476 277.795 529.621 Q283.683 534.766 284.85 543.836 M245.864 577.359 Q245.864 582.292 247.933 586.801 Q250.054 591.309 253.82 593.696 Q257.586 596.03 261.724 596.03 Q267.77 596.03 272.12 591.15 Q276.469 586.27 276.469 577.889 Q276.469 569.827 272.173 565.212 Q267.877 560.545 261.352 560.545 Q254.881 560.545 250.373 565.212 Q245.864 569.827 245.864 577.359 Z" fill="#000000" fill-rule="nonzero" fill-opacity="1" /><path clip-path="url(#clip800)" d="M144.5 298.461 Q144.5 284.67 147.311 276.289 Q150.176 267.856 155.745 263.294 Q161.368 258.732 169.854 258.732 Q176.113 258.732 180.834 261.278 Q185.555 263.771 188.631 268.545 Q191.708 273.266 193.458 280.108 Q195.209 286.898 195.209 298.461 Q195.209 312.146 192.397 320.58 Q189.586 328.96 183.964 333.575 Q178.394 338.137 169.854 338.137 Q158.609 338.137 152.191 330.074 Q144.5 320.367 144.5 298.461 M154.313 298.461 Q154.313 317.609 158.769 323.974 Q163.277 330.286 169.854 330.286 Q176.432 330.286 180.887 323.921 Q185.396 317.556 185.396 298.461 Q185.396 279.26 180.887 272.948 Q176.432 266.636 169.748 266.636 Q163.171 266.636 159.246 272.205 Q154.313 279.313 154.313 298.461 Z" fill="#000000" fill-rule="nonzero" fill-opacity="1" /><path clip-path="url(#clip800)" d="M210.273 336.811 L210.273 325.937 L221.146 325.937 L221.146 336.811 L210.273 336.811 Z" fill="#000000" fill-rule="nonzero" fill-opacity="1" /><path clip-path="url(#clip800)" d="M249.789 294.642 Q243.848 292.467 240.984 288.436 Q238.12 284.405 238.12 278.782 Q238.12 270.296 244.22 264.514 Q250.32 258.732 260.451 258.732 Q270.635 258.732 276.841 264.673 Q283.047 270.561 283.047 279.047 Q283.047 284.458 280.182 288.489 Q277.371 292.467 271.589 294.642 Q278.75 296.976 282.463 302.174 Q286.229 307.372 286.229 314.586 Q286.229 324.558 279.175 331.347 Q272.12 338.137 260.61 338.137 Q249.1 338.137 242.045 331.347 Q234.99 324.505 234.99 314.321 Q234.99 306.736 238.809 301.643 Q242.681 296.498 249.789 294.642 M247.88 278.464 Q247.88 283.98 251.433 287.481 Q254.987 290.982 260.663 290.982 Q266.179 290.982 269.68 287.534 Q273.234 284.033 273.234 278.994 Q273.234 273.743 269.574 270.189 Q265.967 266.583 260.557 266.583 Q255.093 266.583 251.486 270.083 Q247.88 273.584 247.88 278.464 M244.803 314.374 Q244.803 318.458 246.713 322.277 Q248.675 326.096 252.494 328.218 Q256.313 330.286 260.716 330.286 Q267.558 330.286 272.014 325.884 Q276.469 321.481 276.469 314.692 Q276.469 307.796 271.855 303.288 Q267.293 298.779 260.398 298.779 Q253.661 298.779 249.206 303.235 Q244.803 307.69 244.803 314.374 Z" fill="#000000" fill-rule="nonzero" fill-opacity="1" /><path clip-path="url(#clip800)" d="M69.9417 751.882 L66.6215 751.882 Q66.6215 743.45 60.1394 738.075 Q60.1394 738.075 47.2804 727.956 L33.3675 738.654 Q28.5191 742.449 27.6759 744.135 Q26.7799 745.769 26.7799 751.355 L23.4071 751.355 Q23.7233 746.928 23.7233 741.131 Q23.7233 737.917 23.4071 729.432 L26.7799 729.432 Q26.9907 733.226 29.4677 733.226 Q30.3109 733.226 31.4176 732.278 L42.3266 723.846 L33.8945 717.153 Q31.9446 715.519 30.1001 715.519 Q27.0962 715.519 26.7799 718.681 L23.4071 718.681 Q23.7233 714.465 23.7233 708.299 Q23.7233 703.661 23.4071 699.445 L26.7799 699.445 Q26.9907 707.667 32.3662 712.304 Q34.6323 714.36 44.5927 722.212 L63.2487 707.772 Q65.5148 706.033 66.0945 704.083 Q66.6215 702.133 66.6215 697.495 L69.9417 697.495 Q69.6255 702.344 69.6255 707.877 Q69.6255 709.827 69.9417 719.524 L66.6215 719.524 Q66.5161 717.574 65.6729 716.626 Q64.777 715.624 63.8811 715.624 Q63.4595 715.624 60.3502 717.89 L49.5466 726.112 Q59.2435 734.333 61.5096 735.387 Q62.4582 735.809 63.2487 735.809 Q66.1472 735.809 66.6215 732.699 L69.9417 732.699 Q69.6255 740.446 69.6255 742.923 Q69.6255 747.666 69.9417 751.882 Z" fill="#000000" fill-rule="nonzero" fill-opacity="1" /><path clip-path="url(#clip800)" d="M99.8404 686.503 Q98.4755 686.503 98.0697 686.392 Q97.6639 686.245 97.0367 685.654 L80.8788 671.157 Q71.9513 663.225 64.1674 663.225 Q59.1135 663.225 55.4982 665.881 Q51.883 668.5 51.883 673.333 Q51.883 676.653 53.9119 679.457 Q55.9409 682.261 59.5561 683.552 Q59.4824 683.33 59.4824 682.556 Q59.4824 680.674 60.6629 679.641 Q61.8433 678.571 63.4296 678.571 Q65.4586 678.571 66.4546 679.9 Q67.4138 681.191 67.4138 682.482 Q67.4138 682.998 67.3031 683.699 Q67.1924 684.363 66.1595 685.433 Q65.0897 686.503 63.2083 686.503 Q57.933 686.503 53.7275 682.519 Q49.522 678.498 49.522 672.374 Q49.522 665.439 53.6537 660.901 Q57.7485 656.327 64.1674 656.327 Q66.4178 656.327 68.4836 657.028 Q70.5126 657.692 72.0989 658.614 Q73.6851 659.499 76.2306 661.934 Q78.776 664.369 80.5836 666.324 Q82.3913 668.279 86.2279 672.669 L94.0117 680.674 L94.0117 667.062 Q94.0117 660.421 93.4215 659.905 Q92.3517 659.167 86.7074 658.245 L86.7074 656.327 L99.8404 658.466 L99.8404 686.503 Z" fill="#000000" fill-rule="nonzero" fill-opacity="1" /><circle clip-path="url(#clip802)" cx="884.699" cy="1106.37" r="14.4" fill="#009af9" fill-rule="evenodd" fill-opacity="1" stroke="#000000" stroke-opacity="1" stroke-width="3.2"/>
<circle clip-path="url(#clip802)" cx="1155.24" cy="735.581" r="14.4" fill="#009af9" fill-rule="evenodd" fill-opacity="1" stroke="#000000" stroke-opacity="1" stroke-width="3.2"/>
<circle clip-path="url(#clip802)" cx="561.66" cy="765.629" r="14.4" fill="#009af9" fill-rule="evenodd" fill-opacity="1" stroke="#000000" stroke-opacity="1" stroke-width="3.2"/>
<circle clip-path="url(#clip802)" cx="1048.11" cy="1246.17" r="14.4" fill="#009af9" fill-rule="evenodd" fill-opacity="1" stroke="#000000" stroke-opacity="1" stroke-width="3.2"/>
<circle clip-path="url(#clip802)" cx="1178.75" cy="1091.22" r="14.4" fill="#009af9" fill-rule="evenodd" fill-opacity="1" stroke="#000000" stroke-opacity="1" stroke-width="3.2"/>
<circle clip-path="url(#clip802)" cx="894.242" cy="1181" r="14.4" fill="#009af9" fill-rule="evenodd" fill-opacity="1" stroke="#000000" stroke-opacity="1" stroke-width="3.2"/>
<circle clip-path="url(#clip802)" cx="465.763" cy="1236.13" r="14.4" fill="#009af9" fill-rule="evenodd" fill-opacity="1" stroke="#000000" stroke-opacity="1" stroke-width="3.2"/>
<circle clip-path="url(#clip802)" cx="837.288" cy="810.257" r="14.4" fill="#009af9" fill-rule="evenodd" fill-opacity="1" stroke="#000000" stroke-opacity="1" stroke-width="3.2"/>
<circle clip-path="url(#clip802)" cx="1097.63" cy="1021.43" r="14.4" fill="#009af9" fill-rule="evenodd" fill-opacity="1" stroke="#000000" stroke-opacity="1" stroke-width="3.2"/>
<circle clip-path="url(#clip802)" cx="548.633" cy="1186.18" r="14.4" fill="#009af9" fill-rule="evenodd" fill-opacity="1" stroke="#000000" stroke-opacity="1" stroke-width="3.2"/>
<circle clip-path="url(#clip802)" cx="500.511" cy="899.304" r="14.4" fill="#009af9" fill-rule="evenodd" fill-opacity="1" stroke="#000000" stroke-opacity="1" stroke-width="3.2"/>
<circle clip-path="url(#clip802)" cx="393.066" cy="912.598" r="14.4" fill="#009af9" fill-rule="evenodd" fill-opacity="1" stroke="#000000" stroke-opacity="1" stroke-width="3.2"/>
<circle clip-path="url(#clip802)" cx="806.304" cy="838.15" r="14.4" fill="#009af9" fill-rule="evenodd" fill-opacity="1" stroke="#000000" stroke-opacity="1" stroke-width="3.2"/>
<circle clip-path="url(#clip802)" cx="715.446" cy="1131.47" r="14.4" fill="#009af9" fill-rule="evenodd" fill-opacity="1" stroke="#000000" stroke-opacity="1" stroke-width="3.2"/>
<circle clip-path="url(#clip802)" cx="322.229" cy="1169.49" r="14.4" fill="#009af9" fill-rule="evenodd" fill-opacity="1" stroke="#000000" stroke-opacity="1" stroke-width="3.2"/>
<circle clip-path="url(#clip802)" cx="379.819" cy="803.271" r="14.4" fill="#009af9" fill-rule="evenodd" fill-opacity="1" stroke="#000000" stroke-opacity="1" stroke-width="3.2"/>
<circle clip-path="url(#clip802)" cx="826.683" cy="1301.93" r="14.4" fill="#009af9" fill-rule="evenodd" fill-opacity="1" stroke="#000000" stroke-opacity="1" stroke-width="3.2"/>
<circle clip-path="url(#clip802)" cx="1143.47" cy="941.124" r="14.4" fill="#009af9" fill-rule="evenodd" fill-opacity="1" stroke="#000000" stroke-opacity="1" stroke-width="3.2"/>
<circle clip-path="url(#clip802)" cx="1207.14" cy="1119.94" r="14.4" fill="#009af9" fill-rule="evenodd" fill-opacity="1" stroke="#000000" stroke-opacity="1" stroke-width="3.2"/>
<circle clip-path="url(#clip802)" cx="594.12" cy="1165.79" r="14.4" fill="#009af9" fill-rule="evenodd" fill-opacity="1" stroke="#000000" stroke-opacity="1" stroke-width="3.2"/>
<circle clip-path="url(#clip802)" cx="1171.02" cy="1315.29" r="14.4" fill="#009af9" fill-rule="evenodd" fill-opacity="1" stroke="#000000" stroke-opacity="1" stroke-width="3.2"/>
<circle clip-path="url(#clip802)" cx="898.945" cy="935.544" r="14.4" fill="#009af9" fill-rule="evenodd" fill-opacity="1" stroke="#000000" stroke-opacity="1" stroke-width="3.2"/>
<circle clip-path="url(#clip802)" cx="329.332" cy="717.033" r="14.4" fill="#009af9" fill-rule="evenodd" fill-opacity="1" stroke="#000000" stroke-opacity="1" stroke-width="3.2"/>
<circle clip-path="url(#clip802)" cx="345.385" cy="906.802" r="14.4" fill="#009af9" fill-rule="evenodd" fill-opacity="1" stroke="#000000" stroke-opacity="1" stroke-width="3.2"/>
<circle clip-path="url(#clip802)" cx="1075.32" cy="1187.33" r="14.4" fill="#009af9" fill-rule="evenodd" fill-opacity="1" stroke="#000000" stroke-opacity="1" stroke-width="3.2"/>
<circle clip-path="url(#clip802)" cx="670.265" cy="1073.05" r="14.4" fill="#009af9" fill-rule="evenodd" fill-opacity="1" stroke="#000000" stroke-opacity="1" stroke-width="3.2"/>
<circle clip-path="url(#clip802)" cx="565.85" cy="1088.22" r="14.4" fill="#009af9" fill-rule="evenodd" fill-opacity="1" stroke="#000000" stroke-opacity="1" stroke-width="3.2"/>
<circle clip-path="url(#clip802)" cx="1051.78" cy="1273.12" r="14.4" fill="#009af9" fill-rule="evenodd" fill-opacity="1" stroke="#000000" stroke-opacity="1" stroke-width="3.2"/>
<circle clip-path="url(#clip802)" cx="931.261" cy="1291.96" r="14.4" fill="#009af9" fill-rule="evenodd" fill-opacity="1" stroke="#000000" stroke-opacity="1" stroke-width="3.2"/>
<circle clip-path="url(#clip802)" cx="912.487" cy="721.169" r="14.4" fill="#009af9" fill-rule="evenodd" fill-opacity="1" stroke="#000000" stroke-opacity="1" stroke-width="3.2"/>
<circle clip-path="url(#clip802)" cx="455.955" cy="934.304" r="14.4" fill="#009af9" fill-rule="evenodd" fill-opacity="1" stroke="#000000" stroke-opacity="1" stroke-width="3.2"/>
<circle clip-path="url(#clip802)" cx="916.226" cy="887.713" r="14.4" fill="#009af9" fill-rule="evenodd" fill-opacity="1" stroke="#000000" stroke-opacity="1" stroke-width="3.2"/>
<circle clip-path="url(#clip802)" cx="421.583" cy="777.468" r="14.4" fill="#009af9" fill-rule="evenodd" fill-opacity="1" stroke="#000000" stroke-opacity="1" stroke-width="3.2"/>
<circle clip-path="url(#clip802)" cx="385.612" cy="829.816" r="14.4" fill="#009af9" fill-rule="evenodd" fill-opacity="1" stroke="#000000" stroke-opacity="1" stroke-width="3.2"/>
<circle clip-path="url(#clip802)" cx="1109.26" cy="1036.36" r="14.4" fill="#009af9" fill-rule="evenodd" fill-opacity="1" stroke="#000000" stroke-opacity="1" stroke-width="3.2"/>
<circle clip-path="url(#clip802)" cx="1266.23" cy="963.133" r="14.4" fill="#009af9" fill-rule="evenodd" fill-opacity="1" stroke="#000000" stroke-opacity="1" stroke-width="3.2"/>
<circle clip-path="url(#clip802)" cx="952.129" cy="706.476" r="14.4" fill="#009af9" fill-rule="evenodd" fill-opacity="1" stroke="#000000" stroke-opacity="1" stroke-width="3.2"/>
<circle clip-path="url(#clip802)" cx="1181.51" cy="1044.88" r="14.4" fill="#009af9" fill-rule="evenodd" fill-opacity="1" stroke="#000000" stroke-opacity="1" stroke-width="3.2"/>
<circle clip-path="url(#clip802)" cx="1033.91" cy="1212.66" r="14.4" fill="#009af9" fill-rule="evenodd" fill-opacity="1" stroke="#000000" stroke-opacity="1" stroke-width="3.2"/>
<circle clip-path="url(#clip802)" cx="749.027" cy="938.871" r="14.4" fill="#009af9" fill-rule="evenodd" fill-opacity="1" stroke="#000000" stroke-opacity="1" stroke-width="3.2"/>
<circle clip-path="url(#clip802)" cx="1308.24" cy="831.693" r="14.4" fill="#009af9" fill-rule="evenodd" fill-opacity="1" stroke="#000000" stroke-opacity="1" stroke-width="3.2"/>
<circle clip-path="url(#clip802)" cx="986.62" cy="1151.08" r="14.4" fill="#009af9" fill-rule="evenodd" fill-opacity="1" stroke="#000000" stroke-opacity="1" stroke-width="3.2"/>
<circle clip-path="url(#clip802)" cx="1285.79" cy="1299.55" r="14.4" fill="#009af9" fill-rule="evenodd" fill-opacity="1" stroke="#000000" stroke-opacity="1" stroke-width="3.2"/>
<circle clip-path="url(#clip802)" cx="859.187" cy="938.058" r="14.4" fill="#009af9" fill-rule="evenodd" fill-opacity="1" stroke="#000000" stroke-opacity="1" stroke-width="3.2"/>
<circle clip-path="url(#clip802)" cx="585.842" cy="863.467" r="14.4" fill="#009af9" fill-rule="evenodd" fill-opacity="1" stroke="#000000" stroke-opacity="1" stroke-width="3.2"/>
<circle clip-path="url(#clip802)" cx="512.519" cy="1041.21" r="14.4" fill="#009af9" fill-rule="evenodd" fill-opacity="1" stroke="#000000" stroke-opacity="1" stroke-width="3.2"/>
<circle clip-path="url(#clip802)" cx="1029.53" cy="1004.98" r="14.4" fill="#009af9" fill-rule="evenodd" fill-opacity="1" stroke="#000000" stroke-opacity="1" stroke-width="3.2"/>
<circle clip-path="url(#clip802)" cx="382.938" cy="1255.49" r="14.4" fill="#009af9" fill-rule="evenodd" fill-opacity="1" stroke="#000000" stroke-opacity="1" stroke-width="3.2"/>
<circle clip-path="url(#clip802)" cx="1197.03" cy="716.872" r="14.4" fill="#009af9" fill-rule="evenodd" fill-opacity="1" stroke="#000000" stroke-opacity="1" stroke-width="3.2"/>
<circle clip-path="url(#clip802)" cx="705.064" cy="765.866" r="14.4" fill="#009af9" fill-rule="evenodd" fill-opacity="1" stroke="#000000" stroke-opacity="1" stroke-width="3.2"/>
<circle clip-path="url(#clip802)" cx="790.857" cy="717.786" r="14.4" fill="#009af9" fill-rule="evenodd" fill-opacity="1" stroke="#000000" stroke-opacity="1" stroke-width="3.2"/>
<circle clip-path="url(#clip802)" cx="539.82" cy="47.2441" r="14.4" fill="#e26f46" fill-rule="evenodd" fill-opacity="1" stroke="#000000" stroke-opacity="1" stroke-width="3.2"/>
<circle clip-path="url(#clip802)" cx="538.807" cy="324.911" r="14.4" fill="#e26f46" fill-rule="evenodd" fill-opacity="1" stroke="#000000" stroke-opacity="1" stroke-width="3.2"/>
<circle clip-path="url(#clip802)" cx="2308.77" cy="1010.44" r="14.4" fill="#e26f46" fill-rule="evenodd" fill-opacity="1" stroke="#000000" stroke-opacity="1" stroke-width="3.2"/>
<circle clip-path="url(#clip802)" cx="1592.29" cy="672.799" r="14.4" fill="#e26f46" fill-rule="evenodd" fill-opacity="1" stroke="#000000" stroke-opacity="1" stroke-width="3.2"/>
<circle clip-path="url(#clip802)" cx="1469.42" cy="1195.82" r="14.4" fill="#e26f46" fill-rule="evenodd" fill-opacity="1" stroke="#000000" stroke-opacity="1" stroke-width="3.2"/>
<circle clip-path="url(#clip802)" cx="348.82" cy="693.323" r="14.4" fill="#e26f46" fill-rule="evenodd" fill-opacity="1" stroke="#000000" stroke-opacity="1" stroke-width="3.2"/>
<circle clip-path="url(#clip802)" cx="720.983" cy="83.3518" r="14.4" fill="#e26f46" fill-rule="evenodd" fill-opacity="1" stroke="#000000" stroke-opacity="1" stroke-width="3.2"/>
<circle clip-path="url(#clip802)" cx="2030.15" cy="543.468" r="14.4" fill="#e26f46" fill-rule="evenodd" fill-opacity="1" stroke="#000000" stroke-opacity="1" stroke-width="3.2"/>
<circle clip-path="url(#clip802)" cx="1565.59" cy="1349.74" r="14.4" fill="#e26f46" fill-rule="evenodd" fill-opacity="1" stroke="#000000" stroke-opacity="1" stroke-width="3.2"/>
<circle clip-path="url(#clip802)" cx="1394.04" cy="839.699" r="14.4" fill="#e26f46" fill-rule="evenodd" fill-opacity="1" stroke="#000000" stroke-opacity="1" stroke-width="3.2"/>
<circle clip-path="url(#clip802)" cx="930.559" cy="120.312" r="14.4" fill="#e26f46" fill-rule="evenodd" fill-opacity="1" stroke="#000000" stroke-opacity="1" stroke-width="3.2"/>
<circle clip-path="url(#clip802)" cx="1693.7" cy="594.306" r="14.4" fill="#e26f46" fill-rule="evenodd" fill-opacity="1" stroke="#000000" stroke-opacity="1" stroke-width="3.2"/>
<circle clip-path="url(#clip802)" cx="1810.35" cy="1313.01" r="14.4" fill="#e26f46" fill-rule="evenodd" fill-opacity="1" stroke="#000000" stroke-opacity="1" stroke-width="3.2"/>
<circle clip-path="url(#clip802)" cx="1753.84" cy="1001.3" r="14.4" fill="#e26f46" fill-rule="evenodd" fill-opacity="1" stroke="#000000" stroke-opacity="1" stroke-width="3.2"/>
<circle clip-path="url(#clip802)" cx="1406.64" cy="583.445" r="14.4" fill="#e26f46" fill-rule="evenodd" fill-opacity="1" stroke="#000000" stroke-opacity="1" stroke-width="3.2"/>
<circle clip-path="url(#clip802)" cx="2202.33" cy="504.388" r="14.4" fill="#e26f46" fill-rule="evenodd" fill-opacity="1" stroke="#000000" stroke-opacity="1" stroke-width="3.2"/>
<circle clip-path="url(#clip802)" cx="1823.65" cy="159.521" r="14.4" fill="#e26f46" fill-rule="evenodd" fill-opacity="1" stroke="#000000" stroke-opacity="1" stroke-width="3.2"/>
<circle clip-path="url(#clip802)" cx="2149.8" cy="516.386" r="14.4" fill="#e26f46" fill-rule="evenodd" fill-opacity="1" stroke="#000000" stroke-opacity="1" stroke-width="3.2"/>
<circle clip-path="url(#clip802)" cx="885.373" cy="490.905" r="14.4" fill="#e26f46" fill-rule="evenodd" fill-opacity="1" stroke="#000000" stroke-opacity="1" stroke-width="3.2"/>
<circle clip-path="url(#clip802)" cx="562.703" cy="92.978" r="14.4" fill="#e26f46" fill-rule="evenodd" fill-opacity="1" stroke="#000000" stroke-opacity="1" stroke-width="3.2"/>
<circle clip-path="url(#clip802)" cx="1452.86" cy="310.07" r="14.4" fill="#e26f46" fill-rule="evenodd" fill-opacity="1" stroke="#000000" stroke-opacity="1" stroke-width="3.2"/>
<circle clip-path="url(#clip802)" cx="2352.76" cy="1048.67" r="14.4" fill="#e26f46" fill-rule="evenodd" fill-opacity="1" stroke="#000000" stroke-opacity="1" stroke-width="3.2"/>
<circle clip-path="url(#clip802)" cx="670.631" cy="345.262" r="14.4" fill="#e26f46" fill-rule="evenodd" fill-opacity="1" stroke="#000000" stroke-opacity="1" stroke-width="3.2"/>
<circle clip-path="url(#clip802)" cx="2000.02" cy="155.366" r="14.4" fill="#e26f46" fill-rule="evenodd" fill-opacity="1" stroke="#000000" stroke-opacity="1" stroke-width="3.2"/>
<circle clip-path="url(#clip802)" cx="1770.8" cy="117.009" r="14.4" fill="#e26f46" fill-rule="evenodd" fill-opacity="1" stroke="#000000" stroke-opacity="1" stroke-width="3.2"/>
<circle clip-path="url(#clip802)" cx="1547.3" cy="719.772" r="14.4" fill="#e26f46" fill-rule="evenodd" fill-opacity="1" stroke="#000000" stroke-opacity="1" stroke-width="3.2"/>
<circle clip-path="url(#clip802)" cx="805.05" cy="346.239" r="14.4" fill="#e26f46" fill-rule="evenodd" fill-opacity="1" stroke="#000000" stroke-opacity="1" stroke-width="3.2"/>
<circle clip-path="url(#clip802)" cx="1869.49" cy="1315.08" r="14.4" fill="#e26f46" fill-rule="evenodd" fill-opacity="1" stroke="#000000" stroke-opacity="1" stroke-width="3.2"/>
<circle clip-path="url(#clip802)" cx="2334.35" cy="696.884" r="14.4" fill="#e26f46" fill-rule="evenodd" fill-opacity="1" stroke="#000000" stroke-opacity="1" stroke-width="3.2"/>
<circle clip-path="url(#clip802)" cx="2262.12" cy="1311.05" r="14.4" fill="#e26f46" fill-rule="evenodd" fill-opacity="1" stroke="#000000" stroke-opacity="1" stroke-width="3.2"/>
<circle clip-path="url(#clip802)" cx="1400.72" cy="181.373" r="14.4" fill="#e26f46" fill-rule="evenodd" fill-opacity="1" stroke="#000000" stroke-opacity="1" stroke-width="3.2"/>
<circle clip-path="url(#clip802)" cx="1999.55" cy="332.653" r="14.4" fill="#e26f46" fill-rule="evenodd" fill-opacity="1" stroke="#000000" stroke-opacity="1" stroke-width="3.2"/>
<circle clip-path="url(#clip802)" cx="802.183" cy="505.174" r="14.4" fill="#e26f46" fill-rule="evenodd" fill-opacity="1" stroke="#000000" stroke-opacity="1" stroke-width="3.2"/>
<circle clip-path="url(#clip802)" cx="1615.11" cy="522.562" r="14.4" fill="#e26f46" fill-rule="evenodd" fill-opacity="1" stroke="#000000" stroke-opacity="1" stroke-width="3.2"/>
<circle clip-path="url(#clip802)" cx="2351.82" cy="527.685" r="14.4" fill="#e26f46" fill-rule="evenodd" fill-opacity="1" stroke="#000000" stroke-opacity="1" stroke-width="3.2"/>
<circle clip-path="url(#clip802)" cx="2156.28" cy="550.871" r="14.4" fill="#e26f46" fill-rule="evenodd" fill-opacity="1" stroke="#000000" stroke-opacity="1" stroke-width="3.2"/>
<circle clip-path="url(#clip802)" cx="1102.58" cy="306.566" r="14.4" fill="#e26f46" fill-rule="evenodd" fill-opacity="1" stroke="#000000" stroke-opacity="1" stroke-width="3.2"/>
<circle clip-path="url(#clip802)" cx="2289.73" cy="1222.77" r="14.4" fill="#e26f46" fill-rule="evenodd" fill-opacity="1" stroke="#000000" stroke-opacity="1" stroke-width="3.2"/>
<circle clip-path="url(#clip802)" cx="1582.38" cy="392.284" r="14.4" fill="#e26f46" fill-rule="evenodd" fill-opacity="1" stroke="#000000" stroke-opacity="1" stroke-width="3.2"/>
<circle clip-path="url(#clip802)" cx="2126.44" cy="1210.31" r="14.4" fill="#e26f46" fill-rule="evenodd" fill-opacity="1" stroke="#000000" stroke-opacity="1" stroke-width="3.2"/>
<circle clip-path="url(#clip802)" cx="2121.33" cy="798.445" r="14.4" fill="#e26f46" fill-rule="evenodd" fill-opacity="1" stroke="#000000" stroke-opacity="1" stroke-width="3.2"/>
<circle clip-path="url(#clip802)" cx="1738.26" cy="372.016" r="14.4" fill="#e26f46" fill-rule="evenodd" fill-opacity="1" stroke="#000000" stroke-opacity="1" stroke-width="3.2"/>
<circle clip-path="url(#clip802)" cx="451.878" cy="404.337" r="14.4" fill="#e26f46" fill-rule="evenodd" fill-opacity="1" stroke="#000000" stroke-opacity="1" stroke-width="3.2"/>
<circle clip-path="url(#clip802)" cx="2122.21" cy="1303.39" r="14.4" fill="#e26f46" fill-rule="evenodd" fill-opacity="1" stroke="#000000" stroke-opacity="1" stroke-width="3.2"/>
<circle clip-path="url(#clip802)" cx="1268.52" cy="419.721" r="14.4" fill="#e26f46" fill-rule="evenodd" fill-opacity="1" stroke="#000000" stroke-opacity="1" stroke-width="3.2"/>
<circle clip-path="url(#clip802)" cx="1711.53" cy="647.952" r="14.4" fill="#e26f46" fill-rule="evenodd" fill-opacity="1" stroke="#000000" stroke-opacity="1" stroke-width="3.2"/>
<circle clip-path="url(#clip802)" cx="564.09" cy="353.247" r="14.4" fill="#e26f46" fill-rule="evenodd" fill-opacity="1" stroke="#000000" stroke-opacity="1" stroke-width="3.2"/>
<circle clip-path="url(#clip802)" cx="1686.66" cy="858.504" r="14.4" fill="#e26f46" fill-rule="evenodd" fill-opacity="1" stroke="#000000" stroke-opacity="1" stroke-width="3.2"/>
<circle clip-path="url(#clip802)" cx="750.059" cy="156.066" r="14.4" fill="#e26f46" fill-rule="evenodd" fill-opacity="1" stroke="#000000" stroke-opacity="1" stroke-width="3.2"/>
<circle clip-path="url(#clip802)" cx="1715.13" cy="1010.82" r="14.4" fill="#e26f46" fill-rule="evenodd" fill-opacity="1" stroke="#000000" stroke-opacity="1" stroke-width="3.2"/>
<path clip-path="url(#clip800)" d="M1940.71 440.581 L2285.07 440.581 L2285.07 90.6606 L1940.71 90.6606  Z" fill="#ffffff" fill-rule="evenodd" fill-opacity="1"/>
<polyline clip-path="url(#clip800)" style="stroke:#000000; stroke-linecap:round; stroke-linejoin:round; stroke-width:4; stroke-opacity:1; fill:none" points="1940.71,440.581 2285.07,440.581 2285.07,90.6606 1940.71,90.6606 1940.71,440.581 "/>
<circle clip-path="url(#clip800)" cx="2030.96" cy="207.301" r="46.08" fill="#009af9" fill-rule="evenodd" fill-opacity="1" stroke="#000000" stroke-opacity="1" stroke-width="10.24"/>
<path clip-path="url(#clip800)" d="M2121.21 207.831 Q2121.21 194.04 2124.02 185.659 Q2126.88 177.226 2132.45 172.664 Q2138.07 168.102 2146.56 168.102 Q2152.82 168.102 2157.54 170.648 Q2162.26 173.141 2165.34 177.915 Q2168.41 182.636 2170.16 189.478 Q2171.91 196.268 2171.91 207.831 Q2171.91 221.516 2169.1 229.95 Q2166.29 238.33 2160.67 242.945 Q2155.1 247.507 2146.56 247.507 Q2135.31 247.507 2128.9 239.444 Q2121.21 229.738 2121.21 207.831 M2131.02 207.831 Q2131.02 226.979 2135.47 233.344 Q2139.98 239.656 2146.56 239.656 Q2153.14 239.656 2157.59 233.291 Q2162.1 226.926 2162.1 207.831 Q2162.1 188.63 2157.59 182.318 Q2153.14 176.006 2146.45 176.006 Q2139.88 176.006 2135.95 181.575 Q2131.02 188.683 2131.02 207.831 Z" fill="#000000" fill-rule="nonzero" fill-opacity="1" /><path clip-path="url(#clip800)" d="M2186.98 246.181 L2186.98 235.307 L2197.85 235.307 L2197.85 246.181 L2186.98 246.181 Z" fill="#000000" fill-rule="nonzero" fill-opacity="1" /><path clip-path="url(#clip800)" d="M2211.8 207.831 Q2211.8 194.04 2214.61 185.659 Q2217.48 177.226 2223.05 172.664 Q2228.67 168.102 2237.16 168.102 Q2243.42 168.102 2248.14 170.648 Q2252.86 173.141 2255.93 177.915 Q2259.01 182.636 2260.76 189.478 Q2262.51 196.268 2262.51 207.831 Q2262.51 221.516 2259.7 229.95 Q2256.89 238.33 2251.27 242.945 Q2245.7 247.507 2237.16 247.507 Q2225.91 247.507 2219.49 239.444 Q2211.8 229.738 2211.8 207.831 M2221.61 207.831 Q2221.61 226.979 2226.07 233.344 Q2230.58 239.656 2237.16 239.656 Q2243.73 239.656 2248.19 233.291 Q2252.7 226.926 2252.7 207.831 Q2252.7 188.63 2248.19 182.318 Q2243.73 176.006 2237.05 176.006 Q2230.47 176.006 2226.55 181.575 Q2221.61 188.683 2221.61 207.831 Z" fill="#000000" fill-rule="nonzero" fill-opacity="1" /><circle clip-path="url(#clip800)" cx="2030.96" cy="323.941" r="46.08" fill="#e26f46" fill-rule="evenodd" fill-opacity="1" stroke="#000000" stroke-opacity="1" stroke-width="10.24"/>
<path clip-path="url(#clip800)" d="M2149.85 362.821 L2140.3 362.821 L2140.3 301.981 Q2136.85 305.27 2131.23 308.558 Q2125.66 311.847 2121.21 313.491 L2121.21 304.262 Q2129.21 300.496 2135.21 295.139 Q2141.2 289.781 2143.7 284.742 L2149.85 284.742 L2149.85 362.821 Z" fill="#000000" fill-rule="nonzero" fill-opacity="1" /><path clip-path="url(#clip800)" d="M2179.66 362.821 L2179.66 351.947 L2190.53 351.947 L2190.53 362.821 L2179.66 362.821 Z" fill="#000000" fill-rule="nonzero" fill-opacity="1" /><path clip-path="url(#clip800)" d="M2204.48 324.471 Q2204.48 310.68 2207.29 302.299 Q2210.16 293.866 2215.73 289.304 Q2221.35 284.742 2229.84 284.742 Q2236.1 284.742 2240.82 287.288 Q2245.54 289.781 2248.61 294.555 Q2251.69 299.276 2253.44 306.118 Q2255.19 312.908 2255.19 324.471 Q2255.19 338.156 2252.38 346.59 Q2249.57 354.97 2243.95 359.585 Q2238.38 364.147 2229.84 364.147 Q2218.59 364.147 2212.17 356.084 Q2204.48 346.378 2204.48 324.471 M2214.29 324.471 Q2214.29 343.619 2218.75 349.984 Q2223.26 356.296 2229.84 356.296 Q2236.41 356.296 2240.87 349.931 Q2245.38 343.566 2245.38 324.471 Q2245.38 305.27 2240.87 298.958 Q2236.41 292.646 2229.73 292.646 Q2223.15 292.646 2219.23 298.215 Q2214.29 305.323 2214.29 324.471 Z" fill="#000000" fill-rule="nonzero" fill-opacity="1" /></svg>
