<?xml version="1.0" encoding="utf-8"?>
<svg xmlns="http://www.w3.org/2000/svg" xmlns:xlink="http://www.w3.org/1999/xlink" width="600" height="400" viewBox="0 0 2400 1600">
<defs>
  <clipPath id="clip400">
    <rect x="0" y="0" width="2400" height="1600"/>
  </clipPath>
</defs>
<path clip-path="url(#clip400)" d="M0 1600 L2400 1600 L2400 8.88178e-14 L0 8.88178e-14  Z" fill="#ffffff" fill-rule="evenodd" fill-opacity="1"/>
<defs>
  <clipPath id="clip401">
    <rect x="480" y="0" width="1681" height="1600"/>
  </clipPath>
</defs>
<path clip-path="url(#clip400)" d="M382.644 1349.74 L2352.76 1349.74 L2352.76 47.2441 L382.644 47.2441  Z" fill="#ffffff" fill-rule="evenodd" fill-opacity="1"/>
<defs>
  <clipPath id="clip402">
    <rect x="382" y="47" width="1971" height="1303"/>
  </clipPath>
</defs>
<polyline clip-path="url(#clip400)" style="stroke:#000000; stroke-linecap:round; stroke-linejoin:round; stroke-width:4; stroke-opacity:1; fill:none" points="382.644,1349.74 2352.76,1349.74 "/>
<polyline clip-path="url(#clip400)" style="stroke:#000000; stroke-linecap:round; stroke-linejoin:round; stroke-width:2; stroke-opacity:0.5; fill:none" points="382.644,47.2441 2352.76,47.2441 "/>
<polyline clip-path="url(#clip400)" style="stroke:#000000; stroke-linecap:round; stroke-linejoin:round; stroke-width:4; stroke-opacity:1; fill:none" points="797.405,1349.74 797.405,1330.84 "/>
<polyline clip-path="url(#clip400)" style="stroke:#000000; stroke-linecap:round; stroke-linejoin:round; stroke-width:4; stroke-opacity:1; fill:none" points="1315.86,1349.74 1315.86,1330.84 "/>
<polyline clip-path="url(#clip400)" style="stroke:#000000; stroke-linecap:round; stroke-linejoin:round; stroke-width:4; stroke-opacity:1; fill:none" points="1834.31,1349.74 1834.31,1330.84 "/>
<polyline clip-path="url(#clip400)" style="stroke:#000000; stroke-linecap:round; stroke-linejoin:round; stroke-width:4; stroke-opacity:1; fill:none" points="2352.76,1349.74 2352.76,1330.84 "/>
<path clip-path="url(#clip400)" d="M771.626 1445.77 L781.651 1444.92 Q782.765 1452.24 786.796 1455.96 Q790.88 1459.62 796.609 1459.62 Q803.505 1459.62 808.278 1454.42 Q813.052 1449.22 813.052 1440.63 Q813.052 1432.46 808.437 1427.74 Q803.876 1423.02 796.45 1423.02 Q791.835 1423.02 788.122 1425.14 Q784.409 1427.21 782.288 1430.55 L773.323 1429.38 L780.855 1389.44 L819.523 1389.44 L819.523 1398.56 L788.494 1398.56 L784.303 1419.46 Q791.305 1414.58 798.996 1414.58 Q809.18 1414.58 816.182 1421.64 Q823.183 1428.69 823.183 1439.78 Q823.183 1450.33 817.03 1458.02 Q809.551 1467.47 796.609 1467.47 Q786.001 1467.47 779.264 1461.53 Q772.581 1455.58 771.626 1445.77 Z" fill="#000000" fill-rule="nonzero" fill-opacity="1" /><path clip-path="url(#clip400)" d="M1292.6 1466.14 L1283.05 1466.14 L1283.05 1405.3 Q1279.6 1408.59 1273.98 1411.88 Q1268.41 1415.17 1263.95 1416.81 L1263.95 1407.58 Q1271.96 1403.82 1277.96 1398.46 Q1283.95 1393.1 1286.44 1388.06 L1292.6 1388.06 L1292.6 1466.14 Z" fill="#000000" fill-rule="nonzero" fill-opacity="1" /><path clip-path="url(#clip400)" d="M1317.05 1427.79 Q1317.05 1414 1319.86 1405.62 Q1322.72 1397.18 1328.29 1392.62 Q1333.92 1388.06 1342.4 1388.06 Q1348.66 1388.06 1353.38 1390.61 Q1358.1 1393.1 1361.18 1397.87 Q1364.26 1402.6 1366.01 1409.44 Q1367.76 1416.23 1367.76 1427.79 Q1367.76 1441.48 1364.95 1449.91 Q1362.13 1458.29 1356.51 1462.9 Q1350.94 1467.47 1342.4 1467.47 Q1331.16 1467.47 1324.74 1459.4 Q1317.05 1449.7 1317.05 1427.79 M1326.86 1427.79 Q1326.86 1446.94 1331.32 1453.3 Q1335.83 1459.62 1342.4 1459.62 Q1348.98 1459.62 1353.44 1453.25 Q1357.94 1446.89 1357.94 1427.79 Q1357.94 1408.59 1353.44 1402.28 Q1348.98 1395.96 1342.3 1395.96 Q1335.72 1395.96 1331.79 1401.53 Q1326.86 1408.64 1326.86 1427.79 Z" fill="#000000" fill-rule="nonzero" fill-opacity="1" /><path clip-path="url(#clip400)" d="M1810.62 1466.14 L1801.07 1466.14 L1801.07 1405.3 Q1797.63 1408.59 1792 1411.88 Q1786.43 1415.17 1781.98 1416.81 L1781.98 1407.58 Q1789.99 1403.82 1795.98 1398.46 Q1801.98 1393.1 1804.47 1388.06 L1810.62 1388.06 L1810.62 1466.14 Z" fill="#000000" fill-rule="nonzero" fill-opacity="1" /><path clip-path="url(#clip400)" d="M1835.07 1445.77 L1845.1 1444.92 Q1846.21 1452.24 1850.24 1455.96 Q1854.33 1459.62 1860.06 1459.62 Q1866.95 1459.62 1871.73 1454.42 Q1876.5 1449.22 1876.5 1440.63 Q1876.5 1432.46 1871.89 1427.74 Q1867.32 1423.02 1859.9 1423.02 Q1855.28 1423.02 1851.57 1425.14 Q1847.86 1427.21 1845.74 1430.55 L1836.77 1429.38 L1844.3 1389.44 L1882.97 1389.44 L1882.97 1398.56 L1851.94 1398.56 L1847.75 1419.46 Q1854.75 1414.58 1862.44 1414.58 Q1872.63 1414.58 1879.63 1421.64 Q1886.63 1428.69 1886.63 1439.78 Q1886.63 1450.33 1880.48 1458.02 Q1873 1467.47 1860.06 1467.47 Q1849.45 1467.47 1842.71 1461.53 Q1836.03 1455.58 1835.07 1445.77 Z" fill="#000000" fill-rule="nonzero" fill-opacity="1" /><path clip-path="url(#clip400)" d="M2348.04 1456.96 L2348.04 1466.14 L2296.64 1466.14 Q2296.53 1462.69 2297.75 1459.51 Q2299.71 1454.26 2304.01 1449.17 Q2308.36 1444.07 2316.53 1437.39 Q2329.21 1426.99 2333.66 1420.95 Q2338.12 1414.85 2338.12 1409.44 Q2338.12 1403.76 2334.03 1399.89 Q2330 1395.96 2323.48 1395.96 Q2316.58 1395.96 2312.44 1400.1 Q2308.31 1404.24 2308.25 1411.56 L2298.44 1410.55 Q2299.45 1399.57 2306.03 1393.84 Q2312.6 1388.06 2323.69 1388.06 Q2334.88 1388.06 2341.4 1394.27 Q2347.93 1400.47 2347.93 1409.65 Q2347.93 1414.32 2346.02 1418.83 Q2344.11 1423.33 2339.65 1428.32 Q2335.25 1433.31 2324.96 1442.01 Q2316.37 1449.22 2313.93 1451.82 Q2311.49 1454.36 2309.9 1456.96 L2348.04 1456.96 Z" fill="#000000" fill-rule="nonzero" fill-opacity="1" /><path clip-path="url(#clip400)" d="M2358.27 1427.79 Q2358.27 1414 2361.08 1405.62 Q2363.95 1397.18 2369.52 1392.62 Q2375.14 1388.06 2383.63 1388.06 Q2389.89 1388.06 2394.61 1390.61 Q2399.33 1393.1 2402.4 1397.87 Q2405.48 1402.6 2407.23 1409.44 Q2408.98 1416.23 2408.98 1427.79 Q2408.98 1441.48 2406.17 1449.91 Q2403.36 1458.29 2397.74 1462.9 Q2392.17 1467.47 2383.63 1467.47 Q2372.38 1467.47 2365.96 1459.4 Q2358.27 1449.7 2358.27 1427.79 M2368.09 1427.79 Q2368.09 1446.94 2372.54 1453.3 Q2377.05 1459.62 2383.63 1459.62 Q2390.2 1459.62 2394.66 1453.25 Q2399.17 1446.89 2399.17 1427.79 Q2399.17 1408.59 2394.66 1402.28 Q2390.2 1395.96 2383.52 1395.96 Q2376.94 1395.96 2373.02 1401.53 Q2368.09 1408.64 2368.09 1427.79 Z" fill="#000000" fill-rule="nonzero" fill-opacity="1" /><path clip-path="url(#clip400)" d="M1267.13 1577.55 L1277 1578.77 Q1274.66 1587.42 1268.35 1592.19 Q1262.04 1596.96 1252.23 1596.96 Q1239.87 1596.96 1232.6 1589.38 Q1225.39 1581.74 1225.39 1568 Q1225.39 1553.79 1232.71 1545.94 Q1240.03 1538.09 1251.7 1538.09 Q1262.99 1538.09 1270.16 1545.78 Q1277.32 1553.47 1277.32 1567.42 Q1277.32 1568.27 1277.26 1569.97 L1235.25 1569.97 Q1235.78 1579.25 1240.5 1584.18 Q1245.23 1589.11 1252.28 1589.11 Q1257.53 1589.11 1261.24 1586.36 Q1264.96 1583.6 1267.13 1577.55 M1235.78 1562.12 L1267.24 1562.12 Q1266.6 1555.01 1263.63 1551.45 Q1259.07 1545.94 1251.8 1545.94 Q1245.23 1545.94 1240.72 1550.34 Q1236.26 1554.74 1235.78 1562.12 Z" fill="#000000" fill-rule="nonzero" fill-opacity="1" /><path clip-path="url(#clip400)" d="M1288.99 1617.28 L1288.99 1539.36 L1297.68 1539.36 L1297.68 1546.68 Q1300.76 1542.38 1304.63 1540.26 Q1308.5 1538.09 1314.02 1538.09 Q1321.24 1538.09 1326.75 1541.8 Q1332.27 1545.51 1335.08 1552.3 Q1337.89 1559.04 1337.89 1567.1 Q1337.89 1575.75 1334.76 1582.7 Q1331.68 1589.59 1325.74 1593.3 Q1319.86 1596.96 1313.33 1596.96 Q1308.56 1596.96 1304.74 1594.95 Q1300.97 1592.93 1298.53 1589.86 L1298.53 1617.28 L1288.99 1617.28 M1297.63 1567.84 Q1297.63 1578.72 1302.03 1583.92 Q1306.44 1589.11 1312.7 1589.11 Q1319.06 1589.11 1323.57 1583.76 Q1328.13 1578.35 1328.13 1567.05 Q1328.13 1556.28 1323.68 1550.92 Q1319.27 1545.57 1313.12 1545.57 Q1307.02 1545.57 1302.3 1551.3 Q1297.63 1556.97 1297.63 1567.84 Z" fill="#000000" fill-rule="nonzero" fill-opacity="1" /><path clip-path="url(#clip400)" d="M1345.85 1567.53 Q1345.85 1551.88 1354.55 1544.35 Q1361.81 1538.09 1372.26 1538.09 Q1383.88 1538.09 1391.25 1545.73 Q1398.62 1553.31 1398.62 1566.73 Q1398.62 1577.6 1395.34 1583.86 Q1392.1 1590.07 1385.84 1593.52 Q1379.63 1596.96 1372.26 1596.96 Q1360.43 1596.96 1353.11 1589.38 Q1345.85 1581.79 1345.85 1567.53 M1355.66 1567.53 Q1355.66 1578.35 1360.38 1583.76 Q1365.1 1589.11 1372.26 1589.11 Q1379.37 1589.11 1384.09 1583.7 Q1388.81 1578.29 1388.81 1567.21 Q1388.81 1556.76 1384.04 1551.4 Q1379.32 1545.99 1372.26 1545.99 Q1365.1 1545.99 1360.38 1551.35 Q1355.66 1556.71 1355.66 1567.53 Z" fill="#000000" fill-rule="nonzero" fill-opacity="1" /><path clip-path="url(#clip400)" d="M1446.57 1575.06 L1455.96 1576.28 Q1454.42 1585.99 1448.06 1591.5 Q1441.75 1596.96 1432.52 1596.96 Q1420.95 1596.96 1413.9 1589.43 Q1406.9 1581.85 1406.9 1567.74 Q1406.9 1558.62 1409.92 1551.77 Q1412.95 1544.93 1419.1 1541.54 Q1425.3 1538.09 1432.57 1538.09 Q1441.75 1538.09 1447.58 1542.76 Q1453.42 1547.37 1455.06 1555.91 L1445.78 1557.34 Q1444.45 1551.67 1441.06 1548.8 Q1437.72 1545.94 1432.94 1545.94 Q1425.73 1545.94 1421.22 1551.14 Q1416.71 1556.28 1416.71 1567.47 Q1416.71 1578.82 1421.06 1583.97 Q1425.41 1589.11 1432.41 1589.11 Q1438.03 1589.11 1441.8 1585.67 Q1445.57 1582.22 1446.57 1575.06 Z" fill="#000000" fill-rule="nonzero" fill-opacity="1" /><path clip-path="url(#clip400)" d="M1464.13 1595.69 L1464.13 1517.93 L1473.68 1517.93 L1473.68 1545.83 Q1480.36 1538.09 1490.55 1538.09 Q1496.81 1538.09 1501.42 1540.58 Q1506.03 1543.02 1508 1547.37 Q1510.01 1551.72 1510.01 1559.99 L1510.01 1595.69 L1500.46 1595.69 L1500.46 1559.99 Q1500.46 1552.83 1497.34 1549.6 Q1494.26 1546.31 1488.58 1546.31 Q1484.34 1546.31 1480.57 1548.54 Q1476.86 1550.71 1475.27 1554.48 Q1473.68 1558.24 1473.68 1564.87 L1473.68 1595.69 L1464.13 1595.69 Z" fill="#000000" fill-rule="nonzero" fill-opacity="1" /><polyline clip-path="url(#clip400)" style="stroke:#000000; stroke-linecap:round; stroke-linejoin:round; stroke-width:4; stroke-opacity:1; fill:none" points="382.644,1349.74 382.644,47.2441 "/>
<polyline clip-path="url(#clip400)" style="stroke:#000000; stroke-linecap:round; stroke-linejoin:round; stroke-width:2; stroke-opacity:0.5; fill:none" points="2352.76,1349.74 2352.76,47.2441 "/>
<polyline clip-path="url(#clip400)" style="stroke:#000000; stroke-linecap:round; stroke-linejoin:round; stroke-width:4; stroke-opacity:1; fill:none" points="382.644,1207.93 401.542,1207.93 "/>
<polyline clip-path="url(#clip400)" style="stroke:#000000; stroke-linecap:round; stroke-linejoin:round; stroke-width:4; stroke-opacity:1; fill:none" points="382.644,934.425 401.542,934.425 "/>
<polyline clip-path="url(#clip400)" style="stroke:#000000; stroke-linecap:round; stroke-linejoin:round; stroke-width:4; stroke-opacity:1; fill:none" points="382.644,660.921 401.542,660.921 "/>
<polyline clip-path="url(#clip400)" style="stroke:#000000; stroke-linecap:round; stroke-linejoin:round; stroke-width:4; stroke-opacity:1; fill:none" points="382.644,387.417 401.542,387.417 "/>
<polyline clip-path="url(#clip400)" style="stroke:#000000; stroke-linecap:round; stroke-linejoin:round; stroke-width:4; stroke-opacity:1; fill:none" points="382.644,113.913 401.542,113.913 "/>
<path clip-path="url(#clip400)" d="M144.712 1208.46 Q144.712 1194.67 147.524 1186.29 Q150.388 1177.85 155.957 1173.29 Q161.58 1168.73 170.067 1168.73 Q176.326 1168.73 181.046 1171.28 Q185.767 1173.77 188.844 1178.54 Q191.92 1183.26 193.67 1190.11 Q195.421 1196.9 195.421 1208.46 Q195.421 1222.14 192.61 1230.58 Q189.798 1238.96 184.176 1243.57 Q178.606 1248.14 170.067 1248.14 Q158.822 1248.14 152.403 1240.07 Q144.712 1230.37 144.712 1208.46 M154.525 1208.46 Q154.525 1227.61 158.981 1233.97 Q163.489 1240.28 170.067 1240.28 Q176.644 1240.28 181.099 1233.92 Q185.608 1227.55 185.608 1208.46 Q185.608 1189.26 181.099 1182.95 Q176.644 1176.63 169.96 1176.63 Q163.383 1176.63 159.458 1182.2 Q154.525 1189.31 154.525 1208.46 Z" fill="#000000" fill-rule="nonzero" fill-opacity="1" /><path clip-path="url(#clip400)" d="M210.485 1246.81 L210.485 1235.94 L221.358 1235.94 L221.358 1246.81 L210.485 1246.81 Z" fill="#000000" fill-rule="nonzero" fill-opacity="1" /><path clip-path="url(#clip400)" d="M235.309 1208.46 Q235.309 1194.67 238.12 1186.29 Q240.984 1177.85 246.554 1173.29 Q252.176 1168.73 260.663 1168.73 Q266.922 1168.73 271.643 1171.28 Q276.363 1173.77 279.44 1178.54 Q282.516 1183.26 284.267 1190.11 Q286.017 1196.9 286.017 1208.46 Q286.017 1222.14 283.206 1230.58 Q280.395 1238.96 274.772 1243.57 Q269.203 1248.14 260.663 1248.14 Q249.418 1248.14 243 1240.07 Q235.309 1230.37 235.309 1208.46 M245.121 1208.46 Q245.121 1227.61 249.577 1233.97 Q254.086 1240.28 260.663 1240.28 Q267.24 1240.28 271.696 1233.92 Q276.204 1227.55 276.204 1208.46 Q276.204 1189.26 271.696 1182.95 Q267.24 1176.63 260.557 1176.63 Q253.979 1176.63 250.054 1182.2 Q245.121 1189.31 245.121 1208.46 Z" fill="#000000" fill-rule="nonzero" fill-opacity="1" /><path clip-path="url(#clip400)" d="M345.265 1188.09 L335.771 1188.83 Q334.498 1183.21 332.164 1180.67 Q328.292 1176.58 322.616 1176.58 Q318.055 1176.58 314.607 1179.13 Q310.098 1182.42 307.499 1188.73 Q304.9 1195.04 304.794 1206.71 Q308.242 1201.46 313.228 1198.91 Q318.214 1196.37 323.677 1196.37 Q333.225 1196.37 339.908 1203.42 Q346.644 1210.42 346.644 1221.56 Q346.644 1228.88 343.462 1235.19 Q340.332 1241.45 334.816 1244.79 Q329.3 1248.14 322.298 1248.14 Q310.363 1248.14 302.831 1239.38 Q295.299 1230.58 295.299 1210.42 Q295.299 1187.88 303.627 1177.64 Q310.894 1168.73 323.2 1168.73 Q332.376 1168.73 338.211 1173.88 Q344.098 1179.02 345.265 1188.09 M306.279 1221.61 Q306.279 1226.55 308.348 1231.06 Q310.469 1235.56 314.235 1237.95 Q318.001 1240.28 322.139 1240.28 Q328.186 1240.28 332.535 1235.41 Q336.885 1230.53 336.885 1222.14 Q336.885 1214.08 332.588 1209.47 Q328.292 1204.8 321.767 1204.8 Q315.296 1204.8 310.788 1209.47 Q306.279 1214.08 306.279 1221.61 Z" fill="#000000" fill-rule="nonzero" fill-opacity="1" /><path clip-path="url(#clip400)" d="M144.5 934.955 Q144.5 921.164 147.311 912.784 Q150.176 904.35 155.745 899.788 Q161.368 895.227 169.854 895.227 Q176.113 895.227 180.834 897.773 Q185.555 900.266 188.631 905.04 Q191.708 909.76 193.458 916.603 Q195.209 923.392 195.209 934.955 Q195.209 948.64 192.397 957.074 Q189.586 965.455 183.964 970.069 Q178.394 974.631 169.854 974.631 Q158.609 974.631 152.191 966.569 Q144.5 956.862 144.5 934.955 M154.313 934.955 Q154.313 954.104 158.769 960.469 Q163.277 966.781 169.854 966.781 Q176.432 966.781 180.887 960.416 Q185.396 954.051 185.396 934.955 Q185.396 915.754 180.887 909.442 Q176.432 903.13 169.748 903.13 Q163.171 903.13 159.246 908.7 Q154.313 915.807 154.313 934.955 Z" fill="#000000" fill-rule="nonzero" fill-opacity="1" /><path clip-path="url(#clip400)" d="M210.273 973.305 L210.273 962.431 L221.146 962.431 L221.146 973.305 L210.273 973.305 Z" fill="#000000" fill-rule="nonzero" fill-opacity="1" /><path clip-path="url(#clip400)" d="M235.096 934.955 Q235.096 921.164 237.908 912.784 Q240.772 904.35 246.341 899.788 Q251.964 895.227 260.451 895.227 Q266.71 895.227 271.43 897.773 Q276.151 900.266 279.228 905.04 Q282.304 909.76 284.054 916.603 Q285.805 923.392 285.805 934.955 Q285.805 948.64 282.994 957.074 Q280.182 965.455 274.56 970.069 Q268.99 974.631 260.451 974.631 Q249.206 974.631 242.788 966.569 Q235.096 956.862 235.096 934.955 M244.909 934.955 Q244.909 954.104 249.365 960.469 Q253.873 966.781 260.451 966.781 Q267.028 966.781 271.483 960.416 Q275.992 954.051 275.992 934.955 Q275.992 915.754 271.483 909.442 Q267.028 903.13 260.345 903.13 Q253.767 903.13 249.842 908.7 Q244.909 915.807 244.909 934.955 Z" fill="#000000" fill-rule="nonzero" fill-opacity="1" /><path clip-path="url(#clip400)" d="M310.204 931.136 Q304.264 928.962 301.399 924.93 Q298.535 920.899 298.535 915.277 Q298.535 906.79 304.635 901.008 Q310.735 895.227 320.866 895.227 Q331.05 895.227 337.256 901.168 Q343.462 907.055 343.462 915.542 Q343.462 920.952 340.598 924.984 Q337.786 928.962 332.005 931.136 Q339.165 933.47 342.878 938.668 Q346.644 943.867 346.644 951.08 Q346.644 961.052 339.59 967.842 Q332.535 974.631 321.025 974.631 Q309.515 974.631 302.46 967.842 Q295.405 960.999 295.405 950.815 Q295.405 943.23 299.225 938.138 Q303.097 932.993 310.204 931.136 M308.295 914.959 Q308.295 920.475 311.849 923.976 Q315.402 927.477 321.078 927.477 Q326.594 927.477 330.095 924.029 Q333.649 920.528 333.649 915.489 Q333.649 910.238 329.989 906.684 Q326.382 903.077 320.972 903.077 Q315.509 903.077 311.902 906.578 Q308.295 910.079 308.295 914.959 M305.218 950.868 Q305.218 954.952 307.128 958.771 Q309.09 962.591 312.909 964.712 Q316.728 966.781 321.131 966.781 Q327.973 966.781 332.429 962.378 Q336.885 957.976 336.885 951.186 Q336.885 944.291 332.27 939.782 Q327.708 935.274 320.813 935.274 Q314.076 935.274 309.621 939.729 Q305.218 944.185 305.218 950.868 Z" fill="#000000" fill-rule="nonzero" fill-opacity="1" /><path clip-path="url(#clip400)" d="M144.924 661.451 Q144.924 647.66 147.736 639.28 Q150.6 630.846 156.169 626.284 Q161.792 621.723 170.279 621.723 Q176.538 621.723 181.258 624.269 Q185.979 626.762 189.056 631.536 Q192.132 636.256 193.883 643.099 Q195.633 649.888 195.633 661.451 Q195.633 675.136 192.822 683.57 Q190.01 691.951 184.388 696.565 Q178.819 701.127 170.279 701.127 Q159.034 701.127 152.616 693.065 Q144.924 683.358 144.924 661.451 M154.737 661.451 Q154.737 680.6 159.193 686.965 Q163.701 693.277 170.279 693.277 Q176.856 693.277 181.312 686.912 Q185.82 680.547 185.82 661.451 Q185.82 642.25 181.312 635.938 Q176.856 629.626 170.173 629.626 Q163.595 629.626 159.67 635.195 Q154.737 642.303 154.737 661.451 Z" fill="#000000" fill-rule="nonzero" fill-opacity="1" /><path clip-path="url(#clip400)" d="M210.697 699.801 L210.697 688.927 L221.571 688.927 L221.571 699.801 L210.697 699.801 Z" fill="#000000" fill-rule="nonzero" fill-opacity="1" /><path clip-path="url(#clip400)" d="M271.483 699.801 L261.936 699.801 L261.936 638.961 Q258.488 642.25 252.866 645.539 Q247.296 648.827 242.841 650.472 L242.841 641.242 Q250.85 637.476 256.844 632.119 Q262.838 626.762 265.33 621.723 L271.483 621.723 L271.483 699.801 Z" fill="#000000" fill-rule="nonzero" fill-opacity="1" /><path clip-path="url(#clip400)" d="M295.936 661.451 Q295.936 647.66 298.747 639.28 Q301.611 630.846 307.181 626.284 Q312.803 621.723 321.29 621.723 Q327.549 621.723 332.27 624.269 Q336.991 626.762 340.067 631.536 Q343.144 636.256 344.894 643.099 Q346.644 649.888 346.644 661.451 Q346.644 675.136 343.833 683.57 Q341.022 691.951 335.399 696.565 Q329.83 701.127 321.29 701.127 Q310.045 701.127 303.627 693.065 Q295.936 683.358 295.936 661.451 M305.749 661.451 Q305.749 680.6 310.204 686.965 Q314.713 693.277 321.29 693.277 Q327.867 693.277 332.323 686.912 Q336.832 680.547 336.832 661.451 Q336.832 642.25 332.323 635.938 Q327.867 629.626 321.184 629.626 Q314.607 629.626 310.682 635.195 Q305.749 642.303 305.749 661.451 Z" fill="#000000" fill-rule="nonzero" fill-opacity="1" /><path clip-path="url(#clip400)" d="M145.455 387.947 Q145.455 374.156 148.266 365.776 Q151.13 357.342 156.7 352.78 Q162.322 348.219 170.809 348.219 Q177.068 348.219 181.789 350.765 Q186.51 353.258 189.586 358.032 Q192.663 362.752 194.413 369.595 Q196.163 376.384 196.163 387.947 Q196.163 401.632 193.352 410.066 Q190.541 418.447 184.918 423.061 Q179.349 427.623 170.809 427.623 Q159.564 427.623 153.146 419.561 Q145.455 409.854 145.455 387.947 M155.268 387.947 Q155.268 407.096 159.723 413.461 Q164.232 419.773 170.809 419.773 Q177.386 419.773 181.842 413.408 Q186.351 407.043 186.351 387.947 Q186.351 368.746 181.842 362.434 Q177.386 356.122 170.703 356.122 Q164.126 356.122 160.201 361.691 Q155.268 368.799 155.268 387.947 Z" fill="#000000" fill-rule="nonzero" fill-opacity="1" /><path clip-path="url(#clip400)" d="M211.227 426.297 L211.227 415.423 L222.101 415.423 L222.101 426.297 L211.227 426.297 Z" fill="#000000" fill-rule="nonzero" fill-opacity="1" /><path clip-path="url(#clip400)" d="M272.014 426.297 L262.466 426.297 L262.466 365.457 Q259.018 368.746 253.396 372.035 Q247.827 375.323 243.371 376.968 L243.371 367.738 Q251.38 363.972 257.374 358.615 Q263.368 353.258 265.861 348.219 L272.014 348.219 L272.014 426.297 Z" fill="#000000" fill-rule="nonzero" fill-opacity="1" /><path clip-path="url(#clip400)" d="M346.644 417.121 L346.644 426.297 L295.246 426.297 Q295.14 422.849 296.36 419.667 Q298.323 414.415 302.619 409.323 Q306.969 404.231 315.137 397.548 Q327.814 387.152 332.27 381.105 Q336.725 375.005 336.725 369.595 Q336.725 363.919 332.641 360.047 Q328.61 356.122 322.086 356.122 Q315.19 356.122 311.053 360.259 Q306.916 364.397 306.863 371.716 L297.05 370.709 Q298.058 359.729 304.635 354 Q311.212 348.219 322.298 348.219 Q333.49 348.219 340.014 354.425 Q346.538 360.631 346.538 369.807 Q346.538 374.475 344.629 378.983 Q342.719 383.492 338.264 388.478 Q333.861 393.464 323.571 402.163 Q314.978 409.376 312.538 411.976 Q310.098 414.522 308.507 417.121 L346.644 417.121 Z" fill="#000000" fill-rule="nonzero" fill-opacity="1" /><path clip-path="url(#clip400)" d="M144.978 114.443 Q144.978 100.652 147.789 92.2716 Q150.653 83.8379 156.223 79.2763 Q161.845 74.7146 170.332 74.7146 Q176.591 74.7146 181.312 77.2607 Q186.032 79.7537 189.109 84.5275 Q192.185 89.2482 193.936 96.0907 Q195.686 102.88 195.686 114.443 Q195.686 128.128 192.875 136.562 Q190.063 144.943 184.441 149.557 Q178.872 154.119 170.332 154.119 Q159.087 154.119 152.669 146.057 Q144.978 136.35 144.978 114.443 M154.79 114.443 Q154.79 133.592 159.246 139.957 Q163.755 146.269 170.332 146.269 Q176.909 146.269 181.365 139.904 Q185.873 133.539 185.873 114.443 Q185.873 95.242 181.365 88.93 Q176.909 82.6179 170.226 82.6179 Q163.648 82.6179 159.723 88.1874 Q154.79 95.295 154.79 114.443 Z" fill="#000000" fill-rule="nonzero" fill-opacity="1" /><path clip-path="url(#clip400)" d="M210.75 152.793 L210.75 141.919 L221.624 141.919 L221.624 152.793 L210.75 152.793 Z" fill="#000000" fill-rule="nonzero" fill-opacity="1" /><path clip-path="url(#clip400)" d="M271.536 152.793 L261.989 152.793 L261.989 91.9534 Q258.541 95.242 252.919 98.5306 Q247.349 101.819 242.894 103.464 L242.894 94.2342 Q250.903 90.4682 256.897 85.1109 Q262.891 79.7537 265.384 74.7146 L271.536 74.7146 L271.536 152.793 Z" fill="#000000" fill-rule="nonzero" fill-opacity="1" /><path clip-path="url(#clip400)" d="M326.594 152.793 L326.594 134.175 L292.859 134.175 L292.859 125.423 L328.345 75.0329 L336.142 75.0329 L336.142 125.423 L346.644 125.423 L346.644 134.175 L336.142 134.175 L336.142 152.793 L326.594 152.793 M326.594 125.423 L326.594 90.3621 L302.248 125.423 L326.594 125.423 Z" fill="#000000" fill-rule="nonzero" fill-opacity="1" /><path clip-path="url(#clip400)" d="M85.1722 789.513 L7.41216 789.513 L7.41216 779.965 L85.1722 779.965 L85.1722 789.513 Z" fill="#000000" fill-rule="nonzero" fill-opacity="1" /><path clip-path="url(#clip400)" d="M57.0067 768.72 Q41.3592 768.72 33.8272 760.021 Q27.5682 752.754 27.5682 742.305 Q27.5682 730.689 35.2063 723.316 Q42.7914 715.943 56.2111 715.943 Q67.0847 715.943 73.3437 719.232 Q79.5497 722.467 82.9974 728.726 Q86.4452 734.932 86.4452 742.305 Q86.4452 754.133 78.8601 761.453 Q71.2751 768.72 57.0067 768.72 M57.0067 758.907 Q67.8273 758.907 73.2376 754.186 Q78.5949 749.466 78.5949 742.305 Q78.5949 735.197 73.1846 730.476 Q67.7743 725.756 56.6884 725.756 Q46.2391 725.756 40.8818 730.53 Q35.4715 735.25 35.4715 742.305 Q35.4715 749.466 40.8288 754.186 Q46.1861 758.907 57.0067 758.907 Z" fill="#000000" fill-rule="nonzero" fill-opacity="1" /><path clip-path="url(#clip400)" d="M68.3578 708.57 L66.8726 699.128 Q72.5481 698.333 75.5715 694.726 Q78.5949 691.066 78.5949 684.542 Q78.5949 677.965 75.9428 674.782 Q73.2376 671.6 69.6308 671.6 Q66.3952 671.6 64.5387 674.411 Q63.2657 676.373 61.3031 684.171 Q58.651 694.673 56.7415 698.757 Q54.7789 702.788 51.3842 704.91 Q47.9365 706.979 43.7992 706.979 Q40.0332 706.979 36.8506 705.281 Q33.615 703.531 31.4934 700.561 Q29.849 698.333 28.7352 694.514 Q27.5682 690.642 27.5682 686.239 Q27.5682 679.609 29.4778 674.623 Q31.3873 669.584 34.6759 667.197 Q37.9115 664.81 43.3748 663.908 L44.6478 673.244 Q40.2984 673.88 37.8584 676.957 Q35.4185 679.98 35.4185 685.55 Q35.4185 692.127 37.5932 694.938 Q39.768 697.749 42.6853 697.749 Q44.5418 697.749 46.0269 696.582 Q47.5652 695.416 48.573 692.923 Q49.1034 691.49 51.0129 684.489 Q53.7181 674.358 55.4685 670.38 Q57.1658 666.348 60.4544 664.068 Q63.7431 661.787 68.623 661.787 Q73.3968 661.787 77.6402 664.598 Q81.8305 667.356 84.1644 672.607 Q86.4452 677.859 86.4452 684.489 Q86.4452 695.469 81.8835 701.25 Q77.3219 706.979 68.3578 708.57 Z" fill="#000000" fill-rule="nonzero" fill-opacity="1" /><path clip-path="url(#clip400)" d="M68.3578 654.255 L66.8726 644.813 Q72.5481 644.018 75.5715 640.411 Q78.5949 636.751 78.5949 630.227 Q78.5949 623.649 75.9428 620.467 Q73.2376 617.284 69.6308 617.284 Q66.3952 617.284 64.5387 620.095 Q63.2657 622.058 61.3031 629.855 Q58.651 640.358 56.7415 644.442 Q54.7789 648.473 51.3842 650.595 Q47.9365 652.663 43.7992 652.663 Q40.0332 652.663 36.8506 650.966 Q33.615 649.216 31.4934 646.245 Q29.849 644.018 28.7352 640.198 Q27.5682 636.326 27.5682 631.924 Q27.5682 625.294 29.4778 620.308 Q31.3873 615.269 34.6759 612.882 Q37.9115 610.495 43.3748 609.593 L44.6478 618.929 Q40.2984 619.565 37.8584 622.641 Q35.4185 625.665 35.4185 631.234 Q35.4185 637.812 37.5932 640.623 Q39.768 643.434 42.6853 643.434 Q44.5418 643.434 46.0269 642.267 Q47.5652 641.1 48.573 638.607 Q49.1034 637.175 51.0129 630.173 Q53.7181 620.042 55.4685 616.064 Q57.1658 612.033 60.4544 609.752 Q63.7431 607.471 68.623 607.471 Q73.3968 607.471 77.6402 610.283 Q81.8305 613.041 84.1644 618.292 Q86.4452 623.543 86.4452 630.173 Q86.4452 641.153 81.8835 646.935 Q77.3219 652.663 68.3578 654.255 Z" fill="#000000" fill-rule="nonzero" fill-opacity="1" /><polyline clip-path="url(#clip402)" style="stroke:#009af9; stroke-linecap:round; stroke-linejoin:round; stroke-width:8; stroke-opacity:1; fill:none" points="382.644,47.2441 486.334,1340.36 590.024,1349.74 693.715,1345.15 797.405,1342.97 901.095,1342.11 1004.78,1341.78 1108.47,1341.64 1212.16,1341.58 1315.86,1341.55 1419.55,1341.54 1523.24,1341.53 1626.93,1341.53 1730.62,1341.53 1834.31,1341.53 1938,1341.53 2041.69,1341.53 2145.38,1341.53 2249.07,1341.53 2352.76,1341.53 "/>
<circle clip-path="url(#clip402)" cx="382.644" cy="47.2441" r="3.6" fill="#009af9" fill-rule="evenodd" fill-opacity="1" stroke="#000000" stroke-opacity="1" stroke-width="3.2"/>
<circle clip-path="url(#clip402)" cx="486.334" cy="1340.36" r="3.6" fill="#009af9" fill-rule="evenodd" fill-opacity="1" stroke="#000000" stroke-opacity="1" stroke-width="3.2"/>
<circle clip-path="url(#clip402)" cx="590.024" cy="1349.74" r="3.6" fill="#009af9" fill-rule="evenodd" fill-opacity="1" stroke="#000000" stroke-opacity="1" stroke-width="3.2"/>
<circle clip-path="url(#clip402)" cx="693.715" cy="1345.15" r="3.6" fill="#009af9" fill-rule="evenodd" fill-opacity="1" stroke="#000000" stroke-opacity="1" stroke-width="3.2"/>
<circle clip-path="url(#clip402)" cx="797.405" cy="1342.97" r="3.6" fill="#009af9" fill-rule="evenodd" fill-opacity="1" stroke="#000000" stroke-opacity="1" stroke-width="3.2"/>
<circle clip-path="url(#clip402)" cx="901.095" cy="1342.11" r="3.6" fill="#009af9" fill-rule="evenodd" fill-opacity="1" stroke="#000000" stroke-opacity="1" stroke-width="3.2"/>
<circle clip-path="url(#clip402)" cx="1004.78" cy="1341.78" r="3.6" fill="#009af9" fill-rule="evenodd" fill-opacity="1" stroke="#000000" stroke-opacity="1" stroke-width="3.2"/>
<circle clip-path="url(#clip402)" cx="1108.47" cy="1341.64" r="3.6" fill="#009af9" fill-rule="evenodd" fill-opacity="1" stroke="#000000" stroke-opacity="1" stroke-width="3.2"/>
<circle clip-path="url(#clip402)" cx="1212.16" cy="1341.58" r="3.6" fill="#009af9" fill-rule="evenodd" fill-opacity="1" stroke="#000000" stroke-opacity="1" stroke-width="3.2"/>
<circle clip-path="url(#clip402)" cx="1315.86" cy="1341.55" r="3.6" fill="#009af9" fill-rule="evenodd" fill-opacity="1" stroke="#000000" stroke-opacity="1" stroke-width="3.2"/>
<circle clip-path="url(#clip402)" cx="1419.55" cy="1341.54" r="3.6" fill="#009af9" fill-rule="evenodd" fill-opacity="1" stroke="#000000" stroke-opacity="1" stroke-width="3.2"/>
<circle clip-path="url(#clip402)" cx="1523.24" cy="1341.53" r="3.6" fill="#009af9" fill-rule="evenodd" fill-opacity="1" stroke="#000000" stroke-opacity="1" stroke-width="3.2"/>
<circle clip-path="url(#clip402)" cx="1626.93" cy="1341.53" r="3.6" fill="#009af9" fill-rule="evenodd" fill-opacity="1" stroke="#000000" stroke-opacity="1" stroke-width="3.2"/>
<circle clip-path="url(#clip402)" cx="1730.62" cy="1341.53" r="3.6" fill="#009af9" fill-rule="evenodd" fill-opacity="1" stroke="#000000" stroke-opacity="1" stroke-width="3.2"/>
<circle clip-path="url(#clip402)" cx="1834.31" cy="1341.53" r="3.6" fill="#009af9" fill-rule="evenodd" fill-opacity="1" stroke="#000000" stroke-opacity="1" stroke-width="3.2"/>
<circle clip-path="url(#clip402)" cx="1938" cy="1341.53" r="3.6" fill="#009af9" fill-rule="evenodd" fill-opacity="1" stroke="#000000" stroke-opacity="1" stroke-width="3.2"/>
<circle clip-path="url(#clip402)" cx="2041.69" cy="1341.53" r="3.6" fill="#009af9" fill-rule="evenodd" fill-opacity="1" stroke="#000000" stroke-opacity="1" stroke-width="3.2"/>
<circle clip-path="url(#clip402)" cx="2145.38" cy="1341.53" r="3.6" fill="#009af9" fill-rule="evenodd" fill-opacity="1" stroke="#000000" stroke-opacity="1" stroke-width="3.2"/>
<circle clip-path="url(#clip402)" cx="2249.07" cy="1341.53" r="3.6" fill="#009af9" fill-rule="evenodd" fill-opacity="1" stroke="#000000" stroke-opacity="1" stroke-width="3.2"/>
<circle clip-path="url(#clip402)" cx="2352.76" cy="1341.53" r="3.6" fill="#009af9" fill-rule="evenodd" fill-opacity="1" stroke="#000000" stroke-opacity="1" stroke-width="3.2"/>
<polyline clip-path="url(#clip402)" style="stroke:#e26f46; stroke-linecap:round; stroke-linejoin:round; stroke-width:8; stroke-opacity:1; fill:none" points="382.644,706.71 486.334,1300.82 590.024,1323.04 693.715,1328.52 797.405,1329.87 901.095,1329.99 1004.78,1329.94 1108.47,1329.89 1212.16,1329.87 1315.86,1329.86 1419.55,1329.85 1523.24,1329.85 1626.93,1329.85 1730.62,1329.85 1834.31,1329.85 1938,1329.85 2041.69,1329.85 2145.38,1329.85 2249.07,1329.85 2352.76,1329.85 "/>
<circle clip-path="url(#clip402)" cx="382.644" cy="706.71" r="3.6" fill="#e26f46" fill-rule="evenodd" fill-opacity="1" stroke="#000000" stroke-opacity="1" stroke-width="3.2"/>
<circle clip-path="url(#clip402)" cx="486.334" cy="1300.82" r="3.6" fill="#e26f46" fill-rule="evenodd" fill-opacity="1" stroke="#000000" stroke-opacity="1" stroke-width="3.2"/>
<circle clip-path="url(#clip402)" cx="590.024" cy="1323.04" r="3.6" fill="#e26f46" fill-rule="evenodd" fill-opacity="1" stroke="#000000" stroke-opacity="1" stroke-width="3.2"/>
<circle clip-path="url(#clip402)" cx="693.715" cy="1328.52" r="3.6" fill="#e26f46" fill-rule="evenodd" fill-opacity="1" stroke="#000000" stroke-opacity="1" stroke-width="3.2"/>
<circle clip-path="url(#clip402)" cx="797.405" cy="1329.87" r="3.6" fill="#e26f46" fill-rule="evenodd" fill-opacity="1" stroke="#000000" stroke-opacity="1" stroke-width="3.2"/>
<circle clip-path="url(#clip402)" cx="901.095" cy="1329.99" r="3.6" fill="#e26f46" fill-rule="evenodd" fill-opacity="1" stroke="#000000" stroke-opacity="1" stroke-width="3.2"/>
<circle clip-path="url(#clip402)" cx="1004.78" cy="1329.94" r="3.6" fill="#e26f46" fill-rule="evenodd" fill-opacity="1" stroke="#000000" stroke-opacity="1" stroke-width="3.2"/>
<circle clip-path="url(#clip402)" cx="1108.47" cy="1329.89" r="3.6" fill="#e26f46" fill-rule="evenodd" fill-opacity="1" stroke="#000000" stroke-opacity="1" stroke-width="3.2"/>
<circle clip-path="url(#clip402)" cx="1212.16" cy="1329.87" r="3.6" fill="#e26f46" fill-rule="evenodd" fill-opacity="1" stroke="#000000" stroke-opacity="1" stroke-width="3.2"/>
<circle clip-path="url(#clip402)" cx="1315.86" cy="1329.86" r="3.6" fill="#e26f46" fill-rule="evenodd" fill-opacity="1" stroke="#000000" stroke-opacity="1" stroke-width="3.2"/>
<circle clip-path="url(#clip402)" cx="1419.55" cy="1329.85" r="3.6" fill="#e26f46" fill-rule="evenodd" fill-opacity="1" stroke="#000000" stroke-opacity="1" stroke-width="3.2"/>
<circle clip-path="url(#clip402)" cx="1523.24" cy="1329.85" r="3.6" fill="#e26f46" fill-rule="evenodd" fill-opacity="1" stroke="#000000" stroke-opacity="1" stroke-width="3.2"/>
<circle clip-path="url(#clip402)" cx="1626.93" cy="1329.85" r="3.6" fill="#e26f46" fill-rule="evenodd" fill-opacity="1" stroke="#000000" stroke-opacity="1" stroke-width="3.2"/>
<circle clip-path="url(#clip402)" cx="1730.62" cy="1329.85" r="3.6" fill="#e26f46" fill-rule="evenodd" fill-opacity="1" stroke="#000000" stroke-opacity="1" stroke-width="3.2"/>
<circle clip-path="url(#clip402)" cx="1834.31" cy="1329.85" r="3.6" fill="#e26f46" fill-rule="evenodd" fill-opacity="1" stroke="#000000" stroke-opacity="1" stroke-width="3.2"/>
<circle clip-path="url(#clip402)" cx="1938" cy="1329.85" r="3.6" fill="#e26f46" fill-rule="evenodd" fill-opacity="1" stroke="#000000" stroke-opacity="1" stroke-width="3.2"/>
<circle clip-path="url(#clip402)" cx="2041.69" cy="1329.85" r="3.6" fill="#e26f46" fill-rule="evenodd" fill-opacity="1" stroke="#000000" stroke-opacity="1" stroke-width="3.2"/>
<circle clip-path="url(#clip402)" cx="2145.38" cy="1329.85" r="3.6" fill="#e26f46" fill-rule="evenodd" fill-opacity="1" stroke="#000000" stroke-opacity="1" stroke-width="3.2"/>
<circle clip-path="url(#clip402)" cx="2249.07" cy="1329.85" r="3.6" fill="#e26f46" fill-rule="evenodd" fill-opacity="1" stroke="#000000" stroke-opacity="1" stroke-width="3.2"/>
<circle clip-path="url(#clip402)" cx="2352.76" cy="1329.85" r="3.6" fill="#e26f46" fill-rule="evenodd" fill-opacity="1" stroke="#000000" stroke-opacity="1" stroke-width="3.2"/>
<path clip-path="url(#clip400)" d="M1631.26 440.581 L2287.09 440.581 L2287.09 90.6606 L1631.26 90.6606  Z" fill="#ffffff" fill-rule="evenodd" fill-opacity="1"/>
<polyline clip-path="url(#clip400)" style="stroke:#000000; stroke-linecap:round; stroke-linejoin:round; stroke-width:4; stroke-opacity:1; fill:none" points="1631.26,440.581 2287.09,440.581 2287.09,90.6606 1631.26,90.6606 1631.26,440.581 "/>
<polyline clip-path="url(#clip400)" style="stroke:#009af9; stroke-linecap:round; stroke-linejoin:round; stroke-width:18; stroke-opacity:1; fill:none" points="1653.15,207.301 1784.49,207.301 "/>
<circle clip-path="url(#clip400)" cx="1718.82" cy="207.301" r="8.10746" fill="#009af9" fill-rule="evenodd" fill-opacity="1" stroke="#000000" stroke-opacity="1" stroke-width="7.20663"/>
<path clip-path="url(#clip400)" d="M1832.48 237.641 L1833.86 246.075 Q1829.82 246.923 1826.64 246.923 Q1821.44 246.923 1818.58 245.279 Q1815.72 243.635 1814.55 240.982 Q1813.38 238.277 1813.38 229.684 L1813.38 197.276 L1806.38 197.276 L1806.38 189.85 L1813.38 189.85 L1813.38 175.9 L1822.88 170.171 L1822.88 189.85 L1832.48 189.85 L1832.48 197.276 L1822.88 197.276 L1822.88 230.215 Q1822.88 234.299 1823.35 235.466 Q1823.88 236.633 1825 237.323 Q1826.16 238.012 1828.29 238.012 Q1829.88 238.012 1832.48 237.641 Z" fill="#000000" fill-rule="nonzero" fill-opacity="1" /><path clip-path="url(#clip400)" d="M1841.71 246.181 L1841.71 189.85 L1850.3 189.85 L1850.3 198.39 Q1853.59 192.396 1856.35 190.486 Q1859.16 188.577 1862.5 188.577 Q1867.33 188.577 1872.31 191.653 L1869.02 200.511 Q1865.52 198.443 1862.02 198.443 Q1858.89 198.443 1856.4 200.352 Q1853.91 202.209 1852.84 205.55 Q1851.25 210.642 1851.25 216.689 L1851.25 246.181 L1841.71 246.181 Z" fill="#000000" fill-rule="nonzero" fill-opacity="1" /><path clip-path="url(#clip400)" d="M1914.74 239.232 Q1909.44 243.741 1904.51 245.597 Q1899.63 247.454 1894.01 247.454 Q1884.72 247.454 1879.74 242.945 Q1874.75 238.383 1874.75 231.329 Q1874.75 227.191 1876.61 223.797 Q1878.52 220.349 1881.54 218.28 Q1884.62 216.212 1888.44 215.151 Q1891.25 214.408 1896.92 213.719 Q1908.49 212.34 1913.95 210.43 Q1914 208.468 1914 207.937 Q1914 202.102 1911.3 199.716 Q1907.64 196.48 1900.42 196.48 Q1893.69 196.48 1890.45 198.867 Q1887.27 201.201 1885.73 207.195 L1876.4 205.922 Q1877.67 199.928 1880.59 196.268 Q1883.5 192.555 1889.02 190.592 Q1894.54 188.577 1901.8 188.577 Q1909.02 188.577 1913.52 190.274 Q1918.03 191.971 1920.16 194.57 Q1922.28 197.116 1923.13 201.042 Q1923.6 203.482 1923.6 209.847 L1923.6 222.577 Q1923.6 235.89 1924.19 239.444 Q1924.82 242.945 1926.63 246.181 L1916.65 246.181 Q1915.17 243.21 1914.74 239.232 M1913.95 217.909 Q1908.75 220.031 1898.35 221.516 Q1892.47 222.365 1890.03 223.425 Q1887.59 224.486 1886.26 226.555 Q1884.94 228.571 1884.94 231.064 Q1884.94 234.883 1887.8 237.429 Q1890.72 239.975 1896.29 239.975 Q1901.8 239.975 1906.1 237.588 Q1910.4 235.148 1912.41 230.957 Q1913.95 227.722 1913.95 221.41 L1913.95 217.909 Z" fill="#000000" fill-rule="nonzero" fill-opacity="1" /><path clip-path="url(#clip400)" d="M1938.45 179.4 L1938.45 168.421 L1948 168.421 L1948 179.4 L1938.45 179.4 M1938.45 246.181 L1938.45 189.85 L1948 189.85 L1948 246.181 L1938.45 246.181 Z" fill="#000000" fill-rule="nonzero" fill-opacity="1" /><path clip-path="url(#clip400)" d="M1962.54 246.181 L1962.54 189.85 L1971.13 189.85 L1971.13 197.859 Q1977.33 188.577 1989.06 188.577 Q1994.15 188.577 1998.39 190.433 Q2002.69 192.237 2004.81 195.207 Q2006.93 198.177 2007.78 202.262 Q2008.31 204.914 2008.31 211.544 L2008.31 246.181 L1998.76 246.181 L1998.76 211.915 Q1998.76 206.081 1997.65 203.216 Q1996.54 200.299 1993.67 198.602 Q1990.86 196.851 1987.04 196.851 Q1980.94 196.851 1976.49 200.723 Q1972.08 204.595 1972.08 215.416 L1972.08 246.181 L1962.54 246.181 Z" fill="#000000" fill-rule="nonzero" fill-opacity="1" /><path clip-path="url(#clip400)" d="M2014.15 267.769 L2014.15 260.873 L2077.43 260.873 L2077.43 267.769 L2014.15 267.769 Z" fill="#000000" fill-rule="nonzero" fill-opacity="1" /><path clip-path="url(#clip400)" d="M2083.15 246.181 L2083.15 168.421 L2092.7 168.421 L2092.7 246.181 L2083.15 246.181 Z" fill="#000000" fill-rule="nonzero" fill-opacity="1" /><path clip-path="url(#clip400)" d="M2103.95 218.015 Q2103.95 202.368 2112.65 194.836 Q2119.91 188.577 2130.36 188.577 Q2141.98 188.577 2149.35 196.215 Q2156.72 203.8 2156.72 217.22 Q2156.72 228.093 2153.44 234.352 Q2150.2 240.558 2143.94 244.006 Q2137.73 247.454 2130.36 247.454 Q2118.53 247.454 2111.21 239.869 Q2103.95 232.284 2103.95 218.015 M2113.76 218.015 Q2113.76 228.836 2118.48 234.246 Q2123.2 239.603 2130.36 239.603 Q2137.47 239.603 2142.19 234.193 Q2146.91 228.783 2146.91 217.697 Q2146.91 207.248 2142.14 201.89 Q2137.42 196.48 2130.36 196.48 Q2123.2 196.48 2118.48 201.837 Q2113.76 207.195 2113.76 218.015 Z" fill="#000000" fill-rule="nonzero" fill-opacity="1" /><path clip-path="url(#clip400)" d="M2164.1 229.366 L2173.54 227.881 Q2174.33 233.557 2177.94 236.58 Q2181.6 239.603 2188.12 239.603 Q2194.7 239.603 2197.88 236.951 Q2201.07 234.246 2201.07 230.639 Q2201.07 227.404 2198.26 225.547 Q2196.29 224.274 2188.5 222.312 Q2177.99 219.659 2173.91 217.75 Q2169.88 215.787 2167.76 212.393 Q2165.69 208.945 2165.69 204.808 Q2165.69 201.042 2167.39 197.859 Q2169.14 194.624 2172.11 192.502 Q2174.33 190.858 2178.15 189.744 Q2182.03 188.577 2186.43 188.577 Q2193.06 188.577 2198.04 190.486 Q2203.08 192.396 2205.47 195.684 Q2207.86 198.92 2208.76 204.383 L2199.42 205.656 Q2198.79 201.307 2195.71 198.867 Q2192.69 196.427 2187.12 196.427 Q2180.54 196.427 2177.73 198.602 Q2174.92 200.776 2174.92 203.694 Q2174.92 205.55 2176.08 207.035 Q2177.25 208.574 2179.74 209.581 Q2181.18 210.112 2188.18 212.021 Q2198.31 214.727 2202.29 216.477 Q2206.32 218.174 2208.6 221.463 Q2210.88 224.752 2210.88 229.631 Q2210.88 234.405 2208.07 238.649 Q2205.31 242.839 2200.06 245.173 Q2194.81 247.454 2188.18 247.454 Q2177.2 247.454 2171.42 242.892 Q2165.69 238.33 2164.1 229.366 Z" fill="#000000" fill-rule="nonzero" fill-opacity="1" /><path clip-path="url(#clip400)" d="M2218.41 229.366 L2227.85 227.881 Q2228.65 233.557 2232.26 236.58 Q2235.92 239.603 2242.44 239.603 Q2249.02 239.603 2252.2 236.951 Q2255.38 234.246 2255.38 230.639 Q2255.38 227.404 2252.57 225.547 Q2250.61 224.274 2242.81 222.312 Q2232.31 219.659 2228.22 217.75 Q2224.19 215.787 2222.07 212.393 Q2220 208.945 2220 204.808 Q2220 201.042 2221.7 197.859 Q2223.45 194.624 2226.42 192.502 Q2228.65 190.858 2232.47 189.744 Q2236.34 188.577 2240.74 188.577 Q2247.37 188.577 2252.36 190.486 Q2257.4 192.396 2259.79 195.684 Q2262.17 198.92 2263.07 204.383 L2253.74 205.656 Q2253.1 201.307 2250.03 198.867 Q2247 196.427 2241.43 196.427 Q2234.86 196.427 2232.04 198.602 Q2229.23 200.776 2229.23 203.694 Q2229.23 205.55 2230.4 207.035 Q2231.57 208.574 2234.06 209.581 Q2235.49 210.112 2242.49 212.021 Q2252.62 214.727 2256.6 216.477 Q2260.63 218.174 2262.91 221.463 Q2265.2 224.752 2265.2 229.631 Q2265.2 234.405 2262.38 238.649 Q2259.63 242.839 2254.37 245.173 Q2249.12 247.454 2242.49 247.454 Q2231.51 247.454 2225.73 242.892 Q2220 238.33 2218.41 229.366 Z" fill="#000000" fill-rule="nonzero" fill-opacity="1" /><polyline clip-path="url(#clip400)" style="stroke:#e26f46; stroke-linecap:round; stroke-linejoin:round; stroke-width:18; stroke-opacity:1; fill:none" points="1653.15,323.941 1784.49,323.941 "/>
<circle clip-path="url(#clip400)" cx="1718.82" cy="323.941" r="8.10746" fill="#e26f46" fill-rule="evenodd" fill-opacity="1" stroke="#000000" stroke-opacity="1" stroke-width="7.20663"/>
<path clip-path="url(#clip400)" d="M1827.81 362.821 L1806.38 306.49 L1816.46 306.49 L1828.55 340.225 Q1830.51 345.688 1832.16 351.576 Q1833.43 347.12 1835.71 340.861 L1848.23 306.49 L1858.04 306.49 L1836.72 362.821 L1827.81 362.821 Z" fill="#000000" fill-rule="nonzero" fill-opacity="1" /><path clip-path="url(#clip400)" d="M1903.23 355.872 Q1897.93 360.381 1893 362.237 Q1888.12 364.094 1882.5 364.094 Q1873.21 364.094 1868.23 359.585 Q1863.24 355.023 1863.24 347.969 Q1863.24 343.831 1865.1 340.437 Q1867.01 336.989 1870.03 334.92 Q1873.11 332.852 1876.93 331.791 Q1879.74 331.048 1885.41 330.359 Q1896.98 328.98 1902.44 327.07 Q1902.49 325.108 1902.49 324.577 Q1902.49 318.742 1899.79 316.356 Q1896.13 313.12 1888.91 313.12 Q1882.18 313.12 1878.94 315.507 Q1875.76 317.841 1874.22 323.835 L1864.89 322.562 Q1866.16 316.568 1869.08 312.908 Q1871.99 309.195 1877.51 307.232 Q1883.03 305.217 1890.29 305.217 Q1897.51 305.217 1902.01 306.914 Q1906.52 308.611 1908.65 311.21 Q1910.77 313.756 1911.62 317.682 Q1912.09 320.122 1912.09 326.487 L1912.09 339.217 Q1912.09 352.53 1912.68 356.084 Q1913.31 359.585 1915.12 362.821 L1905.14 362.821 Q1903.66 359.85 1903.23 355.872 M1902.44 334.549 Q1897.24 336.671 1886.84 338.156 Q1880.96 339.005 1878.52 340.065 Q1876.08 341.126 1874.75 343.195 Q1873.43 345.211 1873.43 347.704 Q1873.43 351.523 1876.29 354.069 Q1879.21 356.615 1884.78 356.615 Q1890.29 356.615 1894.59 354.228 Q1898.89 351.788 1900.9 347.597 Q1902.44 344.362 1902.44 338.05 L1902.44 334.549 Z" fill="#000000" fill-rule="nonzero" fill-opacity="1" /><path clip-path="url(#clip400)" d="M1926.68 362.821 L1926.68 285.061 L1936.23 285.061 L1936.23 362.821 L1926.68 362.821 Z" fill="#000000" fill-rule="nonzero" fill-opacity="1" /><path clip-path="url(#clip400)" d="M1942.22 384.409 L1942.22 377.513 L2005.5 377.513 L2005.5 384.409 L1942.22 384.409 Z" fill="#000000" fill-rule="nonzero" fill-opacity="1" /><path clip-path="url(#clip400)" d="M2011.23 362.821 L2011.23 285.061 L2020.78 285.061 L2020.78 362.821 L2011.23 362.821 Z" fill="#000000" fill-rule="nonzero" fill-opacity="1" /><path clip-path="url(#clip400)" d="M2032.02 334.655 Q2032.02 319.008 2040.72 311.476 Q2047.99 305.217 2058.44 305.217 Q2070.05 305.217 2077.43 312.855 Q2084.8 320.44 2084.8 333.86 Q2084.8 344.733 2081.51 350.992 Q2078.27 357.198 2072.02 360.646 Q2065.81 364.094 2058.44 364.094 Q2046.61 364.094 2039.29 356.509 Q2032.02 348.924 2032.02 334.655 M2041.83 334.655 Q2041.83 345.476 2046.56 350.886 Q2051.28 356.243 2058.44 356.243 Q2065.54 356.243 2070.26 350.833 Q2074.99 345.423 2074.99 334.337 Q2074.99 323.888 2070.21 318.53 Q2065.49 313.12 2058.44 313.12 Q2051.28 313.12 2046.56 318.477 Q2041.83 323.835 2041.83 334.655 Z" fill="#000000" fill-rule="nonzero" fill-opacity="1" /><path clip-path="url(#clip400)" d="M2092.17 346.006 L2101.61 344.521 Q2102.41 350.197 2106.02 353.22 Q2109.68 356.243 2116.2 356.243 Q2122.78 356.243 2125.96 353.591 Q2129.14 350.886 2129.14 347.279 Q2129.14 344.044 2126.33 342.187 Q2124.37 340.914 2116.57 338.952 Q2106.07 336.299 2101.98 334.39 Q2097.95 332.427 2095.83 329.033 Q2093.76 325.585 2093.76 321.448 Q2093.76 317.682 2095.46 314.499 Q2097.21 311.264 2100.18 309.142 Q2102.41 307.498 2106.23 306.384 Q2110.1 305.217 2114.5 305.217 Q2121.13 305.217 2126.12 307.126 Q2131.16 309.036 2133.54 312.324 Q2135.93 315.56 2136.83 321.023 L2127.5 322.296 Q2126.86 317.947 2123.78 315.507 Q2120.76 313.067 2115.19 313.067 Q2108.61 313.067 2105.8 315.242 Q2102.99 317.416 2102.99 320.334 Q2102.99 322.19 2104.16 323.675 Q2105.33 325.214 2107.82 326.221 Q2109.25 326.752 2116.25 328.661 Q2126.38 331.367 2130.36 333.117 Q2134.39 334.814 2136.67 338.103 Q2138.95 341.392 2138.95 346.271 Q2138.95 351.045 2136.14 355.289 Q2133.39 359.479 2128.13 361.813 Q2122.88 364.094 2116.25 364.094 Q2105.27 364.094 2099.49 359.532 Q2093.76 354.97 2092.17 346.006 Z" fill="#000000" fill-rule="nonzero" fill-opacity="1" /><path clip-path="url(#clip400)" d="M2146.49 346.006 L2155.93 344.521 Q2156.72 350.197 2160.33 353.22 Q2163.99 356.243 2170.51 356.243 Q2177.09 356.243 2180.27 353.591 Q2183.46 350.886 2183.46 347.279 Q2183.46 344.044 2180.65 342.187 Q2178.68 340.914 2170.89 338.952 Q2160.38 336.299 2156.3 334.39 Q2152.27 332.427 2150.15 329.033 Q2148.08 325.585 2148.08 321.448 Q2148.08 317.682 2149.78 314.499 Q2151.53 311.264 2154.5 309.142 Q2156.72 307.498 2160.54 306.384 Q2164.42 305.217 2168.82 305.217 Q2175.45 305.217 2180.43 307.126 Q2185.47 309.036 2187.86 312.324 Q2190.25 315.56 2191.15 321.023 L2181.81 322.296 Q2181.18 317.947 2178.1 315.507 Q2175.08 313.067 2169.51 313.067 Q2162.93 313.067 2160.12 315.242 Q2157.31 317.416 2157.31 320.334 Q2157.31 322.19 2158.47 323.675 Q2159.64 325.214 2162.13 326.221 Q2163.57 326.752 2170.57 328.661 Q2180.7 331.367 2184.68 333.117 Q2188.71 334.814 2190.99 338.103 Q2193.27 341.392 2193.27 346.271 Q2193.27 351.045 2190.46 355.289 Q2187.7 359.479 2182.45 361.813 Q2177.2 364.094 2170.57 364.094 Q2159.59 364.094 2153.81 359.532 Q2148.08 354.97 2146.49 346.006 Z" fill="#000000" fill-rule="nonzero" fill-opacity="1" /></svg>
