<?xml version="1.0" encoding="utf-8"?>
<svg xmlns="http://www.w3.org/2000/svg" xmlns:xlink="http://www.w3.org/1999/xlink" width="600" height="400" viewBox="0 0 2400 1600">
<defs>
  <clipPath id="clip410">
    <rect x="0" y="0" width="2400" height="1600"/>
  </clipPath>
</defs>
<path clip-path="url(#clip410)" d="M0 1600 L2400 1600 L2400 8.88178e-14 L0 8.88178e-14  Z" fill="#ffffff" fill-rule="evenodd" fill-opacity="1"/>
<defs>
  <clipPath id="clip411">
    <rect x="480" y="0" width="1681" height="1600"/>
  </clipPath>
</defs>
<path clip-path="url(#clip410)" d="M444.969 1349.74 L2352.76 1349.74 L2352.76 47.2441 L444.969 47.2441  Z" fill="#ffffff" fill-rule="evenodd" fill-opacity="1"/>
<defs>
  <clipPath id="clip412">
    <rect x="444" y="47" width="1909" height="1303"/>
  </clipPath>
</defs>
<polyline clip-path="url(#clip410)" style="stroke:#000000; stroke-linecap:round; stroke-linejoin:round; stroke-width:4; stroke-opacity:1; fill:none" points="444.969,1349.74 2352.76,1349.74 "/>
<polyline clip-path="url(#clip410)" style="stroke:#000000; stroke-linecap:round; stroke-linejoin:round; stroke-width:2; stroke-opacity:0.5; fill:none" points="444.969,47.2441 2352.76,47.2441 "/>
<polyline clip-path="url(#clip410)" style="stroke:#000000; stroke-linecap:round; stroke-linejoin:round; stroke-width:4; stroke-opacity:1; fill:none" points="611.381,1349.74 611.381,1330.84 "/>
<polyline clip-path="url(#clip410)" style="stroke:#000000; stroke-linecap:round; stroke-linejoin:round; stroke-width:4; stroke-opacity:1; fill:none" points="867.81,1349.74 867.81,1330.84 "/>
<polyline clip-path="url(#clip410)" style="stroke:#000000; stroke-linecap:round; stroke-linejoin:round; stroke-width:4; stroke-opacity:1; fill:none" points="1124.24,1349.74 1124.24,1330.84 "/>
<polyline clip-path="url(#clip410)" style="stroke:#000000; stroke-linecap:round; stroke-linejoin:round; stroke-width:4; stroke-opacity:1; fill:none" points="1380.67,1349.74 1380.67,1330.84 "/>
<polyline clip-path="url(#clip410)" style="stroke:#000000; stroke-linecap:round; stroke-linejoin:round; stroke-width:4; stroke-opacity:1; fill:none" points="1637.1,1349.74 1637.1,1330.84 "/>
<polyline clip-path="url(#clip410)" style="stroke:#000000; stroke-linecap:round; stroke-linejoin:round; stroke-width:4; stroke-opacity:1; fill:none" points="1893.53,1349.74 1893.53,1330.84 "/>
<polyline clip-path="url(#clip410)" style="stroke:#000000; stroke-linecap:round; stroke-linejoin:round; stroke-width:4; stroke-opacity:1; fill:none" points="2149.96,1349.74 2149.96,1330.84 "/>
<path clip-path="url(#clip410)" d="M530.491 1432.25 L479.146 1432.25 L479.146 1423.33 L530.491 1423.33 L530.491 1432.25 Z" fill="#000000" fill-rule="nonzero" fill-opacity="1" /><path clip-path="url(#clip410)" d="M541.047 1427.79 Q541.047 1414 543.858 1405.62 Q546.722 1397.18 552.292 1392.62 Q557.914 1388.06 566.401 1388.06 Q572.66 1388.06 577.381 1390.61 Q582.102 1393.1 585.178 1397.87 Q588.254 1402.6 590.005 1409.44 Q591.755 1416.23 591.755 1427.79 Q591.755 1441.48 588.944 1449.91 Q586.133 1458.29 580.51 1462.9 Q574.941 1467.47 566.401 1467.47 Q555.156 1467.47 548.738 1459.4 Q541.047 1449.7 541.047 1427.79 M550.86 1427.79 Q550.86 1446.94 555.315 1453.3 Q559.824 1459.62 566.401 1459.62 Q572.978 1459.62 577.434 1453.25 Q581.942 1446.89 581.942 1427.79 Q581.942 1408.59 577.434 1402.28 Q572.978 1395.96 566.295 1395.96 Q559.718 1395.96 555.793 1401.53 Q550.86 1408.64 550.86 1427.79 Z" fill="#000000" fill-rule="nonzero" fill-opacity="1" /><path clip-path="url(#clip410)" d="M606.819 1466.14 L606.819 1455.27 L617.693 1455.27 L617.693 1466.14 L606.819 1466.14 Z" fill="#000000" fill-rule="nonzero" fill-opacity="1" /><path clip-path="url(#clip410)" d="M632.28 1398.56 L632.28 1389.39 L682.617 1389.39 L682.617 1396.81 Q675.191 1404.72 667.871 1417.82 Q660.604 1430.92 656.626 1444.76 Q653.762 1454.52 652.966 1466.14 L643.153 1466.14 Q643.312 1456.96 646.76 1443.97 Q650.208 1430.97 656.626 1418.93 Q663.097 1406.84 670.364 1398.56 L632.28 1398.56 Z" fill="#000000" fill-rule="nonzero" fill-opacity="1" /><path clip-path="url(#clip410)" d="M692.058 1445.77 L702.083 1444.92 Q703.197 1452.24 707.228 1455.96 Q711.313 1459.62 717.041 1459.62 Q723.937 1459.62 728.71 1454.42 Q733.484 1449.22 733.484 1440.63 Q733.484 1432.46 728.87 1427.74 Q724.308 1423.02 716.882 1423.02 Q712.267 1423.02 708.554 1425.14 Q704.841 1427.21 702.72 1430.55 L693.756 1429.38 L701.288 1389.44 L739.955 1389.44 L739.955 1398.56 L708.926 1398.56 L704.735 1419.46 Q711.737 1414.58 719.428 1414.58 Q729.612 1414.58 736.614 1421.64 Q743.615 1428.69 743.615 1439.78 Q743.615 1450.33 737.462 1458.02 Q729.983 1467.47 717.041 1467.47 Q706.433 1467.47 699.696 1461.53 Q693.013 1455.58 692.058 1445.77 Z" fill="#000000" fill-rule="nonzero" fill-opacity="1" /><path clip-path="url(#clip410)" d="M787.345 1432.25 L736 1432.25 L736 1423.33 L787.345 1423.33 L787.345 1432.25 Z" fill="#000000" fill-rule="nonzero" fill-opacity="1" /><path clip-path="url(#clip410)" d="M797.901 1427.79 Q797.901 1414 800.712 1405.62 Q803.576 1397.18 809.146 1392.62 Q814.768 1388.06 823.255 1388.06 Q829.514 1388.06 834.235 1390.61 Q838.955 1393.1 842.032 1397.87 Q845.108 1402.6 846.859 1409.44 Q848.609 1416.23 848.609 1427.79 Q848.609 1441.48 845.798 1449.91 Q842.987 1458.29 837.364 1462.9 Q831.795 1467.47 823.255 1467.47 Q812.01 1467.47 805.592 1459.4 Q797.901 1449.7 797.901 1427.79 M807.713 1427.79 Q807.713 1446.94 812.169 1453.3 Q816.678 1459.62 823.255 1459.62 Q829.832 1459.62 834.288 1453.25 Q838.796 1446.89 838.796 1427.79 Q838.796 1408.59 834.288 1402.28 Q829.832 1395.96 823.149 1395.96 Q816.571 1395.96 812.646 1401.53 Q807.713 1408.64 807.713 1427.79 Z" fill="#000000" fill-rule="nonzero" fill-opacity="1" /><path clip-path="url(#clip410)" d="M863.673 1466.14 L863.673 1455.27 L874.547 1455.27 L874.547 1466.14 L863.673 1466.14 Z" fill="#000000" fill-rule="nonzero" fill-opacity="1" /><path clip-path="url(#clip410)" d="M888.497 1445.77 L898.522 1444.92 Q899.636 1452.24 903.667 1455.96 Q907.751 1459.62 913.48 1459.62 Q920.375 1459.62 925.149 1454.42 Q929.923 1449.22 929.923 1440.63 Q929.923 1432.46 925.308 1427.74 Q920.747 1423.02 913.321 1423.02 Q908.706 1423.02 904.993 1425.14 Q901.28 1427.21 899.158 1430.55 L890.194 1429.38 L897.726 1389.44 L936.394 1389.44 L936.394 1398.56 L905.364 1398.56 L901.174 1419.46 Q908.176 1414.58 915.867 1414.58 Q926.051 1414.58 933.052 1421.64 Q940.054 1428.69 940.054 1439.78 Q940.054 1450.33 933.901 1458.02 Q926.422 1467.47 913.48 1467.47 Q902.871 1467.47 896.135 1461.53 Q889.452 1455.58 888.497 1445.77 Z" fill="#000000" fill-rule="nonzero" fill-opacity="1" /><path clip-path="url(#clip410)" d="M948.912 1427.79 Q948.912 1414 951.723 1405.62 Q954.588 1397.18 960.157 1392.62 Q965.779 1388.06 974.266 1388.06 Q980.525 1388.06 985.246 1390.61 Q989.967 1393.1 993.043 1397.87 Q996.12 1402.6 997.87 1409.44 Q999.62 1416.23 999.62 1427.79 Q999.62 1441.48 996.809 1449.91 Q993.998 1458.29 988.375 1462.9 Q982.806 1467.47 974.266 1467.47 Q963.021 1467.47 956.603 1459.4 Q948.912 1449.7 948.912 1427.79 M958.725 1427.79 Q958.725 1446.94 963.18 1453.3 Q967.689 1459.62 974.266 1459.62 Q980.843 1459.62 985.299 1453.25 Q989.808 1446.89 989.808 1427.79 Q989.808 1408.59 985.299 1402.28 Q980.843 1395.96 974.16 1395.96 Q967.583 1395.96 963.658 1401.53 Q958.725 1408.64 958.725 1427.79 Z" fill="#000000" fill-rule="nonzero" fill-opacity="1" /><path clip-path="url(#clip410)" d="M1043.35 1432.25 L992.005 1432.25 L992.005 1423.33 L1043.35 1423.33 L1043.35 1432.25 Z" fill="#000000" fill-rule="nonzero" fill-opacity="1" /><path clip-path="url(#clip410)" d="M1053.91 1427.79 Q1053.91 1414 1056.72 1405.62 Q1059.58 1397.18 1065.15 1392.62 Q1070.77 1388.06 1079.26 1388.06 Q1085.52 1388.06 1090.24 1390.61 Q1094.96 1393.1 1098.04 1397.87 Q1101.11 1402.6 1102.86 1409.44 Q1104.61 1416.23 1104.61 1427.79 Q1104.61 1441.48 1101.8 1449.91 Q1098.99 1458.29 1093.37 1462.9 Q1087.8 1467.47 1079.26 1467.47 Q1068.01 1467.47 1061.6 1459.4 Q1053.91 1449.7 1053.91 1427.79 M1063.72 1427.79 Q1063.72 1446.94 1068.17 1453.3 Q1072.68 1459.62 1079.26 1459.62 Q1085.84 1459.62 1090.29 1453.25 Q1094.8 1446.89 1094.8 1427.79 Q1094.8 1408.59 1090.29 1402.28 Q1085.84 1395.96 1079.15 1395.96 Q1072.58 1395.96 1068.65 1401.53 Q1063.72 1408.64 1063.72 1427.79 Z" fill="#000000" fill-rule="nonzero" fill-opacity="1" /><path clip-path="url(#clip410)" d="M1119.68 1466.14 L1119.68 1455.27 L1130.55 1455.27 L1130.55 1466.14 L1119.68 1466.14 Z" fill="#000000" fill-rule="nonzero" fill-opacity="1" /><path clip-path="url(#clip410)" d="M1194.68 1456.96 L1194.68 1466.14 L1143.28 1466.14 Q1143.18 1462.69 1144.4 1459.51 Q1146.36 1454.26 1150.65 1449.17 Q1155 1444.07 1163.17 1437.39 Q1175.85 1426.99 1180.31 1420.95 Q1184.76 1414.85 1184.76 1409.44 Q1184.76 1403.76 1180.68 1399.89 Q1176.65 1395.96 1170.12 1395.96 Q1163.23 1395.96 1159.09 1400.1 Q1154.95 1404.24 1154.9 1411.56 L1145.09 1410.55 Q1146.09 1399.57 1152.67 1393.84 Q1159.25 1388.06 1170.33 1388.06 Q1181.53 1388.06 1188.05 1394.27 Q1194.57 1400.47 1194.57 1409.65 Q1194.57 1414.32 1192.66 1418.83 Q1190.75 1423.33 1186.3 1428.32 Q1181.9 1433.31 1171.61 1442.01 Q1163.01 1449.22 1160.57 1451.82 Q1158.13 1454.36 1156.54 1456.96 L1194.68 1456.96 Z" fill="#000000" fill-rule="nonzero" fill-opacity="1" /><path clip-path="url(#clip410)" d="M1204.92 1445.77 L1214.94 1444.92 Q1216.06 1452.24 1220.09 1455.96 Q1224.17 1459.62 1229.9 1459.62 Q1236.8 1459.62 1241.57 1454.42 Q1246.34 1449.22 1246.34 1440.63 Q1246.34 1432.46 1241.73 1427.74 Q1237.17 1423.02 1229.74 1423.02 Q1225.13 1423.02 1221.41 1425.14 Q1217.7 1427.21 1215.58 1430.55 L1206.61 1429.38 L1214.15 1389.44 L1252.81 1389.44 L1252.81 1398.56 L1221.78 1398.56 L1217.59 1419.46 Q1224.6 1414.58 1232.29 1414.58 Q1242.47 1414.58 1249.47 1421.64 Q1256.47 1428.69 1256.47 1439.78 Q1256.47 1450.33 1250.32 1458.02 Q1242.84 1467.47 1229.9 1467.47 Q1219.29 1467.47 1212.56 1461.53 Q1205.87 1455.58 1204.92 1445.77 Z" fill="#000000" fill-rule="nonzero" fill-opacity="1" /><path clip-path="url(#clip410)" d="M1279.81 1427.79 Q1279.81 1414 1282.62 1405.62 Q1285.48 1397.18 1291.05 1392.62 Q1296.68 1388.06 1305.16 1388.06 Q1311.42 1388.06 1316.14 1390.61 Q1320.86 1393.1 1323.94 1397.87 Q1327.02 1402.6 1328.77 1409.44 Q1330.52 1416.23 1330.52 1427.79 Q1330.52 1441.48 1327.71 1449.91 Q1324.9 1458.29 1319.27 1462.9 Q1313.7 1467.47 1305.16 1467.47 Q1293.92 1467.47 1287.5 1459.4 Q1279.81 1449.7 1279.81 1427.79 M1289.62 1427.79 Q1289.62 1446.94 1294.08 1453.3 Q1298.59 1459.62 1305.16 1459.62 Q1311.74 1459.62 1316.2 1453.25 Q1320.7 1446.89 1320.7 1427.79 Q1320.7 1408.59 1316.2 1402.28 Q1311.74 1395.96 1305.06 1395.96 Q1298.48 1395.96 1294.56 1401.53 Q1289.62 1408.64 1289.62 1427.79 Z" fill="#000000" fill-rule="nonzero" fill-opacity="1" /><path clip-path="url(#clip410)" d="M1345.58 1466.14 L1345.58 1455.27 L1356.46 1455.27 L1356.46 1466.14 L1345.58 1466.14 Z" fill="#000000" fill-rule="nonzero" fill-opacity="1" /><path clip-path="url(#clip410)" d="M1370.41 1427.79 Q1370.41 1414 1373.22 1405.62 Q1376.08 1397.18 1381.65 1392.62 Q1387.27 1388.06 1395.76 1388.06 Q1402.02 1388.06 1406.74 1390.61 Q1411.46 1393.1 1414.54 1397.87 Q1417.61 1402.6 1419.36 1409.44 Q1421.11 1416.23 1421.11 1427.79 Q1421.11 1441.48 1418.3 1449.91 Q1415.49 1458.29 1409.87 1462.9 Q1404.3 1467.47 1395.76 1467.47 Q1384.51 1467.47 1378.1 1459.4 Q1370.41 1449.7 1370.41 1427.79 M1380.22 1427.79 Q1380.22 1446.94 1384.67 1453.3 Q1389.18 1459.62 1395.76 1459.62 Q1402.34 1459.62 1406.79 1453.25 Q1411.3 1446.89 1411.3 1427.79 Q1411.3 1408.59 1406.79 1402.28 Q1402.34 1395.96 1395.65 1395.96 Q1389.08 1395.96 1385.15 1401.53 Q1380.22 1408.64 1380.22 1427.79 Z" fill="#000000" fill-rule="nonzero" fill-opacity="1" /><path clip-path="url(#clip410)" d="M1430.82 1427.79 Q1430.82 1414 1433.63 1405.62 Q1436.5 1397.18 1442.07 1392.62 Q1447.69 1388.06 1456.17 1388.06 Q1462.43 1388.06 1467.15 1390.61 Q1471.88 1393.1 1474.95 1397.87 Q1478.03 1402.6 1479.78 1409.44 Q1481.53 1416.23 1481.53 1427.79 Q1481.53 1441.48 1478.72 1449.91 Q1475.91 1458.29 1470.28 1462.9 Q1464.71 1467.47 1456.17 1467.47 Q1444.93 1467.47 1438.51 1459.4 Q1430.82 1449.7 1430.82 1427.79 M1440.63 1427.79 Q1440.63 1446.94 1445.09 1453.3 Q1449.6 1459.62 1456.17 1459.62 Q1462.75 1459.62 1467.21 1453.25 Q1471.72 1446.89 1471.72 1427.79 Q1471.72 1408.59 1467.21 1402.28 Q1462.75 1395.96 1456.07 1395.96 Q1449.49 1395.96 1445.57 1401.53 Q1440.63 1408.64 1440.63 1427.79 Z" fill="#000000" fill-rule="nonzero" fill-opacity="1" /><path clip-path="url(#clip410)" d="M1535.81 1427.79 Q1535.81 1414 1538.63 1405.62 Q1541.49 1397.18 1547.06 1392.62 Q1552.68 1388.06 1561.17 1388.06 Q1567.43 1388.06 1572.15 1390.61 Q1576.87 1393.1 1579.95 1397.87 Q1583.02 1402.6 1584.77 1409.44 Q1586.52 1416.23 1586.52 1427.79 Q1586.52 1441.48 1583.71 1449.91 Q1580.9 1458.29 1575.28 1462.9 Q1569.71 1467.47 1561.17 1467.47 Q1549.92 1467.47 1543.51 1459.4 Q1535.81 1449.7 1535.81 1427.79 M1545.63 1427.79 Q1545.63 1446.94 1550.08 1453.3 Q1554.59 1459.62 1561.17 1459.62 Q1567.75 1459.62 1572.2 1453.25 Q1576.71 1446.89 1576.71 1427.79 Q1576.71 1408.59 1572.2 1402.28 Q1567.75 1395.96 1561.06 1395.96 Q1554.49 1395.96 1550.56 1401.53 Q1545.63 1408.64 1545.63 1427.79 Z" fill="#000000" fill-rule="nonzero" fill-opacity="1" /><path clip-path="url(#clip410)" d="M1601.59 1466.14 L1601.59 1455.27 L1612.46 1455.27 L1612.46 1466.14 L1601.59 1466.14 Z" fill="#000000" fill-rule="nonzero" fill-opacity="1" /><path clip-path="url(#clip410)" d="M1676.59 1456.96 L1676.59 1466.14 L1625.19 1466.14 Q1625.08 1462.69 1626.3 1459.51 Q1628.27 1454.26 1632.56 1449.17 Q1636.91 1444.07 1645.08 1437.39 Q1657.76 1426.99 1662.21 1420.95 Q1666.67 1414.85 1666.67 1409.44 Q1666.67 1403.76 1662.59 1399.89 Q1658.55 1395.96 1652.03 1395.96 Q1645.13 1395.96 1641 1400.1 Q1636.86 1404.24 1636.81 1411.56 L1626.99 1410.55 Q1628 1399.57 1634.58 1393.84 Q1641.16 1388.06 1652.24 1388.06 Q1663.43 1388.06 1669.96 1394.27 Q1676.48 1400.47 1676.48 1409.65 Q1676.48 1414.32 1674.57 1418.83 Q1672.66 1423.33 1668.21 1428.32 Q1663.81 1433.31 1653.52 1442.01 Q1644.92 1449.22 1642.48 1451.82 Q1640.04 1454.36 1638.45 1456.96 L1676.59 1456.96 Z" fill="#000000" fill-rule="nonzero" fill-opacity="1" /><path clip-path="url(#clip410)" d="M1686.83 1445.77 L1696.85 1444.92 Q1697.96 1452.24 1702 1455.96 Q1706.08 1459.62 1711.81 1459.62 Q1718.7 1459.62 1723.48 1454.42 Q1728.25 1449.22 1728.25 1440.63 Q1728.25 1432.46 1723.64 1427.74 Q1719.08 1423.02 1711.65 1423.02 Q1707.04 1423.02 1703.32 1425.14 Q1699.61 1427.21 1697.49 1430.55 L1688.52 1429.38 L1696.06 1389.44 L1734.72 1389.44 L1734.72 1398.56 L1703.69 1398.56 L1699.5 1419.46 Q1706.5 1414.58 1714.2 1414.58 Q1724.38 1414.58 1731.38 1421.64 Q1738.38 1428.69 1738.38 1439.78 Q1738.38 1450.33 1732.23 1458.02 Q1724.75 1467.47 1711.81 1467.47 Q1701.2 1467.47 1694.46 1461.53 Q1687.78 1455.58 1686.83 1445.77 Z" fill="#000000" fill-rule="nonzero" fill-opacity="1" /><path clip-path="url(#clip410)" d="M1792.67 1427.79 Q1792.67 1414 1795.48 1405.62 Q1798.34 1397.18 1803.91 1392.62 Q1809.54 1388.06 1818.02 1388.06 Q1824.28 1388.06 1829 1390.61 Q1833.72 1393.1 1836.8 1397.87 Q1839.88 1402.6 1841.63 1409.44 Q1843.38 1416.23 1843.38 1427.79 Q1843.38 1441.48 1840.57 1449.91 Q1837.75 1458.29 1832.13 1462.9 Q1826.56 1467.47 1818.02 1467.47 Q1806.78 1467.47 1800.36 1459.4 Q1792.67 1449.7 1792.67 1427.79 M1802.48 1427.79 Q1802.48 1446.94 1806.94 1453.3 Q1811.45 1459.62 1818.02 1459.62 Q1824.6 1459.62 1829.06 1453.25 Q1833.56 1446.89 1833.56 1427.79 Q1833.56 1408.59 1829.06 1402.28 Q1824.6 1395.96 1817.92 1395.96 Q1811.34 1395.96 1807.41 1401.53 Q1802.48 1408.64 1802.48 1427.79 Z" fill="#000000" fill-rule="nonzero" fill-opacity="1" /><path clip-path="url(#clip410)" d="M1858.44 1466.14 L1858.44 1455.27 L1869.31 1455.27 L1869.31 1466.14 L1858.44 1466.14 Z" fill="#000000" fill-rule="nonzero" fill-opacity="1" /><path clip-path="url(#clip410)" d="M1883.26 1445.77 L1893.29 1444.92 Q1894.4 1452.24 1898.43 1455.96 Q1902.52 1459.62 1908.25 1459.62 Q1915.14 1459.62 1919.92 1454.42 Q1924.69 1449.22 1924.69 1440.63 Q1924.69 1432.46 1920.08 1427.74 Q1915.51 1423.02 1908.09 1423.02 Q1903.47 1423.02 1899.76 1425.14 Q1896.05 1427.21 1893.93 1430.55 L1884.96 1429.38 L1892.49 1389.44 L1931.16 1389.44 L1931.16 1398.56 L1900.13 1398.56 L1895.94 1419.46 Q1902.94 1414.58 1910.63 1414.58 Q1920.82 1414.58 1927.82 1421.64 Q1934.82 1428.69 1934.82 1439.78 Q1934.82 1450.33 1928.67 1458.02 Q1921.19 1467.47 1908.25 1467.47 Q1897.64 1467.47 1890.9 1461.53 Q1884.22 1455.58 1883.26 1445.77 Z" fill="#000000" fill-rule="nonzero" fill-opacity="1" /><path clip-path="url(#clip410)" d="M1943.68 1427.79 Q1943.68 1414 1946.49 1405.62 Q1949.36 1397.18 1954.92 1392.62 Q1960.55 1388.06 1969.03 1388.06 Q1975.29 1388.06 1980.01 1390.61 Q1984.73 1393.1 1987.81 1397.87 Q1990.89 1402.6 1992.64 1409.44 Q1994.39 1416.23 1994.39 1427.79 Q1994.39 1441.48 1991.58 1449.91 Q1988.77 1458.29 1983.14 1462.9 Q1977.57 1467.47 1969.03 1467.47 Q1957.79 1467.47 1951.37 1459.4 Q1943.68 1449.7 1943.68 1427.79 M1953.49 1427.79 Q1953.49 1446.94 1957.95 1453.3 Q1962.46 1459.62 1969.03 1459.62 Q1975.61 1459.62 1980.07 1453.25 Q1984.58 1446.89 1984.58 1427.79 Q1984.58 1408.59 1980.07 1402.28 Q1975.61 1395.96 1968.93 1395.96 Q1962.35 1395.96 1958.43 1401.53 Q1953.49 1408.64 1953.49 1427.79 Z" fill="#000000" fill-rule="nonzero" fill-opacity="1" /><path clip-path="url(#clip410)" d="M2048.67 1427.79 Q2048.67 1414 2051.48 1405.62 Q2054.35 1397.18 2059.92 1392.62 Q2065.54 1388.06 2074.03 1388.06 Q2080.29 1388.06 2085.01 1390.61 Q2089.73 1393.1 2092.8 1397.87 Q2095.88 1402.6 2097.63 1409.44 Q2099.38 1416.23 2099.38 1427.79 Q2099.38 1441.48 2096.57 1449.91 Q2093.76 1458.29 2088.14 1462.9 Q2082.57 1467.47 2074.03 1467.47 Q2062.78 1467.47 2056.36 1459.4 Q2048.67 1449.7 2048.67 1427.79 M2058.49 1427.79 Q2058.49 1446.94 2062.94 1453.3 Q2067.45 1459.62 2074.03 1459.62 Q2080.6 1459.62 2085.06 1453.25 Q2089.57 1446.89 2089.57 1427.79 Q2089.57 1408.59 2085.06 1402.28 Q2080.6 1395.96 2073.92 1395.96 Q2067.34 1395.96 2063.42 1401.53 Q2058.49 1408.64 2058.49 1427.79 Z" fill="#000000" fill-rule="nonzero" fill-opacity="1" /><path clip-path="url(#clip410)" d="M2114.45 1466.14 L2114.45 1455.27 L2125.32 1455.27 L2125.32 1466.14 L2114.45 1466.14 Z" fill="#000000" fill-rule="nonzero" fill-opacity="1" /><path clip-path="url(#clip410)" d="M2139.91 1398.56 L2139.91 1389.39 L2190.24 1389.39 L2190.24 1396.81 Q2182.82 1404.72 2175.5 1417.82 Q2168.23 1430.92 2164.25 1444.76 Q2161.39 1454.52 2160.59 1466.14 L2150.78 1466.14 Q2150.94 1456.96 2154.39 1443.97 Q2157.83 1430.97 2164.25 1418.93 Q2170.72 1406.84 2177.99 1398.56 L2139.91 1398.56 Z" fill="#000000" fill-rule="nonzero" fill-opacity="1" /><path clip-path="url(#clip410)" d="M2199.68 1445.77 L2209.71 1444.92 Q2210.82 1452.24 2214.85 1455.96 Q2218.94 1459.62 2224.67 1459.62 Q2231.56 1459.62 2236.34 1454.42 Q2241.11 1449.22 2241.11 1440.63 Q2241.11 1432.46 2236.5 1427.74 Q2231.93 1423.02 2224.51 1423.02 Q2219.89 1423.02 2216.18 1425.14 Q2212.47 1427.21 2210.35 1430.55 L2201.38 1429.38 L2208.91 1389.44 L2247.58 1389.44 L2247.58 1398.56 L2216.55 1398.56 L2212.36 1419.46 Q2219.36 1414.58 2227.05 1414.58 Q2237.24 1414.58 2244.24 1421.64 Q2251.24 1428.69 2251.24 1439.78 Q2251.24 1450.33 2245.09 1458.02 Q2237.61 1467.47 2224.67 1467.47 Q2214.06 1467.47 2207.32 1461.53 Q2200.64 1455.58 2199.68 1445.77 Z" fill="#000000" fill-rule="nonzero" fill-opacity="1" /><path clip-path="url(#clip410)" d="M1348.06 1557.13 L1348.06 1553.81 Q1356.5 1553.81 1361.87 1547.33 Q1361.87 1547.33 1371.99 1534.47 L1361.29 1520.56 Q1357.5 1515.71 1355.81 1514.87 Q1354.18 1513.97 1348.59 1513.97 L1348.59 1510.6 Q1353.02 1510.92 1358.82 1510.92 Q1362.03 1510.92 1370.51 1510.6 L1370.51 1513.97 Q1366.72 1514.18 1366.72 1516.66 Q1366.72 1517.5 1367.67 1518.61 L1376.1 1529.52 L1382.79 1521.09 Q1384.43 1519.14 1384.43 1517.29 Q1384.43 1514.29 1381.27 1513.97 L1381.27 1510.6 Q1385.48 1510.92 1391.65 1510.92 Q1396.29 1510.92 1400.5 1510.6 L1400.5 1513.97 Q1392.28 1514.18 1387.64 1519.56 Q1385.59 1521.82 1377.73 1531.78 L1392.17 1550.44 Q1393.91 1552.71 1395.86 1553.29 Q1397.81 1553.81 1402.45 1553.81 L1402.45 1557.13 Q1397.6 1556.82 1392.07 1556.82 Q1390.12 1556.82 1380.42 1557.13 L1380.42 1553.81 Q1382.37 1553.71 1383.32 1552.86 Q1384.32 1551.97 1384.32 1551.07 Q1384.32 1550.65 1382.06 1547.54 L1373.83 1536.74 Q1365.61 1546.44 1364.56 1548.7 Q1364.14 1549.65 1364.14 1550.44 Q1364.14 1553.34 1367.25 1553.81 L1367.25 1557.13 Q1359.5 1556.82 1357.02 1556.82 Q1352.28 1556.82 1348.06 1557.13 Z" fill="#000000" fill-rule="nonzero" fill-opacity="1" /><path clip-path="url(#clip410)" d="M1413.44 1543.91 L1413.44 1541.55 Q1422.52 1541.55 1427.2 1536.71 Q1428.49 1536.71 1428.72 1537.01 Q1428.94 1537.3 1428.94 1538.67 L1428.94 1581.06 Q1428.94 1583.31 1430.04 1584.01 Q1431.15 1584.71 1435.98 1584.71 L1438.38 1584.71 L1438.38 1587.03 Q1435.73 1586.81 1426.13 1586.81 Q1416.54 1586.81 1413.92 1587.03 L1413.92 1584.71 L1416.32 1584.71 Q1421.08 1584.71 1422.22 1584.04 Q1423.37 1583.34 1423.37 1581.06 L1423.37 1541.92 Q1419.42 1543.91 1413.44 1543.91 Z" fill="#000000" fill-rule="nonzero" fill-opacity="1" /><polyline clip-path="url(#clip410)" style="stroke:#000000; stroke-linecap:round; stroke-linejoin:round; stroke-width:4; stroke-opacity:1; fill:none" points="444.969,1349.74 444.969,47.2441 "/>
<polyline clip-path="url(#clip410)" style="stroke:#000000; stroke-linecap:round; stroke-linejoin:round; stroke-width:2; stroke-opacity:0.5; fill:none" points="2352.76,1349.74 2352.76,47.2441 "/>
<polyline clip-path="url(#clip410)" style="stroke:#000000; stroke-linecap:round; stroke-linejoin:round; stroke-width:4; stroke-opacity:1; fill:none" points="444.969,1223.54 463.867,1223.54 "/>
<polyline clip-path="url(#clip410)" style="stroke:#000000; stroke-linecap:round; stroke-linejoin:round; stroke-width:4; stroke-opacity:1; fill:none" points="444.969,1048.79 463.867,1048.79 "/>
<polyline clip-path="url(#clip410)" style="stroke:#000000; stroke-linecap:round; stroke-linejoin:round; stroke-width:4; stroke-opacity:1; fill:none" points="444.969,874.042 463.867,874.042 "/>
<polyline clip-path="url(#clip410)" style="stroke:#000000; stroke-linecap:round; stroke-linejoin:round; stroke-width:4; stroke-opacity:1; fill:none" points="444.969,699.295 463.867,699.295 "/>
<polyline clip-path="url(#clip410)" style="stroke:#000000; stroke-linecap:round; stroke-linejoin:round; stroke-width:4; stroke-opacity:1; fill:none" points="444.969,524.548 463.867,524.548 "/>
<polyline clip-path="url(#clip410)" style="stroke:#000000; stroke-linecap:round; stroke-linejoin:round; stroke-width:4; stroke-opacity:1; fill:none" points="444.969,349.801 463.867,349.801 "/>
<polyline clip-path="url(#clip410)" style="stroke:#000000; stroke-linecap:round; stroke-linejoin:round; stroke-width:4; stroke-opacity:1; fill:none" points="444.969,175.054 463.867,175.054 "/>
<path clip-path="url(#clip410)" d="M195.845 1228.52 L144.5 1228.52 L144.5 1219.61 L195.845 1219.61 L195.845 1228.52 Z" fill="#000000" fill-rule="nonzero" fill-opacity="1" /><path clip-path="url(#clip410)" d="M206.401 1224.07 Q206.401 1210.28 209.212 1201.89 Q212.076 1193.46 217.645 1188.9 Q223.268 1184.34 231.755 1184.34 Q238.014 1184.34 242.734 1186.88 Q247.455 1189.38 250.532 1194.15 Q253.608 1198.87 255.359 1205.71 Q257.109 1212.5 257.109 1224.07 Q257.109 1237.75 254.298 1246.18 Q251.486 1254.57 245.864 1259.18 Q240.295 1263.74 231.755 1263.74 Q220.51 1263.74 214.092 1255.68 Q206.401 1245.97 206.401 1224.07 M216.213 1224.07 Q216.213 1243.21 220.669 1249.58 Q225.177 1255.89 231.755 1255.89 Q238.332 1255.89 242.788 1249.53 Q247.296 1243.16 247.296 1224.07 Q247.296 1204.86 242.788 1198.55 Q238.332 1192.24 231.649 1192.24 Q225.071 1192.24 221.146 1197.81 Q216.213 1204.92 216.213 1224.07 Z" fill="#000000" fill-rule="nonzero" fill-opacity="1" /><path clip-path="url(#clip410)" d="M272.173 1262.42 L272.173 1251.54 L283.047 1251.54 L283.047 1262.42 L272.173 1262.42 Z" fill="#000000" fill-rule="nonzero" fill-opacity="1" /><path clip-path="url(#clip410)" d="M297.633 1194.84 L297.633 1185.66 L347.97 1185.66 L347.97 1193.09 Q340.544 1200.99 333.225 1214.09 Q325.958 1227.2 321.98 1241.04 Q319.115 1250.8 318.32 1262.42 L308.507 1262.42 Q308.666 1253.24 312.114 1240.24 Q315.562 1227.25 321.98 1215.21 Q328.451 1203.11 335.718 1194.84 L297.633 1194.84 Z" fill="#000000" fill-rule="nonzero" fill-opacity="1" /><path clip-path="url(#clip410)" d="M357.412 1242.05 L367.437 1241.2 Q368.551 1248.52 372.582 1252.23 Q376.666 1255.89 382.395 1255.89 Q389.29 1255.89 394.064 1250.69 Q398.838 1245.5 398.838 1236.9 Q398.838 1228.73 394.223 1224.01 Q389.662 1219.29 382.236 1219.29 Q377.621 1219.29 373.908 1221.41 Q370.195 1223.48 368.073 1226.82 L359.109 1225.66 L366.641 1185.72 L405.309 1185.72 L405.309 1194.84 L374.279 1194.84 L370.089 1215.74 Q377.091 1210.86 384.782 1210.86 Q394.966 1210.86 401.967 1217.91 Q408.969 1224.97 408.969 1236.05 Q408.969 1246.61 402.816 1254.3 Q395.337 1263.74 382.395 1263.74 Q371.786 1263.74 365.05 1257.8 Q358.367 1251.86 357.412 1242.05 Z" fill="#000000" fill-rule="nonzero" fill-opacity="1" /><path clip-path="url(#clip410)" d="M196.694 1053.77 L145.349 1053.77 L145.349 1044.86 L196.694 1044.86 L196.694 1053.77 Z" fill="#000000" fill-rule="nonzero" fill-opacity="1" /><path clip-path="url(#clip410)" d="M207.249 1049.32 Q207.249 1035.53 210.06 1027.15 Q212.925 1018.71 218.494 1014.15 Q224.117 1009.59 232.603 1009.59 Q238.862 1009.59 243.583 1012.14 Q248.304 1014.63 251.38 1019.4 Q254.457 1024.12 256.207 1030.97 Q257.958 1037.76 257.958 1049.32 Q257.958 1063 255.146 1071.44 Q252.335 1079.82 246.713 1084.43 Q241.143 1088.99 232.603 1088.99 Q221.358 1088.99 214.94 1080.93 Q207.249 1071.23 207.249 1049.32 M217.062 1049.32 Q217.062 1068.47 221.518 1074.83 Q226.026 1081.14 232.603 1081.14 Q239.181 1081.14 243.636 1074.78 Q248.145 1068.41 248.145 1049.32 Q248.145 1030.12 243.636 1023.81 Q239.181 1017.49 232.497 1017.49 Q225.92 1017.49 221.995 1023.06 Q217.062 1030.17 217.062 1049.32 Z" fill="#000000" fill-rule="nonzero" fill-opacity="1" /><path clip-path="url(#clip410)" d="M273.022 1087.67 L273.022 1076.8 L283.895 1076.8 L283.895 1087.67 L273.022 1087.67 Z" fill="#000000" fill-rule="nonzero" fill-opacity="1" /><path clip-path="url(#clip410)" d="M297.845 1067.3 L307.87 1066.45 Q308.984 1073.77 313.016 1077.48 Q317.1 1081.14 322.828 1081.14 Q329.724 1081.14 334.498 1075.95 Q339.271 1070.75 339.271 1062.16 Q339.271 1053.99 334.657 1049.27 Q330.095 1044.55 322.669 1044.55 Q318.055 1044.55 314.342 1046.67 Q310.629 1048.74 308.507 1052.08 L299.543 1050.91 L307.075 1010.97 L345.743 1010.97 L345.743 1020.09 L314.713 1020.09 L310.523 1040.99 Q317.524 1036.11 325.215 1036.11 Q335.399 1036.11 342.401 1043.17 Q349.403 1050.22 349.403 1061.31 Q349.403 1071.86 343.25 1079.55 Q335.771 1088.99 322.828 1088.99 Q312.22 1088.99 305.484 1083.05 Q298.8 1077.11 297.845 1067.3 Z" fill="#000000" fill-rule="nonzero" fill-opacity="1" /><path clip-path="url(#clip410)" d="M358.261 1049.32 Q358.261 1035.53 361.072 1027.15 Q363.936 1018.71 369.506 1014.15 Q375.128 1009.59 383.615 1009.59 Q389.874 1009.59 394.595 1012.14 Q399.315 1014.63 402.392 1019.4 Q405.468 1024.12 407.219 1030.97 Q408.969 1037.76 408.969 1049.32 Q408.969 1063 406.158 1071.44 Q403.347 1079.82 397.724 1084.43 Q392.155 1088.99 383.615 1088.99 Q372.37 1088.99 365.952 1080.93 Q358.261 1071.23 358.261 1049.32 M368.073 1049.32 Q368.073 1068.47 372.529 1074.83 Q377.038 1081.14 383.615 1081.14 Q390.192 1081.14 394.648 1074.78 Q399.156 1068.41 399.156 1049.32 Q399.156 1030.12 394.648 1023.81 Q390.192 1017.49 383.509 1017.49 Q376.931 1017.49 373.006 1023.06 Q368.073 1030.17 368.073 1049.32 Z" fill="#000000" fill-rule="nonzero" fill-opacity="1" /><path clip-path="url(#clip410)" d="M195.845 879.028 L144.5 879.028 L144.5 870.117 L195.845 870.117 L195.845 879.028 Z" fill="#000000" fill-rule="nonzero" fill-opacity="1" /><path clip-path="url(#clip410)" d="M206.401 874.572 Q206.401 860.781 209.212 852.401 Q212.076 843.967 217.645 839.405 Q223.268 834.844 231.755 834.844 Q238.014 834.844 242.734 837.39 Q247.455 839.883 250.532 844.657 Q253.608 849.377 255.359 856.22 Q257.109 863.009 257.109 874.572 Q257.109 888.257 254.298 896.691 Q251.486 905.072 245.864 909.686 Q240.295 914.248 231.755 914.248 Q220.51 914.248 214.092 906.186 Q206.401 896.479 206.401 874.572 M216.213 874.572 Q216.213 893.721 220.669 900.086 Q225.177 906.398 231.755 906.398 Q238.332 906.398 242.788 900.033 Q247.296 893.668 247.296 874.572 Q247.296 855.371 242.788 849.059 Q238.332 842.747 231.649 842.747 Q225.071 842.747 221.146 848.316 Q216.213 855.424 216.213 874.572 Z" fill="#000000" fill-rule="nonzero" fill-opacity="1" /><path clip-path="url(#clip410)" d="M272.173 912.922 L272.173 902.048 L283.047 902.048 L283.047 912.922 L272.173 912.922 Z" fill="#000000" fill-rule="nonzero" fill-opacity="1" /><path clip-path="url(#clip410)" d="M347.175 903.746 L347.175 912.922 L295.777 912.922 Q295.671 909.474 296.891 906.292 Q298.853 901.04 303.15 895.948 Q307.499 890.856 315.668 884.173 Q328.345 873.777 332.8 867.73 Q337.256 861.63 337.256 856.22 Q337.256 850.544 333.172 846.672 Q329.14 842.747 322.616 842.747 Q315.721 842.747 311.583 846.884 Q307.446 851.022 307.393 858.341 L297.58 857.334 Q298.588 846.354 305.165 840.625 Q311.743 834.844 322.828 834.844 Q334.02 834.844 340.544 841.05 Q347.069 847.256 347.069 856.432 Q347.069 861.1 345.159 865.608 Q343.25 870.117 338.794 875.103 Q334.392 880.089 324.101 888.788 Q315.509 896.001 313.069 898.601 Q310.629 901.147 309.037 903.746 L347.175 903.746 Z" fill="#000000" fill-rule="nonzero" fill-opacity="1" /><path clip-path="url(#clip410)" d="M357.412 892.554 L367.437 891.705 Q368.551 899.025 372.582 902.738 Q376.666 906.398 382.395 906.398 Q389.29 906.398 394.064 901.2 Q398.838 896.001 398.838 887.409 Q398.838 879.24 394.223 874.519 Q389.662 869.799 382.236 869.799 Q377.621 869.799 373.908 871.92 Q370.195 873.989 368.073 877.331 L359.109 876.164 L366.641 836.223 L405.309 836.223 L405.309 845.346 L374.279 845.346 L370.089 866.245 Q377.091 861.365 384.782 861.365 Q394.966 861.365 401.967 868.419 Q408.969 875.474 408.969 886.56 Q408.969 897.115 402.816 904.806 Q395.337 914.248 382.395 914.248 Q371.786 914.248 365.05 908.307 Q358.367 902.367 357.412 892.554 Z" fill="#000000" fill-rule="nonzero" fill-opacity="1" /><path clip-path="url(#clip410)" d="M207.249 699.826 Q207.249 686.035 210.06 677.654 Q212.925 669.22 218.494 664.658 Q224.117 660.097 232.603 660.097 Q238.862 660.097 243.583 662.643 Q248.304 665.136 251.38 669.91 Q254.457 674.63 256.207 681.473 Q257.958 688.262 257.958 699.826 Q257.958 713.51 255.146 721.944 Q252.335 730.325 246.713 734.94 Q241.143 739.501 232.603 739.501 Q221.358 739.501 214.94 731.439 Q207.249 721.732 207.249 699.826 M217.062 699.826 Q217.062 718.974 221.518 725.339 Q226.026 731.651 232.603 731.651 Q239.181 731.651 243.636 725.286 Q248.145 718.921 248.145 699.826 Q248.145 680.624 243.636 674.312 Q239.181 668 232.497 668 Q225.92 668 221.995 673.57 Q217.062 680.677 217.062 699.826 Z" fill="#000000" fill-rule="nonzero" fill-opacity="1" /><path clip-path="url(#clip410)" d="M273.022 738.175 L273.022 727.301 L283.895 727.301 L283.895 738.175 L273.022 738.175 Z" fill="#000000" fill-rule="nonzero" fill-opacity="1" /><path clip-path="url(#clip410)" d="M297.845 699.826 Q297.845 686.035 300.657 677.654 Q303.521 669.22 309.09 664.658 Q314.713 660.097 323.2 660.097 Q329.459 660.097 334.179 662.643 Q338.9 665.136 341.977 669.91 Q345.053 674.63 346.803 681.473 Q348.554 688.262 348.554 699.826 Q348.554 713.51 345.743 721.944 Q342.931 730.325 337.309 734.94 Q331.739 739.501 323.2 739.501 Q311.955 739.501 305.537 731.439 Q297.845 721.732 297.845 699.826 M307.658 699.826 Q307.658 718.974 312.114 725.339 Q316.622 731.651 323.2 731.651 Q329.777 731.651 334.232 725.286 Q338.741 718.921 338.741 699.826 Q338.741 680.624 334.232 674.312 Q329.777 668 323.094 668 Q316.516 668 312.591 673.57 Q307.658 680.677 307.658 699.826 Z" fill="#000000" fill-rule="nonzero" fill-opacity="1" /><path clip-path="url(#clip410)" d="M358.261 699.826 Q358.261 686.035 361.072 677.654 Q363.936 669.22 369.506 664.658 Q375.128 660.097 383.615 660.097 Q389.874 660.097 394.595 662.643 Q399.315 665.136 402.392 669.91 Q405.468 674.63 407.219 681.473 Q408.969 688.262 408.969 699.826 Q408.969 713.51 406.158 721.944 Q403.347 730.325 397.724 734.94 Q392.155 739.501 383.615 739.501 Q372.37 739.501 365.952 731.439 Q358.261 721.732 358.261 699.826 M368.073 699.826 Q368.073 718.974 372.529 725.339 Q377.038 731.651 383.615 731.651 Q390.192 731.651 394.648 725.286 Q399.156 718.921 399.156 699.826 Q399.156 680.624 394.648 674.312 Q390.192 668 383.509 668 Q376.931 668 373.006 673.57 Q368.073 680.677 368.073 699.826 Z" fill="#000000" fill-rule="nonzero" fill-opacity="1" /><path clip-path="url(#clip410)" d="M206.401 525.079 Q206.401 511.288 209.212 502.907 Q212.076 494.473 217.645 489.912 Q223.268 485.35 231.755 485.35 Q238.014 485.35 242.734 487.896 Q247.455 490.389 250.532 495.163 Q253.608 499.884 255.359 506.726 Q257.109 513.515 257.109 525.079 Q257.109 538.764 254.298 547.197 Q251.486 555.578 245.864 560.193 Q240.295 564.754 231.755 564.754 Q220.51 564.754 214.092 556.692 Q206.401 546.985 206.401 525.079 M216.213 525.079 Q216.213 544.227 220.669 550.592 Q225.177 556.904 231.755 556.904 Q238.332 556.904 242.788 550.539 Q247.296 544.174 247.296 525.079 Q247.296 505.877 242.788 499.565 Q238.332 493.253 231.649 493.253 Q225.071 493.253 221.146 498.823 Q216.213 505.93 216.213 525.079 Z" fill="#000000" fill-rule="nonzero" fill-opacity="1" /><path clip-path="url(#clip410)" d="M272.173 563.428 L272.173 552.555 L283.047 552.555 L283.047 563.428 L272.173 563.428 Z" fill="#000000" fill-rule="nonzero" fill-opacity="1" /><path clip-path="url(#clip410)" d="M347.175 554.252 L347.175 563.428 L295.777 563.428 Q295.671 559.98 296.891 556.798 Q298.853 551.547 303.15 546.455 Q307.499 541.363 315.668 534.679 Q328.345 524.283 332.8 518.236 Q337.256 512.136 337.256 506.726 Q337.256 501.05 333.172 497.178 Q329.14 493.253 322.616 493.253 Q315.721 493.253 311.583 497.391 Q307.446 501.528 307.393 508.848 L297.58 507.84 Q298.588 496.86 305.165 491.132 Q311.743 485.35 322.828 485.35 Q334.02 485.35 340.544 491.556 Q347.069 497.762 347.069 506.938 Q347.069 511.606 345.159 516.114 Q343.25 520.623 338.794 525.609 Q334.392 530.595 324.101 539.294 Q315.509 546.508 313.069 549.107 Q310.629 551.653 309.037 554.252 L347.175 554.252 Z" fill="#000000" fill-rule="nonzero" fill-opacity="1" /><path clip-path="url(#clip410)" d="M357.412 543.06 L367.437 542.211 Q368.551 549.531 372.582 553.244 Q376.666 556.904 382.395 556.904 Q389.29 556.904 394.064 551.706 Q398.838 546.508 398.838 537.915 Q398.838 529.746 394.223 525.026 Q389.662 520.305 382.236 520.305 Q377.621 520.305 373.908 522.427 Q370.195 524.495 368.073 527.837 L359.109 526.67 L366.641 486.729 L405.309 486.729 L405.309 495.852 L374.279 495.852 L370.089 516.751 Q377.091 511.871 384.782 511.871 Q394.966 511.871 401.967 518.926 Q408.969 525.98 408.969 537.066 Q408.969 547.622 402.816 555.313 Q395.337 564.754 382.395 564.754 Q371.786 564.754 365.05 558.814 Q358.367 552.873 357.412 543.06 Z" fill="#000000" fill-rule="nonzero" fill-opacity="1" /><path clip-path="url(#clip410)" d="M207.249 350.332 Q207.249 336.541 210.06 328.16 Q212.925 319.726 218.494 315.165 Q224.117 310.603 232.603 310.603 Q238.862 310.603 243.583 313.149 Q248.304 315.642 251.38 320.416 Q254.457 325.137 256.207 331.979 Q257.958 338.769 257.958 350.332 Q257.958 364.017 255.146 372.45 Q252.335 380.831 246.713 385.446 Q241.143 390.007 232.603 390.007 Q221.358 390.007 214.94 381.945 Q207.249 372.238 207.249 350.332 M217.062 350.332 Q217.062 369.48 221.518 375.845 Q226.026 382.157 232.603 382.157 Q239.181 382.157 243.636 375.792 Q248.145 369.427 248.145 350.332 Q248.145 331.13 243.636 324.818 Q239.181 318.506 232.497 318.506 Q225.92 318.506 221.995 324.076 Q217.062 331.183 217.062 350.332 Z" fill="#000000" fill-rule="nonzero" fill-opacity="1" /><path clip-path="url(#clip410)" d="M273.022 388.681 L273.022 377.808 L283.895 377.808 L283.895 388.681 L273.022 388.681 Z" fill="#000000" fill-rule="nonzero" fill-opacity="1" /><path clip-path="url(#clip410)" d="M297.845 368.313 L307.87 367.464 Q308.984 374.784 313.016 378.497 Q317.1 382.157 322.828 382.157 Q329.724 382.157 334.498 376.959 Q339.271 371.761 339.271 363.168 Q339.271 354.999 334.657 350.279 Q330.095 345.558 322.669 345.558 Q318.055 345.558 314.342 347.68 Q310.629 349.748 308.507 353.09 L299.543 351.923 L307.075 311.982 L345.743 311.982 L345.743 321.105 L314.713 321.105 L310.523 342.004 Q317.524 337.124 325.215 337.124 Q335.399 337.124 342.401 344.179 Q349.403 351.233 349.403 362.319 Q349.403 372.875 343.25 380.566 Q335.771 390.007 322.828 390.007 Q312.22 390.007 305.484 384.067 Q298.8 378.126 297.845 368.313 Z" fill="#000000" fill-rule="nonzero" fill-opacity="1" /><path clip-path="url(#clip410)" d="M358.261 350.332 Q358.261 336.541 361.072 328.16 Q363.936 319.726 369.506 315.165 Q375.128 310.603 383.615 310.603 Q389.874 310.603 394.595 313.149 Q399.315 315.642 402.392 320.416 Q405.468 325.137 407.219 331.979 Q408.969 338.769 408.969 350.332 Q408.969 364.017 406.158 372.45 Q403.347 380.831 397.724 385.446 Q392.155 390.007 383.615 390.007 Q372.37 390.007 365.952 381.945 Q358.261 372.238 358.261 350.332 M368.073 350.332 Q368.073 369.48 372.529 375.845 Q377.038 382.157 383.615 382.157 Q390.192 382.157 394.648 375.792 Q399.156 369.427 399.156 350.332 Q399.156 331.13 394.648 324.818 Q390.192 318.506 383.509 318.506 Q376.931 318.506 373.006 324.076 Q368.073 331.183 368.073 350.332 Z" fill="#000000" fill-rule="nonzero" fill-opacity="1" /><path clip-path="url(#clip410)" d="M206.401 175.585 Q206.401 161.794 209.212 153.413 Q212.076 144.979 217.645 140.418 Q223.268 135.856 231.755 135.856 Q238.014 135.856 242.734 138.402 Q247.455 140.895 250.532 145.669 Q253.608 150.39 255.359 157.232 Q257.109 164.022 257.109 175.585 Q257.109 189.27 254.298 197.704 Q251.486 206.084 245.864 210.699 Q240.295 215.261 231.755 215.261 Q220.51 215.261 214.092 207.198 Q206.401 197.491 206.401 175.585 M216.213 175.585 Q216.213 194.733 220.669 201.098 Q225.177 207.41 231.755 207.41 Q238.332 207.41 242.788 201.045 Q247.296 194.68 247.296 175.585 Q247.296 156.384 242.788 150.072 Q238.332 143.76 231.649 143.76 Q225.071 143.76 221.146 149.329 Q216.213 156.437 216.213 175.585 Z" fill="#000000" fill-rule="nonzero" fill-opacity="1" /><path clip-path="url(#clip410)" d="M272.173 213.934 L272.173 203.061 L283.047 203.061 L283.047 213.934 L272.173 213.934 Z" fill="#000000" fill-rule="nonzero" fill-opacity="1" /><path clip-path="url(#clip410)" d="M297.633 146.359 L297.633 137.182 L347.97 137.182 L347.97 144.608 Q340.544 152.511 333.225 165.613 Q325.958 178.714 321.98 192.558 Q319.115 202.318 318.32 213.934 L308.507 213.934 Q308.666 204.758 312.114 191.763 Q315.562 178.767 321.98 166.727 Q328.451 154.633 335.718 146.359 L297.633 146.359 Z" fill="#000000" fill-rule="nonzero" fill-opacity="1" /><path clip-path="url(#clip410)" d="M357.412 193.566 L367.437 192.718 Q368.551 200.037 372.582 203.75 Q376.666 207.41 382.395 207.41 Q389.29 207.41 394.064 202.212 Q398.838 197.014 398.838 188.421 Q398.838 180.253 394.223 175.532 Q389.662 170.811 382.236 170.811 Q377.621 170.811 373.908 172.933 Q370.195 175.001 368.073 178.343 L359.109 177.176 L366.641 137.235 L405.309 137.235 L405.309 146.359 L374.279 146.359 L370.089 167.257 Q377.091 162.377 384.782 162.377 Q394.966 162.377 401.967 169.432 Q408.969 176.487 408.969 187.572 Q408.969 198.128 402.816 205.819 Q395.337 215.261 382.395 215.261 Q371.786 215.261 365.05 209.32 Q358.367 203.379 357.412 193.566 Z" fill="#000000" fill-rule="nonzero" fill-opacity="1" /><path clip-path="url(#clip410)" d="M69.9417 751.882 L66.6215 751.882 Q66.6215 743.45 60.1394 738.075 Q60.1394 738.075 47.2804 727.956 L33.3675 738.654 Q28.5191 742.449 27.6759 744.135 Q26.7799 745.769 26.7799 751.355 L23.4071 751.355 Q23.7233 746.928 23.7233 741.131 Q23.7233 737.917 23.4071 729.432 L26.7799 729.432 Q26.9907 733.226 29.4677 733.226 Q30.3109 733.226 31.4176 732.278 L42.3266 723.846 L33.8945 717.153 Q31.9446 715.519 30.1001 715.519 Q27.0962 715.519 26.7799 718.681 L23.4071 718.681 Q23.7233 714.465 23.7233 708.299 Q23.7233 703.661 23.4071 699.445 L26.7799 699.445 Q26.9907 707.667 32.3662 712.304 Q34.6323 714.36 44.5927 722.212 L63.2487 707.772 Q65.5148 706.033 66.0945 704.083 Q66.6215 702.133 66.6215 697.495 L69.9417 697.495 Q69.6255 702.344 69.6255 707.877 Q69.6255 709.827 69.9417 719.524 L66.6215 719.524 Q66.5161 717.574 65.6729 716.626 Q64.777 715.624 63.8811 715.624 Q63.4595 715.624 60.3502 717.89 L49.5466 726.112 Q59.2435 734.333 61.5096 735.387 Q62.4582 735.809 63.2487 735.809 Q66.1472 735.809 66.6215 732.699 L69.9417 732.699 Q69.6255 740.446 69.6255 742.923 Q69.6255 747.666 69.9417 751.882 Z" fill="#000000" fill-rule="nonzero" fill-opacity="1" /><path clip-path="url(#clip410)" d="M99.8404 686.503 Q98.4755 686.503 98.0697 686.392 Q97.6639 686.245 97.0367 685.654 L80.8788 671.157 Q71.9513 663.225 64.1674 663.225 Q59.1135 663.225 55.4982 665.881 Q51.883 668.5 51.883 673.333 Q51.883 676.653 53.9119 679.457 Q55.9409 682.261 59.5561 683.552 Q59.4824 683.33 59.4824 682.556 Q59.4824 680.674 60.6629 679.641 Q61.8433 678.571 63.4296 678.571 Q65.4586 678.571 66.4546 679.9 Q67.4138 681.191 67.4138 682.482 Q67.4138 682.998 67.3031 683.699 Q67.1924 684.363 66.1595 685.433 Q65.0897 686.503 63.2083 686.503 Q57.933 686.503 53.7275 682.519 Q49.522 678.498 49.522 672.374 Q49.522 665.439 53.6537 660.901 Q57.7485 656.327 64.1674 656.327 Q66.4178 656.327 68.4836 657.028 Q70.5126 657.692 72.0989 658.614 Q73.6851 659.499 76.2306 661.934 Q78.776 664.369 80.5836 666.324 Q82.3913 668.279 86.2279 672.669 L94.0117 680.674 L94.0117 667.062 Q94.0117 660.421 93.4215 659.905 Q92.3517 659.167 86.7074 658.245 L86.7074 656.327 L99.8404 658.466 L99.8404 686.503 Z" fill="#000000" fill-rule="nonzero" fill-opacity="1" /><circle clip-path="url(#clip412)" cx="1092.3" cy="614.156" r="14.4" fill="#009af9" fill-rule="evenodd" fill-opacity="1" stroke="#000000" stroke-opacity="1" stroke-width="3.2"/>
<circle clip-path="url(#clip412)" cx="1464.17" cy="764.333" r="14.4" fill="#009af9" fill-rule="evenodd" fill-opacity="1" stroke="#000000" stroke-opacity="1" stroke-width="3.2"/>
<circle clip-path="url(#clip412)" cx="1311.84" cy="440.279" r="14.4" fill="#009af9" fill-rule="evenodd" fill-opacity="1" stroke="#000000" stroke-opacity="1" stroke-width="3.2"/>
<circle clip-path="url(#clip412)" cx="1365.34" cy="469.045" r="14.4" fill="#009af9" fill-rule="evenodd" fill-opacity="1" stroke="#000000" stroke-opacity="1" stroke-width="3.2"/>
<circle clip-path="url(#clip412)" cx="1010.66" cy="610.292" r="14.4" fill="#009af9" fill-rule="evenodd" fill-opacity="1" stroke="#000000" stroke-opacity="1" stroke-width="3.2"/>
<circle clip-path="url(#clip412)" cx="1300.58" cy="660.42" r="14.4" fill="#009af9" fill-rule="evenodd" fill-opacity="1" stroke="#000000" stroke-opacity="1" stroke-width="3.2"/>
<circle clip-path="url(#clip412)" cx="1212.67" cy="535.839" r="14.4" fill="#009af9" fill-rule="evenodd" fill-opacity="1" stroke="#000000" stroke-opacity="1" stroke-width="3.2"/>
<circle clip-path="url(#clip412)" cx="1270.41" cy="654.782" r="14.4" fill="#009af9" fill-rule="evenodd" fill-opacity="1" stroke="#000000" stroke-opacity="1" stroke-width="3.2"/>
<circle clip-path="url(#clip412)" cx="1356.64" cy="576.692" r="14.4" fill="#009af9" fill-rule="evenodd" fill-opacity="1" stroke="#000000" stroke-opacity="1" stroke-width="3.2"/>
<circle clip-path="url(#clip412)" cx="1716.61" cy="710.398" r="14.4" fill="#009af9" fill-rule="evenodd" fill-opacity="1" stroke="#000000" stroke-opacity="1" stroke-width="3.2"/>
<circle clip-path="url(#clip412)" cx="1436.56" cy="751.426" r="14.4" fill="#009af9" fill-rule="evenodd" fill-opacity="1" stroke="#000000" stroke-opacity="1" stroke-width="3.2"/>
<circle clip-path="url(#clip412)" cx="1249.16" cy="635.067" r="14.4" fill="#009af9" fill-rule="evenodd" fill-opacity="1" stroke="#000000" stroke-opacity="1" stroke-width="3.2"/>
<circle clip-path="url(#clip412)" cx="1571.16" cy="723.731" r="14.4" fill="#009af9" fill-rule="evenodd" fill-opacity="1" stroke="#000000" stroke-opacity="1" stroke-width="3.2"/>
<circle clip-path="url(#clip412)" cx="1365.81" cy="879.838" r="14.4" fill="#009af9" fill-rule="evenodd" fill-opacity="1" stroke="#000000" stroke-opacity="1" stroke-width="3.2"/>
<circle clip-path="url(#clip412)" cx="1733.96" cy="648.168" r="14.4" fill="#009af9" fill-rule="evenodd" fill-opacity="1" stroke="#000000" stroke-opacity="1" stroke-width="3.2"/>
<circle clip-path="url(#clip412)" cx="1716.82" cy="719.475" r="14.4" fill="#009af9" fill-rule="evenodd" fill-opacity="1" stroke="#000000" stroke-opacity="1" stroke-width="3.2"/>
<circle clip-path="url(#clip412)" cx="1129.02" cy="747.035" r="14.4" fill="#009af9" fill-rule="evenodd" fill-opacity="1" stroke="#000000" stroke-opacity="1" stroke-width="3.2"/>
<circle clip-path="url(#clip412)" cx="1236.44" cy="549.155" r="14.4" fill="#009af9" fill-rule="evenodd" fill-opacity="1" stroke="#000000" stroke-opacity="1" stroke-width="3.2"/>
<circle clip-path="url(#clip412)" cx="1296.74" cy="778.185" r="14.4" fill="#009af9" fill-rule="evenodd" fill-opacity="1" stroke="#000000" stroke-opacity="1" stroke-width="3.2"/>
<circle clip-path="url(#clip412)" cx="1164.14" cy="827.615" r="14.4" fill="#009af9" fill-rule="evenodd" fill-opacity="1" stroke="#000000" stroke-opacity="1" stroke-width="3.2"/>
<circle clip-path="url(#clip412)" cx="1037.55" cy="562.798" r="14.4" fill="#009af9" fill-rule="evenodd" fill-opacity="1" stroke="#000000" stroke-opacity="1" stroke-width="3.2"/>
<circle clip-path="url(#clip412)" cx="1621.44" cy="681.953" r="14.4" fill="#009af9" fill-rule="evenodd" fill-opacity="1" stroke="#000000" stroke-opacity="1" stroke-width="3.2"/>
<circle clip-path="url(#clip412)" cx="1431.72" cy="580.299" r="14.4" fill="#009af9" fill-rule="evenodd" fill-opacity="1" stroke="#000000" stroke-opacity="1" stroke-width="3.2"/>
<circle clip-path="url(#clip412)" cx="1552.52" cy="887.38" r="14.4" fill="#009af9" fill-rule="evenodd" fill-opacity="1" stroke="#000000" stroke-opacity="1" stroke-width="3.2"/>
<circle clip-path="url(#clip412)" cx="1716.29" cy="591.726" r="14.4" fill="#009af9" fill-rule="evenodd" fill-opacity="1" stroke="#000000" stroke-opacity="1" stroke-width="3.2"/>
<circle clip-path="url(#clip412)" cx="1256.77" cy="573.23" r="14.4" fill="#009af9" fill-rule="evenodd" fill-opacity="1" stroke="#000000" stroke-opacity="1" stroke-width="3.2"/>
<circle clip-path="url(#clip412)" cx="1567.89" cy="798.265" r="14.4" fill="#009af9" fill-rule="evenodd" fill-opacity="1" stroke="#000000" stroke-opacity="1" stroke-width="3.2"/>
<circle clip-path="url(#clip412)" cx="1522.92" cy="476.577" r="14.4" fill="#009af9" fill-rule="evenodd" fill-opacity="1" stroke="#000000" stroke-opacity="1" stroke-width="3.2"/>
<circle clip-path="url(#clip412)" cx="1673" cy="726.766" r="14.4" fill="#009af9" fill-rule="evenodd" fill-opacity="1" stroke="#000000" stroke-opacity="1" stroke-width="3.2"/>
<circle clip-path="url(#clip412)" cx="1334.16" cy="841.487" r="14.4" fill="#009af9" fill-rule="evenodd" fill-opacity="1" stroke="#000000" stroke-opacity="1" stroke-width="3.2"/>
<circle clip-path="url(#clip412)" cx="1573.09" cy="924.562" r="14.4" fill="#009af9" fill-rule="evenodd" fill-opacity="1" stroke="#000000" stroke-opacity="1" stroke-width="3.2"/>
<circle clip-path="url(#clip412)" cx="1223.92" cy="720.681" r="14.4" fill="#009af9" fill-rule="evenodd" fill-opacity="1" stroke="#000000" stroke-opacity="1" stroke-width="3.2"/>
<circle clip-path="url(#clip412)" cx="1479.96" cy="531.759" r="14.4" fill="#009af9" fill-rule="evenodd" fill-opacity="1" stroke="#000000" stroke-opacity="1" stroke-width="3.2"/>
<circle clip-path="url(#clip412)" cx="1184.76" cy="513.428" r="14.4" fill="#009af9" fill-rule="evenodd" fill-opacity="1" stroke="#000000" stroke-opacity="1" stroke-width="3.2"/>
<circle clip-path="url(#clip412)" cx="1419.22" cy="849.91" r="14.4" fill="#009af9" fill-rule="evenodd" fill-opacity="1" stroke="#000000" stroke-opacity="1" stroke-width="3.2"/>
<circle clip-path="url(#clip412)" cx="1646.01" cy="768.72" r="14.4" fill="#009af9" fill-rule="evenodd" fill-opacity="1" stroke="#000000" stroke-opacity="1" stroke-width="3.2"/>
<circle clip-path="url(#clip412)" cx="1641.32" cy="768.643" r="14.4" fill="#009af9" fill-rule="evenodd" fill-opacity="1" stroke="#000000" stroke-opacity="1" stroke-width="3.2"/>
<circle clip-path="url(#clip412)" cx="1182.48" cy="740.365" r="14.4" fill="#009af9" fill-rule="evenodd" fill-opacity="1" stroke="#000000" stroke-opacity="1" stroke-width="3.2"/>
<circle clip-path="url(#clip412)" cx="981.138" cy="709.743" r="14.4" fill="#009af9" fill-rule="evenodd" fill-opacity="1" stroke="#000000" stroke-opacity="1" stroke-width="3.2"/>
<circle clip-path="url(#clip412)" cx="1519.14" cy="861.115" r="14.4" fill="#009af9" fill-rule="evenodd" fill-opacity="1" stroke="#000000" stroke-opacity="1" stroke-width="3.2"/>
<circle clip-path="url(#clip412)" cx="1159.2" cy="548.996" r="14.4" fill="#009af9" fill-rule="evenodd" fill-opacity="1" stroke="#000000" stroke-opacity="1" stroke-width="3.2"/>
<circle clip-path="url(#clip412)" cx="1476.21" cy="786.36" r="14.4" fill="#009af9" fill-rule="evenodd" fill-opacity="1" stroke="#000000" stroke-opacity="1" stroke-width="3.2"/>
<circle clip-path="url(#clip412)" cx="1415.65" cy="751.377" r="14.4" fill="#009af9" fill-rule="evenodd" fill-opacity="1" stroke="#000000" stroke-opacity="1" stroke-width="3.2"/>
<circle clip-path="url(#clip412)" cx="1615.76" cy="674.311" r="14.4" fill="#009af9" fill-rule="evenodd" fill-opacity="1" stroke="#000000" stroke-opacity="1" stroke-width="3.2"/>
<circle clip-path="url(#clip412)" cx="1218.22" cy="651.594" r="14.4" fill="#009af9" fill-rule="evenodd" fill-opacity="1" stroke="#000000" stroke-opacity="1" stroke-width="3.2"/>
<circle clip-path="url(#clip412)" cx="1485.62" cy="819.815" r="14.4" fill="#009af9" fill-rule="evenodd" fill-opacity="1" stroke="#000000" stroke-opacity="1" stroke-width="3.2"/>
<circle clip-path="url(#clip412)" cx="1322.18" cy="728.005" r="14.4" fill="#009af9" fill-rule="evenodd" fill-opacity="1" stroke="#000000" stroke-opacity="1" stroke-width="3.2"/>
<circle clip-path="url(#clip412)" cx="1638.38" cy="516.243" r="14.4" fill="#009af9" fill-rule="evenodd" fill-opacity="1" stroke="#000000" stroke-opacity="1" stroke-width="3.2"/>
<circle clip-path="url(#clip412)" cx="1541.45" cy="583.954" r="14.4" fill="#009af9" fill-rule="evenodd" fill-opacity="1" stroke="#000000" stroke-opacity="1" stroke-width="3.2"/>
<circle clip-path="url(#clip412)" cx="1404.79" cy="913.501" r="14.4" fill="#009af9" fill-rule="evenodd" fill-opacity="1" stroke="#000000" stroke-opacity="1" stroke-width="3.2"/>
<circle clip-path="url(#clip412)" cx="1118.91" cy="737.199" r="14.4" fill="#009af9" fill-rule="evenodd" fill-opacity="1" stroke="#000000" stroke-opacity="1" stroke-width="3.2"/>
<circle clip-path="url(#clip412)" cx="1463.68" cy="1215.38" r="14.4" fill="#e26f46" fill-rule="evenodd" fill-opacity="1" stroke="#000000" stroke-opacity="1" stroke-width="3.2"/>
<circle clip-path="url(#clip412)" cx="1172.46" cy="1349.74" r="14.4" fill="#e26f46" fill-rule="evenodd" fill-opacity="1" stroke="#000000" stroke-opacity="1" stroke-width="3.2"/>
<circle clip-path="url(#clip412)" cx="1541.69" cy="288.298" r="14.4" fill="#e26f46" fill-rule="evenodd" fill-opacity="1" stroke="#000000" stroke-opacity="1" stroke-width="3.2"/>
<circle clip-path="url(#clip412)" cx="561.84" cy="1023.06" r="14.4" fill="#e26f46" fill-rule="evenodd" fill-opacity="1" stroke="#000000" stroke-opacity="1" stroke-width="3.2"/>
<circle clip-path="url(#clip412)" cx="2187.98" cy="895.804" r="14.4" fill="#e26f46" fill-rule="evenodd" fill-opacity="1" stroke="#000000" stroke-opacity="1" stroke-width="3.2"/>
<circle clip-path="url(#clip412)" cx="2352.76" cy="725.039" r="14.4" fill="#e26f46" fill-rule="evenodd" fill-opacity="1" stroke="#000000" stroke-opacity="1" stroke-width="3.2"/>
<circle clip-path="url(#clip412)" cx="2038.75" cy="1156.58" r="14.4" fill="#e26f46" fill-rule="evenodd" fill-opacity="1" stroke="#000000" stroke-opacity="1" stroke-width="3.2"/>
<circle clip-path="url(#clip412)" cx="839.342" cy="1220.4" r="14.4" fill="#e26f46" fill-rule="evenodd" fill-opacity="1" stroke="#000000" stroke-opacity="1" stroke-width="3.2"/>
<circle clip-path="url(#clip412)" cx="1407.55" cy="1275.87" r="14.4" fill="#e26f46" fill-rule="evenodd" fill-opacity="1" stroke="#000000" stroke-opacity="1" stroke-width="3.2"/>
<circle clip-path="url(#clip412)" cx="945.267" cy="1213.5" r="14.4" fill="#e26f46" fill-rule="evenodd" fill-opacity="1" stroke="#000000" stroke-opacity="1" stroke-width="3.2"/>
<circle clip-path="url(#clip412)" cx="1397.5" cy="89.4938" r="14.4" fill="#e26f46" fill-rule="evenodd" fill-opacity="1" stroke="#000000" stroke-opacity="1" stroke-width="3.2"/>
<circle clip-path="url(#clip412)" cx="670.843" cy="219.961" r="14.4" fill="#e26f46" fill-rule="evenodd" fill-opacity="1" stroke="#000000" stroke-opacity="1" stroke-width="3.2"/>
<circle clip-path="url(#clip412)" cx="2300.9" cy="632.75" r="14.4" fill="#e26f46" fill-rule="evenodd" fill-opacity="1" stroke="#000000" stroke-opacity="1" stroke-width="3.2"/>
<circle clip-path="url(#clip412)" cx="1871.79" cy="231.455" r="14.4" fill="#e26f46" fill-rule="evenodd" fill-opacity="1" stroke="#000000" stroke-opacity="1" stroke-width="3.2"/>
<circle clip-path="url(#clip412)" cx="1808.79" cy="1161.78" r="14.4" fill="#e26f46" fill-rule="evenodd" fill-opacity="1" stroke="#000000" stroke-opacity="1" stroke-width="3.2"/>
<circle clip-path="url(#clip412)" cx="527.473" cy="797.775" r="14.4" fill="#e26f46" fill-rule="evenodd" fill-opacity="1" stroke="#000000" stroke-opacity="1" stroke-width="3.2"/>
<circle clip-path="url(#clip412)" cx="1232.54" cy="77.7296" r="14.4" fill="#e26f46" fill-rule="evenodd" fill-opacity="1" stroke="#000000" stroke-opacity="1" stroke-width="3.2"/>
<circle clip-path="url(#clip412)" cx="1345.27" cy="1138.59" r="14.4" fill="#e26f46" fill-rule="evenodd" fill-opacity="1" stroke="#000000" stroke-opacity="1" stroke-width="3.2"/>
<circle clip-path="url(#clip412)" cx="1967.38" cy="836.944" r="14.4" fill="#e26f46" fill-rule="evenodd" fill-opacity="1" stroke="#000000" stroke-opacity="1" stroke-width="3.2"/>
<circle clip-path="url(#clip412)" cx="539.569" cy="996.089" r="14.4" fill="#e26f46" fill-rule="evenodd" fill-opacity="1" stroke="#000000" stroke-opacity="1" stroke-width="3.2"/>
<circle clip-path="url(#clip412)" cx="1275.13" cy="181.239" r="14.4" fill="#e26f46" fill-rule="evenodd" fill-opacity="1" stroke="#000000" stroke-opacity="1" stroke-width="3.2"/>
<circle clip-path="url(#clip412)" cx="1780.72" cy="375.34" r="14.4" fill="#e26f46" fill-rule="evenodd" fill-opacity="1" stroke="#000000" stroke-opacity="1" stroke-width="3.2"/>
<circle clip-path="url(#clip412)" cx="712.564" cy="753.708" r="14.4" fill="#e26f46" fill-rule="evenodd" fill-opacity="1" stroke="#000000" stroke-opacity="1" stroke-width="3.2"/>
<circle clip-path="url(#clip412)" cx="2304.83" cy="973.237" r="14.4" fill="#e26f46" fill-rule="evenodd" fill-opacity="1" stroke="#000000" stroke-opacity="1" stroke-width="3.2"/>
<circle clip-path="url(#clip412)" cx="861.089" cy="395.745" r="14.4" fill="#e26f46" fill-rule="evenodd" fill-opacity="1" stroke="#000000" stroke-opacity="1" stroke-width="3.2"/>
<circle clip-path="url(#clip412)" cx="989.96" cy="1097.83" r="14.4" fill="#e26f46" fill-rule="evenodd" fill-opacity="1" stroke="#000000" stroke-opacity="1" stroke-width="3.2"/>
<circle clip-path="url(#clip412)" cx="1158.14" cy="1220.43" r="14.4" fill="#e26f46" fill-rule="evenodd" fill-opacity="1" stroke="#000000" stroke-opacity="1" stroke-width="3.2"/>
<circle clip-path="url(#clip412)" cx="1850.24" cy="413.969" r="14.4" fill="#e26f46" fill-rule="evenodd" fill-opacity="1" stroke="#000000" stroke-opacity="1" stroke-width="3.2"/>
<circle clip-path="url(#clip412)" cx="692.631" cy="724.045" r="14.4" fill="#e26f46" fill-rule="evenodd" fill-opacity="1" stroke="#000000" stroke-opacity="1" stroke-width="3.2"/>
<circle clip-path="url(#clip412)" cx="1821.91" cy="1279.47" r="14.4" fill="#e26f46" fill-rule="evenodd" fill-opacity="1" stroke="#000000" stroke-opacity="1" stroke-width="3.2"/>
<circle clip-path="url(#clip412)" cx="1404.07" cy="1170.63" r="14.4" fill="#e26f46" fill-rule="evenodd" fill-opacity="1" stroke="#000000" stroke-opacity="1" stroke-width="3.2"/>
<circle clip-path="url(#clip412)" cx="2020.28" cy="266.182" r="14.4" fill="#e26f46" fill-rule="evenodd" fill-opacity="1" stroke="#000000" stroke-opacity="1" stroke-width="3.2"/>
<circle clip-path="url(#clip412)" cx="1506.66" cy="170.292" r="14.4" fill="#e26f46" fill-rule="evenodd" fill-opacity="1" stroke="#000000" stroke-opacity="1" stroke-width="3.2"/>
<circle clip-path="url(#clip412)" cx="1492.67" cy="47.2441" r="14.4" fill="#e26f46" fill-rule="evenodd" fill-opacity="1" stroke="#000000" stroke-opacity="1" stroke-width="3.2"/>
<circle clip-path="url(#clip412)" cx="579.831" cy="758.911" r="14.4" fill="#e26f46" fill-rule="evenodd" fill-opacity="1" stroke="#000000" stroke-opacity="1" stroke-width="3.2"/>
<circle clip-path="url(#clip412)" cx="2298.6" cy="644.746" r="14.4" fill="#e26f46" fill-rule="evenodd" fill-opacity="1" stroke="#000000" stroke-opacity="1" stroke-width="3.2"/>
<circle clip-path="url(#clip412)" cx="713.112" cy="211.153" r="14.4" fill="#e26f46" fill-rule="evenodd" fill-opacity="1" stroke="#000000" stroke-opacity="1" stroke-width="3.2"/>
<circle clip-path="url(#clip412)" cx="824.714" cy="252.461" r="14.4" fill="#e26f46" fill-rule="evenodd" fill-opacity="1" stroke="#000000" stroke-opacity="1" stroke-width="3.2"/>
<circle clip-path="url(#clip412)" cx="1647.78" cy="1335.16" r="14.4" fill="#e26f46" fill-rule="evenodd" fill-opacity="1" stroke="#000000" stroke-opacity="1" stroke-width="3.2"/>
<circle clip-path="url(#clip412)" cx="824.915" cy="140.882" r="14.4" fill="#e26f46" fill-rule="evenodd" fill-opacity="1" stroke="#000000" stroke-opacity="1" stroke-width="3.2"/>
<circle clip-path="url(#clip412)" cx="572.201" cy="626.204" r="14.4" fill="#e26f46" fill-rule="evenodd" fill-opacity="1" stroke="#000000" stroke-opacity="1" stroke-width="3.2"/>
<circle clip-path="url(#clip412)" cx="2346" cy="592.973" r="14.4" fill="#e26f46" fill-rule="evenodd" fill-opacity="1" stroke="#000000" stroke-opacity="1" stroke-width="3.2"/>
<circle clip-path="url(#clip412)" cx="931.901" cy="115.447" r="14.4" fill="#e26f46" fill-rule="evenodd" fill-opacity="1" stroke="#000000" stroke-opacity="1" stroke-width="3.2"/>
<circle clip-path="url(#clip412)" cx="2227.36" cy="491.287" r="14.4" fill="#e26f46" fill-rule="evenodd" fill-opacity="1" stroke="#000000" stroke-opacity="1" stroke-width="3.2"/>
<circle clip-path="url(#clip412)" cx="668.527" cy="673.028" r="14.4" fill="#e26f46" fill-rule="evenodd" fill-opacity="1" stroke="#000000" stroke-opacity="1" stroke-width="3.2"/>
<circle clip-path="url(#clip412)" cx="1812.65" cy="1204.33" r="14.4" fill="#e26f46" fill-rule="evenodd" fill-opacity="1" stroke="#000000" stroke-opacity="1" stroke-width="3.2"/>
<circle clip-path="url(#clip412)" cx="1865.27" cy="1087.62" r="14.4" fill="#e26f46" fill-rule="evenodd" fill-opacity="1" stroke="#000000" stroke-opacity="1" stroke-width="3.2"/>
<circle clip-path="url(#clip412)" cx="1379.93" cy="1235.8" r="14.4" fill="#e26f46" fill-rule="evenodd" fill-opacity="1" stroke="#000000" stroke-opacity="1" stroke-width="3.2"/>
<circle clip-path="url(#clip412)" cx="1151.48" cy="1334.29" r="14.4" fill="#e26f46" fill-rule="evenodd" fill-opacity="1" stroke="#000000" stroke-opacity="1" stroke-width="3.2"/>
<path clip-path="url(#clip410)" d="M1957.08 440.581 L2289.16 440.581 L2289.16 90.6606 L1957.08 90.6606  Z" fill="#ffffff" fill-rule="evenodd" fill-opacity="1"/>
<polyline clip-path="url(#clip410)" style="stroke:#000000; stroke-linecap:round; stroke-linejoin:round; stroke-width:4; stroke-opacity:1; fill:none" points="1957.08,440.581 2289.16,440.581 2289.16,90.6606 1957.08,90.6606 1957.08,440.581 "/>
<circle clip-path="url(#clip410)" cx="2041.87" cy="207.301" r="46.08" fill="#009af9" fill-rule="evenodd" fill-opacity="1" stroke="#000000" stroke-opacity="1" stroke-width="10.24"/>
<path clip-path="url(#clip410)" d="M2126.66 207.831 Q2126.66 194.04 2129.47 185.659 Q2132.34 177.226 2137.91 172.664 Q2143.53 168.102 2152.01 168.102 Q2158.27 168.102 2162.99 170.648 Q2167.72 173.141 2170.79 177.915 Q2173.87 182.636 2175.62 189.478 Q2177.37 196.268 2177.37 207.831 Q2177.37 221.516 2174.56 229.95 Q2171.75 238.33 2166.12 242.945 Q2160.55 247.507 2152.01 247.507 Q2140.77 247.507 2134.35 239.444 Q2126.66 229.738 2126.66 207.831 M2136.47 207.831 Q2136.47 226.979 2140.93 233.344 Q2145.44 239.656 2152.01 239.656 Q2158.59 239.656 2163.05 233.291 Q2167.56 226.926 2167.56 207.831 Q2167.56 188.63 2163.05 182.318 Q2158.59 176.006 2151.91 176.006 Q2145.33 176.006 2141.41 181.575 Q2136.47 188.683 2136.47 207.831 Z" fill="#000000" fill-rule="nonzero" fill-opacity="1" /><path clip-path="url(#clip410)" d="M2192.43 246.181 L2192.43 235.307 L2203.31 235.307 L2203.31 246.181 L2192.43 246.181 Z" fill="#000000" fill-rule="nonzero" fill-opacity="1" /><path clip-path="url(#clip410)" d="M2217.26 207.831 Q2217.26 194.04 2220.07 185.659 Q2222.93 177.226 2228.5 172.664 Q2234.12 168.102 2242.61 168.102 Q2248.87 168.102 2253.59 170.648 Q2258.31 173.141 2261.39 177.915 Q2264.46 182.636 2266.21 189.478 Q2267.97 196.268 2267.97 207.831 Q2267.97 221.516 2265.15 229.95 Q2262.34 238.33 2256.72 242.945 Q2251.15 247.507 2242.61 247.507 Q2231.37 247.507 2224.95 239.444 Q2217.26 229.738 2217.26 207.831 M2227.07 207.831 Q2227.07 226.979 2231.53 233.344 Q2236.03 239.656 2242.61 239.656 Q2249.19 239.656 2253.64 233.291 Q2258.15 226.926 2258.15 207.831 Q2258.15 188.63 2253.64 182.318 Q2249.19 176.006 2242.51 176.006 Q2235.93 176.006 2232 181.575 Q2227.07 188.683 2227.07 207.831 Z" fill="#000000" fill-rule="nonzero" fill-opacity="1" /><circle clip-path="url(#clip410)" cx="2041.87" cy="323.941" r="46.08" fill="#e26f46" fill-rule="evenodd" fill-opacity="1" stroke="#000000" stroke-opacity="1" stroke-width="10.24"/>
<path clip-path="url(#clip410)" d="M2155.3 362.821 L2145.76 362.821 L2145.76 301.981 Q2142.31 305.27 2136.69 308.558 Q2131.12 311.847 2126.66 313.491 L2126.66 304.262 Q2134.67 300.496 2140.66 295.139 Q2146.66 289.781 2149.15 284.742 L2155.3 284.742 L2155.3 362.821 Z" fill="#000000" fill-rule="nonzero" fill-opacity="1" /><path clip-path="url(#clip410)" d="M2185.11 362.821 L2185.11 351.947 L2195.99 351.947 L2195.99 362.821 L2185.11 362.821 Z" fill="#000000" fill-rule="nonzero" fill-opacity="1" /><path clip-path="url(#clip410)" d="M2209.94 324.471 Q2209.94 310.68 2212.75 302.299 Q2215.61 293.866 2221.18 289.304 Q2226.8 284.742 2235.29 284.742 Q2241.55 284.742 2246.27 287.288 Q2250.99 289.781 2254.07 294.555 Q2257.14 299.276 2258.9 306.118 Q2260.65 312.908 2260.65 324.471 Q2260.65 338.156 2257.83 346.59 Q2255.02 354.97 2249.4 359.585 Q2243.83 364.147 2235.29 364.147 Q2224.05 364.147 2217.63 356.084 Q2209.94 346.378 2209.94 324.471 M2219.75 324.471 Q2219.75 343.619 2224.21 349.984 Q2228.71 356.296 2235.29 356.296 Q2241.87 356.296 2246.32 349.931 Q2250.83 343.566 2250.83 324.471 Q2250.83 305.27 2246.32 298.958 Q2241.87 292.646 2235.19 292.646 Q2228.61 292.646 2224.68 298.215 Q2219.75 305.323 2219.75 324.471 Z" fill="#000000" fill-rule="nonzero" fill-opacity="1" /></svg>
