<?xml version="1.0" encoding="utf-8"?>
<svg xmlns="http://www.w3.org/2000/svg" xmlns:xlink="http://www.w3.org/1999/xlink" width="600" height="400" viewBox="0 0 2400 1600">
<defs>
  <clipPath id="clip800">
    <rect x="0" y="0" width="2400" height="1600"/>
  </clipPath>
</defs>
<path clip-path="url(#clip800)" d="M0 1600 L2400 1600 L2400 8.88178e-14 L0 8.88178e-14  Z" fill="#ffffff" fill-rule="evenodd" fill-opacity="1"/>
<defs>
  <clipPath id="clip801">
    <rect x="480" y="0" width="1681" height="1600"/>
  </clipPath>
</defs>
<path clip-path="url(#clip800)" d="M383.069 1349.74 L2352.76 1349.74 L2352.76 47.2441 L383.069 47.2441  Z" fill="#ffffff" fill-rule="evenodd" fill-opacity="1"/>
<defs>
  <clipPath id="clip802">
    <rect x="383" y="47" width="1971" height="1303"/>
  </clipPath>
</defs>
<polyline clip-path="url(#clip800)" style="stroke:#000000; stroke-linecap:round; stroke-linejoin:round; stroke-width:4; stroke-opacity:1; fill:none" points="383.069,1349.74 2352.76,1349.74 "/>
<polyline clip-path="url(#clip800)" style="stroke:#000000; stroke-linecap:round; stroke-linejoin:round; stroke-width:2; stroke-opacity:0.5; fill:none" points="383.069,47.2441 2352.76,47.2441 "/>
<polyline clip-path="url(#clip800)" style="stroke:#000000; stroke-linecap:round; stroke-linejoin:round; stroke-width:4; stroke-opacity:1; fill:none" points="523.761,1349.74 523.761,1330.84 "/>
<polyline clip-path="url(#clip800)" style="stroke:#000000; stroke-linecap:round; stroke-linejoin:round; stroke-width:4; stroke-opacity:1; fill:none" points="805.145,1349.74 805.145,1330.84 "/>
<polyline clip-path="url(#clip800)" style="stroke:#000000; stroke-linecap:round; stroke-linejoin:round; stroke-width:4; stroke-opacity:1; fill:none" points="1086.53,1349.74 1086.53,1330.84 "/>
<polyline clip-path="url(#clip800)" style="stroke:#000000; stroke-linecap:round; stroke-linejoin:round; stroke-width:4; stroke-opacity:1; fill:none" points="1367.91,1349.74 1367.91,1330.84 "/>
<polyline clip-path="url(#clip800)" style="stroke:#000000; stroke-linecap:round; stroke-linejoin:round; stroke-width:4; stroke-opacity:1; fill:none" points="1649.3,1349.74 1649.3,1330.84 "/>
<polyline clip-path="url(#clip800)" style="stroke:#000000; stroke-linecap:round; stroke-linejoin:round; stroke-width:4; stroke-opacity:1; fill:none" points="1930.68,1349.74 1930.68,1330.84 "/>
<polyline clip-path="url(#clip800)" style="stroke:#000000; stroke-linecap:round; stroke-linejoin:round; stroke-width:4; stroke-opacity:1; fill:none" points="2212.06,1349.74 2212.06,1330.84 "/>
<path clip-path="url(#clip800)" d="M549.513 1456.96 L549.513 1466.14 L498.115 1466.14 Q498.009 1462.69 499.229 1459.51 Q501.191 1454.26 505.488 1449.17 Q509.837 1444.07 518.006 1437.39 Q530.683 1426.99 535.138 1420.95 Q539.594 1414.85 539.594 1409.44 Q539.594 1403.76 535.509 1399.89 Q531.478 1395.96 524.954 1395.96 Q518.059 1395.96 513.921 1400.1 Q509.784 1404.24 509.731 1411.56 L499.918 1410.55 Q500.926 1399.57 507.503 1393.84 Q514.08 1388.06 525.166 1388.06 Q536.358 1388.06 542.882 1394.27 Q549.407 1400.47 549.407 1409.65 Q549.407 1414.32 547.497 1418.83 Q545.588 1423.33 541.132 1428.32 Q536.729 1433.31 526.439 1442.01 Q517.846 1449.22 515.406 1451.82 Q512.967 1454.36 511.375 1456.96 L549.513 1456.96 Z" fill="#000000" fill-rule="nonzero" fill-opacity="1" /><path clip-path="url(#clip800)" d="M811.987 1466.14 L811.987 1447.52 L778.252 1447.52 L778.252 1438.77 L813.737 1388.38 L821.535 1388.38 L821.535 1438.77 L832.037 1438.77 L832.037 1447.52 L821.535 1447.52 L821.535 1466.14 L811.987 1466.14 M811.987 1438.77 L811.987 1403.71 L787.641 1438.77 L811.987 1438.77 Z" fill="#000000" fill-rule="nonzero" fill-opacity="1" /><path clip-path="url(#clip800)" d="M1110.82 1407.42 L1101.33 1408.16 Q1100.05 1402.54 1097.72 1400 Q1093.85 1395.91 1088.17 1395.91 Q1083.61 1395.91 1080.16 1398.46 Q1075.65 1401.75 1073.06 1408.06 Q1070.46 1414.37 1070.35 1426.04 Q1073.8 1420.79 1078.78 1418.24 Q1083.77 1415.7 1089.23 1415.7 Q1098.78 1415.7 1105.46 1422.75 Q1112.2 1429.75 1112.2 1440.89 Q1112.2 1448.21 1109.02 1454.52 Q1105.89 1460.78 1100.37 1464.12 Q1094.86 1467.47 1087.85 1467.47 Q1075.92 1467.47 1068.39 1458.71 Q1060.86 1449.91 1060.86 1429.75 Q1060.86 1407.21 1069.18 1396.97 Q1076.45 1388.06 1088.76 1388.06 Q1097.93 1388.06 1103.77 1393.21 Q1109.65 1398.35 1110.82 1407.42 M1071.84 1440.94 Q1071.84 1445.88 1073.9 1450.39 Q1076.03 1454.89 1079.79 1457.28 Q1083.56 1459.62 1087.7 1459.62 Q1093.74 1459.62 1098.09 1454.74 Q1102.44 1449.86 1102.44 1441.48 Q1102.44 1433.41 1098.14 1428.8 Q1093.85 1424.13 1087.32 1424.13 Q1080.85 1424.13 1076.34 1428.8 Q1071.84 1433.41 1071.84 1440.94 Z" fill="#000000" fill-rule="nonzero" fill-opacity="1" /><path clip-path="url(#clip800)" d="M1357.09 1423.97 Q1351.15 1421.8 1348.29 1417.77 Q1345.42 1413.73 1345.42 1408.11 Q1345.42 1399.62 1351.52 1393.84 Q1357.62 1388.06 1367.75 1388.06 Q1377.94 1388.06 1384.14 1394 Q1390.35 1399.89 1390.35 1408.38 Q1390.35 1413.79 1387.48 1417.82 Q1384.67 1421.8 1378.89 1423.97 Q1386.05 1426.31 1389.77 1431.5 Q1393.53 1436.7 1393.53 1443.92 Q1393.53 1453.89 1386.48 1460.68 Q1379.42 1467.47 1367.91 1467.47 Q1356.4 1467.47 1349.35 1460.68 Q1342.29 1453.83 1342.29 1443.65 Q1342.29 1436.06 1346.11 1430.97 Q1349.98 1425.83 1357.09 1423.97 M1355.18 1407.79 Q1355.18 1413.31 1358.74 1416.81 Q1362.29 1420.31 1367.97 1420.31 Q1373.48 1420.31 1376.98 1416.86 Q1380.54 1413.36 1380.54 1408.32 Q1380.54 1403.07 1376.88 1399.52 Q1373.27 1395.91 1367.86 1395.91 Q1362.4 1395.91 1358.79 1399.41 Q1355.18 1402.91 1355.18 1407.79 M1352.11 1443.7 Q1352.11 1447.79 1354.02 1451.61 Q1355.98 1455.43 1359.8 1457.55 Q1363.62 1459.62 1368.02 1459.62 Q1374.86 1459.62 1379.32 1455.21 Q1383.77 1450.81 1383.77 1444.02 Q1383.77 1437.13 1379.16 1432.62 Q1374.6 1428.11 1367.7 1428.11 Q1360.96 1428.11 1356.51 1432.56 Q1352.11 1437.02 1352.11 1443.7 Z" fill="#000000" fill-rule="nonzero" fill-opacity="1" /><path clip-path="url(#clip800)" d="M1626.04 1466.14 L1616.49 1466.14 L1616.49 1405.3 Q1613.04 1408.59 1607.42 1411.88 Q1601.85 1415.17 1597.39 1416.81 L1597.39 1407.58 Q1605.4 1403.82 1611.4 1398.46 Q1617.39 1393.1 1619.88 1388.06 L1626.04 1388.06 L1626.04 1466.14 Z" fill="#000000" fill-rule="nonzero" fill-opacity="1" /><path clip-path="url(#clip800)" d="M1650.49 1427.79 Q1650.49 1414 1653.3 1405.62 Q1656.17 1397.18 1661.73 1392.62 Q1667.36 1388.06 1675.84 1388.06 Q1682.1 1388.06 1686.82 1390.61 Q1691.54 1393.1 1694.62 1397.87 Q1697.7 1402.6 1699.45 1409.44 Q1701.2 1416.23 1701.2 1427.79 Q1701.2 1441.48 1698.39 1449.91 Q1695.58 1458.29 1689.95 1462.9 Q1684.38 1467.47 1675.84 1467.47 Q1664.6 1467.47 1658.18 1459.4 Q1650.49 1449.7 1650.49 1427.79 M1660.3 1427.79 Q1660.3 1446.94 1664.76 1453.3 Q1669.27 1459.62 1675.84 1459.62 Q1682.42 1459.62 1686.88 1453.25 Q1691.39 1446.89 1691.39 1427.79 Q1691.39 1408.59 1686.88 1402.28 Q1682.42 1395.96 1675.74 1395.96 Q1669.16 1395.96 1665.24 1401.53 Q1660.3 1408.64 1660.3 1427.79 Z" fill="#000000" fill-rule="nonzero" fill-opacity="1" /><path clip-path="url(#clip800)" d="M1907.69 1466.14 L1898.14 1466.14 L1898.14 1405.3 Q1894.69 1408.59 1889.07 1411.88 Q1883.5 1415.17 1879.04 1416.81 L1879.04 1407.58 Q1887.05 1403.82 1893.05 1398.46 Q1899.04 1393.1 1901.53 1388.06 L1907.69 1388.06 L1907.69 1466.14 Z" fill="#000000" fill-rule="nonzero" fill-opacity="1" /><path clip-path="url(#clip800)" d="M1982.32 1456.96 L1982.32 1466.14 L1930.92 1466.14 Q1930.81 1462.69 1932.03 1459.51 Q1934 1454.26 1938.29 1449.17 Q1942.64 1444.07 1950.81 1437.39 Q1963.49 1426.99 1967.94 1420.95 Q1972.4 1414.85 1972.4 1409.44 Q1972.4 1403.76 1968.31 1399.89 Q1964.28 1395.96 1957.76 1395.96 Q1950.86 1395.96 1946.73 1400.1 Q1942.59 1404.24 1942.54 1411.56 L1932.72 1410.55 Q1933.73 1399.57 1940.31 1393.84 Q1946.88 1388.06 1957.97 1388.06 Q1969.16 1388.06 1975.69 1394.27 Q1982.21 1400.47 1982.21 1409.65 Q1982.21 1414.32 1980.3 1418.83 Q1978.39 1423.33 1973.94 1428.32 Q1969.53 1433.31 1959.24 1442.01 Q1950.65 1449.22 1948.21 1451.82 Q1945.77 1454.36 1944.18 1456.96 L1982.32 1456.96 Z" fill="#000000" fill-rule="nonzero" fill-opacity="1" /><path clip-path="url(#clip800)" d="M2188.83 1466.14 L2179.28 1466.14 L2179.28 1405.3 Q2175.84 1408.59 2170.21 1411.88 Q2164.64 1415.17 2160.19 1416.81 L2160.19 1407.58 Q2168.2 1403.82 2174.19 1398.46 Q2180.19 1393.1 2182.68 1388.06 L2188.83 1388.06 L2188.83 1466.14 Z" fill="#000000" fill-rule="nonzero" fill-opacity="1" /><path clip-path="url(#clip800)" d="M2243.89 1466.14 L2243.89 1447.52 L2210.15 1447.52 L2210.15 1438.77 L2245.64 1388.38 L2253.44 1388.38 L2253.44 1438.77 L2263.94 1438.77 L2263.94 1447.52 L2253.44 1447.52 L2253.44 1466.14 L2243.89 1466.14 M2243.89 1438.77 L2243.89 1403.71 L2219.54 1438.77 L2243.89 1438.77 Z" fill="#000000" fill-rule="nonzero" fill-opacity="1" /><path clip-path="url(#clip800)" d="M1267.34 1577.55 L1277.21 1578.77 Q1274.88 1587.42 1268.56 1592.19 Q1262.25 1596.96 1252.44 1596.96 Q1240.08 1596.96 1232.81 1589.38 Q1225.6 1581.74 1225.6 1568 Q1225.6 1553.79 1232.92 1545.94 Q1240.24 1538.09 1251.91 1538.09 Q1263.21 1538.09 1270.37 1545.78 Q1277.53 1553.47 1277.53 1567.42 Q1277.53 1568.27 1277.48 1569.97 L1235.47 1569.97 Q1236 1579.25 1240.72 1584.18 Q1245.44 1589.11 1252.49 1589.11 Q1257.74 1589.11 1261.46 1586.36 Q1265.17 1583.6 1267.34 1577.55 M1236 1562.12 L1267.45 1562.12 Q1266.81 1555.01 1263.84 1551.45 Q1259.28 1545.94 1252.01 1545.94 Q1245.44 1545.94 1240.93 1550.34 Q1236.47 1554.74 1236 1562.12 Z" fill="#000000" fill-rule="nonzero" fill-opacity="1" /><path clip-path="url(#clip800)" d="M1289.2 1617.28 L1289.2 1539.36 L1297.9 1539.36 L1297.9 1546.68 Q1300.97 1542.38 1304.85 1540.26 Q1308.72 1538.09 1314.23 1538.09 Q1321.45 1538.09 1326.96 1541.8 Q1332.48 1545.51 1335.29 1552.3 Q1338.1 1559.04 1338.1 1567.1 Q1338.1 1575.75 1334.97 1582.7 Q1331.9 1589.59 1325.96 1593.3 Q1320.07 1596.96 1313.54 1596.96 Q1308.77 1596.96 1304.95 1594.95 Q1301.19 1592.93 1298.75 1589.86 L1298.75 1617.28 L1289.2 1617.28 M1297.84 1567.84 Q1297.84 1578.72 1302.25 1583.92 Q1306.65 1589.11 1312.91 1589.11 Q1319.27 1589.11 1323.78 1583.76 Q1328.34 1578.35 1328.34 1567.05 Q1328.34 1556.28 1323.89 1550.92 Q1319.48 1545.57 1313.33 1545.57 Q1307.23 1545.57 1302.51 1551.3 Q1297.84 1556.97 1297.84 1567.84 Z" fill="#000000" fill-rule="nonzero" fill-opacity="1" /><path clip-path="url(#clip800)" d="M1346.06 1567.53 Q1346.06 1551.88 1354.76 1544.35 Q1362.02 1538.09 1372.47 1538.09 Q1384.09 1538.09 1391.46 1545.73 Q1398.84 1553.31 1398.84 1566.73 Q1398.84 1577.6 1395.55 1583.86 Q1392.31 1590.07 1386.05 1593.52 Q1379.85 1596.96 1372.47 1596.96 Q1360.65 1596.96 1353.33 1589.38 Q1346.06 1581.79 1346.06 1567.53 M1355.87 1567.53 Q1355.87 1578.35 1360.59 1583.76 Q1365.31 1589.11 1372.47 1589.11 Q1379.58 1589.11 1384.3 1583.7 Q1389.02 1578.29 1389.02 1567.21 Q1389.02 1556.76 1384.25 1551.4 Q1379.53 1545.99 1372.47 1545.99 Q1365.31 1545.99 1360.59 1551.35 Q1355.87 1556.71 1355.87 1567.53 Z" fill="#000000" fill-rule="nonzero" fill-opacity="1" /><path clip-path="url(#clip800)" d="M1446.79 1575.06 L1456.17 1576.28 Q1454.64 1585.99 1448.27 1591.5 Q1441.96 1596.96 1432.73 1596.96 Q1421.17 1596.96 1414.11 1589.43 Q1407.11 1581.85 1407.11 1567.74 Q1407.11 1558.62 1410.13 1551.77 Q1413.16 1544.93 1419.31 1541.54 Q1425.52 1538.09 1432.78 1538.09 Q1441.96 1538.09 1447.79 1542.76 Q1453.63 1547.37 1455.27 1555.91 L1445.99 1557.34 Q1444.66 1551.67 1441.27 1548.8 Q1437.93 1545.94 1433.15 1545.94 Q1425.94 1545.94 1421.43 1551.14 Q1416.92 1556.28 1416.92 1567.47 Q1416.92 1578.82 1421.27 1583.97 Q1425.62 1589.11 1432.62 1589.11 Q1438.25 1589.11 1442.01 1585.67 Q1445.78 1582.22 1446.79 1575.06 Z" fill="#000000" fill-rule="nonzero" fill-opacity="1" /><path clip-path="url(#clip800)" d="M1464.34 1595.69 L1464.34 1517.93 L1473.89 1517.93 L1473.89 1545.83 Q1480.57 1538.09 1490.76 1538.09 Q1497.02 1538.09 1501.63 1540.58 Q1506.25 1543.02 1508.21 1547.37 Q1510.22 1551.72 1510.22 1559.99 L1510.22 1595.69 L1500.68 1595.69 L1500.68 1559.99 Q1500.68 1552.83 1497.55 1549.6 Q1494.47 1546.31 1488.8 1546.31 Q1484.55 1546.31 1480.79 1548.54 Q1477.07 1550.71 1475.48 1554.48 Q1473.89 1558.24 1473.89 1564.87 L1473.89 1595.69 L1464.34 1595.69 Z" fill="#000000" fill-rule="nonzero" fill-opacity="1" /><polyline clip-path="url(#clip800)" style="stroke:#000000; stroke-linecap:round; stroke-linejoin:round; stroke-width:4; stroke-opacity:1; fill:none" points="383.069,1349.74 383.069,47.2441 "/>
<polyline clip-path="url(#clip800)" style="stroke:#000000; stroke-linecap:round; stroke-linejoin:round; stroke-width:2; stroke-opacity:0.5; fill:none" points="2352.76,1349.74 2352.76,47.2441 "/>
<polyline clip-path="url(#clip800)" style="stroke:#000000; stroke-linecap:round; stroke-linejoin:round; stroke-width:4; stroke-opacity:1; fill:none" points="383.069,1305.66 401.966,1305.66 "/>
<polyline clip-path="url(#clip800)" style="stroke:#000000; stroke-linecap:round; stroke-linejoin:round; stroke-width:4; stroke-opacity:1; fill:none" points="383.069,961.754 401.966,961.754 "/>
<polyline clip-path="url(#clip800)" style="stroke:#000000; stroke-linecap:round; stroke-linejoin:round; stroke-width:4; stroke-opacity:1; fill:none" points="383.069,617.848 401.966,617.848 "/>
<polyline clip-path="url(#clip800)" style="stroke:#000000; stroke-linecap:round; stroke-linejoin:round; stroke-width:4; stroke-opacity:1; fill:none" points="383.069,273.942 401.966,273.942 "/>
<path clip-path="url(#clip800)" d="M144.5 1306.19 Q144.5 1292.4 147.311 1284.02 Q150.176 1275.59 155.745 1271.02 Q161.368 1266.46 169.854 1266.46 Q176.113 1266.46 180.834 1269.01 Q185.555 1271.5 188.631 1276.28 Q191.708 1281 193.458 1287.84 Q195.209 1294.63 195.209 1306.19 Q195.209 1319.88 192.397 1328.31 Q189.586 1336.69 183.964 1341.31 Q178.394 1345.87 169.854 1345.87 Q158.609 1345.87 152.191 1337.8 Q144.5 1328.1 144.5 1306.19 M154.313 1306.19 Q154.313 1325.34 158.769 1331.7 Q163.277 1338.02 169.854 1338.02 Q176.432 1338.02 180.887 1331.65 Q185.396 1325.29 185.396 1306.19 Q185.396 1286.99 180.887 1280.68 Q176.432 1274.37 169.748 1274.37 Q163.171 1274.37 159.246 1279.94 Q154.313 1287.04 154.313 1306.19 Z" fill="#000000" fill-rule="nonzero" fill-opacity="1" /><path clip-path="url(#clip800)" d="M210.273 1344.54 L210.273 1333.67 L221.146 1333.67 L221.146 1344.54 L210.273 1344.54 Z" fill="#000000" fill-rule="nonzero" fill-opacity="1" /><path clip-path="url(#clip800)" d="M235.096 1306.19 Q235.096 1292.4 237.908 1284.02 Q240.772 1275.59 246.341 1271.02 Q251.964 1266.46 260.451 1266.46 Q266.71 1266.46 271.43 1269.01 Q276.151 1271.5 279.228 1276.28 Q282.304 1281 284.054 1287.84 Q285.805 1294.63 285.805 1306.19 Q285.805 1319.88 282.994 1328.31 Q280.182 1336.69 274.56 1341.31 Q268.99 1345.87 260.451 1345.87 Q249.206 1345.87 242.788 1337.8 Q235.096 1328.1 235.096 1306.19 M244.909 1306.19 Q244.909 1325.34 249.365 1331.7 Q253.873 1338.02 260.451 1338.02 Q267.028 1338.02 271.483 1331.65 Q275.992 1325.29 275.992 1306.19 Q275.992 1286.99 271.483 1280.68 Q267.028 1274.37 260.345 1274.37 Q253.767 1274.37 249.842 1279.94 Q244.909 1287.04 244.909 1306.19 Z" fill="#000000" fill-rule="nonzero" fill-opacity="1" /><path clip-path="url(#clip800)" d="M295.512 1324.17 L305.537 1323.32 Q306.65 1330.64 310.682 1334.36 Q314.766 1338.02 320.494 1338.02 Q327.39 1338.02 332.164 1332.82 Q336.938 1327.62 336.938 1319.03 Q336.938 1310.86 332.323 1306.14 Q327.761 1301.42 320.335 1301.42 Q315.721 1301.42 312.008 1303.54 Q308.295 1305.61 306.173 1308.95 L297.209 1307.78 L304.741 1267.84 L343.409 1267.84 L343.409 1276.96 L312.379 1276.96 L308.189 1297.86 Q315.19 1292.98 322.881 1292.98 Q333.066 1292.98 340.067 1300.04 Q347.069 1307.09 347.069 1318.18 Q347.069 1328.73 340.916 1336.43 Q333.437 1345.87 320.494 1345.87 Q309.886 1345.87 303.15 1339.93 Q296.466 1333.99 295.512 1324.17 Z" fill="#000000" fill-rule="nonzero" fill-opacity="1" /><path clip-path="url(#clip800)" d="M145.349 962.285 Q145.349 948.494 148.16 940.113 Q151.024 931.68 156.594 927.118 Q162.216 922.556 170.703 922.556 Q176.962 922.556 181.683 925.102 Q186.404 927.595 189.48 932.369 Q192.556 937.09 194.307 943.932 Q196.057 950.722 196.057 962.285 Q196.057 975.97 193.246 984.404 Q190.435 992.784 184.812 997.399 Q179.243 1001.96 170.703 1001.96 Q159.458 1001.96 153.04 993.898 Q145.349 984.191 145.349 962.285 M155.162 962.285 Q155.162 981.433 159.617 987.798 Q164.126 994.11 170.703 994.11 Q177.28 994.11 181.736 987.745 Q186.244 981.38 186.244 962.285 Q186.244 943.084 181.736 936.772 Q177.28 930.46 170.597 930.46 Q164.02 930.46 160.095 936.029 Q155.162 943.137 155.162 962.285 Z" fill="#000000" fill-rule="nonzero" fill-opacity="1" /><path clip-path="url(#clip800)" d="M211.121 1000.63 L211.121 989.761 L221.995 989.761 L221.995 1000.63 L211.121 1000.63 Z" fill="#000000" fill-rule="nonzero" fill-opacity="1" /><path clip-path="url(#clip800)" d="M271.908 1000.63 L262.36 1000.63 L262.36 939.795 Q258.912 943.084 253.29 946.372 Q247.72 949.661 243.265 951.305 L243.265 942.076 Q251.274 938.31 257.268 932.953 Q263.262 927.595 265.755 922.556 L271.908 922.556 L271.908 1000.63 Z" fill="#000000" fill-rule="nonzero" fill-opacity="1" /><path clip-path="url(#clip800)" d="M296.36 962.285 Q296.36 948.494 299.171 940.113 Q302.036 931.68 307.605 927.118 Q313.228 922.556 321.714 922.556 Q327.973 922.556 332.694 925.102 Q337.415 927.595 340.491 932.369 Q343.568 937.09 345.318 943.932 Q347.069 950.722 347.069 962.285 Q347.069 975.97 344.257 984.404 Q341.446 992.784 335.824 997.399 Q330.254 1001.96 321.714 1001.96 Q310.469 1001.96 304.051 993.898 Q296.36 984.191 296.36 962.285 M306.173 962.285 Q306.173 981.433 310.629 987.798 Q315.137 994.11 321.714 994.11 Q328.292 994.11 332.747 987.745 Q337.256 981.38 337.256 962.285 Q337.256 943.084 332.747 936.772 Q328.292 930.46 321.608 930.46 Q315.031 930.46 311.106 936.029 Q306.173 943.137 306.173 962.285 Z" fill="#000000" fill-rule="nonzero" fill-opacity="1" /><path clip-path="url(#clip800)" d="M144.5 618.379 Q144.5 604.588 147.311 596.207 Q150.176 587.773 155.745 583.212 Q161.368 578.65 169.854 578.65 Q176.113 578.65 180.834 581.196 Q185.555 583.689 188.631 588.463 Q191.708 593.184 193.458 600.026 Q195.209 606.816 195.209 618.379 Q195.209 632.064 192.397 640.497 Q189.586 648.878 183.964 653.493 Q178.394 658.054 169.854 658.054 Q158.609 658.054 152.191 649.992 Q144.5 640.285 144.5 618.379 M154.313 618.379 Q154.313 637.527 158.769 643.892 Q163.277 650.204 169.854 650.204 Q176.432 650.204 180.887 643.839 Q185.396 637.474 185.396 618.379 Q185.396 599.177 180.887 592.865 Q176.432 586.553 169.748 586.553 Q163.171 586.553 159.246 592.123 Q154.313 599.23 154.313 618.379 Z" fill="#000000" fill-rule="nonzero" fill-opacity="1" /><path clip-path="url(#clip800)" d="M210.273 656.728 L210.273 645.855 L221.146 645.855 L221.146 656.728 L210.273 656.728 Z" fill="#000000" fill-rule="nonzero" fill-opacity="1" /><path clip-path="url(#clip800)" d="M271.059 656.728 L261.511 656.728 L261.511 595.889 Q258.064 599.177 252.441 602.466 Q246.872 605.755 242.416 607.399 L242.416 598.17 Q250.426 594.404 256.419 589.046 Q262.413 583.689 264.906 578.65 L271.059 578.65 L271.059 656.728 Z" fill="#000000" fill-rule="nonzero" fill-opacity="1" /><path clip-path="url(#clip800)" d="M295.512 636.36 L305.537 635.511 Q306.65 642.831 310.682 646.544 Q314.766 650.204 320.494 650.204 Q327.39 650.204 332.164 645.006 Q336.938 639.808 336.938 631.215 Q336.938 623.046 332.323 618.326 Q327.761 613.605 320.335 613.605 Q315.721 613.605 312.008 615.727 Q308.295 617.795 306.173 621.137 L297.209 619.97 L304.741 580.029 L343.409 580.029 L343.409 589.152 L312.379 589.152 L308.189 610.051 Q315.19 605.171 322.881 605.171 Q333.066 605.171 340.067 612.226 Q347.069 619.28 347.069 630.366 Q347.069 640.922 340.916 648.613 Q333.437 658.054 320.494 658.054 Q309.886 658.054 303.15 652.114 Q296.466 646.173 295.512 636.36 Z" fill="#000000" fill-rule="nonzero" fill-opacity="1" /><path clip-path="url(#clip800)" d="M145.349 274.473 Q145.349 260.682 148.16 252.301 Q151.024 243.867 156.594 239.305 Q162.216 234.744 170.703 234.744 Q176.962 234.744 181.683 237.29 Q186.404 239.783 189.48 244.557 Q192.556 249.277 194.307 256.12 Q196.057 262.909 196.057 274.473 Q196.057 288.157 193.246 296.591 Q190.435 304.972 184.812 309.587 Q179.243 314.148 170.703 314.148 Q159.458 314.148 153.04 306.086 Q145.349 296.379 145.349 274.473 M155.162 274.473 Q155.162 293.621 159.617 299.986 Q164.126 306.298 170.703 306.298 Q177.28 306.298 181.736 299.933 Q186.244 293.568 186.244 274.473 Q186.244 255.271 181.736 248.959 Q177.28 242.647 170.597 242.647 Q164.02 242.647 160.095 248.217 Q155.162 255.324 155.162 274.473 Z" fill="#000000" fill-rule="nonzero" fill-opacity="1" /><path clip-path="url(#clip800)" d="M211.121 312.822 L211.121 301.948 L221.995 301.948 L221.995 312.822 L211.121 312.822 Z" fill="#000000" fill-rule="nonzero" fill-opacity="1" /><path clip-path="url(#clip800)" d="M286.123 303.646 L286.123 312.822 L234.725 312.822 Q234.619 309.374 235.839 306.192 Q237.802 300.941 242.098 295.849 Q246.447 290.757 254.616 284.073 Q267.293 273.677 271.749 267.63 Q276.204 261.53 276.204 256.12 Q276.204 250.444 272.12 246.572 Q268.089 242.647 261.564 242.647 Q254.669 242.647 250.532 246.784 Q246.394 250.922 246.341 258.242 L236.529 257.234 Q237.536 246.254 244.114 240.525 Q250.691 234.744 261.777 234.744 Q272.969 234.744 279.493 240.95 Q286.017 247.156 286.017 256.332 Q286.017 261 284.107 265.508 Q282.198 270.017 277.742 275.003 Q273.34 279.989 263.05 288.688 Q254.457 295.902 252.017 298.501 Q249.577 301.047 247.986 303.646 L286.123 303.646 Z" fill="#000000" fill-rule="nonzero" fill-opacity="1" /><path clip-path="url(#clip800)" d="M296.36 274.473 Q296.36 260.682 299.171 252.301 Q302.036 243.867 307.605 239.305 Q313.228 234.744 321.714 234.744 Q327.973 234.744 332.694 237.29 Q337.415 239.783 340.491 244.557 Q343.568 249.277 345.318 256.12 Q347.069 262.909 347.069 274.473 Q347.069 288.157 344.257 296.591 Q341.446 304.972 335.824 309.587 Q330.254 314.148 321.714 314.148 Q310.469 314.148 304.051 306.086 Q296.36 296.379 296.36 274.473 M306.173 274.473 Q306.173 293.621 310.629 299.986 Q315.137 306.298 321.714 306.298 Q328.292 306.298 332.747 299.933 Q337.256 293.568 337.256 274.473 Q337.256 255.271 332.747 248.959 Q328.292 242.647 321.608 242.647 Q315.031 242.647 311.106 248.217 Q306.173 255.324 306.173 274.473 Z" fill="#000000" fill-rule="nonzero" fill-opacity="1" /><path clip-path="url(#clip800)" d="M85.1722 789.513 L7.41216 789.513 L7.41216 779.965 L85.1722 779.965 L85.1722 789.513 Z" fill="#000000" fill-rule="nonzero" fill-opacity="1" /><path clip-path="url(#clip800)" d="M57.0067 768.72 Q41.3592 768.72 33.8272 760.021 Q27.5682 752.754 27.5682 742.305 Q27.5682 730.689 35.2063 723.316 Q42.7914 715.943 56.2111 715.943 Q67.0847 715.943 73.3437 719.232 Q79.5497 722.467 82.9974 728.726 Q86.4452 734.932 86.4452 742.305 Q86.4452 754.133 78.8601 761.453 Q71.2751 768.72 57.0067 768.72 M57.0067 758.907 Q67.8273 758.907 73.2376 754.186 Q78.5949 749.466 78.5949 742.305 Q78.5949 735.197 73.1846 730.476 Q67.7743 725.756 56.6884 725.756 Q46.2391 725.756 40.8818 730.53 Q35.4715 735.25 35.4715 742.305 Q35.4715 749.466 40.8288 754.186 Q46.1861 758.907 57.0067 758.907 Z" fill="#000000" fill-rule="nonzero" fill-opacity="1" /><path clip-path="url(#clip800)" d="M68.3578 708.57 L66.8726 699.128 Q72.5481 698.333 75.5715 694.726 Q78.5949 691.066 78.5949 684.542 Q78.5949 677.965 75.9428 674.782 Q73.2376 671.6 69.6308 671.6 Q66.3952 671.6 64.5387 674.411 Q63.2657 676.373 61.3031 684.171 Q58.651 694.673 56.7415 698.757 Q54.7789 702.788 51.3842 704.91 Q47.9365 706.979 43.7992 706.979 Q40.0332 706.979 36.8506 705.281 Q33.615 703.531 31.4934 700.561 Q29.849 698.333 28.7352 694.514 Q27.5682 690.642 27.5682 686.239 Q27.5682 679.609 29.4778 674.623 Q31.3873 669.584 34.6759 667.197 Q37.9115 664.81 43.3748 663.908 L44.6478 673.244 Q40.2984 673.88 37.8584 676.957 Q35.4185 679.98 35.4185 685.55 Q35.4185 692.127 37.5932 694.938 Q39.768 697.749 42.6853 697.749 Q44.5418 697.749 46.0269 696.582 Q47.5652 695.416 48.573 692.923 Q49.1034 691.49 51.0129 684.489 Q53.7181 674.358 55.4685 670.38 Q57.1658 666.348 60.4544 664.068 Q63.7431 661.787 68.623 661.787 Q73.3968 661.787 77.6402 664.598 Q81.8305 667.356 84.1644 672.607 Q86.4452 677.859 86.4452 684.489 Q86.4452 695.469 81.8835 701.25 Q77.3219 706.979 68.3578 708.57 Z" fill="#000000" fill-rule="nonzero" fill-opacity="1" /><path clip-path="url(#clip800)" d="M68.3578 654.255 L66.8726 644.813 Q72.5481 644.018 75.5715 640.411 Q78.5949 636.751 78.5949 630.227 Q78.5949 623.649 75.9428 620.467 Q73.2376 617.284 69.6308 617.284 Q66.3952 617.284 64.5387 620.095 Q63.2657 622.058 61.3031 629.855 Q58.651 640.358 56.7415 644.442 Q54.7789 648.473 51.3842 650.595 Q47.9365 652.663 43.7992 652.663 Q40.0332 652.663 36.8506 650.966 Q33.615 649.216 31.4934 646.245 Q29.849 644.018 28.7352 640.198 Q27.5682 636.326 27.5682 631.924 Q27.5682 625.294 29.4778 620.308 Q31.3873 615.269 34.6759 612.882 Q37.9115 610.495 43.3748 609.593 L44.6478 618.929 Q40.2984 619.565 37.8584 622.641 Q35.4185 625.665 35.4185 631.234 Q35.4185 637.812 37.5932 640.623 Q39.768 643.434 42.6853 643.434 Q44.5418 643.434 46.0269 642.267 Q47.5652 641.1 48.573 638.607 Q49.1034 637.175 51.0129 630.173 Q53.7181 620.042 55.4685 616.064 Q57.1658 612.033 60.4544 609.752 Q63.7431 607.471 68.623 607.471 Q73.3968 607.471 77.6402 610.283 Q81.8305 613.041 84.1644 618.292 Q86.4452 623.543 86.4452 630.173 Q86.4452 641.153 81.8835 646.935 Q77.3219 652.663 68.3578 654.255 Z" fill="#000000" fill-rule="nonzero" fill-opacity="1" /><polyline clip-path="url(#clip802)" style="stroke:#009af9; stroke-linecap:round; stroke-linejoin:round; stroke-width:8; stroke-opacity:1; fill:none" points="383.069,47.2441 523.761,1116.88 664.453,1272.87 805.145,1316.31 945.836,1330.57 1086.53,1337.88 1227.22,1342.87 1367.91,1346.3 1508.6,1348.37 1649.3,1349.39 1789.99,1349.74 1930.68,1349.71 2071.37,1349.53 2212.06,1349.31 2352.76,1349.06 "/>
<circle clip-path="url(#clip802)" cx="383.069" cy="47.2441" r="3.6" fill="#009af9" fill-rule="evenodd" fill-opacity="1" stroke="#000000" stroke-opacity="1" stroke-width="3.2"/>
<circle clip-path="url(#clip802)" cx="523.761" cy="1116.88" r="3.6" fill="#009af9" fill-rule="evenodd" fill-opacity="1" stroke="#000000" stroke-opacity="1" stroke-width="3.2"/>
<circle clip-path="url(#clip802)" cx="664.453" cy="1272.87" r="3.6" fill="#009af9" fill-rule="evenodd" fill-opacity="1" stroke="#000000" stroke-opacity="1" stroke-width="3.2"/>
<circle clip-path="url(#clip802)" cx="805.145" cy="1316.31" r="3.6" fill="#009af9" fill-rule="evenodd" fill-opacity="1" stroke="#000000" stroke-opacity="1" stroke-width="3.2"/>
<circle clip-path="url(#clip802)" cx="945.836" cy="1330.57" r="3.6" fill="#009af9" fill-rule="evenodd" fill-opacity="1" stroke="#000000" stroke-opacity="1" stroke-width="3.2"/>
<circle clip-path="url(#clip802)" cx="1086.53" cy="1337.88" r="3.6" fill="#009af9" fill-rule="evenodd" fill-opacity="1" stroke="#000000" stroke-opacity="1" stroke-width="3.2"/>
<circle clip-path="url(#clip802)" cx="1227.22" cy="1342.87" r="3.6" fill="#009af9" fill-rule="evenodd" fill-opacity="1" stroke="#000000" stroke-opacity="1" stroke-width="3.2"/>
<circle clip-path="url(#clip802)" cx="1367.91" cy="1346.3" r="3.6" fill="#009af9" fill-rule="evenodd" fill-opacity="1" stroke="#000000" stroke-opacity="1" stroke-width="3.2"/>
<circle clip-path="url(#clip802)" cx="1508.6" cy="1348.37" r="3.6" fill="#009af9" fill-rule="evenodd" fill-opacity="1" stroke="#000000" stroke-opacity="1" stroke-width="3.2"/>
<circle clip-path="url(#clip802)" cx="1649.3" cy="1349.39" r="3.6" fill="#009af9" fill-rule="evenodd" fill-opacity="1" stroke="#000000" stroke-opacity="1" stroke-width="3.2"/>
<circle clip-path="url(#clip802)" cx="1789.99" cy="1349.74" r="3.6" fill="#009af9" fill-rule="evenodd" fill-opacity="1" stroke="#000000" stroke-opacity="1" stroke-width="3.2"/>
<circle clip-path="url(#clip802)" cx="1930.68" cy="1349.71" r="3.6" fill="#009af9" fill-rule="evenodd" fill-opacity="1" stroke="#000000" stroke-opacity="1" stroke-width="3.2"/>
<circle clip-path="url(#clip802)" cx="2071.37" cy="1349.53" r="3.6" fill="#009af9" fill-rule="evenodd" fill-opacity="1" stroke="#000000" stroke-opacity="1" stroke-width="3.2"/>
<circle clip-path="url(#clip802)" cx="2212.06" cy="1349.31" r="3.6" fill="#009af9" fill-rule="evenodd" fill-opacity="1" stroke="#000000" stroke-opacity="1" stroke-width="3.2"/>
<circle clip-path="url(#clip802)" cx="2352.76" cy="1349.06" r="3.6" fill="#009af9" fill-rule="evenodd" fill-opacity="1" stroke="#000000" stroke-opacity="1" stroke-width="3.2"/>
<polyline clip-path="url(#clip802)" style="stroke:#e26f46; stroke-linecap:round; stroke-linejoin:round; stroke-width:8; stroke-opacity:1; fill:none" points="383.069,617.524 523.761,1107.9 664.453,1222.42 805.145,1254.41 945.836,1266.34 1086.53,1273.69 1227.22,1278.81 1367.91,1281.92 1508.6,1283.42 1649.3,1283.91 1789.99,1283.89 1930.68,1283.66 2071.37,1283.39 2212.06,1283.13 2352.76,1282.94 "/>
<circle clip-path="url(#clip802)" cx="383.069" cy="617.524" r="3.6" fill="#e26f46" fill-rule="evenodd" fill-opacity="1" stroke="#000000" stroke-opacity="1" stroke-width="3.2"/>
<circle clip-path="url(#clip802)" cx="523.761" cy="1107.9" r="3.6" fill="#e26f46" fill-rule="evenodd" fill-opacity="1" stroke="#000000" stroke-opacity="1" stroke-width="3.2"/>
<circle clip-path="url(#clip802)" cx="664.453" cy="1222.42" r="3.6" fill="#e26f46" fill-rule="evenodd" fill-opacity="1" stroke="#000000" stroke-opacity="1" stroke-width="3.2"/>
<circle clip-path="url(#clip802)" cx="805.145" cy="1254.41" r="3.6" fill="#e26f46" fill-rule="evenodd" fill-opacity="1" stroke="#000000" stroke-opacity="1" stroke-width="3.2"/>
<circle clip-path="url(#clip802)" cx="945.836" cy="1266.34" r="3.6" fill="#e26f46" fill-rule="evenodd" fill-opacity="1" stroke="#000000" stroke-opacity="1" stroke-width="3.2"/>
<circle clip-path="url(#clip802)" cx="1086.53" cy="1273.69" r="3.6" fill="#e26f46" fill-rule="evenodd" fill-opacity="1" stroke="#000000" stroke-opacity="1" stroke-width="3.2"/>
<circle clip-path="url(#clip802)" cx="1227.22" cy="1278.81" r="3.6" fill="#e26f46" fill-rule="evenodd" fill-opacity="1" stroke="#000000" stroke-opacity="1" stroke-width="3.2"/>
<circle clip-path="url(#clip802)" cx="1367.91" cy="1281.92" r="3.6" fill="#e26f46" fill-rule="evenodd" fill-opacity="1" stroke="#000000" stroke-opacity="1" stroke-width="3.2"/>
<circle clip-path="url(#clip802)" cx="1508.6" cy="1283.42" r="3.6" fill="#e26f46" fill-rule="evenodd" fill-opacity="1" stroke="#000000" stroke-opacity="1" stroke-width="3.2"/>
<circle clip-path="url(#clip802)" cx="1649.3" cy="1283.91" r="3.6" fill="#e26f46" fill-rule="evenodd" fill-opacity="1" stroke="#000000" stroke-opacity="1" stroke-width="3.2"/>
<circle clip-path="url(#clip802)" cx="1789.99" cy="1283.89" r="3.6" fill="#e26f46" fill-rule="evenodd" fill-opacity="1" stroke="#000000" stroke-opacity="1" stroke-width="3.2"/>
<circle clip-path="url(#clip802)" cx="1930.68" cy="1283.66" r="3.6" fill="#e26f46" fill-rule="evenodd" fill-opacity="1" stroke="#000000" stroke-opacity="1" stroke-width="3.2"/>
<circle clip-path="url(#clip802)" cx="2071.37" cy="1283.39" r="3.6" fill="#e26f46" fill-rule="evenodd" fill-opacity="1" stroke="#000000" stroke-opacity="1" stroke-width="3.2"/>
<circle clip-path="url(#clip802)" cx="2212.06" cy="1283.13" r="3.6" fill="#e26f46" fill-rule="evenodd" fill-opacity="1" stroke="#000000" stroke-opacity="1" stroke-width="3.2"/>
<circle clip-path="url(#clip802)" cx="2352.76" cy="1282.94" r="3.6" fill="#e26f46" fill-rule="evenodd" fill-opacity="1" stroke="#000000" stroke-opacity="1" stroke-width="3.2"/>
<path clip-path="url(#clip800)" d="M1631.32 440.581 L2287.1 440.581 L2287.1 90.6606 L1631.32 90.6606  Z" fill="#ffffff" fill-rule="evenodd" fill-opacity="1"/>
<polyline clip-path="url(#clip800)" style="stroke:#000000; stroke-linecap:round; stroke-linejoin:round; stroke-width:4; stroke-opacity:1; fill:none" points="1631.32,440.581 2287.1,440.581 2287.1,90.6606 1631.32,90.6606 1631.32,440.581 "/>
<polyline clip-path="url(#clip800)" style="stroke:#009af9; stroke-linecap:round; stroke-linejoin:round; stroke-width:18; stroke-opacity:1; fill:none" points="1653.2,207.301 1784.51,207.301 "/>
<circle clip-path="url(#clip800)" cx="1718.86" cy="207.301" r="8.10571" fill="#009af9" fill-rule="evenodd" fill-opacity="1" stroke="#000000" stroke-opacity="1" stroke-width="7.20507"/>
<path clip-path="url(#clip800)" d="M1832.5 237.641 L1833.87 246.075 Q1829.84 246.923 1826.66 246.923 Q1821.46 246.923 1818.6 245.279 Q1815.73 243.635 1814.57 240.982 Q1813.4 238.277 1813.4 229.684 L1813.4 197.276 L1806.4 197.276 L1806.4 189.85 L1813.4 189.85 L1813.4 175.9 L1822.89 170.171 L1822.89 189.85 L1832.5 189.85 L1832.5 197.276 L1822.89 197.276 L1822.89 230.215 Q1822.89 234.299 1823.37 235.466 Q1823.9 236.633 1825.02 237.323 Q1826.18 238.012 1828.3 238.012 Q1829.9 238.012 1832.5 237.641 Z" fill="#000000" fill-rule="nonzero" fill-opacity="1" /><path clip-path="url(#clip800)" d="M1841.72 246.181 L1841.72 189.85 L1850.32 189.85 L1850.32 198.39 Q1853.61 192.396 1856.36 190.486 Q1859.18 188.577 1862.52 188.577 Q1867.34 188.577 1872.33 191.653 L1869.04 200.511 Q1865.54 198.443 1862.04 198.443 Q1858.91 198.443 1856.42 200.352 Q1853.92 202.209 1852.86 205.55 Q1851.27 210.642 1851.27 216.689 L1851.27 246.181 L1841.72 246.181 Z" fill="#000000" fill-rule="nonzero" fill-opacity="1" /><path clip-path="url(#clip800)" d="M1914.76 239.232 Q1909.46 243.741 1904.53 245.597 Q1899.65 247.454 1894.02 247.454 Q1884.74 247.454 1879.76 242.945 Q1874.77 238.383 1874.77 231.329 Q1874.77 227.191 1876.63 223.797 Q1878.54 220.349 1881.56 218.28 Q1884.64 216.212 1888.45 215.151 Q1891.27 214.408 1896.94 213.719 Q1908.5 212.34 1913.97 210.43 Q1914.02 208.468 1914.02 207.937 Q1914.02 202.102 1911.32 199.716 Q1907.66 196.48 1900.44 196.48 Q1893.71 196.48 1890.47 198.867 Q1887.29 201.201 1885.75 207.195 L1876.41 205.922 Q1877.69 199.928 1880.6 196.268 Q1883.52 192.555 1889.04 190.592 Q1894.55 188.577 1901.82 188.577 Q1909.04 188.577 1913.54 190.274 Q1918.05 191.971 1920.17 194.57 Q1922.3 197.116 1923.14 201.042 Q1923.62 203.482 1923.62 209.847 L1923.62 222.577 Q1923.62 235.89 1924.21 239.444 Q1924.84 242.945 1926.65 246.181 L1916.67 246.181 Q1915.19 243.21 1914.76 239.232 M1913.97 217.909 Q1908.77 220.031 1898.37 221.516 Q1892.49 222.365 1890.05 223.425 Q1887.61 224.486 1886.28 226.555 Q1884.95 228.571 1884.95 231.064 Q1884.95 234.883 1887.82 237.429 Q1890.74 239.975 1896.31 239.975 Q1901.82 239.975 1906.12 237.588 Q1910.41 235.148 1912.43 230.957 Q1913.97 227.722 1913.97 221.41 L1913.97 217.909 Z" fill="#000000" fill-rule="nonzero" fill-opacity="1" /><path clip-path="url(#clip800)" d="M1938.47 179.4 L1938.47 168.421 L1948.02 168.421 L1948.02 179.4 L1938.47 179.4 M1938.47 246.181 L1938.47 189.85 L1948.02 189.85 L1948.02 246.181 L1938.47 246.181 Z" fill="#000000" fill-rule="nonzero" fill-opacity="1" /><path clip-path="url(#clip800)" d="M1962.55 246.181 L1962.55 189.85 L1971.15 189.85 L1971.15 197.859 Q1977.35 188.577 1989.08 188.577 Q1994.17 188.577 1998.41 190.433 Q2002.71 192.237 2004.83 195.207 Q2006.95 198.177 2007.8 202.262 Q2008.33 204.914 2008.33 211.544 L2008.33 246.181 L1998.78 246.181 L1998.78 211.915 Q1998.78 206.081 1997.67 203.216 Q1996.56 200.299 1993.69 198.602 Q1990.88 196.851 1987.06 196.851 Q1980.96 196.851 1976.51 200.723 Q1972.1 204.595 1972.1 215.416 L1972.1 246.181 L1962.55 246.181 Z" fill="#000000" fill-rule="nonzero" fill-opacity="1" /><path clip-path="url(#clip800)" d="M2014.17 267.769 L2014.17 260.873 L2077.44 260.873 L2077.44 267.769 L2014.17 267.769 Z" fill="#000000" fill-rule="nonzero" fill-opacity="1" /><path clip-path="url(#clip800)" d="M2083.17 246.181 L2083.17 168.421 L2092.72 168.421 L2092.72 246.181 L2083.17 246.181 Z" fill="#000000" fill-rule="nonzero" fill-opacity="1" /><path clip-path="url(#clip800)" d="M2103.97 218.015 Q2103.97 202.368 2112.66 194.836 Q2119.93 188.577 2130.38 188.577 Q2142 188.577 2149.37 196.215 Q2156.74 203.8 2156.74 217.22 Q2156.74 228.093 2153.45 234.352 Q2150.22 240.558 2143.96 244.006 Q2137.75 247.454 2130.38 247.454 Q2118.55 247.454 2111.23 239.869 Q2103.97 232.284 2103.97 218.015 M2113.78 218.015 Q2113.78 228.836 2118.5 234.246 Q2123.22 239.603 2130.38 239.603 Q2137.49 239.603 2142.21 234.193 Q2146.93 228.783 2146.93 217.697 Q2146.93 207.248 2142.16 201.89 Q2137.44 196.48 2130.38 196.48 Q2123.22 196.48 2118.5 201.837 Q2113.78 207.195 2113.78 218.015 Z" fill="#000000" fill-rule="nonzero" fill-opacity="1" /><path clip-path="url(#clip800)" d="M2164.12 229.366 L2173.56 227.881 Q2174.35 233.557 2177.96 236.58 Q2181.62 239.603 2188.14 239.603 Q2194.72 239.603 2197.9 236.951 Q2201.09 234.246 2201.09 230.639 Q2201.09 227.404 2198.27 225.547 Q2196.31 224.274 2188.52 222.312 Q2178.01 219.659 2173.93 217.75 Q2169.9 215.787 2167.78 212.393 Q2165.71 208.945 2165.71 204.808 Q2165.71 201.042 2167.4 197.859 Q2169.15 194.624 2172.13 192.502 Q2174.35 190.858 2178.17 189.744 Q2182.04 188.577 2186.45 188.577 Q2193.08 188.577 2198.06 190.486 Q2203.1 192.396 2205.49 195.684 Q2207.88 198.92 2208.78 204.383 L2199.44 205.656 Q2198.81 201.307 2195.73 198.867 Q2192.71 196.427 2187.14 196.427 Q2180.56 196.427 2177.75 198.602 Q2174.94 200.776 2174.94 203.694 Q2174.94 205.55 2176.1 207.035 Q2177.27 208.574 2179.76 209.581 Q2181.2 210.112 2188.2 212.021 Q2198.33 214.727 2202.31 216.477 Q2206.34 218.174 2208.62 221.463 Q2210.9 224.752 2210.9 229.631 Q2210.9 234.405 2208.09 238.649 Q2205.33 242.839 2200.08 245.173 Q2194.83 247.454 2188.2 247.454 Q2177.22 247.454 2171.44 242.892 Q2165.71 238.33 2164.12 229.366 Z" fill="#000000" fill-rule="nonzero" fill-opacity="1" /><path clip-path="url(#clip800)" d="M2218.43 229.366 L2227.87 227.881 Q2228.67 233.557 2232.27 236.58 Q2235.93 239.603 2242.46 239.603 Q2249.04 239.603 2252.22 236.951 Q2255.4 234.246 2255.4 230.639 Q2255.4 227.404 2252.59 225.547 Q2250.63 224.274 2242.83 222.312 Q2232.33 219.659 2228.24 217.75 Q2224.21 215.787 2222.09 212.393 Q2220.02 208.945 2220.02 204.808 Q2220.02 201.042 2221.72 197.859 Q2223.47 194.624 2226.44 192.502 Q2228.67 190.858 2232.49 189.744 Q2236.36 188.577 2240.76 188.577 Q2247.39 188.577 2252.38 190.486 Q2257.42 192.396 2259.8 195.684 Q2262.19 198.92 2263.09 204.383 L2253.76 205.656 Q2253.12 201.307 2250.04 198.867 Q2247.02 196.427 2241.45 196.427 Q2234.87 196.427 2232.06 198.602 Q2229.25 200.776 2229.25 203.694 Q2229.25 205.55 2230.42 207.035 Q2231.59 208.574 2234.08 209.581 Q2235.51 210.112 2242.51 212.021 Q2252.64 214.727 2256.62 216.477 Q2260.65 218.174 2262.93 221.463 Q2265.21 224.752 2265.21 229.631 Q2265.21 234.405 2262.4 238.649 Q2259.64 242.839 2254.39 245.173 Q2249.14 247.454 2242.51 247.454 Q2231.53 247.454 2225.75 242.892 Q2220.02 238.33 2218.43 229.366 Z" fill="#000000" fill-rule="nonzero" fill-opacity="1" /><polyline clip-path="url(#clip800)" style="stroke:#e26f46; stroke-linecap:round; stroke-linejoin:round; stroke-width:18; stroke-opacity:1; fill:none" points="1653.2,323.941 1784.51,323.941 "/>
<circle clip-path="url(#clip800)" cx="1718.86" cy="323.941" r="8.10571" fill="#e26f46" fill-rule="evenodd" fill-opacity="1" stroke="#000000" stroke-opacity="1" stroke-width="7.20507"/>
<path clip-path="url(#clip800)" d="M1827.83 362.821 L1806.4 306.49 L1816.48 306.49 L1828.57 340.225 Q1830.53 345.688 1832.18 351.576 Q1833.45 347.12 1835.73 340.861 L1848.25 306.49 L1858.06 306.49 L1836.74 362.821 L1827.83 362.821 Z" fill="#000000" fill-rule="nonzero" fill-opacity="1" /><path clip-path="url(#clip800)" d="M1903.25 355.872 Q1897.95 360.381 1893.02 362.237 Q1888.14 364.094 1882.51 364.094 Q1873.23 364.094 1868.25 359.585 Q1863.26 355.023 1863.26 347.969 Q1863.26 343.831 1865.12 340.437 Q1867.03 336.989 1870.05 334.92 Q1873.13 332.852 1876.94 331.791 Q1879.76 331.048 1885.43 330.359 Q1896.99 328.98 1902.46 327.07 Q1902.51 325.108 1902.51 324.577 Q1902.51 318.742 1899.81 316.356 Q1896.15 313.12 1888.93 313.12 Q1882.2 313.12 1878.96 315.507 Q1875.78 317.841 1874.24 323.835 L1864.9 322.562 Q1866.18 316.568 1869.09 312.908 Q1872.01 309.195 1877.53 307.232 Q1883.04 305.217 1890.31 305.217 Q1897.53 305.217 1902.03 306.914 Q1906.54 308.611 1908.66 311.21 Q1910.79 313.756 1911.63 317.682 Q1912.11 320.122 1912.11 326.487 L1912.11 339.217 Q1912.11 352.53 1912.7 356.084 Q1913.33 359.585 1915.14 362.821 L1905.16 362.821 Q1903.68 359.85 1903.25 355.872 M1902.46 334.549 Q1897.26 336.671 1886.86 338.156 Q1880.98 339.005 1878.54 340.065 Q1876.1 341.126 1874.77 343.195 Q1873.44 345.211 1873.44 347.704 Q1873.44 351.523 1876.31 354.069 Q1879.23 356.615 1884.79 356.615 Q1890.31 356.615 1894.61 354.228 Q1898.9 351.788 1900.92 347.597 Q1902.46 344.362 1902.46 338.05 L1902.46 334.549 Z" fill="#000000" fill-rule="nonzero" fill-opacity="1" /><path clip-path="url(#clip800)" d="M1926.7 362.821 L1926.7 285.061 L1936.25 285.061 L1936.25 362.821 L1926.7 362.821 Z" fill="#000000" fill-rule="nonzero" fill-opacity="1" /><path clip-path="url(#clip800)" d="M1942.24 384.409 L1942.24 377.513 L2005.52 377.513 L2005.52 384.409 L1942.24 384.409 Z" fill="#000000" fill-rule="nonzero" fill-opacity="1" /><path clip-path="url(#clip800)" d="M2011.25 362.821 L2011.25 285.061 L2020.8 285.061 L2020.8 362.821 L2011.25 362.821 Z" fill="#000000" fill-rule="nonzero" fill-opacity="1" /><path clip-path="url(#clip800)" d="M2032.04 334.655 Q2032.04 319.008 2040.74 311.476 Q2048.01 305.217 2058.46 305.217 Q2070.07 305.217 2077.44 312.855 Q2084.82 320.44 2084.82 333.86 Q2084.82 344.733 2081.53 350.992 Q2078.29 357.198 2072.03 360.646 Q2065.83 364.094 2058.46 364.094 Q2046.63 364.094 2039.31 356.509 Q2032.04 348.924 2032.04 334.655 M2041.85 334.655 Q2041.85 345.476 2046.57 350.886 Q2051.29 356.243 2058.46 356.243 Q2065.56 356.243 2070.28 350.833 Q2075 345.423 2075 334.337 Q2075 323.888 2070.23 318.53 Q2065.51 313.12 2058.46 313.12 Q2051.29 313.12 2046.57 318.477 Q2041.85 323.835 2041.85 334.655 Z" fill="#000000" fill-rule="nonzero" fill-opacity="1" /><path clip-path="url(#clip800)" d="M2092.19 346.006 L2101.63 344.521 Q2102.43 350.197 2106.03 353.22 Q2109.69 356.243 2116.22 356.243 Q2122.8 356.243 2125.98 353.591 Q2129.16 350.886 2129.16 347.279 Q2129.16 344.044 2126.35 342.187 Q2124.39 340.914 2116.59 338.952 Q2106.09 336.299 2102 334.39 Q2097.97 332.427 2095.85 329.033 Q2093.78 325.585 2093.78 321.448 Q2093.78 317.682 2095.48 314.499 Q2097.23 311.264 2100.2 309.142 Q2102.43 307.498 2106.25 306.384 Q2110.12 305.217 2114.52 305.217 Q2121.15 305.217 2126.14 307.126 Q2131.18 309.036 2133.56 312.324 Q2135.95 315.56 2136.85 321.023 L2127.52 322.296 Q2126.88 317.947 2123.8 315.507 Q2120.78 313.067 2115.21 313.067 Q2108.63 313.067 2105.82 315.242 Q2103.01 317.416 2103.01 320.334 Q2103.01 322.19 2104.18 323.675 Q2105.34 325.214 2107.84 326.221 Q2109.27 326.752 2116.27 328.661 Q2126.4 331.367 2130.38 333.117 Q2134.41 334.814 2136.69 338.103 Q2138.97 341.392 2138.97 346.271 Q2138.97 351.045 2136.16 355.289 Q2133.4 359.479 2128.15 361.813 Q2122.9 364.094 2116.27 364.094 Q2105.29 364.094 2099.51 359.532 Q2093.78 354.97 2092.19 346.006 Z" fill="#000000" fill-rule="nonzero" fill-opacity="1" /><path clip-path="url(#clip800)" d="M2146.51 346.006 L2155.95 344.521 Q2156.74 350.197 2160.35 353.22 Q2164.01 356.243 2170.53 356.243 Q2177.11 356.243 2180.29 353.591 Q2183.48 350.886 2183.48 347.279 Q2183.48 344.044 2180.66 342.187 Q2178.7 340.914 2170.91 338.952 Q2160.4 336.299 2156.32 334.39 Q2152.29 332.427 2150.17 329.033 Q2148.1 325.585 2148.1 321.448 Q2148.1 317.682 2149.79 314.499 Q2151.54 311.264 2154.51 309.142 Q2156.74 307.498 2160.56 306.384 Q2164.43 305.217 2168.84 305.217 Q2175.47 305.217 2180.45 307.126 Q2185.49 309.036 2187.88 312.324 Q2190.27 315.56 2191.17 321.023 L2181.83 322.296 Q2181.2 317.947 2178.12 315.507 Q2175.1 313.067 2169.53 313.067 Q2162.95 313.067 2160.14 315.242 Q2157.33 317.416 2157.33 320.334 Q2157.33 322.19 2158.49 323.675 Q2159.66 325.214 2162.15 326.221 Q2163.59 326.752 2170.59 328.661 Q2180.72 331.367 2184.7 333.117 Q2188.73 334.814 2191.01 338.103 Q2193.29 341.392 2193.29 346.271 Q2193.29 351.045 2190.48 355.289 Q2187.72 359.479 2182.47 361.813 Q2177.22 364.094 2170.59 364.094 Q2159.61 364.094 2153.83 359.532 Q2148.1 354.97 2146.51 346.006 Z" fill="#000000" fill-rule="nonzero" fill-opacity="1" /></svg>
