<?xml version="1.0" encoding="utf-8"?>
<svg xmlns="http://www.w3.org/2000/svg" xmlns:xlink="http://www.w3.org/1999/xlink" width="600" height="400" viewBox="0 0 2400 1600">
<defs>
  <clipPath id="clip400">
    <rect x="0" y="0" width="2400" height="1600"/>
  </clipPath>
</defs>
<path clip-path="url(#clip400)" d="M0 1600 L2400 1600 L2400 8.88178e-14 L0 8.88178e-14  Z" fill="#ffffff" fill-rule="evenodd" fill-opacity="1"/>
<defs>
  <clipPath id="clip401">
    <rect x="480" y="0" width="1681" height="1600"/>
  </clipPath>
</defs>
<path clip-path="url(#clip400)" d="M382.644 1349.74 L2352.76 1349.74 L2352.76 47.2441 L382.644 47.2441  Z" fill="#ffffff" fill-rule="evenodd" fill-opacity="1"/>
<defs>
  <clipPath id="clip402">
    <rect x="382" y="47" width="1971" height="1303"/>
  </clipPath>
</defs>
<polyline clip-path="url(#clip400)" style="stroke:#000000; stroke-linecap:round; stroke-linejoin:round; stroke-width:4; stroke-opacity:1; fill:none" points="382.644,1349.74 2352.76,1349.74 "/>
<polyline clip-path="url(#clip400)" style="stroke:#000000; stroke-linecap:round; stroke-linejoin:round; stroke-width:2; stroke-opacity:0.5; fill:none" points="382.644,47.2441 2352.76,47.2441 "/>
<polyline clip-path="url(#clip400)" style="stroke:#000000; stroke-linecap:round; stroke-linejoin:round; stroke-width:4; stroke-opacity:1; fill:none" points="382.644,1349.74 382.644,1330.84 "/>
<polyline clip-path="url(#clip400)" style="stroke:#000000; stroke-linecap:round; stroke-linejoin:round; stroke-width:4; stroke-opacity:1; fill:none" points="875.172,1349.74 875.172,1330.84 "/>
<polyline clip-path="url(#clip400)" style="stroke:#000000; stroke-linecap:round; stroke-linejoin:round; stroke-width:4; stroke-opacity:1; fill:none" points="1367.7,1349.74 1367.7,1330.84 "/>
<polyline clip-path="url(#clip400)" style="stroke:#000000; stroke-linecap:round; stroke-linejoin:round; stroke-width:4; stroke-opacity:1; fill:none" points="1860.23,1349.74 1860.23,1330.84 "/>
<polyline clip-path="url(#clip400)" style="stroke:#000000; stroke-linecap:round; stroke-linejoin:round; stroke-width:4; stroke-opacity:1; fill:none" points="2352.76,1349.74 2352.76,1330.84 "/>
<path clip-path="url(#clip400)" d="M344.295 1466.14 L334.747 1466.14 L334.747 1405.3 Q331.299 1408.59 325.677 1411.88 Q320.107 1415.17 315.652 1416.81 L315.652 1407.58 Q323.661 1403.82 329.655 1398.46 Q335.649 1393.1 338.142 1388.06 L344.295 1388.06 L344.295 1466.14 Z" fill="#000000" fill-rule="nonzero" fill-opacity="1" /><path clip-path="url(#clip400)" d="M374.105 1466.14 L374.105 1455.27 L384.978 1455.27 L384.978 1466.14 L374.105 1466.14 Z" fill="#000000" fill-rule="nonzero" fill-opacity="1" /><path clip-path="url(#clip400)" d="M398.928 1427.79 Q398.928 1414 401.74 1405.62 Q404.604 1397.18 410.173 1392.62 Q415.796 1388.06 424.283 1388.06 Q430.542 1388.06 435.262 1390.61 Q439.983 1393.1 443.06 1397.87 Q446.136 1402.6 447.886 1409.44 Q449.637 1416.23 449.637 1427.79 Q449.637 1441.48 446.826 1449.91 Q444.014 1458.29 438.392 1462.9 Q432.822 1467.47 424.283 1467.47 Q413.038 1467.47 406.619 1459.4 Q398.928 1449.7 398.928 1427.79 M408.741 1427.79 Q408.741 1446.94 413.197 1453.3 Q417.705 1459.62 424.283 1459.62 Q430.86 1459.62 435.315 1453.25 Q439.824 1446.89 439.824 1427.79 Q439.824 1408.59 435.315 1402.28 Q430.86 1395.96 424.176 1395.96 Q417.599 1395.96 413.674 1401.53 Q408.741 1408.64 408.741 1427.79 Z" fill="#000000" fill-rule="nonzero" fill-opacity="1" /><path clip-path="url(#clip400)" d="M836.398 1466.14 L826.851 1466.14 L826.851 1405.3 Q823.403 1408.59 817.78 1411.88 Q812.211 1415.17 807.755 1416.81 L807.755 1407.58 Q815.765 1403.82 821.759 1398.46 Q827.752 1393.1 830.245 1388.06 L836.398 1388.06 L836.398 1466.14 Z" fill="#000000" fill-rule="nonzero" fill-opacity="1" /><path clip-path="url(#clip400)" d="M866.208 1466.14 L866.208 1455.27 L877.082 1455.27 L877.082 1466.14 L866.208 1466.14 Z" fill="#000000" fill-rule="nonzero" fill-opacity="1" /><path clip-path="url(#clip400)" d="M891.032 1445.77 L901.057 1444.92 Q902.171 1452.24 906.202 1455.96 Q910.286 1459.62 916.015 1459.62 Q922.91 1459.62 927.684 1454.42 Q932.458 1449.22 932.458 1440.63 Q932.458 1432.46 927.843 1427.74 Q923.282 1423.02 915.856 1423.02 Q911.241 1423.02 907.528 1425.14 Q903.815 1427.21 901.693 1430.55 L892.729 1429.38 L900.261 1389.44 L938.929 1389.44 L938.929 1398.56 L907.899 1398.56 L903.709 1419.46 Q910.711 1414.58 918.402 1414.58 Q928.586 1414.58 935.587 1421.64 Q942.589 1428.69 942.589 1439.78 Q942.589 1450.33 936.436 1458.02 Q928.957 1467.47 916.015 1467.47 Q905.406 1467.47 898.67 1461.53 Q891.987 1455.58 891.032 1445.77 Z" fill="#000000" fill-rule="nonzero" fill-opacity="1" /><path clip-path="url(#clip400)" d="M1347.89 1456.96 L1347.89 1466.14 L1296.49 1466.14 Q1296.38 1462.69 1297.6 1459.51 Q1299.57 1454.26 1303.86 1449.17 Q1308.21 1444.07 1316.38 1437.39 Q1329.06 1426.99 1333.51 1420.95 Q1337.97 1414.85 1337.97 1409.44 Q1337.97 1403.76 1333.89 1399.89 Q1329.85 1395.96 1323.33 1395.96 Q1316.43 1395.96 1312.3 1400.1 Q1308.16 1404.24 1308.11 1411.56 L1298.29 1410.55 Q1299.3 1399.57 1305.88 1393.84 Q1312.46 1388.06 1323.54 1388.06 Q1334.73 1388.06 1341.26 1394.27 Q1347.78 1400.47 1347.78 1409.65 Q1347.78 1414.32 1345.87 1418.83 Q1343.96 1423.33 1339.51 1428.32 Q1335.11 1433.31 1324.82 1442.01 Q1316.22 1449.22 1313.78 1451.82 Q1311.34 1454.36 1309.75 1456.96 L1347.89 1456.96 Z" fill="#000000" fill-rule="nonzero" fill-opacity="1" /><path clip-path="url(#clip400)" d="M1363.48 1466.14 L1363.48 1455.27 L1374.36 1455.27 L1374.36 1466.14 L1363.48 1466.14 Z" fill="#000000" fill-rule="nonzero" fill-opacity="1" /><path clip-path="url(#clip400)" d="M1388.31 1427.79 Q1388.31 1414 1391.12 1405.62 Q1393.98 1397.18 1399.55 1392.62 Q1405.17 1388.06 1413.66 1388.06 Q1419.92 1388.06 1424.64 1390.61 Q1429.36 1393.1 1432.44 1397.87 Q1435.51 1402.6 1437.27 1409.44 Q1439.02 1416.23 1439.02 1427.79 Q1439.02 1441.48 1436.2 1449.91 Q1433.39 1458.29 1427.77 1462.9 Q1422.2 1467.47 1413.66 1467.47 Q1402.42 1467.47 1396 1459.4 Q1388.31 1449.7 1388.31 1427.79 M1398.12 1427.79 Q1398.12 1446.94 1402.58 1453.3 Q1407.08 1459.62 1413.66 1459.62 Q1420.24 1459.62 1424.69 1453.25 Q1429.2 1446.89 1429.2 1427.79 Q1429.2 1408.59 1424.69 1402.28 Q1420.24 1395.96 1413.56 1395.96 Q1406.98 1395.96 1403.05 1401.53 Q1398.12 1408.64 1398.12 1427.79 Z" fill="#000000" fill-rule="nonzero" fill-opacity="1" /><path clip-path="url(#clip400)" d="M1839.99 1456.96 L1839.99 1466.14 L1788.59 1466.14 Q1788.49 1462.69 1789.71 1459.51 Q1791.67 1454.26 1795.97 1449.17 Q1800.32 1444.07 1808.49 1437.39 Q1821.16 1426.99 1825.62 1420.95 Q1830.07 1414.85 1830.07 1409.44 Q1830.07 1403.76 1825.99 1399.89 Q1821.96 1395.96 1815.43 1395.96 Q1808.54 1395.96 1804.4 1400.1 Q1800.26 1404.24 1800.21 1411.56 L1790.4 1410.55 Q1791.41 1399.57 1797.98 1393.84 Q1804.56 1388.06 1815.65 1388.06 Q1826.84 1388.06 1833.36 1394.27 Q1839.89 1400.47 1839.89 1409.65 Q1839.89 1414.32 1837.98 1418.83 Q1836.07 1423.33 1831.61 1428.32 Q1827.21 1433.31 1816.92 1442.01 Q1808.33 1449.22 1805.89 1451.82 Q1803.45 1454.36 1801.85 1456.96 L1839.99 1456.96 Z" fill="#000000" fill-rule="nonzero" fill-opacity="1" /><path clip-path="url(#clip400)" d="M1855.59 1466.14 L1855.59 1455.27 L1866.46 1455.27 L1866.46 1466.14 L1855.59 1466.14 Z" fill="#000000" fill-rule="nonzero" fill-opacity="1" /><path clip-path="url(#clip400)" d="M1880.41 1445.77 L1890.44 1444.92 Q1891.55 1452.24 1895.58 1455.96 Q1899.66 1459.62 1905.39 1459.62 Q1912.29 1459.62 1917.06 1454.42 Q1921.84 1449.22 1921.84 1440.63 Q1921.84 1432.46 1917.22 1427.74 Q1912.66 1423.02 1905.23 1423.02 Q1900.62 1423.02 1896.91 1425.14 Q1893.19 1427.21 1891.07 1430.55 L1882.11 1429.38 L1889.64 1389.44 L1928.31 1389.44 L1928.31 1398.56 L1897.28 1398.56 L1893.09 1419.46 Q1900.09 1414.58 1907.78 1414.58 Q1917.96 1414.58 1924.97 1421.64 Q1931.97 1428.69 1931.97 1439.78 Q1931.97 1450.33 1925.81 1458.02 Q1918.34 1467.47 1905.39 1467.47 Q1894.79 1467.47 1888.05 1461.53 Q1881.37 1455.58 1880.41 1445.77 Z" fill="#000000" fill-rule="nonzero" fill-opacity="1" /><path clip-path="url(#clip400)" d="M2282.13 1445.61 L2291.68 1444.34 Q2293.32 1452.45 2297.25 1456.06 Q2301.23 1459.62 2306.9 1459.62 Q2313.64 1459.62 2318.25 1454.95 Q2322.92 1450.28 2322.92 1443.38 Q2322.92 1436.81 2318.62 1432.56 Q2314.33 1428.27 2307.7 1428.27 Q2304.99 1428.27 2300.96 1429.33 L2302.02 1420.95 Q2302.98 1421.05 2303.56 1421.05 Q2309.66 1421.05 2314.54 1417.87 Q2319.42 1414.69 2319.42 1408.06 Q2319.42 1402.81 2315.86 1399.36 Q2312.31 1395.91 2306.69 1395.91 Q2301.12 1395.91 2297.41 1399.41 Q2293.69 1402.91 2292.63 1409.92 L2283.08 1408.22 Q2284.84 1398.62 2291.04 1393.37 Q2297.25 1388.06 2306.48 1388.06 Q2312.84 1388.06 2318.2 1390.82 Q2323.56 1393.52 2326.37 1398.25 Q2329.23 1402.97 2329.23 1408.27 Q2329.23 1413.31 2326.53 1417.45 Q2323.82 1421.58 2318.52 1424.02 Q2325.41 1425.62 2329.23 1430.65 Q2333.05 1435.64 2333.05 1443.17 Q2333.05 1453.36 2325.62 1460.46 Q2318.2 1467.52 2306.85 1467.52 Q2296.61 1467.52 2289.82 1461.42 Q2283.08 1455.32 2282.13 1445.61 Z" fill="#000000" fill-rule="nonzero" fill-opacity="1" /><path clip-path="url(#clip400)" d="M2347.85 1466.14 L2347.85 1455.27 L2358.72 1455.27 L2358.72 1466.14 L2347.85 1466.14 Z" fill="#000000" fill-rule="nonzero" fill-opacity="1" /><path clip-path="url(#clip400)" d="M2372.67 1427.79 Q2372.67 1414 2375.48 1405.62 Q2378.35 1397.18 2383.92 1392.62 Q2389.54 1388.06 2398.03 1388.06 Q2404.29 1388.06 2409.01 1390.61 Q2413.73 1393.1 2416.8 1397.87 Q2419.88 1402.6 2421.63 1409.44 Q2423.38 1416.23 2423.38 1427.79 Q2423.38 1441.48 2420.57 1449.91 Q2417.76 1458.29 2412.14 1462.9 Q2406.57 1467.47 2398.03 1467.47 Q2386.78 1467.47 2380.36 1459.4 Q2372.67 1449.7 2372.67 1427.79 M2382.49 1427.79 Q2382.49 1446.94 2386.94 1453.3 Q2391.45 1459.62 2398.03 1459.62 Q2404.6 1459.62 2409.06 1453.25 Q2413.57 1446.89 2413.57 1427.79 Q2413.57 1408.59 2409.06 1402.28 Q2404.6 1395.96 2397.92 1395.96 Q2391.34 1395.96 2387.42 1401.53 Q2382.49 1408.64 2382.49 1427.79 Z" fill="#000000" fill-rule="nonzero" fill-opacity="1" /><path clip-path="url(#clip400)" d="M1267.13 1577.55 L1277 1578.77 Q1274.66 1587.42 1268.35 1592.19 Q1262.04 1596.96 1252.23 1596.96 Q1239.87 1596.96 1232.6 1589.38 Q1225.39 1581.74 1225.39 1568 Q1225.39 1553.79 1232.71 1545.94 Q1240.03 1538.09 1251.7 1538.09 Q1262.99 1538.09 1270.16 1545.78 Q1277.32 1553.47 1277.32 1567.42 Q1277.32 1568.27 1277.26 1569.97 L1235.25 1569.97 Q1235.78 1579.25 1240.5 1584.18 Q1245.23 1589.11 1252.28 1589.11 Q1257.53 1589.11 1261.24 1586.36 Q1264.96 1583.6 1267.13 1577.55 M1235.78 1562.12 L1267.24 1562.12 Q1266.6 1555.01 1263.63 1551.45 Q1259.07 1545.94 1251.8 1545.94 Q1245.23 1545.94 1240.72 1550.34 Q1236.26 1554.74 1235.78 1562.12 Z" fill="#000000" fill-rule="nonzero" fill-opacity="1" /><path clip-path="url(#clip400)" d="M1288.99 1617.28 L1288.99 1539.36 L1297.68 1539.36 L1297.68 1546.68 Q1300.76 1542.38 1304.63 1540.26 Q1308.5 1538.09 1314.02 1538.09 Q1321.24 1538.09 1326.75 1541.8 Q1332.27 1545.51 1335.08 1552.3 Q1337.89 1559.04 1337.89 1567.1 Q1337.89 1575.75 1334.76 1582.7 Q1331.68 1589.59 1325.74 1593.3 Q1319.86 1596.96 1313.33 1596.96 Q1308.56 1596.96 1304.74 1594.95 Q1300.97 1592.93 1298.53 1589.86 L1298.53 1617.28 L1288.99 1617.28 M1297.63 1567.84 Q1297.63 1578.72 1302.03 1583.92 Q1306.44 1589.11 1312.7 1589.11 Q1319.06 1589.11 1323.57 1583.76 Q1328.13 1578.35 1328.13 1567.05 Q1328.13 1556.28 1323.68 1550.92 Q1319.27 1545.57 1313.12 1545.57 Q1307.02 1545.57 1302.3 1551.3 Q1297.63 1556.97 1297.63 1567.84 Z" fill="#000000" fill-rule="nonzero" fill-opacity="1" /><path clip-path="url(#clip400)" d="M1345.85 1567.53 Q1345.85 1551.88 1354.55 1544.35 Q1361.81 1538.09 1372.26 1538.09 Q1383.88 1538.09 1391.25 1545.73 Q1398.62 1553.31 1398.62 1566.73 Q1398.62 1577.6 1395.34 1583.86 Q1392.1 1590.07 1385.84 1593.52 Q1379.63 1596.96 1372.26 1596.96 Q1360.43 1596.96 1353.11 1589.38 Q1345.85 1581.79 1345.85 1567.53 M1355.66 1567.53 Q1355.66 1578.35 1360.38 1583.76 Q1365.1 1589.11 1372.26 1589.11 Q1379.37 1589.11 1384.09 1583.7 Q1388.81 1578.29 1388.81 1567.21 Q1388.81 1556.76 1384.04 1551.4 Q1379.32 1545.99 1372.26 1545.99 Q1365.1 1545.99 1360.38 1551.35 Q1355.66 1556.71 1355.66 1567.53 Z" fill="#000000" fill-rule="nonzero" fill-opacity="1" /><path clip-path="url(#clip400)" d="M1446.57 1575.06 L1455.96 1576.28 Q1454.42 1585.99 1448.06 1591.5 Q1441.75 1596.96 1432.52 1596.96 Q1420.95 1596.96 1413.9 1589.43 Q1406.9 1581.85 1406.9 1567.74 Q1406.9 1558.62 1409.92 1551.77 Q1412.95 1544.93 1419.1 1541.54 Q1425.3 1538.09 1432.57 1538.09 Q1441.75 1538.09 1447.58 1542.76 Q1453.42 1547.37 1455.06 1555.91 L1445.78 1557.34 Q1444.45 1551.67 1441.06 1548.8 Q1437.72 1545.94 1432.94 1545.94 Q1425.73 1545.94 1421.22 1551.14 Q1416.71 1556.28 1416.71 1567.47 Q1416.71 1578.82 1421.06 1583.97 Q1425.41 1589.11 1432.41 1589.11 Q1438.03 1589.11 1441.8 1585.67 Q1445.57 1582.22 1446.57 1575.06 Z" fill="#000000" fill-rule="nonzero" fill-opacity="1" /><path clip-path="url(#clip400)" d="M1464.13 1595.69 L1464.13 1517.93 L1473.68 1517.93 L1473.68 1545.83 Q1480.36 1538.09 1490.55 1538.09 Q1496.81 1538.09 1501.42 1540.58 Q1506.03 1543.02 1508 1547.37 Q1510.01 1551.72 1510.01 1559.99 L1510.01 1595.69 L1500.46 1595.69 L1500.46 1559.99 Q1500.46 1552.83 1497.34 1549.6 Q1494.26 1546.31 1488.58 1546.31 Q1484.34 1546.31 1480.57 1548.54 Q1476.86 1550.71 1475.27 1554.48 Q1473.68 1558.24 1473.68 1564.87 L1473.68 1595.69 L1464.13 1595.69 Z" fill="#000000" fill-rule="nonzero" fill-opacity="1" /><polyline clip-path="url(#clip400)" style="stroke:#000000; stroke-linecap:round; stroke-linejoin:round; stroke-width:4; stroke-opacity:1; fill:none" points="382.644,1349.74 382.644,47.2441 "/>
<polyline clip-path="url(#clip400)" style="stroke:#000000; stroke-linecap:round; stroke-linejoin:round; stroke-width:2; stroke-opacity:0.5; fill:none" points="2352.76,1349.74 2352.76,47.2441 "/>
<polyline clip-path="url(#clip400)" style="stroke:#000000; stroke-linecap:round; stroke-linejoin:round; stroke-width:4; stroke-opacity:1; fill:none" points="382.644,1288.7 401.542,1288.7 "/>
<polyline clip-path="url(#clip400)" style="stroke:#000000; stroke-linecap:round; stroke-linejoin:round; stroke-width:4; stroke-opacity:1; fill:none" points="382.644,949.379 401.542,949.379 "/>
<polyline clip-path="url(#clip400)" style="stroke:#000000; stroke-linecap:round; stroke-linejoin:round; stroke-width:4; stroke-opacity:1; fill:none" points="382.644,610.06 401.542,610.06 "/>
<polyline clip-path="url(#clip400)" style="stroke:#000000; stroke-linecap:round; stroke-linejoin:round; stroke-width:4; stroke-opacity:1; fill:none" points="382.644,270.74 401.542,270.74 "/>
<path clip-path="url(#clip400)" d="M144.712 1289.23 Q144.712 1275.44 147.524 1267.06 Q150.388 1258.62 155.957 1254.06 Q161.58 1249.5 170.067 1249.5 Q176.326 1249.5 181.046 1252.05 Q185.767 1254.54 188.844 1259.31 Q191.92 1264.03 193.67 1270.88 Q195.421 1277.67 195.421 1289.23 Q195.421 1302.91 192.61 1311.35 Q189.798 1319.73 184.176 1324.34 Q178.606 1328.9 170.067 1328.9 Q158.822 1328.9 152.403 1320.84 Q144.712 1311.14 144.712 1289.23 M154.525 1289.23 Q154.525 1308.38 158.981 1314.74 Q163.489 1321.05 170.067 1321.05 Q176.644 1321.05 181.099 1314.69 Q185.608 1308.32 185.608 1289.23 Q185.608 1270.03 181.099 1263.72 Q176.644 1257.4 169.96 1257.4 Q163.383 1257.4 159.458 1262.97 Q154.525 1270.08 154.525 1289.23 Z" fill="#000000" fill-rule="nonzero" fill-opacity="1" /><path clip-path="url(#clip400)" d="M210.485 1327.58 L210.485 1316.7 L221.358 1316.7 L221.358 1327.58 L210.485 1327.58 Z" fill="#000000" fill-rule="nonzero" fill-opacity="1" /><path clip-path="url(#clip400)" d="M271.271 1327.58 L261.724 1327.58 L261.724 1266.74 Q258.276 1270.03 252.653 1273.32 Q247.084 1276.6 242.628 1278.25 L242.628 1269.02 Q250.638 1265.25 256.632 1259.9 Q262.625 1254.54 265.118 1249.5 L271.271 1249.5 L271.271 1327.58 Z" fill="#000000" fill-rule="nonzero" fill-opacity="1" /><path clip-path="url(#clip400)" d="M345.265 1268.86 L335.771 1269.6 Q334.498 1263.98 332.164 1261.43 Q328.292 1257.35 322.616 1257.35 Q318.055 1257.35 314.607 1259.9 Q310.098 1263.18 307.499 1269.5 Q304.9 1275.81 304.794 1287.48 Q308.242 1282.23 313.228 1279.68 Q318.214 1277.14 323.677 1277.14 Q333.225 1277.14 339.908 1284.19 Q346.644 1291.19 346.644 1302.33 Q346.644 1309.65 343.462 1315.96 Q340.332 1322.22 334.816 1325.56 Q329.3 1328.9 322.298 1328.9 Q310.363 1328.9 302.831 1320.15 Q295.299 1311.35 295.299 1291.19 Q295.299 1268.65 303.627 1258.41 Q310.894 1249.5 323.2 1249.5 Q332.376 1249.5 338.211 1254.65 Q344.098 1259.79 345.265 1268.86 M306.279 1302.38 Q306.279 1307.32 308.348 1311.82 Q310.469 1316.33 314.235 1318.72 Q318.001 1321.05 322.139 1321.05 Q328.186 1321.05 332.535 1316.17 Q336.885 1311.29 336.885 1302.91 Q336.885 1294.85 332.588 1290.24 Q328.292 1285.57 321.767 1285.57 Q315.296 1285.57 310.788 1290.24 Q306.279 1294.85 306.279 1302.38 Z" fill="#000000" fill-rule="nonzero" fill-opacity="1" /><path clip-path="url(#clip400)" d="M144.5 949.909 Q144.5 936.118 147.311 927.738 Q150.176 919.304 155.745 914.742 Q161.368 910.181 169.854 910.181 Q176.113 910.181 180.834 912.727 Q185.555 915.22 188.631 919.994 Q191.708 924.714 193.458 931.557 Q195.209 938.346 195.209 949.909 Q195.209 963.594 192.397 972.028 Q189.586 980.409 183.964 985.023 Q178.394 989.585 169.854 989.585 Q158.609 989.585 152.191 981.523 Q144.5 971.816 144.5 949.909 M154.313 949.909 Q154.313 969.058 158.769 975.423 Q163.277 981.735 169.854 981.735 Q176.432 981.735 180.887 975.37 Q185.396 969.005 185.396 949.909 Q185.396 930.708 180.887 924.396 Q176.432 918.084 169.748 918.084 Q163.171 918.084 159.246 923.653 Q154.313 930.761 154.313 949.909 Z" fill="#000000" fill-rule="nonzero" fill-opacity="1" /><path clip-path="url(#clip400)" d="M210.273 988.259 L210.273 977.385 L221.146 977.385 L221.146 988.259 L210.273 988.259 Z" fill="#000000" fill-rule="nonzero" fill-opacity="1" /><path clip-path="url(#clip400)" d="M271.059 988.259 L261.511 988.259 L261.511 927.419 Q258.064 930.708 252.441 933.997 Q246.872 937.285 242.416 938.93 L242.416 929.7 Q250.426 925.934 256.419 920.577 Q262.413 915.22 264.906 910.181 L271.059 910.181 L271.059 988.259 Z" fill="#000000" fill-rule="nonzero" fill-opacity="1" /><path clip-path="url(#clip400)" d="M310.204 946.09 Q304.264 943.916 301.399 939.884 Q298.535 935.853 298.535 930.231 Q298.535 921.744 304.635 915.962 Q310.735 910.181 320.866 910.181 Q331.05 910.181 337.256 916.121 Q343.462 922.009 343.462 930.496 Q343.462 935.906 340.598 939.937 Q337.786 943.916 332.005 946.09 Q339.165 948.424 342.878 953.622 Q346.644 958.821 346.644 966.034 Q346.644 976.006 339.59 982.796 Q332.535 989.585 321.025 989.585 Q309.515 989.585 302.46 982.796 Q295.405 975.953 295.405 965.769 Q295.405 958.184 299.225 953.092 Q303.097 947.947 310.204 946.09 M308.295 929.912 Q308.295 935.429 311.849 938.93 Q315.402 942.43 321.078 942.43 Q326.594 942.43 330.095 938.983 Q333.649 935.482 333.649 930.443 Q333.649 925.192 329.989 921.638 Q326.382 918.031 320.972 918.031 Q315.509 918.031 311.902 921.532 Q308.295 925.033 308.295 929.912 M305.218 965.822 Q305.218 969.906 307.128 973.725 Q309.09 977.544 312.909 979.666 Q316.728 981.735 321.131 981.735 Q327.973 981.735 332.429 977.332 Q336.885 972.93 336.885 966.14 Q336.885 959.245 332.27 954.736 Q327.708 950.228 320.813 950.228 Q314.076 950.228 309.621 954.683 Q305.218 959.139 305.218 965.822 Z" fill="#000000" fill-rule="nonzero" fill-opacity="1" /><path clip-path="url(#clip400)" d="M144.924 610.59 Q144.924 596.799 147.736 588.418 Q150.6 579.985 156.169 575.423 Q161.792 570.861 170.279 570.861 Q176.538 570.861 181.258 573.407 Q185.979 575.9 189.056 580.674 Q192.132 585.395 193.883 592.237 Q195.633 599.027 195.633 610.59 Q195.633 624.275 192.822 632.709 Q190.01 641.089 184.388 645.704 Q178.819 650.266 170.279 650.266 Q159.034 650.266 152.616 642.203 Q144.924 632.497 144.924 610.59 M154.737 610.59 Q154.737 629.738 159.193 636.103 Q163.701 642.415 170.279 642.415 Q176.856 642.415 181.312 636.05 Q185.82 629.685 185.82 610.59 Q185.82 591.389 181.312 585.077 Q176.856 578.765 170.173 578.765 Q163.595 578.765 159.67 584.334 Q154.737 591.442 154.737 610.59 Z" fill="#000000" fill-rule="nonzero" fill-opacity="1" /><path clip-path="url(#clip400)" d="M210.697 648.94 L210.697 638.066 L221.571 638.066 L221.571 648.94 L210.697 648.94 Z" fill="#000000" fill-rule="nonzero" fill-opacity="1" /><path clip-path="url(#clip400)" d="M285.699 639.763 L285.699 648.94 L234.301 648.94 Q234.195 645.492 235.415 642.309 Q237.377 637.058 241.674 631.966 Q246.023 626.874 254.192 620.191 Q266.869 609.794 271.324 603.748 Q275.78 597.648 275.78 592.237 Q275.78 586.562 271.696 582.69 Q267.664 578.765 261.14 578.765 Q254.245 578.765 250.107 582.902 Q245.97 587.039 245.917 594.359 L236.104 593.351 Q237.112 582.372 243.689 576.643 Q250.266 570.861 261.352 570.861 Q272.544 570.861 279.068 577.067 Q285.593 583.273 285.593 592.45 Q285.593 597.117 283.683 601.626 Q281.774 606.135 277.318 611.121 Q272.916 616.107 262.625 624.805 Q254.032 632.019 251.593 634.618 Q249.153 637.164 247.561 639.763 L285.699 639.763 Z" fill="#000000" fill-rule="nonzero" fill-opacity="1" /><path clip-path="url(#clip400)" d="M295.936 610.59 Q295.936 596.799 298.747 588.418 Q301.611 579.985 307.181 575.423 Q312.803 570.861 321.29 570.861 Q327.549 570.861 332.27 573.407 Q336.991 575.9 340.067 580.674 Q343.144 585.395 344.894 592.237 Q346.644 599.027 346.644 610.59 Q346.644 624.275 343.833 632.709 Q341.022 641.089 335.399 645.704 Q329.83 650.266 321.29 650.266 Q310.045 650.266 303.627 642.203 Q295.936 632.497 295.936 610.59 M305.749 610.59 Q305.749 629.738 310.204 636.103 Q314.713 642.415 321.29 642.415 Q327.867 642.415 332.323 636.05 Q336.832 629.685 336.832 610.59 Q336.832 591.389 332.323 585.077 Q327.867 578.765 321.184 578.765 Q314.607 578.765 310.682 584.334 Q305.749 591.442 305.749 610.59 Z" fill="#000000" fill-rule="nonzero" fill-opacity="1" /><path clip-path="url(#clip400)" d="M145.455 271.271 Q145.455 257.48 148.266 249.099 Q151.13 240.665 156.7 236.104 Q162.322 231.542 170.809 231.542 Q177.068 231.542 181.789 234.088 Q186.51 236.581 189.586 241.355 Q192.663 246.076 194.413 252.918 Q196.163 259.708 196.163 271.271 Q196.163 284.956 193.352 293.389 Q190.541 301.77 184.918 306.385 Q179.349 310.946 170.809 310.946 Q159.564 310.946 153.146 302.884 Q145.455 293.177 145.455 271.271 M155.268 271.271 Q155.268 290.419 159.723 296.784 Q164.232 303.096 170.809 303.096 Q177.386 303.096 181.842 296.731 Q186.351 290.366 186.351 271.271 Q186.351 252.07 181.842 245.758 Q177.386 239.445 170.703 239.445 Q164.126 239.445 160.201 245.015 Q155.268 252.123 155.268 271.271 Z" fill="#000000" fill-rule="nonzero" fill-opacity="1" /><path clip-path="url(#clip400)" d="M211.227 309.62 L211.227 298.747 L222.101 298.747 L222.101 309.62 L211.227 309.62 Z" fill="#000000" fill-rule="nonzero" fill-opacity="1" /><path clip-path="url(#clip400)" d="M286.229 300.444 L286.229 309.62 L234.831 309.62 Q234.725 306.173 235.945 302.99 Q237.908 297.739 242.204 292.647 Q246.554 287.555 254.722 280.871 Q267.399 270.475 271.855 264.428 Q276.31 258.329 276.31 252.918 Q276.31 247.243 272.226 243.371 Q268.195 239.445 261.671 239.445 Q254.775 239.445 250.638 243.583 Q246.5 247.72 246.447 255.04 L236.635 254.032 Q237.642 243.052 244.22 237.324 Q250.797 231.542 261.883 231.542 Q273.075 231.542 279.599 237.748 Q286.123 243.954 286.123 253.13 Q286.123 257.798 284.214 262.307 Q282.304 266.815 277.848 271.801 Q273.446 276.787 263.156 285.486 Q254.563 292.7 252.123 295.299 Q249.683 297.845 248.092 300.444 L286.229 300.444 Z" fill="#000000" fill-rule="nonzero" fill-opacity="1" /><path clip-path="url(#clip400)" d="M346.644 300.444 L346.644 309.62 L295.246 309.62 Q295.14 306.173 296.36 302.99 Q298.323 297.739 302.619 292.647 Q306.969 287.555 315.137 280.871 Q327.814 270.475 332.27 264.428 Q336.725 258.329 336.725 252.918 Q336.725 247.243 332.641 243.371 Q328.61 239.445 322.086 239.445 Q315.19 239.445 311.053 243.583 Q306.916 247.72 306.863 255.04 L297.05 254.032 Q298.058 243.052 304.635 237.324 Q311.212 231.542 322.298 231.542 Q333.49 231.542 340.014 237.748 Q346.538 243.954 346.538 253.13 Q346.538 257.798 344.629 262.307 Q342.719 266.815 338.264 271.801 Q333.861 276.787 323.571 285.486 Q314.978 292.7 312.538 295.299 Q310.098 297.845 308.507 300.444 L346.644 300.444 Z" fill="#000000" fill-rule="nonzero" fill-opacity="1" /><path clip-path="url(#clip400)" d="M85.1722 789.513 L7.41216 789.513 L7.41216 779.965 L85.1722 779.965 L85.1722 789.513 Z" fill="#000000" fill-rule="nonzero" fill-opacity="1" /><path clip-path="url(#clip400)" d="M57.0067 768.72 Q41.3592 768.72 33.8272 760.021 Q27.5682 752.754 27.5682 742.305 Q27.5682 730.689 35.2063 723.316 Q42.7914 715.943 56.2111 715.943 Q67.0847 715.943 73.3437 719.232 Q79.5497 722.467 82.9974 728.726 Q86.4452 734.932 86.4452 742.305 Q86.4452 754.133 78.8601 761.453 Q71.2751 768.72 57.0067 768.72 M57.0067 758.907 Q67.8273 758.907 73.2376 754.186 Q78.5949 749.466 78.5949 742.305 Q78.5949 735.197 73.1846 730.476 Q67.7743 725.756 56.6884 725.756 Q46.2391 725.756 40.8818 730.53 Q35.4715 735.25 35.4715 742.305 Q35.4715 749.466 40.8288 754.186 Q46.1861 758.907 57.0067 758.907 Z" fill="#000000" fill-rule="nonzero" fill-opacity="1" /><path clip-path="url(#clip400)" d="M68.3578 708.57 L66.8726 699.128 Q72.5481 698.333 75.5715 694.726 Q78.5949 691.066 78.5949 684.542 Q78.5949 677.965 75.9428 674.782 Q73.2376 671.6 69.6308 671.6 Q66.3952 671.6 64.5387 674.411 Q63.2657 676.373 61.3031 684.171 Q58.651 694.673 56.7415 698.757 Q54.7789 702.788 51.3842 704.91 Q47.9365 706.979 43.7992 706.979 Q40.0332 706.979 36.8506 705.281 Q33.615 703.531 31.4934 700.561 Q29.849 698.333 28.7352 694.514 Q27.5682 690.642 27.5682 686.239 Q27.5682 679.609 29.4778 674.623 Q31.3873 669.584 34.6759 667.197 Q37.9115 664.81 43.3748 663.908 L44.6478 673.244 Q40.2984 673.88 37.8584 676.957 Q35.4185 679.98 35.4185 685.55 Q35.4185 692.127 37.5932 694.938 Q39.768 697.749 42.6853 697.749 Q44.5418 697.749 46.0269 696.582 Q47.5652 695.416 48.573 692.923 Q49.1034 691.49 51.0129 684.489 Q53.7181 674.358 55.4685 670.38 Q57.1658 666.348 60.4544 664.068 Q63.7431 661.787 68.623 661.787 Q73.3968 661.787 77.6402 664.598 Q81.8305 667.356 84.1644 672.607 Q86.4452 677.859 86.4452 684.489 Q86.4452 695.469 81.8835 701.25 Q77.3219 706.979 68.3578 708.57 Z" fill="#000000" fill-rule="nonzero" fill-opacity="1" /><path clip-path="url(#clip400)" d="M68.3578 654.255 L66.8726 644.813 Q72.5481 644.018 75.5715 640.411 Q78.5949 636.751 78.5949 630.227 Q78.5949 623.649 75.9428 620.467 Q73.2376 617.284 69.6308 617.284 Q66.3952 617.284 64.5387 620.095 Q63.2657 622.058 61.3031 629.855 Q58.651 640.358 56.7415 644.442 Q54.7789 648.473 51.3842 650.595 Q47.9365 652.663 43.7992 652.663 Q40.0332 652.663 36.8506 650.966 Q33.615 649.216 31.4934 646.245 Q29.849 644.018 28.7352 640.198 Q27.5682 636.326 27.5682 631.924 Q27.5682 625.294 29.4778 620.308 Q31.3873 615.269 34.6759 612.882 Q37.9115 610.495 43.3748 609.593 L44.6478 618.929 Q40.2984 619.565 37.8584 622.641 Q35.4185 625.665 35.4185 631.234 Q35.4185 637.812 37.5932 640.623 Q39.768 643.434 42.6853 643.434 Q44.5418 643.434 46.0269 642.267 Q47.5652 641.1 48.573 638.607 Q49.1034 637.175 51.0129 630.173 Q53.7181 620.042 55.4685 616.064 Q57.1658 612.033 60.4544 609.752 Q63.7431 607.471 68.623 607.471 Q73.3968 607.471 77.6402 610.283 Q81.8305 613.041 84.1644 618.292 Q86.4452 623.543 86.4452 630.173 Q86.4452 641.153 81.8835 646.935 Q77.3219 652.663 68.3578 654.255 Z" fill="#000000" fill-rule="nonzero" fill-opacity="1" /><polyline clip-path="url(#clip402)" style="stroke:#009af9; stroke-linecap:round; stroke-linejoin:round; stroke-width:8; stroke-opacity:1; fill:none" points="382.644,47.2441 1367.7,1349.74 2352.76,1347.6 "/>
<circle clip-path="url(#clip402)" cx="382.644" cy="47.2441" r="3.6" fill="#009af9" fill-rule="evenodd" fill-opacity="1" stroke="#000000" stroke-opacity="1" stroke-width="3.2"/>
<circle clip-path="url(#clip402)" cx="2352.76" cy="1347.6" r="3.6" fill="#009af9" fill-rule="evenodd" fill-opacity="1" stroke="#000000" stroke-opacity="1" stroke-width="3.2"/>
<polyline clip-path="url(#clip402)" style="stroke:#e26f46; stroke-linecap:round; stroke-linejoin:round; stroke-width:8; stroke-opacity:1; fill:none" points="382.644,1313.25 1367.7,1277.71 2352.76,1281.81 "/>
<circle clip-path="url(#clip402)" cx="382.644" cy="1313.25" r="3.6" fill="#e26f46" fill-rule="evenodd" fill-opacity="1" stroke="#000000" stroke-opacity="1" stroke-width="3.2"/>
<circle clip-path="url(#clip402)" cx="1367.7" cy="1277.71" r="3.6" fill="#e26f46" fill-rule="evenodd" fill-opacity="1" stroke="#000000" stroke-opacity="1" stroke-width="3.2"/>
<circle clip-path="url(#clip402)" cx="2352.76" cy="1281.81" r="3.6" fill="#e26f46" fill-rule="evenodd" fill-opacity="1" stroke="#000000" stroke-opacity="1" stroke-width="3.2"/>
<path clip-path="url(#clip400)" d="M1631.26 440.581 L2287.09 440.581 L2287.09 90.6606 L1631.26 90.6606  Z" fill="#ffffff" fill-rule="evenodd" fill-opacity="1"/>
<polyline clip-path="url(#clip400)" style="stroke:#000000; stroke-linecap:round; stroke-linejoin:round; stroke-width:4; stroke-opacity:1; fill:none" points="1631.26,440.581 2287.09,440.581 2287.09,90.6606 1631.26,90.6606 1631.26,440.581 "/>
<polyline clip-path="url(#clip400)" style="stroke:#009af9; stroke-linecap:round; stroke-linejoin:round; stroke-width:18; stroke-opacity:1; fill:none" points="1653.15,207.301 1784.49,207.301 "/>
<circle clip-path="url(#clip400)" cx="1718.82" cy="207.301" r="8.10746" fill="#009af9" fill-rule="evenodd" fill-opacity="1" stroke="#000000" stroke-opacity="1" stroke-width="7.20663"/>
<path clip-path="url(#clip400)" d="M1832.48 237.641 L1833.86 246.075 Q1829.82 246.923 1826.64 246.923 Q1821.44 246.923 1818.58 245.279 Q1815.72 243.635 1814.55 240.982 Q1813.38 238.277 1813.38 229.684 L1813.38 197.276 L1806.38 197.276 L1806.38 189.85 L1813.38 189.85 L1813.38 175.9 L1822.88 170.171 L1822.88 189.85 L1832.48 189.85 L1832.48 197.276 L1822.88 197.276 L1822.88 230.215 Q1822.88 234.299 1823.35 235.466 Q1823.88 236.633 1825 237.323 Q1826.16 238.012 1828.29 238.012 Q1829.88 238.012 1832.48 237.641 Z" fill="#000000" fill-rule="nonzero" fill-opacity="1" /><path clip-path="url(#clip400)" d="M1841.71 246.181 L1841.71 189.85 L1850.3 189.85 L1850.3 198.39 Q1853.59 192.396 1856.35 190.486 Q1859.16 188.577 1862.5 188.577 Q1867.33 188.577 1872.31 191.653 L1869.02 200.511 Q1865.52 198.443 1862.02 198.443 Q1858.89 198.443 1856.4 200.352 Q1853.91 202.209 1852.84 205.55 Q1851.25 210.642 1851.25 216.689 L1851.25 246.181 L1841.71 246.181 Z" fill="#000000" fill-rule="nonzero" fill-opacity="1" /><path clip-path="url(#clip400)" d="M1914.74 239.232 Q1909.44 243.741 1904.51 245.597 Q1899.63 247.454 1894.01 247.454 Q1884.72 247.454 1879.74 242.945 Q1874.75 238.383 1874.75 231.329 Q1874.75 227.191 1876.61 223.797 Q1878.52 220.349 1881.54 218.28 Q1884.62 216.212 1888.44 215.151 Q1891.25 214.408 1896.92 213.719 Q1908.49 212.34 1913.95 210.43 Q1914 208.468 1914 207.937 Q1914 202.102 1911.3 199.716 Q1907.64 196.48 1900.42 196.48 Q1893.69 196.48 1890.45 198.867 Q1887.27 201.201 1885.73 207.195 L1876.4 205.922 Q1877.67 199.928 1880.59 196.268 Q1883.5 192.555 1889.02 190.592 Q1894.54 188.577 1901.8 188.577 Q1909.02 188.577 1913.52 190.274 Q1918.03 191.971 1920.16 194.57 Q1922.28 197.116 1923.13 201.042 Q1923.6 203.482 1923.6 209.847 L1923.6 222.577 Q1923.6 235.89 1924.19 239.444 Q1924.82 242.945 1926.63 246.181 L1916.65 246.181 Q1915.17 243.21 1914.74 239.232 M1913.95 217.909 Q1908.75 220.031 1898.35 221.516 Q1892.47 222.365 1890.03 223.425 Q1887.59 224.486 1886.26 226.555 Q1884.94 228.571 1884.94 231.064 Q1884.94 234.883 1887.8 237.429 Q1890.72 239.975 1896.29 239.975 Q1901.8 239.975 1906.1 237.588 Q1910.4 235.148 1912.41 230.957 Q1913.95 227.722 1913.95 221.41 L1913.95 217.909 Z" fill="#000000" fill-rule="nonzero" fill-opacity="1" /><path clip-path="url(#clip400)" d="M1938.45 179.4 L1938.45 168.421 L1948 168.421 L1948 179.4 L1938.45 179.4 M1938.45 246.181 L1938.45 189.85 L1948 189.85 L1948 246.181 L1938.45 246.181 Z" fill="#000000" fill-rule="nonzero" fill-opacity="1" /><path clip-path="url(#clip400)" d="M1962.54 246.181 L1962.54 189.85 L1971.13 189.85 L1971.13 197.859 Q1977.33 188.577 1989.06 188.577 Q1994.15 188.577 1998.39 190.433 Q2002.69 192.237 2004.81 195.207 Q2006.93 198.177 2007.78 202.262 Q2008.31 204.914 2008.31 211.544 L2008.31 246.181 L1998.76 246.181 L1998.76 211.915 Q1998.76 206.081 1997.65 203.216 Q1996.54 200.299 1993.67 198.602 Q1990.86 196.851 1987.04 196.851 Q1980.94 196.851 1976.49 200.723 Q1972.08 204.595 1972.08 215.416 L1972.08 246.181 L1962.54 246.181 Z" fill="#000000" fill-rule="nonzero" fill-opacity="1" /><path clip-path="url(#clip400)" d="M2014.15 267.769 L2014.15 260.873 L2077.43 260.873 L2077.43 267.769 L2014.15 267.769 Z" fill="#000000" fill-rule="nonzero" fill-opacity="1" /><path clip-path="url(#clip400)" d="M2083.15 246.181 L2083.15 168.421 L2092.7 168.421 L2092.7 246.181 L2083.15 246.181 Z" fill="#000000" fill-rule="nonzero" fill-opacity="1" /><path clip-path="url(#clip400)" d="M2103.95 218.015 Q2103.95 202.368 2112.65 194.836 Q2119.91 188.577 2130.36 188.577 Q2141.98 188.577 2149.35 196.215 Q2156.72 203.8 2156.72 217.22 Q2156.72 228.093 2153.44 234.352 Q2150.2 240.558 2143.94 244.006 Q2137.73 247.454 2130.36 247.454 Q2118.53 247.454 2111.21 239.869 Q2103.95 232.284 2103.95 218.015 M2113.76 218.015 Q2113.76 228.836 2118.48 234.246 Q2123.2 239.603 2130.36 239.603 Q2137.47 239.603 2142.19 234.193 Q2146.91 228.783 2146.91 217.697 Q2146.91 207.248 2142.14 201.89 Q2137.42 196.48 2130.36 196.48 Q2123.2 196.48 2118.48 201.837 Q2113.76 207.195 2113.76 218.015 Z" fill="#000000" fill-rule="nonzero" fill-opacity="1" /><path clip-path="url(#clip400)" d="M2164.1 229.366 L2173.54 227.881 Q2174.33 233.557 2177.94 236.58 Q2181.6 239.603 2188.12 239.603 Q2194.7 239.603 2197.88 236.951 Q2201.07 234.246 2201.07 230.639 Q2201.07 227.404 2198.26 225.547 Q2196.29 224.274 2188.5 222.312 Q2177.99 219.659 2173.91 217.75 Q2169.88 215.787 2167.76 212.393 Q2165.69 208.945 2165.69 204.808 Q2165.69 201.042 2167.39 197.859 Q2169.14 194.624 2172.11 192.502 Q2174.33 190.858 2178.15 189.744 Q2182.03 188.577 2186.43 188.577 Q2193.06 188.577 2198.04 190.486 Q2203.08 192.396 2205.47 195.684 Q2207.86 198.92 2208.76 204.383 L2199.42 205.656 Q2198.79 201.307 2195.71 198.867 Q2192.69 196.427 2187.12 196.427 Q2180.54 196.427 2177.73 198.602 Q2174.92 200.776 2174.92 203.694 Q2174.92 205.55 2176.08 207.035 Q2177.25 208.574 2179.74 209.581 Q2181.18 210.112 2188.18 212.021 Q2198.31 214.727 2202.29 216.477 Q2206.32 218.174 2208.6 221.463 Q2210.88 224.752 2210.88 229.631 Q2210.88 234.405 2208.07 238.649 Q2205.31 242.839 2200.06 245.173 Q2194.81 247.454 2188.18 247.454 Q2177.2 247.454 2171.42 242.892 Q2165.69 238.33 2164.1 229.366 Z" fill="#000000" fill-rule="nonzero" fill-opacity="1" /><path clip-path="url(#clip400)" d="M2218.41 229.366 L2227.85 227.881 Q2228.65 233.557 2232.26 236.58 Q2235.92 239.603 2242.44 239.603 Q2249.02 239.603 2252.2 236.951 Q2255.38 234.246 2255.38 230.639 Q2255.38 227.404 2252.57 225.547 Q2250.61 224.274 2242.81 222.312 Q2232.31 219.659 2228.22 217.75 Q2224.19 215.787 2222.07 212.393 Q2220 208.945 2220 204.808 Q2220 201.042 2221.7 197.859 Q2223.45 194.624 2226.42 192.502 Q2228.65 190.858 2232.47 189.744 Q2236.34 188.577 2240.74 188.577 Q2247.37 188.577 2252.36 190.486 Q2257.4 192.396 2259.79 195.684 Q2262.17 198.92 2263.07 204.383 L2253.74 205.656 Q2253.1 201.307 2250.03 198.867 Q2247 196.427 2241.43 196.427 Q2234.86 196.427 2232.04 198.602 Q2229.23 200.776 2229.23 203.694 Q2229.23 205.55 2230.4 207.035 Q2231.57 208.574 2234.06 209.581 Q2235.49 210.112 2242.49 212.021 Q2252.62 214.727 2256.6 216.477 Q2260.63 218.174 2262.91 221.463 Q2265.2 224.752 2265.2 229.631 Q2265.2 234.405 2262.38 238.649 Q2259.63 242.839 2254.37 245.173 Q2249.12 247.454 2242.49 247.454 Q2231.51 247.454 2225.73 242.892 Q2220 238.33 2218.41 229.366 Z" fill="#000000" fill-rule="nonzero" fill-opacity="1" /><polyline clip-path="url(#clip400)" style="stroke:#e26f46; stroke-linecap:round; stroke-linejoin:round; stroke-width:18; stroke-opacity:1; fill:none" points="1653.15,323.941 1784.49,323.941 "/>
<circle clip-path="url(#clip400)" cx="1718.82" cy="323.941" r="8.10746" fill="#e26f46" fill-rule="evenodd" fill-opacity="1" stroke="#000000" stroke-opacity="1" stroke-width="7.20663"/>
<path clip-path="url(#clip400)" d="M1827.81 362.821 L1806.38 306.49 L1816.46 306.49 L1828.55 340.225 Q1830.51 345.688 1832.16 351.576 Q1833.43 347.12 1835.71 340.861 L1848.23 306.49 L1858.04 306.49 L1836.72 362.821 L1827.81 362.821 Z" fill="#000000" fill-rule="nonzero" fill-opacity="1" /><path clip-path="url(#clip400)" d="M1903.23 355.872 Q1897.93 360.381 1893 362.237 Q1888.12 364.094 1882.5 364.094 Q1873.21 364.094 1868.23 359.585 Q1863.24 355.023 1863.24 347.969 Q1863.24 343.831 1865.1 340.437 Q1867.01 336.989 1870.03 334.92 Q1873.11 332.852 1876.93 331.791 Q1879.74 331.048 1885.41 330.359 Q1896.98 328.98 1902.44 327.07 Q1902.49 325.108 1902.49 324.577 Q1902.49 318.742 1899.79 316.356 Q1896.13 313.12 1888.91 313.12 Q1882.18 313.12 1878.94 315.507 Q1875.76 317.841 1874.22 323.835 L1864.89 322.562 Q1866.16 316.568 1869.08 312.908 Q1871.99 309.195 1877.51 307.232 Q1883.03 305.217 1890.29 305.217 Q1897.51 305.217 1902.01 306.914 Q1906.52 308.611 1908.65 311.21 Q1910.77 313.756 1911.62 317.682 Q1912.09 320.122 1912.09 326.487 L1912.09 339.217 Q1912.09 352.53 1912.68 356.084 Q1913.31 359.585 1915.12 362.821 L1905.14 362.821 Q1903.66 359.85 1903.23 355.872 M1902.44 334.549 Q1897.24 336.671 1886.84 338.156 Q1880.96 339.005 1878.52 340.065 Q1876.08 341.126 1874.75 343.195 Q1873.43 345.211 1873.43 347.704 Q1873.43 351.523 1876.29 354.069 Q1879.21 356.615 1884.78 356.615 Q1890.29 356.615 1894.59 354.228 Q1898.89 351.788 1900.9 347.597 Q1902.44 344.362 1902.44 338.05 L1902.44 334.549 Z" fill="#000000" fill-rule="nonzero" fill-opacity="1" /><path clip-path="url(#clip400)" d="M1926.68 362.821 L1926.68 285.061 L1936.23 285.061 L1936.23 362.821 L1926.68 362.821 Z" fill="#000000" fill-rule="nonzero" fill-opacity="1" /><path clip-path="url(#clip400)" d="M1942.22 384.409 L1942.22 377.513 L2005.5 377.513 L2005.5 384.409 L1942.22 384.409 Z" fill="#000000" fill-rule="nonzero" fill-opacity="1" /><path clip-path="url(#clip400)" d="M2011.23 362.821 L2011.23 285.061 L2020.78 285.061 L2020.78 362.821 L2011.23 362.821 Z" fill="#000000" fill-rule="nonzero" fill-opacity="1" /><path clip-path="url(#clip400)" d="M2032.02 334.655 Q2032.02 319.008 2040.72 311.476 Q2047.99 305.217 2058.44 305.217 Q2070.05 305.217 2077.43 312.855 Q2084.8 320.44 2084.8 333.86 Q2084.8 344.733 2081.51 350.992 Q2078.27 357.198 2072.02 360.646 Q2065.81 364.094 2058.44 364.094 Q2046.61 364.094 2039.29 356.509 Q2032.02 348.924 2032.02 334.655 M2041.83 334.655 Q2041.83 345.476 2046.56 350.886 Q2051.28 356.243 2058.44 356.243 Q2065.54 356.243 2070.26 350.833 Q2074.99 345.423 2074.99 334.337 Q2074.99 323.888 2070.21 318.53 Q2065.49 313.12 2058.44 313.12 Q2051.28 313.12 2046.56 318.477 Q2041.83 323.835 2041.83 334.655 Z" fill="#000000" fill-rule="nonzero" fill-opacity="1" /><path clip-path="url(#clip400)" d="M2092.17 346.006 L2101.61 344.521 Q2102.41 350.197 2106.02 353.22 Q2109.68 356.243 2116.2 356.243 Q2122.78 356.243 2125.96 353.591 Q2129.14 350.886 2129.14 347.279 Q2129.14 344.044 2126.33 342.187 Q2124.37 340.914 2116.57 338.952 Q2106.07 336.299 2101.98 334.39 Q2097.95 332.427 2095.83 329.033 Q2093.76 325.585 2093.76 321.448 Q2093.76 317.682 2095.46 314.499 Q2097.21 311.264 2100.18 309.142 Q2102.41 307.498 2106.23 306.384 Q2110.1 305.217 2114.5 305.217 Q2121.13 305.217 2126.12 307.126 Q2131.16 309.036 2133.54 312.324 Q2135.93 315.56 2136.83 321.023 L2127.5 322.296 Q2126.86 317.947 2123.78 315.507 Q2120.76 313.067 2115.19 313.067 Q2108.61 313.067 2105.8 315.242 Q2102.99 317.416 2102.99 320.334 Q2102.99 322.19 2104.16 323.675 Q2105.33 325.214 2107.82 326.221 Q2109.25 326.752 2116.25 328.661 Q2126.38 331.367 2130.36 333.117 Q2134.39 334.814 2136.67 338.103 Q2138.95 341.392 2138.95 346.271 Q2138.95 351.045 2136.14 355.289 Q2133.39 359.479 2128.13 361.813 Q2122.88 364.094 2116.25 364.094 Q2105.27 364.094 2099.49 359.532 Q2093.76 354.97 2092.17 346.006 Z" fill="#000000" fill-rule="nonzero" fill-opacity="1" /><path clip-path="url(#clip400)" d="M2146.49 346.006 L2155.93 344.521 Q2156.72 350.197 2160.33 353.22 Q2163.99 356.243 2170.51 356.243 Q2177.09 356.243 2180.27 353.591 Q2183.46 350.886 2183.46 347.279 Q2183.46 344.044 2180.65 342.187 Q2178.68 340.914 2170.89 338.952 Q2160.38 336.299 2156.3 334.39 Q2152.27 332.427 2150.15 329.033 Q2148.08 325.585 2148.08 321.448 Q2148.08 317.682 2149.78 314.499 Q2151.53 311.264 2154.5 309.142 Q2156.72 307.498 2160.54 306.384 Q2164.42 305.217 2168.82 305.217 Q2175.45 305.217 2180.43 307.126 Q2185.47 309.036 2187.86 312.324 Q2190.25 315.56 2191.15 321.023 L2181.81 322.296 Q2181.18 317.947 2178.1 315.507 Q2175.08 313.067 2169.51 313.067 Q2162.93 313.067 2160.12 315.242 Q2157.31 317.416 2157.31 320.334 Q2157.31 322.19 2158.47 323.675 Q2159.64 325.214 2162.13 326.221 Q2163.57 326.752 2170.57 328.661 Q2180.7 331.367 2184.68 333.117 Q2188.71 334.814 2190.99 338.103 Q2193.27 341.392 2193.27 346.271 Q2193.27 351.045 2190.46 355.289 Q2187.7 359.479 2182.45 361.813 Q2177.2 364.094 2170.57 364.094 Q2159.59 364.094 2153.81 359.532 Q2148.08 354.97 2146.49 346.006 Z" fill="#000000" fill-rule="nonzero" fill-opacity="1" /></svg>
