<?xml version="1.0" encoding="utf-8"?>
<svg xmlns="http://www.w3.org/2000/svg" xmlns:xlink="http://www.w3.org/1999/xlink" width="600" height="400" viewBox="0 0 2400 1600">
<defs>
  <clipPath id="clip610">
    <rect x="0" y="0" width="2400" height="1600"/>
  </clipPath>
</defs>
<path clip-path="url(#clip610)" d="M0 1600 L2400 1600 L2400 8.88178e-14 L0 8.88178e-14  Z" fill="#ffffff" fill-rule="evenodd" fill-opacity="1"/>
<defs>
  <clipPath id="clip611">
    <rect x="480" y="0" width="1681" height="1600"/>
  </clipPath>
</defs>
<defs>
  <clipPath id="clip612">
    <rect x="47" y="47" width="2307" height="1507"/>
  </clipPath>
</defs>
<path clip-path="url(#clip612)" d="M-518.67 2196.23 L-518.67 1114 L36.2587 572.889 L997.423 885.302 L997.423 1967.53 L442.494 2508.65 L-518.67 2196.23  Z" fill="#ffffff" fill-rule="evenodd" fill-opacity="1"/>
<polyline clip-path="url(#clip610)" style="stroke:#000000; stroke-linecap:round; stroke-linejoin:round; stroke-width:4; stroke-opacity:1; fill:none" points="606.32,1255.92 1359.08,1473.22 "/>
<polyline clip-path="url(#clip610)" style="stroke:#000000; stroke-linecap:round; stroke-linejoin:round; stroke-width:2; stroke-opacity:0.5; fill:none" points="1040.92,126.782 1793.68,344.084 "/>
<polyline clip-path="url(#clip610)" style="stroke:#000000; stroke-linecap:round; stroke-linejoin:round; stroke-width:4; stroke-opacity:1; fill:none" points="1359.08,1473.22 1793.68,1096.84 "/>
<polyline clip-path="url(#clip610)" style="stroke:#000000; stroke-linecap:round; stroke-linejoin:round; stroke-width:2; stroke-opacity:0.5; fill:none" points="606.32,503.16 1040.92,126.782 "/>
<polyline clip-path="url(#clip610)" style="stroke:#000000; stroke-linecap:round; stroke-linejoin:round; stroke-width:4; stroke-opacity:1; fill:none" points="606.32,1255.92 606.32,503.16 "/>
<polyline clip-path="url(#clip610)" style="stroke:#000000; stroke-linecap:round; stroke-linejoin:round; stroke-width:2; stroke-opacity:0.5; fill:none" points="1793.68,1096.84 1793.68,344.084 "/>
<path clip-path="url(#clip612)" d="M718.596 1120.6 L718.596 1152.6 L750.596 1152.6 L750.596 1120.6 L718.596 1120.6 Z" fill="#009af9" fill-rule="evenodd" fill-opacity="1" stroke="#000000" stroke-opacity="1" stroke-width="3.2"/>
<circle clip-path="url(#clip612)" cx="789.326" cy="1268.09" r="14.4" fill="#009af9" fill-rule="evenodd" fill-opacity="1" stroke="#000000" stroke-opacity="1" stroke-width="3.2"/>
<circle clip-path="url(#clip612)" cx="683.695" cy="1193.58" r="14.4" fill="#009af9" fill-rule="evenodd" fill-opacity="1" stroke="#000000" stroke-opacity="1" stroke-width="3.2"/>
<circle clip-path="url(#clip612)" cx="702.275" cy="1211.69" r="14.4" fill="#009af9" fill-rule="evenodd" fill-opacity="1" stroke="#000000" stroke-opacity="1" stroke-width="3.2"/>
<circle clip-path="url(#clip612)" cx="770.695" cy="1258.12" r="14.4" fill="#009af9" fill-rule="evenodd" fill-opacity="1" stroke="#000000" stroke-opacity="1" stroke-width="3.2"/>
<circle clip-path="url(#clip612)" cx="762.386" cy="1183.59" r="14.4" fill="#009af9" fill-rule="evenodd" fill-opacity="1" stroke="#000000" stroke-opacity="1" stroke-width="3.2"/>
<circle clip-path="url(#clip612)" cx="771.098" cy="1182.35" r="14.4" fill="#009af9" fill-rule="evenodd" fill-opacity="1" stroke="#000000" stroke-opacity="1" stroke-width="3.2"/>
<circle clip-path="url(#clip612)" cx="674.059" cy="1174.1" r="14.4" fill="#009af9" fill-rule="evenodd" fill-opacity="1" stroke="#000000" stroke-opacity="1" stroke-width="3.2"/>
<circle clip-path="url(#clip612)" cx="729.921" cy="1239.15" r="14.4" fill="#009af9" fill-rule="evenodd" fill-opacity="1" stroke="#000000" stroke-opacity="1" stroke-width="3.2"/>
<circle clip-path="url(#clip612)" cx="725.689" cy="1215.27" r="14.4" fill="#009af9" fill-rule="evenodd" fill-opacity="1" stroke="#000000" stroke-opacity="1" stroke-width="3.2"/>
<circle clip-path="url(#clip612)" cx="734.987" cy="1250.02" r="14.4" fill="#009af9" fill-rule="evenodd" fill-opacity="1" stroke="#000000" stroke-opacity="1" stroke-width="3.2"/>
<circle clip-path="url(#clip612)" cx="697.695" cy="1219.09" r="14.4" fill="#009af9" fill-rule="evenodd" fill-opacity="1" stroke="#000000" stroke-opacity="1" stroke-width="3.2"/>
<circle clip-path="url(#clip612)" cx="752.318" cy="1240.36" r="14.4" fill="#009af9" fill-rule="evenodd" fill-opacity="1" stroke="#000000" stroke-opacity="1" stroke-width="3.2"/>
<circle clip-path="url(#clip612)" cx="735.477" cy="1187.65" r="14.4" fill="#009af9" fill-rule="evenodd" fill-opacity="1" stroke="#000000" stroke-opacity="1" stroke-width="3.2"/>
<circle clip-path="url(#clip612)" cx="732.2" cy="1185.11" r="14.4" fill="#009af9" fill-rule="evenodd" fill-opacity="1" stroke="#000000" stroke-opacity="1" stroke-width="3.2"/>
<circle clip-path="url(#clip612)" cx="747.057" cy="1243.27" r="14.4" fill="#009af9" fill-rule="evenodd" fill-opacity="1" stroke="#000000" stroke-opacity="1" stroke-width="3.2"/>
<circle clip-path="url(#clip612)" cx="667.579" cy="1160.11" r="14.4" fill="#009af9" fill-rule="evenodd" fill-opacity="1" stroke="#000000" stroke-opacity="1" stroke-width="3.2"/>
<circle clip-path="url(#clip612)" cx="752.887" cy="1239.86" r="14.4" fill="#009af9" fill-rule="evenodd" fill-opacity="1" stroke="#000000" stroke-opacity="1" stroke-width="3.2"/>
<circle clip-path="url(#clip612)" cx="663.854" cy="1151.02" r="14.4" fill="#009af9" fill-rule="evenodd" fill-opacity="1" stroke="#000000" stroke-opacity="1" stroke-width="3.2"/>
<circle clip-path="url(#clip612)" cx="708.669" cy="1200.73" r="14.4" fill="#009af9" fill-rule="evenodd" fill-opacity="1" stroke="#000000" stroke-opacity="1" stroke-width="3.2"/>
<circle clip-path="url(#clip612)" cx="784.271" cy="1271.58" r="14.4" fill="#009af9" fill-rule="evenodd" fill-opacity="1" stroke="#000000" stroke-opacity="1" stroke-width="3.2"/>
<path clip-path="url(#clip612)" d="M663.044 1078.61 L663.044 1110.61 L695.044 1110.61 L695.044 1078.61 L663.044 1078.61 Z" fill="#009af9" fill-rule="evenodd" fill-opacity="1" stroke="#000000" stroke-opacity="1" stroke-width="3.2"/>
<path clip-path="url(#clip612)" d="M730.101 1110.34 L730.101 1142.34 L762.101 1142.34 L762.101 1110.34 L730.101 1110.34 Z" fill="#009af9" fill-rule="evenodd" fill-opacity="1" stroke="#000000" stroke-opacity="1" stroke-width="3.2"/>
<circle clip-path="url(#clip612)" cx="667.812" cy="1158.85" r="14.4" fill="#009af9" fill-rule="evenodd" fill-opacity="1" stroke="#000000" stroke-opacity="1" stroke-width="3.2"/>
<circle clip-path="url(#clip612)" cx="711.948" cy="1196.67" r="14.4" fill="#009af9" fill-rule="evenodd" fill-opacity="1" stroke="#000000" stroke-opacity="1" stroke-width="3.2"/>
<path clip-path="url(#clip612)" d="M712.835 1134.67 L712.835 1166.67 L744.835 1166.67 L744.835 1134.67 L712.835 1134.67 Z" fill="#009af9" fill-rule="evenodd" fill-opacity="1" stroke="#000000" stroke-opacity="1" stroke-width="3.2"/>
<circle clip-path="url(#clip612)" cx="712.182" cy="1234.2" r="14.4" fill="#009af9" fill-rule="evenodd" fill-opacity="1" stroke="#000000" stroke-opacity="1" stroke-width="3.2"/>
<circle clip-path="url(#clip612)" cx="767.759" cy="1194.93" r="14.4" fill="#009af9" fill-rule="evenodd" fill-opacity="1" stroke="#000000" stroke-opacity="1" stroke-width="3.2"/>
<circle clip-path="url(#clip612)" cx="769.266" cy="1242.11" r="14.4" fill="#009af9" fill-rule="evenodd" fill-opacity="1" stroke="#000000" stroke-opacity="1" stroke-width="3.2"/>
<circle clip-path="url(#clip612)" cx="760.092" cy="1224.12" r="14.4" fill="#009af9" fill-rule="evenodd" fill-opacity="1" stroke="#000000" stroke-opacity="1" stroke-width="3.2"/>
<circle clip-path="url(#clip612)" cx="761.043" cy="1183.92" r="14.4" fill="#009af9" fill-rule="evenodd" fill-opacity="1" stroke="#000000" stroke-opacity="1" stroke-width="3.2"/>
<circle clip-path="url(#clip612)" cx="677.456" cy="1183.32" r="14.4" fill="#009af9" fill-rule="evenodd" fill-opacity="1" stroke="#000000" stroke-opacity="1" stroke-width="3.2"/>
<circle clip-path="url(#clip612)" cx="708.382" cy="1222" r="14.4" fill="#009af9" fill-rule="evenodd" fill-opacity="1" stroke="#000000" stroke-opacity="1" stroke-width="3.2"/>
<circle clip-path="url(#clip612)" cx="706.243" cy="1217.75" r="14.4" fill="#009af9" fill-rule="evenodd" fill-opacity="1" stroke="#000000" stroke-opacity="1" stroke-width="3.2"/>
<circle clip-path="url(#clip612)" cx="763.364" cy="1194.89" r="14.4" fill="#009af9" fill-rule="evenodd" fill-opacity="1" stroke="#000000" stroke-opacity="1" stroke-width="3.2"/>
<circle clip-path="url(#clip612)" cx="669.516" cy="1168.55" r="14.4" fill="#009af9" fill-rule="evenodd" fill-opacity="1" stroke="#000000" stroke-opacity="1" stroke-width="3.2"/>
<circle clip-path="url(#clip612)" cx="719.633" cy="1218.17" r="14.4" fill="#009af9" fill-rule="evenodd" fill-opacity="1" stroke="#000000" stroke-opacity="1" stroke-width="3.2"/>
<circle clip-path="url(#clip612)" cx="667.334" cy="1162.91" r="14.4" fill="#009af9" fill-rule="evenodd" fill-opacity="1" stroke="#000000" stroke-opacity="1" stroke-width="3.2"/>
<circle clip-path="url(#clip612)" cx="718.141" cy="1214.19" r="14.4" fill="#009af9" fill-rule="evenodd" fill-opacity="1" stroke="#000000" stroke-opacity="1" stroke-width="3.2"/>
<circle clip-path="url(#clip612)" cx="679.468" cy="1187.84" r="14.4" fill="#009af9" fill-rule="evenodd" fill-opacity="1" stroke="#000000" stroke-opacity="1" stroke-width="3.2"/>
<circle clip-path="url(#clip612)" cx="717.791" cy="1219.52" r="14.4" fill="#009af9" fill-rule="evenodd" fill-opacity="1" stroke="#000000" stroke-opacity="1" stroke-width="3.2"/>
<circle clip-path="url(#clip612)" cx="693.263" cy="1215.81" r="14.4" fill="#009af9" fill-rule="evenodd" fill-opacity="1" stroke="#000000" stroke-opacity="1" stroke-width="3.2"/>
<circle clip-path="url(#clip612)" cx="774.712" cy="1191.83" r="14.4" fill="#009af9" fill-rule="evenodd" fill-opacity="1" stroke="#000000" stroke-opacity="1" stroke-width="3.2"/>
<circle clip-path="url(#clip612)" cx="726.763" cy="1242.83" r="14.4" fill="#009af9" fill-rule="evenodd" fill-opacity="1" stroke="#000000" stroke-opacity="1" stroke-width="3.2"/>
<circle clip-path="url(#clip612)" cx="700.279" cy="1222.04" r="14.4" fill="#009af9" fill-rule="evenodd" fill-opacity="1" stroke="#000000" stroke-opacity="1" stroke-width="3.2"/>
<circle clip-path="url(#clip612)" cx="689.886" cy="1173.21" r="14.4" fill="#009af9" fill-rule="evenodd" fill-opacity="1" stroke="#000000" stroke-opacity="1" stroke-width="3.2"/>
<circle clip-path="url(#clip612)" cx="770.775" cy="1259.45" r="14.4" fill="#009af9" fill-rule="evenodd" fill-opacity="1" stroke="#000000" stroke-opacity="1" stroke-width="3.2"/>
<circle clip-path="url(#clip612)" cx="764.069" cy="1188.22" r="14.4" fill="#009af9" fill-rule="evenodd" fill-opacity="1" stroke="#000000" stroke-opacity="1" stroke-width="3.2"/>
<circle clip-path="url(#clip612)" cx="701.489" cy="1223.34" r="14.4" fill="#009af9" fill-rule="evenodd" fill-opacity="1" stroke="#000000" stroke-opacity="1" stroke-width="3.2"/>
<circle clip-path="url(#clip612)" cx="749.894" cy="1254.8" r="14.4" fill="#009af9" fill-rule="evenodd" fill-opacity="1" stroke="#000000" stroke-opacity="1" stroke-width="3.2"/>
<circle clip-path="url(#clip612)" cx="728.463" cy="1218.06" r="14.4" fill="#009af9" fill-rule="evenodd" fill-opacity="1" stroke="#000000" stroke-opacity="1" stroke-width="3.2"/>
<circle clip-path="url(#clip612)" cx="681.646" cy="1197.77" r="14.4" fill="#009af9" fill-rule="evenodd" fill-opacity="1" stroke="#000000" stroke-opacity="1" stroke-width="3.2"/>
<circle clip-path="url(#clip612)" cx="736.64" cy="1251" r="14.4" fill="#009af9" fill-rule="evenodd" fill-opacity="1" stroke="#000000" stroke-opacity="1" stroke-width="3.2"/>
<circle clip-path="url(#clip612)" cx="677.103" cy="1186.53" r="14.4" fill="#009af9" fill-rule="evenodd" fill-opacity="1" stroke="#000000" stroke-opacity="1" stroke-width="3.2"/>
<circle clip-path="url(#clip612)" cx="676.546" cy="1187.68" r="14.4" fill="#009af9" fill-rule="evenodd" fill-opacity="1" stroke="#000000" stroke-opacity="1" stroke-width="3.2"/>
<circle clip-path="url(#clip612)" cx="754.657" cy="1254.43" r="14.4" fill="#009af9" fill-rule="evenodd" fill-opacity="1" stroke="#000000" stroke-opacity="1" stroke-width="3.2"/>
<circle clip-path="url(#clip612)" cx="668.028" cy="1166.01" r="14.4" fill="#009af9" fill-rule="evenodd" fill-opacity="1" stroke="#000000" stroke-opacity="1" stroke-width="3.2"/>
<circle clip-path="url(#clip612)" cx="758.809" cy="1261.84" r="14.4" fill="#009af9" fill-rule="evenodd" fill-opacity="1" stroke="#000000" stroke-opacity="1" stroke-width="3.2"/>
<circle clip-path="url(#clip612)" cx="675.495" cy="1180.34" r="14.4" fill="#009af9" fill-rule="evenodd" fill-opacity="1" stroke="#000000" stroke-opacity="1" stroke-width="3.2"/>
<circle clip-path="url(#clip612)" cx="718.599" cy="1237" r="14.4" fill="#009af9" fill-rule="evenodd" fill-opacity="1" stroke="#000000" stroke-opacity="1" stroke-width="3.2"/>
<circle clip-path="url(#clip612)" cx="688.62" cy="1177.88" r="14.4" fill="#009af9" fill-rule="evenodd" fill-opacity="1" stroke="#000000" stroke-opacity="1" stroke-width="3.2"/>
<circle clip-path="url(#clip612)" cx="743.566" cy="1215.25" r="14.4" fill="#009af9" fill-rule="evenodd" fill-opacity="1" stroke="#000000" stroke-opacity="1" stroke-width="3.2"/>
<path clip-path="url(#clip612)" d="M668.013 1093.52 L668.013 1125.52 L700.013 1125.52 L700.013 1093.52 L668.013 1093.52 Z" fill="#009af9" fill-rule="evenodd" fill-opacity="1" stroke="#000000" stroke-opacity="1" stroke-width="3.2"/>
<circle clip-path="url(#clip612)" cx="750.14" cy="1216.28" r="14.4" fill="#009af9" fill-rule="evenodd" fill-opacity="1" stroke="#000000" stroke-opacity="1" stroke-width="3.2"/>
<circle clip-path="url(#clip612)" cx="734.41" cy="1225.05" r="14.4" fill="#009af9" fill-rule="evenodd" fill-opacity="1" stroke="#000000" stroke-opacity="1" stroke-width="3.2"/>
<circle clip-path="url(#clip612)" cx="724.786" cy="1226.71" r="14.4" fill="#009af9" fill-rule="evenodd" fill-opacity="1" stroke="#000000" stroke-opacity="1" stroke-width="3.2"/>
<circle clip-path="url(#clip612)" cx="741.341" cy="1221.9" r="14.4" fill="#009af9" fill-rule="evenodd" fill-opacity="1" stroke="#000000" stroke-opacity="1" stroke-width="3.2"/>
<circle clip-path="url(#clip612)" cx="690.208" cy="1190.09" r="14.4" fill="#009af9" fill-rule="evenodd" fill-opacity="1" stroke="#000000" stroke-opacity="1" stroke-width="3.2"/>
<circle clip-path="url(#clip612)" cx="702.098" cy="1206.3" r="14.4" fill="#009af9" fill-rule="evenodd" fill-opacity="1" stroke="#000000" stroke-opacity="1" stroke-width="3.2"/>
<circle clip-path="url(#clip612)" cx="771.319" cy="1185.19" r="14.4" fill="#009af9" fill-rule="evenodd" fill-opacity="1" stroke="#000000" stroke-opacity="1" stroke-width="3.2"/>
<circle clip-path="url(#clip612)" cx="687.596" cy="1208.62" r="14.4" fill="#009af9" fill-rule="evenodd" fill-opacity="1" stroke="#000000" stroke-opacity="1" stroke-width="3.2"/>
<path clip-path="url(#clip612)" d="M681.47 1094.55 L681.47 1126.55 L713.47 1126.55 L713.47 1094.55 L681.47 1094.55 Z" fill="#009af9" fill-rule="evenodd" fill-opacity="1" stroke="#000000" stroke-opacity="1" stroke-width="3.2"/>
<circle clip-path="url(#clip612)" cx="678.701" cy="1177.93" r="14.4" fill="#009af9" fill-rule="evenodd" fill-opacity="1" stroke="#000000" stroke-opacity="1" stroke-width="3.2"/>
<circle clip-path="url(#clip612)" cx="716.02" cy="1215.9" r="14.4" fill="#009af9" fill-rule="evenodd" fill-opacity="1" stroke="#000000" stroke-opacity="1" stroke-width="3.2"/>
<circle clip-path="url(#clip612)" cx="726.946" cy="1244.85" r="14.4" fill="#009af9" fill-rule="evenodd" fill-opacity="1" stroke="#000000" stroke-opacity="1" stroke-width="3.2"/>
<circle clip-path="url(#clip612)" cx="673.264" cy="1177.63" r="14.4" fill="#009af9" fill-rule="evenodd" fill-opacity="1" stroke="#000000" stroke-opacity="1" stroke-width="3.2"/>
<circle clip-path="url(#clip612)" cx="663.213" cy="1146.94" r="14.4" fill="#009af9" fill-rule="evenodd" fill-opacity="1" stroke="#000000" stroke-opacity="1" stroke-width="3.2"/>
<circle clip-path="url(#clip612)" cx="730.076" cy="1207.05" r="14.4" fill="#009af9" fill-rule="evenodd" fill-opacity="1" stroke="#000000" stroke-opacity="1" stroke-width="3.2"/>
<circle clip-path="url(#clip612)" cx="781.851" cy="1273.28" r="14.4" fill="#009af9" fill-rule="evenodd" fill-opacity="1" stroke="#000000" stroke-opacity="1" stroke-width="3.2"/>
<path clip-path="url(#clip612)" d="M826.785 1225.32 L826.785 1257.32 L858.785 1257.32 L858.785 1225.32 L826.785 1225.32 Z" fill="#009af9" fill-rule="evenodd" fill-opacity="1" stroke="#000000" stroke-opacity="1" stroke-width="3.2"/>
<circle clip-path="url(#clip612)" cx="721.195" cy="1241.16" r="14.4" fill="#009af9" fill-rule="evenodd" fill-opacity="1" stroke="#000000" stroke-opacity="1" stroke-width="3.2"/>
<circle clip-path="url(#clip612)" cx="742.841" cy="1196.28" r="14.4" fill="#009af9" fill-rule="evenodd" fill-opacity="1" stroke="#000000" stroke-opacity="1" stroke-width="3.2"/>
<circle clip-path="url(#clip612)" cx="729.442" cy="1231.61" r="14.4" fill="#009af9" fill-rule="evenodd" fill-opacity="1" stroke="#000000" stroke-opacity="1" stroke-width="3.2"/>
<circle clip-path="url(#clip612)" cx="801.334" cy="1281.7" r="14.4" fill="#009af9" fill-rule="evenodd" fill-opacity="1" stroke="#000000" stroke-opacity="1" stroke-width="3.2"/>
<circle clip-path="url(#clip612)" cx="678.212" cy="1171.18" r="14.4" fill="#009af9" fill-rule="evenodd" fill-opacity="1" stroke="#000000" stroke-opacity="1" stroke-width="3.2"/>
<circle clip-path="url(#clip612)" cx="697.796" cy="1192.27" r="14.4" fill="#009af9" fill-rule="evenodd" fill-opacity="1" stroke="#000000" stroke-opacity="1" stroke-width="3.2"/>
<circle clip-path="url(#clip612)" cx="743.604" cy="1248.74" r="14.4" fill="#009af9" fill-rule="evenodd" fill-opacity="1" stroke="#000000" stroke-opacity="1" stroke-width="3.2"/>
<circle clip-path="url(#clip612)" cx="726.365" cy="1240.78" r="14.4" fill="#009af9" fill-rule="evenodd" fill-opacity="1" stroke="#000000" stroke-opacity="1" stroke-width="3.2"/>
<path clip-path="url(#clip612)" d="M850.038 1269.4 L850.038 1301.4 L882.038 1301.4 L882.038 1269.4 L850.038 1269.4 Z" fill="#009af9" fill-rule="evenodd" fill-opacity="1" stroke="#000000" stroke-opacity="1" stroke-width="3.2"/>
<circle clip-path="url(#clip612)" cx="752.989" cy="1188.55" r="14.4" fill="#009af9" fill-rule="evenodd" fill-opacity="1" stroke="#000000" stroke-opacity="1" stroke-width="3.2"/>
<path clip-path="url(#clip612)" d="M743.267 1116.73 L743.267 1148.73 L775.267 1148.73 L775.267 1116.73 L743.267 1116.73 Z" fill="#009af9" fill-rule="evenodd" fill-opacity="1" stroke="#000000" stroke-opacity="1" stroke-width="3.2"/>
<circle clip-path="url(#clip612)" cx="731.565" cy="1184.43" r="14.4" fill="#009af9" fill-rule="evenodd" fill-opacity="1" stroke="#000000" stroke-opacity="1" stroke-width="3.2"/>
<circle clip-path="url(#clip612)" cx="678.073" cy="1192.05" r="14.4" fill="#009af9" fill-rule="evenodd" fill-opacity="1" stroke="#000000" stroke-opacity="1" stroke-width="3.2"/>
<circle clip-path="url(#clip612)" cx="795.473" cy="1275.99" r="14.4" fill="#009af9" fill-rule="evenodd" fill-opacity="1" stroke="#000000" stroke-opacity="1" stroke-width="3.2"/>
<circle clip-path="url(#clip612)" cx="724.254" cy="1227.11" r="14.4" fill="#009af9" fill-rule="evenodd" fill-opacity="1" stroke="#000000" stroke-opacity="1" stroke-width="3.2"/>
<path clip-path="url(#clip612)" d="M743.378 1117.57 L743.378 1149.57 L775.378 1149.57 L775.378 1117.57 L743.378 1117.57 Z" fill="#009af9" fill-rule="evenodd" fill-opacity="1" stroke="#000000" stroke-opacity="1" stroke-width="3.2"/>
<circle clip-path="url(#clip612)" cx="757.459" cy="1237.68" r="14.4" fill="#009af9" fill-rule="evenodd" fill-opacity="1" stroke="#000000" stroke-opacity="1" stroke-width="3.2"/>
<circle clip-path="url(#clip612)" cx="700.813" cy="1209.26" r="14.4" fill="#009af9" fill-rule="evenodd" fill-opacity="1" stroke="#000000" stroke-opacity="1" stroke-width="3.2"/>
<circle clip-path="url(#clip612)" cx="767.972" cy="1181.49" r="14.4" fill="#009af9" fill-rule="evenodd" fill-opacity="1" stroke="#000000" stroke-opacity="1" stroke-width="3.2"/>
<circle clip-path="url(#clip612)" cx="708.118" cy="1188.59" r="14.4" fill="#009af9" fill-rule="evenodd" fill-opacity="1" stroke="#000000" stroke-opacity="1" stroke-width="3.2"/>
<path clip-path="url(#clip612)" d="M831.513 1198.97 L831.513 1230.97 L863.513 1230.97 L863.513 1198.97 L831.513 1198.97 Z" fill="#009af9" fill-rule="evenodd" fill-opacity="1" stroke="#000000" stroke-opacity="1" stroke-width="3.2"/>
<path clip-path="url(#clip612)" d="M854.538 1254.62 L854.538 1286.62 L886.538 1286.62 L886.538 1254.62 L854.538 1254.62 Z" fill="#009af9" fill-rule="evenodd" fill-opacity="1" stroke="#000000" stroke-opacity="1" stroke-width="3.2"/>
<circle clip-path="url(#clip612)" cx="667.91" cy="1159.52" r="14.4" fill="#009af9" fill-rule="evenodd" fill-opacity="1" stroke="#000000" stroke-opacity="1" stroke-width="3.2"/>
<circle clip-path="url(#clip612)" cx="736.92" cy="1186.62" r="14.4" fill="#009af9" fill-rule="evenodd" fill-opacity="1" stroke="#000000" stroke-opacity="1" stroke-width="3.2"/>
<circle clip-path="url(#clip612)" cx="673.418" cy="1181.47" r="14.4" fill="#009af9" fill-rule="evenodd" fill-opacity="1" stroke="#000000" stroke-opacity="1" stroke-width="3.2"/>
<circle clip-path="url(#clip612)" cx="787.478" cy="1271" r="14.4" fill="#009af9" fill-rule="evenodd" fill-opacity="1" stroke="#000000" stroke-opacity="1" stroke-width="3.2"/>
<circle clip-path="url(#clip612)" cx="777.297" cy="1208.96" r="14.4" fill="#009af9" fill-rule="evenodd" fill-opacity="1" stroke="#000000" stroke-opacity="1" stroke-width="3.2"/>
<circle clip-path="url(#clip612)" cx="661.767" cy="1141.09" r="14.4" fill="#009af9" fill-rule="evenodd" fill-opacity="1" stroke="#000000" stroke-opacity="1" stroke-width="3.2"/>
<circle clip-path="url(#clip612)" cx="712.414" cy="1224.32" r="14.4" fill="#009af9" fill-rule="evenodd" fill-opacity="1" stroke="#000000" stroke-opacity="1" stroke-width="3.2"/>
<circle clip-path="url(#clip612)" cx="690.807" cy="1189.87" r="14.4" fill="#009af9" fill-rule="evenodd" fill-opacity="1" stroke="#000000" stroke-opacity="1" stroke-width="3.2"/>
<path clip-path="url(#clip612)" d="M745.766 1134.01 L745.766 1166.01 L777.766 1166.01 L777.766 1134.01 L745.766 1134.01 Z" fill="#009af9" fill-rule="evenodd" fill-opacity="1" stroke="#000000" stroke-opacity="1" stroke-width="3.2"/>
<circle clip-path="url(#clip612)" cx="702.335" cy="1188.57" r="14.4" fill="#009af9" fill-rule="evenodd" fill-opacity="1" stroke="#000000" stroke-opacity="1" stroke-width="3.2"/>
<circle clip-path="url(#clip612)" cx="751.369" cy="1182.4" r="14.4" fill="#009af9" fill-rule="evenodd" fill-opacity="1" stroke="#000000" stroke-opacity="1" stroke-width="3.2"/>
<circle clip-path="url(#clip612)" cx="699.928" cy="1218.58" r="14.4" fill="#009af9" fill-rule="evenodd" fill-opacity="1" stroke="#000000" stroke-opacity="1" stroke-width="3.2"/>
<path clip-path="url(#clip612)" d="M601.684 489.73 L601.684 521.73 L633.684 521.73 L633.684 489.73 L601.684 489.73 Z" fill="#e26f46" fill-rule="evenodd" fill-opacity="1" stroke="#000000" stroke-opacity="1" stroke-width="3.2"/>
<path clip-path="url(#clip612)" d="M591.617 579.19 L591.617 611.19 L623.617 611.19 L623.617 579.19 L591.617 579.19 Z" fill="#e26f46" fill-rule="evenodd" fill-opacity="1" stroke="#000000" stroke-opacity="1" stroke-width="3.2"/>
<path clip-path="url(#clip612)" d="M845.09 1121.59 L845.09 1153.59 L877.09 1153.59 L877.09 1121.59 L845.09 1121.59 Z" fill="#e26f46" fill-rule="evenodd" fill-opacity="1" stroke="#000000" stroke-opacity="1" stroke-width="3.2"/>
<path clip-path="url(#clip612)" d="M956.002 1294.68 L956.002 1326.68 L988.002 1326.68 L988.002 1294.68 L956.002 1294.68 Z" fill="#e26f46" fill-rule="evenodd" fill-opacity="1" stroke="#000000" stroke-opacity="1" stroke-width="3.2"/>
<path clip-path="url(#clip612)" d="M693.601 1088.38 L693.601 1120.38 L725.601 1120.38 L725.601 1088.38 L693.601 1088.38 Z" fill="#e26f46" fill-rule="evenodd" fill-opacity="1" stroke="#000000" stroke-opacity="1" stroke-width="3.2"/>
<path clip-path="url(#clip612)" d="M983.668 1331.81 L983.668 1363.81 L1015.67 1363.81 L1015.67 1331.81 L983.668 1331.81 Z" fill="#e26f46" fill-rule="evenodd" fill-opacity="1" stroke="#000000" stroke-opacity="1" stroke-width="3.2"/>
<path clip-path="url(#clip612)" d="M1211.27 1400.09 L1211.27 1432.09 L1243.27 1432.09 L1243.27 1400.09 L1211.27 1400.09 Z" fill="#e26f46" fill-rule="evenodd" fill-opacity="1" stroke="#000000" stroke-opacity="1" stroke-width="3.2"/>
<path clip-path="url(#clip612)" d="M936.284 1081.7 L936.284 1113.7 L968.284 1113.7 L968.284 1081.7 L936.284 1081.7 Z" fill="#e26f46" fill-rule="evenodd" fill-opacity="1" stroke="#000000" stroke-opacity="1" stroke-width="3.2"/>
<path clip-path="url(#clip612)" d="M1069.1 907.273 L1069.1 939.273 L1101.1 939.273 L1101.1 907.273 L1069.1 907.273 Z" fill="#e26f46" fill-rule="evenodd" fill-opacity="1" stroke="#000000" stroke-opacity="1" stroke-width="3.2"/>
<path clip-path="url(#clip612)" d="M904.411 1066.07 L904.411 1098.07 L936.411 1098.07 L936.411 1066.07 L904.411 1066.07 Z" fill="#e26f46" fill-rule="evenodd" fill-opacity="1" stroke="#000000" stroke-opacity="1" stroke-width="3.2"/>
<path clip-path="url(#clip612)" d="M841.68 1064.01 L841.68 1096.01 L873.68 1096.01 L873.68 1064.01 L841.68 1064.01 Z" fill="#e26f46" fill-rule="evenodd" fill-opacity="1" stroke="#000000" stroke-opacity="1" stroke-width="3.2"/>
<path clip-path="url(#clip612)" d="M1060.89 929.795 L1060.89 961.795 L1092.89 961.795 L1092.89 929.795 L1060.89 929.795 Z" fill="#e26f46" fill-rule="evenodd" fill-opacity="1" stroke="#000000" stroke-opacity="1" stroke-width="3.2"/>
<path clip-path="url(#clip612)" d="M1077.09 1339.33 L1077.09 1371.33 L1109.09 1371.33 L1109.09 1339.33 L1077.09 1339.33 Z" fill="#e26f46" fill-rule="evenodd" fill-opacity="1" stroke="#000000" stroke-opacity="1" stroke-width="3.2"/>
<path clip-path="url(#clip612)" d="M947.605 991.267 L947.605 1023.27 L979.605 1023.27 L979.605 991.267 L947.605 991.267 Z" fill="#e26f46" fill-rule="evenodd" fill-opacity="1" stroke="#000000" stroke-opacity="1" stroke-width="3.2"/>
<path clip-path="url(#clip612)" d="M887.486 1109.86 L887.486 1141.86 L919.486 1141.86 L919.486 1109.86 L887.486 1109.86 Z" fill="#e26f46" fill-rule="evenodd" fill-opacity="1" stroke="#000000" stroke-opacity="1" stroke-width="3.2"/>
<path clip-path="url(#clip612)" d="M922.368 1216.83 L922.368 1248.83 L954.368 1248.83 L954.368 1216.83 L922.368 1216.83 Z" fill="#e26f46" fill-rule="evenodd" fill-opacity="1" stroke="#000000" stroke-opacity="1" stroke-width="3.2"/>
<path clip-path="url(#clip612)" d="M907.265 1148.66 L907.265 1180.66 L939.265 1180.66 L939.265 1148.66 L907.265 1148.66 Z" fill="#e26f46" fill-rule="evenodd" fill-opacity="1" stroke="#000000" stroke-opacity="1" stroke-width="3.2"/>
<path clip-path="url(#clip612)" d="M985.376 1336.59 L985.376 1368.59 L1017.38 1368.59 L1017.38 1336.59 L985.376 1336.59 Z" fill="#e26f46" fill-rule="evenodd" fill-opacity="1" stroke="#000000" stroke-opacity="1" stroke-width="3.2"/>
<path clip-path="url(#clip612)" d="M869.525 1218.61 L869.525 1250.61 L901.525 1250.61 L901.525 1218.61 L869.525 1218.61 Z" fill="#e26f46" fill-rule="evenodd" fill-opacity="1" stroke="#000000" stroke-opacity="1" stroke-width="3.2"/>
<path clip-path="url(#clip612)" d="M835.359 1187.79 L835.359 1219.79 L867.359 1219.79 L867.359 1187.79 L835.359 1187.79 Z" fill="#e26f46" fill-rule="evenodd" fill-opacity="1" stroke="#000000" stroke-opacity="1" stroke-width="3.2"/>
<path clip-path="url(#clip612)" d="M1167.84 1373.27 L1167.84 1405.27 L1199.84 1405.27 L1199.84 1373.27 L1167.84 1373.27 Z" fill="#e26f46" fill-rule="evenodd" fill-opacity="1" stroke="#000000" stroke-opacity="1" stroke-width="3.2"/>
<path clip-path="url(#clip612)" d="M682.056 1073.02 L682.056 1105.02 L714.056 1105.02 L714.056 1073.02 L682.056 1073.02 Z" fill="#e26f46" fill-rule="evenodd" fill-opacity="1" stroke="#000000" stroke-opacity="1" stroke-width="3.2"/>
<path clip-path="url(#clip612)" d="M782.071 1110.68 L782.071 1142.68 L814.071 1142.68 L814.071 1110.68 L782.071 1110.68 Z" fill="#e26f46" fill-rule="evenodd" fill-opacity="1" stroke="#000000" stroke-opacity="1" stroke-width="3.2"/>
<path clip-path="url(#clip612)" d="M863.107 1209.43 L863.107 1241.43 L895.107 1241.43 L895.107 1209.43 L863.107 1209.43 Z" fill="#e26f46" fill-rule="evenodd" fill-opacity="1" stroke="#000000" stroke-opacity="1" stroke-width="3.2"/>
<path clip-path="url(#clip612)" d="M992.326 1013.35 L992.326 1045.35 L1024.33 1045.35 L1024.33 1013.35 L992.326 1013.35 Z" fill="#e26f46" fill-rule="evenodd" fill-opacity="1" stroke="#000000" stroke-opacity="1" stroke-width="3.2"/>
<path clip-path="url(#clip612)" d="M1012.72 964.023 L1012.72 996.023 L1044.72 996.023 L1044.72 964.023 L1012.72 964.023 Z" fill="#e26f46" fill-rule="evenodd" fill-opacity="1" stroke="#000000" stroke-opacity="1" stroke-width="3.2"/>
<path clip-path="url(#clip612)" d="M1044.14 918.963 L1044.14 950.963 L1076.14 950.963 L1076.14 918.963 L1044.14 918.963 Z" fill="#e26f46" fill-rule="evenodd" fill-opacity="1" stroke="#000000" stroke-opacity="1" stroke-width="3.2"/>
<path clip-path="url(#clip612)" d="M843.944 1089.65 L843.944 1121.65 L875.944 1121.65 L875.944 1089.65 L843.944 1089.65 Z" fill="#e26f46" fill-rule="evenodd" fill-opacity="1" stroke="#000000" stroke-opacity="1" stroke-width="3.2"/>
<path clip-path="url(#clip612)" d="M622.986 881.038 L622.986 913.038 L654.986 913.038 L654.986 881.038 L622.986 881.038 Z" fill="#e26f46" fill-rule="evenodd" fill-opacity="1" stroke="#000000" stroke-opacity="1" stroke-width="3.2"/>
<path clip-path="url(#clip612)" d="M1066.31 903.507 L1066.31 935.507 L1098.31 935.507 L1098.31 903.507 L1066.31 903.507 Z" fill="#e26f46" fill-rule="evenodd" fill-opacity="1" stroke="#000000" stroke-opacity="1" stroke-width="3.2"/>
<path clip-path="url(#clip612)" d="M1023.13 952.858 L1023.13 984.858 L1055.13 984.858 L1055.13 952.858 L1023.13 952.858 Z" fill="#e26f46" fill-rule="evenodd" fill-opacity="1" stroke="#000000" stroke-opacity="1" stroke-width="3.2"/>
<path clip-path="url(#clip612)" d="M915.109 1040.05 L915.109 1072.05 L947.109 1072.05 L947.109 1040.05 L915.109 1040.05 Z" fill="#e26f46" fill-rule="evenodd" fill-opacity="1" stroke="#000000" stroke-opacity="1" stroke-width="3.2"/>
<path clip-path="url(#clip612)" d="M837.334 1092.75 L837.334 1124.75 L869.334 1124.75 L869.334 1092.75 L837.334 1092.75 Z" fill="#e26f46" fill-rule="evenodd" fill-opacity="1" stroke="#000000" stroke-opacity="1" stroke-width="3.2"/>
<path clip-path="url(#clip612)" d="M916.376 1246.41 L916.376 1278.41 L948.376 1278.41 L948.376 1246.41 L916.376 1246.41 Z" fill="#e26f46" fill-rule="evenodd" fill-opacity="1" stroke="#000000" stroke-opacity="1" stroke-width="3.2"/>
<path clip-path="url(#clip612)" d="M895.063 1222.7 L895.063 1254.7 L927.063 1254.7 L927.063 1222.7 L895.063 1222.7 Z" fill="#e26f46" fill-rule="evenodd" fill-opacity="1" stroke="#000000" stroke-opacity="1" stroke-width="3.2"/>
<path clip-path="url(#clip612)" d="M1119.52 1307.51 L1119.52 1339.51 L1151.52 1339.51 L1151.52 1307.51 L1119.52 1307.51 Z" fill="#e26f46" fill-rule="evenodd" fill-opacity="1" stroke="#000000" stroke-opacity="1" stroke-width="3.2"/>
<path clip-path="url(#clip612)" d="M936.729 1311.31 L936.729 1343.31 L968.729 1343.31 L968.729 1311.31 L936.729 1311.31 Z" fill="#e26f46" fill-rule="evenodd" fill-opacity="1" stroke="#000000" stroke-opacity="1" stroke-width="3.2"/>
<path clip-path="url(#clip612)" d="M709.38 1115.74 L709.38 1147.74 L741.38 1147.74 L741.38 1115.74 L709.38 1115.74 Z" fill="#e26f46" fill-rule="evenodd" fill-opacity="1" stroke="#000000" stroke-opacity="1" stroke-width="3.2"/>
<path clip-path="url(#clip612)" d="M1104.05 884.463 L1104.05 916.463 L1136.05 916.463 L1136.05 884.463 L1104.05 884.463 Z" fill="#e26f46" fill-rule="evenodd" fill-opacity="1" stroke="#000000" stroke-opacity="1" stroke-width="3.2"/>
<path clip-path="url(#clip612)" d="M1038.36 1334.53 L1038.36 1366.53 L1070.36 1366.53 L1070.36 1334.53 L1038.36 1334.53 Z" fill="#e26f46" fill-rule="evenodd" fill-opacity="1" stroke="#000000" stroke-opacity="1" stroke-width="3.2"/>
<path clip-path="url(#clip612)" d="M953.025 1052.49 L953.025 1084.49 L985.025 1084.49 L985.025 1052.49 L953.025 1052.49 Z" fill="#e26f46" fill-rule="evenodd" fill-opacity="1" stroke="#000000" stroke-opacity="1" stroke-width="3.2"/>
<path clip-path="url(#clip612)" d="M636.516 988.815 L636.516 1020.81 L668.516 1020.81 L668.516 988.815 L636.516 988.815 Z" fill="#e26f46" fill-rule="evenodd" fill-opacity="1" stroke="#000000" stroke-opacity="1" stroke-width="3.2"/>
<path clip-path="url(#clip612)" d="M686.345 1006.24 L686.345 1038.24 L718.345 1038.24 L718.345 1006.24 L686.345 1006.24 Z" fill="#e26f46" fill-rule="evenodd" fill-opacity="1" stroke="#000000" stroke-opacity="1" stroke-width="3.2"/>
<path clip-path="url(#clip612)" d="M889.075 1112.45 L889.075 1144.45 L921.075 1144.45 L921.075 1112.45 L889.075 1112.45 Z" fill="#e26f46" fill-rule="evenodd" fill-opacity="1" stroke="#000000" stroke-opacity="1" stroke-width="3.2"/>
<path clip-path="url(#clip612)" d="M1184.12 1381.48 L1184.12 1413.48 L1216.12 1413.48 L1216.12 1381.48 L1184.12 1381.48 Z" fill="#e26f46" fill-rule="evenodd" fill-opacity="1" stroke="#000000" stroke-opacity="1" stroke-width="3.2"/>
<path clip-path="url(#clip612)" d="M690.821 1045.87 L690.821 1077.87 L722.821 1077.87 L722.821 1045.87 L690.821 1045.87 Z" fill="#e26f46" fill-rule="evenodd" fill-opacity="1" stroke="#000000" stroke-opacity="1" stroke-width="3.2"/>
<path clip-path="url(#clip612)" d="M1007.33 1286.9 L1007.33 1318.9 L1039.33 1318.9 L1039.33 1286.9 L1007.33 1286.9 Z" fill="#e26f46" fill-rule="evenodd" fill-opacity="1" stroke="#000000" stroke-opacity="1" stroke-width="3.2"/>
<path clip-path="url(#clip612)" d="M915.757 1020.28 L915.757 1052.28 L947.757 1052.28 L947.757 1020.28 L915.757 1020.28 Z" fill="#e26f46" fill-rule="evenodd" fill-opacity="1" stroke="#000000" stroke-opacity="1" stroke-width="3.2"/>
<path clip-path="url(#clip612)" d="M943.117 1037.96 L943.117 1069.96 L975.117 1069.96 L975.117 1037.96 L943.117 1037.96 Z" fill="#e26f46" fill-rule="evenodd" fill-opacity="1" stroke="#000000" stroke-opacity="1" stroke-width="3.2"/>
<path clip-path="url(#clip612)" d="M606.995 506.344 L606.995 538.344 L638.995 538.344 L638.995 506.344 L606.995 506.344 Z" fill="#e26f46" fill-rule="evenodd" fill-opacity="1" stroke="#000000" stroke-opacity="1" stroke-width="3.2"/>
<path clip-path="url(#clip612)" d="M731.342 1080.79 L731.342 1112.79 L763.342 1112.79 L763.342 1080.79 L731.342 1080.79 Z" fill="#e26f46" fill-rule="evenodd" fill-opacity="1" stroke="#000000" stroke-opacity="1" stroke-width="3.2"/>
<path clip-path="url(#clip612)" d="M909.793 1273.05 L909.793 1305.05 L941.793 1305.05 L941.793 1273.05 L909.793 1273.05 Z" fill="#e26f46" fill-rule="evenodd" fill-opacity="1" stroke="#000000" stroke-opacity="1" stroke-width="3.2"/>
<path clip-path="url(#clip612)" d="M1057.6 1278.04 L1057.6 1310.04 L1089.6 1310.04 L1089.6 1278.04 L1057.6 1278.04 Z" fill="#e26f46" fill-rule="evenodd" fill-opacity="1" stroke="#000000" stroke-opacity="1" stroke-width="3.2"/>
<path clip-path="url(#clip612)" d="M1015.02 983.208 L1015.02 1015.21 L1047.02 1015.21 L1047.02 983.208 L1015.02 983.208 Z" fill="#e26f46" fill-rule="evenodd" fill-opacity="1" stroke="#000000" stroke-opacity="1" stroke-width="3.2"/>
<path clip-path="url(#clip612)" d="M620.668 771.97 L620.668 803.97 L652.668 803.97 L652.668 771.97 L620.668 771.97 Z" fill="#e26f46" fill-rule="evenodd" fill-opacity="1" stroke="#000000" stroke-opacity="1" stroke-width="3.2"/>
<path clip-path="url(#clip612)" d="M1343.3 1437.45 L1343.3 1469.45 L1375.3 1469.45 L1375.3 1437.45 L1343.3 1437.45 Z" fill="#e26f46" fill-rule="evenodd" fill-opacity="1" stroke="#000000" stroke-opacity="1" stroke-width="3.2"/>
<path clip-path="url(#clip612)" d="M623.102 748.131 L623.102 780.131 L655.102 780.131 L655.102 748.131 L623.102 748.131 Z" fill="#e26f46" fill-rule="evenodd" fill-opacity="1" stroke="#000000" stroke-opacity="1" stroke-width="3.2"/>
<path clip-path="url(#clip612)" d="M622.859 786.764 L622.859 818.764 L654.859 818.764 L654.859 786.764 L622.859 786.764 Z" fill="#e26f46" fill-rule="evenodd" fill-opacity="1" stroke="#000000" stroke-opacity="1" stroke-width="3.2"/>
<path clip-path="url(#clip612)" d="M918.96 1013.53 L918.96 1045.53 L950.96 1045.53 L950.96 1013.53 L918.96 1013.53 Z" fill="#e26f46" fill-rule="evenodd" fill-opacity="1" stroke="#000000" stroke-opacity="1" stroke-width="3.2"/>
<path clip-path="url(#clip612)" d="M669.166 1030.08 L669.166 1062.08 L701.166 1062.08 L701.166 1030.08 L669.166 1030.08 Z" fill="#e26f46" fill-rule="evenodd" fill-opacity="1" stroke="#000000" stroke-opacity="1" stroke-width="3.2"/>
<path clip-path="url(#clip612)" d="M692.19 1078.06 L692.19 1110.06 L724.19 1110.06 L724.19 1078.06 L692.19 1078.06 Z" fill="#e26f46" fill-rule="evenodd" fill-opacity="1" stroke="#000000" stroke-opacity="1" stroke-width="3.2"/>
<path clip-path="url(#clip612)" d="M1009.95 1285.19 L1009.95 1317.19 L1041.95 1317.19 L1041.95 1285.19 L1009.95 1285.19 Z" fill="#e26f46" fill-rule="evenodd" fill-opacity="1" stroke="#000000" stroke-opacity="1" stroke-width="3.2"/>
<path clip-path="url(#clip612)" d="M1022.3 1287.89 L1022.3 1319.89 L1054.3 1319.89 L1054.3 1287.89 L1022.3 1287.89 Z" fill="#e26f46" fill-rule="evenodd" fill-opacity="1" stroke="#000000" stroke-opacity="1" stroke-width="3.2"/>
<path clip-path="url(#clip612)" d="M859.221 1128.87 L859.221 1160.87 L891.221 1160.87 L891.221 1128.87 L859.221 1128.87 Z" fill="#e26f46" fill-rule="evenodd" fill-opacity="1" stroke="#000000" stroke-opacity="1" stroke-width="3.2"/>
<path clip-path="url(#clip612)" d="M698.749 1108.27 L698.749 1140.27 L730.749 1140.27 L730.749 1108.27 L698.749 1108.27 Z" fill="#e26f46" fill-rule="evenodd" fill-opacity="1" stroke="#000000" stroke-opacity="1" stroke-width="3.2"/>
<path clip-path="url(#clip612)" d="M627.738 834.141 L627.738 866.141 L659.738 866.141 L659.738 834.141 L627.738 834.141 Z" fill="#e26f46" fill-rule="evenodd" fill-opacity="1" stroke="#000000" stroke-opacity="1" stroke-width="3.2"/>
<path clip-path="url(#clip612)" d="M653.727 897.625 L653.727 929.625 L685.727 929.625 L685.727 897.625 L653.727 897.625 Z" fill="#e26f46" fill-rule="evenodd" fill-opacity="1" stroke="#000000" stroke-opacity="1" stroke-width="3.2"/>
<path clip-path="url(#clip612)" d="M655.614 966.464 L655.614 998.464 L687.614 998.464 L687.614 966.464 L655.614 966.464 Z" fill="#e26f46" fill-rule="evenodd" fill-opacity="1" stroke="#000000" stroke-opacity="1" stroke-width="3.2"/>
<path clip-path="url(#clip612)" d="M646.637 787.079 L646.637 819.079 L678.637 819.079 L678.637 787.079 L646.637 787.079 Z" fill="#e26f46" fill-rule="evenodd" fill-opacity="1" stroke="#000000" stroke-opacity="1" stroke-width="3.2"/>
<path clip-path="url(#clip612)" d="M836.334 1059.51 L836.334 1091.51 L868.334 1091.51 L868.334 1059.51 L836.334 1059.51 Z" fill="#e26f46" fill-rule="evenodd" fill-opacity="1" stroke="#000000" stroke-opacity="1" stroke-width="3.2"/>
<path clip-path="url(#clip612)" d="M883.67 1056.44 L883.67 1088.44 L915.67 1088.44 L915.67 1056.44 L883.67 1056.44 Z" fill="#e26f46" fill-rule="evenodd" fill-opacity="1" stroke="#000000" stroke-opacity="1" stroke-width="3.2"/>
<path clip-path="url(#clip612)" d="M877.392 1268.71 L877.392 1300.71 L909.392 1300.71 L909.392 1268.71 L877.392 1268.71 Z" fill="#e26f46" fill-rule="evenodd" fill-opacity="1" stroke="#000000" stroke-opacity="1" stroke-width="3.2"/>
<path clip-path="url(#clip612)" d="M627.337 831.657 L627.337 863.657 L659.337 863.657 L659.337 831.657 L627.337 831.657 Z" fill="#e26f46" fill-rule="evenodd" fill-opacity="1" stroke="#000000" stroke-opacity="1" stroke-width="3.2"/>
<path clip-path="url(#clip612)" d="M778.714 1081.46 L778.714 1113.46 L810.714 1113.46 L810.714 1081.46 L778.714 1081.46 Z" fill="#e26f46" fill-rule="evenodd" fill-opacity="1" stroke="#000000" stroke-opacity="1" stroke-width="3.2"/>
<path clip-path="url(#clip612)" d="M875.845 1235.18 L875.845 1267.18 L907.845 1267.18 L907.845 1235.18 L875.845 1235.18 Z" fill="#e26f46" fill-rule="evenodd" fill-opacity="1" stroke="#000000" stroke-opacity="1" stroke-width="3.2"/>
<path clip-path="url(#clip612)" d="M639.997 973.612 L639.997 1005.61 L671.997 1005.61 L671.997 973.612 L639.997 973.612 Z" fill="#e26f46" fill-rule="evenodd" fill-opacity="1" stroke="#000000" stroke-opacity="1" stroke-width="3.2"/>
<path clip-path="url(#clip612)" d="M854.961 1209.28 L854.961 1241.28 L886.961 1241.28 L886.961 1209.28 L854.961 1209.28 Z" fill="#e26f46" fill-rule="evenodd" fill-opacity="1" stroke="#000000" stroke-opacity="1" stroke-width="3.2"/>
<path clip-path="url(#clip612)" d="M651.425 968.744 L651.425 1000.74 L683.425 1000.74 L683.425 968.744 L651.425 968.744 Z" fill="#e26f46" fill-rule="evenodd" fill-opacity="1" stroke="#000000" stroke-opacity="1" stroke-width="3.2"/>
<path clip-path="url(#clip612)" d="M704.258 1023.65 L704.258 1055.65 L736.258 1055.65 L736.258 1023.65 L704.258 1023.65 Z" fill="#e26f46" fill-rule="evenodd" fill-opacity="1" stroke="#000000" stroke-opacity="1" stroke-width="3.2"/>
<path clip-path="url(#clip612)" d="M1215.61 1393.48 L1215.61 1425.48 L1247.61 1425.48 L1247.61 1393.48 L1215.61 1393.48 Z" fill="#e26f46" fill-rule="evenodd" fill-opacity="1" stroke="#000000" stroke-opacity="1" stroke-width="3.2"/>
<path clip-path="url(#clip612)" d="M635.388 1038.27 L635.388 1070.27 L667.388 1070.27 L667.388 1038.27 L635.388 1038.27 Z" fill="#e26f46" fill-rule="evenodd" fill-opacity="1" stroke="#000000" stroke-opacity="1" stroke-width="3.2"/>
<path clip-path="url(#clip612)" d="M600.443 747.616 L600.443 779.616 L632.443 779.616 L632.443 747.616 L600.443 747.616 Z" fill="#e26f46" fill-rule="evenodd" fill-opacity="1" stroke="#000000" stroke-opacity="1" stroke-width="3.2"/>
<path clip-path="url(#clip612)" d="M747.447 1150.92 L747.447 1182.92 L779.447 1182.92 L779.447 1150.92 L747.447 1150.92 Z" fill="#e26f46" fill-rule="evenodd" fill-opacity="1" stroke="#000000" stroke-opacity="1" stroke-width="3.2"/>
<path clip-path="url(#clip612)" d="M806.205 1091.39 L806.205 1123.39 L838.205 1123.39 L838.205 1091.39 L806.205 1091.39 Z" fill="#e26f46" fill-rule="evenodd" fill-opacity="1" stroke="#000000" stroke-opacity="1" stroke-width="3.2"/>
<path clip-path="url(#clip612)" d="M603.792 749.528 L603.792 781.528 L635.792 781.528 L635.792 749.528 L603.792 749.528 Z" fill="#e26f46" fill-rule="evenodd" fill-opacity="1" stroke="#000000" stroke-opacity="1" stroke-width="3.2"/>
<path clip-path="url(#clip612)" d="M940.924 987.637 L940.924 1019.64 L972.924 1019.64 L972.924 987.637 L940.924 987.637 Z" fill="#e26f46" fill-rule="evenodd" fill-opacity="1" stroke="#000000" stroke-opacity="1" stroke-width="3.2"/>
<path clip-path="url(#clip612)" d="M673.116 1034.42 L673.116 1066.42 L705.116 1066.42 L705.116 1034.42 L673.116 1034.42 Z" fill="#e26f46" fill-rule="evenodd" fill-opacity="1" stroke="#000000" stroke-opacity="1" stroke-width="3.2"/>
<path clip-path="url(#clip610)" d="M1904.05 447.348 L2275.91 447.348 L2275.91 97.4278 L1904.05 97.4278  Z" fill="#ffffff" fill-rule="evenodd" fill-opacity="1"/>
<polyline clip-path="url(#clip610)" style="stroke:#000000; stroke-linecap:round; stroke-linejoin:round; stroke-width:4; stroke-opacity:1; fill:none" points="1904.05,447.348 2275.91,447.348 2275.91,97.4278 1904.05,97.4278 1904.05,447.348 "/>
<path clip-path="url(#clip610)" d="M1955.32 162.868 L1955.32 265.268 L2057.72 265.268 L2057.72 162.868 L1955.32 162.868 Z" fill="#009af9" fill-rule="evenodd" fill-opacity="1" stroke="#000000" stroke-opacity="1" stroke-width="10.24"/>
<path clip-path="url(#clip610)" d="M2108.98 214.598 Q2108.98 200.807 2111.8 192.427 Q2114.66 183.993 2120.23 179.431 Q2125.85 174.87 2134.34 174.87 Q2140.6 174.87 2145.32 177.416 Q2150.04 179.909 2153.12 184.682 Q2156.19 189.403 2157.94 196.246 Q2159.69 203.035 2159.69 214.598 Q2159.69 228.283 2156.88 236.717 Q2154.07 245.098 2148.45 249.712 Q2142.88 254.274 2134.34 254.274 Q2123.09 254.274 2116.68 246.211 Q2108.98 236.505 2108.98 214.598 M2118.8 214.598 Q2118.8 233.747 2123.25 240.112 Q2127.76 246.424 2134.34 246.424 Q2140.92 246.424 2145.37 240.059 Q2149.88 233.693 2149.88 214.598 Q2149.88 195.397 2145.37 189.085 Q2140.92 182.773 2134.23 182.773 Q2127.65 182.773 2123.73 188.342 Q2118.8 195.45 2118.8 214.598 Z" fill="#000000" fill-rule="nonzero" fill-opacity="1" /><path clip-path="url(#clip610)" d="M2174.76 252.948 L2174.76 242.074 L2185.63 242.074 L2185.63 252.948 L2174.76 252.948 Z" fill="#000000" fill-rule="nonzero" fill-opacity="1" /><path clip-path="url(#clip610)" d="M2199.58 214.598 Q2199.58 200.807 2202.39 192.427 Q2205.26 183.993 2210.83 179.431 Q2216.45 174.87 2224.93 174.87 Q2231.19 174.87 2235.91 177.416 Q2240.64 179.909 2243.71 184.682 Q2246.79 189.403 2248.54 196.246 Q2250.29 203.035 2250.29 214.598 Q2250.29 228.283 2247.48 236.717 Q2244.67 245.098 2239.04 249.712 Q2233.47 254.274 2224.93 254.274 Q2213.69 254.274 2207.27 246.211 Q2199.58 236.505 2199.58 214.598 M2209.39 214.598 Q2209.39 233.747 2213.85 240.112 Q2218.36 246.424 2224.93 246.424 Q2231.51 246.424 2235.97 240.059 Q2240.48 233.693 2240.48 214.598 Q2240.48 195.397 2235.97 189.085 Q2231.51 182.773 2224.83 182.773 Q2218.25 182.773 2214.33 188.342 Q2209.39 195.45 2209.39 214.598 Z" fill="#000000" fill-rule="nonzero" fill-opacity="1" /><path clip-path="url(#clip610)" d="M1955.32 279.508 L1955.32 381.908 L2057.72 381.908 L2057.72 279.508 L1955.32 279.508 Z" fill="#e26f46" fill-rule="evenodd" fill-opacity="1" stroke="#000000" stroke-opacity="1" stroke-width="10.24"/>
<path clip-path="url(#clip610)" d="M2137.63 369.588 L2128.08 369.588 L2128.08 308.748 Q2124.63 312.037 2119.01 315.326 Q2113.44 318.614 2108.98 320.258 L2108.98 311.029 Q2116.99 307.263 2122.99 301.906 Q2128.98 296.549 2131.47 291.51 L2137.63 291.51 L2137.63 369.588 Z" fill="#000000" fill-rule="nonzero" fill-opacity="1" /><path clip-path="url(#clip610)" d="M2167.44 369.588 L2167.44 358.714 L2178.31 358.714 L2178.31 369.588 L2167.44 369.588 Z" fill="#000000" fill-rule="nonzero" fill-opacity="1" /><path clip-path="url(#clip610)" d="M2192.26 331.238 Q2192.26 317.447 2195.07 309.067 Q2197.94 300.633 2203.51 296.071 Q2209.13 291.51 2217.61 291.51 Q2223.87 291.51 2228.59 294.056 Q2233.32 296.549 2236.39 301.322 Q2239.47 306.043 2241.22 312.886 Q2242.97 319.675 2242.97 331.238 Q2242.97 344.923 2240.16 353.357 Q2237.35 361.738 2231.72 366.352 Q2226.15 370.914 2217.61 370.914 Q2206.37 370.914 2199.95 362.851 Q2192.26 353.145 2192.26 331.238 M2202.07 331.238 Q2202.07 350.387 2206.53 356.752 Q2211.04 363.064 2217.61 363.064 Q2224.19 363.064 2228.65 356.699 Q2233.16 350.333 2233.16 331.238 Q2233.16 312.037 2228.65 305.725 Q2224.19 299.413 2217.51 299.413 Q2210.93 299.413 2207.01 304.982 Q2202.07 312.09 2202.07 331.238 Z" fill="#000000" fill-rule="nonzero" fill-opacity="1" /></svg>
