<?xml version="1.0" encoding="utf-8"?>
<svg xmlns="http://www.w3.org/2000/svg" xmlns:xlink="http://www.w3.org/1999/xlink" width="600" height="400" viewBox="0 0 2400 1600">
<defs>
  <clipPath id="clip130">
    <rect x="0" y="0" width="2400" height="1600"/>
  </clipPath>
</defs>
<path clip-path="url(#clip130)" d="M0 1600 L2400 1600 L2400 8.88178e-14 L0 8.88178e-14  Z" fill="#ffffff" fill-rule="evenodd" fill-opacity="1"/>
<defs>
  <clipPath id="clip131">
    <rect x="480" y="0" width="1681" height="1600"/>
  </clipPath>
</defs>
<path clip-path="url(#clip130)" d="M382.644 1349.74 L2352.76 1349.74 L2352.76 47.2441 L382.644 47.2441  Z" fill="#ffffff" fill-rule="evenodd" fill-opacity="1"/>
<defs>
  <clipPath id="clip132">
    <rect x="382" y="47" width="1971" height="1303"/>
  </clipPath>
</defs>
<polyline clip-path="url(#clip130)" style="stroke:#000000; stroke-linecap:round; stroke-linejoin:round; stroke-width:4; stroke-opacity:1; fill:none" points="382.644,1349.74 2352.76,1349.74 "/>
<polyline clip-path="url(#clip130)" style="stroke:#000000; stroke-linecap:round; stroke-linejoin:round; stroke-width:2; stroke-opacity:0.5; fill:none" points="382.644,47.2441 2352.76,47.2441 "/>
<polyline clip-path="url(#clip130)" style="stroke:#000000; stroke-linecap:round; stroke-linejoin:round; stroke-width:4; stroke-opacity:1; fill:none" points="837.285,1349.74 837.285,1330.84 "/>
<polyline clip-path="url(#clip130)" style="stroke:#000000; stroke-linecap:round; stroke-linejoin:round; stroke-width:4; stroke-opacity:1; fill:none" points="1342.44,1349.74 1342.44,1330.84 "/>
<polyline clip-path="url(#clip130)" style="stroke:#000000; stroke-linecap:round; stroke-linejoin:round; stroke-width:4; stroke-opacity:1; fill:none" points="1847.6,1349.74 1847.6,1330.84 "/>
<polyline clip-path="url(#clip130)" style="stroke:#000000; stroke-linecap:round; stroke-linejoin:round; stroke-width:4; stroke-opacity:1; fill:none" points="2352.76,1349.74 2352.76,1330.84 "/>
<path clip-path="url(#clip130)" d="M814.026 1466.14 L804.479 1466.14 L804.479 1405.3 Q801.031 1408.59 795.409 1411.88 Q789.839 1415.17 785.384 1416.81 L785.384 1407.58 Q793.393 1403.82 799.387 1398.46 Q805.381 1393.1 807.874 1388.06 L814.026 1388.06 L814.026 1466.14 Z" fill="#000000" fill-rule="nonzero" fill-opacity="1" /><path clip-path="url(#clip130)" d="M838.479 1427.79 Q838.479 1414 841.29 1405.62 Q844.154 1397.18 849.724 1392.62 Q855.346 1388.06 863.833 1388.06 Q870.092 1388.06 874.813 1390.61 Q879.534 1393.1 882.61 1397.87 Q885.687 1402.6 887.437 1409.44 Q889.187 1416.23 889.187 1427.79 Q889.187 1441.48 886.376 1449.91 Q883.565 1458.29 877.942 1462.9 Q872.373 1467.47 863.833 1467.47 Q852.588 1467.47 846.17 1459.4 Q838.479 1449.7 838.479 1427.79 M848.292 1427.79 Q848.292 1446.94 852.747 1453.3 Q857.256 1459.62 863.833 1459.62 Q870.41 1459.62 874.866 1453.25 Q879.375 1446.89 879.375 1427.79 Q879.375 1408.59 874.866 1402.28 Q870.41 1395.96 863.727 1395.96 Q857.15 1395.96 853.225 1401.53 Q848.292 1408.64 848.292 1427.79 Z" fill="#000000" fill-rule="nonzero" fill-opacity="1" /><path clip-path="url(#clip130)" d="M1337.72 1456.96 L1337.72 1466.14 L1286.32 1466.14 Q1286.22 1462.69 1287.44 1459.51 Q1289.4 1454.26 1293.7 1449.17 Q1298.05 1444.07 1306.21 1437.39 Q1318.89 1426.99 1323.35 1420.95 Q1327.8 1414.85 1327.8 1409.44 Q1327.8 1403.76 1323.72 1399.89 Q1319.69 1395.96 1313.16 1395.96 Q1306.27 1395.96 1302.13 1400.1 Q1297.99 1404.24 1297.94 1411.56 L1288.13 1410.55 Q1289.13 1399.57 1295.71 1393.84 Q1302.29 1388.06 1313.38 1388.06 Q1324.57 1388.06 1331.09 1394.27 Q1337.62 1400.47 1337.62 1409.65 Q1337.62 1414.32 1335.71 1418.83 Q1333.8 1423.33 1329.34 1428.32 Q1324.94 1433.31 1314.65 1442.01 Q1306.06 1449.22 1303.62 1451.82 Q1301.18 1454.36 1299.58 1456.96 L1337.72 1456.96 Z" fill="#000000" fill-rule="nonzero" fill-opacity="1" /><path clip-path="url(#clip130)" d="M1347.96 1427.79 Q1347.96 1414 1350.77 1405.62 Q1353.63 1397.18 1359.2 1392.62 Q1364.83 1388.06 1373.31 1388.06 Q1379.57 1388.06 1384.29 1390.61 Q1389.01 1393.1 1392.09 1397.87 Q1395.17 1402.6 1396.92 1409.44 Q1398.67 1416.23 1398.67 1427.79 Q1398.67 1441.48 1395.86 1449.91 Q1393.04 1458.29 1387.42 1462.9 Q1381.85 1467.47 1373.31 1467.47 Q1362.07 1467.47 1355.65 1459.4 Q1347.96 1449.7 1347.96 1427.79 M1357.77 1427.79 Q1357.77 1446.94 1362.23 1453.3 Q1366.74 1459.62 1373.31 1459.62 Q1379.89 1459.62 1384.35 1453.25 Q1388.85 1446.89 1388.85 1427.79 Q1388.85 1408.59 1384.35 1402.28 Q1379.89 1395.96 1373.21 1395.96 Q1366.63 1395.96 1362.7 1401.53 Q1357.77 1408.64 1357.77 1427.79 Z" fill="#000000" fill-rule="nonzero" fill-opacity="1" /><path clip-path="url(#clip130)" d="M1792.06 1445.61 L1801.61 1444.34 Q1803.26 1452.45 1807.18 1456.06 Q1811.16 1459.62 1816.83 1459.62 Q1823.57 1459.62 1828.19 1454.95 Q1832.85 1450.28 1832.85 1443.38 Q1832.85 1436.81 1828.56 1432.56 Q1824.26 1428.27 1817.63 1428.27 Q1814.93 1428.27 1810.89 1429.33 L1811.95 1420.95 Q1812.91 1421.05 1813.49 1421.05 Q1819.59 1421.05 1824.47 1417.87 Q1829.35 1414.69 1829.35 1408.06 Q1829.35 1402.81 1825.8 1399.36 Q1822.24 1395.91 1816.62 1395.91 Q1811.05 1395.91 1807.34 1399.41 Q1803.63 1402.91 1802.57 1409.92 L1793.02 1408.22 Q1794.77 1398.62 1800.97 1393.37 Q1807.18 1388.06 1816.41 1388.06 Q1822.78 1388.06 1828.13 1390.82 Q1833.49 1393.52 1836.3 1398.25 Q1839.17 1402.97 1839.17 1408.27 Q1839.17 1413.31 1836.46 1417.45 Q1833.76 1421.58 1828.45 1424.02 Q1835.35 1425.62 1839.17 1430.65 Q1842.98 1435.64 1842.98 1443.17 Q1842.98 1453.36 1835.56 1460.46 Q1828.13 1467.52 1816.78 1467.52 Q1806.54 1467.52 1799.75 1461.42 Q1793.02 1455.32 1792.06 1445.61 Z" fill="#000000" fill-rule="nonzero" fill-opacity="1" /><path clip-path="url(#clip130)" d="M1852.43 1427.79 Q1852.43 1414 1855.24 1405.62 Q1858.1 1397.18 1863.67 1392.62 Q1869.29 1388.06 1877.78 1388.06 Q1884.04 1388.06 1888.76 1390.61 Q1893.48 1393.1 1896.56 1397.87 Q1899.63 1402.6 1901.38 1409.44 Q1903.13 1416.23 1903.13 1427.79 Q1903.13 1441.48 1900.32 1449.91 Q1897.51 1458.29 1891.89 1462.9 Q1886.32 1467.47 1877.78 1467.47 Q1866.54 1467.47 1860.12 1459.4 Q1852.43 1449.7 1852.43 1427.79 M1862.24 1427.79 Q1862.24 1446.94 1866.69 1453.3 Q1871.2 1459.62 1877.78 1459.62 Q1884.36 1459.62 1888.81 1453.25 Q1893.32 1446.89 1893.32 1427.79 Q1893.32 1408.59 1888.81 1402.28 Q1884.36 1395.96 1877.67 1395.96 Q1871.1 1395.96 1867.17 1401.53 Q1862.24 1408.64 1862.24 1427.79 Z" fill="#000000" fill-rule="nonzero" fill-opacity="1" /><path clip-path="url(#clip130)" d="M2329.36 1466.14 L2329.36 1447.52 L2295.63 1447.52 L2295.63 1438.77 L2331.11 1388.38 L2338.91 1388.38 L2338.91 1438.77 L2349.41 1438.77 L2349.41 1447.52 L2338.91 1447.52 L2338.91 1466.14 L2329.36 1466.14 M2329.36 1438.77 L2329.36 1403.71 L2305.02 1438.77 L2329.36 1438.77 Z" fill="#000000" fill-rule="nonzero" fill-opacity="1" /><path clip-path="url(#clip130)" d="M2359.17 1427.79 Q2359.17 1414 2361.99 1405.62 Q2364.85 1397.18 2370.42 1392.62 Q2376.04 1388.06 2384.53 1388.06 Q2390.79 1388.06 2395.51 1390.61 Q2400.23 1393.1 2403.31 1397.87 Q2406.38 1402.6 2408.13 1409.44 Q2409.88 1416.23 2409.88 1427.79 Q2409.88 1441.48 2407.07 1449.91 Q2404.26 1458.29 2398.64 1462.9 Q2393.07 1467.47 2384.53 1467.47 Q2373.28 1467.47 2366.87 1459.4 Q2359.17 1449.7 2359.17 1427.79 M2368.99 1427.79 Q2368.99 1446.94 2373.44 1453.3 Q2377.95 1459.62 2384.53 1459.62 Q2391.11 1459.62 2395.56 1453.25 Q2400.07 1446.89 2400.07 1427.79 Q2400.07 1408.59 2395.56 1402.28 Q2391.11 1395.96 2384.42 1395.96 Q2377.84 1395.96 2373.92 1401.53 Q2368.99 1408.64 2368.99 1427.79 Z" fill="#000000" fill-rule="nonzero" fill-opacity="1" /><path clip-path="url(#clip130)" d="M1267.13 1577.55 L1277 1578.77 Q1274.66 1587.42 1268.35 1592.19 Q1262.04 1596.96 1252.23 1596.96 Q1239.87 1596.96 1232.6 1589.38 Q1225.39 1581.74 1225.39 1568 Q1225.39 1553.79 1232.71 1545.94 Q1240.03 1538.09 1251.7 1538.09 Q1262.99 1538.09 1270.16 1545.78 Q1277.32 1553.47 1277.32 1567.42 Q1277.32 1568.27 1277.26 1569.97 L1235.25 1569.97 Q1235.78 1579.25 1240.5 1584.18 Q1245.23 1589.11 1252.28 1589.11 Q1257.53 1589.11 1261.24 1586.36 Q1264.96 1583.6 1267.13 1577.55 M1235.78 1562.12 L1267.24 1562.12 Q1266.6 1555.01 1263.63 1551.45 Q1259.07 1545.94 1251.8 1545.94 Q1245.23 1545.94 1240.72 1550.34 Q1236.26 1554.74 1235.78 1562.12 Z" fill="#000000" fill-rule="nonzero" fill-opacity="1" /><path clip-path="url(#clip130)" d="M1288.99 1617.28 L1288.99 1539.36 L1297.68 1539.36 L1297.68 1546.68 Q1300.76 1542.38 1304.63 1540.26 Q1308.5 1538.09 1314.02 1538.09 Q1321.24 1538.09 1326.75 1541.8 Q1332.27 1545.51 1335.08 1552.3 Q1337.89 1559.04 1337.89 1567.1 Q1337.89 1575.75 1334.76 1582.7 Q1331.68 1589.59 1325.74 1593.3 Q1319.86 1596.96 1313.33 1596.96 Q1308.56 1596.96 1304.74 1594.95 Q1300.97 1592.93 1298.53 1589.86 L1298.53 1617.28 L1288.99 1617.28 M1297.63 1567.84 Q1297.63 1578.72 1302.03 1583.92 Q1306.44 1589.11 1312.7 1589.11 Q1319.06 1589.11 1323.57 1583.76 Q1328.13 1578.35 1328.13 1567.05 Q1328.13 1556.28 1323.68 1550.92 Q1319.27 1545.57 1313.12 1545.57 Q1307.02 1545.57 1302.3 1551.3 Q1297.63 1556.97 1297.63 1567.84 Z" fill="#000000" fill-rule="nonzero" fill-opacity="1" /><path clip-path="url(#clip130)" d="M1345.85 1567.53 Q1345.85 1551.88 1354.55 1544.35 Q1361.81 1538.09 1372.26 1538.09 Q1383.88 1538.09 1391.25 1545.73 Q1398.62 1553.31 1398.62 1566.73 Q1398.62 1577.6 1395.34 1583.86 Q1392.1 1590.07 1385.84 1593.52 Q1379.63 1596.96 1372.26 1596.96 Q1360.43 1596.96 1353.11 1589.38 Q1345.85 1581.79 1345.85 1567.53 M1355.66 1567.53 Q1355.66 1578.35 1360.38 1583.76 Q1365.1 1589.11 1372.26 1589.11 Q1379.37 1589.11 1384.09 1583.7 Q1388.81 1578.29 1388.81 1567.21 Q1388.81 1556.76 1384.04 1551.4 Q1379.32 1545.99 1372.26 1545.99 Q1365.1 1545.99 1360.38 1551.35 Q1355.66 1556.71 1355.66 1567.53 Z" fill="#000000" fill-rule="nonzero" fill-opacity="1" /><path clip-path="url(#clip130)" d="M1446.57 1575.06 L1455.96 1576.28 Q1454.42 1585.99 1448.06 1591.5 Q1441.75 1596.96 1432.52 1596.96 Q1420.95 1596.96 1413.9 1589.43 Q1406.9 1581.85 1406.9 1567.74 Q1406.9 1558.62 1409.92 1551.77 Q1412.95 1544.93 1419.1 1541.54 Q1425.3 1538.09 1432.57 1538.09 Q1441.75 1538.09 1447.58 1542.76 Q1453.42 1547.37 1455.06 1555.91 L1445.78 1557.34 Q1444.45 1551.67 1441.06 1548.8 Q1437.72 1545.94 1432.94 1545.94 Q1425.73 1545.94 1421.22 1551.14 Q1416.71 1556.28 1416.71 1567.47 Q1416.71 1578.82 1421.06 1583.97 Q1425.41 1589.11 1432.41 1589.11 Q1438.03 1589.11 1441.8 1585.67 Q1445.57 1582.22 1446.57 1575.06 Z" fill="#000000" fill-rule="nonzero" fill-opacity="1" /><path clip-path="url(#clip130)" d="M1464.13 1595.69 L1464.13 1517.93 L1473.68 1517.93 L1473.68 1545.83 Q1480.36 1538.09 1490.55 1538.09 Q1496.81 1538.09 1501.42 1540.58 Q1506.03 1543.02 1508 1547.37 Q1510.01 1551.72 1510.01 1559.99 L1510.01 1595.69 L1500.46 1595.69 L1500.46 1559.99 Q1500.46 1552.83 1497.34 1549.6 Q1494.26 1546.31 1488.58 1546.31 Q1484.34 1546.31 1480.57 1548.54 Q1476.86 1550.71 1475.27 1554.48 Q1473.68 1558.24 1473.68 1564.87 L1473.68 1595.69 L1464.13 1595.69 Z" fill="#000000" fill-rule="nonzero" fill-opacity="1" /><polyline clip-path="url(#clip130)" style="stroke:#000000; stroke-linecap:round; stroke-linejoin:round; stroke-width:4; stroke-opacity:1; fill:none" points="382.644,1349.74 382.644,47.2441 "/>
<polyline clip-path="url(#clip130)" style="stroke:#000000; stroke-linecap:round; stroke-linejoin:round; stroke-width:2; stroke-opacity:0.5; fill:none" points="2352.76,1349.74 2352.76,47.2441 "/>
<polyline clip-path="url(#clip130)" style="stroke:#000000; stroke-linecap:round; stroke-linejoin:round; stroke-width:4; stroke-opacity:1; fill:none" points="382.644,1250.53 401.542,1250.53 "/>
<polyline clip-path="url(#clip130)" style="stroke:#000000; stroke-linecap:round; stroke-linejoin:round; stroke-width:4; stroke-opacity:1; fill:none" points="382.644,1072.37 401.542,1072.37 "/>
<polyline clip-path="url(#clip130)" style="stroke:#000000; stroke-linecap:round; stroke-linejoin:round; stroke-width:4; stroke-opacity:1; fill:none" points="382.644,894.198 401.542,894.198 "/>
<polyline clip-path="url(#clip130)" style="stroke:#000000; stroke-linecap:round; stroke-linejoin:round; stroke-width:4; stroke-opacity:1; fill:none" points="382.644,716.03 401.542,716.03 "/>
<polyline clip-path="url(#clip130)" style="stroke:#000000; stroke-linecap:round; stroke-linejoin:round; stroke-width:4; stroke-opacity:1; fill:none" points="382.644,537.863 401.542,537.863 "/>
<polyline clip-path="url(#clip130)" style="stroke:#000000; stroke-linecap:round; stroke-linejoin:round; stroke-width:4; stroke-opacity:1; fill:none" points="382.644,359.696 401.542,359.696 "/>
<polyline clip-path="url(#clip130)" style="stroke:#000000; stroke-linecap:round; stroke-linejoin:round; stroke-width:4; stroke-opacity:1; fill:none" points="382.644,181.528 401.542,181.528 "/>
<path clip-path="url(#clip130)" d="M144.5 1251.06 Q144.5 1237.27 147.311 1228.89 Q150.176 1220.46 155.745 1215.9 Q161.368 1211.33 169.854 1211.33 Q176.113 1211.33 180.834 1213.88 Q185.555 1216.37 188.631 1221.15 Q191.708 1225.87 193.458 1232.71 Q195.209 1239.5 195.209 1251.06 Q195.209 1264.75 192.397 1273.18 Q189.586 1281.56 183.964 1286.18 Q178.394 1290.74 169.854 1290.74 Q158.609 1290.74 152.191 1282.68 Q144.5 1272.97 144.5 1251.06 M154.313 1251.06 Q154.313 1270.21 158.769 1276.58 Q163.277 1282.89 169.854 1282.89 Q176.432 1282.89 180.887 1276.52 Q185.396 1270.16 185.396 1251.06 Q185.396 1231.86 180.887 1225.55 Q176.432 1219.24 169.748 1219.24 Q163.171 1219.24 159.246 1224.81 Q154.313 1231.91 154.313 1251.06 Z" fill="#000000" fill-rule="nonzero" fill-opacity="1" /><path clip-path="url(#clip130)" d="M210.273 1289.41 L210.273 1278.54 L221.146 1278.54 L221.146 1289.41 L210.273 1289.41 Z" fill="#000000" fill-rule="nonzero" fill-opacity="1" /><path clip-path="url(#clip130)" d="M235.096 1251.06 Q235.096 1237.27 237.908 1228.89 Q240.772 1220.46 246.341 1215.9 Q251.964 1211.33 260.451 1211.33 Q266.71 1211.33 271.43 1213.88 Q276.151 1216.37 279.228 1221.15 Q282.304 1225.87 284.054 1232.71 Q285.805 1239.5 285.805 1251.06 Q285.805 1264.75 282.994 1273.18 Q280.182 1281.56 274.56 1286.18 Q268.99 1290.74 260.451 1290.74 Q249.206 1290.74 242.788 1282.68 Q235.096 1272.97 235.096 1251.06 M244.909 1251.06 Q244.909 1270.21 249.365 1276.58 Q253.873 1282.89 260.451 1282.89 Q267.028 1282.89 271.483 1276.52 Q275.992 1270.16 275.992 1251.06 Q275.992 1231.86 271.483 1225.55 Q267.028 1219.24 260.345 1219.24 Q253.767 1219.24 249.842 1224.81 Q244.909 1231.91 244.909 1251.06 Z" fill="#000000" fill-rule="nonzero" fill-opacity="1" /><path clip-path="url(#clip130)" d="M310.204 1247.24 Q304.264 1245.07 301.399 1241.04 Q298.535 1237.01 298.535 1231.38 Q298.535 1222.9 304.635 1217.12 Q310.735 1211.33 320.866 1211.33 Q331.05 1211.33 337.256 1217.28 Q343.462 1223.16 343.462 1231.65 Q343.462 1237.06 340.598 1241.09 Q337.786 1245.07 332.005 1247.24 Q339.165 1249.58 342.878 1254.78 Q346.644 1259.97 346.644 1267.19 Q346.644 1277.16 339.59 1283.95 Q332.535 1290.74 321.025 1290.74 Q309.515 1290.74 302.46 1283.95 Q295.405 1277.11 295.405 1266.92 Q295.405 1259.34 299.225 1254.25 Q303.097 1249.1 310.204 1247.24 M308.295 1231.07 Q308.295 1236.58 311.849 1240.08 Q315.402 1243.58 321.078 1243.58 Q326.594 1243.58 330.095 1240.14 Q333.649 1236.64 333.649 1231.6 Q333.649 1226.35 329.989 1222.79 Q326.382 1219.18 320.972 1219.18 Q315.509 1219.18 311.902 1222.69 Q308.295 1226.19 308.295 1231.07 M305.218 1266.98 Q305.218 1271.06 307.128 1274.88 Q309.09 1278.7 312.909 1280.82 Q316.728 1282.89 321.131 1282.89 Q327.973 1282.89 332.429 1278.49 Q336.885 1274.08 336.885 1267.29 Q336.885 1260.4 332.27 1255.89 Q327.708 1251.38 320.813 1251.38 Q314.076 1251.38 309.621 1255.84 Q305.218 1260.29 305.218 1266.98 Z" fill="#000000" fill-rule="nonzero" fill-opacity="1" /><path clip-path="url(#clip130)" d="M144.924 1072.9 Q144.924 1059.1 147.736 1050.72 Q150.6 1042.29 156.169 1037.73 Q161.792 1033.17 170.279 1033.17 Q176.538 1033.17 181.258 1035.71 Q185.979 1038.21 189.056 1042.98 Q192.132 1047.7 193.883 1054.54 Q195.633 1061.33 195.633 1072.9 Q195.633 1086.58 192.822 1095.01 Q190.01 1103.4 184.388 1108.01 Q178.819 1112.57 170.279 1112.57 Q159.034 1112.57 152.616 1104.51 Q144.924 1094.8 144.924 1072.9 M154.737 1072.9 Q154.737 1092.04 159.193 1098.41 Q163.701 1104.72 170.279 1104.72 Q176.856 1104.72 181.312 1098.36 Q185.82 1091.99 185.82 1072.9 Q185.82 1053.69 181.312 1047.38 Q176.856 1041.07 170.173 1041.07 Q163.595 1041.07 159.67 1046.64 Q154.737 1053.75 154.737 1072.9 Z" fill="#000000" fill-rule="nonzero" fill-opacity="1" /><path clip-path="url(#clip130)" d="M210.697 1111.25 L210.697 1100.37 L221.571 1100.37 L221.571 1111.25 L210.697 1111.25 Z" fill="#000000" fill-rule="nonzero" fill-opacity="1" /><path clip-path="url(#clip130)" d="M271.483 1111.25 L261.936 1111.25 L261.936 1050.41 Q258.488 1053.69 252.866 1056.98 Q247.296 1060.27 242.841 1061.92 L242.841 1052.69 Q250.85 1048.92 256.844 1043.56 Q262.838 1038.21 265.33 1033.17 L271.483 1033.17 L271.483 1111.25 Z" fill="#000000" fill-rule="nonzero" fill-opacity="1" /><path clip-path="url(#clip130)" d="M295.936 1072.9 Q295.936 1059.1 298.747 1050.72 Q301.611 1042.29 307.181 1037.73 Q312.803 1033.17 321.29 1033.17 Q327.549 1033.17 332.27 1035.71 Q336.991 1038.21 340.067 1042.98 Q343.144 1047.7 344.894 1054.54 Q346.644 1061.33 346.644 1072.9 Q346.644 1086.58 343.833 1095.01 Q341.022 1103.4 335.399 1108.01 Q329.83 1112.57 321.29 1112.57 Q310.045 1112.57 303.627 1104.51 Q295.936 1094.8 295.936 1072.9 M305.749 1072.9 Q305.749 1092.04 310.204 1098.41 Q314.713 1104.72 321.29 1104.72 Q327.867 1104.72 332.323 1098.36 Q336.832 1091.99 336.832 1072.9 Q336.832 1053.69 332.323 1047.38 Q327.867 1041.07 321.184 1041.07 Q314.607 1041.07 310.682 1046.64 Q305.749 1053.75 305.749 1072.9 Z" fill="#000000" fill-rule="nonzero" fill-opacity="1" /><path clip-path="url(#clip130)" d="M145.455 894.728 Q145.455 880.937 148.266 872.557 Q151.13 864.123 156.7 859.561 Q162.322 855 170.809 855 Q177.068 855 181.789 857.546 Q186.51 860.039 189.586 864.812 Q192.663 869.533 194.413 876.376 Q196.163 883.165 196.163 894.728 Q196.163 908.413 193.352 916.847 Q190.541 925.228 184.918 929.842 Q179.349 934.404 170.809 934.404 Q159.564 934.404 153.146 926.342 Q145.455 916.635 145.455 894.728 M155.268 894.728 Q155.268 913.877 159.723 920.242 Q164.232 926.554 170.809 926.554 Q177.386 926.554 181.842 920.189 Q186.351 913.824 186.351 894.728 Q186.351 875.527 181.842 869.215 Q177.386 862.903 170.703 862.903 Q164.126 862.903 160.201 868.472 Q155.268 875.58 155.268 894.728 Z" fill="#000000" fill-rule="nonzero" fill-opacity="1" /><path clip-path="url(#clip130)" d="M211.227 933.078 L211.227 922.204 L222.101 922.204 L222.101 933.078 L211.227 933.078 Z" fill="#000000" fill-rule="nonzero" fill-opacity="1" /><path clip-path="url(#clip130)" d="M272.014 933.078 L262.466 933.078 L262.466 872.238 Q259.018 875.527 253.396 878.816 Q247.827 882.104 243.371 883.749 L243.371 874.519 Q251.38 870.753 257.374 865.396 Q263.368 860.039 265.861 855 L272.014 855 L272.014 933.078 Z" fill="#000000" fill-rule="nonzero" fill-opacity="1" /><path clip-path="url(#clip130)" d="M346.644 923.902 L346.644 933.078 L295.246 933.078 Q295.14 929.63 296.36 926.448 Q298.323 921.196 302.619 916.104 Q306.969 911.012 315.137 904.329 Q327.814 893.933 332.27 887.886 Q336.725 881.786 336.725 876.376 Q336.725 870.7 332.641 866.828 Q328.61 862.903 322.086 862.903 Q315.19 862.903 311.053 867.04 Q306.916 871.178 306.863 878.497 L297.05 877.49 Q298.058 866.51 304.635 860.781 Q311.212 855 322.298 855 Q333.49 855 340.014 861.206 Q346.538 867.412 346.538 876.588 Q346.538 881.256 344.629 885.764 Q342.719 890.273 338.264 895.259 Q333.861 900.245 323.571 908.944 Q314.978 916.157 312.538 918.756 Q310.098 921.302 308.507 923.902 L346.644 923.902 Z" fill="#000000" fill-rule="nonzero" fill-opacity="1" /><path clip-path="url(#clip130)" d="M144.978 716.561 Q144.978 702.77 147.789 694.389 Q150.653 685.955 156.223 681.394 Q161.845 676.832 170.332 676.832 Q176.591 676.832 181.312 679.378 Q186.032 681.871 189.109 686.645 Q192.185 691.366 193.936 698.208 Q195.686 704.998 195.686 716.561 Q195.686 730.246 192.875 738.68 Q190.063 747.06 184.441 751.675 Q178.872 756.237 170.332 756.237 Q159.087 756.237 152.669 748.174 Q144.978 738.467 144.978 716.561 M154.79 716.561 Q154.79 735.709 159.246 742.074 Q163.755 748.386 170.332 748.386 Q176.909 748.386 181.365 742.021 Q185.873 735.656 185.873 716.561 Q185.873 697.36 181.365 691.048 Q176.909 684.736 170.226 684.736 Q163.648 684.736 159.723 690.305 Q154.79 697.413 154.79 716.561 Z" fill="#000000" fill-rule="nonzero" fill-opacity="1" /><path clip-path="url(#clip130)" d="M210.75 754.91 L210.75 744.037 L221.624 744.037 L221.624 754.91 L210.75 754.91 Z" fill="#000000" fill-rule="nonzero" fill-opacity="1" /><path clip-path="url(#clip130)" d="M271.536 754.91 L261.989 754.91 L261.989 694.071 Q258.541 697.36 252.919 700.648 Q247.349 703.937 242.894 705.581 L242.894 696.352 Q250.903 692.586 256.897 687.228 Q262.891 681.871 265.384 676.832 L271.536 676.832 L271.536 754.91 Z" fill="#000000" fill-rule="nonzero" fill-opacity="1" /><path clip-path="url(#clip130)" d="M326.594 754.91 L326.594 736.293 L292.859 736.293 L292.859 727.541 L328.345 677.15 L336.142 677.15 L336.142 727.541 L346.644 727.541 L346.644 736.293 L336.142 736.293 L336.142 754.91 L326.594 754.91 M326.594 727.541 L326.594 692.48 L302.248 727.541 L326.594 727.541 Z" fill="#000000" fill-rule="nonzero" fill-opacity="1" /><path clip-path="url(#clip130)" d="M144.712 538.393 Q144.712 524.602 147.524 516.222 Q150.388 507.788 155.957 503.226 Q161.58 498.665 170.067 498.665 Q176.326 498.665 181.046 501.211 Q185.767 503.704 188.844 508.478 Q191.92 513.198 193.67 520.041 Q195.421 526.83 195.421 538.393 Q195.421 552.078 192.61 560.512 Q189.798 568.893 184.176 573.507 Q178.606 578.069 170.067 578.069 Q158.822 578.069 152.403 570.007 Q144.712 560.3 144.712 538.393 M154.525 538.393 Q154.525 557.542 158.981 563.907 Q163.489 570.219 170.067 570.219 Q176.644 570.219 181.099 563.854 Q185.608 557.489 185.608 538.393 Q185.608 519.192 181.099 512.88 Q176.644 506.568 169.96 506.568 Q163.383 506.568 159.458 512.138 Q154.525 519.245 154.525 538.393 Z" fill="#000000" fill-rule="nonzero" fill-opacity="1" /><path clip-path="url(#clip130)" d="M210.485 576.743 L210.485 565.869 L221.358 565.869 L221.358 576.743 L210.485 576.743 Z" fill="#000000" fill-rule="nonzero" fill-opacity="1" /><path clip-path="url(#clip130)" d="M271.271 576.743 L261.724 576.743 L261.724 515.904 Q258.276 519.192 252.653 522.481 Q247.084 525.769 242.628 527.414 L242.628 518.184 Q250.638 514.418 256.632 509.061 Q262.625 503.704 265.118 498.665 L271.271 498.665 L271.271 576.743 Z" fill="#000000" fill-rule="nonzero" fill-opacity="1" /><path clip-path="url(#clip130)" d="M345.265 518.025 L335.771 518.768 Q334.498 513.145 332.164 510.599 Q328.292 506.515 322.616 506.515 Q318.055 506.515 314.607 509.061 Q310.098 512.35 307.499 518.662 Q304.9 524.974 304.794 536.643 Q308.242 531.392 313.228 528.846 Q318.214 526.3 323.677 526.3 Q333.225 526.3 339.908 533.354 Q346.644 540.356 346.644 551.495 Q346.644 558.815 343.462 565.127 Q340.332 571.386 334.816 574.727 Q329.3 578.069 322.298 578.069 Q310.363 578.069 302.831 569.317 Q295.299 560.512 295.299 540.356 Q295.299 517.813 303.627 507.576 Q310.894 498.665 323.2 498.665 Q332.376 498.665 338.211 503.81 Q344.098 508.955 345.265 518.025 M306.279 551.548 Q306.279 556.481 308.348 560.989 Q310.469 565.498 314.235 567.885 Q318.001 570.219 322.139 570.219 Q328.186 570.219 332.535 565.339 Q336.885 560.459 336.885 552.078 Q336.885 544.016 332.588 539.401 Q328.292 534.734 321.767 534.734 Q315.296 534.734 310.788 539.401 Q306.279 544.016 306.279 551.548 Z" fill="#000000" fill-rule="nonzero" fill-opacity="1" /><path clip-path="url(#clip130)" d="M144.5 360.226 Q144.5 346.435 147.311 338.054 Q150.176 329.621 155.745 325.059 Q161.368 320.497 169.854 320.497 Q176.113 320.497 180.834 323.043 Q185.555 325.536 188.631 330.31 Q191.708 335.031 193.458 341.873 Q195.209 348.663 195.209 360.226 Q195.209 373.911 192.397 382.345 Q189.586 390.725 183.964 395.34 Q178.394 399.902 169.854 399.902 Q158.609 399.902 152.191 391.839 Q144.5 382.133 144.5 360.226 M154.313 360.226 Q154.313 379.374 158.769 385.739 Q163.277 392.051 169.854 392.051 Q176.432 392.051 180.887 385.686 Q185.396 379.321 185.396 360.226 Q185.396 341.025 180.887 334.713 Q176.432 328.401 169.748 328.401 Q163.171 328.401 159.246 333.97 Q154.313 341.078 154.313 360.226 Z" fill="#000000" fill-rule="nonzero" fill-opacity="1" /><path clip-path="url(#clip130)" d="M210.273 398.576 L210.273 387.702 L221.146 387.702 L221.146 398.576 L210.273 398.576 Z" fill="#000000" fill-rule="nonzero" fill-opacity="1" /><path clip-path="url(#clip130)" d="M271.059 398.576 L261.511 398.576 L261.511 337.736 Q258.064 341.025 252.441 344.313 Q246.872 347.602 242.416 349.246 L242.416 340.017 Q250.426 336.251 256.419 330.894 Q262.413 325.536 264.906 320.497 L271.059 320.497 L271.059 398.576 Z" fill="#000000" fill-rule="nonzero" fill-opacity="1" /><path clip-path="url(#clip130)" d="M310.204 356.407 Q304.264 354.232 301.399 350.201 Q298.535 346.17 298.535 340.547 Q298.535 332.061 304.635 326.279 Q310.735 320.497 320.866 320.497 Q331.05 320.497 337.256 326.438 Q343.462 332.326 343.462 340.813 Q343.462 346.223 340.598 350.254 Q337.786 354.232 332.005 356.407 Q339.165 358.741 342.878 363.939 Q346.644 369.137 346.644 376.351 Q346.644 386.323 339.59 393.112 Q332.535 399.902 321.025 399.902 Q309.515 399.902 302.46 393.112 Q295.405 386.27 295.405 376.086 Q295.405 368.501 299.225 363.409 Q303.097 358.263 310.204 356.407 M308.295 340.229 Q308.295 345.746 311.849 349.246 Q315.402 352.747 321.078 352.747 Q326.594 352.747 330.095 349.299 Q333.649 345.799 333.649 340.76 Q333.649 335.508 329.989 331.955 Q326.382 328.348 320.972 328.348 Q315.509 328.348 311.902 331.848 Q308.295 335.349 308.295 340.229 M305.218 376.139 Q305.218 380.223 307.128 384.042 Q309.09 387.861 312.909 389.983 Q316.728 392.051 321.131 392.051 Q327.973 392.051 332.429 387.649 Q336.885 383.246 336.885 376.457 Q336.885 369.562 332.27 365.053 Q327.708 360.544 320.813 360.544 Q314.076 360.544 309.621 365 Q305.218 369.455 305.218 376.139 Z" fill="#000000" fill-rule="nonzero" fill-opacity="1" /><path clip-path="url(#clip130)" d="M144.924 182.059 Q144.924 168.268 147.736 159.887 Q150.6 151.453 156.169 146.892 Q161.792 142.33 170.279 142.33 Q176.538 142.33 181.258 144.876 Q185.979 147.369 189.056 152.143 Q192.132 156.864 193.883 163.706 Q195.633 170.495 195.633 182.059 Q195.633 195.744 192.822 204.177 Q190.01 212.558 184.388 217.173 Q178.819 221.734 170.279 221.734 Q159.034 221.734 152.616 213.672 Q144.924 203.965 144.924 182.059 M154.737 182.059 Q154.737 201.207 159.193 207.572 Q163.701 213.884 170.279 213.884 Q176.856 213.884 181.312 207.519 Q185.82 201.154 185.82 182.059 Q185.82 162.857 181.312 156.545 Q176.856 150.233 170.173 150.233 Q163.595 150.233 159.67 155.803 Q154.737 162.91 154.737 182.059 Z" fill="#000000" fill-rule="nonzero" fill-opacity="1" /><path clip-path="url(#clip130)" d="M210.697 220.408 L210.697 209.535 L221.571 209.535 L221.571 220.408 L210.697 220.408 Z" fill="#000000" fill-rule="nonzero" fill-opacity="1" /><path clip-path="url(#clip130)" d="M285.699 211.232 L285.699 220.408 L234.301 220.408 Q234.195 216.96 235.415 213.778 Q237.377 208.527 241.674 203.435 Q246.023 198.343 254.192 191.659 Q266.869 181.263 271.324 175.216 Q275.78 169.116 275.78 163.706 Q275.78 158.03 271.696 154.158 Q267.664 150.233 261.14 150.233 Q254.245 150.233 250.107 154.371 Q245.97 158.508 245.917 165.828 L236.104 164.82 Q237.112 153.84 243.689 148.112 Q250.266 142.33 261.352 142.33 Q272.544 142.33 279.068 148.536 Q285.593 154.742 285.593 163.918 Q285.593 168.586 283.683 173.095 Q281.774 177.603 277.318 182.589 Q272.916 187.575 262.625 196.274 Q254.032 203.488 251.593 206.087 Q249.153 208.633 247.561 211.232 L285.699 211.232 Z" fill="#000000" fill-rule="nonzero" fill-opacity="1" /><path clip-path="url(#clip130)" d="M295.936 182.059 Q295.936 168.268 298.747 159.887 Q301.611 151.453 307.181 146.892 Q312.803 142.33 321.29 142.33 Q327.549 142.33 332.27 144.876 Q336.991 147.369 340.067 152.143 Q343.144 156.864 344.894 163.706 Q346.644 170.495 346.644 182.059 Q346.644 195.744 343.833 204.177 Q341.022 212.558 335.399 217.173 Q329.83 221.734 321.29 221.734 Q310.045 221.734 303.627 213.672 Q295.936 203.965 295.936 182.059 M305.749 182.059 Q305.749 201.207 310.204 207.572 Q314.713 213.884 321.29 213.884 Q327.867 213.884 332.323 207.519 Q336.832 201.154 336.832 182.059 Q336.832 162.857 332.323 156.545 Q327.867 150.233 321.184 150.233 Q314.607 150.233 310.682 155.803 Q305.749 162.91 305.749 182.059 Z" fill="#000000" fill-rule="nonzero" fill-opacity="1" /><path clip-path="url(#clip130)" d="M85.1722 789.513 L7.41216 789.513 L7.41216 779.965 L85.1722 779.965 L85.1722 789.513 Z" fill="#000000" fill-rule="nonzero" fill-opacity="1" /><path clip-path="url(#clip130)" d="M57.0067 768.72 Q41.3592 768.72 33.8272 760.021 Q27.5682 752.754 27.5682 742.305 Q27.5682 730.689 35.2063 723.316 Q42.7914 715.943 56.2111 715.943 Q67.0847 715.943 73.3437 719.232 Q79.5497 722.467 82.9974 728.726 Q86.4452 734.932 86.4452 742.305 Q86.4452 754.133 78.8601 761.453 Q71.2751 768.72 57.0067 768.72 M57.0067 758.907 Q67.8273 758.907 73.2376 754.186 Q78.5949 749.466 78.5949 742.305 Q78.5949 735.197 73.1846 730.476 Q67.7743 725.756 56.6884 725.756 Q46.2391 725.756 40.8818 730.53 Q35.4715 735.25 35.4715 742.305 Q35.4715 749.466 40.8288 754.186 Q46.1861 758.907 57.0067 758.907 Z" fill="#000000" fill-rule="nonzero" fill-opacity="1" /><path clip-path="url(#clip130)" d="M68.3578 708.57 L66.8726 699.128 Q72.5481 698.333 75.5715 694.726 Q78.5949 691.066 78.5949 684.542 Q78.5949 677.965 75.9428 674.782 Q73.2376 671.6 69.6308 671.6 Q66.3952 671.6 64.5387 674.411 Q63.2657 676.373 61.3031 684.171 Q58.651 694.673 56.7415 698.757 Q54.7789 702.788 51.3842 704.91 Q47.9365 706.979 43.7992 706.979 Q40.0332 706.979 36.8506 705.281 Q33.615 703.531 31.4934 700.561 Q29.849 698.333 28.7352 694.514 Q27.5682 690.642 27.5682 686.239 Q27.5682 679.609 29.4778 674.623 Q31.3873 669.584 34.6759 667.197 Q37.9115 664.81 43.3748 663.908 L44.6478 673.244 Q40.2984 673.88 37.8584 676.957 Q35.4185 679.98 35.4185 685.55 Q35.4185 692.127 37.5932 694.938 Q39.768 697.749 42.6853 697.749 Q44.5418 697.749 46.0269 696.582 Q47.5652 695.416 48.573 692.923 Q49.1034 691.49 51.0129 684.489 Q53.7181 674.358 55.4685 670.38 Q57.1658 666.348 60.4544 664.068 Q63.7431 661.787 68.623 661.787 Q73.3968 661.787 77.6402 664.598 Q81.8305 667.356 84.1644 672.607 Q86.4452 677.859 86.4452 684.489 Q86.4452 695.469 81.8835 701.25 Q77.3219 706.979 68.3578 708.57 Z" fill="#000000" fill-rule="nonzero" fill-opacity="1" /><path clip-path="url(#clip130)" d="M68.3578 654.255 L66.8726 644.813 Q72.5481 644.018 75.5715 640.411 Q78.5949 636.751 78.5949 630.227 Q78.5949 623.649 75.9428 620.467 Q73.2376 617.284 69.6308 617.284 Q66.3952 617.284 64.5387 620.095 Q63.2657 622.058 61.3031 629.855 Q58.651 640.358 56.7415 644.442 Q54.7789 648.473 51.3842 650.595 Q47.9365 652.663 43.7992 652.663 Q40.0332 652.663 36.8506 650.966 Q33.615 649.216 31.4934 646.245 Q29.849 644.018 28.7352 640.198 Q27.5682 636.326 27.5682 631.924 Q27.5682 625.294 29.4778 620.308 Q31.3873 615.269 34.6759 612.882 Q37.9115 610.495 43.3748 609.593 L44.6478 618.929 Q40.2984 619.565 37.8584 622.641 Q35.4185 625.665 35.4185 631.234 Q35.4185 637.812 37.5932 640.623 Q39.768 643.434 42.6853 643.434 Q44.5418 643.434 46.0269 642.267 Q47.5652 641.1 48.573 638.607 Q49.1034 637.175 51.0129 630.173 Q53.7181 620.042 55.4685 616.064 Q57.1658 612.033 60.4544 609.752 Q63.7431 607.471 68.623 607.471 Q73.3968 607.471 77.6402 610.283 Q81.8305 613.041 84.1644 618.292 Q86.4452 623.543 86.4452 630.173 Q86.4452 641.153 81.8835 646.935 Q77.3219 652.663 68.3578 654.255 Z" fill="#000000" fill-rule="nonzero" fill-opacity="1" /><polyline clip-path="url(#clip132)" style="stroke:#009af9; stroke-linecap:round; stroke-linejoin:round; stroke-width:8; stroke-opacity:1; fill:none" points="382.644,47.2441 433.16,268.576 483.676,278.274 534.191,291.057 584.707,307.629 635.223,329.051 685.738,357.049 736.254,393.245 786.77,439.122 837.285,495.999 887.801,563.666 938.317,640.183 988.833,722.556 1039.35,806.413 1089.86,887.435 1140.38,961.643 1190.9,1026.63 1241.41,1081.97 1291.93,1127.19 1342.44,1163.23 1392.96,1191.26 1443.47,1213.23 1493.99,1229.91 1544.51,1242.32 1595.02,1251.53 1645.54,1258.63 1696.05,1263.58 1746.57,1267.41 1797.08,1269.98 1847.6,1271.87 1898.11,1273.3 1948.63,1274.42 1999.15,1275.22 2049.66,1275.87 2100.18,1276.39 2150.69,1276.6 2201.21,1277.04 2251.72,1277.22 2302.24,1277.66 2352.76,1277.89 "/>
<circle clip-path="url(#clip132)" cx="433.16" cy="268.576" r="3.6" fill="#009af9" fill-rule="evenodd" fill-opacity="1" stroke="#000000" stroke-opacity="1" stroke-width="3.2"/>
<circle clip-path="url(#clip132)" cx="483.676" cy="278.274" r="3.6" fill="#009af9" fill-rule="evenodd" fill-opacity="1" stroke="#000000" stroke-opacity="1" stroke-width="3.2"/>
<circle clip-path="url(#clip132)" cx="534.191" cy="291.057" r="3.6" fill="#009af9" fill-rule="evenodd" fill-opacity="1" stroke="#000000" stroke-opacity="1" stroke-width="3.2"/>
<circle clip-path="url(#clip132)" cx="584.707" cy="307.629" r="3.6" fill="#009af9" fill-rule="evenodd" fill-opacity="1" stroke="#000000" stroke-opacity="1" stroke-width="3.2"/>
<circle clip-path="url(#clip132)" cx="635.223" cy="329.051" r="3.6" fill="#009af9" fill-rule="evenodd" fill-opacity="1" stroke="#000000" stroke-opacity="1" stroke-width="3.2"/>
<circle clip-path="url(#clip132)" cx="685.738" cy="357.049" r="3.6" fill="#009af9" fill-rule="evenodd" fill-opacity="1" stroke="#000000" stroke-opacity="1" stroke-width="3.2"/>
<circle clip-path="url(#clip132)" cx="736.254" cy="393.245" r="3.6" fill="#009af9" fill-rule="evenodd" fill-opacity="1" stroke="#000000" stroke-opacity="1" stroke-width="3.2"/>
<circle clip-path="url(#clip132)" cx="786.77" cy="439.122" r="3.6" fill="#009af9" fill-rule="evenodd" fill-opacity="1" stroke="#000000" stroke-opacity="1" stroke-width="3.2"/>
<circle clip-path="url(#clip132)" cx="837.285" cy="495.999" r="3.6" fill="#009af9" fill-rule="evenodd" fill-opacity="1" stroke="#000000" stroke-opacity="1" stroke-width="3.2"/>
<circle clip-path="url(#clip132)" cx="887.801" cy="563.666" r="3.6" fill="#009af9" fill-rule="evenodd" fill-opacity="1" stroke="#000000" stroke-opacity="1" stroke-width="3.2"/>
<circle clip-path="url(#clip132)" cx="938.317" cy="640.183" r="3.6" fill="#009af9" fill-rule="evenodd" fill-opacity="1" stroke="#000000" stroke-opacity="1" stroke-width="3.2"/>
<circle clip-path="url(#clip132)" cx="988.833" cy="722.556" r="3.6" fill="#009af9" fill-rule="evenodd" fill-opacity="1" stroke="#000000" stroke-opacity="1" stroke-width="3.2"/>
<circle clip-path="url(#clip132)" cx="1039.35" cy="806.413" r="3.6" fill="#009af9" fill-rule="evenodd" fill-opacity="1" stroke="#000000" stroke-opacity="1" stroke-width="3.2"/>
<circle clip-path="url(#clip132)" cx="1089.86" cy="887.435" r="3.6" fill="#009af9" fill-rule="evenodd" fill-opacity="1" stroke="#000000" stroke-opacity="1" stroke-width="3.2"/>
<circle clip-path="url(#clip132)" cx="1140.38" cy="961.643" r="3.6" fill="#009af9" fill-rule="evenodd" fill-opacity="1" stroke="#000000" stroke-opacity="1" stroke-width="3.2"/>
<circle clip-path="url(#clip132)" cx="1190.9" cy="1026.63" r="3.6" fill="#009af9" fill-rule="evenodd" fill-opacity="1" stroke="#000000" stroke-opacity="1" stroke-width="3.2"/>
<circle clip-path="url(#clip132)" cx="1241.41" cy="1081.97" r="3.6" fill="#009af9" fill-rule="evenodd" fill-opacity="1" stroke="#000000" stroke-opacity="1" stroke-width="3.2"/>
<circle clip-path="url(#clip132)" cx="1291.93" cy="1127.19" r="3.6" fill="#009af9" fill-rule="evenodd" fill-opacity="1" stroke="#000000" stroke-opacity="1" stroke-width="3.2"/>
<circle clip-path="url(#clip132)" cx="1342.44" cy="1163.23" r="3.6" fill="#009af9" fill-rule="evenodd" fill-opacity="1" stroke="#000000" stroke-opacity="1" stroke-width="3.2"/>
<circle clip-path="url(#clip132)" cx="1392.96" cy="1191.26" r="3.6" fill="#009af9" fill-rule="evenodd" fill-opacity="1" stroke="#000000" stroke-opacity="1" stroke-width="3.2"/>
<circle clip-path="url(#clip132)" cx="1443.47" cy="1213.23" r="3.6" fill="#009af9" fill-rule="evenodd" fill-opacity="1" stroke="#000000" stroke-opacity="1" stroke-width="3.2"/>
<circle clip-path="url(#clip132)" cx="1493.99" cy="1229.91" r="3.6" fill="#009af9" fill-rule="evenodd" fill-opacity="1" stroke="#000000" stroke-opacity="1" stroke-width="3.2"/>
<circle clip-path="url(#clip132)" cx="1544.51" cy="1242.32" r="3.6" fill="#009af9" fill-rule="evenodd" fill-opacity="1" stroke="#000000" stroke-opacity="1" stroke-width="3.2"/>
<circle clip-path="url(#clip132)" cx="1595.02" cy="1251.53" r="3.6" fill="#009af9" fill-rule="evenodd" fill-opacity="1" stroke="#000000" stroke-opacity="1" stroke-width="3.2"/>
<circle clip-path="url(#clip132)" cx="1645.54" cy="1258.63" r="3.6" fill="#009af9" fill-rule="evenodd" fill-opacity="1" stroke="#000000" stroke-opacity="1" stroke-width="3.2"/>
<circle clip-path="url(#clip132)" cx="1696.05" cy="1263.58" r="3.6" fill="#009af9" fill-rule="evenodd" fill-opacity="1" stroke="#000000" stroke-opacity="1" stroke-width="3.2"/>
<circle clip-path="url(#clip132)" cx="1746.57" cy="1267.41" r="3.6" fill="#009af9" fill-rule="evenodd" fill-opacity="1" stroke="#000000" stroke-opacity="1" stroke-width="3.2"/>
<circle clip-path="url(#clip132)" cx="1797.08" cy="1269.98" r="3.6" fill="#009af9" fill-rule="evenodd" fill-opacity="1" stroke="#000000" stroke-opacity="1" stroke-width="3.2"/>
<circle clip-path="url(#clip132)" cx="1847.6" cy="1271.87" r="3.6" fill="#009af9" fill-rule="evenodd" fill-opacity="1" stroke="#000000" stroke-opacity="1" stroke-width="3.2"/>
<circle clip-path="url(#clip132)" cx="1898.11" cy="1273.3" r="3.6" fill="#009af9" fill-rule="evenodd" fill-opacity="1" stroke="#000000" stroke-opacity="1" stroke-width="3.2"/>
<circle clip-path="url(#clip132)" cx="1948.63" cy="1274.42" r="3.6" fill="#009af9" fill-rule="evenodd" fill-opacity="1" stroke="#000000" stroke-opacity="1" stroke-width="3.2"/>
<circle clip-path="url(#clip132)" cx="1999.15" cy="1275.22" r="3.6" fill="#009af9" fill-rule="evenodd" fill-opacity="1" stroke="#000000" stroke-opacity="1" stroke-width="3.2"/>
<circle clip-path="url(#clip132)" cx="2049.66" cy="1275.87" r="3.6" fill="#009af9" fill-rule="evenodd" fill-opacity="1" stroke="#000000" stroke-opacity="1" stroke-width="3.2"/>
<circle clip-path="url(#clip132)" cx="2100.18" cy="1276.39" r="3.6" fill="#009af9" fill-rule="evenodd" fill-opacity="1" stroke="#000000" stroke-opacity="1" stroke-width="3.2"/>
<circle clip-path="url(#clip132)" cx="2150.69" cy="1276.6" r="3.6" fill="#009af9" fill-rule="evenodd" fill-opacity="1" stroke="#000000" stroke-opacity="1" stroke-width="3.2"/>
<circle clip-path="url(#clip132)" cx="2201.21" cy="1277.04" r="3.6" fill="#009af9" fill-rule="evenodd" fill-opacity="1" stroke="#000000" stroke-opacity="1" stroke-width="3.2"/>
<circle clip-path="url(#clip132)" cx="2251.72" cy="1277.22" r="3.6" fill="#009af9" fill-rule="evenodd" fill-opacity="1" stroke="#000000" stroke-opacity="1" stroke-width="3.2"/>
<circle clip-path="url(#clip132)" cx="2302.24" cy="1277.66" r="3.6" fill="#009af9" fill-rule="evenodd" fill-opacity="1" stroke="#000000" stroke-opacity="1" stroke-width="3.2"/>
<circle clip-path="url(#clip132)" cx="2352.76" cy="1277.89" r="3.6" fill="#009af9" fill-rule="evenodd" fill-opacity="1" stroke="#000000" stroke-opacity="1" stroke-width="3.2"/>
<polyline clip-path="url(#clip132)" style="stroke:#e26f46; stroke-linecap:round; stroke-linejoin:round; stroke-width:8; stroke-opacity:1; fill:none" points="382.644,189.388 433.16,193.729 483.676,202.974 534.191,214.333 584.707,228.508 635.223,246.211 685.738,268.627 736.254,296.628 786.77,332.932 837.285,379.214 887.801,437.115 938.317,507.757 988.833,589.748 1039.35,679.089 1089.86,771.508 1140.38,860.616 1190.9,942.804 1241.41,1015.17 1291.93,1077.57 1342.44,1129.74 1392.96,1172.76 1443.47,1207.29 1493.99,1236.36 1544.51,1259.38 1595.02,1277.95 1645.54,1292.74 1696.05,1304.55 1746.57,1313.99 1797.08,1321.56 1847.6,1327.67 1898.11,1332.28 1948.63,1336.57 1999.15,1339.41 2049.66,1341.99 2100.18,1344.28 2150.69,1345.84 2201.21,1347.18 2251.72,1348.26 2302.24,1349.11 2352.76,1349.74 "/>
<circle clip-path="url(#clip132)" cx="382.644" cy="189.388" r="3.6" fill="#e26f46" fill-rule="evenodd" fill-opacity="1" stroke="#000000" stroke-opacity="1" stroke-width="3.2"/>
<circle clip-path="url(#clip132)" cx="433.16" cy="193.729" r="3.6" fill="#e26f46" fill-rule="evenodd" fill-opacity="1" stroke="#000000" stroke-opacity="1" stroke-width="3.2"/>
<circle clip-path="url(#clip132)" cx="483.676" cy="202.974" r="3.6" fill="#e26f46" fill-rule="evenodd" fill-opacity="1" stroke="#000000" stroke-opacity="1" stroke-width="3.2"/>
<circle clip-path="url(#clip132)" cx="534.191" cy="214.333" r="3.6" fill="#e26f46" fill-rule="evenodd" fill-opacity="1" stroke="#000000" stroke-opacity="1" stroke-width="3.2"/>
<circle clip-path="url(#clip132)" cx="584.707" cy="228.508" r="3.6" fill="#e26f46" fill-rule="evenodd" fill-opacity="1" stroke="#000000" stroke-opacity="1" stroke-width="3.2"/>
<circle clip-path="url(#clip132)" cx="635.223" cy="246.211" r="3.6" fill="#e26f46" fill-rule="evenodd" fill-opacity="1" stroke="#000000" stroke-opacity="1" stroke-width="3.2"/>
<circle clip-path="url(#clip132)" cx="685.738" cy="268.627" r="3.6" fill="#e26f46" fill-rule="evenodd" fill-opacity="1" stroke="#000000" stroke-opacity="1" stroke-width="3.2"/>
<circle clip-path="url(#clip132)" cx="736.254" cy="296.628" r="3.6" fill="#e26f46" fill-rule="evenodd" fill-opacity="1" stroke="#000000" stroke-opacity="1" stroke-width="3.2"/>
<circle clip-path="url(#clip132)" cx="786.77" cy="332.932" r="3.6" fill="#e26f46" fill-rule="evenodd" fill-opacity="1" stroke="#000000" stroke-opacity="1" stroke-width="3.2"/>
<circle clip-path="url(#clip132)" cx="837.285" cy="379.214" r="3.6" fill="#e26f46" fill-rule="evenodd" fill-opacity="1" stroke="#000000" stroke-opacity="1" stroke-width="3.2"/>
<circle clip-path="url(#clip132)" cx="887.801" cy="437.115" r="3.6" fill="#e26f46" fill-rule="evenodd" fill-opacity="1" stroke="#000000" stroke-opacity="1" stroke-width="3.2"/>
<circle clip-path="url(#clip132)" cx="938.317" cy="507.757" r="3.6" fill="#e26f46" fill-rule="evenodd" fill-opacity="1" stroke="#000000" stroke-opacity="1" stroke-width="3.2"/>
<circle clip-path="url(#clip132)" cx="988.833" cy="589.748" r="3.6" fill="#e26f46" fill-rule="evenodd" fill-opacity="1" stroke="#000000" stroke-opacity="1" stroke-width="3.2"/>
<circle clip-path="url(#clip132)" cx="1039.35" cy="679.089" r="3.6" fill="#e26f46" fill-rule="evenodd" fill-opacity="1" stroke="#000000" stroke-opacity="1" stroke-width="3.2"/>
<circle clip-path="url(#clip132)" cx="1089.86" cy="771.508" r="3.6" fill="#e26f46" fill-rule="evenodd" fill-opacity="1" stroke="#000000" stroke-opacity="1" stroke-width="3.2"/>
<circle clip-path="url(#clip132)" cx="1140.38" cy="860.616" r="3.6" fill="#e26f46" fill-rule="evenodd" fill-opacity="1" stroke="#000000" stroke-opacity="1" stroke-width="3.2"/>
<circle clip-path="url(#clip132)" cx="1190.9" cy="942.804" r="3.6" fill="#e26f46" fill-rule="evenodd" fill-opacity="1" stroke="#000000" stroke-opacity="1" stroke-width="3.2"/>
<circle clip-path="url(#clip132)" cx="1241.41" cy="1015.17" r="3.6" fill="#e26f46" fill-rule="evenodd" fill-opacity="1" stroke="#000000" stroke-opacity="1" stroke-width="3.2"/>
<circle clip-path="url(#clip132)" cx="1291.93" cy="1077.57" r="3.6" fill="#e26f46" fill-rule="evenodd" fill-opacity="1" stroke="#000000" stroke-opacity="1" stroke-width="3.2"/>
<circle clip-path="url(#clip132)" cx="1342.44" cy="1129.74" r="3.6" fill="#e26f46" fill-rule="evenodd" fill-opacity="1" stroke="#000000" stroke-opacity="1" stroke-width="3.2"/>
<circle clip-path="url(#clip132)" cx="1392.96" cy="1172.76" r="3.6" fill="#e26f46" fill-rule="evenodd" fill-opacity="1" stroke="#000000" stroke-opacity="1" stroke-width="3.2"/>
<circle clip-path="url(#clip132)" cx="1443.47" cy="1207.29" r="3.6" fill="#e26f46" fill-rule="evenodd" fill-opacity="1" stroke="#000000" stroke-opacity="1" stroke-width="3.2"/>
<circle clip-path="url(#clip132)" cx="1493.99" cy="1236.36" r="3.6" fill="#e26f46" fill-rule="evenodd" fill-opacity="1" stroke="#000000" stroke-opacity="1" stroke-width="3.2"/>
<circle clip-path="url(#clip132)" cx="1544.51" cy="1259.38" r="3.6" fill="#e26f46" fill-rule="evenodd" fill-opacity="1" stroke="#000000" stroke-opacity="1" stroke-width="3.2"/>
<circle clip-path="url(#clip132)" cx="1595.02" cy="1277.95" r="3.6" fill="#e26f46" fill-rule="evenodd" fill-opacity="1" stroke="#000000" stroke-opacity="1" stroke-width="3.2"/>
<circle clip-path="url(#clip132)" cx="1645.54" cy="1292.74" r="3.6" fill="#e26f46" fill-rule="evenodd" fill-opacity="1" stroke="#000000" stroke-opacity="1" stroke-width="3.2"/>
<circle clip-path="url(#clip132)" cx="1696.05" cy="1304.55" r="3.6" fill="#e26f46" fill-rule="evenodd" fill-opacity="1" stroke="#000000" stroke-opacity="1" stroke-width="3.2"/>
<circle clip-path="url(#clip132)" cx="1746.57" cy="1313.99" r="3.6" fill="#e26f46" fill-rule="evenodd" fill-opacity="1" stroke="#000000" stroke-opacity="1" stroke-width="3.2"/>
<circle clip-path="url(#clip132)" cx="1797.08" cy="1321.56" r="3.6" fill="#e26f46" fill-rule="evenodd" fill-opacity="1" stroke="#000000" stroke-opacity="1" stroke-width="3.2"/>
<circle clip-path="url(#clip132)" cx="1847.6" cy="1327.67" r="3.6" fill="#e26f46" fill-rule="evenodd" fill-opacity="1" stroke="#000000" stroke-opacity="1" stroke-width="3.2"/>
<circle clip-path="url(#clip132)" cx="1898.11" cy="1332.28" r="3.6" fill="#e26f46" fill-rule="evenodd" fill-opacity="1" stroke="#000000" stroke-opacity="1" stroke-width="3.2"/>
<circle clip-path="url(#clip132)" cx="1948.63" cy="1336.57" r="3.6" fill="#e26f46" fill-rule="evenodd" fill-opacity="1" stroke="#000000" stroke-opacity="1" stroke-width="3.2"/>
<circle clip-path="url(#clip132)" cx="1999.15" cy="1339.41" r="3.6" fill="#e26f46" fill-rule="evenodd" fill-opacity="1" stroke="#000000" stroke-opacity="1" stroke-width="3.2"/>
<circle clip-path="url(#clip132)" cx="2049.66" cy="1341.99" r="3.6" fill="#e26f46" fill-rule="evenodd" fill-opacity="1" stroke="#000000" stroke-opacity="1" stroke-width="3.2"/>
<circle clip-path="url(#clip132)" cx="2100.18" cy="1344.28" r="3.6" fill="#e26f46" fill-rule="evenodd" fill-opacity="1" stroke="#000000" stroke-opacity="1" stroke-width="3.2"/>
<circle clip-path="url(#clip132)" cx="2150.69" cy="1345.84" r="3.6" fill="#e26f46" fill-rule="evenodd" fill-opacity="1" stroke="#000000" stroke-opacity="1" stroke-width="3.2"/>
<circle clip-path="url(#clip132)" cx="2201.21" cy="1347.18" r="3.6" fill="#e26f46" fill-rule="evenodd" fill-opacity="1" stroke="#000000" stroke-opacity="1" stroke-width="3.2"/>
<circle clip-path="url(#clip132)" cx="2251.72" cy="1348.26" r="3.6" fill="#e26f46" fill-rule="evenodd" fill-opacity="1" stroke="#000000" stroke-opacity="1" stroke-width="3.2"/>
<circle clip-path="url(#clip132)" cx="2302.24" cy="1349.11" r="3.6" fill="#e26f46" fill-rule="evenodd" fill-opacity="1" stroke="#000000" stroke-opacity="1" stroke-width="3.2"/>
<circle clip-path="url(#clip132)" cx="2352.76" cy="1349.74" r="3.6" fill="#e26f46" fill-rule="evenodd" fill-opacity="1" stroke="#000000" stroke-opacity="1" stroke-width="3.2"/>
<path clip-path="url(#clip130)" d="M1631.26 440.581 L2287.09 440.581 L2287.09 90.6606 L1631.26 90.6606  Z" fill="#ffffff" fill-rule="evenodd" fill-opacity="1"/>
<polyline clip-path="url(#clip130)" style="stroke:#000000; stroke-linecap:round; stroke-linejoin:round; stroke-width:4; stroke-opacity:1; fill:none" points="1631.26,440.581 2287.09,440.581 2287.09,90.6606 1631.26,90.6606 1631.26,440.581 "/>
<polyline clip-path="url(#clip130)" style="stroke:#009af9; stroke-linecap:round; stroke-linejoin:round; stroke-width:18; stroke-opacity:1; fill:none" points="1653.15,207.301 1784.49,207.301 "/>
<circle clip-path="url(#clip130)" cx="1718.82" cy="207.301" r="8.10746" fill="#009af9" fill-rule="evenodd" fill-opacity="1" stroke="#000000" stroke-opacity="1" stroke-width="7.20663"/>
<path clip-path="url(#clip130)" d="M1832.48 237.641 L1833.86 246.075 Q1829.82 246.923 1826.64 246.923 Q1821.44 246.923 1818.58 245.279 Q1815.72 243.635 1814.55 240.982 Q1813.38 238.277 1813.38 229.684 L1813.38 197.276 L1806.38 197.276 L1806.38 189.85 L1813.38 189.85 L1813.38 175.9 L1822.88 170.171 L1822.88 189.85 L1832.48 189.85 L1832.48 197.276 L1822.88 197.276 L1822.88 230.215 Q1822.88 234.299 1823.35 235.466 Q1823.88 236.633 1825 237.323 Q1826.16 238.012 1828.29 238.012 Q1829.88 238.012 1832.48 237.641 Z" fill="#000000" fill-rule="nonzero" fill-opacity="1" /><path clip-path="url(#clip130)" d="M1841.71 246.181 L1841.71 189.85 L1850.3 189.85 L1850.3 198.39 Q1853.59 192.396 1856.35 190.486 Q1859.16 188.577 1862.5 188.577 Q1867.33 188.577 1872.31 191.653 L1869.02 200.511 Q1865.52 198.443 1862.02 198.443 Q1858.89 198.443 1856.4 200.352 Q1853.91 202.209 1852.84 205.55 Q1851.25 210.642 1851.25 216.689 L1851.25 246.181 L1841.71 246.181 Z" fill="#000000" fill-rule="nonzero" fill-opacity="1" /><path clip-path="url(#clip130)" d="M1914.74 239.232 Q1909.44 243.741 1904.51 245.597 Q1899.63 247.454 1894.01 247.454 Q1884.72 247.454 1879.74 242.945 Q1874.75 238.383 1874.75 231.329 Q1874.75 227.191 1876.61 223.797 Q1878.52 220.349 1881.54 218.28 Q1884.62 216.212 1888.44 215.151 Q1891.25 214.408 1896.92 213.719 Q1908.49 212.34 1913.95 210.43 Q1914 208.468 1914 207.937 Q1914 202.102 1911.3 199.716 Q1907.64 196.48 1900.42 196.48 Q1893.69 196.48 1890.45 198.867 Q1887.27 201.201 1885.73 207.195 L1876.4 205.922 Q1877.67 199.928 1880.59 196.268 Q1883.5 192.555 1889.02 190.592 Q1894.54 188.577 1901.8 188.577 Q1909.02 188.577 1913.52 190.274 Q1918.03 191.971 1920.16 194.57 Q1922.28 197.116 1923.13 201.042 Q1923.6 203.482 1923.6 209.847 L1923.6 222.577 Q1923.6 235.89 1924.19 239.444 Q1924.82 242.945 1926.63 246.181 L1916.65 246.181 Q1915.17 243.21 1914.74 239.232 M1913.95 217.909 Q1908.75 220.031 1898.35 221.516 Q1892.47 222.365 1890.03 223.425 Q1887.59 224.486 1886.26 226.555 Q1884.94 228.571 1884.94 231.064 Q1884.94 234.883 1887.8 237.429 Q1890.72 239.975 1896.29 239.975 Q1901.8 239.975 1906.1 237.588 Q1910.4 235.148 1912.41 230.957 Q1913.95 227.722 1913.95 221.41 L1913.95 217.909 Z" fill="#000000" fill-rule="nonzero" fill-opacity="1" /><path clip-path="url(#clip130)" d="M1938.45 179.4 L1938.45 168.421 L1948 168.421 L1948 179.4 L1938.45 179.4 M1938.45 246.181 L1938.45 189.85 L1948 189.85 L1948 246.181 L1938.45 246.181 Z" fill="#000000" fill-rule="nonzero" fill-opacity="1" /><path clip-path="url(#clip130)" d="M1962.54 246.181 L1962.54 189.85 L1971.13 189.85 L1971.13 197.859 Q1977.33 188.577 1989.06 188.577 Q1994.15 188.577 1998.39 190.433 Q2002.69 192.237 2004.81 195.207 Q2006.93 198.177 2007.78 202.262 Q2008.31 204.914 2008.31 211.544 L2008.31 246.181 L1998.76 246.181 L1998.76 211.915 Q1998.76 206.081 1997.65 203.216 Q1996.54 200.299 1993.67 198.602 Q1990.86 196.851 1987.04 196.851 Q1980.94 196.851 1976.49 200.723 Q1972.08 204.595 1972.08 215.416 L1972.08 246.181 L1962.54 246.181 Z" fill="#000000" fill-rule="nonzero" fill-opacity="1" /><path clip-path="url(#clip130)" d="M2014.15 267.769 L2014.15 260.873 L2077.43 260.873 L2077.43 267.769 L2014.15 267.769 Z" fill="#000000" fill-rule="nonzero" fill-opacity="1" /><path clip-path="url(#clip130)" d="M2083.15 246.181 L2083.15 168.421 L2092.7 168.421 L2092.7 246.181 L2083.15 246.181 Z" fill="#000000" fill-rule="nonzero" fill-opacity="1" /><path clip-path="url(#clip130)" d="M2103.95 218.015 Q2103.95 202.368 2112.65 194.836 Q2119.91 188.577 2130.36 188.577 Q2141.98 188.577 2149.35 196.215 Q2156.72 203.8 2156.72 217.22 Q2156.72 228.093 2153.44 234.352 Q2150.2 240.558 2143.94 244.006 Q2137.73 247.454 2130.36 247.454 Q2118.53 247.454 2111.21 239.869 Q2103.95 232.284 2103.95 218.015 M2113.76 218.015 Q2113.76 228.836 2118.48 234.246 Q2123.2 239.603 2130.36 239.603 Q2137.47 239.603 2142.19 234.193 Q2146.91 228.783 2146.91 217.697 Q2146.91 207.248 2142.14 201.89 Q2137.42 196.48 2130.36 196.48 Q2123.2 196.48 2118.48 201.837 Q2113.76 207.195 2113.76 218.015 Z" fill="#000000" fill-rule="nonzero" fill-opacity="1" /><path clip-path="url(#clip130)" d="M2164.1 229.366 L2173.54 227.881 Q2174.33 233.557 2177.94 236.58 Q2181.6 239.603 2188.12 239.603 Q2194.7 239.603 2197.88 236.951 Q2201.07 234.246 2201.07 230.639 Q2201.07 227.404 2198.26 225.547 Q2196.29 224.274 2188.5 222.312 Q2177.99 219.659 2173.91 217.75 Q2169.88 215.787 2167.76 212.393 Q2165.69 208.945 2165.69 204.808 Q2165.69 201.042 2167.39 197.859 Q2169.14 194.624 2172.11 192.502 Q2174.33 190.858 2178.15 189.744 Q2182.03 188.577 2186.43 188.577 Q2193.06 188.577 2198.04 190.486 Q2203.08 192.396 2205.47 195.684 Q2207.86 198.92 2208.76 204.383 L2199.42 205.656 Q2198.79 201.307 2195.71 198.867 Q2192.69 196.427 2187.12 196.427 Q2180.54 196.427 2177.73 198.602 Q2174.92 200.776 2174.92 203.694 Q2174.92 205.55 2176.08 207.035 Q2177.25 208.574 2179.74 209.581 Q2181.18 210.112 2188.18 212.021 Q2198.31 214.727 2202.29 216.477 Q2206.32 218.174 2208.6 221.463 Q2210.88 224.752 2210.88 229.631 Q2210.88 234.405 2208.07 238.649 Q2205.31 242.839 2200.06 245.173 Q2194.81 247.454 2188.18 247.454 Q2177.2 247.454 2171.42 242.892 Q2165.69 238.33 2164.1 229.366 Z" fill="#000000" fill-rule="nonzero" fill-opacity="1" /><path clip-path="url(#clip130)" d="M2218.41 229.366 L2227.85 227.881 Q2228.65 233.557 2232.26 236.58 Q2235.92 239.603 2242.44 239.603 Q2249.02 239.603 2252.2 236.951 Q2255.38 234.246 2255.38 230.639 Q2255.38 227.404 2252.57 225.547 Q2250.61 224.274 2242.81 222.312 Q2232.31 219.659 2228.22 217.75 Q2224.19 215.787 2222.07 212.393 Q2220 208.945 2220 204.808 Q2220 201.042 2221.7 197.859 Q2223.45 194.624 2226.42 192.502 Q2228.65 190.858 2232.47 189.744 Q2236.34 188.577 2240.74 188.577 Q2247.37 188.577 2252.36 190.486 Q2257.4 192.396 2259.79 195.684 Q2262.17 198.92 2263.07 204.383 L2253.74 205.656 Q2253.1 201.307 2250.03 198.867 Q2247 196.427 2241.43 196.427 Q2234.86 196.427 2232.04 198.602 Q2229.23 200.776 2229.23 203.694 Q2229.23 205.55 2230.4 207.035 Q2231.57 208.574 2234.06 209.581 Q2235.49 210.112 2242.49 212.021 Q2252.62 214.727 2256.6 216.477 Q2260.63 218.174 2262.91 221.463 Q2265.2 224.752 2265.2 229.631 Q2265.2 234.405 2262.38 238.649 Q2259.63 242.839 2254.37 245.173 Q2249.12 247.454 2242.49 247.454 Q2231.51 247.454 2225.73 242.892 Q2220 238.33 2218.41 229.366 Z" fill="#000000" fill-rule="nonzero" fill-opacity="1" /><polyline clip-path="url(#clip130)" style="stroke:#e26f46; stroke-linecap:round; stroke-linejoin:round; stroke-width:18; stroke-opacity:1; fill:none" points="1653.15,323.941 1784.49,323.941 "/>
<circle clip-path="url(#clip130)" cx="1718.82" cy="323.941" r="8.10746" fill="#e26f46" fill-rule="evenodd" fill-opacity="1" stroke="#000000" stroke-opacity="1" stroke-width="7.20663"/>
<path clip-path="url(#clip130)" d="M1827.81 362.821 L1806.38 306.49 L1816.46 306.49 L1828.55 340.225 Q1830.51 345.688 1832.16 351.576 Q1833.43 347.12 1835.71 340.861 L1848.23 306.49 L1858.04 306.49 L1836.72 362.821 L1827.81 362.821 Z" fill="#000000" fill-rule="nonzero" fill-opacity="1" /><path clip-path="url(#clip130)" d="M1903.23 355.872 Q1897.93 360.381 1893 362.237 Q1888.12 364.094 1882.5 364.094 Q1873.21 364.094 1868.23 359.585 Q1863.24 355.023 1863.24 347.969 Q1863.24 343.831 1865.1 340.437 Q1867.01 336.989 1870.03 334.92 Q1873.11 332.852 1876.93 331.791 Q1879.74 331.048 1885.41 330.359 Q1896.98 328.98 1902.44 327.07 Q1902.49 325.108 1902.49 324.577 Q1902.49 318.742 1899.79 316.356 Q1896.13 313.12 1888.91 313.12 Q1882.18 313.12 1878.94 315.507 Q1875.76 317.841 1874.22 323.835 L1864.89 322.562 Q1866.16 316.568 1869.08 312.908 Q1871.99 309.195 1877.51 307.232 Q1883.03 305.217 1890.29 305.217 Q1897.51 305.217 1902.01 306.914 Q1906.52 308.611 1908.65 311.21 Q1910.77 313.756 1911.62 317.682 Q1912.09 320.122 1912.09 326.487 L1912.09 339.217 Q1912.09 352.53 1912.68 356.084 Q1913.31 359.585 1915.12 362.821 L1905.14 362.821 Q1903.66 359.85 1903.23 355.872 M1902.44 334.549 Q1897.24 336.671 1886.84 338.156 Q1880.96 339.005 1878.52 340.065 Q1876.08 341.126 1874.75 343.195 Q1873.43 345.211 1873.43 347.704 Q1873.43 351.523 1876.29 354.069 Q1879.21 356.615 1884.78 356.615 Q1890.29 356.615 1894.59 354.228 Q1898.89 351.788 1900.9 347.597 Q1902.44 344.362 1902.44 338.05 L1902.44 334.549 Z" fill="#000000" fill-rule="nonzero" fill-opacity="1" /><path clip-path="url(#clip130)" d="M1926.68 362.821 L1926.68 285.061 L1936.23 285.061 L1936.23 362.821 L1926.68 362.821 Z" fill="#000000" fill-rule="nonzero" fill-opacity="1" /><path clip-path="url(#clip130)" d="M1942.22 384.409 L1942.22 377.513 L2005.5 377.513 L2005.5 384.409 L1942.22 384.409 Z" fill="#000000" fill-rule="nonzero" fill-opacity="1" /><path clip-path="url(#clip130)" d="M2011.23 362.821 L2011.23 285.061 L2020.78 285.061 L2020.78 362.821 L2011.23 362.821 Z" fill="#000000" fill-rule="nonzero" fill-opacity="1" /><path clip-path="url(#clip130)" d="M2032.02 334.655 Q2032.02 319.008 2040.72 311.476 Q2047.99 305.217 2058.44 305.217 Q2070.05 305.217 2077.43 312.855 Q2084.8 320.44 2084.8 333.86 Q2084.8 344.733 2081.51 350.992 Q2078.27 357.198 2072.02 360.646 Q2065.81 364.094 2058.44 364.094 Q2046.61 364.094 2039.29 356.509 Q2032.02 348.924 2032.02 334.655 M2041.83 334.655 Q2041.83 345.476 2046.56 350.886 Q2051.28 356.243 2058.44 356.243 Q2065.54 356.243 2070.26 350.833 Q2074.99 345.423 2074.99 334.337 Q2074.99 323.888 2070.21 318.53 Q2065.49 313.12 2058.44 313.12 Q2051.28 313.12 2046.56 318.477 Q2041.83 323.835 2041.83 334.655 Z" fill="#000000" fill-rule="nonzero" fill-opacity="1" /><path clip-path="url(#clip130)" d="M2092.17 346.006 L2101.61 344.521 Q2102.41 350.197 2106.02 353.22 Q2109.68 356.243 2116.2 356.243 Q2122.78 356.243 2125.96 353.591 Q2129.14 350.886 2129.14 347.279 Q2129.14 344.044 2126.33 342.187 Q2124.37 340.914 2116.57 338.952 Q2106.07 336.299 2101.98 334.39 Q2097.95 332.427 2095.83 329.033 Q2093.76 325.585 2093.76 321.448 Q2093.76 317.682 2095.46 314.499 Q2097.21 311.264 2100.18 309.142 Q2102.41 307.498 2106.23 306.384 Q2110.1 305.217 2114.5 305.217 Q2121.13 305.217 2126.12 307.126 Q2131.16 309.036 2133.54 312.324 Q2135.93 315.56 2136.83 321.023 L2127.5 322.296 Q2126.86 317.947 2123.78 315.507 Q2120.76 313.067 2115.19 313.067 Q2108.61 313.067 2105.8 315.242 Q2102.99 317.416 2102.99 320.334 Q2102.99 322.19 2104.16 323.675 Q2105.33 325.214 2107.82 326.221 Q2109.25 326.752 2116.25 328.661 Q2126.38 331.367 2130.36 333.117 Q2134.39 334.814 2136.67 338.103 Q2138.95 341.392 2138.95 346.271 Q2138.95 351.045 2136.14 355.289 Q2133.39 359.479 2128.13 361.813 Q2122.88 364.094 2116.25 364.094 Q2105.27 364.094 2099.49 359.532 Q2093.76 354.97 2092.17 346.006 Z" fill="#000000" fill-rule="nonzero" fill-opacity="1" /><path clip-path="url(#clip130)" d="M2146.49 346.006 L2155.93 344.521 Q2156.72 350.197 2160.33 353.22 Q2163.99 356.243 2170.51 356.243 Q2177.09 356.243 2180.27 353.591 Q2183.46 350.886 2183.46 347.279 Q2183.46 344.044 2180.65 342.187 Q2178.68 340.914 2170.89 338.952 Q2160.38 336.299 2156.3 334.39 Q2152.27 332.427 2150.15 329.033 Q2148.08 325.585 2148.08 321.448 Q2148.08 317.682 2149.78 314.499 Q2151.53 311.264 2154.5 309.142 Q2156.72 307.498 2160.54 306.384 Q2164.42 305.217 2168.82 305.217 Q2175.45 305.217 2180.43 307.126 Q2185.47 309.036 2187.86 312.324 Q2190.25 315.56 2191.15 321.023 L2181.81 322.296 Q2181.18 317.947 2178.1 315.507 Q2175.08 313.067 2169.51 313.067 Q2162.93 313.067 2160.12 315.242 Q2157.31 317.416 2157.31 320.334 Q2157.31 322.19 2158.47 323.675 Q2159.64 325.214 2162.13 326.221 Q2163.57 326.752 2170.57 328.661 Q2180.7 331.367 2184.68 333.117 Q2188.71 334.814 2190.99 338.103 Q2193.27 341.392 2193.27 346.271 Q2193.27 351.045 2190.46 355.289 Q2187.7 359.479 2182.45 361.813 Q2177.2 364.094 2170.57 364.094 Q2159.59 364.094 2153.81 359.532 Q2148.08 354.97 2146.49 346.006 Z" fill="#000000" fill-rule="nonzero" fill-opacity="1" /></svg>
