<?xml version="1.0" encoding="utf-8"?>
<svg xmlns="http://www.w3.org/2000/svg" xmlns:xlink="http://www.w3.org/1999/xlink" width="600" height="400" viewBox="0 0 2400 1600">
<defs>
  <clipPath id="clip600">
    <rect x="0" y="0" width="2400" height="1600"/>
  </clipPath>
</defs>
<path clip-path="url(#clip600)" d="M0 1600 L2400 1600 L2400 8.88178e-14 L0 8.88178e-14  Z" fill="#ffffff" fill-rule="evenodd" fill-opacity="1"/>
<defs>
  <clipPath id="clip601">
    <rect x="480" y="0" width="1681" height="1600"/>
  </clipPath>
</defs>
<defs>
  <clipPath id="clip602">
    <rect x="47" y="47" width="2307" height="1507"/>
  </clipPath>
</defs>
<path clip-path="url(#clip602)" d="M1077.56 907.937 L1077.56 677.728 L1211.52 562.623 L1443.55 629.079 L1443.55 859.288 L1309.59 974.392 L1077.56 907.937  Z" fill="#ffffff" fill-rule="evenodd" fill-opacity="1"/>
<polyline clip-path="url(#clip600)" style="stroke:#000000; stroke-linecap:round; stroke-linejoin:round; stroke-width:4; stroke-opacity:1; fill:none" points="606.32,1255.92 1359.08,1473.22 "/>
<polyline clip-path="url(#clip600)" style="stroke:#000000; stroke-linecap:round; stroke-linejoin:round; stroke-width:2; stroke-opacity:0.5; fill:none" points="1040.92,126.782 1793.68,344.084 "/>
<polyline clip-path="url(#clip600)" style="stroke:#000000; stroke-linecap:round; stroke-linejoin:round; stroke-width:4; stroke-opacity:1; fill:none" points="1359.08,1473.22 1793.68,1096.84 "/>
<polyline clip-path="url(#clip600)" style="stroke:#000000; stroke-linecap:round; stroke-linejoin:round; stroke-width:2; stroke-opacity:0.5; fill:none" points="606.32,503.16 1040.92,126.782 "/>
<polyline clip-path="url(#clip600)" style="stroke:#000000; stroke-linecap:round; stroke-linejoin:round; stroke-width:4; stroke-opacity:1; fill:none" points="606.32,1255.92 606.32,503.16 "/>
<polyline clip-path="url(#clip600)" style="stroke:#000000; stroke-linecap:round; stroke-linejoin:round; stroke-width:2; stroke-opacity:0.5; fill:none" points="1793.68,1096.84 1793.68,344.084 "/>
<path clip-path="url(#clip602)" d="M1071.17 761.439 L1071.17 793.439 L1103.17 793.439 L1103.17 761.439 L1071.17 761.439 Z" fill="#009af9" fill-rule="evenodd" fill-opacity="1" stroke="#000000" stroke-opacity="1" stroke-width="3.2"/>
<circle clip-path="url(#clip602)" cx="1188.33" cy="838.57" r="14.4" fill="#009af9" fill-rule="evenodd" fill-opacity="1" stroke="#000000" stroke-opacity="1" stroke-width="3.2"/>
<circle clip-path="url(#clip602)" cx="1063.55" cy="763.35" r="14.4" fill="#009af9" fill-rule="evenodd" fill-opacity="1" stroke="#000000" stroke-opacity="1" stroke-width="3.2"/>
<circle clip-path="url(#clip602)" cx="1185.07" cy="823.377" r="14.4" fill="#009af9" fill-rule="evenodd" fill-opacity="1" stroke="#000000" stroke-opacity="1" stroke-width="3.2"/>
<path clip-path="url(#clip602)" d="M1161.72 778.52 L1161.72 810.52 L1193.72 810.52 L1193.72 778.52 L1161.72 778.52 Z" fill="#009af9" fill-rule="evenodd" fill-opacity="1" stroke="#000000" stroke-opacity="1" stroke-width="3.2"/>
<circle clip-path="url(#clip602)" cx="1161.31" cy="830.839" r="14.4" fill="#009af9" fill-rule="evenodd" fill-opacity="1" stroke="#000000" stroke-opacity="1" stroke-width="3.2"/>
<circle clip-path="url(#clip602)" cx="1061.31" cy="761.836" r="14.4" fill="#009af9" fill-rule="evenodd" fill-opacity="1" stroke="#000000" stroke-opacity="1" stroke-width="3.2"/>
<path clip-path="url(#clip602)" d="M1052.8 753.415 L1052.8 785.415 L1084.8 785.415 L1084.8 753.415 L1052.8 753.415 Z" fill="#009af9" fill-rule="evenodd" fill-opacity="1" stroke="#000000" stroke-opacity="1" stroke-width="3.2"/>
<circle clip-path="url(#clip602)" cx="1207.83" cy="829.557" r="14.4" fill="#009af9" fill-rule="evenodd" fill-opacity="1" stroke="#000000" stroke-opacity="1" stroke-width="3.2"/>
<circle clip-path="url(#clip602)" cx="1069.43" cy="767.453" r="14.4" fill="#009af9" fill-rule="evenodd" fill-opacity="1" stroke="#000000" stroke-opacity="1" stroke-width="3.2"/>
<circle clip-path="url(#clip602)" cx="1166.51" cy="828.142" r="14.4" fill="#009af9" fill-rule="evenodd" fill-opacity="1" stroke="#000000" stroke-opacity="1" stroke-width="3.2"/>
<circle clip-path="url(#clip602)" cx="1086.03" cy="788.779" r="14.4" fill="#009af9" fill-rule="evenodd" fill-opacity="1" stroke="#000000" stroke-opacity="1" stroke-width="3.2"/>
<circle clip-path="url(#clip602)" cx="1113.4" cy="807.301" r="14.4" fill="#009af9" fill-rule="evenodd" fill-opacity="1" stroke="#000000" stroke-opacity="1" stroke-width="3.2"/>
<circle clip-path="url(#clip602)" cx="1064.73" cy="769.1" r="14.4" fill="#009af9" fill-rule="evenodd" fill-opacity="1" stroke="#000000" stroke-opacity="1" stroke-width="3.2"/>
<circle clip-path="url(#clip602)" cx="1112.52" cy="806.741" r="14.4" fill="#009af9" fill-rule="evenodd" fill-opacity="1" stroke="#000000" stroke-opacity="1" stroke-width="3.2"/>
<path clip-path="url(#clip602)" d="M1073.05 771.046 L1073.05 803.046 L1105.05 803.046 L1105.05 771.046 L1073.05 771.046 Z" fill="#009af9" fill-rule="evenodd" fill-opacity="1" stroke="#000000" stroke-opacity="1" stroke-width="3.2"/>
<circle clip-path="url(#clip602)" cx="1084.7" cy="787.442" r="14.4" fill="#009af9" fill-rule="evenodd" fill-opacity="1" stroke="#000000" stroke-opacity="1" stroke-width="3.2"/>
<circle clip-path="url(#clip602)" cx="1061.75" cy="753.849" r="14.4" fill="#009af9" fill-rule="evenodd" fill-opacity="1" stroke="#000000" stroke-opacity="1" stroke-width="3.2"/>
<circle clip-path="url(#clip602)" cx="1202.02" cy="840.216" r="14.4" fill="#009af9" fill-rule="evenodd" fill-opacity="1" stroke="#000000" stroke-opacity="1" stroke-width="3.2"/>
<circle clip-path="url(#clip602)" cx="1062.6" cy="766.578" r="14.4" fill="#009af9" fill-rule="evenodd" fill-opacity="1" stroke="#000000" stroke-opacity="1" stroke-width="3.2"/>
<circle clip-path="url(#clip602)" cx="1061.04" cy="752.156" r="14.4" fill="#009af9" fill-rule="evenodd" fill-opacity="1" stroke="#000000" stroke-opacity="1" stroke-width="3.2"/>
<path clip-path="url(#clip602)" d="M1066.33 765.004 L1066.33 797.004 L1098.33 797.004 L1098.33 765.004 L1066.33 765.004 Z" fill="#009af9" fill-rule="evenodd" fill-opacity="1" stroke="#000000" stroke-opacity="1" stroke-width="3.2"/>
<path clip-path="url(#clip602)" d="M1184.58 838.911 L1184.58 870.911 L1216.58 870.911 L1216.58 838.911 L1184.58 838.911 Z" fill="#009af9" fill-rule="evenodd" fill-opacity="1" stroke="#000000" stroke-opacity="1" stroke-width="3.2"/>
<circle clip-path="url(#clip602)" cx="1143.83" cy="819.049" r="14.4" fill="#009af9" fill-rule="evenodd" fill-opacity="1" stroke="#000000" stroke-opacity="1" stroke-width="3.2"/>
<circle clip-path="url(#clip602)" cx="1067.15" cy="762.67" r="14.4" fill="#009af9" fill-rule="evenodd" fill-opacity="1" stroke="#000000" stroke-opacity="1" stroke-width="3.2"/>
<circle clip-path="url(#clip602)" cx="1123.6" cy="813.931" r="14.4" fill="#009af9" fill-rule="evenodd" fill-opacity="1" stroke="#000000" stroke-opacity="1" stroke-width="3.2"/>
<path clip-path="url(#clip602)" d="M1114.95 803.885 L1114.95 835.885 L1146.95 835.885 L1146.95 803.885 L1114.95 803.885 Z" fill="#009af9" fill-rule="evenodd" fill-opacity="1" stroke="#000000" stroke-opacity="1" stroke-width="3.2"/>
<circle clip-path="url(#clip602)" cx="1089.49" cy="788.407" r="14.4" fill="#009af9" fill-rule="evenodd" fill-opacity="1" stroke="#000000" stroke-opacity="1" stroke-width="3.2"/>
<circle clip-path="url(#clip602)" cx="1131.09" cy="809.761" r="14.4" fill="#009af9" fill-rule="evenodd" fill-opacity="1" stroke="#000000" stroke-opacity="1" stroke-width="3.2"/>
<path clip-path="url(#clip602)" d="M1106.86 798.353 L1106.86 830.353 L1138.86 830.353 L1138.86 798.353 L1106.86 798.353 Z" fill="#009af9" fill-rule="evenodd" fill-opacity="1" stroke="#000000" stroke-opacity="1" stroke-width="3.2"/>
<circle clip-path="url(#clip602)" cx="1078.48" cy="782.305" r="14.4" fill="#009af9" fill-rule="evenodd" fill-opacity="1" stroke="#000000" stroke-opacity="1" stroke-width="3.2"/>
<circle clip-path="url(#clip602)" cx="1072.66" cy="773.953" r="14.4" fill="#009af9" fill-rule="evenodd" fill-opacity="1" stroke="#000000" stroke-opacity="1" stroke-width="3.2"/>
<circle clip-path="url(#clip602)" cx="1065.96" cy="761.545" r="14.4" fill="#009af9" fill-rule="evenodd" fill-opacity="1" stroke="#000000" stroke-opacity="1" stroke-width="3.2"/>
<circle clip-path="url(#clip602)" cx="1103.26" cy="798.405" r="14.4" fill="#009af9" fill-rule="evenodd" fill-opacity="1" stroke="#000000" stroke-opacity="1" stroke-width="3.2"/>
<circle clip-path="url(#clip602)" cx="1071.29" cy="770.389" r="14.4" fill="#009af9" fill-rule="evenodd" fill-opacity="1" stroke="#000000" stroke-opacity="1" stroke-width="3.2"/>
<circle clip-path="url(#clip602)" cx="1094.71" cy="793.784" r="14.4" fill="#009af9" fill-rule="evenodd" fill-opacity="1" stroke="#000000" stroke-opacity="1" stroke-width="3.2"/>
<circle clip-path="url(#clip602)" cx="1067.95" cy="765.858" r="14.4" fill="#009af9" fill-rule="evenodd" fill-opacity="1" stroke="#000000" stroke-opacity="1" stroke-width="3.2"/>
<path clip-path="url(#clip602)" d="M1149.09 823.333 L1149.09 855.333 L1181.09 855.333 L1181.09 823.333 L1149.09 823.333 Z" fill="#009af9" fill-rule="evenodd" fill-opacity="1" stroke="#000000" stroke-opacity="1" stroke-width="3.2"/>
<circle clip-path="url(#clip602)" cx="1063.78" cy="765.171" r="14.4" fill="#009af9" fill-rule="evenodd" fill-opacity="1" stroke="#000000" stroke-opacity="1" stroke-width="3.2"/>
<circle clip-path="url(#clip602)" cx="1217.31" cy="825.547" r="14.4" fill="#009af9" fill-rule="evenodd" fill-opacity="1" stroke="#000000" stroke-opacity="1" stroke-width="3.2"/>
<circle clip-path="url(#clip602)" cx="1090.26" cy="792.009" r="14.4" fill="#009af9" fill-rule="evenodd" fill-opacity="1" stroke="#000000" stroke-opacity="1" stroke-width="3.2"/>
<circle clip-path="url(#clip602)" cx="1067.52" cy="763.366" r="14.4" fill="#009af9" fill-rule="evenodd" fill-opacity="1" stroke="#000000" stroke-opacity="1" stroke-width="3.2"/>
<circle clip-path="url(#clip602)" cx="1129.86" cy="816.028" r="14.4" fill="#009af9" fill-rule="evenodd" fill-opacity="1" stroke="#000000" stroke-opacity="1" stroke-width="3.2"/>
<circle clip-path="url(#clip602)" cx="1090.46" cy="792.279" r="14.4" fill="#009af9" fill-rule="evenodd" fill-opacity="1" stroke="#000000" stroke-opacity="1" stroke-width="3.2"/>
<circle clip-path="url(#clip602)" cx="1059.2" cy="746.79" r="14.4" fill="#009af9" fill-rule="evenodd" fill-opacity="1" stroke="#000000" stroke-opacity="1" stroke-width="3.2"/>
<circle clip-path="url(#clip602)" cx="1165.22" cy="832.137" r="14.4" fill="#009af9" fill-rule="evenodd" fill-opacity="1" stroke="#000000" stroke-opacity="1" stroke-width="3.2"/>
<circle clip-path="url(#clip602)" cx="1063.23" cy="759.468" r="14.4" fill="#009af9" fill-rule="evenodd" fill-opacity="1" stroke="#000000" stroke-opacity="1" stroke-width="3.2"/>
<circle clip-path="url(#clip602)" cx="1092.54" cy="793.528" r="14.4" fill="#009af9" fill-rule="evenodd" fill-opacity="1" stroke="#000000" stroke-opacity="1" stroke-width="3.2"/>
<circle clip-path="url(#clip602)" cx="1217.48" cy="832.966" r="14.4" fill="#009af9" fill-rule="evenodd" fill-opacity="1" stroke="#000000" stroke-opacity="1" stroke-width="3.2"/>
<circle clip-path="url(#clip602)" cx="1072.17" cy="771.458" r="14.4" fill="#009af9" fill-rule="evenodd" fill-opacity="1" stroke="#000000" stroke-opacity="1" stroke-width="3.2"/>
<circle clip-path="url(#clip602)" cx="1109.6" cy="802.442" r="14.4" fill="#009af9" fill-rule="evenodd" fill-opacity="1" stroke="#000000" stroke-opacity="1" stroke-width="3.2"/>
<path clip-path="url(#clip602)" d="M1178.2 835.499 L1178.2 867.499 L1210.2 867.499 L1210.2 835.499 L1178.2 835.499 Z" fill="#009af9" fill-rule="evenodd" fill-opacity="1" stroke="#000000" stroke-opacity="1" stroke-width="3.2"/>
<circle clip-path="url(#clip602)" cx="1170.87" cy="829.128" r="14.4" fill="#009af9" fill-rule="evenodd" fill-opacity="1" stroke="#000000" stroke-opacity="1" stroke-width="3.2"/>
<circle clip-path="url(#clip602)" cx="1067.26" cy="771.322" r="14.4" fill="#009af9" fill-rule="evenodd" fill-opacity="1" stroke="#000000" stroke-opacity="1" stroke-width="3.2"/>
<circle clip-path="url(#clip602)" cx="1072.42" cy="777.777" r="14.4" fill="#009af9" fill-rule="evenodd" fill-opacity="1" stroke="#000000" stroke-opacity="1" stroke-width="3.2"/>
<circle clip-path="url(#clip602)" cx="1152.64" cy="826.293" r="14.4" fill="#009af9" fill-rule="evenodd" fill-opacity="1" stroke="#000000" stroke-opacity="1" stroke-width="3.2"/>
<circle clip-path="url(#clip602)" cx="1087.15" cy="789.654" r="14.4" fill="#009af9" fill-rule="evenodd" fill-opacity="1" stroke="#000000" stroke-opacity="1" stroke-width="3.2"/>
<circle clip-path="url(#clip602)" cx="1184.77" cy="834.655" r="14.4" fill="#009af9" fill-rule="evenodd" fill-opacity="1" stroke="#000000" stroke-opacity="1" stroke-width="3.2"/>
<circle clip-path="url(#clip602)" cx="1124.39" cy="807.614" r="14.4" fill="#009af9" fill-rule="evenodd" fill-opacity="1" stroke="#000000" stroke-opacity="1" stroke-width="3.2"/>
<circle clip-path="url(#clip602)" cx="1171.27" cy="827.816" r="14.4" fill="#009af9" fill-rule="evenodd" fill-opacity="1" stroke="#000000" stroke-opacity="1" stroke-width="3.2"/>
<circle clip-path="url(#clip602)" cx="1059.2" cy="747.604" r="14.4" fill="#009af9" fill-rule="evenodd" fill-opacity="1" stroke="#000000" stroke-opacity="1" stroke-width="3.2"/>
<circle clip-path="url(#clip602)" cx="1073.25" cy="770.976" r="14.4" fill="#009af9" fill-rule="evenodd" fill-opacity="1" stroke="#000000" stroke-opacity="1" stroke-width="3.2"/>
<path clip-path="url(#clip602)" d="M1060.5 763.591 L1060.5 795.591 L1092.5 795.591 L1092.5 763.591 L1060.5 763.591 Z" fill="#009af9" fill-rule="evenodd" fill-opacity="1" stroke="#000000" stroke-opacity="1" stroke-width="3.2"/>
<circle clip-path="url(#clip602)" cx="1076.44" cy="775.407" r="14.4" fill="#009af9" fill-rule="evenodd" fill-opacity="1" stroke="#000000" stroke-opacity="1" stroke-width="3.2"/>
<circle clip-path="url(#clip602)" cx="1081.12" cy="781.178" r="14.4" fill="#009af9" fill-rule="evenodd" fill-opacity="1" stroke="#000000" stroke-opacity="1" stroke-width="3.2"/>
<path clip-path="url(#clip602)" d="M1037.32 727.849 L1037.32 759.849 L1069.32 759.849 L1069.32 727.849 L1037.32 727.849 Z" fill="#009af9" fill-rule="evenodd" fill-opacity="1" stroke="#000000" stroke-opacity="1" stroke-width="3.2"/>
<path clip-path="url(#clip602)" d="M1069.33 767.385 L1069.33 799.385 L1101.33 799.385 L1101.33 767.385 L1069.33 767.385 Z" fill="#009af9" fill-rule="evenodd" fill-opacity="1" stroke="#000000" stroke-opacity="1" stroke-width="3.2"/>
<circle clip-path="url(#clip602)" cx="1082.27" cy="783.028" r="14.4" fill="#009af9" fill-rule="evenodd" fill-opacity="1" stroke="#000000" stroke-opacity="1" stroke-width="3.2"/>
<circle clip-path="url(#clip602)" cx="1079.18" cy="778.607" r="14.4" fill="#009af9" fill-rule="evenodd" fill-opacity="1" stroke="#000000" stroke-opacity="1" stroke-width="3.2"/>
<circle clip-path="url(#clip602)" cx="1060.22" cy="752.469" r="14.4" fill="#009af9" fill-rule="evenodd" fill-opacity="1" stroke="#000000" stroke-opacity="1" stroke-width="3.2"/>
<circle clip-path="url(#clip602)" cx="1063.86" cy="759.843" r="14.4" fill="#009af9" fill-rule="evenodd" fill-opacity="1" stroke="#000000" stroke-opacity="1" stroke-width="3.2"/>
<circle clip-path="url(#clip602)" cx="1063.54" cy="760.221" r="14.4" fill="#009af9" fill-rule="evenodd" fill-opacity="1" stroke="#000000" stroke-opacity="1" stroke-width="3.2"/>
<circle clip-path="url(#clip602)" cx="1105.24" cy="800.684" r="14.4" fill="#009af9" fill-rule="evenodd" fill-opacity="1" stroke="#000000" stroke-opacity="1" stroke-width="3.2"/>
<path clip-path="url(#clip602)" d="M1050.89 753.173 L1050.89 785.173 L1082.89 785.173 L1082.89 753.173 L1050.89 753.173 Z" fill="#009af9" fill-rule="evenodd" fill-opacity="1" stroke="#000000" stroke-opacity="1" stroke-width="3.2"/>
<circle clip-path="url(#clip602)" cx="1059.58" cy="755.678" r="14.4" fill="#009af9" fill-rule="evenodd" fill-opacity="1" stroke="#000000" stroke-opacity="1" stroke-width="3.2"/>
<circle clip-path="url(#clip602)" cx="1069.25" cy="768.382" r="14.4" fill="#009af9" fill-rule="evenodd" fill-opacity="1" stroke="#000000" stroke-opacity="1" stroke-width="3.2"/>
<circle clip-path="url(#clip602)" cx="1164.95" cy="826.922" r="14.4" fill="#009af9" fill-rule="evenodd" fill-opacity="1" stroke="#000000" stroke-opacity="1" stroke-width="3.2"/>
<circle clip-path="url(#clip602)" cx="1066.57" cy="771.566" r="14.4" fill="#009af9" fill-rule="evenodd" fill-opacity="1" stroke="#000000" stroke-opacity="1" stroke-width="3.2"/>
<circle clip-path="url(#clip602)" cx="1071.43" cy="777.329" r="14.4" fill="#009af9" fill-rule="evenodd" fill-opacity="1" stroke="#000000" stroke-opacity="1" stroke-width="3.2"/>
<circle clip-path="url(#clip602)" cx="1065.16" cy="759.857" r="14.4" fill="#009af9" fill-rule="evenodd" fill-opacity="1" stroke="#000000" stroke-opacity="1" stroke-width="3.2"/>
<circle clip-path="url(#clip602)" cx="1229.25" cy="837.534" r="14.4" fill="#009af9" fill-rule="evenodd" fill-opacity="1" stroke="#000000" stroke-opacity="1" stroke-width="3.2"/>
<path clip-path="url(#clip602)" d="M1147.22 820.804 L1147.22 852.804 L1179.22 852.804 L1179.22 820.804 L1147.22 820.804 Z" fill="#009af9" fill-rule="evenodd" fill-opacity="1" stroke="#000000" stroke-opacity="1" stroke-width="3.2"/>
<circle clip-path="url(#clip602)" cx="1152.94" cy="823.014" r="14.4" fill="#009af9" fill-rule="evenodd" fill-opacity="1" stroke="#000000" stroke-opacity="1" stroke-width="3.2"/>
<circle clip-path="url(#clip602)" cx="1062.76" cy="756.932" r="14.4" fill="#009af9" fill-rule="evenodd" fill-opacity="1" stroke="#000000" stroke-opacity="1" stroke-width="3.2"/>
<circle clip-path="url(#clip602)" cx="1091.15" cy="791.233" r="14.4" fill="#009af9" fill-rule="evenodd" fill-opacity="1" stroke="#000000" stroke-opacity="1" stroke-width="3.2"/>
<path clip-path="url(#clip602)" d="M1036.55 741.822 L1036.55 773.822 L1068.55 773.822 L1068.55 741.822 L1036.55 741.822 Z" fill="#009af9" fill-rule="evenodd" fill-opacity="1" stroke="#000000" stroke-opacity="1" stroke-width="3.2"/>
<path clip-path="url(#clip602)" d="M1033.5 733.145 L1033.5 765.145 L1065.5 765.145 L1065.5 733.145 L1033.5 733.145 Z" fill="#009af9" fill-rule="evenodd" fill-opacity="1" stroke="#000000" stroke-opacity="1" stroke-width="3.2"/>
<circle clip-path="url(#clip602)" cx="1058.52" cy="751.793" r="14.4" fill="#009af9" fill-rule="evenodd" fill-opacity="1" stroke="#000000" stroke-opacity="1" stroke-width="3.2"/>
<circle clip-path="url(#clip602)" cx="1060.33" cy="750.757" r="14.4" fill="#009af9" fill-rule="evenodd" fill-opacity="1" stroke="#000000" stroke-opacity="1" stroke-width="3.2"/>
<path clip-path="url(#clip602)" d="M1034.69 737.258 L1034.69 769.258 L1066.69 769.258 L1066.69 737.258 L1034.69 737.258 Z" fill="#009af9" fill-rule="evenodd" fill-opacity="1" stroke="#000000" stroke-opacity="1" stroke-width="3.2"/>
<circle clip-path="url(#clip602)" cx="1136.84" cy="819.269" r="14.4" fill="#009af9" fill-rule="evenodd" fill-opacity="1" stroke="#000000" stroke-opacity="1" stroke-width="3.2"/>
<circle clip-path="url(#clip602)" cx="1119.77" cy="810.326" r="14.4" fill="#009af9" fill-rule="evenodd" fill-opacity="1" stroke="#000000" stroke-opacity="1" stroke-width="3.2"/>
<circle clip-path="url(#clip602)" cx="1078.09" cy="782.9" r="14.4" fill="#009af9" fill-rule="evenodd" fill-opacity="1" stroke="#000000" stroke-opacity="1" stroke-width="3.2"/>
<circle clip-path="url(#clip602)" cx="1211.34" cy="842.421" r="14.4" fill="#009af9" fill-rule="evenodd" fill-opacity="1" stroke="#000000" stroke-opacity="1" stroke-width="3.2"/>
<path clip-path="url(#clip602)" d="M1064.96 762.934 L1064.96 794.934 L1096.96 794.934 L1096.96 762.934 L1064.96 762.934 Z" fill="#009af9" fill-rule="evenodd" fill-opacity="1" stroke="#000000" stroke-opacity="1" stroke-width="3.2"/>
<path clip-path="url(#clip602)" d="M1034.47 729.336 L1034.47 761.336 L1066.47 761.336 L1066.47 729.336 L1034.47 729.336 Z" fill="#009af9" fill-rule="evenodd" fill-opacity="1" stroke="#000000" stroke-opacity="1" stroke-width="3.2"/>
<circle clip-path="url(#clip602)" cx="1082.95" cy="783.815" r="14.4" fill="#009af9" fill-rule="evenodd" fill-opacity="1" stroke="#000000" stroke-opacity="1" stroke-width="3.2"/>
<circle clip-path="url(#clip602)" cx="1109.85" cy="805.034" r="14.4" fill="#009af9" fill-rule="evenodd" fill-opacity="1" stroke="#000000" stroke-opacity="1" stroke-width="3.2"/>
<circle clip-path="url(#clip602)" cx="1185.01" cy="822.948" r="14.4" fill="#009af9" fill-rule="evenodd" fill-opacity="1" stroke="#000000" stroke-opacity="1" stroke-width="3.2"/>
<path clip-path="url(#clip602)" d="M1117.35 805.41 L1117.35 837.41 L1149.35 837.41 L1149.35 805.41 L1117.35 805.41 Z" fill="#009af9" fill-rule="evenodd" fill-opacity="1" stroke="#000000" stroke-opacity="1" stroke-width="3.2"/>
<path clip-path="url(#clip602)" d="M1144.22 820.747 L1144.22 852.747 L1176.22 852.747 L1176.22 820.747 L1144.22 820.747 Z" fill="#009af9" fill-rule="evenodd" fill-opacity="1" stroke="#000000" stroke-opacity="1" stroke-width="3.2"/>
<path clip-path="url(#clip602)" d="M1194.9 835.287 L1194.9 867.287 L1226.9 867.287 L1226.9 835.287 L1194.9 835.287 Z" fill="#009af9" fill-rule="evenodd" fill-opacity="1" stroke="#000000" stroke-opacity="1" stroke-width="3.2"/>
<circle clip-path="url(#clip602)" cx="1062.92" cy="767.056" r="14.4" fill="#009af9" fill-rule="evenodd" fill-opacity="1" stroke="#000000" stroke-opacity="1" stroke-width="3.2"/>
<circle clip-path="url(#clip602)" cx="1077.21" cy="782.52" r="14.4" fill="#009af9" fill-rule="evenodd" fill-opacity="1" stroke="#000000" stroke-opacity="1" stroke-width="3.2"/>
<circle clip-path="url(#clip602)" cx="1197.73" cy="839.788" r="14.4" fill="#009af9" fill-rule="evenodd" fill-opacity="1" stroke="#000000" stroke-opacity="1" stroke-width="3.2"/>
<circle clip-path="url(#clip602)" cx="1081.24" cy="778.909" r="14.4" fill="#009af9" fill-rule="evenodd" fill-opacity="1" stroke="#000000" stroke-opacity="1" stroke-width="3.2"/>
<circle clip-path="url(#clip602)" cx="1073.04" cy="778.847" r="14.4" fill="#009af9" fill-rule="evenodd" fill-opacity="1" stroke="#000000" stroke-opacity="1" stroke-width="3.2"/>
<circle clip-path="url(#clip602)" cx="1080.69" cy="784.139" r="14.4" fill="#009af9" fill-rule="evenodd" fill-opacity="1" stroke="#000000" stroke-opacity="1" stroke-width="3.2"/>
<path clip-path="url(#clip602)" d="M1176 794.211 L1176 826.211 L1208 826.211 L1208 794.211 L1176 794.211 Z" fill="#009af9" fill-rule="evenodd" fill-opacity="1" stroke="#000000" stroke-opacity="1" stroke-width="3.2"/>
<circle clip-path="url(#clip602)" cx="1187.14" cy="820.954" r="14.4" fill="#009af9" fill-rule="evenodd" fill-opacity="1" stroke="#000000" stroke-opacity="1" stroke-width="3.2"/>
<circle clip-path="url(#clip602)" cx="1060.11" cy="749.735" r="14.4" fill="#009af9" fill-rule="evenodd" fill-opacity="1" stroke="#000000" stroke-opacity="1" stroke-width="3.2"/>
<circle clip-path="url(#clip602)" cx="1079.54" cy="782.916" r="14.4" fill="#009af9" fill-rule="evenodd" fill-opacity="1" stroke="#000000" stroke-opacity="1" stroke-width="3.2"/>
<path clip-path="url(#clip602)" d="M1039.96 770.882 L1039.96 802.882 L1071.96 802.882 L1071.96 770.882 L1039.96 770.882 Z" fill="#e26f46" fill-rule="evenodd" fill-opacity="1" stroke="#000000" stroke-opacity="1" stroke-width="3.2"/>
<circle clip-path="url(#clip602)" cx="1061.36" cy="758.828" r="14.4" fill="#e26f46" fill-rule="evenodd" fill-opacity="1" stroke="#000000" stroke-opacity="1" stroke-width="3.2"/>
<circle clip-path="url(#clip602)" cx="1062.43" cy="759.771" r="14.4" fill="#e26f46" fill-rule="evenodd" fill-opacity="1" stroke="#000000" stroke-opacity="1" stroke-width="3.2"/>
<path clip-path="url(#clip602)" d="M1248.25 835.92 L1248.25 867.92 L1280.25 867.92 L1280.25 835.92 L1248.25 835.92 Z" fill="#e26f46" fill-rule="evenodd" fill-opacity="1" stroke="#000000" stroke-opacity="1" stroke-width="3.2"/>
<path clip-path="url(#clip602)" d="M1041.51 766.667 L1041.51 798.667 L1073.51 798.667 L1073.51 766.667 L1041.51 766.667 Z" fill="#e26f46" fill-rule="evenodd" fill-opacity="1" stroke="#000000" stroke-opacity="1" stroke-width="3.2"/>
<path clip-path="url(#clip602)" d="M1280.26 813.302 L1280.26 845.302 L1312.26 845.302 L1312.26 813.302 L1280.26 813.302 Z" fill="#e26f46" fill-rule="evenodd" fill-opacity="1" stroke="#000000" stroke-opacity="1" stroke-width="3.2"/>
<path clip-path="url(#clip602)" d="M1330.09 739.419 L1330.09 771.419 L1362.09 771.419 L1362.09 739.419 L1330.09 739.419 Z" fill="#e26f46" fill-rule="evenodd" fill-opacity="1" stroke="#000000" stroke-opacity="1" stroke-width="3.2"/>
<circle clip-path="url(#clip602)" cx="1060.22" cy="755.267" r="14.4" fill="#e26f46" fill-rule="evenodd" fill-opacity="1" stroke="#000000" stroke-opacity="1" stroke-width="3.2"/>
<circle clip-path="url(#clip602)" cx="1059.79" cy="755.382" r="14.4" fill="#e26f46" fill-rule="evenodd" fill-opacity="1" stroke="#000000" stroke-opacity="1" stroke-width="3.2"/>
<circle clip-path="url(#clip602)" cx="1239.22" cy="828.808" r="14.4" fill="#e26f46" fill-rule="evenodd" fill-opacity="1" stroke="#000000" stroke-opacity="1" stroke-width="3.2"/>
<path clip-path="url(#clip602)" d="M1029.1 809.811 L1029.1 841.811 L1061.1 841.811 L1061.1 809.811 L1029.1 809.811 Z" fill="#e26f46" fill-rule="evenodd" fill-opacity="1" stroke="#000000" stroke-opacity="1" stroke-width="3.2"/>
<path clip-path="url(#clip602)" d="M1045.73 757.42 L1045.73 789.42 L1077.73 789.42 L1077.73 757.42 L1045.73 757.42 Z" fill="#e26f46" fill-rule="evenodd" fill-opacity="1" stroke="#000000" stroke-opacity="1" stroke-width="3.2"/>
<path clip-path="url(#clip602)" d="M1044.29 731.693 L1044.29 763.693 L1076.29 763.693 L1076.29 731.693 L1044.29 731.693 Z" fill="#e26f46" fill-rule="evenodd" fill-opacity="1" stroke="#000000" stroke-opacity="1" stroke-width="3.2"/>
<path clip-path="url(#clip602)" d="M1030.88 823.345 L1030.88 855.345 L1062.88 855.345 L1062.88 823.345 L1030.88 823.345 Z" fill="#e26f46" fill-rule="evenodd" fill-opacity="1" stroke="#000000" stroke-opacity="1" stroke-width="3.2"/>
<path clip-path="url(#clip602)" d="M1036.69 778.698 L1036.69 810.698 L1068.69 810.698 L1068.69 778.698 L1036.69 778.698 Z" fill="#e26f46" fill-rule="evenodd" fill-opacity="1" stroke="#000000" stroke-opacity="1" stroke-width="3.2"/>
<path clip-path="url(#clip602)" d="M1038.19 784.652 L1038.19 816.652 L1070.19 816.652 L1070.19 784.652 L1038.19 784.652 Z" fill="#e26f46" fill-rule="evenodd" fill-opacity="1" stroke="#000000" stroke-opacity="1" stroke-width="3.2"/>
<path clip-path="url(#clip602)" d="M1278.75 821.817 L1278.75 853.817 L1310.75 853.817 L1310.75 821.817 L1278.75 821.817 Z" fill="#e26f46" fill-rule="evenodd" fill-opacity="1" stroke="#000000" stroke-opacity="1" stroke-width="3.2"/>
<path clip-path="url(#clip602)" d="M1027.21 838.43 L1027.21 870.43 L1059.21 870.43 L1059.21 838.43 L1027.21 838.43 Z" fill="#e26f46" fill-rule="evenodd" fill-opacity="1" stroke="#000000" stroke-opacity="1" stroke-width="3.2"/>
<path clip-path="url(#clip602)" d="M1041.28 758.271 L1041.28 790.271 L1073.28 790.271 L1073.28 758.271 L1041.28 758.271 Z" fill="#e26f46" fill-rule="evenodd" fill-opacity="1" stroke="#000000" stroke-opacity="1" stroke-width="3.2"/>
<circle clip-path="url(#clip602)" cx="1061.27" cy="758.669" r="14.4" fill="#e26f46" fill-rule="evenodd" fill-opacity="1" stroke="#000000" stroke-opacity="1" stroke-width="3.2"/>
<path clip-path="url(#clip602)" d="M1293.74 797.72 L1293.74 829.72 L1325.74 829.72 L1325.74 797.72 L1293.74 797.72 Z" fill="#e26f46" fill-rule="evenodd" fill-opacity="1" stroke="#000000" stroke-opacity="1" stroke-width="3.2"/>
<path clip-path="url(#clip602)" d="M1321.32 748.76 L1321.32 780.76 L1353.32 780.76 L1353.32 748.76 L1321.32 748.76 Z" fill="#e26f46" fill-rule="evenodd" fill-opacity="1" stroke="#000000" stroke-opacity="1" stroke-width="3.2"/>
<path clip-path="url(#clip602)" d="M1334.76 728.585 L1334.76 760.585 L1366.76 760.585 L1366.76 728.585 L1334.76 728.585 Z" fill="#e26f46" fill-rule="evenodd" fill-opacity="1" stroke="#000000" stroke-opacity="1" stroke-width="3.2"/>
<path clip-path="url(#clip602)" d="M1042.84 757.85 L1042.84 789.85 L1074.84 789.85 L1074.84 757.85 L1042.84 757.85 Z" fill="#e26f46" fill-rule="evenodd" fill-opacity="1" stroke="#000000" stroke-opacity="1" stroke-width="3.2"/>
<path clip-path="url(#clip602)" d="M1036.2 787.302 L1036.2 819.302 L1068.2 819.302 L1068.2 787.302 L1036.2 787.302 Z" fill="#e26f46" fill-rule="evenodd" fill-opacity="1" stroke="#000000" stroke-opacity="1" stroke-width="3.2"/>
<path clip-path="url(#clip602)" d="M1054.36 762.956 L1054.36 794.956 L1086.36 794.956 L1086.36 762.956 L1054.36 762.956 Z" fill="#e26f46" fill-rule="evenodd" fill-opacity="1" stroke="#000000" stroke-opacity="1" stroke-width="3.2"/>
<path clip-path="url(#clip602)" d="M1035.43 780.857 L1035.43 812.857 L1067.43 812.857 L1067.43 780.857 L1035.43 780.857 Z" fill="#e26f46" fill-rule="evenodd" fill-opacity="1" stroke="#000000" stroke-opacity="1" stroke-width="3.2"/>
<path clip-path="url(#clip602)" d="M1025.74 837.775 L1025.74 869.775 L1057.74 869.775 L1057.74 837.775 L1025.74 837.775 Z" fill="#e26f46" fill-rule="evenodd" fill-opacity="1" stroke="#000000" stroke-opacity="1" stroke-width="3.2"/>
<path clip-path="url(#clip602)" d="M1037.89 769.376 L1037.89 801.376 L1069.89 801.376 L1069.89 769.376 L1037.89 769.376 Z" fill="#e26f46" fill-rule="evenodd" fill-opacity="1" stroke="#000000" stroke-opacity="1" stroke-width="3.2"/>
<path clip-path="url(#clip602)" d="M1265.95 776.751 L1265.95 808.751 L1297.95 808.751 L1297.95 776.751 L1265.95 776.751 Z" fill="#e26f46" fill-rule="evenodd" fill-opacity="1" stroke="#000000" stroke-opacity="1" stroke-width="3.2"/>
<path clip-path="url(#clip602)" d="M1026.24 830.177 L1026.24 862.177 L1058.24 862.177 L1058.24 830.177 L1026.24 830.177 Z" fill="#e26f46" fill-rule="evenodd" fill-opacity="1" stroke="#000000" stroke-opacity="1" stroke-width="3.2"/>
<path clip-path="url(#clip602)" d="M1033.9 786.286 L1033.9 818.286 L1065.9 818.286 L1065.9 786.286 L1033.9 786.286 Z" fill="#e26f46" fill-rule="evenodd" fill-opacity="1" stroke="#000000" stroke-opacity="1" stroke-width="3.2"/>
<path clip-path="url(#clip602)" d="M1037.13 773.347 L1037.13 805.347 L1069.13 805.347 L1069.13 773.347 L1037.13 773.347 Z" fill="#e26f46" fill-rule="evenodd" fill-opacity="1" stroke="#000000" stroke-opacity="1" stroke-width="3.2"/>
<path clip-path="url(#clip602)" d="M1037.69 771.176 L1037.69 803.176 L1069.69 803.176 L1069.69 771.176 L1037.69 771.176 Z" fill="#e26f46" fill-rule="evenodd" fill-opacity="1" stroke="#000000" stroke-opacity="1" stroke-width="3.2"/>
<path clip-path="url(#clip602)" d="M1325.41 743.18 L1325.41 775.18 L1357.41 775.18 L1357.41 743.18 L1325.41 743.18 Z" fill="#e26f46" fill-rule="evenodd" fill-opacity="1" stroke="#000000" stroke-opacity="1" stroke-width="3.2"/>
<path clip-path="url(#clip602)" d="M1345.38 702.47 L1345.38 734.47 L1377.38 734.47 L1377.38 702.47 L1345.38 702.47 Z" fill="#e26f46" fill-rule="evenodd" fill-opacity="1" stroke="#000000" stroke-opacity="1" stroke-width="3.2"/>
<path clip-path="url(#clip602)" d="M1302 782.437 L1302 814.437 L1334 814.437 L1334 782.437 L1302 782.437 Z" fill="#e26f46" fill-rule="evenodd" fill-opacity="1" stroke="#000000" stroke-opacity="1" stroke-width="3.2"/>
<path clip-path="url(#clip602)" d="M1283.36 780.302 L1283.36 812.302 L1315.36 812.302 L1315.36 780.302 L1283.36 780.302 Z" fill="#e26f46" fill-rule="evenodd" fill-opacity="1" stroke="#000000" stroke-opacity="1" stroke-width="3.2"/>
<path clip-path="url(#clip602)" d="M1031.05 797.94 L1031.05 829.94 L1063.05 829.94 L1063.05 797.94 L1031.05 797.94 Z" fill="#e26f46" fill-rule="evenodd" fill-opacity="1" stroke="#000000" stroke-opacity="1" stroke-width="3.2"/>
<path clip-path="url(#clip602)" d="M1322.82 752.115 L1322.82 784.115 L1354.82 784.115 L1354.82 752.115 L1322.82 752.115 Z" fill="#e26f46" fill-rule="evenodd" fill-opacity="1" stroke="#000000" stroke-opacity="1" stroke-width="3.2"/>
<path clip-path="url(#clip602)" d="M1044.17 734.44 L1044.17 766.44 L1076.17 766.44 L1076.17 734.44 L1044.17 734.44 Z" fill="#e26f46" fill-rule="evenodd" fill-opacity="1" stroke="#000000" stroke-opacity="1" stroke-width="3.2"/>
<path clip-path="url(#clip602)" d="M1040.76 784.251 L1040.76 816.251 L1072.76 816.251 L1072.76 784.251 L1040.76 784.251 Z" fill="#e26f46" fill-rule="evenodd" fill-opacity="1" stroke="#000000" stroke-opacity="1" stroke-width="3.2"/>
<path clip-path="url(#clip602)" d="M1334.41 729.454 L1334.41 761.454 L1366.41 761.454 L1366.41 729.454 L1334.41 729.454 Z" fill="#e26f46" fill-rule="evenodd" fill-opacity="1" stroke="#000000" stroke-opacity="1" stroke-width="3.2"/>
<path clip-path="url(#clip602)" d="M1040.81 778.957 L1040.81 810.957 L1072.81 810.957 L1072.81 778.957 L1040.81 778.957 Z" fill="#e26f46" fill-rule="evenodd" fill-opacity="1" stroke="#000000" stroke-opacity="1" stroke-width="3.2"/>
<path clip-path="url(#clip602)" d="M1333.23 730.031 L1333.23 762.031 L1365.23 762.031 L1365.23 730.031 L1333.23 730.031 Z" fill="#e26f46" fill-rule="evenodd" fill-opacity="1" stroke="#000000" stroke-opacity="1" stroke-width="3.2"/>
<path clip-path="url(#clip602)" d="M1029.85 818.351 L1029.85 850.351 L1061.85 850.351 L1061.85 818.351 L1029.85 818.351 Z" fill="#e26f46" fill-rule="evenodd" fill-opacity="1" stroke="#000000" stroke-opacity="1" stroke-width="3.2"/>
<path clip-path="url(#clip602)" d="M1046.19 760.249 L1046.19 792.249 L1078.19 792.249 L1078.19 760.249 L1046.19 760.249 Z" fill="#e26f46" fill-rule="evenodd" fill-opacity="1" stroke="#000000" stroke-opacity="1" stroke-width="3.2"/>
<path clip-path="url(#clip602)" d="M1043.25 750.031 L1043.25 782.031 L1075.25 782.031 L1075.25 750.031 L1043.25 750.031 Z" fill="#e26f46" fill-rule="evenodd" fill-opacity="1" stroke="#000000" stroke-opacity="1" stroke-width="3.2"/>
<path clip-path="url(#clip602)" d="M1308.44 758.603 L1308.44 790.603 L1340.44 790.603 L1340.44 758.603 L1308.44 758.603 Z" fill="#e26f46" fill-rule="evenodd" fill-opacity="1" stroke="#000000" stroke-opacity="1" stroke-width="3.2"/>
<path clip-path="url(#clip602)" d="M1314.85 761.292 L1314.85 793.292 L1346.85 793.292 L1346.85 761.292 L1314.85 761.292 Z" fill="#e26f46" fill-rule="evenodd" fill-opacity="1" stroke="#000000" stroke-opacity="1" stroke-width="3.2"/>
<path clip-path="url(#clip602)" d="M1342.83 708.469 L1342.83 740.469 L1374.83 740.469 L1374.83 708.469 L1342.83 708.469 Z" fill="#e26f46" fill-rule="evenodd" fill-opacity="1" stroke="#000000" stroke-opacity="1" stroke-width="3.2"/>
<path clip-path="url(#clip602)" d="M1046.54 764.731 L1046.54 796.731 L1078.54 796.731 L1078.54 764.731 L1046.54 764.731 Z" fill="#e26f46" fill-rule="evenodd" fill-opacity="1" stroke="#000000" stroke-opacity="1" stroke-width="3.2"/>
<path clip-path="url(#clip602)" d="M1339.7 716.648 L1339.7 748.648 L1371.7 748.648 L1371.7 716.648 L1339.7 716.648 Z" fill="#e26f46" fill-rule="evenodd" fill-opacity="1" stroke="#000000" stroke-opacity="1" stroke-width="3.2"/>
<circle clip-path="url(#clip602)" cx="1235.8" cy="839.686" r="14.4" fill="#e26f46" fill-rule="evenodd" fill-opacity="1" stroke="#000000" stroke-opacity="1" stroke-width="3.2"/>
<path clip-path="url(#clip602)" d="M1028.43 831.479 L1028.43 863.479 L1060.43 863.479 L1060.43 831.479 L1028.43 831.479 Z" fill="#e26f46" fill-rule="evenodd" fill-opacity="1" stroke="#000000" stroke-opacity="1" stroke-width="3.2"/>
<path clip-path="url(#clip602)" d="M1211.97 834.244 L1211.97 866.244 L1243.97 866.244 L1243.97 834.244 L1211.97 834.244 Z" fill="#e26f46" fill-rule="evenodd" fill-opacity="1" stroke="#000000" stroke-opacity="1" stroke-width="3.2"/>
<circle clip-path="url(#clip602)" cx="1061.72" cy="757.326" r="14.4" fill="#e26f46" fill-rule="evenodd" fill-opacity="1" stroke="#000000" stroke-opacity="1" stroke-width="3.2"/>
<path clip-path="url(#clip602)" d="M1044.23 749.63 L1044.23 781.63 L1076.23 781.63 L1076.23 749.63 L1044.23 749.63 Z" fill="#e26f46" fill-rule="evenodd" fill-opacity="1" stroke="#000000" stroke-opacity="1" stroke-width="3.2"/>
<path clip-path="url(#clip602)" d="M1037.75 783.939 L1037.75 815.939 L1069.75 815.939 L1069.75 783.939 L1037.75 783.939 Z" fill="#e26f46" fill-rule="evenodd" fill-opacity="1" stroke="#000000" stroke-opacity="1" stroke-width="3.2"/>
<circle clip-path="url(#clip602)" cx="1059.7" cy="755.486" r="14.4" fill="#e26f46" fill-rule="evenodd" fill-opacity="1" stroke="#000000" stroke-opacity="1" stroke-width="3.2"/>
<path clip-path="url(#clip602)" d="M1283.89 777.422 L1283.89 809.422 L1315.89 809.422 L1315.89 777.422 L1283.89 777.422 Z" fill="#e26f46" fill-rule="evenodd" fill-opacity="1" stroke="#000000" stroke-opacity="1" stroke-width="3.2"/>
<path clip-path="url(#clip602)" d="M1247.97 841.16 L1247.97 873.16 L1279.97 873.16 L1279.97 841.16 L1247.97 841.16 Z" fill="#e26f46" fill-rule="evenodd" fill-opacity="1" stroke="#000000" stroke-opacity="1" stroke-width="3.2"/>
<path clip-path="url(#clip602)" d="M1250.67 840.744 L1250.67 872.744 L1282.67 872.744 L1282.67 840.744 L1250.67 840.744 Z" fill="#e26f46" fill-rule="evenodd" fill-opacity="1" stroke="#000000" stroke-opacity="1" stroke-width="3.2"/>
<path clip-path="url(#clip602)" d="M1277.04 783.023 L1277.04 815.023 L1309.04 815.023 L1309.04 783.023 L1277.04 783.023 Z" fill="#e26f46" fill-rule="evenodd" fill-opacity="1" stroke="#000000" stroke-opacity="1" stroke-width="3.2"/>
<path clip-path="url(#clip602)" d="M1046.17 738.766 L1046.17 770.766 L1078.17 770.766 L1078.17 738.766 L1046.17 738.766 Z" fill="#e26f46" fill-rule="evenodd" fill-opacity="1" stroke="#000000" stroke-opacity="1" stroke-width="3.2"/>
<path clip-path="url(#clip602)" d="M1045.6 735.918 L1045.6 767.918 L1077.6 767.918 L1077.6 735.918 L1045.6 735.918 Z" fill="#e26f46" fill-rule="evenodd" fill-opacity="1" stroke="#000000" stroke-opacity="1" stroke-width="3.2"/>
<path clip-path="url(#clip602)" d="M1046.88 730.805 L1046.88 762.805 L1078.88 762.805 L1078.88 730.805 L1046.88 730.805 Z" fill="#e26f46" fill-rule="evenodd" fill-opacity="1" stroke="#000000" stroke-opacity="1" stroke-width="3.2"/>
<path clip-path="url(#clip602)" d="M1029.77 836.077 L1029.77 868.077 L1061.77 868.077 L1061.77 836.077 L1029.77 836.077 Z" fill="#e26f46" fill-rule="evenodd" fill-opacity="1" stroke="#000000" stroke-opacity="1" stroke-width="3.2"/>
<path clip-path="url(#clip602)" d="M1035.09 782.785 L1035.09 814.785 L1067.09 814.785 L1067.09 782.785 L1035.09 782.785 Z" fill="#e26f46" fill-rule="evenodd" fill-opacity="1" stroke="#000000" stroke-opacity="1" stroke-width="3.2"/>
<path clip-path="url(#clip602)" d="M1037.82 783.163 L1037.82 815.163 L1069.82 815.163 L1069.82 783.163 L1037.82 783.163 Z" fill="#e26f46" fill-rule="evenodd" fill-opacity="1" stroke="#000000" stroke-opacity="1" stroke-width="3.2"/>
<path clip-path="url(#clip602)" d="M1305.68 772.985 L1305.68 804.985 L1337.68 804.985 L1337.68 772.985 L1305.68 772.985 Z" fill="#e26f46" fill-rule="evenodd" fill-opacity="1" stroke="#000000" stroke-opacity="1" stroke-width="3.2"/>
<path clip-path="url(#clip602)" d="M1296.17 760.556 L1296.17 792.556 L1328.17 792.556 L1328.17 760.556 L1296.17 760.556 Z" fill="#e26f46" fill-rule="evenodd" fill-opacity="1" stroke="#000000" stroke-opacity="1" stroke-width="3.2"/>
<circle clip-path="url(#clip602)" cx="1061.55" cy="759.495" r="14.4" fill="#e26f46" fill-rule="evenodd" fill-opacity="1" stroke="#000000" stroke-opacity="1" stroke-width="3.2"/>
<path clip-path="url(#clip602)" d="M1032.54 824.477 L1032.54 856.477 L1064.54 856.477 L1064.54 824.477 L1032.54 824.477 Z" fill="#e26f46" fill-rule="evenodd" fill-opacity="1" stroke="#000000" stroke-opacity="1" stroke-width="3.2"/>
<circle clip-path="url(#clip602)" cx="1060.09" cy="750.233" r="14.4" fill="#e26f46" fill-rule="evenodd" fill-opacity="1" stroke="#000000" stroke-opacity="1" stroke-width="3.2"/>
<path clip-path="url(#clip602)" d="M1318.33 753.877 L1318.33 785.877 L1350.33 785.877 L1350.33 753.877 L1318.33 753.877 Z" fill="#e26f46" fill-rule="evenodd" fill-opacity="1" stroke="#000000" stroke-opacity="1" stroke-width="3.2"/>
<path clip-path="url(#clip602)" d="M1258.95 782.797 L1258.95 814.797 L1290.95 814.797 L1290.95 782.797 L1258.95 782.797 Z" fill="#e26f46" fill-rule="evenodd" fill-opacity="1" stroke="#000000" stroke-opacity="1" stroke-width="3.2"/>
<circle clip-path="url(#clip602)" cx="1060.05" cy="755.735" r="14.4" fill="#e26f46" fill-rule="evenodd" fill-opacity="1" stroke="#000000" stroke-opacity="1" stroke-width="3.2"/>
<path clip-path="url(#clip602)" d="M1045.2 729.139 L1045.2 761.139 L1077.2 761.139 L1077.2 729.139 L1045.2 729.139 Z" fill="#e26f46" fill-rule="evenodd" fill-opacity="1" stroke="#000000" stroke-opacity="1" stroke-width="3.2"/>
<path clip-path="url(#clip602)" d="M1308.67 756.516 L1308.67 788.516 L1340.67 788.516 L1340.67 756.516 L1308.67 756.516 Z" fill="#e26f46" fill-rule="evenodd" fill-opacity="1" stroke="#000000" stroke-opacity="1" stroke-width="3.2"/>
<path clip-path="url(#clip602)" d="M1335.33 727.342 L1335.33 759.342 L1367.33 759.342 L1367.33 727.342 L1335.33 727.342 Z" fill="#e26f46" fill-rule="evenodd" fill-opacity="1" stroke="#000000" stroke-opacity="1" stroke-width="3.2"/>
<path clip-path="url(#clip602)" d="M1254.91 775.714 L1254.91 807.714 L1286.91 807.714 L1286.91 775.714 L1254.91 775.714 Z" fill="#e26f46" fill-rule="evenodd" fill-opacity="1" stroke="#000000" stroke-opacity="1" stroke-width="3.2"/>
<path clip-path="url(#clip602)" d="M1039.48 766.796 L1039.48 798.796 L1071.48 798.796 L1071.48 766.796 L1039.48 766.796 Z" fill="#e26f46" fill-rule="evenodd" fill-opacity="1" stroke="#000000" stroke-opacity="1" stroke-width="3.2"/>
<path clip-path="url(#clip602)" d="M1295.81 773.674 L1295.81 805.674 L1327.81 805.674 L1327.81 773.674 L1295.81 773.674 Z" fill="#e26f46" fill-rule="evenodd" fill-opacity="1" stroke="#000000" stroke-opacity="1" stroke-width="3.2"/>
<path clip-path="url(#clip602)" d="M1033.75 803.841 L1033.75 835.841 L1065.75 835.841 L1065.75 803.841 L1033.75 803.841 Z" fill="#e26f46" fill-rule="evenodd" fill-opacity="1" stroke="#000000" stroke-opacity="1" stroke-width="3.2"/>
<path clip-path="url(#clip602)" d="M1275.71 769.047 L1275.71 801.047 L1307.71 801.047 L1307.71 769.047 L1275.71 769.047 Z" fill="#e26f46" fill-rule="evenodd" fill-opacity="1" stroke="#000000" stroke-opacity="1" stroke-width="3.2"/>
<circle clip-path="url(#clip602)" cx="1059.94" cy="758.269" r="14.4" fill="#e26f46" fill-rule="evenodd" fill-opacity="1" stroke="#000000" stroke-opacity="1" stroke-width="3.2"/>
<path clip-path="url(#clip602)" d="M1024.92 863.538 L1024.92 895.538 L1056.92 895.538 L1056.92 863.538 L1024.92 863.538 Z" fill="#e26f46" fill-rule="evenodd" fill-opacity="1" stroke="#000000" stroke-opacity="1" stroke-width="3.2"/>
<path clip-path="url(#clip602)" d="M1043.72 755.004 L1043.72 787.004 L1075.72 787.004 L1075.72 755.004 L1043.72 755.004 Z" fill="#e26f46" fill-rule="evenodd" fill-opacity="1" stroke="#000000" stroke-opacity="1" stroke-width="3.2"/>
<path clip-path="url(#clip600)" d="M1904.05 447.348 L2275.91 447.348 L2275.91 97.4278 L1904.05 97.4278  Z" fill="#ffffff" fill-rule="evenodd" fill-opacity="1"/>
<polyline clip-path="url(#clip600)" style="stroke:#000000; stroke-linecap:round; stroke-linejoin:round; stroke-width:4; stroke-opacity:1; fill:none" points="1904.05,447.348 2275.91,447.348 2275.91,97.4278 1904.05,97.4278 1904.05,447.348 "/>
<path clip-path="url(#clip600)" d="M1955.32 162.868 L1955.32 265.268 L2057.72 265.268 L2057.72 162.868 L1955.32 162.868 Z" fill="#009af9" fill-rule="evenodd" fill-opacity="1" stroke="#000000" stroke-opacity="1" stroke-width="10.24"/>
<path clip-path="url(#clip600)" d="M2108.98 214.598 Q2108.98 200.807 2111.8 192.427 Q2114.66 183.993 2120.23 179.431 Q2125.85 174.87 2134.34 174.87 Q2140.6 174.87 2145.32 177.416 Q2150.04 179.909 2153.12 184.682 Q2156.19 189.403 2157.94 196.246 Q2159.69 203.035 2159.69 214.598 Q2159.69 228.283 2156.88 236.717 Q2154.07 245.098 2148.45 249.712 Q2142.88 254.274 2134.34 254.274 Q2123.09 254.274 2116.68 246.211 Q2108.98 236.505 2108.98 214.598 M2118.8 214.598 Q2118.8 233.747 2123.25 240.112 Q2127.76 246.424 2134.34 246.424 Q2140.92 246.424 2145.37 240.059 Q2149.88 233.693 2149.88 214.598 Q2149.88 195.397 2145.37 189.085 Q2140.92 182.773 2134.23 182.773 Q2127.65 182.773 2123.73 188.342 Q2118.8 195.45 2118.8 214.598 Z" fill="#000000" fill-rule="nonzero" fill-opacity="1" /><path clip-path="url(#clip600)" d="M2174.76 252.948 L2174.76 242.074 L2185.63 242.074 L2185.63 252.948 L2174.76 252.948 Z" fill="#000000" fill-rule="nonzero" fill-opacity="1" /><path clip-path="url(#clip600)" d="M2199.58 214.598 Q2199.58 200.807 2202.39 192.427 Q2205.26 183.993 2210.83 179.431 Q2216.45 174.87 2224.93 174.87 Q2231.19 174.87 2235.91 177.416 Q2240.64 179.909 2243.71 184.682 Q2246.79 189.403 2248.54 196.246 Q2250.29 203.035 2250.29 214.598 Q2250.29 228.283 2247.48 236.717 Q2244.67 245.098 2239.04 249.712 Q2233.47 254.274 2224.93 254.274 Q2213.69 254.274 2207.27 246.211 Q2199.58 236.505 2199.58 214.598 M2209.39 214.598 Q2209.39 233.747 2213.85 240.112 Q2218.36 246.424 2224.93 246.424 Q2231.51 246.424 2235.97 240.059 Q2240.48 233.693 2240.48 214.598 Q2240.48 195.397 2235.97 189.085 Q2231.51 182.773 2224.83 182.773 Q2218.25 182.773 2214.33 188.342 Q2209.39 195.45 2209.39 214.598 Z" fill="#000000" fill-rule="nonzero" fill-opacity="1" /><path clip-path="url(#clip600)" d="M1955.32 279.508 L1955.32 381.908 L2057.72 381.908 L2057.72 279.508 L1955.32 279.508 Z" fill="#e26f46" fill-rule="evenodd" fill-opacity="1" stroke="#000000" stroke-opacity="1" stroke-width="10.24"/>
<path clip-path="url(#clip600)" d="M2137.63 369.588 L2128.08 369.588 L2128.08 308.748 Q2124.63 312.037 2119.01 315.326 Q2113.44 318.614 2108.98 320.258 L2108.98 311.029 Q2116.99 307.263 2122.99 301.906 Q2128.98 296.549 2131.47 291.51 L2137.63 291.51 L2137.63 369.588 Z" fill="#000000" fill-rule="nonzero" fill-opacity="1" /><path clip-path="url(#clip600)" d="M2167.44 369.588 L2167.44 358.714 L2178.31 358.714 L2178.31 369.588 L2167.44 369.588 Z" fill="#000000" fill-rule="nonzero" fill-opacity="1" /><path clip-path="url(#clip600)" d="M2192.26 331.238 Q2192.26 317.447 2195.07 309.067 Q2197.94 300.633 2203.51 296.071 Q2209.13 291.51 2217.61 291.51 Q2223.87 291.51 2228.59 294.056 Q2233.32 296.549 2236.39 301.322 Q2239.47 306.043 2241.22 312.886 Q2242.97 319.675 2242.97 331.238 Q2242.97 344.923 2240.16 353.357 Q2237.35 361.738 2231.72 366.352 Q2226.15 370.914 2217.61 370.914 Q2206.37 370.914 2199.95 362.851 Q2192.26 353.145 2192.26 331.238 M2202.07 331.238 Q2202.07 350.387 2206.53 356.752 Q2211.04 363.064 2217.61 363.064 Q2224.19 363.064 2228.65 356.699 Q2233.16 350.333 2233.16 331.238 Q2233.16 312.037 2228.65 305.725 Q2224.19 299.413 2217.51 299.413 Q2210.93 299.413 2207.01 304.982 Q2202.07 312.09 2202.07 331.238 Z" fill="#000000" fill-rule="nonzero" fill-opacity="1" /></svg>
