<?xml version="1.0" encoding="utf-8"?>
<svg xmlns="http://www.w3.org/2000/svg" xmlns:xlink="http://www.w3.org/1999/xlink" width="600" height="400" viewBox="0 0 2400 1600">
<defs>
  <clipPath id="clip010">
    <rect x="0" y="0" width="2400" height="1600"/>
  </clipPath>
</defs>
<path clip-path="url(#clip010)" d="M0 1600 L2400 1600 L2400 8.88178e-14 L0 8.88178e-14  Z" fill="#ffffff" fill-rule="evenodd" fill-opacity="1"/>
<defs>
  <clipPath id="clip011">
    <rect x="480" y="0" width="1681" height="1600"/>
  </clipPath>
</defs>
<path clip-path="url(#clip010)" d="M351.461 1443.25 L2352.76 1443.25 L2352.76 47.2441 L351.461 47.2441  Z" fill="#ffffff" fill-rule="evenodd" fill-opacity="1"/>
<defs>
  <clipPath id="clip012">
    <rect x="351" y="47" width="2002" height="1397"/>
  </clipPath>
</defs>
<polyline clip-path="url(#clip010)" style="stroke:#000000; stroke-linecap:round; stroke-linejoin:round; stroke-width:4; stroke-opacity:1; fill:none" points="351.461,1443.25 2352.76,1443.25 "/>
<polyline clip-path="url(#clip010)" style="stroke:#000000; stroke-linecap:round; stroke-linejoin:round; stroke-width:2; stroke-opacity:0.5; fill:none" points="351.461,47.2441 2352.76,47.2441 "/>
<polyline clip-path="url(#clip010)" style="stroke:#000000; stroke-linecap:round; stroke-linejoin:round; stroke-width:4; stroke-opacity:1; fill:none" points="563.777,1443.25 563.777,1424.35 "/>
<polyline clip-path="url(#clip010)" style="stroke:#000000; stroke-linecap:round; stroke-linejoin:round; stroke-width:4; stroke-opacity:1; fill:none" points="825.806,1443.25 825.806,1424.35 "/>
<polyline clip-path="url(#clip010)" style="stroke:#000000; stroke-linecap:round; stroke-linejoin:round; stroke-width:4; stroke-opacity:1; fill:none" points="1087.83,1443.25 1087.83,1424.35 "/>
<polyline clip-path="url(#clip010)" style="stroke:#000000; stroke-linecap:round; stroke-linejoin:round; stroke-width:4; stroke-opacity:1; fill:none" points="1349.86,1443.25 1349.86,1424.35 "/>
<polyline clip-path="url(#clip010)" style="stroke:#000000; stroke-linecap:round; stroke-linejoin:round; stroke-width:4; stroke-opacity:1; fill:none" points="1611.89,1443.25 1611.89,1424.35 "/>
<polyline clip-path="url(#clip010)" style="stroke:#000000; stroke-linecap:round; stroke-linejoin:round; stroke-width:4; stroke-opacity:1; fill:none" points="1873.92,1443.25 1873.92,1424.35 "/>
<polyline clip-path="url(#clip010)" style="stroke:#000000; stroke-linecap:round; stroke-linejoin:round; stroke-width:4; stroke-opacity:1; fill:none" points="2135.95,1443.25 2135.95,1424.35 "/>
<path clip-path="url(#clip010)" d="M482.888 1525.75 L431.543 1525.75 L431.543 1516.84 L482.888 1516.84 L482.888 1525.75 Z" fill="#000000" fill-rule="nonzero" fill-opacity="1" /><path clip-path="url(#clip010)" d="M493.443 1521.3 Q493.443 1507.51 496.254 1499.13 Q499.119 1490.69 504.688 1486.13 Q510.311 1481.57 518.797 1481.57 Q525.056 1481.57 529.777 1484.12 Q534.498 1486.61 537.574 1491.38 Q540.651 1496.1 542.401 1502.95 Q544.152 1509.74 544.152 1521.3 Q544.152 1534.98 541.34 1543.42 Q538.529 1551.8 532.907 1556.41 Q527.337 1560.97 518.797 1560.97 Q507.552 1560.97 501.134 1552.91 Q493.443 1543.2 493.443 1521.3 M503.256 1521.3 Q503.256 1540.45 507.712 1546.81 Q512.22 1553.12 518.797 1553.12 Q525.375 1553.12 529.83 1546.76 Q534.339 1540.39 534.339 1521.3 Q534.339 1502.1 529.83 1495.78 Q525.375 1489.47 518.691 1489.47 Q512.114 1489.47 508.189 1495.04 Q503.256 1502.15 503.256 1521.3 Z" fill="#000000" fill-rule="nonzero" fill-opacity="1" /><path clip-path="url(#clip010)" d="M559.216 1559.65 L559.216 1548.77 L570.089 1548.77 L570.089 1559.65 L559.216 1559.65 Z" fill="#000000" fill-rule="nonzero" fill-opacity="1" /><path clip-path="url(#clip010)" d="M584.676 1492.07 L584.676 1482.9 L635.013 1482.9 L635.013 1490.32 Q627.587 1498.22 620.267 1511.33 Q613.001 1524.43 609.022 1538.27 Q606.158 1548.03 605.362 1559.65 L595.55 1559.65 Q595.709 1550.47 599.157 1537.48 Q602.604 1524.48 609.022 1512.44 Q615.494 1500.35 622.76 1492.07 L584.676 1492.07 Z" fill="#000000" fill-rule="nonzero" fill-opacity="1" /><path clip-path="url(#clip010)" d="M644.455 1539.28 L654.48 1538.43 Q655.594 1545.75 659.625 1549.46 Q663.709 1553.12 669.438 1553.12 Q676.333 1553.12 681.107 1547.93 Q685.881 1542.73 685.881 1534.13 Q685.881 1525.97 681.266 1521.25 Q676.704 1516.52 669.278 1516.52 Q664.664 1516.52 660.951 1518.65 Q657.238 1520.71 655.116 1524.06 L646.152 1522.89 L653.684 1482.95 L692.352 1482.95 L692.352 1492.07 L661.322 1492.07 L657.132 1512.97 Q664.133 1508.09 671.824 1508.09 Q682.009 1508.09 689.01 1515.15 Q696.012 1522.2 696.012 1533.29 Q696.012 1543.84 689.859 1551.53 Q682.38 1560.97 669.438 1560.97 Q658.829 1560.97 652.093 1555.03 Q645.409 1549.09 644.455 1539.28 Z" fill="#000000" fill-rule="nonzero" fill-opacity="1" /><path clip-path="url(#clip010)" d="M745.341 1525.75 L693.996 1525.75 L693.996 1516.84 L745.341 1516.84 L745.341 1525.75 Z" fill="#000000" fill-rule="nonzero" fill-opacity="1" /><path clip-path="url(#clip010)" d="M755.896 1521.3 Q755.896 1507.51 758.708 1499.13 Q761.572 1490.69 767.141 1486.13 Q772.764 1481.57 781.251 1481.57 Q787.51 1481.57 792.23 1484.12 Q796.951 1486.61 800.027 1491.38 Q803.104 1496.1 804.854 1502.95 Q806.605 1509.74 806.605 1521.3 Q806.605 1534.98 803.793 1543.42 Q800.982 1551.8 795.36 1556.41 Q789.79 1560.97 781.251 1560.97 Q770.006 1560.97 763.587 1552.91 Q755.896 1543.2 755.896 1521.3 M765.709 1521.3 Q765.709 1540.45 770.165 1546.81 Q774.673 1553.12 781.251 1553.12 Q787.828 1553.12 792.283 1546.76 Q796.792 1540.39 796.792 1521.3 Q796.792 1502.1 792.283 1495.78 Q787.828 1489.47 781.144 1489.47 Q774.567 1489.47 770.642 1495.04 Q765.709 1502.15 765.709 1521.3 Z" fill="#000000" fill-rule="nonzero" fill-opacity="1" /><path clip-path="url(#clip010)" d="M821.669 1559.65 L821.669 1548.77 L832.542 1548.77 L832.542 1559.65 L821.669 1559.65 Z" fill="#000000" fill-rule="nonzero" fill-opacity="1" /><path clip-path="url(#clip010)" d="M846.493 1539.28 L856.518 1538.43 Q857.631 1545.75 861.663 1549.46 Q865.747 1553.12 871.475 1553.12 Q878.371 1553.12 883.145 1547.93 Q887.919 1542.73 887.919 1534.13 Q887.919 1525.97 883.304 1521.25 Q878.742 1516.52 871.316 1516.52 Q866.702 1516.52 862.989 1518.65 Q859.276 1520.71 857.154 1524.06 L848.19 1522.89 L855.722 1482.95 L894.39 1482.95 L894.39 1492.07 L863.36 1492.07 L859.17 1512.97 Q866.171 1508.09 873.862 1508.09 Q884.046 1508.09 891.048 1515.15 Q898.05 1522.2 898.05 1533.29 Q898.05 1543.84 891.897 1551.53 Q884.418 1560.97 871.475 1560.97 Q860.867 1560.97 854.131 1555.03 Q847.447 1549.09 846.493 1539.28 Z" fill="#000000" fill-rule="nonzero" fill-opacity="1" /><path clip-path="url(#clip010)" d="M906.908 1521.3 Q906.908 1507.51 909.719 1499.13 Q912.583 1490.69 918.153 1486.13 Q923.775 1481.57 932.262 1481.57 Q938.521 1481.57 943.242 1484.12 Q947.962 1486.61 951.039 1491.38 Q954.115 1496.1 955.866 1502.95 Q957.616 1509.74 957.616 1521.3 Q957.616 1534.98 954.805 1543.42 Q951.994 1551.8 946.371 1556.41 Q940.802 1560.97 932.262 1560.97 Q921.017 1560.97 914.599 1552.91 Q906.908 1543.2 906.908 1521.3 M916.721 1521.3 Q916.721 1540.45 921.176 1546.81 Q925.685 1553.12 932.262 1553.12 Q938.839 1553.12 943.295 1546.76 Q947.803 1540.39 947.803 1521.3 Q947.803 1502.1 943.295 1495.78 Q938.839 1489.47 932.156 1489.47 Q925.579 1489.47 921.653 1495.04 Q916.721 1502.15 916.721 1521.3 Z" fill="#000000" fill-rule="nonzero" fill-opacity="1" /><path clip-path="url(#clip010)" d="M1006.95 1525.75 L955.6 1525.75 L955.6 1516.84 L1006.95 1516.84 L1006.95 1525.75 Z" fill="#000000" fill-rule="nonzero" fill-opacity="1" /><path clip-path="url(#clip010)" d="M1017.5 1521.3 Q1017.5 1507.51 1020.31 1499.13 Q1023.18 1490.69 1028.75 1486.13 Q1034.37 1481.57 1042.85 1481.57 Q1049.11 1481.57 1053.83 1484.12 Q1058.56 1486.61 1061.63 1491.38 Q1064.71 1496.1 1066.46 1502.95 Q1068.21 1509.74 1068.21 1521.3 Q1068.21 1534.98 1065.4 1543.42 Q1062.59 1551.8 1056.96 1556.41 Q1051.39 1560.97 1042.85 1560.97 Q1031.61 1560.97 1025.19 1552.91 Q1017.5 1543.2 1017.5 1521.3 M1027.31 1521.3 Q1027.31 1540.45 1031.77 1546.81 Q1036.28 1553.12 1042.85 1553.12 Q1049.43 1553.12 1053.89 1546.76 Q1058.4 1540.39 1058.4 1521.3 Q1058.4 1502.1 1053.89 1495.78 Q1049.43 1489.47 1042.75 1489.47 Q1036.17 1489.47 1032.25 1495.04 Q1027.31 1502.15 1027.31 1521.3 Z" fill="#000000" fill-rule="nonzero" fill-opacity="1" /><path clip-path="url(#clip010)" d="M1083.27 1559.65 L1083.27 1548.77 L1094.15 1548.77 L1094.15 1559.65 L1083.27 1559.65 Z" fill="#000000" fill-rule="nonzero" fill-opacity="1" /><path clip-path="url(#clip010)" d="M1158.27 1550.47 L1158.27 1559.65 L1106.88 1559.65 Q1106.77 1556.2 1107.99 1553.02 Q1109.95 1547.77 1114.25 1542.67 Q1118.6 1537.58 1126.77 1530.9 Q1139.44 1520.5 1143.9 1514.46 Q1148.36 1508.36 1148.36 1502.95 Q1148.36 1497.27 1144.27 1493.4 Q1140.24 1489.47 1133.72 1489.47 Q1126.82 1489.47 1122.68 1493.61 Q1118.55 1497.75 1118.49 1505.07 L1108.68 1504.06 Q1109.69 1493.08 1116.27 1487.35 Q1122.84 1481.57 1133.93 1481.57 Q1145.12 1481.57 1151.64 1487.78 Q1158.17 1493.98 1158.17 1503.16 Q1158.17 1507.83 1156.26 1512.33 Q1154.35 1516.84 1149.89 1521.83 Q1145.49 1526.81 1135.2 1535.51 Q1126.61 1542.73 1124.17 1545.33 Q1121.73 1547.87 1120.14 1550.47 L1158.27 1550.47 Z" fill="#000000" fill-rule="nonzero" fill-opacity="1" /><path clip-path="url(#clip010)" d="M1168.51 1539.28 L1178.54 1538.43 Q1179.65 1545.75 1183.68 1549.46 Q1187.77 1553.12 1193.5 1553.12 Q1200.39 1553.12 1205.16 1547.93 Q1209.94 1542.73 1209.94 1534.13 Q1209.94 1525.97 1205.32 1521.25 Q1200.76 1516.52 1193.34 1516.52 Q1188.72 1516.52 1185.01 1518.65 Q1181.3 1520.71 1179.17 1524.06 L1170.21 1522.89 L1177.74 1482.95 L1216.41 1482.95 L1216.41 1492.07 L1185.38 1492.07 L1181.19 1512.97 Q1188.19 1508.09 1195.88 1508.09 Q1206.07 1508.09 1213.07 1515.15 Q1220.07 1522.2 1220.07 1533.29 Q1220.07 1543.84 1213.92 1551.53 Q1206.44 1560.97 1193.5 1560.97 Q1182.89 1560.97 1176.15 1555.03 Q1169.47 1549.09 1168.51 1539.28 Z" fill="#000000" fill-rule="nonzero" fill-opacity="1" /><path clip-path="url(#clip010)" d="M1249 1521.3 Q1249 1507.51 1251.81 1499.13 Q1254.68 1490.69 1260.25 1486.13 Q1265.87 1481.57 1274.36 1481.57 Q1280.62 1481.57 1285.34 1484.12 Q1290.06 1486.61 1293.13 1491.38 Q1296.21 1496.1 1297.96 1502.95 Q1299.71 1509.74 1299.71 1521.3 Q1299.71 1534.98 1296.9 1543.42 Q1294.09 1551.8 1288.47 1556.41 Q1282.9 1560.97 1274.36 1560.97 Q1263.11 1560.97 1256.69 1552.91 Q1249 1543.2 1249 1521.3 M1258.82 1521.3 Q1258.82 1540.45 1263.27 1546.81 Q1267.78 1553.12 1274.36 1553.12 Q1280.94 1553.12 1285.39 1546.76 Q1289.9 1540.39 1289.9 1521.3 Q1289.9 1502.1 1285.39 1495.78 Q1280.94 1489.47 1274.25 1489.47 Q1267.67 1489.47 1263.75 1495.04 Q1258.82 1502.15 1258.82 1521.3 Z" fill="#000000" fill-rule="nonzero" fill-opacity="1" /><path clip-path="url(#clip010)" d="M1314.78 1559.65 L1314.78 1548.77 L1325.65 1548.77 L1325.65 1559.65 L1314.78 1559.65 Z" fill="#000000" fill-rule="nonzero" fill-opacity="1" /><path clip-path="url(#clip010)" d="M1339.6 1521.3 Q1339.6 1507.51 1342.41 1499.13 Q1345.28 1490.69 1350.84 1486.13 Q1356.47 1481.57 1364.95 1481.57 Q1371.21 1481.57 1375.93 1484.12 Q1380.65 1486.61 1383.73 1491.38 Q1386.81 1496.1 1388.56 1502.95 Q1390.31 1509.74 1390.31 1521.3 Q1390.31 1534.98 1387.5 1543.42 Q1384.69 1551.8 1379.06 1556.41 Q1373.49 1560.97 1364.95 1560.97 Q1353.71 1560.97 1347.29 1552.91 Q1339.6 1543.2 1339.6 1521.3 M1349.41 1521.3 Q1349.41 1540.45 1353.87 1546.81 Q1358.38 1553.12 1364.95 1553.12 Q1371.53 1553.12 1375.99 1546.76 Q1380.5 1540.39 1380.5 1521.3 Q1380.5 1502.1 1375.99 1495.78 Q1371.53 1489.47 1364.85 1489.47 Q1358.27 1489.47 1354.35 1495.04 Q1349.41 1502.15 1349.41 1521.3 Z" fill="#000000" fill-rule="nonzero" fill-opacity="1" /><path clip-path="url(#clip010)" d="M1400.02 1521.3 Q1400.02 1507.51 1402.83 1499.13 Q1405.69 1490.69 1411.26 1486.13 Q1416.88 1481.57 1425.37 1481.57 Q1431.63 1481.57 1436.35 1484.12 Q1441.07 1486.61 1444.15 1491.38 Q1447.22 1496.1 1448.97 1502.95 Q1450.72 1509.74 1450.72 1521.3 Q1450.72 1534.98 1447.91 1543.42 Q1445.1 1551.8 1439.48 1556.41 Q1433.91 1560.97 1425.37 1560.97 Q1414.12 1560.97 1407.71 1552.91 Q1400.02 1543.2 1400.02 1521.3 M1409.83 1521.3 Q1409.83 1540.45 1414.28 1546.81 Q1418.79 1553.12 1425.37 1553.12 Q1431.95 1553.12 1436.4 1546.76 Q1440.91 1540.39 1440.91 1521.3 Q1440.91 1502.1 1436.4 1495.78 Q1431.95 1489.47 1425.26 1489.47 Q1418.69 1489.47 1414.76 1495.04 Q1409.83 1502.15 1409.83 1521.3 Z" fill="#000000" fill-rule="nonzero" fill-opacity="1" /><path clip-path="url(#clip010)" d="M1510.61 1521.3 Q1510.61 1507.51 1513.42 1499.13 Q1516.28 1490.69 1521.85 1486.13 Q1527.48 1481.57 1535.96 1481.57 Q1542.22 1481.57 1546.94 1484.12 Q1551.66 1486.61 1554.74 1491.38 Q1557.82 1496.1 1559.57 1502.95 Q1561.32 1509.74 1561.32 1521.3 Q1561.32 1534.98 1558.51 1543.42 Q1555.69 1551.8 1550.07 1556.41 Q1544.5 1560.97 1535.96 1560.97 Q1524.72 1560.97 1518.3 1552.91 Q1510.61 1543.2 1510.61 1521.3 M1520.42 1521.3 Q1520.42 1540.45 1524.88 1546.81 Q1529.38 1553.12 1535.96 1553.12 Q1542.54 1553.12 1547 1546.76 Q1551.5 1540.39 1551.5 1521.3 Q1551.5 1502.1 1547 1495.78 Q1542.54 1489.47 1535.86 1489.47 Q1529.28 1489.47 1525.35 1495.04 Q1520.42 1502.15 1520.42 1521.3 Z" fill="#000000" fill-rule="nonzero" fill-opacity="1" /><path clip-path="url(#clip010)" d="M1576.38 1559.65 L1576.38 1548.77 L1587.25 1548.77 L1587.25 1559.65 L1576.38 1559.65 Z" fill="#000000" fill-rule="nonzero" fill-opacity="1" /><path clip-path="url(#clip010)" d="M1651.38 1550.47 L1651.38 1559.65 L1599.98 1559.65 Q1599.88 1556.2 1601.1 1553.02 Q1603.06 1547.77 1607.36 1542.67 Q1611.71 1537.58 1619.88 1530.9 Q1632.55 1520.5 1637.01 1514.46 Q1641.46 1508.36 1641.46 1502.95 Q1641.46 1497.27 1637.38 1493.4 Q1633.35 1489.47 1626.82 1489.47 Q1619.93 1489.47 1615.79 1493.61 Q1611.65 1497.75 1611.6 1505.07 L1601.79 1504.06 Q1602.8 1493.08 1609.37 1487.35 Q1615.95 1481.57 1627.04 1481.57 Q1638.23 1481.57 1644.75 1487.78 Q1651.28 1493.98 1651.28 1503.16 Q1651.28 1507.83 1649.37 1512.33 Q1647.46 1516.84 1643 1521.83 Q1638.6 1526.81 1628.31 1535.51 Q1619.72 1542.73 1617.28 1545.33 Q1614.84 1547.87 1613.24 1550.47 L1651.38 1550.47 Z" fill="#000000" fill-rule="nonzero" fill-opacity="1" /><path clip-path="url(#clip010)" d="M1661.62 1539.28 L1671.64 1538.43 Q1672.76 1545.75 1676.79 1549.46 Q1680.87 1553.12 1686.6 1553.12 Q1693.5 1553.12 1698.27 1547.93 Q1703.05 1542.73 1703.05 1534.13 Q1703.05 1525.97 1698.43 1521.25 Q1693.87 1516.52 1686.44 1516.52 Q1681.83 1516.52 1678.12 1518.65 Q1674.4 1520.71 1672.28 1524.06 L1663.32 1522.89 L1670.85 1482.95 L1709.52 1482.95 L1709.52 1492.07 L1678.49 1492.07 L1674.3 1512.97 Q1681.3 1508.09 1688.99 1508.09 Q1699.17 1508.09 1706.17 1515.15 Q1713.18 1522.2 1713.18 1533.29 Q1713.18 1543.84 1707.02 1551.53 Q1699.54 1560.97 1686.6 1560.97 Q1675.99 1560.97 1669.26 1555.03 Q1662.57 1549.09 1661.62 1539.28 Z" fill="#000000" fill-rule="nonzero" fill-opacity="1" /><path clip-path="url(#clip010)" d="M1773.06 1521.3 Q1773.06 1507.51 1775.87 1499.13 Q1778.74 1490.69 1784.31 1486.13 Q1789.93 1481.57 1798.42 1481.57 Q1804.67 1481.57 1809.4 1484.12 Q1814.12 1486.61 1817.19 1491.38 Q1820.27 1496.1 1822.02 1502.95 Q1823.77 1509.74 1823.77 1521.3 Q1823.77 1534.98 1820.96 1543.42 Q1818.15 1551.8 1812.52 1556.41 Q1806.96 1560.97 1798.42 1560.97 Q1787.17 1560.97 1780.75 1552.91 Q1773.06 1543.2 1773.06 1521.3 M1782.87 1521.3 Q1782.87 1540.45 1787.33 1546.81 Q1791.84 1553.12 1798.42 1553.12 Q1804.99 1553.12 1809.45 1546.76 Q1813.96 1540.39 1813.96 1521.3 Q1813.96 1502.1 1809.45 1495.78 Q1804.99 1489.47 1798.31 1489.47 Q1791.73 1489.47 1787.81 1495.04 Q1782.87 1502.15 1782.87 1521.3 Z" fill="#000000" fill-rule="nonzero" fill-opacity="1" /><path clip-path="url(#clip010)" d="M1838.83 1559.65 L1838.83 1548.77 L1849.71 1548.77 L1849.71 1559.65 L1838.83 1559.65 Z" fill="#000000" fill-rule="nonzero" fill-opacity="1" /><path clip-path="url(#clip010)" d="M1863.66 1539.28 L1873.68 1538.43 Q1874.8 1545.75 1878.83 1549.46 Q1882.91 1553.12 1888.64 1553.12 Q1895.54 1553.12 1900.31 1547.93 Q1905.08 1542.73 1905.08 1534.13 Q1905.08 1525.97 1900.47 1521.25 Q1895.91 1516.52 1888.48 1516.52 Q1883.87 1516.52 1880.15 1518.65 Q1876.44 1520.71 1874.32 1524.06 L1865.35 1522.89 L1872.89 1482.95 L1911.55 1482.95 L1911.55 1492.07 L1880.52 1492.07 L1876.33 1512.97 Q1883.34 1508.09 1891.03 1508.09 Q1901.21 1508.09 1908.21 1515.15 Q1915.21 1522.2 1915.21 1533.29 Q1915.21 1543.84 1909.06 1551.53 Q1901.58 1560.97 1888.64 1560.97 Q1878.03 1560.97 1871.3 1555.03 Q1864.61 1549.09 1863.66 1539.28 Z" fill="#000000" fill-rule="nonzero" fill-opacity="1" /><path clip-path="url(#clip010)" d="M1924.07 1521.3 Q1924.07 1507.51 1926.88 1499.13 Q1929.75 1490.69 1935.32 1486.13 Q1940.94 1481.57 1949.43 1481.57 Q1955.69 1481.57 1960.41 1484.12 Q1965.13 1486.61 1968.2 1491.38 Q1971.28 1496.1 1973.03 1502.95 Q1974.78 1509.74 1974.78 1521.3 Q1974.78 1534.98 1971.97 1543.42 Q1969.16 1551.8 1963.54 1556.41 Q1957.97 1560.97 1949.43 1560.97 Q1938.18 1560.97 1931.76 1552.91 Q1924.07 1543.2 1924.07 1521.3 M1933.89 1521.3 Q1933.89 1540.45 1938.34 1546.81 Q1942.85 1553.12 1949.43 1553.12 Q1956 1553.12 1960.46 1546.76 Q1964.97 1540.39 1964.97 1521.3 Q1964.97 1502.1 1960.46 1495.78 Q1956 1489.47 1949.32 1489.47 Q1942.74 1489.47 1938.82 1495.04 Q1933.89 1502.15 1933.89 1521.3 Z" fill="#000000" fill-rule="nonzero" fill-opacity="1" /><path clip-path="url(#clip010)" d="M2034.67 1521.3 Q2034.67 1507.51 2037.48 1499.13 Q2040.34 1490.69 2045.91 1486.13 Q2051.53 1481.57 2060.02 1481.57 Q2066.28 1481.57 2071 1484.12 Q2075.72 1486.61 2078.8 1491.38 Q2081.87 1496.1 2083.62 1502.95 Q2085.37 1509.74 2085.37 1521.3 Q2085.37 1534.98 2082.56 1543.42 Q2079.75 1551.8 2074.13 1556.41 Q2068.56 1560.97 2060.02 1560.97 Q2048.77 1560.97 2042.36 1552.91 Q2034.67 1543.2 2034.67 1521.3 M2044.48 1521.3 Q2044.48 1540.45 2048.93 1546.81 Q2053.44 1553.12 2060.02 1553.12 Q2066.6 1553.12 2071.05 1546.76 Q2075.56 1540.39 2075.56 1521.3 Q2075.56 1502.1 2071.05 1495.78 Q2066.6 1489.47 2059.91 1489.47 Q2053.34 1489.47 2049.41 1495.04 Q2044.48 1502.15 2044.48 1521.3 Z" fill="#000000" fill-rule="nonzero" fill-opacity="1" /><path clip-path="url(#clip010)" d="M2100.44 1559.65 L2100.44 1548.77 L2111.31 1548.77 L2111.31 1559.65 L2100.44 1559.65 Z" fill="#000000" fill-rule="nonzero" fill-opacity="1" /><path clip-path="url(#clip010)" d="M2125.9 1492.07 L2125.9 1482.9 L2176.24 1482.9 L2176.24 1490.32 Q2168.81 1498.22 2161.49 1511.33 Q2154.22 1524.43 2150.24 1538.27 Q2147.38 1548.03 2146.58 1559.65 L2136.77 1559.65 Q2136.93 1550.47 2140.38 1537.48 Q2143.83 1524.48 2150.24 1512.44 Q2156.72 1500.35 2163.98 1492.07 L2125.9 1492.07 Z" fill="#000000" fill-rule="nonzero" fill-opacity="1" /><path clip-path="url(#clip010)" d="M2185.68 1539.28 L2195.7 1538.43 Q2196.82 1545.75 2200.85 1549.46 Q2204.93 1553.12 2210.66 1553.12 Q2217.56 1553.12 2222.33 1547.93 Q2227.1 1542.73 2227.1 1534.13 Q2227.1 1525.97 2222.49 1521.25 Q2217.93 1516.52 2210.5 1516.52 Q2205.89 1516.52 2202.17 1518.65 Q2198.46 1520.71 2196.34 1524.06 L2187.37 1522.89 L2194.91 1482.95 L2233.57 1482.95 L2233.57 1492.07 L2202.54 1492.07 L2198.35 1512.97 Q2205.36 1508.09 2213.05 1508.09 Q2223.23 1508.09 2230.23 1515.15 Q2237.23 1522.2 2237.23 1533.29 Q2237.23 1543.84 2231.08 1551.53 Q2223.6 1560.97 2210.66 1560.97 Q2200.05 1560.97 2193.32 1555.03 Q2186.63 1549.09 2185.68 1539.28 Z" fill="#000000" fill-rule="nonzero" fill-opacity="1" /><polyline clip-path="url(#clip010)" style="stroke:#000000; stroke-linecap:round; stroke-linejoin:round; stroke-width:4; stroke-opacity:1; fill:none" points="351.461,1443.25 351.461,47.2441 "/>
<polyline clip-path="url(#clip010)" style="stroke:#000000; stroke-linecap:round; stroke-linejoin:round; stroke-width:2; stroke-opacity:0.5; fill:none" points="2352.76,1443.25 2352.76,47.2441 "/>
<polyline clip-path="url(#clip010)" style="stroke:#000000; stroke-linecap:round; stroke-linejoin:round; stroke-width:4; stroke-opacity:1; fill:none" points="351.461,1280.2 370.359,1280.2 "/>
<polyline clip-path="url(#clip010)" style="stroke:#000000; stroke-linecap:round; stroke-linejoin:round; stroke-width:4; stroke-opacity:1; fill:none" points="351.461,1099.81 370.359,1099.81 "/>
<polyline clip-path="url(#clip010)" style="stroke:#000000; stroke-linecap:round; stroke-linejoin:round; stroke-width:4; stroke-opacity:1; fill:none" points="351.461,919.426 370.359,919.426 "/>
<polyline clip-path="url(#clip010)" style="stroke:#000000; stroke-linecap:round; stroke-linejoin:round; stroke-width:4; stroke-opacity:1; fill:none" points="351.461,739.037 370.359,739.037 "/>
<polyline clip-path="url(#clip010)" style="stroke:#000000; stroke-linecap:round; stroke-linejoin:round; stroke-width:4; stroke-opacity:1; fill:none" points="351.461,558.649 370.359,558.649 "/>
<polyline clip-path="url(#clip010)" style="stroke:#000000; stroke-linecap:round; stroke-linejoin:round; stroke-width:4; stroke-opacity:1; fill:none" points="351.461,378.261 370.359,378.261 "/>
<polyline clip-path="url(#clip010)" style="stroke:#000000; stroke-linecap:round; stroke-linejoin:round; stroke-width:4; stroke-opacity:1; fill:none" points="351.461,197.873 370.359,197.873 "/>
<path clip-path="url(#clip010)" d="M102.337 1285.19 L50.9921 1285.19 L50.9921 1276.28 L102.337 1276.28 L102.337 1285.19 Z" fill="#000000" fill-rule="nonzero" fill-opacity="1" /><path clip-path="url(#clip010)" d="M112.892 1280.73 Q112.892 1266.94 115.704 1258.56 Q118.568 1250.13 124.137 1245.57 Q129.76 1241 138.247 1241 Q144.506 1241 149.226 1243.55 Q153.947 1246.04 157.024 1250.82 Q160.1 1255.54 161.851 1262.38 Q163.601 1269.17 163.601 1280.73 Q163.601 1294.42 160.79 1302.85 Q157.978 1311.23 152.356 1315.85 Q146.787 1320.41 138.247 1320.41 Q127.002 1320.41 120.584 1312.35 Q112.892 1302.64 112.892 1280.73 M122.705 1280.73 Q122.705 1299.88 127.161 1306.25 Q131.669 1312.56 138.247 1312.56 Q144.824 1312.56 149.279 1306.19 Q153.788 1299.83 153.788 1280.73 Q153.788 1261.53 149.279 1255.22 Q144.824 1248.91 138.141 1248.91 Q131.563 1248.91 127.638 1254.48 Q122.705 1261.58 122.705 1280.73 Z" fill="#000000" fill-rule="nonzero" fill-opacity="1" /><path clip-path="url(#clip010)" d="M178.665 1319.08 L178.665 1308.21 L189.539 1308.21 L189.539 1319.08 L178.665 1319.08 Z" fill="#000000" fill-rule="nonzero" fill-opacity="1" /><path clip-path="url(#clip010)" d="M204.125 1251.51 L204.125 1242.33 L254.462 1242.33 L254.462 1249.76 Q247.036 1257.66 239.717 1270.76 Q232.45 1283.86 228.472 1297.71 Q225.607 1307.47 224.812 1319.08 L214.999 1319.08 Q215.158 1309.91 218.606 1296.91 Q222.054 1283.91 228.472 1271.87 Q234.943 1259.78 242.21 1251.51 L204.125 1251.51 Z" fill="#000000" fill-rule="nonzero" fill-opacity="1" /><path clip-path="url(#clip010)" d="M263.904 1298.71 L273.929 1297.86 Q275.043 1305.18 279.074 1308.9 Q283.158 1312.56 288.887 1312.56 Q295.782 1312.56 300.556 1307.36 Q305.33 1302.16 305.33 1293.57 Q305.33 1285.4 300.715 1280.68 Q296.154 1275.96 288.728 1275.96 Q284.113 1275.96 280.4 1278.08 Q276.687 1280.15 274.565 1283.49 L265.601 1282.32 L273.133 1242.38 L311.801 1242.38 L311.801 1251.51 L280.771 1251.51 L276.581 1272.4 Q283.583 1267.52 291.274 1267.52 Q301.458 1267.52 308.459 1274.58 Q315.461 1281.63 315.461 1292.72 Q315.461 1303.28 309.308 1310.97 Q301.829 1320.41 288.887 1320.41 Q278.278 1320.41 271.542 1314.47 Q264.859 1308.53 263.904 1298.71 Z" fill="#000000" fill-rule="nonzero" fill-opacity="1" /><path clip-path="url(#clip010)" d="M103.186 1104.8 L51.8408 1104.8 L51.8408 1095.89 L103.186 1095.89 L103.186 1104.8 Z" fill="#000000" fill-rule="nonzero" fill-opacity="1" /><path clip-path="url(#clip010)" d="M113.741 1100.34 Q113.741 1086.55 116.552 1078.17 Q119.417 1069.74 124.986 1065.18 Q130.609 1060.62 139.095 1060.62 Q145.354 1060.62 150.075 1063.16 Q154.796 1065.65 157.872 1070.43 Q160.949 1075.15 162.699 1081.99 Q164.45 1088.78 164.45 1100.34 Q164.45 1114.03 161.638 1122.46 Q158.827 1130.84 153.205 1135.46 Q147.635 1140.02 139.095 1140.02 Q127.85 1140.02 121.432 1131.96 Q113.741 1122.25 113.741 1100.34 M123.554 1100.34 Q123.554 1119.49 128.01 1125.86 Q132.518 1132.17 139.095 1132.17 Q145.673 1132.17 150.128 1125.8 Q154.637 1119.44 154.637 1100.34 Q154.637 1081.14 150.128 1074.83 Q145.673 1068.52 138.989 1068.52 Q132.412 1068.52 128.487 1074.09 Q123.554 1081.2 123.554 1100.34 Z" fill="#000000" fill-rule="nonzero" fill-opacity="1" /><path clip-path="url(#clip010)" d="M179.514 1138.69 L179.514 1127.82 L190.387 1127.82 L190.387 1138.69 L179.514 1138.69 Z" fill="#000000" fill-rule="nonzero" fill-opacity="1" /><path clip-path="url(#clip010)" d="M204.337 1118.33 L214.362 1117.48 Q215.476 1124.8 219.507 1128.51 Q223.592 1132.17 229.32 1132.17 Q236.216 1132.17 240.99 1126.97 Q245.763 1121.77 245.763 1113.18 Q245.763 1105.01 241.149 1100.29 Q236.587 1095.57 229.161 1095.57 Q224.547 1095.57 220.834 1097.69 Q217.121 1099.76 214.999 1103.1 L206.035 1101.94 L213.567 1061.99 L252.235 1061.99 L252.235 1071.12 L221.205 1071.12 L217.014 1092.02 Q224.016 1087.14 231.707 1087.14 Q241.891 1087.14 248.893 1094.19 Q255.894 1101.25 255.894 1112.33 Q255.894 1122.89 249.742 1130.58 Q242.263 1140.02 229.32 1140.02 Q218.712 1140.02 211.975 1134.08 Q205.292 1128.14 204.337 1118.33 Z" fill="#000000" fill-rule="nonzero" fill-opacity="1" /><path clip-path="url(#clip010)" d="M264.753 1100.34 Q264.753 1086.55 267.564 1078.17 Q270.428 1069.74 275.998 1065.18 Q281.62 1060.62 290.107 1060.62 Q296.366 1060.62 301.087 1063.16 Q305.807 1065.65 308.884 1070.43 Q311.96 1075.15 313.711 1081.99 Q315.461 1088.78 315.461 1100.34 Q315.461 1114.03 312.65 1122.46 Q309.839 1130.84 304.216 1135.46 Q298.647 1140.02 290.107 1140.02 Q278.862 1140.02 272.444 1131.96 Q264.753 1122.25 264.753 1100.34 M274.565 1100.34 Q274.565 1119.49 279.021 1125.86 Q283.53 1132.17 290.107 1132.17 Q296.684 1132.17 301.14 1125.8 Q305.648 1119.44 305.648 1100.34 Q305.648 1081.14 301.14 1074.83 Q296.684 1068.52 290.001 1068.52 Q283.423 1068.52 279.498 1074.09 Q274.565 1081.2 274.565 1100.34 Z" fill="#000000" fill-rule="nonzero" fill-opacity="1" /><path clip-path="url(#clip010)" d="M102.337 924.412 L50.9921 924.412 L50.9921 915.5 L102.337 915.5 L102.337 924.412 Z" fill="#000000" fill-rule="nonzero" fill-opacity="1" /><path clip-path="url(#clip010)" d="M112.892 919.956 Q112.892 906.165 115.704 897.784 Q118.568 889.351 124.137 884.789 Q129.76 880.227 138.247 880.227 Q144.506 880.227 149.226 882.773 Q153.947 885.266 157.024 890.04 Q160.1 894.761 161.851 901.603 Q163.601 908.393 163.601 919.956 Q163.601 933.641 160.79 942.075 Q157.978 950.455 152.356 955.07 Q146.787 959.632 138.247 959.632 Q127.002 959.632 120.584 951.569 Q112.892 941.862 112.892 919.956 M122.705 919.956 Q122.705 939.104 127.161 945.469 Q131.669 951.781 138.247 951.781 Q144.824 951.781 149.279 945.416 Q153.788 939.051 153.788 919.956 Q153.788 900.755 149.279 894.443 Q144.824 888.131 138.141 888.131 Q131.563 888.131 127.638 893.7 Q122.705 900.808 122.705 919.956 Z" fill="#000000" fill-rule="nonzero" fill-opacity="1" /><path clip-path="url(#clip010)" d="M178.665 958.306 L178.665 947.432 L189.539 947.432 L189.539 958.306 L178.665 958.306 Z" fill="#000000" fill-rule="nonzero" fill-opacity="1" /><path clip-path="url(#clip010)" d="M253.667 949.129 L253.667 958.306 L202.269 958.306 Q202.163 954.858 203.383 951.675 Q205.345 946.424 209.642 941.332 Q213.991 936.24 222.16 929.557 Q234.837 919.16 239.292 913.114 Q243.748 907.014 243.748 901.603 Q243.748 895.928 239.664 892.056 Q235.632 888.131 229.108 888.131 Q222.213 888.131 218.075 892.268 Q213.938 896.405 213.885 903.725 L204.072 902.717 Q205.08 891.737 211.657 886.009 Q218.234 880.227 229.32 880.227 Q240.512 880.227 247.036 886.433 Q253.561 892.639 253.561 901.815 Q253.561 906.483 251.651 910.992 Q249.742 915.5 245.286 920.486 Q240.884 925.472 230.593 934.171 Q222 941.385 219.561 943.984 Q217.121 946.53 215.529 949.129 L253.667 949.129 Z" fill="#000000" fill-rule="nonzero" fill-opacity="1" /><path clip-path="url(#clip010)" d="M263.904 937.937 L273.929 937.089 Q275.043 944.408 279.074 948.121 Q283.158 951.781 288.887 951.781 Q295.782 951.781 300.556 946.583 Q305.33 941.385 305.33 932.792 Q305.33 924.624 300.715 919.903 Q296.154 915.182 288.728 915.182 Q284.113 915.182 280.4 917.304 Q276.687 919.372 274.565 922.714 L265.601 921.547 L273.133 881.606 L311.801 881.606 L311.801 890.73 L280.771 890.73 L276.581 911.628 Q283.583 906.748 291.274 906.748 Q301.458 906.748 308.459 913.803 Q315.461 920.858 315.461 931.944 Q315.461 942.499 309.308 950.19 Q301.829 959.632 288.887 959.632 Q278.278 959.632 271.542 953.691 Q264.859 947.75 263.904 937.937 Z" fill="#000000" fill-rule="nonzero" fill-opacity="1" /><path clip-path="url(#clip010)" d="M113.741 739.568 Q113.741 725.777 116.552 717.396 Q119.417 708.962 124.986 704.401 Q130.609 699.839 139.095 699.839 Q145.354 699.839 150.075 702.385 Q154.796 704.878 157.872 709.652 Q160.949 714.373 162.699 721.215 Q164.45 728.005 164.45 739.568 Q164.45 753.253 161.638 761.686 Q158.827 770.067 153.205 774.682 Q147.635 779.243 139.095 779.243 Q127.85 779.243 121.432 771.181 Q113.741 761.474 113.741 739.568 M123.554 739.568 Q123.554 758.716 128.01 765.081 Q132.518 771.393 139.095 771.393 Q145.673 771.393 150.128 765.028 Q154.637 758.663 154.637 739.568 Q154.637 720.367 150.128 714.054 Q145.673 707.742 138.989 707.742 Q132.412 707.742 128.487 713.312 Q123.554 720.42 123.554 739.568 Z" fill="#000000" fill-rule="nonzero" fill-opacity="1" /><path clip-path="url(#clip010)" d="M179.514 777.917 L179.514 767.044 L190.387 767.044 L190.387 777.917 L179.514 777.917 Z" fill="#000000" fill-rule="nonzero" fill-opacity="1" /><path clip-path="url(#clip010)" d="M204.337 739.568 Q204.337 725.777 207.149 717.396 Q210.013 708.962 215.582 704.401 Q221.205 699.839 229.692 699.839 Q235.951 699.839 240.671 702.385 Q245.392 704.878 248.469 709.652 Q251.545 714.373 253.295 721.215 Q255.046 728.005 255.046 739.568 Q255.046 753.253 252.235 761.686 Q249.423 770.067 243.801 774.682 Q238.231 779.243 229.692 779.243 Q218.447 779.243 212.029 771.181 Q204.337 761.474 204.337 739.568 M214.15 739.568 Q214.15 758.716 218.606 765.081 Q223.114 771.393 229.692 771.393 Q236.269 771.393 240.724 765.028 Q245.233 758.663 245.233 739.568 Q245.233 720.367 240.724 714.054 Q236.269 707.742 229.586 707.742 Q223.008 707.742 219.083 713.312 Q214.15 720.42 214.15 739.568 Z" fill="#000000" fill-rule="nonzero" fill-opacity="1" /><path clip-path="url(#clip010)" d="M264.753 739.568 Q264.753 725.777 267.564 717.396 Q270.428 708.962 275.998 704.401 Q281.62 699.839 290.107 699.839 Q296.366 699.839 301.087 702.385 Q305.807 704.878 308.884 709.652 Q311.96 714.373 313.711 721.215 Q315.461 728.005 315.461 739.568 Q315.461 753.253 312.65 761.686 Q309.839 770.067 304.216 774.682 Q298.647 779.243 290.107 779.243 Q278.862 779.243 272.444 771.181 Q264.753 761.474 264.753 739.568 M274.565 739.568 Q274.565 758.716 279.021 765.081 Q283.53 771.393 290.107 771.393 Q296.684 771.393 301.14 765.028 Q305.648 758.663 305.648 739.568 Q305.648 720.367 301.14 714.054 Q296.684 707.742 290.001 707.742 Q283.423 707.742 279.498 713.312 Q274.565 720.42 274.565 739.568 Z" fill="#000000" fill-rule="nonzero" fill-opacity="1" /><path clip-path="url(#clip010)" d="M112.892 559.18 Q112.892 545.389 115.704 537.008 Q118.568 528.574 124.137 524.013 Q129.76 519.451 138.247 519.451 Q144.506 519.451 149.226 521.997 Q153.947 524.49 157.024 529.264 Q160.1 533.985 161.851 540.827 Q163.601 547.616 163.601 559.18 Q163.601 572.865 160.79 581.298 Q157.978 589.679 152.356 594.294 Q146.787 598.855 138.247 598.855 Q127.002 598.855 120.584 590.793 Q112.892 581.086 112.892 559.18 M122.705 559.18 Q122.705 578.328 127.161 584.693 Q131.669 591.005 138.247 591.005 Q144.824 591.005 149.279 584.64 Q153.788 578.275 153.788 559.18 Q153.788 539.978 149.279 533.666 Q144.824 527.354 138.141 527.354 Q131.563 527.354 127.638 532.924 Q122.705 540.031 122.705 559.18 Z" fill="#000000" fill-rule="nonzero" fill-opacity="1" /><path clip-path="url(#clip010)" d="M178.665 597.529 L178.665 586.656 L189.539 586.656 L189.539 597.529 L178.665 597.529 Z" fill="#000000" fill-rule="nonzero" fill-opacity="1" /><path clip-path="url(#clip010)" d="M253.667 588.353 L253.667 597.529 L202.269 597.529 Q202.163 594.081 203.383 590.899 Q205.345 585.648 209.642 580.556 Q213.991 575.464 222.16 568.78 Q234.837 558.384 239.292 552.337 Q243.748 546.237 243.748 540.827 Q243.748 535.152 239.664 531.279 Q235.632 527.354 229.108 527.354 Q222.213 527.354 218.075 531.492 Q213.938 535.629 213.885 542.949 L204.072 541.941 Q205.08 530.961 211.657 525.233 Q218.234 519.451 229.32 519.451 Q240.512 519.451 247.036 525.657 Q253.561 531.863 253.561 541.039 Q253.561 545.707 251.651 550.216 Q249.742 554.724 245.286 559.71 Q240.884 564.696 230.593 573.395 Q222 580.609 219.561 583.208 Q217.121 585.754 215.529 588.353 L253.667 588.353 Z" fill="#000000" fill-rule="nonzero" fill-opacity="1" /><path clip-path="url(#clip010)" d="M263.904 577.161 L273.929 576.312 Q275.043 583.632 279.074 587.345 Q283.158 591.005 288.887 591.005 Q295.782 591.005 300.556 585.807 Q305.33 580.609 305.33 572.016 Q305.33 563.847 300.715 559.127 Q296.154 554.406 288.728 554.406 Q284.113 554.406 280.4 556.528 Q276.687 558.596 274.565 561.938 L265.601 560.771 L273.133 520.83 L311.801 520.83 L311.801 529.953 L280.771 529.953 L276.581 550.852 Q283.583 545.972 291.274 545.972 Q301.458 545.972 308.459 553.027 Q315.461 560.081 315.461 571.167 Q315.461 581.723 309.308 589.414 Q301.829 598.855 288.887 598.855 Q278.278 598.855 271.542 592.915 Q264.859 586.974 263.904 577.161 Z" fill="#000000" fill-rule="nonzero" fill-opacity="1" /><path clip-path="url(#clip010)" d="M113.741 378.792 Q113.741 365.001 116.552 356.62 Q119.417 348.186 124.986 343.624 Q130.609 339.063 139.095 339.063 Q145.354 339.063 150.075 341.609 Q154.796 344.102 157.872 348.876 Q160.949 353.596 162.699 360.439 Q164.45 367.228 164.45 378.792 Q164.45 392.476 161.638 400.91 Q158.827 409.291 153.205 413.906 Q147.635 418.467 139.095 418.467 Q127.85 418.467 121.432 410.405 Q113.741 400.698 113.741 378.792 M123.554 378.792 Q123.554 397.94 128.01 404.305 Q132.518 410.617 139.095 410.617 Q145.673 410.617 150.128 404.252 Q154.637 397.887 154.637 378.792 Q154.637 359.59 150.128 353.278 Q145.673 346.966 138.989 346.966 Q132.412 346.966 128.487 352.536 Q123.554 359.643 123.554 378.792 Z" fill="#000000" fill-rule="nonzero" fill-opacity="1" /><path clip-path="url(#clip010)" d="M179.514 417.141 L179.514 406.267 L190.387 406.267 L190.387 417.141 L179.514 417.141 Z" fill="#000000" fill-rule="nonzero" fill-opacity="1" /><path clip-path="url(#clip010)" d="M204.337 396.773 L214.362 395.924 Q215.476 403.244 219.507 406.957 Q223.592 410.617 229.32 410.617 Q236.216 410.617 240.99 405.419 Q245.763 400.221 245.763 391.628 Q245.763 383.459 241.149 378.738 Q236.587 374.018 229.161 374.018 Q224.547 374.018 220.834 376.139 Q217.121 378.208 214.999 381.55 L206.035 380.383 L213.567 340.442 L252.235 340.442 L252.235 349.565 L221.205 349.565 L217.014 370.464 Q224.016 365.584 231.707 365.584 Q241.891 365.584 248.893 372.639 Q255.894 379.693 255.894 390.779 Q255.894 401.334 249.742 409.026 Q242.263 418.467 229.32 418.467 Q218.712 418.467 211.975 412.526 Q205.292 406.586 204.337 396.773 Z" fill="#000000" fill-rule="nonzero" fill-opacity="1" /><path clip-path="url(#clip010)" d="M264.753 378.792 Q264.753 365.001 267.564 356.62 Q270.428 348.186 275.998 343.624 Q281.62 339.063 290.107 339.063 Q296.366 339.063 301.087 341.609 Q305.807 344.102 308.884 348.876 Q311.96 353.596 313.711 360.439 Q315.461 367.228 315.461 378.792 Q315.461 392.476 312.65 400.91 Q309.839 409.291 304.216 413.906 Q298.647 418.467 290.107 418.467 Q278.862 418.467 272.444 410.405 Q264.753 400.698 264.753 378.792 M274.565 378.792 Q274.565 397.94 279.021 404.305 Q283.53 410.617 290.107 410.617 Q296.684 410.617 301.14 404.252 Q305.648 397.887 305.648 378.792 Q305.648 359.59 301.14 353.278 Q296.684 346.966 290.001 346.966 Q283.423 346.966 279.498 352.536 Q274.565 359.643 274.565 378.792 Z" fill="#000000" fill-rule="nonzero" fill-opacity="1" /><path clip-path="url(#clip010)" d="M112.892 198.403 Q112.892 184.612 115.704 176.232 Q118.568 167.798 124.137 163.236 Q129.76 158.675 138.247 158.675 Q144.506 158.675 149.226 161.221 Q153.947 163.714 157.024 168.488 Q160.1 173.208 161.851 180.051 Q163.601 186.84 163.601 198.403 Q163.601 212.088 160.79 220.522 Q157.978 228.903 152.356 233.517 Q146.787 238.079 138.247 238.079 Q127.002 238.079 120.584 230.017 Q112.892 220.31 112.892 198.403 M122.705 198.403 Q122.705 217.552 127.161 223.917 Q131.669 230.229 138.247 230.229 Q144.824 230.229 149.279 223.864 Q153.788 217.499 153.788 198.403 Q153.788 179.202 149.279 172.89 Q144.824 166.578 138.141 166.578 Q131.563 166.578 127.638 172.147 Q122.705 179.255 122.705 198.403 Z" fill="#000000" fill-rule="nonzero" fill-opacity="1" /><path clip-path="url(#clip010)" d="M178.665 236.753 L178.665 225.879 L189.539 225.879 L189.539 236.753 L178.665 236.753 Z" fill="#000000" fill-rule="nonzero" fill-opacity="1" /><path clip-path="url(#clip010)" d="M204.125 169.177 L204.125 160.001 L254.462 160.001 L254.462 167.427 Q247.036 175.33 239.717 188.431 Q232.45 201.533 228.472 215.377 Q225.607 225.137 224.812 236.753 L214.999 236.753 Q215.158 227.577 218.606 214.581 Q222.054 201.586 228.472 189.545 Q234.943 177.452 242.21 169.177 L204.125 169.177 Z" fill="#000000" fill-rule="nonzero" fill-opacity="1" /><path clip-path="url(#clip010)" d="M263.904 216.385 L273.929 215.536 Q275.043 222.856 279.074 226.569 Q283.158 230.229 288.887 230.229 Q295.782 230.229 300.556 225.031 Q305.33 219.832 305.33 211.24 Q305.33 203.071 300.715 198.35 Q296.154 193.63 288.728 193.63 Q284.113 193.63 280.4 195.751 Q276.687 197.82 274.565 201.162 L265.601 199.995 L273.133 160.054 L311.801 160.054 L311.801 169.177 L280.771 169.177 L276.581 190.076 Q283.583 185.196 291.274 185.196 Q301.458 185.196 308.459 192.25 Q315.461 199.305 315.461 210.391 Q315.461 220.946 309.308 228.637 Q301.829 238.079 288.887 238.079 Q278.278 238.079 271.542 232.138 Q264.859 226.198 263.904 216.385 Z" fill="#000000" fill-rule="nonzero" fill-opacity="1" /><circle clip-path="url(#clip012)" cx="705.4" cy="516.262" r="14.4" fill="#009af9" fill-rule="evenodd" fill-opacity="1" stroke="#000000" stroke-opacity="1" stroke-width="3.2"/>
<circle clip-path="url(#clip012)" cx="657.213" cy="1275.47" r="14.4" fill="#009af9" fill-rule="evenodd" fill-opacity="1" stroke="#000000" stroke-opacity="1" stroke-width="3.2"/>
<circle clip-path="url(#clip012)" cx="1737.81" cy="695.644" r="14.4" fill="#009af9" fill-rule="evenodd" fill-opacity="1" stroke="#000000" stroke-opacity="1" stroke-width="3.2"/>
<circle clip-path="url(#clip012)" cx="1112.75" cy="757.144" r="14.4" fill="#009af9" fill-rule="evenodd" fill-opacity="1" stroke="#000000" stroke-opacity="1" stroke-width="3.2"/>
<circle clip-path="url(#clip012)" cx="1376.56" cy="960.589" r="14.4" fill="#009af9" fill-rule="evenodd" fill-opacity="1" stroke="#000000" stroke-opacity="1" stroke-width="3.2"/>
<circle clip-path="url(#clip012)" cx="828.669" cy="1349.09" r="14.4" fill="#009af9" fill-rule="evenodd" fill-opacity="1" stroke="#000000" stroke-opacity="1" stroke-width="3.2"/>
<circle clip-path="url(#clip012)" cx="1669.03" cy="679.97" r="14.4" fill="#009af9" fill-rule="evenodd" fill-opacity="1" stroke="#000000" stroke-opacity="1" stroke-width="3.2"/>
<circle clip-path="url(#clip012)" cx="1240.47" cy="471.513" r="14.4" fill="#009af9" fill-rule="evenodd" fill-opacity="1" stroke="#000000" stroke-opacity="1" stroke-width="3.2"/>
<circle clip-path="url(#clip012)" cx="1290.59" cy="456.828" r="14.4" fill="#009af9" fill-rule="evenodd" fill-opacity="1" stroke="#000000" stroke-opacity="1" stroke-width="3.2"/>
<circle clip-path="url(#clip012)" cx="1043.88" cy="803.01" r="14.4" fill="#009af9" fill-rule="evenodd" fill-opacity="1" stroke="#000000" stroke-opacity="1" stroke-width="3.2"/>
<circle clip-path="url(#clip012)" cx="1567.26" cy="321.629" r="14.4" fill="#009af9" fill-rule="evenodd" fill-opacity="1" stroke="#000000" stroke-opacity="1" stroke-width="3.2"/>
<circle clip-path="url(#clip012)" cx="1492.24" cy="927.254" r="14.4" fill="#009af9" fill-rule="evenodd" fill-opacity="1" stroke="#000000" stroke-opacity="1" stroke-width="3.2"/>
<circle clip-path="url(#clip012)" cx="1312.17" cy="604.311" r="14.4" fill="#009af9" fill-rule="evenodd" fill-opacity="1" stroke="#000000" stroke-opacity="1" stroke-width="3.2"/>
<circle clip-path="url(#clip012)" cx="1528.1" cy="802.623" r="14.4" fill="#009af9" fill-rule="evenodd" fill-opacity="1" stroke="#000000" stroke-opacity="1" stroke-width="3.2"/>
<circle clip-path="url(#clip012)" cx="1289.74" cy="759.455" r="14.4" fill="#009af9" fill-rule="evenodd" fill-opacity="1" stroke="#000000" stroke-opacity="1" stroke-width="3.2"/>
<circle clip-path="url(#clip012)" cx="2191.85" cy="599.344" r="14.4" fill="#009af9" fill-rule="evenodd" fill-opacity="1" stroke="#000000" stroke-opacity="1" stroke-width="3.2"/>
<circle clip-path="url(#clip012)" cx="579.163" cy="594.315" r="14.4" fill="#009af9" fill-rule="evenodd" fill-opacity="1" stroke="#000000" stroke-opacity="1" stroke-width="3.2"/>
<circle clip-path="url(#clip012)" cx="2135.06" cy="772.798" r="14.4" fill="#009af9" fill-rule="evenodd" fill-opacity="1" stroke="#000000" stroke-opacity="1" stroke-width="3.2"/>
<circle clip-path="url(#clip012)" cx="1560.91" cy="630.06" r="14.4" fill="#009af9" fill-rule="evenodd" fill-opacity="1" stroke="#000000" stroke-opacity="1" stroke-width="3.2"/>
<circle clip-path="url(#clip012)" cx="2135.77" cy="1085.11" r="14.4" fill="#009af9" fill-rule="evenodd" fill-opacity="1" stroke="#000000" stroke-opacity="1" stroke-width="3.2"/>
<circle clip-path="url(#clip012)" cx="1114.95" cy="530.126" r="14.4" fill="#009af9" fill-rule="evenodd" fill-opacity="1" stroke="#000000" stroke-opacity="1" stroke-width="3.2"/>
<circle clip-path="url(#clip012)" cx="1075.15" cy="536.107" r="14.4" fill="#009af9" fill-rule="evenodd" fill-opacity="1" stroke="#000000" stroke-opacity="1" stroke-width="3.2"/>
<circle clip-path="url(#clip012)" cx="1535.49" cy="975.187" r="14.4" fill="#009af9" fill-rule="evenodd" fill-opacity="1" stroke="#000000" stroke-opacity="1" stroke-width="3.2"/>
<circle clip-path="url(#clip012)" cx="1039.19" cy="857.882" r="14.4" fill="#009af9" fill-rule="evenodd" fill-opacity="1" stroke="#000000" stroke-opacity="1" stroke-width="3.2"/>
<circle clip-path="url(#clip012)" cx="1561.41" cy="626.552" r="14.4" fill="#009af9" fill-rule="evenodd" fill-opacity="1" stroke="#000000" stroke-opacity="1" stroke-width="3.2"/>
<circle clip-path="url(#clip012)" cx="1861.46" cy="238.758" r="14.4" fill="#009af9" fill-rule="evenodd" fill-opacity="1" stroke="#000000" stroke-opacity="1" stroke-width="3.2"/>
<circle clip-path="url(#clip012)" cx="1087.25" cy="928.788" r="14.4" fill="#009af9" fill-rule="evenodd" fill-opacity="1" stroke="#000000" stroke-opacity="1" stroke-width="3.2"/>
<circle clip-path="url(#clip012)" cx="1319.05" cy="70.7436" r="14.4" fill="#009af9" fill-rule="evenodd" fill-opacity="1" stroke="#000000" stroke-opacity="1" stroke-width="3.2"/>
<circle clip-path="url(#clip012)" cx="1138.39" cy="628.793" r="14.4" fill="#009af9" fill-rule="evenodd" fill-opacity="1" stroke="#000000" stroke-opacity="1" stroke-width="3.2"/>
<circle clip-path="url(#clip012)" cx="1547.99" cy="236.904" r="14.4" fill="#009af9" fill-rule="evenodd" fill-opacity="1" stroke="#000000" stroke-opacity="1" stroke-width="3.2"/>
<circle clip-path="url(#clip012)" cx="1714.7" cy="747.683" r="14.4" fill="#009af9" fill-rule="evenodd" fill-opacity="1" stroke="#000000" stroke-opacity="1" stroke-width="3.2"/>
<circle clip-path="url(#clip012)" cx="668.964" cy="730.443" r="14.4" fill="#009af9" fill-rule="evenodd" fill-opacity="1" stroke="#000000" stroke-opacity="1" stroke-width="3.2"/>
<circle clip-path="url(#clip012)" cx="781.498" cy="289.799" r="14.4" fill="#009af9" fill-rule="evenodd" fill-opacity="1" stroke="#000000" stroke-opacity="1" stroke-width="3.2"/>
<circle clip-path="url(#clip012)" cx="1575.97" cy="84.6094" r="14.4" fill="#009af9" fill-rule="evenodd" fill-opacity="1" stroke="#000000" stroke-opacity="1" stroke-width="3.2"/>
<circle clip-path="url(#clip012)" cx="658.066" cy="486.428" r="14.4" fill="#009af9" fill-rule="evenodd" fill-opacity="1" stroke="#000000" stroke-opacity="1" stroke-width="3.2"/>
<circle clip-path="url(#clip012)" cx="1024.09" cy="849.098" r="14.4" fill="#009af9" fill-rule="evenodd" fill-opacity="1" stroke="#000000" stroke-opacity="1" stroke-width="3.2"/>
<circle clip-path="url(#clip012)" cx="2352.76" cy="632.419" r="14.4" fill="#009af9" fill-rule="evenodd" fill-opacity="1" stroke="#000000" stroke-opacity="1" stroke-width="3.2"/>
<circle clip-path="url(#clip012)" cx="1110.71" cy="610.176" r="14.4" fill="#009af9" fill-rule="evenodd" fill-opacity="1" stroke="#000000" stroke-opacity="1" stroke-width="3.2"/>
<circle clip-path="url(#clip012)" cx="918.653" cy="171.251" r="14.4" fill="#009af9" fill-rule="evenodd" fill-opacity="1" stroke="#000000" stroke-opacity="1" stroke-width="3.2"/>
<circle clip-path="url(#clip012)" cx="1754.38" cy="287.283" r="14.4" fill="#009af9" fill-rule="evenodd" fill-opacity="1" stroke="#000000" stroke-opacity="1" stroke-width="3.2"/>
<circle clip-path="url(#clip012)" cx="2139.71" cy="424.081" r="14.4" fill="#009af9" fill-rule="evenodd" fill-opacity="1" stroke="#000000" stroke-opacity="1" stroke-width="3.2"/>
<circle clip-path="url(#clip012)" cx="786.506" cy="533.025" r="14.4" fill="#009af9" fill-rule="evenodd" fill-opacity="1" stroke="#000000" stroke-opacity="1" stroke-width="3.2"/>
<circle clip-path="url(#clip012)" cx="1421.23" cy="831.148" r="14.4" fill="#009af9" fill-rule="evenodd" fill-opacity="1" stroke="#000000" stroke-opacity="1" stroke-width="3.2"/>
<circle clip-path="url(#clip012)" cx="1379.78" cy="480.76" r="14.4" fill="#009af9" fill-rule="evenodd" fill-opacity="1" stroke="#000000" stroke-opacity="1" stroke-width="3.2"/>
<circle clip-path="url(#clip012)" cx="1632.62" cy="603.054" r="14.4" fill="#009af9" fill-rule="evenodd" fill-opacity="1" stroke="#000000" stroke-opacity="1" stroke-width="3.2"/>
<circle clip-path="url(#clip012)" cx="1986.83" cy="325.663" r="14.4" fill="#009af9" fill-rule="evenodd" fill-opacity="1" stroke="#000000" stroke-opacity="1" stroke-width="3.2"/>
<circle clip-path="url(#clip012)" cx="1525.47" cy="557.468" r="14.4" fill="#009af9" fill-rule="evenodd" fill-opacity="1" stroke="#000000" stroke-opacity="1" stroke-width="3.2"/>
<circle clip-path="url(#clip012)" cx="1234.29" cy="474.102" r="14.4" fill="#009af9" fill-rule="evenodd" fill-opacity="1" stroke="#000000" stroke-opacity="1" stroke-width="3.2"/>
<circle clip-path="url(#clip012)" cx="2055.55" cy="889.695" r="14.4" fill="#009af9" fill-rule="evenodd" fill-opacity="1" stroke="#000000" stroke-opacity="1" stroke-width="3.2"/>
<circle clip-path="url(#clip012)" cx="1235.23" cy="945.563" r="14.4" fill="#009af9" fill-rule="evenodd" fill-opacity="1" stroke="#000000" stroke-opacity="1" stroke-width="3.2"/>
<circle clip-path="url(#clip012)" cx="1651.74" cy="1287.71" r="14.4" fill="#009af9" fill-rule="evenodd" fill-opacity="1" stroke="#000000" stroke-opacity="1" stroke-width="3.2"/>
<circle clip-path="url(#clip012)" cx="1838.86" cy="423.383" r="14.4" fill="#009af9" fill-rule="evenodd" fill-opacity="1" stroke="#000000" stroke-opacity="1" stroke-width="3.2"/>
<circle clip-path="url(#clip012)" cx="1311.5" cy="695.791" r="14.4" fill="#009af9" fill-rule="evenodd" fill-opacity="1" stroke="#000000" stroke-opacity="1" stroke-width="3.2"/>
<circle clip-path="url(#clip012)" cx="1275.06" cy="686.913" r="14.4" fill="#009af9" fill-rule="evenodd" fill-opacity="1" stroke="#000000" stroke-opacity="1" stroke-width="3.2"/>
<circle clip-path="url(#clip012)" cx="1351.33" cy="486.797" r="14.4" fill="#009af9" fill-rule="evenodd" fill-opacity="1" stroke="#000000" stroke-opacity="1" stroke-width="3.2"/>
<circle clip-path="url(#clip012)" cx="1158.97" cy="932.277" r="14.4" fill="#009af9" fill-rule="evenodd" fill-opacity="1" stroke="#000000" stroke-opacity="1" stroke-width="3.2"/>
<circle clip-path="url(#clip012)" cx="1311.42" cy="631.927" r="14.4" fill="#009af9" fill-rule="evenodd" fill-opacity="1" stroke="#000000" stroke-opacity="1" stroke-width="3.2"/>
<circle clip-path="url(#clip012)" cx="1131.43" cy="927.937" r="14.4" fill="#009af9" fill-rule="evenodd" fill-opacity="1" stroke="#000000" stroke-opacity="1" stroke-width="3.2"/>
<circle clip-path="url(#clip012)" cx="2020.13" cy="1184.41" r="14.4" fill="#009af9" fill-rule="evenodd" fill-opacity="1" stroke="#000000" stroke-opacity="1" stroke-width="3.2"/>
<circle clip-path="url(#clip012)" cx="562.441" cy="639.105" r="14.4" fill="#009af9" fill-rule="evenodd" fill-opacity="1" stroke="#000000" stroke-opacity="1" stroke-width="3.2"/>
<circle clip-path="url(#clip012)" cx="1275.62" cy="624.68" r="14.4" fill="#009af9" fill-rule="evenodd" fill-opacity="1" stroke="#000000" stroke-opacity="1" stroke-width="3.2"/>
<circle clip-path="url(#clip012)" cx="856.454" cy="380.504" r="14.4" fill="#009af9" fill-rule="evenodd" fill-opacity="1" stroke="#000000" stroke-opacity="1" stroke-width="3.2"/>
<circle clip-path="url(#clip012)" cx="1975.3" cy="446.694" r="14.4" fill="#009af9" fill-rule="evenodd" fill-opacity="1" stroke="#000000" stroke-opacity="1" stroke-width="3.2"/>
<circle clip-path="url(#clip012)" cx="1096.63" cy="781.41" r="14.4" fill="#009af9" fill-rule="evenodd" fill-opacity="1" stroke="#000000" stroke-opacity="1" stroke-width="3.2"/>
<circle clip-path="url(#clip012)" cx="1780.3" cy="161.154" r="14.4" fill="#009af9" fill-rule="evenodd" fill-opacity="1" stroke="#000000" stroke-opacity="1" stroke-width="3.2"/>
<circle clip-path="url(#clip012)" cx="1435.59" cy="991.387" r="14.4" fill="#009af9" fill-rule="evenodd" fill-opacity="1" stroke="#000000" stroke-opacity="1" stroke-width="3.2"/>
<circle clip-path="url(#clip012)" cx="1463.86" cy="121.016" r="14.4" fill="#009af9" fill-rule="evenodd" fill-opacity="1" stroke="#000000" stroke-opacity="1" stroke-width="3.2"/>
<circle clip-path="url(#clip012)" cx="1277.62" cy="788.806" r="14.4" fill="#009af9" fill-rule="evenodd" fill-opacity="1" stroke="#000000" stroke-opacity="1" stroke-width="3.2"/>
<circle clip-path="url(#clip012)" cx="1088.8" cy="87.7186" r="14.4" fill="#009af9" fill-rule="evenodd" fill-opacity="1" stroke="#000000" stroke-opacity="1" stroke-width="3.2"/>
<circle clip-path="url(#clip012)" cx="1399.29" cy="466.519" r="14.4" fill="#009af9" fill-rule="evenodd" fill-opacity="1" stroke="#000000" stroke-opacity="1" stroke-width="3.2"/>
<circle clip-path="url(#clip012)" cx="1198.64" cy="293.391" r="14.4" fill="#009af9" fill-rule="evenodd" fill-opacity="1" stroke="#000000" stroke-opacity="1" stroke-width="3.2"/>
<circle clip-path="url(#clip012)" cx="1149.18" cy="1365.88" r="14.4" fill="#009af9" fill-rule="evenodd" fill-opacity="1" stroke="#000000" stroke-opacity="1" stroke-width="3.2"/>
<circle clip-path="url(#clip012)" cx="1480.49" cy="747.739" r="14.4" fill="#009af9" fill-rule="evenodd" fill-opacity="1" stroke="#000000" stroke-opacity="1" stroke-width="3.2"/>
<circle clip-path="url(#clip012)" cx="1312.18" cy="759.421" r="14.4" fill="#009af9" fill-rule="evenodd" fill-opacity="1" stroke="#000000" stroke-opacity="1" stroke-width="3.2"/>
<circle clip-path="url(#clip012)" cx="946.886" cy="686.169" r="14.4" fill="#009af9" fill-rule="evenodd" fill-opacity="1" stroke="#000000" stroke-opacity="1" stroke-width="3.2"/>
<circle clip-path="url(#clip012)" cx="1670.42" cy="688.89" r="14.4" fill="#009af9" fill-rule="evenodd" fill-opacity="1" stroke="#000000" stroke-opacity="1" stroke-width="3.2"/>
<circle clip-path="url(#clip012)" cx="1174.06" cy="70.9953" r="14.4" fill="#009af9" fill-rule="evenodd" fill-opacity="1" stroke="#000000" stroke-opacity="1" stroke-width="3.2"/>
<circle clip-path="url(#clip012)" cx="1430.6" cy="110.84" r="14.4" fill="#009af9" fill-rule="evenodd" fill-opacity="1" stroke="#000000" stroke-opacity="1" stroke-width="3.2"/>
<circle clip-path="url(#clip012)" cx="1297.28" cy="475.171" r="14.4" fill="#009af9" fill-rule="evenodd" fill-opacity="1" stroke="#000000" stroke-opacity="1" stroke-width="3.2"/>
<circle clip-path="url(#clip012)" cx="1322.11" cy="759.501" r="14.4" fill="#009af9" fill-rule="evenodd" fill-opacity="1" stroke="#000000" stroke-opacity="1" stroke-width="3.2"/>
<circle clip-path="url(#clip012)" cx="1342.58" cy="212.059" r="14.4" fill="#009af9" fill-rule="evenodd" fill-opacity="1" stroke="#000000" stroke-opacity="1" stroke-width="3.2"/>
<circle clip-path="url(#clip012)" cx="1164.64" cy="301.338" r="14.4" fill="#009af9" fill-rule="evenodd" fill-opacity="1" stroke="#000000" stroke-opacity="1" stroke-width="3.2"/>
<circle clip-path="url(#clip012)" cx="1568.54" cy="894.785" r="14.4" fill="#009af9" fill-rule="evenodd" fill-opacity="1" stroke="#000000" stroke-opacity="1" stroke-width="3.2"/>
<circle clip-path="url(#clip012)" cx="1711.64" cy="1280.29" r="14.4" fill="#009af9" fill-rule="evenodd" fill-opacity="1" stroke="#000000" stroke-opacity="1" stroke-width="3.2"/>
<circle clip-path="url(#clip012)" cx="1344.01" cy="604.797" r="14.4" fill="#009af9" fill-rule="evenodd" fill-opacity="1" stroke="#000000" stroke-opacity="1" stroke-width="3.2"/>
<circle clip-path="url(#clip012)" cx="1241.73" cy="884.189" r="14.4" fill="#009af9" fill-rule="evenodd" fill-opacity="1" stroke="#000000" stroke-opacity="1" stroke-width="3.2"/>
<circle clip-path="url(#clip012)" cx="2077.04" cy="452.631" r="14.4" fill="#009af9" fill-rule="evenodd" fill-opacity="1" stroke="#000000" stroke-opacity="1" stroke-width="3.2"/>
<circle clip-path="url(#clip012)" cx="1535" cy="807.739" r="14.4" fill="#009af9" fill-rule="evenodd" fill-opacity="1" stroke="#000000" stroke-opacity="1" stroke-width="3.2"/>
<circle clip-path="url(#clip012)" cx="1111.62" cy="807.425" r="14.4" fill="#009af9" fill-rule="evenodd" fill-opacity="1" stroke="#000000" stroke-opacity="1" stroke-width="3.2"/>
<circle clip-path="url(#clip012)" cx="1134.67" cy="825.966" r="14.4" fill="#009af9" fill-rule="evenodd" fill-opacity="1" stroke="#000000" stroke-opacity="1" stroke-width="3.2"/>
<circle clip-path="url(#clip012)" cx="1606.03" cy="707.436" r="14.4" fill="#009af9" fill-rule="evenodd" fill-opacity="1" stroke="#000000" stroke-opacity="1" stroke-width="3.2"/>
<circle clip-path="url(#clip012)" cx="1122.05" cy="909.089" r="14.4" fill="#009af9" fill-rule="evenodd" fill-opacity="1" stroke="#000000" stroke-opacity="1" stroke-width="3.2"/>
<circle clip-path="url(#clip012)" cx="1848.05" cy="1367.34" r="14.4" fill="#009af9" fill-rule="evenodd" fill-opacity="1" stroke="#000000" stroke-opacity="1" stroke-width="3.2"/>
<circle clip-path="url(#clip012)" cx="1891.71" cy="1032.71" r="14.4" fill="#009af9" fill-rule="evenodd" fill-opacity="1" stroke="#000000" stroke-opacity="1" stroke-width="3.2"/>
<circle clip-path="url(#clip012)" cx="1401.49" cy="1256.29" r="14.4" fill="#009af9" fill-rule="evenodd" fill-opacity="1" stroke="#000000" stroke-opacity="1" stroke-width="3.2"/>
<circle clip-path="url(#clip012)" cx="1624.41" cy="772.902" r="14.4" fill="#009af9" fill-rule="evenodd" fill-opacity="1" stroke="#000000" stroke-opacity="1" stroke-width="3.2"/>
<circle clip-path="url(#clip012)" cx="1461.86" cy="47.2441" r="14.4" fill="#009af9" fill-rule="evenodd" fill-opacity="1" stroke="#000000" stroke-opacity="1" stroke-width="3.2"/>
<circle clip-path="url(#clip012)" cx="1218.69" cy="941.985" r="14.4" fill="#009af9" fill-rule="evenodd" fill-opacity="1" stroke="#000000" stroke-opacity="1" stroke-width="3.2"/>
<circle clip-path="url(#clip012)" cx="1454.26" cy="870.392" r="14.4" fill="#009af9" fill-rule="evenodd" fill-opacity="1" stroke="#000000" stroke-opacity="1" stroke-width="3.2"/>
<circle clip-path="url(#clip012)" cx="1936.01" cy="1137.05" r="14.4" fill="#009af9" fill-rule="evenodd" fill-opacity="1" stroke="#000000" stroke-opacity="1" stroke-width="3.2"/>
<circle clip-path="url(#clip012)" cx="979.989" cy="696.561" r="14.4" fill="#009af9" fill-rule="evenodd" fill-opacity="1" stroke="#000000" stroke-opacity="1" stroke-width="3.2"/>
<circle clip-path="url(#clip012)" cx="1394.16" cy="562.191" r="14.4" fill="#009af9" fill-rule="evenodd" fill-opacity="1" stroke="#000000" stroke-opacity="1" stroke-width="3.2"/>
<circle clip-path="url(#clip012)" cx="687.106" cy="703.374" r="14.4" fill="#009af9" fill-rule="evenodd" fill-opacity="1" stroke="#000000" stroke-opacity="1" stroke-width="3.2"/>
<circle clip-path="url(#clip012)" cx="1792.35" cy="205.935" r="14.4" fill="#009af9" fill-rule="evenodd" fill-opacity="1" stroke="#000000" stroke-opacity="1" stroke-width="3.2"/>
<circle clip-path="url(#clip012)" cx="1433.63" cy="552.565" r="14.4" fill="#009af9" fill-rule="evenodd" fill-opacity="1" stroke="#000000" stroke-opacity="1" stroke-width="3.2"/>
<circle clip-path="url(#clip012)" cx="1415.02" cy="611.894" r="14.4" fill="#009af9" fill-rule="evenodd" fill-opacity="1" stroke="#000000" stroke-opacity="1" stroke-width="3.2"/>
<circle clip-path="url(#clip012)" cx="721.129" cy="935.782" r="14.4" fill="#009af9" fill-rule="evenodd" fill-opacity="1" stroke="#000000" stroke-opacity="1" stroke-width="3.2"/>
<circle clip-path="url(#clip012)" cx="378.586" cy="626.357" r="14.4" fill="#009af9" fill-rule="evenodd" fill-opacity="1" stroke="#000000" stroke-opacity="1" stroke-width="3.2"/>
<circle clip-path="url(#clip012)" cx="1776.62" cy="289.471" r="14.4" fill="#009af9" fill-rule="evenodd" fill-opacity="1" stroke="#000000" stroke-opacity="1" stroke-width="3.2"/>
<circle clip-path="url(#clip012)" cx="1387.86" cy="646.71" r="14.4" fill="#009af9" fill-rule="evenodd" fill-opacity="1" stroke="#000000" stroke-opacity="1" stroke-width="3.2"/>
<circle clip-path="url(#clip012)" cx="2046.75" cy="1167.67" r="14.4" fill="#009af9" fill-rule="evenodd" fill-opacity="1" stroke="#000000" stroke-opacity="1" stroke-width="3.2"/>
<circle clip-path="url(#clip012)" cx="456.494" cy="606.876" r="14.4" fill="#009af9" fill-rule="evenodd" fill-opacity="1" stroke="#000000" stroke-opacity="1" stroke-width="3.2"/>
<circle clip-path="url(#clip012)" cx="1803.12" cy="1286.69" r="14.4" fill="#009af9" fill-rule="evenodd" fill-opacity="1" stroke="#000000" stroke-opacity="1" stroke-width="3.2"/>
<circle clip-path="url(#clip012)" cx="1426.42" cy="585.444" r="14.4" fill="#009af9" fill-rule="evenodd" fill-opacity="1" stroke="#000000" stroke-opacity="1" stroke-width="3.2"/>
<circle clip-path="url(#clip012)" cx="987.679" cy="203.737" r="14.4" fill="#009af9" fill-rule="evenodd" fill-opacity="1" stroke="#000000" stroke-opacity="1" stroke-width="3.2"/>
<circle clip-path="url(#clip012)" cx="1611.67" cy="197.465" r="14.4" fill="#009af9" fill-rule="evenodd" fill-opacity="1" stroke="#000000" stroke-opacity="1" stroke-width="3.2"/>
<circle clip-path="url(#clip012)" cx="1059.47" cy="701.872" r="14.4" fill="#009af9" fill-rule="evenodd" fill-opacity="1" stroke="#000000" stroke-opacity="1" stroke-width="3.2"/>
<circle clip-path="url(#clip012)" cx="1176.53" cy="669.331" r="14.4" fill="#009af9" fill-rule="evenodd" fill-opacity="1" stroke="#000000" stroke-opacity="1" stroke-width="3.2"/>
<circle clip-path="url(#clip012)" cx="1319.08" cy="460.469" r="14.4" fill="#009af9" fill-rule="evenodd" fill-opacity="1" stroke="#000000" stroke-opacity="1" stroke-width="3.2"/>
<circle clip-path="url(#clip012)" cx="1270.31" cy="847.952" r="14.4" fill="#009af9" fill-rule="evenodd" fill-opacity="1" stroke="#000000" stroke-opacity="1" stroke-width="3.2"/>
<circle clip-path="url(#clip012)" cx="634.537" cy="640.851" r="14.4" fill="#009af9" fill-rule="evenodd" fill-opacity="1" stroke="#000000" stroke-opacity="1" stroke-width="3.2"/>
<circle clip-path="url(#clip012)" cx="616.162" cy="1237.96" r="14.4" fill="#009af9" fill-rule="evenodd" fill-opacity="1" stroke="#000000" stroke-opacity="1" stroke-width="3.2"/>
<circle clip-path="url(#clip012)" cx="1424.32" cy="1351.17" r="14.4" fill="#009af9" fill-rule="evenodd" fill-opacity="1" stroke="#000000" stroke-opacity="1" stroke-width="3.2"/>
<circle clip-path="url(#clip012)" cx="1028.34" cy="764.278" r="14.4" fill="#009af9" fill-rule="evenodd" fill-opacity="1" stroke="#000000" stroke-opacity="1" stroke-width="3.2"/>
<circle clip-path="url(#clip012)" cx="1759.58" cy="1184.92" r="14.4" fill="#009af9" fill-rule="evenodd" fill-opacity="1" stroke="#000000" stroke-opacity="1" stroke-width="3.2"/>
<circle clip-path="url(#clip012)" cx="1282.37" cy="637.306" r="14.4" fill="#009af9" fill-rule="evenodd" fill-opacity="1" stroke="#000000" stroke-opacity="1" stroke-width="3.2"/>
<circle clip-path="url(#clip012)" cx="1492.59" cy="826.255" r="14.4" fill="#009af9" fill-rule="evenodd" fill-opacity="1" stroke="#000000" stroke-opacity="1" stroke-width="3.2"/>
<circle clip-path="url(#clip012)" cx="1085.43" cy="827.68" r="14.4" fill="#009af9" fill-rule="evenodd" fill-opacity="1" stroke="#000000" stroke-opacity="1" stroke-width="3.2"/>
<circle clip-path="url(#clip012)" cx="1043.03" cy="904.663" r="14.4" fill="#009af9" fill-rule="evenodd" fill-opacity="1" stroke="#000000" stroke-opacity="1" stroke-width="3.2"/>
<circle clip-path="url(#clip012)" cx="1266.15" cy="572.672" r="14.4" fill="#009af9" fill-rule="evenodd" fill-opacity="1" stroke="#000000" stroke-opacity="1" stroke-width="3.2"/>
<circle clip-path="url(#clip012)" cx="1681.05" cy="843.551" r="14.4" fill="#009af9" fill-rule="evenodd" fill-opacity="1" stroke="#000000" stroke-opacity="1" stroke-width="3.2"/>
<circle clip-path="url(#clip012)" cx="1888.68" cy="510.737" r="14.4" fill="#009af9" fill-rule="evenodd" fill-opacity="1" stroke="#000000" stroke-opacity="1" stroke-width="3.2"/>
<circle clip-path="url(#clip012)" cx="1465.57" cy="818.588" r="14.4" fill="#009af9" fill-rule="evenodd" fill-opacity="1" stroke="#000000" stroke-opacity="1" stroke-width="3.2"/>
<circle clip-path="url(#clip012)" cx="1237.8" cy="524.455" r="14.4" fill="#009af9" fill-rule="evenodd" fill-opacity="1" stroke="#000000" stroke-opacity="1" stroke-width="3.2"/>
<circle clip-path="url(#clip012)" cx="1433.46" cy="652.972" r="14.4" fill="#009af9" fill-rule="evenodd" fill-opacity="1" stroke="#000000" stroke-opacity="1" stroke-width="3.2"/>
<circle clip-path="url(#clip012)" cx="1794.44" cy="1371.8" r="14.4" fill="#009af9" fill-rule="evenodd" fill-opacity="1" stroke="#000000" stroke-opacity="1" stroke-width="3.2"/>
<circle clip-path="url(#clip012)" cx="1707.91" cy="132.266" r="14.4" fill="#009af9" fill-rule="evenodd" fill-opacity="1" stroke="#000000" stroke-opacity="1" stroke-width="3.2"/>
<circle clip-path="url(#clip012)" cx="660.255" cy="1105.67" r="14.4" fill="#009af9" fill-rule="evenodd" fill-opacity="1" stroke="#000000" stroke-opacity="1" stroke-width="3.2"/>
<circle clip-path="url(#clip012)" cx="2192.04" cy="1140.97" r="14.4" fill="#009af9" fill-rule="evenodd" fill-opacity="1" stroke="#000000" stroke-opacity="1" stroke-width="3.2"/>
<circle clip-path="url(#clip012)" cx="608.251" cy="1086.22" r="14.4" fill="#009af9" fill-rule="evenodd" fill-opacity="1" stroke="#000000" stroke-opacity="1" stroke-width="3.2"/>
<circle clip-path="url(#clip012)" cx="1743.59" cy="816.711" r="14.4" fill="#009af9" fill-rule="evenodd" fill-opacity="1" stroke="#000000" stroke-opacity="1" stroke-width="3.2"/>
<circle clip-path="url(#clip012)" cx="988.576" cy="758.411" r="14.4" fill="#009af9" fill-rule="evenodd" fill-opacity="1" stroke="#000000" stroke-opacity="1" stroke-width="3.2"/>
<circle clip-path="url(#clip012)" cx="1063.43" cy="663.819" r="14.4" fill="#009af9" fill-rule="evenodd" fill-opacity="1" stroke="#000000" stroke-opacity="1" stroke-width="3.2"/>
<circle clip-path="url(#clip012)" cx="646.01" cy="1084.23" r="14.4" fill="#009af9" fill-rule="evenodd" fill-opacity="1" stroke="#000000" stroke-opacity="1" stroke-width="3.2"/>
<circle clip-path="url(#clip012)" cx="1554.52" cy="706.882" r="14.4" fill="#009af9" fill-rule="evenodd" fill-opacity="1" stroke="#000000" stroke-opacity="1" stroke-width="3.2"/>
<circle clip-path="url(#clip012)" cx="1470.1" cy="727.357" r="14.4" fill="#009af9" fill-rule="evenodd" fill-opacity="1" stroke="#000000" stroke-opacity="1" stroke-width="3.2"/>
<circle clip-path="url(#clip012)" cx="906.78" cy="199.895" r="14.4" fill="#009af9" fill-rule="evenodd" fill-opacity="1" stroke="#000000" stroke-opacity="1" stroke-width="3.2"/>
<circle clip-path="url(#clip012)" cx="1964.35" cy="635.484" r="14.4" fill="#009af9" fill-rule="evenodd" fill-opacity="1" stroke="#000000" stroke-opacity="1" stroke-width="3.2"/>
<circle clip-path="url(#clip012)" cx="1226.17" cy="493.906" r="14.4" fill="#009af9" fill-rule="evenodd" fill-opacity="1" stroke="#000000" stroke-opacity="1" stroke-width="3.2"/>
<circle clip-path="url(#clip012)" cx="509.899" cy="700.216" r="14.4" fill="#009af9" fill-rule="evenodd" fill-opacity="1" stroke="#000000" stroke-opacity="1" stroke-width="3.2"/>
<circle clip-path="url(#clip012)" cx="725.977" cy="455.678" r="14.4" fill="#009af9" fill-rule="evenodd" fill-opacity="1" stroke="#000000" stroke-opacity="1" stroke-width="3.2"/>
<circle clip-path="url(#clip012)" cx="1065.9" cy="537.213" r="14.4" fill="#009af9" fill-rule="evenodd" fill-opacity="1" stroke="#000000" stroke-opacity="1" stroke-width="3.2"/>
<circle clip-path="url(#clip012)" cx="1356.64" cy="1287.59" r="14.4" fill="#009af9" fill-rule="evenodd" fill-opacity="1" stroke="#000000" stroke-opacity="1" stroke-width="3.2"/>
<circle clip-path="url(#clip012)" cx="2315.38" cy="516.381" r="14.4" fill="#009af9" fill-rule="evenodd" fill-opacity="1" stroke="#000000" stroke-opacity="1" stroke-width="3.2"/>
<circle clip-path="url(#clip012)" cx="1164.06" cy="832.587" r="14.4" fill="#009af9" fill-rule="evenodd" fill-opacity="1" stroke="#000000" stroke-opacity="1" stroke-width="3.2"/>
<circle clip-path="url(#clip012)" cx="2336.43" cy="513.635" r="14.4" fill="#009af9" fill-rule="evenodd" fill-opacity="1" stroke="#000000" stroke-opacity="1" stroke-width="3.2"/>
<circle clip-path="url(#clip012)" cx="1749.39" cy="745.895" r="14.4" fill="#009af9" fill-rule="evenodd" fill-opacity="1" stroke="#000000" stroke-opacity="1" stroke-width="3.2"/>
<circle clip-path="url(#clip012)" cx="1704.66" cy="322.617" r="14.4" fill="#009af9" fill-rule="evenodd" fill-opacity="1" stroke="#000000" stroke-opacity="1" stroke-width="3.2"/>
<circle clip-path="url(#clip012)" cx="1377.82" cy="1248.34" r="14.4" fill="#009af9" fill-rule="evenodd" fill-opacity="1" stroke="#000000" stroke-opacity="1" stroke-width="3.2"/>
<circle clip-path="url(#clip012)" cx="629.014" cy="1033.49" r="14.4" fill="#009af9" fill-rule="evenodd" fill-opacity="1" stroke="#000000" stroke-opacity="1" stroke-width="3.2"/>
<circle clip-path="url(#clip012)" cx="399.377" cy="803.45" r="14.4" fill="#009af9" fill-rule="evenodd" fill-opacity="1" stroke="#000000" stroke-opacity="1" stroke-width="3.2"/>
<circle clip-path="url(#clip012)" cx="480.145" cy="782.337" r="14.4" fill="#009af9" fill-rule="evenodd" fill-opacity="1" stroke="#000000" stroke-opacity="1" stroke-width="3.2"/>
<circle clip-path="url(#clip012)" cx="686.549" cy="296.953" r="14.4" fill="#009af9" fill-rule="evenodd" fill-opacity="1" stroke="#000000" stroke-opacity="1" stroke-width="3.2"/>
<circle clip-path="url(#clip012)" cx="1388.57" cy="650.311" r="14.4" fill="#009af9" fill-rule="evenodd" fill-opacity="1" stroke="#000000" stroke-opacity="1" stroke-width="3.2"/>
<circle clip-path="url(#clip012)" cx="1182.19" cy="242.456" r="14.4" fill="#009af9" fill-rule="evenodd" fill-opacity="1" stroke="#000000" stroke-opacity="1" stroke-width="3.2"/>
<circle clip-path="url(#clip012)" cx="732.403" cy="455.459" r="14.4" fill="#009af9" fill-rule="evenodd" fill-opacity="1" stroke="#000000" stroke-opacity="1" stroke-width="3.2"/>
<circle clip-path="url(#clip012)" cx="1571.85" cy="607.801" r="14.4" fill="#009af9" fill-rule="evenodd" fill-opacity="1" stroke="#000000" stroke-opacity="1" stroke-width="3.2"/>
<circle clip-path="url(#clip012)" cx="1741.87" cy="1142.77" r="14.4" fill="#009af9" fill-rule="evenodd" fill-opacity="1" stroke="#000000" stroke-opacity="1" stroke-width="3.2"/>
<circle clip-path="url(#clip012)" cx="1369.62" cy="965.651" r="14.4" fill="#009af9" fill-rule="evenodd" fill-opacity="1" stroke="#000000" stroke-opacity="1" stroke-width="3.2"/>
<circle clip-path="url(#clip012)" cx="1259.36" cy="460.23" r="14.4" fill="#009af9" fill-rule="evenodd" fill-opacity="1" stroke="#000000" stroke-opacity="1" stroke-width="3.2"/>
<circle clip-path="url(#clip012)" cx="587.209" cy="385.858" r="14.4" fill="#009af9" fill-rule="evenodd" fill-opacity="1" stroke="#000000" stroke-opacity="1" stroke-width="3.2"/>
<circle clip-path="url(#clip012)" cx="1037.55" cy="615.249" r="14.4" fill="#009af9" fill-rule="evenodd" fill-opacity="1" stroke="#000000" stroke-opacity="1" stroke-width="3.2"/>
<circle clip-path="url(#clip012)" cx="1677.3" cy="1254.15" r="14.4" fill="#009af9" fill-rule="evenodd" fill-opacity="1" stroke="#000000" stroke-opacity="1" stroke-width="3.2"/>
<circle clip-path="url(#clip012)" cx="1202.06" cy="1308.43" r="14.4" fill="#009af9" fill-rule="evenodd" fill-opacity="1" stroke="#000000" stroke-opacity="1" stroke-width="3.2"/>
<circle clip-path="url(#clip012)" cx="1854.31" cy="447.236" r="14.4" fill="#009af9" fill-rule="evenodd" fill-opacity="1" stroke="#000000" stroke-opacity="1" stroke-width="3.2"/>
<circle clip-path="url(#clip012)" cx="1950.95" cy="451.808" r="14.4" fill="#009af9" fill-rule="evenodd" fill-opacity="1" stroke="#000000" stroke-opacity="1" stroke-width="3.2"/>
<circle clip-path="url(#clip012)" cx="1985.48" cy="570.145" r="14.4" fill="#009af9" fill-rule="evenodd" fill-opacity="1" stroke="#000000" stroke-opacity="1" stroke-width="3.2"/>
<circle clip-path="url(#clip012)" cx="1027.34" cy="849.541" r="14.4" fill="#009af9" fill-rule="evenodd" fill-opacity="1" stroke="#000000" stroke-opacity="1" stroke-width="3.2"/>
<circle clip-path="url(#clip012)" cx="1112.08" cy="525.589" r="14.4" fill="#009af9" fill-rule="evenodd" fill-opacity="1" stroke="#000000" stroke-opacity="1" stroke-width="3.2"/>
<circle clip-path="url(#clip012)" cx="1132.77" cy="856.041" r="14.4" fill="#009af9" fill-rule="evenodd" fill-opacity="1" stroke="#000000" stroke-opacity="1" stroke-width="3.2"/>
<circle clip-path="url(#clip012)" cx="1728.42" cy="726.63" r="14.4" fill="#009af9" fill-rule="evenodd" fill-opacity="1" stroke="#000000" stroke-opacity="1" stroke-width="3.2"/>
<circle clip-path="url(#clip012)" cx="519.939" cy="810.699" r="14.4" fill="#009af9" fill-rule="evenodd" fill-opacity="1" stroke="#000000" stroke-opacity="1" stroke-width="3.2"/>
<circle clip-path="url(#clip012)" cx="1530.12" cy="496.378" r="14.4" fill="#009af9" fill-rule="evenodd" fill-opacity="1" stroke="#000000" stroke-opacity="1" stroke-width="3.2"/>
<circle clip-path="url(#clip012)" cx="1038.41" cy="917.923" r="14.4" fill="#009af9" fill-rule="evenodd" fill-opacity="1" stroke="#000000" stroke-opacity="1" stroke-width="3.2"/>
<circle clip-path="url(#clip012)" cx="1336" cy="686.651" r="14.4" fill="#009af9" fill-rule="evenodd" fill-opacity="1" stroke="#000000" stroke-opacity="1" stroke-width="3.2"/>
<circle clip-path="url(#clip012)" cx="1368.68" cy="1386.76" r="14.4" fill="#009af9" fill-rule="evenodd" fill-opacity="1" stroke="#000000" stroke-opacity="1" stroke-width="3.2"/>
<circle clip-path="url(#clip012)" cx="2079.94" cy="1158.39" r="14.4" fill="#009af9" fill-rule="evenodd" fill-opacity="1" stroke="#000000" stroke-opacity="1" stroke-width="3.2"/>
<circle clip-path="url(#clip012)" cx="1126.03" cy="1161.3" r="14.4" fill="#009af9" fill-rule="evenodd" fill-opacity="1" stroke="#000000" stroke-opacity="1" stroke-width="3.2"/>
<circle clip-path="url(#clip012)" cx="1050.34" cy="1401.47" r="14.4" fill="#009af9" fill-rule="evenodd" fill-opacity="1" stroke="#000000" stroke-opacity="1" stroke-width="3.2"/>
<circle clip-path="url(#clip012)" cx="1323.1" cy="1005.23" r="14.4" fill="#009af9" fill-rule="evenodd" fill-opacity="1" stroke="#000000" stroke-opacity="1" stroke-width="3.2"/>
<circle clip-path="url(#clip012)" cx="878.832" cy="451.771" r="14.4" fill="#009af9" fill-rule="evenodd" fill-opacity="1" stroke="#000000" stroke-opacity="1" stroke-width="3.2"/>
<circle clip-path="url(#clip012)" cx="1479.77" cy="1256.91" r="14.4" fill="#009af9" fill-rule="evenodd" fill-opacity="1" stroke="#000000" stroke-opacity="1" stroke-width="3.2"/>
<circle clip-path="url(#clip012)" cx="816.207" cy="340.592" r="14.4" fill="#009af9" fill-rule="evenodd" fill-opacity="1" stroke="#000000" stroke-opacity="1" stroke-width="3.2"/>
<circle clip-path="url(#clip012)" cx="1033.9" cy="638.726" r="14.4" fill="#009af9" fill-rule="evenodd" fill-opacity="1" stroke="#000000" stroke-opacity="1" stroke-width="3.2"/>
<circle clip-path="url(#clip012)" cx="1095.69" cy="1433.3" r="14.4" fill="#009af9" fill-rule="evenodd" fill-opacity="1" stroke="#000000" stroke-opacity="1" stroke-width="3.2"/>
<circle clip-path="url(#clip012)" cx="1153.01" cy="489.874" r="14.4" fill="#009af9" fill-rule="evenodd" fill-opacity="1" stroke="#000000" stroke-opacity="1" stroke-width="3.2"/>
<circle clip-path="url(#clip012)" cx="1280.46" cy="733.337" r="14.4" fill="#009af9" fill-rule="evenodd" fill-opacity="1" stroke="#000000" stroke-opacity="1" stroke-width="3.2"/>
<circle clip-path="url(#clip012)" cx="752.71" cy="177.596" r="14.4" fill="#009af9" fill-rule="evenodd" fill-opacity="1" stroke="#000000" stroke-opacity="1" stroke-width="3.2"/>
<circle clip-path="url(#clip012)" cx="498.94" cy="680.657" r="14.4" fill="#009af9" fill-rule="evenodd" fill-opacity="1" stroke="#000000" stroke-opacity="1" stroke-width="3.2"/>
<path clip-path="url(#clip010)" d="M1944.61 327.058 L2286.05 327.058 L2286.05 93.7776 L1944.61 93.7776  Z" fill="#ffffff" fill-rule="evenodd" fill-opacity="1"/>
<polyline clip-path="url(#clip010)" style="stroke:#000000; stroke-linecap:round; stroke-linejoin:round; stroke-width:4; stroke-opacity:1; fill:none" points="1944.61,327.058 2286.05,327.058 2286.05,93.7776 1944.61,93.7776 1944.61,327.058 "/>
<circle clip-path="url(#clip010)" cx="2033.56" cy="210.418" r="46.08" fill="#009af9" fill-rule="evenodd" fill-opacity="1" stroke="#000000" stroke-opacity="1" stroke-width="10.24"/>
<path clip-path="url(#clip010)" d="M2122.5 210.948 Q2122.5 197.157 2125.32 188.776 Q2128.18 180.343 2133.75 175.781 Q2139.37 171.219 2147.86 171.219 Q2154.12 171.219 2158.84 173.765 Q2163.56 176.258 2166.64 181.032 Q2169.71 185.753 2171.46 192.595 Q2173.21 199.385 2173.21 210.948 Q2173.21 224.633 2170.4 233.067 Q2167.59 241.447 2161.97 246.062 Q2156.4 250.624 2147.86 250.624 Q2136.61 250.624 2130.2 242.561 Q2122.5 232.854 2122.5 210.948 M2132.32 210.948 Q2132.32 230.096 2136.77 236.461 Q2141.28 242.773 2147.86 242.773 Q2154.44 242.773 2158.89 236.408 Q2163.4 230.043 2163.4 210.948 Q2163.4 191.747 2158.89 185.435 Q2154.44 179.123 2147.75 179.123 Q2141.18 179.123 2137.25 184.692 Q2132.32 191.8 2132.32 210.948 Z" fill="#000000" fill-rule="nonzero" fill-opacity="1" /><path clip-path="url(#clip010)" d="M2188.28 249.298 L2188.28 238.424 L2199.15 238.424 L2199.15 249.298 L2188.28 249.298 Z" fill="#000000" fill-rule="nonzero" fill-opacity="1" /><path clip-path="url(#clip010)" d="M2213.1 210.948 Q2213.1 197.157 2215.91 188.776 Q2218.78 180.343 2224.35 175.781 Q2229.97 171.219 2238.46 171.219 Q2244.71 171.219 2249.44 173.765 Q2254.16 176.258 2257.23 181.032 Q2260.31 185.753 2262.06 192.595 Q2263.81 199.385 2263.81 210.948 Q2263.81 224.633 2261 233.067 Q2258.19 241.447 2252.56 246.062 Q2247 250.624 2238.46 250.624 Q2227.21 250.624 2220.79 242.561 Q2213.1 232.854 2213.1 210.948 M2222.91 210.948 Q2222.91 230.096 2227.37 236.461 Q2231.88 242.773 2238.46 242.773 Q2245.03 242.773 2249.49 236.408 Q2254 230.043 2254 210.948 Q2254 191.747 2249.49 185.435 Q2245.03 179.123 2238.35 179.123 Q2231.77 179.123 2227.85 184.692 Q2222.91 191.8 2222.91 210.948 Z" fill="#000000" fill-rule="nonzero" fill-opacity="1" /></svg>
