<?xml version="1.0" encoding="utf-8"?>
<svg xmlns="http://www.w3.org/2000/svg" xmlns:xlink="http://www.w3.org/1999/xlink" width="600" height="400" viewBox="0 0 2400 1600">
<defs>
  <clipPath id="clip110">
    <rect x="0" y="0" width="2400" height="1600"/>
  </clipPath>
</defs>
<path clip-path="url(#clip110)" d="M0 1600 L2400 1600 L2400 8.88178e-14 L0 8.88178e-14  Z" fill="#ffffff" fill-rule="evenodd" fill-opacity="1"/>
<defs>
  <clipPath id="clip111">
    <rect x="480" y="0" width="1681" height="1600"/>
  </clipPath>
</defs>
<path clip-path="url(#clip110)" d="M444.969 1349.74 L2352.76 1349.74 L2352.76 47.2441 L444.969 47.2441  Z" fill="#ffffff" fill-rule="evenodd" fill-opacity="1"/>
<defs>
  <clipPath id="clip112">
    <rect x="444" y="47" width="1909" height="1303"/>
  </clipPath>
</defs>
<polyline clip-path="url(#clip110)" style="stroke:#000000; stroke-linecap:round; stroke-linejoin:round; stroke-width:4; stroke-opacity:1; fill:none" points="444.969,1349.74 2352.76,1349.74 "/>
<polyline clip-path="url(#clip110)" style="stroke:#000000; stroke-linecap:round; stroke-linejoin:round; stroke-width:2; stroke-opacity:0.5; fill:none" points="444.969,47.2441 2352.76,47.2441 "/>
<polyline clip-path="url(#clip110)" style="stroke:#000000; stroke-linecap:round; stroke-linejoin:round; stroke-width:4; stroke-opacity:1; fill:none" points="647.365,1349.74 647.365,1330.84 "/>
<polyline clip-path="url(#clip110)" style="stroke:#000000; stroke-linecap:round; stroke-linejoin:round; stroke-width:4; stroke-opacity:1; fill:none" points="897.151,1349.74 897.151,1330.84 "/>
<polyline clip-path="url(#clip110)" style="stroke:#000000; stroke-linecap:round; stroke-linejoin:round; stroke-width:4; stroke-opacity:1; fill:none" points="1146.94,1349.74 1146.94,1330.84 "/>
<polyline clip-path="url(#clip110)" style="stroke:#000000; stroke-linecap:round; stroke-linejoin:round; stroke-width:4; stroke-opacity:1; fill:none" points="1396.72,1349.74 1396.72,1330.84 "/>
<polyline clip-path="url(#clip110)" style="stroke:#000000; stroke-linecap:round; stroke-linejoin:round; stroke-width:4; stroke-opacity:1; fill:none" points="1646.51,1349.74 1646.51,1330.84 "/>
<polyline clip-path="url(#clip110)" style="stroke:#000000; stroke-linecap:round; stroke-linejoin:round; stroke-width:4; stroke-opacity:1; fill:none" points="1896.29,1349.74 1896.29,1330.84 "/>
<polyline clip-path="url(#clip110)" style="stroke:#000000; stroke-linecap:round; stroke-linejoin:round; stroke-width:4; stroke-opacity:1; fill:none" points="2146.08,1349.74 2146.08,1330.84 "/>
<path clip-path="url(#clip110)" d="M566.476 1432.25 L515.131 1432.25 L515.131 1423.33 L566.476 1423.33 L566.476 1432.25 Z" fill="#000000" fill-rule="nonzero" fill-opacity="1" /><path clip-path="url(#clip110)" d="M577.031 1427.79 Q577.031 1414 579.842 1405.62 Q582.707 1397.18 588.276 1392.62 Q593.898 1388.06 602.385 1388.06 Q608.644 1388.06 613.365 1390.61 Q618.086 1393.1 621.162 1397.87 Q624.239 1402.6 625.989 1409.44 Q627.739 1416.23 627.739 1427.79 Q627.739 1441.48 624.928 1449.91 Q622.117 1458.29 616.494 1462.9 Q610.925 1467.47 602.385 1467.47 Q591.14 1467.47 584.722 1459.4 Q577.031 1449.7 577.031 1427.79 M586.844 1427.79 Q586.844 1446.94 591.299 1453.3 Q595.808 1459.62 602.385 1459.62 Q608.962 1459.62 613.418 1453.25 Q617.927 1446.89 617.927 1427.79 Q617.927 1408.59 613.418 1402.28 Q608.962 1395.96 602.279 1395.96 Q595.702 1395.96 591.777 1401.53 Q586.844 1408.64 586.844 1427.79 Z" fill="#000000" fill-rule="nonzero" fill-opacity="1" /><path clip-path="url(#clip110)" d="M642.803 1466.14 L642.803 1455.27 L653.677 1455.27 L653.677 1466.14 L642.803 1466.14 Z" fill="#000000" fill-rule="nonzero" fill-opacity="1" /><path clip-path="url(#clip110)" d="M668.264 1398.56 L668.264 1389.39 L718.601 1389.39 L718.601 1396.81 Q711.175 1404.72 703.855 1417.82 Q696.588 1430.92 692.61 1444.76 Q689.746 1454.52 688.95 1466.14 L679.137 1466.14 Q679.297 1456.96 682.744 1443.97 Q686.192 1430.97 692.61 1418.93 Q699.081 1406.84 706.348 1398.56 L668.264 1398.56 Z" fill="#000000" fill-rule="nonzero" fill-opacity="1" /><path clip-path="url(#clip110)" d="M728.042 1445.77 L738.067 1444.92 Q739.181 1452.24 743.213 1455.96 Q747.297 1459.62 753.025 1459.62 Q759.921 1459.62 764.695 1454.42 Q769.468 1449.22 769.468 1440.63 Q769.468 1432.46 764.854 1427.74 Q760.292 1423.02 752.866 1423.02 Q748.252 1423.02 744.539 1425.14 Q740.826 1427.21 738.704 1430.55 L729.74 1429.38 L737.272 1389.44 L775.94 1389.44 L775.94 1398.56 L744.91 1398.56 L740.72 1419.46 Q747.721 1414.58 755.412 1414.58 Q765.596 1414.58 772.598 1421.64 Q779.6 1428.69 779.6 1439.78 Q779.6 1450.33 773.447 1458.02 Q765.968 1467.47 753.025 1467.47 Q742.417 1467.47 735.681 1461.53 Q728.997 1455.58 728.042 1445.77 Z" fill="#000000" fill-rule="nonzero" fill-opacity="1" /><path clip-path="url(#clip110)" d="M816.686 1432.25 L765.341 1432.25 L765.341 1423.33 L816.686 1423.33 L816.686 1432.25 Z" fill="#000000" fill-rule="nonzero" fill-opacity="1" /><path clip-path="url(#clip110)" d="M827.241 1427.79 Q827.241 1414 830.052 1405.62 Q832.917 1397.18 838.486 1392.62 Q844.109 1388.06 852.595 1388.06 Q858.854 1388.06 863.575 1390.61 Q868.296 1393.1 871.372 1397.87 Q874.449 1402.6 876.199 1409.44 Q877.95 1416.23 877.95 1427.79 Q877.95 1441.48 875.138 1449.91 Q872.327 1458.29 866.705 1462.9 Q861.135 1467.47 852.595 1467.47 Q841.35 1467.47 834.932 1459.4 Q827.241 1449.7 827.241 1427.79 M837.054 1427.79 Q837.054 1446.94 841.51 1453.3 Q846.018 1459.62 852.595 1459.62 Q859.173 1459.62 863.628 1453.25 Q868.137 1446.89 868.137 1427.79 Q868.137 1408.59 863.628 1402.28 Q859.173 1395.96 852.489 1395.96 Q845.912 1395.96 841.987 1401.53 Q837.054 1408.64 837.054 1427.79 Z" fill="#000000" fill-rule="nonzero" fill-opacity="1" /><path clip-path="url(#clip110)" d="M893.014 1466.14 L893.014 1455.27 L903.887 1455.27 L903.887 1466.14 L893.014 1466.14 Z" fill="#000000" fill-rule="nonzero" fill-opacity="1" /><path clip-path="url(#clip110)" d="M917.837 1445.77 L927.862 1444.92 Q928.976 1452.24 933.007 1455.96 Q937.092 1459.62 942.82 1459.62 Q949.716 1459.62 954.49 1454.42 Q959.263 1449.22 959.263 1440.63 Q959.263 1432.46 954.649 1427.74 Q950.087 1423.02 942.661 1423.02 Q938.046 1423.02 934.334 1425.14 Q930.621 1427.21 928.499 1430.55 L919.535 1429.38 L927.067 1389.44 L965.735 1389.44 L965.735 1398.56 L934.705 1398.56 L930.514 1419.46 Q937.516 1414.58 945.207 1414.58 Q955.391 1414.58 962.393 1421.64 Q969.394 1428.69 969.394 1439.78 Q969.394 1450.33 963.242 1458.02 Q955.763 1467.47 942.82 1467.47 Q932.212 1467.47 925.475 1461.53 Q918.792 1455.58 917.837 1445.77 Z" fill="#000000" fill-rule="nonzero" fill-opacity="1" /><path clip-path="url(#clip110)" d="M978.253 1427.79 Q978.253 1414 981.064 1405.62 Q983.928 1397.18 989.498 1392.62 Q995.12 1388.06 1003.61 1388.06 Q1009.87 1388.06 1014.59 1390.61 Q1019.31 1393.1 1022.38 1397.87 Q1025.46 1402.6 1027.21 1409.44 Q1028.96 1416.23 1028.96 1427.79 Q1028.96 1441.48 1026.15 1449.91 Q1023.34 1458.29 1017.72 1462.9 Q1012.15 1467.47 1003.61 1467.47 Q992.362 1467.47 985.944 1459.4 Q978.253 1449.7 978.253 1427.79 M988.065 1427.79 Q988.065 1446.94 992.521 1453.3 Q997.03 1459.62 1003.61 1459.62 Q1010.18 1459.62 1014.64 1453.25 Q1019.15 1446.89 1019.15 1427.79 Q1019.15 1408.59 1014.64 1402.28 Q1010.18 1395.96 1003.5 1395.96 Q996.923 1395.96 992.998 1401.53 Q988.065 1408.64 988.065 1427.79 Z" fill="#000000" fill-rule="nonzero" fill-opacity="1" /><path clip-path="url(#clip110)" d="M1066.05 1432.25 L1014.7 1432.25 L1014.7 1423.33 L1066.05 1423.33 L1066.05 1432.25 Z" fill="#000000" fill-rule="nonzero" fill-opacity="1" /><path clip-path="url(#clip110)" d="M1076.6 1427.79 Q1076.6 1414 1079.41 1405.62 Q1082.28 1397.18 1087.85 1392.62 Q1093.47 1388.06 1101.96 1388.06 Q1108.22 1388.06 1112.94 1390.61 Q1117.66 1393.1 1120.73 1397.87 Q1123.81 1402.6 1125.56 1409.44 Q1127.31 1416.23 1127.31 1427.79 Q1127.31 1441.48 1124.5 1449.91 Q1121.69 1458.29 1116.07 1462.9 Q1110.5 1467.47 1101.96 1467.47 Q1090.71 1467.47 1084.29 1459.4 Q1076.6 1449.7 1076.6 1427.79 M1086.42 1427.79 Q1086.42 1446.94 1090.87 1453.3 Q1095.38 1459.62 1101.96 1459.62 Q1108.53 1459.62 1112.99 1453.25 Q1117.5 1446.89 1117.5 1427.79 Q1117.5 1408.59 1112.99 1402.28 Q1108.53 1395.96 1101.85 1395.96 Q1095.27 1395.96 1091.35 1401.53 Q1086.42 1408.64 1086.42 1427.79 Z" fill="#000000" fill-rule="nonzero" fill-opacity="1" /><path clip-path="url(#clip110)" d="M1142.38 1466.14 L1142.38 1455.27 L1153.25 1455.27 L1153.25 1466.14 L1142.38 1466.14 Z" fill="#000000" fill-rule="nonzero" fill-opacity="1" /><path clip-path="url(#clip110)" d="M1217.38 1456.96 L1217.38 1466.14 L1165.98 1466.14 Q1165.87 1462.69 1167.09 1459.51 Q1169.06 1454.26 1173.35 1449.17 Q1177.7 1444.07 1185.87 1437.39 Q1198.55 1426.99 1203 1420.95 Q1207.46 1414.85 1207.46 1409.44 Q1207.46 1403.76 1203.37 1399.89 Q1199.34 1395.96 1192.82 1395.96 Q1185.92 1395.96 1181.79 1400.1 Q1177.65 1404.24 1177.6 1411.56 L1167.78 1410.55 Q1168.79 1399.57 1175.37 1393.84 Q1181.94 1388.06 1193.03 1388.06 Q1204.22 1388.06 1210.75 1394.27 Q1217.27 1400.47 1217.27 1409.65 Q1217.27 1414.32 1215.36 1418.83 Q1213.45 1423.33 1209 1428.32 Q1204.59 1433.31 1194.3 1442.01 Q1185.71 1449.22 1183.27 1451.82 Q1180.83 1454.36 1179.24 1456.96 L1217.38 1456.96 Z" fill="#000000" fill-rule="nonzero" fill-opacity="1" /><path clip-path="url(#clip110)" d="M1227.61 1445.77 L1237.64 1444.92 Q1238.75 1452.24 1242.78 1455.96 Q1246.87 1459.62 1252.6 1459.62 Q1259.49 1459.62 1264.27 1454.42 Q1269.04 1449.22 1269.04 1440.63 Q1269.04 1432.46 1264.43 1427.74 Q1259.86 1423.02 1252.44 1423.02 Q1247.82 1423.02 1244.11 1425.14 Q1240.4 1427.21 1238.28 1430.55 L1229.31 1429.38 L1236.84 1389.44 L1275.51 1389.44 L1275.51 1398.56 L1244.48 1398.56 L1240.29 1419.46 Q1247.29 1414.58 1254.98 1414.58 Q1265.17 1414.58 1272.17 1421.64 Q1279.17 1428.69 1279.17 1439.78 Q1279.17 1450.33 1273.02 1458.02 Q1265.54 1467.47 1252.6 1467.47 Q1241.99 1467.47 1235.25 1461.53 Q1228.57 1455.58 1227.61 1445.77 Z" fill="#000000" fill-rule="nonzero" fill-opacity="1" /><path clip-path="url(#clip110)" d="M1295.86 1427.79 Q1295.86 1414 1298.67 1405.62 Q1301.54 1397.18 1307.11 1392.62 Q1312.73 1388.06 1321.22 1388.06 Q1327.48 1388.06 1332.2 1390.61 Q1336.92 1393.1 1339.99 1397.87 Q1343.07 1402.6 1344.82 1409.44 Q1346.57 1416.23 1346.57 1427.79 Q1346.57 1441.48 1343.76 1449.91 Q1340.95 1458.29 1335.33 1462.9 Q1329.76 1467.47 1321.22 1467.47 Q1309.97 1467.47 1303.55 1459.4 Q1295.86 1449.7 1295.86 1427.79 M1305.68 1427.79 Q1305.68 1446.94 1310.13 1453.3 Q1314.64 1459.62 1321.22 1459.62 Q1327.79 1459.62 1332.25 1453.25 Q1336.76 1446.89 1336.76 1427.79 Q1336.76 1408.59 1332.25 1402.28 Q1327.79 1395.96 1321.11 1395.96 Q1314.53 1395.96 1310.61 1401.53 Q1305.68 1408.64 1305.68 1427.79 Z" fill="#000000" fill-rule="nonzero" fill-opacity="1" /><path clip-path="url(#clip110)" d="M1361.63 1466.14 L1361.63 1455.27 L1372.51 1455.27 L1372.51 1466.14 L1361.63 1466.14 Z" fill="#000000" fill-rule="nonzero" fill-opacity="1" /><path clip-path="url(#clip110)" d="M1386.46 1427.79 Q1386.46 1414 1389.27 1405.62 Q1392.13 1397.18 1397.7 1392.62 Q1403.33 1388.06 1411.81 1388.06 Q1418.07 1388.06 1422.79 1390.61 Q1427.51 1393.1 1430.59 1397.87 Q1433.67 1402.6 1435.42 1409.44 Q1437.17 1416.23 1437.17 1427.79 Q1437.17 1441.48 1434.36 1449.91 Q1431.54 1458.29 1425.92 1462.9 Q1420.35 1467.47 1411.81 1467.47 Q1400.57 1467.47 1394.15 1459.4 Q1386.46 1449.7 1386.46 1427.79 M1396.27 1427.79 Q1396.27 1446.94 1400.73 1453.3 Q1405.24 1459.62 1411.81 1459.62 Q1418.39 1459.62 1422.85 1453.25 Q1427.35 1446.89 1427.35 1427.79 Q1427.35 1408.59 1422.85 1402.28 Q1418.39 1395.96 1411.71 1395.96 Q1405.13 1395.96 1401.2 1401.53 Q1396.27 1408.64 1396.27 1427.79 Z" fill="#000000" fill-rule="nonzero" fill-opacity="1" /><path clip-path="url(#clip110)" d="M1446.87 1427.79 Q1446.87 1414 1449.69 1405.62 Q1452.55 1397.18 1458.12 1392.62 Q1463.74 1388.06 1472.23 1388.06 Q1478.49 1388.06 1483.21 1390.61 Q1487.93 1393.1 1491.01 1397.87 Q1494.08 1402.6 1495.83 1409.44 Q1497.58 1416.23 1497.58 1427.79 Q1497.58 1441.48 1494.77 1449.91 Q1491.96 1458.29 1486.34 1462.9 Q1480.77 1467.47 1472.23 1467.47 Q1460.98 1467.47 1454.57 1459.4 Q1446.87 1449.7 1446.87 1427.79 M1456.69 1427.79 Q1456.69 1446.94 1461.14 1453.3 Q1465.65 1459.62 1472.23 1459.62 Q1478.81 1459.62 1483.26 1453.25 Q1487.77 1446.89 1487.77 1427.79 Q1487.77 1408.59 1483.26 1402.28 Q1478.81 1395.96 1472.12 1395.96 Q1465.54 1395.96 1461.62 1401.53 Q1456.69 1408.64 1456.69 1427.79 Z" fill="#000000" fill-rule="nonzero" fill-opacity="1" /><path clip-path="url(#clip110)" d="M1545.22 1427.79 Q1545.22 1414 1548.04 1405.62 Q1550.9 1397.18 1556.47 1392.62 Q1562.09 1388.06 1570.58 1388.06 Q1576.84 1388.06 1581.56 1390.61 Q1586.28 1393.1 1589.36 1397.87 Q1592.43 1402.6 1594.18 1409.44 Q1595.93 1416.23 1595.93 1427.79 Q1595.93 1441.48 1593.12 1449.91 Q1590.31 1458.29 1584.69 1462.9 Q1579.12 1467.47 1570.58 1467.47 Q1559.33 1467.47 1552.92 1459.4 Q1545.22 1449.7 1545.22 1427.79 M1555.04 1427.79 Q1555.04 1446.94 1559.49 1453.3 Q1564 1459.62 1570.58 1459.62 Q1577.16 1459.62 1581.61 1453.25 Q1586.12 1446.89 1586.12 1427.79 Q1586.12 1408.59 1581.61 1402.28 Q1577.16 1395.96 1570.47 1395.96 Q1563.89 1395.96 1559.97 1401.53 Q1555.04 1408.64 1555.04 1427.79 Z" fill="#000000" fill-rule="nonzero" fill-opacity="1" /><path clip-path="url(#clip110)" d="M1611 1466.14 L1611 1455.27 L1621.87 1455.27 L1621.87 1466.14 L1611 1466.14 Z" fill="#000000" fill-rule="nonzero" fill-opacity="1" /><path clip-path="url(#clip110)" d="M1686 1456.96 L1686 1466.14 L1634.6 1466.14 Q1634.49 1462.69 1635.71 1459.51 Q1637.68 1454.26 1641.97 1449.17 Q1646.32 1444.07 1654.49 1437.39 Q1667.17 1426.99 1671.62 1420.95 Q1676.08 1414.85 1676.08 1409.44 Q1676.08 1403.76 1672 1399.89 Q1667.96 1395.96 1661.44 1395.96 Q1654.54 1395.96 1650.41 1400.1 Q1646.27 1404.24 1646.22 1411.56 L1636.4 1410.55 Q1637.41 1399.57 1643.99 1393.84 Q1650.57 1388.06 1661.65 1388.06 Q1672.84 1388.06 1679.37 1394.27 Q1685.89 1400.47 1685.89 1409.65 Q1685.89 1414.32 1683.98 1418.83 Q1682.07 1423.33 1677.62 1428.32 Q1673.22 1433.31 1662.92 1442.01 Q1654.33 1449.22 1651.89 1451.82 Q1649.45 1454.36 1647.86 1456.96 L1686 1456.96 Z" fill="#000000" fill-rule="nonzero" fill-opacity="1" /><path clip-path="url(#clip110)" d="M1696.24 1445.77 L1706.26 1444.92 Q1707.37 1452.24 1711.41 1455.96 Q1715.49 1459.62 1721.22 1459.62 Q1728.11 1459.62 1732.89 1454.42 Q1737.66 1449.22 1737.66 1440.63 Q1737.66 1432.46 1733.05 1427.74 Q1728.49 1423.02 1721.06 1423.02 Q1716.44 1423.02 1712.73 1425.14 Q1709.02 1427.21 1706.9 1430.55 L1697.93 1429.38 L1705.46 1389.44 L1744.13 1389.44 L1744.13 1398.56 L1713.1 1398.56 L1708.91 1419.46 Q1715.91 1414.58 1723.61 1414.58 Q1733.79 1414.58 1740.79 1421.64 Q1747.79 1428.69 1747.79 1439.78 Q1747.79 1450.33 1741.64 1458.02 Q1734.16 1467.47 1721.22 1467.47 Q1710.61 1467.47 1703.87 1461.53 Q1697.19 1455.58 1696.24 1445.77 Z" fill="#000000" fill-rule="nonzero" fill-opacity="1" /><path clip-path="url(#clip110)" d="M1795.43 1427.79 Q1795.43 1414 1798.25 1405.62 Q1801.11 1397.18 1806.68 1392.62 Q1812.3 1388.06 1820.79 1388.06 Q1827.05 1388.06 1831.77 1390.61 Q1836.49 1393.1 1839.57 1397.87 Q1842.64 1402.6 1844.39 1409.44 Q1846.14 1416.23 1846.14 1427.79 Q1846.14 1441.48 1843.33 1449.91 Q1840.52 1458.29 1834.9 1462.9 Q1829.33 1467.47 1820.79 1467.47 Q1809.54 1467.47 1803.13 1459.4 Q1795.43 1449.7 1795.43 1427.79 M1805.25 1427.79 Q1805.25 1446.94 1809.7 1453.3 Q1814.21 1459.62 1820.79 1459.62 Q1827.37 1459.62 1831.82 1453.25 Q1836.33 1446.89 1836.33 1427.79 Q1836.33 1408.59 1831.82 1402.28 Q1827.37 1395.96 1820.68 1395.96 Q1814.1 1395.96 1810.18 1401.53 Q1805.25 1408.64 1805.25 1427.79 Z" fill="#000000" fill-rule="nonzero" fill-opacity="1" /><path clip-path="url(#clip110)" d="M1861.21 1466.14 L1861.21 1455.27 L1872.08 1455.27 L1872.08 1466.14 L1861.21 1466.14 Z" fill="#000000" fill-rule="nonzero" fill-opacity="1" /><path clip-path="url(#clip110)" d="M1886.03 1445.77 L1896.06 1444.92 Q1897.17 1452.24 1901.2 1455.96 Q1905.28 1459.62 1911.01 1459.62 Q1917.91 1459.62 1922.68 1454.42 Q1927.46 1449.22 1927.46 1440.63 Q1927.46 1432.46 1922.84 1427.74 Q1918.28 1423.02 1910.85 1423.02 Q1906.24 1423.02 1902.53 1425.14 Q1898.81 1427.21 1896.69 1430.55 L1887.73 1429.38 L1895.26 1389.44 L1933.93 1389.44 L1933.93 1398.56 L1902.9 1398.56 L1898.71 1419.46 Q1905.71 1414.58 1913.4 1414.58 Q1923.58 1414.58 1930.59 1421.64 Q1937.59 1428.69 1937.59 1439.78 Q1937.59 1450.33 1931.43 1458.02 Q1923.96 1467.47 1911.01 1467.47 Q1900.4 1467.47 1893.67 1461.53 Q1886.99 1455.58 1886.03 1445.77 Z" fill="#000000" fill-rule="nonzero" fill-opacity="1" /><path clip-path="url(#clip110)" d="M1946.45 1427.79 Q1946.45 1414 1949.26 1405.62 Q1952.12 1397.18 1957.69 1392.62 Q1963.31 1388.06 1971.8 1388.06 Q1978.06 1388.06 1982.78 1390.61 Q1987.5 1393.1 1990.58 1397.87 Q1993.65 1402.6 1995.4 1409.44 Q1997.15 1416.23 1997.15 1427.79 Q1997.15 1441.48 1994.34 1449.91 Q1991.53 1458.29 1985.91 1462.9 Q1980.34 1467.47 1971.8 1467.47 Q1960.55 1467.47 1954.14 1459.4 Q1946.45 1449.7 1946.45 1427.79 M1956.26 1427.79 Q1956.26 1446.94 1960.71 1453.3 Q1965.22 1459.62 1971.8 1459.62 Q1978.38 1459.62 1982.83 1453.25 Q1987.34 1446.89 1987.34 1427.79 Q1987.34 1408.59 1982.83 1402.28 Q1978.38 1395.96 1971.69 1395.96 Q1965.12 1395.96 1961.19 1401.53 Q1956.26 1408.64 1956.26 1427.79 Z" fill="#000000" fill-rule="nonzero" fill-opacity="1" /><path clip-path="url(#clip110)" d="M2044.8 1427.79 Q2044.8 1414 2047.61 1405.62 Q2050.47 1397.18 2056.04 1392.62 Q2061.66 1388.06 2070.15 1388.06 Q2076.41 1388.06 2081.13 1390.61 Q2085.85 1393.1 2088.93 1397.87 Q2092 1402.6 2093.75 1409.44 Q2095.5 1416.23 2095.5 1427.79 Q2095.5 1441.48 2092.69 1449.91 Q2089.88 1458.29 2084.26 1462.9 Q2078.69 1467.47 2070.15 1467.47 Q2058.9 1467.47 2052.49 1459.4 Q2044.8 1449.7 2044.8 1427.79 M2054.61 1427.79 Q2054.61 1446.94 2059.06 1453.3 Q2063.57 1459.62 2070.15 1459.62 Q2076.73 1459.62 2081.18 1453.25 Q2085.69 1446.89 2085.69 1427.79 Q2085.69 1408.59 2081.18 1402.28 Q2076.73 1395.96 2070.04 1395.96 Q2063.47 1395.96 2059.54 1401.53 Q2054.61 1408.64 2054.61 1427.79 Z" fill="#000000" fill-rule="nonzero" fill-opacity="1" /><path clip-path="url(#clip110)" d="M2110.57 1466.14 L2110.57 1455.27 L2121.44 1455.27 L2121.44 1466.14 L2110.57 1466.14 Z" fill="#000000" fill-rule="nonzero" fill-opacity="1" /><path clip-path="url(#clip110)" d="M2136.03 1398.56 L2136.03 1389.39 L2186.37 1389.39 L2186.37 1396.81 Q2178.94 1404.72 2171.62 1417.82 Q2164.35 1430.92 2160.37 1444.76 Q2157.51 1454.52 2156.71 1466.14 L2146.9 1466.14 Q2147.06 1456.96 2150.51 1443.97 Q2153.96 1430.97 2160.37 1418.93 Q2166.85 1406.84 2174.11 1398.56 L2136.03 1398.56 Z" fill="#000000" fill-rule="nonzero" fill-opacity="1" /><path clip-path="url(#clip110)" d="M2195.81 1445.77 L2205.83 1444.92 Q2206.95 1452.24 2210.98 1455.96 Q2215.06 1459.62 2220.79 1459.62 Q2227.69 1459.62 2232.46 1454.42 Q2237.23 1449.22 2237.23 1440.63 Q2237.23 1432.46 2232.62 1427.74 Q2228.06 1423.02 2220.63 1423.02 Q2216.02 1423.02 2212.3 1425.14 Q2208.59 1427.21 2206.47 1430.55 L2197.5 1429.38 L2205.04 1389.44 L2243.7 1389.44 L2243.7 1398.56 L2212.67 1398.56 L2208.48 1419.46 Q2215.49 1414.58 2223.18 1414.58 Q2233.36 1414.58 2240.36 1421.64 Q2247.36 1428.69 2247.36 1439.78 Q2247.36 1450.33 2241.21 1458.02 Q2233.73 1467.47 2220.79 1467.47 Q2210.18 1467.47 2203.45 1461.53 Q2196.76 1455.58 2195.81 1445.77 Z" fill="#000000" fill-rule="nonzero" fill-opacity="1" /><path clip-path="url(#clip110)" d="M1348.06 1557.13 L1348.06 1553.81 Q1356.5 1553.81 1361.87 1547.33 Q1361.87 1547.33 1371.99 1534.47 L1361.29 1520.56 Q1357.5 1515.71 1355.81 1514.87 Q1354.18 1513.97 1348.59 1513.97 L1348.59 1510.6 Q1353.02 1510.92 1358.82 1510.92 Q1362.03 1510.92 1370.51 1510.6 L1370.51 1513.97 Q1366.72 1514.18 1366.72 1516.66 Q1366.72 1517.5 1367.67 1518.61 L1376.1 1529.52 L1382.79 1521.09 Q1384.43 1519.14 1384.43 1517.29 Q1384.43 1514.29 1381.27 1513.97 L1381.27 1510.6 Q1385.48 1510.92 1391.65 1510.92 Q1396.29 1510.92 1400.5 1510.6 L1400.5 1513.97 Q1392.28 1514.18 1387.64 1519.56 Q1385.59 1521.82 1377.73 1531.78 L1392.17 1550.44 Q1393.91 1552.71 1395.86 1553.29 Q1397.81 1553.81 1402.45 1553.81 L1402.45 1557.13 Q1397.6 1556.82 1392.07 1556.82 Q1390.12 1556.82 1380.42 1557.13 L1380.42 1553.81 Q1382.37 1553.71 1383.32 1552.86 Q1384.32 1551.97 1384.32 1551.07 Q1384.32 1550.65 1382.06 1547.54 L1373.83 1536.74 Q1365.61 1546.44 1364.56 1548.7 Q1364.14 1549.65 1364.14 1550.44 Q1364.14 1553.34 1367.25 1553.81 L1367.25 1557.13 Q1359.5 1556.82 1357.02 1556.82 Q1352.28 1556.82 1348.06 1557.13 Z" fill="#000000" fill-rule="nonzero" fill-opacity="1" /><path clip-path="url(#clip110)" d="M1413.44 1543.91 L1413.44 1541.55 Q1422.52 1541.55 1427.2 1536.71 Q1428.49 1536.71 1428.72 1537.01 Q1428.94 1537.3 1428.94 1538.67 L1428.94 1581.06 Q1428.94 1583.31 1430.04 1584.01 Q1431.15 1584.71 1435.98 1584.71 L1438.38 1584.71 L1438.38 1587.03 Q1435.73 1586.81 1426.13 1586.81 Q1416.54 1586.81 1413.92 1587.03 L1413.92 1584.71 L1416.32 1584.71 Q1421.08 1584.71 1422.22 1584.04 Q1423.37 1583.34 1423.37 1581.06 L1423.37 1541.92 Q1419.42 1543.91 1413.44 1543.91 Z" fill="#000000" fill-rule="nonzero" fill-opacity="1" /><polyline clip-path="url(#clip110)" style="stroke:#000000; stroke-linecap:round; stroke-linejoin:round; stroke-width:4; stroke-opacity:1; fill:none" points="444.969,1349.74 444.969,47.2441 "/>
<polyline clip-path="url(#clip110)" style="stroke:#000000; stroke-linecap:round; stroke-linejoin:round; stroke-width:2; stroke-opacity:0.5; fill:none" points="2352.76,1349.74 2352.76,47.2441 "/>
<polyline clip-path="url(#clip110)" style="stroke:#000000; stroke-linecap:round; stroke-linejoin:round; stroke-width:4; stroke-opacity:1; fill:none" points="444.969,1197.62 463.867,1197.62 "/>
<polyline clip-path="url(#clip110)" style="stroke:#000000; stroke-linecap:round; stroke-linejoin:round; stroke-width:4; stroke-opacity:1; fill:none" points="444.969,1029.31 463.867,1029.31 "/>
<polyline clip-path="url(#clip110)" style="stroke:#000000; stroke-linecap:round; stroke-linejoin:round; stroke-width:4; stroke-opacity:1; fill:none" points="444.969,861.005 463.867,861.005 "/>
<polyline clip-path="url(#clip110)" style="stroke:#000000; stroke-linecap:round; stroke-linejoin:round; stroke-width:4; stroke-opacity:1; fill:none" points="444.969,692.699 463.867,692.699 "/>
<polyline clip-path="url(#clip110)" style="stroke:#000000; stroke-linecap:round; stroke-linejoin:round; stroke-width:4; stroke-opacity:1; fill:none" points="444.969,524.394 463.867,524.394 "/>
<polyline clip-path="url(#clip110)" style="stroke:#000000; stroke-linecap:round; stroke-linejoin:round; stroke-width:4; stroke-opacity:1; fill:none" points="444.969,356.089 463.867,356.089 "/>
<polyline clip-path="url(#clip110)" style="stroke:#000000; stroke-linecap:round; stroke-linejoin:round; stroke-width:4; stroke-opacity:1; fill:none" points="444.969,187.783 463.867,187.783 "/>
<path clip-path="url(#clip110)" d="M195.845 1202.6 L144.5 1202.6 L144.5 1193.69 L195.845 1193.69 L195.845 1202.6 Z" fill="#000000" fill-rule="nonzero" fill-opacity="1" /><path clip-path="url(#clip110)" d="M206.401 1198.15 Q206.401 1184.35 209.212 1175.97 Q212.076 1167.54 217.645 1162.98 Q223.268 1158.42 231.755 1158.42 Q238.014 1158.42 242.734 1160.96 Q247.455 1163.46 250.532 1168.23 Q253.608 1172.95 255.359 1179.79 Q257.109 1186.58 257.109 1198.15 Q257.109 1211.83 254.298 1220.26 Q251.486 1228.64 245.864 1233.26 Q240.295 1237.82 231.755 1237.82 Q220.51 1237.82 214.092 1229.76 Q206.401 1220.05 206.401 1198.15 M216.213 1198.15 Q216.213 1217.29 220.669 1223.66 Q225.177 1229.97 231.755 1229.97 Q238.332 1229.97 242.788 1223.61 Q247.296 1217.24 247.296 1198.15 Q247.296 1178.94 242.788 1172.63 Q238.332 1166.32 231.649 1166.32 Q225.071 1166.32 221.146 1171.89 Q216.213 1179 216.213 1198.15 Z" fill="#000000" fill-rule="nonzero" fill-opacity="1" /><path clip-path="url(#clip110)" d="M272.173 1236.5 L272.173 1225.62 L283.047 1225.62 L283.047 1236.5 L272.173 1236.5 Z" fill="#000000" fill-rule="nonzero" fill-opacity="1" /><path clip-path="url(#clip110)" d="M297.633 1168.92 L297.633 1159.74 L347.97 1159.74 L347.97 1167.17 Q340.544 1175.07 333.225 1188.17 Q325.958 1201.27 321.98 1215.12 Q319.115 1224.88 318.32 1236.5 L308.507 1236.5 Q308.666 1227.32 312.114 1214.32 Q315.562 1201.33 321.98 1189.29 Q328.451 1177.19 335.718 1168.92 L297.633 1168.92 Z" fill="#000000" fill-rule="nonzero" fill-opacity="1" /><path clip-path="url(#clip110)" d="M357.412 1216.13 L367.437 1215.28 Q368.551 1222.6 372.582 1226.31 Q376.666 1229.97 382.395 1229.97 Q389.29 1229.97 394.064 1224.77 Q398.838 1219.57 398.838 1210.98 Q398.838 1202.81 394.223 1198.09 Q389.662 1193.37 382.236 1193.37 Q377.621 1193.37 373.908 1195.49 Q370.195 1197.56 368.073 1200.9 L359.109 1199.74 L366.641 1159.8 L405.309 1159.8 L405.309 1168.92 L374.279 1168.92 L370.089 1189.82 Q377.091 1184.94 384.782 1184.94 Q394.966 1184.94 401.967 1191.99 Q408.969 1199.05 408.969 1210.13 Q408.969 1220.69 402.816 1228.38 Q395.337 1237.82 382.395 1237.82 Q371.786 1237.82 365.05 1231.88 Q358.367 1225.94 357.412 1216.13 Z" fill="#000000" fill-rule="nonzero" fill-opacity="1" /><path clip-path="url(#clip110)" d="M196.694 1034.3 L145.349 1034.3 L145.349 1025.38 L196.694 1025.38 L196.694 1034.3 Z" fill="#000000" fill-rule="nonzero" fill-opacity="1" /><path clip-path="url(#clip110)" d="M207.249 1029.84 Q207.249 1016.05 210.06 1007.67 Q212.925 999.235 218.494 994.673 Q224.117 990.112 232.603 990.112 Q238.862 990.112 243.583 992.658 Q248.304 995.151 251.38 999.924 Q254.457 1004.65 256.207 1011.49 Q257.958 1018.28 257.958 1029.84 Q257.958 1043.53 255.146 1051.96 Q252.335 1060.34 246.713 1064.95 Q241.143 1069.52 232.603 1069.52 Q221.358 1069.52 214.94 1061.45 Q207.249 1051.75 207.249 1029.84 M217.062 1029.84 Q217.062 1048.99 221.518 1055.35 Q226.026 1061.67 232.603 1061.67 Q239.181 1061.67 243.636 1055.3 Q248.145 1048.94 248.145 1029.84 Q248.145 1010.64 243.636 1004.33 Q239.181 998.015 232.497 998.015 Q225.92 998.015 221.995 1003.58 Q217.062 1010.69 217.062 1029.84 Z" fill="#000000" fill-rule="nonzero" fill-opacity="1" /><path clip-path="url(#clip110)" d="M273.022 1068.19 L273.022 1057.32 L283.895 1057.32 L283.895 1068.19 L273.022 1068.19 Z" fill="#000000" fill-rule="nonzero" fill-opacity="1" /><path clip-path="url(#clip110)" d="M297.845 1047.82 L307.87 1046.97 Q308.984 1054.29 313.016 1058.01 Q317.1 1061.67 322.828 1061.67 Q329.724 1061.67 334.498 1056.47 Q339.271 1051.27 339.271 1042.68 Q339.271 1034.51 334.657 1029.79 Q330.095 1025.07 322.669 1025.07 Q318.055 1025.07 314.342 1027.19 Q310.629 1029.26 308.507 1032.6 L299.543 1031.43 L307.075 991.491 L345.743 991.491 L345.743 1000.61 L314.713 1000.61 L310.523 1021.51 Q317.524 1016.63 325.215 1016.63 Q335.399 1016.63 342.401 1023.69 Q349.403 1030.74 349.403 1041.83 Q349.403 1052.38 343.25 1060.07 Q335.771 1069.52 322.828 1069.52 Q312.22 1069.52 305.484 1063.58 Q298.8 1057.63 297.845 1047.82 Z" fill="#000000" fill-rule="nonzero" fill-opacity="1" /><path clip-path="url(#clip110)" d="M358.261 1029.84 Q358.261 1016.05 361.072 1007.67 Q363.936 999.235 369.506 994.673 Q375.128 990.112 383.615 990.112 Q389.874 990.112 394.595 992.658 Q399.315 995.151 402.392 999.924 Q405.468 1004.65 407.219 1011.49 Q408.969 1018.28 408.969 1029.84 Q408.969 1043.53 406.158 1051.96 Q403.347 1060.34 397.724 1064.95 Q392.155 1069.52 383.615 1069.52 Q372.37 1069.52 365.952 1061.45 Q358.261 1051.75 358.261 1029.84 M368.073 1029.84 Q368.073 1048.99 372.529 1055.35 Q377.038 1061.67 383.615 1061.67 Q390.192 1061.67 394.648 1055.3 Q399.156 1048.94 399.156 1029.84 Q399.156 1010.64 394.648 1004.33 Q390.192 998.015 383.509 998.015 Q376.931 998.015 373.006 1003.58 Q368.073 1010.69 368.073 1029.84 Z" fill="#000000" fill-rule="nonzero" fill-opacity="1" /><path clip-path="url(#clip110)" d="M195.845 865.99 L144.5 865.99 L144.5 857.079 L195.845 857.079 L195.845 865.99 Z" fill="#000000" fill-rule="nonzero" fill-opacity="1" /><path clip-path="url(#clip110)" d="M206.401 861.535 Q206.401 847.744 209.212 839.363 Q212.076 830.93 217.645 826.368 Q223.268 821.806 231.755 821.806 Q238.014 821.806 242.734 824.352 Q247.455 826.845 250.532 831.619 Q253.608 836.34 255.359 843.182 Q257.109 849.972 257.109 861.535 Q257.109 875.22 254.298 883.654 Q251.486 892.034 245.864 896.649 Q240.295 901.211 231.755 901.211 Q220.51 901.211 214.092 893.148 Q206.401 883.441 206.401 861.535 M216.213 861.535 Q216.213 880.683 220.669 887.048 Q225.177 893.36 231.755 893.36 Q238.332 893.36 242.788 886.995 Q247.296 880.63 247.296 861.535 Q247.296 842.334 242.788 836.022 Q238.332 829.71 231.649 829.71 Q225.071 829.71 221.146 835.279 Q216.213 842.387 216.213 861.535 Z" fill="#000000" fill-rule="nonzero" fill-opacity="1" /><path clip-path="url(#clip110)" d="M272.173 899.885 L272.173 889.011 L283.047 889.011 L283.047 899.885 L272.173 899.885 Z" fill="#000000" fill-rule="nonzero" fill-opacity="1" /><path clip-path="url(#clip110)" d="M347.175 890.708 L347.175 899.885 L295.777 899.885 Q295.671 896.437 296.891 893.254 Q298.853 888.003 303.15 882.911 Q307.499 877.819 315.668 871.136 Q328.345 860.739 332.8 854.692 Q337.256 848.593 337.256 843.182 Q337.256 837.507 333.172 833.635 Q329.14 829.71 322.616 829.71 Q315.721 829.71 311.583 833.847 Q307.446 837.984 307.393 845.304 L297.58 844.296 Q298.588 833.316 305.165 827.588 Q311.743 821.806 322.828 821.806 Q334.02 821.806 340.544 828.012 Q347.069 834.218 347.069 843.394 Q347.069 848.062 345.159 852.571 Q343.25 857.079 338.794 862.065 Q334.392 867.051 324.101 875.75 Q315.509 882.964 313.069 885.563 Q310.629 888.109 309.037 890.708 L347.175 890.708 Z" fill="#000000" fill-rule="nonzero" fill-opacity="1" /><path clip-path="url(#clip110)" d="M357.412 879.516 L367.437 878.668 Q368.551 885.987 372.582 889.7 Q376.666 893.36 382.395 893.36 Q389.29 893.36 394.064 888.162 Q398.838 882.964 398.838 874.371 Q398.838 866.203 394.223 861.482 Q389.662 856.761 382.236 856.761 Q377.621 856.761 373.908 858.883 Q370.195 860.951 368.073 864.293 L359.109 863.126 L366.641 823.185 L405.309 823.185 L405.309 832.309 L374.279 832.309 L370.089 853.207 Q377.091 848.327 384.782 848.327 Q394.966 848.327 401.967 855.382 Q408.969 862.437 408.969 873.522 Q408.969 884.078 402.816 891.769 Q395.337 901.211 382.395 901.211 Q371.786 901.211 365.05 895.27 Q358.367 889.329 357.412 879.516 Z" fill="#000000" fill-rule="nonzero" fill-opacity="1" /><path clip-path="url(#clip110)" d="M207.249 693.23 Q207.249 679.439 210.06 671.058 Q212.925 662.624 218.494 658.063 Q224.117 653.501 232.603 653.501 Q238.862 653.501 243.583 656.047 Q248.304 658.54 251.38 663.314 Q254.457 668.035 256.207 674.877 Q257.958 681.666 257.958 693.23 Q257.958 706.915 255.146 715.348 Q252.335 723.729 246.713 728.344 Q241.143 732.905 232.603 732.905 Q221.358 732.905 214.94 724.843 Q207.249 715.136 207.249 693.23 M217.062 693.23 Q217.062 712.378 221.518 718.743 Q226.026 725.055 232.603 725.055 Q239.181 725.055 243.636 718.69 Q248.145 712.325 248.145 693.23 Q248.145 674.028 243.636 667.716 Q239.181 661.404 232.497 661.404 Q225.92 661.404 221.995 666.974 Q217.062 674.081 217.062 693.23 Z" fill="#000000" fill-rule="nonzero" fill-opacity="1" /><path clip-path="url(#clip110)" d="M273.022 731.579 L273.022 720.706 L283.895 720.706 L283.895 731.579 L273.022 731.579 Z" fill="#000000" fill-rule="nonzero" fill-opacity="1" /><path clip-path="url(#clip110)" d="M297.845 693.23 Q297.845 679.439 300.657 671.058 Q303.521 662.624 309.09 658.063 Q314.713 653.501 323.2 653.501 Q329.459 653.501 334.179 656.047 Q338.9 658.54 341.977 663.314 Q345.053 668.035 346.803 674.877 Q348.554 681.666 348.554 693.23 Q348.554 706.915 345.743 715.348 Q342.931 723.729 337.309 728.344 Q331.739 732.905 323.2 732.905 Q311.955 732.905 305.537 724.843 Q297.845 715.136 297.845 693.23 M307.658 693.23 Q307.658 712.378 312.114 718.743 Q316.622 725.055 323.2 725.055 Q329.777 725.055 334.232 718.69 Q338.741 712.325 338.741 693.23 Q338.741 674.028 334.232 667.716 Q329.777 661.404 323.094 661.404 Q316.516 661.404 312.591 666.974 Q307.658 674.081 307.658 693.23 Z" fill="#000000" fill-rule="nonzero" fill-opacity="1" /><path clip-path="url(#clip110)" d="M358.261 693.23 Q358.261 679.439 361.072 671.058 Q363.936 662.624 369.506 658.063 Q375.128 653.501 383.615 653.501 Q389.874 653.501 394.595 656.047 Q399.315 658.54 402.392 663.314 Q405.468 668.035 407.219 674.877 Q408.969 681.666 408.969 693.23 Q408.969 706.915 406.158 715.348 Q403.347 723.729 397.724 728.344 Q392.155 732.905 383.615 732.905 Q372.37 732.905 365.952 724.843 Q358.261 715.136 358.261 693.23 M368.073 693.23 Q368.073 712.378 372.529 718.743 Q377.038 725.055 383.615 725.055 Q390.192 725.055 394.648 718.69 Q399.156 712.325 399.156 693.23 Q399.156 674.028 394.648 667.716 Q390.192 661.404 383.509 661.404 Q376.931 661.404 373.006 666.974 Q368.073 674.081 368.073 693.23 Z" fill="#000000" fill-rule="nonzero" fill-opacity="1" /><path clip-path="url(#clip110)" d="M206.401 524.924 Q206.401 511.133 209.212 502.753 Q212.076 494.319 217.645 489.757 Q223.268 485.196 231.755 485.196 Q238.014 485.196 242.734 487.742 Q247.455 490.235 250.532 495.009 Q253.608 499.729 255.359 506.572 Q257.109 513.361 257.109 524.924 Q257.109 538.609 254.298 547.043 Q251.486 555.424 245.864 560.038 Q240.295 564.6 231.755 564.6 Q220.51 564.6 214.092 556.538 Q206.401 546.831 206.401 524.924 M216.213 524.924 Q216.213 544.073 220.669 550.438 Q225.177 556.75 231.755 556.75 Q238.332 556.75 242.788 550.385 Q247.296 544.02 247.296 524.924 Q247.296 505.723 242.788 499.411 Q238.332 493.099 231.649 493.099 Q225.071 493.099 221.146 498.668 Q216.213 505.776 216.213 524.924 Z" fill="#000000" fill-rule="nonzero" fill-opacity="1" /><path clip-path="url(#clip110)" d="M272.173 563.274 L272.173 552.4 L283.047 552.4 L283.047 563.274 L272.173 563.274 Z" fill="#000000" fill-rule="nonzero" fill-opacity="1" /><path clip-path="url(#clip110)" d="M347.175 554.098 L347.175 563.274 L295.777 563.274 Q295.671 559.826 296.891 556.644 Q298.853 551.392 303.15 546.3 Q307.499 541.208 315.668 534.525 Q328.345 524.129 332.8 518.082 Q337.256 511.982 337.256 506.572 Q337.256 500.896 333.172 497.024 Q329.14 493.099 322.616 493.099 Q315.721 493.099 311.583 497.236 Q307.446 501.374 307.393 508.693 L297.58 507.686 Q298.588 496.706 305.165 490.977 Q311.743 485.196 322.828 485.196 Q334.02 485.196 340.544 491.402 Q347.069 497.608 347.069 506.784 Q347.069 511.452 345.159 515.96 Q343.25 520.469 338.794 525.455 Q334.392 530.441 324.101 539.14 Q315.509 546.353 313.069 548.953 Q310.629 551.499 309.037 554.098 L347.175 554.098 Z" fill="#000000" fill-rule="nonzero" fill-opacity="1" /><path clip-path="url(#clip110)" d="M357.412 542.906 L367.437 542.057 Q368.551 549.377 372.582 553.09 Q376.666 556.75 382.395 556.75 Q389.29 556.75 394.064 551.552 Q398.838 546.353 398.838 537.761 Q398.838 529.592 394.223 524.871 Q389.662 520.151 382.236 520.151 Q377.621 520.151 373.908 522.272 Q370.195 524.341 368.073 527.683 L359.109 526.516 L366.641 486.575 L405.309 486.575 L405.309 495.698 L374.279 495.698 L370.089 516.597 Q377.091 511.717 384.782 511.717 Q394.966 511.717 401.967 518.771 Q408.969 525.826 408.969 536.912 Q408.969 547.467 402.816 555.158 Q395.337 564.6 382.395 564.6 Q371.786 564.6 365.05 558.659 Q358.367 552.719 357.412 542.906 Z" fill="#000000" fill-rule="nonzero" fill-opacity="1" /><path clip-path="url(#clip110)" d="M207.249 356.619 Q207.249 342.828 210.06 334.447 Q212.925 326.014 218.494 321.452 Q224.117 316.89 232.603 316.89 Q238.862 316.89 243.583 319.436 Q248.304 321.929 251.38 326.703 Q254.457 331.424 256.207 338.266 Q257.958 345.056 257.958 356.619 Q257.958 370.304 255.146 378.738 Q252.335 387.118 246.713 391.733 Q241.143 396.295 232.603 396.295 Q221.358 396.295 214.94 388.232 Q207.249 378.526 207.249 356.619 M217.062 356.619 Q217.062 375.767 221.518 382.132 Q226.026 388.444 232.603 388.444 Q239.181 388.444 243.636 382.079 Q248.145 375.714 248.145 356.619 Q248.145 337.418 243.636 331.106 Q239.181 324.794 232.497 324.794 Q225.92 324.794 221.995 330.363 Q217.062 337.471 217.062 356.619 Z" fill="#000000" fill-rule="nonzero" fill-opacity="1" /><path clip-path="url(#clip110)" d="M273.022 394.969 L273.022 384.095 L283.895 384.095 L283.895 394.969 L273.022 394.969 Z" fill="#000000" fill-rule="nonzero" fill-opacity="1" /><path clip-path="url(#clip110)" d="M297.845 374.6 L307.87 373.752 Q308.984 381.072 313.016 384.785 Q317.1 388.444 322.828 388.444 Q329.724 388.444 334.498 383.246 Q339.271 378.048 339.271 369.455 Q339.271 361.287 334.657 356.566 Q330.095 351.845 322.669 351.845 Q318.055 351.845 314.342 353.967 Q310.629 356.036 308.507 359.377 L299.543 358.21 L307.075 318.27 L345.743 318.27 L345.743 327.393 L314.713 327.393 L310.523 348.291 Q317.524 343.412 325.215 343.412 Q335.399 343.412 342.401 350.466 Q349.403 357.521 349.403 368.607 Q349.403 379.162 343.25 386.853 Q335.771 396.295 322.828 396.295 Q312.22 396.295 305.484 390.354 Q298.8 384.413 297.845 374.6 Z" fill="#000000" fill-rule="nonzero" fill-opacity="1" /><path clip-path="url(#clip110)" d="M358.261 356.619 Q358.261 342.828 361.072 334.447 Q363.936 326.014 369.506 321.452 Q375.128 316.89 383.615 316.89 Q389.874 316.89 394.595 319.436 Q399.315 321.929 402.392 326.703 Q405.468 331.424 407.219 338.266 Q408.969 345.056 408.969 356.619 Q408.969 370.304 406.158 378.738 Q403.347 387.118 397.724 391.733 Q392.155 396.295 383.615 396.295 Q372.37 396.295 365.952 388.232 Q358.261 378.526 358.261 356.619 M368.073 356.619 Q368.073 375.767 372.529 382.132 Q377.038 388.444 383.615 388.444 Q390.192 388.444 394.648 382.079 Q399.156 375.714 399.156 356.619 Q399.156 337.418 394.648 331.106 Q390.192 324.794 383.509 324.794 Q376.931 324.794 373.006 330.363 Q368.073 337.471 368.073 356.619 Z" fill="#000000" fill-rule="nonzero" fill-opacity="1" /><path clip-path="url(#clip110)" d="M206.401 188.314 Q206.401 174.523 209.212 166.142 Q212.076 157.708 217.645 153.147 Q223.268 148.585 231.755 148.585 Q238.014 148.585 242.734 151.131 Q247.455 153.624 250.532 158.398 Q253.608 163.119 255.359 169.961 Q257.109 176.751 257.109 188.314 Q257.109 201.999 254.298 210.432 Q251.486 218.813 245.864 223.428 Q240.295 227.989 231.755 227.989 Q220.51 227.989 214.092 219.927 Q206.401 210.22 206.401 188.314 M216.213 188.314 Q216.213 207.462 220.669 213.827 Q225.177 220.139 231.755 220.139 Q238.332 220.139 242.788 213.774 Q247.296 207.409 247.296 188.314 Q247.296 169.113 242.788 162.8 Q238.332 156.488 231.649 156.488 Q225.071 156.488 221.146 162.058 Q216.213 169.166 216.213 188.314 Z" fill="#000000" fill-rule="nonzero" fill-opacity="1" /><path clip-path="url(#clip110)" d="M272.173 226.663 L272.173 215.79 L283.047 215.79 L283.047 226.663 L272.173 226.663 Z" fill="#000000" fill-rule="nonzero" fill-opacity="1" /><path clip-path="url(#clip110)" d="M297.633 159.088 L297.633 149.911 L347.97 149.911 L347.97 157.337 Q340.544 165.24 333.225 178.342 Q325.958 191.443 321.98 205.287 Q319.115 215.047 318.32 226.663 L308.507 226.663 Q308.666 217.487 312.114 204.492 Q315.562 191.496 321.98 179.456 Q328.451 167.362 335.718 159.088 L297.633 159.088 Z" fill="#000000" fill-rule="nonzero" fill-opacity="1" /><path clip-path="url(#clip110)" d="M357.412 206.295 L367.437 205.447 Q368.551 212.766 372.582 216.479 Q376.666 220.139 382.395 220.139 Q389.29 220.139 394.064 214.941 Q398.838 209.743 398.838 201.15 Q398.838 192.982 394.223 188.261 Q389.662 183.54 382.236 183.54 Q377.621 183.54 373.908 185.662 Q370.195 187.73 368.073 191.072 L359.109 189.905 L366.641 149.964 L405.309 149.964 L405.309 159.088 L374.279 159.088 L370.089 179.986 Q377.091 175.106 384.782 175.106 Q394.966 175.106 401.967 182.161 Q408.969 189.216 408.969 200.301 Q408.969 210.857 402.816 218.548 Q395.337 227.989 382.395 227.989 Q371.786 227.989 365.05 222.049 Q358.367 216.108 357.412 206.295 Z" fill="#000000" fill-rule="nonzero" fill-opacity="1" /><path clip-path="url(#clip110)" d="M69.9417 751.882 L66.6215 751.882 Q66.6215 743.45 60.1394 738.075 Q60.1394 738.075 47.2804 727.956 L33.3675 738.654 Q28.5191 742.449 27.6759 744.135 Q26.7799 745.769 26.7799 751.355 L23.4071 751.355 Q23.7233 746.928 23.7233 741.131 Q23.7233 737.917 23.4071 729.432 L26.7799 729.432 Q26.9907 733.226 29.4677 733.226 Q30.3109 733.226 31.4176 732.278 L42.3266 723.846 L33.8945 717.153 Q31.9446 715.519 30.1001 715.519 Q27.0962 715.519 26.7799 718.681 L23.4071 718.681 Q23.7233 714.465 23.7233 708.299 Q23.7233 703.661 23.4071 699.445 L26.7799 699.445 Q26.9907 707.667 32.3662 712.304 Q34.6323 714.36 44.5927 722.212 L63.2487 707.772 Q65.5148 706.033 66.0945 704.083 Q66.6215 702.133 66.6215 697.495 L69.9417 697.495 Q69.6255 702.344 69.6255 707.877 Q69.6255 709.827 69.9417 719.524 L66.6215 719.524 Q66.5161 717.574 65.6729 716.626 Q64.777 715.624 63.8811 715.624 Q63.4595 715.624 60.3502 717.89 L49.5466 726.112 Q59.2435 734.333 61.5096 735.387 Q62.4582 735.809 63.2487 735.809 Q66.1472 735.809 66.6215 732.699 L69.9417 732.699 Q69.6255 740.446 69.6255 742.923 Q69.6255 747.666 69.9417 751.882 Z" fill="#000000" fill-rule="nonzero" fill-opacity="1" /><path clip-path="url(#clip110)" d="M99.8404 686.503 Q98.4755 686.503 98.0697 686.392 Q97.6639 686.245 97.0367 685.654 L80.8788 671.157 Q71.9513 663.225 64.1674 663.225 Q59.1135 663.225 55.4982 665.881 Q51.883 668.5 51.883 673.333 Q51.883 676.653 53.9119 679.457 Q55.9409 682.261 59.5561 683.552 Q59.4824 683.33 59.4824 682.556 Q59.4824 680.674 60.6629 679.641 Q61.8433 678.571 63.4296 678.571 Q65.4586 678.571 66.4546 679.9 Q67.4138 681.191 67.4138 682.482 Q67.4138 682.998 67.3031 683.699 Q67.1924 684.363 66.1595 685.433 Q65.0897 686.503 63.2083 686.503 Q57.933 686.503 53.7275 682.519 Q49.522 678.498 49.522 672.374 Q49.522 665.439 53.6537 660.901 Q57.7485 656.327 64.1674 656.327 Q66.4178 656.327 68.4836 657.028 Q70.5126 657.692 72.0989 658.614 Q73.6851 659.499 76.2306 661.934 Q78.776 664.369 80.5836 666.324 Q82.3913 668.279 86.2279 672.669 L94.0117 680.674 L94.0117 667.062 Q94.0117 660.421 93.4215 659.905 Q92.3517 659.167 86.7074 658.245 L86.7074 656.327 L99.8404 658.466 L99.8404 686.503 Z" fill="#000000" fill-rule="nonzero" fill-opacity="1" /><circle clip-path="url(#clip112)" cx="782.37" cy="484.845" r="14.4" fill="#009af9" fill-rule="evenodd" fill-opacity="1" stroke="#000000" stroke-opacity="1" stroke-width="3.2"/>
<circle clip-path="url(#clip112)" cx="1766.54" cy="652.213" r="14.4" fill="#009af9" fill-rule="evenodd" fill-opacity="1" stroke="#000000" stroke-opacity="1" stroke-width="3.2"/>
<circle clip-path="url(#clip112)" cx="1170.69" cy="709.593" r="14.4" fill="#009af9" fill-rule="evenodd" fill-opacity="1" stroke="#000000" stroke-opacity="1" stroke-width="3.2"/>
<circle clip-path="url(#clip112)" cx="1422.17" cy="899.411" r="14.4" fill="#009af9" fill-rule="evenodd" fill-opacity="1" stroke="#000000" stroke-opacity="1" stroke-width="3.2"/>
<circle clip-path="url(#clip112)" cx="1700.98" cy="637.588" r="14.4" fill="#009af9" fill-rule="evenodd" fill-opacity="1" stroke="#000000" stroke-opacity="1" stroke-width="3.2"/>
<circle clip-path="url(#clip112)" cx="1292.44" cy="443.095" r="14.4" fill="#009af9" fill-rule="evenodd" fill-opacity="1" stroke="#000000" stroke-opacity="1" stroke-width="3.2"/>
<circle clip-path="url(#clip112)" cx="1340.22" cy="429.393" r="14.4" fill="#009af9" fill-rule="evenodd" fill-opacity="1" stroke="#000000" stroke-opacity="1" stroke-width="3.2"/>
<circle clip-path="url(#clip112)" cx="1105.03" cy="752.387" r="14.4" fill="#009af9" fill-rule="evenodd" fill-opacity="1" stroke="#000000" stroke-opacity="1" stroke-width="3.2"/>
<circle clip-path="url(#clip112)" cx="1532.44" cy="868.308" r="14.4" fill="#009af9" fill-rule="evenodd" fill-opacity="1" stroke="#000000" stroke-opacity="1" stroke-width="3.2"/>
<circle clip-path="url(#clip112)" cx="1360.79" cy="566.997" r="14.4" fill="#009af9" fill-rule="evenodd" fill-opacity="1" stroke="#000000" stroke-opacity="1" stroke-width="3.2"/>
<circle clip-path="url(#clip112)" cx="1566.63" cy="752.026" r="14.4" fill="#009af9" fill-rule="evenodd" fill-opacity="1" stroke="#000000" stroke-opacity="1" stroke-width="3.2"/>
<circle clip-path="url(#clip112)" cx="1339.4" cy="711.749" r="14.4" fill="#009af9" fill-rule="evenodd" fill-opacity="1" stroke="#000000" stroke-opacity="1" stroke-width="3.2"/>
<circle clip-path="url(#clip112)" cx="1597.91" cy="591.022" r="14.4" fill="#009af9" fill-rule="evenodd" fill-opacity="1" stroke="#000000" stroke-opacity="1" stroke-width="3.2"/>
<circle clip-path="url(#clip112)" cx="1172.78" cy="497.781" r="14.4" fill="#009af9" fill-rule="evenodd" fill-opacity="1" stroke="#000000" stroke-opacity="1" stroke-width="3.2"/>
<circle clip-path="url(#clip112)" cx="1134.85" cy="503.361" r="14.4" fill="#009af9" fill-rule="evenodd" fill-opacity="1" stroke="#000000" stroke-opacity="1" stroke-width="3.2"/>
<circle clip-path="url(#clip112)" cx="1573.68" cy="913.031" r="14.4" fill="#009af9" fill-rule="evenodd" fill-opacity="1" stroke="#000000" stroke-opacity="1" stroke-width="3.2"/>
<circle clip-path="url(#clip112)" cx="1100.56" cy="803.583" r="14.4" fill="#009af9" fill-rule="evenodd" fill-opacity="1" stroke="#000000" stroke-opacity="1" stroke-width="3.2"/>
<circle clip-path="url(#clip112)" cx="1598.39" cy="587.748" r="14.4" fill="#009af9" fill-rule="evenodd" fill-opacity="1" stroke="#000000" stroke-opacity="1" stroke-width="3.2"/>
<circle clip-path="url(#clip112)" cx="1146.38" cy="869.74" r="14.4" fill="#009af9" fill-rule="evenodd" fill-opacity="1" stroke="#000000" stroke-opacity="1" stroke-width="3.2"/>
<circle clip-path="url(#clip112)" cx="1195.13" cy="589.839" r="14.4" fill="#009af9" fill-rule="evenodd" fill-opacity="1" stroke="#000000" stroke-opacity="1" stroke-width="3.2"/>
<circle clip-path="url(#clip112)" cx="1744.52" cy="700.766" r="14.4" fill="#009af9" fill-rule="evenodd" fill-opacity="1" stroke="#000000" stroke-opacity="1" stroke-width="3.2"/>
<circle clip-path="url(#clip112)" cx="747.637" cy="684.681" r="14.4" fill="#009af9" fill-rule="evenodd" fill-opacity="1" stroke="#000000" stroke-opacity="1" stroke-width="3.2"/>
<circle clip-path="url(#clip112)" cx="737.248" cy="457.011" r="14.4" fill="#009af9" fill-rule="evenodd" fill-opacity="1" stroke="#000000" stroke-opacity="1" stroke-width="3.2"/>
<circle clip-path="url(#clip112)" cx="1086.17" cy="795.388" r="14.4" fill="#009af9" fill-rule="evenodd" fill-opacity="1" stroke="#000000" stroke-opacity="1" stroke-width="3.2"/>
<circle clip-path="url(#clip112)" cx="1168.74" cy="572.469" r="14.4" fill="#009af9" fill-rule="evenodd" fill-opacity="1" stroke="#000000" stroke-opacity="1" stroke-width="3.2"/>
<circle clip-path="url(#clip112)" cx="859.687" cy="500.486" r="14.4" fill="#009af9" fill-rule="evenodd" fill-opacity="1" stroke="#000000" stroke-opacity="1" stroke-width="3.2"/>
<circle clip-path="url(#clip112)" cx="1464.76" cy="778.64" r="14.4" fill="#009af9" fill-rule="evenodd" fill-opacity="1" stroke="#000000" stroke-opacity="1" stroke-width="3.2"/>
<circle clip-path="url(#clip112)" cx="1425.24" cy="451.722" r="14.4" fill="#009af9" fill-rule="evenodd" fill-opacity="1" stroke="#000000" stroke-opacity="1" stroke-width="3.2"/>
<circle clip-path="url(#clip112)" cx="1666.26" cy="565.824" r="14.4" fill="#009af9" fill-rule="evenodd" fill-opacity="1" stroke="#000000" stroke-opacity="1" stroke-width="3.2"/>
<circle clip-path="url(#clip112)" cx="1564.12" cy="523.292" r="14.4" fill="#009af9" fill-rule="evenodd" fill-opacity="1" stroke="#000000" stroke-opacity="1" stroke-width="3.2"/>
<circle clip-path="url(#clip112)" cx="1286.55" cy="445.51" r="14.4" fill="#009af9" fill-rule="evenodd" fill-opacity="1" stroke="#000000" stroke-opacity="1" stroke-width="3.2"/>
<circle clip-path="url(#clip112)" cx="1287.45" cy="885.391" r="14.4" fill="#009af9" fill-rule="evenodd" fill-opacity="1" stroke="#000000" stroke-opacity="1" stroke-width="3.2"/>
<circle clip-path="url(#clip112)" cx="1360.15" cy="652.349" r="14.4" fill="#009af9" fill-rule="evenodd" fill-opacity="1" stroke="#000000" stroke-opacity="1" stroke-width="3.2"/>
<circle clip-path="url(#clip112)" cx="1325.41" cy="644.066" r="14.4" fill="#009af9" fill-rule="evenodd" fill-opacity="1" stroke="#000000" stroke-opacity="1" stroke-width="3.2"/>
<circle clip-path="url(#clip112)" cx="1398.12" cy="457.355" r="14.4" fill="#009af9" fill-rule="evenodd" fill-opacity="1" stroke="#000000" stroke-opacity="1" stroke-width="3.2"/>
<circle clip-path="url(#clip112)" cx="1214.75" cy="872.995" r="14.4" fill="#009af9" fill-rule="evenodd" fill-opacity="1" stroke="#000000" stroke-opacity="1" stroke-width="3.2"/>
<circle clip-path="url(#clip112)" cx="1360.08" cy="592.764" r="14.4" fill="#009af9" fill-rule="evenodd" fill-opacity="1" stroke="#000000" stroke-opacity="1" stroke-width="3.2"/>
<circle clip-path="url(#clip112)" cx="1188.5" cy="868.946" r="14.4" fill="#009af9" fill-rule="evenodd" fill-opacity="1" stroke="#000000" stroke-opacity="1" stroke-width="3.2"/>
<circle clip-path="url(#clip112)" cx="1325.95" cy="586.002" r="14.4" fill="#009af9" fill-rule="evenodd" fill-opacity="1" stroke="#000000" stroke-opacity="1" stroke-width="3.2"/>
<circle clip-path="url(#clip112)" cx="1155.32" cy="732.233" r="14.4" fill="#009af9" fill-rule="evenodd" fill-opacity="1" stroke="#000000" stroke-opacity="1" stroke-width="3.2"/>
<circle clip-path="url(#clip112)" cx="1478.44" cy="928.145" r="14.4" fill="#009af9" fill-rule="evenodd" fill-opacity="1" stroke="#000000" stroke-opacity="1" stroke-width="3.2"/>
<circle clip-path="url(#clip112)" cx="1327.86" cy="739.134" r="14.4" fill="#009af9" fill-rule="evenodd" fill-opacity="1" stroke="#000000" stroke-opacity="1" stroke-width="3.2"/>
<circle clip-path="url(#clip112)" cx="1443.84" cy="438.434" r="14.4" fill="#009af9" fill-rule="evenodd" fill-opacity="1" stroke="#000000" stroke-opacity="1" stroke-width="3.2"/>
<circle clip-path="url(#clip112)" cx="1521.24" cy="700.818" r="14.4" fill="#009af9" fill-rule="evenodd" fill-opacity="1" stroke="#000000" stroke-opacity="1" stroke-width="3.2"/>
<circle clip-path="url(#clip112)" cx="1360.8" cy="711.718" r="14.4" fill="#009af9" fill-rule="evenodd" fill-opacity="1" stroke="#000000" stroke-opacity="1" stroke-width="3.2"/>
<circle clip-path="url(#clip112)" cx="1012.57" cy="643.372" r="14.4" fill="#009af9" fill-rule="evenodd" fill-opacity="1" stroke="#000000" stroke-opacity="1" stroke-width="3.2"/>
<circle clip-path="url(#clip112)" cx="1702.3" cy="645.911" r="14.4" fill="#009af9" fill-rule="evenodd" fill-opacity="1" stroke="#000000" stroke-opacity="1" stroke-width="3.2"/>
<circle clip-path="url(#clip112)" cx="1346.59" cy="446.507" r="14.4" fill="#009af9" fill-rule="evenodd" fill-opacity="1" stroke="#000000" stroke-opacity="1" stroke-width="3.2"/>
<circle clip-path="url(#clip112)" cx="1370.26" cy="711.793" r="14.4" fill="#009af9" fill-rule="evenodd" fill-opacity="1" stroke="#000000" stroke-opacity="1" stroke-width="3.2"/>
<circle clip-path="url(#clip112)" cx="1605.18" cy="838.015" r="14.4" fill="#009af9" fill-rule="evenodd" fill-opacity="1" stroke="#000000" stroke-opacity="1" stroke-width="3.2"/>
<circle clip-path="url(#clip112)" cx="1391.14" cy="567.45" r="14.4" fill="#009af9" fill-rule="evenodd" fill-opacity="1" stroke="#000000" stroke-opacity="1" stroke-width="3.2"/>
<circle clip-path="url(#clip112)" cx="1293.64" cy="828.128" r="14.4" fill="#009af9" fill-rule="evenodd" fill-opacity="1" stroke="#000000" stroke-opacity="1" stroke-width="3.2"/>
<circle clip-path="url(#clip112)" cx="1573.2" cy="756.799" r="14.4" fill="#009af9" fill-rule="evenodd" fill-opacity="1" stroke="#000000" stroke-opacity="1" stroke-width="3.2"/>
<circle clip-path="url(#clip112)" cx="1169.61" cy="756.506" r="14.4" fill="#009af9" fill-rule="evenodd" fill-opacity="1" stroke="#000000" stroke-opacity="1" stroke-width="3.2"/>
<circle clip-path="url(#clip112)" cx="1191.58" cy="773.805" r="14.4" fill="#009af9" fill-rule="evenodd" fill-opacity="1" stroke="#000000" stroke-opacity="1" stroke-width="3.2"/>
<circle clip-path="url(#clip112)" cx="1640.92" cy="663.215" r="14.4" fill="#009af9" fill-rule="evenodd" fill-opacity="1" stroke="#000000" stroke-opacity="1" stroke-width="3.2"/>
<circle clip-path="url(#clip112)" cx="1179.56" cy="851.36" r="14.4" fill="#009af9" fill-rule="evenodd" fill-opacity="1" stroke="#000000" stroke-opacity="1" stroke-width="3.2"/>
<circle clip-path="url(#clip112)" cx="1658.44" cy="724.295" r="14.4" fill="#009af9" fill-rule="evenodd" fill-opacity="1" stroke="#000000" stroke-opacity="1" stroke-width="3.2"/>
<circle clip-path="url(#clip112)" cx="1271.67" cy="882.053" r="14.4" fill="#009af9" fill-rule="evenodd" fill-opacity="1" stroke="#000000" stroke-opacity="1" stroke-width="3.2"/>
<circle clip-path="url(#clip112)" cx="1496.24" cy="815.255" r="14.4" fill="#009af9" fill-rule="evenodd" fill-opacity="1" stroke="#000000" stroke-opacity="1" stroke-width="3.2"/>
<circle clip-path="url(#clip112)" cx="1044.13" cy="653.068" r="14.4" fill="#009af9" fill-rule="evenodd" fill-opacity="1" stroke="#000000" stroke-opacity="1" stroke-width="3.2"/>
<circle clip-path="url(#clip112)" cx="1438.95" cy="527.699" r="14.4" fill="#009af9" fill-rule="evenodd" fill-opacity="1" stroke="#000000" stroke-opacity="1" stroke-width="3.2"/>
<circle clip-path="url(#clip112)" cx="764.932" cy="659.425" r="14.4" fill="#009af9" fill-rule="evenodd" fill-opacity="1" stroke="#000000" stroke-opacity="1" stroke-width="3.2"/>
<circle clip-path="url(#clip112)" cx="1476.57" cy="518.718" r="14.4" fill="#009af9" fill-rule="evenodd" fill-opacity="1" stroke="#000000" stroke-opacity="1" stroke-width="3.2"/>
<circle clip-path="url(#clip112)" cx="1458.84" cy="574.073" r="14.4" fill="#009af9" fill-rule="evenodd" fill-opacity="1" stroke="#000000" stroke-opacity="1" stroke-width="3.2"/>
<circle clip-path="url(#clip112)" cx="1432.94" cy="606.556" r="14.4" fill="#009af9" fill-rule="evenodd" fill-opacity="1" stroke="#000000" stroke-opacity="1" stroke-width="3.2"/>
<circle clip-path="url(#clip112)" cx="1469.7" cy="549.394" r="14.4" fill="#009af9" fill-rule="evenodd" fill-opacity="1" stroke="#000000" stroke-opacity="1" stroke-width="3.2"/>
<circle clip-path="url(#clip112)" cx="1119.89" cy="658.024" r="14.4" fill="#009af9" fill-rule="evenodd" fill-opacity="1" stroke="#000000" stroke-opacity="1" stroke-width="3.2"/>
<circle clip-path="url(#clip112)" cx="1231.49" cy="627.662" r="14.4" fill="#009af9" fill-rule="evenodd" fill-opacity="1" stroke="#000000" stroke-opacity="1" stroke-width="3.2"/>
<circle clip-path="url(#clip112)" cx="1367.38" cy="432.79" r="14.4" fill="#009af9" fill-rule="evenodd" fill-opacity="1" stroke="#000000" stroke-opacity="1" stroke-width="3.2"/>
<circle clip-path="url(#clip112)" cx="1320.89" cy="794.319" r="14.4" fill="#009af9" fill-rule="evenodd" fill-opacity="1" stroke="#000000" stroke-opacity="1" stroke-width="3.2"/>
<circle clip-path="url(#clip112)" cx="714.819" cy="601.09" r="14.4" fill="#009af9" fill-rule="evenodd" fill-opacity="1" stroke="#000000" stroke-opacity="1" stroke-width="3.2"/>
<circle clip-path="url(#clip112)" cx="1090.22" cy="716.249" r="14.4" fill="#009af9" fill-rule="evenodd" fill-opacity="1" stroke="#000000" stroke-opacity="1" stroke-width="3.2"/>
<circle clip-path="url(#clip112)" cx="1332.39" cy="597.782" r="14.4" fill="#009af9" fill-rule="evenodd" fill-opacity="1" stroke="#000000" stroke-opacity="1" stroke-width="3.2"/>
<circle clip-path="url(#clip112)" cx="1532.78" cy="774.075" r="14.4" fill="#009af9" fill-rule="evenodd" fill-opacity="1" stroke="#000000" stroke-opacity="1" stroke-width="3.2"/>
<circle clip-path="url(#clip112)" cx="1144.65" cy="775.404" r="14.4" fill="#009af9" fill-rule="evenodd" fill-opacity="1" stroke="#000000" stroke-opacity="1" stroke-width="3.2"/>
<circle clip-path="url(#clip112)" cx="1104.23" cy="847.231" r="14.4" fill="#009af9" fill-rule="evenodd" fill-opacity="1" stroke="#000000" stroke-opacity="1" stroke-width="3.2"/>
<circle clip-path="url(#clip112)" cx="1316.92" cy="537.477" r="14.4" fill="#009af9" fill-rule="evenodd" fill-opacity="1" stroke="#000000" stroke-opacity="1" stroke-width="3.2"/>
<circle clip-path="url(#clip112)" cx="1712.44" cy="790.212" r="14.4" fill="#009af9" fill-rule="evenodd" fill-opacity="1" stroke="#000000" stroke-opacity="1" stroke-width="3.2"/>
<circle clip-path="url(#clip112)" cx="1910.36" cy="479.691" r="14.4" fill="#009af9" fill-rule="evenodd" fill-opacity="1" stroke="#000000" stroke-opacity="1" stroke-width="3.2"/>
<circle clip-path="url(#clip112)" cx="1507.03" cy="766.921" r="14.4" fill="#009af9" fill-rule="evenodd" fill-opacity="1" stroke="#000000" stroke-opacity="1" stroke-width="3.2"/>
<circle clip-path="url(#clip112)" cx="1289.89" cy="492.49" r="14.4" fill="#009af9" fill-rule="evenodd" fill-opacity="1" stroke="#000000" stroke-opacity="1" stroke-width="3.2"/>
<circle clip-path="url(#clip112)" cx="1476.41" cy="612.399" r="14.4" fill="#009af9" fill-rule="evenodd" fill-opacity="1" stroke="#000000" stroke-opacity="1" stroke-width="3.2"/>
<circle clip-path="url(#clip112)" cx="1772.06" cy="765.17" r="14.4" fill="#009af9" fill-rule="evenodd" fill-opacity="1" stroke="#000000" stroke-opacity="1" stroke-width="3.2"/>
<circle clip-path="url(#clip112)" cx="1052.32" cy="710.775" r="14.4" fill="#009af9" fill-rule="evenodd" fill-opacity="1" stroke="#000000" stroke-opacity="1" stroke-width="3.2"/>
<circle clip-path="url(#clip112)" cx="1123.67" cy="622.519" r="14.4" fill="#009af9" fill-rule="evenodd" fill-opacity="1" stroke="#000000" stroke-opacity="1" stroke-width="3.2"/>
<circle clip-path="url(#clip112)" cx="1591.81" cy="662.697" r="14.4" fill="#009af9" fill-rule="evenodd" fill-opacity="1" stroke="#000000" stroke-opacity="1" stroke-width="3.2"/>
<circle clip-path="url(#clip112)" cx="1511.34" cy="681.801" r="14.4" fill="#009af9" fill-rule="evenodd" fill-opacity="1" stroke="#000000" stroke-opacity="1" stroke-width="3.2"/>
<circle clip-path="url(#clip112)" cx="1982.5" cy="596.082" r="14.4" fill="#009af9" fill-rule="evenodd" fill-opacity="1" stroke="#000000" stroke-opacity="1" stroke-width="3.2"/>
<circle clip-path="url(#clip112)" cx="1278.8" cy="463.987" r="14.4" fill="#009af9" fill-rule="evenodd" fill-opacity="1" stroke="#000000" stroke-opacity="1" stroke-width="3.2"/>
<circle clip-path="url(#clip112)" cx="801.986" cy="428.32" r="14.4" fill="#009af9" fill-rule="evenodd" fill-opacity="1" stroke="#000000" stroke-opacity="1" stroke-width="3.2"/>
<circle clip-path="url(#clip112)" cx="1126.02" cy="504.394" r="14.4" fill="#009af9" fill-rule="evenodd" fill-opacity="1" stroke="#000000" stroke-opacity="1" stroke-width="3.2"/>
<circle clip-path="url(#clip112)" cx="1219.6" cy="779.983" r="14.4" fill="#009af9" fill-rule="evenodd" fill-opacity="1" stroke="#000000" stroke-opacity="1" stroke-width="3.2"/>
<circle clip-path="url(#clip112)" cx="1777.58" cy="699.098" r="14.4" fill="#009af9" fill-rule="evenodd" fill-opacity="1" stroke="#000000" stroke-opacity="1" stroke-width="3.2"/>
<circle clip-path="url(#clip112)" cx="1433.62" cy="609.916" r="14.4" fill="#009af9" fill-rule="evenodd" fill-opacity="1" stroke="#000000" stroke-opacity="1" stroke-width="3.2"/>
<circle clip-path="url(#clip112)" cx="808.112" cy="428.116" r="14.4" fill="#009af9" fill-rule="evenodd" fill-opacity="1" stroke="#000000" stroke-opacity="1" stroke-width="3.2"/>
<circle clip-path="url(#clip112)" cx="1608.34" cy="570.253" r="14.4" fill="#009af9" fill-rule="evenodd" fill-opacity="1" stroke="#000000" stroke-opacity="1" stroke-width="3.2"/>
<circle clip-path="url(#clip112)" cx="1415.55" cy="904.134" r="14.4" fill="#009af9" fill-rule="evenodd" fill-opacity="1" stroke="#000000" stroke-opacity="1" stroke-width="3.2"/>
<circle clip-path="url(#clip112)" cx="1310.45" cy="432.567" r="14.4" fill="#009af9" fill-rule="evenodd" fill-opacity="1" stroke="#000000" stroke-opacity="1" stroke-width="3.2"/>
<circle clip-path="url(#clip112)" cx="1099" cy="577.202" r="14.4" fill="#009af9" fill-rule="evenodd" fill-opacity="1" stroke="#000000" stroke-opacity="1" stroke-width="3.2"/>
<circle clip-path="url(#clip112)" cx="1877.6" cy="420.444" r="14.4" fill="#009af9" fill-rule="evenodd" fill-opacity="1" stroke="#000000" stroke-opacity="1" stroke-width="3.2"/>
<circle clip-path="url(#clip112)" cx="2002.64" cy="535.12" r="14.4" fill="#009af9" fill-rule="evenodd" fill-opacity="1" stroke="#000000" stroke-opacity="1" stroke-width="3.2"/>
<circle clip-path="url(#clip112)" cx="1089.27" cy="795.801" r="14.4" fill="#009af9" fill-rule="evenodd" fill-opacity="1" stroke="#000000" stroke-opacity="1" stroke-width="3.2"/>
<circle clip-path="url(#clip112)" cx="1170.05" cy="493.549" r="14.4" fill="#009af9" fill-rule="evenodd" fill-opacity="1" stroke="#000000" stroke-opacity="1" stroke-width="3.2"/>
<circle clip-path="url(#clip112)" cx="1189.77" cy="801.866" r="14.4" fill="#009af9" fill-rule="evenodd" fill-opacity="1" stroke="#000000" stroke-opacity="1" stroke-width="3.2"/>
<circle clip-path="url(#clip112)" cx="1757.59" cy="681.123" r="14.4" fill="#009af9" fill-rule="evenodd" fill-opacity="1" stroke="#000000" stroke-opacity="1" stroke-width="3.2"/>
<circle clip-path="url(#clip112)" cx="1568.55" cy="466.294" r="14.4" fill="#009af9" fill-rule="evenodd" fill-opacity="1" stroke="#000000" stroke-opacity="1" stroke-width="3.2"/>
<circle clip-path="url(#clip112)" cx="1099.82" cy="859.603" r="14.4" fill="#009af9" fill-rule="evenodd" fill-opacity="1" stroke="#000000" stroke-opacity="1" stroke-width="3.2"/>
<circle clip-path="url(#clip112)" cx="1383.51" cy="643.822" r="14.4" fill="#009af9" fill-rule="evenodd" fill-opacity="1" stroke="#000000" stroke-opacity="1" stroke-width="3.2"/>
<circle clip-path="url(#clip112)" cx="1371.21" cy="941.06" r="14.4" fill="#009af9" fill-rule="evenodd" fill-opacity="1" stroke="#000000" stroke-opacity="1" stroke-width="3.2"/>
<circle clip-path="url(#clip112)" cx="947.7" cy="424.675" r="14.4" fill="#009af9" fill-rule="evenodd" fill-opacity="1" stroke="#000000" stroke-opacity="1" stroke-width="3.2"/>
<circle clip-path="url(#clip112)" cx="1095.52" cy="599.107" r="14.4" fill="#009af9" fill-rule="evenodd" fill-opacity="1" stroke="#000000" stroke-opacity="1" stroke-width="3.2"/>
<circle clip-path="url(#clip112)" cx="1209.07" cy="460.225" r="14.4" fill="#009af9" fill-rule="evenodd" fill-opacity="1" stroke="#000000" stroke-opacity="1" stroke-width="3.2"/>
<circle clip-path="url(#clip112)" cx="1330.56" cy="687.381" r="14.4" fill="#009af9" fill-rule="evenodd" fill-opacity="1" stroke="#000000" stroke-opacity="1" stroke-width="3.2"/>
<circle clip-path="url(#clip112)" cx="736.435" cy="1193.2" r="14.4" fill="#e26f46" fill-rule="evenodd" fill-opacity="1" stroke="#000000" stroke-opacity="1" stroke-width="3.2"/>
<circle clip-path="url(#clip112)" cx="899.88" cy="1261.89" r="14.4" fill="#e26f46" fill-rule="evenodd" fill-opacity="1" stroke="#000000" stroke-opacity="1" stroke-width="3.2"/>
<circle clip-path="url(#clip112)" cx="1603.96" cy="303.25" r="14.4" fill="#e26f46" fill-rule="evenodd" fill-opacity="1" stroke="#000000" stroke-opacity="1" stroke-width="3.2"/>
<circle clip-path="url(#clip112)" cx="2199.37" cy="562.363" r="14.4" fill="#e26f46" fill-rule="evenodd" fill-opacity="1" stroke="#000000" stroke-opacity="1" stroke-width="3.2"/>
<circle clip-path="url(#clip112)" cx="662.032" cy="557.67" r="14.4" fill="#e26f46" fill-rule="evenodd" fill-opacity="1" stroke="#000000" stroke-opacity="1" stroke-width="3.2"/>
<circle clip-path="url(#clip112)" cx="2145.23" cy="724.198" r="14.4" fill="#e26f46" fill-rule="evenodd" fill-opacity="1" stroke="#000000" stroke-opacity="1" stroke-width="3.2"/>
<circle clip-path="url(#clip112)" cx="2145.91" cy="1015.59" r="14.4" fill="#e26f46" fill-rule="evenodd" fill-opacity="1" stroke="#000000" stroke-opacity="1" stroke-width="3.2"/>
<circle clip-path="url(#clip112)" cx="1884.41" cy="225.93" r="14.4" fill="#e26f46" fill-rule="evenodd" fill-opacity="1" stroke="#000000" stroke-opacity="1" stroke-width="3.2"/>
<circle clip-path="url(#clip112)" cx="1367.35" cy="69.1695" r="14.4" fill="#e26f46" fill-rule="evenodd" fill-opacity="1" stroke="#000000" stroke-opacity="1" stroke-width="3.2"/>
<circle clip-path="url(#clip112)" cx="1585.6" cy="224.2" r="14.4" fill="#e26f46" fill-rule="evenodd" fill-opacity="1" stroke="#000000" stroke-opacity="1" stroke-width="3.2"/>
<circle clip-path="url(#clip112)" cx="854.913" cy="273.552" r="14.4" fill="#e26f46" fill-rule="evenodd" fill-opacity="1" stroke="#000000" stroke-opacity="1" stroke-width="3.2"/>
<circle clip-path="url(#clip112)" cx="1612.27" cy="82.1066" r="14.4" fill="#e26f46" fill-rule="evenodd" fill-opacity="1" stroke="#000000" stroke-opacity="1" stroke-width="3.2"/>
<circle clip-path="url(#clip112)" cx="2352.76" cy="593.223" r="14.4" fill="#e26f46" fill-rule="evenodd" fill-opacity="1" stroke="#000000" stroke-opacity="1" stroke-width="3.2"/>
<circle clip-path="url(#clip112)" cx="985.659" cy="162.945" r="14.4" fill="#e26f46" fill-rule="evenodd" fill-opacity="1" stroke="#000000" stroke-opacity="1" stroke-width="3.2"/>
<circle clip-path="url(#clip112)" cx="1782.34" cy="271.204" r="14.4" fill="#e26f46" fill-rule="evenodd" fill-opacity="1" stroke="#000000" stroke-opacity="1" stroke-width="3.2"/>
<circle clip-path="url(#clip112)" cx="2149.66" cy="398.84" r="14.4" fill="#e26f46" fill-rule="evenodd" fill-opacity="1" stroke="#000000" stroke-opacity="1" stroke-width="3.2"/>
<circle clip-path="url(#clip112)" cx="2003.93" cy="307.013" r="14.4" fill="#e26f46" fill-rule="evenodd" fill-opacity="1" stroke="#000000" stroke-opacity="1" stroke-width="3.2"/>
<circle clip-path="url(#clip112)" cx="2069.44" cy="833.265" r="14.4" fill="#e26f46" fill-rule="evenodd" fill-opacity="1" stroke="#000000" stroke-opacity="1" stroke-width="3.2"/>
<circle clip-path="url(#clip112)" cx="1684.49" cy="1204.62" r="14.4" fill="#e26f46" fill-rule="evenodd" fill-opacity="1" stroke="#000000" stroke-opacity="1" stroke-width="3.2"/>
<circle clip-path="url(#clip112)" cx="1862.87" cy="398.188" r="14.4" fill="#e26f46" fill-rule="evenodd" fill-opacity="1" stroke="#000000" stroke-opacity="1" stroke-width="3.2"/>
<circle clip-path="url(#clip112)" cx="2035.67" cy="1108.24" r="14.4" fill="#e26f46" fill-rule="evenodd" fill-opacity="1" stroke="#000000" stroke-opacity="1" stroke-width="3.2"/>
<circle clip-path="url(#clip112)" cx="646.091" cy="599.46" r="14.4" fill="#e26f46" fill-rule="evenodd" fill-opacity="1" stroke="#000000" stroke-opacity="1" stroke-width="3.2"/>
<circle clip-path="url(#clip112)" cx="926.367" cy="358.181" r="14.4" fill="#e26f46" fill-rule="evenodd" fill-opacity="1" stroke="#000000" stroke-opacity="1" stroke-width="3.2"/>
<circle clip-path="url(#clip112)" cx="1992.94" cy="419.938" r="14.4" fill="#e26f46" fill-rule="evenodd" fill-opacity="1" stroke="#000000" stroke-opacity="1" stroke-width="3.2"/>
<circle clip-path="url(#clip112)" cx="1807.05" cy="153.524" r="14.4" fill="#e26f46" fill-rule="evenodd" fill-opacity="1" stroke="#000000" stroke-opacity="1" stroke-width="3.2"/>
<circle clip-path="url(#clip112)" cx="1505.39" cy="116.074" r="14.4" fill="#e26f46" fill-rule="evenodd" fill-opacity="1" stroke="#000000" stroke-opacity="1" stroke-width="3.2"/>
<circle clip-path="url(#clip112)" cx="1147.86" cy="85.0075" r="14.4" fill="#e26f46" fill-rule="evenodd" fill-opacity="1" stroke="#000000" stroke-opacity="1" stroke-width="3.2"/>
<circle clip-path="url(#clip112)" cx="1252.56" cy="276.903" r="14.4" fill="#e26f46" fill-rule="evenodd" fill-opacity="1" stroke="#000000" stroke-opacity="1" stroke-width="3.2"/>
<circle clip-path="url(#clip112)" cx="1205.41" cy="1277.55" r="14.4" fill="#e26f46" fill-rule="evenodd" fill-opacity="1" stroke="#000000" stroke-opacity="1" stroke-width="3.2"/>
<circle clip-path="url(#clip112)" cx="1229.13" cy="69.4044" r="14.4" fill="#e26f46" fill-rule="evenodd" fill-opacity="1" stroke="#000000" stroke-opacity="1" stroke-width="3.2"/>
<circle clip-path="url(#clip112)" cx="1473.68" cy="106.581" r="14.4" fill="#e26f46" fill-rule="evenodd" fill-opacity="1" stroke="#000000" stroke-opacity="1" stroke-width="3.2"/>
<circle clip-path="url(#clip112)" cx="1389.78" cy="201.019" r="14.4" fill="#e26f46" fill-rule="evenodd" fill-opacity="1" stroke="#000000" stroke-opacity="1" stroke-width="3.2"/>
<circle clip-path="url(#clip112)" cx="1220.16" cy="284.318" r="14.4" fill="#e26f46" fill-rule="evenodd" fill-opacity="1" stroke="#000000" stroke-opacity="1" stroke-width="3.2"/>
<circle clip-path="url(#clip112)" cx="1741.59" cy="1197.7" r="14.4" fill="#e26f46" fill-rule="evenodd" fill-opacity="1" stroke="#000000" stroke-opacity="1" stroke-width="3.2"/>
<circle clip-path="url(#clip112)" cx="2089.93" cy="425.477" r="14.4" fill="#e26f46" fill-rule="evenodd" fill-opacity="1" stroke="#000000" stroke-opacity="1" stroke-width="3.2"/>
<circle clip-path="url(#clip112)" cx="1871.64" cy="1278.92" r="14.4" fill="#e26f46" fill-rule="evenodd" fill-opacity="1" stroke="#000000" stroke-opacity="1" stroke-width="3.2"/>
<circle clip-path="url(#clip112)" cx="1913.26" cy="966.704" r="14.4" fill="#e26f46" fill-rule="evenodd" fill-opacity="1" stroke="#000000" stroke-opacity="1" stroke-width="3.2"/>
<circle clip-path="url(#clip112)" cx="1445.94" cy="1175.31" r="14.4" fill="#e26f46" fill-rule="evenodd" fill-opacity="1" stroke="#000000" stroke-opacity="1" stroke-width="3.2"/>
<circle clip-path="url(#clip112)" cx="1503.49" cy="47.2441" r="14.4" fill="#e26f46" fill-rule="evenodd" fill-opacity="1" stroke="#000000" stroke-opacity="1" stroke-width="3.2"/>
<circle clip-path="url(#clip112)" cx="1955.48" cy="1064.05" r="14.4" fill="#e26f46" fill-rule="evenodd" fill-opacity="1" stroke="#000000" stroke-opacity="1" stroke-width="3.2"/>
<circle clip-path="url(#clip112)" cx="1818.53" cy="195.305" r="14.4" fill="#e26f46" fill-rule="evenodd" fill-opacity="1" stroke="#000000" stroke-opacity="1" stroke-width="3.2"/>
<circle clip-path="url(#clip112)" cx="797.365" cy="876.266" r="14.4" fill="#e26f46" fill-rule="evenodd" fill-opacity="1" stroke="#000000" stroke-opacity="1" stroke-width="3.2"/>
<circle clip-path="url(#clip112)" cx="470.826" cy="587.567" r="14.4" fill="#e26f46" fill-rule="evenodd" fill-opacity="1" stroke="#000000" stroke-opacity="1" stroke-width="3.2"/>
<circle clip-path="url(#clip112)" cx="1803.53" cy="273.246" r="14.4" fill="#e26f46" fill-rule="evenodd" fill-opacity="1" stroke="#000000" stroke-opacity="1" stroke-width="3.2"/>
<circle clip-path="url(#clip112)" cx="2061.05" cy="1092.62" r="14.4" fill="#e26f46" fill-rule="evenodd" fill-opacity="1" stroke="#000000" stroke-opacity="1" stroke-width="3.2"/>
<circle clip-path="url(#clip112)" cx="545.094" cy="569.391" r="14.4" fill="#e26f46" fill-rule="evenodd" fill-opacity="1" stroke="#000000" stroke-opacity="1" stroke-width="3.2"/>
<circle clip-path="url(#clip112)" cx="1828.8" cy="1203.67" r="14.4" fill="#e26f46" fill-rule="evenodd" fill-opacity="1" stroke="#000000" stroke-opacity="1" stroke-width="3.2"/>
<circle clip-path="url(#clip112)" cx="1051.46" cy="193.254" r="14.4" fill="#e26f46" fill-rule="evenodd" fill-opacity="1" stroke="#000000" stroke-opacity="1" stroke-width="3.2"/>
<circle clip-path="url(#clip112)" cx="1646.29" cy="187.403" r="14.4" fill="#e26f46" fill-rule="evenodd" fill-opacity="1" stroke="#000000" stroke-opacity="1" stroke-width="3.2"/>
<circle clip-path="url(#clip112)" cx="697.302" cy="1158.2" r="14.4" fill="#e26f46" fill-rule="evenodd" fill-opacity="1" stroke="#000000" stroke-opacity="1" stroke-width="3.2"/>
<circle clip-path="url(#clip112)" cx="1467.7" cy="1263.83" r="14.4" fill="#e26f46" fill-rule="evenodd" fill-opacity="1" stroke="#000000" stroke-opacity="1" stroke-width="3.2"/>
<circle clip-path="url(#clip112)" cx="1787.29" cy="1108.71" r="14.4" fill="#e26f46" fill-rule="evenodd" fill-opacity="1" stroke="#000000" stroke-opacity="1" stroke-width="3.2"/>
<circle clip-path="url(#clip112)" cx="1820.53" cy="1283.08" r="14.4" fill="#e26f46" fill-rule="evenodd" fill-opacity="1" stroke="#000000" stroke-opacity="1" stroke-width="3.2"/>
<circle clip-path="url(#clip112)" cx="1738.04" cy="126.571" r="14.4" fill="#e26f46" fill-rule="evenodd" fill-opacity="1" stroke="#000000" stroke-opacity="1" stroke-width="3.2"/>
<circle clip-path="url(#clip112)" cx="739.335" cy="1034.77" r="14.4" fill="#e26f46" fill-rule="evenodd" fill-opacity="1" stroke="#000000" stroke-opacity="1" stroke-width="3.2"/>
<circle clip-path="url(#clip112)" cx="2199.55" cy="1067.71" r="14.4" fill="#e26f46" fill-rule="evenodd" fill-opacity="1" stroke="#000000" stroke-opacity="1" stroke-width="3.2"/>
<circle clip-path="url(#clip112)" cx="689.761" cy="1016.62" r="14.4" fill="#e26f46" fill-rule="evenodd" fill-opacity="1" stroke="#000000" stroke-opacity="1" stroke-width="3.2"/>
<circle clip-path="url(#clip112)" cx="725.756" cy="1014.77" r="14.4" fill="#e26f46" fill-rule="evenodd" fill-opacity="1" stroke="#000000" stroke-opacity="1" stroke-width="3.2"/>
<circle clip-path="url(#clip112)" cx="974.341" cy="189.67" r="14.4" fill="#e26f46" fill-rule="evenodd" fill-opacity="1" stroke="#000000" stroke-opacity="1" stroke-width="3.2"/>
<circle clip-path="url(#clip112)" cx="596.004" cy="656.478" r="14.4" fill="#e26f46" fill-rule="evenodd" fill-opacity="1" stroke="#000000" stroke-opacity="1" stroke-width="3.2"/>
<circle clip-path="url(#clip112)" cx="1403.18" cy="1204.5" r="14.4" fill="#e26f46" fill-rule="evenodd" fill-opacity="1" stroke="#000000" stroke-opacity="1" stroke-width="3.2"/>
<circle clip-path="url(#clip112)" cx="2317.12" cy="484.957" r="14.4" fill="#e26f46" fill-rule="evenodd" fill-opacity="1" stroke="#000000" stroke-opacity="1" stroke-width="3.2"/>
<circle clip-path="url(#clip112)" cx="2337.19" cy="482.395" r="14.4" fill="#e26f46" fill-rule="evenodd" fill-opacity="1" stroke="#000000" stroke-opacity="1" stroke-width="3.2"/>
<circle clip-path="url(#clip112)" cx="1734.94" cy="304.172" r="14.4" fill="#e26f46" fill-rule="evenodd" fill-opacity="1" stroke="#000000" stroke-opacity="1" stroke-width="3.2"/>
<circle clip-path="url(#clip112)" cx="1423.38" cy="1167.89" r="14.4" fill="#e26f46" fill-rule="evenodd" fill-opacity="1" stroke="#000000" stroke-opacity="1" stroke-width="3.2"/>
<circle clip-path="url(#clip112)" cx="709.553" cy="967.429" r="14.4" fill="#e26f46" fill-rule="evenodd" fill-opacity="1" stroke="#000000" stroke-opacity="1" stroke-width="3.2"/>
<circle clip-path="url(#clip112)" cx="490.646" cy="752.798" r="14.4" fill="#e26f46" fill-rule="evenodd" fill-opacity="1" stroke="#000000" stroke-opacity="1" stroke-width="3.2"/>
<circle clip-path="url(#clip112)" cx="567.641" cy="733.099" r="14.4" fill="#e26f46" fill-rule="evenodd" fill-opacity="1" stroke="#000000" stroke-opacity="1" stroke-width="3.2"/>
<circle clip-path="url(#clip112)" cx="444.969" cy="815.25" r="14.4" fill="#e26f46" fill-rule="evenodd" fill-opacity="1" stroke="#000000" stroke-opacity="1" stroke-width="3.2"/>
<circle clip-path="url(#clip112)" cx="764.4" cy="280.227" r="14.4" fill="#e26f46" fill-rule="evenodd" fill-opacity="1" stroke="#000000" stroke-opacity="1" stroke-width="3.2"/>
<circle clip-path="url(#clip112)" cx="1236.89" cy="229.38" r="14.4" fill="#e26f46" fill-rule="evenodd" fill-opacity="1" stroke="#000000" stroke-opacity="1" stroke-width="3.2"/>
<circle clip-path="url(#clip112)" cx="1770.41" cy="1069.39" r="14.4" fill="#e26f46" fill-rule="evenodd" fill-opacity="1" stroke="#000000" stroke-opacity="1" stroke-width="3.2"/>
<circle clip-path="url(#clip112)" cx="669.702" cy="363.177" r="14.4" fill="#e26f46" fill-rule="evenodd" fill-opacity="1" stroke="#000000" stroke-opacity="1" stroke-width="3.2"/>
<circle clip-path="url(#clip112)" cx="1708.86" cy="1173.31" r="14.4" fill="#e26f46" fill-rule="evenodd" fill-opacity="1" stroke="#000000" stroke-opacity="1" stroke-width="3.2"/>
<circle clip-path="url(#clip112)" cx="1255.83" cy="1223.95" r="14.4" fill="#e26f46" fill-rule="evenodd" fill-opacity="1" stroke="#000000" stroke-opacity="1" stroke-width="3.2"/>
<circle clip-path="url(#clip112)" cx="1969.72" cy="424.71" r="14.4" fill="#e26f46" fill-rule="evenodd" fill-opacity="1" stroke="#000000" stroke-opacity="1" stroke-width="3.2"/>
<circle clip-path="url(#clip112)" cx="605.575" cy="759.561" r="14.4" fill="#e26f46" fill-rule="evenodd" fill-opacity="1" stroke="#000000" stroke-opacity="1" stroke-width="3.2"/>
<circle clip-path="url(#clip112)" cx="1414.66" cy="1297.03" r="14.4" fill="#e26f46" fill-rule="evenodd" fill-opacity="1" stroke="#000000" stroke-opacity="1" stroke-width="3.2"/>
<circle clip-path="url(#clip112)" cx="2092.69" cy="1083.97" r="14.4" fill="#e26f46" fill-rule="evenodd" fill-opacity="1" stroke="#000000" stroke-opacity="1" stroke-width="3.2"/>
<circle clip-path="url(#clip112)" cx="1183.34" cy="1086.68" r="14.4" fill="#e26f46" fill-rule="evenodd" fill-opacity="1" stroke="#000000" stroke-opacity="1" stroke-width="3.2"/>
<circle clip-path="url(#clip112)" cx="1111.2" cy="1310.76" r="14.4" fill="#e26f46" fill-rule="evenodd" fill-opacity="1" stroke="#000000" stroke-opacity="1" stroke-width="3.2"/>
<circle clip-path="url(#clip112)" cx="1520.56" cy="1175.88" r="14.4" fill="#e26f46" fill-rule="evenodd" fill-opacity="1" stroke="#000000" stroke-opacity="1" stroke-width="3.2"/>
<circle clip-path="url(#clip112)" cx="888" cy="320.943" r="14.4" fill="#e26f46" fill-rule="evenodd" fill-opacity="1" stroke="#000000" stroke-opacity="1" stroke-width="3.2"/>
<circle clip-path="url(#clip112)" cx="1154.42" cy="1340.45" r="14.4" fill="#e26f46" fill-rule="evenodd" fill-opacity="1" stroke="#000000" stroke-opacity="1" stroke-width="3.2"/>
<circle clip-path="url(#clip112)" cx="827.47" cy="168.865" r="14.4" fill="#e26f46" fill-rule="evenodd" fill-opacity="1" stroke="#000000" stroke-opacity="1" stroke-width="3.2"/>
<circle clip-path="url(#clip112)" cx="585.557" cy="638.23" r="14.4" fill="#e26f46" fill-rule="evenodd" fill-opacity="1" stroke="#000000" stroke-opacity="1" stroke-width="3.2"/>
<line clip-path="url(#clip112)" x1="782.37" y1="484.845" x2="762.37" y2="464.845" style="stroke:#000000; stroke-width:3.2; stroke-opacity:1"/>
<line clip-path="url(#clip112)" x1="782.37" y1="484.845" x2="762.37" y2="504.845" style="stroke:#000000; stroke-width:3.2; stroke-opacity:1"/>
<line clip-path="url(#clip112)" x1="782.37" y1="484.845" x2="802.37" y2="504.845" style="stroke:#000000; stroke-width:3.2; stroke-opacity:1"/>
<line clip-path="url(#clip112)" x1="782.37" y1="484.845" x2="802.37" y2="464.845" style="stroke:#000000; stroke-width:3.2; stroke-opacity:1"/>
<line clip-path="url(#clip112)" x1="747.637" y1="684.681" x2="727.637" y2="664.681" style="stroke:#000000; stroke-width:3.2; stroke-opacity:1"/>
<line clip-path="url(#clip112)" x1="747.637" y1="684.681" x2="727.637" y2="704.681" style="stroke:#000000; stroke-width:3.2; stroke-opacity:1"/>
<line clip-path="url(#clip112)" x1="747.637" y1="684.681" x2="767.637" y2="704.681" style="stroke:#000000; stroke-width:3.2; stroke-opacity:1"/>
<line clip-path="url(#clip112)" x1="747.637" y1="684.681" x2="767.637" y2="664.681" style="stroke:#000000; stroke-width:3.2; stroke-opacity:1"/>
<line clip-path="url(#clip112)" x1="737.248" y1="457.011" x2="717.248" y2="437.011" style="stroke:#000000; stroke-width:3.2; stroke-opacity:1"/>
<line clip-path="url(#clip112)" x1="737.248" y1="457.011" x2="717.248" y2="477.011" style="stroke:#000000; stroke-width:3.2; stroke-opacity:1"/>
<line clip-path="url(#clip112)" x1="737.248" y1="457.011" x2="757.248" y2="477.011" style="stroke:#000000; stroke-width:3.2; stroke-opacity:1"/>
<line clip-path="url(#clip112)" x1="737.248" y1="457.011" x2="757.248" y2="437.011" style="stroke:#000000; stroke-width:3.2; stroke-opacity:1"/>
<line clip-path="url(#clip112)" x1="859.687" y1="500.486" x2="839.687" y2="480.486" style="stroke:#000000; stroke-width:3.2; stroke-opacity:1"/>
<line clip-path="url(#clip112)" x1="859.687" y1="500.486" x2="839.687" y2="520.486" style="stroke:#000000; stroke-width:3.2; stroke-opacity:1"/>
<line clip-path="url(#clip112)" x1="859.687" y1="500.486" x2="879.687" y2="520.486" style="stroke:#000000; stroke-width:3.2; stroke-opacity:1"/>
<line clip-path="url(#clip112)" x1="859.687" y1="500.486" x2="879.687" y2="480.486" style="stroke:#000000; stroke-width:3.2; stroke-opacity:1"/>
<line clip-path="url(#clip112)" x1="764.932" y1="659.425" x2="744.932" y2="639.425" style="stroke:#000000; stroke-width:3.2; stroke-opacity:1"/>
<line clip-path="url(#clip112)" x1="764.932" y1="659.425" x2="744.932" y2="679.425" style="stroke:#000000; stroke-width:3.2; stroke-opacity:1"/>
<line clip-path="url(#clip112)" x1="764.932" y1="659.425" x2="784.932" y2="679.425" style="stroke:#000000; stroke-width:3.2; stroke-opacity:1"/>
<line clip-path="url(#clip112)" x1="764.932" y1="659.425" x2="784.932" y2="639.425" style="stroke:#000000; stroke-width:3.2; stroke-opacity:1"/>
<line clip-path="url(#clip112)" x1="714.819" y1="601.09" x2="694.819" y2="581.09" style="stroke:#000000; stroke-width:3.2; stroke-opacity:1"/>
<line clip-path="url(#clip112)" x1="714.819" y1="601.09" x2="694.819" y2="621.09" style="stroke:#000000; stroke-width:3.2; stroke-opacity:1"/>
<line clip-path="url(#clip112)" x1="714.819" y1="601.09" x2="734.819" y2="621.09" style="stroke:#000000; stroke-width:3.2; stroke-opacity:1"/>
<line clip-path="url(#clip112)" x1="714.819" y1="601.09" x2="734.819" y2="581.09" style="stroke:#000000; stroke-width:3.2; stroke-opacity:1"/>
<line clip-path="url(#clip112)" x1="1910.36" y1="479.691" x2="1890.36" y2="459.691" style="stroke:#000000; stroke-width:3.2; stroke-opacity:1"/>
<line clip-path="url(#clip112)" x1="1910.36" y1="479.691" x2="1890.36" y2="499.691" style="stroke:#000000; stroke-width:3.2; stroke-opacity:1"/>
<line clip-path="url(#clip112)" x1="1910.36" y1="479.691" x2="1930.36" y2="499.691" style="stroke:#000000; stroke-width:3.2; stroke-opacity:1"/>
<line clip-path="url(#clip112)" x1="1910.36" y1="479.691" x2="1930.36" y2="459.691" style="stroke:#000000; stroke-width:3.2; stroke-opacity:1"/>
<line clip-path="url(#clip112)" x1="1982.5" y1="596.082" x2="1962.5" y2="576.082" style="stroke:#000000; stroke-width:3.2; stroke-opacity:1"/>
<line clip-path="url(#clip112)" x1="1982.5" y1="596.082" x2="1962.5" y2="616.082" style="stroke:#000000; stroke-width:3.2; stroke-opacity:1"/>
<line clip-path="url(#clip112)" x1="1982.5" y1="596.082" x2="2002.5" y2="616.082" style="stroke:#000000; stroke-width:3.2; stroke-opacity:1"/>
<line clip-path="url(#clip112)" x1="1982.5" y1="596.082" x2="2002.5" y2="576.082" style="stroke:#000000; stroke-width:3.2; stroke-opacity:1"/>
<line clip-path="url(#clip112)" x1="801.986" y1="428.32" x2="781.986" y2="408.32" style="stroke:#000000; stroke-width:3.2; stroke-opacity:1"/>
<line clip-path="url(#clip112)" x1="801.986" y1="428.32" x2="781.986" y2="448.32" style="stroke:#000000; stroke-width:3.2; stroke-opacity:1"/>
<line clip-path="url(#clip112)" x1="801.986" y1="428.32" x2="821.986" y2="448.32" style="stroke:#000000; stroke-width:3.2; stroke-opacity:1"/>
<line clip-path="url(#clip112)" x1="801.986" y1="428.32" x2="821.986" y2="408.32" style="stroke:#000000; stroke-width:3.2; stroke-opacity:1"/>
<line clip-path="url(#clip112)" x1="808.112" y1="428.116" x2="788.112" y2="408.116" style="stroke:#000000; stroke-width:3.2; stroke-opacity:1"/>
<line clip-path="url(#clip112)" x1="808.112" y1="428.116" x2="788.112" y2="448.116" style="stroke:#000000; stroke-width:3.2; stroke-opacity:1"/>
<line clip-path="url(#clip112)" x1="808.112" y1="428.116" x2="828.112" y2="448.116" style="stroke:#000000; stroke-width:3.2; stroke-opacity:1"/>
<line clip-path="url(#clip112)" x1="808.112" y1="428.116" x2="828.112" y2="408.116" style="stroke:#000000; stroke-width:3.2; stroke-opacity:1"/>
<line clip-path="url(#clip112)" x1="1877.6" y1="420.444" x2="1857.6" y2="400.444" style="stroke:#000000; stroke-width:3.2; stroke-opacity:1"/>
<line clip-path="url(#clip112)" x1="1877.6" y1="420.444" x2="1857.6" y2="440.444" style="stroke:#000000; stroke-width:3.2; stroke-opacity:1"/>
<line clip-path="url(#clip112)" x1="1877.6" y1="420.444" x2="1897.6" y2="440.444" style="stroke:#000000; stroke-width:3.2; stroke-opacity:1"/>
<line clip-path="url(#clip112)" x1="1877.6" y1="420.444" x2="1897.6" y2="400.444" style="stroke:#000000; stroke-width:3.2; stroke-opacity:1"/>
<line clip-path="url(#clip112)" x1="2002.64" y1="535.12" x2="1982.64" y2="515.12" style="stroke:#000000; stroke-width:3.2; stroke-opacity:1"/>
<line clip-path="url(#clip112)" x1="2002.64" y1="535.12" x2="1982.64" y2="555.12" style="stroke:#000000; stroke-width:3.2; stroke-opacity:1"/>
<line clip-path="url(#clip112)" x1="2002.64" y1="535.12" x2="2022.64" y2="555.12" style="stroke:#000000; stroke-width:3.2; stroke-opacity:1"/>
<line clip-path="url(#clip112)" x1="2002.64" y1="535.12" x2="2022.64" y2="515.12" style="stroke:#000000; stroke-width:3.2; stroke-opacity:1"/>
<line clip-path="url(#clip112)" x1="947.7" y1="424.675" x2="927.7" y2="404.675" style="stroke:#000000; stroke-width:3.2; stroke-opacity:1"/>
<line clip-path="url(#clip112)" x1="947.7" y1="424.675" x2="927.7" y2="444.675" style="stroke:#000000; stroke-width:3.2; stroke-opacity:1"/>
<line clip-path="url(#clip112)" x1="947.7" y1="424.675" x2="967.7" y2="444.675" style="stroke:#000000; stroke-width:3.2; stroke-opacity:1"/>
<line clip-path="url(#clip112)" x1="947.7" y1="424.675" x2="967.7" y2="404.675" style="stroke:#000000; stroke-width:3.2; stroke-opacity:1"/>
<path clip-path="url(#clip110)" d="M1822.88 557.221 L2289.16 557.221 L2289.16 90.6606 L1822.88 90.6606  Z" fill="#ffffff" fill-rule="evenodd" fill-opacity="1"/>
<polyline clip-path="url(#clip110)" style="stroke:#000000; stroke-linecap:round; stroke-linejoin:round; stroke-width:4; stroke-opacity:1; fill:none" points="1822.88,557.221 2289.16,557.221 2289.16,90.6606 1822.88,90.6606 1822.88,557.221 "/>
<circle clip-path="url(#clip110)" cx="1907.67" cy="207.301" r="46.08" fill="#009af9" fill-rule="evenodd" fill-opacity="1" stroke="#000000" stroke-opacity="1" stroke-width="10.24"/>
<path clip-path="url(#clip110)" d="M1992.46 207.831 Q1992.46 194.04 1995.27 185.659 Q1998.14 177.226 2003.71 172.664 Q2009.33 168.102 2017.82 168.102 Q2024.08 168.102 2028.8 170.648 Q2033.52 173.141 2036.59 177.915 Q2039.67 182.636 2041.42 189.478 Q2043.17 196.268 2043.17 207.831 Q2043.17 221.516 2040.36 229.95 Q2037.55 238.33 2031.93 242.945 Q2026.36 247.507 2017.82 247.507 Q2006.57 247.507 2000.15 239.444 Q1992.46 229.738 1992.46 207.831 M2002.28 207.831 Q2002.28 226.979 2006.73 233.344 Q2011.24 239.656 2017.82 239.656 Q2024.4 239.656 2028.85 233.291 Q2033.36 226.926 2033.36 207.831 Q2033.36 188.63 2028.85 182.318 Q2024.4 176.006 2017.71 176.006 Q2011.13 176.006 2007.21 181.575 Q2002.28 188.683 2002.28 207.831 Z" fill="#000000" fill-rule="nonzero" fill-opacity="1" /><path clip-path="url(#clip110)" d="M2058.24 246.181 L2058.24 235.307 L2069.11 235.307 L2069.11 246.181 L2058.24 246.181 Z" fill="#000000" fill-rule="nonzero" fill-opacity="1" /><path clip-path="url(#clip110)" d="M2083.06 207.831 Q2083.06 194.04 2085.87 185.659 Q2088.74 177.226 2094.3 172.664 Q2099.93 168.102 2108.41 168.102 Q2114.67 168.102 2119.39 170.648 Q2124.11 173.141 2127.19 177.915 Q2130.27 182.636 2132.02 189.478 Q2133.77 196.268 2133.77 207.831 Q2133.77 221.516 2130.96 229.95 Q2128.15 238.33 2122.52 242.945 Q2116.95 247.507 2108.41 247.507 Q2097.17 247.507 2090.75 239.444 Q2083.06 229.738 2083.06 207.831 M2092.87 207.831 Q2092.87 226.979 2097.33 233.344 Q2101.84 239.656 2108.41 239.656 Q2114.99 239.656 2119.45 233.291 Q2123.96 226.926 2123.96 207.831 Q2123.96 188.63 2119.45 182.318 Q2114.99 176.006 2108.31 176.006 Q2101.73 176.006 2097.81 181.575 Q2092.87 188.683 2092.87 207.831 Z" fill="#000000" fill-rule="nonzero" fill-opacity="1" /><circle clip-path="url(#clip110)" cx="1907.67" cy="323.941" r="46.08" fill="#e26f46" fill-rule="evenodd" fill-opacity="1" stroke="#000000" stroke-opacity="1" stroke-width="10.24"/>
<path clip-path="url(#clip110)" d="M2021.11 362.821 L2011.56 362.821 L2011.56 301.981 Q2008.11 305.27 2002.49 308.558 Q1996.92 311.847 1992.46 313.491 L1992.46 304.262 Q2000.47 300.496 2006.47 295.139 Q2012.46 289.781 2014.95 284.742 L2021.11 284.742 L2021.11 362.821 Z" fill="#000000" fill-rule="nonzero" fill-opacity="1" /><path clip-path="url(#clip110)" d="M2050.92 362.821 L2050.92 351.947 L2061.79 351.947 L2061.79 362.821 L2050.92 362.821 Z" fill="#000000" fill-rule="nonzero" fill-opacity="1" /><path clip-path="url(#clip110)" d="M2075.74 324.471 Q2075.74 310.68 2078.55 302.299 Q2081.42 293.866 2086.99 289.304 Q2092.61 284.742 2101.09 284.742 Q2107.35 284.742 2112.07 287.288 Q2116.79 289.781 2119.87 294.555 Q2122.95 299.276 2124.7 306.118 Q2126.45 312.908 2126.45 324.471 Q2126.45 338.156 2123.64 346.59 Q2120.83 354.97 2115.2 359.585 Q2109.63 364.147 2101.09 364.147 Q2089.85 364.147 2083.43 356.084 Q2075.74 346.378 2075.74 324.471 M2085.55 324.471 Q2085.55 343.619 2090.01 349.984 Q2094.52 356.296 2101.09 356.296 Q2107.67 356.296 2112.13 349.931 Q2116.64 343.566 2116.64 324.471 Q2116.64 305.27 2112.13 298.958 Q2107.67 292.646 2100.99 292.646 Q2094.41 292.646 2090.49 298.215 Q2085.55 305.323 2085.55 324.471 Z" fill="#000000" fill-rule="nonzero" fill-opacity="1" /><line clip-path="url(#clip110)" x1="1907.67" y1="440.581" x2="1855.31" y2="388.217" style="stroke:#000000; stroke-width:8.37818; stroke-opacity:1"/>
<line clip-path="url(#clip110)" x1="1907.67" y1="440.581" x2="1855.31" y2="492.944" style="stroke:#000000; stroke-width:8.37818; stroke-opacity:1"/>
<line clip-path="url(#clip110)" x1="1907.67" y1="440.581" x2="1960.04" y2="492.944" style="stroke:#000000; stroke-width:8.37818; stroke-opacity:1"/>
<line clip-path="url(#clip110)" x1="1907.67" y1="440.581" x2="1960.04" y2="388.217" style="stroke:#000000; stroke-width:8.37818; stroke-opacity:1"/>
<path clip-path="url(#clip110)" d="M2034.21 461.32 L2044.07 462.54 Q2041.74 471.186 2035.43 475.96 Q2029.12 480.734 2019.3 480.734 Q2006.94 480.734 1999.68 473.149 Q1992.46 465.51 1992.46 451.773 Q1992.46 437.557 1999.78 429.707 Q2007.1 421.857 2018.77 421.857 Q2030.07 421.857 2037.23 429.548 Q2044.39 437.239 2044.39 451.189 Q2044.39 452.038 2044.34 453.735 L2002.33 453.735 Q2002.86 463.018 2007.58 467.95 Q2012.3 472.883 2019.36 472.883 Q2024.61 472.883 2028.32 470.125 Q2032.03 467.367 2034.21 461.32 M2002.86 445.885 L2034.31 445.885 Q2033.68 438.777 2030.71 435.223 Q2026.15 429.707 2018.88 429.707 Q2012.3 429.707 2007.79 434.109 Q2003.34 438.512 2002.86 445.885 Z" fill="#000000" fill-rule="nonzero" fill-opacity="1" /><path clip-path="url(#clip110)" d="M2055.96 479.461 L2055.96 423.13 L2064.55 423.13 L2064.55 431.67 Q2067.84 425.676 2070.6 423.766 Q2073.41 421.857 2076.75 421.857 Q2081.57 421.857 2086.56 424.933 L2083.27 433.791 Q2079.77 431.723 2076.27 431.723 Q2073.14 431.723 2070.65 433.632 Q2068.16 435.489 2067.09 438.83 Q2065.5 443.922 2065.5 449.969 L2065.5 479.461 L2055.96 479.461 Z" fill="#000000" fill-rule="nonzero" fill-opacity="1" /><path clip-path="url(#clip110)" d="M2092.13 479.461 L2092.13 423.13 L2100.72 423.13 L2100.72 431.67 Q2104.01 425.676 2106.77 423.766 Q2109.58 421.857 2112.92 421.857 Q2117.75 421.857 2122.74 424.933 L2119.45 433.791 Q2115.95 431.723 2112.45 431.723 Q2109.32 431.723 2106.82 433.632 Q2104.33 435.489 2103.27 438.83 Q2101.68 443.922 2101.68 449.969 L2101.68 479.461 L2092.13 479.461 Z" fill="#000000" fill-rule="nonzero" fill-opacity="1" /><path clip-path="url(#clip110)" d="M2124.86 451.295 Q2124.86 435.648 2133.56 428.116 Q2140.82 421.857 2151.27 421.857 Q2162.89 421.857 2170.26 429.495 Q2177.63 437.08 2177.63 450.5 Q2177.63 461.373 2174.35 467.632 Q2171.11 473.838 2164.85 477.286 Q2158.65 480.734 2151.27 480.734 Q2139.44 480.734 2132.12 473.149 Q2124.86 465.564 2124.86 451.295 M2134.67 451.295 Q2134.67 462.116 2139.39 467.526 Q2144.11 472.883 2151.27 472.883 Q2158.38 472.883 2163.1 467.473 Q2167.82 462.063 2167.82 450.977 Q2167.82 440.528 2163.05 435.17 Q2158.33 429.76 2151.27 429.76 Q2144.11 429.76 2139.39 435.117 Q2134.67 440.475 2134.67 451.295 Z" fill="#000000" fill-rule="nonzero" fill-opacity="1" /><path clip-path="url(#clip110)" d="M2188.72 479.461 L2188.72 423.13 L2197.31 423.13 L2197.31 431.67 Q2200.6 425.676 2203.36 423.766 Q2206.17 421.857 2209.51 421.857 Q2214.34 421.857 2219.33 424.933 L2216.04 433.791 Q2212.54 431.723 2209.04 431.723 Q2205.91 431.723 2203.41 433.632 Q2200.92 435.489 2199.86 438.83 Q2198.27 443.922 2198.27 449.969 L2198.27 479.461 L2188.72 479.461 Z" fill="#000000" fill-rule="nonzero" fill-opacity="1" /><path clip-path="url(#clip110)" d="M2221.18 462.646 L2230.62 461.161 Q2231.42 466.837 2235.03 469.86 Q2238.69 472.883 2245.21 472.883 Q2251.79 472.883 2254.97 470.231 Q2258.15 467.526 2258.15 463.919 Q2258.15 460.684 2255.34 458.827 Q2253.38 457.554 2245.58 455.592 Q2235.08 452.939 2230.99 451.03 Q2226.96 449.067 2224.84 445.673 Q2222.77 442.225 2222.77 438.088 Q2222.77 434.322 2224.47 431.139 Q2226.22 427.904 2229.19 425.782 Q2231.42 424.138 2235.24 423.024 Q2239.11 421.857 2243.51 421.857 Q2250.14 421.857 2255.13 423.766 Q2260.17 425.676 2262.56 428.964 Q2264.94 432.2 2265.84 437.663 L2256.51 438.936 Q2255.87 434.587 2252.8 432.147 Q2249.77 429.707 2244.2 429.707 Q2237.63 429.707 2234.81 431.882 Q2232 434.056 2232 436.974 Q2232 438.83 2233.17 440.315 Q2234.34 441.854 2236.83 442.861 Q2238.26 443.392 2245.26 445.301 Q2255.39 448.007 2259.37 449.757 Q2263.4 451.454 2265.68 454.743 Q2267.97 458.032 2267.97 462.911 Q2267.97 467.685 2265.15 471.929 Q2262.4 476.119 2257.14 478.453 Q2251.89 480.734 2245.26 480.734 Q2234.28 480.734 2228.5 476.172 Q2222.77 471.61 2221.18 462.646 Z" fill="#000000" fill-rule="nonzero" fill-opacity="1" /></svg>
