<?xml version="1.0" encoding="utf-8"?>
<svg xmlns="http://www.w3.org/2000/svg" xmlns:xlink="http://www.w3.org/1999/xlink" width="600" height="400" viewBox="0 0 2400 1600">
<defs>
  <clipPath id="clip270">
    <rect x="0" y="0" width="2400" height="1600"/>
  </clipPath>
</defs>
<path clip-path="url(#clip270)" d="M0 1600 L2400 1600 L2400 8.88178e-14 L0 8.88178e-14  Z" fill="#ffffff" fill-rule="evenodd" fill-opacity="1"/>
<defs>
  <clipPath id="clip271">
    <rect x="480" y="0" width="1681" height="1600"/>
  </clipPath>
</defs>
<path clip-path="url(#clip270)" d="M228.721 1443.25 L2352.76 1443.25 L2352.76 47.2441 L228.721 47.2441  Z" fill="#ffffff" fill-rule="evenodd" fill-opacity="1"/>
<defs>
  <clipPath id="clip272">
    <rect x="228" y="47" width="2125" height="1397"/>
  </clipPath>
</defs>
<polyline clip-path="url(#clip270)" style="stroke:#000000; stroke-linecap:round; stroke-linejoin:round; stroke-width:4; stroke-opacity:1; fill:none" points="228.721,1443.25 2352.76,1443.25 "/>
<polyline clip-path="url(#clip270)" style="stroke:#000000; stroke-linecap:round; stroke-linejoin:round; stroke-width:2; stroke-opacity:0.5; fill:none" points="228.721,47.2441 2352.76,47.2441 "/>
<polyline clip-path="url(#clip270)" style="stroke:#000000; stroke-linecap:round; stroke-linejoin:round; stroke-width:4; stroke-opacity:1; fill:none" points="641.256,1443.25 641.256,1424.35 "/>
<polyline clip-path="url(#clip270)" style="stroke:#000000; stroke-linecap:round; stroke-linejoin:round; stroke-width:4; stroke-opacity:1; fill:none" points="1095.64,1443.25 1095.64,1424.35 "/>
<polyline clip-path="url(#clip270)" style="stroke:#000000; stroke-linecap:round; stroke-linejoin:round; stroke-width:4; stroke-opacity:1; fill:none" points="1550.03,1443.25 1550.03,1424.35 "/>
<polyline clip-path="url(#clip270)" style="stroke:#000000; stroke-linecap:round; stroke-linejoin:round; stroke-width:4; stroke-opacity:1; fill:none" points="2004.41,1443.25 2004.41,1424.35 "/>
<path clip-path="url(#clip270)" d="M570.869 1521.3 Q570.869 1507.51 573.68 1499.13 Q576.544 1490.69 582.114 1486.13 Q587.736 1481.57 596.223 1481.57 Q602.482 1481.57 607.203 1484.12 Q611.924 1486.61 615 1491.38 Q618.077 1496.1 619.827 1502.95 Q621.577 1509.74 621.577 1521.3 Q621.577 1534.98 618.766 1543.42 Q615.955 1551.8 610.332 1556.41 Q604.763 1560.97 596.223 1560.97 Q584.978 1560.97 578.56 1552.91 Q570.869 1543.2 570.869 1521.3 M580.682 1521.3 Q580.682 1540.45 585.137 1546.81 Q589.646 1553.12 596.223 1553.12 Q602.8 1553.12 607.256 1546.76 Q611.765 1540.39 611.765 1521.3 Q611.765 1502.1 607.256 1495.78 Q602.8 1489.47 596.117 1489.47 Q589.54 1489.47 585.615 1495.04 Q580.682 1502.15 580.682 1521.3 Z" fill="#000000" fill-rule="nonzero" fill-opacity="1" /><path clip-path="url(#clip270)" d="M636.641 1559.65 L636.641 1548.77 L647.515 1548.77 L647.515 1559.65 L636.641 1559.65 Z" fill="#000000" fill-rule="nonzero" fill-opacity="1" /><path clip-path="url(#clip270)" d="M711.643 1550.47 L711.643 1559.65 L660.245 1559.65 Q660.139 1556.2 661.359 1553.02 Q663.322 1547.77 667.618 1542.67 Q671.968 1537.58 680.136 1530.9 Q692.813 1520.5 697.269 1514.46 Q701.724 1508.36 701.724 1502.95 Q701.724 1497.27 697.64 1493.4 Q693.609 1489.47 687.085 1489.47 Q680.189 1489.47 676.052 1493.61 Q671.914 1497.75 671.861 1505.07 L662.049 1504.06 Q663.056 1493.08 669.634 1487.35 Q676.211 1481.57 687.297 1481.57 Q698.489 1481.57 705.013 1487.78 Q711.537 1493.98 711.537 1503.16 Q711.537 1507.83 709.628 1512.33 Q707.718 1516.84 703.262 1521.83 Q698.86 1526.81 688.57 1535.51 Q679.977 1542.73 677.537 1545.33 Q675.097 1547.87 673.506 1550.47 L711.643 1550.47 Z" fill="#000000" fill-rule="nonzero" fill-opacity="1" /><path clip-path="url(#clip270)" d="M1025.01 1521.3 Q1025.01 1507.51 1027.83 1499.13 Q1030.69 1490.69 1036.26 1486.13 Q1041.88 1481.57 1050.37 1481.57 Q1056.63 1481.57 1061.35 1484.12 Q1066.07 1486.61 1069.15 1491.38 Q1072.22 1496.1 1073.97 1502.95 Q1075.72 1509.74 1075.72 1521.3 Q1075.72 1534.98 1072.91 1543.42 Q1070.1 1551.8 1064.48 1556.41 Q1058.91 1560.97 1050.37 1560.97 Q1039.12 1560.97 1032.71 1552.91 Q1025.01 1543.2 1025.01 1521.3 M1034.83 1521.3 Q1034.83 1540.45 1039.28 1546.81 Q1043.79 1553.12 1050.37 1553.12 Q1056.95 1553.12 1061.4 1546.76 Q1065.91 1540.39 1065.91 1521.3 Q1065.91 1502.1 1061.4 1495.78 Q1056.95 1489.47 1050.26 1489.47 Q1043.69 1489.47 1039.76 1495.04 Q1034.83 1502.15 1034.83 1521.3 Z" fill="#000000" fill-rule="nonzero" fill-opacity="1" /><path clip-path="url(#clip270)" d="M1090.79 1559.65 L1090.79 1548.77 L1101.66 1548.77 L1101.66 1559.65 L1090.79 1559.65 Z" fill="#000000" fill-rule="nonzero" fill-opacity="1" /><path clip-path="url(#clip270)" d="M1146.22 1559.65 L1146.22 1541.03 L1112.48 1541.03 L1112.48 1532.28 L1147.97 1481.89 L1155.76 1481.89 L1155.76 1532.28 L1166.27 1532.28 L1166.27 1541.03 L1155.76 1541.03 L1155.76 1559.65 L1146.22 1559.65 M1146.22 1532.28 L1146.22 1497.22 L1121.87 1532.28 L1146.22 1532.28 Z" fill="#000000" fill-rule="nonzero" fill-opacity="1" /><path clip-path="url(#clip270)" d="M1479.27 1521.3 Q1479.27 1507.51 1482.08 1499.13 Q1484.94 1490.69 1490.51 1486.13 Q1496.13 1481.57 1504.62 1481.57 Q1510.88 1481.57 1515.6 1484.12 Q1520.32 1486.61 1523.4 1491.38 Q1526.47 1496.1 1528.22 1502.95 Q1529.98 1509.74 1529.98 1521.3 Q1529.98 1534.98 1527.16 1543.42 Q1524.35 1551.8 1518.73 1556.41 Q1513.16 1560.97 1504.62 1560.97 Q1493.38 1560.97 1486.96 1552.91 Q1479.27 1543.2 1479.27 1521.3 M1489.08 1521.3 Q1489.08 1540.45 1493.53 1546.81 Q1498.04 1553.12 1504.62 1553.12 Q1511.2 1553.12 1515.65 1546.76 Q1520.16 1540.39 1520.16 1521.3 Q1520.16 1502.1 1515.65 1495.78 Q1511.2 1489.47 1504.51 1489.47 Q1497.94 1489.47 1494.01 1495.04 Q1489.08 1502.15 1489.08 1521.3 Z" fill="#000000" fill-rule="nonzero" fill-opacity="1" /><path clip-path="url(#clip270)" d="M1545.04 1559.65 L1545.04 1548.77 L1555.91 1548.77 L1555.91 1559.65 L1545.04 1559.65 Z" fill="#000000" fill-rule="nonzero" fill-opacity="1" /><path clip-path="url(#clip270)" d="M1619.4 1500.93 L1609.91 1501.67 Q1608.64 1496.05 1606.3 1493.5 Q1602.43 1489.42 1596.76 1489.42 Q1592.19 1489.42 1588.75 1491.97 Q1584.24 1495.25 1581.64 1501.57 Q1579.04 1507.88 1578.93 1519.55 Q1582.38 1514.3 1587.37 1511.75 Q1592.35 1509.2 1597.82 1509.2 Q1607.36 1509.2 1614.05 1516.26 Q1620.78 1523.26 1620.78 1534.4 Q1620.78 1541.72 1617.6 1548.03 Q1614.47 1554.29 1608.96 1557.63 Q1603.44 1560.97 1596.44 1560.97 Q1584.5 1560.97 1576.97 1552.22 Q1569.44 1543.42 1569.44 1523.26 Q1569.44 1500.72 1577.77 1490.48 Q1585.03 1481.57 1597.34 1481.57 Q1606.52 1481.57 1612.35 1486.71 Q1618.24 1491.86 1619.4 1500.93 M1580.42 1534.45 Q1580.42 1539.39 1582.49 1543.89 Q1584.61 1548.4 1588.37 1550.79 Q1592.14 1553.12 1596.28 1553.12 Q1602.32 1553.12 1606.67 1548.24 Q1611.02 1543.36 1611.02 1534.98 Q1611.02 1526.92 1606.73 1522.31 Q1602.43 1517.64 1595.91 1517.64 Q1589.44 1517.64 1584.93 1522.31 Q1580.42 1526.92 1580.42 1534.45 Z" fill="#000000" fill-rule="nonzero" fill-opacity="1" /><path clip-path="url(#clip270)" d="M1933.55 1521.3 Q1933.55 1507.51 1936.36 1499.13 Q1939.22 1490.69 1944.79 1486.13 Q1950.41 1481.57 1958.9 1481.57 Q1965.16 1481.57 1969.88 1484.12 Q1974.6 1486.61 1977.68 1491.38 Q1980.75 1496.1 1982.5 1502.95 Q1984.25 1509.74 1984.25 1521.3 Q1984.25 1534.98 1981.44 1543.42 Q1978.63 1551.8 1973.01 1556.41 Q1967.44 1560.97 1958.9 1560.97 Q1947.65 1560.97 1941.24 1552.91 Q1933.55 1543.2 1933.55 1521.3 M1943.36 1521.3 Q1943.36 1540.45 1947.81 1546.81 Q1952.32 1553.12 1958.9 1553.12 Q1965.48 1553.12 1969.93 1546.76 Q1974.44 1540.39 1974.44 1521.3 Q1974.44 1502.1 1969.93 1495.78 Q1965.48 1489.47 1958.79 1489.47 Q1952.22 1489.47 1948.29 1495.04 Q1943.36 1502.15 1943.36 1521.3 Z" fill="#000000" fill-rule="nonzero" fill-opacity="1" /><path clip-path="url(#clip270)" d="M1999.32 1559.65 L1999.32 1548.77 L2010.19 1548.77 L2010.19 1559.65 L1999.32 1559.65 Z" fill="#000000" fill-rule="nonzero" fill-opacity="1" /><path clip-path="url(#clip270)" d="M2038.83 1517.48 Q2032.89 1515.3 2030.03 1511.27 Q2027.16 1507.24 2027.16 1501.62 Q2027.16 1493.13 2033.26 1487.35 Q2039.36 1481.57 2049.5 1481.57 Q2059.68 1481.57 2065.89 1487.51 Q2072.09 1493.4 2072.09 1501.88 Q2072.09 1507.3 2069.23 1511.33 Q2066.42 1515.3 2060.63 1517.48 Q2067.8 1519.81 2071.51 1525.01 Q2075.27 1530.21 2075.27 1537.42 Q2075.27 1547.4 2068.22 1554.18 Q2061.16 1560.97 2049.65 1560.97 Q2038.14 1560.97 2031.09 1554.18 Q2024.04 1547.34 2024.04 1537.16 Q2024.04 1529.57 2027.85 1524.48 Q2031.73 1519.34 2038.83 1517.48 M2036.92 1501.3 Q2036.92 1506.82 2040.48 1510.32 Q2044.03 1513.82 2049.71 1513.82 Q2055.22 1513.82 2058.72 1510.37 Q2062.28 1506.87 2062.28 1501.83 Q2062.28 1496.58 2058.62 1493.03 Q2055.01 1489.42 2049.6 1489.42 Q2044.14 1489.42 2040.53 1492.92 Q2036.92 1496.42 2036.92 1501.3 M2033.85 1537.21 Q2033.85 1541.3 2035.76 1545.11 Q2037.72 1548.93 2041.54 1551.06 Q2045.36 1553.12 2049.76 1553.12 Q2056.6 1553.12 2061.06 1548.72 Q2065.51 1544.32 2065.51 1537.53 Q2065.51 1530.63 2060.9 1526.13 Q2056.34 1521.62 2049.44 1521.62 Q2042.71 1521.62 2038.25 1526.07 Q2033.85 1530.53 2033.85 1537.21 Z" fill="#000000" fill-rule="nonzero" fill-opacity="1" /><polyline clip-path="url(#clip270)" style="stroke:#000000; stroke-linecap:round; stroke-linejoin:round; stroke-width:4; stroke-opacity:1; fill:none" points="228.721,1443.25 228.721,47.2441 "/>
<polyline clip-path="url(#clip270)" style="stroke:#000000; stroke-linecap:round; stroke-linejoin:round; stroke-width:2; stroke-opacity:0.5; fill:none" points="2352.76,1443.25 2352.76,47.2441 "/>
<polyline clip-path="url(#clip270)" style="stroke:#000000; stroke-linecap:round; stroke-linejoin:round; stroke-width:4; stroke-opacity:1; fill:none" points="228.721,1131.85 247.619,1131.85 "/>
<polyline clip-path="url(#clip270)" style="stroke:#000000; stroke-linecap:round; stroke-linejoin:round; stroke-width:4; stroke-opacity:1; fill:none" points="228.721,795.909 247.619,795.909 "/>
<polyline clip-path="url(#clip270)" style="stroke:#000000; stroke-linecap:round; stroke-linejoin:round; stroke-width:4; stroke-opacity:1; fill:none" points="228.721,459.968 247.619,459.968 "/>
<polyline clip-path="url(#clip270)" style="stroke:#000000; stroke-linecap:round; stroke-linejoin:round; stroke-width:4; stroke-opacity:1; fill:none" points="228.721,124.027 247.619,124.027 "/>
<path clip-path="url(#clip270)" d="M51.9469 1132.38 Q51.9469 1118.59 54.7581 1110.21 Q57.6224 1101.78 63.1919 1097.21 Q68.8143 1092.65 77.3011 1092.65 Q83.5601 1092.65 88.2809 1095.2 Q93.0016 1097.69 96.0781 1102.46 Q99.1545 1107.19 100.905 1114.03 Q102.655 1120.82 102.655 1132.38 Q102.655 1146.07 99.8441 1154.5 Q97.0328 1162.88 91.4104 1167.49 Q85.8409 1172.06 77.3011 1172.06 Q66.0561 1172.06 59.638 1163.99 Q51.9469 1154.29 51.9469 1132.38 M61.7597 1132.38 Q61.7597 1151.53 66.2153 1157.89 Q70.7239 1164.21 77.3011 1164.21 Q83.8783 1164.21 88.3339 1157.84 Q92.8425 1151.48 92.8425 1132.38 Q92.8425 1113.18 88.3339 1106.87 Q83.8783 1100.56 77.195 1100.56 Q70.6178 1100.56 66.6926 1106.12 Q61.7597 1113.23 61.7597 1132.38 Z" fill="#000000" fill-rule="nonzero" fill-opacity="1" /><path clip-path="url(#clip270)" d="M117.719 1170.73 L117.719 1159.86 L128.593 1159.86 L128.593 1170.73 L117.719 1170.73 Z" fill="#000000" fill-rule="nonzero" fill-opacity="1" /><path clip-path="url(#clip270)" d="M192.721 1161.55 L192.721 1170.73 L141.323 1170.73 Q141.217 1167.28 142.437 1164.1 Q144.4 1158.85 148.696 1153.76 Q153.045 1148.66 161.214 1141.98 Q173.891 1131.58 178.347 1125.54 Q182.802 1119.44 182.802 1114.03 Q182.802 1108.35 178.718 1104.48 Q174.687 1100.56 168.163 1100.56 Q161.267 1100.56 157.13 1104.69 Q152.992 1108.83 152.939 1116.15 L143.127 1115.14 Q144.134 1104.16 150.712 1098.43 Q157.289 1092.65 168.375 1092.65 Q179.567 1092.65 186.091 1098.86 Q192.615 1105.06 192.615 1114.24 Q192.615 1118.91 190.706 1123.42 Q188.796 1127.92 184.34 1132.91 Q179.938 1137.9 169.648 1146.6 Q161.055 1153.81 158.615 1156.41 Q156.175 1158.95 154.584 1161.55 L192.721 1161.55 Z" fill="#000000" fill-rule="nonzero" fill-opacity="1" /><path clip-path="url(#clip270)" d="M51.4695 796.44 Q51.4695 782.649 54.2807 774.268 Q57.145 765.834 62.7145 761.273 Q68.337 756.711 76.8237 756.711 Q83.0827 756.711 87.8035 759.257 Q92.5242 761.75 95.6007 766.524 Q98.6771 771.244 100.428 778.087 Q102.178 784.876 102.178 796.44 Q102.178 810.124 99.3667 818.558 Q96.5555 826.939 90.933 831.554 Q85.3635 836.115 76.8237 836.115 Q65.5788 836.115 59.1606 828.053 Q51.4695 818.346 51.4695 796.44 M61.2823 796.44 Q61.2823 815.588 65.7379 821.953 Q70.2465 828.265 76.8237 828.265 Q83.401 828.265 87.8565 821.9 Q92.3651 815.535 92.3651 796.44 Q92.3651 777.238 87.8565 770.926 Q83.401 764.614 76.7176 764.614 Q70.1404 764.614 66.2153 770.184 Q61.2823 777.291 61.2823 796.44 Z" fill="#000000" fill-rule="nonzero" fill-opacity="1" /><path clip-path="url(#clip270)" d="M117.242 834.789 L117.242 823.915 L128.116 823.915 L128.116 834.789 L117.242 834.789 Z" fill="#000000" fill-rule="nonzero" fill-opacity="1" /><path clip-path="url(#clip270)" d="M172.671 834.789 L172.671 816.171 L138.936 816.171 L138.936 807.419 L174.422 757.029 L182.219 757.029 L182.219 807.419 L192.721 807.419 L192.721 816.171 L182.219 816.171 L182.219 834.789 L172.671 834.789 M172.671 807.419 L172.671 772.358 L148.325 807.419 L172.671 807.419 Z" fill="#000000" fill-rule="nonzero" fill-opacity="1" /><path clip-path="url(#clip270)" d="M51.2043 460.499 Q51.2043 446.708 54.0155 438.327 Q56.8798 429.893 62.4493 425.332 Q68.0717 420.77 76.5585 420.77 Q82.8175 420.77 87.5383 423.316 Q92.259 425.809 95.3355 430.583 Q98.4119 435.303 100.162 442.146 Q101.913 448.935 101.913 460.499 Q101.913 474.183 99.1015 482.617 Q96.2902 490.998 90.6678 495.613 Q85.0983 500.174 76.5585 500.174 Q65.3135 500.174 58.8954 492.112 Q51.2043 482.405 51.2043 460.499 M61.0171 460.499 Q61.0171 479.647 65.4727 486.012 Q69.9813 492.324 76.5585 492.324 Q83.1358 492.324 87.5913 485.959 Q92.0999 479.594 92.0999 460.499 Q92.0999 441.297 87.5913 434.985 Q83.1358 428.673 76.4524 428.673 Q69.8752 428.673 65.9501 434.243 Q61.0171 441.35 61.0171 460.499 Z" fill="#000000" fill-rule="nonzero" fill-opacity="1" /><path clip-path="url(#clip270)" d="M116.977 498.848 L116.977 487.974 L127.85 487.974 L127.85 498.848 L116.977 498.848 Z" fill="#000000" fill-rule="nonzero" fill-opacity="1" /><path clip-path="url(#clip270)" d="M191.342 440.13 L181.847 440.873 Q180.574 435.25 178.241 432.704 Q174.368 428.62 168.693 428.62 Q164.131 428.62 160.684 431.166 Q156.175 434.455 153.576 440.767 Q150.977 447.079 150.871 458.748 Q154.319 453.497 159.304 450.951 Q164.29 448.405 169.754 448.405 Q179.301 448.405 185.985 455.46 Q192.721 462.461 192.721 473.6 Q192.721 480.92 189.539 487.232 Q186.409 493.491 180.893 496.833 Q175.376 500.174 168.375 500.174 Q156.44 500.174 148.908 491.422 Q141.376 482.617 141.376 462.461 Q141.376 439.918 149.704 429.681 Q156.971 420.77 169.276 420.77 Q178.453 420.77 184.287 425.915 Q190.175 431.06 191.342 440.13 M152.356 473.653 Q152.356 478.586 154.425 483.095 Q156.546 487.603 160.312 489.99 Q164.078 492.324 168.216 492.324 Q174.262 492.324 178.612 487.444 Q182.961 482.564 182.961 474.183 Q182.961 466.121 178.665 461.506 Q174.368 456.839 167.844 456.839 Q161.373 456.839 156.865 461.506 Q152.356 466.121 152.356 473.653 Z" fill="#000000" fill-rule="nonzero" fill-opacity="1" /><path clip-path="url(#clip270)" d="M50.9921 124.558 Q50.9921 110.767 53.8034 102.386 Q56.6677 93.9522 62.2371 89.3906 Q67.8596 84.8289 76.3463 84.8289 Q82.6053 84.8289 87.3261 87.375 Q92.0469 89.8679 95.1233 94.6417 Q98.1998 99.3625 99.9502 106.205 Q101.701 112.994 101.701 124.558 Q101.701 138.243 98.8893 146.676 Q96.0781 155.057 90.4556 159.672 Q84.8862 164.233 76.3463 164.233 Q65.1014 164.233 58.6833 156.171 Q50.9921 146.464 50.9921 124.558 M60.8049 124.558 Q60.8049 143.706 65.2605 150.071 Q69.7691 156.383 76.3463 156.383 Q82.9236 156.383 87.3791 150.018 Q91.8877 143.653 91.8877 124.558 Q91.8877 105.356 87.3791 99.0443 Q82.9236 92.7322 76.2403 92.7322 Q69.663 92.7322 65.7379 98.3017 Q60.8049 105.409 60.8049 124.558 Z" fill="#000000" fill-rule="nonzero" fill-opacity="1" /><path clip-path="url(#clip270)" d="M116.765 162.907 L116.765 152.034 L127.638 152.034 L127.638 162.907 L116.765 162.907 Z" fill="#000000" fill-rule="nonzero" fill-opacity="1" /><path clip-path="url(#clip270)" d="M156.281 120.739 Q150.34 118.564 147.476 114.533 Q144.612 110.501 144.612 104.879 Q144.612 96.3921 150.712 90.6105 Q156.811 84.8289 166.943 84.8289 Q177.127 84.8289 183.333 90.7697 Q189.539 96.6574 189.539 105.144 Q189.539 110.554 186.674 114.586 Q183.863 118.564 178.081 120.739 Q185.242 123.072 188.955 128.271 Q192.721 133.469 192.721 140.682 Q192.721 150.654 185.667 157.444 Q178.612 164.233 167.102 164.233 Q155.592 164.233 148.537 157.444 Q141.482 150.601 141.482 140.417 Q141.482 132.832 145.301 127.74 Q149.173 122.595 156.281 120.739 M154.372 104.561 Q154.372 110.077 157.925 113.578 Q161.479 117.079 167.155 117.079 Q172.671 117.079 176.172 113.631 Q179.726 110.13 179.726 105.091 Q179.726 99.8399 176.066 96.2861 Q172.459 92.6792 167.049 92.6792 Q161.585 92.6792 157.978 96.18 Q154.372 99.6808 154.372 104.561 M151.295 140.47 Q151.295 144.555 153.205 148.374 Q155.167 152.193 158.986 154.314 Q162.805 156.383 167.208 156.383 Q174.05 156.383 178.506 151.98 Q182.961 147.578 182.961 140.789 Q182.961 133.893 178.347 129.384 Q173.785 124.876 166.89 124.876 Q160.153 124.876 155.698 129.331 Q151.295 133.787 151.295 140.47 Z" fill="#000000" fill-rule="nonzero" fill-opacity="1" /><circle clip-path="url(#clip272)" cx="1089.72" cy="1318.84" r="14.4" fill="#009af9" fill-rule="evenodd" fill-opacity="1" stroke="#000000" stroke-opacity="1" stroke-width="3.2"/>
<circle clip-path="url(#clip272)" cx="361.28" cy="1081.06" r="14.4" fill="#009af9" fill-rule="evenodd" fill-opacity="1" stroke="#000000" stroke-opacity="1" stroke-width="3.2"/>
<circle clip-path="url(#clip272)" cx="1077.57" cy="447.35" r="14.4" fill="#009af9" fill-rule="evenodd" fill-opacity="1" stroke="#000000" stroke-opacity="1" stroke-width="3.2"/>
<circle clip-path="url(#clip272)" cx="1361.57" cy="690.516" r="14.4" fill="#009af9" fill-rule="evenodd" fill-opacity="1" stroke="#000000" stroke-opacity="1" stroke-width="3.2"/>
<circle clip-path="url(#clip272)" cx="1384.26" cy="1208.94" r="14.4" fill="#009af9" fill-rule="evenodd" fill-opacity="1" stroke="#000000" stroke-opacity="1" stroke-width="3.2"/>
<circle clip-path="url(#clip272)" cx="1229.24" cy="1443.25" r="14.4" fill="#009af9" fill-rule="evenodd" fill-opacity="1" stroke="#000000" stroke-opacity="1" stroke-width="3.2"/>
<circle clip-path="url(#clip272)" cx="228.721" cy="1326.51" r="14.4" fill="#009af9" fill-rule="evenodd" fill-opacity="1" stroke="#000000" stroke-opacity="1" stroke-width="3.2"/>
<circle clip-path="url(#clip272)" cx="556.01" cy="1424.97" r="14.4" fill="#009af9" fill-rule="evenodd" fill-opacity="1" stroke="#000000" stroke-opacity="1" stroke-width="3.2"/>
<circle clip-path="url(#clip272)" cx="421.175" cy="699.733" r="14.4" fill="#009af9" fill-rule="evenodd" fill-opacity="1" stroke="#000000" stroke-opacity="1" stroke-width="3.2"/>
<circle clip-path="url(#clip272)" cx="2352.76" cy="719.101" r="14.4" fill="#e26f46" fill-rule="evenodd" fill-opacity="1" stroke="#000000" stroke-opacity="1" stroke-width="3.2"/>
<circle clip-path="url(#clip272)" cx="885.646" cy="47.2441" r="14.4" fill="#e26f46" fill-rule="evenodd" fill-opacity="1" stroke="#000000" stroke-opacity="1" stroke-width="3.2"/>
<path clip-path="url(#clip270)" d="M1928.25 443.698 L2281.95 443.698 L2281.95 93.7776 L1928.25 93.7776  Z" fill="#ffffff" fill-rule="evenodd" fill-opacity="1"/>
<polyline clip-path="url(#clip270)" style="stroke:#000000; stroke-linecap:round; stroke-linejoin:round; stroke-width:4; stroke-opacity:1; fill:none" points="1928.25,443.698 2281.95,443.698 2281.95,93.7776 1928.25,93.7776 1928.25,443.698 "/>
<circle clip-path="url(#clip270)" cx="2022.65" cy="210.418" r="46.08" fill="#009af9" fill-rule="evenodd" fill-opacity="1" stroke="#000000" stroke-opacity="1" stroke-width="10.24"/>
<path clip-path="url(#clip270)" d="M2117.05 210.948 Q2117.05 197.157 2119.86 188.776 Q2122.73 180.343 2128.29 175.781 Q2133.92 171.219 2142.4 171.219 Q2148.66 171.219 2153.38 173.765 Q2158.1 176.258 2161.18 181.032 Q2164.26 185.753 2166.01 192.595 Q2167.76 199.385 2167.76 210.948 Q2167.76 224.633 2164.95 233.067 Q2162.14 241.447 2156.51 246.062 Q2150.94 250.624 2142.4 250.624 Q2131.16 250.624 2124.74 242.561 Q2117.05 232.854 2117.05 210.948 M2126.86 210.948 Q2126.86 230.096 2131.32 236.461 Q2135.83 242.773 2142.4 242.773 Q2148.98 242.773 2153.44 236.408 Q2157.95 230.043 2157.95 210.948 Q2157.95 191.747 2153.44 185.435 Q2148.98 179.123 2142.3 179.123 Q2135.72 179.123 2131.8 184.692 Q2126.86 191.8 2126.86 210.948 Z" fill="#000000" fill-rule="nonzero" fill-opacity="1" /><path clip-path="url(#clip270)" d="M2182.82 249.298 L2182.82 238.424 L2193.7 238.424 L2193.7 249.298 L2182.82 249.298 Z" fill="#000000" fill-rule="nonzero" fill-opacity="1" /><path clip-path="url(#clip270)" d="M2207.65 210.948 Q2207.65 197.157 2210.46 188.776 Q2213.32 180.343 2218.89 175.781 Q2224.51 171.219 2233 171.219 Q2239.26 171.219 2243.98 173.765 Q2248.7 176.258 2251.78 181.032 Q2254.85 185.753 2256.6 192.595 Q2258.35 199.385 2258.35 210.948 Q2258.35 224.633 2255.54 233.067 Q2252.73 241.447 2247.11 246.062 Q2241.54 250.624 2233 250.624 Q2221.76 250.624 2215.34 242.561 Q2207.65 232.854 2207.65 210.948 M2217.46 210.948 Q2217.46 230.096 2221.91 236.461 Q2226.42 242.773 2233 242.773 Q2239.58 242.773 2244.03 236.408 Q2248.54 230.043 2248.54 210.948 Q2248.54 191.747 2244.03 185.435 Q2239.58 179.123 2232.89 179.123 Q2226.32 179.123 2222.39 184.692 Q2217.46 191.8 2217.46 210.948 Z" fill="#000000" fill-rule="nonzero" fill-opacity="1" /><circle clip-path="url(#clip270)" cx="2022.65" cy="327.058" r="46.08" fill="#e26f46" fill-rule="evenodd" fill-opacity="1" stroke="#000000" stroke-opacity="1" stroke-width="10.24"/>
<path clip-path="url(#clip270)" d="M2145.69 365.938 L2136.14 365.938 L2136.14 305.098 Q2132.7 308.387 2127.07 311.675 Q2121.51 314.964 2117.05 316.608 L2117.05 307.379 Q2125.06 303.613 2131.05 298.256 Q2137.05 292.898 2139.54 287.859 L2145.69 287.859 L2145.69 365.938 Z" fill="#000000" fill-rule="nonzero" fill-opacity="1" /><path clip-path="url(#clip270)" d="M2175.5 365.938 L2175.5 355.064 L2186.38 355.064 L2186.38 365.938 L2175.5 365.938 Z" fill="#000000" fill-rule="nonzero" fill-opacity="1" /><path clip-path="url(#clip270)" d="M2200.33 327.588 Q2200.33 313.797 2203.14 305.416 Q2206 296.983 2211.57 292.421 Q2217.19 287.859 2225.68 287.859 Q2231.94 287.859 2236.66 290.405 Q2241.38 292.898 2244.46 297.672 Q2247.53 302.393 2249.28 309.235 Q2251.03 316.025 2251.03 327.588 Q2251.03 341.273 2248.22 349.707 Q2245.41 358.087 2239.79 362.702 Q2234.22 367.264 2225.68 367.264 Q2214.44 367.264 2208.02 359.201 Q2200.33 349.494 2200.33 327.588 M2210.14 327.588 Q2210.14 346.736 2214.59 353.101 Q2219.1 359.413 2225.68 359.413 Q2232.26 359.413 2236.71 353.048 Q2241.22 346.683 2241.22 327.588 Q2241.22 308.387 2236.71 302.075 Q2232.26 295.763 2225.57 295.763 Q2219 295.763 2215.07 301.332 Q2210.14 308.44 2210.14 327.588 Z" fill="#000000" fill-rule="nonzero" fill-opacity="1" /></svg>
