<?xml version="1.0" encoding="utf-8"?>
<svg xmlns="http://www.w3.org/2000/svg" xmlns:xlink="http://www.w3.org/1999/xlink" width="600" height="400" viewBox="0 0 2400 1600">
<defs>
  <clipPath id="clip830">
    <rect x="0" y="0" width="2400" height="1600"/>
  </clipPath>
</defs>
<path clip-path="url(#clip830)" d="M0 1600 L2400 1600 L2400 8.88178e-14 L0 8.88178e-14  Z" fill="#ffffff" fill-rule="evenodd" fill-opacity="1"/>
<defs>
  <clipPath id="clip831">
    <rect x="480" y="0" width="1681" height="1600"/>
  </clipPath>
</defs>
<path clip-path="url(#clip830)" d="M228.721 1443.25 L2352.76 1443.25 L2352.76 47.2441 L228.721 47.2441  Z" fill="#ffffff" fill-rule="evenodd" fill-opacity="1"/>
<defs>
  <clipPath id="clip832">
    <rect x="228" y="47" width="2125" height="1397"/>
  </clipPath>
</defs>
<polyline clip-path="url(#clip830)" style="stroke:#000000; stroke-linecap:round; stroke-linejoin:round; stroke-width:4; stroke-opacity:1; fill:none" points="228.721,1443.25 2352.76,1443.25 "/>
<polyline clip-path="url(#clip830)" style="stroke:#000000; stroke-linecap:round; stroke-linejoin:round; stroke-width:2; stroke-opacity:0.5; fill:none" points="228.721,47.2441 2352.76,47.2441 "/>
<polyline clip-path="url(#clip830)" style="stroke:#000000; stroke-linecap:round; stroke-linejoin:round; stroke-width:4; stroke-opacity:1; fill:none" points="508.376,1443.25 508.376,1424.35 "/>
<polyline clip-path="url(#clip830)" style="stroke:#000000; stroke-linecap:round; stroke-linejoin:round; stroke-width:4; stroke-opacity:1; fill:none" points="1031.84,1443.25 1031.84,1424.35 "/>
<polyline clip-path="url(#clip830)" style="stroke:#000000; stroke-linecap:round; stroke-linejoin:round; stroke-width:4; stroke-opacity:1; fill:none" points="1555.31,1443.25 1555.31,1424.35 "/>
<polyline clip-path="url(#clip830)" style="stroke:#000000; stroke-linecap:round; stroke-linejoin:round; stroke-width:4; stroke-opacity:1; fill:none" points="2078.78,1443.25 2078.78,1424.35 "/>
<path clip-path="url(#clip830)" d="M437.989 1521.3 Q437.989 1507.51 440.801 1499.13 Q443.665 1490.69 449.234 1486.13 Q454.857 1481.57 463.344 1481.57 Q469.603 1481.57 474.323 1484.12 Q479.044 1486.61 482.121 1491.38 Q485.197 1496.1 486.947 1502.95 Q488.698 1509.74 488.698 1521.3 Q488.698 1534.98 485.887 1543.42 Q483.075 1551.8 477.453 1556.41 Q471.883 1560.97 463.344 1560.97 Q452.099 1560.97 445.68 1552.91 Q437.989 1543.2 437.989 1521.3 M447.802 1521.3 Q447.802 1540.45 452.258 1546.81 Q456.766 1553.12 463.344 1553.12 Q469.921 1553.12 474.376 1546.76 Q478.885 1540.39 478.885 1521.3 Q478.885 1502.1 474.376 1495.78 Q469.921 1489.47 463.237 1489.47 Q456.66 1489.47 452.735 1495.04 Q447.802 1502.15 447.802 1521.3 Z" fill="#000000" fill-rule="nonzero" fill-opacity="1" /><path clip-path="url(#clip830)" d="M503.762 1559.65 L503.762 1548.77 L514.635 1548.77 L514.635 1559.65 L503.762 1559.65 Z" fill="#000000" fill-rule="nonzero" fill-opacity="1" /><path clip-path="url(#clip830)" d="M578.764 1550.47 L578.764 1559.65 L527.366 1559.65 Q527.26 1556.2 528.479 1553.02 Q530.442 1547.77 534.738 1542.67 Q539.088 1537.58 547.256 1530.9 Q559.934 1520.5 564.389 1514.46 Q568.845 1508.36 568.845 1502.95 Q568.845 1497.27 564.76 1493.4 Q560.729 1489.47 554.205 1489.47 Q547.309 1489.47 543.172 1493.61 Q539.035 1497.75 538.982 1505.07 L529.169 1504.06 Q530.177 1493.08 536.754 1487.35 Q543.331 1481.57 554.417 1481.57 Q565.609 1481.57 572.133 1487.78 Q578.657 1493.98 578.657 1503.16 Q578.657 1507.83 576.748 1512.33 Q574.838 1516.84 570.383 1521.83 Q565.98 1526.81 555.69 1535.51 Q547.097 1542.73 544.657 1545.33 Q542.217 1547.87 540.626 1550.47 L578.764 1550.47 Z" fill="#000000" fill-rule="nonzero" fill-opacity="1" /><path clip-path="url(#clip830)" d="M961.218 1521.3 Q961.218 1507.51 964.029 1499.13 Q966.894 1490.69 972.463 1486.13 Q978.085 1481.57 986.572 1481.57 Q992.831 1481.57 997.552 1484.12 Q1002.27 1486.61 1005.35 1491.38 Q1008.43 1496.1 1010.18 1502.95 Q1011.93 1509.74 1011.93 1521.3 Q1011.93 1534.98 1009.12 1543.42 Q1006.3 1551.8 1000.68 1556.41 Q995.112 1560.97 986.572 1560.97 Q975.327 1560.97 968.909 1552.91 Q961.218 1543.2 961.218 1521.3 M971.031 1521.3 Q971.031 1540.45 975.486 1546.81 Q979.995 1553.12 986.572 1553.12 Q993.149 1553.12 997.605 1546.76 Q1002.11 1540.39 1002.11 1521.3 Q1002.11 1502.1 997.605 1495.78 Q993.149 1489.47 986.466 1489.47 Q979.889 1489.47 975.964 1495.04 Q971.031 1502.15 971.031 1521.3 Z" fill="#000000" fill-rule="nonzero" fill-opacity="1" /><path clip-path="url(#clip830)" d="M1026.99 1559.65 L1026.99 1548.77 L1037.86 1548.77 L1037.86 1559.65 L1026.99 1559.65 Z" fill="#000000" fill-rule="nonzero" fill-opacity="1" /><path clip-path="url(#clip830)" d="M1082.42 1559.65 L1082.42 1541.03 L1048.68 1541.03 L1048.68 1532.28 L1084.17 1481.89 L1091.97 1481.89 L1091.97 1532.28 L1102.47 1532.28 L1102.47 1541.03 L1091.97 1541.03 L1091.97 1559.65 L1082.42 1559.65 M1082.42 1532.28 L1082.42 1497.22 L1058.07 1532.28 L1082.42 1532.28 Z" fill="#000000" fill-rule="nonzero" fill-opacity="1" /><path clip-path="url(#clip830)" d="M1484.55 1521.3 Q1484.55 1507.51 1487.36 1499.13 Q1490.23 1490.69 1495.8 1486.13 Q1501.42 1481.57 1509.91 1481.57 Q1516.17 1481.57 1520.89 1484.12 Q1525.61 1486.61 1528.68 1491.38 Q1531.76 1496.1 1533.51 1502.95 Q1535.26 1509.74 1535.26 1521.3 Q1535.26 1534.98 1532.45 1543.42 Q1529.64 1551.8 1524.02 1556.41 Q1518.45 1560.97 1509.91 1560.97 Q1498.66 1560.97 1492.24 1552.91 Q1484.55 1543.2 1484.55 1521.3 M1494.37 1521.3 Q1494.37 1540.45 1498.82 1546.81 Q1503.33 1553.12 1509.91 1553.12 Q1516.48 1553.12 1520.94 1546.76 Q1525.45 1540.39 1525.45 1521.3 Q1525.45 1502.1 1520.94 1495.78 Q1516.48 1489.47 1509.8 1489.47 Q1503.22 1489.47 1499.3 1495.04 Q1494.37 1502.15 1494.37 1521.3 Z" fill="#000000" fill-rule="nonzero" fill-opacity="1" /><path clip-path="url(#clip830)" d="M1550.33 1559.65 L1550.33 1548.77 L1561.2 1548.77 L1561.2 1559.65 L1550.33 1559.65 Z" fill="#000000" fill-rule="nonzero" fill-opacity="1" /><path clip-path="url(#clip830)" d="M1624.69 1500.93 L1615.2 1501.67 Q1613.92 1496.05 1611.59 1493.5 Q1607.72 1489.42 1602.04 1489.42 Q1597.48 1489.42 1594.03 1491.97 Q1589.52 1495.25 1586.92 1501.57 Q1584.33 1507.88 1584.22 1519.55 Q1587.67 1514.3 1592.65 1511.75 Q1597.64 1509.2 1603.1 1509.2 Q1612.65 1509.2 1619.33 1516.26 Q1626.07 1523.26 1626.07 1534.4 Q1626.07 1541.72 1622.89 1548.03 Q1619.76 1554.29 1614.24 1557.63 Q1608.72 1560.97 1601.72 1560.97 Q1589.79 1560.97 1582.26 1552.22 Q1574.72 1543.42 1574.72 1523.26 Q1574.72 1500.72 1583.05 1490.48 Q1590.32 1481.57 1602.62 1481.57 Q1611.8 1481.57 1617.64 1486.71 Q1623.52 1491.86 1624.69 1500.93 M1585.7 1534.45 Q1585.7 1539.39 1587.77 1543.89 Q1589.89 1548.4 1593.66 1550.79 Q1597.43 1553.12 1601.56 1553.12 Q1607.61 1553.12 1611.96 1548.24 Q1616.31 1543.36 1616.31 1534.98 Q1616.31 1526.92 1612.01 1522.31 Q1607.72 1517.64 1601.19 1517.64 Q1594.72 1517.64 1590.21 1522.31 Q1585.7 1526.92 1585.7 1534.45 Z" fill="#000000" fill-rule="nonzero" fill-opacity="1" /><path clip-path="url(#clip830)" d="M2007.91 1521.3 Q2007.91 1507.51 2010.73 1499.13 Q2013.59 1490.69 2019.16 1486.13 Q2024.78 1481.57 2033.27 1481.57 Q2039.53 1481.57 2044.25 1484.12 Q2048.97 1486.61 2052.05 1491.38 Q2055.12 1496.1 2056.87 1502.95 Q2058.62 1509.74 2058.62 1521.3 Q2058.62 1534.98 2055.81 1543.42 Q2053 1551.8 2047.38 1556.41 Q2041.81 1560.97 2033.27 1560.97 Q2022.02 1560.97 2015.61 1552.91 Q2007.91 1543.2 2007.91 1521.3 M2017.73 1521.3 Q2017.73 1540.45 2022.18 1546.81 Q2026.69 1553.12 2033.27 1553.12 Q2039.85 1553.12 2044.3 1546.76 Q2048.81 1540.39 2048.81 1521.3 Q2048.81 1502.1 2044.3 1495.78 Q2039.85 1489.47 2033.16 1489.47 Q2026.58 1489.47 2022.66 1495.04 Q2017.73 1502.15 2017.73 1521.3 Z" fill="#000000" fill-rule="nonzero" fill-opacity="1" /><path clip-path="url(#clip830)" d="M2073.69 1559.65 L2073.69 1548.77 L2084.56 1548.77 L2084.56 1559.65 L2073.69 1559.65 Z" fill="#000000" fill-rule="nonzero" fill-opacity="1" /><path clip-path="url(#clip830)" d="M2113.2 1517.48 Q2107.26 1515.3 2104.4 1511.27 Q2101.53 1507.24 2101.53 1501.62 Q2101.53 1493.13 2107.63 1487.35 Q2113.73 1481.57 2123.86 1481.57 Q2134.05 1481.57 2140.25 1487.51 Q2146.46 1493.4 2146.46 1501.88 Q2146.46 1507.3 2143.6 1511.33 Q2140.78 1515.3 2135 1517.48 Q2142.16 1519.81 2145.88 1525.01 Q2149.64 1530.21 2149.64 1537.42 Q2149.64 1547.4 2142.59 1554.18 Q2135.53 1560.97 2124.02 1560.97 Q2112.51 1560.97 2105.46 1554.18 Q2098.4 1547.34 2098.4 1537.16 Q2098.4 1529.57 2102.22 1524.48 Q2106.1 1519.34 2113.2 1517.48 M2111.29 1501.3 Q2111.29 1506.82 2114.85 1510.32 Q2118.4 1513.82 2124.08 1513.82 Q2129.59 1513.82 2133.09 1510.37 Q2136.65 1506.87 2136.65 1501.83 Q2136.65 1496.58 2132.99 1493.03 Q2129.38 1489.42 2123.97 1489.42 Q2118.51 1489.42 2114.9 1492.92 Q2111.29 1496.42 2111.29 1501.3 M2108.22 1537.21 Q2108.22 1541.3 2110.13 1545.11 Q2112.09 1548.93 2115.91 1551.06 Q2119.73 1553.12 2124.13 1553.12 Q2130.97 1553.12 2135.43 1548.72 Q2139.88 1544.32 2139.88 1537.53 Q2139.88 1530.63 2135.27 1526.13 Q2130.71 1521.62 2123.81 1521.62 Q2117.08 1521.62 2112.62 1526.07 Q2108.22 1530.53 2108.22 1537.21 Z" fill="#000000" fill-rule="nonzero" fill-opacity="1" /><polyline clip-path="url(#clip830)" style="stroke:#000000; stroke-linecap:round; stroke-linejoin:round; stroke-width:4; stroke-opacity:1; fill:none" points="228.721,1443.25 228.721,47.2441 "/>
<polyline clip-path="url(#clip830)" style="stroke:#000000; stroke-linecap:round; stroke-linejoin:round; stroke-width:2; stroke-opacity:0.5; fill:none" points="2352.76,1443.25 2352.76,47.2441 "/>
<polyline clip-path="url(#clip830)" style="stroke:#000000; stroke-linecap:round; stroke-linejoin:round; stroke-width:4; stroke-opacity:1; fill:none" points="228.721,1302.15 247.619,1302.15 "/>
<polyline clip-path="url(#clip830)" style="stroke:#000000; stroke-linecap:round; stroke-linejoin:round; stroke-width:4; stroke-opacity:1; fill:none" points="228.721,975.893 247.619,975.893 "/>
<polyline clip-path="url(#clip830)" style="stroke:#000000; stroke-linecap:round; stroke-linejoin:round; stroke-width:4; stroke-opacity:1; fill:none" points="228.721,649.639 247.619,649.639 "/>
<polyline clip-path="url(#clip830)" style="stroke:#000000; stroke-linecap:round; stroke-linejoin:round; stroke-width:4; stroke-opacity:1; fill:none" points="228.721,323.385 247.619,323.385 "/>
<path clip-path="url(#clip830)" d="M51.9469 1302.68 Q51.9469 1288.89 54.7581 1280.51 Q57.6224 1272.07 63.1919 1267.51 Q68.8143 1262.95 77.3011 1262.95 Q83.5601 1262.95 88.2809 1265.49 Q93.0016 1267.99 96.0781 1272.76 Q99.1545 1277.48 100.905 1284.32 Q102.655 1291.11 102.655 1302.68 Q102.655 1316.36 99.8441 1324.8 Q97.0328 1333.18 91.4104 1337.79 Q85.8409 1342.35 77.3011 1342.35 Q66.0561 1342.35 59.638 1334.29 Q51.9469 1324.58 51.9469 1302.68 M61.7597 1302.68 Q61.7597 1321.83 66.2153 1328.19 Q70.7239 1334.5 77.3011 1334.5 Q83.8783 1334.5 88.3339 1328.14 Q92.8425 1321.77 92.8425 1302.68 Q92.8425 1283.48 88.3339 1277.16 Q83.8783 1270.85 77.195 1270.85 Q70.6178 1270.85 66.6926 1276.42 Q61.7597 1283.53 61.7597 1302.68 Z" fill="#000000" fill-rule="nonzero" fill-opacity="1" /><path clip-path="url(#clip830)" d="M117.719 1341.03 L117.719 1330.15 L128.593 1330.15 L128.593 1341.03 L117.719 1341.03 Z" fill="#000000" fill-rule="nonzero" fill-opacity="1" /><path clip-path="url(#clip830)" d="M192.721 1331.85 L192.721 1341.03 L141.323 1341.03 Q141.217 1337.58 142.437 1334.4 Q144.4 1329.15 148.696 1324.05 Q153.045 1318.96 161.214 1312.28 Q173.891 1301.88 178.347 1295.83 Q182.802 1289.73 182.802 1284.32 Q182.802 1278.65 178.718 1274.78 Q174.687 1270.85 168.163 1270.85 Q161.267 1270.85 157.13 1274.99 Q152.992 1279.13 152.939 1286.45 L143.127 1285.44 Q144.134 1274.46 150.712 1268.73 Q157.289 1262.95 168.375 1262.95 Q179.567 1262.95 186.091 1269.15 Q192.615 1275.36 192.615 1284.54 Q192.615 1289.2 190.706 1293.71 Q188.796 1298.22 184.34 1303.21 Q179.938 1308.19 169.648 1316.89 Q161.055 1324.11 158.615 1326.71 Q156.175 1329.25 154.584 1331.85 L192.721 1331.85 Z" fill="#000000" fill-rule="nonzero" fill-opacity="1" /><path clip-path="url(#clip830)" d="M51.4695 976.423 Q51.4695 962.632 54.2807 954.252 Q57.145 945.818 62.7145 941.256 Q68.337 936.695 76.8237 936.695 Q83.0827 936.695 87.8035 939.241 Q92.5242 941.734 95.6007 946.507 Q98.6771 951.228 100.428 958.071 Q102.178 964.86 102.178 976.423 Q102.178 990.108 99.3667 998.542 Q96.5555 1006.92 90.933 1011.54 Q85.3635 1016.1 76.8237 1016.1 Q65.5788 1016.1 59.1606 1008.04 Q51.4695 998.33 51.4695 976.423 M61.2823 976.423 Q61.2823 995.572 65.7379 1001.94 Q70.2465 1008.25 76.8237 1008.25 Q83.401 1008.25 87.8565 1001.88 Q92.3651 995.519 92.3651 976.423 Q92.3651 957.222 87.8565 950.91 Q83.401 944.598 76.7176 944.598 Q70.1404 944.598 66.2153 950.167 Q61.2823 957.275 61.2823 976.423 Z" fill="#000000" fill-rule="nonzero" fill-opacity="1" /><path clip-path="url(#clip830)" d="M117.242 1014.77 L117.242 1003.9 L128.116 1003.9 L128.116 1014.77 L117.242 1014.77 Z" fill="#000000" fill-rule="nonzero" fill-opacity="1" /><path clip-path="url(#clip830)" d="M172.671 1014.77 L172.671 996.155 L138.936 996.155 L138.936 987.403 L174.422 937.013 L182.219 937.013 L182.219 987.403 L192.721 987.403 L192.721 996.155 L182.219 996.155 L182.219 1014.77 L172.671 1014.77 M172.671 987.403 L172.671 952.342 L148.325 987.403 L172.671 987.403 Z" fill="#000000" fill-rule="nonzero" fill-opacity="1" /><path clip-path="url(#clip830)" d="M51.2043 650.169 Q51.2043 636.378 54.0155 627.998 Q56.8798 619.564 62.4493 615.002 Q68.0717 610.441 76.5585 610.441 Q82.8175 610.441 87.5383 612.987 Q92.259 615.48 95.3355 620.254 Q98.4119 624.974 100.162 631.817 Q101.913 638.606 101.913 650.169 Q101.913 663.854 99.1015 672.288 Q96.2902 680.669 90.6678 685.283 Q85.0983 689.845 76.5585 689.845 Q65.3135 689.845 58.8954 681.783 Q51.2043 672.076 51.2043 650.169 M61.0171 650.169 Q61.0171 669.318 65.4727 675.683 Q69.9813 681.995 76.5585 681.995 Q83.1358 681.995 87.5913 675.63 Q92.0999 669.265 92.0999 650.169 Q92.0999 630.968 87.5913 624.656 Q83.1358 618.344 76.4524 618.344 Q69.8752 618.344 65.9501 623.913 Q61.0171 631.021 61.0171 650.169 Z" fill="#000000" fill-rule="nonzero" fill-opacity="1" /><path clip-path="url(#clip830)" d="M116.977 688.519 L116.977 677.645 L127.85 677.645 L127.85 688.519 L116.977 688.519 Z" fill="#000000" fill-rule="nonzero" fill-opacity="1" /><path clip-path="url(#clip830)" d="M191.342 629.801 L181.847 630.544 Q180.574 624.921 178.241 622.375 Q174.368 618.291 168.693 618.291 Q164.131 618.291 160.684 620.837 Q156.175 624.126 153.576 630.438 Q150.977 636.75 150.871 648.419 Q154.319 643.168 159.304 640.622 Q164.29 638.076 169.754 638.076 Q179.301 638.076 185.985 645.13 Q192.721 652.132 192.721 663.271 Q192.721 670.591 189.539 676.903 Q186.409 683.162 180.893 686.503 Q175.376 689.845 168.375 689.845 Q156.44 689.845 148.908 681.093 Q141.376 672.288 141.376 652.132 Q141.376 629.589 149.704 619.352 Q156.971 610.441 169.276 610.441 Q178.453 610.441 184.287 615.586 Q190.175 620.731 191.342 629.801 M152.356 663.324 Q152.356 668.257 154.425 672.765 Q156.546 677.274 160.312 679.661 Q164.078 681.995 168.216 681.995 Q174.262 681.995 178.612 677.115 Q182.961 672.235 182.961 663.854 Q182.961 655.792 178.665 651.177 Q174.368 646.51 167.844 646.51 Q161.373 646.51 156.865 651.177 Q152.356 655.792 152.356 663.324 Z" fill="#000000" fill-rule="nonzero" fill-opacity="1" /><path clip-path="url(#clip830)" d="M50.9921 323.916 Q50.9921 310.125 53.8034 301.744 Q56.6677 293.31 62.2371 288.749 Q67.8596 284.187 76.3463 284.187 Q82.6053 284.187 87.3261 286.733 Q92.0469 289.226 95.1233 294 Q98.1998 298.72 99.9502 305.563 Q101.701 312.352 101.701 323.916 Q101.701 337.6 98.8893 346.034 Q96.0781 354.415 90.4556 359.03 Q84.8862 363.591 76.3463 363.591 Q65.1014 363.591 58.6833 355.529 Q50.9921 345.822 50.9921 323.916 M60.8049 323.916 Q60.8049 343.064 65.2605 349.429 Q69.7691 355.741 76.3463 355.741 Q82.9236 355.741 87.3791 349.376 Q91.8877 343.011 91.8877 323.916 Q91.8877 304.714 87.3791 298.402 Q82.9236 292.09 76.2403 292.09 Q69.663 292.09 65.7379 297.66 Q60.8049 304.767 60.8049 323.916 Z" fill="#000000" fill-rule="nonzero" fill-opacity="1" /><path clip-path="url(#clip830)" d="M116.765 362.265 L116.765 351.391 L127.638 351.391 L127.638 362.265 L116.765 362.265 Z" fill="#000000" fill-rule="nonzero" fill-opacity="1" /><path clip-path="url(#clip830)" d="M156.281 320.097 Q150.34 317.922 147.476 313.891 Q144.612 309.859 144.612 304.237 Q144.612 295.75 150.712 289.969 Q156.811 284.187 166.943 284.187 Q177.127 284.187 183.333 290.128 Q189.539 296.015 189.539 304.502 Q189.539 309.912 186.674 313.944 Q183.863 317.922 178.081 320.097 Q185.242 322.43 188.955 327.629 Q192.721 332.827 192.721 340.04 Q192.721 350.012 185.667 356.802 Q178.612 363.591 167.102 363.591 Q155.592 363.591 148.537 356.802 Q141.482 349.959 141.482 339.775 Q141.482 332.19 145.301 327.098 Q149.173 321.953 156.281 320.097 M154.372 303.919 Q154.372 309.435 157.925 312.936 Q161.479 316.437 167.155 316.437 Q172.671 316.437 176.172 312.989 Q179.726 309.488 179.726 304.449 Q179.726 299.198 176.066 295.644 Q172.459 292.037 167.049 292.037 Q161.585 292.037 157.978 295.538 Q154.372 299.039 154.372 303.919 M151.295 339.828 Q151.295 343.913 153.205 347.732 Q155.167 351.551 158.986 353.672 Q162.805 355.741 167.208 355.741 Q174.05 355.741 178.506 351.338 Q182.961 346.936 182.961 340.147 Q182.961 333.251 178.347 328.742 Q173.785 324.234 166.89 324.234 Q160.153 324.234 155.698 328.689 Q151.295 333.145 151.295 339.828 Z" fill="#000000" fill-rule="nonzero" fill-opacity="1" /><circle clip-path="url(#clip832)" cx="1194.44" cy="1103.77" r="14.4" fill="#009af9" fill-rule="evenodd" fill-opacity="1" stroke="#000000" stroke-opacity="1" stroke-width="3.2"/>
<circle clip-path="url(#clip832)" cx="1010.42" cy="996.95" r="14.4" fill="#009af9" fill-rule="evenodd" fill-opacity="1" stroke="#000000" stroke-opacity="1" stroke-width="3.2"/>
<circle clip-path="url(#clip832)" cx="883.865" cy="1443.25" r="14.4" fill="#009af9" fill-rule="evenodd" fill-opacity="1" stroke="#000000" stroke-opacity="1" stroke-width="3.2"/>
<circle clip-path="url(#clip832)" cx="228.721" cy="782.009" r="14.4" fill="#009af9" fill-rule="evenodd" fill-opacity="1" stroke="#000000" stroke-opacity="1" stroke-width="3.2"/>
<circle clip-path="url(#clip832)" cx="1013.93" cy="277.545" r="14.4" fill="#e26f46" fill-rule="evenodd" fill-opacity="1" stroke="#000000" stroke-opacity="1" stroke-width="3.2"/>
<circle clip-path="url(#clip832)" cx="1914.75" cy="827.482" r="14.4" fill="#e26f46" fill-rule="evenodd" fill-opacity="1" stroke="#000000" stroke-opacity="1" stroke-width="3.2"/>
<circle clip-path="url(#clip832)" cx="1967.06" cy="390.328" r="14.4" fill="#e26f46" fill-rule="evenodd" fill-opacity="1" stroke="#000000" stroke-opacity="1" stroke-width="3.2"/>
<circle clip-path="url(#clip832)" cx="1869.64" cy="742.826" r="14.4" fill="#e26f46" fill-rule="evenodd" fill-opacity="1" stroke="#000000" stroke-opacity="1" stroke-width="3.2"/>
<circle clip-path="url(#clip832)" cx="2078.45" cy="1180.19" r="14.4" fill="#e26f46" fill-rule="evenodd" fill-opacity="1" stroke="#000000" stroke-opacity="1" stroke-width="3.2"/>
<circle clip-path="url(#clip832)" cx="1211.56" cy="47.2441" r="14.4" fill="#e26f46" fill-rule="evenodd" fill-opacity="1" stroke="#000000" stroke-opacity="1" stroke-width="3.2"/>
<path clip-path="url(#clip830)" d="M1928.25 443.698 L2281.95 443.698 L2281.95 93.7776 L1928.25 93.7776  Z" fill="#ffffff" fill-rule="evenodd" fill-opacity="1"/>
<polyline clip-path="url(#clip830)" style="stroke:#000000; stroke-linecap:round; stroke-linejoin:round; stroke-width:4; stroke-opacity:1; fill:none" points="1928.25,443.698 2281.95,443.698 2281.95,93.7776 1928.25,93.7776 1928.25,443.698 "/>
<circle clip-path="url(#clip830)" cx="2022.65" cy="210.418" r="46.08" fill="#009af9" fill-rule="evenodd" fill-opacity="1" stroke="#000000" stroke-opacity="1" stroke-width="10.24"/>
<path clip-path="url(#clip830)" d="M2117.05 210.948 Q2117.05 197.157 2119.86 188.776 Q2122.73 180.343 2128.29 175.781 Q2133.92 171.219 2142.4 171.219 Q2148.66 171.219 2153.38 173.765 Q2158.1 176.258 2161.18 181.032 Q2164.26 185.753 2166.01 192.595 Q2167.76 199.385 2167.76 210.948 Q2167.76 224.633 2164.95 233.067 Q2162.14 241.447 2156.51 246.062 Q2150.94 250.624 2142.4 250.624 Q2131.16 250.624 2124.74 242.561 Q2117.05 232.854 2117.05 210.948 M2126.86 210.948 Q2126.86 230.096 2131.32 236.461 Q2135.83 242.773 2142.4 242.773 Q2148.98 242.773 2153.44 236.408 Q2157.95 230.043 2157.95 210.948 Q2157.95 191.747 2153.44 185.435 Q2148.98 179.123 2142.3 179.123 Q2135.72 179.123 2131.8 184.692 Q2126.86 191.8 2126.86 210.948 Z" fill="#000000" fill-rule="nonzero" fill-opacity="1" /><path clip-path="url(#clip830)" d="M2182.82 249.298 L2182.82 238.424 L2193.7 238.424 L2193.7 249.298 L2182.82 249.298 Z" fill="#000000" fill-rule="nonzero" fill-opacity="1" /><path clip-path="url(#clip830)" d="M2207.65 210.948 Q2207.65 197.157 2210.46 188.776 Q2213.32 180.343 2218.89 175.781 Q2224.51 171.219 2233 171.219 Q2239.26 171.219 2243.98 173.765 Q2248.7 176.258 2251.78 181.032 Q2254.85 185.753 2256.6 192.595 Q2258.35 199.385 2258.35 210.948 Q2258.35 224.633 2255.54 233.067 Q2252.73 241.447 2247.11 246.062 Q2241.54 250.624 2233 250.624 Q2221.76 250.624 2215.34 242.561 Q2207.65 232.854 2207.65 210.948 M2217.46 210.948 Q2217.46 230.096 2221.91 236.461 Q2226.42 242.773 2233 242.773 Q2239.58 242.773 2244.03 236.408 Q2248.54 230.043 2248.54 210.948 Q2248.54 191.747 2244.03 185.435 Q2239.58 179.123 2232.89 179.123 Q2226.32 179.123 2222.39 184.692 Q2217.46 191.8 2217.46 210.948 Z" fill="#000000" fill-rule="nonzero" fill-opacity="1" /><circle clip-path="url(#clip830)" cx="2022.65" cy="327.058" r="46.08" fill="#e26f46" fill-rule="evenodd" fill-opacity="1" stroke="#000000" stroke-opacity="1" stroke-width="10.24"/>
<path clip-path="url(#clip830)" d="M2145.69 365.938 L2136.14 365.938 L2136.14 305.098 Q2132.7 308.387 2127.07 311.675 Q2121.51 314.964 2117.05 316.608 L2117.05 307.379 Q2125.06 303.613 2131.05 298.256 Q2137.05 292.898 2139.54 287.859 L2145.69 287.859 L2145.69 365.938 Z" fill="#000000" fill-rule="nonzero" fill-opacity="1" /><path clip-path="url(#clip830)" d="M2175.5 365.938 L2175.5 355.064 L2186.38 355.064 L2186.38 365.938 L2175.5 365.938 Z" fill="#000000" fill-rule="nonzero" fill-opacity="1" /><path clip-path="url(#clip830)" d="M2200.33 327.588 Q2200.33 313.797 2203.14 305.416 Q2206 296.983 2211.57 292.421 Q2217.19 287.859 2225.68 287.859 Q2231.94 287.859 2236.66 290.405 Q2241.38 292.898 2244.46 297.672 Q2247.53 302.393 2249.28 309.235 Q2251.03 316.025 2251.03 327.588 Q2251.03 341.273 2248.22 349.707 Q2245.41 358.087 2239.79 362.702 Q2234.22 367.264 2225.68 367.264 Q2214.44 367.264 2208.02 359.201 Q2200.33 349.494 2200.33 327.588 M2210.14 327.588 Q2210.14 346.736 2214.59 353.101 Q2219.1 359.413 2225.68 359.413 Q2232.26 359.413 2236.71 353.048 Q2241.22 346.683 2241.22 327.588 Q2241.22 308.387 2236.71 302.075 Q2232.26 295.763 2225.57 295.763 Q2219 295.763 2215.07 301.332 Q2210.14 308.44 2210.14 327.588 Z" fill="#000000" fill-rule="nonzero" fill-opacity="1" /></svg>
