<?xml version="1.0" encoding="utf-8"?>
<svg xmlns="http://www.w3.org/2000/svg" xmlns:xlink="http://www.w3.org/1999/xlink" width="600" height="400" viewBox="0 0 2400 1600">
<defs>
  <clipPath id="clip790">
    <rect x="0" y="0" width="2400" height="1600"/>
  </clipPath>
</defs>
<path clip-path="url(#clip790)" d="M0 1600 L2400 1600 L2400 8.88178e-14 L0 8.88178e-14  Z" fill="#ffffff" fill-rule="evenodd" fill-opacity="1"/>
<defs>
  <clipPath id="clip791">
    <rect x="480" y="0" width="1681" height="1600"/>
  </clipPath>
</defs>
<path clip-path="url(#clip790)" d="M443.484 1349.74 L2352.76 1349.74 L2352.76 47.2441 L443.484 47.2441  Z" fill="#ffffff" fill-rule="evenodd" fill-opacity="1"/>
<defs>
  <clipPath id="clip792">
    <rect x="443" y="47" width="1910" height="1303"/>
  </clipPath>
</defs>
<polyline clip-path="url(#clip790)" style="stroke:#000000; stroke-linecap:round; stroke-linejoin:round; stroke-width:4; stroke-opacity:1; fill:none" points="443.484,1349.74 2352.76,1349.74 "/>
<polyline clip-path="url(#clip790)" style="stroke:#000000; stroke-linecap:round; stroke-linejoin:round; stroke-width:2; stroke-opacity:0.5; fill:none" points="443.484,47.2441 2352.76,47.2441 "/>
<polyline clip-path="url(#clip790)" style="stroke:#000000; stroke-linecap:round; stroke-linejoin:round; stroke-width:4; stroke-opacity:1; fill:none" points="884.085,1349.74 884.085,1330.84 "/>
<polyline clip-path="url(#clip790)" style="stroke:#000000; stroke-linecap:round; stroke-linejoin:round; stroke-width:4; stroke-opacity:1; fill:none" points="1373.64,1349.74 1373.64,1330.84 "/>
<polyline clip-path="url(#clip790)" style="stroke:#000000; stroke-linecap:round; stroke-linejoin:round; stroke-width:4; stroke-opacity:1; fill:none" points="1863.2,1349.74 1863.2,1330.84 "/>
<polyline clip-path="url(#clip790)" style="stroke:#000000; stroke-linecap:round; stroke-linejoin:round; stroke-width:4; stroke-opacity:1; fill:none" points="2352.76,1349.74 2352.76,1330.84 "/>
<path clip-path="url(#clip790)" d="M860.826 1466.14 L851.278 1466.14 L851.278 1405.3 Q847.831 1408.59 842.208 1411.88 Q836.639 1415.17 832.183 1416.81 L832.183 1407.58 Q840.193 1403.82 846.186 1398.46 Q852.18 1393.1 854.673 1388.06 L860.826 1388.06 L860.826 1466.14 Z" fill="#000000" fill-rule="nonzero" fill-opacity="1" /><path clip-path="url(#clip790)" d="M885.279 1427.79 Q885.279 1414 888.09 1405.62 Q890.954 1397.18 896.524 1392.62 Q902.146 1388.06 910.633 1388.06 Q916.892 1388.06 921.613 1390.61 Q926.333 1393.1 929.41 1397.87 Q932.486 1402.6 934.237 1409.44 Q935.987 1416.23 935.987 1427.79 Q935.987 1441.48 933.176 1449.91 Q930.364 1458.29 924.742 1462.9 Q919.173 1467.47 910.633 1467.47 Q899.388 1467.47 892.97 1459.4 Q885.279 1449.7 885.279 1427.79 M895.091 1427.79 Q895.091 1446.94 899.547 1453.3 Q904.056 1459.62 910.633 1459.62 Q917.21 1459.62 921.666 1453.25 Q926.174 1446.89 926.174 1427.79 Q926.174 1408.59 921.666 1402.28 Q917.21 1395.96 910.527 1395.96 Q903.949 1395.96 900.024 1401.53 Q895.091 1408.64 895.091 1427.79 Z" fill="#000000" fill-rule="nonzero" fill-opacity="1" /><path clip-path="url(#clip790)" d="M1368.92 1456.96 L1368.92 1466.14 L1317.52 1466.14 Q1317.42 1462.69 1318.64 1459.51 Q1320.6 1454.26 1324.9 1449.17 Q1329.25 1444.07 1337.41 1437.39 Q1350.09 1426.99 1354.55 1420.95 Q1359 1414.85 1359 1409.44 Q1359 1403.76 1354.92 1399.89 Q1350.89 1395.96 1344.36 1395.96 Q1337.47 1395.96 1333.33 1400.1 Q1329.19 1404.24 1329.14 1411.56 L1319.33 1410.55 Q1320.33 1399.57 1326.91 1393.84 Q1333.49 1388.06 1344.57 1388.06 Q1355.77 1388.06 1362.29 1394.27 Q1368.82 1400.47 1368.82 1409.65 Q1368.82 1414.32 1366.91 1418.83 Q1365 1423.33 1360.54 1428.32 Q1356.14 1433.31 1345.85 1442.01 Q1337.26 1449.22 1334.82 1451.82 Q1332.38 1454.36 1330.78 1456.96 L1368.92 1456.96 Z" fill="#000000" fill-rule="nonzero" fill-opacity="1" /><path clip-path="url(#clip790)" d="M1379.16 1427.79 Q1379.16 1414 1381.97 1405.62 Q1384.83 1397.18 1390.4 1392.62 Q1396.03 1388.06 1404.51 1388.06 Q1410.77 1388.06 1415.49 1390.61 Q1420.21 1393.1 1423.29 1397.87 Q1426.37 1402.6 1428.12 1409.44 Q1429.87 1416.23 1429.87 1427.79 Q1429.87 1441.48 1427.06 1449.91 Q1424.24 1458.29 1418.62 1462.9 Q1413.05 1467.47 1404.51 1467.47 Q1393.27 1467.47 1386.85 1459.4 Q1379.16 1449.7 1379.16 1427.79 M1388.97 1427.79 Q1388.97 1446.94 1393.43 1453.3 Q1397.94 1459.62 1404.51 1459.62 Q1411.09 1459.62 1415.55 1453.25 Q1420.05 1446.89 1420.05 1427.79 Q1420.05 1408.59 1415.55 1402.28 Q1411.09 1395.96 1404.41 1395.96 Q1397.83 1395.96 1393.9 1401.53 Q1388.97 1408.64 1388.97 1427.79 Z" fill="#000000" fill-rule="nonzero" fill-opacity="1" /><path clip-path="url(#clip790)" d="M1807.66 1445.61 L1817.21 1444.34 Q1818.86 1452.45 1822.78 1456.06 Q1826.76 1459.62 1832.43 1459.62 Q1839.17 1459.62 1843.79 1454.95 Q1848.45 1450.28 1848.45 1443.38 Q1848.45 1436.81 1844.16 1432.56 Q1839.86 1428.27 1833.23 1428.27 Q1830.52 1428.27 1826.49 1429.33 L1827.55 1420.95 Q1828.51 1421.05 1829.09 1421.05 Q1835.19 1421.05 1840.07 1417.87 Q1844.95 1414.69 1844.95 1408.06 Q1844.95 1402.81 1841.4 1399.36 Q1837.84 1395.91 1832.22 1395.91 Q1826.65 1395.91 1822.94 1399.41 Q1819.23 1402.91 1818.17 1409.92 L1808.62 1408.22 Q1810.37 1398.62 1816.57 1393.37 Q1822.78 1388.06 1832.01 1388.06 Q1838.38 1388.06 1843.73 1390.82 Q1849.09 1393.52 1851.9 1398.25 Q1854.77 1402.97 1854.77 1408.27 Q1854.77 1413.31 1852.06 1417.45 Q1849.35 1421.58 1844.05 1424.02 Q1850.95 1425.62 1854.77 1430.65 Q1858.58 1435.64 1858.58 1443.17 Q1858.58 1453.36 1851.16 1460.46 Q1843.73 1467.52 1832.38 1467.52 Q1822.14 1467.52 1815.35 1461.42 Q1808.62 1455.32 1807.66 1445.61 Z" fill="#000000" fill-rule="nonzero" fill-opacity="1" /><path clip-path="url(#clip790)" d="M1868.03 1427.79 Q1868.03 1414 1870.84 1405.62 Q1873.7 1397.18 1879.27 1392.62 Q1884.89 1388.06 1893.38 1388.06 Q1899.64 1388.06 1904.36 1390.61 Q1909.08 1393.1 1912.16 1397.87 Q1915.23 1402.6 1916.98 1409.44 Q1918.73 1416.23 1918.73 1427.79 Q1918.73 1441.48 1915.92 1449.91 Q1913.11 1458.29 1907.49 1462.9 Q1901.92 1467.47 1893.38 1467.47 Q1882.14 1467.47 1875.72 1459.4 Q1868.03 1449.7 1868.03 1427.79 M1877.84 1427.79 Q1877.84 1446.94 1882.29 1453.3 Q1886.8 1459.62 1893.38 1459.62 Q1899.96 1459.62 1904.41 1453.25 Q1908.92 1446.89 1908.92 1427.79 Q1908.92 1408.59 1904.41 1402.28 Q1899.96 1395.96 1893.27 1395.96 Q1886.7 1395.96 1882.77 1401.53 Q1877.84 1408.64 1877.84 1427.79 Z" fill="#000000" fill-rule="nonzero" fill-opacity="1" /><path clip-path="url(#clip790)" d="M2329.36 1466.14 L2329.36 1447.52 L2295.63 1447.52 L2295.63 1438.77 L2331.11 1388.38 L2338.91 1388.38 L2338.91 1438.77 L2349.41 1438.77 L2349.41 1447.52 L2338.91 1447.52 L2338.91 1466.14 L2329.36 1466.14 M2329.36 1438.77 L2329.36 1403.71 L2305.02 1438.77 L2329.36 1438.77 Z" fill="#000000" fill-rule="nonzero" fill-opacity="1" /><path clip-path="url(#clip790)" d="M2359.17 1427.79 Q2359.17 1414 2361.99 1405.62 Q2364.85 1397.18 2370.42 1392.62 Q2376.04 1388.06 2384.53 1388.06 Q2390.79 1388.06 2395.51 1390.61 Q2400.23 1393.1 2403.31 1397.87 Q2406.38 1402.6 2408.13 1409.44 Q2409.88 1416.23 2409.88 1427.79 Q2409.88 1441.48 2407.07 1449.91 Q2404.26 1458.29 2398.64 1462.9 Q2393.07 1467.47 2384.53 1467.47 Q2373.28 1467.47 2366.87 1459.4 Q2359.17 1449.7 2359.17 1427.79 M2368.99 1427.79 Q2368.99 1446.94 2373.44 1453.3 Q2377.95 1459.62 2384.53 1459.62 Q2391.11 1459.62 2395.56 1453.25 Q2400.07 1446.89 2400.07 1427.79 Q2400.07 1408.59 2395.56 1402.28 Q2391.11 1395.96 2384.42 1395.96 Q2377.84 1395.96 2373.92 1401.53 Q2368.99 1408.64 2368.99 1427.79 Z" fill="#000000" fill-rule="nonzero" fill-opacity="1" /><path clip-path="url(#clip790)" d="M1297.55 1577.55 L1307.42 1578.77 Q1305.08 1587.42 1298.77 1592.19 Q1292.46 1596.96 1282.65 1596.96 Q1270.29 1596.96 1263.02 1589.38 Q1255.81 1581.74 1255.81 1568 Q1255.81 1553.79 1263.13 1545.94 Q1270.45 1538.09 1282.12 1538.09 Q1293.41 1538.09 1300.58 1545.78 Q1307.74 1553.47 1307.74 1567.42 Q1307.74 1568.27 1307.68 1569.97 L1265.67 1569.97 Q1266.2 1579.25 1270.92 1584.18 Q1275.65 1589.11 1282.7 1589.11 Q1287.95 1589.11 1291.66 1586.36 Q1295.38 1583.6 1297.55 1577.55 M1266.2 1562.12 L1297.66 1562.12 Q1297.02 1555.01 1294.05 1551.45 Q1289.49 1545.94 1282.22 1545.94 Q1275.65 1545.94 1271.14 1550.34 Q1266.68 1554.74 1266.2 1562.12 Z" fill="#000000" fill-rule="nonzero" fill-opacity="1" /><path clip-path="url(#clip790)" d="M1319.41 1617.28 L1319.41 1539.36 L1328.1 1539.36 L1328.1 1546.68 Q1331.18 1542.38 1335.05 1540.26 Q1338.92 1538.09 1344.44 1538.09 Q1351.65 1538.09 1357.17 1541.8 Q1362.69 1545.51 1365.5 1552.3 Q1368.31 1559.04 1368.31 1567.1 Q1368.31 1575.75 1365.18 1582.7 Q1362.1 1589.59 1356.16 1593.3 Q1350.28 1596.96 1343.75 1596.96 Q1338.98 1596.96 1335.16 1594.95 Q1331.39 1592.93 1328.95 1589.86 L1328.95 1617.28 L1319.41 1617.28 M1328.05 1567.84 Q1328.05 1578.72 1332.45 1583.92 Q1336.86 1589.11 1343.12 1589.11 Q1349.48 1589.11 1353.99 1583.76 Q1358.55 1578.35 1358.55 1567.05 Q1358.55 1556.28 1354.09 1550.92 Q1349.69 1545.57 1343.54 1545.57 Q1337.44 1545.57 1332.72 1551.3 Q1328.05 1556.97 1328.05 1567.84 Z" fill="#000000" fill-rule="nonzero" fill-opacity="1" /><path clip-path="url(#clip790)" d="M1376.27 1567.53 Q1376.27 1551.88 1384.97 1544.35 Q1392.23 1538.09 1402.68 1538.09 Q1414.3 1538.09 1421.67 1545.73 Q1429.04 1553.31 1429.04 1566.73 Q1429.04 1577.6 1425.75 1583.86 Q1422.52 1590.07 1416.26 1593.52 Q1410.05 1596.96 1402.68 1596.96 Q1390.85 1596.96 1383.53 1589.38 Q1376.27 1581.79 1376.27 1567.53 M1386.08 1567.53 Q1386.08 1578.35 1390.8 1583.76 Q1395.52 1589.11 1402.68 1589.11 Q1409.79 1589.11 1414.51 1583.7 Q1419.23 1578.29 1419.23 1567.21 Q1419.23 1556.76 1414.46 1551.4 Q1409.74 1545.99 1402.68 1545.99 Q1395.52 1545.99 1390.8 1551.35 Q1386.08 1556.71 1386.08 1567.53 Z" fill="#000000" fill-rule="nonzero" fill-opacity="1" /><path clip-path="url(#clip790)" d="M1476.99 1575.06 L1486.38 1576.28 Q1484.84 1585.99 1478.48 1591.5 Q1472.17 1596.96 1462.94 1596.96 Q1451.37 1596.96 1444.32 1589.43 Q1437.32 1581.85 1437.32 1567.74 Q1437.32 1558.62 1440.34 1551.77 Q1443.36 1544.93 1449.52 1541.54 Q1455.72 1538.09 1462.99 1538.09 Q1472.17 1538.09 1478 1542.76 Q1483.84 1547.37 1485.48 1555.91 L1476.2 1557.34 Q1474.87 1551.67 1471.48 1548.8 Q1468.14 1545.94 1463.36 1545.94 Q1456.15 1545.94 1451.64 1551.14 Q1447.13 1556.28 1447.13 1567.47 Q1447.13 1578.82 1451.48 1583.97 Q1455.83 1589.11 1462.83 1589.11 Q1468.45 1589.11 1472.22 1585.67 Q1475.99 1582.22 1476.99 1575.06 Z" fill="#000000" fill-rule="nonzero" fill-opacity="1" /><path clip-path="url(#clip790)" d="M1494.55 1595.69 L1494.55 1517.93 L1504.1 1517.93 L1504.1 1545.83 Q1510.78 1538.09 1520.97 1538.09 Q1527.22 1538.09 1531.84 1540.58 Q1536.45 1543.02 1538.42 1547.37 Q1540.43 1551.72 1540.43 1559.99 L1540.43 1595.69 L1530.88 1595.69 L1530.88 1559.99 Q1530.88 1552.83 1527.76 1549.6 Q1524.68 1546.31 1519 1546.31 Q1514.76 1546.31 1510.99 1548.54 Q1507.28 1550.71 1505.69 1554.48 Q1504.1 1558.24 1504.1 1564.87 L1504.1 1595.69 L1494.55 1595.69 Z" fill="#000000" fill-rule="nonzero" fill-opacity="1" /><polyline clip-path="url(#clip790)" style="stroke:#000000; stroke-linecap:round; stroke-linejoin:round; stroke-width:4; stroke-opacity:1; fill:none" points="443.484,1349.74 443.484,47.2441 "/>
<polyline clip-path="url(#clip790)" style="stroke:#000000; stroke-linecap:round; stroke-linejoin:round; stroke-width:2; stroke-opacity:0.5; fill:none" points="2352.76,1349.74 2352.76,47.2441 "/>
<polyline clip-path="url(#clip790)" style="stroke:#000000; stroke-linecap:round; stroke-linejoin:round; stroke-width:4; stroke-opacity:1; fill:none" points="443.484,1103.09 462.381,1103.09 "/>
<polyline clip-path="url(#clip790)" style="stroke:#000000; stroke-linecap:round; stroke-linejoin:round; stroke-width:4; stroke-opacity:1; fill:none" points="443.484,835.335 462.381,835.335 "/>
<polyline clip-path="url(#clip790)" style="stroke:#000000; stroke-linecap:round; stroke-linejoin:round; stroke-width:4; stroke-opacity:1; fill:none" points="443.484,567.583 462.381,567.583 "/>
<polyline clip-path="url(#clip790)" style="stroke:#000000; stroke-linecap:round; stroke-linejoin:round; stroke-width:4; stroke-opacity:1; fill:none" points="443.484,299.83 462.381,299.83 "/>
<path clip-path="url(#clip790)" d="M144.5 1103.62 Q144.5 1089.83 147.311 1081.45 Q150.176 1073.01 155.745 1068.45 Q161.368 1063.89 169.854 1063.89 Q176.113 1063.89 180.834 1066.44 Q185.555 1068.93 188.631 1073.7 Q191.708 1078.42 193.458 1085.27 Q195.209 1092.05 195.209 1103.62 Q195.209 1117.3 192.397 1125.74 Q189.586 1134.12 183.964 1138.73 Q178.394 1143.29 169.854 1143.29 Q158.609 1143.29 152.191 1135.23 Q144.5 1125.52 144.5 1103.62 M154.313 1103.62 Q154.313 1122.77 158.769 1129.13 Q163.277 1135.44 169.854 1135.44 Q176.432 1135.44 180.887 1129.08 Q185.396 1122.71 185.396 1103.62 Q185.396 1084.42 180.887 1078.1 Q176.432 1071.79 169.748 1071.79 Q163.171 1071.79 159.246 1077.36 Q154.313 1084.47 154.313 1103.62 Z" fill="#000000" fill-rule="nonzero" fill-opacity="1" /><path clip-path="url(#clip790)" d="M210.273 1141.97 L210.273 1131.09 L221.146 1131.09 L221.146 1141.97 L210.273 1141.97 Z" fill="#000000" fill-rule="nonzero" fill-opacity="1" /><path clip-path="url(#clip790)" d="M235.096 1103.62 Q235.096 1089.83 237.908 1081.45 Q240.772 1073.01 246.341 1068.45 Q251.964 1063.89 260.451 1063.89 Q266.71 1063.89 271.43 1066.44 Q276.151 1068.93 279.228 1073.7 Q282.304 1078.42 284.054 1085.27 Q285.805 1092.05 285.805 1103.62 Q285.805 1117.3 282.994 1125.74 Q280.182 1134.12 274.56 1138.73 Q268.99 1143.29 260.451 1143.29 Q249.206 1143.29 242.788 1135.23 Q235.096 1125.52 235.096 1103.62 M244.909 1103.62 Q244.909 1122.77 249.365 1129.13 Q253.873 1135.44 260.451 1135.44 Q267.028 1135.44 271.483 1129.08 Q275.992 1122.71 275.992 1103.62 Q275.992 1084.42 271.483 1078.1 Q267.028 1071.79 260.345 1071.79 Q253.767 1071.79 249.842 1077.36 Q244.909 1084.47 244.909 1103.62 Z" fill="#000000" fill-rule="nonzero" fill-opacity="1" /><path clip-path="url(#clip790)" d="M296.148 1074.39 L296.148 1065.22 L346.485 1065.22 L346.485 1072.64 Q339.059 1080.54 331.739 1093.65 Q324.473 1106.75 320.494 1120.59 Q317.63 1130.35 316.835 1141.97 L307.022 1141.97 Q307.181 1132.79 310.629 1119.8 Q314.076 1106.8 320.494 1094.76 Q326.966 1082.67 334.232 1074.39 L296.148 1074.39 Z" fill="#000000" fill-rule="nonzero" fill-opacity="1" /><path clip-path="url(#clip790)" d="M355.927 1121.6 L365.952 1120.75 Q367.066 1128.07 371.097 1131.78 Q375.181 1135.44 380.91 1135.44 Q387.805 1135.44 392.579 1130.24 Q397.353 1125.05 397.353 1116.45 Q397.353 1108.29 392.738 1103.56 Q388.176 1098.84 380.751 1098.84 Q376.136 1098.84 372.423 1100.97 Q368.71 1103.03 366.588 1106.38 L357.624 1105.21 L365.156 1065.27 L403.824 1065.27 L403.824 1074.39 L372.794 1074.39 L368.604 1095.29 Q375.605 1090.41 383.297 1090.41 Q393.481 1090.41 400.482 1097.46 Q407.484 1104.52 407.484 1115.61 Q407.484 1126.16 401.331 1133.85 Q393.852 1143.29 380.91 1143.29 Q370.301 1143.29 363.565 1137.35 Q356.881 1131.41 355.927 1121.6 Z" fill="#000000" fill-rule="nonzero" fill-opacity="1" /><path clip-path="url(#clip790)" d="M145.349 835.865 Q145.349 822.074 148.16 813.694 Q151.024 805.26 156.594 800.698 Q162.216 796.137 170.703 796.137 Q176.962 796.137 181.683 798.683 Q186.404 801.176 189.48 805.95 Q192.556 810.67 194.307 817.513 Q196.057 824.302 196.057 835.865 Q196.057 849.55 193.246 857.984 Q190.435 866.365 184.812 870.979 Q179.243 875.541 170.703 875.541 Q159.458 875.541 153.04 867.479 Q145.349 857.772 145.349 835.865 M155.162 835.865 Q155.162 855.014 159.617 861.379 Q164.126 867.691 170.703 867.691 Q177.28 867.691 181.736 861.326 Q186.244 854.961 186.244 835.865 Q186.244 816.664 181.736 810.352 Q177.28 804.04 170.597 804.04 Q164.02 804.04 160.095 809.609 Q155.162 816.717 155.162 835.865 Z" fill="#000000" fill-rule="nonzero" fill-opacity="1" /><path clip-path="url(#clip790)" d="M211.121 874.215 L211.121 863.341 L221.995 863.341 L221.995 874.215 L211.121 874.215 Z" fill="#000000" fill-rule="nonzero" fill-opacity="1" /><path clip-path="url(#clip790)" d="M271.908 874.215 L262.36 874.215 L262.36 813.375 Q258.912 816.664 253.29 819.953 Q247.72 823.241 243.265 824.886 L243.265 815.656 Q251.274 811.89 257.268 806.533 Q263.262 801.176 265.755 796.137 L271.908 796.137 L271.908 874.215 Z" fill="#000000" fill-rule="nonzero" fill-opacity="1" /><path clip-path="url(#clip790)" d="M296.36 835.865 Q296.36 822.074 299.171 813.694 Q302.036 805.26 307.605 800.698 Q313.228 796.137 321.714 796.137 Q327.973 796.137 332.694 798.683 Q337.415 801.176 340.491 805.95 Q343.568 810.67 345.318 817.513 Q347.069 824.302 347.069 835.865 Q347.069 849.55 344.257 857.984 Q341.446 866.365 335.824 870.979 Q330.254 875.541 321.714 875.541 Q310.469 875.541 304.051 867.479 Q296.36 857.772 296.36 835.865 M306.173 835.865 Q306.173 855.014 310.629 861.379 Q315.137 867.691 321.714 867.691 Q328.292 867.691 332.747 861.326 Q337.256 854.961 337.256 835.865 Q337.256 816.664 332.747 810.352 Q328.292 804.04 321.608 804.04 Q315.031 804.04 311.106 809.609 Q306.173 816.717 306.173 835.865 Z" fill="#000000" fill-rule="nonzero" fill-opacity="1" /><path clip-path="url(#clip790)" d="M356.775 835.865 Q356.775 822.074 359.587 813.694 Q362.451 805.26 368.02 800.698 Q373.643 796.137 382.13 796.137 Q388.389 796.137 393.109 798.683 Q397.83 801.176 400.907 805.95 Q403.983 810.67 405.733 817.513 Q407.484 824.302 407.484 835.865 Q407.484 849.55 404.673 857.984 Q401.861 866.365 396.239 870.979 Q390.669 875.541 382.13 875.541 Q370.885 875.541 364.467 867.479 Q356.775 857.772 356.775 835.865 M366.588 835.865 Q366.588 855.014 371.044 861.379 Q375.552 867.691 382.13 867.691 Q388.707 867.691 393.162 861.326 Q397.671 854.961 397.671 835.865 Q397.671 816.664 393.162 810.352 Q388.707 804.04 382.024 804.04 Q375.446 804.04 371.521 809.609 Q366.588 816.717 366.588 835.865 Z" fill="#000000" fill-rule="nonzero" fill-opacity="1" /><path clip-path="url(#clip790)" d="M144.5 568.113 Q144.5 554.322 147.311 545.941 Q150.176 537.508 155.745 532.946 Q161.368 528.384 169.854 528.384 Q176.113 528.384 180.834 530.93 Q185.555 533.423 188.631 538.197 Q191.708 542.918 193.458 549.76 Q195.209 556.55 195.209 568.113 Q195.209 581.798 192.397 590.232 Q189.586 598.612 183.964 603.227 Q178.394 607.789 169.854 607.789 Q158.609 607.789 152.191 599.726 Q144.5 590.02 144.5 568.113 M154.313 568.113 Q154.313 587.261 158.769 593.626 Q163.277 599.938 169.854 599.938 Q176.432 599.938 180.887 593.573 Q185.396 587.208 185.396 568.113 Q185.396 548.912 180.887 542.6 Q176.432 536.288 169.748 536.288 Q163.171 536.288 159.246 541.857 Q154.313 548.965 154.313 568.113 Z" fill="#000000" fill-rule="nonzero" fill-opacity="1" /><path clip-path="url(#clip790)" d="M210.273 606.463 L210.273 595.589 L221.146 595.589 L221.146 606.463 L210.273 606.463 Z" fill="#000000" fill-rule="nonzero" fill-opacity="1" /><path clip-path="url(#clip790)" d="M271.059 606.463 L261.511 606.463 L261.511 545.623 Q258.064 548.912 252.441 552.2 Q246.872 555.489 242.416 557.133 L242.416 547.904 Q250.426 544.138 256.419 538.781 Q262.413 533.423 264.906 528.384 L271.059 528.384 L271.059 606.463 Z" fill="#000000" fill-rule="nonzero" fill-opacity="1" /><path clip-path="url(#clip790)" d="M345.69 597.286 L345.69 606.463 L294.292 606.463 Q294.186 603.015 295.405 599.832 Q297.368 594.581 301.664 589.489 Q306.014 584.397 314.182 577.714 Q326.86 567.317 331.315 561.271 Q335.771 555.171 335.771 549.76 Q335.771 544.085 331.686 540.213 Q327.655 536.288 321.131 536.288 Q314.235 536.288 310.098 540.425 Q305.961 544.562 305.908 551.882 L296.095 550.874 Q297.103 539.895 303.68 534.166 Q310.257 528.384 321.343 528.384 Q332.535 528.384 339.059 534.59 Q345.583 540.796 345.583 549.973 Q345.583 554.64 343.674 559.149 Q341.764 563.657 337.309 568.643 Q332.906 573.629 322.616 582.328 Q314.023 589.542 311.583 592.141 Q309.143 594.687 307.552 597.286 L345.69 597.286 Z" fill="#000000" fill-rule="nonzero" fill-opacity="1" /><path clip-path="url(#clip790)" d="M355.927 586.094 L365.952 585.246 Q367.066 592.566 371.097 596.278 Q375.181 599.938 380.91 599.938 Q387.805 599.938 392.579 594.74 Q397.353 589.542 397.353 580.949 Q397.353 572.781 392.738 568.06 Q388.176 563.339 380.751 563.339 Q376.136 563.339 372.423 565.461 Q368.71 567.53 366.588 570.871 L357.624 569.704 L365.156 529.763 L403.824 529.763 L403.824 538.887 L372.794 538.887 L368.604 559.785 Q375.605 554.906 383.297 554.906 Q393.481 554.906 400.482 561.96 Q407.484 569.015 407.484 580.101 Q407.484 590.656 401.331 598.347 Q393.852 607.789 380.91 607.789 Q370.301 607.789 363.565 601.848 Q356.881 595.907 355.927 586.094 Z" fill="#000000" fill-rule="nonzero" fill-opacity="1" /><path clip-path="url(#clip790)" d="M145.349 300.361 Q145.349 286.57 148.16 278.189 Q151.024 269.755 156.594 265.194 Q162.216 260.632 170.703 260.632 Q176.962 260.632 181.683 263.178 Q186.404 265.671 189.48 270.445 Q192.556 275.166 194.307 282.008 Q196.057 288.797 196.057 300.361 Q196.057 314.046 193.246 322.479 Q190.435 330.86 184.812 335.475 Q179.243 340.036 170.703 340.036 Q159.458 340.036 153.04 331.974 Q145.349 322.267 145.349 300.361 M155.162 300.361 Q155.162 319.509 159.617 325.874 Q164.126 332.186 170.703 332.186 Q177.28 332.186 181.736 325.821 Q186.244 319.456 186.244 300.361 Q186.244 281.159 181.736 274.847 Q177.28 268.535 170.597 268.535 Q164.02 268.535 160.095 274.105 Q155.162 281.212 155.162 300.361 Z" fill="#000000" fill-rule="nonzero" fill-opacity="1" /><path clip-path="url(#clip790)" d="M211.121 338.71 L211.121 327.837 L221.995 327.837 L221.995 338.71 L211.121 338.71 Z" fill="#000000" fill-rule="nonzero" fill-opacity="1" /><path clip-path="url(#clip790)" d="M271.908 338.71 L262.36 338.71 L262.36 277.871 Q258.912 281.159 253.29 284.448 Q247.72 287.737 243.265 289.381 L243.265 280.152 Q251.274 276.386 257.268 271.028 Q263.262 265.671 265.755 260.632 L271.908 260.632 L271.908 338.71 Z" fill="#000000" fill-rule="nonzero" fill-opacity="1" /><path clip-path="url(#clip790)" d="M296.36 318.342 L306.385 317.493 Q307.499 324.813 311.53 328.526 Q315.615 332.186 321.343 332.186 Q328.239 332.186 333.012 326.988 Q337.786 321.79 337.786 313.197 Q337.786 305.028 333.172 300.308 Q328.61 295.587 321.184 295.587 Q316.569 295.587 312.856 297.709 Q309.143 299.777 307.022 303.119 L298.058 301.952 L305.59 262.011 L344.257 262.011 L344.257 271.134 L313.228 271.134 L309.037 292.033 Q316.039 287.153 323.73 287.153 Q333.914 287.153 340.916 294.208 Q347.917 301.262 347.917 312.348 Q347.917 322.904 341.764 330.595 Q334.285 340.036 321.343 340.036 Q310.735 340.036 303.998 334.096 Q297.315 328.155 296.36 318.342 Z" fill="#000000" fill-rule="nonzero" fill-opacity="1" /><path clip-path="url(#clip790)" d="M356.775 300.361 Q356.775 286.57 359.587 278.189 Q362.451 269.755 368.02 265.194 Q373.643 260.632 382.13 260.632 Q388.389 260.632 393.109 263.178 Q397.83 265.671 400.907 270.445 Q403.983 275.166 405.733 282.008 Q407.484 288.797 407.484 300.361 Q407.484 314.046 404.673 322.479 Q401.861 330.86 396.239 335.475 Q390.669 340.036 382.13 340.036 Q370.885 340.036 364.467 331.974 Q356.775 322.267 356.775 300.361 M366.588 300.361 Q366.588 319.509 371.044 325.874 Q375.552 332.186 382.13 332.186 Q388.707 332.186 393.162 325.821 Q397.671 319.456 397.671 300.361 Q397.671 281.159 393.162 274.847 Q388.707 268.535 382.024 268.535 Q375.446 268.535 371.521 274.105 Q366.588 281.212 366.588 300.361 Z" fill="#000000" fill-rule="nonzero" fill-opacity="1" /><path clip-path="url(#clip790)" d="M85.1722 789.513 L7.41216 789.513 L7.41216 779.965 L85.1722 779.965 L85.1722 789.513 Z" fill="#000000" fill-rule="nonzero" fill-opacity="1" /><path clip-path="url(#clip790)" d="M57.0067 768.72 Q41.3592 768.72 33.8272 760.021 Q27.5682 752.754 27.5682 742.305 Q27.5682 730.689 35.2063 723.316 Q42.7914 715.943 56.2111 715.943 Q67.0847 715.943 73.3437 719.232 Q79.5497 722.467 82.9974 728.726 Q86.4452 734.932 86.4452 742.305 Q86.4452 754.133 78.8601 761.453 Q71.2751 768.72 57.0067 768.72 M57.0067 758.907 Q67.8273 758.907 73.2376 754.186 Q78.5949 749.466 78.5949 742.305 Q78.5949 735.197 73.1846 730.476 Q67.7743 725.756 56.6884 725.756 Q46.2391 725.756 40.8818 730.53 Q35.4715 735.25 35.4715 742.305 Q35.4715 749.466 40.8288 754.186 Q46.1861 758.907 57.0067 758.907 Z" fill="#000000" fill-rule="nonzero" fill-opacity="1" /><path clip-path="url(#clip790)" d="M68.3578 708.57 L66.8726 699.128 Q72.5481 698.333 75.5715 694.726 Q78.5949 691.066 78.5949 684.542 Q78.5949 677.965 75.9428 674.782 Q73.2376 671.6 69.6308 671.6 Q66.3952 671.6 64.5387 674.411 Q63.2657 676.373 61.3031 684.171 Q58.651 694.673 56.7415 698.757 Q54.7789 702.788 51.3842 704.91 Q47.9365 706.979 43.7992 706.979 Q40.0332 706.979 36.8506 705.281 Q33.615 703.531 31.4934 700.561 Q29.849 698.333 28.7352 694.514 Q27.5682 690.642 27.5682 686.239 Q27.5682 679.609 29.4778 674.623 Q31.3873 669.584 34.6759 667.197 Q37.9115 664.81 43.3748 663.908 L44.6478 673.244 Q40.2984 673.88 37.8584 676.957 Q35.4185 679.98 35.4185 685.55 Q35.4185 692.127 37.5932 694.938 Q39.768 697.749 42.6853 697.749 Q44.5418 697.749 46.0269 696.582 Q47.5652 695.416 48.573 692.923 Q49.1034 691.49 51.0129 684.489 Q53.7181 674.358 55.4685 670.38 Q57.1658 666.348 60.4544 664.068 Q63.7431 661.787 68.623 661.787 Q73.3968 661.787 77.6402 664.598 Q81.8305 667.356 84.1644 672.607 Q86.4452 677.859 86.4452 684.489 Q86.4452 695.469 81.8835 701.25 Q77.3219 706.979 68.3578 708.57 Z" fill="#000000" fill-rule="nonzero" fill-opacity="1" /><path clip-path="url(#clip790)" d="M68.3578 654.255 L66.8726 644.813 Q72.5481 644.018 75.5715 640.411 Q78.5949 636.751 78.5949 630.227 Q78.5949 623.649 75.9428 620.467 Q73.2376 617.284 69.6308 617.284 Q66.3952 617.284 64.5387 620.095 Q63.2657 622.058 61.3031 629.855 Q58.651 640.358 56.7415 644.442 Q54.7789 648.473 51.3842 650.595 Q47.9365 652.663 43.7992 652.663 Q40.0332 652.663 36.8506 650.966 Q33.615 649.216 31.4934 646.245 Q29.849 644.018 28.7352 640.198 Q27.5682 636.326 27.5682 631.924 Q27.5682 625.294 29.4778 620.308 Q31.3873 615.269 34.6759 612.882 Q37.9115 610.495 43.3748 609.593 L44.6478 618.929 Q40.2984 619.565 37.8584 622.641 Q35.4185 625.665 35.4185 631.234 Q35.4185 637.812 37.5932 640.623 Q39.768 643.434 42.6853 643.434 Q44.5418 643.434 46.0269 642.267 Q47.5652 641.1 48.573 638.607 Q49.1034 637.175 51.0129 630.173 Q53.7181 620.042 55.4685 616.064 Q57.1658 612.033 60.4544 609.752 Q63.7431 607.471 68.623 607.471 Q73.3968 607.471 77.6402 610.283 Q81.8305 613.041 84.1644 618.292 Q86.4452 623.543 86.4452 630.173 Q86.4452 641.153 81.8835 646.935 Q77.3219 652.663 68.3578 654.255 Z" fill="#000000" fill-rule="nonzero" fill-opacity="1" /><polyline clip-path="url(#clip792)" style="stroke:#009af9; stroke-linecap:round; stroke-linejoin:round; stroke-width:8; stroke-opacity:1; fill:none" points="443.484,47.2441 492.44,495.047 541.395,611.527 590.351,661.57 639.307,690.907 688.262,712.367 737.218,730.532 786.174,747.234 835.129,763.233 884.085,778.888 933.041,794.365 981.996,809.693 1030.95,824.941 1079.91,840.09 1128.86,855.127 1177.82,870.047 1226.77,884.843 1275.73,899.477 1324.69,913.931 1373.64,928.162 1422.6,942.167 1471.55,955.897 1520.51,969.369 1569.46,982.523 1618.42,995.343 1667.38,1007.78 1716.33,1019.82 1765.29,1031.46 1814.24,1042.72 1863.2,1053.59 1912.15,1064.05 1961.11,1074.12 2010.07,1083.79 2059.02,1093.07 2107.98,1101.96 2156.93,1110.5 2205.89,1118.68 2254.84,1126.53 2303.8,1134.06 2352.76,1141.28 "/>
<circle clip-path="url(#clip792)" cx="443.484" cy="47.2441" r="3.6" fill="#009af9" fill-rule="evenodd" fill-opacity="1" stroke="#000000" stroke-opacity="1" stroke-width="3.2"/>
<circle clip-path="url(#clip792)" cx="492.44" cy="495.047" r="3.6" fill="#009af9" fill-rule="evenodd" fill-opacity="1" stroke="#000000" stroke-opacity="1" stroke-width="3.2"/>
<circle clip-path="url(#clip792)" cx="541.395" cy="611.527" r="3.6" fill="#009af9" fill-rule="evenodd" fill-opacity="1" stroke="#000000" stroke-opacity="1" stroke-width="3.2"/>
<circle clip-path="url(#clip792)" cx="590.351" cy="661.57" r="3.6" fill="#009af9" fill-rule="evenodd" fill-opacity="1" stroke="#000000" stroke-opacity="1" stroke-width="3.2"/>
<circle clip-path="url(#clip792)" cx="639.307" cy="690.907" r="3.6" fill="#009af9" fill-rule="evenodd" fill-opacity="1" stroke="#000000" stroke-opacity="1" stroke-width="3.2"/>
<circle clip-path="url(#clip792)" cx="688.262" cy="712.367" r="3.6" fill="#009af9" fill-rule="evenodd" fill-opacity="1" stroke="#000000" stroke-opacity="1" stroke-width="3.2"/>
<circle clip-path="url(#clip792)" cx="737.218" cy="730.532" r="3.6" fill="#009af9" fill-rule="evenodd" fill-opacity="1" stroke="#000000" stroke-opacity="1" stroke-width="3.2"/>
<circle clip-path="url(#clip792)" cx="786.174" cy="747.234" r="3.6" fill="#009af9" fill-rule="evenodd" fill-opacity="1" stroke="#000000" stroke-opacity="1" stroke-width="3.2"/>
<circle clip-path="url(#clip792)" cx="835.129" cy="763.233" r="3.6" fill="#009af9" fill-rule="evenodd" fill-opacity="1" stroke="#000000" stroke-opacity="1" stroke-width="3.2"/>
<circle clip-path="url(#clip792)" cx="884.085" cy="778.888" r="3.6" fill="#009af9" fill-rule="evenodd" fill-opacity="1" stroke="#000000" stroke-opacity="1" stroke-width="3.2"/>
<circle clip-path="url(#clip792)" cx="933.041" cy="794.365" r="3.6" fill="#009af9" fill-rule="evenodd" fill-opacity="1" stroke="#000000" stroke-opacity="1" stroke-width="3.2"/>
<circle clip-path="url(#clip792)" cx="981.996" cy="809.693" r="3.6" fill="#009af9" fill-rule="evenodd" fill-opacity="1" stroke="#000000" stroke-opacity="1" stroke-width="3.2"/>
<circle clip-path="url(#clip792)" cx="1030.95" cy="824.941" r="3.6" fill="#009af9" fill-rule="evenodd" fill-opacity="1" stroke="#000000" stroke-opacity="1" stroke-width="3.2"/>
<circle clip-path="url(#clip792)" cx="1079.91" cy="840.09" r="3.6" fill="#009af9" fill-rule="evenodd" fill-opacity="1" stroke="#000000" stroke-opacity="1" stroke-width="3.2"/>
<circle clip-path="url(#clip792)" cx="1128.86" cy="855.127" r="3.6" fill="#009af9" fill-rule="evenodd" fill-opacity="1" stroke="#000000" stroke-opacity="1" stroke-width="3.2"/>
<circle clip-path="url(#clip792)" cx="1177.82" cy="870.047" r="3.6" fill="#009af9" fill-rule="evenodd" fill-opacity="1" stroke="#000000" stroke-opacity="1" stroke-width="3.2"/>
<circle clip-path="url(#clip792)" cx="1226.77" cy="884.843" r="3.6" fill="#009af9" fill-rule="evenodd" fill-opacity="1" stroke="#000000" stroke-opacity="1" stroke-width="3.2"/>
<circle clip-path="url(#clip792)" cx="1275.73" cy="899.477" r="3.6" fill="#009af9" fill-rule="evenodd" fill-opacity="1" stroke="#000000" stroke-opacity="1" stroke-width="3.2"/>
<circle clip-path="url(#clip792)" cx="1324.69" cy="913.931" r="3.6" fill="#009af9" fill-rule="evenodd" fill-opacity="1" stroke="#000000" stroke-opacity="1" stroke-width="3.2"/>
<circle clip-path="url(#clip792)" cx="1373.64" cy="928.162" r="3.6" fill="#009af9" fill-rule="evenodd" fill-opacity="1" stroke="#000000" stroke-opacity="1" stroke-width="3.2"/>
<circle clip-path="url(#clip792)" cx="1422.6" cy="942.167" r="3.6" fill="#009af9" fill-rule="evenodd" fill-opacity="1" stroke="#000000" stroke-opacity="1" stroke-width="3.2"/>
<circle clip-path="url(#clip792)" cx="1471.55" cy="955.897" r="3.6" fill="#009af9" fill-rule="evenodd" fill-opacity="1" stroke="#000000" stroke-opacity="1" stroke-width="3.2"/>
<circle clip-path="url(#clip792)" cx="1520.51" cy="969.369" r="3.6" fill="#009af9" fill-rule="evenodd" fill-opacity="1" stroke="#000000" stroke-opacity="1" stroke-width="3.2"/>
<circle clip-path="url(#clip792)" cx="1569.46" cy="982.523" r="3.6" fill="#009af9" fill-rule="evenodd" fill-opacity="1" stroke="#000000" stroke-opacity="1" stroke-width="3.2"/>
<circle clip-path="url(#clip792)" cx="1618.42" cy="995.343" r="3.6" fill="#009af9" fill-rule="evenodd" fill-opacity="1" stroke="#000000" stroke-opacity="1" stroke-width="3.2"/>
<circle clip-path="url(#clip792)" cx="1667.38" cy="1007.78" r="3.6" fill="#009af9" fill-rule="evenodd" fill-opacity="1" stroke="#000000" stroke-opacity="1" stroke-width="3.2"/>
<circle clip-path="url(#clip792)" cx="1716.33" cy="1019.82" r="3.6" fill="#009af9" fill-rule="evenodd" fill-opacity="1" stroke="#000000" stroke-opacity="1" stroke-width="3.2"/>
<circle clip-path="url(#clip792)" cx="1765.29" cy="1031.46" r="3.6" fill="#009af9" fill-rule="evenodd" fill-opacity="1" stroke="#000000" stroke-opacity="1" stroke-width="3.2"/>
<circle clip-path="url(#clip792)" cx="1814.24" cy="1042.72" r="3.6" fill="#009af9" fill-rule="evenodd" fill-opacity="1" stroke="#000000" stroke-opacity="1" stroke-width="3.2"/>
<circle clip-path="url(#clip792)" cx="1863.2" cy="1053.59" r="3.6" fill="#009af9" fill-rule="evenodd" fill-opacity="1" stroke="#000000" stroke-opacity="1" stroke-width="3.2"/>
<circle clip-path="url(#clip792)" cx="1912.15" cy="1064.05" r="3.6" fill="#009af9" fill-rule="evenodd" fill-opacity="1" stroke="#000000" stroke-opacity="1" stroke-width="3.2"/>
<circle clip-path="url(#clip792)" cx="1961.11" cy="1074.12" r="3.6" fill="#009af9" fill-rule="evenodd" fill-opacity="1" stroke="#000000" stroke-opacity="1" stroke-width="3.2"/>
<circle clip-path="url(#clip792)" cx="2010.07" cy="1083.79" r="3.6" fill="#009af9" fill-rule="evenodd" fill-opacity="1" stroke="#000000" stroke-opacity="1" stroke-width="3.2"/>
<circle clip-path="url(#clip792)" cx="2059.02" cy="1093.07" r="3.6" fill="#009af9" fill-rule="evenodd" fill-opacity="1" stroke="#000000" stroke-opacity="1" stroke-width="3.2"/>
<circle clip-path="url(#clip792)" cx="2107.98" cy="1101.96" r="3.6" fill="#009af9" fill-rule="evenodd" fill-opacity="1" stroke="#000000" stroke-opacity="1" stroke-width="3.2"/>
<circle clip-path="url(#clip792)" cx="2156.93" cy="1110.5" r="3.6" fill="#009af9" fill-rule="evenodd" fill-opacity="1" stroke="#000000" stroke-opacity="1" stroke-width="3.2"/>
<circle clip-path="url(#clip792)" cx="2205.89" cy="1118.68" r="3.6" fill="#009af9" fill-rule="evenodd" fill-opacity="1" stroke="#000000" stroke-opacity="1" stroke-width="3.2"/>
<circle clip-path="url(#clip792)" cx="2254.84" cy="1126.53" r="3.6" fill="#009af9" fill-rule="evenodd" fill-opacity="1" stroke="#000000" stroke-opacity="1" stroke-width="3.2"/>
<circle clip-path="url(#clip792)" cx="2303.8" cy="1134.06" r="3.6" fill="#009af9" fill-rule="evenodd" fill-opacity="1" stroke="#000000" stroke-opacity="1" stroke-width="3.2"/>
<circle clip-path="url(#clip792)" cx="2352.76" cy="1141.28" r="3.6" fill="#009af9" fill-rule="evenodd" fill-opacity="1" stroke="#000000" stroke-opacity="1" stroke-width="3.2"/>
<polyline clip-path="url(#clip792)" style="stroke:#e26f46; stroke-linecap:round; stroke-linejoin:round; stroke-width:8; stroke-opacity:1; fill:none" points="443.484,1009.86 492.44,1027.5 541.395,1000.83 590.351,979.611 639.307,968.701 688.262,966.649 737.218,971.309 786.174,980.847 835.129,993.833 884.085,1009.18 933.041,1026.08 981.996,1043.93 1030.95,1062.3 1079.91,1080.87 1128.86,1099.38 1177.82,1117.66 1226.77,1135.56 1275.73,1152.95 1324.69,1169.76 1373.64,1185.9 1422.6,1201.32 1471.55,1215.96 1520.51,1229.8 1569.46,1242.8 1618.42,1254.95 1667.38,1266.14 1716.33,1276.51 1765.29,1286.09 1814.24,1294.88 1863.2,1302.9 1912.15,1310.18 1961.11,1316.75 2010.07,1322.67 2059.02,1327.97 2107.98,1332.71 2156.93,1336.94 2205.89,1340.71 2254.84,1344.07 2303.8,1347.07 2352.76,1349.74 "/>
<circle clip-path="url(#clip792)" cx="443.484" cy="1009.86" r="3.6" fill="#e26f46" fill-rule="evenodd" fill-opacity="1" stroke="#000000" stroke-opacity="1" stroke-width="3.2"/>
<circle clip-path="url(#clip792)" cx="492.44" cy="1027.5" r="3.6" fill="#e26f46" fill-rule="evenodd" fill-opacity="1" stroke="#000000" stroke-opacity="1" stroke-width="3.2"/>
<circle clip-path="url(#clip792)" cx="541.395" cy="1000.83" r="3.6" fill="#e26f46" fill-rule="evenodd" fill-opacity="1" stroke="#000000" stroke-opacity="1" stroke-width="3.2"/>
<circle clip-path="url(#clip792)" cx="590.351" cy="979.611" r="3.6" fill="#e26f46" fill-rule="evenodd" fill-opacity="1" stroke="#000000" stroke-opacity="1" stroke-width="3.2"/>
<circle clip-path="url(#clip792)" cx="639.307" cy="968.701" r="3.6" fill="#e26f46" fill-rule="evenodd" fill-opacity="1" stroke="#000000" stroke-opacity="1" stroke-width="3.2"/>
<circle clip-path="url(#clip792)" cx="688.262" cy="966.649" r="3.6" fill="#e26f46" fill-rule="evenodd" fill-opacity="1" stroke="#000000" stroke-opacity="1" stroke-width="3.2"/>
<circle clip-path="url(#clip792)" cx="737.218" cy="971.309" r="3.6" fill="#e26f46" fill-rule="evenodd" fill-opacity="1" stroke="#000000" stroke-opacity="1" stroke-width="3.2"/>
<circle clip-path="url(#clip792)" cx="786.174" cy="980.847" r="3.6" fill="#e26f46" fill-rule="evenodd" fill-opacity="1" stroke="#000000" stroke-opacity="1" stroke-width="3.2"/>
<circle clip-path="url(#clip792)" cx="835.129" cy="993.833" r="3.6" fill="#e26f46" fill-rule="evenodd" fill-opacity="1" stroke="#000000" stroke-opacity="1" stroke-width="3.2"/>
<circle clip-path="url(#clip792)" cx="884.085" cy="1009.18" r="3.6" fill="#e26f46" fill-rule="evenodd" fill-opacity="1" stroke="#000000" stroke-opacity="1" stroke-width="3.2"/>
<circle clip-path="url(#clip792)" cx="933.041" cy="1026.08" r="3.6" fill="#e26f46" fill-rule="evenodd" fill-opacity="1" stroke="#000000" stroke-opacity="1" stroke-width="3.2"/>
<circle clip-path="url(#clip792)" cx="981.996" cy="1043.93" r="3.6" fill="#e26f46" fill-rule="evenodd" fill-opacity="1" stroke="#000000" stroke-opacity="1" stroke-width="3.2"/>
<circle clip-path="url(#clip792)" cx="1030.95" cy="1062.3" r="3.6" fill="#e26f46" fill-rule="evenodd" fill-opacity="1" stroke="#000000" stroke-opacity="1" stroke-width="3.2"/>
<circle clip-path="url(#clip792)" cx="1079.91" cy="1080.87" r="3.6" fill="#e26f46" fill-rule="evenodd" fill-opacity="1" stroke="#000000" stroke-opacity="1" stroke-width="3.2"/>
<circle clip-path="url(#clip792)" cx="1128.86" cy="1099.38" r="3.6" fill="#e26f46" fill-rule="evenodd" fill-opacity="1" stroke="#000000" stroke-opacity="1" stroke-width="3.2"/>
<circle clip-path="url(#clip792)" cx="1177.82" cy="1117.66" r="3.6" fill="#e26f46" fill-rule="evenodd" fill-opacity="1" stroke="#000000" stroke-opacity="1" stroke-width="3.2"/>
<circle clip-path="url(#clip792)" cx="1226.77" cy="1135.56" r="3.6" fill="#e26f46" fill-rule="evenodd" fill-opacity="1" stroke="#000000" stroke-opacity="1" stroke-width="3.2"/>
<circle clip-path="url(#clip792)" cx="1275.73" cy="1152.95" r="3.6" fill="#e26f46" fill-rule="evenodd" fill-opacity="1" stroke="#000000" stroke-opacity="1" stroke-width="3.2"/>
<circle clip-path="url(#clip792)" cx="1324.69" cy="1169.76" r="3.6" fill="#e26f46" fill-rule="evenodd" fill-opacity="1" stroke="#000000" stroke-opacity="1" stroke-width="3.2"/>
<circle clip-path="url(#clip792)" cx="1373.64" cy="1185.9" r="3.6" fill="#e26f46" fill-rule="evenodd" fill-opacity="1" stroke="#000000" stroke-opacity="1" stroke-width="3.2"/>
<circle clip-path="url(#clip792)" cx="1422.6" cy="1201.32" r="3.6" fill="#e26f46" fill-rule="evenodd" fill-opacity="1" stroke="#000000" stroke-opacity="1" stroke-width="3.2"/>
<circle clip-path="url(#clip792)" cx="1471.55" cy="1215.96" r="3.6" fill="#e26f46" fill-rule="evenodd" fill-opacity="1" stroke="#000000" stroke-opacity="1" stroke-width="3.2"/>
<circle clip-path="url(#clip792)" cx="1520.51" cy="1229.8" r="3.6" fill="#e26f46" fill-rule="evenodd" fill-opacity="1" stroke="#000000" stroke-opacity="1" stroke-width="3.2"/>
<circle clip-path="url(#clip792)" cx="1569.46" cy="1242.8" r="3.6" fill="#e26f46" fill-rule="evenodd" fill-opacity="1" stroke="#000000" stroke-opacity="1" stroke-width="3.2"/>
<circle clip-path="url(#clip792)" cx="1618.42" cy="1254.95" r="3.6" fill="#e26f46" fill-rule="evenodd" fill-opacity="1" stroke="#000000" stroke-opacity="1" stroke-width="3.2"/>
<circle clip-path="url(#clip792)" cx="1667.38" cy="1266.14" r="3.6" fill="#e26f46" fill-rule="evenodd" fill-opacity="1" stroke="#000000" stroke-opacity="1" stroke-width="3.2"/>
<circle clip-path="url(#clip792)" cx="1716.33" cy="1276.51" r="3.6" fill="#e26f46" fill-rule="evenodd" fill-opacity="1" stroke="#000000" stroke-opacity="1" stroke-width="3.2"/>
<circle clip-path="url(#clip792)" cx="1765.29" cy="1286.09" r="3.6" fill="#e26f46" fill-rule="evenodd" fill-opacity="1" stroke="#000000" stroke-opacity="1" stroke-width="3.2"/>
<circle clip-path="url(#clip792)" cx="1814.24" cy="1294.88" r="3.6" fill="#e26f46" fill-rule="evenodd" fill-opacity="1" stroke="#000000" stroke-opacity="1" stroke-width="3.2"/>
<circle clip-path="url(#clip792)" cx="1863.2" cy="1302.9" r="3.6" fill="#e26f46" fill-rule="evenodd" fill-opacity="1" stroke="#000000" stroke-opacity="1" stroke-width="3.2"/>
<circle clip-path="url(#clip792)" cx="1912.15" cy="1310.18" r="3.6" fill="#e26f46" fill-rule="evenodd" fill-opacity="1" stroke="#000000" stroke-opacity="1" stroke-width="3.2"/>
<circle clip-path="url(#clip792)" cx="1961.11" cy="1316.75" r="3.6" fill="#e26f46" fill-rule="evenodd" fill-opacity="1" stroke="#000000" stroke-opacity="1" stroke-width="3.2"/>
<circle clip-path="url(#clip792)" cx="2010.07" cy="1322.67" r="3.6" fill="#e26f46" fill-rule="evenodd" fill-opacity="1" stroke="#000000" stroke-opacity="1" stroke-width="3.2"/>
<circle clip-path="url(#clip792)" cx="2059.02" cy="1327.97" r="3.6" fill="#e26f46" fill-rule="evenodd" fill-opacity="1" stroke="#000000" stroke-opacity="1" stroke-width="3.2"/>
<circle clip-path="url(#clip792)" cx="2107.98" cy="1332.71" r="3.6" fill="#e26f46" fill-rule="evenodd" fill-opacity="1" stroke="#000000" stroke-opacity="1" stroke-width="3.2"/>
<circle clip-path="url(#clip792)" cx="2156.93" cy="1336.94" r="3.6" fill="#e26f46" fill-rule="evenodd" fill-opacity="1" stroke="#000000" stroke-opacity="1" stroke-width="3.2"/>
<circle clip-path="url(#clip792)" cx="2205.89" cy="1340.71" r="3.6" fill="#e26f46" fill-rule="evenodd" fill-opacity="1" stroke="#000000" stroke-opacity="1" stroke-width="3.2"/>
<circle clip-path="url(#clip792)" cx="2254.84" cy="1344.07" r="3.6" fill="#e26f46" fill-rule="evenodd" fill-opacity="1" stroke="#000000" stroke-opacity="1" stroke-width="3.2"/>
<circle clip-path="url(#clip792)" cx="2303.8" cy="1347.07" r="3.6" fill="#e26f46" fill-rule="evenodd" fill-opacity="1" stroke="#000000" stroke-opacity="1" stroke-width="3.2"/>
<path clip-path="url(#clip790)" d="M1639.37 440.581 L2289.11 440.581 L2289.11 90.6606 L1639.37 90.6606  Z" fill="#ffffff" fill-rule="evenodd" fill-opacity="1"/>
<polyline clip-path="url(#clip790)" style="stroke:#000000; stroke-linecap:round; stroke-linejoin:round; stroke-width:4; stroke-opacity:1; fill:none" points="1639.37,440.581 2289.11,440.581 2289.11,90.6606 1639.37,90.6606 1639.37,440.581 "/>
<polyline clip-path="url(#clip790)" style="stroke:#009af9; stroke-linecap:round; stroke-linejoin:round; stroke-width:18; stroke-opacity:1; fill:none" points="1660.58,207.301 1787.87,207.301 "/>
<circle clip-path="url(#clip790)" cx="1724.23" cy="207.301" r="7.85709" fill="#009af9" fill-rule="evenodd" fill-opacity="1" stroke="#000000" stroke-opacity="1" stroke-width="6.98408"/>
<path clip-path="url(#clip790)" d="M1835.18 237.641 L1836.56 246.075 Q1832.53 246.923 1829.35 246.923 Q1824.15 246.923 1821.28 245.279 Q1818.42 243.635 1817.25 240.982 Q1816.09 238.277 1816.09 229.684 L1816.09 197.276 L1809.08 197.276 L1809.08 189.85 L1816.09 189.85 L1816.09 175.9 L1825.58 170.171 L1825.58 189.85 L1835.18 189.85 L1835.18 197.276 L1825.58 197.276 L1825.58 230.215 Q1825.58 234.299 1826.06 235.466 Q1826.59 236.633 1827.7 237.323 Q1828.87 238.012 1830.99 238.012 Q1832.58 238.012 1835.18 237.641 Z" fill="#000000" fill-rule="nonzero" fill-opacity="1" /><path clip-path="url(#clip790)" d="M1844.41 246.181 L1844.41 189.85 L1853 189.85 L1853 198.39 Q1856.29 192.396 1859.05 190.486 Q1861.86 188.577 1865.2 188.577 Q1870.03 188.577 1875.02 191.653 L1871.73 200.511 Q1868.23 198.443 1864.72 198.443 Q1861.6 198.443 1859.1 200.352 Q1856.61 202.209 1855.55 205.55 Q1853.96 210.642 1853.96 216.689 L1853.96 246.181 L1844.41 246.181 Z" fill="#000000" fill-rule="nonzero" fill-opacity="1" /><path clip-path="url(#clip790)" d="M1917.45 239.232 Q1912.14 243.741 1907.21 245.597 Q1902.33 247.454 1896.71 247.454 Q1887.43 247.454 1882.44 242.945 Q1877.46 238.383 1877.46 231.329 Q1877.46 227.191 1879.31 223.797 Q1881.22 220.349 1884.24 218.28 Q1887.32 216.212 1891.14 215.151 Q1893.95 214.408 1899.63 213.719 Q1911.19 212.34 1916.65 210.43 Q1916.71 208.468 1916.71 207.937 Q1916.71 202.102 1914 199.716 Q1910.34 196.48 1903.13 196.48 Q1896.39 196.48 1893.16 198.867 Q1889.97 201.201 1888.43 207.195 L1879.1 205.922 Q1880.37 199.928 1883.29 196.268 Q1886.21 192.555 1891.72 190.592 Q1897.24 188.577 1904.51 188.577 Q1911.72 188.577 1916.23 190.274 Q1920.74 191.971 1922.86 194.57 Q1924.98 197.116 1925.83 201.042 Q1926.31 203.482 1926.31 209.847 L1926.31 222.577 Q1926.31 235.89 1926.89 239.444 Q1927.53 242.945 1929.33 246.181 L1919.36 246.181 Q1917.87 243.21 1917.45 239.232 M1916.65 217.909 Q1911.46 220.031 1901.06 221.516 Q1895.17 222.365 1892.73 223.425 Q1890.29 224.486 1888.97 226.555 Q1887.64 228.571 1887.64 231.064 Q1887.64 234.883 1890.5 237.429 Q1893.42 239.975 1898.99 239.975 Q1904.51 239.975 1908.8 237.588 Q1913.1 235.148 1915.12 230.957 Q1916.65 227.722 1916.65 221.41 L1916.65 217.909 Z" fill="#000000" fill-rule="nonzero" fill-opacity="1" /><path clip-path="url(#clip790)" d="M1941.16 179.4 L1941.16 168.421 L1950.71 168.421 L1950.71 179.4 L1941.16 179.4 M1941.16 246.181 L1941.16 189.85 L1950.71 189.85 L1950.71 246.181 L1941.16 246.181 Z" fill="#000000" fill-rule="nonzero" fill-opacity="1" /><path clip-path="url(#clip790)" d="M1965.24 246.181 L1965.24 189.85 L1973.83 189.85 L1973.83 197.859 Q1980.04 188.577 1991.76 188.577 Q1996.85 188.577 2001.1 190.433 Q2005.39 192.237 2007.51 195.207 Q2009.64 198.177 2010.49 202.262 Q2011.02 204.914 2011.02 211.544 L2011.02 246.181 L2001.47 246.181 L2001.47 211.915 Q2001.47 206.081 2000.35 203.216 Q1999.24 200.299 1996.38 198.602 Q1993.56 196.851 1989.75 196.851 Q1983.65 196.851 1979.19 200.723 Q1974.79 204.595 1974.79 215.416 L1974.79 246.181 L1965.24 246.181 Z" fill="#000000" fill-rule="nonzero" fill-opacity="1" /><path clip-path="url(#clip790)" d="M2016.85 267.769 L2016.85 260.873 L2080.13 260.873 L2080.13 267.769 L2016.85 267.769 Z" fill="#000000" fill-rule="nonzero" fill-opacity="1" /><path clip-path="url(#clip790)" d="M2085.86 246.181 L2085.86 168.421 L2095.41 168.421 L2095.41 246.181 L2085.86 246.181 Z" fill="#000000" fill-rule="nonzero" fill-opacity="1" /><path clip-path="url(#clip790)" d="M2106.65 218.015 Q2106.65 202.368 2115.35 194.836 Q2122.62 188.577 2133.07 188.577 Q2144.68 188.577 2152.06 196.215 Q2159.43 203.8 2159.43 217.22 Q2159.43 228.093 2156.14 234.352 Q2152.9 240.558 2146.64 244.006 Q2140.44 247.454 2133.07 247.454 Q2121.24 247.454 2113.92 239.869 Q2106.65 232.284 2106.65 218.015 M2116.46 218.015 Q2116.46 228.836 2121.18 234.246 Q2125.91 239.603 2133.07 239.603 Q2140.17 239.603 2144.89 234.193 Q2149.62 228.783 2149.62 217.697 Q2149.62 207.248 2144.84 201.89 Q2140.12 196.48 2133.07 196.48 Q2125.91 196.48 2121.18 201.837 Q2116.46 207.195 2116.46 218.015 Z" fill="#000000" fill-rule="nonzero" fill-opacity="1" /><path clip-path="url(#clip790)" d="M2166.8 229.366 L2176.24 227.881 Q2177.04 233.557 2180.64 236.58 Q2184.3 239.603 2190.83 239.603 Q2197.41 239.603 2200.59 236.951 Q2203.77 234.246 2203.77 230.639 Q2203.77 227.404 2200.96 225.547 Q2199 224.274 2191.2 222.312 Q2180.7 219.659 2176.61 217.75 Q2172.58 215.787 2170.46 212.393 Q2168.39 208.945 2168.39 204.808 Q2168.39 201.042 2170.09 197.859 Q2171.84 194.624 2174.81 192.502 Q2177.04 190.858 2180.86 189.744 Q2184.73 188.577 2189.13 188.577 Q2195.76 188.577 2200.75 190.486 Q2205.79 192.396 2208.17 195.684 Q2210.56 198.92 2211.46 204.383 L2202.13 205.656 Q2201.49 201.307 2198.41 198.867 Q2195.39 196.427 2189.82 196.427 Q2183.24 196.427 2180.43 198.602 Q2177.62 200.776 2177.62 203.694 Q2177.62 205.55 2178.79 207.035 Q2179.96 208.574 2182.45 209.581 Q2183.88 210.112 2190.88 212.021 Q2201.01 214.727 2204.99 216.477 Q2209.02 218.174 2211.3 221.463 Q2213.58 224.752 2213.58 229.631 Q2213.58 234.405 2210.77 238.649 Q2208.01 242.839 2202.76 245.173 Q2197.51 247.454 2190.88 247.454 Q2179.9 247.454 2174.12 242.892 Q2168.39 238.33 2166.8 229.366 Z" fill="#000000" fill-rule="nonzero" fill-opacity="1" /><path clip-path="url(#clip790)" d="M2221.12 229.366 L2230.56 227.881 Q2231.35 233.557 2234.96 236.58 Q2238.62 239.603 2245.14 239.603 Q2251.72 239.603 2254.9 236.951 Q2258.09 234.246 2258.09 230.639 Q2258.09 227.404 2255.28 225.547 Q2253.31 224.274 2245.52 222.312 Q2235.01 219.659 2230.93 217.75 Q2226.9 215.787 2224.78 212.393 Q2222.71 208.945 2222.71 204.808 Q2222.71 201.042 2224.4 197.859 Q2226.16 194.624 2229.13 192.502 Q2231.35 190.858 2235.17 189.744 Q2239.04 188.577 2243.45 188.577 Q2250.08 188.577 2255.06 190.486 Q2260.1 192.396 2262.49 195.684 Q2264.88 198.92 2265.78 204.383 L2256.44 205.656 Q2255.81 201.307 2252.73 198.867 Q2249.71 196.427 2244.14 196.427 Q2237.56 196.427 2234.75 198.602 Q2231.94 200.776 2231.94 203.694 Q2231.94 205.55 2233.1 207.035 Q2234.27 208.574 2236.76 209.581 Q2238.2 210.112 2245.2 212.021 Q2255.33 214.727 2259.31 216.477 Q2263.34 218.174 2265.62 221.463 Q2267.9 224.752 2267.9 229.631 Q2267.9 234.405 2265.09 238.649 Q2262.33 242.839 2257.08 245.173 Q2251.83 247.454 2245.2 247.454 Q2234.22 247.454 2228.44 242.892 Q2222.71 238.33 2221.12 229.366 Z" fill="#000000" fill-rule="nonzero" fill-opacity="1" /><polyline clip-path="url(#clip790)" style="stroke:#e26f46; stroke-linecap:round; stroke-linejoin:round; stroke-width:18; stroke-opacity:1; fill:none" points="1660.58,323.941 1787.87,323.941 "/>
<circle clip-path="url(#clip790)" cx="1724.23" cy="323.941" r="7.85709" fill="#e26f46" fill-rule="evenodd" fill-opacity="1" stroke="#000000" stroke-opacity="1" stroke-width="6.98408"/>
<path clip-path="url(#clip790)" d="M1830.51 362.821 L1809.08 306.49 L1819.16 306.49 L1831.26 340.225 Q1833.22 345.688 1834.86 351.576 Q1836.14 347.12 1838.42 340.861 L1850.93 306.49 L1860.75 306.49 L1839.42 362.821 L1830.51 362.821 Z" fill="#000000" fill-rule="nonzero" fill-opacity="1" /><path clip-path="url(#clip790)" d="M1905.94 355.872 Q1900.63 360.381 1895.7 362.237 Q1890.82 364.094 1885.2 364.094 Q1875.92 364.094 1870.93 359.585 Q1865.94 355.023 1865.94 347.969 Q1865.94 343.831 1867.8 340.437 Q1869.71 336.989 1872.73 334.92 Q1875.81 332.852 1879.63 331.791 Q1882.44 331.048 1888.12 330.359 Q1899.68 328.98 1905.14 327.07 Q1905.2 325.108 1905.2 324.577 Q1905.2 318.742 1902.49 316.356 Q1898.83 313.12 1891.62 313.12 Q1884.88 313.12 1881.65 315.507 Q1878.46 317.841 1876.92 323.835 L1867.59 322.562 Q1868.86 316.568 1871.78 312.908 Q1874.7 309.195 1880.21 307.232 Q1885.73 305.217 1893 305.217 Q1900.21 305.217 1904.72 306.914 Q1909.23 308.611 1911.35 311.21 Q1913.47 313.756 1914.32 317.682 Q1914.8 320.122 1914.8 326.487 L1914.8 339.217 Q1914.8 352.53 1915.38 356.084 Q1916.02 359.585 1917.82 362.821 L1907.85 362.821 Q1906.36 359.85 1905.94 355.872 M1905.14 334.549 Q1899.94 336.671 1889.55 338.156 Q1883.66 339.005 1881.22 340.065 Q1878.78 341.126 1877.46 343.195 Q1876.13 345.211 1876.13 347.704 Q1876.13 351.523 1878.99 354.069 Q1881.91 356.615 1887.48 356.615 Q1893 356.615 1897.29 354.228 Q1901.59 351.788 1903.6 347.597 Q1905.14 344.362 1905.14 338.05 L1905.14 334.549 Z" fill="#000000" fill-rule="nonzero" fill-opacity="1" /><path clip-path="url(#clip790)" d="M1929.38 362.821 L1929.38 285.061 L1938.93 285.061 L1938.93 362.821 L1929.38 362.821 Z" fill="#000000" fill-rule="nonzero" fill-opacity="1" /><path clip-path="url(#clip790)" d="M1944.92 384.409 L1944.92 377.513 L2008.2 377.513 L2008.2 384.409 L1944.92 384.409 Z" fill="#000000" fill-rule="nonzero" fill-opacity="1" /><path clip-path="url(#clip790)" d="M2013.93 362.821 L2013.93 285.061 L2023.48 285.061 L2023.48 362.821 L2013.93 362.821 Z" fill="#000000" fill-rule="nonzero" fill-opacity="1" /><path clip-path="url(#clip790)" d="M2034.73 334.655 Q2034.73 319.008 2043.42 311.476 Q2050.69 305.217 2061.14 305.217 Q2072.76 305.217 2080.13 312.855 Q2087.5 320.44 2087.5 333.86 Q2087.5 344.733 2084.21 350.992 Q2080.98 357.198 2074.72 360.646 Q2068.51 364.094 2061.14 364.094 Q2049.31 364.094 2041.99 356.509 Q2034.73 348.924 2034.73 334.655 M2044.54 334.655 Q2044.54 345.476 2049.26 350.886 Q2053.98 356.243 2061.14 356.243 Q2068.25 356.243 2072.97 350.833 Q2077.69 345.423 2077.69 334.337 Q2077.69 323.888 2072.92 318.53 Q2068.2 313.12 2061.14 313.12 Q2053.98 313.12 2049.26 318.477 Q2044.54 323.835 2044.54 334.655 Z" fill="#000000" fill-rule="nonzero" fill-opacity="1" /><path clip-path="url(#clip790)" d="M2094.88 346.006 L2104.32 344.521 Q2105.11 350.197 2108.72 353.22 Q2112.38 356.243 2118.9 356.243 Q2125.48 356.243 2128.66 353.591 Q2131.85 350.886 2131.85 347.279 Q2131.85 344.044 2129.03 342.187 Q2127.07 340.914 2119.27 338.952 Q2108.77 336.299 2104.69 334.39 Q2100.66 332.427 2098.54 329.033 Q2096.47 325.585 2096.47 321.448 Q2096.47 317.682 2098.16 314.499 Q2099.91 311.264 2102.88 309.142 Q2105.11 307.498 2108.93 306.384 Q2112.8 305.217 2117.21 305.217 Q2123.84 305.217 2128.82 307.126 Q2133.86 309.036 2136.25 312.324 Q2138.64 315.56 2139.54 321.023 L2130.2 322.296 Q2129.57 317.947 2126.49 315.507 Q2123.47 313.067 2117.9 313.067 Q2111.32 313.067 2108.51 315.242 Q2105.7 317.416 2105.7 320.334 Q2105.7 322.19 2106.86 323.675 Q2108.03 325.214 2110.52 326.221 Q2111.96 326.752 2118.96 328.661 Q2129.09 331.367 2133.07 333.117 Q2137.1 334.814 2139.38 338.103 Q2141.66 341.392 2141.66 346.271 Q2141.66 351.045 2138.85 355.289 Q2136.09 359.479 2130.84 361.813 Q2125.59 364.094 2118.96 364.094 Q2107.98 364.094 2102.2 359.532 Q2096.47 354.97 2094.88 346.006 Z" fill="#000000" fill-rule="nonzero" fill-opacity="1" /><path clip-path="url(#clip790)" d="M2149.19 346.006 L2158.63 344.521 Q2159.43 350.197 2163.03 353.22 Q2166.69 356.243 2173.22 356.243 Q2179.8 356.243 2182.98 353.591 Q2186.16 350.886 2186.16 347.279 Q2186.16 344.044 2183.35 342.187 Q2181.39 340.914 2173.59 338.952 Q2163.09 336.299 2159 334.39 Q2154.97 332.427 2152.85 329.033 Q2150.78 325.585 2150.78 321.448 Q2150.78 317.682 2152.48 314.499 Q2154.23 311.264 2157.2 309.142 Q2159.43 307.498 2163.25 306.384 Q2167.12 305.217 2171.52 305.217 Q2178.15 305.217 2183.14 307.126 Q2188.18 309.036 2190.56 312.324 Q2192.95 315.56 2193.85 321.023 L2184.52 322.296 Q2183.88 317.947 2180.8 315.507 Q2177.78 313.067 2172.21 313.067 Q2165.63 313.067 2162.82 315.242 Q2160.01 317.416 2160.01 320.334 Q2160.01 322.19 2161.18 323.675 Q2162.35 325.214 2164.84 326.221 Q2166.27 326.752 2173.27 328.661 Q2183.4 331.367 2187.38 333.117 Q2191.41 334.814 2193.69 338.103 Q2195.97 341.392 2195.97 346.271 Q2195.97 351.045 2193.16 355.289 Q2190.4 359.479 2185.15 361.813 Q2179.9 364.094 2173.27 364.094 Q2162.29 364.094 2156.51 359.532 Q2150.78 354.97 2149.19 346.006 Z" fill="#000000" fill-rule="nonzero" fill-opacity="1" /></svg>
