<?xml version="1.0" encoding="utf-8"?>
<svg xmlns="http://www.w3.org/2000/svg" xmlns:xlink="http://www.w3.org/1999/xlink" width="600" height="400" viewBox="0 0 2400 1600">
<defs>
  <clipPath id="clip160">
    <rect x="0" y="0" width="2400" height="1600"/>
  </clipPath>
</defs>
<path clip-path="url(#clip160)" d="M0 1600 L2400 1600 L2400 8.88178e-14 L0 8.88178e-14  Z" fill="#ffffff" fill-rule="evenodd" fill-opacity="1"/>
<defs>
  <clipPath id="clip161">
    <rect x="480" y="0" width="1681" height="1600"/>
  </clipPath>
</defs>
<path clip-path="url(#clip160)" d="M382.644 1349.74 L2352.76 1349.74 L2352.76 47.2441 L382.644 47.2441  Z" fill="#ffffff" fill-rule="evenodd" fill-opacity="1"/>
<defs>
  <clipPath id="clip162">
    <rect x="382" y="47" width="1971" height="1303"/>
  </clipPath>
</defs>
<polyline clip-path="url(#clip160)" style="stroke:#000000; stroke-linecap:round; stroke-linejoin:round; stroke-width:4; stroke-opacity:1; fill:none" points="382.644,1349.74 2352.76,1349.74 "/>
<polyline clip-path="url(#clip160)" style="stroke:#000000; stroke-linecap:round; stroke-linejoin:round; stroke-width:2; stroke-opacity:0.5; fill:none" points="382.644,47.2441 2352.76,47.2441 "/>
<polyline clip-path="url(#clip160)" style="stroke:#000000; stroke-linecap:round; stroke-linejoin:round; stroke-width:4; stroke-opacity:1; fill:none" points="609.965,1349.74 609.965,1330.84 "/>
<polyline clip-path="url(#clip160)" style="stroke:#000000; stroke-linecap:round; stroke-linejoin:round; stroke-width:4; stroke-opacity:1; fill:none" points="988.833,1349.74 988.833,1330.84 "/>
<polyline clip-path="url(#clip160)" style="stroke:#000000; stroke-linecap:round; stroke-linejoin:round; stroke-width:4; stroke-opacity:1; fill:none" points="1367.7,1349.74 1367.7,1330.84 "/>
<polyline clip-path="url(#clip160)" style="stroke:#000000; stroke-linecap:round; stroke-linejoin:round; stroke-width:4; stroke-opacity:1; fill:none" points="1746.57,1349.74 1746.57,1330.84 "/>
<polyline clip-path="url(#clip160)" style="stroke:#000000; stroke-linecap:round; stroke-linejoin:round; stroke-width:4; stroke-opacity:1; fill:none" points="2125.44,1349.74 2125.44,1330.84 "/>
<path clip-path="url(#clip160)" d="M589.729 1456.96 L589.729 1466.14 L538.331 1466.14 Q538.225 1462.69 539.445 1459.51 Q541.408 1454.26 545.704 1449.17 Q550.054 1444.07 558.222 1437.39 Q570.899 1426.99 575.355 1420.95 Q579.81 1414.85 579.81 1409.44 Q579.81 1403.76 575.726 1399.89 Q571.695 1395.96 565.171 1395.96 Q558.275 1395.96 554.138 1400.1 Q550.001 1404.24 549.948 1411.56 L540.135 1410.55 Q541.143 1399.57 547.72 1393.84 Q554.297 1388.06 565.383 1388.06 Q576.575 1388.06 583.099 1394.27 Q589.623 1400.47 589.623 1409.65 Q589.623 1414.32 587.714 1418.83 Q585.804 1423.33 581.349 1428.32 Q576.946 1433.31 566.656 1442.01 Q558.063 1449.22 555.623 1451.82 Q553.183 1454.36 551.592 1456.96 L589.729 1456.96 Z" fill="#000000" fill-rule="nonzero" fill-opacity="1" /><path clip-path="url(#clip160)" d="M605.324 1466.14 L605.324 1455.27 L616.197 1455.27 L616.197 1466.14 L605.324 1466.14 Z" fill="#000000" fill-rule="nonzero" fill-opacity="1" /><path clip-path="url(#clip160)" d="M630.147 1445.77 L640.172 1444.92 Q641.286 1452.24 645.318 1455.96 Q649.402 1459.62 655.13 1459.62 Q662.026 1459.62 666.8 1454.42 Q671.574 1449.22 671.574 1440.63 Q671.574 1432.46 666.959 1427.74 Q662.397 1423.02 654.971 1423.02 Q650.357 1423.02 646.644 1425.14 Q642.931 1427.21 640.809 1430.55 L631.845 1429.38 L639.377 1389.44 L678.045 1389.44 L678.045 1398.56 L647.015 1398.56 L642.825 1419.46 Q649.826 1414.58 657.517 1414.58 Q667.701 1414.58 674.703 1421.64 Q681.705 1428.69 681.705 1439.78 Q681.705 1450.33 675.552 1458.02 Q668.073 1467.47 655.13 1467.47 Q644.522 1467.47 637.786 1461.53 Q631.102 1455.58 630.147 1445.77 Z" fill="#000000" fill-rule="nonzero" fill-opacity="1" /><path clip-path="url(#clip160)" d="M918.18 1445.77 L928.205 1444.92 Q929.319 1452.24 933.35 1455.96 Q937.435 1459.62 943.163 1459.62 Q950.059 1459.62 954.832 1454.42 Q959.606 1449.22 959.606 1440.63 Q959.606 1432.46 954.992 1427.74 Q950.43 1423.02 943.004 1423.02 Q938.389 1423.02 934.676 1425.14 Q930.963 1427.21 928.842 1430.55 L919.878 1429.38 L927.41 1389.44 L966.077 1389.44 L966.077 1398.56 L935.048 1398.56 L930.857 1419.46 Q937.859 1414.58 945.55 1414.58 Q955.734 1414.58 962.736 1421.64 Q969.737 1428.69 969.737 1439.78 Q969.737 1450.33 963.584 1458.02 Q956.105 1467.47 943.163 1467.47 Q932.555 1467.47 925.818 1461.53 Q919.135 1455.58 918.18 1445.77 Z" fill="#000000" fill-rule="nonzero" fill-opacity="1" /><path clip-path="url(#clip160)" d="M983.953 1466.14 L983.953 1455.27 L994.826 1455.27 L994.826 1466.14 L983.953 1466.14 Z" fill="#000000" fill-rule="nonzero" fill-opacity="1" /><path clip-path="url(#clip160)" d="M1008.78 1427.79 Q1008.78 1414 1011.59 1405.62 Q1014.45 1397.18 1020.02 1392.62 Q1025.64 1388.06 1034.13 1388.06 Q1040.39 1388.06 1045.11 1390.61 Q1049.83 1393.1 1052.91 1397.87 Q1055.98 1402.6 1057.73 1409.44 Q1059.48 1416.23 1059.48 1427.79 Q1059.48 1441.48 1056.67 1449.91 Q1053.86 1458.29 1048.24 1462.9 Q1042.67 1467.47 1034.13 1467.47 Q1022.89 1467.47 1016.47 1459.4 Q1008.78 1449.7 1008.78 1427.79 M1018.59 1427.79 Q1018.59 1446.94 1023.04 1453.3 Q1027.55 1459.62 1034.13 1459.62 Q1040.71 1459.62 1045.16 1453.25 Q1049.67 1446.89 1049.67 1427.79 Q1049.67 1408.59 1045.16 1402.28 Q1040.71 1395.96 1034.02 1395.96 Q1027.45 1395.96 1023.52 1401.53 Q1018.59 1408.64 1018.59 1427.79 Z" fill="#000000" fill-rule="nonzero" fill-opacity="1" /><path clip-path="url(#clip160)" d="M1296.94 1398.56 L1296.94 1389.39 L1347.28 1389.39 L1347.28 1396.81 Q1339.85 1404.72 1332.53 1417.82 Q1325.27 1430.92 1321.29 1444.76 Q1318.42 1454.52 1317.63 1466.14 L1307.82 1466.14 Q1307.97 1456.96 1311.42 1443.97 Q1314.87 1430.97 1321.29 1418.93 Q1327.76 1406.84 1335.03 1398.56 L1296.94 1398.56 Z" fill="#000000" fill-rule="nonzero" fill-opacity="1" /><path clip-path="url(#clip160)" d="M1362.08 1466.14 L1362.08 1455.27 L1372.95 1455.27 L1372.95 1466.14 L1362.08 1466.14 Z" fill="#000000" fill-rule="nonzero" fill-opacity="1" /><path clip-path="url(#clip160)" d="M1386.9 1445.77 L1396.93 1444.92 Q1398.04 1452.24 1402.07 1455.96 Q1406.16 1459.62 1411.88 1459.62 Q1418.78 1459.62 1423.55 1454.42 Q1428.33 1449.22 1428.33 1440.63 Q1428.33 1432.46 1423.71 1427.74 Q1419.15 1423.02 1411.73 1423.02 Q1407.11 1423.02 1403.4 1425.14 Q1399.68 1427.21 1397.56 1430.55 L1388.6 1429.38 L1396.13 1389.44 L1434.8 1389.44 L1434.8 1398.56 L1403.77 1398.56 L1399.58 1419.46 Q1406.58 1414.58 1414.27 1414.58 Q1424.46 1414.58 1431.46 1421.64 Q1438.46 1428.69 1438.46 1439.78 Q1438.46 1450.33 1432.31 1458.02 Q1424.83 1467.47 1411.88 1467.47 Q1401.28 1467.47 1394.54 1461.53 Q1387.86 1455.58 1386.9 1445.77 Z" fill="#000000" fill-rule="nonzero" fill-opacity="1" /><path clip-path="url(#clip160)" d="M1678.01 1466.14 L1668.46 1466.14 L1668.46 1405.3 Q1665.02 1408.59 1659.39 1411.88 Q1653.82 1415.17 1649.37 1416.81 L1649.37 1407.58 Q1657.38 1403.82 1663.37 1398.46 Q1669.36 1393.1 1671.86 1388.06 L1678.01 1388.06 L1678.01 1466.14 Z" fill="#000000" fill-rule="nonzero" fill-opacity="1" /><path clip-path="url(#clip160)" d="M1702.46 1427.79 Q1702.46 1414 1705.27 1405.62 Q1708.14 1397.18 1713.71 1392.62 Q1719.33 1388.06 1727.82 1388.06 Q1734.08 1388.06 1738.8 1390.61 Q1743.52 1393.1 1746.59 1397.87 Q1749.67 1402.6 1751.42 1409.44 Q1753.17 1416.23 1753.17 1427.79 Q1753.17 1441.48 1750.36 1449.91 Q1747.55 1458.29 1741.93 1462.9 Q1736.36 1467.47 1727.82 1467.47 Q1716.57 1467.47 1710.15 1459.4 Q1702.46 1449.7 1702.46 1427.79 M1712.28 1427.79 Q1712.28 1446.94 1716.73 1453.3 Q1721.24 1459.62 1727.82 1459.62 Q1734.39 1459.62 1738.85 1453.25 Q1743.36 1446.89 1743.36 1427.79 Q1743.36 1408.59 1738.85 1402.28 Q1734.39 1395.96 1727.71 1395.96 Q1721.13 1395.96 1717.21 1401.53 Q1712.28 1408.64 1712.28 1427.79 Z" fill="#000000" fill-rule="nonzero" fill-opacity="1" /><path clip-path="url(#clip160)" d="M1768.24 1466.14 L1768.24 1455.27 L1779.11 1455.27 L1779.11 1466.14 L1768.24 1466.14 Z" fill="#000000" fill-rule="nonzero" fill-opacity="1" /><path clip-path="url(#clip160)" d="M1793.06 1427.79 Q1793.06 1414 1795.87 1405.62 Q1798.73 1397.18 1804.3 1392.62 Q1809.93 1388.06 1818.41 1388.06 Q1824.67 1388.06 1829.39 1390.61 Q1834.11 1393.1 1837.19 1397.87 Q1840.27 1402.6 1842.02 1409.44 Q1843.77 1416.23 1843.77 1427.79 Q1843.77 1441.48 1840.96 1449.91 Q1838.15 1458.29 1832.52 1462.9 Q1826.95 1467.47 1818.41 1467.47 Q1807.17 1467.47 1800.75 1459.4 Q1793.06 1449.7 1793.06 1427.79 M1802.87 1427.79 Q1802.87 1446.94 1807.33 1453.3 Q1811.84 1459.62 1818.41 1459.62 Q1824.99 1459.62 1829.45 1453.25 Q1833.95 1446.89 1833.95 1427.79 Q1833.95 1408.59 1829.45 1402.28 Q1824.99 1395.96 1818.31 1395.96 Q1811.73 1395.96 1807.81 1401.53 Q1802.87 1408.64 1802.87 1427.79 Z" fill="#000000" fill-rule="nonzero" fill-opacity="1" /><path clip-path="url(#clip160)" d="M2056.45 1466.14 L2046.91 1466.14 L2046.91 1405.3 Q2043.46 1408.59 2037.84 1411.88 Q2032.27 1415.17 2027.81 1416.81 L2027.81 1407.58 Q2035.82 1403.82 2041.81 1398.46 Q2047.81 1393.1 2050.3 1388.06 L2056.45 1388.06 L2056.45 1466.14 Z" fill="#000000" fill-rule="nonzero" fill-opacity="1" /><path clip-path="url(#clip160)" d="M2131.08 1456.96 L2131.08 1466.14 L2079.69 1466.14 Q2079.58 1462.69 2080.8 1459.51 Q2082.76 1454.26 2087.06 1449.17 Q2091.41 1444.07 2099.58 1437.39 Q2112.25 1426.99 2116.71 1420.95 Q2121.17 1414.85 2121.17 1409.44 Q2121.17 1403.76 2117.08 1399.89 Q2113.05 1395.96 2106.53 1395.96 Q2099.63 1395.96 2095.49 1400.1 Q2091.36 1404.24 2091.3 1411.56 L2081.49 1410.55 Q2082.5 1399.57 2089.07 1393.84 Q2095.65 1388.06 2106.74 1388.06 Q2117.93 1388.06 2124.45 1394.27 Q2130.98 1400.47 2130.98 1409.65 Q2130.98 1414.32 2129.07 1418.83 Q2127.16 1423.33 2122.7 1428.32 Q2118.3 1433.31 2108.01 1442.01 Q2099.42 1449.22 2096.98 1451.82 Q2094.54 1454.36 2092.95 1456.96 L2131.08 1456.96 Z" fill="#000000" fill-rule="nonzero" fill-opacity="1" /><path clip-path="url(#clip160)" d="M2146.68 1466.14 L2146.68 1455.27 L2157.55 1455.27 L2157.55 1466.14 L2146.68 1466.14 Z" fill="#000000" fill-rule="nonzero" fill-opacity="1" /><path clip-path="url(#clip160)" d="M2171.5 1445.77 L2181.53 1444.92 Q2182.64 1452.24 2186.67 1455.96 Q2190.76 1459.62 2196.49 1459.62 Q2203.38 1459.62 2208.15 1454.42 Q2212.93 1449.22 2212.93 1440.63 Q2212.93 1432.46 2208.31 1427.74 Q2203.75 1423.02 2196.33 1423.02 Q2191.71 1423.02 2188 1425.14 Q2184.29 1427.21 2182.16 1430.55 L2173.2 1429.38 L2180.73 1389.44 L2219.4 1389.44 L2219.4 1398.56 L2188.37 1398.56 L2184.18 1419.46 Q2191.18 1414.58 2198.87 1414.58 Q2209.06 1414.58 2216.06 1421.64 Q2223.06 1428.69 2223.06 1439.78 Q2223.06 1450.33 2216.91 1458.02 Q2209.43 1467.47 2196.49 1467.47 Q2185.88 1467.47 2179.14 1461.53 Q2172.46 1455.58 2171.5 1445.77 Z" fill="#000000" fill-rule="nonzero" fill-opacity="1" /><path clip-path="url(#clip160)" d="M1267.13 1577.55 L1277 1578.77 Q1274.66 1587.42 1268.35 1592.19 Q1262.04 1596.96 1252.23 1596.96 Q1239.87 1596.96 1232.6 1589.38 Q1225.39 1581.74 1225.39 1568 Q1225.39 1553.79 1232.71 1545.94 Q1240.03 1538.09 1251.7 1538.09 Q1262.99 1538.09 1270.16 1545.78 Q1277.32 1553.47 1277.32 1567.42 Q1277.32 1568.27 1277.26 1569.97 L1235.25 1569.97 Q1235.78 1579.25 1240.5 1584.18 Q1245.23 1589.11 1252.28 1589.11 Q1257.53 1589.11 1261.24 1586.36 Q1264.96 1583.6 1267.13 1577.55 M1235.78 1562.12 L1267.24 1562.12 Q1266.6 1555.01 1263.63 1551.45 Q1259.07 1545.94 1251.8 1545.94 Q1245.23 1545.94 1240.72 1550.34 Q1236.26 1554.74 1235.78 1562.12 Z" fill="#000000" fill-rule="nonzero" fill-opacity="1" /><path clip-path="url(#clip160)" d="M1288.99 1617.28 L1288.99 1539.36 L1297.68 1539.36 L1297.68 1546.68 Q1300.76 1542.38 1304.63 1540.26 Q1308.5 1538.09 1314.02 1538.09 Q1321.24 1538.09 1326.75 1541.8 Q1332.27 1545.51 1335.08 1552.3 Q1337.89 1559.04 1337.89 1567.1 Q1337.89 1575.75 1334.76 1582.7 Q1331.68 1589.59 1325.74 1593.3 Q1319.86 1596.96 1313.33 1596.96 Q1308.56 1596.96 1304.74 1594.95 Q1300.97 1592.93 1298.53 1589.86 L1298.53 1617.28 L1288.99 1617.28 M1297.63 1567.84 Q1297.63 1578.72 1302.03 1583.92 Q1306.44 1589.11 1312.7 1589.11 Q1319.06 1589.11 1323.57 1583.76 Q1328.13 1578.35 1328.13 1567.05 Q1328.13 1556.28 1323.68 1550.92 Q1319.27 1545.57 1313.12 1545.57 Q1307.02 1545.57 1302.3 1551.3 Q1297.63 1556.97 1297.63 1567.84 Z" fill="#000000" fill-rule="nonzero" fill-opacity="1" /><path clip-path="url(#clip160)" d="M1345.85 1567.53 Q1345.85 1551.88 1354.55 1544.35 Q1361.81 1538.09 1372.26 1538.09 Q1383.88 1538.09 1391.25 1545.73 Q1398.62 1553.31 1398.62 1566.73 Q1398.62 1577.6 1395.34 1583.86 Q1392.1 1590.07 1385.84 1593.52 Q1379.63 1596.96 1372.26 1596.96 Q1360.43 1596.96 1353.11 1589.38 Q1345.85 1581.79 1345.85 1567.53 M1355.66 1567.53 Q1355.66 1578.35 1360.38 1583.76 Q1365.1 1589.11 1372.26 1589.11 Q1379.37 1589.11 1384.09 1583.7 Q1388.81 1578.29 1388.81 1567.21 Q1388.81 1556.76 1384.04 1551.4 Q1379.32 1545.99 1372.26 1545.99 Q1365.1 1545.99 1360.38 1551.35 Q1355.66 1556.71 1355.66 1567.53 Z" fill="#000000" fill-rule="nonzero" fill-opacity="1" /><path clip-path="url(#clip160)" d="M1446.57 1575.06 L1455.96 1576.28 Q1454.42 1585.99 1448.06 1591.5 Q1441.75 1596.96 1432.52 1596.96 Q1420.95 1596.96 1413.9 1589.43 Q1406.9 1581.85 1406.9 1567.74 Q1406.9 1558.62 1409.92 1551.77 Q1412.95 1544.93 1419.1 1541.54 Q1425.3 1538.09 1432.57 1538.09 Q1441.75 1538.09 1447.58 1542.76 Q1453.42 1547.37 1455.06 1555.91 L1445.78 1557.34 Q1444.45 1551.67 1441.06 1548.8 Q1437.72 1545.94 1432.94 1545.94 Q1425.73 1545.94 1421.22 1551.14 Q1416.71 1556.28 1416.71 1567.47 Q1416.71 1578.82 1421.06 1583.97 Q1425.41 1589.11 1432.41 1589.11 Q1438.03 1589.11 1441.8 1585.67 Q1445.57 1582.22 1446.57 1575.06 Z" fill="#000000" fill-rule="nonzero" fill-opacity="1" /><path clip-path="url(#clip160)" d="M1464.13 1595.69 L1464.13 1517.93 L1473.68 1517.93 L1473.68 1545.83 Q1480.36 1538.09 1490.55 1538.09 Q1496.81 1538.09 1501.42 1540.58 Q1506.03 1543.02 1508 1547.37 Q1510.01 1551.72 1510.01 1559.99 L1510.01 1595.69 L1500.46 1595.69 L1500.46 1559.99 Q1500.46 1552.83 1497.34 1549.6 Q1494.26 1546.31 1488.58 1546.31 Q1484.34 1546.31 1480.57 1548.54 Q1476.86 1550.71 1475.27 1554.48 Q1473.68 1558.24 1473.68 1564.87 L1473.68 1595.69 L1464.13 1595.69 Z" fill="#000000" fill-rule="nonzero" fill-opacity="1" /><polyline clip-path="url(#clip160)" style="stroke:#000000; stroke-linecap:round; stroke-linejoin:round; stroke-width:4; stroke-opacity:1; fill:none" points="382.644,1349.74 382.644,47.2441 "/>
<polyline clip-path="url(#clip160)" style="stroke:#000000; stroke-linecap:round; stroke-linejoin:round; stroke-width:2; stroke-opacity:0.5; fill:none" points="2352.76,1349.74 2352.76,47.2441 "/>
<polyline clip-path="url(#clip160)" style="stroke:#000000; stroke-linecap:round; stroke-linejoin:round; stroke-width:4; stroke-opacity:1; fill:none" points="382.644,1061.65 401.542,1061.65 "/>
<polyline clip-path="url(#clip160)" style="stroke:#000000; stroke-linecap:round; stroke-linejoin:round; stroke-width:4; stroke-opacity:1; fill:none" points="382.644,730.935 401.542,730.935 "/>
<polyline clip-path="url(#clip160)" style="stroke:#000000; stroke-linecap:round; stroke-linejoin:round; stroke-width:4; stroke-opacity:1; fill:none" points="382.644,400.224 401.542,400.224 "/>
<polyline clip-path="url(#clip160)" style="stroke:#000000; stroke-linecap:round; stroke-linejoin:round; stroke-width:4; stroke-opacity:1; fill:none" points="382.644,69.5126 401.542,69.5126 "/>
<path clip-path="url(#clip160)" d="M144.712 1062.18 Q144.712 1048.39 147.524 1040 Q150.388 1031.57 155.957 1027.01 Q161.58 1022.45 170.067 1022.45 Q176.326 1022.45 181.046 1024.99 Q185.767 1027.49 188.844 1032.26 Q191.92 1036.98 193.67 1043.82 Q195.421 1050.61 195.421 1062.18 Q195.421 1075.86 192.61 1084.29 Q189.798 1092.68 184.176 1097.29 Q178.606 1101.85 170.067 1101.85 Q158.822 1101.85 152.403 1093.79 Q144.712 1084.08 144.712 1062.18 M154.525 1062.18 Q154.525 1081.32 158.981 1087.69 Q163.489 1094 170.067 1094 Q176.644 1094 181.099 1087.64 Q185.608 1081.27 185.608 1062.18 Q185.608 1042.97 181.099 1036.66 Q176.644 1030.35 169.96 1030.35 Q163.383 1030.35 159.458 1035.92 Q154.525 1043.03 154.525 1062.18 Z" fill="#000000" fill-rule="nonzero" fill-opacity="1" /><path clip-path="url(#clip160)" d="M210.485 1100.53 L210.485 1089.65 L221.358 1089.65 L221.358 1100.53 L210.485 1100.53 Z" fill="#000000" fill-rule="nonzero" fill-opacity="1" /><path clip-path="url(#clip160)" d="M235.309 1062.18 Q235.309 1048.39 238.12 1040 Q240.984 1031.57 246.554 1027.01 Q252.176 1022.45 260.663 1022.45 Q266.922 1022.45 271.643 1024.99 Q276.363 1027.49 279.44 1032.26 Q282.516 1036.98 284.267 1043.82 Q286.017 1050.61 286.017 1062.18 Q286.017 1075.86 283.206 1084.29 Q280.395 1092.68 274.772 1097.29 Q269.203 1101.85 260.663 1101.85 Q249.418 1101.85 243 1093.79 Q235.309 1084.08 235.309 1062.18 M245.121 1062.18 Q245.121 1081.32 249.577 1087.69 Q254.086 1094 260.663 1094 Q267.24 1094 271.696 1087.64 Q276.204 1081.27 276.204 1062.18 Q276.204 1042.97 271.696 1036.66 Q267.24 1030.35 260.557 1030.35 Q253.979 1030.35 250.054 1035.92 Q245.121 1043.03 245.121 1062.18 Z" fill="#000000" fill-rule="nonzero" fill-opacity="1" /><path clip-path="url(#clip160)" d="M345.265 1041.81 L335.771 1042.55 Q334.498 1036.93 332.164 1034.38 Q328.292 1030.3 322.616 1030.3 Q318.055 1030.3 314.607 1032.84 Q310.098 1036.13 307.499 1042.44 Q304.9 1048.76 304.794 1060.43 Q308.242 1055.17 313.228 1052.63 Q318.214 1050.08 323.677 1050.08 Q333.225 1050.08 339.908 1057.14 Q346.644 1064.14 346.644 1075.28 Q346.644 1082.6 343.462 1088.91 Q340.332 1095.17 334.816 1098.51 Q329.3 1101.85 322.298 1101.85 Q310.363 1101.85 302.831 1093.1 Q295.299 1084.29 295.299 1064.14 Q295.299 1041.6 303.627 1031.36 Q310.894 1022.45 323.2 1022.45 Q332.376 1022.45 338.211 1027.59 Q344.098 1032.74 345.265 1041.81 M306.279 1075.33 Q306.279 1080.26 308.348 1084.77 Q310.469 1089.28 314.235 1091.67 Q318.001 1094 322.139 1094 Q328.186 1094 332.535 1089.12 Q336.885 1084.24 336.885 1075.86 Q336.885 1067.8 332.588 1063.18 Q328.292 1058.52 321.767 1058.52 Q315.296 1058.52 310.788 1063.18 Q306.279 1067.8 306.279 1075.33 Z" fill="#000000" fill-rule="nonzero" fill-opacity="1" /><path clip-path="url(#clip160)" d="M144.5 731.465 Q144.5 717.674 147.311 709.293 Q150.176 700.86 155.745 696.298 Q161.368 691.736 169.854 691.736 Q176.113 691.736 180.834 694.282 Q185.555 696.775 188.631 701.549 Q191.708 706.27 193.458 713.112 Q195.209 719.902 195.209 731.465 Q195.209 745.15 192.397 753.584 Q189.586 761.964 183.964 766.579 Q178.394 771.141 169.854 771.141 Q158.609 771.141 152.191 763.078 Q144.5 753.372 144.5 731.465 M154.313 731.465 Q154.313 750.613 158.769 756.978 Q163.277 763.29 169.854 763.29 Q176.432 763.29 180.887 756.925 Q185.396 750.56 185.396 731.465 Q185.396 712.264 180.887 705.952 Q176.432 699.64 169.748 699.64 Q163.171 699.64 159.246 705.209 Q154.313 712.317 154.313 731.465 Z" fill="#000000" fill-rule="nonzero" fill-opacity="1" /><path clip-path="url(#clip160)" d="M210.273 769.815 L210.273 758.941 L221.146 758.941 L221.146 769.815 L210.273 769.815 Z" fill="#000000" fill-rule="nonzero" fill-opacity="1" /><path clip-path="url(#clip160)" d="M235.096 731.465 Q235.096 717.674 237.908 709.293 Q240.772 700.86 246.341 696.298 Q251.964 691.736 260.451 691.736 Q266.71 691.736 271.43 694.282 Q276.151 696.775 279.228 701.549 Q282.304 706.27 284.054 713.112 Q285.805 719.902 285.805 731.465 Q285.805 745.15 282.994 753.584 Q280.182 761.964 274.56 766.579 Q268.99 771.141 260.451 771.141 Q249.206 771.141 242.788 763.078 Q235.096 753.372 235.096 731.465 M244.909 731.465 Q244.909 750.613 249.365 756.978 Q253.873 763.29 260.451 763.29 Q267.028 763.29 271.483 756.925 Q275.992 750.56 275.992 731.465 Q275.992 712.264 271.483 705.952 Q267.028 699.64 260.345 699.64 Q253.767 699.64 249.842 705.209 Q244.909 712.317 244.909 731.465 Z" fill="#000000" fill-rule="nonzero" fill-opacity="1" /><path clip-path="url(#clip160)" d="M310.204 727.646 Q304.264 725.471 301.399 721.44 Q298.535 717.409 298.535 711.786 Q298.535 703.3 304.635 697.518 Q310.735 691.736 320.866 691.736 Q331.05 691.736 337.256 697.677 Q343.462 703.565 343.462 712.052 Q343.462 717.462 340.598 721.493 Q337.786 725.471 332.005 727.646 Q339.165 729.98 342.878 735.178 Q346.644 740.376 346.644 747.59 Q346.644 757.562 339.59 764.351 Q332.535 771.141 321.025 771.141 Q309.515 771.141 302.46 764.351 Q295.405 757.509 295.405 747.325 Q295.405 739.74 299.225 734.648 Q303.097 729.502 310.204 727.646 M308.295 711.468 Q308.295 716.985 311.849 720.485 Q315.402 723.986 321.078 723.986 Q326.594 723.986 330.095 720.538 Q333.649 717.038 333.649 711.999 Q333.649 706.747 329.989 703.194 Q326.382 699.587 320.972 699.587 Q315.509 699.587 311.902 703.087 Q308.295 706.588 308.295 711.468 M305.218 747.378 Q305.218 751.462 307.128 755.281 Q309.09 759.1 312.909 761.222 Q316.728 763.29 321.131 763.29 Q327.973 763.29 332.429 758.888 Q336.885 754.485 336.885 747.696 Q336.885 740.801 332.27 736.292 Q327.708 731.783 320.813 731.783 Q314.076 731.783 309.621 736.239 Q305.218 740.694 305.218 747.378 Z" fill="#000000" fill-rule="nonzero" fill-opacity="1" /><path clip-path="url(#clip160)" d="M144.924 400.754 Q144.924 386.963 147.736 378.582 Q150.6 370.149 156.169 365.587 Q161.792 361.025 170.279 361.025 Q176.538 361.025 181.258 363.571 Q185.979 366.064 189.056 370.838 Q192.132 375.559 193.883 382.401 Q195.633 389.191 195.633 400.754 Q195.633 414.439 192.822 422.873 Q190.01 431.253 184.388 435.868 Q178.819 440.43 170.279 440.43 Q159.034 440.43 152.616 432.367 Q144.924 422.66 144.924 400.754 M154.737 400.754 Q154.737 419.902 159.193 426.267 Q163.701 432.579 170.279 432.579 Q176.856 432.579 181.312 426.214 Q185.82 419.849 185.82 400.754 Q185.82 381.553 181.312 375.241 Q176.856 368.929 170.173 368.929 Q163.595 368.929 159.67 374.498 Q154.737 381.606 154.737 400.754 Z" fill="#000000" fill-rule="nonzero" fill-opacity="1" /><path clip-path="url(#clip160)" d="M210.697 439.104 L210.697 428.23 L221.571 428.23 L221.571 439.104 L210.697 439.104 Z" fill="#000000" fill-rule="nonzero" fill-opacity="1" /><path clip-path="url(#clip160)" d="M271.483 439.104 L261.936 439.104 L261.936 378.264 Q258.488 381.553 252.866 384.841 Q247.296 388.13 242.841 389.774 L242.841 380.545 Q250.85 376.779 256.844 371.422 Q262.838 366.064 265.33 361.025 L271.483 361.025 L271.483 439.104 Z" fill="#000000" fill-rule="nonzero" fill-opacity="1" /><path clip-path="url(#clip160)" d="M295.936 400.754 Q295.936 386.963 298.747 378.582 Q301.611 370.149 307.181 365.587 Q312.803 361.025 321.29 361.025 Q327.549 361.025 332.27 363.571 Q336.991 366.064 340.067 370.838 Q343.144 375.559 344.894 382.401 Q346.644 389.191 346.644 400.754 Q346.644 414.439 343.833 422.873 Q341.022 431.253 335.399 435.868 Q329.83 440.43 321.29 440.43 Q310.045 440.43 303.627 432.367 Q295.936 422.66 295.936 400.754 M305.749 400.754 Q305.749 419.902 310.204 426.267 Q314.713 432.579 321.29 432.579 Q327.867 432.579 332.323 426.214 Q336.832 419.849 336.832 400.754 Q336.832 381.553 332.323 375.241 Q327.867 368.929 321.184 368.929 Q314.607 368.929 310.682 374.498 Q305.749 381.606 305.749 400.754 Z" fill="#000000" fill-rule="nonzero" fill-opacity="1" /><path clip-path="url(#clip160)" d="M145.455 70.043 Q145.455 56.252 148.266 47.8713 Q151.13 39.4376 156.7 34.8759 Q162.322 30.3143 170.809 30.3143 Q177.068 30.3143 181.789 32.8603 Q186.51 35.3533 189.586 40.1271 Q192.663 44.8479 194.413 51.6903 Q196.163 58.4798 196.163 70.043 Q196.163 83.7279 193.352 92.1616 Q190.541 100.542 184.918 105.157 Q179.349 109.719 170.809 109.719 Q159.564 109.719 153.146 101.656 Q145.455 91.9494 145.455 70.043 M155.268 70.043 Q155.268 89.1912 159.723 95.5563 Q164.232 101.868 170.809 101.868 Q177.386 101.868 181.842 95.5033 Q186.351 89.1382 186.351 70.043 Q186.351 50.8417 181.842 44.5296 Q177.386 38.2176 170.703 38.2176 Q164.126 38.2176 160.201 43.787 Q155.268 50.8947 155.268 70.043 Z" fill="#000000" fill-rule="nonzero" fill-opacity="1" /><path clip-path="url(#clip160)" d="M211.227 108.393 L211.227 97.5189 L222.101 97.5189 L222.101 108.393 L211.227 108.393 Z" fill="#000000" fill-rule="nonzero" fill-opacity="1" /><path clip-path="url(#clip160)" d="M272.014 108.393 L262.466 108.393 L262.466 47.5531 Q259.018 50.8417 253.396 54.1303 Q247.827 57.4189 243.371 59.0632 L243.371 49.8339 Q251.38 46.0679 257.374 40.7106 Q263.368 35.3533 265.861 30.3143 L272.014 30.3143 L272.014 108.393 Z" fill="#000000" fill-rule="nonzero" fill-opacity="1" /><path clip-path="url(#clip160)" d="M346.644 99.2162 L346.644 108.393 L295.246 108.393 Q295.14 104.945 296.36 101.762 Q298.323 96.5111 302.619 91.419 Q306.969 86.327 315.137 79.6436 Q327.814 69.2473 332.27 63.2005 Q336.725 57.1007 336.725 51.6903 Q336.725 46.0148 332.641 42.1427 Q328.61 38.2176 322.086 38.2176 Q315.19 38.2176 311.053 42.3549 Q306.916 46.4922 306.863 53.812 L297.05 52.8042 Q298.058 41.8245 304.635 36.0959 Q311.212 30.3143 322.298 30.3143 Q333.49 30.3143 340.014 36.5203 Q346.538 42.7262 346.538 51.9025 Q346.538 56.5702 344.629 61.0788 Q342.719 65.5874 338.264 70.5734 Q333.861 75.5594 323.571 84.2583 Q314.978 91.4721 312.538 94.0711 Q310.098 96.6172 308.507 99.2162 L346.644 99.2162 Z" fill="#000000" fill-rule="nonzero" fill-opacity="1" /><path clip-path="url(#clip160)" d="M85.1722 789.513 L7.41216 789.513 L7.41216 779.965 L85.1722 779.965 L85.1722 789.513 Z" fill="#000000" fill-rule="nonzero" fill-opacity="1" /><path clip-path="url(#clip160)" d="M57.0067 768.72 Q41.3592 768.72 33.8272 760.021 Q27.5682 752.754 27.5682 742.305 Q27.5682 730.689 35.2063 723.316 Q42.7914 715.943 56.2111 715.943 Q67.0847 715.943 73.3437 719.232 Q79.5497 722.467 82.9974 728.726 Q86.4452 734.932 86.4452 742.305 Q86.4452 754.133 78.8601 761.453 Q71.2751 768.72 57.0067 768.72 M57.0067 758.907 Q67.8273 758.907 73.2376 754.186 Q78.5949 749.466 78.5949 742.305 Q78.5949 735.197 73.1846 730.476 Q67.7743 725.756 56.6884 725.756 Q46.2391 725.756 40.8818 730.53 Q35.4715 735.25 35.4715 742.305 Q35.4715 749.466 40.8288 754.186 Q46.1861 758.907 57.0067 758.907 Z" fill="#000000" fill-rule="nonzero" fill-opacity="1" /><path clip-path="url(#clip160)" d="M68.3578 708.57 L66.8726 699.128 Q72.5481 698.333 75.5715 694.726 Q78.5949 691.066 78.5949 684.542 Q78.5949 677.965 75.9428 674.782 Q73.2376 671.6 69.6308 671.6 Q66.3952 671.6 64.5387 674.411 Q63.2657 676.373 61.3031 684.171 Q58.651 694.673 56.7415 698.757 Q54.7789 702.788 51.3842 704.91 Q47.9365 706.979 43.7992 706.979 Q40.0332 706.979 36.8506 705.281 Q33.615 703.531 31.4934 700.561 Q29.849 698.333 28.7352 694.514 Q27.5682 690.642 27.5682 686.239 Q27.5682 679.609 29.4778 674.623 Q31.3873 669.584 34.6759 667.197 Q37.9115 664.81 43.3748 663.908 L44.6478 673.244 Q40.2984 673.88 37.8584 676.957 Q35.4185 679.98 35.4185 685.55 Q35.4185 692.127 37.5932 694.938 Q39.768 697.749 42.6853 697.749 Q44.5418 697.749 46.0269 696.582 Q47.5652 695.416 48.573 692.923 Q49.1034 691.49 51.0129 684.489 Q53.7181 674.358 55.4685 670.38 Q57.1658 666.348 60.4544 664.068 Q63.7431 661.787 68.623 661.787 Q73.3968 661.787 77.6402 664.598 Q81.8305 667.356 84.1644 672.607 Q86.4452 677.859 86.4452 684.489 Q86.4452 695.469 81.8835 701.25 Q77.3219 706.979 68.3578 708.57 Z" fill="#000000" fill-rule="nonzero" fill-opacity="1" /><path clip-path="url(#clip160)" d="M68.3578 654.255 L66.8726 644.813 Q72.5481 644.018 75.5715 640.411 Q78.5949 636.751 78.5949 630.227 Q78.5949 623.649 75.9428 620.467 Q73.2376 617.284 69.6308 617.284 Q66.3952 617.284 64.5387 620.095 Q63.2657 622.058 61.3031 629.855 Q58.651 640.358 56.7415 644.442 Q54.7789 648.473 51.3842 650.595 Q47.9365 652.663 43.7992 652.663 Q40.0332 652.663 36.8506 650.966 Q33.615 649.216 31.4934 646.245 Q29.849 644.018 28.7352 640.198 Q27.5682 636.326 27.5682 631.924 Q27.5682 625.294 29.4778 620.308 Q31.3873 615.269 34.6759 612.882 Q37.9115 610.495 43.3748 609.593 L44.6478 618.929 Q40.2984 619.565 37.8584 622.641 Q35.4185 625.665 35.4185 631.234 Q35.4185 637.812 37.5932 640.623 Q39.768 643.434 42.6853 643.434 Q44.5418 643.434 46.0269 642.267 Q47.5652 641.1 48.573 638.607 Q49.1034 637.175 51.0129 630.173 Q53.7181 620.042 55.4685 616.064 Q57.1658 612.033 60.4544 609.752 Q63.7431 607.471 68.623 607.471 Q73.3968 607.471 77.6402 610.283 Q81.8305 613.041 84.1644 618.292 Q86.4452 623.543 86.4452 630.173 Q86.4452 641.153 81.8835 646.935 Q77.3219 652.663 68.3578 654.255 Z" fill="#000000" fill-rule="nonzero" fill-opacity="1" /><polyline clip-path="url(#clip162)" style="stroke:#009af9; stroke-linecap:round; stroke-linejoin:round; stroke-width:8; stroke-opacity:1; fill:none" points="382.644,47.2441 534.191,989.269 685.738,1159.6 837.285,1252.28 988.833,1304.28 1140.38,1330.26 1291.93,1341.53 1443.47,1345.89 1595.02,1347.48 1746.57,1348.08 1898.11,1348.44 2049.66,1348.81 2201.21,1349.25 2352.76,1349.74 "/>
<circle clip-path="url(#clip162)" cx="382.644" cy="47.2441" r="3.6" fill="#009af9" fill-rule="evenodd" fill-opacity="1" stroke="#000000" stroke-opacity="1" stroke-width="3.2"/>
<circle clip-path="url(#clip162)" cx="534.191" cy="989.269" r="3.6" fill="#009af9" fill-rule="evenodd" fill-opacity="1" stroke="#000000" stroke-opacity="1" stroke-width="3.2"/>
<circle clip-path="url(#clip162)" cx="685.738" cy="1159.6" r="3.6" fill="#009af9" fill-rule="evenodd" fill-opacity="1" stroke="#000000" stroke-opacity="1" stroke-width="3.2"/>
<circle clip-path="url(#clip162)" cx="837.285" cy="1252.28" r="3.6" fill="#009af9" fill-rule="evenodd" fill-opacity="1" stroke="#000000" stroke-opacity="1" stroke-width="3.2"/>
<circle clip-path="url(#clip162)" cx="988.833" cy="1304.28" r="3.6" fill="#009af9" fill-rule="evenodd" fill-opacity="1" stroke="#000000" stroke-opacity="1" stroke-width="3.2"/>
<circle clip-path="url(#clip162)" cx="1140.38" cy="1330.26" r="3.6" fill="#009af9" fill-rule="evenodd" fill-opacity="1" stroke="#000000" stroke-opacity="1" stroke-width="3.2"/>
<circle clip-path="url(#clip162)" cx="1291.93" cy="1341.53" r="3.6" fill="#009af9" fill-rule="evenodd" fill-opacity="1" stroke="#000000" stroke-opacity="1" stroke-width="3.2"/>
<circle clip-path="url(#clip162)" cx="1443.47" cy="1345.89" r="3.6" fill="#009af9" fill-rule="evenodd" fill-opacity="1" stroke="#000000" stroke-opacity="1" stroke-width="3.2"/>
<circle clip-path="url(#clip162)" cx="1595.02" cy="1347.48" r="3.6" fill="#009af9" fill-rule="evenodd" fill-opacity="1" stroke="#000000" stroke-opacity="1" stroke-width="3.2"/>
<circle clip-path="url(#clip162)" cx="1746.57" cy="1348.08" r="3.6" fill="#009af9" fill-rule="evenodd" fill-opacity="1" stroke="#000000" stroke-opacity="1" stroke-width="3.2"/>
<circle clip-path="url(#clip162)" cx="1898.11" cy="1348.44" r="3.6" fill="#009af9" fill-rule="evenodd" fill-opacity="1" stroke="#000000" stroke-opacity="1" stroke-width="3.2"/>
<circle clip-path="url(#clip162)" cx="2049.66" cy="1348.81" r="3.6" fill="#009af9" fill-rule="evenodd" fill-opacity="1" stroke="#000000" stroke-opacity="1" stroke-width="3.2"/>
<circle clip-path="url(#clip162)" cx="2201.21" cy="1349.25" r="3.6" fill="#009af9" fill-rule="evenodd" fill-opacity="1" stroke="#000000" stroke-opacity="1" stroke-width="3.2"/>
<circle clip-path="url(#clip162)" cx="2352.76" cy="1349.74" r="3.6" fill="#009af9" fill-rule="evenodd" fill-opacity="1" stroke="#000000" stroke-opacity="1" stroke-width="3.2"/>
<polyline clip-path="url(#clip162)" style="stroke:#e26f46; stroke-linecap:round; stroke-linejoin:round; stroke-width:8; stroke-opacity:1; fill:none" points="382.644,684.827 534.191,991.655 685.738,1097.13 837.285,1125.16 988.833,1126.54 1140.38,1119.22 1291.93,1110.7 1443.47,1103.73 1595.02,1098.68 1746.57,1095.46 1898.11,1093.63 2049.66,1092.79 2201.21,1092.61 2352.76,1092.84 "/>
<circle clip-path="url(#clip162)" cx="382.644" cy="684.827" r="3.6" fill="#e26f46" fill-rule="evenodd" fill-opacity="1" stroke="#000000" stroke-opacity="1" stroke-width="3.2"/>
<circle clip-path="url(#clip162)" cx="534.191" cy="991.655" r="3.6" fill="#e26f46" fill-rule="evenodd" fill-opacity="1" stroke="#000000" stroke-opacity="1" stroke-width="3.2"/>
<circle clip-path="url(#clip162)" cx="685.738" cy="1097.13" r="3.6" fill="#e26f46" fill-rule="evenodd" fill-opacity="1" stroke="#000000" stroke-opacity="1" stroke-width="3.2"/>
<circle clip-path="url(#clip162)" cx="837.285" cy="1125.16" r="3.6" fill="#e26f46" fill-rule="evenodd" fill-opacity="1" stroke="#000000" stroke-opacity="1" stroke-width="3.2"/>
<circle clip-path="url(#clip162)" cx="988.833" cy="1126.54" r="3.6" fill="#e26f46" fill-rule="evenodd" fill-opacity="1" stroke="#000000" stroke-opacity="1" stroke-width="3.2"/>
<circle clip-path="url(#clip162)" cx="1140.38" cy="1119.22" r="3.6" fill="#e26f46" fill-rule="evenodd" fill-opacity="1" stroke="#000000" stroke-opacity="1" stroke-width="3.2"/>
<circle clip-path="url(#clip162)" cx="1291.93" cy="1110.7" r="3.6" fill="#e26f46" fill-rule="evenodd" fill-opacity="1" stroke="#000000" stroke-opacity="1" stroke-width="3.2"/>
<circle clip-path="url(#clip162)" cx="1443.47" cy="1103.73" r="3.6" fill="#e26f46" fill-rule="evenodd" fill-opacity="1" stroke="#000000" stroke-opacity="1" stroke-width="3.2"/>
<circle clip-path="url(#clip162)" cx="1595.02" cy="1098.68" r="3.6" fill="#e26f46" fill-rule="evenodd" fill-opacity="1" stroke="#000000" stroke-opacity="1" stroke-width="3.2"/>
<circle clip-path="url(#clip162)" cx="1746.57" cy="1095.46" r="3.6" fill="#e26f46" fill-rule="evenodd" fill-opacity="1" stroke="#000000" stroke-opacity="1" stroke-width="3.2"/>
<circle clip-path="url(#clip162)" cx="1898.11" cy="1093.63" r="3.6" fill="#e26f46" fill-rule="evenodd" fill-opacity="1" stroke="#000000" stroke-opacity="1" stroke-width="3.2"/>
<circle clip-path="url(#clip162)" cx="2049.66" cy="1092.79" r="3.6" fill="#e26f46" fill-rule="evenodd" fill-opacity="1" stroke="#000000" stroke-opacity="1" stroke-width="3.2"/>
<circle clip-path="url(#clip162)" cx="2201.21" cy="1092.61" r="3.6" fill="#e26f46" fill-rule="evenodd" fill-opacity="1" stroke="#000000" stroke-opacity="1" stroke-width="3.2"/>
<circle clip-path="url(#clip162)" cx="2352.76" cy="1092.84" r="3.6" fill="#e26f46" fill-rule="evenodd" fill-opacity="1" stroke="#000000" stroke-opacity="1" stroke-width="3.2"/>
<path clip-path="url(#clip160)" d="M1631.26 440.581 L2287.09 440.581 L2287.09 90.6606 L1631.26 90.6606  Z" fill="#ffffff" fill-rule="evenodd" fill-opacity="1"/>
<polyline clip-path="url(#clip160)" style="stroke:#000000; stroke-linecap:round; stroke-linejoin:round; stroke-width:4; stroke-opacity:1; fill:none" points="1631.26,440.581 2287.09,440.581 2287.09,90.6606 1631.26,90.6606 1631.26,440.581 "/>
<polyline clip-path="url(#clip160)" style="stroke:#009af9; stroke-linecap:round; stroke-linejoin:round; stroke-width:18; stroke-opacity:1; fill:none" points="1653.15,207.301 1784.49,207.301 "/>
<circle clip-path="url(#clip160)" cx="1718.82" cy="207.301" r="8.10746" fill="#009af9" fill-rule="evenodd" fill-opacity="1" stroke="#000000" stroke-opacity="1" stroke-width="7.20663"/>
<path clip-path="url(#clip160)" d="M1832.48 237.641 L1833.86 246.075 Q1829.82 246.923 1826.64 246.923 Q1821.44 246.923 1818.58 245.279 Q1815.72 243.635 1814.55 240.982 Q1813.38 238.277 1813.38 229.684 L1813.38 197.276 L1806.38 197.276 L1806.38 189.85 L1813.38 189.85 L1813.38 175.9 L1822.88 170.171 L1822.88 189.85 L1832.48 189.85 L1832.48 197.276 L1822.88 197.276 L1822.88 230.215 Q1822.88 234.299 1823.35 235.466 Q1823.88 236.633 1825 237.323 Q1826.16 238.012 1828.29 238.012 Q1829.88 238.012 1832.48 237.641 Z" fill="#000000" fill-rule="nonzero" fill-opacity="1" /><path clip-path="url(#clip160)" d="M1841.71 246.181 L1841.71 189.85 L1850.3 189.85 L1850.3 198.39 Q1853.59 192.396 1856.35 190.486 Q1859.16 188.577 1862.5 188.577 Q1867.33 188.577 1872.31 191.653 L1869.02 200.511 Q1865.52 198.443 1862.02 198.443 Q1858.89 198.443 1856.4 200.352 Q1853.91 202.209 1852.84 205.55 Q1851.25 210.642 1851.25 216.689 L1851.25 246.181 L1841.71 246.181 Z" fill="#000000" fill-rule="nonzero" fill-opacity="1" /><path clip-path="url(#clip160)" d="M1914.74 239.232 Q1909.44 243.741 1904.51 245.597 Q1899.63 247.454 1894.01 247.454 Q1884.72 247.454 1879.74 242.945 Q1874.75 238.383 1874.75 231.329 Q1874.75 227.191 1876.61 223.797 Q1878.52 220.349 1881.54 218.28 Q1884.62 216.212 1888.44 215.151 Q1891.25 214.408 1896.92 213.719 Q1908.49 212.34 1913.95 210.43 Q1914 208.468 1914 207.937 Q1914 202.102 1911.3 199.716 Q1907.64 196.48 1900.42 196.48 Q1893.69 196.48 1890.45 198.867 Q1887.27 201.201 1885.73 207.195 L1876.4 205.922 Q1877.67 199.928 1880.59 196.268 Q1883.5 192.555 1889.02 190.592 Q1894.54 188.577 1901.8 188.577 Q1909.02 188.577 1913.52 190.274 Q1918.03 191.971 1920.16 194.57 Q1922.28 197.116 1923.13 201.042 Q1923.6 203.482 1923.6 209.847 L1923.6 222.577 Q1923.6 235.89 1924.19 239.444 Q1924.82 242.945 1926.63 246.181 L1916.65 246.181 Q1915.17 243.21 1914.74 239.232 M1913.95 217.909 Q1908.75 220.031 1898.35 221.516 Q1892.47 222.365 1890.03 223.425 Q1887.59 224.486 1886.26 226.555 Q1884.94 228.571 1884.94 231.064 Q1884.94 234.883 1887.8 237.429 Q1890.72 239.975 1896.29 239.975 Q1901.8 239.975 1906.1 237.588 Q1910.4 235.148 1912.41 230.957 Q1913.95 227.722 1913.95 221.41 L1913.95 217.909 Z" fill="#000000" fill-rule="nonzero" fill-opacity="1" /><path clip-path="url(#clip160)" d="M1938.45 179.4 L1938.45 168.421 L1948 168.421 L1948 179.4 L1938.45 179.4 M1938.45 246.181 L1938.45 189.85 L1948 189.85 L1948 246.181 L1938.45 246.181 Z" fill="#000000" fill-rule="nonzero" fill-opacity="1" /><path clip-path="url(#clip160)" d="M1962.54 246.181 L1962.54 189.85 L1971.13 189.85 L1971.13 197.859 Q1977.33 188.577 1989.06 188.577 Q1994.15 188.577 1998.39 190.433 Q2002.69 192.237 2004.81 195.207 Q2006.93 198.177 2007.78 202.262 Q2008.31 204.914 2008.31 211.544 L2008.31 246.181 L1998.76 246.181 L1998.76 211.915 Q1998.76 206.081 1997.65 203.216 Q1996.54 200.299 1993.67 198.602 Q1990.86 196.851 1987.04 196.851 Q1980.94 196.851 1976.49 200.723 Q1972.08 204.595 1972.08 215.416 L1972.08 246.181 L1962.54 246.181 Z" fill="#000000" fill-rule="nonzero" fill-opacity="1" /><path clip-path="url(#clip160)" d="M2014.15 267.769 L2014.15 260.873 L2077.43 260.873 L2077.43 267.769 L2014.15 267.769 Z" fill="#000000" fill-rule="nonzero" fill-opacity="1" /><path clip-path="url(#clip160)" d="M2083.15 246.181 L2083.15 168.421 L2092.7 168.421 L2092.7 246.181 L2083.15 246.181 Z" fill="#000000" fill-rule="nonzero" fill-opacity="1" /><path clip-path="url(#clip160)" d="M2103.95 218.015 Q2103.95 202.368 2112.65 194.836 Q2119.91 188.577 2130.36 188.577 Q2141.98 188.577 2149.35 196.215 Q2156.72 203.8 2156.72 217.22 Q2156.72 228.093 2153.44 234.352 Q2150.2 240.558 2143.94 244.006 Q2137.73 247.454 2130.36 247.454 Q2118.53 247.454 2111.21 239.869 Q2103.95 232.284 2103.95 218.015 M2113.76 218.015 Q2113.76 228.836 2118.48 234.246 Q2123.2 239.603 2130.36 239.603 Q2137.47 239.603 2142.19 234.193 Q2146.91 228.783 2146.91 217.697 Q2146.91 207.248 2142.14 201.89 Q2137.42 196.48 2130.36 196.48 Q2123.2 196.48 2118.48 201.837 Q2113.76 207.195 2113.76 218.015 Z" fill="#000000" fill-rule="nonzero" fill-opacity="1" /><path clip-path="url(#clip160)" d="M2164.1 229.366 L2173.54 227.881 Q2174.33 233.557 2177.94 236.58 Q2181.6 239.603 2188.12 239.603 Q2194.7 239.603 2197.88 236.951 Q2201.07 234.246 2201.07 230.639 Q2201.07 227.404 2198.26 225.547 Q2196.29 224.274 2188.5 222.312 Q2177.99 219.659 2173.91 217.75 Q2169.88 215.787 2167.76 212.393 Q2165.69 208.945 2165.69 204.808 Q2165.69 201.042 2167.39 197.859 Q2169.14 194.624 2172.11 192.502 Q2174.33 190.858 2178.15 189.744 Q2182.03 188.577 2186.43 188.577 Q2193.06 188.577 2198.04 190.486 Q2203.08 192.396 2205.47 195.684 Q2207.86 198.92 2208.76 204.383 L2199.42 205.656 Q2198.79 201.307 2195.71 198.867 Q2192.69 196.427 2187.12 196.427 Q2180.54 196.427 2177.73 198.602 Q2174.92 200.776 2174.92 203.694 Q2174.92 205.55 2176.08 207.035 Q2177.25 208.574 2179.74 209.581 Q2181.18 210.112 2188.18 212.021 Q2198.31 214.727 2202.29 216.477 Q2206.32 218.174 2208.6 221.463 Q2210.88 224.752 2210.88 229.631 Q2210.88 234.405 2208.07 238.649 Q2205.31 242.839 2200.06 245.173 Q2194.81 247.454 2188.18 247.454 Q2177.2 247.454 2171.42 242.892 Q2165.69 238.33 2164.1 229.366 Z" fill="#000000" fill-rule="nonzero" fill-opacity="1" /><path clip-path="url(#clip160)" d="M2218.41 229.366 L2227.85 227.881 Q2228.65 233.557 2232.26 236.58 Q2235.92 239.603 2242.44 239.603 Q2249.02 239.603 2252.2 236.951 Q2255.38 234.246 2255.38 230.639 Q2255.38 227.404 2252.57 225.547 Q2250.61 224.274 2242.81 222.312 Q2232.31 219.659 2228.22 217.75 Q2224.19 215.787 2222.07 212.393 Q2220 208.945 2220 204.808 Q2220 201.042 2221.7 197.859 Q2223.45 194.624 2226.42 192.502 Q2228.65 190.858 2232.47 189.744 Q2236.34 188.577 2240.74 188.577 Q2247.37 188.577 2252.36 190.486 Q2257.4 192.396 2259.79 195.684 Q2262.17 198.92 2263.07 204.383 L2253.74 205.656 Q2253.1 201.307 2250.03 198.867 Q2247 196.427 2241.43 196.427 Q2234.86 196.427 2232.04 198.602 Q2229.23 200.776 2229.23 203.694 Q2229.23 205.55 2230.4 207.035 Q2231.57 208.574 2234.06 209.581 Q2235.49 210.112 2242.49 212.021 Q2252.62 214.727 2256.6 216.477 Q2260.63 218.174 2262.91 221.463 Q2265.2 224.752 2265.2 229.631 Q2265.2 234.405 2262.38 238.649 Q2259.63 242.839 2254.37 245.173 Q2249.12 247.454 2242.49 247.454 Q2231.51 247.454 2225.73 242.892 Q2220 238.33 2218.41 229.366 Z" fill="#000000" fill-rule="nonzero" fill-opacity="1" /><polyline clip-path="url(#clip160)" style="stroke:#e26f46; stroke-linecap:round; stroke-linejoin:round; stroke-width:18; stroke-opacity:1; fill:none" points="1653.15,323.941 1784.49,323.941 "/>
<circle clip-path="url(#clip160)" cx="1718.82" cy="323.941" r="8.10746" fill="#e26f46" fill-rule="evenodd" fill-opacity="1" stroke="#000000" stroke-opacity="1" stroke-width="7.20663"/>
<path clip-path="url(#clip160)" d="M1827.81 362.821 L1806.38 306.49 L1816.46 306.49 L1828.55 340.225 Q1830.51 345.688 1832.16 351.576 Q1833.43 347.12 1835.71 340.861 L1848.23 306.49 L1858.04 306.49 L1836.72 362.821 L1827.81 362.821 Z" fill="#000000" fill-rule="nonzero" fill-opacity="1" /><path clip-path="url(#clip160)" d="M1903.23 355.872 Q1897.93 360.381 1893 362.237 Q1888.12 364.094 1882.5 364.094 Q1873.21 364.094 1868.23 359.585 Q1863.24 355.023 1863.24 347.969 Q1863.24 343.831 1865.1 340.437 Q1867.01 336.989 1870.03 334.92 Q1873.11 332.852 1876.93 331.791 Q1879.74 331.048 1885.41 330.359 Q1896.98 328.98 1902.44 327.07 Q1902.49 325.108 1902.49 324.577 Q1902.49 318.742 1899.79 316.356 Q1896.13 313.12 1888.91 313.12 Q1882.18 313.12 1878.94 315.507 Q1875.76 317.841 1874.22 323.835 L1864.89 322.562 Q1866.16 316.568 1869.08 312.908 Q1871.99 309.195 1877.51 307.232 Q1883.03 305.217 1890.29 305.217 Q1897.51 305.217 1902.01 306.914 Q1906.52 308.611 1908.65 311.21 Q1910.77 313.756 1911.62 317.682 Q1912.09 320.122 1912.09 326.487 L1912.09 339.217 Q1912.09 352.53 1912.68 356.084 Q1913.31 359.585 1915.12 362.821 L1905.14 362.821 Q1903.66 359.85 1903.23 355.872 M1902.44 334.549 Q1897.24 336.671 1886.84 338.156 Q1880.96 339.005 1878.52 340.065 Q1876.08 341.126 1874.75 343.195 Q1873.43 345.211 1873.43 347.704 Q1873.43 351.523 1876.29 354.069 Q1879.21 356.615 1884.78 356.615 Q1890.29 356.615 1894.59 354.228 Q1898.89 351.788 1900.9 347.597 Q1902.44 344.362 1902.44 338.05 L1902.44 334.549 Z" fill="#000000" fill-rule="nonzero" fill-opacity="1" /><path clip-path="url(#clip160)" d="M1926.68 362.821 L1926.68 285.061 L1936.23 285.061 L1936.23 362.821 L1926.68 362.821 Z" fill="#000000" fill-rule="nonzero" fill-opacity="1" /><path clip-path="url(#clip160)" d="M1942.22 384.409 L1942.22 377.513 L2005.5 377.513 L2005.5 384.409 L1942.22 384.409 Z" fill="#000000" fill-rule="nonzero" fill-opacity="1" /><path clip-path="url(#clip160)" d="M2011.23 362.821 L2011.23 285.061 L2020.78 285.061 L2020.78 362.821 L2011.23 362.821 Z" fill="#000000" fill-rule="nonzero" fill-opacity="1" /><path clip-path="url(#clip160)" d="M2032.02 334.655 Q2032.02 319.008 2040.72 311.476 Q2047.99 305.217 2058.44 305.217 Q2070.05 305.217 2077.43 312.855 Q2084.8 320.44 2084.8 333.86 Q2084.8 344.733 2081.51 350.992 Q2078.27 357.198 2072.02 360.646 Q2065.81 364.094 2058.44 364.094 Q2046.61 364.094 2039.29 356.509 Q2032.02 348.924 2032.02 334.655 M2041.83 334.655 Q2041.83 345.476 2046.56 350.886 Q2051.28 356.243 2058.44 356.243 Q2065.54 356.243 2070.26 350.833 Q2074.99 345.423 2074.99 334.337 Q2074.99 323.888 2070.21 318.53 Q2065.49 313.12 2058.44 313.12 Q2051.28 313.12 2046.56 318.477 Q2041.83 323.835 2041.83 334.655 Z" fill="#000000" fill-rule="nonzero" fill-opacity="1" /><path clip-path="url(#clip160)" d="M2092.17 346.006 L2101.61 344.521 Q2102.41 350.197 2106.02 353.22 Q2109.68 356.243 2116.2 356.243 Q2122.78 356.243 2125.96 353.591 Q2129.14 350.886 2129.14 347.279 Q2129.14 344.044 2126.33 342.187 Q2124.37 340.914 2116.57 338.952 Q2106.07 336.299 2101.98 334.39 Q2097.95 332.427 2095.83 329.033 Q2093.76 325.585 2093.76 321.448 Q2093.76 317.682 2095.46 314.499 Q2097.21 311.264 2100.18 309.142 Q2102.41 307.498 2106.23 306.384 Q2110.1 305.217 2114.5 305.217 Q2121.13 305.217 2126.12 307.126 Q2131.16 309.036 2133.54 312.324 Q2135.93 315.56 2136.83 321.023 L2127.5 322.296 Q2126.86 317.947 2123.78 315.507 Q2120.76 313.067 2115.19 313.067 Q2108.61 313.067 2105.8 315.242 Q2102.99 317.416 2102.99 320.334 Q2102.99 322.19 2104.16 323.675 Q2105.33 325.214 2107.82 326.221 Q2109.25 326.752 2116.25 328.661 Q2126.38 331.367 2130.36 333.117 Q2134.39 334.814 2136.67 338.103 Q2138.95 341.392 2138.95 346.271 Q2138.95 351.045 2136.14 355.289 Q2133.39 359.479 2128.13 361.813 Q2122.88 364.094 2116.25 364.094 Q2105.27 364.094 2099.49 359.532 Q2093.76 354.97 2092.17 346.006 Z" fill="#000000" fill-rule="nonzero" fill-opacity="1" /><path clip-path="url(#clip160)" d="M2146.49 346.006 L2155.93 344.521 Q2156.72 350.197 2160.33 353.22 Q2163.99 356.243 2170.51 356.243 Q2177.09 356.243 2180.27 353.591 Q2183.46 350.886 2183.46 347.279 Q2183.46 344.044 2180.65 342.187 Q2178.68 340.914 2170.89 338.952 Q2160.38 336.299 2156.3 334.39 Q2152.27 332.427 2150.15 329.033 Q2148.08 325.585 2148.08 321.448 Q2148.08 317.682 2149.78 314.499 Q2151.53 311.264 2154.5 309.142 Q2156.72 307.498 2160.54 306.384 Q2164.42 305.217 2168.82 305.217 Q2175.45 305.217 2180.43 307.126 Q2185.47 309.036 2187.86 312.324 Q2190.25 315.56 2191.15 321.023 L2181.81 322.296 Q2181.18 317.947 2178.1 315.507 Q2175.08 313.067 2169.51 313.067 Q2162.93 313.067 2160.12 315.242 Q2157.31 317.416 2157.31 320.334 Q2157.31 322.19 2158.47 323.675 Q2159.64 325.214 2162.13 326.221 Q2163.57 326.752 2170.57 328.661 Q2180.7 331.367 2184.68 333.117 Q2188.71 334.814 2190.99 338.103 Q2193.27 341.392 2193.27 346.271 Q2193.27 351.045 2190.46 355.289 Q2187.7 359.479 2182.45 361.813 Q2177.2 364.094 2170.57 364.094 Q2159.59 364.094 2153.81 359.532 Q2148.08 354.97 2146.49 346.006 Z" fill="#000000" fill-rule="nonzero" fill-opacity="1" /></svg>
