<?xml version="1.0" encoding="utf-8"?>
<svg xmlns="http://www.w3.org/2000/svg" xmlns:xlink="http://www.w3.org/1999/xlink" width="600" height="400" viewBox="0 0 2400 1600">
<defs>
  <clipPath id="clip700">
    <rect x="0" y="0" width="2400" height="1600"/>
  </clipPath>
</defs>
<path clip-path="url(#clip700)" d="M0 1600 L2400 1600 L2400 8.88178e-14 L0 8.88178e-14  Z" fill="#ffffff" fill-rule="evenodd" fill-opacity="1"/>
<defs>
  <clipPath id="clip701">
    <rect x="480" y="0" width="1681" height="1600"/>
  </clipPath>
</defs>
<path clip-path="url(#clip700)" d="M322.229 1349.74 L2352.76 1349.74 L2352.76 47.2441 L322.229 47.2441  Z" fill="#ffffff" fill-rule="evenodd" fill-opacity="1"/>
<defs>
  <clipPath id="clip702">
    <rect x="322" y="47" width="2032" height="1303"/>
  </clipPath>
</defs>
<polyline clip-path="url(#clip700)" style="stroke:#000000; stroke-linecap:round; stroke-linejoin:round; stroke-width:4; stroke-opacity:1; fill:none" points="322.229,1349.74 2352.76,1349.74 "/>
<polyline clip-path="url(#clip700)" style="stroke:#000000; stroke-linecap:round; stroke-linejoin:round; stroke-width:2; stroke-opacity:0.5; fill:none" points="322.229,47.2441 2352.76,47.2441 "/>
<polyline clip-path="url(#clip700)" style="stroke:#000000; stroke-linecap:round; stroke-linejoin:round; stroke-width:4; stroke-opacity:1; fill:none" points="730.479,1349.74 730.479,1330.84 "/>
<polyline clip-path="url(#clip700)" style="stroke:#000000; stroke-linecap:round; stroke-linejoin:round; stroke-width:4; stroke-opacity:1; fill:none" points="1147.23,1349.74 1147.23,1330.84 "/>
<polyline clip-path="url(#clip700)" style="stroke:#000000; stroke-linecap:round; stroke-linejoin:round; stroke-width:4; stroke-opacity:1; fill:none" points="1563.98,1349.74 1563.98,1330.84 "/>
<polyline clip-path="url(#clip700)" style="stroke:#000000; stroke-linecap:round; stroke-linejoin:round; stroke-width:4; stroke-opacity:1; fill:none" points="1980.74,1349.74 1980.74,1330.84 "/>
<path clip-path="url(#clip700)" d="M660.092 1427.79 Q660.092 1414 662.903 1405.62 Q665.767 1397.18 671.337 1392.62 Q676.959 1388.06 685.446 1388.06 Q691.705 1388.06 696.426 1390.61 Q701.146 1393.1 704.223 1397.87 Q707.299 1402.6 709.05 1409.44 Q710.8 1416.23 710.8 1427.79 Q710.8 1441.48 707.989 1449.91 Q705.177 1458.29 699.555 1462.9 Q693.986 1467.47 685.446 1467.47 Q674.201 1467.47 667.783 1459.4 Q660.092 1449.7 660.092 1427.79 M669.904 1427.79 Q669.904 1446.94 674.36 1453.3 Q678.869 1459.62 685.446 1459.62 Q692.023 1459.62 696.479 1453.25 Q700.987 1446.89 700.987 1427.79 Q700.987 1408.59 696.479 1402.28 Q692.023 1395.96 685.34 1395.96 Q678.762 1395.96 674.837 1401.53 Q669.904 1408.64 669.904 1427.79 Z" fill="#000000" fill-rule="nonzero" fill-opacity="1" /><path clip-path="url(#clip700)" d="M725.864 1466.14 L725.864 1455.27 L736.738 1455.27 L736.738 1466.14 L725.864 1466.14 Z" fill="#000000" fill-rule="nonzero" fill-opacity="1" /><path clip-path="url(#clip700)" d="M800.866 1456.96 L800.866 1466.14 L749.468 1466.14 Q749.362 1462.69 750.582 1459.51 Q752.544 1454.26 756.841 1449.17 Q761.19 1444.07 769.359 1437.39 Q782.036 1426.99 786.491 1420.95 Q790.947 1414.85 790.947 1409.44 Q790.947 1403.76 786.863 1399.89 Q782.831 1395.96 776.307 1395.96 Q769.412 1395.96 765.274 1400.1 Q761.137 1404.24 761.084 1411.56 L751.271 1410.55 Q752.279 1399.57 758.856 1393.84 Q765.434 1388.06 776.519 1388.06 Q787.711 1388.06 794.236 1394.27 Q800.76 1400.47 800.76 1409.65 Q800.76 1414.32 798.85 1418.83 Q796.941 1423.33 792.485 1428.32 Q788.083 1433.31 777.792 1442.01 Q769.2 1449.22 766.76 1451.82 Q764.32 1454.36 762.728 1456.96 L800.866 1456.96 Z" fill="#000000" fill-rule="nonzero" fill-opacity="1" /><path clip-path="url(#clip700)" d="M1076.61 1427.79 Q1076.61 1414 1079.42 1405.62 Q1082.28 1397.18 1087.85 1392.62 Q1093.47 1388.06 1101.96 1388.06 Q1108.22 1388.06 1112.94 1390.61 Q1117.66 1393.1 1120.74 1397.87 Q1123.81 1402.6 1125.56 1409.44 Q1127.31 1416.23 1127.31 1427.79 Q1127.31 1441.48 1124.5 1449.91 Q1121.69 1458.29 1116.07 1462.9 Q1110.5 1467.47 1101.96 1467.47 Q1090.71 1467.47 1084.3 1459.4 Q1076.61 1449.7 1076.61 1427.79 M1086.42 1427.79 Q1086.42 1446.94 1090.87 1453.3 Q1095.38 1459.62 1101.96 1459.62 Q1108.54 1459.62 1112.99 1453.25 Q1117.5 1446.89 1117.5 1427.79 Q1117.5 1408.59 1112.99 1402.28 Q1108.54 1395.96 1101.85 1395.96 Q1095.28 1395.96 1091.35 1401.53 Q1086.42 1408.64 1086.42 1427.79 Z" fill="#000000" fill-rule="nonzero" fill-opacity="1" /><path clip-path="url(#clip700)" d="M1142.38 1466.14 L1142.38 1455.27 L1153.25 1455.27 L1153.25 1466.14 L1142.38 1466.14 Z" fill="#000000" fill-rule="nonzero" fill-opacity="1" /><path clip-path="url(#clip700)" d="M1197.81 1466.14 L1197.81 1447.52 L1164.07 1447.52 L1164.07 1438.77 L1199.56 1388.38 L1207.35 1388.38 L1207.35 1438.77 L1217.86 1438.77 L1217.86 1447.52 L1207.35 1447.52 L1207.35 1466.14 L1197.81 1466.14 M1197.81 1438.77 L1197.81 1403.71 L1173.46 1438.77 L1197.81 1438.77 Z" fill="#000000" fill-rule="nonzero" fill-opacity="1" /><path clip-path="url(#clip700)" d="M1493.22 1427.79 Q1493.22 1414 1496.04 1405.62 Q1498.9 1397.18 1504.47 1392.62 Q1510.09 1388.06 1518.58 1388.06 Q1524.84 1388.06 1529.56 1390.61 Q1534.28 1393.1 1537.36 1397.87 Q1540.43 1402.6 1542.18 1409.44 Q1543.93 1416.23 1543.93 1427.79 Q1543.93 1441.48 1541.12 1449.91 Q1538.31 1458.29 1532.69 1462.9 Q1527.12 1467.47 1518.58 1467.47 Q1507.33 1467.47 1500.92 1459.4 Q1493.22 1449.7 1493.22 1427.79 M1503.04 1427.79 Q1503.04 1446.94 1507.49 1453.3 Q1512 1459.62 1518.58 1459.62 Q1525.16 1459.62 1529.61 1453.25 Q1534.12 1446.89 1534.12 1427.79 Q1534.12 1408.59 1529.61 1402.28 Q1525.16 1395.96 1518.47 1395.96 Q1511.9 1395.96 1507.97 1401.53 Q1503.04 1408.64 1503.04 1427.79 Z" fill="#000000" fill-rule="nonzero" fill-opacity="1" /><path clip-path="url(#clip700)" d="M1559 1466.14 L1559 1455.27 L1569.87 1455.27 L1569.87 1466.14 L1559 1466.14 Z" fill="#000000" fill-rule="nonzero" fill-opacity="1" /><path clip-path="url(#clip700)" d="M1633.36 1407.42 L1623.87 1408.16 Q1622.59 1402.54 1620.26 1400 Q1616.39 1395.91 1610.71 1395.91 Q1606.15 1395.91 1602.7 1398.46 Q1598.2 1401.75 1595.6 1408.06 Q1593 1414.37 1592.89 1426.04 Q1596.34 1420.79 1601.32 1418.24 Q1606.31 1415.7 1611.77 1415.7 Q1621.32 1415.7 1628.01 1422.75 Q1634.74 1429.75 1634.74 1440.89 Q1634.74 1448.21 1631.56 1454.52 Q1628.43 1460.78 1622.91 1464.12 Q1617.4 1467.47 1610.39 1467.47 Q1598.46 1467.47 1590.93 1458.71 Q1583.4 1449.91 1583.4 1429.75 Q1583.4 1407.21 1591.72 1396.97 Q1598.99 1388.06 1611.3 1388.06 Q1620.47 1388.06 1626.31 1393.21 Q1632.2 1398.35 1633.36 1407.42 M1594.38 1440.94 Q1594.38 1445.88 1596.44 1450.39 Q1598.57 1454.89 1602.33 1457.28 Q1606.1 1459.62 1610.24 1459.62 Q1616.28 1459.62 1620.63 1454.74 Q1624.98 1449.86 1624.98 1441.48 Q1624.98 1433.41 1620.69 1428.8 Q1616.39 1424.13 1609.86 1424.13 Q1603.39 1424.13 1598.88 1428.8 Q1594.38 1433.41 1594.38 1440.94 Z" fill="#000000" fill-rule="nonzero" fill-opacity="1" /><path clip-path="url(#clip700)" d="M1909.87 1427.79 Q1909.87 1414 1912.68 1405.62 Q1915.55 1397.18 1921.12 1392.62 Q1926.74 1388.06 1935.22 1388.06 Q1941.48 1388.06 1946.2 1390.61 Q1950.93 1393.1 1954 1397.87 Q1957.08 1402.6 1958.83 1409.44 Q1960.58 1416.23 1960.58 1427.79 Q1960.58 1441.48 1957.77 1449.91 Q1954.96 1458.29 1949.33 1462.9 Q1943.76 1467.47 1935.22 1467.47 Q1923.98 1467.47 1917.56 1459.4 Q1909.87 1449.7 1909.87 1427.79 M1919.68 1427.79 Q1919.68 1446.94 1924.14 1453.3 Q1928.65 1459.62 1935.22 1459.62 Q1941.8 1459.62 1946.26 1453.25 Q1950.77 1446.89 1950.77 1427.79 Q1950.77 1408.59 1946.26 1402.28 Q1941.8 1395.96 1935.12 1395.96 Q1928.54 1395.96 1924.62 1401.53 Q1919.68 1408.64 1919.68 1427.79 Z" fill="#000000" fill-rule="nonzero" fill-opacity="1" /><path clip-path="url(#clip700)" d="M1975.64 1466.14 L1975.64 1455.27 L1986.52 1455.27 L1986.52 1466.14 L1975.64 1466.14 Z" fill="#000000" fill-rule="nonzero" fill-opacity="1" /><path clip-path="url(#clip700)" d="M2015.16 1423.97 Q2009.22 1421.8 2006.35 1417.77 Q2003.49 1413.73 2003.49 1408.11 Q2003.49 1399.62 2009.59 1393.84 Q2015.69 1388.06 2025.82 1388.06 Q2036.01 1388.06 2042.21 1394 Q2048.42 1399.89 2048.42 1408.38 Q2048.42 1413.79 2045.55 1417.82 Q2042.74 1421.8 2036.96 1423.97 Q2044.12 1426.31 2047.83 1431.5 Q2051.6 1436.7 2051.6 1443.92 Q2051.6 1453.89 2044.55 1460.68 Q2037.49 1467.47 2025.98 1467.47 Q2014.47 1467.47 2007.42 1460.68 Q2000.36 1453.83 2000.36 1443.65 Q2000.36 1436.06 2004.18 1430.97 Q2008.05 1425.83 2015.16 1423.97 M2013.25 1407.79 Q2013.25 1413.31 2016.8 1416.81 Q2020.36 1420.31 2026.03 1420.31 Q2031.55 1420.31 2035.05 1416.86 Q2038.6 1413.36 2038.6 1408.32 Q2038.6 1403.07 2034.94 1399.52 Q2031.34 1395.91 2025.93 1395.91 Q2020.46 1395.91 2016.86 1399.41 Q2013.25 1402.91 2013.25 1407.79 M2010.17 1443.7 Q2010.17 1447.79 2012.08 1451.61 Q2014.05 1455.43 2017.86 1457.55 Q2021.68 1459.62 2026.09 1459.62 Q2032.93 1459.62 2037.38 1455.21 Q2041.84 1450.81 2041.84 1444.02 Q2041.84 1437.13 2037.23 1432.62 Q2032.66 1428.11 2025.77 1428.11 Q2019.03 1428.11 2014.58 1432.56 Q2010.17 1437.02 2010.17 1443.7 Z" fill="#000000" fill-rule="nonzero" fill-opacity="1" /><path clip-path="url(#clip700)" d="M1286.69 1557.13 L1286.69 1553.81 Q1295.13 1553.81 1300.5 1547.33 Q1300.5 1547.33 1310.62 1534.47 L1299.92 1520.56 Q1296.13 1515.71 1294.44 1514.87 Q1292.81 1513.97 1287.22 1513.97 L1287.22 1510.6 Q1291.65 1510.92 1297.45 1510.92 Q1300.66 1510.92 1309.14 1510.6 L1309.14 1513.97 Q1305.35 1514.18 1305.35 1516.66 Q1305.35 1517.5 1306.3 1518.61 L1314.73 1529.52 L1321.42 1521.09 Q1323.06 1519.14 1323.06 1517.29 Q1323.06 1514.29 1319.9 1513.97 L1319.9 1510.6 Q1324.11 1510.92 1330.28 1510.92 Q1334.92 1510.92 1339.13 1510.6 L1339.13 1513.97 Q1330.91 1514.18 1326.27 1519.56 Q1324.22 1521.82 1316.36 1531.78 L1330.8 1550.44 Q1332.54 1552.71 1334.49 1553.29 Q1336.44 1553.81 1341.08 1553.81 L1341.08 1557.13 Q1336.23 1556.82 1330.7 1556.82 Q1328.75 1556.82 1319.05 1557.13 L1319.05 1553.81 Q1321 1553.71 1321.95 1552.86 Q1322.95 1551.97 1322.95 1551.07 Q1322.95 1550.65 1320.69 1547.54 L1312.46 1536.74 Q1304.24 1546.44 1303.19 1548.7 Q1302.77 1549.65 1302.77 1550.44 Q1302.77 1553.34 1305.88 1553.81 L1305.88 1557.13 Q1298.13 1556.82 1295.65 1556.82 Q1290.91 1556.82 1286.69 1557.13 Z" fill="#000000" fill-rule="nonzero" fill-opacity="1" /><path clip-path="url(#clip700)" d="M1352.07 1543.91 L1352.07 1541.55 Q1361.15 1541.55 1365.83 1536.71 Q1367.13 1536.71 1367.35 1537.01 Q1367.57 1537.3 1367.57 1538.67 L1367.57 1581.06 Q1367.57 1583.31 1368.67 1584.01 Q1369.78 1584.71 1374.61 1584.71 L1377.01 1584.71 L1377.01 1587.03 Q1374.36 1586.81 1364.76 1586.81 Q1355.17 1586.81 1352.55 1587.03 L1352.55 1584.71 L1354.95 1584.71 Q1359.71 1584.71 1360.85 1584.04 Q1362 1583.34 1362 1581.06 L1362 1541.92 Q1358.05 1543.91 1352.07 1543.91 Z" fill="#000000" fill-rule="nonzero" fill-opacity="1" /><polyline clip-path="url(#clip700)" style="stroke:#000000; stroke-linecap:round; stroke-linejoin:round; stroke-width:4; stroke-opacity:1; fill:none" points="322.229,1349.74 322.229,47.2441 "/>
<polyline clip-path="url(#clip700)" style="stroke:#000000; stroke-linecap:round; stroke-linejoin:round; stroke-width:2; stroke-opacity:0.5; fill:none" points="2352.76,1349.74 2352.76,47.2441 "/>
<polyline clip-path="url(#clip700)" style="stroke:#000000; stroke-linecap:round; stroke-linejoin:round; stroke-width:4; stroke-opacity:1; fill:none" points="322.229,1100.73 341.127,1100.73 "/>
<polyline clip-path="url(#clip700)" style="stroke:#000000; stroke-linecap:round; stroke-linejoin:round; stroke-width:4; stroke-opacity:1; fill:none" points="322.229,834.408 341.127,834.408 "/>
<polyline clip-path="url(#clip700)" style="stroke:#000000; stroke-linecap:round; stroke-linejoin:round; stroke-width:4; stroke-opacity:1; fill:none" points="322.229,568.082 341.127,568.082 "/>
<polyline clip-path="url(#clip700)" style="stroke:#000000; stroke-linecap:round; stroke-linejoin:round; stroke-width:4; stroke-opacity:1; fill:none" points="322.229,301.756 341.127,301.756 "/>
<path clip-path="url(#clip700)" d="M145.455 1101.26 Q145.455 1087.47 148.266 1079.09 Q151.13 1070.66 156.7 1066.1 Q162.322 1061.54 170.809 1061.54 Q177.068 1061.54 181.789 1064.08 Q186.51 1066.58 189.586 1071.35 Q192.663 1076.07 194.413 1082.91 Q196.163 1089.7 196.163 1101.26 Q196.163 1114.95 193.352 1123.38 Q190.541 1131.76 184.918 1136.38 Q179.349 1140.94 170.809 1140.94 Q159.564 1140.94 153.146 1132.88 Q145.455 1123.17 145.455 1101.26 M155.268 1101.26 Q155.268 1120.41 159.723 1126.78 Q164.232 1133.09 170.809 1133.09 Q177.386 1133.09 181.842 1126.72 Q186.351 1120.36 186.351 1101.26 Q186.351 1082.06 181.842 1075.75 Q177.386 1069.44 170.703 1069.44 Q164.126 1069.44 160.201 1075.01 Q155.268 1082.12 155.268 1101.26 Z" fill="#000000" fill-rule="nonzero" fill-opacity="1" /><path clip-path="url(#clip700)" d="M211.227 1139.61 L211.227 1128.74 L222.101 1128.74 L222.101 1139.61 L211.227 1139.61 Z" fill="#000000" fill-rule="nonzero" fill-opacity="1" /><path clip-path="url(#clip700)" d="M286.229 1130.44 L286.229 1139.61 L234.831 1139.61 Q234.725 1136.17 235.945 1132.98 Q237.908 1127.73 242.204 1122.64 Q246.554 1117.55 254.722 1110.87 Q267.399 1100.47 271.855 1094.42 Q276.31 1088.32 276.31 1082.91 Q276.31 1077.24 272.226 1073.36 Q268.195 1069.44 261.671 1069.44 Q254.775 1069.44 250.638 1073.58 Q246.5 1077.71 246.447 1085.03 L236.635 1084.03 Q237.642 1073.05 244.22 1067.32 Q250.797 1061.54 261.883 1061.54 Q273.075 1061.54 279.599 1067.74 Q286.123 1073.95 286.123 1083.12 Q286.123 1087.79 284.214 1092.3 Q282.304 1096.81 277.848 1101.8 Q273.446 1106.78 263.156 1115.48 Q254.563 1122.69 252.123 1125.29 Q249.683 1127.84 248.092 1130.44 L286.229 1130.44 Z" fill="#000000" fill-rule="nonzero" fill-opacity="1" /><path clip-path="url(#clip700)" d="M144.978 834.939 Q144.978 821.148 147.789 812.767 Q150.653 804.333 156.223 799.772 Q161.845 795.21 170.332 795.21 Q176.591 795.21 181.312 797.756 Q186.032 800.249 189.109 805.023 Q192.185 809.744 193.936 816.586 Q195.686 823.375 195.686 834.939 Q195.686 848.624 192.875 857.057 Q190.063 865.438 184.441 870.053 Q178.872 874.614 170.332 874.614 Q159.087 874.614 152.669 866.552 Q144.978 856.845 144.978 834.939 M154.79 834.939 Q154.79 854.087 159.246 860.452 Q163.755 866.764 170.332 866.764 Q176.909 866.764 181.365 860.399 Q185.873 854.034 185.873 834.939 Q185.873 815.737 181.365 809.425 Q176.909 803.113 170.226 803.113 Q163.648 803.113 159.723 808.683 Q154.79 815.79 154.79 834.939 Z" fill="#000000" fill-rule="nonzero" fill-opacity="1" /><path clip-path="url(#clip700)" d="M210.75 873.288 L210.75 862.415 L221.624 862.415 L221.624 873.288 L210.75 873.288 Z" fill="#000000" fill-rule="nonzero" fill-opacity="1" /><path clip-path="url(#clip700)" d="M266.179 873.288 L266.179 854.67 L232.444 854.67 L232.444 845.918 L267.93 795.528 L275.727 795.528 L275.727 845.918 L286.229 845.918 L286.229 854.67 L275.727 854.67 L275.727 873.288 L266.179 873.288 M266.179 845.918 L266.179 810.857 L241.833 845.918 L266.179 845.918 Z" fill="#000000" fill-rule="nonzero" fill-opacity="1" /><path clip-path="url(#clip700)" d="M144.712 568.613 Q144.712 554.822 147.524 546.441 Q150.388 538.007 155.957 533.446 Q161.58 528.884 170.067 528.884 Q176.326 528.884 181.046 531.43 Q185.767 533.923 188.844 538.697 Q191.92 543.418 193.67 550.26 Q195.421 557.049 195.421 568.613 Q195.421 582.298 192.61 590.731 Q189.798 599.112 184.176 603.727 Q178.606 608.288 170.067 608.288 Q158.822 608.288 152.403 600.226 Q144.712 590.519 144.712 568.613 M154.525 568.613 Q154.525 587.761 158.981 594.126 Q163.489 600.438 170.067 600.438 Q176.644 600.438 181.099 594.073 Q185.608 587.708 185.608 568.613 Q185.608 549.411 181.099 543.099 Q176.644 536.787 169.96 536.787 Q163.383 536.787 159.458 542.357 Q154.525 549.464 154.525 568.613 Z" fill="#000000" fill-rule="nonzero" fill-opacity="1" /><path clip-path="url(#clip700)" d="M210.485 606.962 L210.485 596.089 L221.358 596.089 L221.358 606.962 L210.485 606.962 Z" fill="#000000" fill-rule="nonzero" fill-opacity="1" /><path clip-path="url(#clip700)" d="M284.85 548.244 L275.355 548.987 Q274.082 543.365 271.749 540.819 Q267.877 536.734 262.201 536.734 Q257.639 536.734 254.192 539.28 Q249.683 542.569 247.084 548.881 Q244.485 555.193 244.379 566.862 Q247.827 561.611 252.813 559.065 Q257.798 556.519 263.262 556.519 Q272.809 556.519 279.493 563.574 Q286.229 570.575 286.229 581.714 Q286.229 589.034 283.047 595.346 Q279.917 601.605 274.401 604.947 Q268.884 608.288 261.883 608.288 Q249.948 608.288 242.416 599.536 Q234.884 590.731 234.884 570.575 Q234.884 548.032 243.212 537.795 Q250.479 528.884 262.784 528.884 Q271.961 528.884 277.795 534.029 Q283.683 539.174 284.85 548.244 M245.864 581.767 Q245.864 586.7 247.933 591.209 Q250.054 595.717 253.82 598.104 Q257.586 600.438 261.724 600.438 Q267.77 600.438 272.12 595.558 Q276.469 590.678 276.469 582.298 Q276.469 574.235 272.173 569.62 Q267.877 564.953 261.352 564.953 Q254.881 564.953 250.373 569.62 Q245.864 574.235 245.864 581.767 Z" fill="#000000" fill-rule="nonzero" fill-opacity="1" /><path clip-path="url(#clip700)" d="M144.5 302.287 Q144.5 288.496 147.311 280.115 Q150.176 271.681 155.745 267.12 Q161.368 262.558 169.854 262.558 Q176.113 262.558 180.834 265.104 Q185.555 267.597 188.631 272.371 Q191.708 277.092 193.458 283.934 Q195.209 290.723 195.209 302.287 Q195.209 315.972 192.397 324.405 Q189.586 332.786 183.964 337.401 Q178.394 341.962 169.854 341.962 Q158.609 341.962 152.191 333.9 Q144.5 324.193 144.5 302.287 M154.313 302.287 Q154.313 321.435 158.769 327.8 Q163.277 334.112 169.854 334.112 Q176.432 334.112 180.887 327.747 Q185.396 321.382 185.396 302.287 Q185.396 283.085 180.887 276.773 Q176.432 270.461 169.748 270.461 Q163.171 270.461 159.246 276.031 Q154.313 283.138 154.313 302.287 Z" fill="#000000" fill-rule="nonzero" fill-opacity="1" /><path clip-path="url(#clip700)" d="M210.273 340.636 L210.273 329.763 L221.146 329.763 L221.146 340.636 L210.273 340.636 Z" fill="#000000" fill-rule="nonzero" fill-opacity="1" /><path clip-path="url(#clip700)" d="M249.789 298.468 Q243.848 296.293 240.984 292.262 Q238.12 288.23 238.12 282.608 Q238.12 274.121 244.22 268.34 Q250.32 262.558 260.451 262.558 Q270.635 262.558 276.841 268.499 Q283.047 274.386 283.047 282.873 Q283.047 288.283 280.182 292.315 Q277.371 296.293 271.589 298.468 Q278.75 300.801 282.463 306 Q286.229 311.198 286.229 318.412 Q286.229 328.383 279.175 335.173 Q272.12 341.962 260.61 341.962 Q249.1 341.962 242.045 335.173 Q234.99 328.33 234.99 318.146 Q234.99 310.561 238.809 305.469 Q242.681 300.324 249.789 298.468 M247.88 282.29 Q247.88 287.806 251.433 291.307 Q254.987 294.808 260.663 294.808 Q266.179 294.808 269.68 291.36 Q273.234 287.859 273.234 282.82 Q273.234 277.569 269.574 274.015 Q265.967 270.408 260.557 270.408 Q255.093 270.408 251.486 273.909 Q247.88 277.41 247.88 282.29 M244.803 318.199 Q244.803 322.284 246.713 326.103 Q248.675 329.922 252.494 332.043 Q256.313 334.112 260.716 334.112 Q267.558 334.112 272.014 329.71 Q276.469 325.307 276.469 318.518 Q276.469 311.622 271.855 307.114 Q267.293 302.605 260.398 302.605 Q253.661 302.605 249.206 307.06 Q244.803 311.516 244.803 318.199 Z" fill="#000000" fill-rule="nonzero" fill-opacity="1" /><path clip-path="url(#clip700)" d="M69.9417 751.882 L66.6215 751.882 Q66.6215 743.45 60.1394 738.075 Q60.1394 738.075 47.2804 727.956 L33.3675 738.654 Q28.5191 742.449 27.6759 744.135 Q26.7799 745.769 26.7799 751.355 L23.4071 751.355 Q23.7233 746.928 23.7233 741.131 Q23.7233 737.917 23.4071 729.432 L26.7799 729.432 Q26.9907 733.226 29.4677 733.226 Q30.3109 733.226 31.4176 732.278 L42.3266 723.846 L33.8945 717.153 Q31.9446 715.519 30.1001 715.519 Q27.0962 715.519 26.7799 718.681 L23.4071 718.681 Q23.7233 714.465 23.7233 708.299 Q23.7233 703.661 23.4071 699.445 L26.7799 699.445 Q26.9907 707.667 32.3662 712.304 Q34.6323 714.36 44.5927 722.212 L63.2487 707.772 Q65.5148 706.033 66.0945 704.083 Q66.6215 702.133 66.6215 697.495 L69.9417 697.495 Q69.6255 702.344 69.6255 707.877 Q69.6255 709.827 69.9417 719.524 L66.6215 719.524 Q66.5161 717.574 65.6729 716.626 Q64.777 715.624 63.8811 715.624 Q63.4595 715.624 60.3502 717.89 L49.5466 726.112 Q59.2435 734.333 61.5096 735.387 Q62.4582 735.809 63.2487 735.809 Q66.1472 735.809 66.6215 732.699 L69.9417 732.699 Q69.6255 740.446 69.6255 742.923 Q69.6255 747.666 69.9417 751.882 Z" fill="#000000" fill-rule="nonzero" fill-opacity="1" /><path clip-path="url(#clip700)" d="M99.8404 686.503 Q98.4755 686.503 98.0697 686.392 Q97.6639 686.245 97.0367 685.654 L80.8788 671.157 Q71.9513 663.225 64.1674 663.225 Q59.1135 663.225 55.4982 665.881 Q51.883 668.5 51.883 673.333 Q51.883 676.653 53.9119 679.457 Q55.9409 682.261 59.5561 683.552 Q59.4824 683.33 59.4824 682.556 Q59.4824 680.674 60.6629 679.641 Q61.8433 678.571 63.4296 678.571 Q65.4586 678.571 66.4546 679.9 Q67.4138 681.191 67.4138 682.482 Q67.4138 682.998 67.3031 683.699 Q67.1924 684.363 66.1595 685.433 Q65.0897 686.503 63.2083 686.503 Q57.933 686.503 53.7275 682.519 Q49.522 678.498 49.522 672.374 Q49.522 665.439 53.6537 660.901 Q57.7485 656.327 64.1674 656.327 Q66.4178 656.327 68.4836 657.028 Q70.5126 657.692 72.0989 658.614 Q73.6851 659.499 76.2306 661.934 Q78.776 664.369 80.5836 666.324 Q82.3913 668.279 86.2279 672.669 L94.0117 680.674 L94.0117 667.062 Q94.0117 660.421 93.4215 659.905 Q92.3517 659.167 86.7074 658.245 L86.7074 656.327 L99.8404 658.466 L99.8404 686.503 Z" fill="#000000" fill-rule="nonzero" fill-opacity="1" /><circle clip-path="url(#clip702)" cx="1128.79" cy="903.32" r="14.4" fill="#009af9" fill-rule="evenodd" fill-opacity="1" stroke="#000000" stroke-opacity="1" stroke-width="3.2"/>
<circle clip-path="url(#clip702)" cx="451.608" cy="1204.89" r="14.4" fill="#009af9" fill-rule="evenodd" fill-opacity="1" stroke="#000000" stroke-opacity="1" stroke-width="3.2"/>
<circle clip-path="url(#clip702)" cx="367.174" cy="820.712" r="14.4" fill="#009af9" fill-rule="evenodd" fill-opacity="1" stroke="#000000" stroke-opacity="1" stroke-width="3.2"/>
<circle clip-path="url(#clip702)" cx="616.256" cy="844.788" r="14.4" fill="#009af9" fill-rule="evenodd" fill-opacity="1" stroke="#000000" stroke-opacity="1" stroke-width="3.2"/>
<circle clip-path="url(#clip702)" cx="1340.21" cy="1124.94" r="14.4" fill="#009af9" fill-rule="evenodd" fill-opacity="1" stroke="#000000" stroke-opacity="1" stroke-width="3.2"/>
<circle clip-path="url(#clip702)" cx="923.146" cy="720.135" r="14.4" fill="#009af9" fill-rule="evenodd" fill-opacity="1" stroke="#000000" stroke-opacity="1" stroke-width="3.2"/>
<circle clip-path="url(#clip702)" cx="569.976" cy="1052.58" r="14.4" fill="#009af9" fill-rule="evenodd" fill-opacity="1" stroke="#000000" stroke-opacity="1" stroke-width="3.2"/>
<circle clip-path="url(#clip702)" cx="514.389" cy="1338.59" r="14.4" fill="#009af9" fill-rule="evenodd" fill-opacity="1" stroke="#000000" stroke-opacity="1" stroke-width="3.2"/>
<circle clip-path="url(#clip702)" cx="1139.03" cy="730.801" r="14.4" fill="#009af9" fill-rule="evenodd" fill-opacity="1" stroke="#000000" stroke-opacity="1" stroke-width="3.2"/>
<circle clip-path="url(#clip702)" cx="1248.41" cy="1226.6" r="14.4" fill="#009af9" fill-rule="evenodd" fill-opacity="1" stroke="#000000" stroke-opacity="1" stroke-width="3.2"/>
<circle clip-path="url(#clip702)" cx="717.009" cy="850.026" r="14.4" fill="#009af9" fill-rule="evenodd" fill-opacity="1" stroke="#000000" stroke-opacity="1" stroke-width="3.2"/>
<circle clip-path="url(#clip702)" cx="1299.59" cy="838.945" r="14.4" fill="#009af9" fill-rule="evenodd" fill-opacity="1" stroke="#000000" stroke-opacity="1" stroke-width="3.2"/>
<circle clip-path="url(#clip702)" cx="1156.75" cy="710.741" r="14.4" fill="#009af9" fill-rule="evenodd" fill-opacity="1" stroke="#000000" stroke-opacity="1" stroke-width="3.2"/>
<circle clip-path="url(#clip702)" cx="1279.33" cy="1087.09" r="14.4" fill="#009af9" fill-rule="evenodd" fill-opacity="1" stroke="#000000" stroke-opacity="1" stroke-width="3.2"/>
<circle clip-path="url(#clip702)" cx="438.104" cy="1093.64" r="14.4" fill="#009af9" fill-rule="evenodd" fill-opacity="1" stroke="#000000" stroke-opacity="1" stroke-width="3.2"/>
<circle clip-path="url(#clip702)" cx="1282.59" cy="1133.97" r="14.4" fill="#009af9" fill-rule="evenodd" fill-opacity="1" stroke="#000000" stroke-opacity="1" stroke-width="3.2"/>
<circle clip-path="url(#clip702)" cx="1192.71" cy="1080.39" r="14.4" fill="#009af9" fill-rule="evenodd" fill-opacity="1" stroke="#000000" stroke-opacity="1" stroke-width="3.2"/>
<circle clip-path="url(#clip702)" cx="642.799" cy="822.369" r="14.4" fill="#009af9" fill-rule="evenodd" fill-opacity="1" stroke="#000000" stroke-opacity="1" stroke-width="3.2"/>
<circle clip-path="url(#clip702)" cx="606.785" cy="1349.74" r="14.4" fill="#009af9" fill-rule="evenodd" fill-opacity="1" stroke="#000000" stroke-opacity="1" stroke-width="3.2"/>
<circle clip-path="url(#clip702)" cx="1025.14" cy="763.866" r="14.4" fill="#009af9" fill-rule="evenodd" fill-opacity="1" stroke="#000000" stroke-opacity="1" stroke-width="3.2"/>
<circle clip-path="url(#clip702)" cx="849.429" cy="966.921" r="14.4" fill="#009af9" fill-rule="evenodd" fill-opacity="1" stroke="#000000" stroke-opacity="1" stroke-width="3.2"/>
<circle clip-path="url(#clip702)" cx="673.974" cy="1013.52" r="14.4" fill="#009af9" fill-rule="evenodd" fill-opacity="1" stroke="#000000" stroke-opacity="1" stroke-width="3.2"/>
<circle clip-path="url(#clip702)" cx="322.229" cy="787.166" r="14.4" fill="#009af9" fill-rule="evenodd" fill-opacity="1" stroke="#000000" stroke-opacity="1" stroke-width="3.2"/>
<circle clip-path="url(#clip702)" cx="730.682" cy="754.45" r="14.4" fill="#009af9" fill-rule="evenodd" fill-opacity="1" stroke="#000000" stroke-opacity="1" stroke-width="3.2"/>
<circle clip-path="url(#clip702)" cx="891.387" cy="790.753" r="14.4" fill="#009af9" fill-rule="evenodd" fill-opacity="1" stroke="#000000" stroke-opacity="1" stroke-width="3.2"/>
<circle clip-path="url(#clip702)" cx="489.725" cy="1148.3" r="14.4" fill="#009af9" fill-rule="evenodd" fill-opacity="1" stroke="#000000" stroke-opacity="1" stroke-width="3.2"/>
<circle clip-path="url(#clip702)" cx="746.984" cy="868.852" r="14.4" fill="#009af9" fill-rule="evenodd" fill-opacity="1" stroke="#000000" stroke-opacity="1" stroke-width="3.2"/>
<circle clip-path="url(#clip702)" cx="406.348" cy="847.351" r="14.4" fill="#009af9" fill-rule="evenodd" fill-opacity="1" stroke="#000000" stroke-opacity="1" stroke-width="3.2"/>
<circle clip-path="url(#clip702)" cx="444.201" cy="900.286" r="14.4" fill="#009af9" fill-rule="evenodd" fill-opacity="1" stroke="#000000" stroke-opacity="1" stroke-width="3.2"/>
<circle clip-path="url(#clip702)" cx="1051.73" cy="999.092" r="14.4" fill="#009af9" fill-rule="evenodd" fill-opacity="1" stroke="#000000" stroke-opacity="1" stroke-width="3.2"/>
<circle clip-path="url(#clip702)" cx="471.823" cy="1255.8" r="14.4" fill="#009af9" fill-rule="evenodd" fill-opacity="1" stroke="#000000" stroke-opacity="1" stroke-width="3.2"/>
<circle clip-path="url(#clip702)" cx="1133.75" cy="733.604" r="14.4" fill="#009af9" fill-rule="evenodd" fill-opacity="1" stroke="#000000" stroke-opacity="1" stroke-width="3.2"/>
<circle clip-path="url(#clip702)" cx="1142.01" cy="1054.83" r="14.4" fill="#009af9" fill-rule="evenodd" fill-opacity="1" stroke="#000000" stroke-opacity="1" stroke-width="3.2"/>
<circle clip-path="url(#clip702)" cx="454.703" cy="805.47" r="14.4" fill="#009af9" fill-rule="evenodd" fill-opacity="1" stroke="#000000" stroke-opacity="1" stroke-width="3.2"/>
<circle clip-path="url(#clip702)" cx="1204.94" cy="1037.27" r="14.4" fill="#009af9" fill-rule="evenodd" fill-opacity="1" stroke="#000000" stroke-opacity="1" stroke-width="3.2"/>
<circle clip-path="url(#clip702)" cx="1150.36" cy="1093.94" r="14.4" fill="#009af9" fill-rule="evenodd" fill-opacity="1" stroke="#000000" stroke-opacity="1" stroke-width="3.2"/>
<circle clip-path="url(#clip702)" cx="358.683" cy="1266.43" r="14.4" fill="#009af9" fill-rule="evenodd" fill-opacity="1" stroke="#000000" stroke-opacity="1" stroke-width="3.2"/>
<circle clip-path="url(#clip702)" cx="898.89" cy="1143.38" r="14.4" fill="#009af9" fill-rule="evenodd" fill-opacity="1" stroke="#000000" stroke-opacity="1" stroke-width="3.2"/>
<circle clip-path="url(#clip702)" cx="842.129" cy="839.801" r="14.4" fill="#009af9" fill-rule="evenodd" fill-opacity="1" stroke="#000000" stroke-opacity="1" stroke-width="3.2"/>
<circle clip-path="url(#clip702)" cx="624.223" cy="1151.42" r="14.4" fill="#009af9" fill-rule="evenodd" fill-opacity="1" stroke="#000000" stroke-opacity="1" stroke-width="3.2"/>
<circle clip-path="url(#clip702)" cx="1264.42" cy="1271.04" r="14.4" fill="#009af9" fill-rule="evenodd" fill-opacity="1" stroke="#000000" stroke-opacity="1" stroke-width="3.2"/>
<circle clip-path="url(#clip702)" cx="658.02" cy="1197.21" r="14.4" fill="#009af9" fill-rule="evenodd" fill-opacity="1" stroke="#000000" stroke-opacity="1" stroke-width="3.2"/>
<circle clip-path="url(#clip702)" cx="1010.92" cy="906.76" r="14.4" fill="#009af9" fill-rule="evenodd" fill-opacity="1" stroke="#000000" stroke-opacity="1" stroke-width="3.2"/>
<circle clip-path="url(#clip702)" cx="753.191" cy="877.006" r="14.4" fill="#009af9" fill-rule="evenodd" fill-opacity="1" stroke="#000000" stroke-opacity="1" stroke-width="3.2"/>
<circle clip-path="url(#clip702)" cx="506.968" cy="1223.9" r="14.4" fill="#009af9" fill-rule="evenodd" fill-opacity="1" stroke="#000000" stroke-opacity="1" stroke-width="3.2"/>
<circle clip-path="url(#clip702)" cx="583.049" cy="1209.45" r="14.4" fill="#009af9" fill-rule="evenodd" fill-opacity="1" stroke="#000000" stroke-opacity="1" stroke-width="3.2"/>
<circle clip-path="url(#clip702)" cx="1097.11" cy="929.016" r="14.4" fill="#009af9" fill-rule="evenodd" fill-opacity="1" stroke="#000000" stroke-opacity="1" stroke-width="3.2"/>
<circle clip-path="url(#clip702)" cx="613.5" cy="1135.28" r="14.4" fill="#009af9" fill-rule="evenodd" fill-opacity="1" stroke="#000000" stroke-opacity="1" stroke-width="3.2"/>
<circle clip-path="url(#clip702)" cx="1212.22" cy="1006.83" r="14.4" fill="#009af9" fill-rule="evenodd" fill-opacity="1" stroke="#000000" stroke-opacity="1" stroke-width="3.2"/>
<circle clip-path="url(#clip702)" cx="506.708" cy="1261.38" r="14.4" fill="#009af9" fill-rule="evenodd" fill-opacity="1" stroke="#000000" stroke-opacity="1" stroke-width="3.2"/>
<circle clip-path="url(#clip702)" cx="389.432" cy="1005.92" r="14.4" fill="#009af9" fill-rule="evenodd" fill-opacity="1" stroke="#000000" stroke-opacity="1" stroke-width="3.2"/>
<circle clip-path="url(#clip702)" cx="2056.09" cy="1194.68" r="14.4" fill="#e26f46" fill-rule="evenodd" fill-opacity="1" stroke="#000000" stroke-opacity="1" stroke-width="3.2"/>
<circle clip-path="url(#clip702)" cx="1576.79" cy="1222.86" r="14.4" fill="#e26f46" fill-rule="evenodd" fill-opacity="1" stroke="#000000" stroke-opacity="1" stroke-width="3.2"/>
<circle clip-path="url(#clip702)" cx="1703.28" cy="1063.44" r="14.4" fill="#e26f46" fill-rule="evenodd" fill-opacity="1" stroke="#000000" stroke-opacity="1" stroke-width="3.2"/>
<circle clip-path="url(#clip702)" cx="381.453" cy="47.2441" r="14.4" fill="#e26f46" fill-rule="evenodd" fill-opacity="1" stroke="#000000" stroke-opacity="1" stroke-width="3.2"/>
<circle clip-path="url(#clip702)" cx="814.12" cy="196.303" r="14.4" fill="#e26f46" fill-rule="evenodd" fill-opacity="1" stroke="#000000" stroke-opacity="1" stroke-width="3.2"/>
<circle clip-path="url(#clip702)" cx="1266.42" cy="594.388" r="14.4" fill="#e26f46" fill-rule="evenodd" fill-opacity="1" stroke="#000000" stroke-opacity="1" stroke-width="3.2"/>
<circle clip-path="url(#clip702)" cx="2052.39" cy="971.131" r="14.4" fill="#e26f46" fill-rule="evenodd" fill-opacity="1" stroke="#000000" stroke-opacity="1" stroke-width="3.2"/>
<circle clip-path="url(#clip702)" cx="1482.55" cy="1291.43" r="14.4" fill="#e26f46" fill-rule="evenodd" fill-opacity="1" stroke="#000000" stroke-opacity="1" stroke-width="3.2"/>
<circle clip-path="url(#clip702)" cx="2012.07" cy="348.541" r="14.4" fill="#e26f46" fill-rule="evenodd" fill-opacity="1" stroke="#000000" stroke-opacity="1" stroke-width="3.2"/>
<circle clip-path="url(#clip702)" cx="708.929" cy="518.259" r="14.4" fill="#e26f46" fill-rule="evenodd" fill-opacity="1" stroke="#000000" stroke-opacity="1" stroke-width="3.2"/>
<circle clip-path="url(#clip702)" cx="603.174" cy="656.996" r="14.4" fill="#e26f46" fill-rule="evenodd" fill-opacity="1" stroke="#000000" stroke-opacity="1" stroke-width="3.2"/>
<circle clip-path="url(#clip702)" cx="1212.85" cy="88.2938" r="14.4" fill="#e26f46" fill-rule="evenodd" fill-opacity="1" stroke="#000000" stroke-opacity="1" stroke-width="3.2"/>
<circle clip-path="url(#clip702)" cx="1405.01" cy="461.036" r="14.4" fill="#e26f46" fill-rule="evenodd" fill-opacity="1" stroke="#000000" stroke-opacity="1" stroke-width="3.2"/>
<circle clip-path="url(#clip702)" cx="996.119" cy="121.554" r="14.4" fill="#e26f46" fill-rule="evenodd" fill-opacity="1" stroke="#000000" stroke-opacity="1" stroke-width="3.2"/>
<circle clip-path="url(#clip702)" cx="2070.76" cy="279.034" r="14.4" fill="#e26f46" fill-rule="evenodd" fill-opacity="1" stroke="#000000" stroke-opacity="1" stroke-width="3.2"/>
<circle clip-path="url(#clip702)" cx="770.356" cy="419.136" r="14.4" fill="#e26f46" fill-rule="evenodd" fill-opacity="1" stroke="#000000" stroke-opacity="1" stroke-width="3.2"/>
<circle clip-path="url(#clip702)" cx="2232.33" cy="913.117" r="14.4" fill="#e26f46" fill-rule="evenodd" fill-opacity="1" stroke="#000000" stroke-opacity="1" stroke-width="3.2"/>
<circle clip-path="url(#clip702)" cx="1018.67" cy="376.097" r="14.4" fill="#e26f46" fill-rule="evenodd" fill-opacity="1" stroke="#000000" stroke-opacity="1" stroke-width="3.2"/>
<circle clip-path="url(#clip702)" cx="1156.42" cy="264.761" r="14.4" fill="#e26f46" fill-rule="evenodd" fill-opacity="1" stroke="#000000" stroke-opacity="1" stroke-width="3.2"/>
<circle clip-path="url(#clip702)" cx="1967.7" cy="1089.3" r="14.4" fill="#e26f46" fill-rule="evenodd" fill-opacity="1" stroke="#000000" stroke-opacity="1" stroke-width="3.2"/>
<circle clip-path="url(#clip702)" cx="1611.66" cy="1209.32" r="14.4" fill="#e26f46" fill-rule="evenodd" fill-opacity="1" stroke="#000000" stroke-opacity="1" stroke-width="3.2"/>
<circle clip-path="url(#clip702)" cx="1202.53" cy="139.331" r="14.4" fill="#e26f46" fill-rule="evenodd" fill-opacity="1" stroke="#000000" stroke-opacity="1" stroke-width="3.2"/>
<circle clip-path="url(#clip702)" cx="531.399" cy="313.874" r="14.4" fill="#e26f46" fill-rule="evenodd" fill-opacity="1" stroke="#000000" stroke-opacity="1" stroke-width="3.2"/>
<circle clip-path="url(#clip702)" cx="334.798" cy="230.112" r="14.4" fill="#e26f46" fill-rule="evenodd" fill-opacity="1" stroke="#000000" stroke-opacity="1" stroke-width="3.2"/>
<circle clip-path="url(#clip702)" cx="895.26" cy="221.161" r="14.4" fill="#e26f46" fill-rule="evenodd" fill-opacity="1" stroke="#000000" stroke-opacity="1" stroke-width="3.2"/>
<circle clip-path="url(#clip702)" cx="831.412" cy="546.375" r="14.4" fill="#e26f46" fill-rule="evenodd" fill-opacity="1" stroke="#000000" stroke-opacity="1" stroke-width="3.2"/>
<circle clip-path="url(#clip702)" cx="1356.96" cy="1116.38" r="14.4" fill="#e26f46" fill-rule="evenodd" fill-opacity="1" stroke="#000000" stroke-opacity="1" stroke-width="3.2"/>
<circle clip-path="url(#clip702)" cx="1334.38" cy="187.788" r="14.4" fill="#e26f46" fill-rule="evenodd" fill-opacity="1" stroke="#000000" stroke-opacity="1" stroke-width="3.2"/>
<circle clip-path="url(#clip702)" cx="1725.56" cy="1349" r="14.4" fill="#e26f46" fill-rule="evenodd" fill-opacity="1" stroke="#000000" stroke-opacity="1" stroke-width="3.2"/>
<circle clip-path="url(#clip702)" cx="1762.36" cy="739.63" r="14.4" fill="#e26f46" fill-rule="evenodd" fill-opacity="1" stroke="#000000" stroke-opacity="1" stroke-width="3.2"/>
<circle clip-path="url(#clip702)" cx="2028.9" cy="544.279" r="14.4" fill="#e26f46" fill-rule="evenodd" fill-opacity="1" stroke="#000000" stroke-opacity="1" stroke-width="3.2"/>
<circle clip-path="url(#clip702)" cx="471.486" cy="549.843" r="14.4" fill="#e26f46" fill-rule="evenodd" fill-opacity="1" stroke="#000000" stroke-opacity="1" stroke-width="3.2"/>
<circle clip-path="url(#clip702)" cx="2352.76" cy="1003.4" r="14.4" fill="#e26f46" fill-rule="evenodd" fill-opacity="1" stroke="#000000" stroke-opacity="1" stroke-width="3.2"/>
<circle clip-path="url(#clip702)" cx="1601.11" cy="1059.28" r="14.4" fill="#e26f46" fill-rule="evenodd" fill-opacity="1" stroke="#000000" stroke-opacity="1" stroke-width="3.2"/>
<circle clip-path="url(#clip702)" cx="2249.25" cy="877.155" r="14.4" fill="#e26f46" fill-rule="evenodd" fill-opacity="1" stroke="#000000" stroke-opacity="1" stroke-width="3.2"/>
<circle clip-path="url(#clip702)" cx="1642.99" cy="844.546" r="14.4" fill="#e26f46" fill-rule="evenodd" fill-opacity="1" stroke="#000000" stroke-opacity="1" stroke-width="3.2"/>
<circle clip-path="url(#clip702)" cx="2055.1" cy="901.622" r="14.4" fill="#e26f46" fill-rule="evenodd" fill-opacity="1" stroke="#000000" stroke-opacity="1" stroke-width="3.2"/>
<circle clip-path="url(#clip702)" cx="377.468" cy="52.6388" r="14.4" fill="#e26f46" fill-rule="evenodd" fill-opacity="1" stroke="#000000" stroke-opacity="1" stroke-width="3.2"/>
<circle clip-path="url(#clip702)" cx="2208.48" cy="810.456" r="14.4" fill="#e26f46" fill-rule="evenodd" fill-opacity="1" stroke="#000000" stroke-opacity="1" stroke-width="3.2"/>
<circle clip-path="url(#clip702)" cx="1737.42" cy="417.334" r="14.4" fill="#e26f46" fill-rule="evenodd" fill-opacity="1" stroke="#000000" stroke-opacity="1" stroke-width="3.2"/>
<circle clip-path="url(#clip702)" cx="555.963" cy="218.28" r="14.4" fill="#e26f46" fill-rule="evenodd" fill-opacity="1" stroke="#000000" stroke-opacity="1" stroke-width="3.2"/>
<circle clip-path="url(#clip702)" cx="537.454" cy="535.484" r="14.4" fill="#e26f46" fill-rule="evenodd" fill-opacity="1" stroke="#000000" stroke-opacity="1" stroke-width="3.2"/>
<circle clip-path="url(#clip702)" cx="1233.09" cy="149.81" r="14.4" fill="#e26f46" fill-rule="evenodd" fill-opacity="1" stroke="#000000" stroke-opacity="1" stroke-width="3.2"/>
<circle clip-path="url(#clip702)" cx="1448.76" cy="955.435" r="14.4" fill="#e26f46" fill-rule="evenodd" fill-opacity="1" stroke="#000000" stroke-opacity="1" stroke-width="3.2"/>
<circle clip-path="url(#clip702)" cx="2080.2" cy="138.65" r="14.4" fill="#e26f46" fill-rule="evenodd" fill-opacity="1" stroke="#000000" stroke-opacity="1" stroke-width="3.2"/>
<circle clip-path="url(#clip702)" cx="2302.59" cy="123.521" r="14.4" fill="#e26f46" fill-rule="evenodd" fill-opacity="1" stroke="#000000" stroke-opacity="1" stroke-width="3.2"/>
<circle clip-path="url(#clip702)" cx="851.895" cy="82.4073" r="14.4" fill="#e26f46" fill-rule="evenodd" fill-opacity="1" stroke="#000000" stroke-opacity="1" stroke-width="3.2"/>
<circle clip-path="url(#clip702)" cx="2231.21" cy="734.218" r="14.4" fill="#e26f46" fill-rule="evenodd" fill-opacity="1" stroke="#000000" stroke-opacity="1" stroke-width="3.2"/>
<circle clip-path="url(#clip702)" cx="1559.27" cy="84.4735" r="14.4" fill="#e26f46" fill-rule="evenodd" fill-opacity="1" stroke="#000000" stroke-opacity="1" stroke-width="3.2"/>
<circle clip-path="url(#clip702)" cx="2204.05" cy="682.787" r="14.4" fill="#e26f46" fill-rule="evenodd" fill-opacity="1" stroke="#000000" stroke-opacity="1" stroke-width="3.2"/>
<path clip-path="url(#clip700)" d="M1940.71 440.581 L2285.07 440.581 L2285.07 90.6606 L1940.71 90.6606  Z" fill="#ffffff" fill-rule="evenodd" fill-opacity="1"/>
<polyline clip-path="url(#clip700)" style="stroke:#000000; stroke-linecap:round; stroke-linejoin:round; stroke-width:4; stroke-opacity:1; fill:none" points="1940.71,440.581 2285.07,440.581 2285.07,90.6606 1940.71,90.6606 1940.71,440.581 "/>
<circle clip-path="url(#clip700)" cx="2030.96" cy="207.301" r="46.08" fill="#009af9" fill-rule="evenodd" fill-opacity="1" stroke="#000000" stroke-opacity="1" stroke-width="10.24"/>
<path clip-path="url(#clip700)" d="M2121.21 207.831 Q2121.21 194.04 2124.02 185.659 Q2126.88 177.226 2132.45 172.664 Q2138.07 168.102 2146.56 168.102 Q2152.82 168.102 2157.54 170.648 Q2162.26 173.141 2165.34 177.915 Q2168.41 182.636 2170.16 189.478 Q2171.91 196.268 2171.91 207.831 Q2171.91 221.516 2169.1 229.95 Q2166.29 238.33 2160.67 242.945 Q2155.1 247.507 2146.56 247.507 Q2135.31 247.507 2128.9 239.444 Q2121.21 229.738 2121.21 207.831 M2131.02 207.831 Q2131.02 226.979 2135.47 233.344 Q2139.98 239.656 2146.56 239.656 Q2153.14 239.656 2157.59 233.291 Q2162.1 226.926 2162.1 207.831 Q2162.1 188.63 2157.59 182.318 Q2153.14 176.006 2146.45 176.006 Q2139.88 176.006 2135.95 181.575 Q2131.02 188.683 2131.02 207.831 Z" fill="#000000" fill-rule="nonzero" fill-opacity="1" /><path clip-path="url(#clip700)" d="M2186.98 246.181 L2186.98 235.307 L2197.85 235.307 L2197.85 246.181 L2186.98 246.181 Z" fill="#000000" fill-rule="nonzero" fill-opacity="1" /><path clip-path="url(#clip700)" d="M2211.8 207.831 Q2211.8 194.04 2214.61 185.659 Q2217.48 177.226 2223.05 172.664 Q2228.67 168.102 2237.16 168.102 Q2243.42 168.102 2248.14 170.648 Q2252.86 173.141 2255.93 177.915 Q2259.01 182.636 2260.76 189.478 Q2262.51 196.268 2262.51 207.831 Q2262.51 221.516 2259.7 229.95 Q2256.89 238.33 2251.27 242.945 Q2245.7 247.507 2237.16 247.507 Q2225.91 247.507 2219.49 239.444 Q2211.8 229.738 2211.8 207.831 M2221.61 207.831 Q2221.61 226.979 2226.07 233.344 Q2230.58 239.656 2237.16 239.656 Q2243.73 239.656 2248.19 233.291 Q2252.7 226.926 2252.7 207.831 Q2252.7 188.63 2248.19 182.318 Q2243.73 176.006 2237.05 176.006 Q2230.47 176.006 2226.55 181.575 Q2221.61 188.683 2221.61 207.831 Z" fill="#000000" fill-rule="nonzero" fill-opacity="1" /><circle clip-path="url(#clip700)" cx="2030.96" cy="323.941" r="46.08" fill="#e26f46" fill-rule="evenodd" fill-opacity="1" stroke="#000000" stroke-opacity="1" stroke-width="10.24"/>
<path clip-path="url(#clip700)" d="M2149.85 362.821 L2140.3 362.821 L2140.3 301.981 Q2136.85 305.27 2131.23 308.558 Q2125.66 311.847 2121.21 313.491 L2121.21 304.262 Q2129.21 300.496 2135.21 295.139 Q2141.2 289.781 2143.7 284.742 L2149.85 284.742 L2149.85 362.821 Z" fill="#000000" fill-rule="nonzero" fill-opacity="1" /><path clip-path="url(#clip700)" d="M2179.66 362.821 L2179.66 351.947 L2190.53 351.947 L2190.53 362.821 L2179.66 362.821 Z" fill="#000000" fill-rule="nonzero" fill-opacity="1" /><path clip-path="url(#clip700)" d="M2204.48 324.471 Q2204.48 310.68 2207.29 302.299 Q2210.16 293.866 2215.73 289.304 Q2221.35 284.742 2229.84 284.742 Q2236.1 284.742 2240.82 287.288 Q2245.54 289.781 2248.61 294.555 Q2251.69 299.276 2253.44 306.118 Q2255.19 312.908 2255.19 324.471 Q2255.19 338.156 2252.38 346.59 Q2249.57 354.97 2243.95 359.585 Q2238.38 364.147 2229.84 364.147 Q2218.59 364.147 2212.17 356.084 Q2204.48 346.378 2204.48 324.471 M2214.29 324.471 Q2214.29 343.619 2218.75 349.984 Q2223.26 356.296 2229.84 356.296 Q2236.41 356.296 2240.87 349.931 Q2245.38 343.566 2245.38 324.471 Q2245.38 305.27 2240.87 298.958 Q2236.41 292.646 2229.73 292.646 Q2223.15 292.646 2219.23 298.215 Q2214.29 305.323 2214.29 324.471 Z" fill="#000000" fill-rule="nonzero" fill-opacity="1" /></svg>
