<?xml version="1.0" encoding="utf-8"?>
<svg xmlns="http://www.w3.org/2000/svg" xmlns:xlink="http://www.w3.org/1999/xlink" width="600" height="450" viewBox="0 0 2400 1800">
<defs>
  <clipPath id="clip300">
    <rect x="0" y="0" width="2400" height="1800"/>
  </clipPath>
</defs>
<path clip-path="url(#clip300)" d="M0 1800 L2400 1800 L2400 0 L0 0  Z" fill="#ffffff" fill-rule="evenodd" fill-opacity="1"/>
<defs>
  <clipPath id="clip301">
    <rect x="480" y="0" width="1681" height="1681"/>
  </clipPath>
</defs>
<path clip-path="url(#clip300)" d="M363.02 1506.52 L2352.76 1506.52 L2352.76 47.2441 L363.02 47.2441  Z" fill="#ffffff" fill-rule="evenodd" fill-opacity="1"/>
<defs>
  <clipPath id="clip302">
    <rect x="363" y="47" width="1991" height="1460"/>
  </clipPath>
</defs>
<polyline clip-path="url(#clip302)" style="stroke:#000000; stroke-linecap:round; stroke-linejoin:round; stroke-width:2; stroke-opacity:0.1; fill:none" points="410.132,1506.52 410.132,47.2441 "/>
<polyline clip-path="url(#clip302)" style="stroke:#000000; stroke-linecap:round; stroke-linejoin:round; stroke-width:2; stroke-opacity:0.1; fill:none" points="870.208,1506.52 870.208,47.2441 "/>
<polyline clip-path="url(#clip302)" style="stroke:#000000; stroke-linecap:round; stroke-linejoin:round; stroke-width:2; stroke-opacity:0.1; fill:none" points="1330.28,1506.52 1330.28,47.2441 "/>
<polyline clip-path="url(#clip302)" style="stroke:#000000; stroke-linecap:round; stroke-linejoin:round; stroke-width:2; stroke-opacity:0.1; fill:none" points="1790.36,1506.52 1790.36,47.2441 "/>
<polyline clip-path="url(#clip302)" style="stroke:#000000; stroke-linecap:round; stroke-linejoin:round; stroke-width:2; stroke-opacity:0.1; fill:none" points="2250.44,1506.52 2250.44,47.2441 "/>
<polyline clip-path="url(#clip302)" style="stroke:#000000; stroke-linecap:round; stroke-linejoin:round; stroke-width:2; stroke-opacity:0.1; fill:none" points="363.02,1465.22 2352.76,1465.22 "/>
<polyline clip-path="url(#clip302)" style="stroke:#000000; stroke-linecap:round; stroke-linejoin:round; stroke-width:2; stroke-opacity:0.1; fill:none" points="363.02,1112.77 2352.76,1112.77 "/>
<polyline clip-path="url(#clip302)" style="stroke:#000000; stroke-linecap:round; stroke-linejoin:round; stroke-width:2; stroke-opacity:0.1; fill:none" points="363.02,760.322 2352.76,760.322 "/>
<polyline clip-path="url(#clip302)" style="stroke:#000000; stroke-linecap:round; stroke-linejoin:round; stroke-width:2; stroke-opacity:0.1; fill:none" points="363.02,407.87 2352.76,407.87 "/>
<polyline clip-path="url(#clip302)" style="stroke:#000000; stroke-linecap:round; stroke-linejoin:round; stroke-width:2; stroke-opacity:0.1; fill:none" points="363.02,55.4188 2352.76,55.4188 "/>
<polyline clip-path="url(#clip300)" style="stroke:#000000; stroke-linecap:round; stroke-linejoin:round; stroke-width:4; stroke-opacity:1; fill:none" points="363.02,1506.52 2352.76,1506.52 "/>
<polyline clip-path="url(#clip300)" style="stroke:#000000; stroke-linecap:round; stroke-linejoin:round; stroke-width:2; stroke-opacity:0.5; fill:none" points="363.02,47.2441 2352.76,47.2441 "/>
<polyline clip-path="url(#clip300)" style="stroke:#000000; stroke-linecap:round; stroke-linejoin:round; stroke-width:4; stroke-opacity:1; fill:none" points="410.132,1506.52 410.132,1487.63 "/>
<polyline clip-path="url(#clip300)" style="stroke:#000000; stroke-linecap:round; stroke-linejoin:round; stroke-width:4; stroke-opacity:1; fill:none" points="870.208,1506.52 870.208,1487.63 "/>
<polyline clip-path="url(#clip300)" style="stroke:#000000; stroke-linecap:round; stroke-linejoin:round; stroke-width:4; stroke-opacity:1; fill:none" points="1330.28,1506.52 1330.28,1487.63 "/>
<polyline clip-path="url(#clip300)" style="stroke:#000000; stroke-linecap:round; stroke-linejoin:round; stroke-width:4; stroke-opacity:1; fill:none" points="1790.36,1506.52 1790.36,1487.63 "/>
<polyline clip-path="url(#clip300)" style="stroke:#000000; stroke-linecap:round; stroke-linejoin:round; stroke-width:4; stroke-opacity:1; fill:none" points="2250.44,1506.52 2250.44,1487.63 "/>
<path clip-path="url(#clip300)" d="M387.595 1578.04 Q387.595 1565.78 390.094 1558.33 Q392.64 1550.83 397.59 1546.78 Q402.588 1542.72 410.132 1542.72 Q415.695 1542.72 419.892 1544.98 Q424.088 1547.2 426.823 1551.44 Q429.557 1555.64 431.113 1561.72 Q432.669 1567.76 432.669 1578.04 Q432.669 1590.2 430.17 1597.7 Q427.671 1605.15 422.673 1609.25 Q417.723 1613.3 410.132 1613.3 Q400.136 1613.3 394.431 1606.14 Q387.595 1597.51 387.595 1578.04 M396.317 1578.04 Q396.317 1595.06 400.278 1600.71 Q404.285 1606.32 410.132 1606.32 Q415.978 1606.32 419.939 1600.67 Q423.946 1595.01 423.946 1578.04 Q423.946 1560.97 419.939 1555.36 Q415.978 1549.75 410.038 1549.75 Q404.191 1549.75 400.702 1554.7 Q396.317 1561.01 396.317 1578.04 Z" fill="#000000" fill-rule="nonzero" fill-opacity="1" /><path clip-path="url(#clip300)" d="M820.819 1594.02 L829.731 1593.26 Q830.721 1599.77 834.304 1603.07 Q837.934 1606.32 843.026 1606.32 Q849.156 1606.32 853.399 1601.7 Q857.643 1597.08 857.643 1589.45 Q857.643 1582.18 853.541 1577.99 Q849.486 1573.79 842.885 1573.79 Q838.783 1573.79 835.483 1575.68 Q832.182 1577.52 830.296 1580.49 L822.328 1579.45 L829.023 1543.95 L863.395 1543.95 L863.395 1552.06 L835.813 1552.06 L832.088 1570.63 Q838.312 1566.3 845.148 1566.3 Q854.201 1566.3 860.424 1572.57 Q866.648 1578.84 866.648 1588.69 Q866.648 1598.07 861.179 1604.91 Q854.531 1613.3 843.026 1613.3 Q833.597 1613.3 827.609 1608.02 Q821.668 1602.74 820.819 1594.02 Z" fill="#000000" fill-rule="nonzero" fill-opacity="1" /><path clip-path="url(#clip300)" d="M874.522 1578.04 Q874.522 1565.78 877.021 1558.33 Q879.567 1550.83 884.517 1546.78 Q889.515 1542.72 897.059 1542.72 Q902.622 1542.72 906.819 1544.98 Q911.015 1547.2 913.75 1551.44 Q916.484 1555.64 918.04 1561.72 Q919.596 1567.76 919.596 1578.04 Q919.596 1590.2 917.097 1597.7 Q914.598 1605.15 909.6 1609.25 Q904.65 1613.3 897.059 1613.3 Q887.063 1613.3 881.358 1606.14 Q874.522 1597.51 874.522 1578.04 M883.244 1578.04 Q883.244 1595.06 887.205 1600.71 Q891.212 1606.32 897.059 1606.32 Q902.905 1606.32 906.866 1600.67 Q910.873 1595.01 910.873 1578.04 Q910.873 1560.97 906.866 1555.36 Q902.905 1549.75 896.965 1549.75 Q891.118 1549.75 887.629 1554.7 Q883.244 1561.01 883.244 1578.04 Z" fill="#000000" fill-rule="nonzero" fill-opacity="1" /><path clip-path="url(#clip300)" d="M1282.76 1612.12 L1274.27 1612.12 L1274.27 1558.04 Q1271.21 1560.97 1266.21 1563.89 Q1261.26 1566.81 1257.3 1568.28 L1257.3 1560.07 Q1264.42 1556.72 1269.74 1551.96 Q1275.07 1547.2 1277.29 1542.72 L1282.76 1542.72 L1282.76 1612.12 Z" fill="#000000" fill-rule="nonzero" fill-opacity="1" /><path clip-path="url(#clip300)" d="M1304.49 1578.04 Q1304.49 1565.78 1306.99 1558.33 Q1309.54 1550.83 1314.49 1546.78 Q1319.49 1542.72 1327.03 1542.72 Q1332.59 1542.72 1336.79 1544.98 Q1340.99 1547.2 1343.72 1551.44 Q1346.46 1555.64 1348.01 1561.72 Q1349.57 1567.76 1349.57 1578.04 Q1349.57 1590.2 1347.07 1597.7 Q1344.57 1605.15 1339.57 1609.25 Q1334.62 1613.3 1327.03 1613.3 Q1317.03 1613.3 1311.33 1606.14 Q1304.49 1597.51 1304.49 1578.04 M1313.22 1578.04 Q1313.22 1595.06 1317.18 1600.71 Q1321.18 1606.32 1327.03 1606.32 Q1332.88 1606.32 1336.84 1600.67 Q1340.84 1595.01 1340.84 1578.04 Q1340.84 1560.97 1336.84 1555.36 Q1332.88 1549.75 1326.94 1549.75 Q1321.09 1549.75 1317.6 1554.7 Q1313.22 1561.01 1313.22 1578.04 Z" fill="#000000" fill-rule="nonzero" fill-opacity="1" /><path clip-path="url(#clip300)" d="M1358.2 1578.04 Q1358.2 1565.78 1360.69 1558.33 Q1363.24 1550.83 1368.19 1546.78 Q1373.19 1542.72 1380.73 1542.72 Q1386.3 1542.72 1390.49 1544.98 Q1394.69 1547.2 1397.42 1551.44 Q1400.16 1555.64 1401.71 1561.72 Q1403.27 1567.76 1403.27 1578.04 Q1403.27 1590.2 1400.77 1597.7 Q1398.27 1605.15 1393.27 1609.25 Q1388.32 1613.3 1380.73 1613.3 Q1370.74 1613.3 1365.03 1606.14 Q1358.2 1597.51 1358.2 1578.04 M1366.92 1578.04 Q1366.92 1595.06 1370.88 1600.71 Q1374.89 1606.32 1380.73 1606.32 Q1386.58 1606.32 1390.54 1600.67 Q1394.55 1595.01 1394.55 1578.04 Q1394.55 1560.97 1390.54 1555.36 Q1386.58 1549.75 1380.64 1549.75 Q1374.79 1549.75 1371.3 1554.7 Q1366.92 1561.01 1366.92 1578.04 Z" fill="#000000" fill-rule="nonzero" fill-opacity="1" /><path clip-path="url(#clip300)" d="M1742.83 1612.12 L1734.35 1612.12 L1734.35 1558.04 Q1731.28 1560.97 1726.28 1563.89 Q1721.33 1566.81 1717.37 1568.28 L1717.37 1560.07 Q1724.49 1556.72 1729.82 1551.96 Q1735.15 1547.2 1737.36 1542.72 L1742.83 1542.72 L1742.83 1612.12 Z" fill="#000000" fill-rule="nonzero" fill-opacity="1" /><path clip-path="url(#clip300)" d="M1764.57 1594.02 L1773.48 1593.26 Q1774.47 1599.77 1778.05 1603.07 Q1781.68 1606.32 1786.78 1606.32 Q1792.91 1606.32 1797.15 1601.7 Q1801.39 1597.08 1801.39 1589.45 Q1801.39 1582.18 1797.29 1577.99 Q1793.24 1573.79 1786.63 1573.79 Q1782.53 1573.79 1779.23 1575.68 Q1775.93 1577.52 1774.05 1580.49 L1766.08 1579.45 L1772.77 1543.95 L1807.14 1543.95 L1807.14 1552.06 L1779.56 1552.06 L1775.84 1570.63 Q1782.06 1566.3 1788.9 1566.3 Q1797.95 1566.3 1804.17 1572.57 Q1810.4 1578.84 1810.4 1588.69 Q1810.4 1598.07 1804.93 1604.91 Q1798.28 1613.3 1786.78 1613.3 Q1777.35 1613.3 1771.36 1608.02 Q1765.42 1602.74 1764.57 1594.02 Z" fill="#000000" fill-rule="nonzero" fill-opacity="1" /><path clip-path="url(#clip300)" d="M1818.27 1578.04 Q1818.27 1565.78 1820.77 1558.33 Q1823.32 1550.83 1828.27 1546.78 Q1833.26 1542.72 1840.81 1542.72 Q1846.37 1542.72 1850.57 1544.98 Q1854.76 1547.2 1857.5 1551.44 Q1860.23 1555.64 1861.79 1561.72 Q1863.35 1567.76 1863.35 1578.04 Q1863.35 1590.2 1860.85 1597.7 Q1858.35 1605.15 1853.35 1609.25 Q1848.4 1613.3 1840.81 1613.3 Q1830.81 1613.3 1825.11 1606.14 Q1818.27 1597.51 1818.27 1578.04 M1826.99 1578.04 Q1826.99 1595.06 1830.95 1600.71 Q1834.96 1606.32 1840.81 1606.32 Q1846.65 1606.32 1850.62 1600.67 Q1854.62 1595.01 1854.62 1578.04 Q1854.62 1560.97 1850.62 1555.36 Q1846.65 1549.75 1840.71 1549.75 Q1834.87 1549.75 1831.38 1554.7 Q1826.99 1561.01 1826.99 1578.04 Z" fill="#000000" fill-rule="nonzero" fill-opacity="1" /><path clip-path="url(#clip300)" d="M2219.39 1603.97 L2219.39 1612.12 L2173.7 1612.12 Q2173.61 1609.06 2174.69 1606.23 Q2176.44 1601.56 2180.25 1597.04 Q2184.12 1592.51 2191.38 1586.57 Q2202.65 1577.33 2206.61 1571.95 Q2210.57 1566.53 2210.57 1561.72 Q2210.57 1556.68 2206.94 1553.24 Q2203.36 1549.75 2197.56 1549.75 Q2191.43 1549.75 2187.75 1553.42 Q2184.07 1557.1 2184.03 1563.61 L2175.3 1562.71 Q2176.2 1552.95 2182.05 1547.86 Q2187.89 1542.72 2197.75 1542.72 Q2207.69 1542.72 2213.49 1548.24 Q2219.29 1553.75 2219.29 1561.91 Q2219.29 1566.06 2217.6 1570.07 Q2215.9 1574.07 2211.94 1578.51 Q2208.02 1582.94 2198.88 1590.67 Q2191.24 1597.08 2189.07 1599.39 Q2186.9 1601.66 2185.49 1603.97 L2219.39 1603.97 Z" fill="#000000" fill-rule="nonzero" fill-opacity="1" /><path clip-path="url(#clip300)" d="M2228.49 1578.04 Q2228.49 1565.78 2230.99 1558.33 Q2233.53 1550.83 2238.48 1546.78 Q2243.48 1542.72 2251.02 1542.72 Q2256.59 1542.72 2260.78 1544.98 Q2264.98 1547.2 2267.72 1551.44 Q2270.45 1555.64 2272.01 1561.72 Q2273.56 1567.76 2273.56 1578.04 Q2273.56 1590.2 2271.06 1597.7 Q2268.56 1605.15 2263.57 1609.25 Q2258.62 1613.3 2251.02 1613.3 Q2241.03 1613.3 2235.32 1606.14 Q2228.49 1597.51 2228.49 1578.04 M2237.21 1578.04 Q2237.21 1595.06 2241.17 1600.71 Q2245.18 1606.32 2251.02 1606.32 Q2256.87 1606.32 2260.83 1600.67 Q2264.84 1595.01 2264.84 1578.04 Q2264.84 1560.97 2260.83 1555.36 Q2256.87 1549.75 2250.93 1549.75 Q2245.08 1549.75 2241.59 1554.7 Q2237.21 1561.01 2237.21 1578.04 Z" fill="#000000" fill-rule="nonzero" fill-opacity="1" /><path clip-path="url(#clip300)" d="M2282.19 1578.04 Q2282.19 1565.78 2284.69 1558.33 Q2287.23 1550.83 2292.19 1546.78 Q2297.18 1542.72 2304.73 1542.72 Q2310.29 1542.72 2314.49 1544.98 Q2318.68 1547.2 2321.42 1551.44 Q2324.15 1555.64 2325.71 1561.72 Q2327.26 1567.76 2327.26 1578.04 Q2327.26 1590.2 2324.76 1597.7 Q2322.27 1605.15 2317.27 1609.25 Q2312.32 1613.3 2304.73 1613.3 Q2294.73 1613.3 2289.03 1606.14 Q2282.19 1597.51 2282.19 1578.04 M2290.91 1578.04 Q2290.91 1595.06 2294.87 1600.71 Q2298.88 1606.32 2304.73 1606.32 Q2310.57 1606.32 2314.53 1600.67 Q2318.54 1595.01 2318.54 1578.04 Q2318.54 1560.97 2314.53 1555.36 Q2310.57 1549.75 2304.63 1549.75 Q2298.79 1549.75 2295.3 1554.7 Q2290.91 1561.01 2290.91 1578.04 Z" fill="#000000" fill-rule="nonzero" fill-opacity="1" /><path clip-path="url(#clip300)" d="M1259.07 1722.7 L1268.51 1721.22 Q1269.31 1726.89 1272.91 1729.92 Q1276.57 1732.94 1283.1 1732.94 Q1289.68 1732.94 1292.86 1730.29 Q1296.04 1727.58 1296.04 1723.97 Q1296.04 1720.74 1293.23 1718.88 Q1291.27 1717.61 1283.47 1715.65 Q1272.97 1712.99 1268.88 1711.09 Q1264.85 1709.12 1262.73 1705.73 Q1260.66 1702.28 1260.66 1698.14 Q1260.66 1694.38 1262.36 1691.19 Q1264.11 1687.96 1267.08 1685.84 Q1269.31 1684.19 1273.13 1683.08 Q1277 1681.91 1281.4 1681.91 Q1288.03 1681.91 1293.02 1683.82 Q1298.06 1685.73 1300.44 1689.02 Q1302.83 1692.26 1303.73 1697.72 L1294.4 1698.99 Q1293.76 1694.64 1290.68 1692.2 Q1287.66 1689.76 1282.09 1689.76 Q1275.51 1689.76 1272.7 1691.94 Q1269.89 1694.11 1269.89 1697.03 Q1269.89 1698.89 1271.06 1700.37 Q1272.22 1701.91 1274.72 1702.92 Q1276.15 1703.45 1283.15 1705.36 Q1293.28 1708.06 1297.26 1709.81 Q1301.29 1711.51 1303.57 1714.8 Q1305.85 1718.09 1305.85 1722.97 Q1305.85 1727.74 1303.04 1731.98 Q1300.28 1736.17 1295.03 1738.51 Q1289.78 1740.79 1283.15 1740.79 Q1272.17 1740.79 1266.39 1736.23 Q1260.66 1731.67 1259.07 1722.7 Z" fill="#000000" fill-rule="nonzero" fill-opacity="1" /><path clip-path="url(#clip300)" d="M1338.05 1730.98 L1339.43 1739.41 Q1335.4 1740.26 1332.22 1740.26 Q1327.02 1740.26 1324.15 1738.61 Q1321.29 1736.97 1320.12 1734.32 Q1318.95 1731.61 1318.95 1723.02 L1318.95 1690.61 L1311.95 1690.61 L1311.95 1683.18 L1318.95 1683.18 L1318.95 1669.23 L1328.45 1663.51 L1328.45 1683.18 L1338.05 1683.18 L1338.05 1690.61 L1328.45 1690.61 L1328.45 1723.55 Q1328.45 1727.63 1328.93 1728.8 Q1329.46 1729.97 1330.57 1730.66 Q1331.74 1731.35 1333.86 1731.35 Q1335.45 1731.35 1338.05 1730.98 Z" fill="#000000" fill-rule="nonzero" fill-opacity="1" /><path clip-path="url(#clip300)" d="M1385.95 1721.38 L1395.81 1722.6 Q1393.48 1731.24 1387.17 1736.01 Q1380.86 1740.79 1371.04 1740.79 Q1358.68 1740.79 1351.42 1733.2 Q1344.2 1725.57 1344.2 1711.83 Q1344.2 1697.61 1351.52 1689.76 Q1358.84 1681.91 1370.51 1681.91 Q1381.81 1681.91 1388.97 1689.6 Q1396.13 1697.29 1396.13 1711.24 Q1396.13 1712.09 1396.08 1713.79 L1354.07 1713.79 Q1354.6 1723.07 1359.32 1728.01 Q1364.04 1732.94 1371.1 1732.94 Q1376.35 1732.94 1380.06 1730.18 Q1383.77 1727.42 1385.95 1721.38 M1354.6 1705.94 L1386.05 1705.94 Q1385.42 1698.83 1382.45 1695.28 Q1377.88 1689.76 1370.62 1689.76 Q1364.04 1689.76 1359.53 1694.16 Q1355.08 1698.57 1354.6 1705.94 Z" fill="#000000" fill-rule="nonzero" fill-opacity="1" /><path clip-path="url(#clip300)" d="M1407.8 1761.1 L1407.8 1683.18 L1416.5 1683.18 L1416.5 1690.5 Q1419.58 1686.21 1423.45 1684.09 Q1427.32 1681.91 1432.84 1681.91 Q1440.05 1681.91 1445.57 1685.62 Q1451.08 1689.34 1453.89 1696.13 Q1456.71 1702.86 1456.71 1710.93 Q1456.71 1719.57 1453.58 1726.52 Q1450.5 1733.42 1444.56 1737.13 Q1438.67 1740.79 1432.15 1740.79 Q1427.37 1740.79 1423.55 1738.77 Q1419.79 1736.76 1417.35 1733.68 L1417.35 1761.1 L1407.8 1761.1 M1416.45 1711.67 Q1416.45 1722.54 1420.85 1727.74 Q1425.25 1732.94 1431.51 1732.94 Q1437.88 1732.94 1442.38 1727.58 Q1446.95 1722.17 1446.95 1710.87 Q1446.95 1700.11 1442.49 1694.75 Q1438.09 1689.39 1431.94 1689.39 Q1425.84 1689.39 1421.11 1695.12 Q1416.45 1700.79 1416.45 1711.67 Z" fill="#000000" fill-rule="nonzero" fill-opacity="1" /><polyline clip-path="url(#clip300)" style="stroke:#000000; stroke-linecap:round; stroke-linejoin:round; stroke-width:4; stroke-opacity:1; fill:none" points="363.02,1506.52 363.02,47.2441 "/>
<polyline clip-path="url(#clip300)" style="stroke:#000000; stroke-linecap:round; stroke-linejoin:round; stroke-width:2; stroke-opacity:0.5; fill:none" points="2352.76,1506.52 2352.76,47.2441 "/>
<polyline clip-path="url(#clip300)" style="stroke:#000000; stroke-linecap:round; stroke-linejoin:round; stroke-width:4; stroke-opacity:1; fill:none" points="363.02,1465.22 381.918,1465.22 "/>
<polyline clip-path="url(#clip300)" style="stroke:#000000; stroke-linecap:round; stroke-linejoin:round; stroke-width:4; stroke-opacity:1; fill:none" points="363.02,1112.77 381.918,1112.77 "/>
<polyline clip-path="url(#clip300)" style="stroke:#000000; stroke-linecap:round; stroke-linejoin:round; stroke-width:4; stroke-opacity:1; fill:none" points="363.02,760.322 381.918,760.322 "/>
<polyline clip-path="url(#clip300)" style="stroke:#000000; stroke-linecap:round; stroke-linejoin:round; stroke-width:4; stroke-opacity:1; fill:none" points="363.02,407.87 381.918,407.87 "/>
<polyline clip-path="url(#clip300)" style="stroke:#000000; stroke-linecap:round; stroke-linejoin:round; stroke-width:4; stroke-opacity:1; fill:none" points="363.02,55.4188 381.918,55.4188 "/>
<path clip-path="url(#clip300)" d="M201.416 1465.7 Q201.416 1453.44 203.915 1445.99 Q206.461 1438.49 211.412 1434.44 Q216.409 1430.38 223.953 1430.38 Q229.517 1430.38 233.713 1432.65 Q237.909 1434.86 240.644 1439.1 Q243.378 1443.3 244.934 1449.38 Q246.49 1455.42 246.49 1465.7 Q246.49 1477.86 243.991 1485.36 Q241.492 1492.81 236.495 1496.91 Q231.544 1500.96 223.953 1500.96 Q213.958 1500.96 208.253 1493.8 Q201.416 1485.17 201.416 1465.7 M210.139 1465.7 Q210.139 1482.72 214.099 1488.37 Q218.107 1493.99 223.953 1493.99 Q229.8 1493.99 233.76 1488.33 Q237.768 1482.67 237.768 1465.7 Q237.768 1448.63 233.76 1443.02 Q229.8 1437.41 223.859 1437.41 Q218.012 1437.41 214.523 1442.36 Q210.139 1448.68 210.139 1465.7 Z" fill="#000000" fill-rule="nonzero" fill-opacity="1" /><path clip-path="url(#clip300)" d="M259.88 1499.78 L259.88 1490.12 L269.546 1490.12 L269.546 1499.78 L259.88 1499.78 Z" fill="#000000" fill-rule="nonzero" fill-opacity="1" /><path clip-path="url(#clip300)" d="M281.946 1465.7 Q281.946 1453.44 284.445 1445.99 Q286.991 1438.49 291.942 1434.44 Q296.939 1430.38 304.483 1430.38 Q310.047 1430.38 314.243 1432.65 Q318.439 1434.86 321.174 1439.1 Q323.908 1443.3 325.464 1449.38 Q327.02 1455.42 327.02 1465.7 Q327.02 1477.86 324.521 1485.36 Q322.022 1492.81 317.025 1496.91 Q312.074 1500.96 304.483 1500.96 Q294.488 1500.96 288.783 1493.8 Q281.946 1485.17 281.946 1465.7 M290.669 1465.7 Q290.669 1482.72 294.629 1488.37 Q298.637 1493.99 304.483 1493.99 Q310.33 1493.99 314.29 1488.33 Q318.298 1482.67 318.298 1465.7 Q318.298 1448.63 314.29 1443.02 Q310.33 1437.41 304.389 1437.41 Q298.542 1437.41 295.053 1442.36 Q290.669 1448.68 290.669 1465.7 Z" fill="#000000" fill-rule="nonzero" fill-opacity="1" /><path clip-path="url(#clip300)" d="M245.264 1139.18 L245.264 1147.33 L199.577 1147.33 Q199.483 1144.27 200.567 1141.44 Q202.312 1136.77 206.131 1132.25 Q209.997 1127.72 217.258 1121.78 Q228.527 1112.54 232.487 1107.16 Q236.447 1101.74 236.447 1096.93 Q236.447 1091.89 232.817 1088.44 Q229.234 1084.96 223.434 1084.96 Q217.305 1084.96 213.628 1088.63 Q209.95 1092.31 209.903 1098.82 L201.18 1097.92 Q202.076 1088.16 207.923 1083.07 Q213.769 1077.93 223.623 1077.93 Q233.571 1077.93 239.371 1083.45 Q245.17 1088.96 245.17 1097.12 Q245.17 1101.27 243.473 1105.28 Q241.775 1109.28 237.815 1113.72 Q233.901 1118.15 224.755 1125.88 Q217.117 1132.29 214.948 1134.6 Q212.779 1136.87 211.364 1139.18 L245.264 1139.18 Z" fill="#000000" fill-rule="nonzero" fill-opacity="1" /><path clip-path="url(#clip300)" d="M259.126 1147.33 L259.126 1137.67 L268.792 1137.67 L268.792 1147.33 L259.126 1147.33 Z" fill="#000000" fill-rule="nonzero" fill-opacity="1" /><path clip-path="url(#clip300)" d="M281.192 1129.23 L290.103 1128.47 Q291.093 1134.98 294.676 1138.28 Q298.307 1141.53 303.399 1141.53 Q309.528 1141.53 313.771 1136.91 Q318.015 1132.29 318.015 1124.65 Q318.015 1117.39 313.913 1113.2 Q309.858 1109 303.257 1109 Q299.155 1109 295.855 1110.89 Q292.554 1112.73 290.669 1115.7 L282.7 1114.66 L289.395 1079.16 L323.767 1079.16 L323.767 1087.27 L296.185 1087.27 L292.46 1105.84 Q298.684 1101.5 305.52 1101.5 Q314.573 1101.5 320.797 1107.78 Q327.02 1114.05 327.02 1123.9 Q327.02 1133.28 321.551 1140.12 Q314.903 1148.51 303.399 1148.51 Q293.969 1148.51 287.981 1143.23 Q282.04 1137.95 281.192 1129.23 Z" fill="#000000" fill-rule="nonzero" fill-opacity="1" /><path clip-path="url(#clip300)" d="M201.416 776.777 L210.327 776.022 Q211.317 782.529 214.901 785.829 Q218.531 789.083 223.623 789.083 Q229.752 789.083 233.996 784.462 Q238.239 779.841 238.239 772.203 Q238.239 764.942 234.137 760.746 Q230.082 756.55 223.482 756.55 Q219.38 756.55 216.079 758.436 Q212.779 760.275 210.893 763.245 L202.925 762.208 L209.62 726.705 L243.991 726.705 L243.991 734.814 L216.409 734.814 L212.685 753.391 Q218.908 749.053 225.745 749.053 Q234.797 749.053 241.021 755.324 Q247.245 761.595 247.245 771.449 Q247.245 780.831 241.775 787.668 Q235.127 796.061 223.623 796.061 Q214.193 796.061 208.205 790.78 Q202.265 785.499 201.416 776.777 Z" fill="#000000" fill-rule="nonzero" fill-opacity="1" /><path clip-path="url(#clip300)" d="M259.88 794.882 L259.88 785.216 L269.546 785.216 L269.546 794.882 L259.88 794.882 Z" fill="#000000" fill-rule="nonzero" fill-opacity="1" /><path clip-path="url(#clip300)" d="M281.946 760.793 Q281.946 748.535 284.445 741.085 Q286.991 733.588 291.942 729.534 Q296.939 725.479 304.483 725.479 Q310.047 725.479 314.243 727.742 Q318.439 729.958 321.174 734.201 Q323.908 738.398 325.464 744.48 Q327.02 750.515 327.02 760.793 Q327.02 772.958 324.521 780.454 Q322.022 787.904 317.025 792.006 Q312.074 796.061 304.483 796.061 Q294.488 796.061 288.783 788.894 Q281.946 780.266 281.946 760.793 M290.669 760.793 Q290.669 777.814 294.629 783.472 Q298.637 789.083 304.483 789.083 Q310.33 789.083 314.29 783.425 Q318.298 777.767 318.298 760.793 Q318.298 743.725 314.29 738.115 Q310.33 732.504 304.389 732.504 Q298.542 732.504 295.053 737.455 Q290.669 743.773 290.669 760.793 Z" fill="#000000" fill-rule="nonzero" fill-opacity="1" /><path clip-path="url(#clip300)" d="M201.227 382.363 L201.227 374.206 L245.972 374.206 L245.972 380.807 Q239.371 387.832 232.864 399.478 Q226.405 411.124 222.869 423.429 Q220.323 432.105 219.615 442.43 L210.893 442.43 Q211.034 434.274 214.099 422.722 Q217.164 411.171 222.869 400.468 Q228.621 389.718 235.08 382.363 L201.227 382.363 Z" fill="#000000" fill-rule="nonzero" fill-opacity="1" /><path clip-path="url(#clip300)" d="M259.126 442.43 L259.126 432.765 L268.792 432.765 L268.792 442.43 L259.126 442.43 Z" fill="#000000" fill-rule="nonzero" fill-opacity="1" /><path clip-path="url(#clip300)" d="M281.192 424.325 L290.103 423.571 Q291.093 430.077 294.676 433.378 Q298.307 436.631 303.399 436.631 Q309.528 436.631 313.771 432.01 Q318.015 427.39 318.015 419.752 Q318.015 412.491 313.913 408.295 Q309.858 404.098 303.257 404.098 Q299.155 404.098 295.855 405.984 Q292.554 407.823 290.669 410.794 L282.7 409.756 L289.395 374.253 L323.767 374.253 L323.767 382.363 L296.185 382.363 L292.46 400.939 Q298.684 396.602 305.52 396.602 Q314.573 396.602 320.797 402.873 Q327.02 409.143 327.02 418.997 Q327.02 428.38 321.551 435.217 Q314.903 443.609 303.399 443.609 Q293.969 443.609 287.981 438.328 Q282.04 433.048 281.192 424.325 Z" fill="#000000" fill-rule="nonzero" fill-opacity="1" /><path clip-path="url(#clip300)" d="M179.68 89.9788 L171.194 89.9788 L171.194 35.8993 Q168.129 38.8225 163.131 41.7457 Q158.181 44.6689 154.22 46.1305 L154.22 37.9267 Q161.34 34.5791 166.667 29.8171 Q171.995 25.0551 174.211 20.5759 L179.68 20.5759 L179.68 89.9788 Z" fill="#000000" fill-rule="nonzero" fill-opacity="1" /><path clip-path="url(#clip300)" d="M201.416 55.8903 Q201.416 43.6317 203.915 36.1822 Q206.461 28.6855 211.412 24.6307 Q216.409 20.5759 223.953 20.5759 Q229.517 20.5759 233.713 22.8391 Q237.909 25.0551 240.644 29.2984 Q243.378 33.4947 244.934 39.5769 Q246.49 45.6119 246.49 55.8903 Q246.49 68.0547 243.991 75.5513 Q241.492 83.0008 236.495 87.1028 Q231.544 91.1575 223.953 91.1575 Q213.958 91.1575 208.253 83.9909 Q201.416 75.3627 201.416 55.8903 M210.139 55.8903 Q210.139 72.911 214.099 78.5688 Q218.107 84.1795 223.953 84.1795 Q229.8 84.1795 233.76 78.5217 Q237.768 72.8639 237.768 55.8903 Q237.768 38.8225 233.76 33.2118 Q229.8 27.6011 223.859 27.6011 Q218.012 27.6011 214.523 32.5517 Q210.139 38.8696 210.139 55.8903 Z" fill="#000000" fill-rule="nonzero" fill-opacity="1" /><path clip-path="url(#clip300)" d="M259.88 89.9788 L259.88 80.3133 L269.546 80.3133 L269.546 89.9788 L259.88 89.9788 Z" fill="#000000" fill-rule="nonzero" fill-opacity="1" /><path clip-path="url(#clip300)" d="M281.946 55.8903 Q281.946 43.6317 284.445 36.1822 Q286.991 28.6855 291.942 24.6307 Q296.939 20.5759 304.483 20.5759 Q310.047 20.5759 314.243 22.8391 Q318.439 25.0551 321.174 29.2984 Q323.908 33.4947 325.464 39.5769 Q327.02 45.6119 327.02 55.8903 Q327.02 68.0547 324.521 75.5513 Q322.022 83.0008 317.025 87.1028 Q312.074 91.1575 304.483 91.1575 Q294.488 91.1575 288.783 83.9909 Q281.946 75.3627 281.946 55.8903 M290.669 55.8903 Q290.669 72.911 294.629 78.5688 Q298.637 84.1795 304.483 84.1795 Q310.33 84.1795 314.29 78.5217 Q318.298 72.8639 318.298 55.8903 Q318.298 38.8225 314.29 33.2118 Q310.33 27.6011 304.389 27.6011 Q298.542 27.6011 295.053 32.5517 Q290.669 38.8696 290.669 55.8903 Z" fill="#000000" fill-rule="nonzero" fill-opacity="1" /><path clip-path="url(#clip300)" d="M94.8922 867.905 L17.1322 867.905 L17.1322 858.357 L94.8922 858.357 L94.8922 867.905 Z" fill="#000000" fill-rule="nonzero" fill-opacity="1" /><path clip-path="url(#clip300)" d="M66.7267 847.112 Q51.0792 847.112 43.5472 838.413 Q37.2882 831.146 37.2882 820.697 Q37.2882 809.081 44.9263 801.708 Q52.5114 794.335 65.9311 794.335 Q76.8047 794.335 83.0637 797.623 Q89.2697 800.859 92.7174 807.118 Q96.1652 813.324 96.1652 820.697 Q96.1652 832.525 88.5801 839.845 Q80.9951 847.112 66.7267 847.112 M66.7267 837.299 Q77.5473 837.299 82.9576 832.578 Q88.3149 827.858 88.3149 820.697 Q88.3149 813.589 82.9046 808.868 Q77.4943 804.148 66.4084 804.148 Q55.9591 804.148 50.6018 808.921 Q45.1915 813.642 45.1915 820.697 Q45.1915 827.858 50.5488 832.578 Q55.9061 837.299 66.7267 837.299 Z" fill="#000000" fill-rule="nonzero" fill-opacity="1" /><path clip-path="url(#clip300)" d="M78.0778 786.962 L76.5926 777.52 Q82.2681 776.725 85.2915 773.118 Q88.3149 769.458 88.3149 762.934 Q88.3149 756.357 85.6628 753.174 Q82.9576 749.991 79.3508 749.991 Q76.1152 749.991 74.2587 752.803 Q72.9857 754.765 71.0231 762.563 Q68.371 773.065 66.4615 777.149 Q64.4989 781.18 61.1042 783.302 Q57.6565 785.371 53.5192 785.371 Q49.7532 785.371 46.5706 783.673 Q43.335 781.923 41.2134 778.953 Q39.569 776.725 38.4552 772.906 Q37.2882 769.034 37.2882 764.631 Q37.2882 758.001 39.1978 753.015 Q41.1073 747.976 44.3959 745.589 Q47.6315 743.202 53.0948 742.3 L54.3678 751.636 Q50.0184 752.272 47.5784 755.349 Q45.1385 758.372 45.1385 763.942 Q45.1385 770.519 47.3132 773.33 Q49.488 776.141 52.4053 776.141 Q54.2618 776.141 55.7469 774.974 Q57.2852 773.807 58.293 771.314 Q58.8234 769.882 60.7329 762.881 Q63.4381 752.75 65.1885 748.772 Q66.8858 744.74 70.1744 742.459 Q73.4631 740.179 78.343 740.179 Q83.1168 740.179 87.3602 742.99 Q91.5505 745.748 93.8844 750.999 Q96.1652 756.25 96.1652 762.881 Q96.1652 773.861 91.6035 779.642 Q87.0419 785.371 78.0778 786.962 Z" fill="#000000" fill-rule="nonzero" fill-opacity="1" /><path clip-path="url(#clip300)" d="M78.0778 732.647 L76.5926 723.205 Q82.2681 722.41 85.2915 718.803 Q88.3149 715.143 88.3149 708.619 Q88.3149 702.041 85.6628 698.859 Q82.9576 695.676 79.3508 695.676 Q76.1152 695.676 74.2587 698.487 Q72.9857 700.45 71.0231 708.247 Q68.371 718.75 66.4615 722.834 Q64.4989 726.865 61.1042 728.987 Q57.6565 731.055 53.5192 731.055 Q49.7532 731.055 46.5706 729.358 Q43.335 727.608 41.2134 724.637 Q39.569 722.41 38.4552 718.59 Q37.2882 714.718 37.2882 710.316 Q37.2882 703.686 39.1978 698.7 Q41.1073 693.661 44.3959 691.274 Q47.6315 688.887 53.0948 687.985 L54.3678 697.32 Q50.0184 697.957 47.5784 701.033 Q45.1385 704.057 45.1385 709.626 Q45.1385 716.204 47.3132 719.015 Q49.488 721.826 52.4053 721.826 Q54.2618 721.826 55.7469 720.659 Q57.2852 719.492 58.293 716.999 Q58.8234 715.567 60.7329 708.565 Q63.4381 698.434 65.1885 694.456 Q66.8858 690.425 70.1744 688.144 Q73.4631 685.863 78.343 685.863 Q83.1168 685.863 87.3602 688.675 Q91.5505 691.433 93.8844 696.684 Q96.1652 701.935 96.1652 708.565 Q96.1652 719.545 91.6035 725.327 Q87.0419 731.055 78.0778 732.647 Z" fill="#000000" fill-rule="nonzero" fill-opacity="1" /><polyline clip-path="url(#clip302)" style="stroke:#4477aa; stroke-linecap:round; stroke-linejoin:round; stroke-width:8; stroke-opacity:1; fill:none" points="419.333,88.5445 428.535,1343.55 437.736,1386.16 446.938,1320.82 456.139,1288.53 465.341,1450.37 474.543,1457.96 483.744,1266.12 492.946,1451.42 502.147,1465.22 511.349,1257.25 520.55,1427.39 529.752,1454.6 538.953,1446.57 548.155,1278.28 557.356,1344.54 566.558,1364.25 575.759,1450 584.961,1465 594.162,1443.8 603.364,1462.95 612.565,1454.24 621.767,1461.99 630.968,1453.33 640.17,1437.11 649.371,1461.04 658.573,1460.41 667.774,1463.9 676.976,1450.65 686.177,1359.33 695.379,1382.86 704.58,1465.12 713.782,1443.4 722.983,1437.24 732.185,1459.92 741.386,1460.02 750.588,1465.03 759.79,1443.1 768.991,1452.46 778.193,1463.41 787.394,1464.51 796.596,1464.4 805.797,1444.81 814.999,1457.1 824.2,1454.37 833.402,1428.85 842.603,1447.92 851.805,1464.12 861.006,1416.9 870.208,1449.58 879.409,1452.63 888.611,1422.93 897.812,1442.15 907.014,1465.12 916.215,1416.49 925.417,1343.02 934.618,1447.19 943.82,1379.67 953.021,1434.24 962.223,1454.19 971.424,1429.96 980.626,1463.3 989.827,1457.57 999.029,1463.18 1008.23,1464.33 1017.43,1450.77 1026.63,1442.9 1035.83,1442.07 1045.04,1464.22 1054.24,1450.19 1063.44,1323.34 1072.64,1359.28 1081.84,1464.36 1091.04,1449.62 1100.25,1452.29 1109.45,1444.28 1118.65,1463.65 1127.85,1459.46 1137.05,1452.82 1146.25,1455.56 1155.45,1465.19 1164.66,1464.5 1173.86,1464.12 1183.06,1453.47 1192.26,1462.41 1201.46,1462.35 1210.66,1443.41 1219.87,1447.45 1229.07,1464.67 1238.27,1433.56 1247.47,1449.22 1256.67,1447.63 1265.87,1439.85 1275.07,1444.49 1284.28,1464.25 1293.48,1409.37 1302.68,1353.5 1311.88,1456.23 1321.08,1382.39 1330.28,1430.72 1339.49,1450.41 1348.69,1427.02 1357.89,1463.36 1367.09,1458.12 1376.29,1463.38 1385.49,1464.99 1394.69,1452.81 1403.9,1437.97 1413.1,1437.17 1422.3,1464.28 1431.5,1450.1 1440.7,1316.1 1449.9,1354.58 1459.1,1463.88 1468.31,1450.66 1477.51,1454.45 1486.71,1440.25 1495.91,1464.09 1505.11,1456.66 1514.31,1454.31 1523.52,1456.09 1532.72,1465.22 1541.92,1463.86 1551.12,1464.06 1560.32,1454.81 1569.52,1463.09 1578.72,1463.26 1587.93,1445.7 1597.13,1447.37 1606.33,1464.75 1615.53,1436.26 1624.73,1449.15 1633.93,1446.61 1643.14,1442.52 1652.34,1444.91 1661.54,1463.99 1670.74,1408 1679.94,1355.39 1689.14,1457.56 1698.34,1382.88 1707.55,1430.04 1716.75,1449.65 1725.95,1426.46 1735.15,1463.37 1744.35,1458.22 1753.55,1463.41 1762.75,1465.07 1771.96,1453.17 1781.16,1437.01 1790.36,1436.21 1799.56,1464.29 1808.76,1450.09 1817.96,1314.74 1827.17,1353.7 1836.37,1463.78 1845.57,1450.85 1854.77,1454.83 1863.97,1439.47 1873.17,1464.16 1882.37,1456.08 1891.58,1454.58 1900.78,1456.18 1909.98,1465.22 1919.18,1463.72 1928.38,1464.05 1937.58,1455.05 1946.79,1463.21 1955.99,1463.42 1965.19,1446.11 1974.39,1447.35 1983.59,1464.76 1992.79,1436.75 2001.99,1449.14 2011.2,1446.41 2020.4,1442.99 2029.6,1444.98 2038.8,1463.94 2048,1407.74 2057.2,1355.74 2066.4,1457.8 2075.61,1382.98 2084.81,1429.92 2094.01,1449.5 2103.21,1426.36 2112.41,1463.37 2121.61,1458.24 2130.82,1463.42 2140.02,1465.08 2149.22,1453.24 2158.42,1436.82 2167.62,1436.03 2176.82,1464.29 2186.02,1450.08 2195.23,1314.49 2204.43,1353.54 2213.63,1463.76 2222.83,1450.88 2232.03,1454.9 2241.23,1439.32 2250.44,1464.18 2259.64,1455.97 2268.84,1454.63 2278.04,1456.2 2287.24,1465.22 2296.44,1463.7 "/>
<circle clip-path="url(#clip302)" cx="419.333" cy="88.5445" r="7.2" fill="#4477aa" fill-rule="evenodd" fill-opacity="1" stroke="#000000" stroke-opacity="1" stroke-width="3.6"/>
<circle clip-path="url(#clip302)" cx="428.535" cy="1343.55" r="7.2" fill="#4477aa" fill-rule="evenodd" fill-opacity="1" stroke="#000000" stroke-opacity="1" stroke-width="3.6"/>
<circle clip-path="url(#clip302)" cx="437.736" cy="1386.16" r="7.2" fill="#4477aa" fill-rule="evenodd" fill-opacity="1" stroke="#000000" stroke-opacity="1" stroke-width="3.6"/>
<circle clip-path="url(#clip302)" cx="446.938" cy="1320.82" r="7.2" fill="#4477aa" fill-rule="evenodd" fill-opacity="1" stroke="#000000" stroke-opacity="1" stroke-width="3.6"/>
<circle clip-path="url(#clip302)" cx="456.139" cy="1288.53" r="7.2" fill="#4477aa" fill-rule="evenodd" fill-opacity="1" stroke="#000000" stroke-opacity="1" stroke-width="3.6"/>
<circle clip-path="url(#clip302)" cx="465.341" cy="1450.37" r="7.2" fill="#4477aa" fill-rule="evenodd" fill-opacity="1" stroke="#000000" stroke-opacity="1" stroke-width="3.6"/>
<circle clip-path="url(#clip302)" cx="474.543" cy="1457.96" r="7.2" fill="#4477aa" fill-rule="evenodd" fill-opacity="1" stroke="#000000" stroke-opacity="1" stroke-width="3.6"/>
<circle clip-path="url(#clip302)" cx="483.744" cy="1266.12" r="7.2" fill="#4477aa" fill-rule="evenodd" fill-opacity="1" stroke="#000000" stroke-opacity="1" stroke-width="3.6"/>
<circle clip-path="url(#clip302)" cx="492.946" cy="1451.42" r="7.2" fill="#4477aa" fill-rule="evenodd" fill-opacity="1" stroke="#000000" stroke-opacity="1" stroke-width="3.6"/>
<circle clip-path="url(#clip302)" cx="502.147" cy="1465.22" r="7.2" fill="#4477aa" fill-rule="evenodd" fill-opacity="1" stroke="#000000" stroke-opacity="1" stroke-width="3.6"/>
<circle clip-path="url(#clip302)" cx="511.349" cy="1257.25" r="7.2" fill="#4477aa" fill-rule="evenodd" fill-opacity="1" stroke="#000000" stroke-opacity="1" stroke-width="3.6"/>
<circle clip-path="url(#clip302)" cx="520.55" cy="1427.39" r="7.2" fill="#4477aa" fill-rule="evenodd" fill-opacity="1" stroke="#000000" stroke-opacity="1" stroke-width="3.6"/>
<circle clip-path="url(#clip302)" cx="529.752" cy="1454.6" r="7.2" fill="#4477aa" fill-rule="evenodd" fill-opacity="1" stroke="#000000" stroke-opacity="1" stroke-width="3.6"/>
<circle clip-path="url(#clip302)" cx="538.953" cy="1446.57" r="7.2" fill="#4477aa" fill-rule="evenodd" fill-opacity="1" stroke="#000000" stroke-opacity="1" stroke-width="3.6"/>
<circle clip-path="url(#clip302)" cx="548.155" cy="1278.28" r="7.2" fill="#4477aa" fill-rule="evenodd" fill-opacity="1" stroke="#000000" stroke-opacity="1" stroke-width="3.6"/>
<circle clip-path="url(#clip302)" cx="557.356" cy="1344.54" r="7.2" fill="#4477aa" fill-rule="evenodd" fill-opacity="1" stroke="#000000" stroke-opacity="1" stroke-width="3.6"/>
<circle clip-path="url(#clip302)" cx="566.558" cy="1364.25" r="7.2" fill="#4477aa" fill-rule="evenodd" fill-opacity="1" stroke="#000000" stroke-opacity="1" stroke-width="3.6"/>
<circle clip-path="url(#clip302)" cx="575.759" cy="1450" r="7.2" fill="#4477aa" fill-rule="evenodd" fill-opacity="1" stroke="#000000" stroke-opacity="1" stroke-width="3.6"/>
<circle clip-path="url(#clip302)" cx="584.961" cy="1465" r="7.2" fill="#4477aa" fill-rule="evenodd" fill-opacity="1" stroke="#000000" stroke-opacity="1" stroke-width="3.6"/>
<circle clip-path="url(#clip302)" cx="594.162" cy="1443.8" r="7.2" fill="#4477aa" fill-rule="evenodd" fill-opacity="1" stroke="#000000" stroke-opacity="1" stroke-width="3.6"/>
<circle clip-path="url(#clip302)" cx="603.364" cy="1462.95" r="7.2" fill="#4477aa" fill-rule="evenodd" fill-opacity="1" stroke="#000000" stroke-opacity="1" stroke-width="3.6"/>
<circle clip-path="url(#clip302)" cx="612.565" cy="1454.24" r="7.2" fill="#4477aa" fill-rule="evenodd" fill-opacity="1" stroke="#000000" stroke-opacity="1" stroke-width="3.6"/>
<circle clip-path="url(#clip302)" cx="621.767" cy="1461.99" r="7.2" fill="#4477aa" fill-rule="evenodd" fill-opacity="1" stroke="#000000" stroke-opacity="1" stroke-width="3.6"/>
<circle clip-path="url(#clip302)" cx="630.968" cy="1453.33" r="7.2" fill="#4477aa" fill-rule="evenodd" fill-opacity="1" stroke="#000000" stroke-opacity="1" stroke-width="3.6"/>
<circle clip-path="url(#clip302)" cx="640.17" cy="1437.11" r="7.2" fill="#4477aa" fill-rule="evenodd" fill-opacity="1" stroke="#000000" stroke-opacity="1" stroke-width="3.6"/>
<circle clip-path="url(#clip302)" cx="649.371" cy="1461.04" r="7.2" fill="#4477aa" fill-rule="evenodd" fill-opacity="1" stroke="#000000" stroke-opacity="1" stroke-width="3.6"/>
<circle clip-path="url(#clip302)" cx="658.573" cy="1460.41" r="7.2" fill="#4477aa" fill-rule="evenodd" fill-opacity="1" stroke="#000000" stroke-opacity="1" stroke-width="3.6"/>
<circle clip-path="url(#clip302)" cx="667.774" cy="1463.9" r="7.2" fill="#4477aa" fill-rule="evenodd" fill-opacity="1" stroke="#000000" stroke-opacity="1" stroke-width="3.6"/>
<circle clip-path="url(#clip302)" cx="676.976" cy="1450.65" r="7.2" fill="#4477aa" fill-rule="evenodd" fill-opacity="1" stroke="#000000" stroke-opacity="1" stroke-width="3.6"/>
<circle clip-path="url(#clip302)" cx="686.177" cy="1359.33" r="7.2" fill="#4477aa" fill-rule="evenodd" fill-opacity="1" stroke="#000000" stroke-opacity="1" stroke-width="3.6"/>
<circle clip-path="url(#clip302)" cx="695.379" cy="1382.86" r="7.2" fill="#4477aa" fill-rule="evenodd" fill-opacity="1" stroke="#000000" stroke-opacity="1" stroke-width="3.6"/>
<circle clip-path="url(#clip302)" cx="704.58" cy="1465.12" r="7.2" fill="#4477aa" fill-rule="evenodd" fill-opacity="1" stroke="#000000" stroke-opacity="1" stroke-width="3.6"/>
<circle clip-path="url(#clip302)" cx="713.782" cy="1443.4" r="7.2" fill="#4477aa" fill-rule="evenodd" fill-opacity="1" stroke="#000000" stroke-opacity="1" stroke-width="3.6"/>
<circle clip-path="url(#clip302)" cx="722.983" cy="1437.24" r="7.2" fill="#4477aa" fill-rule="evenodd" fill-opacity="1" stroke="#000000" stroke-opacity="1" stroke-width="3.6"/>
<circle clip-path="url(#clip302)" cx="732.185" cy="1459.92" r="7.2" fill="#4477aa" fill-rule="evenodd" fill-opacity="1" stroke="#000000" stroke-opacity="1" stroke-width="3.6"/>
<circle clip-path="url(#clip302)" cx="741.386" cy="1460.02" r="7.2" fill="#4477aa" fill-rule="evenodd" fill-opacity="1" stroke="#000000" stroke-opacity="1" stroke-width="3.6"/>
<circle clip-path="url(#clip302)" cx="750.588" cy="1465.03" r="7.2" fill="#4477aa" fill-rule="evenodd" fill-opacity="1" stroke="#000000" stroke-opacity="1" stroke-width="3.6"/>
<circle clip-path="url(#clip302)" cx="759.79" cy="1443.1" r="7.2" fill="#4477aa" fill-rule="evenodd" fill-opacity="1" stroke="#000000" stroke-opacity="1" stroke-width="3.6"/>
<circle clip-path="url(#clip302)" cx="768.991" cy="1452.46" r="7.2" fill="#4477aa" fill-rule="evenodd" fill-opacity="1" stroke="#000000" stroke-opacity="1" stroke-width="3.6"/>
<circle clip-path="url(#clip302)" cx="778.193" cy="1463.41" r="7.2" fill="#4477aa" fill-rule="evenodd" fill-opacity="1" stroke="#000000" stroke-opacity="1" stroke-width="3.6"/>
<circle clip-path="url(#clip302)" cx="787.394" cy="1464.51" r="7.2" fill="#4477aa" fill-rule="evenodd" fill-opacity="1" stroke="#000000" stroke-opacity="1" stroke-width="3.6"/>
<circle clip-path="url(#clip302)" cx="796.596" cy="1464.4" r="7.2" fill="#4477aa" fill-rule="evenodd" fill-opacity="1" stroke="#000000" stroke-opacity="1" stroke-width="3.6"/>
<circle clip-path="url(#clip302)" cx="805.797" cy="1444.81" r="7.2" fill="#4477aa" fill-rule="evenodd" fill-opacity="1" stroke="#000000" stroke-opacity="1" stroke-width="3.6"/>
<circle clip-path="url(#clip302)" cx="814.999" cy="1457.1" r="7.2" fill="#4477aa" fill-rule="evenodd" fill-opacity="1" stroke="#000000" stroke-opacity="1" stroke-width="3.6"/>
<circle clip-path="url(#clip302)" cx="824.2" cy="1454.37" r="7.2" fill="#4477aa" fill-rule="evenodd" fill-opacity="1" stroke="#000000" stroke-opacity="1" stroke-width="3.6"/>
<circle clip-path="url(#clip302)" cx="833.402" cy="1428.85" r="7.2" fill="#4477aa" fill-rule="evenodd" fill-opacity="1" stroke="#000000" stroke-opacity="1" stroke-width="3.6"/>
<circle clip-path="url(#clip302)" cx="842.603" cy="1447.92" r="7.2" fill="#4477aa" fill-rule="evenodd" fill-opacity="1" stroke="#000000" stroke-opacity="1" stroke-width="3.6"/>
<circle clip-path="url(#clip302)" cx="851.805" cy="1464.12" r="7.2" fill="#4477aa" fill-rule="evenodd" fill-opacity="1" stroke="#000000" stroke-opacity="1" stroke-width="3.6"/>
<circle clip-path="url(#clip302)" cx="861.006" cy="1416.9" r="7.2" fill="#4477aa" fill-rule="evenodd" fill-opacity="1" stroke="#000000" stroke-opacity="1" stroke-width="3.6"/>
<circle clip-path="url(#clip302)" cx="870.208" cy="1449.58" r="7.2" fill="#4477aa" fill-rule="evenodd" fill-opacity="1" stroke="#000000" stroke-opacity="1" stroke-width="3.6"/>
<circle clip-path="url(#clip302)" cx="879.409" cy="1452.63" r="7.2" fill="#4477aa" fill-rule="evenodd" fill-opacity="1" stroke="#000000" stroke-opacity="1" stroke-width="3.6"/>
<circle clip-path="url(#clip302)" cx="888.611" cy="1422.93" r="7.2" fill="#4477aa" fill-rule="evenodd" fill-opacity="1" stroke="#000000" stroke-opacity="1" stroke-width="3.6"/>
<circle clip-path="url(#clip302)" cx="897.812" cy="1442.15" r="7.2" fill="#4477aa" fill-rule="evenodd" fill-opacity="1" stroke="#000000" stroke-opacity="1" stroke-width="3.6"/>
<circle clip-path="url(#clip302)" cx="907.014" cy="1465.12" r="7.2" fill="#4477aa" fill-rule="evenodd" fill-opacity="1" stroke="#000000" stroke-opacity="1" stroke-width="3.6"/>
<circle clip-path="url(#clip302)" cx="916.215" cy="1416.49" r="7.2" fill="#4477aa" fill-rule="evenodd" fill-opacity="1" stroke="#000000" stroke-opacity="1" stroke-width="3.6"/>
<circle clip-path="url(#clip302)" cx="925.417" cy="1343.02" r="7.2" fill="#4477aa" fill-rule="evenodd" fill-opacity="1" stroke="#000000" stroke-opacity="1" stroke-width="3.6"/>
<circle clip-path="url(#clip302)" cx="934.618" cy="1447.19" r="7.2" fill="#4477aa" fill-rule="evenodd" fill-opacity="1" stroke="#000000" stroke-opacity="1" stroke-width="3.6"/>
<circle clip-path="url(#clip302)" cx="943.82" cy="1379.67" r="7.2" fill="#4477aa" fill-rule="evenodd" fill-opacity="1" stroke="#000000" stroke-opacity="1" stroke-width="3.6"/>
<circle clip-path="url(#clip302)" cx="953.021" cy="1434.24" r="7.2" fill="#4477aa" fill-rule="evenodd" fill-opacity="1" stroke="#000000" stroke-opacity="1" stroke-width="3.6"/>
<circle clip-path="url(#clip302)" cx="962.223" cy="1454.19" r="7.2" fill="#4477aa" fill-rule="evenodd" fill-opacity="1" stroke="#000000" stroke-opacity="1" stroke-width="3.6"/>
<circle clip-path="url(#clip302)" cx="971.424" cy="1429.96" r="7.2" fill="#4477aa" fill-rule="evenodd" fill-opacity="1" stroke="#000000" stroke-opacity="1" stroke-width="3.6"/>
<circle clip-path="url(#clip302)" cx="980.626" cy="1463.3" r="7.2" fill="#4477aa" fill-rule="evenodd" fill-opacity="1" stroke="#000000" stroke-opacity="1" stroke-width="3.6"/>
<circle clip-path="url(#clip302)" cx="989.827" cy="1457.57" r="7.2" fill="#4477aa" fill-rule="evenodd" fill-opacity="1" stroke="#000000" stroke-opacity="1" stroke-width="3.6"/>
<circle clip-path="url(#clip302)" cx="999.029" cy="1463.18" r="7.2" fill="#4477aa" fill-rule="evenodd" fill-opacity="1" stroke="#000000" stroke-opacity="1" stroke-width="3.6"/>
<circle clip-path="url(#clip302)" cx="1008.23" cy="1464.33" r="7.2" fill="#4477aa" fill-rule="evenodd" fill-opacity="1" stroke="#000000" stroke-opacity="1" stroke-width="3.6"/>
<circle clip-path="url(#clip302)" cx="1017.43" cy="1450.77" r="7.2" fill="#4477aa" fill-rule="evenodd" fill-opacity="1" stroke="#000000" stroke-opacity="1" stroke-width="3.6"/>
<circle clip-path="url(#clip302)" cx="1026.63" cy="1442.9" r="7.2" fill="#4477aa" fill-rule="evenodd" fill-opacity="1" stroke="#000000" stroke-opacity="1" stroke-width="3.6"/>
<circle clip-path="url(#clip302)" cx="1035.83" cy="1442.07" r="7.2" fill="#4477aa" fill-rule="evenodd" fill-opacity="1" stroke="#000000" stroke-opacity="1" stroke-width="3.6"/>
<circle clip-path="url(#clip302)" cx="1045.04" cy="1464.22" r="7.2" fill="#4477aa" fill-rule="evenodd" fill-opacity="1" stroke="#000000" stroke-opacity="1" stroke-width="3.6"/>
<circle clip-path="url(#clip302)" cx="1054.24" cy="1450.19" r="7.2" fill="#4477aa" fill-rule="evenodd" fill-opacity="1" stroke="#000000" stroke-opacity="1" stroke-width="3.6"/>
<circle clip-path="url(#clip302)" cx="1063.44" cy="1323.34" r="7.2" fill="#4477aa" fill-rule="evenodd" fill-opacity="1" stroke="#000000" stroke-opacity="1" stroke-width="3.6"/>
<circle clip-path="url(#clip302)" cx="1072.64" cy="1359.28" r="7.2" fill="#4477aa" fill-rule="evenodd" fill-opacity="1" stroke="#000000" stroke-opacity="1" stroke-width="3.6"/>
<circle clip-path="url(#clip302)" cx="1081.84" cy="1464.36" r="7.2" fill="#4477aa" fill-rule="evenodd" fill-opacity="1" stroke="#000000" stroke-opacity="1" stroke-width="3.6"/>
<circle clip-path="url(#clip302)" cx="1091.04" cy="1449.62" r="7.2" fill="#4477aa" fill-rule="evenodd" fill-opacity="1" stroke="#000000" stroke-opacity="1" stroke-width="3.6"/>
<circle clip-path="url(#clip302)" cx="1100.25" cy="1452.29" r="7.2" fill="#4477aa" fill-rule="evenodd" fill-opacity="1" stroke="#000000" stroke-opacity="1" stroke-width="3.6"/>
<circle clip-path="url(#clip302)" cx="1109.45" cy="1444.28" r="7.2" fill="#4477aa" fill-rule="evenodd" fill-opacity="1" stroke="#000000" stroke-opacity="1" stroke-width="3.6"/>
<circle clip-path="url(#clip302)" cx="1118.65" cy="1463.65" r="7.2" fill="#4477aa" fill-rule="evenodd" fill-opacity="1" stroke="#000000" stroke-opacity="1" stroke-width="3.6"/>
<circle clip-path="url(#clip302)" cx="1127.85" cy="1459.46" r="7.2" fill="#4477aa" fill-rule="evenodd" fill-opacity="1" stroke="#000000" stroke-opacity="1" stroke-width="3.6"/>
<circle clip-path="url(#clip302)" cx="1137.05" cy="1452.82" r="7.2" fill="#4477aa" fill-rule="evenodd" fill-opacity="1" stroke="#000000" stroke-opacity="1" stroke-width="3.6"/>
<circle clip-path="url(#clip302)" cx="1146.25" cy="1455.56" r="7.2" fill="#4477aa" fill-rule="evenodd" fill-opacity="1" stroke="#000000" stroke-opacity="1" stroke-width="3.6"/>
<circle clip-path="url(#clip302)" cx="1155.45" cy="1465.19" r="7.2" fill="#4477aa" fill-rule="evenodd" fill-opacity="1" stroke="#000000" stroke-opacity="1" stroke-width="3.6"/>
<circle clip-path="url(#clip302)" cx="1164.66" cy="1464.5" r="7.2" fill="#4477aa" fill-rule="evenodd" fill-opacity="1" stroke="#000000" stroke-opacity="1" stroke-width="3.6"/>
<circle clip-path="url(#clip302)" cx="1173.86" cy="1464.12" r="7.2" fill="#4477aa" fill-rule="evenodd" fill-opacity="1" stroke="#000000" stroke-opacity="1" stroke-width="3.6"/>
<circle clip-path="url(#clip302)" cx="1183.06" cy="1453.47" r="7.2" fill="#4477aa" fill-rule="evenodd" fill-opacity="1" stroke="#000000" stroke-opacity="1" stroke-width="3.6"/>
<circle clip-path="url(#clip302)" cx="1192.26" cy="1462.41" r="7.2" fill="#4477aa" fill-rule="evenodd" fill-opacity="1" stroke="#000000" stroke-opacity="1" stroke-width="3.6"/>
<circle clip-path="url(#clip302)" cx="1201.46" cy="1462.35" r="7.2" fill="#4477aa" fill-rule="evenodd" fill-opacity="1" stroke="#000000" stroke-opacity="1" stroke-width="3.6"/>
<circle clip-path="url(#clip302)" cx="1210.66" cy="1443.41" r="7.2" fill="#4477aa" fill-rule="evenodd" fill-opacity="1" stroke="#000000" stroke-opacity="1" stroke-width="3.6"/>
<circle clip-path="url(#clip302)" cx="1219.87" cy="1447.45" r="7.2" fill="#4477aa" fill-rule="evenodd" fill-opacity="1" stroke="#000000" stroke-opacity="1" stroke-width="3.6"/>
<circle clip-path="url(#clip302)" cx="1229.07" cy="1464.67" r="7.2" fill="#4477aa" fill-rule="evenodd" fill-opacity="1" stroke="#000000" stroke-opacity="1" stroke-width="3.6"/>
<circle clip-path="url(#clip302)" cx="1238.27" cy="1433.56" r="7.2" fill="#4477aa" fill-rule="evenodd" fill-opacity="1" stroke="#000000" stroke-opacity="1" stroke-width="3.6"/>
<circle clip-path="url(#clip302)" cx="1247.47" cy="1449.22" r="7.2" fill="#4477aa" fill-rule="evenodd" fill-opacity="1" stroke="#000000" stroke-opacity="1" stroke-width="3.6"/>
<circle clip-path="url(#clip302)" cx="1256.67" cy="1447.63" r="7.2" fill="#4477aa" fill-rule="evenodd" fill-opacity="1" stroke="#000000" stroke-opacity="1" stroke-width="3.6"/>
<circle clip-path="url(#clip302)" cx="1265.87" cy="1439.85" r="7.2" fill="#4477aa" fill-rule="evenodd" fill-opacity="1" stroke="#000000" stroke-opacity="1" stroke-width="3.6"/>
<circle clip-path="url(#clip302)" cx="1275.07" cy="1444.49" r="7.2" fill="#4477aa" fill-rule="evenodd" fill-opacity="1" stroke="#000000" stroke-opacity="1" stroke-width="3.6"/>
<circle clip-path="url(#clip302)" cx="1284.28" cy="1464.25" r="7.2" fill="#4477aa" fill-rule="evenodd" fill-opacity="1" stroke="#000000" stroke-opacity="1" stroke-width="3.6"/>
<circle clip-path="url(#clip302)" cx="1293.48" cy="1409.37" r="7.2" fill="#4477aa" fill-rule="evenodd" fill-opacity="1" stroke="#000000" stroke-opacity="1" stroke-width="3.6"/>
<circle clip-path="url(#clip302)" cx="1302.68" cy="1353.5" r="7.2" fill="#4477aa" fill-rule="evenodd" fill-opacity="1" stroke="#000000" stroke-opacity="1" stroke-width="3.6"/>
<circle clip-path="url(#clip302)" cx="1311.88" cy="1456.23" r="7.2" fill="#4477aa" fill-rule="evenodd" fill-opacity="1" stroke="#000000" stroke-opacity="1" stroke-width="3.6"/>
<circle clip-path="url(#clip302)" cx="1321.08" cy="1382.39" r="7.2" fill="#4477aa" fill-rule="evenodd" fill-opacity="1" stroke="#000000" stroke-opacity="1" stroke-width="3.6"/>
<circle clip-path="url(#clip302)" cx="1330.28" cy="1430.72" r="7.2" fill="#4477aa" fill-rule="evenodd" fill-opacity="1" stroke="#000000" stroke-opacity="1" stroke-width="3.6"/>
<circle clip-path="url(#clip302)" cx="1339.49" cy="1450.41" r="7.2" fill="#4477aa" fill-rule="evenodd" fill-opacity="1" stroke="#000000" stroke-opacity="1" stroke-width="3.6"/>
<circle clip-path="url(#clip302)" cx="1348.69" cy="1427.02" r="7.2" fill="#4477aa" fill-rule="evenodd" fill-opacity="1" stroke="#000000" stroke-opacity="1" stroke-width="3.6"/>
<circle clip-path="url(#clip302)" cx="1357.89" cy="1463.36" r="7.2" fill="#4477aa" fill-rule="evenodd" fill-opacity="1" stroke="#000000" stroke-opacity="1" stroke-width="3.6"/>
<circle clip-path="url(#clip302)" cx="1367.09" cy="1458.12" r="7.2" fill="#4477aa" fill-rule="evenodd" fill-opacity="1" stroke="#000000" stroke-opacity="1" stroke-width="3.6"/>
<circle clip-path="url(#clip302)" cx="1376.29" cy="1463.38" r="7.2" fill="#4477aa" fill-rule="evenodd" fill-opacity="1" stroke="#000000" stroke-opacity="1" stroke-width="3.6"/>
<circle clip-path="url(#clip302)" cx="1385.49" cy="1464.99" r="7.2" fill="#4477aa" fill-rule="evenodd" fill-opacity="1" stroke="#000000" stroke-opacity="1" stroke-width="3.6"/>
<circle clip-path="url(#clip302)" cx="1394.69" cy="1452.81" r="7.2" fill="#4477aa" fill-rule="evenodd" fill-opacity="1" stroke="#000000" stroke-opacity="1" stroke-width="3.6"/>
<circle clip-path="url(#clip302)" cx="1403.9" cy="1437.97" r="7.2" fill="#4477aa" fill-rule="evenodd" fill-opacity="1" stroke="#000000" stroke-opacity="1" stroke-width="3.6"/>
<circle clip-path="url(#clip302)" cx="1413.1" cy="1437.17" r="7.2" fill="#4477aa" fill-rule="evenodd" fill-opacity="1" stroke="#000000" stroke-opacity="1" stroke-width="3.6"/>
<circle clip-path="url(#clip302)" cx="1422.3" cy="1464.28" r="7.2" fill="#4477aa" fill-rule="evenodd" fill-opacity="1" stroke="#000000" stroke-opacity="1" stroke-width="3.6"/>
<circle clip-path="url(#clip302)" cx="1431.5" cy="1450.1" r="7.2" fill="#4477aa" fill-rule="evenodd" fill-opacity="1" stroke="#000000" stroke-opacity="1" stroke-width="3.6"/>
<circle clip-path="url(#clip302)" cx="1440.7" cy="1316.1" r="7.2" fill="#4477aa" fill-rule="evenodd" fill-opacity="1" stroke="#000000" stroke-opacity="1" stroke-width="3.6"/>
<circle clip-path="url(#clip302)" cx="1449.9" cy="1354.58" r="7.2" fill="#4477aa" fill-rule="evenodd" fill-opacity="1" stroke="#000000" stroke-opacity="1" stroke-width="3.6"/>
<circle clip-path="url(#clip302)" cx="1459.1" cy="1463.88" r="7.2" fill="#4477aa" fill-rule="evenodd" fill-opacity="1" stroke="#000000" stroke-opacity="1" stroke-width="3.6"/>
<circle clip-path="url(#clip302)" cx="1468.31" cy="1450.66" r="7.2" fill="#4477aa" fill-rule="evenodd" fill-opacity="1" stroke="#000000" stroke-opacity="1" stroke-width="3.6"/>
<circle clip-path="url(#clip302)" cx="1477.51" cy="1454.45" r="7.2" fill="#4477aa" fill-rule="evenodd" fill-opacity="1" stroke="#000000" stroke-opacity="1" stroke-width="3.6"/>
<circle clip-path="url(#clip302)" cx="1486.71" cy="1440.25" r="7.2" fill="#4477aa" fill-rule="evenodd" fill-opacity="1" stroke="#000000" stroke-opacity="1" stroke-width="3.6"/>
<circle clip-path="url(#clip302)" cx="1495.91" cy="1464.09" r="7.2" fill="#4477aa" fill-rule="evenodd" fill-opacity="1" stroke="#000000" stroke-opacity="1" stroke-width="3.6"/>
<circle clip-path="url(#clip302)" cx="1505.11" cy="1456.66" r="7.2" fill="#4477aa" fill-rule="evenodd" fill-opacity="1" stroke="#000000" stroke-opacity="1" stroke-width="3.6"/>
<circle clip-path="url(#clip302)" cx="1514.31" cy="1454.31" r="7.2" fill="#4477aa" fill-rule="evenodd" fill-opacity="1" stroke="#000000" stroke-opacity="1" stroke-width="3.6"/>
<circle clip-path="url(#clip302)" cx="1523.52" cy="1456.09" r="7.2" fill="#4477aa" fill-rule="evenodd" fill-opacity="1" stroke="#000000" stroke-opacity="1" stroke-width="3.6"/>
<circle clip-path="url(#clip302)" cx="1532.72" cy="1465.22" r="7.2" fill="#4477aa" fill-rule="evenodd" fill-opacity="1" stroke="#000000" stroke-opacity="1" stroke-width="3.6"/>
<circle clip-path="url(#clip302)" cx="1541.92" cy="1463.86" r="7.2" fill="#4477aa" fill-rule="evenodd" fill-opacity="1" stroke="#000000" stroke-opacity="1" stroke-width="3.6"/>
<circle clip-path="url(#clip302)" cx="1551.12" cy="1464.06" r="7.2" fill="#4477aa" fill-rule="evenodd" fill-opacity="1" stroke="#000000" stroke-opacity="1" stroke-width="3.6"/>
<circle clip-path="url(#clip302)" cx="1560.32" cy="1454.81" r="7.2" fill="#4477aa" fill-rule="evenodd" fill-opacity="1" stroke="#000000" stroke-opacity="1" stroke-width="3.6"/>
<circle clip-path="url(#clip302)" cx="1569.52" cy="1463.09" r="7.2" fill="#4477aa" fill-rule="evenodd" fill-opacity="1" stroke="#000000" stroke-opacity="1" stroke-width="3.6"/>
<circle clip-path="url(#clip302)" cx="1578.72" cy="1463.26" r="7.2" fill="#4477aa" fill-rule="evenodd" fill-opacity="1" stroke="#000000" stroke-opacity="1" stroke-width="3.6"/>
<circle clip-path="url(#clip302)" cx="1587.93" cy="1445.7" r="7.2" fill="#4477aa" fill-rule="evenodd" fill-opacity="1" stroke="#000000" stroke-opacity="1" stroke-width="3.6"/>
<circle clip-path="url(#clip302)" cx="1597.13" cy="1447.37" r="7.2" fill="#4477aa" fill-rule="evenodd" fill-opacity="1" stroke="#000000" stroke-opacity="1" stroke-width="3.6"/>
<circle clip-path="url(#clip302)" cx="1606.33" cy="1464.75" r="7.2" fill="#4477aa" fill-rule="evenodd" fill-opacity="1" stroke="#000000" stroke-opacity="1" stroke-width="3.6"/>
<circle clip-path="url(#clip302)" cx="1615.53" cy="1436.26" r="7.2" fill="#4477aa" fill-rule="evenodd" fill-opacity="1" stroke="#000000" stroke-opacity="1" stroke-width="3.6"/>
<circle clip-path="url(#clip302)" cx="1624.73" cy="1449.15" r="7.2" fill="#4477aa" fill-rule="evenodd" fill-opacity="1" stroke="#000000" stroke-opacity="1" stroke-width="3.6"/>
<circle clip-path="url(#clip302)" cx="1633.93" cy="1446.61" r="7.2" fill="#4477aa" fill-rule="evenodd" fill-opacity="1" stroke="#000000" stroke-opacity="1" stroke-width="3.6"/>
<circle clip-path="url(#clip302)" cx="1643.14" cy="1442.52" r="7.2" fill="#4477aa" fill-rule="evenodd" fill-opacity="1" stroke="#000000" stroke-opacity="1" stroke-width="3.6"/>
<circle clip-path="url(#clip302)" cx="1652.34" cy="1444.91" r="7.2" fill="#4477aa" fill-rule="evenodd" fill-opacity="1" stroke="#000000" stroke-opacity="1" stroke-width="3.6"/>
<circle clip-path="url(#clip302)" cx="1661.54" cy="1463.99" r="7.2" fill="#4477aa" fill-rule="evenodd" fill-opacity="1" stroke="#000000" stroke-opacity="1" stroke-width="3.6"/>
<circle clip-path="url(#clip302)" cx="1670.74" cy="1408" r="7.2" fill="#4477aa" fill-rule="evenodd" fill-opacity="1" stroke="#000000" stroke-opacity="1" stroke-width="3.6"/>
<circle clip-path="url(#clip302)" cx="1679.94" cy="1355.39" r="7.2" fill="#4477aa" fill-rule="evenodd" fill-opacity="1" stroke="#000000" stroke-opacity="1" stroke-width="3.6"/>
<circle clip-path="url(#clip302)" cx="1689.14" cy="1457.56" r="7.2" fill="#4477aa" fill-rule="evenodd" fill-opacity="1" stroke="#000000" stroke-opacity="1" stroke-width="3.6"/>
<circle clip-path="url(#clip302)" cx="1698.34" cy="1382.88" r="7.2" fill="#4477aa" fill-rule="evenodd" fill-opacity="1" stroke="#000000" stroke-opacity="1" stroke-width="3.6"/>
<circle clip-path="url(#clip302)" cx="1707.55" cy="1430.04" r="7.2" fill="#4477aa" fill-rule="evenodd" fill-opacity="1" stroke="#000000" stroke-opacity="1" stroke-width="3.6"/>
<circle clip-path="url(#clip302)" cx="1716.75" cy="1449.65" r="7.2" fill="#4477aa" fill-rule="evenodd" fill-opacity="1" stroke="#000000" stroke-opacity="1" stroke-width="3.6"/>
<circle clip-path="url(#clip302)" cx="1725.95" cy="1426.46" r="7.2" fill="#4477aa" fill-rule="evenodd" fill-opacity="1" stroke="#000000" stroke-opacity="1" stroke-width="3.6"/>
<circle clip-path="url(#clip302)" cx="1735.15" cy="1463.37" r="7.2" fill="#4477aa" fill-rule="evenodd" fill-opacity="1" stroke="#000000" stroke-opacity="1" stroke-width="3.6"/>
<circle clip-path="url(#clip302)" cx="1744.35" cy="1458.22" r="7.2" fill="#4477aa" fill-rule="evenodd" fill-opacity="1" stroke="#000000" stroke-opacity="1" stroke-width="3.6"/>
<circle clip-path="url(#clip302)" cx="1753.55" cy="1463.41" r="7.2" fill="#4477aa" fill-rule="evenodd" fill-opacity="1" stroke="#000000" stroke-opacity="1" stroke-width="3.6"/>
<circle clip-path="url(#clip302)" cx="1762.75" cy="1465.07" r="7.2" fill="#4477aa" fill-rule="evenodd" fill-opacity="1" stroke="#000000" stroke-opacity="1" stroke-width="3.6"/>
<circle clip-path="url(#clip302)" cx="1771.96" cy="1453.17" r="7.2" fill="#4477aa" fill-rule="evenodd" fill-opacity="1" stroke="#000000" stroke-opacity="1" stroke-width="3.6"/>
<circle clip-path="url(#clip302)" cx="1781.16" cy="1437.01" r="7.2" fill="#4477aa" fill-rule="evenodd" fill-opacity="1" stroke="#000000" stroke-opacity="1" stroke-width="3.6"/>
<circle clip-path="url(#clip302)" cx="1790.36" cy="1436.21" r="7.2" fill="#4477aa" fill-rule="evenodd" fill-opacity="1" stroke="#000000" stroke-opacity="1" stroke-width="3.6"/>
<circle clip-path="url(#clip302)" cx="1799.56" cy="1464.29" r="7.2" fill="#4477aa" fill-rule="evenodd" fill-opacity="1" stroke="#000000" stroke-opacity="1" stroke-width="3.6"/>
<circle clip-path="url(#clip302)" cx="1808.76" cy="1450.09" r="7.2" fill="#4477aa" fill-rule="evenodd" fill-opacity="1" stroke="#000000" stroke-opacity="1" stroke-width="3.6"/>
<circle clip-path="url(#clip302)" cx="1817.96" cy="1314.74" r="7.2" fill="#4477aa" fill-rule="evenodd" fill-opacity="1" stroke="#000000" stroke-opacity="1" stroke-width="3.6"/>
<circle clip-path="url(#clip302)" cx="1827.17" cy="1353.7" r="7.2" fill="#4477aa" fill-rule="evenodd" fill-opacity="1" stroke="#000000" stroke-opacity="1" stroke-width="3.6"/>
<circle clip-path="url(#clip302)" cx="1836.37" cy="1463.78" r="7.2" fill="#4477aa" fill-rule="evenodd" fill-opacity="1" stroke="#000000" stroke-opacity="1" stroke-width="3.6"/>
<circle clip-path="url(#clip302)" cx="1845.57" cy="1450.85" r="7.2" fill="#4477aa" fill-rule="evenodd" fill-opacity="1" stroke="#000000" stroke-opacity="1" stroke-width="3.6"/>
<circle clip-path="url(#clip302)" cx="1854.77" cy="1454.83" r="7.2" fill="#4477aa" fill-rule="evenodd" fill-opacity="1" stroke="#000000" stroke-opacity="1" stroke-width="3.6"/>
<circle clip-path="url(#clip302)" cx="1863.97" cy="1439.47" r="7.2" fill="#4477aa" fill-rule="evenodd" fill-opacity="1" stroke="#000000" stroke-opacity="1" stroke-width="3.6"/>
<circle clip-path="url(#clip302)" cx="1873.17" cy="1464.16" r="7.2" fill="#4477aa" fill-rule="evenodd" fill-opacity="1" stroke="#000000" stroke-opacity="1" stroke-width="3.6"/>
<circle clip-path="url(#clip302)" cx="1882.37" cy="1456.08" r="7.2" fill="#4477aa" fill-rule="evenodd" fill-opacity="1" stroke="#000000" stroke-opacity="1" stroke-width="3.6"/>
<circle clip-path="url(#clip302)" cx="1891.58" cy="1454.58" r="7.2" fill="#4477aa" fill-rule="evenodd" fill-opacity="1" stroke="#000000" stroke-opacity="1" stroke-width="3.6"/>
<circle clip-path="url(#clip302)" cx="1900.78" cy="1456.18" r="7.2" fill="#4477aa" fill-rule="evenodd" fill-opacity="1" stroke="#000000" stroke-opacity="1" stroke-width="3.6"/>
<circle clip-path="url(#clip302)" cx="1909.98" cy="1465.22" r="7.2" fill="#4477aa" fill-rule="evenodd" fill-opacity="1" stroke="#000000" stroke-opacity="1" stroke-width="3.6"/>
<circle clip-path="url(#clip302)" cx="1919.18" cy="1463.72" r="7.2" fill="#4477aa" fill-rule="evenodd" fill-opacity="1" stroke="#000000" stroke-opacity="1" stroke-width="3.6"/>
<circle clip-path="url(#clip302)" cx="1928.38" cy="1464.05" r="7.2" fill="#4477aa" fill-rule="evenodd" fill-opacity="1" stroke="#000000" stroke-opacity="1" stroke-width="3.6"/>
<circle clip-path="url(#clip302)" cx="1937.58" cy="1455.05" r="7.2" fill="#4477aa" fill-rule="evenodd" fill-opacity="1" stroke="#000000" stroke-opacity="1" stroke-width="3.6"/>
<circle clip-path="url(#clip302)" cx="1946.79" cy="1463.21" r="7.2" fill="#4477aa" fill-rule="evenodd" fill-opacity="1" stroke="#000000" stroke-opacity="1" stroke-width="3.6"/>
<circle clip-path="url(#clip302)" cx="1955.99" cy="1463.42" r="7.2" fill="#4477aa" fill-rule="evenodd" fill-opacity="1" stroke="#000000" stroke-opacity="1" stroke-width="3.6"/>
<circle clip-path="url(#clip302)" cx="1965.19" cy="1446.11" r="7.2" fill="#4477aa" fill-rule="evenodd" fill-opacity="1" stroke="#000000" stroke-opacity="1" stroke-width="3.6"/>
<circle clip-path="url(#clip302)" cx="1974.39" cy="1447.35" r="7.2" fill="#4477aa" fill-rule="evenodd" fill-opacity="1" stroke="#000000" stroke-opacity="1" stroke-width="3.6"/>
<circle clip-path="url(#clip302)" cx="1983.59" cy="1464.76" r="7.2" fill="#4477aa" fill-rule="evenodd" fill-opacity="1" stroke="#000000" stroke-opacity="1" stroke-width="3.6"/>
<circle clip-path="url(#clip302)" cx="1992.79" cy="1436.75" r="7.2" fill="#4477aa" fill-rule="evenodd" fill-opacity="1" stroke="#000000" stroke-opacity="1" stroke-width="3.6"/>
<circle clip-path="url(#clip302)" cx="2001.99" cy="1449.14" r="7.2" fill="#4477aa" fill-rule="evenodd" fill-opacity="1" stroke="#000000" stroke-opacity="1" stroke-width="3.6"/>
<circle clip-path="url(#clip302)" cx="2011.2" cy="1446.41" r="7.2" fill="#4477aa" fill-rule="evenodd" fill-opacity="1" stroke="#000000" stroke-opacity="1" stroke-width="3.6"/>
<circle clip-path="url(#clip302)" cx="2020.4" cy="1442.99" r="7.2" fill="#4477aa" fill-rule="evenodd" fill-opacity="1" stroke="#000000" stroke-opacity="1" stroke-width="3.6"/>
<circle clip-path="url(#clip302)" cx="2029.6" cy="1444.98" r="7.2" fill="#4477aa" fill-rule="evenodd" fill-opacity="1" stroke="#000000" stroke-opacity="1" stroke-width="3.6"/>
<circle clip-path="url(#clip302)" cx="2038.8" cy="1463.94" r="7.2" fill="#4477aa" fill-rule="evenodd" fill-opacity="1" stroke="#000000" stroke-opacity="1" stroke-width="3.6"/>
<circle clip-path="url(#clip302)" cx="2048" cy="1407.74" r="7.2" fill="#4477aa" fill-rule="evenodd" fill-opacity="1" stroke="#000000" stroke-opacity="1" stroke-width="3.6"/>
<circle clip-path="url(#clip302)" cx="2057.2" cy="1355.74" r="7.2" fill="#4477aa" fill-rule="evenodd" fill-opacity="1" stroke="#000000" stroke-opacity="1" stroke-width="3.6"/>
<circle clip-path="url(#clip302)" cx="2066.4" cy="1457.8" r="7.2" fill="#4477aa" fill-rule="evenodd" fill-opacity="1" stroke="#000000" stroke-opacity="1" stroke-width="3.6"/>
<circle clip-path="url(#clip302)" cx="2075.61" cy="1382.98" r="7.2" fill="#4477aa" fill-rule="evenodd" fill-opacity="1" stroke="#000000" stroke-opacity="1" stroke-width="3.6"/>
<circle clip-path="url(#clip302)" cx="2084.81" cy="1429.92" r="7.2" fill="#4477aa" fill-rule="evenodd" fill-opacity="1" stroke="#000000" stroke-opacity="1" stroke-width="3.6"/>
<circle clip-path="url(#clip302)" cx="2094.01" cy="1449.5" r="7.2" fill="#4477aa" fill-rule="evenodd" fill-opacity="1" stroke="#000000" stroke-opacity="1" stroke-width="3.6"/>
<circle clip-path="url(#clip302)" cx="2103.21" cy="1426.36" r="7.2" fill="#4477aa" fill-rule="evenodd" fill-opacity="1" stroke="#000000" stroke-opacity="1" stroke-width="3.6"/>
<circle clip-path="url(#clip302)" cx="2112.41" cy="1463.37" r="7.2" fill="#4477aa" fill-rule="evenodd" fill-opacity="1" stroke="#000000" stroke-opacity="1" stroke-width="3.6"/>
<circle clip-path="url(#clip302)" cx="2121.61" cy="1458.24" r="7.2" fill="#4477aa" fill-rule="evenodd" fill-opacity="1" stroke="#000000" stroke-opacity="1" stroke-width="3.6"/>
<circle clip-path="url(#clip302)" cx="2130.82" cy="1463.42" r="7.2" fill="#4477aa" fill-rule="evenodd" fill-opacity="1" stroke="#000000" stroke-opacity="1" stroke-width="3.6"/>
<circle clip-path="url(#clip302)" cx="2140.02" cy="1465.08" r="7.2" fill="#4477aa" fill-rule="evenodd" fill-opacity="1" stroke="#000000" stroke-opacity="1" stroke-width="3.6"/>
<circle clip-path="url(#clip302)" cx="2149.22" cy="1453.24" r="7.2" fill="#4477aa" fill-rule="evenodd" fill-opacity="1" stroke="#000000" stroke-opacity="1" stroke-width="3.6"/>
<circle clip-path="url(#clip302)" cx="2158.42" cy="1436.82" r="7.2" fill="#4477aa" fill-rule="evenodd" fill-opacity="1" stroke="#000000" stroke-opacity="1" stroke-width="3.6"/>
<circle clip-path="url(#clip302)" cx="2167.62" cy="1436.03" r="7.2" fill="#4477aa" fill-rule="evenodd" fill-opacity="1" stroke="#000000" stroke-opacity="1" stroke-width="3.6"/>
<circle clip-path="url(#clip302)" cx="2176.82" cy="1464.29" r="7.2" fill="#4477aa" fill-rule="evenodd" fill-opacity="1" stroke="#000000" stroke-opacity="1" stroke-width="3.6"/>
<circle clip-path="url(#clip302)" cx="2186.02" cy="1450.08" r="7.2" fill="#4477aa" fill-rule="evenodd" fill-opacity="1" stroke="#000000" stroke-opacity="1" stroke-width="3.6"/>
<circle clip-path="url(#clip302)" cx="2195.23" cy="1314.49" r="7.2" fill="#4477aa" fill-rule="evenodd" fill-opacity="1" stroke="#000000" stroke-opacity="1" stroke-width="3.6"/>
<circle clip-path="url(#clip302)" cx="2204.43" cy="1353.54" r="7.2" fill="#4477aa" fill-rule="evenodd" fill-opacity="1" stroke="#000000" stroke-opacity="1" stroke-width="3.6"/>
<circle clip-path="url(#clip302)" cx="2213.63" cy="1463.76" r="7.2" fill="#4477aa" fill-rule="evenodd" fill-opacity="1" stroke="#000000" stroke-opacity="1" stroke-width="3.6"/>
<circle clip-path="url(#clip302)" cx="2222.83" cy="1450.88" r="7.2" fill="#4477aa" fill-rule="evenodd" fill-opacity="1" stroke="#000000" stroke-opacity="1" stroke-width="3.6"/>
<circle clip-path="url(#clip302)" cx="2232.03" cy="1454.9" r="7.2" fill="#4477aa" fill-rule="evenodd" fill-opacity="1" stroke="#000000" stroke-opacity="1" stroke-width="3.6"/>
<circle clip-path="url(#clip302)" cx="2241.23" cy="1439.32" r="7.2" fill="#4477aa" fill-rule="evenodd" fill-opacity="1" stroke="#000000" stroke-opacity="1" stroke-width="3.6"/>
<circle clip-path="url(#clip302)" cx="2250.44" cy="1464.18" r="7.2" fill="#4477aa" fill-rule="evenodd" fill-opacity="1" stroke="#000000" stroke-opacity="1" stroke-width="3.6"/>
<circle clip-path="url(#clip302)" cx="2259.64" cy="1455.97" r="7.2" fill="#4477aa" fill-rule="evenodd" fill-opacity="1" stroke="#000000" stroke-opacity="1" stroke-width="3.6"/>
<circle clip-path="url(#clip302)" cx="2268.84" cy="1454.63" r="7.2" fill="#4477aa" fill-rule="evenodd" fill-opacity="1" stroke="#000000" stroke-opacity="1" stroke-width="3.6"/>
<circle clip-path="url(#clip302)" cx="2278.04" cy="1456.2" r="7.2" fill="#4477aa" fill-rule="evenodd" fill-opacity="1" stroke="#000000" stroke-opacity="1" stroke-width="3.6"/>
<circle clip-path="url(#clip302)" cx="2287.24" cy="1465.22" r="7.2" fill="#4477aa" fill-rule="evenodd" fill-opacity="1" stroke="#000000" stroke-opacity="1" stroke-width="3.6"/>
<circle clip-path="url(#clip302)" cx="2296.44" cy="1463.7" r="7.2" fill="#4477aa" fill-rule="evenodd" fill-opacity="1" stroke="#000000" stroke-opacity="1" stroke-width="3.6"/>
<path clip-path="url(#clip300)" d="M1905.42 329.167 L2286.43 329.167 L2286.43 95.8868 L1905.42 95.8868  Z" fill="#ffffff" fill-rule="evenodd" fill-opacity="1"/>
<polyline clip-path="url(#clip300)" style="stroke:#000000; stroke-linecap:round; stroke-linejoin:round; stroke-width:4; stroke-opacity:1; fill:none" points="1905.42,329.167 2286.43,329.167 2286.43,95.8868 1905.42,95.8868 1905.42,329.167 "/>
<polyline clip-path="url(#clip300)" style="stroke:#4477aa; stroke-linecap:round; stroke-linejoin:round; stroke-width:18; stroke-opacity:1; fill:none" points="1927.52,212.527 2060.17,212.527 "/>
<circle clip-path="url(#clip300)" cx="1993.85" cy="212.527" r="8.18821" fill="#4477aa" fill-rule="evenodd" fill-opacity="1" stroke="#000000" stroke-opacity="1" stroke-width="8.18821"/>
<path clip-path="url(#clip300)" d="M2082.28 251.407 L2082.28 173.647 L2091.83 173.647 L2091.83 251.407 L2082.28 251.407 Z" fill="#000000" fill-rule="nonzero" fill-opacity="1" /><path clip-path="url(#clip300)" d="M2103.07 223.241 Q2103.07 207.594 2111.77 200.062 Q2119.04 193.803 2129.49 193.803 Q2141.11 193.803 2148.48 201.441 Q2155.85 209.026 2155.85 222.446 Q2155.85 233.319 2152.56 239.578 Q2149.33 245.784 2143.07 249.232 Q2136.86 252.68 2129.49 252.68 Q2117.66 252.68 2110.34 245.095 Q2103.07 237.51 2103.07 223.241 M2112.89 223.241 Q2112.89 234.062 2117.61 239.472 Q2122.33 244.83 2129.49 244.83 Q2136.6 244.83 2141.32 239.419 Q2146.04 234.009 2146.04 222.923 Q2146.04 212.474 2141.27 207.116 Q2136.54 201.706 2129.49 201.706 Q2122.33 201.706 2117.61 207.063 Q2112.89 212.421 2112.89 223.241 Z" fill="#000000" fill-rule="nonzero" fill-opacity="1" /><path clip-path="url(#clip300)" d="M2163.22 234.592 L2172.67 233.107 Q2173.46 238.783 2177.07 241.806 Q2180.73 244.83 2187.25 244.83 Q2193.83 244.83 2197.01 242.177 Q2200.2 239.472 2200.2 235.865 Q2200.2 232.63 2197.38 230.773 Q2195.42 229.5 2187.62 227.538 Q2177.12 224.886 2173.04 222.976 Q2169.01 221.014 2166.88 217.619 Q2164.82 214.171 2164.82 210.034 Q2164.82 206.268 2166.51 203.085 Q2168.26 199.85 2171.23 197.728 Q2173.46 196.084 2177.28 194.97 Q2181.15 193.803 2185.56 193.803 Q2192.19 193.803 2197.17 195.712 Q2202.21 197.622 2204.6 200.91 Q2206.98 204.146 2207.89 209.609 L2198.55 210.882 Q2197.91 206.533 2194.84 204.093 Q2191.81 201.653 2186.24 201.653 Q2179.67 201.653 2176.86 203.828 Q2174.05 206.003 2174.05 208.92 Q2174.05 210.776 2175.21 212.262 Q2176.38 213.8 2178.87 214.808 Q2180.3 215.338 2187.31 217.248 Q2197.44 219.953 2201.42 221.703 Q2205.45 223.4 2207.73 226.689 Q2210.01 229.978 2210.01 234.858 Q2210.01 239.631 2207.2 243.875 Q2204.44 248.065 2199.19 250.399 Q2193.94 252.68 2187.31 252.68 Q2176.33 252.68 2170.54 248.118 Q2164.82 243.556 2163.22 234.592 Z" fill="#000000" fill-rule="nonzero" fill-opacity="1" /><path clip-path="url(#clip300)" d="M2217.54 234.592 L2226.98 233.107 Q2227.78 238.783 2231.38 241.806 Q2235.04 244.83 2241.57 244.83 Q2248.15 244.83 2251.33 242.177 Q2254.51 239.472 2254.51 235.865 Q2254.51 232.63 2251.7 230.773 Q2249.74 229.5 2241.94 227.538 Q2231.44 224.886 2227.35 222.976 Q2223.32 221.014 2221.2 217.619 Q2219.13 214.171 2219.13 210.034 Q2219.13 206.268 2220.83 203.085 Q2222.58 199.85 2225.55 197.728 Q2227.78 196.084 2231.6 194.97 Q2235.47 193.803 2239.87 193.803 Q2246.5 193.803 2251.49 195.712 Q2256.53 197.622 2258.91 200.91 Q2261.3 204.146 2262.2 209.609 L2252.87 210.882 Q2252.23 206.533 2249.15 204.093 Q2246.13 201.653 2240.56 201.653 Q2233.98 201.653 2231.17 203.828 Q2228.36 206.003 2228.36 208.92 Q2228.36 210.776 2229.53 212.262 Q2230.69 213.8 2233.19 214.808 Q2234.62 215.338 2241.62 217.248 Q2251.75 219.953 2255.73 221.703 Q2259.76 223.4 2262.04 226.689 Q2264.32 229.978 2264.32 234.858 Q2264.32 239.631 2261.51 243.875 Q2258.75 248.065 2253.5 250.399 Q2248.25 252.68 2241.62 252.68 Q2230.64 252.68 2224.86 248.118 Q2219.13 243.556 2217.54 234.592 Z" fill="#000000" fill-rule="nonzero" fill-opacity="1" /></svg>
