<?xml version="1.0" encoding="utf-8"?>
<svg xmlns="http://www.w3.org/2000/svg" xmlns:xlink="http://www.w3.org/1999/xlink" width="600" height="450" viewBox="0 0 2400 1800">
<defs>
  <clipPath id="clip740">
    <rect x="0" y="0" width="2400" height="1800"/>
  </clipPath>
</defs>
<path clip-path="url(#clip740)" d="M0 1800 L2400 1800 L2400 0 L0 0  Z" fill="#ffffff" fill-rule="evenodd" fill-opacity="1"/>
<defs>
  <clipPath id="clip741">
    <rect x="480" y="0" width="1681" height="1681"/>
  </clipPath>
</defs>
<path clip-path="url(#clip740)" d="M238.029 1506.52 L2352.76 1506.52 L2352.76 47.2441 L238.029 47.2441  Z" fill="#ffffff" fill-rule="evenodd" fill-opacity="1"/>
<defs>
  <clipPath id="clip742">
    <rect x="238" y="47" width="2116" height="1460"/>
  </clipPath>
</defs>
<polyline clip-path="url(#clip742)" style="stroke:#000000; stroke-linecap:round; stroke-linejoin:round; stroke-width:2; stroke-opacity:0.1; fill:none" points="297.88,1506.52 297.88,47.2441 "/>
<polyline clip-path="url(#clip742)" style="stroke:#000000; stroke-linecap:round; stroke-linejoin:round; stroke-width:2; stroke-opacity:0.1; fill:none" points="962.888,1506.52 962.888,47.2441 "/>
<polyline clip-path="url(#clip742)" style="stroke:#000000; stroke-linecap:round; stroke-linejoin:round; stroke-width:2; stroke-opacity:0.1; fill:none" points="1627.9,1506.52 1627.9,47.2441 "/>
<polyline clip-path="url(#clip742)" style="stroke:#000000; stroke-linecap:round; stroke-linejoin:round; stroke-width:2; stroke-opacity:0.1; fill:none" points="2292.91,1506.52 2292.91,47.2441 "/>
<polyline clip-path="url(#clip742)" style="stroke:#000000; stroke-linecap:round; stroke-linejoin:round; stroke-width:2; stroke-opacity:0.1; fill:none" points="238.029,1503.07 2352.76,1503.07 "/>
<polyline clip-path="url(#clip742)" style="stroke:#000000; stroke-linecap:round; stroke-linejoin:round; stroke-width:2; stroke-opacity:0.1; fill:none" points="238.029,1141.59 2352.76,1141.59 "/>
<polyline clip-path="url(#clip742)" style="stroke:#000000; stroke-linecap:round; stroke-linejoin:round; stroke-width:2; stroke-opacity:0.1; fill:none" points="238.029,780.114 2352.76,780.114 "/>
<polyline clip-path="url(#clip742)" style="stroke:#000000; stroke-linecap:round; stroke-linejoin:round; stroke-width:2; stroke-opacity:0.1; fill:none" points="238.029,418.634 2352.76,418.634 "/>
<polyline clip-path="url(#clip742)" style="stroke:#000000; stroke-linecap:round; stroke-linejoin:round; stroke-width:2; stroke-opacity:0.1; fill:none" points="238.029,57.1542 2352.76,57.1542 "/>
<polyline clip-path="url(#clip740)" style="stroke:#000000; stroke-linecap:round; stroke-linejoin:round; stroke-width:4; stroke-opacity:1; fill:none" points="238.029,1506.52 2352.76,1506.52 "/>
<polyline clip-path="url(#clip740)" style="stroke:#000000; stroke-linecap:round; stroke-linejoin:round; stroke-width:2; stroke-opacity:0.5; fill:none" points="238.029,47.2441 2352.76,47.2441 "/>
<polyline clip-path="url(#clip740)" style="stroke:#000000; stroke-linecap:round; stroke-linejoin:round; stroke-width:4; stroke-opacity:1; fill:none" points="297.88,1506.52 297.88,1487.63 "/>
<polyline clip-path="url(#clip740)" style="stroke:#000000; stroke-linecap:round; stroke-linejoin:round; stroke-width:4; stroke-opacity:1; fill:none" points="962.888,1506.52 962.888,1487.63 "/>
<polyline clip-path="url(#clip740)" style="stroke:#000000; stroke-linecap:round; stroke-linejoin:round; stroke-width:4; stroke-opacity:1; fill:none" points="1627.9,1506.52 1627.9,1487.63 "/>
<polyline clip-path="url(#clip740)" style="stroke:#000000; stroke-linecap:round; stroke-linejoin:round; stroke-width:4; stroke-opacity:1; fill:none" points="2292.91,1506.52 2292.91,1487.63 "/>
<path clip-path="url(#clip740)" d="M310.61 1612.12 L302.123 1612.12 L302.123 1558.04 Q299.058 1560.97 294.061 1563.89 Q289.11 1566.81 285.15 1568.28 L285.15 1560.07 Q292.269 1556.72 297.597 1551.96 Q302.925 1547.2 305.141 1542.72 L310.61 1542.72 L310.61 1612.12 Z" fill="#000000" fill-rule="nonzero" fill-opacity="1" /><path clip-path="url(#clip740)" d="M985.779 1603.97 L985.779 1612.12 L940.092 1612.12 Q939.997 1609.06 941.082 1606.23 Q942.826 1601.56 946.645 1597.04 Q950.512 1592.51 957.773 1586.57 Q969.041 1577.33 973.002 1571.95 Q976.962 1566.53 976.962 1561.72 Q976.962 1556.68 973.332 1553.24 Q969.748 1549.75 963.949 1549.75 Q957.82 1549.75 954.142 1553.42 Q950.465 1557.1 950.417 1563.61 L941.695 1562.71 Q942.591 1552.95 948.437 1547.86 Q954.284 1542.72 964.138 1542.72 Q974.086 1542.72 979.885 1548.24 Q985.685 1553.75 985.685 1561.91 Q985.685 1566.06 983.987 1570.07 Q982.29 1574.07 978.329 1578.51 Q974.416 1582.94 965.269 1590.67 Q957.631 1597.08 955.462 1599.39 Q953.293 1601.66 951.879 1603.97 L985.779 1603.97 Z" fill="#000000" fill-rule="nonzero" fill-opacity="1" /><path clip-path="url(#clip740)" d="M1605.27 1593.88 L1613.75 1592.75 Q1615.21 1599.96 1618.7 1603.17 Q1622.24 1606.32 1627.28 1606.32 Q1633.27 1606.32 1637.37 1602.18 Q1641.52 1598.03 1641.52 1591.9 Q1641.52 1586.05 1637.7 1582.28 Q1633.88 1578.46 1627.99 1578.46 Q1625.59 1578.46 1622 1579.4 L1622.95 1571.95 Q1623.79 1572.05 1624.31 1572.05 Q1629.74 1572.05 1634.07 1569.22 Q1638.41 1566.39 1638.41 1560.5 Q1638.41 1555.83 1635.25 1552.76 Q1632.09 1549.7 1627.1 1549.7 Q1622.14 1549.7 1618.84 1552.81 Q1615.54 1555.92 1614.6 1562.15 L1606.11 1560.64 Q1607.67 1552.1 1613.19 1547.44 Q1618.7 1542.72 1626.91 1542.72 Q1632.56 1542.72 1637.33 1545.17 Q1642.09 1547.58 1644.59 1551.77 Q1647.13 1555.97 1647.13 1560.68 Q1647.13 1565.16 1644.73 1568.84 Q1642.32 1572.52 1637.61 1574.69 Q1643.74 1576.1 1647.13 1580.58 Q1650.53 1585.01 1650.53 1591.71 Q1650.53 1600.76 1643.93 1607.08 Q1637.33 1613.35 1627.24 1613.35 Q1618.14 1613.35 1612.1 1607.93 Q1606.11 1602.51 1605.27 1593.88 Z" fill="#000000" fill-rule="nonzero" fill-opacity="1" /><path clip-path="url(#clip740)" d="M2298.99 1612.12 L2298.99 1595.57 L2269 1595.57 L2269 1587.8 L2300.54 1543 L2307.47 1543 L2307.47 1587.8 L2316.81 1587.8 L2316.81 1595.57 L2307.47 1595.57 L2307.47 1612.12 L2298.99 1612.12 M2298.99 1587.8 L2298.99 1556.63 L2277.35 1587.8 L2298.99 1587.8 Z" fill="#000000" fill-rule="nonzero" fill-opacity="1" /><path clip-path="url(#clip740)" d="M1194.82 1721.38 L1204.69 1722.6 Q1202.36 1731.24 1196.04 1736.01 Q1189.73 1740.79 1179.92 1740.79 Q1167.56 1740.79 1160.29 1733.2 Q1153.08 1725.57 1153.08 1711.83 Q1153.08 1697.61 1160.4 1689.76 Q1167.72 1681.91 1179.39 1681.91 Q1190.69 1681.91 1197.85 1689.6 Q1205.01 1697.29 1205.01 1711.24 Q1205.01 1712.09 1204.96 1713.79 L1162.95 1713.79 Q1163.48 1723.07 1168.2 1728.01 Q1172.92 1732.94 1179.97 1732.94 Q1185.22 1732.94 1188.94 1730.18 Q1192.65 1727.42 1194.82 1721.38 M1163.48 1705.94 L1194.93 1705.94 Q1194.29 1698.83 1191.32 1695.28 Q1186.76 1689.76 1179.5 1689.76 Q1172.92 1689.76 1168.41 1694.16 Q1163.95 1698.57 1163.48 1705.94 Z" fill="#000000" fill-rule="nonzero" fill-opacity="1" /><path clip-path="url(#clip740)" d="M1216.68 1761.1 L1216.68 1683.18 L1225.38 1683.18 L1225.38 1690.5 Q1228.45 1686.21 1232.33 1684.09 Q1236.2 1681.91 1241.71 1681.91 Q1248.93 1681.91 1254.44 1685.62 Q1259.96 1689.34 1262.77 1696.13 Q1265.58 1702.86 1265.58 1710.93 Q1265.58 1719.57 1262.45 1726.52 Q1259.38 1733.42 1253.44 1737.13 Q1247.55 1740.79 1241.02 1740.79 Q1236.25 1740.79 1232.43 1738.77 Q1228.67 1736.76 1226.23 1733.68 L1226.23 1761.1 L1216.68 1761.1 M1225.32 1711.67 Q1225.32 1722.54 1229.73 1727.74 Q1234.13 1732.94 1240.39 1732.94 Q1246.75 1732.94 1251.26 1727.58 Q1255.82 1722.17 1255.82 1710.87 Q1255.82 1700.11 1251.37 1694.75 Q1246.96 1689.39 1240.81 1689.39 Q1234.71 1689.39 1229.99 1695.12 Q1225.32 1700.79 1225.32 1711.67 Z" fill="#000000" fill-rule="nonzero" fill-opacity="1" /><path clip-path="url(#clip740)" d="M1273.54 1711.35 Q1273.54 1695.7 1282.24 1688.17 Q1289.5 1681.91 1299.95 1681.91 Q1311.57 1681.91 1318.94 1689.55 Q1326.32 1697.13 1326.32 1710.55 Q1326.32 1721.43 1323.03 1727.69 Q1319.79 1733.89 1313.53 1737.34 Q1307.33 1740.79 1299.95 1740.79 Q1288.13 1740.79 1280.81 1733.2 Q1273.54 1725.62 1273.54 1711.35 M1283.35 1711.35 Q1283.35 1722.17 1288.07 1727.58 Q1292.79 1732.94 1299.95 1732.94 Q1307.06 1732.94 1311.78 1727.53 Q1316.5 1722.12 1316.5 1711.03 Q1316.5 1700.58 1311.73 1695.23 Q1307.01 1689.82 1299.95 1689.82 Q1292.79 1689.82 1288.07 1695.17 Q1283.35 1700.53 1283.35 1711.35 Z" fill="#000000" fill-rule="nonzero" fill-opacity="1" /><path clip-path="url(#clip740)" d="M1374.27 1718.88 L1383.65 1720.1 Q1382.12 1729.81 1375.75 1735.33 Q1369.44 1740.79 1360.21 1740.79 Q1348.65 1740.79 1341.59 1733.26 Q1334.59 1725.67 1334.59 1711.56 Q1334.59 1702.44 1337.61 1695.6 Q1340.64 1688.75 1346.79 1685.36 Q1353 1681.91 1360.26 1681.91 Q1369.44 1681.91 1375.27 1686.58 Q1381.11 1691.19 1382.75 1699.73 L1373.47 1701.17 Q1372.14 1695.49 1368.75 1692.63 Q1365.41 1689.76 1360.63 1689.76 Q1353.42 1689.76 1348.91 1694.96 Q1344.4 1700.11 1344.4 1711.3 Q1344.4 1722.65 1348.75 1727.79 Q1353.1 1732.94 1360.1 1732.94 Q1365.73 1732.94 1369.49 1729.49 Q1373.26 1726.04 1374.27 1718.88 Z" fill="#000000" fill-rule="nonzero" fill-opacity="1" /><path clip-path="url(#clip740)" d="M1391.82 1739.52 L1391.82 1661.76 L1401.37 1661.76 L1401.37 1689.66 Q1408.05 1681.91 1418.24 1681.91 Q1424.5 1681.91 1429.11 1684.4 Q1433.73 1686.84 1435.69 1691.19 Q1437.7 1695.54 1437.7 1703.82 L1437.7 1739.52 L1428.16 1739.52 L1428.16 1703.82 Q1428.16 1696.66 1425.03 1693.42 Q1421.95 1690.13 1416.28 1690.13 Q1412.03 1690.13 1408.27 1692.36 Q1404.55 1694.54 1402.96 1698.3 Q1401.37 1702.07 1401.37 1708.7 L1401.37 1739.52 L1391.82 1739.52 Z" fill="#000000" fill-rule="nonzero" fill-opacity="1" /><polyline clip-path="url(#clip740)" style="stroke:#000000; stroke-linecap:round; stroke-linejoin:round; stroke-width:4; stroke-opacity:1; fill:none" points="238.029,1506.52 238.029,47.2441 "/>
<polyline clip-path="url(#clip740)" style="stroke:#000000; stroke-linecap:round; stroke-linejoin:round; stroke-width:2; stroke-opacity:0.5; fill:none" points="2352.76,1506.52 2352.76,47.2441 "/>
<polyline clip-path="url(#clip740)" style="stroke:#000000; stroke-linecap:round; stroke-linejoin:round; stroke-width:4; stroke-opacity:1; fill:none" points="238.029,1503.07 256.927,1503.07 "/>
<polyline clip-path="url(#clip740)" style="stroke:#000000; stroke-linecap:round; stroke-linejoin:round; stroke-width:4; stroke-opacity:1; fill:none" points="238.029,1141.59 256.927,1141.59 "/>
<polyline clip-path="url(#clip740)" style="stroke:#000000; stroke-linecap:round; stroke-linejoin:round; stroke-width:4; stroke-opacity:1; fill:none" points="238.029,780.114 256.927,780.114 "/>
<polyline clip-path="url(#clip740)" style="stroke:#000000; stroke-linecap:round; stroke-linejoin:round; stroke-width:4; stroke-opacity:1; fill:none" points="238.029,418.634 256.927,418.634 "/>
<polyline clip-path="url(#clip740)" style="stroke:#000000; stroke-linecap:round; stroke-linejoin:round; stroke-width:4; stroke-opacity:1; fill:none" points="238.029,57.1542 256.927,57.1542 "/>
<path clip-path="url(#clip740)" d="M156.955 1503.54 Q156.955 1491.29 159.454 1483.84 Q162 1476.34 166.95 1472.28 Q171.948 1468.23 179.492 1468.23 Q185.055 1468.23 189.252 1470.49 Q193.448 1472.71 196.183 1476.95 Q198.917 1481.15 200.473 1487.23 Q202.029 1493.27 202.029 1503.54 Q202.029 1515.71 199.53 1523.21 Q197.031 1530.66 192.033 1534.76 Q187.083 1538.81 179.492 1538.81 Q169.496 1538.81 163.791 1531.65 Q156.955 1523.02 156.955 1503.54 M165.677 1503.54 Q165.677 1520.57 169.638 1526.22 Q173.645 1531.83 179.492 1531.83 Q185.338 1531.83 189.299 1526.18 Q193.306 1520.52 193.306 1503.54 Q193.306 1486.48 189.299 1480.87 Q185.338 1475.26 179.398 1475.26 Q173.551 1475.26 170.062 1480.21 Q165.677 1486.52 165.677 1503.54 Z" fill="#000000" fill-rule="nonzero" fill-opacity="1" /><path clip-path="url(#clip740)" d="M202.029 1176.15 L193.542 1176.15 L193.542 1122.07 Q190.478 1125 185.48 1127.92 Q180.529 1130.84 176.569 1132.31 L176.569 1124.1 Q183.688 1120.75 189.016 1115.99 Q194.344 1111.23 196.56 1106.75 L202.029 1106.75 L202.029 1176.15 Z" fill="#000000" fill-rule="nonzero" fill-opacity="1" /><path clip-path="url(#clip740)" d="M202.029 806.517 L202.029 814.674 L156.342 814.674 Q156.248 811.609 157.332 808.78 Q159.076 804.112 162.896 799.586 Q166.762 795.06 174.023 789.119 Q185.291 779.878 189.252 774.503 Q193.212 769.081 193.212 764.272 Q193.212 759.227 189.582 755.785 Q185.998 752.296 180.199 752.296 Q174.07 752.296 170.392 755.973 Q166.715 759.651 166.667 766.158 L157.945 765.262 Q158.841 755.502 164.687 750.41 Q170.534 745.271 180.388 745.271 Q190.336 745.271 196.135 750.787 Q201.935 756.303 201.935 764.46 Q201.935 768.609 200.237 772.617 Q198.54 776.625 194.579 781.057 Q190.666 785.489 181.519 793.221 Q173.881 799.633 171.712 801.943 Q169.543 804.207 168.129 806.517 L202.029 806.517 Z" fill="#000000" fill-rule="nonzero" fill-opacity="1" /><path clip-path="url(#clip740)" d="M156.766 434.947 L165.253 433.816 Q166.715 441.03 170.204 444.236 Q173.74 447.395 178.785 447.395 Q184.773 447.395 188.874 443.245 Q193.024 439.096 193.024 432.967 Q193.024 427.121 189.204 423.349 Q185.385 419.53 179.492 419.53 Q177.087 419.53 173.504 420.473 L174.447 413.023 Q175.296 413.117 175.814 413.117 Q181.236 413.117 185.574 410.289 Q189.912 407.46 189.912 401.566 Q189.912 396.898 186.753 393.834 Q183.594 390.769 178.596 390.769 Q173.645 390.769 170.345 393.881 Q167.045 396.993 166.102 403.216 L157.615 401.707 Q159.171 393.174 164.687 388.506 Q170.204 383.791 178.407 383.791 Q184.065 383.791 188.827 386.243 Q193.589 388.647 196.088 392.844 Q198.634 397.04 198.634 401.755 Q198.634 406.234 196.23 409.911 Q193.825 413.589 189.11 415.758 Q195.24 417.172 198.634 421.651 Q202.029 426.083 202.029 432.778 Q202.029 441.831 195.428 448.149 Q188.827 454.42 178.737 454.42 Q169.638 454.42 163.603 448.998 Q157.615 443.576 156.766 434.947 Z" fill="#000000" fill-rule="nonzero" fill-opacity="1" /><path clip-path="url(#clip740)" d="M184.207 91.7142 L184.207 75.165 L154.22 75.165 L154.22 67.3854 L185.763 22.5942 L192.693 22.5942 L192.693 67.3854 L202.029 67.3854 L202.029 75.165 L192.693 75.165 L192.693 91.7142 L184.207 91.7142 M184.207 67.3854 L184.207 36.2201 L162.565 67.3854 L184.207 67.3854 Z" fill="#000000" fill-rule="nonzero" fill-opacity="1" /><path clip-path="url(#clip740)" d="M94.8922 867.905 L17.1322 867.905 L17.1322 858.357 L94.8922 858.357 L94.8922 867.905 Z" fill="#000000" fill-rule="nonzero" fill-opacity="1" /><path clip-path="url(#clip740)" d="M66.7267 847.112 Q51.0792 847.112 43.5472 838.413 Q37.2882 831.146 37.2882 820.697 Q37.2882 809.081 44.9263 801.708 Q52.5114 794.335 65.9311 794.335 Q76.8047 794.335 83.0637 797.623 Q89.2697 800.859 92.7174 807.118 Q96.1652 813.324 96.1652 820.697 Q96.1652 832.525 88.5801 839.845 Q80.9951 847.112 66.7267 847.112 M66.7267 837.299 Q77.5473 837.299 82.9576 832.578 Q88.3149 827.858 88.3149 820.697 Q88.3149 813.589 82.9046 808.868 Q77.4943 804.148 66.4084 804.148 Q55.9591 804.148 50.6018 808.921 Q45.1915 813.642 45.1915 820.697 Q45.1915 827.858 50.5488 832.578 Q55.9061 837.299 66.7267 837.299 Z" fill="#000000" fill-rule="nonzero" fill-opacity="1" /><path clip-path="url(#clip740)" d="M78.0778 786.962 L76.5926 777.52 Q82.2681 776.725 85.2915 773.118 Q88.3149 769.458 88.3149 762.934 Q88.3149 756.357 85.6628 753.174 Q82.9576 749.991 79.3508 749.991 Q76.1152 749.991 74.2587 752.803 Q72.9857 754.765 71.0231 762.563 Q68.371 773.065 66.4615 777.149 Q64.4989 781.18 61.1042 783.302 Q57.6565 785.371 53.5192 785.371 Q49.7532 785.371 46.5706 783.673 Q43.335 781.923 41.2134 778.953 Q39.569 776.725 38.4552 772.906 Q37.2882 769.034 37.2882 764.631 Q37.2882 758.001 39.1978 753.015 Q41.1073 747.976 44.3959 745.589 Q47.6315 743.202 53.0948 742.3 L54.3678 751.636 Q50.0184 752.272 47.5784 755.349 Q45.1385 758.372 45.1385 763.942 Q45.1385 770.519 47.3132 773.33 Q49.488 776.141 52.4053 776.141 Q54.2618 776.141 55.7469 774.974 Q57.2852 773.807 58.293 771.314 Q58.8234 769.882 60.7329 762.881 Q63.4381 752.75 65.1885 748.772 Q66.8858 744.74 70.1744 742.459 Q73.4631 740.179 78.343 740.179 Q83.1168 740.179 87.3602 742.99 Q91.5505 745.748 93.8844 750.999 Q96.1652 756.25 96.1652 762.881 Q96.1652 773.861 91.6035 779.642 Q87.0419 785.371 78.0778 786.962 Z" fill="#000000" fill-rule="nonzero" fill-opacity="1" /><path clip-path="url(#clip740)" d="M78.0778 732.647 L76.5926 723.205 Q82.2681 722.41 85.2915 718.803 Q88.3149 715.143 88.3149 708.619 Q88.3149 702.041 85.6628 698.859 Q82.9576 695.676 79.3508 695.676 Q76.1152 695.676 74.2587 698.487 Q72.9857 700.45 71.0231 708.247 Q68.371 718.75 66.4615 722.834 Q64.4989 726.865 61.1042 728.987 Q57.6565 731.055 53.5192 731.055 Q49.7532 731.055 46.5706 729.358 Q43.335 727.608 41.2134 724.637 Q39.569 722.41 38.4552 718.59 Q37.2882 714.718 37.2882 710.316 Q37.2882 703.686 39.1978 698.7 Q41.1073 693.661 44.3959 691.274 Q47.6315 688.887 53.0948 687.985 L54.3678 697.32 Q50.0184 697.957 47.5784 701.033 Q45.1385 704.057 45.1385 709.626 Q45.1385 716.204 47.3132 719.015 Q49.488 721.826 52.4053 721.826 Q54.2618 721.826 55.7469 720.659 Q57.2852 719.492 58.293 716.999 Q58.8234 715.567 60.7329 708.565 Q63.4381 698.434 65.1885 694.456 Q66.8858 690.425 70.1744 688.144 Q73.4631 685.863 78.343 685.863 Q83.1168 685.863 87.3602 688.675 Q91.5505 691.433 93.8844 696.684 Q96.1652 701.935 96.1652 708.565 Q96.1652 719.545 91.6035 725.327 Q87.0419 731.055 78.0778 732.647 Z" fill="#000000" fill-rule="nonzero" fill-opacity="1" /><polyline clip-path="url(#clip742)" style="stroke:#4477aa; stroke-linecap:round; stroke-linejoin:round; stroke-width:8; stroke-opacity:1; fill:none" points="297.88,1366.29 962.888,1459.63 1627.9,1464.89 2292.91,1465.22 "/>
<circle clip-path="url(#clip742)" cx="297.88" cy="1366.29" r="14.4" fill="#4477aa" fill-rule="evenodd" fill-opacity="1" stroke="#000000" stroke-opacity="1" stroke-width="3.6"/>
<circle clip-path="url(#clip742)" cx="962.888" cy="1459.63" r="14.4" fill="#4477aa" fill-rule="evenodd" fill-opacity="1" stroke="#000000" stroke-opacity="1" stroke-width="3.6"/>
<circle clip-path="url(#clip742)" cx="1627.9" cy="1464.89" r="14.4" fill="#4477aa" fill-rule="evenodd" fill-opacity="1" stroke="#000000" stroke-opacity="1" stroke-width="3.6"/>
<circle clip-path="url(#clip742)" cx="2292.91" cy="1465.22" r="14.4" fill="#4477aa" fill-rule="evenodd" fill-opacity="1" stroke="#000000" stroke-opacity="1" stroke-width="3.6"/>
<polyline clip-path="url(#clip742)" style="stroke:#ee6677; stroke-linecap:round; stroke-linejoin:round; stroke-width:8; stroke-opacity:1; fill:none" points="297.88,88.5445 962.888,1444.02 1627.9,1456.63 2292.91,1456.7 "/>
<circle clip-path="url(#clip742)" cx="297.88" cy="88.5445" r="14.4" fill="#ee6677" fill-rule="evenodd" fill-opacity="1" stroke="#000000" stroke-opacity="1" stroke-width="3.6"/>
<circle clip-path="url(#clip742)" cx="962.888" cy="1444.02" r="14.4" fill="#ee6677" fill-rule="evenodd" fill-opacity="1" stroke="#000000" stroke-opacity="1" stroke-width="3.6"/>
<circle clip-path="url(#clip742)" cx="1627.9" cy="1456.63" r="14.4" fill="#ee6677" fill-rule="evenodd" fill-opacity="1" stroke="#000000" stroke-opacity="1" stroke-width="3.6"/>
<circle clip-path="url(#clip742)" cx="2292.91" cy="1456.7" r="14.4" fill="#ee6677" fill-rule="evenodd" fill-opacity="1" stroke="#000000" stroke-opacity="1" stroke-width="3.6"/>
<path clip-path="url(#clip740)" d="M1611.98 445.807 L2282.27 445.807 L2282.27 95.8868 L1611.98 95.8868  Z" fill="#ffffff" fill-rule="evenodd" fill-opacity="1"/>
<polyline clip-path="url(#clip740)" style="stroke:#000000; stroke-linecap:round; stroke-linejoin:round; stroke-width:4; stroke-opacity:1; fill:none" points="1611.98,445.807 2282.27,445.807 2282.27,95.8868 1611.98,95.8868 1611.98,445.807 "/>
<polyline clip-path="url(#clip740)" style="stroke:#4477aa; stroke-linecap:round; stroke-linejoin:round; stroke-width:18; stroke-opacity:1; fill:none" points="1635.47,212.527 1776.46,212.527 "/>
<circle clip-path="url(#clip740)" cx="1705.96" cy="212.527" r="8.70258" fill="#4477aa" fill-rule="evenodd" fill-opacity="1" stroke="#000000" stroke-opacity="1" stroke-width="8.70258"/>
<path clip-path="url(#clip740)" d="M1826.05 242.867 L1827.43 251.301 Q1823.4 252.149 1820.21 252.149 Q1815.02 252.149 1812.15 250.505 Q1809.29 248.861 1808.12 246.209 Q1806.95 243.503 1806.95 234.911 L1806.95 202.502 L1799.95 202.502 L1799.95 195.076 L1806.95 195.076 L1806.95 181.126 L1816.45 175.397 L1816.45 195.076 L1826.05 195.076 L1826.05 202.502 L1816.45 202.502 L1816.45 235.441 Q1816.45 239.525 1816.93 240.692 Q1817.46 241.859 1818.57 242.549 Q1819.74 243.238 1821.86 243.238 Q1823.45 243.238 1826.05 242.867 Z" fill="#000000" fill-rule="nonzero" fill-opacity="1" /><path clip-path="url(#clip740)" d="M1835.28 251.407 L1835.28 195.076 L1843.87 195.076 L1843.87 203.616 Q1847.16 197.622 1849.92 195.712 Q1852.73 193.803 1856.07 193.803 Q1860.9 193.803 1865.88 196.879 L1862.6 205.737 Q1859.09 203.669 1855.59 203.669 Q1852.46 203.669 1849.97 205.578 Q1847.48 207.435 1846.42 210.776 Q1844.83 215.868 1844.83 221.915 L1844.83 251.407 L1835.28 251.407 Z" fill="#000000" fill-rule="nonzero" fill-opacity="1" /><path clip-path="url(#clip740)" d="M1908.32 244.458 Q1903.01 248.967 1898.08 250.823 Q1893.2 252.68 1887.58 252.68 Q1878.3 252.68 1873.31 248.171 Q1868.32 243.61 1868.32 236.555 Q1868.32 232.418 1870.18 229.023 Q1872.09 225.575 1875.11 223.507 Q1878.19 221.438 1882.01 220.377 Q1884.82 219.634 1890.5 218.945 Q1902.06 217.566 1907.52 215.656 Q1907.58 213.694 1907.58 213.163 Q1907.58 207.329 1904.87 204.942 Q1901.21 201.706 1894 201.706 Q1887.26 201.706 1884.02 204.093 Q1880.84 206.427 1879.3 212.421 L1869.97 211.148 Q1871.24 205.154 1874.16 201.494 Q1877.08 197.781 1882.59 195.818 Q1888.11 193.803 1895.38 193.803 Q1902.59 193.803 1907.1 195.5 Q1911.61 197.198 1913.73 199.797 Q1915.85 202.343 1916.7 206.268 Q1917.18 208.708 1917.18 215.073 L1917.18 227.803 Q1917.18 241.117 1917.76 244.67 Q1918.4 248.171 1920.2 251.407 L1910.23 251.407 Q1908.74 248.436 1908.32 244.458 M1907.52 223.135 Q1902.32 225.257 1891.93 226.742 Q1886.04 227.591 1883.6 228.652 Q1881.16 229.712 1879.83 231.781 Q1878.51 233.797 1878.51 236.29 Q1878.51 240.109 1881.37 242.655 Q1884.29 245.201 1889.86 245.201 Q1895.38 245.201 1899.67 242.814 Q1903.97 240.374 1905.98 236.184 Q1907.52 232.948 1907.52 226.636 L1907.52 223.135 Z" fill="#000000" fill-rule="nonzero" fill-opacity="1" /><path clip-path="url(#clip740)" d="M1932.03 184.627 L1932.03 173.647 L1941.58 173.647 L1941.58 184.627 L1932.03 184.627 M1932.03 251.407 L1932.03 195.076 L1941.58 195.076 L1941.58 251.407 L1932.03 251.407 Z" fill="#000000" fill-rule="nonzero" fill-opacity="1" /><path clip-path="url(#clip740)" d="M1956.11 251.407 L1956.11 195.076 L1964.7 195.076 L1964.7 203.085 Q1970.91 193.803 1982.63 193.803 Q1987.72 193.803 1991.97 195.659 Q1996.26 197.463 1998.38 200.433 Q2000.51 203.403 2001.35 207.488 Q2001.88 210.14 2001.88 216.77 L2001.88 251.407 L1992.34 251.407 L1992.34 217.141 Q1992.34 211.307 1991.22 208.442 Q1990.11 205.525 1987.24 203.828 Q1984.43 202.077 1980.61 202.077 Q1974.51 202.077 1970.06 205.95 Q1965.66 209.822 1965.66 220.642 L1965.66 251.407 L1956.11 251.407 Z" fill="#000000" fill-rule="nonzero" fill-opacity="1" /><path clip-path="url(#clip740)" d="M2007.72 272.995 L2007.72 266.099 L2071 266.099 L2071 272.995 L2007.72 272.995 Z" fill="#000000" fill-rule="nonzero" fill-opacity="1" /><path clip-path="url(#clip740)" d="M2076.73 251.407 L2076.73 173.647 L2086.27 173.647 L2086.27 251.407 L2076.73 251.407 Z" fill="#000000" fill-rule="nonzero" fill-opacity="1" /><path clip-path="url(#clip740)" d="M2097.52 223.241 Q2097.52 207.594 2106.22 200.062 Q2113.49 193.803 2123.93 193.803 Q2135.55 193.803 2142.92 201.441 Q2150.3 209.026 2150.3 222.446 Q2150.3 233.319 2147.01 239.578 Q2143.77 245.784 2137.51 249.232 Q2131.31 252.68 2123.93 252.68 Q2112.11 252.68 2104.79 245.095 Q2097.52 237.51 2097.52 223.241 M2107.33 223.241 Q2107.33 234.062 2112.05 239.472 Q2116.77 244.83 2123.93 244.83 Q2131.04 244.83 2135.76 239.419 Q2140.48 234.009 2140.48 222.923 Q2140.48 212.474 2135.71 207.116 Q2130.99 201.706 2123.93 201.706 Q2116.77 201.706 2112.05 207.063 Q2107.33 212.421 2107.33 223.241 Z" fill="#000000" fill-rule="nonzero" fill-opacity="1" /><path clip-path="url(#clip740)" d="M2157.67 234.592 L2167.11 233.107 Q2167.91 238.783 2171.51 241.806 Q2175.17 244.83 2181.7 244.83 Q2188.27 244.83 2191.46 242.177 Q2194.64 239.472 2194.64 235.865 Q2194.64 232.63 2191.83 230.773 Q2189.87 229.5 2182.07 227.538 Q2171.57 224.886 2167.48 222.976 Q2163.45 221.014 2161.33 217.619 Q2159.26 214.171 2159.26 210.034 Q2159.26 206.268 2160.96 203.085 Q2162.71 199.85 2165.68 197.728 Q2167.91 196.084 2171.73 194.97 Q2175.6 193.803 2180 193.803 Q2186.63 193.803 2191.62 195.712 Q2196.66 197.622 2199.04 200.91 Q2201.43 204.146 2202.33 209.609 L2193 210.882 Q2192.36 206.533 2189.28 204.093 Q2186.26 201.653 2180.69 201.653 Q2174.11 201.653 2171.3 203.828 Q2168.49 206.003 2168.49 208.92 Q2168.49 210.776 2169.66 212.262 Q2170.82 213.8 2173.32 214.808 Q2174.75 215.338 2181.75 217.248 Q2191.88 219.953 2195.86 221.703 Q2199.89 223.4 2202.17 226.689 Q2204.45 229.978 2204.45 234.858 Q2204.45 239.631 2201.64 243.875 Q2198.88 248.065 2193.63 250.399 Q2188.38 252.68 2181.75 252.68 Q2170.77 252.68 2164.99 248.118 Q2159.26 243.556 2157.67 234.592 Z" fill="#000000" fill-rule="nonzero" fill-opacity="1" /><path clip-path="url(#clip740)" d="M2211.98 234.592 L2221.43 233.107 Q2222.22 238.783 2225.83 241.806 Q2229.49 244.83 2236.01 244.83 Q2242.59 244.83 2245.77 242.177 Q2248.96 239.472 2248.96 235.865 Q2248.96 232.63 2246.14 230.773 Q2244.18 229.5 2236.38 227.538 Q2225.88 224.886 2221.8 222.976 Q2217.77 221.014 2215.64 217.619 Q2213.58 214.171 2213.58 210.034 Q2213.58 206.268 2215.27 203.085 Q2217.02 199.85 2219.99 197.728 Q2222.22 196.084 2226.04 194.97 Q2229.91 193.803 2234.32 193.803 Q2240.95 193.803 2245.93 195.712 Q2250.97 197.622 2253.36 200.91 Q2255.74 204.146 2256.65 209.609 L2247.31 210.882 Q2246.67 206.533 2243.6 204.093 Q2240.57 201.653 2235.01 201.653 Q2228.43 201.653 2225.62 203.828 Q2222.81 206.003 2222.81 208.92 Q2222.81 210.776 2223.97 212.262 Q2225.14 213.8 2227.63 214.808 Q2229.06 215.338 2236.07 217.248 Q2246.2 219.953 2250.18 221.703 Q2254.21 223.4 2256.49 226.689 Q2258.77 229.978 2258.77 234.858 Q2258.77 239.631 2255.96 243.875 Q2253.2 248.065 2247.95 250.399 Q2242.7 252.68 2236.07 252.68 Q2225.09 252.68 2219.3 248.118 Q2213.58 243.556 2211.98 234.592 Z" fill="#000000" fill-rule="nonzero" fill-opacity="1" /><polyline clip-path="url(#clip740)" style="stroke:#ee6677; stroke-linecap:round; stroke-linejoin:round; stroke-width:18; stroke-opacity:1; fill:none" points="1635.47,329.167 1776.46,329.167 "/>
<circle clip-path="url(#clip740)" cx="1705.96" cy="329.167" r="8.70258" fill="#ee6677" fill-rule="evenodd" fill-opacity="1" stroke="#000000" stroke-opacity="1" stroke-width="8.70258"/>
<path clip-path="url(#clip740)" d="M1821.38 368.047 L1799.95 311.716 L1810.03 311.716 L1822.12 345.451 Q1824.09 350.914 1825.73 356.802 Q1827 352.346 1829.28 346.087 L1841.8 311.716 L1851.62 311.716 L1830.29 368.047 L1821.38 368.047 Z" fill="#000000" fill-rule="nonzero" fill-opacity="1" /><path clip-path="url(#clip740)" d="M1896.81 361.098 Q1891.5 365.607 1886.57 367.463 Q1881.69 369.32 1876.07 369.32 Q1866.79 369.32 1861.8 364.811 Q1856.81 360.25 1856.81 353.195 Q1856.81 349.058 1858.67 345.663 Q1860.58 342.215 1863.6 340.147 Q1866.68 338.078 1870.5 337.017 Q1873.31 336.274 1878.99 335.585 Q1890.55 334.206 1896.01 332.296 Q1896.06 330.334 1896.06 329.803 Q1896.06 323.969 1893.36 321.582 Q1889.7 318.346 1882.49 318.346 Q1875.75 318.346 1872.51 320.733 Q1869.33 323.067 1867.79 329.061 L1858.46 327.788 Q1859.73 321.794 1862.65 318.134 Q1865.57 314.421 1871.08 312.458 Q1876.6 310.443 1883.87 310.443 Q1891.08 310.443 1895.59 312.14 Q1900.1 313.838 1902.22 316.437 Q1904.34 318.983 1905.19 322.908 Q1905.67 325.348 1905.67 331.713 L1905.67 344.443 Q1905.67 357.757 1906.25 361.31 Q1906.89 364.811 1908.69 368.047 L1898.72 368.047 Q1897.23 365.076 1896.81 361.098 M1896.01 339.775 Q1890.81 341.897 1880.42 343.382 Q1874.53 344.231 1872.09 345.292 Q1869.65 346.352 1868.32 348.421 Q1867 350.437 1867 352.93 Q1867 356.749 1869.86 359.295 Q1872.78 361.841 1878.35 361.841 Q1883.87 361.841 1888.16 359.454 Q1892.46 357.014 1894.47 352.824 Q1896.01 349.588 1896.01 343.276 L1896.01 339.775 Z" fill="#000000" fill-rule="nonzero" fill-opacity="1" /><path clip-path="url(#clip740)" d="M1920.25 368.047 L1920.25 290.287 L1929.8 290.287 L1929.8 368.047 L1920.25 368.047 Z" fill="#000000" fill-rule="nonzero" fill-opacity="1" /><path clip-path="url(#clip740)" d="M1935.79 389.635 L1935.79 382.739 L1999.07 382.739 L1999.07 389.635 L1935.79 389.635 Z" fill="#000000" fill-rule="nonzero" fill-opacity="1" /><path clip-path="url(#clip740)" d="M2004.8 368.047 L2004.8 290.287 L2014.35 290.287 L2014.35 368.047 L2004.8 368.047 Z" fill="#000000" fill-rule="nonzero" fill-opacity="1" /><path clip-path="url(#clip740)" d="M2025.59 339.881 Q2025.59 324.234 2034.29 316.702 Q2041.56 310.443 2052.01 310.443 Q2063.63 310.443 2071 318.081 Q2078.37 325.666 2078.37 339.086 Q2078.37 349.959 2075.08 356.218 Q2071.85 362.424 2065.59 365.872 Q2059.38 369.32 2052.01 369.32 Q2040.18 369.32 2032.86 361.735 Q2025.59 354.15 2025.59 339.881 M2035.41 339.881 Q2035.41 350.702 2040.13 356.112 Q2044.85 361.47 2052.01 361.47 Q2059.12 361.47 2063.84 356.059 Q2068.56 350.649 2068.56 339.563 Q2068.56 329.114 2063.78 323.756 Q2059.06 318.346 2052.01 318.346 Q2044.85 318.346 2040.13 323.703 Q2035.41 329.061 2035.41 339.881 Z" fill="#000000" fill-rule="nonzero" fill-opacity="1" /><path clip-path="url(#clip740)" d="M2085.74 351.232 L2095.19 349.747 Q2095.98 355.423 2099.59 358.446 Q2103.25 361.47 2109.77 361.47 Q2116.35 361.47 2119.53 358.817 Q2122.71 356.112 2122.71 352.505 Q2122.71 349.27 2119.9 347.413 Q2117.94 346.14 2110.14 344.178 Q2099.64 341.526 2095.56 339.616 Q2091.53 337.654 2089.4 334.259 Q2087.34 330.811 2087.34 326.674 Q2087.34 322.908 2089.03 319.725 Q2090.78 316.49 2093.75 314.368 Q2095.98 312.724 2099.8 311.61 Q2103.67 310.443 2108.07 310.443 Q2114.71 310.443 2119.69 312.352 Q2124.73 314.262 2127.12 317.55 Q2129.5 320.786 2130.41 326.249 L2121.07 327.522 Q2120.43 323.173 2117.36 320.733 Q2114.33 318.293 2108.76 318.293 Q2102.19 318.293 2099.38 320.468 Q2096.56 322.643 2096.56 325.56 Q2096.56 327.416 2097.73 328.902 Q2098.9 330.44 2101.39 331.448 Q2102.82 331.978 2109.83 333.888 Q2119.96 336.593 2123.93 338.343 Q2127.97 340.04 2130.25 343.329 Q2132.53 346.618 2132.53 351.498 Q2132.53 356.271 2129.72 360.515 Q2126.96 364.705 2121.71 367.039 Q2116.46 369.32 2109.83 369.32 Q2098.85 369.32 2093.06 364.758 Q2087.34 360.196 2085.74 351.232 Z" fill="#000000" fill-rule="nonzero" fill-opacity="1" /><path clip-path="url(#clip740)" d="M2140.06 351.232 L2149.5 349.747 Q2150.3 355.423 2153.9 358.446 Q2157.56 361.47 2164.09 361.47 Q2170.66 361.47 2173.85 358.817 Q2177.03 356.112 2177.03 352.505 Q2177.03 349.27 2174.22 347.413 Q2172.26 346.14 2164.46 344.178 Q2153.96 341.526 2149.87 339.616 Q2145.84 337.654 2143.72 334.259 Q2141.65 330.811 2141.65 326.674 Q2141.65 322.908 2143.35 319.725 Q2145.1 316.49 2148.07 314.368 Q2150.3 312.724 2154.12 311.61 Q2157.99 310.443 2162.39 310.443 Q2169.02 310.443 2174.01 312.352 Q2179.05 314.262 2181.43 317.55 Q2183.82 320.786 2184.72 326.249 L2175.39 327.522 Q2174.75 323.173 2171.67 320.733 Q2168.65 318.293 2163.08 318.293 Q2156.5 318.293 2153.69 320.468 Q2150.88 322.643 2150.88 325.56 Q2150.88 327.416 2152.05 328.902 Q2153.21 330.44 2155.71 331.448 Q2157.14 331.978 2164.14 333.888 Q2174.27 336.593 2178.25 338.343 Q2182.28 340.04 2184.56 343.329 Q2186.84 346.618 2186.84 351.498 Q2186.84 356.271 2184.03 360.515 Q2181.27 364.705 2176.02 367.039 Q2170.77 369.32 2164.14 369.32 Q2153.16 369.32 2147.38 364.758 Q2141.65 360.196 2140.06 351.232 Z" fill="#000000" fill-rule="nonzero" fill-opacity="1" /></svg>
