<?xml version="1.0" encoding="utf-8"?>
<svg xmlns="http://www.w3.org/2000/svg" xmlns:xlink="http://www.w3.org/1999/xlink" width="600" height="400" viewBox="0 0 2400 1600">
<defs>
  <clipPath id="clip320">
    <rect x="0" y="0" width="2400" height="1600"/>
  </clipPath>
</defs>
<path clip-path="url(#clip320)" d="M0 1600 L2400 1600 L2400 8.88178e-14 L0 8.88178e-14  Z" fill="#ffffff" fill-rule="evenodd" fill-opacity="1"/>
<defs>
  <clipPath id="clip321">
    <rect x="480" y="0" width="1681" height="1600"/>
  </clipPath>
</defs>
<path clip-path="url(#clip320)" d="M181.478 1469.17 L1969.05 1469.17 L1969.05 47.2441 L181.478 47.2441  Z" fill="#ffffff" fill-rule="evenodd" fill-opacity="1"/>
<defs>
  <clipPath id="clip322">
    <rect x="181" y="47" width="1789" height="1423"/>
  </clipPath>
</defs>
<polyline clip-path="url(#clip320)" style="stroke:#000000; stroke-linecap:round; stroke-linejoin:round; stroke-width:4; stroke-opacity:1; fill:none" points="181.478,1469.17 1969.05,1469.17 "/>
<polyline clip-path="url(#clip320)" style="stroke:#000000; stroke-linecap:round; stroke-linejoin:round; stroke-width:2; stroke-opacity:0.5; fill:none" points="181.478,47.2441 1969.05,47.2441 "/>
<polyline clip-path="url(#clip320)" style="stroke:#000000; stroke-linecap:round; stroke-linejoin:round; stroke-width:4; stroke-opacity:1; fill:none" points="536.609,1469.17 536.609,1450.27 "/>
<polyline clip-path="url(#clip320)" style="stroke:#000000; stroke-linecap:round; stroke-linejoin:round; stroke-width:4; stroke-opacity:1; fill:none" points="894.887,1469.17 894.887,1450.27 "/>
<polyline clip-path="url(#clip320)" style="stroke:#000000; stroke-linecap:round; stroke-linejoin:round; stroke-width:4; stroke-opacity:1; fill:none" points="1253.16,1469.17 1253.16,1450.27 "/>
<polyline clip-path="url(#clip320)" style="stroke:#000000; stroke-linecap:round; stroke-linejoin:round; stroke-width:4; stroke-opacity:1; fill:none" points="1611.44,1469.17 1611.44,1450.27 "/>
<path clip-path="url(#clip320)" d="M489.685 1527.6 Q489.685 1518.41 491.559 1512.82 Q493.468 1507.2 497.181 1504.16 Q500.93 1501.12 506.588 1501.12 Q510.76 1501.12 513.907 1502.81 Q517.055 1504.48 519.106 1507.66 Q521.157 1510.8 522.323 1515.37 Q523.49 1519.89 523.49 1527.6 Q523.49 1536.72 521.616 1542.35 Q519.742 1547.93 515.994 1551.01 Q512.281 1554.05 506.588 1554.05 Q499.091 1554.05 494.812 1548.68 Q489.685 1542.21 489.685 1527.6 M496.227 1527.6 Q496.227 1540.37 499.197 1544.61 Q502.203 1548.82 506.588 1548.82 Q510.972 1548.82 513.943 1544.58 Q516.948 1540.33 516.948 1527.6 Q516.948 1514.8 513.943 1510.59 Q510.972 1506.38 506.517 1506.38 Q502.132 1506.38 499.515 1510.1 Q496.227 1514.84 496.227 1527.6 Z" fill="#000000" fill-rule="nonzero" fill-opacity="1" /><path clip-path="url(#clip320)" d="M533.533 1553.17 L533.533 1545.92 L540.782 1545.92 L540.782 1553.17 L533.533 1553.17 Z" fill="#000000" fill-rule="nonzero" fill-opacity="1" /><path clip-path="url(#clip320)" d="M583.534 1547.05 L583.534 1553.17 L549.269 1553.17 Q549.198 1550.87 550.012 1548.75 Q551.32 1545.25 554.184 1541.85 Q557.084 1538.46 562.529 1534 Q570.981 1527.07 573.951 1523.04 Q576.922 1518.97 576.922 1515.37 Q576.922 1511.58 574.199 1509 Q571.511 1506.38 567.162 1506.38 Q562.565 1506.38 559.807 1509.14 Q557.048 1511.9 557.013 1516.78 L550.471 1516.11 Q551.143 1508.79 555.528 1504.97 Q559.913 1501.12 567.303 1501.12 Q574.765 1501.12 579.114 1505.25 Q583.464 1509.39 583.464 1515.51 Q583.464 1518.62 582.191 1521.63 Q580.917 1524.63 577.947 1527.96 Q575.012 1531.28 568.152 1537.08 Q562.423 1541.89 560.797 1543.62 Q559.17 1545.32 558.109 1547.05 L583.534 1547.05 Z" fill="#000000" fill-rule="nonzero" fill-opacity="1" /><path clip-path="url(#clip320)" d="M847.803 1527.6 Q847.803 1518.41 849.678 1512.82 Q851.587 1507.2 855.3 1504.16 Q859.048 1501.12 864.706 1501.12 Q868.879 1501.12 872.026 1502.81 Q875.173 1504.48 877.224 1507.66 Q879.275 1510.8 880.442 1515.37 Q881.609 1519.89 881.609 1527.6 Q881.609 1536.72 879.735 1542.35 Q877.861 1547.93 874.112 1551.01 Q870.399 1554.05 864.706 1554.05 Q857.21 1554.05 852.931 1548.68 Q847.803 1542.21 847.803 1527.6 M854.345 1527.6 Q854.345 1540.37 857.316 1544.61 Q860.321 1548.82 864.706 1548.82 Q869.091 1548.82 872.061 1544.58 Q875.067 1540.33 875.067 1527.6 Q875.067 1514.8 872.061 1510.59 Q869.091 1506.38 864.635 1506.38 Q860.251 1506.38 857.634 1510.1 Q854.345 1514.84 854.345 1527.6 Z" fill="#000000" fill-rule="nonzero" fill-opacity="1" /><path clip-path="url(#clip320)" d="M891.652 1553.17 L891.652 1545.92 L898.901 1545.92 L898.901 1553.17 L891.652 1553.17 Z" fill="#000000" fill-rule="nonzero" fill-opacity="1" /><path clip-path="url(#clip320)" d="M928.604 1553.17 L928.604 1540.76 L906.115 1540.76 L906.115 1534.92 L929.771 1501.33 L934.97 1501.33 L934.97 1534.92 L941.971 1534.92 L941.971 1540.76 L934.97 1540.76 L934.97 1553.17 L928.604 1553.17 M928.604 1534.92 L928.604 1511.55 L912.374 1534.92 L928.604 1534.92 Z" fill="#000000" fill-rule="nonzero" fill-opacity="1" /><path clip-path="url(#clip320)" d="M1205.99 1527.6 Q1205.99 1518.41 1207.87 1512.82 Q1209.78 1507.2 1213.49 1504.16 Q1217.24 1501.12 1222.9 1501.12 Q1227.07 1501.12 1230.22 1502.81 Q1233.36 1504.48 1235.41 1507.66 Q1237.46 1510.8 1238.63 1515.37 Q1239.8 1519.89 1239.8 1527.6 Q1239.8 1536.72 1237.92 1542.35 Q1236.05 1547.93 1232.3 1551.01 Q1228.59 1554.05 1222.9 1554.05 Q1215.4 1554.05 1211.12 1548.68 Q1205.99 1542.21 1205.99 1527.6 M1212.53 1527.6 Q1212.53 1540.37 1215.5 1544.61 Q1218.51 1548.82 1222.9 1548.82 Q1227.28 1548.82 1230.25 1544.58 Q1233.26 1540.33 1233.26 1527.6 Q1233.26 1514.8 1230.25 1510.59 Q1227.28 1506.38 1222.82 1506.38 Q1218.44 1506.38 1215.82 1510.1 Q1212.53 1514.84 1212.53 1527.6 Z" fill="#000000" fill-rule="nonzero" fill-opacity="1" /><path clip-path="url(#clip320)" d="M1249.84 1553.17 L1249.84 1545.92 L1257.09 1545.92 L1257.09 1553.17 L1249.84 1553.17 Z" fill="#000000" fill-rule="nonzero" fill-opacity="1" /><path clip-path="url(#clip320)" d="M1299.42 1514.02 L1293.09 1514.52 Q1292.24 1510.77 1290.68 1509.07 Q1288.1 1506.35 1284.32 1506.35 Q1281.28 1506.35 1278.98 1508.05 Q1275.97 1510.24 1274.24 1514.45 Q1272.51 1518.66 1272.44 1526.43 Q1274.74 1522.93 1278.06 1521.24 Q1281.38 1519.54 1285.03 1519.54 Q1291.39 1519.54 1295.85 1524.24 Q1300.34 1528.91 1300.34 1536.34 Q1300.34 1541.22 1298.22 1545.42 Q1296.13 1549.6 1292.45 1551.82 Q1288.77 1554.05 1284.11 1554.05 Q1276.15 1554.05 1271.13 1548.22 Q1266.11 1542.35 1266.11 1528.91 Q1266.11 1513.88 1271.66 1507.06 Q1276.5 1501.12 1284.71 1501.12 Q1290.83 1501.12 1294.71 1504.55 Q1298.64 1507.98 1299.42 1514.02 M1273.43 1536.37 Q1273.43 1539.66 1274.81 1542.67 Q1276.22 1545.67 1278.73 1547.26 Q1281.24 1548.82 1284 1548.82 Q1288.03 1548.82 1290.93 1545.57 Q1293.83 1542.31 1293.83 1536.72 Q1293.83 1531.35 1290.97 1528.27 Q1288.1 1525.16 1283.75 1525.16 Q1279.44 1525.16 1276.43 1528.27 Q1273.43 1531.35 1273.43 1536.37 Z" fill="#000000" fill-rule="nonzero" fill-opacity="1" /><path clip-path="url(#clip320)" d="M1564.2 1527.6 Q1564.2 1518.41 1566.07 1512.82 Q1567.98 1507.2 1571.7 1504.16 Q1575.44 1501.12 1581.1 1501.12 Q1585.28 1501.12 1588.42 1502.81 Q1591.57 1504.48 1593.62 1507.66 Q1595.67 1510.8 1596.84 1515.37 Q1598.01 1519.89 1598.01 1527.6 Q1598.01 1536.72 1596.13 1542.35 Q1594.26 1547.93 1590.51 1551.01 Q1586.8 1554.05 1581.1 1554.05 Q1573.61 1554.05 1569.33 1548.68 Q1564.2 1542.21 1564.2 1527.6 M1570.74 1527.6 Q1570.74 1540.37 1573.71 1544.61 Q1576.72 1548.82 1581.1 1548.82 Q1585.49 1548.82 1588.46 1544.58 Q1591.46 1540.33 1591.46 1527.6 Q1591.46 1514.8 1588.46 1510.59 Q1585.49 1506.38 1581.03 1506.38 Q1576.65 1506.38 1574.03 1510.1 Q1570.74 1514.84 1570.74 1527.6 Z" fill="#000000" fill-rule="nonzero" fill-opacity="1" /><path clip-path="url(#clip320)" d="M1608.05 1553.17 L1608.05 1545.92 L1615.3 1545.92 L1615.3 1553.17 L1608.05 1553.17 Z" fill="#000000" fill-rule="nonzero" fill-opacity="1" /><path clip-path="url(#clip320)" d="M1634.39 1525.06 Q1630.43 1523.61 1628.52 1520.92 Q1626.61 1518.23 1626.61 1514.48 Q1626.61 1508.82 1630.68 1504.97 Q1634.75 1501.12 1641.5 1501.12 Q1648.29 1501.12 1652.43 1505.08 Q1656.56 1509 1656.56 1514.66 Q1656.56 1518.27 1654.65 1520.95 Q1652.78 1523.61 1648.93 1525.06 Q1653.7 1526.61 1656.18 1530.08 Q1658.69 1533.54 1658.69 1538.35 Q1658.69 1545 1653.98 1549.53 Q1649.28 1554.05 1641.61 1554.05 Q1633.93 1554.05 1629.23 1549.53 Q1624.53 1544.96 1624.53 1538.17 Q1624.53 1533.12 1627.07 1529.72 Q1629.65 1526.29 1634.39 1525.06 M1633.12 1514.27 Q1633.12 1517.95 1635.49 1520.28 Q1637.86 1522.62 1641.64 1522.62 Q1645.32 1522.62 1647.65 1520.32 Q1650.02 1517.98 1650.02 1514.62 Q1650.02 1511.12 1647.58 1508.75 Q1645.18 1506.35 1641.57 1506.35 Q1637.93 1506.35 1635.52 1508.68 Q1633.12 1511.02 1633.12 1514.27 M1631.07 1538.21 Q1631.07 1540.93 1632.34 1543.48 Q1633.65 1546.02 1636.2 1547.44 Q1638.74 1548.82 1641.68 1548.82 Q1646.24 1548.82 1649.21 1545.88 Q1652.18 1542.95 1652.18 1538.42 Q1652.18 1533.83 1649.1 1530.82 Q1646.06 1527.81 1641.46 1527.81 Q1636.97 1527.81 1634 1530.78 Q1631.07 1533.75 1631.07 1538.21 Z" fill="#000000" fill-rule="nonzero" fill-opacity="1" /><polyline clip-path="url(#clip320)" style="stroke:#000000; stroke-linecap:round; stroke-linejoin:round; stroke-width:4; stroke-opacity:1; fill:none" points="181.478,1469.17 181.478,47.2441 "/>
<polyline clip-path="url(#clip320)" style="stroke:#000000; stroke-linecap:round; stroke-linejoin:round; stroke-width:2; stroke-opacity:0.5; fill:none" points="1969.05,1469.17 1969.05,47.2441 "/>
<polyline clip-path="url(#clip320)" style="stroke:#000000; stroke-linecap:round; stroke-linejoin:round; stroke-width:4; stroke-opacity:1; fill:none" points="181.478,1189.47 197.036,1189.47 "/>
<polyline clip-path="url(#clip320)" style="stroke:#000000; stroke-linecap:round; stroke-linejoin:round; stroke-width:4; stroke-opacity:1; fill:none" points="181.478,900.426 197.036,900.426 "/>
<polyline clip-path="url(#clip320)" style="stroke:#000000; stroke-linecap:round; stroke-linejoin:round; stroke-width:4; stroke-opacity:1; fill:none" points="181.478,611.384 197.036,611.384 "/>
<polyline clip-path="url(#clip320)" style="stroke:#000000; stroke-linecap:round; stroke-linejoin:round; stroke-width:4; stroke-opacity:1; fill:none" points="181.478,322.342 197.036,322.342 "/>
<path clip-path="url(#clip320)" d="M51.6286 1189.82 Q51.6286 1180.63 53.5028 1175.04 Q55.4123 1169.42 59.1253 1166.38 Q62.8736 1163.34 68.5314 1163.34 Q72.7041 1163.34 75.8513 1165.03 Q78.9985 1166.69 81.0494 1169.88 Q83.1004 1173.02 84.2673 1177.59 Q85.4343 1182.11 85.4343 1189.82 Q85.4343 1198.94 83.5601 1204.57 Q81.6859 1210.15 77.9376 1213.23 Q74.2246 1216.27 68.5314 1216.27 Q61.0348 1216.27 56.7561 1210.9 Q51.6286 1204.43 51.6286 1189.82 M58.1705 1189.82 Q58.1705 1202.59 61.1409 1206.83 Q64.1466 1211.04 68.5314 1211.04 Q72.9163 1211.04 75.8866 1206.79 Q78.8924 1202.55 78.8924 1189.82 Q78.8924 1177.02 75.8866 1172.81 Q72.9163 1168.6 68.4607 1168.6 Q64.0759 1168.6 61.4591 1172.32 Q58.1705 1177.06 58.1705 1189.82 Z" fill="#000000" fill-rule="nonzero" fill-opacity="1" /><path clip-path="url(#clip320)" d="M95.4769 1215.39 L95.4769 1208.14 L102.726 1208.14 L102.726 1215.39 L95.4769 1215.39 Z" fill="#000000" fill-rule="nonzero" fill-opacity="1" /><path clip-path="url(#clip320)" d="M145.478 1209.27 L145.478 1215.39 L111.213 1215.39 Q111.142 1213.09 111.955 1210.97 Q113.264 1207.47 116.128 1204.07 Q119.028 1200.68 124.473 1196.22 Q132.925 1189.29 135.895 1185.26 Q138.866 1181.19 138.866 1177.59 Q138.866 1173.8 136.143 1171.22 Q133.455 1168.6 129.106 1168.6 Q124.509 1168.6 121.751 1171.36 Q118.992 1174.12 118.957 1179 L112.415 1178.33 Q113.087 1171.01 117.472 1167.19 Q121.857 1163.34 129.247 1163.34 Q136.708 1163.34 141.058 1167.47 Q145.407 1171.61 145.407 1177.73 Q145.407 1180.84 144.134 1183.85 Q142.861 1186.85 139.891 1190.18 Q136.956 1193.5 130.096 1199.3 Q124.367 1204.11 122.741 1205.84 Q121.114 1207.54 120.053 1209.27 L145.478 1209.27 Z" fill="#000000" fill-rule="nonzero" fill-opacity="1" /><path clip-path="url(#clip320)" d="M51.3104 900.779 Q51.3104 891.585 53.1845 885.998 Q55.0941 880.376 58.807 877.335 Q62.5553 874.294 68.2132 874.294 Q72.3859 874.294 75.533 875.991 Q78.6802 877.653 80.7312 880.835 Q82.7821 883.983 83.9491 888.544 Q85.116 893.071 85.116 900.779 Q85.116 909.903 83.2418 915.525 Q81.3677 921.112 77.6194 924.189 Q73.9064 927.23 68.2132 927.23 Q60.7165 927.23 56.4378 921.855 Q51.3104 915.384 51.3104 900.779 M57.8523 900.779 Q57.8523 913.545 60.8226 917.788 Q63.8284 921.996 68.2132 921.996 Q72.598 921.996 75.5684 917.753 Q78.5741 913.509 78.5741 900.779 Q78.5741 887.978 75.5684 883.77 Q72.598 879.562 68.1425 879.562 Q63.7576 879.562 61.1409 883.275 Q57.8523 888.014 57.8523 900.779 Z" fill="#000000" fill-rule="nonzero" fill-opacity="1" /><path clip-path="url(#clip320)" d="M95.1587 926.346 L95.1587 919.097 L102.408 919.097 L102.408 926.346 L95.1587 926.346 Z" fill="#000000" fill-rule="nonzero" fill-opacity="1" /><path clip-path="url(#clip320)" d="M132.111 926.346 L132.111 913.934 L109.622 913.934 L109.622 908.099 L133.278 874.506 L138.477 874.506 L138.477 908.099 L145.478 908.099 L145.478 913.934 L138.477 913.934 L138.477 926.346 L132.111 926.346 M132.111 908.099 L132.111 884.725 L115.881 908.099 L132.111 908.099 Z" fill="#000000" fill-rule="nonzero" fill-opacity="1" /><path clip-path="url(#clip320)" d="M51.1336 611.737 Q51.1336 602.543 53.0077 596.956 Q54.9173 591.334 58.6302 588.293 Q62.3785 585.251 68.0364 585.251 Q72.209 585.251 75.3562 586.949 Q78.5034 588.611 80.5544 591.793 Q82.6053 594.941 83.7723 599.502 Q84.9392 604.028 84.9392 611.737 Q84.9392 620.861 83.065 626.483 Q81.1909 632.07 77.4425 635.147 Q73.7296 638.188 68.0364 638.188 Q60.5397 638.188 56.261 632.813 Q51.1336 626.342 51.1336 611.737 M57.6755 611.737 Q57.6755 624.503 60.6458 628.746 Q63.6516 632.954 68.0364 632.954 Q72.4212 632.954 75.3916 628.711 Q78.3973 624.467 78.3973 611.737 Q78.3973 598.936 75.3916 594.728 Q72.4212 590.52 67.9657 590.52 Q63.5808 590.52 60.9641 594.233 Q57.6755 598.972 57.6755 611.737 Z" fill="#000000" fill-rule="nonzero" fill-opacity="1" /><path clip-path="url(#clip320)" d="M94.9819 637.304 L94.9819 630.055 L102.231 630.055 L102.231 637.304 L94.9819 637.304 Z" fill="#000000" fill-rule="nonzero" fill-opacity="1" /><path clip-path="url(#clip320)" d="M144.559 598.158 L138.229 598.653 Q137.38 594.905 135.824 593.208 Q133.243 590.485 129.459 590.485 Q126.418 590.485 124.12 592.182 Q121.114 594.375 119.381 598.583 Q117.649 602.791 117.578 610.57 Q119.876 607.07 123.2 605.372 Q126.524 603.675 130.167 603.675 Q136.532 603.675 140.987 608.378 Q145.478 613.046 145.478 620.472 Q145.478 625.351 143.356 629.559 Q141.27 633.732 137.593 635.96 Q133.915 638.188 129.247 638.188 Q121.291 638.188 116.27 632.353 Q111.248 626.483 111.248 613.046 Q111.248 598.017 116.8 591.192 Q121.644 585.251 129.848 585.251 Q135.966 585.251 139.856 588.682 Q143.781 592.112 144.559 598.158 M118.568 620.507 Q118.568 623.796 119.947 626.801 Q121.362 629.807 123.872 631.398 Q126.383 632.954 129.141 632.954 Q133.172 632.954 136.072 629.701 Q138.972 626.448 138.972 620.861 Q138.972 615.486 136.107 612.409 Q133.243 609.297 128.894 609.297 Q124.579 609.297 121.574 612.409 Q118.568 615.486 118.568 620.507 Z" fill="#000000" fill-rule="nonzero" fill-opacity="1" /><path clip-path="url(#clip320)" d="M50.9921 322.695 Q50.9921 313.501 52.8663 307.914 Q54.7758 302.292 58.4888 299.25 Q62.2371 296.209 67.8949 296.209 Q72.0676 296.209 75.2148 297.907 Q78.3619 299.569 80.4129 302.751 Q82.4639 305.898 83.6308 310.46 Q84.7977 314.986 84.7977 322.695 Q84.7977 331.818 82.9236 337.441 Q81.0494 343.028 77.3011 346.104 Q73.5881 349.146 67.8949 349.146 Q60.3983 349.146 56.1195 343.771 Q50.9921 337.299 50.9921 322.695 M57.534 322.695 Q57.534 335.461 60.5044 339.704 Q63.5101 343.912 67.8949 343.912 Q72.2798 343.912 75.2501 339.669 Q78.2559 335.425 78.2559 322.695 Q78.2559 309.894 75.2501 305.686 Q72.2798 301.478 67.8242 301.478 Q63.4394 301.478 60.8226 305.191 Q57.534 309.93 57.534 322.695 Z" fill="#000000" fill-rule="nonzero" fill-opacity="1" /><path clip-path="url(#clip320)" d="M94.8404 348.262 L94.8404 341.012 L102.09 341.012 L102.09 348.262 L94.8404 348.262 Z" fill="#000000" fill-rule="nonzero" fill-opacity="1" /><path clip-path="url(#clip320)" d="M121.185 320.149 Q117.224 318.699 115.315 316.012 Q113.405 313.324 113.405 309.576 Q113.405 303.918 117.472 300.064 Q121.538 296.209 128.292 296.209 Q135.082 296.209 139.219 300.17 Q143.356 304.095 143.356 309.753 Q143.356 313.36 141.447 316.047 Q139.573 318.699 135.718 320.149 Q140.492 321.705 142.967 325.17 Q145.478 328.636 145.478 333.445 Q145.478 340.093 140.775 344.619 Q136.072 349.146 128.399 349.146 Q120.725 349.146 116.022 344.619 Q111.319 340.058 111.319 333.268 Q111.319 328.212 113.865 324.817 Q116.446 321.387 121.185 320.149 M119.912 309.364 Q119.912 313.041 122.281 315.375 Q124.65 317.709 128.434 317.709 Q132.111 317.709 134.445 315.411 Q136.815 313.077 136.815 309.717 Q136.815 306.217 134.375 303.847 Q131.97 301.443 128.363 301.443 Q124.721 301.443 122.316 303.777 Q119.912 306.111 119.912 309.364 M117.861 333.304 Q117.861 336.026 119.134 338.572 Q120.442 341.119 122.988 342.533 Q125.534 343.912 128.469 343.912 Q133.031 343.912 136.001 340.977 Q138.972 338.042 138.972 333.516 Q138.972 328.919 135.895 325.913 Q132.854 322.907 128.257 322.907 Q123.766 322.907 120.796 325.878 Q117.861 328.848 117.861 333.304 Z" fill="#000000" fill-rule="nonzero" fill-opacity="1" /><circle clip-path="url(#clip322)" cx="1676.57" cy="953.918" r="14.4" fill="#009af9" fill-rule="evenodd" fill-opacity="1" stroke="#000000" stroke-opacity="1" stroke-width="3.2"/>
<circle clip-path="url(#clip322)" cx="546.27" cy="1068.13" r="14.4" fill="#009af9" fill-rule="evenodd" fill-opacity="1" stroke="#000000" stroke-opacity="1" stroke-width="3.2"/>
<circle clip-path="url(#clip322)" cx="181.478" cy="145.316" r="14.4" fill="#009af9" fill-rule="evenodd" fill-opacity="1" stroke="#000000" stroke-opacity="1" stroke-width="3.2"/>
<circle clip-path="url(#clip322)" cx="1810.16" cy="847.194" r="14.4" fill="#009af9" fill-rule="evenodd" fill-opacity="1" stroke="#000000" stroke-opacity="1" stroke-width="3.2"/>
<circle clip-path="url(#clip322)" cx="878.648" cy="614.397" r="14.4" fill="#009af9" fill-rule="evenodd" fill-opacity="1" stroke="#000000" stroke-opacity="1" stroke-width="3.2"/>
<circle clip-path="url(#clip322)" cx="525.051" cy="1148.37" r="14.4" fill="#009af9" fill-rule="evenodd" fill-opacity="1" stroke="#000000" stroke-opacity="1" stroke-width="3.2"/>
<circle clip-path="url(#clip322)" cx="1382.69" cy="1166.93" r="14.4" fill="#009af9" fill-rule="evenodd" fill-opacity="1" stroke="#000000" stroke-opacity="1" stroke-width="3.2"/>
<circle clip-path="url(#clip322)" cx="221.879" cy="826.587" r="14.4" fill="#009af9" fill-rule="evenodd" fill-opacity="1" stroke="#000000" stroke-opacity="1" stroke-width="3.2"/>
<circle clip-path="url(#clip322)" cx="1151.46" cy="1370.6" r="14.4" fill="#009af9" fill-rule="evenodd" fill-opacity="1" stroke="#000000" stroke-opacity="1" stroke-width="3.2"/>
<circle clip-path="url(#clip322)" cx="348.043" cy="1243" r="14.4" fill="#009af9" fill-rule="evenodd" fill-opacity="1" stroke="#000000" stroke-opacity="1" stroke-width="3.2"/>
<circle clip-path="url(#clip322)" cx="1871.86" cy="824.347" r="14.4" fill="#009af9" fill-rule="evenodd" fill-opacity="1" stroke="#000000" stroke-opacity="1" stroke-width="3.2"/>
<circle clip-path="url(#clip322)" cx="732.74" cy="570.516" r="14.4" fill="#009af9" fill-rule="evenodd" fill-opacity="1" stroke="#000000" stroke-opacity="1" stroke-width="3.2"/>
<circle clip-path="url(#clip322)" cx="411.8" cy="374.423" r="14.4" fill="#009af9" fill-rule="evenodd" fill-opacity="1" stroke="#000000" stroke-opacity="1" stroke-width="3.2"/>
<circle clip-path="url(#clip322)" cx="187.762" cy="1009.82" r="14.4" fill="#009af9" fill-rule="evenodd" fill-opacity="1" stroke="#000000" stroke-opacity="1" stroke-width="3.2"/>
<circle clip-path="url(#clip322)" cx="1028.84" cy="1359.06" r="14.4" fill="#009af9" fill-rule="evenodd" fill-opacity="1" stroke="#000000" stroke-opacity="1" stroke-width="3.2"/>
<circle clip-path="url(#clip322)" cx="1657.75" cy="1242.61" r="14.4" fill="#009af9" fill-rule="evenodd" fill-opacity="1" stroke="#000000" stroke-opacity="1" stroke-width="3.2"/>
<circle clip-path="url(#clip322)" cx="799.219" cy="291.505" r="14.4" fill="#009af9" fill-rule="evenodd" fill-opacity="1" stroke="#000000" stroke-opacity="1" stroke-width="3.2"/>
<circle clip-path="url(#clip322)" cx="681.473" cy="219.53" r="14.4" fill="#009af9" fill-rule="evenodd" fill-opacity="1" stroke="#000000" stroke-opacity="1" stroke-width="3.2"/>
<circle clip-path="url(#clip322)" cx="427.008" cy="187.831" r="14.4" fill="#009af9" fill-rule="evenodd" fill-opacity="1" stroke="#000000" stroke-opacity="1" stroke-width="3.2"/>
<circle clip-path="url(#clip322)" cx="943.694" cy="820.543" r="14.4" fill="#009af9" fill-rule="evenodd" fill-opacity="1" stroke="#000000" stroke-opacity="1" stroke-width="3.2"/>
<circle clip-path="url(#clip322)" cx="1276.49" cy="803.697" r="14.4" fill="#009af9" fill-rule="evenodd" fill-opacity="1" stroke="#000000" stroke-opacity="1" stroke-width="3.2"/>
<circle clip-path="url(#clip322)" cx="1129.4" cy="1390.8" r="14.4" fill="#009af9" fill-rule="evenodd" fill-opacity="1" stroke="#000000" stroke-opacity="1" stroke-width="3.2"/>
<circle clip-path="url(#clip322)" cx="1667.46" cy="1455.02" r="14.4" fill="#009af9" fill-rule="evenodd" fill-opacity="1" stroke="#000000" stroke-opacity="1" stroke-width="3.2"/>
<circle clip-path="url(#clip322)" cx="773.474" cy="843.516" r="14.4" fill="#009af9" fill-rule="evenodd" fill-opacity="1" stroke="#000000" stroke-opacity="1" stroke-width="3.2"/>
<circle clip-path="url(#clip322)" cx="1243.46" cy="1233.91" r="14.4" fill="#009af9" fill-rule="evenodd" fill-opacity="1" stroke="#000000" stroke-opacity="1" stroke-width="3.2"/>
<circle clip-path="url(#clip322)" cx="1022.98" cy="908.808" r="14.4" fill="#009af9" fill-rule="evenodd" fill-opacity="1" stroke="#000000" stroke-opacity="1" stroke-width="3.2"/>
<circle clip-path="url(#clip322)" cx="1421.16" cy="1135.43" r="14.4" fill="#009af9" fill-rule="evenodd" fill-opacity="1" stroke="#000000" stroke-opacity="1" stroke-width="3.2"/>
<circle clip-path="url(#clip322)" cx="705.062" cy="1130.92" r="14.4" fill="#009af9" fill-rule="evenodd" fill-opacity="1" stroke="#000000" stroke-opacity="1" stroke-width="3.2"/>
<circle clip-path="url(#clip322)" cx="397.122" cy="324.754" r="14.4" fill="#009af9" fill-rule="evenodd" fill-opacity="1" stroke="#000000" stroke-opacity="1" stroke-width="3.2"/>
<circle clip-path="url(#clip322)" cx="1553.5" cy="1269.14" r="14.4" fill="#009af9" fill-rule="evenodd" fill-opacity="1" stroke="#000000" stroke-opacity="1" stroke-width="3.2"/>
<circle clip-path="url(#clip322)" cx="1680.11" cy="1047.31" r="14.4" fill="#009af9" fill-rule="evenodd" fill-opacity="1" stroke="#000000" stroke-opacity="1" stroke-width="3.2"/>
<circle clip-path="url(#clip322)" cx="619.833" cy="454.9" r="14.4" fill="#009af9" fill-rule="evenodd" fill-opacity="1" stroke="#000000" stroke-opacity="1" stroke-width="3.2"/>
<circle clip-path="url(#clip322)" cx="1767.97" cy="1250.83" r="14.4" fill="#009af9" fill-rule="evenodd" fill-opacity="1" stroke="#000000" stroke-opacity="1" stroke-width="3.2"/>
<circle clip-path="url(#clip322)" cx="1252.31" cy="1422.24" r="14.4" fill="#009af9" fill-rule="evenodd" fill-opacity="1" stroke="#000000" stroke-opacity="1" stroke-width="3.2"/>
<circle clip-path="url(#clip322)" cx="633.002" cy="552.428" r="14.4" fill="#009af9" fill-rule="evenodd" fill-opacity="1" stroke="#000000" stroke-opacity="1" stroke-width="3.2"/>
<circle clip-path="url(#clip322)" cx="1648.8" cy="931.897" r="14.4" fill="#009af9" fill-rule="evenodd" fill-opacity="1" stroke="#000000" stroke-opacity="1" stroke-width="3.2"/>
<circle clip-path="url(#clip322)" cx="1812.11" cy="1233.22" r="14.4" fill="#009af9" fill-rule="evenodd" fill-opacity="1" stroke="#000000" stroke-opacity="1" stroke-width="3.2"/>
<circle clip-path="url(#clip322)" cx="887.25" cy="737.304" r="14.4" fill="#009af9" fill-rule="evenodd" fill-opacity="1" stroke="#000000" stroke-opacity="1" stroke-width="3.2"/>
<circle clip-path="url(#clip322)" cx="1849.75" cy="1407.81" r="14.4" fill="#009af9" fill-rule="evenodd" fill-opacity="1" stroke="#000000" stroke-opacity="1" stroke-width="3.2"/>
<circle clip-path="url(#clip322)" cx="996.765" cy="166.931" r="14.4" fill="#009af9" fill-rule="evenodd" fill-opacity="1" stroke="#000000" stroke-opacity="1" stroke-width="3.2"/>
<circle clip-path="url(#clip322)" cx="1960.92" cy="1469.17" r="14.4" fill="#009af9" fill-rule="evenodd" fill-opacity="1" stroke="#000000" stroke-opacity="1" stroke-width="3.2"/>
<circle clip-path="url(#clip322)" cx="258.052" cy="1154.7" r="14.4" fill="#009af9" fill-rule="evenodd" fill-opacity="1" stroke="#000000" stroke-opacity="1" stroke-width="3.2"/>
<circle clip-path="url(#clip322)" cx="1283.4" cy="958.584" r="14.4" fill="#009af9" fill-rule="evenodd" fill-opacity="1" stroke="#000000" stroke-opacity="1" stroke-width="3.2"/>
<circle clip-path="url(#clip322)" cx="432.164" cy="787.927" r="14.4" fill="#009af9" fill-rule="evenodd" fill-opacity="1" stroke="#000000" stroke-opacity="1" stroke-width="3.2"/>
<circle clip-path="url(#clip322)" cx="351.517" cy="240.514" r="14.4" fill="#009af9" fill-rule="evenodd" fill-opacity="1" stroke="#000000" stroke-opacity="1" stroke-width="3.2"/>
<circle clip-path="url(#clip322)" cx="493.966" cy="865.232" r="14.4" fill="#009af9" fill-rule="evenodd" fill-opacity="1" stroke="#000000" stroke-opacity="1" stroke-width="3.2"/>
<circle clip-path="url(#clip322)" cx="1350.05" cy="1126.32" r="14.4" fill="#009af9" fill-rule="evenodd" fill-opacity="1" stroke="#000000" stroke-opacity="1" stroke-width="3.2"/>
<circle clip-path="url(#clip322)" cx="443.738" cy="961.881" r="14.4" fill="#009af9" fill-rule="evenodd" fill-opacity="1" stroke="#000000" stroke-opacity="1" stroke-width="3.2"/>
<circle clip-path="url(#clip322)" cx="1219.2" cy="879.151" r="14.4" fill="#009af9" fill-rule="evenodd" fill-opacity="1" stroke="#000000" stroke-opacity="1" stroke-width="3.2"/>
<circle clip-path="url(#clip322)" cx="1919.45" cy="801.745" r="14.4" fill="#009af9" fill-rule="evenodd" fill-opacity="1" stroke="#000000" stroke-opacity="1" stroke-width="3.2"/>
<circle clip-path="url(#clip322)" cx="305.703" cy="159.337" r="14.4" fill="#009af9" fill-rule="evenodd" fill-opacity="1" stroke="#000000" stroke-opacity="1" stroke-width="3.2"/>
<circle clip-path="url(#clip322)" cx="1584.07" cy="196.904" r="14.4" fill="#e26f46" fill-rule="evenodd" fill-opacity="1" stroke="#000000" stroke-opacity="1" stroke-width="3.2"/>
<circle clip-path="url(#clip322)" cx="1414.13" cy="303.071" r="14.4" fill="#e26f46" fill-rule="evenodd" fill-opacity="1" stroke="#000000" stroke-opacity="1" stroke-width="3.2"/>
<circle clip-path="url(#clip322)" cx="1318.34" cy="680.846" r="14.4" fill="#e26f46" fill-rule="evenodd" fill-opacity="1" stroke="#000000" stroke-opacity="1" stroke-width="3.2"/>
<circle clip-path="url(#clip322)" cx="1402.3" cy="687.229" r="14.4" fill="#e26f46" fill-rule="evenodd" fill-opacity="1" stroke="#000000" stroke-opacity="1" stroke-width="3.2"/>
<circle clip-path="url(#clip322)" cx="1893.58" cy="154.772" r="14.4" fill="#e26f46" fill-rule="evenodd" fill-opacity="1" stroke="#000000" stroke-opacity="1" stroke-width="3.2"/>
<circle clip-path="url(#clip322)" cx="1324" cy="640.225" r="14.4" fill="#e26f46" fill-rule="evenodd" fill-opacity="1" stroke="#000000" stroke-opacity="1" stroke-width="3.2"/>
<circle clip-path="url(#clip322)" cx="1667.95" cy="564.261" r="14.4" fill="#e26f46" fill-rule="evenodd" fill-opacity="1" stroke="#000000" stroke-opacity="1" stroke-width="3.2"/>
<circle clip-path="url(#clip322)" cx="1297.97" cy="657.718" r="14.4" fill="#e26f46" fill-rule="evenodd" fill-opacity="1" stroke="#000000" stroke-opacity="1" stroke-width="3.2"/>
<circle clip-path="url(#clip322)" cx="1397.69" cy="186.895" r="14.4" fill="#e26f46" fill-rule="evenodd" fill-opacity="1" stroke="#000000" stroke-opacity="1" stroke-width="3.2"/>
<circle clip-path="url(#clip322)" cx="1279.35" cy="168.54" r="14.4" fill="#e26f46" fill-rule="evenodd" fill-opacity="1" stroke="#000000" stroke-opacity="1" stroke-width="3.2"/>
<circle clip-path="url(#clip322)" cx="1664.28" cy="538.677" r="14.4" fill="#e26f46" fill-rule="evenodd" fill-opacity="1" stroke="#000000" stroke-opacity="1" stroke-width="3.2"/>
<circle clip-path="url(#clip322)" cx="1741.87" cy="56.0697" r="14.4" fill="#e26f46" fill-rule="evenodd" fill-opacity="1" stroke="#000000" stroke-opacity="1" stroke-width="3.2"/>
<circle clip-path="url(#clip322)" cx="1538.52" cy="53.7389" r="14.4" fill="#e26f46" fill-rule="evenodd" fill-opacity="1" stroke="#000000" stroke-opacity="1" stroke-width="3.2"/>
<circle clip-path="url(#clip322)" cx="1365.67" cy="560.203" r="14.4" fill="#e26f46" fill-rule="evenodd" fill-opacity="1" stroke="#000000" stroke-opacity="1" stroke-width="3.2"/>
<circle clip-path="url(#clip322)" cx="1441.02" cy="664.592" r="14.4" fill="#e26f46" fill-rule="evenodd" fill-opacity="1" stroke="#000000" stroke-opacity="1" stroke-width="3.2"/>
<circle clip-path="url(#clip322)" cx="1737.65" cy="537.334" r="14.4" fill="#e26f46" fill-rule="evenodd" fill-opacity="1" stroke="#000000" stroke-opacity="1" stroke-width="3.2"/>
<circle clip-path="url(#clip322)" cx="1847.52" cy="162.951" r="14.4" fill="#e26f46" fill-rule="evenodd" fill-opacity="1" stroke="#000000" stroke-opacity="1" stroke-width="3.2"/>
<circle clip-path="url(#clip322)" cx="1901.56" cy="193.217" r="14.4" fill="#e26f46" fill-rule="evenodd" fill-opacity="1" stroke="#000000" stroke-opacity="1" stroke-width="3.2"/>
<circle clip-path="url(#clip322)" cx="1141.81" cy="416.526" r="14.4" fill="#e26f46" fill-rule="evenodd" fill-opacity="1" stroke="#000000" stroke-opacity="1" stroke-width="3.2"/>
<circle clip-path="url(#clip322)" cx="1909.48" cy="717.195" r="14.4" fill="#e26f46" fill-rule="evenodd" fill-opacity="1" stroke="#000000" stroke-opacity="1" stroke-width="3.2"/>
<circle clip-path="url(#clip322)" cx="1215.75" cy="326.439" r="14.4" fill="#e26f46" fill-rule="evenodd" fill-opacity="1" stroke="#000000" stroke-opacity="1" stroke-width="3.2"/>
<circle clip-path="url(#clip322)" cx="1380.66" cy="597.983" r="14.4" fill="#e26f46" fill-rule="evenodd" fill-opacity="1" stroke="#000000" stroke-opacity="1" stroke-width="3.2"/>
<circle clip-path="url(#clip322)" cx="1377.97" cy="428.173" r="14.4" fill="#e26f46" fill-rule="evenodd" fill-opacity="1" stroke="#000000" stroke-opacity="1" stroke-width="3.2"/>
<circle clip-path="url(#clip322)" cx="1459.45" cy="235.366" r="14.4" fill="#e26f46" fill-rule="evenodd" fill-opacity="1" stroke="#000000" stroke-opacity="1" stroke-width="3.2"/>
<circle clip-path="url(#clip322)" cx="1671.36" cy="130.807" r="14.4" fill="#e26f46" fill-rule="evenodd" fill-opacity="1" stroke="#000000" stroke-opacity="1" stroke-width="3.2"/>
<circle clip-path="url(#clip322)" cx="1632.36" cy="146.641" r="14.4" fill="#e26f46" fill-rule="evenodd" fill-opacity="1" stroke="#000000" stroke-opacity="1" stroke-width="3.2"/>
<circle clip-path="url(#clip322)" cx="1664.23" cy="425.111" r="14.4" fill="#e26f46" fill-rule="evenodd" fill-opacity="1" stroke="#000000" stroke-opacity="1" stroke-width="3.2"/>
<circle clip-path="url(#clip322)" cx="1792.82" cy="590.684" r="14.4" fill="#e26f46" fill-rule="evenodd" fill-opacity="1" stroke="#000000" stroke-opacity="1" stroke-width="3.2"/>
<circle clip-path="url(#clip322)" cx="1432.04" cy="619.966" r="14.4" fill="#e26f46" fill-rule="evenodd" fill-opacity="1" stroke="#000000" stroke-opacity="1" stroke-width="3.2"/>
<circle clip-path="url(#clip322)" cx="1886.81" cy="643.844" r="14.4" fill="#e26f46" fill-rule="evenodd" fill-opacity="1" stroke="#000000" stroke-opacity="1" stroke-width="3.2"/>
<circle clip-path="url(#clip322)" cx="1183.02" cy="89.4932" r="14.4" fill="#e26f46" fill-rule="evenodd" fill-opacity="1" stroke="#000000" stroke-opacity="1" stroke-width="3.2"/>
<circle clip-path="url(#clip322)" cx="1742.2" cy="587.526" r="14.4" fill="#e26f46" fill-rule="evenodd" fill-opacity="1" stroke="#000000" stroke-opacity="1" stroke-width="3.2"/>
<circle clip-path="url(#clip322)" cx="1581.18" cy="165.829" r="14.4" fill="#e26f46" fill-rule="evenodd" fill-opacity="1" stroke="#000000" stroke-opacity="1" stroke-width="3.2"/>
<circle clip-path="url(#clip322)" cx="1401.22" cy="121.555" r="14.4" fill="#e26f46" fill-rule="evenodd" fill-opacity="1" stroke="#000000" stroke-opacity="1" stroke-width="3.2"/>
<circle clip-path="url(#clip322)" cx="1303.87" cy="677.514" r="14.4" fill="#e26f46" fill-rule="evenodd" fill-opacity="1" stroke="#000000" stroke-opacity="1" stroke-width="3.2"/>
<circle clip-path="url(#clip322)" cx="1657.39" cy="312.226" r="14.4" fill="#e26f46" fill-rule="evenodd" fill-opacity="1" stroke="#000000" stroke-opacity="1" stroke-width="3.2"/>
<circle clip-path="url(#clip322)" cx="1593.45" cy="47.2441" r="14.4" fill="#e26f46" fill-rule="evenodd" fill-opacity="1" stroke="#000000" stroke-opacity="1" stroke-width="3.2"/>
<circle clip-path="url(#clip322)" cx="1350.21" cy="485.635" r="14.4" fill="#e26f46" fill-rule="evenodd" fill-opacity="1" stroke="#000000" stroke-opacity="1" stroke-width="3.2"/>
<circle clip-path="url(#clip322)" cx="1851.42" cy="529.45" r="14.4" fill="#e26f46" fill-rule="evenodd" fill-opacity="1" stroke="#000000" stroke-opacity="1" stroke-width="3.2"/>
<circle clip-path="url(#clip322)" cx="1969.05" cy="236.304" r="14.4" fill="#e26f46" fill-rule="evenodd" fill-opacity="1" stroke="#000000" stroke-opacity="1" stroke-width="3.2"/>
<circle clip-path="url(#clip322)" cx="1919.88" cy="54.791" r="14.4" fill="#e26f46" fill-rule="evenodd" fill-opacity="1" stroke="#000000" stroke-opacity="1" stroke-width="3.2"/>
<circle clip-path="url(#clip322)" cx="1839.09" cy="85.6621" r="14.4" fill="#e26f46" fill-rule="evenodd" fill-opacity="1" stroke="#000000" stroke-opacity="1" stroke-width="3.2"/>
<circle clip-path="url(#clip322)" cx="1368.07" cy="212.604" r="14.4" fill="#e26f46" fill-rule="evenodd" fill-opacity="1" stroke="#000000" stroke-opacity="1" stroke-width="3.2"/>
<circle clip-path="url(#clip322)" cx="1462.02" cy="85.0928" r="14.4" fill="#e26f46" fill-rule="evenodd" fill-opacity="1" stroke="#000000" stroke-opacity="1" stroke-width="3.2"/>
<circle clip-path="url(#clip322)" cx="1612.15" cy="54.3248" r="14.4" fill="#e26f46" fill-rule="evenodd" fill-opacity="1" stroke="#000000" stroke-opacity="1" stroke-width="3.2"/>
<circle clip-path="url(#clip322)" cx="1427.71" cy="97.9844" r="14.4" fill="#e26f46" fill-rule="evenodd" fill-opacity="1" stroke="#000000" stroke-opacity="1" stroke-width="3.2"/>
<circle clip-path="url(#clip322)" cx="1661.99" cy="186.845" r="14.4" fill="#e26f46" fill-rule="evenodd" fill-opacity="1" stroke="#000000" stroke-opacity="1" stroke-width="3.2"/>
<circle clip-path="url(#clip322)" cx="1166.53" cy="393.206" r="14.4" fill="#e26f46" fill-rule="evenodd" fill-opacity="1" stroke="#000000" stroke-opacity="1" stroke-width="3.2"/>
<circle clip-path="url(#clip322)" cx="1869.99" cy="250.032" r="14.4" fill="#e26f46" fill-rule="evenodd" fill-opacity="1" stroke="#000000" stroke-opacity="1" stroke-width="3.2"/>
<circle clip-path="url(#clip322)" cx="1841.27" cy="638.382" r="14.4" fill="#e26f46" fill-rule="evenodd" fill-opacity="1" stroke="#000000" stroke-opacity="1" stroke-width="3.2"/>
<path clip-path="url(#clip320)" d="M2041.43 327.922 L2352.76 327.922 L2352.76 94.6416 L2041.43 94.6416  Z" fill="#ffffff" fill-rule="evenodd" fill-opacity="1"/>
<polyline clip-path="url(#clip320)" style="stroke:#000000; stroke-linecap:round; stroke-linejoin:round; stroke-width:4; stroke-opacity:1; fill:none" points="2041.43,327.922 2352.76,327.922 2352.76,94.6416 2041.43,94.6416 2041.43,327.922 "/>
<circle clip-path="url(#clip320)" cx="2137.93" cy="172.402" r="30.72" fill="#009af9" fill-rule="evenodd" fill-opacity="1" stroke="#000000" stroke-opacity="1" stroke-width="6.82667"/>
<path clip-path="url(#clip320)" d="M2234.43 172.755 Q2234.43 163.561 2236.3 157.974 Q2238.21 152.352 2241.92 149.31 Q2245.67 146.269 2251.33 146.269 Q2255.5 146.269 2258.65 147.967 Q2261.8 149.629 2263.85 152.811 Q2265.9 155.958 2267.07 160.52 Q2268.23 165.046 2268.23 172.755 Q2268.23 181.878 2266.36 187.501 Q2264.48 193.088 2260.74 196.165 Q2257.02 199.206 2251.33 199.206 Q2243.83 199.206 2239.55 193.831 Q2234.43 187.359 2234.43 172.755 M2240.97 172.755 Q2240.97 185.521 2243.94 189.764 Q2246.95 193.972 2251.33 193.972 Q2255.72 193.972 2258.69 189.729 Q2261.69 185.485 2261.69 172.755 Q2261.69 159.954 2258.69 155.746 Q2255.72 151.538 2251.26 151.538 Q2246.87 151.538 2244.26 155.251 Q2240.97 159.99 2240.97 172.755 Z" fill="#000000" fill-rule="nonzero" fill-opacity="1" /><path clip-path="url(#clip320)" d="M2278.28 198.322 L2278.28 191.072 L2285.52 191.072 L2285.52 198.322 L2278.28 198.322 Z" fill="#000000" fill-rule="nonzero" fill-opacity="1" /><path clip-path="url(#clip320)" d="M2294.82 172.755 Q2294.82 163.561 2296.7 157.974 Q2298.61 152.352 2302.32 149.31 Q2306.07 146.269 2311.73 146.269 Q2315.9 146.269 2319.05 147.967 Q2322.19 149.629 2324.25 152.811 Q2326.3 155.958 2327.46 160.52 Q2328.63 165.046 2328.63 172.755 Q2328.63 181.878 2326.76 187.501 Q2324.88 193.088 2321.13 196.165 Q2317.42 199.206 2311.73 199.206 Q2304.23 199.206 2299.95 193.831 Q2294.82 187.359 2294.82 172.755 M2301.37 172.755 Q2301.37 185.521 2304.34 189.764 Q2307.34 193.972 2311.73 193.972 Q2316.11 193.972 2319.08 189.729 Q2322.09 185.485 2322.09 172.755 Q2322.09 159.954 2319.08 155.746 Q2316.11 151.538 2311.66 151.538 Q2307.27 151.538 2304.66 155.251 Q2301.37 159.99 2301.37 172.755 Z" fill="#000000" fill-rule="nonzero" fill-opacity="1" /><circle clip-path="url(#clip320)" cx="2137.93" cy="250.162" r="30.72" fill="#e26f46" fill-rule="evenodd" fill-opacity="1" stroke="#000000" stroke-opacity="1" stroke-width="6.82667"/>
<path clip-path="url(#clip320)" d="M2253.52 276.082 L2247.16 276.082 L2247.16 235.522 Q2244.86 237.714 2241.11 239.907 Q2237.4 242.099 2234.43 243.195 L2234.43 237.042 Q2239.77 234.532 2243.76 230.96 Q2247.76 227.389 2249.42 224.029 L2253.52 224.029 L2253.52 276.082 Z" fill="#000000" fill-rule="nonzero" fill-opacity="1" /><path clip-path="url(#clip320)" d="M2273.4 276.082 L2273.4 268.832 L2280.65 268.832 L2280.65 276.082 L2273.4 276.082 Z" fill="#000000" fill-rule="nonzero" fill-opacity="1" /><path clip-path="url(#clip320)" d="M2289.95 250.515 Q2289.95 241.321 2291.82 235.734 Q2293.73 230.112 2297.44 227.07 Q2301.19 224.029 2306.85 224.029 Q2311.02 224.029 2314.17 225.727 Q2317.31 227.389 2319.37 230.571 Q2321.42 233.718 2322.58 238.28 Q2323.75 242.806 2323.75 250.515 Q2323.75 259.638 2321.88 265.261 Q2320 270.848 2316.25 273.925 Q2312.54 276.966 2306.85 276.966 Q2299.35 276.966 2295.07 271.591 Q2289.95 265.119 2289.95 250.515 M2296.49 250.515 Q2296.49 263.281 2299.46 267.524 Q2302.46 271.732 2306.85 271.732 Q2311.23 271.732 2314.2 267.489 Q2317.21 263.245 2317.21 250.515 Q2317.21 237.714 2314.2 233.506 Q2311.23 229.298 2306.78 229.298 Q2302.39 229.298 2299.78 233.011 Q2296.49 237.75 2296.49 250.515 Z" fill="#000000" fill-rule="nonzero" fill-opacity="1" /></svg>
