<?xml version="1.0" encoding="utf-8"?>
<svg xmlns="http://www.w3.org/2000/svg" xmlns:xlink="http://www.w3.org/1999/xlink" width="600" height="400" viewBox="0 0 2400 1600">
<defs>
  <clipPath id="clip590">
    <rect x="0" y="0" width="2400" height="1600"/>
  </clipPath>
</defs>
<path clip-path="url(#clip590)" d="M0 1600 L2400 1600 L2400 8.88178e-14 L0 8.88178e-14  Z" fill="#ffffff" fill-rule="evenodd" fill-opacity="1"/>
<defs>
  <clipPath id="clip591">
    <rect x="480" y="0" width="1681" height="1600"/>
  </clipPath>
</defs>
<path clip-path="url(#clip590)" d="M181.761 1469.17 L2352.76 1469.17 L2352.76 47.2441 L181.761 47.2441  Z" fill="#ffffff" fill-rule="evenodd" fill-opacity="1"/>
<defs>
  <clipPath id="clip592">
    <rect x="181" y="47" width="2172" height="1423"/>
  </clipPath>
</defs>
<polyline clip-path="url(#clip590)" style="stroke:#000000; stroke-linecap:round; stroke-linejoin:round; stroke-width:4; stroke-opacity:1; fill:none" points="181.761,1469.17 2352.76,1469.17 "/>
<polyline clip-path="url(#clip590)" style="stroke:#000000; stroke-linecap:round; stroke-linejoin:round; stroke-width:2; stroke-opacity:0.5; fill:none" points="181.761,47.2441 2352.76,47.2441 "/>
<polyline clip-path="url(#clip590)" style="stroke:#000000; stroke-linecap:round; stroke-linejoin:round; stroke-width:4; stroke-opacity:1; fill:none" points="638.813,1469.17 638.813,1450.27 "/>
<polyline clip-path="url(#clip590)" style="stroke:#000000; stroke-linecap:round; stroke-linejoin:round; stroke-width:4; stroke-opacity:1; fill:none" points="1210.13,1469.17 1210.13,1450.27 "/>
<polyline clip-path="url(#clip590)" style="stroke:#000000; stroke-linecap:round; stroke-linejoin:round; stroke-width:4; stroke-opacity:1; fill:none" points="1781.44,1469.17 1781.44,1450.27 "/>
<polyline clip-path="url(#clip590)" style="stroke:#000000; stroke-linecap:round; stroke-linejoin:round; stroke-width:4; stroke-opacity:1; fill:none" points="2352.76,1469.17 2352.76,1450.27 "/>
<path clip-path="url(#clip590)" d="M621.627 1539.59 L628.31 1539.02 Q629.053 1543.9 631.74 1546.38 Q634.463 1548.82 638.282 1548.82 Q642.879 1548.82 646.062 1545.35 Q649.244 1541.89 649.244 1536.16 Q649.244 1530.71 646.168 1527.57 Q643.127 1524.42 638.176 1524.42 Q635.1 1524.42 632.624 1525.83 Q630.149 1527.21 628.735 1529.44 L622.758 1528.66 L627.78 1502.04 L653.558 1502.04 L653.558 1508.12 L632.872 1508.12 L630.078 1522.05 Q634.746 1518.8 639.873 1518.8 Q646.663 1518.8 651.331 1523.5 Q655.998 1528.2 655.998 1535.59 Q655.998 1542.63 651.896 1547.76 Q646.91 1554.05 638.282 1554.05 Q631.21 1554.05 626.719 1550.09 Q622.263 1546.13 621.627 1539.59 Z" fill="#000000" fill-rule="nonzero" fill-opacity="1" /><path clip-path="url(#clip590)" d="M1194.62 1553.17 L1188.26 1553.17 L1188.26 1512.61 Q1185.96 1514.8 1182.21 1516.99 Q1178.5 1519.19 1175.53 1520.28 L1175.53 1514.13 Q1180.87 1511.62 1184.86 1508.05 Q1188.86 1504.48 1190.52 1501.12 L1194.62 1501.12 L1194.62 1553.17 Z" fill="#000000" fill-rule="nonzero" fill-opacity="1" /><path clip-path="url(#clip590)" d="M1210.92 1527.6 Q1210.92 1518.41 1212.8 1512.82 Q1214.71 1507.2 1218.42 1504.16 Q1222.17 1501.12 1227.83 1501.12 Q1232 1501.12 1235.15 1502.81 Q1238.29 1504.48 1240.34 1507.66 Q1242.39 1510.8 1243.56 1515.37 Q1244.73 1519.89 1244.73 1527.6 Q1244.73 1536.72 1242.85 1542.35 Q1240.98 1547.93 1237.23 1551.01 Q1233.52 1554.05 1227.83 1554.05 Q1220.33 1554.05 1216.05 1548.68 Q1210.92 1542.21 1210.92 1527.6 M1217.46 1527.6 Q1217.46 1540.37 1220.43 1544.61 Q1223.44 1548.82 1227.83 1548.82 Q1232.21 1548.82 1235.18 1544.58 Q1238.19 1540.33 1238.19 1527.6 Q1238.19 1514.8 1235.18 1510.59 Q1232.21 1506.38 1227.75 1506.38 Q1223.37 1506.38 1220.75 1510.1 Q1217.46 1514.84 1217.46 1527.6 Z" fill="#000000" fill-rule="nonzero" fill-opacity="1" /><path clip-path="url(#clip590)" d="M1765.65 1553.17 L1759.29 1553.17 L1759.29 1512.61 Q1756.99 1514.8 1753.24 1516.99 Q1749.53 1519.19 1746.56 1520.28 L1746.56 1514.13 Q1751.9 1511.62 1755.89 1508.05 Q1759.89 1504.48 1761.55 1501.12 L1765.65 1501.12 L1765.65 1553.17 Z" fill="#000000" fill-rule="nonzero" fill-opacity="1" /><path clip-path="url(#clip590)" d="M1781.95 1539.59 L1788.64 1539.02 Q1789.38 1543.9 1792.07 1546.38 Q1794.79 1548.82 1798.61 1548.82 Q1803.21 1548.82 1806.39 1545.35 Q1809.57 1541.89 1809.57 1536.16 Q1809.57 1530.71 1806.5 1527.57 Q1803.45 1524.42 1798.5 1524.42 Q1795.43 1524.42 1792.95 1525.83 Q1790.48 1527.21 1789.06 1529.44 L1783.09 1528.66 L1788.11 1502.04 L1813.89 1502.04 L1813.89 1508.12 L1793.2 1508.12 L1790.41 1522.05 Q1795.07 1518.8 1800.2 1518.8 Q1806.99 1518.8 1811.66 1523.5 Q1816.33 1528.2 1816.33 1535.59 Q1816.33 1542.63 1812.22 1547.76 Q1807.24 1554.05 1798.61 1554.05 Q1791.54 1554.05 1787.05 1550.09 Q1782.59 1546.13 1781.95 1539.59 Z" fill="#000000" fill-rule="nonzero" fill-opacity="1" /><path clip-path="url(#clip590)" d="M2349.61 1547.05 L2349.61 1553.17 L2315.34 1553.17 Q2315.27 1550.87 2316.09 1548.75 Q2317.39 1545.25 2320.26 1541.85 Q2323.16 1538.46 2328.6 1534 Q2337.06 1527.07 2340.03 1523.04 Q2343 1518.97 2343 1515.37 Q2343 1511.58 2340.27 1509 Q2337.59 1506.38 2333.24 1506.38 Q2328.64 1506.38 2325.88 1509.14 Q2323.12 1511.9 2323.09 1516.78 L2316.55 1516.11 Q2317.22 1508.79 2321.6 1504.97 Q2325.99 1501.12 2333.38 1501.12 Q2340.84 1501.12 2345.19 1505.25 Q2349.54 1509.39 2349.54 1515.51 Q2349.54 1518.62 2348.26 1521.63 Q2346.99 1524.63 2344.02 1527.96 Q2341.09 1531.28 2334.23 1537.08 Q2328.5 1541.89 2326.87 1543.62 Q2325.24 1545.32 2324.18 1547.05 L2349.61 1547.05 Z" fill="#000000" fill-rule="nonzero" fill-opacity="1" /><path clip-path="url(#clip590)" d="M2356.43 1527.6 Q2356.43 1518.41 2358.31 1512.82 Q2360.22 1507.2 2363.93 1504.16 Q2367.68 1501.12 2373.34 1501.12 Q2377.51 1501.12 2380.66 1502.81 Q2383.8 1504.48 2385.85 1507.66 Q2387.91 1510.8 2389.07 1515.37 Q2390.24 1519.89 2390.24 1527.6 Q2390.24 1536.72 2388.36 1542.35 Q2386.49 1547.93 2382.74 1551.01 Q2379.03 1554.05 2373.34 1554.05 Q2365.84 1554.05 2361.56 1548.68 Q2356.43 1542.21 2356.43 1527.6 M2362.98 1527.6 Q2362.98 1540.37 2365.95 1544.61 Q2368.95 1548.82 2373.34 1548.82 Q2377.72 1548.82 2380.69 1544.58 Q2383.7 1540.33 2383.7 1527.6 Q2383.7 1514.8 2380.69 1510.59 Q2377.72 1506.38 2373.27 1506.38 Q2368.88 1506.38 2366.26 1510.1 Q2362.98 1514.84 2362.98 1527.6 Z" fill="#000000" fill-rule="nonzero" fill-opacity="1" /><polyline clip-path="url(#clip590)" style="stroke:#000000; stroke-linecap:round; stroke-linejoin:round; stroke-width:4; stroke-opacity:1; fill:none" points="181.761,1469.17 181.761,47.2441 "/>
<polyline clip-path="url(#clip590)" style="stroke:#000000; stroke-linecap:round; stroke-linejoin:round; stroke-width:2; stroke-opacity:0.5; fill:none" points="2352.76,1469.17 2352.76,47.2441 "/>
<polyline clip-path="url(#clip590)" style="stroke:#000000; stroke-linecap:round; stroke-linejoin:round; stroke-width:4; stroke-opacity:1; fill:none" points="181.761,1317.96 200.659,1317.96 "/>
<polyline clip-path="url(#clip590)" style="stroke:#000000; stroke-linecap:round; stroke-linejoin:round; stroke-width:4; stroke-opacity:1; fill:none" points="181.761,908.574 200.659,908.574 "/>
<polyline clip-path="url(#clip590)" style="stroke:#000000; stroke-linecap:round; stroke-linejoin:round; stroke-width:4; stroke-opacity:1; fill:none" points="181.761,499.189 200.659,499.189 "/>
<polyline clip-path="url(#clip590)" style="stroke:#000000; stroke-linecap:round; stroke-linejoin:round; stroke-width:4; stroke-opacity:1; fill:none" points="181.761,89.8042 200.659,89.8042 "/>
<path clip-path="url(#clip590)" d="M51.9115 1318.31 Q51.9115 1309.12 53.7857 1303.53 Q55.6952 1297.91 59.4082 1294.87 Q63.1565 1291.83 68.8143 1291.83 Q72.987 1291.83 76.1342 1293.52 Q79.2813 1295.19 81.3323 1298.37 Q83.3833 1301.52 84.5502 1306.08 Q85.7171 1310.6 85.7171 1318.31 Q85.7171 1327.44 83.843 1333.06 Q81.9688 1338.65 78.2205 1341.72 Q74.5075 1344.76 68.8143 1344.76 Q61.3177 1344.76 57.0389 1339.39 Q51.9115 1332.92 51.9115 1318.31 M58.4534 1318.31 Q58.4534 1331.08 61.4238 1335.32 Q64.4295 1339.53 68.8143 1339.53 Q73.1992 1339.53 76.1695 1335.29 Q79.1753 1331.04 79.1753 1318.31 Q79.1753 1305.51 76.1695 1301.3 Q73.1992 1297.1 68.7436 1297.1 Q64.3588 1297.1 61.742 1300.81 Q58.4534 1305.55 58.4534 1318.31 Z" fill="#000000" fill-rule="nonzero" fill-opacity="1" /><path clip-path="url(#clip590)" d="M95.7598 1343.88 L95.7598 1336.63 L103.009 1336.63 L103.009 1343.88 L95.7598 1343.88 Z" fill="#000000" fill-rule="nonzero" fill-opacity="1" /><path clip-path="url(#clip590)" d="M145.761 1337.76 L145.761 1343.88 L111.496 1343.88 Q111.425 1341.58 112.238 1339.46 Q113.547 1335.96 116.411 1332.56 Q119.311 1329.17 124.756 1324.71 Q133.208 1317.78 136.178 1313.75 Q139.148 1309.68 139.148 1306.08 Q139.148 1302.29 136.426 1299.71 Q133.738 1297.1 129.389 1297.1 Q124.792 1297.1 122.033 1299.85 Q119.275 1302.61 119.24 1307.49 L112.698 1306.82 Q113.37 1299.5 117.755 1295.68 Q122.14 1291.83 129.53 1291.83 Q136.991 1291.83 141.341 1295.96 Q145.69 1300.1 145.69 1306.22 Q145.69 1309.33 144.417 1312.34 Q143.144 1315.34 140.174 1318.67 Q137.239 1321.99 130.379 1327.79 Q124.65 1332.6 123.024 1334.33 Q121.397 1336.03 120.336 1337.76 L145.761 1337.76 Z" fill="#000000" fill-rule="nonzero" fill-opacity="1" /><path clip-path="url(#clip590)" d="M51.3811 908.928 Q51.3811 899.734 53.2553 894.147 Q55.1648 888.524 58.8777 885.483 Q62.6261 882.442 68.2839 882.442 Q72.4566 882.442 75.6037 884.139 Q78.7509 885.801 80.8019 888.984 Q82.8529 892.131 84.0198 896.693 Q85.1867 901.219 85.1867 908.928 Q85.1867 918.051 83.3126 923.674 Q81.4384 929.261 77.6901 932.337 Q73.9771 935.378 68.2839 935.378 Q60.7873 935.378 56.5085 930.003 Q51.3811 923.532 51.3811 908.928 M57.923 908.928 Q57.923 921.693 60.8934 925.937 Q63.8991 930.145 68.2839 930.145 Q72.6687 930.145 75.6391 925.901 Q78.6448 921.658 78.6448 908.928 Q78.6448 896.127 75.6391 891.919 Q72.6687 887.711 68.2132 887.711 Q63.8284 887.711 61.2116 891.424 Q57.923 896.162 57.923 908.928 Z" fill="#000000" fill-rule="nonzero" fill-opacity="1" /><path clip-path="url(#clip590)" d="M95.2294 934.494 L95.2294 927.245 L102.479 927.245 L102.479 934.494 L95.2294 934.494 Z" fill="#000000" fill-rule="nonzero" fill-opacity="1" /><path clip-path="url(#clip590)" d="M111.814 920.809 L118.179 919.961 Q119.275 925.371 121.892 927.775 Q124.544 930.145 128.328 930.145 Q132.819 930.145 135.895 927.033 Q139.007 923.921 139.007 919.324 Q139.007 914.939 136.143 912.11 Q133.278 909.246 128.858 909.246 Q127.055 909.246 124.367 909.953 L125.075 904.366 Q125.711 904.437 126.1 904.437 Q130.167 904.437 133.42 902.315 Q136.673 900.193 136.673 895.773 Q136.673 892.273 134.304 889.974 Q131.935 887.676 128.186 887.676 Q124.473 887.676 121.998 890.009 Q119.523 892.343 118.816 897.011 L112.45 895.879 Q113.617 889.479 117.755 885.978 Q121.892 882.442 128.045 882.442 Q132.288 882.442 135.86 884.281 Q139.431 886.084 141.305 889.231 Q143.215 892.379 143.215 895.915 Q143.215 899.274 141.412 902.032 Q139.608 904.79 136.072 906.417 Q140.669 907.478 143.215 910.837 Q145.761 914.161 145.761 919.183 Q145.761 925.972 140.81 930.71 Q135.86 935.414 128.292 935.414 Q121.468 935.414 116.941 931.347 Q112.45 927.28 111.814 920.809 Z" fill="#000000" fill-rule="nonzero" fill-opacity="1" /><path clip-path="url(#clip590)" d="M51.5933 499.543 Q51.5933 490.349 53.4674 484.762 Q55.377 479.139 59.0899 476.098 Q62.8382 473.057 68.4961 473.057 Q72.6687 473.057 75.8159 474.754 Q78.9631 476.416 81.0141 479.599 Q83.065 482.746 84.232 487.308 Q85.3989 491.834 85.3989 499.543 Q85.3989 508.666 83.5247 514.289 Q81.6506 519.876 77.9022 522.952 Q74.1893 525.993 68.4961 525.993 Q60.9994 525.993 56.7207 520.618 Q51.5933 514.147 51.5933 499.543 M58.1352 499.543 Q58.1352 512.308 61.1055 516.552 Q64.1113 520.76 68.4961 520.76 Q72.8809 520.76 75.8513 516.516 Q78.857 512.273 78.857 499.543 Q78.857 486.742 75.8513 482.534 Q72.8809 478.326 68.4254 478.326 Q64.0405 478.326 61.4238 482.039 Q58.1352 486.777 58.1352 499.543 Z" fill="#000000" fill-rule="nonzero" fill-opacity="1" /><path clip-path="url(#clip590)" d="M95.4416 525.109 L95.4416 517.86 L102.691 517.86 L102.691 525.109 L95.4416 525.109 Z" fill="#000000" fill-rule="nonzero" fill-opacity="1" /><path clip-path="url(#clip590)" d="M132.394 525.109 L132.394 512.697 L109.904 512.697 L109.904 506.863 L133.561 473.269 L138.759 473.269 L138.759 506.863 L145.761 506.863 L145.761 512.697 L138.759 512.697 L138.759 525.109 L132.394 525.109 M132.394 506.863 L132.394 483.489 L116.163 506.863 L132.394 506.863 Z" fill="#000000" fill-rule="nonzero" fill-opacity="1" /><path clip-path="url(#clip590)" d="M50.9921 90.1578 Q50.9921 80.9638 52.8663 75.3767 Q54.7758 69.7542 58.4888 66.7131 Q62.2371 63.672 67.8949 63.672 Q72.0676 63.672 75.2148 65.3693 Q78.3619 67.0313 80.4129 70.2139 Q82.4639 73.3611 83.6308 77.9227 Q84.7977 82.449 84.7977 90.1578 Q84.7977 99.2811 82.9236 104.904 Q81.0494 110.491 77.3011 113.567 Q73.5881 116.608 67.8949 116.608 Q60.3983 116.608 56.1195 111.233 Q50.9921 104.762 50.9921 90.1578 M57.534 90.1578 Q57.534 102.923 60.5044 107.167 Q63.5101 111.375 67.8949 111.375 Q72.2798 111.375 75.2501 107.131 Q78.2559 102.888 78.2559 90.1578 Q78.2559 77.3569 75.2501 73.1489 Q72.2798 68.9409 67.8242 68.9409 Q63.4394 68.9409 60.8226 72.6538 Q57.534 77.3923 57.534 90.1578 Z" fill="#000000" fill-rule="nonzero" fill-opacity="1" /><path clip-path="url(#clip590)" d="M94.8404 115.724 L94.8404 108.475 L102.09 108.475 L102.09 115.724 L94.8404 115.724 Z" fill="#000000" fill-rule="nonzero" fill-opacity="1" /><path clip-path="url(#clip590)" d="M111.39 102.145 L118.073 101.58 Q118.816 106.459 121.503 108.935 Q124.226 111.375 128.045 111.375 Q132.642 111.375 135.824 107.909 Q139.007 104.444 139.007 98.7153 Q139.007 93.2696 135.931 90.1224 Q132.889 86.9752 127.939 86.9752 Q124.862 86.9752 122.387 88.3897 Q119.912 89.7688 118.497 91.9966 L112.521 91.2186 L117.543 64.5914 L143.321 64.5914 L143.321 70.6736 L122.635 70.6736 L119.841 84.606 Q124.509 81.3528 129.636 81.3528 Q136.426 81.3528 141.093 86.0558 Q145.761 90.7589 145.761 98.1495 Q145.761 105.186 141.659 110.314 Q136.673 116.608 128.045 116.608 Q120.973 116.608 116.482 112.648 Q112.026 108.687 111.39 102.145 Z" fill="#000000" fill-rule="nonzero" fill-opacity="1" /><polyline clip-path="url(#clip592)" style="stroke:#009af9; stroke-linecap:round; stroke-linejoin:round; stroke-width:8; stroke-opacity:1; fill:none" points="181.761,47.2441 296.024,1040.41 410.287,1220.06 524.55,1278.91 638.813,1302.65 753.075,1313.74 867.338,1319.57 981.601,1322.92 1095.86,1324.96 1210.13,1326.27 1324.39,1327.14 1438.65,1327.72 1552.92,1328.12 1667.18,1328.4 1781.44,1328.6 1895.7,1328.74 2009.97,1328.84 2124.23,1328.91 2238.49,1328.97 2352.76,1329.01 "/>
<circle clip-path="url(#clip592)" cx="296.024" cy="1040.41" r="3.6" fill="#009af9" fill-rule="evenodd" fill-opacity="1" stroke="#000000" stroke-opacity="1" stroke-width="3.2"/>
<circle clip-path="url(#clip592)" cx="410.287" cy="1220.06" r="3.6" fill="#009af9" fill-rule="evenodd" fill-opacity="1" stroke="#000000" stroke-opacity="1" stroke-width="3.2"/>
<circle clip-path="url(#clip592)" cx="524.55" cy="1278.91" r="3.6" fill="#009af9" fill-rule="evenodd" fill-opacity="1" stroke="#000000" stroke-opacity="1" stroke-width="3.2"/>
<circle clip-path="url(#clip592)" cx="638.813" cy="1302.65" r="3.6" fill="#009af9" fill-rule="evenodd" fill-opacity="1" stroke="#000000" stroke-opacity="1" stroke-width="3.2"/>
<circle clip-path="url(#clip592)" cx="753.075" cy="1313.74" r="3.6" fill="#009af9" fill-rule="evenodd" fill-opacity="1" stroke="#000000" stroke-opacity="1" stroke-width="3.2"/>
<circle clip-path="url(#clip592)" cx="867.338" cy="1319.57" r="3.6" fill="#009af9" fill-rule="evenodd" fill-opacity="1" stroke="#000000" stroke-opacity="1" stroke-width="3.2"/>
<circle clip-path="url(#clip592)" cx="981.601" cy="1322.92" r="3.6" fill="#009af9" fill-rule="evenodd" fill-opacity="1" stroke="#000000" stroke-opacity="1" stroke-width="3.2"/>
<circle clip-path="url(#clip592)" cx="1095.86" cy="1324.96" r="3.6" fill="#009af9" fill-rule="evenodd" fill-opacity="1" stroke="#000000" stroke-opacity="1" stroke-width="3.2"/>
<circle clip-path="url(#clip592)" cx="1210.13" cy="1326.27" r="3.6" fill="#009af9" fill-rule="evenodd" fill-opacity="1" stroke="#000000" stroke-opacity="1" stroke-width="3.2"/>
<circle clip-path="url(#clip592)" cx="1324.39" cy="1327.14" r="3.6" fill="#009af9" fill-rule="evenodd" fill-opacity="1" stroke="#000000" stroke-opacity="1" stroke-width="3.2"/>
<circle clip-path="url(#clip592)" cx="1438.65" cy="1327.72" r="3.6" fill="#009af9" fill-rule="evenodd" fill-opacity="1" stroke="#000000" stroke-opacity="1" stroke-width="3.2"/>
<circle clip-path="url(#clip592)" cx="1552.92" cy="1328.12" r="3.6" fill="#009af9" fill-rule="evenodd" fill-opacity="1" stroke="#000000" stroke-opacity="1" stroke-width="3.2"/>
<circle clip-path="url(#clip592)" cx="1667.18" cy="1328.4" r="3.6" fill="#009af9" fill-rule="evenodd" fill-opacity="1" stroke="#000000" stroke-opacity="1" stroke-width="3.2"/>
<circle clip-path="url(#clip592)" cx="1781.44" cy="1328.6" r="3.6" fill="#009af9" fill-rule="evenodd" fill-opacity="1" stroke="#000000" stroke-opacity="1" stroke-width="3.2"/>
<circle clip-path="url(#clip592)" cx="1895.7" cy="1328.74" r="3.6" fill="#009af9" fill-rule="evenodd" fill-opacity="1" stroke="#000000" stroke-opacity="1" stroke-width="3.2"/>
<circle clip-path="url(#clip592)" cx="2009.97" cy="1328.84" r="3.6" fill="#009af9" fill-rule="evenodd" fill-opacity="1" stroke="#000000" stroke-opacity="1" stroke-width="3.2"/>
<circle clip-path="url(#clip592)" cx="2124.23" cy="1328.91" r="3.6" fill="#009af9" fill-rule="evenodd" fill-opacity="1" stroke="#000000" stroke-opacity="1" stroke-width="3.2"/>
<circle clip-path="url(#clip592)" cx="2238.49" cy="1328.97" r="3.6" fill="#009af9" fill-rule="evenodd" fill-opacity="1" stroke="#000000" stroke-opacity="1" stroke-width="3.2"/>
<circle clip-path="url(#clip592)" cx="2352.76" cy="1329.01" r="3.6" fill="#009af9" fill-rule="evenodd" fill-opacity="1" stroke="#000000" stroke-opacity="1" stroke-width="3.2"/>
<polyline clip-path="url(#clip592)" style="stroke:#e26f46; stroke-linecap:round; stroke-linejoin:round; stroke-width:8; stroke-opacity:1; fill:none" points="181.761,1096.72 296.024,1340.06 410.287,1414.84 524.55,1444.03 638.813,1457 753.075,1463.24 867.338,1466.38 981.601,1467.97 1095.86,1468.75 1210.13,1469.08 1324.39,1469.17 1438.65,1469.13 1552.92,1469.02 1667.18,1468.88 1781.44,1468.74 1895.7,1468.6 2009.97,1468.46 2124.23,1468.34 2238.49,1468.23 2352.76,1468.14 "/>
<circle clip-path="url(#clip592)" cx="181.761" cy="1096.72" r="3.6" fill="#e26f46" fill-rule="evenodd" fill-opacity="1" stroke="#000000" stroke-opacity="1" stroke-width="3.2"/>
<circle clip-path="url(#clip592)" cx="296.024" cy="1340.06" r="3.6" fill="#e26f46" fill-rule="evenodd" fill-opacity="1" stroke="#000000" stroke-opacity="1" stroke-width="3.2"/>
<circle clip-path="url(#clip592)" cx="410.287" cy="1414.84" r="3.6" fill="#e26f46" fill-rule="evenodd" fill-opacity="1" stroke="#000000" stroke-opacity="1" stroke-width="3.2"/>
<circle clip-path="url(#clip592)" cx="524.55" cy="1444.03" r="3.6" fill="#e26f46" fill-rule="evenodd" fill-opacity="1" stroke="#000000" stroke-opacity="1" stroke-width="3.2"/>
<circle clip-path="url(#clip592)" cx="638.813" cy="1457" r="3.6" fill="#e26f46" fill-rule="evenodd" fill-opacity="1" stroke="#000000" stroke-opacity="1" stroke-width="3.2"/>
<circle clip-path="url(#clip592)" cx="753.075" cy="1463.24" r="3.6" fill="#e26f46" fill-rule="evenodd" fill-opacity="1" stroke="#000000" stroke-opacity="1" stroke-width="3.2"/>
<circle clip-path="url(#clip592)" cx="867.338" cy="1466.38" r="3.6" fill="#e26f46" fill-rule="evenodd" fill-opacity="1" stroke="#000000" stroke-opacity="1" stroke-width="3.2"/>
<circle clip-path="url(#clip592)" cx="981.601" cy="1467.97" r="3.6" fill="#e26f46" fill-rule="evenodd" fill-opacity="1" stroke="#000000" stroke-opacity="1" stroke-width="3.2"/>
<circle clip-path="url(#clip592)" cx="1095.86" cy="1468.75" r="3.6" fill="#e26f46" fill-rule="evenodd" fill-opacity="1" stroke="#000000" stroke-opacity="1" stroke-width="3.2"/>
<circle clip-path="url(#clip592)" cx="1210.13" cy="1469.08" r="3.6" fill="#e26f46" fill-rule="evenodd" fill-opacity="1" stroke="#000000" stroke-opacity="1" stroke-width="3.2"/>
<circle clip-path="url(#clip592)" cx="1438.65" cy="1469.13" r="3.6" fill="#e26f46" fill-rule="evenodd" fill-opacity="1" stroke="#000000" stroke-opacity="1" stroke-width="3.2"/>
<circle clip-path="url(#clip592)" cx="1552.92" cy="1469.02" r="3.6" fill="#e26f46" fill-rule="evenodd" fill-opacity="1" stroke="#000000" stroke-opacity="1" stroke-width="3.2"/>
<circle clip-path="url(#clip592)" cx="1667.18" cy="1468.88" r="3.6" fill="#e26f46" fill-rule="evenodd" fill-opacity="1" stroke="#000000" stroke-opacity="1" stroke-width="3.2"/>
<circle clip-path="url(#clip592)" cx="1781.44" cy="1468.74" r="3.6" fill="#e26f46" fill-rule="evenodd" fill-opacity="1" stroke="#000000" stroke-opacity="1" stroke-width="3.2"/>
<circle clip-path="url(#clip592)" cx="1895.7" cy="1468.6" r="3.6" fill="#e26f46" fill-rule="evenodd" fill-opacity="1" stroke="#000000" stroke-opacity="1" stroke-width="3.2"/>
<circle clip-path="url(#clip592)" cx="2009.97" cy="1468.46" r="3.6" fill="#e26f46" fill-rule="evenodd" fill-opacity="1" stroke="#000000" stroke-opacity="1" stroke-width="3.2"/>
<circle clip-path="url(#clip592)" cx="2124.23" cy="1468.34" r="3.6" fill="#e26f46" fill-rule="evenodd" fill-opacity="1" stroke="#000000" stroke-opacity="1" stroke-width="3.2"/>
<circle clip-path="url(#clip592)" cx="2238.49" cy="1468.23" r="3.6" fill="#e26f46" fill-rule="evenodd" fill-opacity="1" stroke="#000000" stroke-opacity="1" stroke-width="3.2"/>
<circle clip-path="url(#clip592)" cx="2352.76" cy="1468.14" r="3.6" fill="#e26f46" fill-rule="evenodd" fill-opacity="1" stroke="#000000" stroke-opacity="1" stroke-width="3.2"/>
<path clip-path="url(#clip590)" d="M1757.41 327.922 L2280.39 327.922 L2280.39 94.6416 L1757.41 94.6416  Z" fill="#ffffff" fill-rule="evenodd" fill-opacity="1"/>
<polyline clip-path="url(#clip590)" style="stroke:#000000; stroke-linecap:round; stroke-linejoin:round; stroke-width:4; stroke-opacity:1; fill:none" points="1757.41,327.922 2280.39,327.922 2280.39,94.6416 1757.41,94.6416 1757.41,327.922 "/>
<polyline clip-path="url(#clip590)" style="stroke:#009af9; stroke-linecap:round; stroke-linejoin:round; stroke-width:12; stroke-opacity:1; fill:none" points="1781.53,172.402 1926.27,172.402 "/>
<circle clip-path="url(#clip590)" cx="1853.9" cy="172.402" r="13.4012" fill="#009af9" fill-rule="evenodd" fill-opacity="1" stroke="#000000" stroke-opacity="1" stroke-width="11.9122"/>
<path clip-path="url(#clip590)" d="M1967.79 192.628 L1968.71 198.251 Q1966.02 198.817 1963.9 198.817 Q1960.43 198.817 1958.52 197.72 Q1956.61 196.624 1955.84 194.856 Q1955.06 193.053 1955.06 187.324 L1955.06 165.718 L1950.39 165.718 L1950.39 160.768 L1955.06 160.768 L1955.06 151.468 L1961.39 147.648 L1961.39 160.768 L1967.79 160.768 L1967.79 165.718 L1961.39 165.718 L1961.39 187.678 Q1961.39 190.401 1961.71 191.179 Q1962.06 191.956 1962.8 192.416 Q1963.58 192.876 1964.99 192.876 Q1966.06 192.876 1967.79 192.628 Z" fill="#000000" fill-rule="nonzero" fill-opacity="1" /><path clip-path="url(#clip590)" d="M1973.94 198.322 L1973.94 160.768 L1979.67 160.768 L1979.67 166.461 Q1981.86 162.465 1983.7 161.192 Q1985.57 159.919 1987.8 159.919 Q1991.02 159.919 1994.34 161.97 L1992.15 167.875 Q1989.82 166.496 1987.48 166.496 Q1985.4 166.496 1983.74 167.769 Q1982.07 169.007 1981.37 171.235 Q1980.31 174.629 1980.31 178.661 L1980.31 198.322 L1973.94 198.322 Z" fill="#000000" fill-rule="nonzero" fill-opacity="1" /><path clip-path="url(#clip590)" d="M2022.63 193.689 Q2019.1 196.695 2015.81 197.933 Q2012.56 199.17 2008.81 199.17 Q2002.62 199.17 1999.3 196.165 Q1995.97 193.123 1995.97 188.42 Q1995.97 185.662 1997.21 183.399 Q1998.48 181.1 2000.5 179.721 Q2002.55 178.342 2005.09 177.635 Q2006.97 177.14 2010.75 176.68 Q2018.46 175.761 2022.1 174.488 Q2022.14 173.18 2022.14 172.826 Q2022.14 168.936 2020.34 167.345 Q2017.9 165.188 2013.09 165.188 Q2008.6 165.188 2006.44 166.779 Q2004.32 168.335 2003.29 172.331 L1997.07 171.482 Q1997.92 167.486 1999.86 165.046 Q2001.81 162.571 2005.48 161.263 Q2009.16 159.919 2014.01 159.919 Q2018.81 159.919 2021.82 161.051 Q2024.83 162.182 2026.24 163.915 Q2027.65 165.612 2028.22 168.229 Q2028.54 169.856 2028.54 174.099 L2028.54 182.586 Q2028.54 191.461 2028.93 193.831 Q2029.35 196.165 2030.55 198.322 L2023.91 198.322 Q2022.92 196.341 2022.63 193.689 M2022.1 179.474 Q2018.64 180.888 2011.71 181.878 Q2007.78 182.444 2006.16 183.151 Q2004.53 183.859 2003.64 185.238 Q2002.76 186.582 2002.76 188.244 Q2002.76 190.79 2004.67 192.487 Q2006.61 194.184 2010.33 194.184 Q2014.01 194.184 2016.87 192.593 Q2019.73 190.966 2021.08 188.173 Q2022.1 186.016 2022.1 181.808 L2022.1 179.474 Z" fill="#000000" fill-rule="nonzero" fill-opacity="1" /><path clip-path="url(#clip590)" d="M2038.44 153.801 L2038.44 146.482 L2044.81 146.482 L2044.81 153.801 L2038.44 153.801 M2038.44 198.322 L2038.44 160.768 L2044.81 160.768 L2044.81 198.322 L2038.44 198.322 Z" fill="#000000" fill-rule="nonzero" fill-opacity="1" /><path clip-path="url(#clip590)" d="M2054.49 198.322 L2054.49 160.768 L2060.22 160.768 L2060.22 166.107 Q2064.36 159.919 2072.18 159.919 Q2075.57 159.919 2078.4 161.157 Q2081.26 162.359 2082.68 164.339 Q2084.09 166.319 2084.66 169.042 Q2085.01 170.81 2085.01 175.23 L2085.01 198.322 L2078.65 198.322 L2078.65 175.478 Q2078.65 171.588 2077.9 169.679 Q2077.16 167.734 2075.25 166.602 Q2073.38 165.435 2070.83 165.435 Q2066.76 165.435 2063.79 168.017 Q2060.86 170.598 2060.86 177.812 L2060.86 198.322 L2054.49 198.322 Z" fill="#000000" fill-rule="nonzero" fill-opacity="1" /><path clip-path="url(#clip590)" d="M2088.9 212.714 L2088.9 208.117 L2131.09 208.117 L2131.09 212.714 L2088.9 212.714 Z" fill="#000000" fill-rule="nonzero" fill-opacity="1" /><path clip-path="url(#clip590)" d="M2134.91 198.322 L2134.91 146.482 L2141.27 146.482 L2141.27 198.322 L2134.91 198.322 Z" fill="#000000" fill-rule="nonzero" fill-opacity="1" /><path clip-path="url(#clip590)" d="M2148.77 179.545 Q2148.77 169.113 2154.57 164.092 Q2159.41 159.919 2166.38 159.919 Q2174.12 159.919 2179.04 165.011 Q2183.95 170.068 2183.95 179.014 Q2183.95 186.263 2181.76 190.436 Q2179.6 194.573 2175.43 196.872 Q2171.29 199.17 2166.38 199.17 Q2158.49 199.17 2153.61 194.114 Q2148.77 189.057 2148.77 179.545 M2155.31 179.545 Q2155.31 186.758 2158.46 190.365 Q2161.6 193.937 2166.38 193.937 Q2171.12 193.937 2174.26 190.33 Q2177.41 186.723 2177.41 179.332 Q2177.41 172.366 2174.23 168.795 Q2171.08 165.188 2166.38 165.188 Q2161.6 165.188 2158.46 168.759 Q2155.31 172.331 2155.31 179.545 Z" fill="#000000" fill-rule="nonzero" fill-opacity="1" /><path clip-path="url(#clip590)" d="M2188.87 187.112 L2195.16 186.122 Q2195.69 189.906 2198.1 191.921 Q2200.54 193.937 2204.89 193.937 Q2209.27 193.937 2211.39 192.169 Q2213.52 190.365 2213.52 187.961 Q2213.52 185.804 2211.64 184.566 Q2210.33 183.717 2205.13 182.409 Q2198.13 180.641 2195.41 179.368 Q2192.72 178.059 2191.31 175.796 Q2189.93 173.498 2189.93 170.74 Q2189.93 168.229 2191.06 166.107 Q2192.23 163.95 2194.21 162.536 Q2195.69 161.439 2198.24 160.697 Q2200.82 159.919 2203.76 159.919 Q2208.18 159.919 2211.5 161.192 Q2214.86 162.465 2216.45 164.657 Q2218.04 166.814 2218.64 170.457 L2212.42 171.305 Q2211.99 168.406 2209.94 166.779 Q2207.93 165.152 2204.22 165.152 Q2199.83 165.152 2197.96 166.602 Q2196.08 168.052 2196.08 169.997 Q2196.08 171.235 2196.86 172.225 Q2197.64 173.25 2199.3 173.922 Q2200.25 174.276 2204.92 175.549 Q2211.68 177.352 2214.33 178.519 Q2217.02 179.651 2218.54 181.843 Q2220.06 184.035 2220.06 187.289 Q2220.06 190.471 2218.18 193.3 Q2216.34 196.094 2212.84 197.65 Q2209.34 199.17 2204.92 199.17 Q2197.6 199.17 2193.75 196.129 Q2189.93 193.088 2188.87 187.112 Z" fill="#000000" fill-rule="nonzero" fill-opacity="1" /><path clip-path="url(#clip590)" d="M2225.08 187.112 L2231.37 186.122 Q2231.9 189.906 2234.31 191.921 Q2236.75 193.937 2241.1 193.937 Q2245.48 193.937 2247.6 192.169 Q2249.73 190.365 2249.73 187.961 Q2249.73 185.804 2247.85 184.566 Q2246.54 183.717 2241.34 182.409 Q2234.34 180.641 2231.62 179.368 Q2228.93 178.059 2227.52 175.796 Q2226.14 173.498 2226.14 170.74 Q2226.14 168.229 2227.27 166.107 Q2228.44 163.95 2230.42 162.536 Q2231.9 161.439 2234.45 160.697 Q2237.03 159.919 2239.97 159.919 Q2244.39 159.919 2247.71 161.192 Q2251.07 162.465 2252.66 164.657 Q2254.25 166.814 2254.85 170.457 L2248.63 171.305 Q2248.2 168.406 2246.15 166.779 Q2244.14 165.152 2240.43 165.152 Q2236.04 165.152 2234.17 166.602 Q2232.29 168.052 2232.29 169.997 Q2232.29 171.235 2233.07 172.225 Q2233.85 173.25 2235.51 173.922 Q2236.46 174.276 2241.13 175.549 Q2247.89 177.352 2250.54 178.519 Q2253.23 179.651 2254.75 181.843 Q2256.27 184.035 2256.27 187.289 Q2256.27 190.471 2254.39 193.3 Q2252.55 196.094 2249.05 197.65 Q2245.55 199.17 2241.13 199.17 Q2233.81 199.17 2229.96 196.129 Q2226.14 193.088 2225.08 187.112 Z" fill="#000000" fill-rule="nonzero" fill-opacity="1" /><polyline clip-path="url(#clip590)" style="stroke:#e26f46; stroke-linecap:round; stroke-linejoin:round; stroke-width:12; stroke-opacity:1; fill:none" points="1781.53,250.162 1926.27,250.162 "/>
<circle clip-path="url(#clip590)" cx="1853.9" cy="250.162" r="13.4012" fill="#e26f46" fill-rule="evenodd" fill-opacity="1" stroke="#000000" stroke-opacity="1" stroke-width="11.9122"/>
<path clip-path="url(#clip590)" d="M1964.68 276.082 L1950.39 238.528 L1957.11 238.528 L1965.17 261.018 Q1966.48 264.66 1967.58 268.585 Q1968.42 265.615 1969.94 261.442 L1978.29 238.528 L1984.83 238.528 L1970.62 276.082 L1964.68 276.082 Z" fill="#000000" fill-rule="nonzero" fill-opacity="1" /><path clip-path="url(#clip590)" d="M2014.96 271.449 Q2011.42 274.455 2008.14 275.693 Q2004.88 276.93 2001.13 276.93 Q1994.95 276.93 1991.62 273.925 Q1988.3 270.883 1988.3 266.18 Q1988.3 263.422 1989.54 261.159 Q1990.81 258.86 1992.82 257.481 Q1994.87 256.102 1997.42 255.395 Q1999.3 254.9 2003.08 254.44 Q2010.79 253.521 2014.43 252.248 Q2014.47 250.94 2014.47 250.586 Q2014.47 246.696 2012.66 245.105 Q2010.22 242.948 2005.41 242.948 Q2000.92 242.948 1998.76 244.539 Q1996.64 246.095 1995.62 250.091 L1989.39 249.242 Q1990.24 245.246 1992.19 242.806 Q1994.13 240.331 1997.81 239.023 Q2001.49 237.679 2006.33 237.679 Q2011.14 237.679 2014.15 238.811 Q2017.15 239.942 2018.57 241.675 Q2019.98 243.372 2020.55 245.989 Q2020.87 247.616 2020.87 251.859 L2020.87 260.346 Q2020.87 269.221 2021.25 271.591 Q2021.68 273.925 2022.88 276.082 L2016.23 276.082 Q2015.24 274.101 2014.96 271.449 M2014.43 257.234 Q2010.96 258.648 2004.03 259.638 Q2000.11 260.204 1998.48 260.911 Q1996.86 261.619 1995.97 262.998 Q1995.09 264.342 1995.09 266.004 Q1995.09 268.55 1997 270.247 Q1998.94 271.944 2002.65 271.944 Q2006.33 271.944 2009.2 270.353 Q2012.06 268.726 2013.4 265.933 Q2014.43 263.776 2014.43 259.568 L2014.43 257.234 Z" fill="#000000" fill-rule="nonzero" fill-opacity="1" /><path clip-path="url(#clip590)" d="M2030.59 276.082 L2030.59 224.242 L2036.96 224.242 L2036.96 276.082 L2030.59 276.082 Z" fill="#000000" fill-rule="nonzero" fill-opacity="1" /><path clip-path="url(#clip590)" d="M2040.95 290.474 L2040.95 285.877 L2083.14 285.877 L2083.14 290.474 L2040.95 290.474 Z" fill="#000000" fill-rule="nonzero" fill-opacity="1" /><path clip-path="url(#clip590)" d="M2086.96 276.082 L2086.96 224.242 L2093.32 224.242 L2093.32 276.082 L2086.96 276.082 Z" fill="#000000" fill-rule="nonzero" fill-opacity="1" /><path clip-path="url(#clip590)" d="M2100.82 257.305 Q2100.82 246.873 2106.62 241.852 Q2111.46 237.679 2118.43 237.679 Q2126.17 237.679 2131.09 242.771 Q2136 247.828 2136 256.774 Q2136 264.023 2133.81 268.196 Q2131.65 272.333 2127.48 274.632 Q2123.34 276.93 2118.43 276.93 Q2110.54 276.93 2105.66 271.874 Q2100.82 266.817 2100.82 257.305 M2107.36 257.305 Q2107.36 264.518 2110.51 268.125 Q2113.65 271.697 2118.43 271.697 Q2123.17 271.697 2126.31 268.09 Q2129.46 264.483 2129.46 257.092 Q2129.46 250.126 2126.28 246.555 Q2123.13 242.948 2118.43 242.948 Q2113.65 242.948 2110.51 246.519 Q2107.36 250.091 2107.36 257.305 Z" fill="#000000" fill-rule="nonzero" fill-opacity="1" /><path clip-path="url(#clip590)" d="M2140.92 264.872 L2147.21 263.882 Q2147.74 267.666 2150.15 269.681 Q2152.59 271.697 2156.94 271.697 Q2161.32 271.697 2163.44 269.929 Q2165.56 268.125 2165.56 265.721 Q2165.56 263.564 2163.69 262.326 Q2162.38 261.477 2157.18 260.169 Q2150.18 258.401 2147.46 257.128 Q2144.77 255.819 2143.36 253.556 Q2141.98 251.258 2141.98 248.5 Q2141.98 245.989 2143.11 243.867 Q2144.28 241.71 2146.26 240.296 Q2147.74 239.199 2150.29 238.457 Q2152.87 237.679 2155.81 237.679 Q2160.23 237.679 2163.55 238.952 Q2166.91 240.225 2168.5 242.417 Q2170.09 244.574 2170.69 248.217 L2164.47 249.065 Q2164.04 246.166 2161.99 244.539 Q2159.98 242.912 2156.26 242.912 Q2151.88 242.912 2150.01 244.362 Q2148.13 245.812 2148.13 247.757 Q2148.13 248.995 2148.91 249.985 Q2149.69 251.01 2151.35 251.682 Q2152.3 252.036 2156.97 253.309 Q2163.73 255.112 2166.38 256.279 Q2169.07 257.411 2170.59 259.603 Q2172.11 261.795 2172.11 265.049 Q2172.11 268.231 2170.23 271.06 Q2168.39 273.854 2164.89 275.41 Q2161.39 276.93 2156.97 276.93 Q2149.65 276.93 2145.8 273.889 Q2141.98 270.848 2140.92 264.872 Z" fill="#000000" fill-rule="nonzero" fill-opacity="1" /><path clip-path="url(#clip590)" d="M2177.13 264.872 L2183.42 263.882 Q2183.95 267.666 2186.36 269.681 Q2188.8 271.697 2193.15 271.697 Q2197.53 271.697 2199.65 269.929 Q2201.78 268.125 2201.78 265.721 Q2201.78 263.564 2199.9 262.326 Q2198.59 261.477 2193.39 260.169 Q2186.39 258.401 2183.67 257.128 Q2180.98 255.819 2179.57 253.556 Q2178.19 251.258 2178.19 248.5 Q2178.19 245.989 2179.32 243.867 Q2180.49 241.71 2182.47 240.296 Q2183.95 239.199 2186.5 238.457 Q2189.08 237.679 2192.02 237.679 Q2196.44 237.679 2199.76 238.952 Q2203.12 240.225 2204.71 242.417 Q2206.3 244.574 2206.9 248.217 L2200.68 249.065 Q2200.25 246.166 2198.2 244.539 Q2196.19 242.912 2192.48 242.912 Q2188.09 242.912 2186.22 244.362 Q2184.34 245.812 2184.34 247.757 Q2184.34 248.995 2185.12 249.985 Q2185.9 251.01 2187.56 251.682 Q2188.51 252.036 2193.18 253.309 Q2199.94 255.112 2202.59 256.279 Q2205.28 257.411 2206.8 259.603 Q2208.32 261.795 2208.32 265.049 Q2208.32 268.231 2206.44 271.06 Q2204.6 273.854 2201.1 275.41 Q2197.6 276.93 2193.18 276.93 Q2185.86 276.93 2182.01 273.889 Q2178.19 270.848 2177.13 264.872 Z" fill="#000000" fill-rule="nonzero" fill-opacity="1" /></svg>
