<?xml version="1.0" encoding="utf-8"?>
<svg xmlns="http://www.w3.org/2000/svg" xmlns:xlink="http://www.w3.org/1999/xlink" width="600" height="400" viewBox="0 0 2400 1600">
<defs>
  <clipPath id="clip300">
    <rect x="0" y="0" width="2400" height="1600"/>
  </clipPath>
</defs>
<path clip-path="url(#clip300)" d="M0 1600 L2400 1600 L2400 8.88178e-14 L0 8.88178e-14  Z" fill="#ffffff" fill-rule="evenodd" fill-opacity="1"/>
<defs>
  <clipPath id="clip301">
    <rect x="480" y="0" width="1681" height="1600"/>
  </clipPath>
</defs>
<path clip-path="url(#clip300)" d="M293.374 1349.74 L2352.76 1349.74 L2352.76 47.2441 L293.374 47.2441  Z" fill="#ffffff" fill-rule="evenodd" fill-opacity="1"/>
<defs>
  <clipPath id="clip302">
    <rect x="293" y="47" width="2060" height="1303"/>
  </clipPath>
</defs>
<polyline clip-path="url(#clip300)" style="stroke:#000000; stroke-linecap:round; stroke-linejoin:round; stroke-width:4; stroke-opacity:1; fill:none" points="293.374,1349.74 2352.76,1349.74 "/>
<polyline clip-path="url(#clip300)" style="stroke:#000000; stroke-linecap:round; stroke-linejoin:round; stroke-width:2; stroke-opacity:0.5; fill:none" points="293.374,47.2441 2352.76,47.2441 "/>
<polyline clip-path="url(#clip300)" style="stroke:#000000; stroke-linecap:round; stroke-linejoin:round; stroke-width:4; stroke-opacity:1; fill:none" points="438,1349.74 438,1330.84 "/>
<polyline clip-path="url(#clip300)" style="stroke:#000000; stroke-linecap:round; stroke-linejoin:round; stroke-width:4; stroke-opacity:1; fill:none" points="748.933,1349.74 748.933,1330.84 "/>
<polyline clip-path="url(#clip300)" style="stroke:#000000; stroke-linecap:round; stroke-linejoin:round; stroke-width:4; stroke-opacity:1; fill:none" points="1059.87,1349.74 1059.87,1330.84 "/>
<polyline clip-path="url(#clip300)" style="stroke:#000000; stroke-linecap:round; stroke-linejoin:round; stroke-width:4; stroke-opacity:1; fill:none" points="1370.8,1349.74 1370.8,1330.84 "/>
<polyline clip-path="url(#clip300)" style="stroke:#000000; stroke-linecap:round; stroke-linejoin:round; stroke-width:4; stroke-opacity:1; fill:none" points="1681.73,1349.74 1681.73,1330.84 "/>
<polyline clip-path="url(#clip300)" style="stroke:#000000; stroke-linecap:round; stroke-linejoin:round; stroke-width:4; stroke-opacity:1; fill:none" points="1992.67,1349.74 1992.67,1330.84 "/>
<polyline clip-path="url(#clip300)" style="stroke:#000000; stroke-linecap:round; stroke-linejoin:round; stroke-width:4; stroke-opacity:1; fill:none" points="2303.6,1349.74 2303.6,1330.84 "/>
<path clip-path="url(#clip300)" d="M432.908 1432.25 L381.563 1432.25 L381.563 1423.33 L432.908 1423.33 L432.908 1432.25 Z" fill="#000000" fill-rule="nonzero" fill-opacity="1" /><path clip-path="url(#clip300)" d="M443.516 1445.61 L453.064 1444.34 Q454.708 1452.45 458.633 1456.06 Q462.612 1459.62 468.287 1459.62 Q475.023 1459.62 479.638 1454.95 Q484.306 1450.28 484.306 1443.38 Q484.306 1436.81 480.009 1432.56 Q475.713 1428.27 469.083 1428.27 Q466.378 1428.27 462.346 1429.33 L463.407 1420.95 Q464.362 1421.05 464.945 1421.05 Q471.045 1421.05 475.925 1417.87 Q480.805 1414.69 480.805 1408.06 Q480.805 1402.81 477.251 1399.36 Q473.697 1395.91 468.075 1395.91 Q462.505 1395.91 458.792 1399.41 Q455.079 1402.91 454.019 1409.92 L444.471 1408.22 Q446.221 1398.62 452.427 1393.37 Q458.633 1388.06 467.863 1388.06 Q474.228 1388.06 479.585 1390.82 Q484.942 1393.52 487.754 1398.25 Q490.618 1402.97 490.618 1408.27 Q490.618 1413.31 487.913 1417.45 Q485.208 1421.58 479.903 1424.02 Q486.799 1425.62 490.618 1430.65 Q494.437 1435.64 494.437 1443.17 Q494.437 1453.36 487.011 1460.46 Q479.585 1467.52 468.234 1467.52 Q457.997 1467.52 451.207 1461.42 Q444.471 1455.32 443.516 1445.61 Z" fill="#000000" fill-rule="nonzero" fill-opacity="1" /><path clip-path="url(#clip300)" d="M744.239 1432.25 L692.894 1432.25 L692.894 1423.33 L744.239 1423.33 L744.239 1432.25 Z" fill="#000000" fill-rule="nonzero" fill-opacity="1" /><path clip-path="url(#clip300)" d="M804.972 1456.96 L804.972 1466.14 L753.574 1466.14 Q753.468 1462.69 754.688 1459.51 Q756.651 1454.26 760.947 1449.17 Q765.296 1444.07 773.465 1437.39 Q786.142 1426.99 790.598 1420.95 Q795.053 1414.85 795.053 1409.44 Q795.053 1403.76 790.969 1399.89 Q786.938 1395.96 780.414 1395.96 Q773.518 1395.96 769.381 1400.1 Q765.243 1404.24 765.19 1411.56 L755.378 1410.55 Q756.385 1399.57 762.963 1393.84 Q769.54 1388.06 780.626 1388.06 Q791.818 1388.06 798.342 1394.27 Q804.866 1400.47 804.866 1409.65 Q804.866 1414.32 802.956 1418.83 Q801.047 1423.33 796.591 1428.32 Q792.189 1433.31 781.899 1442.01 Q773.306 1449.22 770.866 1451.82 Q768.426 1454.36 766.835 1456.96 L804.972 1456.96 Z" fill="#000000" fill-rule="nonzero" fill-opacity="1" /><path clip-path="url(#clip300)" d="M1062.28 1432.25 L1010.93 1432.25 L1010.93 1423.33 L1062.28 1423.33 L1062.28 1432.25 Z" fill="#000000" fill-rule="nonzero" fill-opacity="1" /><path clip-path="url(#clip300)" d="M1108.8 1466.14 L1099.25 1466.14 L1099.25 1405.3 Q1095.8 1408.59 1090.18 1411.88 Q1084.61 1415.17 1080.15 1416.81 L1080.15 1407.58 Q1088.16 1403.82 1094.16 1398.46 Q1100.15 1393.1 1102.64 1388.06 L1108.8 1388.06 L1108.8 1466.14 Z" fill="#000000" fill-rule="nonzero" fill-opacity="1" /><path clip-path="url(#clip300)" d="M1345.44 1427.79 Q1345.44 1414 1348.26 1405.62 Q1351.12 1397.18 1356.69 1392.62 Q1362.31 1388.06 1370.8 1388.06 Q1377.06 1388.06 1381.78 1390.61 Q1386.5 1393.1 1389.58 1397.87 Q1392.65 1402.6 1394.4 1409.44 Q1396.15 1416.23 1396.15 1427.79 Q1396.15 1441.48 1393.34 1449.91 Q1390.53 1458.29 1384.91 1462.9 Q1379.34 1467.47 1370.8 1467.47 Q1359.55 1467.47 1353.14 1459.4 Q1345.44 1449.7 1345.44 1427.79 M1355.26 1427.79 Q1355.26 1446.94 1359.71 1453.3 Q1364.22 1459.62 1370.8 1459.62 Q1377.38 1459.62 1381.83 1453.25 Q1386.34 1446.89 1386.34 1427.79 Q1386.34 1408.59 1381.83 1402.28 Q1377.38 1395.96 1370.69 1395.96 Q1364.12 1395.96 1360.19 1401.53 Q1355.26 1408.64 1355.26 1427.79 Z" fill="#000000" fill-rule="nonzero" fill-opacity="1" /><path clip-path="url(#clip300)" d="M1696.05 1466.14 L1686.51 1466.14 L1686.51 1405.3 Q1683.06 1408.59 1677.44 1411.88 Q1671.87 1415.17 1667.41 1416.81 L1667.41 1407.58 Q1675.42 1403.82 1681.41 1398.46 Q1687.41 1393.1 1689.9 1388.06 L1696.05 1388.06 L1696.05 1466.14 Z" fill="#000000" fill-rule="nonzero" fill-opacity="1" /><path clip-path="url(#clip300)" d="M2018.42 1456.96 L2018.42 1466.14 L1967.02 1466.14 Q1966.91 1462.69 1968.13 1459.51 Q1970.1 1454.26 1974.39 1449.17 Q1978.74 1444.07 1986.91 1437.39 Q1999.59 1426.99 2004.04 1420.95 Q2008.5 1414.85 2008.5 1409.44 Q2008.5 1403.76 2004.41 1399.89 Q2000.38 1395.96 1993.86 1395.96 Q1986.96 1395.96 1982.83 1400.1 Q1978.69 1404.24 1978.64 1411.56 L1968.82 1410.55 Q1969.83 1399.57 1976.41 1393.84 Q1982.98 1388.06 1994.07 1388.06 Q2005.26 1388.06 2011.79 1394.27 Q2018.31 1400.47 2018.31 1409.65 Q2018.31 1414.32 2016.4 1418.83 Q2014.49 1423.33 2010.04 1428.32 Q2005.63 1433.31 1995.34 1442.01 Q1986.75 1449.22 1984.31 1451.82 Q1981.87 1454.36 1980.28 1456.96 L2018.42 1456.96 Z" fill="#000000" fill-rule="nonzero" fill-opacity="1" /><path clip-path="url(#clip300)" d="M2278.14 1445.61 L2287.69 1444.34 Q2289.33 1452.45 2293.25 1456.06 Q2297.23 1459.62 2302.91 1459.62 Q2309.64 1459.62 2314.26 1454.95 Q2318.93 1450.28 2318.93 1443.38 Q2318.93 1436.81 2314.63 1432.56 Q2310.33 1428.27 2303.7 1428.27 Q2301 1428.27 2296.97 1429.33 L2298.03 1420.95 Q2298.98 1421.05 2299.57 1421.05 Q2305.67 1421.05 2310.55 1417.87 Q2315.43 1414.69 2315.43 1408.06 Q2315.43 1402.81 2311.87 1399.36 Q2308.32 1395.91 2302.7 1395.91 Q2297.13 1395.91 2293.41 1399.41 Q2289.7 1402.91 2288.64 1409.92 L2279.09 1408.22 Q2280.84 1398.62 2287.05 1393.37 Q2293.25 1388.06 2302.48 1388.06 Q2308.85 1388.06 2314.21 1390.82 Q2319.56 1393.52 2322.38 1398.25 Q2325.24 1402.97 2325.24 1408.27 Q2325.24 1413.31 2322.53 1417.45 Q2319.83 1421.58 2314.52 1424.02 Q2321.42 1425.62 2325.24 1430.65 Q2329.06 1435.64 2329.06 1443.17 Q2329.06 1453.36 2321.63 1460.46 Q2314.21 1467.52 2302.86 1467.52 Q2292.62 1467.52 2285.83 1461.42 Q2279.09 1455.32 2278.14 1445.61 Z" fill="#000000" fill-rule="nonzero" fill-opacity="1" /><path clip-path="url(#clip300)" d="M1272.27 1557.13 L1272.27 1553.81 Q1280.7 1553.81 1286.07 1547.33 Q1286.07 1547.33 1296.19 1534.47 L1285.49 1520.56 Q1281.7 1515.71 1280.01 1514.87 Q1278.38 1513.97 1272.79 1513.97 L1272.79 1510.6 Q1277.22 1510.92 1283.02 1510.92 Q1286.23 1510.92 1294.72 1510.6 L1294.72 1513.97 Q1290.92 1514.18 1290.92 1516.66 Q1290.92 1517.5 1291.87 1518.61 L1300.3 1529.52 L1307 1521.09 Q1308.63 1519.14 1308.63 1517.29 Q1308.63 1514.29 1305.47 1513.97 L1305.47 1510.6 Q1309.68 1510.92 1315.85 1510.92 Q1320.49 1510.92 1324.7 1510.6 L1324.7 1513.97 Q1316.48 1514.18 1311.84 1519.56 Q1309.79 1521.82 1301.94 1531.78 L1316.38 1550.44 Q1318.12 1552.71 1320.07 1553.29 Q1322.02 1553.81 1326.65 1553.81 L1326.65 1557.13 Q1321.81 1556.82 1316.27 1556.82 Q1314.32 1556.82 1304.63 1557.13 L1304.63 1553.81 Q1306.57 1553.71 1307.52 1552.86 Q1308.52 1551.97 1308.52 1551.07 Q1308.52 1550.65 1306.26 1547.54 L1298.04 1536.74 Q1289.82 1546.44 1288.76 1548.7 Q1288.34 1549.65 1288.34 1550.44 Q1288.34 1553.34 1291.45 1553.81 L1291.45 1557.13 Q1283.7 1556.82 1281.23 1556.82 Q1276.48 1556.82 1272.27 1557.13 Z" fill="#000000" fill-rule="nonzero" fill-opacity="1" /><path clip-path="url(#clip300)" d="M1337.65 1543.91 L1337.65 1541.55 Q1346.72 1541.55 1351.41 1536.71 Q1352.7 1536.71 1352.92 1537.01 Q1353.14 1537.3 1353.14 1538.67 L1353.14 1581.06 Q1353.14 1583.31 1354.25 1584.01 Q1355.35 1584.71 1360.19 1584.71 L1362.58 1584.71 L1362.58 1587.03 Q1359.93 1586.81 1350.34 1586.81 Q1340.75 1586.81 1338.13 1587.03 L1338.13 1584.71 L1340.52 1584.71 Q1345.28 1584.71 1346.43 1584.04 Q1347.57 1583.34 1347.57 1581.06 L1347.57 1541.92 Q1343.62 1543.91 1337.65 1543.91 Z" fill="#000000" fill-rule="nonzero" fill-opacity="1" /><polyline clip-path="url(#clip300)" style="stroke:#000000; stroke-linecap:round; stroke-linejoin:round; stroke-width:4; stroke-opacity:1; fill:none" points="293.374,1349.74 293.374,47.2441 "/>
<polyline clip-path="url(#clip300)" style="stroke:#000000; stroke-linecap:round; stroke-linejoin:round; stroke-width:2; stroke-opacity:0.5; fill:none" points="2352.76,1349.74 2352.76,47.2441 "/>
<polyline clip-path="url(#clip300)" style="stroke:#000000; stroke-linecap:round; stroke-linejoin:round; stroke-width:4; stroke-opacity:1; fill:none" points="293.374,1300.51 312.272,1300.51 "/>
<polyline clip-path="url(#clip300)" style="stroke:#000000; stroke-linecap:round; stroke-linejoin:round; stroke-width:4; stroke-opacity:1; fill:none" points="293.374,1062.34 312.272,1062.34 "/>
<polyline clip-path="url(#clip300)" style="stroke:#000000; stroke-linecap:round; stroke-linejoin:round; stroke-width:4; stroke-opacity:1; fill:none" points="293.374,824.167 312.272,824.167 "/>
<polyline clip-path="url(#clip300)" style="stroke:#000000; stroke-linecap:round; stroke-linejoin:round; stroke-width:4; stroke-opacity:1; fill:none" points="293.374,585.998 312.272,585.998 "/>
<polyline clip-path="url(#clip300)" style="stroke:#000000; stroke-linecap:round; stroke-linejoin:round; stroke-width:4; stroke-opacity:1; fill:none" points="293.374,347.828 312.272,347.828 "/>
<polyline clip-path="url(#clip300)" style="stroke:#000000; stroke-linecap:round; stroke-linejoin:round; stroke-width:4; stroke-opacity:1; fill:none" points="293.374,109.659 312.272,109.659 "/>
<path clip-path="url(#clip300)" d="M195.845 1305.49 L144.5 1305.49 L144.5 1296.58 L195.845 1296.58 L195.845 1305.49 Z" fill="#000000" fill-rule="nonzero" fill-opacity="1" /><path clip-path="url(#clip300)" d="M206.454 1318.86 L216.001 1317.58 Q217.645 1325.7 221.571 1329.31 Q225.549 1332.86 231.224 1332.86 Q237.961 1332.86 242.575 1328.19 Q247.243 1323.53 247.243 1316.63 Q247.243 1310.05 242.947 1305.81 Q238.65 1301.51 232.02 1301.51 Q229.315 1301.51 225.284 1302.57 L226.344 1294.19 Q227.299 1294.3 227.883 1294.3 Q233.983 1294.3 238.862 1291.12 Q243.742 1287.93 243.742 1281.3 Q243.742 1276.05 240.188 1272.61 Q236.635 1269.16 231.012 1269.16 Q225.443 1269.16 221.73 1272.66 Q218.017 1276.16 216.956 1283.16 L207.408 1281.46 Q209.159 1271.86 215.365 1266.61 Q221.571 1261.31 230.8 1261.31 Q237.165 1261.31 242.522 1264.07 Q247.88 1266.77 250.691 1271.49 Q253.555 1276.21 253.555 1281.52 Q253.555 1286.56 250.85 1290.69 Q248.145 1294.83 242.841 1297.27 Q249.736 1298.86 253.555 1303.9 Q257.374 1308.89 257.374 1316.42 Q257.374 1326.6 249.948 1333.71 Q242.522 1340.76 231.171 1340.76 Q220.934 1340.76 214.145 1334.66 Q207.408 1328.56 206.454 1318.86 Z" fill="#000000" fill-rule="nonzero" fill-opacity="1" /><path clip-path="url(#clip300)" d="M196.641 1067.32 L145.296 1067.32 L145.296 1058.41 L196.641 1058.41 L196.641 1067.32 Z" fill="#000000" fill-rule="nonzero" fill-opacity="1" /><path clip-path="url(#clip300)" d="M257.374 1092.04 L257.374 1101.22 L205.976 1101.22 Q205.87 1097.77 207.09 1094.59 Q209.053 1089.33 213.349 1084.24 Q217.699 1079.15 225.867 1072.47 Q238.544 1062.07 243 1056.02 Q247.455 1049.92 247.455 1044.51 Q247.455 1038.84 243.371 1034.97 Q239.34 1031.04 232.816 1031.04 Q225.92 1031.04 221.783 1035.18 Q217.645 1039.32 217.592 1046.64 L207.78 1045.63 Q208.787 1034.65 215.365 1028.92 Q221.942 1023.14 233.028 1023.14 Q244.22 1023.14 250.744 1029.34 Q257.268 1035.55 257.268 1044.73 Q257.268 1049.39 255.359 1053.9 Q253.449 1058.41 248.993 1063.4 Q244.591 1068.38 234.301 1077.08 Q225.708 1084.3 223.268 1086.89 Q220.828 1089.44 219.237 1092.04 L257.374 1092.04 Z" fill="#000000" fill-rule="nonzero" fill-opacity="1" /><path clip-path="url(#clip300)" d="M210.856 829.153 L159.511 829.153 L159.511 820.242 L210.856 820.242 L210.856 829.153 Z" fill="#000000" fill-rule="nonzero" fill-opacity="1" /><path clip-path="url(#clip300)" d="M257.374 863.047 L247.827 863.047 L247.827 802.207 Q244.379 805.496 238.756 808.785 Q233.187 812.073 228.731 813.717 L228.731 804.488 Q236.741 800.722 242.734 795.365 Q248.728 790.008 251.221 784.969 L257.374 784.969 L257.374 863.047 Z" fill="#000000" fill-rule="nonzero" fill-opacity="1" /><path clip-path="url(#clip300)" d="M206.666 586.528 Q206.666 572.737 209.477 564.356 Q212.341 555.923 217.911 551.361 Q223.533 546.799 232.02 546.799 Q238.279 546.799 243 549.345 Q247.72 551.838 250.797 556.612 Q253.873 561.333 255.624 568.175 Q257.374 574.965 257.374 586.528 Q257.374 600.213 254.563 608.647 Q251.752 617.027 246.129 621.642 Q240.56 626.204 232.02 626.204 Q220.775 626.204 214.357 618.141 Q206.666 608.434 206.666 586.528 M216.479 586.528 Q216.479 605.676 220.934 612.041 Q225.443 618.353 232.02 618.353 Q238.597 618.353 243.053 611.988 Q247.561 605.623 247.561 586.528 Q247.561 567.327 243.053 561.015 Q238.597 554.703 231.914 554.703 Q225.337 554.703 221.411 560.272 Q216.479 567.38 216.479 586.528 Z" fill="#000000" fill-rule="nonzero" fill-opacity="1" /><path clip-path="url(#clip300)" d="M257.374 386.708 L247.827 386.708 L247.827 325.869 Q244.379 329.157 238.756 332.446 Q233.187 335.735 228.731 337.379 L228.731 328.15 Q236.741 324.384 242.734 319.026 Q248.728 313.669 251.221 308.63 L257.374 308.63 L257.374 386.708 Z" fill="#000000" fill-rule="nonzero" fill-opacity="1" /><path clip-path="url(#clip300)" d="M257.374 139.363 L257.374 148.539 L205.976 148.539 Q205.87 145.091 207.09 141.909 Q209.053 136.658 213.349 131.565 Q217.699 126.473 225.867 119.79 Q238.544 109.394 243 103.347 Q247.455 97.2471 247.455 91.8368 Q247.455 86.1613 243.371 82.2892 Q239.34 78.3641 232.816 78.3641 Q225.92 78.3641 221.783 82.5014 Q217.645 86.6387 217.592 93.9585 L207.78 92.9507 Q208.787 81.971 215.365 76.2424 Q221.942 70.4608 233.028 70.4608 Q244.22 70.4608 250.744 76.6667 Q257.268 82.8727 257.268 92.049 Q257.268 96.7167 255.359 101.225 Q253.449 105.734 248.993 110.72 Q244.591 115.706 234.301 124.405 Q225.708 131.619 223.268 134.218 Q220.828 136.764 219.237 139.363 L257.374 139.363 Z" fill="#000000" fill-rule="nonzero" fill-opacity="1" /><path clip-path="url(#clip300)" d="M69.9417 751.882 L66.6215 751.882 Q66.6215 743.45 60.1394 738.075 Q60.1394 738.075 47.2804 727.956 L33.3675 738.654 Q28.5191 742.449 27.6759 744.135 Q26.7799 745.769 26.7799 751.355 L23.4071 751.355 Q23.7233 746.928 23.7233 741.131 Q23.7233 737.917 23.4071 729.432 L26.7799 729.432 Q26.9907 733.226 29.4677 733.226 Q30.3109 733.226 31.4176 732.278 L42.3266 723.846 L33.8945 717.153 Q31.9446 715.519 30.1001 715.519 Q27.0962 715.519 26.7799 718.681 L23.4071 718.681 Q23.7233 714.465 23.7233 708.299 Q23.7233 703.661 23.4071 699.445 L26.7799 699.445 Q26.9907 707.667 32.3662 712.304 Q34.6323 714.36 44.5927 722.212 L63.2487 707.772 Q65.5148 706.033 66.0945 704.083 Q66.6215 702.133 66.6215 697.495 L69.9417 697.495 Q69.6255 702.344 69.6255 707.877 Q69.6255 709.827 69.9417 719.524 L66.6215 719.524 Q66.5161 717.574 65.6729 716.626 Q64.777 715.624 63.8811 715.624 Q63.4595 715.624 60.3502 717.89 L49.5466 726.112 Q59.2435 734.333 61.5096 735.387 Q62.4582 735.809 63.2487 735.809 Q66.1472 735.809 66.6215 732.699 L69.9417 732.699 Q69.6255 740.446 69.6255 742.923 Q69.6255 747.666 69.9417 751.882 Z" fill="#000000" fill-rule="nonzero" fill-opacity="1" /><path clip-path="url(#clip300)" d="M99.8404 686.503 Q98.4755 686.503 98.0697 686.392 Q97.6639 686.245 97.0367 685.654 L80.8788 671.157 Q71.9513 663.225 64.1674 663.225 Q59.1135 663.225 55.4982 665.881 Q51.883 668.5 51.883 673.333 Q51.883 676.653 53.9119 679.457 Q55.9409 682.261 59.5561 683.552 Q59.4824 683.33 59.4824 682.556 Q59.4824 680.674 60.6629 679.641 Q61.8433 678.571 63.4296 678.571 Q65.4586 678.571 66.4546 679.9 Q67.4138 681.191 67.4138 682.482 Q67.4138 682.998 67.3031 683.699 Q67.1924 684.363 66.1595 685.433 Q65.0897 686.503 63.2083 686.503 Q57.933 686.503 53.7275 682.519 Q49.522 678.498 49.522 672.374 Q49.522 665.439 53.6537 660.901 Q57.7485 656.327 64.1674 656.327 Q66.4178 656.327 68.4836 657.028 Q70.5126 657.692 72.0989 658.614 Q73.6851 659.499 76.2306 661.934 Q78.776 664.369 80.5836 666.324 Q82.3913 668.279 86.2279 672.669 L94.0117 680.674 L94.0117 667.062 Q94.0117 660.421 93.4215 659.905 Q92.3517 659.167 86.7074 658.245 L86.7074 656.327 L99.8404 658.466 L99.8404 686.503 Z" fill="#000000" fill-rule="nonzero" fill-opacity="1" /><circle clip-path="url(#clip302)" cx="1088.16" cy="768.743" r="14.4" fill="#009af9" fill-rule="evenodd" fill-opacity="1" stroke="#000000" stroke-opacity="1" stroke-width="3.2"/>
<circle clip-path="url(#clip302)" cx="1428.01" cy="1117.26" r="14.4" fill="#009af9" fill-rule="evenodd" fill-opacity="1" stroke="#000000" stroke-opacity="1" stroke-width="3.2"/>
<circle clip-path="url(#clip302)" cx="1199.28" cy="609.247" r="14.4" fill="#009af9" fill-rule="evenodd" fill-opacity="1" stroke="#000000" stroke-opacity="1" stroke-width="3.2"/>
<circle clip-path="url(#clip302)" cx="1356.4" cy="713.336" r="14.4" fill="#009af9" fill-rule="evenodd" fill-opacity="1" stroke="#000000" stroke-opacity="1" stroke-width="3.2"/>
<circle clip-path="url(#clip302)" cx="932.868" cy="532.991" r="14.4" fill="#009af9" fill-rule="evenodd" fill-opacity="1" stroke="#000000" stroke-opacity="1" stroke-width="3.2"/>
<circle clip-path="url(#clip302)" cx="1647.4" cy="793.325" r="14.4" fill="#009af9" fill-rule="evenodd" fill-opacity="1" stroke="#000000" stroke-opacity="1" stroke-width="3.2"/>
<circle clip-path="url(#clip302)" cx="293.374" cy="550.422" r="14.4" fill="#009af9" fill-rule="evenodd" fill-opacity="1" stroke="#000000" stroke-opacity="1" stroke-width="3.2"/>
<circle clip-path="url(#clip302)" cx="1289.54" cy="572.822" r="14.4" fill="#009af9" fill-rule="evenodd" fill-opacity="1" stroke="#000000" stroke-opacity="1" stroke-width="3.2"/>
<circle clip-path="url(#clip302)" cx="1244.9" cy="835.024" r="14.4" fill="#009af9" fill-rule="evenodd" fill-opacity="1" stroke="#000000" stroke-opacity="1" stroke-width="3.2"/>
<circle clip-path="url(#clip302)" cx="1592.82" cy="681.731" r="14.4" fill="#009af9" fill-rule="evenodd" fill-opacity="1" stroke="#000000" stroke-opacity="1" stroke-width="3.2"/>
<circle clip-path="url(#clip302)" cx="1097.93" cy="639.8" r="14.4" fill="#009af9" fill-rule="evenodd" fill-opacity="1" stroke="#000000" stroke-opacity="1" stroke-width="3.2"/>
<circle clip-path="url(#clip302)" cx="1319.95" cy="723.639" r="14.4" fill="#009af9" fill-rule="evenodd" fill-opacity="1" stroke="#000000" stroke-opacity="1" stroke-width="3.2"/>
<circle clip-path="url(#clip302)" cx="1849.91" cy="923.995" r="14.4" fill="#009af9" fill-rule="evenodd" fill-opacity="1" stroke="#000000" stroke-opacity="1" stroke-width="3.2"/>
<circle clip-path="url(#clip302)" cx="1201.44" cy="972.457" r="14.4" fill="#009af9" fill-rule="evenodd" fill-opacity="1" stroke="#000000" stroke-opacity="1" stroke-width="3.2"/>
<circle clip-path="url(#clip302)" cx="1505.61" cy="675.918" r="14.4" fill="#009af9" fill-rule="evenodd" fill-opacity="1" stroke="#000000" stroke-opacity="1" stroke-width="3.2"/>
<circle clip-path="url(#clip302)" cx="1051.75" cy="697.608" r="14.4" fill="#009af9" fill-rule="evenodd" fill-opacity="1" stroke="#000000" stroke-opacity="1" stroke-width="3.2"/>
<circle clip-path="url(#clip302)" cx="1545.18" cy="817.763" r="14.4" fill="#009af9" fill-rule="evenodd" fill-opacity="1" stroke="#000000" stroke-opacity="1" stroke-width="3.2"/>
<circle clip-path="url(#clip302)" cx="1566.16" cy="742.918" r="14.4" fill="#009af9" fill-rule="evenodd" fill-opacity="1" stroke="#000000" stroke-opacity="1" stroke-width="3.2"/>
<circle clip-path="url(#clip302)" cx="1361.82" cy="697.378" r="14.4" fill="#009af9" fill-rule="evenodd" fill-opacity="1" stroke="#000000" stroke-opacity="1" stroke-width="3.2"/>
<circle clip-path="url(#clip302)" cx="1442.03" cy="669.789" r="14.4" fill="#009af9" fill-rule="evenodd" fill-opacity="1" stroke="#000000" stroke-opacity="1" stroke-width="3.2"/>
<circle clip-path="url(#clip302)" cx="1381.42" cy="1065.33" r="14.4" fill="#009af9" fill-rule="evenodd" fill-opacity="1" stroke="#000000" stroke-opacity="1" stroke-width="3.2"/>
<circle clip-path="url(#clip302)" cx="661.617" cy="886.018" r="14.4" fill="#009af9" fill-rule="evenodd" fill-opacity="1" stroke="#000000" stroke-opacity="1" stroke-width="3.2"/>
<circle clip-path="url(#clip302)" cx="1567.91" cy="1349.74" r="14.4" fill="#009af9" fill-rule="evenodd" fill-opacity="1" stroke="#000000" stroke-opacity="1" stroke-width="3.2"/>
<circle clip-path="url(#clip302)" cx="1365.49" cy="899.244" r="14.4" fill="#009af9" fill-rule="evenodd" fill-opacity="1" stroke="#000000" stroke-opacity="1" stroke-width="3.2"/>
<circle clip-path="url(#clip302)" cx="881.735" cy="775.212" r="14.4" fill="#009af9" fill-rule="evenodd" fill-opacity="1" stroke="#000000" stroke-opacity="1" stroke-width="3.2"/>
<circle clip-path="url(#clip302)" cx="1619.29" cy="901.261" r="14.4" fill="#009af9" fill-rule="evenodd" fill-opacity="1" stroke="#000000" stroke-opacity="1" stroke-width="3.2"/>
<circle clip-path="url(#clip302)" cx="1590.12" cy="884.925" r="14.4" fill="#009af9" fill-rule="evenodd" fill-opacity="1" stroke="#000000" stroke-opacity="1" stroke-width="3.2"/>
<circle clip-path="url(#clip302)" cx="870.808" cy="935.727" r="14.4" fill="#009af9" fill-rule="evenodd" fill-opacity="1" stroke="#000000" stroke-opacity="1" stroke-width="3.2"/>
<circle clip-path="url(#clip302)" cx="1159.15" cy="605.502" r="14.4" fill="#009af9" fill-rule="evenodd" fill-opacity="1" stroke="#000000" stroke-opacity="1" stroke-width="3.2"/>
<circle clip-path="url(#clip302)" cx="1075.01" cy="632.103" r="14.4" fill="#009af9" fill-rule="evenodd" fill-opacity="1" stroke="#000000" stroke-opacity="1" stroke-width="3.2"/>
<circle clip-path="url(#clip302)" cx="1204.39" cy="622.157" r="14.4" fill="#009af9" fill-rule="evenodd" fill-opacity="1" stroke="#000000" stroke-opacity="1" stroke-width="3.2"/>
<circle clip-path="url(#clip302)" cx="1507.51" cy="948.451" r="14.4" fill="#009af9" fill-rule="evenodd" fill-opacity="1" stroke="#000000" stroke-opacity="1" stroke-width="3.2"/>
<circle clip-path="url(#clip302)" cx="1587.83" cy="1287.09" r="14.4" fill="#009af9" fill-rule="evenodd" fill-opacity="1" stroke="#000000" stroke-opacity="1" stroke-width="3.2"/>
<circle clip-path="url(#clip302)" cx="1699.62" cy="718.035" r="14.4" fill="#009af9" fill-rule="evenodd" fill-opacity="1" stroke="#000000" stroke-opacity="1" stroke-width="3.2"/>
<circle clip-path="url(#clip302)" cx="917.345" cy="981.693" r="14.4" fill="#009af9" fill-rule="evenodd" fill-opacity="1" stroke="#000000" stroke-opacity="1" stroke-width="3.2"/>
<circle clip-path="url(#clip302)" cx="1115.1" cy="951.389" r="14.4" fill="#009af9" fill-rule="evenodd" fill-opacity="1" stroke="#000000" stroke-opacity="1" stroke-width="3.2"/>
<circle clip-path="url(#clip302)" cx="796.795" cy="454.973" r="14.4" fill="#009af9" fill-rule="evenodd" fill-opacity="1" stroke="#000000" stroke-opacity="1" stroke-width="3.2"/>
<circle clip-path="url(#clip302)" cx="1319.2" cy="598.023" r="14.4" fill="#009af9" fill-rule="evenodd" fill-opacity="1" stroke="#000000" stroke-opacity="1" stroke-width="3.2"/>
<circle clip-path="url(#clip302)" cx="683.754" cy="684.014" r="14.4" fill="#009af9" fill-rule="evenodd" fill-opacity="1" stroke="#000000" stroke-opacity="1" stroke-width="3.2"/>
<circle clip-path="url(#clip302)" cx="1029.58" cy="588.635" r="14.4" fill="#009af9" fill-rule="evenodd" fill-opacity="1" stroke="#000000" stroke-opacity="1" stroke-width="3.2"/>
<circle clip-path="url(#clip302)" cx="1020.25" cy="580.962" r="14.4" fill="#009af9" fill-rule="evenodd" fill-opacity="1" stroke="#000000" stroke-opacity="1" stroke-width="3.2"/>
<circle clip-path="url(#clip302)" cx="1504.39" cy="999.155" r="14.4" fill="#009af9" fill-rule="evenodd" fill-opacity="1" stroke="#000000" stroke-opacity="1" stroke-width="3.2"/>
<circle clip-path="url(#clip302)" cx="1364.46" cy="528.947" r="14.4" fill="#e26f46" fill-rule="evenodd" fill-opacity="1" stroke="#000000" stroke-opacity="1" stroke-width="3.2"/>
<circle clip-path="url(#clip302)" cx="1127.16" cy="441.3" r="14.4" fill="#e26f46" fill-rule="evenodd" fill-opacity="1" stroke="#000000" stroke-opacity="1" stroke-width="3.2"/>
<circle clip-path="url(#clip302)" cx="1540.19" cy="582.505" r="14.4" fill="#e26f46" fill-rule="evenodd" fill-opacity="1" stroke="#000000" stroke-opacity="1" stroke-width="3.2"/>
<circle clip-path="url(#clip302)" cx="1323.52" cy="374.329" r="14.4" fill="#e26f46" fill-rule="evenodd" fill-opacity="1" stroke="#000000" stroke-opacity="1" stroke-width="3.2"/>
<circle clip-path="url(#clip302)" cx="1316.26" cy="387.705" r="14.4" fill="#e26f46" fill-rule="evenodd" fill-opacity="1" stroke="#000000" stroke-opacity="1" stroke-width="3.2"/>
<circle clip-path="url(#clip302)" cx="1575.57" cy="449.938" r="14.4" fill="#e26f46" fill-rule="evenodd" fill-opacity="1" stroke="#000000" stroke-opacity="1" stroke-width="3.2"/>
<circle clip-path="url(#clip302)" cx="1292.6" cy="175.638" r="14.4" fill="#e26f46" fill-rule="evenodd" fill-opacity="1" stroke="#000000" stroke-opacity="1" stroke-width="3.2"/>
<circle clip-path="url(#clip302)" cx="1693.14" cy="373.927" r="14.4" fill="#e26f46" fill-rule="evenodd" fill-opacity="1" stroke="#000000" stroke-opacity="1" stroke-width="3.2"/>
<circle clip-path="url(#clip302)" cx="1049.17" cy="140.688" r="14.4" fill="#e26f46" fill-rule="evenodd" fill-opacity="1" stroke="#000000" stroke-opacity="1" stroke-width="3.2"/>
<circle clip-path="url(#clip302)" cx="1434.5" cy="576.939" r="14.4" fill="#e26f46" fill-rule="evenodd" fill-opacity="1" stroke="#000000" stroke-opacity="1" stroke-width="3.2"/>
<circle clip-path="url(#clip302)" cx="1608.69" cy="625.654" r="14.4" fill="#e26f46" fill-rule="evenodd" fill-opacity="1" stroke="#000000" stroke-opacity="1" stroke-width="3.2"/>
<circle clip-path="url(#clip302)" cx="2103.02" cy="704.416" r="14.4" fill="#e26f46" fill-rule="evenodd" fill-opacity="1" stroke="#000000" stroke-opacity="1" stroke-width="3.2"/>
<circle clip-path="url(#clip302)" cx="2352.76" cy="765.963" r="14.4" fill="#e26f46" fill-rule="evenodd" fill-opacity="1" stroke="#000000" stroke-opacity="1" stroke-width="3.2"/>
<circle clip-path="url(#clip302)" cx="1201.46" cy="370.592" r="14.4" fill="#e26f46" fill-rule="evenodd" fill-opacity="1" stroke="#000000" stroke-opacity="1" stroke-width="3.2"/>
<circle clip-path="url(#clip302)" cx="1537.04" cy="434.975" r="14.4" fill="#e26f46" fill-rule="evenodd" fill-opacity="1" stroke="#000000" stroke-opacity="1" stroke-width="3.2"/>
<circle clip-path="url(#clip302)" cx="870.144" cy="255.966" r="14.4" fill="#e26f46" fill-rule="evenodd" fill-opacity="1" stroke="#000000" stroke-opacity="1" stroke-width="3.2"/>
<circle clip-path="url(#clip302)" cx="1498.29" cy="508.99" r="14.4" fill="#e26f46" fill-rule="evenodd" fill-opacity="1" stroke="#000000" stroke-opacity="1" stroke-width="3.2"/>
<circle clip-path="url(#clip302)" cx="2010.82" cy="516.591" r="14.4" fill="#e26f46" fill-rule="evenodd" fill-opacity="1" stroke="#000000" stroke-opacity="1" stroke-width="3.2"/>
<circle clip-path="url(#clip302)" cx="1843.25" cy="420.39" r="14.4" fill="#e26f46" fill-rule="evenodd" fill-opacity="1" stroke="#000000" stroke-opacity="1" stroke-width="3.2"/>
<circle clip-path="url(#clip302)" cx="795.932" cy="220.428" r="14.4" fill="#e26f46" fill-rule="evenodd" fill-opacity="1" stroke="#000000" stroke-opacity="1" stroke-width="3.2"/>
<circle clip-path="url(#clip302)" cx="1196.65" cy="276.715" r="14.4" fill="#e26f46" fill-rule="evenodd" fill-opacity="1" stroke="#000000" stroke-opacity="1" stroke-width="3.2"/>
<circle clip-path="url(#clip302)" cx="1373.11" cy="326.791" r="14.4" fill="#e26f46" fill-rule="evenodd" fill-opacity="1" stroke="#000000" stroke-opacity="1" stroke-width="3.2"/>
<circle clip-path="url(#clip302)" cx="1737.22" cy="202.629" r="14.4" fill="#e26f46" fill-rule="evenodd" fill-opacity="1" stroke="#000000" stroke-opacity="1" stroke-width="3.2"/>
<circle clip-path="url(#clip302)" cx="1690.05" cy="252.394" r="14.4" fill="#e26f46" fill-rule="evenodd" fill-opacity="1" stroke="#000000" stroke-opacity="1" stroke-width="3.2"/>
<circle clip-path="url(#clip302)" cx="1234.69" cy="487.71" r="14.4" fill="#e26f46" fill-rule="evenodd" fill-opacity="1" stroke="#000000" stroke-opacity="1" stroke-width="3.2"/>
<circle clip-path="url(#clip302)" cx="1918.66" cy="649.477" r="14.4" fill="#e26f46" fill-rule="evenodd" fill-opacity="1" stroke="#000000" stroke-opacity="1" stroke-width="3.2"/>
<circle clip-path="url(#clip302)" cx="808.419" cy="278.32" r="14.4" fill="#e26f46" fill-rule="evenodd" fill-opacity="1" stroke="#000000" stroke-opacity="1" stroke-width="3.2"/>
<circle clip-path="url(#clip302)" cx="1576.45" cy="429.103" r="14.4" fill="#e26f46" fill-rule="evenodd" fill-opacity="1" stroke="#000000" stroke-opacity="1" stroke-width="3.2"/>
<circle clip-path="url(#clip302)" cx="1597.24" cy="637.521" r="14.4" fill="#e26f46" fill-rule="evenodd" fill-opacity="1" stroke="#000000" stroke-opacity="1" stroke-width="3.2"/>
<circle clip-path="url(#clip302)" cx="1514.21" cy="556.618" r="14.4" fill="#e26f46" fill-rule="evenodd" fill-opacity="1" stroke="#000000" stroke-opacity="1" stroke-width="3.2"/>
<circle clip-path="url(#clip302)" cx="1830.45" cy="622.324" r="14.4" fill="#e26f46" fill-rule="evenodd" fill-opacity="1" stroke="#000000" stroke-opacity="1" stroke-width="3.2"/>
<circle clip-path="url(#clip302)" cx="1928.41" cy="738.171" r="14.4" fill="#e26f46" fill-rule="evenodd" fill-opacity="1" stroke="#000000" stroke-opacity="1" stroke-width="3.2"/>
<circle clip-path="url(#clip302)" cx="1470.22" cy="602.829" r="14.4" fill="#e26f46" fill-rule="evenodd" fill-opacity="1" stroke="#000000" stroke-opacity="1" stroke-width="3.2"/>
<circle clip-path="url(#clip302)" cx="1960.94" cy="440.896" r="14.4" fill="#e26f46" fill-rule="evenodd" fill-opacity="1" stroke="#000000" stroke-opacity="1" stroke-width="3.2"/>
<circle clip-path="url(#clip302)" cx="1535.83" cy="219.003" r="14.4" fill="#e26f46" fill-rule="evenodd" fill-opacity="1" stroke="#000000" stroke-opacity="1" stroke-width="3.2"/>
<circle clip-path="url(#clip302)" cx="1668.87" cy="389.106" r="14.4" fill="#e26f46" fill-rule="evenodd" fill-opacity="1" stroke="#000000" stroke-opacity="1" stroke-width="3.2"/>
<circle clip-path="url(#clip302)" cx="1225.54" cy="513.16" r="14.4" fill="#e26f46" fill-rule="evenodd" fill-opacity="1" stroke="#000000" stroke-opacity="1" stroke-width="3.2"/>
<circle clip-path="url(#clip302)" cx="1321.27" cy="517.689" r="14.4" fill="#e26f46" fill-rule="evenodd" fill-opacity="1" stroke="#000000" stroke-opacity="1" stroke-width="3.2"/>
<circle clip-path="url(#clip302)" cx="1323.36" cy="47.2441" r="14.4" fill="#e26f46" fill-rule="evenodd" fill-opacity="1" stroke="#000000" stroke-opacity="1" stroke-width="3.2"/>
<circle clip-path="url(#clip302)" cx="1350.32" cy="509.014" r="14.4" fill="#e26f46" fill-rule="evenodd" fill-opacity="1" stroke="#000000" stroke-opacity="1" stroke-width="3.2"/>
<circle clip-path="url(#clip302)" cx="1493.14" cy="436.143" r="14.4" fill="#e26f46" fill-rule="evenodd" fill-opacity="1" stroke="#000000" stroke-opacity="1" stroke-width="3.2"/>
<circle clip-path="url(#clip302)" cx="1552.38" cy="239.126" r="14.4" fill="#e26f46" fill-rule="evenodd" fill-opacity="1" stroke="#000000" stroke-opacity="1" stroke-width="3.2"/>
<circle clip-path="url(#clip302)" cx="1543.73" cy="526.309" r="14.4" fill="#e26f46" fill-rule="evenodd" fill-opacity="1" stroke="#000000" stroke-opacity="1" stroke-width="3.2"/>
<circle clip-path="url(#clip302)" cx="1198.79" cy="182.953" r="14.4" fill="#e26f46" fill-rule="evenodd" fill-opacity="1" stroke="#000000" stroke-opacity="1" stroke-width="3.2"/>
<circle clip-path="url(#clip302)" cx="1649.83" cy="130.768" r="14.4" fill="#e26f46" fill-rule="evenodd" fill-opacity="1" stroke="#000000" stroke-opacity="1" stroke-width="3.2"/>
<circle clip-path="url(#clip302)" cx="890.074" cy="249.866" r="14.4" fill="#e26f46" fill-rule="evenodd" fill-opacity="1" stroke="#000000" stroke-opacity="1" stroke-width="3.2"/>
<circle clip-path="url(#clip302)" cx="1216.75" cy="472.243" r="14.4" fill="#e26f46" fill-rule="evenodd" fill-opacity="1" stroke="#000000" stroke-opacity="1" stroke-width="3.2"/>
<circle clip-path="url(#clip302)" cx="1693.39" cy="337.101" r="14.4" fill="#e26f46" fill-rule="evenodd" fill-opacity="1" stroke="#000000" stroke-opacity="1" stroke-width="3.2"/>
<circle clip-path="url(#clip302)" cx="1646.95" cy="501.768" r="14.4" fill="#e26f46" fill-rule="evenodd" fill-opacity="1" stroke="#000000" stroke-opacity="1" stroke-width="3.2"/>
<circle clip-path="url(#clip302)" cx="1825.77" cy="608.297" r="14.4" fill="#e26f46" fill-rule="evenodd" fill-opacity="1" stroke="#000000" stroke-opacity="1" stroke-width="3.2"/>
<circle clip-path="url(#clip302)" cx="1588.49" cy="467.862" r="14.4" fill="#e26f46" fill-rule="evenodd" fill-opacity="1" stroke="#000000" stroke-opacity="1" stroke-width="3.2"/>
<circle clip-path="url(#clip302)" cx="2208.69" cy="516.796" r="14.4" fill="#e26f46" fill-rule="evenodd" fill-opacity="1" stroke="#000000" stroke-opacity="1" stroke-width="3.2"/>
<circle clip-path="url(#clip302)" cx="1266.04" cy="530.046" r="14.4" fill="#e26f46" fill-rule="evenodd" fill-opacity="1" stroke="#000000" stroke-opacity="1" stroke-width="3.2"/>
<circle clip-path="url(#clip302)" cx="1130.68" cy="362.625" r="14.4" fill="#e26f46" fill-rule="evenodd" fill-opacity="1" stroke="#000000" stroke-opacity="1" stroke-width="3.2"/>
<circle clip-path="url(#clip302)" cx="1451.2" cy="502.703" r="14.4" fill="#e26f46" fill-rule="evenodd" fill-opacity="1" stroke="#000000" stroke-opacity="1" stroke-width="3.2"/>
<circle clip-path="url(#clip302)" cx="1602.32" cy="448.164" r="14.4" fill="#e26f46" fill-rule="evenodd" fill-opacity="1" stroke="#000000" stroke-opacity="1" stroke-width="3.2"/>
<circle clip-path="url(#clip302)" cx="1461.79" cy="157.768" r="14.4" fill="#e26f46" fill-rule="evenodd" fill-opacity="1" stroke="#000000" stroke-opacity="1" stroke-width="3.2"/>
<circle clip-path="url(#clip302)" cx="867.368" cy="207.372" r="14.4" fill="#e26f46" fill-rule="evenodd" fill-opacity="1" stroke="#000000" stroke-opacity="1" stroke-width="3.2"/>
<path clip-path="url(#clip300)" d="M1936.87 440.581 L2284.11 440.581 L2284.11 90.6606 L1936.87 90.6606  Z" fill="#ffffff" fill-rule="evenodd" fill-opacity="1"/>
<polyline clip-path="url(#clip300)" style="stroke:#000000; stroke-linecap:round; stroke-linejoin:round; stroke-width:4; stroke-opacity:1; fill:none" points="1936.87,440.581 2284.11,440.581 2284.11,90.6606 1936.87,90.6606 1936.87,440.581 "/>
<circle clip-path="url(#clip300)" cx="2028.4" cy="207.301" r="46.08" fill="#009af9" fill-rule="evenodd" fill-opacity="1" stroke="#000000" stroke-opacity="1" stroke-width="10.24"/>
<path clip-path="url(#clip300)" d="M2119.92 207.831 Q2119.92 194.04 2122.73 185.659 Q2125.6 177.226 2131.17 172.664 Q2136.79 168.102 2145.28 168.102 Q2151.54 168.102 2156.26 170.648 Q2160.98 173.141 2164.05 177.915 Q2167.13 182.636 2168.88 189.478 Q2170.63 196.268 2170.63 207.831 Q2170.63 221.516 2167.82 229.95 Q2165.01 238.33 2159.39 242.945 Q2153.82 247.507 2145.28 247.507 Q2134.03 247.507 2127.61 239.444 Q2119.92 229.738 2119.92 207.831 M2129.74 207.831 Q2129.74 226.979 2134.19 233.344 Q2138.7 239.656 2145.28 239.656 Q2151.85 239.656 2156.31 233.291 Q2160.82 226.926 2160.82 207.831 Q2160.82 188.63 2156.31 182.318 Q2151.85 176.006 2145.17 176.006 Q2138.59 176.006 2134.67 181.575 Q2129.74 188.683 2129.74 207.831 Z" fill="#000000" fill-rule="nonzero" fill-opacity="1" /><path clip-path="url(#clip300)" d="M2185.7 246.181 L2185.7 235.307 L2196.57 235.307 L2196.57 246.181 L2185.7 246.181 Z" fill="#000000" fill-rule="nonzero" fill-opacity="1" /><path clip-path="url(#clip300)" d="M2210.52 207.831 Q2210.52 194.04 2213.33 185.659 Q2216.19 177.226 2221.76 172.664 Q2227.39 168.102 2235.87 168.102 Q2242.13 168.102 2246.85 170.648 Q2251.57 173.141 2254.65 177.915 Q2257.73 182.636 2259.48 189.478 Q2261.23 196.268 2261.23 207.831 Q2261.23 221.516 2258.42 229.95 Q2255.61 238.33 2249.98 242.945 Q2244.41 247.507 2235.87 247.507 Q2224.63 247.507 2218.21 239.444 Q2210.52 229.738 2210.52 207.831 M2220.33 207.831 Q2220.33 226.979 2224.79 233.344 Q2229.3 239.656 2235.87 239.656 Q2242.45 239.656 2246.91 233.291 Q2251.42 226.926 2251.42 207.831 Q2251.42 188.63 2246.91 182.318 Q2242.45 176.006 2235.77 176.006 Q2229.19 176.006 2225.27 181.575 Q2220.33 188.683 2220.33 207.831 Z" fill="#000000" fill-rule="nonzero" fill-opacity="1" /><circle clip-path="url(#clip300)" cx="2028.4" cy="323.941" r="46.08" fill="#e26f46" fill-rule="evenodd" fill-opacity="1" stroke="#000000" stroke-opacity="1" stroke-width="10.24"/>
<path clip-path="url(#clip300)" d="M2148.57 362.821 L2139.02 362.821 L2139.02 301.981 Q2135.57 305.27 2129.95 308.558 Q2124.38 311.847 2119.92 313.491 L2119.92 304.262 Q2127.93 300.496 2133.93 295.139 Q2139.92 289.781 2142.41 284.742 L2148.57 284.742 L2148.57 362.821 Z" fill="#000000" fill-rule="nonzero" fill-opacity="1" /><path clip-path="url(#clip300)" d="M2178.38 362.821 L2178.38 351.947 L2189.25 351.947 L2189.25 362.821 L2178.38 362.821 Z" fill="#000000" fill-rule="nonzero" fill-opacity="1" /><path clip-path="url(#clip300)" d="M2203.2 324.471 Q2203.2 310.68 2206.01 302.299 Q2208.88 293.866 2214.44 289.304 Q2220.07 284.742 2228.55 284.742 Q2234.81 284.742 2239.53 287.288 Q2244.25 289.781 2247.33 294.555 Q2250.41 299.276 2252.16 306.118 Q2253.91 312.908 2253.91 324.471 Q2253.91 338.156 2251.1 346.59 Q2248.29 354.97 2242.66 359.585 Q2237.09 364.147 2228.55 364.147 Q2217.31 364.147 2210.89 356.084 Q2203.2 346.378 2203.2 324.471 M2213.01 324.471 Q2213.01 343.619 2217.47 349.984 Q2221.98 356.296 2228.55 356.296 Q2235.13 356.296 2239.59 349.931 Q2244.1 343.566 2244.1 324.471 Q2244.1 305.27 2239.59 298.958 Q2235.13 292.646 2228.45 292.646 Q2221.87 292.646 2217.95 298.215 Q2213.01 305.323 2213.01 324.471 Z" fill="#000000" fill-rule="nonzero" fill-opacity="1" /></svg>
